<?xml version="1.0" encoding="utf-8"?>
<!-- Generator: Adobe Illustrator 25.2.3, SVG Export Plug-In . SVG Version: 6.00 Build 0)  -->
<svg version="1.1" id="Layer_1" xmlns="http://www.w3.org/2000/svg" xmlns:xlink="http://www.w3.org/1999/xlink" x="0px" y="0px"
	 viewBox="0 0 140 200" style="enable-background:new 0 0 140 200;" xml:space="preserve">
<style type="text/css">
	.st0{fill:none;stroke:#FFFFFF;stroke-width:0.25;stroke-miterlimit:10;}
	.st1{fill:#CCB9B9;stroke:#FFFFFF;stroke-width:0.25;stroke-miterlimit:10;}
	.st2{fill:#E4DAD8;stroke:#FFFFFF;stroke-width:0.25;stroke-miterlimit:10;}
	.st3{fill:#CCB9B9;stroke:#FFFFFF;stroke-width:0.25;stroke-linejoin:bevel;stroke-miterlimit:10;}
	.st4{fill:#E4DAD8;stroke:#FFFFFF;stroke-width:0.25;stroke-linejoin:bevel;stroke-miterlimit:10;}
	.st5{fill:#DC3359;stroke:#FFFFFF;stroke-width:0.25;stroke-miterlimit:10;}
	.st6{fill:#C42C54;stroke:#FFFFFF;stroke-width:0.25;stroke-miterlimit:10;}
	.st7{fill:none;stroke:#FFFFFF;stroke-width:0.2636;stroke-miterlimit:10;}
	.st8{fill:none;stroke:#B71148;stroke-width:0.2636;stroke-miterlimit:10;}
	.st9{fill:none;stroke:#B71148;stroke-width:0.2636;stroke-linecap:round;stroke-miterlimit:10;}
	.st10{fill:#B71148;}
	.st11{fill:#B71148;stroke:#FFFFFF;stroke-width:0.25;stroke-miterlimit:10;}
	.st12{fill:#B71148;stroke:#FFFFFF;stroke-width:0.2548;stroke-miterlimit:10;}
	.st13{fill:#F77441;stroke:#FFFFFF;stroke-width:0.2657;stroke-miterlimit:10;}
	.st14{fill:none;stroke:#FFFFFF;stroke-width:0.2657;stroke-miterlimit:10;}
	.st15{fill:#F77441;stroke:#FFFFFF;stroke-width:0.2636;stroke-miterlimit:10;}
	.st16{fill:#DC3359;stroke:#FFFFFF;stroke-width:0.2548;stroke-miterlimit:10;}
	.st17{fill:none;stroke:#B71148;stroke-width:1.5291;stroke-linecap:round;stroke-miterlimit:10;}
	.st18{fill:#C42C54;}
	.st19{fill:#B71148;stroke:#FFFFFF;stroke-width:0.2392;stroke-miterlimit:10;}
	.st20{fill:#DC3359;stroke:#FFFFFF;stroke-width:0.2392;stroke-miterlimit:10;}
	.st21{fill:none;stroke:#FFFFFF;stroke-width:0.25;stroke-linejoin:bevel;stroke-miterlimit:10;}
</style>
<g>
	<line class="st0" x1="56.3" y1="160.3" x2="56.3" y2="167.7"/>
	<line class="st0" x1="56" y1="160.1" x2="56" y2="167.8"/>
	<g>
		<polygon class="st1" points="9.7,150.7 52.1,172.2 124,136 124.1,127.7 84,109.3 9.7,146.8 		"/>
		<polygon class="st1" points="9.8,151.4 9.9,143.3 52.2,163.9 52,172.2 		"/>
		<polygon class="st1" points="0.8,153.4 0.8,160.1 52.4,186.1 139.2,142.4 139.2,135.4 52.3,178.7 		"/>
		<polygon class="st2" points="52,178.7 139.3,135.4 87.7,110.3 1,152.8 		"/>
		<polygon class="st1" points="9.7,150.7 52,172.5 125.5,135.1 125.7,126.8 84,109.3 9.7,146.8 		"/>
		<polygon class="st3" points="9.8,151.4 9.9,143.3 52,164.5 51.9,172.5 		"/>
		<polygon class="st3" points="1.1,152.8 1.1,161 52,186.5 139.5,142.1 139.4,135.2 52,178.7 		"/>
		<path class="st4" d="M9.9,143.2l41.9,21.2l74.1-37.9L83.5,106L9.9,143.2z"/>
		<g>
			<polygon class="st5" points="30.5,146.7 51.9,157.4 51.9,147.6 30.2,137 			"/>
			<polygon class="st6" points="52,157.2 112.6,127.1 113,118.5 52,147.7 			"/>
			<line class="st7" x1="30.2" y1="136.9" x2="90.1" y2="106.4"/>
			<line class="st8" x1="52.9" y1="145.1" x2="106.8" y2="119.7"/>
			<path class="st9" d="M36.7,136.1c-0.4-0.7,52.2-27.8,52.2-27.8"/>
			<g>
				<polygon class="st10" points="51.4,145.1 52.5,144.3 51.6,143.3 49.6,143.2 48.4,143.9 49.4,144.9 				"/>
				<path class="st10" d="M51.2,144.7l0.3-0.2c0.2-0.1,0.2-0.4,0.1-0.6l-0.2-0.2c-0.1-0.1-0.2-0.1-0.2-0.1l-1.1-0.1
					c-0.1,0-0.2,0-0.3,0.1l-0.3,0.2c-0.2,0.1-0.2,0.4-0.1,0.6l0.2,0.2c0.1,0.1,0.2,0.1,0.2,0.1l1.1,0.1
					C51,144.8,51.1,144.8,51.2,144.7z"/>
			</g>
			<g>
				<polygon class="st10" points="106.5,118.5 107.6,117.7 106.7,116.7 104.7,116.6 103.6,117.3 104.5,118.3 				"/>
				<path class="st10" d="M106.3,118.1l0.3-0.2c0.2-0.1,0.2-0.4,0.1-0.6l-0.2-0.2c-0.1-0.1-0.2-0.1-0.2-0.1l-1.1-0.1
					c-0.1,0-0.2,0-0.3,0.1l-0.3,0.2c-0.2,0.1-0.2,0.4-0.1,0.6l0.2,0.2c0.1,0.1,0.2,0.1,0.2,0.1l1.1,0.1
					C106.1,118.2,106.2,118.1,106.3,118.1z"/>
			</g>
			<g>
				<polygon class="st10" points="41.7,137.3 42.8,136.6 41.8,135.7 39.9,135.5 38.9,136.3 39.8,137.1 				"/>
				<path class="st10" d="M41.5,137l0.3-0.2c0.2-0.1,0.2-0.4,0.1-0.6l-0.2-0.2c-0.1-0.1-0.1-0.1-0.2-0.1l-1.1-0.1
					c-0.1,0-0.2,0-0.3,0.1l-0.3,0.2c-0.2,0.1-0.2,0.4-0.1,0.6l0.2,0.2C40,137,40,137,40.1,137l1.1,0.1C41.4,137,41.4,137,41.5,137z"
					/>
			</g>
			<polygon class="st11" points="25.6,144 51.9,157.2 51.9,147.6 25.6,134.4 			"/>
			<polygon class="st11" points="51.9,157.2 113.1,127.1 113,117.5 52,147.7 			"/>
			<path class="st12" d="M90.8,111.8l5.4-2.7c0,0-0.5,1.5,0.8,2.1c1.2,0.6,3.3-0.2,3.3-0.2l-7.4,3.3L90.8,111.8z"/>
			<g>
				<path class="st13" d="M50.3,137.5c0.2-0.1,0.1-0.8,0.1-0.8l1-0.4c0,0,5.1,0.4,6.8,0.4c1.3,0,3.7-0.3,5.4-1.3
					c1.5-1,1.9-1.8,1.9-1.8l0.5-0.4l1.3-0.7c0,0-0.1,0.2,0.9,0s2.6-1,2.6-1l2.2-1.2c0,0,0.7-0.7,0.8-0.9c0-0.1,0.5,0.2,0.7,0.1
					c0.2-0.1,2-1.1,2.1-1.1c0.2,0,0.7-0.5,0.7-0.6l0.8,0.1c0,0,1.6-0.9,2.1-1.1c0.1-0.1,0.2-0.7,0.2-0.7s0.4,0.3,0.6,0.2l2.2-1.1
					l0.5-0.6l0.4,0.2l3.4-1.8l0.5-0.1c0,0,0.4-0.4,0.6-0.5l0.4,0.1l3-1.7c0.1-0.1,3.8-1.4,1-7.4c-2.6-5.5-6.2-4.4-7.1-4.2
					c-0.7,0.1-2.5,1-2.8,1.2c-0.1,0.1-0.2,0.4-0.2,0.4c-0.1,0-0.3-0.1-0.4-0.1c-0.8,0.3-3.5,1.7-4.1,2.1c-0.1,0.1-0.1,0.3-0.1,0.3
					s-0.4,0-0.6,0c-0.4,0.1-1.7,0.8-2.5,1.1c-0.1,0-0.1,0.4-0.1,0.4s-0.4,0-0.6,0c-0.4,0.1-2.3,1.1-2.3,1.1c-0.1,0-0.1,0-0.1,0.1
					c-0.1,0.1-0.1,0.3,0,0.5l0,0c0,0-0.7-0.2-0.8-0.2c-0.5,0.2-2.1,1-2.7,1.2c-0.1,0,0,0.3-0.2,0.4s-0.5,0-0.6,0
					c-0.9,0.2-4.7,2.2-4.7,2.2l-1,1.1l-1.6,0.9l-1,0.1c0,0-3,0.6-5.2,2.9s-4.8,6.7-4.8,6.7l-0.7,0.4c0,0-0.2,0.2-0.3,0.2
					s-0.4-0.4-0.6-0.3c-0.2,0.1,0,0.8-0.2,0.9c-0.4,0.3-1.6,0.9-1.6,0.9l-1,0.4c0,0,0.8,0,1.5,1.6c1,1.9,0.6,2.7,0.6,2.7l2.2-1.2
					l0.5-0.1C49.7,137.3,50.1,137.6,50.3,137.5z"/>
				<path class="st14" d="M50,137.5c0,0-0.1-2.4-2.6-5.2"/>
				<path class="st7" d="M47.8,132.2c2.5,2.7,2.5,5,2.5,5"/>
				<path class="st13" d="M47.1,138.4c-0.4,0.2-1.2-0.8-1.8-1.9c-0.6-1.1-0.7-2.2-0.3-2.4s1.1,0.6,1.7,1.7
					C47.3,136.9,47.5,138.2,47.1,138.4z"/>
				<path class="st15" d="M45.8,136.4"/>
				<path class="st15" d="M56.4,122.6"/>
				<path class="st7" d="M73.6,129.5c0,0,0.5-2.2-1.5-6.3c-2-4.2-4.1-5.1-4.1-5.1"/>
				<path class="st7" d="M76.9,127.9c0,0,0.8-2.1-1.2-6.2c-2-4.2-4-5.4-4-5.4"/>
				<path class="st7" d="M83.4,124.7c0,0,1-2.4-1.1-6.5c-2-4.2-4.8-5.1-4.8-5.1"/>
				<path class="st7" d="M80.3,126.3c0,0,0.5-2.4-1.5-6.5c-2-4.2-4.3-5.3-4.3-5.3"/>
				<path class="st7" d="M88,122.5c0,0,1-2.4-1.1-6.7c-2.1-4.4-4.6-5-4.6-5"/>
				<path class="st7" d="M65.5,133.3c0,0-0.5-3.5-1.6-6.2s-3.7-4.9-3.7-4.9"/>
				<path class="st7" d="M67.1,132.5c0,0-0.2-3.3-1.5-6.1c-1.3-2.8-4-4.9-4-4.9"/>
			</g>
			<path class="st16" d="M100,111.1l-6.8,3c0.7,1.8,0.5,3.6,0.2,4.5c-0.5,2-2.1,2.6-2.1,2.6l-2.7,1.4l-0.4-0.2
				c-0.2,0.1-0.3,0.4-0.3,0.4l-4,2.1l-0.5-0.1l-0.6,0.6l-2.2,1.1c-0.1,0.1-0.5-0.2-0.5-0.2s-0.2,0.5-0.3,0.6
				c-0.5,0.3-2.1,1.1-2.1,1.1l-0.7-0.2c0,0.1-0.5,0.7-0.7,0.7s-1.9,1.1-2.1,1.1s-0.6-0.3-0.6-0.1c0,0.1-0.5,0.7-0.5,0.7l-2.5,1.4
				c0,0-1.6,0.8-2.6,1s-0.9,0-0.9,0l-1.3,0.7l-0.5,0.4c0,0-0.4,0.8-1.9,1.8s-3.9,1.2-5.4,1.3c-1.7,0-6.8-0.4-6.8-0.4l-1,0.4
				c0,0,0.1,0.8-0.1,0.8c-0.2,0.1-0.6-0.3-0.6-0.3l-0.5,0.1l-2.2,1.2c0,0-0.5-0.5-1.4-2.5c-0.8-1.6-0.7-1.8-0.7-1.8l1-0.4
				c0,0,1.2-0.6,1.6-0.9c0.2-0.1,0-0.8,0.2-0.9c0.2-0.1,0.4,0.3,0.6,0.3c0.1,0,0.3-0.2,0.3-0.2l0.7-0.4c0,0,2.6-4.3,4.8-6.7
				c2.2-2.4,5.2-2.9,5.2-2.9l1-0.1l1.6-0.9l1-1.1c0,0,3.9-2.1,4.7-2.2c0.1,0,0.4,0.1,0.6,0c0.1-0.1,0.1-0.4,0.2-0.4
				c0.6-0.4,2.2-1.1,2.7-1.2c0.1-0.1,0.8,0.2,0.8,0.2l0,0c-0.1-0.1-0.1-0.4,0-0.5l0.1-0.1c0,0,1.9-1.1,2.3-1.1c0.1,0,0.6,0,0.6,0
				s0-0.4,0.1-0.4c0.8-0.4,2.1-1,2.5-1.1c0.1,0,0.6,0,0.6,0s0-0.3,0.1-0.3c0.6-0.5,3.3-1.8,4.1-2.1c0.1,0,0.3,0.1,0.4,0.1
				s0.1-0.4,0.2-0.4c0.4-0.2,2.1-1.1,2.8-1.2c0.9-0.2,3.8-0.4,6.4,2l4.7-2.4l-9.8-5.4l-61,31L52,147.7l60.8-30L100,111.1z"/>
			<line class="st17" x1="56.2" y1="142.2" x2="101.8" y2="119.5"/>
			<line class="st17" x1="37.4" y1="131.4" x2="82.8" y2="108.1"/>
			<g>
				<polygon class="st10" points="87.5,107.4 88.5,106.7 87.7,105.7 85.8,105.5 84.7,106.3 85.6,107.3 				"/>
				<path class="st18" d="M87.3,107.1l0.3-0.2c0.2-0.1,0.2-0.4,0.1-0.6l-0.2-0.2c-0.1-0.1-0.1-0.1-0.2-0.1l-1.1-0.1
					c-0.1,0-0.2,0-0.3,0.1l-0.3,0.2c-0.2,0.1-0.2,0.4-0.1,0.6l0.2,0.2c0.1,0.1,0.1,0.1,0.2,0.1l1.1,0.1
					C87.2,107.1,87.3,107.1,87.3,107.1z"/>
			</g>
			<g>
				<polygon class="st10" points="106.3,117.2 107.5,116.5 106.5,115.5 104.5,115.3 103.4,116.1 104.3,117 				"/>
				<path class="st18" d="M106.1,116.8l0.3-0.2c0.2-0.1,0.2-0.4,0.1-0.6l-0.2-0.2c-0.1-0.1-0.2-0.1-0.2-0.1l-1.1-0.1
					c-0.1,0-0.2,0-0.3,0.1l-0.3,0.2c-0.2,0.1-0.2,0.4-0.1,0.6l0.2,0.2c0.1,0.1,0.2,0.1,0.2,0.1l1.1,0.1
					C105.9,116.9,106,116.9,106.1,116.8z"/>
			</g>
			<g>
				<polygon class="st10" points="52.3,143.8 53.3,143.1 52.5,142.1 50.4,141.9 49.3,142.7 50.3,143.6 				"/>
				<path class="st18" d="M52.1,143.4l0.3-0.2c0.2-0.1,0.2-0.4,0.1-0.6l-0.2-0.2c-0.1-0.1-0.2-0.1-0.2-0.1l-1.1-0.1
					c-0.1,0-0.2,0-0.3,0.1l-0.3,0.2c-0.2,0.1-0.2,0.4-0.1,0.6l0.2,0.2c0.1,0.1,0.2,0.1,0.2,0.1l1.1,0.1
					C51.9,143.5,52,143.5,52.1,143.4z"/>
			</g>
			<g>
				<polygon class="st10" points="37.2,135.8 38.4,135 37.4,134.1 35.4,133.9 34.4,134.6 35.2,135.6 				"/>
				<path class="st18" d="M37,135.4l0.3-0.2c0.2-0.1,0.2-0.4,0.1-0.6l-0.2-0.2c-0.1-0.1-0.2-0.1-0.2-0.1l-1.1-0.1
					c-0.1,0-0.2,0-0.3,0.1l-0.3,0.2c-0.2,0.1-0.2,0.4-0.1,0.6l0.2,0.2c0.1,0.1,0.2,0.1,0.2,0.1l1.1,0.1C37,135.5,37,135.5,37,135.4z
					"/>
			</g>
			<g>
				<path class="st19" d="M94.6,102.5l6.6,3.3c0,0,0.4-0.9,2.4,0s2.2,2.3,2.2,2.3l12.2,6.1L117.3,51l-23-12.7L94.6,102.5z"/>
				<path class="st18" d="M97.6,98.4c0,0,1,0.9,1.6,1.7c0.7,0.8,1.4,1.1,1.4,1.1s2.4,0.1,3.4,0.5s1.6,1.1,1.7,1.3
					c0,0.1,0.8,0.1,0.8,0.1s3.4,0,5.4-1.6c0.1-0.1,0.2-0.2,0.2-0.3c0,0-2.1-2.4-4-3.4c-1-0.6-4.8-1.4-6.4-1.5
					C99.7,96.1,97.6,98.4,97.6,98.4z"/>
				<path class="st20" d="M118.3,114.4l0.1-64.8L91.7,36l-0.1,65.2l10.1,5.2l0.1-5.1c-2.4-1-3.7-2.8-4-3.6c-0.2-0.7-0.3-2.6-0.2-3.1
					c0-0.1,0.3-0.3,0.3-0.4s-0.3-0.2-0.3-0.3c-0.1-0.9-0.1-3.9,0-4.7c0-0.1,0.3-0.2,0.3-0.2s-0.2-0.4-0.2-0.5
					c-0.1-0.4-0.1-1.8-0.1-2.8c0-0.1,0.3-0.3,0.3-0.3s-0.2-0.4-0.2-0.5c-0.1-0.4,0-2.6,0-2.6c0-0.1,0-0.1,0-0.2
					c0-0.2,0.3-0.3,0.4-0.2l0,0c0,0-0.5-0.5-0.5-0.6c-0.1-0.5-0.1-2.3-0.1-3c0-0.1,0.3-0.2,0.3-0.4c0-0.2-0.2-0.4-0.3-0.5
					c-0.2-0.8-0.1-5.2-0.1-5.2l0.8-1.1V70l-0.6-1.5c0,0-0.9-3.1,0.3-6.1c1.1-3.1,3.7-6.3,3.7-6.3l0.1-0.8c0,0,0.1-0.3,0-0.4
					c-0.1-0.1-0.5-0.2-0.5-0.4s0.7-0.3,0.7-0.6c0.1-0.5,0-1.8,0-1.8l0.2-1.2c0,0,3.3,0,4.9,1.5l-0.1,3.1v0.3c0,0,0.3,0.4,0.3,0.6
					s-0.6,0.3-0.6,0.3V57c0,0,2.1,3.8,2.9,5.4c0.6,1.2,1.9,4.2,1.7,6.1c-0.2,1.8-0.8,2.3-0.8,2.3l-0.2,1.4l0.2,1.1
					c0,0,0.2,0.4,0.4,1.3c0.2,1,0.3,2.8,0.3,2.8L111,80c0,0-0.3,1-0.4,1.1s0.4,0.4,0.4,0.5s-0.1,2.3,0,2.4c0.1,0.2-0.1,0.8-0.2,0.8
					l0.4,0.7c0,0,0,1.9-0.1,2.4c0,0.2-0.5,0.5-0.5,0.5s0.4,0.3,0.4,0.4v2.5l-0.3,0.7h0.3l-0.1,3.9l0.1,0.5c0,0-0.2,0.5-0.2,0.7
					l0.3,0.3l-0.4,3.6c0,0-0.7,2.7-5.6,1.2l-0.1,5.5L118.3,114.4z"/>
				<line class="st17" x1="94.6" y1="94.9" x2="94.9" y2="47.8"/>
				<line class="st17" x1="114.7" y1="102.7" x2="114.7" y2="56.8"/>
				<polygon class="st11" points="118.4,49.6 118.3,114.4 126.7,110.3 126.8,45.3 				"/>
				<polygon class="st11" points="91.7,36 118.4,49.7 127.1,45.3 100.3,31.7 				"/>
				<g>
					<g>
						<polygon class="st10" points="93.5,40.7 94.7,41.5 95.3,43.2 94.9,44.1 93.9,43.2 93.1,41.5 						"/>
						<polygon class="st10" points="94.9,44.1 95.8,43.7 96.2,42.9 95.4,41.1 94.4,40.3 93.5,40.7 94.7,41.5 95.3,43.2 						"/>
					</g>
					<g>
						<path class="st18" d="M93.8,43.5l0.6-0.3c0,0,0.3-0.3,0-1s-0.7-0.7-0.7-0.7l-0.6,0.3L93.8,43.5z"/>
						<path class="st18" d="M93.1,41.9c0.2-0.1,0.6,0.2,0.8,0.7c0.2,0.5,0.2,0.9,0,1s-0.5-0.2-0.7-0.7C92.9,42.4,92.9,42,93.1,41.9z
							"/>
						<path class="st18" d="M93.9,43.5c0,0-0.8,0.4-1.1-0.5c-0.4-0.9,0.4-1.1,0.4-1.1"/>
					</g>
				</g>
				<g>
					<g>
						<polygon class="st10" points="113,50.3 114.2,51.1 114.8,52.8 114.5,53.7 113.4,52.8 112.6,51.1 						"/>
						<polygon class="st10" points="114.5,53.7 115.3,53.3 115.7,52.4 114.9,50.7 113.9,49.9 113,50.2 114.2,51.1 114.8,52.8 						
							"/>
					</g>
					<g>
						<path class="st18" d="M113.3,53.1l0.6-0.3c0,0,0.3-0.3,0-1s-0.7-0.7-0.7-0.7l-0.6,0.3L113.3,53.1z"/>
						<path class="st18" d="M112.6,51.5c0.2-0.1,0.6,0.2,0.8,0.7c0.2,0.5,0.2,0.9,0,1s-0.5-0.2-0.7-0.7
							C112.5,52,112.5,51.6,112.6,51.5z"/>
						<path class="st18" d="M113.4,53.1c0,0-0.8,0.4-1.1-0.5c-0.4-0.9,0.4-1.1,0.4-1.1"/>
					</g>
				</g>
				<g>
					<g>
						<polygon class="st10" points="113.7,107.5 114.8,108.3 115.4,110 115.1,110.9 114,110 113.3,108.3 						"/>
						<polygon class="st10" points="115.1,110.9 115.9,110.5 116.3,109.7 115.6,107.9 114.6,107.2 113.7,107.5 114.8,108.3 
							115.5,110 						"/>
					</g>
					<g>
						<path class="st18" d="M114,110.3l0.6-0.3c0,0,0.3-0.3,0-1s-0.7-0.7-0.7-0.7l-0.6,0.3L114,110.3z"/>
						<path class="st18" d="M113.2,108.7c0.2-0.1,0.6,0.2,0.8,0.7c0.2,0.5,0.2,0.9,0,1s-0.5-0.2-0.7-0.7
							C113,109.3,113,108.8,113.2,108.7z"/>
						<path class="st18" d="M114,110.3c0,0-0.8,0.4-1.1-0.5s0.4-1.1,0.4-1.1"/>
					</g>
				</g>
				<g>
					<g>
						<polygon class="st10" points="94,98.8 95,99.6 95.7,101.3 95.4,102.2 94.3,101.4 93.6,99.6 						"/>
						<polygon class="st10" points="95.4,102.2 96.2,101.8 96.6,101 95.9,99.2 94.8,98.5 94,98.8 95,99.7 95.8,101.3 						"/>
					</g>
					<g>
						<path class="st18" d="M94.3,101.6l0.6-0.3c0,0,0.3-0.3,0-1s-0.7-0.7-0.7-0.7l-0.6,0.3L94.3,101.6z"/>
						<path class="st18" d="M93.5,100c0.2-0.1,0.6,0.2,0.8,0.7c0.2,0.5,0.2,0.9,0,1s-0.5-0.2-0.7-0.7
							C93.3,100.6,93.3,100.1,93.5,100z"/>
						<path class="st18" d="M94.3,101.6c0,0-0.8,0.4-1.1-0.5c-0.4-0.9,0.4-1.1,0.4-1.1"/>
					</g>
				</g>
			</g>
		</g>
	</g>
	<line class="st21" x1="51.7" y1="178.5" x2="51.7" y2="186.5"/>
</g>
</svg>
