<?xml version="1.0" encoding="utf-8"?>
<!-- Generator: Adobe Illustrator 25.2.3, SVG Export Plug-In . SVG Version: 6.00 Build 0)  -->
<svg version="1.1" id="Layer_1" xmlns="http://www.w3.org/2000/svg" xmlns:xlink="http://www.w3.org/1999/xlink" x="0px" y="0px"
	 viewBox="0 0 140 200" style="enable-background:new 0 0 140 200;" xml:space="preserve">
<style type="text/css">
	.st0{fill:none;stroke:#FFFFFF;stroke-width:0.25;stroke-miterlimit:10;}
	.st1{fill:#CCB9B9;stroke:#FFFFFF;stroke-width:0.25;stroke-miterlimit:10;}
	.st2{fill:#E4DAD8;stroke:#FFFFFF;stroke-width:0.25;stroke-miterlimit:10;}
	.st3{fill:#CCB9B9;stroke:#FFFFFF;stroke-width:0.25;stroke-linejoin:bevel;stroke-miterlimit:10;}
	.st4{fill:#E4DAD8;stroke:#FFFFFF;stroke-width:0.25;stroke-linejoin:bevel;stroke-miterlimit:10;}
	.st5{fill:#DC3359;stroke:#FFFFFF;stroke-width:0.25;stroke-miterlimit:10;}
	.st6{fill:#C42C54;stroke:#FFFFFF;stroke-width:0.25;stroke-miterlimit:10;}
	.st7{fill:none;stroke:#FFFFFF;stroke-width:0.2636;stroke-miterlimit:10;}
	.st8{fill:none;stroke:#B71148;stroke-width:0.2636;stroke-miterlimit:10;}
	.st9{fill:none;stroke:#B71148;stroke-width:0.2636;stroke-linecap:round;stroke-miterlimit:10;}
	.st10{fill:#B71148;}
	.st11{fill:#B71148;stroke:#FFFFFF;stroke-width:0.25;stroke-miterlimit:10;}
	.st12{fill:#B71148;stroke:#FFFFFF;stroke-width:0.2548;stroke-miterlimit:10;}
	.st13{fill:#F77441;stroke:#FFFFFF;stroke-width:0.2657;stroke-miterlimit:10;}
	.st14{fill:none;stroke:#FFFFFF;stroke-width:0.2657;stroke-miterlimit:10;}
	.st15{fill:#F77441;stroke:#FFFFFF;stroke-width:0.2636;stroke-miterlimit:10;}
	.st16{fill:#DC3359;stroke:#FFFFFF;stroke-width:0.2548;stroke-miterlimit:10;}
	.st17{fill:none;stroke:#B71148;stroke-width:1.5291;stroke-linecap:round;stroke-miterlimit:10;}
	.st18{fill:#C42C54;}
	.st19{fill:#B71148;stroke:#FFFFFF;stroke-width:0.2392;stroke-miterlimit:10;}
	.st20{fill:#DC3359;stroke:#FFFFFF;stroke-width:0.2392;stroke-miterlimit:10;}
	.st21{fill:none;stroke:#FFFFFF;stroke-width:0.25;stroke-linejoin:bevel;stroke-miterlimit:10;}
</style>
<g>
	<line class="st0" x1="56.3" y1="173.3" x2="56.3" y2="180.7"/>
	<line class="st0" x1="56" y1="173.1" x2="56" y2="180.8"/>
	<g>
		<polygon class="st1" points="9.7,163.7 52.1,185.2 124,149 124.1,140.7 84,122.3 9.7,159.8 		"/>
		<polygon class="st1" points="9.8,164.4 9.9,156.3 52.2,176.9 52,185.2 		"/>
		<polygon class="st1" points="0.8,166.4 0.8,173.1 52.4,199.1 139.2,155.4 139.2,148.4 52.3,191.7 		"/>
		<polygon class="st2" points="52,191.7 139.3,148.4 87.7,123.3 1,165.8 		"/>
		<polygon class="st1" points="9.7,163.7 52,185.5 125.5,148.1 125.7,139.8 84,122.3 9.7,159.8 		"/>
		<polygon class="st3" points="9.8,164.4 9.9,156.3 52,177.5 51.9,185.5 		"/>
		<polygon class="st3" points="1.1,165.8 1.1,174 52,199.5 139.5,155.1 139.4,148.2 52,191.7 		"/>
		<path class="st4" d="M9.9,156.2l41.9,21.2l74.1-37.9L83.5,119L9.9,156.2z"/>
		<g>
			<polygon class="st5" points="30.5,159.7 51.9,170.4 51.9,160.6 30.2,150 			"/>
			<polygon class="st6" points="52,170.2 112.6,140.1 113,131.5 52,160.7 			"/>
			<line class="st7" x1="30.2" y1="149.9" x2="90.1" y2="119.4"/>
			<line class="st8" x1="52.9" y1="158.1" x2="106.8" y2="132.7"/>
			<path class="st9" d="M36.7,149.1c-0.4-0.7,52.2-27.8,52.2-27.8"/>
			<g>
				<polygon class="st10" points="51.4,158.1 52.5,157.3 51.6,156.3 49.6,156.2 48.4,156.9 49.4,157.9 				"/>
				<path class="st10" d="M51.2,157.7l0.3-0.2c0.2-0.1,0.2-0.4,0.1-0.6l-0.2-0.2c-0.1-0.1-0.2-0.1-0.2-0.1l-1.1-0.1
					c-0.1,0-0.2,0-0.3,0.1l-0.3,0.2c-0.2,0.1-0.2,0.4-0.1,0.6l0.2,0.2c0.1,0.1,0.2,0.1,0.2,0.1l1.1,0.1
					C51,157.8,51.1,157.8,51.2,157.7z"/>
			</g>
			<g>
				<polygon class="st10" points="106.5,131.5 107.6,130.7 106.7,129.7 104.7,129.6 103.6,130.3 104.5,131.3 				"/>
				<path class="st10" d="M106.3,131.1l0.3-0.2c0.2-0.1,0.2-0.4,0.1-0.6l-0.2-0.2c-0.1-0.1-0.2-0.1-0.2-0.1l-1.1-0.1
					c-0.1,0-0.2,0-0.3,0.1l-0.3,0.2c-0.2,0.1-0.2,0.4-0.1,0.6l0.2,0.2c0.1,0.1,0.2,0.1,0.2,0.1l1.1,0.1
					C106.1,131.2,106.2,131.1,106.3,131.1z"/>
			</g>
			<g>
				<polygon class="st10" points="41.7,150.3 42.8,149.6 41.8,148.7 39.9,148.5 38.9,149.3 39.8,150.1 				"/>
				<path class="st10" d="M41.5,150l0.3-0.2c0.2-0.1,0.2-0.4,0.1-0.6l-0.2-0.2c-0.1-0.1-0.1-0.1-0.2-0.1l-1.1-0.1
					c-0.1,0-0.2,0-0.3,0.1l-0.3,0.2c-0.2,0.1-0.2,0.4-0.1,0.6l0.2,0.2C40,150,40,150,40.1,150l1.1,0.1C41.4,150,41.4,150,41.5,150z"
					/>
			</g>
			<polygon class="st11" points="25.6,157 51.9,170.2 51.9,160.6 25.6,147.4 			"/>
			<polygon class="st11" points="51.9,170.2 113.1,140.1 113,130.5 52,160.7 			"/>
			<path class="st12" d="M90.8,124.8l5.4-2.7c0,0-0.5,1.5,0.8,2.1c1.2,0.6,3.3-0.2,3.3-0.2l-7.4,3.3L90.8,124.8z"/>
			<g>
				<path class="st13" d="M50.3,150.5c0.2-0.1,0.1-0.8,0.1-0.8l1-0.4c0,0,5.1,0.4,6.8,0.4c1.3,0,3.7-0.3,5.4-1.3
					c1.5-1,1.9-1.8,1.9-1.8l0.5-0.4l1.3-0.7c0,0-0.1,0.2,0.9,0s2.6-1,2.6-1l2.2-1.2c0,0,0.7-0.7,0.8-0.9c0-0.1,0.5,0.2,0.7,0.1
					c0.2-0.1,2-1.1,2.1-1.1c0.2,0,0.7-0.5,0.7-0.6l0.8,0.1c0,0,1.6-0.9,2.1-1.1c0.1-0.1,0.2-0.7,0.2-0.7s0.4,0.3,0.6,0.2l2.2-1.1
					l0.5-0.6l0.4,0.2l3.4-1.8l0.5-0.1c0,0,0.4-0.4,0.6-0.5l0.4,0.1l3-1.7c0.1-0.1,3.8-1.4,1-7.4c-2.6-5.5-6.2-4.4-7.1-4.2
					c-0.7,0.1-2.5,1-2.8,1.2c-0.1,0.1-0.2,0.4-0.2,0.4c-0.1,0-0.3-0.1-0.4-0.1c-0.8,0.3-3.5,1.7-4.1,2.1c-0.1,0.1-0.1,0.3-0.1,0.3
					s-0.4,0-0.6,0c-0.4,0.1-1.7,0.8-2.5,1.1c-0.1,0-0.1,0.4-0.1,0.4s-0.4,0-0.6,0c-0.4,0.1-2.3,1.1-2.3,1.1c-0.1,0-0.1,0-0.1,0.1
					c-0.1,0.1-0.1,0.3,0,0.5l0,0c0,0-0.7-0.2-0.8-0.2c-0.5,0.2-2.1,1-2.7,1.2c-0.1,0,0,0.3-0.2,0.4s-0.5,0-0.6,0
					c-0.9,0.2-4.7,2.2-4.7,2.2l-1,1.1l-1.6,0.9l-1,0.1c0,0-3,0.6-5.2,2.9s-4.8,6.7-4.8,6.7l-0.7,0.4c0,0-0.2,0.2-0.3,0.2
					s-0.4-0.4-0.6-0.3c-0.2,0.1,0,0.8-0.2,0.9c-0.4,0.3-1.6,0.9-1.6,0.9l-1,0.4c0,0,0.8,0,1.5,1.6c1,1.9,0.6,2.7,0.6,2.7l2.2-1.2
					l0.5-0.1C49.7,150.3,50.1,150.6,50.3,150.5z"/>
				<path class="st14" d="M50,150.5c0,0-0.1-2.4-2.6-5.2"/>
				<path class="st7" d="M47.8,145.2c2.5,2.7,2.5,5,2.5,5"/>
				<path class="st13" d="M47.1,151.4c-0.4,0.2-1.2-0.8-1.8-1.9c-0.6-1.1-0.7-2.2-0.3-2.4s1.1,0.6,1.7,1.7
					C47.3,149.9,47.5,151.2,47.1,151.4z"/>
				<path class="st15" d="M45.8,149.4"/>
				<path class="st15" d="M56.4,135.6"/>
				<path class="st7" d="M73.6,142.5c0,0,0.5-2.2-1.5-6.3c-2-4.2-4.1-5.1-4.1-5.1"/>
				<path class="st7" d="M76.9,140.9c0,0,0.8-2.1-1.2-6.2c-2-4.2-4-5.4-4-5.4"/>
				<path class="st7" d="M83.4,137.7c0,0,1-2.4-1.1-6.5c-2-4.2-4.8-5.1-4.8-5.1"/>
				<path class="st7" d="M80.3,139.3c0,0,0.5-2.4-1.5-6.5c-2-4.2-4.3-5.3-4.3-5.3"/>
				<path class="st7" d="M88,135.5c0,0,1-2.4-1.1-6.7c-2.1-4.4-4.6-5-4.6-5"/>
				<path class="st7" d="M65.5,146.3c0,0-0.5-3.5-1.6-6.2s-3.7-4.9-3.7-4.9"/>
				<path class="st7" d="M67.1,145.5c0,0-0.2-3.3-1.5-6.1c-1.3-2.8-4-4.9-4-4.9"/>
			</g>
			<path class="st16" d="M100,124.1l-6.8,3c0.7,1.8,0.5,3.6,0.2,4.5c-0.5,2-2.1,2.6-2.1,2.6l-2.7,1.4l-0.4-0.2
				c-0.2,0.1-0.3,0.4-0.3,0.4l-4,2.1l-0.5-0.1l-0.6,0.6l-2.2,1.1c-0.1,0.1-0.5-0.2-0.5-0.2s-0.2,0.5-0.3,0.6
				c-0.5,0.3-2.1,1.1-2.1,1.1l-0.7-0.2c0,0.1-0.5,0.7-0.7,0.7s-1.9,1.1-2.1,1.1s-0.6-0.3-0.6-0.1c0,0.1-0.5,0.7-0.5,0.7l-2.5,1.4
				c0,0-1.6,0.8-2.6,1s-0.9,0-0.9,0l-1.3,0.7l-0.5,0.4c0,0-0.4,0.8-1.9,1.8s-3.9,1.2-5.4,1.3c-1.7,0-6.8-0.4-6.8-0.4l-1,0.4
				c0,0,0.1,0.8-0.1,0.8c-0.2,0.1-0.6-0.3-0.6-0.3l-0.5,0.1l-2.2,1.2c0,0-0.5-0.5-1.4-2.5c-0.8-1.6-0.7-1.8-0.7-1.8l1-0.4
				c0,0,1.2-0.6,1.6-0.9c0.2-0.1,0-0.8,0.2-0.9c0.2-0.1,0.4,0.3,0.6,0.3c0.1,0,0.3-0.2,0.3-0.2l0.7-0.4c0,0,2.6-4.3,4.8-6.7
				c2.2-2.4,5.2-2.9,5.2-2.9l1-0.1l1.6-0.9l1-1.1c0,0,3.9-2.1,4.7-2.2c0.1,0,0.4,0.1,0.6,0c0.1-0.1,0.1-0.4,0.2-0.4
				c0.6-0.4,2.2-1.1,2.7-1.2c0.1-0.1,0.8,0.2,0.8,0.2l0,0c-0.1-0.1-0.1-0.4,0-0.5l0.1-0.1c0,0,1.9-1.1,2.3-1.1c0.1,0,0.6,0,0.6,0
				s0-0.4,0.1-0.4c0.8-0.4,2.1-1,2.5-1.1c0.1,0,0.6,0,0.6,0s0-0.3,0.1-0.3c0.6-0.5,3.3-1.8,4.1-2.1c0.1,0,0.3,0.1,0.4,0.1
				s0.1-0.4,0.2-0.4c0.4-0.2,2.1-1.1,2.8-1.2c0.9-0.2,3.8-0.4,6.4,2l4.7-2.4l-9.8-5.4l-61,31L52,160.7l60.8-30L100,124.1z"/>
			<line class="st17" x1="56.2" y1="155.2" x2="101.8" y2="132.5"/>
			<line class="st17" x1="37.4" y1="144.4" x2="82.8" y2="121.1"/>
			<g>
				<polygon class="st10" points="87.5,120.4 88.5,119.7 87.7,118.7 85.8,118.5 84.7,119.3 85.6,120.3 				"/>
				<path class="st18" d="M87.3,120.1l0.3-0.2c0.2-0.1,0.2-0.4,0.1-0.6l-0.2-0.2c-0.1-0.1-0.1-0.1-0.2-0.1l-1.1-0.1
					c-0.1,0-0.2,0-0.3,0.1l-0.3,0.2c-0.2,0.1-0.2,0.4-0.1,0.6l0.2,0.2c0.1,0.1,0.1,0.1,0.2,0.1l1.1,0.1
					C87.2,120.1,87.3,120.1,87.3,120.1z"/>
			</g>
			<g>
				<polygon class="st10" points="106.3,130.2 107.5,129.5 106.5,128.5 104.5,128.3 103.4,129.1 104.3,130 				"/>
				<path class="st18" d="M106.1,129.8l0.3-0.2c0.2-0.1,0.2-0.4,0.1-0.6l-0.2-0.2c-0.1-0.1-0.2-0.1-0.2-0.1l-1.1-0.1
					c-0.1,0-0.2,0-0.3,0.1l-0.3,0.2c-0.2,0.1-0.2,0.4-0.1,0.6l0.2,0.2c0.1,0.1,0.2,0.1,0.2,0.1l1.1,0.1
					C105.9,129.9,106,129.9,106.1,129.8z"/>
			</g>
			<g>
				<polygon class="st10" points="52.3,156.8 53.3,156.1 52.5,155.1 50.4,154.9 49.3,155.7 50.3,156.6 				"/>
				<path class="st18" d="M52.1,156.4l0.3-0.2c0.2-0.1,0.2-0.4,0.1-0.6l-0.2-0.2c-0.1-0.1-0.2-0.1-0.2-0.1l-1.1-0.1
					c-0.1,0-0.2,0-0.3,0.1l-0.3,0.2c-0.2,0.1-0.2,0.4-0.1,0.6l0.2,0.2c0.1,0.1,0.2,0.1,0.2,0.1l1.1,0.1
					C51.9,156.5,52,156.5,52.1,156.4z"/>
			</g>
			<g>
				<polygon class="st10" points="37.2,148.8 38.4,148 37.4,147.1 35.4,146.9 34.4,147.6 35.2,148.6 				"/>
				<path class="st18" d="M37,148.4l0.3-0.2c0.2-0.1,0.2-0.4,0.1-0.6l-0.2-0.2c-0.1-0.1-0.2-0.1-0.2-0.1l-1.1-0.1
					c-0.1,0-0.2,0-0.3,0.1l-0.3,0.2c-0.2,0.1-0.2,0.4-0.1,0.6l0.2,0.2c0.1,0.1,0.2,0.1,0.2,0.1l1.1,0.1C37,148.5,37,148.5,37,148.4z
					"/>
			</g>
			<g>
				<path class="st19" d="M94.6,115.5l6.6,3.3c0,0,0.4-0.9,2.4,0s2.2,2.3,2.2,2.3l12.2,6.1L117.3,64l-23-12.7L94.6,115.5z"/>
				<path class="st18" d="M97.6,111.4c0,0,1,0.9,1.6,1.7c0.7,0.8,1.4,1.1,1.4,1.1s2.4,0.1,3.4,0.5s1.6,1.1,1.7,1.3
					c0,0.1,0.8,0.1,0.8,0.1s3.4,0,5.4-1.6c0.1-0.1,0.2-0.2,0.2-0.3c0,0-2.1-2.4-4-3.4c-1-0.6-4.8-1.4-6.4-1.5
					C99.7,109.1,97.6,111.4,97.6,111.4z"/>
				<path class="st20" d="M118.3,127.4l0.1-64.8L91.7,49l-0.1,65.2l10.1,5.2l0.1-5.1c-2.4-1-3.7-2.8-4-3.6c-0.2-0.7-0.3-2.6-0.2-3.1
					c0-0.1,0.3-0.3,0.3-0.4s-0.3-0.2-0.3-0.3c-0.1-0.9-0.1-3.9,0-4.7c0-0.1,0.3-0.2,0.3-0.2s-0.2-0.4-0.2-0.5
					c-0.1-0.4-0.1-1.8-0.1-2.8c0-0.1,0.3-0.3,0.3-0.3s-0.2-0.4-0.2-0.5c-0.1-0.4,0-2.6,0-2.6c0-0.1,0-0.1,0-0.2
					c0-0.2,0.3-0.3,0.4-0.2l0,0c0,0-0.5-0.5-0.5-0.6c-0.1-0.5-0.1-2.3-0.1-3c0-0.1,0.3-0.2,0.3-0.4c0-0.2-0.2-0.4-0.3-0.5
					c-0.2-0.8-0.1-5.2-0.1-5.2l0.8-1.1V83l-0.6-1.5c0,0-0.9-3.1,0.3-6.1c1.1-3.1,3.7-6.3,3.7-6.3l0.1-0.8c0,0,0.1-0.3,0-0.4
					s-0.5-0.2-0.5-0.4s0.7-0.3,0.7-0.6c0.1-0.5,0-1.8,0-1.8l0.2-1.2c0,0,3.3,0,4.9,1.5l-0.1,3.1v0.3c0,0,0.3,0.4,0.3,0.6
					s-0.6,0.3-0.6,0.3V70c0,0,2.1,3.8,2.9,5.4c0.6,1.2,1.9,4.2,1.7,6.1c-0.2,1.8-0.8,2.3-0.8,2.3l-0.2,1.4l0.2,1.1
					c0,0,0.2,0.4,0.4,1.3c0.2,1,0.3,2.8,0.3,2.8L111,93c0,0-0.3,1-0.4,1.1s0.4,0.4,0.4,0.5s-0.1,2.3,0,2.4c0.1,0.2-0.1,0.8-0.2,0.8
					l0.4,0.7c0,0,0,1.9-0.1,2.4c0,0.2-0.5,0.5-0.5,0.5s0.4,0.3,0.4,0.4v2.5l-0.3,0.7h0.3l-0.1,3.9l0.1,0.5c0,0-0.2,0.5-0.2,0.7
					l0.3,0.3l-0.4,3.6c0,0-0.7,2.7-5.6,1.2l-0.1,5.5L118.3,127.4z"/>
				<line class="st17" x1="94.6" y1="107.9" x2="94.9" y2="60.8"/>
				<line class="st17" x1="114.7" y1="115.7" x2="114.7" y2="69.8"/>
				<polygon class="st11" points="118.4,62.6 118.3,127.4 126.7,123.3 126.8,58.3 				"/>
				<polygon class="st11" points="91.7,49 118.4,62.7 127.1,58.3 100.3,44.7 				"/>
				<g>
					<g>
						<polygon class="st10" points="93.5,53.7 94.7,54.5 95.3,56.2 94.9,57.1 93.9,56.2 93.1,54.5 						"/>
						<polygon class="st10" points="94.9,57.1 95.8,56.7 96.2,55.9 95.4,54.1 94.4,53.3 93.5,53.7 94.7,54.5 95.3,56.2 						"/>
					</g>
					<g>
						<path class="st18" d="M93.8,56.5l0.6-0.3c0,0,0.3-0.3,0-1s-0.7-0.7-0.7-0.7l-0.6,0.3L93.8,56.5z"/>
						<path class="st18" d="M93.1,54.9c0.2-0.1,0.6,0.2,0.8,0.7c0.2,0.5,0.2,0.9,0,1s-0.5-0.2-0.7-0.7C92.9,55.4,92.9,55,93.1,54.9z
							"/>
						<path class="st18" d="M93.9,56.5c0,0-0.8,0.4-1.1-0.5c-0.4-0.9,0.4-1.1,0.4-1.1"/>
					</g>
				</g>
				<g>
					<g>
						<polygon class="st10" points="113,63.3 114.2,64.1 114.8,65.8 114.5,66.7 113.4,65.8 112.6,64.1 						"/>
						<polygon class="st10" points="114.5,66.7 115.3,66.3 115.7,65.4 114.9,63.7 113.9,62.9 113,63.2 114.2,64.1 114.8,65.8 						
							"/>
					</g>
					<g>
						<path class="st18" d="M113.3,66.1l0.6-0.3c0,0,0.3-0.3,0-1c-0.3-0.7-0.7-0.7-0.7-0.7l-0.6,0.3L113.3,66.1z"/>
						<path class="st18" d="M112.6,64.5c0.2-0.1,0.6,0.2,0.8,0.7c0.2,0.5,0.2,0.9,0,1c-0.2,0.1-0.5-0.2-0.7-0.7
							C112.5,65,112.5,64.6,112.6,64.5z"/>
						<path class="st18" d="M113.4,66.1c0,0-0.8,0.4-1.1-0.5c-0.4-0.9,0.4-1.1,0.4-1.1"/>
					</g>
				</g>
				<g>
					<g>
						<polygon class="st10" points="113.7,120.5 114.8,121.3 115.4,123 115.1,123.9 114,123 113.3,121.3 						"/>
						<polygon class="st10" points="115.1,123.9 115.9,123.5 116.3,122.7 115.6,120.9 114.6,120.2 113.7,120.5 114.8,121.3 
							115.5,123 						"/>
					</g>
					<g>
						<path class="st18" d="M114,123.3l0.6-0.3c0,0,0.3-0.3,0-1s-0.7-0.7-0.7-0.7l-0.6,0.3L114,123.3z"/>
						<path class="st18" d="M113.2,121.7c0.2-0.1,0.6,0.2,0.8,0.7c0.2,0.5,0.2,0.9,0,1s-0.5-0.2-0.7-0.7
							C113,122.3,113,121.8,113.2,121.7z"/>
						<path class="st18" d="M114,123.3c0,0-0.8,0.4-1.1-0.5s0.4-1.1,0.4-1.1"/>
					</g>
				</g>
				<g>
					<g>
						<polygon class="st10" points="94,111.8 95,112.6 95.7,114.3 95.4,115.2 94.3,114.4 93.6,112.6 						"/>
						<polygon class="st10" points="95.4,115.2 96.2,114.8 96.6,114 95.9,112.2 94.8,111.5 94,111.8 95,112.7 95.8,114.3 						"/>
					</g>
					<g>
						<path class="st18" d="M94.3,114.6l0.6-0.3c0,0,0.3-0.3,0-1s-0.7-0.7-0.7-0.7l-0.6,0.3L94.3,114.6z"/>
						<path class="st18" d="M93.5,113c0.2-0.1,0.6,0.2,0.8,0.7c0.2,0.5,0.2,0.9,0,1s-0.5-0.2-0.7-0.7
							C93.3,113.6,93.3,113.1,93.5,113z"/>
						<path class="st18" d="M94.3,114.6c0,0-0.8,0.4-1.1-0.5c-0.4-0.9,0.4-1.1,0.4-1.1"/>
					</g>
				</g>
			</g>
		</g>
	</g>
	<line class="st21" x1="51.7" y1="191.5" x2="51.7" y2="199.5"/>
</g>
</svg>
