<?xml version="1.0" encoding="utf-8"?>
<!-- Generator: Adobe Illustrator 25.2.3, SVG Export Plug-In . SVG Version: 6.00 Build 0)  -->
<svg version="1.1" id="Layer_1" xmlns="http://www.w3.org/2000/svg" xmlns:xlink="http://www.w3.org/1999/xlink" x="0px" y="0px"
	 viewBox="0 0 150 217.7" style="enable-background:new 0 0 150 217.7;" xml:space="preserve">
<style type="text/css">
	.st0{fill:#F77441;stroke:#FFFFFF;stroke-width:0.4971;stroke-miterlimit:10;}
	.st1{fill:none;stroke:#FFFFFF;stroke-width:0.4971;stroke-miterlimit:10;}
	.st2{fill:none;stroke:#FFFFFF;stroke-width:0.25;stroke-miterlimit:10;}
	.st3{fill:#CCB9B9;stroke:#FFFFFF;stroke-width:0.25;stroke-miterlimit:10;}
	.st4{fill:#E4DAD8;stroke:#FFFFFF;stroke-width:0.25;stroke-miterlimit:10;}
	.st5{fill:#CCB9B9;stroke:#FFFFFF;stroke-width:0.25;stroke-linejoin:bevel;stroke-miterlimit:10;}
	.st6{fill:#E4DAD8;stroke:#FFFFFF;stroke-width:0.2667;stroke-linejoin:bevel;stroke-miterlimit:10;}
	.st7{fill:#DC3359;stroke:#FFFFFF;stroke-width:0.2667;stroke-miterlimit:10;}
	.st8{fill:#C42C54;stroke:#FFFFFF;stroke-width:0.2667;stroke-miterlimit:10;}
	.st9{fill:none;stroke:#FFFFFF;stroke-width:0.2812;stroke-miterlimit:10;}
	.st10{fill:none;stroke:#B71148;stroke-width:0.2812;stroke-miterlimit:10;}
	.st11{fill:none;stroke:#B71148;stroke-width:0.2812;stroke-linecap:round;stroke-miterlimit:10;}
	.st12{fill:#B71148;}
	.st13{fill:#B71148;stroke:#FFFFFF;stroke-width:0.2667;stroke-miterlimit:10;}
	.st14{fill:#B71148;stroke:#FFFFFF;stroke-width:0.2718;stroke-miterlimit:10;}
	.st15{fill:#F77441;stroke:#FFFFFF;stroke-width:0.2835;stroke-miterlimit:10;}
	.st16{fill:none;stroke:#FFFFFF;stroke-width:0.2835;stroke-miterlimit:10;}
	.st17{fill:#F77441;stroke:#FFFFFF;stroke-width:0.2812;stroke-miterlimit:10;}
	.st18{fill:#DC3359;stroke:#FFFFFF;stroke-width:0.2718;stroke-miterlimit:10;}
	.st19{fill:none;stroke:#B71148;stroke-width:1.6313;stroke-linecap:round;stroke-miterlimit:10;}
	.st20{fill:#C42C54;}
	.st21{fill:#B71148;stroke:#FFFFFF;stroke-width:0.2552;stroke-miterlimit:10;}
	.st22{fill:#DC3359;stroke:#FFFFFF;stroke-width:0.2552;stroke-miterlimit:10;}
	.st23{fill:#B71148;stroke:#FFFFFF;stroke-width:0.25;stroke-miterlimit:10;}
	.st24{fill:none;stroke:#FFFFFF;stroke-width:0.25;stroke-linejoin:bevel;stroke-miterlimit:10;}
</style>
<g>
	<g>
		<path class="st0" d="M33.6,14.2c0.6-1.6,4.1-2.9,8.1-2.8s7.2,1.6,7.2,3.3s-2.6,2.5-7.3,2.6C36.7,17.3,33.5,14.4,33.6,14.2z"/>
		<path class="st0" d="M33.6,14.3c0.3,1.1,1.9,2,1.9,2s0,1.3,0.1,1.8c0,0.5-6.9,10.9-8.8,14.7c-1.6,3.1-3.7,8.7-3.3,13.4
			s1.7,6.5,1.7,6.5l0.4,0.9c0,0-0.1,4.1-0.1,4.4c0,0.3-0.4-0.4-1.1,2c-0.6,2.4-0.8,6-0.8,6.9c0,1-0.1,6.4,0.2,7.1
			c0.3,0.8,0.7,1.5,1,1.7s-1,0-1,1.3s-0.1,5.3-0.2,6.3c0,1,0.4,1.9,0.6,2c0,0-0.9,0.5-0.9,1.6s0.1,4.7,0.2,6.1
			c0.1,0.4,1.1,1.2,1.1,1.2s-1,0.6-1,1c0,0-0.2,6.1-0.1,6.7c0,0.6,0.8,1.5,0.8,1.5s-0.7,0.7-0.8,1.3c0,0.6-0.2,4-0.2,6.1
			c0,2,0.1,4.2,0.1,4.8s0.7,0.8,0.7,1.2c0,0-1,0.6-1,1.3c0,0.6,0.1,8.6,0.1,8.6c0,0.2-0.2,3.6,3.5,6.7c2.2,1.9,7.2,3.8,13.8,3.8
			s7.8-0.2,10.9-1.7s4.3-4,5-5.8s0.7-10.3,0.6-11.3c0-0.3-0.7-0.6-0.7-0.8c0-0.2,0.6-0.7,0.6-1.7s0.2-8.9,0.2-10s-0.8-1.5-0.8-1.5
			s0.5-0.9,0.6-1.5s0.5-6.4,0.4-7.1c0-0.7-1-1.1-1-1.2s0.7-0.5,0.8-0.9c0.3-1.1,0.2-6,0.2-6c0-0.2,0-0.7,0-0.8c-0.1-0.4-1-0.4-1-0.7
			s1.2-0.7,1.2-1.5s0.2-6.3,0.2-7S57,77.2,57,76.8c0,0,0.6-1,0.6-1.2c0.3-1,0.7-3.7,0.8-7c0-3.2-0.2-7.4-0.3-8.1s-0.5-2-1.3-2
			c0-0.1,0-4.2,0-4.2l1-2.3c0,0,2.2-7.2-0.4-14.9c-2.7-7.8-9.6-18.2-9.6-18.7c0-0.4-0.2-2-0.2-2s1.5-0.7,1.5-1.7s-1.6-1.4-1.6-1.7
			l0.2-7.9c0,0-0.9,2.7-5.4,2.6C36.8,7.6,35.6,5,35.6,5s-0.2,7.6-0.1,7.9C35.3,12.8,33.3,13.2,33.6,14.3z"/>
		<path class="st1" d="M35.2,12.7c-1,0.3,1.5,3,6.5,3c5.1,0,6.5-2.7,5.7-2.7"/>
		<path class="st1" d="M48.7,15c0,0-1.5,2.6-7.4,2.5c-5.9,0-7.7-2.9-7.7-2.9"/>
		<path class="st0" d="M35.5,5.1c0-1.4,3.1-2.5,6.2-2.4c3.1,0.1,5.5,1.3,5.5,2.8c0,1.4-2.6,2.3-5.6,2.2C38.5,7.6,35.5,6.5,35.5,5.1z
			"/>
		<path class="st0" d="M41.8,5.7"/>
		<path class="st0" d="M60.3,45.4"/>
		<path class="st1" d="M24.6,75.6c0,0,5,4.1,16.4,4.5c11.8,0.4,16-4.3,16-4.3"/>
		<path class="st1" d="M24,84.9c0,0,5.1,4.4,16.6,4.8c11.7,0.4,16-4.6,16-4.6"/>
		<path class="st1" d="M24.2,103.1c0,0,4.3,4.8,15.8,5.2c11.8,0.4,16.3-4.7,16.3-4.7"/>
		<path class="st1" d="M24.5,93.9c0,0,6.7,4.4,15.8,4.5s15.9-4.6,15.9-4.6"/>
		<path class="st1" d="M23.8,116c0,0,4.4,4.9,16.2,5.3c12.2,0.4,16.2-4.7,16.2-4.7"/>
		<path class="st1" d="M25.3,52.9c0,0,4.7,4.7,16.2,4.6c11.5-0.1,15.2-4.4,15.2-4.4"/>
		<path class="st1" d="M25.2,57.9c0,0,3.1,4.2,15.7,4.5s15.6-4.3,15.6-4.3"/>
	</g>
</g>
<g>
	<line class="st2" x1="60.4" y1="189.2" x2="60.4" y2="197.1"/>
	<line class="st2" x1="60.1" y1="189" x2="60.1" y2="197.2"/>
	<g>
		<polygon class="st3" points="10.7,179 55.9,201.9 132.6,163.3 132.7,154.5 90,134.8 10.7,174.8 		"/>
		<polygon class="st3" points="10.8,179.7 10.9,171.1 56,193.1 55.8,201.9 		"/>
		<polygon class="st3" points="1.2,181.9 1.2,189 56.2,216.8 148.8,170.1 148.8,162.7 56.1,208.9 		"/>
		<polygon class="st4" points="55.8,208.9 149,162.7 93.9,135.9 1.4,181.2 		"/>
		<polygon class="st3" points="10.7,179 55.8,202.2 134.2,162.3 134.4,153.5 90,134.8 10.7,174.8 		"/>
		<polygon class="st5" points="10.8,179.7 10.9,171.1 55.8,193.7 55.7,202.2 		"/>
		<polygon class="st5" points="1.5,181.2 1.5,190 55.8,217.2 149.2,169.8 149.1,162.5 55.8,208.9 		"/>
		<path class="st6" d="M10.9,171l44.7,22.6l79.1-40.4l-45.2-21.9L10.9,171z"/>
		<g>
			<polygon class="st7" points="32.9,174.7 55.7,186.1 55.7,175.7 32.6,164.4 			"/>
			<polygon class="st8" points="55.8,185.9 120.5,153.8 120.9,144.6 55.8,175.8 			"/>
			<line class="st9" x1="32.6" y1="164.3" x2="96.5" y2="131.7"/>
			<line class="st10" x1="56.8" y1="173" x2="114.3" y2="145.9"/>
			<path class="st11" d="M39.5,163.4c-0.4-0.7,55.7-29.7,55.7-29.7"/>
			<g>
				<polygon class="st12" points="55.2,173 56.4,172.2 55.4,171.1 53.3,171 52,171.7 53,172.8 				"/>
				<path class="st12" d="M55,172.6l0.3-0.2c0.2-0.1,0.2-0.4,0.1-0.6l-0.2-0.2c-0.1-0.1-0.2-0.1-0.2-0.1l-1.2-0.1
					c-0.1,0-0.2,0-0.3,0.1l-0.3,0.2c-0.2,0.1-0.2,0.4-0.1,0.6l0.2,0.2c0.1,0.1,0.2,0.1,0.2,0.1l1.2,0.1
					C54.8,172.7,54.9,172.7,55,172.6z"/>
			</g>
			<g>
				<polygon class="st12" points="114,144.6 115.1,143.8 114.2,142.7 112,142.6 110.9,143.4 111.8,144.4 				"/>
				<path class="st12" d="M113.7,144.2l0.3-0.2c0.2-0.1,0.2-0.4,0.1-0.6l-0.2-0.2c-0.1-0.1-0.2-0.1-0.2-0.1l-1.2-0.1
					c-0.1,0-0.2,0-0.3,0.1l-0.3,0.2c-0.2,0.1-0.2,0.4-0.1,0.6l0.2,0.2c0.1,0.1,0.2,0.1,0.2,0.1l1.2,0.1
					C113.5,144.3,113.6,144.2,113.7,144.2z"/>
			</g>
			<g>
				<polygon class="st12" points="44.8,164.7 46,163.9 44.9,163 42.9,162.8 41.8,163.6 42.8,164.5 				"/>
				<path class="st12" d="M44.6,164.4l0.3-0.2c0.2-0.1,0.2-0.4,0.1-0.6l-0.2-0.2c-0.1-0.1-0.1-0.1-0.2-0.1l-1.2-0.1
					c-0.1,0-0.2,0-0.3,0.1l-0.3,0.2c-0.2,0.1-0.2,0.4-0.1,0.6l0.2,0.2c0.1,0.1,0.1,0.1,0.2,0.1l1.2,0.1
					C44.5,164.4,44.5,164.4,44.6,164.4z"/>
			</g>
			<polygon class="st13" points="27.7,171.8 55.7,185.9 55.7,175.7 27.7,161.6 			"/>
			<polygon class="st13" points="55.7,185.9 121,153.8 120.9,143.6 55.8,175.8 			"/>
			<path class="st14" d="M97.2,137.5l5.8-2.9c0,0-0.5,1.6,0.9,2.2c1.3,0.6,3.5-0.2,3.5-0.2l-7.9,3.5L97.2,137.5z"/>
			<g>
				<path class="st15" d="M54,164.9c0.2-0.1,0.1-0.9,0.1-0.9l1.1-0.4c0,0,5.4,0.4,7.3,0.4c1.4,0,3.9-0.3,5.8-1.4
					c1.6-1.1,2-1.9,2-1.9l0.5-0.4l1.4-0.7c0,0-0.1,0.2,1,0s2.8-1.1,2.8-1.1l2.3-1.3c0,0,0.7-0.7,0.9-1c0-0.1,0.5,0.2,0.7,0.1
					c0.2-0.1,2.1-1.2,2.2-1.2c0.2,0,0.7-0.5,0.7-0.6l0.9,0.1c0,0,1.7-1,2.2-1.2c0.1-0.1,0.2-0.7,0.2-0.7s0.4,0.3,0.6,0.2l2.3-1.2
					l0.5-0.6l0.4,0.2l3.6-1.9l0.5-0.1c0,0,0.4-0.4,0.6-0.5l0.4,0.1l3.2-1.8c0.1-0.1,4.1-1.5,1.1-7.9c-2.8-5.9-6.6-4.7-7.6-4.5
					c-0.7,0.1-2.7,1.1-3,1.3c-0.1,0.1-0.2,0.4-0.2,0.4c-0.1,0-0.3-0.1-0.4-0.1c-0.9,0.3-3.7,1.8-4.4,2.2c-0.1,0.1-0.1,0.3-0.1,0.3
					s-0.4,0-0.6,0c-0.4,0.1-1.8,0.9-2.7,1.2c-0.1,0-0.1,0.4-0.1,0.4s-0.4,0-0.6,0c-0.4,0.1-2.5,1.2-2.5,1.2c-0.1,0-0.1,0-0.1,0.1
					c-0.1,0.1-0.1,0.3,0,0.5l0,0c0,0-0.7-0.2-0.9-0.2c-0.5,0.2-2.2,1.1-2.9,1.3c-0.1,0,0,0.3-0.2,0.4c-0.2,0.1-0.5,0-0.6,0
					c-1,0.2-5,2.3-5,2.3l-1.1,1.2l-1.7,1l-1.1,0.1c0,0-3.2,0.6-5.5,3.1s-5.1,7.1-5.1,7.1l-0.7,0.4c0,0-0.2,0.2-0.3,0.2
					s-0.4-0.4-0.6-0.3c-0.2,0.1,0,0.9-0.2,1c-0.4,0.3-1.7,1-1.7,1l-1.1,0.4c0,0,0.9,0,1.6,1.7c1.1,2,0.6,2.9,0.6,2.9l2.3-1.3
					l0.5-0.1C53.4,164.7,53.8,165,54,164.9z"/>
				<path class="st16" d="M53.7,164.9c0,0-0.1-2.6-2.8-5.5"/>
				<path class="st9" d="M51.3,159.3c2.7,2.9,2.7,5.3,2.7,5.3"/>
				<path class="st15" d="M50.6,165.9c-0.4,0.2-1.3-0.9-1.9-2c-0.6-1.2-0.7-2.3-0.3-2.6c0.4-0.2,1.2,0.6,1.8,1.8
					C50.8,164.3,51,165.7,50.6,165.9z"/>
				<path class="st17" d="M49.2,163.7"/>
				<path class="st17" d="M60.5,149"/>
				<path class="st9" d="M78.9,156.4c0,0,0.5-2.3-1.6-6.7c-2.1-4.5-4.3-5.7-4.3-5.7"/>
				<path class="st9" d="M82.4,154.7c0,0,0.9-2.2-1.3-6.6c-2.1-4.5-4.3-5.8-4.3-5.8"/>
				<path class="st9" d="M89.3,151.2c0,0,1.1-2.6-1.2-6.9c-2.1-4.5-5.1-5.4-5.1-5.4"/>
				<path class="st9" d="M86,153c0,0,0.5-2.6-1.6-6.9c-2.1-4.5-4.6-5.7-4.6-5.7"/>
				<path class="st9" d="M94.2,148.9c0,0,1.1-2.6-1.2-7.1c-2.2-4.7-4.9-5.3-4.9-5.3"/>
				<path class="st9" d="M70.2,160.4c0,0-0.5-3.7-1.7-6.6c-1.2-2.9-3.9-5.2-3.9-5.2"/>
				<path class="st9" d="M71.9,159.6c0,0-0.2-3.5-1.6-6.5s-4.3-5.2-4.3-5.2"/>
			</g>
			<path class="st18" d="M107,136.7l-7.3,3.2c0.7,1.9,0.5,3.8,0.2,4.8c-0.5,2.1-2.2,2.8-2.2,2.8l-2.9,1.5l-0.4-0.2
				c-0.2,0.1-0.3,0.4-0.3,0.4l-4.3,2.2l-0.5-0.1l-0.6,0.6l-2.3,1.2c-0.1,0.1-0.5-0.2-0.5-0.2s-0.2,0.5-0.3,0.6
				c-0.5,0.3-2.2,1.2-2.2,1.2l-0.7-0.2c0,0.1-0.5,0.7-0.7,0.7s-2,1.2-2.2,1.2s-0.6-0.3-0.6-0.1c0,0.1-0.5,0.7-0.5,0.7l-2.7,1.5
				c0,0-1.7,0.9-2.8,1.1s-1,0-1,0l-1.4,0.7l-0.5,0.4c0,0-0.4,0.9-2,1.9s-4.2,1.3-5.8,1.4c-1.8,0-7.3-0.4-7.3-0.4l-1.1,0.4
				c0,0,0.1,0.9-0.1,0.9c-0.2,0.1-0.6-0.3-0.6-0.3l-0.5,0.1l-2.3,1.3c0,0-0.5-0.5-1.5-2.7c-0.9-1.7-0.7-1.9-0.7-1.9l1.1-0.4
				c0,0,1.3-0.6,1.7-1c0.2-0.1,0-0.9,0.2-1s0.4,0.3,0.6,0.3c0.1,0,0.3-0.2,0.3-0.2l0.7-0.4c0,0,2.8-4.6,5.1-7.1
				c2.3-2.6,5.5-3.1,5.5-3.1l1.1-0.1l1.7-1l1.1-1.2c0,0,4.2-2.2,5-2.3c0.1,0,0.4,0.1,0.6,0c0.1-0.1,0.1-0.4,0.2-0.4
				c0.6-0.4,2.3-1.2,2.9-1.3c0.1-0.1,0.9,0.2,0.9,0.2l0,0c-0.1-0.1-0.1-0.4,0-0.5l0.1-0.1c0,0,2-1.2,2.5-1.2c0.1,0,0.6,0,0.6,0
				s0-0.4,0.1-0.4c0.9-0.4,2.2-1.1,2.7-1.2c0.1,0,0.6,0,0.6,0s0-0.3,0.1-0.3c0.6-0.5,3.5-1.9,4.4-2.2c0.1,0,0.3,0.1,0.4,0.1
				s0.1-0.4,0.2-0.4c0.4-0.2,2.2-1.2,3-1.3c1-0.2,3.5-0.1,6.2,2.4l5.6-2.9l-10.5-5.8L28,161.7l28,14l64.9-32L107,136.7z"/>
			<line class="st19" x1="60.3" y1="169.9" x2="108.9" y2="145.7"/>
			<line class="st19" x1="40.2" y1="158.4" x2="88.7" y2="133.5"/>
			<g>
				<polygon class="st12" points="93.7,132.8 94.8,132 93.9,131 91.9,130.8 90.7,131.6 91.7,132.7 				"/>
				<path class="st20" d="M93.5,132.5l0.3-0.2c0.2-0.1,0.2-0.4,0.1-0.6l-0.2-0.2c-0.1-0.1-0.1-0.1-0.2-0.1l-1.2-0.1
					c-0.1,0-0.2,0-0.3,0.1l-0.3,0.2c-0.2,0.1-0.2,0.4-0.1,0.6l0.2,0.2c0.1,0.1,0.1,0.1,0.2,0.1l1.2,0.1
					C93.4,132.5,93.5,132.5,93.5,132.5z"/>
			</g>
			<g>
				<polygon class="st12" points="113.7,143.2 115,142.5 114,141.4 111.8,141.2 110.7,142.1 111.6,143 				"/>
				<path class="st20" d="M113.5,142.8l0.3-0.2c0.2-0.1,0.2-0.4,0.1-0.6l-0.2-0.2c-0.1-0.1-0.2-0.1-0.2-0.1l-1.2-0.1
					c-0.1,0-0.2,0-0.3,0.1l-0.3,0.2c-0.2,0.1-0.2,0.4-0.1,0.6l0.2,0.2c0.1,0.1,0.2,0.1,0.2,0.1l1.2,0.1
					C113.3,142.9,113.4,142.9,113.5,142.8z"/>
			</g>
			<g>
				<polygon class="st12" points="56.1,171.6 57.2,170.9 56.4,169.8 54.1,169.6 52.9,170.5 54,171.4 				"/>
				<path class="st20" d="M55.9,171.2l0.3-0.2c0.2-0.1,0.2-0.4,0.1-0.6l-0.2-0.2c-0.1-0.1-0.2-0.1-0.2-0.1l-1.2-0.1
					c-0.1,0-0.2,0-0.3,0.1l-0.3,0.2c-0.2,0.1-0.2,0.4-0.1,0.6l0.2,0.2c0.1,0.1,0.2,0.1,0.2,0.1l1.2,0.1
					C55.7,171.3,55.8,171.3,55.9,171.2z"/>
			</g>
			<g>
				<polygon class="st12" points="40,163.1 41.3,162.2 40.2,161.3 38.1,161.1 37,161.8 37.9,162.9 				"/>
				<path class="st20" d="M39.8,162.7l0.3-0.2c0.2-0.1,0.2-0.4,0.1-0.6l-0.2-0.2c-0.1-0.1-0.2-0.1-0.2-0.1l-1.2-0.1
					c-0.1,0-0.2,0-0.3,0.1l-0.3,0.2c-0.2,0.1-0.2,0.4-0.1,0.6l0.2,0.2c0.1,0.1,0.2,0.1,0.2,0.1l1.2,0.1
					C39.8,162.8,39.8,162.8,39.8,162.7z"/>
			</g>
			<g>
				<path class="st21" d="M101.3,127.6l7,3.5c0,0,0.4-1,2.6,0c2.1,1,2.3,2.5,2.3,2.5l13,6.5l-0.7-67.4L101,59.2L101.3,127.6z"/>
				<path class="st20" d="M104.5,123.2c0,0,1.1,1,1.7,1.8c0.7,0.9,1.5,1.2,1.5,1.2s2.6,0.1,3.6,0.5c1.1,0.4,1.7,1.2,1.8,1.4
					c0,0.1,0.9,0.1,0.9,0.1s3.6,0,5.8-1.7c0.1-0.1,0.2-0.2,0.2-0.3c0,0-2.2-2.6-4.3-3.6c-1.1-0.6-5.1-1.5-6.8-1.6
					C106.7,120.7,104.5,123.2,104.5,123.2z"/>
				<path class="st22" d="M126.6,140.3l0.1-69.1L98.2,56.6l-0.1,69.6l10.8,5.5l0.1-5.4c-2.6-1.1-3.9-3-4.3-3.8
					c-0.2-0.7-0.3-2.8-0.2-3.3c0-0.1,0.3-0.3,0.3-0.4s-0.3-0.2-0.3-0.3c-0.1-1-0.1-4.2,0-5c0-0.1,0.3-0.2,0.3-0.2s-0.2-0.4-0.2-0.5
					c-0.1-0.4-0.1-1.9-0.1-3c0-0.1,0.3-0.3,0.3-0.3s-0.2-0.4-0.2-0.5c-0.1-0.4,0-2.8,0-2.8c0-0.1,0-0.1,0-0.2c0-0.2,0.3-0.3,0.4-0.2
					l0,0c0,0-0.5-0.5-0.5-0.6c-0.1-0.5-0.1-2.5-0.1-3.2c0-0.1,0.3-0.2,0.3-0.4s-0.2-0.4-0.3-0.5c-0.2-0.9-0.1-5.5-0.1-5.5l0.9-1.2
					v-1.2l-0.6-1.6c0,0-1-3.3,0.3-6.5c1.2-3.3,3.9-6.7,3.9-6.7l0.1-0.9c0,0,0.1-0.3,0-0.4s-0.5-0.2-0.5-0.4c0-0.2,0.7-0.3,0.7-0.6
					c0.1-0.5,0-1.9,0-1.9l0.2-1.3c0,0,3.5,0,5.2,1.6l-0.1,3.3v0.3c0,0,0.3,0.4,0.3,0.6s-0.6,0.3-0.6,0.3l0,0c0,0,2.2,4.1,3.1,5.8
					c0.6,1.3,2,4.5,1.8,6.5c-0.2,1.9-0.9,2.5-0.9,2.5l-0.2,1.5l0.2,1.2c0,0,0.2,0.4,0.4,1.4c0.2,1.1,0.3,3,0.3,3l-0.1,2.8
					c0,0-0.3,1.1-0.4,1.2s0.4,0.4,0.4,0.5s-0.1,2.5,0,2.6c0.1,0.2-0.1,0.9-0.2,0.9l0.4,0.7c0,0,0,2-0.1,2.6c0,0.2-0.5,0.5-0.5,0.5
					s0.4,0.3,0.4,0.4v2.7l-0.3,0.7h0.3l-0.1,4.2l0.1,0.5c0,0-0.2,0.5-0.2,0.7l0.3,0.3l-0.4,3.8c0,0-0.7,2.9-6,1.3l-0.1,5.9
					L126.6,140.3z"/>
				<line class="st19" x1="101.3" y1="119.5" x2="101.6" y2="69.2"/>
				<line class="st19" x1="122.7" y1="127.8" x2="122.7" y2="78.8"/>
				<polygon class="st13" points="126.7,71.1 126.6,140.3 135.5,135.9 135.6,66.5 				"/>
				<polygon class="st23" points="98.2,56.6 126.7,71.2 135.9,66.5 107.3,52 				"/>
				<g>
					<g>
						<polygon class="st12" points="100.1,61.6 101.4,62.5 102,64.3 101.6,65.3 100.5,64.3 99.7,62.5 						"/>
						<polygon class="st12" points="101.6,65.3 102.5,64.8 103,64 102.1,62.1 101.1,61.2 100.1,61.6 101.4,62.5 102,64.3 						"/>
					</g>
					<g>
						<path class="st20" d="M100.4,64.6l0.6-0.3c0,0,0.3-0.3,0-1.1c-0.3-0.7-0.7-0.7-0.7-0.7l-0.6,0.3L100.4,64.6z"/>
						<path class="st20" d="M99.7,62.9c0.2-0.1,0.6,0.2,0.9,0.7c0.2,0.5,0.2,1,0,1.1s-0.5-0.2-0.7-0.7C99.5,63.4,99.5,63,99.7,62.9z
							"/>
						<path class="st20" d="M100.5,64.6c0,0-0.9,0.4-1.2-0.5c-0.4-1,0.4-1.2,0.4-1.2"/>
					</g>
				</g>
				<g>
					<g>
						<polygon class="st12" points="120.9,71.9 122.2,72.7 122.8,74.5 122.5,75.5 121.3,74.5 120.5,72.7 						"/>
						<polygon class="st12" points="122.5,75.5 123.4,75.1 123.8,74.1 122.9,72.3 121.9,71.4 120.9,71.8 122.2,72.7 122.8,74.5 
													"/>
					</g>
					<g>
						<path class="st20" d="M121.2,74.9l0.6-0.3c0,0,0.3-0.3,0-1.1c-0.3-0.7-0.7-0.7-0.7-0.7l-0.6,0.3L121.2,74.9z"/>
						<path class="st20" d="M120.5,73.2c0.2-0.1,0.6,0.2,0.9,0.7c0.2,0.5,0.2,1,0,1.1s-0.5-0.2-0.7-0.7
							C120.4,73.7,120.4,73.3,120.5,73.2z"/>
						<path class="st20" d="M121.3,74.9c0,0-0.9,0.4-1.2-0.5c-0.4-1,0.4-1.2,0.4-1.2"/>
					</g>
				</g>
				<g>
					<g>
						<polygon class="st12" points="121.6,132.9 122.8,133.8 123.5,135.6 123.1,136.5 122,135.6 121.2,133.8 						"/>
						<polygon class="st12" points="123.1,136.5 124,136.1 124.4,135.2 123.7,133.3 122.6,132.6 121.6,132.9 122.8,133.8 
							123.6,135.6 						"/>
					</g>
					<g>
						<path class="st20" d="M122,135.9l0.6-0.3c0,0,0.3-0.3,0-1.1c-0.3-0.7-0.7-0.7-0.7-0.7l-0.6,0.3L122,135.9z"/>
						<path class="st20" d="M121.1,134.2c0.2-0.1,0.6,0.2,0.9,0.7c0.2,0.5,0.2,1,0,1.1s-0.5-0.2-0.7-0.7
							C120.9,134.8,120.9,134.3,121.1,134.2z"/>
						<path class="st20" d="M122,135.9c0,0-0.9,0.4-1.2-0.5c-0.3-1,0.4-1.2,0.4-1.2"/>
					</g>
				</g>
				<g>
					<g>
						<polygon class="st12" points="100.6,123.6 101.7,124.5 102.4,126.3 102.1,127.2 100.9,126.4 100.2,124.5 						"/>
						<polygon class="st12" points="102.1,127.2 103,126.8 103.4,126 102.7,124 101.5,123.3 100.6,123.6 101.7,124.6 102.5,126.3 
													"/>
					</g>
					<g>
						<path class="st20" d="M100.9,126.6l0.6-0.3c0,0,0.3-0.3,0-1.1c-0.3-0.7-0.7-0.7-0.7-0.7l-0.6,0.3L100.9,126.6z"/>
						<path class="st20" d="M100.1,124.9c0.2-0.1,0.6,0.2,0.9,0.7c0.2,0.5,0.2,1,0,1.1s-0.5-0.2-0.7-0.7
							C99.9,125.5,99.9,125,100.1,124.9z"/>
						<path class="st20" d="M100.9,126.6c0,0-0.9,0.4-1.2-0.5c-0.4-1,0.4-1.2,0.4-1.2"/>
					</g>
				</g>
			</g>
		</g>
	</g>
	<line class="st24" x1="55.5" y1="208.6" x2="55.5" y2="217.2"/>
</g>
</svg>
