<?xml version="1.0" encoding="utf-8"?>
<!-- Generator: Adobe Illustrator 25.2.3, SVG Export Plug-In . SVG Version: 6.00 Build 0)  -->
<svg version="1.1" id="Layer_1" xmlns="http://www.w3.org/2000/svg" xmlns:xlink="http://www.w3.org/1999/xlink" x="0px" y="0px"
	 viewBox="0 0 150 238.3" style="enable-background:new 0 0 150 238.3;" xml:space="preserve">
<style type="text/css">
	.st0{fill:#361D32;stroke:#FFFFFF;stroke-width:0.2562;stroke-miterlimit:10;}
	.st1{fill:#543C52;stroke:#FFFFFF;stroke-width:0.2562;stroke-miterlimit:10;}
	.st2{fill:#543C52;stroke:#FFFFFF;stroke-width:0.2562;stroke-linejoin:bevel;stroke-miterlimit:10;}
	.st3{fill:#361D32;stroke:#FFFFFF;stroke-width:0.2756;stroke-linejoin:bevel;stroke-miterlimit:10;}
	.st4{fill:none;stroke:#543C52;stroke-width:0.8268;stroke-miterlimit:10;}
	.st5{fill:#543C52;stroke:#FFFFFF;stroke-width:0.2756;stroke-miterlimit:10;}
	.st6{fill:#CCB9B9;stroke:#FFFFFF;stroke-width:0.2756;stroke-miterlimit:10;}
	.st7{fill:#B79797;stroke:#FFFFFF;stroke-width:0.2756;stroke-linejoin:bevel;stroke-miterlimit:10;}
	.st8{fill:none;stroke:#FFFFFF;stroke-width:0.1284;stroke-miterlimit:10;}
	.st9{fill:#381F34;stroke:#FFFFFF;stroke-width:0.1284;stroke-miterlimit:10;}
	.st10{fill:#361D32;stroke:#FFFFFF;stroke-width:0.1284;stroke-miterlimit:10;}
	.st11{fill:none;stroke:#FFFFFF;stroke-width:0.2756;stroke-linejoin:bevel;stroke-miterlimit:10;}
	.st12{fill:#361D32;stroke:#FFFFFF;stroke-width:0.2049;stroke-linejoin:bevel;stroke-miterlimit:10;}
	.st13{fill:#381F34;stroke:#FFFFFF;stroke-width:0.3066;stroke-linejoin:bevel;stroke-miterlimit:10;}
	.st14{fill:#381F34;stroke:#FFFFFF;stroke-width:0.2756;stroke-linejoin:bevel;stroke-miterlimit:10;}
	.st15{fill:#E4DAD8;stroke:#FFFFFF;stroke-width:0.2756;stroke-miterlimit:10;}
	.st16{fill:none;stroke:#543C52;stroke-width:1.1024;stroke-miterlimit:10;}
	.st17{opacity:0.28;fill:#E4DAD8;stroke:#FFFFFF;stroke-width:0.2756;stroke-miterlimit:10;enable-background:new    ;}
	.st18{fill:none;stroke:#FFFFFF;stroke-width:0.8268;stroke-miterlimit:10;}
	.st19{fill:#381F34;stroke:#FFFFFF;stroke-width:0.2756;stroke-miterlimit:10;}
	.st20{fill:#361D32;stroke:#FFFFFF;stroke-width:0.2756;stroke-miterlimit:10;}
	.st21{fill:#381F34;stroke:#FFFFFF;stroke-width:0.1309;stroke-miterlimit:10;}
	.st22{fill:#381F34;stroke:#FFFFFF;stroke-width:0.1917;stroke-miterlimit:10.0005;}
	.st23{fill:#361D32;stroke:#FFFFFF;stroke-width:0.1917;stroke-miterlimit:10.0005;}
	.st24{fill:#361D32;stroke:#FFFFFF;stroke-width:0.1917;stroke-miterlimit:10;}
	.st25{fill:none;stroke:#E4DAD8;stroke-width:0.1654;stroke-miterlimit:10.0005;}
	.st26{fill:none;stroke:#E4DAD8;stroke-width:0.1045;stroke-miterlimit:10.0005;}
	.st27{fill:none;stroke:#FFFFFF;stroke-width:0.1654;stroke-miterlimit:10.0005;}
	.st28{fill:none;stroke:#FFFFFF;stroke-width:0.1045;stroke-miterlimit:10.0005;}
	.st29{fill:#361D32;stroke:#FFFFFF;stroke-width:9.921267e-02;stroke-miterlimit:10;}
	.st30{fill:#543C52;stroke:#FFFFFF;stroke-width:9.921267e-02;stroke-miterlimit:10;}
	.st31{fill:#543C52;stroke:#FFFFFF;stroke-width:9.921267e-02;stroke-linejoin:bevel;stroke-miterlimit:10;}
	.st32{fill:#CCB9B9;stroke:#FFFFFF;stroke-width:0.2756;stroke-linejoin:bevel;stroke-miterlimit:10;}
	.st33{fill:#E4DAD8;stroke:#FFFFFF;stroke-width:0.166;stroke-miterlimit:10;}
	.st34{fill:#CCB9B9;stroke:#FFFFFF;stroke-width:0.166;stroke-miterlimit:10;}
	.st35{fill:none;stroke:#FFFFFF;stroke-width:0.166;stroke-miterlimit:10;}
	.st36{fill:#CCB9B9;stroke:#FFFFFF;stroke-width:0.3321;stroke-miterlimit:10;}
	.st37{fill:#CCB9B9;}
	.st38{fill:#543C52;}
	.st39{fill:#B79797;stroke:#FFFFFF;stroke-width:0.166;stroke-miterlimit:10;}
	.st40{fill:#B79797;}
	.st41{fill:#AA7F7B;}
	.st42{fill:#916461;}
	.st43{fill:#361D32;stroke:#FFFFFF;stroke-width:8.813157e-02;stroke-miterlimit:10;}
	.st44{fill:#543C52;stroke:#FFFFFF;stroke-width:8.813157e-02;stroke-miterlimit:10;}
	.st45{fill:#543C52;stroke:#FFFFFF;stroke-width:8.813157e-02;stroke-linejoin:bevel;stroke-miterlimit:10;}
</style>
<g>
	<polygon class="st0" points="19.5,25.7 29.3,33 18.3,33.2 15.6,30.9 	"/>
	<polygon class="st0" points="35.9,19.1 35.6,25.6 37.6,30.4 40.5,28.3 42.7,21.5 	"/>
	<polygon class="st0" points="51.9,36.3 42,37 48.8,43.2 52.1,43.3 	"/>
	<polygon class="st0" points="35.9,44.3 40.7,55 33.9,57.2 33,51.7 	"/>
	<polygon class="st0" points="20.6,24.1 25.3,22.6 23.9,19.4 	"/>
	<path class="st1" d="M26.1,12L6.5,34.8l-0.3,0.9l28.9,1L26.1,12z M23.9,19.4L30.6,33l-16.9,0.3L23.9,19.4z"/>
	<path class="st1" d="M26.1,12l9.1,24.8l21.4-13L26.1,12z M32.4,17.5L47.6,23l-10,7.4L32.4,17.5z"/>
	<path class="st1" d="M35.2,36.8l19.6,17.4l1.8-30.4L35.2,36.8z M41.9,37l10-6.6L52,46.2L41.9,37z"/>
	<path class="st1" d="M35.2,36.8L22.7,63.2l32.1-9.1L35.2,36.8z M35.9,43.6l11.8,9l-16.9,5.5L35.9,43.6z"/>
	<polygon class="st0" points="18,45.5 27.7,39.9 31.5,39.8 27.6,47.5 21.7,51.3 	"/>
	<path class="st1" d="M6.3,35.7l16.4,27.5l12.5-26.5L6.3,35.7z M14.5,40l16.7-0.1L24,54.7L14.5,40z"/>
	<polygon class="st2" points="12,22.4 6.3,35.7 26.1,12 	"/>
	<polygon class="st2" points="26.1,12 56.6,23.8 42.5,15.3 	"/>
	<polygon class="st2" points="56.6,23.8 54.8,54.1 59.4,37.5 	"/>
	<polygon class="st1" points="54.8,54.1 40.1,64.3 22.7,63.2 	"/>
	<polygon class="st1" points="6.3,35.7 10,53.2 22.7,63.2 	"/>
</g>
<g>
	<path class="st3" d="M131,204.2l0.3-36c0,0-1,3.3-7,3.6s-7-3.6-7-3.6l-0.3,37.4c0,0,1.3,1.7,7,2.1S131,204.2,131,204.2z"/>
	<ellipse class="st3" cx="122.6" cy="165.8" rx="16.4" ry="8.4"/>
	<g>
		<path class="st4" d="M109.7,166.1c-1.1,1.3,14.5,10,25.2,0"/>
		<path class="st4" d="M109.8,164.9c-0.6,0.7,3.6,3.7,9.6,4.5c4.8,0.7,12.1-0.4,15.7-4.5"/>
		<path class="st4" d="M109.8,163.7c-0.6,0.7,3.5,3.8,9.6,4.6c4.8,0.6,13.3-0.9,15.6-4.6"/>
		<path class="st4" d="M109.8,162.5c-0.6,0.7,3.4,3.9,9.6,4.6c4.7,0.6,14.6-1.4,15.6-4.6"/>
		<path class="st4" d="M109.9,161.3c-0.7,0.8,3.3,4,9.6,4.6c4.7,0.5,15.8-1.9,15.6-4.6"/>
		<path class="st4" d="M109.9,160.1c-0.7,0.8,3.2,4.1,9.7,4.7c4.6,0.4,17.1-2.4,15.6-4.7"/>
		<path class="st4" d="M110,158.9c-0.7,0.8,3.1,4.1,9.7,4.7c4.5,0.4,18.3-2.9,15.5-4.7"/>
	</g>
	<ellipse class="st3" cx="122.6" cy="154.2" rx="16.4" ry="8.4"/>
	<ellipse class="st3" cx="123.6" cy="154.1" rx="7" ry="3.6"/>
	<polygon class="st5" points="22.3,202.6 66.9,224.7 104.4,206 60.3,183.6 	"/>
	<polyline class="st6" points="9.8,123.2 9.8,205.9 61.7,170.9 61.7,97.4 	"/>
	<polygon class="st7" points="18.9,192.3 63.5,214.4 106.9,189.7 62.5,170.7 	"/>
	<polygon class="st7" points="18.9,192.3 18.9,199.7 64.3,222.4 63.5,214.4 	"/>
	<polygon class="st6" points="61.9,96.6 61.9,170.5 122.6,210.6 122.4,126.6 	"/>
	<g>
		<g>
			<g>
				<line class="st8" x1="44.1" y1="172.5" x2="44.1" y2="176.8"/>
				<path class="st9" d="M44.1,177.1c-0.2,0-0.3-0.1-0.3-0.3v-4.3c0-0.2,0.1-0.3,0.3-0.3s0.3,0.1,0.3,0.3v4.3
					C44.4,176.9,44.3,177.1,44.1,177.1z"/>
			</g>
			<g>
				<line class="st8" x1="44.1" y1="171.6" x2="44.1" y2="175.8"/>
				<path class="st10" d="M44.1,176.5c-0.4,0-0.6-0.3-0.6-0.6v-4.3c0-0.4,0.3-0.6,0.6-0.6s0.6,0.3,0.6,0.6v4.3
					C44.7,176.2,44.4,176.5,44.1,176.5z"/>
			</g>
			<g>
				<line class="st8" x1="44.1" y1="169" x2="44.1" y2="173.3"/>
				<path class="st10" d="M44.1,174.6c-0.7,0-1.3-0.6-1.3-1.3V169c0-0.7,0.6-1.3,1.3-1.3s1.3,0.6,1.3,1.3v4.3
					C45.4,174,44.8,174.6,44.1,174.6z"/>
			</g>
		</g>
		<g>
			<line class="st11" x1="26.1" y1="158.5" x2="47.6" y2="169.2"/>
			<path class="st3" d="M47.6,170.2c-0.1,0-0.3,0-0.4-0.1l-21.5-10.7c-0.5-0.2-0.7-0.8-0.4-1.3c0.2-0.5,0.8-0.7,1.3-0.4l21.5,10.7
				c0.5,0.2,0.7,0.8,0.4,1.3C48.3,170,47.9,170.2,47.6,170.2z"/>
		</g>
		<g>
			<polygon class="st3" points="40.1,164.6 40,168.8 45.7,171.7 45.7,167.1 			"/>
			<path class="st12" d="M45.6,167.5c-0.1,0,0,4.1,0,4.1l3.8-1.8v-4.1L45.6,167.5z"/>
			<ellipse class="st13" cx="47.5" cy="169" rx="1.3" ry="1"/>
			<g>
				<line class="st11" x1="47.7" y1="169.1" x2="67.7" y2="179.1"/>
				<path class="st3" d="M67.7,180c-0.1,0-0.3,0-0.4-0.1l-20-9.9c-0.5-0.2-0.7-0.8-0.4-1.3c0.2-0.5,0.8-0.7,1.3-0.4l20,9.9
					c0.5,0.2,0.7,0.8,0.4,1.3C68.3,179.8,68,180,67.7,180z"/>
			</g>
			<polygon class="st3" points="40,164.6 45.7,167.5 49.5,165.7 43.8,162.7 			"/>
		</g>
		<g>
			<polygon class="st3" points="23.5,148.1 23.6,154 66.3,174.9 66.3,169 			"/>
			<polygon class="st3" points="23.6,148 31.6,144 74.5,165.1 65.9,169.2 			"/>
			<polygon class="st14" points="65.9,169.2 66,174.7 74.6,170.4 74.5,165.2 			"/>
		</g>
	</g>
	<polyline class="st15" points="122.6,126.7 122.6,210.6 70.7,236.8 70.7,152.6 	"/>
	<path class="st16" d="M66.6,125.7c0,0-2.7,30.4-14.1,31.3"/>
	<path class="st15" d="M61.6,95.7c0.3,0.6-51.3,26.6-51.3,26.6l60.4,30.3l51.9-25.8L61.6,95.7z M69.4,144.7l-44.6-22.1l37.1-19.2
		l45,22.6L69.4,144.7z"/>
	<polygon class="st17" points="24.8,122.6 69.4,144.7 106.9,126 61.9,103.6 	"/>
	<ellipse class="st18" cx="66.6" cy="124.1" rx="2.3" ry="1.6"/>
	<path class="st16" d="M66.5,124.2c0,0,6.9-10.4,17.5-22.3c0.7-0.9,1.1-1.9,1.4-3"/>
	<path class="st15" d="M10.2,122.1L10,205.9l60.8,31v-84.3L10.2,122.1z M62.3,221.1l-44.9-22.3v-62l44.9,23V221.1z"/>
	<g>
		<polygon class="st19" points="25.2,204.8 25.2,212.4 42.5,221.1 42.5,213.3 		"/>
		<polygon class="st20" points="23.9,205.8 23.9,213.4 41.2,222 41.2,214.3 		"/>
		<polygon class="st21" points="30.1,210.8 30.1,214.4 38.3,218.5 38.3,214.8 		"/>
		
			<ellipse transform="matrix(0.9964 -8.530382e-02 8.530382e-02 0.9964 -17.9444 3.0683)" class="st22" cx="26.9" cy="211.5" rx="0.9" ry="1.3"/>
		
			<ellipse transform="matrix(0.9964 -8.530382e-02 8.530382e-02 0.9964 -17.9483 2.9744)" class="st23" cx="25.8" cy="211.5" rx="0.9" ry="1.3"/>
		<path class="st24" d="M26.1,210.2h1.1c0,0,0.5,0.2,0.6,1.2s-0.8,1.3-0.8,1.3h-1.1c0,0,1-0.2,0.8-1.3
			C26.4,210.2,26.1,210.2,26.1,210.2z"/>
		
			<ellipse transform="matrix(0.9964 -8.530382e-02 8.530382e-02 0.9964 -18.0888 3.493)" class="st25" cx="31.8" cy="213.4" rx="0.8" ry="1.1"/>
		
			<ellipse transform="matrix(0.9964 -8.530382e-02 8.530382e-02 0.9964 -18.0888 3.493)" class="st26" cx="31.8" cy="213.4" rx="0.5" ry="0.7"/>
		
			<ellipse transform="matrix(0.9964 -8.530474e-02 8.530474e-02 0.9964 -18.174 3.6933)" class="st27" cx="34.1" cy="214.5" rx="0.8" ry="1.1"/>
		
			<ellipse transform="matrix(0.9964 -8.530382e-02 8.530382e-02 0.9964 -18.1738 3.6933)" class="st28" cx="34.1" cy="214.5" rx="0.5" ry="0.7"/>
		<polygon class="st20" points="23.9,205.8 25.2,204.8 42.5,213.3 42.5,221.1 41.2,222 41.2,214.3 		"/>
	</g>
	<g>
		<polygon class="st29" points="41.6,183.2 45.4,186 41.1,186.1 40.1,185.2 		"/>
		<polygon class="st29" points="47.9,180.6 47.8,183.1 48.6,185 49.7,184.2 50.6,181.6 		"/>
		<polygon class="st29" points="54.1,187.3 50.3,187.5 52.9,189.9 54.2,190 		"/>
		<polygon class="st29" points="47.9,190.4 49.8,194.5 47.2,195.4 46.8,193.2 		"/>
		<polygon class="st29" points="42,182.5 43.8,182 43.3,180.7 		"/>
		<path class="st30" d="M44.1,177.9l-7.6,8.8l-0.1,0.4l11.2,0.4L44.1,177.9z M43.3,180.7l2.6,5.3l-6.6,0.1L43.3,180.7z"/>
		<path class="st30" d="M44.1,177.9l3.5,9.6l8.3-5L44.1,177.9z M46.6,180l5.9,2.1l-3.9,2.9L46.6,180z"/>
		<path class="st30" d="M47.7,187.5l7.6,6.7l0.7-11.8L47.7,187.5z M50.3,187.6l3.9-2.5v6.1L50.3,187.6z"/>
		<path class="st30" d="M47.7,187.5l-4.8,10.2l12.4-3.5L47.7,187.5z M47.9,190.1l4.6,3.5l-6.5,2.1L47.9,190.1z"/>
		<polygon class="st29" points="41,190.8 44.8,188.7 46.2,188.6 44.7,191.6 42.4,193.1 		"/>
		<path class="st30" d="M36.4,187.1l6.4,10.6l4.8-10.2L36.4,187.1z M39.6,188.7h6.5l-2.8,5.7L39.6,188.7z"/>
		<polygon class="st31" points="38.7,181.9 36.4,187.1 44.1,177.9 		"/>
		<polygon class="st31" points="44.1,177.9 55.9,182.4 50.5,179.1 		"/>
		<polygon class="st31" points="55.9,182.4 55.2,194.2 57,187.8 		"/>
		<polygon class="st30" points="55.2,194.2 49.6,198.1 42.8,197.7 		"/>
		<polygon class="st30" points="36.4,187.1 37.9,193.8 42.8,197.7 		"/>
	</g>
	<path class="st16" d="M85.4,98.9c0.7-2.7,4.8-1.3,9.4,0.9c4.6,2.2,64,41.6,42.3,63.2"/>
	<g>
		<path class="st6" d="M86,98.9l-0.2,1c0.2,0,0.4,0,0.4,0.1s-0.8,0.3-1.5,0.3s-1.5-0.1-1.5-0.3c0-0.2,1.3-0.3,1.3-0.3l0.2-0.8
			c0,0-2.6,0.1-2.6,1.1c0,0.9,1.3,1.3,2.7,1.3c1.3,0,2.7-0.4,2.7-1.3C87.3,99.5,86.8,99.1,86,98.9z"/>
	</g>
	<g>
		<polygon class="st32" points="85.8,98.9 88,99.7 90.9,98.3 88.6,97.5 		"/>
		<g>
			<polygon class="st32" points="87.9,112.8 85.6,111.8 85.8,98.9 88,99.7 			"/>
		</g>
		<polygon class="st32" points="88,112.7 90.9,111.1 90.9,98.3 88,99.7 		"/>
	</g>
</g>
<g>
	<g>
		<g>
			<polygon class="st33" points="96.9,83.6 141,61.5 104.2,42.1 59.2,64.8 			"/>
			<polygon class="st34" points="64.4,63.9 96.8,80.1 132.8,62 132.8,57 99.5,40.4 64.5,61.5 			"/>
			<polygon class="st34" points="64.4,64 64.4,58.6 96.7,74.6 96.7,80.1 			"/>
			<polygon class="st34" points="59.2,64.8 59.2,70 96.6,88.7 141.3,66.2 141.3,61.3 96.6,83.5 			"/>
			<line class="st35" x1="96.6" y1="83.5" x2="96.6" y2="88.7"/>
			<polygon class="st33" points="64.7,58.7 96.8,74.9 132.7,57.1 100.6,40.8 			"/>
			<path class="st36" d="M123.1,49.2l-11.5-6.1c0,0-1.4,0.2-2.1-0.1s-0.6-0.5-0.8-1.2c0,0-5.9-2.9-5.7-3.1v7L123.4,56L123.1,49.2z"
				/>
			<polygon class="st37" points="76,60.4 103,46.8 103,38.7 75.9,52.2 			"/>
			<polygon class="st34" points="96.7,70.5 70.1,57.5 70.1,49.1 96.6,62.3 			"/>
			<polygon class="st34" points="96.7,70.5 123.4,57.2 123.4,49.1 96.7,62.4 			"/>
			<ellipse class="st38" cx="94.7" cy="58.2" rx="1.6" ry="0.8"/>
			<ellipse class="st38" cx="96.7" cy="44" rx="1.6" ry="0.8"/>
			<g>
				<ellipse class="st38" cx="96.8" cy="43.9" rx="1.6" ry="0.8"/>
				<path class="st38" d="M95.2,43.9c0,0,1.5-2.9,3.2,0c0,0-0.8,0.4-1.8,0.4S95.2,43.9,95.2,43.9z"/>
			</g>
			<path class="st39" d="M123.4,49l-11.8-5.9l-4.4,2.5v0.3c0.2,2-1.2-3-1.2-3l2.3-1.1L97,36L70,49.2l26.8,13.2L123.4,49"/>
			<path class="st39" d="M123.4,49l-11.8-5.9l-4.4,2.5v0.3c0.2,2-1.2-3-1.2-3l2.3-1.1L97,36L70,49.2l26.8,13.2L123.4,49"/>
			<g>
				<ellipse class="st38" cx="79.8" cy="48.4" rx="1.6" ry="0.8"/>
				<path class="st38" d="M78.2,48.4c0,0,1.5-2.9,3.2,0c0,0-0.8,0.4-1.8,0.4S78.2,48.4,78.2,48.4z"/>
			</g>
			<g>
				<g>
					<g>
						<path class="st36" d="M109.5,38c0,0,1.5-0.3,2.3,0.1c0.8,0.5,1.4,1.2,1.4,1.2l2.1-6.4l-6.1-2.4L109.5,38z"/>
						<polygon class="st34" points="133.4,13.9 133.2,43.3 126.8,46.5 126.7,17.3 						"/>
						<polygon class="st34" points="100.5,3.8 107.2,0.5 133.3,13.9 126.8,17.1 						"/>
						<g>
							<path class="st39" d="M113.2,34.1l-0.1,5.2l13.7,7.1l-0.1-29.3L100.6,3.8l-0.2,29.6l9.3,4.6l0.1-5.7c0,0,0.9,0.2,1.6,0.4
								S113.2,34.1,113.2,34.1z"/>
						</g>
					</g>
					<path class="st40" d="M107.9,31.8c0,0,0.6,0.6,1.1,1.1s0.9,0.8,0.9,0.8s1.6,0.1,2.2,0.3c0.7,0.3,1.1,0.7,1.1,0.9
						c0,0.1,0.5,0.1,0.5,0.1s2.2,0,3.5-1c0.1-0.1,0.1-0.1,0.1-0.2c0,0-1.4-1.6-2.6-2.3c-0.6-0.4-3.1-0.9-4.2-1
						C109.2,30.3,107.9,31.8,107.9,31.8z"/>
				</g>
				<g>
					<ellipse transform="matrix(0.5 -0.866 0.866 0.5 42.2663 97.1122)" class="st41" cx="105.2" cy="12" rx="1.3" ry="1.7"/>
					<ellipse transform="matrix(0.5 -0.866 0.866 0.5 42.2663 97.1122)" class="st42" cx="105.2" cy="12" rx="1" ry="1.3"/>
				</g>
				<g>
					<ellipse transform="matrix(0.5 -0.866 0.866 0.5 44.4628 116.4125)" class="st41" cx="123" cy="19.7" rx="1.3" ry="1.7"/>
					<ellipse transform="matrix(0.5 -0.866 0.866 0.5 44.4628 116.4125)" class="st42" cx="123" cy="19.7" rx="1" ry="1.3"/>
				</g>
				<g>
					<ellipse transform="matrix(0.5 -0.866 0.866 0.5 27.8936 124.5141)" class="st41" cx="121.8" cy="38.1" rx="1.3" ry="1.7"/>
					<ellipse transform="matrix(0.5 -0.866 0.866 0.5 27.8936 124.5141)" class="st42" cx="121.8" cy="38.1" rx="1" ry="1.3"/>
				</g>
				<g>
					<ellipse transform="matrix(0.5 -0.866 0.866 0.5 25.3121 105.1717)" class="st41" cx="103.7" cy="30.7" rx="1.3" ry="1.7"/>
					<ellipse transform="matrix(0.5 -0.866 0.866 0.5 25.3121 105.1717)" class="st42" cx="103.7" cy="30.7" rx="1" ry="1.3"/>
				</g>
			</g>
		</g>
		<g>
			<polygon class="st43" points="93.6,43.5 97,46 93.2,46.1 92.3,45.3 			"/>
			<polygon class="st43" points="99.2,41.2 99.1,43.5 99.8,45.2 100.8,44.4 101.6,42.1 			"/>
			<polygon class="st43" points="104.7,47.2 101.3,47.4 103.7,49.5 104.8,49.6 			"/>
			<polygon class="st43" points="99.2,49.9 100.9,53.6 98.6,54.4 98.2,52.5 			"/>
			<polygon class="st43" points="94,43 95.6,42.5 95.1,41.4 			"/>
			<path class="st44" d="M95.9,38.8l-6.7,7.8L89,47l10,0.4L95.9,38.8z M95.1,41.4l2.3,4.7l-5.8,0.1L95.1,41.4z"/>
			<path class="st44" d="M95.9,38.8l3.1,8.5l7.4-4.5L95.9,38.8z M98,40.7l5.2,1.9l-3.4,2.5L98,40.7z"/>
			<path class="st44" d="M99,47.3l6.7,6l0.6-10.4L99,47.3z M101.3,47.4l3.5-2.3v5.4L101.3,47.4z"/>
			<path class="st44" d="M99,47.3l-4.3,9.1l11.1-3.1L99,47.3z M99.2,49.7l4.1,3.1l-5.8,1.9L99.2,49.7z"/>
			<polygon class="st43" points="93.1,50.3 96.4,48.4 97.7,48.4 96.4,51 94.4,52.3 			"/>
			<path class="st44" d="M89,47l5.6,9.5l4.3-9.1L89,47z M91.9,48.4h5.8l-2.5,5.1L91.9,48.4z"/>
			<polygon class="st45" points="91,42.4 89,47 95.9,38.8 			"/>
			<polygon class="st45" points="95.9,38.8 106.4,42.9 101.5,39.9 			"/>
			<polygon class="st45" points="106.4,42.9 105.7,53.3 107.3,47.6 			"/>
			<polygon class="st44" points="105.7,53.3 100.7,56.8 94.7,56.4 			"/>
			<polygon class="st44" points="89,47 90.3,53 94.7,56.4 			"/>
		</g>
		<g>
			<path class="st39" d="M111.7,43.2l-4.4,2.5V46c0.1,1.6-0.6-1.1-1-2.4l0.8,4l-1.5,5.5l-4.9,3.4l-5.8-0.3l-4.2-3.4L89.5,47l0.1-0.3
				l0.1-0.1l1.7-4l4.7-3.5l5.5,1.1l4.6,2.8l0,0l2.3-1.1L97,36.1L70.2,49.3L97,62.5l26.6-13.3v-0.1L111.7,43.2z"/>
			<path class="st39" d="M106.3,43.1L106.3,43.1c0,0,0,0.3,0.1,0.6L106.3,43.1z"/>
		</g>
		<path class="st39" d="M110.9,16.8l3.9-0.1l4.9,2.5l2.2,5.6l-1.5,5.8l-4,3.7l-3.3,0.4c0,0-0.3-0.7-1.6-1s-1.7-0.1-1.7-0.1l-2.8-1.8
			l-2.3-5.4l0.8-7l4.8-2.6l0,0L110.9,16.8z"/>
		<g>
			<ellipse class="st41" cx="78" cy="50" rx="1.8" ry="0.8"/>
			<path class="st42" d="M76.3,50c0,0,1.6-3.1,3.5,0c0,0-0.9,0.4-1.9,0.4C76.8,50.4,76.3,50,76.3,50z"/>
		</g>
		<g>
			<ellipse class="st41" cx="97.2" cy="38.3" rx="1.8" ry="0.8"/>
			<path class="st42" d="M95.4,38.3c0,0,1.6-3.1,3.5,0c0,0-0.9,0.4-1.9,0.4C95.9,38.7,95.4,38.3,95.4,38.3z"/>
		</g>
		<g>
			<ellipse class="st41" cx="97.4" cy="59.3" rx="1.8" ry="0.8"/>
			<path class="st42" d="M95.6,59.3c0,0,1.6-3.1,3.5,0c0,0-0.9,0.4-1.9,0.4S95.6,59.3,95.6,59.3z"/>
		</g>
		<g>
			<ellipse class="st41" cx="113.3" cy="49.9" rx="1.8" ry="0.8"/>
			<path class="st42" d="M111.6,49.9c0,0,1.6-3.1,3.5,0c0,0-0.9,0.4-1.9,0.4C112.1,50.4,111.6,49.9,111.6,49.9z"/>
		</g>
	</g>
	<polygon class="st41" points="106.4,26.7 112.2,25.5 111.1,32.7 	"/>
	<polygon class="st41" points="114.5,17.7 113.3,23.9 109.2,18.6 	"/>
	<polygon class="st41" points="119.7,22.4 114.1,24.3 115.7,18.2 	"/>
	<polygon class="st41" points="119.5,29.3 113.6,25.2 119.7,23.5 	"/>
	<polygon class="st41" points="112.5,32.6 113,26.1 118.4,30.1 	"/>
	<polygon class="st41" points="106.1,25 108.1,19.1 112.1,24.4 	"/>
</g>
</svg>
