<?xml version="1.0" encoding="utf-8"?>
<!-- Generator: Adobe Illustrator 25.2.3, SVG Export Plug-In . SVG Version: 6.00 Build 0)  -->
<svg version="1.1" id="Layer_1" xmlns="http://www.w3.org/2000/svg" xmlns:xlink="http://www.w3.org/1999/xlink" x="0px" y="0px"
	 viewBox="0 0 140.4 238.3" style="enable-background:new 0 0 140.4 238.3;" xml:space="preserve">
<style type="text/css">
	.st0{fill:#361D32;stroke:#FFFFFF;stroke-width:0.2562;stroke-miterlimit:10;}
	.st1{fill:#543C52;stroke:#FFFFFF;stroke-width:0.2562;stroke-miterlimit:10;}
	.st2{fill:#543C52;stroke:#FFFFFF;stroke-width:0.2562;stroke-linejoin:bevel;stroke-miterlimit:10;}
	.st3{fill:#361D32;stroke:#FFFFFF;stroke-width:0.2756;stroke-linejoin:bevel;stroke-miterlimit:10;}
	.st4{fill:none;stroke:#543C52;stroke-width:0.8268;stroke-miterlimit:10;}
	.st5{fill:#543C52;stroke:#FFFFFF;stroke-width:0.2756;stroke-miterlimit:10;}
	.st6{fill:#CCB9B9;stroke:#FFFFFF;stroke-width:0.2756;stroke-miterlimit:10;}
	.st7{fill:#B79797;stroke:#FFFFFF;stroke-width:0.2756;stroke-linejoin:bevel;stroke-miterlimit:10;}
	.st8{fill:#381F34;stroke:#FFFFFF;stroke-width:0.1284;stroke-miterlimit:10;}
	.st9{fill:#361D32;stroke:#FFFFFF;stroke-width:0.1284;stroke-miterlimit:10;}
	.st10{fill:#361D32;stroke:#FFFFFF;stroke-width:0.2049;stroke-linejoin:bevel;stroke-miterlimit:10;}
	.st11{fill:#381F34;stroke:#FFFFFF;stroke-width:0.3066;stroke-linejoin:bevel;stroke-miterlimit:10;}
	.st12{fill:#381F34;stroke:#FFFFFF;stroke-width:0.2756;stroke-linejoin:bevel;stroke-miterlimit:10;}
	.st13{fill:#E4DAD8;stroke:#FFFFFF;stroke-width:0.2756;stroke-miterlimit:10;}
	.st14{fill:none;stroke:#543C52;stroke-width:1.1024;stroke-miterlimit:10;}
	.st15{opacity:0.28;fill:#E4DAD8;stroke:#FFFFFF;stroke-width:0.2756;stroke-miterlimit:10;}
	.st16{fill:none;stroke:#FFFFFF;stroke-width:0.8268;stroke-miterlimit:10;}
	.st17{fill:#381F34;stroke:#FFFFFF;stroke-width:0.2756;stroke-miterlimit:10;}
	.st18{fill:#361D32;stroke:#FFFFFF;stroke-width:0.2756;stroke-miterlimit:10;}
	.st19{fill:#381F34;stroke:#FFFFFF;stroke-width:0.1309;stroke-miterlimit:10;}
	.st20{fill:#381F34;stroke:#FFFFFF;stroke-width:0.1917;stroke-miterlimit:10;}
	.st21{fill:#361D32;stroke:#FFFFFF;stroke-width:0.1917;stroke-miterlimit:10;}
	.st22{fill:none;stroke:#E4DAD8;stroke-width:0.1654;stroke-miterlimit:10;}
	.st23{fill:none;stroke:#E4DAD8;stroke-width:0.1045;stroke-miterlimit:10;}
	.st24{fill:none;stroke:#FFFFFF;stroke-width:0.1654;stroke-miterlimit:10;}
	.st25{fill:none;stroke:#FFFFFF;stroke-width:0.1045;stroke-miterlimit:10;}
	.st26{fill:#361D32;stroke:#FFFFFF;stroke-width:9.921267e-02;stroke-miterlimit:10;}
	.st27{fill:#543C52;stroke:#FFFFFF;stroke-width:9.921267e-02;stroke-miterlimit:10;}
	.st28{fill:#543C52;stroke:#FFFFFF;stroke-width:9.921267e-02;stroke-linejoin:bevel;stroke-miterlimit:10;}
	.st29{fill:#CCB9B9;stroke:#FFFFFF;stroke-width:0.2756;stroke-linejoin:bevel;stroke-miterlimit:10;}
	.st30{fill:#E4DAD8;stroke:#FFFFFF;stroke-width:0.166;stroke-miterlimit:10;}
	.st31{fill:#CCB9B9;stroke:#FFFFFF;stroke-width:0.166;stroke-miterlimit:10;}
	.st32{fill:#CCB9B9;stroke:#FFFFFF;stroke-width:0.3321;stroke-miterlimit:10;}
	.st33{fill:#CCB9B9;}
	.st34{fill:#543C52;}
	.st35{fill:#B79797;stroke:#FFFFFF;stroke-width:0.166;stroke-miterlimit:10;}
	.st36{fill:#B79797;}
	.st37{fill:#AA7F7B;}
	.st38{fill:#916461;}
	.st39{fill:#361D32;stroke:#FFFFFF;stroke-width:8.813157e-02;stroke-miterlimit:10;}
	.st40{fill:#543C52;stroke:#FFFFFF;stroke-width:8.813157e-02;stroke-miterlimit:10;}
	.st41{fill:#543C52;stroke:#FFFFFF;stroke-width:8.813157e-02;stroke-linejoin:bevel;stroke-miterlimit:10;}
</style>
<g>
	<polygon class="st0" points="16.8,25.7 26.6,33 15.6,33.2 12.9,30.9 	"/>
	<polygon class="st0" points="33.2,19.1 32.9,25.6 34.9,30.4 37.8,28.3 40,21.5 	"/>
	<polygon class="st0" points="49.2,36.3 39.3,37 46.1,43.2 49.4,43.3 	"/>
	<polygon class="st0" points="33.2,44.3 38,55 31.2,57.2 30.3,51.7 	"/>
	<polygon class="st0" points="17.9,24.1 22.6,22.6 21.2,19.4 	"/>
	<path class="st1" d="M23.4,12L3.8,34.8l-0.3,0.9l28.9,1L23.4,12z M21.2,19.4L27.9,33L11,33.3L21.2,19.4z"/>
	<path class="st1" d="M23.4,12l9.1,24.8l21.4-13L23.4,12z M29.7,17.5L44.9,23l-10,7.4L29.7,17.5z"/>
	<path class="st1" d="M32.5,36.8l19.6,17.4l1.8-30.4L32.5,36.8z M39.2,37l10-6.6l0.1,15.8L39.2,37z"/>
	<path class="st1" d="M32.5,36.8L20,63.2l32.1-9.1L32.5,36.8z M33.2,43.6l11.8,9l-16.9,5.5L33.2,43.6z"/>
	<polygon class="st0" points="15.3,45.5 25,39.9 28.8,39.8 24.9,47.5 19,51.3 	"/>
	<path class="st1" d="M3.6,35.7L20,63.2l12.5-26.5L3.6,35.7z M11.8,40l16.7-0.1l-7.2,14.8L11.8,40z"/>
	<polygon class="st2" points="9.3,22.4 3.6,35.7 23.4,12 	"/>
	<polygon class="st2" points="23.4,12 53.9,23.8 39.8,15.3 	"/>
	<polygon class="st2" points="53.9,23.8 52.1,54.1 56.7,37.5 	"/>
	<polygon class="st1" points="52.1,54.1 37.4,64.3 20,63.2 	"/>
	<polygon class="st1" points="3.6,35.7 7.3,53.2 20,63.2 	"/>
</g>
<g>
	<path class="st3" d="M128.3,204.2l0.3-36c0,0-1,3.3-7,3.6c-6,0.3-7-3.6-7-3.6l-0.3,37.4c0,0,1.3,1.7,7,2.1S128.3,204.2,128.3,204.2
		z"/>
	<ellipse class="st3" cx="119.9" cy="165.8" rx="16.4" ry="8.4"/>
	<g>
		<path class="st4" d="M107,166.1c-1.1,1.3,14.5,10,25.2,0"/>
		<path class="st4" d="M107.1,164.9c-0.6,0.7,3.6,3.7,9.6,4.5c4.8,0.7,12.1-0.4,15.7-4.5"/>
		<path class="st4" d="M107.1,163.7c-0.6,0.7,3.5,3.8,9.6,4.6c4.8,0.6,13.3-0.9,15.6-4.6"/>
		<path class="st4" d="M107.1,162.5c-0.6,0.7,3.4,3.9,9.6,4.6c4.7,0.6,14.6-1.4,15.6-4.6"/>
		<path class="st4" d="M107.2,161.3c-0.7,0.8,3.3,4,9.6,4.6c4.7,0.5,15.8-1.9,15.6-4.6"/>
		<path class="st4" d="M107.2,160.1c-0.7,0.8,3.2,4.1,9.7,4.7c4.6,0.4,17.1-2.4,15.6-4.7"/>
		<path class="st4" d="M107.3,158.9c-0.7,0.8,3.1,4.1,9.7,4.7c4.5,0.4,18.3-2.9,15.5-4.7"/>
	</g>
	<ellipse class="st3" cx="119.9" cy="154.2" rx="16.4" ry="8.4"/>
	<ellipse class="st3" cx="120.9" cy="154.1" rx="7" ry="3.6"/>
	<polygon class="st5" points="19.6,202.6 64.2,224.7 101.7,206 57.6,183.6 	"/>
	<polyline class="st6" points="7.1,123.2 7.1,205.9 59,170.9 59,97.4 	"/>
	<polygon class="st7" points="16.2,192.3 60.8,214.4 104.2,189.7 59.8,170.7 	"/>
	<polygon class="st7" points="16.2,192.3 16.2,199.7 61.6,222.4 60.8,214.4 	"/>
	<polygon class="st6" points="59.2,96.6 59.2,170.5 119.9,210.6 119.7,126.6 	"/>
	<g>
		<g>
			<g>
				<line class="st8" x1="41.4" y1="172.5" x2="41.4" y2="176.8"/>
				<path class="st8" d="M41.4,177.1c-0.2,0-0.3-0.1-0.3-0.3v-4.3c0-0.2,0.1-0.3,0.3-0.3c0.2,0,0.3,0.1,0.3,0.3v4.3
					C41.7,176.9,41.6,177.1,41.4,177.1z"/>
			</g>
			<g>
				<line class="st8" x1="41.4" y1="171.6" x2="41.4" y2="175.8"/>
				<path class="st9" d="M41.4,176.5c-0.4,0-0.6-0.3-0.6-0.6v-4.3c0-0.4,0.3-0.6,0.6-0.6s0.6,0.3,0.6,0.6v4.3
					C42,176.2,41.7,176.5,41.4,176.5z"/>
			</g>
			<g>
				<line class="st8" x1="41.4" y1="169" x2="41.4" y2="173.3"/>
				<path class="st9" d="M41.4,174.6c-0.7,0-1.3-0.6-1.3-1.3V169c0-0.7,0.6-1.3,1.3-1.3s1.3,0.6,1.3,1.3v4.3
					C42.7,174,42.1,174.6,41.4,174.6z"/>
			</g>
		</g>
		<g>
			<line class="st3" x1="23.4" y1="158.5" x2="44.9" y2="169.2"/>
			<path class="st3" d="M44.9,170.2c-0.1,0-0.3,0-0.4-0.1l-21.5-10.7c-0.5-0.2-0.7-0.8-0.4-1.3c0.2-0.5,0.8-0.7,1.3-0.4l21.5,10.7
				c0.5,0.2,0.7,0.8,0.4,1.3C45.6,170,45.2,170.2,44.9,170.2z"/>
		</g>
		<g>
			<polygon class="st3" points="37.4,164.6 37.3,168.8 43,171.7 43,167.1 			"/>
			<path class="st10" d="M42.9,167.5c-0.1,0,0,4.1,0,4.1l3.8-1.8l0-4.1L42.9,167.5z"/>
			<ellipse class="st11" cx="44.8" cy="169" rx="1.3" ry="1"/>
			<g>
				<line class="st3" x1="45" y1="169.1" x2="65" y2="179.1"/>
				<path class="st3" d="M65,180c-0.1,0-0.3,0-0.4-0.1l-20-9.9c-0.5-0.2-0.7-0.8-0.4-1.3c0.2-0.5,0.8-0.7,1.3-0.4l20,9.9
					c0.5,0.2,0.7,0.8,0.4,1.3C65.6,179.8,65.3,180,65,180z"/>
			</g>
			<polygon class="st3" points="37.3,164.6 43,167.5 46.8,165.7 41.1,162.7 			"/>
		</g>
		<g>
			<polygon class="st3" points="20.8,148.1 20.9,154 63.6,174.9 63.6,169 			"/>
			<polygon class="st3" points="20.9,148 28.9,144 71.8,165.1 63.2,169.2 			"/>
			<polygon class="st12" points="63.2,169.2 63.3,174.7 71.9,170.4 71.8,165.2 			"/>
		</g>
	</g>
	<polyline class="st13" points="119.9,126.7 119.9,210.6 68,236.8 68,152.6 	"/>
	<path class="st14" d="M63.9,125.7c0,0-2.7,30.4-14.1,31.3"/>
	<path class="st13" d="M58.9,95.7c0.3,0.6-51.3,26.6-51.3,26.6L68,152.6l51.9-25.8L58.9,95.7z M66.7,144.7l-44.6-22.1l37.1-19.2
		l45,22.6L66.7,144.7z"/>
	<polygon class="st15" points="22.1,122.6 66.7,144.7 104.2,126 59.2,103.6 	"/>
	<ellipse class="st16" cx="63.9" cy="124.1" rx="2.3" ry="1.6"/>
	<path class="st14" d="M63.8,124.2c0,0,6.9-10.4,17.5-22.3c0.7-0.9,1.1-1.9,1.4-3"/>
	<path class="st13" d="M7.5,122.1l-0.2,83.8l60.8,31v-84.3L7.5,122.1z M59.6,221.1l-44.9-22.3v-62l44.9,23V221.1z"/>
	<g>
		<polygon class="st17" points="22.5,204.8 22.5,212.4 39.8,221.1 39.8,213.3 		"/>
		<polygon class="st18" points="21.2,205.8 21.2,213.4 38.5,222 38.5,214.3 		"/>
		<polygon class="st19" points="27.4,210.8 27.4,214.4 35.6,218.5 35.6,214.8 		"/>
		
			<ellipse transform="matrix(0.9964 -8.530767e-02 8.530767e-02 0.9964 -17.9525 2.8348)" class="st20" cx="24.2" cy="211.5" rx="0.9" ry="1.3"/>
		
			<ellipse transform="matrix(0.9964 -8.530767e-02 8.530767e-02 0.9964 -17.9565 2.7407)" class="st21" cx="23.1" cy="211.5" rx="0.9" ry="1.3"/>
		<path class="st21" d="M23.4,210.2h1.1c0,0,0.5,0.2,0.6,1.2c0.1,1-0.8,1.3-0.8,1.3h-1.1c0,0,1-0.2,0.8-1.3
			C23.7,210.2,23.4,210.2,23.4,210.2z"/>
		
			<ellipse transform="matrix(0.9964 -8.530767e-02 8.530767e-02 0.9964 -18.0989 3.2622)" class="st22" cx="29.1" cy="213.4" rx="0.8" ry="1.1"/>
		
			<ellipse transform="matrix(0.9964 -8.530767e-02 8.530767e-02 0.9964 -18.0989 3.2622)" class="st23" cx="29.1" cy="213.4" rx="0.5" ry="0.7"/>
		
			<ellipse transform="matrix(0.9964 -8.530767e-02 8.530767e-02 0.9964 -18.1835 3.4572)" class="st24" cx="31.4" cy="214.5" rx="0.8" ry="1.1"/>
		
			<ellipse transform="matrix(0.9964 -8.530767e-02 8.530767e-02 0.9964 -18.1835 3.4572)" class="st25" cx="31.4" cy="214.5" rx="0.5" ry="0.7"/>
		<polygon class="st18" points="21.2,205.8 22.5,204.8 39.8,213.3 39.8,221.1 38.5,222 38.5,214.3 		"/>
	</g>
	<g>
		<polygon class="st26" points="38.9,183.2 42.7,186 38.4,186.1 37.4,185.2 		"/>
		<polygon class="st26" points="45.2,180.6 45.1,183.1 45.9,185 47,184.2 47.9,181.6 		"/>
		<polygon class="st26" points="51.4,187.3 47.6,187.5 50.2,189.9 51.5,190 		"/>
		<polygon class="st26" points="45.2,190.4 47.1,194.5 44.5,195.4 44.1,193.2 		"/>
		<polygon class="st26" points="39.3,182.5 41.1,182 40.6,180.7 		"/>
		<path class="st27" d="M41.4,177.9l-7.6,8.8l-0.1,0.4l11.2,0.4L41.4,177.9z M40.6,180.7l2.6,5.3l-6.6,0.1L40.6,180.7z"/>
		<path class="st27" d="M41.4,177.9l3.5,9.6l8.3-5L41.4,177.9z M43.9,180l5.9,2.1l-3.9,2.9L43.9,180z"/>
		<path class="st27" d="M45,187.5l7.6,6.7l0.7-11.8L45,187.5z M47.6,187.6l3.9-2.5l0,6.1L47.6,187.6z"/>
		<path class="st27" d="M45,187.5l-4.8,10.2l12.4-3.5L45,187.5z M45.2,190.1l4.6,3.5l-6.5,2.1L45.2,190.1z"/>
		<polygon class="st26" points="38.3,190.8 42.1,188.7 43.5,188.6 42,191.6 39.7,193.1 		"/>
		<path class="st27" d="M33.7,187.1l6.4,10.6l4.8-10.2L33.7,187.1z M36.9,188.7l6.5,0l-2.8,5.7L36.9,188.7z"/>
		<polygon class="st28" points="36,181.9 33.7,187.1 41.4,177.9 		"/>
		<polygon class="st28" points="41.4,177.9 53.2,182.4 47.8,179.1 		"/>
		<polygon class="st28" points="53.2,182.4 52.5,194.2 54.3,187.8 		"/>
		<polygon class="st27" points="52.5,194.2 46.9,198.1 40.1,197.7 		"/>
		<polygon class="st27" points="33.7,187.1 35.2,193.8 40.1,197.7 		"/>
	</g>
	<path class="st14" d="M82.7,98.9c0.7-2.7,4.8-1.3,9.4,0.9c4.6,2.2,64,41.6,42.3,63.2"/>
	<g>
		<path class="st6" d="M83.3,98.9l-0.2,1c0.2,0,0.4,0,0.4,0.1c0,0.1-0.8,0.3-1.5,0.3c-0.7,0-1.5-0.1-1.5-0.3c0-0.2,1.3-0.3,1.3-0.3
			l0.2-0.8c0,0-2.6,0.1-2.6,1.1c0,0.9,1.3,1.3,2.7,1.3c1.3,0,2.7-0.4,2.7-1.3C84.6,99.5,84.1,99.1,83.3,98.9z"/>
	</g>
	<g>
		<polygon class="st29" points="83.1,98.9 85.3,99.7 88.2,98.3 85.9,97.5 		"/>
		<g>
			<polygon class="st29" points="85.2,112.8 82.9,111.8 83.1,98.9 85.3,99.7 			"/>
		</g>
		<polygon class="st29" points="85.3,112.7 88.2,111.1 88.2,98.3 85.3,99.7 		"/>
	</g>
</g>
<g>
	<g>
		<g>
			<polygon class="st30" points="94.2,83.6 138.3,61.5 101.5,42.1 56.5,64.8 			"/>
			<polygon class="st31" points="61.7,63.9 94.1,80.1 130.1,62 130.1,57 96.8,40.4 61.8,61.5 			"/>
			<polygon class="st31" points="61.7,64 61.7,58.6 94,74.6 94,80.1 			"/>
			<polygon class="st31" points="56.5,64.8 56.5,70 93.9,88.7 138.6,66.2 138.6,61.3 93.9,83.5 			"/>
			<line class="st31" x1="93.9" y1="83.5" x2="93.9" y2="88.7"/>
			<polygon class="st30" points="62,58.7 94.1,74.9 130,57.1 97.9,40.8 			"/>
			<path class="st32" d="M120.4,49.2l-11.5-6.1c0,0-1.4,0.2-2.1-0.1c-0.7-0.3-0.6-0.5-0.8-1.2c0,0-5.9-2.9-5.7-3.1l0,7l20.4,10.3
				L120.4,49.2z"/>
			<polygon class="st33" points="73.3,60.4 100.3,46.8 100.3,38.7 73.2,52.2 			"/>
			<polygon class="st31" points="94,70.5 67.4,57.5 67.4,49.1 93.9,62.3 			"/>
			<polygon class="st31" points="94,70.5 120.7,57.2 120.7,49.1 94,62.4 			"/>
			<ellipse class="st34" cx="92" cy="58.2" rx="1.6" ry="0.8"/>
			<ellipse class="st34" cx="94" cy="44" rx="1.6" ry="0.8"/>
			<g>
				<ellipse class="st34" cx="94.1" cy="43.9" rx="1.6" ry="0.8"/>
				<path class="st34" d="M92.5,43.9c0,0,1.5-2.9,3.2,0c0,0-0.8,0.4-1.8,0.4S92.5,43.9,92.5,43.9z"/>
			</g>
			<path class="st35" d="M120.7,49l-11.8-5.9l-4.4,2.5l0,0.3c0.2,2-1.2-3-1.2-3l2.3-1.1L94.3,36L67.3,49.2l26.8,13.2L120.7,49"/>
			<path class="st35" d="M120.7,49l-11.8-5.9l-4.4,2.5l0,0.3c0.2,2-1.2-3-1.2-3l2.3-1.1L94.3,36L67.3,49.2l26.8,13.2L120.7,49"/>
			<g>
				<ellipse class="st34" cx="77.1" cy="48.4" rx="1.6" ry="0.8"/>
				<path class="st34" d="M75.5,48.4c0,0,1.5-2.9,3.2,0c0,0-0.8,0.4-1.8,0.4S75.5,48.4,75.5,48.4z"/>
			</g>
			<g>
				<g>
					<g>
						<path class="st32" d="M106.8,38c0,0,1.5-0.3,2.3,0.1c0.8,0.5,1.4,1.2,1.4,1.2l2.1-6.4l-6.1-2.4L106.8,38z"/>
						<polygon class="st31" points="130.7,13.9 130.5,43.3 124.1,46.5 124,17.3 						"/>
						<polygon class="st31" points="97.8,3.8 104.5,0.5 130.6,13.9 124.1,17.1 						"/>
						<g>
							<path class="st35" d="M110.5,34.1l-0.1,5.2l13.7,7.1l-0.1-29.3L97.9,3.8l-0.2,29.6L107,38l0.1-5.7c0,0,0.9,0.2,1.6,0.4
								S110.5,34.1,110.5,34.1z"/>
						</g>
					</g>
					<path class="st36" d="M105.2,31.8c0,0,0.6,0.6,1.1,1.1c0.5,0.5,0.9,0.8,0.9,0.8s1.6,0.1,2.2,0.3c0.7,0.3,1.1,0.7,1.1,0.9
						c0,0.1,0.5,0.1,0.5,0.1s2.2,0,3.5-1c0.1-0.1,0.1-0.1,0.1-0.2c0,0-1.4-1.6-2.6-2.3c-0.6-0.4-3.1-0.9-4.2-1
						C106.5,30.3,105.2,31.8,105.2,31.8z"/>
				</g>
				<g>
					<ellipse transform="matrix(0.5 -0.866 0.866 0.5 40.9526 94.7669)" class="st37" cx="102.5" cy="11.9" rx="1.3" ry="1.7"/>
					<ellipse transform="matrix(0.5 -0.866 0.866 0.5 40.9526 94.7669)" class="st38" cx="102.5" cy="11.9" rx="1" ry="1.3"/>
				</g>
				<g>
					<ellipse transform="matrix(0.5 -0.866 0.866 0.5 43.1108 114.0296)" class="st37" cx="120.3" cy="19.7" rx="1.3" ry="1.7"/>
					<ellipse transform="matrix(0.5 -0.866 0.866 0.5 43.1108 114.0296)" class="st38" cx="120.3" cy="19.7" rx="1" ry="1.3"/>
				</g>
				<g>
					<ellipse transform="matrix(0.5 -0.866 0.866 0.5 26.5581 122.1041)" class="st37" cx="119" cy="38.1" rx="1.3" ry="1.7"/>
					<ellipse transform="matrix(0.5 -0.866 0.866 0.5 26.5581 122.1041)" class="st38" cx="119" cy="38.1" rx="1" ry="1.3"/>
				</g>
				<g>
					<ellipse transform="matrix(0.5 -0.866 0.866 0.5 23.9245 102.7806)" class="st37" cx="101" cy="30.7" rx="1.3" ry="1.7"/>
					<ellipse transform="matrix(0.5 -0.866 0.866 0.5 23.9245 102.7806)" class="st38" cx="101" cy="30.7" rx="1" ry="1.3"/>
				</g>
			</g>
		</g>
		<g>
			<polygon class="st39" points="90.9,43.5 94.3,46 90.5,46.1 89.6,45.3 			"/>
			<polygon class="st39" points="96.5,41.2 96.4,43.5 97.1,45.2 98.1,44.4 98.9,42.1 			"/>
			<polygon class="st39" points="102,47.2 98.6,47.4 101,49.5 102.1,49.6 			"/>
			<polygon class="st39" points="96.5,49.9 98.2,53.6 95.9,54.4 95.5,52.5 			"/>
			<polygon class="st39" points="91.3,43 92.9,42.5 92.4,41.4 			"/>
			<path class="st40" d="M93.2,38.8l-6.7,7.8L86.3,47l10,0.4L93.2,38.8z M92.4,41.4l2.3,4.7l-5.8,0.1L92.4,41.4z"/>
			<path class="st40" d="M93.2,38.8l3.1,8.5l7.4-4.5L93.2,38.8z M95.3,40.7l5.2,1.9l-3.4,2.5L95.3,40.7z"/>
			<path class="st40" d="M96.3,47.3l6.7,6l0.6-10.4L96.3,47.3z M98.6,47.4l3.5-2.3l0,5.4L98.6,47.4z"/>
			<path class="st40" d="M96.3,47.3L92,56.4l11.1-3.1L96.3,47.3z M96.5,49.7l4.1,3.1l-5.8,1.9L96.5,49.7z"/>
			<polygon class="st39" points="90.4,50.3 93.7,48.4 95,48.4 93.7,51 91.7,52.3 			"/>
			<path class="st40" d="M86.3,47l5.6,9.5l4.3-9.1L86.3,47z M89.2,48.4l5.8,0l-2.5,5.1L89.2,48.4z"/>
			<polygon class="st41" points="88.3,42.4 86.3,47 93.2,38.8 			"/>
			<polygon class="st41" points="93.2,38.8 103.7,42.9 98.8,39.9 			"/>
			<polygon class="st41" points="103.7,42.9 103,53.3 104.6,47.6 			"/>
			<polygon class="st40" points="103,53.3 98,56.8 92,56.4 			"/>
			<polygon class="st40" points="86.3,47 87.6,53 92,56.4 			"/>
		</g>
		<g>
			<path class="st35" d="M109,43.2l-4.4,2.5l0,0.3c0.1,1.6-0.6-1.1-1-2.4l0.8,4l-1.5,5.5l-4.9,3.4l-5.8-0.3l-4.2-3.4l-1.2-5.8
				l0.1-0.3l0.1-0.1l1.7-4l4.7-3.5l5.5,1.1l4.6,2.8c0,0,0,0,0,0l2.3-1.1l-11.5-5.8L67.5,49.3l26.8,13.2l26.6-13.3l0-0.1L109,43.2z"
				/>
			<path class="st35" d="M103.6,43.1L103.6,43.1c0,0,0,0.3,0.1,0.6L103.6,43.1z"/>
		</g>
		<path class="st35" d="M108.2,16.8l3.9-0.1l4.9,2.5l2.2,5.6l-1.5,5.8l-4,3.7l-3.3,0.4c0,0-0.3-0.7-1.6-1s-1.7-0.1-1.7-0.1l-2.8-1.8
			l-2.3-5.4l0.8-7l4.8-2.6c0,0,0,0,0,0L108.2,16.8z"/>
		<g>
			<ellipse class="st37" cx="75.3" cy="50" rx="1.8" ry="0.8"/>
			<path class="st38" d="M73.6,50c0,0,1.6-3.1,3.5,0c0,0-0.9,0.4-1.9,0.4C74.1,50.4,73.6,50,73.6,50z"/>
		</g>
		<g>
			<ellipse class="st37" cx="94.5" cy="38.3" rx="1.8" ry="0.8"/>
			<path class="st38" d="M92.7,38.3c0,0,1.6-3.1,3.5,0c0,0-0.9,0.4-1.9,0.4C93.2,38.7,92.7,38.3,92.7,38.3z"/>
		</g>
		<g>
			<ellipse class="st37" cx="94.7" cy="59.3" rx="1.8" ry="0.8"/>
			<path class="st38" d="M92.9,59.3c0,0,1.6-3.1,3.5,0c0,0-0.9,0.4-1.9,0.4S92.9,59.3,92.9,59.3z"/>
		</g>
		<g>
			<ellipse class="st37" cx="110.6" cy="49.9" rx="1.8" ry="0.8"/>
			<path class="st38" d="M108.9,49.9c0,0,1.6-3.1,3.5,0c0,0-0.9,0.4-1.9,0.4C109.4,50.4,108.9,49.9,108.9,49.9z"/>
		</g>
	</g>
	<polygon class="st37" points="103.7,26.7 109.5,25.5 108.4,32.7 	"/>
	<polygon class="st37" points="111.8,17.7 110.6,23.9 106.5,18.6 	"/>
	<polygon class="st37" points="117,22.4 111.4,24.3 113,18.2 	"/>
	<polygon class="st37" points="116.8,29.3 110.9,25.2 117,23.5 	"/>
	<polygon class="st37" points="109.8,32.6 110.3,26.1 115.7,30.1 	"/>
	<polygon class="st37" points="103.4,25 105.4,19.1 109.4,24.4 	"/>
</g>
</svg>
