<?xml version="1.0" encoding="utf-8"?>
<!-- Generator: Adobe Illustrator 25.2.3, SVG Export Plug-In . SVG Version: 6.00 Build 0)  -->
<svg version="1.1" id="Layer_1" xmlns="http://www.w3.org/2000/svg" xmlns:xlink="http://www.w3.org/1999/xlink" x="0px" y="0px"
	 viewBox="0 0 182.7 325.6" style="enable-background:new 0 0 182.7 325.6;" xml:space="preserve">
<style type="text/css">
	.st0{fill:#FFFFFF;}
	.st1{fill:#DA5B3E;stroke:#FFFFFF;stroke-width:0.2262;stroke-miterlimit:10;}
	.st2{fill:#DA5B3E;stroke:#FFFFFF;stroke-width:0.2262;stroke-miterlimit:9.9992;}
	.st3{fill:#24234C;stroke:#FFFFFF;stroke-width:0.2262;stroke-miterlimit:10;}
	.st4{fill:#24234C;stroke:#FFFFFF;stroke-width:0.2262;stroke-miterlimit:10.0004;}
	.st5{fill:none;stroke:#B79797;stroke-width:1.8302;stroke-miterlimit:10;}
	.st6{fill:#B79797;}
	.st7{fill:none;stroke:#B79797;stroke-width:0.5504;stroke-miterlimit:10;}
	.st8{fill:none;}
	.st9{fill:#706D72;}
	.st10{font-family:'MyriadPro-Regular';}
	.st11{font-size:10.7891px;}
</style>
<g>
	<g>
		
			<image style="overflow:visible;opacity:0.61;enable-background:new    ;" width="115" height="133" xlink:href="1A63E92D64B3153E.png"  transform="matrix(0.6788 0 0 0.7608 3.2254 224.0089)">
		</image>
		<g>
			<path class="st0" d="M63.1,308.9H2.9c-0.5,0-1-0.4-1-1v-65.2c0-0.5,0.4-1,1-1h60.1c0.5,0,1,0.4,1,1v65.2
				C64,308.5,63.6,308.9,63.1,308.9z"/>
		</g>
	</g>
	<g>
		
			<image style="overflow:visible;opacity:0.61;enable-background:new    ;" width="113" height="116" xlink:href="1A63E92D64B31542.png"  transform="matrix(0.87 0 0 0.8515 83.6457 225.1499)">
		</image>
		<g>
			<path class="st0" d="M162.2,308.9H102c-0.5,0-1-0.4-1-1v-65.2c0-0.5,0.4-1,1-1h60.1c0.5,0,1,0.4,1,1v65.2
				C163.1,308.5,162.7,308.9,162.2,308.9z"/>
		</g>
	</g>
	<g>
		<g>
			<g>
				<path class="st1" d="M30.7,302.6c-2.7-1.1-2.7-2.7-2.5-3.4c0.4-1.3,1.2-2.6,1.1-4c-0.1-1-0.2-2,0-3.1c0.1-0.6,0.2-1.2,0.3-1.8
					c0.1-0.5,0.2-0.9,0.2-1.4c0-0.6-0.3-1.2-0.4-1.8c-0.1-0.4-0.2-0.8-0.2-1.2c0-0.6-0.1-1.3,0-1.9c0.1-0.5,0-1.1,0.2-1.6
					c0.2-0.4,0.2-0.8,0.4-1.3c0.2-0.5,0.4-1,0.4-1.5c0-0.7-0.1-1.5-0.4-2.2c-0.2-0.3-0.2-0.7-0.1-1c0.1-0.6,0.1-1.2,0.3-1.7
					c0.3-0.7,0.4-1.3,0.4-2c0-0.3,0.1-0.7-0.2-1c-0.2-0.2-0.5-0.4-0.5-0.6c0-0.2,0.1-0.4,0.2-0.6c0.9-1.9,0.4-3.8,0-5.7
					c-0.2-0.9,0-1.8,0.2-2.7c0.1-0.5,0-1.1-0.1-1.6c0-0.7,0-1.5-0.1-2.2c-0.1-0.3-0.2-0.6-0.4-0.9c-0.1-0.2-0.1-0.4-0.1-0.5
					c0.2-0.4,0.4-0.8,0.6-1.2c0.2-0.5,0.1-1.1,0.1-1.6c0-0.3-0.1-3.3-0.1-3.7c0-0.3,0-0.6-0.1-0.9c-0.4-1-0.2-2-0.5-3l6.3,1.5
					c0.5,1.1,0.6,0.2,1.1,1.3c0.2,0.6,0.1,1.6,0.2,2.2c0,0.3-1.1,4.2-0.6,4.2c-0.3,0.6-0.5,1.3-0.5,1.9c0,0.8-0.4,1.7-0.1,2.5
					c0.2,0.7,0.2,1.6-0.1,2.3c-0.4,1-1.1,2-1.1,3.1c0,0.3,0.2,0.5,0.2,0.8c0,0.5,0.2,1.1,0.3,1.6c0.1,0.9,0.5,1.8,0.7,2.7
					c0.3,1,0.4,2,0.2,2.9c-0.1,0.5-0.2,1-0.2,1.6c0,0.5-0.2,1.1-0.3,1.6c-0.2,1-0.3,2-0.3,3c0,0.7,0.1,1.3,0.1,2
					c0,0.4-0.2,0.8-0.3,1.3c-0.1,0.5-0.2,1-0.2,1.5c0.1,1.6,1.7,3.3,1,4.9c-0.2,0.4-0.4,0.8-0.6,1.1c-0.2,0.4-0.3,0.7-0.3,1
					c0,0.6-0.2,1.2-0.4,1.8c-0.2,0.7-0.3,1.4-0.5,2.1c-0.2,0.7-0.3,1.4-0.5,2.1c-0.1,0.4-0.3,0.9-0.4,1.4c-0.1,0.4,0,0.8,0,1.2
					c0,0.7-0.1,1.5,0.1,2.2c0.1,0.7,0,0.9,0,0.9C32.2,303.9,33.3,303.7,30.7,302.6z"/>
				<path class="st1" d="M29.8,249.2c0.1,2.1,4.3,6,6.2,6.6"/>
				<path class="st1" d="M29.4,256.9c-0.2,1.5,4.4,3.2,5,4c0.7,0.8,1,1.5,1,1.5"/>
				<path class="st1" d="M29.7,263.3c-0.2,0.9,0.8,1.8,2.4,3c0.6,0.5,2.9,2.3,3.2,3.4"/>
				<path class="st1" d="M29.9,270.4c-0.6,0.9,2.3,5.1,5.4,5.5"/>
				<path class="st1" d="M30,278c0,0.5,1.3,4.2,4.6,5.2"/>
				<path class="st1" d="M29.4,287.3c0.5,1.2,3.5,4.5,5,5"/>
				<path class="st1" d="M29.2,293c-0.2,1.2,0.6,2.9,1.3,3.8s1.3,1.1,2.4,1.5"/>
			</g>
			<ellipse transform="matrix(0.3109 -0.9504 0.9504 0.3109 -212.7948 202.1403)" class="st2" cx="33" cy="247.8" rx="1.3" ry="4"/>
		</g>
		<g>
			<g>
				<path class="st3" d="M58.8,278.4l0.9-3.8c-0.7,0-1.5,0.2-2.2,0.3c-0.7,0.1-1.5,0.1-2.2,0.1c-0.4,0-0.8,0.1-1.2,0
					c-0.5-0.1-0.9-0.3-1.4-0.4c-0.7-0.2-1.4-0.3-2.1-0.5c-0.7-0.2-1.4-0.3-2.1-0.5c-0.6-0.2-1.2-0.4-1.8-0.4c-0.4,0-0.7-0.1-1-0.3
					c-0.4-0.2-0.8-0.4-1.1-0.6c-1.6-0.7-3.3,0.9-4.9,0.9c-0.5,0-1-0.1-1.5-0.2c-0.4-0.1-0.8-0.3-1.3-0.3c-0.7,0-1.3,0.1-2,0.1
					c-1,0-2-0.1-2.9-0.3c-0.5-0.1-1.1-0.3-1.6-0.3c-0.5,0-1,0-1.6-0.2c-1-0.2-2-0.1-2.9,0.1c-0.9,0.3-1.8,0.6-2.7,0.7
					c-0.5,0.1-1.1,0.2-1.6,0.3c-0.3,0-0.5,0.2-0.8,0.2c-1,0-2-0.7-3.1-1c-0.7-0.3-1.6-0.3-2.3-0.1c-0.8,0.3-1.7-0.1-2.5-0.1
					c-0.6,0-1.3-0.2-1.9-0.5c-0.2-0.1-0.5-0.3-0.7-0.4c-0.3-0.2-0.5-0.2-0.8-0.2c-0.6,0-0.7-0.4-2.5,1.3c-1.8,1.7-2.4,5.9-2.4,5.9
					c1-0.3,1.9-0.1,2.9-0.4c0.3-0.1,0.6-0.1,0.9-0.1c0.3,0,0.6-0.1,0.9-0.1c0.5,0,1.1-0.1,1.6,0.1c0.4,0.1,0.8,0.4,1.2,0.6
					c0.2,0.1,0.4,0,0.5-0.1c0.3-0.2,0.6-0.3,0.9-0.4c0.7-0.1,1.5-0.1,2.2-0.1c0.5,0,1.1-0.2,1.6-0.1c0.9,0.1,1.8,0.4,2.7,0.2
					c1.9-0.4,3.8-0.9,5.7,0c0.2,0.1,0.4,0.2,0.6,0.2c0.2-0.1,0.4-0.3,0.6-0.5c0.3-0.3,0.6-0.2,1-0.2c0.7,0,1.4,0.1,2,0.3
					c0.6,0.2,1.2,0.2,1.7,0.3c0.3,0.1,0.7,0.1,1-0.1c0.7-0.3,1.5-0.4,2.2-0.4c0.5,0,1,0.2,1.5,0.4c0.4,0.2,0.8,0.3,1.3,0.4
					c0.5,0.2,1.1,0.1,1.6,0.2c0.6,0.1,1.3,0,1.9,0c0.4,0,0.8-0.1,1.2-0.2c0.6-0.1,1.2-0.4,1.8-0.4c0.5,0,0.9,0.1,1.4,0.2
					c0.6,0.1,1.2,0.2,1.8,0.3c1,0.2,2,0.1,3.1,0c1.4-0.2,2.7,0.6,4,1c0.7,0.2,1.4,0.3,2.1-0.1c0.4-0.2,0.9-0.4,1.3-0.6
					C58.2,278.7,58.5,278.7,58.8,278.4C58.8,278.4,58.8,278.4,58.8,278.4"/>
				<path class="st3" d="M6.4,278.3c0.8-0.1,2-2.1,2.8-3.6c0.3-0.5,0.6-0.9,0.9-1.3c0.2-0.4,1.2-1.5,1.2-1.5"/>
				<path class="st3" d="M11.7,278.1c1.4,0.2,2.5-3.3,3.9-5c0.2-0.2,0.3-0.4,0.5-0.5c0.1-0.1,0.7-0.4,0.7-0.4"/>
				<path class="st3" d="M17.9,277.8c0.8,0.2,1.9-0.6,3.1-2.2c0.5-0.6,1.4-2.4,2.3-2.6"/>
				<path class="st3" d="M24.5,277.5c0.5,0,1.1,0,1.6,0.1c0.2,0.1,0.3,0.1,0.6-0.1c0.2-0.2,0.5-0.4,0.7-0.6c0.4-0.3,0.7-0.8,1-1.2
					c0.5-0.6,1-1,1.5-1.6c0.3-0.3,1.2-1.1,1.4-1.5"/>
				<path class="st3" d="M33.9,277.7c0.5-0.2,3.4-2.8,3.8-3.2c0.3-0.4,0.5-0.9,0.8-1.2"/>
				<path class="st3" d="M42.5,278.3c1.2-0.9,1.3-2,2.4-3.2c0.4-0.4,1.6-1.9,2.4-1.9"/>
				<path class="st3" d="M48.6,278.5c1.2,0.2,2.4-1.6,3.2-2.6c0.3-0.4,1.8-1,1.8-1"/>
				<path class="st3" d="M54.2,279.4c1,0.3,1.8-1,3-2.3c0.2-0.2,0.8-1.2,1-1.5c0.1-0.2,0.9-0.8,1-0.9"/>
			</g>
			<ellipse transform="matrix(0.51 -0.8602 0.8602 0.51 -209.6034 186.1363)" class="st4" cx="58.6" cy="277" rx="2.8" ry="1.2"/>
		</g>
	</g>
	<g>
		<g>
			<g>
				<path class="st3" d="M158.4,279.2l0.9-3.8c-0.7,0-1.5,0.2-2.2,0.3c-0.7,0.1-1.5,0.1-2.2,0.1c-0.4,0-0.8,0.1-1.2,0
					c-0.5-0.1-0.9-0.3-1.4-0.4c-0.7-0.2-1.4-0.3-2.1-0.5c-0.7-0.2-1.4-0.3-2.1-0.5c-0.6-0.2-1.2-0.4-1.8-0.4c-0.4,0-0.7-0.1-1-0.3
					c-0.4-0.2-0.8-0.4-1.1-0.6c-1.6-0.7-3.3,0.9-4.9,0.9c-0.5,0-1-0.1-1.5-0.2c-0.4-0.1-0.8-0.3-1.3-0.3c-0.7,0-1.3,0.1-2,0.1
					c-1,0-2-0.1-2.9-0.3c-0.5-0.1-1.1-0.3-1.6-0.3c-0.5,0-1,0-1.6-0.2c-1-0.2-2-0.1-2.9,0.1c-0.9,0.3-1.8,0.6-2.7,0.7
					c-0.5,0.1-1.1,0.2-1.6,0.3c-0.3,0-0.5,0.2-0.8,0.2c-1,0-2-0.7-3.1-1c-0.7-0.3-1.6-0.3-2.3-0.1c-0.8,0.3-1.7-0.1-2.5-0.1
					c-0.6,0-1.3-0.2-1.9-0.5c-0.2-0.1-0.5-0.3-0.7-0.4c-0.3-0.2-0.5-0.2-0.8-0.2c-0.6,0-0.7-0.4-2.5,1.3c-1.8,1.7-2.4,5.9-2.4,5.9
					c1-0.3,1.9-0.1,2.9-0.4c0.3-0.1,0.6-0.1,0.9-0.1c0.3,0,0.6-0.1,0.9-0.1c0.5,0,1.1-0.1,1.6,0.1c0.4,0.1,0.8,0.4,1.2,0.6
					c0.2,0.1,0.4,0,0.5-0.1c0.3-0.2,0.6-0.3,0.9-0.4c0.7-0.1,1.5-0.1,2.2-0.1c0.5,0,1.1-0.2,1.6-0.1c0.9,0.1,1.8,0.4,2.7,0.2
					c1.9-0.4,3.8-0.9,5.7,0c0.2,0.1,0.4,0.2,0.6,0.2c0.2-0.1,0.4-0.3,0.6-0.5c0.3-0.3,0.6-0.2,1-0.2c0.7,0,1.4,0.1,2,0.3
					c0.6,0.2,1.2,0.2,1.7,0.3c0.3,0.1,0.7,0.1,1-0.1c0.7-0.3,1.5-0.4,2.2-0.4c0.5,0,1,0.2,1.5,0.4c0.4,0.2,0.8,0.3,1.3,0.4
					c0.5,0.2,1.1,0.1,1.6,0.2c0.6,0.1,1.3,0,1.9,0c0.4,0,0.8-0.1,1.2-0.2c0.6-0.1,1.2-0.4,1.8-0.4c0.5,0,0.9,0.1,1.4,0.2
					c0.6,0.1,1.2,0.2,1.8,0.3c1,0.2,2,0.1,3.1,0c1.4-0.2,2.7,0.6,4,1c0.7,0.2,1.4,0.3,2.1-0.1c0.4-0.2,0.9-0.4,1.3-0.6
					C157.8,279.5,158.2,279.5,158.4,279.2C158.4,279.2,158.4,279.2,158.4,279.2"/>
				<path class="st3" d="M106,279.1c0.8-0.1,2-2.1,2.8-3.6c0.3-0.5,0.6-0.9,0.9-1.3c0.2-0.4,1.2-1.5,1.2-1.5"/>
				<path class="st3" d="M111.3,278.9c1.4,0.2,2.5-3.3,3.9-5c0.2-0.2,0.3-0.4,0.5-0.5c0.1-0.1,0.7-0.4,0.7-0.4"/>
				<path class="st3" d="M117.6,278.6c0.8,0.2,1.9-0.6,3.1-2.2c0.5-0.6,1.4-2.4,2.3-2.6"/>
				<path class="st3" d="M124.1,278.4c0.5,0,1.1,0,1.6,0.1c0.2,0.1,0.3,0.1,0.6-0.1c0.2-0.2,0.5-0.4,0.7-0.6c0.4-0.3,0.7-0.8,1-1.2
					c0.5-0.6,1-1,1.5-1.6c0.3-0.3,1.2-1.1,1.4-1.5"/>
				<path class="st3" d="M133.5,278.5c0.5-0.2,3.4-2.8,3.8-3.2c0.3-0.4,0.5-0.9,0.8-1.2"/>
				<path class="st3" d="M142.1,279.1c1.2-0.9,1.3-2,2.4-3.2c0.4-0.4,1.6-1.9,2.4-1.9"/>
				<path class="st3" d="M148.2,279.4c1.2,0.2,2.4-1.6,3.2-2.6c0.3-0.4,1.8-1,1.8-1"/>
				<path class="st3" d="M153.8,280.2c1,0.3,1.8-1,3-2.3c0.2-0.2,0.8-1.2,1-1.5c0.1-0.2,0.9-0.8,1-0.9"/>
			</g>
			
				<ellipse transform="matrix(0.51 -0.8602 0.8602 0.51 -161.4858 272.2421)" class="st4" cx="158.2" cy="277.9" rx="2.8" ry="1.2"/>
		</g>
		<g>
			<g>
				<path class="st1" d="M130.3,303.4c-2.7-1.1-2.7-2.7-2.5-3.4c0.4-1.3,1.2-2.6,1.1-4c-0.1-1-0.2-2,0-3.1c0.1-0.6,0.2-1.2,0.3-1.8
					c0.1-0.5,0.2-0.9,0.2-1.4c0-0.6-0.3-1.2-0.4-1.8c-0.1-0.4-0.2-0.8-0.2-1.2c0-0.6-0.1-1.3,0-1.9c0.1-0.5,0-1.1,0.2-1.6
					c0.2-0.4,0.2-0.8,0.4-1.3c0.2-0.5,0.4-1,0.4-1.5c0-0.7-0.1-1.5-0.4-2.2c-0.2-0.3-0.2-0.7-0.1-1c0.1-0.6,0.1-1.2,0.3-1.7
					c0.3-0.7,0.4-1.3,0.4-2c0-0.3,0.1-0.7-0.2-1c-0.2-0.2-0.5-0.4-0.5-0.6c0-0.2,0.1-0.4,0.2-0.6c0.9-1.9,0.4-3.8,0-5.7
					c-0.2-0.9,0-1.8,0.2-2.7c0.1-0.5,0-1.1-0.1-1.6c0-0.7,0-1.5-0.1-2.2c-0.1-0.3-0.2-0.6-0.4-0.9c-0.1-0.2-0.1-0.4-0.1-0.5
					c0.2-0.4,0.4-0.8,0.6-1.2c0.2-0.5,0.1-1.1,0.1-1.6c0-0.3-0.1-3.3-0.1-3.7c0-0.3,0-0.6-0.1-0.9c-0.4-1-0.2-2-0.5-3l6.3,1.5
					c0.5,1.1,0.6,0.2,1.1,1.3c0.2,0.6,0.1,1.6,0.2,2.2c0,0.3-1.1,4.2-0.6,4.2c-0.3,0.6-0.5,1.3-0.5,1.9c0,0.8-0.4,1.7-0.1,2.5
					c0.2,0.7,0.2,1.6-0.1,2.3c-0.4,1-1.1,2-1.1,3.1c0,0.3,0.2,0.5,0.2,0.8c0,0.5,0.2,1.1,0.3,1.6c0.1,0.9,0.5,1.8,0.7,2.7
					c0.3,1,0.4,2,0.2,2.9c-0.1,0.5-0.2,1-0.2,1.6c0,0.5-0.2,1.1-0.3,1.6c-0.2,1-0.3,2-0.3,3c0,0.7,0.1,1.3,0.1,2
					c0,0.4-0.2,0.8-0.3,1.3c-0.1,0.5-0.2,1-0.2,1.5c0.1,1.6,1.7,3.3,1,4.9c-0.2,0.4-0.4,0.8-0.6,1.1c-0.2,0.4-0.3,0.7-0.3,1
					c0,0.6-0.2,1.2-0.4,1.8c-0.2,0.7-0.3,1.4-0.5,2.1c-0.2,0.7-0.3,1.4-0.5,2.1c-0.1,0.4-0.3,0.9-0.4,1.4c-0.1,0.4,0,0.8,0,1.2
					c0,0.7-0.1,1.5,0.1,2.2c0.1,0.7,0,0.9,0,0.9C131.9,304.7,133,304.6,130.3,303.4z"/>
				<path class="st1" d="M129.4,250c0.1,2.1,4.3,6,6.2,6.6"/>
				<path class="st1" d="M129,257.7c-0.2,1.5,4.4,3.2,5,4c0.7,0.8,1,1.5,1,1.5"/>
				<path class="st1" d="M129.4,264.1c-0.2,0.9,0.8,1.8,2.4,3c0.6,0.5,2.9,2.3,3.2,3.4"/>
				<path class="st1" d="M129.5,271.2c-0.6,0.9,2.3,5.1,5.4,5.5"/>
				<path class="st1" d="M129.7,278.8c0,0.5,1.3,4.2,4.6,5.2"/>
				<path class="st1" d="M129,288.1c0.5,1.2,3.5,4.5,5,5"/>
				<path class="st1" d="M128.9,293.8c-0.2,1.2,0.6,2.9,1.3,3.8s1.3,1.1,2.4,1.5"/>
			</g>
			
				<ellipse transform="matrix(0.3109 -0.9504 0.9504 0.3109 -144.9222 297.4004)" class="st2" cx="132.6" cy="248.6" rx="1.3" ry="4"/>
		</g>
	</g>
	<g>
		<g>
			<line class="st5" x1="33.4" y1="176.6" x2="33.4" y2="238.1"/>
			<g>
				<path class="st6" d="M33.4,168.3c-1.4,3.9-3.9,8.7-6.5,11.7l6.5-2.4l6.5,2.4C37.3,177.1,34.9,172.2,33.4,168.3z"/>
			</g>
		</g>
	</g>
	<g>
		<g>
			<line class="st5" x1="130.3" y1="177.1" x2="130.3" y2="238.6"/>
			<g>
				<path class="st6" d="M130.3,168.8c-1.4,3.9-3.9,8.7-6.5,11.7l6.5-2.4l6.5,2.4C134.2,177.6,131.7,172.7,130.3,168.8z"/>
			</g>
		</g>
	</g>
	<g>
		<rect x="15.9" y="3.1" class="st6" width="32.7" height="32.7"/>
		<rect x="48.7" y="35.8" class="st6" width="32.8" height="32.7"/>
		<rect x="81.5" y="3.1" class="st6" width="32.7" height="32.7"/>
		<rect x="16.1" y="68.5" class="st6" width="32.7" height="32.7"/>
		<rect x="114.2" y="35.8" class="st6" width="32.7" height="32.7"/>
		<rect x="146.9" y="68.5" class="st6" width="32.6" height="32.7"/>
		<rect x="147" y="3.1" class="st6" width="32.4" height="32.7"/>
		<rect x="16" y="68.6" class="st6" width="32.7" height="32.7"/>
		<rect x="48.8" y="101.2" class="st6" width="32.7" height="32.7"/>
		<rect x="81.5" y="134" class="st6" width="32.7" height="32.7"/>
		<rect x="81.5" y="68.5" class="st6" width="32.7" height="32.7"/>
		<rect x="16.1" y="133.9" class="st6" width="32.7" height="32.7"/>
		<rect x="114.2" y="101.3" class="st6" width="32.7" height="32.7"/>
		<rect x="147" y="134" class="st6" width="32.5" height="32.7"/>
		<rect x="146.9" y="68.5" class="st6" width="32.6" height="32.7"/>
		<rect x="16" y="3.1" class="st7" width="163.5" height="163.6"/>
	</g>
	<rect x="4.2" y="315.2" class="st8" width="79.5" height="9.3"/>
	<text transform="matrix(1 0 0 1 4.1923 322.8311)" class="st9 st10 st11">Schussfaden</text>
	<rect x="103.7" y="314.3" class="st8" width="77.9" height="10.6"/>
	<text transform="matrix(1 0 0 1 103.747 321.9347)" class="st9 st10 st11">Kettfaden</text>
</g>
</svg>
