<?xml version="1.0" encoding="utf-8"?>
<!-- Generator: Adobe Illustrator 25.2.3, SVG Export Plug-In . SVG Version: 6.00 Build 0)  -->
<svg version="1.1" id="Layer_1" xmlns="http://www.w3.org/2000/svg" xmlns:xlink="http://www.w3.org/1999/xlink" x="0px" y="0px"
	 viewBox="0 0 167.2 284.4" style="enable-background:new 0 0 167.2 284.4;" xml:space="preserve">
<style type="text/css">
	.st0{fill:#DA5B3E;stroke:#FFFFFF;stroke-width:0.2105;stroke-miterlimit:10;}
	.st1{fill:#DA5B3E;stroke:#FFFFFF;stroke-width:0.2105;stroke-miterlimit:9.9988;}
	.st2{fill:#24234C;stroke:#FFFFFF;stroke-width:0.2105;stroke-miterlimit:10;}
	.st3{fill:#24234C;stroke:#FFFFFF;stroke-width:0.2105;stroke-miterlimit:10.0006;}
	.st4{fill:none;stroke:#B79797;stroke-width:1.7029;stroke-miterlimit:10;}
	.st5{fill:#B79797;}
	.st6{fill:none;stroke:#B79797;stroke-width:0.5121;stroke-miterlimit:10;}
</style>
<g>
	<g>
		<g>
			<g>
				<path class="st0" d="M25.6,282.4c-2.5-1-2.5-2.5-2.3-3.2c0.4-1.2,1.1-2.4,1-3.7c-0.1-0.9-0.2-1.9,0-2.9c0.1-0.6,0.2-1.1,0.3-1.7
					c0.1-0.5,0.2-0.8,0.2-1.3c0-0.6-0.3-1.1-0.4-1.7c-0.1-0.4-0.2-0.7-0.2-1.1c0-0.6-0.1-1.2,0-1.8c0.1-0.5,0-1,0.2-1.5
					c0.2-0.4,0.2-0.7,0.4-1.2c0.2-0.5,0.4-0.9,0.4-1.4c0-0.7-0.1-1.4-0.4-2c-0.2-0.3-0.2-0.7-0.1-0.9c0.1-0.6,0.1-1.1,0.3-1.6
					c0.3-0.7,0.4-1.2,0.4-1.9c0-0.3,0.1-0.7-0.2-0.9c-0.2-0.2-0.5-0.4-0.5-0.6s0.1-0.4,0.2-0.6c0.8-1.8,0.4-3.5,0-5.3
					c-0.2-0.8,0-1.7,0.2-2.5c0.1-0.5,0-1-0.1-1.5c0-0.7,0-1.4-0.1-2c-0.1-0.3-0.2-0.6-0.4-0.8c-0.1-0.2-0.1-0.4-0.1-0.5
					c0.2-0.4,0.4-0.7,0.6-1.1c0.2-0.5,0.1-1,0.1-1.5c0-0.3-0.1-3.1-0.1-3.4c0-0.3,0-0.6-0.1-0.8c-0.4-0.9-0.2-1.9-0.5-2.8l5.9,1.4
					c0.5,1,0.6,0.2,1,1.2c0.2,0.6,0.1,1.5,0.2,2c0,0.3-1,3.9-0.6,3.9c-0.3,0.6-0.5,1.2-0.5,1.8c0,0.7-0.4,1.6-0.1,2.3
					c0.2,0.7,0.2,1.5-0.1,2.1c-0.4,0.9-1,1.9-1,2.9c0,0.3,0.2,0.5,0.2,0.7c0,0.5,0.2,1,0.3,1.5c0.1,0.8,0.5,1.7,0.7,2.5
					c0.3,0.9,0.4,1.9,0.2,2.7c-0.1,0.5-0.2,0.9-0.2,1.5c0,0.5-0.2,1-0.3,1.5c-0.2,0.9-0.3,1.9-0.3,2.8c0,0.7,0.1,1.2,0.1,1.9
					c0,0.4-0.2,0.7-0.3,1.2c-0.1,0.5-0.2,0.9-0.2,1.4c0.1,1.5,1.6,3.1,0.9,4.6c-0.2,0.4-0.4,0.7-0.6,1c-0.2,0.4-0.3,0.7-0.3,0.9
					c0,0.6-0.2,1.1-0.4,1.7c-0.2,0.7-0.3,1.3-0.5,2c-0.2,0.7-0.3,1.3-0.5,2c-0.1,0.4-0.3,0.8-0.4,1.3c-0.1,0.4,0,0.7,0,1.1
					c0,0.7-0.1,1.4,0.1,2c0.1,0.7,0,0.8,0,0.8C27,283.6,28.1,283.4,25.6,282.4z"/>
				<path class="st0" d="M24.8,232.7c0.1,2,4,5.6,5.8,6.1"/>
				<path class="st0" d="M24.4,239.9c-0.2,1.4,4.1,3,4.7,3.7c0.7,0.7,0.9,1.4,0.9,1.4"/>
				<path class="st0" d="M24.7,245.8c-0.2,0.8,0.7,1.7,2.2,2.8c0.6,0.5,2.7,2.1,3,3.2"/>
				<path class="st0" d="M24.9,252.4c-0.6,0.8,2.1,4.7,5,5.1"/>
				<path class="st0" d="M25,259.5c0,0.5,1.2,3.9,4.3,4.8"/>
				<path class="st0" d="M24.4,268.1c0.5,1.1,3.3,4.2,4.7,4.7"/>
				<path class="st0" d="M24.2,273.4c-0.2,1.1,0.6,2.7,1.2,3.5s1.2,1,2.2,1.4"/>
			</g>
			
				<ellipse transform="matrix(0.3109 -0.9504 0.9504 0.3109 -200.8054 185.8398)" class="st1" cx="27.8" cy="231.4" rx="1.2" ry="3.7"/>
		</g>
		<g>
			<g>
				<path class="st2" d="M51.8,259.9l0.8-3.5c-0.7,0-1.4,0.2-2,0.3c-0.7,0.1-1.4,0.1-2,0.1c-0.4,0-0.7,0.1-1.1,0
					c-0.5-0.1-0.8-0.3-1.3-0.4c-0.7-0.2-1.3-0.3-2-0.5c-0.7-0.2-1.3-0.3-2-0.5c-0.6-0.2-1.1-0.4-1.7-0.4c-0.4,0-0.7-0.1-0.9-0.3
					c-0.4-0.2-0.7-0.4-1-0.6c-1.5-0.7-3.1,0.8-4.6,0.8c-0.5,0-0.9-0.1-1.4-0.2c-0.4-0.1-0.7-0.3-1.2-0.3c-0.7,0-1.2,0.1-1.9,0.1
					c-0.9,0-1.9-0.1-2.7-0.3c-0.5-0.1-1-0.3-1.5-0.3s-0.9,0-1.5-0.2c-0.9-0.2-1.9-0.1-2.7,0.1c-0.8,0.3-1.7,0.6-2.5,0.7
					c-0.5,0.1-1,0.2-1.5,0.3c-0.3,0-0.5,0.2-0.7,0.2c-0.9,0-1.9-0.7-2.9-0.9c-0.7-0.3-1.5-0.3-2.1-0.1c-0.7,0.3-1.6-0.1-2.3-0.1
					c-0.6,0-1.2-0.2-1.8-0.5c-0.2-0.1-0.5-0.3-0.7-0.4C6.4,253,6.2,253,5.9,253c-0.6,0-0.7-0.4-2.3,1.2c-1.7,1.6-2.2,5.5-2.2,5.5
					c0.9-0.3,1.8-0.1,2.7-0.4c0.3-0.1,0.6-0.1,0.8-0.1c0.3,0,0.6-0.1,0.8-0.1c0.5,0,1-0.1,1.5,0.1c0.4,0.1,0.7,0.4,1.1,0.6
					c0.2,0.1,0.4,0,0.5-0.1c0.3-0.2,0.6-0.3,0.8-0.4c0.7-0.1,1.4-0.1,2-0.1c0.5,0,1-0.2,1.5-0.1c0.8,0.1,1.7,0.4,2.5,0.2
					c1.8-0.4,3.5-0.8,5.3,0c0.2,0.1,0.4,0.2,0.6,0.2c0.2-0.1,0.4-0.3,0.6-0.5c0.3-0.3,0.6-0.2,0.9-0.2c0.7,0,1.3,0.1,1.9,0.3
					c0.6,0.2,1.1,0.2,1.6,0.3c0.3,0.1,0.7,0.1,0.9-0.1c0.7-0.3,1.4-0.4,2-0.4c0.5,0,0.9,0.2,1.4,0.4c0.4,0.2,0.7,0.3,1.2,0.4
					c0.5,0.2,1,0.1,1.5,0.2c0.6,0.1,1.2,0,1.8,0c0.4,0,0.7-0.1,1.1-0.2c0.6-0.1,1.1-0.4,1.7-0.4c0.5,0,0.8,0.1,1.3,0.2
					c0.6,0.1,1.1,0.2,1.7,0.3c0.9,0.2,1.9,0.1,2.9,0c1.3-0.2,2.5,0.6,3.7,0.9c0.7,0.2,1.3,0.3,2-0.1c0.4-0.2,0.8-0.4,1.2-0.6
					C51.2,260.1,51.5,260.1,51.8,259.9L51.8,259.9"/>
				<path class="st2" d="M3,259.8c0.7-0.1,1.9-2,2.6-3.3c0.3-0.5,0.6-0.8,0.8-1.2c0.2-0.4,1.1-1.4,1.1-1.4"/>
				<path class="st2" d="M8,259.6c1.3,0.2,2.3-3.1,3.6-4.7c0.2-0.2,0.3-0.4,0.5-0.5c0.1-0.1,0.7-0.4,0.7-0.4"/>
				<path class="st2" d="M13.7,259.3c0.7,0.2,1.8-0.6,2.9-2c0.5-0.6,1.3-2.2,2.1-2.4"/>
				<path class="st2" d="M19.9,259c0.5,0,1,0,1.5,0.1c0.2,0.1,0.3,0.1,0.6-0.1c0.2-0.2,0.5-0.4,0.7-0.6c0.4-0.3,0.7-0.7,0.9-1.1
					c0.5-0.6,0.9-0.9,1.4-1.5c0.3-0.3,1.1-1,1.3-1.4"/>
				<path class="st2" d="M28.6,259.2c0.5-0.2,3.2-2.6,3.5-3c0.3-0.4,0.5-0.8,0.7-1.1"/>
				<path class="st2" d="M36.6,259.8c1.1-0.8,1.2-1.9,2.2-3c0.4-0.4,1.5-1.8,2.2-1.8"/>
				<path class="st2" d="M42.3,260c1.1,0.2,2.2-1.5,3-2.4c0.3-0.4,1.7-0.9,1.7-0.9"/>
				<path class="st2" d="M47.5,260.8c0.9,0.3,1.7-0.9,2.8-2.1c0.2-0.2,0.7-1.1,0.9-1.4c0.1-0.2,0.8-0.7,0.9-0.8"/>
			</g>
			<ellipse transform="matrix(0.51 -0.8602 0.8602 0.51 -197.1358 171.0477)" class="st3" cx="51.6" cy="258.6" rx="2.6" ry="1.1"/>
		</g>
	</g>
	<g>
		<g>
			<g>
				<path class="st2" d="M144.5,260.6l0.8-3.5c-0.7,0-1.4,0.2-2,0.3c-0.7,0.1-1.4,0.1-2,0.1c-0.4,0-0.7,0.1-1.1,0
					c-0.5-0.1-0.8-0.3-1.3-0.4c-0.7-0.2-1.3-0.3-2-0.5s-1.3-0.3-2-0.5c-0.6-0.2-1.1-0.4-1.7-0.4c-0.4,0-0.7-0.1-0.9-0.3
					c-0.4-0.2-0.7-0.4-1-0.6c-1.5-0.7-3.1,0.8-4.6,0.8c-0.5,0-0.9-0.1-1.4-0.2c-0.4-0.1-0.7-0.3-1.2-0.3c-0.7,0-1.2,0.1-1.9,0.1
					c-0.9,0-1.9-0.1-2.7-0.3c-0.5-0.1-1-0.3-1.5-0.3c-0.5,0-0.9,0-1.5-0.2c-0.9-0.2-1.9-0.1-2.7,0.1c-0.8,0.3-1.7,0.6-2.5,0.7
					c-0.5,0.1-1,0.2-1.5,0.3c-0.3,0-0.5,0.2-0.7,0.2c-0.9,0-1.9-0.7-2.9-0.9c-0.7-0.3-1.5-0.3-2.1-0.1c-0.7,0.3-1.6-0.1-2.3-0.1
					c-0.6,0-1.2-0.2-1.8-0.5c-0.2-0.1-0.5-0.3-0.7-0.4c-0.3-0.2-0.5-0.2-0.7-0.2c-0.6,0-0.7-0.4-2.3,1.2c-1.7,1.6-2.2,5.5-2.2,5.5
					c0.9-0.3,1.8-0.1,2.7-0.4c0.3-0.1,0.6-0.1,0.8-0.1c0.3,0,0.6-0.1,0.8-0.1c0.5,0,1-0.1,1.5,0.1c0.4,0.1,0.7,0.4,1.1,0.6
					c0.2,0.1,0.4,0,0.5-0.1c0.3-0.2,0.6-0.3,0.8-0.4c0.7-0.1,1.4-0.1,2-0.1c0.5,0,1-0.2,1.5-0.1c0.8,0.1,1.7,0.4,2.5,0.2
					c1.8-0.4,3.5-0.8,5.3,0c0.2,0.1,0.4,0.2,0.6,0.2c0.2-0.1,0.4-0.3,0.6-0.5c0.3-0.3,0.6-0.2,0.9-0.2c0.7,0,1.3,0.1,1.9,0.3
					c0.6,0.2,1.1,0.2,1.6,0.3c0.3,0.1,0.7,0.1,0.9-0.1c0.7-0.3,1.4-0.4,2-0.4c0.5,0,0.9,0.2,1.4,0.4c0.4,0.2,0.7,0.3,1.2,0.4
					c0.5,0.2,1,0.1,1.5,0.2c0.6,0.1,1.2,0,1.8,0c0.4,0,0.7-0.1,1.1-0.2c0.6-0.1,1.1-0.4,1.7-0.4c0.5,0,0.8,0.1,1.3,0.2
					c0.6,0.1,1.1,0.2,1.7,0.3c0.9,0.2,1.9,0.1,2.9,0c1.3-0.2,2.5,0.6,3.7,0.9c0.7,0.2,1.3,0.3,2-0.1c0.4-0.2,0.8-0.4,1.2-0.6
					C143.9,260.9,144.3,260.9,144.5,260.6L144.5,260.6"/>
				<path class="st2" d="M95.7,260.5c0.7-0.1,1.9-2,2.6-3.3c0.3-0.5,0.6-0.8,0.8-1.2c0.2-0.4,1.1-1.4,1.1-1.4"/>
				<path class="st2" d="M100.6,260.3c1.3,0.2,2.3-3.1,3.6-4.7c0.2-0.2,0.3-0.4,0.5-0.5c0.1-0.1,0.7-0.4,0.7-0.4"/>
				<path class="st2" d="M106.5,260c0.7,0.2,1.8-0.6,2.9-2c0.5-0.6,1.3-2.2,2.1-2.4"/>
				<path class="st2" d="M112.5,259.9c0.5,0,1,0,1.5,0.1c0.2,0.1,0.3,0.1,0.6-0.1c0.2-0.2,0.5-0.4,0.7-0.6c0.4-0.3,0.7-0.7,0.9-1.1
					c0.5-0.6,0.9-0.9,1.4-1.5c0.3-0.3,1.1-1,1.3-1.4"/>
				<path class="st2" d="M121.3,260c0.5-0.2,3.2-2.6,3.5-3c0.3-0.4,0.5-0.8,0.7-1.1"/>
				<path class="st2" d="M129.3,260.5c1.1-0.8,1.2-1.9,2.2-3c0.4-0.4,1.5-1.8,2.2-1.8"/>
				<path class="st2" d="M135,260.8c1.1,0.2,2.2-1.5,3-2.4c0.3-0.4,1.7-0.9,1.7-0.9"/>
				<path class="st2" d="M140.2,261.5c0.9,0.3,1.7-0.9,2.8-2.1c0.2-0.2,0.7-1.1,0.9-1.4c0.1-0.2,0.8-0.7,0.9-0.8"/>
			</g>
			<ellipse transform="matrix(0.51 -0.8602 0.8602 0.51 -152.397 251.2377)" class="st3" cx="144.3" cy="259.4" rx="2.6" ry="1.1"/>
		</g>
		<g>
			<g>
				<path class="st0" d="M118.3,283.1c-2.5-1-2.5-2.5-2.3-3.2c0.4-1.2,1.1-2.4,1-3.7c-0.1-0.9-0.2-1.9,0-2.9
					c0.1-0.6,0.2-1.1,0.3-1.7c0.1-0.5,0.2-0.8,0.2-1.3c0-0.6-0.3-1.1-0.4-1.7c-0.1-0.4-0.2-0.7-0.2-1.1c0-0.6-0.1-1.2,0-1.8
					c0.1-0.5,0-1,0.2-1.5c0.2-0.4,0.2-0.7,0.4-1.2c0.2-0.5,0.4-0.9,0.4-1.4c0-0.7-0.1-1.4-0.4-2c-0.2-0.3-0.2-0.7-0.1-0.9
					c0.1-0.6,0.1-1.1,0.3-1.6c0.3-0.7,0.4-1.2,0.4-1.9c0-0.3,0.1-0.7-0.2-0.9c-0.2-0.2-0.5-0.4-0.5-0.6s0.1-0.4,0.2-0.6
					c0.8-1.8,0.4-3.5,0-5.3c-0.2-0.8,0-1.7,0.2-2.5c0.1-0.5,0-1-0.1-1.5c0-0.7,0-1.4-0.1-2c-0.1-0.3-0.2-0.6-0.4-0.8
					c-0.1-0.2-0.1-0.4-0.1-0.5c0.2-0.4,0.4-0.7,0.6-1.1c0.2-0.5,0.1-1,0.1-1.5c0-0.3-0.1-3.1-0.1-3.4c0-0.3,0-0.6-0.1-0.8
					c-0.4-0.9-0.2-1.9-0.5-2.8l5.9,1.4c0.5,1,0.6,0.2,1,1.2c0.2,0.6,0.1,1.5,0.2,2c0,0.3-1,3.9-0.6,3.9c-0.3,0.6-0.5,1.2-0.5,1.8
					c0,0.7-0.4,1.6-0.1,2.3c0.2,0.7,0.2,1.5-0.1,2.1c-0.4,0.9-1,1.9-1,2.9c0,0.3,0.2,0.5,0.2,0.7c0,0.5,0.2,1,0.3,1.5
					c0.1,0.8,0.5,1.7,0.7,2.5c0.3,0.9,0.4,1.9,0.2,2.7c-0.1,0.5-0.2,0.9-0.2,1.5c0,0.5-0.2,1-0.3,1.5c-0.2,0.9-0.3,1.9-0.3,2.8
					c0,0.7,0.1,1.2,0.1,1.9c0,0.4-0.2,0.7-0.3,1.2c-0.1,0.5-0.2,0.9-0.2,1.4c0.1,1.5,1.6,3.1,0.9,4.6c-0.2,0.4-0.4,0.7-0.6,1
					c-0.2,0.4-0.3,0.7-0.3,0.9c0,0.6-0.2,1.1-0.4,1.7c-0.2,0.7-0.3,1.3-0.5,2c-0.2,0.7-0.3,1.3-0.5,2c-0.1,0.4-0.3,0.8-0.4,1.3
					c-0.1,0.4,0,0.7,0,1.1c0,0.7-0.1,1.4,0.1,2c0.1,0.7,0,0.8,0,0.8C119.8,284.3,120.8,284.2,118.3,283.1z"/>
				<path class="st0" d="M117.5,233.4c0.1,2,4,5.6,5.8,6.1"/>
				<path class="st0" d="M117.1,240.6c-0.2,1.4,4.1,3,4.7,3.7c0.7,0.7,0.9,1.4,0.9,1.4"/>
				<path class="st0" d="M117.5,246.6c-0.2,0.8,0.7,1.7,2.2,2.8c0.6,0.5,2.7,2.1,3,3.2"/>
				<path class="st0" d="M117.6,253.2c-0.6,0.8,2.1,4.7,5,5.1"/>
				<path class="st0" d="M117.8,260.2c0,0.5,1.2,3.9,4.3,4.8"/>
				<path class="st0" d="M117.1,268.9c0.5,1.1,3.3,4.2,4.7,4.7"/>
				<path class="st0" d="M117,274.2c-0.2,1.1,0.6,2.7,1.2,3.5c0.7,0.8,1.2,1,2.2,1.4"/>
			</g>
			
				<ellipse transform="matrix(0.3109 -0.9504 0.9504 0.3109 -137.6981 274.4616)" class="st1" cx="120.4" cy="232.2" rx="1.2" ry="3.7"/>
		</g>
	</g>
	<g>
		<g>
			<line class="st4" x1="28.2" y1="165.1" x2="28.2" y2="222.4"/>
			<g>
				<path class="st5" d="M28.2,157.4c-1.3,3.6-3.6,8.1-6,10.9l6-2.2l6,2.2C31.8,165.6,29.6,161,28.2,157.4z"/>
			</g>
		</g>
	</g>
	<g>
		<g>
			<line class="st4" x1="118.3" y1="165.6" x2="118.3" y2="222.8"/>
			<g>
				<path class="st5" d="M118.3,157.9c-1.3,3.6-3.6,8.1-6,10.9l6-2.2l6,2.2C121.9,166.1,119.6,161.5,118.3,157.9z"/>
			</g>
		</g>
	</g>
	<g>
		<rect x="11.9" y="3.7" class="st5" width="30.4" height="30.4"/>
		<rect x="42.4" y="34.1" class="st5" width="30.5" height="30.4"/>
		<rect x="72.9" y="3.7" class="st5" width="30.4" height="30.4"/>
		<rect x="12.1" y="64.6" class="st5" width="30.4" height="30.4"/>
		<rect x="103.3" y="34.1" class="st5" width="30.4" height="30.4"/>
		<rect x="133.8" y="64.6" class="st5" width="30.3" height="30.4"/>
		<rect x="133.9" y="3.7" class="st5" width="30.1" height="30.4"/>
		<rect x="12" y="64.7" class="st5" width="30.4" height="30.4"/>
		<rect x="42.5" y="95" class="st5" width="30.4" height="30.4"/>
		<rect x="72.9" y="125.5" class="st5" width="30.4" height="30.4"/>
		<rect x="72.9" y="64.6" class="st5" width="30.4" height="30.4"/>
		<rect x="12.1" y="125.4" class="st5" width="30.4" height="30.4"/>
		<rect x="103.3" y="95.1" class="st5" width="30.4" height="30.4"/>
		<rect x="133.9" y="125.5" class="st5" width="30.2" height="30.4"/>
		<rect x="133.8" y="64.6" class="st5" width="30.3" height="30.4"/>
		<rect x="12" y="3.7" class="st6" width="152.1" height="152.2"/>
	</g>
</g>
</svg>
