<?xml version="1.0" encoding="utf-8"?>
<!-- Generator: Adobe Illustrator 25.2.3, SVG Export Plug-In . SVG Version: 6.00 Build 0)  -->
<svg version="1.1" id="Layer_1" xmlns="http://www.w3.org/2000/svg" xmlns:xlink="http://www.w3.org/1999/xlink" x="0px" y="0px"
	 viewBox="0 0 150 197.7" style="enable-background:new 0 0 150 197.7;" xml:space="preserve">
<style type="text/css">
	.st0{fill:#CCB9B9;stroke:#FFFFFF;stroke-width:0.25;stroke-miterlimit:10;}
	.st1{fill:#E4DAD8;stroke:#FFFFFF;stroke-width:0.25;stroke-linejoin:bevel;stroke-miterlimit:10;}
	.st2{fill:#E4DAD8;stroke:#FFFFFF;stroke-width:0.25;stroke-miterlimit:10;}
	.st3{fill:none;stroke:#FFFFFF;stroke-width:0.25;stroke-miterlimit:10;}
	.st4{fill:#B79797;stroke:#FFFFFF;stroke-width:0.25;stroke-miterlimit:10;}
	.st5{fill:#543C52;stroke:#FFFFFF;stroke-width:0.2409;stroke-miterlimit:9.9998;}
	.st6{fill:#543C52;stroke:#FFFFFF;stroke-width:0.2409;stroke-miterlimit:10.0001;}
	.st7{fill:#543C52;stroke:#FFFFFF;stroke-width:0.2409;stroke-miterlimit:10;}
	.st8{fill:#543C52;stroke:#FFFFFF;stroke-width:0.2409;stroke-miterlimit:10.0004;}
	.st9{fill:#543C52;stroke:#FFFFFF;stroke-width:0.2409;stroke-miterlimit:10.0005;}
	.st10{fill:#543C52;stroke:#FFFFFF;stroke-width:0.2409;stroke-miterlimit:9.9997;}
	.st11{fill:#543C52;stroke:#FFFFFF;stroke-width:0.2409;stroke-miterlimit:9.9999;}
	.st12{fill:#543C52;stroke:#FFFFFF;stroke-width:0.2409;stroke-miterlimit:10.0002;}
</style>
<g>
	<g>
		<polygon class="st0" points="72.2,72.5 72.2,20.4 103.7,36.3 104,88.3 		"/>
		<polygon class="st0" points="104,88.2 142.5,69 142.5,16.8 103.7,36.2 		"/>
		<polygon class="st1" points="71.9,20.4 103.7,36.2 142.6,16.7 111.1,1.1 		"/>
	</g>
	<polygon class="st2" points="53.7,189.5 116.8,157.9 64.1,130.1 -0.3,162.6 	"/>
	<polygon class="st0" points="-0.3,162.6 -0.2,170.1 53.2,196.8 117.3,164.6 117.2,157.6 53.4,189.4 	"/>
	<line class="st3" x1="53.4" y1="189.4" x2="53.4" y2="196.8"/>
	<polygon class="st0" points="15.5,145.7 15.5,165.4 60.1,143.3 60.1,86.3 15.5,108.3 	"/>
	<polygon class="st4" points="15.7,165.5 15.3,108.3 53.2,126.7 53.4,183.9 	"/>
	<polygon class="st0" points="59.4,143.2 59.5,86.2 98.1,105.3 97.5,162.5 	"/>
	<polygon class="st4" points="53.2,164.2 53.2,183.9 97.6,162.5 97.8,104.8 53.2,126.7 	"/>
	<path class="st4" d="M60.3,86.1l-44.9,22.1L53,126.7l44.6-22L60.3,86.1z M19.7,108l40.2-19.8l33.5,16.7l-40,19.7L19.7,108z"/>
	<g>
		<ellipse transform="matrix(0.866 -0.5 0.5 0.866 -56.6739 44.6493)" class="st5" cx="55" cy="128.1" rx="0.9" ry="0.7"/>
		<ellipse transform="matrix(0.866 -0.5 0.5 0.866 -59.9681 45.5476)" class="st5" cx="55" cy="134.7" rx="0.9" ry="0.7"/>
		<ellipse transform="matrix(0.866 -0.5 0.5 0.866 -63.2257 46.4092)" class="st5" cx="55" cy="141.2" rx="0.9" ry="0.7"/>
		<ellipse transform="matrix(0.866 -0.5 0.5 0.866 -66.4832 47.2709)" class="st5" cx="55" cy="147.7" rx="0.9" ry="0.7"/>
		<ellipse transform="matrix(0.866 -0.5 0.5 0.866 -69.7774 48.1692)" class="st5" cx="55" cy="154.3" rx="0.9" ry="0.7"/>
		<ellipse transform="matrix(0.866 -0.5 0.5 0.866 -73.0349 49.0309)" class="st5" cx="55" cy="160.8" rx="0.9" ry="0.7"/>
		<ellipse transform="matrix(0.866 -0.5 0.5 0.866 -76.3291 49.9292)" class="st5" cx="55" cy="167.4" rx="0.9" ry="0.7"/>
		<ellipse transform="matrix(0.866 -0.5 0.5 0.866 -79.5867 50.7909)" class="st5" cx="55" cy="173.9" rx="0.9" ry="0.7"/>
		<ellipse transform="matrix(0.866 -0.5 0.5 0.866 -82.8808 51.6891)" class="st5" cx="55" cy="180.5" rx="0.9" ry="0.7"/>
	</g>
	<g>
		<ellipse transform="matrix(0.4936 -0.8697 0.8697 0.4936 -88.026 71.6491)" class="st6" cx="17.5" cy="111.4" rx="0.7" ry="0.9"/>
		<ellipse transform="matrix(0.4911 -0.8711 0.8711 0.4911 -93.8397 75.242)" class="st7" cx="17.5" cy="117.9" rx="0.7" ry="0.9"/>
		
			<ellipse transform="matrix(0.4887 -0.8725 0.8725 0.4887 -99.6745 78.9673)" class="st8" cx="17.5" cy="124.5" rx="0.7" ry="0.9"/>
		<ellipse transform="matrix(0.4862 -0.8739 0.8739 0.4862 -105.5222 82.6279)" class="st9" cx="17.5" cy="131" rx="0.7" ry="0.9"/>
		
			<ellipse transform="matrix(0.4837 -0.8752 0.8752 0.4837 -111.3902 86.4069)" class="st10" cx="17.5" cy="137.6" rx="0.7" ry="0.9"/>
		
			<ellipse transform="matrix(0.4812 -0.8766 0.8766 0.4812 -117.1695 90.1322)" class="st11" cx="17.6" cy="144.1" rx="0.7" ry="0.9"/>
		
			<ellipse transform="matrix(0.4788 -0.8779 0.8779 0.4788 -123.081 93.8731)" class="st5" cx="17.5" cy="150.6" rx="0.7" ry="0.9"/>
		
			<ellipse transform="matrix(0.4763 -0.8793 0.8793 0.4763 -128.9912 97.772)" class="st12" cx="17.6" cy="157.2" rx="0.7" ry="0.9"/>
		
			<ellipse transform="matrix(0.4738 -0.8806 0.8806 0.4738 -134.9287 101.5832)" class="st10" cx="17.5" cy="163.7" rx="0.7" ry="0.9"/>
	</g>
	<g>
		<ellipse transform="matrix(0.866 -0.5 0.5 0.866 -41.2548 62.396)" class="st5" cx="95.8" cy="108.2" rx="0.9" ry="0.7"/>
		<ellipse transform="matrix(0.866 -0.5 0.5 0.866 -44.5124 63.2576)" class="st5" cx="95.8" cy="114.7" rx="0.9" ry="0.7"/>
		<ellipse transform="matrix(0.866 -0.5 0.5 0.866 -47.8065 64.1559)" class="st5" cx="95.8" cy="121.3" rx="0.9" ry="0.7"/>
		<ellipse transform="matrix(0.866 -0.5 0.5 0.866 -51.0641 65.0176)" class="st5" cx="95.8" cy="127.8" rx="0.9" ry="0.7"/>
		<ellipse transform="matrix(0.866 -0.5 0.5 0.866 -54.3216 65.8793)" class="st5" cx="95.8" cy="134.3" rx="0.9" ry="0.7"/>
		<ellipse transform="matrix(0.866 -0.5 0.5 0.866 -57.6157 66.7776)" class="st5" cx="95.8" cy="140.9" rx="0.9" ry="0.7"/>
		<ellipse transform="matrix(0.866 -0.5 0.5 0.866 -60.8733 67.6392)" class="st5" cx="95.8" cy="147.4" rx="0.9" ry="0.7"/>
		<ellipse transform="matrix(0.866 -0.5 0.5 0.866 -64.1675 68.5375)" class="st5" cx="95.8" cy="154" rx="0.9" ry="0.7"/>
		<ellipse transform="matrix(0.866 -0.5 0.5 0.866 -67.425 69.3992)" class="st5" cx="95.8" cy="160.5" rx="0.9" ry="0.7"/>
	</g>
	<line class="st3" x1="51" y1="125.8" x2="95.6" y2="103.8"/>
	<line class="st3" x1="17.4" y1="109.1" x2="62" y2="87.1"/>
</g>
</svg>
