<?xml version="1.0" encoding="utf-8"?>
<!-- Generator: Adobe Illustrator 25.2.3, SVG Export Plug-In . SVG Version: 6.00 Build 0)  -->
<svg version="1.1" id="Layer_1" xmlns="http://www.w3.org/2000/svg" xmlns:xlink="http://www.w3.org/1999/xlink" x="0px" y="0px"
	 viewBox="0 0 144.4 197.7" style="enable-background:new 0 0 144.4 197.7;" xml:space="preserve">
<style type="text/css">
	.st0{fill:#CCB9B9;stroke:#FFFFFF;stroke-width:0.25;stroke-miterlimit:10;}
	.st1{fill:#E4DAD8;stroke:#FFFFFF;stroke-width:0.25;stroke-linejoin:bevel;stroke-miterlimit:10;}
	.st2{fill:#E4DAD8;stroke:#FFFFFF;stroke-width:0.25;stroke-miterlimit:10;}
	.st3{fill:#B79797;stroke:#FFFFFF;stroke-width:0.25;stroke-miterlimit:10;}
	.st4{fill:#543C52;stroke:#FFFFFF;stroke-width:0.2409;stroke-miterlimit:10;}
	.st5{fill:#543C52;stroke:#FFFFFF;stroke-width:0.25;stroke-miterlimit:10;}
</style>
<g>
	<g>
		<polygon class="st0" points="72.9,72.5 72.9,20.4 104.4,36.3 104.7,88.3 		"/>
		<polygon class="st0" points="104.7,88.2 143.2,69 143.2,16.8 104.4,36.2 		"/>
		<polygon class="st1" points="72.6,20.4 104.4,36.2 143.3,16.7 111.8,1.1 		"/>
	</g>
	<polygon class="st2" points="54.4,189.5 117.5,157.9 64.8,130.1 0.4,162.6 	"/>
	<polygon class="st0" points="0.4,162.6 0.5,170.1 53.9,196.8 118,164.6 117.9,157.6 54.1,189.4 	"/>
	<line class="st0" x1="54.1" y1="189.4" x2="54.1" y2="196.8"/>
	<polygon class="st0" points="16.2,145.7 16.2,165.4 60.8,143.3 60.8,86.3 16.2,108.3 	"/>
	<polygon class="st3" points="16.4,165.5 16,108.3 53.9,126.7 54.1,183.9 	"/>
	<polygon class="st0" points="60.1,143.2 60.2,86.2 98.8,105.3 98.2,162.5 	"/>
	<polygon class="st3" points="53.9,164.2 53.9,183.9 98.3,162.5 98.5,104.8 53.9,126.7 	"/>
	<path class="st3" d="M61,86.1l-44.9,22.1l37.6,18.5l44.6-22L61,86.1z M20.4,108l40.2-19.8l33.5,16.7l-40,19.7L20.4,108z"/>
	<g>
		<ellipse transform="matrix(0.866 -0.5 0.5 0.866 -56.5992 44.9924)" class="st4" cx="55.7" cy="128.1" rx="0.9" ry="0.7"/>
		<ellipse transform="matrix(0.866 -0.5 0.5 0.866 -59.8702 45.8727)" class="st4" cx="55.7" cy="134.7" rx="0.9" ry="0.7"/>
		<ellipse transform="matrix(0.866 -0.5 0.5 0.866 -63.1411 46.7531)" class="st4" cx="55.7" cy="141.2" rx="0.9" ry="0.7"/>
		<ellipse transform="matrix(0.866 -0.5 0.5 0.866 -66.412 47.6335)" class="st4" cx="55.7" cy="147.7" rx="0.9" ry="0.7"/>
		<ellipse transform="matrix(0.866 -0.5 0.5 0.866 -69.6829 48.5139)" class="st4" cx="55.7" cy="154.3" rx="0.9" ry="0.7"/>
		<ellipse transform="matrix(0.866 -0.5 0.5 0.866 -72.9538 49.3942)" class="st4" cx="55.7" cy="160.8" rx="0.9" ry="0.7"/>
		<ellipse transform="matrix(0.866 -0.5 0.5 0.866 -76.2247 50.2746)" class="st4" cx="55.7" cy="167.4" rx="0.9" ry="0.7"/>
		<ellipse transform="matrix(0.866 -0.5 0.5 0.866 -79.4956 51.155)" class="st4" cx="55.7" cy="173.9" rx="0.9" ry="0.7"/>
		<ellipse transform="matrix(0.866 -0.5 0.5 0.866 -82.7665 52.0353)" class="st4" cx="55.7" cy="180.5" rx="0.9" ry="0.7"/>
	</g>
	<g>
		
			<ellipse transform="matrix(0.4936 -0.8697 0.8697 0.4936 -87.6473 72.2533)" class="st4" cx="18.2" cy="111.4" rx="0.7" ry="0.9"/>
		
			<ellipse transform="matrix(0.4911 -0.8711 0.8711 0.4911 -93.4539 75.8889)" class="st4" cx="18.2" cy="117.9" rx="0.7" ry="0.9"/>
		<ellipse transform="matrix(0.4887 -0.8725 0.8725 0.4887 -99.2778 79.557)" class="st4" cx="18.2" cy="124.5" rx="0.7" ry="0.9"/>
		<ellipse transform="matrix(0.4862 -0.8739 0.8739 0.4862 -105.1187 83.2578)" class="st4" cx="18.2" cy="131" rx="0.7" ry="0.9"/>
		
			<ellipse transform="matrix(0.4837 -0.8752 0.8752 0.4837 -110.9766 86.9913)" class="st4" cx="18.2" cy="137.6" rx="0.7" ry="0.9"/>
		
			<ellipse transform="matrix(0.4812 -0.8766 0.8766 0.4812 -116.8513 90.7576)" class="st4" cx="18.3" cy="144.1" rx="0.7" ry="0.9"/>
		
			<ellipse transform="matrix(0.4788 -0.8779 0.8779 0.4788 -122.7427 94.5568)" class="st4" cx="18.3" cy="150.6" rx="0.7" ry="0.9"/>
		
			<ellipse transform="matrix(0.4763 -0.8793 0.8793 0.4763 -128.6506 98.3888)" class="st4" cx="18.3" cy="157.2" rx="0.7" ry="0.9"/>
		
			<ellipse transform="matrix(0.4738 -0.8806 0.8806 0.4738 -134.575 102.2538)" class="st4" cx="18.3" cy="163.7" rx="0.7" ry="0.9"/>
	</g>
	<g>
		<ellipse transform="matrix(0.866 -0.5 0.5 0.866 -41.1576 62.7273)" class="st4" cx="96.5" cy="108.2" rx="0.9" ry="0.7"/>
		<ellipse transform="matrix(0.866 -0.5 0.5 0.866 -44.4285 63.6077)" class="st4" cx="96.5" cy="114.7" rx="0.9" ry="0.7"/>
		<ellipse transform="matrix(0.866 -0.5 0.5 0.866 -47.6994 64.488)" class="st4" cx="96.5" cy="121.3" rx="0.9" ry="0.7"/>
		<ellipse transform="matrix(0.866 -0.5 0.5 0.866 -50.9703 65.3684)" class="st4" cx="96.5" cy="127.8" rx="0.9" ry="0.7"/>
		<ellipse transform="matrix(0.866 -0.5 0.5 0.866 -54.2412 66.2488)" class="st4" cx="96.5" cy="134.3" rx="0.9" ry="0.7"/>
		<ellipse transform="matrix(0.866 -0.5 0.5 0.866 -57.5121 67.1291)" class="st4" cx="96.5" cy="140.9" rx="0.9" ry="0.7"/>
		<ellipse transform="matrix(0.866 -0.5 0.5 0.866 -60.7831 68.0095)" class="st4" cx="96.5" cy="147.4" rx="0.9" ry="0.7"/>
		<ellipse transform="matrix(0.866 -0.5 0.5 0.866 -64.054 68.8899)" class="st4" cx="96.5" cy="154" rx="0.9" ry="0.7"/>
		<ellipse transform="matrix(0.866 -0.5 0.5 0.866 -67.3249 69.7702)" class="st4" cx="96.5" cy="160.5" rx="0.9" ry="0.7"/>
	</g>
	<line class="st5" x1="51.7" y1="125.8" x2="96.3" y2="103.8"/>
	<line class="st3" x1="18.1" y1="109.1" x2="62.7" y2="87.1"/>
</g>
</svg>
