<?xml version="1.0" encoding="utf-8"?>
<!-- Generator: Adobe Illustrator 25.2.3, SVG Export Plug-In . SVG Version: 6.00 Build 0)  -->
<svg version="1.1" id="Layer_1" xmlns="http://www.w3.org/2000/svg" xmlns:xlink="http://www.w3.org/1999/xlink" x="0px" y="0px"
	 viewBox="0 0 152.1 142.4" style="enable-background:new 0 0 152.1 142.4;" xml:space="preserve">
<style type="text/css">
	.st0{fill:#E4DAD8;stroke:#FFFFFF;stroke-width:0.3149;stroke-miterlimit:10;}
	.st1{fill:#C2AAA7;stroke:#FFFFFF;stroke-width:0.1611;stroke-miterlimit:10;}
	.st2{fill:#CFBCBC;stroke:#FFFFFF;stroke-width:0.3149;stroke-miterlimit:10;}
	.st3{fill:#E4DAD8;stroke:#FFFFFF;stroke-width:0.1574;stroke-miterlimit:10;}
	.st4{fill:#E4DAD8;stroke:#FFFFFF;stroke-width:0.1996;stroke-miterlimit:10;}
	.st5{fill:#5E5756;stroke:#FFFFFF;stroke-width:0.1574;stroke-miterlimit:10;}
	.st6{fill:#C2AAA7;}
	.st7{fill:#24234C;}
	.st8{fill:none;stroke:#24234C;stroke-width:0.1574;stroke-miterlimit:10;}
	.st9{fill:none;stroke:#24234C;stroke-width:0.1574;stroke-linecap:round;stroke-miterlimit:10;}
	.st10{fill:#ED6D47;}
	.st11{fill:#DC3359;}
	.st12{fill:none;stroke:#BF282E;stroke-width:0.3957;stroke-miterlimit:10;}
	.st13{fill:none;stroke:#000000;stroke-width:1.187;stroke-miterlimit:10;}
	.st14{fill:none;stroke:#000000;stroke-width:1.187;stroke-linecap:round;stroke-miterlimit:10;}
	.st15{fill:none;stroke:#24234C;stroke-width:0.6297;stroke-linecap:round;stroke-miterlimit:10;}
	.st16{fill:none;stroke:#24234C;stroke-width:0.5914;stroke-linecap:round;stroke-miterlimit:10;}
	.st17{fill:#E4DAD8;stroke:#FFFFFF;stroke-width:0.3149;stroke-linejoin:bevel;stroke-miterlimit:10;}
	.st18{fill:#CFBCBC;stroke:#FFFFFF;stroke-width:0.3149;stroke-linejoin:bevel;stroke-miterlimit:10;}
</style>
<polygon class="st0" points="5.7,97.1 95.9,51.9 102.2,55 10.1,100.7 "/>
<g>
	<path class="st1" d="M9.9,97.3c-0.6,0-1.3-0.4-1.6-1c-0.4-0.9-0.1-2,0.8-2.4l101-51.1c0.9-0.4,1.9-0.1,2.4,0.8
		c0.4,0.9,0.1,2-0.8,2.4l-101,51.1C10.4,97.2,10.2,97.3,9.9,97.3z"/>
</g>
<path class="st2" d="M146.8,75l-91.4,45.8l-0.7,11.8c0,0,1.5,1.5,5.9-1.5c0,0,87.7-44.6,89.2-45.4s2.2-4.9,1.4-7.4
	C150.4,75.9,146.8,75,146.8,75z"/>
<path class="st3" d="M55.5,120.9l-0.6,12c0,0,5.6,2,5.7-4.3C60.6,122.2,55.5,120.9,55.5,120.9z"/>
<path class="st4" d="M7.1,69.8"/>
<g>
	<g>
		<path class="st5" d="M17.8,90.9c-0.3,0-0.5-0.2-0.5-0.5l-0.1-25.8c0-0.3,0.2-0.5,0.5-0.5l0,0c0.3,0,0.5,0.2,0.5,0.5l0.1,25.8
			C18.3,90.7,18.1,90.9,17.8,90.9L17.8,90.9z"/>
	</g>
	<path class="st5" d="M21,89.3c-0.3,0-0.5-0.2-0.5-0.5L20.4,63c0-0.3,0.2-0.5,0.5-0.5l0,0c0.3,0,0.5,0.2,0.5,0.5l0.1,25.8
		C21.5,89.1,21.3,89.3,21,89.3L21,89.3z"/>
	<path class="st5" d="M24.2,87.8c-0.3,0-0.5-0.2-0.5-0.5l-0.1-25.8c0-0.3,0.2-0.5,0.5-0.5l0,0c0.3,0,0.5,0.2,0.5,0.5l0.1,25.8
		C24.7,87.6,24.5,87.8,24.2,87.8L24.2,87.8z"/>
	<path class="st5" d="M27.4,86.2c-0.3,0-0.5-0.2-0.5-0.5l-0.1-25.8c0-0.3,0.2-0.5,0.5-0.5l0,0c0.3,0,0.5,0.2,0.5,0.5l0.1,25.8
		C27.9,86,27.7,86.2,27.4,86.2L27.4,86.2z"/>
	<path class="st5" d="M30.6,84.6c-0.3,0-0.5-0.2-0.5-0.5V58.4c0-0.3,0.2-0.5,0.5-0.5l0,0c0.3,0,0.5,0.2,0.5,0.5l0.1,25.8
		C31.1,84.4,30.9,84.6,30.6,84.6L30.6,84.6z"/>
	<path class="st5" d="M33.8,83.1c-0.3,0-0.5-0.2-0.5-0.5l-0.1-25.8c0-0.3,0.2-0.5,0.5-0.5l0,0c0.3,0,0.5,0.2,0.5,0.5l0.1,25.8
		C34.3,82.9,34.1,83.1,33.8,83.1L33.8,83.1z"/>
	<path class="st5" d="M37,81.5c-0.3,0-0.5-0.2-0.5-0.5l-0.1-25.8c0-0.3,0.2-0.5,0.5-0.5l0,0c0.3,0,0.5,0.2,0.5,0.5L37.5,81
		C37.5,81.3,37.3,81.5,37,81.5L37,81.5z"/>
	<path class="st5" d="M40.2,79.9c-0.3,0-0.5-0.2-0.5-0.5l-0.1-25.8c0-0.3,0.2-0.5,0.5-0.5l0,0c0.3,0,0.5,0.2,0.5,0.5l0.1,25.8
		C40.7,79.7,40.5,79.9,40.2,79.9L40.2,79.9z"/>
	<path class="st5" d="M43.4,78.4c-0.3,0-0.5-0.2-0.5-0.5l-0.1-25.8c0-0.3,0.2-0.5,0.5-0.5l0,0c0.3,0,0.5,0.2,0.5,0.5l0.1,25.8
		C43.9,78.2,43.7,78.4,43.4,78.4L43.4,78.4z"/>
	<path class="st5" d="M46.6,76.8c-0.3,0-0.5-0.2-0.5-0.5V50.6c0-0.3,0.2-0.5,0.5-0.5l0,0c0.3,0,0.5,0.2,0.5,0.5l0.1,25.8
		C47.1,76.6,46.9,76.8,46.6,76.8L46.6,76.8z"/>
	<path class="st5" d="M49.8,75.3c-0.3,0-0.5-0.2-0.5-0.5L49.2,49c0-0.3,0.2-0.5,0.5-0.5l0,0c0.3,0,0.5,0.2,0.5,0.5l0.1,25.8
		C50.3,75,50.1,75.3,49.8,75.3L49.8,75.3z"/>
	<path class="st5" d="M53,73.7c-0.3,0-0.5-0.2-0.5-0.5l-0.1-25.8c0-0.3,0.2-0.5,0.5-0.5l0,0c0.3,0,0.5,0.2,0.5,0.5l0.1,25.8
		C53.5,73.5,53.3,73.7,53,73.7L53,73.7z"/>
	<path class="st5" d="M56.2,72.1c-0.3,0-0.5-0.2-0.5-0.5l-0.1-25.8c0-0.3,0.2-0.5,0.5-0.5l0,0c0.3,0,0.5,0.2,0.5,0.5l0.1,25.8
		C56.7,71.9,56.5,72.1,56.2,72.1L56.2,72.1z"/>
	<path class="st5" d="M59.4,70.6c-0.3,0-0.5-0.2-0.5-0.5l-0.1-25.8c0-0.3,0.2-0.5,0.5-0.5l0,0c0.3,0,0.5,0.2,0.5,0.5l0.1,25.8
		C59.9,70.3,59.7,70.6,59.4,70.6L59.4,70.6z"/>
	<path class="st5" d="M62.6,69c-0.3,0-0.5-0.2-0.5-0.5V42.7c0-0.3,0.2-0.5,0.5-0.5l0,0c0.3,0,0.5,0.2,0.5,0.5l0.1,25.8
		C63.1,68.8,62.9,69,62.6,69L62.6,69z"/>
	<path class="st5" d="M65.8,67.4c-0.3,0-0.5-0.2-0.5-0.5l-0.1-25.8c0-0.3,0.2-0.5,0.5-0.5l0,0c0.3,0,0.5,0.2,0.5,0.5l0.1,25.8
		C66.3,67.2,66.1,67.4,65.8,67.4L65.8,67.4z"/>
	<path class="st5" d="M69,65.9c-0.3,0-0.5-0.2-0.5-0.5V39.6c0-0.3,0.2-0.5,0.5-0.5l0,0c0.3,0,0.5,0.2,0.5,0.5l0.1,25.8
		C69.5,65.6,69.3,65.9,69,65.9L69,65.9z"/>
	<path class="st5" d="M72.2,64.3c-0.3,0-0.5-0.2-0.5-0.5L71.6,38c0-0.3,0.2-0.5,0.5-0.5l0,0c0.3,0,0.5,0.2,0.5,0.5l0.1,25.8
		C72.7,64.1,72.5,64.3,72.2,64.3L72.2,64.3z"/>
	<path class="st5" d="M75.4,62.7c-0.3,0-0.5-0.2-0.5-0.5l-0.1-25.8c0-0.3,0.2-0.5,0.5-0.5l0,0c0.3,0,0.5,0.2,0.5,0.5l0.1,25.8
		C75.9,62.5,75.7,62.7,75.4,62.7L75.4,62.7z"/>
	<g>
		<path class="st5" d="M78.6,61.2c-0.3,0-0.5-0.2-0.5-0.5V34.9c0-0.3,0.2-0.5,0.5-0.5l0,0c0.3,0,0.5,0.2,0.5,0.5l0.1,25.8
			C79.1,60.9,78.9,61.2,78.6,61.2L78.6,61.2z"/>
	</g>
</g>
<g>
	<path class="st1" d="M5.3,72.5c-0.7,0-1.3-0.4-1.6-1c-0.4-0.9-0.1-2,0.8-2.4l103.9-52c0.9-0.4,1.9-0.1,2.4,0.8
		c0.4,0.9,0.1,2-0.8,2.4L6.1,72.3C5.8,72.4,5.5,72.5,5.3,72.5z"/>
</g>
<g>
	<g>
		<g>
			<g>
				<path class="st1" d="M3.6,73.3c-0.7,0-1.3-0.4-1.6-1c-0.4-0.9-0.1-2,0.8-2.4l3.6-1.8c0.9-0.4,1.9-0.1,2.4,0.8
					c0.4,0.9,0.1,2-0.8,2.4l-3.6,1.8C4.1,73.3,3.8,73.3,3.6,73.3z"/>
			</g>
			<polygon class="st0" points="95.8,6.3 95.9,52 101.7,54.9 101.6,9.7 			"/>
		</g>
	</g>
	<g>
		<path class="st1" d="M92.3,25.2l3.7-1.9c0.9-0.5,1.9-0.1,2.4,0.8s0.1,2-0.8,2.4l-3.7,1.9"/>
	</g>
	<g>
		<path class="st1" d="M94.3,50.8l2.7-1.4c0.9-0.5,1.9-0.1,2.4,0.8s0.1,2-0.7,2.4l-2,1"/>
	</g>
</g>
<path class="st4" d="M96.4,49.1"/>
<g>
	<g>
		<path class="st0" d="M38.9,114.7c0.5,1.2-1.3,3.8-2.6,4.7c-1.2,0.9-22.7,11.3-24.4,12.3c-1.8,1.1-6.1,2.1-7.1,2.2s-2.3,0.2-3.1-1
			s2.8-4.1,4-5.2s26.1-13.2,27.3-13.4C34.1,114.2,38.4,113.5,38.9,114.7z"/>
		<path class="st0" d="M1.6,133c0,0,1.3-0.2,3.7-1s10.1-5,10.1-5l21-10.5l2.5-1.7"/>
		<ellipse class="st6" cx="32.1" cy="120.1" rx="0.6" ry="0.6"/>
		<path class="st0" d="M10.7,125.6c-0.3,0.1-1,1.1,0.5,1.5c1.5,0.5,2.9-0.4,2.9-0.4l17.5-8.5c0,0,0.8-0.7,0.1-1.5
			c-0.8-0.8-2.4-0.1-2.4-0.1S11,125.4,10.7,125.6z"/>
		<path class="st3" d="M16.3,125.6c0,0,0.4-1.2-0.7-1.2c-1.1,0-4.9,1.6-4.9,1.9s1.2,1.2,2.4,0.8S16.3,125.6,16.3,125.6z"/>
		<path class="st3" d="M10.5,126.7c-0.1-0.3,0.3-1,1.3-0.7s1.2,0.9,0.9,1.1C12.3,127.5,10.6,127,10.5,126.7z"/>
	</g>
	<g>
		<g>
			<path class="st7" d="M51.4,111.4c-4.8,2.2-9.6,4.3-14.4,6.3c-1.7,0.7-3.4,1.4-5.1,2.2c0,0,0.4,0.5,0.6,0.5
				c1.7-0.8,3.4-1.5,5.1-2.2c4.8-2,9.6-4.1,14.4-6.3C52,111.9,51.5,111.4,51.4,111.4L51.4,111.4z"/>
		</g>
	</g>
	<g>
		<path class="st8" d="M30,118.8c-0.1-0.1,0.5-2-1.4-1.1"/>
		<path class="st9" d="M29.7,118.9c-0.1-0.2,0.5-2-1.4-1.1"/>
		<path class="st9" d="M29.4,119.1c-0.1-0.2,0.5-1.9-1.4-1.1"/>
		<path class="st9" d="M29.2,119.2c-0.1-0.2,0.4-1.9-1.5-1.1"/>
		<path class="st9" d="M28.9,119.4c-0.1-0.2,0.4-1.9-1.5-1.1"/>
		<path class="st9" d="M28.6,119.5c-0.1-0.3,0.4-1.9-1.5-1.1"/>
		<path class="st9" d="M28.3,119.6c-0.1-0.3,0.3-1.9-1.5-1.1"/>
		<path class="st9" d="M28,119.8c-0.1-0.3,0.3-1.9-1.5-1.1"/>
		<path class="st9" d="M27.7,119.9c-0.1-0.3,0.3-1.9-1.5-1.1"/>
		<path class="st9" d="M27.5,120c-0.1-0.4,0.2-1.9-1.5-1.1"/>
		<path class="st9" d="M27.2,120.2c-0.1-0.4,0.2-1.9-1.5-1.1"/>
		<path class="st9" d="M26.9,120.3c-0.1-0.4,0.1-1.9-1.6-1.1"/>
		<path class="st9" d="M26.6,120.5c-0.1-0.4,0.1-1.9-1.6-1.1"/>
		<path class="st9" d="M26.3,120.6c-0.1-0.5,0.1-1.9-1.6-1.1"/>
		<path class="st9" d="M26,120.7c-0.1-0.5,0-1.9-1.6-1.1"/>
		<path class="st9" d="M25.8,120.9c-0.1-0.5,0-1.9-1.6-1.1"/>
		<path class="st9" d="M25.5,121c-0.1-0.5,0-1.8-1.6-1"/>
		<path class="st9" d="M25.2,121.1c-0.1-0.6-0.1-1.8-1.6-1"/>
		<path class="st9" d="M24.9,121.3c-0.1-0.6-0.1-1.8-1.7-1"/>
		<path class="st9" d="M24.6,121.4c-0.1-0.6-0.1-1.8-1.7-1"/>
		<path class="st9" d="M24.4,121.6c-0.1-0.6-0.2-1.8-1.7-1"/>
		<path class="st9" d="M24.1,121.7c-0.1-0.7-0.2-1.8-1.7-1"/>
		<path class="st9" d="M23.8,121.8c-0.1-0.7-0.3-1.8-1.7-1"/>
		<path class="st9" d="M23.5,122c-0.1-0.7-0.3-1.8-1.7-1"/>
		<path class="st9" d="M23.2,122.1c-0.1-0.7-0.3-1.8-1.7-1"/>
		<path class="st9" d="M22.9,122.2c-0.1-0.8-0.4-1.8-1.8-1"/>
		<path class="st9" d="M22.7,122.4c-0.1-0.8-0.4-1.8-1.8-1"/>
		<path class="st9" d="M22.4,122.5c-0.1-0.8-0.4-1.8-1.8-1"/>
		<path class="st9" d="M22.1,122.7c-0.1-0.8-0.5-1.8-1.8-1"/>
		<path class="st9" d="M21.8,122.8c-0.1-0.9-0.5-1.8-1.8-1"/>
		<path class="st9" d="M21.5,122.9c-0.1-0.9-0.5-1.8-1.8-1"/>
		<path class="st9" d="M21.2,123.1c0-0.9-0.6-1.7-1.8-1"/>
		<path class="st9" d="M21,123.2c0-0.9-0.6-1.7-1.8-1"/>
		<path class="st9" d="M20.7,123.3c0-1-0.7-1.7-1.9-1"/>
		<path class="st9" d="M20.4,123.5c0-1-0.7-1.7-1.9-1"/>
		<path class="st9" d="M20.1,123.6c0-1-0.7-1.7-1.9-1"/>
		<path class="st9" d="M19.8,123.8c0-1-0.8-1.7-1.9-0.9"/>
		<path class="st9" d="M19.5,123.9c0-1.1-0.8-1.7-1.9-0.9"/>
		<path class="st9" d="M19.3,124c0-1.1-0.8-1.7-1.9-0.9"/>
		<path class="st9" d="M19,124.2c0-1.1-0.9-1.7-1.9-0.9"/>
		<path class="st9" d="M18.7,124.3c0-1.2-0.9-1.7-2-0.9"/>
		<path class="st9" d="M18.4,124.4c0-1.2-0.9-1.7-2-0.9"/>
		<path class="st9" d="M18.1,124.6c0-1.2-1-1.7-2-0.9"/>
		<path class="st9" d="M17.8,124.7c0-1.2-1-1.7-2-0.9"/>
		<path class="st9" d="M17.6,124.9c0-1.3-1.1-1.7-2-0.9"/>
		<path class="st9" d="M17.3,125c0-1.3-1.1-1.7-2-0.9"/>
		<path class="st9" d="M17,125.1c0-1.3-1.1-1.6-2-0.9"/>
		<path class="st9" d="M16.7,125.3c0-1.3-1.2-1.6-2.1-0.9"/>
		<path class="st9" d="M16.4,125.4c0-1.4-1.2-1.6-2.1-0.9"/>
		<path class="st9" d="M16.1,125.5c0-1.4-1.2-1.6-2.1-0.9"/>
		<path class="st9" d="M15.9,125.7c0-1.4-1.3-1.6-2.1-0.9"/>
		<path class="st9" d="M15.6,125.8c0-1.4-1.3-1.6-2.1-0.9"/>
	</g>
</g>
<g>
	<g>
		<path class="st10" d="M17.4,91.2c10.1,5.6,20.3,11.3,30.3,17.2c1.7,1,3.5,2,5.1,3.2c2.4,1.8,5.8,1.9,8.7,2.2
			c3.5,0.3,6.6,0.2,9.9,1.8c2.3,1.1,4.7,3.7,4.7,6.4c0,0.7-0.1,1.5-0.2,2.2c-0.1,6.1-0.3,12.3-0.4,18.4c0,0.3,1.1,0.1,1.1-0.3
			c0.1-5.6,0.2-11.2,0.4-16.9c0-0.9,0-1.8,0.1-2.7c0.2-1.9-0.3-3.4-1.5-5c-2.3-3.1-6.3-4.1-9.9-4.3c-1.8-0.1-3.6-0.2-5.3-0.5
			c-1.8-0.2-3.8-0.4-5.5-1.2c-1.5-0.7-2.9-1.9-4.4-2.8c-6-3.6-12.2-7-18.3-10.5c-4.6-2.6-9.2-5.2-13.9-7.8
			C18,90.5,17,90.9,17.4,91.2L17.4,91.2z"/>
	</g>
</g>
<g>
	<g>
		<path class="st10" d="M52.3,73.6c5.1,2.8,10.2,5.5,15.3,8.3c6.6,3.6,13.2,7.1,19.9,10.7c1.8,1,3.7,1.6,5.6,2.2
			c2.1,0.8,4.3,1.5,6.5,2.1c2.7,0.6,5.5,1,7.5,3.1c1.7,1.8,2.8,4.9,2.5,7.3c-0.1,0.8-0.1,1.6-0.2,2.4c-0.2,3.7-0.3,7.4-0.4,11
			c-0.1,4.5-0.3,9-0.4,13.6c-0.1,2.8-0.3,5.7-0.2,8.5c0,0.1,0,0.3,0,0.4c0,0.3,1.1,0.1,1.1-0.3c0.2-6.4,0.3-12.8,0.5-19.3
			c0.1-4.2,0.2-8.4,0.4-12.5c0.1-2.5,0.6-5-0.2-7.4c-0.9-3-2.6-5.1-5.6-6.2c-2.2-0.8-4.5-1.1-6.8-1.8c-2.9-0.9-6-1.8-8.8-3.1
			c-5.9-2.9-11.7-6.3-17.5-9.4C67.7,81.1,63.8,79,60,77c-2.2-1.2-4.4-2.5-6.7-3.6c-0.1-0.1-0.2-0.1-0.3-0.2
			C52.9,72.9,51.9,73.3,52.3,73.6L52.3,73.6z"/>
	</g>
</g>
<g>
	<g>
		<path class="st10" d="M55.8,71.6c5.3,2.8,10.7,5.7,16,8.5c6.5,3.4,12.9,6.9,19.4,10.3c2.3,1.2,4.8,2.2,7.2,3.2
			c1.9,0.8,3.8,1.5,5.8,1.9c3.6,0.7,6.4,2.4,7.7,5.9c0.6,1.5,0.8,2.9,0.7,4.5c0,1,0,2-0.1,3c-0.1,3.9-0.1,7.9-0.2,11.8
			c-0.1,4.5-0.2,9.1-0.2,13.6c0,2.8-0.3,5.6-0.1,8.4c0,0.1,0,0.3,0,0.4c0,0.3,1.1,0.1,1.1-0.3c0.1-6.4,0.2-12.7,0.3-19.1
			c0.1-6.3,0-13,0.4-19c0.1-1.4-0.5-2.9-1-4.2c-0.6-1.4-1.4-2.6-2.6-3.5c-2.2-1.6-4.8-1.8-7.2-2.6c-3.5-1.1-7.1-2.7-10.4-4.3
			c-5.6-2.8-11.1-5.9-16.7-8.9c-4-2.1-8-4.3-12-6.4c-2.3-1.2-4.6-2.6-7-3.7c-0.1-0.1-0.2-0.1-0.3-0.2C56.4,70.9,55.4,71.4,55.8,71.6
			L55.8,71.6z"/>
	</g>
</g>
<g>
	<g>
		<path class="st10" d="M62,68.7c5.7,3.2,11.4,6.3,17.2,9.5c3.9,2.2,7.8,4.3,11.7,6.5c1.8,1,3.6,2.1,5.4,3c1.2,0.5,2.5,0.9,3.7,1.3
			c2.3,0.8,4.7,1.7,7.1,2.4c1.8,0.6,3.6,1,5.5,1.4c3.3,0.8,5.5,3.2,5.9,6.6c0.2,1.4-0.1,2.7-0.2,4.1c-0.1,1.2-0.1,2.4-0.1,3.6
			c0,4.3,0,8.5,0,12.8c0,4.7,0,9.5,0.1,14.2c0,2.9-0.2,5.8,0.1,8.6c0,0.1,0,0.3,0,0.4c0,0.3,1.1,0.1,1.1-0.3
			c-0.1-6.6-0.1-13.2-0.1-19.8c0-4.6,0-9.3,0-13.9c0-2.2-0.2-4.6,0.2-6.7c0.5-2.8-0.1-5.7-1.9-7.8c-1.6-1.9-3.9-2.2-6.2-2.7
			c-4.4-1-8.7-2.8-13-4.3c-1.5-0.5-2.8-1.3-4.2-2.1c-3.6-2-7.2-4-10.8-6c-6.7-3.7-13.3-7.5-20-11c-0.1-0.1-0.3-0.1-0.4-0.2
			C62.6,68.1,61.6,68.5,62,68.7L62,68.7z"/>
	</g>
</g>
<g>
	<g>
		<path class="st10" d="M71.4,64.2c6.1,3.3,12.1,6.6,18.2,9.9c3.9,2.1,7.8,4.2,11.7,6.3c1.5,0.8,3,1.7,4.6,2.4
			c2.2,0.9,4.4,1.8,6.6,2.7c1.9,0.7,3.8,1.5,5.7,1.9c1.7,0.3,3.5,0.6,5.1,1.4c1.8,0.9,2.6,2.7,3.5,4.4c0.5,1,1.1,2.1,0.9,3.2
			c0,0.3,0,0.5-0.1,0.8c-0.5,7.8-0.4,15.6-0.5,23.5c-0.1,4.7-0.2,9.4-0.2,14.1c0,2.7-0.3,5.4-0.1,8c0,0.1,0,0.3,0,0.4
			c0,0.3,1.1,0.1,1.1-0.3c0.1-6.3,0.2-12.7,0.3-19c0.1-8.6,0.2-17.2,0.6-25.8c0-0.6,0.1-1.2,0.1-1.9c0.1-1.5-0.7-2.9-1.4-4.2
			c-0.7-1.3-1.4-2.6-2.7-3.4c-2.3-1.4-5.1-1.4-7.6-2.2c-2.4-0.8-4.8-1.8-7.2-2.7c-5.6-2.3-10.7-5.3-16-8.2
			c-7.1-3.8-14.1-7.8-21.2-11.5c-0.1-0.1-0.3-0.1-0.4-0.2C72,63.6,71,64,71.4,64.2L71.4,64.2z"/>
	</g>
</g>
<g>
	<g>
		<path class="st10" d="M75.3,62.3c6.1,3.5,12.1,7,18.2,10.5c3.8,2.2,7.6,4.4,11.4,6.6c1.6,0.9,3,1.8,4.7,2.5
			c4.3,1.7,8.6,3.3,13.1,4.3c1.8,0.4,3.7,1,5.1,2.3c1.4,1.2,2.2,3.1,2.7,4.8c0.4,1.3,0.3,2.3,0.2,3.6c-0.4,7.9-0.3,15.9-0.3,23.8
			c0,4.7-0.1,9.5-0.1,14.2c0,2.7-0.3,5.4,0,8.1c0,0.1,0,0.3,0,0.4c0,0.3,1.1,0.1,1.1-0.3c0-6.4,0.1-12.8,0.1-19.2
			c0.1-8.7,0-17.3,0.3-26c0-0.7,0-1.4,0.1-2c0.3-2.6-1.1-6-3.1-7.8c-2.1-1.9-4.9-2.2-7.5-2.9c-2.5-0.7-4.9-1.6-7.3-2.5
			c-2.2-0.8-4.3-1.5-6.3-2.7c-3.3-1.9-6.6-3.8-9.9-5.7c-7-4.1-14-8.3-21.2-12.2c-0.1-0.1-0.3-0.2-0.4-0.2
			C75.9,61.6,74.9,62.1,75.3,62.3L75.3,62.3z"/>
	</g>
</g>
<g>
	<g>
		<path class="st10" d="M65.9,67c5.9,3.2,11.8,6.5,17.6,9.7c4,2.2,7.9,4.4,11.9,6.6c1.7,0.9,3.3,1.9,5,2.7c3.8,1.8,7.8,3.5,11.8,4.7
			c2.6,0.8,5.5,0.9,7.5,2.9c2,2.1,1.7,4.6,1.5,7.2c-0.1,2,0,4,0,6c0,4.5,0,8.9,0.1,13.4c0,4.7,0.1,9.4,0.1,14.1c0,2.8-0.2,5.6,0,8.4
			c0,0.1,0,0.3,0,0.4c0,0.3,1.1,0.1,1.1-0.3c0-6.5-0.1-13-0.1-19.4c0-7.5-0.2-15-0.1-22.6c0-1.1,0.3-2.5,0.2-3.8
			c-0.3-3.2-2.6-5.1-5.5-6c-1.2-0.4-2.4-0.5-3.5-0.8s-2.2-0.7-3.2-1.1c-2.4-0.9-4.7-1.9-7-2.8C97.9,84,92.9,80.8,87.8,78
			c-6.9-3.8-13.7-7.7-20.6-11.4c-0.1-0.1-0.3-0.1-0.4-0.2C66.5,66.3,65.5,66.7,65.9,67L65.9,67z"/>
	</g>
</g>
<g>
	<g>
		<path class="st10" d="M24.8,87.7c10.2,6.4,20.4,12.7,30.6,19.1c0.9,0.6,1.9,1.5,3,1.7c3.2,0.8,6.5,1.2,9.6,1.7
			c3.6,0.7,7.9,1,10.9,3.2c2.6,2,3.1,5.8,3,8.7c-0.2,6.6-0.3,13.2-0.5,19.8c0,0.4,1.1,0.2,1.1-0.2c0.2-6.1,0.3-12.3,0.5-18.4
			c0.1-2.4,0-4.7-0.8-7.1c-1.5-4.3-6.2-5.3-10.2-6c-3.6-0.7-7.2-1.3-10.8-2c-0.6-0.1-1.2-0.2-1.7-0.3c-0.1,0-0.8-0.2-0.7-0.1
			c-0.4-0.2-0.8-0.5-1.2-0.7c-5.6-3.5-11.3-7-16.9-10.5c-5.1-3.2-10.1-6.3-15.2-9.5C25.4,87.1,24.4,87.5,24.8,87.7L24.8,87.7z"/>
	</g>
</g>
<g>
	<g>
		<path class="st10" d="M27.6,86.2c10.5,6.2,21,12.5,31.5,18.7c1,0.6,1.8,1.2,3,1.5c3.5,0.8,7,1.6,10.4,2.3
			c3.9,0.9,8.7,1.2,11.3,4.6c1.7,2.3,1.6,5.4,1.5,8.2c-0.1,6.9-0.3,13.7-0.5,20.6c0,0.3,1.1,0.1,1.1-0.3c0.2-6.2,0.3-12.5,0.4-18.7
			c0.1-2.6,0.3-5.5-0.4-8c-1.2-4.5-6.5-5.5-10.4-6.4c-3.4-0.7-6.8-1.5-10.2-2.3c-1-0.2-2.2-0.3-3.2-0.7c0.2,0.1-0.1-0.1-0.1-0.1
			c-0.3-0.1-0.5-0.3-0.8-0.5c-5.7-3.4-11.4-6.8-17.2-10.2c-5.2-3.1-10.4-6.2-15.6-9.3C28.2,85.5,27.2,85.9,27.6,86.2L27.6,86.2z"/>
	</g>
</g>
<g>
	<g>
		<path class="st10" d="M33.3,82.8c10.5,6.2,21.1,12.4,31.6,18.7c1,0.6,2,1.4,3.2,1.7c3.2,0.9,6.6,1.5,9.9,2.2
			c4.1,0.9,8.4,1.5,11,5.2c1.4,2,2.2,4,2.2,6.4c0,1.4-0.1,2.8-0.1,4.2c-0.3,7.2-0.7,14.4-1.1,21.7c0,0.4,1.1,0.2,1.1-0.2
			c0.3-6.4,0.7-12.8,1-19.2c0.1-2.7,0.5-5.5,0.2-8.1c-0.3-2.8-2.2-6.1-4.5-7.7c-1.9-1.3-4.2-1.8-6.5-2.3c-3.3-0.7-6.6-1.5-9.9-2.2
			c-0.7-0.2-1.4-0.3-2.1-0.5c-0.1,0-0.7-0.2-0.6-0.1c-0.4-0.2-0.8-0.5-1.2-0.7c-5.9-3.5-11.7-6.9-17.6-10.4
			c-3.3-1.9-6.5-3.9-9.8-5.8c-1.8-1.1-3.6-2.3-5.5-3.3c-0.1,0-0.2-0.1-0.3-0.2C33.9,82.1,32.9,82.5,33.3,82.8L33.3,82.8z"/>
	</g>
</g>
<g>
	<g>
		<path class="st10" d="M36.6,81.6c4.6,2.6,9.2,5.3,13.8,7.9c6.4,3.7,12.8,7.4,19.2,11.1c1.3,0.7,2.1,1.1,3.5,1.4
			c3.6,0.8,7.2,1.6,10.8,2.4c1.9,0.4,4,0.6,5.7,1.6c1.3,0.8,2.1,2.1,2.9,3.4c0.8,1.3,1.5,2.8,1.7,4.4c0.3,2.2-0.1,4.6-0.2,6.8
			c-0.3,7.1-0.5,14.1-0.8,21.2c0,0.2,0,0.3,0,0.5c0,0.4,1.1,0.2,1.1-0.2c0.2-6.4,0.5-12.8,0.7-19.1c0.1-2.8,0.3-5.6,0.3-8.4
			c0-1.9-0.8-3.8-1.8-5.4c-1.3-2.3-2.9-3.8-5.5-4.5c-3.4-0.9-7-1.5-10.5-2.3c-1.7-0.4-3.3-0.7-5-1.1c-0.5-0.1-0.4-0.1-0.9-0.4
			c-5.8-3.3-11.6-6.7-17.4-10c-3.5-2-7-4-10.5-6.1c-2-1.2-4-2.5-6.1-3.5c-0.1,0-0.2-0.1-0.3-0.2C37.2,80.9,36.2,81.3,36.6,81.6
			L36.6,81.6z"/>
	</g>
</g>
<g>
	<g>
		<path class="st10" d="M42.8,78.6c4.9,2.7,9.8,5.5,14.7,8.2c6.4,3.6,12.8,7.2,19.2,10.7c1.5,0.9,3.1,1.2,4.8,1.7
			c3.4,1,6.7,2.1,10.1,2.8c1.5,0.3,3.1,0.7,4.4,1.7c1.3,0.9,2.2,2.4,2.8,3.8c0.6,1.5,0.9,3.2,0.9,4.8c0,2.9-0.1,5.7-0.1,8.6
			c-0.1,7.2-0.5,14.5-0.3,21.7c0,0.2,0,0.3,0,0.5c0,0.3,1.1,0.1,1.1-0.3c0.1-6.4,0.2-12.8,0.3-19.2c0.1-3.5,0.1-7,0.2-10.5
			s-0.6-7.6-3.6-9.8c-1.9-1.4-4.2-1.6-6.4-2.2c-1.6-0.4-3.2-0.9-4.8-1.4c-2-0.6-3.9-1.1-5.9-1.7c-0.5-0.2-1.1-0.3-1.6-0.5
			c-2.1-1-4-2.3-6-3.4c-3.6-2-7.3-4.1-10.9-6.1c-3.7-2.1-7.4-4.2-11.1-6.2c-2.1-1.2-4.2-2.5-6.4-3.6c-0.1-0.1-0.2-0.1-0.3-0.2
			C43.4,77.9,42.4,78.3,42.8,78.6L42.8,78.6z"/>
	</g>
</g>
<g>
	<g>
		<path class="st10" d="M46.1,76.6c5,2.9,10.1,5.8,15.1,8.6c6.4,3.7,12.8,7.3,19.2,11c1.6,0.9,3.6,1.3,5.4,1.8
			c2,0.6,4.1,1.2,6.1,1.8c1.7,0.5,3.5,0.8,5.2,1.3c4.4,1.4,6.2,5.9,6.1,10.3c-0.1,3.2-0.1,6.4-0.2,9.6c-0.1,4.4-0.2,8.9-0.3,13.3
			c-0.1,2.9-0.2,5.8-0.2,8.7c0,0.1,0,0.3,0,0.4c0,0.3,1.1,0.1,1.1-0.3c0.1-6.4,0.3-12.9,0.4-19.3c0.1-3.8,0.1-7.5,0.2-11.3
			c0.1-3.4-0.2-6.8-2.6-9.6c-1.9-2.2-4.6-2.5-7.2-3.1c-1.3-0.3-2.7-0.8-4-1.2c-2.1-0.6-4.2-1.2-6.3-1.8c-0.7-0.2-1.4-0.3-2.1-0.6
			c-2-0.9-3.9-2.2-5.7-3.3c-3.7-2.1-7.4-4.2-11.1-6.3c-3.8-2.2-7.6-4.3-11.3-6.5c-2.2-1.2-4.3-2.6-6.6-3.8c-0.1-0.1-0.2-0.1-0.3-0.2
			C46.7,75.9,45.7,76.4,46.1,76.6L46.1,76.6z"/>
	</g>
</g>
<g>
	<g>
		<g>
			<path class="st11" d="M79.1,142.1c0.2-6.4,0.3-12.8,0.6-19.2c0.1-1.3,0.3-2.6-0.1-3.8c-0.8-2.7-3.1-4.7-5.6-5.8
				c-3-1.3-6.1-1.9-9.3-2.5c-2.4-0.5-4.7-0.9-7.1-1.5c-1-0.2-1.3-0.2-1.9-0.9c-1.6-1.9-2.9-4-4.3-6.1c-4.9-7.2-9.6-14.4-14.7-21.4
				c-2.5-3.4-5-6.8-7.8-9.9c-1.8-2.1-3.8-4.4-6.3-5.9c-0.4-0.2-0.8-0.4-1.2-0.6c-0.4-0.1-1.3,0.5-0.7,0.7c2.3,0.7,4.2,3,5.8,4.7
				c2.7,2.9,5.1,6.1,7.5,9.3c5.2,7,10.1,14.3,15,21.5c1.6,2.4,3.2,4.8,4.9,7.1c0.4,0.5,0.8,1.2,1.3,1.6c1,0.8,2.7,0.8,3.9,1.1
				c3.1,0.7,6.3,1.1,9.4,1.9c4.8,1.2,10.5,3.6,10,9.5c-0.5,6.6-0.4,13.2-0.6,19.8c0,0.2,0,0.4,0,0.6C77.9,142.7,79,142.5,79.1,142.1
				L79.1,142.1z"/>
		</g>
	</g>
	<g>
		<g>
			<path class="st11" d="M88.2,142.3c0.2-6.8,0.3-13.6,0.5-20.5c0-1.4,0.1-2.8,0.1-4.3c0.1-1.7,0.2-3-0.6-4.6
				c-2.2-4.1-6.9-5.4-11.1-6.3c-1.9-0.4-3.9-0.9-5.8-1.3c-1.2-0.3-2.4-0.5-3.5-0.8c-0.5-0.1-1.6-0.3-1.9-0.5c-0.5-0.3-0.9-1-1.2-1.5
				c-0.8-1-1.5-2.1-2.2-3.2c-5-7.4-9.8-14.8-15-22c-2.7-3.7-5.4-7.3-8.4-10.8c-2-2.3-4.2-4.8-6.8-6.3c-0.4-0.2-0.9-0.4-1.3-0.6
				c-0.4-0.1-1.3,0.4-0.7,0.6c2.5,0.7,4.7,3.3,6.4,5.1c2.9,3.1,5.5,6.5,8,10c5.4,7.4,10.4,15,15.4,22.5c1.4,2.1,2.7,4.3,4.3,6.2
				c0.5,0.6,1,0.7,1.8,0.9c2.3,0.6,4.6,1.1,6.9,1.6c3.5,0.8,7.1,1.3,10.2,3c2.8,1.5,4.8,4.2,4.4,7.4c-0.1,0.9-0.1,1.8-0.1,2.8
				c-0.2,7.4-0.4,14.8-0.6,22.1c0,0.2,0,0.4,0,0.6C87.1,142.9,88.2,142.7,88.2,142.3L88.2,142.3z"/>
		</g>
	</g>
	<g>
		<g>
			<path class="st11" d="M97.3,142.4c0.1-7.1,0.3-14.1,0.5-21.2c0.1-3-0.1-6,0.2-9c0.1-0.7,0.2-1.5,0.1-2.3
				c-0.3-1.7-1.5-3.2-2.8-4.4c-2-1.8-4.8-2.6-7.4-3.2c-3.5-0.8-7-1.7-10.6-2.6c-1-0.3-1.8-0.3-2.4-1c-0.6-0.8-1.2-1.7-1.8-2.5
				c-4.9-7.4-9.7-14.9-14.8-22.2c-2.8-3.9-5.7-7.8-8.8-11.5c-2.2-2.5-4.5-5.4-7.5-7c-0.4-0.2-0.9-0.4-1.4-0.6
				c-0.3-0.1-1.2,0.3-0.9,0.4c2.8,0.7,5.1,3.4,6.9,5.5c3.2,3.5,6,7.2,8.8,11c5.4,7.5,10.4,15.2,15.5,23c0.7,1.1,1.4,2.2,2.2,3.3
				c0.3,0.4,0.6,1.1,1.1,1.4c0.4,0.3,1.2,0.3,1.6,0.5c1.2,0.3,2.3,0.6,3.5,0.9c2,0.5,4,1.1,6,1.5c1.5,0.4,3,0.7,4.5,1.2
				c3.1,1.1,6.6,3.4,7,7.1c0.1,1-0.2,2.2-0.2,3.2c0,1.6-0.1,3.2-0.1,4.8c-0.2,7.8-0.4,15.7-0.5,23.5c0,0.2,0,0.3,0,0.5
				C96.2,142.9,97.3,142.7,97.3,142.4L97.3,142.4z"/>
		</g>
	</g>
	<g>
		<g>
			<path class="st11" d="M106.4,142.7c0.1-7.2,0.3-14.4,0.4-21.6c0.1-4,0.2-7.9,0.3-11.9c0-0.9,0.2-1.8,0.3-2.7
				c0.3-3.2-2.7-6.1-5.4-7.4c-2-0.9-4-1.4-6.1-1.9c-1.8-0.4-3.6-1-5.4-1.5c-1.2-0.3-2.4-0.7-3.7-1c-0.5-0.1-1.7-0.4-1.9-0.5
				c-0.5-0.3-0.9-1.2-1.2-1.6c-4.9-7.3-9.5-14.8-14.5-22c-3-4.2-6-8.4-9.4-12.4c-2.3-2.7-4.9-5.8-8.1-7.5c-0.5-0.3-1-0.5-1.6-0.6
				c-0.3-0.1-1.3,0.4-0.7,0.6c3,0.7,5.5,3.8,7.5,5.9c3.3,3.7,6.3,7.6,9.2,11.7c5.4,7.6,10.4,15.4,15.5,23.2c0.6,0.9,1.1,1.8,1.8,2.7
				c0.5,0.7,1.1,0.7,1.9,1c3.6,1,7.1,2.2,10.8,3c3.1,0.7,6.3,1.8,8.4,4.3c0.7,0.8,1.2,1.7,1.5,2.7c0.3,0.9,0.1,1.7,0,2.6
				c0,0.2,0,0.4,0,0.6c-0.1,3.3-0.2,6.6-0.2,9.9c-0.2,8.1-0.3,16.2-0.5,24.3c0,0.2,0,0.3,0,0.5C105.3,143.3,106.4,143,106.4,142.7
				L106.4,142.7z"/>
		</g>
	</g>
	<g>
		<g>
			<path class="st11" d="M115.5,142.8c0.1-7.3,0.3-14.6,0.4-22c0.1-4.6,0.2-9.2,0.3-13.9c0-1.3,0-2.5,0.1-3.8c0-0.4,0.1-0.6,0.1-0.8
				c0.4-1.8-0.3-3.5-1.4-4.9c-3-3.9-7.9-4.3-12.1-5.6c-2.4-0.8-4.8-1.5-7.3-2.3c-0.9-0.3-1.3-0.3-1.8-1.1
				c-4.7-7.1-9.1-14.5-13.9-21.5c-3.1-4.5-6.3-9-9.9-13.2c-2.4-2.9-5.2-6.2-8.6-8c-0.5-0.3-1.1-0.5-1.7-0.6
				c-0.2-0.1-1.2,0.3-0.9,0.4c3.2,0.7,6,4,8.2,6.3c3.6,4,6.8,8.3,10,12.7c5.3,7.5,10.2,15.4,15.1,23.1c0.3,0.5,0.7,1.3,1.1,1.7
				c0.3,0.3,1,0.3,1.4,0.4c1.2,0.4,2.3,0.7,3.5,1.1c2,0.6,4,1.3,6,1.9c1.9,0.5,3.8,0.8,5.7,1.7c1.9,0.8,3.4,2.1,4.5,3.8
				c0.5,0.7,0.9,1.6,1,2.5c0.1,0.8-0.1,1.3-0.2,2.1c-0.1,0.7-0.1,1.5-0.1,2.2c-0.1,4.1-0.2,8.2-0.3,12.2c-0.2,8.4-0.3,16.8-0.4,25.1
				c0,0.2,0,0.3,0,0.5C114.4,143.2,115.5,143.1,115.5,142.8L115.5,142.8z"/>
		</g>
	</g>
	<g>
		<g>
			<path class="st11" d="M124.6,143c0.1-7.4,0.2-14.9,0.4-22.3c0.1-5.1,0.2-10.2,0.3-15.4c0-1.7,0.1-3.5,0.1-5.2
				c0-0.6,0-1.6,0.1-2.1c0.1-0.7,0.4-1.3,0.3-2.1c-0.1-1-0.6-1.9-1.1-2.7c-1.1-1.6-2.6-2.9-4.3-3.7c-1.8-0.9-4.2-1.3-5.9-1.7
				c-2.2-0.7-4.3-1.5-6.5-2.2c-1.1-0.4-2.2-0.7-3.3-1.1c-0.3-0.1-0.8-0.2-0.9-0.3c-0.6-0.5-1-1.6-1.4-2.3c-1-1.6-1.9-3.1-2.9-4.7
				c-2.8-4.6-5.7-9.1-8.7-13.6c-3.2-4.8-6.6-9.5-10.2-13.9c-2.6-3.2-5.6-6.9-9.4-8.8c-0.6-0.3-1.2-0.5-1.8-0.7
				c-0.3-0.1-1.2,0.4-0.9,0.5c1.5,0.3,2.9,1.2,4.1,2.2c1.7,1.4,3.2,2.9,4.7,4.5c3.8,4.2,7.2,8.9,10.5,13.6
				c5.2,7.4,9.8,15.1,14.6,22.8c0.4,0.7,0.5,0.8,1.3,1c2.4,0.8,4.8,1.6,7.1,2.4c1.3,0.5,2.6,0.9,4,1.2c3.7,0.7,7.3,2.3,9.3,5.7
				c0.4,0.8,0.8,1.7,0.8,2.6c0,0.6-0.2,1-0.3,1.5c0,0.2,0,0.5,0,0.7c0,1.3-0.1,2.6-0.1,3.9c-0.1,4.8-0.2,9.6-0.3,14.3
				c-0.1,8.5-0.5,17-0.4,25.5c0,0.2,0,0.3,0,0.5C123.5,143.5,124.6,143.3,124.6,143L124.6,143z"/>
		</g>
	</g>
	<g>
		<g>
			<path class="st11" d="M133.7,143.2c0.1-7.5,0.2-15,0.3-22.5c0.1-8.9,0.2-17.9,0.5-26.8c0-0.1,0-0.5,0-0.5
				c0.2-0.8,0.4-1.4,0.3-2.2c-0.2-1.1-0.7-2.1-1.4-3c-2.2-3-5.5-4.3-9-5c-1.3-0.2-2.9-0.9-4.4-1.5c-2.2-0.8-4.5-1.5-6.7-2.4
				c-0.4-0.2-0.1,0.1-0.3-0.2c-0.2-0.3-0.4-0.7-0.6-1c-0.8-1.4-1.6-2.7-2.4-4.1c-2.7-4.6-5.6-9.1-8.5-13.6
				c-3.4-5.1-6.9-10.1-10.7-14.8c-2.8-3.4-6-7.4-10.1-9.5c-0.6-0.3-1.2-0.6-1.9-0.7c-0.3,0-1.2,0.4-0.9,0.4c1.6,0.3,3.1,1.3,4.4,2.3
				c1.9,1.5,3.5,3.2,5.1,5c4,4.5,7.5,9.3,10.9,14.3c3.2,4.7,6.3,9.5,9.3,14.4c1,1.7,2,3.4,3,5.1c0.5,0.8,0.8,1.8,1.4,2.5
				s2.1,0.9,2.9,1.2c2.4,0.9,4.8,1.8,7.2,2.6c1.8,0.7,3.7,0.8,5.6,1.6c2.1,0.9,3.9,2.3,5.1,4.3c0.5,0.8,0.9,1.8,1,2.8
				c0,0.7-0.3,1.1-0.4,1.7c-0.1,0.7,0,1.5-0.1,2.2c0,1.8-0.1,3.5-0.1,5.3c-0.1,5.3-0.2,10.6-0.3,15.8c-0.1,5.4-0.2,10.9-0.3,16.3
				c0,3.2-0.2,6.5-0.1,9.7c0,0.2,0,0.3,0,0.5C132.6,143.7,133.7,143.5,133.7,143.2L133.7,143.2z"/>
		</g>
	</g>
</g>
<path class="st12" d="M75,128.5"/>
<path class="st13" d="M75.9,51.7"/>
<path class="st13" d="M96,58.7"/>
<path class="st14" d="M95.3,62.1"/>
<path class="st13" d="M84,47"/>
<path class="st15" d="M60.3,113.5c-1.3,1.4,2.5,1.2,4.1,0.4"/>
<g>
	<path class="st15" d="M118.3,80.8c0.1,0,3.6-0.9,2.8,0.2c-0.4,0.1-0.7,0.3-1,0.4"/>
</g>
<path class="st15" d="M124.9,144.8"/>
<path class="st15" d="M36.4,118.9"/>
<path class="st15" d="M54.9,109.7"/>
<g>
	<path class="st15" d="M55.6,113.1c-0.1,0.4,0.4,0.3,1.2,0c1.1-0.4,2.8-2.1,4.4-2.4"/>
	<g>
		<path class="st15" d="M113.9,79.1c0.1,0,3-0.8,2.2,0.3c0,0-2.3,0.8-3.2,2.6"/>
	</g>
	<g>
		<path class="st15" d="M111.8,80.1c-3.8-0.1-6.9,2.9-7.4,3.8"/>
	</g>
	<g>
		<path class="st15" d="M102.7,85.2c-3.8-0.1-6.9,2.9-7.4,3.8"/>
	</g>
	<g>
		<path class="st15" d="M93,90c-3.8-0.1-6.9,2.9-7.4,3.8"/>
	</g>
	<g>
		<path class="st15" d="M83.7,95.2c-3.8-0.1-6.9,2.9-7.4,3.8"/>
	</g>
	<g>
		<path class="st15" d="M74.6,100.2c-3.8-0.1-6.9,2.9-7.4,3.8"/>
	</g>
	<g>
		<path class="st15" d="M65.1,105.2c-3.8-0.1-6.9,2.9-7.4,3.8"/>
	</g>
	<g>
		<g>
			<path class="st15" d="M111.3,82.7c-3.8-0.1-6.9,2.9-7.4,3.8"/>
		</g>
		<g>
			<path class="st15" d="M102.2,87.7c-3.8-0.1-6.9,2.9-7.4,3.8"/>
		</g>
		<g>
			<path class="st15" d="M92.6,92.6c-3.8-0.1-6.9,2.9-7.4,3.8"/>
		</g>
		<g>
			<path class="st15" d="M83.3,97.7c-3.8-0.1-6.9,2.9-7.4,3.8"/>
		</g>
		<g>
			<path class="st15" d="M74.2,102.7c-3.8-0.1-6.9,2.9-7.4,3.8"/>
		</g>
		<g>
			<path class="st15" d="M64.7,107.7c-3.8-0.1-6.9,2.9-7.4,3.8"/>
		</g>
	</g>
	<path class="st15" d="M51.5,111.9c0,0,1.8-1.5,3.7-2.1"/>
</g>
<g>
	<g>
		<path class="st15" d="M110.8,84.9c-3.8-0.1-6.9,2.9-7.4,3.8"/>
	</g>
	<g>
		<path class="st15" d="M119.8,80.6c-3.8-0.1-6.9,2.9-7.4,3.8"/>
	</g>
	<g>
		<path class="st15" d="M101.7,89.9c-3.8-0.1-6.9,2.9-7.4,3.8"/>
	</g>
	<g>
		<path class="st15" d="M92,94.8c-3.8-0.1-6.9,2.9-7.4,3.8"/>
	</g>
	<g>
		<path class="st15" d="M82.7,99.9c-3.8-0.1-6.9,2.9-7.4,3.8"/>
	</g>
	<g>
		<path class="st15" d="M73.6,105c-3.8-0.1-6.9,2.9-7.4,3.8"/>
	</g>
	<g>
		<path class="st15" d="M64.1,109.9c-2.2-0.1-4.3,1.3-5.6,2.3"/>
	</g>
</g>
<g>
	<g>
		<path class="st15" d="M126.2,83c1.2-0.6-0.8-1.9-2.2-1.4c0,0-2.3,0.8-3.2,2.6"/>
	</g>
	<g>
		<path class="st15" d="M119.7,82.4c-3.8-0.1-6.9,2.9-7.4,3.8"/>
	</g>
	<g>
		<path class="st15" d="M110.6,87.4c-3.8-0.1-6.9,2.9-7.4,3.8"/>
	</g>
	<g>
		<path class="st15" d="M100.9,92.2c-3.8-0.1-6.9,2.9-7.4,3.8"/>
	</g>
	<g>
		<path class="st15" d="M91.6,97.4c-3.8-0.1-6.9,2.9-7.4,3.8"/>
	</g>
	<g>
		<path class="st15" d="M82.5,102.4c-3.8-0.1-6.9,2.9-7.4,3.8"/>
	</g>
	<g>
		<path class="st15" d="M73,107.4c-3.8-0.1-6.6,2.6-7.1,3.4"/>
	</g>
	<g>
		<g>
			<path class="st15" d="M119.2,84.9c-3.8-0.1-6.9,2.9-7.4,3.8"/>
		</g>
		<g>
			<path class="st15" d="M110.1,89.9c-3.8-0.1-6.9,2.9-7.4,3.8"/>
		</g>
		<g>
			<path class="st15" d="M100.4,94.8c-3.8-0.1-6.9,2.9-7.4,3.8"/>
		</g>
		<g>
			<path class="st15" d="M91.1,99.9c-3.8-0.1-6.9,2.9-7.4,3.8"/>
		</g>
		<g>
			<path class="st15" d="M82,105c-3.8-0.1-6.4,2.4-6.9,3.3"/>
		</g>
		<g>
			<path class="st15" d="M72.5,109.9c-3.8-0.1-6.3,2.3-6.8,3.1"/>
		</g>
	</g>
	<path class="st15" d="M60.2,113.6c0,0,1.5-1.5,4.1-2"/>
</g>
<g>
	<g>
		<path class="st15" d="M118.7,87.1c-3.8-0.1-6.9,2.9-7.4,3.8"/>
	</g>
	<g>
		<path class="st15" d="M126.4,83c-3.8-0.1-5.6,2.7-6.1,3.6"/>
	</g>
	<g>
		<path class="st15" d="M109.6,92.2c-3.8-0.1-6.9,2.9-7.4,3.8"/>
	</g>
	<g>
		<path class="st15" d="M99.9,97c-3.8-0.1-6.9,2.9-7.4,3.8"/>
	</g>
	<g>
		<path class="st15" d="M90.6,102.1c-3.8-0.1-6.9,2.9-7.4,3.8"/>
	</g>
	<g>
		<path class="st15" d="M81.5,107.2c-3.8-0.1-6.2,2.2-6.8,3.1"/>
	</g>
	<g>
		<path class="st15" d="M72,112.2c-2.2-0.1-4.5,2.6-4.5,2.6"/>
	</g>
</g>
<g>
	<path class="st15" d="M133.7,86.3c1.5,0.3,0.9,1.7,0.4,1.9"/>
</g>
<g>
	<path class="st15" d="M72.9,116.4c-0.1,0.4-1.3,2-0.5,1.7c1.1-0.4,2.8-2.1,4.4-2.4"/>
	<g>
		<path class="st15" d="M129.4,84.1c0.1,0,3-0.8,2.2,0.3c0,0-2.3,0.8-3.2,2.6"/>
	</g>
	<g>
		<path class="st15" d="M127.3,85.2c-3.8-0.1-6.9,2.9-7.4,3.8"/>
	</g>
	<g>
		<path class="st15" d="M118.2,90.2c-3.8-0.1-6.9,2.9-7.4,3.8"/>
	</g>
	<g>
		<path class="st15" d="M108.5,95c-3.8-0.1-6.9,2.9-7.4,3.8"/>
	</g>
	<g>
		<path class="st15" d="M99.2,100.2c-3.8-0.1-6.9,2.9-7.4,3.8"/>
	</g>
	<g>
		<path class="st15" d="M90.1,105.2c-3.8-0.1-6.3,2.3-6.8,3.2"/>
	</g>
	<g>
		<path class="st15" d="M81.2,109.7c-3.8-0.1-6.8,2.8-7.4,3.6"/>
	</g>
	<g>
		<g>
			<path class="st15" d="M126.9,87.7c-3.8-0.1-6.9,2.9-7.4,3.8"/>
		</g>
		<g>
			<path class="st15" d="M117.8,92.8c-3.8-0.1-6.9,2.9-7.4,3.8"/>
		</g>
		<g>
			<path class="st15" d="M108.1,97.6c-3.8-0.1-6.9,2.9-7.4,3.8"/>
		</g>
		<g>
			<path class="st15" d="M98.8,102.7c-3.8-0.1-6.9,2.9-7.4,3.8"/>
		</g>
		<g>
			<path class="st15" d="M89.7,107.8c-3.8-0.1-6.9,2.9-7.4,3.8"/>
		</g>
		<g>
			<path class="st15" d="M80.2,112.8c-3.8-0.1-6.9,2.9-7.4,3.8"/>
		</g>
	</g>
	<path class="st15" d="M67.2,114.9c-1.6,2.4,5-0.7,5-0.7"/>
</g>
<g>
	<g>
		<path class="st15" d="M125.2,90.5c-3.8-0.1-6.9,2.9-7.4,3.8"/>
	</g>
	<g>
		<path class="st15" d="M134.1,86.3c-3.8-0.1-6.9,2.9-7.4,3.8"/>
	</g>
	<g>
		<path class="st15" d="M116,95.6c-3.8-0.1-6.9,2.9-7.4,3.8"/>
	</g>
	<g>
		<path class="st15" d="M106.4,100.4c-3.8-0.1-6.9,2.9-7.4,3.8"/>
	</g>
	<g>
		<path class="st15" d="M97.1,105.6c-3.8-0.1-6.9,2.9-7.4,3.8"/>
	</g>
	<g>
		<path class="st15" d="M88,110.6c-3.8-0.1-6.9,2.9-7.4,3.8"/>
	</g>
	<g>
		<path class="st15" d="M78.5,115.6c-2.2-0.1-4.3,1-5.6,2"/>
	</g>
</g>
<path class="st15" d="M77.2,117.5c-4,2.2-2.7,3.2-1.6,3.2"/>
<g>
	<path class="st15" d="M132.6,91.7c0.1,0,3.1-1.4,3.7-0.2c0.4,0.8-0.6,1-1.6,1.5"/>
</g>
<g>
	<path class="st15" d="M132.5,89c-3.8-0.1-6.9,2.9-7.4,3.8"/>
</g>
<g>
	<path class="st15" d="M123.4,94c-3.8-0.1-6.9,2.9-7.4,3.8"/>
</g>
<g>
	<path class="st15" d="M113.8,98.8c-3.8-0.1-6.9,2.9-7.4,3.8"/>
</g>
<g>
	<path class="st15" d="M104.1,104.3c-3.8-0.1-6.2,2.2-6.7,3"/>
</g>
<g>
	<path class="st15" d="M94.8,109.3c-3.8-0.1-5.8,2.1-6.3,3"/>
</g>
<g>
	<path class="st15" d="M86.7,113.5c-3.8-0.1-7.1,2.5-7.6,3.4"/>
</g>
<g>
	<g>
		<path class="st15" d="M130.2,92.8c-3.8-0.1-6.9,2.9-7.4,3.8"/>
	</g>
	<g>
		<path class="st15" d="M121.1,97.8c-3.8-0.1-6.9,2.9-7.4,3.8"/>
	</g>
	<g>
		<path class="st15" d="M111.4,102.6c-3.8-0.1-6.9,2.9-7.4,3.8"/>
	</g>
	<g>
		<path class="st15" d="M102.1,107.8c-3.8-0.1-6,2-6.6,2.9"/>
	</g>
	<g>
		<path class="st15" d="M93,112.2c-3.8-0.1-5.2,2.2-5.7,3.1"/>
	</g>
	<g>
		<path class="st15" d="M84.6,116.4c-3.1,0.4-4.3,1.6-6.5,3.2"/>
	</g>
</g>
<g>
	<g>
		<path class="st16" d="M118.2,101.6c-3.5-0.1-6.5,2.7-7,3.6"/>
	</g>
	<g>
		<path class="st16" d="M127.4,97.1c-3.5-0.1-6.5,2.7-7,3.6"/>
	</g>
	<g>
		<path class="st16" d="M109.2,106.1c-3.5-0.1-6.5,2.7-7,3.6"/>
	</g>
	<g>
		<path class="st16" d="M100,111c-3.5-0.1-6.5,2.7-7,3.6"/>
	</g>
	<g>
		<path class="st16" d="M90.2,115.9c-3.5-0.1-6.5,2.7-7,3.6"/>
	</g>
	<g>
		<path class="st16" d="M81.5,120.3c-2.3-0.1-4.3,1.1-5.6,2.1c-0.7,0.6-1.4,1.2-0.2,1.4"/>
	</g>
	<g>
		<path class="st16" d="M135.1,92.8c-3,0.5-5.3,2.7-5.7,3.5"/>
	</g>
</g>
<path class="st15" d="M77.5,124c-4,2.1-2.8,3.1-1.6,3.1"/>
<g>
	<path class="st15" d="M132.7,98.9c0.1,0,3.1-1.4,3.7-0.1c0.4,0.8-0.6,1-1.6,1.5"/>
</g>
<g>
	<path class="st15" d="M133.3,96.5c-3.8-0.2-7,2.8-7.5,3.6"/>
</g>
<g>
	<path class="st15" d="M124.1,101.4c-3.8-0.2-7,2.8-7.5,3.6"/>
</g>
<g>
	<path class="st15" d="M114.4,106c-3.8-0.2-7,2.8-7.5,3.6"/>
</g>
<g>
	<path class="st15" d="M104.6,111.4c-3.8-0.2-6.2,2-6.7,2.9"/>
</g>
<g>
	<path class="st15" d="M95.9,115.3c-3.8-0.2-5.8,2-6.4,2.9"/>
</g>
<g>
	<path class="st15" d="M87.5,119.5c-3.8-0.2-7.1,2.4-7.7,3.3"/>
</g>
<g>
	<g>
		<path class="st15" d="M130.5,100c-3.8-0.2-7,2.8-7.5,3.6"/>
	</g>
	<g>
		<path class="st15" d="M121.3,104.9c-3.8-0.2-7,2.8-7.5,3.6"/>
	</g>
	<g>
		<path class="st15" d="M111.6,109.6c-3.8-0.2-7,2.8-7.5,3.6"/>
	</g>
	<g>
		<path class="st15" d="M102.2,114.5c-3.8-0.2-6.1,1.9-6.6,2.8"/>
	</g>
	<g>
		<path class="st15" d="M93,118.8c-3.8-0.2-5.2,2.1-5.7,3"/>
	</g>
	<g>
		<path class="st15" d="M84.5,122.8c-3.1,0.4-4.4,1.5-6.5,3"/>
	</g>
</g>
<g>
	<g>
		<path class="st16" d="M118.4,108.6c-3.5-0.1-6.5,2.6-7,3.4"/>
	</g>
	<g>
		<path class="st16" d="M127.7,104.2c-3.5-0.1-6.5,2.6-7,3.4"/>
	</g>
	<g>
		<path class="st16" d="M109.3,112.9c-3.5-0.1-6.5,2.6-7,3.4"/>
	</g>
	<g>
		<path class="st16" d="M100.1,117.7c-3.5-0.1-6.5,2.6-7,3.4"/>
	</g>
	<g>
		<path class="st16" d="M90.1,122.3c-3.5-0.1-6.5,2.6-7,3.4"/>
	</g>
	<g>
		<path class="st16" d="M81.4,126.6c-2.3-0.1-4.3,1-5.6,2c-0.7,0.6-1.4,1.2-0.2,1.4"/>
	</g>
	<g>
		<path class="st16" d="M135.5,100.1c-3,0.4-5.3,2.6-5.8,3.4"/>
	</g>
</g>
<path class="st15" d="M77.3,131.1c-4,2.1-2.8,3.1-1.6,3.1"/>
<g>
	<path class="st15" d="M132.5,106c0.1,0,3.1-1.4,3.7-0.1c0.4,0.8-0.6,1-1.6,1.5"/>
</g>
<g>
	<path class="st15" d="M133.2,103.5c-3.8-0.2-7,2.8-7.5,3.6"/>
</g>
<g>
	<path class="st15" d="M124,108.4c-3.8-0.2-7,2.8-7.5,3.6"/>
</g>
<g>
	<path class="st15" d="M114.2,113.1c-3.8-0.2-7,2.8-7.5,3.6"/>
</g>
<g>
	<path class="st15" d="M104.4,118.4c-3.8-0.2-6.2,2-6.7,2.9"/>
</g>
<g>
	<path class="st15" d="M95.4,122.3c-3.8-0.2-5.8,2-6.4,2.9"/>
</g>
<g>
	<path class="st15" d="M87,126.4c-3.8-0.2-7.1,2.4-7.7,3.3"/>
</g>
<g>
	<g>
		<path class="st15" d="M130.4,107c-3.8-0.2-7,2.8-7.5,3.6"/>
	</g>
	<g>
		<path class="st15" d="M121.2,111.9c-3.8-0.2-7,2.8-7.5,3.6"/>
	</g>
	<g>
		<path class="st15" d="M111.4,116.5c-3.8-0.2-7,2.8-7.5,3.6"/>
	</g>
	<g>
		<path class="st15" d="M102,121.5c-3.8-0.2-6.1,1.9-6.6,2.8"/>
	</g>
	<g>
		<path class="st15" d="M92.9,125.7c-3.8-0.2-5.2,2.1-5.7,3"/>
	</g>
	<g>
		<path class="st15" d="M84.3,129.8c-3.1,0.4-4.4,1.5-6.5,3"/>
	</g>
</g>
<g>
	<g>
		<path class="st16" d="M118.2,115.6c-3.5-0.1-6.5,2.6-7,3.4"/>
	</g>
	<g>
		<path class="st16" d="M127.6,111.3c-3.5-0.1-6.5,2.6-7,3.4"/>
	</g>
	<g>
		<path class="st16" d="M109.2,119.9c-3.5-0.1-6.5,2.6-7,3.4"/>
	</g>
	<g>
		<path class="st16" d="M99.9,124.7c-3.5-0.1-6.5,2.6-7,3.4"/>
	</g>
	<g>
		<path class="st16" d="M89.9,129.4c-3.5-0.1-6.5,2.6-7,3.4"/>
	</g>
	<g>
		<path class="st16" d="M81.2,133.7c-2.3-0.1-4.3,1-5.6,2c-0.7,0.6-1.4,1.2-0.2,1.4"/>
	</g>
	<g>
		<path class="st16" d="M135.3,107.2c-3,0.4-5.3,2.6-5.8,3.4"/>
	</g>
</g>
<path class="st15" d="M76.3,138c-4,2.1-2.8,3.1-1.6,3.1"/>
<g>
	<path class="st15" d="M132,113.3c0.1,0,3.1-1.4,3.7-0.1c0.4,0.8-0.6,1-1.6,1.5"/>
</g>
<g>
	<path class="st15" d="M132.6,110.8c-3.8-0.2-7,2.8-7.5,3.6"/>
</g>
<g>
	<path class="st15" d="M123.4,115.7c-3.8-0.2-7,2.8-7.5,3.6"/>
</g>
<g>
	<path class="st15" d="M114.2,120c-3.8-0.2-7,2.8-7.5,3.6"/>
</g>
<g>
	<path class="st15" d="M104.7,125.2c-3.8-0.2-6.2,2-6.7,2.9"/>
</g>
<g>
	<path class="st15" d="M95.5,129.5c-3.8-0.2-5.8,2-6.4,2.9"/>
</g>
<g>
	<path class="st15" d="M86.8,133.7c-3.8-0.2-7.1,2.4-7.7,3.3"/>
</g>
<g>
	<g>
		<path class="st15" d="M129.8,114.3c-3.8-0.2-7,2.8-7.5,3.6"/>
	</g>
	<g>
		<path class="st15" d="M120.6,119.2c-3.8-0.2-7,2.8-7.5,3.6"/>
	</g>
	<g>
		<path class="st15" d="M110.8,123.9c-3.8-0.2-7,2.8-7.5,3.6"/>
	</g>
	<g>
		<path class="st15" d="M101.5,128.9c-3.8-0.2-6.1,1.9-6.6,2.8"/>
	</g>
	<g>
		<path class="st15" d="M92.3,133.1c-3.8-0.2-5.2,2.1-5.7,3"/>
	</g>
	<g>
		<path class="st15" d="M83.8,137.1c-3.1,0.4-4.4,1.5-6.5,3"/>
	</g>
</g>
<g>
	<g>
		<path class="st16" d="M117.7,122.9c-3.5-0.1-6.5,2.6-7,3.4"/>
	</g>
	<g>
		<path class="st16" d="M127,118.6c-3.5-0.1-6.5,2.6-7,3.4"/>
	</g>
	<g>
		<path class="st16" d="M108.6,127.2c-3.5-0.1-6.5,2.6-7,3.4"/>
	</g>
	<g>
		<path class="st16" d="M99.3,132c-3.5-0.1-6.5,2.6-7,3.4"/>
	</g>
	<g>
		<path class="st16" d="M89.4,136.7c-3.5-0.1-6.5,2.6-7,3.4"/>
	</g>
	<g>
		<path class="st16" d="M80.7,141c-2.3-0.1-4.3,1-5.6,2c-0.7,0.6-1.4,1.2-0.2,1.4"/>
	</g>
	<g>
		<path class="st16" d="M134.7,114.5c-3,0.4-5.3,2.6-5.8,3.4"/>
	</g>
</g>
<g>
	<path class="st15" d="M132.2,120.6c0.1,0,3.1-1.4,3.7-0.1c0.4,0.8-0.6,1-1.6,1.5"/>
</g>
<g>
	<path class="st15" d="M132.8,118.1c-3.8-0.2-7,2.8-7.5,3.6"/>
</g>
<g>
	<path class="st15" d="M123.6,123c-3.8-0.2-7,2.8-7.5,3.6"/>
</g>
<g>
	<path class="st15" d="M114.3,127.3c-3.8-0.2-7,2.8-7.5,3.6"/>
</g>
<g>
	<path class="st15" d="M104.8,132.4c-3.8-0.2-6.2,2-6.7,2.9"/>
</g>
<g>
	<path class="st15" d="M95.6,136.8c-3.8-0.2-5.8,2-6.4,2.9"/>
</g>
<g>
	<path class="st15" d="M87,141c-3.8-0.2-7.1,2.4-7.7,3.3"/>
</g>
<g>
	<g>
		<path class="st15" d="M130,121.6c-3.8-0.2-7,2.8-7.5,3.6"/>
	</g>
	<g>
		<path class="st15" d="M120.8,126.5c-3.8-0.2-7,2.8-7.5,3.6"/>
	</g>
	<g>
		<path class="st15" d="M111,131.1c-3.8-0.2-7,2.8-7.5,3.6"/>
	</g>
	<g>
		<path class="st15" d="M101.6,136.1c-3.8-0.2-6.1,1.9-6.6,2.8"/>
	</g>
	<g>
		<path class="st15" d="M92.5,140.3c-3.8-0.2-5.2,2.1-5.7,3"/>
	</g>
</g>
<g>
	<g>
		<path class="st16" d="M117.8,130.2c-3.5-0.1-6.5,2.6-7,3.4"/>
	</g>
	<g>
		<path class="st16" d="M127.2,125.8c-3.5-0.1-6.5,2.6-7,3.4"/>
	</g>
	<g>
		<path class="st16" d="M108.8,134.5c-3.5-0.1-6.5,2.6-7,3.4"/>
	</g>
	<g>
		<path class="st16" d="M99.5,139.3c-3.5-0.1-6.5,2.6-7,3.4"/>
	</g>
	<g>
		<path class="st16" d="M134.9,121.8c-3,0.4-5.3,2.6-5.8,3.4"/>
	</g>
</g>
<g>
	<path class="st15" d="M131.7,128.5c0.1,0,3.1-1.4,3.7-0.1c0.4,0.8-0.6,1-1.6,1.5"/>
</g>
<g>
	<path class="st15" d="M132.4,126c-3.8-0.2-7,2.8-7.5,3.6"/>
</g>
<g>
	<path class="st15" d="M123.2,130.9c-3.8-0.2-7,2.8-7.5,3.6"/>
</g>
<g>
	<path class="st15" d="M113.9,135.2c-3.8-0.2-7,2.8-7.5,3.6"/>
</g>
<g>
	<path class="st15" d="M104.4,140.4c-3.8-0.2-6.2,2-6.7,2.9"/>
</g>
<g>
	<g>
		<path class="st15" d="M129.6,129.5c-3.8-0.2-7,2.8-7.5,3.6"/>
	</g>
	<g>
		<path class="st15" d="M120.4,134.4c-3.8-0.2-7,2.8-7.5,3.6"/>
	</g>
	<g>
		<path class="st15" d="M110.6,139.1c-3.8-0.2-7,2.8-7.5,3.6"/>
	</g>
</g>
<g>
	<g>
		<path class="st16" d="M117.4,138.1c-3.5-0.1-6.5,2.6-7,3.4"/>
	</g>
	<g>
		<path class="st16" d="M126.7,133.8c-3.5-0.1-6.5,2.6-7,3.4"/>
	</g>
	<g>
		<path class="st16" d="M134.5,129.7c-3,0.4-5.3,2.6-5.8,3.4"/>
	</g>
</g>
<g>
	<path class="st15" d="M132,135.6c0.1,0,3.1-1.4,3.7-0.1c0.4,0.8-0.6,1-1.6,1.5"/>
</g>
<g>
	<path class="st15" d="M132.6,133.1c-3.8-0.2-7,2.8-7.5,3.6"/>
</g>
<g>
	<path class="st15" d="M123.4,138c-3.8-0.2-7,2.8-7.5,3.6"/>
</g>
<g>
	<g>
		<path class="st15" d="M129.8,136.6c-3.8-0.2-7,2.8-7.5,3.6"/>
	</g>
	<g>
		<path class="st15" d="M120.6,141.5c-3.8-0.2-7,2.8-7.5,3.6"/>
	</g>
</g>
<g>
	<g>
		<path class="st16" d="M127,140.9c-3.5-0.1-6.5,2.6-7,3.4"/>
	</g>
	<g>
		<path class="st16" d="M134.7,136.8c-3,0.4-5.3,2.6-5.8,3.4"/>
	</g>
</g>
<g>
	<path class="st15" d="M132,142.9c0.1,0,3.1-1.4,3.7-0.1c0.4,0.8-0.6,1-1.6,1.5"/>
</g>
<g>
	<path class="st15" d="M132.6,140.4c-3.8-0.2-7,2.8-7.5,3.6"/>
</g>
<g>
	<g>
		<polygon class="st17" points="4.2,52.6 10.2,55.8 10.2,101 4.2,97.3 		"/>
		<g>
			<g>
				<path class="st1" d="M3.4,100.3c-0.6,0-1.3-0.3-1.6-1c-0.5-0.9-0.1-2,0.8-2.4l3.9-2.1c0.9-0.5,1.9-0.1,2.4,0.8s0.1,2-0.8,2.4
					l-3.9,2.1C4,100.2,3.7,100.3,3.4,100.3z"/>
			</g>
			<g>
				<path class="st1" d="M3.3,73.5c-0.7,0-1.3-0.4-1.6-1c-0.4-0.9-0.1-2,0.8-2.4l3.6-1.8C7,67.9,8,68.2,8.5,69.1
					c0.4,0.9,0.1,2-0.8,2.4l-3.6,1.8C3.8,73.5,3.6,73.5,3.3,73.5z"/>
			</g>
			<polygon class="st18" points="3.9,52.6 95.8,6.7 101.7,9.8 10.2,55.8 			"/>
		</g>
	</g>
</g>
</svg>
