<?xml version="1.0" encoding="utf-8"?>
<!-- Generator: Adobe Illustrator 25.2.3, SVG Export Plug-In . SVG Version: 6.00 Build 0)  -->
<svg version="1.1" id="Layer_1" xmlns="http://www.w3.org/2000/svg" xmlns:xlink="http://www.w3.org/1999/xlink" x="0px" y="0px"
	 viewBox="0 0 152.1 142.4" style="enable-background:new 0 0 152.1 142.4;" xml:space="preserve">
<style type="text/css">
	.st0{fill:#E4DAD8;stroke:#FFFFFF;stroke-width:0.3149;stroke-miterlimit:10;}
	.st1{fill:#C2AAA7;stroke:#FFFFFF;stroke-width:0.1611;stroke-miterlimit:10;}
	.st2{fill:#CFBCBC;stroke:#FFFFFF;stroke-width:0.3149;stroke-miterlimit:10;}
	.st3{fill:#E4DAD8;stroke:#FFFFFF;stroke-width:0.1574;stroke-miterlimit:10;}
	.st4{fill:#E4DAD8;stroke:#FFFFFF;stroke-width:0.1996;stroke-miterlimit:10;}
	.st5{fill:#5E5756;stroke:#FFFFFF;stroke-width:0.1574;stroke-miterlimit:10;}
	.st6{fill:#E4DAD8;stroke:#FFFFFF;stroke-width:0.3149;stroke-linejoin:bevel;stroke-miterlimit:10;}
	.st7{fill:#CFBCBC;stroke:#FFFFFF;stroke-width:0.3149;stroke-linejoin:bevel;stroke-miterlimit:10;}
	.st8{fill:#C2AAA7;}
	.st9{fill:#24234C;}
	.st10{fill:none;stroke:#24234C;stroke-width:0.1574;stroke-miterlimit:10;}
	.st11{fill:none;stroke:#24234C;stroke-width:0.1574;stroke-linecap:round;stroke-miterlimit:10;}
	.st12{fill:#ED6D47;}
	.st13{fill:#DC3359;}
	.st14{fill:none;stroke:#BF282E;stroke-width:0.3957;stroke-miterlimit:10;}
	.st15{fill:none;stroke:#000000;stroke-width:1.187;stroke-miterlimit:10;}
	.st16{fill:none;stroke:#000000;stroke-width:1.187;stroke-linecap:round;stroke-miterlimit:10;}
	.st17{fill:none;stroke:#24234C;stroke-width:0.6297;stroke-linecap:round;stroke-miterlimit:10;}
	.st18{fill:none;stroke:#24234C;stroke-width:0.5914;stroke-linecap:round;stroke-miterlimit:10;}
</style>
<polygon class="st0" points="5.6,96.4 95.8,51.2 102.1,54.3 11.9,99.5 "/>
<g>
	<path class="st1" d="M9.8,96.6c-0.6,0-1.3-0.4-1.6-1c-0.4-0.9-0.1-2,0.8-2.4l101-51.1c0.9-0.4,1.9-0.1,2.4,0.8
		c0.4,0.9,0.1,2-0.8,2.4l-101,51.1C10.3,96.5,10.1,96.6,9.8,96.6z"/>
</g>
<path class="st2" d="M146.7,74.3l-91.4,45.8l-0.7,11.8c0,0,1.5,1.5,5.9-1.5c0,0,87.7-44.6,89.2-45.4s2.2-4.9,1.4-7.4
	C150.3,75.2,146.7,74.3,146.7,74.3z"/>
<path class="st3" d="M55.4,120.2l-0.6,12c0,0,5.6,2,5.7-4.3C60.5,121.5,55.4,120.2,55.4,120.2z"/>
<path class="st4" d="M7,69.1"/>
<g>
	<g>
		<path class="st5" d="M17.7,90.2c-0.3,0-0.5-0.2-0.5-0.5l-0.1-25.8c0-0.3,0.2-0.5,0.5-0.5l0,0c0.3,0,0.5,0.2,0.5,0.5l0.1,25.8
			C18.2,90,18,90.2,17.7,90.2L17.7,90.2z"/>
	</g>
	<path class="st5" d="M20.9,88.6c-0.3,0-0.5-0.2-0.5-0.5l-0.1-25.8c0-0.3,0.2-0.5,0.5-0.5l0,0c0.3,0,0.5,0.2,0.5,0.5l0.1,25.8
		C21.4,88.4,21.2,88.6,20.9,88.6L20.9,88.6z"/>
	<path class="st5" d="M24.1,87.1c-0.3,0-0.5-0.2-0.5-0.5l-0.1-25.8c0-0.3,0.2-0.5,0.5-0.5l0,0c0.3,0,0.5,0.2,0.5,0.5l0.1,25.8
		C24.6,86.9,24.4,87.1,24.1,87.1L24.1,87.1z"/>
	<path class="st5" d="M27.3,85.5c-0.3,0-0.5-0.2-0.5-0.5l-0.1-25.8c0-0.3,0.2-0.5,0.5-0.5l0,0c0.3,0,0.5,0.2,0.5,0.5L27.8,85
		C27.8,85.3,27.6,85.5,27.3,85.5L27.3,85.5z"/>
	<path class="st5" d="M30.5,83.9c-0.3,0-0.5-0.2-0.5-0.5V57.7c0-0.3,0.2-0.5,0.5-0.5l0,0c0.3,0,0.5,0.2,0.5,0.5l0.1,25.8
		C31,83.7,30.8,83.9,30.5,83.9L30.5,83.9z"/>
	<path class="st5" d="M33.7,82.4c-0.3,0-0.5-0.2-0.5-0.5l-0.1-25.8c0-0.3,0.2-0.5,0.5-0.5l0,0c0.3,0,0.5,0.2,0.5,0.5l0.1,25.8
		C34.2,82.2,34,82.4,33.7,82.4L33.7,82.4z"/>
	<path class="st5" d="M36.9,80.8c-0.3,0-0.5-0.2-0.5-0.5l-0.1-25.8c0-0.3,0.2-0.5,0.5-0.5l0,0c0.3,0,0.5,0.2,0.5,0.5l0.1,25.8
		C37.4,80.6,37.2,80.8,36.9,80.8L36.9,80.8z"/>
	<path class="st5" d="M40.1,79.2c-0.3,0-0.5-0.2-0.5-0.5l-0.1-25.8c0-0.3,0.2-0.5,0.5-0.5l0,0c0.3,0,0.5,0.2,0.5,0.5l0.1,25.8
		C40.6,79,40.4,79.2,40.1,79.2L40.1,79.2z"/>
	<path class="st5" d="M43.3,77.7c-0.3,0-0.5-0.2-0.5-0.5l-0.1-25.8c0-0.3,0.2-0.5,0.5-0.5l0,0c0.3,0,0.5,0.2,0.5,0.5l0.1,25.8
		C43.8,77.5,43.6,77.7,43.3,77.7L43.3,77.7z"/>
	<path class="st5" d="M46.5,76.1c-0.3,0-0.5-0.2-0.5-0.5V49.9c0-0.3,0.2-0.5,0.5-0.5l0,0c0.3,0,0.5,0.2,0.5,0.5l0.1,25.8
		C47,75.9,46.8,76.1,46.5,76.1L46.5,76.1z"/>
	<path class="st5" d="M49.7,74.6c-0.3,0-0.5-0.2-0.5-0.5l-0.1-25.8c0-0.3,0.2-0.5,0.5-0.5l0,0c0.3,0,0.5,0.2,0.5,0.5l0.1,25.8
		C50.2,74.3,50,74.6,49.7,74.6L49.7,74.6z"/>
	<path class="st5" d="M52.9,73c-0.3,0-0.5-0.2-0.5-0.5l-0.1-25.8c0-0.3,0.2-0.5,0.5-0.5l0,0c0.3,0,0.5,0.2,0.5,0.5l0.1,25.8
		C53.4,72.8,53.2,73,52.9,73L52.9,73z"/>
	<path class="st5" d="M56.1,71.4c-0.3,0-0.5-0.2-0.5-0.5l-0.1-25.8c0-0.3,0.2-0.5,0.5-0.5l0,0c0.3,0,0.5,0.2,0.5,0.5l0.1,25.8
		C56.6,71.2,56.4,71.4,56.1,71.4L56.1,71.4z"/>
	<path class="st5" d="M59.3,69.9c-0.3,0-0.5-0.2-0.5-0.5l-0.1-25.8c0-0.3,0.2-0.5,0.5-0.5l0,0c0.3,0,0.5,0.2,0.5,0.5l0.1,25.8
		C59.8,69.6,59.6,69.9,59.3,69.9L59.3,69.9z"/>
	<path class="st5" d="M62.5,68.3c-0.3,0-0.5-0.2-0.5-0.5V42c0-0.3,0.2-0.5,0.5-0.5l0,0c0.3,0,0.5,0.2,0.5,0.5l0.1,25.8
		C63,68.1,62.8,68.3,62.5,68.3L62.5,68.3z"/>
	<path class="st5" d="M65.7,66.7c-0.3,0-0.5-0.2-0.5-0.5l-0.1-25.8c0-0.3,0.2-0.5,0.5-0.5l0,0c0.3,0,0.5,0.2,0.5,0.5l0.1,25.8
		C66.2,66.5,66,66.7,65.7,66.7L65.7,66.7z"/>
	<path class="st5" d="M68.9,65.2c-0.3,0-0.5-0.2-0.5-0.5V38.9c0-0.3,0.2-0.5,0.5-0.5l0,0c0.3,0,0.5,0.2,0.5,0.5l0.1,25.8
		C69.4,64.9,69.2,65.2,68.9,65.2L68.9,65.2z"/>
	<path class="st5" d="M72.1,63.6c-0.3,0-0.5-0.2-0.5-0.5l-0.1-25.8c0-0.3,0.2-0.5,0.5-0.5l0,0c0.3,0,0.5,0.2,0.5,0.5l0.1,25.8
		C72.6,63.4,72.4,63.6,72.1,63.6L72.1,63.6z"/>
	<path class="st5" d="M75.3,62c-0.3,0-0.5-0.2-0.5-0.5l-0.1-25.8c0-0.3,0.2-0.5,0.5-0.5l0,0c0.3,0,0.5,0.2,0.5,0.5l0.1,25.8
		C75.8,61.8,75.6,62,75.3,62L75.3,62z"/>
	<g>
		<path class="st5" d="M78.5,60.5c-0.3,0-0.5-0.2-0.5-0.5V34.2c0-0.3,0.2-0.5,0.5-0.5l0,0c0.3,0,0.5,0.2,0.5,0.5L79.1,60
			C79,60.2,78.8,60.5,78.5,60.5L78.5,60.5z"/>
	</g>
</g>
<g>
	<path class="st1" d="M5.2,71.8c-0.7,0-1.3-0.4-1.6-1c-0.4-0.9-0.1-2,0.8-2.4l103.9-52c0.9-0.4,1.9-0.1,2.4,0.8
		c0.4,0.9,0.1,2-0.8,2.4L6,71.6C5.7,71.7,5.4,71.8,5.2,71.8z"/>
</g>
<g>
	<g>
		<polygon class="st6" points="3.4,51.1 10,54.5 11.8,99.5 5.7,96.4 		"/>
		<g>
			<g>
				<path class="st1" d="M4.8,98.8c-0.6,0-1.3-0.3-1.6-1c-0.5-0.9-0.1-2,0.8-2.4l3.9-2.1c0.9-0.5,1.9-0.1,2.4,0.8
					c0.5,0.9,0.1,2-0.8,2.4l-3.9,2.1C5.4,98.7,5.1,98.8,4.8,98.8z"/>
			</g>
			<g>
				<path class="st1" d="M3.5,72.6c-0.7,0-1.3-0.4-1.6-1c-0.4-0.9-0.1-2,0.8-2.4l3.6-1.8c0.9-0.4,1.9-0.1,2.4,0.8
					c0.4,0.9,0.1,2-0.8,2.4l-3.6,1.8C4,72.6,3.7,72.6,3.5,72.6z"/>
			</g>
			<polygon class="st0" points="95.7,5.6 95.8,51.3 101.9,54.5 101.9,8.6 			"/>
			<polygon class="st7" points="3.6,51.1 95.9,5.4 101.8,8.6 10,54.5 			"/>
		</g>
	</g>
	<g>
		<path class="st1" d="M92.2,24.5l3.7-1.9c0.9-0.5,1.9-0.1,2.4,0.8s0.1,2-0.8,2.4l-3.7,1.9"/>
	</g>
	<g>
		<path class="st1" d="M94.2,50.1l2.7-1.4c0.9-0.5,1.9-0.1,2.4,0.8s0.1,2-0.7,2.4l-2,1"/>
	</g>
</g>
<path class="st4" d="M96.3,48.4"/>
<g>
	<g>
		<path class="st0" d="M38.8,114c0.5,1.2-1.3,3.8-2.6,4.7C35,119.6,13.5,130,11.8,131c-1.8,1.1-6.1,2.1-7.1,2.2s-2.3,0.2-3.1-1
			s2.8-4.1,4-5.2c1.2-1.1,26.1-13.2,27.3-13.4C34,113.5,38.3,112.8,38.8,114z"/>
		<path class="st0" d="M1.5,132.3c0,0,1.3-0.2,3.7-1s10.1-5,10.1-5l21-10.5l2.5-1.7"/>
		<ellipse class="st8" cx="32" cy="119.4" rx="0.6" ry="0.6"/>
		<path class="st0" d="M10.6,124.9c-0.3,0.1-1,1.1,0.5,1.5c1.5,0.5,2.9-0.4,2.9-0.4l17.5-8.5c0,0,0.8-0.7,0.1-1.5
			c-0.8-0.8-2.4-0.1-2.4-0.1S10.9,124.7,10.6,124.9z"/>
		<path class="st3" d="M16.2,124.9c0,0,0.4-1.2-0.7-1.2s-4.9,1.6-4.9,1.9s1.2,1.2,2.4,0.8S16.2,124.9,16.2,124.9z"/>
		<path class="st3" d="M10.4,126c-0.1-0.3,0.3-1,1.3-0.7s1.2,0.9,0.9,1.1C12.2,126.8,10.5,126.3,10.4,126z"/>
	</g>
	<g>
		<g>
			<path class="st9" d="M51.3,110.7c-4.8,2.2-9.6,4.3-14.4,6.3c-1.7,0.7-3.4,1.4-5.1,2.2c0,0,0.4,0.5,0.6,0.5
				c1.7-0.8,3.4-1.5,5.1-2.2c4.8-2,9.6-4.1,14.4-6.3C51.9,111.2,51.4,110.7,51.3,110.7L51.3,110.7z"/>
		</g>
	</g>
	<g>
		<path class="st10" d="M29.9,118.1c-0.1-0.1,0.5-2-1.4-1.1"/>
		<path class="st11" d="M29.6,118.2c-0.1-0.2,0.5-2-1.4-1.1"/>
		<path class="st11" d="M29.3,118.4c-0.1-0.2,0.5-1.9-1.4-1.1"/>
		<path class="st11" d="M29.1,118.5c-0.1-0.2,0.4-1.9-1.5-1.1"/>
		<path class="st11" d="M28.8,118.7c-0.1-0.2,0.4-1.9-1.5-1.1"/>
		<path class="st11" d="M28.5,118.8c-0.1-0.3,0.4-1.9-1.5-1.1"/>
		<path class="st11" d="M28.2,118.9c-0.1-0.3,0.3-1.9-1.5-1.1"/>
		<path class="st11" d="M27.9,119.1c-0.1-0.3,0.3-1.9-1.5-1.1"/>
		<path class="st11" d="M27.6,119.2c-0.1-0.3,0.3-1.9-1.5-1.1"/>
		<path class="st11" d="M27.4,119.3c-0.1-0.4,0.2-1.9-1.5-1.1"/>
		<path class="st11" d="M27.1,119.5c-0.1-0.4,0.2-1.9-1.5-1.1"/>
		<path class="st11" d="M26.8,119.6c-0.1-0.4,0.1-1.9-1.6-1.1"/>
		<path class="st11" d="M26.5,119.8c-0.1-0.4,0.1-1.9-1.6-1.1"/>
		<path class="st11" d="M26.2,119.9c-0.1-0.5,0.1-1.9-1.6-1.1"/>
		<path class="st11" d="M25.9,120c-0.1-0.5,0-1.9-1.6-1.1"/>
		<path class="st11" d="M25.7,120.2c-0.1-0.5,0-1.9-1.6-1.1"/>
		<path class="st11" d="M25.4,120.3c-0.1-0.5,0-1.8-1.6-1"/>
		<path class="st11" d="M25.1,120.4c-0.1-0.6-0.1-1.8-1.6-1"/>
		<path class="st11" d="M24.8,120.6c-0.1-0.6-0.1-1.8-1.7-1"/>
		<path class="st11" d="M24.5,120.7c-0.1-0.6-0.1-1.8-1.7-1"/>
		<path class="st11" d="M24.3,120.9c-0.1-0.6-0.2-1.8-1.7-1"/>
		<path class="st11" d="M24,121c-0.1-0.7-0.2-1.8-1.7-1"/>
		<path class="st11" d="M23.7,121.1c-0.1-0.7-0.3-1.8-1.7-1"/>
		<path class="st11" d="M23.4,121.3c-0.1-0.7-0.3-1.8-1.7-1"/>
		<path class="st11" d="M23.1,121.4c-0.1-0.7-0.3-1.8-1.7-1"/>
		<path class="st11" d="M22.8,121.5c-0.1-0.8-0.4-1.8-1.8-1"/>
		<path class="st11" d="M22.6,121.7c-0.1-0.8-0.4-1.8-1.8-1"/>
		<path class="st11" d="M22.3,121.8c-0.1-0.8-0.4-1.8-1.8-1"/>
		<path class="st11" d="M22,122c-0.1-0.8-0.5-1.8-1.8-1"/>
		<path class="st11" d="M21.7,122.1c-0.1-0.9-0.5-1.8-1.8-1"/>
		<path class="st11" d="M21.4,122.2c-0.1-0.9-0.5-1.8-1.8-1"/>
		<path class="st11" d="M21.1,122.4c0-0.9-0.6-1.7-1.8-1"/>
		<path class="st11" d="M20.9,122.5c0-0.9-0.6-1.7-1.8-1"/>
		<path class="st11" d="M20.6,122.6c0-1-0.7-1.7-1.9-1"/>
		<path class="st11" d="M20.3,122.8c0-1-0.7-1.7-1.9-1"/>
		<path class="st11" d="M20,122.9c0-1-0.7-1.7-1.9-1"/>
		<path class="st11" d="M19.7,123.1c0-1-0.8-1.7-1.9-0.9"/>
		<path class="st11" d="M19.4,123.2c0-1.1-0.8-1.7-1.9-0.9"/>
		<path class="st11" d="M19.2,123.3c0-1.1-0.8-1.7-1.9-0.9"/>
		<path class="st11" d="M18.9,123.5c0-1.1-0.9-1.7-1.9-0.9"/>
		<path class="st11" d="M18.6,123.6c0-1.2-0.9-1.7-2-0.9"/>
		<path class="st11" d="M18.3,123.7c0-1.2-0.9-1.7-2-0.9"/>
		<path class="st11" d="M18,123.9c0-1.2-1-1.7-2-0.9"/>
		<path class="st11" d="M17.7,124c0-1.2-1-1.7-2-0.9"/>
		<path class="st11" d="M17.5,124.2c0-1.3-1.1-1.7-2-0.9"/>
		<path class="st11" d="M17.2,124.3c0-1.3-1.1-1.7-2-0.9"/>
		<path class="st11" d="M16.9,124.4c0-1.3-1.1-1.6-2-0.9"/>
		<path class="st11" d="M16.6,124.6c0-1.3-1.2-1.6-2.1-0.9"/>
		<path class="st11" d="M16.3,124.7c0-1.4-1.2-1.6-2.1-0.9"/>
		<path class="st11" d="M16,124.8c0-1.4-1.2-1.6-2.1-0.9"/>
		<path class="st11" d="M15.8,125c0-1.4-1.3-1.6-2.1-0.9"/>
		<path class="st11" d="M15.5,125.1c0-1.4-1.3-1.6-2.1-0.9"/>
	</g>
</g>
<g>
	<g>
		<path class="st12" d="M17.3,90.5c10.1,5.6,20.3,11.3,30.3,17.2c1.7,1,3.5,2,5.1,3.2c2.4,1.8,5.8,1.9,8.7,2.2
			c3.5,0.3,6.6,0.2,9.9,1.8c2.3,1.1,4.7,3.7,4.7,6.4c0,0.7-0.1,1.5-0.2,2.2c-0.1,6.1-0.3,12.3-0.4,18.4c0,0.3,1.1,0.1,1.1-0.3
			c0.1-5.6,0.2-11.2,0.4-16.9c0-0.9,0-1.8,0.1-2.7c0.2-1.9-0.3-3.4-1.5-5c-2.3-3.1-6.3-4.1-9.9-4.3c-1.8-0.1-3.6-0.2-5.3-0.5
			c-1.8-0.2-3.8-0.4-5.5-1.2c-1.5-0.7-2.9-1.9-4.4-2.8c-6-3.6-12.2-7-18.3-10.5c-4.6-2.6-9.2-5.2-13.9-7.8
			C17.9,89.8,16.9,90.2,17.3,90.5L17.3,90.5z"/>
	</g>
</g>
<g>
	<g>
		<path class="st12" d="M52.2,72.9c5.1,2.8,10.2,5.5,15.3,8.3c6.6,3.6,13.2,7.1,19.9,10.7c1.8,1,3.7,1.6,5.6,2.2
			c2.1,0.8,4.3,1.5,6.5,2.1c2.7,0.6,5.5,1,7.5,3.1c1.7,1.8,2.8,4.9,2.5,7.3c-0.1,0.8-0.1,1.6-0.2,2.4c-0.2,3.7-0.3,7.4-0.4,11
			c-0.1,4.5-0.3,9-0.4,13.6c-0.1,2.8-0.3,5.7-0.2,8.5c0,0.1,0,0.3,0,0.4c0,0.3,1.1,0.1,1.1-0.3c0.2-6.4,0.3-12.8,0.5-19.3
			c0.1-4.2,0.2-8.4,0.4-12.5c0.1-2.5,0.6-5-0.2-7.4c-0.9-3-2.6-5.1-5.6-6.2c-2.2-0.8-4.5-1.1-6.8-1.8c-2.9-0.9-6-1.8-8.8-3.1
			C83,89,77.2,85.6,71.4,82.5c-3.8-2.1-7.7-4.2-11.5-6.2c-2.2-1.2-4.4-2.5-6.7-3.6c-0.1-0.1-0.2-0.1-0.3-0.2
			C52.8,72.2,51.8,72.6,52.2,72.9L52.2,72.9z"/>
	</g>
</g>
<g>
	<g>
		<path class="st12" d="M55.7,70.9c5.3,2.8,10.7,5.7,16,8.5c6.5,3.4,12.9,6.9,19.4,10.3c2.3,1.2,4.8,2.2,7.2,3.2
			c1.9,0.8,3.8,1.5,5.8,1.9c3.6,0.7,6.4,2.4,7.7,5.9c0.6,1.5,0.8,2.9,0.7,4.5c0,1,0,2-0.1,3c-0.1,3.9-0.1,7.9-0.2,11.8
			c-0.1,4.5-0.2,9.1-0.2,13.6c0,2.8-0.3,5.6-0.1,8.4c0,0.1,0,0.3,0,0.4c0,0.3,1.1,0.1,1.1-0.3c0.1-6.4,0.2-12.7,0.3-19.1
			c0.1-6.3,0-13,0.4-19c0.1-1.4-0.5-2.9-1-4.2c-0.6-1.4-1.4-2.6-2.6-3.5c-2.2-1.6-4.8-1.8-7.2-2.6c-3.5-1.1-7.1-2.7-10.4-4.3
			c-5.6-2.8-11.1-5.9-16.7-8.9c-4-2.1-8-4.3-12-6.4c-2.3-1.2-4.6-2.6-7-3.7c-0.1-0.1-0.2-0.1-0.3-0.2C56.3,70.2,55.3,70.7,55.7,70.9
			L55.7,70.9z"/>
	</g>
</g>
<g>
	<g>
		<path class="st12" d="M61.9,68c5.7,3.2,11.4,6.3,17.2,9.5c3.9,2.2,7.8,4.3,11.7,6.5c1.8,1,3.6,2.1,5.4,3c1.2,0.5,2.5,0.9,3.7,1.3
			c2.3,0.8,4.7,1.7,7.1,2.4c1.8,0.6,3.6,1,5.5,1.4c3.3,0.8,5.5,3.2,5.9,6.6c0.2,1.4-0.1,2.7-0.2,4.1c-0.1,1.2-0.1,2.4-0.1,3.6
			c0,4.3,0,8.5,0,12.8c0,4.7,0,9.5,0.1,14.2c0,2.9-0.2,5.8,0.1,8.6c0,0.1,0,0.3,0,0.4c0,0.3,1.1,0.1,1.1-0.3
			c-0.1-6.6-0.1-13.2-0.1-19.8c0-4.6,0-9.3,0-13.9c0-2.2-0.2-4.6,0.2-6.7c0.5-2.8-0.1-5.7-1.9-7.8c-1.6-1.9-3.9-2.2-6.2-2.7
			c-4.4-1-8.7-2.8-13-4.3c-1.5-0.5-2.8-1.3-4.2-2.1c-3.6-2-7.2-4-10.8-6c-6.7-3.7-13.3-7.5-20-11c-0.1-0.1-0.3-0.1-0.4-0.2
			C62.5,67.4,61.5,67.8,61.9,68L61.9,68z"/>
	</g>
</g>
<g>
	<g>
		<path class="st12" d="M71.3,63.5c6.1,3.3,12.1,6.6,18.2,9.9c3.9,2.1,7.8,4.2,11.7,6.3c1.5,0.8,3,1.7,4.6,2.4
			c2.2,0.9,4.4,1.8,6.6,2.7c1.9,0.7,3.8,1.5,5.7,1.9c1.7,0.3,3.5,0.6,5.1,1.4c1.8,0.9,2.6,2.7,3.5,4.4c0.5,1,1.1,2.1,0.9,3.2
			c0,0.3,0,0.5-0.1,0.8c-0.5,7.8-0.4,15.6-0.5,23.5c-0.1,4.7-0.2,9.4-0.2,14.1c0,2.7-0.3,5.4-0.1,8c0,0.1,0,0.3,0,0.4
			c0,0.3,1.1,0.1,1.1-0.3c0.1-6.3,0.2-12.7,0.3-19c0.1-8.6,0.2-17.2,0.6-25.8c0-0.6,0.1-1.2,0.1-1.9c0.1-1.5-0.7-2.9-1.4-4.2
			c-0.7-1.3-1.4-2.6-2.7-3.4c-2.3-1.4-5.1-1.4-7.6-2.2c-2.4-0.8-4.8-1.8-7.2-2.7c-5.6-2.3-10.7-5.3-16-8.2
			C86.8,71,79.8,67,72.7,63.3c-0.1-0.1-0.3-0.1-0.4-0.2C71.9,62.9,70.9,63.3,71.3,63.5L71.3,63.5z"/>
	</g>
</g>
<g>
	<g>
		<path class="st12" d="M75.2,61.6c6.1,3.5,12.1,7,18.2,10.5c3.8,2.2,7.6,4.4,11.4,6.6c1.6,0.9,3,1.8,4.7,2.5
			c4.3,1.7,8.6,3.3,13.1,4.3c1.8,0.4,3.7,1,5.1,2.3c1.4,1.2,2.2,3.1,2.7,4.8c0.4,1.3,0.3,2.3,0.2,3.6c-0.4,7.9-0.3,15.9-0.3,23.8
			c0,4.7-0.1,9.5-0.1,14.2c0,2.7-0.3,5.4,0,8.1c0,0.1,0,0.3,0,0.4c0,0.3,1.1,0.1,1.1-0.3c0-6.4,0.1-12.8,0.1-19.2
			c0.1-8.7,0-17.3,0.3-26c0-0.7,0-1.4,0.1-2c0.3-2.6-1.1-6-3.1-7.8c-2.1-1.9-4.9-2.2-7.5-2.9c-2.5-0.7-4.9-1.6-7.3-2.5
			c-2.2-0.8-4.3-1.5-6.3-2.7c-3.3-1.9-6.6-3.8-9.9-5.7c-7-4.1-14-8.3-21.2-12.2c-0.1-0.1-0.3-0.2-0.4-0.2
			C75.8,60.9,74.8,61.4,75.2,61.6L75.2,61.6z"/>
	</g>
</g>
<g>
	<g>
		<path class="st12" d="M65.8,66.3c5.9,3.2,11.8,6.5,17.6,9.7c4,2.2,7.9,4.4,11.9,6.6c1.7,0.9,3.3,1.9,5,2.7
			c3.8,1.8,7.8,3.5,11.8,4.7c2.6,0.8,5.5,0.9,7.5,2.9c2,2.1,1.7,4.6,1.5,7.2c-0.1,2,0,4,0,6c0,4.5,0,8.9,0.1,13.4
			c0,4.7,0.1,9.4,0.1,14.1c0,2.8-0.2,5.6,0,8.4c0,0.1,0,0.3,0,0.4c0,0.3,1.1,0.1,1.1-0.3c0-6.5-0.1-13-0.1-19.4
			c0-7.5-0.2-15-0.1-22.6c0-1.1,0.3-2.5,0.2-3.8c-0.3-3.2-2.6-5.1-5.5-6c-1.2-0.4-2.4-0.5-3.5-0.8s-2.2-0.7-3.2-1.1
			c-2.4-0.9-4.7-1.9-7-2.8c-5.4-2.3-10.4-5.5-15.5-8.3c-6.9-3.8-13.7-7.7-20.6-11.4c-0.1-0.1-0.3-0.1-0.4-0.2
			C66.4,65.6,65.4,66,65.8,66.3L65.8,66.3z"/>
	</g>
</g>
<g>
	<g>
		<path class="st12" d="M24.7,87c10.2,6.4,20.4,12.7,30.6,19.1c0.9,0.6,1.9,1.5,3,1.7c3.2,0.8,6.5,1.2,9.6,1.7
			c3.6,0.7,7.9,1,10.9,3.2c2.6,2,3.1,5.8,3,8.7c-0.2,6.6-0.3,13.2-0.5,19.8c0,0.4,1.1,0.2,1.1-0.2c0.2-6.1,0.3-12.3,0.5-18.4
			c0.1-2.4,0-4.7-0.8-7.1c-1.5-4.3-6.2-5.3-10.2-6c-3.6-0.7-7.2-1.3-10.8-2c-0.6-0.1-1.2-0.2-1.7-0.3c-0.1,0-0.8-0.2-0.7-0.1
			c-0.4-0.2-0.8-0.5-1.2-0.7c-5.6-3.5-11.3-7-16.9-10.5c-5.1-3.2-10.1-6.3-15.2-9.5C25.3,86.4,24.3,86.8,24.7,87L24.7,87z"/>
	</g>
</g>
<g>
	<g>
		<path class="st12" d="M27.5,85.5C38,91.7,48.5,98,59,104.2c1,0.6,1.8,1.2,3,1.5c3.5,0.8,7,1.6,10.4,2.3c3.9,0.9,8.7,1.2,11.3,4.6
			c1.7,2.3,1.6,5.4,1.5,8.2c-0.1,6.9-0.3,13.7-0.5,20.6c0,0.3,1.1,0.1,1.1-0.3c0.2-6.2,0.3-12.5,0.4-18.7c0.1-2.6,0.3-5.5-0.4-8
			c-1.2-4.5-6.5-5.5-10.4-6.4c-3.4-0.7-6.8-1.5-10.2-2.3c-1-0.2-2.2-0.3-3.2-0.7c0.2,0.1-0.1-0.1-0.1-0.1c-0.3-0.1-0.5-0.3-0.8-0.5
			c-5.7-3.4-11.4-6.8-17.2-10.2c-5.2-3.1-10.4-6.2-15.6-9.3C28.1,84.8,27.1,85.2,27.5,85.5L27.5,85.5z"/>
	</g>
</g>
<g>
	<g>
		<path class="st12" d="M33.2,82.1c10.5,6.2,21.1,12.4,31.6,18.7c1,0.6,2,1.4,3.2,1.7c3.2,0.9,6.6,1.5,9.9,2.2
			c4.1,0.9,8.4,1.5,11,5.2c1.4,2,2.2,4,2.2,6.4c0,1.4-0.1,2.8-0.1,4.2c-0.3,7.2-0.7,14.4-1.1,21.7c0,0.4,1.1,0.2,1.1-0.2
			c0.3-6.4,0.7-12.8,1-19.2c0.1-2.7,0.5-5.5,0.2-8.1c-0.3-2.8-2.2-6.1-4.5-7.7c-1.9-1.3-4.2-1.8-6.5-2.3c-3.3-0.7-6.6-1.5-9.9-2.2
			c-0.7-0.2-1.4-0.3-2.1-0.5c-0.1,0-0.7-0.2-0.6-0.1c-0.4-0.2-0.8-0.5-1.2-0.7c-5.9-3.5-11.7-6.9-17.6-10.4
			c-3.3-1.9-6.5-3.9-9.8-5.8c-1.8-1.1-3.6-2.3-5.5-3.3c-0.1,0-0.2-0.1-0.3-0.2C33.8,81.4,32.8,81.8,33.2,82.1L33.2,82.1z"/>
	</g>
</g>
<g>
	<g>
		<path class="st12" d="M36.5,80.9c4.6,2.6,9.2,5.3,13.8,7.9c6.4,3.7,12.8,7.4,19.2,11.1c1.3,0.7,2.1,1.1,3.5,1.4
			c3.6,0.8,7.2,1.6,10.8,2.4c1.9,0.4,4,0.6,5.7,1.6c1.3,0.8,2.1,2.1,2.9,3.4c0.8,1.3,1.5,2.8,1.7,4.4c0.3,2.2-0.1,4.6-0.2,6.8
			c-0.3,7.1-0.5,14.1-0.8,21.2c0,0.2,0,0.3,0,0.5c0,0.4,1.1,0.2,1.1-0.2c0.2-6.4,0.5-12.8,0.7-19.1c0.1-2.8,0.3-5.6,0.3-8.4
			c0-1.9-0.8-3.8-1.8-5.4c-1.3-2.3-2.9-3.8-5.5-4.5c-3.4-0.9-7-1.5-10.5-2.3c-1.7-0.4-3.3-0.7-5-1.1c-0.5-0.1-0.4-0.1-0.9-0.4
			c-5.8-3.3-11.6-6.7-17.4-10c-3.5-2-7-4-10.5-6.1c-2-1.2-4-2.5-6.1-3.5c-0.1,0-0.2-0.1-0.3-0.2C37.1,80.2,36.1,80.6,36.5,80.9
			L36.5,80.9z"/>
	</g>
</g>
<g>
	<g>
		<path class="st12" d="M42.7,77.9c4.9,2.7,9.8,5.5,14.7,8.2c6.4,3.6,12.8,7.2,19.2,10.7c1.5,0.9,3.1,1.2,4.8,1.7
			c3.4,1,6.7,2.1,10.1,2.8c1.5,0.3,3.1,0.7,4.4,1.7c1.3,0.9,2.2,2.4,2.8,3.8c0.6,1.5,0.9,3.2,0.9,4.8c0,2.9-0.1,5.7-0.1,8.6
			c-0.1,7.2-0.5,14.5-0.3,21.7c0,0.2,0,0.3,0,0.5c0,0.3,1.1,0.1,1.1-0.3c0.1-6.4,0.2-12.8,0.3-19.2c0.1-3.5,0.1-7,0.2-10.5
			s-0.6-7.6-3.6-9.8c-1.9-1.4-4.2-1.6-6.4-2.2c-1.6-0.4-3.2-0.9-4.8-1.4c-2-0.6-3.9-1.1-5.9-1.7c-0.5-0.2-1.1-0.3-1.6-0.5
			c-2.1-1-4-2.3-6-3.4c-3.6-2-7.3-4.1-10.9-6.1c-3.7-2.1-7.4-4.2-11.1-6.2c-2.1-1.2-4.2-2.5-6.4-3.6c-0.1-0.1-0.2-0.1-0.3-0.2
			C43.3,77.2,42.3,77.6,42.7,77.9L42.7,77.9z"/>
	</g>
</g>
<g>
	<g>
		<path class="st12" d="M46,75.9c5,2.9,10.1,5.8,15.1,8.6c6.4,3.7,12.8,7.3,19.2,11c1.6,0.9,3.6,1.3,5.4,1.8c2,0.6,4.1,1.2,6.1,1.8
			c1.7,0.5,3.5,0.8,5.2,1.3c4.4,1.4,6.2,5.9,6.1,10.3c-0.1,3.2-0.1,6.4-0.2,9.6c-0.1,4.4-0.2,8.9-0.3,13.3c-0.1,2.9-0.2,5.8-0.2,8.7
			c0,0.1,0,0.3,0,0.4c0,0.3,1.1,0.1,1.1-0.3c0.1-6.4,0.3-12.9,0.4-19.3c0.1-3.8,0.1-7.5,0.2-11.3c0.1-3.4-0.2-6.8-2.6-9.6
			c-1.9-2.2-4.6-2.5-7.2-3.1c-1.3-0.3-2.7-0.8-4-1.2c-2.1-0.6-4.2-1.2-6.3-1.8c-0.7-0.2-1.4-0.3-2.1-0.6c-2-0.9-3.9-2.2-5.7-3.3
			c-3.7-2.1-7.4-4.2-11.1-6.3c-3.8-2.2-7.6-4.3-11.3-6.5c-2.2-1.2-4.3-2.6-6.6-3.8c-0.1-0.1-0.2-0.1-0.3-0.2
			C46.6,75.2,45.6,75.7,46,75.9L46,75.9z"/>
	</g>
</g>
<g>
	<g>
		<g>
			<path class="st13" d="M79,141.4c0.2-6.4,0.3-12.8,0.6-19.2c0.1-1.3,0.3-2.6-0.1-3.8c-0.8-2.7-3.1-4.7-5.6-5.8
				c-3-1.3-6.1-1.9-9.3-2.5c-2.4-0.5-4.7-0.9-7.1-1.5c-1-0.2-1.3-0.2-1.9-0.9c-1.6-1.9-2.9-4-4.3-6.1c-4.9-7.2-9.6-14.4-14.7-21.4
				c-2.5-3.4-5-6.8-7.8-9.9c-1.8-2.1-3.8-4.4-6.3-5.9c-0.4-0.2-0.8-0.4-1.2-0.6c-0.4-0.1-1.3,0.5-0.7,0.7c2.3,0.7,4.2,3,5.8,4.7
				c2.7,2.9,5.1,6.1,7.5,9.3c5.2,7,10.1,14.3,15,21.5c1.6,2.4,3.2,4.8,4.9,7.1c0.4,0.5,0.8,1.2,1.3,1.6c1,0.8,2.7,0.8,3.9,1.1
				c3.1,0.7,6.3,1.1,9.4,1.9c4.8,1.2,10.5,3.6,10,9.5c-0.5,6.6-0.4,13.2-0.6,19.8c0,0.2,0,0.4,0,0.6C77.8,142,78.9,141.8,79,141.4
				L79,141.4z"/>
		</g>
	</g>
	<g>
		<g>
			<path class="st13" d="M88.1,141.6c0.2-6.8,0.3-13.6,0.5-20.5c0-1.4,0.1-2.8,0.1-4.3c0.1-1.7,0.2-3-0.6-4.6
				c-2.2-4.1-6.9-5.4-11.1-6.3c-1.9-0.4-3.9-0.9-5.8-1.3c-1.2-0.3-2.4-0.5-3.5-0.8c-0.5-0.1-1.6-0.3-1.9-0.5c-0.5-0.3-0.9-1-1.2-1.5
				c-0.8-1-1.5-2.1-2.2-3.2c-5-7.4-9.8-14.8-15-22c-2.7-3.7-5.4-7.3-8.4-10.8c-2-2.3-4.2-4.8-6.8-6.3c-0.4-0.2-0.9-0.4-1.3-0.6
				c-0.4-0.1-1.3,0.4-0.7,0.6c2.5,0.7,4.7,3.3,6.4,5.1c2.9,3.1,5.5,6.5,8,10C50,82,55,89.6,60,97.1c1.4,2.1,2.7,4.3,4.3,6.2
				c0.5,0.6,1,0.7,1.8,0.9c2.3,0.6,4.6,1.1,6.9,1.6c3.5,0.8,7.1,1.3,10.2,3c2.8,1.5,4.8,4.2,4.4,7.4c-0.1,0.9-0.1,1.8-0.1,2.8
				c-0.2,7.4-0.4,14.8-0.6,22.1c0,0.2,0,0.4,0,0.6C87,142.2,88.1,142,88.1,141.6L88.1,141.6z"/>
		</g>
	</g>
	<g>
		<g>
			<path class="st13" d="M97.2,141.7c0.1-7.1,0.3-14.1,0.5-21.2c0.1-3-0.1-6,0.2-9c0.1-0.7,0.2-1.5,0.1-2.3
				c-0.3-1.7-1.5-3.2-2.8-4.4c-2-1.8-4.8-2.6-7.4-3.2c-3.5-0.8-7-1.7-10.6-2.6c-1-0.3-1.8-0.3-2.4-1c-0.6-0.8-1.2-1.7-1.8-2.5
				c-4.9-7.4-9.7-14.9-14.8-22.2c-2.8-3.9-5.7-7.8-8.8-11.5c-2.2-2.5-4.5-5.4-7.5-7c-0.4-0.2-0.9-0.4-1.4-0.6
				c-0.3-0.1-1.2,0.3-0.9,0.4c2.8,0.7,5.1,3.4,6.9,5.5c3.2,3.5,6,7.2,8.8,11c5.4,7.5,10.4,15.2,15.5,23c0.7,1.1,1.4,2.2,2.2,3.3
				c0.3,0.4,0.6,1.1,1.1,1.4c0.4,0.3,1.2,0.3,1.6,0.5c1.2,0.3,2.3,0.6,3.5,0.9c2,0.5,4,1.1,6,1.5c1.5,0.4,3,0.7,4.5,1.2
				c3.1,1.1,6.6,3.4,7,7.1c0.1,1-0.2,2.2-0.2,3.2c0,1.6-0.1,3.2-0.1,4.8c-0.2,7.8-0.4,15.7-0.5,23.5c0,0.2,0,0.3,0,0.5
				C96.1,142.2,97.2,142,97.2,141.7L97.2,141.7z"/>
		</g>
	</g>
	<g>
		<g>
			<path class="st13" d="M106.3,142c0.1-7.2,0.3-14.4,0.4-21.6c0.1-4,0.2-7.9,0.3-11.9c0-0.9,0.2-1.8,0.3-2.7
				c0.3-3.2-2.7-6.1-5.4-7.4c-2-0.9-4-1.4-6.1-1.9c-1.8-0.4-3.6-1-5.4-1.5c-1.2-0.3-2.4-0.7-3.7-1c-0.5-0.1-1.7-0.4-1.9-0.5
				c-0.5-0.3-0.9-1.2-1.2-1.6c-4.9-7.3-9.5-14.8-14.5-22c-3-4.2-6-8.4-9.4-12.4c-2.3-2.7-4.9-5.8-8.1-7.5c-0.5-0.3-1-0.5-1.6-0.6
				c-0.3-0.1-1.3,0.4-0.7,0.6c3,0.7,5.5,3.8,7.5,5.9c3.3,3.7,6.3,7.6,9.2,11.7c5.4,7.6,10.4,15.4,15.5,23.2c0.6,0.9,1.1,1.8,1.8,2.7
				c0.5,0.7,1.1,0.7,1.9,1c3.6,1,7.1,2.2,10.8,3c3.1,0.7,6.3,1.8,8.4,4.3c0.7,0.8,1.2,1.7,1.5,2.7c0.3,0.9,0.1,1.7,0,2.6
				c0,0.2,0,0.4,0,0.6c-0.1,3.3-0.2,6.6-0.2,9.9c-0.2,8.1-0.3,16.2-0.5,24.3c0,0.2,0,0.3,0,0.5C105.2,142.6,106.3,142.3,106.3,142
				L106.3,142z"/>
		</g>
	</g>
	<g>
		<g>
			<path class="st13" d="M115.4,142.1c0.1-7.3,0.3-14.6,0.4-22c0.1-4.6,0.2-9.2,0.3-13.9c0-1.3,0-2.5,0.1-3.8c0-0.4,0.1-0.6,0.1-0.8
				c0.4-1.8-0.3-3.5-1.4-4.9c-3-3.9-7.9-4.3-12.1-5.6c-2.4-0.8-4.8-1.5-7.3-2.3c-0.9-0.3-1.3-0.3-1.8-1.1
				c-4.7-7.1-9.1-14.5-13.9-21.5c-3.1-4.5-6.3-9-9.9-13.2c-2.4-2.9-5.2-6.2-8.6-8c-0.5-0.3-1.1-0.5-1.7-0.6
				c-0.2-0.1-1.2,0.3-0.9,0.4c3.2,0.7,6,4,8.2,6.3c3.6,4,6.8,8.3,10,12.7c5.3,7.5,10.2,15.4,15.1,23.1c0.3,0.5,0.7,1.3,1.1,1.7
				c0.3,0.3,1,0.3,1.4,0.4c1.2,0.4,2.3,0.7,3.5,1.1c2,0.6,4,1.3,6,1.9c1.9,0.5,3.8,0.8,5.7,1.7c1.9,0.8,3.4,2.1,4.5,3.8
				c0.5,0.7,0.9,1.6,1,2.5c0.1,0.8-0.1,1.3-0.2,2.1c-0.1,0.7-0.1,1.5-0.1,2.2c-0.1,4.1-0.2,8.2-0.3,12.2c-0.2,8.4-0.3,16.8-0.4,25.1
				c0,0.2,0,0.3,0,0.5C114.3,142.5,115.4,142.4,115.4,142.1L115.4,142.1z"/>
		</g>
	</g>
	<g>
		<g>
			<path class="st13" d="M124.5,142.3c0.1-7.4,0.2-14.9,0.4-22.3c0.1-5.1,0.2-10.2,0.3-15.4c0-1.7,0.1-3.5,0.1-5.2
				c0-0.6,0-1.6,0.1-2.1c0.1-0.7,0.4-1.3,0.3-2.1c-0.1-1-0.6-1.9-1.1-2.7c-1.1-1.6-2.6-2.9-4.3-3.7c-1.8-0.9-4.2-1.3-5.9-1.7
				c-2.2-0.7-4.3-1.5-6.5-2.2c-1.1-0.4-2.2-0.7-3.3-1.1c-0.3-0.1-0.8-0.2-0.9-0.3c-0.6-0.5-1-1.6-1.4-2.3c-1-1.6-1.9-3.1-2.9-4.7
				c-2.8-4.6-5.7-9.1-8.7-13.6c-3.2-4.8-6.6-9.5-10.2-13.9c-2.6-3.2-5.6-6.9-9.4-8.8c-0.6-0.3-1.2-0.5-1.8-0.7
				c-0.3-0.1-1.2,0.4-0.9,0.5c1.5,0.3,2.9,1.2,4.1,2.2c1.7,1.4,3.2,2.9,4.7,4.5c3.8,4.2,7.2,8.9,10.5,13.6
				c5.2,7.4,9.8,15.1,14.6,22.8c0.4,0.7,0.5,0.8,1.3,1c2.4,0.8,4.8,1.6,7.1,2.4c1.3,0.5,2.6,0.9,4,1.2c3.7,0.7,7.3,2.3,9.3,5.7
				c0.4,0.8,0.8,1.7,0.8,2.6c0,0.6-0.2,1-0.3,1.5c0,0.2,0,0.5,0,0.7c0,1.3-0.1,2.6-0.1,3.9c-0.1,4.8-0.2,9.6-0.3,14.3
				c-0.1,8.5-0.5,17-0.4,25.5c0,0.2,0,0.3,0,0.5C123.4,142.8,124.5,142.6,124.5,142.3L124.5,142.3z"/>
		</g>
	</g>
	<g>
		<g>
			<path class="st13" d="M133.6,142.5c0.1-7.5,0.2-15,0.3-22.5c0.1-8.9,0.2-17.9,0.5-26.8c0-0.1,0-0.5,0-0.5
				c0.2-0.8,0.4-1.4,0.3-2.2c-0.2-1.1-0.7-2.1-1.4-3c-2.2-3-5.5-4.3-9-5c-1.3-0.2-2.9-0.9-4.4-1.5c-2.2-0.8-4.5-1.5-6.7-2.4
				c-0.4-0.2-0.1,0.1-0.3-0.2c-0.2-0.3-0.4-0.7-0.6-1c-0.8-1.4-1.6-2.7-2.4-4.1c-2.7-4.6-5.6-9.1-8.5-13.6
				c-3.4-5.1-6.9-10.1-10.7-14.8c-2.8-3.4-6-7.4-10.1-9.5c-0.6-0.3-1.2-0.6-1.9-0.7c-0.3,0-1.2,0.4-0.9,0.4c1.6,0.3,3.1,1.3,4.4,2.3
				c1.9,1.5,3.5,3.2,5.1,5c4,4.5,7.5,9.3,10.9,14.3c3.2,4.7,6.3,9.5,9.3,14.4c1,1.7,2,3.4,3,5.1c0.5,0.8,0.8,1.8,1.4,2.5
				s2.1,0.9,2.9,1.2c2.4,0.9,4.8,1.8,7.2,2.6c1.8,0.7,3.7,0.8,5.6,1.6c2.1,0.9,3.9,2.3,5.1,4.3c0.5,0.8,0.9,1.8,1,2.8
				c0,0.7-0.3,1.1-0.4,1.7c-0.1,0.7,0,1.5-0.1,2.2c0,1.8-0.1,3.5-0.1,5.3c-0.1,5.3-0.2,10.6-0.3,15.8c-0.1,5.4-0.2,10.9-0.3,16.3
				c0,3.2-0.2,6.5-0.1,9.7c0,0.2,0,0.3,0,0.5C132.5,143,133.6,142.8,133.6,142.5L133.6,142.5z"/>
		</g>
	</g>
</g>
<path class="st14" d="M74.9,127.8"/>
<path class="st15" d="M75.8,51"/>
<path class="st15" d="M95.9,58"/>
<path class="st16" d="M95.2,61.4"/>
<path class="st15" d="M83.9,46.3"/>
<path class="st17" d="M60.2,112.8c-1.3,1.4,2.5,1.2,4.1,0.4"/>
<g>
	<path class="st17" d="M118.2,80.1c0.1,0,3.6-0.9,2.8,0.2c-0.4,0.1-0.7,0.3-1,0.4"/>
</g>
<path class="st17" d="M124.8,144.1"/>
<path class="st17" d="M36.3,118.2"/>
<path class="st17" d="M54.8,109"/>
<g>
	<path class="st17" d="M55.5,112.4c-0.1,0.4,0.4,0.3,1.2,0c1.1-0.4,2.8-2.1,4.4-2.4"/>
	<g>
		<path class="st17" d="M113.8,78.4c0.1,0,3-0.8,2.2,0.3c0,0-2.3,0.8-3.2,2.6"/>
	</g>
	<g>
		<path class="st17" d="M111.7,79.4c-3.8-0.1-6.9,2.9-7.4,3.8"/>
	</g>
	<g>
		<path class="st17" d="M102.6,84.5c-3.8-0.1-6.9,2.9-7.4,3.8"/>
	</g>
	<g>
		<path class="st17" d="M92.9,89.3c-3.8-0.1-6.9,2.9-7.4,3.8"/>
	</g>
	<g>
		<path class="st17" d="M83.6,94.5c-3.8-0.1-6.9,2.9-7.4,3.8"/>
	</g>
	<g>
		<path class="st17" d="M74.5,99.5c-3.8-0.1-6.9,2.9-7.4,3.8"/>
	</g>
	<g>
		<path class="st17" d="M65,104.5c-3.8-0.1-6.9,2.9-7.4,3.8"/>
	</g>
	<g>
		<g>
			<path class="st17" d="M111.2,82c-3.8-0.1-6.9,2.9-7.4,3.8"/>
		</g>
		<g>
			<path class="st17" d="M102.1,87c-3.8-0.1-6.9,2.9-7.4,3.8"/>
		</g>
		<g>
			<path class="st17" d="M92.5,91.9c-3.8-0.1-6.9,2.9-7.4,3.8"/>
		</g>
		<g>
			<path class="st17" d="M83.2,97c-3.8-0.1-6.9,2.9-7.4,3.8"/>
		</g>
		<g>
			<path class="st17" d="M74.1,102c-3.8-0.1-6.9,2.9-7.4,3.8"/>
		</g>
		<g>
			<path class="st17" d="M64.6,107c-3.8-0.1-6.9,2.9-7.4,3.8"/>
		</g>
	</g>
	<path class="st17" d="M51.4,111.2c0,0,1.8-1.5,3.7-2.1"/>
</g>
<g>
	<g>
		<path class="st17" d="M110.7,84.2c-3.8-0.1-6.9,2.9-7.4,3.8"/>
	</g>
	<g>
		<path class="st17" d="M119.7,79.9c-3.8-0.1-6.9,2.9-7.4,3.8"/>
	</g>
	<g>
		<path class="st17" d="M101.6,89.2c-3.8-0.1-6.9,2.9-7.4,3.8"/>
	</g>
	<g>
		<path class="st17" d="M91.9,94.1C88.1,94,85,97,84.5,97.9"/>
	</g>
	<g>
		<path class="st17" d="M82.6,99.2c-3.8-0.1-6.9,2.9-7.4,3.8"/>
	</g>
	<g>
		<path class="st17" d="M73.5,104.3c-3.8-0.1-6.9,2.9-7.4,3.8"/>
	</g>
	<g>
		<path class="st17" d="M64,109.2c-2.2-0.1-4.3,1.3-5.6,2.3"/>
	</g>
</g>
<g>
	<g>
		<path class="st17" d="M126.1,82.3c1.2-0.6-0.8-1.9-2.2-1.4c0,0-2.3,0.8-3.2,2.6"/>
	</g>
	<g>
		<path class="st17" d="M119.6,81.7c-3.8-0.1-6.9,2.9-7.4,3.8"/>
	</g>
	<g>
		<path class="st17" d="M110.5,86.7c-3.8-0.1-6.9,2.9-7.4,3.8"/>
	</g>
	<g>
		<path class="st17" d="M100.8,91.5c-3.8-0.1-6.9,2.9-7.4,3.8"/>
	</g>
	<g>
		<path class="st17" d="M91.5,96.7c-3.8-0.1-6.9,2.9-7.4,3.8"/>
	</g>
	<g>
		<path class="st17" d="M82.4,101.7c-3.8-0.1-6.9,2.9-7.4,3.8"/>
	</g>
	<g>
		<path class="st17" d="M72.9,106.7c-3.8-0.1-6.6,2.6-7.1,3.4"/>
	</g>
	<g>
		<g>
			<path class="st17" d="M119.1,84.2c-3.8-0.1-6.9,2.9-7.4,3.8"/>
		</g>
		<g>
			<path class="st17" d="M110,89.2c-3.8-0.1-6.9,2.9-7.4,3.8"/>
		</g>
		<g>
			<path class="st17" d="M100.3,94.1c-3.8-0.1-6.9,2.9-7.4,3.8"/>
		</g>
		<g>
			<path class="st17" d="M91,99.2c-3.8-0.1-6.9,2.9-7.4,3.8"/>
		</g>
		<g>
			<path class="st17" d="M81.9,104.3c-3.8-0.1-6.4,2.4-6.9,3.3"/>
		</g>
		<g>
			<path class="st17" d="M72.4,109.2c-3.8-0.1-6.3,2.3-6.8,3.1"/>
		</g>
	</g>
	<path class="st17" d="M60.1,112.9c0,0,1.5-1.5,4.1-2"/>
</g>
<g>
	<g>
		<path class="st17" d="M118.6,86.4c-3.8-0.1-6.9,2.9-7.4,3.8"/>
	</g>
	<g>
		<path class="st17" d="M126.3,82.3c-3.8-0.1-5.6,2.7-6.1,3.6"/>
	</g>
	<g>
		<path class="st17" d="M109.5,91.5c-3.8-0.1-6.9,2.9-7.4,3.8"/>
	</g>
	<g>
		<path class="st17" d="M99.8,96.3c-3.8-0.1-6.9,2.9-7.4,3.8"/>
	</g>
	<g>
		<path class="st17" d="M90.5,101.4c-3.8-0.1-6.9,2.9-7.4,3.8"/>
	</g>
	<g>
		<path class="st17" d="M81.4,106.5c-3.8-0.1-6.2,2.2-6.8,3.1"/>
	</g>
	<g>
		<path class="st17" d="M71.9,111.5c-2.2-0.1-4.5,2.6-4.5,2.6"/>
	</g>
</g>
<g>
	<path class="st17" d="M133.6,85.6c1.5,0.3,0.9,1.7,0.4,1.9"/>
</g>
<g>
	<path class="st17" d="M72.8,115.7c-0.1,0.4-1.3,2-0.5,1.7c1.1-0.4,2.8-2.1,4.4-2.4"/>
	<g>
		<path class="st17" d="M129.3,83.4c0.1,0,3-0.8,2.2,0.3c0,0-2.3,0.8-3.2,2.6"/>
	</g>
	<g>
		<path class="st17" d="M127.2,84.5c-3.8-0.1-6.9,2.9-7.4,3.8"/>
	</g>
	<g>
		<path class="st17" d="M118.1,89.5c-3.8-0.1-6.9,2.9-7.4,3.8"/>
	</g>
	<g>
		<path class="st17" d="M108.4,94.3c-3.8-0.1-6.9,2.9-7.4,3.8"/>
	</g>
	<g>
		<path class="st17" d="M99.1,99.5c-3.8-0.1-6.9,2.9-7.4,3.8"/>
	</g>
	<g>
		<path class="st17" d="M90,104.5c-3.8-0.1-6.3,2.3-6.8,3.2"/>
	</g>
	<g>
		<path class="st17" d="M81.1,109c-3.8-0.1-6.8,2.8-7.4,3.6"/>
	</g>
	<g>
		<g>
			<path class="st17" d="M126.8,87c-3.8-0.1-6.9,2.9-7.4,3.8"/>
		</g>
		<g>
			<path class="st17" d="M117.7,92.1c-3.8-0.1-6.9,2.9-7.4,3.8"/>
		</g>
		<g>
			<path class="st17" d="M108,96.9c-3.8-0.1-6.9,2.9-7.4,3.8"/>
		</g>
		<g>
			<path class="st17" d="M98.7,102c-3.8-0.1-6.9,2.9-7.4,3.8"/>
		</g>
		<g>
			<path class="st17" d="M89.6,107.1c-3.8-0.1-6.9,2.9-7.4,3.8"/>
		</g>
		<g>
			<path class="st17" d="M80.1,112.1c-3.8-0.1-6.9,2.9-7.4,3.8"/>
		</g>
	</g>
	<path class="st17" d="M67.1,114.2c-1.6,2.4,5-0.7,5-0.7"/>
</g>
<g>
	<g>
		<path class="st17" d="M125.1,89.8c-3.8-0.1-6.9,2.9-7.4,3.8"/>
	</g>
	<g>
		<path class="st17" d="M134,85.6c-3.8-0.1-6.9,2.9-7.4,3.8"/>
	</g>
	<g>
		<path class="st17" d="M115.9,94.9c-3.8-0.1-6.9,2.9-7.4,3.8"/>
	</g>
	<g>
		<path class="st17" d="M106.3,99.7c-3.8-0.1-6.9,2.9-7.4,3.8"/>
	</g>
	<g>
		<path class="st17" d="M97,104.9c-3.8-0.1-6.9,2.9-7.4,3.8"/>
	</g>
	<g>
		<path class="st17" d="M87.9,109.9c-3.8-0.1-6.9,2.9-7.4,3.8"/>
	</g>
	<g>
		<path class="st17" d="M78.4,114.9c-2.2-0.1-4.3,1-5.6,2"/>
	</g>
</g>
<path class="st17" d="M77.1,116.8c-4,2.2-2.7,3.2-1.6,3.2"/>
<g>
	<path class="st17" d="M132.5,91c0.1,0,3.1-1.4,3.7-0.2c0.4,0.8-0.6,1-1.6,1.5"/>
</g>
<g>
	<path class="st17" d="M132.4,88.3c-3.8-0.1-6.9,2.9-7.4,3.8"/>
</g>
<g>
	<path class="st17" d="M123.3,93.3c-3.8-0.1-6.9,2.9-7.4,3.8"/>
</g>
<g>
	<path class="st17" d="M113.7,98.1c-3.8-0.1-6.9,2.9-7.4,3.8"/>
</g>
<g>
	<path class="st17" d="M104,103.6c-3.8-0.1-6.2,2.2-6.7,3"/>
</g>
<g>
	<path class="st17" d="M94.7,108.6c-3.8-0.1-5.8,2.1-6.3,3"/>
</g>
<g>
	<path class="st17" d="M86.6,112.8c-3.8-0.1-7.1,2.5-7.6,3.4"/>
</g>
<g>
	<g>
		<path class="st17" d="M130.1,92.1c-3.8-0.1-6.9,2.9-7.4,3.8"/>
	</g>
	<g>
		<path class="st17" d="M121,97.1c-3.8-0.1-6.9,2.9-7.4,3.8"/>
	</g>
	<g>
		<path class="st17" d="M111.3,101.9c-3.8-0.1-6.9,2.9-7.4,3.8"/>
	</g>
	<g>
		<path class="st17" d="M102,107.1c-3.8-0.1-6,2-6.6,2.9"/>
	</g>
	<g>
		<path class="st17" d="M92.9,111.5c-3.8-0.1-5.2,2.2-5.7,3.1"/>
	</g>
	<g>
		<path class="st17" d="M84.5,115.7c-3.1,0.4-4.3,1.6-6.5,3.2"/>
	</g>
</g>
<g>
	<g>
		<path class="st18" d="M118.1,100.9c-3.5-0.1-6.5,2.7-7,3.6"/>
	</g>
	<g>
		<path class="st18" d="M127.3,96.4c-3.5-0.1-6.5,2.7-7,3.6"/>
	</g>
	<g>
		<path class="st18" d="M109.1,105.4c-3.5-0.1-6.5,2.7-7,3.6"/>
	</g>
	<g>
		<path class="st18" d="M99.9,110.3c-3.5-0.1-6.5,2.7-7,3.6"/>
	</g>
	<g>
		<path class="st18" d="M90.1,115.2c-3.5-0.1-6.5,2.7-7,3.6"/>
	</g>
	<g>
		<path class="st18" d="M81.4,119.6c-2.3-0.1-4.3,1.1-5.6,2.1c-0.7,0.6-1.4,1.2-0.2,1.4"/>
	</g>
	<g>
		<path class="st18" d="M135,92.1c-3,0.5-5.3,2.7-5.7,3.5"/>
	</g>
</g>
<path class="st17" d="M77.4,123.3c-4,2.1-2.8,3.1-1.6,3.1"/>
<g>
	<path class="st17" d="M132.6,98.2c0.1,0,3.1-1.4,3.7-0.1c0.4,0.8-0.6,1-1.6,1.5"/>
</g>
<g>
	<path class="st17" d="M133.2,95.8c-3.8-0.2-7,2.8-7.5,3.6"/>
</g>
<g>
	<path class="st17" d="M124,100.7c-3.8-0.2-7,2.8-7.5,3.6"/>
</g>
<g>
	<path class="st17" d="M114.3,105.3c-3.8-0.2-7,2.8-7.5,3.6"/>
</g>
<g>
	<path class="st17" d="M104.5,110.7c-3.8-0.2-6.2,2-6.7,2.9"/>
</g>
<g>
	<path class="st17" d="M95.8,114.6c-3.8-0.2-5.8,2-6.4,2.9"/>
</g>
<g>
	<path class="st17" d="M87.4,118.8c-3.8-0.2-7.1,2.4-7.7,3.3"/>
</g>
<g>
	<g>
		<path class="st17" d="M130.4,99.3c-3.8-0.2-7,2.8-7.5,3.6"/>
	</g>
	<g>
		<path class="st17" d="M121.2,104.2c-3.8-0.2-7,2.8-7.5,3.6"/>
	</g>
	<g>
		<path class="st17" d="M111.5,108.9c-3.8-0.2-7,2.8-7.5,3.6"/>
	</g>
	<g>
		<path class="st17" d="M102.1,113.8c-3.8-0.2-6.1,1.9-6.6,2.8"/>
	</g>
	<g>
		<path class="st17" d="M92.9,118.1c-3.8-0.2-5.2,2.1-5.7,3"/>
	</g>
	<g>
		<path class="st17" d="M84.4,122.1c-3.1,0.4-4.4,1.5-6.5,3"/>
	</g>
</g>
<g>
	<g>
		<path class="st18" d="M118.3,107.9c-3.5-0.1-6.5,2.6-7,3.4"/>
	</g>
	<g>
		<path class="st18" d="M127.6,103.5c-3.5-0.1-6.5,2.6-7,3.4"/>
	</g>
	<g>
		<path class="st18" d="M109.2,112.2c-3.5-0.1-6.5,2.6-7,3.4"/>
	</g>
	<g>
		<path class="st18" d="M100,117c-3.5-0.1-6.5,2.6-7,3.4"/>
	</g>
	<g>
		<path class="st18" d="M90,121.6c-3.5-0.1-6.5,2.6-7,3.4"/>
	</g>
	<g>
		<path class="st18" d="M81.3,125.9c-2.3-0.1-4.3,1-5.6,2c-0.7,0.6-1.4,1.2-0.2,1.4"/>
	</g>
	<g>
		<path class="st18" d="M135.4,99.4c-3,0.4-5.3,2.6-5.8,3.4"/>
	</g>
</g>
<path class="st17" d="M77.2,130.4c-4,2.1-2.8,3.1-1.6,3.1"/>
<g>
	<path class="st17" d="M132.4,105.3c0.1,0,3.1-1.4,3.7-0.1c0.4,0.8-0.6,1-1.6,1.5"/>
</g>
<g>
	<path class="st17" d="M133.1,102.8c-3.8-0.2-7,2.8-7.5,3.6"/>
</g>
<g>
	<path class="st17" d="M123.9,107.7c-3.8-0.2-7,2.8-7.5,3.6"/>
</g>
<g>
	<path class="st17" d="M114.1,112.4c-3.8-0.2-7,2.8-7.5,3.6"/>
</g>
<g>
	<path class="st17" d="M104.3,117.7c-3.8-0.2-6.2,2-6.7,2.9"/>
</g>
<g>
	<path class="st17" d="M95.3,121.6c-3.8-0.2-5.8,2-6.4,2.9"/>
</g>
<g>
	<path class="st17" d="M86.9,125.7c-3.8-0.2-7.1,2.4-7.7,3.3"/>
</g>
<g>
	<g>
		<path class="st17" d="M130.3,106.3c-3.8-0.2-7,2.8-7.5,3.6"/>
	</g>
	<g>
		<path class="st17" d="M121.1,111.2c-3.8-0.2-7,2.8-7.5,3.6"/>
	</g>
	<g>
		<path class="st17" d="M111.3,115.8c-3.8-0.2-7,2.8-7.5,3.6"/>
	</g>
	<g>
		<path class="st17" d="M101.9,120.8c-3.8-0.2-6.1,1.9-6.6,2.8"/>
	</g>
	<g>
		<path class="st17" d="M92.8,125c-3.8-0.2-5.2,2.1-5.7,3"/>
	</g>
	<g>
		<path class="st17" d="M84.2,129.1c-3.1,0.4-4.4,1.5-6.5,3"/>
	</g>
</g>
<g>
	<g>
		<path class="st18" d="M118.1,114.9c-3.5-0.1-6.5,2.6-7,3.4"/>
	</g>
	<g>
		<path class="st18" d="M127.5,110.6c-3.5-0.1-6.5,2.6-7,3.4"/>
	</g>
	<g>
		<path class="st18" d="M109.1,119.2c-3.5-0.1-6.5,2.6-7,3.4"/>
	</g>
	<g>
		<path class="st18" d="M99.8,124c-3.5-0.1-6.5,2.6-7,3.4"/>
	</g>
	<g>
		<path class="st18" d="M89.8,128.7c-3.5-0.1-6.5,2.6-7,3.4"/>
	</g>
	<g>
		<path class="st18" d="M81.1,133c-2.3-0.1-4.3,1-5.6,2c-0.7,0.6-1.4,1.2-0.2,1.4"/>
	</g>
	<g>
		<path class="st18" d="M135.2,106.5c-3,0.4-5.3,2.6-5.8,3.4"/>
	</g>
</g>
<path class="st17" d="M76.2,137.3c-4,2.1-2.8,3.1-1.6,3.1"/>
<g>
	<path class="st17" d="M131.9,112.6c0.1,0,3.1-1.4,3.7-0.1c0.4,0.8-0.6,1-1.6,1.5"/>
</g>
<g>
	<path class="st17" d="M132.5,110.1c-3.8-0.2-7,2.8-7.5,3.6"/>
</g>
<g>
	<path class="st17" d="M123.3,115c-3.8-0.2-7,2.8-7.5,3.6"/>
</g>
<g>
	<path class="st17" d="M114.1,119.3c-3.8-0.2-7,2.8-7.5,3.6"/>
</g>
<g>
	<path class="st17" d="M104.6,124.5c-3.8-0.2-6.2,2-6.7,2.9"/>
</g>
<g>
	<path class="st17" d="M95.4,128.8c-3.8-0.2-5.8,2-6.4,2.9"/>
</g>
<g>
	<path class="st17" d="M86.7,133c-3.8-0.2-7.1,2.4-7.7,3.3"/>
</g>
<g>
	<g>
		<path class="st17" d="M129.7,113.6c-3.8-0.2-7,2.8-7.5,3.6"/>
	</g>
	<g>
		<path class="st17" d="M120.5,118.5c-3.8-0.2-7,2.8-7.5,3.6"/>
	</g>
	<g>
		<path class="st17" d="M110.7,123.2c-3.8-0.2-7,2.8-7.5,3.6"/>
	</g>
	<g>
		<path class="st17" d="M101.4,128.2c-3.8-0.2-6.1,1.9-6.6,2.8"/>
	</g>
	<g>
		<path class="st17" d="M92.2,132.4c-3.8-0.2-5.2,2.1-5.7,3"/>
	</g>
	<g>
		<path class="st17" d="M83.7,136.4c-3.1,0.4-4.4,1.5-6.5,3"/>
	</g>
</g>
<g>
	<g>
		<path class="st18" d="M117.6,122.2c-3.5-0.1-6.5,2.6-7,3.4"/>
	</g>
	<g>
		<path class="st18" d="M126.9,117.9c-3.5-0.1-6.5,2.6-7,3.4"/>
	</g>
	<g>
		<path class="st18" d="M108.5,126.5c-3.5-0.1-6.5,2.6-7,3.4"/>
	</g>
	<g>
		<path class="st18" d="M99.2,131.3c-3.5-0.1-6.5,2.6-7,3.4"/>
	</g>
	<g>
		<path class="st18" d="M89.3,136c-3.5-0.1-6.5,2.6-7,3.4"/>
	</g>
	<g>
		<path class="st18" d="M80.6,140.3c-2.3-0.1-4.3,1-5.6,2c-0.7,0.6-1.4,1.2-0.2,1.4"/>
	</g>
	<g>
		<path class="st18" d="M134.6,113.8c-3,0.4-5.3,2.6-5.8,3.4"/>
	</g>
</g>
<g>
	<path class="st17" d="M132.1,119.9c0.1,0,3.1-1.4,3.7-0.1c0.4,0.8-0.6,1-1.6,1.5"/>
</g>
<g>
	<path class="st17" d="M132.7,117.4c-3.8-0.2-7,2.8-7.5,3.6"/>
</g>
<g>
	<path class="st17" d="M123.5,122.3c-3.8-0.2-7,2.8-7.5,3.6"/>
</g>
<g>
	<path class="st17" d="M114.2,126.6c-3.8-0.2-7,2.8-7.5,3.6"/>
</g>
<g>
	<path class="st17" d="M104.7,131.7c-3.8-0.2-6.2,2-6.7,2.9"/>
</g>
<g>
	<path class="st17" d="M95.5,136.1c-3.8-0.2-5.8,2-6.4,2.9"/>
</g>
<g>
	<path class="st17" d="M86.9,140.3c-3.8-0.2-7.1,2.4-7.7,3.3"/>
</g>
<g>
	<g>
		<path class="st17" d="M129.9,120.9c-3.8-0.2-7,2.8-7.5,3.6"/>
	</g>
	<g>
		<path class="st17" d="M120.7,125.8c-3.8-0.2-7,2.8-7.5,3.6"/>
	</g>
	<g>
		<path class="st17" d="M110.9,130.4c-3.8-0.2-7,2.8-7.5,3.6"/>
	</g>
	<g>
		<path class="st17" d="M101.5,135.4c-3.8-0.2-6.1,1.9-6.6,2.8"/>
	</g>
	<g>
		<path class="st17" d="M92.4,139.6c-3.8-0.2-5.2,2.1-5.7,3"/>
	</g>
</g>
<g>
	<g>
		<path class="st18" d="M117.7,129.5c-3.5-0.1-6.5,2.6-7,3.4"/>
	</g>
	<g>
		<path class="st18" d="M127.1,125.1c-3.5-0.1-6.5,2.6-7,3.4"/>
	</g>
	<g>
		<path class="st18" d="M108.7,133.8c-3.5-0.1-6.5,2.6-7,3.4"/>
	</g>
	<g>
		<path class="st18" d="M99.4,138.6c-3.5-0.1-6.5,2.6-7,3.4"/>
	</g>
	<g>
		<path class="st18" d="M134.8,121.1c-3,0.4-5.3,2.6-5.8,3.4"/>
	</g>
</g>
<g>
	<path class="st17" d="M131.6,127.8c0.1,0,3.1-1.4,3.7-0.1c0.4,0.8-0.6,1-1.6,1.5"/>
</g>
<g>
	<path class="st17" d="M132.3,125.3c-3.8-0.2-7,2.8-7.5,3.6"/>
</g>
<g>
	<path class="st17" d="M123.1,130.2c-3.8-0.2-7,2.8-7.5,3.6"/>
</g>
<g>
	<path class="st17" d="M113.8,134.5c-3.8-0.2-7,2.8-7.5,3.6"/>
</g>
<g>
	<path class="st17" d="M104.3,139.7c-3.8-0.2-6.2,2-6.7,2.9"/>
</g>
<g>
	<g>
		<path class="st17" d="M129.5,128.8c-3.8-0.2-7,2.8-7.5,3.6"/>
	</g>
	<g>
		<path class="st17" d="M120.3,133.7c-3.8-0.2-7,2.8-7.5,3.6"/>
	</g>
	<g>
		<path class="st17" d="M110.5,138.4c-3.8-0.2-7,2.8-7.5,3.6"/>
	</g>
</g>
<g>
	<g>
		<path class="st18" d="M117.3,137.4c-3.5-0.1-6.5,2.6-7,3.4"/>
	</g>
	<g>
		<path class="st18" d="M126.6,133.1c-3.5-0.1-6.5,2.6-7,3.4"/>
	</g>
	<g>
		<path class="st18" d="M134.4,129c-3,0.4-5.3,2.6-5.8,3.4"/>
	</g>
</g>
<g>
	<path class="st17" d="M131.9,134.9c0.1,0,3.1-1.4,3.7-0.1c0.4,0.8-0.6,1-1.6,1.5"/>
</g>
<g>
	<path class="st17" d="M132.5,132.4c-3.8-0.2-7,2.8-7.5,3.6"/>
</g>
<g>
	<path class="st17" d="M123.3,137.3c-3.8-0.2-7,2.8-7.5,3.6"/>
</g>
<g>
	<g>
		<path class="st17" d="M129.7,135.9c-3.8-0.2-7,2.8-7.5,3.6"/>
	</g>
	<g>
		<path class="st17" d="M120.5,140.8c-3.8-0.2-7,2.8-7.5,3.6"/>
	</g>
</g>
<g>
	<g>
		<path class="st18" d="M126.9,140.2c-3.5-0.1-6.5,2.6-7,3.4"/>
	</g>
	<g>
		<path class="st18" d="M134.6,136.1c-3,0.4-5.3,2.6-5.8,3.4"/>
	</g>
</g>
<g>
	<path class="st17" d="M131.9,142.2c0.1,0,3.1-1.4,3.7-0.1c0.4,0.8-0.6,1-1.6,1.5"/>
</g>
<g>
	<path class="st17" d="M132.5,139.7c-3.8-0.2-7,2.8-7.5,3.6"/>
</g>
</svg>
