<?xml version="1.0" encoding="utf-8"?>
<!-- Generator: Adobe Illustrator 25.2.3, SVG Export Plug-In . SVG Version: 6.00 Build 0)  -->
<svg version="1.1" id="Layer_1" xmlns="http://www.w3.org/2000/svg" xmlns:xlink="http://www.w3.org/1999/xlink" x="0px" y="0px"
	 viewBox="0 0 152.1 138.5" style="enable-background:new 0 0 152.1 138.5;" xml:space="preserve">
<style type="text/css">
	.st0{fill:#E4DAD8;stroke:#FFFFFF;stroke-width:0.1996;stroke-miterlimit:10;}
	.st1{fill:none;stroke:#000000;stroke-width:1.187;stroke-miterlimit:10;}
	.st2{fill:none;stroke:#000000;stroke-width:1.187;stroke-linecap:round;stroke-miterlimit:10;}
	.st3{fill:#E4DAD8;stroke:#FFFFFF;stroke-width:0.3149;stroke-miterlimit:10;}
	.st4{fill:#C2AAA7;stroke:#FFFFFF;stroke-width:0.1611;stroke-miterlimit:10;}
	.st5{fill:#CFBCBC;stroke:#FFFFFF;stroke-width:0.3149;stroke-miterlimit:10;}
	.st6{fill:#E4DAD8;stroke:#FFFFFF;stroke-width:0.1574;stroke-miterlimit:10;}
	.st7{fill:#5E5756;stroke:#FFFFFF;stroke-width:0.1574;stroke-miterlimit:10;}
	.st8{fill:#E4DAD8;stroke:#FFFFFF;stroke-width:0.3149;stroke-linejoin:bevel;stroke-miterlimit:10;}
	.st9{fill:#CFBCBC;stroke:#FFFFFF;stroke-width:0.3149;stroke-linejoin:bevel;stroke-miterlimit:10;}
	.st10{fill:#C2AAA7;}
	.st11{fill:#24234C;}
	.st12{fill:none;stroke:#24234C;stroke-width:0.1574;stroke-miterlimit:10;}
	.st13{fill:none;stroke:#24234C;stroke-width:0.1574;stroke-linecap:round;stroke-miterlimit:10;}
	.st14{fill:#ED6D47;}
	.st15{fill:#DC3359;}
	.st16{fill:none;stroke:#BF282E;stroke-width:0.3957;stroke-miterlimit:10;}
	.st17{fill:none;stroke:#24234C;stroke-width:0.6297;stroke-linecap:round;stroke-miterlimit:10;}
	.st18{fill:none;stroke:#24234C;stroke-width:0.5714;stroke-linecap:round;stroke-miterlimit:10;}
	.st19{fill:none;stroke:#24234C;stroke-width:0.9034;stroke-linecap:round;stroke-miterlimit:10;}
</style>
<path class="st0" d="M7,66.2"/>
<path class="st0" d="M96.3,45.5"/>
<path class="st1" d="M75.8,48.1"/>
<path class="st1" d="M95.9,55.1"/>
<path class="st2" d="M95.2,58.5"/>
<path class="st1" d="M83.9,43.5"/>
<path class="st3" d="M5.4,94.2l90.1-46.4l6.3,3c-0.3-0.6-91.5,46.1-91.5,46.1L5.4,94.2z"/>
<g>
	<path class="st4" d="M9.5,93.1c-0.6,0-1.3-0.4-1.6-1c-0.4-0.9-0.1-2,0.8-2.4l101-51.1c0.9-0.4,1.9-0.1,2.4,0.8
		c0.4,0.9,0.1,2-0.8,2.4l-101,51.1C10.1,93.1,9.8,93.1,9.5,93.1z"/>
</g>
<path class="st5" d="M146.4,70.9L55,116.7l-0.8,11.7c0,0,1.5,1.5,5.9-1.5c0,0,87.7-44.6,89.2-45.4s2.2-4.9,1.4-7.4
	S146.4,70.9,146.4,70.9z"/>
<path class="st6" d="M55.1,116.7l-0.6,12c0,0,5.6,2,5.7-4.3C60.3,118.1,55.1,116.7,55.1,116.7z"/>
<path class="st0" d="M6.7,65.6"/>
<g>
	<g>
		<path class="st7" d="M17.5,87.3c-0.3,0-0.5-0.2-0.5-0.5L16.9,61c0-0.3,0.2-0.5,0.5-0.5l0,0c0.3,0,0.5,0.2,0.5,0.5L18,86.8
			C17.9,87.1,17.7,87.3,17.5,87.3L17.5,87.3z"/>
	</g>
	<path class="st7" d="M20.8,85.5c-0.3,0-0.5-0.2-0.5-0.5l-0.1-25.8c0-0.3,0.2-0.5,0.5-0.5l0,0c0.3,0,0.5,0.2,0.5,0.5L21.3,85
		C21.3,85.3,21.1,85.5,20.8,85.5L20.8,85.5z"/>
	<path class="st7" d="M24.2,83.8c-0.3,0-0.5-0.2-0.5-0.5l-0.1-25.8c0-0.3,0.2-0.5,0.5-0.5l0,0c0.3,0,0.5,0.2,0.5,0.5l0.1,25.8
		C24.7,83.6,24.5,83.8,24.2,83.8L24.2,83.8z"/>
	<path class="st7" d="M27.6,82c-0.3,0-0.5-0.2-0.5-0.5L27,55.7c0-0.3,0.2-0.5,0.5-0.5l0,0c0.3,0,0.5,0.2,0.5,0.5l0.1,25.8
		C28.1,81.8,27.8,82,27.6,82L27.6,82z"/>
	<path class="st7" d="M31,80.3c-0.3,0-0.5-0.2-0.5-0.5L30.4,54c0-0.3,0.2-0.5,0.5-0.5l0,0c0.3,0,0.5,0.2,0.5,0.5l0.1,25.8
		C31.4,80.1,31.2,80.3,31,80.3L31,80.3z"/>
	<path class="st7" d="M34.3,78.5c-0.3,0-0.5-0.2-0.5-0.5l-0.1-25.8c0-0.3,0.2-0.5,0.5-0.5l0,0c0.3,0,0.5,0.2,0.5,0.5L34.8,78
		C34.8,78.3,34.6,78.5,34.3,78.5L34.3,78.5z"/>
	<path class="st7" d="M37.7,76.8c-0.3,0-0.5-0.2-0.5-0.5l-0.1-25.8c0-0.3,0.2-0.5,0.5-0.5l0,0c0.3,0,0.5,0.2,0.5,0.5l0.1,25.8
		C38.2,76.6,38,76.8,37.7,76.8L37.7,76.8z"/>
	<path class="st7" d="M41.1,75.1c-0.3,0-0.5-0.2-0.5-0.5l-0.1-25.8c0-0.3,0.2-0.5,0.5-0.5l0,0c0.3,0,0.5,0.2,0.5,0.5l0.1,25.8
		C41.5,74.9,41.3,75.1,41.1,75.1L41.1,75.1z"/>
	<path class="st7" d="M44.4,73.3c-0.3,0-0.5-0.2-0.5-0.5L43.8,47c0-0.3,0.2-0.5,0.5-0.5l0,0c0.3,0,0.5,0.2,0.5,0.5l0.1,25.8
		C44.9,73.1,44.7,73.3,44.4,73.3L44.4,73.3z"/>
	<path class="st7" d="M47.8,71.6c-0.3,0-0.5-0.2-0.5-0.5l-0.1-25.8c0-0.3,0.2-0.5,0.5-0.5l0,0c0.3,0,0.5,0.2,0.5,0.5l0.1,25.8
		C48.3,71.4,48.1,71.6,47.8,71.6L47.8,71.6z"/>
	<path class="st7" d="M51.2,69.8c-0.3,0-0.5-0.2-0.5-0.5l-0.1-25.8c0-0.3,0.2-0.5,0.5-0.5l0,0c0.3,0,0.5,0.2,0.5,0.5l0.1,25.8
		C51.7,69.6,51.4,69.8,51.2,69.8L51.2,69.8z"/>
	<path class="st7" d="M54.6,68.1c-0.3,0-0.5-0.2-0.5-0.5L54,41.9c0-0.3,0.2-0.5,0.5-0.5l0,0c0.3,0,0.5,0.2,0.5,0.5l0.1,25.8
		C55,67.9,54.8,68.1,54.6,68.1L54.6,68.1z"/>
	<path class="st7" d="M57.9,66.3c-0.3,0-0.5-0.2-0.5-0.5L57.3,40c0-0.3,0.2-0.5,0.5-0.5l0,0c0.3,0,0.5,0.2,0.5,0.5l0.1,25.8
		C58.4,66.1,58.2,66.3,57.9,66.3L57.9,66.3z"/>
	<path class="st7" d="M61.3,64.6c-0.3,0-0.5-0.2-0.5-0.5l-0.1-25.8c0-0.3,0.2-0.5,0.5-0.5l0,0c0.3,0,0.5,0.2,0.5,0.5l0.1,25.8
		C61.8,64.4,61.6,64.6,61.3,64.6L61.3,64.6z"/>
	<path class="st7" d="M64.7,62.9c-0.3,0-0.5-0.2-0.5-0.5l-0.1-25.8c0-0.3,0.2-0.5,0.5-0.5l0,0c0.3,0,0.5,0.2,0.5,0.5l0.1,25.8
		C65.1,62.6,64.9,62.9,64.7,62.9L64.7,62.9z"/>
	<path class="st7" d="M68,61.1c-0.3,0-0.5-0.2-0.5-0.5l-0.1-25.8c0-0.3,0.2-0.5,0.5-0.5l0,0c0.3,0,0.5,0.2,0.5,0.5l0.1,25.8
		C68.5,60.9,68.3,61.1,68,61.1L68,61.1z"/>
	<path class="st7" d="M71.4,59.4c-0.3,0-0.5-0.2-0.5-0.5l-0.1-25.8c0-0.3,0.2-0.5,0.5-0.5l0,0c0.3,0,0.5,0.2,0.5,0.5l0.1,25.8
		C71.9,59.2,71.7,59.4,71.4,59.4L71.4,59.4z"/>
	<path class="st7" d="M74.8,57.6c-0.3,0-0.5-0.2-0.5-0.5l-0.1-25.8c0-0.3,0.2-0.5,0.5-0.5l0,0c0.3,0,0.5,0.2,0.5,0.5l0.1,25.8
		C75.3,57.4,75.1,57.6,74.8,57.6L74.8,57.6z"/>
	<path class="st7" d="M78.2,55.9c-0.3,0-0.5-0.2-0.5-0.5l-0.1-25.8c0-0.3,0.2-0.5,0.5-0.5l0,0c0.3,0,0.5,0.2,0.5,0.5l0.1,25.8
		C78.6,55.7,78.4,55.9,78.2,55.9L78.2,55.9z"/>
	<path class="st7" d="M81.5,54.1c-0.3,0-0.5-0.2-0.5-0.5V27.9c0-0.3,0.2-0.5,0.5-0.5l0,0c0.3,0,0.5,0.2,0.5,0.5l0.1,25.8
		C82,53.9,81.8,54.1,81.5,54.1L81.5,54.1z"/>
	<path class="st7" d="M84.9,52.4c-0.3,0-0.5-0.2-0.5-0.5l-0.1-25.8c0-0.3,0.2-0.5,0.5-0.5l0,0c0.3,0,0.5,0.2,0.5,0.5l0.1,25.8
		C85.4,52.2,85.2,52.4,84.9,52.4L84.9,52.4z"/>
	<path class="st7" d="M88.3,50.7c-0.3,0-0.5-0.2-0.5-0.5l-0.1-25.8c0-0.3,0.2-0.5,0.5-0.5l0,0c0.3,0,0.5,0.2,0.5,0.5l0.1,25.8
		C88.8,50.4,88.5,50.7,88.3,50.7L88.3,50.7z"/>
	<g>
		<path class="st7" d="M91.7,48.9c-0.3,0-0.5-0.2-0.5-0.5l-0.1-25.8c0-0.3,0.2-0.5,0.5-0.5l0,0c0.3,0,0.5,0.2,0.5,0.5l0.1,25.8
			C92.1,48.7,91.9,48.9,91.7,48.9L91.7,48.9z"/>
	</g>
</g>
<g>
	<path class="st4" d="M4.9,68.4c-0.7,0-1.3-0.4-1.6-1c-0.4-0.9-0.1-2,0.8-2.4L108,13c0.9-0.4,1.9-0.1,2.4,0.8c0.4,0.9,0.1,2-0.8,2.4
		L5.7,68.2C5.4,68.3,5.2,68.4,4.9,68.4z"/>
</g>
<g>
	<g>
		<polygon class="st8" points="4.1,48.3 10.1,51.5 10.1,96.7 4.1,93 		"/>
		<g>
			<g>
				<path class="st4" d="M3.3,96c-0.6,0-1.3-0.3-1.6-1c-0.5-0.9-0.1-2,0.8-2.4l3.9-2.1c0.9-0.5,1.9-0.1,2.4,0.8s0.1,2-0.8,2.4
					l-3.9,2.1C3.9,95.9,3.6,96,3.3,96z"/>
			</g>
			<g>
				<path class="st4" d="M3.2,69.2c-0.7,0-1.3-0.4-1.6-1c-0.4-0.9-0.1-2,0.8-2.4L6,64c0.9-0.4,1.9-0.1,2.4,0.8
					c0.4,0.9,0.1,2-0.8,2.4L4,69C3.7,69.2,3.5,69.2,3.2,69.2z"/>
			</g>
			<polygon class="st3" points="95.4,2.1 95.5,47.8 101.6,51 101.6,5.2 			"/>
			<polygon class="st9" points="3.9,48.3 95.7,2.4 101.6,5.5 10.1,51.5 			"/>
		</g>
	</g>
	<g>
		<path class="st4" d="M91.9,21l3.7-1.9c0.9-0.5,1.9-0.1,2.4,0.8s0.1,2-0.8,2.4l-3.7,1.9"/>
	</g>
	<g>
		<path class="st4" d="M94,46.6l2.7-1.3c0.9-0.5,1.9-0.1,2.4,0.8s0.1,1.9-0.7,2.3l-1.9,0.9"/>
	</g>
</g>
<path class="st0" d="M96,44.9"/>
<g>
	<g>
		<path class="st3" d="M38.5,110.6c0.5,1.2-1.3,3.8-2.6,4.7c-1.2,0.9-22.7,11.3-24.4,12.4c-1.7,1.1-6.1,2.1-7.1,2.2s-2.3,0.2-3.1-1
			s2.8-4.1,4-5.2s26.1-13.2,27.3-13.4C33.7,110.1,38,109.4,38.5,110.6z"/>
		<path class="st3" d="M1.2,128.9c0,0,1.3-0.2,3.7-1s10.1-5,10.1-5l21-10.5l2.5-1.7"/>
		<ellipse class="st10" cx="31.7" cy="116" rx="0.6" ry="0.6"/>
		<path class="st3" d="M10.3,121.4c-0.3,0.1-1,1.1,0.5,1.5s2.9-0.4,2.9-0.4l17.5-8.5c0,0,0.8-0.7,0.1-1.5s-2.4-0.1-2.4-0.1
			S10.6,121.3,10.3,121.4z"/>
		<path class="st6" d="M16,121.4c0,0,0.4-1.2-0.7-1.2s-4.9,1.6-4.9,1.9s1.2,1.2,2.4,0.8S16,121.4,16,121.4z"/>
		<path class="st6" d="M10.1,122.6c-0.1-0.3,0.3-1,1.3-0.7s1.2,0.9,0.9,1.1C12,123.3,10.3,122.9,10.1,122.6z"/>
	</g>
	<g>
		<g>
			<path class="st11" d="M32,116.3c1.7-0.8,3.4-1.5,5.1-2.2c4.8-2,9.6-4.1,14.4-6.3c0,0-0.4-0.5-0.6-0.5c-4.8,2.2-9.6,4.3-14.4,6.3
				c-1.7,0.7-3.4,1.4-5.1,2.2C31.4,115.8,31.9,116.4,32,116.3L32,116.3z"/>
		</g>
	</g>
	<g>
		<path class="st12" d="M29.6,114.7c-0.1-0.1,0.5-2-1.4-1.1"/>
		<path class="st13" d="M29.3,114.8c-0.1-0.2,0.5-2-1.4-1.1"/>
		<path class="st13" d="M29.1,115c-0.1-0.2,0.5-1.9-1.4-1.1"/>
		<path class="st13" d="M28.8,115.1c-0.1-0.2,0.4-1.9-1.5-1.1"/>
		<path class="st13" d="M28.5,115.2c-0.1-0.2,0.4-1.9-1.5-1.1"/>
		<path class="st13" d="M28.2,115.4c-0.1-0.3,0.4-1.9-1.5-1.1"/>
		<path class="st13" d="M27.9,115.5c-0.1-0.3,0.3-1.9-1.5-1.1"/>
		<path class="st13" d="M27.6,115.6c-0.1-0.3,0.3-1.9-1.5-1.1"/>
		<path class="st13" d="M27.4,115.8c-0.1-0.3,0.3-1.9-1.5-1.1"/>
		<path class="st13" d="M27.1,115.9c-0.1-0.4,0.2-1.9-1.5-1.1"/>
		<path class="st13" d="M26.8,116.1c-0.1-0.4,0.2-1.9-1.5-1.1"/>
		<path class="st13" d="M26.5,116.2c-0.1-0.4,0.1-1.9-1.6-1.1"/>
		<path class="st13" d="M26.2,116.3c-0.1-0.4,0.1-1.9-1.6-1.1"/>
		<path class="st13" d="M25.9,116.5c-0.1-0.5,0.1-1.9-1.6-1.1"/>
		<path class="st13" d="M25.7,116.6c-0.1-0.5,0-1.9-1.6-1.1"/>
		<path class="st13" d="M25.4,116.7c-0.1-0.5,0-1.9-1.6-1.1"/>
		<path class="st13" d="M25.1,116.9c-0.1-0.5,0-1.8-1.6-1"/>
		<path class="st13" d="M24.8,117c-0.1-0.6-0.1-1.8-1.6-1"/>
		<path class="st13" d="M24.5,117.2c-0.1-0.6-0.1-1.8-1.7-1"/>
		<path class="st13" d="M24.3,117.3c-0.1-0.6-0.1-1.8-1.7-1"/>
		<path class="st13" d="M24,117.4c-0.1-0.6-0.2-1.8-1.7-1"/>
		<path class="st13" d="M23.7,117.6c-0.1-0.7-0.2-1.8-1.7-1"/>
		<path class="st13" d="M23.4,117.7c-0.1-0.7-0.3-1.8-1.7-1"/>
		<path class="st13" d="M23.1,117.8c-0.1-0.7-0.3-1.8-1.7-1"/>
		<path class="st13" d="M22.8,118c-0.1-0.7-0.3-1.8-1.7-1"/>
		<path class="st13" d="M22.6,118.1c-0.1-0.8-0.4-1.8-1.8-1"/>
		<path class="st13" d="M22.3,118.3c-0.1-0.8-0.4-1.8-1.8-1"/>
		<path class="st13" d="M22,118.4c-0.1-0.8-0.4-1.8-1.8-1"/>
		<path class="st13" d="M21.7,118.5c-0.1-0.8-0.5-1.8-1.8-1"/>
		<path class="st13" d="M21.4,118.7c-0.1-0.9-0.5-1.8-1.8-1"/>
		<path class="st13" d="M21.1,118.8c-0.1-0.9-0.5-1.8-1.8-1"/>
		<path class="st13" d="M20.9,118.9c0-0.9-0.6-1.7-1.8-1"/>
		<path class="st13" d="M20.6,119.1c0-0.9-0.6-1.7-1.8-1"/>
		<path class="st13" d="M20.3,119.2c0-1-0.7-1.7-1.9-1"/>
		<path class="st13" d="M20,119.4c0-1-0.7-1.7-1.9-1"/>
		<path class="st13" d="M19.7,119.5c0-1-0.7-1.7-1.9-1"/>
		<path class="st13" d="M19.4,119.6c0-1-0.8-1.7-1.9-0.9"/>
		<path class="st13" d="M19.2,119.8c0-1.1-0.8-1.7-1.9-0.9"/>
		<path class="st13" d="M18.9,119.9c0-1.1-0.8-1.7-1.9-0.9"/>
		<path class="st13" d="M18.6,120c0-1.1-0.9-1.7-1.9-0.9"/>
		<path class="st13" d="M18.3,120.2c0-1.2-0.9-1.7-2-0.9"/>
		<path class="st13" d="M18,120.3c0-1.2-0.9-1.7-2-0.9"/>
		<path class="st13" d="M17.7,120.5c0-1.2-1-1.7-2-0.9"/>
		<path class="st13" d="M17.5,120.6c0-1.2-1-1.7-2-0.9"/>
		<path class="st13" d="M17.2,120.7c0-1.3-1.1-1.7-2-0.9"/>
		<path class="st13" d="M16.9,120.9c0-1.3-1.1-1.7-2-0.9"/>
		<path class="st13" d="M16.6,121c0-1.3-1.1-1.6-2-0.9"/>
		<path class="st13" d="M16.3,121.1c0-1.3-1.2-1.6-2.1-0.9"/>
		<path class="st13" d="M16,121.3c0-1.4-1.2-1.6-2.1-0.9"/>
		<path class="st13" d="M15.8,121.4c0-1.4-1.2-1.6-2.1-0.9"/>
		<path class="st13" d="M15.5,121.6c0-1.4-1.3-1.6-2.1-0.9"/>
		<path class="st13" d="M15.2,121.7c0-1.4-1.3-1.6-2.1-0.9"/>
	</g>
</g>
<g>
	<g>
		<g>
			<path class="st14" d="M33.8,78c10.5,6.3,21.1,12.5,31.4,19.3c0.7,0.4,1.3,0.9,1.9,1.3c1.1,0.8,2.3,1.2,3.5,1.5
				c3.4,0.9,6.8,1.2,10.2,1.7c2.2,0.3,4.6,0.9,6.3,2.5c1.7,1.5,3.4,4.1,3.1,6.4c-0.3,2.4-0.3,4.8-0.4,7.2
				c-0.2,6.7-0.4,13.4-0.5,20.1c0,0.3,1.1,0.1,1.1-0.3c0.1-6,0.2-12,0.4-18c0.1-2.9,0.1-5.8,0.4-8.7c0-0.2,0-0.4,0.1-0.7
				c0.2-1.2-0.2-2.2-0.7-3.3c-1.2-2.3-2.8-4.1-5.3-5c-3.1-1.1-6.6-1.2-9.8-1.7c-2-0.3-4.1-0.7-6-1.5c-0.8-0.3-1.4-0.9-2.1-1.3
				c-5.6-3.8-11.4-7.2-17.2-10.7c-5.2-3.1-10.3-6.3-15.5-9.4C34.4,77.4,33.4,77.8,33.8,78L33.8,78z"/>
		</g>
	</g>
	<g>
		<g>
			<path class="st14" d="M30.5,79.8C40.8,85.9,51.2,92,61.3,98.5c1.6,1,3.1,2.4,5,3c3.4,1.2,7.1,1.6,10.6,2c1.8,0.2,3.7,0.6,5.3,1.4
				c2.4,1.2,4.5,3.8,4.9,6.5c0.1,0.8-0.1,1.8-0.2,2.7c-0.1,1.3-0.1,2.7-0.2,4c-0.2,6.7-0.3,13.4-0.4,20.1c0,0.1,1.1,0,1.1-0.3
				c0.1-5.9,0.2-11.7,0.4-17.6c0.1-2.5,0-5.2,0.3-7.7c0.3-2.2-0.8-4.2-2.2-5.9c-1.5-1.7-3.5-2.6-5.7-3.1c-3.3-0.7-6.6-0.9-9.9-1.6
				c-1.7-0.3-3.6-0.7-5-1.7c-0.6-0.4-1.1-0.8-1.7-1.2c-5.7-3.7-11.5-7.2-17.4-10.7c-4.9-3-9.9-5.9-14.9-8.9
				C31.3,79.2,30.4,79.7,30.5,79.8L30.5,79.8z"/>
		</g>
	</g>
	<g>
		<g>
			<path class="st14" d="M27.3,81.5c10.2,6,20.4,11.9,30.3,18.2c1.5,0.9,2.9,2.1,4.4,2.9c1.6,0.8,3.4,1.2,5.2,1.5
				c1.8,0.3,3.6,0.6,5.4,0.8c4.2,0.5,8.3,1.4,10.5,5.4c0.6,1.1,1.1,2.4,1,3.7c0,0.3-0.1,0.6-0.1,0.9c-0.1,1.1-0.1,2.3-0.2,3.5
				c-0.2,6.5-0.3,13-0.4,19.6c0,0.1,1.1,0,1.1-0.3c0.1-5.7,0.2-11.5,0.3-17.2c0.1-2.3,0.2-4.6,0.4-6.9c0.2-2.5-1.9-5.4-3.8-6.8
				c-1.8-1.3-4.2-1.8-6.3-2.1c-3.1-0.5-6.2-0.7-9.3-1.5c-1.3-0.3-2.5-0.8-3.6-1.6c-0.6-0.5-1.3-0.9-1.9-1.3
				c-5.8-3.7-11.7-7.2-17.6-10.7c-4.8-2.8-9.5-5.7-14.3-8.5C28,81,27.2,81.5,27.3,81.5L27.3,81.5z"/>
		</g>
	</g>
	<g>
		<g>
			<path class="st14" d="M24.1,83.4c9.9,5.8,19.8,11.5,29.5,17.5c1.6,1,3.2,1.9,4.7,3c2.6,1.9,6.4,2.2,9.5,2.7
				c3.4,0.5,7.3,0.6,10.1,2.9c1.9,1.6,3.3,4.2,3,6.8c-0.1,0.9-0.1,1.8-0.2,2.7c-0.2,6.3-0.3,12.6-0.3,19c0,0.3,1.1,0.1,1.1-0.3
				c0-5.8,0.1-11.5,0.3-17.3c0.1-2.5,0.7-5.4-0.3-7.8c-1.8-4.3-6-5.7-10.2-6.2c-3.5-0.5-7.1-0.7-10.4-2.1c-1.6-0.6-3-1.9-4.4-2.8
				C50.7,97.9,44.8,94.4,39,91c-4.6-2.7-9.2-5.4-13.8-8.1C24.7,82.7,23.7,83.2,24.1,83.4L24.1,83.4z"/>
		</g>
	</g>
</g>
<g>
	<g>
		<path class="st14" d="M17.2,86.7c10.1,5.7,20.2,11.5,30.1,17.5c1.7,1,3.5,2,5.1,3.2c2.4,1.8,5.9,1.9,8.7,2.2
			c3.5,0.3,6.6,0.2,9.9,1.8c2.3,1.1,4.7,3.7,4.7,6.4c0,0.7-0.1,1.5-0.2,2.2c-0.1,6.1-0.3,12.3-0.4,18.4c0,0.3,1.1,0.1,1.1-0.3
			c0.1-5.6,0.2-11.2,0.4-16.9c0-0.9,0-1.8,0.1-2.7c0.2-1.9-0.3-3.4-1.5-5c-2.3-3.1-6.3-4.1-9.9-4.3c-1.8-0.1-3.6-0.2-5.3-0.5
			c-1.8-0.2-3.8-0.4-5.5-1.2c-1.5-0.7-2.9-1.9-4.4-2.8C44.1,101,38,97.5,31.9,94c-4.6-2.6-9.2-5.3-13.8-7.9
			C17.8,86,16.8,86.4,17.2,86.7L17.2,86.7z"/>
	</g>
</g>
<g>
	<g>
		<path class="st14" d="M90.4,49.2c9.5,8.1,19.4,15.6,29.8,22.5c1.9,1.3,3.8,2.4,5.8,3.5c1.6,0.9,3.4,1.9,5.2,2.3
			c2.5,0.5,4.6,1,6.2,3.1c1,1.3,2,2.9,2.1,4.6c0.1,0.7-0.1,1.2-0.2,1.8c-0.1,0.6-0.1,1.1-0.1,1.7c-0.1,2.7-0.2,5.3-0.2,8
			c-0.2,8.2-0.3,16.4-0.4,24.7c-0.1,3.6-0.1,7.1-0.2,10.7c0,1.2,0,2.4,0,3.6c0,0.6-0.2,1.4,0,2c0,0.1,0,0.2,0,0.3
			c0,0.3,1.1,0.1,1.1-0.3c0.1-4.5,0.1-9.1,0.2-13.6c0.1-8.3,0.2-16.7,0.4-25c0.1-3.1,0.1-6.2,0.2-9.3c0-0.8,0-1.6,0.1-2.4
			c0.1-0.9,0.4-1.7,0.2-2.7c-0.4-2.4-2.3-5.2-4.4-6.4c-1.8-1-4-0.9-5.9-1.7c-2.8-1.2-5.5-2.8-8-4.4c-9-5.8-17.7-12.4-26-19.2
			c-1.6-1.3-3.3-2.7-4.9-4.1C91.2,48.6,90.2,49,90.4,49.2L90.4,49.2z"/>
	</g>
</g>
<g>
	<g>
		<g>
			<path class="st14" d="M84.5,52.2c9.4,8,19.5,15.2,30.1,21.5c1.8,1.1,3.2,1.9,5.1,3c1.8,1.1,3.8,2.2,5.8,2.9
				c1.9,0.6,4.1,0.4,5.9,1.5c2.4,1.6,3.6,4.9,3.4,7.7c0,0.7-0.3,1.4-0.3,2.1c-0.1,2.2-0.2,4.5-0.2,6.8c-0.2,7.9-0.3,15.8-0.4,23.7
				c0,3.5-0.1,7.1-0.1,10.6c0,1.2,0,2.5,0,3.7c0,0.6-0.1,1.4,0,2c0,0.1,0,0.2,0,0.3c0,0.3,1.1,0.1,1.1-0.3c0-4.6,0.1-9.2,0.2-13.8
				c0.1-8.1,0.2-16.2,0.4-24.3c0.1-2.7,0.1-5.4,0.2-8c0-0.5,0-1.1,0.1-1.6c0.4-2.1,0.3-4.3-0.7-6.3c-1.1-2-2.5-3.4-4.8-3.9
				c-2-0.5-3.9-0.7-5.8-1.6c-2.4-1.2-4.7-2.6-7-4C108,68.7,99,62.4,90.4,55.6c-1.6-1.3-3.1-2.5-4.6-3.8
				C85.3,51.5,84.3,51.9,84.5,52.2L84.5,52.2z"/>
		</g>
	</g>
	<g>
		<g>
			<path class="st14" d="M81.1,53.9c9.3,7.9,19.4,15.1,29.9,21.4c1.6,1,3.2,1.9,4.8,2.8c1.9,1,3.8,2.1,5.8,2.9
				c1.8,0.7,3.7,0.6,5.5,1.2c2.6,0.8,4.1,3.9,4.5,6.4c0.2,1.1-0.1,2.1-0.2,3.2c-0.2,2.1-0.1,4.3-0.2,6.4c-0.2,7.7-0.3,15.5-0.4,23.2
				c-0.1,5.4-0.2,10.9-0.2,16.3c0,0.5,1.1,0.2,1.1-0.1c0.2-12.5,0.3-25,0.6-37.6c0.1-2.5,0.1-5.1,0.2-7.6c0-0.4,0-0.9,0.1-1.3
				c0.4-2.6-0.1-5-1.6-7.2c-1.3-1.9-2.9-2.5-5.1-2.8c-2-0.3-3.7-0.8-5.6-1.7c-2.3-1.1-4.6-2.4-6.8-3.7c-11.1-6.4-21.6-14-31.3-22.3
				C81.8,53.2,80.8,53.7,81.1,53.9L81.1,53.9z"/>
		</g>
	</g>
	<g>
		<g>
			<path class="st14" d="M77.6,55.7c9.3,7.9,19.2,15.1,29.6,21.4c1.6,1,3.2,1.9,4.9,2.7c1.9,1,3.8,2,5.8,2.8
				c1.7,0.7,3.5,0.8,5.3,1.2c2.7,0.6,4.4,3,5.1,5.5c0.4,1.4,0.3,2.5,0.1,3.9c-0.2,1.9-0.1,3.8-0.2,5.7c-0.2,7.6-0.3,15.1-0.4,22.7
				c-0.1,5.5-0.2,10.9-0.3,16.4c0,0.2,1.1,0,1.1-0.3c0.2-12.3,0.4-24.7,0.6-37c0.1-2.4,0.1-4.7,0.2-7.1c0-0.6,0.1-1,0.2-1.6
				c0.3-2.5-0.9-5.4-2.7-7.2c-1.5-1.6-3.7-1.6-5.7-1.9c-1.8-0.3-3.4-1.1-5.1-1.9c-2.2-1.1-4.4-2.2-6.5-3.4
				c-11-6.5-21.4-14-31.1-22.3C78.4,55.1,77.5,55.5,77.6,55.7L77.6,55.7z"/>
		</g>
	</g>
	<g>
		<g>
			<path class="st14" d="M74.2,57.4c9.2,7.8,19,15,29.3,21.3c1.5,0.9,3,1.7,4.5,2.5c3.4,1.7,6.7,3.4,10.5,4c1,0.1,2,0.2,2.9,0.6
				c1.3,0.6,2.1,1.9,2.8,3.1c0.9,1.7,1.3,3.5,1.1,5.3c-0.2,1.6-0.1,3.4-0.2,5.1c-0.2,7.4-0.3,14.7-0.5,22.1
				c-0.1,5.5-0.2,11-0.3,16.6c0,0.3,1.1,0.1,1.1-0.3c0.2-12.2,0.4-24.5,0.7-36.7c0.1-2.2,0.1-4.3,0.2-6.5c0-0.2,0-0.3,0-0.5
				c0-0.1,0,0.3,0,0c0.1-0.5,0.2-1,0.1-1.6c-0.2-2.4-1.6-5.4-3.7-6.7c-1.6-1-3.6-0.8-5.4-1.2s-3.6-1.3-5.2-2.1c-2.1-1-4.3-2-6.3-3.2
				c-10.8-6.4-21.1-14-30.7-22.1C74.9,56.8,73.9,57.2,74.2,57.4L74.2,57.4z"/>
		</g>
	</g>
</g>
<g>
	<g>
		<g>
			<path class="st14" d="M68,60.9c8.9,7.6,18.8,14.2,29,20.1c1.7,0.9,3.4,1.8,5,2.8c3,1.7,5.9,3.5,9.4,4.2c2.4,0.5,4.7,1.1,6.3,3.1
				c0.9,1.1,1.8,2.6,2,4c0.1,0.8,0,1.5-0.2,2.2c-0.2,1.3-0.1,2.8-0.1,4.1c-0.2,6.9-0.2,13.9-0.3,20.9c-0.1,5.3-0.1,10.5-0.2,15.8
				c0,0.3,1.1,0.1,1.1-0.3c0.1-11.6,0.3-23.2,0.5-34.8c0-1.9,0.1-3.8,0.2-5.6c0-0.1,0-0.1,0-0.2c0-0.2-0.1,0.3,0,0
				c0.2-1,0.4-1.7,0.1-2.7c-0.6-2.3-2.3-4.6-4.4-5.8c-1.9-1-4.1-1-6.1-1.7c-1.9-0.6-3.7-1.7-5.5-2.7c-1.4-0.8-2.9-1.6-4.3-2.4
				c-11.1-6.1-21.7-13.2-31.4-21.4C68.7,60.2,67.7,60.6,68,60.9L68,60.9z"/>
		</g>
	</g>
	<g>
		<g>
			<path class="st14" d="M64.5,62.6c8.8,7.5,18.4,14.1,28.5,19.8c1.6,0.9,3.3,1.9,5,2.7c2.8,1.5,5.7,3.1,8.8,4c2,0.6,4.1,0.6,6,1.7
				c2.3,1.3,4.2,4.5,4,7.2c-0.1,1.4-0.3,2.8-0.3,4.3c-0.2,6.7-0.3,13.4-0.4,20.1c-0.1,5.2-0.2,10.4-0.3,15.6c0,0.5,1.1,0.3,1.1-0.1
				c0.2-11.4,0.3-22.8,0.6-34.2c0-1.6,0-3.3,0.2-4.8c0-0.2,0,0.2,0-0.1c0.1-0.4,0.2-0.8,0.2-1.2c0-1.4-0.5-2.8-1.2-4
				c-1.1-2-2.8-3.4-5-4.1c-1.9-0.6-3.8-0.7-5.6-1.4c-1.9-0.7-3.7-1.6-5.4-2.5c-1.4-0.7-2.8-1.5-4.2-2.2c-10.9-6-21.4-13-30.8-21.1
				C65.1,61.8,64.1,62.3,64.5,62.6L64.5,62.6z"/>
		</g>
	</g>
	<g>
		<g>
			<path class="st14" d="M60.9,64.2c8.7,7.4,18.3,13.9,28.2,19.6c4.3,2.5,8.8,4.7,13.5,6.3c1.8,0.6,3.7,0.7,5.5,1.4
				c2.8,0.9,4.4,3.1,5.2,5.8c0.5,1.8,0.2,3.6,0.1,5.5c-0.3,6.4-0.4,12.9-0.5,19.3c-0.1,5.3-0.2,10.5-0.3,15.8c0,0.2,1.1,0.1,1.1-0.3
				c0.2-11.2,0.4-22.4,0.8-33.6c0.1-1.5,0.2-2.9,0.3-4.4c0.2-2.2-1-4.9-2.4-6.4c-1.6-1.7-3.9-2.3-6.1-2.8c-5-1-9.7-3.3-14.1-5.7
				c-10.7-5.9-21-12.8-30.3-20.8C61.7,63.6,60.7,64.1,60.9,64.2L60.9,64.2z"/>
		</g>
	</g>
	<g>
		<g>
			<path class="st14" d="M57.4,65.9c8.6,7.3,18,13.8,27.8,19.3c4.3,2.4,8.7,4.4,13.4,6c3.8,1.3,8.8,1.1,10.9,5.1
				c0.9,1.7,1.6,3.7,1.3,5.5c-0.1,0.5-0.1,1.1-0.1,1.6c-0.3,6.1-0.5,12.2-0.6,18.3c-0.1,5.3-0.3,10.7-0.4,16c0,0.3,1.1,0.1,1.1-0.3
				c0.3-11.1,0.5-22.1,1-33.2c0.1-1.7,0.4-3.5,0-5.2c-0.5-2.2-1.5-4.5-3.6-5.8c-1.8-1.1-4-1.4-6-1.8c-3.4-0.7-6.8-2.3-10-3.6
				c-1.3-0.5-2.5-1.1-3.7-1.8c-10.6-5.8-20.8-12.7-30-20.6C58.2,65.3,57.2,65.7,57.4,65.9L57.4,65.9z"/>
		</g>
	</g>
</g>
<g>
	<g>
		<g>
			<path class="st14" d="M50.8,69.7c4.5,2.7,9.1,5.5,13.6,8.2c6.6,4,13.2,8,19.8,12c1.2,0.7,2.3,1.4,3.5,2.1c2,1.1,4,2.3,6.1,3.1
				s4.4,0.6,6.5,1.3c3,1.1,4.7,4.8,4.3,7.9c-0.1,0.8-0.3,1.5-0.3,2.3c-0.1,3.3-0.1,6.6-0.1,9.9c0,4.3,0,8.6,0,12.9
				c0,2.7-0.2,5.6,0,8.3c0,0.1,0,0.3,0,0.4c0,0.3,1.1,0.1,1.1-0.3c0-6.2,0-12.4,0-18.5c0-3.8,0-7.6,0.1-11.4c0-0.9,0-1.9,0.1-2.8
				c0.4-2.3,0.3-4.4-1.1-6.5c-1.4-2.2-3.4-2.9-6-3.2c-1.1-0.1-2.3-0.2-3.3-0.6c-1.1-0.4-2.2-0.9-3.3-1.5c-1.8-0.9-3.6-2-5.3-3
				c-6.1-3.7-12.2-7.4-18.3-11.1c-3.5-2.1-6.9-4.2-10.4-6.3c-1.9-1.2-3.9-2.5-5.9-3.6c-0.1,0-0.2-0.1-0.3-0.2
				C51.4,69.1,50.4,69.5,50.8,69.7L50.8,69.7z"/>
		</g>
	</g>
	<g>
		<g>
			<path class="st14" d="M47.3,71.3c4.4,2.7,8.9,5.4,13.3,8.1c6.5,4,13,7.9,19.5,11.9c1.1,0.7,2.2,1.4,3.4,2c1.9,1,3.9,1.9,5.8,2.8
				c2,0.8,4,1.1,6.1,1.5c3.1,0.6,5.1,2.5,5.9,5.6c0.4,1.5,0.2,2.8,0.1,4.2c-0.2,3-0.2,6-0.2,9c0,4.3-0.1,8.5-0.1,12.8
				c0,2.8-0.2,5.6,0,8.4c0,0.1,0,0.3,0,0.4c0,0.2,1.1,0,1.1-0.3c0-6.2,0-12.4,0.1-18.6c0-3.6,0-7.1,0.2-10.7c0-0.7,0-1.4,0.2-2.1
				c0.5-2.6-0.5-5.7-2.5-7.6c-1.8-1.7-4.5-1.8-6.8-2.2c-2.1-0.4-4.1-1.4-6-2.3c-1.6-0.8-3.3-1.6-4.8-2.5c-6-3.7-12.1-7.3-18.1-11
				c-3.4-2.1-6.8-4.1-10.2-6.2c-1.9-1.1-3.7-2.5-5.7-3.4c-0.1,0-0.2-0.1-0.3-0.2C48.1,70.7,47.2,71.2,47.3,71.3L47.3,71.3z"/>
		</g>
	</g>
	<g>
		<g>
			<path class="st14" d="M44,73c4.3,2.7,8.7,5.3,13,8c6.4,3.9,12.7,7.8,19.1,11.7c1.1,0.7,2.1,1.4,3.3,1.9c3.4,1.6,6.9,3.5,10.6,4.1
				c2.8,0.5,5.8,1,7.3,3.7c1.1,1.9,1.5,4,1.3,6.1c-0.4,2.7-0.2,5.5-0.2,8.1c-0.1,7-0.2,13.9-0.1,20.9c0,0.1,0,0.3,0,0.4
				c0,0.5,1.1,0.3,1.1-0.1c0-6.2,0-12.4,0.1-18.5c0-3.3,0-6.6,0.2-9.9c0-0.9,0.3-1.7,0.2-2.6c-0.2-2.6-1.3-5.6-3.6-7.1
				c-2-1.3-4.5-1.3-6.8-1.9c-2.1-0.6-4.2-1.5-6.2-2.4c-1.6-0.7-3.2-1.4-4.7-2.3c-5.9-3.6-11.8-7.2-17.8-10.9
				c-5.2-3.2-10.3-6.6-15.7-9.6c-0.1-0.1-0.2-0.1-0.3-0.2C44.5,72.2,43.5,72.7,44,73L44,73z"/>
		</g>
	</g>
	<g>
		<g>
			<path class="st14" d="M40.5,74.6c4.3,2.6,8.5,5.3,12.8,7.9c6.3,3.9,12.6,7.7,18.9,11.6c1,0.6,2,1.4,3.1,1.8
				c3.5,1.5,7.1,3.2,10.8,4c2.4,0.6,5.2,0.8,7.1,2.6c1.7,1.6,2.9,4.9,2.5,7.2c-0.3,2.2-0.2,4.6-0.3,6.8c-0.1,7-0.4,14-0.2,20.9
				c0,0.2,0,0.3,0,0.5c0,0.3,1.1,0.1,1.1-0.3c0-6.2,0.1-12.3,0.2-18.5c0-3,0-6,0.2-9c0.1-1.4,0.1-2.6-0.4-4.1
				c-0.8-2.5-2.2-4.5-4.7-5.5c-2.1-0.8-4.3-1-6.4-1.7s-4.1-1.5-6.2-2.3c-1.7-0.7-3-1.2-4.4-2.1c-5.8-3.6-11.7-7.2-17.5-10.8
				c-3.3-2-6.5-4-9.8-6c-1.8-1.1-3.6-2.4-5.5-3.4c-0.1,0-0.2-0.1-0.3-0.2C41.2,74,40.2,74.4,40.5,74.6L40.5,74.6z"/>
		</g>
	</g>
</g>
<g>
	<g>
		<g>
			<path class="st15" d="M78.7,137.9c0.2-6.5,0.3-12.9,0.6-19.4c0.1-1.4,0.3-2.7-0.2-4c-0.9-2.7-3.3-4.5-5.8-5.5
				c-3-1.3-6-1.7-9.3-2.1c-2.4-0.3-4.7-0.6-7.1-1.1c-1-0.2-1.5-0.2-2.1-0.9c-1.6-1.9-2.8-4-4.2-6.1c-4.7-7.3-9.4-14.6-14.4-21.7
				c-2.4-3.5-4.9-6.9-7.7-10.2c-1.8-2.1-3.8-4.5-6.2-6c-0.4-0.2-0.8-0.4-1.2-0.6c-0.4-0.1-1.3,0.4-0.7,0.6c2.3,0.7,4.2,3.1,5.7,4.8
				c2.7,3,5,6.1,7.4,9.4c5.1,7.1,9.9,14.6,14.7,22c1.6,2.4,3.1,4.9,4.8,7.2c0.4,0.5,0.7,1.1,1.2,1.5c1,0.7,2.8,0.7,4,0.9
				c2.3,0.4,4.6,0.7,6.9,0.9c1.2,0.1,1.8,0.2,2.7,0.4c4.8,1.1,10.7,3.6,10.2,9.5c-0.3,3.1-0.2,6.3-0.3,9.4
				c-0.1,3.4-0.2,6.9-0.3,10.3c0,0.2,0,0.4,0,0.6C77.6,138.5,78.7,138.3,78.7,137.9L78.7,137.9z"/>
		</g>
	</g>
	<g>
		<g>
			<path class="st15" d="M93.3,137.8c0.1-7,0.3-13.9,0.5-20.9c0-1.7,0.1-3.4,0.1-5c0-1,0.2-2,0.2-3c-0.1-3.1-2.5-5.8-5.1-7.1
				c-1.9-1-4.1-1.5-6.2-1.9c-3.3-0.6-7.4-1.5-10.9-2.5c-0.6-0.2-0.8-0.5-1.3-1.2c-0.7-1-1.3-2-1.9-3c-4.7-7.5-9.2-15.1-14.1-22.5
				c-2.6-3.8-5.2-7.7-8.1-11.3c-2-2.5-4.2-5.2-7-6.8c-0.4-0.2-0.9-0.5-1.3-0.6c-0.3-0.1-1.2,0.3-0.9,0.4c2.6,0.7,4.8,3.4,6.5,5.3
				c3,3.4,5.6,7.1,8.1,10.8c5.2,7.6,9.9,15.4,14.7,23.2c0.8,1.2,1.5,2.5,2.3,3.7c0.4,0.6,0.8,1.4,1.3,1.9c0.8,0.7,2.3,0.8,3.3,1
				c2.3,0.5,4.6,1,6.9,1.5c4,0.9,8.4,1.5,11,5c1,1.3,1.8,3,1.6,4.7c0,0.4-0.1,0.7-0.1,1.1c-0.1,1.2-0.1,2.5-0.1,3.7
				c-0.2,7.7-0.4,15.3-0.5,23c0,0.2,0,0.4,0,0.6C92.2,138.3,93.3,138.2,93.3,137.8L93.3,137.8z"/>
		</g>
	</g>
	<g>
		<g>
			<path class="st15" d="M108,137.8c0.1-7.2,0.2-14.3,0.4-21.5c0.1-3.9,0.1-7.8,0.2-11.6c0-0.9,0.2-1.8,0.2-2.7
				c0.1-3.2-2.4-6.3-5.1-7.7c-1.3-0.7-2.8-1.1-4.3-1.5c-0.5-0.1-0.9-0.2-1.4-0.3c-0.1,0-0.5-0.1-0.4-0.1c-1.9-0.4-3.7-1.2-5.5-1.8
				c-1.2-0.4-2.3-0.7-3.5-1.1c-0.4-0.1-1.2-0.3-1.4-0.5c-0.5-0.4-0.9-1.3-1.2-1.9c-4.5-7.6-8.7-15.3-13.4-22.7
				c-2.7-4.3-5.5-8.5-8.6-12.5c-2.1-2.8-4.6-5.9-7.7-7.6c-0.5-0.3-1-0.5-1.5-0.6c-0.3-0.1-1.3,0.4-0.9,0.5c2.9,0.7,5.4,3.8,7.2,6
				c3.2,3.8,6,7.9,8.7,12C74.8,70,79.4,78,84,86.1c0.6,1,1.1,1.9,1.7,2.8c0.5,0.7,0.7,0.7,1.6,1c3.5,1.1,7,2.5,10.5,3.2
				c3.3,0.6,6.4,1.9,8.3,4.7c0.9,1.5,1.7,3.3,1.4,5c-0.1,0.3-0.1,0.6-0.1,0.9c-0.2,3.2-0.2,6.3-0.2,9.5c-0.2,8.1-0.3,16.2-0.4,24.3
				c0,0.2,0,0.3,0,0.5C106.9,138.3,108,138.1,108,137.8L108,137.8z"/>
		</g>
	</g>
	<g>
		<g>
			<path class="st15" d="M122.7,137.8c0.1-7.3,0.2-14.7,0.3-22c0.1-4.8,0.1-9.6,0.2-14.4c0-1.4,0.1-2.9,0.1-4.3
				c0-1.2,0.4-2.4,0.2-3.6c-0.6-3.4-3.1-6.3-6.3-7.6c-1.3-0.5-2.7-0.9-4.1-1c-0.7-0.1-0.5,0-1.2-0.3c-2.3-1-4.5-2-6.8-3
				c-0.4-0.2-0.8-0.4-1.3-0.5c-0.1-0.1-0.7-0.4-0.5-0.1c-0.1-0.1-0.2-0.4-0.3-0.5c-4.2-7.4-7.9-15-12.3-22.2
				c-2.8-4.8-5.8-9.5-9.1-13.9c-2.3-3-4.9-6.6-8.3-8.4c-0.6-0.3-1.1-0.5-1.7-0.6s-1.1,0.7-0.4,0.8c1.4,0.3,2.6,1.3,3.6,2.2
				c1.6,1.4,3,3,4.3,4.6c3.3,4.1,6.2,8.6,9,13.1c4.8,7.8,9,15.9,13.3,24c0.3,0.5,0.5,1.3,1,1.7c0.4,0.3,1.2,0.5,1.6,0.7
				c1.1,0.5,2.3,1,3.4,1.5c1.5,0.6,3.1,1.6,4.6,2c3.1,0.7,6,1.1,8.1,3.7c1.1,1.4,2.1,3.3,2.2,5.2c0,0.6-0.2,1.2-0.3,1.8
				c-0.1,1-0.1,2-0.1,3c-0.1,4.4-0.2,8.7-0.2,13.1c-0.1,8.3-0.3,16.6-0.4,24.9c0,0.2,0,0.3,0,0.5
				C121.5,138.5,122.7,138.4,122.7,137.8L122.7,137.8z"/>
		</g>
	</g>
	<g>
		<g>
			<path class="st15" d="M137.3,137.7c0.1-7.4,0.2-14.9,0.3-22.3c0.1-8.7,0.1-17.3,0.4-26c0-0.4,0.1-0.4,0.1-0.8
				c0.5-1.6,0-3.4-0.7-4.9c-1.6-3.4-4.4-5.4-8.1-6c-0.5-0.1-1-0.1-1.5-0.2c-0.3,0,0.1,0.1-0.3-0.1c-0.9-0.5-1.8-1.1-2.8-1.6
				c-1.2-0.7-2.4-1.4-3.6-2.1c-0.4-0.2-1.5-0.7-1.7-0.9c-0.4-0.4-0.6-1.3-0.8-1.8c-0.7-1.5-1.5-3.1-2.2-4.6
				c-2.4-4.8-4.8-9.6-7.4-14.3c-2.9-5.2-5.9-10.3-9.4-15.1c-2.4-3.4-5.2-7.4-9-9.4c-0.6-0.3-1.2-0.6-1.9-0.7c-0.3,0-1.2,0.4-0.9,0.4
				c1.6,0.3,2.9,1.3,4.1,2.3c1.7,1.5,3.2,3.2,4.6,5c3.6,4.6,6.7,9.6,9.6,14.7c2.8,4.9,5.4,9.8,7.9,14.8c1.4,2.8,2.7,5.8,4.2,8.6
				c0.4,0.8,1.3,1,2,1.5c2.1,1.2,4.1,2.5,6.3,3.6c0.5,0.3,0.9,0.2,1.5,0.3c1.9,0.2,3.8,0.8,5.3,1.9c1.6,1.2,2.8,3.1,3.5,5
				c0.3,0.8,0.5,1.6,0.5,2.5c0,0.6-0.2,1.1-0.3,1.7c-0.1,0.7,0,1.5-0.1,2.1c0,1.7-0.1,3.4-0.1,5.1c-0.1,5.1-0.1,10.3-0.2,15.4
				c-0.1,5.4-0.1,10.8-0.2,16.2c0,3.2-0.2,6.3-0.1,9.5c0,0.2,0,0.3,0,0.5C136.2,138.2,137.3,138,137.3,137.7L137.3,137.7z"/>
		</g>
	</g>
</g>
<path class="st16" d="M74.6,124.4"/>
<path class="st1" d="M75.5,47.5"/>
<path class="st1" d="M95.6,54.6"/>
<path class="st2" d="M94.9,57.9"/>
<path class="st1" d="M83.6,42.9"/>
<path class="st17" d="M53.5,108.9c-0.4,0.9,2.4,0.6,3.1,0.2"/>
<path class="st17" d="M61,109.3c-0.5,0.9,1.5,1,3.1,0.2"/>
<path class="st17" d="M68.4,109c-2.6,1.7-0.6,2.4,1,1.5l1.5-0.9"/>
<path class="st17" d="M71.3,111.3c-1.5,0.9,0.8,2.1,2.8,0.3"/>
<path class="st17" d="M74.1,114.3c-1.5,0.9-0.3,2.6,1.6,1"/>
<path class="st18" d="M75.5,117.4c-1.5,0.7,0.1,2.1,2,0.8"/>
<path class="st17" d="M75.7,121.2c-1.5,0.9-1,3.6,1,2"/>
<g>
	<path class="st17" d="M140.7,90.8c0.1,0,1.4,0.1,0.6,0.7c-0.8,0.6-1.6,0.8-2.2,1"/>
</g>
<path class="st17" d="M75.1,125.7c-1.5,0.9-1,2.5,0.7,1.5"/>
<g>
	<path class="st17" d="M137.9,97.5c0,0,3-1.2,3.2-0.1s-2.9,1.4-2.9,1.4"/>
</g>
<g>
	<path class="st17" d="M138.3,105.1c0,0,2.3-1.2,2.5-0.1c0.2,1-3,2.2-3,2.2"/>
</g>
<g>
	<path class="st17" d="M140.5,93.9c0.1,0,1.1,0,0.9,0.7s-2.4,1.2-3.2,1.3"/>
</g>
<path class="st17" d="M75.5,131.1c-1.9,0.8-1.8,3.5,0.5,2"/>
<path class="st17" d="M74.6,137.4c-1.1,0.1-0.2-1.1,0.4-1.4l4.1-2.8"/>
<g>
	<path class="st17" d="M140.4,112.6c0.1,0,1.9,0.2,0.9,1.1c-0.1-0.1-3.6,2.1-3.5,2.3"/>
</g>
<g>
	<path class="st17" d="M132.9,120.2c0.1,0,7.9-3.1,8.2-2c0.3,1-13.6,6.9-14.4,7.5"/>
</g>
<g>
	<path class="st17" d="M138.3,129.3c0.1,0,2.4-1,2-0.1s-2.5,1.9-3.4,2.6"/>
</g>
<g>
	<path class="st17" d="M138.5,133.5c0.1,0,2.4-1,2-0.1s-2.5,1.9-3.4,2.6"/>
</g>
<path class="st17" d="M137.6,126c0,0,2.6-0.9,2.8-0.1c0.3,0.8,0.2,0.7-0.7,1.3"/>
<g>
	<path class="st17" d="M70.5,98.5c-7.2,2-13.5,6.5-13.5,6.5"/>
	<path class="st17" d="M85.9,89.8c-7.2,2-13.1,7.1-13.1,7.1"/>
	<path class="st17" d="M101.8,81.7c-7.2,2-13.5,7.1-13.5,7.1"/>
	<path class="st17" d="M118.1,73.5c-7.2,2-14.2,7.1-14.2,7.1"/>
</g>
<g>
	<path class="st17" d="M67,102.4c-7.2,2-13.5,6.5-13.5,6.5"/>
	<path class="st17" d="M82.5,93.7c-7.2,2-13.1,7.1-13.1,7.1"/>
	<path class="st17" d="M98.4,85.7c-7.2,2-13.5,7.1-13.5,7.1"/>
	<path class="st17" d="M114.2,77.6c-7.2,2-13.7,6.9-13.7,6.9"/>
</g>
<g>
	<path class="st17" d="M78.9,97.7c-7.2,2-14.4,7.4-14.4,7.4"/>
	<path class="st17" d="M62.7,106.1c-2.3,0.6-4.6,2.1-6.5,3"/>
	<path class="st17" d="M94.1,90c-7.2,2-13.4,6.5-13.4,6.5"/>
	<path class="st17" d="M109.2,82.3c-7.2,2-13,6.5-13,6.5"/>
	<path class="st17" d="M125.5,74c-7.2,2-14.2,7.1-14.2,7.1"/>
</g>
<g>
	<path class="st17" d="M72.2,103.1c-7.2,2-11.1,6.2-11.1,6.2"/>
	<path class="st17" d="M90.3,93.8c-7.2,2-15.9,8.2-15.9,8.2"/>
	<path class="st17" d="M105.5,85.9c-7.2,2-13.4,6.9-13.4,6.9"/>
	<path class="st17" d="M120.9,78c-7.2,2-13.4,6.9-13.4,6.9"/>
</g>
<g>
	<path class="st17" d="M68.6,107c-2,0.6-3,1.8-4.7,2.7"/>
	<path class="st17" d="M84.4,98.9c-7.2,2-13.8,6.8-13.8,6.8"/>
	<path class="st17" d="M100.7,90.7c-7.2,2-14.2,7.1-14.2,7.1"/>
	<path class="st17" d="M116.5,82.3c-7.2,2-13.2,6.8-13.2,6.8"/>
	<path class="st17" d="M127.3,76.2c-5,2.2-8.6,5.1-8.6,5.1"/>
</g>
<g>
	<path class="st17" d="M50.4,118.7"/>
	<path class="st17" d="M83.6,101.4c-7.2,2-11.9,6.7-11.9,6.7"/>
	<path class="st17" d="M98.6,93.6c-7.2,2-13,6.7-13,6.7"/>
</g>
<g>
	<path class="st17" d="M54.7,106.4c-1.8-0.2-2.7,0.4-3.7,1.3"/>
</g>
<g>
	<path class="st17" d="M119.9,72.5l3.9-0.9c0.1,0,2.4-0.5,1.6,0.5c-0.7,0.2-1.1,0.4-1.4,0.7"/>
</g>
<g>
	<path class="st17" d="M125.8,73.9c0.1,0,3.6-0.9,2.8,0.2c-0.4,0.1-0.7,0.3-1,0.4"/>
</g>
<g>
	<path class="st17" d="M129.3,75.6c0.1,0,3-0.8,2.2,0.3c-1.4,0.4-1.6,0.9-2.3,1.6"/>
</g>
<g>
	<path class="st17" d="M135.2,77.4c0.1,0,2.4-0.5,1.6,0.5l-1.4,1"/>
</g>
<g>
	<path class="st17" d="M137.3,79.4c0.1,0,2.4-0.5,1.6,0.5l-1.4,1"/>
</g>
<g>
	<path class="st17" d="M140.7,86.5c0,0,1.2,0.1,0.4,1.1c0,0-1.3,0.2-2.1,0.8"/>
</g>
<g>
	<path class="st17" d="M140.7,82.7c0.1,0,1.6,0.1,0.6,1c-1.4,0.1-1.7,0.5-2.6,1.1"/>
</g>
<path class="st17" d="M113,86.1c-6.5,2.2-12.3,6.6-12.3,6.6"/>
<path class="st17" d="M128.2,78.4c-6.9,2.1-12.4,6.5-12.4,6.5"/>
<path class="st17" d="M115.5,76.7c0,0,2.9-2.4,8.3-3.7"/>
<path class="st17" d="M122.9,76.9c0,0,3.5-2.4,4.7-2.3"/>
<g>
	<path class="st17" d="M76.9,107.3c-2.2,0.6-4.2,1.4-6.1,2.3"/>
	<path class="st17" d="M92.4,98.6c-7.2,2-13.1,7.1-13.1,7.1"/>
	<path class="st17" d="M108.3,90.5c-7.2,2-13.5,7.1-13.5,7.1"/>
	<path class="st17" d="M124.1,82.4c-7.2,2-13.7,6.9-13.7,6.9"/>
</g>
<g>
	<path class="st17" d="M88.9,102.5c-7.2,2-14.4,7.4-14.4,7.4"/>
	<path class="st17" d="M104,94.9c-7.2,2-13.4,6.5-13.4,6.5"/>
	<path class="st17" d="M119.1,87.2c-7.2,2-13,6.5-13,6.5"/>
	<path class="st17" d="M135.5,78.8c-7.2,2-14.2,7.1-14.2,7.1"/>
</g>
<g>
	<path class="st17" d="M84.1,106.8c-7.2,2-10.3,5.2-10.3,5.2"/>
	<path class="st17" d="M100.2,98.6c-7.2,2-14.2,7-14.2,7"/>
	<path class="st17" d="M115.4,90.7c-7.2,2-13.4,6.9-13.4,6.9"/>
	<path class="st17" d="M130.8,82.9c-7.2,2-13.4,6.9-13.4,6.9"/>
</g>
<g>
	<path class="st17" d="M81.6,110.1c-2,0.6-6.1,3.6-7.9,4.5"/>
	<path class="st17" d="M96.6,102.6c-7.2,2-12.7,5.9-12.7,5.9"/>
	<path class="st17" d="M110.6,95.5c-7.2,2-12.1,5.6-12.1,5.6"/>
	<path class="st17" d="M126.4,87.1c-7.2,2-13.2,6.8-13.2,6.8"/>
	<path class="st17" d="M137.2,81c-5,2.2-8.6,5.1-8.6,5.1"/>
</g>
<g>
	<path class="st17" d="M59.5,123.7"/>
	<path class="st17" d="M94.7,105.5c-7.2,2-12.8,6.7-12.8,6.7"/>
	<path class="st17" d="M108.8,98.1c-7,1.8-10.9,5-12.1,6"/>
</g>
<path class="st17" d="M123.7,90.3c-6.5,2.2-12.3,6.6-12.3,6.6"/>
<path class="st17" d="M138.4,83.1c-6.9,2.1-12.4,6.5-12.4,6.5"/>
<path class="st17" d="M125.4,81.5c0,0,2.9-2.4,8.3-3.7"/>
<path class="st17" d="M132.8,81.7c0,0,3.5-2.4,4.7-2.3"/>
<g>
	<path class="st17" d="M77.8,116c-1.5,0.4-1,0.9-2.4,1.4"/>
	<path class="st17" d="M80.3,113.1c-1.4,0.6-3.4,1.7-4.7,2.4"/>
	<path class="st17" d="M92.8,108.2c-7.2,2-12.8,7-12.8,7"/>
	<path class="st17" d="M107.2,100.8c-7.2,2-12,6.4-12,6.4"/>
	<path class="st17" d="M127.1,90.8c-7.2,2-17.5,8.7-17.5,8.7"/>
</g>
<g>
	<path class="st17" d="M91.8,111c-7.2,2-14.4,7.4-14.4,7.4"/>
	<path class="st17" d="M107,103.3c-7.2,2-13.4,6.5-13.4,6.5"/>
	<path class="st17" d="M122.1,95.6c-7.2,2-13,6.5-13,6.5"/>
	<path class="st17" d="M138.4,87.3c-7.2,2-14.2,7.1-14.2,7.1"/>
</g>
<g>
	<path class="st17" d="M86.2,115.7c-4.5,1.2-9,4.2-10.9,5.7"/>
	<path class="st17" d="M103.2,107c-7.2,2-14.7,7.2-14.7,7.2"/>
	<path class="st17" d="M118.4,99.2c-7.2,2-13.4,6.9-13.4,6.9"/>
	<path class="st17" d="M133.8,91.3c-7.2,2-13.4,6.9-13.4,6.9"/>
</g>
<g>
	<path class="st17" d="M83.3,119.3c-2,0.6-4.7,2.8-6.4,3.7"/>
	<path class="st17" d="M97.5,112.2c-7.2,2-11.9,5.6-11.9,5.6"/>
	<path class="st17" d="M113.8,103.9c-7.2,2-14.2,7.1-14.2,7.1"/>
	<path class="st17" d="M127.9,96.1c-7.2,2-11.6,6.2-11.6,6.2"/>
	<path class="st17" d="M140.3,89.4c-5,2.2-9.8,5.5-9.8,5.5"/>
</g>
<g>
	<path class="st17" d="M62.1,132"/>
	<path class="st17" d="M95.3,114.7c-7.2,2-11.9,6.7-11.9,6.7"/>
	<path class="st17" d="M110.4,106.9c-7.2,2-13,6.7-13,6.7"/>
</g>
<path class="st17" d="M124.2,100.1c-6.5,2.2-10.6,5.8-10.6,5.8"/>
<path class="st17" d="M141.1,91.7c-6.9,2.1-13.8,6.9-13.8,6.9"/>
<path class="st17" d="M128.4,90c0,0,2.9-2.4,8.3-3.7"/>
<path class="st17" d="M135.8,90.2c0,0,3.5-2.4,4.7-2.3"/>
<g>
	<path class="st17" d="M78,126.5c-1.1,0.3-2.1,0.6-3.1,1"/>
	<path class="st17" d="M93.5,117.8c-7.2,2-13.1,7.1-13.1,7.1"/>
	<path class="st17" d="M109.4,109.7c-7.2,2-13.5,7.1-13.5,7.1"/>
	<path class="st17" d="M125.2,101.7c-7.2,2-13.7,6.9-13.7,6.9"/>
</g>
<g>
	<path class="st17" d="M89.9,121.8c-7.2,2-14.4,7.4-14.4,7.4"/>
	<path class="st17" d="M105.1,114.1c-7.2,2-13.4,6.5-13.4,6.5"/>
	<path class="st17" d="M120.2,106.4c-7.2,2-13,6.5-13,6.5"/>
	<path class="st17" d="M136.2,98.1c-7.2,2-13.8,7.1-13.8,7.1"/>
</g>
<g>
	<path class="st17" d="M83.2,127.1c-3.4,0.9-8.1,4.2-8.1,4.2"/>
	<path class="st17" d="M101.3,117.8c-7.2,2-15.9,8.2-15.9,8.2"/>
	<path class="st17" d="M116.5,110c-7.2,2-13.4,6.9-13.4,6.9"/>
	<path class="st17" d="M131.9,102.1c-7.2,2-13.4,6.9-13.4,6.9"/>
</g>
<g>
	<path class="st17" d="M79.5,131.1c-2,0.6-2.4,1.3-4.1,2.1"/>
	<path class="st17" d="M94.9,123c-7.2,2-13.3,6.8-13.3,6.8"/>
	<path class="st17" d="M111.7,114.7c-7.2,2-14.2,7.1-14.2,7.1"/>
	<path class="st17" d="M127.5,106.4c-7.2,2-13.2,6.8-13.2,6.8"/>
	<path class="st17" d="M138.5,100.5c-5,2.2-8.9,4.9-8.9,4.9"/>
</g>
<g>
	<path class="st17" d="M94.6,125.4c-7.2,2-13.3,6.7-13.3,6.7"/>
	<path class="st17" d="M109.6,117.7c-7.2,2-13,6.7-13,6.7"/>
</g>
<g>
	<path class="st17" d="M138.1,100.7c1.6-0.8,3-0.2,2.9,0.5s-0.7,0.9-1.9,1.3"/>
</g>
<path class="st17" d="M124,110.2c-6.5,2.2-12.3,6.6-12.3,6.6"/>
<path class="st17" d="M139.7,102.3c-6.9,2.1-12.9,6.7-12.9,6.7"/>
<path class="st17" d="M126.5,100.8c0.8-0.7,7.7-4.6,12.1-4.9"/>
<path class="st17" d="M133.9,101c0,0,3.5-2.4,4.7-2.3"/>
<path class="st17" d="M135.5,106.8c0,0,3.5-2.4,4.7-2.3"/>
<g>
	<path class="st17" d="M77.4,135.9c-0.9,0.2-1.8,1.2-2.7,1.5"/>
	<path class="st17" d="M92.8,127.9c-7.2,2-13.1,7.1-13.1,7.1"/>
	<path class="st17" d="M108.7,119.8c-7.2,2-13.5,7.1-13.5,7.1"/>
	<path class="st17" d="M124.6,111.7c-7.2,2-13.7,6.9-13.7,6.9"/>
</g>
<g>
	<path class="st17" d="M89.3,131.8c-5.1,1.4-10.2,4.5-12.7,6.2"/>
	<path class="st17" d="M73,140.2"/>
	<path class="st17" d="M104.4,124.2c-7.2,2-13.4,6.5-13.4,6.5"/>
	<path class="st17" d="M119.6,116.4c-7.2,2-13,6.5-13,6.5"/>
	<path class="st17" d="M135.9,108.1c-7.2,2-14.2,7.1-14.2,7.1"/>
</g>
<g>
	<path class="st17" d="M82.5,137.2c-1.1,0.3-2.1,0.6-3,1"/>
	<path class="st17" d="M100.6,127.9c-7.2,2-15.9,8.2-15.9,8.2"/>
	<path class="st17" d="M115.9,120c-7.2,2-13.4,6.9-13.4,6.9"/>
	<path class="st17" d="M131.2,112.1c-7.2,2-13.4,6.9-13.4,6.9"/>
</g>
<g>
	<path class="st17" d="M94.8,133.1c-5,1.4-9.7,4.1-12.1,5.6"/>
	<path class="st17" d="M111.1,124.8c-7.2,2-14.2,7.1-14.2,7.1"/>
	<path class="st17" d="M126.8,116.4c-7.2,2-13.2,6.8-13.2,6.8"/>
	<path class="st17" d="M138.6,110.3c-5.2,1.4-9.6,5.1-9.6,5.1"/>
</g>
<g>
	<path class="st17" d="M93.9,135.5c-2.7,0.7-5,1.8-6.9,2.9"/>
	<path class="st17" d="M109,127.7c-7.2,2-13,6.7-13,6.7"/>
</g>
<g>
	<path class="st17" d="M138.1,108.6c0.1,0,3-0.8,2.2,0.3"/>
</g>
<path class="st17" d="M123.3,120.2c-6.5,2.2-12.3,6.6-12.3,6.6"/>
<path class="st17" d="M138.6,112.6c-6.9,2.1-12.4,6.5-12.4,6.5"/>
<path class="st17" d="M125.8,110.8c0,0,2.9-2.4,8.3-3.7"/>
<path class="st17" d="M133.2,111c0,0,3.5-2.4,4.7-2.3"/>
<g>
	<path class="st17" d="M105.7,132c-7.2,2-13.5,7.1-13.5,7.1"/>
	<path class="st17" d="M121.5,123.9c-7.2,2-13.7,6.9-13.7,6.9"/>
</g>
<g>
	<path class="st17" d="M99.2,137.4c-0.8,0.2-1.6,0.5-2.4,0.8"/>
	<path class="st17" d="M114.3,129.7c-7.2,2-13,6.5-13,6.5"/>
	<path class="st17" d="M130.6,121.3c-7.2,2-14.2,7.1-14.2,7.1"/>
</g>
<g>
	<path class="st17" d="M93.6,142.2"/>
	<path class="st17" d="M108.8,134.4c-3.4,0.9-6.6,2.5-9,4"/>
	<path class="st17" d="M124.2,126.5c-7.2,2-13.4,6.9-13.4,6.9"/>
</g>
<g>
	<path class="st17" d="M96.6,142.8"/>
	<path class="st17" d="M110.8,135.7c-2.4,0.6-4.8,1.6-6.8,2.7"/>
	<path class="st17" d="M126.6,127.3c-7.2,2-13.2,6.8-13.2,6.8"/>
	<path class="st17" d="M139.2,121.2c-1.5,0.3-10.5,5.2-10.5,5.2"/>
</g>
<g>
	<path class="st17" d="M139,121.3c1.2-0.5,3.2-0.2,2,0.9l-0.8,0.6"/>
</g>
<path class="st17" d="M123.1,131.1c-6.5,2.2-12.3,6.6-12.3,6.6"/>
<path class="st17" d="M138.3,123.5c-6.9,2.1-12.4,6.5-12.4,6.5"/>
<path class="st17" d="M124.4,122.6c0,0,6.2-4.8,11.6-6.1"/>
<g>
	<path class="st17" d="M109.9,140.2"/>
	<path class="st17" d="M125.7,132.1c-7.2,2-13.7,6.9-13.7,6.9"/>
</g>
<g>
	<path class="st17" d="M121.1,136.5c-1.4,0.4-3.2,1.3-4.5,1.8"/>
	<path class="st17" d="M137.7,127.8c-7.2,2-14.9,7.8-14.9,7.8"/>
</g>
<g>
	<path class="st17" d="M117,140.4"/>
	<path class="st17" d="M132.4,132.6c-7.2,2-13.4,6.9-13.4,6.9"/>
</g>
<g>
	<path class="st17" d="M128,136.8c-1.4,0.4-2.8,0.9-4.1,1.4"/>
	<path class="st17" d="M138.8,130.7c-5,2.2-8.6,5.1-8.6,5.1"/>
</g>
<path class="st17" d="M124.5,140.7"/>
<path class="st17" d="M135.7,134.4c-5.9,2.2-8.4,5-8.4,5"/>
<path class="st17" d="M131.8,138.7c-1.7,1.2-2.5,2-2.5,2"/>
<path class="st17" d="M137.7,135.7c-2.6,1-4.5,2.1-5.9,3"/>
<path class="st19" d="M137.8,137.4c-1.2,0.5-2.3,1-3.3,1.6"/>
<path class="st17" d="M127,131.3c0,0,3.6-3.4,9-4.7"/>
<path class="st17" d="M134.4,131.4c0,0,3.5-2.4,4.7-2.3"/>
<path class="st17" d="M80.1,123.4c-1.7,0.5-3.4,1.6-4.9,2.3"/>
</svg>
