<?xml version="1.0" encoding="utf-8"?>
<!-- Generator: Adobe Illustrator 25.2.3, SVG Export Plug-In . SVG Version: 6.00 Build 0)  -->
<svg version="1.1" id="Layer_1" xmlns="http://www.w3.org/2000/svg" xmlns:xlink="http://www.w3.org/1999/xlink" x="0px" y="0px"
	 viewBox="0 0 150 197.8" style="enable-background:new 0 0 150 197.8;" xml:space="preserve">
<style type="text/css">
	.st0{fill:#B79797;}
	.st1{fill:none;stroke:#FFFFFF;stroke-width:0.25;stroke-miterlimit:10;}
	.st2{fill:#CCB9B9;stroke:#FFFFFF;stroke-width:0.25;stroke-miterlimit:10;}
	.st3{fill:#E4DAD8;stroke:#FFFFFF;stroke-width:0.25;stroke-miterlimit:10;}
	.st4{fill:#CCB9B9;stroke:#FFFFFF;stroke-width:0.5;stroke-miterlimit:10;}
	.st5{fill:#543C52;}
	.st6{fill:#543C52;stroke:#FFFFFF;stroke-width:0.25;stroke-miterlimit:9.9997;}
	.st7{fill:#361D32;stroke:#FFFFFF;stroke-width:0.25;stroke-miterlimit:10;}
	.st8{fill:#543C52;stroke:#FFFFFF;stroke-width:0.25;stroke-miterlimit:10;}
	.st9{fill:#B79797;stroke:#FFFFFF;stroke-width:0.25;stroke-miterlimit:10;}
	.st10{clip-path:url(#SVGID_2_);}
	.st11{fill:#543C52;stroke:#FFFFFF;stroke-width:8.720364e-02;stroke-miterlimit:9.9988;}
	.st12{fill:#361D32;stroke:#FFFFFF;stroke-width:9.626419e-02;stroke-miterlimit:10;}
	.st13{fill:#543C52;stroke:#FFFFFF;stroke-width:8.527125e-02;stroke-miterlimit:10;}
	.st14{fill:#543C52;stroke:#FFFFFF;stroke-width:8.328352e-02;stroke-miterlimit:10;}
	.st15{fill:#543C52;stroke:#FFFFFF;stroke-width:8.721422e-02;stroke-miterlimit:10;}
	.st16{fill:#361D32;stroke:#FFFFFF;stroke-width:0.1136;stroke-miterlimit:10;}
	.st17{fill:#361D32;stroke:#FFFFFF;stroke-width:0.108;stroke-miterlimit:10;}
	.st18{fill:#543C52;stroke:#FFFFFF;stroke-width:8.929575e-02;stroke-miterlimit:10;}
	.st19{fill:#361D32;stroke:#FFFFFF;stroke-width:0.1163;stroke-miterlimit:10;}
	.st20{fill:none;stroke:#FFFFFF;stroke-width:8.929575e-02;stroke-miterlimit:10;}
	.st21{fill:none;stroke:#FFFFFF;stroke-width:8.721422e-02;stroke-miterlimit:10;}
	.st22{fill:#AA7F7B;}
	.st23{fill:#916461;}
	.st24{clip-path:url(#SVGID_4_);}
</style>
<g>
	<g>
		<g>
			<g>
				<g>
					<path id="XMLID_21_" class="st0" d="M80,44.1c1.6-1.1,2.1-1.9,2.8-2.9c0.6-1,1.5-1.4,2.1-1.9c0.6-0.6,48.4-29.3,51.9-31.7
						c0.6-0.4,0.9-2.2,0.7-2.9c-0.3-0.8-2.2-1.3-2.8-0.9c-2.5,1.7-51.7,34-51.7,34s-4.3,3.2-5.6,3.9s-8.7,2.8-5.5,3.3
						c0.1,0.1,0.4,0,0.4,0.1C74.4,46.8,78.4,45.2,80,44.1z"/>
				</g>
				<g>
					<path id="XMLID_1_" class="st1" d="M80,44.1c1.6-1.1,2.1-1.9,2.8-2.9c0.6-1,1.5-1.4,2.1-1.9c0.6-0.6,48.4-29.3,51.9-31.7
						c0.6-0.4,0.9-2.2,0.7-2.9c-0.3-0.8-2.2-1.3-2.8-0.9c-2.5,1.7-51.7,34-51.7,34s-4.3,3.2-5.6,3.9s-8.7,2.8-5.5,3.3
						c0.1,0.1,0.4,0,0.4,0.1C74.4,46.8,78.4,45.2,80,44.1z"/>
				</g>
			</g>
		</g>
		<path class="st2" d="M71.3,44.6c0.9,0.6,4,0,5.7-0.4s4.4-2.1,5.5-2.6c-0.1,0.3-1.6,1.8-2.3,2.3c-1.2,0.9-4.1,1.9-5.2,1.9
			C71.4,45.9,71,44.4,71.3,44.6z"/>
	</g>
</g>
<polygon class="st3" points="76.2,189.5 142.6,156.3 87.1,127 19.4,161.2 "/>
<polygon class="st2" points="27.3,159.9 76,184.3 130.2,157 130.2,149.5 80.2,124.4 27.4,156.3 "/>
<polygon class="st2" points="27.3,160 27.3,151.8 75.9,175.9 75.9,184.3 "/>
<polygon class="st2" points="19.4,161.2 19.5,169.1 75.8,197.2 143.1,163.3 143.1,156 75.8,189.4 "/>
<line class="st1" x1="75.8" y1="189.4" x2="75.8" y2="197.2"/>
<polygon class="st3" points="27.7,152.1 76.1,176.4 130.1,149.5 81.8,125.1 "/>
<path class="st4" d="M115.8,137.8l-17.3-9.2c0,0-2.2,0.4-3.2-0.1c-1.1-0.5-0.9-0.8-1.3-1.9c0,0-8.9-4.4-8.6-4.7v10.5l30.7,15.4
	L115.8,137.8z"/>
<polygon class="st2" points="75.9,169.7 35.9,150.2 35.8,137.6 75.8,157.5 "/>
<polygon class="st2" points="76,169.8 116.2,149.7 116.1,137.5 75.9,157.6 "/>
<ellipse class="st5" cx="73" cy="151.3" rx="2.4" ry="1.2"/>
<ellipse class="st5" cx="75.9" cy="129.8" rx="2.4" ry="1.2"/>
<g>
	<ellipse class="st5" cx="76.1" cy="129.7" rx="2.4" ry="1.2"/>
	<path class="st5" d="M73.6,129.7c0,0,2.3-4.3,4.9,0c0,0-1.2,0.6-2.7,0.6S73.6,129.7,73.6,129.7z"/>
</g>
<g>
	<ellipse transform="matrix(0.9863 -0.1649 0.1649 0.9863 -12.0531 6.6127)" class="st6" cx="33.8" cy="75.9" rx="26" ry="14"/>
	<path class="st7" d="M59.9,60.5c2.2,8.9-0.4,17.4-9.3,23.1c-3,1.9-7.1,0.3-10.8,1.3c-2.7,0.7-7.2,1-9.8,1.1
		c-11.6,0-19.4-4.4-21.8-14.1c-1.8-7.2-6-24.4-0.2-30c3.9-3.6,4-6.8,14.7-11.6s24.3-5.6,32.9,2.9S57.7,51.6,59.9,60.5z"/>
	<path class="st8" d="M48,40.5c0.1-4,0.2-7.4,4.7-8.4c2.8-0.7,9.8,0.7,11.7,20.3s-10,27.4-10,27.4s-4.8-21.1-6.5-32.4
		C47.4,43.7,47.9,41.5,48,40.5z"/>
	<path class="st8" d="M42.7,82.7l0.1-1c0,0,2.8-11.2,4.1-20.8c0.9-6.4,1.5-16.3,1.5-19.9c-3-12-6.5-17.2-12.2-16.9
		c-5.7,0.4-9.9,4.7-11,10.8c-0.5,3,0.2,7.6,2.1,13.1c1.9,5.6,5,12,7.8,19.1c2.3,5.8,4.4,11.7,4.5,16c0,0,1.2-7.4,2.2-7.2
		c1,0.2,1.5,5.9,1.5,5.9L42.7,82.7z"/>
	<path class="st8" d="M7.4,54.8c0,0-4.8,5.8-3.8,12.8s5.5,12.1,5.5,12.1S3.3,60.6,7.4,54.8z"/>
	<path class="st8" d="M7.4,54.8c0,0-2.2,5.3,0.6,14.3s13,18.8,13,18.8s0.6-0.3-0.1,0.5s-5.1,1.9-7.2-1.2c-2.2-3.1-5.8-8.3-7-16
		S5.9,60.5,6.4,58.1S7.4,54.8,7.4,54.8z"/>
	<path class="st8" d="M23.4,88.3c-0.8,0.3-8.7-21.2-7.9-21.6c0-3.8,5.1-12.1,7.4-17.6s4.3-14.4-1.5-15c-10.9,0-16.6,9.8-17.9,17
		s-0.2,11.2,7.3,24.4s11.5,12.7,11.9,13.3C23.5,89.6,23.7,88.4,23.4,88.3z"/>
	<path class="st7" d="M23.5,88.9c-0.7,0.3-9.5-10.1-8.7-22.3c0.4-6.1,2.2-9.5,4.2-13.2c2.1-3.7,4.5-8.1,0.2-8.5
		c-2.6,0-4.4,1.3-5.9,2.5c-3.5,2.8-4.7,5.5-5.3,7.7c-0.4,2.3-2.1,8.6,4,19.3s10.4,13.7,10.7,14.2C23.1,89,23.5,88.9,23.5,88.9z"/>
	<path class="st7" d="M42.2,84.4c0,0-0.1-4.6-1-4.7c-0.9-0.2-1.7,3.2-1.7,3.2c-0.1-3.7,0-5.6-2-10.6c-4.8-12.2-10.3-22.8-9.4-28
		C29,39,32.6,35.7,37,36s8.3,5.6,9.7,13.7c0.6,3.3,0,7.7-0.8,13.2C44.8,71.2,42.4,81,42.4,81s0.2,3.2-0.2,3.2V84.4z"/>
	<path class="st8" d="M53.9,82c-2.1,2.3-6.3,4.3-7.8,4.6c-3.3,0.5-6.6-0.5-5.7-3.7c0.5-2,3.1-10.1,4.4-15.6
		c1.8-7.6,2.5-15.6,2.5-15.6s0.9-14.5,0.6-11.2c-0.2,1.8-0.4,6.1,1.6,11.8s3.9,7.6,5,11.8c1.7,6.9,3.1,11.4,1.8,14.6
		C56.3,78.6,55.9,79.7,53.9,82z"/>
	<path class="st7" d="M59,71.4c5.4-7.1,5.7-22.1,1.2-28.6S51.8,38.1,51,39c-0.8,0.9-1.8,2.2-2,4.2s-0.1,6,2.3,10.9s6.3,14,5.2,24.1
		L59,71.4z"/>
	<path class="st8" d="M35.1,89.2c1.8-1.3,4.8-4.2,4.8-10.7c-0.1-6.5-4.8-13-7.8-19.4c-1.6-3.6-3.8-7.8-5-11.4
		c-1-3.2-1.2-5.9-1.3-6.6c-0.2-0.7,0.5,4.7,1.9,10.8c1.7,7.6,2.5,19.3,1.7,19.5c-0.9,0.1-4.3-8.7-5.2-12.9s1-16,0.8-16.3
		c-0.1-0.3-1.2,6.7-4.1,11.2s-6.3,11.1-5.8,15.9c0.4,4.9,0.7,14.4,6.2,19C24.8,91,33.3,90.6,35.1,89.2z"/>
	<path class="st1" d="M53.7,55.7c0,0,5.4,14.8,3.2,20.3"/>
	<path class="st1" d="M42.4,76.1c-0.3,0-0.4-31.4,0-31.4"/>
	<path class="st1" d="M16.9,81.9c0,0-8.9-13.5-5.3-23.2"/>
</g>
<path class="st9" d="M116.1,137.5l-17.7-8.9l-6.6,3.7v0.5c0.3,3-0.6,6.1-1.8,7.7s-4.5,5.9-10.3,7.1c-5.6,0.8-6,0.5-10-0.2
	c-2.3-0.5-2.3-0.7-3.3-1.2c-0.8-0.5-2.8-1.3-3.6-1.9c-1.7-1.2-1.6-4-0.9-4.8c-1.6-0.8-0.8-5.6-0.8-5.6s-2-4.8,6-9.3s9.6-4,14.4-2.4
	s8.5,6,8.5,6l3.5-1.7l-17.3-8.7l-40.4,19.9l40.3,19.9L116.1,137.5"/>
<g>
	<ellipse class="st5" cx="50.5" cy="136.5" rx="2.4" ry="1.2"/>
	<path class="st5" d="M48.1,136.5c0,0,2.3-4.3,4.9,0c0,0-1.2,0.6-2.7,0.6S48.1,136.5,48.1,136.5z"/>
</g>
<g>
	<g>
		<g>
			<g>
				<defs>
					<path id="SVGID_1_" d="M92.1,134.2c0,7.4-7.9,13.6-16.3,13.6c-4.1,0-9.8-0.9-13-3.2c-3.4-2.4-3-6.7-3-10.4
						c0-7.4,9-13.9,17.3-13.9S92.1,126.8,92.1,134.2z"/>
				</defs>
				<clipPath id="SVGID_2_">
					<use xlink:href="#SVGID_1_"  style="overflow:visible;"/>
				</clipPath>
				<g class="st10">
					
						<ellipse transform="matrix(0.778 -0.6282 0.6282 0.778 -63.9658 82.5914)" class="st11" cx="84.9" cy="131.8" rx="6.9" ry="12.7"/>
					<path class="st12" d="M72.1,124.4c3.3-3.1,7.5-4,12.1-1.6c1.5,0.8,1.8,2.9,3.1,4.3c0.9,1,2.2,2.8,2.8,3.9
						c2.9,5,2.8,9.3-0.7,12.7c-2.6,2.5-9,8.4-12.8,7.3c-2.5-0.7-3.9,0-8.5-3.4s-8.2-9-6.7-14.7C63,127.1,68.8,127.4,72.1,124.4z"/>
					<path class="st13" d="M66.4,134.3c-1.7,0.9-3.2,1.7-4.7,0c-1-1-2.1-4.3,5.9-9.9s14.1-2.3,14.1-2.3s-7.9,7.1-12.3,10.5
						C67.9,133.8,66.8,134,66.4,134.3z"/>
					<path class="st14" d="M85.8,126.4l-0.5,0.2c0,0-5.4,1.5-9.8,3.3c-3,1.2-7.3,3.3-8.9,4.1c-4.4,4.2-5.8,6.9-4.3,9.3
						c1.5,2.3,4.4,3.1,7.2,2.1c1.4-0.5,3.2-1.9,5.1-4s3.9-5,6.3-7.9c1.9-2.4,3.9-4.7,5.8-5.8c0,0-3.5,1.3-3.6,0.8s2.2-2.1,2.2-2.1
						L85.8,126.4L85.8,126.4z"/>
					<path class="st14" d="M82.3,148.1c0,0,3.6,0.7,6.4-1.4s3.8-5.3,3.8-5.3S85.8,148.5,82.3,148.1z"/>
					<path class="st15" d="M82.3,148.1c0,0,2.8-0.3,6-3.7s4.9-10.1,4.9-10.1s-0.3-0.2,0.2-0.1c0.5,0.1,2,1.7,1.2,3.4
						s-2.1,4.5-5.2,6.8s-4.3,2.9-5.5,3.3C82.8,148.1,82.3,148.1,82.3,148.1z"/>
					<path class="st14" d="M92.8,133.3c0.3,0.3-7,8.8-7.3,8.5c-1.6,0.9-6.4,0.8-9.3,1.1s-7.2,1.6-6.1,4.3c2.6,4.7,8.2,4.7,11.6,3.5
						s4.8-2.7,8.7-9c3.8-6.4,2.7-7.9,2.8-8.3C93.2,132.9,92.8,133.1,92.8,133.3z"/>
					<path class="st16" d="M92.9,133.1c0.3,0.2-2,6.5-7.4,9.1c-2.7,1.3-4.6,1.4-6.7,1.4s-4.5,0-3.7,1.9c0.6,1.1,1.6,1.6,2.5,1.9
						c2,0.8,3.5,0.7,4.6,0.4s4.2-1.1,7.3-6.3c3.1-5.2,3.3-7.7,3.5-8S92.9,133.1,92.9,133.1z"/>
					<path class="st17" d="M86.5,126.2c0,0-1.9,1.1-1.8,1.5s1.8,0,1.8,0c-1.6,0.9-2.4,1.3-4,3.4c-4,5-7.2,9.9-9.7,10.7
						c-2.5,0.9-4.7,0.1-5.7-1.8c-1-1.9,0.4-4.9,3.5-7.4c1.3-1,3.3-1.8,5.8-2.8c3.8-1.5,8.6-2.9,8.6-2.9S86.3,126.1,86.5,126.2
						L86.5,126.2z"/>
					<path class="st18" d="M82.8,121.8c1.5,0.3,3.4,1.6,3.8,2.2c1,1.3,1.4,2.9-0.2,3.3c-1,0.3-5.1,1.1-7.7,1.9
						c-3.6,1.1-7.2,2.7-7.2,2.7s-6.4,3.1-4.9,2.4c0.8-0.4,2.7-1.3,4.7-3.5c1.9-2.2,2.3-3.5,3.8-5c2.5-2.4,4.1-4.1,5.8-4.3
						C80.8,121.5,81.2,121.4,82.8,121.8z"/>
					<path class="st19" d="M76.9,122.1c-4.3-0.6-10.8,2.9-12.5,6.4c-1.7,3.5,0,4.7,0.6,4.9c0.6,0.1,1.4,0.3,2.3-0.1
						c0.9-0.4,2.6-1.4,4.1-3.6c1.5-2.2,4.5-6.1,9-8L76.9,122.1z"/>
					<path class="st15" d="M90.3,128c-1-0.4-3-1.1-5.7,0.5c-2.7,1.6-4.4,5.2-6.4,8c-1.1,1.6-2.4,3.5-3.7,4.9
						c-1.1,1.2-2.2,1.9-2.5,2.2c-0.3,0.2,1.9-1.4,4.2-3.4c2.8-2.6,7.6-5.7,7.9-5.4c0.3,0.4-2.7,4-4.2,5.3c-1.5,1.4-7.1,3.4-7.2,3.6
						c-0.1,0.1,3.2-1.1,5.8-1c2.6,0.1,6.2,0,8.2-1.3c2-1.4,6-3.8,6.6-7.2C93.5,132,91.3,128.5,90.3,128z"/>
					<path class="st20" d="M71.5,128.2c0,0,5-5.9,7.9-6.3"/>
					<path class="st20" d="M82.9,128.1c0.1,0.1-13.3,7.7-13.4,7.6"/>
					<path class="st21" d="M91.5,137.5c0,0-3.6,7-8.6,7.9"/>
				</g>
			</g>
		</g>
	</g>
</g>
<g>
	<g>
		<g>
			<path class="st2" d="M95.2,120.8c0,0,2.2-0.5,3.5,0.2s2.1,1.8,2.1,1.8l3.1-9.1l-9.2-4.2L95.2,120.8z"/>
			<polygon class="st2" points="131.2,84.6 130.8,128.8 121.2,133.7 121,89.6 			"/>
			<polygon class="st2" points="81.6,69.4 91.8,64.3 131.1,84.5 121.3,89.3 			"/>
			<g>
				<path class="st9" d="M100.8,115.1v7.7l20.7,10.7l-0.2-44.1l-39.5-20L81.5,114l14,6.9l0.1-8.6c0,0,1.4,0.3,2.4,0.7
					C99,113.3,100.8,115.1,100.8,115.1z"/>
			</g>
		</g>
		<path class="st2" d="M101.1,86.6c1.2-0.8,2.6-0.5,3.5,1c0.4,0.6,0.8,1.4,1.3,1.6c0.8,0.2,1.7-0.4,2.3,0.2c1,1,1.2,2,1.9,3.4
			c0.9,1.6,1.5,4.4,1.9,6.4c0.1,0.3,0.1,0.6,0.2,0.9c1.1,7.9-2.8,15-9,16.2c-0.8,0.2-1.8,0.2-2.6,0.1c0,0-0.5-1.2-2.3-1.6
			s-2.8-0.3-2.8-0.3s-0.4-0.3-0.9-0.7c-2.8-2.3-5.1-6-5.9-10.4c-0.6-3-0.4-5.9,0.4-8.5c0.4-1.5,1.1-2.4,1.9-3.7
			c0.5-0.8,1.3-0.9,1.7-2.5c0.4-1.6,2.8-2.2,3.9-1.2C98,88.5,99.9,87.4,101.1,86.6z"/>
		<path class="st22" d="M92.8,111.5c0,0,0.9,0.9,1.6,1.7c0.7,0.8,1.4,1.1,1.4,1.1s2.4,0.1,3.4,0.5s1.6,1,1.7,1.3
			c0,0.1,0.7,0.1,0.7,0.1s3.4,0,5.2-1.6c0.1-0.1,0.2-0.2,0.2-0.3c0,0-2-2.3-3.9-3.4c-1-0.5-4.7-1.4-6.3-1.5
			C94.8,109.3,92.8,111.5,92.8,111.5z"/>
		<path class="st5" d="M99.2,110.1c0,0,0-0.8,0-1.3c0-7.1-0.4-13.6,0.5-16.1s2.3-3.6,3.6-2.7c1.3,0.9,1.8,4.3,1.3,8.8
			c-0.2,1.8-0.9,3.9-1.8,6.7c-0.5,1.6-1.6,4.8-1.6,4.8L99.2,110.1z"/>
		<path class="st0" d="M98.5,112.5c0,0,0-1,0-1.7c0-9.1-4.1-14.6-2.9-17.9s6.4-7.5,8-6.3s2.5,5.8,1.8,11.5c-0.3,2.3-1.2,5-2.3,8.5
			c-0.7,2.1-2.1,6.1-2.1,6.1L98.5,112.5z"/>
		<path class="st0" d="M93.9,110.6c0,0-1.5-2.3-1.6-2.9c-0.3-2.4-1.1-3.3-1.4-5.4c-0.7-4.9,0.7-8.9,1.1-10.9c0.7-3,2.6-5,4.1-4.1
			s4.7,7.5,4.6,12.6c0,2,0.5-1.3-0.2,1.9c-0.4,1.9-0.2,8.8-0.2,8.8H93.9z"/>
		<path class="st22" d="M94.6,112.5c0,0-1.2-2.3-1.3-2.8c-0.2-2.3-0.9-3.2-1.2-5.2c-0.6-4.8,0.4-8.6,0.7-10.6c0.5-2.9,2-4.8,3.2-4
			c1.2,0.9,3.8,7.4,3.8,12.3c0,2,0.3-1.3-0.1,1.8c-0.3,1.8,0,8.5,0,8.5L94.6,112.5z"/>
		<path class="st0" d="M106.1,114.2c0,0,1.8-2.1,1.9-2.7c0.6-2.3,1.5-3.1,2.1-5.1c1.4-4.8,0.5-8.9,0.3-11c-0.3-3-1.9-6.8-3.5-6.2
			c-1.6,0.6-4.9,0.7-5.5,5.8c-0.2,2-1.1,6.3-0.8,9.5c0.1,1.9-1,8.7-1,8.7L106.1,114.2z"/>
		<path class="st22" d="M105.4,114.1c0,0,1.7-2,1.8-2.5c0.5-2.2,1.4-2.9,2-4.8c1.3-4.5,0.5-8.3,0.3-10.3c-0.2-2.8-1.7-6.3-3.2-5.7
			c-1.5,0.6-4.5,0.7-5,5.4c-0.2,1.9-1,5.8-0.8,8.8c0.1,1.8-0.9,8.1-0.9,8.1L105.4,114.1z"/>
	</g>
	<g>
		<ellipse transform="matrix(0.5 -0.866 0.866 0.5 -26.2178 117.7521)" class="st22" cx="88.9" cy="81.6" rx="2" ry="2.6"/>
		<ellipse transform="matrix(0.5 -0.866 0.866 0.5 -26.2178 117.7521)" class="st23" cx="88.9" cy="81.6" rx="1.5" ry="2"/>
	</g>
	<g>
		<ellipse transform="matrix(0.5 -0.866 0.866 0.5 -22.9832 146.7776)" class="st22" cx="115.6" cy="93.3" rx="2" ry="2.6"/>
		<ellipse transform="matrix(0.5 -0.866 0.866 0.5 -22.9832 146.7776)" class="st23" cx="115.6" cy="93.3" rx="1.5" ry="2"/>
	</g>
	<g>
		<ellipse transform="matrix(0.5 -0.866 0.866 0.5 -47.9118 158.8408)" class="st22" cx="113.6" cy="120.9" rx="2" ry="2.6"/>
		<ellipse transform="matrix(0.5 -0.866 0.866 0.5 -47.9118 158.8408)" class="st23" cx="113.6" cy="120.9" rx="1.5" ry="2"/>
	</g>
	<g>
		<ellipse transform="matrix(0.5 -0.866 0.866 0.5 -51.9199 129.7275)" class="st22" cx="86.4" cy="109.8" rx="2" ry="2.6"/>
		<ellipse transform="matrix(0.5 -0.866 0.866 0.5 -51.9199 129.7275)" class="st23" cx="86.4" cy="109.8" rx="1.5" ry="2"/>
	</g>
</g>
<g>
	<ellipse class="st22" cx="50.6" cy="136.9" rx="2.9" ry="1.4"/>
	<path class="st23" d="M47.8,136.9c0,0,2.7-5.1,5.8,0c0,0-1.4,0.7-3.2,0.7S47.8,136.9,47.8,136.9z"/>
</g>
<g>
	<ellipse class="st22" cx="75.3" cy="152" rx="2.9" ry="1.4"/>
	<path class="st23" d="M72.4,152c0,0,2.7-5.1,5.8,0c0,0-1.4,0.7-3.2,0.7S72.4,152,72.4,152z"/>
</g>
<g>
	<ellipse class="st22" cx="101.5" cy="136.6" rx="2.9" ry="1.4"/>
	<path class="st23" d="M98.8,136.6c0,0,2.7-5.1,5.8,0c0,0-1.4,0.7-3.2,0.7S98.8,136.6,98.8,136.6z"/>
</g>
<g>
	<g>
		<g>
			<g>
				<defs>
					<polygon id="SVGID_3_" points="72.7,121.7 78.4,121 76.7,118.9 73.3,119.8 					"/>
				</defs>
				<clipPath id="SVGID_4_">
					<use xlink:href="#SVGID_3_"  style="overflow:visible;"/>
				</clipPath>
				<g class="st24">
					<ellipse class="st5" cx="75.9" cy="121.9" rx="2.9" ry="1.4"/>
					<path class="st23" d="M73,121.9c0,0,2.7-5.1,5.8,0c0,0-1.4,0.7-3.2,0.7S73,121.9,73,121.9z"/>
				</g>
			</g>
		</g>
	</g>
</g>
</svg>
