<?xml version="1.0" encoding="utf-8"?>
<!-- Generator: Adobe Illustrator 25.2.3, SVG Export Plug-In . SVG Version: 6.00 Build 0)  -->
<svg version="1.1" id="Layer_1" xmlns="http://www.w3.org/2000/svg" xmlns:xlink="http://www.w3.org/1999/xlink" x="0px" y="0px"
	 viewBox="0 0 135.9 179.8" style="enable-background:new 0 0 135.9 179.8;" xml:space="preserve">
<style type="text/css">
	.st0{fill:#E4DAD8;stroke:#FFFFFF;stroke-width:0.25;stroke-miterlimit:10;}
	.st1{fill:#CCB9B9;stroke:#FFFFFF;stroke-width:0.25;stroke-miterlimit:10;}
	.st2{fill:none;stroke:#FFFFFF;stroke-width:0.25;stroke-miterlimit:10;}
	.st3{fill:#F77441;stroke:#FFFFFF;stroke-width:0.5;stroke-miterlimit:10;}
	.st4{fill:#D8422E;stroke:#FFFFFF;stroke-width:0.7622;stroke-miterlimit:10;}
	.st5{fill:#D8422E;stroke:#FFFFFF;stroke-width:0.5;stroke-miterlimit:10;}
	.st6{fill:none;stroke:#D8422E;stroke-width:0.2334;stroke-miterlimit:10;}
	.st7{fill:#9F3B2C;stroke:#FFFFFF;stroke-width:0.1937;stroke-miterlimit:10;}
	.st8{fill:#9F3B2C;stroke:#FFFFFF;stroke-width:0.1418;stroke-miterlimit:10;}
	.st9{fill:#CCB9B9;stroke:#FFFFFF;stroke-width:0.3732;stroke-miterlimit:10;}
	.st10{fill:#B79797;stroke:#FFFFFF;stroke-width:0.25;stroke-miterlimit:10;}
	.st11{fill:#A88686;}
	.st12{fill:#CCB9B9;stroke:#FFFFFF;stroke-width:0.3306;stroke-miterlimit:10;}
	.st13{fill:#CCB9B9;}
	.st14{fill:none;stroke:#D8422E;stroke-width:0.1232;stroke-miterlimit:10;}
	.st15{fill:#F77441;stroke:#F77441;stroke-miterlimit:10;}
	.st16{fill:#D8422E;stroke:#FFFFFF;stroke-width:0.1795;stroke-miterlimit:10;}
	.st17{fill:#9F3B2C;}
	.st18{fill:#CCB9B9;stroke:#FFFFFF;stroke-width:0.5;stroke-linejoin:bevel;stroke-miterlimit:10;}
	.st19{fill:#AA7F7B;}
	.st20{fill:#916461;}
</style>
<g>
	<polygon class="st0" points="60.5,171.6 135.9,133.5 79.6,104.8 3.7,143.3 	"/>
	<polygon class="st1" points="11.6,141.9 60.3,166.4 120.6,136.3 120.6,128.6 69.9,104.6 11.7,138.4 	"/>
	<polygon class="st1" points="11.6,142.1 11.6,134.2 60.2,158.4 60.2,166.3 	"/>
	<polygon class="st1" points="3.7,143.1 3.8,151.1 60,179.2 135.9,140.3 135.9,133.6 60.1,171.5 	"/>
	<line class="st2" x1="60.1" y1="171.5" x2="60.1" y2="179"/>
	<polygon class="st0" points="11.8,134.3 60.4,158.6 120.6,128.6 72.7,104.8 	"/>
	<g>
		<polygon class="st1" points="126.4,55.5 126,104.2 115.2,110 114.9,61.2 		"/>
		<g>
			<path class="st3" d="M25.6,15.3l-5.4,0.5c0,0-2.8,0.7-3.8,1c-0.6,0.2-2.6,0.3-3.7,0.6c-0.6,0.2-3.5,1.5-4,1.8
				c-2.5,1.5-6.2,4-7.7,6.5l1,1.4l1.5,0.4l1.1,0.9c0,0,2.1,2,1.7,1.6C6,29.6,8,30.6,8,30.6l2.1,1.5l0.6,1.1l0.3,1.1l1.5,2l1.9,1.6
				l0.3,1.3l0.8,0.9l1.7,0.9l0.3,3.3c0,0-1,1.5-1,2.2s0.7,2.1,1.1,2.8l-1,2.7l-1.9,2l-0.9,0.1l-1.1,2.1l-1.6,1.7L10.5,59l-1.1,0.6
				l-0.6,0.9l-1,1.5l-3.6,1l-0.5,1.5l-1,1.4c0,0,3.9,5.3,5.2,6.6c1.7,1.7,7.9,3.4,10,4.1c2.8,0.8,9.5,0.9,9.5,0.9l8.5,0.1l6.5-0.9
				l6-2.9c0,0,2.9-3.5,4-5.1s0.7-2.5,0.7-2.5l0.6-2.4l0.1-1.3l-2.4-1.3L49.9,60c0,0-0.9-0.8-2-1.4c-2.1-1.1-2.9-1.8-2.9-1.8
				l-1.5-1.1l-2-2L41.4,51l1-2.5l-1-0.9l-0.2-2.3l1.4-2.5l2.7-4.3l1.5-1.2l1.9-2.1l2.4,0.4l1.4-0.9c0,0,1.2-1.4,1.7-1.9
				c0.4-0.5,1.6-1.4,1.5-2.1c-0.1-0.6-1.8-1.3-1.5-1.9c0.3-0.5,2.6,0.6,2.6,0.6l0.7-0.9c0,0-6-7.4-8.1-9.1c0,0-7-3.7-10.6-4
				C30.7,14.5,25.6,15.3,25.6,15.3z"/>
			<path class="st4" d="M1,25.6c0.4-0.6,1.3,1.1,1.3,1.1l2,0.1l2.2,0.4l1,0.9c0,0,1.8-0.7,3.3,1.9s4.5,2.3,5.6,3.1s2,0.4,3.8,1.6
				c1.5,1.1,4.4,0.2,4.9,1c0.3,0.4,0.2,1.3-0.1,1.7c-0.3,0.5,2,0.6,2,0.6s0.9-1.3,1.5-1.6c1-0.7,3.5,2.2,4.6,2.2
				c0.7,0,0.8-1.2,1.6-1.4c0.9-0.2,2.9-1.3,2.9-1.3s-0.7,0.4,1-0.4c1.7-0.8,1.6-0.6,3.4-3.1c1.8-2.5,4.2-1.2,5.4-1.6
				s4.4-2.5,4.4-2.5s1.6,0.2,2-1.1c1.3-0.1,3.7,0.8,3.6,1.1c0,0,0-2.6-1.3-4.3c-1.3-1.6-3.1-4.4-6.3-6.8c-4-3-13.6-6.1-18.8-6.4
				c-6.9-0.3-15.9,2.4-21.5,5C3.2,18.9,1,25.6,1,25.6z"/>
			<path class="st5" d="M2.6,66.3l2.5,2.5l0.7,0.6L7.5,70c0,0,2.1-0.7,3-0.5s0.6,0.8,1.7,1.4s2.5,1.5,3.6,1.3s3.4-0.3,3.4-0.3
				s0.3-0.5,0.7-0.6c0.4-0.1,1.4,0.7,1.5,0.7c0.1,0.1,2.3-1,3.9-1s0.8,1.7,1.4,1.8c0.6,0.1,2.5-0.1,2.5-0.1s0.5-0.5,1.4-0.5
				c1,0,2.4-0.6,2.4-0.6l1.2,1.2c0,0-0.5-0.4,0.8,0.3s3.1,0.9,3.1,0.9l2.3,0.9l3,0.2c0,0,2.7-0.3,2.8-0.3s2-2.3,2.6-2.9
				c0.6-0.5,2-2.4,2-2.4l0.7-1.3l1.7-1.9c0,0-1.5,4.3-3.5,6.2c-1.5,1.4-3.1,2.7-4.3,3.2c-0.8,0.3-1.5,0.3-3.9,1.1
				c-2.4,0.8-19.7,2.2-19.8,1.3c-6.1-0.5-11.4-4-13-4.8S2.6,66.3,2.6,66.3z"/>
			<path class="st6" d="M39.8,84.9"/>
			<path class="st7" d="M25.9,19.9c0-0.7-2.1-1.8-2.1-2.2c0-1,3.6,0.5,3.6,0.5l2.7-1c0,0,3-0.3,3.4,0.4c0.4,0.8,0.3,1.2,1.5,1
				c0.5-0.1,1.7-0.6,1.7-0.6s1.6,0,2.1,0.3c0.2,0.2-1.2,1.3-1.4,1.9c-0.2,0.4-0.8,0.5-0.8,0.5s0.4,1.7-0.8,2S35.2,25,33.4,26
				c-1.9,1-0.6-0.1-3-0.8c-0.8-0.2-0.7,0.6-1.2,0.9c-1,0.7-2.1,1.4-2.7,0.7c-0.3-0.4-1-1.7-1.6-2.2c-1.1-0.8-2.2-0.8-2.2-0.8
				l-1.6-1.3c0,0-2-1.7-1.6-1.8c0.4-0.1,3.5,1.1,3.5,1.1s1.4-0.2,1.4-0.7s-1.9-1.4-1.4-1.6C23.1,19.5,25.9,20.2,25.9,19.9z"/>
			<g>
				<path class="st8" d="M24.1,0.8c-0.1,0-0.2,0.1-0.2,0.2s-0.1,0.1-0.1,0.2c-0.2,0.3-0.3,0.8-0.2,0.9c0.6,0.8,1.6,2.8,1.6,2.8
					l0.6,2.4L26.3,9l2,8.7l0.5,2.4l1,3.8c0,0,1.3,0.6,1.3-0.2C31.1,23,29,13,29,13l-0.7-4.2c0,0-0.2-1.2-0.2-1.6
					c0-0.2,0.2-0.4,0.1-0.7c-0.2-0.8-0.4-0.8-0.9-3.4l-0.6-1.6L26.1,1C26.1,1,24.6,0.6,24.1,0.8z"/>
				<path class="st8" d="M24.1,0.8c-0.6,0.4-1,1.1-0.5,1.4c0.5,0.2,3-0.2,3-0.6C26.6,1.1,24.7,0.4,24.1,0.8z"/>
			</g>
		</g>
		<path class="st9" d="M91.4,96.7l0.1,1.5c0,0,1.7-0.3,2.8,0.1c1.1,0.4,1.7,2,1.7,2l5.3,1.5l0.6-9.2l-10.9-5L91.4,96.7z"/>
		<polygon class="st1" points="78.1,42.6 89.3,36.8 126.5,55.5 115,61.2 		"/>
		<g>
			<path class="st10" d="M96.1,94.5v5.9l19.1,9.5L115,61L78.2,42.6l-0.3,48.6L91.4,98v-5.5c0,0,1.1-0.8,3-0.3
				C96.4,92.8,96.1,94.5,96.1,94.5z"/>
		</g>
		<path class="st10" d="M110.2,72.6c0,0,0.1-0.8-0.3-1.6c-0.5-0.8-1.4-2.4-2.7-3.8c-1.6-1.6-6.3-5.3-8.6-5.8
			c-0.4-0.1-0.7-0.1-1.1-0.2v-0.9c0,0,0-0.6,0-0.8c0-0.1,0.1-0.2,0.1-0.3c0-0.4-0.2-0.4-0.2-1.6l-0.1-0.8l-0.1-0.1l-0.1-0.1l0,0l0,0
			c-0.2-0.2-0.6-0.3-0.8-0.2c0,0,0,0-0.1,0c-0.2,0.2-0.4,0.4-0.3,0.6c0.2,0.4,0.5,1.4,0.5,1.4l0.1,1.2l0.1,0.8l0.1,0.8
			c-2.5-0.5-5-1-7.1-0.3c-3,1-4.7,1.7-4.7,1.7L84.5,63l-0.2,1l0.3,0.9c0,0,0.7,0.9,0.6,1.3c-0.1,0.3,0.5,0.5,0.5,0.5
			s0.8,1.1,0.7,0.9c-0.2-0.2,0.7,0.4,0.7,0.4l0.8,0.8l0.2,0.6l0.1,0.5l0.5,1l0.7,0.8l0.1,0.6l0.3,0.5l0.7,1.8l-0.1,1.6
			c0,0-0.5-0.6-0.5-0.3c0,0.3,0.2,1,0.3,1.3l-0.7,1.2l-0.9,0.8h-0.4l-0.6,0.9l-0.8,0.7L86.5,81L86,81.2l-0.3,0.4l-0.5,0.6l-1.7,0.2
			L83,83l-0.5,0.6c0,0,1.4,2.7,1.9,3.4l0,0c0.2,0.3,0.3,0.5,0.5,0.6c0.7,0.5,3.2,3.8,5.9,4.5c0,0.2,1.8-0.5,3,0
			c1.8,0.6,1.8,2.2,1.8,2.2l4.2,0.7c0,0,3.9,0.9,4.7,0.3c1-0.7,0.6-4,0.6-4l-0.4-0.4c0,0,0.2-0.5,0-0.4c0,0.2,0,0.3,0,0.4l-0.2-0.3
			c0.1-0.1,0.2-0.2,0.2-0.2c-0.3-1.1-0.9-2.5-0.9-2.5s-0.9-2.5-1.4-2.9c-0.9-0.6-0.5-1.6-0.5-1.6l-0.6-0.6l-0.7-1.1l0.1-1.3l0.6-1.1
			l-0.4-0.5L101,78l0.8-1.1l2.4-0.5l0.7-0.4l1-0.9l1,0.3l0.7-0.3c0,0,0.6-0.6,0.9-0.8c0.2-0.2,0.8-0.5,0.8-0.9c0-0.3-0.7-0.7-0.5-1
			c0.2-0.2,1.1,0.4,1.1,0.4L110.2,72.6c0,0.1-0.1,0-0.2-0.2C110.2,72.5,110.3,72.5,110.2,72.6z"/>
		<path class="st11" d="M86.7,89.1l2.2,1.7l2.5,1.4l1.2-0.2c0,0,1.6-0.2,2.5,0.2c0.9,0.6,1.1,0.8,1.2,1.2c0,0.2,0.2,0.7,0.2,0.7
			l8,1.1c0.1,0-4-4.9-6.5-6.3c-1.1-0.6-3.9-1.4-5.8-1.6C89.7,87.1,86.7,89.1,86.7,89.1z"/>
		<path class="st11" d="M85.2,62.6c0,0,1.7,0.2,4.9,0.1c3.2-0.1,2.6-0.2,8.3,1.8s11.5,7.6,11.5,7.6s0.2-0.4-0.5-1.5
			c-1.7-2.7-6.3-7.8-10.7-9.1c-1.4-0.4-2.2-0.2-3.1-0.4c-3.2-0.7-4-0.5-5-0.4C89.4,61,85.2,62.6,85.2,62.6z"/>
		<path class="st12" d="M106.1,113.7l-12.3-5.9c0,0-2,2.1-4.5,0.9c-2.4-1.2-1.2-3.6-1.2-3.6l-15.9-7.6v12.4l34,18.2L106.1,113.7z"/>
		<polygon class="st13" points="24.5,135.6 72.5,111.9 72.4,97.5 25,121 		"/>
		<path class="st14" d="M77.8,101"/>
		<g>
			<path class="st15" d="M55,125.7l1.8,2.1c0,0,1.2,1,1.6,1.3c0.3,0.2,0.9,1,1.4,1.4c0.2,0.2,1.7,1.1,1.9,1.2
				c1.4,0.6,3.6,1.5,5.1,1.3l0.3-0.8l-0.3-0.7v-0.8c0,0,0.2-1.5,0.2-1.2s-0.2-0.9-0.2-0.9v-1.3l0.3-0.6l0.4-0.4l0.4-1.2l0.1-1.3
				l0.5-0.5l0.1-0.6l-0.2-1l1.3-1.1c0,0,0.9,0,1.2-0.3c0.3-0.2,0.7-0.9,0.9-1.3l1.6-0.3l1.4,0.2l0.3,0.3l1.2-0.2l1.2,0.2h0.7
				l0.6,0.3h0.6h0.9l1.5,1.2l0.8-0.2h0.9c0,0,1.1-3.2,1.3-4.2c0.2-1.2-0.9-4.4-1.2-5.5c-0.5-1.4-2.4-4.3-2.4-4.3l-2.5-3.6l-2.3-2.5
				l-3-1.7c0,0-2.4-0.2-3.4-0.2S68.7,99,68.7,99l-1.2,0.5l-0.6,0.4l0.2,1.4l-0.1,0.9c0,0-0.1,0.6,0,1.2c0.2,1.2,0.1,1.8,0.1,1.8v1
				l-0.3,1.4l-1.1,0.9l-1.4,0.3l-0.1,0.7l-0.9,0.8l-1.5,0.2l-2.6,0.1l-0.9-0.3l-1.5-0.2l-0.5-1.1l-0.8-0.3c0,0-1-0.1-1.3-0.1
				s-1.1-0.2-1.3,0s0,1.2-0.4,1.2c-0.3,0-0.5-1.3-0.5-1.3h-0.6c0,0-1.4,4.7-1.5,6.2c0,0,0.5,4.1,1.4,5.7
				C53.1,123.8,55,125.7,55,125.7z"/>
			<path class="st16" d="M66.7,133.1c-0.4,0,0.1-0.9,0.1-0.9l-0.6-0.9l0.3-0.9l-0.4-1c0,0-1.1-0.4-0.5-1.8c0.6-1.4,0-2.5,0.1-3.2
				c0-0.7-0.6-1.2-0.6-2.3c0-1-1.1-1.4-0.9-1.8c0.1-0.3,0.2-0.9,0.4-0.9c0.3,0-0.3-1-0.3-1s-0.8,0-1.1-0.2c-0.6-0.2-0.1-2.2-0.4-2.6
				c-0.2-0.3-0.7,0-1.1-0.3c-0.3-0.3-1.4-0.9-1.4-0.9s0.4,0.2-0.5-0.3s-0.9-1.4-2.5-1.4s-2-1.2-2.6-1.6s-1.9-0.4-1.9-0.4
				c0.2-0.3-0.9-0.8-1.1-0.5c-0.4-0.5-0.7-1.8-0.6-1.9c0,0-1.1,0.8-1.4,1.8s-1,2.7-1,4.7c-0.1,2.6,1.5,7.6,2.9,9.9
				c1.9,3,5.7,6.1,8.6,7.7C63.2,134.2,66.7,133.1,66.7,133.1z"/>
			<path class="st16" d="M84.1,121.1l0.2,0.8l-1-2.9l1.2-2.3c0,0-0.9-0.7-1.1-1.1s0.1-0.5,0-1.1s-0.2-1.4-0.6-1.8s-1.2-1.4-1.2-1.4
				s-0.3,0-0.4-0.1c-0.2-0.2-0.2-0.8-0.2-0.8c0-0.1-1.1-0.7-1.6-1.4c-0.5-0.6,0.4-0.8,0.2-1.1c-0.1-0.3-0.8-1-0.8-1
				s-0.3-0.1-0.6-0.5c-0.3-0.4-1-0.8-1-0.8l0.1-0.8c0,0,0,0.3-0.1-0.4c-0.1-0.7-2.1-1.5-2.1-1.5l-3.9-2.8l4.2,0.3l-1-0.7
				c0,0-1.4-0.6-1.8-0.7s-1.5-0.2-1.5-0.2l-0.7,0.1l-1.3,0.2c0,0,2.1-0.9,3.4-0.6c1,0.3,1.9,0.6,2.5,1c0.4,0.2,0.6,0.6,1.6,1.4
				s6.9,7.7,6.6,8c3.1,2.5,2.4,5.8,2.2,6.7C85.7,116.2,84.1,121.1,84.1,121.1z"/>
			<path class="st7" d="M56.9,124c-0.3,0.2-0.2,1.4-0.3,1.6c-0.4,0.3-0.9-1.7-0.9-1.7l-1.2-0.8c0,0-1.1-1.2-0.9-1.6
				c0.2-0.4,0.4-0.5,0-1c-0.2-0.2-0.8-0.6-0.8-0.6s-0.5-0.7-0.5-1c0-0.1,0.9,0.1,1.3,0c0.2-0.1,0.5,0.2,0.5,0.2s0.6-0.7,1.1-0.3
				c0.5,0.4,1.1-0.4,2.2,0c1,0.5,0.1,0.3,0.6,1.6c0.1,0.4,0.5,0.1,0.7,0.2c0.6,0.2,1.3,0.5,1.1,0.9c-0.1,0.3-0.4,0.9-0.4,1.3
				c0,0.7,0.3,1.2,0.3,1.2l-0.1,1.1c0,0-0.1,1.4-0.3,1.2c-0.2-0.1-0.6-1.8-0.6-1.8s-0.5-0.5-0.7-0.4c-0.2,0.2,0,1.2-0.3,1.1
				C57.5,125.4,57,123.9,56.9,124z"/>
			<g>
				<path class="st7" d="M48.3,130.5c0,0,0.1,0,0.2,0h0.1c0.2,0,0.4-0.1,0.5-0.2c0.2-0.5,0.8-1.5,0.8-1.5l0.9-0.9l0.6-0.7l3.4-3.3
					l1-0.9l1.5-1.5c0,0-0.1-0.7-0.4-0.5c-0.4,0.2-4.3,3.9-4.3,3.9l-1.7,1.5c0,0-0.5,0.4-0.7,0.5c-0.1,0.1-0.2,0-0.3,0.1
					c-0.3,0.3-0.2,0.4-1.3,1.3L48,129v0.5C47.9,129.5,48.1,130.3,48.3,130.5z"/>
				<path class="st17" d="M48.3,130.5c0.3,0.1,0.8,0.1,0.8-0.1c0-0.3-0.9-1.3-1.1-1.2S48,130.3,48.3,130.5z"/>
			</g>
		</g>
		<polygon class="st18" points="60.1,153 21,133.9 21,119.2 60.2,139 		"/>
		<polygon class="st18" points="60.2,153 108.6,129 108.5,115.1 60.2,139.2 		"/>
		<path class="st10" d="M87.7,105.2l-19-9.4l-47.8,23.4l39.4,20.1l48.1-24.2c0,0-15-7.2-14.9-7.5l-8.6,3.7c1.4,2.9,0.2,6.9,0.2,6.9
			s-0.8,2.7-2.5,2.6c0,0-3-1.5-2.9-1.5c0.8-0.8-4.4-0.3-4.9-0.7c-0.2-0.2-4,1.1-3.5,0.6s-2.1,1.8-2.1,1.8l-2,1.4c0,0,1,7.8-2.4,8.3
			c-3.5,0.5-10.5-6.7-10.5-6.7l-5.7,6l-0.8-1.1l5.8-5.3c0,0-4.4-3.6-4.8-6.6c-0.5-3,0.2-6.1,0.2-6.1s1.2-3.1,2.7-2.6
			c4.1,0,8.5,1.9,8.5,1.9s2.5,2.5,4.9,1.2c1.1-0.6,1.7-1.2,2-1.7c0.4-0.6,0.4-1.1,0.7-1.6c0.5-0.9,1.6-3.5,1.6-3.5l2-4.3h2
			c0,0-0.1-0.3,0.6,0c0,0,1.4,0,4.2,2.3c2.8,2.3,4.2,4.8,4.2,4.8L87.7,105.2z"/>
		<g>
			<ellipse transform="matrix(0.5 -0.866 0.866 0.5 -5.8865 99.6777)" class="st19" cx="83.4" cy="54.9" rx="2" ry="2.6"/>
			<ellipse transform="matrix(0.5 -0.866 0.866 0.5 -5.8865 99.6777)" class="st20" cx="83.4" cy="54.9" rx="1.5" ry="2"/>
		</g>
		<g>
			<ellipse transform="matrix(0.5 -0.866 0.866 0.5 -26.37 109.9359)" class="st19" cx="82" cy="77.8" rx="2" ry="2.6"/>
			<ellipse transform="matrix(0.5 -0.866 0.866 0.5 -26.37 109.9359)" class="st20" cx="82" cy="77.8" rx="1.5" ry="2"/>
		</g>
		<g>
			<ellipse transform="matrix(0.5 -0.866 0.866 0.5 -0.2855 127.5521)" class="st19" cx="110.3" cy="64" rx="2" ry="2.6"/>
			<ellipse transform="matrix(0.5 -0.866 0.866 0.5 -0.2855 127.5521)" class="st20" cx="110.3" cy="64" rx="1.5" ry="2"/>
		</g>
		<g>
			<ellipse transform="matrix(0.5 -0.866 0.866 0.5 -32.1355 144.6293)" class="st19" cx="109.2" cy="100.1" rx="2" ry="2.6"/>
			<ellipse transform="matrix(0.5 -0.866 0.866 0.5 -32.1355 144.6293)" class="st20" cx="109.2" cy="100.1" rx="1.5" ry="2"/>
		</g>
		<g>
			<ellipse class="st19" cx="36.4" cy="118.6" rx="2.9" ry="1.4"/>
			<path class="st20" d="M33.5,118.6c0,0,2.7-5.1,5.8,0c0,0-1.4,0.7-3.2,0.7S33.5,118.6,33.5,118.6z"/>
		</g>
		<g>
			<ellipse class="st19" cx="62.7" cy="104.6" rx="2.9" ry="1.4"/>
			<path class="st20" d="M59.9,104.6c0,0,2.7-5.1,5.8,0c0,0-1.4,0.7-3.2,0.7S59.9,104.6,59.9,104.6z"/>
		</g>
		<g>
			<ellipse class="st19" cx="93.4" cy="114" rx="2.9" ry="1.4"/>
			<path class="st20" d="M90.5,114c0,0,2.7-5.1,5.8,0c0,0-1.4,0.7-3.2,0.7S90.5,114,90.5,114z"/>
		</g>
		<g>
			<ellipse class="st19" cx="60.7" cy="134.2" rx="2.9" ry="1.4"/>
			<path class="st20" d="M57.8,134.2c0,0,2.7-5.1,5.8,0c0,0-1.4,0.7-3.2,0.7S57.8,134.2,57.8,134.2z"/>
		</g>
	</g>
</g>
<path class="st11" d="M96.8,61.6l-0.3-3.2L96,56.9c0,0,0-0.4,0.5-0.4s0.7,0.4,0.7,0.4l0.1,1.8c0,0,0.2,0.3,0.2,0.5
	c-0.1,0.2-0.1,2.3-0.1,2.3L96.8,61.6z"/>
</svg>
