<?xml version="1.0" encoding="utf-8"?>
<!-- Generator: Adobe Illustrator 25.2.3, SVG Export Plug-In . SVG Version: 6.00 Build 0)  -->
<svg version="1.1" id="Layer_1" xmlns="http://www.w3.org/2000/svg" xmlns:xlink="http://www.w3.org/1999/xlink" x="0px" y="0px"
	 viewBox="0 0 149.1 194.5" style="enable-background:new 0 0 149.1 194.5;" xml:space="preserve">
<style type="text/css">
	.st0{fill:#B79797;}
	.st1{fill:none;stroke:#FFFFFF;stroke-width:0.25;stroke-miterlimit:10;}
	.st2{fill:#CCB9B9;stroke:#FFFFFF;stroke-width:0.25;stroke-miterlimit:10;}
	.st3{fill:#E4DAD8;stroke:#FFFFFF;stroke-width:0.25;stroke-miterlimit:10;}
	.st4{fill:#CCB9B9;stroke:#FFFFFF;stroke-width:0.5;stroke-miterlimit:10;}
	.st5{fill:#CCB9B9;}
	.st6{fill:#543C52;}
	.st7{fill:#543C52;stroke:#FFFFFF;stroke-width:0.25;stroke-miterlimit:9.9999;}
	.st8{fill:#361D32;stroke:#FFFFFF;stroke-width:0.25;stroke-miterlimit:10;}
	.st9{fill:#543C52;stroke:#FFFFFF;stroke-width:0.25;stroke-miterlimit:10;}
	.st10{fill:#B79797;stroke:#FFFFFF;stroke-width:0.25;stroke-miterlimit:10;}
	.st11{clip-path:url(#SVGID_2_);}
	.st12{fill:#543C52;stroke:#FFFFFF;stroke-width:8.721069e-02;stroke-miterlimit:9.9996;}
	.st13{fill:#361D32;stroke:#FFFFFF;stroke-width:9.626419e-02;stroke-miterlimit:10;}
	.st14{fill:#543C52;stroke:#FFFFFF;stroke-width:8.527125e-02;stroke-miterlimit:10;}
	.st15{fill:#543C52;stroke:#FFFFFF;stroke-width:8.328352e-02;stroke-miterlimit:10;}
	.st16{fill:#543C52;stroke:#FFFFFF;stroke-width:8.721422e-02;stroke-miterlimit:10;}
	.st17{fill:#361D32;stroke:#FFFFFF;stroke-width:0.1136;stroke-miterlimit:10;}
	.st18{fill:#361D32;stroke:#FFFFFF;stroke-width:0.108;stroke-miterlimit:10;}
	.st19{fill:#543C52;stroke:#FFFFFF;stroke-width:8.929575e-02;stroke-miterlimit:10;}
	.st20{fill:#361D32;stroke:#FFFFFF;stroke-width:0.1163;stroke-miterlimit:10;}
	.st21{fill:none;stroke:#FFFFFF;stroke-width:8.929575e-02;stroke-miterlimit:10;}
	.st22{fill:none;stroke:#FFFFFF;stroke-width:8.721422e-02;stroke-miterlimit:10;}
	.st23{fill:#AA7F7B;}
	.st24{fill:#916461;}
	.st25{clip-path:url(#SVGID_4_);}
</style>
<g>
	<g>
		<g>
			<g>
				<g>
					<g>
						<path id="XMLID_21_" class="st0" d="M79.6,43.8c1.6-1.1,2.1-1.9,2.8-2.9c0.6-1,1.5-1.4,2.1-1.9c0.6-0.6,48.4-29.3,51.9-31.7
							c0.6-0.4,0.9-2.2,0.7-2.9c-0.3-0.8-2.2-1.3-2.8-0.9c-2.5,1.7-51.7,34-51.7,34s-4.3,3.2-5.6,3.9s-8.7,2.8-5.5,3.3
							c0.1,0.1,0.4,0,0.4,0.1C74,46.5,78,44.9,79.6,43.8z"/>
					</g>
					<g>
						<path id="XMLID_1_" class="st1" d="M79.6,43.8c1.6-1.1,2.1-1.9,2.8-2.9c0.6-1,1.5-1.4,2.1-1.9c0.6-0.6,48.4-29.3,51.9-31.7
							c0.6-0.4,0.9-2.2,0.7-2.9c-0.3-0.8-2.2-1.3-2.8-0.9c-2.5,1.7-51.7,34-51.7,34s-4.3,3.2-5.6,3.9s-8.7,2.8-5.5,3.3
							c0.1,0.1,0.4,0,0.4,0.1C74,46.5,78,44.9,79.6,43.8z"/>
					</g>
				</g>
			</g>
			<path class="st2" d="M70.9,44.3c0.9,0.6,4,0,5.7-0.4s4.4-2.1,5.5-2.6c-0.1,0.3-1.6,1.8-2.3,2.3c-1.2,0.9-4.1,1.9-5.2,1.9
				C71,45.6,70.6,44.1,70.9,44.3z"/>
		</g>
	</g>
	<polygon class="st3" points="81.8,186.2 148.2,153 92.7,123.7 25,157.9 	"/>
	<polygon class="st2" points="32.9,156.6 81.6,181 135.8,153.7 135.8,146.2 85.8,121.1 33,153 	"/>
	<polygon class="st2" points="32.9,156.7 32.9,148.5 81.5,172.6 81.5,181 	"/>
	<polygon class="st2" points="25,157.9 25.1,165.8 81.3,193.9 148.7,160 148.6,152.7 81.4,186.1 	"/>
	<line class="st1" x1="81.4" y1="186.1" x2="81.4" y2="193.9"/>
	<polygon class="st3" points="33.3,148.8 81.7,173.1 135.7,146.2 87.3,121.8 	"/>
	<path class="st4" d="M121.3,134.5l-17.3-9.2c0,0-2.2,0.4-3.2-0.1c-1.1-0.5-0.9-0.8-1.3-1.9c0,0-8.9-4.4-8.6-4.7v10.5l30.7,15.4
		L121.3,134.5z"/>
	<polygon class="st5" points="50.3,151.2 91.1,130.7 91,118.5 50.2,138.9 	"/>
	<polygon class="st2" points="81.5,166.4 41.5,146.9 41.4,134.3 81.4,154.2 	"/>
	<polygon class="st2" points="81.6,166.5 121.8,146.4 121.7,134.2 81.5,154.3 	"/>
	<ellipse class="st6" cx="78.6" cy="148" rx="2.4" ry="1.2"/>
	<ellipse class="st6" cx="81.5" cy="126.5" rx="2.4" ry="1.2"/>
	<g>
		<ellipse class="st6" cx="81.7" cy="126.4" rx="2.4" ry="1.2"/>
		<path class="st6" d="M79.2,126.4c0,0,2.3-4.3,4.9,0c0,0-1.2,0.6-2.7,0.6S79.2,126.4,79.2,126.4z"/>
	</g>
	<g>
		<ellipse transform="matrix(0.9863 -0.1649 0.1649 0.9863 -12.0099 6.5473)" class="st7" cx="33.4" cy="75.6" rx="26" ry="14"/>
		<path class="st8" d="M59.5,60.2c2.2,8.9-0.4,17.4-9.3,23.1c-3,1.9-7.1,0.3-10.8,1.3c-2.7,0.7-7.2,1-9.8,1.1
			c-11.6,0-19.4-4.4-21.8-14.1c-1.8-7.2-6-24.4-0.2-30c3.8-3.6,3.9-6.8,14.6-11.6s24.3-5.6,32.9,2.9S57.3,51.3,59.5,60.2z"/>
		<path class="st9" d="M47.6,40.2c0.1-4,0.2-7.4,4.7-8.4c2.8-0.7,9.8,0.7,11.7,20.3S54,79.5,54,79.5s-4.8-21.1-6.5-32.4
			C47,43.4,47.5,41.2,47.6,40.2z"/>
		<path class="st9" d="M42.3,82.4l0.1-1c0,0,2.8-11.2,4.1-20.8c0.9-6.4,1.5-16.3,1.5-19.9c-3-12-6.5-17.2-12.2-16.9
			c-5.7,0.4-9.9,4.7-11,10.8c-0.5,3,0.2,7.6,2.1,13.1c1.9,5.6,5,12,7.8,19.1c2.3,5.8,4.4,11.7,4.5,16c0,0,1.2-7.4,2.2-7.2
			c1,0.2,1.5,5.9,1.5,5.9L42.3,82.4z"/>
		<path class="st9" d="M7,54.5c0,0-4.8,5.8-3.8,12.8c1,7,5.5,12.1,5.5,12.1S2.9,60.3,7,54.5z"/>
		<path class="st9" d="M7,54.5c0,0-2.2,5.3,0.6,14.3s13,18.8,13,18.8s0.6-0.3-0.1,0.5s-5.1,1.9-7.2-1.2c-2.2-3.1-5.8-8.3-7-16
			S5.5,60.2,6,57.8S7,54.5,7,54.5z"/>
		<path class="st9" d="M23,88c-0.8,0.3-8.7-21.2-7.9-21.6c0-3.8,5.1-12.1,7.4-17.6s4.3-14.4-1.5-15c-10.9,0-16.6,9.8-17.9,17
			S2.9,62,10.4,75.2s11.5,12.7,11.9,13.3C23.1,89.3,23.3,88.1,23,88z"/>
		<path class="st8" d="M23.1,88.6c-0.7,0.3-9.5-10.1-8.7-22.3c0.4-6.1,2.2-9.5,4.2-13.2c2.1-3.7,4.5-8.1,0.2-8.5
			c-2.6,0-4.4,1.3-5.9,2.5c-3.5,2.8-4.7,5.5-5.3,7.7c-0.4,2.3-2.1,8.6,4,19.3S22,87.8,22.3,88.3C22.7,88.7,23.1,88.6,23.1,88.6z"/>
		<path class="st8" d="M41.8,84.1c0,0-0.1-4.6-1-4.7c-0.9-0.2-1.7,3.2-1.7,3.2c-0.1-3.7,0-5.6-2-10.6c-4.8-12.2-10.3-22.8-9.4-28
			c0.9-5.3,4.5-8.6,8.9-8.3s8.3,5.6,9.7,13.7c0.6,3.3,0,7.7-0.8,13.2C44.4,70.9,42,80.7,42,80.7s0.2,3.2-0.2,3.2V84.1z"/>
		<path class="st9" d="M53.5,81.7c-2.1,2.3-6.3,4.3-7.8,4.6c-3.3,0.5-6.6-0.5-5.7-3.7c0.5-2,3.1-10.1,4.4-15.6
			c1.8-7.6,2.5-15.6,2.5-15.6s0.9-14.5,0.6-11.2c-0.2,1.8-0.4,6.1,1.6,11.8s3.9,7.6,5,11.8c1.7,6.9,3.1,11.4,1.8,14.6
			C55.9,78.3,55.5,79.4,53.5,81.7z"/>
		<path class="st8" d="M58.6,71.1C64,64,64.3,49,59.8,42.5s-8.4-4.7-9.2-3.8c-0.8,0.9-1.8,2.2-2,4.2s-0.1,6,2.3,10.9
			s6.3,14,5.2,24.1L58.6,71.1z"/>
		<path class="st9" d="M34.7,88.9c1.8-1.3,4.8-4.2,4.8-10.7c-0.1-6.5-4.8-13-7.8-19.4c-1.6-3.6-3.8-7.8-5-11.4
			c-1-3.2-1.2-5.9-1.3-6.6c-0.2-0.7,0.5,4.7,1.9,10.8c1.7,7.6,2.5,19.3,1.7,19.5c-0.9,0.1-4.3-8.7-5.2-12.9s1-16,0.8-16.3
			c-0.1-0.3-1.2,6.7-4.1,11.2S14.2,64.2,14.7,69c0.4,4.9,0.7,14.4,6.2,19C24.4,90.7,32.9,90.3,34.7,88.9z"/>
		<path class="st1" d="M53.3,55.4c0,0,5.4,14.8,3.2,20.3"/>
		<path class="st1" d="M42,75.8c-0.3,0-0.4-31.4,0-31.4"/>
		<path class="st1" d="M16.5,81.6c0,0-8.9-13.5-5.3-23.2"/>
	</g>
	<path class="st10" d="M121.7,134.2l-17.7-8.9l-6.6,3.7v0.5c0.3,3-0.6,6.1-1.8,7.7s-4.5,5.9-10.3,7.1c-5.6,0.8-6,0.5-10-0.2
		c-2.3-0.5-2.3-0.7-3.3-1.2c-0.8-0.5-2.8-1.3-3.6-1.9c-1.7-1.2-1.6-4-0.9-4.8c-1.6-0.8-0.8-5.6-0.8-5.6s-2-4.8,6-9.3s9.6-4,14.4-2.4
		s8.5,6,8.5,6l3.5-1.7l-17.3-8.7l-40.4,19.9l40.3,19.9L121.7,134.2"/>
	<g>
		<ellipse class="st6" cx="56.1" cy="133.2" rx="2.4" ry="1.2"/>
		<path class="st6" d="M53.7,133.2c0,0,2.3-4.3,4.9,0c0,0-1.2,0.6-2.7,0.6S53.7,133.2,53.7,133.2z"/>
	</g>
	<g>
		<ellipse class="st6" cx="84" cy="119.6" rx="2.4" ry="1.2"/>
		<path class="st6" d="M81.6,119.6c0,0,2.3-4.3,4.9,0c0,0-1.2,0.6-2.7,0.6C82.3,120.2,81.6,119.6,81.6,119.6z"/>
	</g>
	<g>
		<g>
			<defs>
				<path id="SVGID_1_" d="M97.7,130.9c0,7.4-7.9,13.6-16.3,13.6c-4.1,0-9.8-0.9-13-3.2c-3.4-2.4-3-6.7-3-10.4
					c0-7.4,9-13.9,17.3-13.9S97.7,123.5,97.7,130.9z"/>
			</defs>
			<clipPath id="SVGID_2_">
				<use xlink:href="#SVGID_1_"  style="overflow:visible;"/>
			</clipPath>
			<g class="st11">
				
					<ellipse transform="matrix(0.778 -0.6282 0.6282 0.778 -60.6459 85.3917)" class="st12" cx="90.5" cy="128.5" rx="6.9" ry="12.7"/>
				<path class="st13" d="M77.7,121.1c3.3-3.1,7.5-4,12.1-1.6c1.5,0.8,1.8,2.9,3.1,4.3c0.9,1,2.2,2.8,2.8,3.9
					c2.9,5,2.8,9.3-0.7,12.7c-2.6,2.5-9,8.4-12.8,7.3c-2.5-0.7-3.9,0-8.5-3.4s-8.2-9-6.7-14.7C68.6,123.8,74.4,124.1,77.7,121.1z"/>
				<path class="st14" d="M72,131c-1.7,0.9-3.2,1.7-4.7,0c-1-1-2.1-4.3,5.9-9.9s14.1-2.3,14.1-2.3s-7.9,7.1-12.3,10.5
					C73.5,130.5,72.4,130.7,72,131z"/>
				<path class="st15" d="M91.3,123.1l-0.5,0.2c0,0-5.4,1.5-9.8,3.3c-3,1.2-7.3,3.3-8.9,4.1c-4.4,4.2-5.8,6.9-4.3,9.3
					c1.5,2.3,4.4,3.1,7.2,2.1c1.4-0.5,3.2-1.9,5.1-4s3.9-5,6.3-7.9c1.9-2.4,3.9-4.7,5.8-5.8c0,0-3.5,1.3-3.6,0.8s2.2-2.1,2.2-2.1
					H91.3z"/>
				<path class="st15" d="M87.9,144.8c0,0,3.6,0.7,6.4-1.4s3.8-5.3,3.8-5.3S91.3,145.2,87.9,144.8z"/>
				<path class="st16" d="M87.9,144.8c0,0,2.8-0.3,6-3.7s4.9-10.1,4.9-10.1s-0.3-0.2,0.2-0.1c0.5,0.1,2,1.7,1.2,3.4
					s-2.1,4.5-5.2,6.8s-4.3,2.9-5.5,3.3C88.4,144.8,87.9,144.8,87.9,144.8z"/>
				<path class="st15" d="M98.3,130c0.3,0.3-7,8.8-7.3,8.5c-1.6,0.9-6.4,0.8-9.3,1.1s-7.2,1.6-6.1,4.3c2.6,4.7,8.2,4.7,11.6,3.5
					s4.8-2.7,8.7-9c3.8-6.4,2.7-7.9,2.8-8.3C98.8,129.6,98.3,129.8,98.3,130z"/>
				<path class="st17" d="M98.5,129.8c0.3,0.2-2,6.5-7.4,9.1c-2.7,1.3-4.6,1.4-6.7,1.4s-4.5,0-3.7,1.9c0.6,1.1,1.6,1.6,2.5,1.9
					c2,0.8,3.5,0.7,4.6,0.4s4.2-1.1,7.3-6.3c3.1-5.2,3.3-7.7,3.5-8S98.5,129.8,98.5,129.8z"/>
				<path class="st18" d="M92.1,122.9c0,0-1.9,1.1-1.8,1.5s1.8,0,1.8,0c-1.6,0.9-2.4,1.3-4,3.4c-4,5-7.2,9.9-9.7,10.7
					c-2.5,0.9-4.7,0.1-5.7-1.8c-1-1.9,0.4-4.9,3.5-7.4c1.3-1,3.3-1.8,5.8-2.8c3.8-1.5,8.6-2.9,8.6-2.9S91.9,122.8,92.1,122.9
					L92.1,122.9z"/>
				<path class="st19" d="M88.3,118.5c1.5,0.3,3.4,1.6,3.8,2.2c1,1.3,1.4,2.9-0.2,3.3c-1,0.3-5.1,1.1-7.7,1.9
					c-3.6,1.1-7.2,2.7-7.2,2.7s-6.4,3.1-4.9,2.4c0.8-0.4,2.7-1.3,4.7-3.5c1.9-2.2,2.3-3.5,3.8-5c2.5-2.4,4.1-4.1,5.8-4.3
					C86.3,118.2,86.8,118.1,88.3,118.5z"/>
				<path class="st20" d="M82.5,118.8c-4.3-0.6-10.8,2.9-12.5,6.4s0,4.7,0.6,4.9c0.6,0.1,1.4,0.3,2.3-0.1c0.9-0.4,2.6-1.4,4.1-3.6
					c1.5-2.2,4.5-6.1,9-8L82.5,118.8z"/>
				<path class="st16" d="M95.9,124.7c-1-0.4-3-1.1-5.7,0.5s-4.4,5.2-6.4,8c-1.1,1.6-2.4,3.5-3.7,4.9c-1.1,1.2-2.2,1.9-2.5,2.2
					c-0.3,0.2,1.9-1.4,4.2-3.4c2.8-2.6,7.6-5.7,7.9-5.4c0.3,0.4-2.7,4-4.2,5.3c-1.5,1.4-7.1,3.4-7.2,3.6c-0.1,0.1,3.2-1.1,5.8-1
					c2.6,0.1,6.2,0,8.2-1.3c2-1.4,6-3.8,6.6-7.2C99.1,128.7,96.9,125.2,95.9,124.7z"/>
				<path class="st21" d="M77.1,124.9c0,0,5-5.9,7.9-6.3"/>
				<path class="st21" d="M88.5,124.8c0.1,0.1-13.3,7.7-13.4,7.6"/>
				<path class="st22" d="M97.1,134.2c0,0-3.6,7-8.6,7.9"/>
			</g>
		</g>
	</g>
	<g>
		<g>
			<g>
				<path class="st2" d="M100.8,117.5c0,0,2.2-0.5,3.5,0.2s2.1,1.8,2.1,1.8l3.1-9.1l-9.2-4.2L100.8,117.5z"/>
				<polygon class="st2" points="136.8,81.3 136.4,125.5 126.8,130.4 126.6,86.3 				"/>
				<polygon class="st2" points="87.2,66.1 97.3,61 136.7,81.2 126.9,86 				"/>
				<g>
					<path class="st10" d="M106.3,111.8v7.7l20.7,10.7l-0.2-44.1l-39.5-20L87,110.7l14,6.9l0.1-8.6c0,0,1.4,0.3,2.4,0.7
						C104.6,110,106.3,111.8,106.3,111.8z"/>
				</g>
			</g>
			<path class="st2" d="M106.7,83.3c1.2-0.8,2.6-0.5,3.5,1c0.4,0.6,0.8,1.4,1.3,1.6c0.8,0.2,1.7-0.4,2.3,0.2c1,1,1.2,2,1.9,3.4
				c0.9,1.6,1.5,4.4,1.9,6.4c0.1,0.3,0.1,0.6,0.2,0.9c1.1,7.9-2.8,15-9,16.2c-0.8,0.2-1.8,0.2-2.6,0.1c0,0-0.5-1.2-2.3-1.6
				s-2.8-0.3-2.8-0.3s-0.4-0.3-0.9-0.7c-2.8-2.3-5.1-6-5.9-10.4c-0.6-3-0.4-5.9,0.4-8.5c0.4-1.5,1.1-2.4,1.9-3.7
				c0.5-0.8,1.3-0.9,1.7-2.5c0.4-1.6,2.8-2.2,3.9-1.2C103.6,85.2,105.5,84.1,106.7,83.3z"/>
			<path class="st23" d="M98.3,108.2c0,0,0.9,0.9,1.6,1.7c0.7,0.8,1.4,1.1,1.4,1.1s2.4,0.1,3.4,0.5s1.6,1,1.7,1.3
				c0,0.1,0.7,0.1,0.7,0.1s3.4,0,5.2-1.6c0.1-0.1,0.2-0.2,0.2-0.3c0,0-2-2.3-3.9-3.4c-1-0.5-4.7-1.4-6.3-1.5
				C100.4,106,98.3,108.2,98.3,108.2z"/>
			<path class="st6" d="M104.8,106.8c0,0,0-0.8,0-1.3c0-7.1-0.4-13.6,0.5-16.1s2.3-3.6,3.6-2.7c1.3,0.9,1.8,4.3,1.3,8.8
				c-0.2,1.8-0.9,3.9-1.8,6.7c-0.5,1.6-1.6,4.8-1.6,4.8L104.8,106.8z"/>
			<path class="st0" d="M104.1,109.2c0,0,0-1,0-1.7c0-9.1-4.1-14.6-2.9-17.9s6.4-7.5,8-6.3s2.5,5.8,1.8,11.5c-0.3,2.3-1.2,5-2.3,8.5
				c-0.7,2.1-2.1,6.1-2.1,6.1L104.1,109.2z"/>
			<path class="st0" d="M99.5,107.3c0,0-1.5-2.3-1.6-2.9c-0.3-2.4-1.1-3.3-1.4-5.4c-0.7-4.9,0.7-8.9,1.1-10.9c0.7-3,2.6-5,4.1-4.1
				s4.7,7.5,4.6,12.6c0,2,0.5-1.3-0.2,1.9c-0.4,1.9-0.2,8.8-0.2,8.8H99.5z"/>
			<path class="st23" d="M100.2,109.2c0,0-1.2-2.3-1.3-2.8c-0.2-2.3-0.9-3.2-1.2-5.2c-0.6-4.8,0.4-8.6,0.7-10.6c0.5-2.9,2-4.8,3.2-4
				c1.2,0.9,3.8,7.4,3.8,12.3c0,2,0.3-1.3-0.1,1.8c-0.3,1.8,0,8.5,0,8.5L100.2,109.2z"/>
			<path class="st0" d="M111.7,110.9c0,0,1.8-2.1,1.9-2.7c0.6-2.3,1.5-3.1,2.1-5.1c1.4-4.8,0.5-8.9,0.3-11c-0.3-3-1.9-6.8-3.5-6.2
				c-1.6,0.6-4.9,0.7-5.5,5.8c-0.2,2-1.1,6.3-0.8,9.5c0.1,1.9-1,8.7-1,8.7L111.7,110.9z"/>
			<path class="st23" d="M111,110.8c0,0,1.7-2,1.8-2.5c0.5-2.2,1.4-2.9,2-4.8c1.3-4.5,0.5-8.3,0.3-10.3c-0.2-2.8-1.7-6.3-3.2-5.7
				c-1.5,0.6-4.5,0.7-5,5.4c-0.2,1.9-1,5.8-0.8,8.8c0.1,1.8-0.9,8.1-0.9,8.1L111,110.8z"/>
		</g>
		<g>
			<ellipse transform="matrix(0.5 -0.866 0.866 0.5 -20.5809 120.92)" class="st23" cx="94.4" cy="78.3" rx="2" ry="2.6"/>
			<ellipse transform="matrix(0.5 -0.866 0.866 0.5 -20.5809 120.92)" class="st24" cx="94.4" cy="78.3" rx="1.5" ry="2"/>
		</g>
		<g>
			<ellipse transform="matrix(0.5 -0.866 0.866 0.5 -17.376 149.9367)" class="st23" cx="121.2" cy="90" rx="2" ry="2.6"/>
			<ellipse transform="matrix(0.5 -0.866 0.866 0.5 -17.376 149.9367)" class="st24" cx="121.2" cy="90" rx="1.5" ry="2"/>
		</g>
		<g>
			<ellipse transform="matrix(0.5 -0.866 0.866 0.5 -42.2677 162.0296)" class="st23" cx="119.2" cy="117.6" rx="2" ry="2.6"/>
			<ellipse transform="matrix(0.5 -0.866 0.866 0.5 -42.2677 162.0296)" class="st24" cx="119.2" cy="117.6" rx="1.5" ry="2"/>
		</g>
		<g>
			<ellipse transform="matrix(0.5 -0.866 0.866 0.5 -46.2511 132.9473)" class="st23" cx="92" cy="106.5" rx="2" ry="2.6"/>
			<ellipse transform="matrix(0.5 -0.866 0.866 0.5 -46.2511 132.9473)" class="st24" cx="92" cy="106.5" rx="1.5" ry="2"/>
		</g>
	</g>
	<g>
		<ellipse class="st23" cx="56.2" cy="133.6" rx="2.9" ry="1.4"/>
		<path class="st24" d="M53.4,133.6c0,0,2.7-5.1,5.8,0c0,0-1.4,0.7-3.2,0.7S53.4,133.6,53.4,133.6z"/>
	</g>
	<g>
		<ellipse class="st23" cx="80.9" cy="148.7" rx="2.9" ry="1.4"/>
		<path class="st24" d="M78,148.7c0,0,2.7-5.1,5.8,0c0,0-1.4,0.7-3.2,0.7S78,148.7,78,148.7z"/>
	</g>
	<g>
		<ellipse class="st23" cx="107.1" cy="133.3" rx="2.9" ry="1.4"/>
		<path class="st24" d="M104.3,133.3c0,0,2.7-5.1,5.8,0c0,0-1.4,0.7-3.2,0.7S104.3,133.3,104.3,133.3z"/>
	</g>
	<g>
		<g>
			<defs>
				<polygon id="SVGID_3_" points="78.8,118.2 84.5,117.5 82.8,115.4 79.4,116.3 				"/>
			</defs>
			<clipPath id="SVGID_4_">
				<use xlink:href="#SVGID_3_"  style="overflow:visible;"/>
			</clipPath>
			<g class="st25">
				<ellipse class="st6" cx="82" cy="118.4" rx="2.9" ry="1.4"/>
				<path class="st24" d="M79.1,118.4c0,0,2.7-5.1,5.8,0c0,0-1.4,0.7-3.2,0.7S79.1,118.4,79.1,118.4z"/>
			</g>
		</g>
	</g>
</g>
</svg>
