<?xml version="1.0" encoding="utf-8"?>
<!-- Generator: Adobe Illustrator 25.2.3, SVG Export Plug-In . SVG Version: 6.00 Build 0)  -->
<svg version="1.1" id="Layer_1" xmlns="http://www.w3.org/2000/svg" xmlns:xlink="http://www.w3.org/1999/xlink" x="0px" y="0px"
	 viewBox="0 0 144.1 189.1" style="enable-background:new 0 0 144.1 189.1;" xml:space="preserve">
<style type="text/css">
	.st0{fill:#CCB9B9;stroke:#FFFFFF;stroke-width:0.25;stroke-miterlimit:10;}
	.st1{fill:#E4DAD8;stroke:#FFFFFF;stroke-width:0.25;stroke-miterlimit:10;}
	.st2{fill:#CCB9B9;stroke:#FFFFFF;stroke-width:0.5;stroke-miterlimit:10;}
	.st3{fill:#CCB9B9;}
	.st4{fill:#543C52;}
	.st5{fill:#543C52;stroke:#FFFFFF;stroke-width:0.25;stroke-miterlimit:10;}
	.st6{fill:#361D32;stroke:#FFFFFF;stroke-width:0.25;stroke-miterlimit:10;}
	.st7{fill:none;stroke:#FFFFFF;stroke-width:0.25;stroke-miterlimit:10;}
	.st8{fill:#B79797;stroke:#FFFFFF;stroke-width:0.25;stroke-miterlimit:10;}
	.st9{clip-path:url(#SVGID_2_);}
	.st10{fill:#543C52;stroke:#FFFFFF;stroke-width:8.721422e-02;stroke-miterlimit:10;}
	.st11{fill:#361D32;stroke:#FFFFFF;stroke-width:9.626419e-02;stroke-miterlimit:10;}
	.st12{fill:#543C52;stroke:#FFFFFF;stroke-width:8.527125e-02;stroke-miterlimit:10;}
	.st13{fill:#543C52;stroke:#FFFFFF;stroke-width:8.328352e-02;stroke-miterlimit:10;}
	.st14{fill:#361D32;stroke:#FFFFFF;stroke-width:0.1136;stroke-miterlimit:10;}
	.st15{fill:#361D32;stroke:#FFFFFF;stroke-width:0.108;stroke-miterlimit:10;}
	.st16{fill:#543C52;stroke:#FFFFFF;stroke-width:8.929575e-02;stroke-miterlimit:10;}
	.st17{fill:#361D32;stroke:#FFFFFF;stroke-width:0.1163;stroke-miterlimit:10;}
	.st18{fill:none;stroke:#FFFFFF;stroke-width:8.929575e-02;stroke-miterlimit:10;}
	.st19{fill:none;stroke:#FFFFFF;stroke-width:8.721422e-02;stroke-miterlimit:10;}
	.st20{fill:#AA7F7B;}
	.st21{fill:#B79797;}
	.st22{fill:#916461;}
	.st23{clip-path:url(#SVGID_4_);}
</style>
<g>
	<g>
		<g>
			<g>
				<g>
					<defs>
						<path id="XMLID_21_" d="M77.6,41.4c1.6-1.1,2.1-1.9,2.8-2.9c0.6-1,1.5-1.4,2.1-1.9c0.6-0.6,48.4-29.3,51.9-31.7
							c0.6-0.4,0.9-2.2,0.7-2.9c-0.3-0.8-2.2-1.3-2.8-0.9c-2.5,1.7-51.7,34-51.7,34S76.3,38.3,75,39c-1.3,0.7-8.7,2.8-5.5,3.3
							c0.1,0.1,0.4,0,0.4,0.1C72,44.1,76,42.5,77.6,41.4z"/>
					</defs>
					<use xlink:href="#XMLID_21_"  style="overflow:visible;fill:#B79797;"/>
					<clipPath id="XMLID_2_">
						<use xlink:href="#XMLID_21_"  style="overflow:visible;"/>
					</clipPath>
					<use xlink:href="#XMLID_21_"  style="overflow:visible;fill:none;stroke:#FFFFFF;stroke-width:0.25;stroke-miterlimit:10;"/>
				</g>
			</g>
			<path class="st0" d="M68.9,41.9c0.9,0.6,4,0,5.7-0.4c1.7-0.4,4.4-2.1,5.5-2.6c-0.1,0.3-1.6,1.8-2.3,2.3c-1.2,0.9-4.1,1.9-5.2,1.9
				C69,43.2,68.6,41.7,68.9,41.9z"/>
		</g>
	</g>
	<polygon class="st1" points="76.8,180.8 143.2,147.6 87.7,118.3 20,152.5 	"/>
	<polygon class="st0" points="27.9,151.2 76.6,175.6 130.8,148.3 130.8,140.8 80.8,115.7 28,147.6 	"/>
	<polygon class="st0" points="27.9,151.3 27.9,143.1 76.5,167.2 76.5,175.6 	"/>
	<polygon class="st0" points="20,152.5 20.1,160.4 76.3,188.5 143.7,154.6 143.6,147.3 76.4,180.7 	"/>
	<line class="st0" x1="76.4" y1="180.7" x2="76.4" y2="188.5"/>
	<polygon class="st1" points="28.3,143.4 76.7,167.7 130.7,140.8 82.3,116.4 	"/>
	<path class="st2" d="M116.3,129.1l-17.3-9.2c0,0-2.2,0.4-3.2-0.1c-1.1-0.5-0.9-0.8-1.3-1.9c0,0-8.9-4.4-8.6-4.7l0,10.5l30.7,15.4
		L116.3,129.1z"/>
	<polygon class="st3" points="45.3,145.8 86.1,125.3 86,113.1 45.2,133.5 	"/>
	<polygon class="st0" points="76.5,161 36.5,141.5 36.4,128.9 76.4,148.8 	"/>
	<polygon class="st0" points="76.6,161.1 116.8,141 116.7,128.8 76.5,148.9 	"/>
	<ellipse class="st4" cx="73.6" cy="142.6" rx="2.4" ry="1.2"/>
	<ellipse class="st4" cx="76.5" cy="121.1" rx="2.4" ry="1.2"/>
	<g>
		<ellipse class="st4" cx="76.7" cy="121" rx="2.4" ry="1.2"/>
		<path class="st4" d="M74.2,121c0,0,2.3-4.3,4.9,0c0,0-1.2,0.6-2.7,0.6C74.9,121.6,74.2,121,74.2,121z"/>
	</g>
	<g>
		<ellipse transform="matrix(0.9863 -0.1649 0.1649 0.9863 -11.636 6.1784)" class="st5" cx="31.4" cy="73.2" rx="26" ry="14"/>
		<path class="st6" d="M57.5,57.8c2.2,8.9-0.4,17.4-9.3,23.1c-3,1.9-7.1,0.3-10.8,1.3c-2.7,0.7-7.2,1-9.8,1.1
			C16,83.3,8.2,78.9,5.8,69.2c-1.8-7.2-6-24.4-0.2-30c3.8-3.6,3.9-6.8,14.6-11.6s24.3-5.6,32.9,2.9S55.3,48.9,57.5,57.8z"/>
		<path class="st5" d="M45.6,37.8c0.1-4,0.2-7.4,4.7-8.4c2.8-0.7,9.8,0.7,11.7,20.3c1.9,19.6-10,27.4-10,27.4S47.2,56,45.5,44.7
			C45,41,45.5,38.8,45.6,37.8z"/>
		<path class="st5" d="M40.3,80l0.1-1c0,0,2.8-11.2,4.1-20.8c0.9-6.4,1.5-16.3,1.5-19.9c-3-12-6.5-17.2-12.2-16.9
			c-5.7,0.4-9.9,4.7-11,10.8c-0.5,3,0.2,7.6,2.1,13.1c1.9,5.6,5,12,7.8,19.1c2.3,5.8,4.4,11.7,4.5,16c0,0,1.2-7.4,2.2-7.2
			c1,0.2,1.5,5.9,1.5,5.9L40.3,80z"/>
		<path class="st5" d="M5,52.1c0,0-4.8,5.8-3.8,12.8S6.7,77,6.7,77S0.9,57.9,5,52.1z"/>
		<path class="st5" d="M5,52.1c0,0-2.2,5.3,0.6,14.3s13,18.8,13,18.8s0.6-0.3-0.1,0.5c-0.7,0.8-5.1,1.9-7.2-1.2
			c-2.2-3.1-5.8-8.3-7-16S3.5,57.8,4,55.4S5,52.1,5,52.1z"/>
		<path class="st5" d="M21,85.6c-0.8,0.3-8.7-21.2-7.9-21.6c0-3.8,5.1-12.1,7.4-17.6S24.8,32,19,31.4c-10.9,0-16.6,9.8-17.9,17
			S0.9,59.6,8.4,72.8s11.5,12.7,11.9,13.3C21.1,86.9,21.3,85.7,21,85.6z"/>
		<path class="st6" d="M21.1,86.2c-0.7,0.3-9.5-10.1-8.7-22.3c0.4-6.1,2.2-9.5,4.2-13.2c2.1-3.7,4.5-8.1,0.2-8.5
			c-2.6,0-4.4,1.3-5.9,2.5c-3.5,2.8-4.7,5.5-5.3,7.7C5.2,54.7,3.5,61,9.6,71.7S20,85.4,20.3,85.9C20.7,86.3,21.1,86.2,21.1,86.2z"/>
		<path class="st6" d="M39.8,81.7c0,0-0.1-4.6-1-4.7c-0.9-0.2-1.7,3.2-1.7,3.2c-0.1-3.7,0-5.6-2-10.6c-4.8-12.2-10.3-22.8-9.4-28
			c0.9-5.3,4.5-8.6,8.9-8.3s8.3,5.6,9.7,13.7c0.6,3.3,0,7.7-0.8,13.2c-1.1,8.3-3.5,18.1-3.5,18.1s0.2,3.2-0.2,3.2L39.8,81.7z"/>
		<path class="st5" d="M51.5,79.3c-2.1,2.3-6.3,4.3-7.8,4.6c-3.3,0.5-6.6-0.5-5.7-3.7c0.5-2,3.1-10.1,4.4-15.6
			C44.2,57,44.9,49,44.9,49s0.9-14.5,0.6-11.2c-0.2,1.8-0.4,6.1,1.6,11.8c2,5.7,3.9,7.6,5,11.8c1.7,6.9,3.1,11.4,1.8,14.6
			C53.9,75.9,53.5,77,51.5,79.3z"/>
		<path class="st6" d="M56.6,68.7c5.4-7.1,5.7-22.1,1.2-28.6s-8.4-4.7-9.2-3.8c-0.8,0.9-1.8,2.2-2,4.2c-0.2,2-0.1,6,2.3,10.9
			s6.3,14,5.2,24.1L56.6,68.7z"/>
		<path class="st5" d="M32.7,86.5c1.8-1.3,4.8-4.2,4.8-10.7c-0.1-6.5-4.8-13-7.8-19.4c-1.6-3.6-3.8-7.8-5-11.4
			c-1-3.2-1.2-5.9-1.3-6.6c-0.2-0.7,0.5,4.7,1.9,10.8c1.7,7.6,2.5,19.3,1.7,19.5c-0.9,0.1-4.3-8.7-5.2-12.9s1-16,0.8-16.3
			c-0.1-0.3-1.2,6.7-4.1,11.2s-6.3,11.1-5.8,15.9c0.4,4.9,0.7,14.4,6.2,19C22.4,88.3,30.9,87.9,32.7,86.5z"/>
		<path class="st7" d="M51.3,53c0,0,5.4,14.8,3.2,20.3"/>
		<path class="st7" d="M40,73.4c-0.3,0-0.4-31.4,0-31.4"/>
		<path class="st7" d="M14.5,79.2c0,0-8.9-13.5-5.3-23.2"/>
	</g>
	<path class="st8" d="M116.7,128.8L99,119.9l-6.6,3.7l0,0.5c0.3,3-0.6,6.1-1.8,7.7s-4.5,5.9-10.3,7.1c-5.6,0.8-6,0.5-10-0.2
		c-2.3-0.5-2.3-0.7-3.3-1.2c-0.8-0.5-2.8-1.3-3.6-1.9c-1.7-1.2-1.6-4-0.9-4.8c-1.6-0.8-0.8-5.6-0.8-5.6s-2-4.8,6-9.3s9.6-4,14.4-2.4
		c4.8,1.6,8.5,6,8.5,6l3.5-1.7l-17.3-8.7L36.4,129l40.3,19.9L116.7,128.8"/>
	<g>
		<ellipse class="st4" cx="51.1" cy="127.8" rx="2.4" ry="1.2"/>
		<path class="st4" d="M48.7,127.8c0,0,2.3-4.3,4.9,0c0,0-1.2,0.6-2.7,0.6S48.7,127.8,48.7,127.8z"/>
	</g>
	<g>
		<ellipse class="st4" cx="79" cy="114.2" rx="2.4" ry="1.2"/>
		<path class="st4" d="M76.6,114.2c0,0,2.3-4.3,4.9,0c0,0-1.2,0.6-2.7,0.6C77.3,114.8,76.6,114.2,76.6,114.2z"/>
	</g>
	<g>
		<defs>
			<path id="SVGID_1_" d="M92.7,125.5c0,7.4-7.9,13.6-16.3,13.6c-4.1,0-9.8-0.9-13-3.2c-3.4-2.4-3-6.7-3-10.4
				c0-7.4,9-13.9,17.3-13.9S92.7,118.1,92.7,125.5z"/>
		</defs>
		<clipPath id="SVGID_2_">
			<use xlink:href="#SVGID_1_"  style="overflow:visible;"/>
		</clipPath>
		<g class="st9">
			
				<ellipse transform="matrix(0.778 -0.6282 0.6282 0.778 -58.3566 81.0484)" class="st10" cx="85.5" cy="123.1" rx="6.9" ry="12.7"/>
			<path class="st11" d="M72.7,115.7c3.3-3.1,7.5-4,12.1-1.6c1.5,0.8,1.8,2.9,3.1,4.3c0.9,1,2.2,2.8,2.8,3.9c2.9,5,2.8,9.3-0.7,12.7
				c-2.6,2.5-9,8.4-12.8,7.3c-2.5-0.7-3.9,0-8.5-3.4c-4.6-3.4-8.2-9-6.7-14.7C63.6,118.4,69.4,118.7,72.7,115.7z"/>
			<path class="st12" d="M67,125.6c-1.7,0.9-3.2,1.7-4.7,0c-1-1-2.1-4.3,5.9-9.9s14.1-2.3,14.1-2.3s-7.9,7.1-12.3,10.5
				C68.5,125.1,67.4,125.3,67,125.6z"/>
			<path class="st13" d="M86.3,117.7l-0.5,0.2c0,0-5.4,1.5-9.8,3.3c-3,1.2-7.3,3.3-8.9,4.1c-4.4,4.2-5.8,6.9-4.3,9.3
				c1.5,2.3,4.4,3.1,7.2,2.1c1.4-0.5,3.2-1.9,5.1-4c1.9-2.1,3.9-5,6.3-7.9c1.9-2.4,3.9-4.7,5.8-5.8c0,0-3.5,1.3-3.6,0.8
				s2.2-2.1,2.2-2.1L86.3,117.7z"/>
			<path class="st13" d="M82.9,139.4c0,0,3.6,0.7,6.4-1.4s3.8-5.3,3.8-5.3S86.3,139.8,82.9,139.4z"/>
			<path class="st10" d="M82.9,139.4c0,0,2.8-0.3,6-3.7c3.2-3.4,4.9-10.1,4.9-10.1s-0.3-0.2,0.2-0.1c0.5,0.1,2,1.7,1.2,3.4
				c-0.8,1.7-2.1,4.5-5.2,6.8s-4.3,2.9-5.5,3.3C83.4,139.4,82.9,139.4,82.9,139.4z"/>
			<path class="st13" d="M93.3,124.6c0.3,0.3-7,8.8-7.3,8.5c-1.6,0.9-6.4,0.8-9.3,1.1s-7.2,1.6-6.1,4.3c2.6,4.7,8.2,4.7,11.6,3.5
				s4.8-2.7,8.7-9c3.8-6.4,2.7-7.9,2.8-8.3C93.8,124.2,93.3,124.4,93.3,124.6z"/>
			<path class="st14" d="M93.5,124.4c0.3,0.2-2,6.5-7.4,9.1c-2.7,1.3-4.6,1.4-6.7,1.4c-2.1,0-4.5,0-3.7,1.9c0.6,1.1,1.6,1.6,2.5,1.9
				c2,0.8,3.5,0.7,4.6,0.4c1.1-0.3,4.2-1.1,7.3-6.3c3.1-5.2,3.3-7.7,3.5-8S93.5,124.4,93.5,124.4z"/>
			<path class="st15" d="M87.1,117.5c0,0-1.9,1.1-1.8,1.5c0.1,0.4,1.8,0,1.8,0c-1.6,0.9-2.4,1.3-4,3.4c-4,5-7.2,9.9-9.7,10.7
				c-2.5,0.9-4.7,0.1-5.7-1.8c-1-1.9,0.4-4.9,3.5-7.4c1.3-1,3.3-1.8,5.8-2.8c3.8-1.5,8.6-2.9,8.6-2.9s1.3-0.8,1.4-0.7L87.1,117.5z"
				/>
			<path class="st16" d="M83.3,113.1c1.5,0.3,3.4,1.6,3.8,2.2c1,1.3,1.4,2.9-0.2,3.3c-1,0.3-5.1,1.1-7.7,1.9
				c-3.6,1.1-7.2,2.7-7.2,2.7s-6.4,3.1-4.9,2.4c0.8-0.4,2.7-1.3,4.7-3.5c1.9-2.2,2.3-3.5,3.8-5c2.5-2.4,4.1-4.1,5.8-4.3
				C81.3,112.8,81.8,112.7,83.3,113.1z"/>
			<path class="st17" d="M77.5,113.4c-4.3-0.6-10.8,2.9-12.5,6.4c-1.7,3.5,0,4.7,0.6,4.9c0.6,0.1,1.4,0.3,2.3-0.1s2.6-1.4,4.1-3.6
				c1.5-2.2,4.5-6.1,9-8L77.5,113.4z"/>
			<path class="st10" d="M90.9,119.3c-1-0.4-3-1.1-5.7,0.5c-2.7,1.6-4.4,5.2-6.4,8c-1.1,1.6-2.4,3.5-3.7,4.9
				c-1.1,1.2-2.2,1.9-2.5,2.2c-0.3,0.2,1.9-1.4,4.2-3.4c2.8-2.6,7.6-5.7,7.9-5.4c0.3,0.4-2.7,4-4.2,5.3c-1.5,1.4-7.1,3.4-7.2,3.6
				c-0.1,0.1,3.2-1.1,5.8-1c2.6,0.1,6.2,0,8.2-1.3c2-1.4,6-3.8,6.6-7.2C94.1,123.3,91.9,119.8,90.9,119.3z"/>
			<path class="st18" d="M72.1,119.5c0,0,5-5.9,7.9-6.3"/>
			<path class="st18" d="M83.5,119.4c0.1,0.1-13.3,7.7-13.4,7.6"/>
			<path class="st19" d="M92.1,128.8c0,0-3.6,7-8.6,7.9"/>
		</g>
	</g>
	<g>
		<g>
			<g>
				<path class="st0" d="M95.8,112.1c0,0,2.2-0.5,3.5,0.2c1.3,0.7,2.1,1.8,2.1,1.8l3.1-9.1l-9.2-4.2L95.8,112.1z"/>
				<polygon class="st0" points="131.8,75.9 131.4,120.1 121.8,125 121.6,80.9 				"/>
				<polygon class="st0" points="82.2,60.7 92.3,55.6 131.7,75.8 121.9,80.6 				"/>
				<g>
					<path class="st8" d="M101.3,106.4l0,7.7l20.7,10.7l-0.2-44.1L82.3,60.7l-0.3,44.6l14,6.9l0.1-8.6c0,0,1.4,0.3,2.4,0.7
						C99.6,104.6,101.3,106.4,101.3,106.4z"/>
				</g>
			</g>
			<path class="st0" d="M101.7,77.9c1.2-0.8,2.6-0.5,3.5,1c0.4,0.6,0.8,1.4,1.3,1.6c0.8,0.2,1.7-0.4,2.3,0.2c1,1,1.2,2,1.9,3.4
				c0.9,1.6,1.5,4.4,1.9,6.4c0.1,0.3,0.1,0.6,0.2,0.9c1.1,7.9-2.8,15-9,16.2c-0.8,0.2-1.8,0.2-2.6,0.1c0,0-0.5-1.2-2.3-1.6
				c-1.8-0.4-2.8-0.3-2.8-0.3s-0.4-0.3-0.9-0.7c-2.8-2.3-5.1-6-5.9-10.4c-0.6-3-0.4-5.9,0.4-8.5c0.4-1.5,1.1-2.4,1.9-3.7
				c0.5-0.8,1.3-0.9,1.7-2.5c0.4-1.6,2.8-2.2,3.9-1.2C98.6,79.8,100.5,78.7,101.7,77.9z"/>
			<path class="st20" d="M93.3,102.8c0,0,0.9,0.9,1.6,1.7c0.7,0.8,1.4,1.1,1.4,1.1s2.4,0.1,3.4,0.5c1,0.4,1.6,1,1.7,1.3
				c0,0.1,0.7,0.1,0.7,0.1s3.4,0,5.2-1.6c0.1-0.1,0.2-0.2,0.2-0.3c0,0-2-2.3-3.9-3.4c-1-0.5-4.7-1.4-6.3-1.5
				C95.4,100.6,93.3,102.8,93.3,102.8z"/>
			<path class="st4" d="M99.8,101.4c0,0,0-0.8,0-1.3c0-7.1-0.4-13.6,0.5-16.1c0.9-2.5,2.3-3.6,3.6-2.7c1.3,0.9,1.8,4.3,1.3,8.8
				c-0.2,1.8-0.9,3.9-1.8,6.7c-0.5,1.6-1.6,4.8-1.6,4.8L99.8,101.4z"/>
			<path class="st21" d="M99.1,103.8c0,0,0-1,0-1.7c0-9.1-4.1-14.6-2.9-17.9s6.4-7.5,8-6.3s2.5,5.8,1.8,11.5c-0.3,2.3-1.2,5-2.3,8.5
				c-0.7,2.1-2.1,6.1-2.1,6.1L99.1,103.8z"/>
			<path class="st21" d="M94.5,101.9c0,0-1.5-2.3-1.6-2.9c-0.3-2.4-1.1-3.3-1.4-5.4c-0.7-4.9,0.7-8.9,1.1-10.9c0.7-3,2.6-5,4.1-4.1
				s4.7,7.5,4.6,12.6c0,2,0.5-1.3-0.2,1.9c-0.4,1.9-0.2,8.8-0.2,8.8L94.5,101.9z"/>
			<path class="st20" d="M95.2,103.8c0,0-1.2-2.3-1.3-2.8c-0.2-2.3-0.9-3.2-1.2-5.2c-0.6-4.8,0.4-8.6,0.7-10.6c0.5-2.9,2-4.8,3.2-4
				c1.2,0.9,3.8,7.4,3.8,12.3c0,2,0.3-1.3-0.1,1.8c-0.3,1.8,0,8.5,0,8.5L95.2,103.8z"/>
			<path class="st21" d="M106.7,105.5c0,0,1.8-2.1,1.9-2.7c0.6-2.3,1.5-3.1,2.1-5.1c1.4-4.8,0.5-8.9,0.3-11c-0.3-3-1.9-6.8-3.5-6.2
				c-1.6,0.6-4.9,0.7-5.5,5.8c-0.2,2-1.1,6.3-0.8,9.5c0.1,1.9-1,8.7-1,8.7L106.7,105.5z"/>
			<path class="st20" d="M106,105.4c0,0,1.7-2,1.8-2.5c0.5-2.2,1.4-2.9,2-4.8c1.3-4.5,0.5-8.3,0.3-10.3c-0.2-2.8-1.7-6.3-3.2-5.7
				c-1.5,0.6-4.5,0.7-5,5.4c-0.2,1.9-1,5.8-0.8,8.8c0.1,1.8-0.9,8.1-0.9,8.1L106,105.4z"/>
		</g>
		<g>
			<ellipse transform="matrix(0.5 -0.866 0.866 0.5 -18.4234 113.8462)" class="st20" cx="89.4" cy="72.9" rx="2" ry="2.6"/>
			<ellipse transform="matrix(0.5 -0.866 0.866 0.5 -18.4234 113.8462)" class="st22" cx="89.4" cy="72.9" rx="1.5" ry="2"/>
		</g>
		<g>
			<ellipse transform="matrix(0.5 -0.866 0.866 0.5 -15.1736 142.8512)" class="st20" cx="116.1" cy="84.6" rx="2" ry="2.6"/>
			<ellipse transform="matrix(0.5 -0.866 0.866 0.5 -15.1736 142.8512)" class="st22" cx="116.1" cy="84.6" rx="1.5" ry="2"/>
		</g>
		<g>
			<ellipse transform="matrix(0.5 -0.866 0.866 0.5 -40.0981 155.0094)" class="st20" cx="114.2" cy="112.2" rx="2" ry="2.6"/>
			<ellipse transform="matrix(0.5 -0.866 0.866 0.5 -40.0981 155.0094)" class="st22" cx="114.2" cy="112.2" rx="1.5" ry="2"/>
		</g>
		<g>
			<ellipse transform="matrix(0.5 -0.866 0.866 0.5 -44.0636 125.9128)" class="st20" cx="87" cy="101.1" rx="2" ry="2.6"/>
			<ellipse transform="matrix(0.5 -0.866 0.866 0.5 -44.0636 125.9128)" class="st22" cx="87" cy="101.1" rx="1.5" ry="2"/>
		</g>
	</g>
	<g>
		<ellipse class="st20" cx="51.2" cy="128.2" rx="2.9" ry="1.4"/>
		<path class="st22" d="M48.4,128.2c0,0,2.7-5.1,5.8,0c0,0-1.4,0.7-3.2,0.7S48.4,128.2,48.4,128.2z"/>
	</g>
	<g>
		<ellipse class="st20" cx="75.9" cy="143.3" rx="2.9" ry="1.4"/>
		<path class="st22" d="M73,143.3c0,0,2.7-5.1,5.8,0c0,0-1.4,0.7-3.2,0.7S73,143.3,73,143.3z"/>
	</g>
	<g>
		<ellipse class="st20" cx="102.1" cy="127.9" rx="2.9" ry="1.4"/>
		<path class="st22" d="M99.3,127.9c0,0,2.7-5.1,5.8,0c0,0-1.4,0.7-3.2,0.7S99.3,127.9,99.3,127.9z"/>
	</g>
	<g>
		<defs>
			<polygon id="SVGID_3_" points="73.8,112.8 79.5,112.1 77.8,110 74.4,110.9 			"/>
		</defs>
		<clipPath id="SVGID_4_">
			<use xlink:href="#SVGID_3_"  style="overflow:visible;"/>
		</clipPath>
		<g class="st23">
			<ellipse class="st4" cx="77" cy="113" rx="2.9" ry="1.4"/>
			<path class="st22" d="M74.1,113c0,0,2.7-5.1,5.8,0c0,0-1.4,0.7-3.2,0.7S74.1,113,74.1,113z"/>
		</g>
	</g>
</g>
</svg>
