<?xml version="1.0" encoding="utf-8"?>
<!-- Generator: Adobe Illustrator 25.2.3, SVG Export Plug-In . SVG Version: 6.00 Build 0)  -->
<svg version="1.1" id="Layer_1" xmlns="http://www.w3.org/2000/svg" xmlns:xlink="http://www.w3.org/1999/xlink" x="0px" y="0px"
	 viewBox="0 0 186.4 232.6" style="enable-background:new 0 0 186.4 232.6;" xml:space="preserve">
<style type="text/css">
	.st0{fill:#DD335A;}
	.st1{fill:#D8432E;}
	.st2{fill:#EE7345;}
</style>
<g>
	<g>
		<g>
			<path class="st0" d="M70.2,127.4c7.5,2,15.1,3.7,22.5,6c1.6,0.5,3.2,1.2,4.5,2.3c1.1,1,2,2.2,2.9,3.4c0.9,1.2,1.8,2.4,3,3.3
				c1,0.8,2.8,1.6,2.5,3.1c-0.1,0.4,1.2,0.2,1.3-0.2c0.3-1.3-0.8-2.1-1.7-2.8c-1.2-0.9-2.2-1.8-3.1-3c-1-1.3-1.9-2.6-3-3.8
				c-1.1-1.1-2.5-1.9-4-2.5c-3.7-1.4-7.7-2.1-11.4-3.1c-4.1-1.1-8.1-2.2-12.2-3.2C70.9,126.7,69.8,127.2,70.2,127.4L70.2,127.4z"/>
		</g>
	</g>
	<g>
		<g>
			<g>
				<path class="st1" d="M62.7,127.3c4.7,0.5,9.5,1,14.2,1.5c2.4,0.3,4.8,0.5,7.1,1.4c1.9,0.8,3.5,2,5.1,3.2
					c5.4,4.5,11.4,11.8,19.3,9.2c0.8-0.2,0.6-1.1-0.2-0.8c-4,1.3-8.1-0.7-11.3-3.1c-3.1-2.3-5.6-5.3-8.7-7.5c-3.4-2.4-7-3-11-3.4
					c-4.7-0.5-9.3-1-14-1.5C62.6,126.3,61.8,127.2,62.7,127.3L62.7,127.3z"/>
			</g>
		</g>
		<g>
			<g>
				<path class="st0" d="M68.7,134.7c7.5-1.7,15,0.9,21.9,3.9c6.9,3,13.8,6.4,20.6,9.5c0.3,0.2,1.3-0.4,1.2-0.4
					c-7.4-3.5-14.8-7.1-22.3-10.3c-6.7-2.8-13.9-4.8-21.1-3.2C68.5,134.4,67.8,134.9,68.7,134.7L68.7,134.7z"/>
			</g>
		</g>
		<g>
			<g>
				<path class="st0" d="M54.9,135.2c2.6-2.7,6.4-3.2,9.9-3.5c3.8-0.4,8-0.8,11,2c2.4,2.1,3.6,5.2,6.1,7.2c2.5,2.1,5.9,2.5,9,1.9
					c2-0.4,3.6-1.4,5.4-2.2c2.7-1.2,4.8,0.2,6.9,1.9c0.4,0.4,1.6-0.3,1-0.7c-1.4-1.2-3-2.4-4.9-2.6c-1.8-0.2-3.4,0.7-5,1.4
					c-3.8,1.9-8.6,2.2-11.8-1c-2.5-2.4-3.9-6-7-7.8c-3.3-1.9-7.4-1.4-11-1c-3.8,0.4-7.8,1.2-10.6,4
					C53.3,135.4,54.5,135.6,54.9,135.2L54.9,135.2z"/>
			</g>
		</g>
		<g>
			<g>
				<path class="st0" d="M72.5,125.2c-0.1,2.3-0.2,4.5-0.2,6.8c0,2-0.2,4.2,0.2,6.2c0.2,1.4,1.3,1.9,2.6,2c2,0.2,4.2,0.1,6.2-0.1
					c2-0.2,4.1-0.6,6-1.1c1-0.2,2-0.5,3-0.8c0.8-0.2,1.9-0.7,2.6,0.1c0.3,0.3,0.5,0.9,0.7,1.3c0.8,1.9,1.5,4,2.5,5.8
					c0.7,1.1,1.5,1.7,2.8,1.4c0.8-0.2,0.6-0.8-0.2-0.7c-1.3,0.3-2.6-3.9-2.9-4.7c-0.5-1.2-0.9-3.2-2.1-3.9c-1.1-0.7-2.5-0.2-3.7,0.1
					c-2,0.6-4,1.1-6.1,1.4c-2,0.3-4,0.5-6,0.5c-0.9,0-2,0.1-2.9-0.2c-1.1-0.3-1.4-1-1.5-2.1c-0.3-4.1-0.1-8.2,0.1-12.3
					C73.8,124.5,72.5,124.8,72.5,125.2L72.5,125.2z"/>
			</g>
		</g>
		<g>
			<g>
				<path class="st0" d="M50,131.1c3-4,8.2-0.3,11,1.8c3.2,2.3,6.7,4.3,10.3,5.9c1.9,0.8,3.8,1.6,5.8,2.2c1.4,0.5,3.1,1.2,4.6,0.7
					c1.3-0.3,1.9-1.3,2.5-2.4c0.9-1.8,2.2-3.1,4.3-3.3c4.5-0.6,8,3.1,10.5,6.3c0.2,0.3,1.5-0.1,1.2-0.5c-2.3-3-5.2-6-9.1-6.5
					c-3-0.3-6.3,0.7-7.8,3.4c-0.6,1.1-0.9,2.5-2.5,2.4c-1.2-0.1-2.5-0.7-3.6-1.1c-2.2-0.7-4.3-1.6-6.4-2.6c-2.2-1.1-4.4-2.3-6.5-3.7
					c-1.8-1.2-3.4-2.5-5.2-3.5c-3.1-1.8-7.8-2.4-10.2,0.9C48.5,131.5,49.7,131.4,50,131.1L50,131.1z"/>
			</g>
		</g>
		<g>
			<g>
				<path class="st0" d="M76.6,124.9c-0.6,3.7,1.2,8.1-1.2,11.4c-1.2,1.6-3.4,1.3-5,2.5c-1.1,0.8-1.4,2-0.6,3.1
					c1,1.3,2.8,2.3,4.2,3.1c1.7,1,3.4,1.9,5.1,2.8c3.5,1.8,7.1,3.5,10.2,6.1c0.3,0.3,1.5-0.2,1.2-0.5c-2.8-2.3-6-4-9.2-5.6
					c-3.3-1.7-7.1-3.3-9.7-5.8c-0.9-0.9-1.3-2.2,0-3c0.7-0.5,1.6-0.5,2.4-0.8c1.4-0.5,2.5-1.4,3.1-2.7c1.7-3.4,0.2-7.1,0.8-10.7
					C78,124.3,76.7,124.5,76.6,124.9L76.6,124.9z"/>
			</g>
		</g>
		<g>
			<g>
				<path class="st0" d="M64.9,132.1c8.4,2.6,16.9,5,25.1,8.1c8,3,14.9,7.6,21.7,12.7c0.4,0.3,1.6-0.2,1.2-0.5
					c-6.9-5.1-13.9-9.8-21.9-12.8c-8.3-3.1-16.9-5.5-25.4-8.1C65.3,131.3,64.2,131.9,64.9,132.1L64.9,132.1z"/>
			</g>
		</g>
		<g>
			<g>
				<path class="st0" d="M81.5,146.1c6.4,0.9,12.9-1,19.3,0.2c3.1,0.6,5.5,2.1,7.9,3.9c2.4,1.8,4.8,3.1,7.8,3.4c0.3,0,0.7,0,0.9-0.2
					c0.1,0,0.5-0.3,0.2-0.3c-3.3-0.3-5.8-1.9-8.3-3.8c-2.2-1.7-4.6-3-7.4-3.5c-6.4-1.2-12.9,0.7-19.3-0.2
					C82.3,145.6,81.2,146.1,81.5,146.1L81.5,146.1z"/>
			</g>
		</g>
		<g>
			<g>
				<path class="st0" d="M42.9,132.3c3.9,0.4,7.9-0.3,11.8,0c4.3,0.3,7.7,2.2,11,4.8c2.8,2.2,5.4,4.7,7.4,7.6
					c0.9,1.4,1.4,3.2,2.5,4.5c0.8,1.1,2.2,1.2,3.5,1.2c4.3-0.2,8.5-1.3,12.5-2.8c0.8-0.3,0.1-0.7-0.5-0.5c-2.5,0.9-5.1,1.7-7.7,2.1
					c-1.2,0.2-2.4,0.4-3.7,0.5c-1.5,0.1-2.6-0.2-3.3-1.6c-0.9-1.8-1.7-3.6-3-5.2c-1.3-1.7-2.9-3.3-4.6-4.7
					c-3.3-2.9-6.9-5.6-11.2-6.4c-4.7-0.8-9.4,0.2-14.2-0.2C43,131.6,42.1,132.2,42.9,132.3L42.9,132.3z"/>
			</g>
		</g>
		<g>
			<g>
				<path class="st0" d="M59.9,129.5c3.7,0.1,6.8,2.4,9.7,4.5c3,2.1,6,4.3,8.8,6.7c1.4,1.2,2.8,2.4,4.2,3.6c1.1,1,2.2,2.5,3.6,3
					c1.2,0.4,2.6-0.1,3.8-0.4c2-0.5,4-1,6-1.4c0.8-0.2,0.7-0.6-0.1-0.4c-1.8,0.4-3.7,0.9-5.5,1.3c-1.2,0.3-2.6,0.7-3.7,0.1
					c-0.6-0.4-1.2-1-1.7-1.5c-2.5-2.3-5.2-4.6-7.9-6.7c-2.7-2.1-5.4-4.1-8.2-6c-2.5-1.7-5.1-3.2-8.2-3.2
					C60.5,129,59.3,129.5,59.9,129.5L59.9,129.5z"/>
			</g>
		</g>
		<g>
			<g>
				<path class="st0" d="M45.1,137.2c8.3-0.7,17-1.4,25,1.5c4.1,1.6,7.4,4.4,11,6.8c3.3,2.2,7.1,3.8,11.2,2.9
					c0.8-0.2,0.6-0.9-0.2-0.8c-4.7,1-8.9-2-12.5-4.7c-3.3-2.4-6.6-4.6-10.6-5.7c-7.6-2.3-15.8-1.6-23.7-0.9
					C44.6,136.4,44.2,137.3,45.1,137.2L45.1,137.2z"/>
			</g>
		</g>
		<g>
			<g>
				<path class="st0" d="M78.8,151.2c7-0.9,13.4,3.4,20.3,3.7c7,0.3,12.7-4.5,19.5-5c0.7-0.1,1.1-0.8,0.2-0.8
					c-7,0.5-12.9,5.6-20,4.9c-6.8-0.6-12.9-4.5-19.9-3.6C78.3,150.5,77.9,151.3,78.8,151.2L78.8,151.2z"/>
			</g>
		</g>
		<g>
			<g>
				<path class="st0" d="M66.1,125.7c3.9,5.6,7.9,11.3,13.5,15.3c6.1,4.3,13.8,4.7,20,8.8c3.4,2.3,6.2,5.2,8.3,8.7
					c0.3,0.4,1.5,0,1.2-0.5c-3.6-5.9-9.2-10.1-15.7-12.3c-3.7-1.2-7.6-2.1-11-4.1c-3-1.8-5.6-4.2-7.9-6.8c-2.6-3-4.9-6.3-7.2-9.6
					C67,124.7,65.7,125.2,66.1,125.7L66.1,125.7z"/>
			</g>
		</g>
		<g>
			<g>
				<path class="st1" d="M30.6,129.8c5.9,5.5,14.3,6.4,21.4,9.8c7.3,3.4,13.5,8.6,20.3,12.6c3.7,2.2,7.6,4,11.9,5.1
					c0.4,0.1,1.5-0.5,0.8-0.6c-7.7-1.9-14.2-6.6-20.7-11c-3.2-2.1-6.4-4.3-9.8-6c-3.5-1.8-7.2-2.9-10.9-4.2
					c-4.2-1.4-8.4-3.1-11.8-6.2C31.5,129.1,30.3,129.6,30.6,129.8L30.6,129.8z"/>
			</g>
		</g>
		<g>
			<g>
				<path class="st1" d="M66.4,128.8c7.7-1,15.8,1.9,21.1,7.5c2.9,3.1,4.9,6.8,7.4,10.3c2.2,3.1,4.8,5.8,7.9,7.9
					c3.5,2.4,7.5,4.1,11.6,4.9c0.3,0.1,1.5-0.5,1.1-0.5c-8.3-1.7-15.2-6.6-19.9-13.5c-2.3-3.4-4.4-7-7.2-9.9
					c-2.6-2.7-5.9-4.7-9.4-5.9c-3.9-1.4-8.2-1.8-12.3-1.3C66.1,128.3,65.5,128.9,66.4,128.8L66.4,128.8z"/>
			</g>
		</g>
		<g>
			<g>
				<path class="st0" d="M37.9,131.1c2.3-0.2,4.7-0.5,7.1-0.1c2.4,0.4,4.3,1.5,6,3.3c1.4,1.5,2.6,2.9,4.4,3.8
					c1.7,0.8,3.9,1.5,4.5,3.4c0.1,0.4,1.4,0,1.3-0.3c-0.6-1.9-2.5-2.6-4.2-3.4c-1.1-0.5-2.1-1.1-2.9-1.9c-0.9-0.9-1.7-1.9-2.6-2.8
					c-3.6-3.4-8.8-3-13.3-2.5C37.6,130.5,37,131.1,37.9,131.1L37.9,131.1z"/>
			</g>
		</g>
		<g>
			<g>
				<path class="st0" d="M38.7,132.7c3.1,1.6,5,4.6,7.4,7.1c2.5,2.7,5.7,4.7,9,6.3c3.4,1.6,6.9,3.4,10.5,4.3
					c3.1,0.8,6.4,0.6,9.2-1.1c0.5-0.3-0.8-0.1-1,0c-3.7,2.2-8.3,0.4-11.9-1.2c-2.9-1.2-5.8-2.5-8.6-4.1c-2.8-1.6-5.2-3.7-7.2-6.1
					c-1.8-2.1-3.6-4.4-6.1-5.7C39.6,132.1,38.6,132.7,38.7,132.7L38.7,132.7z"/>
			</g>
		</g>
		<g>
			<g>
				<path class="st0" d="M65.3,121.7c0.2,1.8,2.8,2.9,4.2,3.6c2.7,1.4,5.5,2.5,8.3,3.7c1.2,0.6,2.4,1.1,3.6,1.9
					c0.7,0.4,1.6,1,1.9,1.8c0.2,0.6-0.1,1.4-0.1,2.1c-0.1,1.1-0.1,2.2,0.1,3.3c0.5,2.3,2.3,3.5,4.3,4.5c5.6,2.9,11.2,5.5,17,8
					c0.5,0.2,1.5-0.5,0.8-0.8c-5.1-2.2-10.2-4.6-15.2-7.1c-2.2-1.1-4.8-2.1-5.4-4.7c-0.3-1.2-0.2-2.5-0.1-3.7
					c0.1-0.6,0.2-1.2,0.1-1.8c-0.5-1.7-3-2.8-4.4-3.5c-2.6-1.3-5.3-2.3-8-3.6c-1.3-0.6-2.6-1.2-3.7-2c-0.7-0.5-1.7-1.1-1.8-2.1
					C66.6,120.8,65.3,121.1,65.3,121.7L65.3,121.7z"/>
			</g>
		</g>
		<g>
			<g>
				<path class="st1" d="M35.8,133.6c2.1,0,4.2,0,6.4,0c2,0,4.3-0.3,6.2,0.2c1.8,0.4,3.2,1.6,5,2.2c1.8,0.5,3.6,0.7,5.4,0.8
					c0.5,0,1.4-0.7,0.5-0.8c-2.1-0.2-4.2-0.4-6.2-1.2c-1.6-0.7-2.9-1.7-4.6-1.9c-1.9-0.3-3.9-0.1-5.8-0.1c-2.1,0-4.2,0-6.4,0
					C35.8,132.8,34.9,133.6,35.8,133.6L35.8,133.6z"/>
			</g>
		</g>
		<g>
			<g>
				<path class="st0" d="M78.1,148.8c4.6,1.7,9,4.2,12.7,7.4c0.4,0.3,1.6-0.2,1.2-0.5c-3.9-3.3-8.3-5.9-13.1-7.6
					C78.5,147.9,77.4,148.5,78.1,148.8L78.1,148.8z"/>
			</g>
		</g>
		<g>
			<g>
				<path class="st2" d="M77.6,142.3c4.2,2.2,8.5,4.2,13,5.7c3.6,1.3,8.8,1.9,10.9,5.6c0.2,0.4,1.4-0.1,1.3-0.3
					c-2-3.5-6.4-4.2-9.9-5.3c-4.9-1.6-9.6-3.7-14.1-6.1C78.4,141.6,77.3,142.1,77.6,142.3L77.6,142.3z"/>
			</g>
		</g>
		<g>
			<g>
				<path class="st0" d="M86.1,160c-6.2-8.1-13.6-15.1-22-20.9c-0.4-0.3-1.6,0.3-1,0.7c8.3,5.7,15.7,12.7,21.8,20.7
					C85.2,160.9,86.5,160.4,86.1,160L86.1,160z"/>
			</g>
		</g>
		<g>
			<g>
				<path class="st0" d="M39.1,137.5c12.2,1.6,24.9,3.4,35.2,10.5c0.3,0.2,1.4-0.3,1.2-0.4c-10.4-7.2-23.2-9-35.4-10.6
					C39.8,136.9,38.7,137.4,39.1,137.5L39.1,137.5z"/>
			</g>
		</g>
		<g>
			<g>
				<path class="st0" d="M52.4,126.3c6.3,1.2,12.5,3.1,18.4,5.7c2.4,1.1,5.3,2.1,7.2,4c1.1,1,1.4,2.1,1.9,3.4
					c0.3,0.8,0.7,1.4,1.7,1.4c0.3,0,1.5-0.5,0.9-0.5c-1.1-0.1-1.3-1.9-1.7-2.7c-0.4-1-1.2-1.9-2.1-2.5c-2.2-1.8-5.1-2.8-7.7-3.9
					c-5.6-2.4-11.5-4.1-17.5-5.3C53.2,125.8,52.1,126.2,52.4,126.3L52.4,126.3z"/>
			</g>
		</g>
		<g>
			<g>
				<path class="st0" d="M94.6,157.8c4.3-0.2,8.5-0.5,12.8-0.7c2.1-0.1,3.9-0.2,5.4,1.4c1,1,1.8,2.2,3.1,2.9c0.5,0.3,1.6-0.4,1-0.8
					c-1.4-0.8-2.2-2.2-3.4-3.3c-1.3-1.2-3-1.5-4.8-1.4c-4.7,0.2-9.3,0.5-14,0.7C94,156.9,93.8,157.9,94.6,157.8L94.6,157.8z"/>
			</g>
		</g>
		<g>
			<g>
				<path class="st0" d="M83,151.6c4.2,0,8.5,0,12.7,0c2.1,0,4.2-0.1,6.2,0c1.6,0.1,3.3,0.3,4.1,1.8c0.3,0.5,1.5,0,1.2-0.6
					c-0.7-1.3-2.1-1.9-3.6-2.1c-2-0.3-4-0.1-6-0.1c-4.9,0-9.7,0-14.6,0C82.4,150.6,82.1,151.6,83,151.6L83,151.6z"/>
			</g>
		</g>
		<g>
			<g>
				<path class="st0" d="M45.4,146.8c7.2-1.5,14.8,0.2,20.9,4.2c1.4,0.9,2.7,2,3.9,3.2c1.2,1.2,2.2,2.9,3.7,3.7
					c1.5,0.8,3.6,0.7,5.3,0.9c2.2,0.2,4.5,0.4,6.7,0.6c0.3,0,1.5-0.6,0.8-0.6c-2.4-0.2-4.8-0.4-7.2-0.6c-2.2-0.2-4.2-0.2-5.8-1.9
					c-2.5-2.7-4.9-5.1-8.1-6.9c-6-3.4-13.2-4.6-20-3.2C45,146.4,44.5,147,45.4,146.8L45.4,146.8z"/>
			</g>
		</g>
		<g>
			<g>
				<path class="st1" d="M42.2,138.7c5.8-0.4,11.7-0.1,17.5,0.8c1.3,0.2,2.7,0.5,4,0.7c1.3,0.3,2.7,0.5,3.9,1.1
					c1.7,0.9,2.4,2.8,4.6,2.4c0.8-0.2,0.6-0.9-0.2-0.7c-1,0.2-1.9-1.3-2.6-1.9c-0.8-0.6-1.8-0.9-2.8-1.1c-2.6-0.6-5.3-1.1-8-1.5
					c-5.4-0.7-10.8-0.9-16.3-0.6C41.7,137.9,41.3,138.7,42.2,138.7L42.2,138.7z"/>
			</g>
		</g>
		<g>
			<g>
				<path class="st0" d="M92.5,145.4c3.8,0.5,7.2,3.2,8.6,6.8c0.1,0.3,1.4,0,1.3-0.3c-1.4-3.8-5-6.5-9.1-7c-0.3,0-0.7,0.1-0.9,0.2
					C92.2,145.2,92.2,145.4,92.5,145.4L92.5,145.4z"/>
			</g>
		</g>
		<g>
			<g>
				<path class="st0" d="M87.8,160.6c7.2-0.4,14.4-0.2,21.5,0.6c0.5,0.1,1.4-0.7,0.5-0.8c-7.3-0.8-14.6-1-21.9-0.6
					C87.3,159.8,86.9,160.6,87.8,160.6L87.8,160.6z"/>
			</g>
		</g>
		<g>
			<g>
				<path class="st0" d="M92.5,161.1c4.9-1.2,9.9-2,14.9-2.3c2.4-0.1,4.9-0.2,7.3-0.1c1.1,0,2.8,0.4,3.5-0.8
					c0.1-0.3-1.1-0.2-1.3,0.2c-0.1,0.2-2.7-0.1-3-0.1c-1.1,0-2.2,0-3.3,0c-2,0-3.9,0.2-5.9,0.3c-4.2,0.4-8.3,1.1-12.4,2.1
					C91.6,160.8,91.7,161.3,92.5,161.1L92.5,161.1z"/>
			</g>
		</g>
		<g>
			<g>
				<path class="st0" d="M93.5,149.6c-1.1,5.7,3,10.7,7.2,13.9c1.5,1.1,3.5,0.8,5.1,0.4c2-0.5,4-1.5,6.1-1.8c0.2,0,0.7-0.2,0.7-0.5
					c0-0.3-0.3-0.4-0.6-0.4c-1.8,0.3-3.4,1-5.2,1.5c-1.6,0.5-3.7,1.2-5.2,0.1c-4-3.2-8-7.9-6.9-13.4
					C94.9,148.9,93.6,149.1,93.5,149.6L93.5,149.6z"/>
			</g>
		</g>
		<g>
			<g>
				<path class="st0" d="M99.9,152.5c2.7,2,5.7,3.4,8.9,4.4c2.8,0.9,6.1,1.2,8.2,3.4c0.3,0.3,1.5-0.1,1.2-0.5c-2-2.2-5-2.7-7.7-3.4
					c-3.4-0.9-6.7-2.5-9.5-4.6C100.6,151.6,99.4,152.2,99.9,152.5L99.9,152.5z"/>
			</g>
		</g>
		<g>
			<g>
				<path class="st2" d="M71.5,151c6.4-0.2,13.1-0.5,19.3,1.7c5.4,1.9,10.1,5.8,15.9,6.4c0.4,0,1.5-0.6,0.8-0.7
					c-6.1-0.7-10.9-4.9-16.6-6.7c-6.1-1.9-12.6-1.7-18.9-1.4C71.5,150.3,70.6,151,71.5,151L71.5,151z"/>
			</g>
		</g>
	</g>
	<g>
		<g>
			<path class="st1" d="M93.5,133.8c4.7,0.5,9.5,1,14.2,1.5c2.4,0.3,4.8,0.5,7.1,1.4c1.9,0.8,3.5,2,5.1,3.2
				c5.4,4.5,11.4,11.8,19.3,9.2c0.8-0.2,0.6-1.1-0.2-0.8c-4,1.3-8.1-0.7-11.3-3.1c-3.1-2.3-5.6-5.3-8.7-7.5c-3.4-2.4-7-3-11-3.4
				c-4.7-0.5-9.3-1-14-1.5C93.4,132.8,92.7,133.7,93.5,133.8L93.5,133.8z"/>
		</g>
	</g>
	<g>
		<g>
			<path class="st0" d="M99.5,141.2c7.5-1.7,15,0.9,21.9,3.9c6.9,3,13.8,6.4,20.6,9.5c0.3,0.2,1.3-0.4,1.2-0.4
				c-7.4-3.5-14.8-7.1-22.3-10.3c-6.7-2.8-13.9-4.8-21.1-3.2C99.3,140.9,98.6,141.4,99.5,141.2L99.5,141.2z"/>
		</g>
	</g>
	<g>
		<g>
			<path class="st0" d="M85.7,141.7c2.6-2.7,6.4-3.2,9.9-3.5c3.8-0.4,8-0.8,11,2c2.4,2.1,3.6,5.2,6.1,7.2c2.5,2.1,5.9,2.5,9,1.9
				c2-0.4,3.6-1.4,5.4-2.2c2.7-1.2,4.8,0.2,6.9,1.9c0.4,0.4,1.6-0.3,1-0.7c-1.4-1.2-3-2.4-4.9-2.6c-1.8-0.2-3.4,0.7-5,1.4
				c-3.8,1.9-8.6,2.2-11.8-1c-2.5-2.4-3.9-6-7-7.8c-3.3-1.9-7.4-1.4-11-1c-3.8,0.4-7.8,1.2-10.6,4C84.1,141.9,85.3,142.2,85.7,141.7
				L85.7,141.7z"/>
		</g>
	</g>
	<g>
		<g>
			<path class="st0" d="M103.3,131.7c-0.1,2.3-0.2,4.5-0.2,6.8c0,2-0.2,4.2,0.2,6.2c0.2,1.4,1.3,1.9,2.6,2c2,0.2,4.2,0.1,6.2-0.1
				c2-0.2,4.1-0.6,6-1.1c1-0.2,2-0.5,3-0.8c0.8-0.2,1.9-0.7,2.6,0.1c0.3,0.3,0.5,0.9,0.7,1.3c0.8,1.9,1.5,4,2.5,5.8
				c0.7,1.1,1.5,1.7,2.8,1.4c0.8-0.2,0.6-0.8-0.2-0.7c-1.3,0.3-2.6-3.9-2.9-4.7c-0.5-1.2-0.9-3.2-2.1-3.9c-1.1-0.7-2.5-0.2-3.7,0.1
				c-2,0.6-4,1.1-6.1,1.4c-2,0.3-4,0.5-6,0.5c-0.9,0-2,0.1-2.9-0.2c-1.1-0.3-1.4-1-1.5-2.1c-0.3-4.1-0.1-8.2,0.1-12.3
				C104.6,131,103.3,131.3,103.3,131.7L103.3,131.7z"/>
		</g>
	</g>
	<g>
		<g>
			<path class="st0" d="M80.8,137.6c3-4,8.2-0.3,11,1.8c3.2,2.3,6.7,4.3,10.3,5.9c1.9,0.8,3.8,1.6,5.8,2.2c1.4,0.5,3.1,1.2,4.6,0.7
				c1.3-0.3,1.9-1.3,2.5-2.4c0.9-1.8,2.2-3.1,4.3-3.3c4.5-0.6,8,3.1,10.5,6.3c0.2,0.3,1.5-0.1,1.2-0.5c-2.3-3-5.2-6-9.1-6.5
				c-3-0.3-6.3,0.7-7.8,3.4c-0.6,1.1-0.9,2.5-2.5,2.4c-1.2-0.1-2.5-0.7-3.6-1.1c-2.2-0.7-4.3-1.6-6.4-2.6c-2.2-1.1-4.4-2.3-6.5-3.7
				c-1.8-1.2-3.4-2.5-5.2-3.5c-3.1-1.8-7.8-2.4-10.2,0.9C79.3,138,80.6,137.9,80.8,137.6L80.8,137.6z"/>
		</g>
	</g>
	<g>
		<g>
			<path class="st0" d="M116.3,146.7c-0.6,3.7,1.2,8.1-1.2,11.4c-1.2,1.6-3.4,1.3-5,2.5c-1.1,0.8-1.4,2-0.6,3.1
				c1,1.3,2.8,2.3,4.2,3.1c1.7,1,3.4,1.9,5.1,2.8c3.5,1.8,7.1,3.5,10.2,6.1c0.3,0.3,1.5-0.2,1.2-0.5c-2.8-2.3-6-4-9.2-5.6
				c-3.3-1.7-7.1-3.3-9.7-5.8c-0.9-0.9-1.3-2.2,0-3c0.7-0.5,1.6-0.5,2.4-0.8c1.4-0.5,2.5-1.4,3.1-2.7c1.7-3.4,0.2-7.1,0.8-10.7
				C117.7,146.1,116.4,146.3,116.3,146.7L116.3,146.7z"/>
		</g>
	</g>
	<g>
		<g>
			<path class="st0" d="M95.7,138.6c8.4,2.6,16.9,5,25.1,8.1c8,3,14.9,7.6,21.7,12.7c0.4,0.3,1.6-0.2,1.2-0.5
				c-6.9-5.1-13.9-9.8-21.9-12.8c-8.3-3.1-16.9-5.5-25.4-8.1C96.1,137.8,95,138.4,95.7,138.6L95.7,138.6z"/>
		</g>
	</g>
	<g>
		<g>
			<path class="st0" d="M82.6,154.1c3.9,0.4,7.9-0.3,11.8,0c4.3,0.3,7.7,2.2,11,4.8c2.8,2.2,5.4,4.7,7.4,7.6
				c0.9,1.4,1.4,3.2,2.5,4.5c0.8,1.1,2.2,1.2,3.5,1.2c4.3-0.2,8.5-1.3,12.5-2.8c0.8-0.3,0.1-0.7-0.5-0.5c-2.5,0.9-5.1,1.7-7.7,2.1
				c-1.2,0.2-2.4,0.4-3.7,0.5c-1.5,0.1-2.6-0.2-3.3-1.6c-0.9-1.8-1.7-3.6-3-5.2c-1.3-1.7-2.9-3.3-4.6-4.7c-3.3-2.9-6.9-5.6-11.2-6.4
				c-4.7-0.8-9.4,0.2-14.2-0.2C82.6,153.3,81.8,154,82.6,154.1L82.6,154.1z"/>
		</g>
	</g>
	<g>
		<g>
			<path class="st0" d="M99.6,151.3c3.7,0.1,6.8,2.4,9.7,4.5c3,2.1,6,4.3,8.8,6.7c1.4,1.2,2.8,2.4,4.2,3.6c1.1,1,2.2,2.5,3.6,3
				c1.2,0.4,2.6-0.1,3.8-0.4c2-0.5,4-1,6-1.4c0.8-0.2,0.7-0.6-0.1-0.4c-1.8,0.4-3.7,0.9-5.5,1.3c-1.2,0.3-2.6,0.7-3.7,0.1
				c-0.6-0.4-1.2-1-1.7-1.5c-2.5-2.3-5.2-4.6-7.9-6.7c-2.7-2.1-5.4-4.1-8.2-6c-2.5-1.7-5.1-3.2-8.2-3.2
				C100.2,150.7,99,151.3,99.6,151.3L99.6,151.3z"/>
		</g>
	</g>
	<g>
		<g>
			<path class="st0" d="M84.8,159c8.3-0.7,17-1.4,25,1.5c4.1,1.6,7.4,4.4,11,6.8c3.3,2.2,7.1,3.8,11.2,2.9c0.8-0.2,0.6-0.9-0.2-0.8
				c-4.7,1-8.9-2-12.5-4.7c-3.3-2.4-6.6-4.6-10.6-5.7c-7.6-2.3-15.8-1.6-23.7-0.9C84.3,158.2,83.9,159,84.8,159L84.8,159z"/>
		</g>
	</g>
	<g>
		<g>
			<path class="st0" d="M118.4,173c7-0.9,13.4,3.4,20.3,3.7c7,0.3,12.7-4.5,19.5-5c0.7-0.1,1.1-0.8,0.2-0.8c-7,0.5-12.9,5.6-20,4.9
				c-6.8-0.6-12.9-4.5-19.9-3.6C118,172.3,117.5,173.1,118.4,173L118.4,173z"/>
		</g>
	</g>
	<g>
		<g>
			<path class="st0" d="M96.9,132.2c3.9,5.6,7.9,11.3,13.5,15.3c6.1,4.3,13.8,4.7,20,8.8c3.4,2.3,6.2,5.2,8.3,8.7
				c0.3,0.4,1.5,0,1.2-0.5c-3.6-5.9-9.2-10.1-15.7-12.3c-3.7-1.2-7.6-2.1-11-4.1c-3-1.8-5.6-4.2-7.9-6.8c-2.6-3-4.9-6.3-7.2-9.6
				C97.8,131.2,96.6,131.7,96.9,132.2L96.9,132.2z"/>
		</g>
	</g>
	<g>
		<g>
			<path class="st1" d="M70.3,151.6c5.9,5.5,14.4,6.4,21.5,9.8c7.2,3.4,13.4,8.5,20.2,12.6c3.7,2.2,7.6,4,11.8,5.1
				c0.3,0.1,1.4-0.4,1.1-0.5c-7.7-1.9-14.2-6.6-20.7-10.9c-3.3-2.2-6.6-4.4-10.1-6.1c-3.5-1.8-7.2-2.9-10.9-4.2
				c-4.2-1.4-8.4-3.1-11.6-6.2C71.3,150.9,70.1,151.4,70.3,151.6L70.3,151.6z"/>
		</g>
	</g>
	<g>
		<g>
			<path class="st1" d="M97.3,135.3c7.7-1,15.8,1.9,21.1,7.5c2.9,3.1,4.9,6.8,7.4,10.3c2.2,3.1,4.8,5.8,7.9,7.9
				c3.5,2.4,7.5,4.1,11.6,4.9c0.3,0.1,1.5-0.5,1.1-0.5c-8.3-1.7-15.2-6.6-19.9-13.5c-2.3-3.4-4.4-7-7.2-9.9
				c-2.6-2.7-5.9-4.7-9.4-5.9c-3.9-1.4-8.2-1.8-12.3-1.3C96.9,134.8,96.4,135.4,97.3,135.3L97.3,135.3z"/>
		</g>
	</g>
	<g>
		<g>
			<path class="st0" d="M109.1,137.6c2.3-0.2,4.7-0.5,7.1-0.1c2.4,0.4,4.3,1.5,6,3.3c1.4,1.5,2.6,2.9,4.4,3.8
				c1.7,0.8,3.9,1.5,4.5,3.4c0.1,0.4,1.4,0,1.3-0.3c-0.6-1.9-2.5-2.6-4.2-3.4c-1.1-0.5-2.1-1.1-2.9-1.9c-0.9-0.9-1.7-1.9-2.6-2.8
				c-3.6-3.4-8.8-3-13.3-2.5C108.8,137,108.2,137.7,109.1,137.6L109.1,137.6z"/>
		</g>
	</g>
	<g>
		<g>
			<path class="st0" d="M78.4,154.5c3.1,1.6,5,4.6,7.4,7.1c2.5,2.7,5.7,4.7,9,6.3c3.4,1.6,6.9,3.4,10.5,4.3c3.1,0.8,6.4,0.6,9.2-1.1
				c0.5-0.3-0.8-0.1-1,0c-3.7,2.2-8.3,0.4-11.9-1.2c-2.9-1.2-5.8-2.5-8.6-4.1c-2.8-1.6-5.2-3.7-7.2-6.1c-1.8-2.1-3.6-4.4-6.1-5.7
				C79.3,153.9,78.3,154.4,78.4,154.5L78.4,154.5z"/>
		</g>
	</g>
	<g>
		<g>
			<path class="st0" d="M96.2,128.2c0.2,1.8,2.8,2.9,4.2,3.6c2.7,1.4,5.5,2.5,8.3,3.7c1.2,0.6,2.4,1.1,3.6,1.9
				c0.7,0.4,1.6,1,1.9,1.8c0.2,0.6-0.1,1.4-0.1,2.1c-0.1,1.1-0.1,2.2,0.1,3.3c0.5,2.3,2.3,3.5,4.3,4.5c5.6,2.9,11.2,5.5,17,8
				c0.5,0.2,1.5-0.5,0.8-0.8c-5.1-2.2-10.2-4.6-15.2-7.1c-2.2-1.1-4.8-2.1-5.4-4.7c-0.3-1.2-0.2-2.5-0.1-3.7
				c0.1-0.6,0.2-1.2,0.1-1.8c-0.5-1.7-3-2.8-4.4-3.5c-2.6-1.3-5.3-2.3-8-3.6c-1.3-0.6-2.6-1.2-3.7-2c-0.7-0.5-1.7-1.1-1.8-2.1
				C97.4,127.3,96.1,127.6,96.2,128.2L96.2,128.2z"/>
		</g>
	</g>
	<g>
		<g>
			<path class="st1" d="M107,140.1c2.1,0,4.2,0,6.4,0c2,0,4.3-0.3,6.2,0.2c1.8,0.4,3.2,1.6,5,2.2c1.8,0.5,3.6,0.7,5.4,0.8
				c0.5,0,1.4-0.7,0.5-0.8c-2.1-0.2-4.2-0.4-6.2-1.2c-1.6-0.7-2.9-1.7-4.6-1.9c-1.9-0.3-3.9-0.1-5.8-0.1c-2.1,0-4.2,0-6.4,0
				C107,139.3,106.1,140.1,107,140.1L107,140.1z"/>
		</g>
	</g>
	<g>
		<g>
			<path class="st0" d="M117.8,170.6c4.6,1.7,9,4.2,12.7,7.4c0.4,0.3,1.6-0.2,1.2-0.5c-3.9-3.3-8.3-5.9-13.1-7.6
				C118.2,169.7,117.1,170.3,117.8,170.6L117.8,170.6z"/>
		</g>
	</g>
	<g>
		<g>
			<path class="st2" d="M117.3,164c4.2,2.2,8.5,4.2,13,5.7c3.6,1.3,8.8,1.9,10.9,5.6c0.2,0.4,1.4-0.1,1.3-0.3
				c-2-3.5-6.4-4.2-9.9-5.3c-4.9-1.6-9.6-3.7-14.1-6.1C118.1,163.4,117,163.9,117.3,164L117.3,164z"/>
		</g>
	</g>
	<g>
		<g>
			<path class="st0" d="M125.8,181.7c-6.2-8.1-13.6-15.1-22-20.9c-0.4-0.3-1.6,0.3-1,0.7c8.3,5.7,15.7,12.7,21.8,20.7
				C124.9,182.6,126.2,182.2,125.8,181.7L125.8,181.7z"/>
		</g>
	</g>
	<g>
		<g>
			<path class="st0" d="M78.8,159.2c12.2,1.6,24.9,3.4,35.2,10.5c0.3,0.2,1.4-0.3,1.2-0.4c-10.4-7.2-23.2-9-35.4-10.6
				C79.5,158.7,78.4,159.2,78.8,159.2L78.8,159.2z"/>
		</g>
	</g>
	<g>
		<g>
			<path class="st0" d="M83.2,132.8c6.3,1.2,12.5,3.1,18.4,5.7c2.4,1.1,5.3,2.1,7.2,4c1.1,1,1.4,2.1,1.9,3.4
				c0.3,0.8,0.7,1.4,1.7,1.4c0.3,0,1.5-0.5,0.9-0.5c-1.1-0.1-1.3-1.9-1.7-2.7c-0.4-1-1.2-1.9-2.1-2.5c-2.2-1.8-5.1-2.8-7.7-3.9
				c-5.6-2.4-11.5-4.1-17.5-5.3C84,132.3,82.9,132.7,83.2,132.8L83.2,132.8z"/>
		</g>
	</g>
	<g>
		<g>
			<path class="st0" d="M122.7,173.3c4.2,0,8.5,0,12.7,0c2.1,0,4.2-0.1,6.2,0c1.6,0.1,3.3,0.3,4.1,1.8c0.3,0.5,1.5,0,1.2-0.6
				c-0.7-1.3-2.1-1.9-3.6-2.1c-2-0.3-4-0.1-6-0.1c-4.9,0-9.7,0-14.6,0C122.1,172.4,121.8,173.3,122.7,173.3L122.7,173.3z"/>
		</g>
	</g>
	<g>
		<g>
			<path class="st0" d="M85.1,168.6c7.2-1.5,14.8,0.2,20.9,4.2c1.4,0.9,2.7,2,3.9,3.2c1.2,1.2,2.2,2.9,3.7,3.7
				c1.5,0.8,3.6,0.7,5.3,0.9c2.2,0.2,4.5,0.4,6.7,0.6c0.3,0,1.5-0.6,0.8-0.6c-2.4-0.2-4.8-0.4-7.2-0.6c-2.2-0.2-4.2-0.2-5.8-1.9
				c-2.5-2.7-4.9-5.1-8.1-6.9c-6-3.4-13.2-4.6-20-3.2C84.7,168.1,84.2,168.8,85.1,168.6L85.1,168.6z"/>
		</g>
	</g>
	<g>
		<g>
			<path class="st1" d="M103.1,153.1c5.8-0.4,11.7-0.1,17.5,0.8c1.3,0.2,2.7,0.5,4,0.7c1.3,0.3,2.7,0.5,3.9,1.1
				c1.7,0.9,2.4,2.8,4.6,2.4c0.8-0.2,0.6-0.9-0.2-0.7c-1,0.2-1.9-1.3-2.6-1.9c-0.8-0.6-1.8-0.9-2.8-1.1c-2.6-0.6-5.3-1.1-8-1.5
				c-5.4-0.7-10.8-0.9-16.3-0.6C102.6,152.3,102.2,153.1,103.1,153.1L103.1,153.1z"/>
		</g>
	</g>
	<g>
		<g>
			<path class="st0" d="M131.9,177.9c7.2-0.4,14.4-0.2,21.5,0.6c0.5,0.1,1.4-0.7,0.5-0.8c-7.3-0.8-14.6-1-21.9-0.6
				C131.4,177.1,131,178,131.9,177.9L131.9,177.9z"/>
		</g>
	</g>
	<g>
		<g>
			<path class="st0" d="M136.6,178.5c4.9-1.2,9.9-2,14.9-2.3c2.4-0.1,4.9-0.2,7.3-0.1c1.1,0,2.8,0.4,3.5-0.8
				c0.1-0.3-1.1-0.2-1.3,0.2c-0.1,0.2-2.7-0.1-3-0.1c-1.1,0-2.2,0-3.3,0c-2,0-3.9,0.2-5.9,0.3c-4.2,0.4-8.3,1.1-12.4,2.1
				C135.7,178.1,135.8,178.7,136.6,178.5L136.6,178.5z"/>
		</g>
	</g>
	<g>
		<g>
			<path class="st0" d="M137.6,166.9c-1.1,5.7,3,10.7,7.2,13.9c1.5,1.1,3.5,0.8,5.1,0.4c2-0.5,4-1.5,6.1-1.8c0.2,0,0.7-0.2,0.7-0.5
				c0-0.3-0.3-0.4-0.6-0.4c-1.8,0.3-3.4,1-5.2,1.5c-1.6,0.5-3.7,1.2-5.2,0.1c-4-3.2-8-7.9-6.9-13.4
				C139,166.2,137.7,166.4,137.6,166.9L137.6,166.9z"/>
		</g>
	</g>
	<g>
		<g>
			<path class="st2" d="M111.2,172.8c6.4-0.2,13.1-0.5,19.3,1.7c5.4,1.9,10.1,5.8,15.9,6.4c0.4,0,1.5-0.6,0.8-0.7
				c-6.1-0.7-10.9-4.9-16.6-6.7c-6.1-1.9-12.6-1.7-18.9-1.4C111.2,172.1,110.3,172.8,111.2,172.8L111.2,172.8z"/>
		</g>
	</g>
</g>
</svg>
