<?xml version="1.0" encoding="utf-8"?>
<!-- Generator: Adobe Illustrator 25.2.3, SVG Export Plug-In . SVG Version: 6.00 Build 0)  -->
<svg version="1.1" id="Layer_1" xmlns="http://www.w3.org/2000/svg" xmlns:xlink="http://www.w3.org/1999/xlink" x="0px" y="0px"
	 viewBox="0 0 261.6 250" style="enable-background:new 0 0 261.6 250;" xml:space="preserve">
<style type="text/css">
	.st0{fill:#DD335A;}
	.st1{fill:#D8432E;}
	.st2{fill:#EE7345;}
</style>
<g>
	<g>
		<g>
			<path class="st0" d="M90.2,138.9c11.7,3.1,23.6,5.8,35.1,9.4c2.5,0.8,5,1.9,7.1,3.6c1.7,1.6,3.1,3.5,4.5,5.3
				c1.3,1.8,2.8,3.7,4.7,5.2c1.6,1.2,4.4,2.5,3.9,4.8c-0.1,0.7,1.9,0.3,2-0.3c0.4-2-1.2-3.3-2.7-4.4c-1.9-1.5-3.5-2.8-4.8-4.7
				c-1.6-2-2.9-4-4.7-5.9c-1.7-1.7-3.9-2.9-6.3-3.9c-5.8-2.1-12-3.3-17.8-4.8c-6.4-1.7-12.7-3.5-19.1-5
				C91.3,137.8,89.6,138.6,90.2,138.9L90.2,138.9z"/>
		</g>
	</g>
	<g>
		<g>
			<g>
				<path class="st1" d="M78.5,138.8c7.3,0.8,14.8,1.6,22.2,2.4c3.7,0.4,7.5,0.8,11.1,2.1c2.9,1.2,5.5,3.1,8,5
					c8.4,7.1,17.8,18.4,30.2,14.4c1.2-0.3,0.9-1.7-0.3-1.2c-6.3,2-12.7-1.1-17.6-4.8c-4.8-3.6-8.7-8.3-13.6-11.7
					c-5.3-3.7-10.9-4.7-17.2-5.3c-7.3-0.8-14.5-1.6-21.9-2.4C78.3,137.2,77.1,138.6,78.5,138.8L78.5,138.8z"/>
			</g>
		</g>
		<g>
			<g>
				<path class="st0" d="M87.9,150.3c11.7-2.7,23.4,1.5,34.2,6.1c10.8,4.6,21.5,10,32.2,14.8c0.4,0.3,2-0.7,1.9-0.7
					c-11.6-5.5-23.1-11.1-34.8-16c-10.4-4.4-21.8-7.5-33-5C87.5,149.9,86.5,150.7,87.9,150.3L87.9,150.3z"/>
			</g>
		</g>
		<g>
			<g>
				<path class="st0" d="M66.3,151.1c4-4.3,10-5,15.5-5.5c5.9-0.7,12.5-1.2,17.2,3.1c3.7,3.3,5.6,8.1,9.5,11.2
					c3.9,3.3,9.2,3.9,14,2.9c3.1-0.7,5.6-2.1,8.4-3.5c4.3-1.9,7.5,0.3,10.8,2.9c0.7,0.7,2.5-0.4,1.6-1.1c-2.1-1.9-4.7-3.7-7.6-4
					c-2.8-0.3-5.3,1.1-7.9,2.1c-5.9,2.9-13.5,3.5-18.4-1.6c-3.9-3.7-6.1-9.4-10.9-12.2c-5.2-2.9-11.6-2.1-17.2-1.6
					c-5.9,0.7-12.2,1.9-16.6,6.3C63.8,151.5,65.8,151.7,66.3,151.1L66.3,151.1z"/>
			</g>
		</g>
		<g>
			<g>
				<path class="st0" d="M93.8,135.5c-0.1,3.6-0.3,7.1-0.3,10.7c0,3.1-0.3,6.5,0.3,9.6c0.3,2.1,2,2.9,4,3.1c3.1,0.3,6.5,0.1,9.6-0.1
					c3.1-0.3,6.4-0.9,9.4-1.7c1.6-0.3,3.1-0.8,4.7-1.2c1.2-0.3,2.9-1.1,4,0.1c0.4,0.4,0.8,1.5,1.1,2c1.2,2.9,2.4,6.3,3.9,9.1
					c1.1,1.7,2.4,2.7,4.4,2.1c1.2-0.3,0.9-1.2-0.3-1.1c-2,0.4-4-6.1-4.5-7.3c-0.8-1.9-1.5-5-3.3-6.1c-1.7-1.1-3.9-0.3-5.8,0.1
					c-3.1,0.9-6.3,1.7-9.5,2.1c-3.1,0.4-6.3,0.8-9.4,0.8c-1.5,0-3.1,0.1-4.5-0.3c-1.7-0.4-2.1-1.6-2.4-3.3
					c-0.4-6.4-0.1-12.8,0.1-19.2C95.8,134.4,93.8,134.9,93.8,135.5L93.8,135.5z"/>
			</g>
		</g>
		<g>
			<g>
				<path class="st0" d="M58.7,144.7c4.7-6.3,12.8-0.4,17.2,2.8c5,3.6,10.4,6.7,16,9.2c2.9,1.2,5.9,2.5,9.1,3.5
					c2.1,0.8,4.8,1.9,7.2,1.1c2-0.4,2.9-2,3.9-3.7c1.5-2.8,3.5-4.8,6.7-5.2c7.1-0.9,12.5,4.8,16.4,9.9c0.3,0.4,2.4-0.1,1.9-0.8
					c-3.6-4.7-8.1-9.4-14.2-10.1c-4.7-0.4-9.9,1.1-12.2,5.3c-0.9,1.7-1.5,3.9-3.9,3.7c-1.9-0.1-3.9-1.1-5.6-1.7
					c-3.5-1.1-6.7-2.5-10-4c-3.5-1.7-6.8-3.6-10.1-5.8c-2.8-1.9-5.3-3.9-8.1-5.5c-4.8-2.8-12.2-3.7-15.9,1.5
					C56.3,145.3,58.2,145.2,58.7,144.7L58.7,144.7z"/>
			</g>
		</g>
		<g>
			<g>
				<path class="st0" d="M100.2,135c-0.9,5.8,1.9,12.7-1.9,17.8c-1.9,2.5-5.3,2-7.9,3.9c-1.7,1.2-2.1,3.1-0.9,4.8
					c1.6,2,4.4,3.6,6.5,4.8c2.7,1.6,5.3,2.9,8,4.4c5.5,2.8,11.1,5.5,15.9,9.5c0.4,0.4,2.4-0.3,1.9-0.8c-4.4-3.6-9.4-6.3-14.4-8.7
					c-5.2-2.7-11.1-5.2-15.1-9.1c-1.5-1.5-2-3.5,0-4.7c1.1-0.8,2.5-0.8,3.7-1.2c2.1-0.8,3.9-2.1,4.8-4.3c2.7-5.3,0.3-11.1,1.2-16.7
					C102.4,134.1,100.4,134.4,100.2,135L100.2,135z"/>
			</g>
		</g>
		<g>
			<g>
				<path class="st0" d="M81.9,146.3c13.1,4,26.4,7.9,39.2,12.7c12.5,4.7,23.2,11.9,33.9,19.9c0.7,0.4,2.5-0.3,1.9-0.8
					c-10.8-8-21.8-15.3-34.2-20c-13-4.8-26.4-8.6-39.7-12.7C82.6,144.9,80.9,146,81.9,146.3L81.9,146.3z"/>
			</g>
		</g>
		<g>
			<g>
				<path class="st0" d="M107.8,168.1c10,1.5,20.2-1.6,30.2,0.3c4.8,0.9,8.6,3.3,12.3,6.1c3.7,2.8,7.5,4.8,12.2,5.3
					c0.4,0,1.1,0,1.5-0.3c0.1,0,0.8-0.4,0.3-0.4c-5.2-0.4-9.1-2.9-13-5.9c-3.5-2.7-7.2-4.7-11.6-5.5c-10-1.9-20.2,1.1-30.2-0.3
					C109.2,167.4,107.4,168.1,107.8,168.1L107.8,168.1z"/>
			</g>
		</g>
		<g>
			<g>
				<path class="st0" d="M47.6,146.5c6.1,0.7,12.3-0.4,18.4,0c6.7,0.4,12,3.5,17.2,7.5c4.4,3.5,8.4,7.3,11.6,11.9
					c1.5,2.1,2.1,5,3.9,7.1c1.2,1.7,3.5,1.9,5.5,1.9c6.7-0.3,13.2-2,19.5-4.4c1.2-0.4,0.1-1.1-0.8-0.8c-3.9,1.5-8,2.7-12,3.3
					c-1.9,0.3-3.7,0.7-5.8,0.8c-2.4,0.1-4-0.3-5.2-2.5c-1.5-2.8-2.7-5.6-4.7-8.1c-2-2.7-4.5-5.2-7.2-7.3c-5.2-4.5-10.8-8.7-17.5-10
					c-7.3-1.2-14.7,0.3-22.2-0.3C47.7,145.5,46.3,146.4,47.6,146.5L47.6,146.5z"/>
			</g>
		</g>
		<g>
			<g>
				<path class="st0" d="M74.2,142.1c5.8,0.1,10.7,3.7,15.1,7.1c4.7,3.3,9.4,6.7,13.8,10.4c2.1,1.9,4.4,3.7,6.5,5.6
					c1.7,1.6,3.5,3.9,5.6,4.7c1.9,0.7,4-0.1,5.9-0.7c3.1-0.8,6.3-1.6,9.4-2.1c1.2-0.3,1.1-0.9-0.1-0.7c-2.8,0.7-5.8,1.5-8.6,2
					c-1.9,0.4-4,1.1-5.8,0.1c-0.9-0.7-1.9-1.6-2.7-2.4c-3.9-3.6-8.1-7.2-12.3-10.4c-4.3-3.3-8.4-6.4-12.8-9.4c-3.9-2.7-8-5-12.8-5
					C75.1,141.4,73.2,142.1,74.2,142.1L74.2,142.1z"/>
			</g>
		</g>
		<g>
			<g>
				<path class="st0" d="M51.1,154.3c13-1.1,26.6-2.1,39,2.4c6.4,2.5,11.6,6.8,17.2,10.7c5.2,3.5,11.1,5.9,17.5,4.5
					c1.2-0.3,0.9-1.5-0.3-1.2c-7.3,1.6-13.9-3.1-19.5-7.3c-5.2-3.7-10.3-7.2-16.6-8.9c-11.9-3.6-24.7-2.5-37-1.5
					C50.3,152.9,49.6,154.4,51.1,154.3L51.1,154.3z"/>
			</g>
		</g>
		<g>
			<g>
				<path class="st0" d="M103.7,176c10.9-1.5,21,5.3,31.7,5.8c10.9,0.4,19.9-7.1,30.4-7.9c1.1-0.1,1.7-1.2,0.3-1.2
					c-10.9,0.8-20.2,8.7-31.2,7.6c-10.7-0.9-20.2-7.1-31.1-5.6C102.9,175,102.2,176.2,103.7,176L103.7,176z"/>
			</g>
		</g>
		<g>
			<g>
				<path class="st0" d="M83.8,136.2c6.1,8.7,12.3,17.6,21.1,23.9c9.5,6.7,21.5,7.3,31.2,13.8c5.3,3.6,9.6,8.1,13,13.6
					c0.4,0.7,2.4,0,1.9-0.8c-5.6-9.2-14.4-15.8-24.6-19.2c-5.8-1.9-11.9-3.3-17.2-6.4c-4.7-2.8-8.7-6.5-12.3-10.7
					c-4-4.7-7.6-9.9-11.2-15C85.3,134.7,83.1,135.5,83.8,136.2L83.8,136.2z"/>
			</g>
		</g>
		<g>
			<g>
				<path class="st1" d="M28.4,142.7c9.2,8.6,22.3,10,33.4,15.3c11.4,5.3,21.1,13.5,31.7,19.6c5.8,3.5,11.9,6.3,18.6,8
					c0.7,0.1,2.4-0.8,1.2-0.9c-12-2.9-22.2-10.3-32.3-17.2c-5-3.3-10-6.7-15.3-9.4c-5.5-2.8-11.2-4.5-17.1-6.5
					c-6.5-2.1-13.1-4.8-18.4-9.6C29.7,141.6,28,142.4,28.4,142.7L28.4,142.7z"/>
			</g>
		</g>
		<g>
			<g>
				<path class="st1" d="M84.3,141.1c12-1.6,24.7,2.9,33,11.7c4.5,4.8,7.6,10.7,11.6,16c3.5,4.8,7.5,9.1,12.3,12.3
					c5.5,3.7,11.7,6.4,18.1,7.6c0.4,0.1,2.4-0.8,1.7-0.8c-13-2.7-23.8-10.3-31.1-21.1c-3.6-5.3-6.8-10.9-11.2-15.5
					c-4-4.3-9.2-7.3-14.7-9.2c-6.1-2.1-12.8-2.8-19.2-2C83.8,140.4,82.9,141.2,84.3,141.1L84.3,141.1z"/>
			</g>
		</g>
		<g>
			<g>
				<path class="st0" d="M39.7,144.7c3.6-0.3,7.3-0.8,11.1-0.1c3.7,0.7,6.7,2.4,9.4,5.2c2.1,2.4,4,4.5,6.8,5.9
					c2.7,1.2,6.1,2.4,7.1,5.3c0.1,0.7,2.1,0,2-0.4c-0.9-2.9-3.9-4-6.5-5.3c-1.7-0.8-3.3-1.7-4.5-2.9c-1.5-1.5-2.7-2.9-4-4.4
					c-5.6-5.3-13.8-4.7-20.8-3.9C39.3,143.7,38.4,144.7,39.7,144.7L39.7,144.7z"/>
			</g>
		</g>
		<g>
			<g>
				<path class="st0" d="M41.1,147.2c4.8,2.5,7.9,7.2,11.6,11.1c3.9,4.3,8.9,7.3,14,9.9c5.3,2.5,10.8,5.3,16.4,6.7
					c4.8,1.2,10,0.9,14.4-1.7c0.8-0.4-1.2-0.1-1.6,0c-5.8,3.5-13,0.7-18.6-1.9c-4.5-1.9-9.1-3.9-13.5-6.4c-4.4-2.5-8.1-5.8-11.2-9.5
					c-2.8-3.3-5.6-6.8-9.5-8.9C42.4,146.3,40.9,147.2,41.1,147.2L41.1,147.2z"/>
			</g>
		</g>
		<g>
			<g>
				<path class="st0" d="M82.6,130c0.3,2.8,4.4,4.5,6.5,5.6c4.3,2.1,8.6,3.9,13,5.8c1.9,0.9,3.7,1.7,5.6,2.9
					c1.1,0.7,2.5,1.6,2.9,2.8c0.3,0.9-0.1,2.1-0.1,3.3c-0.1,1.7-0.1,3.5,0.1,5.2c0.8,3.6,3.6,5.5,6.7,7.1
					c8.7,4.5,17.5,8.6,26.6,12.5c0.8,0.3,2.4-0.8,1.2-1.2c-8-3.5-15.9-7.2-23.8-11.1c-3.5-1.7-7.5-3.3-8.4-7.3
					c-0.4-1.9-0.3-3.9-0.1-5.8c0.1-0.9,0.3-1.9,0.1-2.8c-0.8-2.7-4.7-4.4-6.8-5.5c-4-2-8.3-3.6-12.5-5.6c-2-0.9-4-1.9-5.8-3.1
					c-1.1-0.8-2.7-1.7-2.8-3.3C84.6,128.6,82.6,129,82.6,130L82.6,130z"/>
			</g>
		</g>
		<g>
			<g>
				<path class="st1" d="M36.5,148.5c3.3,0,6.5,0,10,0c3.1,0,6.7-0.4,9.6,0.3c2.8,0.7,5,2.5,7.9,3.5c2.8,0.8,5.6,1.1,8.4,1.2
					c0.8,0,2.1-1.1,0.8-1.2c-3.3-0.3-6.5-0.7-9.6-1.9c-2.5-1.1-4.5-2.7-7.2-2.9c-2.9-0.4-6.1-0.1-9.1-0.1c-3.3,0-6.5,0-10,0
					C36.5,147.3,35.1,148.5,36.5,148.5L36.5,148.5z"/>
			</g>
		</g>
		<g>
			<g>
				<path class="st0" d="M102.5,172.3c7.2,2.7,14,6.5,19.9,11.6c0.7,0.4,2.5-0.3,1.9-0.8c-6.1-5.2-13-9.2-20.4-11.9
					C103.2,171,101.4,171.9,102.5,172.3L102.5,172.3z"/>
			</g>
		</g>
		<g>
			<g>
				<path class="st2" d="M101.8,162.2c6.5,3.5,13.2,6.5,20.3,8.9c5.6,2,13.8,2.9,17.1,8.7c0.3,0.7,2.1-0.1,2-0.4
					c-3.1-5.5-10-6.5-15.5-8.3c-7.6-2.5-15-5.8-22-9.5C103,161.1,101.3,161.9,101.8,162.2L101.8,162.2z"/>
			</g>
		</g>
		<g>
			<g>
				<path class="st0" d="M115,189.8c-9.6-12.7-21.2-23.6-34.3-32.6c-0.7-0.4-2.5,0.4-1.6,1.1c13,8.9,24.6,19.9,34,32.3
					C113.7,191.3,115.7,190.5,115,189.8L115,189.8z"/>
			</g>
		</g>
		<g>
			<g>
				<path class="st0" d="M41.6,154.7c19.1,2.5,38.9,5.3,55,16.4c0.4,0.3,2.1-0.4,1.9-0.7c-16.3-11.2-36.2-14-55.3-16.6
					C42.8,153.7,41.1,154.5,41.6,154.7L41.6,154.7z"/>
			</g>
		</g>
		<g>
			<g>
				<path class="st0" d="M62.4,137.2c9.9,1.9,19.5,4.8,28.7,8.9c3.7,1.7,8.3,3.3,11.2,6.3c1.7,1.6,2.1,3.3,2.9,5.3
					c0.4,1.2,1.1,2.1,2.7,2.1c0.4,0,2.4-0.8,1.5-0.8c-1.7-0.1-2-2.9-2.7-4.3c-0.7-1.6-1.9-2.9-3.3-3.9c-3.5-2.8-8-4.4-12-6.1
					c-8.7-3.7-17.9-6.4-27.4-8.3C63.6,136.4,61.9,137,62.4,137.2L62.4,137.2z"/>
			</g>
		</g>
		<g>
			<g>
				<path class="st0" d="M128.3,186.3c6.7-0.3,13.2-0.8,20-1.1c3.3-0.1,6.1-0.3,8.4,2.1c1.6,1.6,2.8,3.5,4.8,4.5
					c0.8,0.4,2.5-0.7,1.6-1.2c-2.1-1.2-3.5-3.5-5.3-5.2c-2-1.9-4.7-2.4-7.5-2.1c-7.3,0.3-14.5,0.8-21.9,1.1
					C127.3,185,127.1,186.6,128.3,186.3L128.3,186.3z"/>
			</g>
		</g>
		<g>
			<g>
				<path class="st0" d="M110.2,176.7c6.5,0,13.2,0,19.9,0c3.3,0,6.5-0.1,9.6,0c2.5,0.1,5.2,0.4,6.4,2.8c0.4,0.8,2.4,0,1.9-0.9
					c-1.1-2-3.3-2.9-5.6-3.3c-3.1-0.4-6.3-0.1-9.4-0.1c-7.6,0-15.1,0-22.8,0C109.3,175.1,108.8,176.7,110.2,176.7L110.2,176.7z"/>
			</g>
		</g>
		<g>
			<g>
				<path class="st0" d="M51.5,169.2c11.2-2.4,23.1,0.3,32.6,6.5c2.1,1.5,4.3,3.1,6.1,5c1.9,1.9,3.5,4.5,5.8,5.8
					c2.4,1.2,5.6,1.1,8.3,1.5c3.5,0.3,7.1,0.7,10.4,0.9c0.4,0,2.4-0.9,1.2-0.9c-3.7-0.3-7.5-0.7-11.2-0.9c-3.5-0.3-6.5-0.3-9.1-2.9
					c-3.9-4.3-7.6-8-12.7-10.8c-9.4-5.3-20.6-7.2-31.2-5C50.8,168.6,50,169.5,51.5,169.2L51.5,169.2z"/>
			</g>
		</g>
		<g>
			<g>
				<path class="st1" d="M46.5,156.5c9.1-0.7,18.3-0.1,27.4,1.2c2,0.3,4.3,0.8,6.3,1.1c2,0.4,4.3,0.8,6.1,1.7
					c2.7,1.5,3.7,4.4,7.2,3.7c1.2-0.3,0.9-1.5-0.3-1.1c-1.6,0.3-2.9-2-4-2.9c-1.2-0.9-2.8-1.5-4.4-1.7c-4-0.9-8.3-1.7-12.5-2.4
					c-8.4-1.1-16.8-1.5-25.5-0.9C45.7,155.3,45.1,156.5,46.5,156.5L46.5,156.5z"/>
			</g>
		</g>
		<g>
			<g>
				<path class="st0" d="M125.1,167c5.9,0.8,11.2,5,13.5,10.7c0.1,0.4,2.1,0,2-0.4c-2.1-5.9-7.9-10.1-14.2-10.9
					c-0.4,0-1.1,0.1-1.5,0.3C124.5,166.7,124.5,167,125.1,167L125.1,167z"/>
			</g>
		</g>
		<g>
			<g>
				<path class="st0" d="M117.7,190.7c11.2-0.7,22.4-0.3,33.5,0.9c0.8,0.1,2.1-1.1,0.8-1.2c-11.4-1.2-22.8-1.6-34.2-0.9
					C116.9,189.5,116.3,190.7,117.7,190.7L117.7,190.7z"/>
			</g>
		</g>
		<g>
			<g>
				<path class="st0" d="M125.1,191.5c7.6-1.9,15.5-3.1,23.2-3.6c3.7-0.1,7.6-0.3,11.4-0.1c1.7,0,4.4,0.7,5.5-1.2
					c0.1-0.4-1.7-0.3-2,0.3c-0.1,0.3-4.3-0.1-4.7-0.1c-1.7,0-3.5,0-5.2,0c-3.1,0-6.1,0.3-9.2,0.4c-6.5,0.7-13,1.7-19.4,3.3
					C123.6,191.1,123.8,191.8,125.1,191.5L125.1,191.5z"/>
			</g>
		</g>
		<g>
			<g>
				<path class="st0" d="M126.6,173.6c-1.7,8.9,4.7,16.7,11.2,21.8c2.4,1.7,5.5,1.2,8,0.7c3.1-0.8,6.3-2.4,9.5-2.8
					c0.3,0,1.1-0.3,1.1-0.8c0-0.4-0.4-0.7-0.9-0.7c-2.8,0.4-5.3,1.6-8.1,2.4c-2.5,0.8-5.8,1.9-8.1,0.1c-6.3-5-12.5-12.3-10.8-21
					C128.8,172.4,126.8,172.8,126.6,173.6L126.6,173.6z"/>
			</g>
		</g>
		<g>
			<g>
				<path class="st0" d="M136.7,178.2c4.3,3.1,8.9,5.3,13.9,6.8c4.4,1.5,9.5,1.9,12.8,5.3c0.4,0.4,2.4-0.1,1.9-0.8
					c-3.1-3.5-7.9-4.3-12-5.3c-5.3-1.5-10.4-3.9-14.8-7.2C137.7,176.7,135.9,177.6,136.7,178.2L136.7,178.2z"/>
			</g>
		</g>
		<g>
			<g>
				<path class="st2" d="M92.2,175.8c10-0.3,20.4-0.8,30.2,2.7c8.4,2.9,15.8,9.1,24.8,10c0.7,0,2.4-0.9,1.2-1.1
					c-9.5-1.1-17.1-7.6-25.9-10.4c-9.5-2.9-19.6-2.7-29.5-2.1C92.2,174.7,90.9,175.8,92.2,175.8L92.2,175.8z"/>
			</g>
		</g>
	</g>
	<g>
		<g>
			<path class="st1" d="M126.6,148.9c7.3,0.8,14.8,1.6,22.2,2.4c3.7,0.4,7.5,0.8,11.1,2.1c2.9,1.2,5.5,3.1,8,5
				c8.4,7.1,17.8,18.4,30.2,14.4c1.2-0.3,0.9-1.7-0.3-1.2c-6.3,2-12.7-1.1-17.6-4.8c-4.8-3.6-8.7-8.3-13.6-11.7
				c-5.3-3.7-10.9-4.7-17.2-5.3c-7.3-0.8-14.5-1.6-21.9-2.4C126.4,147.3,125.3,148.8,126.6,148.9L126.6,148.9z"/>
		</g>
	</g>
	<g>
		<g>
			<path class="st0" d="M136,160.4c11.7-2.7,23.4,1.5,34.2,6.1c10.8,4.7,21.5,10,32.2,14.8c0.4,0.3,2-0.7,1.9-0.7
				c-11.6-5.5-23.1-11.1-34.8-16c-10.4-4.4-21.8-7.5-33-5C135.6,160,134.5,160.8,136,160.4L136,160.4z"/>
		</g>
	</g>
	<g>
		<g>
			<path class="st0" d="M114.4,161.2c4-4.3,10-5,15.5-5.5c5.9-0.7,12.5-1.2,17.2,3.1c3.7,3.3,5.6,8.1,9.5,11.2
				c3.9,3.3,9.2,3.9,14,2.9c3.1-0.7,5.6-2.1,8.4-3.5c4.3-1.9,7.5,0.3,10.8,2.9c0.7,0.7,2.5-0.4,1.6-1.1c-2.1-1.9-4.7-3.7-7.6-4
				c-2.8-0.3-5.3,1.1-7.9,2.1c-5.9,2.9-13.5,3.5-18.4-1.6c-3.9-3.7-6.1-9.4-10.9-12.2c-5.2-2.9-11.6-2.1-17.2-1.6
				c-5.9,0.7-12.2,1.9-16.6,6.3C112,161.6,113.8,162,114.4,161.2L114.4,161.2z"/>
		</g>
	</g>
	<g>
		<g>
			<path class="st0" d="M141.9,145.6c-0.1,3.6-0.3,7.1-0.3,10.7c0,3.1-0.3,6.5,0.3,9.6c0.3,2.1,2,2.9,4,3.1c3.1,0.3,6.5,0.1,9.6-0.1
				c3.1-0.3,6.4-0.9,9.4-1.7c1.6-0.3,3.1-0.8,4.7-1.2c1.2-0.3,2.9-1.1,4,0.1c0.4,0.4,0.8,1.5,1.1,2c1.2,2.9,2.4,6.3,3.9,9.1
				c1.1,1.7,2.4,2.7,4.4,2.1c1.2-0.3,0.9-1.2-0.3-1.1c-2,0.4-4-6.1-4.5-7.3c-0.8-1.9-1.5-5-3.3-6.1c-1.7-1.1-3.9-0.3-5.8,0.1
				c-3.1,0.9-6.3,1.7-9.5,2.1c-3.1,0.4-6.3,0.8-9.4,0.8c-1.5,0-3.1,0.1-4.5-0.3c-1.7-0.4-2.1-1.6-2.4-3.3
				c-0.4-6.4-0.1-12.8,0.1-19.2C143.9,144.5,141.9,144.9,141.9,145.6L141.9,145.6z"/>
		</g>
	</g>
	<g>
		<g>
			<path class="st0" d="M106.8,154.8c4.7-6.3,12.8-0.4,17.2,2.8c5,3.6,10.4,6.7,16,9.2c2.9,1.2,5.9,2.5,9.1,3.5
				c2.1,0.8,4.8,1.9,7.2,1.1c2-0.4,2.9-2,3.9-3.7c1.5-2.8,3.5-4.8,6.7-5.2c7.1-0.9,12.5,4.8,16.4,9.9c0.3,0.4,2.4-0.1,1.9-0.8
				c-3.6-4.7-8.1-9.4-14.2-10.1c-4.7-0.4-9.9,1.1-12.2,5.3c-0.9,1.7-1.5,3.9-3.9,3.7c-1.9-0.1-3.9-1.1-5.6-1.7
				c-3.5-1.1-6.7-2.5-10-4c-3.5-1.7-6.8-3.6-10.1-5.8c-2.8-1.9-5.3-3.9-8.1-5.5c-4.8-2.8-12.2-3.7-15.9,1.5
				C104.5,155.5,106.5,155.3,106.8,154.8L106.8,154.8z"/>
		</g>
	</g>
	<g>
		<g>
			<path class="st0" d="M162.2,169.1c-0.9,5.8,1.9,12.7-1.9,17.8c-1.9,2.5-5.3,2-7.9,3.9c-1.7,1.2-2.1,3.1-0.9,4.8
				c1.6,2,4.4,3.6,6.5,4.8c2.7,1.6,5.3,2.9,8,4.4c5.5,2.8,11.1,5.5,15.9,9.5c0.4,0.4,2.4-0.3,1.9-0.8c-4.4-3.6-9.4-6.3-14.4-8.7
				c-5.2-2.7-11.1-5.2-15.1-9.1c-1.5-1.5-2-3.5,0-4.7c1.1-0.8,2.5-0.8,3.7-1.2c2.1-0.8,3.9-2.1,4.8-4.3c2.7-5.3,0.3-11.1,1.2-16.7
				C164.4,168.1,162.3,168.4,162.2,169.1L162.2,169.1z"/>
		</g>
	</g>
	<g>
		<g>
			<path class="st0" d="M130,156.4c13.1,4,26.4,7.9,39.2,12.7c12.5,4.7,23.2,11.9,33.9,19.9c0.7,0.4,2.5-0.3,1.9-0.8
				c-10.8-8-21.8-15.3-34.2-20c-13-4.8-26.4-8.6-39.7-12.7C130.7,155.2,128.9,156.1,130,156.4L130,156.4z"/>
		</g>
	</g>
	<g>
		<g>
			<path class="st0" d="M109.6,180.6c6.1,0.7,12.3-0.4,18.4,0c6.7,0.4,12,3.5,17.2,7.5c4.4,3.5,8.4,7.3,11.6,11.9
				c1.5,2.1,2.1,5,3.9,7.1c1.2,1.7,3.5,1.9,5.5,1.9c6.7-0.3,13.2-2,19.5-4.4c1.2-0.4,0.1-1.1-0.8-0.8c-3.9,1.5-8,2.7-12,3.3
				c-1.9,0.3-3.7,0.7-5.8,0.8c-2.4,0.1-4-0.3-5.2-2.5c-1.5-2.8-2.7-5.6-4.7-8.1c-2-2.7-4.5-5.2-7.2-7.3c-5.2-4.5-10.8-8.7-17.5-10
				c-7.3-1.2-14.7,0.3-22.2-0.3C109.6,179.4,108.4,180.4,109.6,180.6L109.6,180.6z"/>
		</g>
	</g>
	<g>
		<g>
			<path class="st0" d="M136.1,176.2c5.8,0.1,10.7,3.7,15.1,7.1c4.7,3.3,9.4,6.7,13.8,10.4c2.1,1.9,4.4,3.7,6.5,5.6
				c1.7,1.6,3.5,3.9,5.6,4.7c1.9,0.7,4-0.1,5.9-0.7c3.1-0.8,6.3-1.6,9.4-2.1c1.2-0.3,1.1-0.9-0.1-0.7c-2.8,0.7-5.8,1.5-8.6,2
				c-1.9,0.4-4,1.1-5.8,0.1c-0.9-0.7-1.9-1.6-2.7-2.4c-3.9-3.6-8.1-7.2-12.3-10.4c-4.3-3.3-8.4-6.4-12.8-9.4c-3.9-2.7-8-5-12.8-5
				C137.1,175.4,135.2,176.2,136.1,176.2L136.1,176.2z"/>
		</g>
	</g>
	<g>
		<g>
			<path class="st0" d="M113,188.3c13-1.1,26.6-2.1,39,2.4c6.4,2.5,11.6,6.8,17.2,10.7c5.2,3.5,11.1,5.9,17.5,4.5
				c1.2-0.3,0.9-1.5-0.3-1.2c-7.3,1.6-13.9-3.1-19.5-7.3c-5.2-3.7-10.3-7.2-16.6-8.9c-11.9-3.6-24.7-2.5-37-1.5
				C112.2,187,111.6,188.3,113,188.3L113,188.3z"/>
		</g>
	</g>
	<g>
		<g>
			<path class="st0" d="M165.5,210.1c10.9-1.5,21,5.3,31.7,5.8c10.9,0.4,19.9-7.1,30.4-7.9c1.1-0.1,1.7-1.2,0.3-1.2
				c-10.9,0.8-20.2,8.7-31.2,7.6c-10.7-0.9-20.2-7.1-31.1-5.6C164.9,209,164.1,210.2,165.5,210.1L165.5,210.1z"/>
		</g>
	</g>
	<g>
		<g>
			<path class="st0" d="M131.9,146.4c6.1,8.7,12.3,17.6,21.1,23.9c9.5,6.7,21.5,7.3,31.2,13.8c5.3,3.6,9.6,8.1,13,13.6
				c0.4,0.7,2.4,0,1.9-0.8c-5.6-9.2-14.4-15.8-24.6-19.2c-5.8-1.9-11.9-3.3-17.2-6.4c-4.7-2.8-8.7-6.5-12.3-10.7
				c-4-4.7-7.6-9.9-11.2-15C133.3,144.8,131.5,145.6,131.9,146.4L131.9,146.4z"/>
		</g>
	</g>
	<g>
		<g>
			<path class="st1" d="M90.3,176.7c9.2,8.6,22.4,10,33.5,15.3c11.2,5.3,21,13.2,31.5,19.6c5.8,3.5,11.9,6.3,18.4,8
				c0.4,0.1,2.1-0.7,1.7-0.8c-12-2.9-22.2-10.3-32.3-17.1c-5.2-3.5-10.3-6.8-15.8-9.5c-5.5-2.8-11.2-4.5-17.1-6.5
				c-6.5-2.1-13.1-4.8-18.1-9.6C91.9,175.6,90.1,176.4,90.3,176.7L90.3,176.7z"/>
		</g>
	</g>
	<g>
		<g>
			<path class="st1" d="M132.5,151.2c12-1.6,24.7,2.9,33,11.7c4.5,4.8,7.6,10.7,11.6,16c3.5,4.8,7.5,9.1,12.3,12.3
				c5.5,3.7,11.7,6.4,18.1,7.6c0.4,0.1,2.4-0.8,1.7-0.8c-13-2.7-23.8-10.3-31.1-21.1c-3.6-5.3-6.8-10.9-11.2-15.5
				c-4-4.3-9.2-7.3-14.7-9.2c-6.1-2.1-12.8-2.8-19.2-2C131.9,150.4,131.2,151.5,132.5,151.2L132.5,151.2z"/>
		</g>
	</g>
	<g>
		<g>
			<path class="st0" d="M151,154.8c3.6-0.3,7.3-0.8,11.1-0.1c3.8,0.7,6.7,2.4,9.4,5.2c2.1,2.4,4,4.5,6.8,5.9
				c2.7,1.2,6.1,2.4,7.1,5.3c0.1,0.7,2.1,0,2-0.4c-0.9-2.9-3.9-4-6.5-5.3c-1.7-0.8-3.3-1.7-4.5-2.9c-1.5-1.5-2.7-2.9-4-4.4
				c-5.6-5.3-13.8-4.7-20.8-3.9C150.4,153.9,149.6,155,151,154.8L151,154.8z"/>
		</g>
	</g>
	<g>
		<g>
			<path class="st0" d="M103,181.2c4.8,2.5,7.9,7.2,11.6,11.1c3.9,4.3,8.9,7.3,14,9.9c5.3,2.5,10.8,5.3,16.4,6.7
				c4.8,1.2,10,0.9,14.4-1.7c0.8-0.4-1.2-0.1-1.6,0c-5.8,3.5-13,0.7-18.6-1.9c-4.5-1.9-9.1-3.9-13.5-6.4c-4.4-2.5-8.1-5.8-11.2-9.5
				c-2.8-3.3-5.6-6.8-9.5-8.9C104.5,180.3,102.9,181.1,103,181.2L103,181.2z"/>
		</g>
	</g>
	<g>
		<g>
			<path class="st0" d="M130.8,140.1c0.3,2.8,4.4,4.5,6.5,5.6c4.3,2.1,8.6,3.9,13,5.8c1.9,0.9,3.7,1.7,5.6,2.9
				c1.1,0.7,2.5,1.6,2.9,2.8c0.3,0.9-0.1,2.1-0.1,3.3c-0.1,1.7-0.1,3.5,0.1,5.2c0.8,3.6,3.6,5.5,6.7,7.1c8.7,4.5,17.5,8.6,26.6,12.5
				c0.8,0.3,2.4-0.8,1.2-1.2c-8-3.5-15.9-7.2-23.8-11.1c-3.5-1.7-7.5-3.3-8.4-7.3c-0.4-1.9-0.3-3.9-0.1-5.8c0.1-0.9,0.3-1.9,0.1-2.8
				c-0.8-2.7-4.7-4.4-6.8-5.5c-4-2-8.3-3.6-12.5-5.6c-2-0.9-4-1.9-5.8-3.1c-1.1-0.8-2.7-1.7-2.8-3.3
				C132.7,138.8,130.7,139.2,130.8,140.1L130.8,140.1z"/>
		</g>
	</g>
	<g>
		<g>
			<path class="st1" d="M147.6,158.7c3.3,0,6.5,0,10,0c3.1,0,6.7-0.4,9.6,0.3c2.8,0.7,5,2.5,7.9,3.5c2.8,0.8,5.6,1.1,8.4,1.2
				c0.8,0,2.1-1.1,0.8-1.2c-3.3-0.3-6.5-0.7-9.6-1.9c-2.5-1.1-4.5-2.7-7.2-2.9c-2.9-0.4-6.1-0.1-9.1-0.1c-3.3,0-6.5,0-10,0
				C147.6,157.5,146.3,158.7,147.6,158.7L147.6,158.7z"/>
		</g>
	</g>
	<g>
		<g>
			<path class="st0" d="M164.6,206.4c7.2,2.7,14,6.5,19.9,11.6c0.7,0.4,2.5-0.3,1.9-0.8c-6.1-5.2-13-9.2-20.4-11.9
				C165.1,205,163.5,205.9,164.6,206.4L164.6,206.4z"/>
		</g>
	</g>
	<g>
		<g>
			<path class="st2" d="M163.8,196.1c6.5,3.5,13.2,6.5,20.3,8.9c5.6,2,13.8,2.9,17.1,8.7c0.3,0.7,2.1-0.1,2-0.4
				c-3.1-5.5-10-6.5-15.5-8.3c-7.6-2.5-15-5.8-22-9.5C165,195.1,163.3,195.9,163.8,196.1L163.8,196.1z"/>
		</g>
	</g>
	<g>
		<g>
			<path class="st0" d="M177,223.7c-9.6-12.7-21.2-23.6-34.3-32.6c-0.7-0.4-2.5,0.4-1.6,1.1c13,8.9,24.6,19.9,34,32.3
				C175.7,225.2,177.7,224.5,177,223.7L177,223.7z"/>
		</g>
	</g>
	<g>
		<g>
			<path class="st0" d="M103.7,188.6c19.1,2.5,38.9,5.3,55,16.4c0.4,0.3,2.1-0.4,1.9-0.7c-16.3-11.2-36.2-14-55.3-16.6
				C104.8,187.8,103,188.6,103.7,188.6L103.7,188.6z"/>
		</g>
	</g>
	<g>
		<g>
			<path class="st0" d="M110.5,147.3c9.9,1.9,19.5,4.8,28.7,8.9c3.7,1.7,8.3,3.3,11.2,6.3c1.7,1.6,2.1,3.3,2.9,5.3
				c0.4,1.2,1.1,2.1,2.7,2.1c0.4,0,2.4-0.8,1.5-0.8c-1.7-0.1-2-2.9-2.7-4.3c-0.7-1.6-1.9-2.9-3.3-3.9c-3.5-2.8-8-4.4-12-6.1
				c-8.7-3.7-17.9-6.4-27.4-8.3C111.7,146.5,110.1,147.2,110.5,147.3L110.5,147.3z"/>
		</g>
	</g>
	<g>
		<g>
			<path class="st0" d="M172.2,210.6c6.5,0,13.2,0,19.9,0c3.3,0,6.5-0.1,9.6,0c2.5,0.1,5.2,0.4,6.4,2.8c0.4,0.8,2.4,0,1.9-0.9
				c-1.1-2-3.3-2.9-5.6-3.3c-3.1-0.4-6.3-0.1-9.4-0.1c-7.6,0-15.1,0-22.8,0C171.3,209.2,170.8,210.6,172.2,210.6L172.2,210.6z"/>
		</g>
	</g>
	<g>
		<g>
			<path class="st0" d="M113.5,203.3c11.2-2.4,23.1,0.3,32.6,6.5c2.1,1.5,4.3,3.1,6.1,5c1.9,1.9,3.5,4.5,5.8,5.8
				c2.4,1.2,5.6,1.1,8.3,1.5c3.5,0.3,7.1,0.7,10.4,0.9c0.4,0,2.4-0.9,1.2-0.9c-3.7-0.3-7.5-0.7-11.2-0.9c-3.5-0.3-6.5-0.3-9.1-2.9
				c-3.9-4.3-7.6-8-12.7-10.8c-9.4-5.3-20.6-7.2-31.2-5C112.9,202.5,112.1,203.6,113.5,203.3L113.5,203.3z"/>
		</g>
	</g>
	<g>
		<g>
			<path class="st1" d="M141.6,179.1c9.1-0.7,18.3-0.1,27.4,1.2c2,0.3,4.3,0.8,6.3,1.1c2,0.4,4.3,0.8,6.1,1.7
				c2.7,1.5,3.7,4.4,7.2,3.7c1.2-0.3,0.9-1.5-0.3-1.1c-1.6,0.3-2.9-2-4-2.9c-1.2-0.9-2.8-1.5-4.4-1.7c-4-0.9-8.3-1.7-12.5-2.4
				c-8.4-1.1-16.8-1.5-25.5-0.9C140.8,177.8,140.2,179.1,141.6,179.1L141.6,179.1z"/>
		</g>
	</g>
	<g>
		<g>
			<path class="st0" d="M186.6,217.8c11.2-0.7,22.4-0.3,33.5,0.9c0.8,0.1,2.1-1.1,0.8-1.2c-11.4-1.2-22.8-1.6-34.2-0.9
				C185.8,216.5,185.2,218,186.6,217.8L186.6,217.8z"/>
		</g>
	</g>
	<g>
		<g>
			<path class="st0" d="M194,218.8c7.6-1.9,15.5-3.1,23.2-3.6c3.7-0.1,7.6-0.3,11.4-0.1c1.7,0,4.4,0.7,5.5-1.2
				c0.1-0.4-1.7-0.3-2,0.3c-0.1,0.3-4.3-0.1-4.7-0.1c-1.7,0-3.5,0-5.2,0c-3.1,0-6.1,0.3-9.2,0.4c-6.5,0.7-13,1.7-19.4,3.3
				C192.5,218.1,192.6,219,194,218.8L194,218.8z"/>
		</g>
	</g>
	<g>
		<g>
			<path class="st0" d="M195.4,200.6c-1.7,8.9,4.7,16.7,11.2,21.8c2.4,1.7,5.5,1.2,8,0.7c3.1-0.8,6.3-2.4,9.5-2.8
				c0.3,0,1.1-0.3,1.1-0.8s-0.4-0.7-0.9-0.7c-2.8,0.4-5.3,1.6-8.1,2.4c-2.5,0.8-5.8,1.9-8.1,0.1c-6.3-5-12.5-12.3-10.8-21
				C197.7,199.5,195.7,199.8,195.4,200.6L195.4,200.6z"/>
		</g>
	</g>
	<g>
		<g>
			<path class="st2" d="M154.3,209.8c10-0.3,20.4-0.8,30.2,2.7c8.4,2.9,15.8,9.1,24.8,10c0.7,0,2.4-0.9,1.2-1.1
				c-9.5-1.1-17.1-7.6-25.9-10.4c-9.5-2.9-19.6-2.7-29.5-2.1C154.3,208.7,152.8,209.8,154.3,209.8L154.3,209.8z"/>
		</g>
	</g>
</g>
</svg>
