<?xml version="1.0" encoding="utf-8"?>
<!-- Generator: Adobe Illustrator 25.2.3, SVG Export Plug-In . SVG Version: 6.00 Build 0)  -->
<svg version="1.1" id="Layer_1" xmlns="http://www.w3.org/2000/svg" xmlns:xlink="http://www.w3.org/1999/xlink" x="0px" y="0px"
	 viewBox="0 0 268.4 211.6" style="enable-background:new 0 0 268.4 211.6;" xml:space="preserve">
<style type="text/css">
	.st0{fill:#DD335A;}
	.st1{fill:#D8432E;}
	.st2{fill:#EE7345;}
</style>
<g>
	<g>
		<g>
			<path class="st0" d="M83.1,87.2c14.6,3.9,29.4,7.3,43.9,11.8c3.1,1,6.3,2.4,8.8,4.5c2.1,2,3.9,4.3,5.6,6.6
				c1.7,2.2,3.5,4.6,5.9,6.5c2,1.5,5.5,3.1,4.9,6c-0.1,0.8,2.4,0.4,2.5-0.4c0.6-2.5-1.5-4.1-3.4-5.5c-2.4-1.8-4.3-3.5-6-5.9
				c-2-2.5-3.6-5-5.9-7.4c-2.1-2.1-4.9-3.6-7.9-4.9c-7.3-2.7-15-4.1-22.3-6c-8-2.1-15.8-4.3-23.8-6.3C84.5,85.8,82.4,86.8,83.1,87.2
				L83.1,87.2z"/>
		</g>
	</g>
	<g>
		<g>
			<g>
				<path class="st1" d="M68.5,87.1c9.1,1,18.5,2,27.8,2.9c4.6,0.6,9.4,1,13.9,2.7c3.6,1.5,6.9,3.9,10,6.3
					c10.5,8.8,22.3,23,37.7,17.9c1.5-0.4,1.1-2.1-0.4-1.5c-7.9,2.5-15.8-1.4-22-6c-6-4.5-10.9-10.4-17-14.6
					c-6.6-4.6-13.6-5.9-21.5-6.6c-9.1-1-18.1-2-27.3-2.9C68.2,85.1,66.7,86.8,68.5,87.1L68.5,87.1z"/>
			</g>
		</g>
		<g>
			<g>
				<path class="st0" d="M80.1,101.5c14.6-3.4,29.3,1.8,42.8,7.6s26.9,12.5,40.2,18.5c0.6,0.4,2.5-0.8,2.4-0.8
					c-14.4-6.9-28.9-13.9-43.5-20.1c-13-5.5-27.2-9.4-41.2-6.3C79.7,101,78.5,101.9,80.1,101.5L80.1,101.5z"/>
			</g>
		</g>
		<g>
			<g>
				<path class="st0" d="M53.2,102.5c5-5.3,12.5-6.3,19.4-6.9c7.4-0.8,15.6-1.5,21.5,3.9c4.6,4.1,7,10.1,11.9,14
					c4.9,4.1,11.5,4.9,17.5,3.6c3.9-0.8,7-2.7,10.5-4.3c5.3-2.4,9.4,0.4,13.5,3.6c0.8,0.8,3.1-0.6,2-1.4c-2.7-2.4-5.9-4.6-9.5-5
					c-3.5-0.4-6.6,1.4-9.8,2.7c-7.4,3.6-16.8,4.3-23-2c-4.9-4.6-7.6-11.8-13.6-15.3C87,91.8,79,92.8,72,93.5
					c-7.4,0.8-15.3,2.4-20.8,7.9C50.1,102.9,52.5,103.2,53.2,102.5L53.2,102.5z"/>
			</g>
		</g>
		<g>
			<g>
				<path class="st0" d="M87.6,83c-0.1,4.5-0.4,8.8-0.4,13.3c0,3.9-0.4,8.1,0.4,12.1c0.4,2.7,2.5,3.6,5,3.9
					c3.9,0.4,8.1,0.1,12.1-0.1c3.9-0.4,8-1.1,11.8-2.1c2-0.4,3.9-1,5.9-1.5c1.5-0.4,3.6-1.4,5,0.1c0.6,0.6,1,1.8,1.4,2.5
					c1.5,3.6,2.9,7.9,4.9,11.4c1.4,2.1,2.9,3.4,5.5,2.7c1.5-0.4,1.1-1.5-0.4-1.4c-2.5,0.6-5-7.6-5.6-9.1c-1-2.4-1.8-6.3-4.1-7.6
					c-2.1-1.4-4.9-0.4-7.3,0.1c-3.9,1.1-7.9,2.1-11.9,2.7c-3.9,0.6-7.9,1-11.8,1c-1.8,0-3.9,0.1-5.6-0.4c-2.1-0.6-2.7-2-2.9-4.1
					c-0.6-8-0.1-16,0.1-24C90.1,81.6,87.6,82.2,87.6,83L87.6,83z"/>
			</g>
		</g>
		<g>
			<g>
				<path class="st0" d="M43.7,94.5c5.9-7.9,16-0.6,21.5,3.5c6.3,4.5,13,8.4,20.1,11.5c3.6,1.5,7.4,3.1,11.4,4.3c2.7,1,6,2.4,9,1.4
					c2.5-0.6,3.6-2.5,4.9-4.6c1.8-3.5,4.3-6,8.4-6.5c8.8-1.1,15.6,6,20.5,12.3c0.4,0.6,2.9-0.1,2.4-1c-4.5-5.9-10.1-11.8-17.8-12.6
					c-5.9-0.6-12.3,1.4-15.3,6.6c-1.1,2.1-1.8,4.9-4.9,4.6c-2.4-0.1-4.9-1.4-7-2.1c-4.3-1.4-8.4-3.1-12.5-5
					c-4.3-2.1-8.6-4.5-12.6-7.3c-3.5-2.4-6.6-4.9-10.1-6.9c-6-3.5-15.3-4.6-19.9,1.8C40.7,95.2,43.1,95.1,43.7,94.5L43.7,94.5z"/>
			</g>
		</g>
		<g>
			<g>
				<path class="st0" d="M95.6,82.3c-1.1,7.3,2.4,15.8-2.4,22.3c-2.4,3.1-6.6,2.5-9.8,4.9c-2.1,1.5-2.7,3.9-1.1,6
					c2,2.5,5.5,4.5,8.1,6c3.4,2,6.6,3.6,10,5.5c6.9,3.5,13.9,6.9,19.9,11.9c0.6,0.6,2.9-0.4,2.4-1c-5.5-4.5-11.8-7.9-17.9-10.9
					c-6.5-3.4-13.9-6.5-18.9-11.4c-1.8-1.8-2.5-4.3,0-5.9c1.4-1,3.1-1,4.6-1.5c2.7-1,4.9-2.7,6-5.3C99.8,96.3,96.8,89,98,82
					C98.4,81.2,95.8,81.6,95.6,82.3L95.6,82.3z"/>
			</g>
		</g>
		<g>
			<g>
				<path class="st0" d="M72.7,96.5c16.4,5,33,9.8,48.9,15.8c15.6,5.9,29,14.9,42.3,24.8c0.8,0.6,3.1-0.4,2.4-1
					c-13.5-10-27.2-19.1-42.8-25c-16.3-6-33-10.8-49.6-15.8C73.6,94.8,71.4,96,72.7,96.5L72.7,96.5z"/>
			</g>
		</g>
		<g>
			<g>
				<path class="st0" d="M105.1,123.7c12.5,1.8,25.2-2,37.7,0.4c6,1.1,10.8,4.1,15.4,7.6s9.4,6,15.3,6.6c0.6,0,1.4,0,1.8-0.4
					c0.1,0,1-0.6,0.4-0.6c-6.5-0.6-11.4-3.6-16.3-7.4c-4.3-3.4-9-5.9-14.4-6.9c-12.5-2.4-25.2,1.4-37.7-0.4
					C106.8,122.8,104.5,123.7,105.1,123.7L105.1,123.7z"/>
			</g>
		</g>
		<g>
			<g>
				<path class="st0" d="M29.8,96.7c7.6,0.8,15.4-0.6,23,0c8.4,0.6,15,4.3,21.5,9.4c5.5,4.3,10.5,9.1,14.4,14.9
					c1.8,2.7,2.7,6.3,4.9,8.8c1.5,2.1,4.3,2.4,6.9,2.4c8.4-0.4,16.5-2.5,24.4-5.5c1.5-0.6,0.1-1.4-1-1c-4.9,1.8-10,3.4-15,4.1
					c-2.4,0.4-4.6,0.8-7.3,1c-2.9,0.1-5-0.4-6.5-3.1c-1.8-3.5-3.4-7-5.9-10.1c-2.5-3.4-5.6-6.5-9-9.1c-6.5-5.6-13.5-10.9-21.9-12.5
					c-9.1-1.5-18.4,0.4-27.8-0.4C29.9,95.5,28.3,96.6,29.8,96.7L29.8,96.7z"/>
			</g>
		</g>
		<g>
			<g>
				<path class="st0" d="M63,91.3c7.3,0.1,13.3,4.6,18.9,8.8c5.9,4.1,11.8,8.4,17.2,13c2.7,2.4,5.5,4.6,8.1,7c2.1,2,4.3,4.9,7,5.9
					c2.4,0.8,5-0.1,7.4-0.8c3.9-1,7.9-2,11.8-2.7c1.5-0.4,1.4-1.1-0.1-0.8c-3.5,0.8-7.3,1.8-10.8,2.5c-2.4,0.6-5,1.4-7.3,0.1
					c-1.1-0.8-2.4-2-3.4-2.9c-4.9-4.5-10.1-9-15.4-13c-5.3-4.1-10.5-8-16-11.8c-4.9-3.4-10-6.3-16-6.3C64.2,90.3,61.8,91.3,63,91.3
					L63,91.3z"/>
			</g>
		</g>
		<g>
			<g>
				<path class="st0" d="M34.2,106.4c16.3-1.4,33.2-2.7,48.8,2.9c8,3.1,14.4,8.6,21.5,13.3c6.5,4.3,13.9,7.4,21.9,5.6
					c1.5-0.4,1.1-1.8-0.4-1.5c-9.1,2-17.4-3.9-24.4-9.1c-6.5-4.6-12.9-9-20.8-11.1c-14.9-4.5-30.8-3.1-46.3-1.8
					C33.2,104.7,32.3,106.6,34.2,106.4L34.2,106.4z"/>
			</g>
		</g>
		<g>
			<g>
				<path class="st0" d="M99.9,133.6c13.6-1.8,26.2,6.6,39.7,7.3c13.6,0.6,24.8-8.8,38-9.8c1.4-0.1,2.1-1.5,0.4-1.5
					c-13.6,1-25.2,10.9-39,9.5c-13.3-1.1-25.2-8.8-38.8-7C98.9,132.4,98.1,133.9,99.9,133.6L99.9,133.6z"/>
			</g>
		</g>
		<g>
			<g>
				<path class="st0" d="M75.1,83.8c7.6,10.9,15.4,22,26.4,29.9c11.9,8.4,26.9,9.1,39,17.2c6.6,4.5,12.1,10.1,16.3,17
					c0.6,0.8,2.9,0,2.4-1c-7-11.5-17.9-19.8-30.7-24c-7.3-2.4-14.9-4.1-21.5-8c-5.9-3.5-10.9-8.1-15.4-13.3c-5-5.9-9.5-12.3-14-18.8
					C76.9,82,74.3,83,75.1,83.8L75.1,83.8z"/>
			</g>
		</g>
		<g>
			<g>
				<path class="st1" d="M5.8,92c11.5,10.8,27.9,12.5,41.8,19.1c14.3,6.6,26.4,16.8,39.7,24.5c7.3,4.3,14.9,7.9,23.3,10
					c0.8,0.1,2.9-1,1.5-1.1c-15-3.6-27.8-12.9-40.4-21.5c-6.3-4.1-12.5-8.4-19.1-11.8c-6.9-3.5-14-5.6-21.3-8.1
					c-8.1-2.7-16.4-6-23-12.1C7.5,90.6,5.3,91.6,5.8,92L5.8,92z"/>
			</g>
		</g>
		<g>
			<g>
				<path class="st1" d="M75.7,90c15-2,30.8,3.6,41.2,14.6c5.6,6,9.5,13.3,14.4,20.1c4.3,6,9.4,11.4,15.4,15.4
					c6.9,4.6,14.6,8,22.6,9.5c0.6,0.1,2.9-1,2.1-1c-16.3-3.4-29.7-12.9-38.8-26.4c-4.5-6.6-8.6-13.6-14-19.4
					c-5-5.3-11.5-9.1-18.4-11.5c-7.6-2.7-16-3.5-24-2.5C75.1,89,74,90.2,75.7,90L75.7,90z"/>
			</g>
		</g>
		<g>
			<g>
				<path class="st0" d="M20,94.5c4.5-0.4,9.1-1,13.9-0.1c4.6,0.8,8.4,2.9,11.8,6.5c2.7,2.9,5,5.6,8.6,7.4c3.4,1.5,7.6,2.9,8.8,6.6
					c0.1,0.8,2.7,0,2.5-0.6c-1.1-3.6-4.9-5-8.1-6.6c-2.1-1-4.1-2.1-5.6-3.6c-1.8-1.8-3.4-3.6-5-5.5c-7-6.6-17.2-5.9-25.9-4.9
					C19.4,93.2,18.3,94.5,20,94.5L20,94.5z"/>
			</g>
		</g>
		<g>
			<g>
				<path class="st0" d="M21.7,97.6c6,3.1,9.8,9,14.4,13.9c4.9,5.3,11.1,9.1,17.5,12.3c6.6,3.1,13.5,6.6,20.5,8.4
					c6,1.5,12.5,1.1,17.9-2.1c1-0.6-1.5-0.1-2,0c-7.3,4.3-16.3,0.8-23.3-2.4c-5.6-2.4-11.4-4.9-16.8-8s-10.1-7.3-14-11.9
					c-3.5-4.1-7-8.6-11.9-11.1C23.4,96.5,21.4,97.6,21.7,97.6L21.7,97.6z"/>
			</g>
		</g>
		<g>
			<g>
				<path class="st0" d="M73.6,76.1c0.4,3.5,5.5,5.6,8.1,7c5.3,2.7,10.8,4.9,16.3,7.3c2.4,1.1,4.6,2.1,7,3.6c1.4,0.8,3.1,2,3.6,3.5
					c0.4,1.1-0.1,2.7-0.1,4.1c-0.1,2.1-0.1,4.3,0.1,6.5c1,4.5,4.5,6.9,8.4,8.8c10.9,5.6,21.9,10.8,33.2,15.6c1,0.4,2.9-1,1.5-1.5
					c-10-4.3-19.9-9-29.7-13.9c-4.3-2.1-9.4-4.1-10.5-9.1c-0.6-2.4-0.4-4.9-0.1-7.3c0.1-1.1,0.4-2.4,0.1-3.5c-1-3.4-5.9-5.5-8.6-6.9
					c-5-2.5-10.4-4.5-15.6-7c-2.5-1.1-5-2.4-7.3-3.9c-1.4-1-3.4-2.1-3.5-4.1C76.1,74.3,73.6,74.9,73.6,76.1L73.6,76.1z"/>
			</g>
		</g>
		<g>
			<g>
				<path class="st1" d="M15.9,99.3c4.1,0,8.1,0,12.5,0c3.9,0,8.4-0.6,12.1,0.4c3.5,0.8,6.3,3.1,9.8,4.3c3.5,1,7,1.4,10.5,1.5
					c1,0,2.7-1.4,1-1.5c-4.1-0.4-8.1-0.8-12.1-2.4c-3.1-1.4-5.6-3.4-9-3.6c-3.6-0.6-7.6-0.1-11.4-0.1c-4.1,0-8.1,0-12.5,0
					C15.9,97.7,14.2,99.3,15.9,99.3L15.9,99.3z"/>
			</g>
		</g>
		<g>
			<g>
				<path class="st0" d="M98.5,129c9,3.4,17.5,8.1,24.8,14.4c0.8,0.6,3.1-0.4,2.4-1c-7.6-6.5-16.3-11.5-25.5-14.9
					C99.4,127.3,97.1,128.4,98.5,129L98.5,129z"/>
			</g>
		</g>
		<g>
			<g>
				<path class="st2" d="M97.5,116.4c8.1,4.3,16.5,8.1,25.4,11.1c7,2.5,17.2,3.6,21.3,10.9c0.4,0.8,2.7-0.1,2.5-0.6
					c-3.9-6.9-12.5-8.1-19.4-10.4c-9.5-3.1-18.8-7.3-27.5-11.9C99.1,115,97,116,97.5,116.4L97.5,116.4z"/>
			</g>
		</g>
		<g>
			<g>
				<path class="st0" d="M114.1,150.9C102,135,87.6,121.4,71.2,110.1c-0.8-0.6-3.1,0.6-2,1.4c16.3,11.1,30.7,24.8,42.5,40.4
					C112.4,152.7,114.9,151.7,114.1,150.9L114.1,150.9z"/>
			</g>
		</g>
		<g>
			<g>
				<path class="st0" d="M22.4,107c23.8,3.1,48.7,6.6,68.7,20.5c0.6,0.4,2.7-0.6,2.4-0.8c-20.3-14-45.3-17.5-69.1-20.8
					C23.8,105.7,21.7,106.7,22.4,107L22.4,107z"/>
			</g>
		</g>
		<g>
			<g>
				<path class="st0" d="M48.3,85.1c12.3,2.4,24.4,6,35.9,11.1c4.6,2.1,10.4,4.1,14,7.9c2.1,2,2.7,4.1,3.6,6.6
					c0.6,1.5,1.4,2.7,3.4,2.7c0.6,0,2.9-1,1.8-1c-2.1-0.1-2.5-3.6-3.4-5.3c-0.8-2-2.4-3.6-4.1-4.9c-4.3-3.5-10-5.5-15-7.6
					c-10.9-4.6-22.4-8-34.2-10.4C49.9,84.1,47.8,84.8,48.3,85.1L48.3,85.1z"/>
			</g>
		</g>
		<g>
			<g>
				<path class="st0" d="M130.8,146.5c8.4-0.4,16.5-1,25-1.4c4.1-0.1,7.6-0.4,10.5,2.7c2,2,3.5,4.3,6,5.6c1,0.6,3.1-0.8,2-1.5
					c-2.7-1.5-4.3-4.3-6.6-6.5c-2.5-2.4-5.9-2.9-9.4-2.7c-9.1,0.4-18.1,1-27.3,1.4C129.5,144.8,129.2,146.8,130.8,146.5L130.8,146.5
					z"/>
			</g>
		</g>
		<g>
			<g>
				<path class="st0" d="M108,134.5c8.1,0,16.5,0,24.8,0c4.1,0,8.1-0.1,12.1,0c3.1,0.1,6.5,0.6,8,3.5c0.6,1,2.9,0,2.4-1.1
					c-1.4-2.5-4.1-3.6-7-4.1c-3.9-0.6-7.9-0.1-11.8-0.1c-9.5,0-18.9,0-28.5,0C106.9,132.5,106.4,134.5,108,134.5L108,134.5z"/>
			</g>
		</g>
		<g>
			<g>
				<path class="st0" d="M34.7,125.1c14-2.9,28.9,0.4,40.8,8.1c2.7,1.8,5.3,3.9,7.6,6.3c2.4,2.4,4.3,5.6,7.3,7.3
					c2.9,1.5,7,1.4,10.4,1.8c4.3,0.4,8.8,0.8,13,1.1c0.6,0,2.9-1.1,1.5-1.1c-4.6-0.4-9.4-0.8-14-1.1c-4.3-0.4-8.1-0.4-11.4-3.6
					c-4.9-5.3-9.5-10-15.8-13.5c-11.8-6.6-25.8-9-39-6.3C33.9,124.4,32.9,125.5,34.7,125.1L34.7,125.1z"/>
			</g>
		</g>
		<g>
			<g>
				<path class="st1" d="M28.4,109.2c11.4-0.8,22.9-0.1,34.2,1.5c2.5,0.4,5.3,1,7.9,1.4c2.5,0.6,5.3,1,7.6,2.1
					c3.4,1.8,4.6,5.5,9,4.6c1.5-0.4,1.1-1.8-0.4-1.4c-2,0.4-3.6-2.5-5-3.6c-1.5-1.1-3.5-1.8-5.5-2.1c-5-1.1-10.4-2.1-15.6-2.9
					c-10.5-1.4-21-1.8-31.8-1.1C27.4,107.7,26.7,109.2,28.4,109.2L28.4,109.2z"/>
			</g>
		</g>
		<g>
			<g>
				<path class="st0" d="M126.7,122.4c7.4,1,14,6.3,16.8,13.3c0.1,0.6,2.7,0,2.5-0.6c-2.7-7.4-9.8-12.6-17.8-13.6
					c-0.6,0-1.4,0.1-1.8,0.4C126,122,126,122.4,126.7,122.4L126.7,122.4z"/>
			</g>
		</g>
		<g>
			<g>
				<path class="st0" d="M117.4,152c14-0.8,28-0.4,41.9,1.1c1,0.1,2.7-1.4,1-1.5c-14.3-1.5-28.5-2-42.8-1.1
					C116.5,150.5,115.8,152,117.4,152L117.4,152z"/>
			</g>
		</g>
		<g>
			<g>
				<path class="st0" d="M126.7,153c9.5-2.4,19.4-3.9,29-4.5c4.6-0.1,9.5-0.4,14.3-0.1c2.1,0,5.5,0.8,6.9-1.5
					c0.1-0.6-2.1-0.4-2.5,0.4c-0.1,0.4-5.3-0.1-5.9-0.1c-2.1,0-4.3,0-6.5,0c-3.9,0-7.6,0.4-11.5,0.6c-8.1,0.8-16.3,2.1-24.3,4.1
					C124.9,152.4,125,153.4,126.7,153L126.7,153z"/>
			</g>
		</g>
		<g>
			<g>
				<path class="st0" d="M128.5,130.5c-2.1,11.1,5.9,20.9,14,27.2c2.9,2.1,6.9,1.5,10,0.8c3.9-1,7.9-2.9,11.9-3.5
					c0.4,0,1.4-0.4,1.4-1s-0.6-0.8-1.1-0.8c-3.5,0.6-6.6,2-10.1,2.9c-3.1,1-7.3,2.4-10.1,0.1c-7.9-6.3-15.6-15.4-13.5-26.2
					C131.3,129.1,128.8,129.6,128.5,130.5L128.5,130.5z"/>
			</g>
		</g>
		<g>
			<g>
				<path class="st0" d="M141.1,136.3c5.3,3.9,11.1,6.6,17.4,8.6c5.5,1.8,11.9,2.4,16,6.6c0.6,0.6,2.9-0.1,2.4-1
					c-3.9-4.3-9.8-5.3-15-6.6c-6.6-1.8-13-4.9-18.5-9C142.4,134.5,140.2,135.6,141.1,136.3L141.1,136.3z"/>
			</g>
		</g>
		<g>
			<g>
				<path class="st2" d="M85.6,133.3c12.5-0.4,25.5-1,37.7,3.4c10.5,3.6,19.8,11.4,31,12.5c0.8,0,2.9-1.1,1.5-1.4
					c-11.9-1.4-21.3-9.5-32.4-13c-11.9-3.6-24.5-3.4-36.9-2.7C85.6,131.9,83.9,133.3,85.6,133.3L85.6,133.3z"/>
			</g>
		</g>
	</g>
	<g>
		<g>
			<path class="st1" d="M128.5,99.7c9.1,1,18.5,2,27.8,2.9c4.6,0.6,9.4,1,13.9,2.7c3.6,1.5,6.9,3.9,10,6.3
				c10.5,8.8,22.3,23,37.7,17.9c1.5-0.4,1.1-2.1-0.4-1.5c-7.9,2.5-15.8-1.4-22-6c-6-4.5-10.9-10.4-17-14.6
				c-6.6-4.6-13.6-5.9-21.5-6.6c-9.1-1-18.1-2-27.3-2.9C128.4,97.7,127,99.6,128.5,99.7L128.5,99.7z"/>
		</g>
	</g>
	<g>
		<g>
			<path class="st0" d="M140.3,114.1c14.6-3.4,29.3,1.8,42.8,7.6c13.5,5.9,26.9,12.5,40.2,18.5c0.6,0.4,2.5-0.8,2.4-0.8
				c-14.4-6.9-28.9-13.9-43.5-20.1c-13-5.5-27.2-9.4-41.2-6.3C139.9,113.6,138.5,114.6,140.3,114.1L140.3,114.1z"/>
		</g>
	</g>
	<g>
		<g>
			<path class="st0" d="M113.4,115.1c5-5.3,12.5-6.3,19.4-6.9c7.4-0.8,15.6-1.5,21.5,3.9c4.6,4.1,7,10.1,11.9,14
				c4.9,4.1,11.5,4.9,17.5,3.6c3.9-0.8,7-2.7,10.5-4.3c5.3-2.4,9.4,0.4,13.5,3.6c0.8,0.8,3.1-0.6,2-1.4c-2.7-2.4-5.9-4.6-9.5-5
				c-3.5-0.4-6.6,1.4-9.8,2.7c-7.4,3.6-16.8,4.3-23-2c-4.9-4.6-7.6-11.8-13.6-15.3c-6.5-3.6-14.4-2.7-21.5-2
				c-7.4,0.8-15.3,2.4-20.8,7.9C110.3,115.5,112.5,116.1,113.4,115.1L113.4,115.1z"/>
		</g>
	</g>
	<g>
		<g>
			<path class="st0" d="M147.7,95.6c-0.1,4.5-0.4,8.8-0.4,13.3c0,3.9-0.4,8.1,0.4,12.1c0.4,2.7,2.5,3.6,5,3.9
				c3.9,0.4,8.1,0.1,12.1-0.1c3.9-0.4,8-1.1,11.8-2.1c2-0.4,3.9-1,5.9-1.5c1.5-0.4,3.6-1.4,5,0.1c0.6,0.6,1,1.8,1.4,2.5
				c1.5,3.6,2.9,7.9,4.9,11.4c1.4,2.1,2.9,3.4,5.5,2.7c1.5-0.4,1.1-1.5-0.4-1.4c-2.5,0.6-5-7.6-5.6-9.1c-1-2.4-1.8-6.3-4.1-7.6
				c-2.1-1.4-4.9-0.4-7.3,0.1c-3.9,1.1-7.9,2.1-11.9,2.7c-3.9,0.6-7.9,1-11.8,1c-1.8,0-3.9,0.1-5.6-0.4c-2.1-0.6-2.7-2-2.9-4.1
				c-0.6-8-0.1-16,0.1-24C150.3,94.2,147.7,94.8,147.7,95.6L147.7,95.6z"/>
		</g>
	</g>
	<g>
		<g>
			<path class="st0" d="M103.8,107.1c5.9-7.9,16-0.6,21.5,3.5c6.3,4.5,13,8.4,20.1,11.5c3.6,1.5,7.4,3.1,11.4,4.3c2.7,1,6,2.4,9,1.4
				c2.5-0.6,3.6-2.5,4.9-4.6c1.8-3.5,4.3-6,8.4-6.5c8.8-1.1,15.6,6,20.5,12.3c0.4,0.6,2.9-0.1,2.4-1c-4.5-5.9-10.1-11.8-17.8-12.6
				c-5.9-0.6-12.3,1.4-15.3,6.6c-1.1,2.1-1.8,4.9-4.9,4.6c-2.4-0.1-4.9-1.4-7-2.1c-4.3-1.4-8.4-3.1-12.5-5
				c-4.3-2.1-8.6-4.5-12.6-7.3c-3.5-2.4-6.6-4.9-10.1-6.9c-6-3.5-15.3-4.6-19.9,1.8C100.9,108,103.4,107.7,103.8,107.1L103.8,107.1z
				"/>
		</g>
	</g>
	<g>
		<g>
			<path class="st0" d="M173.1,124.9c-1.1,7.3,2.4,15.8-2.4,22.3c-2.4,3.1-6.6,2.5-9.8,4.9c-2.1,1.5-2.7,3.9-1.1,6
				c2,2.5,5.5,4.5,8.1,6c3.4,2,6.6,3.6,10,5.5c6.9,3.5,13.9,6.9,19.9,11.9c0.6,0.6,2.9-0.4,2.4-1c-5.5-4.5-11.8-7.9-17.9-10.9
				c-6.5-3.4-13.9-6.5-18.9-11.4c-1.8-1.8-2.5-4.3,0-5.9c1.4-1,3.1-1,4.6-1.5c2.7-1,4.9-2.7,6-5.3c3.4-6.6,0.4-13.9,1.5-20.9
				C175.8,123.7,173.3,124.1,173.1,124.9L173.1,124.9z"/>
		</g>
	</g>
	<g>
		<g>
			<path class="st0" d="M132.9,109.1c16.4,5,33,9.8,48.9,15.8c15.6,5.9,29,14.9,42.3,24.8c0.8,0.6,3.1-0.4,2.4-1
				c-13.5-10-27.2-19.1-42.8-25c-16.3-6-33-10.8-49.6-15.8C133.7,107.5,131.5,108.7,132.9,109.1L132.9,109.1z"/>
		</g>
	</g>
	<g>
		<g>
			<path class="st0" d="M107.3,139.4c7.6,0.8,15.4-0.6,23,0c8.4,0.6,15,4.3,21.5,9.4c5.5,4.3,10.5,9.1,14.4,14.9
				c1.8,2.7,2.7,6.3,4.9,8.8c1.5,2.1,4.3,2.4,6.9,2.4c8.4-0.4,16.5-2.5,24.4-5.5c1.5-0.6,0.1-1.4-1-1c-4.9,1.8-10,3.4-15,4.1
				c-2.4,0.4-4.6,0.8-7.3,1c-2.9,0.1-5-0.4-6.5-3.1c-1.8-3.5-3.4-7-5.9-10.1c-2.5-3.4-5.6-6.5-9-9.1c-6.5-5.6-13.5-10.9-21.9-12.5
				c-9.1-1.5-18.4,0.4-27.8-0.4C107.3,137.8,105.8,139.1,107.3,139.4L107.3,139.4z"/>
		</g>
	</g>
	<g>
		<g>
			<path class="st0" d="M140.4,133.9c7.3,0.1,13.3,4.6,18.9,8.8c5.9,4.1,11.8,8.4,17.2,13c2.7,2.4,5.5,4.6,8.1,7
				c2.1,2,4.3,4.9,7,5.9c2.4,0.8,5-0.1,7.4-0.8c3.9-1,7.9-2,11.8-2.7c1.5-0.4,1.4-1.1-0.1-0.8c-3.5,0.8-7.3,1.8-10.8,2.5
				c-2.4,0.6-5,1.4-7.3,0.1c-1.1-0.8-2.4-2-3.4-2.9c-4.9-4.5-10.1-9-15.4-13c-5.3-4.1-10.5-8-16-11.8c-4.9-3.4-10-6.3-16-6.3
				C141.7,132.8,139.3,133.9,140.4,133.9L140.4,133.9z"/>
		</g>
	</g>
	<g>
		<g>
			<path class="st0" d="M111.6,148.9c16.3-1.4,33.2-2.7,48.8,2.9c8,3.1,14.4,8.6,21.5,13.3c6.5,4.3,13.9,7.4,21.9,5.6
				c1.5-0.4,1.1-1.8-0.4-1.5c-9.1,2-17.4-3.9-24.4-9.1c-6.5-4.6-12.9-9-20.8-11.1c-14.9-4.5-30.8-3.1-46.3-1.8
				C110.6,147.4,109.9,148.9,111.6,148.9L111.6,148.9z"/>
		</g>
	</g>
	<g>
		<g>
			<path class="st0" d="M177.2,176.3c13.6-1.8,26.2,6.6,39.7,7.3c13.6,0.6,24.8-8.8,38-9.8c1.4-0.1,2.1-1.5,0.4-1.5
				c-13.6,1-25.2,10.9-39,9.5c-13.3-1.1-25.2-8.8-38.8-7C176.5,174.9,175.5,176.4,177.2,176.3L177.2,176.3z"/>
		</g>
	</g>
	<g>
		<g>
			<path class="st0" d="M135.3,96.6c7.6,10.9,15.4,22,26.4,29.9c11.9,8.4,26.9,9.1,39,17.2c6.6,4.5,12.1,10.1,16.3,17
				c0.6,0.8,2.9,0,2.4-1c-7-11.5-17.9-19.8-30.7-24c-7.3-2.4-14.9-4.1-21.5-8c-5.9-3.5-10.9-8.1-15.4-13.3c-5-5.9-9.5-12.3-14-18.8
				C136.9,94.6,134.7,95.6,135.3,96.6L135.3,96.6z"/>
		</g>
	</g>
	<g>
		<g>
			<path class="st1" d="M83.2,134.5c11.5,10.8,28,12.5,41.9,19.1c14,6.6,26.2,16.5,39.4,24.5c7.3,4.3,14.9,7.9,23,10
				c0.6,0.1,2.7-0.8,2.1-1c-15-3.6-27.8-12.9-40.4-21.3c-6.5-4.3-12.9-8.6-19.8-11.9c-6.9-3.5-14-5.6-21.3-8.1
				c-8.1-2.7-16.4-6-22.6-12.1C85.2,133.1,82.9,134,83.2,134.5L83.2,134.5z"/>
		</g>
	</g>
	<g>
		<g>
			<path class="st1" d="M136,102.6c15-2,30.8,3.6,41.2,14.6c5.6,6,9.5,13.3,14.4,20.1c4.3,6,9.4,11.4,15.4,15.4
				c6.9,4.6,14.6,8,22.6,9.5c0.6,0.1,2.9-1,2.1-1c-16.3-3.4-29.7-12.9-38.8-26.4c-4.5-6.6-8.6-13.6-14-19.4
				c-5-5.3-11.5-9.1-18.4-11.5c-7.6-2.7-16-3.5-24-2.5C135.3,101.7,134.3,102.9,136,102.6L136,102.6z"/>
		</g>
	</g>
	<g>
		<g>
			<path class="st0" d="M159.1,107.1c4.5-0.4,9.1-1,13.9-0.1c4.8,0.8,8.4,2.9,11.8,6.5c2.7,2.9,5,5.6,8.6,7.4
				c3.4,1.5,7.6,2.9,8.8,6.6c0.1,0.8,2.7,0,2.5-0.6c-1.1-3.6-4.9-5-8.1-6.6c-2.1-1-4.1-2.1-5.6-3.6c-1.8-1.8-3.4-3.6-5-5.5
				c-7-6.6-17.2-5.9-25.9-4.9C158.4,106,157.3,107.4,159.1,107.1L159.1,107.1z"/>
		</g>
	</g>
	<g>
		<g>
			<path class="st0" d="M99.1,140.1c6,3.1,9.8,9,14.4,13.9c4.9,5.3,11.1,9.1,17.5,12.3c6.6,3.1,13.5,6.6,20.5,8.4
				c6,1.5,12.5,1.1,17.9-2.1c1-0.6-1.5-0.1-2,0c-7.3,4.3-16.3,0.8-23.3-2.4c-5.6-2.4-11.4-4.9-16.8-8c-5.5-3.1-10.1-7.3-14-11.9
				c-3.5-4.1-7-8.6-11.9-11.1C100.9,139,98.9,139.9,99.1,140.1L99.1,140.1z"/>
		</g>
	</g>
	<g>
		<g>
			<path class="st0" d="M133.8,88.8c0.4,3.5,5.5,5.6,8.1,7c5.3,2.7,10.8,4.9,16.3,7.3c2.4,1.1,4.6,2.1,7,3.6c1.4,0.8,3.1,2,3.6,3.5
				c0.4,1.1-0.1,2.7-0.1,4.1c-0.1,2.1-0.1,4.3,0.1,6.5c1,4.5,4.5,6.9,8.4,8.8c10.9,5.6,21.9,10.8,33.2,15.6c1,0.4,2.9-1,1.5-1.5
				c-10-4.3-19.9-9-29.7-13.9c-4.3-2.1-9.4-4.1-10.5-9.1c-0.6-2.4-0.4-4.9-0.1-7.3c0.1-1.1,0.4-2.4,0.1-3.5c-1-3.4-5.9-5.5-8.6-6.9
				c-5-2.5-10.4-4.5-15.6-7c-2.5-1.1-5-2.4-7.3-3.9c-1.4-1-3.4-2.1-3.5-4.1C136.2,87.1,133.7,87.6,133.8,88.8L133.8,88.8z"/>
		</g>
	</g>
	<g>
		<g>
			<path class="st1" d="M154.9,112c4.1,0,8.1,0,12.5,0c3.9,0,8.4-0.6,12.1,0.4c3.5,0.8,6.3,3.1,9.8,4.3c3.5,1,7,1.4,10.5,1.5
				c1,0,2.7-1.4,1-1.5c-4.1-0.4-8.1-0.8-12.1-2.4c-3.1-1.4-5.6-3.4-9-3.6c-3.6-0.6-7.6-0.1-11.4-0.1c-4.1,0-8.1,0-12.5,0
				C154.9,110.5,153.2,112,154.9,112L154.9,112z"/>
		</g>
	</g>
	<g>
		<g>
			<path class="st0" d="M176.1,171.6c9,3.4,17.5,8.1,24.8,14.4c0.8,0.6,3.1-0.4,2.4-1c-7.6-6.5-16.3-11.5-25.5-14.9
				C176.8,169.8,174.7,170.9,176.1,171.6L176.1,171.6z"/>
		</g>
	</g>
	<g>
		<g>
			<path class="st2" d="M175.1,158.7c8.1,4.3,16.5,8.1,25.4,11.1c7,2.5,17.2,3.6,21.3,10.9c0.4,0.8,2.7-0.1,2.5-0.6
				c-3.9-6.9-12.5-8.1-19.4-10.4c-9.5-3.1-18.8-7.3-27.5-11.9C176.6,157.5,174.5,158.4,175.1,158.7L175.1,158.7z"/>
		</g>
	</g>
	<g>
		<g>
			<path class="st0" d="M191.6,193.2c-12.1-15.8-26.5-29.4-42.9-40.8c-0.8-0.6-3.1,0.6-2,1.4c16.3,11.1,30.7,24.8,42.5,40.4
				C189.9,195,192.5,194.2,191.6,193.2L191.6,193.2z"/>
		</g>
	</g>
	<g>
		<g>
			<path class="st0" d="M99.9,149.3c23.8,3.1,48.7,6.6,68.7,20.5c0.6,0.4,2.7-0.6,2.4-0.8c-20.3-14-45.3-17.5-69.1-20.8
				C101.3,148.3,99.1,149.3,99.9,149.3L99.9,149.3z"/>
		</g>
	</g>
	<g>
		<g>
			<path class="st0" d="M108.5,97.7c12.3,2.4,24.4,6,35.9,11.1c4.6,2.1,10.4,4.1,14,7.9c2.1,2,2.7,4.1,3.6,6.6
				c0.6,1.5,1.4,2.7,3.4,2.7c0.6,0,2.9-1,1.8-1c-2.1-0.1-2.5-3.6-3.4-5.3c-0.8-2-2.4-3.6-4.1-4.9c-4.3-3.5-10-5.5-15-7.6
				c-10.9-4.6-22.4-8-34.2-10.4C110,96.7,107.9,97.6,108.5,97.7L108.5,97.7z"/>
		</g>
	</g>
	<g>
		<g>
			<path class="st0" d="M185.6,176.8c8.1,0,16.5,0,24.8,0c4.1,0,8.1-0.1,12.1,0c3.1,0.1,6.5,0.6,8,3.5c0.6,1,2.9,0,2.4-1.1
				c-1.4-2.5-4.1-3.6-7-4.1c-3.9-0.6-7.9-0.1-11.8-0.1c-9.5,0-18.9,0-28.5,0C184.5,175.1,183.8,176.8,185.6,176.8L185.6,176.8z"/>
		</g>
	</g>
	<g>
		<g>
			<path class="st0" d="M112.3,167.7c14-2.9,28.9,0.4,40.8,8.1c2.7,1.8,5.3,3.9,7.6,6.3c2.4,2.4,4.3,5.6,7.3,7.3
				c2.9,1.5,7,1.4,10.4,1.8c4.3,0.4,8.8,0.8,13,1.1c0.6,0,2.9-1.1,1.5-1.1c-4.6-0.4-9.4-0.8-14-1.1c-4.3-0.4-8.1-0.4-11.4-3.6
				c-4.9-5.3-9.5-10-15.8-13.5c-11.8-6.6-25.8-9-39-6.3C111.4,166.7,110.4,168.1,112.3,167.7L112.3,167.7z"/>
		</g>
	</g>
	<g>
		<g>
			<path class="st1" d="M147.3,137.4c11.4-0.8,22.9-0.1,34.2,1.5c2.5,0.4,5.3,1,7.9,1.4c2.5,0.6,5.3,1,7.6,2.1
				c3.4,1.8,4.6,5.5,9,4.6c1.5-0.4,1.1-1.8-0.4-1.4c-2,0.4-3.6-2.5-5-3.6c-1.5-1.1-3.5-1.8-5.5-2.1c-5-1.1-10.4-2.1-15.6-2.9
				c-10.5-1.4-21-1.8-31.8-1.1C146.3,135.9,145.6,137.4,147.3,137.4L147.3,137.4z"/>
		</g>
	</g>
	<g>
		<g>
			<path class="st0" d="M203.5,185.8c14-0.8,28-0.4,41.9,1.1c1,0.1,2.7-1.4,1-1.5c-14.3-1.5-28.5-2-42.8-1.1
				C202.6,184.2,201.9,186.1,203.5,185.8L203.5,185.8z"/>
		</g>
	</g>
	<g>
		<g>
			<path class="st0" d="M212.8,187c9.5-2.4,19.4-3.9,29-4.5c4.6-0.1,9.5-0.4,14.3-0.1c2.1,0,5.5,0.8,6.9-1.5
				c0.1-0.6-2.1-0.4-2.5,0.4c-0.1,0.4-5.3-0.1-5.9-0.1c-2.1,0-4.3,0-6.5,0c-3.9,0-7.6,0.4-11.5,0.6c-8.1,0.8-16.3,2.1-24.3,4.1
				C211,186.2,211.1,187.3,212.8,187L212.8,187z"/>
		</g>
	</g>
	<g>
		<g>
			<path class="st0" d="M214.6,164.3c-2.1,11.1,5.9,20.9,14,27.2c2.9,2.1,6.9,1.5,10,0.8c3.9-1,7.9-2.9,11.9-3.5
				c0.4,0,1.4-0.4,1.4-1s-0.6-0.8-1.1-0.8c-3.5,0.6-6.6,2-10.1,2.9c-3.1,1-7.3,2.4-10.1,0.1c-7.9-6.3-15.6-15.4-13.5-26.2
				C217.4,162.9,214.9,163.4,214.6,164.3L214.6,164.3z"/>
		</g>
	</g>
	<g>
		<g>
			<path class="st2" d="M163.2,175.8c12.5-0.4,25.5-1,37.7,3.4c10.5,3.6,19.8,11.4,31,12.5c0.8,0,2.9-1.1,1.5-1.4
				c-11.9-1.4-21.3-9.5-32.4-13c-11.9-3.6-24.5-3.4-36.9-2.7C163.2,174.4,161.3,175.8,163.2,175.8L163.2,175.8z"/>
		</g>
	</g>
</g>
</svg>
