<?xml version="1.0" encoding="utf-8"?>
<!-- Generator: Adobe Illustrator 25.2.3, SVG Export Plug-In . SVG Version: 6.00 Build 0)  -->
<svg version="1.1" id="Layer_1" xmlns="http://www.w3.org/2000/svg" xmlns:xlink="http://www.w3.org/1999/xlink" x="0px" y="0px"
	 viewBox="0 0 261.6 250" style="enable-background:new 0 0 261.6 250;" xml:space="preserve">
<style type="text/css">
	.st0{fill:#D8432E;}
	.st1{fill:#DD335A;}
	.st2{fill:#EE7345;}
</style>
<g>
	<g>
		<path class="st0" d="M33.2,81.8c5.9-0.8,11.8-0.9,17.7-0.5c3.7,0.3,7.4,0.8,11,1.5c3.1,0.6-4.5-0.3-1.5,0.6
			c3.6,1.1,17.9,4.1,21.4,5.6c2,0.9,4,1.6,6,2.7c2.1,1.1,4.1,2.5,6.1,3.8c1.5,0.9-3.1-1.2-1.7-0.2c2.7,1.9,14.6,8.9,17,11.1
			c1.1,1-3-1.5-2-0.5c0.6,0.6,3,2.7,3.5,3.3c1.6,1.7,3.1,3.4,4.5,5.2c2.7,3.4,7.4,9.3,9.9,12.9c0.7,1.1-3-2.8-2.2-1.7
			c2.5,3.7,5.8,8.4,8.9,12.9c2.2,3,4.3,6,6.1,8.5c1.1,1.6-2.9-2.7-1.7-1.2c0.9,1.2,7.1,8.2,8.1,9.4c1.7,2-2.9-1.5-1.1,0.3
			c2.1,2.2,10.5,9.8,12.8,11.8c3.5,3.1,7.1,6,11,8.6c3.6,2.4,7.3,4.6,11.1,6.7c1.2,0.6-4-1-2.8-0.4c3.6,1.8,8.3,3.7,13.2,5.5
			c7.3,2.7,15.2,5.1,20.9,6.2c1.1,0.3,5.5-1.8,4-1.8c-6.4-1.3-14.4-3.8-21.9-7.2c-0.9-0.4-1.8-0.9-2.7-1.3c-5-2.5-9.7-6.1-13.5-8.2
			c-1.7-0.9,2.3,2.8,0.7,1.7c-4.3-2.7-12.7-10.5-16.6-13.7c-1.3-1,1.8,2.7,0.6,1.6c-3.3-3-6.4-6.1-9.4-9.4
			c-3.7-4.1-13-19.2-16.2-23.9c-2.1-3,1.9,4.6-0.1,1.6c-0.8-1.2-5.2-9.4-6-10.6c-1.1-1.7,1.4,3.6,0.2,1.9
			c-1.9-2.7-6.1-10.1-8.1-12.7c-0.6-0.8,1.7,3.5,1.1,2.7c-2.2-2.8-7.4-8.7-9.9-11.3c-1.2-1.3,2.1,2.8,0.8,1.6
			c-2.2-2-6.7-6.3-9.1-8.1c-3.6-2.6-7.5-5-11.5-7c-2.3-1.2-11.6-6-13.9-7c-1.8-0.7,3.4,2.3,1.5,1.7c-2.1-0.7-4.2-1.4-6.3-2
			c-3.9-1.1-7.8-1.9-11.8-2.5c-8.9-1.3-18.1-1.4-26.9-0.3C32.1,80,30,82.1,33.2,81.8L33.2,81.8z"/>
	</g>
</g>
<g>
	<g>
		<path class="st1" d="M26.2,109.6c5.8-0.5,11.6-1,17.5-1.4c2-0.1-4,0.9-2,0.8c4.7-0.3,17.3-1.7,22-1.9c2.6-0.1-5,0.6-2.4,0.6
			c4.5,0,19.2-0.6,23.7-0.4c5.3,0.3-6.5,0.1-1.3,0.8c4.8,0.7,26.7,2.2,31.5,3.3c5,1.2,10,2.6,14.9,4.4c3.1,1.2-4.4-1.1-1.5,0.4
			c2.9,1.5,16.3,6.8,19.1,8.5c4.7,2.9,9.3,6.1,13.9,9.4c4.7,3.4,9.4,6.8,14.2,10c2.3,1.5-4-1-1.6,0.3c4.2,2.4,12.7,6.4,19.8,9
			c3,1.2-3.6,0-1.6,0.5c1.2,0.3,11.8,2.5,13,2.7c5.5,0.8,11.2,0.7,17-0.6c3.3-0.9,2.4-3.9-0.9-3.3c-5.4,1.2-12.9-0.4-18-1.5
			c-0.5-0.1,1.2,1.2,0.7,1.1c-4.1-1-10.9-5.3-14.8-7.2c-0.8-0.4,1.3,2,0.5,1.6c-4.8-2.6-15.8-11.8-20.3-14.9c-2.2-1.6,2,3-0.1,1.4
			c-2.5-1.8-13.3-10.4-15.8-12.1c-2.6-1.8,3,3.3,0.3,1.6c-2.8-1.7-14.2-8.7-17.1-10.2c-2.9-1.5,2.7,2.3-0.3,1.1
			c-3.7-1.5-14.3-5.8-18.2-6.9c-2-0.6,2.9,1.8,0.9,1.3c-3.6-0.9-14.9-3.9-18.6-4.6c-1.9-0.3,3.9,1.7,1.9,1.4
			c-2.3-0.3-15.3-2.6-17.7-2.8c-2.8-0.3,5.1,1.5,2.3,1.4c-5.1-0.3-22.1-0.9-27.3-0.8c-3.2,0,5.6,0.6,2.4,0.8
			c-6.4,0.2-23.2,0.5-29.6,0.9c-3,0.2,4.4,0.6,1.4,0.9c-2.5,0.2-5,0.4-7.5,0.6C24.1,106.3,22.6,109.6,26.2,109.6L26.2,109.6z"/>
	</g>
</g>
<g>
	<g>
		<path class="st1" d="M19.1,134.4c1.6-2.1,3.3-3.7,5.1-4.9c0.5-0.3-1,1.1-0.5,0.9c1.9-1,5.6-3.1,7.9-3.2c1.2-0.1,2.6-0.1,4,0
			c3.4,0.2,7.2,1,10,2.1c0.5,0.2-2-0.1-1.5,0.1c4.7,2.1,6.8,1.5,15.4,8.4c2,1.6-3-1.1-1.3,0.2c1.6,1.2,10.3,6.2,11.9,7.3
			c3.2,2.2,6.5,4.3,9.8,6.3c3.1,1.9-3.2-0.9-0.1,0.9c4,2.2,17.4,8.9,21.5,10.9c2.3,1.1-2.3-0.2,0,0.8c1.7,0.7,10.3,3.9,12.1,4.6
			c2.8,1.1-3.2-0.2-0.3,0.9c3.5,1.3,15.9,5.1,19.5,6.2c2.9,1.1-3.1,0.4,0.2,1.1c3.3,0.8,15.9,3,19,1.9c3.7-0.8,6-3,7.9-5.8
			c0.9-1.3,2-4.7,2.8-6.1c1.5-2.8-1.3,2.5,0.7,0.4s8.4-9.5,11-10.7c1.8-0.8-2.7,1.4-0.5,1.1c4.2-2.4,12.2-3,14.8-2.6
			c3.5,0.5,6.8,1.6,10,3.1c3.3,1.6,6.4,3.7,9.4,6c2.1,1.7,4.1,3.5,6,5.4c0.9,0.9-2.9-1.7-2.1-0.7c2.8,3,7.6,5.7,12.4,12.6
			c0.9,1.2,6.3-0.3,5.1-2.1c-1.6-2.1-3.3-4.3-5.1-6.4c-1.5-1.8-5-6.8-6.7-8.5c-0.7-0.8,0.5,1.8-0.3,1.1c-1.3-1.2-2.6-2.4-4-3.5
			c-2-1.6-11.9-7.8-14.1-9.2c-2.4-1.4,2.9,2.1,0.3,1.2c-2.6-0.9-5.4-1.6-8.3-1.9c-5.1-0.5-10.3-0.1-15.2,1.3c-3.6,1-6.5,3.2-9.5,5.3
			c-3,2.1-10.9,10.7-12.8,14c-1.1,2,2.8-2.2,1.6-0.3c-1.6,2.4-3.7,4.2-7.4,3.8c-2.2-0.1-4.5-0.7-6.8-1.5c-2.9-1-5.7-2.2-8.3-3
			c-1.3-0.4-10.2-4.5-11.5-4.9c-2.4-0.8,2.8,1.9,0.5,1c-2.8-1.1-5.6-2.3-8.3-3.5c-2.5-1.1-11.4-6.7-13.9-7.9c-2.3-1.1,2,2.2-0.2,1
			c-3.3-1.7-6.5-3.5-9.7-5.4c-2.1-1.3-8.3-6.4-10.4-7.8c-1.4-0.9,1.2,1.9-0.3,0.9c-1.7-1.2-10.4-8.7-12-9.9
			c-2.1-1.5,2.8,3.3,0.7,1.8c-3.4-2.4-12.1-8.6-15.7-10.6c-1.3-0.8,2.7,2.5,1.3,1.8c-5.5-2.5-15.1-4.4-21.3-4.4
			c-0.6,0,2,0.4,1.3,0.5c-3.1,0.2-6.1,0.9-8.9,2c-2.2,0.9-4.3,2.2-6.2,3.8c-1.3,1.2-2.6,2.5-3.7,4C12.8,135.9,17.9,135.6,19.1,134.4
			L19.1,134.4z"/>
	</g>
</g>
<g>
	<g>
		<path class="st2" d="M53.6,121.4c5,0.1,9.6,1.2,14.1,3c3.2,1.3-3,0.1,0.3,1c5.5,1.6,14.9,7.4,17.7,9.5c1.9,1.4,3.8,2.8,5.7,4.2
			c2.9,2-3.9-1.4-1,0.7c2.5,1.8,14.7,9.1,17.1,10.9c1.6,1.2-2.8-1-1.3,0.2c3.1,2.4,12.2,8.2,15.2,10.7c1.4,1.2-2.5-1-1.1,0.2
			c2.3,2,10,7.4,12.3,9.3c3.1,2.7,6.3,5.3,9.4,8c1.6,1.4-3-1.7-1.4,0c2.8,2.9,12,10.6,15.4,11.8c0.7,0.2-2,0.2-1.4,0.6
			c1.8,1.3,12.2-1.1,16.3-2.3c1.7-0.4-1.6,1.4,0.1,0.9c3-0.8,11.2-3.7,14.2-4.4c3.1-0.7,6.1-1.3,9.2-1.9c3.1-0.8,2.8-2.2-0.3-1.7
			c-2.9,0.7-5.9,1.4-8.9,2.2c-3,0.7-11.1,1.8-14.1,2.5c-1.2,0.3,2.6,0.2,1.4,0.4c-2.9,0.7-6,1.6-9,1.6c-1.9,0-3.8-0.3-5.5-1.3
			c-1.6-1.2-3.4-2.7-5-4.2c-0.6-0.6-1.2-1.1-1.8-1.7c-4.6-4.2-11.4-12.3-16.2-16.5c-0.6-0.5,0.8,2.8,0,2.2
			c-4.3-3.8-11.6-10.3-14.8-12.8c-1.8-1.4,2,2.5,0.2,1.1c-1.9-1.4-9.3-8.2-11.2-9.6c-1.7-1.3,2.1,2.7,0.4,1.4
			c-3-2.3-6.1-4.6-9.2-6.8c-3.3-2.4-8.6-7.4-11.9-9.8c-0.7-0.5,0.6,1.7-0.1,1.2c-3.1-2.1-6.2-4.2-9.5-6c-2.9-1.6-12.6-6-15.7-7.1
			c-2.1-0.7,2.6,1.6,0.4,1.2c-2.3-0.5-4.7-0.7-7.2-0.7C55.8,119.5,51.1,121.4,53.6,121.4L53.6,121.4z"/>
	</g>
</g>
</svg>
