<?xml version="1.0" encoding="utf-8"?>
<!-- Generator: Adobe Illustrator 25.2.3, SVG Export Plug-In . SVG Version: 6.00 Build 0)  -->
<svg version="1.1" id="Layer_1" xmlns="http://www.w3.org/2000/svg" xmlns:xlink="http://www.w3.org/1999/xlink" x="0px" y="0px"
	 viewBox="0 0 261.6 250" style="enable-background:new 0 0 261.6 250;" xml:space="preserve">
<style type="text/css">
	.st0{fill:#DD335A;}
	.st1{fill:#D8432E;}
	.st2{fill:#EE7345;}
</style>
<g>
	<g>
		<g>
			<path class="st0" d="M93.2,139.5c11.7,3.1,23.6,5.8,35.1,9.4c2.5,0.8,5,1.9,7.1,3.6c1.7,1.6,3.1,3.5,4.5,5.3
				c1.3,1.8,2.8,3.7,4.7,5.2c1.6,1.2,4.4,2.5,3.9,4.8c-0.1,0.7,1.9,0.3,2-0.3c0.4-2-1.2-3.3-2.7-4.4c-1.9-1.5-3.5-2.8-4.8-4.7
				c-1.6-2-2.9-4-4.7-5.9c-1.7-1.7-3.9-2.9-6.3-3.9c-5.8-2.1-12-3.3-17.8-4.8c-6.4-1.7-12.7-3.5-19.1-5
				C94.3,138.4,92.7,139.2,93.2,139.5L93.2,139.5z"/>
		</g>
	</g>
	<g>
		<g>
			<g>
				<path class="st1" d="M76.1,141.2c7.3,0.8,14.8,1.6,22.2,2.4c3.7,0.4,7.5,0.8,11.1,2.1c2.9,1.2,5.5,3.1,8,5
					c8.4,7.1,17.8,18.4,30.2,14.4c1.2-0.3,0.9-1.7-0.3-1.2c-6.3,2-12.7-1.1-17.6-4.8c-4.8-3.6-8.7-8.3-13.6-11.7
					c-5.3-3.7-10.9-4.7-17.2-5.3c-7.3-0.8-14.5-1.6-21.9-2.4C75.9,139.6,74.7,141,76.1,141.2L76.1,141.2z"/>
			</g>
		</g>
		<g>
			<g>
				<path class="st0" d="M63.9,153.5c4-4.3,10-5,15.5-5.5c5.9-0.7,12.5-1.2,17.2,3.1c3.7,3.3,5.6,8.1,9.5,11.2
					c3.9,3.3,9.2,3.9,14,2.9c3.1-0.7,5.6-2.1,8.4-3.5c4.3-1.9,7.5,0.3,10.8,2.9c0.7,0.7,2.5-0.4,1.6-1.1c-2.1-1.9-4.7-3.7-7.6-4
					c-2.8-0.3-5.3,1.1-7.9,2.1c-5.9,2.9-13.5,3.5-18.4-1.6c-3.9-3.7-6.1-9.4-10.9-12.2c-5.2-2.9-11.6-2.1-17.2-1.6
					c-5.9,0.7-12.2,1.9-16.6,6.3C61.4,153.9,63.4,154.1,63.9,153.5L63.9,153.5z"/>
			</g>
		</g>
		<g>
			<g>
				<path class="st0" d="M91.4,137.9c-0.1,3.6-0.3,7.1-0.3,10.7c0,3.1-0.3,6.5,0.3,9.6c0.3,2.1,2,2.9,4,3.1c3.1,0.3,6.5,0.1,9.6-0.1
					c3.1-0.3,6.4-0.9,9.4-1.7c1.6-0.3,3.1-0.8,4.7-1.2c1.2-0.3,2.9-1.1,4,0.1c0.4,0.4,0.8,1.5,1.1,2c1.2,2.9,2.4,6.3,3.9,9.1
					c1.1,1.7,2.4,2.7,4.4,2.1c1.2-0.3,0.9-1.2-0.3-1.1c-2,0.4-4-6.1-4.5-7.3c-0.8-1.9-1.5-5-3.3-6.1c-1.7-1.1-3.9-0.3-5.8,0.1
					c-3.1,0.9-6.3,1.7-9.5,2.1c-3.1,0.4-6.3,0.8-9.4,0.8c-1.5,0-3.1,0.1-4.5-0.3c-1.7-0.4-2.1-1.6-2.4-3.3
					c-0.4-6.4-0.1-12.8,0.1-19.2C93.4,136.8,91.4,137.3,91.4,137.9L91.4,137.9z"/>
			</g>
		</g>
		<g>
			<g>
				<path class="st0" d="M56.3,147.1c4.7-6.3,12.8-0.4,17.2,2.8c5,3.6,10.4,6.7,16,9.2c2.9,1.2,5.9,2.5,9.1,3.5
					c2.1,0.8,4.8,1.9,7.2,1.1c2-0.4,2.9-2,3.9-3.7c1.5-2.8,3.5-4.8,6.7-5.2c7.1-0.9,12.5,4.8,16.4,9.9c0.3,0.4,2.4-0.1,1.9-0.8
					c-3.6-4.7-8.1-9.4-14.2-10.1c-4.7-0.4-9.9,1.1-12.2,5.3c-0.9,1.7-1.5,3.9-3.9,3.7c-1.9-0.1-3.9-1.1-5.6-1.7
					c-3.5-1.1-6.7-2.5-10-4c-3.5-1.7-6.8-3.6-10.1-5.8c-2.8-1.9-5.3-3.9-8.1-5.5c-4.8-2.8-12.2-3.7-15.9,1.5
					C53.9,147.7,55.8,147.6,56.3,147.1L56.3,147.1z"/>
			</g>
		</g>
		<g>
			<g>
				<path class="st0" d="M75.6,102.5c-0.9,5.8,1.9,12.7-1.9,17.8c-1.9,2.5-5.3,2-7.9,3.9c-1.7,1.2-2.1,3.1-0.9,4.8
					c1.6,2,4.4,3.6,6.5,4.8c2.7,1.6,5.3,2.9,8,4.4c5.5,2.8,11.1,5.5,15.9,9.5c0.4,0.4,2.4-0.3,1.9-0.8c-4.4-3.6-9.4-6.3-14.4-8.7
					c-5.2-2.7-11.1-5.2-15.1-9.1c-1.5-1.5-2-3.5,0-4.7c1.1-0.8,2.5-0.8,3.7-1.2c2.1-0.8,3.9-2.1,4.8-4.3c2.7-5.3,0.3-11.1,1.2-16.7
					C77.8,101.6,75.8,102,75.6,102.5L75.6,102.5z"/>
			</g>
		</g>
		<g>
			<g>
				<path class="st0" d="M79.5,148.7c13.1,4,26.4,7.9,39.2,12.7c12.5,4.7,23.2,11.9,33.9,19.9c0.7,0.4,2.5-0.3,1.9-0.8
					c-10.8-8-21.8-15.3-34.2-20c-13-4.8-26.4-8.6-39.7-12.7C80.2,147.4,78.5,148.4,79.5,148.7L79.5,148.7z"/>
			</g>
		</g>
		<g>
			<g>
				<path class="st0" d="M121.9,177.4c10,1.5,20.2-1.6,30.2,0.3c4.8,0.9,8.6,3.3,12.3,6.1c3.7,2.8,7.5,4.8,12.2,5.3
					c0.4,0,1.1,0,1.5-0.3c0.1,0,0.8-0.4,0.3-0.4c-5.2-0.4-9.1-2.9-13-5.9c-3.5-2.7-7.2-4.7-11.6-5.5c-10-1.9-20.2,1.1-30.2-0.3
					C123.3,176.7,121.5,177.4,121.9,177.4L121.9,177.4z"/>
			</g>
		</g>
		<g>
			<g>
				<path class="st0" d="M45.2,148.9c6.1,0.7,12.3-0.4,18.4,0c6.7,0.4,12,3.5,17.2,7.5c4.4,3.5,8.4,7.3,11.6,11.9
					c1.5,2.1,2.1,5,3.9,7.1c1.2,1.7,3.5,1.9,5.5,1.9c6.7-0.3,13.2-2,19.5-4.4c1.2-0.4,0.1-1.1-0.8-0.8c-3.9,1.5-8,2.7-12,3.3
					c-1.9,0.3-3.7,0.7-5.8,0.8c-2.4,0.1-4-0.3-5.2-2.5c-1.5-2.8-2.7-5.6-4.7-8.1c-2-2.7-4.5-5.2-7.2-7.3c-5.2-4.5-10.8-8.7-17.5-10
					c-7.3-1.2-14.7,0.3-22.2-0.3C45.3,147.9,43.9,148.8,45.2,148.9L45.2,148.9z"/>
			</g>
		</g>
		<g>
			<g>
				<path class="st0" d="M71.8,144.5c5.8,0.1,10.7,3.7,15.1,7.1c4.7,3.3,9.4,6.7,13.8,10.4c2.1,1.9,4.4,3.7,6.5,5.6
					c1.7,1.6,3.5,3.9,5.6,4.7c1.9,0.7,4-0.1,5.9-0.7c3.1-0.8,6.3-1.6,9.4-2.1c1.2-0.3,1.1-0.9-0.1-0.7c-2.8,0.7-5.8,1.5-8.6,2
					c-1.9,0.4-4,1.1-5.8,0.1c-0.9-0.7-1.9-1.6-2.7-2.4c-3.9-3.6-8.1-7.2-12.3-10.4c-4.3-3.3-8.4-6.4-12.8-9.4c-3.9-2.7-8-5-12.8-5
					C72.7,143.8,70.8,144.5,71.8,144.5L71.8,144.5z"/>
			</g>
		</g>
		<g>
			<g>
				<path class="st0" d="M48.7,156.7c13-1.1,26.6-2.1,39,2.4c6.4,2.5,11.6,6.8,17.2,10.7c5.2,3.5,11.1,5.9,17.5,4.5
					c1.2-0.3,0.9-1.5-0.3-1.2c-7.3,1.6-13.9-3.1-19.5-7.3c-5.2-3.7-10.3-7.2-16.6-8.9c-11.9-3.6-24.7-2.5-37-1.5
					C47.9,155.3,47.2,156.8,48.7,156.7L48.7,156.7z"/>
			</g>
		</g>
		<g>
			<g>
				<path class="st0" d="M101.3,178.4c10.9-1.5,21,5.3,31.7,5.8c10.9,0.4,19.9-7.1,30.4-7.9c1.1-0.1,1.7-1.2,0.3-1.2
					c-10.9,0.8-20.2,8.7-31.2,7.6c-10.7-0.9-20.2-7.1-31.1-5.6C100.5,177.4,99.8,178.7,101.3,178.4L101.3,178.4z"/>
			</g>
		</g>
		<g>
			<g>
				<path class="st0" d="M81.4,138.6c6.1,8.7,12.3,17.6,21.1,23.9c9.5,6.7,21.5,7.3,31.2,13.8c5.3,3.6,9.6,8.1,13,13.6
					c0.4,0.7,2.4,0,1.9-0.8c-5.6-9.2-14.4-15.8-24.6-19.2c-5.8-1.9-11.9-3.3-17.2-6.4c-4.7-2.8-8.7-6.5-12.3-10.7
					c-4-4.7-7.6-9.9-11.2-15C82.9,137.1,80.7,137.9,81.4,138.6L81.4,138.6z"/>
			</g>
		</g>
		<g>
			<g>
				<path class="st1" d="M26,145.1c9.2,8.6,22.3,10,33.4,15.3c11.4,5.3,21.1,13.5,31.7,19.6c5.8,3.5,11.9,6.3,18.6,8
					c0.7,0.1,2.4-0.8,1.2-0.9c-12-2.9-22.2-10.3-32.3-17.2c-5-3.3-10-6.7-15.3-9.4c-5.5-2.8-11.2-4.5-17.1-6.5
					c-6.5-2.1-13.1-4.8-18.4-9.6C27.3,144,25.5,144.8,26,145.1L26,145.1z"/>
			</g>
		</g>
		<g>
			<g>
				<path class="st1" d="M109.2,132.4c12-1.6,24.7,2.9,33,11.7c4.5,4.8,7.6,10.7,11.6,16c3.5,4.8,7.5,9.1,12.3,12.3
					c5.5,3.7,11.7,6.4,18.1,7.6c0.4,0.1,2.4-0.8,1.7-0.8c-13-2.7-23.8-10.3-31.1-21.1c-3.6-5.3-6.8-10.9-11.2-15.5
					c-4-4.3-9.2-7.3-14.7-9.2c-6.1-2.1-12.8-2.8-19.2-2C108.7,131.6,107.8,132.5,109.2,132.4L109.2,132.4z"/>
			</g>
		</g>
		<g>
			<g>
				<path class="st0" d="M37.3,147.1c3.6-0.3,7.3-0.8,11.1-0.1c3.7,0.7,6.7,2.4,9.4,5.2c2.1,2.4,4,4.5,6.8,5.9
					c2.7,1.2,6.1,2.4,7.1,5.3c0.1,0.7,2.1,0,2-0.4c-0.9-2.9-3.9-4-6.5-5.3c-1.7-0.8-3.3-1.7-4.5-2.9c-1.5-1.5-2.7-2.9-4-4.4
					c-5.6-5.3-13.8-4.7-20.8-3.9C36.9,146.1,36,147.1,37.3,147.1L37.3,147.1z"/>
			</g>
		</g>
		<g>
			<g>
				<path class="st0" d="M38.7,149.6c4.8,2.5,7.9,7.2,11.6,11.1c3.9,4.3,8.9,7.3,14,9.9c5.3,2.5,10.8,5.3,16.4,6.7
					c4.8,1.2,10,0.9,14.4-1.7c0.8-0.4-1.2-0.1-1.6,0c-5.8,3.5-13,0.7-18.6-1.9c-4.5-1.9-9.1-3.9-13.5-6.4c-4.4-2.5-8.1-5.8-11.2-9.5
					c-2.8-3.3-5.6-6.8-9.5-8.9C40,148.7,38.4,149.6,38.7,149.6L38.7,149.6z"/>
			</g>
		</g>
		<g>
			<g>
				<path class="st0" d="M80.8,111.1c0.3,2.8,4.4,4.5,6.5,5.6c4.3,2.1,8.6,3.9,13,5.8c1.9,0.9,3.7,1.7,5.6,2.9
					c1.1,0.7,2.5,1.6,2.9,2.8c0.3,0.9-0.1,2.1-0.1,3.3c-0.1,1.7-0.1,3.5,0.1,5.2c0.8,3.6,3.6,5.5,6.7,7.1
					c8.7,4.5,17.5,8.6,26.6,12.5c0.8,0.3,2.4-0.8,1.2-1.2c-8-3.5-15.9-7.2-23.8-11.1c-3.5-1.7-7.5-3.3-8.4-7.3
					c-0.4-1.9-0.3-3.9-0.1-5.8c0.1-0.9,0.3-1.9,0.1-2.8c-0.8-2.7-4.7-4.4-6.8-5.5c-4-2-8.3-3.6-12.5-5.6c-2-0.9-4-1.9-5.8-3.1
					c-1.1-0.8-2.7-1.7-2.8-3.3C82.8,109.6,80.8,110.1,80.8,111.1L80.8,111.1z"/>
			</g>
		</g>
		<g>
			<g>
				<path class="st1" d="M34.1,150.9c3.3,0,6.5,0,10,0c3.1,0,6.7-0.4,9.6,0.3c2.8,0.7,5,2.5,7.9,3.5c2.8,0.8,5.6,1.1,8.4,1.2
					c0.8,0,2.1-1.1,0.8-1.2c-3.3-0.3-6.5-0.7-9.6-1.9c-2.5-1.1-4.5-2.7-7.2-2.9c-2.9-0.4-6.1-0.1-9.1-0.1c-3.3,0-6.5,0-10,0
					C34.1,149.7,32.7,150.9,34.1,150.9L34.1,150.9z"/>
			</g>
		</g>
		<g>
			<g>
				<path class="st0" d="M100.1,174.7c7.2,2.7,14,6.5,19.9,11.6c0.7,0.4,2.5-0.3,1.9-0.8c-6.1-5.2-13-9.2-20.4-11.9
					C100.8,173.4,99,174.3,100.1,174.7L100.1,174.7z"/>
			</g>
		</g>
		<g>
			<g>
				<path class="st2" d="M99.4,164.6c6.5,3.5,13.2,6.5,20.3,8.9c5.6,2,13.8,2.9,17.1,8.7c0.3,0.7,2.1-0.1,2-0.4
					c-3.1-5.5-10-6.5-15.5-8.3c-7.6-2.5-15-5.8-22-9.5C100.6,163.5,98.9,164.3,99.4,164.6L99.4,164.6z"/>
			</g>
		</g>
		<g>
			<g>
				<path class="st0" d="M112.6,192.2c-9.6-12.7-21.2-23.6-34.3-32.6c-0.7-0.4-2.5,0.4-1.6,1.1c13,8.9,24.6,19.9,34,32.3
					C111.3,193.7,113.3,192.9,112.6,192.2L112.6,192.2z"/>
			</g>
		</g>
		<g>
			<g>
				<path class="st0" d="M26.6,168.5c19.1,2.5,38.9,5.3,55,16.4c0.4,0.3,2.1-0.4,1.9-0.7c-16.3-11.2-36.2-14-55.3-16.6
					C27.7,167.5,26.1,168.3,26.6,168.5L26.6,168.5z"/>
			</g>
		</g>
		<g>
			<g>
				<path class="st0" d="M92.2,182.1c9.9,1.9,19.5,4.8,28.7,8.9c3.7,1.7,8.3,3.3,11.2,6.3c1.7,1.6,2.1,3.3,2.9,5.3
					c0.4,1.2,1.1,2.1,2.7,2.1c0.4,0,2.4-0.8,1.5-0.8c-1.7-0.1-2-2.9-2.7-4.3c-0.7-1.6-1.9-2.9-3.3-3.9c-3.5-2.8-8-4.4-12-6.1
					c-8.7-3.7-17.9-6.4-27.4-8.3C93.4,181.3,91.8,181.9,92.2,182.1L92.2,182.1z"/>
			</g>
		</g>
		<g>
			<g>
				<path class="st0" d="M125.9,188.7c6.7-0.3,13.2-0.8,20-1.1c3.3-0.1,6.1-0.3,8.4,2.1c1.6,1.6,2.8,3.5,4.8,4.5
					c0.8,0.4,2.5-0.7,1.6-1.2c-2.1-1.2-3.5-3.5-5.3-5.2c-2-1.9-4.7-2.4-7.5-2.1c-7.3,0.3-14.5,0.8-21.9,1.1
					C124.9,187.4,124.7,189,125.9,188.7L125.9,188.7z"/>
			</g>
		</g>
		<g>
			<g>
				<path class="st0" d="M107.8,179.1c6.5,0,13.2,0,19.9,0c3.3,0,6.5-0.1,9.6,0c2.5,0.1,5.2,0.4,6.4,2.8c0.4,0.8,2.4,0,1.9-0.9
					c-1.1-2-3.3-2.9-5.6-3.3c-3.1-0.4-6.3-0.1-9.4-0.1c-7.6,0-15.1,0-22.8,0C106.9,177.5,106.4,179.1,107.8,179.1L107.8,179.1z"/>
			</g>
		</g>
		<g>
			<g>
				<path class="st0" d="M49.1,171.6c11.2-2.4,23.1,0.3,32.6,6.5c2.1,1.5,4.3,3.1,6.1,5c1.9,1.9,3.5,4.5,5.8,5.8
					c2.4,1.2,5.6,1.1,8.3,1.5c3.5,0.3,7.1,0.7,10.4,0.9c0.4,0,2.4-0.9,1.2-0.9c-3.7-0.3-7.5-0.7-11.2-0.9c-3.5-0.3-6.5-0.3-9.1-2.9
					c-3.9-4.3-7.6-8-12.7-10.8c-9.4-5.3-20.6-7.2-31.2-5C48.4,171,47.6,171.9,49.1,171.6L49.1,171.6z"/>
			</g>
		</g>
		<g>
			<g>
				<path class="st1" d="M42.2,183.9c9.1-0.7,18.3-0.1,27.4,1.2c2,0.3,4.3,0.8,6.3,1.1c2,0.4,4.3,0.8,6.1,1.7
					c2.7,1.5,3.7,4.4,7.2,3.7c1.2-0.3,0.9-1.5-0.3-1.1c-1.6,0.3-2.9-2-4-2.9c-1.2-0.9-2.8-1.5-4.4-1.7c-4-0.9-8.3-1.7-12.5-2.4
					c-8.4-1.1-16.8-1.5-25.5-0.9C41.5,182.7,40.9,183.9,42.2,183.9L42.2,183.9z"/>
			</g>
		</g>
		<g>
			<g>
				<path class="st0" d="M161.4,184.5c5.9,0.8,11.2,5,13.5,10.7c0.1,0.4,2.1,0,2-0.4c-2.1-5.9-7.9-10.1-14.2-10.9
					c-0.4,0-1.1,0.1-1.5,0.3C160.9,184.1,160.9,184.5,161.4,184.5L161.4,184.5z"/>
			</g>
		</g>
		<g>
			<g>
				<path class="st0" d="M115.3,193.1c11.2-0.7,22.4-0.3,33.5,0.9c0.8,0.1,2.1-1.1,0.8-1.2c-11.4-1.2-22.8-1.6-34.2-0.9
					C114.5,191.9,113.9,193.1,115.3,193.1L115.3,193.1z"/>
			</g>
		</g>
		<g>
			<g>
				<path class="st0" d="M122.7,193.9c7.6-1.9,15.5-3.1,23.2-3.6c3.7-0.1,7.6-0.3,11.4-0.1c1.7,0,4.4,0.7,5.5-1.2
					c0.1-0.4-1.7-0.3-2,0.3c-0.1,0.3-4.3-0.1-4.7-0.1c-1.7,0-3.5,0-5.2,0c-3.1,0-6.1,0.3-9.2,0.4c-6.5,0.7-13,1.7-19.4,3.3
					C121.2,193.5,121.3,194.2,122.7,193.9L122.7,193.9z"/>
			</g>
		</g>
		<g>
			<g>
				<path class="st0" d="M124.2,176c-1.7,8.9,4.7,16.7,11.2,21.8c2.4,1.7,5.5,1.2,8,0.7c3.1-0.8,6.3-2.4,9.5-2.8
					c0.3,0,1.1-0.3,1.1-0.8s-0.4-0.7-0.9-0.7c-2.8,0.4-5.3,1.6-8.1,2.4c-2.5,0.8-5.8,1.9-8.1,0.1c-6.3-5-12.5-12.3-10.8-21
					C126.4,174.8,124.4,175.2,124.2,176L124.2,176z"/>
			</g>
		</g>
		<g>
			<g>
				<path class="st0" d="M134.2,180.6c4.3,3.1,8.9,5.3,13.9,6.8c4.4,1.5,9.5,1.9,12.8,5.3c0.4,0.4,2.4-0.1,1.9-0.8
					c-3.1-3.5-7.9-4.3-12-5.3c-5.3-1.5-10.4-3.9-14.8-7.2C135.3,179.1,133.5,180,134.2,180.6L134.2,180.6z"/>
			</g>
		</g>
		<g>
			<g>
				<path class="st2" d="M89.8,178.2c10-0.3,20.4-0.8,30.2,2.7c8.4,2.9,15.8,9.1,24.8,10c0.7,0,2.4-0.9,1.2-1.1
					c-9.5-1.1-17.1-7.6-25.9-10.4c-9.5-2.9-19.6-2.7-29.5-2.1C89.8,177.1,88.5,178.2,89.8,178.2L89.8,178.2z"/>
			</g>
		</g>
	</g>
	<g>
		<g>
			<path class="st0" d="M151.1,169c5.8,0.1,10.7,3.7,15.1,7.1c4.7,3.3,9.4,6.7,13.8,10.4c2.1,1.9,4.4,3.7,6.5,5.6
				c1.7,1.6,3.5,3.9,5.6,4.7c1.9,0.7,4-0.1,5.9-0.7c3.1-0.8,6.3-1.6,9.4-2.1c1.2-0.3,1.1-0.9-0.1-0.7c-2.8,0.7-5.8,1.5-8.6,2
				c-1.9,0.4-4,1.1-5.8,0.1c-0.9-0.7-1.9-1.6-2.7-2.4c-3.9-3.6-8.1-7.2-12.3-10.4c-4.3-3.3-8.4-6.4-12.8-9.4c-3.9-2.7-8-5-12.8-5
				C152.1,168.1,150.2,169,151.1,169L151.1,169z"/>
		</g>
	</g>
	<g>
		<g>
			<path class="st0" d="M145.8,203.6c13-1.1,26.6-2.1,39,2.4c6.4,2.5,11.6,6.8,17.2,10.7c5.2,3.5,11.1,5.9,17.5,4.5
				c1.2-0.3,0.9-1.5-0.3-1.2c-7.3,1.6-13.9-3.1-19.5-7.3c-5.2-3.7-10.3-7.2-16.6-8.9c-11.9-3.6-24.7-2.5-37-1.5
				C145,202.4,144.5,203.6,145.8,203.6L145.8,203.6z"/>
		</g>
	</g>
	<g>
		<g>
			<path class="st0" d="M106,181.8c4.8,2.5,7.9,7.2,11.6,11.1c3.9,4.3,8.9,7.3,14,9.9c5.3,2.5,10.8,5.3,16.4,6.7
				c4.8,1.2,10,0.9,14.4-1.7c0.8-0.4-1.2-0.1-1.6,0c-5.8,3.5-13,0.7-18.6-1.9c-4.5-1.9-9.1-3.9-13.5-6.4c-4.4-2.5-8.1-5.8-11.2-9.5
				c-2.8-3.3-5.6-6.8-9.5-8.9C107.5,180.9,105.9,181.7,106,181.8L106,181.8z"/>
		</g>
	</g>
	<g>
		<g>
			<path class="st0" d="M100.1,204.5c19.1,2.5,38.9,5.3,55,16.4c0.4,0.3,2.1-0.4,1.9-0.7c-16.3-11.2-36.2-14-55.3-16.6
				C101.2,203.7,99.4,204.5,100.1,204.5L100.1,204.5z"/>
		</g>
	</g>
</g>
<g>
	<g>
		<path class="st1" d="M30.9,52.8c5.6-0.7,11.2-0.9,16.8-0.5c3.5,0.3,7,0.7,10.4,1.4c2.9,0.6-4.3-0.3-1.4,0.6
			c3.4,1,16.9,3.8,20.2,5.3c1.9,0.8,3.8,1.5,5.7,2.5c2,1.1,3.9,2.4,5.8,3.6c1.4,0.9-3-1.1-1.6-0.1c2.5,1.8,13.8,8.4,16.1,10.5
			c1,0.9-2.8-1.4-1.9-0.4c0.5,0.5,2.8,2.5,3.3,3.1c1.5,1.6,2.9,3.2,4.2,4.9c2.6,3.2,7,8.8,9.3,12.2c0.7,1-2.8-2.6-2.1-1.6
			c2.4,3.5,5.4,7.9,8.4,12.2c2,2.9,4.1,5.7,5.8,8c1.1,1.5-2.7-2.6-1.6-1.1c0.9,1.2,6.7,7.8,7.7,8.9c1.6,1.9-2.8-1.5-1.1,0.3
			c2,2.1,9.9,9.2,12.1,11.1c3.3,3,6.7,5.7,10.4,8.2c3.4,2.3,6.9,4.4,10.5,6.3c1.1,0.6-3.8-1-2.6-0.4c3.4,1.7,7.8,3.5,12.5,5.2
			c6.9,2.5,14.4,4.8,19.8,5.8c1,0.2,5.2-1.7,3.7-1.7c-6.1-1.3-13.6-3.6-20.7-6.8c-0.9-0.4-1.7-0.8-2.6-1.2
			c-4.7-2.4-9.2-5.8-12.7-7.8c-1.6-0.9,2.2,2.6,0.7,1.6c-4.1-2.5-12-9.9-15.7-12.9c-1.2-1,1.7,2.6,0.5,1.5c-3.1-2.8-6.1-5.8-8.9-8.9
			c-3.5-3.9-12.3-18.2-15.3-22.6c-1.9-2.8,1.8,4.4-0.1,1.5c-0.7-1.1-4.9-8.9-5.7-10c-1.1-1.6,1.3,3.4,0.2,1.8
			c-1.8-2.6-5.8-9.6-7.6-12c-0.6-0.7,1.6,3.3,1.1,2.6c-2.1-2.7-7-8.2-9.4-10.7c-1.1-1.2,2,2.6,0.8,1.5c-2.1-1.9-6.3-6-8.6-7.7
			c-3.4-2.5-7.1-4.7-10.9-6.6c-2.1-1.1-11-5.7-13.2-6.6c-1.7-0.7,3.2,2.2,1.5,1.6c-2-0.7-4-1.3-6-1.9c-3.7-1-7.4-1.8-11.2-2.3
			c-8.4-1.2-17.1-1.3-25.5-0.3C29.9,51.1,27.9,53.1,30.9,52.8L30.9,52.8z"/>
	</g>
</g>
</svg>
