<?xml version="1.0" encoding="utf-8"?>
<!-- Generator: Adobe Illustrator 25.2.3, SVG Export Plug-In . SVG Version: 6.00 Build 0)  -->
<svg version="1.1" id="Layer_1" xmlns="http://www.w3.org/2000/svg" xmlns:xlink="http://www.w3.org/1999/xlink" x="0px" y="0px"
	 viewBox="0 0 186.4 211.6" style="enable-background:new 0 0 186.4 211.6;" xml:space="preserve">
<style type="text/css">
	.st0{fill:#DD335A;}
	.st1{fill:#D8432E;}
	.st2{fill:#EE7345;}
</style>
<g>
	<g>
		<g>
			<path class="st0" d="M56.9,118c10.4,2.8,21,5.2,31.3,8.4c2.2,0.7,4.5,1.7,6.3,3.2c1.5,1.4,2.8,3.1,4,4.7s2.5,3.3,4.2,4.6
				c1.4,1.1,3.9,2.2,3.5,4.3c-0.1,0.6,1.7,0.3,1.8-0.3c0.4-1.8-1.1-2.9-2.4-3.9c-1.7-1.3-3.1-2.5-4.3-4.2c-1.4-1.8-2.6-3.6-4.2-5.3
				c-1.5-1.5-3.5-2.6-5.6-3.5c-5.2-1.9-10.7-2.9-15.9-4.3c-5.7-1.5-11.3-3.1-17-4.5C57.9,117,56.4,117.7,56.9,118L56.9,118z"/>
		</g>
	</g>
	<g>
		<g>
			<g>
				<path class="st1" d="M46.5,117.9c6.5,0.7,13.2,1.4,19.8,2.1c3.3,0.4,6.7,0.7,9.9,1.9c2.6,1.1,4.9,2.8,7.1,4.5
					c7.5,6.3,15.9,16.4,26.9,12.8c1.1-0.3,0.8-1.5-0.3-1.1c-5.6,1.8-11.3-1-15.7-4.3c-4.3-3.2-7.8-7.4-12.1-10.4
					c-4.7-3.3-9.7-4.2-15.3-4.7c-6.5-0.7-12.9-1.4-19.5-2.1C46.3,116.5,45.2,117.7,46.5,117.9L46.5,117.9z"/>
			</g>
		</g>
		<g>
			<g>
				<path class="st0" d="M54.8,128.2c10.4-2.4,20.9,1.3,30.5,5.4s19.2,8.9,28.7,13.2c0.4,0.3,1.8-0.6,1.7-0.6
					c-10.3-4.9-20.6-9.9-31-14.3c-9.3-3.9-19.4-6.7-29.4-4.5C54.5,127.8,53.6,128.5,54.8,128.2L54.8,128.2z"/>
			</g>
		</g>
		<g>
			<g>
				<path class="st0" d="M35.6,128.9c3.6-3.8,8.9-4.5,13.8-4.9c5.3-0.6,11.1-1.1,15.3,2.8c3.3,2.9,5,7.2,8.5,10
					c3.5,2.9,8.2,3.5,12.5,2.6c2.8-0.6,5-1.9,7.5-3.1c3.8-1.7,6.7,0.3,9.6,2.6c0.6,0.6,2.2-0.4,1.4-1c-1.9-1.7-4.2-3.3-6.8-3.6
					c-2.5-0.3-4.7,1-7,1.9c-5.3,2.6-12,3.1-16.4-1.4c-3.5-3.3-5.4-8.4-9.7-10.9c-4.6-2.6-10.3-1.9-15.3-1.4
					c-5.3,0.6-10.9,1.7-14.8,5.6C33.4,129.2,35.1,129.4,35.6,128.9L35.6,128.9z"/>
			</g>
		</g>
		<g>
			<g>
				<path class="st0" d="M60.1,115c-0.1,3.2-0.3,6.3-0.3,9.5c0,2.8-0.3,5.8,0.3,8.6c0.3,1.9,1.8,2.6,3.6,2.8
					c2.8,0.3,5.8,0.1,8.6-0.1c2.8-0.3,5.7-0.8,8.4-1.5c1.4-0.3,2.8-0.7,4.2-1.1c1.1-0.3,2.6-1,3.6,0.1c0.4,0.4,0.7,1.3,1,1.8
					c1.1,2.6,2.1,5.6,3.5,8.1c1,1.5,2.1,2.4,3.9,1.9c1.1-0.3,0.8-1.1-0.3-1c-1.8,0.4-3.6-5.4-4-6.5c-0.7-1.7-1.3-4.5-2.9-5.4
					c-1.5-1-3.5-0.3-5.2,0.1c-2.8,0.8-5.6,1.5-8.5,1.9c-2.8,0.4-5.6,0.7-8.4,0.7c-1.3,0-2.8,0.1-4-0.3c-1.5-0.4-1.9-1.4-2.1-2.9
					c-0.4-5.7-0.1-11.4,0.1-17.1C61.9,114,60.1,114.4,60.1,115L60.1,115z"/>
			</g>
		</g>
		<g>
			<g>
				<path class="st0" d="M28.8,123.2c4.2-5.6,11.4-0.4,15.3,2.5c4.5,3.2,9.3,6,14.3,8.2c2.6,1.1,5.3,2.2,8.1,3.1
					c1.9,0.7,4.3,1.7,6.4,1c1.8-0.4,2.6-1.8,3.5-3.3c1.3-2.5,3.1-4.3,6-4.6c6.3-0.8,11.1,4.3,14.6,8.8c0.3,0.4,2.1-0.1,1.7-0.7
					c-3.2-4.2-7.2-8.4-12.7-9c-4.2-0.4-8.8,1-10.9,4.7c-0.8,1.5-1.3,3.5-3.5,3.3c-1.7-0.1-3.5-1-5-1.5c-3.1-1-6-2.2-8.9-3.6
					c-3.1-1.5-6.1-3.2-9-5.2c-2.5-1.7-4.7-3.5-7.2-4.9c-4.3-2.5-10.9-3.3-14.2,1.3C26.7,123.7,28.4,123.6,28.8,123.2L28.8,123.2z"/>
			</g>
		</g>
		<g>
			<g>
				<path class="st0" d="M65.8,114.5c-0.8,5.2,1.7,11.3-1.7,15.9c-1.7,2.2-4.7,1.8-7,3.5c-1.5,1.1-1.9,2.8-0.8,4.3
					c1.4,1.8,3.9,3.2,5.8,4.3c2.4,1.4,4.7,2.6,7.1,3.9c4.9,2.5,9.9,4.9,14.2,8.5c0.4,0.4,2.1-0.3,1.7-0.7c-3.9-3.2-8.4-5.6-12.8-7.8
					c-4.6-2.4-9.9-4.6-13.5-8.1c-1.3-1.3-1.8-3.1,0-4.2c1-0.7,2.2-0.7,3.3-1.1c1.9-0.7,3.5-1.9,4.3-3.8c2.4-4.7,0.3-9.9,1.1-14.9
					C67.8,113.7,66,114,65.8,114.5L65.8,114.5z"/>
			</g>
		</g>
		<g>
			<g>
				<path class="st0" d="M49.5,124.6c11.7,3.6,23.5,7,34.9,11.3c11.1,4.2,20.7,10.6,30.2,17.7c0.6,0.4,2.2-0.3,1.7-0.7
					c-9.6-7.1-19.4-13.6-30.5-17.8c-11.6-4.3-23.5-7.7-35.4-11.3C50.1,123.4,48.6,124.3,49.5,124.6L49.5,124.6z"/>
			</g>
		</g>
		<g>
			<g>
				<path class="st0" d="M72.6,144c8.9,1.3,18-1.4,26.9,0.3c4.3,0.8,7.7,2.9,11,5.4c3.3,2.5,6.7,4.3,10.9,4.7c0.4,0,1,0,1.3-0.3
					c0.1,0,0.7-0.4,0.3-0.4c-4.6-0.4-8.1-2.6-11.6-5.3c-3.1-2.4-6.4-4.2-10.3-4.9c-8.9-1.7-18,1-26.9-0.3
					C73.8,143.4,72.2,144,72.6,144L72.6,144z"/>
			</g>
		</g>
		<g>
			<g>
				<path class="st0" d="M18.9,124.8c5.4,0.6,11-0.4,16.4,0c6,0.4,10.7,3.1,15.3,6.7c3.9,3.1,7.5,6.5,10.3,10.6
					c1.3,1.9,1.9,4.5,3.5,6.3c1.1,1.5,3.1,1.7,4.9,1.7c6-0.3,11.8-1.8,17.4-3.9c1.1-0.4,0.1-1-0.7-0.7c-3.5,1.3-7.1,2.4-10.7,2.9
					c-1.7,0.3-3.3,0.6-5.2,0.7c-2.1,0.1-3.6-0.3-4.6-2.2c-1.3-2.5-2.4-5-4.2-7.2c-1.8-2.4-4-4.6-6.4-6.5c-4.6-4-9.6-7.8-15.6-8.9
					c-6.5-1.1-13.1,0.3-19.8-0.3C19,123.9,17.8,124.7,18.9,124.8L18.9,124.8z"/>
			</g>
		</g>
		<g>
			<g>
				<path class="st0" d="M42.6,120.9c5.2,0.1,9.5,3.3,13.5,6.3c4.2,2.9,8.4,6,12.3,9.3c1.9,1.7,3.9,3.3,5.8,5c1.5,1.4,3.1,3.5,5,4.2
					c1.7,0.6,3.6-0.1,5.3-0.6c2.8-0.7,5.6-1.4,8.4-1.9c1.1-0.3,1-0.8-0.1-0.6c-2.5,0.6-5.2,1.3-7.7,1.8c-1.7,0.4-3.6,1-5.2,0.1
					c-0.8-0.6-1.7-1.4-2.4-2.1c-3.5-3.2-7.2-6.4-11-9.3c-3.8-2.9-7.5-5.7-11.4-8.4c-3.5-2.4-7.1-4.5-11.4-4.5
					C43.4,120.2,41.7,120.9,42.6,120.9L42.6,120.9z"/>
			</g>
		</g>
		<g>
			<g>
				<path class="st0" d="M22,131.7c11.6-1,23.7-1.9,34.8,2.1c5.7,2.2,10.3,6.1,15.3,9.5c4.6,3.1,9.9,5.3,15.6,4
					c1.1-0.3,0.8-1.3-0.3-1.1c-6.5,1.4-12.4-2.8-17.4-6.5c-4.6-3.3-9.2-6.4-14.8-7.9c-10.6-3.2-22-2.2-33-1.3
					C21.3,130.5,20.7,131.8,22,131.7L22,131.7z"/>
			</g>
		</g>
		<g>
			<g>
				<path class="st0" d="M68.9,151.1c9.7-1.3,18.7,4.7,28.3,5.2c9.7,0.4,17.7-6.3,27.1-7c1-0.1,1.5-1.1,0.3-1.1
					c-9.7,0.7-18,7.8-27.8,6.8c-9.5-0.8-18-6.3-27.7-5C68.2,150.2,67.6,151.3,68.9,151.1L68.9,151.1z"/>
			</g>
		</g>
		<g>
			<g>
				<path class="st0" d="M51.2,115.6c5.4,7.8,11,15.7,18.8,21.3c8.5,6,19.2,6.5,27.8,12.3c4.7,3.2,8.6,7.2,11.6,12.1
					c0.4,0.6,2.1,0,1.7-0.7c-5-8.2-12.8-14.1-21.9-17.1c-5.2-1.7-10.6-2.9-15.3-5.7c-4.2-2.5-7.8-5.8-11-9.5
					c-3.6-4.2-6.8-8.8-10-13.4C52.5,114.3,50.6,115,51.2,115.6L51.2,115.6z"/>
			</g>
		</g>
		<g>
			<g>
				<path class="st1" d="M1.8,121.4c8.2,7.7,19.9,8.9,29.8,13.6c10.2,4.7,18.8,12,28.3,17.5c5.2,3.1,10.6,5.6,16.6,7.1
					c0.6,0.1,2.1-0.7,1.1-0.8c-10.7-2.6-19.8-9.2-28.8-15.3c-4.5-2.9-8.9-6-13.6-8.4c-4.9-2.5-10-4-15.2-5.8
					c-5.8-1.9-11.7-4.3-16.4-8.6C3,120.4,1.4,121.1,1.8,121.4L1.8,121.4z"/>
			</g>
		</g>
		<g>
			<g>
				<path class="st1" d="M51.6,120c10.7-1.4,22,2.6,29.4,10.4c4,4.3,6.8,9.5,10.3,14.3c3.1,4.3,6.7,8.1,11,11
					c4.9,3.3,10.4,5.7,16.1,6.8c0.4,0.1,2.1-0.7,1.5-0.7c-11.6-2.4-21.2-9.2-27.7-18.8c-3.2-4.7-6.1-9.7-10-13.8
					c-3.6-3.8-8.2-6.5-13.1-8.2c-5.4-1.9-11.4-2.5-17.1-1.8C51.2,119.3,50.4,120.1,51.6,120L51.6,120z"/>
			</g>
		</g>
		<g>
			<g>
				<path class="st0" d="M11.9,123.2c3.2-0.3,6.5-0.7,9.9-0.1c3.3,0.6,6,2.1,8.4,4.6c1.9,2.1,3.6,4,6.1,5.3c2.4,1.1,5.4,2.1,6.3,4.7
					c0.1,0.6,1.9,0,1.8-0.4c-0.8-2.6-3.5-3.6-5.8-4.7c-1.5-0.7-2.9-1.5-4-2.6c-1.3-1.3-2.4-2.6-3.6-3.9c-5-4.7-12.3-4.2-18.5-3.5
					C11.5,122.3,10.7,123.2,11.9,123.2L11.9,123.2z"/>
			</g>
		</g>
		<g>
			<g>
				<path class="st0" d="M13.1,125.4c4.3,2.2,7,6.4,10.3,9.9c3.5,3.8,7.9,6.5,12.5,8.8c4.7,2.2,9.6,4.7,14.6,6
					c4.3,1.1,8.9,0.8,12.8-1.5c0.7-0.4-1.1-0.1-1.4,0c-5.2,3.1-11.6,0.6-16.6-1.7c-4-1.7-8.1-3.5-12-5.7c-3.9-2.2-7.2-5.2-10-8.5
					c-2.5-2.9-5-6.1-8.5-7.9C14.3,124.6,12.9,125.4,13.1,125.4L13.1,125.4z"/>
			</g>
		</g>
		<g>
			<g>
				<path class="st0" d="M50.1,110.1c0.3,2.5,3.9,4,5.8,5c3.8,1.9,7.7,3.5,11.6,5.2c1.7,0.8,3.3,1.5,5,2.6c1,0.6,2.2,1.4,2.6,2.5
					c0.3,0.8-0.1,1.9-0.1,2.9c-0.1,1.5-0.1,3.1,0.1,4.6c0.7,3.2,3.2,4.9,6,6.3c7.8,4,15.6,7.7,23.7,11.1c0.7,0.3,2.1-0.7,1.1-1.1
					c-7.1-3.1-14.2-6.4-21.2-9.9c-3.1-1.5-6.7-2.9-7.5-6.5c-0.4-1.7-0.3-3.5-0.1-5.2c0.1-0.8,0.3-1.7,0.1-2.5
					c-0.7-2.4-4.2-3.9-6.1-4.9c-3.6-1.8-7.4-3.2-11.1-5c-1.8-0.8-3.6-1.7-5.2-2.8c-1-0.7-2.4-1.5-2.5-2.9
					C51.9,108.8,50.1,109.2,50.1,110.1L50.1,110.1z"/>
			</g>
		</g>
		<g>
			<g>
				<path class="st1" d="M9,126.6c2.9,0,5.8,0,8.9,0c2.8,0,6-0.4,8.6,0.3c2.5,0.6,4.5,2.2,7,3.1c2.5,0.7,5,1,7.5,1.1
					c0.7,0,1.9-1,0.7-1.1c-2.9-0.3-5.8-0.6-8.6-1.7c-2.2-1-4-2.4-6.4-2.6c-2.6-0.4-5.4-0.1-8.1-0.1c-2.9,0-5.8,0-8.9,0
					C9,125.5,7.8,126.6,9,126.6L9,126.6z"/>
			</g>
		</g>
		<g>
			<g>
				<path class="st0" d="M67.9,147.8c6.4,2.4,12.5,5.8,17.7,10.3c0.6,0.4,2.2-0.3,1.7-0.7c-5.4-4.6-11.6-8.2-18.2-10.6
					C68.5,146.6,66.9,147.4,67.9,147.8L67.9,147.8z"/>
			</g>
		</g>
		<g>
			<g>
				<path class="st2" d="M67.2,138.8c5.8,3.1,11.8,5.8,18.1,7.9c5,1.8,12.3,2.6,15.2,7.8c0.3,0.6,1.9-0.1,1.8-0.4
					c-2.8-4.9-8.9-5.8-13.8-7.4c-6.8-2.2-13.4-5.2-19.6-8.5C68.3,137.8,66.8,138.5,67.2,138.8L67.2,138.8z"/>
			</g>
		</g>
		<g>
			<g>
				<path class="st0" d="M79,163.4c-8.6-11.3-18.9-21-30.6-29.1c-0.6-0.4-2.2,0.4-1.4,1c11.6,7.9,21.9,17.7,30.3,28.8
					C77.8,164.7,79.6,164,79,163.4L79,163.4z"/>
			</g>
		</g>
		<g>
			<g>
				<path class="st0" d="M13.6,132.1c17,2.2,34.7,4.7,49,14.6c0.4,0.3,1.9-0.4,1.7-0.6c-14.5-10-32.3-12.5-49.3-14.8
					C14.6,131.2,13.1,131.9,13.6,132.1L13.6,132.1z"/>
			</g>
		</g>
		<g>
			<g>
				<path class="st0" d="M32.1,116.5c8.8,1.7,17.4,4.3,25.6,7.9c3.3,1.5,7.4,2.9,10,5.6c1.5,1.4,1.9,2.9,2.6,4.7
					c0.4,1.1,1,1.9,2.4,1.9c0.4,0,2.1-0.7,1.3-0.7c-1.5-0.1-1.8-2.6-2.4-3.8c-0.6-1.4-1.7-2.6-2.9-3.5c-3.1-2.5-7.1-3.9-10.7-5.4
					c-7.8-3.3-16-5.7-24.4-7.4C33.2,115.8,31.7,116.3,32.1,116.5L32.1,116.5z"/>
			</g>
		</g>
		<g>
			<g>
				<path class="st0" d="M90.9,160.3c6-0.3,11.8-0.7,17.8-1c2.9-0.1,5.4-0.3,7.5,1.9c1.4,1.4,2.5,3.1,4.3,4c0.7,0.4,2.2-0.6,1.4-1.1
					c-1.9-1.1-3.1-3.1-4.7-4.6c-1.8-1.7-4.2-2.1-6.7-1.9c-6.5,0.3-12.9,0.7-19.5,1C90,159.1,89.8,160.5,90.9,160.3L90.9,160.3z"/>
			</g>
		</g>
		<g>
			<g>
				<path class="st0" d="M74.7,151.7c5.8,0,11.8,0,17.7,0c2.9,0,5.8-0.1,8.6,0c2.2,0.1,4.6,0.4,5.7,2.5c0.4,0.7,2.1,0,1.7-0.8
					c-1-1.8-2.9-2.6-5-2.9c-2.8-0.4-5.6-0.1-8.4-0.1c-6.8,0-13.5,0-20.3,0C73.9,150.3,73.5,151.7,74.7,151.7L74.7,151.7z"/>
			</g>
		</g>
		<g>
			<g>
				<path class="st0" d="M22.4,145c10-2.1,20.6,0.3,29.1,5.8c1.9,1.3,3.8,2.8,5.4,4.5c1.7,1.7,3.1,4,5.2,5.2c2.1,1.1,5,1,7.4,1.3
					c3.1,0.3,6.3,0.6,9.3,0.8c0.4,0,2.1-0.8,1.1-0.8c-3.3-0.3-6.7-0.6-10-0.8c-3.1-0.3-5.8-0.3-8.1-2.6c-3.5-3.8-6.8-7.1-11.3-9.6
					c-8.4-4.7-18.4-6.4-27.8-4.5C21.8,144.5,21.1,145.3,22.4,145L22.4,145z"/>
			</g>
		</g>
		<g>
			<g>
				<path class="st1" d="M17.9,133.7c8.1-0.6,16.3-0.1,24.4,1.1c1.8,0.3,3.8,0.7,5.6,1c1.8,0.4,3.8,0.7,5.4,1.5
					c2.4,1.3,3.3,3.9,6.4,3.3c1.1-0.3,0.8-1.3-0.3-1c-1.4,0.3-2.6-1.8-3.6-2.6c-1.1-0.8-2.5-1.3-3.9-1.5c-3.6-0.8-7.4-1.5-11.1-2.1
					c-7.5-1-15-1.3-22.7-0.8C17.2,132.6,16.7,133.7,17.9,133.7L17.9,133.7z"/>
			</g>
		</g>
		<g>
			<g>
				<path class="st0" d="M88,143.1c5.3,0.7,10,4.5,12,9.5c0.1,0.4,1.9,0,1.8-0.4c-1.9-5.3-7-9-12.7-9.7c-0.4,0-1,0.1-1.3,0.3
					C87.5,142.8,87.5,143.1,88,143.1L88,143.1z"/>
			</g>
		</g>
		<g>
			<g>
				<path class="st0" d="M81.4,164.2c10-0.6,20-0.3,29.9,0.8c0.7,0.1,1.9-1,0.7-1.1c-10.2-1.1-20.3-1.4-30.5-0.8
					C80.7,163.1,80.2,164.2,81.4,164.2L81.4,164.2z"/>
			</g>
		</g>
		<g>
			<g>
				<path class="st0" d="M88,164.9c6.8-1.7,13.8-2.8,20.7-3.2c3.3-0.1,6.8-0.3,10.2-0.1c1.5,0,3.9,0.6,4.9-1.1
					c0.1-0.4-1.5-0.3-1.8,0.3c-0.1,0.3-3.8-0.1-4.2-0.1c-1.5,0-3.1,0-4.6,0c-2.8,0-5.4,0.3-8.2,0.4c-5.8,0.6-11.6,1.5-17.3,2.9
					C86.7,164.5,86.8,165.2,88,164.9L88,164.9z"/>
			</g>
		</g>
		<g>
			<g>
				<path class="st0" d="M89.3,148.9c-1.5,7.9,4.2,14.9,10,19.4c2.1,1.5,4.9,1.1,7.1,0.6c2.8-0.7,5.6-2.1,8.5-2.5c0.3,0,1-0.3,1-0.7
					s-0.4-0.6-0.8-0.6c-2.5,0.4-4.7,1.4-7.2,2.1c-2.2,0.7-5.2,1.7-7.2,0.1c-5.6-4.5-11.1-11-9.6-18.7
					C91.3,147.9,89.5,148.2,89.3,148.9L89.3,148.9z"/>
			</g>
		</g>
		<g>
			<g>
				<path class="st0" d="M98.3,153c3.8,2.8,7.9,4.7,12.4,6.1c3.9,1.3,8.5,1.7,11.4,4.7c0.4,0.4,2.1-0.1,1.7-0.7
					c-2.8-3.1-7-3.8-10.7-4.7c-4.7-1.3-9.3-3.5-13.2-6.4C99.2,151.7,97.6,152.5,98.3,153L98.3,153z"/>
			</g>
		</g>
		<g>
			<g>
				<path class="st2" d="M58.7,150.9c8.9-0.3,18.2-0.7,26.9,2.4c7.5,2.6,14.1,8.1,22.1,8.9c0.6,0,2.1-0.8,1.1-1
					c-8.5-1-15.2-6.8-23.1-9.3c-8.5-2.6-17.5-2.4-26.3-1.9C58.7,149.9,57.5,150.9,58.7,150.9L58.7,150.9z"/>
			</g>
		</g>
	</g>
	<g>
		<g>
			<path class="st1" d="M89.3,126.9c6.5,0.7,13.2,1.4,19.8,2.1c3.3,0.4,6.7,0.7,9.9,1.9c2.6,1.1,4.9,2.8,7.1,4.5
				c7.5,6.3,15.9,16.4,26.9,12.8c1.1-0.3,0.8-1.5-0.3-1.1c-5.6,1.8-11.3-1-15.7-4.3c-4.3-3.2-7.8-7.4-12.1-10.4
				c-4.7-3.3-9.7-4.2-15.3-4.7c-6.5-0.7-12.9-1.4-19.5-2.1C89.2,125.5,88.2,126.8,89.3,126.9L89.3,126.9z"/>
		</g>
	</g>
	<g>
		<g>
			<path class="st0" d="M97.7,137.2c10.4-2.4,20.9,1.3,30.5,5.4c9.6,4.2,19.2,8.9,28.7,13.2c0.4,0.3,1.8-0.6,1.7-0.6
				c-10.3-4.9-20.6-9.9-31-14.3c-9.3-3.9-19.4-6.7-29.4-4.5C97.4,136.8,96.4,137.5,97.7,137.2L97.7,137.2z"/>
		</g>
	</g>
	<g>
		<g>
			<path class="st0" d="M78.5,137.9c3.6-3.8,8.9-4.5,13.8-4.9c5.3-0.6,11.1-1.1,15.3,2.8c3.3,2.9,5,7.2,8.5,10
				c3.5,2.9,8.2,3.5,12.5,2.6c2.8-0.6,5-1.9,7.5-3.1c3.8-1.7,6.7,0.3,9.6,2.6c0.6,0.6,2.2-0.4,1.4-1c-1.9-1.7-4.2-3.3-6.8-3.6
				c-2.5-0.3-4.7,1-7,1.9c-5.3,2.6-12,3.1-16.4-1.4c-3.5-3.3-5.4-8.4-9.7-10.9c-4.6-2.6-10.3-1.9-15.3-1.4
				c-5.3,0.6-10.9,1.7-14.8,5.6C76.3,138.2,77.9,138.6,78.5,137.9L78.5,137.9z"/>
		</g>
	</g>
	<g>
		<g>
			<path class="st0" d="M103,124c-0.1,3.2-0.3,6.3-0.3,9.5c0,2.8-0.3,5.8,0.3,8.6c0.3,1.9,1.8,2.6,3.6,2.8c2.8,0.3,5.8,0.1,8.6-0.1
				c2.8-0.3,5.7-0.8,8.4-1.5c1.4-0.3,2.8-0.7,4.2-1.1c1.1-0.3,2.6-1,3.6,0.1c0.4,0.4,0.7,1.3,1,1.8c1.1,2.6,2.1,5.6,3.5,8.1
				c1,1.5,2.1,2.4,3.9,1.9c1.1-0.3,0.8-1.1-0.3-1c-1.8,0.4-3.6-5.4-4-6.5c-0.7-1.7-1.3-4.5-2.9-5.4c-1.5-1-3.5-0.3-5.2,0.1
				c-2.8,0.8-5.6,1.5-8.5,1.9c-2.8,0.4-5.6,0.7-8.4,0.7c-1.3,0-2.8,0.1-4-0.3c-1.5-0.4-1.9-1.4-2.1-2.9c-0.4-5.7-0.1-11.4,0.1-17.1
				C104.8,123,103,123.4,103,124L103,124z"/>
		</g>
	</g>
	<g>
		<g>
			<path class="st0" d="M71.7,132.2c4.2-5.6,11.4-0.4,15.3,2.5c4.5,3.2,9.3,6,14.3,8.2c2.6,1.1,5.3,2.2,8.1,3.1
				c1.9,0.7,4.3,1.7,6.4,1c1.8-0.4,2.6-1.8,3.5-3.3c1.3-2.5,3.1-4.3,6-4.6c6.3-0.8,11.1,4.3,14.6,8.8c0.3,0.4,2.1-0.1,1.7-0.7
				c-3.2-4.2-7.2-8.4-12.7-9c-4.2-0.4-8.8,1-10.9,4.7c-0.8,1.5-1.3,3.5-3.5,3.3c-1.7-0.1-3.5-1-5-1.5c-3.1-1-6-2.2-8.9-3.6
				c-3.1-1.5-6.1-3.2-9-5.2c-2.5-1.7-4.7-3.5-7.2-4.9c-4.3-2.5-10.9-3.3-14.2,1.3C69.6,132.8,71.4,132.6,71.7,132.2L71.7,132.2z"/>
		</g>
	</g>
	<g>
		<g>
			<path class="st0" d="M121.1,144.9c-0.8,5.2,1.7,11.3-1.7,15.9c-1.7,2.2-4.7,1.8-7,3.5c-1.5,1.1-1.9,2.8-0.8,4.3
				c1.4,1.8,3.9,3.2,5.8,4.3c2.4,1.4,4.7,2.6,7.1,3.9c4.9,2.5,9.9,4.9,14.2,8.5c0.4,0.4,2.1-0.3,1.7-0.7c-3.9-3.2-8.4-5.6-12.8-7.8
				c-4.6-2.4-9.9-4.6-13.5-8.1c-1.3-1.3-1.8-3.1,0-4.2c1-0.7,2.2-0.7,3.3-1.1c1.9-0.7,3.5-1.9,4.3-3.8c2.4-4.7,0.3-9.9,1.1-14.9
				C123,144,121.2,144.3,121.1,144.9L121.1,144.9z"/>
		</g>
	</g>
	<g>
		<g>
			<path class="st0" d="M92.4,133.6c11.7,3.6,23.5,7,34.9,11.3c11.1,4.2,20.7,10.6,30.2,17.7c0.6,0.4,2.2-0.3,1.7-0.7
				c-9.6-7.1-19.4-13.6-30.5-17.8c-11.6-4.3-23.5-7.7-35.4-11.3C93,132.5,91.4,133.3,92.4,133.6L92.4,133.6z"/>
		</g>
	</g>
	<g>
		<g>
			<path class="st0" d="M74.2,155.2c5.4,0.6,11-0.4,16.4,0c6,0.4,10.7,3.1,15.3,6.7c3.9,3.1,7.5,6.5,10.3,10.6
				c1.3,1.9,1.9,4.5,3.5,6.3c1.1,1.5,3.1,1.7,4.9,1.7c6-0.3,11.8-1.8,17.4-3.9c1.1-0.4,0.1-1-0.7-0.7c-3.5,1.3-7.1,2.4-10.7,2.9
				c-1.7,0.3-3.3,0.6-5.2,0.7c-2.1,0.1-3.6-0.3-4.6-2.2c-1.3-2.5-2.4-5-4.2-7.2c-1.8-2.4-4-4.6-6.4-6.5c-4.6-4-9.6-7.8-15.6-8.9
				c-6.5-1.1-13.1,0.3-19.8-0.3C74.2,154.1,73.1,155,74.2,155.2L74.2,155.2z"/>
		</g>
	</g>
	<g>
		<g>
			<path class="st0" d="M97.8,151.3c5.2,0.1,9.5,3.3,13.5,6.3c4.2,2.9,8.4,6,12.3,9.3c1.9,1.7,3.9,3.3,5.8,5c1.5,1.4,3.1,3.5,5,4.2
				c1.7,0.6,3.6-0.1,5.3-0.6c2.8-0.7,5.6-1.4,8.4-1.9c1.1-0.3,1-0.8-0.1-0.6c-2.5,0.6-5.2,1.3-7.7,1.8c-1.7,0.4-3.6,1-5.2,0.1
				c-0.8-0.6-1.7-1.4-2.4-2.1c-3.5-3.2-7.2-6.4-11-9.3c-3.8-2.9-7.5-5.7-11.4-8.4c-3.5-2.4-7.1-4.5-11.4-4.5
				C98.7,150.5,97,151.3,97.8,151.3L97.8,151.3z"/>
		</g>
	</g>
	<g>
		<g>
			<path class="st0" d="M77.2,162c11.6-1,23.7-1.9,34.8,2.1c5.7,2.2,10.3,6.1,15.3,9.5c4.6,3.1,9.9,5.3,15.6,4
				c1.1-0.3,0.8-1.3-0.3-1.1c-6.5,1.4-12.4-2.8-17.4-6.5c-4.6-3.3-9.2-6.4-14.8-7.9c-10.6-3.2-22-2.2-33-1.3
				C76.5,160.9,76,162,77.2,162L77.2,162z"/>
		</g>
	</g>
	<g>
		<g>
			<path class="st0" d="M124,181.5c9.7-1.3,18.7,4.7,28.3,5.2c9.7,0.4,17.7-6.3,27.1-7c1-0.1,1.5-1.1,0.3-1.1
				c-9.7,0.7-18,7.8-27.8,6.8c-9.5-0.8-18-6.3-27.7-5C123.5,180.5,122.8,181.6,124,181.5L124,181.5z"/>
		</g>
	</g>
	<g>
		<g>
			<path class="st0" d="M94.1,124.7c5.4,7.8,11,15.7,18.8,21.3c8.5,6,19.2,6.5,27.8,12.3c4.7,3.2,8.6,7.2,11.6,12.1
				c0.4,0.6,2.1,0,1.7-0.7c-5-8.2-12.8-14.1-21.9-17.1c-5.2-1.7-10.6-2.9-15.3-5.7c-4.2-2.5-7.8-5.8-11-9.5
				c-3.6-4.2-6.8-8.8-10-13.4C95.3,123.3,93.7,124,94.1,124.7L94.1,124.7z"/>
		</g>
	</g>
	<g>
		<g>
			<path class="st1" d="M57,151.7c8.2,7.7,20,8.9,29.9,13.6c10,4.7,18.7,11.8,28.1,17.5c5.2,3.1,10.6,5.6,16.4,7.1
				c0.4,0.1,1.9-0.6,1.5-0.7c-10.7-2.6-19.8-9.2-28.8-15.2c-4.6-3.1-9.2-6.1-14.1-8.5c-4.9-2.5-10-4-15.2-5.8
				c-5.8-1.9-11.7-4.3-16.1-8.6C58.4,150.7,56.8,151.4,57,151.7L57,151.7z"/>
		</g>
	</g>
	<g>
		<g>
			<path class="st1" d="M94.6,129c10.7-1.4,22,2.6,29.4,10.4c4,4.3,6.8,9.5,10.3,14.3c3.1,4.3,6.7,8.1,11,11
				c4.9,3.3,10.4,5.7,16.1,6.8c0.4,0.1,2.1-0.7,1.5-0.7c-11.6-2.4-21.2-9.2-27.7-18.8c-3.2-4.7-6.1-9.7-10-13.8
				c-3.6-3.8-8.2-6.5-13.1-8.2c-5.4-1.9-11.4-2.5-17.1-1.8C94.1,128.3,93.4,129.2,94.6,129L94.6,129z"/>
		</g>
	</g>
	<g>
		<g>
			<path class="st0" d="M111.1,132.2c3.2-0.3,6.5-0.7,9.9-0.1s6,2.1,8.4,4.6c1.9,2.1,3.6,4,6.1,5.3c2.4,1.1,5.4,2.1,6.3,4.7
				c0.1,0.6,1.9,0,1.8-0.4c-0.8-2.6-3.5-3.6-5.8-4.7c-1.5-0.7-2.9-1.5-4-2.6c-1.3-1.3-2.4-2.6-3.6-3.9c-5-4.7-12.3-4.2-18.5-3.5
				C110.6,131.4,109.8,132.4,111.1,132.2L111.1,132.2z"/>
		</g>
	</g>
	<g>
		<g>
			<path class="st0" d="M68.3,155.7c4.3,2.2,7,6.4,10.3,9.9c3.5,3.8,7.9,6.5,12.5,8.8c4.7,2.2,9.6,4.7,14.6,6
				c4.3,1.1,8.9,0.8,12.8-1.5c0.7-0.4-1.1-0.1-1.4,0c-5.2,3.1-11.6,0.6-16.6-1.7c-4-1.7-8.1-3.5-12-5.7c-3.9-2.2-7.2-5.2-10-8.5
				c-2.5-2.9-5-6.1-8.5-7.9C69.6,154.9,68.2,155.6,68.3,155.7L68.3,155.7z"/>
		</g>
	</g>
	<g>
		<g>
			<path class="st0" d="M93.1,119.1c0.3,2.5,3.9,4,5.8,5c3.8,1.9,7.7,3.5,11.6,5.2c1.7,0.8,3.3,1.5,5,2.6c1,0.6,2.2,1.4,2.6,2.5
				c0.3,0.8-0.1,1.9-0.1,2.9c-0.1,1.5-0.1,3.1,0.1,4.6c0.7,3.2,3.2,4.9,6,6.3c7.8,4,15.6,7.7,23.7,11.1c0.7,0.3,2.1-0.7,1.1-1.1
				c-7.1-3.1-14.2-6.4-21.2-9.9c-3.1-1.5-6.7-2.9-7.5-6.5c-0.4-1.7-0.3-3.5-0.1-5.2c0.1-0.8,0.3-1.7,0.1-2.5
				c-0.7-2.4-4.2-3.9-6.1-4.9c-3.6-1.8-7.4-3.2-11.1-5c-1.8-0.8-3.6-1.7-5.2-2.8c-1-0.7-2.4-1.5-2.5-2.9
				C94.8,117.9,93,118.3,93.1,119.1L93.1,119.1z"/>
		</g>
	</g>
	<g>
		<g>
			<path class="st1" d="M108.1,135.7c2.9,0,5.8,0,8.9,0c2.8,0,6-0.4,8.6,0.3c2.5,0.6,4.5,2.2,7,3.1c2.5,0.7,5,1,7.5,1.1
				c0.7,0,1.9-1,0.7-1.1c-2.9-0.3-5.8-0.6-8.6-1.7c-2.2-1-4-2.4-6.4-2.6c-2.6-0.4-5.4-0.1-8.1-0.1c-2.9,0-5.8,0-8.9,0
				C108.1,134.6,106.9,135.7,108.1,135.7L108.1,135.7z"/>
		</g>
	</g>
	<g>
		<g>
			<path class="st0" d="M123.2,178.2c6.4,2.4,12.5,5.8,17.7,10.3c0.6,0.4,2.2-0.3,1.7-0.7c-5.4-4.6-11.6-8.2-18.2-10.6
				C123.7,176.9,122.2,177.7,123.2,178.2L123.2,178.2z"/>
		</g>
	</g>
	<g>
		<g>
			<path class="st2" d="M122.5,169c5.8,3.1,11.8,5.8,18.1,7.9c5,1.8,12.3,2.6,15.2,7.8c0.3,0.6,1.9-0.1,1.8-0.4
				c-2.8-4.9-8.9-5.8-13.8-7.4c-6.8-2.2-13.4-5.2-19.6-8.5C123.6,168.1,122.1,168.8,122.5,169L122.5,169z"/>
		</g>
	</g>
	<g>
		<g>
			<path class="st0" d="M134.3,193.6c-8.6-11.3-18.9-21-30.6-29.1c-0.6-0.4-2.2,0.4-1.4,1c11.6,7.9,21.9,17.7,30.3,28.8
				C133.1,194.9,134.9,194.3,134.3,193.6L134.3,193.6z"/>
		</g>
	</g>
	<g>
		<g>
			<path class="st0" d="M68.9,162.3c17,2.2,34.7,4.7,49,14.6c0.4,0.3,1.9-0.4,1.7-0.6c-14.5-10-32.3-12.5-49.3-14.8
				C69.9,161.6,68.3,162.3,68.9,162.3L68.9,162.3z"/>
		</g>
	</g>
	<g>
		<g>
			<path class="st0" d="M75,125.5c8.8,1.7,17.4,4.3,25.6,7.9c3.3,1.5,7.4,2.9,10,5.6c1.5,1.4,1.9,2.9,2.6,4.7c0.4,1.1,1,1.9,2.4,1.9
				c0.4,0,2.1-0.7,1.3-0.7c-1.5-0.1-1.8-2.6-2.4-3.8c-0.6-1.4-1.7-2.6-2.9-3.5c-3.1-2.5-7.1-3.9-10.7-5.4c-7.8-3.3-16-5.7-24.4-7.4
				C76.1,124.8,74.6,125.4,75,125.5L75,125.5z"/>
		</g>
	</g>
	<g>
		<g>
			<path class="st0" d="M130,181.9c5.8,0,11.8,0,17.7,0c2.9,0,5.8-0.1,8.6,0c2.2,0.1,4.6,0.4,5.7,2.5c0.4,0.7,2.1,0,1.7-0.8
				c-1-1.8-2.9-2.6-5-2.9c-2.8-0.4-5.6-0.1-8.4-0.1c-6.8,0-13.5,0-20.3,0C129.2,180.7,128.7,181.9,130,181.9L130,181.9z"/>
		</g>
	</g>
	<g>
		<g>
			<path class="st0" d="M77.7,175.4c10-2.1,20.6,0.3,29.1,5.8c1.9,1.3,3.8,2.8,5.4,4.5c1.7,1.7,3.1,4,5.2,5.2c2.1,1.1,5,1,7.4,1.3
				c3.1,0.3,6.3,0.6,9.3,0.8c0.4,0,2.1-0.8,1.1-0.8c-3.3-0.3-6.7-0.6-10-0.8c-3.1-0.3-5.8-0.3-8.1-2.6c-3.5-3.8-6.8-7.1-11.3-9.6
				c-8.4-4.7-18.4-6.4-27.8-4.5C77.1,174.7,76.4,175.7,77.7,175.4L77.7,175.4z"/>
		</g>
	</g>
	<g>
		<g>
			<path class="st1" d="M102.7,153.8c8.1-0.6,16.3-0.1,24.4,1.1c1.8,0.3,3.8,0.7,5.6,1c1.8,0.4,3.8,0.7,5.4,1.5
				c2.4,1.3,3.3,3.9,6.4,3.3c1.1-0.3,0.8-1.3-0.3-1c-1.4,0.3-2.6-1.8-3.6-2.6c-1.1-0.8-2.5-1.3-3.9-1.5c-3.6-0.8-7.4-1.5-11.1-2.1
				c-7.5-1-15-1.3-22.7-0.8C102,152.7,101.5,153.8,102.7,153.8L102.7,153.8z"/>
		</g>
	</g>
	<g>
		<g>
			<path class="st0" d="M142.8,188.3c10-0.6,20-0.3,29.9,0.8c0.7,0.1,1.9-1,0.7-1.1c-10.2-1.1-20.3-1.4-30.5-0.8
				C142.1,187.2,141.6,188.5,142.8,188.3L142.8,188.3z"/>
		</g>
	</g>
	<g>
		<g>
			<path class="st0" d="M149.4,189.2c6.8-1.7,13.8-2.8,20.7-3.2c3.3-0.1,6.8-0.3,10.2-0.1c1.5,0,3.9,0.6,4.9-1.1
				c0.1-0.4-1.5-0.3-1.8,0.3c-0.1,0.3-3.8-0.1-4.2-0.1c-1.5,0-3.1,0-4.6,0c-2.8,0-5.4,0.3-8.2,0.4c-5.8,0.6-11.6,1.5-17.3,2.9
				C148.1,188.6,148.2,189.4,149.4,189.2L149.4,189.2z"/>
		</g>
	</g>
	<g>
		<g>
			<path class="st0" d="M150.7,173c-1.5,7.9,4.2,14.9,10,19.4c2.1,1.5,4.9,1.1,7.1,0.6c2.8-0.7,5.6-2.1,8.5-2.5c0.3,0,1-0.3,1-0.7
				s-0.4-0.6-0.8-0.6c-2.5,0.4-4.7,1.4-7.2,2.1c-2.2,0.7-5.2,1.7-7.2,0.1c-5.6-4.5-11.1-11-9.6-18.7
				C152.7,172,150.9,172.3,150.7,173L150.7,173z"/>
		</g>
	</g>
	<g>
		<g>
			<path class="st2" d="M114,181.2c8.9-0.3,18.2-0.7,26.9,2.4c7.5,2.6,14.1,8.1,22.1,8.9c0.6,0,2.1-0.8,1.1-1
				c-8.5-1-15.2-6.8-23.1-9.3c-8.5-2.6-17.5-2.4-26.3-1.9C114,180.2,112.7,181.2,114,181.2L114,181.2z"/>
		</g>
	</g>
</g>
</svg>
