<?xml version="1.0" encoding="utf-8"?>
<!-- Generator: Adobe Illustrator 25.2.3, SVG Export Plug-In . SVG Version: 6.00 Build 0)  -->
<svg version="1.1" id="Layer_1" xmlns="http://www.w3.org/2000/svg" xmlns:xlink="http://www.w3.org/1999/xlink" x="0px" y="0px"
	 viewBox="0 0 261.6 124.9" style="enable-background:new 0 0 261.6 124.9;" xml:space="preserve">
<style type="text/css">
	.st0{fill:#DD335A;}
	.st1{fill:#D8432E;}
	.st2{fill:#EE7345;}
</style>
<g>
	<g>
		<g>
			<path class="st0" d="M80,15.1c14.6,3.9,29.4,7.3,43.9,11.8c3.1,1,6.3,2.4,8.8,4.5c2.1,2,3.9,4.3,5.6,6.6s3.5,4.6,5.9,6.5
				c2,1.5,5.5,3.1,4.9,6c-0.1,0.8,2.4,0.4,2.5-0.4c0.6-2.5-1.5-4.1-3.4-5.5c-2.4-1.8-4.3-3.5-6-5.9c-2-2.5-3.6-5-5.9-7.4
				c-2.1-2.1-4.9-3.6-7.9-4.9c-7.3-2.7-15-4.1-22.3-6c-8-2.1-15.8-4.3-23.8-6.3C81.4,13.7,79.3,14.7,80,15.1L80,15.1z"/>
		</g>
	</g>
	<g>
		<g>
			<g>
				<path class="st1" d="M65.4,15c9.1,1,18.5,2,27.8,2.9c4.6,0.6,9.4,1,13.9,2.7c3.6,1.5,6.9,3.9,10,6.3c10.5,8.8,22.3,23,37.7,17.9
					c1.5-0.4,1.1-2.1-0.4-1.5c-7.9,2.5-15.8-1.4-22-6c-6-4.5-10.9-10.4-17-14.6c-6.6-4.6-13.6-5.9-21.5-6.6c-9.1-1-18.1-2-27.3-2.9
					C65.1,13,63.5,14.7,65.4,15L65.4,15z"/>
			</g>
		</g>
		<g>
			<g>
				<path class="st0" d="M77,29.4c14.6-3.4,29.3,1.8,42.8,7.6s26.9,12.5,40.2,18.5c0.6,0.4,2.5-0.8,2.4-0.8
					c-14.4-6.9-28.9-13.9-43.5-20.1c-13-5.5-27.2-9.4-41.2-6.3C76.6,28.8,75.3,29.8,77,29.4L77,29.4z"/>
			</g>
		</g>
		<g>
			<g>
				<path class="st0" d="M50.1,30.4c5-5.3,12.5-6.3,19.4-6.9c7.4-0.8,15.6-1.5,21.5,3.9c4.6,4.1,7,10.1,11.9,14
					c4.9,4.1,11.5,4.9,17.5,3.6c3.9-0.8,7-2.7,10.5-4.3c5.3-2.4,9.4,0.4,13.5,3.6c0.8,0.8,3.1-0.6,2-1.4c-2.7-2.4-5.9-4.6-9.5-5
					c-3.5-0.4-6.6,1.4-9.8,2.7c-7.4,3.6-16.8,4.3-23-2C99,34,96.4,26.9,90.3,23.4c-6.5-3.6-14.4-2.7-21.5-2
					c-7.4,0.8-15.3,2.4-20.8,7.9C47,30.8,49.4,31.1,50.1,30.4L50.1,30.4z"/>
			</g>
		</g>
		<g>
			<g>
				<path class="st0" d="M84.4,10.9c-0.1,4.5-0.4,8.8-0.4,13.3c0,3.9-0.4,8.1,0.4,12.1c0.4,2.7,2.5,3.6,5,3.9
					c3.9,0.4,8.1,0.1,12.1-0.1c3.9-0.4,8-1.1,11.8-2.1c2-0.4,3.9-1,5.9-1.5c1.5-0.4,3.6-1.4,5,0.1c0.6,0.6,1,1.8,1.4,2.5
					c1.5,3.6,2.9,7.9,4.9,11.4c1.4,2.1,2.9,3.4,5.5,2.7c1.5-0.4,1.1-1.5-0.4-1.4c-2.5,0.6-5-7.6-5.6-9.1c-1-2.4-1.8-6.3-4.1-7.6
					c-2.1-1.4-4.9-0.4-7.3,0.1c-3.9,1.1-7.9,2.1-11.9,2.7c-3.9,0.6-7.9,1-11.8,1c-1.8,0-3.9,0.1-5.6-0.4c-2.1-0.6-2.7-2-2.9-4.1
					c-0.6-8-0.1-16,0.1-24C87,9.5,84.4,10.1,84.4,10.9L84.4,10.9z"/>
			</g>
		</g>
		<g>
			<g>
				<path class="st0" d="M40.6,22.4c5.9-7.9,16-0.6,21.5,3.5c6.3,4.5,13,8.4,20.1,11.5c3.6,1.5,7.4,3.1,11.4,4.3c2.7,1,6,2.4,9,1.4
					c2.5-0.6,3.6-2.5,4.9-4.6c1.8-3.5,4.3-6,8.4-6.5c8.8-1.1,15.6,6,20.5,12.3c0.4,0.6,2.9-0.1,2.4-1c-4.5-5.9-10.1-11.8-17.8-12.6
					c-5.9-0.6-12.3,1.4-15.3,6.6c-1.1,2.1-1.8,4.9-4.9,4.6c-2.4-0.1-4.9-1.4-7-2.1c-4.3-1.4-8.4-3.1-12.5-5
					c-4.3-2.1-8.6-4.5-12.6-7.3c-3.5-2.4-6.6-4.9-10.1-6.9c-6-3.5-15.3-4.6-19.9,1.8C37.6,23.1,40,23,40.6,22.4L40.6,22.4z"/>
			</g>
		</g>
		<g>
			<g>
				<path class="st0" d="M92.4,10.2C91.3,17.5,94.8,26,90,32.5c-2.4,3.1-6.6,2.5-9.8,4.9c-2.1,1.5-2.7,3.9-1.1,6
					c2,2.5,5.5,4.5,8.1,6c3.4,2,6.6,3.6,10,5.5c6.9,3.5,13.9,6.9,19.9,11.9c0.6,0.6,2.9-0.4,2.4-1c-5.5-4.5-11.8-7.9-17.9-10.9
					c-6.5-3.4-13.9-6.5-18.9-11.4c-1.8-1.8-2.5-4.3,0-5.9c1.4-1,3.1-1,4.6-1.5c2.7-1,4.9-2.7,6-5.3c3.4-6.6,0.4-13.9,1.5-20.9
					C95.2,9.1,92.7,9.5,92.4,10.2L92.4,10.2z"/>
			</g>
		</g>
		<g>
			<g>
				<path class="st0" d="M69.6,24.4c16.4,5,33,9.8,48.9,15.8c15.6,5.9,29,14.9,42.3,24.8c0.8,0.6,3.1-0.4,2.4-1
					c-13.5-10-27.2-19.1-42.8-25c-16.3-6-33-10.8-49.6-15.8C70.4,22.7,68.3,23.9,69.6,24.4L69.6,24.4z"/>
			</g>
		</g>
		<g>
			<g>
				<path class="st0" d="M102,51.6c12.5,1.8,25.2-2,37.7,0.4c6,1.1,10.8,4.1,15.4,7.6s9.4,6,15.3,6.6c0.6,0,1.4,0,1.8-0.4
					c0.1,0,1-0.6,0.4-0.6c-6.5-0.6-11.4-3.6-16.3-7.4c-4.3-3.4-9-5.9-14.4-6.9c-12.5-2.4-25.2,1.4-37.7-0.4
					C103.7,50.7,101.4,51.6,102,51.6L102,51.6z"/>
			</g>
		</g>
		<g>
			<g>
				<path class="st0" d="M26.7,24.6c7.6,0.8,15.4-0.6,23,0c8.4,0.6,15,4.3,21.5,9.4c5.5,4.3,10.5,9.1,14.4,14.9
					c1.8,2.7,2.7,6.3,4.9,8.8c1.5,2.1,4.3,2.4,6.9,2.4c8.4-0.4,16.5-2.5,24.4-5.5c1.5-0.6,0.1-1.4-1-1c-4.9,1.8-10,3.4-15,4.1
					c-2.4,0.4-4.6,0.8-7.3,1c-2.9,0.1-5-0.4-6.5-3.1c-1.8-3.5-3.4-7-5.9-10.1c-2.5-3.4-5.6-6.5-9-9.1c-6.5-5.6-13.5-10.9-21.9-12.5
					c-9.1-1.5-18.4,0.4-27.8-0.4C26.8,23.4,25.1,24.5,26.7,24.6L26.7,24.6z"/>
			</g>
		</g>
		<g>
			<g>
				<path class="st0" d="M59.9,19.2c7.3,0.1,13.3,4.6,18.9,8.8c5.9,4.1,11.8,8.4,17.2,13c2.7,2.4,5.5,4.6,8.1,7c2.1,2,4.3,4.9,7,5.9
					c2.4,0.8,5-0.1,7.4-0.8c3.9-1,7.9-2,11.8-2.7c1.5-0.4,1.4-1.1-0.1-0.8c-3.5,0.8-7.3,1.8-10.8,2.5c-2.4,0.6-5,1.4-7.3,0.1
					c-1.1-0.8-2.4-2-3.4-2.9c-4.9-4.5-10.1-9-15.4-13c-5.3-4.1-10.5-8-16-11.8c-4.9-3.4-10-6.3-16-6.3C61,18.2,58.6,19.2,59.9,19.2
					L59.9,19.2z"/>
			</g>
		</g>
		<g>
			<g>
				<path class="st0" d="M31,34.3c16.3-1.4,33.2-2.7,48.8,2.9c8,3.1,14.4,8.6,21.5,13.3c6.5,4.3,13.9,7.4,21.9,5.6
					c1.5-0.4,1.1-1.8-0.4-1.5c-9.1,2-17.4-3.9-24.4-9.1c-6.5-4.6-12.9-9-20.8-11.1c-14.9-4.5-30.8-3.1-46.3-1.8
					C30,32.6,29.2,34.5,31,34.3L31,34.3z"/>
			</g>
		</g>
		<g>
			<g>
				<path class="st0" d="M96.8,61.5c13.6-1.8,26.2,6.6,39.7,7.3c13.6,0.6,24.8-8.8,38-9.8c1.4-0.1,2.1-1.5,0.4-1.5
					c-13.6,1-25.2,10.9-39,9.5c-13.3-1.1-25.2-8.8-38.8-7C95.8,60.3,95,61.8,96.8,61.5L96.8,61.5z"/>
			</g>
		</g>
		<g>
			<g>
				<path class="st0" d="M72,11.7c7.6,10.9,15.4,22,26.4,29.9c11.9,8.4,26.9,9.1,39,17.2c6.6,4.5,12.1,10.1,16.3,17
					c0.6,0.8,2.9,0,2.4-1c-7-11.5-17.9-19.8-30.7-24c-7.3-2.4-14.9-4.1-21.5-8c-5.9-3.5-10.9-8.1-15.4-13.3c-5-5.9-9.5-12.3-14-18.8
					C73.8,9.9,71.1,10.9,72,11.7L72,11.7z"/>
			</g>
		</g>
		<g>
			<g>
				<path class="st1" d="M2.7,19.9c11.5,10.8,27.9,12.5,41.8,19.1c14.3,6.6,26.4,16.8,39.7,24.5c7.3,4.3,14.9,7.9,23.3,10
					c0.8,0.1,2.9-1,1.5-1.1c-15-3.6-27.8-12.9-40.4-21.5c-6.3-4.1-12.5-8.4-19.1-11.8c-6.9-3.5-14-5.6-21.3-8.1
					c-8.1-2.7-16.4-6-23-12.1C4.4,18.5,2.1,19.5,2.7,19.9L2.7,19.9z"/>
			</g>
		</g>
		<g>
			<g>
				<path class="st1" d="M72.5,17.9c15-2,30.8,3.6,41.2,14.6c5.6,6,9.5,13.3,14.4,20.1c4.3,6,9.4,11.4,15.4,15.4
					c6.9,4.6,14.6,8,22.6,9.5c0.6,0.1,2.9-1,2.1-1c-16.3-3.4-29.7-12.9-38.8-26.4c-4.5-6.6-8.6-13.6-14-19.4
					c-5-5.3-11.5-9.1-18.4-11.5c-7.6-2.7-16-3.5-24-2.5C72,16.9,70.8,18.1,72.5,17.9L72.5,17.9z"/>
			</g>
		</g>
		<g>
			<g>
				<path class="st0" d="M16.9,22.4c4.5-0.4,9.1-1,13.9-0.1c4.6,0.8,8.4,2.9,11.8,6.5c2.7,2.9,5,5.6,8.6,7.4
					c3.4,1.5,7.6,2.9,8.8,6.6c0.1,0.8,2.7,0,2.5-0.6c-1.1-3.6-4.9-5-8.1-6.6c-2.1-1-4.1-2.1-5.6-3.6c-1.8-1.8-3.4-3.6-5-5.5
					c-7-6.6-17.2-5.9-25.9-4.9C16.3,21.1,15.2,22.4,16.9,22.4L16.9,22.4z"/>
			</g>
		</g>
		<g>
			<g>
				<path class="st0" d="M18.5,25.5c6,3.1,9.8,9,14.4,13.9c4.9,5.3,11.1,9.1,17.5,12.3c6.6,3.1,13.5,6.6,20.5,8.4
					c6,1.5,12.5,1.1,17.9-2.1c1-0.6-1.5-0.1-2,0c-7.3,4.3-16.3,0.8-23.3-2.4c-5.6-2.4-11.4-4.9-16.8-8s-10.1-7.3-14-11.9
					c-3.5-4.1-7-8.6-11.9-11.1C20.2,24.4,18.3,25.5,18.5,25.5L18.5,25.5z"/>
			</g>
		</g>
		<g>
			<g>
				<path class="st0" d="M70.4,4c0.4,3.5,5.5,5.6,8.1,7c5.3,2.7,10.8,4.9,16.3,7.3c2.4,1.1,4.6,2.1,7,3.6c1.4,0.8,3.1,2,3.6,3.5
					c0.4,1.1-0.1,2.7-0.1,4.1c-0.1,2.1-0.1,4.3,0.1,6.5c1,4.5,4.5,6.9,8.4,8.8c10.9,5.6,21.9,10.8,33.2,15.6c1,0.4,2.9-1,1.5-1.5
					c-10-4.3-19.9-9-29.7-13.9c-4.3-2.1-9.4-4.1-10.5-9.1c-0.6-2.4-0.4-4.9-0.1-7.3c0.1-1.1,0.4-2.4,0.1-3.5c-1-3.4-5.9-5.5-8.6-6.9
					c-5-2.5-10.4-4.5-15.6-7c-2.5-1.1-5-2.4-7.3-3.9c-1.4-1-3.4-2.1-3.5-4.1C72.9,2.2,70.4,2.8,70.4,4L70.4,4z"/>
			</g>
		</g>
		<g>
			<g>
				<path class="st1" d="M12.8,27.2c4.1,0,8.1,0,12.5,0c3.9,0,8.4-0.6,12.1,0.4c3.5,0.8,6.3,3.1,9.8,4.3c3.5,1,7,1.4,10.5,1.5
					c1,0,2.7-1.4,1-1.5c-4.1-0.4-8.1-0.8-12.1-2.4c-3.1-1.4-5.6-3.4-9-3.6c-3.6-0.6-7.6-0.1-11.4-0.1c-4.1,0-8.1,0-12.5,0
					C12.8,25.6,11.1,27.2,12.8,27.2L12.8,27.2z"/>
			</g>
		</g>
		<g>
			<g>
				<path class="st0" d="M95.4,56.9c9,3.4,17.5,8.1,24.8,14.4c0.8,0.6,3.1-0.4,2.4-1c-7.6-6.5-16.3-11.5-25.5-14.9
					C96.2,55.2,94,56.3,95.4,56.9L95.4,56.9z"/>
			</g>
		</g>
		<g>
			<g>
				<path class="st2" d="M94.4,44.3c8.1,4.3,16.5,8.1,25.4,11.1c7,2.5,17.2,3.6,21.3,10.9c0.4,0.8,2.7-0.1,2.5-0.6
					c-3.9-6.9-12.5-8.1-19.4-10.4c-9.5-3.1-18.8-7.3-27.5-11.9C95.9,42.9,93.8,43.9,94.4,44.3L94.4,44.3z"/>
			</g>
		</g>
		<g>
			<g>
				<path class="st0" d="M110.9,78.8C98.9,62.9,84.4,49.3,68,38c-0.8-0.6-3.1,0.6-2,1.4c16.3,11.1,30.7,24.8,42.5,40.4
					C109.3,80.6,111.8,79.6,110.9,78.8L110.9,78.8z"/>
			</g>
		</g>
		<g>
			<g>
				<path class="st0" d="M19.2,34.9c23.8,3.1,48.7,6.6,68.7,20.5c0.6,0.4,2.7-0.6,2.4-0.8C70,40.5,45,37,21.2,33.8
					C20.6,33.6,18.5,34.6,19.2,34.9L19.2,34.9z"/>
			</g>
		</g>
		<g>
			<g>
				<path class="st0" d="M45.2,13c12.3,2.4,24.4,6,35.9,11.1c4.6,2.1,10.4,4.1,14,7.9c2.1,2,2.7,4.1,3.6,6.6
					c0.6,1.5,1.4,2.7,3.4,2.7c0.6,0,2.9-1,1.8-1c-2.1-0.1-2.5-3.6-3.4-5.3c-0.8-2-2.4-3.6-4.1-4.9c-4.3-3.5-10-5.5-15-7.6
					c-10.9-4.6-22.4-8-34.2-10.4C46.7,12,44.6,12.7,45.2,13L45.2,13z"/>
			</g>
		</g>
		<g>
			<g>
				<path class="st0" d="M127.6,74.4c8.4-0.4,16.5-1,25-1.4c4.1-0.1,7.6-0.4,10.5,2.7c2,2,3.5,4.3,6,5.6c1,0.6,3.1-0.8,2-1.5
					c-2.7-1.5-4.3-4.3-6.6-6.5c-2.5-2.4-5.9-2.9-9.4-2.7c-9.1,0.4-18.1,1-27.3,1.4C126.4,72.7,126.1,74.7,127.6,74.4L127.6,74.4z"/>
			</g>
		</g>
		<g>
			<g>
				<path class="st0" d="M104.9,62.4c8.1,0,16.5,0,24.8,0c4.1,0,8.1-0.1,12.1,0c3.1,0.1,6.5,0.6,8,3.5c0.6,1,2.9,0,2.4-1.1
					c-1.4-2.5-4.1-3.6-7-4.1c-3.9-0.6-7.9-0.1-11.8-0.1c-9.5,0-18.9,0-28.5,0C103.8,60.4,103.2,62.4,104.9,62.4L104.9,62.4z"/>
			</g>
		</g>
		<g>
			<g>
				<path class="st0" d="M31.6,53c14-2.9,28.9,0.4,40.8,8.1c2.7,1.8,5.3,3.9,7.6,6.3c2.4,2.4,4.3,5.6,7.3,7.3
					c2.9,1.5,7,1.4,10.4,1.8c4.3,0.4,8.8,0.8,13,1.1c0.6,0,2.9-1.1,1.5-1.1c-4.6-0.4-9.4-0.8-14-1.1C93.8,75,90,75,86.8,71.8
					c-4.9-5.3-9.5-10-15.8-13.5c-11.8-6.6-25.8-9-39-6.3C30.7,52.3,29.8,53.4,31.6,53L31.6,53z"/>
			</g>
		</g>
		<g>
			<g>
				<path class="st1" d="M25.3,37.1c11.4-0.8,22.9-0.1,34.2,1.5c2.5,0.4,5.3,1,7.9,1.4c2.5,0.6,5.3,1,7.6,2.1c3.4,1.8,4.6,5.5,9,4.6
					c1.5-0.4,1.1-1.8-0.4-1.4c-2,0.4-3.6-2.5-5-3.6c-1.5-1.1-3.5-1.8-5.5-2.1c-5-1.1-10.4-2.1-15.6-2.9c-10.5-1.4-21-1.8-31.8-1.1
					C24.3,35.6,23.6,37.1,25.3,37.1L25.3,37.1z"/>
			</g>
		</g>
		<g>
			<g>
				<path class="st0" d="M123.6,50.3c7.4,1,14,6.3,16.8,13.3c0.1,0.6,2.7,0,2.5-0.6c-2.7-7.4-9.8-12.6-17.8-13.6
					c-0.6,0-1.4,0.1-1.8,0.4C122.9,49.9,122.9,50.3,123.6,50.3L123.6,50.3z"/>
			</g>
		</g>
		<g>
			<g>
				<path class="st0" d="M114.3,79.9c14-0.8,28-0.4,41.9,1.1c1,0.1,2.7-1.4,1-1.5c-14.3-1.5-28.5-2-42.8-1.1
					C113.3,78.3,112.6,79.9,114.3,79.9L114.3,79.9z"/>
			</g>
		</g>
		<g>
			<g>
				<path class="st0" d="M123.6,80.9c9.5-2.4,19.4-3.9,29-4.5c4.6-0.1,9.5-0.4,14.3-0.1c2.1,0,5.5,0.8,6.9-1.5
					c0.1-0.6-2.1-0.4-2.5,0.4c-0.1,0.4-5.3-0.1-5.9-0.1c-2.1,0-4.3,0-6.5,0c-3.9,0-7.6,0.4-11.5,0.6c-8.1,0.8-16.3,2.1-24.3,4.1
					C121.7,80.3,121.9,81.3,123.6,80.9L123.6,80.9z"/>
			</g>
		</g>
		<g>
			<g>
				<path class="st0" d="M125.4,58.4c-2.1,11.1,5.9,20.9,14,27.2c2.9,2.1,6.9,1.5,10,0.8c3.9-1,7.9-2.9,11.9-3.5
					c0.4,0,1.4-0.4,1.4-1s-0.6-0.8-1.1-0.8c-3.5,0.6-6.6,2-10.1,2.9c-3.1,1-7.3,2.4-10.1,0.1c-7.9-6.3-15.6-15.4-13.5-26.2
					C128.2,57,125.7,57.5,125.4,58.4L125.4,58.4z"/>
			</g>
		</g>
		<g>
			<g>
				<path class="st0" d="M138,64.2c5.3,3.9,11.1,6.6,17.4,8.6c5.5,1.8,11.9,2.4,16,6.6c0.6,0.6,2.9-0.1,2.4-1
					c-3.9-4.3-9.8-5.3-15-6.6c-6.6-1.8-13-4.9-18.5-9C139.3,62.4,137,63.5,138,64.2L138,64.2z"/>
			</g>
		</g>
		<g>
			<g>
				<path class="st2" d="M82.5,61.2c12.5-0.4,25.5-1,37.7,3.4c10.5,3.6,19.8,11.4,31,12.5c0.8,0,2.9-1.1,1.5-1.4
					c-11.9-1.4-21.3-9.5-32.4-13C108.4,59,95.8,59.3,83.5,60C82.5,59.8,80.8,61.2,82.5,61.2L82.5,61.2z"/>
			</g>
		</g>
	</g>
	<g>
		<g>
			<path class="st1" d="M125.4,27.6c9.1,1,18.5,2,27.8,2.9c4.6,0.6,9.4,1,13.9,2.7c3.6,1.5,6.9,3.9,10,6.3
				c10.5,8.8,22.3,23,37.7,17.9c1.5-0.4,1.1-2.1-0.4-1.5c-7.9,2.5-15.8-1.4-22-6c-6-4.5-10.9-10.4-17-14.6
				c-6.6-4.6-13.6-5.9-21.5-6.6c-9.1-1-18.1-2-27.3-2.9C125.2,25.6,123.8,27.4,125.4,27.6L125.4,27.6z"/>
		</g>
	</g>
	<g>
		<g>
			<path class="st0" d="M137.2,42c14.6-3.4,29.3,1.8,42.8,7.6c13.5,5.9,26.9,12.5,40.2,18.5c0.6,0.4,2.5-0.8,2.4-0.8
				c-14.4-6.9-28.9-13.9-43.5-20.1c-13-5.5-27.2-9.4-41.2-6.3C136.7,41.5,135.3,42.5,137.2,42L137.2,42z"/>
		</g>
	</g>
	<g>
		<g>
			<path class="st0" d="M110.2,43c5-5.3,12.5-6.3,19.4-6.9c7.4-0.8,15.6-1.5,21.5,3.9c4.6,4.1,7,10.1,11.9,14
				c4.9,4.1,11.5,4.9,17.5,3.6c3.9-0.8,7-2.7,10.5-4.3c5.3-2.4,9.4,0.4,13.5,3.6c0.8,0.8,3.1-0.6,2-1.4c-2.7-2.4-5.9-4.6-9.5-5
				c-3.5-0.4-6.6,1.4-9.8,2.7c-7.4,3.6-16.8,4.3-23-2c-4.9-4.6-7.6-11.8-13.6-15.3c-6.5-3.6-14.4-2.7-21.5-2
				c-7.4,0.8-15.3,2.4-20.8,7.9C107.2,43.4,109.4,44,110.2,43L110.2,43z"/>
		</g>
	</g>
	<g>
		<g>
			<path class="st0" d="M144.6,23.5c-0.1,4.5-0.4,8.8-0.4,13.3c0,3.9-0.4,8.1,0.4,12.1c0.4,2.7,2.5,3.6,5,3.9
				c3.9,0.4,8.1,0.1,12.1-0.1c3.9-0.4,8-1.1,11.8-2.1c2-0.4,3.9-1,5.9-1.5c1.5-0.4,3.6-1.4,5,0.1c0.6,0.6,1,1.8,1.4,2.5
				c1.5,3.6,2.9,7.9,4.9,11.4c1.4,2.1,2.9,3.4,5.5,2.7c1.5-0.4,1.1-1.5-0.4-1.4c-2.5,0.6-5-7.6-5.6-9.1c-1-2.4-1.8-6.3-4.1-7.6
				c-2.1-1.4-4.9-0.4-7.3,0.1c-3.9,1.1-7.9,2.1-11.9,2.7c-3.9,0.6-7.9,1-11.8,1c-1.8,0-3.9,0.1-5.6-0.4c-2.1-0.6-2.7-2-2.9-4.1
				c-0.6-8-0.1-16,0.1-24C147.1,22.1,144.6,22.7,144.6,23.5L144.6,23.5z"/>
		</g>
	</g>
	<g>
		<g>
			<path class="st0" d="M100.7,35c5.9-7.9,16-0.6,21.5,3.5c6.3,4.5,13,8.4,20.1,11.5c3.6,1.5,7.4,3.1,11.4,4.3c2.7,1,6,2.4,9,1.4
				c2.5-0.6,3.6-2.5,4.9-4.6c1.8-3.5,4.3-6,8.4-6.5c8.8-1.1,15.6,6,20.5,12.3c0.4,0.6,2.9-0.1,2.4-1c-4.5-5.9-10.1-11.8-17.8-12.6
				c-5.9-0.6-12.3,1.4-15.3,6.6c-1.1,2.1-1.8,4.9-4.9,4.6c-2.4-0.1-4.9-1.4-7-2.1c-4.3-1.4-8.4-3.1-12.5-5
				c-4.3-2.1-8.6-4.5-12.6-7.3c-3.5-2.4-6.6-4.9-10.1-6.9c-6-3.5-15.3-4.6-19.9,1.8C97.8,35.9,100.3,35.6,100.7,35L100.7,35z"/>
		</g>
	</g>
	<g>
		<g>
			<path class="st0" d="M170,52.8c-1.1,7.3,2.4,15.8-2.4,22.3c-2.4,3.1-6.6,2.5-9.8,4.9c-2.1,1.5-2.7,3.9-1.1,6c2,2.5,5.5,4.5,8.1,6
				c3.4,2,6.6,3.6,10,5.5c6.9,3.5,13.9,6.9,19.9,11.9c0.6,0.6,2.9-0.4,2.4-1c-5.5-4.5-11.8-7.9-17.9-10.9
				c-6.5-3.4-13.9-6.5-18.9-11.4c-1.8-1.8-2.5-4.3,0-5.9c1.4-1,3.1-1,4.6-1.5c2.7-1,4.9-2.7,6-5.3c3.4-6.6,0.4-13.9,1.5-20.9
				C172.6,51.6,170.1,52,170,52.8L170,52.8z"/>
		</g>
	</g>
	<g>
		<g>
			<path class="st0" d="M129.7,37c16.4,5,33,9.8,48.9,15.8c15.6,5.9,29,14.9,42.3,24.8c0.8,0.6,3.1-0.4,2.4-1
				c-13.5-10-27.2-19.1-42.8-25c-16.3-6-33-10.8-49.6-15.8C130.6,35.4,128.3,36.6,129.7,37L129.7,37z"/>
		</g>
	</g>
	<g>
		<g>
			<path class="st0" d="M104.2,67.3c7.6,0.8,15.4-0.6,23,0c8.4,0.6,15,4.3,21.5,9.4c5.5,4.3,10.5,9.1,14.4,14.9
				c1.8,2.7,2.7,6.3,4.9,8.8c1.5,2.1,4.3,2.4,6.9,2.4c8.4-0.4,16.5-2.5,24.4-5.5c1.5-0.6,0.1-1.4-1-1c-4.9,1.8-10,3.4-15,4.1
				c-2.4,0.4-4.6,0.8-7.3,1c-2.9,0.1-5-0.4-6.5-3.1c-1.8-3.5-3.4-7-5.9-10.1c-2.5-3.4-5.6-6.5-9-9.1c-6.5-5.6-13.5-10.9-21.9-12.5
				c-9.1-1.5-18.4,0.4-27.8-0.4C104.2,65.7,102.7,67,104.2,67.3L104.2,67.3z"/>
		</g>
	</g>
	<g>
		<g>
			<path class="st0" d="M137.3,61.8c7.3,0.1,13.3,4.6,18.9,8.8c5.9,4.1,11.8,8.4,17.2,13c2.7,2.4,5.5,4.6,8.1,7c2.1,2,4.3,4.9,7,5.9
				c2.4,0.8,5-0.1,7.4-0.8c3.9-1,7.9-2,11.8-2.7c1.5-0.4,1.4-1.1-0.1-0.8c-3.5,0.8-7.3,1.8-10.8,2.5c-2.4,0.6-5,1.4-7.3,0.1
				c-1.1-0.8-2.4-2-3.4-2.9c-4.9-4.5-10.1-9-15.4-13c-5.3-4.1-10.5-8-16-11.8c-4.9-3.4-10-6.3-16-6.3
				C138.6,60.7,136.2,61.8,137.3,61.8L137.3,61.8z"/>
		</g>
	</g>
	<g>
		<g>
			<path class="st0" d="M108.4,76.8c16.3-1.4,33.2-2.7,48.8,2.9c8,3.1,14.4,8.6,21.5,13.3c6.5,4.3,13.9,7.4,21.9,5.6
				c1.5-0.4,1.1-1.8-0.4-1.5c-9.1,2-17.4-3.9-24.4-9.1c-6.5-4.6-12.9-9-20.8-11.1c-14.9-4.5-30.8-3.1-46.3-1.8
				C107.4,75.3,106.7,76.8,108.4,76.8L108.4,76.8z"/>
		</g>
	</g>
	<g>
		<g>
			<path class="st0" d="M174,104.1c13.6-1.8,26.2,6.6,39.7,7.3c13.6,0.6,24.8-8.8,38-9.8c1.4-0.1,2.1-1.5,0.4-1.5
				c-13.6,1-25.2,10.9-39,9.5c-13.3-1.1-25.2-8.8-38.8-7C173.3,102.7,172.4,104.3,174,104.1L174,104.1z"/>
		</g>
	</g>
	<g>
		<g>
			<path class="st0" d="M132.1,24.5c7.6,10.9,15.4,22,26.4,29.9c11.9,8.4,26.9,9.1,39,17.2c6.6,4.5,12.1,10.1,16.3,17
				c0.6,0.8,2.9,0,2.4-1c-7-11.5-17.9-19.8-30.7-24c-7.3-2.4-14.9-4.1-21.5-8c-5.9-3.5-10.9-8.1-15.4-13.3c-5-5.9-9.5-12.3-14-18.8
				C133.8,22.5,131.6,23.5,132.1,24.5L132.1,24.5z"/>
		</g>
	</g>
	<g>
		<g>
			<path class="st1" d="M80.1,62.4c11.5,10.8,28,12.5,41.9,19.1C136,88,148.2,98,161.4,106c7.3,4.3,14.9,7.9,23,10
				c0.6,0.1,2.7-0.8,2.1-1c-15-3.6-27.8-12.9-40.4-21.3c-6.5-4.3-12.9-8.6-19.8-11.9c-6.9-3.5-14-5.6-21.3-8.1
				c-8.1-2.7-16.4-6-22.6-12.1C82.1,61,79.8,61.9,80.1,62.4L80.1,62.4z"/>
		</g>
	</g>
	<g>
		<g>
			<path class="st1" d="M132.8,30.5c15-2,30.8,3.6,41.2,14.6c5.6,6,9.5,13.3,14.4,20.1c4.3,6,9.4,11.4,15.4,15.4
				c6.9,4.6,14.6,8,22.6,9.5c0.6,0.1,2.9-1,2.1-1c-16.3-3.4-29.7-12.9-38.8-26.4c-4.5-6.6-8.6-13.6-14-19.4
				c-5-5.3-11.5-9.1-18.4-11.5c-7.6-2.7-16-3.5-24-2.5C132.1,29.6,131.1,30.8,132.8,30.5L132.8,30.5z"/>
		</g>
	</g>
	<g>
		<g>
			<path class="st0" d="M156,35c4.5-0.4,9.1-1,13.9-0.1c4.8,0.8,8.4,2.9,11.8,6.5c2.7,2.9,5,5.6,8.6,7.4c3.4,1.5,7.6,2.9,8.8,6.6
				c0.1,0.8,2.7,0,2.5-0.6c-1.1-3.6-4.9-5-8.1-6.6c-2.1-1-4.1-2.1-5.6-3.6c-1.8-1.8-3.4-3.6-5-5.5c-7-6.6-17.2-5.9-25.9-4.9
				C155.3,33.9,154.1,35.3,156,35L156,35z"/>
		</g>
	</g>
	<g>
		<g>
			<path class="st0" d="M95.9,68c6,3.1,9.8,9,14.4,13.9c4.9,5.3,11.1,9.1,17.5,12.3c6.6,3.1,13.5,6.6,20.5,8.4
				c6,1.5,12.5,1.1,17.9-2.1c1-0.6-1.5-0.1-2,0c-7.3,4.3-16.3,0.8-23.3-2.4c-5.6-2.4-11.4-4.9-16.8-8s-10.1-7.3-14-11.9
				c-3.5-4.1-7-8.6-11.9-11.1C97.8,66.8,95.8,67.8,95.9,68L95.9,68z"/>
		</g>
	</g>
	<g>
		<g>
			<path class="st0" d="M130.7,16.7c0.4,3.5,5.5,5.6,8.1,7c5.3,2.7,10.8,4.9,16.3,7.3c2.4,1.1,4.6,2.1,7,3.6c1.4,0.8,3.1,2,3.6,3.5
				c0.4,1.1-0.1,2.7-0.1,4.1c-0.1,2.1-0.1,4.3,0.1,6.5c1,4.5,4.5,6.9,8.4,8.8c10.9,5.6,21.9,10.8,33.2,15.6c1,0.4,2.9-1,1.5-1.5
				c-10-4.3-19.9-9-29.7-13.9c-4.3-2.1-9.4-4.1-10.5-9.1c-0.6-2.4-0.4-4.9-0.1-7.3c0.1-1.1,0.4-2.4,0.1-3.5c-1-3.4-5.9-5.5-8.6-6.9
				c-5-2.5-10.4-4.5-15.6-7c-2.5-1.1-5-2.4-7.3-3.9c-1.4-1-3.4-2.1-3.5-4.1C133.1,15,130.6,15.5,130.7,16.7L130.7,16.7z"/>
		</g>
	</g>
	<g>
		<g>
			<path class="st1" d="M151.7,39.9c4.1,0,8.1,0,12.5,0c3.9,0,8.4-0.6,12.1,0.4c3.5,0.8,6.3,3.1,9.8,4.3c3.5,1,7,1.4,10.5,1.5
				c1,0,2.7-1.4,1-1.5c-4.1-0.4-8.1-0.8-12.1-2.4c-3.1-1.4-5.6-3.4-9-3.6c-3.6-0.6-7.6-0.1-11.4-0.1c-4.1,0-8.1,0-12.5,0
				C151.7,38.4,150.1,39.9,151.7,39.9L151.7,39.9z"/>
		</g>
	</g>
	<g>
		<g>
			<path class="st0" d="M172.9,99.5c9,3.4,17.5,8.1,24.8,14.4c0.8,0.6,3.1-0.4,2.4-1c-7.6-6.5-16.3-11.5-25.5-14.9
				C173.6,97.7,171.5,98.8,172.9,99.5L172.9,99.5z"/>
		</g>
	</g>
	<g>
		<g>
			<path class="st2" d="M171.9,86.6c8.1,4.3,16.5,8.1,25.4,11.1c7,2.5,17.2,3.6,21.3,10.9c0.4,0.8,2.7-0.1,2.5-0.6
				c-3.9-6.9-12.5-8.1-19.4-10.4c-9.5-3.1-18.8-7.3-27.5-11.9C173.5,85.4,171.4,86.3,171.9,86.6L171.9,86.6z"/>
		</g>
	</g>
	<g>
		<g>
			<path class="st0" d="M188.5,121.1c-12.1-15.8-26.5-29.4-42.9-40.8c-0.8-0.6-3.1,0.6-2,1.4c16.3,11.1,30.7,24.8,42.5,40.4
				C186.8,122.9,189.3,122.1,188.5,121.1L188.5,121.1z"/>
		</g>
	</g>
	<g>
		<g>
			<path class="st0" d="M96.8,77.2c23.8,3.1,48.7,6.6,68.7,20.5c0.6,0.4,2.7-0.6,2.4-0.8c-20.3-14-45.3-17.5-69.1-20.8
				C98.2,76.2,95.9,77.2,96.8,77.2L96.8,77.2z"/>
		</g>
	</g>
	<g>
		<g>
			<path class="st0" d="M105.3,25.6c12.3,2.4,24.4,6,35.9,11.1c4.6,2.1,10.4,4.1,14,7.9c2.1,2,2.7,4.1,3.6,6.6
				c0.6,1.5,1.4,2.7,3.4,2.7c0.6,0,2.9-1,1.8-1c-2.1-0.1-2.5-3.6-3.4-5.3c-0.8-2-2.4-3.6-4.1-4.9c-4.3-3.5-10-5.5-15-7.6
				c-10.9-4.6-22.4-8-34.2-10.4C106.9,24.6,104.8,25.5,105.3,25.6L105.3,25.6z"/>
		</g>
	</g>
	<g>
		<g>
			<path class="st0" d="M182.5,104.7c8.1,0,16.5,0,24.8,0c4.1,0,8.1-0.1,12.1,0c3.1,0.1,6.5,0.6,8,3.5c0.6,1,2.9,0,2.4-1.1
				c-1.4-2.5-4.1-3.6-7-4.1c-3.9-0.6-7.9-0.1-11.8-0.1c-9.5,0-18.9,0-28.5,0C181.3,103,180.6,104.7,182.5,104.7L182.5,104.7z"/>
		</g>
	</g>
	<g>
		<g>
			<path class="st0" d="M109.1,95.6c14-2.9,28.9,0.4,40.8,8.1c2.7,1.8,5.3,3.9,7.6,6.3c2.4,2.4,4.3,5.6,7.3,7.3
				c2.9,1.5,7,1.4,10.4,1.8c4.3,0.4,8.8,0.8,13,1.1c0.6,0,2.9-1.1,1.5-1.1c-4.6-0.4-9.4-0.8-14-1.1c-4.3-0.4-8.1-0.4-11.4-3.6
				c-4.9-5.3-9.5-10-15.8-13.5c-11.8-6.6-25.8-9-39-6.3C108.3,94.6,107.3,96,109.1,95.6L109.1,95.6z"/>
		</g>
	</g>
	<g>
		<g>
			<path class="st1" d="M144.2,65.3c11.4-0.8,22.9-0.1,34.2,1.5c2.5,0.4,5.3,1,7.9,1.4c2.5,0.6,5.3,1,7.6,2.1c3.4,1.8,4.6,5.5,9,4.6
				c1.5-0.4,1.1-1.8-0.4-1.4c-2,0.4-3.6-2.5-5-3.6c-1.5-1.1-3.5-1.8-5.5-2.1c-5-1.1-10.4-2.1-15.6-2.9c-10.5-1.4-21-1.8-31.8-1.1
				C143.2,63.8,142.5,65.3,144.2,65.3L144.2,65.3z"/>
		</g>
	</g>
	<g>
		<g>
			<path class="st0" d="M200.4,113.7c14-0.8,28-0.4,41.9,1.1c1,0.1,2.7-1.4,1-1.5c-14.3-1.5-28.5-2-42.8-1.1
				C199.4,112.1,198.7,114,200.4,113.7L200.4,113.7z"/>
		</g>
	</g>
	<g>
		<g>
			<path class="st0" d="M209.7,114.9c9.5-2.4,19.4-3.9,29-4.5c4.6-0.1,9.5-0.4,14.3-0.1c2.1,0,5.5,0.8,6.9-1.5
				c0.1-0.6-2.1-0.4-2.5,0.4c-0.1,0.4-5.3-0.1-5.9-0.1c-2.1,0-4.3,0-6.5,0c-3.9,0-7.6,0.4-11.5,0.6c-8.1,0.8-16.3,2.1-24.3,4.1
				C207.8,114.1,208,115.2,209.7,114.9L209.7,114.9z"/>
		</g>
	</g>
	<g>
		<g>
			<path class="st0" d="M211.5,92.2c-2.1,11.1,5.9,20.9,14,27.2c2.9,2.1,6.9,1.5,10,0.8c3.9-1,7.9-2.9,11.9-3.5c0.4,0,1.4-0.4,1.4-1
				c0-0.6-0.6-0.8-1.1-0.8c-3.5,0.6-6.6,2-10.1,2.9c-3.1,1-7.3,2.4-10.1,0.1c-7.9-6.3-15.6-15.4-13.5-26.2
				C214.3,90.8,211.8,91.2,211.5,92.2L211.5,92.2z"/>
		</g>
	</g>
	<g>
		<g>
			<path class="st2" d="M160,103.7c12.5-0.4,25.5-1,37.7,3.4c10.5,3.6,19.8,11.4,31,12.5c0.8,0,2.9-1.1,1.5-1.4
				c-11.9-1.4-21.3-9.5-32.4-13c-11.9-3.6-24.5-3.4-36.9-2.7C160,102.3,158.2,103.7,160,103.7L160,103.7z"/>
		</g>
	</g>
</g>
</svg>
