<?xml version="1.0" encoding="utf-8"?>
<!-- Generator: Adobe Illustrator 25.2.3, SVG Export Plug-In . SVG Version: 6.00 Build 0)  -->
<svg version="1.1" id="Layer_1" xmlns="http://www.w3.org/2000/svg" xmlns:xlink="http://www.w3.org/1999/xlink" x="0px" y="0px"
	 viewBox="0 0 140.7 263.9" style="enable-background:new 0 0 140.7 263.9;" xml:space="preserve">
<style type="text/css">
	.st0{fill:#EE7345;}
	.st1{fill:#EE7345;stroke:#FFFFFF;stroke-width:0.5;stroke-miterlimit:10;}
	.st2{fill:none;stroke:#FFFFFF;stroke-width:0.5;stroke-miterlimit:10;}
	.st3{fill:none;stroke:#FFFFFF;stroke-width:0.4597;stroke-miterlimit:10;}
	.st4{fill:#D8422E;stroke:#FFFFFF;stroke-width:0.5;stroke-miterlimit:9.9998;}
	.st5{fill:#DC3359;stroke:#FFFFFF;stroke-width:0.5;stroke-miterlimit:10;}
	.st6{fill:#B71549;stroke:#FFFFFF;stroke-width:0.5;stroke-miterlimit:10.0006;}
	.st7{fill:#DD335A;stroke:#FFFFFF;stroke-width:0.25;stroke-miterlimit:10;}
	.st8{fill:#DC325A;stroke:#FEFBFC;stroke-width:0.2549;stroke-miterlimit:10;}
	.st9{fill:#DB3159;stroke:#FEF7F9;stroke-width:0.2598;stroke-miterlimit:10;}
	.st10{fill:#DB3159;stroke:#FDF3F5;stroke-width:0.2647;stroke-miterlimit:10;}
	.st11{fill:#DA3059;stroke:#FCEFF2;stroke-width:0.2696;stroke-miterlimit:10;}
	.st12{fill:#D93058;stroke:#FCEBEF;stroke-width:0.2745;stroke-miterlimit:10;}
	.st13{fill:#D82F58;stroke:#FBE7EC;stroke-width:0.2794;stroke-miterlimit:10;}
	.st14{fill:#D82E58;stroke:#FAE3E8;stroke-width:0.2843;stroke-miterlimit:10;}
	.st15{fill:#D72E57;stroke:#FADFE5;stroke-width:0.2892;stroke-miterlimit:10;}
	.st16{fill:#D62D57;stroke:#F9DBE2;stroke-width:0.2941;stroke-miterlimit:10;}
	.st17{fill:#D52D57;stroke:#F8D7DF;stroke-width:0.299;stroke-miterlimit:10;}
	.st18{fill:#D52C56;stroke:#F8D3DB;stroke-width:0.3039;stroke-miterlimit:10;}
	.st19{fill:#D42C56;stroke:#F7CFD8;stroke-width:0.3088;stroke-miterlimit:10;}
	.st20{fill:#D32B56;stroke:#F6CBD5;stroke-width:0.3137;stroke-miterlimit:10;}
	.st21{fill:#D32A55;stroke:#F6C7D2;stroke-width:0.3186;stroke-miterlimit:10;}
	.st22{fill:#D22A55;stroke:#F5C3CE;stroke-width:0.3235;stroke-miterlimit:10;}
	.st23{fill:#D12955;stroke:#F4BFCB;stroke-width:0.3284;stroke-miterlimit:10;}
	.st24{fill:#D02954;stroke:#F4BBC8;stroke-width:0.3333;stroke-miterlimit:10;}
	.st25{fill:#D02854;stroke:#F3B7C5;stroke-width:0.3382;stroke-miterlimit:10;}
	.st26{fill:#CF2754;stroke:#F2B3C2;stroke-width:0.3431;stroke-miterlimit:10;}
	.st27{fill:#CE2754;stroke:#F2AFBE;stroke-width:0.348;stroke-miterlimit:10;}
	.st28{fill:#CD2653;stroke:#F1ABBB;stroke-width:0.3529;stroke-miterlimit:10;}
	.st29{fill:#CD2653;stroke:#F0A7B8;stroke-width:0.3578;stroke-miterlimit:10;}
	.st30{fill:#CC2553;stroke:#F0A3B5;stroke-width:0.3627;stroke-miterlimit:10;}
	.st31{fill:#CB2552;stroke:#EF9FB1;stroke-width:0.3676;stroke-miterlimit:10;}
	.st32{fill:#CA2452;stroke:#EE9BAE;stroke-width:0.3725;stroke-miterlimit:10;}
	.st33{fill:#CA2352;stroke:#EE97AB;stroke-width:0.3775;stroke-miterlimit:10;}
	.st34{fill:#C92351;stroke:#ED93A8;stroke-width:0.3824;stroke-miterlimit:10;}
	.st35{fill:#C82251;stroke:#EC8FA4;stroke-width:0.3873;stroke-miterlimit:10;}
	.st36{fill:#C72251;stroke:#EC8BA1;stroke-width:0.3922;stroke-miterlimit:10;}
	.st37{fill:#C72150;stroke:#EB879E;stroke-width:0.3971;stroke-miterlimit:10;}
	.st38{fill:#C62050;stroke:#EA839B;stroke-width:0.402;stroke-miterlimit:10;}
	.st39{fill:#C52050;stroke:#EA7F97;stroke-width:0.4069;stroke-miterlimit:10;}
	.st40{fill:#C51F4F;stroke:#E97B94;stroke-width:0.4118;stroke-miterlimit:10;}
	.st41{fill:#C41F4F;stroke:#E87791;stroke-width:0.4167;stroke-miterlimit:10;}
	.st42{fill:#C31E4F;stroke:#E8738E;stroke-width:0.4216;stroke-miterlimit:10;}
	.st43{fill:#C21D4E;stroke:#E76F8B;stroke-width:0.4265;stroke-miterlimit:10;}
	.st44{fill:#C21D4E;stroke:#E66B87;stroke-width:0.4314;stroke-miterlimit:10;}
	.st45{fill:#C11C4E;stroke:#E66784;stroke-width:0.4363;stroke-miterlimit:10;}
	.st46{fill:#C01C4D;stroke:#E56381;stroke-width:0.4412;stroke-miterlimit:10;}
	.st47{fill:#BF1B4D;stroke:#E45F7E;stroke-width:0.4461;stroke-miterlimit:10;}
	.st48{fill:#BF1B4D;stroke:#E45B7A;stroke-width:0.451;stroke-miterlimit:10;}
	.st49{fill:#BE1A4C;stroke:#E35777;stroke-width:0.4559;stroke-miterlimit:10;}
	.st50{fill:#BD194C;stroke:#E25374;stroke-width:0.4608;stroke-miterlimit:10;}
	.st51{fill:#BC194C;stroke:#E24F71;stroke-width:0.4657;stroke-miterlimit:10;}
	.st52{fill:#BC184B;stroke:#E14B6D;stroke-width:0.4706;stroke-miterlimit:10;}
	.st53{fill:#BB184B;stroke:#E0476A;stroke-width:0.4755;stroke-miterlimit:10;}
	.st54{fill:#BA174B;stroke:#E04367;stroke-width:0.4804;stroke-miterlimit:10;}
	.st55{fill:#BA164A;stroke:#DF3F64;stroke-width:0.4853;stroke-miterlimit:10;}
	.st56{fill:#B9164A;stroke:#DE3B61;stroke-width:0.4902;stroke-miterlimit:10;}
	.st57{fill:#B8154A;stroke:#DE375D;stroke-width:0.4951;stroke-miterlimit:10;}
	.st58{fill:#B71549;stroke:#DD335A;stroke-width:0.5;stroke-miterlimit:10;}
	.st59{fill:#543C52;stroke:#FFFFFF;stroke-width:0.25;stroke-miterlimit:10;}
	.st60{fill:#543C52;stroke:#FDFDFD;stroke-width:0.2531;stroke-miterlimit:10;}
	.st61{fill:#533C51;stroke:#FBFAFB;stroke-width:0.2562;stroke-miterlimit:10;}
	.st62{fill:#533B51;stroke:#F9F8F9;stroke-width:0.2593;stroke-miterlimit:10;}
	.st63{fill:#533B51;stroke:#F7F5F6;stroke-width:0.2623;stroke-miterlimit:10;}
	.st64{fill:#523A50;stroke:#F4F3F4;stroke-width:0.2654;stroke-miterlimit:10;}
	.st65{fill:#523A50;stroke:#F2F1F2;stroke-width:0.2685;stroke-miterlimit:10;}
	.st66{fill:#513A4F;stroke:#F0EEF0;stroke-width:0.2716;stroke-miterlimit:10;}
	.st67{fill:#51394F;stroke:#EEECEE;stroke-width:0.2747;stroke-miterlimit:10;}
	.st68{fill:#51394F;stroke:#ECE9EC;stroke-width:0.2778;stroke-miterlimit:10;}
	.st69{fill:#50384E;stroke:#EAE7EA;stroke-width:0.2809;stroke-miterlimit:10;}
	.st70{fill:#50384E;stroke:#E8E5E8;stroke-width:0.284;stroke-miterlimit:10;}
	.st71{fill:#50384D;stroke:#E6E2E5;stroke-width:0.287;stroke-miterlimit:10;}
	.st72{fill:#4F374D;stroke:#E4E0E3;stroke-width:0.2901;stroke-miterlimit:10;}
	.st73{fill:#4F374D;stroke:#E1DDE1;stroke-width:0.2932;stroke-miterlimit:10;}
	.st74{fill:#4E364C;stroke:#DFDBDF;stroke-width:0.2963;stroke-miterlimit:10;}
	.st75{fill:#4E364C;stroke:#DDD9DD;stroke-width:0.2994;stroke-miterlimit:10;}
	.st76{fill:#4E364B;stroke:#DBD6DB;stroke-width:0.3025;stroke-miterlimit:10;}
	.st77{fill:#4D354B;stroke:#D9D4D9;stroke-width:0.3056;stroke-miterlimit:10;}
	.st78{fill:#4D354B;stroke:#D7D1D6;stroke-width:0.3086;stroke-miterlimit:10;}
	.st79{fill:#4D354A;stroke:#D5CFD4;stroke-width:0.3117;stroke-miterlimit:10;}
	.st80{fill:#4C344A;stroke:#D3CDD2;stroke-width:0.3148;stroke-miterlimit:10;}
	.st81{fill:#4C3449;stroke:#D1CAD0;stroke-width:0.3179;stroke-miterlimit:10;}
	.st82{fill:#4B3349;stroke:#CEC8CE;stroke-width:0.321;stroke-miterlimit:10;}
	.st83{fill:#4B3349;stroke:#CCC5CC;stroke-width:0.3241;stroke-miterlimit:10;}
	.st84{fill:#4B3348;stroke:#CAC3CA;stroke-width:0.3272;stroke-miterlimit:10;}
	.st85{fill:#4A3248;stroke:#C8C1C8;stroke-width:0.3302;stroke-miterlimit:10;}
	.st86{fill:#4A3247;stroke:#C6BEC5;stroke-width:0.3333;stroke-miterlimit:10;}
	.st87{fill:#4A3147;stroke:#C4BCC3;stroke-width:0.3364;stroke-miterlimit:10;}
	.st88{fill:#493147;stroke:#C2B9C1;stroke-width:0.3395;stroke-miterlimit:10;}
	.st89{fill:#493146;stroke:#C0B7BF;stroke-width:0.3426;stroke-miterlimit:10;}
	.st90{fill:#483046;stroke:#BEB4BD;stroke-width:0.3457;stroke-miterlimit:10;}
	.st91{fill:#483045;stroke:#BBB2BB;stroke-width:0.3488;stroke-miterlimit:10;}
	.st92{fill:#482F45;stroke:#B9B0B9;stroke-width:0.3519;stroke-miterlimit:10;}
	.st93{fill:#472F45;stroke:#B7ADB6;stroke-width:0.3549;stroke-miterlimit:10;}
	.st94{fill:#472F44;stroke:#B5ABB4;stroke-width:0.358;stroke-miterlimit:10;}
	.st95{fill:#472E44;stroke:#B3A8B2;stroke-width:0.3611;stroke-miterlimit:10;}
	.st96{fill:#462E43;stroke:#B1A6B0;stroke-width:0.3642;stroke-miterlimit:10;}
	.st97{fill:#462E43;stroke:#AFA4AE;stroke-width:0.3673;stroke-miterlimit:10;}
	.st98{fill:#452D43;stroke:#ADA1AC;stroke-width:0.3704;stroke-miterlimit:10;}
	.st99{fill:#452D42;stroke:#AB9FAA;stroke-width:0.3735;stroke-miterlimit:10;}
	.st100{fill:#452C42;stroke:#A89CA7;stroke-width:0.3765;stroke-miterlimit:10;}
	.st101{fill:#442C41;stroke:#A69AA5;stroke-width:0.3796;stroke-miterlimit:10;}
	.st102{fill:#442C41;stroke:#A498A3;stroke-width:0.3827;stroke-miterlimit:10;}
	.st103{fill:#442B41;stroke:#A295A1;stroke-width:0.3858;stroke-miterlimit:10;}
	.st104{fill:#432B40;stroke:#A0939F;stroke-width:0.3889;stroke-miterlimit:10;}
	.st105{fill:#432A40;stroke:#9E909D;stroke-width:0.392;stroke-miterlimit:10;}
	.st106{fill:#422A3F;stroke:#9C8E9B;stroke-width:0.3951;stroke-miterlimit:10;}
	.st107{fill:#422A3F;stroke:#9A8C99;stroke-width:0.3981;stroke-miterlimit:10;}
	.st108{fill:#42293E;stroke:#988996;stroke-width:0.4012;stroke-miterlimit:10;}
	.st109{fill:#41293E;stroke:#968794;stroke-width:0.4043;stroke-miterlimit:10;}
	.st110{fill:#41283E;stroke:#938492;stroke-width:0.4074;stroke-miterlimit:10;}
	.st111{fill:#41283D;stroke:#918290;stroke-width:0.4105;stroke-miterlimit:10;}
	.st112{fill:#40283D;stroke:#8F808E;stroke-width:0.4136;stroke-miterlimit:10;}
	.st113{fill:#40273C;stroke:#8D7D8C;stroke-width:0.4167;stroke-miterlimit:10;}
	.st114{fill:#3F273C;stroke:#8B7B8A;stroke-width:0.4198;stroke-miterlimit:10;}
	.st115{fill:#3F263C;stroke:#897887;stroke-width:0.4228;stroke-miterlimit:10;}
	.st116{fill:#3F263B;stroke:#877685;stroke-width:0.4259;stroke-miterlimit:10;}
	.st117{fill:#3E263B;stroke:#857483;stroke-width:0.429;stroke-miterlimit:10;}
	.st118{fill:#3E253A;stroke:#837181;stroke-width:0.4321;stroke-miterlimit:10;}
	.st119{fill:#3E253A;stroke:#806F7F;stroke-width:0.4352;stroke-miterlimit:10;}
	.st120{fill:#3D253A;stroke:#7E6C7D;stroke-width:0.4383;stroke-miterlimit:10;}
	.st121{fill:#3D2439;stroke:#7C6A7B;stroke-width:0.4414;stroke-miterlimit:10;}
	.st122{fill:#3C2439;stroke:#7A6879;stroke-width:0.4444;stroke-miterlimit:10;}
	.st123{fill:#3C2338;stroke:#786576;stroke-width:0.4475;stroke-miterlimit:10;}
	.st124{fill:#3C2338;stroke:#766374;stroke-width:0.4506;stroke-miterlimit:10;}
	.st125{fill:#3B2338;stroke:#746072;stroke-width:0.4537;stroke-miterlimit:10;}
	.st126{fill:#3B2237;stroke:#725E70;stroke-width:0.4568;stroke-miterlimit:10;}
	.st127{fill:#3B2237;stroke:#705C6E;stroke-width:0.4599;stroke-miterlimit:10;}
	.st128{fill:#3A2136;stroke:#6D596C;stroke-width:0.463;stroke-miterlimit:10;}
	.st129{fill:#3A2136;stroke:#6B576A;stroke-width:0.466;stroke-miterlimit:10;}
	.st130{fill:#392136;stroke:#695467;stroke-width:0.4691;stroke-miterlimit:10;}
	.st131{fill:#392035;stroke:#675265;stroke-width:0.4722;stroke-miterlimit:10;}
	.st132{fill:#392035;stroke:#655063;stroke-width:0.4753;stroke-miterlimit:10;}
	.st133{fill:#381F34;stroke:#634D61;stroke-width:0.4784;stroke-miterlimit:10;}
	.st134{fill:#381F34;stroke:#614B5F;stroke-width:0.4815;stroke-miterlimit:10;}
	.st135{fill:#381F34;stroke:#5F485D;stroke-width:0.4846;stroke-miterlimit:10;}
	.st136{fill:#371E33;stroke:#5D465B;stroke-width:0.4877;stroke-miterlimit:10;}
	.st137{fill:#371E33;stroke:#5A4459;stroke-width:0.4907;stroke-miterlimit:10;}
	.st138{fill:#361E32;stroke:#584156;stroke-width:0.4938;stroke-miterlimit:10;}
	.st139{fill:#361D32;stroke:#563F54;stroke-width:0.4969;stroke-miterlimit:10;}
	.st140{fill:#361D32;stroke:#543C52;stroke-width:0.5;stroke-miterlimit:10;}
</style>
<g>
	<g>
		<g>
			<path class="st0" d="M4.6,250.5c4.1,7.9,11.3,11.7,11.3,11.7c0-3.4-0.5-6.8-0.7-10.2c-0.3-3.4-0.2-6.9-0.2-10.3
				c0-1.9-0.2-3.9,0-5.8c0.2-2.1,0.7-4.3,1.1-6.4c0.6-3.3,0.8-6.7,1.3-10c0.4-3.2,0.7-6.5,1.3-9.8c0.5-2.7,1.1-5.5,1.1-8.2
				c0-1.7,0.2-3.1,0.7-4.8c0.5-1.8,1.1-3.5,1.6-5.3c1.8-7.6-2.3-15.2-2.5-22.7c-0.1-2.4,0.3-4.7,0.5-7.1c0.2-2,0.7-3.9,0.7-6
				c0-3.1-0.2-6.2-0.2-9.4c0-4.6,0.2-9.2,0.7-13.8c0.3-2.5,0.9-5,0.9-7.5c0-2.4,0.1-4.8,0.5-7.3c0.6-4.5,0.3-9.1-0.4-13.6
				c-0.7-4.1-1.7-8.3-1.9-12.5c-0.2-2.5-0.6-5.1-0.7-7.6c0-1.3-0.4-2.5-0.5-3.8c-0.1-4.9,1.8-9.5,2.8-14.3c0.7-3.5,0.8-7.3,0.2-10.8
				c-0.7-3.8,0.2-7.7,0.3-11.6c0-2.9,0.6-5.9,1.4-8.8c0.3-1.1,0.8-2.3,1.1-3.4c0.4-1.3,1.5-14.7,0.7-14.5l-5.3-1.4
				c0,0-12.7-13-13.3-12.4S6.3,14,7.3,18.5c0.3,1.3,0.2,2.7,0.2,4.1c0,1.5,0.2,2.9,0.2,4.4c0,2.5,0.2,5.1-0.3,7.6
				c-0.3,1.9-1.1,3.8-1.5,5.8c-0.2,0.8-0.1,1.7,0.2,2.5c0.5,1.4,0.9,2.7,1.1,4.2c0.4,3.4,0.2,7,0.3,10.4c0.1,2.5,0.4,5,0.2,7.4
				c-0.4,4.2-1,8.5-0.5,12.7c1.1,8.7,2.4,17.9,0,26.5c-0.2,0.9-0.5,1.7-0.4,2.7c0.1,1.1,0.9,2,1.4,3c0.7,1.4,0.4,3,0.4,4.4
				c0,3.3-0.2,6.3-0.9,9.5c-0.6,2.8-0.6,5.6-0.9,8.3c-0.2,1.5-0.2,3.2,0.2,4.7c1,3.4,1.1,6.8,1.1,10.3c0,2.4-0.4,4.7-1,7
				c-0.5,2-0.7,4-1.1,5.9c-0.5,2.5-0.3,4.9-0.6,7.4c-0.4,2.8,0,5.9-0.1,8.7c0,1.8,0.2,3.6,0.5,5.4c0.4,2.8,1.1,5.4,1.1,8.3
				c0,2.2-0.3,4.2-0.6,6.5c-0.4,2.8-0.4,5.6-0.8,8.3c-0.6,4.9-0.3,9.5,0,14.3c0.4,6.4-1.7,12.4-2.8,18.7
				C2.3,240.8,0.5,242.5,4.6,250.5z"/>
			<path class="st0" d="M6.7,12.6c0.4,3.5,5.6,9.2,9.7,13.1c1.3,1.3,6,7.2,6.3,13.4"/>
			<path class="st0" d="M6.6,38.2c-0.5,6.5,8.9,11.5,13.3,18.2c0.5,0.7,2.2,3.6,2.4,5.7"/>
			<path class="st0" d="M7.5,67.3c-0.4,3.8,1.7,8.8,5.8,14.3c1.6,2.2,6.4,6.3,7,10.8"/>
			<path class="st0" d="M6.7,107.9c0.5,1.1,1.5,2.2,2,3.3c0.9,1.6,7,9.4,8.6,11.6c0.9,1.3,4,3,4.2,6.8"/>
			<path class="st0" d="M7.8,141.5c0.5,2.5,4.4,11.8,5.9,14.3c1.5,2.6,5.1,5.7,6,7.2"/>
			<path class="st0" d="M6,182.5c2.3,5.7,6.1,12.1,7,13.7c0.9,1.6,2.9,5.6,6.6,7.8"/>
			<path class="st0" d="M5.4,212.5c-0.4,5.5,4.2,9,6.9,12.6c1,1.4,2.8,8.5,2.8,8.5"/>
		</g>
		<g>
			<path class="st1" d="M4.6,250.5c4.1,7.9,11.3,11.7,11.3,11.7c0-3.4-0.5-6.8-0.7-10.2c-0.3-3.4-0.2-6.9-0.2-10.3
				c0-1.9-0.2-3.9,0-5.8c0.2-2.1,0.7-4.3,1.1-6.4c0.6-3.3,0.8-6.7,1.3-10c0.4-3.2,0.7-6.5,1.3-9.8c0.5-2.7,1.1-5.5,1.1-8.2
				c0-1.7,0.2-3.1,0.7-4.8c0.5-1.8,1.1-3.5,1.6-5.3c1.8-7.6-2.3-15.2-2.5-22.7c-0.1-2.4,0.3-4.7,0.5-7.1c0.2-2,0.7-3.9,0.7-6
				c0-3.1-0.2-6.2-0.2-9.4c0-4.6,0.2-9.2,0.7-13.8c0.3-2.5,0.9-5,0.9-7.5c0-2.4,0.1-4.8,0.5-7.3c0.6-4.5,0.3-9.1-0.4-13.6
				c-0.7-4.1-1.7-8.3-1.9-12.5c-0.2-2.5-0.6-5.1-0.7-7.6c0-1.3-0.4-2.5-0.5-3.8c-0.1-4.9,1.8-9.5,2.8-14.3c0.7-3.5,0.8-7.3,0.2-10.8
				c-0.7-3.8,0.2-7.7,0.3-11.6c0-2.9,0.6-5.9,1.4-8.8c0.3-1.1,0.8-2.3,1.1-3.4c0.4-1.3,1.5-14.7,0.7-14.5l-5.3-1.4
				c0,0-12.7-13-13.3-12.4S6.3,14,7.3,18.5c0.3,1.3,0.2,2.7,0.2,4.1c0,1.5,0.2,2.9,0.2,4.4c0,2.5,0.2,5.1-0.3,7.6
				c-0.3,1.9-1.1,3.8-1.5,5.8c-0.2,0.8-0.1,1.7,0.2,2.5c0.5,1.4,0.9,2.7,1.1,4.2c0.4,3.4,0.2,7,0.3,10.4c0.1,2.5,0.4,5,0.2,7.4
				c-0.4,4.2-1,8.5-0.5,12.7c1.1,8.7,2.4,17.9,0,26.5c-0.2,0.9-0.5,1.7-0.4,2.7c0.1,1.1,0.9,2,1.4,3c0.7,1.4,0.4,3,0.4,4.4
				c0,3.3-0.2,6.3-0.9,9.5c-0.6,2.8-0.6,5.6-0.9,8.3c-0.2,1.5-0.2,3.2,0.2,4.7c1,3.4,1.1,6.8,1.1,10.3c0,2.4-0.4,4.7-1,7
				c-0.5,2-0.7,4-1.1,5.9c-0.5,2.5-0.3,4.9-0.6,7.4c-0.4,2.8,0,5.9-0.1,8.7c0,1.8,0.2,3.6,0.5,5.4c0.4,2.8,1.1,5.4,1.1,8.3
				c0,2.2-0.3,4.2-0.6,6.5c-0.4,2.8-0.4,5.6-0.8,8.3c-0.6,4.9-0.3,9.5,0,14.3c0.4,6.4-1.7,12.4-2.8,18.7
				C2.3,240.8,0.5,242.5,4.6,250.5z"/>
			<path class="st2" d="M6.7,12.6c0.4,3.5,5.6,9.2,9.7,13.1c1.3,1.3,6,7.2,6.3,13.4"/>
			<path class="st2" d="M6.6,38.2c-0.5,6.5,8.9,11.5,13.3,18.2c0.5,0.7,2.2,3.6,2.4,5.7"/>
			<path class="st2" d="M7.5,67.3c-0.4,3.8,1.7,8.8,5.8,14.3c1.6,2.2,6.4,6.3,7,10.8"/>
			<path class="st2" d="M6.7,107.9c0.5,1.1,1.5,2.2,2,3.3c0.9,1.6,7,9.4,8.6,11.6c0.9,1.3,4,3,4.2,6.8"/>
			<path class="st2" d="M7.8,141.5c0.5,2.5,4.4,11.8,5.9,14.3c1.5,2.6,5.1,5.7,6,7.2"/>
			<path class="st2" d="M6,182.5c2.3,5.7,6.1,12.1,7,13.7c0.9,1.6,2.9,5.6,6.6,7.8"/>
			<path class="st2" d="M5.4,212.5c-0.4,5.5,4.2,9,6.9,12.6c1,1.4,2.8,8.5,2.8,8.5"/>
		</g>
		<g>
			<path class="st3" d="M4.6,250.5c4.1,7.9,11.3,11.7,11.3,11.7c0-3.4-0.5-6.8-0.7-10.2c-0.3-3.4-0.2-6.9-0.2-10.3
				c0-1.9-0.2-3.9,0-5.8c0.2-2.1,0.7-4.3,1.1-6.4c0.6-3.3,0.8-6.7,1.3-10c0.4-3.2,0.7-6.5,1.3-9.8c0.5-2.7,1.1-5.5,1.1-8.2
				c0-1.7,0.2-3.1,0.7-4.8c0.5-1.8,1.1-3.5,1.6-5.3c1.8-7.6-2.3-15.2-2.5-22.7c-0.1-2.4,0.3-4.7,0.5-7.1c0.2-2,0.7-3.9,0.7-6
				c0-3.1-0.2-6.2-0.2-9.4c0-4.6,0.2-9.2,0.7-13.8c0.3-2.5,0.9-5,0.9-7.5c0-2.4,0.1-4.8,0.5-7.3c0.6-4.5,0.3-9.1-0.4-13.6
				c-0.7-4.1-1.7-8.3-1.9-12.5c-0.2-2.5-0.6-5.1-0.7-7.6c0-1.3-0.4-2.5-0.5-3.8c-0.1-4.9,1.8-9.5,2.8-14.3c0.7-3.5,0.8-7.3,0.2-10.8
				c-0.7-3.8,0.2-7.7,0.3-11.6c0-2.9,0.6-5.9,1.4-8.8c0.3-1.1,0.8-2.3,1.1-3.4c0.4-1.3,1.5-14.7,0.7-14.5l-5.3-1.4
				c0,0-12.7-13-13.3-12.4S6.3,14,7.3,18.5c0.3,1.3,0.2,2.7,0.2,4.1c0,1.5,0.2,2.9,0.2,4.4c0,2.5,0.2,5.1-0.3,7.6
				c-0.3,1.9-1.1,3.8-1.5,5.8c-0.2,0.8-0.1,1.7,0.2,2.5c0.5,1.4,0.9,2.7,1.1,4.2c0.4,3.4,0.2,7,0.3,10.4c0.1,2.5,0.4,5,0.2,7.4
				c-0.4,4.2-1,8.5-0.5,12.7c1.1,8.7,2.4,17.9,0,26.5c-0.2,0.9-0.5,1.7-0.4,2.7c0.1,1.1,0.9,2,1.4,3c0.7,1.4,0.4,3,0.4,4.4
				c0,3.3-0.2,6.3-0.9,9.5c-0.6,2.8-0.6,5.6-0.9,8.3c-0.2,1.5-0.2,3.2,0.2,4.7c1,3.4,1.1,6.8,1.1,10.3c0,2.4-0.4,4.7-1,7
				c-0.5,2-0.7,4-1.1,5.9c-0.5,2.5-0.3,4.9-0.6,7.4c-0.4,2.8,0,5.9-0.1,8.7c0,1.8,0.2,3.6,0.5,5.4c0.4,2.8,1.1,5.4,1.1,8.3
				c0,2.2-0.3,4.2-0.6,6.5c-0.4,2.8-0.4,5.6-0.8,8.3c-0.6,4.9-0.3,9.5,0,14.3c0.4,6.4-1.7,12.4-2.8,18.7
				C2.3,240.8,0.5,242.5,4.6,250.5z"/>
			<path class="st3" d="M6.7,12.6c0.4,3.5,5.6,9.2,9.7,13.1c1.3,1.3,6,7.2,6.3,13.4"/>
			<path class="st3" d="M6.6,38.2c-0.5,6.5,8.9,11.5,13.3,18.2c0.5,0.7,2.2,3.6,2.4,5.7"/>
			<path class="st3" d="M7.5,67.3c-0.4,3.8,1.7,8.8,5.8,14.3c1.6,2.2,6.4,6.3,7,10.8"/>
			<path class="st3" d="M6.7,107.9c0.5,1.1,1.5,2.2,2,3.3c0.9,1.6,7,9.4,8.6,11.6c0.9,1.3,4,3,4.2,6.8"/>
			<path class="st3" d="M7.8,141.5c0.5,2.5,4.4,11.8,5.9,14.3c1.5,2.6,5.1,5.7,6,7.2"/>
			<path class="st3" d="M6,182.5c2.3,5.7,6.1,12.1,7,13.7c0.9,1.6,2.9,5.6,6.6,7.8"/>
			<path class="st3" d="M5.4,212.5c-0.4,5.5,4.2,9,6.9,12.6c1,1.4,2.8,8.5,2.8,8.5"/>
		</g>
	</g>
	<ellipse transform="matrix(0.6478 -0.7618 0.7618 0.6478 -1.7273 16.2171)" class="st4" cx="16.7" cy="10" rx="5.4" ry="11.7"/>
</g>
<g>
	<g>
		<path class="st5" d="M124.3,253.9c-5.3-4.5-1.9-7.5-1.2-8.9c0.6-1.4,2.5-3.4-1.8-7.5c-4.4-4.1-0.1-7-0.1-8.9s-0.4-5.3-4.5-10.8
			s3.1-6.7,2.8-8.8c-0.3-2.1-8.4-11.3-8.2-19.5c0.2-8.3,2.2-8.6,4.8-11.7c1.6-1.9,1.2-6.5-0.3-10.5c-3.9-10.7,3.5-11.2,4.2-12.3
			c0.6-1.1-2.5-7.4-1-12.4c1.4-4.9,6.2-2.8,4-6.8c-3.4-4.5,3.2-8.4,3.9-9.3c0.7-0.9,1.8-2.3-2.1-6.4s-1.2-6.9-0.5-9
			c0.6-2-6.6-10.2-8.1-17.2c-1.5-7,4.4-10,2-16.2c-5.5-7.4-0.6-21.8,1.8-20c0,0,2.3-1.1-0.3-8c-2.6-6.8,2.1-11.1,2.1-11.1
			s-2.5-4.7-2.5-16l12,4.9c0,0,3.7,11,0.8,16.6s3.2,4,4.9,14.1s3.1,13.6,2.3,16c-0.7,2.4-2.8,2.8-3.6,4.4s3.4,17-1.1,20.1
			c-1.8,1.3,4.4,10.7,0.7,13.4c-3.7,2.7-3.7,3-3.7,3s6.6,11.9,2.5,13.7c-4.1,1.7,3.3,13.4,0.4,18c-2.9,4.5,2.5,14.7,2.5,14.7
			s5.7,14.3-0.8,19.2s4.1,7-1.6,15s-0.4,17.8-4.1,21c-3.7,3.1,3.4,12.6,0.9,14s2.7,13.7-0.1,14.3s5.3,11.4,2,12.8L124.3,253.9z"/>
		<path class="st2" d="M119.9,30.9c-0.7,2-3.5,2.5,12.5,18.1"/>
		<path class="st2" d="M119.9,57.4c1,5.4,5.6,10.6,15.9,21.4"/>
		<path class="st2" d="M118.3,78.4c0,0,11.7,21.1,16.2,20.8"/>
		<path class="st2" d="M121.8,106.8c0,0,9.5,5.4,10,9.1"/>
		<path class="st2" d="M127.4,123.7c-0.1-0.3,5.1-0.4,6.3,5.3"/>
		<path class="st2" d="M123.3,137.7c0,0,9.8,5.5,10.3,11.6"/>
		<path class="st2" d="M119.9,154.6c0.9,9.8,14.8,23.2,14.1,28.3"/>
		<path class="st2" d="M117,173.4c0.9,9.8,15.5,23.2,14.8,28.3"/>
		<path class="st2" d="M117.6,207.3c1.2,3.6,11.6,7,11.4,12.1"/>
		<path class="st2" d="M119.3,221.6c1.2,3.6,11.2,5.9,11.1,10.9"/>
		<path class="st2" d="M122.2,238.4c3,2.1,8.5,4.1,8.4,7.5"/>
	</g>
	<ellipse transform="matrix(0.5506 -0.8348 0.8348 0.5506 34.6108 116.9184)" class="st6" cx="125.9" cy="26.3" rx="3.2" ry="7.3"/>
</g>
<g>
	<path class="st7" d="M38.8,62.5l1.7-0.3c1.3-0.2,2.2-1.2,2.3-2.5c0-0.6,0.1-1.2,0.1-1.9c0.2-2.6,3.5-3.5,5-1.4l1.1,1.5
		c0.6,0.8,1.6,1.3,2.6,1.1l2.1-0.3c2.6-0.3,4.1,2.8,2.3,4.7l-1.4,1.4c-0.9,0.9-1,2.3-0.4,3.4l0.3,0.5c1.3,2.2-0.8,4.9-3.2,4.1
		l-2.6-0.9c-0.9-0.3-1.9-0.1-2.6,0.5l-0.8,0.7c-1.8,1.5-4.6,0.2-4.5-2.2v0c0-1-0.5-2-1.5-2.5L38,67.7C35.6,66.4,36.2,62.9,38.8,62.5
		z"/>
	<path class="st8" d="M43,62.3c0-0.5,0.1-1.2,0.2-1.8c0.2-2.5,3.6-3.4,5-1.3l1,1.5c0.6,0.8,1.5,1.3,2.5,1.2l2.1-0.2
		c2.6-0.3,4,2.9,2.2,4.7l-1.4,1.4c-0.9,0.9-1.1,2.2-0.4,3.3l0.3,0.5c1.3,2.2-0.9,4.8-3.3,3.9l-2.6-0.9c-0.9-0.3-1.9-0.2-2.6,0.4
		l-0.8,0.6c-1.8,1.4-4.5,0.1-4.4-2.3l0,0c0.1-1-0.5-2-1.4-2.5c0,0-1.3-0.7-1.3-0.8c-2.3-1.3-1.6-4.8,1-5.1l1.7-0.2
		C41.9,64.6,42.9,63.6,43,62.3z"/>
	<path class="st9" d="M43.2,64.9c0-0.5,0.2-1.2,0.2-1.8c0.2-2.5,3.6-3.2,4.9-1.1l1,1.5c0.5,0.8,1.5,1.3,2.5,1.3l2.1-0.2
		c2.6-0.2,3.9,2.9,2.1,4.7l-1.4,1.3c-0.9,0.9-1.1,2.2-0.5,3.3l0.2,0.5c1.2,2.2-1,4.7-3.3,3.8l-2.5-0.8c-0.9-0.3-1.9-0.2-2.6,0.3
		l-0.8,0.6c-1.9,1.4-4.5-0.1-4.3-2.4l0.1,0c0.1-1-0.4-2-1.3-2.5c0,0-1.3-0.8-1.3-0.8c-2.3-1.3-1.5-4.8,1.1-5.1l1.7-0.2
		C42.1,67.2,43.1,66.2,43.2,64.9z"/>
	<path class="st10" d="M43.4,67.6c0.1-0.5,0.2-1.1,0.3-1.8c0.3-2.5,3.6-3.1,4.9-1l0.9,1.5c0.5,0.8,1.4,1.4,2.4,1.3l2-0.2
		c2.5-0.1,3.8,3,1.9,4.7l-1.5,1.3c-0.9,0.8-1.1,2.1-0.6,3.2l0.2,0.5c1.1,2.2-1.1,4.6-3.4,3.7L48.1,80c-0.9-0.4-1.8-0.3-2.6,0.3
		l-0.8,0.6c-1.9,1.3-4.4-0.2-4.2-2.4l0.1,0c0.1-1-0.4-2-1.2-2.5c0,0-1.3-0.8-1.3-0.8c-2.2-1.4-1.4-4.8,1.2-5l1.6-0.1
		C42.2,69.7,43.2,68.8,43.4,67.6z"/>
	<path class="st11" d="M43.5,70.2c0.1-0.5,0.3-1.1,0.3-1.7c0.3-2.4,3.6-3,4.9-0.8l0.8,1.5c0.5,0.9,1.4,1.4,2.4,1.4l2-0.2
		c2.5-0.1,3.7,3.1,1.8,4.7l-1.5,1.2c-0.9,0.8-1.1,2.1-0.6,3.1l0.2,0.5c1,2.2-1.2,4.5-3.4,3.5l-2.4-0.8c-0.8-0.4-1.8-0.3-2.6,0.2
		l-0.9,0.5c-1.9,1.3-4.4-0.3-4.1-2.5l0.2,0c0.1-1-0.3-2-1.1-2.6c0-0.1-1.3-0.8-1.2-0.8c-2.2-1.4-1.3-4.7,1.3-4.9l1.6-0.1
		C42.4,72.3,43.4,71.4,43.5,70.2z"/>
	<path class="st12" d="M43.7,72.8c0.1-0.5,0.3-1.1,0.4-1.7c0.3-2.4,3.7-2.8,4.8-0.7l0.8,1.5c0.4,0.9,1.3,1.4,2.3,1.4l2-0.2
		c2.5,0,3.6,3.1,1.7,4.7l-1.6,1.2c-0.9,0.8-1.2,2-0.7,3.1l0.2,0.5c1,2.2-1.3,4.4-3.5,3.4l-2.4-0.8c-0.8-0.4-1.8-0.4-2.6,0.1L44.3,86
		c-1.9,1.2-4.3-0.4-4-2.6l0.2,0c0.2-1-0.2-2-1-2.6c0-0.1-1.2-0.8-1.2-0.9c-2.1-1.4-1.2-4.7,1.4-4.8l1.6-0.1
		C42.5,74.9,43.6,74,43.7,72.8z"/>
	<path class="st13" d="M43.9,75.4c0.1-0.5,0.3-1.1,0.4-1.7c0.4-2.4,3.7-2.7,4.8-0.5l0.7,1.5c0.4,0.9,1.2,1.5,2.2,1.5L54,76
		c2.5,0,3.5,3.2,1.6,4.7L54,81.9c-0.9,0.8-1.2,2-0.7,3l0.1,0.5c0.9,2.2-1.4,4.3-3.5,3.3l-2.3-0.8c-0.8-0.4-1.8-0.4-2.5,0.1l-0.9,0.5
		c-2,1.1-4.3-0.5-3.9-2.7l0.2,0c0.2-1-0.2-2-1-2.6c0-0.1-1.2-0.8-1.2-0.9c-2.1-1.5-1-4.7,1.5-4.8l1.6,0
		C42.7,77.4,43.7,76.5,43.9,75.4z"/>
	<path class="st14" d="M44.1,77.9c0.1-0.5,0.4-1.1,0.5-1.6c0.4-2.3,3.7-2.6,4.7-0.4l0.7,1.5c0.4,0.9,1.2,1.5,2.2,1.6l1.9-0.1
		c2.5,0.1,3.4,3.3,1.4,4.7l-1.6,1.1c-0.9,0.7-1.2,1.9-0.8,3l0.1,0.5c0.8,2.2-1.5,4.2-3.6,3.1l-2.3-0.8c-0.8-0.4-1.7-0.4-2.5,0
		L43.9,91c-2,1.1-4.3-0.7-3.8-2.8l0.3,0c0.2-0.9-0.1-2-0.9-2.6c0-0.1-1.2-0.8-1.2-0.9c-2-1.5-0.9-4.7,1.6-4.7l1.6,0
		C42.8,79.9,43.9,79.1,44.1,77.9z"/>
	<path class="st15" d="M44.2,80.5c0.1-0.5,0.4-1.1,0.5-1.6c0.4-2.3,3.8-2.4,4.7-0.3l0.6,1.5c0.3,0.9,1.1,1.5,2.1,1.6l1.9-0.1
		c2.4,0.2,3.3,3.3,1.3,4.7l-1.7,1c-0.9,0.7-1.2,1.9-0.8,2.9l0.1,0.5c0.8,2.2-1.6,4.1-3.6,3l-2.2-0.7c-0.8-0.5-1.7-0.5-2.5-0.1
		l-0.9,0.4c-2,1-4.2-0.8-3.7-2.9l0.3-0.1c0.3-0.9,0-1.9-0.8-2.6c0-0.1-1.1-0.8-1.1-1c-1.9-1.6-0.8-4.7,1.7-4.6l1.6,0.1
		C43,82.4,44.1,81.6,44.2,80.5z"/>
	<path class="st16" d="M44.4,83c0.1-0.5,0.5-1,0.6-1.6c0.5-2.3,3.8-2.3,4.6-0.1l0.6,1.5c0.3,0.9,1.1,1.5,2.1,1.7l1.8-0.1
		c2.4,0.2,3.2,3.4,1.2,4.7l-1.7,1c-0.9,0.7-1.3,1.9-0.9,2.9l0.1,0.6c0.7,2.1-1.7,4.1-3.7,2.9l-2.2-0.7c-0.7-0.5-1.7-0.5-2.5-0.1
		l-1,0.4c-2,1-4.2-0.9-3.5-2.9l0.4-0.1c0.3-0.9,0-1.9-0.7-2.6c0-0.1-1.1-0.9-1.1-1c-1.9-1.6-0.7-4.7,1.8-4.6l1.6,0.1
		C43.1,84.9,44.2,84.2,44.4,83z"/>
	<path class="st17" d="M44.6,85.6c0.1-0.4,0.5-1,0.6-1.6c0.5-2.2,3.8-2.1,4.6,0l0.5,1.5c0.3,0.9,1,1.6,2,1.7l1.8-0.1
		c2.4,0.3,3.1,3.4,1.1,4.8l-1.7,0.9c-0.9,0.7-1.3,1.8-1,2.8l0,0.6c0.6,2.1-1.8,4-3.7,2.7l-2.1-0.7c-0.7-0.5-1.7-0.6-2.5-0.2l-1,0.3
		c-2,0.9-4.1-1-3.4-3l0.4-0.1c0.3-0.9,0.1-1.9-0.6-2.6c0-0.1-1.1-0.9-1.1-1c-1.8-1.6-0.6-4.7,1.9-4.5l1.6,0.2
		C43.2,87.4,44.4,86.7,44.6,85.6z"/>
	<path class="st18" d="M44.8,88.2c0.1-0.4,0.6-1,0.7-1.5c0.5-2.2,3.9-2,4.6,0.2l0.5,1.6c0.2,0.9,1,1.6,1.9,1.8l1.7-0.1
		c2.4,0.3,3,3.5,0.9,4.8l-1.8,0.9c-0.9,0.6-1.3,1.8-1,2.8l0,0.6c0.6,2.1-1.9,3.9-3.8,2.6l-2.1-0.7c-0.7-0.5-1.6-0.6-2.5-0.3l-1,0.3
		c-2.1,0.8-4.1-1.1-3.3-3.1l0.4-0.1c0.4-0.9,0.2-1.9-0.5-2.6c0-0.1-1.1-0.9-1-1.1c-1.8-1.7-0.4-4.7,2-4.4l1.6,0.2
		C43.4,89.9,44.6,89.2,44.8,88.2z"/>
	<path class="st19" d="M44.9,90.7c0.1-0.4,0.6-1,0.7-1.5c0.5-2.2,3.9-1.9,4.5,0.3l0.4,1.6c0.2,0.9,0.9,1.6,1.9,1.9l1.7-0.1
		c2.4,0.4,2.9,3.6,0.8,4.8l-1.8,0.8c-0.9,0.6-1.3,1.7-1.1,2.7l0,0.6c0.5,2.1-2,3.8-3.8,2.5l-2-0.7c-0.7-0.5-1.6-0.7-2.5-0.4l-1,0.3
		c-2.1,0.8-4-1.3-3.2-3.2l0.5-0.1c0.4-0.9,0.2-1.9-0.4-2.7c0-0.2-1-0.9-1-1.1c-1.7-1.7-0.3-4.7,2.1-4.4l1.6,0.2
		C43.5,92.4,44.7,91.8,44.9,90.7z"/>
	<path class="st20" d="M45.1,93.3c0.1-0.4,0.7-1,0.8-1.5c1-2,3.9-1.7,4.5,0.4l0.4,1.6c0.2,0.9,0.9,1.7,1.8,1.9l1.7,0
		c2.4,0.5,2.8,3.6,0.7,4.8l-1.9,0.8c-0.9,0.6-1.4,1.7-1.1,2.7l0,0.6c0.4,2.1-2.1,3.7-3.9,2.3l-2-0.7c-0.7-0.6-1.6-0.7-2.4-0.4
		l-1,0.3c-2.1,0.7-4-1.4-3.1-3.3l0.5-0.1c0.4-0.8,0.3-1.9-0.4-2.7c0-0.2-1-0.9-1-1.1c-1.7-1.8-0.2-4.7,2.2-4.3l1.6,0.3
		C43.7,94.9,44.9,94.3,45.1,93.3z"/>
	<path class="st21" d="M45.3,95.8c0.1-0.4,0.8-1,0.8-1.4c1-2,4-1.6,4.4,0.6l0.3,1.6c0.1,0.9,0.8,1.7,1.8,2l1.6,0
		c2.3,0.5,2.7,3.7,0.6,4.8l-1.9,0.7c-0.9,0.6-1.4,1.6-1.2,2.6l-0.1,0.6c0.3,2.1-2.2,3.6-3.9,2.2l-1.9-0.6c-0.6-0.6-1.6-0.8-2.4-0.5
		l-1,0.2c-2.1,0.7-3.9-1.5-3-3.4L40,105c0.5-0.8,0.4-1.9-0.3-2.7c0-0.2-1-0.9-0.9-1.2c-1.6-1.8-0.1-4.7,2.3-4.2l1.6,0.3
		C43.8,97.4,45,96.8,45.3,95.8z"/>
	<path class="st22" d="M45.5,98.4c0-0.4,0.8-0.9,0.9-1.4c1.1-1.9,4-1.5,4.4,0.7l0.2,1.6c0.1,0.9,0.7,1.7,1.7,2l1.6,0
		c2.3,0.6,2.6,3.8,0.4,4.8l-1.9,0.7c-1,0.5-1.4,1.6-1.2,2.6l-0.1,0.6c0.3,2.1-2.2,3.5-4,2.1l-1.9-0.6c-0.6-0.6-1.5-0.8-2.4-0.6
		l-1.1,0.2c-2.2,0.6-3.9-1.6-2.9-3.4l0.6-0.1c0.5-0.8,0.4-1.9-0.2-2.7c0-0.2-0.9-0.9-0.9-1.2c-1.6-1.8,0-4.7,2.5-4.2l1.6,0.4
		C44,99.9,45,99.3,45.5,98.4z"/>
	<path class="st23" d="M45.6,100.9c0-0.4,0.9-0.9,0.9-1.4c1.1-1.9,4-1.3,4.4,0.9l0.2,1.6c0.1,0.9,0.7,1.8,1.6,2.1l1.6,0
		c2.3,0.6,2.5,3.8,0.3,4.8l-2,0.6c-1,0.5-1.5,1.5-1.3,2.5l-0.1,0.6c0.2,2.1-2.3,3.4-4,1.9l-1.8-0.6c-0.6-0.6-1.5-0.9-2.4-0.6
		l-1.1,0.2c-2.2,0.5-3.8-1.7-2.8-3.5l0.7-0.1c0.5-0.8,0.5-1.9-0.1-2.7c0-0.2-0.9-1-0.9-1.2c-1.5-1.9,0.2-4.7,2.6-4.1l1.6,0.4
		C44.1,102.4,45.2,101.9,45.6,100.9z"/>
	<path class="st24" d="M45.8,103.5c0-0.4,0.9-0.9,1-1.3c1.2-1.9,4.1-1.2,4.3,1l0.1,1.6c0,0.9,0.6,1.8,1.6,2.2l1.5,0
		c2.3,0.7,2.4,3.9,0.2,4.8l-2,0.6c-1,0.5-1.5,1.5-1.4,2.4l-0.1,0.6c0.1,2.1-2.4,3.3-4,1.8l-1.8-0.6c-0.6-0.6-1.5-0.9-2.4-0.7
		l-1.1,0.1c-2.2,0.5-3.8-1.9-2.7-3.6l0.7-0.1c0.5-0.8,0.6-1.9,0-2.7c0-0.2-0.9-1-0.9-1.3c-1.5-1.9,0.3-4.6,2.7-4l1.6,0.4
		C44.3,104.9,45.3,104.4,45.8,103.5z"/>
	<path class="st25" d="M46,106c0-0.4,1-0.9,1-1.3c1.3-1.8,4.1-1,4.3,1.2l0.1,1.6c0,0.9,0.6,1.8,1.5,2.2l1.5,0.1
		c2.3,0.8,2.3,4,0.1,4.8l-2,0.5c-1,0.5-1.5,1.4-1.4,2.4l-0.2,0.6c0.1,2.1-2.5,3.2-4.1,1.7l-1.7-0.6c-0.6-0.7-1.5-1-2.4-0.8l-1.1,0.1
		c-2.2,0.4-3.7-2-2.5-3.7l0.7-0.1c0.6-0.8,0.6-1.9,0.1-2.7c0-0.2-0.8-1-0.8-1.3c-1.4-1.9,0.4-4.6,2.8-4l1.5,0.5
		C44.4,107.4,45.5,106.9,46,106z"/>
	<path class="st26" d="M46.2,108.6c0-0.3,1-0.9,1.1-1.3c1.3-1.8,4.1-0.9,4.2,1.3l0,1.6c0,0.9,0.5,1.9,1.4,2.3l1.5,0.1
		c2.2,0.8,2.2,4-0.1,4.8l-2.1,0.5c-1,0.4-1.5,1.4-1.5,2.3l-0.2,0.6c0,2.1-2.6,3.1-4.1,1.5l-1.6-0.6c-0.6-0.7-1.4-1-2.3-0.9l-1.1,0.1
		c-2.2,0.4-3.7-2.1-2.4-3.8l0.8-0.1c0.6-0.7,0.7-1.8,0.2-2.7c0-0.3-0.8-1-0.8-1.3c-1.4-2,0.5-4.6,2.9-3.9l1.5,0.5
		C44.6,109.9,45.7,109.5,46.2,108.6z"/>
	<path class="st27" d="M46.5,111.1c0-0.3,1.1-0.8,1.1-1.3c1.4-1.7,4.2-0.8,4.2,1.4l0,1.6c-0.1,0.9,0.5,1.9,1.4,2.3l1.4,0.1
		c2.2,0.9,2.1,4.1-0.2,4.8l-2.1,0.4c-1,0.4-1.6,1.3-1.5,2.3l-0.2,0.6c-0.1,2.1-2.7,3-4.2,1.4l-1.6-0.5c-0.5-0.7-1.4-1.1-2.3-0.9
		l-1.1,0c-2.3,0.3-3.6-2.2-2.3-3.9l0.8-0.1c0.6-0.7,0.8-1.8,0.2-2.8c0-0.3-0.8-1-0.8-1.3c-1.3-2,0.6-4.6,3-3.8l1.5,0.6
		C44.9,112.4,46,112,46.5,111.1z"/>
	<path class="st28" d="M46.8,113.7c0-0.3,1.1-0.8,1.2-1.2c1.4-1.7,4.2-0.6,4.1,1.6l-0.1,1.6c-0.1,1,0.4,1.9,1.3,2.4l1.4,0.1
		c2.2,0.9,2,4.1-0.3,4.8l-2.2,0.4c-1,0.4-1.6,1.3-1.6,2.2l-0.2,0.6c-0.2,2.1-2.8,3-4.2,1.3l-1.5-0.5c-0.5-0.7-1.4-1.1-2.3-1l-1.2,0
		c-2.3,0.2-3.6-2.3-2.2-3.9l0.9-0.1c0.7-0.7,0.8-1.8,0.3-2.8c0-0.3-0.8-1-0.7-1.4c-1.3-2.1,0.8-4.6,3.1-3.8l1.5,0.6
		C45.2,114.9,46.3,114.5,46.8,113.7z"/>
	<path class="st29" d="M47.1,116.3c0-0.3,1.2-0.8,1.2-1.2c1.5-1.6,4.2-0.5,4.1,1.7l-0.1,1.6c-0.1,1,0.3,1.9,1.3,2.5L55,121
		c2.2,1,1.9,4.2-0.4,4.8l-2.2,0.3c-1,0.4-1.6,1.2-1.6,2.2l-0.3,0.6c-0.2,2.1-2.9,2.9-4.3,1.1l-1.5-0.5c-0.5-0.7-1.4-1.1-2.3-1.1
		l-1.2,0c-2.3,0.2-3.6-2.5-2.1-4l0.9-0.1c0.7-0.7,0.9-1.8,0.4-2.8c0-0.3-0.7-1.1-0.7-1.4c-1.2-2.1,0.9-4.6,3.2-3.7l1.5,0.7
		C45.4,117.4,46.5,117.1,47.1,116.3z"/>
	<path class="st30" d="M47.4,118.8c0-0.3,1.2-0.8,1.3-1.2c1.6-1.6,4.3-0.4,4.1,1.9l-0.2,1.6c-0.2,1,0.3,2,1.2,2.5l1.3,0.1
		c2.2,1.1,1.8,4.3-0.6,4.8l-2.2,0.3c-1,0.3-1.6,1.2-1.7,2.1l-0.3,0.6c-0.3,2.1-3,2.8-4.3,1l-1.4-0.5c-0.5-0.8-1.4-1.2-2.3-1.1
		l-1.2,0c-2.3,0.1-3.5-2.6-2-4.1l0.9-0.1c0.7-0.7,1-1.8,0.5-2.8c0-0.3-0.7-1.1-0.7-1.4c-1.2-2.1,1-4.6,3.3-3.6l1.5,0.7
		C45.7,119.9,46.8,119.6,47.4,118.8z"/>
	<path class="st31" d="M47.7,121.4c0-0.3,1.3-0.8,1.3-1.1c1.6-1.6,4.3-0.2,4,2l-0.2,1.6c-0.2,1,0.2,2,1.1,2.6l1.3,0.2
		c2.2,1.1,1.7,4.3-0.7,4.9l-2.3,0.2c-1,0.3-1.7,1.1-1.8,2.1l-0.3,0.6c-0.4,2.1-3.1,2.7-4.4,0.9l-1.4-0.5c-0.5-0.8-1.3-1.2-2.3-1.2
		l-1.2-0.1c-2.3,0.1-3.5-2.7-1.9-4.2l1-0.2c0.8-0.7,1-1.8,0.6-2.8c0-0.3-0.7-1.1-0.6-1.5c-1.1-2.2,1.1-4.6,3.4-3.6l1.5,0.7
		C46,122.4,47.1,122.1,47.7,121.4z"/>
	<path class="st32" d="M48,123.9c0-0.3,1.3-0.8,1.4-1.1c1.7-1.5,4.3-0.1,4,2.1l-0.3,1.6c-0.2,1,0.2,2,1.1,2.6l1.3,0.2
		c2.1,1.2,1.6,4.4-0.8,4.9l-2.3,0.2c-1,0.3-1.7,1.1-1.8,2l-0.3,0.7c-0.4,2-3.2,2.6-4.4,0.7l-1.3-0.4c-0.4-0.8-1.3-1.3-2.2-1.3
		l-1.2-0.1c-2.4,0-3.4-2.8-1.8-4.3l1-0.2c0.8-0.7,1.1-1.8,0.7-2.8c0-0.3-0.6-1.1-0.6-1.5c-1.1-2.2,1.3-4.6,3.5-3.5l1.5,0.8
		C46.3,124.9,47.4,124.7,48,123.9z"/>
	<path class="st33" d="M48.3,126.5c0-0.3,1.4-0.7,1.4-1.1c1.7-1.5,4.4,0.1,3.9,2.3l-0.3,1.6c-0.3,1,0.1,2.1,1,2.7l1.2,0.2
		c2.1,1.2,1.5,4.5-0.9,4.9l-2.3,0.1c-1,0.3-1.7,1-1.9,2l-0.4,0.7c-0.5,2-3.3,2.5-4.5,0.6l-1.3-0.4c-0.4-0.8-1.3-1.3-2.2-1.3
		l-1.3-0.1c-2.4-0.1-3.4-2.9-1.7-4.4l1.1-0.2c0.8-0.6,1.2-1.8,0.8-2.8c0-0.4-0.6-1.1-0.6-1.5c-1-2.3,1.4-4.6,3.6-3.4l1.5,0.8
		C46.5,127.4,47.6,127.2,48.3,126.5z"/>
	<path class="st34" d="M48.6,129.1c0-0.3,1.4-0.7,1.5-1c1.8-1.4,4.4,0.2,3.9,2.4l-0.4,1.6c-0.3,1,0.1,2.1,1,2.8l1.2,0.2
		c2.1,1.3,1.4,4.5-1,4.9l-2.4,0.1c-1,0.2-1.7,1-1.9,1.9l-0.4,0.7c-0.6,2-3.4,2.4-4.5,0.5l-1.2-0.4c-0.4-0.8-1.3-1.4-2.2-1.4
		l-1.3-0.2c-2.4-0.1-3.3-3.1-1.6-4.5l1.1-0.2c0.9-0.6,1.2-1.8,0.8-2.9c0-0.4-0.6-1.1-0.6-1.6c-1-2.3,1.5-4.6,3.7-3.4l1.5,0.9
		C46.8,129.9,47.9,129.7,48.6,129.1z"/>
	<path class="st35" d="M48.9,131.6c0-0.3,1.5-0.7,1.5-1c1.9-1.4,4.4,0.3,3.9,2.6l-0.5,1.6c-0.3,1,0,2.1,0.9,2.8l1.2,0.2
		c2.1,1.4,1.3,4.6-1.2,4.9l-2.4,0c-1,0.2-1.8,0.9-2,1.9l-0.4,0.7c-0.6,2-3.5,2.3-4.6,0.3l-1.2-0.4c-0.4-0.9-1.2-1.4-2.2-1.5
		l-1.3-0.2c-2.4-0.2-3.3-3.2-1.4-4.5l1.1-0.2c0.9-0.6,1.3-1.8,0.9-2.9c0-0.4-0.6-1.1-0.5-1.6c-0.9-2.3,1.6-4.6,3.8-3.3l1.5,0.9
		C47.1,132.4,48.2,132.3,48.9,131.6z"/>
	<path class="st36" d="M49.2,134.2c0-0.2,1.5-0.7,1.6-1c1.9-1.3,4.5,0.5,3.8,2.7l-0.5,1.6c-0.4,1,0,2.2,0.8,2.9l1.1,0.2
		c2.1,1.4,1.2,4.7-1.3,4.9l-2.5,0c-1,0.2-1.8,0.9-2,1.8l-0.4,0.7c-0.7,2-3.6,2.2-4.6,0.2l-1.1-0.4c-0.4-0.9-1.2-1.5-2.2-1.6
		l-1.3-0.2c-2.5-0.2-3.2-3.3-1.3-4.6l1.2-0.2c0.9-0.6,1.4-1.8,1-2.9c0-0.4-0.5-1.2-0.5-1.6c-0.9-2.4,1.7-4.5,3.9-3.2l1.5,0.9
		C47.3,135,48.5,134.8,49.2,134.2z"/>
	<path class="st37" d="M49.5,136.7c0-0.2,1.6-0.7,1.6-1c2-1.3,4.5,0.6,3.8,2.9l-0.6,1.6c-0.4,1-0.1,2.2,0.8,2.9l1.1,0.3
		c2,1.5,1.1,4.7-1.4,4.9l-2.5-0.1c-1,0.2-1.8,0.9-2.1,1.7l-0.5,0.7c-0.8,2-3.7,2.1-4.7,0.1l-1.1-0.4c-0.4-0.9-1.2-1.5-2.2-1.6
		l-1.3-0.3c-2.5-0.3-3.2-3.4-1.2-4.7l1.2-0.2c0.9-0.6,1.2-1.7,1.1-2.9c0-0.4-0.5-1.2-0.5-1.7c-0.8-2.4,1.9-4.5,4-3.2l1.5,1
		C47.6,137.5,48.7,137.3,49.5,136.7z"/>
	<path class="st38" d="M49.8,139.3c0-0.2,1.6-0.7,1.7-0.9c2-1.3,4.5,0.7,3.7,3l-0.6,1.7c-0.4,1-0.2,2.2,0.7,3l1.1,0.3
		c2,1.5,1,4.8-1.5,4.9l-2.5-0.1c-1,0.1-1.8,0.8-2.2,1.7l-0.5,0.7c-0.9,2-3.8,2-4.7-0.1l-1-0.3c-0.3-0.9-1.2-1.6-2.2-1.7l-1.3-0.3
		c-2.5-0.4-3.1-3.5-1.1-4.8l1.3-0.2c1-0.6,1.3-1.7,1.2-2.9c0-0.4-0.5-1.2-0.4-1.7c-0.8-2.4,2-4.5,4.1-3.1l1.5,1
		C47.9,140,49,139.9,49.8,139.3z"/>
	<path class="st39" d="M50.1,142c0-0.2,1.7-0.6,1.7-0.9c2.1-1.2,4.5,0.9,3.7,3.1l-0.7,1.7c-0.5,1-0.2,2.3,0.7,3.1l1,0.3
		c2,1.6,0.9,4.9-1.7,4.9l-2.6-0.2c-1,0.1-1.9,0.8-2.2,1.6l-0.5,0.7c-0.9,2-3.9,2-4.8-0.2l-1-0.3c-0.3-0.9-1.1-1.6-2.1-1.8l-1.4-0.3
		c-2.5-0.4-3.1-3.7-1-4.9l1.3-0.2c1-0.5,1.4-1.7,1.3-2.9c0-0.4-0.4-1.2-0.4-1.7c-0.7-2.5,2.1-4.5,4.2-3l1.4,1.1
		C48.1,142.6,49.3,142.6,50.1,142z"/>
	<path class="st40" d="M50.4,144.7c0-0.2,1.7-0.6,1.8-0.9c2.2-1.2,4.6,1,3.6,3.3l-0.7,1.7c-0.5,1-0.3,2.3,0.6,3.1l1,0.3
		c2,1.7,0.8,4.9-1.8,4.9l-2.6-0.2c-1,0.1-1.9,0.7-2.3,1.6l-0.5,0.7c-1,2-4,1.9-4.8-0.3l-0.9-0.3c-0.3-0.9-1.1-1.7-2.1-1.8l-1.4-0.4
		c-2.5-0.5-3-3.8-0.9-5l1.3-0.2c1-0.5,1.5-1.7,1.4-2.9c0-0.4-0.3-1.2-0.4-1.7c-0.2-2.6,2.2-4.5,4.4-3l1.4,1.1
		C48.4,145.2,49.6,145.2,50.4,144.7z"/>
	<path class="st41" d="M50.7,147.3c0-0.2,1.8-0.6,1.8-0.8c2.2-1.1,4.6,1.2,3.6,3.4l-0.8,1.7c-0.5,1-0.3,2.3,0.5,3.2l1,0.3
		c2,1.7,0.7,5-1.9,4.9l-2.6-0.3c-1,0-1.9,0.7-2.3,1.5l-0.6,0.7c-1.1,2-4.1,1.8-4.8-0.5l-0.9-0.3c-0.3-1-1.1-1.7-2.1-1.9l-1.4-0.4
		c-2.6-0.5-3-3.9-0.8-5l1.4-0.2c1.1-0.5,1.5-1.7,1.5-2.9c0-0.5-0.3-1.2-0.3-1.8c-0.2-2.6,2.3-4.5,4.5-2.9l1.4,1.2
		C48.7,147.8,49.8,147.9,50.7,147.3z"/>
	<path class="st42" d="M51,150c0-0.2,1.8-0.6,1.9-0.8c2.3-1.1,4.6,1.3,3.6,3.6l-0.8,1.7c-0.6,1-0.4,2.3,0.5,3.2L57,158
		c2,1.8,0.6,5-2,4.9l-2.7-0.3c-1,0-2,0.6-2.4,1.5l-0.6,0.7c-1.1,2-4.2,1.7-4.9-0.6l-0.8-0.3c-0.3-1-1.1-1.8-2.1-2l-1.4-0.4
		c-2.6-0.6-2.9-4-0.7-5.1l1.4-0.2c1.1-0.5,1.6-1.7,1.5-3c0-0.5-0.3-1.2-0.3-1.8c-0.2-2.7,2.5-4.5,4.6-2.8l1.4,1.2
		C49,150.5,50.1,150.5,51,150z"/>
	<path class="st43" d="M51.3,152.7c0-0.2,1.9-0.6,1.9-0.8c2.3-1,4.7,1.4,3.5,3.7l-0.9,1.7c-0.6,1-0.4,2.4,0.4,3.3l0.9,0.4
		c1.9,1.8,0.5,5.1-2.2,4.9l-2.7-0.4c-1.1,0-2,0.6-2.4,1.4l-0.6,0.7c-1.2,2-4.3,1.6-4.9-0.7l-0.8-0.3c-0.2-1-1-1.8-2.1-2.1l-1.4-0.4
		c-2.6-0.7-2.9-4.1-0.6-5.2l1.5-0.2c1.1-0.5,1.7-1.7,1.6-3c0-0.5-0.3-1.3-0.3-1.8c-0.2-2.7,2.6-4.5,4.7-2.8l1.4,1.2
		C49.2,153.1,50.4,153.1,51.3,152.7z"/>
	<path class="st44" d="M51.6,155.3c0-0.2,1.9-0.6,2-0.7c2.4-1,4.7,1.6,3.5,3.8l-0.9,1.7c-0.6,1-0.5,2.4,0.4,3.4l0.9,0.4
		c1.9,1.9,0.4,5.2-2.3,5l-2.8-0.4c-1.1,0-2,0.5-2.5,1.4l-0.6,0.7c-1.3,2-4.4,1.5-5-0.9l-0.7-0.2c-0.2-1-1-1.9-2.1-2.1l-1.5-0.5
		c-2.6-0.7-2.9-4.3-0.5-5.3l1.5-0.2c1.2-0.5,1.8-1.7,1.7-3c0-0.5-0.2-1.3-0.3-1.9c-0.1-2.7,2.7-4.5,4.8-2.7l1.4,1.3
		C49.5,155.7,50.7,155.8,51.6,155.3z"/>
	<path class="st45" d="M51.9,158c0-0.1,2-0.5,2-0.7c2.5-1,4.7,1.7,3.4,4l-1,1.7c-0.7,1-0.6,2.4,0.3,3.4l0.8,0.4c1.9,2,0.3,5.2-2.4,5
		l-2.8-0.5c-1.1-0.1-2,0.5-2.5,1.3l-0.7,0.7c-1.4,2-4.5,1.4-5-1l-0.7-0.2c-0.2-1-1-1.9-2-2.2l-1.5-0.5c-2.7-0.8-2.8-4.4-0.3-5.4
		l1.5-0.2c1.2-0.5,1.8-1.7,1.8-3c0-0.5-0.2-1.3-0.2-1.9c-0.1-2.8,2.8-4.5,4.9-2.6l1.4,1.3C49.8,158.3,50.9,158.4,51.9,158z"/>
	<path class="st46" d="M52.2,160.6c0-0.1,2-0.5,2.1-0.7c2.5-0.9,4.8,1.8,3.4,4.1l-1.1,1.7c-0.7,1.1-0.6,2.5,0.2,3.5l0.8,0.4
		c1.9,2,0.2,5.3-2.5,5l-2.8-0.5c-1.1-0.1-2.1,0.4-2.6,1.3l-0.7,0.7c-1.4,2-4.6,1.3-5.1-1.1l-0.6-0.2c-0.2-1.1-1-1.9-2-2.3l-1.5-0.5
		c-2.7-0.8-2.8-4.5-0.2-5.5l1.6-0.2c1.2-0.4,1.9-1.7,1.9-3c0-0.5-0.2-1.3-0.2-1.9c-0.1-2.8,2.9-4.5,5-2.6l1.4,1.4
		C50,160.9,51.2,161.1,52.2,160.6z"/>
	<path class="st47" d="M52.5,163.3c0-0.1,2.1-0.5,2.1-0.7c2.6-0.9,4.8,2,3.4,4.3l-1.1,1.7c-0.7,1.1-0.7,2.5,0.2,3.5l0.8,0.4
		c1.9,2.1,0.1,5.4-2.7,5l-2.9-0.6c-1.1-0.1-2.1,0.4-2.7,1.2l-0.7,0.7c-1.5,1.9-4.6,1.2-5.1-1.3l-0.6-0.2c-0.2-1.1-0.9-2-2-2.3
		l-1.5-0.6c-2.7-0.9-2.7-4.6-0.1-5.5l1.6-0.3c1.3-0.4,2-1.6,2-3c0-0.5-0.2-1.3-0.2-2c-0.1-2.8,3.1-4.5,5.1-2.5l1.4,1.4
		C50.3,163.5,51.5,163.7,52.5,163.3z"/>
	<path class="st48" d="M52.8,166c0-0.1,2.1-0.5,2.2-0.6c2.6-0.8,4.8,2.1,3.3,4.4l-1.2,1.7c-0.8,1.1-0.7,2.5,0.1,3.6l0.7,0.4
		c1.8,2.1,0,5.4-2.8,5l-2.9-0.6c-1.1-0.1-2.1,0.3-2.7,1.2l-0.7,0.8c-1.6,1.9-4.7,1.1-5.2-1.4l-0.5-0.2c-0.2-1.1-0.9-2-2-2.4
		l-1.5-0.6c-2.7-1-2.7-4.7,0-5.6l1.7-0.3c1.3-0.4,2.1-1.6,2.1-3c0-0.6-0.1-1.3-0.1-2c0-2.8,3.2-4.5,5.2-2.4l1.4,1.4
		C50.6,166.1,51.7,166.4,52.8,166z"/>
	<path class="st49" d="M53,168.6c0-0.1,2.2-0.5,2.2-0.6c2.7-0.8,4.9,2.3,3.3,4.6l-1.2,1.7c-0.8,1.1-0.8,2.6,0.1,3.6l0.7,0.5
		c1.8,2.2-0.1,5.5-2.9,5l-2.9-0.7c-1.1-0.2-2.1,0.3-2.8,1.1l-0.8,0.8c-1.6,1.9-4.8,1-5.2-1.5l-0.5-0.2c-0.1-1.1-0.9-2.1-2-2.5
		l-1.5-0.6c-2.7-1-2.6-4.9,0.1-5.7l1.7-0.3c1.3-0.4,2.1-1.6,2.1-3c0-0.6-0.1-1.3-0.1-2c0-2.9,3.3-4.4,5.3-2.3l1.4,1.5
		C50.7,168.7,51.9,169,53,168.6z"/>
	<path class="st50" d="M53.1,171.3c0-0.1,2.2-0.5,2.3-0.6c2.8-0.7,4.9,2.4,3.2,4.7l-1.3,1.7c-0.8,1.1-0.8,2.6,0,3.7l0.6,0.5
		c1.8,2.3-0.2,5.6-3,5l-3-0.7c-1.1-0.2-2.2,0.2-2.8,1l-0.8,0.8c-1.7,1.9-4.9,0.9-5.3-1.7l-0.4-0.1c-0.1-1.1-0.9-2.1-2-2.6l-1.6-0.7
		c-2.8-1.1-2.6-5,0.2-5.8l1.7-0.3c1.3-0.4,2.2-1.6,2.2-3.1c0-0.6-0.1-1.4-0.1-2.1c0-2.9,3.4-4.4,5.4-2.3l1.4,1.5
		C50.9,171.3,52.1,171.6,53.1,171.3z"/>
	<path class="st51" d="M53.3,174c0-0.1,2.3-0.4,2.3-0.5c2.8-0.7,4.9,2.5,3.2,4.8l-1.3,1.7c-0.9,1.1-0.9,2.6-0.1,3.8l0.6,0.5
		c1.8,2.3-0.3,5.6-3.2,5l-3-0.7c-1.1-0.2-2.2,0.2-2.9,1l-0.8,0.8c-1.8,1.9-5,0.9-5.3-1.8l-0.4-0.1c-0.1-1.2-0.9-2.2-1.9-2.6L39,185
		c-2.8-1.1-2.5-5.1,0.3-5.9l1.8-0.3c1.4-0.4,2.3-1.6,2.3-3.1c0-0.6-0.1-1.4,0-2.1c0-3,3.5-4.4,5.5-2.2l1.4,1.6
		C51,173.9,52.2,174.3,53.3,174z"/>
	<path class="st52" d="M53.5,176.6c0-0.1,2.3-0.4,2.4-0.5c2.9-0.7,5,2.7,3.1,5l-1.4,1.7c-0.9,1.1-1,2.7-0.1,3.8l0.6,0.5
		c1.8,2.4-0.4,5.7-3.3,5l-3-0.8c-1.1-0.2-2.2,0.1-2.9,0.9l-0.8,0.8c-1.9,1.9-5.1,0.8-5.4-1.9l-0.3-0.1c-0.1-1.2-0.8-2.2-1.9-2.7
		l-1.6-0.7c-2.8-1.2-2.5-5.2,0.4-6l1.8-0.3c1.4-0.3,2.4-1.6,2.4-3.1c0-0.6,0-1.4,0-2.1c0.1-3,3.7-4.4,5.6-2.1l1.4,1.6
		C51.2,176.6,52.4,176.9,53.5,176.6z"/>
	<path class="st53" d="M53.7,179.3c0-0.1,2.4-0.4,2.4-0.5c2.9-0.6,5,2.8,3.1,5.1l-1.4,1.7c-0.9,1.1-1,2.7-0.2,3.9l0.5,0.5
		c1.7,2.4-0.5,5.7-3.4,5l-3.1-0.8c-1.1-0.3-2.2,0.1-3,0.9l-0.9,0.8c-1.9,1.9-5.2,0.7-5.4-2.1l-0.3-0.1c-0.1-1.2-0.8-2.3-1.9-2.8
		l-1.6-0.8c-2.8-1.3-2.4-5.4,0.5-6l1.9-0.3c1.4-0.3,2.4-1.6,2.5-3.1c0-0.6,0-1.4,0-2.2c0.1-3,3.8-4.4,5.7-2.1l1.4,1.7
		C51.4,179.2,52.6,179.6,53.7,179.3z"/>
	<path class="st54" d="M53.9,182c0,0,2.4-0.4,2.5-0.4c3-0.6,5,2.9,3.1,5.3l-1.5,1.7c-1,1.1-1.1,2.7-0.2,3.9l0.5,0.6
		c1.7,2.5-0.6,5.8-3.5,5l-3.1-0.9c-1.1-0.3-2.3,0-3.1,0.8l-0.9,0.8c-2,1.9-5.3,0.6-5.5-2.2l-0.2-0.1c0-1.2-0.8-2.3-1.9-2.8l-1.6-0.8
		c-2.8-1.3-2.4-5.5,0.6-6.1l1.9-0.3c1.5-0.3,2.5-1.6,2.6-3.1c0-0.6,0-1.4,0-2.2c0.1-3.1,3.9-4.4,5.8-2l1.3,1.7
		C51.5,181.8,52.7,182.2,53.9,182z"/>
	<path class="st55" d="M54.1,184.6c0,0,2.5-0.4,2.5-0.4c3.1-0.5,5.1,3.1,3,5.4l-1.5,1.7c-1,1.1-1.1,2.8-0.3,4l0.5,0.6
		c1.7,2.6-0.7,5.9-3.7,5l-3.2-0.9c-1.1-0.3-2.3,0-3.1,0.8l-0.9,0.8c-2.1,1.9-5.4,0.5-5.5-2.3l-0.2-0.1c0-1.2-0.8-2.4-1.9-2.9
		l-1.7-0.8c-2.9-1.4-2.3-5.6,0.8-6.2l2-0.3c1.5-0.3,2.6-1.6,2.7-3.1c0-0.7,0-1.4,0.1-2.2c0.2-3.1,4-4.4,5.9-1.9l1.3,1.7
		C51.7,184.4,52.9,184.8,54.1,184.6z"/>
	<path class="st56" d="M54.3,187.3c0,0,2.5-0.4,2.6-0.4c3.1-0.5,5.1,3.2,3,5.5l-1.6,1.7c-1,1.1-1.2,2.8-0.4,4.1l0.4,0.6
		c1.7,2.6-0.8,5.9-3.8,5l-3.2-1c-1.1-0.3-2.3-0.1-3.2,0.7l-0.9,0.8c-2.1,1.9-5.5,0.4-5.6-2.5l-0.1,0c0-1.3-0.7-2.4-1.9-3l-1.7-0.8
		c-2.9-1.4-2.3-5.7,0.9-6.3l2-0.3c1.5-0.3,2.7-1.6,2.7-3.1c0-0.7,0.1-1.4,0.1-2.2c0.2-3.1,4.1-4.4,6-1.9l1.3,1.8
		C51.8,187,53.1,187.5,54.3,187.3z"/>
	<path class="st57" d="M54.5,189.9c0,0,2.6-0.3,2.6-0.4c3.2-0.4,5.1,3.4,2.9,5.7l-1.6,1.7c-1.1,1.1-1.2,2.8-0.4,4.1l0.4,0.6
		c1.7,2.7-0.9,6-3.9,5l-3.2-1c-1.1-0.4-2.3-0.1-3.2,0.7l-1,0.8c-2.2,1.9-5.6,0.3-5.6-2.6l-0.1,0c0-1.3-0.7-2.5-1.9-3l-1.7-0.9
		c-2.9-1.5-2.2-5.8,1-6.4l2-0.3c1.6-0.3,2.7-1.6,2.8-3.1c0-0.7,0.1-1.5,0.1-2.3c0.2-3.2,4.3-4.4,6.1-1.8l1.3,1.8
		C52,189.6,53.2,190.1,54.5,189.9z"/>
	<path class="st58" d="M38.7,196.8l2.1-0.3c1.6-0.2,2.8-1.6,2.9-3.2c0-0.7,0.1-1.5,0.2-2.3c0.2-3.2,4.4-4.4,6.3-1.7l1.3,1.9
		c0.7,1,2,1.6,3.2,1.4l2.7-0.3c3.2-0.4,5.2,3.5,2.9,5.8l-1.7,1.8c-1.1,1.1-1.3,2.8-0.5,4.2l0.4,0.6c1.7,2.7-1,6.1-4,5.1l-3.3-1.1
		c-1.1-0.4-2.4-0.1-3.3,0.6l-1,0.8c-2.3,1.9-5.7,0.2-5.6-2.7v0c0-1.3-0.7-2.5-1.8-3.1l-1.7-0.9C34.7,201.8,35.4,197.4,38.7,196.8z"
		/>
</g>
<g>
	<polygon class="st59" points="100.6,70.6 89.7,70.7 84.4,61.2 89.9,51.6 100.8,51.5 106.2,61 	"/>
	<polygon class="st60" points="84.4,62.9 89.9,53.3 100.8,53.2 106.2,62.7 100.7,72.3 89.8,72.4 	"/>
	<polygon class="st61" points="84.4,64.7 89.9,55.1 100.8,55 106.2,64.4 100.7,74 89.8,74.2 	"/>
	<polygon class="st62" points="84.4,66.5 89.9,56.9 100.8,56.7 106.2,66.1 100.7,75.7 89.8,75.9 	"/>
	<polygon class="st63" points="84.4,68.3 89.9,58.7 100.7,58.5 106.2,67.9 100.7,77.5 89.9,77.7 	"/>
	<polygon class="st64" points="84.5,70 89.9,60.4 100.7,60.2 106.2,69.6 100.7,79.2 89.9,79.4 	"/>
	<polygon class="st65" points="84.5,71.8 89.9,62.2 100.7,62 106.1,71.3 100.8,80.9 89.9,81.2 	"/>
	<polygon class="st66" points="84.5,73.6 89.9,64 100.7,63.7 106.1,73.1 100.8,82.7 90,82.9 	"/>
	<polygon class="st67" points="84.5,75.3 89.8,65.8 100.7,65.5 106.1,74.8 100.8,84.4 90,84.7 	"/>
	<polygon class="st68" points="84.5,77.1 89.8,67.5 100.6,67.2 106.1,76.5 100.8,86.1 90,86.4 	"/>
	<polygon class="st69" points="84.6,78.9 89.8,69.3 100.6,69 106.1,78.3 100.9,87.8 90.1,88.2 	"/>
	<polygon class="st70" points="84.6,80.7 89.8,71.1 100.6,70.7 106.1,80 100.9,89.6 90.1,89.9 	"/>
	<polygon class="st71" points="84.6,82.4 89.8,72.8 100.6,72.5 106.1,81.7 100.9,91.3 90.1,91.7 	"/>
	<polygon class="st72" points="84.6,84.2 89.8,74.6 100.6,74.2 106.1,83.4 100.9,93 90.2,93.4 	"/>
	<polygon class="st73" points="84.6,86 89.8,76.4 100.5,76 106.1,85.2 100.9,94.8 90.2,95.2 	"/>
	<polygon class="st74" points="84.7,87.7 89.8,78.2 100.5,77.7 106.1,86.9 101,96.5 90.2,96.9 	"/>
	<polygon class="st75" points="84.7,89.5 89.8,79.9 100.5,79.5 106.1,88.6 101,98.2 90.3,98.7 	"/>
	<polygon class="st76" points="84.7,91.3 89.8,81.7 100.5,81.2 106.1,90.4 101,99.9 90.3,100.4 	"/>
	<polygon class="st77" points="84.7,93.1 89.8,83.5 100.5,83 106.1,92.1 101,101.7 90.4,102.2 	"/>
	<polygon class="st78" points="84.7,94.8 89.8,85.3 100.5,84.7 106.1,93.8 101.1,103.4 90.4,103.9 	"/>
	<polygon class="st79" points="84.8,96.6 89.8,87 100.4,86.5 106.1,95.5 101.1,105.1 90.4,105.7 	"/>
	<polygon class="st80" points="84.8,98.4 89.8,88.8 100.4,88.2 106.1,97.3 101.1,106.9 90.5,107.4 	"/>
	<polygon class="st81" points="84.8,100.2 89.8,90.6 100.4,90 106.1,99 101.1,108.6 90.5,109.2 	"/>
	<polygon class="st82" points="84.8,101.9 89.8,92.3 100.4,91.8 106.1,100.7 101.2,110.3 90.5,110.9 	"/>
	<polygon class="st83" points="84.8,103.7 89.7,94.1 100.4,93.5 106.1,102.5 101.2,112 90.6,112.7 	"/>
	<polygon class="st84" points="84.9,105.5 89.7,95.9 100.3,95.3 106.1,104.2 101.2,113.8 90.6,114.4 	"/>
	<polygon class="st85" points="84.9,107.2 89.7,97.7 100.3,97 106.1,105.9 101.2,115.5 90.6,116.2 	"/>
	<polygon class="st86" points="84.9,109 89.7,99.4 100.3,98.8 106.1,107.7 101.2,117.2 90.7,117.9 	"/>
	<polygon class="st87" points="84.9,110.8 89.7,101.2 100.3,100.5 106.1,109.4 101.3,119 90.7,119.7 	"/>
	<polygon class="st88" points="84.9,112.6 89.7,103 100.3,102.3 106.1,111.1 101.3,120.7 90.7,121.4 	"/>
	<polygon class="st89" points="85,114.3 89.7,104.8 100.2,104 106.1,112.8 101.3,122.4 90.8,123.2 	"/>
	<polygon class="st90" points="85,116.1 89.7,106.5 100.2,105.8 106,114.6 101.3,124.1 90.8,124.9 	"/>
	<polygon class="st91" points="85,117.9 89.7,108.3 100.2,107.5 106,116.3 101.4,125.9 90.8,126.7 	"/>
	<polygon class="st92" points="85,119.6 89.7,110.1 100.2,109.3 106,118 101.4,127.6 90.9,128.4 	"/>
	<polygon class="st93" points="85,121.4 89.7,111.9 100.2,111 106,119.8 101.4,129.3 90.9,130.2 	"/>
	<polygon class="st94" points="85.1,123.2 89.7,113.6 100.2,112.8 106,121.5 101.4,131 90.9,131.9 	"/>
	<polygon class="st95" points="85.1,125 89.7,115.4 100.1,114.5 106,123.2 101.5,132.8 91,133.7 	"/>
	<polygon class="st96" points="85.1,126.7 89.7,117.2 100.1,116.3 106,124.9 101.5,134.5 91,135.4 	"/>
	<polygon class="st97" points="85.1,128.5 89.7,118.9 100.1,118 106,126.7 101.5,136.2 91,137.2 	"/>
	<polygon class="st98" points="85.1,130.3 89.6,120.7 100.1,119.8 106,128.4 101.5,138 91.1,138.9 	"/>
	<polygon class="st99" points="85.2,132.1 89.6,122.5 100.1,121.5 106,130.1 101.5,139.7 91.1,140.7 	"/>
	<polygon class="st100" points="85.2,133.8 89.6,124.3 100,123.3 106,131.9 101.6,141.4 91.2,142.4 	"/>
	<polygon class="st101" points="85.2,135.6 89.6,126 100,125 106,133.6 101.6,143.1 91.2,144.2 	"/>
	<polygon class="st102" points="85.2,137.4 89.6,127.8 100,126.8 106,135.3 101.6,144.9 91.2,145.9 	"/>
	<polygon class="st103" points="85.2,139.1 89.6,129.6 100,128.5 106,137 101.6,146.6 91.3,147.7 	"/>
	<polygon class="st104" points="85.3,140.9 89.6,131.4 100,130.3 106,138.8 101.7,148.3 91.3,149.4 	"/>
	<polygon class="st105" points="85.3,142.7 89.6,133.1 99.9,132 106,140.5 101.7,150.1 91.3,151.1 	"/>
	<polygon class="st106" points="85.3,144.5 89.6,134.9 99.9,133.8 106,142.2 101.7,151.8 91.4,152.9 	"/>
	<polygon class="st107" points="85.3,146.2 89.6,136.7 99.9,135.5 106,144 101.7,153.5 91.4,154.6 	"/>
	<polygon class="st108" points="85.3,148 89.6,138.5 99.9,137.3 106,145.7 101.7,155.2 91.4,156.4 	"/>
	<polygon class="st109" points="85.4,149.8 89.6,140.2 99.9,139 106,147.4 101.8,157 91.5,158.1 	"/>
	<polygon class="st110" points="85.4,151.5 89.6,142 99.9,140.8 106,149.2 101.8,158.7 91.5,159.9 	"/>
	<polygon class="st111" points="85.4,153.3 89.6,143.8 99.8,142.6 106,150.9 101.8,160.4 91.5,161.6 	"/>
	<polygon class="st112" points="85.4,155.1 89.6,145.5 99.8,144.3 106,152.6 101.8,162.2 91.6,163.4 	"/>
	<polygon class="st113" points="85.4,156.9 89.5,147.3 99.8,146.1 106,154.3 101.9,163.9 91.6,165.1 	"/>
	<polygon class="st114" points="85.5,158.6 89.5,149.1 99.8,147.8 106,156.1 101.9,165.6 91.6,166.9 	"/>
	<polygon class="st115" points="85.5,160.4 89.5,150.9 99.8,149.6 106,157.8 101.9,167.3 91.7,168.6 	"/>
	<polygon class="st116" points="85.5,162.2 89.5,152.6 99.7,151.3 105.9,159.5 101.9,169.1 91.7,170.4 	"/>
	<polygon class="st117" points="85.5,164 89.5,154.4 99.7,153.1 105.9,161.3 102,170.8 91.7,172.1 	"/>
	<polygon class="st118" points="85.5,165.7 89.5,156.2 99.7,154.8 105.9,163 102,172.5 91.8,173.9 	"/>
	<polygon class="st119" points="85.6,167.5 89.5,158 99.7,156.6 105.9,164.7 102,174.3 91.8,175.6 	"/>
	<polygon class="st120" points="85.6,169.3 89.5,159.7 99.7,158.3 105.9,166.4 102,176 91.9,177.4 	"/>
	<polygon class="st121" points="85.6,171 89.5,161.5 99.7,160.1 105.9,168.2 102,177.7 91.9,179.1 	"/>
	<polygon class="st122" points="85.6,172.8 89.5,163.3 99.6,161.8 105.9,169.9 102.1,179.4 91.9,180.9 	"/>
	<polygon class="st123" points="85.7,174.6 89.5,165 99.6,163.6 105.9,171.6 102.1,181.2 92,182.6 	"/>
	<polygon class="st124" points="85.7,176.4 89.5,166.8 99.6,165.3 105.9,173.4 102.1,182.9 92,184.4 	"/>
	<polygon class="st125" points="85.7,178.1 89.5,168.6 99.6,167.1 105.9,175.1 102.1,184.6 92,186.1 	"/>
	<polygon class="st126" points="85.7,179.9 89.5,170.4 99.6,168.8 105.9,176.8 102.2,186.4 92.1,187.9 	"/>
	<polygon class="st127" points="85.7,181.7 89.5,172.1 99.5,170.6 105.9,178.6 102.2,188.1 92.1,189.6 	"/>
	<polygon class="st128" points="85.8,183.4 89.4,173.9 99.5,172.3 105.9,180.3 102.2,189.8 92.1,191.4 	"/>
	<polygon class="st129" points="85.8,185.2 89.4,175.7 99.5,174.1 105.9,182 102.2,191.5 92.2,193.1 	"/>
	<polygon class="st130" points="85.8,187 89.4,177.5 99.5,175.8 105.9,183.7 102.3,193.3 92.2,194.9 	"/>
	<polygon class="st131" points="85.8,188.8 89.4,179.2 99.5,177.6 105.9,185.5 102.3,195 92.2,196.6 	"/>
	<polygon class="st132" points="85.8,190.5 89.4,181 99.4,179.3 105.9,187.2 102.3,196.7 92.3,198.4 	"/>
	<polygon class="st133" points="85.9,192.3 89.4,182.8 99.4,181.1 105.9,188.9 102.3,198.5 92.3,200.1 	"/>
	<polygon class="st134" points="85.9,194.1 89.4,184.6 99.4,182.8 105.9,190.7 102.3,200.2 92.3,201.9 	"/>
	<polygon class="st135" points="85.9,195.8 89.4,186.3 99.4,184.6 105.9,192.4 102.4,201.9 92.4,203.6 	"/>
	<polygon class="st136" points="85.9,197.6 89.4,188.1 99.4,186.3 105.9,194.1 102.4,203.6 92.4,205.4 	"/>
	<polygon class="st137" points="85.9,199.4 89.4,189.9 99.4,188.1 105.9,195.8 102.4,205.4 92.4,207.1 	"/>
	<polygon class="st138" points="86,201.2 89.4,191.6 99.3,189.8 105.9,197.6 102.4,207.1 92.5,208.9 	"/>
	<polygon class="st139" points="86,202.9 89.4,193.4 99.3,191.6 105.9,199.3 102.5,208.8 92.5,210.6 	"/>
	<polygon class="st140" points="86,204.7 89.4,195.2 99.3,193.4 105.9,201 102.5,210.6 92.5,212.4 	"/>
</g>
</svg>
