<?xml version="1.0" encoding="utf-8"?>
<!-- Generator: Adobe Illustrator 25.2.3, SVG Export Plug-In . SVG Version: 6.00 Build 0)  -->
<svg version="1.1" id="Layer_1" xmlns="http://www.w3.org/2000/svg" xmlns:xlink="http://www.w3.org/1999/xlink" x="0px" y="0px"
	 viewBox="0 0 94.6 161.2" style="enable-background:new 0 0 94.6 161.2;" xml:space="preserve">
<style type="text/css">
	.st0{fill:#DD335A;stroke:#FFFFFF;stroke-width:0.25;stroke-miterlimit:10;}
	.st1{fill:#DC325A;stroke:#FEFBFC;stroke-width:0.2549;stroke-miterlimit:10;}
	.st2{fill:#DB3159;stroke:#FEF7F9;stroke-width:0.2598;stroke-miterlimit:10;}
	.st3{fill:#DB3159;stroke:#FDF3F5;stroke-width:0.2647;stroke-miterlimit:10;}
	.st4{fill:#DA3059;stroke:#FCEFF2;stroke-width:0.2696;stroke-miterlimit:10;}
	.st5{fill:#D93058;stroke:#FCEBEF;stroke-width:0.2745;stroke-miterlimit:10;}
	.st6{fill:#D82F58;stroke:#FBE7EC;stroke-width:0.2794;stroke-miterlimit:10;}
	.st7{fill:#D82E58;stroke:#FAE3E8;stroke-width:0.2843;stroke-miterlimit:10;}
	.st8{fill:#D72E57;stroke:#FADFE5;stroke-width:0.2892;stroke-miterlimit:10;}
	.st9{fill:#D62D57;stroke:#F9DBE2;stroke-width:0.2941;stroke-miterlimit:10;}
	.st10{fill:#D52D57;stroke:#F8D7DF;stroke-width:0.299;stroke-miterlimit:10;}
	.st11{fill:#D52C56;stroke:#F8D3DB;stroke-width:0.3039;stroke-miterlimit:10;}
	.st12{fill:#D42C56;stroke:#F7CFD8;stroke-width:0.3088;stroke-miterlimit:10;}
	.st13{fill:#D32B56;stroke:#F6CBD5;stroke-width:0.3137;stroke-miterlimit:10;}
	.st14{fill:#D32A55;stroke:#F6C7D2;stroke-width:0.3186;stroke-miterlimit:10;}
	.st15{fill:#D22A55;stroke:#F5C3CE;stroke-width:0.3235;stroke-miterlimit:10;}
	.st16{fill:#D12955;stroke:#F4BFCB;stroke-width:0.3284;stroke-miterlimit:10;}
	.st17{fill:#D02954;stroke:#F4BBC8;stroke-width:0.3333;stroke-miterlimit:10;}
	.st18{fill:#D02854;stroke:#F3B7C5;stroke-width:0.3382;stroke-miterlimit:10;}
	.st19{fill:#CF2754;stroke:#F2B3C2;stroke-width:0.3431;stroke-miterlimit:10;}
	.st20{fill:#CE2754;stroke:#F2AFBE;stroke-width:0.348;stroke-miterlimit:10;}
	.st21{fill:#CD2653;stroke:#F1ABBB;stroke-width:0.3529;stroke-miterlimit:10;}
	.st22{fill:#CD2653;stroke:#F0A7B8;stroke-width:0.3578;stroke-miterlimit:10;}
	.st23{fill:#CC2553;stroke:#F0A3B5;stroke-width:0.3627;stroke-miterlimit:10;}
	.st24{fill:#CB2552;stroke:#EF9FB1;stroke-width:0.3676;stroke-miterlimit:10;}
	.st25{fill:#CA2452;stroke:#EE9BAE;stroke-width:0.3725;stroke-miterlimit:10;}
	.st26{fill:#CA2352;stroke:#EE97AB;stroke-width:0.3775;stroke-miterlimit:10;}
	.st27{fill:#C92351;stroke:#ED93A8;stroke-width:0.3824;stroke-miterlimit:10;}
	.st28{fill:#C82251;stroke:#EC8FA4;stroke-width:0.3873;stroke-miterlimit:10;}
	.st29{fill:#C72251;stroke:#EC8BA1;stroke-width:0.3922;stroke-miterlimit:10;}
	.st30{fill:#C72150;stroke:#EB879E;stroke-width:0.3971;stroke-miterlimit:10;}
	.st31{fill:#C62050;stroke:#EA839B;stroke-width:0.402;stroke-miterlimit:10;}
	.st32{fill:#C52050;stroke:#EA7F97;stroke-width:0.4069;stroke-miterlimit:10;}
	.st33{fill:#C51F4F;stroke:#E97B94;stroke-width:0.4118;stroke-miterlimit:10;}
	.st34{fill:#C41F4F;stroke:#E87791;stroke-width:0.4167;stroke-miterlimit:10;}
	.st35{fill:#C31E4F;stroke:#E8738E;stroke-width:0.4216;stroke-miterlimit:10;}
	.st36{fill:#C21D4E;stroke:#E76F8B;stroke-width:0.4265;stroke-miterlimit:10;}
	.st37{fill:#C21D4E;stroke:#E66B87;stroke-width:0.4314;stroke-miterlimit:10;}
	.st38{fill:#C11C4E;stroke:#E66784;stroke-width:0.4363;stroke-miterlimit:10;}
	.st39{fill:#C01C4D;stroke:#E56381;stroke-width:0.4412;stroke-miterlimit:10;}
	.st40{fill:#BF1B4D;stroke:#E45F7E;stroke-width:0.4461;stroke-miterlimit:10;}
	.st41{fill:#BF1B4D;stroke:#E45B7A;stroke-width:0.451;stroke-miterlimit:10;}
	.st42{fill:#BE1A4C;stroke:#E35777;stroke-width:0.4559;stroke-miterlimit:10;}
	.st43{fill:#BD194C;stroke:#E25374;stroke-width:0.4608;stroke-miterlimit:10;}
	.st44{fill:#BC194C;stroke:#E24F71;stroke-width:0.4657;stroke-miterlimit:10;}
	.st45{fill:#BC184B;stroke:#E14B6D;stroke-width:0.4706;stroke-miterlimit:10;}
	.st46{fill:#BB184B;stroke:#E0476A;stroke-width:0.4755;stroke-miterlimit:10;}
	.st47{fill:#BA174B;stroke:#E04367;stroke-width:0.4804;stroke-miterlimit:10;}
	.st48{fill:#BA164A;stroke:#DF3F64;stroke-width:0.4853;stroke-miterlimit:10;}
	.st49{fill:#B9164A;stroke:#DE3B61;stroke-width:0.4902;stroke-miterlimit:10;}
	.st50{fill:#B8154A;stroke:#DE375D;stroke-width:0.4951;stroke-miterlimit:10;}
	.st51{fill:#B71549;stroke:#DD335A;stroke-width:0.5;stroke-miterlimit:10;}
	.st52{fill:#543C52;stroke:#FFFFFF;stroke-width:0.25;stroke-miterlimit:10;}
	.st53{fill:#543C52;stroke:#FDFDFD;stroke-width:0.2531;stroke-miterlimit:10;}
	.st54{fill:#533C51;stroke:#FBFAFB;stroke-width:0.2562;stroke-miterlimit:10;}
	.st55{fill:#533B51;stroke:#F9F8F9;stroke-width:0.2593;stroke-miterlimit:10;}
	.st56{fill:#533B51;stroke:#F7F5F6;stroke-width:0.2623;stroke-miterlimit:10;}
	.st57{fill:#523A50;stroke:#F4F3F4;stroke-width:0.2654;stroke-miterlimit:10;}
	.st58{fill:#523A50;stroke:#F2F1F2;stroke-width:0.2685;stroke-miterlimit:10;}
	.st59{fill:#513A4F;stroke:#F0EEF0;stroke-width:0.2716;stroke-miterlimit:10;}
	.st60{fill:#51394F;stroke:#EEECEE;stroke-width:0.2747;stroke-miterlimit:10;}
	.st61{fill:#51394F;stroke:#ECE9EC;stroke-width:0.2778;stroke-miterlimit:10;}
	.st62{fill:#50384E;stroke:#EAE7EA;stroke-width:0.2809;stroke-miterlimit:10;}
	.st63{fill:#50384E;stroke:#E8E5E8;stroke-width:0.284;stroke-miterlimit:10;}
	.st64{fill:#50384D;stroke:#E6E2E5;stroke-width:0.287;stroke-miterlimit:10;}
	.st65{fill:#4F374D;stroke:#E4E0E3;stroke-width:0.2901;stroke-miterlimit:10;}
	.st66{fill:#4F374D;stroke:#E1DDE1;stroke-width:0.2932;stroke-miterlimit:10;}
	.st67{fill:#4E364C;stroke:#DFDBDF;stroke-width:0.2963;stroke-miterlimit:10;}
	.st68{fill:#4E364C;stroke:#DDD9DD;stroke-width:0.2994;stroke-miterlimit:10;}
	.st69{fill:#4E364B;stroke:#DBD6DB;stroke-width:0.3025;stroke-miterlimit:10;}
	.st70{fill:#4D354B;stroke:#D9D4D9;stroke-width:0.3056;stroke-miterlimit:10;}
	.st71{fill:#4D354B;stroke:#D7D1D6;stroke-width:0.3086;stroke-miterlimit:10;}
	.st72{fill:#4D354A;stroke:#D5CFD4;stroke-width:0.3117;stroke-miterlimit:10;}
	.st73{fill:#4C344A;stroke:#D3CDD2;stroke-width:0.3148;stroke-miterlimit:10;}
	.st74{fill:#4C3449;stroke:#D1CAD0;stroke-width:0.3179;stroke-miterlimit:10;}
	.st75{fill:#4B3349;stroke:#CEC8CE;stroke-width:0.321;stroke-miterlimit:10;}
	.st76{fill:#4B3349;stroke:#CCC5CC;stroke-width:0.3241;stroke-miterlimit:10;}
	.st77{fill:#4B3348;stroke:#CAC3CA;stroke-width:0.3272;stroke-miterlimit:10;}
	.st78{fill:#4A3248;stroke:#C8C1C8;stroke-width:0.3302;stroke-miterlimit:10;}
	.st79{fill:#4A3247;stroke:#C6BEC5;stroke-width:0.3333;stroke-miterlimit:10;}
	.st80{fill:#4A3147;stroke:#C4BCC3;stroke-width:0.3364;stroke-miterlimit:10;}
	.st81{fill:#493147;stroke:#C2B9C1;stroke-width:0.3395;stroke-miterlimit:10;}
	.st82{fill:#493146;stroke:#C0B7BF;stroke-width:0.3426;stroke-miterlimit:10;}
	.st83{fill:#483046;stroke:#BEB4BD;stroke-width:0.3457;stroke-miterlimit:10;}
	.st84{fill:#483045;stroke:#BBB2BB;stroke-width:0.3488;stroke-miterlimit:10;}
	.st85{fill:#482F45;stroke:#B9B0B9;stroke-width:0.3519;stroke-miterlimit:10;}
	.st86{fill:#472F45;stroke:#B7ADB6;stroke-width:0.3549;stroke-miterlimit:10;}
	.st87{fill:#472F44;stroke:#B5ABB4;stroke-width:0.358;stroke-miterlimit:10;}
	.st88{fill:#472E44;stroke:#B3A8B2;stroke-width:0.3611;stroke-miterlimit:10;}
	.st89{fill:#462E43;stroke:#B1A6B0;stroke-width:0.3642;stroke-miterlimit:10;}
	.st90{fill:#462E43;stroke:#AFA4AE;stroke-width:0.3673;stroke-miterlimit:10;}
	.st91{fill:#452D43;stroke:#ADA1AC;stroke-width:0.3704;stroke-miterlimit:10;}
	.st92{fill:#452D42;stroke:#AB9FAA;stroke-width:0.3735;stroke-miterlimit:10;}
	.st93{fill:#452C42;stroke:#A89CA7;stroke-width:0.3765;stroke-miterlimit:10;}
	.st94{fill:#442C41;stroke:#A69AA5;stroke-width:0.3796;stroke-miterlimit:10;}
	.st95{fill:#442C41;stroke:#A498A3;stroke-width:0.3827;stroke-miterlimit:10;}
	.st96{fill:#442B41;stroke:#A295A1;stroke-width:0.3858;stroke-miterlimit:10;}
	.st97{fill:#432B40;stroke:#A0939F;stroke-width:0.3889;stroke-miterlimit:10;}
	.st98{fill:#432A40;stroke:#9E909D;stroke-width:0.392;stroke-miterlimit:10;}
	.st99{fill:#422A3F;stroke:#9C8E9B;stroke-width:0.3951;stroke-miterlimit:10;}
	.st100{fill:#422A3F;stroke:#9A8C99;stroke-width:0.3981;stroke-miterlimit:10;}
	.st101{fill:#42293E;stroke:#988996;stroke-width:0.4012;stroke-miterlimit:10;}
	.st102{fill:#41293E;stroke:#968794;stroke-width:0.4043;stroke-miterlimit:10;}
	.st103{fill:#41283E;stroke:#938492;stroke-width:0.4074;stroke-miterlimit:10;}
	.st104{fill:#41283D;stroke:#918290;stroke-width:0.4105;stroke-miterlimit:10;}
	.st105{fill:#40283D;stroke:#8F808E;stroke-width:0.4136;stroke-miterlimit:10;}
	.st106{fill:#40273C;stroke:#8D7D8C;stroke-width:0.4167;stroke-miterlimit:10;}
	.st107{fill:#3F273C;stroke:#8B7B8A;stroke-width:0.4198;stroke-miterlimit:10;}
	.st108{fill:#3F263C;stroke:#897887;stroke-width:0.4228;stroke-miterlimit:10;}
	.st109{fill:#3F263B;stroke:#877685;stroke-width:0.4259;stroke-miterlimit:10;}
	.st110{fill:#3E263B;stroke:#857483;stroke-width:0.429;stroke-miterlimit:10;}
	.st111{fill:#3E253A;stroke:#837181;stroke-width:0.4321;stroke-miterlimit:10;}
	.st112{fill:#3E253A;stroke:#806F7F;stroke-width:0.4352;stroke-miterlimit:10;}
	.st113{fill:#3D253A;stroke:#7E6C7D;stroke-width:0.4383;stroke-miterlimit:10;}
	.st114{fill:#3D2439;stroke:#7C6A7B;stroke-width:0.4414;stroke-miterlimit:10;}
	.st115{fill:#3C2439;stroke:#7A6879;stroke-width:0.4444;stroke-miterlimit:10;}
	.st116{fill:#3C2338;stroke:#786576;stroke-width:0.4475;stroke-miterlimit:10;}
	.st117{fill:#3C2338;stroke:#766374;stroke-width:0.4506;stroke-miterlimit:10;}
	.st118{fill:#3B2338;stroke:#746072;stroke-width:0.4537;stroke-miterlimit:10;}
	.st119{fill:#3B2237;stroke:#725E70;stroke-width:0.4568;stroke-miterlimit:10;}
	.st120{fill:#3B2237;stroke:#705C6E;stroke-width:0.4599;stroke-miterlimit:10;}
	.st121{fill:#3A2136;stroke:#6D596C;stroke-width:0.463;stroke-miterlimit:10;}
	.st122{fill:#3A2136;stroke:#6B576A;stroke-width:0.466;stroke-miterlimit:10;}
	.st123{fill:#392136;stroke:#695467;stroke-width:0.4691;stroke-miterlimit:10;}
	.st124{fill:#392035;stroke:#675265;stroke-width:0.4722;stroke-miterlimit:10;}
	.st125{fill:#392035;stroke:#655063;stroke-width:0.4753;stroke-miterlimit:10;}
	.st126{fill:#381F34;stroke:#634D61;stroke-width:0.4784;stroke-miterlimit:10;}
	.st127{fill:#381F34;stroke:#614B5F;stroke-width:0.4815;stroke-miterlimit:10;}
	.st128{fill:#381F34;stroke:#5F485D;stroke-width:0.4846;stroke-miterlimit:10;}
	.st129{fill:#371E33;stroke:#5D465B;stroke-width:0.4877;stroke-miterlimit:10;}
	.st130{fill:#371E33;stroke:#5A4459;stroke-width:0.4907;stroke-miterlimit:10;}
	.st131{fill:#361E32;stroke:#584156;stroke-width:0.4938;stroke-miterlimit:10;}
	.st132{fill:#361D32;stroke:#563F54;stroke-width:0.4969;stroke-miterlimit:10;}
	.st133{fill:#361D32;stroke:#543C52;stroke-width:0.5;stroke-miterlimit:10;}
</style>
<g>
	<path class="st0" d="M5,11l1.7-0.3C8,10.6,8.9,9.5,9,8.2c0-0.6,0.1-1.2,0.1-1.9c0.2-2.6,3.5-3.5,5-1.4l1.1,1.5
		c0.6,0.8,1.6,1.3,2.6,1.1L20,7.4c2.6-0.3,4.1,2.8,2.3,4.7l-1.4,1.4c-0.9,0.9-1,2.3-0.4,3.4l0.3,0.5c1.3,2.2-0.8,4.9-3.2,4.1
		l-2.6-0.9C14,20.2,13,20.4,12.3,21l-0.8,0.7c-1.8,1.5-4.6,0.2-4.5-2.2v0c0-1-0.5-2-1.5-2.5l-1.4-0.7C1.8,15,2.4,11.4,5,11z"/>
	<path class="st1" d="M9.2,10.9c0-0.5,0.1-1.2,0.2-1.8c0.2-2.5,3.6-3.4,5-1.3l1,1.5c0.6,0.8,1.5,1.3,2.5,1.2l2.1-0.2
		c2.6-0.3,4,2.9,2.2,4.7l-1.4,1.4c-0.9,0.9-1.1,2.2-0.4,3.3l0.3,0.5c1.3,2.2-0.9,4.8-3.3,3.9l-2.6-0.9c-0.9-0.3-1.9-0.2-2.6,0.4
		l-0.8,0.6c-1.8,1.4-4.5,0.1-4.4-2.3l0,0c0.1-1-0.5-2-1.4-2.5c0,0-1.3-0.7-1.3-0.8c-2.3-1.3-1.6-4.8,1-5.1l1.7-0.2
		C8.1,13.2,9.1,12.1,9.2,10.9z"/>
	<path class="st2" d="M9.4,13.5c0-0.5,0.2-1.2,0.2-1.8c0.2-2.5,3.6-3.2,4.9-1.1l1,1.5c0.5,0.8,1.5,1.3,2.5,1.3l2.1-0.2
		c2.6-0.2,3.9,2.9,2.1,4.7l-1.4,1.3c-0.9,0.9-1.1,2.2-0.5,3.3l0.2,0.5c1.2,2.2-1,4.7-3.3,3.8l-2.5-0.8c-0.9-0.3-1.9-0.2-2.6,0.3
		l-0.8,0.6c-1.9,1.4-4.5-0.1-4.3-2.4l0.1,0c0.1-1-0.4-2-1.3-2.5c0,0-1.3-0.8-1.3-0.8c-2.3-1.3-1.5-4.8,1.1-5.1L7,15.9
		C8.3,15.7,9.3,14.7,9.4,13.5z"/>
	<path class="st3" d="M9.5,16.1c0.1-0.5,0.2-1.1,0.3-1.8c0.3-2.5,3.6-3.1,4.9-1l0.9,1.5c0.5,0.8,1.4,1.4,2.4,1.3l2-0.2
		c2.5-0.1,3.8,3,1.9,4.7L20.5,22c-0.9,0.8-1.1,2.1-0.6,3.2l0.2,0.5c1.1,2.2-1.1,4.6-3.4,3.7l-2.5-0.8c-0.9-0.4-1.8-0.3-2.6,0.3
		l-0.8,0.6c-1.9,1.3-4.4-0.2-4.2-2.4l0.1,0c0.1-1-0.4-2-1.2-2.5c0,0-1.3-0.8-1.3-0.8c-2.2-1.4-1.4-4.8,1.2-5l1.6-0.1
		C8.4,18.3,9.4,17.4,9.5,16.1z"/>
	<path class="st4" d="M9.7,18.8c0.1-0.5,0.3-1.1,0.3-1.7c0.3-2.4,3.6-3,4.9-0.8l0.8,1.5c0.5,0.9,1.4,1.4,2.4,1.4l2-0.2
		c2.5-0.1,3.7,3.1,1.8,4.7l-1.5,1.2c-0.9,0.8-1.1,2.1-0.6,3.1l0.2,0.5c1,2.2-1.2,4.5-3.4,3.5l-2.4-0.8c-0.8-0.4-1.8-0.3-2.6,0.2
		l-0.9,0.5c-1.9,1.3-4.4-0.3-4.1-2.5l0.2,0c0.1-1-0.3-2-1.1-2.6c0-0.1-1.3-0.8-1.2-0.8c-2.2-1.4-1.3-4.7,1.3-4.9L7.3,21
		C8.5,20.9,9.6,20,9.7,18.8z"/>
	<path class="st5" d="M9.9,21.4c0.1-0.5,0.3-1.1,0.4-1.7c0.3-2.4,3.7-2.8,4.8-0.7l0.8,1.5c0.4,0.9,1.3,1.4,2.3,1.4l2-0.2
		c2.5,0,3.6,3.1,1.7,4.7l-1.6,1.2c-0.9,0.8-1.2,2-0.7,3.1l0.2,0.5c1,2.2-1.3,4.4-3.5,3.4l-2.4-0.8c-0.8-0.4-1.8-0.4-2.6,0.1
		l-0.9,0.5c-1.9,1.2-4.3-0.4-4-2.6l0.2,0c0.2-1-0.2-2-1-2.6c0-0.1-1.2-0.8-1.2-0.9c-2.1-1.4-1.2-4.7,1.4-4.8l1.6-0.1
		C8.7,23.5,9.8,22.6,9.9,21.4z"/>
	<path class="st6" d="M10.1,23.9c0.1-0.5,0.3-1.1,0.4-1.7c0.4-2.4,3.7-2.7,4.8-0.5l0.7,1.5c0.4,0.9,1.2,1.5,2.2,1.5l1.9-0.2
		c2.5,0,3.5,3.2,1.6,4.7l-1.6,1.1c-0.9,0.8-1.2,2-0.7,3l0.1,0.5c0.9,2.2-1.4,4.3-3.5,3.3l-2.3-0.8c-0.8-0.4-1.8-0.4-2.5,0.1L10.3,37
		c-2,1.1-4.3-0.5-3.9-2.7l0.2,0c0.2-1-0.2-2-1-2.6c0-0.1-1.2-0.8-1.2-0.9c-2.1-1.5-1-4.7,1.5-4.8l1.6,0C8.8,26,9.9,25.1,10.1,23.9z"
		/>
	<path class="st7" d="M10.3,26.5c0.1-0.5,0.4-1.1,0.5-1.6c0.4-2.3,3.7-2.6,4.7-0.4l0.7,1.5c0.4,0.9,1.2,1.5,2.2,1.6l1.9-0.1
		c2.5,0.1,3.4,3.3,1.4,4.7L20,33.2c-0.9,0.7-1.2,1.9-0.8,3l0.1,0.5c0.8,2.2-1.5,4.2-3.6,3.1l-2.3-0.8c-0.8-0.4-1.7-0.4-2.5,0
		l-0.9,0.4c-2,1.1-4.3-0.7-3.8-2.8l0.3,0c0.2-0.9-0.1-2-0.9-2.6c0-0.1-1.2-0.8-1.2-0.9c-2-1.5-0.9-4.7,1.6-4.7l1.6,0
		C9,28.5,10.1,27.6,10.3,26.5z"/>
	<path class="st8" d="M10.4,29.1c0.1-0.5,0.4-1.1,0.5-1.6c0.4-2.3,3.8-2.4,4.7-0.3l0.6,1.5c0.3,0.9,1.1,1.5,2.1,1.6l1.9-0.1
		c2.4,0.2,3.3,3.3,1.3,4.7l-1.7,1c-0.9,0.7-1.2,1.9-0.8,2.9l0.1,0.5c0.8,2.2-1.6,4.1-3.6,3l-2.2-0.7c-0.8-0.5-1.7-0.5-2.5-0.1
		L9.9,42c-2,1-4.2-0.8-3.7-2.9l0.3-0.1c0.3-0.9,0-1.9-0.8-2.6c0-0.1-1.1-0.8-1.1-1c-1.9-1.6-0.8-4.7,1.7-4.6L7.9,31
		C9.1,31,10.2,30.2,10.4,29.1z"/>
	<path class="st9" d="M10.6,31.6c0.1-0.5,0.5-1,0.6-1.6c0.5-2.3,3.8-2.3,4.6-0.1l0.6,1.5c0.3,0.9,1.1,1.5,2.1,1.7l1.8-0.1
		c2.4,0.2,3.2,3.4,1.2,4.7l-1.7,1c-0.9,0.7-1.3,1.9-0.9,2.9l0.1,0.6c0.7,2.1-1.7,4.1-3.7,2.9l-2.2-0.7c-0.7-0.5-1.7-0.5-2.5-0.1
		l-1,0.4c-2,1-4.2-0.9-3.5-2.9l0.4-0.1c0.3-0.9,0-1.9-0.7-2.6c0-0.1-1.1-0.9-1.1-1c-1.9-1.6-0.7-4.7,1.8-4.6l1.6,0.1
		C9.3,33.5,10.4,32.7,10.6,31.6z"/>
	<path class="st10" d="M10.8,34.2c0.1-0.4,0.5-1,0.6-1.6c0.5-2.2,3.8-2.1,4.6,0l0.5,1.5c0.3,0.9,1,1.6,2,1.7l1.8-0.1
		c2.4,0.3,3.1,3.4,1.1,4.8l-1.7,0.9c-0.9,0.7-1.3,1.8-1,2.8l0,0.6c0.6,2.1-1.8,4-3.7,2.7l-2.1-0.7c-0.7-0.5-1.7-0.6-2.5-0.2l-1,0.3
		c-2,0.9-4.1-1-3.4-3l0.4-0.1c0.3-0.9,0.1-1.9-0.6-2.6c0-0.1-1.1-0.9-1.1-1c-1.8-1.6-0.6-4.7,1.9-4.5l1.6,0.2
		C9.4,36,10.6,35.3,10.8,34.2z"/>
	<path class="st11" d="M11,36.7c0.1-0.4,0.6-1,0.7-1.5c0.5-2.2,3.9-2,4.6,0.2l0.5,1.6c0.2,0.9,1,1.6,1.9,1.8l1.7-0.1
		c2.4,0.3,3,3.5,0.9,4.8l-1.8,0.9c-0.9,0.6-1.3,1.8-1,2.8l0,0.6c0.6,2.1-1.9,3.9-3.8,2.6l-2.1-0.7c-0.7-0.5-1.6-0.6-2.5-0.3l-1,0.3
		c-2.1,0.8-4.1-1.1-3.3-3.1l0.4-0.1c0.4-0.9,0.2-1.9-0.5-2.6c0-0.1-1.1-0.9-1-1.1C3,41,4.4,38,6.8,38.2l1.6,0.2
		C9.6,38.5,10.7,37.8,11,36.7z"/>
	<path class="st12" d="M11.1,39.3c0.1-0.4,0.6-1,0.7-1.5c0.5-2.2,3.9-1.9,4.5,0.3l0.4,1.6c0.2,0.9,0.9,1.6,1.9,1.9l1.7-0.1
		c2.4,0.4,2.9,3.6,0.8,4.8l-1.8,0.8c-0.9,0.6-1.3,1.7-1.1,2.7l0,0.6c0.5,2.1-2,3.8-3.8,2.5l-2-0.7c-0.7-0.5-1.6-0.7-2.5-0.4l-1,0.3
		c-2.1,0.8-4-1.3-3.2-3.2l0.5-0.1c0.4-0.9,0.2-1.9-0.4-2.7c0-0.2-1-0.9-1-1.1c-1.7-1.7-0.3-4.7,2.1-4.4l1.6,0.2
		C9.7,41,10.9,40.4,11.1,39.3z"/>
	<path class="st13" d="M11.3,41.8c0.1-0.4,0.7-1,0.8-1.5c1-2,3.9-1.7,4.5,0.4l0.4,1.6c0.2,0.9,0.9,1.7,1.8,1.9l1.7,0
		c2.4,0.5,2.8,3.6,0.7,4.8l-1.9,0.8c-0.9,0.6-1.4,1.7-1.1,2.7l0,0.6c0.4,2.1-2.1,3.7-3.9,2.3l-2-0.7c-0.7-0.6-1.6-0.7-2.4-0.4
		l-1,0.3c-2.1,0.7-4-1.4-3.1-3.3l0.5-0.1c0.4-0.8,0.3-1.9-0.4-2.7c0-0.2-1-0.9-1-1.1c-1.7-1.8-0.2-4.7,2.2-4.3l1.6,0.3
		C9.9,43.5,11.1,42.9,11.3,41.8z"/>
	<path class="st14" d="M11.5,44.4c0.1-0.4,0.8-1,0.8-1.4c1-2,4-1.6,4.4,0.6l0.3,1.6c0.1,0.9,0.8,1.7,1.8,2l1.6,0
		c2.3,0.5,2.7,3.7,0.6,4.8l-1.9,0.7c-0.9,0.6-1.4,1.6-1.2,2.6l-0.1,0.6c0.3,2.1-2.2,3.6-3.9,2.2l-1.9-0.6c-0.6-0.6-1.6-0.8-2.4-0.5
		l-1,0.2c-2.1,0.7-3.9-1.5-3-3.4l0.6-0.1c0.5-0.8,0.4-1.9-0.3-2.7c0-0.2-1-0.9-0.9-1.2c-1.6-1.8-0.1-4.7,2.3-4.2l1.6,0.3
		C10,46,11.2,45.4,11.5,44.4z"/>
	<path class="st15" d="M11.7,46.9c0-0.4,0.8-0.9,0.9-1.4c1.1-1.9,4-1.5,4.4,0.7l0.2,1.6c0.1,0.9,0.7,1.7,1.7,2l1.6,0
		c2.3,0.6,2.6,3.8,0.4,4.8L19,55.3c-1,0.5-1.4,1.6-1.2,2.6l-0.1,0.6c0.3,2.1-2.2,3.5-4,2.1l-1.9-0.6c-0.6-0.6-1.5-0.8-2.4-0.6
		l-1.1,0.2c-2.2,0.6-3.9-1.6-2.9-3.4L6.1,56c0.5-0.8,0.4-1.9-0.2-2.7C6,53.1,5,52.4,5,52.1c-1.6-1.8,0-4.7,2.5-4.2l1.6,0.4
		C10.2,48.5,11.2,47.9,11.7,46.9z"/>
	<path class="st16" d="M11.8,49.5c0-0.4,0.9-0.9,0.9-1.4c1.1-1.9,4-1.3,4.4,0.9l0.2,1.6c0.1,0.9,0.7,1.8,1.6,2.1l1.6,0
		c2.3,0.6,2.5,3.8,0.3,4.8l-2,0.6c-1,0.5-1.5,1.5-1.3,2.5l-0.1,0.6c0.2,2.1-2.3,3.4-4,1.9l-1.8-0.6c-0.6-0.6-1.5-0.9-2.4-0.6L8.2,62
		c-2.2,0.5-3.8-1.7-2.8-3.5l0.7-0.1c0.5-0.8,0.5-1.9-0.1-2.7c0-0.2-0.9-1-0.9-1.2c-1.5-1.9,0.2-4.7,2.6-4.1l1.6,0.4
		C10.3,51,11.4,50.4,11.8,49.5z"/>
	<path class="st17" d="M12,52c0-0.4,0.9-0.9,1-1.3c1.2-1.9,4.1-1.2,4.3,1l0.1,1.6c0,0.9,0.6,1.8,1.6,2.2l1.5,0
		c2.3,0.7,2.4,3.9,0.2,4.8l-2,0.6c-1,0.5-1.5,1.5-1.4,2.4l-0.1,0.6c0.1,2.1-2.4,3.3-4,1.8l-1.8-0.6c-0.6-0.6-1.5-0.9-2.4-0.7L8,64.5
		c-2.2,0.5-3.8-1.9-2.7-3.6L6,60.8C6.6,60,6.6,59,6,58.1c0-0.2-0.9-1-0.9-1.3c-1.5-1.9,0.3-4.6,2.7-4l1.6,0.4
		C10.5,53.5,11.5,53,12,52z"/>
	<path class="st18" d="M12.2,54.6c0-0.4,1-0.9,1-1.3c1.3-1.8,4.1-1,4.3,1.2l0.1,1.6c0,0.9,0.6,1.8,1.5,2.2l1.5,0.1
		c2.3,0.8,2.3,4,0.1,4.8l-2,0.5c-1,0.5-1.5,1.4-1.4,2.4L17,66.6c0.1,2.1-2.5,3.2-4.1,1.7l-1.7-0.6c-0.6-0.7-1.5-1-2.4-0.8L7.8,67
		c-2.2,0.4-3.7-2-2.5-3.7L6,63.2c0.6-0.8,0.6-1.9,0.1-2.7c0-0.2-0.8-1-0.8-1.3c-1.4-1.9,0.4-4.6,2.8-4l1.5,0.5
		C10.6,56,11.7,55.5,12.2,54.6z"/>
	<path class="st19" d="M12.4,57.2c0-0.3,1-0.9,1.1-1.3c1.3-1.8,4.1-0.9,4.2,1.3l0,1.6c0,0.9,0.5,1.9,1.4,2.3l1.5,0.1
		c2.2,0.8,2.2,4-0.1,4.8l-2.1,0.5c-1,0.4-1.5,1.4-1.5,2.3l-0.2,0.6c0,2.1-2.6,3.1-4.1,1.5l-1.6-0.6c-0.6-0.7-1.4-1-2.3-0.9l-1.1,0.1
		c-2.2,0.4-3.7-2.1-2.4-3.8L6,65.6c0.6-0.7,0.7-1.8,0.2-2.7c0-0.3-0.8-1-0.8-1.3c-1.4-2,0.5-4.6,2.9-3.9l1.5,0.5
		C10.8,58.5,11.9,58,12.4,57.2z"/>
	<path class="st20" d="M12.7,59.7c0-0.3,1.1-0.8,1.1-1.3c1.4-1.7,4.2-0.8,4.2,1.4l0,1.6c-0.1,0.9,0.5,1.9,1.4,2.3l1.4,0.1
		c2.2,0.9,2.1,4.1-0.2,4.8l-2.1,0.4c-1,0.4-1.6,1.3-1.5,2.3l-0.2,0.6c-0.1,2.1-2.7,3-4.2,1.4L11,72.9c-0.5-0.7-1.4-1.1-2.3-0.9
		l-1.1,0c-2.3,0.3-3.6-2.2-2.3-3.9L6,68.1c0.6-0.7,0.8-1.8,0.2-2.8c0-0.3-0.8-1-0.8-1.3c-1.3-2,0.6-4.6,3-3.8l1.5,0.6
		C11.1,61,12.2,60.6,12.7,59.7z"/>
	<path class="st21" d="M13,62.3c0-0.3,1.1-0.8,1.2-1.2c1.4-1.7,4.2-0.6,4.1,1.6l-0.1,1.6c-0.1,1,0.4,1.9,1.3,2.4l1.4,0.1
		c2.2,0.9,2,4.1-0.3,4.8l-2.2,0.4c-1,0.4-1.6,1.3-1.6,2.2l-0.2,0.6c-0.2,2.1-2.8,3-4.2,1.3l-1.5-0.5c-0.5-0.7-1.4-1.1-2.3-1l-1.2,0
		c-2.3,0.2-3.6-2.3-2.2-3.9l0.9-0.1c0.7-0.7,0.8-1.8,0.3-2.8c0-0.3-0.8-1-0.7-1.4c-1.3-2.1,0.8-4.6,3.1-3.8l1.5,0.6
		C11.4,63.5,12.4,63.1,13,62.3z"/>
	<path class="st22" d="M13.3,64.8c0-0.3,1.2-0.8,1.2-1.2c1.5-1.6,4.2-0.5,4.1,1.7L18.5,67c-0.1,1,0.3,1.9,1.3,2.5l1.4,0.1
		c2.2,1,1.9,4.2-0.4,4.8l-2.2,0.3c-1,0.4-1.6,1.2-1.6,2.2l-0.3,0.6c-0.2,2.1-2.9,2.9-4.3,1.1l-1.5-0.5c-0.5-0.7-1.4-1.1-2.3-1.1
		l-1.2,0c-2.3,0.2-3.6-2.5-2.1-4l0.9-0.1c0.7-0.7,0.9-1.8,0.4-2.8c0-0.3-0.7-1.1-0.7-1.4c-1.2-2.1,0.9-4.6,3.2-3.7l1.5,0.7
		C11.6,66,12.7,65.6,13.3,64.8z"/>
	<path class="st23" d="M13.6,67.4c0-0.3,1.2-0.8,1.3-1.2c1.6-1.6,4.3-0.4,4.1,1.9l-0.2,1.6c-0.2,1,0.3,2,1.2,2.5l1.3,0.1
		c2.2,1.1,1.8,4.3-0.6,4.8l-2.2,0.3c-1,0.3-1.6,1.2-1.7,2.1l-0.3,0.6c-0.3,2.1-3,2.8-4.3,1l-1.4-0.5c-0.5-0.8-1.4-1.2-2.3-1.1
		l-1.2,0c-2.3,0.1-3.5-2.6-2-4.1l0.9-0.1c0.7-0.7,1-1.8,0.5-2.8c0-0.3-0.7-1.1-0.7-1.4c-1.2-2.1,1-4.6,3.3-3.6l1.5,0.7
		C11.9,68.5,13,68.2,13.6,67.4z"/>
	<path class="st24" d="M13.9,69.9c0-0.3,1.3-0.8,1.3-1.1c1.6-1.6,4.3-0.2,4,2L19,72.4c-0.2,1,0.2,2,1.1,2.6l1.3,0.2
		c2.2,1.1,1.7,4.3-0.7,4.9l-2.3,0.2c-1,0.3-1.7,1.1-1.8,2.1L16.5,83c-0.4,2.1-3.1,2.7-4.4,0.9l-1.4-0.5c-0.5-0.8-1.3-1.2-2.3-1.2
		l-1.2-0.1c-2.3,0.1-3.5-2.7-1.9-4.2l1-0.2c0.8-0.7,1-1.8,0.6-2.8c0-0.3-0.7-1.1-0.6-1.5c-1.1-2.2,1.1-4.6,3.4-3.6l1.5,0.7
		C12.2,71,13.3,70.7,13.9,69.9z"/>
	<path class="st25" d="M14.2,72.5c0-0.3,1.3-0.8,1.4-1.1c1.7-1.5,4.3-0.1,4,2.1l-0.3,1.6c-0.2,1,0.2,2,1.1,2.6l1.3,0.2
		c2.1,1.2,1.6,4.4-0.8,4.9L18.5,83c-1,0.3-1.7,1.1-1.8,2l-0.3,0.7c-0.4,2-3.2,2.6-4.4,0.7L10.6,86c-0.4-0.8-1.3-1.3-2.2-1.3
		l-1.2-0.1c-2.4,0-3.4-2.8-1.8-4.3l1-0.2c0.8-0.7,1.1-1.8,0.7-2.8c0-0.3-0.6-1.1-0.6-1.5c-1.1-2.2,1.3-4.6,3.5-3.5l1.5,0.8
		C12.4,73.5,13.5,73.2,14.2,72.5z"/>
	<path class="st26" d="M14.5,75.1c0-0.3,1.4-0.7,1.4-1.1c1.7-1.5,4.4,0.1,3.9,2.3l-0.3,1.6c-0.3,1,0.1,2.1,1,2.7l1.2,0.2
		c2.1,1.2,1.5,4.5-0.9,4.9l-2.3,0.1c-1,0.3-1.7,1-1.9,2l-0.4,0.7c-0.5,2-3.3,2.5-4.5,0.6l-1.3-0.4c-0.4-0.8-1.3-1.3-2.2-1.3L7,87.1
		c-2.4-0.1-3.4-2.9-1.7-4.4l1.1-0.2c0.8-0.6,1.2-1.8,0.8-2.8c0-0.4-0.6-1.1-0.6-1.5c-1-2.3,1.4-4.6,3.6-3.4l1.5,0.8
		C12.7,76,13.8,75.8,14.5,75.1z"/>
	<path class="st27" d="M14.8,77.6c0-0.3,1.4-0.7,1.5-1c1.8-1.4,4.4,0.2,3.9,2.4l-0.4,1.6c-0.3,1,0.1,2.1,1,2.8l1.2,0.2
		c2.1,1.3,1.4,4.5-1,4.9l-2.4,0.1c-1,0.2-1.7,1-1.9,1.9l-0.4,0.7c-0.6,2-3.4,2.4-4.5,0.5l-1.2-0.4c-0.4-0.8-1.3-1.4-2.2-1.4L7,89.6
		c-2.4-0.1-3.3-3.1-1.6-4.5L6.5,85c0.9-0.6,1.2-1.8,0.8-2.9c0-0.4-0.6-1.1-0.6-1.6c-1-2.3,1.5-4.6,3.7-3.4l1.5,0.9
		C13,78.5,14.1,78.3,14.8,77.6z"/>
	<path class="st28" d="M15.1,80.2c0-0.3,1.5-0.7,1.5-1c1.9-1.4,4.4,0.3,3.9,2.6L20,83.4c-0.3,1,0,2.1,0.9,2.8l1.2,0.2
		c2.1,1.4,1.3,4.6-1.2,4.9l-2.4,0c-1,0.2-1.8,0.9-2,1.9l-0.4,0.7c-0.6,2-3.5,2.3-4.6,0.3l-1.2-0.4c-0.4-0.9-1.2-1.4-2.2-1.5
		l-1.3-0.2c-2.4-0.2-3.3-3.2-1.4-4.5l1.1-0.2c0.9-0.6,1.3-1.8,0.9-2.9c0-0.4-0.6-1.1-0.5-1.6c-0.9-2.3,1.6-4.6,3.8-3.3l1.5,0.9
		C13.3,81,14.4,80.8,15.1,80.2z"/>
	<path class="st29" d="M15.4,82.7c0-0.2,1.5-0.7,1.6-1c1.9-1.3,4.5,0.5,3.8,2.7l-0.5,1.6c-0.4,1,0,2.2,0.8,2.9l1.1,0.2
		c2.1,1.4,1.2,4.7-1.3,4.9l-2.5,0c-1,0.2-1.8,0.9-2,1.8L16,96.6c-0.7,2-3.6,2.2-4.6,0.2l-1.1-0.4c-0.4-0.9-1.2-1.5-2.2-1.6l-1.3-0.2
		c-2.5-0.2-3.2-3.3-1.3-4.6l1.2-0.2c0.9-0.6,1.4-1.8,1-2.9c0-0.4-0.5-1.2-0.5-1.6c-0.9-2.4,1.7-4.5,3.9-3.2l1.5,0.9
		C13.5,83.5,14.6,83.4,15.4,82.7z"/>
	<path class="st30" d="M15.7,85.3c0-0.2,1.6-0.7,1.6-1c2-1.3,4.5,0.6,3.8,2.9l-0.6,1.6c-0.4,1-0.1,2.2,0.8,2.9l1.1,0.3
		c2,1.5,1.1,4.7-1.4,4.9l-2.5-0.1c-1,0.2-1.8,0.9-2.1,1.7l-0.5,0.7c-0.8,2-3.7,2.1-4.7,0.1L10.2,99C9.8,98.1,9,97.5,8,97.4l-1.3-0.3
		c-2.5-0.3-3.2-3.4-1.2-4.7l1.2-0.2c0.9-0.6,1.2-1.7,1.1-2.9c0-0.4-0.5-1.2-0.5-1.7c-0.8-2.4,1.9-4.5,4-3.2l1.5,1
		C13.8,86,14.9,85.9,15.7,85.3z"/>
	<path class="st31" d="M16,87.9c0-0.2,1.6-0.7,1.7-0.9c2-1.3,4.5,0.7,3.7,3l-0.6,1.7c-0.4,1-0.2,2.2,0.7,3l1.1,0.3
		c2,1.5,1,4.8-1.5,4.9l-2.5-0.1c-1,0.1-1.8,0.8-2.2,1.7l-0.5,0.7c-0.9,2-3.8,2-4.7-0.1l-1-0.3c-0.3-0.9-1.2-1.6-2.2-1.7l-1.3-0.3
		c-2.5-0.4-3.1-3.5-1.1-4.8l1.3-0.2c1-0.6,1.3-1.7,1.2-2.9c0-0.4-0.5-1.2-0.4-1.7c-0.8-2.4,2-4.5,4.1-3.1l1.5,1
		C14.1,88.6,15.2,88.5,16,87.9z"/>
	<path class="st32" d="M16.3,90.5c0-0.2,1.7-0.6,1.7-0.9c2.1-1.2,4.5,0.9,3.7,3.1L21,94.5c-0.5,1-0.2,2.3,0.7,3.1l1,0.3
		c2,1.6,0.9,4.9-1.7,4.9l-2.6-0.2c-1,0.1-1.9,0.8-2.2,1.6l-0.5,0.7c-0.9,2-3.9,2-4.8-0.2l-1-0.3c-0.3-0.9-1.1-1.6-2.1-1.8l-1.4-0.3
		c-2.5-0.4-3.1-3.7-1-4.9l1.3-0.2c1-0.5,1.4-1.7,1.3-2.9c0-0.4-0.4-1.2-0.4-1.7c-0.7-2.5,2.1-4.5,4.2-3l1.4,1.1
		C14.3,91.2,15.5,91.1,16.3,90.5z"/>
	<path class="st33" d="M16.6,93.2c0-0.2,1.7-0.6,1.8-0.9c2.2-1.2,4.6,1,3.6,3.3l-0.7,1.7c-0.5,1-0.3,2.3,0.6,3.1l1,0.3
		c2,1.7,0.8,4.9-1.8,4.9l-2.6-0.2c-1,0.1-1.9,0.7-2.3,1.6l-0.5,0.7c-1,2-4,1.9-4.8-0.3l-0.9-0.3c-0.3-0.9-1.1-1.7-2.1-1.8l-1.4-0.4
		c-2.5-0.5-3-3.8-0.9-5l1.3-0.2c1-0.5,1.5-1.7,1.4-2.9c0-0.4-0.3-1.2-0.4-1.7c-0.2-2.6,2.2-4.5,4.4-3l1.4,1.1
		C14.6,93.8,15.8,93.8,16.6,93.2z"/>
	<path class="st34" d="M16.9,95.9c0-0.2,1.8-0.6,1.8-0.8c2.2-1.1,4.6,1.2,3.6,3.4l-0.8,1.7c-0.5,1-0.3,2.3,0.5,3.2l1,0.3
		c2,1.7,0.7,5-1.9,4.9l-2.6-0.3c-1,0-1.9,0.7-2.3,1.5l-0.6,0.7c-1.1,2-4.1,1.8-4.8-0.5l-0.9-0.3c-0.3-1-1.1-1.7-2.1-1.9l-1.4-0.4
		c-2.6-0.5-3-3.9-0.8-5l1.4-0.2c1.1-0.5,1.5-1.7,1.5-2.9c0-0.5-0.3-1.2-0.3-1.8c-0.2-2.6,2.3-4.5,4.5-2.9l1.4,1.2
		C14.9,96.4,16,96.4,16.9,95.9z"/>
	<path class="st35" d="M17.2,98.6c0-0.2,1.8-0.6,1.9-0.8c2.3-1.1,4.6,1.3,3.6,3.6l-0.8,1.7c-0.6,1-0.4,2.3,0.5,3.2l0.9,0.3
		c2,1.8,0.6,5-2,4.9l-2.7-0.3c-1,0-2,0.6-2.4,1.5l-0.6,0.7c-1.1,2-4.2,1.7-4.9-0.6l-0.8-0.3c-0.3-1-1.1-1.8-2.1-2l-1.4-0.4
		c-2.6-0.6-2.9-4-0.7-5.1l1.4-0.2c1.1-0.5,1.6-1.7,1.5-3c0-0.5-0.3-1.2-0.3-1.8c-0.2-2.7,2.5-4.5,4.6-2.8l1.4,1.2
		C15.1,99,16.3,99.1,17.2,98.6z"/>
	<path class="st36" d="M17.5,101.2c0-0.2,1.9-0.6,1.9-0.8c2.3-1,4.7,1.4,3.5,3.7l-0.9,1.7c-0.6,1-0.4,2.4,0.4,3.3l0.9,0.4
		c1.9,1.8,0.5,5.1-2.2,4.9l-2.7-0.4c-1.1,0-2,0.6-2.4,1.4l-0.6,0.7c-1.2,2-4.3,1.6-4.9-0.7l-0.8-0.3c-0.2-1-1-1.8-2.1-2.1l-1.4-0.4
		c-2.6-0.7-2.9-4.1-0.6-5.2l1.5-0.2c1.1-0.5,1.7-1.7,1.6-3c0-0.5-0.3-1.3-0.3-1.8c-0.2-2.7,2.6-4.5,4.7-2.8l1.4,1.2
		C15.4,101.6,16.6,101.7,17.5,101.2z"/>
	<path class="st37" d="M17.8,103.9c0-0.2,1.9-0.6,2-0.7c2.4-1,4.7,1.6,3.5,3.8l-0.9,1.7c-0.6,1-0.5,2.4,0.4,3.4l0.9,0.4
		c1.9,1.9,0.4,5.2-2.3,5l-2.8-0.4c-1.1,0-2,0.5-2.5,1.4l-0.6,0.7c-1.3,2-4.4,1.5-5-0.9l-0.7-0.2c-0.2-1-1-1.9-2.1-2.1l-1.5-0.5
		c-2.6-0.7-2.9-4.3-0.5-5.3l1.5-0.2c1.2-0.5,1.8-1.7,1.7-3c0-0.5-0.2-1.3-0.3-1.9c-0.1-2.7,2.7-4.5,4.8-2.7l1.4,1.3
		C15.7,104.2,16.9,104.3,17.8,103.9z"/>
	<path class="st38" d="M18.1,106.5c0-0.1,2-0.5,2-0.7c2.5-1,4.7,1.7,3.4,4l-1,1.7c-0.7,1-0.6,2.4,0.3,3.4l0.8,0.4
		c1.9,2,0.3,5.2-2.4,5l-2.8-0.5c-1.1-0.1-2,0.5-2.5,1.3l-0.7,0.7c-1.4,2-4.5,1.4-5-1l-0.7-0.2c-0.2-1-1-1.9-2-2.2L6,117.9
		c-2.7-0.8-2.8-4.4-0.3-5.4l1.5-0.2c1.2-0.5,1.8-1.7,1.8-3c0-0.5-0.2-1.3-0.2-1.9c-0.1-2.8,2.8-4.5,4.9-2.6l1.4,1.3
		C16,106.9,17.1,107,18.1,106.5z"/>
	<path class="st39" d="M18.4,109.2c0-0.1,2-0.5,2.1-0.7c2.5-0.9,4.8,1.8,3.4,4.1l-1.1,1.7c-0.7,1.1-0.6,2.5,0.2,3.5l0.8,0.4
		c1.9,2,0.2,5.3-2.5,5l-2.8-0.5c-1.1-0.1-2.1,0.4-2.6,1.3l-0.7,0.7c-1.4,2-4.6,1.3-5.1-1.1l-0.6-0.2c-0.2-1.1-1-1.9-2-2.3l-1.5-0.5
		c-2.7-0.8-2.8-4.5-0.2-5.5l1.6-0.2c1.2-0.4,1.9-1.7,1.9-3c0-0.5-0.2-1.3-0.2-1.9c-0.1-2.8,2.9-4.5,5-2.6l1.4,1.4
		C16.2,109.5,17.4,109.6,18.4,109.2z"/>
	<path class="st40" d="M18.7,111.9c0-0.1,2.1-0.5,2.1-0.7c2.6-0.9,4.8,2,3.4,4.3l-1.1,1.7c-0.7,1.1-0.7,2.5,0.2,3.5l0.8,0.4
		c1.9,2.1,0.1,5.4-2.7,5l-2.9-0.6c-1.1-0.1-2.1,0.4-2.7,1.2l-0.7,0.7c-1.5,1.9-4.6,1.2-5.1-1.3l-0.6-0.2c-0.2-1.1-0.9-2-2-2.3
		l-1.5-0.6c-2.7-0.9-2.7-4.6-0.1-5.5l1.6-0.3c1.3-0.4,2-1.6,2-3c0-0.5-0.2-1.3-0.2-2c-0.1-2.8,3.1-4.5,5.1-2.5l1.4,1.4
		C16.5,112.1,17.7,112.3,18.7,111.9z"/>
	<path class="st41" d="M19,114.5c0-0.1,2.1-0.5,2.2-0.6c2.6-0.8,4.8,2.1,3.3,4.4l-1.2,1.7c-0.8,1.1-0.7,2.5,0.1,3.6l0.7,0.4
		c1.8,2.1,0,5.4-2.8,5l-2.9-0.6c-1.1-0.1-2.1,0.3-2.7,1.2l-0.7,0.8c-1.6,1.9-4.7,1.1-5.2-1.4l-0.5-0.2c-0.2-1.1-0.9-2-2-2.4
		l-1.5-0.6c-2.7-1-2.7-4.7,0-5.6l1.7-0.3c1.3-0.4,2.1-1.6,2.1-3c0-0.6-0.1-1.3-0.1-2c0-2.8,3.2-4.5,5.2-2.4l1.4,1.4
		C16.7,114.7,17.9,114.9,19,114.5z"/>
	<path class="st42" d="M19.1,117.2c0-0.1,2.2-0.5,2.2-0.6c2.7-0.8,4.9,2.3,3.3,4.6l-1.2,1.7c-0.8,1.1-0.8,2.6,0.1,3.6l0.7,0.5
		c1.8,2.2-0.1,5.5-2.9,5l-2.9-0.7c-1.1-0.2-2.1,0.3-2.8,1.1l-0.8,0.8c-1.6,1.9-4.8,1-5.2-1.5l-0.5-0.2c-0.1-1.1-0.9-2.1-2-2.5
		l-1.5-0.6c-2.7-1-2.6-4.9,0.1-5.7l1.7-0.3c1.3-0.4,2.1-1.6,2.1-3c0-0.6-0.1-1.3-0.1-2c0-2.9,3.3-4.4,5.3-2.3l1.4,1.5
		C16.9,117.3,18.1,117.6,19.1,117.2z"/>
	<path class="st43" d="M19.3,119.9c0-0.1,2.2-0.5,2.3-0.6c2.8-0.7,4.9,2.4,3.2,4.7l-1.3,1.7c-0.8,1.1-0.8,2.6,0,3.7l0.6,0.5
		c1.8,2.3-0.2,5.6-3,5l-3-0.7c-1.1-0.2-2.2,0.2-2.8,1l-0.8,0.8c-1.7,1.9-4.9,0.9-5.3-1.7l-0.4-0.1c-0.1-1.1-0.9-2.1-2-2.6L5.4,131
		c-2.8-1.1-2.6-5,0.2-5.8l1.7-0.3c1.3-0.4,2.2-1.6,2.2-3.1c0-0.6-0.1-1.4-0.1-2.1c0-2.9,3.4-4.4,5.4-2.3l1.4,1.5
		C17.1,119.9,18.3,120.2,19.3,119.9z"/>
	<path class="st44" d="M19.5,122.5c0-0.1,2.3-0.4,2.3-0.5c2.8-0.7,4.9,2.5,3.2,4.8l-1.3,1.7c-0.9,1.1-0.9,2.6-0.1,3.8l0.6,0.5
		c1.8,2.3-0.3,5.6-3.2,5l-3-0.7c-1.1-0.2-2.2,0.2-2.9,1l-0.8,0.8c-1.8,1.9-5,0.9-5.3-1.8l-0.4-0.1c-0.1-1.2-0.9-2.2-1.9-2.6
		l-1.6-0.7c-2.8-1.1-2.5-5.1,0.3-5.9l1.8-0.3c1.4-0.4,2.3-1.6,2.3-3.1c0-0.6-0.1-1.4,0-2.1c0-3,3.5-4.4,5.5-2.2l1.4,1.6
		C17.2,122.5,18.4,122.8,19.5,122.5z"/>
	<path class="st45" d="M19.7,125.2c0-0.1,2.3-0.4,2.4-0.5c2.9-0.7,5,2.7,3.1,5l-1.4,1.7c-0.9,1.1-1,2.7-0.1,3.8l0.6,0.5
		c1.8,2.4-0.4,5.7-3.3,5l-3-0.8c-1.1-0.2-2.2,0.1-2.9,0.9l-0.8,0.8c-1.9,1.9-5.1,0.8-5.4-1.9l-0.3-0.1c-0.1-1.2-0.8-2.2-1.9-2.7
		L5,136.2c-2.8-1.2-2.5-5.2,0.4-6l1.8-0.3c1.4-0.3,2.4-1.6,2.4-3.1c0-0.6,0-1.4,0-2.1c0.1-3,3.7-4.4,5.6-2.1l1.4,1.6
		C17.4,125.1,18.6,125.5,19.7,125.2z"/>
	<path class="st46" d="M19.9,127.9c0-0.1,2.4-0.4,2.4-0.5c2.9-0.6,5,2.8,3.1,5.1l-1.4,1.7c-0.9,1.1-1,2.7-0.2,3.9l0.5,0.5
		c1.7,2.4-0.5,5.7-3.4,5l-3.1-0.8c-1.1-0.3-2.2,0.1-3,0.9l-0.9,0.8c-1.9,1.9-5.2,0.7-5.4-2.1l-0.3-0.1c-0.1-1.2-0.8-2.3-1.9-2.8
		l-1.6-0.8c-2.8-1.3-2.4-5.4,0.5-6l1.9-0.3c1.4-0.3,2.4-1.6,2.5-3.1c0-0.6,0-1.4,0-2.2c0.1-3,3.8-4.4,5.7-2.1l1.4,1.7
		C17.5,127.7,18.8,128.1,19.9,127.9z"/>
	<path class="st47" d="M20.1,130.5c0,0,2.4-0.4,2.5-0.4c3-0.6,5,2.9,3.1,5.3l-1.5,1.7c-1,1.1-1.1,2.7-0.2,3.9l0.5,0.6
		c1.7,2.5-0.6,5.8-3.5,5l-3.1-0.9c-1.1-0.3-2.3,0-3.1,0.8l-0.9,0.8c-2,1.9-5.3,0.6-5.5-2.2L8.1,145c0-1.2-0.8-2.3-1.9-2.8l-1.6-0.8
		c-2.8-1.3-2.4-5.5,0.6-6.1l1.9-0.3c1.5-0.3,2.5-1.6,2.6-3.1c0-0.6,0-1.4,0-2.2c0.1-3.1,3.9-4.4,5.8-2l1.3,1.7
		C17.7,130.3,18.9,130.8,20.1,130.5z"/>
	<path class="st48" d="M20.3,133.2c0,0,2.5-0.4,2.5-0.4c3.1-0.5,5.1,3.1,3,5.4l-1.5,1.7c-1,1.1-1.1,2.8-0.3,4l0.5,0.6
		c1.7,2.6-0.7,5.9-3.7,5l-3.2-0.9c-1.1-0.3-2.3,0-3.1,0.8l-0.9,0.8c-2.1,1.9-5.4,0.5-5.5-2.3l-0.2-0.1c0-1.2-0.8-2.4-1.9-2.9
		L4.4,144c-2.9-1.4-2.3-5.6,0.8-6.2l2-0.3c1.5-0.3,2.6-1.6,2.7-3.1c0-0.7,0-1.4,0.1-2.2c0.2-3.1,4-4.4,5.9-1.9l1.3,1.7
		C17.9,133,19.1,133.4,20.3,133.2z"/>
	<path class="st49" d="M20.5,135.8c0,0,2.5-0.4,2.6-0.4c3.1-0.5,5.1,3.2,3,5.5l-1.6,1.7c-1,1.1-1.2,2.8-0.4,4.1l0.4,0.6
		c1.7,2.6-0.8,5.9-3.8,5l-3.2-1c-1.1-0.3-2.3-0.1-3.2,0.7l-0.9,0.8c-2.1,1.9-5.5,0.4-5.6-2.5l-0.1,0c0-1.3-0.7-2.4-1.9-3l-1.7-0.8
		c-2.9-1.4-2.3-5.7,0.9-6.3l2-0.3c1.5-0.3,2.7-1.6,2.7-3.1c0-0.7,0.1-1.4,0.1-2.2c0.2-3.1,4.1-4.4,6-1.9l1.3,1.8
		C18,135.6,19.3,136,20.5,135.8z"/>
	<path class="st50" d="M20.7,138.5c0,0,2.6-0.3,2.6-0.4c3.2-0.4,5.1,3.4,2.9,5.7l-1.6,1.7c-1.1,1.1-1.2,2.8-0.4,4.1l0.4,0.6
		c1.7,2.7-0.9,6-3.9,5l-3.2-1c-1.1-0.4-2.3-0.1-3.2,0.7l-1,0.8c-2.2,1.9-5.6,0.3-5.6-2.6l-0.1,0c0-1.3-0.7-2.5-1.9-3L4,149.3
		c-2.9-1.5-2.2-5.8,1-6.4l2-0.3c1.6-0.3,2.7-1.6,2.8-3.1c0-0.7,0.1-1.5,0.1-2.3c0.2-3.2,4.3-4.4,6.1-1.8l1.3,1.8
		C18.2,138.2,19.4,138.7,20.7,138.5z"/>
	<path class="st51" d="M4.9,145.4l2.1-0.3c1.6-0.2,2.8-1.6,2.9-3.2c0-0.7,0.1-1.5,0.2-2.3c0.2-3.2,4.4-4.4,6.3-1.7l1.3,1.9
		c0.7,1,2,1.6,3.2,1.4l2.7-0.3c3.2-0.4,5.2,3.5,2.9,5.8l-1.7,1.8c-1.1,1.1-1.3,2.8-0.5,4.2l0.4,0.6c1.7,2.7-1,6.1-4,5.1l-3.3-1.1
		c-1.1-0.4-2.4-0.1-3.3,0.6l-1,0.8c-2.3,1.9-5.7,0.2-5.6-2.7v0c0-1.3-0.7-2.5-1.8-3.1l-1.7-0.9C0.9,150.3,1.6,145.9,4.9,145.4z"/>
</g>
<g>
	<polygon class="st52" points="86.8,19.1 75.9,19.2 70.5,9.7 76.1,0.1 87,0 92.4,9.5 	"/>
	<polygon class="st53" points="70.6,11.5 76.1,1.9 87,1.8 92.4,11.3 86.8,20.9 75.9,21 	"/>
	<polygon class="st54" points="70.6,13.3 76.1,3.7 87,3.5 92.3,13 86.9,22.6 76,22.7 	"/>
	<polygon class="st55" points="70.6,15 76.1,5.5 86.9,5.3 92.3,14.7 86.9,24.3 76,24.5 	"/>
	<polygon class="st56" points="70.6,16.8 76.1,7.2 86.9,7 92.3,16.4 86.9,26 76,26.2 	"/>
	<polygon class="st57" points="70.6,18.6 76.1,9 86.9,8.8 92.3,18.2 86.9,27.8 76.1,28 	"/>
	<polygon class="st58" points="70.7,20.4 76,10.8 86.9,10.5 92.3,19.9 87,29.5 76.1,29.7 	"/>
	<polygon class="st59" points="70.7,22.1 76,12.5 86.9,12.3 92.3,21.6 87,31.2 76.2,31.5 	"/>
	<polygon class="st60" points="70.7,23.9 76,14.3 86.8,14 92.3,23.4 87,32.9 76.2,33.2 	"/>
	<polygon class="st61" points="70.7,25.7 76,16.1 86.8,15.8 92.3,25.1 87,34.7 76.2,35 	"/>
	<polygon class="st62" points="70.7,27.5 76,17.9 86.8,17.5 92.3,26.8 87,36.4 76.3,36.7 	"/>
	<polygon class="st63" points="70.8,29.2 76,19.6 86.8,19.3 92.3,28.5 87.1,38.1 76.3,38.5 	"/>
	<polygon class="st64" points="70.8,31 76,21.4 86.8,21 92.3,30.3 87.1,39.9 76.3,40.2 	"/>
	<polygon class="st65" points="70.8,32.8 76,23.2 86.8,22.8 92.3,32 87.1,41.6 76.4,42 	"/>
	<polygon class="st66" points="70.8,34.5 76,25 86.7,24.6 92.3,33.7 87.1,43.3 76.4,43.7 	"/>
	<polygon class="st67" points="70.8,36.3 76,26.7 86.7,26.3 92.3,35.5 87.2,45 76.4,45.5 	"/>
	<polygon class="st68" points="70.9,38.1 76,28.5 86.7,28.1 92.3,37.2 87.2,46.8 76.5,47.2 	"/>
	<polygon class="st69" points="70.9,39.9 76,30.3 86.7,29.8 92.3,38.9 87.2,48.5 76.5,49 	"/>
	<polygon class="st70" points="70.9,41.6 76,32 86.7,31.6 92.3,40.7 87.2,50.2 76.5,50.7 	"/>
	<polygon class="st71" points="70.9,43.4 76,33.8 86.6,33.3 92.3,42.4 87.2,52 76.6,52.5 	"/>
	<polygon class="st72" points="70.9,45.2 76,35.6 86.6,35.1 92.3,44.1 87.3,53.7 76.6,54.2 	"/>
	<polygon class="st73" points="71,46.9 75.9,37.4 86.6,36.8 92.3,45.8 87.3,55.4 76.6,56 	"/>
	<polygon class="st74" points="71,48.7 75.9,39.1 86.6,38.6 92.3,47.6 87.3,57.1 76.7,57.7 	"/>
	<polygon class="st75" points="71,50.5 75.9,40.9 86.6,40.3 92.3,49.3 87.3,58.9 76.7,59.5 	"/>
	<polygon class="st76" points="71,52.3 75.9,42.7 86.5,42.1 92.3,51 87.4,60.6 76.7,61.2 	"/>
	<polygon class="st77" points="71.1,54 75.9,44.5 86.5,43.8 92.3,52.8 87.4,62.3 76.8,63 	"/>
	<polygon class="st78" points="71.1,55.8 75.9,46.2 86.5,45.6 92.3,54.5 87.4,64.1 76.8,64.7 	"/>
	<polygon class="st79" points="71.1,57.6 75.9,48 86.5,47.3 92.3,56.2 87.4,65.8 76.9,66.5 	"/>
	<polygon class="st80" points="71.1,59.4 75.9,49.8 86.5,49.1 92.2,57.9 87.5,67.5 76.9,68.2 	"/>
	<polygon class="st81" points="71.1,61.1 75.9,51.6 86.5,50.8 92.2,59.7 87.5,69.2 76.9,70 	"/>
	<polygon class="st82" points="71.2,62.9 75.9,53.3 86.4,52.6 92.2,61.4 87.5,71 77,71.7 	"/>
	<polygon class="st83" points="71.2,64.7 75.9,55.1 86.4,54.3 92.2,63.1 87.5,72.7 77,73.5 	"/>
	<polygon class="st84" points="71.2,66.4 75.9,56.9 86.4,56.1 92.2,64.9 87.5,74.4 77,75.2 	"/>
	<polygon class="st85" points="71.2,68.2 75.9,58.6 86.4,57.8 92.2,66.6 87.6,76.2 77.1,77 	"/>
	<polygon class="st86" points="71.2,70 75.9,60.4 86.4,59.6 92.2,68.3 87.6,77.9 77.1,78.7 	"/>
	<polygon class="st87" points="71.3,71.8 75.9,62.2 86.3,61.3 92.2,70 87.6,79.6 77.1,80.5 	"/>
	<polygon class="st88" points="71.3,73.5 75.9,64 86.3,63.1 92.2,71.8 87.6,81.3 77.2,82.2 	"/>
	<polygon class="st89" points="71.3,75.3 75.8,65.7 86.3,64.8 92.2,73.5 87.7,83.1 77.2,84 	"/>
	<polygon class="st90" points="71.3,77.1 75.8,67.5 86.3,66.6 92.2,75.2 87.7,84.8 77.2,85.7 	"/>
	<polygon class="st91" points="71.3,78.8 75.8,69.3 86.3,68.3 92.2,77 87.7,86.5 77.3,87.5 	"/>
	<polygon class="st92" points="71.4,80.6 75.8,71.1 86.2,70.1 92.2,78.7 87.7,88.3 77.3,89.2 	"/>
	<polygon class="st93" points="71.4,82.4 75.8,72.8 86.2,71.8 92.2,80.4 87.8,90 77.3,91 	"/>
	<polygon class="st94" points="71.4,84.2 75.8,74.6 86.2,73.6 92.2,82.2 87.8,91.7 77.4,92.7 	"/>
	<polygon class="st95" points="71.4,85.9 75.8,76.4 86.2,75.4 92.2,83.9 87.8,93.4 77.4,94.5 	"/>
	<polygon class="st96" points="71.4,87.7 75.8,78.1 86.2,77.1 92.2,85.6 87.8,95.2 77.4,96.2 	"/>
	<polygon class="st97" points="71.5,89.5 75.8,79.9 86.2,78.9 92.2,87.3 87.8,96.9 77.5,98 	"/>
	<polygon class="st98" points="71.5,91.2 75.8,81.7 86.1,80.6 92.2,89.1 87.9,98.6 77.5,99.7 	"/>
	<polygon class="st99" points="71.5,93 75.8,83.5 86.1,82.4 92.2,90.8 87.9,100.4 77.5,101.5 	"/>
	<polygon class="st100" points="71.5,94.8 75.8,85.2 86.1,84.1 92.2,92.5 87.9,102.1 77.6,103.2 	"/>
	<polygon class="st101" points="71.5,96.6 75.8,87 86.1,85.9 92.2,94.3 87.9,103.8 77.6,105 	"/>
	<polygon class="st102" points="71.6,98.3 75.8,88.8 86.1,87.6 92.2,96 88,105.5 77.7,106.7 	"/>
	<polygon class="st103" points="71.6,100.1 75.8,90.6 86,89.4 92.2,97.7 88,107.3 77.7,108.5 	"/>
	<polygon class="st104" points="71.6,101.9 75.7,92.3 86,91.1 92.2,99.4 88,109 77.7,110.2 	"/>
	<polygon class="st105" points="71.6,103.7 75.7,94.1 86,92.9 92.1,101.2 88,110.7 77.8,112 	"/>
	<polygon class="st106" points="71.6,105.4 75.7,95.9 86,94.6 92.1,102.9 88,112.5 77.8,113.7 	"/>
	<polygon class="st107" points="71.7,107.2 75.7,97.7 86,96.4 92.1,104.6 88.1,114.2 77.8,115.5 	"/>
	<polygon class="st108" points="71.7,109 75.7,99.4 85.9,98.1 92.1,106.4 88.1,115.9 77.9,117.2 	"/>
	<polygon class="st109" points="71.7,110.7 75.7,101.2 85.9,99.9 92.1,108.1 88.1,117.6 77.9,119 	"/>
	<polygon class="st110" points="71.7,112.5 75.7,103 85.9,101.6 92.1,109.8 88.1,119.4 77.9,120.7 	"/>
	<polygon class="st111" points="71.7,114.3 75.7,104.7 85.9,103.4 92.1,111.6 88.2,121.1 78,122.5 	"/>
	<polygon class="st112" points="71.8,116.1 75.7,106.5 85.9,105.1 92.1,113.3 88.2,122.8 78,124.2 	"/>
	<polygon class="st113" points="71.8,117.8 75.7,108.3 85.9,106.9 92.1,115 88.2,124.6 78,126 	"/>
	<polygon class="st114" points="71.8,119.6 75.7,110.1 85.8,108.6 92.1,116.7 88.2,126.3 78.1,127.7 	"/>
	<polygon class="st115" points="71.8,121.4 75.7,111.8 85.8,110.4 92.1,118.5 88.3,128 78.1,129.5 	"/>
	<polygon class="st116" points="71.8,123.1 75.7,113.6 85.8,112.1 92.1,120.2 88.3,129.7 78.1,131.2 	"/>
	<polygon class="st117" points="71.9,124.9 75.7,115.4 85.8,113.9 92.1,121.9 88.3,131.5 78.2,133 	"/>
	<polygon class="st118" points="71.9,126.7 75.7,117.2 85.8,115.6 92.1,123.7 88.3,133.2 78.2,134.7 	"/>
	<polygon class="st119" points="71.9,128.5 75.6,118.9 85.7,117.4 92.1,125.4 88.3,134.9 78.2,136.5 	"/>
	<polygon class="st120" points="71.9,130.2 75.6,120.7 85.7,119.1 92.1,127.1 88.4,136.6 78.3,138.2 	"/>
	<polygon class="st121" points="71.9,132 75.6,122.5 85.7,120.9 92.1,128.8 88.4,138.4 78.3,140 	"/>
	<polygon class="st122" points="72,133.8 75.6,124.3 85.7,122.6 92.1,130.6 88.4,140.1 78.4,141.7 	"/>
	<polygon class="st123" points="72,135.6 75.6,126 85.7,124.4 92.1,132.3 88.4,141.8 78.4,143.5 	"/>
	<polygon class="st124" points="72,137.3 75.6,127.8 85.7,126.2 92.1,134 88.5,143.6 78.4,145.2 	"/>
	<polygon class="st125" points="72,139.1 75.6,129.6 85.6,127.9 92.1,135.8 88.5,145.3 78.5,147 	"/>
	<polygon class="st126" points="72,140.9 75.6,131.3 85.6,129.7 92.1,137.5 88.5,147 78.5,148.7 	"/>
	<polygon class="st127" points="72.1,142.6 75.6,133.1 85.6,131.4 92.1,139.2 88.5,148.7 78.5,150.5 	"/>
	<polygon class="st128" points="72.1,144.4 75.6,134.9 85.6,133.2 92.1,141 88.6,150.5 78.6,152.2 	"/>
	<polygon class="st129" points="72.1,146.2 75.6,136.7 85.6,134.9 92.1,142.7 88.6,152.2 78.6,154 	"/>
	<polygon class="st130" points="72.1,148 75.6,138.4 85.5,136.7 92.1,144.4 88.6,153.9 78.6,155.7 	"/>
	<polygon class="st131" points="72.1,149.7 75.6,140.2 85.5,138.4 92,146.1 88.6,155.7 78.7,157.5 	"/>
	<polygon class="st132" points="72.2,151.5 75.6,142 85.5,140.2 92,147.9 88.6,157.4 78.7,159.2 	"/>
	<polygon class="st133" points="72.2,153.3 75.6,143.8 85.5,141.9 92,149.6 88.7,159.1 78.7,161 	"/>
</g>
</svg>
