<?xml version="1.0" encoding="utf-8"?>
<!-- Generator: Adobe Illustrator 25.2.3, SVG Export Plug-In . SVG Version: 6.00 Build 0)  -->
<svg version="1.1" id="Layer_1" xmlns="http://www.w3.org/2000/svg" xmlns:xlink="http://www.w3.org/1999/xlink" x="0px" y="0px"
	 viewBox="0 0 65.1 65.1" style="enable-background:new 0 0 65.1 65.1;" xml:space="preserve">
<style type="text/css">
	.st0{fill:none;stroke:#EE7345;stroke-width:3;stroke-linecap:round;stroke-miterlimit:10;}
</style>
<path class="st0" d="M1.3,46.1c0,0,6.2,2,8.4-4.4S6,30.6,5.2,26.3s2.3-7.9,7.5-7.5s7.9,2.2,6.6,8.5s-5,11.4-3.2,14.7
	c1.7,3.4,5.6,4.5,7.8,4.1"/>
<path class="st0" d="M20.7,45.9c0,0,6.2,2,8.4-4.4S25.5,30.4,24.6,26c-0.9-4.3,2.3-7.9,7.5-7.5s7.9,2.2,6.6,8.5s-5,11.4-3.2,14.7
	c1.7,3.4,5.6,4.5,7.8,4.1"/>
<path class="st0" d="M41,45.7c0,0,6.2,2,8.4-4.4c2.2-6.3-3.6-11.2-4.5-15.5s2.3-7.9,7.5-7.5s7.9,2.2,6.6,8.5s-5,11.4-3.2,14.7
	s5.5,5.3,7.7,5"/>
<path class="st0" d="M1.3,29.4c0,0,6.2,2,8.4-4.4S6,13.9,5.2,9.6s2.3-8,7.5-7.6s7.9,2.2,6.6,8.5s-5,11.4-3.2,14.7s5.6,4.5,7.8,4.1"
	/>
<path class="st0" d="M20.7,29.2c0,0,6.2,2,8.4-4.4s-3.6-11.2-4.5-15.5s2.3-7.9,7.5-7.5S40,4,38.7,10.3s-5,11.4-3.2,14.7
	c1.7,3.4,5.6,4.5,7.8,4.1"/>
<path class="st0" d="M41,28.9c0,0,6.2,2,8.4-4.4c2.2-6.3-3.6-11.2-4.5-15.5s2.3-7.9,7.5-7.5S60.3,3.7,59,10s-5,11.4-3.2,14.7
	s5.7,5.4,7.9,5"/>
<path class="st0" d="M1.3,63.7c0,0,6.2,2,8.4-4.4S6,48.1,5.2,43.8s2.3-7.9,7.5-7.5s7.9,2.2,6.6,8.5s-5,11.4-3.2,14.7
	s5.6,4.5,7.8,4.1"/>
<path class="st0" d="M20.7,63.4c0,0,6.2,2,8.4-4.4s-3.6-11.2-4.5-15.5s2.3-7.9,7.5-7.5s7.9,2.2,6.6,8.5s-5,11.4-3.2,14.7
	c1.7,3.4,5.6,4.5,7.8,4.1"/>
<path class="st0" d="M41,63.2c0,0,6.2,2,8.4-4.4c2.2-6.3-3.6-11.2-4.5-15.5s2.3-7.9,7.5-7.5s7.9,2.2,6.6,8.5S54,55.7,55.8,59
	c1.7,3.4,5.6,4.5,7.8,4.1"/>
</svg>
