<?xml version="1.0" encoding="utf-8"?>
<!-- Generator: Adobe Illustrator 25.2.3, SVG Export Plug-In . SVG Version: 6.00 Build 0)  -->
<svg version="1.1" id="Layer_1" xmlns="http://www.w3.org/2000/svg" xmlns:xlink="http://www.w3.org/1999/xlink" x="0px" y="0px"
	 viewBox="0 0 350 311.3" style="enable-background:new 0 0 350 311.3;" xml:space="preserve">
<style type="text/css">
	.st0{fill:#B79797;}
	.st1{fill:#CCB9B9;stroke:#FFFFFF;stroke-width:0.5035;stroke-linejoin:bevel;stroke-miterlimit:10;}
	.st2{fill:#CCB9B9;stroke:#FFFFFF;stroke-width:0.525;stroke-linejoin:bevel;stroke-miterlimit:10;}
	.st3{fill:#CCB9B9;stroke:#FFFFFF;stroke-width:0.525;stroke-miterlimit:10;}
	.st4{fill:#E4DAD8;stroke:#FFFFFF;stroke-width:0.525;stroke-miterlimit:10;}
	.st5{fill:#E4DAD8;stroke:#FFFFFF;stroke-width:0.525;stroke-linejoin:bevel;stroke-miterlimit:10;}
	.st6{fill:#CCB9B9;}
	.st7{fill:#E4DAD8;}
	.st8{fill:#543C52;}
	.st9{fill:none;stroke:#543C52;stroke-width:0.525;stroke-linecap:round;stroke-miterlimit:10;}
	.st10{fill:#B79797;stroke:#FFFFFF;stroke-width:0.525;stroke-miterlimit:10;}
	.st11{fill:#F77441;stroke:#F7F3F2;stroke-width:0.525;stroke-miterlimit:10;}
	.st12{fill:none;stroke:#FFFFFF;stroke-width:0.525;stroke-miterlimit:10;}
	.st13{fill:none;stroke:#FFFFFF;stroke-width:0.5209;stroke-miterlimit:10;}
	.st14{fill:#F77441;stroke:#FFFFFF;stroke-width:0.5209;stroke-miterlimit:10;}
	.st15{fill:#DC3359;stroke:#FFFFFF;stroke-width:0.525;stroke-miterlimit:10;}
	.st16{fill:#361D32;stroke:#FFFFFF;stroke-width:0.525;stroke-linejoin:bevel;stroke-miterlimit:10;}
	.st17{fill:none;stroke:#B71148;stroke-width:3.0209;stroke-linecap:round;stroke-miterlimit:10;}
	.st18{fill:#B71148;}
	.st19{fill:#CCB9B9;stroke:#FFFFFF;stroke-width:0.8303;stroke-miterlimit:10;}
	.st20{fill:#F77441;stroke:#FFFFFF;stroke-width:0.525;stroke-miterlimit:10;}
	.st21{fill:#361D32;stroke:#FFFFFF;stroke-width:0.2253;stroke-miterlimit:10;}
	.st22{fill:none;stroke:#361D32;stroke-width:0.1467;stroke-miterlimit:10;}
	.st23{fill:#361D32;stroke:#FFFFFF;stroke-width:0.2625;stroke-miterlimit:10;}
	.st24{fill:#E4DAD8;stroke:#FFFFFF;stroke-width:0.2625;stroke-miterlimit:10;}
	.st25{fill:none;stroke:#FFFFFF;stroke-width:0.9394;stroke-miterlimit:10;}
	.st26{fill:#E4DAD8;stroke:#FFFFFF;stroke-width:0.1619;stroke-miterlimit:10;}
	.st27{fill:#E4DAD8;stroke:#FFFFFF;stroke-width:0.1291;stroke-miterlimit:10;}
</style>
<g>
	<g>
		<path class="st0" d="M209.2,74.1c0,0-0.7,2,0.7,1.6c1.4-0.4,3.8-1.7,2.1-1.9C210.3,73.7,209.2,74.1,209.2,74.1"/>
		<path class="st0" d="M212.2,67.9c0,0-0.6,2.1,0.8,1.6c1.4-0.5,3.7-1.9,2-2C213.3,67.5,212.2,67.9,212.2,67.9"/>
		<path class="st0" d="M209.7,70.5c0,0-0.5,2.1,0.8,1.6c1.3-0.5,3.7-2,1.9-2C210.8,70.1,209.7,70.5,209.7,70.5"/>
		<path class="st0" d="M214.6,73.1c0,0-0.6,2.1,0.8,1.6c1.4-0.4,3.7-1.9,2-1.9C215.7,72.7,214.6,73.1,214.6,73.1"/>
		<path class="st0" d="M217.1,69.9c0,0-0.6,2.1,0.8,1.6c1.4-0.5,3.7-1.9,2-2C218.2,69.5,217.1,69.9,217.1,69.9"/>
		<path class="st0" d="M215.4,78.1c0,0-0.5,2.1,0.8,1.6c1.3-0.5,3.6-2.1,1.9-2.1C216.5,77.6,215.4,78.1,215.4,78.1"/>
		<path class="st0" d="M218.5,66c0,0-0.8,2,0.6,1.7c1.4-0.3,3.9-1.6,2.2-1.8C219.6,65.7,218.5,66,218.5,66"/>
		<path class="st0" d="M221.8,72.2c0,0-0.5,2.1,0.8,1.6c1.3-0.5,3.6-2.1,1.9-2.1C222.9,71.7,221.8,72.2,221.8,72.2"/>
		<path class="st0" d="M223.7,66c0,0-0.6,2.1,0.8,1.6s3.7-1.9,2-2C224.8,65.6,223.7,66,223.7,66"/>
		<path class="st0" d="M234.5,73c0,0,0,2.2,1.2,1.4c1.2-0.8,3.1-2.9,1.4-2.5C235.4,72.3,234.5,73,234.5,73"/>
		<path class="st0" d="M230.9,70.2c0,0-0.5,2.1,0.8,1.6c1.3-0.5,3.6-2.1,1.9-2.1C231.9,69.7,230.9,70.2,230.9,70.2"/>
		<path class="st0" d="M229.4,65.5c0,0-0.8,2,0.6,1.7c1.4-0.3,3.9-1.5,2.2-1.8C230.5,65.2,229.4,65.5,229.4,65.5"/>
		<path class="st0" d="M227.5,60.5c0,0-0.8,2,0.6,1.7c1.4-0.3,3.9-1.6,2.2-1.8C228.6,60.2,227.5,60.5,227.5,60.5"/>
		<path class="st0" d="M233.2,63.1c0,0-0.5,2.1,0.8,1.6c1.3-0.5,3.7-2,1.9-2C234.3,62.6,233.2,63.1,233.2,63.1"/>
		<path class="st0" d="M233.7,79.3c0,0,0.3,2.3,1.4,1.3c1.2-1,2.9-3.4,1.2-2.7C234.6,78.4,233.7,79.3,233.7,79.3"/>
		<path class="st0" d="M225.7,70.5c0,0-0.5,2.1,0.8,1.6c1.3-0.5,3.6-2.1,1.9-2.1C226.8,70,225.7,70.5,225.7,70.5"/>
		<path class="st0" d="M226.8,75.9c0,0-0.5,2.1,0.8,1.6c1.3-0.5,3.6-2.1,1.9-2C227.8,75.4,226.8,75.9,226.8,75.9"/>
		<path class="st0" d="M221.1,82.3c0,0-1,1.9,0.5,1.7c1.4-0.2,4-1.2,2.3-1.6C222.3,82.1,221.1,82.3,221.1,82.3"/>
		<path class="st0" d="M227.8,85.5c0,0-0.5,2.2,0.9,1.6c1.4-0.6,3.7-2.2,1.9-2.1C228.9,85,227.8,85.5,227.8,85.5"/>
		<path class="st0" d="M222.3,94.5c0,0-0.1,3.1,1.6,2c1.7-1.1,4.5-3.9,2.1-3.4C223.7,93.5,222.3,94.5,222.3,94.5"/>
		<path class="st0" d="M218.1,89.9c0,0-0.5,2.1,0.9,1.6c1.4-0.5,3.7-2.1,2-2.1C219.2,89.4,218.1,89.9,218.1,89.9"/>
		<path class="st0" d="M214.5,89.6c0,0-0.9,1.9,0.5,1.7s4-1.3,2.3-1.6C215.7,89.3,214.5,89.6,214.5,89.6"/>
		<path class="st0" d="M207.1,91c0,0-0.5,2.1,0.8,1.6c1.3-0.5,3.6-2.1,1.9-2.1C208.2,90.6,207.1,91,207.1,91"/>
		<path class="st0" d="M218.3,99.3c0,0-0.1,3.2,1.7,2.1c1.8-1.1,4.8-4.1,2.3-3.6C219.8,98.3,218.3,99.3,218.3,99.3"/>
		<path class="st0" d="M216.2,100.9c1.2-1.4,2.9-4.4,1-3.4c-1.9,1-2.9,2.2-2.9,2.2"/>
		<path class="st0" d="M229.2,91.6c0,0-1.5,1.6-0.1,1.8c1.5,0.2,4.3,0,2.8-0.8C230.4,91.7,229.2,91.6,229.2,91.6"/>
		<path class="st0" d="M225.6,97.4c0,0-0.9,2.4,0.8,1.9c1.6-0.4,4.5-1.9,2.5-2.1C226.9,97,225.6,97.4,225.6,97.4"/>
		<path class="st0" d="M206.6,86.2c0,0-0.5,2.1,0.8,1.6c1.3-0.5,3.6-2.1,1.9-2.1C207.6,85.7,206.6,86.2,206.6,86.2"/>
		<path class="st0" d="M201.8,83.1c0,0-0.9,2,0.5,1.7c1.4-0.3,4-1.4,2.3-1.7C202.9,82.8,201.8,83.1,201.8,83.1"/>
		<path class="st0" d="M240.1,57c0,0-2.6-1-1-1.7c1.6-0.7,5.1-1.6,3.7-0.2C241.4,56.4,240.1,57,240.1,57"/>
	</g>
	<g>
		<line class="st1" x1="105.7" y1="283.1" x2="105.6" y2="299.1"/>
		<polygon class="st2" points="175.8,156.9 234.9,186.9 234.6,141.3 175.7,111.5 		"/>
		<polygon class="st3" points="22.6,235.7 106.3,278.2 248.4,206.7 248.7,190.2 169.6,154 22.7,228 		"/>
		<polygon class="st3" points="22.7,237.1 22.9,221 106.5,262 106.2,278.2 		"/>
		<polygon class="st3" points="5,241 5,254.4 106.8,305.8 278.6,219.3 278.3,205.6 106.7,291 		"/>
		<path class="st4" d="M23.1,220.9c0,0,83.4,41,83.4,41l142-71.7l-83.9-40.5L23.1,220.9z"/>
		<polygon class="st4" points="106.1,291 278.7,205.6 176.6,156.1 5.4,240 		"/>
		<polygon class="st3" points="22.6,235.7 106.1,278.9 251.3,205 251.6,188.5 169.6,154 22.7,228 		"/>
		<polygon class="st2" points="22.7,237.1 22.9,221 106.1,263 106,279 		"/>
		<polygon class="st2" points="5.6,240.1 5.5,256.1 106.1,306.6 279.1,218.9 278.9,205.2 106.1,291 		"/>
		<path class="st5" d="M23.1,220.9c0,0,82.9,41.9,82.9,41.9l146.3-74.8l-83.9-40.5L23.1,220.9z"/>
		<g>
			<polygon class="st3" points="52.6,219.8 178,156.4 177.8,111.7 49.9,178.3 			"/>
		</g>
		<g>
			<g>
				<ellipse class="st6" cx="228.7" cy="156.1" rx="0.8" ry="0.3"/>
				<path class="st6" d="M227.9,155.3c0,0,0,0.8,0,0.9c0,0.1,1,0.4,1.5,0l0-0.9H227.9z"/>
				<ellipse class="st7" cx="228.7" cy="155.3" rx="0.8" ry="0.3"/>
			</g>
			<g>
				<ellipse class="st6" cx="227.2" cy="156.8" rx="0.8" ry="0.3"/>
				<path class="st6" d="M226.4,156c0,0,0,0.8,0,0.9c0,0.1,1,0.4,1.5,0l0-0.9H226.4z"/>
				<ellipse class="st7" cx="227.2" cy="156" rx="0.8" ry="0.3"/>
			</g>
			<g>
				<ellipse class="st6" cx="225.7" cy="157.6" rx="0.8" ry="0.3"/>
				<path class="st6" d="M224.9,156.7c0,0,0,0.8,0,0.9s1,0.4,1.5,0l0-0.9H224.9z"/>
				<ellipse class="st7" cx="225.7" cy="156.8" rx="0.8" ry="0.3"/>
			</g>
			<g>
				<ellipse class="st6" cx="224.2" cy="158.3" rx="0.8" ry="0.3"/>
				<path class="st6" d="M223.4,157.5c0,0,0,0.8,0,0.9c0,0.1,1,0.4,1.5,0l0-0.9H223.4z"/>
				<ellipse class="st7" cx="224.2" cy="157.5" rx="0.8" ry="0.3"/>
			</g>
			<g>
				<ellipse class="st6" cx="222.7" cy="159" rx="0.8" ry="0.3"/>
				<path class="st6" d="M221.9,158.2c0,0,0,0.8,0,0.9c0,0.1,1,0.4,1.5,0l0-0.9H221.9z"/>
				<ellipse class="st7" cx="222.7" cy="158.3" rx="0.8" ry="0.3"/>
			</g>
			<g>
				<ellipse class="st6" cx="221.1" cy="159.8" rx="0.8" ry="0.3"/>
				<path class="st6" d="M220.4,159c0,0,0,0.8,0,0.9c0,0.1,1,0.4,1.5,0l0-0.9H220.4z"/>
				<ellipse class="st7" cx="221.1" cy="159" rx="0.8" ry="0.3"/>
			</g>
			<g>
				<ellipse class="st6" cx="219.6" cy="160.5" rx="0.8" ry="0.3"/>
				<path class="st6" d="M218.9,159.7c0,0,0,0.8,0,0.9c0,0.1,1,0.4,1.5,0l0-0.9H218.9z"/>
				<ellipse class="st7" cx="219.6" cy="159.8" rx="0.8" ry="0.3"/>
			</g>
			<g>
				<ellipse class="st6" cx="218.1" cy="161.3" rx="0.8" ry="0.3"/>
				<path class="st6" d="M217.4,160.5c0,0,0,0.8,0,0.9c0,0.1,1,0.4,1.5,0l0-0.9H217.4z"/>
				<ellipse class="st7" cx="218.1" cy="160.5" rx="0.8" ry="0.3"/>
			</g>
			<g>
				<ellipse class="st6" cx="216.6" cy="162" rx="0.8" ry="0.3"/>
				<path class="st6" d="M215.8,161.2c0,0,0,0.8,0,0.9c0,0.1,1,0.4,1.5,0l0-0.9H215.8z"/>
				<ellipse class="st7" cx="216.6" cy="161.3" rx="0.8" ry="0.3"/>
			</g>
			<g>
				<ellipse class="st6" cx="215.1" cy="162.8" rx="0.8" ry="0.3"/>
				<path class="st6" d="M214.3,162c0,0,0,0.8,0,0.9c0,0.1,1,0.4,1.5,0l0-0.9H214.3z"/>
				<ellipse class="st7" cx="215.1" cy="162" rx="0.8" ry="0.3"/>
			</g>
			<g>
				<ellipse class="st6" cx="213.6" cy="163.5" rx="0.8" ry="0.3"/>
				<path class="st6" d="M212.8,162.7c0,0,0,0.8,0,0.9c0,0.1,1,0.4,1.5,0l0-0.9H212.8z"/>
				<ellipse class="st7" cx="213.6" cy="162.8" rx="0.8" ry="0.3"/>
			</g>
			<g>
				<ellipse class="st6" cx="212.1" cy="164.3" rx="0.8" ry="0.3"/>
				<path class="st6" d="M211.3,163.5c0,0,0,0.8,0,0.9c0,0.1,1,0.4,1.5,0l0-0.9H211.3z"/>
				<ellipse class="st7" cx="212.1" cy="163.5" rx="0.8" ry="0.3"/>
			</g>
			<g>
				<ellipse class="st6" cx="210.6" cy="165" rx="0.8" ry="0.3"/>
				<path class="st6" d="M209.8,164.2c0,0,0,0.8,0,0.9c0,0.1,1,0.4,1.5,0l0-0.9H209.8z"/>
				<ellipse class="st7" cx="210.6" cy="164.3" rx="0.8" ry="0.3"/>
			</g>
			<g>
				<ellipse class="st6" cx="209" cy="165.8" rx="0.8" ry="0.3"/>
				<path class="st6" d="M208.3,165c0,0,0,0.8,0,0.9s1,0.4,1.5,0l0-0.9H208.3z"/>
				<ellipse class="st7" cx="209" cy="165" rx="0.8" ry="0.3"/>
			</g>
			<g>
				<ellipse class="st6" cx="207.5" cy="166.5" rx="0.8" ry="0.3"/>
				<path class="st6" d="M206.8,165.7c0,0,0,0.8,0,0.9c0,0.1,1,0.4,1.5,0l0-0.9H206.8z"/>
				<ellipse class="st7" cx="207.5" cy="165.8" rx="0.8" ry="0.3"/>
			</g>
			<g>
				<ellipse class="st6" cx="206" cy="167.3" rx="0.8" ry="0.3"/>
				<path class="st6" d="M205.3,166.5c0,0,0,0.8,0,0.9c0,0.1,1,0.4,1.5,0l0-0.9H205.3z"/>
				<ellipse class="st7" cx="206" cy="166.5" rx="0.8" ry="0.3"/>
			</g>
			<g>
				<ellipse class="st6" cx="204.5" cy="168" rx="0.8" ry="0.3"/>
				<path class="st6" d="M203.8,167.2c0,0,0,0.8,0,0.9c0,0.1,1,0.4,1.5,0l0-0.9H203.8z"/>
				<ellipse class="st7" cx="204.5" cy="167.2" rx="0.8" ry="0.3"/>
			</g>
			<g>
				<ellipse class="st6" cx="203" cy="168.8" rx="0.8" ry="0.3"/>
				<path class="st6" d="M202.2,167.9c0,0,0,0.8,0,0.9c0,0.1,1,0.4,1.5,0l0-0.9H202.2z"/>
				<ellipse class="st7" cx="203" cy="168" rx="0.8" ry="0.3"/>
			</g>
			<g>
				<ellipse class="st6" cx="201.5" cy="169.5" rx="0.8" ry="0.3"/>
				<path class="st6" d="M200.7,168.7c0,0,0,0.8,0,0.9c0,0.1,1,0.4,1.5,0l0-0.9H200.7z"/>
				<ellipse class="st7" cx="201.5" cy="168.7" rx="0.8" ry="0.3"/>
			</g>
			<g>
				<ellipse class="st6" cx="200" cy="170.2" rx="0.8" ry="0.3"/>
				<path class="st6" d="M199.2,169.4c0,0,0,0.8,0,0.9s1,0.4,1.5,0l0-0.9H199.2z"/>
				<ellipse class="st7" cx="200" cy="169.5" rx="0.8" ry="0.3"/>
			</g>
			<g>
				<ellipse class="st6" cx="198.5" cy="171" rx="0.8" ry="0.3"/>
				<path class="st6" d="M197.7,170.2c0,0,0,0.8,0,0.9c0,0.1,1,0.4,1.5,0l0-0.9H197.7z"/>
				<ellipse class="st7" cx="198.5" cy="170.2" rx="0.8" ry="0.3"/>
			</g>
			<g>
				<ellipse class="st6" cx="196.9" cy="171.7" rx="0.8" ry="0.3"/>
				<path class="st6" d="M196.2,170.9c0,0,0,0.8,0,0.9c0,0.1,1,0.4,1.5,0l0-0.9H196.2z"/>
				<ellipse class="st7" cx="196.9" cy="171" rx="0.8" ry="0.3"/>
			</g>
			<g>
				<ellipse class="st6" cx="195.4" cy="172.5" rx="0.8" ry="0.3"/>
				<path class="st6" d="M194.7,171.7c0,0,0,0.8,0,0.9c0,0.1,1,0.4,1.5,0l0-0.9H194.7z"/>
				<ellipse class="st7" cx="195.4" cy="171.7" rx="0.8" ry="0.3"/>
			</g>
			<g>
				<ellipse class="st6" cx="193.9" cy="173.2" rx="0.8" ry="0.3"/>
				<path class="st6" d="M193.2,172.4c0,0,0,0.8,0,0.9c0,0.1,1,0.4,1.5,0l0-0.9H193.2z"/>
				<ellipse class="st7" cx="193.9" cy="172.5" rx="0.8" ry="0.3"/>
			</g>
			<g>
				<ellipse class="st6" cx="192.4" cy="174" rx="0.8" ry="0.3"/>
				<path class="st6" d="M191.7,173.2c0,0,0,0.8,0,0.9s1,0.4,1.5,0l0-0.9H191.7z"/>
				<ellipse class="st7" cx="192.4" cy="173.2" rx="0.8" ry="0.3"/>
			</g>
			<g>
				<ellipse class="st6" cx="190.9" cy="174.7" rx="0.8" ry="0.3"/>
				<path class="st6" d="M190.1,173.9c0,0,0,0.8,0,0.9c0,0.1,1,0.4,1.5,0l0-0.9H190.1z"/>
				<ellipse class="st7" cx="190.9" cy="174" rx="0.8" ry="0.3"/>
			</g>
			<g>
				<ellipse class="st6" cx="189.4" cy="175.5" rx="0.8" ry="0.3"/>
				<path class="st6" d="M188.6,174.7c0,0,0,0.8,0,0.9c0,0.1,1,0.4,1.5,0l0-0.9H188.6z"/>
				<ellipse class="st7" cx="189.4" cy="174.7" rx="0.8" ry="0.3"/>
			</g>
			<g>
				<ellipse class="st6" cx="187.9" cy="176.2" rx="0.8" ry="0.3"/>
				<path class="st6" d="M187.1,175.4c0,0,0,0.8,0,0.9c0,0.1,1,0.4,1.5,0l0-0.9H187.1z"/>
				<ellipse class="st7" cx="187.9" cy="175.5" rx="0.8" ry="0.3"/>
			</g>
			<g>
				<ellipse class="st6" cx="186.4" cy="177" rx="0.8" ry="0.3"/>
				<path class="st6" d="M185.6,176.2c0,0,0,0.8,0,0.9c0,0.1,1,0.4,1.5,0l0-0.9H185.6z"/>
				<ellipse class="st7" cx="186.4" cy="176.2" rx="0.8" ry="0.3"/>
			</g>
			<g>
				<ellipse class="st6" cx="184.9" cy="177.7" rx="0.8" ry="0.3"/>
				<path class="st6" d="M184.1,176.9c0,0,0,0.8,0,0.9c0,0.1,1,0.4,1.5,0l0-0.9H184.1z"/>
				<ellipse class="st7" cx="184.9" cy="177" rx="0.8" ry="0.3"/>
			</g>
			<g>
				<ellipse class="st6" cx="183.3" cy="178.5" rx="0.8" ry="0.3"/>
				<path class="st6" d="M182.6,177.7c0,0,0,0.8,0,0.9s1,0.4,1.5,0l0-0.9H182.6z"/>
				<ellipse class="st7" cx="183.3" cy="177.7" rx="0.8" ry="0.3"/>
			</g>
			<g>
				<ellipse class="st6" cx="181.8" cy="179.2" rx="0.8" ry="0.3"/>
				<path class="st6" d="M181.1,178.4c0,0,0,0.8,0,0.9c0,0.1,1,0.4,1.5,0l0-0.9H181.1z"/>
				<ellipse class="st7" cx="181.8" cy="178.4" rx="0.8" ry="0.3"/>
			</g>
			<g>
				<ellipse class="st6" cx="180.3" cy="180" rx="0.8" ry="0.3"/>
				<path class="st6" d="M179.6,179.1c0,0,0,0.8,0,0.9c0,0.1,1,0.4,1.5,0l0-0.9H179.6z"/>
				<ellipse class="st7" cx="180.3" cy="179.2" rx="0.8" ry="0.3"/>
			</g>
			<g>
				<ellipse class="st6" cx="178.8" cy="180.7" rx="0.8" ry="0.3"/>
				<path class="st6" d="M178,179.9c0,0,0,0.8,0,0.9c0,0.1,1,0.4,1.5,0l0-0.9H178z"/>
				<ellipse class="st7" cx="178.8" cy="179.9" rx="0.8" ry="0.3"/>
			</g>
			<g>
				<ellipse class="st6" cx="177.3" cy="181.4" rx="0.8" ry="0.3"/>
				<path class="st6" d="M176.5,180.6c0,0,0,0.8,0,0.9c0,0.1,1,0.4,1.5,0l0-0.9H176.5z"/>
				<ellipse class="st7" cx="177.3" cy="180.7" rx="0.8" ry="0.3"/>
			</g>
			<g>
				<ellipse class="st6" cx="175.8" cy="182.2" rx="0.8" ry="0.3"/>
				<path class="st6" d="M175,181.4c0,0,0,0.8,0,0.9s1,0.4,1.5,0l0-0.9H175z"/>
				<ellipse class="st7" cx="175.8" cy="181.4" rx="0.8" ry="0.3"/>
			</g>
			<g>
				<ellipse class="st6" cx="174.3" cy="182.9" rx="0.8" ry="0.3"/>
				<path class="st6" d="M173.5,182.1c0,0,0,0.8,0,0.9c0,0.1,1,0.4,1.5,0l0-0.9H173.5z"/>
				<ellipse class="st7" cx="174.3" cy="182.2" rx="0.8" ry="0.3"/>
			</g>
			<g>
				<ellipse class="st6" cx="172.8" cy="183.7" rx="0.8" ry="0.3"/>
				<path class="st6" d="M172,182.9c0,0,0,0.8,0,0.9c0,0.1,1,0.4,1.5,0l0-0.9H172z"/>
				<ellipse class="st7" cx="172.8" cy="182.9" rx="0.8" ry="0.3"/>
			</g>
			<g>
				<ellipse class="st6" cx="171.2" cy="184.4" rx="0.8" ry="0.3"/>
				<path class="st6" d="M170.5,183.6c0,0,0,0.8,0,0.9c0,0.1,1,0.4,1.5,0l0-0.9H170.5z"/>
				<ellipse class="st7" cx="171.2" cy="183.7" rx="0.8" ry="0.3"/>
			</g>
			<g>
				<ellipse class="st6" cx="169.7" cy="185.2" rx="0.8" ry="0.3"/>
				<path class="st6" d="M169,184.4c0,0,0,0.8,0,0.9c0,0.1,1,0.4,1.5,0l0-0.9H169z"/>
				<ellipse class="st7" cx="169.7" cy="184.4" rx="0.8" ry="0.3"/>
			</g>
			<g>
				<ellipse class="st6" cx="168.2" cy="185.9" rx="0.8" ry="0.3"/>
				<path class="st6" d="M167.5,185.1c0,0,0,0.8,0,0.9c0,0.1,1,0.4,1.5,0l0-0.9H167.5z"/>
				<ellipse class="st7" cx="168.2" cy="185.2" rx="0.8" ry="0.3"/>
			</g>
			<g>
				<ellipse class="st6" cx="166.7" cy="186.7" rx="0.8" ry="0.3"/>
				<path class="st6" d="M165.9,185.9c0,0,0,0.8,0,0.9s1,0.4,1.5,0l0-0.9H165.9z"/>
				<ellipse class="st7" cx="166.7" cy="185.9" rx="0.8" ry="0.3"/>
			</g>
			<g>
				<ellipse class="st6" cx="165.2" cy="187.4" rx="0.8" ry="0.3"/>
				<path class="st6" d="M164.4,186.6c0,0,0,0.8,0,0.9c0,0.1,1,0.4,1.5,0l0-0.9H164.4z"/>
				<ellipse class="st7" cx="165.2" cy="186.7" rx="0.8" ry="0.3"/>
			</g>
			<g>
				<ellipse class="st6" cx="163.7" cy="188.2" rx="0.8" ry="0.3"/>
				<path class="st6" d="M162.9,187.4c0,0,0,0.8,0,0.9c0,0.1,1,0.4,1.5,0l0-0.9H162.9z"/>
				<ellipse class="st7" cx="163.7" cy="187.4" rx="0.8" ry="0.3"/>
			</g>
			<g>
				<ellipse class="st6" cx="162.2" cy="188.9" rx="0.8" ry="0.3"/>
				<path class="st6" d="M161.4,188.1c0,0,0,0.8,0,0.9c0,0.1,1,0.4,1.5,0l0-0.9H161.4z"/>
				<ellipse class="st7" cx="162.2" cy="188.1" rx="0.8" ry="0.3"/>
			</g>
			<g>
				<ellipse class="st6" cx="160.7" cy="189.7" rx="0.8" ry="0.3"/>
				<path class="st6" d="M159.9,188.9c0,0,0,0.8,0,0.9c0,0.1,1,0.4,1.5,0l0-0.9H159.9z"/>
				<ellipse class="st7" cx="160.7" cy="188.9" rx="0.8" ry="0.3"/>
			</g>
			<g>
				<ellipse class="st6" cx="159.1" cy="190.4" rx="0.8" ry="0.3"/>
				<path class="st6" d="M158.4,189.6c0,0,0,0.8,0,0.9c0,0.1,1,0.4,1.5,0l0-0.9H158.4z"/>
				<ellipse class="st7" cx="159.1" cy="189.6" rx="0.8" ry="0.3"/>
			</g>
			<g>
				<ellipse class="st6" cx="157.6" cy="191.1" rx="0.8" ry="0.3"/>
				<path class="st6" d="M156.9,190.3c0,0,0,0.8,0,0.9c0,0.1,1,0.4,1.5,0l0-0.9H156.9z"/>
				<ellipse class="st7" cx="157.6" cy="190.4" rx="0.8" ry="0.3"/>
			</g>
			<g>
				<ellipse class="st6" cx="156.1" cy="191.9" rx="0.8" ry="0.3"/>
				<path class="st6" d="M155.4,191.1c0,0,0,0.8,0,0.9c0,0.1,1,0.4,1.5,0l0-0.9H155.4z"/>
				<ellipse class="st7" cx="156.1" cy="191.1" rx="0.8" ry="0.3"/>
			</g>
			<g>
				<ellipse class="st6" cx="154.6" cy="192.6" rx="0.8" ry="0.3"/>
				<path class="st6" d="M153.9,191.8c0,0,0,0.8,0,0.9c0,0.1,1,0.4,1.5,0l0-0.9H153.9z"/>
				<ellipse class="st7" cx="154.6" cy="191.9" rx="0.8" ry="0.3"/>
			</g>
			<g>
				<ellipse class="st6" cx="153.1" cy="193.4" rx="0.8" ry="0.3"/>
				<path class="st6" d="M152.3,192.6c0,0,0,0.8,0,0.9c0,0.1,1,0.4,1.5,0l0-0.9H152.3z"/>
				<ellipse class="st7" cx="153.1" cy="192.6" rx="0.8" ry="0.3"/>
			</g>
			<g>
				<ellipse class="st6" cx="151.6" cy="194.1" rx="0.8" ry="0.3"/>
				<path class="st6" d="M150.8,193.3c0,0,0,0.8,0,0.9c0,0.1,1,0.4,1.5,0l0-0.9H150.8z"/>
				<ellipse class="st7" cx="151.6" cy="193.4" rx="0.8" ry="0.3"/>
			</g>
			<g>
				<ellipse class="st6" cx="150.1" cy="194.9" rx="0.8" ry="0.3"/>
				<path class="st6" d="M149.3,194.1c0,0,0,0.8,0,0.9s1,0.4,1.5,0l0-0.9H149.3z"/>
				<ellipse class="st7" cx="150.1" cy="194.1" rx="0.8" ry="0.3"/>
			</g>
			<g>
				<ellipse class="st6" cx="148.6" cy="195.6" rx="0.8" ry="0.3"/>
				<path class="st6" d="M147.8,194.8c0,0,0,0.8,0,0.9c0,0.1,1,0.4,1.5,0l0-0.9H147.8z"/>
				<ellipse class="st7" cx="148.6" cy="194.9" rx="0.8" ry="0.3"/>
			</g>
			<g>
				<ellipse class="st6" cx="147.1" cy="196.4" rx="0.8" ry="0.3"/>
				<path class="st6" d="M146.3,195.6c0,0,0,0.8,0,0.9c0,0.1,1,0.4,1.5,0l0-0.9H146.3z"/>
				<ellipse class="st7" cx="147" cy="195.6" rx="0.8" ry="0.3"/>
			</g>
			<g>
				<ellipse class="st6" cx="145.5" cy="197.1" rx="0.8" ry="0.3"/>
				<path class="st6" d="M144.8,196.3c0,0,0,0.8,0,0.9c0,0.1,1,0.4,1.5,0l0-0.9H144.8z"/>
				<ellipse class="st7" cx="145.5" cy="196.4" rx="0.8" ry="0.3"/>
			</g>
			<g>
				<ellipse class="st6" cx="144" cy="197.9" rx="0.8" ry="0.3"/>
				<path class="st6" d="M143.3,197.1c0,0,0,0.8,0,0.9c0,0.1,1,0.4,1.5,0l0-0.9H143.3z"/>
				<ellipse class="st7" cx="144" cy="197.1" rx="0.8" ry="0.3"/>
			</g>
			<g>
				<ellipse class="st6" cx="142.5" cy="198.6" rx="0.8" ry="0.3"/>
				<path class="st6" d="M141.8,197.8c0,0,0,0.8,0,0.9c0,0.1,1,0.4,1.5,0l0-0.9H141.8z"/>
				<ellipse class="st7" cx="142.5" cy="197.9" rx="0.8" ry="0.3"/>
			</g>
			<g>
				<ellipse class="st6" cx="141" cy="199.4" rx="0.8" ry="0.3"/>
				<path class="st6" d="M140.2,198.6c0,0,0,0.8,0,0.9s1,0.4,1.5,0l0-0.9H140.2z"/>
				<ellipse class="st7" cx="141" cy="198.6" rx="0.8" ry="0.3"/>
			</g>
			<g>
				<ellipse class="st6" cx="139.5" cy="200.1" rx="0.8" ry="0.3"/>
				<path class="st6" d="M138.7,199.3c0,0,0,0.8,0,0.9c0,0.1,1,0.4,1.5,0l0-0.9H138.7z"/>
				<ellipse class="st7" cx="139.5" cy="199.3" rx="0.8" ry="0.3"/>
			</g>
			<g>
				<ellipse class="st6" cx="138" cy="200.9" rx="0.8" ry="0.3"/>
				<path class="st6" d="M137.2,200.1c0,0,0,0.8,0,0.9c0,0.1,1,0.4,1.5,0l0-0.9H137.2z"/>
				<ellipse class="st7" cx="138" cy="200.1" rx="0.8" ry="0.3"/>
			</g>
			<g>
				<ellipse class="st6" cx="136.5" cy="201.6" rx="0.8" ry="0.3"/>
				<path class="st6" d="M135.7,200.8c0,0,0,0.8,0,0.9c0,0.1,1,0.4,1.5,0l0-0.9H135.7z"/>
				<ellipse class="st7" cx="136.5" cy="200.8" rx="0.8" ry="0.3"/>
			</g>
			<g>
				<ellipse class="st6" cx="135" cy="202.3" rx="0.8" ry="0.3"/>
				<path class="st6" d="M134.2,201.5c0,0,0,0.8,0,0.9c0,0.1,1,0.4,1.5,0l0-0.9H134.2z"/>
				<ellipse class="st7" cx="135" cy="201.6" rx="0.8" ry="0.3"/>
			</g>
			<g>
				<ellipse class="st6" cx="133.4" cy="203.1" rx="0.8" ry="0.3"/>
				<path class="st6" d="M132.7,202.3c0,0,0,0.8,0,0.9s1,0.4,1.5,0l0-0.9H132.7z"/>
				<ellipse class="st7" cx="133.4" cy="202.3" rx="0.8" ry="0.3"/>
			</g>
			<g>
				<ellipse class="st6" cx="131.9" cy="203.8" rx="0.8" ry="0.3"/>
				<path class="st6" d="M131.2,203c0,0,0,0.8,0,0.9c0,0.1,1,0.4,1.5,0l0-0.9H131.2z"/>
				<ellipse class="st7" cx="131.9" cy="203.1" rx="0.8" ry="0.3"/>
			</g>
			<g>
				<ellipse class="st6" cx="130.4" cy="204.6" rx="0.8" ry="0.3"/>
				<path class="st6" d="M129.7,203.8c0,0,0,0.8,0,0.9c0,0.1,1,0.4,1.5,0l0-0.9H129.7z"/>
				<ellipse class="st7" cx="130.4" cy="203.8" rx="0.8" ry="0.3"/>
			</g>
			<g>
				<ellipse class="st6" cx="128.9" cy="205.3" rx="0.8" ry="0.3"/>
				<path class="st6" d="M128.1,204.5c0,0,0,0.8,0,0.9c0,0.1,1,0.4,1.5,0l0-0.9H128.1z"/>
				<ellipse class="st7" cx="128.9" cy="204.6" rx="0.8" ry="0.3"/>
			</g>
			<g>
				<ellipse class="st6" cx="127.4" cy="206.1" rx="0.8" ry="0.3"/>
				<path class="st6" d="M126.6,205.3c0,0,0,0.8,0,0.9c0,0.1,1,0.4,1.5,0l0-0.9H126.6z"/>
				<ellipse class="st7" cx="127.4" cy="205.3" rx="0.8" ry="0.3"/>
			</g>
			<g>
				<ellipse class="st6" cx="125.9" cy="206.8" rx="0.8" ry="0.3"/>
				<path class="st6" d="M125.1,206c0,0,0,0.8,0,0.9c0,0.1,1,0.4,1.5,0l0-0.9H125.1z"/>
				<ellipse class="st7" cx="125.9" cy="206.1" rx="0.8" ry="0.3"/>
			</g>
			<g>
				<ellipse class="st6" cx="124.4" cy="207.6" rx="0.8" ry="0.3"/>
				<path class="st6" d="M123.6,206.8c0,0,0,0.8,0,0.9s1,0.4,1.5,0l0-0.9H123.6z"/>
				<ellipse class="st7" cx="124.4" cy="206.8" rx="0.8" ry="0.3"/>
			</g>
			<g>
				<ellipse class="st6" cx="122.9" cy="208.3" rx="0.8" ry="0.3"/>
				<path class="st6" d="M122.1,207.5c0,0,0,0.8,0,0.9c0,0.1,1,0.4,1.5,0l0-0.9H122.1z"/>
				<ellipse class="st7" cx="122.9" cy="207.6" rx="0.8" ry="0.3"/>
			</g>
			<g>
				<ellipse class="st6" cx="121.3" cy="209.1" rx="0.8" ry="0.3"/>
				<path class="st6" d="M120.6,208.3c0,0,0,0.8,0,0.9c0,0.1,1,0.4,1.5,0l0-0.9H120.6z"/>
				<ellipse class="st7" cx="121.3" cy="208.3" rx="0.8" ry="0.3"/>
			</g>
			<g>
				<ellipse class="st6" cx="119.8" cy="209.8" rx="0.8" ry="0.3"/>
				<path class="st6" d="M119.1,209c0,0,0,0.8,0,0.9c0,0.1,1,0.4,1.5,0l0-0.9H119.1z"/>
				<ellipse class="st7" cx="119.8" cy="209.1" rx="0.8" ry="0.3"/>
			</g>
			<g>
				<ellipse class="st6" cx="118.3" cy="210.6" rx="0.8" ry="0.3"/>
				<path class="st6" d="M117.6,209.8c0,0,0,0.8,0,0.9c0,0.1,1,0.4,1.5,0l0-0.9H117.6z"/>
				<ellipse class="st7" cx="118.3" cy="209.8" rx="0.8" ry="0.3"/>
			</g>
			<g>
				<ellipse class="st6" cx="116.8" cy="211.3" rx="0.8" ry="0.3"/>
				<path class="st6" d="M116.1,210.5c0,0,0,0.8,0,0.9c0,0.1,1,0.4,1.5,0l0-0.9H116.1z"/>
				<ellipse class="st7" cx="116.8" cy="210.5" rx="0.8" ry="0.3"/>
			</g>
			<g>
				<ellipse class="st6" cx="115.3" cy="212.1" rx="0.8" ry="0.3"/>
				<path class="st6" d="M114.5,211.3c0,0,0,0.8,0,0.9c0,0.1,1,0.4,1.5,0l0-0.9H114.5z"/>
				<ellipse class="st7" cx="115.3" cy="211.3" rx="0.8" ry="0.3"/>
			</g>
			<g>
				<ellipse class="st6" cx="113.8" cy="212.8" rx="0.8" ry="0.3"/>
				<path class="st6" d="M113,212c0,0,0,0.8,0,0.9c0,0.1,1,0.4,1.5,0l0-0.9H113z"/>
				<ellipse class="st7" cx="113.8" cy="212" rx="0.8" ry="0.3"/>
			</g>
			<g>
				<ellipse class="st6" cx="112.3" cy="213.5" rx="0.8" ry="0.3"/>
				<path class="st6" d="M111.5,212.7c0,0,0,0.8,0,0.9c0,0.1,1,0.4,1.5,0l0-0.9H111.5z"/>
				<ellipse class="st7" cx="112.3" cy="212.8" rx="0.8" ry="0.3"/>
			</g>
			<g>
				<ellipse class="st6" cx="110.8" cy="214.3" rx="0.8" ry="0.3"/>
				<path class="st6" d="M110,213.5c0,0,0,0.8,0,0.9c0,0.1,1,0.4,1.5,0l0-0.9H110z"/>
				<ellipse class="st7" cx="110.8" cy="213.5" rx="0.8" ry="0.3"/>
			</g>
			<g>
				<ellipse class="st6" cx="109.2" cy="215" rx="0.8" ry="0.3"/>
				<path class="st6" d="M108.5,214.2c0,0,0,0.8,0,0.9c0,0.1,1,0.4,1.5,0l0-0.9H108.5z"/>
				<ellipse class="st7" cx="109.2" cy="214.3" rx="0.8" ry="0.3"/>
			</g>
			<g>
				<ellipse class="st6" cx="107.7" cy="215.8" rx="0.8" ry="0.3"/>
				<path class="st6" d="M107,215c0,0,0,0.8,0,0.9s1,0.4,1.5,0l0-0.9H107z"/>
				<ellipse class="st7" cx="107.7" cy="215" rx="0.8" ry="0.3"/>
			</g>
			<g>
				<ellipse class="st6" cx="106.2" cy="216.5" rx="0.8" ry="0.3"/>
				<path class="st6" d="M105.5,215.7c0,0,0,0.8,0,0.9c0,0.1,1,0.4,1.5,0l0-0.9H105.5z"/>
				<ellipse class="st7" cx="106.2" cy="215.8" rx="0.8" ry="0.3"/>
			</g>
			<g>
				<ellipse class="st6" cx="104.7" cy="217.3" rx="0.8" ry="0.3"/>
				<path class="st6" d="M104,216.5c0,0,0,0.8,0,0.9c0,0.1,1,0.4,1.5,0l0-0.9H104z"/>
				<ellipse class="st7" cx="104.7" cy="216.5" rx="0.8" ry="0.3"/>
			</g>
		</g>
		<g>
			<g>
				<ellipse class="st6" cx="179.7" cy="116.1" rx="0.8" ry="0.3"/>
				<path class="st6" d="M178.9,115.3c0,0,0,0.8,0,0.9c0,0.1,1,0.4,1.5,0l0-0.9H178.9z"/>
				<ellipse class="st7" cx="179.7" cy="115.3" rx="0.8" ry="0.3"/>
			</g>
			<g>
				<ellipse class="st6" cx="181.2" cy="116.8" rx="0.8" ry="0.3"/>
				<path class="st6" d="M180.4,116c0,0,0,0.8,0,0.9s1,0.4,1.5,0l0-0.9H180.4z"/>
				<ellipse class="st7" cx="181.2" cy="116.1" rx="0.8" ry="0.3"/>
			</g>
			<g>
				<ellipse class="st6" cx="182.7" cy="117.6" rx="0.8" ry="0.3"/>
				<path class="st6" d="M181.9,116.8c0,0,0,0.8,0,0.9c0,0.1,1,0.4,1.5,0l0-0.9H181.9z"/>
				<ellipse class="st7" cx="182.7" cy="116.8" rx="0.8" ry="0.3"/>
			</g>
			<g>
				<ellipse class="st6" cx="184.2" cy="118.3" rx="0.8" ry="0.3"/>
				<path class="st6" d="M183.4,117.5c0,0,0,0.8,0,0.9s1,0.4,1.5,0l0-0.9H183.4z"/>
				<ellipse class="st7" cx="184.2" cy="117.6" rx="0.8" ry="0.3"/>
			</g>
			<g>
				<ellipse class="st6" cx="185.7" cy="119.1" rx="0.8" ry="0.3"/>
				<path class="st6" d="M184.9,118.3c0,0,0,0.8,0,0.9s1,0.4,1.5,0l0-0.9H184.9z"/>
				<ellipse class="st7" cx="185.7" cy="118.3" rx="0.8" ry="0.3"/>
			</g>
			<g>
				<ellipse class="st6" cx="187.2" cy="119.9" rx="0.8" ry="0.3"/>
				<path class="st6" d="M186.4,119.1c0,0,0,0.8,0,0.9s1,0.4,1.5,0l0-0.9H186.4z"/>
				<ellipse class="st7" cx="187.2" cy="119.1" rx="0.8" ry="0.3"/>
			</g>
			<g>
				<ellipse class="st6" cx="188.7" cy="120.6" rx="0.8" ry="0.3"/>
				<path class="st6" d="M187.9,119.8c0,0,0,0.8,0,0.9s1,0.4,1.5,0l0-0.9H187.9z"/>
				<ellipse class="st7" cx="188.7" cy="119.9" rx="0.8" ry="0.3"/>
			</g>
			<g>
				<ellipse class="st6" cx="190.2" cy="121.4" rx="0.8" ry="0.3"/>
				<path class="st6" d="M189.4,120.6c0,0,0,0.8,0,0.9c0,0.1,1,0.4,1.5,0l0-0.9H189.4z"/>
				<ellipse class="st7" cx="190.2" cy="120.6" rx="0.8" ry="0.3"/>
			</g>
			<g>
				<ellipse class="st6" cx="191.7" cy="122.2" rx="0.8" ry="0.3"/>
				<path class="st6" d="M190.9,121.3c0,0,0,0.8,0,0.9s1,0.4,1.5,0l0-0.9H190.9z"/>
				<ellipse class="st7" cx="191.7" cy="121.4" rx="0.8" ry="0.3"/>
			</g>
			<g>
				<ellipse class="st6" cx="193.2" cy="122.9" rx="0.8" ry="0.3"/>
				<path class="st6" d="M192.4,122.1c0,0,0,0.8,0,0.9s1,0.4,1.5,0l0-0.9H192.4z"/>
				<ellipse class="st7" cx="193.2" cy="122.2" rx="0.8" ry="0.3"/>
			</g>
			<g>
				<ellipse class="st6" cx="194.7" cy="123.7" rx="0.8" ry="0.3"/>
				<path class="st6" d="M193.9,122.9c0,0,0,0.8,0,0.9s1,0.4,1.5,0l0-0.9H193.9z"/>
				<ellipse class="st7" cx="194.7" cy="122.9" rx="0.8" ry="0.3"/>
			</g>
			<g>
				<ellipse class="st6" cx="196.2" cy="124.4" rx="0.8" ry="0.3"/>
				<path class="st6" d="M195.4,123.6c0,0,0,0.8,0,0.9s1,0.4,1.5,0l0-0.9H195.4z"/>
				<ellipse class="st7" cx="196.2" cy="123.7" rx="0.8" ry="0.3"/>
			</g>
			<g>
				<ellipse class="st6" cx="197.7" cy="125.2" rx="0.8" ry="0.3"/>
				<path class="st6" d="M196.9,124.4c0,0,0,0.8,0,0.9c0,0.1,1,0.4,1.5,0l0-0.9H196.9z"/>
				<ellipse class="st7" cx="197.7" cy="124.4" rx="0.8" ry="0.3"/>
			</g>
			<g>
				<ellipse class="st6" cx="199.2" cy="126" rx="0.8" ry="0.3"/>
				<path class="st6" d="M198.4,125.2c0,0,0,0.8,0,0.9s1,0.4,1.5,0l0-0.9H198.4z"/>
				<ellipse class="st7" cx="199.2" cy="125.2" rx="0.8" ry="0.3"/>
			</g>
			<g>
				<ellipse class="st6" cx="200.7" cy="126.7" rx="0.8" ry="0.3"/>
				<path class="st6" d="M199.9,125.9c0,0,0,0.8,0,0.9c0,0.1,1,0.4,1.5,0l0-0.9H199.9z"/>
				<ellipse class="st7" cx="200.7" cy="126" rx="0.8" ry="0.3"/>
			</g>
			<g>
				<ellipse class="st6" cx="202.2" cy="127.5" rx="0.8" ry="0.3"/>
				<path class="st6" d="M201.4,126.7c0,0,0,0.8,0,0.9s1,0.4,1.5,0l0-0.9H201.4z"/>
				<ellipse class="st7" cx="202.2" cy="126.7" rx="0.8" ry="0.3"/>
			</g>
			<g>
				<ellipse class="st6" cx="203.7" cy="128.3" rx="0.8" ry="0.3"/>
				<path class="st6" d="M202.9,127.4c0,0,0,0.8,0,0.9c0,0.1,1,0.4,1.5,0l0-0.9H202.9z"/>
				<ellipse class="st7" cx="203.7" cy="127.5" rx="0.8" ry="0.3"/>
			</g>
			<g>
				<ellipse class="st6" cx="205.2" cy="129" rx="0.8" ry="0.3"/>
				<path class="st6" d="M204.4,128.2c0,0,0,0.8,0,0.9c0,0.1,1,0.4,1.5,0l0-0.9H204.4z"/>
				<ellipse class="st7" cx="205.2" cy="128.3" rx="0.8" ry="0.3"/>
			</g>
			<g>
				<ellipse class="st6" cx="206.7" cy="129.8" rx="0.8" ry="0.3"/>
				<path class="st6" d="M205.9,129c0,0,0,0.8,0,0.9s1,0.4,1.5,0l0-0.9H205.9z"/>
				<ellipse class="st7" cx="206.7" cy="129" rx="0.8" ry="0.3"/>
			</g>
			<g>
				<ellipse class="st6" cx="208.2" cy="130.5" rx="0.8" ry="0.3"/>
				<path class="st6" d="M207.4,129.7c0,0,0,0.8,0,0.9c0,0.1,1,0.4,1.5,0l0-0.9H207.4z"/>
				<ellipse class="st7" cx="208.2" cy="129.8" rx="0.8" ry="0.3"/>
			</g>
			<g>
				<ellipse class="st6" cx="209.7" cy="131.3" rx="0.8" ry="0.3"/>
				<path class="st6" d="M208.9,130.5c0,0,0,0.8,0,0.9c0,0.1,1,0.4,1.5,0l0-0.9H208.9z"/>
				<ellipse class="st7" cx="209.7" cy="130.5" rx="0.8" ry="0.3"/>
			</g>
			<g>
				<ellipse class="st6" cx="211.2" cy="132.1" rx="0.8" ry="0.3"/>
				<path class="st6" d="M210.4,131.3c0,0,0,0.8,0,0.9c0,0.1,1,0.4,1.5,0l0-0.9H210.4z"/>
				<ellipse class="st7" cx="211.2" cy="131.3" rx="0.8" ry="0.3"/>
			</g>
			<g>
				<ellipse class="st6" cx="212.7" cy="132.8" rx="0.8" ry="0.3"/>
				<path class="st6" d="M211.9,132c0,0,0,0.8,0,0.9c0,0.1,1,0.4,1.5,0l0-0.9H211.9z"/>
				<ellipse class="st7" cx="212.7" cy="132.1" rx="0.8" ry="0.3"/>
			</g>
			<g>
				<ellipse class="st6" cx="214.2" cy="133.6" rx="0.8" ry="0.3"/>
				<path class="st6" d="M213.4,132.8c0,0,0,0.8,0,0.9c0,0.1,1,0.4,1.5,0l0-0.9H213.4z"/>
				<ellipse class="st7" cx="214.2" cy="132.8" rx="0.8" ry="0.3"/>
			</g>
			<g>
				<ellipse class="st6" cx="215.7" cy="134.4" rx="0.8" ry="0.3"/>
				<path class="st6" d="M214.9,133.5c0,0,0,0.8,0,0.9c0,0.1,1,0.4,1.5,0l0-0.9H214.9z"/>
				<ellipse class="st7" cx="215.7" cy="133.6" rx="0.8" ry="0.3"/>
			</g>
			<g>
				<ellipse class="st6" cx="217.2" cy="135.1" rx="0.8" ry="0.3"/>
				<path class="st6" d="M216.4,134.3c0,0,0,0.8,0,0.9s1,0.4,1.5,0l0-0.9H216.4z"/>
				<ellipse class="st7" cx="217.2" cy="134.4" rx="0.8" ry="0.3"/>
			</g>
			<g>
				<ellipse class="st6" cx="218.7" cy="135.9" rx="0.8" ry="0.3"/>
				<path class="st6" d="M218,135.1c0,0,0,0.8,0,0.9c0,0.1,1,0.4,1.5,0l0-0.9H218z"/>
				<ellipse class="st7" cx="218.7" cy="135.1" rx="0.8" ry="0.3"/>
			</g>
			<g>
				<ellipse class="st6" cx="220.2" cy="136.6" rx="0.8" ry="0.3"/>
				<path class="st6" d="M219.5,135.8c0,0,0,0.8,0,0.9c0,0.1,1,0.4,1.5,0l0-0.9H219.5z"/>
				<ellipse class="st7" cx="220.2" cy="135.9" rx="0.8" ry="0.3"/>
			</g>
			<g>
				<ellipse class="st6" cx="221.7" cy="137.4" rx="0.8" ry="0.3"/>
				<path class="st6" d="M221,136.6c0,0,0,0.8,0,0.9c0,0.1,1,0.4,1.5,0l0-0.9H221z"/>
				<ellipse class="st7" cx="221.7" cy="136.6" rx="0.8" ry="0.3"/>
			</g>
			<g>
				<ellipse class="st6" cx="223.2" cy="138.2" rx="0.8" ry="0.3"/>
				<path class="st6" d="M222.5,137.4c0,0,0,0.8,0,0.9c0,0.1,1,0.4,1.5,0l0-0.9H222.5z"/>
				<ellipse class="st7" cx="223.2" cy="137.4" rx="0.8" ry="0.3"/>
			</g>
		</g>
		<g>
			<path class="st8" d="M91.2,221.3c0,0,2.6-0.1,5.6-1.1c1.1-0.4,6.4-2.4,8.2-2.4c2,0,0.5-1.1,2-1.5c3.4-1.1,7.4-2.7,17.1-5.3
				c13.9-3.8,35.2-14.5,35.2-14.5l45.7-23.1l12.2-8.2l10.8,5.9l-39.3,18.5l-26.2,13.2l-37.8,17.5l-18.3,9.1L91.2,221.3z"/>
			<path class="st8" d="M208.1,170.1l-2.8-9.4c0.5-1.1,11.8,3.7,11.3,4.7l-8.5,7.9V170.1z"/>
		</g>
		<line class="st9" x1="109.3" y1="222.9" x2="217.2" y2="172.1"/>
		<polygon class="st10" points="176.8,115.3 231.3,142.5 235.4,140.7 181.1,113.2 		"/>
		<polygon class="st10" points="51.8,178.2 181.9,113.7 177.6,111.7 47.8,176 		"/>
		<g>
			<path class="st11" d="M106,204.5c0.4-0.1,0.1-1.6,0.1-1.6l1.8-0.8c0,0,10.1,0.8,13.5,0.8c2.7,0,7.4-0.6,10.5-2.6
				c3.1-2,3.9-3.5,3.9-3.5l1-0.8l2.6-1.3c0,0-0.1,0.4,1.7,0c1.9-0.4,5.1-2,5.1-2l4.3-2.4c0,0,1.4-1.3,1.4-1.6c0-0.3,0.9,0.3,1.3,0.3
				c0.3-0.1,3.9-2.2,4.2-2.2c0.4,0,1.3-0.9,1.2-1.1l1.5,0.1c0,0,3.3-1.8,4.1-2.4c0.3-0.2,0.4-1.3,0.4-1.3s0.8,0.5,1.1,0.4l4.4-2.2
				l1-1.2l0.7,0.3l6.9-3.6l0.9-0.3c0,0,0.7-0.7,1-0.9l0.8,0.2l5.8-3.3c0.2-0.1,7.6-2.8,2-14.6c-5.1-10.7-12.2-8.6-14.1-8.2
				c-1.3,0.3-4.8,1.9-5.5,2.4c-0.2,0.1-0.3,0.8-0.5,0.8c-0.2,0.1-0.6-0.3-0.8-0.2c-1.5,0.6-7,3.3-8.2,4.2c-0.1,0.1-0.1,0.6-0.1,0.6
				s-0.8,0-1,0c-0.8,0.2-3.4,1.5-5,2.2c-0.2,0.1-0.2,0.8-0.2,0.8s-0.8,0-1.1,0c-0.8,0.2-4.6,2.2-4.6,2.2c-0.1,0.1-0.2,0.1-0.2,0.2
				c-0.3,0.2-0.3,0.7,0,0.9l-0.1,0c0,0-1.2-0.4-1.5-0.3c-1,0.3-4.2,1.8-5.2,2.5c-0.1,0.1-0.1,0.7-0.4,0.8c-0.3,0.2-0.9,0-1.1,0
				c-1.6,0.3-9.3,4.4-9.3,4.4l-2,2.2l-3.2,1.6l-1.9,0.1c0,0-5.8,1-10.2,5.7c-4.4,4.6-9.5,13.2-9.5,13.2l-1.4,0.8
				c0,0-0.4,0.4-0.6,0.3c-0.3,0-0.8-0.8-1.1-0.5c-0.4,0.3,0,1.5-0.3,1.7c-0.8,0.6-3.2,1.6-3.2,1.6l-1.8,0.8c0,0,1.4,0,3,3.2
				c1.9,3.9,1.2,5.3,1.2,5.3l4.4-2.4l1-0.3C104.8,203.9,105.7,204.6,106,204.5z"/>
			<path class="st12" d="M105.5,204.4c0,0-0.3-4.8-5.1-10.1"/>
			<path class="st13" d="M101.1,194.1c4.8,5.3,4.8,9.9,4.8,9.9"/>
			<path class="st11" d="M99.1,206.8c-0.8,0.4-2.5-1.6-3.6-3.8c-1.1-2.2-1.3-4.4-0.6-4.7c0.8-0.4,2.3,1.1,3.4,3.4
				C99.4,203.9,99.8,206.4,99.1,206.8z"/>
			<path class="st14" d="M97.1,202.2"/>
			<path class="st14" d="M118.1,174.9"/>
			<path class="st12" d="M152.1,188.5c0,0,0.9-4.4-3-12.5c-4-8.4-8.2-10-8.2-10"/>
			<path class="st12" d="M158.6,185.5c0,0,1.5-4.1-2.4-12.2c-4-8.4-8.4-10.2-8.4-10.2"/>
			<path class="st12" d="M171.4,179.1c0,0,1.9-4.7-2-12.8c-4-8.4-8.9-9.4-8.9-9.4"/>
			<path class="st12" d="M164.7,182c0,0,1.7-4.3-2.2-12.4c-4-8.4-8.6-9.6-8.6-9.6"/>
			<path class="st12" d="M180.5,174.7c0,0,1.8-4.8-2.2-13.2c-4.2-8.6-9.1-9.8-9.1-9.8"/>
			<path class="st12" d="M136.1,196c0,0-1-7.1-3.3-12.3c-2.2-5.2-7.5-9.7-7.5-9.7"/>
			<path class="st12" d="M139.4,194.5c0,0-0.4-6.5-3-12c-2.6-5.5-8-9.6-8-9.6"/>
		</g>
		<path class="st15" d="M204.1,152l-13.9,6.9c1.4,3.6,1.5,6.2,1,8.2c-1,3.9-4.1,5.2-4.1,5.2l-5.3,2.8l-0.8-0.3
			c-0.3,0.1-0.6,0.8-0.6,0.8l-7.9,4.2l-1-0.2l-1.2,1.2l-4.4,2.2c-0.3,0.1-0.9-0.3-0.9-0.3s-0.4,1-0.6,1.2c-0.9,0.6-4.1,2.4-4.1,2.4
			l-1.4-0.3c0,0.2-1,1.3-1.4,1.3c-0.4,0-3.8,2-4.2,2.1c-0.3,0.1-1.2-0.5-1.2-0.2c0,0.3-0.9,1.3-0.9,1.3l-5,2.9c0,0-3.2,1.5-5.1,2
			c-1.9,0.4-1.7,0-1.7,0l-2.6,1.3l-1,0.8c0,0-0.8,1.6-3.9,3.5c-3.1,2-7.8,2.5-10.5,2.6c-3.4,0-13.5-0.8-13.5-0.8l-1.8,0.8
			c0,0,0.2,1.4-0.1,1.6c-0.3,0.1-1.2-0.5-1.2-0.5l-1,0.3l-4.4,2.4c0,0-1-1-2.9-4.9c-1.5-3.2-1.3-3.6-1.3-3.6l1.8-0.8
			c0,0,2.4-1.1,3.2-1.6c0.3-0.2-0.1-1.4,0.3-1.7c0.3-0.2,0.8,0.5,1.1,0.5c0.3,0,0.7-0.3,0.7-0.3l1.4-0.8c0,0,5.1-8.5,9.5-13.2
			c4.4-4.6,10.2-5.7,10.2-5.7l1.9-0.1l3.2-1.6l2-2.2c0,0,7.7-4.1,9.3-4.4c0.2,0,0.8,0.2,1.1,0c0.3-0.2,0.2-0.8,0.4-0.8
			c1.1-0.7,4.3-2.2,5.2-2.5c0.3-0.1,1.5,0.3,1.5,0.3l0.1,0c-0.3-0.3-0.3-0.7,0-0.9c0.1-0.1,0.1-0.1,0.2-0.2c0,0,3.7-2,4.6-2.2
			c0.3-0.1,1.1,0,1.1,0s0.1-0.8,0.2-0.8c1.6-0.7,4.2-2,5-2.2c0.3-0.1,1,0,1,0s0-0.5,0.1-0.6c1.2-0.9,6.6-3.6,8.2-4.2
			c0.2-0.1,0.6,0.3,0.8,0.2c0.2-0.1,0.3-0.7,0.5-0.8c0.7-0.5,4.2-2.1,5.5-2.4c1.6-0.3,7.1-0.4,12.2,4.4l9.6-5L177.6,138L57.7,198.5
			l52,26.4l120.5-60.2L204.1,152z"/>
		<path class="st16" d="M184.1,151.2l8.5-4.3c0,0,1.9-2.7,6.7-1.2c4.8,1.5,5,6.6,5,6.6l-14,6.7c0,0-1-2.7-2.6-4.8
			S184.1,151.2,184.1,151.2z"/>
		<polygon class="st2" points="46.9,221.4 106,251.4 105.7,205.8 46.8,176 		"/>
		<polygon class="st10" points="51.8,178.2 105.5,206 109.3,204.2 55.7,176.4 		"/>
		<polygon class="st3" points="106,251 236,184.5 236,140.8 105.9,206 		"/>
		<polygon class="st10" points="105.7,205.9 235.6,140.8 231.8,138.9 101.7,203.7 		"/>
		<line class="st17" x1="88.4" y1="189.8" x2="169.4" y2="148.3"/>
		<g>
			<polygon class="st18" points="180.5,146.7 182.6,145.2 180.8,143.4 177,143.1 175,144.5 176.7,146.3 			"/>
			<path class="st18" d="M180.2,146l0.5-0.3c0.4-0.3,0.4-0.8,0.1-1.1l-0.4-0.4c-0.1-0.1-0.3-0.2-0.4-0.2l-2.1-0.2
				c-0.2,0-0.3,0-0.5,0.1l-0.5,0.3c-0.4,0.3-0.4,0.8-0.1,1.1l0.4,0.4c0.1,0.1,0.3,0.2,0.4,0.2l2.1,0.2
				C179.8,146.1,180,146.1,180.2,146z"/>
		</g>
		<g>
			<path class="st0" d="M209.2,74.1c0,0-0.7,2,0.7,1.6c1.4-0.4,3.8-1.7,2.1-1.9C210.3,73.7,209.2,74.1,209.2,74.1"/>
			<path class="st0" d="M212.2,67.9c0,0-0.6,2.1,0.8,1.6c1.4-0.5,3.7-1.9,2-2C213.3,67.5,212.2,67.9,212.2,67.9"/>
			<path class="st0" d="M209.7,70.5c0,0-0.5,2.1,0.8,1.6c1.3-0.5,3.7-2,1.9-2C210.8,70.1,209.7,70.5,209.7,70.5"/>
			<path class="st0" d="M214.6,73.1c0,0-0.6,2.1,0.8,1.6c1.4-0.4,3.7-1.9,2-1.9C215.7,72.7,214.6,73.1,214.6,73.1"/>
			<path class="st0" d="M217.1,69.9c0,0-0.6,2.1,0.8,1.6c1.4-0.5,3.7-1.9,2-2C218.2,69.5,217.1,69.9,217.1,69.9"/>
			<path class="st0" d="M215.4,78.1c0,0-0.5,2.1,0.8,1.6c1.3-0.5,3.6-2.1,1.9-2.1C216.5,77.6,215.4,78.1,215.4,78.1"/>
			<path class="st0" d="M218.5,66c0,0-0.8,2,0.6,1.7c1.4-0.3,3.9-1.6,2.2-1.8C219.6,65.7,218.5,66,218.5,66"/>
			<path class="st0" d="M221.8,72.2c0,0-0.5,2.1,0.8,1.6c1.3-0.5,3.6-2.1,1.9-2.1C222.9,71.7,221.8,72.2,221.8,72.2"/>
			<path class="st0" d="M223.7,66c0,0-0.6,2.1,0.8,1.6s3.7-1.9,2-2C224.8,65.6,223.7,66,223.7,66"/>
			<path class="st0" d="M234.5,73c0,0,0,2.2,1.2,1.4c1.2-0.8,3.1-2.9,1.4-2.5C235.4,72.3,234.5,73,234.5,73"/>
			<path class="st0" d="M230.9,70.2c0,0-0.5,2.1,0.8,1.6c1.3-0.5,3.6-2.1,1.9-2.1C231.9,69.7,230.9,70.2,230.9,70.2"/>
			<path class="st0" d="M229.4,65.5c0,0-0.8,2,0.6,1.7c1.4-0.3,3.9-1.5,2.2-1.8C230.5,65.2,229.4,65.5,229.4,65.5"/>
			<path class="st0" d="M227.5,60.5c0,0-0.8,2,0.6,1.7c1.4-0.3,3.9-1.6,2.2-1.8C228.6,60.2,227.5,60.5,227.5,60.5"/>
			<path class="st0" d="M233.2,63.1c0,0-0.5,2.1,0.8,1.6c1.3-0.5,3.7-2,1.9-2C234.3,62.6,233.2,63.1,233.2,63.1"/>
			<path class="st0" d="M233.7,79.3c0,0,0.3,2.3,1.4,1.3c1.2-1,2.9-3.4,1.2-2.7C234.6,78.4,233.7,79.3,233.7,79.3"/>
			<path class="st0" d="M225.7,70.5c0,0-0.5,2.1,0.8,1.6c1.3-0.5,3.6-2.1,1.9-2.1C226.8,70,225.7,70.5,225.7,70.5"/>
			<path class="st0" d="M226.8,75.9c0,0-0.5,2.1,0.8,1.6c1.3-0.5,3.6-2.1,1.9-2C227.8,75.4,226.8,75.9,226.8,75.9"/>
			<path class="st0" d="M221.1,82.3c0,0-1,1.9,0.5,1.7c1.4-0.2,4-1.2,2.3-1.6C222.3,82.1,221.1,82.3,221.1,82.3"/>
			<path class="st0" d="M227.8,85.5c0,0-0.5,2.2,0.9,1.6c1.4-0.6,3.7-2.2,1.9-2.1C228.9,85,227.8,85.5,227.8,85.5"/>
			<path class="st0" d="M222.3,94.5c0,0-0.1,3.1,1.6,2c1.7-1.1,4.5-3.9,2.1-3.4C223.7,93.5,222.3,94.5,222.3,94.5"/>
			<path class="st0" d="M218.1,89.9c0,0-0.5,2.1,0.9,1.6c1.4-0.5,3.7-2.1,2-2.1C219.2,89.4,218.1,89.9,218.1,89.9"/>
			<path class="st0" d="M214.5,89.6c0,0-0.9,1.9,0.5,1.7s4-1.3,2.3-1.6C215.7,89.3,214.5,89.6,214.5,89.6"/>
			<path class="st0" d="M207.1,91c0,0-0.5,2.1,0.8,1.6c1.3-0.5,3.6-2.1,1.9-2.1C208.2,90.6,207.1,91,207.1,91"/>
			<path class="st0" d="M218.3,99.3c0,0-0.1,3.2,1.7,2.1c1.8-1.1,4.8-4.1,2.3-3.6C219.8,98.3,218.3,99.3,218.3,99.3"/>
			<path class="st0" d="M216.2,100.9c1.2-1.4,2.9-4.4,1-3.4c-1.9,1-2.9,2.2-2.9,2.2"/>
			<path class="st0" d="M229.2,91.6c0,0-1.5,1.6-0.1,1.8c1.5,0.2,4.3,0,2.8-0.8C230.4,91.7,229.2,91.6,229.2,91.6"/>
			<path class="st0" d="M225.6,97.4c0,0-0.9,2.4,0.8,1.9c1.6-0.4,4.5-1.9,2.5-2.1C226.9,97,225.6,97.4,225.6,97.4"/>
			<path class="st0" d="M206.6,86.2c0,0-0.5,2.1,0.8,1.6c1.3-0.5,3.6-2.1,1.9-2.1C207.6,85.7,206.6,86.2,206.6,86.2"/>
			<path class="st0" d="M201.8,83.1c0,0-0.9,2,0.5,1.7c1.4-0.3,4-1.4,2.3-1.7C202.9,82.8,201.8,83.1,201.8,83.1"/>
			<path class="st0" d="M240.1,57c0,0-2.6-1-1-1.7c1.6-0.7,5.1-1.6,3.7-0.2C241.4,56.4,240.1,57,240.1,57"/>
		</g>
		<g>
			<path class="st0" d="M195,121.9c0,0-0.7,2,0.7,1.6c1.4-0.4,3.8-1.7,2.1-1.9C196.2,121.5,195,121.9,195,121.9"/>
			<path class="st0" d="M198.1,115.7c0,0-0.6,2.1,0.8,1.6c1.4-0.5,3.7-1.9,2-2C199.1,115.3,198.1,115.7,198.1,115.7"/>
			<path class="st0" d="M195.6,118.3c0,0-0.5,2.1,0.8,1.6c1.3-0.5,3.7-2,1.9-2C196.7,117.9,195.6,118.3,195.6,118.3"/>
			<path class="st0" d="M200.4,120.9c0,0-0.6,2.1,0.8,1.6c1.4-0.4,3.7-1.9,2-1.9C201.5,120.5,200.4,120.9,200.4,120.9"/>
			<path class="st0" d="M202.9,117.7c0,0-0.6,2.1,0.8,1.6c1.4-0.5,3.7-1.9,2-2C204,117.3,202.9,117.7,202.9,117.7"/>
			<path class="st0" d="M201.3,125.9c0,0-0.5,2.1,0.8,1.6c1.3-0.5,3.6-2.1,1.9-2.1C202.3,125.4,201.3,125.9,201.3,125.9"/>
			<path class="st0" d="M204.3,113.8c0,0-0.8,2,0.6,1.7c1.4-0.3,3.9-1.6,2.2-1.8C205.4,113.5,204.3,113.8,204.3,113.8"/>
			<path class="st0" d="M207.7,120c0,0-0.5,2.1,0.8,1.6c1.3-0.5,3.6-2.1,1.9-2.1C208.7,119.5,207.7,120,207.7,120"/>
			<path class="st0" d="M209.6,113.8c0,0-0.6,2.1,0.8,1.6c1.4-0.5,3.7-1.9,2-2C210.6,113.4,209.6,113.8,209.6,113.8"/>
			<path class="st0" d="M220.4,120.8c0,0,0,2.2,1.2,1.4c1.2-0.8,3.1-2.9,1.4-2.5C221.3,120.1,220.4,120.8,220.4,120.8"/>
			<path class="st0" d="M216.7,118c0,0-0.5,2.1,0.8,1.6c1.3-0.5,3.6-2.1,1.9-2.1C217.8,117.5,216.7,118,216.7,118"/>
			<path class="st0" d="M215.3,113.3c0,0-0.8,2,0.6,1.7c1.4-0.3,3.9-1.5,2.2-1.8C216.4,113,215.3,113.3,215.3,113.3"/>
			<path class="st0" d="M213.3,108.3c0,0-0.8,2,0.6,1.7c1.4-0.3,3.9-1.6,2.2-1.8C214.4,108,213.3,108.3,213.3,108.3"/>
			<path class="st0" d="M219,110.8c0,0-0.5,2.1,0.8,1.6c1.3-0.5,3.7-2,1.9-2C220.1,110.4,219,110.8,219,110.8"/>
			<path class="st0" d="M211.6,118.3c0,0-0.5,2.1,0.8,1.6c1.3-0.5,3.6-2.1,1.9-2.1C212.6,117.8,211.6,118.3,211.6,118.3"/>
			<path class="st0" d="M212.6,123.7c0,0-0.5,2.1,0.8,1.6c1.3-0.5,3.6-2.1,1.9-2C213.7,123.2,212.6,123.7,212.6,123.7"/>
			<path class="st0" d="M207,130.1c0,0-1,1.9,0.5,1.7c1.4-0.2,4-1.2,2.3-1.6C208.1,129.9,207,130.1,207,130.1"/>
			<path class="st0" d="M213.7,133.3c0,0-0.5,2.2,0.9,1.6c1.4-0.6,3.7-2.2,1.9-2.1C214.7,132.8,213.7,133.3,213.7,133.3"/>
			<path class="st0" d="M208.2,142.3c0,0-0.1,3.1,1.6,2c1.7-1.1,4.5-3.9,2.1-3.4C209.5,141.3,208.2,142.3,208.2,142.3"/>
			<path class="st0" d="M203.9,137.7c0,0-0.5,2.1,0.9,1.6c1.4-0.5,3.7-2.1,2-2.1C205,137.2,203.9,137.7,203.9,137.7"/>
			<path class="st0" d="M200.4,137.4c0,0-0.9,1.9,0.5,1.7c1.4-0.2,4-1.3,2.3-1.6C201.5,137.1,200.4,137.4,200.4,137.4"/>
			<path class="st0" d="M192.9,138.8c0,0-0.5,2.1,0.8,1.6c1.3-0.5,3.6-2.1,1.9-2.1C194,138.4,192.9,138.8,192.9,138.8"/>
			<path class="st0" d="M202.1,148.6c1.2-1.4,2.9-4.4,1-3.4c-1.9,1-2.9,2.2-2.9,2.2"/>
			<path class="st0" d="M215.1,139.4c0,0-1.5,1.6-0.1,1.8c1.5,0.2,4.3,0,2.8-0.8C216.3,139.5,215.1,139.4,215.1,139.4"/>
			<path class="st0" d="M192.4,133.9c0,0-0.5,2.1,0.8,1.6c1.3-0.5,3.6-2.1,1.9-2.1C193.5,133.5,192.4,133.9,192.4,133.9"/>
			<path class="st0" d="M187.7,130.9c0,0-0.9,2,0.5,1.7c1.4-0.3,4-1.4,2.3-1.7C188.8,130.6,187.7,130.9,187.7,130.9"/>
			<path class="st0" d="M226,104.8c0,0-2.6-1-1-1.7c1.6-0.7,5.1-1.6,3.7-0.2C227.3,104.2,226,104.8,226,104.8"/>
		</g>
		<g>
			<path class="st0" d="M181,106.1c0,0-0.7,2,0.7,1.6c1.4-0.4,3.8-1.7,2.1-1.9C182.1,105.7,181,106.1,181,106.1"/>
			<path class="st0" d="M184.1,99.9c0,0-0.6,2.1,0.8,1.6c1.4-0.5,3.7-1.9,2-2C185.1,99.5,184.1,99.9,184.1,99.9"/>
			<path class="st0" d="M181.6,102.5c0,0-0.5,2.1,0.8,1.6c1.3-0.5,3.7-2,1.9-2C182.6,102.1,181.6,102.5,181.6,102.5"/>
			<path class="st0" d="M186.4,105.1c0,0-0.6,2.1,0.8,1.6c1.4-0.4,3.7-1.9,2-1.9C187.5,104.7,186.4,105.1,186.4,105.1"/>
			<path class="st0" d="M188.9,101.9c0,0-0.6,2.1,0.8,1.6c1.4-0.5,3.7-1.9,2-2C190,101.5,188.9,101.9,188.9,101.9"/>
			<path class="st0" d="M187.2,110.1c0,0-0.5,2.1,0.8,1.6c1.3-0.5,3.6-2.1,1.9-2.1C188.3,109.6,187.2,110.1,187.2,110.1"/>
			<path class="st0" d="M190.3,98c0,0-0.8,2,0.6,1.7c1.4-0.3,3.9-1.6,2.2-1.8C191.4,97.6,190.3,98,190.3,98"/>
			<path class="st0" d="M193.7,104.2c0,0-0.5,2.1,0.8,1.6c1.3-0.5,3.6-2.1,1.9-2.1C194.7,103.7,193.7,104.2,193.7,104.2"/>
			<path class="st0" d="M195.6,98c0,0-0.6,2.1,0.8,1.6c1.4-0.5,3.7-1.9,2-2C196.6,97.5,195.6,98,195.6,98"/>
			<path class="st0" d="M206.4,105c0,0,0,2.2,1.2,1.4c1.2-0.8,3.1-2.9,1.4-2.5C207.3,104.3,206.4,105,206.4,105"/>
			<path class="st0" d="M202.7,102.1c0,0-0.5,2.1,0.8,1.6c1.3-0.5,3.6-2.1,1.9-2.1C203.8,101.7,202.7,102.1,202.7,102.1"/>
			<path class="st0" d="M201.3,97.5c0,0-0.8,2,0.6,1.7c1.4-0.3,3.9-1.5,2.2-1.8C202.4,97.2,201.3,97.5,201.3,97.5"/>
			<path class="st0" d="M199.3,92.5c0,0-0.8,2,0.6,1.7s3.9-1.6,2.2-1.8C200.4,92.2,199.3,92.5,199.3,92.5"/>
			<path class="st0" d="M205,95c0,0-0.5,2.1,0.8,1.6c1.3-0.5,3.7-2,1.9-2C206.1,94.6,205,95,205,95"/>
			<path class="st0" d="M197.6,102.5c0,0-0.5,2.1,0.8,1.6c1.3-0.5,3.6-2.1,1.9-2.1C198.6,102,197.6,102.5,197.6,102.5"/>
			<path class="st0" d="M198.6,107.9c0,0-0.5,2.1,0.8,1.6c1.3-0.5,3.6-2.1,1.9-2C199.7,107.4,198.6,107.9,198.6,107.9"/>
			<path class="st0" d="M193,114.3c0,0-1,1.9,0.5,1.7c1.4-0.2,4-1.2,2.3-1.6C194.1,114.1,193,114.3,193,114.3"/>
			<path class="st0" d="M199.7,117.5c0,0-0.5,2.2,0.9,1.6c1.4-0.6,3.7-2.2,1.9-2.1C200.7,117,199.7,117.5,199.7,117.5"/>
			<path class="st0" d="M194.2,126.5c0,0-0.1,3.1,1.6,2c1.7-1.1,4.5-3.9,2.1-3.4C195.5,125.5,194.2,126.5,194.2,126.5"/>
			<path class="st0" d="M189.9,121.9c0,0-0.5,2.1,0.9,1.6c1.4-0.5,3.7-2.1,2-2.1C191,121.4,189.9,121.9,189.9,121.9"/>
			<path class="st0" d="M186.4,121.6c0,0-0.9,1.9,0.5,1.7c1.4-0.2,4-1.3,2.3-1.6C187.5,121.3,186.4,121.6,186.4,121.6"/>
			<path class="st0" d="M178.9,123c0,0-0.5,2.1,0.8,1.6c1.3-0.5,3.6-2.1,1.9-2.1C180,122.6,178.9,123,178.9,123"/>
			<path class="st0" d="M188.1,132.8c1.2-1.4,2.9-4.4,1-3.4c-1.9,1-2.9,2.2-2.9,2.2"/>
			<path class="st0" d="M201.1,123.6c0,0-1.5,1.6-0.1,1.8c1.5,0.2,4.3,0,2.8-0.8C202.3,123.7,201.1,123.6,201.1,123.6"/>
			<path class="st0" d="M178.4,118.1c0,0-0.5,2.1,0.8,1.6c1.3-0.5,3.6-2.1,1.9-2.1C179.5,117.7,178.4,118.1,178.4,118.1"/>
			<path class="st0" d="M173.7,115.1c0,0-0.9,2,0.5,1.7c1.4-0.3,4-1.4,2.3-1.7C174.8,114.8,173.7,115.1,173.7,115.1"/>
			<path class="st0" d="M212,89c0,0-2.6-1-1-1.7c1.6-0.7,5.1-1.6,3.7-0.2C213.3,88.4,212,89,212,89"/>
		</g>
		<line class="st3" x1="106" y1="291.4" x2="106" y2="306.5"/>
	</g>
	<g>
		<path class="st19" d="M338.9,64.5c4.6,3.5,7.5,13.7,1.5,24.7c-5.9,11-14.8,13.9-18.5,12.8c-3.7-1.2-69.9-34.8-69.9-34.8L269.7,30
			C269.7,30,334.3,61,338.9,64.5z"/>
		<path class="st20" d="M322.6,55.6c2.4,1.4,5.1,13.6-0.7,24.2C316,90.3,308.7,95,305,93.9c-3.7-1.1-32.8-16.9-32.8-16.9
			s9.4-1.2,16.3-13.3c6.9-12.1,3.3-22.9,3.3-22.9S320.2,54.2,322.6,55.6"/>
		<path class="st6" d="M271.8,55.8c-6.3,9.5-16.5,13.7-22.7,9.6c-6.2-4.2-6.1-15.2,0.2-24.7c6.3-9.4,16.5-13.7,22.7-9.6
			C278.3,35.3,278.2,46.3,271.8,55.8"/>
		<path class="st5" d="M271.8,55.8c-6.3,9.5-16.5,13.7-22.7,9.6c-6.2-4.2-6.1-15.2,0.2-24.7c6.3-9.4,16.5-13.7,22.7-9.6
			C278.3,35.3,278.2,46.3,271.8,55.8z"/>
		<path class="st6" d="M257.8,46.3c-2.8,4.1-7.2,6-9.9,4.2c-2.7-1.8-2.7-6.6,0.1-10.8c2.8-4.1,7.2-6,9.9-4.2
			C260.7,37.4,260.6,42.2,257.8,46.3"/>
		<path class="st21" d="M257.8,46.3c-2.8,4.1-7.2,6-9.9,4.2c-2.7-1.8-2.7-6.6,0.1-10.8c2.8-4.1,7.2-6,9.9-4.2
			C260.7,37.4,260.6,42.2,257.8,46.3z"/>
		<path class="st6" d="M253.8,43.8c-1,1.5-2.6,2.2-3.6,1.5c-1-0.7-1-2.4,0-3.9c1-1.5,2.6-2.2,3.6-1.5
			C254.8,40.6,254.8,42.3,253.8,43.8"/>
		<path class="st22" d="M253.8,43.8c-1,1.5-2.6,2.2-3.6,1.5c-1-0.7-1-2.4,0-3.9c1-1.5,2.6-2.2,3.6-1.5
			C254.8,40.6,254.8,42.3,253.8,43.8z"/>
		<path class="st23" d="M258,35.5c3.8,2.7,6.6,1.7,6.6,1.7c3.5-1.5,5.6,1.6,6.3,4.4c0.7,2.8-0.5,9-4.9,13.5c-2.9,3-5.5,5.2-8.2,5.2
			c-0.4,0-2-0.2-3.1-0.7c-1.1-0.6-1.3-1.1-1.3-1.3c-0.7-4.9-4.6-7.4-4.6-7.4s4,1.9,8.9-4.4C262.5,40.3,258,35.5,258,35.5"/>
		<path class="st6" d="M250.6,42.2c-1,1.5-2.6,2.2-3.6,1.5c-1-0.7-1-2.4,0-3.9c1-1.5,2.6-2.2,3.6-1.5
			C251.6,39,251.6,40.7,250.6,42.2"/>
		<path class="st24" d="M250.6,42.2c-1,1.5-2.6,2.2-3.6,1.5c-1-0.7-1-2.4,0-3.9c1-1.5,2.6-2.2,3.6-1.5
			C251.6,39,251.6,40.7,250.6,42.2z"/>
		<path class="st24" d="M250.7,38.4l3.1,1.5c0,0,1.6,1.4,0.2,3.6c-1.4,2.1-3.1,2.1-3.1,2.1l-3.6-1.8c0,0,2.4,0.2,3.5-2.1
			C251.9,39.4,250.7,38.4,250.7,38.4z"/>
		<path class="st25" d="M292.9,82.4c-0.1-4.5-0.1-9.1-0.2-13.6c2.9,2.8,5.9,5.4,9,8c0.2-3.4-0.9-6.9-3.1-9.5
			c0.3,0.3,0.9,0.2,1.2-0.2c0.3-0.4,0.3-0.9,0.3-1.3c0.2-3.3-0.2-6.7-1.1-9.9c0.5,0.5,1.3,0.7,1.9,0.4c0-0.5,0.1-1,0.1-1.4
			c1.8,0.2,3.6-0.7,4.6-2.2"/>
		
			<rect x="247.2" y="44.2" transform="matrix(0.8879 0.46 -0.46 0.8879 48.5289 -108.9736)" class="st26" width="1.3" height="1.7"/>
		
			<ellipse transform="matrix(0.4295 -0.9031 0.9031 0.4295 99.7665 249.694)" class="st27" cx="247.5" cy="45.9" rx="0.2" ry="0.7"/>
	</g>
</g>
</svg>
