<?xml version="1.0" encoding="utf-8"?>
<!-- Generator: Adobe Illustrator 25.2.3, SVG Export Plug-In . SVG Version: 6.00 Build 0)  -->
<svg version="1.1" id="Layer_1" xmlns="http://www.w3.org/2000/svg" xmlns:xlink="http://www.w3.org/1999/xlink" x="0px" y="0px"
	 viewBox="0 0 331 311.3" style="enable-background:new 0 0 331 311.3;" xml:space="preserve">
<style type="text/css">
	.st0{fill:none;stroke:#FFFFFF;stroke-width:0.5035;stroke-linejoin:bevel;stroke-miterlimit:10;}
	.st1{fill:#CCB9B9;stroke:#FFFFFF;stroke-width:0.525;stroke-linejoin:bevel;stroke-miterlimit:10;}
	.st2{fill:#CCB9B9;stroke:#FFFFFF;stroke-width:0.525;stroke-miterlimit:10;}
	.st3{fill:#E4DAD8;stroke:#FFFFFF;stroke-width:0.525;stroke-miterlimit:10;}
	.st4{fill:#E4DAD8;stroke:#FFFFFF;stroke-width:0.525;stroke-linejoin:bevel;stroke-miterlimit:10;}
	.st5{fill:#CCB9B9;}
	.st6{fill:#E4DAD8;}
	.st7{fill:#543C52;}
	.st8{fill:none;stroke:#543C52;stroke-width:0.525;stroke-linecap:round;stroke-miterlimit:10;}
	.st9{fill:#B79797;stroke:#FFFFFF;stroke-width:0.525;stroke-miterlimit:10;}
	.st10{fill:none;stroke:#FFFFFF;stroke-width:0.525;stroke-miterlimit:10;}
	.st11{clip-path:url(#SVGID_3_);fill:#543C52;}
	.st12{clip-path:url(#SVGID_5_);fill:#543C52;}
	.st13{clip-path:url(#SVGID_7_);fill:#543C52;}
	.st14{fill:#361D32;}
	.st15{fill:#B79797;}
	.st16{fill:#CCB9B9;stroke:#FFFFFF;stroke-width:0.3993;stroke-linejoin:bevel;stroke-miterlimit:10;}
	.st17{clip-path:url(#SVGID_9_);fill:#361D32;}
	.st18{clip-path:url(#SVGID_11_);fill:#361D32;}
	.st19{clip-path:url(#SVGID_13_);fill:#361D32;}
</style>
<g>
	<g>
		<line class="st0" x1="103.6" y1="285" x2="103.5" y2="301.1"/>
		<polygon class="st1" points="173.7,158.8 232.8,188.9 232.6,143.3 173.6,113.5 		"/>
		<polygon class="st2" points="20.6,237.7 104.3,280.1 246.4,208.6 246.7,192.1 167.5,155.9 20.6,230 		"/>
		<polygon class="st2" points="20.6,239 20.8,223 104.4,263.9 104.1,280.1 		"/>
		<polygon class="st2" points="3,243 3,256.4 104.8,307.7 276.5,221.2 276.3,207.5 104.6,292.9 		"/>
		<path class="st3" d="M21.1,222.9c0,0,83.4,41.1,83.5,41l141.9-71.8l-83.9-40.5L21.1,222.9z"/>
		<polygon class="st3" points="104.1,292.9 276.6,207.5 174.6,158 3.3,242 		"/>
		<polygon class="st2" points="20.6,237.7 104,280.8 249.3,206.9 249.6,190.4 167.5,155.9 20.6,230 		"/>
		<polygon class="st1" points="20.6,239 20.8,223 104,264.9 103.9,280.9 		"/>
		<polygon class="st1" points="3.5,242 3.5,258.1 104,308.6 277.1,220.8 276.8,207.1 104,293 		"/>
		<path class="st4" d="M21.1,222.9l82.8,41.9L250.2,190l-83.9-40.5L21.1,222.9z"/>
		<g>
			<polygon class="st2" points="50.6,221.7 175.9,158.3 175.8,113.7 47.8,180.2 			"/>
		</g>
		<g>
			<g>
				<ellipse class="st5" cx="226.6" cy="158" rx="0.7" ry="0.3"/>
				<path class="st5" d="M225.9,157.1c0,0,0,0.8,0,0.9c0,0.1,1.1,0.4,1.5,0v-0.9H225.9z"/>
				<ellipse class="st6" cx="226.6" cy="157.3" rx="0.7" ry="0.3"/>
			</g>
			<g>
				<ellipse class="st5" cx="225.2" cy="158.7" rx="0.7" ry="0.3"/>
				<path class="st5" d="M224.4,158c0,0,0,0.8,0,0.9c0,0.1,1.1,0.4,1.5,0V158H224.4z"/>
				<ellipse class="st6" cx="225.2" cy="158" rx="0.7" ry="0.3"/>
			</g>
			<g>
				<ellipse class="st5" cx="223.6" cy="159.5" rx="0.7" ry="0.3"/>
				<path class="st5" d="M222.9,158.7c0,0,0,0.8,0,0.9c0,0.1,1.1,0.4,1.5,0v-0.9H222.9z"/>
				<ellipse class="st6" cx="223.6" cy="158.7" rx="0.7" ry="0.3"/>
			</g>
			<g>
				<ellipse class="st5" cx="222.1" cy="160.2" rx="0.7" ry="0.3"/>
				<path class="st5" d="M221.4,159.5c0,0,0,0.8,0,0.9c0,0.1,1.1,0.4,1.5,0v-0.9H221.4z"/>
				<ellipse class="st6" cx="222.1" cy="159.5" rx="0.7" ry="0.3"/>
			</g>
			<g>
				<ellipse class="st5" cx="220.7" cy="161" rx="0.7" ry="0.3"/>
				<path class="st5" d="M219.8,160.2c0,0,0,0.8,0,0.9c0,0.1,1,0.4,1.5,0v-0.9H219.8z"/>
				<ellipse class="st6" cx="220.7" cy="160.2" rx="0.7" ry="0.3"/>
			</g>
			<g>
				<ellipse class="st5" cx="219.1" cy="161.8" rx="0.7" ry="0.3"/>
				<path class="st5" d="M218.3,160.9c0,0,0,0.8,0,0.9c0,0.1,1.1,0.4,1.5,0v-0.9H218.3z"/>
				<ellipse class="st6" cx="219.1" cy="160.9" rx="0.7" ry="0.3"/>
			</g>
			<g>
				<ellipse class="st5" cx="217.6" cy="162.5" rx="0.7" ry="0.3"/>
				<path class="st5" d="M216.9,161.7c0,0,0,0.8,0,0.9c0,0.1,1.1,0.4,1.5,0v-0.9H216.9z"/>
				<ellipse class="st6" cx="217.6" cy="161.8" rx="0.7" ry="0.3"/>
			</g>
			<g>
				<ellipse class="st5" cx="216" cy="163.2" rx="0.7" ry="0.3"/>
				<path class="st5" d="M215.3,162.4c0,0,0,0.8,0,0.9c0,0.1,1.1,0.4,1.5,0v-0.9H215.3z"/>
				<ellipse class="st6" cx="216" cy="162.5" rx="0.7" ry="0.3"/>
			</g>
			<g>
				<ellipse class="st5" cx="214.6" cy="164" rx="0.7" ry="0.3"/>
				<path class="st5" d="M213.8,163.1c0,0,0,0.8,0,0.9c0,0.1,1.1,0.4,1.5,0v-0.9H213.8z"/>
				<ellipse class="st6" cx="214.6" cy="163.2" rx="0.7" ry="0.3"/>
			</g>
			<g>
				<ellipse class="st5" cx="213.1" cy="164.7" rx="0.7" ry="0.3"/>
				<path class="st5" d="M212.3,163.9c0,0,0,0.8,0,0.9c0,0.1,1,0.4,1.5,0v-0.9H212.3z"/>
				<ellipse class="st6" cx="213.1" cy="164" rx="0.7" ry="0.3"/>
			</g>
			<g>
				<ellipse class="st5" cx="211.5" cy="165.4" rx="0.7" ry="0.3"/>
				<path class="st5" d="M210.8,164.7c0,0,0,0.8,0,0.9c0,0.1,1.1,0.4,1.5,0v-0.9H210.8z"/>
				<ellipse class="st6" cx="211.5" cy="164.7" rx="0.7" ry="0.3"/>
			</g>
			<g>
				<ellipse class="st5" cx="210.1" cy="166.2" rx="0.7" ry="0.3"/>
				<path class="st5" d="M209.3,165.4c0,0,0,0.8,0,0.9c0,0.1,1,0.4,1.5,0v-0.9H209.3z"/>
				<ellipse class="st6" cx="210.1" cy="165.4" rx="0.7" ry="0.3"/>
			</g>
			<g>
				<ellipse class="st5" cx="208.5" cy="166.9" rx="0.7" ry="0.3"/>
				<path class="st5" d="M207.7,166.2c0,0,0,0.8,0,0.9c0,0.1,1.1,0.4,1.5,0v-0.9H207.7z"/>
				<ellipse class="st6" cx="208.5" cy="166.2" rx="0.7" ry="0.3"/>
			</g>
			<g>
				<ellipse class="st5" cx="207" cy="167.8" rx="0.7" ry="0.3"/>
				<path class="st5" d="M206.3,166.9c0,0,0,0.8,0,0.9c0,0.1,1.1,0.4,1.5,0v-0.9H206.3z"/>
				<ellipse class="st6" cx="207" cy="166.9" rx="0.7" ry="0.3"/>
			</g>
			<g>
				<ellipse class="st5" cx="205.5" cy="168.5" rx="0.7" ry="0.3"/>
				<path class="st5" d="M204.7,167.6c0,0,0,0.8,0,0.9c0,0.1,1,0.4,1.5,0v-0.9H204.7z"/>
				<ellipse class="st6" cx="205.5" cy="167.6" rx="0.7" ry="0.3"/>
			</g>
			<g>
				<ellipse class="st5" cx="204" cy="169.2" rx="0.7" ry="0.3"/>
				<path class="st5" d="M203.2,168.4c0,0,0,0.8,0,0.9c0,0.1,1.1,0.4,1.5,0v-0.9H203.2z"/>
				<ellipse class="st6" cx="204" cy="168.5" rx="0.7" ry="0.3"/>
			</g>
			<g>
				<ellipse class="st5" cx="202.5" cy="170" rx="0.7" ry="0.3"/>
				<path class="st5" d="M201.8,169.1c0,0,0,0.8,0,0.9c0,0.1,1,0.4,1.5,0v-0.9H201.8z"/>
				<ellipse class="st6" cx="202.5" cy="169.2" rx="0.7" ry="0.3"/>
			</g>
			<g>
				<ellipse class="st5" cx="200.9" cy="170.7" rx="0.7" ry="0.3"/>
				<path class="st5" d="M200.2,169.9c0,0,0,0.8,0,0.9c0,0.1,1.1,0.4,1.5,0v-0.9H200.2z"/>
				<ellipse class="st6" cx="200.9" cy="170" rx="0.7" ry="0.3"/>
			</g>
			<g>
				<ellipse class="st5" cx="199.4" cy="171.4" rx="0.7" ry="0.3"/>
				<path class="st5" d="M198.7,170.6c0,0,0,0.8,0,0.9c0,0.1,1.1,0.4,1.5,0v-0.9H198.7z"/>
				<ellipse class="st6" cx="199.4" cy="170.7" rx="0.7" ry="0.3"/>
			</g>
			<g>
				<ellipse class="st5" cx="198" cy="172.2" rx="0.7" ry="0.3"/>
				<path class="st5" d="M197.1,171.4c0,0,0,0.8,0,0.9c0,0.1,1,0.4,1.5,0v-0.9H197.1z"/>
				<ellipse class="st6" cx="198" cy="171.4" rx="0.7" ry="0.3"/>
			</g>
			<g>
				<ellipse class="st5" cx="196.4" cy="172.9" rx="0.7" ry="0.3"/>
				<path class="st5" d="M195.7,172.2c0,0,0,0.8,0,0.9c0,0.1,1.1,0.4,1.5,0v-0.9H195.7z"/>
				<ellipse class="st6" cx="196.4" cy="172.2" rx="0.7" ry="0.3"/>
			</g>
			<g>
				<ellipse class="st5" cx="194.9" cy="173.6" rx="0.7" ry="0.3"/>
				<path class="st5" d="M194.2,172.9c0,0,0,0.8,0,0.9c0,0.1,1,0.4,1.5,0v-0.9H194.2z"/>
				<ellipse class="st6" cx="194.9" cy="172.9" rx="0.7" ry="0.3"/>
			</g>
			<g>
				<ellipse class="st5" cx="193.4" cy="174.5" rx="0.7" ry="0.3"/>
				<path class="st5" d="M192.6,173.6c0,0,0,0.8,0,0.9c0,0.1,1.1,0.4,1.5,0v-0.9C194.1,173.6,192.6,173.6,192.6,173.6z"/>
				<ellipse class="st6" cx="193.4" cy="173.6" rx="0.7" ry="0.3"/>
			</g>
			<g>
				<ellipse class="st5" cx="191.9" cy="175.2" rx="0.7" ry="0.3"/>
				<path class="st5" d="M191.2,174.4c0,0,0,0.8,0,0.9c0,0.1,1.1,0.4,1.5,0v-0.9H191.2z"/>
				<ellipse class="st6" cx="191.9" cy="174.4" rx="0.7" ry="0.3"/>
			</g>
			<g>
				<ellipse class="st5" cx="190.4" cy="175.9" rx="0.7" ry="0.3"/>
				<path class="st5" d="M189.6,175.1c0,0,0,0.8,0,0.9c0,0.1,1,0.4,1.5,0v-0.9H189.6z"/>
				<ellipse class="st6" cx="190.4" cy="175.2" rx="0.7" ry="0.3"/>
			</g>
			<g>
				<ellipse class="st5" cx="188.8" cy="176.7" rx="0.7" ry="0.3"/>
				<path class="st5" d="M188.1,175.8c0,0,0,0.8,0,0.9c0,0.1,1.1,0.4,1.5,0v-0.9H188.1z"/>
				<ellipse class="st6" cx="188.8" cy="175.9" rx="0.7" ry="0.3"/>
			</g>
			<g>
				<ellipse class="st5" cx="187.4" cy="177.4" rx="0.7" ry="0.3"/>
				<path class="st5" d="M186.6,176.6c0,0,0,0.8,0,0.9s1,0.4,1.5,0v-0.9H186.6z"/>
				<ellipse class="st6" cx="187.4" cy="176.7" rx="0.7" ry="0.3"/>
			</g>
			<g>
				<ellipse class="st5" cx="185.8" cy="178.1" rx="0.7" ry="0.3"/>
				<path class="st5" d="M185.1,177.3c0,0,0,0.8,0,0.9c0,0.1,1.1,0.4,1.5,0v-0.9H185.1z"/>
				<ellipse class="st6" cx="185.8" cy="177.4" rx="0.7" ry="0.3"/>
			</g>
			<g>
				<ellipse class="st5" cx="184.3" cy="178.9" rx="0.7" ry="0.3"/>
				<path class="st5" d="M183.6,178.1c0,0,0,0.8,0,0.9c0,0.1,1.1,0.4,1.5,0v-0.9H183.6z"/>
				<ellipse class="st6" cx="184.3" cy="178.1" rx="0.7" ry="0.3"/>
			</g>
			<g>
				<ellipse class="st5" cx="182.9" cy="179.6" rx="0.7" ry="0.3"/>
				<path class="st5" d="M182,178.9c0,0,0,0.8,0,0.9s1.1,0.4,1.5,0v-0.9H182z"/>
				<ellipse class="st6" cx="182.9" cy="178.9" rx="0.7" ry="0.3"/>
			</g>
			<g>
				<ellipse class="st5" cx="181.3" cy="180.4" rx="0.7" ry="0.3"/>
				<path class="st5" d="M180.5,179.6c0,0,0,0.8,0,0.9c0,0.1,1.1,0.4,1.5,0v-0.9H180.5z"/>
				<ellipse class="st6" cx="181.3" cy="179.6" rx="0.7" ry="0.3"/>
			</g>
			<g>
				<ellipse class="st5" cx="179.8" cy="181.2" rx="0.7" ry="0.3"/>
				<path class="st5" d="M179.1,180.4c0,0,0,0.8,0,0.9c0,0.1,1,0.4,1.5,0v-0.9H179.1z"/>
				<ellipse class="st6" cx="179.8" cy="180.4" rx="0.7" ry="0.3"/>
			</g>
			<g>
				<ellipse class="st5" cx="178.2" cy="181.9" rx="0.7" ry="0.3"/>
				<path class="st5" d="M177.5,181.1c0,0,0,0.8,0,0.9c0,0.1,1.1,0.4,1.5,0v-0.9H177.5z"/>
				<ellipse class="st6" cx="178.2" cy="181.1" rx="0.7" ry="0.3"/>
			</g>
			<g>
				<ellipse class="st5" cx="176.8" cy="182.7" rx="0.7" ry="0.3"/>
				<path class="st5" d="M176,181.8c0,0,0,0.8,0,0.9s1.1,0.4,1.5,0v-0.9H176z"/>
				<ellipse class="st6" cx="176.8" cy="181.8" rx="0.7" ry="0.3"/>
			</g>
			<g>
				<ellipse class="st5" cx="175.3" cy="183.4" rx="0.7" ry="0.3"/>
				<path class="st5" d="M174.5,182.6c0,0,0,0.8,0,0.9c0,0.1,1.1,0.4,1.5,0v-0.9H174.5z"/>
				<ellipse class="st6" cx="175.3" cy="182.7" rx="0.7" ry="0.3"/>
			</g>
			<g>
				<ellipse class="st5" cx="173.7" cy="184.1" rx="0.7" ry="0.3"/>
				<path class="st5" d="M173,183.3c0,0,0,0.8,0,0.9c0,0.1,1.1,0.4,1.5,0v-0.9H173z"/>
				<ellipse class="st6" cx="173.7" cy="183.4" rx="0.7" ry="0.3"/>
			</g>
			<g>
				<ellipse class="st5" cx="172.3" cy="184.9" rx="0.7" ry="0.3"/>
				<path class="st5" d="M171.5,184c0,0,0,0.8,0,0.9c0,0.1,1.1,0.4,1.5,0V184H171.5z"/>
				<ellipse class="st6" cx="172.3" cy="184.1" rx="0.7" ry="0.3"/>
			</g>
			<g>
				<ellipse class="st5" cx="170.7" cy="185.6" rx="0.7" ry="0.3"/>
				<path class="st5" d="M169.9,184.9c0,0,0,0.8,0,0.9c0,0.1,1,0.4,1.5,0v-0.9H169.9z"/>
				<ellipse class="st6" cx="170.7" cy="184.9" rx="0.7" ry="0.3"/>
			</g>
			<g>
				<ellipse class="st5" cx="169.2" cy="186.3" rx="0.7" ry="0.3"/>
				<path class="st5" d="M168.5,185.6c0,0,0,0.8,0,0.9c0,0.1,1.1,0.4,1.5,0v-0.9H168.5z"/>
				<ellipse class="st6" cx="169.2" cy="185.6" rx="0.7" ry="0.3"/>
			</g>
			<g>
				<ellipse class="st5" cx="167.7" cy="187.1" rx="0.7" ry="0.3"/>
				<path class="st5" d="M166.9,186.3c0,0,0,0.8,0,0.9c0,0.1,1.1,0.4,1.5,0v-0.9H166.9z"/>
				<ellipse class="st6" cx="167.7" cy="186.3" rx="0.7" ry="0.3"/>
			</g>
			<g>
				<ellipse class="st5" cx="166.2" cy="187.9" rx="0.7" ry="0.3"/>
				<path class="st5" d="M165.4,187.1c0,0,0,0.8,0,0.9s1.1,0.4,1.5,0v-0.9H165.4z"/>
				<ellipse class="st6" cx="166.2" cy="187.1" rx="0.7" ry="0.3"/>
			</g>
			<g>
				<ellipse class="st5" cx="164.7" cy="188.6" rx="0.7" ry="0.3"/>
				<path class="st5" d="M164,187.8c0,0,0,0.8,0,0.9c0,0.1,1.1,0.4,1.5,0v-0.9H164z"/>
				<ellipse class="st6" cx="164.7" cy="187.8" rx="0.7" ry="0.3"/>
			</g>
			<g>
				<ellipse class="st5" cx="163.1" cy="189.4" rx="0.7" ry="0.3"/>
				<path class="st5" d="M162.4,188.5c0,0,0,0.8,0,0.9c0,0.1,1,0.4,1.5,0v-0.9H162.4z"/>
				<ellipse class="st6" cx="163.1" cy="188.5" rx="0.7" ry="0.3"/>
			</g>
			<g>
				<ellipse class="st5" cx="161.6" cy="190.1" rx="0.7" ry="0.3"/>
				<path class="st5" d="M160.9,189.3c0,0,0,0.8,0,0.9c0,0.1,1.1,0.4,1.5,0v-0.9H160.9z"/>
				<ellipse class="st6" cx="161.6" cy="189.4" rx="0.7" ry="0.3"/>
			</g>
			<g>
				<ellipse class="st5" cx="160.2" cy="190.9" rx="0.7" ry="0.3"/>
				<path class="st5" d="M159.3,190c0,0,0,0.8,0,0.9s1.1,0.4,1.5,0V190H159.3z"/>
				<ellipse class="st6" cx="160.2" cy="190.1" rx="0.7" ry="0.3"/>
			</g>
			<g>
				<ellipse class="st5" cx="158.6" cy="191.6" rx="0.7" ry="0.3"/>
				<path class="st5" d="M157.9,190.7c0,0,0,0.8,0,0.9c0,0.1,1.1,0.4,1.5,0v-0.9H157.9z"/>
				<ellipse class="st6" cx="158.6" cy="190.9" rx="0.7" ry="0.3"/>
			</g>
			<g>
				<ellipse class="st5" cx="157.1" cy="192.3" rx="0.7" ry="0.3"/>
				<path class="st5" d="M156.4,191.6c0,0,0,0.8,0,0.9s1.1,0.4,1.5,0v-0.9H156.4z"/>
				<ellipse class="st6" cx="157.1" cy="191.6" rx="0.7" ry="0.3"/>
			</g>
			<g>
				<ellipse class="st5" cx="155.6" cy="193.1" rx="0.7" ry="0.3"/>
				<path class="st5" d="M154.8,192.3c0,0,0,0.8,0,0.9c0,0.1,1,0.4,1.5,0v-0.9H154.8z"/>
				<ellipse class="st6" cx="155.6" cy="192.3" rx="0.7" ry="0.3"/>
			</g>
			<g>
				<ellipse class="st5" cx="154.1" cy="193.8" rx="0.7" ry="0.3"/>
				<path class="st5" d="M153.4,193.1c0,0,0,0.8,0,0.9c0,0.1,1.1,0.4,1.5,0v-0.9H153.4z"/>
				<ellipse class="st6" cx="154.1" cy="193.1" rx="0.7" ry="0.3"/>
			</g>
			<g>
				<ellipse class="st5" cx="152.6" cy="194.6" rx="0.7" ry="0.3"/>
				<path class="st5" d="M151.8,193.8c0,0,0,0.8,0,0.9c0,0.1,1.1,0.4,1.5,0v-0.9H151.8z"/>
				<ellipse class="st6" cx="152.6" cy="193.8" rx="0.7" ry="0.3"/>
			</g>
			<g>
				<ellipse class="st5" cx="151" cy="195.4" rx="0.7" ry="0.3"/>
				<path class="st5" d="M150.3,194.5c0,0,0,0.8,0,0.9c0,0.1,1.1,0.4,1.5,0v-0.9H150.3z"/>
				<ellipse class="st6" cx="151" cy="194.5" rx="0.7" ry="0.3"/>
			</g>
			<g>
				<ellipse class="st5" cx="149.6" cy="196.1" rx="0.7" ry="0.3"/>
				<path class="st5" d="M148.7,195.3c0,0,0,0.8,0,0.9s1.1,0.4,1.5,0v-0.9H148.7z"/>
				<ellipse class="st6" cx="149.6" cy="195.3" rx="0.7" ry="0.3"/>
			</g>
			<g>
				<ellipse class="st5" cx="148" cy="196.8" rx="0.7" ry="0.3"/>
				<path class="st5" d="M147.3,196c0,0,0,0.8,0,0.9c0,0.1,1,0.4,1.5,0V196H147.3z"/>
				<ellipse class="st6" cx="148" cy="196.1" rx="0.7" ry="0.3"/>
			</g>
			<g>
				<ellipse class="st5" cx="146.5" cy="197.6" rx="0.7" ry="0.3"/>
				<path class="st5" d="M145.8,196.7c0,0,0,0.8,0,0.9c0,0.1,1.1,0.4,1.5,0v-0.9H145.8z"/>
				<ellipse class="st6" cx="146.5" cy="196.8" rx="0.7" ry="0.3"/>
			</g>
			<g>
				<ellipse class="st5" cx="145.1" cy="198.3" rx="0.7" ry="0.3"/>
				<path class="st5" d="M144.2,197.5c0,0,0,0.8,0,0.9s1.1,0.4,1.5,0v-0.9H144.2z"/>
				<ellipse class="st6" cx="145.1" cy="197.6" rx="0.7" ry="0.3"/>
			</g>
			<g>
				<ellipse class="st5" cx="143.5" cy="199" rx="0.7" ry="0.3"/>
				<path class="st5" d="M142.7,198.3c0,0,0,0.8,0,0.9c0,0.1,1.1,0.4,1.5,0v-0.9H142.7z"/>
				<ellipse class="st6" cx="143.5" cy="198.3" rx="0.7" ry="0.3"/>
			</g>
			<g>
				<ellipse class="st5" cx="142" cy="199.8" rx="0.7" ry="0.3"/>
				<path class="st5" d="M141.2,199c0,0,0,0.8,0,0.9c0,0.1,1.1,0.4,1.5,0V199H141.2z"/>
				<ellipse class="st6" cx="142" cy="199" rx="0.7" ry="0.3"/>
			</g>
			<g>
				<ellipse class="st5" cx="140.4" cy="200.5" rx="0.7" ry="0.3"/>
				<path class="st5" d="M139.7,199.8c0,0,0,0.8,0,0.9c0,0.1,1,0.4,1.5,0v-0.9H139.7z"/>
				<ellipse class="st6" cx="140.4" cy="199.8" rx="0.7" ry="0.3"/>
			</g>
			<g>
				<ellipse class="st5" cx="139" cy="201.4" rx="0.7" ry="0.3"/>
				<path class="st5" d="M138.2,200.5c0,0,0,0.8,0,0.9s1.1,0.4,1.5,0v-0.9H138.2z"/>
				<ellipse class="st6" cx="139" cy="200.5" rx="0.7" ry="0.3"/>
			</g>
			<g>
				<ellipse class="st5" cx="137.5" cy="202.1" rx="0.7" ry="0.3"/>
				<path class="st5" d="M136.7,201.2c0,0,0,0.8,0,0.9c0,0.1,1.1,0.4,1.5,0v-0.9H136.7z"/>
				<ellipse class="st6" cx="137.5" cy="201.2" rx="0.7" ry="0.3"/>
			</g>
			<g>
				<ellipse class="st5" cx="135.9" cy="202.8" rx="0.7" ry="0.3"/>
				<path class="st5" d="M135.2,202c0,0,0,0.8,0,0.9c0,0.1,1.1,0.4,1.5,0V202H135.2z"/>
				<ellipse class="st6" cx="135.9" cy="202" rx="0.7" ry="0.3"/>
			</g>
			<g>
				<ellipse class="st5" cx="134.5" cy="203.6" rx="0.7" ry="0.3"/>
				<path class="st5" d="M133.6,202.7c0,0,0,0.8,0,0.9c0,0.1,1.1,0.4,1.5,0v-0.9H133.6z"/>
				<ellipse class="st6" cx="134.5" cy="202.8" rx="0.7" ry="0.3"/>
			</g>
			<g>
				<ellipse class="st5" cx="132.9" cy="204.3" rx="0.7" ry="0.3"/>
				<path class="st5" d="M132.1,203.5c0,0,0,0.8,0,0.9c0,0.1,1.1,0.4,1.5,0v-0.9H132.1z"/>
				<ellipse class="st6" cx="132.9" cy="203.6" rx="0.7" ry="0.3"/>
			</g>
			<g>
				<ellipse class="st5" cx="131.4" cy="205" rx="0.7" ry="0.3"/>
				<path class="st5" d="M130.7,204.2c0,0,0,0.8,0,0.9c0,0.1,1.1,0.4,1.5,0v-0.9H130.7z"/>
				<ellipse class="st6" cx="131.4" cy="204.3" rx="0.7" ry="0.3"/>
			</g>
			<g>
				<ellipse class="st5" cx="129.9" cy="205.8" rx="0.7" ry="0.3"/>
				<path class="st5" d="M129.1,205c0,0,0,0.8,0,0.9c0,0.1,1.1,0.4,1.5,0V205H129.1z"/>
				<ellipse class="st6" cx="129.9" cy="205" rx="0.7" ry="0.3"/>
			</g>
			<g>
				<ellipse class="st5" cx="128.4" cy="206.5" rx="0.7" ry="0.3"/>
				<path class="st5" d="M127.6,205.8c0,0,0,0.8,0,0.9s1.1,0.4,1.5,0v-0.9H127.6z"/>
				<ellipse class="st6" cx="128.4" cy="205.8" rx="0.7" ry="0.3"/>
			</g>
			<g>
				<ellipse class="st5" cx="126.9" cy="207.2" rx="0.7" ry="0.3"/>
				<path class="st5" d="M126.1,206.5c0,0,0,0.8,0,0.9c0,0.1,1,0.4,1.5,0v-0.9H126.1z"/>
				<ellipse class="st6" cx="126.9" cy="206.5" rx="0.7" ry="0.3"/>
			</g>
			<g>
				<ellipse class="st5" cx="125.3" cy="208" rx="0.7" ry="0.3"/>
				<path class="st5" d="M124.6,207.2c0,0,0,0.8,0,0.9c0,0.1,1.1,0.4,1.5,0v-0.9H124.6z"/>
				<ellipse class="st6" cx="125.3" cy="207.2" rx="0.7" ry="0.3"/>
			</g>
			<g>
				<ellipse class="st5" cx="123.8" cy="208.8" rx="0.7" ry="0.3"/>
				<path class="st5" d="M123.1,208c0,0,0,0.8,0,0.9c0,0.1,1.1,0.4,1.5,0V208H123.1z"/>
				<ellipse class="st6" cx="123.8" cy="208" rx="0.7" ry="0.3"/>
			</g>
			<g>
				<ellipse class="st5" cx="122.4" cy="209.5" rx="0.7" ry="0.3"/>
				<path class="st5" d="M121.5,208.7c0,0,0,0.8,0,0.9s1.1,0.4,1.5,0v-0.9H121.5z"/>
				<ellipse class="st6" cx="122.4" cy="208.7" rx="0.7" ry="0.3"/>
			</g>
			<g>
				<ellipse class="st5" cx="120.8" cy="210.3" rx="0.7" ry="0.3"/>
				<path class="st5" d="M120.1,209.4c0,0,0,0.8,0,0.9c0,0.1,1.1,0.4,1.5,0v-0.9H120.1z"/>
				<ellipse class="st6" cx="120.8" cy="209.5" rx="0.7" ry="0.3"/>
			</g>
			<g>
				<ellipse class="st5" cx="119.3" cy="211" rx="0.7" ry="0.3"/>
				<path class="st5" d="M118.5,210.2c0,0,0,0.8,0,0.9c0,0.1,1,0.4,1.5,0v-0.9H118.5z"/>
				<ellipse class="st6" cx="119.3" cy="210.3" rx="0.7" ry="0.3"/>
			</g>
			<g>
				<ellipse class="st5" cx="117.8" cy="211.7" rx="0.7" ry="0.3"/>
				<path class="st5" d="M117,210.9c0,0,0,0.8,0,0.9c0,0.1,1,0.4,1.5,0v-0.9H117z"/>
				<ellipse class="st6" cx="117.8" cy="211" rx="0.7" ry="0.3"/>
			</g>
			<g>
				<ellipse class="st5" cx="116.3" cy="212.5" rx="0.7" ry="0.3"/>
				<path class="st5" d="M115.6,211.7c0,0,0,0.8,0,0.9c0,0.1,1,0.4,1.5,0v-0.9H115.6z"/>
				<ellipse class="st6" cx="116.3" cy="211.7" rx="0.7" ry="0.3"/>
			</g>
			<g>
				<ellipse class="st5" cx="114.7" cy="213.2" rx="0.7" ry="0.3"/>
				<path class="st5" d="M114,212.5c0,0,0,0.8,0,0.9c0,0.1,1.1,0.4,1.5,0v-0.9H114z"/>
				<ellipse class="st6" cx="114.7" cy="212.5" rx="0.7" ry="0.3"/>
			</g>
			<g>
				<ellipse class="st5" cx="113.2" cy="214" rx="0.7" ry="0.3"/>
				<path class="st5" d="M112.5,213.2c0,0,0,0.8,0,0.9c0,0.1,1.1,0.4,1.5,0v-0.9H112.5z"/>
				<ellipse class="st6" cx="113.2" cy="213.2" rx="0.7" ry="0.3"/>
			</g>
			<g>
				<ellipse class="st5" cx="111.8" cy="214.7" rx="0.7" ry="0.3"/>
				<path class="st5" d="M110.9,214c0,0,0,0.8,0,0.9s1,0.4,1.5,0V214H110.9z"/>
				<ellipse class="st6" cx="111.8" cy="214" rx="0.7" ry="0.3"/>
			</g>
			<g>
				<ellipse class="st5" cx="110.2" cy="215.5" rx="0.7" ry="0.3"/>
				<path class="st5" d="M109.5,214.7c0,0,0,0.8,0,0.9s1,0.4,1.5,0v-0.9H109.5z"/>
				<ellipse class="st6" cx="110.2" cy="214.7" rx="0.7" ry="0.3"/>
			</g>
			<g>
				<ellipse class="st5" cx="108.7" cy="216.3" rx="0.7" ry="0.3"/>
				<path class="st5" d="M108,215.4c0,0,0,0.8,0,0.9c0,0.1,1,0.4,1.5,0v-0.9H108z"/>
				<ellipse class="st6" cx="108.7" cy="215.4" rx="0.7" ry="0.3"/>
			</g>
			<g>
				<ellipse class="st5" cx="107.2" cy="217" rx="0.7" ry="0.3"/>
				<path class="st5" d="M106.4,216.2c0,0,0,0.8,0,0.9s1.1,0.4,1.5,0v-0.9H106.4z"/>
				<ellipse class="st6" cx="107.2" cy="216.3" rx="0.7" ry="0.3"/>
			</g>
			<g>
				<ellipse class="st5" cx="105.7" cy="217.7" rx="0.7" ry="0.3"/>
				<path class="st5" d="M104.9,216.9c0,0,0,0.8,0,0.9c0,0.1,1.1,0.4,1.5,0v-0.9H104.9z"/>
				<ellipse class="st6" cx="105.7" cy="217" rx="0.7" ry="0.3"/>
			</g>
			<g>
				<ellipse class="st5" cx="104.2" cy="218.5" rx="0.7" ry="0.3"/>
				<path class="st5" d="M103.4,217.6c0,0,0,0.8,0,0.9s1,0.4,1.5,0v-0.9H103.4z"/>
				<ellipse class="st6" cx="104.2" cy="217.7" rx="0.7" ry="0.3"/>
			</g>
			<g>
				<ellipse class="st5" cx="102.6" cy="219.2" rx="0.7" ry="0.3"/>
				<path class="st5" d="M101.9,218.5c0,0,0,0.8,0,0.9c0,0.1,1,0.4,1.5,0v-0.9H101.9z"/>
				<ellipse class="st6" cx="102.6" cy="218.5" rx="0.7" ry="0.3"/>
			</g>
		</g>
		<g>
			<g>
				<ellipse class="st5" cx="177.6" cy="118" rx="0.7" ry="0.3"/>
				<path class="st5" d="M176.9,117.1c0,0,0,0.8,0,0.9s1.1,0.4,1.5,0v-0.9H176.9z"/>
				<ellipse class="st6" cx="177.6" cy="117.2" rx="0.7" ry="0.3"/>
			</g>
			<g>
				<ellipse class="st5" cx="179.1" cy="118.7" rx="0.7" ry="0.3"/>
				<path class="st5" d="M178.3,118c0,0,0,0.8,0,0.9s1.1,0.4,1.5,0V118H178.3z"/>
				<ellipse class="st6" cx="179.1" cy="118" rx="0.7" ry="0.3"/>
			</g>
			<g>
				<ellipse class="st5" cx="180.7" cy="119.6" rx="0.7" ry="0.3"/>
				<path class="st5" d="M179.8,118.7c0,0,0,0.8,0,0.9s1.1,0.4,1.5,0v-0.9H179.8z"/>
				<ellipse class="st6" cx="180.7" cy="118.7" rx="0.7" ry="0.3"/>
			</g>
			<g>
				<ellipse class="st5" cx="182.1" cy="120.3" rx="0.7" ry="0.3"/>
				<path class="st5" d="M181.4,119.5c0,0,0,0.8,0,0.9s1,0.4,1.5,0v-0.9H181.4z"/>
				<ellipse class="st6" cx="182.1" cy="119.6" rx="0.7" ry="0.3"/>
			</g>
			<g>
				<ellipse class="st5" cx="183.6" cy="121" rx="0.7" ry="0.3"/>
				<path class="st5" d="M182.9,120.2c0,0,0,0.8,0,0.9s1.1,0.4,1.5,0v-0.9H182.9z"/>
				<ellipse class="st6" cx="183.6" cy="120.3" rx="0.7" ry="0.3"/>
			</g>
			<g>
				<ellipse class="st5" cx="185.2" cy="121.8" rx="0.7" ry="0.3"/>
				<path class="st5" d="M184.3,121c0,0,0,0.8,0,0.9s1,0.4,1.5,0V121H184.3z"/>
				<ellipse class="st6" cx="185.2" cy="121" rx="0.7" ry="0.3"/>
			</g>
			<g>
				<ellipse class="st5" cx="186.6" cy="122.6" rx="0.7" ry="0.3"/>
				<path class="st5" d="M185.9,121.8c0,0,0,0.8,0,0.9s1.1,0.4,1.5,0v-0.9H185.9z"/>
				<ellipse class="st6" cx="186.6" cy="121.8" rx="0.7" ry="0.3"/>
			</g>
			<g>
				<ellipse class="st5" cx="188.1" cy="123.3" rx="0.7" ry="0.3"/>
				<path class="st5" d="M187.4,122.5c0,0,0,0.8,0,0.9s1.1,0.4,1.5,0v-0.9H187.4z"/>
				<ellipse class="st6" cx="188.1" cy="122.6" rx="0.7" ry="0.3"/>
			</g>
			<g>
				<ellipse class="st5" cx="189.6" cy="124.1" rx="0.7" ry="0.3"/>
				<path class="st5" d="M188.8,123.3c0,0,0,0.8,0,0.9s1.1,0.4,1.5,0v-0.9H188.8z"/>
				<ellipse class="st6" cx="189.6" cy="123.3" rx="0.7" ry="0.3"/>
			</g>
			<g>
				<ellipse class="st5" cx="191.2" cy="124.8" rx="0.7" ry="0.3"/>
				<path class="st5" d="M190.4,124.1c0,0,0,0.8,0,0.9s1.1,0.4,1.5,0v-0.9H190.4z"/>
				<ellipse class="st6" cx="191.2" cy="124.1" rx="0.7" ry="0.3"/>
			</g>
			<g>
				<ellipse class="st5" cx="192.6" cy="125.6" rx="0.7" ry="0.3"/>
				<path class="st5" d="M191.9,124.8c0,0,0,0.8,0,0.9s1,0.4,1.5,0v-0.9H191.9z"/>
				<ellipse class="st6" cx="192.6" cy="124.8" rx="0.7" ry="0.3"/>
			</g>
			<g>
				<ellipse class="st5" cx="194.1" cy="126.4" rx="0.7" ry="0.3"/>
				<path class="st5" d="M193.4,125.5c0,0,0,0.8,0,0.9s1.1,0.4,1.5,0v-0.9H193.4z"/>
				<ellipse class="st6" cx="194.1" cy="125.6" rx="0.7" ry="0.3"/>
			</g>
			<g>
				<ellipse class="st5" cx="195.7" cy="127.1" rx="0.7" ry="0.3"/>
				<path class="st5" d="M194.8,126.4c0,0,0,0.8,0,0.9s1,0.4,1.5,0v-0.9H194.8z"/>
				<ellipse class="st6" cx="195.7" cy="126.4" rx="0.7" ry="0.3"/>
			</g>
			<g>
				<ellipse class="st5" cx="197.1" cy="127.9" rx="0.7" ry="0.3"/>
				<path class="st5" d="M196.4,127.1c0,0,0,0.8,0,0.9s1.1,0.4,1.5,0v-0.9H196.4z"/>
				<ellipse class="st6" cx="197.1" cy="127.1" rx="0.7" ry="0.3"/>
			</g>
			<g>
				<ellipse class="st5" cx="198.6" cy="128.7" rx="0.7" ry="0.3"/>
				<path class="st5" d="M197.9,127.9c0,0,0,0.8,0,0.9c0,0.1,1.1,0.4,1.5,0v-0.9H197.9z"/>
				<ellipse class="st6" cx="198.6" cy="127.9" rx="0.7" ry="0.3"/>
			</g>
			<g>
				<ellipse class="st5" cx="200.2" cy="129.4" rx="0.7" ry="0.3"/>
				<path class="st5" d="M199.3,128.6c0,0,0,0.8,0,0.9c0,0.1,1.1,0.4,1.5,0v-0.9H199.3z"/>
				<ellipse class="st6" cx="200.2" cy="128.7" rx="0.7" ry="0.3"/>
			</g>
			<g>
				<ellipse class="st5" cx="201.7" cy="130.2" rx="0.7" ry="0.3"/>
				<path class="st5" d="M200.9,129.4c0,0,0,0.8,0,0.9c0,0.1,1.1,0.4,1.5,0v-0.9H200.9z"/>
				<ellipse class="st6" cx="201.7" cy="129.4" rx="0.7" ry="0.3"/>
			</g>
			<g>
				<ellipse class="st5" cx="203.1" cy="131" rx="0.7" ry="0.3"/>
				<path class="st5" d="M202.4,130.2c0,0,0,0.8,0,0.9c0,0.1,1,0.4,1.5,0v-0.9H202.4z"/>
				<ellipse class="st6" cx="203.1" cy="130.2" rx="0.7" ry="0.3"/>
			</g>
			<g>
				<ellipse class="st5" cx="204.7" cy="131.7" rx="0.7" ry="0.3"/>
				<path class="st5" d="M203.9,130.9c0,0,0,0.8,0,0.9c0,0.1,1.1,0.4,1.5,0v-0.9H203.9z"/>
				<ellipse class="st6" cx="204.7" cy="131" rx="0.7" ry="0.3"/>
			</g>
			<g>
				<ellipse class="st5" cx="206.2" cy="132.5" rx="0.7" ry="0.3"/>
				<path class="st5" d="M205.4,131.6c0,0,0,0.8,0,0.9c0,0.1,1.1,0.4,1.5,0v-0.9H205.4z"/>
				<ellipse class="st6" cx="206.2" cy="131.7" rx="0.7" ry="0.3"/>
			</g>
			<g>
				<ellipse class="st5" cx="207.6" cy="133.2" rx="0.7" ry="0.3"/>
				<path class="st5" d="M206.9,132.5c0,0,0,0.8,0,0.9c0,0.1,1.1,0.4,1.5,0v-0.9H206.9z"/>
				<ellipse class="st6" cx="207.6" cy="132.5" rx="0.7" ry="0.3"/>
			</g>
			<g>
				<ellipse class="st5" cx="209.1" cy="134" rx="0.7" ry="0.3"/>
				<path class="st5" d="M208.4,133.2c0,0,0,0.8,0,0.9c0,0.1,1.1,0.4,1.5,0v-0.9H208.4z"/>
				<ellipse class="st6" cx="209.1" cy="133.2" rx="0.7" ry="0.3"/>
			</g>
			<g>
				<ellipse class="st5" cx="210.7" cy="134.8" rx="0.7" ry="0.3"/>
				<path class="st5" d="M209.9,133.9c0,0,0,0.8,0,0.9c0,0.1,1,0.4,1.5,0v-0.9H209.9z"/>
				<ellipse class="st6" cx="210.7" cy="134" rx="0.7" ry="0.3"/>
			</g>
			<g>
				<ellipse class="st5" cx="212.2" cy="135.5" rx="0.7" ry="0.3"/>
				<path class="st5" d="M211.4,134.7c0,0,0,0.8,0,0.9c0,0.1,1.1,0.4,1.5,0v-0.9H211.4z"/>
				<ellipse class="st6" cx="212.2" cy="134.8" rx="0.7" ry="0.3"/>
			</g>
			<g>
				<ellipse class="st5" cx="213.6" cy="136.3" rx="0.7" ry="0.3"/>
				<path class="st5" d="M212.9,135.5c0,0,0,0.8,0,0.9c0,0.1,1,0.4,1.5,0v-0.9H212.9z"/>
				<ellipse class="st6" cx="213.6" cy="135.5" rx="0.7" ry="0.3"/>
			</g>
			<g>
				<ellipse class="st5" cx="215.2" cy="137.1" rx="0.7" ry="0.3"/>
				<path class="st5" d="M214.4,136.3c0,0,0,0.8,0,0.9c0,0.1,1.1,0.4,1.5,0v-0.9C215.8,136.3,214.4,136.3,214.4,136.3z"/>
				<ellipse class="st6" cx="215.2" cy="136.3" rx="0.7" ry="0.3"/>
			</g>
			<g>
				<ellipse class="st5" cx="216.7" cy="137.8" rx="0.7" ry="0.3"/>
				<path class="st5" d="M215.9,137c0,0,0,0.8,0,0.9c0,0.1,1.1,0.4,1.5,0V137H215.9z"/>
				<ellipse class="st6" cx="216.7" cy="137.1" rx="0.7" ry="0.3"/>
			</g>
			<g>
				<ellipse class="st5" cx="218.1" cy="138.6" rx="0.7" ry="0.3"/>
				<path class="st5" d="M217.4,137.7c0,0,0,0.8,0,0.9c0,0.1,1.1,0.4,1.5,0v-0.9H217.4z"/>
				<ellipse class="st6" cx="218.1" cy="137.8" rx="0.7" ry="0.3"/>
			</g>
			<g>
				<ellipse class="st5" cx="219.7" cy="139.3" rx="0.7" ry="0.3"/>
				<path class="st5" d="M218.9,138.6c0,0,0,0.8,0,0.9c0,0.1,1.1,0.4,1.5,0v-0.9H218.9z"/>
				<ellipse class="st6" cx="219.7" cy="138.6" rx="0.7" ry="0.3"/>
			</g>
			<g>
				<ellipse class="st5" cx="221.2" cy="140.1" rx="0.7" ry="0.3"/>
				<path class="st5" d="M220.4,139.3c0,0,0,0.8,0,0.9c0,0.1,1,0.4,1.5,0v-0.9H220.4z"/>
				<ellipse class="st6" cx="221.2" cy="139.3" rx="0.7" ry="0.3"/>
			</g>
		</g>
		<g>
			<path class="st7" d="M89.1,223.3c0,0,2.6-0.1,5.6-1.2c1.2-0.4,6.4-2.3,8.2-2.4c2,0,0.5-1.1,2-1.6c3.4-1.2,7.3-2.6,17.1-5.4
				c13.9-3.7,35.3-14.4,35.3-14.4l45.8-23.1l12.2-8.2l10.8,5.9l-39.4,18.5l-26.2,13.3l-37.8,17.4l-18.4,9L89.1,223.3z"/>
			<path class="st7" d="M206.1,172.1l-2.7-9.5c0.5-1,11.8,3.7,11.2,4.7l-8.5,7.9V172.1L206.1,172.1z"/>
		</g>
		<line class="st8" x1="107.3" y1="224.9" x2="215.2" y2="174.1"/>
		<polygon class="st9" points="174.8,117.1 229.3,144.4 233.4,142.7 179,115.1 		"/>
		<polygon class="st9" points="49.7,180.1 179.9,115.7 175.6,113.6 45.7,177.9 		"/>
		<polygon class="st1" points="44.9,223.3 104,253.3 103.7,207.8 44.8,177.9 		"/>
		<polygon class="st9" points="49.7,180.1 103.5,208 107.3,206.2 53.6,178.4 		"/>
		<polygon class="st2" points="103.9,252.9 233.9,186.4 233.9,142.8 103.8,207.9 		"/>
		<polygon class="st9" points="103.7,207.9 233.6,142.8 229.8,140.9 99.7,205.7 		"/>
		<line class="st10" x1="104" y1="293.3" x2="104" y2="308.5"/>
	</g>
	<g>
		<g>
			<path id="XMLID_47_" class="st7" d="M53.8,179.6c0,0,21.4-11.3,22.2-13.3c0.7-2,31.5-15.9,33.7-16.5c2.2-0.6,21.6-8.6,21.6-8.6
				l44.6-22.4c0,0,24.8,8.8,26,11.2c1.3,2.4,18.1,11.1,18.1,11.1l7.1,1.2l-32.3,16c0,0-10.3,5.5-27.7,13.1
				c0.5,1.2-23.8,13.4-24.4,12.3l-40.3,19.7l-11.9-6.7L53.8,179.6z"/>
		</g>
		<g>
			<g>
				<defs>
					<path id="SVGID_2_" d="M53.8,179.6c0,0,21.4-11.3,22.2-13.3c0.7-2,31.5-15.9,33.7-16.5c2.2-0.6,21.6-8.6,21.6-8.6l44.6-22.4
						c0,0,24.8,8.8,26,11.2c1.3,2.4,18.1,11.1,18.1,11.1l7.1,1.2l-32.3,16c0,0-10.3,5.5-27.7,13.1c0.5,1.2-23.8,13.4-24.4,12.3
						l-40.3,19.7l-11.9-6.7L53.8,179.6z"/>
				</defs>
				<clipPath id="SVGID_3_">
					<use xlink:href="#SVGID_2_"  style="overflow:visible;"/>
				</clipPath>
				<polyline class="st11" points="201,161.2 202.4,150.7 218.1,144.8 213.3,138.2 228.4,144.7 202.6,157.6 				"/>
			</g>
		</g>
		<g>
			<g>
				<defs>
					<path id="SVGID_4_" d="M53.8,179.6c0,0,21.4-11.3,22.2-13.3c0.7-2,31.5-15.9,33.7-16.5c2.2-0.6,21.6-8.6,21.6-8.6l44.6-22.4
						c0,0,24.8,8.8,26,11.2c1.3,2.4,18.1,11.1,18.1,11.1l7.1,1.2l-32.3,16c0,0-10.3,5.5-27.7,13.1c0.5,1.2-23.8,13.4-24.4,12.3
						l-40.3,19.7l-11.9-6.7L53.8,179.6z"/>
				</defs>
				<clipPath id="SVGID_5_">
					<use xlink:href="#SVGID_4_"  style="overflow:visible;"/>
				</clipPath>
				<polygon class="st12" points="87.3,198.6 92.7,195.3 100.7,201.1 111.5,197 120.6,194.8 102.6,206.8 				"/>
			</g>
		</g>
		<g>
			<g>
				<defs>
					<path id="SVGID_6_" d="M53.8,179.6c0,0,21.4-11.3,22.2-13.3c0.7-2,31.5-15.9,33.7-16.5c2.2-0.6,21.6-8.6,21.6-8.6l44.6-22.4
						c0,0,24.8,8.8,26,11.2c1.3,2.4,18.1,11.1,18.1,11.1l7.1,1.2l-32.3,16c0,0-10.3,5.5-27.7,13.1c0.5,1.2-23.8,13.4-24.4,12.3
						l-40.3,19.7l-11.9-6.7L53.8,179.6z"/>
				</defs>
				<clipPath id="SVGID_7_">
					<use xlink:href="#SVGID_6_"  style="overflow:visible;"/>
				</clipPath>
				<path class="st13" d="M160.7,145.6c0,0,21.4,5,22.6-1.2c1.2-6.2,5.5-8.4-6.2-8.4C165.4,136,160.7,145.6,160.7,145.6z"/>
			</g>
		</g>
		<g>
			<path id="XMLID_1_" class="st10" d="M53.8,179.6c0,0,21.4-11.3,22.2-13.3c0.7-2,31.5-15.9,33.7-16.5c2.2-0.6,21.6-8.6,21.6-8.6
				l44.6-22.4c0,0,24.8,8.8,26,11.2c1.3,2.4,18.1,11.1,18.1,11.1l7.1,1.2l-32.3,16c0,0-10.3,5.5-27.7,13.1
				c0.5,1.2-23.8,13.4-24.4,12.3l-40.3,19.7l-11.9-6.7L53.8,179.6z"/>
		</g>
	</g>
	<g>
		<path class="st14" d="M67,180.9c1.4-1.3,2.7-2.4,4.2-3.6c1.4-1.2,2.8-2.3,3.8-3.8c0.5-0.7,1-1.5,1.6-2.2s1.4-1.4,2.1-1.8
			c1.7-0.9,3.6-1.3,5.4-0.7c-1.8-0.2-3.7,0.2-5.1,1.2c-0.7,0.5-1.5,1-2,1.8c-0.5,0.7-1.1,1.5-1.6,2.2c-1.1,1.6-2.6,2.7-4,3.8
			C70,178.8,68.5,179.9,67,180.9z"/>
	</g>
	<g>
		<path class="st14" d="M128.6,159.2c0.5,0.3,1.2,0.1,1.7-0.2c0.5-0.3,0.8-0.7,1.2-1.3s0.6-1.1,1.2-1.5c0.4-0.4,0.9-0.8,1.4-1.2
			c0.9-0.7,2-1.4,2.8-2.1s1.6-1.7,1.9-2.9c0,1.3-0.7,2.4-1.6,3.3c-0.8,0.9-1.9,1.6-2.8,2.2c-0.9,0.7-1.8,1.5-2.5,2.4
			c-0.4,0.4-0.7,0.9-1.4,1.3C129.8,159.6,129.1,159.7,128.6,159.2z"/>
	</g>
	<g>
		<path class="st14" d="M135,181.1c2.1-0.8,3.9-2.3,5.4-4s2.8-3.5,4.3-5.2s3-3.5,5-4.6c2-1.3,4.4-1.4,6.1-2.9
			c-1.6,1.7-4.1,2.1-5.9,3.3c-1.9,1.2-3.5,2.8-4.8,4.6c-1.5,1.7-2.8,3.6-4.4,5.2C139.2,179.1,137.2,180.5,135,181.1z"/>
	</g>
	<g>
		<path class="st14" d="M197.6,134.6c-1.3-0.4-2.4-0.9-3.6-1.5c-0.6-0.2-1.2-0.5-1.8-0.8s-1.2-0.5-1.8-0.9c-0.5-0.4-1.1-1.1-1.3-1.7
			c-0.2-0.6-0.5-1.2-0.9-1.7c-0.7-1-1.8-1.8-2.9-2.5c1.3,0.5,2.3,1.2,3.3,2.2c0.4,0.5,0.8,1.2,1.1,1.7c0.3,0.6,0.6,1.1,1.2,1.4
			c0.5,0.3,1.1,0.6,1.7,0.9c0.5,0.3,1.2,0.6,1.7,0.9C195.4,133.2,196.5,133.8,197.6,134.6z"/>
	</g>
	<g>
		<path class="st14" d="M99.6,183.8c-0.2-0.3-0.1-0.8,0.2-1.2c0.2-0.3,0.6-0.5,0.9-0.7c0.7-0.3,1.5-0.5,2.2-0.7s1.6-0.2,2.3-0.3
			c0.4,0,0.8,0,1.2,0c0.3,0,0.5-0.2,0.7-0.5c0.8-1.3,1.7-2.6,2.5-3.9s1.8-2.5,2.6-3.8c-0.7,1.4-1.5,2.7-2.3,4.1
			c-0.8,1.4-1.6,2.6-2.4,4c-0.2,0.3-0.7,0.6-1.2,0.7c-0.4,0.1-0.8,0-1.2,0c-0.7,0-1.5,0.1-2.3,0.2c-0.7,0.1-1.5,0.3-2.2,0.5
			c-0.3,0.1-0.6,0.3-0.9,0.5C99.7,183.1,99.5,183.5,99.6,183.8z"/>
	</g>
	<g>
		<path class="st14" d="M153.5,151.5c1.8-0.3,3.5-0.5,5.2-0.8c1.8-0.2,3.5-0.4,5.2-0.6c1.8-0.2,3.6-0.2,5.4,0.1
			c0.8,0.1,1.8,0.1,2.5-0.1c0.8-0.2,1.6-0.8,1.8-1.7c-0.1,0.9-0.8,1.7-1.7,2c-0.8,0.3-1.8,0.3-2.7,0.3c-1.8-0.2-3.5-0.1-5.2,0.1
			l-5.2,0.5C157,151.3,155.2,151.4,153.5,151.5z"/>
	</g>
	<g>
		<path class="st14" d="M156.1,139.4c-0.1,0-0.2-0.1-0.1-0.2c0-0.1,0.1-0.2,0.2-0.3c0.2-0.1,0.4-0.2,0.6-0.3l1.2-0.6
			c0.8-0.4,1.6-0.8,2.4-1.3c1.7-0.7,3.4-1.3,5.1-1.7c1.8-0.4,3.6-0.6,5.4-0.7c1.8-0.1,3.6-0.1,5.5-0.1h-0.1c0.4-0.1,0.7,0.2,0.8,0.4
			s0.1,0.6-0.1,0.8c-0.4,0.4-0.9,0.5-1.4,0.4c-0.4,0-0.7-0.1-1.1,0.1c-0.3,0.1-0.5,0.4-0.7,0.7c-0.9,1.3-1.9,2.5-2.9,3.7
			c-1.1,1.2-2.2,2.3-3.4,3.4c-0.3,0.2-0.6,0.5-1.1,0.6c-0.4,0.1-0.8,0-1.2,0h-2.4l2.4-0.1c0.4,0,0.8,0,1.2-0.1
			c0.4-0.1,0.6-0.3,0.9-0.6c1.2-1.1,2.2-2.2,3.3-3.5c1.1-1.2,2-2.4,2.8-3.8c0.2-0.3,0.5-0.7,0.9-0.9c0.4-0.2,0.9-0.1,1.3-0.1
			s0.7-0.1,0.8-0.2c0.1-0.1,0.1-0.2,0-0.3s-0.1-0.1-0.1-0.1l0,0h-0.1c-1.8,0-3.6,0-5.4,0.1c-1.8,0.1-3.6,0.3-5.4,0.6
			c-1.8,0.3-3.5,0.8-5.1,1.5c-0.8,0.3-1.7,0.7-2.4,1l-1.3,0.5c-0.2,0.1-0.4,0.2-0.6,0.3c-0.1,0.1-0.1,0.2-0.2,0.3
			C156,139.3,156,139.4,156.1,139.4z"/>
	</g>
	<g>
		<g>
			<g>
				<g>
					<g>
						<path id="XMLID_46_" class="st15" d="M235.9,118.2c2.5-1.8,3.5-2.9,4.4-4.6c1.1-1.6,2.3-2.2,3.4-3.2
							c0.9-0.9,77.4-46.7,82.8-50.7c0.9-0.7,1.5-3.5,1.2-4.6c-0.4-1.2-3.5-2.1-4.5-1.5c-4,2.7-82.6,54.3-82.6,54.3s-6.8,5.1-8.8,6.2
							c-2.1,1.1-13.9,4.5-8.7,5.2c0.1,0.1,0.5,0.1,0.7,0.2C226.9,122.6,233.4,120,235.9,118.2z"/>
					</g>
					<g>
						<path id="XMLID_2_" class="st10" d="M235.9,118.2c2.5-1.8,3.5-2.9,4.4-4.6c1.1-1.6,2.3-2.2,3.4-3.2
							c0.9-0.9,77.4-46.7,82.8-50.7c0.9-0.7,1.5-3.5,1.2-4.6c-0.4-1.2-3.5-2.1-4.5-1.5c-4,2.7-82.6,54.3-82.6,54.3s-6.8,5.1-8.8,6.2
							c-2.1,1.1-13.9,4.5-8.7,5.2c0.1,0.1,0.5,0.1,0.7,0.2C226.9,122.6,233.4,120,235.9,118.2z"/>
					</g>
				</g>
			</g>
			<path class="st16" d="M222,119c1.5,0.9,6.4-0.1,9.1-0.7c2.7-0.6,7.1-3.4,8.7-4.1c-0.1,0.5-2.5,2.9-3.7,3.8c-2,1.5-6.5,3-8.3,3
				C222.2,121,221.5,118.7,222,119z"/>
		</g>
	</g>
	<g>
		<g>
			<g>
				<g>
					<g>
						<g>
							<path id="SVGID_1_" class="st7" d="M221.9,120c-0.4,0.5-1.4,0.4-1.8-0.2c-0.4-0.5-0.4-1.3-0.5-2s-1.7,0-2.2-0.5
								s-0.8-1.4-1.2-1.4c-0.2,0-0.4-0.2-0.5-0.4c-0.8-1.1-1.5-2.3-1.8-3.7c-0.1-0.3-0.1-0.7,0.1-0.9c0.2-0.2,0.5-0.2,0.7-0.3
								c1.1-0.1,2.4-0.4,2.6-1.5c0.1-0.3,0-0.7,0-1c0.1-0.7,0.7-1.4,1.4-1.6c0.7-0.2,1.5-0.2,2.2-0.2c0.3,0,0.7,0,1.1-0.1
								c0.4-0.1,0.7-0.3,1.2-0.5c2.2-1.3,5-1.3,7.2,0c0.4,0.3,0.9,0.6,1.5,0.7c0.7,0.1,1.6,0,2.1,0.4c0.6,0.5,0.5,1.7,1.3,1.9
								c0.3,0.1,0.7,0,1.1,0c0.7,0.1,1.1,1.1,1.2,1.8c0.2,2.1,1.6,2.9-0.4,3.9c-0.6,0.3-0.3,2.1-0.9,2.3c-1.6,0.4-0.8,1-4,2.1
								c-3.1,1-8.8,1.6-8.8,1.6"/>
						</g>
						<g>
							<g>
								<defs>
									<path id="SVGID_8_" d="M221.9,120c-0.4,0.5-1.4,0.4-1.8-0.2c-0.4-0.5-0.4-1.3-0.5-2s-1.7,0-2.2-0.5s-0.8-1.4-1.2-1.4
										c-0.2,0-0.4-0.2-0.5-0.4c-0.8-1.1-1.5-2.3-1.8-3.7c-0.1-0.3-0.1-0.7,0.1-0.9c0.2-0.2,0.5-0.2,0.7-0.3
										c1.1-0.1,2.4-0.4,2.6-1.5c0.1-0.3,0-0.7,0-1c0.1-0.7,0.7-1.4,1.4-1.6c0.7-0.2,1.5-0.2,2.2-0.2c0.3,0,0.7,0,1.1-0.1
										c0.4-0.1,0.7-0.3,1.2-0.5c2.2-1.3,5-1.3,7.2,0c0.4,0.3,0.9,0.6,1.5,0.7c0.7,0.1,1.6,0,2.1,0.4c0.6,0.5,0.5,1.7,1.3,1.9
										c0.3,0.1,0.7,0,1.1,0c0.7,0.1,1.1,1.1,1.2,1.8c0.2,2.1,1.6,2.9-0.4,3.9c-0.6,0.3-0.3,2.1-0.9,2.3c-1.6,0.4-0.8,1-4,2.1
										c-3.1,1-8.8,1.6-8.8,1.6"/>
								</defs>
								<clipPath id="SVGID_9_">
									<use xlink:href="#SVGID_8_"  style="overflow:visible;"/>
								</clipPath>
								<path class="st17" d="M214.1,108.6l-0.5,2.8c0,0,7.2-1.2,7.7-2.2c0.5-1-1.7-2.7-1.7-2.7
									C216.5,107.9,214.1,108.6,214.1,108.6z"/>
							</g>
						</g>
						<g>
							<g>
								<defs>
									<path id="SVGID_10_" d="M221.9,120c-0.4,0.5-1.4,0.4-1.8-0.2c-0.4-0.5-0.4-1.3-0.5-2s-1.7,0-2.2-0.5s-0.8-1.4-1.2-1.4
										c-0.2,0-0.4-0.2-0.5-0.4c-0.8-1.1-1.5-2.3-1.8-3.7c-0.1-0.3-0.1-0.7,0.1-0.9c0.2-0.2,0.5-0.2,0.7-0.3
										c1.1-0.1,2.4-0.4,2.6-1.5c0.1-0.3,0-0.7,0-1c0.1-0.7,0.7-1.4,1.4-1.6c0.7-0.2,1.5-0.2,2.2-0.2c0.3,0,0.7,0,1.1-0.1
										c0.4-0.1,0.7-0.3,1.2-0.5c2.2-1.3,5-1.3,7.2,0c0.4,0.3,0.9,0.6,1.5,0.7c0.7,0.1,1.6,0,2.1,0.4c0.6,0.5,0.5,1.7,1.3,1.9
										c0.3,0.1,0.7,0,1.1,0c0.7,0.1,1.1,1.1,1.2,1.8c0.2,2.1,1.6,2.9-0.4,3.9c-0.6,0.3-0.3,2.1-0.9,2.3c-1.6,0.4-0.8,1-4,2.1
										c-3.1,1-8.8,1.6-8.8,1.6"/>
								</defs>
								<clipPath id="SVGID_11_">
									<use xlink:href="#SVGID_10_"  style="overflow:visible;"/>
								</clipPath>
								<path class="st18" d="M238.6,110l-6.7,0.5c0,0-2.1-1.3-0.6-2.4c1.5-1.2,3.4-2.3,3.4-2.3L238.6,110z"/>
							</g>
						</g>
						<g>
							<g>
								<defs>
									<path id="SVGID_12_" d="M221.9,120c-0.4,0.5-1.4,0.4-1.8-0.2c-0.4-0.5-0.4-1.3-0.5-2s-1.7,0-2.2-0.5s-0.8-1.4-1.2-1.4
										c-0.2,0-0.4-0.2-0.5-0.4c-0.8-1.1-1.5-2.3-1.8-3.7c-0.1-0.3-0.1-0.7,0.1-0.9c0.2-0.2,0.5-0.2,0.7-0.3
										c1.1-0.1,2.4-0.4,2.6-1.5c0.1-0.3,0-0.7,0-1c0.1-0.7,0.7-1.4,1.4-1.6c0.7-0.2,1.5-0.2,2.2-0.2c0.3,0,0.7,0,1.1-0.1
										c0.4-0.1,0.7-0.3,1.2-0.5c2.2-1.3,5-1.3,7.2,0c0.4,0.3,0.9,0.6,1.5,0.7c0.7,0.1,1.6,0,2.1,0.4c0.6,0.5,0.5,1.7,1.3,1.9
										c0.3,0.1,0.7,0,1.1,0c0.7,0.1,1.1,1.1,1.2,1.8c0.2,2.1,1.6,2.9-0.4,3.9c-0.6,0.3-0.3,2.1-0.9,2.3c-1.6,0.4-0.8,1-4,2.1
										c-3.1,1-8.8,1.6-8.8,1.6"/>
								</defs>
								<clipPath id="SVGID_13_">
									<use xlink:href="#SVGID_12_"  style="overflow:visible;"/>
								</clipPath>
								<polygon class="st19" points="237.1,117.8 231.7,116.9 221,119.2 220,118.4 219.7,121.8 233.2,120.9 								"/>
							</g>
						</g>
					</g>
					<g>
						<path class="st14" d="M215.8,110.6c0.5-0.1,1-0.1,1.5-0.1s1.1,0.1,1.5,0.2c0.9,0.1,1.9-0.4,2.7-0.8c-0.4,0.3-0.8,0.6-1.3,0.8
							c-0.4,0.2-0.9,0.3-1.6,0.3c-0.5-0.1-0.9-0.2-1.5-0.2C216.8,110.6,216.2,110.6,215.8,110.6z"/>
					</g>
					<g>
						<path class="st14" d="M236.4,109.1c-0.5,0.1-1.2,0.1-1.7,0.1c-0.3,0-0.5,0-0.8,0c-0.2,0-0.5,0.3-0.8,0.1
							c0.3,0.1,0.4-0.2,0.7-0.3s0.6-0.1,0.8-0.1C235.4,109,235.9,109,236.4,109.1z"/>
					</g>
					<g>
						<path class="st14" d="M219.4,117.6c-0.2-0.5,0-1.2,0.5-1.6c0.4-0.4,1.1-0.5,1.5-0.8c0.3-0.3,0.3-1.1,0.6-1.5
							c0.3-0.5,0.7-0.9,1.3-1.2c-0.5,0.3-0.8,0.7-1.2,1.3c-0.1,0.2-0.2,0.5-0.3,0.7c-0.1,0.3-0.1,0.6-0.4,0.8
							c-0.2,0.2-0.5,0.3-0.8,0.4c-0.2,0.1-0.5,0.2-0.7,0.4C219.6,116.5,219.3,117,219.4,117.6z"/>
					</g>
					<g>
						<path class="st14" d="M225,117.6c-0.1-0.2,0-0.4,0.1-0.6s0.3-0.3,0.5-0.4c0.4-0.1,0.8-0.2,1.2-0.3c0.4-0.1,0.8-0.2,1.3-0.2
							h0.6c0.2,0,0.4,0,0.5-0.2c-0.1,0.2-0.3,0.3-0.5,0.3l-0.6,0.1c-0.4,0.1-0.8,0.2-1.3,0.3c-0.4,0.1-0.8,0.2-1.2,0.3
							C225.3,116.8,224.9,117.1,225,117.6z"/>
					</g>
					<g>
						<path class="st14" d="M232.7,117.8c-1.5,0.1-2.8,0.1-4.3,0.1c-0.7,0-1.5-0.1-2,0.3c-0.1,0.1-0.3,0.2-0.5,0.2s-0.4-0.1-0.5-0.2
							c-0.2-0.1-0.3-0.2-0.4-0.2c-0.1-0.1-0.3-0.1-0.4,0.1l0,0l0.1,0.5l-0.2-0.4l0,0l0,0c0.1-0.2,0.3-0.2,0.5-0.1s0.3,0.1,0.5,0.2
							c0.3,0.2,0.6,0.1,0.9-0.1c0.3-0.2,0.6-0.4,1.1-0.4s0.7,0,1.1,0C229.9,117.7,231.3,117.7,232.7,117.8z"/>
					</g>
					<g>
						<path class="st14" d="M228.1,111.9c1.5-0.2,3-0.4,4.5,0.1c0.3,0.1,0.7,0.3,1.1,0.5c0.3,0.1,0.7,0.2,1.1,0.2
							c0.7,0,1.5-0.1,2.3-0.1c-0.7,0.1-1.5,0.2-2.2,0.3c-0.4,0-0.8,0-1.2-0.1s-0.7-0.3-1.1-0.4C231.2,111.7,229.6,111.9,228.1,111.9
							z"/>
					</g>
					<g>
						<path class="st14" d="M221.7,106.3c0.5-0.2,1.2-0.2,1.7-0.1s1,0.4,1.6,0.6c0.5,0.2,1.1,0.5,1.6,0.6c0.5,0.2,1.1,0.3,1.7,0.1
							c-0.5,0.2-1.2,0.2-1.7,0c-0.5-0.1-1.1-0.4-1.6-0.6s-1.1-0.5-1.6-0.6C222.9,106.3,222.3,106.2,221.7,106.3z"/>
					</g>
				</g>
			</g>
		</g>
	</g>
</g>
</svg>
