<?xml version="1.0" encoding="utf-8"?>
<!-- Generator: Adobe Illustrator 25.2.3, SVG Export Plug-In . SVG Version: 6.00 Build 0)  -->
<svg version="1.1" id="Layer_1" xmlns="http://www.w3.org/2000/svg" xmlns:xlink="http://www.w3.org/1999/xlink" x="0px" y="0px"
	 viewBox="0 0 140 200" style="enable-background:new 0 0 140 200;" xml:space="preserve">
<style type="text/css">
	.st0{fill:#CCB9B9;stroke:#FFFFFF;stroke-width:0.2405;stroke-miterlimit:10;}
	.st1{fill:#CCB9B9;stroke:#FFFFFF;stroke-width:0.25;stroke-miterlimit:10;}
	.st2{fill:#E4DAD8;stroke:#FFFFFF;stroke-width:0.25;stroke-miterlimit:10;}
	.st3{fill:#CCB9B9;stroke:#FFFFFF;stroke-width:0.2405;stroke-linejoin:bevel;stroke-miterlimit:10;}
	.st4{fill:#CCB9B9;stroke:#FFFFFF;stroke-width:0.25;stroke-linejoin:bevel;stroke-miterlimit:10;}
	.st5{fill:#E4DAD8;stroke:#FFFFFF;stroke-width:0.25;stroke-linejoin:bevel;stroke-miterlimit:10;}
	.st6{fill:#DC3359;stroke:#FFFFFF;stroke-width:0.2405;stroke-miterlimit:10;}
	.st7{fill:#C42C54;stroke:#FFFFFF;stroke-width:0.25;stroke-miterlimit:10;}
	.st8{fill:#C42C54;stroke:#FFFFFF;stroke-width:0.265;stroke-miterlimit:10;}
	.st9{fill:none;stroke:#B71148;stroke-width:0.265;stroke-miterlimit:10;}
	.st10{fill:none;stroke:#B71148;stroke-width:0.265;stroke-linecap:round;stroke-miterlimit:10;}
	.st11{fill:#B71148;}
	.st12{fill:#B71148;stroke:#FFFFFF;stroke-width:0.2405;stroke-miterlimit:10;}
	.st13{fill:#B71148;stroke:#FFFFFF;stroke-width:0.25;stroke-miterlimit:10;}
	.st14{fill:#B71148;stroke:#FFFFFF;stroke-width:0.2562;stroke-miterlimit:10;}
	.st15{fill:#F77441;stroke:#FFFFFF;stroke-width:0.2671;stroke-miterlimit:10;}
	.st16{fill:none;stroke:#FFFFFF;stroke-width:0.2671;stroke-miterlimit:10;}
	.st17{fill:none;stroke:#FFFFFF;stroke-width:0.265;stroke-miterlimit:10;}
	.st18{fill:#F77441;stroke:#FFFFFF;stroke-width:0.265;stroke-miterlimit:10;}
	.st19{fill:#DC3359;stroke:#FFFFFF;stroke-width:0.25;stroke-miterlimit:10;}
	.st20{fill:none;stroke:#B71148;stroke-width:1.537;stroke-linecap:round;stroke-miterlimit:10;}
	.st21{fill:#C42C54;}
</style>
<g>
	<line class="st0" x1="56.2" y1="173.2" x2="56.2" y2="180.7"/>
	<line class="st0" x1="56" y1="173.1" x2="55.9" y2="180.9"/>
	<g>
		<polygon class="st1" points="9.4,163.6 52,185.2 124.3,148.8 124.4,140.4 84.1,122 9.4,159.6 		"/>
		<polygon class="st0" points="9.4,164.3 9.5,156.1 52.1,176.9 51.9,185.2 		"/>
		<polygon class="st1" points="0.4,166.3 0.4,173.1 52.2,199.2 139.4,155.2 139.5,148.2 52.2,191.7 		"/>
		<polygon class="st2" points="51.9,191.7 139.6,148.3 87.7,123 0.6,165.7 		"/>
		<polygon class="st1" points="9.4,163.6 51.8,185.5 125.7,147.9 125.9,139.5 84.1,122 9.4,159.6 		"/>
		<polygon class="st3" points="9.4,164.3 9.5,156.1 51.8,177.4 51.8,185.6 		"/>
		<polygon class="st4" points="0.3,165.8 0.2,174 51.4,199.7 139.3,155.2 139.3,148.1 51.4,191.8 		"/>
		<path class="st5" d="M9.6,156c0,0,42.2,21.3,42.2,21.3l74.4-38l-42.7-20.6L9.6,156z"/>
		<g>
			<polygon class="st6" points="30.4,159.6 51.8,170.3 51.8,160.5 30,149.8 			"/>
			<polygon class="st7" points="51.8,170.2 112.9,139.8 113.2,131.2 51.9,160.5 			"/>
			<line class="st8" x1="30" y1="149.8" x2="90.1" y2="119.1"/>
			<line class="st9" x1="52.9" y1="157.9" x2="106.9" y2="132.5"/>
			<path class="st10" d="M36.5,148.9C36.1,148.2,89,121,89,121"/>
			<g>
				<polygon class="st11" points="51.3,158 52.4,157.2 51.4,156.2 49.4,156 48.3,156.8 49.3,157.8 				"/>
				<path class="st11" d="M51.1,157.6l0.3-0.2c0.2-0.1,0.2-0.4,0.1-0.6l-0.2-0.2c-0.1-0.1-0.1-0.1-0.2-0.1l-1.1-0.1
					c-0.1,0-0.2,0-0.3,0.1l-0.3,0.2c-0.2,0.1-0.2,0.4-0.1,0.6l0.2,0.2c0.1,0.1,0.1,0.1,0.2,0.1l1.1,0.1
					C50.9,157.7,51,157.6,51.1,157.6z"/>
			</g>
			<g>
				<polygon class="st11" points="106.7,131.2 107.8,130.4 106.9,129.4 104.8,129.3 103.7,130 104.7,131 				"/>
				<path class="st11" d="M106.5,130.8l0.3-0.2c0.2-0.1,0.2-0.4,0.1-0.6l-0.2-0.2c-0.1-0.1-0.1-0.1-0.2-0.1l-1.1-0.1
					c-0.1,0-0.2,0-0.3,0.1l-0.3,0.2c-0.2,0.1-0.2,0.4-0.1,0.6l0.2,0.2c0.1,0.1,0.1,0.1,0.2,0.1l1.1,0.1
					C106.3,130.9,106.4,130.8,106.5,130.8z"/>
			</g>
			<g>
				<polygon class="st11" points="41.6,150.2 42.6,149.4 41.7,148.5 39.8,148.3 38.7,149.1 39.6,150 				"/>
				<path class="st11" d="M41.4,149.8l0.3-0.2c0.2-0.1,0.2-0.4,0.1-0.6l-0.2-0.2c-0.1-0.1-0.1-0.1-0.2-0.1l-1-0.1
					c-0.1,0-0.2,0-0.2,0.1l-0.3,0.2c-0.2,0.1-0.2,0.4-0.1,0.6l0.2,0.2c0.1,0.1,0.1,0.1,0.2,0.1l1,0.1
					C41.2,149.9,41.3,149.9,41.4,149.8z"/>
			</g>
			<polygon class="st12" points="25.4,156.9 51.8,170.2 51.8,160.5 25.3,147.1 			"/>
			<polygon class="st13" points="51.8,170.2 113.3,139.8 113.2,130.2 51.8,160.5 			"/>
			<path class="st14" d="M90.9,124.5l5.4-2.7c0,0-0.4,1.5,0.8,2.1s3.3-0.2,3.3-0.2l-7.4,3.3L90.9,124.5z"/>
			<g>
				<path class="st15" d="M50.1,150.4c0.2-0.1,0.1-0.8,0.1-0.8l0.9-0.4c0,0,5.1,0.4,6.9,0.4c1.4,0,3.8-0.3,5.4-1.3
					c1.6-1,2-1.8,2-1.8l0.5-0.4l1.3-0.6c0,0-0.1,0.2,0.9,0c1-0.2,2.6-1,2.6-1l2.2-1.2c0,0,0.7-0.7,0.7-0.8c0-0.1,0.5,0.2,0.6,0.1
					s2-1.1,2.2-1.1s0.6-0.5,0.6-0.6l0.8,0.1c0,0,1.7-0.9,2.1-1.2c0.1-0.1,0.2-0.6,0.2-0.6s0.4,0.3,0.6,0.2l2.3-1.1l0.5-0.6l0.3,0.2
					l3.5-1.8l0.4-0.1c0,0,0.4-0.4,0.5-0.4l0.4,0.1l3-1.7c0.1-0.1,3.9-1.4,1-7.4c-2.6-5.5-6.2-4.4-7.2-4.2c-0.6,0.1-2.5,1-2.8,1.2
					c-0.1,0.1-0.2,0.4-0.2,0.4c-0.1,0-0.3-0.1-0.4-0.1c-0.8,0.3-3.6,1.7-4.2,2.1c-0.1,0.1-0.1,0.3-0.1,0.3s-0.4,0-0.5,0
					c-0.4,0.1-1.7,0.8-2.5,1.1c-0.1,0-0.1,0.4-0.1,0.4s-0.4,0-0.6,0c-0.4,0.1-2.3,1.1-2.3,1.1c-0.1,0-0.1,0-0.1,0.1
					c-0.1,0.1-0.1,0.3,0,0.5l0,0c0,0-0.6-0.2-0.8-0.1c-0.5,0.2-2.1,0.9-2.7,1.3c-0.1,0,0,0.3-0.2,0.4c-0.1,0.1-0.5,0-0.5,0
					c-0.8,0.2-4.7,2.3-4.7,2.3l-1,1.1l-1.6,0.8l-1,0.1c0,0-2.9,0.5-5.2,2.9c-2.3,2.4-4.8,6.7-4.8,6.7l-0.7,0.4c0,0-0.2,0.2-0.3,0.2
					c-0.1,0-0.4-0.4-0.6-0.3c-0.2,0.1,0,0.7-0.2,0.9c-0.4,0.3-1.7,0.8-1.7,0.8l-0.9,0.4c0,0,0.7,0,1.5,1.6c1,2,0.6,2.7,0.6,2.7
					l2.2-1.2l0.5-0.1C49.5,150.1,50,150.4,50.1,150.4z"/>
				<path class="st16" d="M49.9,150.4c0,0-0.1-2.4-2.6-5.2"/>
				<path class="st17" d="M47.6,145.1c2.5,2.7,2.5,5,2.5,5"/>
				<path class="st15" d="M46.6,151.6c-0.4,0.2-1.3-0.8-1.8-1.9s-0.7-2.2-0.3-2.4c0.4-0.2,1.2,0.6,1.7,1.7S47,151.4,46.6,151.6z"/>
				<path class="st18" d="M45.6,149.2"/>
				<path class="st18" d="M56.3,135.3"/>
				<path class="st17" d="M73.6,142.3c0,0,0.5-2.2-1.5-6.4c-2.1-4.3-4.2-5.1-4.2-5.1"/>
				<path class="st17" d="M76.9,140.7c0,0,0.8-2.1-1.2-6.2c-2.1-4.3-4.3-5.2-4.3-5.2"/>
				<path class="st17" d="M83.4,137.5c0,0,0.9-2.4-1-6.5c-2-4.3-4.5-4.8-4.5-4.8"/>
				<path class="st17" d="M80,138.9c0,0,0.8-2.2-1.1-6.3c-2-4.3-4.4-4.9-4.4-4.9"/>
				<path class="st17" d="M88,135.2c0,0,0.9-2.4-1.1-6.7c-2.1-4.4-4.6-5-4.6-5"/>
				<path class="st17" d="M65.4,146.1c0,0-0.5-3.6-1.7-6.3c-1.1-2.7-3.8-4.9-3.8-4.9"/>
				<path class="st17" d="M67.1,145.3c0,0-0.2-3.3-1.5-6.1s-4.1-4.9-4.1-4.9"/>
			</g>
			<path class="st19" d="M99.9,123.5l-7.1,3.5c0.7,1.8,0.7,3.2,0.5,4.2c-0.5,2-2.1,2.6-2.1,2.6l-2.7,1.4l-0.4-0.2
				c-0.2,0.1-0.3,0.4-0.3,0.4l-4,2.2l-0.5-0.1l-0.6,0.6l-2.3,1.1c-0.1,0.1-0.4-0.2-0.4-0.2s-0.2,0.5-0.3,0.6
				c-0.4,0.3-2.1,1.2-2.1,1.2l-0.7-0.2c0,0.1-0.5,0.6-0.7,0.7c-0.2,0-2,1-2.1,1.1s-0.6-0.3-0.6-0.1c0,0.1-0.4,0.6-0.4,0.6l-2.5,1.5
				c0,0-1.6,0.8-2.6,1c-1,0.2-0.9,0-0.9,0l-1.3,0.6l-0.5,0.4c0,0-0.4,0.8-2,1.8c-1.6,1-4,1.3-5.4,1.3c-1.7,0-6.9-0.4-6.9-0.4
				l-0.9,0.4c0,0,0.1,0.7-0.1,0.8c-0.2,0.1-0.6-0.3-0.6-0.3l-0.5,0.1l-2.2,1.2c0,0-0.5-0.5-1.5-2.5c-0.8-1.6-0.7-1.8-0.7-1.8
				l0.9-0.4c0,0,1.2-0.5,1.7-0.8c0.2-0.1,0-0.7,0.2-0.9c0.2-0.1,0.4,0.3,0.6,0.3c0.1,0,0.3-0.2,0.3-0.2l0.7-0.4c0,0,2.6-4.3,4.8-6.7
				c2.3-2.4,5.2-2.9,5.2-2.9l1-0.1l1.6-0.8l1-1.1c0,0,3.9-2.1,4.7-2.3c0.1,0,0.4,0.1,0.5,0c0.1-0.1,0.1-0.4,0.2-0.4
				c0.5-0.4,2.2-1.1,2.7-1.3c0.1,0,0.8,0.1,0.8,0.1l0,0c-0.1-0.1-0.1-0.3,0-0.5c0,0,0.1-0.1,0.1-0.1c0,0,1.9-1,2.3-1.1
				c0.1,0,0.6,0,0.6,0s0-0.4,0.1-0.4c0.8-0.4,2.1-1,2.5-1.1c0.1,0,0.5,0,0.5,0s0-0.3,0.1-0.3c0.6-0.5,3.4-1.8,4.2-2.1
				c0.1,0,0.3,0.1,0.4,0.1c0.1,0,0.1-0.4,0.2-0.4c0.3-0.2,2.2-1.1,2.8-1.2c0.8-0.2,3.6-0.2,6.2,2.2l4.9-2.5l-9.8-5.4l-61,30.8
				l26.5,13.4l61.3-30.6L99.9,123.5z"/>
			<line class="st20" x1="56.1" y1="155" x2="102" y2="132.3"/>
			<line class="st20" x1="37.3" y1="144.2" x2="82.8" y2="120.9"/>
			<g>
				<polygon class="st11" points="87.6,120.1 88.6,119.4 87.7,118.4 85.8,118.3 84.8,119 85.6,119.9 				"/>
				<path class="st21" d="M87.4,119.7l0.3-0.2c0.2-0.1,0.2-0.4,0.1-0.6l-0.2-0.2c-0.1-0.1-0.1-0.1-0.2-0.1l-1-0.1
					c-0.1,0-0.2,0-0.2,0.1l-0.3,0.2c-0.2,0.1-0.2,0.4-0.1,0.6l0.2,0.2c0.1,0.1,0.1,0.1,0.2,0.1l1,0.1
					C87.2,119.8,87.3,119.8,87.4,119.7z"/>
			</g>
			<g>
				<polygon class="st11" points="106.5,130 107.6,129.2 106.7,128.2 104.7,128 103.6,128.8 104.5,129.8 				"/>
				<path class="st21" d="M106.3,129.6l0.3-0.2c0.2-0.1,0.2-0.4,0.1-0.6l-0.2-0.2c-0.1-0.1-0.1-0.1-0.2-0.1l-1.1-0.1
					c-0.1,0-0.2,0-0.3,0.1l-0.3,0.2c-0.2,0.1-0.2,0.4-0.1,0.6l0.2,0.2c0.1,0.1,0.1,0.1,0.2,0.1l1.1,0.1
					C106.2,129.7,106.3,129.6,106.3,129.6z"/>
			</g>
			<g>
				<polygon class="st11" points="52.2,156.7 53.3,155.9 52.3,155 50.3,154.8 49.2,155.6 50.1,156.5 				"/>
				<path class="st21" d="M52,156.3l0.3-0.2c0.2-0.1,0.2-0.4,0.1-0.6l-0.2-0.2c-0.1-0.1-0.1-0.1-0.2-0.1l-1.1-0.1
					c-0.1,0-0.2,0-0.3,0.1l-0.3,0.2c-0.2,0.1-0.2,0.4-0.1,0.6l0.2,0.2c0.1,0.1,0.1,0.1,0.2,0.1l1.1,0.1
					C51.8,156.4,51.9,156.4,52,156.3z"/>
			</g>
			<g>
				<polygon class="st11" points="37.1,148.6 38.2,147.8 37.3,146.9 35.2,146.7 34.1,147.5 35.1,148.4 				"/>
				<path class="st21" d="M36.9,148.2l0.3-0.2c0.2-0.1,0.2-0.4,0.1-0.6l-0.2-0.2c-0.1-0.1-0.1-0.1-0.2-0.1l-1.1-0.1
					c-0.1,0-0.2,0-0.3,0.1l-0.3,0.2c-0.2,0.1-0.2,0.4-0.1,0.6l0.2,0.2c0.1,0.1,0.1,0.1,0.2,0.1l1.1,0.1
					C36.7,148.3,36.8,148.3,36.9,148.2z"/>
			</g>
			<g>
				<path class="st12" d="M94.6,115.1l6.7,3.3c0,0,0.3-0.9,2.4,0s2.2,2.3,2.2,2.3l12.4,6.2l-0.6-63.5L94.5,50.6L94.6,115.1z"/>
				<path class="st21" d="M97.7,111c0,0,0.9,0.9,1.6,1.7s1.4,1.2,1.4,1.2s2.4,0.1,3.4,0.5c1,0.4,1.7,1,1.7,1.4
					c0,0.1,0.8,0.1,0.8,0.1s3.5,0,5.4-1.6c0.1-0.1,0.2-0.2,0.2-0.3c0,0-2.1-2.4-4-3.5c-1-0.6-4.8-1.4-6.4-1.6
					C99.9,108.7,97.7,111,97.7,111z"/>
				<path class="st19" d="M118.6,127.2l0.1-65.1L91.8,48.3l-0.1,65.5l10.2,5.2l0.1-5.1c-2.4-0.9-3.8-2.8-4-3.6
					c-0.2-0.6-0.2-2.6-0.2-3c0-0.1,0.3-0.3,0.3-0.4c0-0.1-0.2-0.2-0.3-0.3c-0.1-0.8-0.1-3.9,0-4.7c0-0.1,0.3-0.2,0.3-0.2
					s-0.2-0.4-0.2-0.5c-0.1-0.4-0.1-1.9-0.1-2.8c0-0.1,0.3-0.3,0.3-0.3s-0.2-0.4-0.2-0.5c-0.1-0.4,0-2.6,0-2.6c0-0.1,0-0.1,0-0.1
					c0-0.2,0.2-0.3,0.4-0.2l0,0c0,0-0.5-0.5-0.5-0.6c-0.1-0.5-0.1-2.3-0.1-3c0-0.1,0.3-0.2,0.3-0.4c0-0.2-0.2-0.4-0.2-0.5
					c-0.2-0.8-0.1-5.2-0.1-5.2l0.7-1l0-1.4L97.8,81c0,0-0.9-3.1,0.2-6.2c1.1-3.1,3.8-6.3,3.8-6.3l0.1-0.8c0,0,0.1-0.3,0-0.4
					c-0.1-0.1-0.5-0.2-0.5-0.4c0-0.2,0.7-0.3,0.7-0.5c0.1-0.5,0-1.8,0-1.8l0.2-1.3c0,0,3.3,0,4.9,1.6l-0.1,3.1v0.3
					c0,0,0.3,0.4,0.3,0.6c0,0.2-0.6,0.3-0.6,0.3v0.4c0,0,2.1,3.9,2.9,5.4c0.6,1.2,1.9,4.3,1.7,6.1c-0.2,1.8-0.8,2.3-0.8,2.3
					l-0.2,1.4l0.2,1.2c0,0,0.2,0.4,0.4,1.3c0.2,0.9,0.3,2.8,0.3,2.8l-0.1,2.5c0,0-0.3,0.9-0.4,1c-0.1,0.1,0.4,0.3,0.4,0.5
					c0,0.2-0.1,2.3,0,2.4c0.1,0.2-0.1,0.8-0.2,0.8l0.4,0.7c0,0,0,1.9-0.1,2.4c0,0.2-0.5,0.5-0.5,0.5s0.4,0.3,0.4,0.4l0,2.5l-0.3,0.7
					l0.3,0.2l-0.1,4l0.1,0.5c0,0-0.2,0.5-0.2,0.7l0.3,0.3l-0.3,3.7c0,0-0.7,2.7-5.6,1.3l-0.1,5.5L118.6,127.2z"/>
				<line class="st20" x1="94.7" y1="107.5" x2="95.1" y2="60.2"/>
				<line class="st20" x1="114.9" y1="115.3" x2="114.9" y2="69.3"/>
				<polygon class="st13" points="118.6,61.9 118.6,127.2 127,123 127.1,57.7 				"/>
				<polygon class="st13" points="91.8,48.3 118.6,62 127.3,57.6 100.4,43.9 				"/>
				<g>
					<g>
						<polygon class="st11" points="93.6,53 94.7,53.9 95.4,55.6 95.1,56.4 94,55.6 93.2,53.9 						"/>
						<polygon class="st11" points="95.1,56.5 95.9,56.1 96.3,55.2 95.6,53.5 94.5,52.6 93.6,53 94.7,53.9 95.5,55.6 						"/>
					</g>
					<g>
						<path class="st21" d="M93.9,55.9l0.6-0.3c0,0,0.3-0.2,0-0.9C94.2,54,93.8,54,93.8,54l-0.6,0.3L93.9,55.9z"/>
						<path class="st21" d="M93.2,54.2c0.2-0.1,0.5,0.2,0.7,0.6c0.2,0.5,0.2,0.9,0,1c-0.2,0.1-0.5-0.2-0.7-0.7
							C93,54.7,93,54.3,93.2,54.2z"/>
						<path class="st21" d="M94,55.9c0,0-0.8,0.3-1.1-0.5c-0.4-0.9,0.4-1.1,0.4-1.1"/>
					</g>
				</g>
				<g>
					<g>
						<polygon class="st11" points="113.2,62.7 114.3,63.5 115.1,65.3 114.7,66.1 113.6,65.3 112.9,63.5 						"/>
						<polygon class="st11" points="114.7,66.1 115.5,65.7 115.9,64.8 115.2,63.1 114.1,62.3 113.3,62.6 114.4,63.5 115.1,65.3 
													"/>
					</g>
					<g>
						<path class="st21" d="M113.6,65.5l0.6-0.3c0,0,0.3-0.2,0-0.9s-0.7-0.7-0.7-0.7l-0.6,0.3L113.6,65.5z"/>
						<path class="st21" d="M112.8,63.9c0.2-0.1,0.5,0.2,0.7,0.6c0.2,0.5,0.2,0.9,0,1c-0.2,0.1-0.5-0.2-0.7-0.7
							C112.7,64.4,112.7,64,112.8,63.9z"/>
						<path class="st21" d="M113.6,65.5c0,0-0.8,0.3-1.1-0.5c-0.4-0.9,0.4-1.1,0.4-1.1"/>
					</g>
				</g>
				<g>
					<g>
						<polygon class="st11" points="113.9,120.2 115,121 115.7,122.8 115.3,123.6 114.2,122.8 113.5,121 						"/>
						<polygon class="st11" points="115.3,123.6 116.2,123.2 116.5,122.4 115.8,120.7 114.7,119.8 113.9,120.1 115,121 115.7,122.8 
													"/>
					</g>
					<g>
						<path class="st21" d="M114.2,123l0.6-0.3c0,0,0.3-0.2,0-0.9s-0.7-0.7-0.7-0.7l-0.6,0.3L114.2,123z"/>
						<path class="st21" d="M113.5,121.4c0.2-0.1,0.5,0.2,0.7,0.6c0.2,0.5,0.2,0.9,0,1c-0.2,0.1-0.5-0.2-0.7-0.7
							C113.3,121.9,113.3,121.5,113.5,121.4z"/>
						<path class="st21" d="M114.2,123c0,0-0.8,0.3-1.1-0.5c-0.4-0.9,0.4-1.1,0.4-1.1"/>
					</g>
				</g>
				<g>
					<g>
						<polygon class="st11" points="94,111.4 95.1,112.3 95.9,114 95.5,114.9 94.4,114 93.7,112.3 						"/>
						<polygon class="st11" points="95.5,114.9 96.3,114.5 96.7,113.6 96,111.9 94.9,111.1 94.1,111.4 95.2,112.3 95.9,114 						
							"/>
					</g>
					<g>
						<path class="st21" d="M94.4,114.3l0.6-0.3c0,0,0.3-0.2,0-0.9c-0.3-0.7-0.7-0.7-0.7-0.7l-0.6,0.3L94.4,114.3z"/>
						<path class="st21" d="M93.6,112.7c0.2-0.1,0.5,0.2,0.7,0.6s0.2,0.9,0,1c-0.2,0.1-0.5-0.2-0.7-0.7
							C93.5,113.2,93.5,112.7,93.6,112.7z"/>
						<path class="st21" d="M94.4,114.3c0,0-0.8,0.3-1.1-0.5s0.4-1.1,0.4-1.1"/>
					</g>
				</g>
			</g>
		</g>
	</g>
	<line class="st3" x1="51.6" y1="191.5" x2="51.6" y2="199.6"/>
</g>
</svg>
