<?xml version="1.0" encoding="utf-8"?>
<!-- Generator: Adobe Illustrator 25.2.3, SVG Export Plug-In . SVG Version: 6.00 Build 0)  -->
<svg version="1.1" id="Layer_1" xmlns="http://www.w3.org/2000/svg" xmlns:xlink="http://www.w3.org/1999/xlink" x="0px" y="0px"
	 viewBox="0 0 313.2 293.3" style="enable-background:new 0 0 313.2 293.3;" xml:space="preserve">
<style type="text/css">
	.st0{fill:#CCB9B9;stroke:#FFFFFF;stroke-width:0.4795;stroke-linejoin:bevel;stroke-miterlimit:10;}
	.st1{fill:#CCB9B9;stroke:#FFFFFF;stroke-width:0.5;stroke-linejoin:bevel;stroke-miterlimit:10;}
	.st2{fill:#CCB9B9;stroke:#FFFFFF;stroke-width:0.5;stroke-miterlimit:10;}
	.st3{fill:#E4DAD8;stroke:#FFFFFF;stroke-width:0.5;stroke-miterlimit:10;}
	.st4{fill:#E4DAD8;stroke:#FFFFFF;stroke-width:0.5;stroke-linejoin:bevel;stroke-miterlimit:10;}
	.st5{fill:#CCB9B9;}
	.st6{fill:#E4DAD8;}
	.st7{fill:#543C52;}
	.st8{fill:none;stroke:#543C52;stroke-width:0.5;stroke-linecap:round;stroke-miterlimit:10;}
	.st9{fill:#B79797;stroke:#FFFFFF;stroke-width:0.5;stroke-miterlimit:10;}
	.st10{clip-path:url(#XMLID_3_);fill:#543C52;}
	.st11{fill:#361D32;}
	.st12{fill:#CCB9B9;stroke:#FFFFFF;stroke-width:0.3803;stroke-linejoin:bevel;stroke-miterlimit:10;}
	.st13{clip-path:url(#SVGID_2_);fill:#361D32;}
</style>
<g>
	<g>
		<line class="st0" x1="96.9" y1="269.5" x2="96.8" y2="284.8"/>
		<polygon class="st1" points="163.7,149.3 220,177.9 219.8,134.5 163.6,106.1 		"/>
		<polygon class="st2" points="17.9,224.4 97.6,264.8 232.9,196.7 233.2,181 157.8,146.5 17.9,217.1 		"/>
		<polygon class="st2" points="17.9,225.7 18.1,210.4 97.7,249.4 97.4,264.8 		"/>
		<polygon class="st2" points="1.1,229.5 1.1,242.2 98.1,291.1 261.6,208.7 261.4,195.7 97.9,277 		"/>
		<path class="st3" d="M18.3,210.3c0,0,79.4,39.1,79.5,39L233,181l-79.9-38.6L18.3,210.3z"/>
		<polygon class="st3" points="97.4,277 261.7,195.7 164.5,148.5 1.4,228.5 		"/>
		<polygon class="st2" points="17.9,224.4 97.3,265.5 235.7,195.1 236,179.4 157.8,146.5 17.9,217.1 		"/>
		<polygon class="st1" points="17.9,225.7 18.1,210.4 97.3,250.3 97.2,265.6 		"/>
		<polygon class="st1" points="1.6,228.5 1.6,243.8 97.3,291.9 262.2,208.3 261.9,195.3 97.3,277.1 		"/>
		<path class="st4" d="M18.3,210.3c0,0,78.9,39.9,78.9,39.9L236.5,179l-79.9-38.6L18.3,210.3z"/>
		<g>
			<polygon class="st2" points="46.4,209.2 165.8,148.8 165.7,106.3 43.8,169.7 			"/>
		</g>
		<g>
			<g>
				<ellipse class="st5" cx="214.1" cy="148.5" rx="0.7" ry="0.3"/>
				<path class="st5" d="M213.4,147.7c0,0,0,0.8,0,0.9c0,0.1,1,0.4,1.4,0l0-0.9H213.4z"/>
				<ellipse class="st6" cx="214.1" cy="147.8" rx="0.7" ry="0.3"/>
			</g>
			<g>
				<ellipse class="st5" cx="212.7" cy="149.2" rx="0.7" ry="0.3"/>
				<path class="st5" d="M212,148.5c0,0,0,0.8,0,0.9c0,0.1,1,0.4,1.4,0l0-0.9H212z"/>
				<ellipse class="st6" cx="212.7" cy="148.5" rx="0.7" ry="0.3"/>
			</g>
			<g>
				<ellipse class="st5" cx="211.2" cy="149.9" rx="0.7" ry="0.3"/>
				<path class="st5" d="M210.5,149.2c0,0,0,0.8,0,0.9c0,0.1,1,0.4,1.4,0l0-0.9H210.5z"/>
				<ellipse class="st6" cx="211.2" cy="149.2" rx="0.7" ry="0.3"/>
			</g>
			<g>
				<ellipse class="st5" cx="209.8" cy="150.6" rx="0.7" ry="0.3"/>
				<path class="st5" d="M209.1,149.9c0,0,0,0.8,0,0.9c0,0.1,1,0.4,1.4,0l0-0.9H209.1z"/>
				<ellipse class="st6" cx="209.8" cy="149.9" rx="0.7" ry="0.3"/>
			</g>
			<g>
				<ellipse class="st5" cx="208.4" cy="151.4" rx="0.7" ry="0.3"/>
				<path class="st5" d="M207.6,150.6c0,0,0,0.8,0,0.9c0,0.1,1,0.4,1.4,0l0-0.9H207.6z"/>
				<ellipse class="st6" cx="208.4" cy="150.6" rx="0.7" ry="0.3"/>
			</g>
			<g>
				<ellipse class="st5" cx="206.9" cy="152.1" rx="0.7" ry="0.3"/>
				<path class="st5" d="M206.2,151.3c0,0,0,0.8,0,0.9s1,0.4,1.4,0l0-0.9H206.2z"/>
				<ellipse class="st6" cx="206.9" cy="151.3" rx="0.7" ry="0.3"/>
			</g>
			<g>
				<ellipse class="st5" cx="205.5" cy="152.8" rx="0.7" ry="0.3"/>
				<path class="st5" d="M204.8,152c0,0,0,0.8,0,0.9s1,0.4,1.4,0l0-0.9H204.8z"/>
				<ellipse class="st6" cx="205.5" cy="152.1" rx="0.7" ry="0.3"/>
			</g>
			<g>
				<ellipse class="st5" cx="204" cy="153.5" rx="0.7" ry="0.3"/>
				<path class="st5" d="M203.3,152.7c0,0,0,0.8,0,0.9c0,0.1,1,0.4,1.4,0l0-0.9H203.3z"/>
				<ellipse class="st6" cx="204" cy="152.8" rx="0.7" ry="0.3"/>
			</g>
			<g>
				<ellipse class="st5" cx="202.6" cy="154.2" rx="0.7" ry="0.3"/>
				<path class="st5" d="M201.9,153.4c0,0,0,0.8,0,0.9c0,0.1,1,0.4,1.4,0l0-0.9H201.9z"/>
				<ellipse class="st6" cx="202.6" cy="153.5" rx="0.7" ry="0.3"/>
			</g>
			<g>
				<ellipse class="st5" cx="201.2" cy="154.9" rx="0.7" ry="0.3"/>
				<path class="st5" d="M200.4,154.1c0,0,0,0.8,0,0.9c0,0.1,1,0.4,1.4,0l0-0.9H200.4z"/>
				<ellipse class="st6" cx="201.2" cy="154.2" rx="0.7" ry="0.3"/>
			</g>
			<g>
				<ellipse class="st5" cx="199.7" cy="155.6" rx="0.7" ry="0.3"/>
				<path class="st5" d="M199,154.9c0,0,0,0.8,0,0.9c0,0.1,1,0.4,1.4,0l0-0.9H199z"/>
				<ellipse class="st6" cx="199.7" cy="154.9" rx="0.7" ry="0.3"/>
			</g>
			<g>
				<ellipse class="st5" cx="198.3" cy="156.3" rx="0.7" ry="0.3"/>
				<path class="st5" d="M197.6,155.6c0,0,0,0.8,0,0.9c0,0.1,1,0.4,1.4,0l0-0.9H197.6z"/>
				<ellipse class="st6" cx="198.3" cy="155.6" rx="0.7" ry="0.3"/>
			</g>
			<g>
				<ellipse class="st5" cx="196.8" cy="157" rx="0.7" ry="0.3"/>
				<path class="st5" d="M196.1,156.3c0,0,0,0.8,0,0.9c0,0.1,1,0.4,1.4,0l0-0.9H196.1z"/>
				<ellipse class="st6" cx="196.8" cy="156.3" rx="0.7" ry="0.3"/>
			</g>
			<g>
				<ellipse class="st5" cx="195.4" cy="157.8" rx="0.7" ry="0.3"/>
				<path class="st5" d="M194.7,157c0,0,0,0.8,0,0.9c0,0.1,1,0.4,1.4,0l0-0.9H194.7z"/>
				<ellipse class="st6" cx="195.4" cy="157" rx="0.7" ry="0.3"/>
			</g>
			<g>
				<ellipse class="st5" cx="194" cy="158.5" rx="0.7" ry="0.3"/>
				<path class="st5" d="M193.2,157.7c0,0,0,0.8,0,0.9s1,0.4,1.4,0l0-0.9H193.2z"/>
				<ellipse class="st6" cx="194" cy="157.7" rx="0.7" ry="0.3"/>
			</g>
			<g>
				<ellipse class="st5" cx="192.5" cy="159.2" rx="0.7" ry="0.3"/>
				<path class="st5" d="M191.8,158.4c0,0,0,0.8,0,0.9c0,0.1,1,0.4,1.4,0l0-0.9H191.8z"/>
				<ellipse class="st6" cx="192.5" cy="158.5" rx="0.7" ry="0.3"/>
			</g>
			<g>
				<ellipse class="st5" cx="191.1" cy="159.9" rx="0.7" ry="0.3"/>
				<path class="st5" d="M190.4,159.1c0,0,0,0.8,0,0.9c0,0.1,1,0.4,1.4,0l0-0.9H190.4z"/>
				<ellipse class="st6" cx="191.1" cy="159.2" rx="0.7" ry="0.3"/>
			</g>
			<g>
				<ellipse class="st5" cx="189.6" cy="160.6" rx="0.7" ry="0.3"/>
				<path class="st5" d="M188.9,159.8c0,0,0,0.8,0,0.9c0,0.1,1,0.4,1.4,0l0-0.9H188.9z"/>
				<ellipse class="st6" cx="189.6" cy="159.9" rx="0.7" ry="0.3"/>
			</g>
			<g>
				<ellipse class="st5" cx="188.2" cy="161.3" rx="0.7" ry="0.3"/>
				<path class="st5" d="M187.5,160.5c0,0,0,0.8,0,0.9c0,0.1,1,0.4,1.4,0l0-0.9H187.5z"/>
				<ellipse class="st6" cx="188.2" cy="160.6" rx="0.7" ry="0.3"/>
			</g>
			<g>
				<ellipse class="st5" cx="186.8" cy="162" rx="0.7" ry="0.3"/>
				<path class="st5" d="M186,161.3c0,0,0,0.8,0,0.9c0,0.1,1,0.4,1.4,0l0-0.9H186z"/>
				<ellipse class="st6" cx="186.8" cy="161.3" rx="0.7" ry="0.3"/>
			</g>
			<g>
				<ellipse class="st5" cx="185.3" cy="162.7" rx="0.7" ry="0.3"/>
				<path class="st5" d="M184.6,162c0,0,0,0.8,0,0.9c0,0.1,1,0.4,1.4,0l0-0.9H184.6z"/>
				<ellipse class="st6" cx="185.3" cy="162" rx="0.7" ry="0.3"/>
			</g>
			<g>
				<ellipse class="st5" cx="183.9" cy="163.4" rx="0.7" ry="0.3"/>
				<path class="st5" d="M183.2,162.7c0,0,0,0.8,0,0.9c0,0.1,1,0.4,1.4,0l0-0.9H183.2z"/>
				<ellipse class="st6" cx="183.9" cy="162.7" rx="0.7" ry="0.3"/>
			</g>
			<g>
				<ellipse class="st5" cx="182.4" cy="164.2" rx="0.7" ry="0.3"/>
				<path class="st5" d="M181.7,163.4c0,0,0,0.8,0,0.9s1,0.4,1.4,0l0-0.9H181.7z"/>
				<ellipse class="st6" cx="182.4" cy="163.4" rx="0.7" ry="0.3"/>
			</g>
			<g>
				<ellipse class="st5" cx="181" cy="164.9" rx="0.7" ry="0.3"/>
				<path class="st5" d="M180.3,164.1c0,0,0,0.8,0,0.9c0,0.1,1,0.4,1.4,0l0-0.9H180.3z"/>
				<ellipse class="st6" cx="181" cy="164.1" rx="0.7" ry="0.3"/>
			</g>
			<g>
				<ellipse class="st5" cx="179.6" cy="165.6" rx="0.7" ry="0.3"/>
				<path class="st5" d="M178.8,164.8c0,0,0,0.8,0,0.9c0,0.1,1,0.4,1.4,0l0-0.9H178.8z"/>
				<ellipse class="st6" cx="179.6" cy="164.9" rx="0.7" ry="0.3"/>
			</g>
			<g>
				<ellipse class="st5" cx="178.1" cy="166.3" rx="0.7" ry="0.3"/>
				<path class="st5" d="M177.4,165.5c0,0,0,0.8,0,0.9c0,0.1,1,0.4,1.4,0l0-0.9H177.4z"/>
				<ellipse class="st6" cx="178.1" cy="165.6" rx="0.7" ry="0.3"/>
			</g>
			<g>
				<ellipse class="st5" cx="176.7" cy="167" rx="0.7" ry="0.3"/>
				<path class="st5" d="M176,166.2c0,0,0,0.8,0,0.9c0,0.1,1,0.4,1.4,0l0-0.9H176z"/>
				<ellipse class="st6" cx="176.7" cy="166.3" rx="0.7" ry="0.3"/>
			</g>
			<g>
				<ellipse class="st5" cx="175.2" cy="167.7" rx="0.7" ry="0.3"/>
				<path class="st5" d="M174.5,166.9c0,0,0,0.8,0,0.9c0,0.1,1,0.4,1.4,0l0-0.9H174.5z"/>
				<ellipse class="st6" cx="175.2" cy="167" rx="0.7" ry="0.3"/>
			</g>
			<g>
				<ellipse class="st5" cx="173.8" cy="168.4" rx="0.7" ry="0.3"/>
				<path class="st5" d="M173.1,167.7c0,0,0,0.8,0,0.9c0,0.1,1,0.4,1.4,0l0-0.9H173.1z"/>
				<ellipse class="st6" cx="173.8" cy="167.7" rx="0.7" ry="0.3"/>
			</g>
			<g>
				<ellipse class="st5" cx="172.4" cy="169.1" rx="0.7" ry="0.3"/>
				<path class="st5" d="M171.6,168.4c0,0,0,0.8,0,0.9c0,0.1,1,0.4,1.4,0l0-0.9H171.6z"/>
				<ellipse class="st6" cx="172.4" cy="168.4" rx="0.7" ry="0.3"/>
			</g>
			<g>
				<ellipse class="st5" cx="170.9" cy="169.8" rx="0.7" ry="0.3"/>
				<path class="st5" d="M170.2,169.1c0,0,0,0.8,0,0.9s1,0.4,1.4,0l0-0.9H170.2z"/>
				<ellipse class="st6" cx="170.9" cy="169.1" rx="0.7" ry="0.3"/>
			</g>
			<g>
				<ellipse class="st5" cx="169.5" cy="170.6" rx="0.7" ry="0.3"/>
				<path class="st5" d="M168.8,169.8c0,0,0,0.8,0,0.9c0,0.1,1,0.4,1.4,0l0-0.9H168.8z"/>
				<ellipse class="st6" cx="169.5" cy="169.8" rx="0.7" ry="0.3"/>
			</g>
			<g>
				<ellipse class="st5" cx="168" cy="171.3" rx="0.7" ry="0.3"/>
				<path class="st5" d="M167.3,170.5c0,0,0,0.8,0,0.9c0,0.1,1,0.4,1.4,0l0-0.9H167.3z"/>
				<ellipse class="st6" cx="168" cy="170.5" rx="0.7" ry="0.3"/>
			</g>
			<g>
				<ellipse class="st5" cx="166.6" cy="172" rx="0.7" ry="0.3"/>
				<path class="st5" d="M165.9,171.2c0,0,0,0.8,0,0.9c0,0.1,1,0.4,1.4,0l0-0.9H165.9z"/>
				<ellipse class="st6" cx="166.6" cy="171.2" rx="0.7" ry="0.3"/>
			</g>
			<g>
				<ellipse class="st5" cx="165.2" cy="172.7" rx="0.7" ry="0.3"/>
				<path class="st5" d="M164.4,171.9c0,0,0,0.8,0,0.9c0,0.1,1,0.4,1.4,0l0-0.9H164.4z"/>
				<ellipse class="st6" cx="165.2" cy="172" rx="0.7" ry="0.3"/>
			</g>
			<g>
				<ellipse class="st5" cx="163.7" cy="173.4" rx="0.7" ry="0.3"/>
				<path class="st5" d="M163,172.6c0,0,0,0.8,0,0.9c0,0.1,1,0.4,1.4,0l0-0.9H163z"/>
				<ellipse class="st6" cx="163.7" cy="172.7" rx="0.7" ry="0.3"/>
			</g>
			<g>
				<ellipse class="st5" cx="162.3" cy="174.1" rx="0.7" ry="0.3"/>
				<path class="st5" d="M161.6,173.3c0,0,0,0.8,0,0.9c0,0.1,1,0.4,1.4,0l0-0.9H161.6z"/>
				<ellipse class="st6" cx="162.3" cy="173.4" rx="0.7" ry="0.3"/>
			</g>
			<g>
				<ellipse class="st5" cx="160.8" cy="174.8" rx="0.7" ry="0.3"/>
				<path class="st5" d="M160.1,174.1c0,0,0,0.8,0,0.9c0,0.1,1,0.4,1.4,0l0-0.9H160.1z"/>
				<ellipse class="st6" cx="160.8" cy="174.1" rx="0.7" ry="0.3"/>
			</g>
			<g>
				<ellipse class="st5" cx="159.4" cy="175.5" rx="0.7" ry="0.3"/>
				<path class="st5" d="M158.7,174.8c0,0,0,0.8,0,0.9s1,0.4,1.4,0l0-0.9H158.7z"/>
				<ellipse class="st6" cx="159.4" cy="174.8" rx="0.7" ry="0.3"/>
			</g>
			<g>
				<ellipse class="st5" cx="158" cy="176.2" rx="0.7" ry="0.3"/>
				<path class="st5" d="M157.2,175.5c0,0,0,0.8,0,0.9c0,0.1,1,0.4,1.4,0l0-0.9H157.2z"/>
				<ellipse class="st6" cx="158" cy="175.5" rx="0.7" ry="0.3"/>
			</g>
			<g>
				<ellipse class="st5" cx="156.5" cy="177" rx="0.7" ry="0.3"/>
				<path class="st5" d="M155.8,176.2c0,0,0,0.8,0,0.9c0,0.1,1,0.4,1.4,0l0-0.9H155.8z"/>
				<ellipse class="st6" cx="156.5" cy="176.2" rx="0.7" ry="0.3"/>
			</g>
			<g>
				<ellipse class="st5" cx="155.1" cy="177.7" rx="0.7" ry="0.3"/>
				<path class="st5" d="M154.4,176.9c0,0,0,0.8,0,0.9c0,0.1,1,0.4,1.4,0l0-0.9H154.4z"/>
				<ellipse class="st6" cx="155.1" cy="176.9" rx="0.7" ry="0.3"/>
			</g>
			<g>
				<ellipse class="st5" cx="153.6" cy="178.4" rx="0.7" ry="0.3"/>
				<path class="st5" d="M152.9,177.6c0,0,0,0.8,0,0.9c0,0.1,1,0.4,1.4,0l0-0.9H152.9z"/>
				<ellipse class="st6" cx="153.6" cy="177.6" rx="0.7" ry="0.3"/>
			</g>
			<g>
				<ellipse class="st5" cx="152.2" cy="179.1" rx="0.7" ry="0.3"/>
				<path class="st5" d="M151.5,178.3c0,0,0,0.8,0,0.9c0,0.1,1,0.4,1.4,0l0-0.9H151.5z"/>
				<ellipse class="st6" cx="152.2" cy="178.4" rx="0.7" ry="0.3"/>
			</g>
			<g>
				<ellipse class="st5" cx="150.8" cy="179.8" rx="0.7" ry="0.3"/>
				<path class="st5" d="M150,179c0,0,0,0.8,0,0.9c0,0.1,1,0.4,1.4,0l0-0.9H150z"/>
				<ellipse class="st6" cx="150.8" cy="179.1" rx="0.7" ry="0.3"/>
			</g>
			<g>
				<ellipse class="st5" cx="149.3" cy="180.5" rx="0.7" ry="0.3"/>
				<path class="st5" d="M148.6,179.7c0,0,0,0.8,0,0.9c0,0.1,1,0.4,1.4,0l0-0.9H148.6z"/>
				<ellipse class="st6" cx="149.3" cy="179.8" rx="0.7" ry="0.3"/>
			</g>
			<g>
				<ellipse class="st5" cx="147.9" cy="181.2" rx="0.7" ry="0.3"/>
				<path class="st5" d="M147.2,180.5c0,0,0,0.8,0,0.9s1,0.4,1.4,0l0-0.9H147.2z"/>
				<ellipse class="st6" cx="147.9" cy="180.5" rx="0.7" ry="0.3"/>
			</g>
			<g>
				<ellipse class="st5" cx="146.4" cy="181.9" rx="0.7" ry="0.3"/>
				<path class="st5" d="M145.7,181.2c0,0,0,0.8,0,0.9s1,0.4,1.4,0l0-0.9H145.7z"/>
				<ellipse class="st6" cx="146.4" cy="181.2" rx="0.7" ry="0.3"/>
			</g>
			<g>
				<ellipse class="st5" cx="145" cy="182.6" rx="0.7" ry="0.3"/>
				<path class="st5" d="M144.3,181.9c0,0,0,0.8,0,0.9c0,0.1,1,0.4,1.4,0l0-0.9H144.3z"/>
				<ellipse class="st6" cx="145" cy="181.9" rx="0.7" ry="0.3"/>
			</g>
			<g>
				<ellipse class="st5" cx="143.6" cy="183.4" rx="0.7" ry="0.3"/>
				<path class="st5" d="M142.8,182.6c0,0,0,0.8,0,0.9c0,0.1,1,0.4,1.4,0l0-0.9H142.8z"/>
				<ellipse class="st6" cx="143.6" cy="182.6" rx="0.7" ry="0.3"/>
			</g>
			<g>
				<ellipse class="st5" cx="142.1" cy="184.1" rx="0.7" ry="0.3"/>
				<path class="st5" d="M141.4,183.3c0,0,0,0.8,0,0.9c0,0.1,1,0.4,1.4,0l0-0.9H141.4z"/>
				<ellipse class="st6" cx="142.1" cy="183.3" rx="0.7" ry="0.3"/>
			</g>
			<g>
				<ellipse class="st5" cx="140.7" cy="184.8" rx="0.7" ry="0.3"/>
				<path class="st5" d="M139.9,184c0,0,0,0.8,0,0.9c0,0.1,1,0.4,1.4,0l0-0.9H139.9z"/>
				<ellipse class="st6" cx="140.7" cy="184" rx="0.7" ry="0.3"/>
			</g>
			<g>
				<ellipse class="st5" cx="139.2" cy="185.5" rx="0.7" ry="0.3"/>
				<path class="st5" d="M138.5,184.7c0,0,0,0.8,0,0.9c0,0.1,1,0.4,1.4,0l0-0.9H138.5z"/>
				<ellipse class="st6" cx="139.2" cy="184.8" rx="0.7" ry="0.3"/>
			</g>
			<g>
				<ellipse class="st5" cx="137.8" cy="186.2" rx="0.7" ry="0.3"/>
				<path class="st5" d="M137.1,185.4c0,0,0,0.8,0,0.9c0,0.1,1,0.4,1.4,0l0-0.9H137.1z"/>
				<ellipse class="st6" cx="137.8" cy="185.5" rx="0.7" ry="0.3"/>
			</g>
			<g>
				<ellipse class="st5" cx="136.4" cy="186.9" rx="0.7" ry="0.3"/>
				<path class="st5" d="M135.6,186.1c0,0,0,0.8,0,0.9s1,0.4,1.4,0l0-0.9H135.6z"/>
				<ellipse class="st6" cx="136.4" cy="186.2" rx="0.7" ry="0.3"/>
			</g>
			<g>
				<ellipse class="st5" cx="134.9" cy="187.6" rx="0.7" ry="0.3"/>
				<path class="st5" d="M134.2,186.9c0,0,0,0.8,0,0.9s1,0.4,1.4,0l0-0.9H134.2z"/>
				<ellipse class="st6" cx="134.9" cy="186.9" rx="0.7" ry="0.3"/>
			</g>
			<g>
				<ellipse class="st5" cx="133.5" cy="188.3" rx="0.7" ry="0.3"/>
				<path class="st5" d="M132.7,187.6c0,0,0,0.8,0,0.9c0,0.1,1,0.4,1.4,0l0-0.9H132.7z"/>
				<ellipse class="st6" cx="133.5" cy="187.6" rx="0.7" ry="0.3"/>
			</g>
			<g>
				<ellipse class="st5" cx="132" cy="189" rx="0.7" ry="0.3"/>
				<path class="st5" d="M131.3,188.3c0,0,0,0.8,0,0.9c0,0.1,1,0.4,1.4,0l0-0.9H131.3z"/>
				<ellipse class="st6" cx="132" cy="188.3" rx="0.7" ry="0.3"/>
			</g>
			<g>
				<ellipse class="st5" cx="130.6" cy="189.8" rx="0.7" ry="0.3"/>
				<path class="st5" d="M129.9,189c0,0,0,0.8,0,0.9c0,0.1,1,0.4,1.4,0l0-0.9H129.9z"/>
				<ellipse class="st6" cx="130.6" cy="189" rx="0.7" ry="0.3"/>
			</g>
			<g>
				<ellipse class="st5" cx="129.2" cy="190.5" rx="0.7" ry="0.3"/>
				<path class="st5" d="M128.4,189.7c0,0,0,0.8,0,0.9c0,0.1,1,0.4,1.4,0l0-0.9H128.4z"/>
				<ellipse class="st6" cx="129.2" cy="189.7" rx="0.7" ry="0.3"/>
			</g>
			<g>
				<ellipse class="st5" cx="127.7" cy="191.2" rx="0.7" ry="0.3"/>
				<path class="st5" d="M127,190.4c0,0,0,0.8,0,0.9c0,0.1,1,0.4,1.4,0l0-0.9H127z"/>
				<ellipse class="st6" cx="127.7" cy="190.4" rx="0.7" ry="0.3"/>
			</g>
			<g>
				<ellipse class="st5" cx="126.3" cy="191.9" rx="0.7" ry="0.3"/>
				<path class="st5" d="M125.5,191.1c0,0,0,0.8,0,0.9c0,0.1,1,0.4,1.4,0l0-0.9H125.5z"/>
				<ellipse class="st6" cx="126.3" cy="191.2" rx="0.7" ry="0.3"/>
			</g>
			<g>
				<ellipse class="st5" cx="124.8" cy="192.6" rx="0.7" ry="0.3"/>
				<path class="st5" d="M124.1,191.8c0,0,0,0.8,0,0.9s1,0.4,1.4,0l0-0.9H124.1z"/>
				<ellipse class="st6" cx="124.8" cy="191.9" rx="0.7" ry="0.3"/>
			</g>
			<g>
				<ellipse class="st5" cx="123.4" cy="193.3" rx="0.7" ry="0.3"/>
				<path class="st5" d="M122.7,192.5c0,0,0,0.8,0,0.9s1,0.4,1.4,0l0-0.9H122.7z"/>
				<ellipse class="st6" cx="123.4" cy="192.6" rx="0.7" ry="0.3"/>
			</g>
			<g>
				<ellipse class="st5" cx="122" cy="194" rx="0.7" ry="0.3"/>
				<path class="st5" d="M121.2,193.3c0,0,0,0.8,0,0.9c0,0.1,1,0.4,1.4,0l0-0.9H121.2z"/>
				<ellipse class="st6" cx="122" cy="193.3" rx="0.7" ry="0.3"/>
			</g>
			<g>
				<ellipse class="st5" cx="120.5" cy="194.7" rx="0.7" ry="0.3"/>
				<path class="st5" d="M119.8,194c0,0,0,0.8,0,0.9c0,0.1,1,0.4,1.4,0l0-0.9H119.8z"/>
				<ellipse class="st6" cx="120.5" cy="194" rx="0.7" ry="0.3"/>
			</g>
			<g>
				<ellipse class="st5" cx="119.1" cy="195.4" rx="0.7" ry="0.3"/>
				<path class="st5" d="M118.3,194.7c0,0,0,0.8,0,0.9c0,0.1,1,0.4,1.4,0l0-0.9H118.3z"/>
				<ellipse class="st6" cx="119.1" cy="194.7" rx="0.7" ry="0.3"/>
			</g>
			<g>
				<ellipse class="st5" cx="117.6" cy="196.1" rx="0.7" ry="0.3"/>
				<path class="st5" d="M116.9,195.4c0,0,0,0.8,0,0.9c0,0.1,1,0.4,1.4,0l0-0.9H116.9z"/>
				<ellipse class="st6" cx="117.6" cy="195.4" rx="0.7" ry="0.3"/>
			</g>
			<g>
				<ellipse class="st5" cx="116.2" cy="196.9" rx="0.7" ry="0.3"/>
				<path class="st5" d="M115.5,196.1c0,0,0,0.8,0,0.9c0,0.1,1,0.4,1.4,0l0-0.9H115.5z"/>
				<ellipse class="st6" cx="116.2" cy="196.1" rx="0.7" ry="0.3"/>
			</g>
			<g>
				<ellipse class="st5" cx="114.8" cy="197.6" rx="0.7" ry="0.3"/>
				<path class="st5" d="M114,196.8c0,0,0,0.8,0,0.9c0,0.1,1,0.4,1.4,0l0-0.9H114z"/>
				<ellipse class="st6" cx="114.8" cy="196.8" rx="0.7" ry="0.3"/>
			</g>
			<g>
				<ellipse class="st5" cx="113.3" cy="198.3" rx="0.7" ry="0.3"/>
				<path class="st5" d="M112.6,197.5c0,0,0,0.8,0,0.9s1,0.4,1.4,0l0-0.9H112.6z"/>
				<ellipse class="st6" cx="113.3" cy="197.6" rx="0.7" ry="0.3"/>
			</g>
			<g>
				<ellipse class="st5" cx="111.9" cy="199" rx="0.7" ry="0.3"/>
				<path class="st5" d="M111.1,198.2c0,0,0,0.8,0,0.9s1,0.4,1.4,0l0-0.9H111.1z"/>
				<ellipse class="st6" cx="111.9" cy="198.3" rx="0.7" ry="0.3"/>
			</g>
			<g>
				<ellipse class="st5" cx="110.4" cy="199.7" rx="0.7" ry="0.3"/>
				<path class="st5" d="M109.7,198.9c0,0,0,0.8,0,0.9c0,0.1,1,0.4,1.4,0l0-0.9H109.7z"/>
				<ellipse class="st6" cx="110.4" cy="199" rx="0.7" ry="0.3"/>
			</g>
			<g>
				<ellipse class="st5" cx="109" cy="200.4" rx="0.7" ry="0.3"/>
				<path class="st5" d="M108.3,199.7c0,0,0,0.8,0,0.9c0,0.1,1,0.4,1.4,0l0-0.9H108.3z"/>
				<ellipse class="st6" cx="109" cy="199.7" rx="0.7" ry="0.3"/>
			</g>
			<g>
				<ellipse class="st5" cx="107.5" cy="201.1" rx="0.7" ry="0.3"/>
				<path class="st5" d="M106.8,200.4c0,0,0,0.8,0,0.9c0,0.1,1,0.4,1.4,0l0-0.9H106.8z"/>
				<ellipse class="st6" cx="107.5" cy="200.4" rx="0.7" ry="0.3"/>
			</g>
			<g>
				<ellipse class="st5" cx="106.1" cy="201.8" rx="0.7" ry="0.3"/>
				<path class="st5" d="M105.4,201.1c0,0,0,0.8,0,0.9c0,0.1,1,0.4,1.4,0l0-0.9H105.4z"/>
				<ellipse class="st6" cx="106.1" cy="201.1" rx="0.7" ry="0.3"/>
			</g>
			<g>
				<ellipse class="st5" cx="104.7" cy="202.5" rx="0.7" ry="0.3"/>
				<path class="st5" d="M103.9,201.8c0,0,0,0.8,0,0.9c0,0.1,1,0.4,1.4,0l0-0.9H103.9z"/>
				<ellipse class="st6" cx="104.7" cy="201.8" rx="0.7" ry="0.3"/>
			</g>
			<g>
				<ellipse class="st5" cx="103.2" cy="203.3" rx="0.7" ry="0.3"/>
				<path class="st5" d="M102.5,202.5c0,0,0,0.8,0,0.9c0,0.1,1,0.4,1.4,0l0-0.9H102.5z"/>
				<ellipse class="st6" cx="103.2" cy="202.5" rx="0.7" ry="0.3"/>
			</g>
			<g>
				<ellipse class="st5" cx="101.8" cy="204" rx="0.7" ry="0.3"/>
				<path class="st5" d="M101.1,203.2c0,0,0,0.8,0,0.9c0,0.1,1,0.4,1.4,0l0-0.9H101.1z"/>
				<ellipse class="st6" cx="101.8" cy="203.2" rx="0.7" ry="0.3"/>
			</g>
			<g>
				<ellipse class="st5" cx="100.3" cy="204.7" rx="0.7" ry="0.3"/>
				<path class="st5" d="M99.6,203.9c0,0,0,0.8,0,0.9s1,0.4,1.4,0l0-0.9H99.6z"/>
				<ellipse class="st6" cx="100.3" cy="204" rx="0.7" ry="0.3"/>
			</g>
			<g>
				<ellipse class="st5" cx="98.9" cy="205.4" rx="0.7" ry="0.3"/>
				<path class="st5" d="M98.2,204.6c0,0,0,0.8,0,0.9c0,0.1,1,0.4,1.4,0l0-0.9H98.2z"/>
				<ellipse class="st6" cx="98.9" cy="204.7" rx="0.7" ry="0.3"/>
			</g>
			<g>
				<ellipse class="st5" cx="97.5" cy="206.1" rx="0.7" ry="0.3"/>
				<path class="st5" d="M96.7,205.3c0,0,0,0.8,0,0.9c0,0.1,1,0.4,1.4,0l0-0.9H96.7z"/>
				<ellipse class="st6" cx="97.5" cy="205.4" rx="0.7" ry="0.3"/>
			</g>
			<g>
				<ellipse class="st5" cx="96" cy="206.8" rx="0.7" ry="0.3"/>
				<path class="st5" d="M95.3,206.1c0,0,0,0.8,0,0.9c0,0.1,1,0.4,1.4,0l0-0.9H95.3z"/>
				<ellipse class="st6" cx="96" cy="206.1" rx="0.7" ry="0.3"/>
			</g>
		</g>
		<g>
			<g>
				<ellipse class="st5" cx="167.4" cy="110.4" rx="0.7" ry="0.3"/>
				<path class="st5" d="M166.7,109.6c0,0,0,0.8,0,0.9c0,0.1,1,0.4,1.4,0l0-0.9H166.7z"/>
				<ellipse class="st6" cx="167.4" cy="109.7" rx="0.7" ry="0.3"/>
			</g>
			<g>
				<ellipse class="st5" cx="168.8" cy="111.1" rx="0.7" ry="0.3"/>
				<path class="st5" d="M168.1,110.4c0,0,0,0.8,0,0.9s1,0.4,1.4,0l0-0.9H168.1z"/>
				<ellipse class="st6" cx="168.8" cy="110.4" rx="0.7" ry="0.3"/>
			</g>
			<g>
				<ellipse class="st5" cx="170.3" cy="111.9" rx="0.7" ry="0.3"/>
				<path class="st5" d="M169.5,111.1c0,0,0,0.8,0,0.9s1,0.4,1.4,0l0-0.9H169.5z"/>
				<ellipse class="st6" cx="170.3" cy="111.1" rx="0.7" ry="0.3"/>
			</g>
			<g>
				<ellipse class="st5" cx="171.7" cy="112.6" rx="0.7" ry="0.3"/>
				<path class="st5" d="M171,111.8c0,0,0,0.8,0,0.9s1,0.4,1.4,0l0-0.9H171z"/>
				<ellipse class="st6" cx="171.7" cy="111.9" rx="0.7" ry="0.3"/>
			</g>
			<g>
				<ellipse class="st5" cx="173.1" cy="113.3" rx="0.7" ry="0.3"/>
				<path class="st5" d="M172.4,112.5c0,0,0,0.8,0,0.9s1,0.4,1.4,0l0-0.9H172.4z"/>
				<ellipse class="st6" cx="173.1" cy="112.6" rx="0.7" ry="0.3"/>
			</g>
			<g>
				<ellipse class="st5" cx="174.6" cy="114" rx="0.7" ry="0.3"/>
				<path class="st5" d="M173.8,113.3c0,0,0,0.8,0,0.9s1,0.4,1.4,0l0-0.9H173.8z"/>
				<ellipse class="st6" cx="174.6" cy="113.3" rx="0.7" ry="0.3"/>
			</g>
			<g>
				<ellipse class="st5" cx="176" cy="114.8" rx="0.7" ry="0.3"/>
				<path class="st5" d="M175.3,114c0,0,0,0.8,0,0.9c0,0.1,1,0.4,1.4,0l0-0.9H175.3z"/>
				<ellipse class="st6" cx="176" cy="114" rx="0.7" ry="0.3"/>
			</g>
			<g>
				<ellipse class="st5" cx="177.4" cy="115.5" rx="0.7" ry="0.3"/>
				<path class="st5" d="M176.7,114.7c0,0,0,0.8,0,0.9c0,0.1,1,0.4,1.4,0l0-0.9H176.7z"/>
				<ellipse class="st6" cx="177.4" cy="114.8" rx="0.7" ry="0.3"/>
			</g>
			<g>
				<ellipse class="st5" cx="178.8" cy="116.2" rx="0.7" ry="0.3"/>
				<path class="st5" d="M178.1,115.5c0,0,0,0.8,0,0.9c0,0.1,1,0.4,1.4,0l0-0.9H178.1z"/>
				<ellipse class="st6" cx="178.8" cy="115.5" rx="0.7" ry="0.3"/>
			</g>
			<g>
				<ellipse class="st5" cx="180.3" cy="116.9" rx="0.7" ry="0.3"/>
				<path class="st5" d="M179.6,116.2c0,0,0,0.8,0,0.9s1,0.4,1.4,0l0-0.9H179.6z"/>
				<ellipse class="st6" cx="180.3" cy="116.2" rx="0.7" ry="0.3"/>
			</g>
			<g>
				<ellipse class="st5" cx="181.7" cy="117.7" rx="0.7" ry="0.3"/>
				<path class="st5" d="M181,116.9c0,0,0,0.8,0,0.9s1,0.4,1.4,0l0-0.9H181z"/>
				<ellipse class="st6" cx="181.7" cy="116.9" rx="0.7" ry="0.3"/>
			</g>
			<g>
				<ellipse class="st5" cx="183.1" cy="118.4" rx="0.7" ry="0.3"/>
				<path class="st5" d="M182.4,117.6c0,0,0,0.8,0,0.9s1,0.4,1.4,0l0-0.9H182.4z"/>
				<ellipse class="st6" cx="183.1" cy="117.7" rx="0.7" ry="0.3"/>
			</g>
			<g>
				<ellipse class="st5" cx="184.6" cy="119.1" rx="0.7" ry="0.3"/>
				<path class="st5" d="M183.8,118.4c0,0,0,0.8,0,0.9s1,0.4,1.4,0l0-0.9H183.8z"/>
				<ellipse class="st6" cx="184.6" cy="118.4" rx="0.7" ry="0.3"/>
			</g>
			<g>
				<ellipse class="st5" cx="186" cy="119.8" rx="0.7" ry="0.3"/>
				<path class="st5" d="M185.3,119.1c0,0,0,0.8,0,0.9s1,0.4,1.4,0l0-0.9H185.3z"/>
				<ellipse class="st6" cx="186" cy="119.1" rx="0.7" ry="0.3"/>
			</g>
			<g>
				<ellipse class="st5" cx="187.4" cy="120.6" rx="0.7" ry="0.3"/>
				<path class="st5" d="M186.7,119.8c0,0,0,0.8,0,0.9c0,0.1,1,0.4,1.4,0l0-0.9H186.7z"/>
				<ellipse class="st6" cx="187.4" cy="119.8" rx="0.7" ry="0.3"/>
			</g>
			<g>
				<ellipse class="st5" cx="188.9" cy="121.3" rx="0.7" ry="0.3"/>
				<path class="st5" d="M188.1,120.5c0,0,0,0.8,0,0.9c0,0.1,1,0.4,1.4,0l0-0.9H188.1z"/>
				<ellipse class="st6" cx="188.9" cy="120.6" rx="0.7" ry="0.3"/>
			</g>
			<g>
				<ellipse class="st5" cx="190.3" cy="122" rx="0.7" ry="0.3"/>
				<path class="st5" d="M189.6,121.3c0,0,0,0.8,0,0.9c0,0.1,1,0.4,1.4,0l0-0.9H189.6z"/>
				<ellipse class="st6" cx="190.3" cy="121.3" rx="0.7" ry="0.3"/>
			</g>
			<g>
				<ellipse class="st5" cx="191.7" cy="122.8" rx="0.7" ry="0.3"/>
				<path class="st5" d="M191,122c0,0,0,0.8,0,0.9s1,0.4,1.4,0l0-0.9H191z"/>
				<ellipse class="st6" cx="191.7" cy="122" rx="0.7" ry="0.3"/>
			</g>
			<g>
				<ellipse class="st5" cx="193.2" cy="123.5" rx="0.7" ry="0.3"/>
				<path class="st5" d="M192.4,122.7c0,0,0,0.8,0,0.9s1,0.4,1.4,0l0-0.9H192.4z"/>
				<ellipse class="st6" cx="193.2" cy="122.8" rx="0.7" ry="0.3"/>
			</g>
			<g>
				<ellipse class="st5" cx="194.6" cy="124.2" rx="0.7" ry="0.3"/>
				<path class="st5" d="M193.9,123.4c0,0,0,0.8,0,0.9s1,0.4,1.4,0l0-0.9H193.9z"/>
				<ellipse class="st6" cx="194.6" cy="123.5" rx="0.7" ry="0.3"/>
			</g>
			<g>
				<ellipse class="st5" cx="196" cy="124.9" rx="0.7" ry="0.3"/>
				<path class="st5" d="M195.3,124.2c0,0,0,0.8,0,0.9s1,0.4,1.4,0l0-0.9H195.3z"/>
				<ellipse class="st6" cx="196" cy="124.2" rx="0.7" ry="0.3"/>
			</g>
			<g>
				<ellipse class="st5" cx="197.4" cy="125.7" rx="0.7" ry="0.3"/>
				<path class="st5" d="M196.7,124.9c0,0,0,0.8,0,0.9s1,0.4,1.4,0l0-0.9H196.7z"/>
				<ellipse class="st6" cx="197.4" cy="124.9" rx="0.7" ry="0.3"/>
			</g>
			<g>
				<ellipse class="st5" cx="198.9" cy="126.4" rx="0.7" ry="0.3"/>
				<path class="st5" d="M198.2,125.6c0,0,0,0.8,0,0.9c0,0.1,1,0.4,1.4,0l0-0.9H198.2z"/>
				<ellipse class="st6" cx="198.9" cy="125.7" rx="0.7" ry="0.3"/>
			</g>
			<g>
				<ellipse class="st5" cx="200.3" cy="127.1" rx="0.7" ry="0.3"/>
				<path class="st5" d="M199.6,126.3c0,0,0,0.8,0,0.9c0,0.1,1,0.4,1.4,0l0-0.9H199.6z"/>
				<ellipse class="st6" cx="200.3" cy="126.4" rx="0.7" ry="0.3"/>
			</g>
			<g>
				<ellipse class="st5" cx="201.7" cy="127.8" rx="0.7" ry="0.3"/>
				<path class="st5" d="M201,127.1c0,0,0,0.8,0,0.9s1,0.4,1.4,0l0-0.9H201z"/>
				<ellipse class="st6" cx="201.7" cy="127.1" rx="0.7" ry="0.3"/>
			</g>
			<g>
				<ellipse class="st5" cx="203.2" cy="128.6" rx="0.7" ry="0.3"/>
				<path class="st5" d="M202.4,127.8c0,0,0,0.8,0,0.9s1,0.4,1.4,0l0-0.9H202.4z"/>
				<ellipse class="st6" cx="203.2" cy="127.8" rx="0.7" ry="0.3"/>
			</g>
			<g>
				<ellipse class="st5" cx="204.6" cy="129.3" rx="0.7" ry="0.3"/>
				<path class="st5" d="M203.9,128.5c0,0,0,0.8,0,0.9c0,0.1,1,0.4,1.4,0l0-0.9H203.9z"/>
				<ellipse class="st6" cx="204.6" cy="128.6" rx="0.7" ry="0.3"/>
			</g>
			<g>
				<ellipse class="st5" cx="206" cy="130" rx="0.7" ry="0.3"/>
				<path class="st5" d="M205.3,129.2c0,0,0,0.8,0,0.9s1,0.4,1.4,0l0-0.9H205.3z"/>
				<ellipse class="st6" cx="206" cy="129.3" rx="0.7" ry="0.3"/>
			</g>
			<g>
				<ellipse class="st5" cx="207.5" cy="130.7" rx="0.7" ry="0.3"/>
				<path class="st5" d="M206.7,130c0,0,0,0.8,0,0.9c0,0.1,1,0.4,1.4,0l0-0.9H206.7z"/>
				<ellipse class="st6" cx="207.5" cy="130" rx="0.7" ry="0.3"/>
			</g>
			<g>
				<ellipse class="st5" cx="208.9" cy="131.5" rx="0.7" ry="0.3"/>
				<path class="st5" d="M208.2,130.7c0,0,0,0.8,0,0.9c0,0.1,1,0.4,1.4,0l0-0.9H208.2z"/>
				<ellipse class="st6" cx="208.9" cy="130.7" rx="0.7" ry="0.3"/>
			</g>
		</g>
		<g>
			<path class="st7" d="M83.1,210.7c0,0,2.5-0.1,5.3-1.1c1.1-0.4,6.1-2.2,7.8-2.3c1.9,0,0.5-1,1.9-1.5c3.2-1.1,7-2.5,16.3-5.1
				C127.6,197.2,148,187,148,187l43.6-22l11.6-7.8l10.3,5.6L176,180.4L151.1,193l-36,16.6l-17.5,8.6L83.1,210.7z"/>
			<path class="st7" d="M194.5,161.9l-2.6-9c0.5-1,11.2,3.5,10.7,4.5l-8.1,7.5V161.9z"/>
		</g>
		<line class="st8" x1="100.4" y1="212.2" x2="203.2" y2="163.8"/>
		<polygon class="st9" points="164.7,109.6 216.6,135.6 220.5,133.9 168.7,107.7 		"/>
		<polygon class="st9" points="45.6,169.6 169.6,108.2 165.5,106.2 41.8,167.5 		"/>
		<polygon class="st1" points="41,210.7 97.3,239.3 97,195.9 40.9,167.5 		"/>
		<polygon class="st9" points="45.6,169.6 96.8,196.1 100.4,194.4 49.3,167.9 		"/>
		<polygon class="st2" points="97.2,238.9 221,175.6 221,134 97.1,196 		"/>
		<polygon class="st9" points="97,196 220.7,134 217.1,132.2 93.2,193.9 		"/>
		<line class="st2" x1="97.3" y1="277.4" x2="97.3" y2="291.8"/>
	</g>
	<g>
		<defs>
			<path id="XMLID_47_" d="M49.5,169.1c0,0,20.4-10.8,21.1-12.7c0.7-1.9,30-15.1,32.1-15.7c2.1-0.6,20.6-8.2,20.6-8.2l42.5-21.3
				c0,0,23.6,8.4,24.8,10.7s17.2,10.6,17.2,10.6l6.8,1.1l-30.8,15.2c0,0-9.8,5.2-26.4,12.5c0.5,1.1-22.7,12.8-23.2,11.7l-38.4,18.8
				l-11.3-6.4L49.5,169.1z"/>
		</defs>
		<use xlink:href="#XMLID_47_"  style="overflow:visible;fill:#543C52;"/>
		<clipPath id="XMLID_3_">
			<use xlink:href="#XMLID_47_"  style="overflow:visible;"/>
		</clipPath>
		<polyline class="st10" points="189.7,151.6 191,141.6 206,135.9 201.4,129.7 215.8,135.8 191.2,148.1 		"/>
		<polygon class="st10" points="81.4,187.2 86.5,184 94.2,189.6 104.4,185.7 113.1,183.6 96,195 		"/>
		<path class="st10" d="M151.3,136.7c0,0,20.4,4.8,21.5-1.1c1.1-5.9,5.2-8-5.9-8C155.8,127.6,151.3,136.7,151.3,136.7z"/>
		<use xlink:href="#XMLID_47_"  style="overflow:visible;fill:none;stroke:#FFFFFF;stroke-width:0.5;stroke-miterlimit:10;"/>
	</g>
	<g>
		<path class="st11" d="M62.1,170.3c1.3-1.2,2.6-2.3,4-3.4c1.3-1.1,2.7-2.2,3.6-3.6c0.5-0.7,1-1.4,1.5-2.1c0.6-0.7,1.3-1.3,2-1.7
			c1.6-0.9,3.4-1.2,5.1-0.7c-1.7-0.2-3.5,0.2-4.9,1.1c-0.7,0.5-1.4,1-1.9,1.7c-0.5,0.7-1,1.4-1.5,2.1c-1,1.5-2.5,2.6-3.8,3.6
			C64.9,168.3,63.5,169.4,62.1,170.3z"/>
	</g>
	<g>
		<path class="st11" d="M120.7,149.7c0.5,0.3,1.1,0.1,1.6-0.2c0.5-0.3,0.8-0.7,1.1-1.2c0.3-0.5,0.6-1,1.1-1.4
			c0.4-0.4,0.9-0.8,1.3-1.1c0.9-0.7,1.9-1.3,2.7-2c0.8-0.7,1.5-1.6,1.8-2.8c0,1.2-0.7,2.3-1.5,3.1c-0.8,0.9-1.8,1.5-2.7,2.1
			c-0.9,0.7-1.7,1.4-2.4,2.3c-0.4,0.4-0.7,0.9-1.3,1.2C121.9,150,121.2,150.1,120.7,149.7z"/>
	</g>
	<g>
		<path class="st11" d="M126.8,170.5c2-0.8,3.7-2.2,5.1-3.8c1.4-1.6,2.7-3.3,4.1-5c1.4-1.6,2.9-3.3,4.8-4.4c1.9-1.2,4.2-1.3,5.8-2.8
			c-1.5,1.6-3.9,2-5.6,3.1c-1.8,1.1-3.3,2.7-4.6,4.4c-1.4,1.6-2.7,3.4-4.2,5C130.8,168.6,128.9,169.9,126.8,170.5z"/>
	</g>
	<g>
		<path class="st11" d="M186.4,126.2c-1.2-0.4-2.3-0.9-3.4-1.4c-0.6-0.2-1.1-0.5-1.7-0.8c-0.6-0.3-1.1-0.5-1.7-0.9
			c-0.5-0.4-1-1-1.2-1.6c-0.2-0.6-0.5-1.1-0.9-1.6c-0.7-1-1.7-1.7-2.8-2.4c1.2,0.5,2.2,1.1,3.1,2.1c0.4,0.5,0.8,1.1,1,1.6
			c0.3,0.6,0.6,1,1.1,1.3c0.5,0.3,1,0.6,1.6,0.9c0.5,0.3,1.1,0.6,1.6,0.9C184.3,124.9,185.4,125.5,186.4,126.2z"/>
	</g>
	<g>
		<path class="st11" d="M93.1,173.1c-0.2-0.3-0.1-0.8,0.2-1.1c0.2-0.3,0.6-0.5,0.9-0.7c0.7-0.3,1.4-0.5,2.1-0.7
			c0.7-0.2,1.5-0.2,2.2-0.3c0.4,0,0.8,0,1.1,0c0.3,0,0.5-0.2,0.7-0.5c0.8-1.2,1.6-2.5,2.4-3.7c0.8-1.2,1.7-2.4,2.5-3.6
			c-0.7,1.3-1.4,2.6-2.2,3.9c-0.8,1.3-1.5,2.5-2.3,3.8c-0.2,0.3-0.7,0.6-1.1,0.7c-0.4,0.1-0.8,0-1.1,0c-0.7,0-1.4,0.1-2.2,0.2
			c-0.7,0.1-1.4,0.3-2.1,0.5c-0.3,0.1-0.6,0.3-0.9,0.5C93.2,172.4,93,172.8,93.1,173.1z"/>
	</g>
	<g>
		<path class="st11" d="M144.4,142.3c1.7-0.3,3.3-0.5,5-0.8c1.7-0.2,3.3-0.4,5-0.6c1.7-0.2,3.4-0.2,5.1,0.1c0.8,0.1,1.7,0.1,2.4-0.1
			c0.8-0.2,1.5-0.8,1.7-1.6c-0.1,0.9-0.8,1.6-1.6,1.9c-0.8,0.3-1.7,0.3-2.6,0.3c-1.7-0.2-3.3-0.1-5,0.1l-5,0.5
			C147.8,142.1,146.1,142.2,144.4,142.3z"/>
	</g>
	<g>
		<path class="st11" d="M146.9,130.8c-0.1,0-0.2-0.1-0.1-0.2c0-0.1,0.1-0.2,0.2-0.3c0.2-0.1,0.4-0.2,0.6-0.3l1.1-0.6
			c0.8-0.4,1.5-0.8,2.3-1.2c1.6-0.7,3.2-1.2,4.9-1.6c1.7-0.4,3.4-0.6,5.1-0.7c1.7-0.1,3.4-0.1,5.2-0.1l-0.1,0
			c0.4-0.1,0.7,0.2,0.8,0.4c0.1,0.2,0.1,0.6-0.1,0.8c-0.4,0.4-0.9,0.5-1.3,0.4c-0.4,0-0.7-0.1-1,0.1c-0.3,0.1-0.5,0.4-0.7,0.7
			c-0.9,1.2-1.8,2.4-2.8,3.5c-1,1.1-2.1,2.2-3.2,3.2c-0.3,0.2-0.6,0.5-1,0.6c-0.4,0.1-0.8,0-1.1,0l-2.3,0l2.3-0.1
			c0.4,0,0.8,0,1.1-0.1c0.4-0.1,0.6-0.3,0.9-0.6c1.1-1,2.1-2.1,3.1-3.3c1-1.1,1.9-2.3,2.7-3.6c0.2-0.3,0.5-0.7,0.9-0.9
			c0.4-0.2,0.9-0.1,1.2-0.1c0.3,0,0.7-0.1,0.8-0.2c0.1-0.1,0.1-0.2,0-0.3c-0.1-0.1-0.1-0.1-0.1-0.1l0,0l-0.1,0c-1.7,0-3.4,0-5.1,0.1
			c-1.7,0.1-3.4,0.3-5.1,0.6c-1.7,0.3-3.3,0.8-4.9,1.4c-0.8,0.3-1.6,0.7-2.3,1l-1.2,0.5c-0.2,0.1-0.4,0.2-0.6,0.3
			c-0.1,0.1-0.1,0.2-0.2,0.3C146.8,130.7,146.8,130.8,146.9,130.8z"/>
	</g>
	<g>
		<g>
			<g>
				<g>
					<defs>
						<path id="XMLID_46_" d="M222.9,110.6c2.4-1.7,3.3-2.8,4.2-4.4c1-1.5,2.2-2.1,3.2-3c0.9-0.9,73.7-44.5,78.9-48.3
							c0.9-0.7,1.4-3.3,1.1-4.4c-0.4-1.1-3.3-2-4.3-1.4c-3.8,2.6-78.7,51.7-78.7,51.7s-6.5,4.9-8.4,5.9c-2,1-13.2,4.3-8.3,5
							c0.1,0.1,0.5,0.1,0.7,0.2C214.3,114.8,220.5,112.3,222.9,110.6z"/>
					</defs>
					<use xlink:href="#XMLID_46_"  style="overflow:visible;fill:#B79797;"/>
					<clipPath id="XMLID_4_">
						<use xlink:href="#XMLID_46_"  style="overflow:visible;"/>
					</clipPath>
					<use xlink:href="#XMLID_46_"  style="overflow:visible;fill:none;stroke:#FFFFFF;stroke-width:0.5;stroke-miterlimit:10;"/>
				</g>
			</g>
			<path class="st12" d="M209.7,111.4c1.4,0.9,6.1-0.1,8.7-0.7c2.6-0.6,6.8-3.2,8.3-3.9c-0.1,0.5-2.4,2.8-3.5,3.6
				c-1.9,1.4-6.2,2.9-7.9,2.9C209.9,113.3,209.2,111.1,209.7,111.4z"/>
		</g>
	</g>
	<g>
		<g>
			<g>
				<g>
					<g>
						<defs>
							<path id="SVGID_1_" d="M209.6,112.3c-0.4,0.5-1.3,0.4-1.7-0.2c-0.4-0.5-0.4-1.2-0.5-1.9c-0.1-0.7-1.6,0-2.1-0.5
								c-0.5-0.5-0.8-1.3-1.1-1.3c-0.2,0-0.4-0.2-0.5-0.4c-0.8-1-1.4-2.2-1.7-3.5c-0.1-0.3-0.1-0.7,0.1-0.9c0.2-0.2,0.5-0.2,0.7-0.3
								c1-0.1,2.3-0.4,2.5-1.4c0.1-0.3,0-0.7,0-1c0.1-0.7,0.7-1.3,1.3-1.5c0.7-0.2,1.4-0.2,2.1-0.2c0.3,0,0.7,0,1-0.1
								c0.4-0.1,0.7-0.3,1.1-0.5c2.1-1.2,4.8-1.2,6.9,0c0.4,0.3,0.9,0.6,1.4,0.7c0.7,0.1,1.5,0,2,0.4c0.6,0.5,0.5,1.6,1.2,1.8
								c0.3,0.1,0.7,0,1,0c0.7,0.1,1,1,1.1,1.7c0.2,2,1.5,2.8-0.4,3.7c-0.6,0.3-0.3,2-0.9,2.2c-1.5,0.4-0.8,1-3.8,2
								s-8.4,1.5-8.4,1.5"/>
						</defs>
						<use xlink:href="#SVGID_1_"  style="overflow:visible;fill:#543C52;"/>
						<clipPath id="SVGID_2_">
							<use xlink:href="#SVGID_1_"  style="overflow:visible;"/>
						</clipPath>
						<path class="st13" d="M202.2,101.5l-0.5,2.7c0,0,6.9-1.1,7.3-2.1s-1.6-2.6-1.6-2.6C204.4,100.8,202.2,101.5,202.2,101.5z"/>
						<path class="st13" d="M225.5,102.8l-6.4,0.5c0,0-2-1.2-0.6-2.3s3.2-2.2,3.2-2.2L225.5,102.8z"/>
						<polygon class="st13" points="224.1,110.2 218.9,109.4 208.7,111.6 207.8,110.8 207.5,114 220.3,113.2 						"/>
					</g>
					<g>
						<path class="st11" d="M203.8,103.4c0.5-0.1,1-0.1,1.4-0.1c0.5,0,1,0.1,1.4,0.2c0.9,0.1,1.8-0.4,2.6-0.8
							c-0.4,0.3-0.8,0.6-1.2,0.8c-0.4,0.2-0.9,0.3-1.5,0.3c-0.5-0.1-0.9-0.2-1.4-0.2C204.7,103.4,204.2,103.4,203.8,103.4z"/>
					</g>
					<g>
						<path class="st11" d="M223.4,101.9c-0.5,0.1-1.1,0.1-1.6,0.1c-0.3,0-0.5,0-0.8,0c-0.2,0-0.5,0.3-0.8,0.1
							c0.3,0.1,0.4-0.2,0.7-0.3c0.3-0.1,0.6-0.1,0.8-0.1C222.4,101.8,222.9,101.8,223.4,101.9z"/>
					</g>
					<g>
						<path class="st11" d="M207.2,110c-0.2-0.5,0-1.1,0.5-1.5c0.4-0.4,1-0.5,1.4-0.8c0.3-0.3,0.3-1,0.6-1.4
							c0.3-0.5,0.7-0.9,1.2-1.1c-0.5,0.3-0.8,0.7-1.1,1.2c-0.1,0.2-0.2,0.5-0.3,0.7c-0.1,0.3-0.1,0.6-0.4,0.8
							c-0.2,0.2-0.5,0.3-0.8,0.4c-0.2,0.1-0.5,0.2-0.7,0.4C207.4,109,207.1,109.5,207.2,110z"/>
					</g>
					<g>
						<path class="st11" d="M212.5,110c-0.1-0.2,0-0.4,0.1-0.6c0.1-0.2,0.3-0.3,0.5-0.4c0.4-0.1,0.8-0.2,1.1-0.3
							c0.4-0.1,0.8-0.2,1.2-0.2l0.6,0c0.2,0,0.4,0,0.5-0.2c-0.1,0.2-0.3,0.3-0.5,0.3l-0.6,0.1c-0.4,0.1-0.8,0.2-1.2,0.3
							c-0.4,0.1-0.8,0.2-1.1,0.3C212.8,109.3,212.4,109.6,212.5,110z"/>
					</g>
					<g>
						<path class="st11" d="M219.9,110.2c-1.4,0.1-2.7,0.1-4.1,0.1c-0.7,0-1.4-0.1-1.9,0.3c-0.1,0.1-0.3,0.2-0.5,0.2
							c-0.2,0-0.4-0.1-0.5-0.2c-0.2-0.1-0.3-0.2-0.4-0.2c-0.1-0.1-0.3-0.1-0.4,0.1l0,0l0.1,0.5l-0.2-0.4l0,0l0,0
							c0.1-0.2,0.3-0.2,0.5-0.1c0.2,0.1,0.3,0.1,0.5,0.2c0.3,0.2,0.6,0.1,0.9-0.1c0.3-0.2,0.6-0.4,1-0.4c0.4,0,0.7,0,1,0
							C217.2,110.1,218.5,110.1,219.9,110.2z"/>
					</g>
					<g>
						<path class="st11" d="M215.5,104.6c1.4-0.2,2.9-0.4,4.3,0.1c0.3,0.1,0.7,0.3,1,0.5c0.3,0.1,0.7,0.2,1,0.2
							c0.7,0,1.4-0.1,2.2-0.1c-0.7,0.1-1.4,0.2-2.1,0.3c-0.4,0-0.8,0-1.1-0.1c-0.4-0.1-0.7-0.3-1-0.4
							C218.4,104.4,216.9,104.6,215.5,104.6z"/>
					</g>
					<g>
						<path class="st11" d="M209.4,99.3c0.5-0.2,1.1-0.2,1.6-0.1c0.5,0.1,1,0.4,1.5,0.6c0.5,0.2,1,0.5,1.5,0.6
							c0.5,0.2,1,0.3,1.6,0.1c-0.5,0.2-1.1,0.2-1.6,0c-0.5-0.1-1-0.4-1.5-0.6c-0.5-0.2-1-0.5-1.5-0.6
							C210.5,99.3,210,99.2,209.4,99.3z"/>
					</g>
				</g>
			</g>
		</g>
	</g>
</g>
</svg>
