<?xml version="1.0" encoding="utf-8"?>
<!-- Generator: Adobe Illustrator 25.2.3, SVG Export Plug-In . SVG Version: 6.00 Build 0)  -->
<svg version="1.1" id="Layer_1" xmlns="http://www.w3.org/2000/svg" xmlns:xlink="http://www.w3.org/1999/xlink" x="0px" y="0px"
	 viewBox="0 0 281.2 293.3" style="enable-background:new 0 0 281.2 293.3;" xml:space="preserve">
<style type="text/css">
	.st0{fill:none;stroke:#FFFFFF;stroke-width:0.5;stroke-linejoin:bevel;stroke-miterlimit:10;}
	.st1{fill:#CCB9B9;stroke:#FFFFFF;stroke-width:0.5;stroke-miterlimit:10;}
	.st2{fill:#E4DAD8;stroke:#FFFFFF;stroke-width:0.5;stroke-miterlimit:10;}
	.st3{fill:#CCB9B9;stroke:#FFFFFF;stroke-width:0.5;stroke-linejoin:bevel;stroke-miterlimit:10;}
	.st4{fill:#E4DAD8;stroke:#FFFFFF;stroke-width:0.5;stroke-linejoin:bevel;stroke-miterlimit:10;}
	.st5{fill:none;stroke:#FFFFFF;stroke-width:0.5;stroke-miterlimit:10;}
	.st6{fill:#CCB9B9;}
	.st7{fill:#CCB9B9;stroke:#FFFFFF;stroke-width:0.7908;stroke-miterlimit:10;}
	.st8{fill:#F77441;}
	.st9{fill:#B79797;stroke:#FFFFFF;stroke-width:0.7908;stroke-miterlimit:10;}
	.st10{fill:#361D32;stroke:#FFFFFF;stroke-width:0.2146;stroke-miterlimit:10;}
	.st11{fill:none;stroke:#361D32;stroke-width:0.1397;stroke-miterlimit:10;}
	.st12{fill:#E4DAD8;stroke:#FFFFFF;stroke-width:0.2146;stroke-miterlimit:10;}
	.st13{fill:none;stroke:#FFFFFF;stroke-width:0.8947;stroke-miterlimit:10;}
	.st14{fill:#E4DAD8;stroke:#FFFFFF;stroke-width:0.1542;stroke-miterlimit:9.9996;}
	.st15{fill:#E4DAD8;stroke:#FFFFFF;stroke-width:0.123;stroke-miterlimit:10.0006;}
	.st16{fill:#F77441;stroke:#FFFFFF;stroke-width:0.5;stroke-miterlimit:10;}
	.st17{fill:#361D32;stroke:#FFFFFF;stroke-width:0.25;stroke-miterlimit:10;}
	.st18{fill:#E4DAD8;stroke:#FFFFFF;stroke-width:0.25;stroke-miterlimit:10;}
	.st19{fill:#F77441;stroke:#FFFFFF;stroke-width:0.4307;stroke-miterlimit:10;}
	.st20{fill:#F77441;stroke:#FFFFFF;stroke-width:0.6103;stroke-miterlimit:10;}
	.st21{fill:none;stroke:#FFFFFF;stroke-width:0.6151;stroke-miterlimit:10;}
</style>
<g>
	<g>
		<line class="st0" x1="96.3" y1="270.6" x2="96.2" y2="285.9"/>
		<polygon class="st1" points="17.2,225.5 97,265.9 232.3,197.8 232.6,182.1 157.2,147.6 17.3,218.1 		"/>
		<polygon class="st1" points="17.3,226.7 17.5,211.5 97.1,250.5 96.8,265.9 		"/>
		<polygon class="st1" points="0.5,230.5 0.5,243.2 97.4,292.2 261,209.8 260.7,196.8 97.3,278.1 		"/>
		<path class="st2" d="M17.6,211.4c0,0,79.4,39.1,79.5,39l135.2-68.3l-79.9-38.6L17.6,211.4z"/>
		<polygon class="st2" points="96.7,278.1 261.1,196.8 163.9,149.6 0.8,229.5 		"/>
		<polygon class="st1" points="17.2,225.5 96.7,266.5 235,196.2 235.3,180.5 157.2,147.6 17.3,218.1 		"/>
		<polygon class="st3" points="17.3,226.7 17.5,211.5 96.7,251.4 96.6,266.7 		"/>
		<polygon class="st3" points="1,229.6 0.9,244.9 96.7,293 261.5,209.4 261.3,196.4 96.7,278.1 		"/>
		<path class="st4" d="M17.6,211.4l78.9,39.9l139.4-71.2L156,141.5L17.6,211.4z"/>
		<line class="st5" x1="96.7" y1="278.5" x2="96.7" y2="292.8"/>
	</g>
	<g>
		<path class="st6" d="M153.6,110.6c0,0-0.6,1.9,0.6,1.5c1.3-0.4,3.5-1.6,2-1.7C154.7,110.2,153.6,110.6,153.6,110.6"/>
		<path class="st6" d="M156.4,104.9c0,0-0.6,1.9,0.7,1.5s3.5-1.7,1.9-1.8S156.4,104.9,156.4,104.9"/>
		<path class="st6" d="M154.1,107.3c0,0-0.5,1.9,0.8,1.5c1.2-0.5,3.4-1.9,1.8-1.9C155.1,106.9,154.1,107.3,154.1,107.3"/>
		<path class="st6" d="M158.6,109.7c0,0-0.6,1.9,0.7,1.5s3.5-1.7,1.9-1.8C159.6,109.3,158.6,109.7,158.6,109.7"/>
		<path class="st6" d="M161,106.7c0,0-0.5,1.9,0.7,1.5c1.3-0.4,3.5-1.8,1.9-1.8C162,106.3,161,106.7,161,106.7"/>
		<path class="st6" d="M159.4,114.3c0,0-0.5,1.9,0.8,1.5c1.2-0.5,3.4-1.9,1.8-1.9C160.4,113.9,159.4,114.3,159.4,114.3"/>
		<path class="st6" d="M162.3,103.1c0,0-0.7,1.9,0.6,1.5c1.3-0.3,3.6-1.5,2-1.7C163.3,102.8,162.3,103.1,162.3,103.1"/>
		<path class="st6" d="M165.4,108.8c0,0-0.5,1.9,0.8,1.5c1.2-0.5,3.4-1.9,1.8-1.9C166.4,108.4,165.4,108.8,165.4,108.8"/>
		<path class="st6" d="M167.1,103.1c0,0-0.5,1.9,0.7,1.5c1.3-0.4,3.5-1.8,1.9-1.8C168.1,102.7,167.1,103.1,167.1,103.1"/>
		<path class="st6" d="M177.1,109.6c0,0,0,2,1.1,1.3c1.1-0.8,2.9-2.7,1.3-2.3C178,108.9,177.1,109.6,177.1,109.6"/>
		<path class="st6" d="M173.8,106.9c0,0-0.5,1.9,0.8,1.5c1.2-0.5,3.4-1.9,1.8-1.9C174.8,106.5,173.8,106.9,173.8,106.9"/>
		<path class="st6" d="M172.4,102.6c0,0-0.7,1.9,0.6,1.6s3.6-1.4,2-1.6C173.5,102.3,172.4,102.6,172.4,102.6"/>
		<path class="st6" d="M170.6,98c0,0-0.7,1.9,0.6,1.5c1.3-0.3,3.6-1.4,2-1.6C171.6,97.7,170.6,98,170.6,98"/>
		<path class="st6" d="M175.9,100.3c0,0-0.5,1.9,0.8,1.5c1.2-0.5,3.4-1.9,1.8-1.9C176.9,99.9,175.9,100.3,175.9,100.3"/>
		<path class="st6" d="M176.4,115.4c0,0,0.2,2.1,1.3,1.2s2.7-3.1,1.1-2.5C177.3,114.6,176.4,115.4,176.4,115.4"/>
		<path class="st6" d="M169,107.2c0,0-0.5,1.9,0.8,1.5c1.2-0.5,3.4-1.9,1.8-1.9C170,106.8,169,107.2,169,107.2"/>
		<path class="st6" d="M170,112.2c0,0-0.5,1.9,0.8,1.5c1.2-0.5,3.4-1.9,1.8-1.9C171,111.8,170,112.2,170,112.2"/>
		<path class="st6" d="M164.7,118.2c0,0-0.9,1.8,0.4,1.6c1.3-0.2,3.7-1.1,2.2-1.5C165.8,118,164.7,118.2,164.7,118.2"/>
		<path class="st6" d="M170.9,121.2c0,0-0.4,2,0.8,1.5s3.4-2,1.8-2C171.9,120.7,170.9,121.2,170.9,121.2"/>
		<path class="st6" d="M165.8,129.5c0,0-0.1,2.8,1.5,1.8s4.2-3.6,2-3.2C167.1,128.6,165.8,129.5,165.8,129.5"/>
		<path class="st6" d="M161.9,125.3c0,0-0.5,2,0.8,1.5s3.5-2,1.8-2C162.9,124.8,161.9,125.3,161.9,125.3"/>
		<path class="st6" d="M158.6,125c0,0-0.8,1.8,0.5,1.6c1.3-0.2,3.7-1.2,2.1-1.5C159.7,124.7,158.6,125,158.6,125"/>
		<path class="st6" d="M151.7,126.3c0,0-0.5,1.9,0.8,1.5c1.2-0.5,3.4-1.9,1.8-1.9C152.7,125.9,151.7,126.3,151.7,126.3"/>
		<path class="st6" d="M162.1,133.9c0,0-0.1,3,1.6,1.9c1.7-1.1,4.5-3.8,2.1-3.3C163.5,133,162.1,133.9,162.1,133.9"/>
		<path class="st6" d="M160.2,135.4c1.1-1.3,2.7-4.1,0.9-3.2c-1.8,0.9-2.7,2-2.7,2"/>
		<path class="st6" d="M172.3,126.8c0,0-1.4,1.5,0,1.7s4,0,2.6-0.8C173.4,127,172.3,126.8,172.3,126.8"/>
		<path class="st6" d="M168.9,132.2c0,0-0.8,2.2,0.7,1.8s4.2-1.8,2.4-2C170.1,131.8,168.9,132.2,168.9,132.2"/>
		<path class="st6" d="M151.2,121.8c0,0-0.5,1.9,0.8,1.5c1.2-0.5,3.4-1.9,1.8-1.9C152.2,121.3,151.2,121.8,151.2,121.8"/>
		<path class="st6" d="M146.8,119c0,0-0.8,1.8,0.5,1.6c1.3-0.2,3.7-1.3,2.1-1.5C147.8,118.7,146.8,119,146.8,119"/>
		<path class="st6" d="M182.4,94.7c0,0-2.4-0.9-0.9-1.6s4.7-1.5,3.4-0.2C183.6,94.2,182.4,94.7,182.4,94.7"/>
	</g>
	<g>
		<path class="st6" d="M117.2,128.7c0,0-0.6,1.9,0.6,1.5c1.3-0.4,3.5-1.6,2-1.7C118.2,128.4,117.2,128.7,117.2,128.7"/>
		<path class="st6" d="M120,123c0,0-0.6,1.9,0.7,1.5c1.3-0.4,3.5-1.7,1.9-1.8S120,123,120,123"/>
		<path class="st6" d="M117.7,125.4c0,0-0.5,1.9,0.8,1.5c1.2-0.5,3.4-1.9,1.8-1.9C118.7,125,117.7,125.4,117.7,125.4"/>
		<path class="st6" d="M122.2,127.8c0,0-0.6,1.9,0.7,1.5c1.3-0.4,3.5-1.7,1.9-1.8C123.2,127.4,122.2,127.8,122.2,127.8"/>
		<path class="st6" d="M124.5,124.8c0,0-0.5,1.9,0.7,1.5c1.3-0.4,3.5-1.8,1.9-1.8C125.5,124.4,124.5,124.8,124.5,124.8"/>
		<path class="st6" d="M122.9,132.4c0,0-0.5,1.9,0.8,1.5c1.2-0.5,3.4-1.9,1.8-1.9C123.9,132,122.9,132.4,122.9,132.4"/>
		<path class="st6" d="M125.8,121.2c0,0-0.7,1.9,0.6,1.5c1.3-0.3,3.6-1.5,2-1.7C126.8,120.9,125.8,121.2,125.8,121.2"/>
		<path class="st6" d="M128.9,126.9c0,0-0.5,1.9,0.8,1.5c1.2-0.5,3.4-1.9,1.8-1.9C129.9,126.5,128.9,126.9,128.9,126.9"/>
		<path class="st6" d="M130.6,121.2c0,0-0.5,1.9,0.7,1.5c1.3-0.4,3.5-1.8,1.9-1.8C131.6,120.8,130.6,121.2,130.6,121.2"/>
		<path class="st6" d="M140.7,127.7c0,0,0,2,1.1,1.3c1.1-0.8,2.9-2.7,1.3-2.3C141.5,127,140.7,127.7,140.7,127.7"/>
		<path class="st6" d="M137.3,125.1c0,0-0.5,1.9,0.8,1.5c1.2-0.5,3.4-1.9,1.8-1.9C138.3,124.6,137.3,125.1,137.3,125.1"/>
		<path class="st6" d="M135.9,120.7c0,0-0.7,1.9,0.6,1.6s3.6-1.4,2-1.6C137,120.4,135.9,120.7,135.9,120.7"/>
		<path class="st6" d="M134.1,116.1c0,0-0.7,1.9,0.6,1.5c1.3-0.3,3.6-1.4,2-1.6C135.2,115.8,134.1,116.1,134.1,116.1"/>
		<path class="st6" d="M139.5,118.5c0,0-0.5,1.9,0.8,1.5c1.2-0.5,3.4-1.9,1.8-1.9C140.4,118,139.5,118.5,139.5,118.5"/>
		<path class="st6" d="M132.5,125.3c0,0-0.5,1.9,0.8,1.5c1.2-0.5,3.4-1.9,1.8-1.9C133.5,124.9,132.5,125.3,132.5,125.3"/>
		<path class="st6" d="M133.5,130.4c0,0-0.5,1.9,0.8,1.5c1.2-0.5,3.4-1.9,1.8-1.9C134.5,129.9,133.5,130.4,133.5,130.4"/>
		<path class="st6" d="M128.3,136.3c0,0-0.9,1.8,0.4,1.6c1.3-0.2,3.7-1.1,2.2-1.5C129.3,136.1,128.3,136.3,128.3,136.3"/>
		<path class="st6" d="M134.4,139.3c0,0-0.4,2,0.8,1.5c1.3-0.5,3.4-2,1.8-2C135.5,138.8,134.4,139.3,134.4,139.3"/>
		<path class="st6" d="M129.4,147.6c0,0-0.1,2.8,1.5,1.8s4.2-3.6,2-3.2C130.6,146.7,129.4,147.6,129.4,147.6"/>
		<path class="st6" d="M125.4,143.4c0,0-0.5,2,0.8,1.5s3.5-2,1.8-2C126.4,143,125.4,143.4,125.4,143.4"/>
		<path class="st6" d="M122.1,143.1c0,0-0.8,1.8,0.5,1.6c1.3-0.2,3.7-1.2,2.1-1.5C123.2,142.9,122.1,143.1,122.1,143.1"/>
		<path class="st6" d="M115.2,144.4c0,0-0.5,1.9,0.8,1.5c1.2-0.5,3.4-1.9,1.8-1.9C116.2,144,115.2,144.4,115.2,144.4"/>
		<path class="st6" d="M123.7,153.6c1.1-1.3,2.7-4.1,0.9-3.2c-1.8,0.9-2.7,2-2.7,2"/>
		<path class="st6" d="M135.8,145c0,0-1.4,1.5,0,1.7s4,0,2.6-0.8C136.9,145.1,135.8,145,135.8,145"/>
		<path class="st6" d="M114.7,139.9c0,0-0.5,1.9,0.8,1.5c1.2-0.5,3.4-1.9,1.8-1.9C115.7,139.5,114.7,139.9,114.7,139.9"/>
		<path class="st6" d="M110.3,137.1c0,0-0.8,1.8,0.5,1.6c1.3-0.2,3.7-1.3,2.1-1.5C111.4,136.8,110.3,137.1,110.3,137.1"/>
		<path class="st6" d="M145.9,112.8c0,0-2.4-0.9-0.9-1.6s4.7-1.5,3.4-0.2C147.1,112.3,145.9,112.8,145.9,112.8"/>
	</g>
	<g>
		<path class="st7" d="M275.7,105.2c4.4,3.4,7.1,13,1.5,23.5s-14.1,13.3-17.6,12.1c-3.5-1.1-66.6-33.2-66.6-33.2l16.9-35.4
			C209.8,72.3,271.3,101.9,275.7,105.2z"/>
		<path class="st8" d="M260.2,96.7c2.3,1.4,4.9,13-0.7,23c-5.6,10-12.5,14.5-16,13.4C240,132,212.2,117,212.2,117s9-1.1,15.6-12.6
			s3.1-21.8,3.1-21.8S257.9,95.4,260.2,96.7"/>
		<path class="st6" d="M211.8,96.9c-6,9-15.7,13.1-21.6,9.1c-5.9-4-5.8-14.5,0.2-23.5s15.7-13.1,21.6-9.1
			C218,77.4,217.9,87.9,211.8,96.9"/>
		<path class="st9" d="M211.8,96.9c-6,9-15.7,13.1-21.6,9.1c-5.9-4-5.8-14.5,0.2-23.5s15.7-13.1,21.6-9.1
			C218,77.4,217.9,87.9,211.8,96.9z"/>
		<path class="st6" d="M198.5,87.9c-2.6,3.9-6.9,5.7-9.5,4c-2.6-1.7-2.5-6.3,0.1-10.3c2.6-3.9,6.9-5.7,9.5-4
			C201.2,79.4,201.1,84,198.5,87.9"/>
		<path class="st10" d="M198.5,87.9c-2.6,3.9-6.9,5.7-9.5,4c-2.6-1.7-2.5-6.3,0.1-10.3c2.6-3.9,6.9-5.7,9.5-4
			C201.2,79.4,201.1,84,198.5,87.9z"/>
		<path class="st6" d="M194.7,85.5c-1,1.4-2.5,2.1-3.4,1.4c-0.9-0.6-0.9-2.3,0-3.7c1-1.4,2.5-2.1,3.4-1.4
			C195.6,82.4,195.6,84.1,194.7,85.5"/>
		<path class="st11" d="M194.7,85.5c-1,1.4-2.5,2.1-3.4,1.4c-0.9-0.6-0.9-2.3,0-3.7c1-1.4,2.5-2.1,3.4-1.4
			C195.6,82.4,195.6,84.1,194.7,85.5z"/>
		<path class="st10" d="M198.6,77.6c3.6,2.6,6.3,1.7,6.3,1.7c3.4-1.4,5.4,2.3,5.9,4.3s-0.4,8.4-4.6,12.7c-4.2,4.3-8.3,6.3-11.7,3.2
			c-0.5-4.9-4.6-7.2-4.6-7.2s3.8,1.8,8.5-4.2C203,82.1,198.6,77.6,198.6,77.6"/>
		<path class="st6" d="M191.6,84c-1,1.4-2.5,2.1-3.4,1.4c-0.9-0.6-0.9-2.3,0-3.7c1-1.4,2.5-2.1,3.4-1.4
			C192.6,80.9,192.6,82.6,191.6,84"/>
		<path class="st12" d="M191.6,84c-1,1.4-2.5,2.1-3.4,1.4c-0.9-0.6-0.9-2.3,0-3.7c1-1.4,2.5-2.1,3.4-1.4
			C192.6,80.9,192.6,82.6,191.6,84z"/>
		<path class="st12" d="M191.8,80.4l2.9,1.4c0,0,1.5,1.4,0.2,3.4c-1.4,2-3,2-3,2l-3.4-1.7c0,0,2.3,0.2,3.4-2
			C192.9,81.3,191.8,80.4,191.8,80.4z"/>
		<path class="st13" d="M231.9,122.3c-0.1-4.3-0.1-8.6-0.2-12.9c2.8,2.6,5.6,5.2,8.6,7.6c0.2-3.2-0.9-6.6-3-9
			c0.3,0.3,0.9,0.2,1.1-0.2c0.3-0.3,0.3-0.8,0.3-1.3c0.2-3.2-0.2-6.3-1-9.4c0.5,0.5,1.2,0.7,1.8,0.4c0-0.5,0.1-0.9,0.1-1.4
			c1.7,0.2,3.4-0.7,4.4-2.1"/>
		<rect x="188.2" y="86" transform="matrix(0.46 -0.8879 0.8879 0.46 25.1362 214.5799)" class="st14" width="1.6" height="1.2"/>
		
			<ellipse transform="matrix(0.4295 -0.9031 0.9031 0.4295 28.7442 220.2881)" class="st15" cx="188.7" cy="87.4" rx="0.2" ry="0.6"/>
	</g>
	<g>
		<path class="st6" d="M153.6,110.6c0,0-0.6,1.9,0.6,1.5c1.3-0.4,3.5-1.6,2-1.7C154.7,110.2,153.6,110.6,153.6,110.6"/>
		<path class="st6" d="M156.4,104.9c0,0-0.6,1.9,0.7,1.5s3.5-1.7,1.9-1.8S156.4,104.9,156.4,104.9"/>
		<path class="st6" d="M154.1,107.3c0,0-0.5,1.9,0.8,1.5c1.2-0.5,3.4-1.9,1.8-1.9C155.1,106.9,154.1,107.3,154.1,107.3"/>
		<path class="st6" d="M158.6,109.7c0,0-0.6,1.9,0.7,1.5s3.5-1.7,1.9-1.8C159.6,109.3,158.6,109.7,158.6,109.7"/>
		<path class="st6" d="M161,106.7c0,0-0.5,1.9,0.7,1.5c1.3-0.4,3.5-1.8,1.9-1.8C162,106.3,161,106.7,161,106.7"/>
		<path class="st6" d="M159.4,114.3c0,0-0.5,1.9,0.8,1.5c1.2-0.5,3.4-1.9,1.8-1.9C160.4,113.9,159.4,114.3,159.4,114.3"/>
		<path class="st6" d="M162.3,103.1c0,0-0.7,1.9,0.6,1.5c1.3-0.3,3.6-1.5,2-1.7C163.3,102.8,162.3,103.1,162.3,103.1"/>
		<path class="st6" d="M165.4,108.8c0,0-0.5,1.9,0.8,1.5c1.2-0.5,3.4-1.9,1.8-1.9C166.4,108.4,165.4,108.8,165.4,108.8"/>
		<path class="st6" d="M167.1,103.1c0,0-0.5,1.9,0.7,1.5c1.3-0.4,3.5-1.8,1.9-1.8C168.1,102.7,167.1,103.1,167.1,103.1"/>
		<path class="st6" d="M177.1,109.6c0,0,0,2,1.1,1.3c1.1-0.8,2.9-2.7,1.3-2.3C178,108.9,177.1,109.6,177.1,109.6"/>
		<path class="st6" d="M173.8,106.9c0,0-0.5,1.9,0.8,1.5c1.2-0.5,3.4-1.9,1.8-1.9C174.8,106.5,173.8,106.9,173.8,106.9"/>
		<path class="st6" d="M172.4,102.6c0,0-0.7,1.9,0.6,1.6s3.6-1.4,2-1.6C173.5,102.3,172.4,102.6,172.4,102.6"/>
		<path class="st6" d="M170.6,98c0,0-0.7,1.9,0.6,1.5c1.3-0.3,3.6-1.4,2-1.6C171.6,97.7,170.6,98,170.6,98"/>
		<path class="st6" d="M175.9,100.3c0,0-0.5,1.9,0.8,1.5c1.2-0.5,3.4-1.9,1.8-1.9C176.9,99.9,175.9,100.3,175.9,100.3"/>
		<path class="st6" d="M176.4,115.4c0,0,0.2,2.1,1.3,1.2s2.7-3.1,1.1-2.5C177.3,114.6,176.4,115.4,176.4,115.4"/>
		<path class="st6" d="M169,107.2c0,0-0.5,1.9,0.8,1.5c1.2-0.5,3.4-1.9,1.8-1.9C170,106.8,169,107.2,169,107.2"/>
		<path class="st6" d="M170,112.2c0,0-0.5,1.9,0.8,1.5c1.2-0.5,3.4-1.9,1.8-1.9C171,111.8,170,112.2,170,112.2"/>
		<path class="st6" d="M164.7,118.2c0,0-0.9,1.8,0.4,1.6c1.3-0.2,3.7-1.1,2.2-1.5C165.8,118,164.7,118.2,164.7,118.2"/>
		<path class="st6" d="M170.9,121.2c0,0-0.4,2,0.8,1.5s3.4-2,1.8-2C171.9,120.7,170.9,121.2,170.9,121.2"/>
		<path class="st6" d="M165.8,129.5c0,0-0.1,2.8,1.5,1.8s4.2-3.6,2-3.2C167.1,128.6,165.8,129.5,165.8,129.5"/>
		<path class="st6" d="M161.9,125.3c0,0-0.5,2,0.8,1.5s3.5-2,1.8-2C162.9,124.8,161.9,125.3,161.9,125.3"/>
		<path class="st6" d="M158.6,125c0,0-0.8,1.8,0.5,1.6c1.3-0.2,3.7-1.2,2.1-1.5C159.7,124.7,158.6,125,158.6,125"/>
		<path class="st6" d="M151.7,126.3c0,0-0.5,1.9,0.8,1.5c1.2-0.5,3.4-1.9,1.8-1.9C152.7,125.9,151.7,126.3,151.7,126.3"/>
		<path class="st6" d="M162.1,133.9c0,0-0.1,3,1.6,1.9c1.7-1.1,4.5-3.8,2.1-3.3C163.5,133,162.1,133.9,162.1,133.9"/>
		<path class="st6" d="M160.2,135.4c1.1-1.3,2.7-4.1,0.9-3.2c-1.8,0.9-2.7,2-2.7,2"/>
		<path class="st6" d="M172.3,126.8c0,0-1.4,1.5,0,1.7s4,0,2.6-0.8C173.4,127,172.3,126.8,172.3,126.8"/>
		<path class="st6" d="M168.9,132.2c0,0-0.8,2.2,0.7,1.8s4.2-1.8,2.4-2C170.1,131.8,168.9,132.2,168.9,132.2"/>
		<path class="st6" d="M151.2,121.8c0,0-0.5,1.9,0.8,1.5c1.2-0.5,3.4-1.9,1.8-1.9C152.2,121.3,151.2,121.8,151.2,121.8"/>
		<path class="st6" d="M146.8,119c0,0-0.8,1.8,0.5,1.6c1.3-0.2,3.7-1.3,2.1-1.5C147.8,118.7,146.8,119,146.8,119"/>
		<path class="st6" d="M182.4,94.7c0,0-2.4-0.9-0.9-1.6s4.7-1.5,3.4-0.2C183.6,94.2,182.4,94.7,182.4,94.7"/>
	</g>
	<g>
		<path class="st7" d="M275.7,105.2c4.4,3.4,7.1,13,1.5,23.5s-14.1,13.3-17.6,12.1c-3.5-1.1-66.6-33.2-66.6-33.2l16.9-35.4
			C209.8,72.3,271.3,101.9,275.7,105.2z"/>
		<path class="st16" d="M260.2,96.7c2.3,1.4,4.9,13-0.7,23c-5.6,10-12.5,14.5-16,13.4C240,132,212.2,117,212.2,117s9-1.1,15.6-12.6
			s3.1-21.8,3.1-21.8S257.9,95.4,260.2,96.7"/>
		<path class="st6" d="M211.8,96.9c-6,9-15.7,13.1-21.6,9.1c-5.9-4-5.8-14.5,0.2-23.5s15.7-13.1,21.6-9.1
			C218,77.4,217.9,87.9,211.8,96.9"/>
		<path class="st4" d="M211.8,96.9c-6,9-15.7,13.1-21.6,9.1c-5.9-4-5.8-14.5,0.2-23.5s15.7-13.1,21.6-9.1
			C218,77.4,217.9,87.9,211.8,96.9z"/>
		<path class="st6" d="M198.5,87.9c-2.6,3.9-6.9,5.7-9.5,4c-2.6-1.7-2.5-6.3,0.1-10.3c2.6-3.9,6.9-5.7,9.5-4
			C201.2,79.4,201.1,84,198.5,87.9"/>
		<path class="st10" d="M198.5,87.9c-2.6,3.9-6.9,5.7-9.5,4c-2.6-1.7-2.5-6.3,0.1-10.3c2.6-3.9,6.9-5.7,9.5-4
			C201.2,79.4,201.1,84,198.5,87.9z"/>
		<path class="st6" d="M194.7,85.5c-1,1.4-2.5,2.1-3.4,1.4c-0.9-0.6-0.9-2.3,0-3.7c1-1.4,2.5-2.1,3.4-1.4
			C195.6,82.4,195.6,84.1,194.7,85.5"/>
		<path class="st11" d="M194.7,85.5c-1,1.4-2.5,2.1-3.4,1.4c-0.9-0.6-0.9-2.3,0-3.7c1-1.4,2.5-2.1,3.4-1.4
			C195.6,82.4,195.6,84.1,194.7,85.5z"/>
		<path class="st17" d="M198.6,77.6c3.6,2.6,6.3,1.7,6.3,1.7c3.4-1.4,5.4,1.6,6,4.2c0.6,2.7-0.5,8.5-4.7,12.8
			c-2.8,2.9-5.3,4.9-7.8,5c-0.4,0-1.9-0.2-2.9-0.7s-1.2-1.1-1.2-1.2c-0.7-4.6-4.4-7.1-4.4-7.1s3.8,1.8,8.5-4.2
			C203,82.1,198.6,77.6,198.6,77.6"/>
		<path class="st6" d="M191.6,84c-1,1.4-2.5,2.1-3.4,1.4c-0.9-0.6-0.9-2.3,0-3.7c1-1.4,2.5-2.1,3.4-1.4
			C192.6,80.9,192.6,82.6,191.6,84"/>
		<path class="st18" d="M191.6,84c-1,1.4-2.5,2.1-3.4,1.4c-0.9-0.6-0.9-2.3,0-3.7c1-1.4,2.5-2.1,3.4-1.4
			C192.6,80.9,192.6,82.6,191.6,84z"/>
		<path class="st18" d="M191.8,80.4l2.9,1.4c0,0,1.5,1.4,0.2,3.4c-1.4,2-3,2-3,2l-3.4-1.7c0,0,2.3,0.2,3.4-2
			C192.9,81.3,191.8,80.4,191.8,80.4z"/>
		<path class="st13" d="M231.9,122.3c-0.1-4.3-0.1-8.6-0.2-12.9c2.8,2.6,5.6,5.2,8.6,7.6c0.2-3.2-0.9-6.6-3-9
			c0.3,0.3,0.9,0.2,1.1-0.2c0.3-0.3,0.3-0.8,0.3-1.3c0.2-3.2-0.2-6.3-1-9.4c0.5,0.5,1.2,0.7,1.8,0.4c0-0.5,0.1-0.9,0.1-1.4
			c1.7,0.2,3.4-0.7,4.4-2.1"/>
		<rect x="188.2" y="86" transform="matrix(0.46 -0.8879 0.8879 0.46 25.1362 214.5799)" class="st14" width="1.6" height="1.2"/>
		
			<ellipse transform="matrix(0.4295 -0.9031 0.9031 0.4295 28.7442 220.2881)" class="st15" cx="188.7" cy="87.4" rx="0.2" ry="0.6"/>
	</g>
	<g>
		<path class="st16" d="M96.7,108.2c0.6-1.5,3.7-2.7,7.4-2.6c3.7,0.1,6.6,1.4,6.6,3s-2.4,2.3-6.7,2.4
			C99.7,111.1,96.6,108.4,96.7,108.2z"/>
		<path class="st16" d="M96.7,108.3c0.2,1,1.7,1.8,1.7,1.8s0,1.2,0,1.6c0,0.5-6.3,10-8.1,13.6c-1.4,2.8-3.4,8.1-3,12.3
			c0.4,4.3,1.6,5.9,1.6,5.9l0.3,0.8c0,0-0.1,3.8-0.1,4s-0.4-0.4-1,1.8c-0.6,2.2-0.7,5.5-0.7,6.3c0,0.9-0.1,5.8,0.2,6.5
			c0.3,0.7,0.6,1.4,0.9,1.6s-0.9,0-0.9,1.2s-0.1,4.8-0.1,5.8s0.3,1.7,0.5,1.8c0,0-0.8,0.5-0.9,1.4c-0.1,1,0.1,4.3,0.2,5.6
			c0.1,0.4,1,1.1,1,1.1s-0.9,0.6-0.9,0.9c0,0-0.1,5.5-0.1,6.1s0.7,1.3,0.7,1.3s-0.7,0.6-0.7,1.2c0,0.6-0.2,3.7-0.2,5.6
			c0,1.9,0.1,3.9,0.1,4.4s0.6,0.7,0.6,1.1c0,0-0.9,0.6-0.9,1.1c0,0.6,0.1,7.9,0.1,7.9c0,0.2-0.2,3.3,3.2,6.2c2,1.7,6.6,3.5,12.7,3.5
			s7.1-0.2,10-1.6c2.9-1.4,4-3.7,4.6-5.3s0.6-9.5,0.5-10.5c0-0.3-0.6-0.6-0.6-0.8s0.5-0.7,0.6-1.5s0.2-8.2,0.2-9.2s-0.7-1.3-0.7-1.3
			s0.4-0.8,0.5-1.4c0.1-0.6,0.4-5.8,0.4-6.5s-0.9-1-0.9-1.1s0.7-0.5,0.8-0.8c0.2-1,0.2-5.5,0.2-5.5c0-0.2,0-0.6,0-0.7
			c-0.1-0.4-0.9-0.4-0.9-0.7s1.1-0.6,1.1-1.4s0.2-5.8,0.2-6.4c0-0.6-0.6-0.4-0.7-0.8c0,0,0.5-0.9,0.6-1.1c0.3-1,0.7-3.4,0.7-6.4
			c0-2.9-0.2-6.7-0.3-7.4c-0.1-0.7-0.4-1.8-1.2-1.8c0-0.1,0-3.9,0-3.9l0.9-2.1c0,0,2-6.6-0.4-13.7c-2.4-7.1-8.8-16.8-8.9-17.2
			c0-0.4-0.2-1.8-0.2-1.8s1.4-0.6,1.4-1.6c0.1-1-1.5-1.3-1.5-1.6l0.2-7.3c0,0-0.8,2.5-4.9,2.4c-5.1-0.1-6.1-2.5-6.1-2.5
			s-0.2,7-0.1,7.2C98.3,107,96.5,107.3,96.7,108.3z"/>
		<path class="st5" d="M98.3,106.8c-1,0.3,1.3,2.7,6,2.8s5.9-2.5,5.2-2.5"/>
		<path class="st5" d="M110.7,108.9c0,0-1.3,2.3-6.8,2.3c-5.4,0-7-2.6-7-2.6"/>
		<path class="st19" d="M98.6,99.9c0-1.3,2.9-2.3,5.7-2.2c2.8,0.1,5.1,1.2,5,2.5c0,1.3-2.3,2.1-5.2,2
			C101.4,102.2,98.6,101.2,98.6,99.9z"/>
		<path class="st20" d="M104.3,100.4"/>
		<path class="st20" d="M121.4,137"/>
		<path class="st21" d="M88.5,164.8c0,0,4.6,3.8,15.1,4.1c10.9,0.3,14.7-3.9,14.7-3.9"/>
		<path class="st21" d="M87.9,173.3c0,0,4.7,4,15.3,4.4c10.9,0.3,14.8-4.2,14.8-4.2"/>
		<path class="st21" d="M88.1,190.1c0,0,4,4.4,14.5,4.7c10.9,0.3,15-4.3,15-4.3"/>
		<path class="st21" d="M88.4,181.6c0,0,6.1,4,14.5,4.2s14.6-4.2,14.6-4.2"/>
		<path class="st21" d="M87.8,202c0,0,4,4.5,14.9,4.8c11.2,0.4,15-4.3,15-4.3"/>
		<path class="st21" d="M89.1,143.9c0,0,4.3,4.3,15,4.2c10.6-0.1,14-4,14-4"/>
		<path class="st21" d="M89.1,148.5c0,0,2.9,3.8,14.4,4.2s14.4-3.9,14.4-3.9"/>
	</g>
	<g>
		<path class="st6" d="M117.2,128.7c0,0-0.6,1.9,0.6,1.5c1.3-0.4,3.5-1.6,2-1.7C118.2,128.4,117.2,128.7,117.2,128.7"/>
		<path class="st6" d="M120,123c0,0-0.6,1.9,0.7,1.5c1.3-0.4,3.5-1.7,1.9-1.8S120,123,120,123"/>
		<path class="st6" d="M117.7,125.4c0,0-0.5,1.9,0.8,1.5c1.2-0.5,3.4-1.9,1.8-1.9C118.7,125,117.7,125.4,117.7,125.4"/>
		<path class="st6" d="M122.2,127.8c0,0-0.6,1.9,0.7,1.5c1.3-0.4,3.5-1.7,1.9-1.8C123.2,127.4,122.2,127.8,122.2,127.8"/>
		<path class="st6" d="M124.5,124.8c0,0-0.5,1.9,0.7,1.5c1.3-0.4,3.5-1.8,1.9-1.8C125.5,124.4,124.5,124.8,124.5,124.8"/>
		<path class="st6" d="M122.9,132.4c0,0-0.5,1.9,0.8,1.5c1.2-0.5,3.4-1.9,1.8-1.9C123.9,132,122.9,132.4,122.9,132.4"/>
		<path class="st6" d="M125.8,121.2c0,0-0.7,1.9,0.6,1.5c1.3-0.3,3.6-1.5,2-1.7C126.8,120.9,125.8,121.2,125.8,121.2"/>
		<path class="st6" d="M128.9,126.9c0,0-0.5,1.9,0.8,1.5c1.2-0.5,3.4-1.9,1.8-1.9C129.9,126.5,128.9,126.9,128.9,126.9"/>
		<path class="st6" d="M130.6,121.2c0,0-0.5,1.9,0.7,1.5c1.3-0.4,3.5-1.8,1.9-1.8C131.6,120.8,130.6,121.2,130.6,121.2"/>
		<path class="st6" d="M140.7,127.7c0,0,0,2,1.1,1.3c1.1-0.8,2.9-2.7,1.3-2.3C141.5,127,140.7,127.7,140.7,127.7"/>
		<path class="st6" d="M137.3,125.1c0,0-0.5,1.9,0.8,1.5c1.2-0.5,3.4-1.9,1.8-1.9C138.3,124.6,137.3,125.1,137.3,125.1"/>
		<path class="st6" d="M135.9,120.7c0,0-0.7,1.9,0.6,1.6s3.6-1.4,2-1.6C137,120.4,135.9,120.7,135.9,120.7"/>
		<path class="st6" d="M134.1,116.1c0,0-0.7,1.9,0.6,1.5c1.3-0.3,3.6-1.4,2-1.6C135.2,115.8,134.1,116.1,134.1,116.1"/>
		<path class="st6" d="M139.5,118.5c0,0-0.5,1.9,0.8,1.5c1.2-0.5,3.4-1.9,1.8-1.9C140.4,118,139.5,118.5,139.5,118.5"/>
		<path class="st6" d="M132.5,125.3c0,0-0.5,1.9,0.8,1.5c1.2-0.5,3.4-1.9,1.8-1.9C133.5,124.9,132.5,125.3,132.5,125.3"/>
		<path class="st6" d="M133.5,130.4c0,0-0.5,1.9,0.8,1.5c1.2-0.5,3.4-1.9,1.8-1.9C134.5,129.9,133.5,130.4,133.5,130.4"/>
		<path class="st6" d="M128.3,136.3c0,0-0.9,1.8,0.4,1.6c1.3-0.2,3.7-1.1,2.2-1.5C129.3,136.1,128.3,136.3,128.3,136.3"/>
		<path class="st6" d="M134.4,139.3c0,0-0.4,2,0.8,1.5c1.3-0.5,3.4-2,1.8-2C135.5,138.8,134.4,139.3,134.4,139.3"/>
		<path class="st6" d="M129.4,147.6c0,0-0.1,2.8,1.5,1.8s4.2-3.6,2-3.2C130.6,146.7,129.4,147.6,129.4,147.6"/>
		<path class="st6" d="M125.4,143.4c0,0-0.5,2,0.8,1.5s3.5-2,1.8-2C126.4,143,125.4,143.4,125.4,143.4"/>
		<path class="st6" d="M122.1,143.1c0,0-0.8,1.8,0.5,1.6c1.3-0.2,3.7-1.2,2.1-1.5C123.2,142.9,122.1,143.1,122.1,143.1"/>
		<path class="st6" d="M115.2,144.4c0,0-0.5,1.9,0.8,1.5c1.2-0.5,3.4-1.9,1.8-1.9C116.2,144,115.2,144.4,115.2,144.4"/>
		<path class="st6" d="M123.7,153.6c1.1-1.3,2.7-4.1,0.9-3.2c-1.8,0.9-2.7,2-2.7,2"/>
		<path class="st6" d="M135.8,145c0,0-1.4,1.5,0,1.7s4,0,2.6-0.8C136.9,145.1,135.8,145,135.8,145"/>
		<path class="st6" d="M114.7,139.9c0,0-0.5,1.9,0.8,1.5c1.2-0.5,3.4-1.9,1.8-1.9C115.7,139.5,114.7,139.9,114.7,139.9"/>
		<path class="st6" d="M110.3,137.1c0,0-0.8,1.8,0.5,1.6c1.3-0.2,3.7-1.3,2.1-1.5C111.4,136.8,110.3,137.1,110.3,137.1"/>
		<path class="st6" d="M145.9,112.8c0,0-2.4-0.9-0.9-1.6s4.7-1.5,3.4-0.2C147.1,112.3,145.9,112.8,145.9,112.8"/>
	</g>
</g>
</svg>
