<?xml version="1.0" encoding="utf-8"?>
<!-- Generator: Adobe Illustrator 25.2.3, SVG Export Plug-In . SVG Version: 6.00 Build 0)  -->
<svg version="1.1" id="Layer_1" xmlns="http://www.w3.org/2000/svg" xmlns:xlink="http://www.w3.org/1999/xlink" x="0px" y="0px"
	 viewBox="0 0 285 311.3" style="enable-background:new 0 0 285 311.3;" xml:space="preserve">
<style type="text/css">
	.st0{fill:none;stroke:#FFFFFF;stroke-width:0.5249;stroke-miterlimit:10;}
	.st1{fill:#CCB9B9;stroke:#FFFFFF;stroke-width:0.5249;stroke-miterlimit:10;}
	.st2{fill:#E4DAD8;stroke:#FFFFFF;stroke-width:0.5249;stroke-miterlimit:10;}
	.st3{fill:#CCB9B9;stroke:#FFFFFF;stroke-width:0.5249;stroke-linejoin:bevel;stroke-miterlimit:10;}
	.st4{fill:#E4DAD8;stroke:#FFFFFF;stroke-width:0.5249;stroke-linejoin:bevel;stroke-miterlimit:10;}
	.st5{fill:#DC3359;stroke:#FFFFFF;stroke-width:0.5249;stroke-miterlimit:10;}
	.st6{fill:#C42C54;stroke:#FFFFFF;stroke-width:0.5249;stroke-miterlimit:10;}
	.st7{fill:none;stroke:#FFFFFF;stroke-width:0.5207;stroke-miterlimit:10;}
	.st8{fill:none;stroke:#B71148;stroke-width:0.5207;stroke-miterlimit:10;}
	.st9{fill:none;stroke:#B71148;stroke-width:0.5207;stroke-linecap:round;stroke-miterlimit:10;}
	.st10{fill:#B71148;}
	.st11{fill:#B71148;stroke:#FFFFFF;stroke-width:0.5249;stroke-miterlimit:10;}
	.st12{fill:#B71148;stroke:#FFFFFF;stroke-width:0.5034;stroke-miterlimit:10;}
	.st13{fill:#F77441;stroke:#F7F3F2;stroke-width:0.5249;stroke-miterlimit:10;}
	.st14{fill:#F77441;stroke:#FFFFFF;stroke-width:0.5207;stroke-miterlimit:10;}
	.st15{fill:#DC3359;stroke:#FFFFFF;stroke-width:0.5034;stroke-miterlimit:10;}
	.st16{fill:none;stroke:#B71148;stroke-width:3.0204;stroke-linecap:round;stroke-miterlimit:10;}
	.st17{fill:#C42C54;}
	.st18{fill:none;stroke:#FFFFFF;stroke-width:0.5249;stroke-linejoin:bevel;stroke-miterlimit:10;}
</style>
<g>
	<line class="st0" x1="107.4" y1="293" x2="107.4" y2="307.8"/>
	<line class="st0" x1="106.9" y1="292.8" x2="106.8" y2="308.1"/>
	<g>
		<polygon class="st1" points="23.4,237.7 107.2,280.1 249.2,208.6 249.5,192.1 170.4,155.9 23.5,229.9 		"/>
		<polygon class="st1" points="23.5,239 23.7,222.9 107.3,263.8 107,280.1 		"/>
		<polygon class="st1" points="5.9,243 5.9,256.3 107.6,307.6 279.3,221.2 279,207.6 107.5,292.9 		"/>
		<polygon class="st2" points="107,292.9 279.5,207.6 177.4,158 6.2,241.9 		"/>
		<polygon class="st1" points="23.4,237.7 106.9,280.7 252.1,206.9 252.4,190.5 170.4,155.9 23.5,229.9 		"/>
		<polygon class="st3" points="23.5,239 23.7,222.9 106.9,264.9 106.8,280.9 		"/>
		<polygon class="st3" points="6.4,242 6.3,258 106.9,308.6 279.9,220.8 279.7,207.2 106.9,292.9 		"/>
		<path class="st4" d="M23.8,222.9l82.8,41.9L253,190l-83.9-40.5L23.8,222.9z"/>
		<g>
			<polygon class="st5" points="64.7,229.8 106.8,250.9 106.9,231.6 63.9,210.6 			"/>
			<polygon class="st6" points="106.9,250.6 226.9,191 227.5,174.1 106.9,231.6 			"/>
			<line class="st7" x1="63.9" y1="210.5" x2="182.1" y2="150.3"/>
			<line class="st8" x1="108.9" y1="226.6" x2="215.2" y2="176.5"/>
			<path class="st9" d="M76.6,208.7c-0.7-1.4,103.3-54.8,103.3-54.8"/>
			<g>
				<polygon class="st10" points="105.8,226.7 107.9,225.1 106.1,223.2 102.1,222.9 99.9,224.4 101.8,226.3 				"/>
				<path class="st10" d="M105.4,225.9l0.5-0.3c0.4-0.3,0.4-0.8,0.1-1.2l-0.4-0.4c-0.1-0.1-0.3-0.2-0.4-0.2l-2.2-0.2
					c-0.2,0-0.3,0-0.5,0.1l-0.5,0.3c-0.4,0.3-0.4,0.8-0.1,1.2l0.4,0.4c0.1,0.1,0.3,0.2,0.4,0.2l2.2,0.2
					C105.1,226.1,105.3,226.1,105.4,225.9z"/>
			</g>
			<g>
				<polygon class="st10" points="214.7,174 216.9,172.5 215,170.6 211,170.2 208.9,171.8 210.7,173.7 				"/>
				<path class="st10" d="M214.3,173.2l0.5-0.3c0.4-0.3,0.4-0.8,0.1-1.2l-0.4-0.4c-0.1-0.1-0.3-0.2-0.4-0.2l-2.2-0.2
					c-0.2,0-0.3,0-0.5,0.1l-0.5,0.3c-0.4,0.3-0.4,0.8-0.1,1.2l0.4,0.4c0.1,0.1,0.3,0.2,0.4,0.2l2.2,0.2
					C213.9,173.4,214.2,173.4,214.3,173.2z"/>
			</g>
			<g>
				<polygon class="st10" points="86.7,211.4 88.7,209.9 86.9,208.1 83.1,207.8 81.1,209.2 82.8,211 				"/>
				<path class="st10" d="M86.3,210.6l0.5-0.3c0.3-0.2,0.4-0.7,0.1-1l-0.4-0.4c-0.1-0.1-0.3-0.2-0.4-0.2l-2.1-0.2
					c-0.2,0-0.3,0-0.5,0.1l-0.5,0.3c-0.3,0.2-0.4,0.7-0.1,1l0.4,0.4c0.1,0.1,0.3,0.2,0.4,0.2l2.1,0.2
					C86,210.8,86.2,210.7,86.3,210.6z"/>
			</g>
			<polygon class="st11" points="54.9,224.6 106.8,250.6 106.9,231.6 54.8,205.4 			"/>
			<polygon class="st11" points="106.8,250.7 227.7,191 227.5,172.1 106.9,231.7 			"/>
			<path class="st12" d="M183.6,160.9l10.6-5.4c0,0-0.8,2.9,1.5,4.1c2.4,1.2,6.5-0.3,6.5-0.3l-14.5,6.4L183.6,160.9z"/>
			<g>
				<path class="st13" d="M103.5,211.8c0.4-0.1,0.1-1.6,0.1-1.6l1.8-0.8c0,0,10.1,0.8,13.4,0.8c2.7,0,7.5-0.6,10.5-2.5
					c3-2,3.9-3.5,3.9-3.5l0.9-0.8l2.6-1.3c0,0-0.1,0.4,1.8,0s5-2,5-2l4.3-2.4c0,0,1.4-1.4,1.5-1.6c0-0.3,0.9,0.3,1.3,0.2
					c0.3-0.1,3.9-2.2,4.2-2.2c0.3,0,1.3-0.9,1.3-1l1.5,0.1c0,0,3.3-1.8,4.1-2.3c0.3-0.2,0.4-1.3,0.4-1.3s0.8,0.5,1,0.4l4.4-2.2
					l0.9-1.2l0.7,0.3l6.9-3.7l0.8-0.3c0,0,0.7-0.7,1-0.8l0.7,0.2l5.8-3.4c0.2-0.1,7.6-2.8,2-14.6c-5.1-10.7-12.2-8.6-14.1-8.2
					c-1.3,0.2-4.8,1.9-5.5,2.4c-0.2,0.1-0.3,0.7-0.4,0.8c-0.2,0.1-0.5-0.2-0.7-0.2c-1.6,0.6-7,3.4-8.2,4.2c-0.1,0.1-0.1,0.6-0.1,0.6
					s-0.8,0-1,0c-0.7,0.2-3.4,1.5-4.9,2.2c-0.2,0.1-0.2,0.8-0.2,0.8s-0.8,0-1.2,0c-0.8,0.2-4.5,2.2-4.5,2.2
					c-0.1,0.1-0.2,0.1-0.2,0.2c-0.3,0.2-0.2,0.6,0,0.9h-0.1c0,0-1.3-0.4-1.5-0.3c-0.9,0.3-4.2,1.9-5.2,2.5c-0.1,0.1-0.1,0.6-0.3,0.8
					c-0.3,0.2-0.9,0-1,0c-1.7,0.3-9.3,4.4-9.3,4.4l-2,2.2l-3.1,1.7l-1.9,0.1c0,0-5.8,1-10.2,5.7c-4.4,4.6-9.4,13.1-9.4,13.1
					l-1.4,0.8c0,0-0.4,0.3-0.6,0.3s-0.7-0.7-1-0.5c-0.4,0.3,0,1.5-0.3,1.7c-0.8,0.5-3.3,1.7-3.3,1.7l-1.8,0.8c0,0,1.5,0,2.9,3.1
					c1.9,3.9,1.2,5.2,1.2,5.2l4.4-2.4l1-0.3C102.3,211.2,103.2,211.9,103.5,211.8z"/>
				<path class="st0" d="M103,211.8c0,0-0.2-4.8-5.1-10.1"/>
				<path class="st7" d="M98.7,201.4c4.8,5.4,4.8,9.9,4.8,9.9"/>
				<path class="st13" d="M96.6,214.1c-0.7,0.4-2.5-1.6-3.6-3.8c-1-2.2-1.4-4.4-0.5-4.7c0.7-0.4,2.3,1.2,3.4,3.4
					C96.9,211.1,97.3,213.8,96.6,214.1z"/>
				<path class="st14" d="M94.6,209.5"/>
				<path class="st14" d="M115.6,182.2"/>
				<path class="st7" d="M149.6,195.8c0,0,0.8-4.4-3-12.5c-4-8.4-8.2-10-8.2-10"/>
				<path class="st7" d="M156.1,192.8c0,0,1.5-4.1-2.4-12.2c-4-8.4-8.4-10.2-8.4-10.2"/>
				<path class="st7" d="M168.8,186.4c0,0,1.9-4.7-2-12.8c-4-8.4-8.9-9.3-8.9-9.3"/>
				<path class="st7" d="M162.2,189.3c0,0,1.7-4.3-2.2-12.4c-4-8.4-8.6-9.7-8.6-9.7"/>
				<path class="st7" d="M178,182c0,0,1.8-4.8-2.2-13.2c-4.2-8.6-9.1-9.8-9.1-9.8"/>
				<path class="st7" d="M133.6,203.4c0,0-1-7-3.3-12.3c-2.2-5.2-7.5-9.7-7.5-9.7"/>
				<path class="st7" d="M136.9,201.8c0,0-0.3-6.5-2.9-12c-2.6-5.5-8-9.7-8-9.7"/>
			</g>
			<path class="st15" d="M201.3,159l-14,6.8c1.4,3.6,1.5,6.2,0.9,8.2c-0.9,3.9-4.1,5.1-4.1,5.1L179,182l-0.8-0.3
				c-0.3,0.1-0.6,0.8-0.6,0.8l-7.9,4.2l-1-0.2l-1.2,1.2l-4.4,2.2c-0.2,0.1-0.8-0.3-0.8-0.3s-0.3,1-0.6,1.3c-0.8,0.6-4.1,2.3-4.1,2.3
				l-1.4-0.3c0,0.2-1,1.3-1.4,1.3s-3.9,2-4.2,2.1c-0.3,0.1-1.2-0.5-1.2-0.2s-0.8,1.3-0.8,1.3l-5,2.8c0,0-3.3,1.6-5,2
				c-1.9,0.4-1.8,0-1.8,0l-2.6,1.3l-0.9,0.8c0,0-0.8,1.6-3.9,3.5c-3,2-7.8,2.5-10.5,2.5c-3.4,0-13.4-0.8-13.4-0.8l-1.8,0.8
				c0,0,0.2,1.5-0.1,1.6c-0.3,0.1-1.2-0.5-1.2-0.5l-1,0.3l-4.4,2.4c0,0-0.9-1-2.8-4.8c-1.6-3.1-1.4-3.6-1.4-3.6l1.8-0.8
				c0,0,2.4-1,3.3-1.7c0.3-0.2-0.1-1.5,0.3-1.7c0.3-0.2,0.8,0.5,1,0.5c0.2,0,0.6-0.3,0.6-0.3l1.4-0.8c0,0,5-8.5,9.4-13.1
				s10.2-5.7,10.2-5.7l1.9-0.1l3.1-1.7l2-2.2c0,0,7.7-4.1,9.3-4.4c0.2,0,0.7,0.2,1,0s0.2-0.7,0.3-0.8c1-0.7,4.3-2.2,5.2-2.5
				c0.3-0.1,1.5,0.3,1.5,0.3h0.1c-0.2-0.2-0.3-0.6,0-0.9c0.1-0.1,0.1-0.1,0.2-0.2c0,0,3.7-2,4.5-2.2c0.3-0.1,1.2,0,1.2,0
				s0-0.7,0.2-0.8c1.6-0.7,4.2-2,4.9-2.2c0.2-0.1,1,0,1,0s0-0.5,0.1-0.6c1.2-0.9,6.6-3.6,8.2-4.2c0.2-0.1,0.6,0.2,0.7,0.2
				c0.1-0.1,0.3-0.7,0.4-0.8c0.6-0.4,4.2-2.1,5.5-2.4c1.7-0.3,7.1-0.4,12.2,4.4l9.7-5L174.7,145L55.1,205.4l52,26.5l120.5-60.2
				L201.3,159z"/>
			<line class="st16" x1="115.3" y1="220.8" x2="205.4" y2="176.2"/>
			<line class="st16" x1="78.2" y1="199.6" x2="167.8" y2="153.7"/>
			<g>
				<polygon class="st10" points="177.1,152.3 179.2,150.8 177.4,149 173.6,148.6 171.5,150 173.3,151.8 				"/>
				<path class="st17" d="M176.8,151.5l0.5-0.3c0.3-0.2,0.4-0.7,0.1-1l-0.4-0.4c-0.1-0.1-0.3-0.2-0.4-0.2l-2.1-0.2
					c-0.2,0-0.3,0-0.5,0.1l-0.5,0.3c-0.3,0.2-0.4,0.7-0.1,1l0.4,0.4c0.1,0.1,0.3,0.2,0.4,0.2l2.1,0.2
					C176.5,151.6,176.6,151.6,176.8,151.5z"/>
			</g>
			<g>
				<polygon class="st10" points="214.4,171.7 216.5,170.1 214.7,168.2 210.7,167.9 208.5,169.4 210.4,171.3 				"/>
				<path class="st17" d="M213.9,170.8l0.5-0.3c0.4-0.3,0.4-0.8,0.1-1.2l-0.4-0.4c-0.1-0.1-0.3-0.2-0.4-0.2l-2.2-0.2
					c-0.2,0-0.3,0-0.5,0.1l-0.5,0.3c-0.4,0.3-0.4,0.8-0.1,1.2l0.4,0.4c0.1,0.1,0.3,0.2,0.4,0.2l2.2,0.2
					C213.6,171,213.8,170.9,213.9,170.8z"/>
			</g>
			<g>
				<polygon class="st10" points="107.5,224.2 109.7,222.7 107.8,220.8 103.8,220.4 101.7,222 103.5,223.8 				"/>
				<path class="st17" d="M107.2,223.4l0.5-0.3c0.4-0.3,0.4-0.8,0.1-1.2l-0.4-0.4c-0.1-0.1-0.3-0.2-0.4-0.2l-2.2-0.2
					c-0.2,0-0.3,0-0.5,0.1l-0.5,0.3c-0.4,0.3-0.4,0.8-0.1,1.2l0.4,0.4c0.1,0.1,0.3,0.2,0.4,0.2l2.2,0.2
					C106.8,223.6,107,223.5,107.2,223.4z"/>
			</g>
			<g>
				<polygon class="st10" points="77.9,208.2 80.1,206.7 78.2,204.8 74.2,204.4 72.1,206 73.9,207.9 				"/>
				<path class="st17" d="M77.5,207.5l0.5-0.3c0.4-0.3,0.4-0.8,0.1-1.2l-0.4-0.4c-0.1-0.1-0.3-0.2-0.4-0.2l-2.2-0.2
					c-0.2,0-0.3,0-0.5,0.1l-0.5,0.3c-0.4,0.3-0.4,0.8-0.1,1.2l0.4,0.4c0.1,0.1,0.3,0.2,0.4,0.2l2.2,0.2
					C77.2,207.7,77.4,207.6,77.5,207.5z"/>
			</g>
			<g>
				<path class="st12" d="M191,142.5l13.1,6.5c0,0,0.6-1.7,4.7,0c4.1,1.7,4.3,4.5,4.3,4.5l24.3,12.2l-1.3-124.8l-45.4-25.2
					L191,142.5z"/>
				<path class="st17" d="M197,134.3c0,0,1.9,1.8,3.3,3.4c1.4,1.6,2.8,2.3,2.8,2.3s4.8,0.2,6.8,1s3.3,2,3.4,2.7
					c0,0.3,1.5,0.2,1.5,0.2s6.8-0.1,10.5-3.1c0.2-0.2,0.3-0.4,0.3-0.6c0,0-4.1-4.7-7.9-6.8c-2-1-9.4-2.7-12.7-3
					C201.2,129.9,197,134.3,197,134.3z"/>
				<path class="st5" d="M238,166.1l0.1-127.9l-52.7-27.1l-0.2,128.7l20.2,10.2l0.1-10c-4.8-1.8-7.5-5.6-7.9-7.1
					c-0.3-1.3-0.5-5.1-0.3-6c0-0.2,0.5-0.6,0.5-0.8c0-0.2-0.5-0.4-0.5-0.6c-0.1-1.7-0.2-7.8,0.1-9.2c0-0.2,0.5-0.4,0.5-0.4
					s-0.4-0.7-0.4-0.9c-0.1-0.7-0.2-3.7-0.3-5.5c0-0.2,0.6-0.5,0.6-0.5s-0.4-0.7-0.4-1c-0.2-0.8-0.1-5-0.1-5c0-0.1,0-0.2,0-0.3
					c0.1-0.3,0.5-0.5,0.8-0.4V102c0,0-0.9-0.9-0.9-1.3c-0.1-1-0.2-4.6-0.1-5.8c0-0.1,0.5-0.3,0.6-0.7c0-0.3-0.4-0.7-0.5-0.9
					c-0.4-1.6-0.2-10.3-0.2-10.3l1.5-2v-2.7l-1.2-3c0,0-1.7-6.1,0.5-12.1c2.1-6.1,7.5-12.4,7.5-12.4l0.1-1.6c0,0,0.1-0.5,0-0.7
					c-0.1-0.2-1-0.3-0.9-0.7c0.1-0.4,1.4-0.6,1.4-1c0.1-0.9,0-3.7,0-3.7l0.3-2.4c0,0,6.4,0,9.6,3.1l-0.3,6.1v0.6c0,0,0.5,0.7,0.6,1
					c0,0.4-1,0.5-1,0.5v0.8c0,0,4.2,7.7,5.7,10.6c1.2,2.4,3.7,8.4,3.4,12c-0.3,3.7-1.5,4.5-1.5,4.5l-0.4,2.8l0.4,2.3
					c0,0,0.3,0.7,0.8,2.5c0.4,1.9,0.5,5.5,0.5,5.5l-0.2,4.9c0,0-0.5,1.8-0.8,2c-0.2,0.1,0.7,0.7,0.8,1c0.1,0.3-0.2,4.4-0.1,4.8
					c0.1,0.3-0.2,1.6-0.4,1.6l0.7,1.3c0,0-0.1,3.7-0.2,4.7c0,0.3-0.9,0.9-0.9,0.9s0.8,0.5,0.8,0.8l0.1,4.9l-0.6,1.4l0.6,0.4
					l-0.1,7.8l0.1,0.9c0,0-0.3,0.9-0.3,1.4l0.5,0.6l-0.6,7.2c0,0-1.4,5.2-11,2.5l-0.1,10.8L238,166.1z"/>
				<line class="st16" x1="191.1" y1="127.5" x2="191.9" y2="34.5"/>
				<line class="st16" x1="230.8" y1="142.8" x2="230.8" y2="52.4"/>
				<polygon class="st11" points="238.1,37.9 238,166.1 254.7,157.9 254.9,29.5 				"/>
				<polygon class="st11" points="185.4,11.2 238.1,38 255.3,29.5 202.3,2.5 				"/>
				<g>
					<g>
						<polygon class="st10" points="189,20.4 191.2,22.1 192.5,25.4 191.9,27.1 189.7,25.5 188.2,22.1 						"/>
						<polygon class="st10" points="191.8,27.1 193.5,26.4 194.2,24.7 192.8,21.3 190.7,19.7 189.1,20.3 191.2,22.1 192.6,25.4 
													"/>
					</g>
					<g>
						<path class="st17" d="M189.6,26l1.2-0.5c0,0,0.5-0.5,0-1.9c-0.6-1.4-1.4-1.4-1.4-1.4l-1.2,0.5L189.6,26z"/>
						<path class="st17" d="M188.2,22.8c0.4-0.2,1,0.4,1.5,1.3c0.4,0.8,0.3,1.8,0,1.9c-0.3,0.1-0.9-0.4-1.4-1.3
							C187.8,23.9,187.8,22.9,188.2,22.8z"/>
						<path class="st17" d="M189.7,26c0,0-1.5,0.6-2.2-1c-0.7-1.7,0.7-2.2,0.7-2.2"/>
					</g>
				</g>
				<g>
					<g>
						<polygon class="st10" points="227.6,39.4 229.7,41.1 231.2,44.4 230.4,46.1 228.2,44.4 226.8,41.1 						"/>
						<polygon class="st10" points="230.4,46.1 232,45.4 232.8,43.7 231.4,40.3 229.3,38.7 227.6,39.3 229.8,41.1 231.2,44.4 						
							"/>
					</g>
					<g>
						<path class="st17" d="M228.2,45l1.2-0.5c0,0,0.5-0.5,0-1.9c-0.6-1.4-1.4-1.4-1.4-1.4l-1.2,0.5L228.2,45z"/>
						<path class="st17" d="M226.8,41.8c0.4-0.2,1,0.4,1.5,1.3c0.4,0.8,0.3,1.8,0,1.9c-0.3,0.1-0.9-0.4-1.4-1.3
							C226.4,42.9,226.4,41.9,226.8,41.8z"/>
						<path class="st17" d="M228.2,45c0,0-1.5,0.6-2.2-1c-0.7-1.7,0.7-2.2,0.7-2.2"/>
					</g>
				</g>
				<g>
					<g>
						<polygon class="st10" points="228.7,152.4 230.9,154 232.3,157.5 231.6,159.1 229.5,157.5 228,154 						"/>
						<polygon class="st10" points="231.6,159.2 233.3,158.4 234,156.7 232.6,153.3 230.4,151.7 228.7,152.4 230.9,154 232.4,157.5 
													"/>
					</g>
					<g>
						<path class="st17" d="M229.4,158l1.2-0.5c0,0,0.5-0.5,0-1.9c-0.6-1.4-1.4-1.4-1.4-1.4l-1.2,0.5L229.4,158z"/>
						<path class="st17" d="M228,154.8c0.4-0.2,1,0.4,1.5,1.3c0.4,0.8,0.3,1.8,0,1.9c-0.4,0.2-0.9-0.4-1.4-1.3
							C227.6,155.8,227.6,155,228,154.8z"/>
						<path class="st17" d="M229.5,158c0,0-1.5,0.6-2.2-1c-0.7-1.7,0.7-2.2,0.7-2.2"/>
					</g>
				</g>
				<g>
					<g>
						<polygon class="st10" points="189.8,135.2 192,136.9 193.4,140.3 192.7,142 190.5,140.3 189.1,136.9 						"/>
						<polygon class="st10" points="192.6,142 194.3,141.2 195,139.5 193.7,136.2 191.5,134.5 189.9,135.1 192,136.9 193.5,140.3 
													"/>
					</g>
					<g>
						<path class="st17" d="M190.4,140.8l1.2-0.5c0,0,0.5-0.5,0-1.9c-0.6-1.4-1.4-1.4-1.4-1.4l-1.2,0.5L190.4,140.8z"/>
						<path class="st17" d="M189.1,137.7c0.4-0.2,1,0.4,1.5,1.3c0.4,0.8,0.3,1.8,0,1.9c-0.4,0.2-0.9-0.4-1.4-1.3
							C188.6,138.6,188.6,137.8,189.1,137.7z"/>
						<path class="st17" d="M190.5,140.8c0,0-1.5,0.6-2.2-1c-0.7-1.7,0.7-2.2,0.7-2.2"/>
					</g>
				</g>
			</g>
		</g>
	</g>
	<line class="st18" x1="106.8" y1="292.8" x2="106.8" y2="307.9"/>
</g>
</svg>
