<?xml version="1.0" encoding="utf-8"?>
<!-- Generator: Adobe Illustrator 25.2.3, SVG Export Plug-In . SVG Version: 6.00 Build 0)  -->
<svg version="1.1" id="Layer_1" xmlns="http://www.w3.org/2000/svg" xmlns:xlink="http://www.w3.org/1999/xlink" x="0px" y="0px"
	 viewBox="0 0 150 217.7" style="enable-background:new 0 0 150 217.7;" xml:space="preserve">
<style type="text/css">
	.st0{fill:#F77441;stroke:#FFFFFF;stroke-width:0.4971;stroke-miterlimit:10;}
	.st1{fill:none;stroke:#FFFFFF;stroke-width:0.4971;stroke-miterlimit:10;}
	.st2{fill:none;stroke:#FFFFFF;stroke-width:0.2679;stroke-miterlimit:10;}
	.st3{fill:#CCB9B9;stroke:#FFFFFF;stroke-width:0.2679;stroke-miterlimit:10;}
	.st4{fill:#E4DAD8;stroke:#FFFFFF;stroke-width:0.2679;stroke-miterlimit:10;}
	.st5{fill:#CCB9B9;stroke:#FFFFFF;stroke-width:0.2679;stroke-linejoin:bevel;stroke-miterlimit:10;}
	.st6{fill:#E4DAD8;stroke:#FFFFFF;stroke-width:0.2679;stroke-linejoin:bevel;stroke-miterlimit:10;}
	.st7{fill:#DC3359;stroke:#FFFFFF;stroke-width:0.2679;stroke-miterlimit:10;}
	.st8{fill:#C42C54;stroke:#FFFFFF;stroke-width:0.2679;stroke-miterlimit:10;}
	.st9{fill:none;stroke:#FFFFFF;stroke-width:0.2824;stroke-miterlimit:10;}
	.st10{fill:none;stroke:#B71148;stroke-width:0.2824;stroke-miterlimit:10;}
	.st11{fill:none;stroke:#B71148;stroke-width:0.2824;stroke-linecap:round;stroke-miterlimit:10;}
	.st12{fill:#B71148;}
	.st13{fill:#B71148;stroke:#FFFFFF;stroke-width:0.2679;stroke-miterlimit:10;}
	.st14{fill:#B71148;stroke:#FFFFFF;stroke-width:0.273;stroke-miterlimit:10;}
	.st15{fill:#F77441;stroke:#FFFFFF;stroke-width:0.2847;stroke-miterlimit:10;}
	.st16{fill:none;stroke:#FFFFFF;stroke-width:0.2847;stroke-miterlimit:10;}
	.st17{fill:#F77441;stroke:#FFFFFF;stroke-width:0.2824;stroke-miterlimit:10;}
	.st18{fill:#DC3359;stroke:#FFFFFF;stroke-width:0.273;stroke-miterlimit:10;}
	.st19{fill:none;stroke:#B71148;stroke-width:1.6384;stroke-linecap:round;stroke-miterlimit:10;}
	.st20{fill:#C42C54;}
	.st21{fill:#B71148;stroke:#FFFFFF;stroke-width:0.2563;stroke-miterlimit:10;}
	.st22{fill:#DC3359;stroke:#FFFFFF;stroke-width:0.2563;stroke-miterlimit:10;}
	.st23{fill:none;stroke:#FFFFFF;stroke-width:0.2679;stroke-linejoin:bevel;stroke-miterlimit:10;}
</style>
<g>
	<g>
		<path class="st0" d="M33.6,14.2c0.6-1.6,4.1-2.9,8.1-2.8s7.2,1.6,7.2,3.3s-2.6,2.5-7.3,2.6C36.7,17.3,33.5,14.4,33.6,14.2z"/>
		<path class="st0" d="M33.6,14.3c0.3,1.1,1.9,2,1.9,2s0,1.3,0.1,1.8c0,0.5-6.9,10.9-8.8,14.7c-1.6,3.1-3.7,8.7-3.3,13.4
			s1.7,6.5,1.7,6.5l0.4,0.9c0,0-0.1,4.1-0.1,4.4c0,0.3-0.4-0.4-1.1,2c-0.6,2.4-0.8,6-0.8,6.9c0,1-0.1,6.4,0.2,7.1
			c0.3,0.8,0.7,1.5,1,1.7s-1,0-1,1.3s-0.1,5.3-0.2,6.3c0,1,0.4,1.9,0.6,2c0,0-0.9,0.5-0.9,1.6s0.1,4.7,0.2,6.1
			c0.1,0.4,1.1,1.2,1.1,1.2s-1,0.6-1,1c0,0-0.2,6.1-0.1,6.7c0,0.6,0.8,1.5,0.8,1.5s-0.7,0.7-0.8,1.3c0,0.6-0.2,4-0.2,6.1
			c0,2,0.1,4.2,0.1,4.8s0.7,0.8,0.7,1.2c0,0-1,0.6-1,1.3c0,0.6,0.1,8.6,0.1,8.6c0,0.2-0.2,3.6,3.5,6.7c2.2,1.9,7.2,3.8,13.8,3.8
			s7.8-0.2,10.9-1.7s4.3-4,5-5.8s0.7-10.3,0.6-11.3c0-0.3-0.7-0.6-0.7-0.8c0-0.2,0.6-0.7,0.6-1.7s0.2-8.9,0.2-10s-0.8-1.5-0.8-1.5
			s0.5-0.9,0.6-1.5s0.5-6.4,0.4-7.1c0-0.7-1-1.1-1-1.2s0.7-0.5,0.8-0.9c0.3-1.1,0.2-6,0.2-6c0-0.2,0-0.7,0-0.8c-0.1-0.4-1-0.4-1-0.7
			s1.2-0.7,1.2-1.5s0.2-6.3,0.2-7S57,77.2,57,76.8c0,0,0.6-1,0.6-1.2c0.3-1,0.7-3.7,0.8-7c0-3.2-0.2-7.4-0.3-8.1s-0.5-2-1.3-2
			c0-0.1,0-4.2,0-4.2l1-2.3c0,0,2.2-7.2-0.4-14.9c-2.7-7.8-9.6-18.2-9.6-18.7c0-0.4-0.2-2-0.2-2s1.5-0.7,1.5-1.7s-1.6-1.4-1.6-1.7
			l0.2-7.9c0,0-0.9,2.7-5.4,2.6C36.8,7.6,35.6,5,35.6,5s-0.2,7.6-0.1,7.9C35.3,12.8,33.3,13.2,33.6,14.3z"/>
		<path class="st1" d="M35.2,12.7c-1,0.3,1.5,3,6.5,3c5.1,0,6.5-2.7,5.7-2.7"/>
		<path class="st1" d="M48.7,15c0,0-1.5,2.6-7.4,2.5c-5.9,0-7.7-2.9-7.7-2.9"/>
		<path class="st0" d="M35.5,5.1c0-1.4,3.1-2.5,6.2-2.4c3.1,0.1,5.5,1.3,5.5,2.8c0,1.4-2.6,2.3-5.6,2.2C38.5,7.6,35.5,6.5,35.5,5.1z
			"/>
		<path class="st0" d="M41.8,5.7"/>
		<path class="st0" d="M60.3,45.4"/>
		<path class="st1" d="M24.6,75.6c0,0,5,4.1,16.4,4.5c11.8,0.4,16-4.3,16-4.3"/>
		<path class="st1" d="M24,84.9c0,0,5.1,4.4,16.6,4.8c11.7,0.4,16-4.6,16-4.6"/>
		<path class="st1" d="M24.2,103.1c0,0,4.3,4.8,15.8,5.2c11.8,0.4,16.3-4.7,16.3-4.7"/>
		<path class="st1" d="M24.5,93.9c0,0,6.7,4.4,15.8,4.5s15.9-4.6,15.9-4.6"/>
		<path class="st1" d="M23.8,116c0,0,4.4,4.9,16.2,5.3c12.2,0.4,16.2-4.7,16.2-4.7"/>
		<path class="st1" d="M25.3,52.9c0,0,4.7,4.7,16.2,4.6c11.5-0.1,15.2-4.4,15.2-4.4"/>
		<path class="st1" d="M25.2,57.9c0,0,3.1,4.2,15.7,4.5s15.6-4.3,15.6-4.3"/>
	</g>
</g>
<g>
	<line class="st2" x1="60.5" y1="189" x2="60.5" y2="196.9"/>
	<line class="st2" x1="60.1" y1="188.8" x2="60.1" y2="197"/>
	<g>
		<polygon class="st3" points="10.5,178.7 56,201.7 133,162.9 133.1,154 90.1,134.3 10.5,174.5 		"/>
		<polygon class="st3" points="10.6,179.4 10.7,170.8 56.1,192.8 55.9,201.7 		"/>
		<polygon class="st3" points="1,181.6 1,188.8 56.3,216.6 149.3,169.8 149.3,162.3 56.2,208.7 		"/>
		<polygon class="st4" points="55.9,208.7 149.4,162.3 94.1,135.4 1.2,180.9 		"/>
		<polygon class="st3" points="10.5,178.7 55.9,202.1 134.6,162 134.8,153.1 90.1,134.3 10.5,174.5 		"/>
		<polygon class="st5" points="10.6,179.4 10.7,170.8 55.9,193.5 55.7,202.1 		"/>
		<polygon class="st5" points="1.3,180.9 1.3,189.7 55.9,217.1 149.6,169.5 149.5,162.1 55.9,208.7 		"/>
		<path class="st6" d="M10.7,170.7l44.9,22.7l79.4-40.6l-45.4-22L10.7,170.7z"/>
		<g>
			<polygon class="st7" points="32.8,174.4 55.7,185.9 55.7,175.4 32.5,164 			"/>
			<polygon class="st8" points="55.9,185.7 120.8,153.4 121.2,144.2 55.9,175.5 			"/>
			<line class="st9" x1="32.5" y1="163.9" x2="96.7" y2="131.2"/>
			<line class="st10" x1="56.8" y1="172.7" x2="114.6" y2="145.5"/>
			<path class="st11" d="M39.5,163c-0.4-0.8,55.9-29.8,55.9-29.8"/>
			<g>
				<polygon class="st12" points="55.2,172.7 56.4,171.8 55.4,170.8 53.3,170.7 52,171.4 53.1,172.5 				"/>
				<path class="st12" d="M55,172.3l0.3-0.2c0.2-0.1,0.2-0.4,0.1-0.6l-0.2-0.2c-0.1-0.1-0.2-0.1-0.2-0.1l-1.2-0.1
					c-0.1,0-0.2,0-0.3,0.1l-0.3,0.2c-0.2,0.1-0.2,0.4-0.1,0.6l0.2,0.2c0.1,0.1,0.2,0.1,0.2,0.1l1.2,0.1
					C54.8,172.4,54.9,172.4,55,172.3z"/>
			</g>
			<g>
				<polygon class="st12" points="114.3,144.2 115.4,143.3 114.5,142.3 112.3,142.2 111.1,142.9 112.1,144 				"/>
				<path class="st12" d="M114,143.8l0.3-0.2c0.2-0.1,0.2-0.4,0.1-0.6l-0.2-0.2c-0.1-0.1-0.2-0.1-0.2-0.1l-1.2-0.1
					c-0.1,0-0.2,0-0.3,0.1l-0.3,0.2c-0.2,0.1-0.2,0.4-0.1,0.6l0.2,0.2c0.1,0.1,0.2,0.1,0.2,0.1l1.2,0.1
					C113.8,143.9,113.9,143.8,114,143.8z"/>
			</g>
			<g>
				<polygon class="st12" points="44.8,164.3 46,163.6 44.9,162.6 42.9,162.4 41.8,163.3 42.8,164.1 				"/>
				<path class="st12" d="M44.6,164l0.3-0.2c0.2-0.1,0.2-0.4,0.1-0.6l-0.2-0.2c-0.1-0.1-0.1-0.1-0.2-0.1l-1.2-0.1
					c-0.1,0-0.2,0-0.3,0.1l-0.3,0.2c-0.2,0.1-0.2,0.4-0.1,0.6l0.2,0.2C43,164,43,164,43.1,164l1.2,0.1C44.5,164,44.5,164,44.6,164z"
					/>
			</g>
			<polygon class="st13" points="27.6,171.5 55.7,185.7 55.7,175.4 27.6,161.2 			"/>
			<polygon class="st13" points="55.7,185.7 121.3,153.4 121.2,143.1 55.9,175.5 			"/>
			<path class="st14" d="M97.4,137l5.8-2.9c0,0-0.5,1.6,0.9,2.3c1.3,0.6,3.5-0.2,3.5-0.2l-7.9,3.5L97.4,137z"/>
			<g>
				<path class="st15" d="M54,164.5c0.2-0.1,0.1-0.9,0.1-0.9l1.1-0.4c0,0,5.5,0.4,7.3,0.4c1.4,0,4-0.3,5.8-1.4c1.6-1.1,2-1.9,2-1.9
					l0.5-0.4l1.4-0.8c0,0-0.1,0.2,1,0c1.1-0.2,2.8-1.1,2.8-1.1l2.4-1.3c0,0,0.8-0.8,0.9-1c0-0.1,0.5,0.2,0.8,0.1
					c0.2-0.1,2.1-1.2,2.3-1.2c0.2,0,0.8-0.5,0.8-0.6l0.9,0.1c0,0,1.7-1,2.3-1.2c0.1-0.1,0.2-0.8,0.2-0.8s0.4,0.3,0.6,0.2l2.4-1.2
					l0.5-0.6l0.4,0.2l3.6-1.9l0.5-0.1c0,0,0.4-0.4,0.6-0.5l0.4,0.1l3.2-1.8c0.1-0.1,4.1-1.5,1.1-7.9c-2.8-5.9-6.6-4.7-7.6-4.5
					c-0.8,0.1-2.7,1.1-3,1.3c-0.1,0.1-0.2,0.4-0.2,0.4c-0.1,0-0.3-0.1-0.4-0.1c-0.9,0.3-3.8,1.8-4.4,2.3c-0.1,0.1-0.1,0.3-0.1,0.3
					s-0.4,0-0.6,0c-0.4,0.1-1.8,0.9-2.7,1.2c-0.1,0-0.1,0.4-0.1,0.4s-0.4,0-0.6,0c-0.4,0.1-2.5,1.2-2.5,1.2c-0.1,0-0.1,0-0.1,0.1
					c-0.1,0.1-0.1,0.3,0,0.5l0,0c0,0-0.8-0.2-0.9-0.2c-0.5,0.2-2.3,1.1-2.9,1.3c-0.1,0,0,0.3-0.2,0.4c-0.2,0.1-0.5,0-0.6,0
					c-1,0.2-5,2.4-5,2.4l-1.1,1.2l-1.7,1l-1.1,0.1c0,0-3.2,0.6-5.6,3.1c-2.4,2.5-5.1,7.2-5.1,7.2l-0.8,0.4c0,0-0.2,0.2-0.3,0.2
					c-0.1,0-0.4-0.4-0.6-0.3c-0.2,0.1,0,0.9-0.2,1c-0.4,0.3-1.7,1-1.7,1l-1.1,0.4c0,0,0.9,0,1.6,1.7c1.1,2,0.6,2.9,0.6,2.9l2.4-1.3
					l0.5-0.1C53.4,164.3,53.8,164.7,54,164.5z"/>
				<path class="st16" d="M53.7,164.5c0,0-0.1-2.6-2.8-5.6"/>
				<path class="st9" d="M51.4,158.9c2.7,2.9,2.7,5.4,2.7,5.4"/>
				<path class="st15" d="M50.6,165.5c-0.4,0.2-1.3-0.9-1.9-2c-0.6-1.2-0.8-2.4-0.3-2.6c0.4-0.2,1.2,0.6,1.8,1.8
					C50.8,163.9,51,165.3,50.6,165.5z"/>
				<path class="st17" d="M49.2,163.4"/>
				<path class="st17" d="M60.6,148.6"/>
				<path class="st9" d="M79,156c0,0,0.5-2.4-1.6-6.8c-2.1-4.5-4.4-5.5-4.4-5.5"/>
				<path class="st9" d="M82.5,154.3c0,0,0.9-2.3-1.3-6.6c-2.1-4.5-4.3-5.8-4.3-5.8"/>
				<path class="st9" d="M89.5,150.8c0,0,1.1-2.6-1.2-7c-2.1-4.5-5.1-5.5-5.1-5.5"/>
				<path class="st9" d="M86.2,152.5c0,0,0.5-2.6-1.6-7c-2.1-4.5-4.6-5.7-4.6-5.7"/>
				<path class="st9" d="M94.4,148.5c0,0,1.1-2.6-1.2-7.2c-2.3-4.7-4.9-5.4-4.9-5.4"/>
				<path class="st9" d="M70.3,160c0,0-0.5-3.8-1.7-6.6c-1.2-2.9-4-5.3-4-5.3"/>
				<path class="st9" d="M72,159.2c0,0-0.2-3.5-1.6-6.5c-1.4-3-4.3-5.3-4.3-5.3"/>
			</g>
			<path class="st18" d="M107.3,136.3l-7.3,3.2c0.8,1.9,0.5,3.9,0.2,4.8c-0.5,2.1-2.3,2.8-2.3,2.8l-2.9,1.5l-0.4-0.2
				c-0.2,0.1-0.3,0.4-0.3,0.4L90,151l-0.5-0.1l-0.6,0.6l-2.4,1.2c-0.1,0.1-0.5-0.2-0.5-0.2s-0.2,0.5-0.3,0.6
				c-0.5,0.3-2.3,1.2-2.3,1.2l-0.8-0.2c0,0.1-0.5,0.8-0.8,0.8c-0.2,0-2,1.2-2.3,1.2c-0.2,0-0.6-0.3-0.6-0.1c0,0.1-0.5,0.8-0.5,0.8
				l-2.7,1.5c0,0-1.7,0.9-2.8,1.1c-1.1,0.2-1,0-1,0l-1.4,0.8l-0.5,0.4c0,0-0.4,0.9-2,1.9c-1.6,1.1-4.2,1.3-5.8,1.4
				c-1.8,0-7.3-0.4-7.3-0.4l-1.1,0.4c0,0,0.1,0.9-0.1,0.9c-0.2,0.1-0.6-0.3-0.6-0.3l-0.5,0.1l-2.4,1.3c0,0-0.5-0.5-1.5-2.7
				c-0.9-1.7-0.8-1.9-0.8-1.9l1.1-0.4c0,0,1.3-0.6,1.7-1c0.2-0.1,0-0.9,0.2-1c0.2-0.1,0.4,0.3,0.6,0.3c0.1,0,0.3-0.2,0.3-0.2
				l0.8-0.4c0,0,2.8-4.6,5.1-7.2c2.4-2.6,5.6-3.1,5.6-3.1l1.1-0.1l1.7-1l1.1-1.2c0,0,4.2-2.3,5-2.4c0.1,0,0.4,0.1,0.6,0
				c0.1-0.1,0.1-0.4,0.2-0.4c0.6-0.4,2.4-1.2,2.9-1.3c0.1-0.1,0.9,0.2,0.9,0.2l0,0c-0.1-0.1-0.1-0.4,0-0.5l0.1-0.1
				c0,0,2-1.2,2.5-1.2c0.1,0,0.6,0,0.6,0s0-0.4,0.1-0.4c0.9-0.4,2.3-1.1,2.7-1.2c0.1,0,0.6,0,0.6,0s0-0.3,0.1-0.3
				c0.6-0.5,3.5-1.9,4.4-2.3c0.1,0,0.3,0.1,0.4,0.1s0.1-0.4,0.2-0.4c0.4-0.2,2.3-1.2,3-1.3c1-0.2,4.1-0.4,6.9,2.1l5-2.6l-10.5-5.8
				l-65.4,33.2l28.1,14l65.1-32.1L107.3,136.3z"/>
			<line class="st19" x1="60.4" y1="169.6" x2="109.2" y2="145.3"/>
			<line class="st19" x1="40.2" y1="158" x2="88.9" y2="133"/>
			<g>
				<polygon class="st12" points="93.9,132.3 95,131.5 94.1,130.5 92.1,130.3 90.9,131.1 91.9,132.2 				"/>
				<path class="st20" d="M93.7,132l0.3-0.2c0.2-0.1,0.2-0.4,0.1-0.6l-0.2-0.2c-0.1-0.1-0.1-0.1-0.2-0.1l-1.2-0.1
					c-0.1,0-0.2,0-0.3,0.1l-0.3,0.2c-0.2,0.1-0.2,0.4-0.1,0.6l0.2,0.2c0.1,0.1,0.1,0.1,0.2,0.1l1.2,0.1C93.6,132,93.7,132,93.7,132z
					"/>
			</g>
			<g>
				<polygon class="st12" points="114,142.8 115.3,142 114.3,141 112.1,140.8 110.9,141.6 111.9,142.6 				"/>
				<path class="st20" d="M113.8,142.4l0.3-0.2c0.2-0.1,0.2-0.4,0.1-0.6l-0.2-0.2c-0.1-0.1-0.2-0.1-0.2-0.1l-1.2-0.1
					c-0.1,0-0.2,0-0.3,0.1l-0.3,0.2c-0.2,0.1-0.2,0.4-0.1,0.6l0.2,0.2c0.1,0.1,0.2,0.1,0.2,0.1l1.2,0.1
					C113.6,142.5,113.7,142.5,113.8,142.4z"/>
			</g>
			<g>
				<polygon class="st12" points="56.2,171.3 57.2,170.5 56.4,169.5 54.1,169.3 53,170.1 54,171.1 				"/>
				<path class="st20" d="M56,170.9l0.3-0.2c0.2-0.1,0.2-0.4,0.1-0.6l-0.2-0.2c-0.1-0.1-0.2-0.1-0.2-0.1l-1.2-0.1
					c-0.1,0-0.2,0-0.3,0.1l-0.3,0.2c-0.2,0.1-0.2,0.4-0.1,0.6l0.2,0.2c0.1,0.1,0.2,0.1,0.2,0.1l1.2,0.1C55.7,171,55.9,171,56,170.9z
					"/>
			</g>
			<g>
				<polygon class="st12" points="40,162.7 41.3,161.9 40.2,160.9 38.1,160.7 37,161.4 37.9,162.5 				"/>
				<path class="st20" d="M39.8,162.3l0.3-0.2c0.2-0.1,0.2-0.4,0.1-0.6l-0.2-0.2c-0.1-0.1-0.2-0.1-0.2-0.1l-1.2-0.1
					c-0.1,0-0.2,0-0.3,0.1l-0.3,0.2c-0.2,0.1-0.2,0.4-0.1,0.6l0.2,0.2c0.1,0.1,0.2,0.1,0.2,0.1l1.2,0.1
					C39.8,162.4,39.8,162.4,39.8,162.3z"/>
			</g>
			<g>
				<path class="st21" d="M101.5,127l7.1,3.5c0,0,0.4-1,2.6,0c2.1,1,2.4,2.5,2.4,2.5l13.1,6.5l-0.8-67.7l-24.6-13.6L101.5,127z"/>
				<path class="st20" d="M104.7,122.7c0,0,1.1,1,1.7,1.8c0.8,0.9,1.5,1.2,1.5,1.2s2.6,0.1,3.6,0.5c1.1,0.4,1.7,1.2,1.8,1.4
					c0,0.1,0.9,0.1,0.9,0.1s3.6,0,5.8-1.7c0.1-0.1,0.2-0.2,0.2-0.3c0,0-2.3-2.6-4.3-3.6c-1.1-0.6-5.1-1.5-6.9-1.6
					C107,120.2,104.7,122.7,104.7,122.7z"/>
				<path class="st22" d="M126.9,139.8l0.1-69.4L98.4,55.8l-0.1,69.9l10.8,5.6l0.1-5.5c-2.6-1.1-4-3-4.3-3.9
					c-0.2-0.8-0.3-2.8-0.2-3.3c0-0.1,0.3-0.3,0.3-0.4s-0.3-0.2-0.3-0.3c-0.1-1-0.1-4.2,0-5c0-0.1,0.3-0.2,0.3-0.2s-0.2-0.4-0.2-0.5
					c-0.1-0.4-0.1-1.9-0.1-3c0-0.1,0.3-0.3,0.3-0.3s-0.2-0.4-0.2-0.5c-0.1-0.4,0-2.8,0-2.8c0-0.1,0-0.1,0-0.2c0-0.2,0.3-0.3,0.4-0.2
					l0,0c0,0-0.5-0.5-0.5-0.6c-0.1-0.5-0.1-2.5-0.1-3.2c0-0.1,0.3-0.2,0.3-0.4s-0.2-0.4-0.3-0.5c-0.2-0.9-0.1-5.6-0.1-5.6l0.9-1.2
					v-1.2l-0.6-1.6c0,0-1-3.3,0.3-6.5c1.2-3.3,4-6.8,4-6.8l0.1-0.9c0,0,0.1-0.3,0-0.4s-0.5-0.2-0.5-0.4c0-0.2,0.8-0.3,0.8-0.6
					c0.1-0.5,0-1.9,0-1.9l0.2-1.3c0,0,3.5,0,5.3,1.6l-0.1,3.3V77c0,0,0.3,0.4,0.3,0.6c0,0.2-0.6,0.3-0.6,0.3v0.3
					c0,0,2.3,4.1,3.1,5.8c0.6,1.3,2,4.5,1.8,6.5c-0.2,1.9-0.9,2.5-0.9,2.5l-0.2,1.5l0.2,1.2c0,0,0.2,0.4,0.4,1.4
					c0.2,1.1,0.3,3,0.3,3l-0.1,2.8c0,0-0.3,1.1-0.4,1.2s0.4,0.4,0.4,0.5s-0.1,2.5,0,2.6c0.1,0.2-0.1,0.9-0.2,0.9l0.4,0.8
					c0,0,0,2-0.1,2.6c0,0.2-0.5,0.5-0.5,0.5s0.4,0.3,0.4,0.4v2.7l-0.3,0.8h0.3L119,120l0.1,0.5c0,0-0.2,0.5-0.2,0.8l0.3,0.3
					l-0.4,3.9c0,0-0.8,2.9-6,1.3l-0.1,5.9L126.9,139.8z"/>
				<line class="st19" x1="101.5" y1="118.9" x2="101.8" y2="68.4"/>
				<line class="st19" x1="123" y1="127.3" x2="123" y2="78.1"/>
				<polygon class="st13" points="127,70.4 126.9,139.8 135.9,135.4 136,65.8 				"/>
				<polygon class="st13" points="98.4,55.8 127,70.5 136.3,65.8 107.6,51.2 				"/>
				<g>
					<g>
						<polygon class="st12" points="100.3,60.8 101.6,61.7 102.3,63.5 101.8,64.5 100.8,63.5 99.9,61.7 						"/>
						<polygon class="st12" points="101.8,64.5 102.8,64 103.2,63.2 102.4,61.3 101.3,60.4 100.3,60.8 101.6,61.7 102.3,63.5 						
							"/>
					</g>
					<g>
						<path class="st20" d="M100.6,63.8l0.6-0.3c0,0,0.3-0.3,0-1.1c-0.3-0.8-0.8-0.8-0.8-0.8L99.9,62L100.6,63.8z"/>
						<path class="st20" d="M99.9,62.1c0.2-0.1,0.6,0.2,0.9,0.8c0.2,0.5,0.2,1,0,1.1s-0.5-0.2-0.8-0.8
							C99.7,62.6,99.7,62.2,99.9,62.1z"/>
						<path class="st20" d="M100.8,63.8c0,0-0.9,0.4-1.2-0.5c-0.4-1,0.4-1.2,0.4-1.2"/>
					</g>
				</g>
				<g>
					<g>
						<polygon class="st12" points="121.2,71.1 122.5,72 123.1,73.8 122.8,74.8 121.6,73.8 120.8,72 						"/>
						<polygon class="st12" points="122.8,74.8 123.7,74.3 124.1,73.4 123.3,71.5 122.2,70.7 121.2,71 122.5,72 123.1,73.8 						
							"/>
					</g>
					<g>
						<path class="st20" d="M121.5,74.1l0.6-0.3c0,0,0.3-0.3,0-1.1c-0.3-0.8-0.8-0.8-0.8-0.8l-0.6,0.3L121.5,74.1z"/>
						<path class="st20" d="M120.8,72.4c0.2-0.1,0.6,0.2,0.9,0.8c0.2,0.5,0.2,1,0,1.1c-0.2,0.1-0.5-0.2-0.8-0.8
							C120.7,72.9,120.7,72.5,120.8,72.4z"/>
						<path class="st20" d="M121.6,74.1c0,0-0.9,0.4-1.2-0.5c-0.4-1,0.4-1.2,0.4-1.2"/>
					</g>
				</g>
				<g>
					<g>
						<polygon class="st12" points="122,132.4 123.1,133.3 123.8,135.1 123.5,136 122.3,135.1 121.5,133.3 						"/>
						<polygon class="st12" points="123.5,136 124.3,135.6 124.8,134.8 124,132.8 122.9,132.1 122,132.4 123.1,133.3 123.9,135.1 
													"/>
					</g>
					<g>
						<path class="st20" d="M122.3,135.4l0.6-0.3c0,0,0.3-0.3,0-1.1c-0.3-0.8-0.8-0.8-0.8-0.8l-0.6,0.3L122.3,135.4z"/>
						<path class="st20" d="M121.4,133.7c0.2-0.1,0.6,0.2,0.9,0.8c0.2,0.5,0.2,1,0,1.1c-0.2,0.1-0.5-0.2-0.8-0.8
							C121.2,134.3,121.2,133.8,121.4,133.7z"/>
						<path class="st20" d="M122.3,135.4c0,0-0.9,0.4-1.2-0.5c-0.3-1,0.4-1.2,0.4-1.2"/>
					</g>
				</g>
				<g>
					<g>
						<polygon class="st12" points="100.9,123.1 101.9,123.9 102.7,125.8 102.4,126.7 101.2,125.9 100.4,123.9 						"/>
						<polygon class="st12" points="102.4,126.7 103.2,126.3 103.6,125.4 102.9,123.5 101.7,122.8 100.9,123.1 101.9,124 
							102.8,125.8 						"/>
					</g>
					<g>
						<path class="st20" d="M101.2,126.1l0.6-0.3c0,0,0.3-0.3,0-1.1c-0.3-0.8-0.8-0.8-0.8-0.8l-0.6,0.3L101.2,126.1z"/>
						<path class="st20" d="M100.3,124.4c0.2-0.1,0.6,0.2,0.9,0.8c0.2,0.5,0.2,1,0,1.1c-0.2,0.1-0.5-0.2-0.8-0.8
							C100.1,125,100.1,124.5,100.3,124.4z"/>
						<path class="st20" d="M101.2,126.1c0,0-0.9,0.4-1.2-0.5c-0.4-1,0.4-1.2,0.4-1.2"/>
					</g>
				</g>
			</g>
		</g>
	</g>
	<line class="st23" x1="55.5" y1="208.5" x2="55.5" y2="217.1"/>
</g>
</svg>
