<?xml version="1.0" encoding="utf-8"?>
<!-- Generator: Adobe Illustrator 25.2.3, SVG Export Plug-In . SVG Version: 6.00 Build 0)  -->
<svg version="1.1" id="Layer_1" xmlns="http://www.w3.org/2000/svg" xmlns:xlink="http://www.w3.org/1999/xlink" x="0px" y="0px"
	 viewBox="0 0 140 200" style="enable-background:new 0 0 140 200;" xml:space="preserve">
<style type="text/css">
	.st0{fill:#CCB9B9;stroke:#FFFFFF;stroke-width:0.2414;stroke-miterlimit:10;}
	.st1{fill:#E4DAD8;stroke:#FFFFFF;stroke-width:0.2414;stroke-miterlimit:10;}
	.st2{fill:#CCB9B9;stroke:#FFFFFF;stroke-width:0.2414;stroke-linejoin:bevel;stroke-miterlimit:10;}
	.st3{fill:#E4DAD8;stroke:#FFFFFF;stroke-width:0.2414;stroke-linejoin:bevel;stroke-miterlimit:10;}
	.st4{fill:#DC3359;stroke:#FFFFFF;stroke-width:0.2414;stroke-miterlimit:10;}
	.st5{fill:#C42C54;stroke:#FFFFFF;stroke-width:0.2414;stroke-miterlimit:10;}
	.st6{fill:#C42C54;stroke:#FFFFFF;stroke-width:0.266;stroke-miterlimit:10;}
	.st7{fill:none;stroke:#B71148;stroke-width:0.266;stroke-miterlimit:10;}
	.st8{fill:none;stroke:#B71148;stroke-width:0.266;stroke-linecap:round;stroke-miterlimit:10;}
	.st9{fill:#B71148;}
	.st10{fill:#B71148;stroke:#FFFFFF;stroke-width:0.2414;stroke-miterlimit:10;}
	.st11{fill:#B71148;stroke:#FFFFFF;stroke-width:0.2571;stroke-miterlimit:10;}
	.st12{fill:#F77441;stroke:#FFFFFF;stroke-width:0.2681;stroke-miterlimit:10;}
	.st13{fill:none;stroke:#FFFFFF;stroke-width:0.2681;stroke-miterlimit:10;}
	.st14{fill:none;stroke:#FFFFFF;stroke-width:0.266;stroke-miterlimit:10;}
	.st15{fill:#F77441;stroke:#FFFFFF;stroke-width:0.266;stroke-miterlimit:10;}
	.st16{fill:#DC3359;stroke:#FFFFFF;stroke-width:0.2571;stroke-miterlimit:10;}
	.st17{fill:none;stroke:#B71148;stroke-width:1.5428;stroke-linecap:round;stroke-miterlimit:10;}
	.st18{fill:#C42C54;}
	.st19{fill:#B71148;stroke:#FFFFFF;stroke-width:0.4828;stroke-miterlimit:10;}
</style>
<g>
	<line class="st0" x1="55.9" y1="172.4" x2="55.9" y2="179.9"/>
	<line class="st0" x1="55.7" y1="172.2" x2="55.6" y2="180.1"/>
	<g>
		<polygon class="st0" points="8.9,162.7 51.7,184.4 124.2,147.8 124.4,139.4 84,120.9 8.9,158.8 		"/>
		<polygon class="st0" points="9,163.4 9,155.2 51.8,176.1 51.6,184.4 		"/>
		<polygon class="st0" points="-0.1,165.4 -0.1,172.2 51.9,198.5 139.6,154.3 139.5,147.3 51.9,190.9 		"/>
		<polygon class="st1" points="51.6,190.9 139.7,147.3 87.6,122 0.1,164.9 		"/>
		<polygon class="st0" points="8.9,162.7 51.5,184.7 125.7,147 125.9,138.6 84,120.9 8.9,158.8 		"/>
		<polygon class="st2" points="9,163.4 9,155.2 51.5,176.6 51.5,184.8 		"/>
		<polygon class="st2" points="0.2,164.9 0.2,173.1 51.5,198.9 139.9,154.1 139.8,147.1 51.5,190.9 		"/>
		<path class="st3" d="M9.1,155.1c0,0,42.3,21.4,42.3,21.4l74.7-38.2l-42.8-20.7L9.1,155.1z"/>
		<g>
			<polygon class="st4" points="30,158.7 51.5,169.5 51.5,159.6 29.6,148.9 			"/>
			<polygon class="st5" points="51.5,169.3 112.8,138.9 113.2,130.2 51.6,159.6 			"/>
			<line class="st6" x1="29.6" y1="148.8" x2="90" y2="118.1"/>
			<line class="st7" x1="52.6" y1="157" x2="106.9" y2="131.5"/>
			<path class="st8" d="M36.1,147.9c-0.4-0.7,52.8-28,52.8-28"/>
			<g>
				<polygon class="st9" points="51,157.1 52.1,156.3 51.1,155.3 49.1,155.1 48,155.9 49,156.9 				"/>
				<path class="st9" d="M50.8,156.7l0.3-0.2c0.2-0.1,0.2-0.4,0.1-0.6l-0.2-0.2c-0.1-0.1-0.1-0.1-0.2-0.1l-1.1-0.1
					c-0.1,0-0.2,0-0.3,0.1l-0.3,0.2c-0.2,0.1-0.2,0.4-0.1,0.6l0.2,0.2c0.1,0.1,0.1,0.1,0.2,0.1l1.1,0.1
					C50.6,156.8,50.7,156.7,50.8,156.7z"/>
			</g>
			<g>
				<polygon class="st9" points="106.6,130.2 107.7,129.4 106.8,128.4 104.7,128.3 103.6,129 104.6,130 				"/>
				<path class="st9" d="M106.4,129.8l0.3-0.2c0.2-0.1,0.2-0.4,0.1-0.6l-0.2-0.2c-0.1-0.1-0.1-0.1-0.2-0.1l-1.1-0.1
					c-0.1,0-0.2,0-0.3,0.1l-0.3,0.2c-0.2,0.1-0.2,0.4-0.1,0.6l0.2,0.2c0.1,0.1,0.1,0.1,0.2,0.1l1.1,0.1
					C106.2,129.9,106.3,129.9,106.4,129.8z"/>
			</g>
			<g>
				<polygon class="st9" points="41.2,149.3 42.3,148.5 41.4,147.6 39.4,147.4 38.4,148.2 39.3,149.1 				"/>
				<path class="st9" d="M41,148.9l0.3-0.2c0.2-0.1,0.2-0.4,0.1-0.6l-0.2-0.2c-0.1-0.1-0.1-0.1-0.2-0.1l-1.1-0.1
					c-0.1,0-0.2,0-0.2,0.1l-0.3,0.2c-0.2,0.1-0.2,0.4-0.1,0.6l0.2,0.2c0.1,0.1,0.1,0.1,0.2,0.1l1.1,0.1
					C40.9,149,40.9,148.9,41,148.9z"/>
			</g>
			<polygon class="st10" points="25,156 51.5,169.3 51.5,159.6 24.9,146.2 			"/>
			<polygon class="st10" points="51.5,169.4 113.3,138.9 113.1,129.2 51.5,159.6 			"/>
			<path class="st11" d="M90.7,123.5l5.4-2.7c0,0-0.4,1.5,0.8,2.1c1.2,0.6,3.3-0.2,3.3-0.2l-7.4,3.3L90.7,123.5z"/>
			<g>
				<path class="st12" d="M49.8,149.5c0.2-0.1,0.1-0.8,0.1-0.8l0.9-0.4c0,0,5.2,0.4,6.9,0.4c1.4,0,3.8-0.3,5.4-1.3
					c1.6-1,2-1.8,2-1.8l0.5-0.4l1.3-0.6c0,0-0.1,0.2,0.9,0c1-0.2,2.6-1,2.6-1l2.2-1.2c0,0,0.7-0.7,0.7-0.8c0-0.1,0.5,0.2,0.6,0.1
					c0.2,0,2-1.1,2.2-1.1c0.2,0,0.6-0.5,0.6-0.6l0.8,0.1c0,0,1.7-0.9,2.1-1.2c0.1-0.1,0.2-0.6,0.2-0.6s0.4,0.3,0.6,0.2l2.3-1.1
					l0.5-0.6l0.3,0.2l3.5-1.9l0.4-0.1c0,0,0.4-0.4,0.5-0.4l0.4,0.1l3-1.7c0.1-0.1,3.9-1.4,1-7.5c-2.6-5.5-6.2-4.4-7.2-4.2
					c-0.6,0.1-2.5,1-2.8,1.2c-0.1,0.1-0.2,0.4-0.2,0.4c-0.1,0-0.3-0.1-0.4-0.1c-0.8,0.3-3.6,1.7-4.2,2.2c-0.1,0.1-0.1,0.3-0.1,0.3
					s-0.4,0-0.5,0c-0.4,0.1-1.7,0.8-2.5,1.1c-0.1,0-0.1,0.4-0.1,0.4s-0.4,0-0.6,0c-0.4,0.1-2.3,1.1-2.3,1.1c-0.1,0-0.1,0-0.1,0.1
					c-0.1,0.1-0.1,0.3,0,0.5l0,0c0,0-0.6-0.2-0.8-0.1c-0.5,0.2-2.1,0.9-2.7,1.3c-0.1,0,0,0.3-0.2,0.4c-0.1,0.1-0.5,0-0.5,0
					c-0.8,0.2-4.8,2.3-4.8,2.3l-1,1.1l-1.6,0.8l-1,0.1c0,0-3,0.5-5.2,2.9c-2.3,2.4-4.8,6.7-4.8,6.7l-0.7,0.4c0,0-0.2,0.2-0.3,0.2
					c-0.1,0-0.4-0.4-0.6-0.3c-0.2,0.1,0,0.7-0.2,0.9c-0.4,0.3-1.7,0.8-1.7,0.8l-0.9,0.4c0,0,0.7,0,1.5,1.6c1,2,0.6,2.7,0.6,2.7
					l2.3-1.2l0.5-0.1C49.2,149.2,49.7,149.5,49.8,149.5z"/>
				<path class="st13" d="M49.5,149.5c0,0-0.1-2.4-2.6-5.2"/>
				<path class="st14" d="M47.3,144.2c2.5,2.7,2.5,5,2.5,5"/>
				<path class="st12" d="M46.3,150.7c-0.4,0.2-1.3-0.8-1.8-1.9c-0.6-1.1-0.7-2.2-0.3-2.4c0.4-0.2,1.2,0.6,1.7,1.7
					C46.4,149.2,46.7,150.5,46.3,150.7z"/>
				<path class="st15" d="M45.3,148.3"/>
				<path class="st15" d="M56,134.3"/>
				<path class="st14" d="M73.4,141.3c0,0,0.5-2.2-1.5-6.4c-2.1-4.3-4.2-5.1-4.2-5.1"/>
				<path class="st14" d="M76.7,139.8c0,0,0.8-2.1-1.2-6.2c-2.1-4.3-4.3-5.2-4.3-5.2"/>
				<path class="st14" d="M83.2,136.5c0,0,1-2.4-1-6.5c-2.1-4.3-4.6-4.8-4.6-4.8"/>
				<path class="st14" d="M79.8,138c0,0,0.9-2.2-1.1-6.4c-2.1-4.3-4.4-4.9-4.4-4.9"/>
				<path class="st14" d="M87.9,134.3c0,0,0.9-2.5-1.1-6.7c-2.1-4.4-4.6-5-4.6-5"/>
				<path class="st14" d="M65.2,145.2c0,0-0.5-3.6-1.7-6.3c-1.1-2.7-3.8-4.9-3.8-4.9"/>
				<path class="st14" d="M66.9,144.4c0,0-0.2-3.3-1.5-6.1c-1.3-2.8-4.1-4.9-4.1-4.9"/>
			</g>
			<path class="st16" d="M99.8,122.5l-7.1,3.5c0.7,1.8,0.7,3.2,0.5,4.2c-0.5,2-2.1,2.6-2.1,2.6l-2.7,1.4l-0.4-0.2
				c-0.2,0.1-0.3,0.4-0.3,0.4l-4,2.2l-0.5-0.1l-0.6,0.6l-2.3,1.1c-0.1,0.1-0.4-0.2-0.4-0.2s-0.2,0.5-0.3,0.6
				c-0.4,0.3-2.1,1.2-2.1,1.2l-0.7-0.2c0,0.1-0.5,0.6-0.7,0.7c-0.2,0-2,1-2.1,1.1c-0.2,0-0.6-0.3-0.6-0.1c0,0.1-0.4,0.6-0.4,0.6
				l-2.6,1.5c0,0-1.6,0.8-2.6,1c-1,0.2-0.9,0-0.9,0l-1.3,0.6l-0.5,0.4c0,0-0.4,0.8-2,1.8c-1.6,1-4,1.3-5.4,1.3
				c-1.7,0-6.9-0.4-6.9-0.4l-0.9,0.4c0,0,0.1,0.7-0.1,0.8c-0.2,0.1-0.6-0.3-0.6-0.3l-0.5,0.1l-2.3,1.2c0,0-0.5-0.5-1.5-2.5
				c-0.8-1.6-0.7-1.8-0.7-1.8l0.9-0.4c0,0,1.2-0.6,1.7-0.8c0.2-0.1,0-0.7,0.2-0.9c0.2-0.1,0.4,0.3,0.6,0.3c0.1,0,0.3-0.2,0.3-0.2
				l0.7-0.4c0,0,2.6-4.3,4.8-6.7c2.3-2.4,5.2-2.9,5.2-2.9l1-0.1l1.6-0.8l1-1.1c0,0,3.9-2.1,4.8-2.3c0.1,0,0.4,0.1,0.5,0
				c0.1-0.1,0.1-0.4,0.2-0.4c0.5-0.4,2.2-1.1,2.7-1.3c0.1,0,0.8,0.1,0.8,0.1l0,0c-0.1-0.1-0.1-0.3,0-0.5c0,0,0.1-0.1,0.1-0.1
				c0,0,1.9-1,2.3-1.1c0.1,0,0.6,0,0.6,0s0-0.4,0.1-0.4c0.8-0.4,2.1-1,2.5-1.1c0.1,0,0.5,0,0.5,0s0-0.3,0.1-0.3
				c0.6-0.5,3.4-1.8,4.2-2.2c0.1,0,0.3,0.1,0.4,0.1c0.1,0,0.1-0.4,0.2-0.4c0.3-0.2,2.2-1.1,2.8-1.2c0.8-0.2,3.6-0.2,6.2,2.3l4.9-2.6
				l-9.9-5.4l-61.2,30.9l26.6,13.5l61.5-30.7L99.8,122.5z"/>
			<line class="st17" x1="55.8" y1="154.1" x2="101.9" y2="131.3"/>
			<line class="st17" x1="36.9" y1="143.3" x2="82.7" y2="119.8"/>
			<g>
				<polygon class="st9" points="87.4,119.1 88.5,118.3 87.6,117.4 85.6,117.2 84.6,118 85.5,118.9 				"/>
				<path class="st18" d="M87.2,118.7l0.3-0.2c0.2-0.1,0.2-0.4,0.1-0.6l-0.2-0.2c-0.1-0.1-0.1-0.1-0.2-0.1l-1.1-0.1
					c-0.1,0-0.2,0-0.2,0.1l-0.3,0.2c-0.2,0.1-0.2,0.4-0.1,0.6l0.2,0.2c0.1,0.1,0.1,0.1,0.2,0.1l1.1,0.1
					C87.1,118.8,87.1,118.7,87.2,118.7z"/>
			</g>
			<g>
				<polygon class="st9" points="106.4,129 107.5,128.2 106.6,127.2 104.6,127 103.5,127.8 104.4,128.8 				"/>
				<path class="st18" d="M106.2,128.6l0.3-0.2c0.2-0.1,0.2-0.4,0.1-0.6l-0.2-0.2c-0.1-0.1-0.1-0.1-0.2-0.1l-1.1-0.1
					c-0.1,0-0.2,0-0.3,0.1l-0.3,0.2c-0.2,0.1-0.2,0.4-0.1,0.6l0.2,0.2c0.1,0.1,0.1,0.1,0.2,0.1l1.1,0.1
					C106.1,128.7,106.2,128.6,106.2,128.6z"/>
			</g>
			<g>
				<polygon class="st9" points="51.9,155.8 53,155 52,154.1 50,153.9 48.9,154.7 49.8,155.6 				"/>
				<path class="st18" d="M51.7,155.4l0.3-0.2c0.2-0.1,0.2-0.4,0.1-0.6l-0.2-0.2c-0.1-0.1-0.1-0.1-0.2-0.1l-1.1-0.1
					c-0.1,0-0.2,0-0.3,0.1l-0.3,0.2c-0.2,0.1-0.2,0.4-0.1,0.6l0.2,0.2c0.1,0.1,0.1,0.1,0.2,0.1l1.1,0.1
					C51.5,155.5,51.6,155.5,51.7,155.4z"/>
			</g>
			<g>
				<polygon class="st9" points="36.7,147.7 37.8,146.9 36.9,145.9 34.9,145.7 33.8,146.5 34.7,147.5 				"/>
				<path class="st18" d="M36.5,147.3l0.3-0.2c0.2-0.1,0.2-0.4,0.1-0.6l-0.2-0.2c-0.1-0.1-0.1-0.1-0.2-0.1l-1.1-0.1
					c-0.1,0-0.2,0-0.3,0.1l-0.3,0.2c-0.2,0.1-0.2,0.4-0.1,0.6l0.2,0.2c0.1,0.1,0.1,0.1,0.2,0.1l1.1,0.1
					C36.4,147.4,36.5,147.3,36.5,147.3z"/>
			</g>
			<g>
				<path class="st10" d="M94.5,114.1l6.7,3.3c0,0,0.3-0.9,2.4,0c2.1,0.9,2.2,2.3,2.2,2.3l12.4,6.2l-0.6-63.8L94.4,49.3L94.5,114.1z
					"/>
				<path class="st18" d="M97.6,109.9c0,0,0.9,0.9,1.7,1.7s1.4,1.2,1.4,1.2s2.5,0.1,3.5,0.5c1,0.4,1.7,1,1.7,1.4
					c0,0.1,0.8,0.1,0.8,0.1s3.5,0,5.4-1.6c0.1-0.1,0.2-0.2,0.2-0.3c0,0-2.1-2.4-4-3.5c-1-0.6-4.8-1.4-6.5-1.6
					C99.7,107.7,97.6,109.9,97.6,109.9z"/>
				<path class="st4" d="M118.5,126.2l0.1-65.3L91.7,47l-0.1,65.7l10.3,5.2l0.1-5.1c-2.5-0.9-3.8-2.8-4-3.7c-0.2-0.6-0.2-2.6-0.2-3
					c0-0.1,0.3-0.3,0.3-0.4c0-0.1-0.2-0.2-0.3-0.3c-0.1-0.8-0.1-4,0-4.7c0-0.1,0.3-0.2,0.3-0.2s-0.2-0.4-0.2-0.5
					c-0.1-0.4-0.1-1.9-0.1-2.8c0-0.1,0.3-0.3,0.3-0.3s-0.2-0.4-0.2-0.5c-0.1-0.4,0-2.6,0-2.6c0-0.1,0-0.1,0-0.2
					c0-0.2,0.2-0.3,0.4-0.2l0,0c0,0-0.5-0.5-0.5-0.6c-0.1-0.5-0.1-2.3-0.1-3c0-0.1,0.3-0.2,0.3-0.4c0-0.2-0.2-0.4-0.3-0.5
					c-0.2-0.8-0.1-5.3-0.1-5.3l0.7-1l0-1.4l-0.6-1.5c0,0-0.9-3.1,0.2-6.2c1.1-3.1,3.8-6.3,3.8-6.3l0.1-0.8c0,0,0.1-0.3,0-0.4
					c-0.1-0.1-0.5-0.2-0.5-0.4c0-0.2,0.7-0.3,0.7-0.5c0.1-0.5,0-1.9,0-1.9l0.2-1.3c0,0,3.3,0,4.9,1.6l-0.1,3.1v0.3
					c0,0,0.3,0.4,0.3,0.6c0,0.2-0.6,0.3-0.6,0.3v0.4c0,0,2.2,3.9,2.9,5.4c0.6,1.2,1.9,4.3,1.7,6.1c-0.2,1.9-0.8,2.3-0.8,2.3
					l-0.2,1.4l0.2,1.2c0,0,0.2,0.4,0.4,1.3c0.2,1,0.3,2.8,0.3,2.8l-0.1,2.5c0,0-0.3,0.9-0.4,1c-0.1,0.1,0.4,0.3,0.4,0.5
					c0,0.2-0.1,2.3,0,2.4c0.1,0.2-0.1,0.8-0.2,0.8l0.4,0.7c0,0,0,1.9-0.1,2.4c0,0.2-0.5,0.5-0.5,0.5s0.4,0.3,0.4,0.4l0,2.5l-0.3,0.7
					l0.3,0.2l-0.1,4l0.1,0.5c0,0-0.2,0.5-0.2,0.7l0.3,0.3l-0.3,3.7c0,0-0.7,2.7-5.6,1.3l-0.1,5.5L118.5,126.2z"/>
				<line class="st17" x1="94.5" y1="106.4" x2="95" y2="58.9"/>
				<line class="st17" x1="114.8" y1="114.2" x2="114.8" y2="68"/>
				<polygon class="st10" points="118.6,60.7 118.5,126.2 127,122 127.1,56.4 				"/>
				<polygon class="st19" points="91.7,47 118.6,60.7 127.3,56.4 100.3,42.6 				"/>
				<g>
					<g>
						<polygon class="st9" points="93.5,51.7 94.6,52.6 95.3,54.3 94.9,55.2 93.8,54.3 93.1,52.6 						"/>
						<polygon class="st9" points="94.9,55.2 95.8,54.8 96.2,53.9 95.4,52.2 94.4,51.4 93.5,51.7 94.6,52.6 95.3,54.3 						"/>
					</g>
					<g>
						<path class="st18" d="M93.8,54.6l0.6-0.3c0,0,0.3-0.2,0-0.9s-0.7-0.7-0.7-0.7l-0.6,0.3L93.8,54.6z"/>
						<path class="st18" d="M93.1,52.9c0.2-0.1,0.5,0.2,0.7,0.6c0.2,0.5,0.2,0.9,0,1s-0.5-0.2-0.7-0.7C92.9,53.5,92.9,53,93.1,52.9z
							"/>
						<path class="st18" d="M93.8,54.6c0,0-0.8,0.3-1.1-0.5c-0.4-0.9,0.4-1.1,0.4-1.1"/>
					</g>
				</g>
				<g>
					<g>
						<polygon class="st9" points="113.2,61.4 114.3,62.3 115,64 114.6,64.8 113.5,64 112.8,62.3 						"/>
						<polygon class="st9" points="114.6,64.9 115.5,64.5 115.9,63.6 115.1,61.9 114,61 113.2,61.4 114.3,62.3 115,64 						"/>
					</g>
					<g>
						<path class="st18" d="M113.5,64.3l0.6-0.3c0,0,0.3-0.2,0-0.9c-0.3-0.7-0.7-0.7-0.7-0.7l-0.6,0.3L113.5,64.3z"/>
						<path class="st18" d="M112.8,62.6c0.2-0.1,0.5,0.2,0.7,0.6c0.2,0.5,0.2,0.9,0,1c-0.2,0.1-0.5-0.2-0.7-0.7
							C112.6,63.2,112.6,62.7,112.8,62.6z"/>
						<path class="st18" d="M113.5,64.3c0,0-0.8,0.3-1.1-0.5c-0.4-0.9,0.4-1.1,0.4-1.1"/>
					</g>
				</g>
				<g>
					<g>
						<polygon class="st9" points="113.8,119.1 114.9,120 115.6,121.7 115.3,122.6 114.1,121.7 113.4,120 						"/>
						<polygon class="st9" points="115.3,122.6 116.1,122.2 116.5,121.3 115.8,119.6 114.7,118.8 113.8,119.1 114.9,120 
							115.6,121.7 						"/>
					</g>
					<g>
						<path class="st18" d="M114.1,122l0.6-0.3c0,0,0.3-0.2,0-0.9c-0.3-0.7-0.7-0.7-0.7-0.7l-0.6,0.3L114.1,122z"/>
						<path class="st18" d="M113.4,120.4c0.2-0.1,0.5,0.2,0.7,0.6c0.2,0.5,0.2,0.9,0,1c-0.2,0.1-0.5-0.2-0.7-0.7
							S113.2,120.5,113.4,120.4z"/>
						<path class="st18" d="M114.1,122c0,0-0.8,0.3-1.1-0.5c-0.4-0.9,0.4-1.1,0.4-1.1"/>
					</g>
				</g>
				<g>
					<g>
						<polygon class="st9" points="93.9,110.4 95,111.2 95.7,113 95.4,113.8 94.2,113 93.5,111.2 						"/>
						<polygon class="st9" points="95.4,113.8 96.2,113.4 96.6,112.6 95.9,110.8 94.8,110 93.9,110.3 95,111.2 95.8,113 						"/>
					</g>
					<g>
						<path class="st18" d="M94.2,113.2l0.6-0.3c0,0,0.3-0.2,0-0.9s-0.7-0.7-0.7-0.7l-0.6,0.3L94.2,113.2z"/>
						<path class="st18" d="M93.5,111.6c0.2-0.1,0.5,0.2,0.7,0.6c0.2,0.5,0.2,0.9,0,1c-0.2,0.1-0.5-0.2-0.7-0.7
							S93.3,111.7,93.5,111.6z"/>
						<path class="st18" d="M94.3,113.2c0,0-0.8,0.3-1.1-0.5c-0.4-0.9,0.4-1.1,0.4-1.1"/>
					</g>
				</g>
			</g>
		</g>
	</g>
	<line class="st2" x1="51.3" y1="190.8" x2="51.3" y2="198.8"/>
</g>
</svg>
