<?xml version="1.0" encoding="utf-8"?>
<!-- Generator: Adobe Illustrator 25.2.3, SVG Export Plug-In . SVG Version: 6.00 Build 0)  -->
<svg version="1.1" id="Layer_1" xmlns="http://www.w3.org/2000/svg" xmlns:xlink="http://www.w3.org/1999/xlink" x="0px" y="0px"
	 viewBox="0 0 325.7 293.3" style="enable-background:new 0 0 325.7 293.3;" xml:space="preserve">
<style type="text/css">
	.st0{fill:#CCB9B9;stroke:#FFFFFF;stroke-width:0.5;stroke-linejoin:bevel;stroke-miterlimit:10;}
	.st1{fill:none;stroke:#B79797;stroke-width:0.7011;stroke-miterlimit:10;}
	.st2{fill:#CCB9B9;}
	.st3{fill:#E4DAD8;}
	.st4{fill:#B79797;stroke:#FFFFFF;stroke-width:0.5;stroke-miterlimit:10;}
	.st5{fill:#E4DAD8;stroke:#FFFFFF;stroke-width:0.5;stroke-miterlimit:10;}
	.st6{fill:#CCB9B9;stroke:#FFFFFF;stroke-width:0.5;stroke-miterlimit:10;}
	.st7{fill:#E4DAD8;stroke:#FFFFFF;stroke-width:0.5;stroke-linejoin:bevel;stroke-miterlimit:10;}
	.st8{fill:#F77441;stroke:#FFFFFF;stroke-width:0.4791;stroke-miterlimit:10;}
	.st9{fill:#F77441;stroke:#F7F3F2;stroke-width:0.5;stroke-miterlimit:10;}
	.st10{fill:#F77441;stroke:#FFFFFF;stroke-width:0.5;stroke-miterlimit:10;}
	.st11{fill:#543C52;}
	.st12{fill:none;stroke:#543C52;stroke-width:0.5;stroke-linecap:round;stroke-miterlimit:10;}
	.st13{fill:#DC3359;stroke:#FFFFFF;stroke-width:0.5;stroke-miterlimit:10;}
	.st14{clip-path:url(#XMLID_2_);fill:#DC3359;stroke:#FFFFFF;stroke-width:0.5;stroke-miterlimit:10;}
	.st15{fill:none;stroke:#361D32;stroke-width:0.5;stroke-miterlimit:10;}
</style>
<g>
	<polygon class="st0" points="163.1,149.5 219.5,178.1 219.2,134.7 163,106.2 	"/>
	<line class="st1" x1="171.4" y1="141.1" x2="171.7" y2="157.2"/>
	<g>
		<g>
			<ellipse class="st2" cx="166.8" cy="110.6" rx="0.7" ry="0.3"/>
			<path class="st2" d="M166.1,109.8c0,0,0,0.8,0,0.9c0,0.1,1,0.4,1.4,0l0-0.9H166.1z"/>
			<ellipse class="st3" cx="166.8" cy="109.8" rx="0.7" ry="0.3"/>
		</g>
		<g>
			<ellipse class="st2" cx="168.3" cy="111.3" rx="0.7" ry="0.3"/>
			<path class="st2" d="M167.6,110.5c0,0,0,0.8,0,0.9c0,0.1,1,0.4,1.4,0l0-0.9H167.6z"/>
			<ellipse class="st3" cx="168.3" cy="110.6" rx="0.7" ry="0.3"/>
		</g>
		<g>
			<ellipse class="st2" cx="169.7" cy="112" rx="0.7" ry="0.3"/>
			<path class="st2" d="M169,111.2c0,0,0,0.8,0,0.9s1,0.4,1.4,0l0-0.9H169z"/>
			<ellipse class="st3" cx="169.7" cy="111.3" rx="0.7" ry="0.3"/>
		</g>
		<g>
			<ellipse class="st2" cx="171.1" cy="112.7" rx="0.7" ry="0.3"/>
			<path class="st2" d="M170.4,112c0,0,0,0.8,0,0.9s1,0.4,1.4,0l0-0.9H170.4z"/>
			<ellipse class="st3" cx="171.1" cy="112" rx="0.7" ry="0.3"/>
		</g>
		<g>
			<ellipse class="st2" cx="172.6" cy="113.5" rx="0.7" ry="0.3"/>
			<path class="st2" d="M171.8,112.7c0,0,0,0.8,0,0.9s1,0.4,1.4,0l0-0.9H171.8z"/>
			<ellipse class="st3" cx="172.6" cy="112.7" rx="0.7" ry="0.3"/>
		</g>
		<g>
			<ellipse class="st2" cx="174" cy="114.2" rx="0.7" ry="0.3"/>
			<path class="st2" d="M173.3,113.4c0,0,0,0.8,0,0.9s1,0.4,1.4,0l0-0.9H173.3z"/>
			<ellipse class="st3" cx="174" cy="113.5" rx="0.7" ry="0.3"/>
		</g>
		<g>
			<ellipse class="st2" cx="175.4" cy="114.9" rx="0.7" ry="0.3"/>
			<path class="st2" d="M174.7,114.2c0,0,0,0.8,0,0.9s1,0.4,1.4,0l0-0.9H174.7z"/>
			<ellipse class="st3" cx="175.4" cy="114.2" rx="0.7" ry="0.3"/>
		</g>
		<g>
			<ellipse class="st2" cx="176.9" cy="115.6" rx="0.7" ry="0.3"/>
			<path class="st2" d="M176.1,114.9c0,0,0,0.8,0,0.9c0,0.1,1,0.4,1.4,0l0-0.9H176.1z"/>
			<ellipse class="st3" cx="176.9" cy="114.9" rx="0.7" ry="0.3"/>
		</g>
		<g>
			<ellipse class="st2" cx="178.3" cy="116.4" rx="0.7" ry="0.3"/>
			<path class="st2" d="M177.6,115.6c0,0,0,0.8,0,0.9c0,0.1,1,0.4,1.4,0l0-0.9H177.6z"/>
			<ellipse class="st3" cx="178.3" cy="115.6" rx="0.7" ry="0.3"/>
		</g>
		<g>
			<ellipse class="st2" cx="179.7" cy="117.1" rx="0.7" ry="0.3"/>
			<path class="st2" d="M179,116.3c0,0,0,0.8,0,0.9c0,0.1,1,0.4,1.4,0l0-0.9H179z"/>
			<ellipse class="st3" cx="179.7" cy="116.4" rx="0.7" ry="0.3"/>
		</g>
		<g>
			<ellipse class="st2" cx="181.1" cy="117.8" rx="0.7" ry="0.3"/>
			<path class="st2" d="M180.4,117.1c0,0,0,0.8,0,0.9s1,0.4,1.4,0l0-0.9H180.4z"/>
			<ellipse class="st3" cx="181.1" cy="117.1" rx="0.7" ry="0.3"/>
		</g>
		<g>
			<ellipse class="st2" cx="182.6" cy="118.5" rx="0.7" ry="0.3"/>
			<path class="st2" d="M181.9,117.8c0,0,0,0.8,0,0.9s1,0.4,1.4,0l0-0.9H181.9z"/>
			<ellipse class="st3" cx="182.6" cy="117.8" rx="0.7" ry="0.3"/>
		</g>
		<g>
			<ellipse class="st2" cx="184" cy="119.3" rx="0.7" ry="0.3"/>
			<path class="st2" d="M183.3,118.5c0,0,0,0.8,0,0.9s1,0.4,1.4,0l0-0.9H183.3z"/>
			<ellipse class="st3" cx="184" cy="118.5" rx="0.7" ry="0.3"/>
		</g>
		<g>
			<ellipse class="st2" cx="185.4" cy="120" rx="0.7" ry="0.3"/>
			<path class="st2" d="M184.7,119.2c0,0,0,0.8,0,0.9s1,0.4,1.4,0l0-0.9H184.7z"/>
			<ellipse class="st3" cx="185.4" cy="119.3" rx="0.7" ry="0.3"/>
		</g>
		<g>
			<ellipse class="st2" cx="186.9" cy="120.7" rx="0.7" ry="0.3"/>
			<path class="st2" d="M186.1,120c0,0,0,0.8,0,0.9s1,0.4,1.4,0l0-0.9H186.1z"/>
			<ellipse class="st3" cx="186.9" cy="120" rx="0.7" ry="0.3"/>
		</g>
		<g>
			<ellipse class="st2" cx="188.3" cy="121.5" rx="0.7" ry="0.3"/>
			<path class="st2" d="M187.6,120.7c0,0,0,0.8,0,0.9c0,0.1,1,0.4,1.4,0l0-0.9H187.6z"/>
			<ellipse class="st3" cx="188.3" cy="120.7" rx="0.7" ry="0.3"/>
		</g>
		<g>
			<ellipse class="st2" cx="189.7" cy="122.2" rx="0.7" ry="0.3"/>
			<path class="st2" d="M189,121.4c0,0,0,0.8,0,0.9c0,0.1,1,0.4,1.4,0l0-0.9H189z"/>
			<ellipse class="st3" cx="189.7" cy="121.5" rx="0.7" ry="0.3"/>
		</g>
		<g>
			<ellipse class="st2" cx="191.2" cy="122.9" rx="0.7" ry="0.3"/>
			<path class="st2" d="M190.4,122.1c0,0,0,0.8,0,0.9c0,0.1,1,0.4,1.4,0l0-0.9H190.4z"/>
			<ellipse class="st3" cx="191.2" cy="122.2" rx="0.7" ry="0.3"/>
		</g>
		<g>
			<ellipse class="st2" cx="192.6" cy="123.6" rx="0.7" ry="0.3"/>
			<path class="st2" d="M191.9,122.9c0,0,0,0.8,0,0.9s1,0.4,1.4,0l0-0.9H191.9z"/>
			<ellipse class="st3" cx="192.6" cy="122.9" rx="0.7" ry="0.3"/>
		</g>
		<g>
			<ellipse class="st2" cx="194" cy="124.4" rx="0.7" ry="0.3"/>
			<path class="st2" d="M193.3,123.6c0,0,0,0.8,0,0.9s1,0.4,1.4,0l0-0.9H193.3z"/>
			<ellipse class="st3" cx="194" cy="123.6" rx="0.7" ry="0.3"/>
		</g>
		<g>
			<ellipse class="st2" cx="195.5" cy="125.1" rx="0.7" ry="0.3"/>
			<path class="st2" d="M194.7,124.3c0,0,0,0.8,0,0.9s1,0.4,1.4,0l0-0.9H194.7z"/>
			<ellipse class="st3" cx="195.5" cy="124.4" rx="0.7" ry="0.3"/>
		</g>
		<g>
			<ellipse class="st2" cx="196.9" cy="125.8" rx="0.7" ry="0.3"/>
			<path class="st2" d="M196.2,125c0,0,0,0.8,0,0.9s1,0.4,1.4,0l0-0.9H196.2z"/>
			<ellipse class="st3" cx="196.9" cy="125.1" rx="0.7" ry="0.3"/>
		</g>
		<g>
			<ellipse class="st2" cx="198.3" cy="126.5" rx="0.7" ry="0.3"/>
			<path class="st2" d="M197.6,125.8c0,0,0,0.8,0,0.9s1,0.4,1.4,0l0-0.9H197.6z"/>
			<ellipse class="st3" cx="198.3" cy="125.8" rx="0.7" ry="0.3"/>
		</g>
		<g>
			<ellipse class="st2" cx="199.7" cy="127.3" rx="0.7" ry="0.3"/>
			<path class="st2" d="M199,126.5c0,0,0,0.8,0,0.9c0,0.1,1,0.4,1.4,0l0-0.9H199z"/>
			<ellipse class="st3" cx="199.7" cy="126.5" rx="0.7" ry="0.3"/>
		</g>
		<g>
			<ellipse class="st2" cx="201.2" cy="128" rx="0.7" ry="0.3"/>
			<path class="st2" d="M200.5,127.2c0,0,0,0.8,0,0.9c0,0.1,1,0.4,1.4,0l0-0.9H200.5z"/>
			<ellipse class="st3" cx="201.2" cy="127.3" rx="0.7" ry="0.3"/>
		</g>
		<g>
			<ellipse class="st2" cx="202.6" cy="128.7" rx="0.7" ry="0.3"/>
			<path class="st2" d="M201.9,127.9c0,0,0,0.8,0,0.9c0,0.1,1,0.4,1.4,0l0-0.9H201.9z"/>
			<ellipse class="st3" cx="202.6" cy="128" rx="0.7" ry="0.3"/>
		</g>
		<g>
			<ellipse class="st2" cx="204" cy="129.4" rx="0.7" ry="0.3"/>
			<path class="st2" d="M203.3,128.7c0,0,0,0.8,0,0.9c0,0.1,1,0.4,1.4,0l0-0.9H203.3z"/>
			<ellipse class="st3" cx="204" cy="128.7" rx="0.7" ry="0.3"/>
		</g>
		<g>
			<ellipse class="st2" cx="205.5" cy="130.2" rx="0.7" ry="0.3"/>
			<path class="st2" d="M204.7,129.4c0,0,0,0.8,0,0.9c0,0.1,1,0.4,1.4,0l0-0.9H204.7z"/>
			<ellipse class="st3" cx="205.5" cy="129.4" rx="0.7" ry="0.3"/>
		</g>
		<g>
			<ellipse class="st2" cx="206.9" cy="130.9" rx="0.7" ry="0.3"/>
			<path class="st2" d="M206.2,130.1c0,0,0,0.8,0,0.9s1,0.4,1.4,0l0-0.9H206.2z"/>
			<ellipse class="st3" cx="206.9" cy="130.2" rx="0.7" ry="0.3"/>
		</g>
		<g>
			<ellipse class="st2" cx="208.3" cy="131.6" rx="0.7" ry="0.3"/>
			<path class="st2" d="M207.6,130.9c0,0,0,0.8,0,0.9c0,0.1,1,0.4,1.4,0l0-0.9H207.6z"/>
			<ellipse class="st3" cx="208.3" cy="130.9" rx="0.7" ry="0.3"/>
		</g>
	</g>
	<polygon class="st4" points="164.1,109.8 216,135.8 220,134 168.2,107.8 	"/>
	<path class="st5" d="M17.7,210.5c0,0,79.4,39.1,79.5,39l135.2-68.3l-79.9-38.6L17.7,210.5z"/>
	<g>
		<polygon class="st6" points="17.3,224.6 97,265 232.3,196.9 232.6,181.2 157.2,146.7 17.3,217.2 		"/>
		<polygon class="st6" points="17.4,225.8 17.5,210.5 97.2,249.5 96.9,265 		"/>
		<polygon class="st6" points="0.5,229.6 0.5,242.3 97.5,291.2 261.1,208.9 260.8,195.9 97.4,277.2 		"/>
		<polygon class="st5" points="96.8,277.1 261.1,195.9 164,148.7 0.8,228.6 		"/>
		<polygon class="st6" points="17.3,224.6 96.8,265.6 235.1,195.3 235.4,179.6 157.2,146.7 17.3,217.2 		"/>
		<polygon class="st0" points="17.4,225.8 17.5,210.5 96.8,250.5 96.7,265.7 		"/>
		<polygon class="st0" points="1.1,228.7 1,243.9 96.8,292 261.6,208.5 261.3,195.5 96.8,277.2 		"/>
		<path class="st7" d="M17.7,210.5c0,0,78.9,39.9,78.9,39.9L236,179.2l-79.9-38.6L17.7,210.5z"/>
		<line class="st6" x1="96.8" y1="277.4" x2="96.7" y2="292"/>
	</g>
	<g>
		<polygon class="st6" points="45.8,209.4 165.2,149 165.1,106.4 43.2,169.9 		"/>
	</g>
	<g>
		<path class="st8" d="M87.3,199.4c-0.9,0.4-2.9-1.9-4.2-4.5c-1.3-2.7-1.6-5.2-0.7-5.6c0.9-0.4,2.7,1.3,4,4
			C87.7,195.9,88.2,198.9,87.3,199.4z"/>
		<g>
			<path class="st9" d="M95.9,196.6c0.4-0.2,0.2-1.9,0.2-1.9l2.1-1c0,0,11.9,1,15.9,0.9c3.2,0,8.8-0.7,12.4-3
				c3.6-2.3,4.6-4.2,4.6-4.2l1.2-1l3.1-1.5c0,0-0.2,0.5,2.1,0c2.2-0.5,6-2.3,6-2.3l5.1-2.9c0,0,1.6-1.6,1.7-1.9
				c0-0.3,1.1,0.4,1.5,0.3c0.4-0.1,4.6-2.6,5-2.6s1.5-1.1,1.5-1.3l1.8,0.1c0,0,3.9-2.1,4.9-2.8c0.3-0.2,0.5-1.5,0.5-1.5
				s1,0.6,1.3,0.5l5.3-2.6l1.1-1.4l0.8,0.4l8.1-4.3l1-0.3c0,0,0.9-0.8,1.2-1l0.9,0.2l6.1-4c0.2-0.2,9.4-4.3,2.8-18.2
				c-6.1-12.7-14.1-9.3-16.3-8.8c-1.5,0.3-5.7,2.2-6.5,2.8c-0.2,0.2-0.4,0.9-0.6,1c-0.2,0.1-0.7-0.3-0.9-0.2c-1.8,0.7-8.3,3.9-9.7,5
				c-0.2,0.1-0.2,0.8-0.2,0.8s-0.9,0-1.2,0.1c-0.9,0.3-4,1.8-5.9,2.6c-0.2,0.1-0.3,1-0.3,1s-1,0-1.3,0c-1,0.2-5.4,2.6-5.4,2.6
				c-0.2,0.1-0.2,0.1-0.3,0.2c-0.3,0.3-0.3,0.8,0,1.1l-0.1,0c0,0-1.5-0.5-1.8-0.3c-1.1,0.4-5,2.2-6.2,3c-0.1,0.1-0.1,0.8-0.4,1
				c-0.3,0.2-1.1-0.1-1.3,0c-1.9,0.4-11,5.2-11,5.2l-2.3,2.6l-3.8,1.9l-2.3,0.1c0,0-6.8,1.2-12.1,6.7c-5.2,5.5-11.2,15.6-11.2,15.6
				l-1.6,1c0,0-0.5,0.4-0.8,0.4c-0.3,0-0.9-0.9-1.3-0.6c-0.5,0.3,0,1.7-0.4,2c-1,0.7-3.8,1.9-3.8,1.9l-2.1,1c0,0,1.7,0,3.5,3.8
				c2.2,4.6,1.4,6.2,1.4,6.2l5.2-2.9l1.2-0.3C94.4,195.9,95.5,196.7,95.9,196.6z"/>
			<path class="st8" d="M95.2,196.6c0,0-0.3-5.7-6-12"/>
			<path class="st8" d="M90.1,184.3c5.7,6.3,6,12,6,12"/>
			<path class="st8" d="M110.1,161.6"/>
			<path class="st10" d="M150.4,177.7c0,0,0.1-5.2-4.5-14.8c-4.8-9.9-8.7-11.8-8.7-11.8"/>
			<path class="st10" d="M158,173.9c0,0,1.2-5.1-3.4-14.7c-4.8-9.9-9.5-11.6-9.5-11.6"/>
			<path class="st10" d="M173.1,166.6c0,0,2.2-5.6-2.4-15.2c-4.8-9.9-10.6-11.1-10.6-11.1"/>
			<path class="st10" d="M165.7,170.4c0,0,2.2-5.6-2.4-15.2c-4.8-9.9-10.6-11.1-10.6-11.1"/>
			<path class="st10" d="M165.7,170.4c0,0,2.2-5.6-2.4-15.2c-4.8-9.9-10.6-11.1-10.6-11.1"/>
			<path class="st10" d="M165.7,170.4c0,0,2.2-5.6-2.4-15.2c-4.8-9.9-10.6-11.1-10.6-11.1"/>
			<path class="st10" d="M165.7,170.4c0,0,2.2-5.6-2.4-15.2c-4.8-9.9-10.6-11.1-10.6-11.1"/>
			<path class="st10" d="M183.9,161.4c0,0,2.1-5.7-2.6-15.6c-4.9-10.2-10.8-11.5-10.8-11.5"/>
			<path class="st10" d="M132,186.6c0,0-2.3-8.4-4.9-14.5c-2.6-6.2-8.4-11.4-8.4-11.4"/>
			<path class="st10" d="M135.3,184.8c0,0-0.6-7.7-3.6-14.2c-3.1-6.5-9.3-11.4-9.3-11.4"/>
		</g>
	</g>
	<g>
		<g>
			<ellipse class="st2" cx="213.6" cy="148.7" rx="0.7" ry="0.3"/>
			<path class="st2" d="M212.8,147.9c0,0,0,0.8,0,0.9c0,0.1,1,0.4,1.4,0l0-0.9H212.8z"/>
			<ellipse class="st3" cx="213.6" cy="147.9" rx="0.7" ry="0.3"/>
		</g>
		<g>
			<ellipse class="st2" cx="212.1" cy="149.4" rx="0.7" ry="0.3"/>
			<path class="st2" d="M211.4,148.6c0,0,0,0.8,0,0.9c0,0.1,1,0.4,1.4,0l0-0.9H211.4z"/>
			<ellipse class="st3" cx="212.1" cy="148.6" rx="0.7" ry="0.3"/>
		</g>
		<g>
			<ellipse class="st2" cx="210.7" cy="150.1" rx="0.7" ry="0.3"/>
			<path class="st2" d="M210,149.3c0,0,0,0.8,0,0.9s1,0.4,1.4,0l0-0.9H210z"/>
			<ellipse class="st3" cx="210.7" cy="149.4" rx="0.7" ry="0.3"/>
		</g>
		<g>
			<ellipse class="st2" cx="209.2" cy="150.8" rx="0.7" ry="0.3"/>
			<path class="st2" d="M208.5,150c0,0,0,0.8,0,0.9s1,0.4,1.4,0l0-0.9H208.5z"/>
			<ellipse class="st3" cx="209.2" cy="150.1" rx="0.7" ry="0.3"/>
		</g>
		<g>
			<ellipse class="st2" cx="207.8" cy="151.5" rx="0.7" ry="0.3"/>
			<path class="st2" d="M207.1,150.7c0,0,0,0.8,0,0.9c0,0.1,1,0.4,1.4,0l0-0.9H207.1z"/>
			<ellipse class="st3" cx="207.8" cy="150.8" rx="0.7" ry="0.3"/>
		</g>
		<g>
			<ellipse class="st2" cx="206.4" cy="152.2" rx="0.7" ry="0.3"/>
			<path class="st2" d="M205.6,151.5c0,0,0,0.8,0,0.9c0,0.1,1,0.4,1.4,0l0-0.9H205.6z"/>
			<ellipse class="st3" cx="206.4" cy="151.5" rx="0.7" ry="0.3"/>
		</g>
		<g>
			<ellipse class="st2" cx="204.9" cy="152.9" rx="0.7" ry="0.3"/>
			<path class="st2" d="M204.2,152.2c0,0,0,0.8,0,0.9c0,0.1,1,0.4,1.4,0l0-0.9H204.2z"/>
			<ellipse class="st3" cx="204.9" cy="152.2" rx="0.7" ry="0.3"/>
		</g>
		<g>
			<ellipse class="st2" cx="203.5" cy="153.6" rx="0.7" ry="0.3"/>
			<path class="st2" d="M202.8,152.9c0,0,0,0.8,0,0.9c0,0.1,1,0.4,1.4,0l0-0.9H202.8z"/>
			<ellipse class="st3" cx="203.5" cy="152.9" rx="0.7" ry="0.3"/>
		</g>
		<g>
			<ellipse class="st2" cx="202" cy="154.4" rx="0.7" ry="0.3"/>
			<path class="st2" d="M201.3,153.6c0,0,0,0.8,0,0.9c0,0.1,1,0.4,1.4,0l0-0.9H201.3z"/>
			<ellipse class="st3" cx="202" cy="153.6" rx="0.7" ry="0.3"/>
		</g>
		<g>
			<ellipse class="st2" cx="200.6" cy="155.1" rx="0.7" ry="0.3"/>
			<path class="st2" d="M199.9,154.3c0,0,0,0.8,0,0.9c0,0.1,1,0.4,1.4,0l0-0.9H199.9z"/>
			<ellipse class="st3" cx="200.6" cy="154.3" rx="0.7" ry="0.3"/>
		</g>
		<g>
			<ellipse class="st2" cx="199.2" cy="155.8" rx="0.7" ry="0.3"/>
			<path class="st2" d="M198.4,155c0,0,0,0.8,0,0.9s1,0.4,1.4,0l0-0.9H198.4z"/>
			<ellipse class="st3" cx="199.2" cy="155" rx="0.7" ry="0.3"/>
		</g>
		<g>
			<ellipse class="st2" cx="197.7" cy="156.5" rx="0.7" ry="0.3"/>
			<path class="st2" d="M197,155.7c0,0,0,0.8,0,0.9s1,0.4,1.4,0l0-0.9H197z"/>
			<ellipse class="st3" cx="197.7" cy="155.8" rx="0.7" ry="0.3"/>
		</g>
		<g>
			<ellipse class="st2" cx="196.3" cy="157.2" rx="0.7" ry="0.3"/>
			<path class="st2" d="M195.6,156.4c0,0,0,0.8,0,0.9c0,0.1,1,0.4,1.4,0l0-0.9H195.6z"/>
			<ellipse class="st3" cx="196.3" cy="156.5" rx="0.7" ry="0.3"/>
		</g>
		<g>
			<ellipse class="st2" cx="194.8" cy="157.9" rx="0.7" ry="0.3"/>
			<path class="st2" d="M194.1,157.1c0,0,0,0.8,0,0.9c0,0.1,1,0.4,1.4,0l0-0.9H194.1z"/>
			<ellipse class="st3" cx="194.8" cy="157.2" rx="0.7" ry="0.3"/>
		</g>
		<g>
			<ellipse class="st2" cx="193.4" cy="158.6" rx="0.7" ry="0.3"/>
			<path class="st2" d="M192.7,157.9c0,0,0,0.8,0,0.9c0,0.1,1,0.4,1.4,0l0-0.9H192.7z"/>
			<ellipse class="st3" cx="193.4" cy="157.9" rx="0.7" ry="0.3"/>
		</g>
		<g>
			<ellipse class="st2" cx="192" cy="159.3" rx="0.7" ry="0.3"/>
			<path class="st2" d="M191.2,158.6c0,0,0,0.8,0,0.9c0,0.1,1,0.4,1.4,0l0-0.9H191.2z"/>
			<ellipse class="st3" cx="192" cy="158.6" rx="0.7" ry="0.3"/>
		</g>
		<g>
			<ellipse class="st2" cx="190.5" cy="160" rx="0.7" ry="0.3"/>
			<path class="st2" d="M189.8,159.3c0,0,0,0.8,0,0.9c0,0.1,1,0.4,1.4,0l0-0.9H189.8z"/>
			<ellipse class="st3" cx="190.5" cy="159.3" rx="0.7" ry="0.3"/>
		</g>
		<g>
			<ellipse class="st2" cx="189.1" cy="160.7" rx="0.7" ry="0.3"/>
			<path class="st2" d="M188.4,160c0,0,0,0.8,0,0.9c0,0.1,1,0.4,1.4,0l0-0.9H188.4z"/>
			<ellipse class="st3" cx="189.1" cy="160" rx="0.7" ry="0.3"/>
		</g>
		<g>
			<ellipse class="st2" cx="187.6" cy="161.5" rx="0.7" ry="0.3"/>
			<path class="st2" d="M186.9,160.7c0,0,0,0.8,0,0.9s1,0.4,1.4,0l0-0.9H186.9z"/>
			<ellipse class="st3" cx="187.6" cy="160.7" rx="0.7" ry="0.3"/>
		</g>
		<g>
			<ellipse class="st2" cx="186.2" cy="162.2" rx="0.7" ry="0.3"/>
			<path class="st2" d="M185.5,161.4c0,0,0,0.8,0,0.9s1,0.4,1.4,0l0-0.9H185.5z"/>
			<ellipse class="st3" cx="186.2" cy="161.4" rx="0.7" ry="0.3"/>
		</g>
		<g>
			<ellipse class="st2" cx="184.8" cy="162.9" rx="0.7" ry="0.3"/>
			<path class="st2" d="M184,162.1c0,0,0,0.8,0,0.9c0,0.1,1,0.4,1.4,0l0-0.9H184z"/>
			<ellipse class="st3" cx="184.8" cy="162.2" rx="0.7" ry="0.3"/>
		</g>
		<g>
			<ellipse class="st2" cx="183.3" cy="163.6" rx="0.7" ry="0.3"/>
			<path class="st2" d="M182.6,162.8c0,0,0,0.8,0,0.9c0,0.1,1,0.4,1.4,0l0-0.9H182.6z"/>
			<ellipse class="st3" cx="183.3" cy="162.9" rx="0.7" ry="0.3"/>
		</g>
		<g>
			<ellipse class="st2" cx="181.9" cy="164.3" rx="0.7" ry="0.3"/>
			<path class="st2" d="M181.2,163.5c0,0,0,0.8,0,0.9c0,0.1,1,0.4,1.4,0l0-0.9H181.2z"/>
			<ellipse class="st3" cx="181.9" cy="163.6" rx="0.7" ry="0.3"/>
		</g>
		<g>
			<ellipse class="st2" cx="180.4" cy="165" rx="0.7" ry="0.3"/>
			<path class="st2" d="M179.7,164.3c0,0,0,0.8,0,0.9c0,0.1,1,0.4,1.4,0l0-0.9H179.7z"/>
			<ellipse class="st3" cx="180.4" cy="164.3" rx="0.7" ry="0.3"/>
		</g>
		<g>
			<ellipse class="st2" cx="179" cy="165.7" rx="0.7" ry="0.3"/>
			<path class="st2" d="M178.3,165c0,0,0,0.8,0,0.9c0,0.1,1,0.4,1.4,0l0-0.9H178.3z"/>
			<ellipse class="st3" cx="179" cy="165" rx="0.7" ry="0.3"/>
		</g>
		<g>
			<ellipse class="st2" cx="177.6" cy="166.4" rx="0.7" ry="0.3"/>
			<path class="st2" d="M176.8,165.7c0,0,0,0.8,0,0.9c0,0.1,1,0.4,1.4,0l0-0.9H176.8z"/>
			<ellipse class="st3" cx="177.6" cy="165.7" rx="0.7" ry="0.3"/>
		</g>
		<g>
			<ellipse class="st2" cx="176.1" cy="167.1" rx="0.7" ry="0.3"/>
			<path class="st2" d="M175.4,166.4c0,0,0,0.8,0,0.9s1,0.4,1.4,0l0-0.9H175.4z"/>
			<ellipse class="st3" cx="176.1" cy="166.4" rx="0.7" ry="0.3"/>
		</g>
		<g>
			<ellipse class="st2" cx="174.7" cy="167.9" rx="0.7" ry="0.3"/>
			<path class="st2" d="M174,167.1c0,0,0,0.8,0,0.9s1,0.4,1.4,0l0-0.9H174z"/>
			<ellipse class="st3" cx="174.7" cy="167.1" rx="0.7" ry="0.3"/>
		</g>
		<g>
			<ellipse class="st2" cx="173.2" cy="168.6" rx="0.7" ry="0.3"/>
			<path class="st2" d="M172.5,167.8c0,0,0,0.8,0,0.9c0,0.1,1,0.4,1.4,0l0-0.9H172.5z"/>
			<ellipse class="st3" cx="173.2" cy="167.8" rx="0.7" ry="0.3"/>
		</g>
		<g>
			<ellipse class="st2" cx="171.8" cy="169.3" rx="0.7" ry="0.3"/>
			<path class="st2" d="M171.1,168.5c0,0,0,0.8,0,0.9c0,0.1,1,0.4,1.4,0l0-0.9H171.1z"/>
			<ellipse class="st3" cx="171.8" cy="168.6" rx="0.7" ry="0.3"/>
		</g>
		<g>
			<ellipse class="st2" cx="170.4" cy="170" rx="0.7" ry="0.3"/>
			<path class="st2" d="M169.6,169.2c0,0,0,0.8,0,0.9c0,0.1,1,0.4,1.4,0l0-0.9H169.6z"/>
			<ellipse class="st3" cx="170.4" cy="169.3" rx="0.7" ry="0.3"/>
		</g>
		<g>
			<ellipse class="st2" cx="168.9" cy="170.7" rx="0.7" ry="0.3"/>
			<path class="st2" d="M168.2,169.9c0,0,0,0.8,0,0.9c0,0.1,1,0.4,1.4,0l0-0.9H168.2z"/>
			<ellipse class="st3" cx="168.9" cy="170" rx="0.7" ry="0.3"/>
		</g>
		<g>
			<ellipse class="st2" cx="167.5" cy="171.4" rx="0.7" ry="0.3"/>
			<path class="st2" d="M166.8,170.7c0,0,0,0.8,0,0.9c0,0.1,1,0.4,1.4,0l0-0.9H166.8z"/>
			<ellipse class="st3" cx="167.5" cy="170.7" rx="0.7" ry="0.3"/>
		</g>
		<g>
			<ellipse class="st2" cx="166" cy="172.1" rx="0.7" ry="0.3"/>
			<path class="st2" d="M165.3,171.4c0,0,0,0.8,0,0.9c0,0.1,1,0.4,1.4,0l0-0.9H165.3z"/>
			<ellipse class="st3" cx="166" cy="171.4" rx="0.7" ry="0.3"/>
		</g>
		<g>
			<ellipse class="st2" cx="164.6" cy="172.8" rx="0.7" ry="0.3"/>
			<path class="st2" d="M163.9,172.1c0,0,0,0.8,0,0.9c0,0.1,1,0.4,1.4,0l0-0.9H163.9z"/>
			<ellipse class="st3" cx="164.6" cy="172.1" rx="0.7" ry="0.3"/>
		</g>
		<g>
			<ellipse class="st2" cx="163.2" cy="173.5" rx="0.7" ry="0.3"/>
			<path class="st2" d="M162.4,172.8c0,0,0,0.8,0,0.9s1,0.4,1.4,0l0-0.9H162.4z"/>
			<ellipse class="st3" cx="163.2" cy="172.8" rx="0.7" ry="0.3"/>
		</g>
		<g>
			<ellipse class="st2" cx="161.7" cy="174.3" rx="0.7" ry="0.3"/>
			<path class="st2" d="M161,173.5c0,0,0,0.8,0,0.9c0,0.1,1,0.4,1.4,0l0-0.9H161z"/>
			<ellipse class="st3" cx="161.7" cy="173.5" rx="0.7" ry="0.3"/>
		</g>
		<g>
			<ellipse class="st2" cx="160.3" cy="175" rx="0.7" ry="0.3"/>
			<path class="st2" d="M159.5,174.2c0,0,0,0.8,0,0.9c0,0.1,1,0.4,1.4,0l0-0.9H159.5z"/>
			<ellipse class="st3" cx="160.3" cy="174.2" rx="0.7" ry="0.3"/>
		</g>
		<g>
			<ellipse class="st2" cx="158.8" cy="175.7" rx="0.7" ry="0.3"/>
			<path class="st2" d="M158.1,174.9c0,0,0,0.8,0,0.9c0,0.1,1,0.4,1.4,0l0-0.9H158.1z"/>
			<ellipse class="st3" cx="158.8" cy="175" rx="0.7" ry="0.3"/>
		</g>
		<g>
			<ellipse class="st2" cx="157.4" cy="176.4" rx="0.7" ry="0.3"/>
			<path class="st2" d="M156.7,175.6c0,0,0,0.8,0,0.9c0,0.1,1,0.4,1.4,0l0-0.9H156.7z"/>
			<ellipse class="st3" cx="157.4" cy="175.7" rx="0.7" ry="0.3"/>
		</g>
		<g>
			<ellipse class="st2" cx="156" cy="177.1" rx="0.7" ry="0.3"/>
			<path class="st2" d="M155.2,176.3c0,0,0,0.8,0,0.9c0,0.1,1,0.4,1.4,0l0-0.9H155.2z"/>
			<ellipse class="st3" cx="156" cy="176.4" rx="0.7" ry="0.3"/>
		</g>
		<g>
			<ellipse class="st2" cx="154.5" cy="177.8" rx="0.7" ry="0.3"/>
			<path class="st2" d="M153.8,177c0,0,0,0.8,0,0.9c0,0.1,1,0.4,1.4,0l0-0.9H153.8z"/>
			<ellipse class="st3" cx="154.5" cy="177.1" rx="0.7" ry="0.3"/>
		</g>
		<g>
			<ellipse class="st2" cx="153.1" cy="178.5" rx="0.7" ry="0.3"/>
			<path class="st2" d="M152.3,177.8c0,0,0,0.8,0,0.9c0,0.1,1,0.4,1.4,0l0-0.9H152.3z"/>
			<ellipse class="st3" cx="153.1" cy="177.8" rx="0.7" ry="0.3"/>
		</g>
		<g>
			<ellipse class="st2" cx="151.6" cy="179.2" rx="0.7" ry="0.3"/>
			<path class="st2" d="M150.9,178.5c0,0,0,0.8,0,0.9s1,0.4,1.4,0l0-0.9H150.9z"/>
			<ellipse class="st3" cx="151.6" cy="178.5" rx="0.7" ry="0.3"/>
		</g>
		<g>
			<ellipse class="st2" cx="150.2" cy="179.9" rx="0.7" ry="0.3"/>
			<path class="st2" d="M149.5,179.2c0,0,0,0.8,0,0.9c0,0.1,1,0.4,1.4,0l0-0.9H149.5z"/>
			<ellipse class="st3" cx="150.2" cy="179.2" rx="0.7" ry="0.3"/>
		</g>
		<g>
			<ellipse class="st2" cx="148.8" cy="180.7" rx="0.7" ry="0.3"/>
			<path class="st2" d="M148,179.9c0,0,0,0.8,0,0.9c0,0.1,1,0.4,1.4,0l0-0.9H148z"/>
			<ellipse class="st3" cx="148.8" cy="179.9" rx="0.7" ry="0.3"/>
		</g>
		<g>
			<ellipse class="st2" cx="147.3" cy="181.4" rx="0.7" ry="0.3"/>
			<path class="st2" d="M146.6,180.6c0,0,0,0.8,0,0.9c0,0.1,1,0.4,1.4,0l0-0.9H146.6z"/>
			<ellipse class="st3" cx="147.3" cy="180.6" rx="0.7" ry="0.3"/>
		</g>
		<g>
			<ellipse class="st2" cx="145.9" cy="182.1" rx="0.7" ry="0.3"/>
			<path class="st2" d="M145.1,181.3c0,0,0,0.8,0,0.9c0,0.1,1,0.4,1.4,0l0-0.9H145.1z"/>
			<ellipse class="st3" cx="145.9" cy="181.4" rx="0.7" ry="0.3"/>
		</g>
		<g>
			<ellipse class="st2" cx="144.4" cy="182.8" rx="0.7" ry="0.3"/>
			<path class="st2" d="M143.7,182c0,0,0,0.8,0,0.9c0,0.1,1,0.4,1.4,0l0-0.9H143.7z"/>
			<ellipse class="st3" cx="144.4" cy="182.1" rx="0.7" ry="0.3"/>
		</g>
		<g>
			<ellipse class="st2" cx="143" cy="183.5" rx="0.7" ry="0.3"/>
			<path class="st2" d="M142.3,182.7c0,0,0,0.8,0,0.9c0,0.1,1,0.4,1.4,0l0-0.9H142.3z"/>
			<ellipse class="st3" cx="143" cy="182.8" rx="0.7" ry="0.3"/>
		</g>
		<g>
			<ellipse class="st2" cx="141.6" cy="184.2" rx="0.7" ry="0.3"/>
			<path class="st2" d="M140.8,183.4c0,0,0,0.8,0,0.9c0,0.1,1,0.4,1.4,0l0-0.9H140.8z"/>
			<ellipse class="st3" cx="141.6" cy="183.5" rx="0.7" ry="0.3"/>
		</g>
		<g>
			<ellipse class="st2" cx="140.1" cy="184.9" rx="0.7" ry="0.3"/>
			<path class="st2" d="M139.4,184.2c0,0,0,0.8,0,0.9s1,0.4,1.4,0l0-0.9H139.4z"/>
			<ellipse class="st3" cx="140.1" cy="184.2" rx="0.7" ry="0.3"/>
		</g>
		<g>
			<ellipse class="st2" cx="138.7" cy="185.6" rx="0.7" ry="0.3"/>
			<path class="st2" d="M137.9,184.9c0,0,0,0.8,0,0.9c0,0.1,1,0.4,1.4,0l0-0.9H137.9z"/>
			<ellipse class="st3" cx="138.7" cy="184.9" rx="0.7" ry="0.3"/>
		</g>
		<g>
			<ellipse class="st2" cx="137.2" cy="186.3" rx="0.7" ry="0.3"/>
			<path class="st2" d="M136.5,185.6c0,0,0,0.8,0,0.9c0,0.1,1,0.4,1.4,0l0-0.9H136.5z"/>
			<ellipse class="st3" cx="137.2" cy="185.6" rx="0.7" ry="0.3"/>
		</g>
		<g>
			<ellipse class="st2" cx="135.8" cy="187.1" rx="0.7" ry="0.3"/>
			<path class="st2" d="M135.1,186.3c0,0,0,0.8,0,0.9c0,0.1,1,0.4,1.4,0l0-0.9H135.1z"/>
			<ellipse class="st3" cx="135.8" cy="186.3" rx="0.7" ry="0.3"/>
		</g>
		<g>
			<ellipse class="st2" cx="134.4" cy="187.8" rx="0.7" ry="0.3"/>
			<path class="st2" d="M133.6,187c0,0,0,0.8,0,0.9c0,0.1,1,0.4,1.4,0l0-0.9H133.6z"/>
			<ellipse class="st3" cx="134.3" cy="187" rx="0.7" ry="0.3"/>
		</g>
		<g>
			<ellipse class="st2" cx="132.9" cy="188.5" rx="0.7" ry="0.3"/>
			<path class="st2" d="M132.2,187.7c0,0,0,0.8,0,0.9c0,0.1,1,0.4,1.4,0l0-0.9H132.2z"/>
			<ellipse class="st3" cx="132.9" cy="187.8" rx="0.7" ry="0.3"/>
		</g>
		<g>
			<ellipse class="st2" cx="131.5" cy="189.2" rx="0.7" ry="0.3"/>
			<path class="st2" d="M130.7,188.4c0,0,0,0.8,0,0.9c0,0.1,1,0.4,1.4,0l0-0.9H130.7z"/>
			<ellipse class="st3" cx="131.5" cy="188.5" rx="0.7" ry="0.3"/>
		</g>
		<g>
			<ellipse class="st2" cx="130" cy="189.9" rx="0.7" ry="0.3"/>
			<path class="st2" d="M129.3,189.1c0,0,0,0.8,0,0.9c0,0.1,1,0.4,1.4,0l0-0.9H129.3z"/>
			<ellipse class="st3" cx="130" cy="189.2" rx="0.7" ry="0.3"/>
		</g>
		<g>
			<ellipse class="st2" cx="128.6" cy="190.6" rx="0.7" ry="0.3"/>
			<path class="st2" d="M127.9,189.8c0,0,0,0.8,0,0.9s1,0.4,1.4,0l0-0.9H127.9z"/>
			<ellipse class="st3" cx="128.6" cy="189.9" rx="0.7" ry="0.3"/>
		</g>
		<g>
			<ellipse class="st2" cx="127.1" cy="191.3" rx="0.7" ry="0.3"/>
			<path class="st2" d="M126.4,190.6c0,0,0,0.8,0,0.9c0,0.1,1,0.4,1.4,0l0-0.9H126.4z"/>
			<ellipse class="st3" cx="127.1" cy="190.6" rx="0.7" ry="0.3"/>
		</g>
		<g>
			<ellipse class="st2" cx="125.7" cy="192" rx="0.7" ry="0.3"/>
			<path class="st2" d="M125,191.3c0,0,0,0.8,0,0.9c0,0.1,1,0.4,1.4,0l0-0.9H125z"/>
			<ellipse class="st3" cx="125.7" cy="191.3" rx="0.7" ry="0.3"/>
		</g>
		<g>
			<ellipse class="st2" cx="124.3" cy="192.7" rx="0.7" ry="0.3"/>
			<path class="st2" d="M123.5,192c0,0,0,0.8,0,0.9c0,0.1,1,0.4,1.4,0l0-0.9H123.5z"/>
			<ellipse class="st3" cx="124.3" cy="192" rx="0.7" ry="0.3"/>
		</g>
		<g>
			<ellipse class="st2" cx="122.8" cy="193.5" rx="0.7" ry="0.3"/>
			<path class="st2" d="M122.1,192.7c0,0,0,0.8,0,0.9c0,0.1,1,0.4,1.4,0l0-0.9H122.1z"/>
			<ellipse class="st3" cx="122.8" cy="192.7" rx="0.7" ry="0.3"/>
		</g>
		<g>
			<ellipse class="st2" cx="121.4" cy="194.2" rx="0.7" ry="0.3"/>
			<path class="st2" d="M120.7,193.4c0,0,0,0.8,0,0.9c0,0.1,1,0.4,1.4,0l0-0.9H120.7z"/>
			<ellipse class="st3" cx="121.4" cy="193.4" rx="0.7" ry="0.3"/>
		</g>
		<g>
			<ellipse class="st2" cx="119.9" cy="194.9" rx="0.7" ry="0.3"/>
			<path class="st2" d="M119.2,194.1c0,0,0,0.8,0,0.9c0,0.1,1,0.4,1.4,0l0-0.9H119.2z"/>
			<ellipse class="st3" cx="119.9" cy="194.2" rx="0.7" ry="0.3"/>
		</g>
		<g>
			<ellipse class="st2" cx="118.5" cy="195.6" rx="0.7" ry="0.3"/>
			<path class="st2" d="M117.8,194.8c0,0,0,0.8,0,0.9c0,0.1,1,0.4,1.4,0l0-0.9H117.8z"/>
			<ellipse class="st3" cx="118.5" cy="194.9" rx="0.7" ry="0.3"/>
		</g>
		<g>
			<ellipse class="st2" cx="117.1" cy="196.3" rx="0.7" ry="0.3"/>
			<path class="st2" d="M116.3,195.5c0,0,0,0.8,0,0.9s1,0.4,1.4,0l0-0.9H116.3z"/>
			<ellipse class="st3" cx="117.1" cy="195.6" rx="0.7" ry="0.3"/>
		</g>
		<g>
			<ellipse class="st2" cx="115.6" cy="197" rx="0.7" ry="0.3"/>
			<path class="st2" d="M114.9,196.2c0,0,0,0.8,0,0.9s1,0.4,1.4,0l0-0.9H114.9z"/>
			<ellipse class="st3" cx="115.6" cy="196.3" rx="0.7" ry="0.3"/>
		</g>
		<g>
			<ellipse class="st2" cx="114.2" cy="197.7" rx="0.7" ry="0.3"/>
			<path class="st2" d="M113.5,197c0,0,0,0.8,0,0.9c0,0.1,1,0.4,1.4,0l0-0.9H113.5z"/>
			<ellipse class="st3" cx="114.2" cy="197" rx="0.7" ry="0.3"/>
		</g>
		<g>
			<ellipse class="st2" cx="112.7" cy="198.4" rx="0.7" ry="0.3"/>
			<path class="st2" d="M112,197.7c0,0,0,0.8,0,0.9c0,0.1,1,0.4,1.4,0l0-0.9H112z"/>
			<ellipse class="st3" cx="112.7" cy="197.7" rx="0.7" ry="0.3"/>
		</g>
		<g>
			<ellipse class="st2" cx="111.3" cy="199.1" rx="0.7" ry="0.3"/>
			<path class="st2" d="M110.6,198.4c0,0,0,0.8,0,0.9c0,0.1,1,0.4,1.4,0l0-0.9H110.6z"/>
			<ellipse class="st3" cx="111.3" cy="198.4" rx="0.7" ry="0.3"/>
		</g>
		<g>
			<ellipse class="st2" cx="109.9" cy="199.9" rx="0.7" ry="0.3"/>
			<path class="st2" d="M109.1,199.1c0,0,0,0.8,0,0.9c0,0.1,1,0.4,1.4,0l0-0.9H109.1z"/>
			<ellipse class="st3" cx="109.9" cy="199.1" rx="0.7" ry="0.3"/>
		</g>
		<g>
			<ellipse class="st2" cx="108.4" cy="200.6" rx="0.7" ry="0.3"/>
			<path class="st2" d="M107.7,199.8c0,0,0,0.8,0,0.9c0,0.1,1,0.4,1.4,0l0-0.9H107.7z"/>
			<ellipse class="st3" cx="108.4" cy="199.8" rx="0.7" ry="0.3"/>
		</g>
		<g>
			<ellipse class="st2" cx="107" cy="201.3" rx="0.7" ry="0.3"/>
			<path class="st2" d="M106.3,200.5c0,0,0,0.8,0,0.9c0,0.1,1,0.4,1.4,0l0-0.9H106.3z"/>
			<ellipse class="st3" cx="107" cy="200.6" rx="0.7" ry="0.3"/>
		</g>
		<g>
			<ellipse class="st2" cx="105.5" cy="202" rx="0.7" ry="0.3"/>
			<path class="st2" d="M104.8,201.2c0,0,0,0.8,0,0.9s1,0.4,1.4,0l0-0.9H104.8z"/>
			<ellipse class="st3" cx="105.5" cy="201.3" rx="0.7" ry="0.3"/>
		</g>
		<g>
			<ellipse class="st2" cx="104.1" cy="202.7" rx="0.7" ry="0.3"/>
			<path class="st2" d="M103.4,201.9c0,0,0,0.8,0,0.9s1,0.4,1.4,0l0-0.9H103.4z"/>
			<ellipse class="st3" cx="104.1" cy="202" rx="0.7" ry="0.3"/>
		</g>
		<g>
			<ellipse class="st2" cx="102.7" cy="203.4" rx="0.7" ry="0.3"/>
			<path class="st2" d="M101.9,202.6c0,0,0,0.8,0,0.9c0,0.1,1,0.4,1.4,0l0-0.9H101.9z"/>
			<ellipse class="st3" cx="102.7" cy="202.7" rx="0.7" ry="0.3"/>
		</g>
		<g>
			<ellipse class="st2" cx="101.2" cy="204.1" rx="0.7" ry="0.3"/>
			<path class="st2" d="M100.5,203.4c0,0,0,0.8,0,0.9c0,0.1,1,0.4,1.4,0l0-0.9H100.5z"/>
			<ellipse class="st3" cx="101.2" cy="203.4" rx="0.7" ry="0.3"/>
		</g>
		<g>
			<ellipse class="st2" cx="99.8" cy="204.8" rx="0.7" ry="0.3"/>
			<path class="st2" d="M99.1,204.1c0,0,0,0.8,0,0.9c0,0.1,1,0.4,1.4,0l0-0.9H99.1z"/>
			<ellipse class="st3" cx="99.8" cy="204.1" rx="0.7" ry="0.3"/>
		</g>
		<g>
			<ellipse class="st2" cx="98.3" cy="205.5" rx="0.7" ry="0.3"/>
			<path class="st2" d="M97.6,204.8c0,0,0,0.8,0,0.9c0,0.1,1,0.4,1.4,0l0-0.9H97.6z"/>
			<ellipse class="st3" cx="98.3" cy="204.8" rx="0.7" ry="0.3"/>
		</g>
		<g>
			<ellipse class="st2" cx="96.9" cy="206.3" rx="0.7" ry="0.3"/>
			<path class="st2" d="M96.2,205.5c0,0,0,0.8,0,0.9c0,0.1,1,0.4,1.4,0l0-0.9H96.2z"/>
			<ellipse class="st3" cx="96.9" cy="205.5" rx="0.7" ry="0.3"/>
		</g>
		<g>
			<ellipse class="st2" cx="95.5" cy="207" rx="0.7" ry="0.3"/>
			<path class="st2" d="M94.7,206.2c0,0,0,0.8,0,0.9c0,0.1,1,0.4,1.4,0l0-0.9H94.7z"/>
			<ellipse class="st3" cx="95.5" cy="206.2" rx="0.7" ry="0.3"/>
		</g>
	</g>
	<g>
		<path class="st11" d="M82.6,210.8c0,0,2.5-0.1,5.3-1.1c1.1-0.4,6.1-2.2,7.8-2.3c1.9,0,0.5-1,1.9-1.5c3.2-1.1,7-2.5,16.3-5.1
			c13.2-3.6,33.6-13.8,33.6-13.8l43.6-22l11.6-7.8l10.3,5.6l-37.4,17.6l-24.9,12.6l-36,16.6l-17.5,8.6L82.6,210.8z"/>
		<path class="st11" d="M193.9,162.1l-2.6-9c0.5-1,11.2,3.5,10.7,4.5l-8.1,7.5V162.1z"/>
	</g>
	<line class="st12" x1="99.9" y1="212.3" x2="202.6" y2="164"/>
	<polygon class="st0" points="40.4,210.9 96.7,239.5 96.5,196.1 40.3,167.6 	"/>
	<polygon class="st6" points="96.7,239.1 220.5,175.7 220.5,134.2 96.6,196.2 	"/>
	<path class="st13" d="M165,116.5L55.7,172.3L96.1,192l110.4-55L165,116.5z M116,177l64.9-33c0,0,8.1-2.1,4,0.9
		c-4.1,3-83,42.5-83,37.8C101.9,177.9,116,177,116,177z"/>
	<polygon class="st4" points="45.1,169.8 96.3,196.3 99.8,194.5 48.8,168 	"/>
	<polygon class="st4" points="96.4,196.2 220.2,134.1 216.5,132.3 92.6,194.1 	"/>
	<polygon class="st4" points="45.1,169.8 169,108.4 164.9,106.4 41.2,167.7 	"/>
	<g>
		<g>
			<g>
				<defs>
					<path id="XMLID_48_" d="M244,36.6c4.4,3,8.8,15-1.5,27.1c-10.3,12.1-39.4,16.6-39.4,16.6s12.5,2.2,17.7,4.1s50.9,59.3,56,61.4
						c3.8,1.8,23.7,0.2,36.8-14.3c13.1-14.5,11.8-29.1,10.3-32.8c-1.3-3.1-57.2-45-74.7-58.2L244,36.6"/>
				</defs>
				<clipPath id="XMLID_2_">
					<use xlink:href="#XMLID_48_"  style="overflow:visible;"/>
				</clipPath>
				<path class="st14" d="M324,99.6c0,0,0.6,19.3-11.2,31.1c-15.8,15.3-33.9,15-35.8,15c-5.9-4.9-49.9-60.3-57.9-63.2
					c-8-2.9-17.1,0-17.1,0l11.2-5l11.6-2.6l26.7,9l16.8,2l45.6,5.3L324,99.6z"/>
				<use xlink:href="#XMLID_48_"  style="overflow:visible;fill:none;stroke:#361D32;stroke-width:0.5;stroke-miterlimit:10;"/>
			</g>
			<path class="st15" d="M200.1,80.3c0,0-3.5-13,12.9-32.7s28.6-12.9,31-10.9"/>
		</g>
		<path class="st13" d="M221.9,74.2c-1.6-3.3-22.6-2-30.7,10.5s-7.4,15.6-7.4,15.6l-2.3,35.8c0,0,4.7,15,3.2,0.9
			c-1.5-14.2,6-43.8,9.5-47.1s7.4-5.6,14.1-10.3C213.4,76.3,222.6,75.6,221.9,74.2z"/>
	</g>
</g>
</svg>
