<?xml version="1.0" encoding="utf-8"?>
<!-- Generator: Adobe Illustrator 25.2.3, SVG Export Plug-In . SVG Version: 6.00 Build 0)  -->
<svg version="1.1" id="Layer_1" xmlns="http://www.w3.org/2000/svg" xmlns:xlink="http://www.w3.org/1999/xlink" x="0px" y="0px"
	 viewBox="0 0 161.7 212.9" style="enable-background:new 0 0 161.7 212.9;" xml:space="preserve">
<style type="text/css">
	.st0{fill:none;stroke:#FFFFFF;stroke-width:0.2625;stroke-miterlimit:10;}
	.st1{fill:#CBB8B9;stroke:#FFFFFF;stroke-width:0.2625;stroke-miterlimit:10;}
	.st2{fill:#E4DAD8;stroke:#FFFFFF;stroke-width:0.2625;stroke-miterlimit:10;}
	.st3{fill:#CBB8B9;stroke:#FFFFFF;stroke-width:0.2625;stroke-linejoin:bevel;stroke-miterlimit:10;}
	.st4{fill:#E4DAD8;stroke:#FFFFFF;stroke-width:0.2625;stroke-linejoin:bevel;stroke-miterlimit:10;}
	.st5{fill:#DD335A;stroke:#FFFFFF;stroke-width:0.2625;stroke-miterlimit:10;}
	.st6{fill:#C52E55;stroke:#FFFFFF;stroke-width:0.2625;stroke-miterlimit:10;}
	.st7{fill:none;stroke:#FFFFFF;stroke-width:0.3072;stroke-miterlimit:10;}
	.st8{fill:none;stroke:#B71549;stroke-width:0.3072;stroke-miterlimit:10;}
	.st9{fill:none;stroke:#B71549;stroke-width:0.3072;stroke-linecap:round;stroke-miterlimit:10;}
	.st10{fill:#B71549;}
	.st11{fill:#B71549;stroke:#FFFFFF;stroke-width:0.2625;stroke-miterlimit:10;}
	.st12{fill:#B71549;stroke:#FFFFFF;stroke-width:0.2969;stroke-miterlimit:10;}
	.st13{fill:#EE7345;stroke:#FFFFFF;stroke-width:0.3096;stroke-miterlimit:10;}
	.st14{fill:none;stroke:#FFFFFF;stroke-width:0.3096;stroke-miterlimit:10;}
	.st15{fill:#EE7345;stroke:#FFFFFF;stroke-width:0.3072;stroke-miterlimit:10;}
	.st16{fill:none;stroke:#B71549;stroke-width:1.782;stroke-linecap:round;stroke-miterlimit:10;}
	.st17{fill:#C52E55;}
	.st18{fill:#B71549;stroke:#FFFFFF;stroke-width:0.2788;stroke-miterlimit:10;}
	.st19{fill:none;stroke:#FFFFFF;stroke-width:0.2625;stroke-linejoin:bevel;stroke-miterlimit:10;}
</style>
<g>
	<line class="st0" x1="64.7" y1="181.4" x2="64.7" y2="190.1"/>
	<line class="st0" x1="64.4" y1="181.2" x2="64.3" y2="190.3"/>
	<g>
		<polygon class="st1" points="10.4,170.3 59.7,195.3 143.5,153.1 143.7,143.4 97,122 10.4,165.7 		"/>
		<polygon class="st1" points="10.4,171 10.5,161.6 59.8,185.7 59.6,195.3 		"/>
		<polygon class="st1" points="0,173.3 0,181.2 60.1,211.6 161.4,160.5 161.2,152.4 60,202.8 		"/>
		<polygon class="st2" points="59.6,202.8 161.4,152.5 101.2,123.2 0.2,172.7 		"/>
		<polygon class="st1" points="10.4,170.3 59.6,195.7 145.3,152.1 145.4,142.4 97,122 10.4,165.7 		"/>
		<polygon class="st3" points="10.4,171 10.5,161.6 59.6,186.2 59.5,195.7 		"/>
		<polygon class="st3" points="0.3,172.8 0.3,182.3 59.6,212.1 161.7,160.3 161.5,152.2 59.6,202.8 		"/>
		<path class="st4" d="M10.6,161.6l48.9,24.8l86.3-44.1l-49.5-24L10.6,161.6z"/>
		<g>
			<polygon class="st5" points="34.8,165.6 59.5,178.1 59.5,166.7 34.2,154.3 			"/>
			<polygon class="st6" points="59.5,178 130.4,142.7 130.8,132.7 59.6,166.7 			"/>
			<line class="st7" x1="34.2" y1="154.2" x2="103.9" y2="118.6"/>
			<line class="st8" x1="60.8" y1="163.7" x2="123.5" y2="134.2"/>
			<path class="st9" d="M41.8,153.2c-0.4-0.7,60.9-32.3,60.9-32.3"/>
			<g>
				<polygon class="st10" points="59,163.8 60.3,162.8 59.1,161.7 56.8,161.6 55.5,162.4 56.6,163.6 				"/>
				<path class="st10" d="M58.7,163.4l0.3-0.2c0.2-0.1,0.2-0.5,0.1-0.6l-0.2-0.3c-0.1-0.1-0.2-0.1-0.3-0.1l-1.3-0.1
					c-0.1,0-0.2,0-0.3,0.1l-0.3,0.2c-0.2,0.2-0.2,0.5-0.1,0.6l0.2,0.3c0.1,0.1,0.2,0.1,0.3,0.1l1.3,0.1
					C58.6,163.4,58.7,163.4,58.7,163.4z"/>
			</g>
			<g>
				<polygon class="st10" points="123.2,132.7 124.4,131.8 123.4,130.7 121.1,130.5 119.8,131.3 120.9,132.5 				"/>
				<path class="st10" d="M123,132.3l0.3-0.2c0.2-0.1,0.2-0.5,0.1-0.6l-0.2-0.3c-0.1-0.1-0.1-0.1-0.3-0.1l-1.3-0.1
					c-0.1,0-0.2,0-0.3,0.1l-0.3,0.2c-0.2,0.2-0.2,0.5-0.1,0.6l0.2,0.3c0.1,0.1,0.1,0.1,0.3,0.1l1.3,0.1
					C122.7,132.4,122.8,132.3,123,132.3z"/>
			</g>
			<g>
				<polygon class="st10" points="47.7,154.7 48.9,153.9 47.9,152.8 45.6,152.6 44.4,153.5 45.5,154.5 				"/>
				<path class="st10" d="M47.5,154.3l0.3-0.2c0.2-0.1,0.2-0.4,0.1-0.6l-0.2-0.2c-0.1-0.1-0.2-0.1-0.3-0.1l-1.3-0.1
					c-0.1,0-0.2,0-0.3,0.1l-0.3,0.2c-0.2,0.2-0.2,0.4-0.1,0.6l0.2,0.2c0.1,0.1,0.2,0.1,0.3,0.1l1.3,0.1
					C47.2,154.4,47.4,154.3,47.5,154.3z"/>
			</g>
			<polygon class="st11" points="28.9,162.5 59.5,177.8 59.5,166.7 28.9,151.2 			"/>
			<polygon class="st11" points="59.5,178 130.9,142.7 130.7,131.5 59.6,166.7 			"/>
			<path class="st12" d="M104.9,124.9l6.3-3.1c0,0-0.5,1.8,0.8,2.4s3.9-0.2,3.9-0.2l-8.6,3.8L104.9,124.9z"/>
			<g>
				<path class="st13" d="M57.6,155c0.2-0.1,0.1-0.9,0.1-0.9l1-0.5c0,0,6,0.5,8,0.4c1.6,0,4.4-0.3,6.2-1.5c1.8-1.2,2.3-2.1,2.3-2.1
					l0.6-0.5l1.6-0.7c0,0-0.1,0.2,1.1,0c1.2-0.2,3-1.2,3-1.2l2.5-1.5c0,0,0.8-0.7,0.8-0.9c0-0.1,0.5,0.2,0.7,0.2
					c0.2,0,2.3-1.3,2.5-1.3c0.2,0,0.7-0.5,0.7-0.6l0.8,0.1c0,0,1.9-1,2.4-1.4c0.1-0.1,0.2-0.7,0.2-0.7s0.5,0.3,0.6,0.2l2.6-1.3
					l0.5-0.7l0.4,0.2l4.1-2.1l0.5-0.1c0,0,0.4-0.4,0.6-0.5l0.4,0.1l3.5-2c0.1-0.1,4.5-1.7,1.2-8.6c-3-6.3-7.2-5-8.3-4.8
					c-0.7,0.2-2.8,1.2-3.3,1.4c-0.1,0.1-0.2,0.4-0.3,0.5c-0.1,0-0.3-0.1-0.4-0.1c-0.9,0.3-4.1,2-4.8,2.5c-0.1,0.1-0.1,0.4-0.1,0.4
					s-0.4,0-0.6,0c-0.4,0.1-2,0.8-2.9,1.3c-0.1,0-0.1,0.5-0.1,0.5s-0.5,0-0.6,0c-0.4,0.1-2.6,1.4-2.6,1.4c-0.1,0-0.1,0.1-0.1,0.1
					c-0.1,0.1-0.1,0.4,0,0.5l0,0c0,0-0.7-0.2-0.8-0.1c-0.5,0.2-2.5,1.1-3,1.5c-0.1,0,0,0.4-0.2,0.5s-0.5,0-0.6,0
					c-0.9,0.2-5.5,2.6-5.5,2.6l-1.2,1.3l-1.9,0.9h-1.2c0,0-3.4,0.6-6,3.4c-2.6,2.7-5.6,7.8-5.6,7.8l-0.8,0.5c0,0-0.2,0.2-0.4,0.2
					c-0.2,0-0.4-0.4-0.6-0.3c-0.2,0.1,0,0.8-0.2,1.1c-0.5,0.3-1.9,0.9-1.9,0.9l-1,0.5c0,0,0.8,0,1.8,1.9c1.2,2.3,0.7,3.2,0.7,3.2
					l2.6-1.5l0.6-0.1C56.9,154.6,57.4,155.1,57.6,155z"/>
				<path class="st14" d="M57.3,155c0,0-0.1-2.8-3-6"/>
				<path class="st7" d="M54.7,148.9c2.8,3.2,2.8,5.9,2.8,5.9"/>
				<path class="st13" d="M53.5,156.3c-0.4,0.2-1.5-0.9-2.1-2.2c-0.6-1.4-0.8-2.6-0.3-2.8c0.5-0.2,1.4,0.6,2,2
					C53.7,154.6,54,156.1,53.5,156.3z"/>
				<path class="st15" d="M52.4,153.6"/>
				<path class="st15" d="M64.7,137.5"/>
				<path class="st7" d="M84.8,145.5c0,0,0.5-2.6-1.8-7.3c-2.4-4.9-4.8-5.9-4.8-5.9"/>
				<path class="st7" d="M88.6,143.7c0,0,0.8-2.4-1.5-7.2c-2.4-4.9-4.9-6-4.9-6"/>
				<path class="st7" d="M96.2,140c0,0,1-2.7-1.2-7.6c-2.4-4.9-5.2-5.6-5.2-5.6"/>
				<path class="st7" d="M92.2,141.7c0,0,0.9-2.5-1.4-7.4c-2.4-4.9-5-5.7-5-5.7"/>
				<path class="st7" d="M101.5,137.4c0,0,1.1-2.8-1.3-7.8c-2.4-5.1-5.4-5.8-5.4-5.8"/>
				<path class="st7" d="M75.4,150c0,0-0.6-4.2-1.9-7.2s-4.4-5.7-4.4-5.7"/>
				<path class="st7" d="M77.3,149.1c0,0-0.2-3.9-1.8-7c-1.6-3.3-4.7-5.7-4.7-5.7"/>
			</g>
			<path class="st5" d="M115.4,123.8l-8.2,4c0.8,2.1,0.8,3.7,0.5,4.8c-0.6,2.3-2.4,3-2.4,3l-3.2,1.7l-0.4-0.2
				c-0.2,0.1-0.4,0.4-0.4,0.4l-4.6,2.5l-0.6-0.1l-0.6,0.7l-2.6,1.3c-0.1,0.1-0.5-0.2-0.5-0.2s-0.2,0.6-0.4,0.7
				c-0.5,0.3-2.4,1.4-2.4,1.4l-0.8-0.2c0,0.1-0.6,0.7-0.8,0.7s-2.3,1.2-2.4,1.3c-0.1,0.1-0.7-0.3-0.7-0.1c0,0.1-0.5,0.7-0.5,0.7
				l-2.9,1.7c0,0-1.9,0.9-3,1.2c-1.2,0.2-1,0-1,0l-1.6,0.7l-0.6,0.5c0,0-0.4,0.9-2.3,2.1c-1.8,1.2-4.6,1.5-6.2,1.5c-2,0-8-0.4-8-0.4
				l-1.1,0.5c0,0,0.1,0.8-0.1,0.9c-0.2,0.1-0.7-0.3-0.7-0.3l-0.6,0.2l-2.6,1.5c0,0-0.5-0.6-1.7-2.8c-0.9-1.9-0.8-2.1-0.8-2.1l1-0.5
				c0,0,1.5-0.6,1.9-0.9c0.2-0.1,0-0.8,0.2-1.1c0.2-0.1,0.5,0.3,0.6,0.3c0.2,0,0.4-0.2,0.4-0.2l0.8-0.5c0,0,2.9-5,5.6-7.8
				c2.6-2.7,6-3.4,6-3.4l1.2-0.1l1.9-0.9l1.2-1.3c0,0,4.5-2.4,5.5-2.6c0.1,0,0.4,0.1,0.6,0c0.2-0.1,0.1-0.4,0.2-0.5
				c0.6-0.4,2.5-1.3,3-1.5c0.1-0.1,0.8,0.1,0.8,0.1l0,0c-0.1-0.1-0.1-0.4,0-0.5l0.1-0.1c0,0,2.2-1.2,2.7-1.4c0.1,0,0.6,0,0.6,0
				s0-0.4,0.1-0.5c0.9-0.4,2.5-1.2,2.9-1.3c0.1,0,0.6,0,0.6,0s0-0.3,0.1-0.4c0.7-0.5,3.9-2.1,4.8-2.5c0.1,0,0.3,0.1,0.4,0.1
				c0.1,0,0.1-0.4,0.3-0.5c0.4-0.3,2.5-1.3,3.3-1.4c0.9-0.2,4.2-0.2,7.2,2.6l5.7-2.9l-11.4-6.2l-70.8,35.7l30.7,15.5l71.1-35.5
				L115.4,123.8z"/>
			<line class="st16" x1="64.6" y1="160.3" x2="117.8" y2="134"/>
			<line class="st16" x1="42.7" y1="147.8" x2="95.5" y2="120.7"/>
			<g>
				<polygon class="st10" points="101,119.9 102.3,118.9 101.2,117.9 99,117.7 97.8,118.5 98.8,119.7 				"/>
				<path class="st17" d="M100.8,119.4l0.3-0.2c0.2-0.2,0.2-0.4,0.1-0.6l-0.2-0.2c-0.1-0.1-0.1-0.1-0.3-0.1l-1.3-0.1
					c-0.1,0-0.2,0-0.3,0.1l-0.3,0.2c-0.2,0.1-0.2,0.4-0.1,0.6l0.2,0.2c0.1,0.1,0.1,0.1,0.3,0.1l1.3,0.1
					C100.6,119.5,100.7,119.5,100.8,119.4z"/>
			</g>
			<g>
				<polygon class="st10" points="123.1,131.3 124.3,130.4 123.2,129.2 120.9,129 119.6,130 120.6,131 				"/>
				<path class="st17" d="M122.7,130.8l0.3-0.2c0.2-0.1,0.2-0.5,0.1-0.6l-0.2-0.3c-0.1-0.1-0.1-0.1-0.3-0.1l-1.3-0.1
					c-0.1,0-0.2,0-0.3,0.1l-0.3,0.2c-0.2,0.2-0.2,0.5-0.1,0.6l0.2,0.3c0.1,0.1,0.2,0.1,0.3,0.1l1.3,0.1
					C122.5,130.9,122.6,130.9,122.7,130.8z"/>
			</g>
			<g>
				<polygon class="st10" points="60,162.3 61.2,161.4 60.2,160.3 57.9,160.1 56.6,160.9 57.6,162.1 				"/>
				<path class="st17" d="M59.7,161.9l0.3-0.2c0.2-0.2,0.2-0.5,0.1-0.6l-0.2-0.3c-0.1-0.1-0.2-0.1-0.3-0.1l-1.3-0.1
					c-0.1,0-0.2,0-0.3,0.1l-0.3,0.2c-0.2,0.1-0.2,0.5-0.1,0.6l0.2,0.3c0.1,0.1,0.2,0.1,0.3,0.1l1.3,0.1
					C59.5,162,59.6,161.9,59.7,161.9z"/>
			</g>
			<g>
				<polygon class="st10" points="42.5,152.9 43.8,152 42.7,150.9 40.3,150.7 39.1,151.6 40.2,152.6 				"/>
				<path class="st17" d="M42.3,152.4l0.3-0.2c0.2-0.1,0.2-0.5,0.1-0.6l-0.2-0.3c-0.1-0.1-0.2-0.1-0.3-0.1l-1.3-0.1
					c-0.1,0-0.2,0-0.3,0.1l-0.3,0.2c-0.2,0.2-0.2,0.5-0.1,0.6l0.2,0.3c0.1,0.1,0.2,0.1,0.3,0.1l1.3,0.1
					C42.1,152.5,42.2,152.5,42.3,152.4z"/>
			</g>
			<g>
				<path class="st11" d="M109.2,114.1l7.7,3.9c0,0,0.4-1.1,2.8,0c2.4,0.9,2.5,2.6,2.5,2.6l14.3,7.1l-0.6-73.7l-26.8-14.8
					L109.2,114.1z"/>
				<path class="st17" d="M112.8,109.3c0,0,1.1,1,1.9,2c0.8,0.9,1.7,1.4,1.7,1.4s2.8,0.1,4,0.6c1.2,0.5,1.9,1.2,2,1.6
					c0,0.2,0.8,0.1,0.8,0.1s4,0,6.2-1.9c0.1-0.1,0.2-0.2,0.2-0.3c0,0-2.4-2.8-4.6-4c-1.2-0.6-5.6-1.6-7.5-1.8
					C115.3,106.7,112.8,109.3,112.8,109.3z"/>
				<path class="st5" d="M136.9,128.1l0.1-75.5l-31.1-16l-0.1,75.9l11.9,6l0.1-5.9c-2.8-1-4.4-3.3-4.6-4.2c-0.2-0.7-0.3-3-0.2-3.6
					c0-0.1,0.3-0.4,0.3-0.4c0-0.1-0.3-0.2-0.3-0.3c-0.1-0.9-0.1-4.6,0.1-5.5c0-0.1,0.3-0.2,0.3-0.2s-0.2-0.4-0.2-0.5
					c-0.1-0.4-0.1-2.2-0.1-3.2c0-0.1,0.4-0.3,0.4-0.3s-0.2-0.4-0.3-0.6c-0.1-0.5,0-2.9,0-2.9c0-0.1,0-0.1,0-0.2
					c0.1-0.2,0.3-0.3,0.5-0.2l0,0c0,0-0.5-0.5-0.5-0.7c-0.1-0.6-0.1-2.7-0.1-3.5c0-0.1,0.3-0.2,0.3-0.4c0-0.2-0.2-0.4-0.3-0.5
					c-0.3-0.9-0.1-6.1-0.1-6.1l0.8-1.2v-1.6l-0.6-1.8c0,0-0.9-3.6,0.3-7.1c1.3-3.6,4.4-7.4,4.4-7.4l0.1-0.9c0,0,0.1-0.3,0-0.4
					c-0.1-0.1-0.6-0.2-0.6-0.4c0-0.3,0.7-0.4,0.8-0.6c0.1-0.5,0-2.1,0-2.1l0.2-1.5c0,0,3.8,0,5.7,1.9l-0.1,3.7v0.3
					c0,0,0.3,0.4,0.3,0.6c0,0.2-0.6,0.3-0.6,0.3v0.4c0,0,2.5,4.5,3.4,6.3c0.7,1.5,2.2,4.9,2,7.1c-0.2,2.1-0.8,2.6-0.8,2.6l-0.2,1.7
					l0.3,1.4c0,0,0.2,0.4,0.5,1.5c0.3,1.1,0.3,3.2,0.3,3.2l-0.1,2.9c0,0-0.3,1.1-0.4,1.2c-0.1,0.1,0.4,0.4,0.4,0.6
					c0,0.2-0.1,2.6,0,2.8s-0.1,0.9-0.2,0.9l0.4,0.7c0,0-0.1,2.2-0.1,2.8c0,0.2-0.5,0.5-0.5,0.5s0.5,0.3,0.5,0.4v2.9l-0.3,0.8
					l0.3,0.3L129,107l0.1,0.5c0,0-0.2,0.6-0.2,0.7l0.3,0.3l-0.4,4.3c0,0-0.8,3-6.5,1.5l-0.1,6.4L136.9,128.1z"/>
				<line class="st16" x1="109.3" y1="105.3" x2="109.7" y2="50.4"/>
				<line class="st16" x1="132.7" y1="114.3" x2="132.7" y2="60.9"/>
				<polygon class="st18" points="137,52.4 136.9,128.1 146.8,123.2 146.9,47.4 				"/>
				<polygon class="st11" points="105.9,36.6 137,52.5 147.1,47.4 115.9,31.6 				"/>
				<g>
					<g>
						<polygon class="st10" points="108,42.1 109.3,43 110.1,45 109.7,46.1 108.5,45.1 107.6,43 						"/>
						<polygon class="st10" points="109.7,46.1 110.7,45.7 111.2,44.6 110.4,42.6 109.1,41.7 108,42 109.3,43 110.1,45 						"/>
					</g>
					<g>
						<path class="st17" d="M108.5,45.3l0.6-0.3c0,0,0.3-0.3,0-1c-0.3-0.8-0.8-0.8-0.8-0.8l-0.6,0.3L108.5,45.3z"/>
						<path class="st17" d="M107.6,43.4c0.2-0.1,0.6,0.2,0.8,0.7c0.2,0.5,0.2,1,0,1.2c-0.2,0.1-0.6-0.2-0.8-0.7
							C107.4,44.1,107.4,43.6,107.6,43.4z"/>
						<path class="st17" d="M108.5,45.3c0,0-0.8,0.4-1.4-0.6c-0.4-0.9,0.4-1.3,0.4-1.3"/>
					</g>
				</g>
				<g>
					<g>
						<polygon class="st10" points="130.8,53.2 132.1,54.3 132.9,56.3 132.5,57.2 131.1,56.3 130.3,54.3 						"/>
						<polygon class="st10" points="132.5,57.3 133.5,56.8 133.9,55.8 133,53.8 131.8,52.8 130.8,53.2 132.1,54.3 132.9,56.3 						
							"/>
					</g>
					<g>
						<path class="st17" d="M131.1,56.6l0.6-0.3c0,0,0.3-0.3,0-1c-0.3-0.8-0.8-0.8-0.8-0.8l-0.6,0.3L131.1,56.6z"/>
						<path class="st17" d="M130.3,54.7c0.2-0.1,0.6,0.2,0.8,0.7c0.2,0.5,0.2,1,0,1.2c-0.2,0.1-0.6-0.2-0.8-0.7
							C130.1,55.3,130.1,54.8,130.3,54.7z"/>
						<path class="st17" d="M131.1,56.6c0,0-0.8,0.4-1.4-0.6c-0.4-0.9,0.4-1.3,0.4-1.3"/>
					</g>
				</g>
				<g>
					<g>
						<polygon class="st10" points="131.5,120 132.8,120.9 133.7,122.9 133.2,123.9 131.9,122.9 131,120.9 						"/>
						<polygon class="st10" points="133.2,124 134.2,123.5 134.6,122.5 133.8,120.5 132.5,119.5 131.6,119.9 132.8,120.9 
							133.7,122.9 						"/>
					</g>
					<g>
						<path class="st17" d="M131.9,123.2l0.6-0.3c0,0,0.3-0.3,0-1.1c-0.3-0.8-0.8-0.8-0.8-0.8l-0.6,0.3L131.9,123.2z"/>
						<path class="st17" d="M131,121.4c0.2-0.1,0.6,0.2,0.8,0.7c0.2,0.5,0.2,1,0,1.2c-0.2,0.1-0.6-0.2-0.8-0.7
							C130.8,122,130.8,121.5,131,121.4z"/>
						<path class="st17" d="M131.9,123.2c0,0-0.8,0.4-1.4-0.6c-0.4-0.9,0.4-1.3,0.4-1.3"/>
					</g>
				</g>
				<g>
					<g>
						<polygon class="st10" points="108.6,109.8 109.8,110.8 110.7,112.9 110.2,113.8 108.9,112.9 108.2,110.9 						"/>
						<polygon class="st10" points="110.2,113.8 111.2,113.4 111.6,112.3 110.8,110.3 109.5,109.4 108.6,109.8 109.8,110.9 
							110.7,112.9 						"/>
					</g>
					<g>
						<path class="st17" d="M108.9,113.2l0.6-0.3c0,0,0.3-0.3,0-1.1c-0.3-0.8-0.8-0.8-0.8-0.8l-0.6,0.3L108.9,113.2z"/>
						<path class="st17" d="M108,111.3c0.2-0.1,0.6,0.2,0.8,0.7c0.2,0.5,0.2,1.1,0,1.2s-0.6-0.2-0.8-0.7
							C107.8,111.8,107.8,111.3,108,111.3z"/>
						<path class="st17" d="M109,113.1c0,0-0.8,0.4-1.4-0.6c-0.4-0.9,0.4-1.3,0.4-1.3"/>
					</g>
				</g>
			</g>
		</g>
	</g>
	<line class="st19" x1="59.3" y1="202.6" x2="59.3" y2="212"/>
</g>
</svg>
