<?xml version="1.0" encoding="utf-8"?>
<!-- Generator: Adobe Illustrator 25.2.3, SVG Export Plug-In . SVG Version: 6.00 Build 0)  -->
<svg version="1.1" id="Layer_1" xmlns="http://www.w3.org/2000/svg" xmlns:xlink="http://www.w3.org/1999/xlink" x="0px" y="0px"
	 viewBox="0 0 281.8 261.3" style="enable-background:new 0 0 281.8 261.3;" xml:space="preserve">
<style type="text/css">
	.st0{fill:none;stroke:#FFFFFF;stroke-width:0.5;stroke-linejoin:bevel;stroke-miterlimit:10;}
	.st1{fill:#CCB9B9;stroke:#FFFFFF;stroke-width:0.5;stroke-miterlimit:10;}
	.st2{fill:#E4DAD8;stroke:#FFFFFF;stroke-width:0.5;stroke-miterlimit:10;}
	.st3{fill:#CCB9B9;stroke:#FFFFFF;stroke-width:0.5;stroke-linejoin:bevel;stroke-miterlimit:10;}
	.st4{fill:#E4DAD8;stroke:#FFFFFF;stroke-width:0.5;stroke-linejoin:bevel;stroke-miterlimit:10;}
	.st5{fill:none;stroke:#FFFFFF;stroke-width:0.5;stroke-miterlimit:10;}
	.st6{fill:#CCB9B9;}
	.st7{fill:#CCB9B9;stroke:#FFFFFF;stroke-width:0.7908;stroke-miterlimit:10;}
	.st8{fill:#F77441;}
	.st9{fill:#B79797;stroke:#FFFFFF;stroke-width:0.7908;stroke-miterlimit:10;}
	.st10{fill:#361D32;stroke:#FFFFFF;stroke-width:0.2146;stroke-miterlimit:10;}
	.st11{fill:none;stroke:#361D32;stroke-width:0.1397;stroke-miterlimit:10;}
	.st12{fill:#E4DAD8;stroke:#FFFFFF;stroke-width:0.2146;stroke-miterlimit:10;}
	.st13{fill:none;stroke:#FFFFFF;stroke-width:0.8947;stroke-miterlimit:10;}
	.st14{fill:#E4DAD8;stroke:#FFFFFF;stroke-width:0.1542;stroke-miterlimit:9.9998;}
	.st15{fill:#E4DAD8;stroke:#FFFFFF;stroke-width:0.123;stroke-miterlimit:10.0003;}
	.st16{fill:#F77441;stroke:#FFFFFF;stroke-width:0.5;stroke-miterlimit:10;}
	.st17{fill:#361D32;stroke:#FFFFFF;stroke-width:0.25;stroke-miterlimit:10;}
	.st18{fill:#E4DAD8;stroke:#FFFFFF;stroke-width:0.25;stroke-miterlimit:10;}
	.st19{fill:#F77441;stroke:#FFFFFF;stroke-width:0.4307;stroke-miterlimit:10;}
	.st20{fill:#F77441;stroke:#FFFFFF;stroke-width:0.6103;stroke-miterlimit:10;}
	.st21{fill:none;stroke:#FFFFFF;stroke-width:0.6151;stroke-miterlimit:10;}
</style>
<g>
	<g>
		<line class="st0" x1="95.9" y1="238.1" x2="95.8" y2="253.4"/>
		<polygon class="st1" points="16.8,193 96.6,233.4 231.9,165.3 232.2,149.6 156.8,115.1 16.9,185.6 		"/>
		<polygon class="st1" points="16.9,194.2 17.1,179 96.7,218 96.4,233.4 		"/>
		<polygon class="st1" points="0.1,198 0.1,210.7 97,259.7 260.6,177.3 260.3,164.3 96.9,245.6 		"/>
		<path class="st2" d="M17.2,178.9c0,0,79.4,39.1,79.5,39l135.2-68.3L152,111L17.2,178.9z"/>
		<polygon class="st2" points="96.3,245.6 260.7,164.3 163.5,117.1 0.4,197 		"/>
		<polygon class="st1" points="16.8,193 96.3,234 234.6,163.7 234.9,148 156.8,115.1 16.9,185.6 		"/>
		<polygon class="st3" points="16.9,194.2 17.1,179 96.3,218.9 96.2,234.2 		"/>
		<polygon class="st3" points="0.6,197.1 0.5,212.4 96.3,260.5 261.1,176.9 260.9,163.9 96.3,245.6 		"/>
		<path class="st4" d="M17.2,178.9l78.9,39.9l139.4-71.2L155.6,109L17.2,178.9z"/>
		<line class="st5" x1="96.3" y1="246" x2="96.3" y2="260.3"/>
	</g>
	<g>
		<path class="st6" d="M153.2,78.1c0,0-0.6,1.9,0.6,1.5c1.3-0.4,3.5-1.6,2-1.7C154.3,77.7,153.2,78.1,153.2,78.1"/>
		<path class="st6" d="M156,72.4c0,0-0.6,1.9,0.7,1.5s3.5-1.7,1.9-1.8S156,72.4,156,72.4"/>
		<path class="st6" d="M153.7,74.8c0,0-0.5,1.9,0.8,1.5c1.2-0.5,3.4-1.9,1.8-1.9C154.7,74.4,153.7,74.8,153.7,74.8"/>
		<path class="st6" d="M158.2,77.2c0,0-0.6,1.9,0.7,1.5s3.5-1.7,1.9-1.8C159.2,76.8,158.2,77.2,158.2,77.2"/>
		<path class="st6" d="M160.6,74.2c0,0-0.5,1.9,0.7,1.5c1.3-0.4,3.5-1.8,1.9-1.8C161.6,73.8,160.6,74.2,160.6,74.2"/>
		<path class="st6" d="M159,81.8c0,0-0.5,1.9,0.8,1.5c1.2-0.5,3.4-1.9,1.8-1.9C160,81.4,159,81.8,159,81.8"/>
		<path class="st6" d="M161.9,70.6c0,0-0.7,1.9,0.6,1.5c1.3-0.3,3.6-1.5,2-1.7C162.9,70.3,161.9,70.6,161.9,70.6"/>
		<path class="st6" d="M165,76.3c0,0-0.5,1.9,0.8,1.5c1.2-0.5,3.4-1.9,1.8-1.9C166,75.9,165,76.3,165,76.3"/>
		<path class="st6" d="M166.7,70.6c0,0-0.5,1.9,0.7,1.5c1.3-0.4,3.5-1.8,1.9-1.8C167.7,70.2,166.7,70.6,166.7,70.6"/>
		<path class="st6" d="M176.7,77.1c0,0,0,2,1.1,1.3c1.1-0.8,2.9-2.7,1.3-2.3C177.6,76.4,176.7,77.1,176.7,77.1"/>
		<path class="st6" d="M173.4,74.4c0,0-0.5,1.9,0.8,1.5c1.2-0.5,3.4-1.9,1.8-1.9C174.4,74,173.4,74.4,173.4,74.4"/>
		<path class="st6" d="M172,70.1c0,0-0.7,1.9,0.6,1.6s3.6-1.4,2-1.6C173.1,69.8,172,70.1,172,70.1"/>
		<path class="st6" d="M170.2,65.5c0,0-0.7,1.9,0.6,1.5c1.3-0.3,3.6-1.4,2-1.6C171.2,65.2,170.2,65.5,170.2,65.5"/>
		<path class="st6" d="M175.5,67.8c0,0-0.5,1.9,0.8,1.5c1.2-0.5,3.4-1.9,1.8-1.9C176.5,67.4,175.5,67.8,175.5,67.8"/>
		<path class="st6" d="M176,82.9c0,0,0.2,2.1,1.3,1.2c1.1-0.9,2.7-3.1,1.1-2.5C176.9,82.1,176,82.9,176,82.9"/>
		<path class="st6" d="M168.6,74.7c0,0-0.5,1.9,0.8,1.5c1.2-0.5,3.4-1.9,1.8-1.9C169.6,74.3,168.6,74.7,168.6,74.7"/>
		<path class="st6" d="M169.6,79.7c0,0-0.5,1.9,0.8,1.5c1.2-0.5,3.4-1.9,1.8-1.9C170.6,79.3,169.6,79.7,169.6,79.7"/>
		<path class="st6" d="M164.3,85.7c0,0-0.9,1.8,0.4,1.6c1.3-0.2,3.7-1.1,2.2-1.5C165.4,85.5,164.3,85.7,164.3,85.7"/>
		<path class="st6" d="M170.5,88.7c0,0-0.4,2,0.8,1.5s3.4-2,1.8-2C171.5,88.2,170.5,88.7,170.5,88.7"/>
		<path class="st6" d="M165.4,97c0,0-0.1,2.8,1.5,1.8s4.2-3.6,2-3.2C166.7,96.1,165.4,97,165.4,97"/>
		<path class="st6" d="M161.5,92.8c0,0-0.5,2,0.8,1.5s3.5-2,1.8-2C162.5,92.3,161.5,92.8,161.5,92.8"/>
		<path class="st6" d="M158.2,92.5c0,0-0.8,1.8,0.5,1.6c1.3-0.2,3.7-1.2,2.1-1.5C159.3,92.2,158.2,92.5,158.2,92.5"/>
		<path class="st6" d="M151.3,93.8c0,0-0.5,1.9,0.8,1.5c1.2-0.5,3.4-1.9,1.8-1.9C152.3,93.4,151.3,93.8,151.3,93.8"/>
		<path class="st6" d="M161.7,101.4c0,0-0.1,3,1.6,1.9c1.7-1.1,4.5-3.8,2.1-3.3C163.1,100.5,161.7,101.4,161.7,101.4"/>
		<path class="st6" d="M159.8,102.9c1.1-1.3,2.7-4.1,0.9-3.2c-1.8,0.9-2.7,2-2.7,2"/>
		<path class="st6" d="M171.9,94.3c0,0-1.4,1.5,0,1.7c1.4,0.2,4,0,2.6-0.8C173,94.5,171.9,94.3,171.9,94.3"/>
		<path class="st6" d="M168.5,99.7c0,0-0.8,2.2,0.7,1.8s4.2-1.8,2.4-2C169.7,99.3,168.5,99.7,168.5,99.7"/>
		<path class="st6" d="M150.8,89.3c0,0-0.5,1.9,0.8,1.5c1.2-0.5,3.4-1.9,1.8-1.9C151.8,88.8,150.8,89.3,150.8,89.3"/>
		<path class="st6" d="M146.4,86.5c0,0-0.8,1.8,0.5,1.6c1.3-0.2,3.7-1.3,2.1-1.5C147.4,86.2,146.4,86.5,146.4,86.5"/>
		<path class="st6" d="M182,62.2c0,0-2.4-0.9-0.9-1.6s4.7-1.5,3.4-0.2S182,62.2,182,62.2"/>
	</g>
	<g>
		<path class="st6" d="M116.8,96.2c0,0-0.6,1.9,0.6,1.5c1.3-0.4,3.5-1.6,2-1.7C117.8,95.9,116.8,96.2,116.8,96.2"/>
		<path class="st6" d="M119.6,90.5c0,0-0.6,1.9,0.7,1.5c1.3-0.4,3.5-1.7,1.9-1.8S119.6,90.5,119.6,90.5"/>
		<path class="st6" d="M117.3,92.9c0,0-0.5,1.9,0.8,1.5c1.2-0.5,3.4-1.9,1.8-1.9C118.3,92.5,117.3,92.9,117.3,92.9"/>
		<path class="st6" d="M121.8,95.3c0,0-0.6,1.9,0.7,1.5c1.3-0.4,3.5-1.7,1.9-1.8C122.8,94.9,121.8,95.3,121.8,95.3"/>
		<path class="st6" d="M124.1,92.3c0,0-0.5,1.9,0.7,1.5c1.3-0.4,3.5-1.8,1.9-1.8C125.1,91.9,124.1,92.3,124.1,92.3"/>
		<path class="st6" d="M122.5,99.9c0,0-0.5,1.9,0.8,1.5c1.2-0.5,3.4-1.9,1.8-1.9C123.5,99.5,122.5,99.9,122.5,99.9"/>
		<path class="st6" d="M125.4,88.7c0,0-0.7,1.9,0.6,1.5c1.3-0.3,3.6-1.5,2-1.7C126.4,88.4,125.4,88.7,125.4,88.7"/>
		<path class="st6" d="M128.5,94.4c0,0-0.5,1.9,0.8,1.5c1.2-0.5,3.4-1.9,1.8-1.9C129.5,94,128.5,94.4,128.5,94.4"/>
		<path class="st6" d="M130.2,88.7c0,0-0.5,1.9,0.7,1.5c1.3-0.4,3.5-1.8,1.9-1.8C131.2,88.3,130.2,88.7,130.2,88.7"/>
		<path class="st6" d="M140.3,95.2c0,0,0,2,1.1,1.3c1.1-0.8,2.9-2.7,1.3-2.3C141.1,94.5,140.3,95.2,140.3,95.2"/>
		<path class="st6" d="M136.9,92.6c0,0-0.5,1.9,0.8,1.5c1.2-0.5,3.4-1.9,1.8-1.9C137.9,92.1,136.9,92.6,136.9,92.6"/>
		<path class="st6" d="M135.5,88.2c0,0-0.7,1.9,0.6,1.6s3.6-1.4,2-1.6C136.6,87.9,135.5,88.2,135.5,88.2"/>
		<path class="st6" d="M133.7,83.6c0,0-0.7,1.9,0.6,1.5c1.3-0.3,3.6-1.4,2-1.6C134.8,83.3,133.7,83.6,133.7,83.6"/>
		<path class="st6" d="M139.1,86c0,0-0.5,1.9,0.8,1.5c1.2-0.5,3.4-1.9,1.8-1.9C140,85.5,139.1,86,139.1,86"/>
		<path class="st6" d="M132.1,92.8c0,0-0.5,1.9,0.8,1.5c1.2-0.5,3.4-1.9,1.8-1.9C133.1,92.4,132.1,92.8,132.1,92.8"/>
		<path class="st6" d="M133.1,97.9c0,0-0.5,1.9,0.8,1.5c1.2-0.5,3.4-1.9,1.8-1.9C134.1,97.4,133.1,97.9,133.1,97.9"/>
		<path class="st6" d="M127.9,103.8c0,0-0.9,1.8,0.4,1.6c1.3-0.2,3.7-1.1,2.2-1.5C128.9,103.6,127.9,103.8,127.9,103.8"/>
		<path class="st6" d="M134,106.8c0,0-0.4,2,0.8,1.5c1.3-0.5,3.4-2,1.8-2C135.1,106.3,134,106.8,134,106.8"/>
		<path class="st6" d="M129,115.1c0,0-0.1,2.8,1.5,1.8s4.2-3.6,2-3.2C130.2,114.2,129,115.1,129,115.1"/>
		<path class="st6" d="M125,110.9c0,0-0.5,2,0.8,1.5s3.5-2,1.8-2C126,110.5,125,110.9,125,110.9"/>
		<path class="st6" d="M121.7,110.6c0,0-0.8,1.8,0.5,1.6s3.7-1.2,2.1-1.5C122.8,110.4,121.7,110.6,121.7,110.6"/>
		<path class="st6" d="M114.8,111.9c0,0-0.5,1.9,0.8,1.5c1.2-0.5,3.4-1.9,1.8-1.9C115.8,111.5,114.8,111.9,114.8,111.9"/>
		<path class="st6" d="M123.3,121.1c1.1-1.3,2.7-4.1,0.9-3.2c-1.8,0.9-2.7,2-2.7,2"/>
		<path class="st6" d="M135.4,112.5c0,0-1.4,1.5,0,1.7s4,0,2.6-0.8C136.5,112.6,135.4,112.5,135.4,112.5"/>
		<path class="st6" d="M114.3,107.4c0,0-0.5,1.9,0.8,1.5c1.2-0.5,3.4-1.9,1.8-1.9C115.3,107,114.3,107.4,114.3,107.4"/>
		<path class="st6" d="M109.9,104.6c0,0-0.8,1.8,0.5,1.6c1.3-0.2,3.7-1.3,2.1-1.5C111,104.3,109.9,104.6,109.9,104.6"/>
		<path class="st6" d="M145.5,80.3c0,0-2.4-0.9-0.9-1.6s4.7-1.5,3.4-0.2C146.7,79.8,145.5,80.3,145.5,80.3"/>
	</g>
	<g>
		<path class="st7" d="M275.3,72.7c4.4,3.4,7.1,13,1.5,23.5s-14.1,13.3-17.6,12.1c-3.5-1.1-66.6-33.2-66.6-33.2l16.9-35.4
			C209.4,39.8,270.9,69.4,275.3,72.7z"/>
		<path class="st8" d="M259.8,64.2c2.3,1.4,4.9,13-0.7,23s-12.5,14.5-16,13.4s-31.3-16.1-31.3-16.1s9-1.1,15.6-12.6
			s3.1-21.8,3.1-21.8S257.5,62.9,259.8,64.2"/>
		<path class="st6" d="M211.4,64.4c-6,9-15.7,13.1-21.6,9.1c-5.9-4-5.8-14.5,0.2-23.5s15.7-13.1,21.6-9.1
			C217.6,44.9,217.5,55.4,211.4,64.4"/>
		<path class="st9" d="M211.4,64.4c-6,9-15.7,13.1-21.6,9.1c-5.9-4-5.8-14.5,0.2-23.5s15.7-13.1,21.6-9.1
			C217.6,44.9,217.5,55.4,211.4,64.4z"/>
		<path class="st6" d="M198.1,55.4c-2.6,3.9-6.9,5.7-9.5,4s-2.5-6.3,0.1-10.3c2.6-3.9,6.9-5.7,9.5-4
			C200.8,46.9,200.7,51.5,198.1,55.4"/>
		<path class="st10" d="M198.1,55.4c-2.6,3.9-6.9,5.7-9.5,4s-2.5-6.3,0.1-10.3c2.6-3.9,6.9-5.7,9.5-4
			C200.8,46.9,200.7,51.5,198.1,55.4z"/>
		<path class="st6" d="M194.3,53c-1,1.4-2.5,2.1-3.4,1.4c-0.9-0.6-0.9-2.3,0-3.7c1-1.4,2.5-2.1,3.4-1.4
			C195.2,49.9,195.2,51.6,194.3,53"/>
		<path class="st11" d="M194.3,53c-1,1.4-2.5,2.1-3.4,1.4c-0.9-0.6-0.9-2.3,0-3.7c1-1.4,2.5-2.1,3.4-1.4
			C195.2,49.9,195.2,51.6,194.3,53z"/>
		<path class="st10" d="M198.2,45.1c3.6,2.6,6.3,1.7,6.3,1.7c3.4-1.4,5.4,2.3,5.9,4.3s-0.4,8.4-4.6,12.7c-4.2,4.3-8.3,6.3-11.7,3.2
			c-0.5-4.9-4.6-7.2-4.6-7.2s3.8,1.8,8.5-4.2C202.6,49.6,198.2,45.1,198.2,45.1"/>
		<path class="st6" d="M191.2,51.5c-1,1.4-2.5,2.1-3.4,1.4c-0.9-0.6-0.9-2.3,0-3.7c1-1.4,2.5-2.1,3.4-1.4
			C192.2,48.4,192.2,50.1,191.2,51.5"/>
		<path class="st12" d="M191.2,51.5c-1,1.4-2.5,2.1-3.4,1.4c-0.9-0.6-0.9-2.3,0-3.7c1-1.4,2.5-2.1,3.4-1.4
			C192.2,48.4,192.2,50.1,191.2,51.5z"/>
		<path class="st12" d="M191.4,47.9l2.9,1.4c0,0,1.5,1.4,0.2,3.4c-1.4,2-3,2-3,2l-3.4-1.7c0,0,2.3,0.2,3.4-2
			C192.5,48.8,191.4,47.9,191.4,47.9z"/>
		<path class="st13" d="M231.5,89.8c-0.1-4.3-0.1-8.6-0.2-12.9c2.8,2.6,5.6,5.2,8.6,7.6c0.2-3.2-0.9-6.6-3-9
			c0.3,0.3,0.9,0.2,1.1-0.2c0.3-0.3,0.3-0.8,0.3-1.3c0.2-3.2-0.2-6.3-1-9.4c0.5,0.5,1.2,0.7,1.8,0.4c0-0.5,0.1-0.9,0.1-1.4
			c1.7,0.2,3.4-0.7,4.4-2.1"/>
		<rect x="187.8" y="53.5" transform="matrix(0.46 -0.8879 0.8879 0.46 53.7498 196.6809)" class="st14" width="1.6" height="1.2"/>
		
			<ellipse transform="matrix(0.4295 -0.9031 0.9031 0.4295 57.8208 201.3533)" class="st15" cx="188.3" cy="54.9" rx="0.2" ry="0.6"/>
	</g>
	<g>
		<path class="st6" d="M153.2,78.1c0,0-0.6,1.9,0.6,1.5c1.3-0.4,3.5-1.6,2-1.7C154.3,77.7,153.2,78.1,153.2,78.1"/>
		<path class="st6" d="M156,72.4c0,0-0.6,1.9,0.7,1.5s3.5-1.7,1.9-1.8S156,72.4,156,72.4"/>
		<path class="st6" d="M153.7,74.8c0,0-0.5,1.9,0.8,1.5c1.2-0.5,3.4-1.9,1.8-1.9C154.7,74.4,153.7,74.8,153.7,74.8"/>
		<path class="st6" d="M158.2,77.2c0,0-0.6,1.9,0.7,1.5s3.5-1.7,1.9-1.8C159.2,76.8,158.2,77.2,158.2,77.2"/>
		<path class="st6" d="M160.6,74.2c0,0-0.5,1.9,0.7,1.5c1.3-0.4,3.5-1.8,1.9-1.8C161.6,73.8,160.6,74.2,160.6,74.2"/>
		<path class="st6" d="M159,81.8c0,0-0.5,1.9,0.8,1.5c1.2-0.5,3.4-1.9,1.8-1.9C160,81.4,159,81.8,159,81.8"/>
		<path class="st6" d="M161.9,70.6c0,0-0.7,1.9,0.6,1.5c1.3-0.3,3.6-1.5,2-1.7C162.9,70.3,161.9,70.6,161.9,70.6"/>
		<path class="st6" d="M165,76.3c0,0-0.5,1.9,0.8,1.5c1.2-0.5,3.4-1.9,1.8-1.9C166,75.9,165,76.3,165,76.3"/>
		<path class="st6" d="M166.7,70.6c0,0-0.5,1.9,0.7,1.5c1.3-0.4,3.5-1.8,1.9-1.8C167.7,70.2,166.7,70.6,166.7,70.6"/>
		<path class="st6" d="M176.7,77.1c0,0,0,2,1.1,1.3c1.1-0.8,2.9-2.7,1.3-2.3C177.6,76.4,176.7,77.1,176.7,77.1"/>
		<path class="st6" d="M173.4,74.4c0,0-0.5,1.9,0.8,1.5c1.2-0.5,3.4-1.9,1.8-1.9C174.4,74,173.4,74.4,173.4,74.4"/>
		<path class="st6" d="M172,70.1c0,0-0.7,1.9,0.6,1.6s3.6-1.4,2-1.6C173.1,69.8,172,70.1,172,70.1"/>
		<path class="st6" d="M170.2,65.5c0,0-0.7,1.9,0.6,1.5c1.3-0.3,3.6-1.4,2-1.6C171.2,65.2,170.2,65.5,170.2,65.5"/>
		<path class="st6" d="M175.5,67.8c0,0-0.5,1.9,0.8,1.5c1.2-0.5,3.4-1.9,1.8-1.9C176.5,67.4,175.5,67.8,175.5,67.8"/>
		<path class="st6" d="M176,82.9c0,0,0.2,2.1,1.3,1.2c1.1-0.9,2.7-3.1,1.1-2.5C176.9,82.1,176,82.9,176,82.9"/>
		<path class="st6" d="M168.6,74.7c0,0-0.5,1.9,0.8,1.5c1.2-0.5,3.4-1.9,1.8-1.9C169.6,74.3,168.6,74.7,168.6,74.7"/>
		<path class="st6" d="M169.6,79.7c0,0-0.5,1.9,0.8,1.5c1.2-0.5,3.4-1.9,1.8-1.9C170.6,79.3,169.6,79.7,169.6,79.7"/>
		<path class="st6" d="M164.3,85.7c0,0-0.9,1.8,0.4,1.6c1.3-0.2,3.7-1.1,2.2-1.5C165.4,85.5,164.3,85.7,164.3,85.7"/>
		<path class="st6" d="M170.5,88.7c0,0-0.4,2,0.8,1.5s3.4-2,1.8-2C171.5,88.2,170.5,88.7,170.5,88.7"/>
		<path class="st6" d="M165.4,97c0,0-0.1,2.8,1.5,1.8s4.2-3.6,2-3.2C166.7,96.1,165.4,97,165.4,97"/>
		<path class="st6" d="M161.5,92.8c0,0-0.5,2,0.8,1.5s3.5-2,1.8-2C162.5,92.3,161.5,92.8,161.5,92.8"/>
		<path class="st6" d="M158.2,92.5c0,0-0.8,1.8,0.5,1.6c1.3-0.2,3.7-1.2,2.1-1.5C159.3,92.2,158.2,92.5,158.2,92.5"/>
		<path class="st6" d="M151.3,93.8c0,0-0.5,1.9,0.8,1.5c1.2-0.5,3.4-1.9,1.8-1.9C152.3,93.4,151.3,93.8,151.3,93.8"/>
		<path class="st6" d="M161.7,101.4c0,0-0.1,3,1.6,1.9c1.7-1.1,4.5-3.8,2.1-3.3C163.1,100.5,161.7,101.4,161.7,101.4"/>
		<path class="st6" d="M159.8,102.9c1.1-1.3,2.7-4.1,0.9-3.2c-1.8,0.9-2.7,2-2.7,2"/>
		<path class="st6" d="M171.9,94.3c0,0-1.4,1.5,0,1.7c1.4,0.2,4,0,2.6-0.8C173,94.5,171.9,94.3,171.9,94.3"/>
		<path class="st6" d="M168.5,99.7c0,0-0.8,2.2,0.7,1.8s4.2-1.8,2.4-2C169.7,99.3,168.5,99.7,168.5,99.7"/>
		<path class="st6" d="M150.8,89.3c0,0-0.5,1.9,0.8,1.5c1.2-0.5,3.4-1.9,1.8-1.9C151.8,88.8,150.8,89.3,150.8,89.3"/>
		<path class="st6" d="M146.4,86.5c0,0-0.8,1.8,0.5,1.6c1.3-0.2,3.7-1.3,2.1-1.5C147.4,86.2,146.4,86.5,146.4,86.5"/>
		<path class="st6" d="M182,62.2c0,0-2.4-0.9-0.9-1.6s4.7-1.5,3.4-0.2S182,62.2,182,62.2"/>
	</g>
	<g>
		<path class="st7" d="M275.3,72.7c4.4,3.4,7.1,13,1.5,23.5s-14.1,13.3-17.6,12.1c-3.5-1.1-66.6-33.2-66.6-33.2l16.9-35.4
			C209.4,39.8,270.9,69.4,275.3,72.7z"/>
		<path class="st16" d="M259.8,64.2c2.3,1.4,4.9,13-0.7,23s-12.5,14.5-16,13.4s-31.3-16.1-31.3-16.1s9-1.1,15.6-12.6
			s3.1-21.8,3.1-21.8S257.5,62.9,259.8,64.2"/>
		<path class="st6" d="M211.4,64.4c-6,9-15.7,13.1-21.6,9.1c-5.9-4-5.8-14.5,0.2-23.5s15.7-13.1,21.6-9.1
			C217.6,44.9,217.5,55.4,211.4,64.4"/>
		<path class="st4" d="M211.4,64.4c-6,9-15.7,13.1-21.6,9.1c-5.9-4-5.8-14.5,0.2-23.5s15.7-13.1,21.6-9.1
			C217.6,44.9,217.5,55.4,211.4,64.4z"/>
		<path class="st6" d="M198.1,55.4c-2.6,3.9-6.9,5.7-9.5,4s-2.5-6.3,0.1-10.3c2.6-3.9,6.9-5.7,9.5-4
			C200.8,46.9,200.7,51.5,198.1,55.4"/>
		<path class="st10" d="M198.1,55.4c-2.6,3.9-6.9,5.7-9.5,4s-2.5-6.3,0.1-10.3c2.6-3.9,6.9-5.7,9.5-4
			C200.8,46.9,200.7,51.5,198.1,55.4z"/>
		<path class="st6" d="M194.3,53c-1,1.4-2.5,2.1-3.4,1.4c-0.9-0.6-0.9-2.3,0-3.7c1-1.4,2.5-2.1,3.4-1.4
			C195.2,49.9,195.2,51.6,194.3,53"/>
		<path class="st11" d="M194.3,53c-1,1.4-2.5,2.1-3.4,1.4c-0.9-0.6-0.9-2.3,0-3.7c1-1.4,2.5-2.1,3.4-1.4
			C195.2,49.9,195.2,51.6,194.3,53z"/>
		<path class="st17" d="M198.2,45.1c3.6,2.6,6.3,1.7,6.3,1.7c3.4-1.4,5.4,1.6,6,4.2c0.6,2.7-0.5,8.5-4.7,12.8
			c-2.8,2.9-5.3,4.9-7.8,5c-0.4,0-1.9-0.2-2.9-0.7s-1.2-1.1-1.2-1.2c-0.7-4.6-4.4-7.1-4.4-7.1s3.8,1.8,8.5-4.2
			C202.6,49.6,198.2,45.1,198.2,45.1"/>
		<path class="st6" d="M191.2,51.5c-1,1.4-2.5,2.1-3.4,1.4c-0.9-0.6-0.9-2.3,0-3.7c1-1.4,2.5-2.1,3.4-1.4
			C192.2,48.4,192.2,50.1,191.2,51.5"/>
		<path class="st18" d="M191.2,51.5c-1,1.4-2.5,2.1-3.4,1.4c-0.9-0.6-0.9-2.3,0-3.7c1-1.4,2.5-2.1,3.4-1.4
			C192.2,48.4,192.2,50.1,191.2,51.5z"/>
		<path class="st18" d="M191.4,47.9l2.9,1.4c0,0,1.5,1.4,0.2,3.4c-1.4,2-3,2-3,2l-3.4-1.7c0,0,2.3,0.2,3.4-2
			C192.5,48.8,191.4,47.9,191.4,47.9z"/>
		<path class="st13" d="M231.5,89.8c-0.1-4.3-0.1-8.6-0.2-12.9c2.8,2.6,5.6,5.2,8.6,7.6c0.2-3.2-0.9-6.6-3-9
			c0.3,0.3,0.9,0.2,1.1-0.2c0.3-0.3,0.3-0.8,0.3-1.3c0.2-3.2-0.2-6.3-1-9.4c0.5,0.5,1.2,0.7,1.8,0.4c0-0.5,0.1-0.9,0.1-1.4
			c1.7,0.2,3.4-0.7,4.4-2.1"/>
		<rect x="187.8" y="53.5" transform="matrix(0.46 -0.8879 0.8879 0.46 53.7498 196.6809)" class="st14" width="1.6" height="1.2"/>
		
			<ellipse transform="matrix(0.4295 -0.9031 0.9031 0.4295 57.8208 201.3533)" class="st15" cx="188.3" cy="54.9" rx="0.2" ry="0.6"/>
	</g>
	<g>
		<path class="st16" d="M96.3,75.7c0.6-1.5,3.7-2.7,7.4-2.6c3.7,0.1,6.6,1.4,6.6,3s-2.4,2.3-6.7,2.4C99.3,78.6,96.2,75.9,96.3,75.7z
			"/>
		<path class="st16" d="M96.3,75.8c0.2,1,1.7,1.8,1.7,1.8s0,1.2,0,1.6c0,0.5-6.3,10-8.1,13.6c-1.4,2.8-3.4,8.1-3,12.3
			c0.4,4.3,1.6,5.9,1.6,5.9l0.3,0.8c0,0-0.1,3.8-0.1,4s-0.4-0.4-1,1.8c-0.6,2.2-0.7,5.5-0.7,6.3c0,0.9-0.1,5.8,0.2,6.5
			c0.3,0.7,0.6,1.4,0.9,1.6s-0.9,0-0.9,1.2s-0.1,4.8-0.1,5.8s0.3,1.7,0.5,1.8c0,0-0.8,0.5-0.9,1.4c-0.1,1,0.1,4.3,0.2,5.6
			c0.1,0.4,1,1.1,1,1.1s-0.9,0.6-0.9,0.9c0,0-0.1,5.5-0.1,6.1c0,0.6,0.7,1.3,0.7,1.3s-0.7,0.6-0.7,1.2c0,0.6-0.2,3.7-0.2,5.6
			c0,1.9,0.1,3.9,0.1,4.4s0.6,0.7,0.6,1.1c0,0-0.9,0.6-0.9,1.1c0,0.6,0.1,7.9,0.1,7.9c0,0.2-0.2,3.3,3.2,6.2c2,1.7,6.6,3.5,12.7,3.5
			s7.1-0.2,10-1.6c2.9-1.4,4-3.7,4.6-5.3s0.6-9.5,0.5-10.5c0-0.3-0.6-0.6-0.6-0.8s0.5-0.7,0.6-1.5s0.2-8.2,0.2-9.2s-0.7-1.3-0.7-1.3
			s0.4-0.8,0.5-1.4c0.1-0.6,0.4-5.8,0.4-6.5s-0.9-1-0.9-1.1c0-0.1,0.7-0.5,0.8-0.8c0.2-1,0.2-5.5,0.2-5.5c0-0.2,0-0.6,0-0.7
			c-0.1-0.4-0.9-0.4-0.9-0.7s1.1-0.6,1.1-1.4s0.2-5.8,0.2-6.4c0-0.6-0.6-0.4-0.7-0.8c0,0,0.5-0.9,0.6-1.1c0.3-1,0.7-3.4,0.7-6.4
			c0-2.9-0.2-6.7-0.3-7.4s-0.4-1.8-1.2-1.8c0-0.1,0-3.9,0-3.9l0.9-2.1c0,0,2-6.6-0.4-13.7c-2.4-7.1-8.8-16.8-8.9-17.2
			c0-0.4-0.2-1.8-0.2-1.8s1.4-0.6,1.4-1.6c0.1-1-1.5-1.3-1.5-1.6l0.2-7.3c0,0-0.8,2.5-4.9,2.4c-5.1-0.1-6.1-2.5-6.1-2.5
			s-0.2,7-0.1,7.2C97.9,74.5,96.1,74.8,96.3,75.8z"/>
		<path class="st5" d="M97.9,74.3c-1,0.3,1.3,2.7,6,2.8s5.9-2.5,5.2-2.5"/>
		<path class="st5" d="M110.3,76.4c0,0-1.3,2.3-6.8,2.3c-5.4,0-7-2.6-7-2.6"/>
		<path class="st19" d="M98.2,67.4c0-1.3,2.9-2.3,5.7-2.2c2.8,0.1,5.1,1.2,5,2.5c0,1.3-2.3,2.1-5.2,2C101,69.7,98.2,68.7,98.2,67.4z
			"/>
		<path class="st20" d="M103.9,67.9"/>
		<path class="st20" d="M121,104.5"/>
		<path class="st21" d="M88.1,132.3c0,0,4.6,3.8,15.1,4.1c10.9,0.3,14.7-3.9,14.7-3.9"/>
		<path class="st21" d="M87.5,140.8c0,0,4.7,4,15.3,4.4c10.9,0.3,14.8-4.2,14.8-4.2"/>
		<path class="st21" d="M87.7,157.6c0,0,4,4.4,14.5,4.7c10.9,0.3,15-4.3,15-4.3"/>
		<path class="st21" d="M88,149.1c0,0,6.1,4,14.5,4.2s14.6-4.2,14.6-4.2"/>
		<path class="st21" d="M87.4,169.5c0,0,4,4.5,14.9,4.8c11.2,0.4,15-4.3,15-4.3"/>
		<path class="st21" d="M88.7,111.4c0,0,4.3,4.3,15,4.2c10.6-0.1,14-4,14-4"/>
		<path class="st21" d="M88.7,116c0,0,2.9,3.8,14.4,4.2s14.4-3.9,14.4-3.9"/>
	</g>
	<g>
		<path class="st6" d="M116.8,96.2c0,0-0.6,1.9,0.6,1.5c1.3-0.4,3.5-1.6,2-1.7C117.8,95.9,116.8,96.2,116.8,96.2"/>
		<path class="st6" d="M119.6,90.5c0,0-0.6,1.9,0.7,1.5c1.3-0.4,3.5-1.7,1.9-1.8S119.6,90.5,119.6,90.5"/>
		<path class="st6" d="M117.3,92.9c0,0-0.5,1.9,0.8,1.5c1.2-0.5,3.4-1.9,1.8-1.9C118.3,92.5,117.3,92.9,117.3,92.9"/>
		<path class="st6" d="M121.8,95.3c0,0-0.6,1.9,0.7,1.5c1.3-0.4,3.5-1.7,1.9-1.8C122.8,94.9,121.8,95.3,121.8,95.3"/>
		<path class="st6" d="M124.1,92.3c0,0-0.5,1.9,0.7,1.5c1.3-0.4,3.5-1.8,1.9-1.8C125.1,91.9,124.1,92.3,124.1,92.3"/>
		<path class="st6" d="M122.5,99.9c0,0-0.5,1.9,0.8,1.5c1.2-0.5,3.4-1.9,1.8-1.9C123.5,99.5,122.5,99.9,122.5,99.9"/>
		<path class="st6" d="M125.4,88.7c0,0-0.7,1.9,0.6,1.5c1.3-0.3,3.6-1.5,2-1.7C126.4,88.4,125.4,88.7,125.4,88.7"/>
		<path class="st6" d="M128.5,94.4c0,0-0.5,1.9,0.8,1.5c1.2-0.5,3.4-1.9,1.8-1.9C129.5,94,128.5,94.4,128.5,94.4"/>
		<path class="st6" d="M130.2,88.7c0,0-0.5,1.9,0.7,1.5c1.3-0.4,3.5-1.8,1.9-1.8C131.2,88.3,130.2,88.7,130.2,88.7"/>
		<path class="st6" d="M140.3,95.2c0,0,0,2,1.1,1.3c1.1-0.8,2.9-2.7,1.3-2.3C141.1,94.5,140.3,95.2,140.3,95.2"/>
		<path class="st6" d="M136.9,92.6c0,0-0.5,1.9,0.8,1.5c1.2-0.5,3.4-1.9,1.8-1.9C137.9,92.1,136.9,92.6,136.9,92.6"/>
		<path class="st6" d="M135.5,88.2c0,0-0.7,1.9,0.6,1.6s3.6-1.4,2-1.6C136.6,87.9,135.5,88.2,135.5,88.2"/>
		<path class="st6" d="M133.7,83.6c0,0-0.7,1.9,0.6,1.5c1.3-0.3,3.6-1.4,2-1.6C134.8,83.3,133.7,83.6,133.7,83.6"/>
		<path class="st6" d="M139.1,86c0,0-0.5,1.9,0.8,1.5c1.2-0.5,3.4-1.9,1.8-1.9C140,85.5,139.1,86,139.1,86"/>
		<path class="st6" d="M132.1,92.8c0,0-0.5,1.9,0.8,1.5c1.2-0.5,3.4-1.9,1.8-1.9C133.1,92.4,132.1,92.8,132.1,92.8"/>
		<path class="st6" d="M133.1,97.9c0,0-0.5,1.9,0.8,1.5c1.2-0.5,3.4-1.9,1.8-1.9C134.1,97.4,133.1,97.9,133.1,97.9"/>
		<path class="st6" d="M127.9,103.8c0,0-0.9,1.8,0.4,1.6c1.3-0.2,3.7-1.1,2.2-1.5C128.9,103.6,127.9,103.8,127.9,103.8"/>
		<path class="st6" d="M134,106.8c0,0-0.4,2,0.8,1.5c1.3-0.5,3.4-2,1.8-2C135.1,106.3,134,106.8,134,106.8"/>
		<path class="st6" d="M129,115.1c0,0-0.1,2.8,1.5,1.8s4.2-3.6,2-3.2C130.2,114.2,129,115.1,129,115.1"/>
		<path class="st6" d="M125,110.9c0,0-0.5,2,0.8,1.5s3.5-2,1.8-2C126,110.5,125,110.9,125,110.9"/>
		<path class="st6" d="M121.7,110.6c0,0-0.8,1.8,0.5,1.6s3.7-1.2,2.1-1.5C122.8,110.4,121.7,110.6,121.7,110.6"/>
		<path class="st6" d="M114.8,111.9c0,0-0.5,1.9,0.8,1.5c1.2-0.5,3.4-1.9,1.8-1.9C115.8,111.5,114.8,111.9,114.8,111.9"/>
		<path class="st6" d="M123.3,121.1c1.1-1.3,2.7-4.1,0.9-3.2c-1.8,0.9-2.7,2-2.7,2"/>
		<path class="st6" d="M135.4,112.5c0,0-1.4,1.5,0,1.7s4,0,2.6-0.8C136.5,112.6,135.4,112.5,135.4,112.5"/>
		<path class="st6" d="M114.3,107.4c0,0-0.5,1.9,0.8,1.5c1.2-0.5,3.4-1.9,1.8-1.9C115.3,107,114.3,107.4,114.3,107.4"/>
		<path class="st6" d="M109.9,104.6c0,0-0.8,1.8,0.5,1.6c1.3-0.2,3.7-1.3,2.1-1.5C111,104.3,109.9,104.6,109.9,104.6"/>
		<path class="st6" d="M145.5,80.3c0,0-2.4-0.9-0.9-1.6s4.7-1.5,3.4-0.2C146.7,79.8,145.5,80.3,145.5,80.3"/>
	</g>
</g>
</svg>
