<?xml version="1.0" encoding="utf-8"?>
<!-- Generator: Adobe Illustrator 25.2.3, SVG Export Plug-In . SVG Version: 6.00 Build 0)  -->
<svg version="1.1" id="Layer_1" xmlns="http://www.w3.org/2000/svg" xmlns:xlink="http://www.w3.org/1999/xlink" x="0px" y="0px"
	 viewBox="0 0 156 212.9" style="enable-background:new 0 0 156 212.9;" xml:space="preserve">
<style type="text/css">
	.st0{fill:none;stroke:#FFFFFF;stroke-width:0.25;stroke-miterlimit:10;}
	.st1{fill:#CBB8B9;stroke:#FFFFFF;stroke-width:0.25;stroke-miterlimit:10;}
	.st2{fill:#E4DAD8;stroke:#FFFFFF;stroke-width:0.25;stroke-miterlimit:10;}
	.st3{fill:#CBB8B9;stroke:#FFFFFF;stroke-width:0.25;stroke-linejoin:bevel;stroke-miterlimit:10;}
	.st4{fill:#E4DAD8;stroke:#FFFFFF;stroke-width:0.25;stroke-linejoin:bevel;stroke-miterlimit:10;}
	.st5{fill:#DD335A;stroke:#FFFFFF;stroke-width:0.25;stroke-miterlimit:10;}
	.st6{fill:#C52E55;stroke:#FFFFFF;stroke-width:0.25;stroke-miterlimit:10;}
	.st7{fill:none;stroke:#FFFFFF;stroke-width:0.2926;stroke-miterlimit:10;}
	.st8{fill:none;stroke:#B71549;stroke-width:0.2926;stroke-miterlimit:10;}
	.st9{fill:none;stroke:#B71549;stroke-width:0.2926;stroke-linecap:round;stroke-miterlimit:10;}
	.st10{fill:#B71549;}
	.st11{fill:#B71549;stroke:#FFFFFF;stroke-width:0.25;stroke-miterlimit:10;}
	.st12{fill:#B71549;stroke:#FFFFFF;stroke-width:0.2828;stroke-miterlimit:10;}
	.st13{fill:#EE7345;stroke:#FFFFFF;stroke-width:0.2949;stroke-miterlimit:10;}
	.st14{fill:none;stroke:#FFFFFF;stroke-width:0.2949;stroke-miterlimit:10;}
	.st15{fill:#EE7345;stroke:#FFFFFF;stroke-width:0.2926;stroke-miterlimit:10;}
	.st16{fill:none;stroke:#B71549;stroke-width:1.6971;stroke-linecap:round;stroke-miterlimit:10;}
	.st17{fill:#C52E55;}
	.st18{fill:#B71549;stroke:#FFFFFF;stroke-width:0.2655;stroke-miterlimit:10;}
	.st19{fill:none;stroke:#FFFFFF;stroke-width:0.25;stroke-linejoin:bevel;stroke-miterlimit:10;}
</style>
<g>
	<line class="st0" x1="63.2" y1="183.2" x2="63.2" y2="191.5"/>
	<line class="st0" x1="62.9" y1="183" x2="62.8" y2="191.7"/>
	<g>
		<polygon class="st1" points="11.5,172.6 58.5,196.4 138.3,156.2 138.5,147 94,126.6 11.5,168.2 		"/>
		<polygon class="st1" points="11.5,173.3 11.6,164.3 58.6,187.3 58.4,196.4 		"/>
		<polygon class="st1" points="1.6,175.5 1.6,183 58.8,211.9 155.3,163.3 155.1,155.6 58.7,203.6 		"/>
		<polygon class="st2" points="58.4,203.6 155.3,155.7 98,127.8 1.8,174.9 		"/>
		<polygon class="st1" points="11.5,172.6 58.4,196.8 140,155.3 140.1,146 94,126.6 11.5,168.2 		"/>
		<polygon class="st3" points="11.5,173.3 11.6,164.3 58.4,187.8 58.3,196.8 		"/>
		<polygon class="st3" points="1.9,175 1.9,184 58.4,212.4 155.6,163.1 155.4,155.4 58.4,203.6 		"/>
		<path class="st4" d="M11.7,164.3c0,0,46.6,23.6,46.6,23.6l82.2-42L93.4,123L11.7,164.3z"/>
		<g>
			<polygon class="st5" points="34.7,168.1 58.3,180 58.3,169.2 34.2,157.4 			"/>
			<polygon class="st6" points="58.3,179.9 125.8,146.3 126.2,136.8 58.4,169.2 			"/>
			<line class="st7" x1="34.2" y1="157.3" x2="100.6" y2="123.4"/>
			<line class="st8" x1="59.5" y1="166.3" x2="119.2" y2="138.2"/>
			<path class="st9" d="M41.4,156.3c-0.4-0.7,58-30.8,58-30.8"/>
			<g>
				<polygon class="st10" points="57.8,166.4 59,165.5 57.9,164.4 55.7,164.3 54.5,165.1 55.5,166.2 				"/>
				<path class="st10" d="M57.5,166l0.3-0.2c0.2-0.1,0.2-0.5,0.1-0.6l-0.2-0.3c-0.1-0.1-0.2-0.1-0.3-0.1l-1.2-0.1
					c-0.1,0-0.2,0-0.3,0.1l-0.3,0.2c-0.2,0.2-0.2,0.5-0.1,0.6l0.2,0.3c0.1,0.1,0.2,0.1,0.3,0.1l1.2,0.1C57.4,166,57.5,166,57.5,166z
					"/>
			</g>
			<g>
				<polygon class="st10" points="118.9,136.8 120.1,135.9 119.1,134.9 116.9,134.7 115.7,135.5 116.7,136.6 				"/>
				<path class="st10" d="M118.7,136.4l0.3-0.2c0.2-0.1,0.2-0.5,0.1-0.6l-0.2-0.3c-0.1-0.1-0.1-0.1-0.3-0.1l-1.2-0.1
					c-0.1,0-0.2,0-0.3,0.1l-0.3,0.2c-0.2,0.2-0.2,0.5-0.1,0.6l0.2,0.3c0.1,0.1,0.1,0.1,0.3,0.1l1.2,0.1
					C118.5,136.5,118.6,136.4,118.7,136.4z"/>
			</g>
			<g>
				<polygon class="st10" points="47,157.8 48.2,157 47.2,155.9 45,155.8 43.9,156.6 44.9,157.6 				"/>
				<path class="st10" d="M46.8,157.4l0.3-0.2c0.2-0.1,0.2-0.4,0.1-0.6l-0.2-0.2c-0.1-0.1-0.2-0.1-0.3-0.1l-1.2-0.1
					c-0.1,0-0.2,0-0.3,0.1l-0.3,0.2c-0.2,0.2-0.2,0.4-0.1,0.6l0.2,0.2c0.1,0.1,0.2,0.1,0.3,0.1l1.2,0.1
					C46.6,157.5,46.7,157.4,46.8,157.4z"/>
			</g>
			<polygon class="st11" points="29.1,165.2 58.3,179.8 58.3,169.2 29.1,154.4 			"/>
			<polygon class="st11" points="58.3,179.9 126.3,146.3 126.1,135.7 58.4,169.2 			"/>
			<path class="st12" d="M101.5,129.4l6-3c0,0-0.5,1.7,0.8,2.3c1.3,0.6,3.7-0.2,3.7-0.2l-8.2,3.6L101.5,129.4z"/>
			<g>
				<path class="st13" d="M56.5,158c0.2-0.1,0.1-0.9,0.1-0.9l1-0.5c0,0,5.7,0.5,7.6,0.4c1.5,0,4.2-0.3,5.9-1.4c1.7-1.1,2.2-2,2.2-2
					l0.6-0.5l1.5-0.7c0,0-0.1,0.2,1,0s2.9-1.1,2.9-1.1l2.4-1.4c0,0,0.8-0.7,0.8-0.9c0-0.1,0.5,0.2,0.7,0.2c0.2,0,2.2-1.2,2.4-1.2
					c0.2,0,0.7-0.5,0.7-0.6l0.8,0.1c0,0,1.8-1,2.3-1.3c0.1-0.1,0.2-0.7,0.2-0.7s0.5,0.3,0.6,0.2l2.5-1.2l0.5-0.7l0.4,0.2l3.9-2
					l0.5-0.1c0,0,0.4-0.4,0.6-0.5l0.4,0.1l3.3-1.9c0.1-0.1,4.3-1.6,1.1-8.2c-2.9-6-6.9-4.8-7.9-4.6c-0.7,0.2-2.7,1.1-3.1,1.3
					c-0.1,0.1-0.2,0.4-0.3,0.5c-0.1,0-0.3-0.1-0.4-0.1c-0.9,0.3-3.9,1.9-4.6,2.4c-0.1,0.1-0.1,0.4-0.1,0.4s-0.4,0-0.6,0
					c-0.4,0.1-1.9,0.8-2.8,1.2c-0.1,0-0.1,0.5-0.1,0.5s-0.5,0-0.6,0c-0.4,0.1-2.5,1.3-2.5,1.3c-0.1,0-0.1,0.1-0.1,0.1
					c-0.1,0.1-0.1,0.4,0,0.5l0,0c0,0-0.7-0.2-0.8-0.1c-0.5,0.2-2.4,1-2.9,1.4c-0.1,0,0,0.4-0.2,0.5c-0.2,0.1-0.5,0-0.6,0
					c-0.9,0.2-5.2,2.5-5.2,2.5l-1.1,1.2l-1.8,0.9l-1.1,0c0,0-3.2,0.6-5.7,3.2c-2.5,2.6-5.3,7.4-5.3,7.4l-0.8,0.5
					c0,0-0.2,0.2-0.4,0.2c-0.2,0-0.4-0.4-0.6-0.3c-0.2,0.1,0,0.8-0.2,1c-0.5,0.3-1.8,0.9-1.8,0.9l-1,0.5c0,0,0.8,0,1.7,1.8
					c1.1,2.2,0.7,3,0.7,3l2.5-1.4l0.6-0.1C55.8,157.7,56.3,158.1,56.5,158z"/>
				<path class="st14" d="M56.2,158c0,0-0.1-2.7-2.9-5.7"/>
				<path class="st7" d="M53.7,152.2c2.7,3,2.7,5.6,2.7,5.6"/>
				<path class="st13" d="M52.6,159.3c-0.4,0.2-1.4-0.9-2-2.1c-0.6-1.3-0.8-2.5-0.3-2.7s1.3,0.6,1.9,1.9
					C52.7,157.7,53,159.1,52.6,159.3z"/>
				<path class="st15" d="M51.5,156.7"/>
				<path class="st15" d="M63.2,141.4"/>
				<path class="st7" d="M82.4,149c0,0,0.5-2.5-1.7-7c-2.3-4.7-4.6-5.6-4.6-5.6"/>
				<path class="st7" d="M86,147.3c0,0,0.8-2.3-1.4-6.9c-2.3-4.7-4.7-5.7-4.7-5.7"/>
				<path class="st7" d="M93.2,143.8c0,0,1-2.6-1.1-7.2c-2.3-4.7-5-5.3-5-5.3"/>
				<path class="st7" d="M89.4,145.4c0,0,0.9-2.4-1.3-7c-2.3-4.7-4.8-5.4-4.8-5.4"/>
				<path class="st7" d="M98.3,141.3c0,0,1-2.7-1.2-7.4c-2.3-4.9-5.1-5.5-5.1-5.5"/>
				<path class="st7" d="M73.4,153.3c0,0-0.6-4-1.8-6.9c-1.2-2.9-4.2-5.4-4.2-5.4"/>
				<path class="st7" d="M75.2,152.4c0,0-0.2-3.7-1.7-6.7c-1.5-3.1-4.5-5.4-4.5-5.4"/>
			</g>
			<path class="st5" d="M111.5,128.3l-7.8,3.8c0.8,2,0.8,3.5,0.5,4.6c-0.6,2.2-2.3,2.9-2.3,2.9l-3,1.6l-0.4-0.2
				c-0.2,0.1-0.4,0.4-0.4,0.4l-4.4,2.4l-0.6-0.1l-0.6,0.7l-2.5,1.2c-0.1,0.1-0.5-0.2-0.5-0.2s-0.2,0.6-0.4,0.7
				c-0.5,0.3-2.3,1.3-2.3,1.3l-0.8-0.2c0,0.1-0.6,0.7-0.8,0.7c-0.2,0-2.2,1.1-2.3,1.2s-0.7-0.3-0.7-0.1c0,0.1-0.5,0.7-0.5,0.7
				l-2.8,1.6c0,0-1.8,0.9-2.9,1.1c-1.1,0.2-1,0-1,0l-1.5,0.7l-0.6,0.5c0,0-0.4,0.9-2.2,2c-1.7,1.1-4.4,1.4-5.9,1.4
				c-1.9,0-7.6-0.4-7.6-0.4l-1,0.5c0,0,0.1,0.8-0.1,0.9c-0.2,0.1-0.7-0.3-0.7-0.3l-0.6,0.2l-2.5,1.4c0,0-0.5-0.6-1.6-2.7
				c-0.9-1.8-0.8-2-0.8-2l1-0.5c0,0,1.4-0.6,1.8-0.9c0.2-0.1,0-0.8,0.2-1c0.2-0.1,0.5,0.3,0.6,0.3c0.2,0,0.4-0.2,0.4-0.2l0.8-0.5
				c0,0,2.8-4.8,5.3-7.4c2.5-2.6,5.7-3.2,5.7-3.2l1.1-0.1l1.8-0.9l1.1-1.2c0,0,4.3-2.3,5.2-2.5c0.1,0,0.4,0.1,0.6,0
				c0.2-0.1,0.1-0.4,0.2-0.5c0.6-0.4,2.4-1.2,2.9-1.4c0.1-0.1,0.8,0.1,0.8,0.1l0,0c-0.1-0.1-0.1-0.4,0-0.5c0,0,0.1-0.1,0.1-0.1
				c0,0,2.1-1.1,2.6-1.3c0.1,0,0.6,0,0.6,0s0-0.4,0.1-0.5c0.9-0.4,2.4-1.1,2.8-1.2c0.1,0,0.6,0,0.6,0s0-0.3,0.1-0.4
				c0.7-0.5,3.7-2,4.6-2.4c0.1,0,0.3,0.1,0.4,0.1c0.1,0,0.1-0.4,0.3-0.5c0.4-0.3,2.4-1.2,3.1-1.3c0.9-0.2,4-0.2,6.9,2.5l5.4-2.8
				l-10.9-5.9l-67.4,34l29.2,14.8l67.7-33.8L111.5,128.3z"/>
			<line class="st16" x1="63.1" y1="163.1" x2="113.8" y2="138"/>
			<line class="st16" x1="42.3" y1="151.2" x2="92.6" y2="125.4"/>
			<g>
				<polygon class="st10" points="97.8,124.6 99,123.7 98,122.7 95.9,122.5 94.7,123.3 95.7,124.4 				"/>
				<path class="st17" d="M97.6,124.1l0.3-0.2c0.2-0.2,0.2-0.4,0.1-0.6l-0.2-0.2c-0.1-0.1-0.1-0.1-0.3-0.1l-1.2-0.1
					c-0.1,0-0.2,0-0.3,0.1l-0.3,0.2c-0.2,0.1-0.2,0.4-0.1,0.6l0.2,0.2c0.1,0.1,0.1,0.1,0.3,0.1l1.2,0.1
					C97.4,124.2,97.5,124.2,97.6,124.1z"/>
			</g>
			<g>
				<polygon class="st10" points="118.8,135.5 120,134.6 118.9,133.5 116.7,133.3 115.5,134.2 116.5,135.2 				"/>
				<path class="st17" d="M118.5,135l0.3-0.2c0.2-0.1,0.2-0.5,0.1-0.6l-0.2-0.3c-0.1-0.1-0.1-0.1-0.3-0.1l-1.2-0.1
					c-0.1,0-0.2,0-0.3,0.1l-0.3,0.2c-0.2,0.2-0.2,0.5-0.1,0.6l0.2,0.3c0.1,0.1,0.2,0.1,0.3,0.1l1.2,0.1
					C118.3,135.1,118.4,135.1,118.5,135z"/>
			</g>
			<g>
				<polygon class="st10" points="58.7,165 59.9,164.1 58.9,163.1 56.7,162.9 55.5,163.7 56.5,164.8 				"/>
				<path class="st17" d="M58.5,164.6l0.3-0.2c0.2-0.2,0.2-0.5,0.1-0.6l-0.2-0.3c-0.1-0.1-0.2-0.1-0.3-0.1l-1.2-0.1
					c-0.1,0-0.2,0-0.3,0.1l-0.3,0.2c-0.2,0.1-0.2,0.5-0.1,0.6l0.2,0.3c0.1,0.1,0.2,0.1,0.3,0.1l1.2,0.1
					C58.3,164.7,58.4,164.6,58.5,164.6z"/>
			</g>
			<g>
				<polygon class="st10" points="42.1,156 43.3,155.2 42.3,154.1 40,153.9 38.8,154.8 39.9,155.8 				"/>
				<path class="st17" d="M41.9,155.6l0.3-0.2c0.2-0.1,0.2-0.5,0.1-0.6l-0.2-0.3c-0.1-0.1-0.2-0.1-0.3-0.1l-1.2-0.1
					c-0.1,0-0.2,0-0.3,0.1l-0.3,0.2c-0.2,0.2-0.2,0.5-0.1,0.6l0.2,0.3c0.1,0.1,0.2,0.1,0.3,0.1l1.2,0.1
					C41.7,155.7,41.8,155.7,41.9,155.6z"/>
			</g>
			<g>
				<path class="st11" d="M105.6,119.1l7.3,3.7c0,0,0.4-1,2.7,0c2.3,0.9,2.4,2.5,2.4,2.5l13.6,6.8L131,61.9l-25.5-14.1L105.6,119.1z
					"/>
				<path class="st17" d="M109,114.5c0,0,1,1,1.8,1.9c0.8,0.9,1.6,1.3,1.6,1.3s2.7,0.1,3.8,0.6c1.1,0.5,1.8,1.1,1.9,1.5
					c0,0.2,0.8,0.1,0.8,0.1s3.8,0,5.9-1.8c0.1-0.1,0.2-0.2,0.2-0.3c0,0-2.3-2.7-4.4-3.8c-1.1-0.6-5.3-1.5-7.1-1.7
					C111.4,112,109,114.5,109,114.5z"/>
				<path class="st5" d="M132,132.4l0.1-71.9l-29.6-15.2l-0.1,72.3l11.3,5.7l0.1-5.6c-2.7-1-4.2-3.1-4.4-4c-0.2-0.7-0.3-2.9-0.2-3.4
					c0-0.1,0.3-0.4,0.3-0.4c0-0.1-0.3-0.2-0.3-0.3c-0.1-0.9-0.1-4.4,0.1-5.2c0-0.1,0.3-0.2,0.3-0.2s-0.2-0.4-0.2-0.5
					c-0.1-0.4-0.1-2.1-0.1-3c0-0.1,0.4-0.3,0.4-0.3s-0.2-0.4-0.3-0.6c-0.1-0.5,0-2.8,0-2.8c0-0.1,0-0.1,0-0.2
					c0.1-0.2,0.3-0.3,0.5-0.2v0c0,0-0.5-0.5-0.5-0.7c-0.1-0.6-0.1-2.6-0.1-3.3c0-0.1,0.3-0.2,0.3-0.4c0-0.2-0.2-0.4-0.3-0.5
					c-0.3-0.9-0.1-5.8-0.1-5.8l0.8-1.1l0-1.5l-0.6-1.7c0,0-0.9-3.4,0.3-6.8c1.2-3.4,4.2-7,4.2-7l0.1-0.9c0,0,0.1-0.3,0-0.4
					c-0.1-0.1-0.6-0.2-0.6-0.4c0-0.3,0.7-0.4,0.8-0.6c0.1-0.5,0-2,0-2l0.2-1.4c0,0,3.6,0,5.4,1.8l-0.1,3.5v0.3c0,0,0.3,0.4,0.3,0.6
					c0,0.2-0.6,0.3-0.6,0.3v0.4c0,0,2.4,4.3,3.2,6c0.7,1.4,2.1,4.7,1.9,6.8c-0.2,2-0.8,2.5-0.8,2.5l-0.2,1.6l0.3,1.3
					c0,0,0.2,0.4,0.5,1.4c0.3,1,0.3,3,0.3,3l-0.1,2.8c0,0-0.3,1-0.4,1.1c-0.1,0.1,0.4,0.4,0.4,0.6c0,0.2-0.1,2.5,0,2.7
					c0.1,0.2-0.1,0.9-0.2,0.9l0.4,0.7c0,0-0.1,2.1-0.1,2.7c0,0.2-0.5,0.5-0.5,0.5s0.5,0.3,0.5,0.4l0,2.8l-0.3,0.8l0.3,0.3l-0.1,4.4
					l0.1,0.5c0,0-0.2,0.6-0.2,0.7l0.3,0.3l-0.4,4.1c0,0-0.8,2.9-6.2,1.4l-0.1,6.1L132,132.4z"/>
				<line class="st16" x1="105.7" y1="110.7" x2="106.1" y2="58.4"/>
				<line class="st16" x1="128" y1="119.3" x2="128" y2="68.4"/>
				<polygon class="st18" points="132.1,60.3 132,132.4 141.4,127.8 141.5,55.6 				"/>
				<polygon class="st11" points="102.5,45.3 132.1,60.4 141.7,55.6 112,40.5 				"/>
				<g>
					<g>
						<polygon class="st10" points="104.5,50.5 105.7,51.4 106.5,53.3 106.1,54.3 104.9,53.4 104.1,51.4 						"/>
						<polygon class="st10" points="106.1,54.3 107,53.9 107.5,52.9 106.7,51 105.5,50.1 104.5,50.4 105.7,51.4 106.5,53.3 						
							"/>
					</g>
					<g>
						<path class="st17" d="M104.9,53.6l0.6-0.3c0,0,0.3-0.3,0-1c-0.3-0.8-0.8-0.8-0.8-0.8l-0.6,0.3L104.9,53.6z"/>
						<path class="st17" d="M104.1,51.8c0.2-0.1,0.6,0.2,0.8,0.7c0.2,0.5,0.2,1,0,1.1c-0.2,0.1-0.6-0.2-0.8-0.7
							C103.9,52.4,103.9,51.9,104.1,51.8z"/>
						<path class="st17" d="M104.9,53.6c0,0-0.8,0.4-1.3-0.6c-0.4-0.9,0.4-1.2,0.4-1.2"/>
					</g>
				</g>
				<g>
					<g>
						<polygon class="st10" points="126.2,61.1 127.4,62.1 128.2,64 127.8,64.9 126.5,64 125.7,62.1 						"/>
						<polygon class="st10" points="127.8,65 128.7,64.5 129.1,63.6 128.3,61.7 127.1,60.7 126.2,61.1 127.4,62.1 128.2,64 						
							"/>
					</g>
					<g>
						<path class="st17" d="M126.5,64.3l0.6-0.3c0,0,0.3-0.3,0-1c-0.3-0.8-0.8-0.8-0.8-0.8l-0.6,0.3L126.5,64.3z"/>
						<path class="st17" d="M125.7,62.5c0.2-0.1,0.6,0.2,0.8,0.7c0.2,0.5,0.2,1,0,1.1c-0.2,0.1-0.6-0.2-0.8-0.7
							C125.5,63.1,125.5,62.6,125.7,62.5z"/>
						<path class="st17" d="M126.5,64.3c0,0-0.8,0.4-1.3-0.6c-0.4-0.9,0.4-1.2,0.4-1.2"/>
					</g>
				</g>
				<g>
					<g>
						<polygon class="st10" points="126.8,124.7 128.1,125.6 128.9,127.5 128.5,128.4 127.2,127.5 126.4,125.6 						"/>
						<polygon class="st10" points="128.5,128.5 129.4,128 129.8,127.1 129,125.2 127.8,124.2 126.9,124.6 128.1,125.6 128.9,127.5 
													"/>
					</g>
					<g>
						<path class="st17" d="M127.2,127.8l0.6-0.3c0,0,0.3-0.3,0-1c-0.3-0.8-0.8-0.8-0.8-0.8l-0.6,0.3L127.2,127.8z"/>
						<path class="st17" d="M126.4,126c0.2-0.1,0.6,0.2,0.8,0.7c0.2,0.5,0.2,1,0,1.1c-0.2,0.1-0.6-0.2-0.8-0.7
							C126.2,126.6,126.2,126.1,126.4,126z"/>
						<path class="st17" d="M127.2,127.8c0,0-0.8,0.4-1.3-0.6c-0.4-0.9,0.4-1.2,0.4-1.2"/>
					</g>
				</g>
				<g>
					<g>
						<polygon class="st10" points="105,115 106.2,115.9 107,117.9 106.6,118.8 105.3,117.9 104.6,116 						"/>
						<polygon class="st10" points="106.6,118.8 107.5,118.4 107.9,117.4 107.1,115.5 105.9,114.6 105,115 106.2,116 107,117.9 
													"/>
					</g>
					<g>
						<path class="st17" d="M105.3,118.2l0.6-0.3c0,0,0.3-0.3,0-1c-0.3-0.8-0.8-0.8-0.8-0.8l-0.6,0.3L105.3,118.2z"/>
						<path class="st17" d="M104.5,116.4c0.2-0.1,0.6,0.2,0.8,0.7c0.2,0.5,0.2,1,0,1.1c-0.2,0.1-0.6-0.2-0.8-0.7
							C104.3,116.9,104.3,116.4,104.5,116.4z"/>
						<path class="st17" d="M105.4,118.1c0,0-0.8,0.4-1.3-0.6c-0.4-0.9,0.4-1.2,0.4-1.2"/>
					</g>
				</g>
			</g>
		</g>
	</g>
	<line class="st19" x1="58.1" y1="203.4" x2="58.1" y2="212.3"/>
</g>
</svg>
