<?xml version="1.0" encoding="utf-8"?>
<!-- Generator: Adobe Illustrator 25.2.3, SVG Export Plug-In . SVG Version: 6.00 Build 0)  -->
<svg version="1.1" id="Layer_1" xmlns="http://www.w3.org/2000/svg" xmlns:xlink="http://www.w3.org/1999/xlink" x="0px" y="0px"
	 viewBox="0 0 263.3 293.3" style="enable-background:new 0 0 263.3 293.3;" xml:space="preserve">
<style type="text/css">
	.st0{fill:#CCB9B9;stroke:#FFFFFF;stroke-width:0.5;stroke-miterlimit:10;}
	.st1{fill:#E4DAD8;stroke:#FFFFFF;stroke-width:0.5;stroke-miterlimit:10;}
	.st2{fill:#CCB9B9;stroke:#FFFFFF;stroke-width:0.5;stroke-linejoin:bevel;stroke-miterlimit:10;}
	.st3{fill:#E4DAD8;stroke:#FFFFFF;stroke-width:0.5;stroke-linejoin:bevel;stroke-miterlimit:10;}
	.st4{fill:#DC3359;stroke:#FFFFFF;stroke-width:0.5;stroke-miterlimit:10;}
	.st5{fill:#C42C54;stroke:#FFFFFF;stroke-width:0.5;stroke-miterlimit:10;}
	.st6{fill:#C42C54;stroke:#FFFFFF;stroke-width:0.496;stroke-miterlimit:10;}
	.st7{fill:none;stroke:#B71148;stroke-width:0.496;stroke-miterlimit:10;}
	.st8{fill:none;stroke:#B71148;stroke-width:0.496;stroke-linecap:round;stroke-miterlimit:10;}
	.st9{fill:#B71148;}
	.st10{fill:#B71148;stroke:#FFFFFF;stroke-width:0.5;stroke-miterlimit:10;}
	.st11{fill:#B71148;stroke:#FFFFFF;stroke-width:0.4795;stroke-miterlimit:10;}
	.st12{fill:#F77441;stroke:#F7F3F2;stroke-width:0.5;stroke-miterlimit:10;}
	.st13{fill:none;stroke:#FFFFFF;stroke-width:0.5;stroke-miterlimit:10;}
	.st14{fill:none;stroke:#FFFFFF;stroke-width:0.496;stroke-miterlimit:10;}
	.st15{fill:#F77441;stroke:#FFFFFF;stroke-width:0.496;stroke-miterlimit:10;}
	.st16{fill:#DC3359;stroke:#FFFFFF;stroke-width:0.4795;stroke-miterlimit:10;}
	.st17{fill:none;stroke:#B71148;stroke-width:2.8771;stroke-linecap:round;stroke-miterlimit:10;}
	.st18{fill:#C42C54;}
</style>
<g>
	<line class="st0" x1="97.7" y1="278" x2="97.7" y2="292.1"/>
	<line class="st0" x1="97.2" y1="277.8" x2="97.1" y2="292.4"/>
	<g>
		<polygon class="st0" points="17.7,225.3 97.5,265.7 232.8,197.6 233.1,181.9 157.7,147.4 17.8,217.9 		"/>
		<polygon class="st0" points="17.8,226.5 18,211.2 97.6,250.2 97.3,265.7 		"/>
		<polygon class="st0" points="1,230.3 1,243 97.9,291.9 261.5,209.6 261.2,196.6 97.8,277.9 		"/>
		<polygon class="st1" points="97.3,277.9 261.6,196.6 164.4,149.4 1.3,229.3 		"/>
		<polygon class="st0" points="17.7,225.3 97.2,266.3 235.5,196 235.8,180.3 157.7,147.4 17.8,217.9 		"/>
		<polygon class="st2" points="17.8,226.5 18,211.2 97.2,251.2 97.1,266.4 		"/>
		<polygon class="st2" points="1.5,229.4 1.4,244.6 97.2,292.8 262,209.2 261.8,196.2 97.2,277.9 		"/>
		<path class="st3" d="M18.1,211.2c0,0,78.9,39.9,78.9,39.9l139.4-71.2l-79.9-38.6L18.1,211.2z"/>
		<g>
			<polygon class="st4" points="57,217.8 97.1,237.9 97.2,219.5 56.3,199.5 			"/>
			<polygon class="st5" points="97.2,237.6 211.5,180.8 212.1,164.7 97.2,219.5 			"/>
			<line class="st6" x1="56.3" y1="199.4" x2="168.9" y2="142"/>
			<line class="st7" x1="99.1" y1="214.7" x2="200.4" y2="167"/>
			<path class="st8" d="M68.4,197.7c-0.7-1.3,98.4-52.2,98.4-52.2"/>
			<g>
				<polygon class="st9" points="96.2,214.8 98.2,213.3 96.5,211.5 92.7,211.2 90.6,212.6 92.4,214.4 				"/>
				<path class="st9" d="M95.8,214.1l0.5-0.3c0.4-0.3,0.4-0.8,0.1-1.1l-0.4-0.4c-0.1-0.1-0.3-0.2-0.4-0.2l-2.1-0.2
					c-0.2,0-0.3,0-0.5,0.1l-0.5,0.3c-0.4,0.3-0.4,0.8-0.1,1.1l0.4,0.4c0.1,0.1,0.3,0.2,0.4,0.2l2.1,0.2
					C95.5,214.2,95.7,214.2,95.8,214.1z"/>
			</g>
			<g>
				<polygon class="st9" points="199.9,164.6 202,163.2 200.2,161.4 196.4,161 194.4,162.5 196.1,164.3 				"/>
				<path class="st9" d="M199.5,163.9l0.5-0.3c0.4-0.3,0.4-0.8,0.1-1.1l-0.4-0.4c-0.1-0.1-0.3-0.2-0.4-0.2l-2.1-0.2
					c-0.2,0-0.3,0-0.5,0.1l-0.5,0.3c-0.4,0.3-0.4,0.8-0.1,1.1l0.4,0.4c0.1,0.1,0.3,0.2,0.4,0.2l2.1,0.2
					C199.2,164,199.4,164,199.5,163.9z"/>
			</g>
			<g>
				<polygon class="st9" points="78,200.2 79.9,198.8 78.2,197.1 74.6,196.8 72.7,198.1 74.3,199.9 				"/>
				<path class="st9" d="M77.6,199.5l0.5-0.3c0.3-0.2,0.4-0.7,0.1-1l-0.4-0.4c-0.1-0.1-0.3-0.2-0.4-0.2l-2-0.2c-0.2,0-0.3,0-0.5,0.1
					l-0.5,0.3c-0.3,0.2-0.4,0.7-0.1,1l0.4,0.4c0.1,0.1,0.3,0.2,0.4,0.2l2,0.2C77.3,199.7,77.5,199.6,77.6,199.5z"/>
			</g>
			<polygon class="st10" points="47.7,212.8 97.1,237.6 97.2,219.5 47.6,194.5 			"/>
			<polygon class="st10" points="97.1,237.7 212.3,180.8 212.1,162.8 97.2,219.6 			"/>
			<path class="st11" d="M170.3,152.1l10.1-5.1c0,0-0.8,2.8,1.4,3.9c2.3,1.1,6.2-0.3,6.2-0.3l-13.8,6.1L170.3,152.1z"/>
			<g>
				<path class="st12" d="M94,200.6c0.4-0.1,0.1-1.5,0.1-1.5l1.7-0.8c0,0,9.6,0.8,12.8,0.8c2.6,0,7.1-0.6,10-2.4
					c2.9-1.9,3.7-3.3,3.7-3.3l0.9-0.8l2.5-1.2c0,0-0.1,0.4,1.7,0c1.8-0.4,4.8-1.9,4.8-1.9l4.1-2.3c0,0,1.3-1.3,1.4-1.5
					c0-0.3,0.9,0.3,1.2,0.2c0.3-0.1,3.7-2.1,4-2.1c0.3,0,1.2-0.9,1.2-1l1.4,0.1c0,0,3.1-1.7,3.9-2.2c0.3-0.2,0.4-1.2,0.4-1.2
					s0.8,0.5,1,0.4l4.2-2.1l0.9-1.1l0.7,0.3l6.6-3.5l0.8-0.3c0,0,0.7-0.7,1-0.8l0.7,0.2l5.5-3.2c0.2-0.1,7.2-2.7,1.9-13.9
					c-4.9-10.2-11.6-8.2-13.4-7.8c-1.2,0.2-4.6,1.8-5.2,2.3c-0.2,0.1-0.3,0.7-0.4,0.8c-0.2,0.1-0.5-0.2-0.7-0.2
					c-1.5,0.6-6.7,3.2-7.8,4c-0.1,0.1-0.1,0.6-0.1,0.6s-0.8,0-1,0c-0.7,0.2-3.2,1.4-4.7,2.1c-0.2,0.1-0.2,0.8-0.2,0.8s-0.8,0-1.1,0
					c-0.8,0.2-4.3,2.1-4.3,2.1c-0.1,0.1-0.2,0.1-0.2,0.2c-0.3,0.2-0.2,0.6,0,0.9l-0.1,0c0,0-1.2-0.4-1.4-0.3c-0.9,0.3-4,1.8-5,2.4
					c-0.1,0.1-0.1,0.6-0.3,0.8c-0.3,0.2-0.9,0-1,0c-1.6,0.3-8.9,4.2-8.9,4.2l-1.9,2.1l-3,1.6l-1.8,0.1c0,0-5.5,1-9.7,5.4
					s-9,12.5-9,12.5l-1.3,0.8c0,0-0.4,0.3-0.6,0.3c-0.2,0-0.7-0.7-1-0.5c-0.4,0.3,0,1.4-0.3,1.6c-0.8,0.5-3.1,1.6-3.1,1.6l-1.7,0.8
					c0,0,1.4,0,2.8,3c1.8,3.7,1.1,5,1.1,5l4.2-2.3l1-0.3C92.9,200.1,93.7,200.7,94,200.6z"/>
				<path class="st13" d="M93.5,200.6c0,0-0.2-4.6-4.9-9.6"/>
				<path class="st14" d="M89.4,190.7c4.6,5.1,4.6,9.4,4.6,9.4"/>
				<path class="st12" d="M87.4,202.8c-0.7,0.4-2.4-1.5-3.4-3.6c-1-2.1-1.3-4.2-0.5-4.5c0.7-0.4,2.2,1.1,3.2,3.2
					C87.7,200,88.1,202.5,87.4,202.8z"/>
				<path class="st15" d="M85.5,198.4"/>
				<path class="st15" d="M105.5,172.4"/>
				<path class="st14" d="M137.9,185.4c0,0,0.8-4.2-2.9-11.9c-3.8-8-7.8-9.5-7.8-9.5"/>
				<path class="st14" d="M144.1,182.5c0,0,1.4-3.9-2.3-11.6c-3.8-8-8-9.7-8-9.7"/>
				<path class="st14" d="M156.2,176.4c0,0,1.8-4.5-1.9-12.2c-3.8-8-8.5-8.9-8.5-8.9"/>
				<path class="st14" d="M149.9,179.2c0,0,1.6-4.1-2.1-11.8c-3.8-8-8.2-9.2-8.2-9.2"/>
				<path class="st14" d="M165,172.2c0,0,1.7-4.6-2.1-12.6c-4-8.2-8.7-9.3-8.7-9.3"/>
				<path class="st14" d="M122.7,192.6c0,0-1-6.7-3.1-11.7c-2.1-5-7.1-9.2-7.1-9.2"/>
				<path class="st14" d="M125.8,191.1c0,0-0.3-6.2-2.8-11.4s-7.6-9.2-7.6-9.2"/>
			</g>
			<path class="st16" d="M187.2,150.3l-13.3,6.5c1.3,3.4,1.4,5.9,0.9,7.8c-0.9,3.7-3.9,4.9-3.9,4.9l-5,2.7l-0.8-0.3
				c-0.3,0.1-0.6,0.8-0.6,0.8l-7.5,4l-1-0.2l-1.1,1.1l-4.2,2.1c-0.2,0.1-0.8-0.3-0.8-0.3s-0.3,1-0.6,1.2c-0.8,0.6-3.9,2.2-3.9,2.2
				l-1.3-0.3c0,0.2-1,1.2-1.3,1.2c-0.3,0-3.7,1.9-4,2c-0.3,0.1-1.1-0.5-1.1-0.2c0,0.3-0.8,1.2-0.8,1.2l-4.8,2.7c0,0-3.1,1.5-4.8,1.9
				c-1.8,0.4-1.7,0-1.7,0l-2.5,1.2l-0.9,0.8c0,0-0.8,1.5-3.7,3.3c-2.9,1.9-7.4,2.4-10,2.4c-3.2,0-12.8-0.8-12.8-0.8l-1.7,0.8
				c0,0,0.2,1.4-0.1,1.5c-0.3,0.1-1.1-0.5-1.1-0.5l-1,0.3l-4.2,2.3c0,0-0.9-1-2.7-4.6c-1.5-3-1.3-3.4-1.3-3.4l1.7-0.8
				c0,0,2.3-1,3.1-1.6c0.3-0.2-0.1-1.4,0.3-1.6c0.3-0.2,0.8,0.5,1,0.5c0.2,0,0.6-0.3,0.6-0.3l1.3-0.8c0,0,4.8-8.1,9-12.5
				c4.2-4.4,9.7-5.4,9.7-5.4l1.8-0.1l3-1.6l1.9-2.1c0,0,7.3-3.9,8.9-4.2c0.2,0,0.7,0.2,1,0c0.3-0.2,0.2-0.7,0.3-0.8
				c1-0.7,4.1-2.1,5-2.4c0.3-0.1,1.4,0.3,1.4,0.3l0.1,0c-0.2-0.2-0.3-0.6,0-0.9c0.1-0.1,0.1-0.1,0.2-0.2c0,0,3.5-1.9,4.3-2.1
				c0.3-0.1,1.1,0,1.1,0s0-0.7,0.2-0.8c1.5-0.7,4-1.9,4.7-2.1c0.2-0.1,1,0,1,0s0-0.5,0.1-0.6c1.1-0.9,6.3-3.4,7.8-4
				c0.2-0.1,0.6,0.2,0.7,0.2c0.1-0.1,0.3-0.7,0.4-0.8c0.6-0.4,4-2,5.2-2.3c1.6-0.3,6.8-0.4,11.6,4.2l9.2-4.8l-18.4-10L47.9,194.5
				l49.5,25.2l114.8-57.3L187.2,150.3z"/>
			<line class="st17" x1="105.2" y1="209.2" x2="191.1" y2="166.7"/>
			<line class="st17" x1="69.9" y1="189" x2="155.2" y2="145.3"/>
			<g>
				<polygon class="st9" points="164.1,143.9 166.1,142.5 164.4,140.8 160.8,140.4 158.8,141.8 160.5,143.5 				"/>
				<path class="st18" d="M163.8,143.2l0.5-0.3c0.3-0.2,0.4-0.7,0.1-1l-0.4-0.4c-0.1-0.1-0.3-0.2-0.4-0.2l-2-0.2
					c-0.2,0-0.3,0-0.5,0.1l-0.5,0.3c-0.3,0.2-0.4,0.7-0.1,1l0.4,0.4c0.1,0.1,0.3,0.2,0.4,0.2l2,0.2
					C163.5,143.3,163.6,143.3,163.8,143.2z"/>
			</g>
			<g>
				<polygon class="st9" points="199.6,162.4 201.6,160.9 199.9,159.1 196.1,158.8 194,160.2 195.8,162 				"/>
				<path class="st18" d="M199.2,161.6l0.5-0.3c0.4-0.3,0.4-0.8,0.1-1.1l-0.4-0.4c-0.1-0.1-0.3-0.2-0.4-0.2l-2.1-0.2
					c-0.2,0-0.3,0-0.5,0.1l-0.5,0.3c-0.4,0.3-0.4,0.8-0.1,1.1l0.4,0.4c0.1,0.1,0.3,0.2,0.4,0.2l2.1,0.2
					C198.9,161.8,199.1,161.7,199.2,161.6z"/>
			</g>
			<g>
				<polygon class="st9" points="97.8,212.4 99.9,211 98.1,209.2 94.3,208.8 92.3,210.3 94,212.1 				"/>
				<path class="st18" d="M97.5,211.7l0.5-0.3c0.4-0.3,0.4-0.8,0.1-1.1l-0.4-0.4c-0.1-0.1-0.3-0.2-0.4-0.2l-2.1-0.2
					c-0.2,0-0.3,0-0.5,0.1l-0.5,0.3c-0.4,0.3-0.4,0.8-0.1,1.1l0.4,0.4c0.1,0.1,0.3,0.2,0.4,0.2l2.1,0.2
					C97.1,211.9,97.3,211.8,97.5,211.7z"/>
			</g>
			<g>
				<polygon class="st9" points="69.6,197.2 71.7,195.8 69.9,194 66.1,193.6 64.1,195.1 65.8,196.9 				"/>
				<path class="st18" d="M69.2,196.5l0.5-0.3c0.4-0.3,0.4-0.8,0.1-1.1l-0.4-0.4c-0.1-0.1-0.3-0.2-0.4-0.2l-2.1-0.2
					c-0.2,0-0.3,0-0.5,0.1l-0.5,0.3c-0.4,0.3-0.4,0.8-0.1,1.1l0.4,0.4c0.1,0.1,0.3,0.2,0.4,0.2l2.1,0.2
					C68.9,196.7,69.1,196.6,69.2,196.5z"/>
			</g>
			<g>
				<path class="st11" d="M177.3,134.6l12.5,6.2c0,0,0.6-1.6,4.5,0c3.9,1.6,4.1,4.3,4.1,4.3l23.1,11.6l-1.2-118.9l-43.2-24
					L177.3,134.6z"/>
				<path class="st18" d="M183.1,126.8c0,0,1.8,1.7,3.1,3.2c1.3,1.5,2.7,2.2,2.7,2.2s4.6,0.2,6.5,1c1.9,0.8,3.1,1.9,3.2,2.6
					c0,0.3,1.4,0.2,1.4,0.2s6.5-0.1,10-3c0.2-0.2,0.3-0.4,0.3-0.6c0,0-3.9-4.5-7.5-6.5c-1.9-1-9-2.6-12.1-2.9
					C187.1,122.6,183.1,126.8,183.1,126.8z"/>
				<path class="st4" d="M222.1,157.1l0.1-121.8L172,9.5l-0.2,122.6l19.2,9.7l0.1-9.5c-4.6-1.7-7.1-5.3-7.5-6.8
					c-0.3-1.2-0.5-4.9-0.3-5.7c0-0.2,0.5-0.6,0.5-0.8c0-0.2-0.5-0.4-0.5-0.6c-0.1-1.6-0.2-7.4,0.1-8.8c0-0.2,0.5-0.4,0.5-0.4
					s-0.4-0.7-0.4-0.9c-0.1-0.7-0.2-3.5-0.3-5.2c0-0.2,0.6-0.5,0.6-0.5s-0.4-0.7-0.4-1c-0.2-0.8-0.1-4.8-0.1-4.8c0-0.1,0-0.2,0-0.3
					c0.1-0.3,0.5-0.5,0.8-0.4l0-0.1c0,0-0.9-0.9-0.9-1.2c-0.1-1-0.2-4.4-0.1-5.5c0-0.1,0.5-0.3,0.6-0.7c0-0.3-0.4-0.7-0.5-0.9
					c-0.4-1.5-0.2-9.8-0.2-9.8l1.4-1.9l0-2.6l-1.1-2.9c0,0-1.6-5.8,0.5-11.5c2-5.8,7.1-11.8,7.1-11.8l0.1-1.5c0,0,0.1-0.5,0-0.7
					c-0.1-0.2-1-0.3-0.9-0.7c0.1-0.4,1.3-0.6,1.3-1c0.1-0.9,0-3.5,0-3.5l0.3-2.3c0,0,6.1,0,9.1,3l-0.3,5.8v0.6c0,0,0.5,0.7,0.6,1
					c0,0.4-1,0.5-1,0.5v0.8c0,0,4,7.3,5.4,10.1c1.1,2.3,3.5,8,3.2,11.4c-0.3,3.5-1.4,4.3-1.4,4.3l-0.4,2.7l0.4,2.2
					c0,0,0.3,0.7,0.8,2.4c0.4,1.8,0.5,5.2,0.5,5.2l-0.2,4.7c0,0-0.5,1.7-0.8,1.9c-0.2,0.1,0.7,0.7,0.8,1c0.1,0.3-0.2,4.2-0.1,4.6
					c0.1,0.3-0.2,1.5-0.4,1.5l0.7,1.2c0,0-0.1,3.5-0.2,4.5c0,0.3-0.9,0.9-0.9,0.9s0.8,0.5,0.8,0.8l0.1,4.7l-0.6,1.3l0.6,0.4
					l-0.1,7.4l0.1,0.9c0,0-0.3,0.9-0.3,1.3l0.5,0.6l-0.6,6.9c0,0-1.3,5-10.5,2.4l-0.1,10.3L222.1,157.1z"/>
				<line class="st17" x1="177.4" y1="120.3" x2="178.2" y2="31.7"/>
				<line class="st17" x1="215.3" y1="134.9" x2="215.3" y2="48.8"/>
				<polygon class="st10" points="222.2,35 222.1,157.1 238,149.3 238.2,27 				"/>
				<polygon class="st10" points="172,9.5 222.2,35.1 238.6,27 188.1,1.3 				"/>
				<g>
					<g>
						<polygon class="st9" points="175.4,18.3 177.5,19.9 178.8,23.1 178.2,24.7 176.1,23.2 174.7,19.9 						"/>
						<polygon class="st9" points="178.1,24.7 179.7,24 180.4,22.4 179.1,19.2 177.1,17.6 175.5,18.2 177.5,19.9 178.9,23.1 						
							"/>
					</g>
					<g>
						<path class="st18" d="M176,23.6l1.1-0.5c0,0,0.5-0.5,0-1.8c-0.6-1.3-1.3-1.3-1.3-1.3l-1.1,0.5L176,23.6z"/>
						<path class="st18" d="M174.7,20.6c0.4-0.2,1,0.4,1.4,1.2c0.4,0.8,0.3,1.7,0,1.8s-0.9-0.4-1.3-1.2
							C174.3,21.6,174.3,20.7,174.7,20.6z"/>
						<path class="st18" d="M176.1,23.6c0,0-1.4,0.6-2.1-1c-0.7-1.6,0.7-2.1,0.7-2.1"/>
					</g>
				</g>
				<g>
					<g>
						<polygon class="st9" points="212.2,36.4 214.2,38 215.6,41.2 214.9,42.8 212.8,41.2 211.4,38 						"/>
						<polygon class="st9" points="214.9,42.8 216.4,42.1 217.2,40.5 215.8,37.3 213.8,35.7 212.2,36.3 214.3,38 215.6,41.2 						
							"/>
					</g>
					<g>
						<path class="st18" d="M212.8,41.7l1.1-0.5c0,0,0.5-0.5,0-1.8c-0.6-1.3-1.3-1.3-1.3-1.3l-1.1,0.5L212.8,41.7z"/>
						<path class="st18" d="M211.4,38.7c0.4-0.2,1,0.4,1.4,1.2c0.4,0.8,0.3,1.7,0,1.8s-0.9-0.4-1.3-1.2S211.1,38.8,211.4,38.7z"/>
						<path class="st18" d="M212.8,41.7c0,0-1.4,0.6-2.1-1c-0.7-1.6,0.7-2.1,0.7-2.1"/>
					</g>
				</g>
				<g>
					<g>
						<polygon class="st9" points="213.3,144 215.4,145.6 216.7,148.9 216,150.4 214,148.9 212.6,145.6 						"/>
						<polygon class="st9" points="216,150.5 217.6,149.8 218.3,148.1 217,144.9 214.9,143.4 213.3,144 215.4,145.6 216.8,148.9 
													"/>
					</g>
					<g>
						<path class="st18" d="M213.9,149.4l1.1-0.5c0,0,0.5-0.5,0-1.8c-0.6-1.3-1.3-1.3-1.3-1.3l-1.1,0.5L213.9,149.4z"/>
						<path class="st18" d="M212.6,146.3c0.4-0.2,1,0.4,1.4,1.2c0.4,0.8,0.3,1.7,0,1.8c-0.4,0.2-0.9-0.4-1.3-1.2
							C212.2,147.3,212.2,146.5,212.6,146.3z"/>
						<path class="st18" d="M214,149.4c0,0-1.4,0.6-2.1-1c-0.7-1.6,0.7-2.1,0.7-2.1"/>
					</g>
				</g>
				<g>
					<g>
						<polygon class="st9" points="176.2,127.7 178.3,129.3 179.6,132.5 179,134.1 176.9,132.5 175.5,129.3 						"/>
						<polygon class="st9" points="178.9,134.1 180.5,133.4 181.2,131.8 179.9,128.6 177.8,127 176.3,127.6 178.3,129.3 
							179.7,132.5 						"/>
					</g>
					<g>
						<path class="st18" d="M176.8,133l1.1-0.5c0,0,0.5-0.5,0-1.8c-0.6-1.3-1.3-1.3-1.3-1.3l-1.1,0.5L176.8,133z"/>
						<path class="st18" d="M175.5,130c0.4-0.2,1,0.4,1.4,1.2c0.4,0.8,0.3,1.7,0,1.8c-0.4,0.2-0.9-0.4-1.3-1.2
							C175.1,130.9,175.1,130.1,175.5,130z"/>
						<path class="st18" d="M176.9,133c0,0-1.4,0.6-2.1-1c-0.7-1.6,0.7-2.1,0.7-2.1"/>
					</g>
				</g>
			</g>
		</g>
	</g>
	<line class="st2" x1="97.1" y1="277.8" x2="97.1" y2="292.2"/>
</g>
</svg>
