<?xml version="1.0" encoding="utf-8"?>
<!-- Generator: Adobe Illustrator 25.2.3, SVG Export Plug-In . SVG Version: 6.00 Build 0)  -->
<svg version="1.1" id="Layer_1" xmlns="http://www.w3.org/2000/svg" xmlns:xlink="http://www.w3.org/1999/xlink" x="0px" y="0px"
	 viewBox="0 0 325.3 261.3" style="enable-background:new 0 0 325.3 261.3;" xml:space="preserve">
<style type="text/css">
	.st0{fill:#CCB9B9;stroke:#FFFFFF;stroke-width:0.5;stroke-linejoin:bevel;stroke-miterlimit:10;}
	.st1{fill:none;stroke:#B79797;stroke-width:0.7011;stroke-miterlimit:10;}
	.st2{fill:#CCB9B9;}
	.st3{fill:#E4DAD8;}
	.st4{fill:#B79797;stroke:#FFFFFF;stroke-width:0.5;stroke-miterlimit:10;}
	.st5{fill:#E4DAD8;stroke:#FFFFFF;stroke-width:0.5;stroke-miterlimit:10;}
	.st6{fill:#CCB9B9;stroke:#FFFFFF;stroke-width:0.5;stroke-miterlimit:10;}
	.st7{fill:#E4DAD8;stroke:#FFFFFF;stroke-width:0.5;stroke-linejoin:bevel;stroke-miterlimit:10;}
	.st8{fill:none;stroke:#FFFFFF;stroke-width:0.5;stroke-miterlimit:10;}
	.st9{fill:#F77441;stroke:#FFFFFF;stroke-width:0.4791;stroke-miterlimit:10;}
	.st10{fill:#F77441;stroke:#F7F3F2;stroke-width:0.5;stroke-miterlimit:10;}
	.st11{fill:#F77441;stroke:#FFFFFF;stroke-width:0.5;stroke-miterlimit:10;}
	.st12{fill:#543C52;}
	.st13{fill:none;stroke:#543C52;stroke-width:0.5;stroke-linecap:round;stroke-miterlimit:10;}
	.st14{fill:#DD335A;stroke:#FFFFFF;stroke-width:0.5;stroke-miterlimit:10;}
	.st15{clip-path:url(#SVGID_2_);fill:#DD335A;stroke:#FFFFFF;stroke-width:0.5;stroke-miterlimit:10;}
	.st16{fill:none;stroke:#361D32;stroke-width:0.5;stroke-miterlimit:10;}
</style>
<g>
	<polygon class="st0" points="163,117.5 219.3,146.1 219.1,102.7 162.9,74.2 	"/>
	<line class="st1" x1="171.3" y1="109.1" x2="171.5" y2="125.2"/>
	<g>
		<g>
			<ellipse class="st2" cx="166.7" cy="78.6" rx="0.7" ry="0.3"/>
			<path class="st2" d="M166,77.8c0,0,0,0.8,0,0.9s1,0.4,1.4,0v-0.9H166z"/>
			<ellipse class="st3" cx="166.7" cy="77.8" rx="0.7" ry="0.3"/>
		</g>
		<g>
			<ellipse class="st2" cx="168.2" cy="79.3" rx="0.7" ry="0.3"/>
			<path class="st2" d="M167.4,78.5c0,0,0,0.8,0,0.9s1,0.4,1.4,0v-0.9H167.4z"/>
			<ellipse class="st3" cx="168.2" cy="78.6" rx="0.7" ry="0.3"/>
		</g>
		<g>
			<ellipse class="st2" cx="169.6" cy="80" rx="0.7" ry="0.3"/>
			<path class="st2" d="M168.9,79.2c0,0,0,0.8,0,0.9s1,0.4,1.4,0v-0.9H168.9z"/>
			<ellipse class="st3" cx="169.6" cy="79.3" rx="0.7" ry="0.3"/>
		</g>
		<g>
			<ellipse class="st2" cx="171" cy="80.7" rx="0.7" ry="0.3"/>
			<path class="st2" d="M170.3,80c0,0,0,0.8,0,0.9s1,0.4,1.4,0V80H170.3z"/>
			<ellipse class="st3" cx="171" cy="80" rx="0.7" ry="0.3"/>
		</g>
		<g>
			<ellipse class="st2" cx="172.4" cy="81.5" rx="0.7" ry="0.3"/>
			<path class="st2" d="M171.7,80.7c0,0,0,0.8,0,0.9s1,0.4,1.4,0v-0.9H171.7z"/>
			<ellipse class="st3" cx="172.4" cy="80.7" rx="0.7" ry="0.3"/>
		</g>
		<g>
			<ellipse class="st2" cx="173.9" cy="82.2" rx="0.7" ry="0.3"/>
			<path class="st2" d="M173.2,81.4c0,0,0,0.8,0,0.9s1,0.4,1.4,0v-0.9H173.2z"/>
			<ellipse class="st3" cx="173.9" cy="81.5" rx="0.7" ry="0.3"/>
		</g>
		<g>
			<ellipse class="st2" cx="175.3" cy="82.9" rx="0.7" ry="0.3"/>
			<path class="st2" d="M174.6,82.2c0,0,0,0.8,0,0.9s1,0.4,1.4,0v-0.9H174.6z"/>
			<ellipse class="st3" cx="175.3" cy="82.2" rx="0.7" ry="0.3"/>
		</g>
		<g>
			<ellipse class="st2" cx="176.7" cy="83.6" rx="0.7" ry="0.3"/>
			<path class="st2" d="M176,82.9c0,0,0,0.8,0,0.9s1,0.4,1.4,0v-0.9H176z"/>
			<ellipse class="st3" cx="176.7" cy="82.9" rx="0.7" ry="0.3"/>
		</g>
		<g>
			<ellipse class="st2" cx="178.2" cy="84.4" rx="0.7" ry="0.3"/>
			<path class="st2" d="M177.4,83.6c0,0,0,0.8,0,0.9s1,0.4,1.4,0v-0.9H177.4z"/>
			<ellipse class="st3" cx="178.2" cy="83.6" rx="0.7" ry="0.3"/>
		</g>
		<g>
			<ellipse class="st2" cx="179.6" cy="85.1" rx="0.7" ry="0.3"/>
			<path class="st2" d="M178.9,84.3c0,0,0,0.8,0,0.9s1,0.4,1.4,0v-0.9H178.9z"/>
			<ellipse class="st3" cx="179.6" cy="84.4" rx="0.7" ry="0.3"/>
		</g>
		<g>
			<ellipse class="st2" cx="181" cy="85.8" rx="0.7" ry="0.3"/>
			<path class="st2" d="M180.3,85.1c0,0,0,0.8,0,0.9s1,0.4,1.4,0v-0.9H180.3z"/>
			<ellipse class="st3" cx="181" cy="85.1" rx="0.7" ry="0.3"/>
		</g>
		<g>
			<ellipse class="st2" cx="182.5" cy="86.5" rx="0.7" ry="0.3"/>
			<path class="st2" d="M181.7,85.8c0,0,0,0.8,0,0.9s1,0.4,1.4,0v-0.9H181.7z"/>
			<ellipse class="st3" cx="182.5" cy="85.8" rx="0.7" ry="0.3"/>
		</g>
		<g>
			<ellipse class="st2" cx="183.9" cy="87.3" rx="0.7" ry="0.3"/>
			<path class="st2" d="M183.2,86.5c0,0,0,0.8,0,0.9s1,0.4,1.4,0v-0.9H183.2z"/>
			<ellipse class="st3" cx="183.9" cy="86.5" rx="0.7" ry="0.3"/>
		</g>
		<g>
			<ellipse class="st2" cx="185.3" cy="88" rx="0.7" ry="0.3"/>
			<path class="st2" d="M184.6,87.2c0,0,0,0.8,0,0.9s1,0.4,1.4,0v-0.9H184.6z"/>
			<ellipse class="st3" cx="185.3" cy="87.3" rx="0.7" ry="0.3"/>
		</g>
		<g>
			<ellipse class="st2" cx="186.7" cy="88.7" rx="0.7" ry="0.3"/>
			<path class="st2" d="M186,88c0,0,0,0.8,0,0.9s1,0.4,1.4,0V88H186z"/>
			<ellipse class="st3" cx="186.7" cy="88" rx="0.7" ry="0.3"/>
		</g>
		<g>
			<ellipse class="st2" cx="188.2" cy="89.5" rx="0.7" ry="0.3"/>
			<path class="st2" d="M187.5,88.7c0,0,0,0.8,0,0.9s1,0.4,1.4,0v-0.9H187.5z"/>
			<ellipse class="st3" cx="188.2" cy="88.7" rx="0.7" ry="0.3"/>
		</g>
		<g>
			<ellipse class="st2" cx="189.6" cy="90.2" rx="0.7" ry="0.3"/>
			<path class="st2" d="M188.9,89.4c0,0,0,0.8,0,0.9s1,0.4,1.4,0v-0.9H188.9z"/>
			<ellipse class="st3" cx="189.6" cy="89.5" rx="0.7" ry="0.3"/>
		</g>
		<g>
			<ellipse class="st2" cx="191" cy="90.9" rx="0.7" ry="0.3"/>
			<path class="st2" d="M190.3,90.1c0,0,0,0.8,0,0.9s1,0.4,1.4,0v-0.9H190.3z"/>
			<ellipse class="st3" cx="191" cy="90.2" rx="0.7" ry="0.3"/>
		</g>
		<g>
			<ellipse class="st2" cx="192.5" cy="91.6" rx="0.7" ry="0.3"/>
			<path class="st2" d="M191.7,90.9c0,0,0,0.8,0,0.9s1,0.4,1.4,0v-0.9H191.7z"/>
			<ellipse class="st3" cx="192.5" cy="90.9" rx="0.7" ry="0.3"/>
		</g>
		<g>
			<ellipse class="st2" cx="193.9" cy="92.4" rx="0.7" ry="0.3"/>
			<path class="st2" d="M193.2,91.6c0,0,0,0.8,0,0.9s1,0.4,1.4,0v-0.9H193.2z"/>
			<ellipse class="st3" cx="193.9" cy="91.6" rx="0.7" ry="0.3"/>
		</g>
		<g>
			<ellipse class="st2" cx="195.3" cy="93.1" rx="0.7" ry="0.3"/>
			<path class="st2" d="M194.6,92.3c0,0,0,0.8,0,0.9s1,0.4,1.4,0v-0.9H194.6z"/>
			<ellipse class="st3" cx="195.3" cy="92.4" rx="0.7" ry="0.3"/>
		</g>
		<g>
			<ellipse class="st2" cx="196.8" cy="93.8" rx="0.7" ry="0.3"/>
			<path class="st2" d="M196,93c0,0,0,0.8,0,0.9s1,0.4,1.4,0V93H196z"/>
			<ellipse class="st3" cx="196.8" cy="93.1" rx="0.7" ry="0.3"/>
		</g>
		<g>
			<ellipse class="st2" cx="198.2" cy="94.5" rx="0.7" ry="0.3"/>
			<path class="st2" d="M197.5,93.8c0,0,0,0.8,0,0.9s1,0.4,1.4,0v-0.9H197.5z"/>
			<ellipse class="st3" cx="198.2" cy="93.8" rx="0.7" ry="0.3"/>
		</g>
		<g>
			<ellipse class="st2" cx="199.6" cy="95.3" rx="0.7" ry="0.3"/>
			<path class="st2" d="M198.9,94.5c0,0,0,0.8,0,0.9s1,0.4,1.4,0v-0.9H198.9z"/>
			<ellipse class="st3" cx="199.6" cy="94.5" rx="0.7" ry="0.3"/>
		</g>
		<g>
			<ellipse class="st2" cx="201.1" cy="96" rx="0.7" ry="0.3"/>
			<path class="st2" d="M200.3,95.2c0,0,0,0.8,0,0.9s1,0.4,1.4,0v-0.9H200.3z"/>
			<ellipse class="st3" cx="201.1" cy="95.3" rx="0.7" ry="0.3"/>
		</g>
		<g>
			<ellipse class="st2" cx="202.5" cy="96.7" rx="0.7" ry="0.3"/>
			<path class="st2" d="M201.8,95.9c0,0,0,0.8,0,0.9s1,0.4,1.4,0v-0.9H201.8z"/>
			<ellipse class="st3" cx="202.5" cy="96" rx="0.7" ry="0.3"/>
		</g>
		<g>
			<ellipse class="st2" cx="203.9" cy="97.4" rx="0.7" ry="0.3"/>
			<path class="st2" d="M203.2,96.7c0,0,0,0.8,0,0.9s1,0.4,1.4,0v-0.9H203.2z"/>
			<ellipse class="st3" cx="203.9" cy="96.7" rx="0.7" ry="0.3"/>
		</g>
		<g>
			<ellipse class="st2" cx="205.3" cy="98.2" rx="0.7" ry="0.3"/>
			<path class="st2" d="M204.6,97.4c0,0,0,0.8,0,0.9s1,0.4,1.4,0v-0.9H204.6z"/>
			<ellipse class="st3" cx="205.3" cy="97.4" rx="0.7" ry="0.3"/>
		</g>
		<g>
			<ellipse class="st2" cx="206.8" cy="98.9" rx="0.7" ry="0.3"/>
			<path class="st2" d="M206.1,98.1c0,0,0,0.8,0,0.9s1,0.4,1.4,0v-0.9H206.1z"/>
			<ellipse class="st3" cx="206.8" cy="98.2" rx="0.7" ry="0.3"/>
		</g>
		<g>
			<ellipse class="st2" cx="208.2" cy="99.6" rx="0.7" ry="0.3"/>
			<path class="st2" d="M207.5,98.9c0,0,0,0.8,0,0.9s1,0.4,1.4,0v-0.9H207.5z"/>
			<ellipse class="st3" cx="208.2" cy="98.9" rx="0.7" ry="0.3"/>
		</g>
	</g>
	<polygon class="st4" points="164,77.8 215.9,103.8 219.9,102 168.1,75.8 	"/>
	<path class="st5" d="M17.6,178.5c0,0,79.4,39.1,79.5,39l135.2-68.3l-79.9-38.6L17.6,178.5z"/>
	<g>
		<polygon class="st6" points="17.2,192.6 96.9,233 232.2,164.9 232.5,149.2 157.1,114.7 17.2,185.2 		"/>
		<polygon class="st6" points="17.2,193.8 17.4,178.5 97.1,217.5 96.8,233 		"/>
		<polygon class="st6" points="0.4,197.6 0.4,210.3 97.4,259.2 260.9,176.9 260.7,163.9 97.2,245.2 		"/>
		<polygon class="st5" points="96.7,245.1 261,163.9 163.8,116.7 0.7,196.6 		"/>
		<polygon class="st6" points="17.2,192.6 96.6,233.6 235,163.3 235.3,147.6 157.1,114.7 17.2,185.2 		"/>
		<polygon class="st0" points="17.2,193.8 17.4,178.5 96.6,218.5 96.5,233.7 		"/>
		<polygon class="st0" points="1,196.7 0.9,211.9 96.6,260 261.5,176.5 261.2,163.5 96.7,245.2 		"/>
		<path class="st7" d="M17.6,178.5l78.9,39.9l139.4-71.2L156,108.6L17.6,178.5z"/>
		<line class="st8" x1="96.6" y1="245.4" x2="96.5" y2="260"/>
	</g>
	<g>
		<polygon class="st6" points="45.7,177.4 165.1,117 165,74.4 43.1,137.9 		"/>
	</g>
	<g>
		<path class="st9" d="M87.1,167.4c-0.9,0.4-2.9-1.9-4.2-4.5c-1.3-2.7-1.6-5.2-0.7-5.6c0.9-0.4,2.7,1.3,4,4
			C87.5,163.9,88.1,166.9,87.1,167.4z"/>
		<g>
			<path class="st10" d="M95.7,164.6c0.4-0.2,0.2-1.9,0.2-1.9l2.1-1c0,0,11.9,1,15.9,0.9c3.2,0,8.8-0.7,12.4-3s4.6-4.2,4.6-4.2
				l1.2-1l3.1-1.5c0,0-0.2,0.5,2.1,0c2.2-0.5,6-2.3,6-2.3l5.1-2.9c0,0,1.6-1.6,1.7-1.9c0-0.3,1.1,0.4,1.5,0.3c0.4-0.1,4.6-2.6,5-2.6
				s1.5-1.1,1.5-1.3l1.8,0.1c0,0,3.9-2.1,4.9-2.8c0.3-0.2,0.5-1.5,0.5-1.5s1,0.6,1.3,0.5l5.3-2.6l1.1-1.4l0.8,0.4l8.1-4.3l1-0.3
				c0,0,0.9-0.8,1.2-1l0.9,0.2l6.1-4c0.2-0.2,9.4-4.3,2.8-18.2c-6.1-12.7-14.1-9.3-16.3-8.8c-1.5,0.3-5.7,2.2-6.5,2.8
				c-0.2,0.2-0.4,0.9-0.6,1c-0.2,0.1-0.7-0.3-0.9-0.2c-1.8,0.7-8.3,3.9-9.7,5c-0.2,0.1-0.2,0.8-0.2,0.8s-0.9,0-1.2,0.1
				c-0.9,0.3-4,1.8-5.9,2.6c-0.2,0.1-0.3,1-0.3,1s-1,0-1.3,0c-1,0.2-5.4,2.6-5.4,2.6c-0.2,0.1-0.2,0.1-0.3,0.2
				c-0.3,0.3-0.3,0.8,0,1.1h-0.1c0,0-1.5-0.5-1.8-0.3c-1.1,0.4-5,2.2-6.2,3c-0.1,0.1-0.1,0.8-0.4,1c-0.3,0.2-1.1-0.1-1.3,0
				c-1.9,0.4-11,5.2-11,5.2l-2.3,2.6l-3.8,1.9l-2.3,0.1c0,0-6.8,1.2-12.1,6.7s-11,15.8-11,15.8l-1.6,1c0,0-0.5,0.4-0.8,0.4
				s-0.9-0.9-1.3-0.6c-0.5,0.3,0,1.7-0.4,2c-1,0.7-3.8,1.9-3.8,1.9l-2.1,1c0,0,1.7,0,3.5,3.8c2.2,4.6,1.4,6.2,1.4,6.2l5.2-2.9
				l1.2-0.3C94.3,163.9,95.3,164.7,95.7,164.6z"/>
			<path class="st9" d="M95.1,164.6c0,0-0.3-5.7-6-12"/>
			<path class="st9" d="M89.9,152.3c5.7,6.3,6,12,6,12"/>
			<path class="st9" d="M110,129.6"/>
			<path class="st11" d="M150.3,145.7c0,0,0.1-5.2-4.5-14.8c-4.8-9.9-8.7-11.8-8.7-11.8"/>
			<path class="st11" d="M157.9,141.9c0,0,1.2-5.1-3.4-14.7c-4.8-9.9-9.5-11.6-9.5-11.6"/>
			<path class="st11" d="M173,134.6c0,0,2.2-5.6-2.4-15.2c-4.8-9.9-10.6-11.1-10.6-11.1"/>
			<path class="st11" d="M165.6,138.4c0,0,2.2-5.6-2.4-15.2c-4.8-9.9-10.6-11.1-10.6-11.1"/>
			<path class="st11" d="M165.6,138.4c0,0,2.2-5.6-2.4-15.2c-4.8-9.9-10.6-11.1-10.6-11.1"/>
			<path class="st11" d="M165.6,138.4c0,0,2.2-5.6-2.4-15.2c-4.8-9.9-10.6-11.1-10.6-11.1"/>
			<path class="st11" d="M165.6,138.4c0,0,2.2-5.6-2.4-15.2c-4.8-9.9-10.6-11.1-10.6-11.1"/>
			<path class="st11" d="M183.8,129.4c0,0,2.1-5.7-2.6-15.6c-4.9-10.2-10.8-11.5-10.8-11.5"/>
			<path class="st11" d="M131.9,154.6c0,0-2.3-8.4-4.9-14.5c-2.6-6.2-8.4-11.4-8.4-11.4"/>
			<path class="st11" d="M135.2,152.8c0,0-0.6-7.7-3.6-14.2c-3.1-6.5-9.3-11.4-9.3-11.4"/>
		</g>
	</g>
	<g>
		<g>
			<ellipse class="st2" cx="213.4" cy="116.7" rx="0.7" ry="0.3"/>
			<path class="st2" d="M212.7,115.9c0,0,0,0.8,0,0.9s1,0.4,1.4,0v-0.9H212.7z"/>
			<ellipse class="st3" cx="213.4" cy="115.9" rx="0.7" ry="0.3"/>
		</g>
		<g>
			<ellipse class="st2" cx="212" cy="117.4" rx="0.7" ry="0.3"/>
			<path class="st2" d="M211.3,116.6c0,0,0,0.8,0,0.9s1,0.4,1.4,0v-0.9H211.3z"/>
			<ellipse class="st3" cx="212" cy="116.6" rx="0.7" ry="0.3"/>
		</g>
		<g>
			<ellipse class="st2" cx="210.6" cy="118.1" rx="0.7" ry="0.3"/>
			<path class="st2" d="M209.8,117.3c0,0,0,0.8,0,0.9s1,0.4,1.4,0v-0.9H209.8z"/>
			<ellipse class="st3" cx="210.6" cy="117.4" rx="0.7" ry="0.3"/>
		</g>
		<g>
			<ellipse class="st2" cx="209.1" cy="118.8" rx="0.7" ry="0.3"/>
			<path class="st2" d="M208.4,118c0,0,0,0.8,0,0.9s1,0.4,1.4,0V118H208.4z"/>
			<ellipse class="st3" cx="209.1" cy="118.1" rx="0.7" ry="0.3"/>
		</g>
		<g>
			<ellipse class="st2" cx="207.7" cy="119.5" rx="0.7" ry="0.3"/>
			<path class="st2" d="M207,118.7c0,0,0,0.8,0,0.9s1,0.4,1.4,0v-0.9H207z"/>
			<ellipse class="st3" cx="207.7" cy="118.8" rx="0.7" ry="0.3"/>
		</g>
		<g>
			<ellipse class="st2" cx="206.2" cy="120.2" rx="0.7" ry="0.3"/>
			<path class="st2" d="M205.5,119.5c0,0,0,0.8,0,0.9s1,0.4,1.4,0v-0.9H205.5z"/>
			<ellipse class="st3" cx="206.2" cy="119.5" rx="0.7" ry="0.3"/>
		</g>
		<g>
			<ellipse class="st2" cx="204.8" cy="120.9" rx="0.7" ry="0.3"/>
			<path class="st2" d="M204.1,120.2c0,0,0,0.8,0,0.9s1,0.4,1.4,0v-0.9H204.1z"/>
			<ellipse class="st3" cx="204.8" cy="120.2" rx="0.7" ry="0.3"/>
		</g>
		<g>
			<ellipse class="st2" cx="203.4" cy="121.6" rx="0.7" ry="0.3"/>
			<path class="st2" d="M202.6,120.9c0,0,0,0.8,0,0.9s1,0.4,1.4,0v-0.9H202.6z"/>
			<ellipse class="st3" cx="203.4" cy="120.9" rx="0.7" ry="0.3"/>
		</g>
		<g>
			<ellipse class="st2" cx="201.9" cy="122.4" rx="0.7" ry="0.3"/>
			<path class="st2" d="M201.2,121.6c0,0,0,0.8,0,0.9s1,0.4,1.4,0v-0.9H201.2z"/>
			<ellipse class="st3" cx="201.9" cy="121.6" rx="0.7" ry="0.3"/>
		</g>
		<g>
			<ellipse class="st2" cx="200.5" cy="123.1" rx="0.7" ry="0.3"/>
			<path class="st2" d="M199.7,122.3c0,0,0,0.8,0,0.9s1,0.4,1.4,0v-0.9H199.7z"/>
			<ellipse class="st3" cx="200.5" cy="122.3" rx="0.7" ry="0.3"/>
		</g>
		<g>
			<ellipse class="st2" cx="199" cy="123.8" rx="0.7" ry="0.3"/>
			<path class="st2" d="M198.3,123c0,0,0,0.8,0,0.9s1,0.4,1.4,0V123H198.3z"/>
			<ellipse class="st3" cx="199" cy="123" rx="0.7" ry="0.3"/>
		</g>
		<g>
			<ellipse class="st2" cx="197.6" cy="124.5" rx="0.7" ry="0.3"/>
			<path class="st2" d="M196.9,123.7c0,0,0,0.8,0,0.9s1,0.4,1.4,0v-0.9H196.9z"/>
			<ellipse class="st3" cx="197.6" cy="123.8" rx="0.7" ry="0.3"/>
		</g>
		<g>
			<ellipse class="st2" cx="196.2" cy="125.2" rx="0.7" ry="0.3"/>
			<path class="st2" d="M195.4,124.4c0,0,0,0.8,0,0.9s1,0.4,1.4,0v-0.9H195.4z"/>
			<ellipse class="st3" cx="196.2" cy="124.5" rx="0.7" ry="0.3"/>
		</g>
		<g>
			<ellipse class="st2" cx="194.7" cy="125.9" rx="0.7" ry="0.3"/>
			<path class="st2" d="M194,125.1c0,0,0,0.8,0,0.9s1,0.4,1.4,0v-0.9H194z"/>
			<ellipse class="st3" cx="194.7" cy="125.2" rx="0.7" ry="0.3"/>
		</g>
		<g>
			<ellipse class="st2" cx="193.3" cy="126.6" rx="0.7" ry="0.3"/>
			<path class="st2" d="M192.5,125.9c0,0,0,0.8,0,0.9s1,0.4,1.4,0v-0.9H192.5z"/>
			<ellipse class="st3" cx="193.3" cy="125.9" rx="0.7" ry="0.3"/>
		</g>
		<g>
			<ellipse class="st2" cx="191.8" cy="127.3" rx="0.7" ry="0.3"/>
			<path class="st2" d="M191.1,126.6c0,0,0,0.8,0,0.9s1,0.4,1.4,0v-0.9H191.1z"/>
			<ellipse class="st3" cx="191.8" cy="126.6" rx="0.7" ry="0.3"/>
		</g>
		<g>
			<ellipse class="st2" cx="190.4" cy="128" rx="0.7" ry="0.3"/>
			<path class="st2" d="M189.7,127.3c0,0,0,0.8,0,0.9c0,0.1,1,0.4,1.4,0v-0.9C191.1,127.3,189.7,127.3,189.7,127.3z"/>
			<ellipse class="st3" cx="190.4" cy="127.3" rx="0.7" ry="0.3"/>
		</g>
		<g>
			<ellipse class="st2" cx="189" cy="128.7" rx="0.7" ry="0.3"/>
			<path class="st2" d="M188.2,128c0,0,0,0.8,0,0.9s1,0.4,1.4,0V128C189.6,128,188.2,128,188.2,128z"/>
			<ellipse class="st3" cx="189" cy="128" rx="0.7" ry="0.3"/>
		</g>
		<g>
			<ellipse class="st2" cx="187.5" cy="129.5" rx="0.7" ry="0.3"/>
			<path class="st2" d="M186.8,128.7c0,0,0,0.8,0,0.9c0,0.1,1,0.4,1.4,0v-0.9H186.8z"/>
			<ellipse class="st3" cx="187.5" cy="128.7" rx="0.7" ry="0.3"/>
		</g>
		<g>
			<ellipse class="st2" cx="186.1" cy="130.2" rx="0.7" ry="0.3"/>
			<path class="st2" d="M185.3,129.4c0,0,0,0.8,0,0.9c0,0.1,1,0.4,1.4,0v-0.9H185.3z"/>
			<ellipse class="st3" cx="186.1" cy="129.4" rx="0.7" ry="0.3"/>
		</g>
		<g>
			<ellipse class="st2" cx="184.6" cy="130.9" rx="0.7" ry="0.3"/>
			<path class="st2" d="M183.9,130.1c0,0,0,0.8,0,0.9c0,0.1,1,0.4,1.4,0v-0.9H183.9z"/>
			<ellipse class="st3" cx="184.6" cy="130.2" rx="0.7" ry="0.3"/>
		</g>
		<g>
			<ellipse class="st2" cx="183.2" cy="131.6" rx="0.7" ry="0.3"/>
			<path class="st2" d="M182.5,130.8c0,0,0,0.8,0,0.9c0,0.1,1,0.4,1.4,0v-0.9H182.5z"/>
			<ellipse class="st3" cx="183.2" cy="130.9" rx="0.7" ry="0.3"/>
		</g>
		<g>
			<ellipse class="st2" cx="181.8" cy="132.3" rx="0.7" ry="0.3"/>
			<path class="st2" d="M181,131.5c0,0,0,0.8,0,0.9c0,0.1,1,0.4,1.4,0v-0.9H181z"/>
			<ellipse class="st3" cx="181.8" cy="131.6" rx="0.7" ry="0.3"/>
		</g>
		<g>
			<ellipse class="st2" cx="180.3" cy="133" rx="0.7" ry="0.3"/>
			<path class="st2" d="M179.6,132.3c0,0,0,0.8,0,0.9c0,0.1,1,0.4,1.4,0v-0.9H179.6z"/>
			<ellipse class="st3" cx="180.3" cy="132.3" rx="0.7" ry="0.3"/>
		</g>
		<g>
			<ellipse class="st2" cx="178.9" cy="133.7" rx="0.7" ry="0.3"/>
			<path class="st2" d="M178.1,133c0,0,0,0.8,0,0.9c0,0.1,1,0.4,1.4,0V133H178.1z"/>
			<ellipse class="st3" cx="178.9" cy="133" rx="0.7" ry="0.3"/>
		</g>
		<g>
			<ellipse class="st2" cx="177.4" cy="134.4" rx="0.7" ry="0.3"/>
			<path class="st2" d="M176.7,133.7c0,0,0,0.8,0,0.9s1,0.4,1.4,0v-0.9H176.7z"/>
			<ellipse class="st3" cx="177.4" cy="133.7" rx="0.7" ry="0.3"/>
		</g>
		<g>
			<ellipse class="st2" cx="176" cy="135.1" rx="0.7" ry="0.3"/>
			<path class="st2" d="M175.3,134.4c0,0,0,0.8,0,0.9s1,0.4,1.4,0v-0.9H175.3z"/>
			<ellipse class="st3" cx="176" cy="134.4" rx="0.7" ry="0.3"/>
		</g>
		<g>
			<ellipse class="st2" cx="174.6" cy="135.9" rx="0.7" ry="0.3"/>
			<path class="st2" d="M173.8,135.1c0,0,0,0.8,0,0.9c0,0.1,1,0.4,1.4,0v-0.9H173.8z"/>
			<ellipse class="st3" cx="174.5" cy="135.1" rx="0.7" ry="0.3"/>
		</g>
		<g>
			<ellipse class="st2" cx="173.1" cy="136.6" rx="0.7" ry="0.3"/>
			<path class="st2" d="M172.4,135.8c0,0,0,0.8,0,0.9c0,0.1,1,0.4,1.4,0v-0.9H172.4z"/>
			<ellipse class="st3" cx="173.1" cy="135.8" rx="0.7" ry="0.3"/>
		</g>
		<g>
			<ellipse class="st2" cx="171.7" cy="137.3" rx="0.7" ry="0.3"/>
			<path class="st2" d="M170.9,136.5c0,0,0,0.8,0,0.9c0,0.1,1,0.4,1.4,0v-0.9H170.9z"/>
			<ellipse class="st3" cx="171.7" cy="136.6" rx="0.7" ry="0.3"/>
		</g>
		<g>
			<ellipse class="st2" cx="170.2" cy="138" rx="0.7" ry="0.3"/>
			<path class="st2" d="M169.5,137.2c0,0,0,0.8,0,0.9c0,0.1,1,0.4,1.4,0v-0.9H169.5z"/>
			<ellipse class="st3" cx="170.2" cy="137.3" rx="0.7" ry="0.3"/>
		</g>
		<g>
			<ellipse class="st2" cx="168.8" cy="138.7" rx="0.7" ry="0.3"/>
			<path class="st2" d="M168.1,137.9c0,0,0,0.8,0,0.9c0,0.1,1,0.4,1.4,0v-0.9H168.1z"/>
			<ellipse class="st3" cx="168.8" cy="138" rx="0.7" ry="0.3"/>
		</g>
		<g>
			<ellipse class="st2" cx="167.3" cy="139.4" rx="0.7" ry="0.3"/>
			<path class="st2" d="M166.6,138.6c0,0,0,0.8,0,0.9c0,0.1,1,0.4,1.4,0v-0.9H166.6z"/>
			<ellipse class="st3" cx="167.3" cy="138.7" rx="0.7" ry="0.3"/>
		</g>
		<g>
			<ellipse class="st2" cx="165.9" cy="140.1" rx="0.7" ry="0.3"/>
			<path class="st2" d="M165.2,139.4c0,0,0,0.8,0,0.9s1,0.4,1.4,0v-0.9H165.2z"/>
			<ellipse class="st3" cx="165.9" cy="139.4" rx="0.7" ry="0.3"/>
		</g>
		<g>
			<ellipse class="st2" cx="164.5" cy="140.8" rx="0.7" ry="0.3"/>
			<path class="st2" d="M163.7,140.1c0,0,0,0.8,0,0.9s1,0.4,1.4,0v-0.9H163.7z"/>
			<ellipse class="st3" cx="164.5" cy="140.1" rx="0.7" ry="0.3"/>
		</g>
		<g>
			<ellipse class="st2" cx="163" cy="141.5" rx="0.7" ry="0.3"/>
			<path class="st2" d="M162.3,140.8c0,0,0,0.8,0,0.9c0,0.1,1,0.4,1.4,0v-0.9H162.3z"/>
			<ellipse class="st3" cx="163" cy="140.8" rx="0.7" ry="0.3"/>
		</g>
		<g>
			<ellipse class="st2" cx="161.6" cy="142.3" rx="0.7" ry="0.3"/>
			<path class="st2" d="M160.9,141.5c0,0,0,0.8,0,0.9c0,0.1,1,0.4,1.4,0v-0.9H160.9z"/>
			<ellipse class="st3" cx="161.6" cy="141.5" rx="0.7" ry="0.3"/>
		</g>
		<g>
			<ellipse class="st2" cx="160.1" cy="143" rx="0.7" ry="0.3"/>
			<path class="st2" d="M159.4,142.2c0,0,0,0.8,0,0.9c0,0.1,1,0.4,1.4,0v-0.9H159.4z"/>
			<ellipse class="st3" cx="160.1" cy="142.2" rx="0.7" ry="0.3"/>
		</g>
		<g>
			<ellipse class="st2" cx="158.7" cy="143.7" rx="0.7" ry="0.3"/>
			<path class="st2" d="M158,142.9c0,0,0,0.8,0,0.9c0,0.1,1,0.4,1.4,0v-0.9H158z"/>
			<ellipse class="st3" cx="158.7" cy="143" rx="0.7" ry="0.3"/>
		</g>
		<g>
			<ellipse class="st2" cx="157.3" cy="144.4" rx="0.7" ry="0.3"/>
			<path class="st2" d="M156.5,143.6c0,0,0,0.8,0,0.9c0,0.1,1,0.4,1.4,0v-0.9H156.5z"/>
			<ellipse class="st3" cx="157.3" cy="143.7" rx="0.7" ry="0.3"/>
		</g>
		<g>
			<ellipse class="st2" cx="155.8" cy="145.1" rx="0.7" ry="0.3"/>
			<path class="st2" d="M155.1,144.3c0,0,0,0.8,0,0.9c0,0.1,1,0.4,1.4,0v-0.9H155.1z"/>
			<ellipse class="st3" cx="155.8" cy="144.4" rx="0.7" ry="0.3"/>
		</g>
		<g>
			<ellipse class="st2" cx="154.4" cy="145.8" rx="0.7" ry="0.3"/>
			<path class="st2" d="M153.7,145c0,0,0,0.8,0,0.9s1,0.4,1.4,0V145H153.7z"/>
			<ellipse class="st3" cx="154.4" cy="145.1" rx="0.7" ry="0.3"/>
		</g>
		<g>
			<ellipse class="st2" cx="152.9" cy="146.5" rx="0.7" ry="0.3"/>
			<path class="st2" d="M152.2,145.8c0,0,0,0.8,0,0.9s1,0.4,1.4,0v-0.9H152.2z"/>
			<ellipse class="st3" cx="152.9" cy="145.8" rx="0.7" ry="0.3"/>
		</g>
		<g>
			<ellipse class="st2" cx="151.5" cy="147.2" rx="0.7" ry="0.3"/>
			<path class="st2" d="M150.8,146.5c0,0,0,0.8,0,0.9c0,0.1,1,0.4,1.4,0v-0.9H150.8z"/>
			<ellipse class="st3" cx="151.5" cy="146.5" rx="0.7" ry="0.3"/>
		</g>
		<g>
			<ellipse class="st2" cx="150.1" cy="147.9" rx="0.7" ry="0.3"/>
			<path class="st2" d="M149.3,147.2c0,0,0,0.8,0,0.9c0,0.1,1,0.4,1.4,0v-0.9H149.3z"/>
			<ellipse class="st3" cx="150.1" cy="147.2" rx="0.7" ry="0.3"/>
		</g>
		<g>
			<ellipse class="st2" cx="148.6" cy="148.7" rx="0.7" ry="0.3"/>
			<path class="st2" d="M147.9,147.9c0,0,0,0.8,0,0.9c0,0.1,1,0.4,1.4,0v-0.9H147.9z"/>
			<ellipse class="st3" cx="148.6" cy="147.9" rx="0.7" ry="0.3"/>
		</g>
		<g>
			<ellipse class="st2" cx="147.2" cy="149.4" rx="0.7" ry="0.3"/>
			<path class="st2" d="M146.5,148.6c0,0,0,0.8,0,0.9c0,0.1,1,0.4,1.4,0v-0.9H146.5z"/>
			<ellipse class="st3" cx="147.2" cy="148.6" rx="0.7" ry="0.3"/>
		</g>
		<g>
			<ellipse class="st2" cx="145.7" cy="150.1" rx="0.7" ry="0.3"/>
			<path class="st2" d="M145,149.3c0,0,0,0.8,0,0.9c0,0.1,1,0.4,1.4,0v-0.9H145z"/>
			<ellipse class="st3" cx="145.7" cy="149.4" rx="0.7" ry="0.3"/>
		</g>
		<g>
			<ellipse class="st2" cx="144.3" cy="150.8" rx="0.7" ry="0.3"/>
			<path class="st2" d="M143.6,150c0,0,0,0.8,0,0.9c0,0.1,1,0.4,1.4,0V150H143.6z"/>
			<ellipse class="st3" cx="144.3" cy="150.1" rx="0.7" ry="0.3"/>
		</g>
		<g>
			<ellipse class="st2" cx="142.9" cy="151.5" rx="0.7" ry="0.3"/>
			<path class="st2" d="M142.1,150.7c0,0,0,0.8,0,0.9c0,0.1,1,0.4,1.4,0v-0.9H142.1z"/>
			<ellipse class="st3" cx="142.9" cy="150.8" rx="0.7" ry="0.3"/>
		</g>
		<g>
			<ellipse class="st2" cx="141.4" cy="152.2" rx="0.7" ry="0.3"/>
			<path class="st2" d="M140.7,151.4c0,0,0,0.8,0,0.9s1,0.4,1.4,0v-0.9H140.7z"/>
			<ellipse class="st3" cx="141.4" cy="151.5" rx="0.7" ry="0.3"/>
		</g>
		<g>
			<ellipse class="st2" cx="140" cy="152.9" rx="0.7" ry="0.3"/>
			<path class="st2" d="M139.3,152.2c0,0,0,0.8,0,0.9c0,0.1,1,0.4,1.4,0v-0.9H139.3z"/>
			<ellipse class="st3" cx="140" cy="152.2" rx="0.7" ry="0.3"/>
		</g>
		<g>
			<ellipse class="st2" cx="138.5" cy="153.6" rx="0.7" ry="0.3"/>
			<path class="st2" d="M137.8,152.9c0,0,0,0.8,0,0.9c0,0.1,1,0.4,1.4,0v-0.9H137.8z"/>
			<ellipse class="st3" cx="138.5" cy="152.9" rx="0.7" ry="0.3"/>
		</g>
		<g>
			<ellipse class="st2" cx="137.1" cy="154.3" rx="0.7" ry="0.3"/>
			<path class="st2" d="M136.4,153.6c0,0,0,0.8,0,0.9c0,0.1,1,0.4,1.4,0v-0.9H136.4z"/>
			<ellipse class="st3" cx="137.1" cy="153.6" rx="0.7" ry="0.3"/>
		</g>
		<g>
			<ellipse class="st2" cx="135.7" cy="155.1" rx="0.7" ry="0.3"/>
			<path class="st2" d="M134.9,154.3c0,0,0,0.8,0,0.9c0,0.1,1,0.4,1.4,0v-0.9H134.9z"/>
			<ellipse class="st3" cx="135.7" cy="154.3" rx="0.7" ry="0.3"/>
		</g>
		<g>
			<ellipse class="st2" cx="134.2" cy="155.8" rx="0.7" ry="0.3"/>
			<path class="st2" d="M133.5,155c0,0,0,0.8,0,0.9c0,0.1,1,0.4,1.4,0V155H133.5z"/>
			<ellipse class="st3" cx="134.2" cy="155" rx="0.7" ry="0.3"/>
		</g>
		<g>
			<ellipse class="st2" cx="132.8" cy="156.5" rx="0.7" ry="0.3"/>
			<path class="st2" d="M132.1,155.7c0,0,0,0.8,0,0.9c0,0.1,1,0.4,1.4,0v-0.9H132.1z"/>
			<ellipse class="st3" cx="132.8" cy="155.8" rx="0.7" ry="0.3"/>
		</g>
		<g>
			<ellipse class="st2" cx="131.3" cy="157.2" rx="0.7" ry="0.3"/>
			<path class="st2" d="M130.6,156.4c0,0,0,0.8,0,0.9c0,0.1,1,0.4,1.4,0v-0.9H130.6z"/>
			<ellipse class="st3" cx="131.3" cy="156.5" rx="0.7" ry="0.3"/>
		</g>
		<g>
			<ellipse class="st2" cx="129.9" cy="157.9" rx="0.7" ry="0.3"/>
			<path class="st2" d="M129.2,157.1c0,0,0,0.8,0,0.9s1,0.4,1.4,0v-0.9H129.2z"/>
			<ellipse class="st3" cx="129.9" cy="157.2" rx="0.7" ry="0.3"/>
		</g>
		<g>
			<ellipse class="st2" cx="128.5" cy="158.6" rx="0.7" ry="0.3"/>
			<path class="st2" d="M127.7,157.8c0,0,0,0.8,0,0.9c0,0.1,1,0.4,1.4,0v-0.9H127.7z"/>
			<ellipse class="st3" cx="128.5" cy="157.9" rx="0.7" ry="0.3"/>
		</g>
		<g>
			<ellipse class="st2" cx="127" cy="159.3" rx="0.7" ry="0.3"/>
			<path class="st2" d="M126.3,158.6c0,0,0,0.8,0,0.9c0,0.1,1,0.4,1.4,0v-0.9H126.3z"/>
			<ellipse class="st3" cx="127" cy="158.6" rx="0.7" ry="0.3"/>
		</g>
		<g>
			<ellipse class="st2" cx="125.6" cy="160" rx="0.7" ry="0.3"/>
			<path class="st2" d="M124.9,159.3c0,0,0,0.8,0,0.9c0,0.1,1,0.4,1.4,0v-0.9H124.9z"/>
			<ellipse class="st3" cx="125.6" cy="159.3" rx="0.7" ry="0.3"/>
		</g>
		<g>
			<ellipse class="st2" cx="124.1" cy="160.7" rx="0.7" ry="0.3"/>
			<path class="st2" d="M123.4,160c0,0,0,0.8,0,0.9c0,0.1,1,0.4,1.4,0V160H123.4z"/>
			<ellipse class="st3" cx="124.1" cy="160" rx="0.7" ry="0.3"/>
		</g>
		<g>
			<ellipse class="st2" cx="122.7" cy="161.5" rx="0.7" ry="0.3"/>
			<path class="st2" d="M122,160.7c0,0,0,0.8,0,0.9c0,0.1,1,0.4,1.4,0v-0.9H122z"/>
			<ellipse class="st3" cx="122.7" cy="160.7" rx="0.7" ry="0.3"/>
		</g>
		<g>
			<ellipse class="st2" cx="121.3" cy="162.2" rx="0.7" ry="0.3"/>
			<path class="st2" d="M120.5,161.4c0,0,0,0.8,0,0.9c0,0.1,1,0.4,1.4,0v-0.9H120.5z"/>
			<ellipse class="st3" cx="121.3" cy="161.4" rx="0.7" ry="0.3"/>
		</g>
		<g>
			<ellipse class="st2" cx="119.8" cy="162.9" rx="0.7" ry="0.3"/>
			<path class="st2" d="M119.1,162.1c0,0,0,0.8,0,0.9c0,0.1,1,0.4,1.4,0v-0.9H119.1z"/>
			<ellipse class="st3" cx="119.8" cy="162.2" rx="0.7" ry="0.3"/>
		</g>
		<g>
			<ellipse class="st2" cx="118.4" cy="163.6" rx="0.7" ry="0.3"/>
			<path class="st2" d="M117.7,162.8c0,0,0,0.8,0,0.9s1,0.4,1.4,0v-0.9H117.7z"/>
			<ellipse class="st3" cx="118.4" cy="162.9" rx="0.7" ry="0.3"/>
		</g>
		<g>
			<ellipse class="st2" cx="116.9" cy="164.3" rx="0.7" ry="0.3"/>
			<path class="st2" d="M116.2,163.5c0,0,0,0.8,0,0.9c0,0.1,1,0.4,1.4,0v-0.9H116.2z"/>
			<ellipse class="st3" cx="116.9" cy="163.6" rx="0.7" ry="0.3"/>
		</g>
		<g>
			<ellipse class="st2" cx="115.5" cy="165" rx="0.7" ry="0.3"/>
			<path class="st2" d="M114.8,164.2c0,0,0,0.8,0,0.9c0,0.1,1,0.4,1.4,0v-0.9H114.8z"/>
			<ellipse class="st3" cx="115.5" cy="164.3" rx="0.7" ry="0.3"/>
		</g>
		<g>
			<ellipse class="st2" cx="114.1" cy="165.7" rx="0.7" ry="0.3"/>
			<path class="st2" d="M113.3,165c0,0,0,0.8,0,0.9c0,0.1,1,0.4,1.4,0V165H113.3z"/>
			<ellipse class="st3" cx="114.1" cy="165" rx="0.7" ry="0.3"/>
		</g>
		<g>
			<ellipse class="st2" cx="112.6" cy="166.4" rx="0.7" ry="0.3"/>
			<path class="st2" d="M111.9,165.7c0,0,0,0.8,0,0.9c0,0.1,1,0.4,1.4,0v-0.9H111.9z"/>
			<ellipse class="st3" cx="112.6" cy="165.7" rx="0.7" ry="0.3"/>
		</g>
		<g>
			<ellipse class="st2" cx="111.2" cy="167.1" rx="0.7" ry="0.3"/>
			<path class="st2" d="M110.5,166.4c0,0,0,0.8,0,0.9c0,0.1,1,0.4,1.4,0v-0.9H110.5z"/>
			<ellipse class="st3" cx="111.2" cy="166.4" rx="0.7" ry="0.3"/>
		</g>
		<g>
			<ellipse class="st2" cx="109.7" cy="167.9" rx="0.7" ry="0.3"/>
			<path class="st2" d="M109,167.1c0,0,0,0.8,0,0.9c0,0.1,1,0.4,1.4,0v-0.9H109z"/>
			<ellipse class="st3" cx="109.7" cy="167.1" rx="0.7" ry="0.3"/>
		</g>
		<g>
			<ellipse class="st2" cx="108.3" cy="168.6" rx="0.7" ry="0.3"/>
			<path class="st2" d="M107.6,167.8c0,0,0,0.8,0,0.9c0,0.1,1,0.4,1.4,0v-0.9H107.6z"/>
			<ellipse class="st3" cx="108.3" cy="167.8" rx="0.7" ry="0.3"/>
		</g>
		<g>
			<ellipse class="st2" cx="106.9" cy="169.3" rx="0.7" ry="0.3"/>
			<path class="st2" d="M106.1,168.5c0,0,0,0.8,0,0.9s1,0.4,1.4,0v-0.9H106.1z"/>
			<ellipse class="st3" cx="106.9" cy="168.6" rx="0.7" ry="0.3"/>
		</g>
		<g>
			<ellipse class="st2" cx="105.4" cy="170" rx="0.7" ry="0.3"/>
			<path class="st2" d="M104.7,169.2c0,0,0,0.8,0,0.9c0,0.1,1,0.4,1.4,0v-0.9H104.7z"/>
			<ellipse class="st3" cx="105.4" cy="169.3" rx="0.7" ry="0.3"/>
		</g>
		<g>
			<ellipse class="st2" cx="104" cy="170.7" rx="0.7" ry="0.3"/>
			<path class="st2" d="M103.3,169.9c0,0,0,0.8,0,0.9c0,0.1,1,0.4,1.4,0v-0.9H103.3z"/>
			<ellipse class="st3" cx="104" cy="170" rx="0.7" ry="0.3"/>
		</g>
		<g>
			<ellipse class="st2" cx="102.5" cy="171.4" rx="0.7" ry="0.3"/>
			<path class="st2" d="M101.8,170.6c0,0,0,0.8,0,0.9c0,0.1,1,0.4,1.4,0v-0.9H101.8z"/>
			<ellipse class="st3" cx="102.5" cy="170.7" rx="0.7" ry="0.3"/>
		</g>
		<g>
			<ellipse class="st2" cx="101.1" cy="172.1" rx="0.7" ry="0.3"/>
			<path class="st2" d="M100.4,171.4c0,0,0,0.8,0,0.9c0,0.1,1,0.4,1.4,0v-0.9H100.4z"/>
			<ellipse class="st3" cx="101.1" cy="171.4" rx="0.7" ry="0.3"/>
		</g>
		<g>
			<ellipse class="st2" cx="99.7" cy="172.8" rx="0.7" ry="0.3"/>
			<path class="st2" d="M98.9,172.1c0,0,0,0.8,0,0.9c0,0.1,1,0.4,1.4,0v-0.9H98.9z"/>
			<ellipse class="st3" cx="99.7" cy="172.1" rx="0.7" ry="0.3"/>
		</g>
		<g>
			<ellipse class="st2" cx="98.2" cy="173.5" rx="0.7" ry="0.3"/>
			<path class="st2" d="M97.5,172.8c0,0,0,0.8,0,0.9c0,0.1,1,0.4,1.4,0v-0.9H97.5z"/>
			<ellipse class="st3" cx="98.2" cy="172.8" rx="0.7" ry="0.3"/>
		</g>
		<g>
			<ellipse class="st2" cx="96.8" cy="174.3" rx="0.7" ry="0.3"/>
			<path class="st2" d="M96.1,173.5c0,0,0,0.8,0,0.9c0,0.1,1,0.4,1.4,0v-0.9H96.1z"/>
			<ellipse class="st3" cx="96.8" cy="173.5" rx="0.7" ry="0.3"/>
		</g>
		<g>
			<ellipse class="st2" cx="95.3" cy="175" rx="0.7" ry="0.3"/>
			<path class="st2" d="M94.6,174.2c0,0,0,0.8,0,0.9s1,0.4,1.4,0v-0.9H94.6z"/>
			<ellipse class="st3" cx="95.3" cy="174.2" rx="0.7" ry="0.3"/>
		</g>
	</g>
	<g>
		<path class="st12" d="M82.4,178.8c0,0,2.5-0.1,5.3-1.1c1.1-0.4,6.1-2.2,7.8-2.3c1.9,0,0.5-1,1.9-1.5c3.2-1.1,7-2.5,16.3-5.1
			c13.2-3.6,33.6-13.8,33.6-13.8l43.6-22l11.6-7.8l10.3,5.6l-37.4,17.6L150.5,161l-36,16.6L97,186.4L82.4,178.8z"/>
		<path class="st12" d="M193.8,130.1l-2.6-9c0.5-1,11.2,3.5,10.7,4.5l-8.1,7.5L193.8,130.1L193.8,130.1z"/>
	</g>
	<line class="st13" x1="99.7" y1="180.3" x2="202.5" y2="132"/>
	<polygon class="st0" points="40.3,178.9 96.6,207.5 96.3,164.1 40.2,135.6 	"/>
	<polygon class="st6" points="96.5,207.1 220.4,143.7 220.3,102.2 96.4,164.2 	"/>
	<path class="st14" d="M164.9,84.5L55.5,140.3L96,160l110.4-55L164.9,84.5z M115.8,145l64.9-33c0,0,8.1-2.1,4,0.9s-83,42.5-83,37.8
		C101.8,145.9,115.8,145,115.8,145z"/>
	<polygon class="st4" points="44.9,137.8 96.1,164.3 99.7,162.5 48.6,136 	"/>
	<polygon class="st4" points="96.3,164.2 220,102.1 216.4,100.3 92.5,162.1 	"/>
	<polygon class="st4" points="44.9,137.8 168.9,76.4 164.8,74.4 41.1,135.7 	"/>
	<g>
		<g>
			<g>
				<g>
					<defs>
						<path id="SVGID_1_" d="M243.9,4.6c4.4,3,8.8,15-1.5,27.1S203,48.3,203,48.3s12.5,2.2,17.7,4.1s50.9,59.3,56,61.4
							c3.8,1.8,23.7,0.2,36.8-14.3s11.8-29.1,10.3-32.8c-1.3-3.1-57.2-45-74.7-58.2L243.9,4.6"/>
					</defs>
					<clipPath id="SVGID_2_">
						<use xlink:href="#SVGID_1_"  style="overflow:visible;"/>
					</clipPath>
					<path class="st15" d="M323.9,67.6c0,0,0.6,19.3-11.2,31.1c-15.8,15.3-33.9,15-35.8,15C271,108.8,227,53.4,219,50.5
						s-17.1,0-17.1,0l11.2-5l11.6-2.6l26.7,9l16.8,2l45.6,5.3L323.9,67.6z"/>
				</g>
				<g>
					<path id="XMLID_48_" class="st16" d="M243.9,4.6c4.4,3,8.8,15-1.5,27.1S203,48.3,203,48.3s12.5,2.2,17.7,4.1s50.9,59.3,56,61.4
						c3.8,1.8,23.7,0.2,36.8-14.3s11.8-29.1,10.3-32.8c-1.3-3.1-57.2-45-74.7-58.2L243.9,4.6"/>
				</g>
			</g>
			<path class="st16" d="M200,48.3c0,0-3.5-13,12.9-32.7s28.6-12.9,31-10.9"/>
		</g>
		<path class="st14" d="M221.8,42.2c-1.6-3.3-22.6-2-30.7,10.5s-7.4,15.6-7.4,15.6l-2.3,35.8c0,0,4.7,15,3.2,0.9
			c-1.5-14.2,6-43.8,9.5-47.1c3.4-3.2,7.4-5.6,14.1-10.3C213.2,44.3,222.5,43.6,221.8,42.2z"/>
	</g>
</g>
</svg>
