<?xml version="1.0" encoding="utf-8"?>
<!-- Generator: Adobe Illustrator 25.2.3, SVG Export Plug-In . SVG Version: 6.00 Build 0)  -->
<svg version="1.1" id="Layer_1" xmlns="http://www.w3.org/2000/svg" xmlns:xlink="http://www.w3.org/1999/xlink" x="0px" y="0px"
	 viewBox="0 0 150 200" style="enable-background:new 0 0 150 200;" xml:space="preserve">
<style type="text/css">
	.st0{fill:none;stroke:#FFFFFF;stroke-width:0.2249;stroke-miterlimit:10;}
	.st1{fill:#CBB8B9;stroke:#FFFFFF;stroke-width:0.2249;stroke-miterlimit:10;}
	.st2{fill:#E4DAD8;stroke:#FFFFFF;stroke-width:0.2249;stroke-miterlimit:10;}
	.st3{fill:#CBB8B9;stroke:#FFFFFF;stroke-width:0.2249;stroke-linejoin:bevel;stroke-miterlimit:10;}
	.st4{fill:#E4DAD8;stroke:#FFFFFF;stroke-width:0.2249;stroke-linejoin:bevel;stroke-miterlimit:10;}
	.st5{fill:#DD335A;stroke:#FFFFFF;stroke-width:0.2249;stroke-miterlimit:10;}
	.st6{fill:#C52E55;stroke:#FFFFFF;stroke-width:0.2249;stroke-miterlimit:10;}
	.st7{fill:none;stroke:#FFFFFF;stroke-width:0.282;stroke-miterlimit:10;}
	.st8{fill:none;stroke:#B71549;stroke-width:0.282;stroke-miterlimit:10;}
	.st9{fill:none;stroke:#B71549;stroke-width:0.282;stroke-linecap:round;stroke-miterlimit:10;}
	.st10{fill:#B71549;}
	.st11{fill:#B71549;stroke:#FFFFFF;stroke-width:0.2249;stroke-miterlimit:10;}
	.st12{fill:#B71549;stroke:#FFFFFF;stroke-width:0.2726;stroke-miterlimit:10;}
	.st13{fill:#EE7345;stroke:#FFFFFF;stroke-width:0.2843;stroke-miterlimit:10;}
	.st14{fill:none;stroke:#FFFFFF;stroke-width:0.2843;stroke-miterlimit:10;}
	.st15{fill:#EE7345;stroke:#FFFFFF;stroke-width:0.282;stroke-miterlimit:10;}
	.st16{fill:#DD335A;stroke:#FFFFFF;stroke-width:0.2397;stroke-miterlimit:10;}
	.st17{fill:none;stroke:#B71549;stroke-width:1.6357;stroke-linecap:round;stroke-miterlimit:10;}
	.st18{fill:#C52E55;}
	.st19{fill:#B71549;stroke:#FFFFFF;stroke-width:0.241;stroke-miterlimit:10;}
	.st20{fill:#DD335A;stroke:#FFFFFF;stroke-width:0.241;stroke-miterlimit:10;}
	.st21{fill:#B71549;stroke:#FFFFFF;stroke-width:0.2559;stroke-miterlimit:10;}
	.st22{fill:none;stroke:#FFFFFF;stroke-width:0.2249;stroke-linejoin:bevel;stroke-miterlimit:10;}
</style>
<g>
	<line class="st0" x1="59.6" y1="171.1" x2="59.6" y2="179.1"/>
	<line class="st0" x1="59.3" y1="170.9" x2="59.2" y2="179.2"/>
	<g>
		<polygon class="st1" points="9.7,160.9 55.1,183.8 132,145.1 132.2,136.1 89.2,116.5 9.7,156.7 		"/>
		<polygon class="st1" points="9.7,161.5 9.9,152.9 55.2,175 55,183.8 		"/>
		<polygon class="st1" points="0.2,163.7 0.2,170.9 55.3,198.8 148.3,151.9 148.2,144.5 55.2,190.8 		"/>
		<polygon class="st2" points="55,190.8 148.3,144.6 93.1,117.7 0.5,163 		"/>
		<polygon class="st1" points="9.7,160.9 55,184.2 133.6,144.2 133.7,135.2 89.2,116.5 9.7,156.7 		"/>
		<polygon class="st3" points="9.7,161.5 9.9,152.9 55,175.5 54.9,184.2 		"/>
		<polygon class="st3" points="0.6,163.1 0.6,171.9 55,199.2 148.6,151.7 148.4,144.2 55,190.8 		"/>
		<path class="st4" d="M10,152.9l44.9,22.8l79.3-40.5l-45.4-22L10,152.9z"/>
		<g>
			<polygon class="st5" points="32.1,156.6 54.9,168 54.9,157.6 31.7,146.2 			"/>
			<polygon class="st6" points="54.9,167.9 119.9,135.5 120.3,126.3 55,157.6 			"/>
			<line class="st7" x1="31.7" y1="146.1" x2="95.6" y2="113.5"/>
			<line class="st8" x1="56.1" y1="154.8" x2="113.5" y2="127.7"/>
			<path class="st9" d="M38.6,145.1c-0.4-0.7,55.9-29.7,55.9-29.7"/>
			<g>
				<polygon class="st10" points="54.4,154.9 55.5,154 54.5,153 52.4,152.9 51.2,153.6 52.2,154.7 				"/>
				<path class="st10" d="M54.1,154.5l0.3-0.2c0.2-0.1,0.2-0.4,0.1-0.5l-0.2-0.3c-0.1-0.1-0.2-0.1-0.3-0.1l-1.2-0.1
					c-0.1,0-0.2,0-0.3,0.1l-0.3,0.2c-0.2,0.2-0.2,0.4-0.1,0.5l0.2,0.3c0.1,0.1,0.2,0.1,0.3,0.1l1.2,0.1
					C54,154.5,54.1,154.5,54.1,154.5z"/>
			</g>
			<g>
				<polygon class="st10" points="113.3,126.3 114.4,125.5 113.4,124.5 111.4,124.4 110.2,125.1 111.2,126.2 				"/>
				<path class="st10" d="M113.1,126l0.3-0.2c0.2-0.1,0.2-0.4,0.1-0.5l-0.2-0.3c-0.1-0.1-0.1-0.1-0.3-0.1l-1.2-0.1
					c-0.1,0-0.2,0-0.3,0.1l-0.3,0.2c-0.2,0.2-0.2,0.4-0.1,0.5l0.2,0.3c0.1,0.1,0.1,0.1,0.3,0.1l1.2,0.1
					C112.9,126.1,113,126,113.1,126z"/>
			</g>
			<g>
				<polygon class="st10" points="44,146.6 45.2,145.9 44.2,144.8 42,144.7 41,145.4 41.9,146.4 				"/>
				<path class="st10" d="M43.8,146.2l0.3-0.2c0.2-0.1,0.2-0.4,0.1-0.5l-0.2-0.2c-0.1-0.1-0.2-0.1-0.3-0.1l-1.2-0.1
					c-0.1,0-0.2,0-0.3,0.1l-0.3,0.2c-0.2,0.2-0.2,0.4-0.1,0.5l0.2,0.2c0.1,0.1,0.2,0.1,0.3,0.1l1.2,0.1
					C43.6,146.3,43.7,146.2,43.8,146.2z"/>
			</g>
			<polygon class="st11" points="26.7,153.7 54.9,167.8 54.9,157.6 26.7,143.3 			"/>
			<polygon class="st11" points="54.9,167.9 120.4,135.5 120.2,125.3 55,157.6 			"/>
			<path class="st12" d="M96.5,119.2l5.8-2.9c0,0-0.4,1.6,0.8,2.2c1.3,0.5,3.6-0.2,3.6-0.2l-7.9,3.5L96.5,119.2z"/>
			<g>
				<path class="st13" d="M53.2,146.8c0.2-0.1,0.1-0.9,0.1-0.9l1-0.4c0,0,5.5,0.4,7.3,0.4c1.4,0,4-0.3,5.7-1.3
					c1.6-1.1,2.2-1.9,2.2-1.9l0,0l1.8-1.2c0,0,0.1,0.2,1.2,0c1.1-0.2,2.8-1.1,2.8-1.1l2.3-1.3c0,0,0.8-0.6,0.8-0.9
					c0-0.1,0.4,0.2,0.6,0.2c0.2,0,2.2-1.2,2.3-1.2s0.7-0.4,0.7-0.5l0.8,0.1c0,0,1.7-1,2.2-1.3c0.1-0.1,0.2-0.7,0.2-0.7
					s0.4,0.3,0.5,0.2l2.4-1.2l0.4-0.6l0.4,0.2l3.8-1.9l0.4-0.1c0,0,0.4-0.4,0.5-0.4l0.4,0.1l3.1-1.8c0.1-0.1,4.1-1.5,1.1-7.9
					c-2.8-5.8-6.7-4.6-7.6-4.4c-0.7,0.2-2.6,1.1-3,1.3c-0.1,0.1-0.2,0.4-0.3,0.4c-0.1,0-0.3-0.1-0.4-0.1c-0.9,0.3-3.8,1.8-4.4,2.3
					c-0.1,0.1-0.1,0.4-0.1,0.4s-0.4,0-0.5,0c-0.4,0.1-1.8,0.8-2.7,1.2c-0.1,0-0.1,0.4-0.1,0.4s-0.4,0-0.5,0
					c-0.4,0.1-2.4,1.3-2.4,1.3c-0.1,0-0.1,0.1-0.1,0.1c-0.1,0.1-0.1,0.4,0,0.4l0,0c0,0-0.7-0.2-0.8-0.1c-0.4,0.2-2.3,1-2.8,1.3
					c-0.1,0,0,0.4-0.2,0.4c-0.2,0.1-0.4,0-0.5,0c-0.9,0.2-5,2.4-5,2.4l-1.1,1.2l-1.7,0.9H63c0,0-3.1,0.5-5.5,3.1
					c-2.4,2.5-5.1,7.1-5.1,7.1l-0.8,0.4c0,0-0.2,0.2-0.4,0.2c-0.2,0-0.4-0.4-0.5-0.3c-0.2,0.1,0,0.8-0.2,1c-0.4,0.3-1.7,0.9-1.7,0.9
					l-1,0.4c0,0,0.8,0,1.6,1.7c1.1,2.2,0.7,2.9,0.7,2.9l2.4-1.3L53.2,146.8C52.5,146.5,52.9,146.9,53.2,146.8z"/>
				<path class="st14" d="M52.8,146.8c0,0-0.1-2.6-2.8-5.5"/>
				<path class="st7" d="M50.5,141.2c2.6,2.9,2.6,5.4,2.6,5.4"/>
				<path class="st13" d="M49.4,148c-0.4,0.2-1.3-0.9-1.9-2c-0.5-1.3-0.8-2.4-0.3-2.6c0.4-0.2,1.3,0.5,1.8,1.8
					C49.5,146.5,49.8,147.8,49.4,148z"/>
				<path class="st15" d="M48.3,145.5"/>
				<path class="st15" d="M59.6,130.8"/>
				<path class="st7" d="M78.1,138.1c0,0,0.4-2.4-1.6-6.7c-2.2-4.5-4.4-5.4-4.4-5.4"/>
				<path class="st7" d="M81.9,136.6c0,0,0.4-2.3-1.6-6.7c-2.2-4.5-4.5-5.5-4.5-5.5"/>
				<path class="st7" d="M88.5,133.1c0,0,1-2.5-1.1-6.9c-2.2-4.5-4.9-5.1-4.9-5.1"/>
				<path class="st7" d="M85,134.7c0,0,0.7-2.4-1.4-6.8c-2.2-4.5-4.6-5.2-4.6-5.2"/>
				<path class="st7" d="M93.7,130.8c0,0,0.7-2.7-1.4-7.2c-2.2-4.7-4.9-5.3-4.9-5.3"/>
				<path class="st7" d="M69.4,142.5c0,0-0.4-4.1-1.6-6.9c-1.2-2.8-4-5.2-4-5.2"/>
				<path class="st7" d="M71.2,141.4c0,0-0.2-3.6-1.6-6.5c-1.4-3-4.3-5.2-4.3-5.2"/>
			</g>
			<path class="st16" d="M106.2,118.3l-7.6,3.5c0.8,1.9,0.9,3.6,0.6,4.7c-0.5,2.1-2.1,2.5-2.1,2.5l-3,1.7h-0.6
				c-0.2,0.1-0.5,0.4-0.5,0.4l-3.8,1.8h-0.9l-0.4,0.6l-2.2,1c-0.1,0.1-0.9-0.1-0.9-0.1s0,0.5-0.2,0.7c-0.4,0.3-2.1,1.2-2.1,1.2h-0.9
				c0,0.1-0.4,0.5-0.5,0.5s-2.1,1-2.2,1.1c-0.1,0.1-1-0.3-1-0.1c0,0.1-0.5,0.7-0.5,0.7l-2.5,1.5c0,0-1.5,0.9-2.6,1.1s-1.3,0-1.3,0
				l-1.1,0.8l-0.5,0.4c0,0-0.4,0.9-2.2,1.9c-1.6,1.1-4.2,1.3-5.7,1.3c-1.8,0-7.3-0.4-7.3-0.4l-1,0.4c0,0,0.1,0.7-0.1,0.9
				c-0.2,0.1-0.7-0.3-0.7-0.3l-0.5,0.2l-2.4,1.3c0,0-0.4-0.5-1.5-2.6c-0.9-1.7-0.8-1.9-0.8-1.9l1-0.4c0,0,1.3-0.5,1.7-0.9
				c0.2-0.1,0-0.7,0.2-1c0.2-0.1,0.4,0.3,0.5,0.3c0.2,0,0.4-0.2,0.4-0.2l0.8-0.4c0,0,2.7-4.6,5.1-7c2.4-2.5,5.5-3.1,5.5-3.1l1.1-0.1
				l1.7-0.9l1.1-1.2c0,0,4.1-2.2,5-2.4c0.1,0,0.4,0.1,0.5,0c0.2-0.1,0.1-0.4,0.2-0.4c0.5-0.4,2.3-1.2,2.8-1.3
				c0.1-0.1,0.8,0.1,0.8,0.1l0,0c-0.1-0.1-0.1-0.4,0-0.4l0.1-0.1c0,0,2-1.1,2.5-1.3c0.1,0,0.5,0,0.5,0s0-0.4,0.1-0.4
				c0.9-0.4,2.3-1.1,2.7-1.2c0.1,0,0.5,0,0.5,0s0-0.3,0.1-0.4c0.6-0.4,3.6-1.9,4.4-2.2c0.1,0,0.3,0.1,0.4,0.1c0.1,0,0.1-0.4,0.3-0.4
				c0.4-0.3,2.3-1.2,3-1.3c0.9-0.2,3.9-0.2,6.7,2.4l5.2-2.7l-10.5-5.7l-64.9,32.5l28.2,14.1l65.2-32.3L106.2,118.3z"/>
			<line class="st17" x1="59.5" y1="151.7" x2="108.4" y2="127.5"/>
			<line class="st17" x1="39.4" y1="140.2" x2="87.9" y2="115.4"/>
			<g>
				<polygon class="st10" points="92.9,114.6 94.1,113.7 93.1,112.8 91.1,112.6 90,113.4 91,114.4 				"/>
				<path class="st18" d="M92.8,114.1l0.3-0.2c0.2-0.2,0.2-0.4,0.1-0.5l-0.2-0.2c-0.1-0.1-0.1-0.1-0.3-0.1l-1.2-0.1
					c-0.1,0-0.2,0-0.3,0.1l-0.3,0.2c-0.2,0.1-0.2,0.4-0.1,0.5L91,114c0.1,0.1,0.1,0.1,0.3,0.1l1.2,0.1
					C92.6,114.2,92.7,114.2,92.8,114.1z"/>
			</g>
			<g>
				<polygon class="st10" points="113.2,125.1 114.3,124.3 113.3,123.2 111.2,123 110,123.8 110.9,124.8 				"/>
				<path class="st18" d="M112.9,124.6l0.3-0.2c0.2-0.1,0.2-0.4,0.1-0.5l-0.2-0.3c-0.1-0.1-0.1-0.1-0.3-0.1l-1.2-0.1
					c-0.1,0-0.2,0-0.3,0.1l-0.3,0.2c-0.2,0.2-0.2,0.4-0.1,0.5l0.2,0.3c0.1,0.1,0.2,0.1,0.3,0.1l1.2,0.1
					C112.7,124.7,112.8,124.7,112.9,124.6z"/>
			</g>
			<g>
				<polygon class="st10" points="55.2,153.5 56.4,152.7 55.4,151.7 53.4,151.5 52.2,152.3 53.2,153.3 				"/>
				<path class="st18" d="M55.1,153.2l0.3-0.2c0.2-0.2,0.2-0.4,0.1-0.5l-0.2-0.3c-0.1-0.1-0.2-0.1-0.3-0.1l-1.2-0.1
					c-0.1,0-0.2,0-0.3,0.1l-0.3,0.2c-0.2,0.1-0.2,0.4-0.1,0.5l0.2,0.3c0.1,0.1,0.2,0.1,0.3,0.1l1.2,0.1
					C54.9,153.2,55,153.2,55.1,153.2z"/>
			</g>
			<g>
				<polygon class="st10" points="39.2,144.9 40.4,144.1 39.4,143.1 37.3,142.8 36.1,143.7 37.2,144.7 				"/>
				<path class="st18" d="M39.1,144.5l0.3-0.2c0.2-0.1,0.2-0.4,0.1-0.5l-0.2-0.3c-0.1-0.1-0.2-0.1-0.3-0.1l-1.2-0.1
					c-0.1,0-0.2,0-0.3,0.1l-0.3,0.2c-0.2,0.2-0.2,0.4-0.1,0.5l0.2,0.3c0.1,0.1,0.2,0.1,0.3,0.1l1.2,0.1
					C38.9,144.6,39,144.6,39.1,144.5z"/>
			</g>
			<g>
				<path class="st19" d="M100.5,109.3l7,3.6c0,0,0.4-1,2.6,0c2.2,0.9,2.3,2.4,2.3,2.4l13.1,6.6L125,54.3l-24.6-13.6L100.5,109.3z"
					/>
				<path class="st18" d="M103.7,104.8c0,0,1,1,1.7,1.8c0.8,0.9,1.5,1.3,1.5,1.3s2.6,0.1,3.7,0.5c1.1,0.4,1.7,1.1,1.8,1.4
					c0,0.2,0.8,0.1,0.8,0.1s3.7,0,5.7-1.7c0.1-0.1,0.2-0.2,0.2-0.3c0,0-2.2-2.6-4.2-3.7c-1.1-0.5-5.1-1.4-6.8-1.6
					C106.1,102.4,103.7,104.8,103.7,104.8z"/>
				<path class="st20" d="M125.9,122.1l0.1-69.3L97.5,38.2l-0.1,69.7l10.9,5.5l0.1-5.4c-2.6-1-4-3-4.2-3.9c-0.2-0.6-0.3-2.8-0.2-3.2
					c0-0.1,0.3-0.4,0.3-0.4c0-0.1-0.3-0.2-0.3-0.3c-0.1-0.9-0.1-4.2,0.1-5c0-0.1,0.3-0.2,0.3-0.2s-0.2-0.4-0.2-0.4
					c-0.1-0.4-0.1-2-0.1-2.9c0-0.1,0.4-0.3,0.4-0.3s-0.2-0.4-0.3-0.5c-0.1-0.4,0-2.7,0-2.7c0-0.1,0-0.1,0-0.2
					c0.1-0.2,0.3-0.3,0.4-0.2l0,0c0,0-0.4-0.4-0.4-0.6c-0.1-0.5-0.1-2.5-0.1-3.1c0-0.1,0.3-0.2,0.3-0.4c0-0.2-0.2-0.4-0.3-0.4
					c-0.3-0.9-0.1-5.6-0.1-5.6l0.8-1.1v-1.4l-0.5-1.6c0,0-0.9-3.2,0.3-6.6c1.2-3.2,4-6.7,4-6.7l0.1-0.9c0,0,0.1-0.3,0-0.4
					c-0.1-0.1-0.5-0.2-0.5-0.4c0-0.3,0.6-0.4,0.8-0.5c0.1-0.4,0-1.9,0-1.9l0.2-1.3c0,0,3.5,0,5.2,1.7l-0.1,3.3v0.3
					c0,0,0.3,0.4,0.3,0.5s-0.5,0.3-0.5,0.3v0.4c0,0,2.3,4.1,3.1,5.8c0.7,1.3,2,4.5,1.8,6.6c-0.2,1.9-0.8,2.4-0.8,2.4l-0.2,1.5
					l0.3,1.3c0,0,0.2,0.4,0.4,1.3c0.3,1,0.3,2.9,0.3,2.9l-0.1,2.7c0,0-0.3,1-0.4,1.1c-0.1,0.1,0.4,0.4,0.4,0.5s-0.1,2.4,0,2.6
					c0.1,0.2-0.1,0.9-0.2,0.9l0.4,0.7c0,0-0.1,2-0.1,2.6c0,0.2-0.4,0.4-0.4,0.4s0.4,0.3,0.4,0.4v2.7l-0.3,0.8l0.3,0.3l-0.1,4.2
					l0.1,0.4c0,0-0.2,0.5-0.2,0.7l0.3,0.3l-0.4,4c0,0-0.8,2.8-5.9,1.3l-0.1,5.8L125.9,122.1z"/>
				<line class="st17" x1="100.6" y1="101.2" x2="100.9" y2="50.8"/>
				<line class="st17" x1="122.1" y1="109.5" x2="122.1" y2="60.4"/>
				<polygon class="st21" points="126,52.7 125.9,122.1 134.9,117.7 135,48.1 				"/>
				<polygon class="st19" points="97.4,38.2 126,52.8 135.2,48.1 106.6,33.5 				"/>
				<g>
					<g>
						<polygon class="st10" points="99.4,43.2 100.6,44 101.3,45.9 100.9,46.8 99.8,46 99.1,44 						"/>
						<polygon class="st10" points="100.9,46.8 101.8,46.5 102.3,45.5 101.5,43.7 100.4,42.8 99.4,43 100.6,44 101.3,45.9 						"/>
					</g>
					<g>
						<path class="st18" d="M99.8,46.2l0.5-0.3c0,0,0.3-0.3,0-1c-0.3-0.8-0.8-0.8-0.8-0.8L99,44.4L99.8,46.2z"/>
						<path class="st18" d="M99.1,44.4c0.2-0.1,0.5,0.2,0.8,0.7c0.2,0.4,0.2,1,0,1.1c-0.2,0.1-0.5-0.2-0.8-0.7
							C98.8,45,98.8,44.6,99.1,44.4z"/>
						<path class="st18" d="M99.8,46.2c0,0-0.8,0.4-1.3-0.5c-0.4-0.9,0.4-1.2,0.4-1.2"/>
					</g>
				</g>
				<g>
					<g>
						<polygon class="st10" points="120.3,53.4 121.5,54.4 122.3,56.2 121.9,57.1 120.6,56.2 119.8,54.4 						"/>
						<polygon class="st10" points="121.9,57.2 122.7,56.7 123.1,55.8 122.4,54 121.2,53 120.3,53.4 121.5,54.4 122.3,56.2 						
							"/>
					</g>
					<g>
						<path class="st18" d="M120.6,56.4l0.5-0.3c0,0,0.3-0.3,0-1c-0.3-0.7-0.8-0.7-0.8-0.7l-0.5,0.3L120.6,56.4z"/>
						<path class="st18" d="M119.8,54.7c0.2-0.1,0.5,0.2,0.8,0.7c0.2,0.4,0.2,1,0,1.1c-0.2,0.1-0.5-0.2-0.8-0.7
							C119.7,55.4,119.7,54.8,119.8,54.7z"/>
						<path class="st18" d="M120.6,56.4c0,0-0.8,0.4-1.3-0.5c-0.4-0.9,0.4-1.2,0.4-1.2"/>
					</g>
				</g>
				<g>
					<g>
						<polygon class="st10" points="120.9,114.7 122.2,115.5 122.9,117.4 122.5,118.2 121.3,117.4 120.6,115.5 						"/>
						<polygon class="st10" points="122.5,118.3 123.4,117.9 123.8,117 123,115.2 121.9,114.2 121,114.6 122.2,115.5 122.9,117.4 
													"/>
					</g>
					<g>
						<path class="st18" d="M121.3,117.7l0.5-0.3c0,0,0.3-0.3,0-1c-0.3-0.8-0.8-0.8-0.8-0.8l-0.5,0.3L121.3,117.7z"/>
						<path class="st18" d="M120.6,115.9c0.2-0.1,0.5,0.2,0.8,0.7c0.2,0.4,0.2,1,0,1.1c-0.2,0.1-0.5-0.2-0.8-0.6
							C120.3,116.6,120.3,116.1,120.6,115.9z"/>
						<path class="st18" d="M121.3,117.7c0,0-0.8,0.4-1.3-0.5c-0.4-0.9,0.4-1.2,0.4-1.2"/>
					</g>
				</g>
				<g>
					<g>
						<polygon class="st10" points="99.9,105.4 101,106.2 101.8,108.2 101.4,109 100.1,108.2 99.5,106.3 						"/>
						<polygon class="st10" points="101.4,109 102.3,108.6 102.7,107.6 101.9,105.8 100.8,104.9 99.9,105.4 101,106.3 101.8,108.2 
													"/>
					</g>
					<g>
						<path class="st18" d="M100.1,108.4l0.5-0.3c0,0,0.3-0.3,0-1c-0.3-0.8-0.8-0.8-0.8-0.8l-0.5,0.3L100.1,108.4z"/>
						<path class="st18" d="M99.4,106.7c0.2-0.1,0.5,0.2,0.8,0.7c0.2,0.4,0.2,1,0,1.1c-0.2,0.1-0.5-0.2-0.8-0.6
							C99.2,107.2,99.2,106.7,99.4,106.7z"/>
						<path class="st18" d="M100.3,108.4c0,0-0.8,0.4-1.3-0.5c-0.4-0.9,0.4-1.2,0.4-1.2"/>
					</g>
				</g>
			</g>
		</g>
	</g>
	<line class="st22" x1="54.7" y1="190.6" x2="54.7" y2="199.1"/>
</g>
</svg>
