<?xml version="1.0" encoding="utf-8"?>
<!-- Generator: Adobe Illustrator 25.2.3, SVG Export Plug-In . SVG Version: 6.00 Build 0)  -->
<svg version="1.1" id="Layer_1" xmlns="http://www.w3.org/2000/svg" xmlns:xlink="http://www.w3.org/1999/xlink" x="0px" y="0px"
	 viewBox="0 0 350 311.3" style="enable-background:new 0 0 350 311.3;" xml:space="preserve">
<style type="text/css">
	.st0{fill:#CCB9B9;stroke:#FFFFFF;stroke-width:0.525;stroke-linejoin:bevel;stroke-miterlimit:10;}
	.st1{fill:none;stroke:#B79797;stroke-width:0.7362;stroke-miterlimit:10;}
	.st2{fill:#CCB9B9;}
	.st3{fill:#E4DAD8;}
	.st4{fill:#B79797;stroke:#FFFFFF;stroke-width:0.525;stroke-miterlimit:10;}
	.st5{fill:#E4DAD8;stroke:#FFFFFF;stroke-width:0.525;stroke-miterlimit:10;}
	.st6{fill:#CCB9B9;stroke:#FFFFFF;stroke-width:0.525;stroke-miterlimit:10;}
	.st7{fill:#E4DAD8;stroke:#FFFFFF;stroke-width:0.525;stroke-linejoin:bevel;stroke-miterlimit:10;}
	.st8{fill:none;stroke:#FFFFFF;stroke-width:0.525;stroke-miterlimit:10;}
	.st9{fill:#F77441;stroke:#FFFFFF;stroke-width:0.5031;stroke-miterlimit:10;}
	.st10{fill:#F77441;stroke:#F7F3F2;stroke-width:0.525;stroke-miterlimit:10;}
	.st11{fill:#F77441;stroke:#FFFFFF;stroke-width:0.525;stroke-miterlimit:10;}
	.st12{fill:#543C52;}
	.st13{fill:none;stroke:#543C52;stroke-width:0.525;stroke-linecap:round;stroke-miterlimit:10;}
	.st14{fill:#DC3359;stroke:#FFFFFF;stroke-width:0.525;stroke-miterlimit:10;}
	.st15{clip-path:url(#SVGID_2_);fill:#DC3359;stroke:#FFFFFF;stroke-width:0.525;stroke-miterlimit:10;}
	.st16{fill:none;stroke:#361D32;stroke-width:0.525;stroke-miterlimit:10;}
</style>
<g>
	<polygon class="st0" points="175.9,157 235.1,187.1 234.8,141.5 175.8,111.6 	"/>
	<line class="st1" x1="184.6" y1="148.2" x2="184.9" y2="165.1"/>
	<g>
		<g>
			<ellipse class="st2" cx="179.7" cy="116.2" rx="0.7" ry="0.3"/>
			<path class="st2" d="M179,115.3c0,0,0,0.8,0,0.9s1.1,0.4,1.5,0v-0.9H179z"/>
			<ellipse class="st3" cx="179.7" cy="115.3" rx="0.7" ry="0.3"/>
		</g>
		<g>
			<ellipse class="st2" cx="181.3" cy="116.9" rx="0.7" ry="0.3"/>
			<path class="st2" d="M180.6,116.1c0,0,0,0.8,0,0.9s1.1,0.4,1.5,0v-0.9H180.6z"/>
			<ellipse class="st3" cx="181.3" cy="116.2" rx="0.7" ry="0.3"/>
		</g>
		<g>
			<ellipse class="st2" cx="182.8" cy="117.6" rx="0.7" ry="0.3"/>
			<path class="st2" d="M182.1,116.8c0,0,0,0.8,0,0.9s1.1,0.4,1.5,0v-0.9H182.1z"/>
			<ellipse class="st3" cx="182.8" cy="116.9" rx="0.7" ry="0.3"/>
		</g>
		<g>
			<ellipse class="st2" cx="184.3" cy="118.4" rx="0.7" ry="0.3"/>
			<path class="st2" d="M183.5,117.6c0,0,0,0.8,0,0.9s1.1,0.4,1.5,0v-0.9H183.5z"/>
			<ellipse class="st3" cx="184.3" cy="117.6" rx="0.7" ry="0.3"/>
		</g>
		<g>
			<ellipse class="st2" cx="185.8" cy="119.2" rx="0.7" ry="0.3"/>
			<path class="st2" d="M185,118.4c0,0,0,0.8,0,0.9s1.1,0.4,1.5,0v-0.9H185z"/>
			<ellipse class="st3" cx="185.8" cy="118.4" rx="0.7" ry="0.3"/>
		</g>
		<g>
			<ellipse class="st2" cx="187.3" cy="120" rx="0.7" ry="0.3"/>
			<path class="st2" d="M186.6,119.1c0,0,0,0.8,0,0.9s1.1,0.4,1.5,0v-0.9H186.6z"/>
			<ellipse class="st3" cx="187.3" cy="119.2" rx="0.7" ry="0.3"/>
		</g>
		<g>
			<ellipse class="st2" cx="188.8" cy="120.7" rx="0.7" ry="0.3"/>
			<path class="st2" d="M188,120c0,0,0,0.8,0,0.9s1,0.4,1.5,0V120H188z"/>
			<ellipse class="st3" cx="188.8" cy="120" rx="0.7" ry="0.3"/>
		</g>
		<g>
			<ellipse class="st2" cx="190.3" cy="121.4" rx="0.7" ry="0.3"/>
			<path class="st2" d="M189.5,120.7c0,0,0,0.8,0,0.9s1.1,0.4,1.5,0v-0.9H189.5z"/>
			<ellipse class="st3" cx="190.3" cy="120.7" rx="0.7" ry="0.3"/>
		</g>
		<g>
			<ellipse class="st2" cx="191.8" cy="122.3" rx="0.7" ry="0.3"/>
			<path class="st2" d="M191.1,121.4c0,0,0,0.8,0,0.9s1.1,0.4,1.5,0v-0.9H191.1z"/>
			<ellipse class="st3" cx="191.8" cy="121.4" rx="0.7" ry="0.3"/>
		</g>
		<g>
			<ellipse class="st2" cx="193.3" cy="123" rx="0.7" ry="0.3"/>
			<path class="st2" d="M192.6,122.2c0,0,0,0.8,0,0.9s1.1,0.4,1.5,0v-0.9H192.6z"/>
			<ellipse class="st3" cx="193.3" cy="122.3" rx="0.7" ry="0.3"/>
		</g>
		<g>
			<ellipse class="st2" cx="194.8" cy="123.7" rx="0.7" ry="0.3"/>
			<path class="st2" d="M194,123c0,0,0,0.8,0,0.9s1.1,0.4,1.5,0V123H194z"/>
			<ellipse class="st3" cx="194.8" cy="123" rx="0.7" ry="0.3"/>
		</g>
		<g>
			<ellipse class="st2" cx="196.3" cy="124.5" rx="0.7" ry="0.3"/>
			<path class="st2" d="M195.6,123.7c0,0,0,0.8,0,0.9s1.1,0.4,1.5,0v-0.9H195.6z"/>
			<ellipse class="st3" cx="196.3" cy="123.7" rx="0.7" ry="0.3"/>
		</g>
		<g>
			<ellipse class="st2" cx="197.8" cy="125.3" rx="0.7" ry="0.3"/>
			<path class="st2" d="M197.1,124.5c0,0,0,0.8,0,0.9s1.1,0.4,1.5,0v-0.9H197.1z"/>
			<ellipse class="st3" cx="197.8" cy="124.5" rx="0.7" ry="0.3"/>
		</g>
		<g>
			<ellipse class="st2" cx="199.3" cy="126" rx="0.7" ry="0.3"/>
			<path class="st2" d="M198.5,125.2c0,0,0,0.8,0,0.9s1,0.4,1.5,0v-0.9H198.5z"/>
			<ellipse class="st3" cx="199.3" cy="125.3" rx="0.7" ry="0.3"/>
		</g>
		<g>
			<ellipse class="st2" cx="200.8" cy="126.8" rx="0.7" ry="0.3"/>
			<path class="st2" d="M200,126c0,0,0,0.8,0,0.9s1.1,0.4,1.5,0V126H200z"/>
			<ellipse class="st3" cx="200.8" cy="126" rx="0.7" ry="0.3"/>
		</g>
		<g>
			<ellipse class="st2" cx="202.3" cy="127.6" rx="0.7" ry="0.3"/>
			<path class="st2" d="M201.6,126.8c0,0,0,0.8,0,0.9s1.1,0.4,1.5,0v-0.9H201.6z"/>
			<ellipse class="st3" cx="202.3" cy="126.8" rx="0.7" ry="0.3"/>
		</g>
		<g>
			<ellipse class="st2" cx="203.8" cy="128.4" rx="0.7" ry="0.3"/>
			<path class="st2" d="M203.1,127.5c0,0,0,0.8,0,0.9c0,0.1,1.1,0.4,1.5,0v-0.9H203.1z"/>
			<ellipse class="st3" cx="203.8" cy="127.6" rx="0.7" ry="0.3"/>
		</g>
		<g>
			<ellipse class="st2" cx="205.4" cy="129.1" rx="0.7" ry="0.3"/>
			<path class="st2" d="M204.5,128.3c0,0,0,0.8,0,0.9c0,0.1,1.1,0.4,1.5,0v-0.9H204.5z"/>
			<ellipse class="st3" cx="205.4" cy="128.4" rx="0.7" ry="0.3"/>
		</g>
		<g>
			<ellipse class="st2" cx="206.8" cy="129.8" rx="0.7" ry="0.3"/>
			<path class="st2" d="M206.1,129.1c0,0,0,0.8,0,0.9c0,0.1,1.1,0.4,1.5,0v-0.9H206.1z"/>
			<ellipse class="st3" cx="206.8" cy="129.1" rx="0.7" ry="0.3"/>
		</g>
		<g>
			<ellipse class="st2" cx="208.3" cy="130.7" rx="0.7" ry="0.3"/>
			<path class="st2" d="M207.6,129.8c0,0,0,0.8,0,0.9c0,0.1,1.1,0.4,1.5,0v-0.9H207.6z"/>
			<ellipse class="st3" cx="208.3" cy="129.8" rx="0.7" ry="0.3"/>
		</g>
		<g>
			<ellipse class="st2" cx="209.9" cy="131.4" rx="0.7" ry="0.3"/>
			<path class="st2" d="M209,130.6c0,0,0,0.8,0,0.9c0,0.1,1,0.4,1.5,0v-0.9H209z"/>
			<ellipse class="st3" cx="209.9" cy="130.7" rx="0.7" ry="0.3"/>
		</g>
		<g>
			<ellipse class="st2" cx="211.3" cy="132.1" rx="0.7" ry="0.3"/>
			<path class="st2" d="M210.6,131.3c0,0,0,0.8,0,0.9c0,0.1,1.1,0.4,1.5,0v-0.9H210.6z"/>
			<ellipse class="st3" cx="211.3" cy="131.4" rx="0.7" ry="0.3"/>
		</g>
		<g>
			<ellipse class="st2" cx="212.8" cy="132.9" rx="0.7" ry="0.3"/>
			<path class="st2" d="M212.1,132.1c0,0,0,0.8,0,0.9c0,0.1,1.1,0.4,1.5,0v-0.9H212.1z"/>
			<ellipse class="st3" cx="212.8" cy="132.1" rx="0.7" ry="0.3"/>
		</g>
		<g>
			<ellipse class="st2" cx="214.3" cy="133.7" rx="0.7" ry="0.3"/>
			<path class="st2" d="M213.6,132.9c0,0,0,0.8,0,0.9c0,0.1,1.1,0.4,1.5,0v-0.9H213.6z"/>
			<ellipse class="st3" cx="214.3" cy="132.9" rx="0.7" ry="0.3"/>
		</g>
		<g>
			<ellipse class="st2" cx="215.9" cy="134.4" rx="0.7" ry="0.3"/>
			<path class="st2" d="M215.1,133.6c0,0,0,0.8,0,0.9c0,0.1,1.1,0.4,1.5,0v-0.9H215.1z"/>
			<ellipse class="st3" cx="215.9" cy="133.7" rx="0.7" ry="0.3"/>
		</g>
		<g>
			<ellipse class="st2" cx="217.3" cy="135.2" rx="0.7" ry="0.3"/>
			<path class="st2" d="M216.6,134.3c0,0,0,0.8,0,0.9c0,0.1,1.1,0.4,1.5,0v-0.9H216.6z"/>
			<ellipse class="st3" cx="217.3" cy="134.4" rx="0.7" ry="0.3"/>
		</g>
		<g>
			<ellipse class="st2" cx="218.8" cy="135.9" rx="0.7" ry="0.3"/>
			<path class="st2" d="M218.1,135.2c0,0,0,0.8,0,0.9c0,0.1,1.1,0.4,1.5,0v-0.9H218.1z"/>
			<ellipse class="st3" cx="218.8" cy="135.2" rx="0.7" ry="0.3"/>
		</g>
		<g>
			<ellipse class="st2" cx="220.4" cy="136.8" rx="0.7" ry="0.3"/>
			<path class="st2" d="M219.5,135.9c0,0,0,0.8,0,0.9c0,0.1,1,0.4,1.5,0v-0.9H219.5z"/>
			<ellipse class="st3" cx="220.4" cy="135.9" rx="0.7" ry="0.3"/>
		</g>
		<g>
			<ellipse class="st2" cx="221.8" cy="137.5" rx="0.7" ry="0.3"/>
			<path class="st2" d="M221.1,136.7c0,0,0,0.8,0,0.9c0,0.1,1.1,0.4,1.5,0v-0.9H221.1z"/>
			<ellipse class="st3" cx="221.8" cy="136.8" rx="0.7" ry="0.3"/>
		</g>
		<g>
			<ellipse class="st2" cx="223.3" cy="138.2" rx="0.7" ry="0.3"/>
			<path class="st2" d="M222.6,137.5c0,0,0,0.8,0,0.9c0,0.1,1.1,0.4,1.5,0v-0.9H222.6z"/>
			<ellipse class="st3" cx="223.3" cy="137.5" rx="0.7" ry="0.3"/>
		</g>
	</g>
	<polygon class="st4" points="176.9,115.3 231.4,142.6 235.6,140.7 181.2,113.2 	"/>
	<path class="st5" d="M23.2,221.1c0,0,83.4,41.1,83.5,40.9l142-71.7l-83.9-40.5L23.2,221.1z"/>
	<g>
		<polygon class="st6" points="22.8,235.9 106.5,278.3 248.5,206.8 248.8,190.3 169.7,154.1 22.8,228.1 		"/>
		<polygon class="st6" points="22.9,237.1 23,221.1 106.7,262 106.3,278.3 		"/>
		<polygon class="st6" points="5.1,241.1 5.1,254.5 107,305.8 278.8,219.4 278.4,205.7 106.9,291.1 		"/>
		<polygon class="st5" points="106.2,291 278.8,205.7 176.8,156.2 5.4,240.1 		"/>
		<polygon class="st6" points="22.8,235.9 106.2,278.9 251.5,205.1 251.8,188.6 169.7,154.1 22.8,228.1 		"/>
		<polygon class="st0" points="22.9,237.1 23,221.1 106.2,263.1 106.1,279 		"/>
		<polygon class="st0" points="5.8,240.2 5.7,256.1 106.2,306.6 279.3,219 279,205.3 106.2,291.1 		"/>
		<path class="st7" d="M23.2,221.1L106,263l146.4-74.8l-83.9-40.5L23.2,221.1z"/>
		<line class="st8" x1="106.2" y1="291.3" x2="106.1" y2="306.6"/>
	</g>
	<g>
		<polygon class="st6" points="52.7,219.9 178.1,156.5 178,111.8 50,178.4 		"/>
	</g>
	<g>
		<path class="st9" d="M96.3,209.4c-0.9,0.4-3-2-4.4-4.7c-1.4-2.8-1.7-5.5-0.7-5.9s2.8,1.4,4.2,4.2
			C96.7,205.7,97.2,208.9,96.3,209.4z"/>
		<g>
			<path class="st10" d="M105.3,206.5c0.4-0.2,0.2-2,0.2-2l2.2-1c0,0,12.5,1,16.7,0.9c3.4,0,9.2-0.7,13-3.2c3.8-2.4,4.8-4.4,4.8-4.4
				l1.3-1.1l3.3-1.6c0,0-0.2,0.5,2.2,0c2.3-0.5,6.3-2.4,6.3-2.4l5.4-3c0,0,1.7-1.7,1.8-2c0-0.3,1.2,0.4,1.6,0.3
				c0.4-0.1,4.8-2.7,5.2-2.7s1.6-1.2,1.6-1.4l1.9,0.1c0,0,4.1-2.2,5.1-2.9c0.3-0.2,0.5-1.6,0.5-1.6s1.1,0.6,1.4,0.5l5.6-2.7l1.2-1.5
				l0.8,0.4l8.5-4.5l1.1-0.3c0,0,0.9-0.8,1.3-1.1l0.9,0.2l6.4-4.2c0.2-0.2,9.9-4.5,2.9-19.1c-6.4-13.3-14.8-9.8-17.1-9.2
				c-1.6,0.3-6,2.3-6.8,2.9c-0.2,0.2-0.4,0.9-0.6,1c-0.2,0.1-0.7-0.3-0.9-0.2c-1.9,0.7-8.7,4.1-10.2,5.2c-0.2,0.1-0.2,0.8-0.2,0.8
				s-0.9,0-1.3,0.1c-0.9,0.3-4.2,1.9-6.2,2.7c-0.2,0.1-0.3,1.1-0.3,1.1s-1.1,0-1.4,0c-1.1,0.2-5.7,2.7-5.7,2.7
				c-0.2,0.1-0.2,0.1-0.3,0.2c-0.3,0.3-0.3,0.8,0,1.2h-0.1c0,0-1.6-0.5-1.9-0.3c-1.2,0.4-5.2,2.3-6.5,3.2c-0.1,0.1-0.1,0.8-0.4,1.1
				c-0.3,0.2-1.2-0.1-1.4,0c-2,0.4-11.5,5.5-11.5,5.5l-2.4,2.7l-4,2l-2.4,0.1c0,0-7.1,1.3-12.7,7c-5.5,5.8-11.8,16.4-11.8,16.4
				l-1.7,1.1c0,0-0.5,0.4-0.8,0.4s-0.9-0.9-1.4-0.6c-0.5,0.3,0,1.8-0.4,2.1c-1,0.7-4,2-4,2l-2.2,1.1c0,0,1.8,0,3.7,4
				c2.3,4.8,1.5,6.5,1.5,6.5l5.5-3l1.3-0.3C103.7,205.7,104.9,206.6,105.3,206.5z"/>
			<path class="st9" d="M104.6,206.5c0,0-0.3-6-6.3-12.6"/>
			<path class="st9" d="M99.2,193.6c6,6.6,6.3,12.6,6.3,12.6"/>
			<path class="st9" d="M120.2,169.7"/>
			<path class="st11" d="M162.5,186.6c0,0,0.1-5.5-4.7-15.5c-5-10.4-9.1-12.4-9.1-12.4"/>
			<path class="st11" d="M170.5,182.6c0,0,1.3-5.4-3.6-15.4c-5-10.4-10-12.2-10-12.2"/>
			<path class="st11" d="M186.4,175c0,0,2.3-5.9-2.5-16c-5-10.4-11.1-11.7-11.1-11.7"/>
			<path class="st11" d="M178.6,179c0,0,2.3-5.9-2.5-16c-5-10.4-11.1-11.7-11.1-11.7"/>
			<path class="st11" d="M178.6,179c0,0,2.3-5.9-2.5-16c-5-10.4-11.1-11.7-11.1-11.7"/>
			<path class="st11" d="M178.6,179c0,0,2.3-5.9-2.5-16c-5-10.4-11.1-11.7-11.1-11.7"/>
			<path class="st11" d="M178.6,179c0,0,2.3-5.9-2.5-16c-5-10.4-11.1-11.7-11.1-11.7"/>
			<path class="st11" d="M197.7,169.5c0,0,2.2-6-2.7-16.4c-5.1-10.7-11.3-12.1-11.3-12.1"/>
			<path class="st11" d="M143.2,196c0,0-2.4-8.8-5.1-15.2c-2.7-6.5-8.8-12-8.8-12"/>
			<path class="st11" d="M146.7,194.1c0,0-0.6-8.1-3.8-14.9c-3.3-6.8-9.8-12-9.8-12"/>
		</g>
	</g>
	<g>
		<g>
			<ellipse class="st2" cx="228.9" cy="156.2" rx="0.7" ry="0.3"/>
			<path class="st2" d="M228,155.3c0,0,0,0.8,0,0.9c0,0.1,1,0.4,1.5,0v-0.9H228z"/>
			<ellipse class="st3" cx="228.9" cy="155.3" rx="0.7" ry="0.3"/>
		</g>
		<g>
			<ellipse class="st2" cx="227.3" cy="156.9" rx="0.7" ry="0.3"/>
			<path class="st2" d="M226.6,156.1c0,0,0,0.8,0,0.9c0,0.1,1.1,0.4,1.5,0v-0.9H226.6z"/>
			<ellipse class="st3" cx="227.3" cy="156.1" rx="0.7" ry="0.3"/>
		</g>
		<g>
			<ellipse class="st2" cx="225.8" cy="157.7" rx="0.7" ry="0.3"/>
			<path class="st2" d="M225.1,156.8c0,0,0,0.8,0,0.9c0,0.1,1,0.4,1.5,0v-0.9H225.1z"/>
			<ellipse class="st3" cx="225.8" cy="156.9" rx="0.7" ry="0.3"/>
		</g>
		<g>
			<ellipse class="st2" cx="224.3" cy="158.4" rx="0.7" ry="0.3"/>
			<path class="st2" d="M223.5,157.5c0,0,0,0.8,0,0.9c0,0.1,1.1,0.4,1.5,0v-0.9C225,157.5,223.5,157.5,223.5,157.5z"/>
			<ellipse class="st3" cx="224.3" cy="157.7" rx="0.7" ry="0.3"/>
		</g>
		<g>
			<ellipse class="st2" cx="222.8" cy="159.1" rx="0.7" ry="0.3"/>
			<path class="st2" d="M222.1,158.3c0,0,0,0.8,0,0.9c0,0.1,1.1,0.4,1.5,0v-0.9H222.1z"/>
			<ellipse class="st3" cx="222.8" cy="158.4" rx="0.7" ry="0.3"/>
		</g>
		<g>
			<ellipse class="st2" cx="221.3" cy="159.9" rx="0.7" ry="0.3"/>
			<path class="st2" d="M220.5,159.1c0,0,0,0.8,0,0.9s1,0.4,1.5,0v-0.9H220.5z"/>
			<ellipse class="st3" cx="221.3" cy="159.1" rx="0.7" ry="0.3"/>
		</g>
		<g>
			<ellipse class="st2" cx="219.7" cy="160.6" rx="0.7" ry="0.3"/>
			<path class="st2" d="M219,159.9c0,0,0,0.8,0,0.9c0,0.1,1.1,0.4,1.5,0v-0.9H219z"/>
			<ellipse class="st3" cx="219.7" cy="159.9" rx="0.7" ry="0.3"/>
		</g>
		<g>
			<ellipse class="st2" cx="218.3" cy="161.3" rx="0.7" ry="0.3"/>
			<path class="st2" d="M217.5,160.6c0,0,0,0.8,0,0.9c0,0.1,1,0.4,1.5,0v-0.9H217.5z"/>
			<ellipse class="st3" cx="218.3" cy="160.6" rx="0.7" ry="0.3"/>
		</g>
		<g>
			<ellipse class="st2" cx="216.7" cy="162.2" rx="0.7" ry="0.3"/>
			<path class="st2" d="M216,161.3c0,0,0,0.8,0,0.9c0,0.1,1.1,0.4,1.5,0v-0.9H216z"/>
			<ellipse class="st3" cx="216.7" cy="161.3" rx="0.7" ry="0.3"/>
		</g>
		<g>
			<ellipse class="st2" cx="215.2" cy="162.9" rx="0.7" ry="0.3"/>
			<path class="st2" d="M214.5,162.1c0,0,0,0.8,0,0.9s1.1,0.4,1.5,0v-0.9H214.5z"/>
			<ellipse class="st3" cx="215.2" cy="162.1" rx="0.7" ry="0.3"/>
		</g>
		<g>
			<ellipse class="st2" cx="213.8" cy="163.6" rx="0.7" ry="0.3"/>
			<path class="st2" d="M212.9,162.8c0,0,0,0.8,0,0.9c0,0.1,1,0.4,1.5,0v-0.9H212.9z"/>
			<ellipse class="st3" cx="213.8" cy="162.8" rx="0.7" ry="0.3"/>
		</g>
		<g>
			<ellipse class="st2" cx="212.2" cy="164.4" rx="0.7" ry="0.3"/>
			<path class="st2" d="M211.5,163.5c0,0,0,0.8,0,0.9c0,0.1,1.1,0.4,1.5,0v-0.9H211.5z"/>
			<ellipse class="st3" cx="212.2" cy="163.6" rx="0.7" ry="0.3"/>
		</g>
		<g>
			<ellipse class="st2" cx="210.7" cy="165.1" rx="0.7" ry="0.3"/>
			<path class="st2" d="M210,164.3c0,0,0,0.8,0,0.9c0,0.1,1,0.4,1.5,0v-0.9H210z"/>
			<ellipse class="st3" cx="210.7" cy="164.4" rx="0.7" ry="0.3"/>
		</g>
		<g>
			<ellipse class="st2" cx="209.1" cy="165.8" rx="0.7" ry="0.3"/>
			<path class="st2" d="M208.4,165c0,0,0,0.8,0,0.9s1.1,0.4,1.5,0V165H208.4z"/>
			<ellipse class="st3" cx="209.1" cy="165.1" rx="0.7" ry="0.3"/>
		</g>
		<g>
			<ellipse class="st2" cx="207.7" cy="166.6" rx="0.7" ry="0.3"/>
			<path class="st2" d="M206.9,165.8c0,0,0,0.8,0,0.9c0,0.1,1.1,0.4,1.5,0v-0.9H206.9z"/>
			<ellipse class="st3" cx="207.7" cy="165.8" rx="0.7" ry="0.3"/>
		</g>
		<g>
			<ellipse class="st2" cx="206.2" cy="167.3" rx="0.7" ry="0.3"/>
			<path class="st2" d="M205.4,166.6c0,0,0,0.8,0,0.9c0,0.1,1.1,0.4,1.5,0v-0.9H205.4z"/>
			<ellipse class="st3" cx="206.2" cy="166.6" rx="0.7" ry="0.3"/>
		</g>
		<g>
			<ellipse class="st2" cx="204.6" cy="168" rx="0.7" ry="0.3"/>
			<path class="st2" d="M203.9,167.3c0,0,0,0.8,0,0.9s1.1,0.4,1.5,0v-0.9H203.9z"/>
			<ellipse class="st3" cx="204.6" cy="167.3" rx="0.7" ry="0.3"/>
		</g>
		<g>
			<ellipse class="st2" cx="203.2" cy="168.8" rx="0.7" ry="0.3"/>
			<path class="st2" d="M202.4,168c0,0,0,0.8,0,0.9c0,0.1,1,0.4,1.5,0V168H202.4z"/>
			<ellipse class="st3" cx="203.2" cy="168" rx="0.7" ry="0.3"/>
		</g>
		<g>
			<ellipse class="st2" cx="201.6" cy="169.6" rx="0.7" ry="0.3"/>
			<path class="st2" d="M200.8,168.8c0,0,0,0.8,0,0.9c0,0.1,1.1,0.4,1.5,0v-0.9H200.8z"/>
			<ellipse class="st3" cx="201.6" cy="168.8" rx="0.7" ry="0.3"/>
		</g>
		<g>
			<ellipse class="st2" cx="200.1" cy="170.4" rx="0.7" ry="0.3"/>
			<path class="st2" d="M199.4,169.5c0,0,0,0.8,0,0.9s1.1,0.4,1.5,0v-0.9H199.4z"/>
			<ellipse class="st3" cx="200.1" cy="169.5" rx="0.7" ry="0.3"/>
		</g>
		<g>
			<ellipse class="st2" cx="198.6" cy="171.1" rx="0.7" ry="0.3"/>
			<path class="st2" d="M197.8,170.3c0,0,0,0.8,0,0.9s1.1,0.4,1.5,0v-0.9H197.8z"/>
			<ellipse class="st3" cx="198.6" cy="170.4" rx="0.7" ry="0.3"/>
		</g>
		<g>
			<ellipse class="st2" cx="197.1" cy="171.8" rx="0.7" ry="0.3"/>
			<path class="st2" d="M196.3,171c0,0,0,0.8,0,0.9s1.1,0.4,1.5,0V171H196.3z"/>
			<ellipse class="st3" cx="197.1" cy="171.1" rx="0.7" ry="0.3"/>
		</g>
		<g>
			<ellipse class="st2" cx="195.6" cy="172.6" rx="0.7" ry="0.3"/>
			<path class="st2" d="M194.9,171.7c0,0,0,0.8,0,0.9c0,0.1,1.1,0.4,1.5,0v-0.9H194.9z"/>
			<ellipse class="st3" cx="195.6" cy="171.8" rx="0.7" ry="0.3"/>
		</g>
		<g>
			<ellipse class="st2" cx="194" cy="173.3" rx="0.7" ry="0.3"/>
			<path class="st2" d="M193.3,172.6c0,0,0,0.8,0,0.9s1,0.4,1.5,0v-0.9H193.3z"/>
			<ellipse class="st3" cx="194" cy="172.6" rx="0.7" ry="0.3"/>
		</g>
		<g>
			<ellipse class="st2" cx="192.6" cy="174" rx="0.7" ry="0.3"/>
			<path class="st2" d="M191.8,173.3c0,0,0,0.8,0,0.9c0,0.1,1.1,0.4,1.5,0v-0.9H191.8z"/>
			<ellipse class="st3" cx="192.6" cy="173.3" rx="0.7" ry="0.3"/>
		</g>
		<g>
			<ellipse class="st2" cx="191.1" cy="174.8" rx="0.7" ry="0.3"/>
			<path class="st2" d="M190.2,174c0,0,0,0.8,0,0.9c0,0.1,1.1,0.4,1.5,0V174H190.2z"/>
			<ellipse class="st3" cx="191.1" cy="174" rx="0.7" ry="0.3"/>
		</g>
		<g>
			<ellipse class="st2" cx="189.5" cy="175.5" rx="0.7" ry="0.3"/>
			<path class="st2" d="M188.8,174.8c0,0,0,0.8,0,0.9s1.1,0.4,1.5,0v-0.9H188.8z"/>
			<ellipse class="st3" cx="189.5" cy="174.8" rx="0.7" ry="0.3"/>
		</g>
		<g>
			<ellipse class="st2" cx="188" cy="176.3" rx="0.7" ry="0.3"/>
			<path class="st2" d="M187.3,175.5c0,0,0,0.8,0,0.9c0,0.1,1.1,0.4,1.5,0v-0.9H187.3z"/>
			<ellipse class="st3" cx="188" cy="175.5" rx="0.7" ry="0.3"/>
		</g>
		<g>
			<ellipse class="st2" cx="186.5" cy="177.1" rx="0.7" ry="0.3"/>
			<path class="st2" d="M185.7,176.2c0,0,0,0.8,0,0.9s1,0.4,1.5,0v-0.9H185.7z"/>
			<ellipse class="st3" cx="186.5" cy="176.2" rx="0.7" ry="0.3"/>
		</g>
		<g>
			<ellipse class="st2" cx="185" cy="177.8" rx="0.7" ry="0.3"/>
			<path class="st2" d="M184.3,177c0,0,0,0.8,0,0.9c0,0.1,1.1,0.4,1.5,0V177H184.3z"/>
			<ellipse class="st3" cx="185" cy="177.1" rx="0.7" ry="0.3"/>
		</g>
		<g>
			<ellipse class="st2" cx="183.5" cy="178.5" rx="0.7" ry="0.3"/>
			<path class="st2" d="M182.7,177.7c0,0,0,0.8,0,0.9c0,0.1,1.1,0.4,1.5,0v-0.9H182.7z"/>
			<ellipse class="st3" cx="183.5" cy="177.8" rx="0.7" ry="0.3"/>
		</g>
		<g>
			<ellipse class="st2" cx="181.9" cy="179.3" rx="0.7" ry="0.3"/>
			<path class="st2" d="M181.2,178.4c0,0,0,0.8,0,0.9s1.1,0.4,1.5,0v-0.9H181.2z"/>
			<ellipse class="st3" cx="181.9" cy="178.5" rx="0.7" ry="0.3"/>
		</g>
		<g>
			<ellipse class="st2" cx="180.5" cy="180" rx="0.7" ry="0.3"/>
			<path class="st2" d="M179.7,179.3c0,0,0,0.8,0,0.9c0,0.1,1.1,0.4,1.5,0v-0.9H179.7z"/>
			<ellipse class="st3" cx="180.5" cy="179.3" rx="0.7" ry="0.3"/>
		</g>
		<g>
			<ellipse class="st2" cx="178.9" cy="180.8" rx="0.7" ry="0.3"/>
			<path class="st2" d="M178.2,180c0,0,0,0.8,0,0.9c0,0.1,1,0.4,1.5,0V180H178.2z"/>
			<ellipse class="st3" cx="178.9" cy="180" rx="0.7" ry="0.3"/>
		</g>
		<g>
			<ellipse class="st2" cx="177.4" cy="181.5" rx="0.7" ry="0.3"/>
			<path class="st2" d="M176.7,180.8c0,0,0,0.8,0,0.9s1.1,0.4,1.5,0v-0.9H176.7z"/>
			<ellipse class="st3" cx="177.4" cy="180.8" rx="0.7" ry="0.3"/>
		</g>
		<g>
			<ellipse class="st2" cx="176" cy="182.2" rx="0.7" ry="0.3"/>
			<path class="st2" d="M175.1,181.5c0,0,0,0.8,0,0.9c0,0.1,1.1,0.4,1.5,0v-0.9H175.1z"/>
			<ellipse class="st3" cx="176" cy="181.5" rx="0.7" ry="0.3"/>
		</g>
		<g>
			<ellipse class="st2" cx="174.4" cy="183.1" rx="0.7" ry="0.3"/>
			<path class="st2" d="M173.7,182.2c0,0,0,0.8,0,0.9c0,0.1,1.1,0.4,1.5,0v-0.9H173.7z"/>
			<ellipse class="st3" cx="174.4" cy="182.2" rx="0.7" ry="0.3"/>
		</g>
		<g>
			<ellipse class="st2" cx="172.9" cy="183.8" rx="0.7" ry="0.3"/>
			<path class="st2" d="M172.1,183c0,0,0,0.8,0,0.9c0,0.1,1.1,0.4,1.5,0V183H172.1z"/>
			<ellipse class="st3" cx="172.9" cy="183" rx="0.7" ry="0.3"/>
		</g>
		<g>
			<ellipse class="st2" cx="171.3" cy="184.5" rx="0.7" ry="0.3"/>
			<path class="st2" d="M170.6,183.7c0,0,0,0.8,0,0.9s1,0.4,1.5,0v-0.9H170.6z"/>
			<ellipse class="st3" cx="171.3" cy="183.8" rx="0.7" ry="0.3"/>
		</g>
		<g>
			<ellipse class="st2" cx="169.9" cy="185.3" rx="0.7" ry="0.3"/>
			<path class="st2" d="M169.1,184.4c0,0,0,0.8,0,0.9s1.1,0.4,1.5,0v-0.9H169.1z"/>
			<ellipse class="st3" cx="169.9" cy="184.5" rx="0.7" ry="0.3"/>
		</g>
		<g>
			<ellipse class="st2" cx="168.4" cy="186" rx="0.7" ry="0.3"/>
			<path class="st2" d="M167.6,185.2c0,0,0,0.8,0,0.9c0,0.1,1.1,0.4,1.5,0v-0.9H167.6z"/>
			<ellipse class="st3" cx="168.4" cy="185.3" rx="0.7" ry="0.3"/>
		</g>
		<g>
			<ellipse class="st2" cx="166.8" cy="186.7" rx="0.7" ry="0.3"/>
			<path class="st2" d="M166.1,185.9c0,0,0,0.8,0,0.9c0,0.1,1.1,0.4,1.5,0v-0.9H166.1z"/>
			<ellipse class="st3" cx="166.8" cy="186" rx="0.7" ry="0.3"/>
		</g>
		<g>
			<ellipse class="st2" cx="165.4" cy="187.5" rx="0.7" ry="0.3"/>
			<path class="st2" d="M164.5,186.7c0,0,0,0.8,0,0.9s1.1,0.4,1.5,0v-0.9H164.5z"/>
			<ellipse class="st3" cx="165.4" cy="186.7" rx="0.7" ry="0.3"/>
		</g>
		<g>
			<ellipse class="st2" cx="163.8" cy="188.2" rx="0.7" ry="0.3"/>
			<path class="st2" d="M163,187.5c0,0,0,0.8,0,0.9c0,0.1,1,0.4,1.5,0v-0.9H163z"/>
			<ellipse class="st3" cx="163.8" cy="187.5" rx="0.7" ry="0.3"/>
		</g>
		<g>
			<ellipse class="st2" cx="162.3" cy="188.9" rx="0.7" ry="0.3"/>
			<path class="st2" d="M161.6,188.2c0,0,0,0.8,0,0.9c0,0.1,1.1,0.4,1.5,0v-0.9H161.6z"/>
			<ellipse class="st3" cx="162.3" cy="188.2" rx="0.7" ry="0.3"/>
		</g>
		<g>
			<ellipse class="st2" cx="160.8" cy="189.8" rx="0.7" ry="0.3"/>
			<path class="st2" d="M160,188.9c0,0,0,0.8,0,0.9s1.1,0.4,1.5,0v-0.9H160z"/>
			<ellipse class="st3" cx="160.8" cy="188.9" rx="0.7" ry="0.3"/>
		</g>
		<g>
			<ellipse class="st2" cx="159.3" cy="190.5" rx="0.7" ry="0.3"/>
			<path class="st2" d="M158.5,189.7c0,0,0,0.8,0,0.9s1.1,0.4,1.5,0v-0.9H158.5z"/>
			<ellipse class="st3" cx="159.3" cy="189.7" rx="0.7" ry="0.3"/>
		</g>
		<g>
			<ellipse class="st2" cx="157.8" cy="191.3" rx="0.7" ry="0.3"/>
			<path class="st2" d="M157,190.4c0,0,0,0.8,0,0.9c0,0.1,1.1,0.4,1.5,0v-0.9H157z"/>
			<ellipse class="st3" cx="157.8" cy="190.5" rx="0.7" ry="0.3"/>
		</g>
		<g>
			<ellipse class="st2" cx="156.2" cy="192" rx="0.7" ry="0.3"/>
			<path class="st2" d="M155.5,191.1c0,0,0,0.8,0,0.9c0,0.1,1.1,0.4,1.5,0v-0.9H155.5z"/>
			<ellipse class="st3" cx="156.2" cy="191.3" rx="0.7" ry="0.3"/>
		</g>
		<g>
			<ellipse class="st2" cx="154.8" cy="192.7" rx="0.7" ry="0.3"/>
			<path class="st2" d="M154,191.9c0,0,0,0.8,0,0.9c0,0.1,1.1,0.4,1.5,0v-0.9H154z"/>
			<ellipse class="st3" cx="154.8" cy="192" rx="0.7" ry="0.3"/>
		</g>
		<g>
			<ellipse class="st2" cx="153.3" cy="193.5" rx="0.7" ry="0.3"/>
			<path class="st2" d="M152.4,192.6c0,0,0,0.8,0,0.9s1.1,0.4,1.5,0v-0.9H152.4z"/>
			<ellipse class="st3" cx="153.3" cy="192.7" rx="0.7" ry="0.3"/>
		</g>
		<g>
			<ellipse class="st2" cx="151.7" cy="194.2" rx="0.7" ry="0.3"/>
			<path class="st2" d="M151,193.5c0,0,0,0.8,0,0.9s1.1,0.4,1.5,0v-0.9H151z"/>
			<ellipse class="st3" cx="151.7" cy="193.5" rx="0.7" ry="0.3"/>
		</g>
		<g>
			<ellipse class="st2" cx="150.2" cy="194.9" rx="0.7" ry="0.3"/>
			<path class="st2" d="M149.4,194.2c0,0,0,0.8,0,0.9s1.1,0.4,1.5,0v-0.9H149.4z"/>
			<ellipse class="st3" cx="150.2" cy="194.2" rx="0.7" ry="0.3"/>
		</g>
		<g>
			<ellipse class="st2" cx="148.7" cy="195.7" rx="0.7" ry="0.3"/>
			<path class="st2" d="M147.9,194.9c0,0,0,0.8,0,0.9s1.1,0.4,1.5,0v-0.9H147.9z"/>
			<ellipse class="st3" cx="148.7" cy="194.9" rx="0.7" ry="0.3"/>
		</g>
		<g>
			<ellipse class="st2" cx="147.2" cy="196.5" rx="0.7" ry="0.3"/>
			<path class="st2" d="M146.5,195.7c0,0,0,0.8,0,0.9c0,0.1,1.1,0.4,1.5,0v-0.9H146.5z"/>
			<ellipse class="st3" cx="147.2" cy="195.7" rx="0.7" ry="0.3"/>
		</g>
		<g>
			<ellipse class="st2" cx="145.7" cy="197.2" rx="0.7" ry="0.3"/>
			<path class="st2" d="M144.9,196.4c0,0,0,0.8,0,0.9c0,0.1,1.1,0.4,1.5,0v-0.9H144.9z"/>
			<ellipse class="st3" cx="145.6" cy="196.4" rx="0.7" ry="0.3"/>
		</g>
		<g>
			<ellipse class="st2" cx="144.1" cy="198" rx="0.7" ry="0.3"/>
			<path class="st2" d="M143.4,197.1c0,0,0,0.8,0,0.9c0,0.1,1,0.4,1.5,0v-0.9H143.4z"/>
			<ellipse class="st3" cx="144.1" cy="197.2" rx="0.7" ry="0.3"/>
		</g>
		<g>
			<ellipse class="st2" cx="142.7" cy="198.7" rx="0.7" ry="0.3"/>
			<path class="st2" d="M141.8,197.9c0,0,0,0.8,0,0.9s1.1,0.4,1.5,0v-0.9H141.8z"/>
			<ellipse class="st3" cx="142.7" cy="198" rx="0.7" ry="0.3"/>
		</g>
		<g>
			<ellipse class="st2" cx="141.1" cy="199.4" rx="0.7" ry="0.3"/>
			<path class="st2" d="M140.4,198.6c0,0,0,0.8,0,0.9c0,0.1,1.1,0.4,1.5,0v-0.9H140.4z"/>
			<ellipse class="st3" cx="141.1" cy="198.7" rx="0.7" ry="0.3"/>
		</g>
		<g>
			<ellipse class="st2" cx="139.6" cy="200.2" rx="0.7" ry="0.3"/>
			<path class="st2" d="M138.9,199.3c0,0,0,0.8,0,0.9s1,0.4,1.5,0v-0.9H138.9z"/>
			<ellipse class="st3" cx="139.6" cy="199.4" rx="0.7" ry="0.3"/>
		</g>
		<g>
			<ellipse class="st2" cx="138.1" cy="200.9" rx="0.7" ry="0.3"/>
			<path class="st2" d="M137.3,200.2c0,0,0,0.8,0,0.9s1,0.4,1.5,0v-0.9H137.3z"/>
			<ellipse class="st3" cx="138.1" cy="200.2" rx="0.7" ry="0.3"/>
		</g>
		<g>
			<ellipse class="st2" cx="136.6" cy="201.6" rx="0.7" ry="0.3"/>
			<path class="st2" d="M135.9,200.9c0,0,0,0.8,0,0.9c0,0.1,1,0.4,1.5,0v-0.9H135.9z"/>
			<ellipse class="st3" cx="136.6" cy="200.9" rx="0.7" ry="0.3"/>
		</g>
		<g>
			<ellipse class="st2" cx="135.1" cy="202.4" rx="0.7" ry="0.3"/>
			<path class="st2" d="M134.3,201.6c0,0,0,0.8,0,0.9c0,0.1,1.1,0.4,1.5,0v-0.9H134.3z"/>
			<ellipse class="st3" cx="135.1" cy="201.6" rx="0.7" ry="0.3"/>
		</g>
		<g>
			<ellipse class="st2" cx="133.5" cy="203.2" rx="0.7" ry="0.3"/>
			<path class="st2" d="M132.8,202.4c0,0,0,0.8,0,0.9c0,0.1,1.1,0.4,1.5,0v-0.9H132.8z"/>
			<ellipse class="st3" cx="133.5" cy="202.4" rx="0.7" ry="0.3"/>
		</g>
		<g>
			<ellipse class="st2" cx="132.1" cy="204" rx="0.7" ry="0.3"/>
			<path class="st2" d="M131.3,203.1c0,0,0,0.8,0,0.9s1.1,0.4,1.5,0v-0.9H131.3z"/>
			<ellipse class="st3" cx="132.1" cy="203.1" rx="0.7" ry="0.3"/>
		</g>
		<g>
			<ellipse class="st2" cx="130.5" cy="204.7" rx="0.7" ry="0.3"/>
			<path class="st2" d="M129.8,203.9c0,0,0,0.8,0,0.9c0,0.1,1.1,0.4,1.5,0v-0.9H129.8z"/>
			<ellipse class="st3" cx="130.5" cy="204" rx="0.7" ry="0.3"/>
		</g>
		<g>
			<ellipse class="st2" cx="129" cy="205.4" rx="0.7" ry="0.3"/>
			<path class="st2" d="M128.3,204.6c0,0,0,0.8,0,0.9c0,0.1,1.1,0.4,1.5,0v-0.9H128.3z"/>
			<ellipse class="st3" cx="129" cy="204.7" rx="0.7" ry="0.3"/>
		</g>
		<g>
			<ellipse class="st2" cx="127.6" cy="206.2" rx="0.7" ry="0.3"/>
			<path class="st2" d="M126.7,205.3c0,0,0,0.8,0,0.9s1,0.4,1.5,0v-0.9H126.7z"/>
			<ellipse class="st3" cx="127.6" cy="205.4" rx="0.7" ry="0.3"/>
		</g>
		<g>
			<ellipse class="st2" cx="126" cy="206.9" rx="0.7" ry="0.3"/>
			<path class="st2" d="M125.2,206.1c0,0,0,0.8,0,0.9c0,0.1,1,0.4,1.5,0v-0.9H125.2z"/>
			<ellipse class="st3" cx="126" cy="206.2" rx="0.7" ry="0.3"/>
		</g>
		<g>
			<ellipse class="st2" cx="124.5" cy="207.6" rx="0.7" ry="0.3"/>
			<path class="st2" d="M123.8,206.9c0,0,0,0.8,0,0.9c0,0.1,1,0.4,1.5,0v-0.9H123.8z"/>
			<ellipse class="st3" cx="124.5" cy="206.9" rx="0.7" ry="0.3"/>
		</g>
		<g>
			<ellipse class="st2" cx="122.9" cy="208.4" rx="0.7" ry="0.3"/>
			<path class="st2" d="M122.2,207.6c0,0,0,0.8,0,0.9c0,0.1,1.1,0.4,1.5,0v-0.9H122.2z"/>
			<ellipse class="st3" cx="122.9" cy="207.6" rx="0.7" ry="0.3"/>
		</g>
		<g>
			<ellipse class="st2" cx="121.5" cy="209.1" rx="0.7" ry="0.3"/>
			<path class="st2" d="M120.7,208.4c0,0,0,0.8,0,0.9s1.1,0.4,1.5,0v-0.9H120.7z"/>
			<ellipse class="st3" cx="121.5" cy="208.4" rx="0.7" ry="0.3"/>
		</g>
		<g>
			<ellipse class="st2" cx="120" cy="209.9" rx="0.7" ry="0.3"/>
			<path class="st2" d="M119.2,209.1c0,0,0,0.8,0,0.9c0,0.1,1,0.4,1.5,0v-0.9H119.2z"/>
			<ellipse class="st3" cx="120" cy="209.1" rx="0.7" ry="0.3"/>
		</g>
		<g>
			<ellipse class="st2" cx="118.4" cy="210.7" rx="0.7" ry="0.3"/>
			<path class="st2" d="M117.7,209.8c0,0,0,0.8,0,0.9c0,0.1,1,0.4,1.5,0v-0.9H117.7z"/>
			<ellipse class="st3" cx="118.4" cy="209.8" rx="0.7" ry="0.3"/>
		</g>
		<g>
			<ellipse class="st2" cx="117" cy="211.4" rx="0.7" ry="0.3"/>
			<path class="st2" d="M116.2,210.6c0,0,0,0.8,0,0.9c0,0.1,1,0.4,1.5,0v-0.9H116.2z"/>
			<ellipse class="st3" cx="117" cy="210.7" rx="0.7" ry="0.3"/>
		</g>
		<g>
			<ellipse class="st2" cx="115.4" cy="212.1" rx="0.7" ry="0.3"/>
			<path class="st2" d="M114.6,211.3c0,0,0,0.8,0,0.9c0,0.1,1.1,0.4,1.5,0v-0.9H114.6z"/>
			<ellipse class="st3" cx="115.4" cy="211.4" rx="0.7" ry="0.3"/>
		</g>
		<g>
			<ellipse class="st2" cx="113.9" cy="212.9" rx="0.7" ry="0.3"/>
			<path class="st2" d="M113.2,212c0,0,0,0.8,0,0.9c0,0.1,1.1,0.4,1.5,0V212H113.2z"/>
			<ellipse class="st3" cx="113.9" cy="212.1" rx="0.7" ry="0.3"/>
		</g>
		<g>
			<ellipse class="st2" cx="112.4" cy="213.6" rx="0.7" ry="0.3"/>
			<path class="st2" d="M111.6,212.8c0,0,0,0.8,0,0.9c0,0.1,1.1,0.4,1.5,0v-0.9H111.6z"/>
			<ellipse class="st3" cx="112.4" cy="212.9" rx="0.7" ry="0.3"/>
		</g>
		<g>
			<ellipse class="st2" cx="110.9" cy="214.4" rx="0.7" ry="0.3"/>
			<path class="st2" d="M110.1,213.6c0,0,0,0.8,0,0.9s1.1,0.4,1.5,0v-0.9H110.1z"/>
			<ellipse class="st3" cx="110.9" cy="213.6" rx="0.7" ry="0.3"/>
		</g>
		<g>
			<ellipse class="st2" cx="109.4" cy="215.1" rx="0.7" ry="0.3"/>
			<path class="st2" d="M108.7,214.4c0,0,0,0.8,0,0.9c0,0.1,1,0.4,1.5,0v-0.9H108.7z"/>
			<ellipse class="st3" cx="109.4" cy="214.4" rx="0.7" ry="0.3"/>
		</g>
		<g>
			<ellipse class="st2" cx="107.8" cy="215.8" rx="0.7" ry="0.3"/>
			<path class="st2" d="M107.1,215.1c0,0,0,0.8,0,0.9c0,0.1,1.1,0.4,1.5,0v-0.9H107.1z"/>
			<ellipse class="st3" cx="107.8" cy="215.1" rx="0.7" ry="0.3"/>
		</g>
		<g>
			<ellipse class="st2" cx="106.3" cy="216.7" rx="0.7" ry="0.3"/>
			<path class="st2" d="M105.6,215.8c0,0,0,0.8,0,0.9c0,0.1,1.1,0.4,1.5,0v-0.9H105.6z"/>
			<ellipse class="st3" cx="106.3" cy="215.8" rx="0.7" ry="0.3"/>
		</g>
		<g>
			<ellipse class="st2" cx="104.9" cy="217.4" rx="0.7" ry="0.3"/>
			<path class="st2" d="M104,216.6c0,0,0,0.8,0,0.9s1.1,0.4,1.5,0v-0.9H104z"/>
			<ellipse class="st3" cx="104.9" cy="216.6" rx="0.7" ry="0.3"/>
		</g>
	</g>
	<g>
		<path class="st12" d="M91.3,221.4c0,0,2.6-0.1,5.6-1.2c1.2-0.4,6.4-2.3,8.2-2.4c2,0,0.5-1.1,2-1.6c3.4-1.2,7.3-2.6,17.1-5.4
			c13.9-3.8,35.3-14.5,35.3-14.5l45.8-23.1l12.2-8.2l10.8,5.9L189,189.4l-26.1,13.2L125.1,220l-18.4,9L91.3,221.4z"/>
		<path class="st12" d="M208.2,170.3l-2.7-9.5c0.5-1,11.8,3.7,11.2,4.7l-8.5,7.9V170.3L208.2,170.3z"/>
	</g>
	<line class="st13" x1="109.5" y1="223" x2="217.3" y2="172.2"/>
	<polygon class="st0" points="47,221.5 106.1,251.5 105.9,206 46.9,176 	"/>
	<polygon class="st6" points="106.1,251.1 236.1,184.5 236.1,141 106,206.1 	"/>
	<path class="st14" d="M177.9,122.4L63.1,181l42.4,20.7l115.9-57.8L177.9,122.4z M126.4,185.9l68.1-34.7c0,0,8.5-2.2,4.2,0.9
		c-4.3,3.2-87.2,44.6-87.2,39.7C111.6,186.8,126.4,185.9,126.4,185.9z"/>
	<polygon class="st4" points="52,178.3 105.7,206.2 109.4,204.3 55.8,176.4 	"/>
	<polygon class="st4" points="105.8,206.1 235.8,140.9 231.9,139 101.8,203.9 	"/>
	<polygon class="st4" points="52,178.3 182.1,113.9 177.7,111.8 47.9,176.1 	"/>
	<g>
		<g>
			<g>
				<g>
					<g>
						<defs>
							<path id="SVGID_1_" d="M260.8,38.5c4.6,3.1,9.2,15.8-1.6,28.5c-10.8,12.7-41.4,17.4-41.4,17.4s13.1,2.3,18.6,4.3
								s53.4,62.3,58.8,64.5c4,1.9,24.9,0.2,38.6-15c13.8-15.2,12.4-30.6,10.8-34.4c-1.4-3.3-60.1-47.2-78.4-61.1L260.8,38.5"/>
						</defs>
						<clipPath id="SVGID_2_">
							<use xlink:href="#SVGID_1_"  style="overflow:visible;"/>
						</clipPath>
						<path class="st15" d="M344.8,104.6c0,0,0.6,20.3-11.8,32.7c-16.6,16.1-35.6,15.8-37.6,15.8c-6.2-5.1-52.4-63.3-60.8-66.4
							c-8.4-3-18,0-18,0l11.8-5.2l12.2-2.7l28,9.5l17.6,2.1l47.9,5.6L344.8,104.6z"/>
					</g>
				</g>
				<g>
					<path id="XMLID_48_" class="st16" d="M260.8,38.5c4.6,3.1,9.2,15.8-1.6,28.5c-10.8,12.7-41.4,17.4-41.4,17.4s13.1,2.3,18.6,4.3
						s53.4,62.3,58.8,64.5c4,1.9,24.9,0.2,38.6-15c13.8-15.2,12.4-30.6,10.8-34.4c-1.4-3.3-60.1-47.2-78.4-61.1L260.8,38.5"/>
				</g>
			</g>
			<path class="st16" d="M214.7,84.4c0,0-3.7-13.7,13.5-34.3s30-13.5,32.6-11.4"/>
		</g>
		<path class="st14" d="M237.6,78c-1.7-3.5-23.7-2.1-32.2,11s-7.8,16.4-7.8,16.4l-2.4,37.6c0,0,4.9,15.8,3.4,0.9
			c-1.6-14.9,6.3-46,10-49.5s7.8-5.9,14.8-10.8C228.7,80.2,238.3,79.4,237.6,78z"/>
	</g>
</g>
</svg>
