<?xml version="1.0" encoding="utf-8"?>
<!-- Generator: Adobe Illustrator 25.2.3, SVG Export Plug-In . SVG Version: 6.00 Build 0)  -->
<svg version="1.1" id="Layer_1" xmlns="http://www.w3.org/2000/svg" xmlns:xlink="http://www.w3.org/1999/xlink" x="0px" y="0px"
	 viewBox="0 0 280.1 222.7" style="enable-background:new 0 0 280.1 222.7;" xml:space="preserve">
<style type="text/css">
	.st0{fill:#CCB9B9;stroke:#FFFFFF;stroke-width:0.5;stroke-linejoin:bevel;stroke-miterlimit:10;}
	.st1{fill:#CCB9B9;stroke:#FFFFFF;stroke-width:0.5;stroke-miterlimit:10;}
	.st2{fill:#E4DAD8;stroke:#FFFFFF;stroke-width:0.5;stroke-miterlimit:10;}
	.st3{fill:#E4DAD8;stroke:#FFFFFF;stroke-width:0.5;stroke-linejoin:bevel;stroke-miterlimit:10;}
	.st4{fill:#CCB9B9;}
	.st5{fill:#CCB9B9;stroke:#FFFFFF;stroke-width:0.7908;stroke-miterlimit:10;}
	.st6{fill:#F77441;}
	.st7{fill:#B79797;stroke:#FFFFFF;stroke-width:0.7908;stroke-miterlimit:10;}
	.st8{fill:#361D32;stroke:#FFFFFF;stroke-width:0.2146;stroke-miterlimit:10;}
	.st9{fill:none;stroke:#361D32;stroke-width:0.1397;stroke-miterlimit:10;}
	.st10{fill:#E4DAD8;stroke:#FFFFFF;stroke-width:0.2146;stroke-miterlimit:10;}
	.st11{fill:none;stroke:#FFFFFF;stroke-width:0.8947;stroke-miterlimit:10;}
	.st12{fill:#E4DAD8;stroke:#FFFFFF;stroke-width:0.1542;stroke-miterlimit:10;}
	.st13{fill:#E4DAD8;stroke:#FFFFFF;stroke-width:0.123;stroke-miterlimit:10;}
	.st14{fill:#F77441;stroke:#FFFFFF;stroke-width:0.5;stroke-miterlimit:10;}
	.st15{fill:#361D32;stroke:#FFFFFF;stroke-width:0.25;stroke-miterlimit:10;}
	.st16{fill:#E4DAD8;stroke:#FFFFFF;stroke-width:0.25;stroke-miterlimit:10;}
	.st17{fill:none;stroke:#FFFFFF;stroke-width:0.5;stroke-miterlimit:10;}
	.st18{fill:#F77441;stroke:#FFFFFF;stroke-width:0.4307;stroke-miterlimit:10;}
	.st19{fill:#F77441;stroke:#FFFFFF;stroke-width:0.6103;stroke-miterlimit:10;}
	.st20{fill:none;stroke:#FFFFFF;stroke-width:0.6151;stroke-miterlimit:10;}
</style>
<g>
	<g>
		<line class="st0" x1="95.6" y1="199.5" x2="95.5" y2="214.8"/>
		<polygon class="st1" points="16.5,154.4 96.3,194.8 231.6,126.7 231.9,111 156.5,76.5 16.6,147 		"/>
		<polygon class="st1" points="16.6,155.6 16.8,140.4 96.4,179.4 96.1,194.8 		"/>
		<polygon class="st1" points="-0.2,159.4 -0.2,172.1 96.7,221.1 260.3,138.7 260,125.7 96.6,207 		"/>
		<path class="st2" d="M16.9,140.3c0,0,79.4,39.1,79.5,39L231.6,111l-79.9-38.6L16.9,140.3z"/>
		<polygon class="st2" points="96,207 260.4,125.7 163.2,78.5 0.1,158.4 		"/>
		<polygon class="st1" points="16.5,154.4 96,195.4 234.3,125.1 234.6,109.4 156.5,76.5 16.6,147 		"/>
		<polygon class="st0" points="16.6,155.6 16.8,140.4 96,180.3 95.9,195.6 		"/>
		<polygon class="st0" points="0.3,158.5 0.2,173.8 96,221.9 260.8,138.3 260.6,125.3 96,207 		"/>
		<path class="st3" d="M16.9,140.3c0,0,78.9,39.9,78.9,39.9L235.2,109l-79.9-38.6L16.9,140.3z"/>
		<line class="st1" x1="96" y1="207.4" x2="96" y2="221.7"/>
	</g>
	<g>
		<path class="st4" d="M152.9,39.5c0,0-0.6,1.9,0.6,1.5c1.3-0.4,3.5-1.6,2-1.7C154,39.1,152.9,39.5,152.9,39.5"/>
		<path class="st4" d="M155.7,33.8c0,0-0.6,1.9,0.7,1.5c1.3-0.4,3.5-1.7,1.9-1.8S155.7,33.8,155.7,33.8"/>
		<path class="st4" d="M153.4,36.2c0,0-0.5,1.9,0.8,1.5c1.2-0.5,3.4-1.9,1.8-1.9C154.4,35.8,153.4,36.2,153.4,36.2"/>
		<path class="st4" d="M157.9,38.6c0,0-0.6,1.9,0.7,1.5c1.3-0.4,3.5-1.7,1.9-1.8C158.9,38.2,157.9,38.6,157.9,38.6"/>
		<path class="st4" d="M160.3,35.6c0,0-0.5,1.9,0.7,1.5c1.3-0.4,3.5-1.8,1.9-1.8C161.3,35.2,160.3,35.6,160.3,35.6"/>
		<path class="st4" d="M158.7,43.2c0,0-0.5,1.9,0.8,1.5c1.2-0.5,3.4-1.9,1.8-1.9C159.7,42.8,158.7,43.2,158.7,43.2"/>
		<path class="st4" d="M161.6,32c0,0-0.7,1.9,0.6,1.5c1.3-0.3,3.6-1.5,2-1.7C162.6,31.7,161.6,32,161.6,32"/>
		<path class="st4" d="M164.7,37.7c0,0-0.5,1.9,0.8,1.5c1.2-0.5,3.4-1.9,1.8-1.9C165.7,37.3,164.7,37.7,164.7,37.7"/>
		<path class="st4" d="M166.4,32c0,0-0.5,1.9,0.7,1.5c1.3-0.4,3.5-1.8,1.9-1.8C167.4,31.6,166.4,32,166.4,32"/>
		<path class="st4" d="M176.4,38.5c0,0,0,2,1.1,1.3c1.1-0.8,2.9-2.7,1.3-2.3C177.3,37.8,176.4,38.5,176.4,38.5"/>
		<path class="st4" d="M173.1,35.8c0,0-0.5,1.9,0.8,1.5c1.2-0.5,3.4-1.9,1.8-1.9C174.1,35.4,173.1,35.8,173.1,35.8"/>
		<path class="st4" d="M171.7,31.5c0,0-0.7,1.9,0.6,1.6c1.3-0.3,3.6-1.4,2-1.6C172.8,31.2,171.7,31.5,171.7,31.5"/>
		<path class="st4" d="M169.9,26.9c0,0-0.7,1.9,0.6,1.5c1.3-0.3,3.6-1.4,2-1.6C170.9,26.6,169.9,26.9,169.9,26.9"/>
		<path class="st4" d="M175.2,29.2c0,0-0.5,1.9,0.8,1.5c1.2-0.5,3.4-1.9,1.8-1.9C176.2,28.8,175.2,29.2,175.2,29.2"/>
		<path class="st4" d="M175.7,44.3c0,0,0.2,2.1,1.3,1.2c1.1-0.9,2.7-3.1,1.1-2.5C176.6,43.5,175.7,44.3,175.7,44.3"/>
		<path class="st4" d="M168.3,36.1c0,0-0.5,1.9,0.8,1.5c1.2-0.5,3.4-1.9,1.8-1.9C169.3,35.7,168.3,36.1,168.3,36.1"/>
		<path class="st4" d="M169.3,41.1c0,0-0.5,1.9,0.8,1.5c1.2-0.5,3.4-1.9,1.8-1.9C170.3,40.7,169.3,41.1,169.3,41.1"/>
		<path class="st4" d="M164,47.1c0,0-0.9,1.8,0.4,1.6c1.3-0.2,3.7-1.1,2.2-1.5C165.1,46.9,164,47.1,164,47.1"/>
		<path class="st4" d="M170.2,50.1c0,0-0.4,2,0.8,1.5s3.4-2,1.8-2C171.2,49.6,170.2,50.1,170.2,50.1"/>
		<path class="st4" d="M165.1,58.4c0,0-0.1,2.8,1.5,1.8c1.6-1,4.2-3.6,2-3.2C166.4,57.5,165.1,58.4,165.1,58.4"/>
		<path class="st4" d="M161.2,54.2c0,0-0.5,2,0.8,1.5c1.3-0.5,3.5-2,1.8-2C162.2,53.7,161.2,54.2,161.2,54.2"/>
		<path class="st4" d="M157.9,53.9c0,0-0.8,1.8,0.5,1.6s3.7-1.2,2.1-1.5C159,53.6,157.9,53.9,157.9,53.9"/>
		<path class="st4" d="M151,55.2c0,0-0.5,1.9,0.8,1.5c1.2-0.5,3.4-1.9,1.8-1.9C152,54.8,151,55.2,151,55.2"/>
		<path class="st4" d="M161.4,62.8c0,0-0.1,3,1.6,1.9c1.7-1.1,4.5-3.8,2.1-3.3C162.8,61.9,161.4,62.8,161.4,62.8"/>
		<path class="st4" d="M159.5,64.3c1.1-1.3,2.7-4.1,0.9-3.2c-1.8,0.9-2.7,2-2.7,2"/>
		<path class="st4" d="M171.6,55.7c0,0-1.4,1.5,0,1.7c1.4,0.2,4,0,2.6-0.8C172.7,55.9,171.6,55.7,171.6,55.7"/>
		<path class="st4" d="M168.2,61.1c0,0-0.8,2.2,0.7,1.8c1.5-0.4,4.2-1.8,2.4-2C169.4,60.7,168.2,61.1,168.2,61.1"/>
		<path class="st4" d="M150.5,50.7c0,0-0.5,1.9,0.8,1.5c1.2-0.5,3.4-1.9,1.8-1.9C151.5,50.2,150.5,50.7,150.5,50.7"/>
		<path class="st4" d="M146.1,47.9c0,0-0.8,1.8,0.5,1.6c1.3-0.2,3.7-1.3,2.1-1.5C147.1,47.6,146.1,47.9,146.1,47.9"/>
		<path class="st4" d="M181.7,23.6c0,0-2.4-0.9-0.9-1.6c1.5-0.7,4.7-1.5,3.4-0.2C182.9,23.1,181.7,23.6,181.7,23.6"/>
	</g>
	<g>
		<path class="st4" d="M116.5,57.6c0,0-0.6,1.9,0.6,1.5c1.3-0.4,3.5-1.6,2-1.7C117.5,57.3,116.5,57.6,116.5,57.6"/>
		<path class="st4" d="M119.3,51.9c0,0-0.6,1.9,0.7,1.5c1.3-0.4,3.5-1.7,1.9-1.8S119.3,51.9,119.3,51.9"/>
		<path class="st4" d="M117,54.3c0,0-0.5,1.9,0.8,1.5c1.2-0.5,3.4-1.9,1.8-1.9C118,53.9,117,54.3,117,54.3"/>
		<path class="st4" d="M121.5,56.7c0,0-0.6,1.9,0.7,1.5c1.3-0.4,3.5-1.7,1.9-1.8C122.5,56.3,121.5,56.7,121.5,56.7"/>
		<path class="st4" d="M123.8,53.7c0,0-0.5,1.9,0.7,1.5c1.3-0.4,3.5-1.8,1.9-1.8C124.8,53.3,123.8,53.7,123.8,53.7"/>
		<path class="st4" d="M122.2,61.3c0,0-0.5,1.9,0.8,1.5c1.2-0.5,3.4-1.9,1.8-1.9C123.2,60.9,122.2,61.3,122.2,61.3"/>
		<path class="st4" d="M125.1,50.1c0,0-0.7,1.9,0.6,1.5c1.3-0.3,3.6-1.5,2-1.7C126.1,49.8,125.1,50.1,125.1,50.1"/>
		<path class="st4" d="M128.2,55.8c0,0-0.5,1.9,0.8,1.5c1.2-0.5,3.4-1.9,1.8-1.9C129.2,55.4,128.2,55.8,128.2,55.8"/>
		<path class="st4" d="M129.9,50.1c0,0-0.5,1.9,0.7,1.5c1.3-0.4,3.5-1.8,1.9-1.8C130.9,49.7,129.9,50.1,129.9,50.1"/>
		<path class="st4" d="M140,56.6c0,0,0,2,1.1,1.3c1.1-0.8,2.9-2.7,1.3-2.3C140.8,55.9,140,56.6,140,56.6"/>
		<path class="st4" d="M136.6,54c0,0-0.5,1.9,0.8,1.5c1.2-0.5,3.4-1.9,1.8-1.9C137.6,53.5,136.6,54,136.6,54"/>
		<path class="st4" d="M135.2,49.6c0,0-0.7,1.9,0.6,1.6c1.3-0.3,3.6-1.4,2-1.6C136.3,49.3,135.2,49.6,135.2,49.6"/>
		<path class="st4" d="M133.4,45c0,0-0.7,1.9,0.6,1.5c1.3-0.3,3.6-1.4,2-1.6C134.5,44.7,133.4,45,133.4,45"/>
		<path class="st4" d="M138.8,47.4c0,0-0.5,1.9,0.8,1.5c1.2-0.5,3.4-1.9,1.8-1.9C139.7,46.9,138.8,47.4,138.8,47.4"/>
		<path class="st4" d="M131.8,54.2c0,0-0.5,1.9,0.8,1.5c1.2-0.5,3.4-1.9,1.8-1.9C132.8,53.8,131.8,54.2,131.8,54.2"/>
		<path class="st4" d="M132.8,59.3c0,0-0.5,1.9,0.8,1.5c1.2-0.5,3.4-1.9,1.8-1.9C133.8,58.8,132.8,59.3,132.8,59.3"/>
		<path class="st4" d="M127.6,65.2c0,0-0.9,1.8,0.4,1.6c1.3-0.2,3.7-1.1,2.2-1.5C128.6,65,127.6,65.2,127.6,65.2"/>
		<path class="st4" d="M133.7,68.2c0,0-0.4,2,0.8,1.5c1.3-0.5,3.4-2,1.8-2C134.8,67.7,133.7,68.2,133.7,68.2"/>
		<path class="st4" d="M128.7,76.5c0,0-0.1,2.8,1.5,1.8c1.6-1,4.2-3.6,2-3.2C129.9,75.6,128.7,76.5,128.7,76.5"/>
		<path class="st4" d="M124.7,72.3c0,0-0.5,2,0.8,1.5c1.3-0.5,3.5-2,1.8-2C125.7,71.9,124.7,72.3,124.7,72.3"/>
		<path class="st4" d="M121.4,72c0,0-0.8,1.8,0.5,1.6s3.7-1.2,2.1-1.5C122.5,71.8,121.4,72,121.4,72"/>
		<path class="st4" d="M114.5,73.3c0,0-0.5,1.9,0.8,1.5c1.2-0.5,3.4-1.9,1.8-1.9C115.5,72.9,114.5,73.3,114.5,73.3"/>
		<path class="st4" d="M123,82.5c1.1-1.3,2.7-4.1,0.9-3.2c-1.8,0.9-2.7,2-2.7,2"/>
		<path class="st4" d="M135.1,73.9c0,0-1.4,1.5,0,1.7c1.4,0.2,4,0,2.6-0.8C136.2,74,135.1,73.9,135.1,73.9"/>
		<path class="st4" d="M114,68.8c0,0-0.5,1.9,0.8,1.5c1.2-0.5,3.4-1.9,1.8-1.9C115,68.4,114,68.8,114,68.8"/>
		<path class="st4" d="M109.6,66c0,0-0.8,1.8,0.5,1.6c1.3-0.2,3.7-1.3,2.1-1.5C110.7,65.7,109.6,66,109.6,66"/>
		<path class="st4" d="M145.2,41.7c0,0-2.4-0.9-0.9-1.6s4.7-1.5,3.4-0.2C146.4,41.2,145.2,41.7,145.2,41.7"/>
	</g>
	<g>
		<path class="st5" d="M275,34.1c4.4,3.4,7.1,13,1.5,23.5c-5.6,10.5-14.1,13.3-17.6,12.1c-3.5-1.1-66.6-33.2-66.6-33.2l16.9-35.4
			C209.1,1.2,270.6,30.8,275,34.1z"/>
		<path class="st6" d="M259.5,25.6c2.3,1.4,4.9,13-0.7,23c-5.6,10-12.5,14.5-16,13.4c-3.5-1.1-31.3-16.1-31.3-16.1s9-1.1,15.6-12.6
			c6.6-11.5,3.1-21.8,3.1-21.8S257.2,24.3,259.5,25.6"/>
		<path class="st4" d="M211.1,25.8c-6,9-15.7,13.1-21.6,9.1c-5.9-4-5.8-14.5,0.2-23.5c6-9,15.7-13.1,21.6-9.1
			C217.3,6.3,217.2,16.8,211.1,25.8"/>
		<path class="st7" d="M211.1,25.8c-6,9-15.7,13.1-21.6,9.1c-5.9-4-5.8-14.5,0.2-23.5c6-9,15.7-13.1,21.6-9.1
			C217.3,6.3,217.2,16.8,211.1,25.8z"/>
		<path class="st4" d="M197.8,16.8c-2.6,3.9-6.9,5.7-9.5,4c-2.6-1.7-2.5-6.3,0.1-10.3c2.6-3.9,6.9-5.7,9.5-4
			C200.5,8.3,200.4,12.9,197.8,16.8"/>
		<path class="st8" d="M197.8,16.8c-2.6,3.9-6.9,5.7-9.5,4c-2.6-1.7-2.5-6.3,0.1-10.3c2.6-3.9,6.9-5.7,9.5-4
			C200.5,8.3,200.4,12.9,197.8,16.8z"/>
		<path class="st4" d="M194,14.4c-1,1.4-2.5,2.1-3.4,1.4c-0.9-0.6-0.9-2.3,0-3.7c1-1.4,2.5-2.1,3.4-1.4
			C194.9,11.3,194.9,13,194,14.4"/>
		<path class="st9" d="M194,14.4c-1,1.4-2.5,2.1-3.4,1.4c-0.9-0.6-0.9-2.3,0-3.7c1-1.4,2.5-2.1,3.4-1.4
			C194.9,11.3,194.9,13,194,14.4z"/>
		<path class="st8" d="M197.9,6.5c3.6,2.6,6.3,1.7,6.3,1.7c3.4-1.4,5.4,2.3,5.9,4.3c0.5,2-0.4,8.4-4.6,12.7
			c-4.2,4.3-8.3,6.3-11.7,3.2c-0.5-4.9-4.6-7.2-4.6-7.2s3.8,1.8,8.5-4.2C202.3,11,197.9,6.5,197.9,6.5"/>
		<path class="st4" d="M190.9,12.9c-1,1.4-2.5,2.1-3.4,1.4c-0.9-0.6-0.9-2.3,0-3.7c1-1.4,2.5-2.1,3.4-1.4
			C191.9,9.8,191.9,11.5,190.9,12.9"/>
		<path class="st10" d="M190.9,12.9c-1,1.4-2.5,2.1-3.4,1.4c-0.9-0.6-0.9-2.3,0-3.7c1-1.4,2.5-2.1,3.4-1.4
			C191.9,9.8,191.9,11.5,190.9,12.9z"/>
		<path class="st10" d="M191.1,9.3l2.9,1.4c0,0,1.5,1.4,0.2,3.4c-1.4,2-3,2-3,2l-3.4-1.7c0,0,2.3,0.2,3.4-2
			C192.2,10.2,191.1,9.3,191.1,9.3z"/>
		<path class="st11" d="M231.2,51.2c-0.1-4.3-0.1-8.6-0.2-12.9c2.8,2.6,5.6,5.2,8.6,7.6c0.2-3.2-0.9-6.6-3-9
			c0.3,0.3,0.9,0.2,1.1-0.2c0.3-0.3,0.3-0.8,0.3-1.3c0.2-3.2-0.2-6.3-1-9.4c0.5,0.5,1.2,0.7,1.8,0.4c0-0.5,0.1-0.9,0.1-1.4
			c1.7,0.2,3.4-0.7,4.4-2.1"/>
		<rect x="187.7" y="14.8" transform="matrix(0.8879 0.46 -0.46 0.8879 28.2963 -84.8826)" class="st12" width="1.2" height="1.6"/>
		<ellipse transform="matrix(0.4295 -0.9031 0.9031 0.4295 92.4508 179.0898)" class="st13" cx="188" cy="16.4" rx="0.2" ry="0.6"/>
	</g>
	<g>
		<path class="st4" d="M152.9,39.5c0,0-0.6,1.9,0.6,1.5c1.3-0.4,3.5-1.6,2-1.7C154,39.1,152.9,39.5,152.9,39.5"/>
		<path class="st4" d="M155.7,33.8c0,0-0.6,1.9,0.7,1.5c1.3-0.4,3.5-1.7,1.9-1.8S155.7,33.8,155.7,33.8"/>
		<path class="st4" d="M153.4,36.2c0,0-0.5,1.9,0.8,1.5c1.2-0.5,3.4-1.9,1.8-1.9C154.4,35.8,153.4,36.2,153.4,36.2"/>
		<path class="st4" d="M157.9,38.6c0,0-0.6,1.9,0.7,1.5c1.3-0.4,3.5-1.7,1.9-1.8C158.9,38.2,157.9,38.6,157.9,38.6"/>
		<path class="st4" d="M160.3,35.6c0,0-0.5,1.9,0.7,1.5c1.3-0.4,3.5-1.8,1.9-1.8C161.3,35.2,160.3,35.6,160.3,35.6"/>
		<path class="st4" d="M158.7,43.2c0,0-0.5,1.9,0.8,1.5c1.2-0.5,3.4-1.9,1.8-1.9C159.7,42.8,158.7,43.2,158.7,43.2"/>
		<path class="st4" d="M161.6,32c0,0-0.7,1.9,0.6,1.5c1.3-0.3,3.6-1.5,2-1.7C162.6,31.7,161.6,32,161.6,32"/>
		<path class="st4" d="M164.7,37.7c0,0-0.5,1.9,0.8,1.5c1.2-0.5,3.4-1.9,1.8-1.9C165.7,37.3,164.7,37.7,164.7,37.7"/>
		<path class="st4" d="M166.4,32c0,0-0.5,1.9,0.7,1.5c1.3-0.4,3.5-1.8,1.9-1.8C167.4,31.6,166.4,32,166.4,32"/>
		<path class="st4" d="M176.4,38.5c0,0,0,2,1.1,1.3c1.1-0.8,2.9-2.7,1.3-2.3C177.3,37.8,176.4,38.5,176.4,38.5"/>
		<path class="st4" d="M173.1,35.8c0,0-0.5,1.9,0.8,1.5c1.2-0.5,3.4-1.9,1.8-1.9C174.1,35.4,173.1,35.8,173.1,35.8"/>
		<path class="st4" d="M171.7,31.5c0,0-0.7,1.9,0.6,1.6c1.3-0.3,3.6-1.4,2-1.6C172.8,31.2,171.7,31.5,171.7,31.5"/>
		<path class="st4" d="M169.9,26.9c0,0-0.7,1.9,0.6,1.5c1.3-0.3,3.6-1.4,2-1.6C170.9,26.6,169.9,26.9,169.9,26.9"/>
		<path class="st4" d="M175.2,29.2c0,0-0.5,1.9,0.8,1.5c1.2-0.5,3.4-1.9,1.8-1.9C176.2,28.8,175.2,29.2,175.2,29.2"/>
		<path class="st4" d="M175.7,44.3c0,0,0.2,2.1,1.3,1.2c1.1-0.9,2.7-3.1,1.1-2.5C176.6,43.5,175.7,44.3,175.7,44.3"/>
		<path class="st4" d="M168.3,36.1c0,0-0.5,1.9,0.8,1.5c1.2-0.5,3.4-1.9,1.8-1.9C169.3,35.7,168.3,36.1,168.3,36.1"/>
		<path class="st4" d="M169.3,41.1c0,0-0.5,1.9,0.8,1.5c1.2-0.5,3.4-1.9,1.8-1.9C170.3,40.7,169.3,41.1,169.3,41.1"/>
		<path class="st4" d="M164,47.1c0,0-0.9,1.8,0.4,1.6c1.3-0.2,3.7-1.1,2.2-1.5C165.1,46.9,164,47.1,164,47.1"/>
		<path class="st4" d="M170.2,50.1c0,0-0.4,2,0.8,1.5s3.4-2,1.8-2C171.2,49.6,170.2,50.1,170.2,50.1"/>
		<path class="st4" d="M165.1,58.4c0,0-0.1,2.8,1.5,1.8c1.6-1,4.2-3.6,2-3.2C166.4,57.5,165.1,58.4,165.1,58.4"/>
		<path class="st4" d="M161.2,54.2c0,0-0.5,2,0.8,1.5c1.3-0.5,3.5-2,1.8-2C162.2,53.7,161.2,54.2,161.2,54.2"/>
		<path class="st4" d="M157.9,53.9c0,0-0.8,1.8,0.5,1.6s3.7-1.2,2.1-1.5C159,53.6,157.9,53.9,157.9,53.9"/>
		<path class="st4" d="M151,55.2c0,0-0.5,1.9,0.8,1.5c1.2-0.5,3.4-1.9,1.8-1.9C152,54.8,151,55.2,151,55.2"/>
		<path class="st4" d="M161.4,62.8c0,0-0.1,3,1.6,1.9c1.7-1.1,4.5-3.8,2.1-3.3C162.8,61.9,161.4,62.8,161.4,62.8"/>
		<path class="st4" d="M159.5,64.3c1.1-1.3,2.7-4.1,0.9-3.2c-1.8,0.9-2.7,2-2.7,2"/>
		<path class="st4" d="M171.6,55.7c0,0-1.4,1.5,0,1.7c1.4,0.2,4,0,2.6-0.8C172.7,55.9,171.6,55.7,171.6,55.7"/>
		<path class="st4" d="M168.2,61.1c0,0-0.8,2.2,0.7,1.8c1.5-0.4,4.2-1.8,2.4-2C169.4,60.7,168.2,61.1,168.2,61.1"/>
		<path class="st4" d="M150.5,50.7c0,0-0.5,1.9,0.8,1.5c1.2-0.5,3.4-1.9,1.8-1.9C151.5,50.2,150.5,50.7,150.5,50.7"/>
		<path class="st4" d="M146.1,47.9c0,0-0.8,1.8,0.5,1.6c1.3-0.2,3.7-1.3,2.1-1.5C147.1,47.6,146.1,47.9,146.1,47.9"/>
		<path class="st4" d="M181.7,23.6c0,0-2.4-0.9-0.9-1.6c1.5-0.7,4.7-1.5,3.4-0.2C182.9,23.1,181.7,23.6,181.7,23.6"/>
	</g>
	<g>
		<path class="st5" d="M275,34.1c4.4,3.4,7.1,13,1.5,23.5c-5.6,10.5-14.1,13.3-17.6,12.1c-3.5-1.1-66.6-33.2-66.6-33.2l16.9-35.4
			C209.1,1.2,270.6,30.8,275,34.1z"/>
		<path class="st14" d="M259.5,25.6c2.3,1.4,4.9,13-0.7,23c-5.6,10-12.5,14.5-16,13.4c-3.5-1.1-31.3-16.1-31.3-16.1s9-1.1,15.6-12.6
			c6.6-11.5,3.1-21.8,3.1-21.8S257.2,24.3,259.5,25.6"/>
		<path class="st4" d="M211.1,25.8c-6,9-15.7,13.1-21.6,9.1c-5.9-4-5.8-14.5,0.2-23.5c6-9,15.7-13.1,21.6-9.1
			C217.3,6.3,217.2,16.8,211.1,25.8"/>
		<path class="st3" d="M211.1,25.8c-6,9-15.7,13.1-21.6,9.1c-5.9-4-5.8-14.5,0.2-23.5c6-9,15.7-13.1,21.6-9.1
			C217.3,6.3,217.2,16.8,211.1,25.8z"/>
		<path class="st4" d="M197.8,16.8c-2.6,3.9-6.9,5.7-9.5,4c-2.6-1.7-2.5-6.3,0.1-10.3c2.6-3.9,6.9-5.7,9.5-4
			C200.5,8.3,200.4,12.9,197.8,16.8"/>
		<path class="st8" d="M197.8,16.8c-2.6,3.9-6.9,5.7-9.5,4c-2.6-1.7-2.5-6.3,0.1-10.3c2.6-3.9,6.9-5.7,9.5-4
			C200.5,8.3,200.4,12.9,197.8,16.8z"/>
		<path class="st4" d="M194,14.4c-1,1.4-2.5,2.1-3.4,1.4c-0.9-0.6-0.9-2.3,0-3.7c1-1.4,2.5-2.1,3.4-1.4
			C194.9,11.3,194.9,13,194,14.4"/>
		<path class="st9" d="M194,14.4c-1,1.4-2.5,2.1-3.4,1.4c-0.9-0.6-0.9-2.3,0-3.7c1-1.4,2.5-2.1,3.4-1.4
			C194.9,11.3,194.9,13,194,14.4z"/>
		<path class="st15" d="M197.9,6.5c3.6,2.6,6.3,1.7,6.3,1.7c3.4-1.4,5.4,1.6,6,4.2c0.6,2.7-0.5,8.5-4.7,12.8c-2.8,2.9-5.3,4.9-7.8,5
			c-0.4,0-1.9-0.2-2.9-0.7s-1.2-1.1-1.2-1.2c-0.7-4.6-4.4-7.1-4.4-7.1s3.8,1.8,8.5-4.2C202.3,11,197.9,6.5,197.9,6.5"/>
		<path class="st4" d="M190.9,12.9c-1,1.4-2.5,2.1-3.4,1.4c-0.9-0.6-0.9-2.3,0-3.7c1-1.4,2.5-2.1,3.4-1.4
			C191.9,9.8,191.9,11.5,190.9,12.9"/>
		<path class="st16" d="M190.9,12.9c-1,1.4-2.5,2.1-3.4,1.4c-0.9-0.6-0.9-2.3,0-3.7c1-1.4,2.5-2.1,3.4-1.4
			C191.9,9.8,191.9,11.5,190.9,12.9z"/>
		<path class="st16" d="M191.1,9.3l2.9,1.4c0,0,1.5,1.4,0.2,3.4c-1.4,2-3,2-3,2l-3.4-1.7c0,0,2.3,0.2,3.4-2
			C192.2,10.2,191.1,9.3,191.1,9.3z"/>
		<path class="st11" d="M231.2,51.2c-0.1-4.3-0.1-8.6-0.2-12.9c2.8,2.6,5.6,5.2,8.6,7.6c0.2-3.2-0.9-6.6-3-9
			c0.3,0.3,0.9,0.2,1.1-0.2c0.3-0.3,0.3-0.8,0.3-1.3c0.2-3.2-0.2-6.3-1-9.4c0.5,0.5,1.2,0.7,1.8,0.4c0-0.5,0.1-0.9,0.1-1.4
			c1.7,0.2,3.4-0.7,4.4-2.1"/>
		<rect x="187.7" y="14.8" transform="matrix(0.8879 0.46 -0.46 0.8879 28.2963 -84.8826)" class="st12" width="1.2" height="1.6"/>
		<ellipse transform="matrix(0.4295 -0.9031 0.9031 0.4295 92.4508 179.0898)" class="st13" cx="188" cy="16.4" rx="0.2" ry="0.6"/>
	</g>
	<g>
		<path class="st14" d="M96,37.1c0.6-1.5,3.7-2.7,7.4-2.6c3.7,0.1,6.6,1.4,6.6,3c0,1.6-2.4,2.3-6.7,2.4C99,40,95.9,37.3,96,37.1z"/>
		<path class="st14" d="M96,37.2c0.2,1,1.7,1.8,1.7,1.8s0,1.2,0,1.6c0,0.5-6.3,10-8.1,13.6c-1.4,2.8-3.4,8.1-3,12.3
			c0.4,4.3,1.6,5.9,1.6,5.9l0.3,0.8c0,0-0.1,3.8-0.1,4s-0.4-0.4-1,1.8c-0.6,2.2-0.7,5.5-0.7,6.3c0,0.9-0.1,5.8,0.2,6.5
			c0.3,0.7,0.6,1.4,0.9,1.6c0.3,0.2-0.9,0-0.9,1.2c0,1.2-0.1,4.8-0.1,5.8s0.3,1.7,0.5,1.8c0,0-0.8,0.5-0.9,1.4
			c-0.1,1,0.1,4.3,0.2,5.6c0.1,0.4,1,1.1,1,1.1s-0.9,0.6-0.9,0.9c0,0-0.1,5.5-0.1,6.1c0,0.6,0.7,1.3,0.7,1.3s-0.7,0.6-0.7,1.2
			c0,0.6-0.2,3.7-0.2,5.6c0,1.9,0.1,3.9,0.1,4.4s0.6,0.7,0.6,1.1c0,0-0.9,0.6-0.9,1.1c0,0.6,0.1,7.9,0.1,7.9c0,0.2-0.2,3.3,3.2,6.2
			c2,1.7,6.6,3.5,12.7,3.5c6.1,0,7.1-0.2,10-1.6c2.9-1.4,4-3.7,4.6-5.3s0.6-9.5,0.5-10.5c0-0.3-0.6-0.6-0.6-0.8
			c0-0.2,0.5-0.7,0.6-1.5s0.2-8.2,0.2-9.2s-0.7-1.3-0.7-1.3s0.4-0.8,0.5-1.4c0.1-0.6,0.4-5.8,0.4-6.5c0-0.7-0.9-1-0.9-1.1
			c0-0.1,0.7-0.5,0.8-0.8c0.2-1,0.2-5.5,0.2-5.5c0-0.2,0-0.6,0-0.7c-0.1-0.4-0.9-0.4-0.9-0.7c0-0.3,1.1-0.6,1.1-1.4s0.2-5.8,0.2-6.4
			c0-0.6-0.6-0.4-0.7-0.8c0,0,0.5-0.9,0.6-1.1c0.3-1,0.7-3.4,0.7-6.4c0-2.9-0.2-6.7-0.3-7.4s-0.4-1.8-1.2-1.8c0-0.1,0-3.9,0-3.9
			l0.9-2.1c0,0,2-6.6-0.4-13.7s-8.8-16.8-8.9-17.2c0-0.4-0.2-1.8-0.2-1.8s1.4-0.6,1.4-1.6c0.1-1-1.5-1.3-1.5-1.6l0.2-7.3
			c0,0-0.8,2.5-4.9,2.4c-5.1-0.1-6.1-2.5-6.1-2.5s-0.2,7-0.1,7.2C97.6,35.9,95.8,36.2,96,37.2z"/>
		<path class="st17" d="M97.6,35.7c-1,0.3,1.3,2.7,6,2.8s5.9-2.5,5.2-2.5"/>
		<path class="st17" d="M110,37.8c0,0-1.3,2.3-6.8,2.3c-5.4,0-7-2.6-7-2.6"/>
		<path class="st18" d="M97.9,28.8c0-1.3,2.9-2.3,5.7-2.2c2.8,0.1,5.1,1.2,5,2.5c0,1.3-2.3,2.1-5.2,2
			C100.7,31.1,97.9,30.1,97.9,28.8z"/>
		<path class="st19" d="M103.6,29.3"/>
		<path class="st19" d="M120.7,65.9"/>
		<path class="st20" d="M87.8,93.7c0,0,4.6,3.8,15.1,4.1c10.9,0.3,14.7-3.9,14.7-3.9"/>
		<path class="st20" d="M87.2,102.2c0,0,4.7,4,15.3,4.4c10.9,0.3,14.8-4.2,14.8-4.2"/>
		<path class="st20" d="M87.4,119c0,0,4,4.4,14.5,4.7c10.9,0.3,15-4.3,15-4.3"/>
		<path class="st20" d="M87.7,110.5c0,0,6.1,4,14.5,4.2c8.4,0.2,14.6-4.2,14.6-4.2"/>
		<path class="st20" d="M87.1,130.9c0,0,4,4.5,14.9,4.8c11.2,0.4,15-4.3,15-4.3"/>
		<path class="st20" d="M88.4,72.8c0,0,4.3,4.3,15,4.2c10.6-0.1,14-4,14-4"/>
		<path class="st20" d="M88.4,77.4c0,0,2.9,3.8,14.4,4.2s14.4-3.9,14.4-3.9"/>
	</g>
	<g>
		<path class="st4" d="M116.5,57.6c0,0-0.6,1.9,0.6,1.5c1.3-0.4,3.5-1.6,2-1.7C117.5,57.3,116.5,57.6,116.5,57.6"/>
		<path class="st4" d="M119.3,51.9c0,0-0.6,1.9,0.7,1.5c1.3-0.4,3.5-1.7,1.9-1.8S119.3,51.9,119.3,51.9"/>
		<path class="st4" d="M117,54.3c0,0-0.5,1.9,0.8,1.5c1.2-0.5,3.4-1.9,1.8-1.9C118,53.9,117,54.3,117,54.3"/>
		<path class="st4" d="M121.5,56.7c0,0-0.6,1.9,0.7,1.5c1.3-0.4,3.5-1.7,1.9-1.8C122.5,56.3,121.5,56.7,121.5,56.7"/>
		<path class="st4" d="M123.8,53.7c0,0-0.5,1.9,0.7,1.5c1.3-0.4,3.5-1.8,1.9-1.8C124.8,53.3,123.8,53.7,123.8,53.7"/>
		<path class="st4" d="M122.2,61.3c0,0-0.5,1.9,0.8,1.5c1.2-0.5,3.4-1.9,1.8-1.9C123.2,60.9,122.2,61.3,122.2,61.3"/>
		<path class="st4" d="M125.1,50.1c0,0-0.7,1.9,0.6,1.5c1.3-0.3,3.6-1.5,2-1.7C126.1,49.8,125.1,50.1,125.1,50.1"/>
		<path class="st4" d="M128.2,55.8c0,0-0.5,1.9,0.8,1.5c1.2-0.5,3.4-1.9,1.8-1.9C129.2,55.4,128.2,55.8,128.2,55.8"/>
		<path class="st4" d="M129.9,50.1c0,0-0.5,1.9,0.7,1.5c1.3-0.4,3.5-1.8,1.9-1.8C130.9,49.7,129.9,50.1,129.9,50.1"/>
		<path class="st4" d="M140,56.6c0,0,0,2,1.1,1.3c1.1-0.8,2.9-2.7,1.3-2.3C140.8,55.9,140,56.6,140,56.6"/>
		<path class="st4" d="M136.6,54c0,0-0.5,1.9,0.8,1.5c1.2-0.5,3.4-1.9,1.8-1.9C137.6,53.5,136.6,54,136.6,54"/>
		<path class="st4" d="M135.2,49.6c0,0-0.7,1.9,0.6,1.6c1.3-0.3,3.6-1.4,2-1.6C136.3,49.3,135.2,49.6,135.2,49.6"/>
		<path class="st4" d="M133.4,45c0,0-0.7,1.9,0.6,1.5c1.3-0.3,3.6-1.4,2-1.6C134.5,44.7,133.4,45,133.4,45"/>
		<path class="st4" d="M138.8,47.4c0,0-0.5,1.9,0.8,1.5c1.2-0.5,3.4-1.9,1.8-1.9C139.7,46.9,138.8,47.4,138.8,47.4"/>
		<path class="st4" d="M131.8,54.2c0,0-0.5,1.9,0.8,1.5c1.2-0.5,3.4-1.9,1.8-1.9C132.8,53.8,131.8,54.2,131.8,54.2"/>
		<path class="st4" d="M132.8,59.3c0,0-0.5,1.9,0.8,1.5c1.2-0.5,3.4-1.9,1.8-1.9C133.8,58.8,132.8,59.3,132.8,59.3"/>
		<path class="st4" d="M127.6,65.2c0,0-0.9,1.8,0.4,1.6c1.3-0.2,3.7-1.1,2.2-1.5C128.6,65,127.6,65.2,127.6,65.2"/>
		<path class="st4" d="M133.7,68.2c0,0-0.4,2,0.8,1.5c1.3-0.5,3.4-2,1.8-2C134.8,67.7,133.7,68.2,133.7,68.2"/>
		<path class="st4" d="M128.7,76.5c0,0-0.1,2.8,1.5,1.8c1.6-1,4.2-3.6,2-3.2C129.9,75.6,128.7,76.5,128.7,76.5"/>
		<path class="st4" d="M124.7,72.3c0,0-0.5,2,0.8,1.5c1.3-0.5,3.5-2,1.8-2C125.7,71.9,124.7,72.3,124.7,72.3"/>
		<path class="st4" d="M121.4,72c0,0-0.8,1.8,0.5,1.6s3.7-1.2,2.1-1.5C122.5,71.8,121.4,72,121.4,72"/>
		<path class="st4" d="M114.5,73.3c0,0-0.5,1.9,0.8,1.5c1.2-0.5,3.4-1.9,1.8-1.9C115.5,72.9,114.5,73.3,114.5,73.3"/>
		<path class="st4" d="M123,82.5c1.1-1.3,2.7-4.1,0.9-3.2c-1.8,0.9-2.7,2-2.7,2"/>
		<path class="st4" d="M135.1,73.9c0,0-1.4,1.5,0,1.7c1.4,0.2,4,0,2.6-0.8C136.2,74,135.1,73.9,135.1,73.9"/>
		<path class="st4" d="M114,68.8c0,0-0.5,1.9,0.8,1.5c1.2-0.5,3.4-1.9,1.8-1.9C115,68.4,114,68.8,114,68.8"/>
		<path class="st4" d="M109.6,66c0,0-0.8,1.8,0.5,1.6c1.3-0.2,3.7-1.3,2.1-1.5C110.7,65.7,109.6,66,109.6,66"/>
		<path class="st4" d="M145.2,41.7c0,0-2.4-0.9-0.9-1.6s4.7-1.5,3.4-0.2C146.4,41.2,145.2,41.7,145.2,41.7"/>
	</g>
</g>
</svg>
