<?xml version="1.0" encoding="utf-8"?>
<!-- Generator: Adobe Illustrator 25.2.3, SVG Export Plug-In . SVG Version: 6.00 Build 0)  -->
<svg version="1.1" id="Layer_1" xmlns="http://www.w3.org/2000/svg" xmlns:xlink="http://www.w3.org/1999/xlink" x="0px" y="0px"
	 viewBox="0 0 151.5 217.7" style="enable-background:new 0 0 151.5 217.7;" xml:space="preserve">
<style type="text/css">
	.st0{fill:#F77441;stroke:#FFFFFF;stroke-width:0.5;stroke-miterlimit:10;}
	.st1{fill:none;stroke:#FFFFFF;stroke-width:0.5;stroke-miterlimit:10;}
	.st2{fill:#CCB9B9;stroke:#FFFFFF;stroke-width:0.25;stroke-miterlimit:10;}
	.st3{fill:#E4DAD8;stroke:#FFFFFF;stroke-width:0.25;stroke-miterlimit:10;}
	.st4{fill:#CCB9B9;stroke:#FFFFFF;stroke-width:0.25;stroke-linejoin:bevel;stroke-miterlimit:10;}
	.st5{fill:#E4DAD8;stroke:#FFFFFF;stroke-width:0.25;stroke-linejoin:bevel;stroke-miterlimit:10;}
	.st6{fill:#DC3359;stroke:#FFFFFF;stroke-width:0.25;stroke-miterlimit:10;}
	.st7{fill:#C42C54;stroke:#FFFFFF;stroke-width:0.25;stroke-miterlimit:10;}
	.st8{fill:#C42C54;stroke:#FFFFFF;stroke-width:0.285;stroke-miterlimit:10;}
	.st9{fill:none;stroke:#B71148;stroke-width:0.285;stroke-miterlimit:10;}
	.st10{fill:none;stroke:#B71148;stroke-width:0.285;stroke-linecap:round;stroke-miterlimit:10;}
	.st11{fill:#B71148;}
	.st12{fill:#B71148;stroke:#FFFFFF;stroke-width:0.25;stroke-miterlimit:10;}
	.st13{fill:#F77441;stroke:#FFFFFF;stroke-width:0.2873;stroke-miterlimit:10;}
	.st14{fill:none;stroke:#FFFFFF;stroke-width:0.2873;stroke-miterlimit:10;}
	.st15{fill:none;stroke:#FFFFFF;stroke-width:0.285;stroke-miterlimit:10;}
	.st16{fill:#F77441;stroke:#FFFFFF;stroke-width:0.285;stroke-miterlimit:10;}
	.st17{fill:none;stroke:#B71148;stroke-width:1.653;stroke-linecap:round;stroke-miterlimit:10;}
	.st18{fill:#C42C54;}
	.st19{fill:#B71148;stroke:#FFFFFF;stroke-width:0.2586;stroke-miterlimit:10;}
	.st20{fill:#B71148;stroke:#FFFFFF;stroke-width:0.5172;stroke-miterlimit:10;}
</style>
<g>
	<g>
		<path class="st0" d="M33.8,13.3c0.6-1.6,4.1-2.9,8.1-2.8s7.2,1.6,7.2,3.3s-2.6,2.5-7.3,2.6C37,16.4,33.7,13.5,33.8,13.3z"/>
		<path class="st0" d="M33.8,13.4c0.3,1.1,1.9,2,1.9,2s0,1.3,0.1,1.8c0,0.5-6.9,11-8.9,14.8c-1.6,3.1-3.7,8.8-3.3,13.5
			s1.7,6.5,1.7,6.5l0.4,0.9c0,0-0.1,4.1-0.1,4.4s-0.4-0.4-1.1,2c-0.6,2.4-0.8,6-0.8,6.9c0,1-0.1,6.4,0.2,7.1c0.3,0.8,0.7,1.5,1,1.7
			s-1,0-1,1.3s-0.1,5.3-0.2,6.3c0,1,0.4,1.9,0.6,2c0,0-0.9,0.5-0.9,1.6s0.1,4.7,0.2,6.1c0.1,0.4,1.1,1.2,1.1,1.2s-1,0.6-1,1
			c0,0-0.2,6.1-0.1,6.7c0,0.6,0.8,1.5,0.8,1.5s-0.7,0.7-0.8,1.3c0,0.6-0.2,4-0.2,6.1c0,2,0.1,4.2,0.1,4.8c0,0.6,0.7,0.8,0.7,1.2
			c0,0-1,0.6-1,1.3c0,0.6,0.1,8.6,0.1,8.6c0,0.2-0.2,3.6,3.5,6.7c2.2,1.9,7.2,3.8,13.9,3.8s7.8-0.2,11-1.7c3.2-1.5,4.3-4,5-5.8
			c0.7-1.8,0.7-10.4,0.6-11.4c0-0.3-0.7-0.6-0.7-0.8c0-0.2,0.6-0.7,0.6-1.7s0.2-9,0.2-10.1s-0.8-1.5-0.8-1.5s0.5-0.9,0.6-1.5
			s0.5-6.4,0.4-7.1c0-0.7-1-1.1-1-1.2c0-0.1,0.7-0.5,0.8-0.9c0.3-1.1,0.2-6,0.2-6c0-0.2,0-0.7,0-0.8c-0.1-0.4-1-0.4-1-0.7
			s1.2-0.7,1.2-1.5c0-0.8,0.2-6.3,0.2-7s-0.7-0.5-0.7-0.9c0,0,0.6-1,0.6-1.2c0.3-1,0.7-3.7,0.8-7c0-3.2-0.2-7.4-0.3-8.1
			c-0.1-0.7-0.5-2-1.3-2c0-0.1,0-4.2,0-4.2l1-2.3c0,0,2.2-7.2-0.4-15c-2.7-7.8-9.7-18.3-9.7-18.8c0-0.4-0.2-2-0.2-2s1.5-0.7,1.5-1.7
			s-1.6-1.4-1.6-1.7l0.2-7.9c0,0-0.9,2.7-5.4,2.6c-5.5-0.1-6.7-2.7-6.7-2.7s-0.2,7.6-0.1,7.9C35.6,11.9,33.5,12.3,33.8,13.4z"/>
		<path class="st1" d="M35.5,11.8c-1,0.3,1.5,3,6.5,3c5.1,0,6.5-2.7,5.7-2.7"/>
		<path class="st1" d="M49,14.1c0,0-1.5,2.6-7.4,2.5c-5.9,0-7.7-2.9-7.7-2.9"/>
		<path class="st0" d="M35.8,4.2c0-1.4,3.1-2.5,6.2-2.4c3.1,0.1,5.5,1.3,5.5,2.8c0,1.4-2.6,2.3-5.6,2.2C38.8,6.7,35.8,5.6,35.8,4.2z
			"/>
		<path class="st0" d="M42.1,4.8"/>
		<path class="st0" d="M60.7,44.7"/>
		<path class="st1" d="M24.8,75.1c0,0,5,4.1,16.5,4.5c11.9,0.4,16.1-4.3,16.1-4.3"/>
		<path class="st1" d="M24.2,84.4c0,0,5.1,4.4,16.7,4.8C52.7,89.6,57,84.6,57,84.6"/>
		<path class="st1" d="M24.4,102.7c0,0,4.3,4.8,15.9,5.2c11.9,0.4,16.4-4.7,16.4-4.7"/>
		<path class="st1" d="M24.7,93.5c0,0,6.7,4.4,15.9,4.5s16-4.6,16-4.6"/>
		<path class="st1" d="M24,115.7c0,0,4.4,4.9,16.3,5.3c12.3,0.4,16.3-4.7,16.3-4.7"/>
		<path class="st1" d="M25.5,52.3c0,0,4.7,4.7,16.3,4.6s15.3-4.4,15.3-4.4"/>
		<path class="st1" d="M25.4,57.3c0,0,3.1,4.2,15.8,4.5s15.7-4.3,15.7-4.3"/>
	</g>
	<g>
		<line class="st2" x1="60.7" y1="188.8" x2="60.7" y2="196.9"/>
		<line class="st2" x1="60.4" y1="188.7" x2="60.4" y2="197.1"/>
		<g>
			<polygon class="st2" points="10.4,178.5 56.2,201.7 133.9,162.6 134.1,153.5 90.8,133.7 10.4,174.2 			"/>
			<polygon class="st2" points="10.4,179.2 10.5,170.4 56.3,192.8 56.1,201.7 			"/>
			<polygon class="st2" points="0.7,181.4 0.7,188.7 56.4,216.8 150.4,169.5 150.3,162 56.4,208.7 			"/>
			<polygon class="st3" points="56,208.7 150.5,162 94.6,134.9 0.9,180.8 			"/>
			<polygon class="st2" points="10.4,178.5 56,202.1 135.5,161.6 135.7,152.6 90.8,133.7 10.4,174.2 			"/>
			<polygon class="st4" points="10.4,179.2 10.5,170.4 56,193.4 56,202.1 			"/>
			<polygon class="st4" points="1,180.8 1,189.6 56,217.2 150.7,169.2 150.6,161.8 56,208.7 			"/>
			<path class="st5" d="M10.6,170.4c0,0,45.3,23,45.3,23l80.1-40.9l-45.9-22.2L10.6,170.4z"/>
			<g>
				<polygon class="st6" points="32.9,174.2 56,185.7 56,175.1 32.5,163.7 				"/>
				<polygon class="st7" points="56,185.6 121.7,152.9 122.1,143.7 56,175.2 				"/>
				<line class="st8" x1="32.5" y1="163.6" x2="97.2" y2="130.6"/>
				<line class="st9" x1="57.1" y1="172.4" x2="115.3" y2="145"/>
				<path class="st10" d="M39.5,162.7c-0.4-0.7,56.5-30,56.5-30"/>
				<g>
					<polygon class="st11" points="55.4,172.4 56.6,171.6 55.6,170.6 53.4,170.4 52.2,171.2 53.2,172.2 					"/>
					<path class="st11" d="M55.2,172l0.3-0.2c0.2-0.1,0.2-0.4,0.1-0.6l-0.2-0.2c-0.1-0.1-0.2-0.1-0.3-0.1l-1.2-0.1
						c-0.1,0-0.2,0-0.3,0.1l-0.3,0.2c-0.2,0.1-0.2,0.4-0.1,0.6l0.2,0.2c0.1,0.1,0.2,0.1,0.3,0.1l1.2,0.1
						C55,172.1,55.1,172.1,55.2,172z"/>
				</g>
				<g>
					<polygon class="st11" points="115,143.6 116.2,142.8 115.2,141.8 113,141.6 111.8,142.4 112.8,143.4 					"/>
					<path class="st11" d="M114.8,143.2l0.3-0.2c0.2-0.1,0.2-0.4,0.1-0.6l-0.2-0.2c-0.1-0.1-0.2-0.1-0.3-0.1l-1.2-0.1
						c-0.1,0-0.2,0-0.3,0.1l-0.3,0.2c-0.2,0.1-0.2,0.4-0.1,0.6l0.2,0.2c0.1,0.1,0.2,0.1,0.3,0.1l1.2,0.1
						C114.6,143.3,114.7,143.3,114.8,143.2z"/>
				</g>
				<g>
					<polygon class="st11" points="45,164.1 46.1,163.3 45.1,162.3 43,162.1 41.9,162.9 42.9,163.9 					"/>
					<path class="st11" d="M44.7,163.7l0.3-0.2c0.2-0.1,0.2-0.4,0.1-0.6l-0.2-0.2c-0.1-0.1-0.2-0.1-0.2-0.1l-1.1-0.1
						c-0.1,0-0.2,0-0.3,0.1l-0.3,0.2c-0.2,0.1-0.2,0.4-0.1,0.6l0.2,0.2c0.1,0.1,0.2,0.1,0.2,0.1l1.1,0.1
						C44.6,163.8,44.7,163.7,44.7,163.7z"/>
				</g>
				<polygon class="st12" points="27.5,171.3 56,185.6 56,175.1 27.5,160.8 				"/>
				<polygon class="st12" points="56,185.6 122.2,152.9 122,142.6 56,175.2 				"/>
				<path class="st12" d="M98,136.4l5.8-2.9c0,0-0.5,1.6,0.8,2.2s3.6-0.2,3.6-0.2l-7.9,3.5L98,136.4z"/>
				<g>
					<path class="st13" d="M54.2,164.3c0.2-0.1,0.1-0.9,0.1-0.9l1-0.4c0,0,5.5,0.5,7.4,0.4c1.5,0,4.1-0.3,5.8-1.4
						c1.7-1.1,2.1-1.9,2.1-1.9l0.5-0.5l1.4-0.7c0,0-0.1,0.2,1,0c1-0.2,2.8-1.1,2.8-1.1l2.3-1.3c0,0,0.8-0.7,0.8-0.9s0.5,0.2,0.7,0.1
						c0.2,0,2.1-1.2,2.3-1.2c0.2,0,0.7-0.5,0.7-0.6l0.8,0.1c0,0,1.8-1,2.3-1.3c0.1-0.1,0.2-0.7,0.2-0.7s0.5,0.3,0.6,0.2l2.4-1.2
						l0.5-0.6l0.4,0.2l3.8-2l0.5-0.2c0,0,0.4-0.4,0.6-0.5l0.4,0.1l3.2-1.8c0.1-0.1,4.2-1.5,1.1-8c-2.8-5.9-6.7-4.7-7.7-4.5
						c-0.7,0.1-2.6,1-3,1.3c-0.1,0.1-0.2,0.4-0.3,0.5c-0.1,0-0.3-0.1-0.4-0.1c-0.8,0.3-3.8,1.8-4.5,2.3c-0.1,0.1-0.1,0.4-0.1,0.4
						s-0.4,0-0.6,0c-0.4,0.1-1.8,0.8-2.7,1.2c-0.1,0-0.1,0.5-0.1,0.5s-0.5,0-0.6,0c-0.5,0.1-2.5,1.2-2.5,1.2c-0.1,0-0.1,0.1-0.1,0.1
						c-0.1,0.1-0.1,0.4,0,0.5l0,0c0,0-0.7-0.2-0.8-0.2c-0.5,0.2-2.3,1-2.9,1.4c-0.1,0,0,0.4-0.2,0.5c-0.2,0.1-0.5,0-0.6,0
						c-0.9,0.2-5.1,2.4-5.1,2.4l-1.1,1.2l-1.7,0.9l-1.1,0.1c0,0-3.2,0.6-5.6,3.1s-5.2,7.2-5.2,7.2l-0.7,0.5c0,0-0.2,0.2-0.4,0.2
						c-0.1,0-0.4-0.4-0.6-0.3c-0.2,0.1,0,0.8-0.2,0.9c-0.4,0.3-1.8,0.9-1.8,0.9l-1,0.5c0,0,0.8,0,1.6,1.8c1,2.1,0.7,2.9,0.7,2.9
						l2.4-1.3l0.6-0.1C53.5,164,54,164.4,54.2,164.3z"/>
					<path class="st14" d="M53.9,164.3c0,0-0.1-2.6-2.8-5.5"/>
					<path class="st15" d="M51.5,158.6c2.6,2.9,2.7,5.4,2.7,5.4"/>
					<path class="st13" d="M50.4,165.6c-0.4,0.2-1.4-0.9-1.9-2.1c-0.6-1.2-0.7-2.4-0.3-2.6c0.4-0.2,1.2,0.6,1.8,1.8
						C50.6,164,50.8,165.4,50.4,165.6z"/>
					<path class="st16" d="M49.3,163"/>
					<path class="st16" d="M60.8,148.1"/>
					<path class="st15" d="M79.4,155.5c0,0,0.5-2.4-1.7-6.8c-2.2-4.6-4.5-5.5-4.5-5.5"/>
					<path class="st15" d="M82.9,153.9c0,0,0.8-2.2-1.3-6.7c-2.2-4.6-4.6-5.6-4.6-5.6"/>
					<path class="st15" d="M89.9,150.4c0,0,1-2.6-1.1-7c-2.2-4.6-4.9-5.1-4.9-5.1"/>
					<path class="st15" d="M86.3,152c0,0,0.9-2.4-1.2-6.8c-2.2-4.6-4.7-5.3-4.7-5.3"/>
					<path class="st15" d="M94.9,148c0,0,1-2.6-1.2-7.2c-2.3-4.7-5-5.3-5-5.3"/>
					<path class="st15" d="M70.6,159.7c0,0-0.6-3.9-1.8-6.7c-1.2-2.9-4.1-5.3-4.1-5.3"/>
					<path class="st15" d="M72.4,158.8c0,0-0.2-3.6-1.6-6.6s-4.4-5.3-4.4-5.3"/>
				</g>
				<path class="st6" d="M107.7,135.4l-7.6,3.8c0.7,2,0.8,3.4,0.5,4.5c-0.5,2.1-2.3,2.8-2.3,2.8l-2.9,1.5l-0.4-0.2
					c-0.2,0.1-0.3,0.4-0.3,0.4l-4.3,2.3l-0.6-0.1l-0.6,0.6l-2.4,1.2c-0.1,0.1-0.5-0.2-0.5-0.2s-0.2,0.6-0.3,0.7
					c-0.5,0.3-2.3,1.3-2.3,1.3l-0.7-0.2c0,0.1-0.6,0.7-0.8,0.7c-0.2,0-2.1,1.1-2.3,1.1c-0.2,0-0.6-0.3-0.7-0.1
					c0,0.2-0.5,0.7-0.5,0.7l-2.7,1.6c0,0-1.8,0.8-2.8,1.1c-1,0.2-1,0-1,0l-1.4,0.7l-0.5,0.5c0,0-0.4,0.8-2.1,1.9
					c-1.7,1.1-4.3,1.4-5.8,1.4c-1.8,0-7.4-0.4-7.4-0.4l-1,0.4c0,0,0.1,0.8-0.1,0.9c-0.2,0.1-0.7-0.3-0.7-0.3l-0.6,0.1l-2.4,1.3
					c0,0-0.5-0.5-1.6-2.7c-0.8-1.7-0.7-2-0.7-2l1-0.5c0,0,1.3-0.6,1.8-0.9c0.2-0.1,0-0.8,0.2-0.9c0.2-0.1,0.5,0.3,0.6,0.3
					c0.1,0,0.4-0.2,0.4-0.2l0.7-0.5c0,0,2.8-4.7,5.2-7.2c2.4-2.5,5.6-3.1,5.6-3.1l1.1-0.1l1.7-0.9l1.1-1.2c0,0,4.2-2.3,5.1-2.4
					c0.1,0,0.4,0.1,0.6,0c0.2-0.1,0.1-0.4,0.2-0.5c0.6-0.4,2.3-1.2,2.9-1.4c0.1-0.1,0.8,0.2,0.8,0.2l0,0c-0.1-0.1-0.1-0.4,0-0.5
					c0,0,0.1-0.1,0.1-0.1c0,0,2-1.1,2.5-1.2c0.1,0,0.6,0,0.6,0s0-0.4,0.1-0.5c0.9-0.4,2.3-1.1,2.7-1.2c0.1,0,0.6,0,0.6,0
					s0-0.3,0.1-0.4c0.6-0.5,3.6-2,4.5-2.3c0.1,0,0.3,0.1,0.4,0.1c0.1,0,0.2-0.4,0.3-0.5c0.4-0.3,2.3-1.2,3-1.3
					c0.9-0.2,3.9-0.2,6.7,2.4l5.3-2.7l-10.6-5.8l-65.6,33.1l28.5,14.5l65.9-32.9L107.7,135.4z"/>
				<line class="st17" x1="60.6" y1="169.3" x2="110" y2="144.8"/>
				<line class="st17" x1="40.3" y1="157.6" x2="89.4" y2="132.5"/>
				<g>
					<polygon class="st11" points="94.5,131.7 95.6,130.9 94.6,129.9 92.5,129.7 91.4,130.5 92.4,131.5 					"/>
					<path class="st18" d="M94.2,131.3l0.3-0.2c0.2-0.1,0.2-0.4,0.1-0.6l-0.2-0.2c-0.1-0.1-0.2-0.1-0.2-0.1l-1.1-0.1
						c-0.1,0-0.2,0-0.3,0.1l-0.3,0.2c-0.2,0.1-0.2,0.4-0.1,0.6l0.2,0.2c0.1,0.1,0.2,0.1,0.2,0.1l1.1,0.1
						C94.1,131.4,94.2,131.4,94.2,131.3z"/>
				</g>
				<g>
					<polygon class="st11" points="114.8,142.3 116,141.5 115,140.5 112.8,140.3 111.7,141.1 112.7,142.1 					"/>
					<path class="st18" d="M114.6,141.9l0.3-0.2c0.2-0.1,0.2-0.4,0.1-0.6l-0.2-0.2c-0.1-0.1-0.2-0.1-0.3-0.1l-1.2-0.1
						c-0.1,0-0.2,0-0.3,0.1l-0.3,0.2c-0.2,0.1-0.2,0.4-0.1,0.6l0.2,0.2c0.1,0.1,0.2,0.1,0.3,0.1l1.2,0.1
						C114.4,142,114.5,142,114.6,141.9z"/>
				</g>
				<g>
					<polygon class="st11" points="56.4,171.1 57.5,170.3 56.5,169.2 54.4,169 53.2,169.9 54.2,170.9 					"/>
					<path class="st18" d="M56.2,170.7l0.3-0.2c0.2-0.1,0.2-0.4,0.1-0.6l-0.2-0.2c-0.1-0.1-0.2-0.1-0.3-0.1l-1.2-0.1
						c-0.1,0-0.2,0-0.3,0.1l-0.3,0.2c-0.2,0.1-0.2,0.4-0.1,0.6l0.2,0.2c0.1,0.1,0.2,0.1,0.3,0.1l1.2,0.1
						C56,170.8,56.1,170.7,56.2,170.7z"/>
				</g>
				<g>
					<polygon class="st11" points="40.2,162.4 41.3,161.5 40.3,160.5 38.2,160.3 37,161.1 38,162.2 					"/>
					<path class="st18" d="M39.9,162l0.3-0.2c0.2-0.1,0.2-0.4,0.1-0.6l-0.2-0.2c-0.1-0.1-0.2-0.1-0.3-0.1l-1.2-0.1
						c-0.1,0-0.2,0-0.3,0.1l-0.3,0.2c-0.2,0.1-0.2,0.4-0.1,0.6l0.2,0.2c0.1,0.1,0.2,0.1,0.3,0.1l1.2,0.1C39.8,162,39.9,162,39.9,162
						z"/>
				</g>
				<g>
					<path class="st19" d="M102,126.4l7.2,3.6c0,0,0.4-0.9,2.6,0c2.2,0.9,2.3,2.5,2.3,2.5l13.3,6.6l-0.7-68.3l-24.8-13.8L102,126.4z
						"/>
					<path class="st18" d="M105.4,121.9c0,0,1,1,1.8,1.8c0.8,0.9,1.6,1.2,1.6,1.2s2.6,0.1,3.7,0.6c1.1,0.5,1.8,1.1,1.9,1.5
						c0,0.1,0.8,0.1,0.8,0.1s3.7,0,5.8-1.7c0.1-0.1,0.2-0.2,0.2-0.3c0,0-2.2-2.6-4.3-3.7c-1.1-0.6-5.1-1.5-6.9-1.7
						C107.7,119.5,105.4,121.9,105.4,121.9z"/>
					<path class="st6" d="M127.8,139.3l0.1-70L99,54.5l-0.1,70.4l11,5.6l0.1-5.5c-2.6-1-4.1-3-4.3-3.9c-0.2-0.7-0.3-2.8-0.2-3.3
						c0-0.1,0.3-0.3,0.3-0.4c0-0.1-0.3-0.2-0.3-0.3c-0.1-0.9-0.1-4.2,0-5c0-0.1,0.3-0.2,0.3-0.2s-0.2-0.4-0.2-0.5
						c-0.1-0.4-0.1-2-0.1-3c0-0.1,0.3-0.3,0.3-0.3s-0.2-0.4-0.3-0.6c-0.1-0.5,0-2.8,0-2.8c0-0.1,0-0.1,0-0.2
						c0.1-0.2,0.3-0.3,0.4-0.2l0,0c0,0-0.5-0.5-0.5-0.7c-0.1-0.6-0.1-2.5-0.1-3.2c0-0.1,0.3-0.2,0.3-0.4c0-0.2-0.2-0.4-0.3-0.5
						c-0.3-0.9-0.1-5.6-0.1-5.6l0.8-1.1l0-1.5l-0.6-1.7c0,0-0.9-3.3,0.3-6.6c1.2-3.3,4.1-6.8,4.1-6.8l0.1-0.9c0,0,0.1-0.3,0-0.4
						c-0.1-0.1-0.6-0.2-0.5-0.4c0-0.3,0.7-0.3,0.8-0.6c0.1-0.5,0-2,0-2l0.2-1.3c0,0,3.5,0,5.2,1.7l-0.1,3.4v0.3c0,0,0.3,0.4,0.3,0.6
						c0,0.2-0.6,0.3-0.6,0.3v0.4c0,0,2.3,4.2,3.1,5.8c0.7,1.3,2,4.6,1.8,6.6c-0.2,2-0.8,2.5-0.8,2.5l-0.2,1.5l0.2,1.2
						c0,0,0.2,0.4,0.4,1.4c0.3,1,0.3,3,0.3,3l-0.1,2.7c0,0-0.3,1-0.4,1.1c-0.1,0.1,0.4,0.4,0.4,0.5c0,0.2-0.1,2.4,0,2.6
						c0.1,0.2-0.1,0.8-0.2,0.9l0.4,0.7c0,0-0.1,2-0.1,2.6c0,0.2-0.5,0.5-0.5,0.5s0.5,0.3,0.5,0.4l0,2.7l-0.3,0.8l0.3,0.3l-0.1,4.3
						l0.1,0.5c0,0-0.2,0.5-0.2,0.7l0.3,0.3l-0.4,4c0,0-0.8,2.9-6,1.4l-0.1,5.9L127.8,139.3z"/>
					<line class="st17" x1="102.1" y1="118.2" x2="102.5" y2="67.3"/>
					<line class="st17" x1="123.8" y1="126.6" x2="123.8" y2="77.1"/>
					<polygon class="st19" points="127.8,69.1 127.8,139.3 136.9,134.8 137,64.6 					"/>
					<polygon class="st20" points="99,54.5 127.8,69.2 137.2,64.5 108.3,49.8 					"/>
					<g>
						<g>
							<polygon class="st11" points="101,59.6 102.1,60.5 102.9,62.3 102.5,63.2 101.3,62.3 100.5,60.5 							"/>
							<polygon class="st11" points="102.5,63.3 103.4,62.8 103.8,61.9 103.1,60.1 101.9,59.2 101,59.5 102.2,60.5 102.9,62.3 
															"/>
						</g>
						<g>
							<path class="st18" d="M101.3,62.6l0.6-0.3c0,0,0.3-0.3,0-1c-0.3-0.8-0.8-0.7-0.8-0.7l-0.6,0.3L101.3,62.6z"/>
							<path class="st18" d="M100.5,60.9c0.2-0.1,0.6,0.2,0.8,0.7c0.2,0.5,0.2,1,0,1.1c-0.2,0.1-0.5-0.2-0.8-0.7
								C100.3,61.4,100.3,61,100.5,60.9z"/>
							<path class="st18" d="M101.3,62.6c0,0-0.8,0.4-1.2-0.6c-0.4-0.9,0.4-1.2,0.4-1.2"/>
						</g>
					</g>
					<g>
						<g>
							<polygon class="st11" points="122.1,69.9 123.2,70.9 124,72.7 123.6,73.6 122.4,72.7 121.7,70.9 							"/>
							<polygon class="st11" points="123.6,73.6 124.5,73.2 124.9,72.3 124.2,70.5 123,69.6 122.1,69.9 123.3,70.9 124,72.7 							
								"/>
						</g>
						<g>
							<path class="st18" d="M122.4,73l0.6-0.3c0,0,0.3-0.3,0-1s-0.8-0.7-0.8-0.7l-0.6,0.3L122.4,73z"/>
							<path class="st18" d="M121.6,71.3c0.2-0.1,0.6,0.2,0.8,0.7s0.2,1,0,1.1c-0.2,0.1-0.5-0.2-0.8-0.7
								C121.4,71.8,121.4,71.3,121.6,71.3z"/>
							<path class="st18" d="M122.4,73c0,0-0.8,0.4-1.2-0.6c-0.4-0.9,0.4-1.2,0.4-1.2"/>
						</g>
					</g>
					<g>
						<g>
							<polygon class="st11" points="122.7,131.8 123.9,132.7 124.7,134.6 124.3,135.5 123.1,134.6 122.3,132.7 							"/>
							<polygon class="st11" points="124.3,135.5 125.2,135.1 125.6,134.1 124.8,132.3 123.7,131.4 122.7,131.8 123.9,132.7 
								124.7,134.6 							"/>
						</g>
						<g>
							<path class="st18" d="M123.1,134.9l0.6-0.3c0,0,0.3-0.3,0-1c-0.3-0.8-0.8-0.7-0.8-0.7l-0.6,0.3L123.1,134.9z"/>
							<path class="st18" d="M122.3,133.1c0.2-0.1,0.6,0.2,0.8,0.7c0.2,0.5,0.2,1,0,1.1s-0.5-0.2-0.8-0.7
								C122.1,133.7,122.1,133.2,122.3,133.1z"/>
							<path class="st18" d="M123.1,134.9c0,0-0.8,0.4-1.2-0.6s0.4-1.2,0.4-1.2"/>
						</g>
					</g>
					<g>
						<g>
							<polygon class="st11" points="101.4,122.4 102.6,123.3 103.4,125.2 103,126.1 101.8,125.2 101,123.3 							"/>
							<polygon class="st11" points="103,126.1 103.9,125.7 104.3,124.7 103.5,122.9 102.3,122 101.4,122.4 102.6,123.3 
								103.4,125.2 							"/>
						</g>
						<g>
							<path class="st18" d="M101.8,125.5l0.6-0.3c0,0,0.3-0.3,0-1c-0.3-0.8-0.8-0.7-0.8-0.7l-0.6,0.3L101.8,125.5z"/>
							<path class="st18" d="M101,123.7c0.2-0.1,0.6,0.2,0.8,0.7c0.2,0.5,0.2,1,0,1.1s-0.5-0.2-0.8-0.7
								C100.8,124.3,100.8,123.8,101,123.7z"/>
							<path class="st18" d="M101.8,125.5c0,0-0.8,0.4-1.2-0.6s0.4-1.2,0.4-1.2"/>
						</g>
					</g>
				</g>
			</g>
		</g>
		<line class="st4" x1="55.7" y1="208.5" x2="55.7" y2="217.2"/>
	</g>
</g>
</svg>
