<?xml version="1.0" encoding="utf-8"?>
<!-- Generator: Adobe Illustrator 25.2.1, SVG Export Plug-In . SVG Version: 6.00 Build 0)  -->
<svg version="1.1" id="Layer_1" xmlns="http://www.w3.org/2000/svg" xmlns:xlink="http://www.w3.org/1999/xlink" x="0px" y="0px"
	 viewBox="0 0 189.28 180.89" style="enable-background:new 0 0 189.28 180.89;" xml:space="preserve">
<style type="text/css">
	.st0{fill:#CBB8B9;stroke:#FFFFFF;stroke-width:0.25;stroke-miterlimit:10;}
	.st1{fill:#E4DAD8;stroke:#FFFFFF;stroke-width:0.25;stroke-miterlimit:10;}
	.st2{fill:#CBB8B9;stroke:#FFFFFF;stroke-width:0.25;stroke-linejoin:bevel;stroke-miterlimit:10;}
	.st3{fill:#E4DAD8;stroke:#FFFFFF;stroke-width:0.25;stroke-linejoin:bevel;stroke-miterlimit:10;}
	.st4{fill:#DD335A;stroke:#FFFFFF;stroke-width:0.25;stroke-miterlimit:10;}
	.st5{fill:#C52E55;stroke:#FFFFFF;stroke-width:0.25;stroke-miterlimit:10;}
	.st6{fill:#C52E55;stroke:#FFFFFF;stroke-width:0.2755;stroke-miterlimit:10;}
	.st7{fill:none;stroke:#B71549;stroke-width:0.2755;stroke-miterlimit:10;}
	.st8{fill:none;stroke:#B71549;stroke-width:0.2755;stroke-linecap:round;stroke-miterlimit:10;}
	.st9{fill:#B71549;}
	.st10{fill:#B71549;stroke:#FFFFFF;stroke-width:0.25;stroke-miterlimit:10;}
	.st11{fill:#B71549;stroke:#FFFFFF;stroke-width:0.2663;stroke-miterlimit:10;}
	.st12{fill:#EE7345;stroke:#FFFFFF;stroke-width:0.2777;stroke-miterlimit:10;}
	.st13{fill:none;stroke:#FFFFFF;stroke-width:0.2777;stroke-miterlimit:10;}
	.st14{fill:none;stroke:#FFFFFF;stroke-width:0.2755;stroke-miterlimit:10;}
	.st15{fill:#EE7345;stroke:#FFFFFF;stroke-width:0.2755;stroke-miterlimit:10;}
	.st16{fill:#DD335A;stroke:#FFFFFF;stroke-width:0.2663;stroke-miterlimit:10;}
	.st17{fill:none;stroke:#B71549;stroke-width:1.5979;stroke-linecap:round;stroke-miterlimit:10;}
	.st18{fill:#C52E55;}
	.st19{fill:#B71549;stroke:#FFFFFF;stroke-width:0.5;stroke-miterlimit:10;}
</style>
<g>
	<line class="st0" x1="80.01" y1="145.53" x2="80.01" y2="153.34"/>
	<line class="st0" x1="79.74" y1="145.39" x2="79.68" y2="153.51"/>
	<g>
		<polygon class="st0" points="31.32,135.53 75.6,157.99 150.74,120.15 150.9,111.43 109.03,92.29 31.33,131.45 		"/>
		<polygon class="st0" points="31.35,136.24 31.45,127.74 75.69,149.4 75.51,157.98 		"/>
		<polygon class="st0" points="22,138.34 22.01,145.4 75.86,172.56 166.7,126.83 166.56,119.6 75.79,164.76 		"/>
		<polygon class="st1" points="75.48,164.75 166.75,119.61 112.78,93.38 22.18,137.78 		"/>
		<polygon class="st0" points="31.32,135.53 75.45,158.34 152.29,119.27 152.45,110.55 109.03,92.29 31.33,131.45 		"/>
		<polygon class="st2" points="31.35,136.24 31.45,127.74 75.45,149.93 75.4,158.4 		"/>
		<polygon class="st2" points="22.31,137.82 22.27,146.3 75.45,173.02 167,126.61 166.85,119.38 75.46,164.78 		"/>
		<path class="st3" d="M31.54,127.71c-0.01,0.03,43.83,22.19,43.83,22.19l77.4-39.56l-44.35-21.44L31.54,127.71z"/>
		<g>
			<polygon class="st4" points="53.14,131.37 75.41,142.56 75.43,132.33 52.72,121.23 			"/>
			<polygon class="st5" points="75.44,142.41 138.93,110.84 139.29,101.9 75.47,132.36 			"/>
			<line class="st6" x1="52.72" y1="121.18" x2="115.27" y2="89.29"/>
			<line class="st7" x1="76.52" y1="129.64" x2="132.75" y2="103.19"/>
			<path class="st8" d="M59.47,120.25c-0.37-0.69,54.64-28.98,54.64-28.98"/>
			<g>
				<polygon class="st9" points="74.89,129.71 76.02,128.9 75.05,127.9 72.95,127.71 71.81,128.51 72.78,129.51 				"/>
				<path class="st9" d="M74.68,129.31l0.27-0.19c0.2-0.14,0.23-0.43,0.06-0.61l-0.23-0.24c-0.07-0.07-0.15-0.11-0.25-0.12
					l-1.14-0.11c-0.09-0.01-0.19,0.02-0.27,0.07l-0.27,0.19c-0.2,0.14-0.23,0.43-0.06,0.61l0.23,0.24c0.07,0.07,0.15,0.11,0.25,0.12
					l1.14,0.11C74.51,129.39,74.6,129.37,74.68,129.31z"/>
			</g>
			<g>
				<polygon class="st9" points="132.5,101.85 133.63,101.05 132.66,100.05 130.56,99.85 129.42,100.66 130.39,101.66 				"/>
				<path class="st9" d="M132.29,101.46l0.27-0.19c0.2-0.14,0.23-0.43,0.06-0.61l-0.23-0.24c-0.07-0.07-0.15-0.11-0.25-0.12
					l-1.14-0.11c-0.09-0.01-0.19,0.02-0.27,0.07l-0.27,0.19c-0.2,0.14-0.23,0.43-0.06,0.61l0.23,0.24c0.07,0.07,0.15,0.11,0.25,0.12
					l1.14,0.11C132.12,101.54,132.21,101.51,132.29,101.46z"/>
			</g>
			<g>
				<polygon class="st9" points="64.76,121.61 65.85,120.84 64.92,119.89 62.92,119.71 61.83,120.47 62.76,121.43 				"/>
				<path class="st9" d="M64.57,121.23l0.26-0.18c0.19-0.14,0.22-0.41,0.05-0.58l-0.22-0.23c-0.06-0.07-0.15-0.11-0.24-0.11
					l-1.09-0.1c-0.09-0.01-0.18,0.02-0.25,0.07l-0.26,0.18c-0.19,0.14-0.22,0.41-0.05,0.58l0.22,0.23c0.06,0.07,0.15,0.11,0.24,0.11
					l1.09,0.1C64.4,121.31,64.49,121.29,64.57,121.23z"/>
			</g>
			<polygon class="st10" points="47.94,128.6 75.41,142.38 75.43,132.33 47.9,118.44 			"/>
			<polygon class="st10" points="75.41,142.42 139.39,110.85 139.26,100.84 75.45,132.37 			"/>
			<path class="st11" d="M116.06,94.88l5.63-2.84c0,0-0.47,1.57,0.8,2.16c1.27,0.59,3.45-0.19,3.45-0.19l-7.68,3.4L116.06,94.88z"/>
			<g>
				<path class="st12" d="M73.7,121.83c0.2-0.07,0.07-0.83,0.07-0.83l0.95-0.43c0,0,5.34,0.44,7.13,0.42
					c1.43-0.02,3.94-0.32,5.57-1.35c1.63-1.04,2.05-1.86,2.05-1.86l0.52-0.44l1.38-0.67c0,0-0.07,0.23,0.92,0.01
					c0.99-0.22,2.69-1.03,2.69-1.03l2.27-1.29c0,0,0.73-0.7,0.75-0.85s0.5,0.18,0.66,0.14c0.17-0.04,2.06-1.16,2.25-1.17
					s0.66-0.48,0.66-0.57l0.8,0.06c0,0,1.73-0.93,2.18-1.25c0.14-0.1,0.22-0.67,0.22-0.67s0.44,0.27,0.58,0.2l2.35-1.15l0.51-0.62
					l0.36,0.16l3.64-1.92l0.45-0.15c0,0,0.39-0.38,0.55-0.46l0.4,0.11l3.08-1.77c0.11-0.07,4.03-1.5,1.04-7.73
					c-2.72-5.68-6.46-4.56-7.45-4.36c-0.67,0.14-2.55,1-2.9,1.25c-0.1,0.07-0.17,0.41-0.25,0.45c-0.09,0.04-0.3-0.13-0.4-0.09
					c-0.81,0.32-3.7,1.76-4.32,2.23c-0.07,0.05-0.07,0.34-0.07,0.34s-0.42-0.01-0.55,0.02c-0.4,0.12-1.77,0.79-2.62,1.16
					c-0.09,0.04-0.12,0.44-0.12,0.44s-0.45-0.01-0.59,0.02c-0.44,0.11-2.41,1.18-2.41,1.18c-0.07,0.03-0.08,0.05-0.13,0.09
					c-0.14,0.13-0.13,0.35,0,0.48l-0.04,0.02c0,0-0.66-0.21-0.8-0.15c-0.51,0.18-2.22,0.97-2.77,1.34
					c-0.05,0.04-0.04,0.35-0.19,0.44c-0.16,0.1-0.47-0.02-0.56-0.01c-0.87,0.16-4.92,2.34-4.92,2.34l-1.05,1.17l-1.69,0.87
					L82.87,106c0,0-3.06,0.55-5.4,3.01c-2.34,2.46-5.02,6.96-5.02,6.96l-0.72,0.44c0,0-0.21,0.19-0.34,0.17
					c-0.14-0.02-0.41-0.4-0.58-0.29c-0.21,0.14,0.02,0.77-0.16,0.9c-0.43,0.29-1.72,0.86-1.72,0.86l-0.96,0.44
					c0,0,0.76,0.02,1.58,1.69c1,2.05,0.64,2.78,0.64,2.78l2.34-1.29l0.54-0.14C73.06,121.54,73.52,121.89,73.7,121.83z"/>
				<path class="st13" d="M73.4,121.81c0,0-0.14-2.53-2.69-5.36"/>
				<path class="st14" d="M71.1,116.32c2.56,2.83,2.56,5.23,2.56,5.23"/>
				<path class="st12" d="M70,123.08c-0.41,0.2-1.31-0.83-1.88-2.02c-0.57-1.19-0.71-2.31-0.3-2.51s1.21,0.6,1.78,1.79
					C70.17,121.53,70.41,122.88,70,123.08z"/>
				<path class="st15" d="M68.97,120.61"/>
				<path class="st15" d="M80.05,106.17"/>
				<path class="st14" d="M98.08,113.37c0,0,0.47-2.33-1.6-6.62c-2.14-4.43-4.32-5.28-4.32-5.28"/>
				<path class="st14" d="M101.47,111.79c0,0,0.78-2.17-1.29-6.46c-2.13-4.42-4.46-5.4-4.46-5.4"/>
				<path class="st14" d="M108.24,108.42c0,0,0.98-2.49-1.08-6.78c-2.13-4.43-4.72-4.97-4.72-4.97"/>
				<path class="st14" d="M104.72,109.93c0,0,0.88-2.29-1.18-6.58c-2.13-4.43-4.54-5.09-4.54-5.09"/>
				<path class="st14" d="M113.08,106.08c0,0,0.96-2.55-1.17-6.98c-2.2-4.57-4.81-5.16-4.81-5.16"/>
				<path class="st14" d="M89.59,117.37c0,0-0.55-3.74-1.72-6.5c-1.17-2.76-3.94-5.11-3.94-5.11"/>
				<path class="st14" d="M91.33,116.54c0,0-0.19-3.45-1.57-6.35c-1.38-2.91-4.24-5.1-4.24-5.1"/>
			</g>
			<path class="st16" d="M125.46,93.88l-7.37,3.63c0.72,1.9,0.77,3.3,0.51,4.33c-0.53,2.07-2.18,2.74-2.18,2.74l-2.8,1.5l-0.42-0.18
				c-0.16,0.08-0.33,0.42-0.33,0.42l-4.17,2.24l-0.54-0.09l-0.61,0.63l-2.35,1.15c-0.14,0.07-0.46-0.18-0.46-0.18
				s-0.19,0.54-0.34,0.65c-0.45,0.32-2.18,1.25-2.18,1.25l-0.72-0.17c0.01,0.09-0.55,0.67-0.74,0.68c-0.19,0.01-2.03,1.06-2.2,1.1
				c-0.17,0.04-0.62-0.27-0.63-0.12c-0.02,0.15-0.45,0.67-0.45,0.67l-2.64,1.53c0,0-1.7,0.81-2.69,1.03
				c-0.99,0.22-0.93-0.01-0.93-0.01l-1.38,0.67l-0.52,0.44c0,0-0.42,0.82-2.05,1.86c-1.63,1.04-4.13,1.34-5.57,1.35
				c-1.78,0.02-7.13-0.42-7.13-0.42L73.64,121c0,0,0.13,0.76-0.07,0.83c-0.18,0.06-0.64-0.29-0.64-0.29l-0.54,0.14l-2.34,1.29
				c0,0-0.51-0.53-1.51-2.58c-0.82-1.67-0.71-1.89-0.71-1.89l0.96-0.44c0,0,1.29-0.57,1.72-0.86c0.18-0.12-0.04-0.76,0.16-0.9
				c0.17-0.12,0.44,0.26,0.58,0.29c0.14,0.02,0.34-0.17,0.34-0.17l0.72-0.44c0,0,2.68-4.5,5.02-6.96c2.34-2.46,5.4-3.01,5.4-3.01
				l1.02-0.06l1.69-0.87l1.05-1.17c0,0,4.05-2.18,4.92-2.34c0.09-0.02,0.41,0.11,0.56,0.01c0.15-0.09,0.13-0.4,0.19-0.44
				c0.56-0.37,2.27-1.16,2.77-1.34c0.14-0.05,0.8,0.15,0.8,0.15l0.04-0.02c-0.13-0.13-0.14-0.36,0-0.48
				c0.04-0.04,0.06-0.06,0.13-0.09c0,0,1.97-1.07,2.41-1.18c0.14-0.04,0.59-0.02,0.59-0.02s0.03-0.4,0.12-0.44
				c0.85-0.37,2.22-1.04,2.62-1.16c0.13-0.04,0.55-0.02,0.55-0.02s0-0.29,0.07-0.34c0.62-0.48,3.51-1.91,4.32-2.23
				c0.1-0.04,0.31,0.13,0.4,0.09c0.08-0.03,0.15-0.37,0.25-0.45c0.35-0.25,2.24-1.12,2.9-1.25c0.87-0.18,3.75-0.2,6.46,2.33
				l5.09-2.65l-10.23-5.57l-63.42,32l27.51,13.98l63.74-31.82L125.46,93.88z"/>
			<line class="st17" x1="79.9" y1="126.64" x2="127.62" y2="103.02"/>
			<line class="st17" x1="60.31" y1="115.4" x2="107.69" y2="91.12"/>
			<g>
				<polygon class="st9" points="112.61,90.33 113.7,89.56 112.77,88.61 110.77,88.42 109.68,89.19 110.61,90.14 				"/>
				<path class="st18" d="M112.41,89.95l0.26-0.18c0.19-0.14,0.22-0.41,0.05-0.58l-0.22-0.23c-0.06-0.07-0.15-0.11-0.24-0.11
					l-1.09-0.1c-0.09-0.01-0.18,0.02-0.25,0.07L110.66,89c-0.19,0.14-0.22,0.41-0.05,0.58l0.22,0.23c0.06,0.07,0.15,0.11,0.24,0.11
					l1.09,0.1C112.25,90.03,112.34,90,112.41,89.95z"/>
			</g>
			<g>
				<polygon class="st9" points="132.32,100.6 133.45,99.79 132.48,98.8 130.38,98.6 129.24,99.41 130.21,100.4 				"/>
				<path class="st18" d="M132.11,100.2l0.27-0.19c0.2-0.14,0.23-0.43,0.06-0.61l-0.23-0.24c-0.07-0.07-0.15-0.11-0.25-0.12
					l-1.14-0.11c-0.09-0.01-0.19,0.02-0.27,0.07l-0.27,0.19c-0.2,0.14-0.23,0.43-0.06,0.61l0.23,0.24c0.07,0.07,0.15,0.11,0.25,0.12
					l1.14,0.11C131.93,100.28,132.03,100.26,132.11,100.2z"/>
			</g>
			<g>
				<polygon class="st9" points="75.8,128.4 76.94,127.6 75.96,126.6 73.86,126.41 72.72,127.21 73.69,128.21 				"/>
				<path class="st18" d="M75.59,128.01l0.27-0.19c0.2-0.14,0.23-0.43,0.06-0.61l-0.23-0.24c-0.07-0.07-0.15-0.11-0.25-0.12
					l-1.14-0.11c-0.09-0.01-0.19,0.02-0.27,0.07l-0.27,0.19c-0.2,0.14-0.23,0.43-0.06,0.61l0.23,0.24c0.07,0.07,0.15,0.11,0.25,0.12
					l1.14,0.11C75.42,128.09,75.51,128.06,75.59,128.01z"/>
			</g>
			<g>
				<polygon class="st9" points="60.14,119.97 61.27,119.17 60.3,118.17 58.2,117.97 57.06,118.78 58.03,119.78 				"/>
				<path class="st18" d="M59.93,119.58l0.27-0.19c0.2-0.14,0.23-0.43,0.06-0.61l-0.23-0.24c-0.07-0.07-0.15-0.11-0.25-0.12
					l-1.14-0.11c-0.09-0.01-0.19,0.02-0.27,0.07l-0.27,0.19c-0.2,0.14-0.23,0.43-0.06,0.61l0.23,0.24c0.07,0.07,0.15,0.11,0.25,0.12
					l1.14,0.11C59.75,119.66,59.85,119.63,59.93,119.58z"/>
			</g>
			<g>
				<path class="st10" d="M119.95,85.17l6.92,3.46c0,0,0.35-0.9,2.51-0.01c2.16,0.88,2.26,2.4,2.26,2.4l12.84,6.42l-0.66-66.06
					l-23.99-13.32L119.95,85.17z"/>
				<path class="st18" d="M123.17,80.87c0,0,0.98,0.94,1.71,1.78c0.73,0.84,1.5,1.21,1.5,1.21s2.54,0.09,3.58,0.54
					c1.04,0.45,1.73,1.06,1.8,1.43c0.02,0.14,0.79,0.09,0.79,0.09s3.59-0.04,5.57-1.66c0.1-0.09,0.16-0.2,0.18-0.31
					c0,0-2.17-2.5-4.16-3.61c-1.03-0.58-4.98-1.45-6.7-1.62C125.39,78.52,123.17,80.87,123.17,80.87z"/>
				<path class="st4" d="M144.83,97.69l0.06-67.66L117.01,15.7l-0.12,68.09l10.64,5.4l0.08-5.3c-2.54-0.96-3.94-2.94-4.17-3.79
					c-0.18-0.66-0.25-2.73-0.19-3.16c0.02-0.13,0.29-0.34,0.29-0.42c-0.01-0.1-0.25-0.2-0.26-0.32c-0.08-0.87-0.1-4.1,0.05-4.86
					c0.02-0.09,0.27-0.21,0.27-0.21s-0.2-0.37-0.23-0.5c-0.07-0.41-0.09-1.94-0.14-2.86c-0.01-0.1,0.34-0.3,0.34-0.3
					s-0.21-0.39-0.25-0.54c-0.1-0.45-0.04-2.68-0.04-2.68c0-0.08,0.01-0.1,0.02-0.16c0.05-0.18,0.25-0.28,0.43-0.22l0-0.04
					c0,0-0.48-0.5-0.5-0.65c-0.07-0.53-0.13-2.42-0.05-3.08c0.01-0.06,0.29-0.19,0.31-0.36c0.02-0.18-0.23-0.41-0.26-0.5
					c-0.25-0.85-0.13-5.45-0.13-5.45l0.75-1.06l0.01-1.42l-0.59-1.6c0,0-0.89-3.2,0.25-6.4c1.14-3.2,3.95-6.56,3.95-6.56l0.07-0.84
					c0,0,0.08-0.27-0.01-0.38c-0.08-0.11-0.55-0.18-0.52-0.39c0.04-0.25,0.7-0.33,0.73-0.55c0.07-0.51,0-1.92,0-1.92l0.17-1.3
					c0,0,3.4,0.02,5.05,1.65l-0.14,3.25v0.31c0,0,0.29,0.39,0.31,0.57c0.03,0.21-0.57,0.26-0.57,0.26v0.42c0,0,2.24,4.03,3.02,5.63
					c0.63,1.28,1.96,4.44,1.77,6.36c-0.19,1.92-0.78,2.4-0.78,2.4l-0.2,1.49l0.24,1.21c0,0,0.18,0.37,0.43,1.36
					c0.25,0.99,0.29,2.87,0.29,2.87l-0.13,2.61c0,0-0.3,0.97-0.42,1.05c-0.12,0.08,0.38,0.36,0.42,0.53
					c0.04,0.17-0.1,2.36-0.03,2.53c0.07,0.17-0.13,0.81-0.22,0.84l0.41,0.69c0,0-0.05,1.96-0.13,2.51c-0.03,0.17-0.5,0.49-0.5,0.49
					s0.44,0.27,0.44,0.42l0.03,2.62l-0.32,0.74l0.31,0.25l-0.07,4.12l0.07,0.47c0,0-0.16,0.52-0.16,0.7l0.28,0.31l-0.35,3.84
					c0,0-0.74,2.77-5.82,1.31l-0.06,5.72L144.83,97.69z"/>
				<line class="st17" x1="119.99" y1="77.26" x2="120.44" y2="28.04"/>
				<line class="st17" x1="141.03" y1="85.35" x2="141.03" y2="37.5"/>
				<polygon class="st10" points="144.89,29.85 144.83,97.69 153.63,93.35 153.74,25.42 				"/>
				<polygon class="st19" points="117.01,15.7 144.89,29.94 153.96,25.4 125.96,11.15 				"/>
				<g>
					<g>
						<polygon class="st9" points="118.9,20.59 120.05,21.47 120.79,23.28 120.42,24.15 119.25,23.29 118.51,21.48 						"/>
						<polygon class="st9" points="120.41,24.17 121.28,23.77 121.68,22.86 120.93,21.08 119.8,20.21 118.91,20.55 120.07,21.48 
							120.81,23.28 						"/>
					</g>
					<g>
						<path class="st18" d="M119.24,23.56l0.6-0.26c0,0,0.3-0.25-0.01-0.98c-0.31-0.73-0.75-0.72-0.75-0.72l-0.59,0.26L119.24,23.56
							z"/>
						<path class="st18" d="M118.48,21.86c0.2-0.09,0.57,0.2,0.78,0.67c0.21,0.47,0.17,0.94-0.02,1.03
							c-0.2,0.09-0.52-0.22-0.73-0.69C118.3,22.4,118.29,21.95,118.48,21.86z"/>
						<path class="st18" d="M119.26,23.55c0,0-0.8,0.35-1.18-0.53s0.41-1.15,0.41-1.15"/>
					</g>
				</g>
				<g>
					<g>
						<polygon class="st9" points="139.3,30.63 140.44,31.51 141.19,33.32 140.81,34.19 139.65,33.32 138.9,31.52 						"/>
						<polygon class="st9" points="140.81,34.21 141.68,33.8 142.08,32.9 141.33,31.12 140.2,30.25 139.31,30.59 140.47,31.52 
							141.21,33.32 						"/>
					</g>
					<g>
						<path class="st18" d="M139.63,33.6l0.6-0.26c0,0,0.3-0.25-0.01-0.98s-0.75-0.72-0.75-0.72l-0.59,0.26L139.63,33.6z"/>
						<path class="st18" d="M138.88,31.9c0.2-0.09,0.57,0.2,0.78,0.67c0.21,0.47,0.17,0.94-0.02,1.03s-0.52-0.22-0.73-0.69
							S138.69,31.99,138.88,31.9z"/>
						<path class="st18" d="M139.65,33.59c0,0-0.8,0.35-1.18-0.53s0.41-1.15,0.41-1.15"/>
					</g>
				</g>
				<g>
					<g>
						<polygon class="st9" points="139.94,90.43 141.09,91.3 141.83,93.11 141.46,93.98 140.29,93.12 139.55,91.31 						"/>
						<polygon class="st9" points="141.45,94 142.32,93.6 142.72,92.69 141.97,90.91 140.84,90.04 139.95,90.39 141.11,91.32 
							141.85,93.11 						"/>
					</g>
					<g>
						<path class="st18" d="M140.28,93.39l0.6-0.26c0,0,0.3-0.25-0.01-0.98c-0.31-0.73-0.75-0.72-0.75-0.72l-0.59,0.26L140.28,93.39
							z"/>
						<path class="st18" d="M139.53,91.69c0.2-0.09,0.57,0.2,0.78,0.67c0.21,0.47,0.17,0.94-0.02,1.03
							c-0.2,0.09-0.52-0.22-0.73-0.69C139.34,92.23,139.33,91.78,139.53,91.69z"/>
						<path class="st18" d="M140.3,93.38c0,0-0.8,0.35-1.18-0.53c-0.38-0.89,0.41-1.15,0.41-1.15"/>
					</g>
				</g>
				<g>
					<g>
						<polygon class="st9" points="119.34,81.34 120.49,82.22 121.23,84.03 120.86,84.9 119.69,84.03 118.95,82.23 						"/>
						<polygon class="st9" points="120.85,84.92 121.72,84.51 122.12,83.61 121.37,81.83 120.24,80.96 119.36,81.3 120.51,82.23 
							121.25,84.03 						"/>
					</g>
					<g>
						<path class="st18" d="M119.68,84.31l0.6-0.26c0,0,0.3-0.25-0.01-0.98s-0.75-0.72-0.75-0.72l-0.59,0.26L119.68,84.31z"/>
						<path class="st18" d="M118.93,82.61c0.2-0.09,0.57,0.2,0.78,0.67c0.21,0.47,0.17,0.94-0.02,1.03
							c-0.2,0.09-0.52-0.22-0.73-0.69C118.74,83.15,118.73,82.7,118.93,82.61z"/>
						<path class="st18" d="M119.7,84.3c0,0-0.8,0.35-1.18-0.53s0.41-1.15,0.41-1.15"/>
					</g>
				</g>
			</g>
		</g>
	</g>
	<line class="st2" x1="75.18" y1="164.59" x2="75.18" y2="172.95"/>
</g>
</svg>
