<?xml version="1.0" encoding="utf-8"?>
<!-- Generator: Adobe Illustrator 25.2.3, SVG Export Plug-In . SVG Version: 6.00 Build 0)  -->
<svg version="1.1" id="Layer_1" xmlns="http://www.w3.org/2000/svg" xmlns:xlink="http://www.w3.org/1999/xlink" x="0px" y="0px"
	 viewBox="0 0 169.4 212.9" style="enable-background:new 0 0 169.4 212.9;" xml:space="preserve">
<style type="text/css">
	.st0{fill:none;stroke:#FFFFFF;stroke-width:0.25;stroke-miterlimit:10;}
	.st1{fill:#CBB8B9;stroke:#FFFFFF;stroke-width:0.25;stroke-miterlimit:10;}
	.st2{fill:#E4DAD8;stroke:#FFFFFF;stroke-width:0.25;stroke-miterlimit:10;}
	.st3{fill:#CBB8B9;stroke:#FFFFFF;stroke-width:0.25;stroke-linejoin:bevel;stroke-miterlimit:10;}
	.st4{fill:#E4DAD8;stroke:#FFFFFF;stroke-width:0.25;stroke-linejoin:bevel;stroke-miterlimit:10;}
	.st5{fill:#DD335A;stroke:#FFFFFF;stroke-width:0.25;stroke-miterlimit:10;}
	.st6{fill:#C52E55;stroke:#FFFFFF;stroke-width:0.25;stroke-miterlimit:10;}
	.st7{fill:none;stroke:#FFFFFF;stroke-width:0.3135;stroke-miterlimit:10;}
	.st8{fill:none;stroke:#B71549;stroke-width:0.3135;stroke-miterlimit:10;}
	.st9{fill:none;stroke:#B71549;stroke-width:0.3135;stroke-linecap:round;stroke-miterlimit:10;}
	.st10{fill:#B71549;}
	.st11{fill:#B71549;stroke:#FFFFFF;stroke-width:0.25;stroke-miterlimit:10;}
	.st12{fill:#B71549;stroke:#FFFFFF;stroke-width:0.303;stroke-miterlimit:10;}
	.st13{fill:#EE7345;stroke:#FFFFFF;stroke-width:0.316;stroke-miterlimit:10;}
	.st14{fill:none;stroke:#FFFFFF;stroke-width:0.316;stroke-miterlimit:10;}
	.st15{fill:#EE7345;stroke:#FFFFFF;stroke-width:0.3135;stroke-miterlimit:10;}
	.st16{fill:#DD335A;stroke:#FFFFFF;stroke-width:0.2665;stroke-miterlimit:10;}
	.st17{fill:none;stroke:#B71549;stroke-width:1.8183;stroke-linecap:round;stroke-miterlimit:10;}
	.st18{fill:#C52E55;}
	.st19{fill:#B71549;stroke:#FFFFFF;stroke-width:0.2679;stroke-miterlimit:10;}
	.st20{fill:#DD335A;stroke:#FFFFFF;stroke-width:0.2679;stroke-miterlimit:10;}
	.st21{fill:#B71549;stroke:#FFFFFF;stroke-width:0.2845;stroke-miterlimit:10;}
	.st22{fill:none;stroke:#FFFFFF;stroke-width:0.25;stroke-linejoin:bevel;stroke-miterlimit:10;}
</style>
<g>
	<line class="st0" x1="68.4" y1="180.6" x2="68.4" y2="189.5"/>
	<line class="st0" x1="68.1" y1="180.4" x2="68" y2="189.7"/>
	<g>
		<polygon class="st1" points="13,169.3 63.4,194.8 148.9,151.7 149.1,141.8 101.4,120 13,164.6 		"/>
		<polygon class="st1" points="13,170 13.2,160.4 63.5,185 63.3,194.8 		"/>
		<polygon class="st1" points="2.4,172.4 2.4,180.4 63.7,211.4 167.1,159.3 166.9,151.1 63.6,202.5 		"/>
		<polygon class="st2" points="63.3,202.5 167.1,151.2 105.7,121.3 2.7,171.7 		"/>
		<polygon class="st1" points="13,169.3 63.3,195.2 150.7,150.7 150.8,140.8 101.4,120 13,164.6 		"/>
		<polygon class="st3" points="13,170 13.2,160.4 63.3,185.6 63.2,195.2 		"/>
		<polygon class="st3" points="2.8,171.8 2.8,181.5 63.3,211.9 167.4,159.1 167.2,150.8 63.3,202.5 		"/>
		<path class="st4" d="M13.3,160.4l49.9,25.3l88.1-45l-50.5-24.5L13.3,160.4z"/>
		<g>
			<polygon class="st5" points="37.9,164.5 63.2,177.2 63.2,165.6 37.4,153 			"/>
			<polygon class="st6" points="63.2,177.1 135.5,141.1 135.9,130.9 63.3,165.6 			"/>
			<line class="st7" x1="37.4" y1="152.9" x2="108.5" y2="116.6"/>
			<line class="st8" x1="64.5" y1="162.5" x2="128.4" y2="132.4"/>
			<path class="st9" d="M45.1,151.8c-0.4-0.8,62.1-33,62.1-33"/>
			<g>
				<polygon class="st10" points="62.7,162.6 63.9,161.7 62.8,160.5 60.4,160.4 59.1,161.2 60.2,162.4 				"/>
				<path class="st10" d="M62.3,162.2l0.3-0.2c0.2-0.1,0.2-0.5,0.1-0.6l-0.2-0.3c-0.1-0.1-0.2-0.1-0.3-0.1l-1.3-0.1
					c-0.1,0-0.2,0-0.3,0.1l-0.3,0.2c-0.2,0.2-0.2,0.5-0.1,0.6l0.2,0.3c0.1,0.1,0.2,0.1,0.3,0.1l1.3,0.1
					C62.2,162.2,62.3,162.2,62.3,162.2z"/>
			</g>
			<g>
				<polygon class="st10" points="128.1,130.9 129.4,130 128.3,128.9 126,128.7 124.7,129.5 125.8,130.7 				"/>
				<path class="st10" d="M127.9,130.5l0.3-0.2c0.2-0.1,0.2-0.5,0.1-0.6l-0.2-0.3c-0.1-0.1-0.1-0.1-0.3-0.1l-1.3-0.1
					c-0.1,0-0.2,0-0.3,0.1l-0.3,0.2c-0.2,0.2-0.2,0.5-0.1,0.6l0.2,0.3c0.1,0.1,0.1,0.1,0.3,0.1l1.3,0.1
					C127.7,130.6,127.8,130.5,127.9,130.5z"/>
			</g>
			<g>
				<polygon class="st10" points="51.1,153.4 52.4,152.6 51.3,151.4 48.9,151.3 47.8,152.1 48.8,153.2 				"/>
				<path class="st10" d="M50.9,153l0.3-0.2c0.2-0.1,0.2-0.4,0.1-0.6l-0.2-0.2c-0.1-0.1-0.2-0.1-0.3-0.1l-1.3-0.1
					c-0.1,0-0.2,0-0.3,0.1l-0.3,0.2c-0.2,0.2-0.2,0.4-0.1,0.6l0.2,0.2c0.1,0.1,0.2,0.1,0.3,0.1l1.3,0.1
					C50.7,153.1,50.8,153,50.9,153z"/>
			</g>
			<polygon class="st11" points="31.9,161.3 63.2,177 63.2,165.6 31.9,149.8 			"/>
			<polygon class="st11" points="63.2,177.1 136,141.1 135.8,129.7 63.3,165.6 			"/>
			<path class="st12" d="M109.5,123l6.4-3.2c0,0-0.5,1.8,0.9,2.5c1.4,0.6,4-0.2,4-0.2l-8.8,3.9L109.5,123z"/>
			<g>
				<path class="st13" d="M61.3,153.6c0.2-0.1,0.1-1,0.1-1l1.1-0.5c0,0,6.1,0.5,8.1,0.4c1.6,0,4.5-0.3,6.3-1.5
					c1.8-1.2,2.4-2.1,2.4-2.1l0,0l2-1.3c0,0,0.1,0.2,1.3,0c1.2-0.2,3.1-1.2,3.1-1.2l2.6-1.5c0,0,0.9-0.7,0.9-1
					c0-0.1,0.5,0.2,0.7,0.2c0.2,0,2.4-1.3,2.6-1.3c0.2,0,0.8-0.5,0.8-0.6l0.9,0.1c0,0,1.9-1.1,2.5-1.4c0.1-0.1,0.2-0.8,0.2-0.8
					s0.5,0.3,0.6,0.2l2.7-1.3l0.5-0.7l0.4,0.2l4.2-2.1l0.5-0.1c0,0,0.4-0.4,0.6-0.5l0.4,0.1l3.5-2c0.1-0.1,4.6-1.7,1.2-8.8
					c-3.1-6.4-7.4-5.1-8.5-4.9c-0.8,0.2-2.9,1.2-3.3,1.4c-0.1,0.1-0.2,0.4-0.3,0.5c-0.1,0-0.3-0.1-0.4-0.1c-1,0.3-4.2,2-4.9,2.6
					c-0.1,0.1-0.1,0.4-0.1,0.4s-0.4,0-0.6,0c-0.4,0.1-2,0.9-3,1.3c-0.1,0-0.1,0.5-0.1,0.5s-0.5,0-0.6,0c-0.4,0.1-2.7,1.4-2.7,1.4
					c-0.1,0-0.1,0.1-0.1,0.1c-0.1,0.1-0.1,0.4,0,0.5l0,0c0,0-0.8-0.2-0.9-0.1c-0.5,0.2-2.6,1.1-3.1,1.5c-0.1,0,0,0.4-0.2,0.5
					s-0.5,0-0.6,0c-1,0.2-5.6,2.7-5.6,2.7l-1.2,1.3l-1.9,1h-1.2c0,0-3.4,0.6-6.1,3.4c-2.7,2.8-5.7,7.9-5.7,7.9l-0.9,0.5
					c0,0-0.2,0.2-0.4,0.2s-0.4-0.4-0.6-0.3c-0.2,0.1,0,0.9-0.2,1.1c-0.5,0.3-1.9,1-1.9,1l-1.1,0.5c0,0,0.9,0,1.8,1.9
					c1.2,2.4,0.8,3.2,0.8,3.2l2.7-1.5l0.6-0.1C60.5,153.3,61,153.7,61.3,153.6z"/>
				<path class="st14" d="M60.9,153.6c0,0-0.1-2.9-3.1-6.1"/>
				<path class="st7" d="M58.3,147.4c2.9,3.2,2.9,6,2.9,6"/>
				<path class="st13" d="M57.1,155c-0.4,0.2-1.5-1-2.1-2.2c-0.6-1.4-0.9-2.7-0.3-2.9c0.5-0.2,1.4,0.6,2,2
					C57.2,153.3,57.5,154.8,57.1,155z"/>
				<path class="st15" d="M55.9,152.2"/>
				<path class="st15" d="M68.4,135.8"/>
				<path class="st7" d="M89,144c0,0,0.5-2.7-1.8-7.5c-2.5-5-4.9-6-4.9-6"/>
				<path class="st7" d="M93.2,142.3c0,0,0.5-2.6-1.8-7.5c-2.5-5-5-6.1-5-6.1"/>
				<path class="st7" d="M100.6,138.4c0,0,1.1-2.8-1.2-7.7c-2.5-5-5.4-5.7-5.4-5.7"/>
				<path class="st7" d="M96.7,140.2c0,0,0.8-2.7-1.6-7.6c-2.5-5-5.1-5.8-5.1-5.8"/>
				<path class="st7" d="M106.4,135.8c0,0,0.8-3-1.6-8c-2.5-5.2-5.5-5.9-5.5-5.9"/>
				<path class="st7" d="M79.3,148.9c0,0-0.5-4.6-1.8-7.7c-1.3-3.1-4.5-5.8-4.5-5.8"/>
				<path class="st7" d="M81.3,147.6c0,0-0.2-4-1.8-7.2c-1.6-3.3-4.8-5.8-4.8-5.8"/>
			</g>
			<path class="st16" d="M120.3,122l-8.4,3.9c0.9,2.1,1,4,0.7,5.2c-0.6,2.3-2.3,2.8-2.3,2.8l-3.3,1.9l-0.7,0
				c-0.2,0.1-0.6,0.5-0.6,0.5l-4.2,2l-1,0l-0.5,0.7l-2.4,1.1c-0.1,0.1-1-0.1-1-0.1s0,0.6-0.2,0.8c-0.5,0.3-2.3,1.3-2.3,1.3h-1
				c0,0.1-0.4,0.6-0.6,0.6c-0.2,0-2.3,1.1-2.4,1.2s-1.1-0.3-1.1-0.1c0,0.1-0.6,0.8-0.6,0.8l-2.8,1.7c0,0-1.7,1-2.9,1.2
				c-1.2,0.2-1.5,0-1.5,0l-1.2,0.9l-0.6,0.5c0,0-0.4,1-2.4,2.1c-1.8,1.2-4.7,1.5-6.3,1.5c-2,0-8.1-0.4-8.1-0.4l-1.1,0.5
				c0,0,0.1,0.8-0.1,1c-0.2,0.1-0.8-0.3-0.8-0.3l-0.6,0.2l-2.7,1.5c0,0-0.5-0.6-1.7-2.9c-1-1.9-0.9-2.1-0.9-2.1l1.1-0.5
				c0,0,1.5-0.6,1.9-1c0.2-0.1,0-0.8,0.2-1.1c0.2-0.1,0.5,0.3,0.6,0.3c0.2,0,0.4-0.2,0.4-0.2l0.9-0.5c0,0,3-5.1,5.7-7.8
				c2.7-2.8,6.1-3.4,6.1-3.4l1.2-0.1l1.9-1l1.2-1.3c0,0,4.6-2.4,5.6-2.7c0.1,0,0.4,0.1,0.6,0c0.2-0.1,0.1-0.4,0.2-0.5
				c0.6-0.4,2.6-1.3,3.1-1.5c0.1-0.1,0.9,0.1,0.9,0.1l0,0c-0.1-0.1-0.1-0.4,0-0.5l0.1-0.1c0,0,2.2-1.2,2.8-1.4c0.1,0,0.6,0,0.6,0
				s0-0.4,0.1-0.5c1-0.4,2.6-1.2,3-1.3c0.1,0,0.6,0,0.6,0s0-0.3,0.1-0.4c0.7-0.5,4-2.1,4.9-2.5c0.1,0,0.3,0.1,0.4,0.1
				s0.1-0.4,0.3-0.5c0.4-0.3,2.6-1.3,3.3-1.4c1-0.2,4.3-0.2,7.4,2.7l5.8-3l-11.7-6.3l-72.2,36.1l31.3,15.7l72.5-35.9L120.3,122z"/>
			<line class="st17" x1="68.3" y1="159.1" x2="122.7" y2="132.2"/>
			<line class="st17" x1="46" y1="146.3" x2="99.9" y2="118.7"/>
			<g>
				<polygon class="st10" points="105.5,117.8 106.8,116.9 105.7,115.8 103.5,115.6 102.2,116.5 103.3,117.6 				"/>
				<path class="st18" d="M105.3,117.3l0.3-0.2c0.2-0.2,0.2-0.4,0.1-0.6l-0.2-0.2c-0.1-0.1-0.1-0.1-0.3-0.1l-1.3-0.1
					c-0.1,0-0.2,0-0.3,0.1l-0.3,0.2c-0.2,0.1-0.2,0.4-0.1,0.6l0.2,0.2c0.1,0.1,0.1,0.1,0.3,0.1l1.3,0.1
					C105.1,117.4,105.2,117.4,105.3,117.3z"/>
			</g>
			<g>
				<polygon class="st10" points="128,129.5 129.3,128.6 128.1,127.4 125.8,127.2 124.5,128.1 125.5,129.2 				"/>
				<path class="st18" d="M127.7,129l0.3-0.2c0.2-0.1,0.2-0.5,0.1-0.6l-0.2-0.3c-0.1-0.1-0.1-0.1-0.3-0.1l-1.3-0.1
					c-0.1,0-0.2,0-0.3,0.1l-0.3,0.2c-0.2,0.2-0.2,0.5-0.1,0.6l0.2,0.3c0.1,0.1,0.2,0.1,0.3,0.1l1.3,0.1
					C127.5,129.1,127.6,129.1,127.7,129z"/>
			</g>
			<g>
				<polygon class="st10" points="63.6,161.1 64.9,160.2 63.8,159.1 61.5,158.9 60.2,159.7 61.3,160.9 				"/>
				<path class="st18" d="M63.4,160.7l0.3-0.2c0.2-0.2,0.2-0.5,0.1-0.6l-0.2-0.3c-0.1-0.1-0.2-0.1-0.3-0.1l-1.3-0.1
					c-0.1,0-0.2,0-0.3,0.1l-0.3,0.2c-0.2,0.1-0.2,0.5-0.1,0.6l0.2,0.3c0.1,0.1,0.2,0.1,0.3,0.1l1.3,0.1
					C63.2,160.8,63.3,160.7,63.4,160.7z"/>
			</g>
			<g>
				<polygon class="st10" points="45.8,151.5 47.1,150.6 46,149.5 43.6,149.2 42.3,150.2 43.5,151.3 				"/>
				<path class="st18" d="M45.6,151.1l0.3-0.2c0.2-0.1,0.2-0.5,0.1-0.6l-0.2-0.3c-0.1-0.1-0.2-0.1-0.3-0.1l-1.3-0.1
					c-0.1,0-0.2,0-0.3,0.1l-0.3,0.2c-0.2,0.2-0.2,0.5-0.1,0.6l0.2,0.3c0.1,0.1,0.2,0.1,0.3,0.1l1.3,0.1
					C45.4,151.2,45.5,151.2,45.6,151.1z"/>
			</g>
			<g>
				<path class="st19" d="M113.9,112l7.8,4c0,0,0.4-1.1,2.9,0c2.5,1,2.6,2.7,2.6,2.7l14.6,7.3l-0.6-75.2l-27.3-15.1L113.9,112z"/>
				<path class="st18" d="M117.5,107c0,0,1.1,1.1,1.9,2c0.9,1,1.7,1.4,1.7,1.4s2.9,0.1,4.1,0.6c1.2,0.5,1.9,1.2,2,1.6
					c0,0.2,0.9,0.1,0.9,0.1s4.1,0,6.3-1.9c0.1-0.1,0.2-0.2,0.2-0.3c0,0-2.5-2.9-4.7-4.1c-1.2-0.6-5.7-1.6-7.6-1.8
					C120.1,104.3,117.5,107,117.5,107z"/>
				<path class="st20" d="M142.2,126.2l0.1-77l-31.7-16.3l-0.1,77.5l12.1,6.1l0.1-6c-2.9-1.1-4.5-3.3-4.7-4.3
					c-0.2-0.7-0.3-3.1-0.2-3.6c0-0.1,0.3-0.4,0.3-0.4c0-0.1-0.3-0.2-0.3-0.3c-0.1-1-0.1-4.7,0.1-5.6c0-0.1,0.3-0.2,0.3-0.2
					s-0.2-0.4-0.2-0.5c-0.1-0.4-0.1-2.2-0.1-3.2c0-0.1,0.4-0.3,0.4-0.3s-0.2-0.4-0.3-0.6c-0.1-0.5,0-3,0-3c0-0.1,0-0.1,0-0.2
					c0.1-0.2,0.3-0.3,0.5-0.2l0,0c0,0-0.5-0.5-0.5-0.7c-0.1-0.6-0.1-2.8-0.1-3.5c0-0.1,0.3-0.2,0.3-0.4c0-0.2-0.2-0.4-0.3-0.5
					c-0.3-1-0.1-6.2-0.1-6.2l0.9-1.2v-1.6l-0.6-1.8c0,0-1-3.6,0.3-7.3c1.3-3.6,4.5-7.5,4.5-7.5l0.1-1c0,0,0.1-0.3,0-0.4
					c-0.1-0.1-0.6-0.2-0.6-0.4c0-0.3,0.7-0.4,0.9-0.6c0.1-0.5,0-2.1,0-2.1l0.2-1.5c0,0,3.9,0,5.8,1.9l-0.1,3.7v0.3
					c0,0,0.3,0.4,0.3,0.6s-0.6,0.3-0.6,0.3v0.4c0,0,2.6,4.6,3.4,6.4c0.8,1.5,2.2,5,2,7.3c-0.2,2.1-0.9,2.7-0.9,2.7l-0.2,1.7l0.3,1.4
					c0,0,0.2,0.4,0.5,1.5c0.3,1.1,0.3,3.2,0.3,3.2l-0.1,3c0,0-0.3,1.1-0.4,1.2c-0.1,0.1,0.4,0.4,0.4,0.6s-0.1,2.7,0,2.9
					c0.1,0.2-0.1,1-0.2,1l0.4,0.8c0,0-0.1,2.2-0.1,2.9c0,0.2-0.5,0.5-0.5,0.5s0.5,0.3,0.5,0.4v3l-0.3,0.9l0.3,0.3l-0.1,4.7l0.1,0.5
					c0,0-0.2,0.6-0.2,0.8l0.3,0.3l-0.4,4.4c0,0-0.9,3.1-6.6,1.5l-0.1,6.5L142.2,126.2z"/>
				<line class="st17" x1="114" y1="103" x2="114.4" y2="46.9"/>
				<line class="st17" x1="137.9" y1="112.2" x2="137.9" y2="57.6"/>
				<polygon class="st21" points="142.3,49 142.2,126.2 152.2,121.3 152.3,43.9 				"/>
				<polygon class="st19" points="110.5,32.9 142.3,49.1 152.5,43.9 120.7,27.7 				"/>
				<g>
					<g>
						<polygon class="st10" points="112.7,38.5 114,39.4 114.8,41.5 114.4,42.5 113.1,41.6 112.3,39.4 						"/>
						<polygon class="st10" points="114.4,42.5 115.4,42.1 115.9,41 115,39 113.8,38 112.7,38.3 114,39.4 114.8,41.5 						"/>
					</g>
					<g>
						<path class="st18" d="M113.1,41.8l0.6-0.3c0,0,0.3-0.3,0-1.1c-0.3-0.9-0.9-0.9-0.9-0.9l-0.6,0.3L113.1,41.8z"/>
						<path class="st18" d="M112.3,39.8c0.2-0.1,0.6,0.2,0.9,0.8c0.2,0.5,0.2,1.1,0,1.2c-0.2,0.1-0.6-0.2-0.9-0.8
							C112,40.5,112,40,112.3,39.8z"/>
						<path class="st18" d="M113.1,41.8c0,0-0.9,0.4-1.4-0.6c-0.4-1,0.4-1.3,0.4-1.3"/>
					</g>
				</g>
				<g>
					<g>
						<polygon class="st10" points="135.9,49.8 137.2,50.9 138.1,52.9 137.7,53.9 136.3,52.9 135.4,50.9 						"/>
						<polygon class="st10" points="137.7,54 138.6,53.5 139,52.5 138.2,50.5 136.9,49.4 135.9,49.8 137.2,50.9 138.1,52.9 						
							"/>
					</g>
					<g>
						<path class="st18" d="M136.3,53.2l0.6-0.3c0,0,0.3-0.3,0-1.1C136.6,51,136,51,136,51l-0.6,0.3L136.3,53.2z"/>
						<path class="st18" d="M135.4,51.3c0.2-0.1,0.6,0.2,0.9,0.8c0.2,0.5,0.2,1.1,0,1.2c-0.2,0.1-0.6-0.2-0.9-0.8
							C135.2,52,135.2,51.4,135.4,51.3z"/>
						<path class="st18" d="M136.3,53.2c0,0-0.9,0.4-1.4-0.6c-0.4-1,0.4-1.3,0.4-1.3"/>
					</g>
				</g>
				<g>
					<g>
						<polygon class="st10" points="136.6,118 138,118.9 138.8,121 138.4,121.9 137,121 136.2,118.9 						"/>
						<polygon class="st10" points="138.4,122 139.4,121.5 139.8,120.5 138.9,118.5 137.7,117.4 136.7,117.8 138,118.9 138.8,121 
													"/>
					</g>
					<g>
						<path class="st18" d="M137,121.3l0.6-0.3c0,0,0.3-0.3,0-1.1c-0.3-0.9-0.9-0.9-0.9-0.9l-0.6,0.3L137,121.3z"/>
						<path class="st18" d="M136.2,119.3c0.2-0.1,0.6,0.2,0.9,0.8c0.2,0.5,0.2,1.1,0,1.2c-0.2,0.1-0.6-0.2-0.9-0.7
							S135.9,119.5,136.2,119.3z"/>
						<path class="st18" d="M137,121.3c0,0-0.9,0.4-1.4-0.6c-0.4-1,0.4-1.3,0.4-1.3"/>
					</g>
				</g>
				<g>
					<g>
						<polygon class="st10" points="113.2,107.6 114.5,108.5 115.4,110.7 114.9,111.6 113.5,110.7 112.8,108.6 						"/>
						<polygon class="st10" points="114.9,111.6 115.9,111.2 116.3,110.1 115.5,108.1 114.2,107.1 113.2,107.6 114.5,108.6 
							115.4,110.7 						"/>
					</g>
					<g>
						<path class="st18" d="M113.5,111l0.6-0.3c0,0,0.3-0.3,0-1.1c-0.3-0.9-0.9-0.9-0.9-0.9l-0.6,0.3L113.5,111z"/>
						<path class="st18" d="M112.7,109.1c0.2-0.1,0.6,0.2,0.9,0.8c0.2,0.5,0.2,1.1,0,1.2c-0.2,0.1-0.6-0.2-0.9-0.7
							C112.5,109.6,112.5,109.1,112.7,109.1z"/>
						<path class="st18" d="M113.7,110.9c0,0-0.9,0.4-1.4-0.6c-0.4-1,0.4-1.3,0.4-1.3"/>
					</g>
				</g>
			</g>
		</g>
	</g>
	<line class="st22" x1="63" y1="202.3" x2="63" y2="211.8"/>
</g>
</svg>
