<?xml version="1.0" encoding="utf-8"?>
<!-- Generator: Adobe Illustrator 25.2.3, SVG Export Plug-In . SVG Version: 6.00 Build 0)  -->
<svg version="1.1" id="Layer_1" xmlns="http://www.w3.org/2000/svg" xmlns:xlink="http://www.w3.org/1999/xlink" x="0px" y="0px"
	 viewBox="0 0 150 217.7" style="enable-background:new 0 0 150 217.7;" xml:space="preserve">
<style type="text/css">
	.st0{fill:#F77441;stroke:#FFFFFF;stroke-width:0.4971;stroke-miterlimit:10;}
	.st1{fill:none;stroke:#FFFFFF;stroke-width:0.4971;stroke-miterlimit:10;}
	.st2{fill:none;stroke:#FFFFFF;stroke-width:0.2486;stroke-miterlimit:10;}
	.st3{fill:#CCB9B9;stroke:#FFFFFF;stroke-width:0.2486;stroke-miterlimit:10;}
	.st4{fill:#E4DAD8;stroke:#FFFFFF;stroke-width:0.2486;stroke-miterlimit:10;}
	.st5{fill:#CCB9B9;stroke:#FFFFFF;stroke-width:0.2486;stroke-linejoin:bevel;stroke-miterlimit:10;}
	.st6{fill:#E4DAD8;stroke:#FFFFFF;stroke-width:0.2486;stroke-linejoin:bevel;stroke-miterlimit:10;}
	.st7{fill:#DC3359;stroke:#FFFFFF;stroke-width:0.2486;stroke-miterlimit:10;}
	.st8{fill:#C42C54;stroke:#FFFFFF;stroke-width:0.2486;stroke-miterlimit:10;}
	.st9{fill:none;stroke:#FFFFFF;stroke-width:0.2834;stroke-miterlimit:10;}
	.st10{fill:none;stroke:#B71148;stroke-width:0.2834;stroke-miterlimit:10;}
	.st11{fill:none;stroke:#B71148;stroke-width:0.2834;stroke-linecap:round;stroke-miterlimit:10;}
	.st12{fill:#B71148;}
	.st13{fill:#B71148;stroke:#FFFFFF;stroke-width:0.2486;stroke-miterlimit:10;}
	.st14{fill:#F77441;stroke:#FFFFFF;stroke-width:0.2856;stroke-miterlimit:10;}
	.st15{fill:none;stroke:#FFFFFF;stroke-width:0.2856;stroke-miterlimit:10;}
	.st16{fill:#F77441;stroke:#FFFFFF;stroke-width:0.2834;stroke-miterlimit:10;}
	.st17{fill:none;stroke:#B71148;stroke-width:1.6435;stroke-linecap:round;stroke-miterlimit:10;}
	.st18{fill:#C42C54;}
	.st19{fill:#B71148;stroke:#FFFFFF;stroke-width:0.2571;stroke-miterlimit:10;}
	.st20{fill:#B71148;stroke:#FFFFFF;stroke-width:0.5142;stroke-miterlimit:10;}
	.st21{fill:none;stroke:#FFFFFF;stroke-width:0.2486;stroke-linejoin:bevel;stroke-miterlimit:10;}
</style>
<g>
	<g>
		<path class="st0" d="M33.6,14.2c0.6-1.6,4.1-2.9,8.1-2.8s7.2,1.6,7.2,3.3s-2.6,2.5-7.3,2.6C36.7,17.3,33.5,14.4,33.6,14.2z"/>
		<path class="st0" d="M33.6,14.3c0.3,1.1,1.9,2,1.9,2s0,1.3,0.1,1.8c0,0.5-6.9,10.9-8.8,14.7c-1.6,3.1-3.7,8.7-3.3,13.4
			s1.7,6.5,1.7,6.5l0.4,0.9c0,0-0.1,4.1-0.1,4.4c0,0.3-0.4-0.4-1.1,2c-0.6,2.4-0.8,6-0.8,6.9c0,1-0.1,6.4,0.2,7.1
			c0.3,0.8,0.7,1.5,1,1.7s-1,0-1,1.3s-0.1,5.3-0.2,6.3c0,1,0.4,1.9,0.6,2c0,0-0.9,0.5-0.9,1.6s0.1,4.7,0.2,6.1
			c0.1,0.4,1.1,1.2,1.1,1.2s-1,0.6-1,1c0,0-0.2,6.1-0.1,6.7c0,0.6,0.8,1.5,0.8,1.5s-0.7,0.7-0.8,1.3c0,0.6-0.2,4-0.2,6.1
			c0,2,0.1,4.2,0.1,4.8s0.7,0.8,0.7,1.2c0,0-1,0.6-1,1.3c0,0.6,0.1,8.6,0.1,8.6c0,0.2-0.2,3.6,3.5,6.7c2.2,1.9,7.2,3.8,13.8,3.8
			s7.8-0.2,10.9-1.7s4.3-4,5-5.8c0.7-1.8,0.7-10.3,0.6-11.3c0-0.3-0.7-0.6-0.7-0.8c0-0.2,0.6-0.7,0.6-1.7s0.2-8.9,0.2-10
			s-0.8-1.5-0.8-1.5s0.5-0.9,0.6-1.5c0.1-0.6,0.5-6.4,0.4-7.1c0-0.7-1-1.1-1-1.2c0-0.1,0.7-0.5,0.8-0.9c0.3-1.1,0.2-6,0.2-6
			c0-0.2,0-0.7,0-0.8c-0.1-0.4-1-0.4-1-0.7s1.2-0.7,1.2-1.5s0.2-6.3,0.2-7s-0.7-0.5-0.7-0.9c0,0,0.6-1,0.6-1.2c0.3-1,0.7-3.7,0.8-7
			c0-3.2-0.2-7.4-0.3-8.1s-0.5-2-1.3-2c0-0.1,0-4.2,0-4.2l1-2.3c0,0,2.2-7.2-0.4-14.9c-2.7-7.8-9.6-18.2-9.6-18.7c0-0.4-0.2-2-0.2-2
			s1.5-0.7,1.5-1.7s-1.6-1.4-1.6-1.7l0.2-7.9c0,0-0.9,2.7-5.4,2.6c-5.5-0.1-6.7-2.7-6.7-2.7s-0.2,7.6-0.1,7.9
			C35.3,12.8,33.3,13.2,33.6,14.3z"/>
		<path class="st1" d="M35.2,12.7c-1,0.3,1.5,3,6.5,3c5.1,0,6.5-2.7,5.7-2.7"/>
		<path class="st1" d="M48.7,15c0,0-1.5,2.6-7.4,2.5c-5.9,0-7.7-2.9-7.7-2.9"/>
		<path class="st0" d="M35.5,5.1c0-1.4,3.1-2.5,6.2-2.4c3.1,0.1,5.5,1.3,5.5,2.8c0,1.4-2.6,2.3-5.6,2.2C38.5,7.6,35.5,6.5,35.5,5.1z
			"/>
		<path class="st0" d="M41.8,5.7"/>
		<path class="st0" d="M60.3,45.4"/>
		<path class="st1" d="M24.6,75.6c0,0,5,4.1,16.4,4.5c11.8,0.4,16-4.3,16-4.3"/>
		<path class="st1" d="M24,84.9c0,0,5.1,4.4,16.6,4.8c11.7,0.4,16-4.6,16-4.6"/>
		<path class="st1" d="M24.2,103.1c0,0,4.3,4.8,15.8,5.2c11.8,0.4,16.3-4.7,16.3-4.7"/>
		<path class="st1" d="M24.5,93.9c0,0,6.7,4.4,15.8,4.5s15.9-4.6,15.9-4.6"/>
		<path class="st1" d="M23.8,116c0,0,4.4,4.9,16.2,5.3c12.2,0.4,16.2-4.7,16.2-4.7"/>
		<path class="st1" d="M25.3,52.9c0,0,4.7,4.7,16.2,4.6c11.5-0.1,15.2-4.4,15.2-4.4"/>
		<path class="st1" d="M25.2,57.9c0,0,3.1,4.2,15.7,4.5c12.6,0.3,15.6-4.3,15.6-4.3"/>
	</g>
	<g>
		<line class="st2" x1="60.3" y1="188.7" x2="60.3" y2="196.7"/>
		<line class="st2" x1="60" y1="188.6" x2="60" y2="196.9"/>
		<g>
			<polygon class="st3" points="10.3,178.4 55.8,201.5 133.1,162.6 133.3,153.6 90.2,133.9 10.3,174.1 			"/>
			<polygon class="st3" points="10.3,179.1 10.4,170.4 55.9,192.6 55.7,201.5 			"/>
			<polygon class="st3" points="0.6,181.3 0.6,188.6 56,216.5 149.5,169.5 149.4,162 56,208.4 			"/>
			<polygon class="st4" points="55.6,208.4 149.6,162 94,135.1 0.8,180.7 			"/>
			<polygon class="st3" points="10.3,178.4 55.6,201.9 134.7,161.6 134.9,152.7 90.2,133.9 10.3,174.1 			"/>
			<polygon class="st5" points="10.3,179.1 10.4,170.4 55.6,193.2 55.6,201.9 			"/>
			<polygon class="st5" points="0.9,180.7 0.9,189.5 55.6,216.9 149.5,169.2 149.6,162 55.6,208.4 			"/>
			<path class="st6" d="M10.5,170.4l45,22.9l79.6-40.7l-45.6-22.1L10.5,170.4z"/>
			<g>
				<polygon class="st7" points="32.7,174.1 55.6,185.6 55.6,175 32.3,163.7 				"/>
				<polygon class="st8" points="55.6,185.5 120.9,153 121.3,143.8 55.6,175.1 				"/>
				<line class="st9" x1="32.3" y1="163.6" x2="96.6" y2="130.8"/>
				<line class="st10" x1="56.7" y1="172.4" x2="114.6" y2="145.1"/>
				<path class="st11" d="M39.2,162.7c-0.4-0.7,56.2-29.8,56.2-29.8"/>
				<g>
					<polygon class="st12" points="55,172.4 56.2,171.6 55.2,170.6 53,170.4 51.8,171.2 52.8,172.2 					"/>
					<path class="st12" d="M54.8,172l0.3-0.2c0.2-0.1,0.2-0.4,0.1-0.6L55,171c-0.1-0.1-0.2-0.1-0.3-0.1l-1.2-0.1
						c-0.1,0-0.2,0-0.3,0.1l-0.3,0.2c-0.2,0.1-0.2,0.4-0.1,0.6l0.2,0.2c0.1,0.1,0.2,0.1,0.3,0.1l1.2,0.1
						C54.6,172.1,54.7,172.1,54.8,172z"/>
				</g>
				<g>
					<polygon class="st12" points="114.3,143.7 115.5,142.9 114.5,141.9 112.3,141.7 111.1,142.5 112.1,143.5 					"/>
					<path class="st12" d="M114.1,143.3l0.3-0.2c0.2-0.1,0.2-0.4,0.1-0.6l-0.2-0.2c-0.1-0.1-0.2-0.1-0.3-0.1l-1.2-0.1
						c-0.1,0-0.2,0-0.3,0.1l-0.3,0.2c-0.2,0.1-0.2,0.4-0.1,0.6l0.2,0.2c0.1,0.1,0.2,0.1,0.3,0.1l1.2,0.1
						C113.9,143.4,114,143.4,114.1,143.3z"/>
				</g>
				<g>
					<polygon class="st12" points="44.7,164.1 45.8,163.3 44.8,162.3 42.7,162.1 41.6,162.9 42.6,163.9 					"/>
					<path class="st12" d="M44.4,163.7l0.3-0.2c0.2-0.1,0.2-0.4,0.1-0.6l-0.2-0.2c-0.1-0.1-0.2-0.1-0.2-0.1l-1.1-0.1
						c-0.1,0-0.2,0-0.3,0.1l-0.3,0.2c-0.2,0.1-0.2,0.4-0.1,0.6l0.2,0.2c0.1,0.1,0.2,0.1,0.2,0.1l1.1,0.1
						C44.3,163.8,44.4,163.7,44.4,163.7z"/>
				</g>
				<polygon class="st13" points="27.3,171.3 55.6,185.5 55.6,175 27.3,160.8 				"/>
				<polygon class="st13" points="55.6,185.5 121.4,153 121.2,142.7 55.6,175.1 				"/>
				<path class="st13" d="M97.4,136.6l5.8-2.9c0,0-0.5,1.6,0.8,2.2c1.3,0.6,3.6-0.2,3.6-0.2l-7.9,3.5L97.4,136.6z"/>
				<g>
					<path class="st14" d="M53.8,164.3c0.2-0.1,0.1-0.9,0.1-0.9l1-0.4c0,0,5.5,0.5,7.4,0.4c1.5,0,4.1-0.3,5.8-1.4s2.1-1.9,2.1-1.9
						l0.5-0.5l1.4-0.7c0,0-0.1,0.2,1,0c1-0.2,2.8-1.1,2.8-1.1l2.3-1.3c0,0,0.8-0.7,0.8-0.9s0.5,0.2,0.7,0.1c0.2,0,2.1-1.2,2.3-1.2
						c0.2,0,0.7-0.5,0.7-0.6l0.8,0.1c0,0,1.8-1,2.3-1.3c0.1-0.1,0.2-0.7,0.2-0.7s0.5,0.3,0.6,0.2l2.4-1.2l0.5-0.6l0.4,0.2l3.8-2
						l0.5-0.2c0,0,0.4-0.4,0.6-0.5l0.4,0.1l3.2-1.8c0.1-0.1,4.2-1.5,1.1-8c-2.8-5.9-6.7-4.7-7.7-4.5c-0.7,0.1-2.6,1-3,1.3
						c-0.1,0.1-0.2,0.4-0.3,0.5c-0.1,0-0.3-0.1-0.4-0.1c-0.8,0.3-3.8,1.8-4.5,2.3c-0.1,0.1-0.1,0.4-0.1,0.4s-0.4,0-0.6,0
						c-0.4,0.1-1.8,0.8-2.7,1.2c-0.1,0-0.1,0.5-0.1,0.5s-0.5,0-0.6,0c-0.5,0.1-2.5,1.2-2.5,1.2c-0.1,0-0.1,0.1-0.1,0.1
						c-0.1,0.1-0.1,0.4,0,0.5l0,0c0,0-0.7-0.2-0.8-0.2c-0.5,0.2-2.3,1-2.9,1.4c-0.1,0,0,0.4-0.2,0.5s-0.5,0-0.6,0
						c-0.9,0.2-5.1,2.4-5.1,2.4l-1.1,1.2l-1.7,0.9l-1.1,0.1c0,0-3.2,0.6-5.6,3.1c-2.4,2.5-5.2,7.2-5.2,7.2l-0.7,0.5
						c0,0-0.2,0.2-0.4,0.2c-0.1,0-0.4-0.4-0.6-0.3c-0.2,0.1,0,0.8-0.2,0.9c-0.4,0.3-1.8,0.9-1.8,0.9l-1,0.5c0,0,0.8,0,1.6,1.8
						c1,2.1,0.7,2.9,0.7,2.9l2.4-1.3l0.6-0.1C53.1,164,53.6,164.4,53.8,164.3z"/>
					<path class="st15" d="M53.5,164.3c0,0-0.1-2.6-2.8-5.5"/>
					<path class="st9" d="M51.1,158.6c2.6,2.9,2.7,5.4,2.7,5.4"/>
					<path class="st14" d="M50.1,165.6c-0.4,0.2-1.4-0.9-1.9-2.1c-0.6-1.2-0.7-2.4-0.3-2.6c0.4-0.2,1.2,0.6,1.8,1.8
						C50.3,164,50.5,165.4,50.1,165.6z"/>
					<path class="st16" d="M49,163"/>
					<path class="st16" d="M60.4,148.2"/>
					<path class="st9" d="M78.9,155.5c0,0,0.5-2.4-1.7-6.8c-2.2-4.6-4.5-5.5-4.5-5.5"/>
					<path class="st9" d="M82.4,154c0,0,0.8-2.2-1.3-6.7c-2.2-4.6-4.6-5.6-4.6-5.6"/>
					<path class="st9" d="M89.3,150.5c0,0,1-2.6-1.1-7c-2.2-4.6-4.9-5.1-4.9-5.1"/>
					<path class="st9" d="M85.7,152.1c0,0,0.9-2.4-1.2-6.8c-2.2-4.6-4.7-5.3-4.7-5.3"/>
					<path class="st9" d="M94.3,148.1c0,0,1-2.6-1.2-7.2c-2.3-4.7-5-5.3-5-5.3"/>
					<path class="st9" d="M70.1,159.7c0,0-0.6-3.9-1.8-6.7c-1.2-2.9-4.1-5.3-4.1-5.3"/>
					<path class="st9" d="M71.9,158.8c0,0-0.2-3.6-1.6-6.6c-1.4-3-4.4-5.3-4.4-5.3"/>
				</g>
				<path class="st7" d="M107,135.6l-7.6,3.8c0.7,2,0.8,3.4,0.5,4.5c-0.5,2.1-2.3,2.8-2.3,2.8l-2.9,1.5l-0.4-0.2
					c-0.2,0.1-0.3,0.4-0.3,0.4l-4.3,2.3l-0.6-0.1l-0.6,0.6l-2.4,1.2c-0.1,0.1-0.5-0.2-0.5-0.2s-0.2,0.6-0.3,0.7
					c-0.5,0.3-2.3,1.3-2.3,1.3l-0.7-0.2c0,0.1-0.6,0.7-0.8,0.7c-0.2,0-2.1,1.1-2.3,1.1c-0.2,0-0.6-0.3-0.7-0.1
					c0,0.2-0.5,0.7-0.5,0.7l-2.7,1.6c0,0-1.8,0.8-2.8,1.1c-1,0.2-1,0-1,0l-1.4,0.7l-0.5,0.5c0,0-0.4,0.8-2.1,1.9
					c-1.7,1.1-4.3,1.4-5.8,1.4c-1.8,0-7.4-0.4-7.4-0.4l-1,0.4c0,0,0.1,0.8-0.1,0.9c-0.2,0.1-0.7-0.3-0.7-0.3l-0.6,0.1l-2.4,1.3
					c0,0-0.5-0.5-1.6-2.7c-0.8-1.7-0.7-2-0.7-2l1-0.5c0,0,1.3-0.6,1.8-0.9c0.2-0.1,0-0.8,0.2-0.9c0.2-0.1,0.5,0.3,0.6,0.3
					c0.1,0,0.4-0.2,0.4-0.2l0.7-0.5c0,0,2.8-4.7,5.2-7.2c2.4-2.5,5.6-3.1,5.6-3.1l1.1-0.1l1.7-0.9l1.1-1.2c0,0,4.2-2.3,5.1-2.4
					c0.1,0,0.4,0.1,0.6,0c0.2-0.1,0.1-0.4,0.2-0.5c0.6-0.4,2.3-1.2,2.9-1.4c0.1-0.1,0.8,0.2,0.8,0.2l0,0c-0.1-0.1-0.1-0.4,0-0.5
					l0.1-0.1c0,0,2-1.1,2.5-1.2c0.1,0,0.6,0,0.6,0s0-0.4,0.1-0.5c0.9-0.4,2.3-1.1,2.7-1.2c0.1,0,0.6,0,0.6,0s0-0.3,0.1-0.4
					c0.6-0.5,3.6-2,4.5-2.3c0.1,0,0.3,0.1,0.4,0.1c0.1,0,0.2-0.4,0.3-0.5c0.4-0.3,2.3-1.2,3-1.3c0.9-0.2,3.9-0.2,6.7,2.4l5.3-2.7
					l-10.5-5.8l-65.2,32.9l28.3,14.4l65.5-32.7L107,135.6z"/>
				<line class="st17" x1="60.2" y1="169.3" x2="109.3" y2="144.9"/>
				<line class="st17" x1="40" y1="157.6" x2="88.8" y2="132.7"/>
				<g>
					<polygon class="st12" points="93.9,131.9 95,131.1 94,130.1 91.9,129.9 90.8,130.7 91.8,131.7 					"/>
					<path class="st18" d="M93.6,131.5l0.3-0.2c0.2-0.1,0.2-0.4,0.1-0.6l-0.2-0.2c-0.1-0.1-0.2-0.1-0.2-0.1l-1.1-0.1
						c-0.1,0-0.2,0-0.3,0.1l-0.3,0.2c-0.2,0.1-0.2,0.4-0.1,0.6l0.2,0.2c0.1,0.1,0.2,0.1,0.2,0.1l1.1,0.1
						C93.5,131.6,93.6,131.6,93.6,131.5z"/>
				</g>
				<g>
					<polygon class="st12" points="114.1,142.4 115.3,141.6 114.3,140.6 112.1,140.4 111,141.2 112,142.2 					"/>
					<path class="st18" d="M113.9,142l0.3-0.2c0.2-0.1,0.2-0.4,0.1-0.6l-0.2-0.2c-0.1-0.1-0.2-0.1-0.3-0.1l-1.2-0.1
						c-0.1,0-0.2,0-0.3,0.1l-0.3,0.2c-0.2,0.1-0.2,0.4-0.1,0.6l0.2,0.2c0.1,0.1,0.2,0.1,0.3,0.1l1.2,0.1
						C113.7,142.1,113.8,142.1,113.9,142z"/>
				</g>
				<g>
					<polygon class="st12" points="56,171.1 57.1,170.3 56.1,169.2 54,169 52.8,169.9 53.8,170.9 					"/>
					<path class="st18" d="M55.8,170.7l0.3-0.2c0.2-0.1,0.2-0.4,0.1-0.6l-0.2-0.2c-0.1-0.1-0.2-0.1-0.3-0.1l-1.2-0.1
						c-0.1,0-0.2,0-0.3,0.1l-0.3,0.2c-0.2,0.1-0.2,0.4-0.1,0.6l0.2,0.2c0.1,0.1,0.2,0.1,0.3,0.1l1.2,0.1
						C55.6,170.8,55.7,170.7,55.8,170.7z"/>
				</g>
				<g>
					<polygon class="st12" points="39.9,162.4 41,161.5 40,160.5 37.9,160.3 36.7,161.1 37.7,162.2 					"/>
					<path class="st18" d="M39.6,162l0.3-0.2c0.2-0.1,0.2-0.4,0.1-0.6l-0.2-0.2c-0.1-0.1-0.2-0.1-0.3-0.1l-1.2-0.1
						c-0.1,0-0.2,0-0.3,0.1l-0.3,0.2c-0.2,0.1-0.2,0.4-0.1,0.6l0.2,0.2c0.1,0.1,0.2,0.1,0.3,0.1l1.2,0.1C39.5,162,39.6,162,39.6,162
						z"/>
				</g>
				<g>
					<path class="st19" d="M101.4,126.6l7.2,3.6c0,0,0.4-0.9,2.6,0c2.2,0.9,2.3,2.5,2.3,2.5l13.2,6.6l-0.7-67.9l-24.7-13.7
						L101.4,126.6z"/>
					<path class="st18" d="M104.7,122.1c0,0,1,1,1.8,1.8c0.8,0.9,1.6,1.2,1.6,1.2s2.6,0.1,3.7,0.6c1.1,0.5,1.8,1.1,1.9,1.5
						c0,0.1,0.8,0.1,0.8,0.1s3.7,0,5.8-1.7c0.1-0.1,0.2-0.2,0.2-0.3c0,0-2.2-2.6-4.3-3.7c-1.1-0.6-5.1-1.5-6.9-1.7
						C107,119.8,104.7,122.1,104.7,122.1z"/>
					<path class="st7" d="M127,139.4l0.1-69.6L98.4,55.1l-0.1,70l10.9,5.6l0.1-5.5c-2.6-1-4.1-3-4.3-3.9c-0.2-0.7-0.3-2.8-0.2-3.3
						c0-0.1,0.3-0.3,0.3-0.4s-0.3-0.2-0.3-0.3c-0.1-0.9-0.1-4.2,0-5c0-0.1,0.3-0.2,0.3-0.2s-0.2-0.4-0.2-0.5c-0.1-0.4-0.1-2-0.1-3
						c0-0.1,0.3-0.3,0.3-0.3s-0.2-0.4-0.3-0.6c-0.1-0.5,0-2.8,0-2.8c0-0.1,0-0.1,0-0.2c0.1-0.2,0.3-0.3,0.4-0.2l0,0
						c0,0-0.5-0.5-0.5-0.7c-0.1-0.6-0.1-2.5-0.1-3.2c0-0.1,0.3-0.2,0.3-0.4s-0.2-0.4-0.3-0.5c-0.3-0.9-0.1-5.6-0.1-5.6l0.8-1.1v-1.5
						l-0.6-1.7c0,0-0.9-3.3,0.3-6.6c1.2-3.3,4.1-6.8,4.1-6.8l0.1-0.9c0,0,0.1-0.3,0-0.4c-0.1-0.1-0.6-0.2-0.5-0.4
						c0-0.3,0.7-0.3,0.8-0.6c0.1-0.5,0-2,0-2l0.2-1.3c0,0,3.5,0,5.2,1.7l-0.1,3.4v0.3c0,0,0.3,0.4,0.3,0.6s-0.6,0.3-0.6,0.3v0.4
						c0,0,2.3,4.2,3.1,5.8c0.7,1.3,2,4.6,1.8,6.6s-0.8,2.5-0.8,2.5l-0.2,1.5l0.2,1.2c0,0,0.2,0.4,0.4,1.4c0.3,1,0.3,3,0.3,3
						l-0.1,2.7c0,0-0.3,1-0.4,1.1c-0.1,0.1,0.4,0.4,0.4,0.5c0,0.2-0.1,2.4,0,2.6c0.1,0.2-0.1,0.8-0.2,0.9l0.4,0.7c0,0-0.1,2-0.1,2.6
						c0,0.2-0.5,0.5-0.5,0.5s0.5,0.3,0.5,0.4v2.7l-0.3,0.8l0.3,0.3l-0.1,4.3l0.1,0.5c0,0-0.2,0.5-0.2,0.7l0.3,0.3l-0.4,4
						c0,0-0.8,2.9-6,1.4l-0.1,5.9L127,139.4z"/>
					<line class="st17" x1="101.5" y1="118.5" x2="101.9" y2="67.9"/>
					<line class="st17" x1="123" y1="126.8" x2="123" y2="77.6"/>
					<polygon class="st19" points="127,69.6 127,139.4 136.1,135 136.2,65.2 					"/>
					<polygon class="st20" points="98.4,55.1 127,69.7 136.4,65.1 107.6,50.5 					"/>
					<g>
						<g>
							<polygon class="st12" points="100.4,60.2 101.5,61.1 102.3,62.9 101.9,63.8 100.7,62.9 99.9,61.1 							"/>
							<polygon class="st12" points="101.9,63.9 102.8,63.4 103.1,62.5 102.5,60.7 101.3,59.8 100.4,60.1 101.6,61.1 102.3,62.9 
															"/>
						</g>
						<g>
							<path class="st18" d="M100.7,63.2l0.6-0.3c0,0,0.3-0.3,0-1c-0.3-0.8-0.8-0.7-0.8-0.7l-0.6,0.3L100.7,63.2z"/>
							<path class="st18" d="M99.9,61.5c0.2-0.1,0.6,0.2,0.8,0.7c0.2,0.5,0.2,1,0,1.1c-0.2,0.1-0.5-0.2-0.8-0.7
								C99.7,62,99.7,61.6,99.9,61.5z"/>
							<path class="st18" d="M100.7,63.2c0,0-0.8,0.4-1.2-0.6c-0.4-0.9,0.4-1.2,0.4-1.2"/>
						</g>
					</g>
					<g>
						<g>
							<polygon class="st12" points="121.3,70.4 122.4,71.4 123.2,73.2 122.8,74.1 121.6,73.2 120.9,71.4 							"/>
							<polygon class="st12" points="122.8,74.1 123.7,73.7 124.1,72.8 123.4,71 122.2,70.1 121.3,70.4 122.5,71.4 123.2,73.2 
															"/>
						</g>
						<g>
							<path class="st18" d="M121.6,73.5l0.6-0.3c0,0,0.3-0.3,0-1s-0.8-0.7-0.8-0.7l-0.6,0.3L121.6,73.5z"/>
							<path class="st18" d="M120.8,71.8c0.2-0.1,0.6,0.2,0.8,0.7s0.2,1,0,1.1c-0.2,0.1-0.5-0.2-0.8-0.7
								C120.6,72.3,120.6,71.8,120.8,71.8z"/>
							<path class="st18" d="M121.6,73.5c0,0-0.8,0.4-1.2-0.6c-0.4-0.9,0.4-1.2,0.4-1.2"/>
						</g>
					</g>
					<g>
						<g>
							<polygon class="st12" points="121.9,132 123.1,132.9 123.9,134.8 123.5,135.7 122.3,134.8 121.5,132.9 							"/>
							<polygon class="st12" points="123.5,135.7 124.4,135.3 124.8,134.3 124,132.5 122.9,131.6 121.9,132 123.1,132.9 
								123.9,134.8 							"/>
						</g>
						<g>
							<path class="st18" d="M122.3,135.1l0.6-0.3c0,0,0.3-0.3,0-1c-0.3-0.8-0.8-0.7-0.8-0.7l-0.6,0.3L122.3,135.1z"/>
							<path class="st18" d="M121.5,133.3c0.2-0.1,0.6,0.2,0.8,0.7s0.2,1,0,1.1c-0.2,0.1-0.5-0.2-0.8-0.7
								C121.3,133.9,121.3,133.4,121.5,133.3z"/>
							<path class="st18" d="M122.3,135.1c0,0-0.8,0.4-1.2-0.6c-0.4-1,0.4-1.2,0.4-1.2"/>
						</g>
					</g>
					<g>
						<g>
							<polygon class="st12" points="100.8,122.6 102,123.5 102.8,125.4 102.4,126.3 101.2,125.4 100.4,123.5 							"/>
							<polygon class="st12" points="102.4,126.3 103.2,125.9 103.6,124.9 102.8,123.1 101.7,122.2 100.8,122.6 102,123.5 
								102.8,125.4 							"/>
						</g>
						<g>
							<path class="st18" d="M101.2,125.7l0.6-0.3c0,0,0.3-0.3,0-1c-0.3-0.8-0.8-0.7-0.8-0.7l-0.6,0.3L101.2,125.7z"/>
							<path class="st18" d="M100.4,123.9c0.2-0.1,0.6,0.2,0.8,0.7c0.2,0.5,0.2,1,0,1.1c-0.2,0.1-0.5-0.2-0.8-0.7
								C100.2,124.5,100.2,124,100.4,123.9z"/>
							<path class="st18" d="M101.2,125.7c0,0-0.8,0.4-1.2-0.6c-0.4-1,0.4-1.2,0.4-1.2"/>
						</g>
					</g>
				</g>
			</g>
		</g>
		<line class="st21" x1="55.3" y1="208.2" x2="55.3" y2="216.9"/>
	</g>
</g>
</svg>
