<?xml version="1.0" encoding="utf-8"?>
<!-- Generator: Adobe Illustrator 25.2.3, SVG Export Plug-In . SVG Version: 6.00 Build 0)  -->
<svg version="1.1" id="Layer_1" xmlns="http://www.w3.org/2000/svg" xmlns:xlink="http://www.w3.org/1999/xlink" x="0px" y="0px"
	 viewBox="0 0 325.2 293.3" style="enable-background:new 0 0 325.2 293.3;" xml:space="preserve">
<style type="text/css">
	.st0{fill:#B79797;}
	.st1{fill:#CCB9B9;stroke:#FFFFFF;stroke-width:0.4795;stroke-linejoin:bevel;stroke-miterlimit:10;}
	.st2{fill:#CCB9B9;stroke:#FFFFFF;stroke-width:0.5;stroke-linejoin:bevel;stroke-miterlimit:10;}
	.st3{fill:#CCB9B9;stroke:#FFFFFF;stroke-width:0.5;stroke-miterlimit:10;}
	.st4{fill:#E4DAD8;stroke:#FFFFFF;stroke-width:0.5;stroke-miterlimit:10;}
	.st5{fill:#E4DAD8;stroke:#FFFFFF;stroke-width:0.5;stroke-linejoin:bevel;stroke-miterlimit:10;}
	.st6{fill:#CCB9B9;}
	.st7{fill:#E4DAD8;}
	.st8{fill:#543C52;}
	.st9{fill:none;stroke:#543C52;stroke-width:0.5;stroke-linecap:round;stroke-miterlimit:10;}
	.st10{fill:#B79797;stroke:#FFFFFF;stroke-width:0.5;stroke-miterlimit:10;}
	.st11{fill:#F77441;stroke:#F7F3F2;stroke-width:0.5;stroke-miterlimit:10;}
	.st12{fill:none;stroke:#FFFFFF;stroke-width:0.5;stroke-miterlimit:10;}
	.st13{fill:none;stroke:#FFFFFF;stroke-width:0.496;stroke-miterlimit:10;}
	.st14{fill:#F77441;stroke:#FFFFFF;stroke-width:0.496;stroke-miterlimit:10;}
	.st15{fill:#DC3359;stroke:#FFFFFF;stroke-width:0.5;stroke-miterlimit:10;}
	.st16{fill:#361D32;stroke:#FFFFFF;stroke-width:0.5;stroke-linejoin:bevel;stroke-miterlimit:10;}
	.st17{fill:none;stroke:#B71148;stroke-width:2.8771;stroke-linecap:round;stroke-miterlimit:10;}
	.st18{fill:#B71148;}
	.st19{fill:#CCB9B9;stroke:#FFFFFF;stroke-width:0.7908;stroke-miterlimit:10;}
	.st20{fill:#F77441;stroke:#FFFFFF;stroke-width:0.5;stroke-miterlimit:10;}
	.st21{fill:#361D32;stroke:#FFFFFF;stroke-width:0.2146;stroke-miterlimit:10;}
	.st22{fill:none;stroke:#361D32;stroke-width:0.1397;stroke-miterlimit:10;}
	.st23{fill:#361D32;stroke:#FFFFFF;stroke-width:0.25;stroke-miterlimit:10;}
	.st24{fill:#E4DAD8;stroke:#FFFFFF;stroke-width:0.25;stroke-miterlimit:10;}
	.st25{fill:none;stroke:#FFFFFF;stroke-width:0.8947;stroke-miterlimit:10;}
	.st26{fill:#E4DAD8;stroke:#FFFFFF;stroke-width:0.1542;stroke-miterlimit:10;}
	.st27{fill:#E4DAD8;stroke:#FFFFFF;stroke-width:0.123;stroke-miterlimit:10;}
</style>
<g>
	<g>
		<path class="st0" d="M194.5,70.6c0,0-0.7,1.9,0.7,1.6c1.3-0.4,3.6-1.6,2-1.8C195.6,70.3,194.5,70.6,194.5,70.6"/>
		<path class="st0" d="M197.4,64.7c0,0-0.6,2,0.7,1.5c1.3-0.4,3.6-1.8,1.9-1.9C198.4,64.3,197.4,64.7,197.4,64.7"/>
		<path class="st0" d="M195,67.2c0,0-0.5,2,0.8,1.5c1.3-0.5,3.5-1.9,1.9-1.9C196.1,66.8,195,67.2,195,67.2"/>
		<path class="st0" d="M199.6,69.7c0,0-0.6,2,0.7,1.5c1.3-0.4,3.6-1.8,1.9-1.8C200.7,69.3,199.6,69.7,199.6,69.7"/>
		<path class="st0" d="M202,66.6c0,0-0.5,2,0.7,1.5c1.3-0.4,3.5-1.8,1.9-1.9C203.1,66.2,202,66.6,202,66.6"/>
		<path class="st0" d="M200.4,74.4c0,0-0.5,2,0.8,1.5c1.3-0.5,3.5-2,1.8-2C201.5,74,200.4,74.4,200.4,74.4"/>
		<path class="st0" d="M203.4,62.9c0,0-0.7,1.9,0.6,1.6c1.3-0.3,3.7-1.5,2.1-1.7C204.4,62.6,203.4,62.9,203.4,62.9"/>
		<path class="st0" d="M206.6,68.8c0,0-0.5,2,0.8,1.5c1.3-0.5,3.5-2,1.8-2C207.6,68.3,206.6,68.8,206.6,68.8"/>
		<path class="st0" d="M208.4,62.9c0,0-0.6,2,0.7,1.5c1.3-0.4,3.5-1.8,1.9-1.9C209.4,62.5,208.4,62.9,208.4,62.9"/>
		<path class="st0" d="M218.6,69.6c0,0,0,2.1,1.1,1.3c1.2-0.8,3-2.7,1.4-2.4C219.5,68.9,218.6,69.6,218.6,69.6"/>
		<path class="st0" d="M215.2,66.9c0,0-0.5,2,0.8,1.5c1.3-0.5,3.5-2,1.8-2C216.2,66.4,215.2,66.9,215.2,66.9"/>
		<path class="st0" d="M213.8,62.4c0,0-0.7,1.9,0.6,1.6c1.3-0.3,3.7-1.4,2.1-1.7C214.9,62.1,213.8,62.4,213.8,62.4"/>
		<path class="st0" d="M211.9,57.7c0,0-0.7,1.9,0.6,1.6c1.3-0.3,3.7-1.5,2.1-1.7C213,57.4,211.9,57.7,211.9,57.7"/>
		<path class="st0" d="M217.4,60.1c0,0-0.5,2,0.8,1.5c1.3-0.5,3.5-1.9,1.9-1.9C218.4,59.7,217.4,60.1,217.4,60.1"/>
		<path class="st0" d="M217.9,75.5c0,0,0.2,2.2,1.3,1.2c1.1-1,2.8-3.2,1.1-2.6C218.8,74.7,217.9,75.5,217.9,75.5"/>
		<path class="st0" d="M210.3,67.2c0,0-0.5,2,0.8,1.5c1.3-0.5,3.5-2,1.8-2C211.3,66.7,210.3,67.2,210.3,67.2"/>
		<path class="st0" d="M211.3,72.3c0,0-0.5,2,0.8,1.5c1.3-0.5,3.5-2,1.8-2C212.3,71.9,211.3,72.3,211.3,72.3"/>
		<path class="st0" d="M205.9,78.4c0,0-0.9,1.8,0.4,1.6c1.4-0.2,3.8-1.1,2.2-1.5C207,78.2,205.9,78.4,205.9,78.4"/>
		<path class="st0" d="M212.3,81.5c0,0-0.4,2.1,0.9,1.5c1.3-0.5,3.5-2.1,1.8-2C213.3,81,212.3,81.5,212.3,81.5"/>
		<path class="st0" d="M207,90c0,0-0.1,2.9,1.5,1.9c1.7-1,4.3-3.7,2-3.2C208.3,89.1,207,90,207,90"/>
		<path class="st0" d="M203,85.7c0,0-0.5,2,0.8,1.5c1.3-0.5,3.6-2,1.9-2C204,85.2,203,85.7,203,85.7"/>
		<path class="st0" d="M199.6,85.4c0,0-0.9,1.8,0.5,1.6c1.3-0.2,3.8-1.2,2.2-1.5C200.7,85.1,199.6,85.4,199.6,85.4"/>
		<path class="st0" d="M192.5,86.8c0,0-0.5,2,0.8,1.5c1.3-0.5,3.5-2,1.8-2C193.5,86.3,192.5,86.8,192.5,86.8"/>
		<path class="st0" d="M203.2,94.6c0,0-0.1,3.1,1.6,2c1.7-1.1,4.6-3.9,2.2-3.4C204.6,93.6,203.2,94.6,203.2,94.6"/>
		<path class="st0" d="M201.2,96.1c1.2-1.3,2.8-4.2,1-3.3c-1.8,1-2.7,2-2.7,2"/>
		<path class="st0" d="M213.6,87.3c0,0-1.4,1.5,0,1.7c1.4,0.2,4.1,0,2.6-0.8C214.8,87.4,213.6,87.3,213.6,87.3"/>
		<path class="st0" d="M210.1,92.8c0,0-0.8,2.3,0.7,1.9c1.6-0.4,4.3-1.8,2.4-2C211.4,92.4,210.1,92.8,210.1,92.8"/>
		<path class="st0" d="M192,82.1c0,0-0.5,2,0.8,1.5c1.3-0.5,3.5-2,1.8-2C193,81.7,192,82.1,192,82.1"/>
		<path class="st0" d="M187.5,79.2c0,0-0.8,1.9,0.5,1.6c1.3-0.3,3.8-1.3,2.2-1.6C188.6,79,187.5,79.2,187.5,79.2"/>
		<path class="st0" d="M224,54.3c0,0-2.5-0.9-0.9-1.6c1.5-0.7,4.8-1.5,3.5-0.2C225.3,53.8,224,54.3,224,54.3"/>
	</g>
	<g>
		<line class="st1" x1="95.9" y1="269.7" x2="95.8" y2="284.9"/>
		<polygon class="st2" points="162.7,149.5 219,178.1 218.7,134.7 162.6,106.2 		"/>
		<polygon class="st3" points="16.9,224.6 96.6,265 231.9,196.9 232.2,181.2 156.8,146.7 16.9,217.2 		"/>
		<polygon class="st3" points="16.9,225.8 17.1,210.5 96.7,249.5 96.4,265 		"/>
		<polygon class="st3" points="0.1,229.6 0.1,242.3 97.1,291.2 260.6,208.9 260.4,195.9 96.9,277.2 		"/>
		<path class="st4" d="M17.3,210.5c0,0,79.4,39.1,79.5,39L232,181.2l-79.9-38.6L17.3,210.5z"/>
		<polygon class="st4" points="96.4,277.2 260.7,195.9 163.5,148.7 0.4,228.6 		"/>
		<polygon class="st3" points="16.9,224.6 96.3,265.6 234.7,195.3 234.9,179.6 156.8,146.7 16.9,217.2 		"/>
		<polygon class="st2" points="16.9,225.8 17.1,210.5 96.3,250.5 96.2,265.7 		"/>
		<polygon class="st2" points="0.6,228.7 0.6,244 96.3,292.1 261.2,208.5 260.9,195.5 96.3,277.2 		"/>
		<path class="st5" d="M17.3,210.5c0,0,78.9,39.9,78.9,39.9l139.4-71.2l-79.9-38.6L17.3,210.5z"/>
		<g>
			<polygon class="st3" points="45.4,209.4 164.8,149 164.7,106.4 42.8,169.9 			"/>
		</g>
		<g>
			<g>
				<ellipse class="st6" cx="213.1" cy="148.7" rx="0.7" ry="0.3"/>
				<path class="st6" d="M212.4,147.9c0,0,0,0.8,0,0.9c0,0.1,1,0.4,1.4,0l0-0.9H212.4z"/>
				<ellipse class="st7" cx="213.1" cy="148" rx="0.7" ry="0.3"/>
			</g>
			<g>
				<ellipse class="st6" cx="211.7" cy="149.4" rx="0.7" ry="0.3"/>
				<path class="st6" d="M210.9,148.6c0,0,0,0.8,0,0.9c0,0.1,1,0.4,1.4,0l0-0.9H210.9z"/>
				<ellipse class="st7" cx="211.7" cy="148.7" rx="0.7" ry="0.3"/>
			</g>
			<g>
				<ellipse class="st6" cx="210.2" cy="150.1" rx="0.7" ry="0.3"/>
				<path class="st6" d="M209.5,149.3c0,0,0,0.8,0,0.9c0,0.1,1,0.4,1.4,0l0-0.9H209.5z"/>
				<ellipse class="st7" cx="210.2" cy="149.4" rx="0.7" ry="0.3"/>
			</g>
			<g>
				<ellipse class="st6" cx="208.8" cy="150.8" rx="0.7" ry="0.3"/>
				<path class="st6" d="M208.1,150.1c0,0,0,0.8,0,0.9c0,0.1,1,0.4,1.4,0l0-0.9H208.1z"/>
				<ellipse class="st7" cx="208.8" cy="150.1" rx="0.7" ry="0.3"/>
			</g>
			<g>
				<ellipse class="st6" cx="207.4" cy="151.5" rx="0.7" ry="0.3"/>
				<path class="st6" d="M206.6,150.8c0,0,0,0.8,0,0.9c0,0.1,1,0.4,1.4,0l0-0.9H206.6z"/>
				<ellipse class="st7" cx="207.4" cy="150.8" rx="0.7" ry="0.3"/>
			</g>
			<g>
				<ellipse class="st6" cx="205.9" cy="152.2" rx="0.7" ry="0.3"/>
				<path class="st6" d="M205.2,151.5c0,0,0,0.8,0,0.9s1,0.4,1.4,0l0-0.9H205.2z"/>
				<ellipse class="st7" cx="205.9" cy="151.5" rx="0.7" ry="0.3"/>
			</g>
			<g>
				<ellipse class="st6" cx="204.5" cy="152.9" rx="0.7" ry="0.3"/>
				<path class="st6" d="M203.7,152.2c0,0,0,0.8,0,0.9s1,0.4,1.4,0l0-0.9H203.7z"/>
				<ellipse class="st7" cx="204.5" cy="152.2" rx="0.7" ry="0.3"/>
			</g>
			<g>
				<ellipse class="st6" cx="203" cy="153.7" rx="0.7" ry="0.3"/>
				<path class="st6" d="M202.3,152.9c0,0,0,0.8,0,0.9c0,0.1,1,0.4,1.4,0l0-0.9H202.3z"/>
				<ellipse class="st7" cx="203" cy="152.9" rx="0.7" ry="0.3"/>
			</g>
			<g>
				<ellipse class="st6" cx="201.6" cy="154.4" rx="0.7" ry="0.3"/>
				<path class="st6" d="M200.9,153.6c0,0,0,0.8,0,0.9c0,0.1,1,0.4,1.4,0l0-0.9H200.9z"/>
				<ellipse class="st7" cx="201.6" cy="153.6" rx="0.7" ry="0.3"/>
			</g>
			<g>
				<ellipse class="st6" cx="200.2" cy="155.1" rx="0.7" ry="0.3"/>
				<path class="st6" d="M199.4,154.3c0,0,0,0.8,0,0.9c0,0.1,1,0.4,1.4,0l0-0.9H199.4z"/>
				<ellipse class="st7" cx="200.2" cy="154.4" rx="0.7" ry="0.3"/>
			</g>
			<g>
				<ellipse class="st6" cx="198.7" cy="155.8" rx="0.7" ry="0.3"/>
				<path class="st6" d="M198,155c0,0,0,0.8,0,0.9c0,0.1,1,0.4,1.4,0l0-0.9H198z"/>
				<ellipse class="st7" cx="198.7" cy="155.1" rx="0.7" ry="0.3"/>
			</g>
			<g>
				<ellipse class="st6" cx="197.3" cy="156.5" rx="0.7" ry="0.3"/>
				<path class="st6" d="M196.5,155.7c0,0,0,0.8,0,0.9c0,0.1,1,0.4,1.4,0l0-0.9H196.5z"/>
				<ellipse class="st7" cx="197.3" cy="155.8" rx="0.7" ry="0.3"/>
			</g>
			<g>
				<ellipse class="st6" cx="195.8" cy="157.2" rx="0.7" ry="0.3"/>
				<path class="st6" d="M195.1,156.5c0,0,0,0.8,0,0.9c0,0.1,1,0.4,1.4,0l0-0.9H195.1z"/>
				<ellipse class="st7" cx="195.8" cy="156.5" rx="0.7" ry="0.3"/>
			</g>
			<g>
				<ellipse class="st6" cx="194.4" cy="157.9" rx="0.7" ry="0.3"/>
				<path class="st6" d="M193.7,157.2c0,0,0,0.8,0,0.9s1,0.4,1.4,0l0-0.9H193.7z"/>
				<ellipse class="st7" cx="194.4" cy="157.2" rx="0.7" ry="0.3"/>
			</g>
			<g>
				<ellipse class="st6" cx="193" cy="158.6" rx="0.7" ry="0.3"/>
				<path class="st6" d="M192.2,157.9c0,0,0,0.8,0,0.9s1,0.4,1.4,0l0-0.9H192.2z"/>
				<ellipse class="st7" cx="193" cy="157.9" rx="0.7" ry="0.3"/>
			</g>
			<g>
				<ellipse class="st6" cx="191.5" cy="159.3" rx="0.7" ry="0.3"/>
				<path class="st6" d="M190.8,158.6c0,0,0,0.8,0,0.9c0,0.1,1,0.4,1.4,0l0-0.9H190.8z"/>
				<ellipse class="st7" cx="191.5" cy="158.6" rx="0.7" ry="0.3"/>
			</g>
			<g>
				<ellipse class="st6" cx="190.1" cy="160.1" rx="0.7" ry="0.3"/>
				<path class="st6" d="M189.3,159.3c0,0,0,0.8,0,0.9c0,0.1,1,0.4,1.4,0l0-0.9H189.3z"/>
				<ellipse class="st7" cx="190.1" cy="159.3" rx="0.7" ry="0.3"/>
			</g>
			<g>
				<ellipse class="st6" cx="188.6" cy="160.8" rx="0.7" ry="0.3"/>
				<path class="st6" d="M187.9,160c0,0,0,0.8,0,0.9c0,0.1,1,0.4,1.4,0l0-0.9H187.9z"/>
				<ellipse class="st7" cx="188.6" cy="160" rx="0.7" ry="0.3"/>
			</g>
			<g>
				<ellipse class="st6" cx="187.2" cy="161.5" rx="0.7" ry="0.3"/>
				<path class="st6" d="M186.5,160.7c0,0,0,0.8,0,0.9c0,0.1,1,0.4,1.4,0l0-0.9H186.5z"/>
				<ellipse class="st7" cx="187.2" cy="160.8" rx="0.7" ry="0.3"/>
			</g>
			<g>
				<ellipse class="st6" cx="185.7" cy="162.2" rx="0.7" ry="0.3"/>
				<path class="st6" d="M185,161.4c0,0,0,0.8,0,0.9c0,0.1,1,0.4,1.4,0l0-0.9H185z"/>
				<ellipse class="st7" cx="185.7" cy="161.5" rx="0.7" ry="0.3"/>
			</g>
			<g>
				<ellipse class="st6" cx="184.3" cy="162.9" rx="0.7" ry="0.3"/>
				<path class="st6" d="M183.6,162.1c0,0,0,0.8,0,0.9c0,0.1,1,0.4,1.4,0l0-0.9H183.6z"/>
				<ellipse class="st7" cx="184.3" cy="162.2" rx="0.7" ry="0.3"/>
			</g>
			<g>
				<ellipse class="st6" cx="182.9" cy="163.6" rx="0.7" ry="0.3"/>
				<path class="st6" d="M182.1,162.9c0,0,0,0.8,0,0.9s1,0.4,1.4,0l0-0.9H182.1z"/>
				<ellipse class="st7" cx="182.9" cy="162.9" rx="0.7" ry="0.3"/>
			</g>
			<g>
				<ellipse class="st6" cx="181.4" cy="164.3" rx="0.7" ry="0.3"/>
				<path class="st6" d="M180.7,163.6c0,0,0,0.8,0,0.9s1,0.4,1.4,0l0-0.9H180.7z"/>
				<ellipse class="st7" cx="181.4" cy="163.6" rx="0.7" ry="0.3"/>
			</g>
			<g>
				<ellipse class="st6" cx="180" cy="165" rx="0.7" ry="0.3"/>
				<path class="st6" d="M179.3,164.3c0,0,0,0.8,0,0.9c0,0.1,1,0.4,1.4,0l0-0.9H179.3z"/>
				<ellipse class="st7" cx="180" cy="164.3" rx="0.7" ry="0.3"/>
			</g>
			<g>
				<ellipse class="st6" cx="178.5" cy="165.7" rx="0.7" ry="0.3"/>
				<path class="st6" d="M177.8,165c0,0,0,0.8,0,0.9c0,0.1,1,0.4,1.4,0l0-0.9H177.8z"/>
				<ellipse class="st7" cx="178.5" cy="165" rx="0.7" ry="0.3"/>
			</g>
			<g>
				<ellipse class="st6" cx="177.1" cy="166.5" rx="0.7" ry="0.3"/>
				<path class="st6" d="M176.4,165.7c0,0,0,0.8,0,0.9c0,0.1,1,0.4,1.4,0l0-0.9H176.4z"/>
				<ellipse class="st7" cx="177.1" cy="165.7" rx="0.7" ry="0.3"/>
			</g>
			<g>
				<ellipse class="st6" cx="175.7" cy="167.2" rx="0.7" ry="0.3"/>
				<path class="st6" d="M174.9,166.4c0,0,0,0.8,0,0.9c0,0.1,1,0.4,1.4,0l0-0.9H174.9z"/>
				<ellipse class="st7" cx="175.7" cy="166.4" rx="0.7" ry="0.3"/>
			</g>
			<g>
				<ellipse class="st6" cx="174.2" cy="167.9" rx="0.7" ry="0.3"/>
				<path class="st6" d="M173.5,167.1c0,0,0,0.8,0,0.9c0,0.1,1,0.4,1.4,0l0-0.9H173.5z"/>
				<ellipse class="st7" cx="174.2" cy="167.2" rx="0.7" ry="0.3"/>
			</g>
			<g>
				<ellipse class="st6" cx="172.8" cy="168.6" rx="0.7" ry="0.3"/>
				<path class="st6" d="M172.1,167.8c0,0,0,0.8,0,0.9c0,0.1,1,0.4,1.4,0l0-0.9H172.1z"/>
				<ellipse class="st7" cx="172.8" cy="167.9" rx="0.7" ry="0.3"/>
			</g>
			<g>
				<ellipse class="st6" cx="171.3" cy="169.3" rx="0.7" ry="0.3"/>
				<path class="st6" d="M170.6,168.5c0,0,0,0.8,0,0.9s1,0.4,1.4,0l0-0.9H170.6z"/>
				<ellipse class="st7" cx="171.3" cy="168.6" rx="0.7" ry="0.3"/>
			</g>
			<g>
				<ellipse class="st6" cx="169.9" cy="170" rx="0.7" ry="0.3"/>
				<path class="st6" d="M169.2,169.2c0,0,0,0.8,0,0.9s1,0.4,1.4,0l0-0.9H169.2z"/>
				<ellipse class="st7" cx="169.9" cy="169.3" rx="0.7" ry="0.3"/>
			</g>
			<g>
				<ellipse class="st6" cx="168.5" cy="170.7" rx="0.7" ry="0.3"/>
				<path class="st6" d="M167.7,170c0,0,0,0.8,0,0.9c0,0.1,1,0.4,1.4,0l0-0.9H167.7z"/>
				<ellipse class="st7" cx="168.5" cy="170" rx="0.7" ry="0.3"/>
			</g>
			<g>
				<ellipse class="st6" cx="167" cy="171.4" rx="0.7" ry="0.3"/>
				<path class="st6" d="M166.3,170.7c0,0,0,0.8,0,0.9c0,0.1,1,0.4,1.4,0l0-0.9H166.3z"/>
				<ellipse class="st7" cx="167" cy="170.7" rx="0.7" ry="0.3"/>
			</g>
			<g>
				<ellipse class="st6" cx="165.6" cy="172.1" rx="0.7" ry="0.3"/>
				<path class="st6" d="M164.9,171.4c0,0,0,0.8,0,0.9c0,0.1,1,0.4,1.4,0l0-0.9H164.9z"/>
				<ellipse class="st7" cx="165.6" cy="171.4" rx="0.7" ry="0.3"/>
			</g>
			<g>
				<ellipse class="st6" cx="164.1" cy="172.9" rx="0.7" ry="0.3"/>
				<path class="st6" d="M163.4,172.1c0,0,0,0.8,0,0.9c0,0.1,1,0.4,1.4,0l0-0.9H163.4z"/>
				<ellipse class="st7" cx="164.1" cy="172.1" rx="0.7" ry="0.3"/>
			</g>
			<g>
				<ellipse class="st6" cx="162.7" cy="173.6" rx="0.7" ry="0.3"/>
				<path class="st6" d="M162,172.8c0,0,0,0.8,0,0.9c0,0.1,1,0.4,1.4,0l0-0.9H162z"/>
				<ellipse class="st7" cx="162.7" cy="172.8" rx="0.7" ry="0.3"/>
			</g>
			<g>
				<ellipse class="st6" cx="161.3" cy="174.3" rx="0.7" ry="0.3"/>
				<path class="st6" d="M160.5,173.5c0,0,0,0.8,0,0.9c0,0.1,1,0.4,1.4,0l0-0.9H160.5z"/>
				<ellipse class="st7" cx="161.3" cy="173.6" rx="0.7" ry="0.3"/>
			</g>
			<g>
				<ellipse class="st6" cx="159.8" cy="175" rx="0.7" ry="0.3"/>
				<path class="st6" d="M159.1,174.2c0,0,0,0.8,0,0.9c0,0.1,1,0.4,1.4,0l0-0.9H159.1z"/>
				<ellipse class="st7" cx="159.8" cy="174.3" rx="0.7" ry="0.3"/>
			</g>
			<g>
				<ellipse class="st6" cx="158.4" cy="175.7" rx="0.7" ry="0.3"/>
				<path class="st6" d="M157.7,174.9c0,0,0,0.8,0,0.9s1,0.4,1.4,0l0-0.9H157.7z"/>
				<ellipse class="st7" cx="158.4" cy="175" rx="0.7" ry="0.3"/>
			</g>
			<g>
				<ellipse class="st6" cx="156.9" cy="176.4" rx="0.7" ry="0.3"/>
				<path class="st6" d="M156.2,175.6c0,0,0,0.8,0,0.9c0,0.1,1,0.4,1.4,0l0-0.9H156.2z"/>
				<ellipse class="st7" cx="156.9" cy="175.7" rx="0.7" ry="0.3"/>
			</g>
			<g>
				<ellipse class="st6" cx="155.5" cy="177.1" rx="0.7" ry="0.3"/>
				<path class="st6" d="M154.8,176.4c0,0,0,0.8,0,0.9c0,0.1,1,0.4,1.4,0l0-0.9H154.8z"/>
				<ellipse class="st7" cx="155.5" cy="176.4" rx="0.7" ry="0.3"/>
			</g>
			<g>
				<ellipse class="st6" cx="154.1" cy="177.8" rx="0.7" ry="0.3"/>
				<path class="st6" d="M153.3,177.1c0,0,0,0.8,0,0.9c0,0.1,1,0.4,1.4,0l0-0.9H153.3z"/>
				<ellipse class="st7" cx="154.1" cy="177.1" rx="0.7" ry="0.3"/>
			</g>
			<g>
				<ellipse class="st6" cx="152.6" cy="178.5" rx="0.7" ry="0.3"/>
				<path class="st6" d="M151.9,177.8c0,0,0,0.8,0,0.9c0,0.1,1,0.4,1.4,0l0-0.9H151.9z"/>
				<ellipse class="st7" cx="152.6" cy="177.8" rx="0.7" ry="0.3"/>
			</g>
			<g>
				<ellipse class="st6" cx="151.2" cy="179.3" rx="0.7" ry="0.3"/>
				<path class="st6" d="M150.5,178.5c0,0,0,0.8,0,0.9c0,0.1,1,0.4,1.4,0l0-0.9H150.5z"/>
				<ellipse class="st7" cx="151.2" cy="178.5" rx="0.7" ry="0.3"/>
			</g>
			<g>
				<ellipse class="st6" cx="149.7" cy="180" rx="0.7" ry="0.3"/>
				<path class="st6" d="M149,179.2c0,0,0,0.8,0,0.9c0,0.1,1,0.4,1.4,0l0-0.9H149z"/>
				<ellipse class="st7" cx="149.7" cy="179.2" rx="0.7" ry="0.3"/>
			</g>
			<g>
				<ellipse class="st6" cx="148.3" cy="180.7" rx="0.7" ry="0.3"/>
				<path class="st6" d="M147.6,179.9c0,0,0,0.8,0,0.9c0,0.1,1,0.4,1.4,0l0-0.9H147.6z"/>
				<ellipse class="st7" cx="148.3" cy="180" rx="0.7" ry="0.3"/>
			</g>
			<g>
				<ellipse class="st6" cx="146.9" cy="181.4" rx="0.7" ry="0.3"/>
				<path class="st6" d="M146.1,180.6c0,0,0,0.8,0,0.9s1,0.4,1.4,0l0-0.9H146.1z"/>
				<ellipse class="st7" cx="146.9" cy="180.7" rx="0.7" ry="0.3"/>
			</g>
			<g>
				<ellipse class="st6" cx="145.4" cy="182.1" rx="0.7" ry="0.3"/>
				<path class="st6" d="M144.7,181.3c0,0,0,0.8,0,0.9c0,0.1,1,0.4,1.4,0l0-0.9H144.7z"/>
				<ellipse class="st7" cx="145.4" cy="181.4" rx="0.7" ry="0.3"/>
			</g>
			<g>
				<ellipse class="st6" cx="144" cy="182.8" rx="0.7" ry="0.3"/>
				<path class="st6" d="M143.3,182c0,0,0,0.8,0,0.9c0,0.1,1,0.4,1.4,0l0-0.9H143.3z"/>
				<ellipse class="st7" cx="144" cy="182.1" rx="0.7" ry="0.3"/>
			</g>
			<g>
				<ellipse class="st6" cx="142.5" cy="183.5" rx="0.7" ry="0.3"/>
				<path class="st6" d="M141.8,182.8c0,0,0,0.8,0,0.9c0,0.1,1,0.4,1.4,0l0-0.9H141.8z"/>
				<ellipse class="st7" cx="142.5" cy="182.8" rx="0.7" ry="0.3"/>
			</g>
			<g>
				<ellipse class="st6" cx="141.1" cy="184.2" rx="0.7" ry="0.3"/>
				<path class="st6" d="M140.4,183.5c0,0,0,0.8,0,0.9c0,0.1,1,0.4,1.4,0l0-0.9H140.4z"/>
				<ellipse class="st7" cx="141.1" cy="183.5" rx="0.7" ry="0.3"/>
			</g>
			<g>
				<ellipse class="st6" cx="139.7" cy="184.9" rx="0.7" ry="0.3"/>
				<path class="st6" d="M138.9,184.2c0,0,0,0.8,0,0.9c0,0.1,1,0.4,1.4,0l0-0.9H138.9z"/>
				<ellipse class="st7" cx="139.7" cy="184.2" rx="0.7" ry="0.3"/>
			</g>
			<g>
				<ellipse class="st6" cx="138.2" cy="185.7" rx="0.7" ry="0.3"/>
				<path class="st6" d="M137.5,184.9c0,0,0,0.8,0,0.9c0,0.1,1,0.4,1.4,0l0-0.9H137.5z"/>
				<ellipse class="st7" cx="138.2" cy="184.9" rx="0.7" ry="0.3"/>
			</g>
			<g>
				<ellipse class="st6" cx="136.8" cy="186.4" rx="0.7" ry="0.3"/>
				<path class="st6" d="M136.1,185.6c0,0,0,0.8,0,0.9c0,0.1,1,0.4,1.4,0l0-0.9H136.1z"/>
				<ellipse class="st7" cx="136.8" cy="185.6" rx="0.7" ry="0.3"/>
			</g>
			<g>
				<ellipse class="st6" cx="135.3" cy="187.1" rx="0.7" ry="0.3"/>
				<path class="st6" d="M134.6,186.3c0,0,0,0.8,0,0.9s1,0.4,1.4,0l0-0.9H134.6z"/>
				<ellipse class="st7" cx="135.3" cy="186.4" rx="0.7" ry="0.3"/>
			</g>
			<g>
				<ellipse class="st6" cx="133.9" cy="187.8" rx="0.7" ry="0.3"/>
				<path class="st6" d="M133.2,187c0,0,0,0.8,0,0.9c0,0.1,1,0.4,1.4,0l0-0.9H133.2z"/>
				<ellipse class="st7" cx="133.9" cy="187.1" rx="0.7" ry="0.3"/>
			</g>
			<g>
				<ellipse class="st6" cx="132.5" cy="188.5" rx="0.7" ry="0.3"/>
				<path class="st6" d="M131.7,187.7c0,0,0,0.8,0,0.9c0,0.1,1,0.4,1.4,0l0-0.9H131.7z"/>
				<ellipse class="st7" cx="132.5" cy="187.8" rx="0.7" ry="0.3"/>
			</g>
			<g>
				<ellipse class="st6" cx="131" cy="189.2" rx="0.7" ry="0.3"/>
				<path class="st6" d="M130.3,188.4c0,0,0,0.8,0,0.9c0,0.1,1,0.4,1.4,0l0-0.9H130.3z"/>
				<ellipse class="st7" cx="131" cy="188.5" rx="0.7" ry="0.3"/>
			</g>
			<g>
				<ellipse class="st6" cx="129.6" cy="189.9" rx="0.7" ry="0.3"/>
				<path class="st6" d="M128.9,189.2c0,0,0,0.8,0,0.9c0,0.1,1,0.4,1.4,0l0-0.9H128.9z"/>
				<ellipse class="st7" cx="129.6" cy="189.2" rx="0.7" ry="0.3"/>
			</g>
			<g>
				<ellipse class="st6" cx="128.1" cy="190.6" rx="0.7" ry="0.3"/>
				<path class="st6" d="M127.4,189.9c0,0,0,0.8,0,0.9c0,0.1,1,0.4,1.4,0l0-0.9H127.4z"/>
				<ellipse class="st7" cx="128.1" cy="189.9" rx="0.7" ry="0.3"/>
			</g>
			<g>
				<ellipse class="st6" cx="126.7" cy="191.3" rx="0.7" ry="0.3"/>
				<path class="st6" d="M126,190.6c0,0,0,0.8,0,0.9c0,0.1,1,0.4,1.4,0l0-0.9H126z"/>
				<ellipse class="st7" cx="126.7" cy="190.6" rx="0.7" ry="0.3"/>
			</g>
			<g>
				<ellipse class="st6" cx="125.3" cy="192.1" rx="0.7" ry="0.3"/>
				<path class="st6" d="M124.5,191.3c0,0,0,0.8,0,0.9c0,0.1,1,0.4,1.4,0l0-0.9H124.5z"/>
				<ellipse class="st7" cx="125.3" cy="191.3" rx="0.7" ry="0.3"/>
			</g>
			<g>
				<ellipse class="st6" cx="123.8" cy="192.8" rx="0.7" ry="0.3"/>
				<path class="st6" d="M123.1,192c0,0,0,0.8,0,0.9s1,0.4,1.4,0l0-0.9H123.1z"/>
				<ellipse class="st7" cx="123.8" cy="192" rx="0.7" ry="0.3"/>
			</g>
			<g>
				<ellipse class="st6" cx="122.4" cy="193.5" rx="0.7" ry="0.3"/>
				<path class="st6" d="M121.7,192.7c0,0,0,0.8,0,0.9c0,0.1,1,0.4,1.4,0l0-0.9H121.7z"/>
				<ellipse class="st7" cx="122.4" cy="192.8" rx="0.7" ry="0.3"/>
			</g>
			<g>
				<ellipse class="st6" cx="120.9" cy="194.2" rx="0.7" ry="0.3"/>
				<path class="st6" d="M120.2,193.4c0,0,0,0.8,0,0.9c0,0.1,1,0.4,1.4,0l0-0.9H120.2z"/>
				<ellipse class="st7" cx="120.9" cy="193.5" rx="0.7" ry="0.3"/>
			</g>
			<g>
				<ellipse class="st6" cx="119.5" cy="194.9" rx="0.7" ry="0.3"/>
				<path class="st6" d="M118.8,194.1c0,0,0,0.8,0,0.9c0,0.1,1,0.4,1.4,0l0-0.9H118.8z"/>
				<ellipse class="st7" cx="119.5" cy="194.2" rx="0.7" ry="0.3"/>
			</g>
			<g>
				<ellipse class="st6" cx="118.1" cy="195.6" rx="0.7" ry="0.3"/>
				<path class="st6" d="M117.3,194.8c0,0,0,0.8,0,0.9c0,0.1,1,0.4,1.4,0l0-0.9H117.3z"/>
				<ellipse class="st7" cx="118.1" cy="194.9" rx="0.7" ry="0.3"/>
			</g>
			<g>
				<ellipse class="st6" cx="116.6" cy="196.3" rx="0.7" ry="0.3"/>
				<path class="st6" d="M115.9,195.6c0,0,0,0.8,0,0.9c0,0.1,1,0.4,1.4,0l0-0.9H115.9z"/>
				<ellipse class="st7" cx="116.6" cy="195.6" rx="0.7" ry="0.3"/>
			</g>
			<g>
				<ellipse class="st6" cx="115.2" cy="197" rx="0.7" ry="0.3"/>
				<path class="st6" d="M114.5,196.3c0,0,0,0.8,0,0.9c0,0.1,1,0.4,1.4,0l0-0.9H114.5z"/>
				<ellipse class="st7" cx="115.2" cy="196.3" rx="0.7" ry="0.3"/>
			</g>
			<g>
				<ellipse class="st6" cx="113.7" cy="197.7" rx="0.7" ry="0.3"/>
				<path class="st6" d="M113,197c0,0,0,0.8,0,0.9c0,0.1,1,0.4,1.4,0l0-0.9H113z"/>
				<ellipse class="st7" cx="113.7" cy="197" rx="0.7" ry="0.3"/>
			</g>
			<g>
				<ellipse class="st6" cx="112.3" cy="198.5" rx="0.7" ry="0.3"/>
				<path class="st6" d="M111.6,197.7c0,0,0,0.8,0,0.9s1,0.4,1.4,0l0-0.9H111.6z"/>
				<ellipse class="st7" cx="112.3" cy="197.7" rx="0.7" ry="0.3"/>
			</g>
			<g>
				<ellipse class="st6" cx="110.9" cy="199.2" rx="0.7" ry="0.3"/>
				<path class="st6" d="M110.1,198.4c0,0,0,0.8,0,0.9s1,0.4,1.4,0l0-0.9H110.1z"/>
				<ellipse class="st7" cx="110.9" cy="198.4" rx="0.7" ry="0.3"/>
			</g>
			<g>
				<ellipse class="st6" cx="109.4" cy="199.9" rx="0.7" ry="0.3"/>
				<path class="st6" d="M108.7,199.1c0,0,0,0.8,0,0.9c0,0.1,1,0.4,1.4,0l0-0.9H108.7z"/>
				<ellipse class="st7" cx="109.4" cy="199.2" rx="0.7" ry="0.3"/>
			</g>
			<g>
				<ellipse class="st6" cx="108" cy="200.6" rx="0.7" ry="0.3"/>
				<path class="st6" d="M107.3,199.8c0,0,0,0.8,0,0.9c0,0.1,1,0.4,1.4,0l0-0.9H107.3z"/>
				<ellipse class="st7" cx="108" cy="199.9" rx="0.7" ry="0.3"/>
			</g>
			<g>
				<ellipse class="st6" cx="106.5" cy="201.3" rx="0.7" ry="0.3"/>
				<path class="st6" d="M105.8,200.5c0,0,0,0.8,0,0.9c0,0.1,1,0.4,1.4,0l0-0.9H105.8z"/>
				<ellipse class="st7" cx="106.5" cy="200.6" rx="0.7" ry="0.3"/>
			</g>
			<g>
				<ellipse class="st6" cx="105.1" cy="202" rx="0.7" ry="0.3"/>
				<path class="st6" d="M104.4,201.2c0,0,0,0.8,0,0.9c0,0.1,1,0.4,1.4,0l0-0.9H104.4z"/>
				<ellipse class="st7" cx="105.1" cy="201.3" rx="0.7" ry="0.3"/>
			</g>
			<g>
				<ellipse class="st6" cx="103.7" cy="202.7" rx="0.7" ry="0.3"/>
				<path class="st6" d="M102.9,202c0,0,0,0.8,0,0.9c0,0.1,1,0.4,1.4,0l0-0.9H102.9z"/>
				<ellipse class="st7" cx="103.7" cy="202" rx="0.7" ry="0.3"/>
			</g>
			<g>
				<ellipse class="st6" cx="102.2" cy="203.4" rx="0.7" ry="0.3"/>
				<path class="st6" d="M101.5,202.7c0,0,0,0.8,0,0.9c0,0.1,1,0.4,1.4,0l0-0.9H101.5z"/>
				<ellipse class="st7" cx="102.2" cy="202.7" rx="0.7" ry="0.3"/>
			</g>
			<g>
				<ellipse class="st6" cx="100.8" cy="204.1" rx="0.7" ry="0.3"/>
				<path class="st6" d="M100.1,203.4c0,0,0,0.8,0,0.9s1,0.4,1.4,0l0-0.9H100.1z"/>
				<ellipse class="st7" cx="100.8" cy="203.4" rx="0.7" ry="0.3"/>
			</g>
			<g>
				<ellipse class="st6" cx="99.3" cy="204.9" rx="0.7" ry="0.3"/>
				<path class="st6" d="M98.6,204.1c0,0,0,0.8,0,0.9s1,0.4,1.4,0l0-0.9H98.6z"/>
				<ellipse class="st7" cx="99.3" cy="204.1" rx="0.7" ry="0.3"/>
			</g>
			<g>
				<ellipse class="st6" cx="97.9" cy="205.6" rx="0.7" ry="0.3"/>
				<path class="st6" d="M97.2,204.8c0,0,0,0.8,0,0.9c0,0.1,1,0.4,1.4,0l0-0.9H97.2z"/>
				<ellipse class="st7" cx="97.9" cy="204.8" rx="0.7" ry="0.3"/>
			</g>
			<g>
				<ellipse class="st6" cx="96.5" cy="206.3" rx="0.7" ry="0.3"/>
				<path class="st6" d="M95.7,205.5c0,0,0,0.8,0,0.9c0,0.1,1,0.4,1.4,0l0-0.9H95.7z"/>
				<ellipse class="st7" cx="96.5" cy="205.6" rx="0.7" ry="0.3"/>
			</g>
			<g>
				<ellipse class="st6" cx="95" cy="207" rx="0.7" ry="0.3"/>
				<path class="st6" d="M94.3,206.2c0,0,0,0.8,0,0.9c0,0.1,1,0.4,1.4,0l0-0.9H94.3z"/>
				<ellipse class="st7" cx="95" cy="206.3" rx="0.7" ry="0.3"/>
			</g>
		</g>
		<g>
			<g>
				<ellipse class="st6" cx="166.4" cy="110.6" rx="0.7" ry="0.3"/>
				<path class="st6" d="M165.7,109.8c0,0,0,0.8,0,0.9s1,0.4,1.4,0l0-0.9H165.7z"/>
				<ellipse class="st7" cx="166.4" cy="109.9" rx="0.7" ry="0.3"/>
			</g>
			<g>
				<ellipse class="st6" cx="167.8" cy="111.3" rx="0.7" ry="0.3"/>
				<path class="st6" d="M167.1,110.5c0,0,0,0.8,0,0.9s1,0.4,1.4,0l0-0.9H167.1z"/>
				<ellipse class="st7" cx="167.8" cy="110.6" rx="0.7" ry="0.3"/>
			</g>
			<g>
				<ellipse class="st6" cx="169.3" cy="112" rx="0.7" ry="0.3"/>
				<path class="st6" d="M168.5,111.3c0,0,0,0.8,0,0.9s1,0.4,1.4,0l0-0.9H168.5z"/>
				<ellipse class="st7" cx="169.3" cy="111.3" rx="0.7" ry="0.3"/>
			</g>
			<g>
				<ellipse class="st6" cx="170.7" cy="112.8" rx="0.7" ry="0.3"/>
				<path class="st6" d="M170,112c0,0,0,0.8,0,0.9s1,0.4,1.4,0l0-0.9H170z"/>
				<ellipse class="st7" cx="170.7" cy="112" rx="0.7" ry="0.3"/>
			</g>
			<g>
				<ellipse class="st6" cx="172.1" cy="113.5" rx="0.7" ry="0.3"/>
				<path class="st6" d="M171.4,112.7c0,0,0,0.8,0,0.9s1,0.4,1.4,0l0-0.9H171.4z"/>
				<ellipse class="st7" cx="172.1" cy="112.8" rx="0.7" ry="0.3"/>
			</g>
			<g>
				<ellipse class="st6" cx="173.6" cy="114.2" rx="0.7" ry="0.3"/>
				<path class="st6" d="M172.8,113.4c0,0,0,0.8,0,0.9c0,0.1,1,0.4,1.4,0l0-0.9H172.8z"/>
				<ellipse class="st7" cx="173.6" cy="113.5" rx="0.7" ry="0.3"/>
			</g>
			<g>
				<ellipse class="st6" cx="175" cy="114.9" rx="0.7" ry="0.3"/>
				<path class="st6" d="M174.3,114.2c0,0,0,0.8,0,0.9c0,0.1,1,0.4,1.4,0l0-0.9H174.3z"/>
				<ellipse class="st7" cx="175" cy="114.2" rx="0.7" ry="0.3"/>
			</g>
			<g>
				<ellipse class="st6" cx="176.4" cy="115.7" rx="0.7" ry="0.3"/>
				<path class="st6" d="M175.7,114.9c0,0,0,0.8,0,0.9c0,0.1,1,0.4,1.4,0l0-0.9H175.7z"/>
				<ellipse class="st7" cx="176.4" cy="114.9" rx="0.7" ry="0.3"/>
			</g>
			<g>
				<ellipse class="st6" cx="177.8" cy="116.4" rx="0.7" ry="0.3"/>
				<path class="st6" d="M177.1,115.6c0,0,0,0.8,0,0.9s1,0.4,1.4,0l0-0.9H177.1z"/>
				<ellipse class="st7" cx="177.8" cy="115.7" rx="0.7" ry="0.3"/>
			</g>
			<g>
				<ellipse class="st6" cx="179.3" cy="117.1" rx="0.7" ry="0.3"/>
				<path class="st6" d="M178.6,116.4c0,0,0,0.8,0,0.9s1,0.4,1.4,0l0-0.9H178.6z"/>
				<ellipse class="st7" cx="179.3" cy="116.4" rx="0.7" ry="0.3"/>
			</g>
			<g>
				<ellipse class="st6" cx="180.7" cy="117.8" rx="0.7" ry="0.3"/>
				<path class="st6" d="M180,117.1c0,0,0,0.8,0,0.9s1,0.4,1.4,0l0-0.9H180z"/>
				<ellipse class="st7" cx="180.7" cy="117.1" rx="0.7" ry="0.3"/>
			</g>
			<g>
				<ellipse class="st6" cx="182.1" cy="118.6" rx="0.7" ry="0.3"/>
				<path class="st6" d="M181.4,117.8c0,0,0,0.8,0,0.9s1,0.4,1.4,0l0-0.9H181.4z"/>
				<ellipse class="st7" cx="182.1" cy="117.8" rx="0.7" ry="0.3"/>
			</g>
			<g>
				<ellipse class="st6" cx="183.6" cy="119.3" rx="0.7" ry="0.3"/>
				<path class="st6" d="M182.8,118.5c0,0,0,0.8,0,0.9s1,0.4,1.4,0l0-0.9H182.8z"/>
				<ellipse class="st7" cx="183.6" cy="118.6" rx="0.7" ry="0.3"/>
			</g>
			<g>
				<ellipse class="st6" cx="185" cy="120" rx="0.7" ry="0.3"/>
				<path class="st6" d="M184.3,119.3c0,0,0,0.8,0,0.9c0,0.1,1,0.4,1.4,0l0-0.9H184.3z"/>
				<ellipse class="st7" cx="185" cy="119.3" rx="0.7" ry="0.3"/>
			</g>
			<g>
				<ellipse class="st6" cx="186.4" cy="120.7" rx="0.7" ry="0.3"/>
				<path class="st6" d="M185.7,120c0,0,0,0.8,0,0.9c0,0.1,1,0.4,1.4,0l0-0.9H185.7z"/>
				<ellipse class="st7" cx="186.4" cy="120" rx="0.7" ry="0.3"/>
			</g>
			<g>
				<ellipse class="st6" cx="187.9" cy="121.5" rx="0.7" ry="0.3"/>
				<path class="st6" d="M187.1,120.7c0,0,0,0.8,0,0.9c0,0.1,1,0.4,1.4,0l0-0.9H187.1z"/>
				<ellipse class="st7" cx="187.9" cy="120.7" rx="0.7" ry="0.3"/>
			</g>
			<g>
				<ellipse class="st6" cx="189.3" cy="122.2" rx="0.7" ry="0.3"/>
				<path class="st6" d="M188.6,121.4c0,0,0,0.8,0,0.9s1,0.4,1.4,0l0-0.9H188.6z"/>
				<ellipse class="st7" cx="189.3" cy="121.5" rx="0.7" ry="0.3"/>
			</g>
			<g>
				<ellipse class="st6" cx="190.7" cy="122.9" rx="0.7" ry="0.3"/>
				<path class="st6" d="M190,122.2c0,0,0,0.8,0,0.9s1,0.4,1.4,0l0-0.9H190z"/>
				<ellipse class="st7" cx="190.7" cy="122.2" rx="0.7" ry="0.3"/>
			</g>
			<g>
				<ellipse class="st6" cx="192.1" cy="123.7" rx="0.7" ry="0.3"/>
				<path class="st6" d="M191.4,122.9c0,0,0,0.8,0,0.9s1,0.4,1.4,0l0-0.9H191.4z"/>
				<ellipse class="st7" cx="192.1" cy="122.9" rx="0.7" ry="0.3"/>
			</g>
			<g>
				<ellipse class="st6" cx="193.6" cy="124.4" rx="0.7" ry="0.3"/>
				<path class="st6" d="M192.9,123.6c0,0,0,0.8,0,0.9s1,0.4,1.4,0l0-0.9H192.9z"/>
				<ellipse class="st7" cx="193.6" cy="123.7" rx="0.7" ry="0.3"/>
			</g>
			<g>
				<ellipse class="st6" cx="195" cy="125.1" rx="0.7" ry="0.3"/>
				<path class="st6" d="M194.3,124.3c0,0,0,0.8,0,0.9s1,0.4,1.4,0l0-0.9H194.3z"/>
				<ellipse class="st7" cx="195" cy="124.4" rx="0.7" ry="0.3"/>
			</g>
			<g>
				<ellipse class="st6" cx="196.4" cy="125.8" rx="0.7" ry="0.3"/>
				<path class="st6" d="M195.7,125.1c0,0,0,0.8,0,0.9c0,0.1,1,0.4,1.4,0l0-0.9H195.7z"/>
				<ellipse class="st7" cx="196.4" cy="125.1" rx="0.7" ry="0.3"/>
			</g>
			<g>
				<ellipse class="st6" cx="197.9" cy="126.6" rx="0.7" ry="0.3"/>
				<path class="st6" d="M197.1,125.8c0,0,0,0.8,0,0.9c0,0.1,1,0.4,1.4,0l0-0.9H197.1z"/>
				<ellipse class="st7" cx="197.9" cy="125.8" rx="0.7" ry="0.3"/>
			</g>
			<g>
				<ellipse class="st6" cx="199.3" cy="127.3" rx="0.7" ry="0.3"/>
				<path class="st6" d="M198.6,126.5c0,0,0,0.8,0,0.9c0,0.1,1,0.4,1.4,0l0-0.9H198.6z"/>
				<ellipse class="st7" cx="199.3" cy="126.6" rx="0.7" ry="0.3"/>
			</g>
			<g>
				<ellipse class="st6" cx="200.7" cy="128" rx="0.7" ry="0.3"/>
				<path class="st6" d="M200,127.2c0,0,0,0.8,0,0.9c0,0.1,1,0.4,1.4,0l0-0.9H200z"/>
				<ellipse class="st7" cx="200.7" cy="127.3" rx="0.7" ry="0.3"/>
			</g>
			<g>
				<ellipse class="st6" cx="202.2" cy="128.7" rx="0.7" ry="0.3"/>
				<path class="st6" d="M201.4,128c0,0,0,0.8,0,0.9s1,0.4,1.4,0l0-0.9H201.4z"/>
				<ellipse class="st7" cx="202.2" cy="128" rx="0.7" ry="0.3"/>
			</g>
			<g>
				<ellipse class="st6" cx="203.6" cy="129.5" rx="0.7" ry="0.3"/>
				<path class="st6" d="M202.9,128.7c0,0,0,0.8,0,0.9c0,0.1,1,0.4,1.4,0l0-0.9H202.9z"/>
				<ellipse class="st7" cx="203.6" cy="128.7" rx="0.7" ry="0.3"/>
			</g>
			<g>
				<ellipse class="st6" cx="205" cy="130.2" rx="0.7" ry="0.3"/>
				<path class="st6" d="M204.3,129.4c0,0,0,0.8,0,0.9s1,0.4,1.4,0l0-0.9H204.3z"/>
				<ellipse class="st7" cx="205" cy="129.5" rx="0.7" ry="0.3"/>
			</g>
			<g>
				<ellipse class="st6" cx="206.5" cy="130.9" rx="0.7" ry="0.3"/>
				<path class="st6" d="M205.7,130.1c0,0,0,0.8,0,0.9c0,0.1,1,0.4,1.4,0l0-0.9H205.7z"/>
				<ellipse class="st7" cx="206.5" cy="130.2" rx="0.7" ry="0.3"/>
			</g>
			<g>
				<ellipse class="st6" cx="207.9" cy="131.6" rx="0.7" ry="0.3"/>
				<path class="st6" d="M207.2,130.9c0,0,0,0.8,0,0.9c0,0.1,1,0.4,1.4,0l0-0.9H207.2z"/>
				<ellipse class="st7" cx="207.9" cy="130.9" rx="0.7" ry="0.3"/>
			</g>
		</g>
		<g>
			<path class="st8" d="M82.1,210.9c0,0,2.5-0.1,5.3-1.1c1.1-0.4,6.1-2.2,7.8-2.3c1.9,0,0.5-1,1.9-1.5c3.2-1.1,7-2.5,16.3-5.1
				c13.2-3.6,33.6-13.8,33.6-13.8l43.6-22l11.6-7.8l10.3,5.6L175,180.6l-24.9,12.6l-36,16.6l-17.5,8.6L82.1,210.9z"/>
			<path class="st8" d="M193.5,162.1l-2.6-9c0.5-1,11.2,3.5,10.7,4.5l-8.1,7.5V162.1z"/>
		</g>
		<line class="st9" x1="99.4" y1="212.3" x2="202.2" y2="164"/>
		<polygon class="st10" points="163.7,109.8 215.6,135.8 219.5,134 167.7,107.8 		"/>
		<polygon class="st10" points="44.6,169.8 168.6,108.4 164.4,106.4 40.8,167.7 		"/>
		<g>
			<path class="st11" d="M96.3,194.8c0.4-0.1,0.1-1.5,0.1-1.5l1.7-0.8c0,0,9.6,0.8,12.8,0.8c2.6,0,7.1-0.6,10-2.4
				c2.9-1.9,3.7-3.3,3.7-3.3l0.9-0.8l2.5-1.2c0,0-0.1,0.4,1.7,0c1.8-0.4,4.8-1.9,4.8-1.9l4.1-2.3c0,0,1.3-1.3,1.4-1.5
				c0-0.3,0.9,0.3,1.2,0.2c0.3-0.1,3.7-2.1,4-2.1c0.3,0,1.2-0.9,1.2-1l1.4,0.1c0,0,3.1-1.7,3.9-2.2c0.3-0.2,0.4-1.2,0.4-1.2
				s0.8,0.5,1,0.4l4.2-2.1l0.9-1.1l0.7,0.3l6.6-3.5l0.8-0.3c0,0,0.7-0.7,1-0.8l0.7,0.2l5.5-3.2c0.2-0.1,7.2-2.7,1.9-13.9
				c-4.9-10.2-11.6-8.2-13.4-7.8c-1.2,0.2-4.6,1.8-5.2,2.3c-0.2,0.1-0.3,0.7-0.4,0.8c-0.2,0.1-0.5-0.2-0.7-0.2
				c-1.5,0.6-6.7,3.2-7.8,4c-0.1,0.1-0.1,0.6-0.1,0.6s-0.8,0-1,0c-0.7,0.2-3.2,1.4-4.7,2.1c-0.2,0.1-0.2,0.8-0.2,0.8s-0.8,0-1.1,0
				c-0.8,0.2-4.3,2.1-4.3,2.1c-0.1,0.1-0.2,0.1-0.2,0.2c-0.3,0.2-0.2,0.6,0,0.9l-0.1,0c0,0-1.2-0.4-1.4-0.3c-0.9,0.3-4,1.8-5,2.4
				c-0.1,0.1-0.1,0.6-0.3,0.8c-0.3,0.2-0.9,0-1,0c-1.6,0.3-8.9,4.2-8.9,4.2l-1.9,2.1l-3,1.6l-1.8,0.1c0,0-5.5,1-9.7,5.4
				c-4.2,4.4-9,12.5-9,12.5l-1.3,0.8c0,0-0.4,0.3-0.6,0.3c-0.2,0-0.7-0.7-1-0.5c-0.4,0.3,0,1.4-0.3,1.6c-0.8,0.5-3.1,1.6-3.1,1.6
				l-1.7,0.8c0,0,1.4,0,2.8,3c1.8,3.7,1.1,5,1.1,5l4.2-2.3l1-0.3C95.1,194.3,96,194.9,96.3,194.8z"/>
			<path class="st12" d="M95.8,194.8c0,0-0.2-4.6-4.9-9.6"/>
			<path class="st13" d="M91.6,184.9c4.6,5.1,4.6,9.4,4.6,9.4"/>
			<path class="st11" d="M89.6,197c-0.7,0.4-2.4-1.5-3.4-3.6c-1-2.1-1.3-4.2-0.5-4.5c0.7-0.4,2.2,1.1,3.2,3.2S90.4,196.7,89.6,197z"
				/>
			<path class="st14" d="M87.8,192.6"/>
			<path class="st14" d="M107.7,166.6"/>
			<path class="st12" d="M140.2,179.6c0,0,0.8-4.2-2.9-11.9c-3.8-8-7.8-9.5-7.8-9.5"/>
			<path class="st12" d="M146.3,176.7c0,0,1.4-3.9-2.3-11.6c-3.8-8-8-9.7-8-9.7"/>
			<path class="st12" d="M158.5,170.6c0,0,1.8-4.5-1.9-12.2c-3.8-8-8.5-8.9-8.5-8.9"/>
			<path class="st12" d="M152.2,173.4c0,0,1.6-4.1-2.1-11.8c-3.8-8-8.2-9.2-8.2-9.2"/>
			<path class="st12" d="M167.2,166.4c0,0,1.7-4.6-2.1-12.6c-4-8.2-8.7-9.3-8.7-9.3"/>
			<path class="st12" d="M124.9,186.8c0,0-1-6.7-3.1-11.7s-7.1-9.2-7.1-9.2"/>
			<path class="st12" d="M128,185.3c0,0-0.3-6.2-2.8-11.4s-7.6-9.2-7.6-9.2"/>
		</g>
		<path class="st15" d="M189.7,144.8l-13.3,6.5c1.3,3.4,1.4,5.9,0.9,7.8c-0.9,3.7-3.9,4.9-3.9,4.9l-5,2.7l-0.8-0.3
			c-0.3,0.1-0.6,0.8-0.6,0.8l-7.5,4l-1-0.2l-1.1,1.1l-4.2,2.1c-0.2,0.1-0.8-0.3-0.8-0.3s-0.3,1-0.6,1.2c-0.8,0.6-3.9,2.2-3.9,2.2
			l-1.3-0.3c0,0.2-1,1.2-1.3,1.2c-0.3,0-3.7,1.9-4,2c-0.3,0.1-1.1-0.5-1.1-0.2c0,0.3-0.8,1.2-0.8,1.2l-4.8,2.7c0,0-3.1,1.5-4.8,1.9
			c-1.8,0.4-1.7,0-1.7,0l-2.5,1.2l-0.9,0.8c0,0-0.8,1.5-3.7,3.3c-2.9,1.9-7.4,2.4-10,2.4c-3.2,0-12.8-0.8-12.8-0.8l-1.7,0.8
			c0,0,0.2,1.4-0.1,1.5c-0.3,0.1-1.1-0.5-1.1-0.5l-1,0.3l-4.2,2.3c0,0-0.9-1-2.7-4.6c-1.5-3-1.3-3.4-1.3-3.4l1.7-0.8
			c0,0,2.3-1,3.1-1.6c0.3-0.2-0.1-1.4,0.3-1.6c0.3-0.2,0.8,0.5,1,0.5c0.2,0,0.6-0.3,0.6-0.3l1.3-0.8c0,0,4.8-8.1,9-12.5
			c4.2-4.4,9.7-5.4,9.7-5.4l1.8-0.1l3-1.6l1.9-2.1c0,0,7.3-3.9,8.9-4.2c0.2,0,0.7,0.2,1,0c0.3-0.2,0.2-0.7,0.3-0.8
			c1-0.7,4.1-2.1,5-2.4c0.3-0.1,1.4,0.3,1.4,0.3l0.1,0c-0.2-0.2-0.3-0.6,0-0.9c0.1-0.1,0.1-0.1,0.2-0.2c0,0,3.5-1.9,4.3-2.1
			c0.3-0.1,1.1,0,1.1,0s0-0.7,0.2-0.8c1.5-0.7,4-1.9,4.7-2.1c0.2-0.1,1,0,1,0s0-0.5,0.1-0.6c1.1-0.9,6.3-3.4,7.8-4
			c0.2-0.1,0.6,0.2,0.7,0.2c0.1-0.1,0.3-0.7,0.4-0.8c0.6-0.4,4-2,5.2-2.3c1.6-0.3,6.8-0.4,11.6,4.2l9.2-4.8l-18.4-10L50.3,189.1
			l49.5,25.2L214.6,157L189.7,144.8z"/>
		<path class="st16" d="M170.6,144.1l8.1-4.1c0,0,1.8-2.5,6.3-1.1c4.5,1.4,4.8,6.3,4.8,6.3l-13.3,6.4c0,0-1-2.6-2.5-4.6
			S170.6,144.1,170.6,144.1z"/>
		<polygon class="st2" points="39.9,210.9 96.3,239.5 96,196.1 39.9,167.6 		"/>
		<polygon class="st10" points="44.6,169.8 95.8,196.3 99.4,194.5 48.3,168 		"/>
		<polygon class="st3" points="96.2,239.1 220,175.7 220,134.2 96.1,196.2 		"/>
		<polygon class="st10" points="96,196.2 219.7,134.1 216.1,132.3 92.2,194.1 		"/>
		<line class="st17" x1="79.5" y1="180.8" x2="156.6" y2="141.3"/>
		<g>
			<polygon class="st18" points="167.2,139.7 169.2,138.4 167.5,136.7 163.9,136.3 162,137.7 163.6,139.4 			"/>
			<path class="st18" d="M166.9,139.1l0.5-0.3c0.3-0.2,0.4-0.7,0.1-1l-0.4-0.4c-0.1-0.1-0.3-0.2-0.4-0.2l-2-0.2
				c-0.2,0-0.3,0-0.5,0.1l-0.5,0.3c-0.3,0.2-0.4,0.7-0.1,1l0.4,0.4c0.1,0.1,0.3,0.2,0.4,0.2l2,0.2
				C166.6,139.2,166.7,139.2,166.9,139.1z"/>
		</g>
		<g>
			<path class="st0" d="M194.5,70.6c0,0-0.7,1.9,0.7,1.6c1.3-0.4,3.6-1.6,2-1.8C195.6,70.3,194.5,70.6,194.5,70.6"/>
			<path class="st0" d="M197.4,64.7c0,0-0.6,2,0.7,1.5c1.3-0.4,3.6-1.8,1.9-1.9C198.4,64.3,197.4,64.7,197.4,64.7"/>
			<path class="st0" d="M195,67.2c0,0-0.5,2,0.8,1.5c1.3-0.5,3.5-1.9,1.9-1.9C196.1,66.8,195,67.2,195,67.2"/>
			<path class="st0" d="M199.6,69.7c0,0-0.6,2,0.7,1.5c1.3-0.4,3.6-1.8,1.9-1.8C200.7,69.3,199.6,69.7,199.6,69.7"/>
			<path class="st0" d="M202,66.6c0,0-0.5,2,0.7,1.5c1.3-0.4,3.5-1.8,1.9-1.9C203.1,66.2,202,66.6,202,66.6"/>
			<path class="st0" d="M200.4,74.4c0,0-0.5,2,0.8,1.5c1.3-0.5,3.5-2,1.8-2C201.5,74,200.4,74.4,200.4,74.4"/>
			<path class="st0" d="M203.4,62.9c0,0-0.7,1.9,0.6,1.6c1.3-0.3,3.7-1.5,2.1-1.7C204.4,62.6,203.4,62.9,203.4,62.9"/>
			<path class="st0" d="M206.6,68.8c0,0-0.5,2,0.8,1.5c1.3-0.5,3.5-2,1.8-2C207.6,68.3,206.6,68.8,206.6,68.8"/>
			<path class="st0" d="M208.4,62.9c0,0-0.6,2,0.7,1.5c1.3-0.4,3.5-1.8,1.9-1.9C209.4,62.5,208.4,62.9,208.4,62.9"/>
			<path class="st0" d="M218.6,69.6c0,0,0,2.1,1.1,1.3c1.2-0.8,3-2.7,1.4-2.4C219.5,68.9,218.6,69.6,218.6,69.6"/>
			<path class="st0" d="M215.2,66.9c0,0-0.5,2,0.8,1.5c1.3-0.5,3.5-2,1.8-2C216.2,66.4,215.2,66.9,215.2,66.9"/>
			<path class="st0" d="M213.8,62.4c0,0-0.7,1.9,0.6,1.6c1.3-0.3,3.7-1.4,2.1-1.7C214.9,62.1,213.8,62.4,213.8,62.4"/>
			<path class="st0" d="M211.9,57.7c0,0-0.7,1.9,0.6,1.6c1.3-0.3,3.7-1.5,2.1-1.7C213,57.4,211.9,57.7,211.9,57.7"/>
			<path class="st0" d="M217.4,60.1c0,0-0.5,2,0.8,1.5c1.3-0.5,3.5-1.9,1.9-1.9C218.4,59.7,217.4,60.1,217.4,60.1"/>
			<path class="st0" d="M217.9,75.5c0,0,0.2,2.2,1.3,1.2c1.1-1,2.8-3.2,1.1-2.6C218.8,74.7,217.9,75.5,217.9,75.5"/>
			<path class="st0" d="M210.3,67.2c0,0-0.5,2,0.8,1.5c1.3-0.5,3.5-2,1.8-2C211.3,66.7,210.3,67.2,210.3,67.2"/>
			<path class="st0" d="M211.3,72.3c0,0-0.5,2,0.8,1.5c1.3-0.5,3.5-2,1.8-2C212.3,71.9,211.3,72.3,211.3,72.3"/>
			<path class="st0" d="M205.9,78.4c0,0-0.9,1.8,0.4,1.6c1.4-0.2,3.8-1.1,2.2-1.5C207,78.2,205.9,78.4,205.9,78.4"/>
			<path class="st0" d="M212.3,81.5c0,0-0.4,2.1,0.9,1.5c1.3-0.5,3.5-2.1,1.8-2C213.3,81,212.3,81.5,212.3,81.5"/>
			<path class="st0" d="M207,90c0,0-0.1,2.9,1.5,1.9c1.7-1,4.3-3.7,2-3.2C208.3,89.1,207,90,207,90"/>
			<path class="st0" d="M203,85.7c0,0-0.5,2,0.8,1.5c1.3-0.5,3.6-2,1.9-2C204,85.2,203,85.7,203,85.7"/>
			<path class="st0" d="M199.6,85.4c0,0-0.9,1.8,0.5,1.6c1.3-0.2,3.8-1.2,2.2-1.5C200.7,85.1,199.6,85.4,199.6,85.4"/>
			<path class="st0" d="M192.5,86.8c0,0-0.5,2,0.8,1.5c1.3-0.5,3.5-2,1.8-2C193.5,86.3,192.5,86.8,192.5,86.8"/>
			<path class="st0" d="M203.2,94.6c0,0-0.1,3.1,1.6,2c1.7-1.1,4.6-3.9,2.2-3.4C204.6,93.6,203.2,94.6,203.2,94.6"/>
			<path class="st0" d="M201.2,96.1c1.2-1.3,2.8-4.2,1-3.3c-1.8,1-2.7,2-2.7,2"/>
			<path class="st0" d="M213.6,87.3c0,0-1.4,1.5,0,1.7c1.4,0.2,4.1,0,2.6-0.8C214.8,87.4,213.6,87.3,213.6,87.3"/>
			<path class="st0" d="M210.1,92.8c0,0-0.8,2.3,0.7,1.9c1.6-0.4,4.3-1.8,2.4-2C211.4,92.4,210.1,92.8,210.1,92.8"/>
			<path class="st0" d="M192,82.1c0,0-0.5,2,0.8,1.5c1.3-0.5,3.5-2,1.8-2C193,81.7,192,82.1,192,82.1"/>
			<path class="st0" d="M187.5,79.2c0,0-0.8,1.9,0.5,1.6c1.3-0.3,3.8-1.3,2.2-1.6C188.6,79,187.5,79.2,187.5,79.2"/>
			<path class="st0" d="M224,54.3c0,0-2.5-0.9-0.9-1.6c1.5-0.7,4.8-1.5,3.5-0.2C225.3,53.8,224,54.3,224,54.3"/>
		</g>
		<g>
			<path class="st0" d="M181.1,116.1c0,0-0.7,1.9,0.7,1.6c1.3-0.4,3.6-1.6,2-1.8C182.1,115.8,181.1,116.1,181.1,116.1"/>
			<path class="st0" d="M183.9,110.3c0,0-0.6,2,0.7,1.5c1.3-0.4,3.6-1.8,1.9-1.9C185,109.9,183.9,110.3,183.9,110.3"/>
			<path class="st0" d="M181.6,112.8c0,0-0.5,2,0.8,1.5c1.3-0.5,3.5-1.9,1.9-1.9C182.6,112.3,181.6,112.8,181.6,112.8"/>
			<path class="st0" d="M186.2,115.2c0,0-0.6,2,0.7,1.5c1.3-0.4,3.6-1.8,1.9-1.8C187.2,114.8,186.2,115.2,186.2,115.2"/>
			<path class="st0" d="M188.6,112.1c0,0-0.5,2,0.7,1.5c1.3-0.4,3.5-1.8,1.9-1.9C189.6,111.7,188.6,112.1,188.6,112.1"/>
			<path class="st0" d="M187,120c0,0-0.5,2,0.8,1.5c1.3-0.5,3.5-2,1.8-2C188,119.5,187,120,187,120"/>
			<path class="st0" d="M189.9,108.4c0,0-0.7,1.9,0.6,1.6c1.3-0.3,3.7-1.5,2.1-1.7C191,108.1,189.9,108.4,189.9,108.4"/>
			<path class="st0" d="M193.1,114.3c0,0-0.5,2,0.8,1.5c1.3-0.5,3.5-2,1.8-2C194.1,113.8,193.1,114.3,193.1,114.3"/>
			<path class="st0" d="M194.9,108.4c0,0-0.6,2,0.7,1.5c1.3-0.4,3.5-1.8,1.9-1.9C195.9,108,194.9,108.4,194.9,108.4"/>
			<path class="st0" d="M205.2,115.1c0,0,0,2.1,1.1,1.3c1.2-0.8,3-2.7,1.4-2.4C206.1,114.4,205.2,115.1,205.2,115.1"/>
			<path class="st0" d="M201.7,112.4c0,0-0.5,2,0.8,1.5c1.3-0.5,3.5-2,1.8-2C202.7,111.9,201.7,112.4,201.7,112.4"/>
			<path class="st0" d="M200.3,107.9c0,0-0.7,1.9,0.6,1.6c1.3-0.3,3.7-1.4,2.1-1.7C201.4,107.6,200.3,107.9,200.3,107.9"/>
			<path class="st0" d="M198.5,103.2c0,0-0.7,1.9,0.6,1.6c1.3-0.3,3.7-1.5,2.1-1.7C199.5,102.9,198.5,103.2,198.5,103.2"/>
			<path class="st0" d="M203.9,105.6c0,0-0.5,2,0.8,1.5c1.3-0.5,3.5-1.9,1.9-1.9C204.9,105.2,203.9,105.6,203.9,105.6"/>
			<path class="st0" d="M196.8,112.7c0,0-0.5,2,0.8,1.5c1.3-0.5,3.5-2,1.8-2C197.8,112.2,196.8,112.7,196.8,112.7"/>
			<path class="st0" d="M197.8,117.8c0,0-0.5,2,0.8,1.5c1.3-0.5,3.5-2,1.8-2C198.8,117.4,197.8,117.8,197.8,117.8"/>
			<path class="st0" d="M192.4,124c0,0-0.9,1.8,0.4,1.6c1.4-0.2,3.8-1.1,2.2-1.5C193.5,123.8,192.4,124,192.4,124"/>
			<path class="st0" d="M198.8,127c0,0-0.4,2.1,0.9,1.5c1.3-0.5,3.5-2.1,1.8-2C199.8,126.5,198.8,127,198.8,127"/>
			<path class="st0" d="M193.6,135.5c0,0-0.1,2.9,1.5,1.9c1.7-1,4.3-3.7,2-3.2C194.9,134.6,193.6,135.5,193.6,135.5"/>
			<path class="st0" d="M189.5,131.2c0,0-0.5,2,0.8,1.5c1.3-0.5,3.6-2,1.9-2C190.6,130.7,189.5,131.2,189.5,131.2"/>
			<path class="st0" d="M186.2,130.9c0,0-0.9,1.8,0.5,1.6c1.3-0.2,3.8-1.2,2.2-1.5C187.2,130.7,186.2,130.9,186.2,130.9"/>
			<path class="st0" d="M179.1,132.3c0,0-0.5,2,0.8,1.5c1.3-0.5,3.5-2,1.8-2C180.1,131.8,179.1,132.3,179.1,132.3"/>
			<path class="st0" d="M187.8,141.6c1.2-1.3,2.8-4.2,1-3.3c-1.8,1-2.7,2-2.7,2"/>
			<path class="st0" d="M200.2,132.8c0,0-1.4,1.5,0,1.7c1.4,0.2,4.1,0,2.6-0.8C201.3,132.9,200.2,132.8,200.2,132.8"/>
			<path class="st0" d="M178.6,127.6c0,0-0.5,2,0.8,1.5c1.3-0.5,3.5-2,1.8-2C179.6,127.2,178.6,127.6,178.6,127.6"/>
			<path class="st0" d="M174,124.7c0,0-0.8,1.9,0.5,1.6c1.3-0.3,3.8-1.3,2.2-1.6C175.1,124.5,174,124.7,174,124.7"/>
			<path class="st0" d="M210.5,99.8c0,0-2.5-0.9-0.9-1.6c1.5-0.7,4.8-1.5,3.5-0.2C211.8,99.3,210.5,99.8,210.5,99.8"/>
		</g>
		<g>
			<path class="st0" d="M167.7,101.1c0,0-0.7,1.9,0.7,1.6c1.3-0.4,3.6-1.6,2-1.8C168.8,100.7,167.7,101.1,167.7,101.1"/>
			<path class="st0" d="M170.6,95.2c0,0-0.6,2,0.7,1.5c1.3-0.4,3.6-1.8,1.9-1.9C171.6,94.8,170.6,95.2,170.6,95.2"/>
			<path class="st0" d="M168.2,97.7c0,0-0.5,2,0.8,1.5c1.3-0.5,3.5-1.9,1.9-1.9C169.2,97.3,168.2,97.7,168.2,97.7"/>
			<path class="st0" d="M172.8,100.2c0,0-0.6,2,0.7,1.5c1.3-0.4,3.6-1.8,1.9-1.8C173.9,99.8,172.8,100.2,172.8,100.2"/>
			<path class="st0" d="M175.2,97.1c0,0-0.5,2,0.7,1.5c1.3-0.4,3.5-1.8,1.9-1.9C176.3,96.7,175.2,97.1,175.2,97.1"/>
			<path class="st0" d="M173.6,104.9c0,0-0.5,2,0.8,1.5c1.3-0.5,3.5-2,1.8-2C174.6,104.5,173.6,104.9,173.6,104.9"/>
			<path class="st0" d="M176.6,93.4c0,0-0.7,1.9,0.6,1.6c1.3-0.3,3.7-1.5,2.1-1.7C177.6,93.1,176.6,93.4,176.6,93.4"/>
			<path class="st0" d="M179.7,99.2c0,0-0.5,2,0.8,1.5c1.3-0.5,3.5-2,1.8-2C180.8,98.8,179.7,99.2,179.7,99.2"/>
			<path class="st0" d="M181.5,93.4c0,0-0.6,2,0.7,1.5c1.3-0.4,3.5-1.8,1.9-1.9C182.6,93,181.5,93.4,181.5,93.4"/>
			<path class="st0" d="M191.8,100.1c0,0,0,2.1,1.1,1.3c1.2-0.8,3-2.7,1.4-2.4C192.7,99.4,191.8,100.1,191.8,100.1"/>
			<path class="st0" d="M188.4,97.3c0,0-0.5,2,0.8,1.5c1.3-0.5,3.5-2,1.8-2C189.4,96.9,188.4,97.3,188.4,97.3"/>
			<path class="st0" d="M187,92.9c0,0-0.7,1.9,0.6,1.6c1.3-0.3,3.7-1.4,2.1-1.7C188,92.6,187,92.9,187,92.9"/>
			<path class="st0" d="M185.1,88.1c0,0-0.7,1.9,0.6,1.6c1.3-0.3,3.7-1.5,2.1-1.7C186.2,87.8,185.1,88.1,185.1,88.1"/>
			<path class="st0" d="M190.6,90.6c0,0-0.5,2,0.8,1.5c1.3-0.5,3.5-1.9,1.9-1.9C191.6,90.1,190.6,90.6,190.6,90.6"/>
			<path class="st0" d="M183.4,97.6c0,0-0.5,2,0.8,1.5c1.3-0.5,3.5-2,1.8-2C184.5,97.2,183.4,97.6,183.4,97.6"/>
			<path class="st0" d="M184.5,102.8c0,0-0.5,2,0.8,1.5c1.3-0.5,3.5-2,1.8-2C185.5,102.3,184.5,102.8,184.5,102.8"/>
			<path class="st0" d="M179.1,108.9c0,0-0.9,1.8,0.4,1.6c1.4-0.2,3.8-1.1,2.2-1.5C180.2,108.7,179.1,108.9,179.1,108.9"/>
			<path class="st0" d="M185.4,112c0,0-0.4,2.1,0.9,1.5c1.3-0.5,3.5-2.1,1.8-2C186.5,111.5,185.4,112,185.4,112"/>
			<path class="st0" d="M180.2,120.5c0,0-0.1,2.9,1.5,1.9c1.7-1,4.3-3.7,2-3.2C181.5,119.6,180.2,120.5,180.2,120.5"/>
			<path class="st0" d="M176.2,116.2c0,0-0.5,2,0.8,1.5c1.3-0.5,3.6-2,1.9-2C177.2,115.7,176.2,116.2,176.2,116.2"/>
			<path class="st0" d="M172.8,115.8c0,0-0.9,1.8,0.5,1.6c1.3-0.2,3.8-1.2,2.2-1.5C173.9,115.6,172.8,115.8,172.8,115.8"/>
			<path class="st0" d="M165.7,117.2c0,0-0.5,2,0.8,1.5c1.3-0.5,3.5-2,1.8-2C166.7,116.8,165.7,117.2,165.7,117.2"/>
			<path class="st0" d="M174.4,126.6c1.2-1.3,2.8-4.2,1-3.3c-1.8,1-2.7,2-2.7,2"/>
			<path class="st0" d="M186.8,117.8c0,0-1.4,1.5,0,1.7c1.4,0.2,4.1,0,2.6-0.8C188,117.9,186.8,117.8,186.8,117.8"/>
			<path class="st0" d="M165.2,112.6c0,0-0.5,2,0.8,1.5c1.3-0.5,3.5-2,1.8-2C166.2,112.1,165.2,112.6,165.2,112.6"/>
			<path class="st0" d="M160.7,109.7c0,0-0.8,1.9,0.5,1.6c1.3-0.3,3.8-1.3,2.2-1.6C161.8,109.4,160.7,109.7,160.7,109.7"/>
			<path class="st0" d="M197.2,84.8c0,0-2.5-0.9-0.9-1.6s4.8-1.5,3.5-0.2S197.2,84.8,197.2,84.8"/>
		</g>
		<line class="st3" x1="96.3" y1="277.6" x2="96.3" y2="291.9"/>
	</g>
	<g>
		<path class="st19" d="M318.1,61.5c4.4,3.4,7.1,13,1.5,23.5s-14.1,13.3-17.6,12.1C298.4,96,235.3,64,235.3,64l16.9-35.4
			C252.2,28.6,313.7,58.1,318.1,61.5z"/>
		<path class="st20" d="M302.5,53c2.3,1.4,4.9,13-0.7,23c-5.6,10-12.5,14.5-16,13.4c-3.5-1.1-31.3-16.1-31.3-16.1s9-1.1,15.6-12.6
			c6.6-11.5,3.1-21.8,3.1-21.8S300.2,51.6,302.5,53"/>
		<path class="st6" d="M254.2,53.2c-6,9-15.7,13.1-21.6,9.1c-5.9-4-5.8-14.5,0.2-23.5c6-9,15.7-13.1,21.6-9.1
			C260.3,33.7,260.2,44.2,254.2,53.2"/>
		<path class="st5" d="M254.2,53.2c-6,9-15.7,13.1-21.6,9.1c-5.9-4-5.8-14.5,0.2-23.5c6-9,15.7-13.1,21.6-9.1
			C260.3,33.7,260.2,44.2,254.2,53.2z"/>
		<path class="st6" d="M240.9,44.2c-2.6,3.9-6.9,5.7-9.5,4c-2.6-1.7-2.5-6.3,0.1-10.3c2.6-3.9,6.9-5.7,9.5-4
			C243.5,35.7,243.5,40.2,240.9,44.2"/>
		<path class="st21" d="M240.9,44.2c-2.6,3.9-6.9,5.7-9.5,4c-2.6-1.7-2.5-6.3,0.1-10.3c2.6-3.9,6.9-5.7,9.5-4
			C243.5,35.7,243.5,40.2,240.9,44.2z"/>
		<path class="st6" d="M237,41.8c-1,1.4-2.5,2.1-3.4,1.4c-0.9-0.6-0.9-2.3,0-3.7c1-1.4,2.5-2.1,3.4-1.4C238,38.7,238,40.3,237,41.8"
			/>
		<path class="st22" d="M237,41.8c-1,1.4-2.5,2.1-3.4,1.4c-0.9-0.6-0.9-2.3,0-3.7c1-1.4,2.5-2.1,3.4-1.4C238,38.7,238,40.3,237,41.8
			z"/>
		<path class="st23" d="M241,33.9c3.6,2.6,6.3,1.7,6.3,1.7c3.4-1.4,5.4,1.6,6,4.2c0.6,2.7-0.5,8.5-4.7,12.8c-2.8,2.9-5.3,4.9-7.8,5
			c-0.4,0-1.9-0.2-2.9-0.7c-1.1-0.5-1.2-1.1-1.2-1.2c-0.7-4.6-4.4-7.1-4.4-7.1s3.8,1.8,8.5-4.2C245.3,38.4,241,33.9,241,33.9"/>
		<path class="st6" d="M234,40.3c-1,1.4-2.5,2.1-3.4,1.4c-0.9-0.6-0.9-2.3,0-3.7c1-1.4,2.5-2.1,3.4-1.4
			C235,37.2,234.9,38.9,234,40.3"/>
		<path class="st24" d="M234,40.3c-1,1.4-2.5,2.1-3.4,1.4c-0.9-0.6-0.9-2.3,0-3.7c1-1.4,2.5-2.1,3.4-1.4
			C235,37.2,234.9,38.9,234,40.3z"/>
		<path class="st24" d="M234.1,36.7l2.9,1.4c0,0,1.5,1.4,0.2,3.4c-1.4,2-3,2-3,2l-3.4-1.7c0,0,2.3,0.2,3.4-2
			C235.2,37.6,234.1,36.7,234.1,36.7z"/>
		<path class="st25" d="M274.3,78.5c-0.1-4.3-0.1-8.6-0.2-12.9c2.8,2.6,5.6,5.2,8.6,7.6c0.2-3.2-0.9-6.6-3-9
			c0.3,0.3,0.9,0.2,1.1-0.2c0.3-0.3,0.3-0.8,0.3-1.3c0.2-3.2-0.2-6.3-1-9.4c0.5,0.5,1.2,0.7,1.8,0.4c0-0.5,0.1-0.9,0.1-1.4
			c1.7,0.2,3.4-0.7,4.4-2.1"/>
		
			<rect x="230.8" y="42.2" transform="matrix(0.8879 0.46 -0.46 0.8879 45.7166 -101.6159)" class="st26" width="1.2" height="1.6"/>
		<ellipse transform="matrix(0.4295 -0.9031 0.9031 0.4295 92.2839 233.59)" class="st27" cx="231" cy="43.8" rx="0.2" ry="0.6"/>
	</g>
</g>
</svg>
