<?xml version="1.0" encoding="utf-8"?>
<!-- Generator: Adobe Illustrator 25.2.1, SVG Export Plug-In . SVG Version: 6.00 Build 0)  -->
<svg version="1.1" id="Layer_1" xmlns="http://www.w3.org/2000/svg" xmlns:xlink="http://www.w3.org/1999/xlink" x="0px" y="0px"
	 viewBox="0 0 164.28 180.89" style="enable-background:new 0 0 164.28 180.89;" xml:space="preserve">
<style type="text/css">
	.st0{fill:none;stroke:#FFFFFF;stroke-width:0.25;stroke-miterlimit:10;}
	.st1{fill:#CBB8B9;stroke:#FFFFFF;stroke-width:0.25;stroke-miterlimit:10;}
	.st2{fill:#E4DAD8;stroke:#FFFFFF;stroke-width:0.25;stroke-miterlimit:10;}
	.st3{fill:#CBB8B9;stroke:#FFFFFF;stroke-width:0.25;stroke-linejoin:bevel;stroke-miterlimit:10;}
	.st4{fill:#E4DAD8;stroke:#FFFFFF;stroke-width:0.25;stroke-linejoin:bevel;stroke-miterlimit:10;}
	.st5{fill:#DD335A;stroke:#FFFFFF;stroke-width:0.25;stroke-miterlimit:10;}
	.st6{fill:#C52E55;stroke:#FFFFFF;stroke-width:0.25;stroke-miterlimit:10;}
	.st7{fill:none;stroke:#FFFFFF;stroke-width:0.2755;stroke-miterlimit:10;}
	.st8{fill:none;stroke:#B71549;stroke-width:0.2755;stroke-miterlimit:10;}
	.st9{fill:none;stroke:#B71549;stroke-width:0.2755;stroke-linecap:round;stroke-miterlimit:10;}
	.st10{fill:#B71549;}
	.st11{fill:#B71549;stroke:#FFFFFF;stroke-width:0.25;stroke-miterlimit:10;}
	.st12{fill:#B71549;stroke:#FFFFFF;stroke-width:0.2663;stroke-miterlimit:10;}
	.st13{fill:#EE7345;stroke:#FFFFFF;stroke-width:0.2777;stroke-miterlimit:10;}
	.st14{fill:none;stroke:#FFFFFF;stroke-width:0.2777;stroke-miterlimit:10;}
	.st15{fill:#EE7345;stroke:#FFFFFF;stroke-width:0.2755;stroke-miterlimit:10;}
	.st16{fill:#DD335A;stroke:#FFFFFF;stroke-width:0.2663;stroke-miterlimit:10;}
	.st17{fill:none;stroke:#B71549;stroke-width:1.5979;stroke-linecap:round;stroke-miterlimit:10;}
	.st18{fill:#C52E55;}
	.st19{fill:#B71549;stroke:#FFFFFF;stroke-width:0.5;stroke-miterlimit:10;}
	.st20{fill:none;stroke:#FFFFFF;stroke-width:0.25;stroke-linejoin:bevel;stroke-miterlimit:10;}
</style>
<g>
	<line class="st0" x1="66.01" y1="142.53" x2="66.01" y2="150.34"/>
	<line class="st0" x1="65.74" y1="142.39" x2="65.68" y2="150.51"/>
	<g>
		<polygon class="st1" points="17.32,132.53 61.6,154.99 136.74,117.15 136.91,108.43 95.03,89.29 17.33,128.45 		"/>
		<polygon class="st1" points="17.35,133.24 17.45,124.74 61.69,146.4 61.51,154.98 		"/>
		<polygon class="st1" points="8,135.33 8.01,142.4 61.86,169.55 152.7,123.83 152.57,116.6 61.79,161.76 		"/>
		<polygon class="st2" points="61.48,161.75 152.75,116.61 98.78,90.37 8.18,134.78 		"/>
		<polygon class="st1" points="17.32,132.53 61.45,155.33 138.29,116.27 138.45,107.55 95.03,89.29 17.33,128.45 		"/>
		<polygon class="st3" points="17.35,133.24 17.45,124.74 61.45,146.92 61.4,155.4 		"/>
		<polygon class="st3" points="8.31,134.82 8.27,143.3 61.45,170.02 153,123.61 152.85,116.38 61.46,161.78 		"/>
		<path class="st4" d="M17.54,124.71c-0.01,0.03,43.83,22.19,43.83,22.19l77.4-39.56L94.42,85.89L17.54,124.71z"/>
		<g>
			<polygon class="st5" points="39.14,128.36 61.41,139.56 61.43,129.33 38.72,118.22 			"/>
			<polygon class="st6" points="61.44,139.41 124.93,107.84 125.29,98.9 61.47,129.36 			"/>
			<line class="st7" x1="38.72" y1="118.18" x2="101.27" y2="86.29"/>
			<line class="st8" x1="62.52" y1="126.63" x2="118.75" y2="100.19"/>
			<path class="st9" d="M45.47,117.25c-0.37-0.69,54.64-28.98,54.64-28.98"/>
			<g>
				<polygon class="st10" points="60.89,126.71 62.02,125.9 61.05,124.89 58.95,124.71 57.81,125.51 58.78,126.51 				"/>
				<path class="st10" d="M60.68,126.31l0.27-0.19c0.2-0.14,0.23-0.43,0.06-0.61l-0.23-0.24c-0.07-0.07-0.15-0.11-0.25-0.12
					l-1.14-0.11c-0.09-0.01-0.19,0.02-0.27,0.07l-0.27,0.19c-0.2,0.15-0.23,0.43-0.06,0.61l0.23,0.24c0.07,0.07,0.15,0.11,0.25,0.12
					l1.14,0.11C60.51,126.39,60.6,126.37,60.68,126.31z"/>
			</g>
			<g>
				<polygon class="st10" points="118.5,98.85 119.63,98.05 118.66,97.04 116.56,96.85 115.42,97.66 116.39,98.66 				"/>
				<path class="st10" d="M118.29,98.46l0.27-0.19c0.2-0.14,0.23-0.43,0.06-0.61l-0.23-0.24c-0.07-0.07-0.14-0.11-0.25-0.12
					l-1.14-0.11c-0.09-0.01-0.19,0.02-0.27,0.07l-0.27,0.19c-0.2,0.15-0.23,0.43-0.06,0.61l0.23,0.24c0.07,0.07,0.14,0.11,0.25,0.12
					l1.14,0.11C118.12,98.54,118.21,98.5,118.29,98.46z"/>
			</g>
			<g>
				<polygon class="st10" points="50.76,118.61 51.85,117.84 50.92,116.89 48.92,116.71 47.83,117.47 48.76,118.43 				"/>
				<path class="st10" d="M50.57,118.22l0.26-0.18c0.19-0.14,0.22-0.41,0.05-0.58l-0.22-0.23c-0.06-0.07-0.15-0.11-0.24-0.11
					l-1.09-0.1c-0.09-0.01-0.18,0.02-0.25,0.07l-0.26,0.18c-0.19,0.15-0.22,0.41-0.05,0.58l0.22,0.23c0.06,0.07,0.15,0.11,0.24,0.11
					l1.09,0.1C50.4,118.31,50.49,118.29,50.57,118.22z"/>
			</g>
			<polygon class="st11" points="33.94,125.6 61.41,139.38 61.43,129.33 33.9,115.44 			"/>
			<polygon class="st11" points="61.41,139.42 125.39,107.85 125.26,97.84 61.45,129.37 			"/>
			<path class="st12" d="M102.06,91.88l5.63-2.84c0,0-0.47,1.57,0.8,2.16c1.27,0.59,3.45-0.19,3.45-0.19l-7.69,3.4L102.06,91.88z"/>
			<g>
				<path class="st13" d="M59.7,118.83c0.2-0.07,0.07-0.83,0.07-0.83l0.95-0.43c0,0,5.34,0.43,7.13,0.42
					c1.43-0.02,3.94-0.32,5.57-1.35c1.63-1.04,2.05-1.86,2.05-1.86l0.52-0.43l1.38-0.67c0,0-0.07,0.23,0.92,0.01
					s2.69-1.03,2.69-1.03l2.27-1.29c0,0,0.72-0.7,0.75-0.85c0.02-0.14,0.5,0.18,0.66,0.15c0.17-0.04,2.06-1.16,2.25-1.17
					c0.19-0.01,0.66-0.48,0.66-0.57l0.8,0.06c0,0,1.73-0.93,2.17-1.25c0.14-0.1,0.22-0.67,0.22-0.67s0.43,0.27,0.58,0.2l2.35-1.15
					l0.51-0.62l0.36,0.16l3.64-1.92l0.45-0.14c0,0,0.39-0.38,0.55-0.46l0.4,0.11l3.08-1.77c0.11-0.07,4.03-1.5,1.04-7.73
					c-2.72-5.68-6.46-4.56-7.45-4.36c-0.67,0.15-2.55,1-2.9,1.25c-0.1,0.07-0.17,0.41-0.25,0.45c-0.09,0.04-0.3-0.13-0.4-0.09
					c-0.81,0.32-3.7,1.76-4.32,2.23c-0.07,0.05-0.07,0.34-0.07,0.34s-0.42-0.01-0.55,0.02c-0.4,0.12-1.77,0.79-2.62,1.16
					c-0.09,0.04-0.12,0.43-0.12,0.43s-0.45-0.01-0.59,0.02c-0.41,0.11-2.38,1.18-2.38,1.18c-0.07,0.03-0.08,0.05-0.13,0.09
					c-0.14,0.13-0.13,0.35,0,0.48l-0.04,0.02c0,0-0.66-0.21-0.8-0.14c-0.51,0.18-2.22,0.97-2.77,1.34
					c-0.05,0.04-0.04,0.35-0.19,0.43c-0.16,0.1-0.47-0.02-0.56-0.01c-0.87,0.16-4.92,2.34-4.92,2.34l-1.05,1.17l-1.69,0.87
					L68.89,103c0,0-3.06,0.55-5.4,3.01c-2.34,2.46-5.02,6.96-5.02,6.96l-0.72,0.43c0,0-0.21,0.19-0.34,0.17
					c-0.15-0.02-0.41-0.4-0.58-0.29c-0.21,0.14,0.02,0.77-0.16,0.9c-0.43,0.29-1.72,0.86-1.72,0.86l-0.96,0.43
					c0,0,0.76,0.02,1.58,1.69c1,2.05,0.64,2.78,0.64,2.78l2.34-1.29l0.54-0.14C59.06,118.54,59.52,118.89,59.7,118.83z"/>
				<path class="st14" d="M59.4,118.8c0,0-0.14-2.53-2.69-5.36"/>
				<path class="st7" d="M57.1,113.32c2.56,2.83,2.56,5.23,2.56,5.23"/>
				<path class="st13" d="M55.99,120.08c-0.41,0.2-1.3-0.83-1.88-2.02c-0.57-1.19-0.71-2.31-0.3-2.51c0.41-0.2,1.21,0.6,1.78,1.79
					C56.17,118.53,56.41,119.88,55.99,120.08z"/>
				<path class="st15" d="M54.97,117.61"/>
				<path class="st15" d="M66.05,103.17"/>
				<path class="st7" d="M84.08,110.37c0,0,0.47-2.33-1.6-6.62c-2.14-4.43-4.32-5.28-4.32-5.28"/>
				<path class="st7" d="M87.47,108.79c0,0,0.78-2.18-1.29-6.46c-2.13-4.42-4.46-5.4-4.46-5.4"/>
				<path class="st7" d="M94.24,105.42c0,0,0.98-2.49-1.08-6.78c-2.13-4.43-4.72-4.97-4.72-4.97"/>
				<path class="st7" d="M90.72,106.93c0,0,0.88-2.29-1.18-6.58c-2.13-4.43-4.54-5.09-4.54-5.09"/>
				<path class="st7" d="M99.08,103.08c0,0,0.96-2.55-1.17-6.98c-2.2-4.57-4.81-5.16-4.81-5.16"/>
				<path class="st7" d="M75.59,114.37c0,0-0.55-3.74-1.72-6.5c-1.17-2.76-3.94-5.11-3.94-5.11"/>
				<path class="st7" d="M77.33,113.54c0,0-0.19-3.45-1.57-6.35c-1.38-2.91-4.24-5.1-4.24-5.1"/>
			</g>
			<path class="st16" d="M111.46,90.88l-7.37,3.62c0.72,1.9,0.77,3.3,0.51,4.33c-0.53,2.07-2.17,2.74-2.17,2.74l-2.8,1.5l-0.42-0.18
				c-0.16,0.08-0.33,0.42-0.33,0.42l-4.17,2.24l-0.54-0.09l-0.61,0.63l-2.35,1.15c-0.14,0.07-0.46-0.18-0.46-0.18
				s-0.19,0.54-0.34,0.65c-0.45,0.32-2.17,1.25-2.17,1.25l-0.72-0.17c0.01,0.09-0.55,0.67-0.74,0.68c-0.19,0.01-2.03,1.06-2.2,1.1
				s-0.62-0.27-0.63-0.12c-0.02,0.14-0.45,0.67-0.45,0.67l-2.64,1.53c0,0-1.7,0.81-2.69,1.03s-0.93-0.01-0.93-0.01l-1.38,0.65
				l-0.52,0.43c0,0-0.42,0.82-2.05,1.86c-1.63,1.04-4.13,1.34-5.57,1.35c-1.78,0.02-7.13-0.42-7.13-0.42L59.64,118
				c0,0,0.13,0.76-0.07,0.83c-0.18,0.06-0.64-0.29-0.64-0.29l-0.54,0.15l-2.34,1.29c0,0-0.51-0.53-1.51-2.58
				c-0.82-1.67-0.71-1.89-0.71-1.89l0.96-0.43c0,0,1.29-0.57,1.72-0.86c0.18-0.12-0.04-0.76,0.16-0.9c0.17-0.12,0.43,0.26,0.58,0.29
				c0.15,0.02,0.34-0.17,0.34-0.17L58.3,113c0,0,2.68-4.49,5.02-6.96c2.34-2.46,5.4-3.01,5.4-3.01l1.02-0.06l1.69-0.87l1.05-1.17
				c0,0,4.05-2.17,4.92-2.34c0.09-0.02,0.41,0.11,0.56,0.01c0.15-0.09,0.13-0.4,0.19-0.43c0.56-0.37,2.27-1.16,2.77-1.34
				c0.14-0.05,0.8,0.14,0.8,0.14l0.04-0.02c-0.13-0.13-0.14-0.36,0-0.48c0.04-0.04,0.06-0.06,0.13-0.09c0,0,1.97-1.07,2.41-1.18
				c0.14-0.04,0.59-0.02,0.59-0.02s0.03-0.4,0.12-0.43c0.85-0.37,2.22-1.04,2.62-1.16c0.13-0.04,0.55-0.02,0.55-0.02
				s0-0.29,0.07-0.34c0.62-0.48,3.51-1.91,4.32-2.23c0.1-0.04,0.31,0.13,0.4,0.09c0.08-0.03,0.14-0.37,0.25-0.45
				c0.35-0.25,2.24-1.12,2.9-1.25c0.87-0.18,3.75-0.2,6.46,2.33l5.09-2.65L97.43,83.5l-63.42,32l27.51,13.98l63.74-31.82
				L111.46,90.88z"/>
			<line class="st17" x1="65.9" y1="123.64" x2="113.62" y2="100.02"/>
			<line class="st17" x1="46.31" y1="112.4" x2="93.69" y2="88.12"/>
			<g>
				<polygon class="st10" points="98.61,87.33 99.7,86.56 98.77,85.61 96.77,85.42 95.68,86.19 96.61,87.14 				"/>
				<path class="st18" d="M98.41,86.95l0.26-0.18c0.19-0.15,0.22-0.41,0.05-0.58l-0.22-0.23c-0.06-0.07-0.14-0.11-0.24-0.11
					l-1.09-0.1c-0.09-0.01-0.18,0.02-0.25,0.07l-0.26,0.18c-0.19,0.14-0.22,0.41-0.05,0.58l0.22,0.23c0.06,0.07,0.14,0.11,0.24,0.11
					l1.09,0.1C98.25,87.03,98.33,87,98.41,86.95z"/>
			</g>
			<g>
				<polygon class="st10" points="118.32,97.6 119.45,96.79 118.48,95.8 116.38,95.59 115.24,96.41 116.21,97.4 				"/>
				<path class="st18" d="M118.11,97.2l0.27-0.19c0.2-0.14,0.23-0.43,0.06-0.61l-0.23-0.24c-0.07-0.07-0.14-0.11-0.25-0.12
					l-1.14-0.11c-0.09-0.01-0.19,0.02-0.27,0.07l-0.27,0.19c-0.2,0.15-0.23,0.43-0.06,0.61l0.23,0.24c0.07,0.07,0.15,0.11,0.25,0.12
					l1.14,0.11C117.93,97.28,118.03,97.26,118.11,97.2z"/>
			</g>
			<g>
				<polygon class="st10" points="61.79,125.4 62.94,124.59 61.96,123.6 59.86,123.41 58.72,124.21 59.69,125.21 				"/>
				<path class="st18" d="M61.59,125.01l0.27-0.19c0.2-0.15,0.23-0.43,0.06-0.61l-0.23-0.24c-0.07-0.07-0.15-0.11-0.25-0.12
					l-1.14-0.11c-0.09-0.01-0.19,0.02-0.27,0.07l-0.27,0.19c-0.2,0.14-0.23,0.43-0.06,0.61l0.23,0.24c0.07,0.07,0.15,0.11,0.25,0.12
					l1.14,0.11C61.42,125.09,61.51,125.06,61.59,125.01z"/>
			</g>
			<g>
				<polygon class="st10" points="46.13,116.97 47.27,116.17 46.3,115.17 44.2,114.97 43.06,115.78 44.03,116.77 				"/>
				<path class="st18" d="M45.93,116.58l0.27-0.19c0.2-0.14,0.23-0.43,0.06-0.61l-0.23-0.24c-0.07-0.07-0.15-0.11-0.25-0.12
					l-1.14-0.11c-0.09-0.01-0.19,0.02-0.27,0.07l-0.27,0.19c-0.2,0.15-0.23,0.43-0.06,0.61l0.23,0.24c0.07,0.07,0.15,0.11,0.25,0.12
					l1.14,0.11C45.75,116.66,45.85,116.63,45.93,116.58z"/>
			</g>
			<g>
				<path class="st11" d="M105.95,82.17l6.92,3.46c0,0,0.35-0.9,2.51-0.01c2.16,0.88,2.26,2.4,2.26,2.4l12.84,6.42l-0.66-66.06
					l-23.99-13.32L105.95,82.17z"/>
				<path class="st18" d="M109.17,77.87c0,0,0.98,0.94,1.71,1.78c0.72,0.84,1.5,1.21,1.5,1.21s2.54,0.09,3.58,0.54
					c1.04,0.45,1.73,1.06,1.8,1.43c0.02,0.15,0.79,0.09,0.79,0.09s3.59-0.04,5.57-1.66c0.1-0.09,0.16-0.2,0.18-0.31
					c0,0-2.18-2.5-4.16-3.61c-1.03-0.58-4.98-1.45-6.7-1.62C111.39,75.52,109.17,77.87,109.17,77.87z"/>
				<path class="st5" d="M130.83,94.69l0.06-67.66L103.01,12.7l-0.12,68.09l10.64,5.4l0.08-5.3c-2.54-0.96-3.94-2.94-4.17-3.79
					c-0.18-0.66-0.25-2.73-0.19-3.16c0.02-0.13,0.29-0.34,0.29-0.42c-0.01-0.1-0.25-0.2-0.26-0.32c-0.08-0.87-0.1-4.1,0.05-4.86
					c0.02-0.09,0.27-0.21,0.27-0.21s-0.2-0.37-0.23-0.5c-0.07-0.41-0.09-1.94-0.14-2.86c-0.01-0.1,0.34-0.3,0.34-0.3
					s-0.21-0.39-0.25-0.54c-0.1-0.45-0.04-2.68-0.04-2.68c0-0.08,0.01-0.1,0.02-0.16c0.05-0.18,0.25-0.28,0.43-0.22v-0.04
					c0,0-0.48-0.5-0.5-0.65c-0.07-0.53-0.13-2.42-0.05-3.08c0.01-0.06,0.29-0.19,0.31-0.36s-0.23-0.41-0.26-0.5
					c-0.25-0.85-0.13-5.45-0.13-5.45l0.75-1.06l0.01-1.42l-0.59-1.6c0,0-0.89-3.2,0.25-6.4c1.14-3.2,3.95-6.56,3.95-6.56l0.07-0.84
					c0,0,0.08-0.27-0.01-0.38c-0.08-0.11-0.55-0.18-0.52-0.39c0.04-0.25,0.7-0.33,0.72-0.55c0.07-0.51,0-1.92,0-1.92l0.17-1.31
					c0,0,3.4,0.02,5.05,1.65l-0.14,3.25v0.31c0,0,0.29,0.39,0.31,0.57c0.03,0.21-0.57,0.26-0.57,0.26v0.42c0,0,2.24,4.03,3.02,5.63
					c0.63,1.28,1.96,4.44,1.77,6.36c-0.19,1.92-0.78,2.4-0.78,2.4l-0.2,1.49l0.24,1.21c0,0,0.18,0.37,0.43,1.36
					c0.26,0.98,0.29,2.87,0.29,2.87l-0.13,2.61c0,0-0.3,0.97-0.42,1.05c-0.12,0.08,0.38,0.36,0.42,0.53
					c0.04,0.17-0.1,2.36-0.03,2.53c0.07,0.17-0.13,0.81-0.22,0.84l0.41,0.69c0,0-0.05,1.96-0.13,2.51c-0.03,0.17-0.5,0.49-0.5,0.49
					s0.43,0.27,0.43,0.42l0.03,2.62l-0.32,0.74l0.31,0.25l-0.07,4.12l0.07,0.47c0,0-0.16,0.52-0.16,0.7l0.28,0.31l-0.35,3.84
					c0,0-0.74,2.77-5.82,1.31l-0.06,5.72L130.83,94.69z"/>
				<line class="st17" x1="105.99" y1="74.26" x2="106.44" y2="25.04"/>
				<line class="st17" x1="127.03" y1="82.35" x2="127.03" y2="34.5"/>
				<polygon class="st11" points="130.89,26.85 130.83,94.69 139.63,90.35 139.74,22.42 				"/>
				<polygon class="st19" points="103.01,12.7 130.89,26.94 139.96,22.4 111.96,8.15 				"/>
				<g>
					<g>
						<polygon class="st10" points="104.9,17.58 106.05,18.46 106.79,20.28 106.42,21.15 105.25,20.29 104.51,18.48 						"/>
						<polygon class="st10" points="106.41,21.17 107.28,20.77 107.68,19.86 106.93,18.08 105.8,17.21 104.91,17.55 106.07,18.48 
							106.81,20.28 						"/>
					</g>
					<g>
						<path class="st18" d="M105.24,20.56l0.6-0.26c0,0,0.3-0.25-0.01-0.98c-0.31-0.73-0.75-0.73-0.75-0.73l-0.59,0.26L105.24,20.56
							z"/>
						<path class="st18" d="M104.48,18.86c0.2-0.09,0.57,0.2,0.78,0.67c0.21,0.48,0.17,0.94-0.02,1.03
							c-0.2,0.09-0.52-0.22-0.72-0.69C104.3,19.4,104.29,18.95,104.48,18.86z"/>
						<path class="st18" d="M105.26,20.55c0,0-0.8,0.35-1.18-0.53s0.41-1.15,0.41-1.15"/>
					</g>
				</g>
				<g>
					<g>
						<polygon class="st10" points="125.31,27.63 126.44,28.51 127.19,30.32 126.81,31.19 125.65,30.32 124.9,28.52 						"/>
						<polygon class="st10" points="126.81,31.21 127.68,30.8 128.08,29.9 127.33,28.12 126.2,27.25 125.31,27.59 126.46,28.52 
							127.21,30.32 						"/>
					</g>
					<g>
						<path class="st18" d="M125.63,30.6l0.6-0.26c0,0,0.3-0.25-0.01-0.98c-0.31-0.73-0.75-0.73-0.75-0.73l-0.59,0.26L125.63,30.6z"
							/>
						<path class="st18" d="M124.88,28.89c0.2-0.09,0.57,0.2,0.78,0.67c0.21,0.47,0.17,0.94-0.02,1.03
							c-0.19,0.09-0.52-0.22-0.72-0.69C124.7,29.44,124.69,28.99,124.88,28.89z"/>
						<path class="st18" d="M125.65,30.59c0,0-0.8,0.35-1.18-0.53c-0.38-0.88,0.41-1.15,0.41-1.15"/>
					</g>
				</g>
				<g>
					<g>
						<polygon class="st10" points="125.94,87.43 127.09,88.3 127.83,90.11 127.46,90.98 126.29,90.12 125.55,88.31 						"/>
						<polygon class="st10" points="127.45,91 128.32,90.6 128.72,89.69 127.97,87.91 126.84,87.04 125.95,87.39 127.11,88.32 
							127.85,90.11 						"/>
					</g>
					<g>
						<path class="st18" d="M126.28,90.38l0.6-0.26c0,0,0.3-0.25-0.01-0.98c-0.31-0.72-0.75-0.72-0.75-0.72l-0.59,0.26L126.28,90.38
							z"/>
						<path class="st18" d="M125.53,88.69c0.2-0.09,0.57,0.2,0.78,0.67c0.21,0.47,0.17,0.94-0.02,1.03
							c-0.2,0.09-0.52-0.22-0.72-0.69C125.34,89.22,125.33,88.78,125.53,88.69z"/>
						<path class="st18" d="M126.3,90.37c0,0-0.8,0.35-1.18-0.53c-0.38-0.89,0.41-1.15,0.41-1.15"/>
					</g>
				</g>
				<g>
					<g>
						<polygon class="st10" points="105.34,78.34 106.49,79.22 107.23,81.03 106.86,81.9 105.69,81.03 104.95,79.23 						"/>
						<polygon class="st10" points="106.85,81.92 107.72,81.51 108.12,80.61 107.37,78.83 106.24,77.96 105.36,78.3 106.51,79.23 
							107.25,81.03 						"/>
					</g>
					<g>
						<path class="st18" d="M105.68,81.31l0.6-0.26c0,0,0.3-0.25-0.01-0.98c-0.31-0.72-0.75-0.72-0.75-0.72l-0.59,0.26L105.68,81.31
							z"/>
						<path class="st18" d="M104.93,79.61c0.2-0.09,0.57,0.2,0.78,0.67c0.21,0.47,0.17,0.94-0.02,1.03
							c-0.2,0.09-0.52-0.22-0.72-0.69C104.74,80.15,104.73,79.7,104.93,79.61z"/>
						<path class="st18" d="M105.7,81.3c0,0-0.8,0.35-1.18-0.53s0.41-1.15,0.41-1.15"/>
					</g>
				</g>
			</g>
		</g>
	</g>
	<line class="st20" x1="61.18" y1="161.59" x2="61.18" y2="169.95"/>
</g>
</svg>
