<?xml version="1.0" encoding="utf-8"?>
<!-- Generator: Adobe Illustrator 25.2.3, SVG Export Plug-In . SVG Version: 6.00 Build 0)  -->
<svg version="1.1" id="Layer_1" xmlns="http://www.w3.org/2000/svg" xmlns:xlink="http://www.w3.org/1999/xlink" x="0px" y="0px"
	 viewBox="0 0 304.3 311.3" style="enable-background:new 0 0 304.3 311.3;" xml:space="preserve">
<style type="text/css">
	.st0{fill:none;stroke:#FFFFFF;stroke-width:0.525;stroke-linejoin:bevel;stroke-miterlimit:10;}
	.st1{fill:#CCB9B9;stroke:#FFFFFF;stroke-width:0.525;stroke-miterlimit:10;}
	.st2{fill:#E4DAD8;stroke:#FFFFFF;stroke-width:0.525;stroke-miterlimit:10;}
	.st3{fill:#CCB9B9;stroke:#FFFFFF;stroke-width:0.525;stroke-linejoin:bevel;stroke-miterlimit:10;}
	.st4{fill:#E4DAD8;stroke:#FFFFFF;stroke-width:0.525;stroke-linejoin:bevel;stroke-miterlimit:10;}
	.st5{fill:none;stroke:#FFFFFF;stroke-width:0.525;stroke-miterlimit:10;}
	.st6{fill:#CCB9B9;}
	.st7{fill:#CCB9B9;stroke:#FFFFFF;stroke-width:0.8303;stroke-miterlimit:10;}
	.st8{fill:#F77441;}
	.st9{fill:#B79797;stroke:#FFFFFF;stroke-width:0.8303;stroke-miterlimit:10;}
	.st10{fill:#361D32;stroke:#FFFFFF;stroke-width:0.2253;stroke-miterlimit:10;}
	.st11{fill:none;stroke:#361D32;stroke-width:0.1467;stroke-miterlimit:10;}
	.st12{fill:#E4DAD8;stroke:#FFFFFF;stroke-width:0.2253;stroke-miterlimit:10;}
	.st13{fill:none;stroke:#FFFFFF;stroke-width:0.9394;stroke-miterlimit:10;}
	.st14{fill:#E4DAD8;stroke:#FFFFFF;stroke-width:0.1619;stroke-miterlimit:9.9994;}
	.st15{fill:#E4DAD8;stroke:#FFFFFF;stroke-width:0.1292;stroke-miterlimit:10.0009;}
	.st16{fill:#F77441;stroke:#FFFFFF;stroke-width:0.525;stroke-miterlimit:10;}
	.st17{fill:#361D32;stroke:#FFFFFF;stroke-width:0.2625;stroke-miterlimit:10;}
	.st18{fill:#E4DAD8;stroke:#FFFFFF;stroke-width:0.2625;stroke-miterlimit:10;}
	.st19{fill:#F77441;stroke:#FFFFFF;stroke-width:0.4522;stroke-miterlimit:10;}
	.st20{fill:#F77441;stroke:#FFFFFF;stroke-width:0.6408;stroke-miterlimit:10;}
	.st21{fill:none;stroke:#FFFFFF;stroke-width:0.6459;stroke-miterlimit:10;}
</style>
<g>
	<g>
		<line class="st0" x1="106.8" y1="281.7" x2="106.7" y2="297.8"/>
		<polygon class="st1" points="23.8,234.4 107.5,276.8 249.6,205.3 249.9,188.8 170.8,152.6 23.9,226.6 		"/>
		<polygon class="st1" points="23.9,235.6 24.1,219.7 107.7,260.6 107.3,276.8 		"/>
		<polygon class="st1" points="6.2,239.6 6.2,253 108,304.4 279.7,217.9 279.4,204.3 107.9,289.6 		"/>
		<path class="st2" d="M24.2,219.6c0,0,83.4,41.1,83.5,41l142-71.7l-83.9-40.5L24.2,219.6z"/>
		<polygon class="st2" points="107.2,289.6 279.9,204.3 177.8,154.7 6.5,238.6 		"/>
		<polygon class="st1" points="23.8,234.4 107.2,277.4 252.4,203.6 252.8,187.1 170.8,152.6 23.9,226.6 		"/>
		<polygon class="st3" points="23.9,235.6 24.1,219.7 107.2,261.6 107.1,277.6 		"/>
		<polygon class="st3" points="6.7,238.7 6.6,254.8 107.2,305.3 280.3,217.5 280.1,203.8 107.2,289.6 		"/>
		<path class="st4" d="M24.2,219.6l82.8,41.9l146.4-74.8l-83.9-40.5L24.2,219.6z"/>
		<line class="st5" x1="107.2" y1="290" x2="107.2" y2="305.1"/>
	</g>
	<g>
		<path class="st6" d="M167,113.7c0,0-0.6,2,0.6,1.6c1.4-0.4,3.7-1.7,2.1-1.8C168.1,113.3,167,113.7,167,113.7"/>
		<path class="st6" d="M169.9,107.8c0,0-0.6,2,0.7,1.6c1.4-0.4,3.7-1.8,2-1.9C171,107.3,169.9,107.8,169.9,107.8"/>
		<path class="st6" d="M167.5,110.3c0,0-0.5,2,0.8,1.6c1.3-0.5,3.6-2,1.9-2C168.6,109.9,167.5,110.3,167.5,110.3"/>
		<path class="st6" d="M172.2,112.8c0,0-0.6,2,0.7,1.6c1.4-0.4,3.7-1.8,2-1.9C173.3,112.4,172.2,112.8,172.2,112.8"/>
		<path class="st6" d="M174.7,109.6c0,0-0.5,2,0.7,1.6c1.4-0.4,3.7-1.9,2-1.9C175.8,109.2,174.7,109.6,174.7,109.6"/>
		<path class="st6" d="M173.1,117.6c0,0-0.5,2,0.8,1.6c1.3-0.5,3.6-2,1.9-2C174.1,117.2,173.1,117.6,173.1,117.6"/>
		<path class="st6" d="M176.1,105.9c0,0-0.7,2,0.6,1.6c1.4-0.3,3.8-1.6,2.1-1.8C177.2,105.6,176.1,105.9,176.1,105.9"/>
		<path class="st6" d="M179.4,111.9c0,0-0.5,2,0.8,1.6c1.3-0.5,3.6-2,1.9-2C180.4,111.4,179.4,111.9,179.4,111.9"/>
		<path class="st6" d="M181.2,105.9c0,0-0.5,2,0.7,1.6c1.4-0.4,3.7-1.9,2-1.9C182.2,105.4,181.2,105.9,181.2,105.9"/>
		<path class="st6" d="M191.7,112.7c0,0,0,2.1,1.2,1.4c1.2-0.8,3-2.8,1.4-2.4C192.6,112,191.7,112.7,191.7,112.7"/>
		<path class="st6" d="M188.2,109.9c0,0-0.5,2,0.8,1.6c1.3-0.5,3.6-2,1.9-2S188.2,109.9,188.2,109.9"/>
		<path class="st6" d="M186.7,105.3c0,0-0.7,2,0.6,1.7c1.4-0.3,3.8-1.5,2.1-1.7C187.9,105,186.7,105.3,186.7,105.3"/>
		<path class="st6" d="M184.8,100.5c0,0-0.7,2,0.6,1.6c1.4-0.3,3.8-1.5,2.1-1.7C185.9,100.2,184.8,100.5,184.8,100.5"/>
		<path class="st6" d="M190.4,102.9c0,0-0.5,2,0.8,1.6c1.3-0.5,3.6-2,1.9-2C191.4,102.5,190.4,102.9,190.4,102.9"/>
		<path class="st6" d="M190.9,118.8c0,0,0.2,2.2,1.4,1.3c1.2-0.9,2.8-3.3,1.2-2.6C191.9,117.9,190.9,118.8,190.9,118.8"/>
		<path class="st6" d="M183.1,110.2c0,0-0.5,2,0.8,1.6c1.3-0.5,3.6-2,1.9-2C184.2,109.8,183.1,110.2,183.1,110.2"/>
		<path class="st6" d="M184.2,115.4c0,0-0.5,2,0.8,1.6c1.3-0.5,3.6-2,1.9-2C185.2,115,184.2,115.4,184.2,115.4"/>
		<path class="st6" d="M178.6,121.7c0,0-0.9,1.9,0.4,1.7s3.9-1.2,2.3-1.6C179.8,121.5,178.6,121.7,178.6,121.7"/>
		<path class="st6" d="M185.1,124.9c0,0-0.4,2.1,0.8,1.6c1.3-0.5,3.6-2.1,1.9-2.1C186.2,124.3,185.1,124.9,185.1,124.9"/>
		<path class="st6" d="M179.8,133.6c0,0-0.1,2.9,1.6,1.9c1.7-1.1,4.4-3.8,2.1-3.4C181.2,132.6,179.8,133.6,179.8,133.6"/>
		<path class="st6" d="M175.7,129.2c0,0-0.5,2.1,0.8,1.6s3.7-2.1,1.9-2.1C176.7,128.7,175.7,129.2,175.7,129.2"/>
		<path class="st6" d="M172.2,128.9c0,0-0.8,1.9,0.5,1.7c1.4-0.2,3.9-1.3,2.2-1.6C173.4,128.5,172.2,128.9,172.2,128.9"/>
		<path class="st6" d="M165,130.2c0,0-0.5,2,0.8,1.6c1.3-0.5,3.6-2,1.9-2C166,129.8,165,130.2,165,130.2"/>
		<path class="st6" d="M175.9,138.2c0,0-0.1,3.2,1.7,2c1.8-1.2,4.7-4,2.2-3.5C177.4,137.3,175.9,138.2,175.9,138.2"/>
		<path class="st6" d="M173.9,139.8c1.2-1.4,2.8-4.3,0.9-3.4c-1.9,0.9-2.8,2.1-2.8,2.1"/>
		<path class="st6" d="M186.6,130.8c0,0-1.5,1.6,0,1.8c1.5,0.2,4.2,0,2.7-0.8C187.8,131,186.6,130.8,186.6,130.8"/>
		<path class="st6" d="M183,136.4c0,0-0.8,2.3,0.7,1.9s4.4-1.9,2.5-2.1C184.3,136,183,136.4,183,136.4"/>
		<path class="st6" d="M164.5,125.5c0,0-0.5,2,0.8,1.6c1.3-0.5,3.6-2,1.9-2C165.5,125,164.5,125.5,164.5,125.5"/>
		<path class="st6" d="M159.8,122.6c0,0-0.8,1.9,0.5,1.7c1.4-0.2,3.9-1.4,2.2-1.6C160.9,122.2,159.8,122.6,159.8,122.6"/>
		<path class="st6" d="M197.2,97c0,0-2.5-0.9-0.9-1.7c1.6-0.7,4.9-1.6,3.6-0.2C198.5,96.5,197.2,97,197.2,97"/>
	</g>
	<g>
		<path class="st6" d="M128.8,132.7c0,0-0.6,2,0.6,1.6c1.4-0.4,3.7-1.7,2.1-1.8C129.8,132.4,128.8,132.7,128.8,132.7"/>
		<path class="st6" d="M131.7,126.8c0,0-0.6,2,0.7,1.6s3.7-1.8,2-1.9S131.7,126.8,131.7,126.8"/>
		<path class="st6" d="M129.3,129.3c0,0-0.5,2,0.8,1.6c1.3-0.5,3.6-2,1.9-2C130.3,128.9,129.3,129.3,129.3,129.3"/>
		<path class="st6" d="M134,131.8c0,0-0.6,2,0.7,1.6c1.4-0.4,3.7-1.8,2-1.9C135.1,131.4,134,131.8,134,131.8"/>
		<path class="st6" d="M136.4,128.7c0,0-0.5,2,0.7,1.6c1.4-0.4,3.7-1.9,2-1.9C137.5,128.2,136.4,128.7,136.4,128.7"/>
		<path class="st6" d="M134.7,136.6c0,0-0.5,2,0.8,1.6c1.3-0.5,3.6-2,1.9-2C135.8,136.2,134.7,136.6,134.7,136.6"/>
		<path class="st6" d="M137.8,124.9c0,0-0.7,2,0.6,1.6c1.4-0.3,3.8-1.6,2.1-1.8C138.8,124.6,137.8,124.9,137.8,124.9"/>
		<path class="st6" d="M141,130.9c0,0-0.5,2,0.8,1.6c1.3-0.5,3.6-2,1.9-2C142.1,130.4,141,130.9,141,130.9"/>
		<path class="st6" d="M142.8,124.9c0,0-0.5,2,0.7,1.6c1.4-0.4,3.7-1.9,2-1.9C143.9,124.5,142.8,124.9,142.8,124.9"/>
		<path class="st6" d="M153.4,131.7c0,0,0,2.1,1.2,1.4c1.2-0.8,3-2.8,1.4-2.4C154.3,131,153.4,131.7,153.4,131.7"/>
		<path class="st6" d="M149.9,129c0,0-0.5,2,0.8,1.6c1.3-0.5,3.6-2,1.9-2C150.9,128.4,149.9,129,149.9,129"/>
		<path class="st6" d="M148.4,124.3c0,0-0.7,2,0.6,1.7c1.4-0.3,3.8-1.5,2.1-1.7C149.5,124,148.4,124.3,148.4,124.3"/>
		<path class="st6" d="M146.5,119.5c0,0-0.7,2,0.6,1.6c1.4-0.3,3.8-1.5,2.1-1.7C147.7,119.2,146.5,119.5,146.5,119.5"/>
		<path class="st6" d="M152.2,122c0,0-0.5,2,0.8,1.6c1.3-0.5,3.6-2,1.9-2C153.1,121.5,152.2,122,152.2,122"/>
		<path class="st6" d="M144.8,129.2c0,0-0.5,2,0.8,1.6c1.3-0.5,3.6-2,1.9-2C145.9,128.8,144.8,129.2,144.8,129.2"/>
		<path class="st6" d="M145.9,134.5c0,0-0.5,2,0.8,1.6c1.3-0.5,3.6-2,1.9-2C146.9,134,145.9,134.5,145.9,134.5"/>
		<path class="st6" d="M140.4,140.7c0,0-0.9,1.9,0.4,1.7c1.4-0.2,3.9-1.2,2.3-1.6C141.5,140.5,140.4,140.7,140.4,140.7"/>
		<path class="st6" d="M146.8,143.9c0,0-0.4,2.1,0.8,1.6c1.4-0.5,3.6-2.1,1.9-2.1C148,143.4,146.8,143.9,146.8,143.9"/>
		<path class="st6" d="M141.6,152.6c0,0-0.1,2.9,1.6,1.9c1.7-1.1,4.4-3.8,2.1-3.4C142.8,151.6,141.6,152.6,141.6,152.6"/>
		<path class="st6" d="M137.4,148.2c0,0-0.5,2.1,0.8,1.6c1.4-0.5,3.7-2.1,1.9-2.1C138.4,147.8,137.4,148.2,137.4,148.2"/>
		<path class="st6" d="M133.9,147.9c0,0-0.8,1.9,0.5,1.7c1.4-0.2,3.9-1.3,2.2-1.6C135.1,147.7,133.9,147.9,133.9,147.9"/>
		<path class="st6" d="M126.7,149.2c0,0-0.5,2,0.8,1.6c1.3-0.5,3.6-2,1.9-2C127.7,148.8,126.7,149.2,126.7,149.2"/>
		<path class="st6" d="M135.6,158.9c1.2-1.4,2.8-4.3,0.9-3.4c-1.9,0.9-2.8,2.1-2.8,2.1"/>
		<path class="st6" d="M148.3,149.9c0,0-1.5,1.6,0,1.8c1.5,0.2,4.2,0,2.7-0.8C149.4,150,148.3,149.9,148.3,149.9"/>
		<path class="st6" d="M126.1,144.5c0,0-0.5,2,0.8,1.6c1.3-0.5,3.6-2,1.9-2C127.2,144.1,126.1,144.5,126.1,144.5"/>
		<path class="st6" d="M121.5,141.6c0,0-0.8,1.9,0.5,1.7c1.4-0.2,3.9-1.4,2.2-1.6C122.7,141.3,121.5,141.6,121.5,141.6"/>
		<path class="st6" d="M158.9,116.1c0,0-2.5-0.9-0.9-1.7c1.6-0.7,4.9-1.6,3.6-0.2C160.2,115.5,158.9,116.1,158.9,116.1"/>
	</g>
	<g>
		<path class="st7" d="M295.2,108.1c4.6,3.6,7.5,13.7,1.6,24.7c-5.9,11-14.8,14-18.5,12.7c-3.7-1.2-69.9-34.9-69.9-34.9l17.7-37.2
			C226,73.5,290.6,104.6,295.2,108.1z"/>
		<path class="st8" d="M278.9,99.1c2.4,1.5,5.1,13.7-0.7,24.2s-13.1,15.2-16.8,14.1c-3.7-1.2-32.9-16.9-32.9-16.9s9.4-1.2,16.4-13.2
			s3.3-22.9,3.3-22.9S276.5,97.8,278.9,99.1"/>
		<path class="st6" d="M228.1,99.4c-6.3,9.5-16.5,13.8-22.7,9.6c-6.2-4.2-6.1-15.2,0.2-24.7c6.3-9.4,16.5-13.8,22.7-9.6
			C234.6,78.9,234.5,89.9,228.1,99.4"/>
		<path class="st9" d="M228.1,99.4c-6.3,9.5-16.5,13.8-22.7,9.6c-6.2-4.2-6.1-15.2,0.2-24.7c6.3-9.4,16.5-13.8,22.7-9.6
			C234.6,78.9,234.5,89.9,228.1,99.4z"/>
		<path class="st6" d="M214.1,89.9c-2.7,4.1-7.2,6-10,4.2s-2.6-6.6,0.1-10.8c2.7-4.1,7.2-6,10-4.2C217,81,216.9,85.8,214.1,89.9"/>
		<path class="st10" d="M214.1,89.9c-2.7,4.1-7.2,6-10,4.2s-2.6-6.6,0.1-10.8c2.7-4.1,7.2-6,10-4.2C217,81,216.9,85.8,214.1,89.9z"
			/>
		<path class="st6" d="M210.1,87.4c-1.1,1.5-2.6,2.2-3.6,1.5c-0.9-0.6-0.9-2.4,0-3.9c1.1-1.5,2.6-2.2,3.6-1.5
			C211.1,84.1,211.1,85.9,210.1,87.4"/>
		<path class="st11" d="M210.1,87.4c-1.1,1.5-2.6,2.2-3.6,1.5c-0.9-0.6-0.9-2.4,0-3.9c1.1-1.5,2.6-2.2,3.6-1.5
			C211.1,84.1,211.1,85.9,210.1,87.4z"/>
		<path class="st10" d="M214.2,79.1c3.8,2.7,6.6,1.8,6.6,1.8c3.6-1.5,5.7,2.4,6.2,4.5c0.5,2.1-0.4,8.8-4.8,13.3
			c-4.4,4.5-8.7,6.6-12.3,3.4c-0.5-5.1-4.8-7.6-4.8-7.6s4,1.9,8.9-4.4C218.8,83.8,214.2,79.1,214.2,79.1"/>
		<path class="st6" d="M206.9,85.8c-1.1,1.5-2.6,2.2-3.6,1.5c-0.9-0.6-0.9-2.4,0-3.9c1.1-1.5,2.6-2.2,3.6-1.5
			C207.9,82.6,207.9,84.3,206.9,85.8"/>
		<path class="st12" d="M206.9,85.8c-1.1,1.5-2.6,2.2-3.6,1.5c-0.9-0.6-0.9-2.4,0-3.9c1.1-1.5,2.6-2.2,3.6-1.5
			C207.9,82.6,207.9,84.3,206.9,85.8z"/>
		<path class="st12" d="M207.1,82l3,1.5c0,0,1.6,1.5,0.2,3.6c-1.5,2.1-3.1,2.1-3.1,2.1l-3.6-1.8c0,0,2.4,0.2,3.6-2.1
			C208.2,83,207.1,82,207.1,82z"/>
		<path class="st13" d="M249.2,126c-0.1-4.5-0.1-9-0.2-13.5c2.9,2.7,5.9,5.5,9,8c0.2-3.4-0.9-6.9-3.1-9.5c0.3,0.3,0.9,0.2,1.2-0.2
			c0.3-0.3,0.3-0.8,0.3-1.4c0.2-3.4-0.2-6.6-1.1-9.9c0.5,0.5,1.3,0.7,1.9,0.4c0-0.5,0.1-0.9,0.1-1.5c1.8,0.2,3.6-0.7,4.6-2.2"/>
		<rect x="203.3" y="87.9" transform="matrix(0.46 -0.8879 0.8879 0.46 31.6018 229.0497)" class="st14" width="1.7" height="1.3"/>
		
			<ellipse transform="matrix(0.4295 -0.9031 0.9031 0.4295 35.5749 235.0967)" class="st15" cx="203.9" cy="89.4" rx="0.2" ry="0.6"/>
	</g>
	<g>
		<path class="st6" d="M167,113.7c0,0-0.6,2,0.6,1.6c1.4-0.4,3.7-1.7,2.1-1.8C168.1,113.3,167,113.7,167,113.7"/>
		<path class="st6" d="M169.9,107.8c0,0-0.6,2,0.7,1.6c1.4-0.4,3.7-1.8,2-1.9C171,107.3,169.9,107.8,169.9,107.8"/>
		<path class="st6" d="M167.5,110.3c0,0-0.5,2,0.8,1.6c1.3-0.5,3.6-2,1.9-2C168.6,109.9,167.5,110.3,167.5,110.3"/>
		<path class="st6" d="M172.2,112.8c0,0-0.6,2,0.7,1.6c1.4-0.4,3.7-1.8,2-1.9C173.3,112.4,172.2,112.8,172.2,112.8"/>
		<path class="st6" d="M174.7,109.6c0,0-0.5,2,0.7,1.6c1.4-0.4,3.7-1.9,2-1.9C175.8,109.2,174.7,109.6,174.7,109.6"/>
		<path class="st6" d="M173.1,117.6c0,0-0.5,2,0.8,1.6c1.3-0.5,3.6-2,1.9-2C174.1,117.2,173.1,117.6,173.1,117.6"/>
		<path class="st6" d="M176.1,105.9c0,0-0.7,2,0.6,1.6c1.4-0.3,3.8-1.6,2.1-1.8C177.2,105.6,176.1,105.9,176.1,105.9"/>
		<path class="st6" d="M179.4,111.9c0,0-0.5,2,0.8,1.6c1.3-0.5,3.6-2,1.9-2C180.4,111.4,179.4,111.9,179.4,111.9"/>
		<path class="st6" d="M181.2,105.9c0,0-0.5,2,0.7,1.6c1.4-0.4,3.7-1.9,2-1.9C182.2,105.4,181.2,105.9,181.2,105.9"/>
		<path class="st6" d="M191.7,112.7c0,0,0,2.1,1.2,1.4c1.2-0.8,3-2.8,1.4-2.4C192.6,112,191.7,112.7,191.7,112.7"/>
		<path class="st6" d="M188.2,109.9c0,0-0.5,2,0.8,1.6c1.3-0.5,3.6-2,1.9-2S188.2,109.9,188.2,109.9"/>
		<path class="st6" d="M186.7,105.3c0,0-0.7,2,0.6,1.7c1.4-0.3,3.8-1.5,2.1-1.7C187.9,105,186.7,105.3,186.7,105.3"/>
		<path class="st6" d="M184.8,100.5c0,0-0.7,2,0.6,1.6c1.4-0.3,3.8-1.5,2.1-1.7C185.9,100.2,184.8,100.5,184.8,100.5"/>
		<path class="st6" d="M190.4,102.9c0,0-0.5,2,0.8,1.6c1.3-0.5,3.6-2,1.9-2C191.4,102.5,190.4,102.9,190.4,102.9"/>
		<path class="st6" d="M190.9,118.8c0,0,0.2,2.2,1.4,1.3c1.2-0.9,2.8-3.3,1.2-2.6C191.9,117.9,190.9,118.8,190.9,118.8"/>
		<path class="st6" d="M183.1,110.2c0,0-0.5,2,0.8,1.6c1.3-0.5,3.6-2,1.9-2C184.2,109.8,183.1,110.2,183.1,110.2"/>
		<path class="st6" d="M184.2,115.4c0,0-0.5,2,0.8,1.6c1.3-0.5,3.6-2,1.9-2C185.2,115,184.2,115.4,184.2,115.4"/>
		<path class="st6" d="M178.6,121.7c0,0-0.9,1.9,0.4,1.7s3.9-1.2,2.3-1.6C179.8,121.5,178.6,121.7,178.6,121.7"/>
		<path class="st6" d="M185.1,124.9c0,0-0.4,2.1,0.8,1.6c1.3-0.5,3.6-2.1,1.9-2.1C186.2,124.3,185.1,124.9,185.1,124.9"/>
		<path class="st6" d="M179.8,133.6c0,0-0.1,2.9,1.6,1.9c1.7-1.1,4.4-3.8,2.1-3.4C181.2,132.6,179.8,133.6,179.8,133.6"/>
		<path class="st6" d="M175.7,129.2c0,0-0.5,2.1,0.8,1.6s3.7-2.1,1.9-2.1C176.7,128.7,175.7,129.2,175.7,129.2"/>
		<path class="st6" d="M172.2,128.9c0,0-0.8,1.9,0.5,1.7c1.4-0.2,3.9-1.3,2.2-1.6C173.4,128.5,172.2,128.9,172.2,128.9"/>
		<path class="st6" d="M165,130.2c0,0-0.5,2,0.8,1.6c1.3-0.5,3.6-2,1.9-2C166,129.8,165,130.2,165,130.2"/>
		<path class="st6" d="M175.9,138.2c0,0-0.1,3.2,1.7,2c1.8-1.2,4.7-4,2.2-3.5C177.4,137.3,175.9,138.2,175.9,138.2"/>
		<path class="st6" d="M173.9,139.8c1.2-1.4,2.8-4.3,0.9-3.4c-1.9,0.9-2.8,2.1-2.8,2.1"/>
		<path class="st6" d="M186.6,130.8c0,0-1.5,1.6,0,1.8c1.5,0.2,4.2,0,2.7-0.8C187.8,131,186.6,130.8,186.6,130.8"/>
		<path class="st6" d="M183,136.4c0,0-0.8,2.3,0.7,1.9s4.4-1.9,2.5-2.1C184.3,136,183,136.4,183,136.4"/>
		<path class="st6" d="M164.5,125.5c0,0-0.5,2,0.8,1.6c1.3-0.5,3.6-2,1.9-2C165.5,125,164.5,125.5,164.5,125.5"/>
		<path class="st6" d="M159.8,122.6c0,0-0.8,1.9,0.5,1.7c1.4-0.2,3.9-1.4,2.2-1.6C160.9,122.2,159.8,122.6,159.8,122.6"/>
		<path class="st6" d="M197.2,97c0,0-2.5-0.9-0.9-1.7c1.6-0.7,4.9-1.6,3.6-0.2C198.5,96.5,197.2,97,197.2,97"/>
	</g>
	<g>
		<path class="st7" d="M295.2,108.1c4.6,3.6,7.5,13.7,1.6,24.7c-5.9,11-14.8,14-18.5,12.7c-3.7-1.2-69.9-34.9-69.9-34.9l17.7-37.2
			C226,73.5,290.6,104.6,295.2,108.1z"/>
		<path class="st16" d="M278.9,99.1c2.4,1.5,5.1,13.7-0.7,24.2s-13.1,15.2-16.8,14.1c-3.7-1.2-32.9-16.9-32.9-16.9
			s9.4-1.2,16.4-13.2s3.3-22.9,3.3-22.9S276.5,97.8,278.9,99.1"/>
		<path class="st6" d="M228.1,99.4c-6.3,9.5-16.5,13.8-22.7,9.6c-6.2-4.2-6.1-15.2,0.2-24.7c6.3-9.4,16.5-13.8,22.7-9.6
			C234.6,78.9,234.5,89.9,228.1,99.4"/>
		<path class="st4" d="M228.1,99.4c-6.3,9.5-16.5,13.8-22.7,9.6c-6.2-4.2-6.1-15.2,0.2-24.7c6.3-9.4,16.5-13.8,22.7-9.6
			C234.6,78.9,234.5,89.9,228.1,99.4z"/>
		<path class="st6" d="M214.1,89.9c-2.7,4.1-7.2,6-10,4.2s-2.6-6.6,0.1-10.8c2.7-4.1,7.2-6,10-4.2C217,81,216.9,85.8,214.1,89.9"/>
		<path class="st10" d="M214.1,89.9c-2.7,4.1-7.2,6-10,4.2s-2.6-6.6,0.1-10.8c2.7-4.1,7.2-6,10-4.2C217,81,216.9,85.8,214.1,89.9z"
			/>
		<path class="st6" d="M210.1,87.4c-1.1,1.5-2.6,2.2-3.6,1.5c-0.9-0.6-0.9-2.4,0-3.9c1.1-1.5,2.6-2.2,3.6-1.5
			C211.1,84.1,211.1,85.9,210.1,87.4"/>
		<path class="st11" d="M210.1,87.4c-1.1,1.5-2.6,2.2-3.6,1.5c-0.9-0.6-0.9-2.4,0-3.9c1.1-1.5,2.6-2.2,3.6-1.5
			C211.1,84.1,211.1,85.9,210.1,87.4z"/>
		<path class="st17" d="M214.2,79.1c3.8,2.7,6.6,1.8,6.6,1.8c3.6-1.5,5.7,1.7,6.3,4.4c0.6,2.8-0.5,8.9-4.9,13.4
			c-2.9,3-5.6,5.1-8.2,5.2c-0.4,0-2-0.2-3-0.7c-1-0.5-1.3-1.2-1.3-1.3c-0.7-4.8-4.6-7.5-4.6-7.5s4,1.9,8.9-4.4
			C218.8,83.8,214.2,79.1,214.2,79.1"/>
		<path class="st6" d="M206.9,85.8c-1.1,1.5-2.6,2.2-3.6,1.5c-0.9-0.6-0.9-2.4,0-3.9c1.1-1.5,2.6-2.2,3.6-1.5
			C207.9,82.6,207.9,84.3,206.9,85.8"/>
		<path class="st18" d="M206.9,85.8c-1.1,1.5-2.6,2.2-3.6,1.5c-0.9-0.6-0.9-2.4,0-3.9c1.1-1.5,2.6-2.2,3.6-1.5
			C207.9,82.6,207.9,84.3,206.9,85.8z"/>
		<path class="st18" d="M207.1,82l3,1.5c0,0,1.6,1.5,0.2,3.6c-1.5,2.1-3.1,2.1-3.1,2.1l-3.6-1.8c0,0,2.4,0.2,3.6-2.1
			C208.2,83,207.1,82,207.1,82z"/>
		<path class="st13" d="M249.2,126c-0.1-4.5-0.1-9-0.2-13.5c2.9,2.7,5.9,5.5,9,8c0.2-3.4-0.9-6.9-3.1-9.5c0.3,0.3,0.9,0.2,1.2-0.2
			c0.3-0.3,0.3-0.8,0.3-1.4c0.2-3.4-0.2-6.6-1.1-9.9c0.5,0.5,1.3,0.7,1.9,0.4c0-0.5,0.1-0.9,0.1-1.5c1.8,0.2,3.6-0.7,4.6-2.2"/>
		<rect x="203.3" y="87.9" transform="matrix(0.46 -0.8879 0.8879 0.46 31.6018 229.0497)" class="st14" width="1.7" height="1.3"/>
		
			<ellipse transform="matrix(0.4295 -0.9031 0.9031 0.4295 35.5749 235.0967)" class="st15" cx="203.9" cy="89.4" rx="0.2" ry="0.6"/>
	</g>
	<g>
		<path class="st16" d="M107.2,111.2c0.6-1.6,3.9-2.8,7.8-2.7c3.9,0.1,6.9,1.5,6.9,3.2c0,1.7-2.5,2.4-7,2.5S107.1,111.4,107.2,111.2
			z"/>
		<path class="st16" d="M107.2,111.3c0.2,1.1,1.8,1.9,1.8,1.9s0,1.3,0,1.7c0,0.5-6.6,10.5-8.5,14.3c-1.5,2.9-3.6,8.5-3.2,12.9
			c0.4,4.5,1.7,6.2,1.7,6.2l0.3,0.8c0,0-0.1,4-0.1,4.2s-0.4-0.4-1.1,1.9s-0.7,5.8-0.7,6.6c0,0.9-0.1,6.1,0.2,6.8
			c0.3,0.7,0.6,1.5,0.9,1.7c0.3,0.2-0.9,0-0.9,1.3c0,1.3-0.1,5-0.1,6.1s0.3,1.8,0.5,1.9c0,0-0.8,0.5-0.9,1.5c-0.1,1,0.1,4.5,0.2,5.9
			c0.1,0.4,1.1,1.2,1.1,1.2s-0.9,0.6-0.9,0.9c0,0-0.1,5.8-0.1,6.4s0.7,1.4,0.7,1.4s-0.7,0.6-0.7,1.3c0,0.6-0.2,3.9-0.2,5.9
			c0,2,0.1,4.1,0.1,4.6c0,0.5,0.6,0.7,0.6,1.2c0,0-0.9,0.6-0.9,1.2c0,0.6,0.1,8.3,0.1,8.3c0,0.2-0.2,3.5,3.4,6.5
			c2.1,1.8,6.9,3.7,13.3,3.7s7.5-0.2,10.5-1.7c3-1.5,4.2-3.9,4.8-5.6c0.6-1.7,0.6-10,0.5-11c0-0.3-0.6-0.6-0.6-0.8
			c0-0.2,0.5-0.7,0.6-1.6c0.1-0.8,0.2-8.6,0.2-9.7s-0.7-1.4-0.7-1.4s0.4-0.8,0.5-1.5c0.1-0.6,0.4-6.1,0.4-6.8c0-0.7-0.9-1-0.9-1.2
			s0.7-0.5,0.8-0.8c0.2-1,0.2-5.8,0.2-5.8c0-0.2,0-0.6,0-0.7c-0.1-0.4-0.9-0.4-0.9-0.7s1.2-0.6,1.2-1.5s0.2-6.1,0.2-6.7
			c0-0.6-0.6-0.4-0.7-0.8c0,0,0.5-0.9,0.6-1.2c0.3-1.1,0.7-3.6,0.7-6.7c0-3-0.2-7-0.3-7.8c-0.1-0.7-0.4-1.9-1.3-1.9
			c0-0.1,0-4.1,0-4.1l0.9-2.2c0,0,2.1-6.9-0.4-14.4c-2.5-7.5-9.2-17.6-9.3-18.1c0-0.4-0.2-1.9-0.2-1.9s1.5-0.6,1.5-1.7
			c0.1-1.1-1.6-1.4-1.6-1.7l0.2-7.7c0,0-0.8,2.6-5.1,2.5c-5.4-0.1-6.4-2.6-6.4-2.6s-0.2,7.3-0.1,7.6
			C108.9,110,107,110.3,107.2,111.3z"/>
		<path class="st5" d="M108.9,109.8c-1.1,0.3,1.4,2.8,6.3,2.9s6.2-2.6,5.5-2.6"/>
		<path class="st5" d="M121.9,112c0,0-1.4,2.4-7.1,2.4c-5.7,0-7.3-2.7-7.3-2.7"/>
		<path class="st19" d="M109.2,102.5c0-1.4,3-2.4,6-2.3c2.9,0.1,5.4,1.3,5.2,2.6c0,1.4-2.4,2.2-5.5,2.1
			C112.2,104.9,109.2,103.9,109.2,102.5z"/>
		<path class="st20" d="M115.2,103"/>
		<path class="st20" d="M133.2,141.5"/>
		<path class="st21" d="M98.6,170.7c0,0,4.8,4,15.9,4.3c11.4,0.3,15.4-4.1,15.4-4.1"/>
		<path class="st21" d="M98,179.6c0,0,4.9,4.2,16.1,4.6c11.4,0.3,15.5-4.4,15.5-4.4"/>
		<path class="st21" d="M98.2,197.2c0,0,4.2,4.6,15.2,4.9c11.4,0.3,15.8-4.5,15.8-4.5"/>
		<path class="st21" d="M98.5,188.3c0,0,6.4,4.2,15.2,4.4s15.3-4.4,15.3-4.4"/>
		<path class="st21" d="M97.9,209.7c0,0,4.2,4.7,15.6,5c11.8,0.4,15.8-4.5,15.8-4.5"/>
		<path class="st21" d="M99.3,148.7c0,0,4.5,4.5,15.8,4.4c11.1-0.1,14.7-4.2,14.7-4.2"/>
		<path class="st21" d="M99.3,153.5c0,0,3,4,15.1,4.4s15.1-4.1,15.1-4.1"/>
	</g>
	<g>
		<path class="st6" d="M128.8,132.7c0,0-0.6,2,0.6,1.6c1.4-0.4,3.7-1.7,2.1-1.8C129.8,132.4,128.8,132.7,128.8,132.7"/>
		<path class="st6" d="M131.7,126.8c0,0-0.6,2,0.7,1.6s3.7-1.8,2-1.9S131.7,126.8,131.7,126.8"/>
		<path class="st6" d="M129.3,129.3c0,0-0.5,2,0.8,1.6c1.3-0.5,3.6-2,1.9-2C130.3,128.9,129.3,129.3,129.3,129.3"/>
		<path class="st6" d="M134,131.8c0,0-0.6,2,0.7,1.6c1.4-0.4,3.7-1.8,2-1.9C135.1,131.4,134,131.8,134,131.8"/>
		<path class="st6" d="M136.4,128.7c0,0-0.5,2,0.7,1.6c1.4-0.4,3.7-1.9,2-1.9C137.5,128.2,136.4,128.7,136.4,128.7"/>
		<path class="st6" d="M134.7,136.6c0,0-0.5,2,0.8,1.6c1.3-0.5,3.6-2,1.9-2C135.8,136.2,134.7,136.6,134.7,136.6"/>
		<path class="st6" d="M137.8,124.9c0,0-0.7,2,0.6,1.6c1.4-0.3,3.8-1.6,2.1-1.8C138.8,124.6,137.8,124.9,137.8,124.9"/>
		<path class="st6" d="M141,130.9c0,0-0.5,2,0.8,1.6c1.3-0.5,3.6-2,1.9-2C142.1,130.4,141,130.9,141,130.9"/>
		<path class="st6" d="M142.8,124.9c0,0-0.5,2,0.7,1.6c1.4-0.4,3.7-1.9,2-1.9C143.9,124.5,142.8,124.9,142.8,124.9"/>
		<path class="st6" d="M153.4,131.7c0,0,0,2.1,1.2,1.4c1.2-0.8,3-2.8,1.4-2.4C154.3,131,153.4,131.7,153.4,131.7"/>
		<path class="st6" d="M149.9,129c0,0-0.5,2,0.8,1.6c1.3-0.5,3.6-2,1.9-2C150.9,128.4,149.9,129,149.9,129"/>
		<path class="st6" d="M148.4,124.3c0,0-0.7,2,0.6,1.7c1.4-0.3,3.8-1.5,2.1-1.7C149.5,124,148.4,124.3,148.4,124.3"/>
		<path class="st6" d="M146.5,119.5c0,0-0.7,2,0.6,1.6c1.4-0.3,3.8-1.5,2.1-1.7C147.7,119.2,146.5,119.5,146.5,119.5"/>
		<path class="st6" d="M152.2,122c0,0-0.5,2,0.8,1.6c1.3-0.5,3.6-2,1.9-2C153.1,121.5,152.2,122,152.2,122"/>
		<path class="st6" d="M144.8,129.2c0,0-0.5,2,0.8,1.6c1.3-0.5,3.6-2,1.9-2C145.9,128.8,144.8,129.2,144.8,129.2"/>
		<path class="st6" d="M145.9,134.5c0,0-0.5,2,0.8,1.6c1.3-0.5,3.6-2,1.9-2C146.9,134,145.9,134.5,145.9,134.5"/>
		<path class="st6" d="M140.4,140.7c0,0-0.9,1.9,0.4,1.7c1.4-0.2,3.9-1.2,2.3-1.6C141.5,140.5,140.4,140.7,140.4,140.7"/>
		<path class="st6" d="M146.8,143.9c0,0-0.4,2.1,0.8,1.6c1.4-0.5,3.6-2.1,1.9-2.1C148,143.4,146.8,143.9,146.8,143.9"/>
		<path class="st6" d="M141.6,152.6c0,0-0.1,2.9,1.6,1.9c1.7-1.1,4.4-3.8,2.1-3.4C142.8,151.6,141.6,152.6,141.6,152.6"/>
		<path class="st6" d="M137.4,148.2c0,0-0.5,2.1,0.8,1.6c1.4-0.5,3.7-2.1,1.9-2.1C138.4,147.8,137.4,148.2,137.4,148.2"/>
		<path class="st6" d="M133.9,147.9c0,0-0.8,1.9,0.5,1.7c1.4-0.2,3.9-1.3,2.2-1.6C135.1,147.7,133.9,147.9,133.9,147.9"/>
		<path class="st6" d="M126.7,149.2c0,0-0.5,2,0.8,1.6c1.3-0.5,3.6-2,1.9-2C127.7,148.8,126.7,149.2,126.7,149.2"/>
		<path class="st6" d="M135.6,158.9c1.2-1.4,2.8-4.3,0.9-3.4c-1.9,0.9-2.8,2.1-2.8,2.1"/>
		<path class="st6" d="M148.3,149.9c0,0-1.5,1.6,0,1.8c1.5,0.2,4.2,0,2.7-0.8C149.4,150,148.3,149.9,148.3,149.9"/>
		<path class="st6" d="M126.1,144.5c0,0-0.5,2,0.8,1.6c1.3-0.5,3.6-2,1.9-2C127.2,144.1,126.1,144.5,126.1,144.5"/>
		<path class="st6" d="M121.5,141.6c0,0-0.8,1.9,0.5,1.7c1.4-0.2,3.9-1.4,2.2-1.6C122.7,141.3,121.5,141.6,121.5,141.6"/>
		<path class="st6" d="M158.9,116.1c0,0-2.5-0.9-0.9-1.7c1.6-0.7,4.9-1.6,3.6-0.2C160.2,115.5,158.9,116.1,158.9,116.1"/>
	</g>
</g>
</svg>
