<?xml version="1.0" encoding="utf-8"?>
<!-- Generator: Adobe Illustrator 25.2.3, SVG Export Plug-In . SVG Version: 6.00 Build 0)  -->
<svg version="1.1" id="Layer_1" xmlns="http://www.w3.org/2000/svg" xmlns:xlink="http://www.w3.org/1999/xlink" x="0px" y="0px"
	 viewBox="0 0 69.6 263.9" style="enable-background:new 0 0 69.6 263.9;" xml:space="preserve">
<style type="text/css">
	.st0{fill:#EE7345;}
	.st1{fill:#EE7345;stroke:#FFFFFF;stroke-width:0.5;stroke-miterlimit:10;}
	.st2{fill:none;stroke:#FFFFFF;stroke-width:0.5;stroke-miterlimit:10;}
	.st3{fill:none;stroke:#FFFFFF;stroke-width:0.4597;stroke-miterlimit:10;}
	.st4{fill:#D8422E;stroke:#FFFFFF;stroke-width:0.5;stroke-miterlimit:10;}
	.st5{fill:#DC3359;stroke:#FFFFFF;stroke-width:0.5;stroke-miterlimit:10;}
	.st6{fill:#B71549;stroke:#FFFFFF;stroke-width:0.5;stroke-miterlimit:10;}
</style>
<g>
	<g>
		<g>
			<path class="st0" d="M3.5,250.5c4.1,7.9,11.3,11.7,11.3,11.7c0-3.4-0.5-6.8-0.7-10.2c-0.3-3.4-0.2-6.9-0.2-10.3
				c0-1.9-0.2-3.9,0-5.8c0.2-2.1,0.7-4.3,1.1-6.4c0.6-3.3,0.8-6.7,1.3-10c0.4-3.2,0.7-6.5,1.3-9.8c0.5-2.7,1.1-5.5,1.1-8.2
				c0-1.7,0.2-3.1,0.7-4.8c0.5-1.8,1.1-3.5,1.6-5.3c1.8-7.6-2.3-15.2-2.5-22.7c-0.1-2.4,0.3-4.7,0.5-7.1c0.2-2,0.7-3.9,0.7-6
				c0-3.1-0.2-6.2-0.2-9.4c0-4.6,0.2-9.2,0.7-13.8c0.3-2.5,0.9-5,0.9-7.5c0-2.4,0.1-4.8,0.5-7.3c0.6-4.5,0.3-9.1-0.4-13.6
				c-0.7-4.1-1.7-8.3-1.9-12.5c-0.2-2.5-0.6-5.1-0.7-7.6c0-1.3-0.4-2.5-0.5-3.8c-0.1-4.9,1.8-9.5,2.8-14.3c0.7-3.5,0.8-7.3,0.2-10.8
				c-0.7-3.8,0.2-7.7,0.3-11.6c0-2.9,0.6-5.9,1.4-8.8c0.3-1.1,0.8-2.3,1.1-3.4c0.4-1.3,1.5-14.7,0.7-14.5l-5.3-1.4
				c0,0-12.7-13-13.3-12.4S5.2,14,6.2,18.5c0.3,1.3,0.2,2.7,0.2,4.1c0,1.5,0.2,2.9,0.2,4.4c0,2.5,0.2,5.1-0.3,7.6
				c-0.3,1.9-1.1,3.8-1.5,5.8c-0.2,0.8-0.1,1.7,0.2,2.5c0.5,1.4,0.9,2.7,1.1,4.2c0.4,3.4,0.2,7,0.3,10.4c0.1,2.5,0.4,5,0.2,7.4
				c-0.4,4.2-1,8.5-0.5,12.7c1.1,8.7,2.4,17.9,0,26.5c-0.2,0.9-0.5,1.7-0.4,2.7c0.1,1.1,0.9,2,1.4,3c0.7,1.4,0.4,3,0.4,4.4
				c0,3.3-0.2,6.3-0.9,9.5C6,126.5,6,129.3,5.7,132c-0.2,1.5-0.2,3.2,0.2,4.7C6.9,140.1,7,143.5,7,147c0,2.4-0.4,4.7-1,7
				c-0.5,2-0.7,4-1.1,5.9c-0.5,2.5-0.3,4.9-0.6,7.4c-0.4,2.8,0,5.9-0.1,8.7c0,1.8,0.2,3.6,0.5,5.4c0.4,2.8,1.1,5.4,1.1,8.3
				c0,2.2-0.3,4.2-0.6,6.5c-0.4,2.8-0.4,5.6-0.8,8.3c-0.6,4.9-0.3,9.5,0,14.3c0.4,6.4-1.7,12.4-2.8,18.7
				C1.2,240.8-0.6,242.5,3.5,250.5z"/>
			<path class="st0" d="M5.6,12.6c0.4,3.5,5.6,9.2,9.7,13.1c1.3,1.3,6,7.2,6.3,13.4"/>
			<path class="st0" d="M5.5,38.2C5,44.7,14.4,49.7,18.8,56.4c0.5,0.7,2.2,3.6,2.4,5.7"/>
			<path class="st0" d="M6.4,67.3c-0.4,3.8,1.7,8.8,5.8,14.3c1.6,2.2,6.4,6.3,7,10.8"/>
			<path class="st0" d="M5.6,107.9c0.5,1.1,1.5,2.2,2,3.3c0.9,1.6,7,9.4,8.6,11.6c0.9,1.3,4,3,4.2,6.8"/>
			<path class="st0" d="M6.7,141.5c0.5,2.5,4.4,11.8,5.9,14.3c1.5,2.6,5.1,5.7,6,7.2"/>
			<path class="st0" d="M4.9,182.5c2.3,5.7,6.1,12.1,7,13.7c0.9,1.6,2.9,5.6,6.6,7.8"/>
			<path class="st0" d="M4.3,212.5c-0.4,5.5,4.2,9,6.9,12.6c1,1.4,2.8,8.5,2.8,8.5"/>
		</g>
		<g>
			<path class="st1" d="M3.5,250.5c4.1,7.9,11.3,11.7,11.3,11.7c0-3.4-0.5-6.8-0.7-10.2c-0.3-3.4-0.2-6.9-0.2-10.3
				c0-1.9-0.2-3.9,0-5.8c0.2-2.1,0.7-4.3,1.1-6.4c0.6-3.3,0.8-6.7,1.3-10c0.4-3.2,0.7-6.5,1.3-9.8c0.5-2.7,1.1-5.5,1.1-8.2
				c0-1.7,0.2-3.1,0.7-4.8c0.5-1.8,1.1-3.5,1.6-5.3c1.8-7.6-2.3-15.2-2.5-22.7c-0.1-2.4,0.3-4.7,0.5-7.1c0.2-2,0.7-3.9,0.7-6
				c0-3.1-0.2-6.2-0.2-9.4c0-4.6,0.2-9.2,0.7-13.8c0.3-2.5,0.9-5,0.9-7.5c0-2.4,0.1-4.8,0.5-7.3c0.6-4.5,0.3-9.1-0.4-13.6
				c-0.7-4.1-1.7-8.3-1.9-12.5c-0.2-2.5-0.6-5.1-0.7-7.6c0-1.3-0.4-2.5-0.5-3.8c-0.1-4.9,1.8-9.5,2.8-14.3c0.7-3.5,0.8-7.3,0.2-10.8
				c-0.7-3.8,0.2-7.7,0.3-11.6c0-2.9,0.6-5.9,1.4-8.8c0.3-1.1,0.8-2.3,1.1-3.4c0.4-1.3,1.5-14.7,0.7-14.5l-5.3-1.4
				c0,0-12.7-13-13.3-12.4S5.2,14,6.2,18.5c0.3,1.3,0.2,2.7,0.2,4.1c0,1.5,0.2,2.9,0.2,4.4c0,2.5,0.2,5.1-0.3,7.6
				c-0.3,1.9-1.1,3.8-1.5,5.8c-0.2,0.8-0.1,1.7,0.2,2.5c0.5,1.4,0.9,2.7,1.1,4.2c0.4,3.4,0.2,7,0.3,10.4c0.1,2.5,0.4,5,0.2,7.4
				c-0.4,4.2-1,8.5-0.5,12.7c1.1,8.7,2.4,17.9,0,26.5c-0.2,0.9-0.5,1.7-0.4,2.7c0.1,1.1,0.9,2,1.4,3c0.7,1.4,0.4,3,0.4,4.4
				c0,3.3-0.2,6.3-0.9,9.5C6,126.5,6,129.3,5.7,132c-0.2,1.5-0.2,3.2,0.2,4.7C6.9,140.1,7,143.5,7,147c0,2.4-0.4,4.7-1,7
				c-0.5,2-0.7,4-1.1,5.9c-0.5,2.5-0.3,4.9-0.6,7.4c-0.4,2.8,0,5.9-0.1,8.7c0,1.8,0.2,3.6,0.5,5.4c0.4,2.8,1.1,5.4,1.1,8.3
				c0,2.2-0.3,4.2-0.6,6.5c-0.4,2.8-0.4,5.6-0.8,8.3c-0.6,4.9-0.3,9.5,0,14.3c0.4,6.4-1.7,12.4-2.8,18.7
				C1.2,240.8-0.6,242.5,3.5,250.5z"/>
			<path class="st2" d="M5.6,12.6c0.4,3.5,5.6,9.2,9.7,13.1c1.3,1.3,6,7.2,6.3,13.4"/>
			<path class="st2" d="M5.5,38.2C5,44.7,14.4,49.7,18.8,56.4c0.5,0.7,2.2,3.6,2.4,5.7"/>
			<path class="st2" d="M6.4,67.3c-0.4,3.8,1.7,8.8,5.8,14.3c1.6,2.2,6.4,6.3,7,10.8"/>
			<path class="st2" d="M5.6,107.9c0.5,1.1,1.5,2.2,2,3.3c0.9,1.6,7,9.4,8.6,11.6c0.9,1.3,4,3,4.2,6.8"/>
			<path class="st2" d="M6.7,141.5c0.5,2.5,4.4,11.8,5.9,14.3c1.5,2.6,5.1,5.7,6,7.2"/>
			<path class="st2" d="M4.9,182.5c2.3,5.7,6.1,12.1,7,13.7c0.9,1.6,2.9,5.6,6.6,7.8"/>
			<path class="st2" d="M4.3,212.5c-0.4,5.5,4.2,9,6.9,12.6c1,1.4,2.8,8.5,2.8,8.5"/>
		</g>
		<g>
			<path class="st3" d="M3.5,250.5c4.1,7.9,11.3,11.7,11.3,11.7c0-3.4-0.5-6.8-0.7-10.2c-0.3-3.4-0.2-6.9-0.2-10.3
				c0-1.9-0.2-3.9,0-5.8c0.2-2.1,0.7-4.3,1.1-6.4c0.6-3.3,0.8-6.7,1.3-10c0.4-3.2,0.7-6.5,1.3-9.8c0.5-2.7,1.1-5.5,1.1-8.2
				c0-1.7,0.2-3.1,0.7-4.8c0.5-1.8,1.1-3.5,1.6-5.3c1.8-7.6-2.3-15.2-2.5-22.7c-0.1-2.4,0.3-4.7,0.5-7.1c0.2-2,0.7-3.9,0.7-6
				c0-3.1-0.2-6.2-0.2-9.4c0-4.6,0.2-9.2,0.7-13.8c0.3-2.5,0.9-5,0.9-7.5c0-2.4,0.1-4.8,0.5-7.3c0.6-4.5,0.3-9.1-0.4-13.6
				c-0.7-4.1-1.7-8.3-1.9-12.5c-0.2-2.5-0.6-5.1-0.7-7.6c0-1.3-0.4-2.5-0.5-3.8c-0.1-4.9,1.8-9.5,2.8-14.3c0.7-3.5,0.8-7.3,0.2-10.8
				c-0.7-3.8,0.2-7.7,0.3-11.6c0-2.9,0.6-5.9,1.4-8.8c0.3-1.1,0.8-2.3,1.1-3.4c0.4-1.3,1.5-14.7,0.7-14.5l-5.3-1.4
				c0,0-12.7-13-13.3-12.4S5.2,14,6.2,18.5c0.3,1.3,0.2,2.7,0.2,4.1c0,1.5,0.2,2.9,0.2,4.4c0,2.5,0.2,5.1-0.3,7.6
				c-0.3,1.9-1.1,3.8-1.5,5.8c-0.2,0.8-0.1,1.7,0.2,2.5c0.5,1.4,0.9,2.7,1.1,4.2c0.4,3.4,0.2,7,0.3,10.4c0.1,2.5,0.4,5,0.2,7.4
				c-0.4,4.2-1,8.5-0.5,12.7c1.1,8.7,2.4,17.9,0,26.5c-0.2,0.9-0.5,1.7-0.4,2.7c0.1,1.1,0.9,2,1.4,3c0.7,1.4,0.4,3,0.4,4.4
				c0,3.3-0.2,6.3-0.9,9.5C6,126.5,6,129.3,5.7,132c-0.2,1.5-0.2,3.2,0.2,4.7C6.9,140.1,7,143.5,7,147c0,2.4-0.4,4.7-1,7
				c-0.5,2-0.7,4-1.1,5.9c-0.5,2.5-0.3,4.9-0.6,7.4c-0.4,2.8,0,5.9-0.1,8.7c0,1.8,0.2,3.6,0.5,5.4c0.4,2.8,1.1,5.4,1.1,8.3
				c0,2.2-0.3,4.2-0.6,6.5c-0.4,2.8-0.4,5.6-0.8,8.3c-0.6,4.9-0.3,9.5,0,14.3c0.4,6.4-1.7,12.4-2.8,18.7
				C1.2,240.8-0.6,242.5,3.5,250.5z"/>
			<path class="st3" d="M5.6,12.6c0.4,3.5,5.6,9.2,9.7,13.1c1.3,1.3,6,7.2,6.3,13.4"/>
			<path class="st3" d="M5.5,38.2C5,44.7,14.4,49.7,18.8,56.4c0.5,0.7,2.2,3.6,2.4,5.7"/>
			<path class="st3" d="M6.4,67.3c-0.4,3.8,1.7,8.8,5.8,14.3c1.6,2.2,6.4,6.3,7,10.8"/>
			<path class="st3" d="M5.6,107.9c0.5,1.1,1.5,2.2,2,3.3c0.9,1.6,7,9.4,8.6,11.6c0.9,1.3,4,3,4.2,6.8"/>
			<path class="st3" d="M6.7,141.5c0.5,2.5,4.4,11.8,5.9,14.3c1.5,2.6,5.1,5.7,6,7.2"/>
			<path class="st3" d="M4.9,182.5c2.3,5.7,6.1,12.1,7,13.7c0.9,1.6,2.9,5.6,6.6,7.8"/>
			<path class="st3" d="M4.3,212.5c-0.4,5.5,4.2,9,6.9,12.6c1,1.4,2.8,8.5,2.8,8.5"/>
		</g>
	</g>
	<ellipse transform="matrix(0.6478 -0.7618 0.7618 0.6478 -2.1071 15.3447)" class="st4" cx="15.5" cy="10" rx="5.4" ry="11.7"/>
</g>
<g>
	<g>
		<path class="st5" d="M53.2,253.9c-5.3-4.5-1.9-7.5-1.2-8.9c0.6-1.4,2.5-3.4-1.8-7.5c-4.4-4.1-0.1-7-0.1-8.9s-0.4-5.3-4.5-10.8
			c-4.1-5.5,3.1-6.7,2.8-8.8c-0.3-2.1-8.4-11.3-8.2-19.5c0.2-8.3,2.2-8.6,4.8-11.7c1.6-1.9,1.2-6.5-0.3-10.5
			c-3.9-10.7,3.5-11.2,4.2-12.3c0.6-1.1-2.5-7.4-1-12.4c1.4-4.9,6.2-2.8,4-6.8c-3.4-4.5,3.2-8.4,3.9-9.3c0.7-0.9,1.8-2.3-2.1-6.4
			c-3.9-4.1-1.2-6.9-0.5-9c0.6-2-6.6-10.2-8.1-17.2c-1.5-7,4.4-10,2-16.2c-5.5-7.4-0.6-21.8,1.8-20c0,0,2.3-1.1-0.3-8
			c-2.6-6.8,2.1-11.1,2.1-11.1s-2.5-4.7-2.5-16l12,4.9c0,0,3.7,11,0.8,16.6c-2.9,5.6,3.2,4,4.9,14.1s3.1,13.6,2.3,16
			c-0.7,2.4-2.8,2.8-3.6,4.4c-0.8,1.6,3.4,17-1.1,20.1c-1.8,1.3,4.4,10.7,0.7,13.4c-3.7,2.7-3.7,3-3.7,3s6.6,11.9,2.5,13.7
			c-4.1,1.7,3.3,13.4,0.4,18c-2.9,4.5,2.5,14.7,2.5,14.7s5.7,14.3-0.8,19.2s4.1,7-1.6,15c-5.7,8-0.4,17.8-4.1,21
			c-3.7,3.1,3.4,12.6,0.9,14c-2.5,1.4,2.7,13.7-0.1,14.3s5.3,11.4,2,12.8L53.2,253.9z"/>
		<path class="st2" d="M48.8,30.9c-0.7,2-3.5,2.5,12.5,18.1"/>
		<path class="st2" d="M48.8,57.4c1,5.4,5.6,10.6,15.9,21.4"/>
		<path class="st2" d="M47.2,78.4c0,0,11.7,21.1,16.2,20.8"/>
		<path class="st2" d="M50.7,106.8c0,0,9.5,5.4,10,9.1"/>
		<path class="st2" d="M56.3,123.7c-0.1-0.3,5.1-0.4,6.3,5.3"/>
		<path class="st2" d="M52.2,137.7c0,0,9.8,5.5,10.3,11.6"/>
		<path class="st2" d="M48.8,154.6c0.9,9.8,14.8,23.2,14.1,28.3"/>
		<path class="st2" d="M45.9,173.4c0.9,9.8,15.5,23.2,14.8,28.3"/>
		<path class="st2" d="M46.5,207.3c1.2,3.6,11.6,7,11.4,12.1"/>
		<path class="st2" d="M48.2,221.6c1.2,3.6,11.2,5.9,11.1,10.9"/>
		<path class="st2" d="M51.1,238.4c3,2.1,8.5,4.1,8.4,7.5"/>
	</g>
	<ellipse transform="matrix(0.5506 -0.8348 0.8348 0.5506 2.672 57.5842)" class="st6" cx="54.8" cy="26.3" rx="3.2" ry="7.3"/>
</g>
</svg>
