<?xml version="1.0" encoding="utf-8"?>
<!-- Generator: Adobe Illustrator 25.2.3, SVG Export Plug-In . SVG Version: 6.00 Build 0)  -->
<svg version="1.1" id="Layer_1" xmlns="http://www.w3.org/2000/svg" xmlns:xlink="http://www.w3.org/1999/xlink" x="0px" y="0px"
	 viewBox="0 0 140 220" style="enable-background:new 0 0 140 220;" xml:space="preserve">
<style type="text/css">
	.st0{fill:none;stroke:#FFFFFF;stroke-width:0.2116;stroke-linejoin:bevel;stroke-miterlimit:10;}
	.st1{fill:#CBB8B9;stroke:#FFFFFF;stroke-width:0.2116;stroke-miterlimit:10;}
	.st2{fill:#E4DAD8;stroke:#FFFFFF;stroke-width:0.2116;stroke-miterlimit:10;}
	.st3{fill:#CBB8B9;stroke:#FFFFFF;stroke-width:0.2116;stroke-linejoin:bevel;stroke-miterlimit:10;}
	.st4{fill:#E4DAD8;stroke:#FFFFFF;stroke-width:0.2116;stroke-linejoin:bevel;stroke-miterlimit:10;}
	.st5{fill:none;stroke:#FFFFFF;stroke-width:0.2116;stroke-miterlimit:10;}
	.st6{fill:none;stroke:#9C1B43;stroke-width:0.5307;stroke-miterlimit:10;}
	.st7{fill:none;stroke:#9C1B43;stroke-width:0.2268;stroke-miterlimit:10;}
	.st8{fill:#DD335A;stroke:#FFFFFF;stroke-width:0.2116;stroke-miterlimit:10;}
	.st9{fill:#B71549;stroke:#FFFFFF;stroke-width:0.2268;stroke-miterlimit:10;}
	.st10{fill:#B71549;stroke:#FFFFFF;stroke-width:0.2408;stroke-linejoin:bevel;stroke-miterlimit:10;}
	.st11{fill:#DD335A;stroke:#FFFFFF;stroke-width:0.2116;stroke-linejoin:bevel;stroke-miterlimit:10;}
	.st12{fill:none;stroke:#361D32;stroke-width:2.6531;stroke-linecap:round;stroke-miterlimit:10;}
	.st13{fill:none;stroke:#FFFFFF;stroke-width:0.2268;stroke-miterlimit:10;}
	.st14{clip-path:url(#SVGID_2_);fill:#B79797;stroke:#FFFFFF;stroke-width:0.2116;stroke-miterlimit:10;}
	.st15{fill:none;stroke:#361D32;stroke-width:0.2116;stroke-miterlimit:10;}
	.st16{fill:#B79797;stroke:#FFFFFF;stroke-width:0.2116;stroke-miterlimit:10;}
</style>
<g>
	<g>
		<line class="st0" x1="51.4" y1="206.6" x2="51.3" y2="214.8"/>
		<polygon class="st1" points="9.1,182.3 51.8,204 124.1,167.5 124.3,159.2 84,140.7 9.1,178.5 		"/>
		<polygon class="st1" points="9.1,183.1 9.2,174.9 51.9,195.8 51.7,204 		"/>
		<polygon class="st1" points="0.1,185.1 0.1,191.9 52,218.1 139.6,174 139.4,167 51.9,210.5 		"/>
		<path class="st2" d="M9.3,174.8l42.5,20.8l72.4-36.6l-42.7-20.7L9.3,174.8z"/>
		<polygon class="st2" points="51.7,210.5 139.6,167 87.6,141.8 0.3,184.5 		"/>
		<polygon class="st1" points="9.1,182.3 51.7,204.4 125.7,166.8 125.8,158.3 84,140.7 9.1,178.5 		"/>
		<polygon class="st3" points="9.1,183.1 9.2,174.9 51.7,196.2 51.6,204.4 		"/>
		<polygon class="st3" points="0.4,184.6 0.4,192.8 51.7,218.6 139.8,173.8 139.7,166.9 51.7,210.5 		"/>
		<path class="st4" d="M9.3,174.8l42.2,21.4l74.6-38.1l-42.7-20.7L9.3,174.8z"/>
		<line class="st5" x1="51.7" y1="210.7" x2="51.7" y2="218.5"/>
	</g>
	<path class="st6" d="M88.8,110.2"/>
	<path class="st7" d="M81,104.5"/>
	<path class="st7" d="M76.2,101"/>
	<path class="st7" d="M68.4,95.3"/>
	<path class="st6" d="M88.8,110.2"/>
	<path class="st7" d="M81,104.5"/>
	<path class="st7" d="M76.2,101"/>
	<path class="st7" d="M68.4,95.3"/>
	<g>
		<polygon class="st8" points="49.1,97.7 76.2,111.2 84.1,106.6 57.5,93.4 		"/>
		<polygon class="st8" points="41,101.9 68,115.4 76.2,110.8 49.6,97.5 		"/>
		
			<ellipse transform="matrix(8.939853e-02 -0.996 0.996 8.939853e-02 -46.5894 157.1146)" class="st9" cx="62.6" cy="104" rx="2.5" ry="4.7"/>
		<polygon class="st10" points="67.9,115.6 67.9,180.9 76.2,176.8 76.2,110.9 		"/>
		<polygon class="st9" points="76.2,110.7 76.2,176.4 83.9,172.5 83.9,106.3 		"/>
		<polygon class="st11" points="41.1,102 41.3,167.2 67.9,180.9 68.3,115.3 		"/>
		<g>
			<path class="st12" d="M40.9,120.8c-8,1.2,26.8,13,26.8,13l17.4-8.8l5.1,18.6"/>
			<path class="st12" d="M41,148.5c-8,1.2,26.7,13,26.7,13l17.7-8.8l8,15.5"/>
			<line class="st12" x1="85" y1="125" x2="85.5" y2="142.5"/>
			<line class="st12" x1="85.4" y1="152.7" x2="87.8" y2="170.2"/>
		</g>
		<line class="st13" x1="59.3" y1="102.3" x2="59.3" y2="105.5"/>
	</g>
	<g>
		<g>
			<g>
				<g>
					<g>
						<g>
							<g>
								<g>
									<defs>
										<path id="SVGID_1_" d="M96.3,58.3c2.4,1.5,4.7,8-0.8,14.5c-5.6,6.4-21.2,8.9-21.2,8.9s6.7,1.2,9.5,2.2
											c2.8,1,27.3,31.7,30,32.8c2,1,12.7,0.1,19.6-7.7s6.3-15.5,5.5-17.5c-0.7-1.6-30.6-24-40-31.2L96.3,58.3"/>
									</defs>
									<clipPath id="SVGID_2_">
										<use xlink:href="#SVGID_1_"  style="overflow:visible;"/>
									</clipPath>
									<path class="st14" d="M139,92c0,0,0.3,10.3-6,16.7c-8.5,8.1-18.1,8-19.1,8c-3.2-2.6-26.7-32.3-31-33.9
										c-4.2-1.5-9.1,0-9.1,0l6-2.6l6.3-1.4l14.2,4.8l9,1.1l24.4,2.9L139,92z"/>
								</g>
							</g>
						</g>
					</g>
				</g>
				<g>
					<path id="XMLID_3_" class="st15" d="M96.3,58.3c2.4,1.5,4.7,8-0.8,14.5c-5.6,6.4-21.2,8.9-21.2,8.9s6.7,1.2,9.5,2.2
						c2.8,1,27.3,31.7,30,32.8c2,1,12.7,0.1,19.6-7.7s6.3-15.5,5.5-17.5c-0.7-1.6-30.6-24-40-31.2L96.3,58.3"/>
				</g>
			</g>
			<path class="st15" d="M72.8,81.8c0,0-1.9-7,6.9-17.5s15.3-6.9,16.6-5.9"/>
		</g>
		<path class="st16" d="M84.4,78.5c-0.9-1.7-12-1-16.4,5.6c-4.3,6.6-4,8.4-4,8.4l-1.2,8.5c0,0,2.4,8.1,1.5,0.7
			c-0.8-7.5,5.2-14.7,5.2-14.7s3.9-3,7.5-5.4C79.9,79.6,84.9,79.2,84.4,78.5z"/>
	</g>
</g>
</svg>
