<?xml version="1.0" encoding="utf-8"?>
<!-- Generator: Adobe Illustrator 25.2.3, SVG Export Plug-In . SVG Version: 6.00 Build 0)  -->
<svg version="1.1" id="Layer_1" xmlns="http://www.w3.org/2000/svg" xmlns:xlink="http://www.w3.org/1999/xlink" x="0px" y="0px"
	 viewBox="0 0 279 321.5" style="enable-background:new 0 0 279 321.5;" xml:space="preserve">
<style type="text/css">
	.st0{fill:none;stroke:#FFFFFF;stroke-width:0.525;stroke-linejoin:bevel;stroke-miterlimit:10;}
	.st1{fill:#CCB9B9;stroke:#FFFFFF;stroke-width:0.525;stroke-miterlimit:10;}
	.st2{fill:#E4DAD8;stroke:#FFFFFF;stroke-width:0.525;stroke-miterlimit:10;}
	.st3{fill:#CCB9B9;stroke:#FFFFFF;stroke-width:0.525;stroke-linejoin:bevel;stroke-miterlimit:10;}
	.st4{fill:#E4DAD8;stroke:#FFFFFF;stroke-width:0.525;stroke-linejoin:bevel;stroke-miterlimit:10;}
	.st5{fill:none;stroke:#FFFFFF;stroke-width:0.525;stroke-miterlimit:10;}
	.st6{fill:none;stroke:#B71148;stroke-width:1.0415;stroke-miterlimit:10;}
	.st7{fill:#DC3359;stroke:#FFFFFF;stroke-width:0.525;stroke-miterlimit:10;}
	.st8{fill:#B71148;stroke:#FFFFFF;stroke-width:0.5525;stroke-miterlimit:10;}
	.st9{fill:#B71148;stroke:#FFFFFF;stroke-width:0.525;stroke-miterlimit:10;}
	.st10{fill:none;stroke:#361D32;stroke-width:5.2074;stroke-linecap:round;stroke-miterlimit:10;}
	.st11{fill:none;stroke:#FFFFFF;stroke-width:0.5525;stroke-miterlimit:10;}
	.st12{clip-path:url(#SVGID_2_);fill:#B79797;stroke:#FFFFFF;stroke-width:0.525;stroke-miterlimit:10;}
	.st13{fill:none;stroke:#361D32;stroke-width:0.525;stroke-miterlimit:10;}
	.st14{fill:#B79797;stroke:#FFFFFF;stroke-width:0.525;stroke-miterlimit:10;}
</style>
<g>
	<g>
		<line class="st0" x1="103" y1="296.5" x2="102.9" y2="312.6"/>
		<polygon class="st1" points="20,249.1 103.8,291.6 245.8,220.1 246,203.6 167,167.4 20.1,241.4 		"/>
		<polygon class="st1" points="20.1,250.5 20.3,234.4 103.9,275.4 103.6,291.6 		"/>
		<polygon class="st1" points="2.4,254.4 2.4,267.7 104.2,319.2 276,232.7 275.7,219 104.1,304.4 		"/>
		<path class="st2" d="M20.4,234.3c0,0,83.4,41.1,83.5,40.9l142-71.7l-84-40.5L20.4,234.3z"/>
		<polygon class="st2" points="103.5,304.4 276.1,219 174,169.5 2.8,253.3 		"/>
		<polygon class="st1" points="20,249.1 103.5,292.3 248.7,218.4 249,201.9 167,167.4 20.1,241.4 		"/>
		<polygon class="st3" points="20.1,250.5 20.3,234.4 103.5,276.3 103.4,292.4 		"/>
		<polygon class="st3" points="3,253.5 2.9,269.5 103.5,320 276.5,232.2 276.3,218.6 103.5,304.4 		"/>
		<path class="st4" d="M20.4,234.3l82.8,41.9l146.4-74.8l-83.9-40.5L20.4,234.3z"/>
		<line class="st5" x1="103.5" y1="304.8" x2="103.5" y2="319.8"/>
	</g>
	<path class="st6" d="M176.3,107.5"/>
	<path class="st6" d="M161,96.3"/>
	<path class="st6" d="M151.5,89.3"/>
	<path class="st6" d="M136.3,78.1"/>
	<path class="st6" d="M176.3,107.5"/>
	<path class="st6" d="M161,96.3"/>
	<path class="st6" d="M151.5,89.3"/>
	<path class="st6" d="M136.3,78.1"/>
	<g>
		<polygon class="st7" points="98.3,82.9 151.4,109.4 167.2,100.4 115.1,74.3 		"/>
		<polygon class="st7" points="82.6,91.1 135.8,117.6 151.5,108.6 99.5,82.6 		"/>
		
			<ellipse transform="matrix(8.935313e-02 -0.996 0.996 8.935313e-02 18.7652 211.1147)" class="st8" cx="124.8" cy="95.3" rx="4.7" ry="9.1"/>
		<polygon class="st9" points="135.4,118 135.3,246.2 151.4,238 151.5,108.7 		"/>
		<polygon class="st9" points="151.7,108.4 151.5,237.4 166.7,229.9 166.8,99.9 		"/>
		<polygon class="st7" points="82.8,91.2 83.2,219.3 136,245.7 136.1,117.6 		"/>
		<g>
			<path class="st10" d="M82.5,128.2c-15.8,2.3,52.6,25.5,52.6,25.5l34-17.3l9.9,36.5"/>
			<path class="st10" d="M82.8,182.6c-15.8,2.3,52.3,25.5,52.3,25.5l34.7-17.3l15.8,30.6"/>
			<line class="st10" x1="169" y1="136.4" x2="169.8" y2="170.8"/>
			<line class="st10" x1="169.7" y1="190.8" x2="174.4" y2="225.2"/>
		</g>
		<line class="st11" x1="118.4" y1="92" x2="118.4" y2="98.1"/>
	</g>
	<g>
		<g>
			<g>
				<g>
					<g>
						<defs>
							<path id="SVGID_1_" d="M191,5.8c4.6,3.2,9.2,15.8-1.6,28.5S148,51.7,148,51.7s13.1,2.3,18.6,4.3s53.4,62.3,58.8,64.5
								c4,1.9,24.9,0.2,38.6-15c13.7-15.2,12.4-30.6,10.8-34.4c-1.4-3.3-60.1-47.2-78.4-61.1L191,5.8"/>
						</defs>
						<clipPath id="SVGID_2_">
							<use xlink:href="#SVGID_1_"  style="overflow:visible;"/>
						</clipPath>
						<path class="st12" d="M275,71.8c0,0,0.6,20.3-11.8,32.7c-16.6,16.1-35.6,15.8-37.6,15.8c-6.2-5.1-52.4-63.3-60.8-66.4
							c-8.4-3-18,0-18,0l11.8-5.2l12.2-2.7l28,9.5l17.6,2.1l47.9,5.6L275,71.8z"/>
					</g>
				</g>
				<g>
					<path id="XMLID_49_" class="st13" d="M191,5.8c4.6,3.2,9.2,15.8-1.6,28.5S148,51.7,148,51.7s13.1,2.3,18.6,4.3
						s53.4,62.3,58.8,64.5c4,1.9,24.9,0.2,38.6-15c13.7-15.2,12.4-30.6,10.8-34.4c-1.4-3.3-60.1-47.2-78.4-61.1L191,5.8"/>
				</g>
			</g>
			<path class="st13" d="M144.9,51.5c0,0-3.7-13.7,13.5-34.3s30-13.5,32.6-11.4"/>
		</g>
		<path class="st14" d="M167.8,45.2c-1.7-3.5-23.7-2.1-32.2,11s-7.8,16.4-7.8,16.4l-2.4,16.6c0,0,4.6,16.1,3,1.3
			c-1.6-14.8,10.3-28.8,10.3-28.8s7.8-5.9,14.8-10.8C158.9,47.3,168.6,46.7,167.8,45.2z"/>
	</g>
</g>
</svg>
