<?xml version="1.0" encoding="utf-8"?>
<!-- Generator: Adobe Illustrator 25.2.3, SVG Export Plug-In . SVG Version: 6.00 Build 0)  -->
<svg version="1.1" id="Layer_1" xmlns="http://www.w3.org/2000/svg" xmlns:xlink="http://www.w3.org/1999/xlink" x="0px" y="0px"
	 viewBox="0 0 266.2 304.7" style="enable-background:new 0 0 266.2 304.7;" xml:space="preserve">
<style type="text/css">
	.st0{fill:#CCB9B9;stroke:#FFFFFF;stroke-width:0.5;stroke-linejoin:bevel;stroke-miterlimit:10;}
	.st1{fill:#CCB9B9;stroke:#FFFFFF;stroke-width:0.5;stroke-miterlimit:10;}
	.st2{fill:#E4DAD8;stroke:#FFFFFF;stroke-width:0.5;stroke-miterlimit:10;}
	.st3{fill:#E4DAD8;stroke:#FFFFFF;stroke-width:0.5;stroke-linejoin:bevel;stroke-miterlimit:10;}
	.st4{fill:#F77441;stroke:#FFFFFF;stroke-width:0.5345;stroke-miterlimit:10;}
	.st5{fill:#B79797;stroke:#FFFFFF;stroke-width:0.5068;stroke-linejoin:bevel;stroke-miterlimit:10;}
	.st6{fill:none;stroke:#FFFFFF;stroke-width:0.5345;stroke-miterlimit:10;}
	.st7{fill:#B79797;stroke:#FFFFFF;stroke-width:0.5068;stroke-miterlimit:10;}
	.st8{fill:#F77441;stroke:#FFFFFF;stroke-width:0.6525;stroke-miterlimit:10;}
	.st9{fill:none;stroke:#FFFFFF;stroke-width:0.6576;stroke-miterlimit:10;}
	.st10{fill:none;stroke:#B79797;stroke-width:0.75;stroke-miterlimit:10;}
	.st11{fill:none;stroke:#FFFFFF;stroke-width:0.75;stroke-miterlimit:10;}
	.st12{fill:#CCB9B9;stroke:#FFFFFF;stroke-width:0.3739;stroke-miterlimit:10;}
	.st13{fill:#361D32;stroke:#FFFFFF;stroke-width:0.25;stroke-miterlimit:10;}
	.st14{fill:#F77441;stroke:#FFFFFF;stroke-width:0.5;stroke-miterlimit:10;}
	.st15{fill:#361D32;stroke:#FFFFFF;stroke-width:0.5;stroke-miterlimit:10;}
	.st16{fill:#361D32;}
</style>
<g>
	<g>
		<g>
			<line class="st0" x1="96.5" y1="280.3" x2="96.4" y2="295.5"/>
			<polygon class="st1" points="17.4,235.1 97.1,275.6 232.4,207.4 232.7,191.7 157.3,157.3 17.4,227.8 			"/>
			<polygon class="st1" points="17.4,236.4 17.6,221.1 97.3,260.1 97,275.6 			"/>
			<polygon class="st1" points="0.6,240.2 0.6,252.9 97.6,301.8 261.1,219.5 260.9,206.4 97.5,287.8 			"/>
			<path class="st2" d="M17.8,221c0,0,79.4,39.1,79.5,39l135.2-68.3l-79.9-38.6L17.8,221z"/>
			<polygon class="st2" points="96.9,287.7 261.2,206.5 164.1,159.2 0.9,239.2 			"/>
			<polygon class="st1" points="17.4,235.1 96.8,276.2 235.2,205.9 235.5,190.2 157.3,157.3 17.4,227.8 			"/>
			<polygon class="st0" points="17.4,236.4 17.6,221.1 96.8,261.1 96.7,276.3 			"/>
			<polygon class="st0" points="1.2,239.3 1.1,254.5 96.8,302.6 261.7,219.1 261.4,206.1 96.9,287.8 			"/>
			<path class="st3" d="M17.8,221c0,0,78.9,39.9,78.9,39.9l139.4-71.2l-79.9-38.6L17.8,221z"/>
			<line class="st1" x1="96.8" y1="288.2" x2="96.8" y2="302.5"/>
		</g>
		<g>
			<g>
				<path class="st4" d="M119.2,95c0.6-1.6,4-2.9,7.9-2.8c3.9,0.1,7.1,1.5,7,3.2c0,1.7-2.6,2.5-7.2,2.6
					C122.3,98.1,119.1,95.3,119.2,95z"/>
				<path class="st5" d="M119.2,95.2c0.3,1.1,1.9,1.9,1.9,1.9s0,1.2,0,1.8c0,0.5-6.8,10.7-8.7,14.5c-1.5,3-3.6,8.6-3.2,13.2
					c0.4,4.6,1.7,6.3,1.7,6.3l0.4,0.9c0,0-0.1,4-0.1,4.3c0,0.3-0.4-0.4-1,1.9s-0.8,5.8-0.8,6.8c0,0.9-0.1,6.2,0.2,7
					c0.3,0.8,0.7,1.5,1,1.7s-1,0-1,1.2c0,1.3-0.1,5.2-0.2,6.2c0,1,0.4,1.8,0.6,1.9c0,0-0.9,0.5-0.9,1.5s0.1,4.6,0.2,5.9
					c0.1,0.4,1.1,1.2,1.1,1.2s-0.9,0.6-1,1c0,0-0.2,5.9-0.1,6.5c0,0.6,0.7,1.4,0.7,1.4s-0.7,0.7-0.7,1.2s-0.2,3.9-0.2,5.9
					c0,2,0.1,4.1,0.1,4.7c0,0.6,0.7,0.8,0.7,1.2c0,0-1,0.6-1,1.2c0,0.6,0.1,8.4,0.1,8.4c0,0.2-0.2,3.6,3.4,6.6
					c2.2,1.8,7.1,3.8,13.6,3.7c6.5,0,7.6-0.2,10.7-1.7c3.1-1.5,4.2-3.9,4.9-5.7c0.7-1.8,0.7-10.2,0.5-11.2c0-0.3-0.7-0.6-0.7-0.8
					c0-0.2,0.6-0.7,0.6-1.7c0.1-0.9,0.2-8.8,0.2-9.9s-0.8-1.4-0.8-1.4s0.5-0.8,0.6-1.5c0.1-0.6,0.5-6.2,0.4-6.9c0-0.7-1-1.1-1-1.2
					c0-0.1,0.7-0.5,0.8-0.9c0.3-1.1,0.2-5.9,0.2-5.9c0-0.2,0-0.7,0-0.8c-0.1-0.4-1-0.4-1-0.7s1.2-0.7,1.2-1.5c0-0.8,0.2-6.1,0.2-6.8
					c0-0.7-0.7-0.5-0.7-0.9c0,0,0.6-1,0.6-1.2c0.3-1,0.7-3.6,0.8-6.9c0-3.1-0.2-7.2-0.3-7.9c-0.1-0.7-0.5-2-1.3-2c0-0.1,0-4.1,0-4.1
					l1-2.2c0,0,2.2-7-0.4-14.6c-2.6-7.6-9.4-18-9.5-18.4c0-0.4-0.2-1.9-0.2-1.9s1.4-0.6,1.5-1.7c0.1-1-1.6-1.4-1.6-1.7l0-7.8
					c0,0-0.6,2.7-5.1,2.6c-5.4-0.1-6.3-2.1-6.3-2.1s-0.4,6.9-0.4,7.2C120.9,93.8,118.9,94.1,119.2,95.2z"/>
				<path class="st6" d="M120.8,93.6c-1,0.3,1.4,2.9,6.4,3c5,0,6.3-2.7,5.5-2.7"/>
				<path class="st6" d="M134.1,95.8c0,0-1.4,2.5-7.3,2.5s-7.5-2.8-7.5-2.8"/>
				<path class="st7" d="M121.2,86c0-1.5,3.1-2.6,6.1-2.5c3,0.1,5.4,1.3,5.4,2.8c0,1.5-2.5,2.4-5.5,2.3S121.1,87.5,121.2,86z"/>
				<path class="st8" d="M127.3,86.8"/>
				<path class="st8" d="M145.5,125.8"/>
				<path class="st9" d="M110.4,155.6c0,0,4.9,4,16.2,4.4c11.6,0.4,15.7-4.2,15.7-4.2"/>
				<path class="st9" d="M109.7,164.7c0,0,5,4.3,16.3,4.7c11.6,0.4,15.8-4.5,15.8-4.5"/>
				<path class="st9" d="M110,182.6c0,0,4.3,4.7,15.5,5.1c11.6,0.4,16-4.6,16-4.6"/>
				<path class="st9" d="M110.2,173.6c0,0,6.6,4.3,15.5,4.4s15.7-4.5,15.7-4.5"/>
				<path class="st9" d="M109.6,195.3c0,0,4.3,4.8,15.9,5.2c12,0.4,16-4.6,16-4.6"/>
				<path class="st9" d="M111.1,133.2c0,0,4.6,4.6,16,4.5c11.3-0.1,15-4.3,15-4.3"/>
				<path class="st9" d="M111,138.2c0,0,3.1,4.1,15.4,4.4s15.3-4.2,15.3-4.2"/>
			</g>
			<path class="st10" d="M137.4,213.1c1.2-0.5,3.5-3.4,3.8-4.1c0.7-1.8,0.7-10.2,0.5-11.2c0-0.3-0.7-0.6-0.7-0.8
				c0-0.2,0.6-0.7,0.6-1.7c0.1-0.9,0.2-8.8,0.2-9.9s-0.8-1.4-0.8-1.4s0.5-0.8,0.6-1.5c0.1-0.6,0.5-6.2,0.4-6.9c0-0.7-1-1.1-1-1.2
				c0-0.1,0.7-0.5,0.8-0.9c0.3-1.1,0.2-5.9,0.2-5.9c0-0.2,0-0.7,0-0.8c-0.1-0.4-1-0.4-1-0.7s1.2-0.7,1.2-1.5c0-0.8,0.2-6.1,0.2-6.8
				c0-0.7-0.7-0.5-0.7-0.9c0,0,0.6-1,0.6-1.2c0.3-1,0.7-3.6,0.8-6.9c0-3.1-0.2-7.2-0.3-7.9c-0.1-0.7-0.5-2-1.3-2c0-0.1,0-4.1,0-4.1
				l1-2.2c0,0,2.2-7-0.4-14.6c-2.6-7.6-9.4-18-9.5-18.4s-0.2-1.9-0.2-1.9s1.4-0.6,1.5-1.7c0.1-1-1.6-1.4-1.6-1.7
				c0,0,0.3-7.8-0.1-8.1"/>
			<path class="st11" d="M132.2,86.3c-5-2.8-10.8-0.5-10.8-0.5s-0.5,7.4-0.5,7.7c0,0.3-1.9,0.6-1.7,1.7s1.9,1.9,1.9,1.9s0,1.2,0,1.8
				c0,0.3-6.9,13.6-7.8,15.4c-1.5,3-2.6,8.7-2.2,13.3c0.4,4.6,1.7,6.3,1.7,6.3l0.4,0.9c0,0-0.1,4-0.1,4.3c0,0.3-0.4-0.4-1,1.9
				c-0.6,2.3-0.8,5.8-0.8,6.8c0,0.9-0.1,6.2,0.2,7c0.3,0.8,0.7,1.5,1,1.7c0.3,0.2-1,0-1,1.2c0,1.3-0.1,5.2-0.2,6.2s0.4,1.8,0.6,1.9
				c0,0-0.9,0.5-0.9,1.5c-0.1,1,0.1,4.6,0.2,5.9c0.1,0.4,1.1,1.2,1.1,1.2s-0.9,0.6-1,1c0,0-0.2,5.9-0.1,6.5c0,0.6,0.7,1.4,0.7,1.4
				s-0.7,0.7-0.7,1.2s-0.2,3.9-0.2,5.9s0.1,4.1,0.1,4.7c0,0.6,0.7,0.8,0.7,1.2c0,0-1,0.6-1,1.2c0,0.6,0.1,8.4,0.1,8.4
				c0,0.1-0.1,2,1.2,4.1c0,0,2.4,2.6,5.5,3.9"/>
			<path class="st10" d="M132.3,86.6c-0.2-0.4-2.3-1.4-4.7-1.5c-2.5-0.1-6.1,0.5-6.2,1.1c-0.1,0.9-0.2,7-0.2,7.3
				c0,0.3-1.9,0.6-1.7,1.7c0.3,1.1,2.1,2.2,2.1,2.2l0,2.2c0,0-6.3,12.9-7.2,14.6c-1.5,3-2.6,8.7-2.2,13.3c0.4,4.6,1.7,6.3,1.7,6.3
				l0.4,0.9c0,0-0.1,4-0.1,4.3c0,0.3-0.4-0.4-1,1.9c-0.6,2.3-0.8,5.8-0.8,6.8s-0.1,6.2,0.2,7c0.3,0.8,0.7,1.5,1,1.7
				c0.3,0.2-1,0-1,1.2c0,1.3-0.1,5.2-0.2,6.2s0.4,1.8,0.6,1.9c0,0-0.9,0.5-0.9,1.5c-0.1,1,0.1,4.6,0.2,5.9c0.1,0.4,1.1,1.2,1.1,1.2
				s-0.9,0.6-1,1c0,0-0.2,5.9-0.1,6.5s0.7,1.4,0.7,1.4s-0.7,0.7-0.7,1.2s-0.2,3.9-0.2,5.9c0,2,0.1,4.1,0.1,4.7
				c0,0.6,0.7,0.8,0.7,1.2c0,0-1,0.6-1,1.2c0,0.6,0.1,8.4,0.1,8.4c0,0.1-0.1,2,1.2,4.1c0,0,2.4,2.6,5.5,3.9"/>
		</g>
	</g>
	<g>
		
			<ellipse transform="matrix(0.9185 -0.3954 0.3954 0.9185 -34.3412 65.7021)" class="st12" cx="142.2" cy="116.2" rx="4.7" ry="6.1"/>
		<g>
			<path class="st13" d="M149.2,113.1c-0.1,0.1-0.2,0.2-0.3,0.2l-6,3.7c-0.4,0.2-0.9,0.1-1.2-0.3c-0.2-0.4-0.1-0.9,0.3-1.2l6-3.7
				c0.4-0.2,0.9-0.1,1.2,0.3C149.4,112.4,149.4,112.8,149.2,113.1z"/>
		</g>
		<g>
			<path class="st2" d="M158.7,110.2c-0.3,0.4-0.6,0.7-1,1l-5.8,3.6c-1.6,1-3.7,0.5-4.7-1.1c-1-1.6-0.5-3.7,1.1-4.7l5.8-3.6
				c1.6-1,3.7-0.5,4.7,1.1C159.5,107.6,159.4,109.1,158.7,110.2z"/>
		</g>
		<g>
			<path class="st1" d="M177.3,102.8c-0.5,0.8-1.3,1.5-2.2,2l-12.1,7.1c-3.2,1.9-7.4,0.8-9.3-2.4c-1.9-3.2-0.8-7.4,2.4-9.3l12.1-7.1
				c3.2-1.9,7.4-0.8,9.3,2.4C178.9,97.9,178.7,100.7,177.3,102.8z"/>
		</g>
		<g>
			<path class="st2" d="M187.1,100.1c-0.8,1.1-1.8,2.1-3,2.8l-10.5,6.2c-4.4,2.6-10.1,1.1-12.8-3.3c-2.6-4.4-1.1-10.1,3.3-12.8
				l10.5-6.2c4.4-2.6,10.1-1.1,12.8,3.3C189.3,93.4,189,97.2,187.1,100.1z"/>
		</g>
		<g>
			<path class="st14" d="M211.2,84c-1.6,2.4-3.5,7.7-1.5,11.4c1.9,3.7-4,6-4,6c-3.9,2.2-15.3,7.1-15.3,7.1s-8.1,3.7-10.8-0.1
				c-2.7-3.8-9.3-18.9-10-22.8c-1-5.1,5.6-8.7,5.6-8.7l15.9-8.2c1.2-0.6,6-2,8.2,4.1c2.1,6.1-3.2-3.3-2.1-3.5
				c7.6-1,12.2,0.4,16.1,7.5C216.9,83.3,215.2,78.2,211.2,84z"/>
		</g>
		<g>
			<path class="st14" d="M214.4,81.2c-1.4,2.1-3.1,6.8-1.4,10.2c1.7,3.3-3.5,5.4-3.5,5.4c-3.4,1.9-13.7,6.3-13.7,6.3
				s-7.2,3.3-9.6-0.1c-2.4-3.4-8.3-16.9-8.9-20.3c-0.9-4.5,5-7.8,5-7.8l14.2-7.3c1-0.6,5.4-1.8,7.3,3.6c1.9,5.4-2.8-3-1.9-3.1
				c6.7-0.9,10.8,0.4,14.3,6.7C219.5,80.5,217.9,76,214.4,81.2z"/>
		</g>
		<g>
			<path class="st15" d="M230.9,79c-1,1.5-2.4,2.8-4,3.7l-22.9,12.8c-5.7,3.2-12.9,1.1-16.1-4.6c-3.2-5.7-1.1-12.9,4.6-16.1
				l22.9-12.8c5.7-3.2,12.9-1.1,16.1,4.6C233.6,70.7,233.3,75.5,230.9,79z"/>
		</g>
		
			<ellipse transform="matrix(0.5598 -0.8286 0.8286 0.5598 38.1096 215.8196)" class="st15" cx="222.2" cy="72" rx="11.1" ry="10.3"/>
		<g>
			<path class="st15" d="M238.4,70.3c-0.6,0.9-1.4,1.6-2.4,2.2l-8.3,4.9c-3.5,2.1-8,0.9-10.1-2.6c-2.1-3.5-0.9-8,2.6-10.1l8.3-4.9
				c3.5-2.1,8-0.9,10.1,2.6C240.1,65,239.9,68.1,238.4,70.3z"/>
		</g>
		<ellipse transform="matrix(0.6454 -0.7639 0.7639 0.6454 32.0624 201.1437)" class="st15" cx="232.7" cy="66" rx="7.6" ry="7"/>
		<g>
			<path class="st16" d="M265.5,52.3c-0.2,0.3-0.6,0.5-1,0.3c-5.2-1.9-6.4,0.1-6.4,0.1l-0.1,0.1l-0.1,0.1c-5.7,5.8-7.1,5.9-8.7,5.4
				c-0.3-0.1-0.5-0.2-0.8-0.1l-14.7,8.2c-0.4,0.2-0.9,0.1-1.2-0.3c-0.2-0.4-0.1-0.9,0.3-1.2l14.9-8.3c0.9-0.3,1.5-0.1,1.9,0
				c0.7,0.2,1.6,0.5,6.9-4.9c0.5-0.7,2.4-3,8.4-0.8c0.4,0.2,0.7,0.6,0.5,1.1C265.5,52.2,265.5,52.3,265.5,52.3z"/>
		</g>
	</g>
</g>
</svg>
