<?xml version="1.0" encoding="utf-8"?>
<!-- Generator: Adobe Illustrator 25.2.3, SVG Export Plug-In . SVG Version: 6.00 Build 0)  -->
<svg version="1.1" id="Layer_1" xmlns="http://www.w3.org/2000/svg" xmlns:xlink="http://www.w3.org/1999/xlink" x="0px" y="0px"
	 viewBox="0 0 266.2 304.7" style="enable-background:new 0 0 266.2 304.7;" xml:space="preserve">
<style type="text/css">
	.st0{fill:none;stroke:#FFFFFF;stroke-width:0.4795;stroke-linejoin:bevel;stroke-miterlimit:10;}
	.st1{fill:#CCB9B9;stroke:#FFFFFF;stroke-width:0.5;stroke-miterlimit:10;}
	.st2{fill:#E4DAD8;stroke:#FFFFFF;stroke-width:0.5;stroke-miterlimit:10;}
	.st3{fill:#CCB9B9;stroke:#FFFFFF;stroke-width:0.5;stroke-linejoin:bevel;stroke-miterlimit:10;}
	.st4{fill:#E4DAD8;stroke:#FFFFFF;stroke-width:0.5;stroke-linejoin:bevel;stroke-miterlimit:10;}
	.st5{fill:none;stroke:#FFFFFF;stroke-width:0.5;stroke-miterlimit:10;}
	.st6{fill:#F77441;stroke:#FFFFFF;stroke-width:0.5345;stroke-miterlimit:10;}
	.st7{fill:#B79797;stroke:#FFFFFF;stroke-width:0.5068;stroke-linejoin:bevel;stroke-miterlimit:10;}
	.st8{fill:none;stroke:#FFFFFF;stroke-width:0.5345;stroke-miterlimit:10;}
	.st9{fill:#B79797;stroke:#FFFFFF;stroke-width:0.5068;stroke-miterlimit:10;}
	.st10{fill:#F77441;stroke:#FFFFFF;stroke-width:0.6525;stroke-miterlimit:10;}
	.st11{fill:none;stroke:#FFFFFF;stroke-width:0.6576;stroke-miterlimit:10;}
</style>
<g>
	<g>
		<line class="st0" x1="97.6" y1="280.1" x2="97.5" y2="295.3"/>
		<polygon class="st1" points="18.6,234.9 98.3,275.4 233.6,207.2 233.9,191.5 158.5,157.1 18.6,227.6 		"/>
		<polygon class="st1" points="18.6,236.2 18.8,220.9 98.4,259.9 98.1,275.4 		"/>
		<polygon class="st1" points="1.8,240 1.8,252.7 98.8,301.6 262.3,219.3 262.1,206.2 98.6,287.6 		"/>
		<path class="st2" d="M19,220.8c0,0,79.4,39.1,79.5,39l135.2-68.3l-79.9-38.6L19,220.8z"/>
		<polygon class="st2" points="98.1,287.5 262.4,206.3 165.2,159 2.1,239 		"/>
		<polygon class="st1" points="18.6,234.9 98,276 236.4,205.7 236.7,190 158.5,157.1 18.6,227.6 		"/>
		<polygon class="st3" points="18.6,236.2 18.8,220.9 98,260.9 97.9,276.1 		"/>
		<polygon class="st3" points="2.3,239.1 2.3,254.3 98,302.4 262.9,218.9 262.6,205.8 98,287.6 		"/>
		<path class="st4" d="M19,220.8l78.9,39.9l139.4-71.2L157.4,151L19,220.8z"/>
		<line class="st5" x1="98" y1="288" x2="98" y2="302.3"/>
	</g>
	<g>
		<g>
			<path class="st6" d="M120.4,94.8c0.6-1.6,4-2.9,7.9-2.8c3.9,0.1,7.1,1.5,7,3.2c0,1.7-2.6,2.5-7.2,2.6
				C123.5,97.9,120.3,95.1,120.4,94.8z"/>
			<path class="st7" d="M120.4,95c0.3,1.1,1.9,1.9,1.9,1.9s0,1.2,0,1.8s-6.8,10.7-8.7,14.5c-1.5,3-3.6,8.6-3.2,13.2s1.7,6.3,1.7,6.3
				l0.4,0.9c0,0-0.1,4-0.1,4.3s-0.4-0.4-1,1.9s-0.8,5.8-0.8,6.8c0,0.9-0.1,6.2,0.2,7c0.3,0.8,0.7,1.5,1,1.7s-1,0-1,1.2
				s-0.1,5.2-0.2,6.2c0,1,0.4,1.8,0.6,1.9c0,0-0.9,0.5-0.9,1.5c-0.1,1,0.1,4.6,0.2,5.9c0.1,0.4,1.1,1.2,1.1,1.2s-0.9,0.6-1,1
				c0,0-0.2,5.9-0.1,6.5c0,0.6,0.7,1.4,0.7,1.4s-0.7,0.7-0.7,1.2c0,0.6-0.2,3.9-0.2,5.9s0.1,4.1,0.1,4.7s0.7,0.8,0.7,1.2
				c0,0-1,0.6-1,1.2c0,0.6,0.1,8.4,0.1,8.4c0,0.2-0.2,3.6,3.4,6.6c2.2,1.8,7.1,3.8,13.6,3.7s7.6-0.2,10.7-1.7
				c3.1-1.5,4.2-3.9,4.9-5.7s0.7-10.2,0.5-11.2c0-0.3-0.7-0.6-0.7-0.8s0.6-0.7,0.6-1.7c0.1-0.9,0.2-8.8,0.2-9.9s-0.8-1.4-0.8-1.4
				s0.5-0.8,0.6-1.5c0.1-0.6,0.5-6.2,0.4-6.9c0-0.7-1-1.1-1-1.2c0-0.1,0.7-0.5,0.8-0.9c0.3-1.1,0.2-5.9,0.2-5.9c0-0.2,0-0.7,0-0.8
				c-0.1-0.4-1-0.4-1-0.7s1.2-0.7,1.2-1.5s0.2-6.1,0.2-6.8s-0.7-0.5-0.7-0.9c0,0,0.6-1,0.6-1.2c0.3-1,0.7-3.6,0.8-6.9
				c0-3.1-0.2-7.2-0.3-7.9s-0.5-2-1.3-2c0-0.1,0-4.1,0-4.1l1-2.2c0,0,2.2-7-0.4-14.6c-2.6-7.6-9.4-18-9.5-18.4
				c0-0.4-0.2-1.9-0.2-1.9s1.4-0.6,1.5-1.7c0.1-1-1.6-1.4-1.6-1.7v-7.8c0,0-0.6,2.7-5.1,2.6c-5.4-0.1-6.3-2.1-6.3-2.1
				S122,93,122,93.3C122.1,93.6,120.1,93.9,120.4,95z"/>
			<path class="st8" d="M122,93.4c-1,0.3,1.4,2.9,6.4,3c5,0,6.3-2.7,5.5-2.7"/>
			<path class="st8" d="M135.3,95.6c0,0-1.4,2.5-7.3,2.5c-5.8,0-7.5-2.8-7.5-2.8"/>
			<path class="st9" d="M122.4,85.8c0-1.5,3.1-2.6,6.1-2.5s5.4,1.3,5.4,2.8s-2.5,2.4-5.5,2.3C125.3,88.4,122.3,87.3,122.4,85.8z"/>
			<path class="st10" d="M128.5,86.6"/>
			<path class="st10" d="M146.7,125.6"/>
			<path class="st11" d="M111.6,155.4c0,0,4.9,4,16.2,4.4c11.6,0.4,15.7-4.2,15.7-4.2"/>
			<path class="st11" d="M110.9,164.5c0,0,5,4.3,16.3,4.7c11.6,0.4,15.8-4.5,15.8-4.5"/>
			<path class="st11" d="M111.1,182.4c0,0,4.3,4.7,15.5,5.1c11.6,0.4,16-4.6,16-4.6"/>
			<path class="st11" d="M111.4,173.3c0,0,6.6,4.3,15.5,4.4s15.7-4.5,15.7-4.5"/>
			<path class="st11" d="M110.8,195.1c0,0,4.3,4.8,15.9,5.2c12,0.4,16-4.6,16-4.6"/>
			<path class="st11" d="M112.2,133c0,0,4.6,4.6,16,4.5c11.3-0.1,15-4.3,15-4.3"/>
			<path class="st11" d="M112.2,138c0,0,3.1,4.1,15.4,4.4c12.4,0.3,15.3-4.2,15.3-4.2"/>
		</g>
	</g>
</g>
</svg>
