<?xml version="1.0" encoding="utf-8"?>
<!-- Generator: Adobe Illustrator 25.2.3, SVG Export Plug-In . SVG Version: 6.00 Build 0)  -->
<svg version="1.1" id="Layer_1" xmlns="http://www.w3.org/2000/svg" xmlns:xlink="http://www.w3.org/1999/xlink" x="0px" y="0px"
	 viewBox="0 0 283 321.5" style="enable-background:new 0 0 283 321.5;" xml:space="preserve">
<style type="text/css">
	.st0{fill:none;stroke:#FFFFFF;stroke-width:0.5035;stroke-linejoin:bevel;stroke-miterlimit:10;}
	.st1{fill:#CCB9B9;stroke:#FFFFFF;stroke-width:0.525;stroke-miterlimit:10;}
	.st2{fill:#E4DAD8;stroke:#FFFFFF;stroke-width:0.525;stroke-miterlimit:10;}
	.st3{fill:#CCB9B9;stroke:#FFFFFF;stroke-width:0.525;stroke-linejoin:bevel;stroke-miterlimit:10;}
	.st4{fill:#E4DAD8;stroke:#FFFFFF;stroke-width:0.525;stroke-linejoin:bevel;stroke-miterlimit:10;}
	.st5{fill:none;stroke:#FFFFFF;stroke-width:0.525;stroke-miterlimit:10;}
	.st6{fill:#F77441;stroke:#FFFFFF;stroke-width:0.5612;stroke-miterlimit:10;}
	.st7{fill:#B79797;stroke:#FFFFFF;stroke-width:0.5321;stroke-linejoin:bevel;stroke-miterlimit:10;}
	.st8{fill:none;stroke:#FFFFFF;stroke-width:0.5612;stroke-miterlimit:10;}
	.st9{fill:#B79797;stroke:#FFFFFF;stroke-width:0.5321;stroke-miterlimit:10;}
	.st10{fill:#F77441;stroke:#FFFFFF;stroke-width:0.6851;stroke-miterlimit:10;}
	.st11{fill:none;stroke:#FFFFFF;stroke-width:0.6905;stroke-miterlimit:10;}
</style>
<g>
	<g>
		<line class="st0" x1="104.7" y1="297.1" x2="104.6" y2="313"/>
		<polygon class="st1" points="21.7,249.6 105.4,292.1 247.5,220.5 247.8,204 168.6,167.9 21.7,241.9 		"/>
		<polygon class="st1" points="21.7,251 21.9,234.9 105.5,275.9 105.2,292.1 		"/>
		<polygon class="st1" points="4.1,255 4.1,268.3 105.9,319.6 277.6,233.2 277.4,219.5 105.7,304.9 		"/>
		<path class="st2" d="M22.1,234.8c0,0,83.4,41.1,83.5,40.9l142-71.7l-83.9-40.5L22.1,234.8z"/>
		<polygon class="st2" points="105.2,304.8 277.7,219.6 175.6,169.9 4.4,253.9 		"/>
		<polygon class="st1" points="21.7,249.6 105.1,292.8 250.4,218.9 250.7,202.5 168.6,167.9 21.7,241.9 		"/>
		<polygon class="st3" points="21.7,251 21.9,234.9 105.1,276.9 105,292.9 		"/>
		<polygon class="st3" points="4.6,254 4.6,270 105.1,320.5 278.2,232.8 277.9,219 105.1,304.9 		"/>
		<path class="st4" d="M22.1,234.8l82.8,41.9l146.4-74.8l-83.9-40.4L22.1,234.8z"/>
		<line class="st5" x1="105.1" y1="305.4" x2="105.1" y2="320.4"/>
	</g>
	<g>
		<g>
			<path class="st6" d="M128.6,102.5c0.6-1.7,4.2-3,8.3-2.9c4.1,0.1,7.5,1.6,7.4,3.4c0,1.8-2.7,2.6-7.6,2.7
				C131.9,105.8,128.5,102.8,128.6,102.5z"/>
			<path class="st7" d="M128.6,102.7c0.3,1.2,2,2,2,2s0,1.3,0,1.9s-7.1,11.2-9.1,15.2c-1.6,3.2-3.8,9-3.4,13.9
				c0.4,4.8,1.8,6.6,1.8,6.6l0.4,0.9c0,0-0.1,4.2-0.1,4.5s-0.4-0.4-1.1,2s-0.8,6.1-0.8,7.1c0,0.9-0.1,6.5,0.2,7.4
				c0.3,0.8,0.7,1.6,1,1.8c0.3,0.2-1,0-1,1.3c0,1.3-0.1,5.5-0.2,6.5c0,1.1,0.4,1.9,0.6,2c0,0-0.9,0.5-0.9,1.6
				c-0.1,1.1,0.1,4.8,0.2,6.2c0.1,0.4,1.2,1.3,1.2,1.3s-0.9,0.6-1.1,1.1c0,0-0.2,6.2-0.1,6.8c0,0.6,0.7,1.5,0.7,1.5
				s-0.7,0.7-0.7,1.3c0,0.6-0.2,4.1-0.2,6.2c0,2.1,0.1,4.3,0.1,4.9s0.7,0.8,0.7,1.3c0,0-1.1,0.6-1.1,1.3c0,0.6,0.1,8.8,0.1,8.8
				c0,0.2-0.2,3.8,3.6,6.9c2.3,1.9,7.5,4,14.3,3.9c6.8-0.1,8-0.2,11.2-1.8s4.4-4.1,5.1-6c0.7-1.9,0.7-10.7,0.5-11.8
				c0-0.3-0.7-0.6-0.7-0.8c0-0.2,0.6-0.7,0.6-1.8c0.1-0.9,0.2-9.2,0.2-10.4c0-1.2-0.8-1.5-0.8-1.5s0.5-0.8,0.6-1.6
				c0.1-0.6,0.5-6.5,0.4-7.2c0-0.7-1.1-1.2-1.1-1.3c0-0.1,0.7-0.5,0.8-0.9c0.3-1.2,0.2-6.2,0.2-6.2c0-0.2,0-0.7,0-0.8
				c-0.1-0.4-1.1-0.4-1.1-0.7s1.3-0.7,1.3-1.6c0-0.8,0.2-6.4,0.2-7.1s-0.7-0.5-0.7-0.9c0,0,0.6-1.1,0.6-1.3c0.3-1.1,0.7-3.8,0.8-7.2
				c0-3.3-0.2-7.6-0.3-8.3c-0.1-0.7-0.5-2.1-1.4-2.1c0-0.1,0-4.3,0-4.3l1-2.3c0,0,2.3-7.4-0.4-15.3c-2.7-8-9.9-18.9-10-19.3
				c0-0.4-0.2-2-0.2-2s1.5-0.6,1.6-1.8c0.1-1-1.7-1.5-1.7-1.8v-8.2c0,0-0.6,2.8-5.4,2.7c-5.7-0.1-6.6-2.2-6.6-2.2s-0.5,7.8-0.5,8.1
				C130.4,101.2,128.3,101.6,128.6,102.7z"/>
			<path class="st8" d="M130.3,101c-1.1,0.3,1.5,3,6.7,3.2c5.2,0,6.6-2.8,5.8-2.8"/>
			<path class="st8" d="M144.2,103.3c0,0-1.5,2.6-7.7,2.6c-6.1,0-7.9-2.9-7.9-2.9"/>
			<path class="st9" d="M130.7,93c0-1.6,3.3-2.7,6.4-2.6c3.2,0.1,5.7,1.4,5.7,2.9c0,1.6-2.6,2.5-5.8,2.4
				C133.7,95.8,130.6,94.6,130.7,93z"/>
			<path class="st10" d="M137.1,93.9"/>
			<path class="st10" d="M156.2,134.8"/>
			<path class="st11" d="M119.4,166.1c0,0,5.1,4.2,17,4.6c12.2,0.4,16.5-4.4,16.5-4.4"/>
			<path class="st11" d="M118.6,175.7c0,0,5.2,4.5,17.1,4.9c12.2,0.4,16.6-4.7,16.6-4.7"/>
			<path class="st11" d="M118.8,194.5c0,0,4.5,4.9,16.3,5.4c12.2,0.4,16.8-4.8,16.8-4.8"/>
			<path class="st11" d="M119.2,184.9c0,0,6.9,4.5,16.3,4.6c9.3,0.1,16.5-4.7,16.5-4.7"/>
			<path class="st11" d="M118.5,207.8c0,0,4.5,5,16.7,5.5c12.6,0.4,16.8-4.8,16.8-4.8"/>
			<path class="st11" d="M120,142.6c0,0,4.8,4.8,16.8,4.7c11.9-0.1,15.8-4.5,15.8-4.5"/>
			<path class="st11" d="M120,147.9c0,0,3.3,4.3,16.2,4.6c13,0.3,16.1-4.4,16.1-4.4"/>
		</g>
	</g>
</g>
</svg>
