<?xml version="1.0" encoding="utf-8"?>
<!-- Generator: Adobe Illustrator 25.2.3, SVG Export Plug-In . SVG Version: 6.00 Build 0)  -->
<svg version="1.1" id="Layer_1" xmlns="http://www.w3.org/2000/svg" xmlns:xlink="http://www.w3.org/1999/xlink" x="0px" y="0px"
	 viewBox="0 0 282.8 321.5" style="enable-background:new 0 0 282.8 321.5;" xml:space="preserve">
<style type="text/css">
	.st0{fill:none;stroke:#FFFFFF;stroke-width:0.525;stroke-linejoin:bevel;stroke-miterlimit:10;}
	.st1{fill:#CCB9B9;stroke:#FFFFFF;stroke-width:0.525;stroke-miterlimit:10;}
	.st2{fill:#E4DAD8;stroke:#FFFFFF;stroke-width:0.525;stroke-miterlimit:10;}
	.st3{fill:#CCB9B9;stroke:#FFFFFF;stroke-width:0.525;stroke-linejoin:bevel;stroke-miterlimit:10;}
	.st4{fill:#E4DAD8;stroke:#FFFFFF;stroke-width:0.525;stroke-linejoin:bevel;stroke-miterlimit:10;}
	.st5{fill:none;stroke:#FFFFFF;stroke-width:0.525;stroke-miterlimit:10;}
	.st6{fill:#F77441;stroke:#FFFFFF;stroke-width:0.5612;stroke-miterlimit:10;}
	.st7{fill:#B79797;stroke:#FFFFFF;stroke-width:0.5321;stroke-linejoin:bevel;stroke-miterlimit:10;}
	.st8{fill:none;stroke:#FFFFFF;stroke-width:0.5612;stroke-miterlimit:10;}
	.st9{fill:#B79797;stroke:#FFFFFF;stroke-width:0.5321;stroke-miterlimit:10;}
	.st10{fill:#F77441;stroke:#FFFFFF;stroke-width:0.6851;stroke-miterlimit:10;}
	.st11{fill:none;stroke:#FFFFFF;stroke-width:0.6905;stroke-miterlimit:10;}
	.st12{fill:none;stroke:#B79797;stroke-width:0.7875;stroke-miterlimit:10;}
	.st13{fill:none;stroke:#FFFFFF;stroke-width:0.7875;stroke-miterlimit:10;}
	.st14{fill:#CCB9B9;stroke:#FFFFFF;stroke-width:0.3926;stroke-miterlimit:9.9998;}
	.st15{fill:#361D32;stroke:#FFFFFF;stroke-width:0.2625;stroke-miterlimit:10;}
	.st16{fill:#F77441;stroke:#FFFFFF;stroke-width:0.525;stroke-miterlimit:10;}
	.st17{fill:#361D32;stroke:#FFFFFF;stroke-width:0.525;stroke-miterlimit:10;}
	.st18{fill:#361D32;stroke:#FFFFFF;stroke-width:0.525;stroke-miterlimit:9.9996;}
	.st19{fill:#361D32;stroke:#FFFFFF;stroke-width:0.525;stroke-miterlimit:10.0008;}
	.st20{fill:#361D32;}
</style>
<g>
	<g>
		<g>
			<line class="st0" x1="105.4" y1="294.9" x2="105.3" y2="310.9"/>
			<polygon class="st1" points="22.3,247.4 106,290 248.1,218.4 248.4,201.9 169.2,165.8 22.3,239.8 			"/>
			<polygon class="st1" points="22.3,248.8 22.5,232.7 106.2,273.7 105.9,290 			"/>
			<polygon class="st1" points="4.7,252.8 4.7,266.1 106.5,317.5 278.2,231.1 278,217.3 106.4,302.8 			"/>
			<path class="st2" d="M22.7,232.6c0,0,83.4,41.1,83.5,40.9l142-71.7l-83.9-40.5L22.7,232.6z"/>
			<polygon class="st2" points="105.8,302.7 278.3,217.4 176.4,167.7 5,251.7 			"/>
			<polygon class="st1" points="22.3,247.4 105.7,290.6 251,216.8 251.3,200.3 169.2,165.8 22.3,239.8 			"/>
			<polygon class="st3" points="22.3,248.8 22.5,232.7 105.7,274.7 105.6,290.7 			"/>
			<polygon class="st3" points="5.3,251.9 5.2,267.8 105.7,318.3 278.8,230.6 278.5,217 105.8,302.8 			"/>
			<path class="st4" d="M22.7,232.6l82.8,41.9L252,199.8l-83.9-40.5L22.7,232.6z"/>
			<line class="st5" x1="105.7" y1="303.2" x2="105.7" y2="318.2"/>
		</g>
		<g>
			<g>
				<path class="st6" d="M129.2,100.3c0.6-1.7,4.2-3,8.3-2.9c4.1,0.1,7.5,1.6,7.4,3.4c0,1.8-2.7,2.6-7.6,2.7
					C132.5,103.6,129.1,100.7,129.2,100.3z"/>
				<path class="st7" d="M129.2,100.5c0.3,1.2,2,2,2,2s0,1.3,0,1.9c0,0.5-7.1,11.2-9.1,15.2c-1.6,3.2-3.8,9-3.4,13.9
					c0.4,4.8,1.8,6.6,1.8,6.6l0.4,0.9c0,0-0.1,4.2-0.1,4.5s-0.4-0.4-1.1,2s-0.8,6.1-0.8,7.1c0,0.9-0.1,6.5,0.2,7.4
					c0.3,0.8,0.7,1.6,1.1,1.8c0.3,0.2-1.1,0-1.1,1.3c0,1.4-0.1,5.5-0.2,6.5c0,1,0.4,1.9,0.6,2c0,0-0.9,0.5-0.9,1.6s0.1,4.8,0.2,6.2
					c0.1,0.4,1.2,1.3,1.2,1.3s-0.9,0.6-1.1,1.1c0,0-0.2,6.2-0.1,6.8c0,0.6,0.7,1.5,0.7,1.5s-0.7,0.7-0.7,1.3c0,0.5-0.2,4.1-0.2,6.2
					c0,2.1,0.1,4.3,0.1,4.9c0,0.6,0.7,0.8,0.7,1.3c0,0-1,0.6-1,1.3c0,0.6,0.1,8.8,0.1,8.8c0,0.2-0.2,3.8,3.6,6.9
					c2.3,1.9,7.5,4,14.3,3.9c6.8,0,8-0.2,11.2-1.8c3.3-1.6,4.4-4.1,5.1-6c0.7-1.9,0.7-10.7,0.5-11.8c0-0.3-0.7-0.6-0.7-0.8
					c0-0.2,0.6-0.7,0.6-1.8c0.1-0.9,0.2-9.2,0.2-10.4c0-1.2-0.8-1.5-0.8-1.5s0.5-0.8,0.6-1.6c0.1-0.6,0.5-6.5,0.4-7.2
					c0-0.7-1.1-1.2-1.1-1.3c0-0.1,0.7-0.5,0.8-0.9c0.3-1.2,0.2-6.2,0.2-6.2c0-0.2,0-0.7,0-0.8c-0.1-0.4-1.1-0.4-1.1-0.7
					s1.3-0.7,1.3-1.6s0.2-6.4,0.2-7.1s-0.7-0.5-0.7-0.9c0,0,0.6-1.1,0.6-1.3c0.3-1.1,0.7-3.8,0.8-7.2c0-3.3-0.2-7.6-0.3-8.3
					c-0.1-0.7-0.5-2.1-1.4-2.1c0-0.1,0-4.3,0-4.3l1-2.3c0,0,2.3-7.3-0.4-15.3c-2.7-8-9.9-18.9-10-19.3c0-0.4-0.2-2-0.2-2
					s1.5-0.6,1.6-1.8c0.1-1-1.7-1.5-1.7-1.8v-8.2c0,0-0.6,2.8-5.4,2.7c-5.7-0.1-6.6-2.2-6.6-2.2s-0.4,7.2-0.4,7.6
					C131,99.1,128.9,99.4,129.2,100.5z"/>
				<path class="st8" d="M130.9,98.9c-1.1,0.3,1.5,3,6.7,3.2c5.2,0,6.6-2.8,5.8-2.8"/>
				<path class="st8" d="M144.9,101.2c0,0-1.5,2.6-7.7,2.6s-7.9-2.9-7.9-2.9"/>
				<path class="st9" d="M131.3,90.9c0-1.6,3.3-2.7,6.4-2.6c3.2,0.1,5.7,1.4,5.7,2.9c0,1.6-2.6,2.5-5.8,2.4
					C134.5,93.5,131.2,92.5,131.3,90.9z"/>
				<path class="st10" d="M137.7,91.7"/>
				<path class="st10" d="M156.8,132.7"/>
				<path class="st11" d="M120,164c0,0,5.1,4.2,17,4.6c12.2,0.4,16.5-4.4,16.5-4.4"/>
				<path class="st11" d="M119.2,173.5c0,0,5.2,4.5,17.1,4.9c12.2,0.4,16.6-4.7,16.6-4.7"/>
				<path class="st11" d="M119.5,192.3c0,0,4.5,4.9,16.3,5.4c12.2,0.4,16.8-4.8,16.8-4.8"/>
				<path class="st11" d="M119.8,182.9c0,0,6.9,4.5,16.3,4.6c9.3,0.1,16.5-4.7,16.5-4.7"/>
				<path class="st11" d="M119.1,205.7c0,0,4.5,5,16.7,5.5c12.6,0.4,16.8-4.8,16.8-4.8"/>
				<path class="st11" d="M120.7,140.4c0,0,4.8,4.8,16.8,4.7c11.9-0.1,15.8-4.5,15.8-4.5"/>
				<path class="st11" d="M120.6,145.7c0,0,3.3,4.3,16.2,4.6c12.9,0.3,16.1-4.4,16.1-4.4"/>
			</g>
			<path class="st12" d="M148.3,224.3c1.3-0.5,3.7-3.6,4-4.3c0.7-1.9,0.7-10.7,0.5-11.8c0-0.3-0.7-0.6-0.7-0.8
				c0-0.2,0.6-0.7,0.6-1.8c0.1-0.9,0.2-9.2,0.2-10.4c0-1.2-0.8-1.5-0.8-1.5s0.5-0.8,0.6-1.6c0.1-0.6,0.5-6.5,0.4-7.2
				c0-0.7-1-1.2-1-1.3c0-0.1,0.7-0.5,0.8-0.9c0.3-1.2,0.2-6.2,0.2-6.2c0-0.2,0-0.7,0-0.8c-0.1-0.4-1-0.4-1-0.7
				c0-0.3,1.3-0.7,1.3-1.6c0-0.8,0.2-6.4,0.2-7.1s-0.7-0.5-0.7-0.9c0,0,0.6-1.1,0.6-1.3c0.3-1.1,0.7-3.8,0.8-7.2
				c0-3.3-0.2-7.6-0.3-8.3s-0.5-2.1-1.4-2.1c0-0.1,0-4.3,0-4.3l1.1-2.3c0,0,2.3-7.4-0.4-15.3c-2.7-8-9.9-18.9-10-19.3
				c-0.1-0.4-0.2-2-0.2-2s1.5-0.6,1.6-1.8c0.1-1.1-1.7-1.5-1.7-1.8c0,0,0.3-8.2-0.1-8.5"/>
			<path class="st13" d="M142.9,91.2c-5.2-2.9-11.3-0.5-11.3-0.5s-0.5,7.8-0.5,8.1c0,0.3-2,0.6-1.8,1.8s2,2,2,2s0,1.3,0,1.9
				c0,0.3-7.2,14.3-8.2,16.2c-1.6,3.2-2.7,9.1-2.3,14c0.4,4.8,1.8,6.6,1.8,6.6l0.4,0.9c0,0-0.1,4.2-0.1,4.5s-0.4-0.4-1.1,2
				s-0.8,6.1-0.8,7.1c0,0.9-0.1,6.5,0.2,7.4c0.3,0.8,0.7,1.6,1,1.8c0.3,0.2-1,0-1,1.3c0,1.4-0.1,5.5-0.2,6.5c-0.1,1.1,0.4,1.9,0.6,2
				c0,0-0.9,0.5-0.9,1.6c-0.1,1,0.1,4.8,0.2,6.2c0.1,0.4,1.2,1.3,1.2,1.3s-0.9,0.6-1.1,1.1c0,0-0.2,6.2-0.1,6.8
				c0,0.6,0.7,1.5,0.7,1.5s-0.7,0.7-0.7,1.3c0,0.5-0.2,4.1-0.2,6.2c0,2.1,0.1,4.3,0.1,4.9c0,0.6,0.7,0.8,0.7,1.3
				c0,0-1.1,0.6-1.1,1.3c0,0.6,0.1,8.8,0.1,8.8c0,0.1-0.1,2.1,1.3,4.3c0,0,2.5,2.7,5.8,4.1"/>
			<path class="st12" d="M143,91.5c-0.2-0.4-2.4-1.5-4.9-1.6c-2.6-0.1-6.4,0.5-6.5,1.2c-0.1,0.9-0.2,7.3-0.2,7.7
				c0,0.3-2,0.6-1.8,1.8c0.3,1.2,2.2,2.3,2.2,2.3v2.3c0,0-6.6,13.5-7.6,15.3c-1.6,3.2-2.7,9.1-2.3,14c0.4,4.8,1.8,6.6,1.8,6.6
				l0.4,0.9c0,0-0.1,4.2-0.1,4.5s-0.4-0.4-1.1,2c-0.6,2.4-0.8,6.1-0.8,7.1s-0.1,6.5,0.2,7.4c0.3,0.8,0.7,1.6,1.1,1.8
				c0.3,0.2-1.1,0-1.1,1.3c0,1.4-0.1,5.5-0.2,6.5c-0.1,1.1,0.4,1.9,0.6,2c0,0-0.9,0.5-0.9,1.6c-0.1,1.1,0.1,4.8,0.2,6.2
				c0.1,0.4,1.2,1.3,1.2,1.3s-0.9,0.6-1.1,1.1c0,0-0.2,6.2-0.1,6.8c0.1,0.6,0.7,1.5,0.7,1.5s-0.7,0.7-0.7,1.3c0,0.5-0.2,4.1-0.2,6.2
				c0,2.1,0.1,4.3,0.1,4.9c0,0.6,0.7,0.8,0.7,1.3c0,0-1.1,0.6-1.1,1.3c0,0.6,0.1,8.8,0.1,8.8c0,0.1-0.1,2.1,1.3,4.3
				c0,0,2.5,2.7,5.8,4.1"/>
		</g>
	</g>
	<g>
		
			<ellipse transform="matrix(0.9185 -0.3954 0.3954 0.9185 -35.9616 70.6668)" class="st14" cx="153.5" cy="122.6" rx="4.9" ry="6.4"/>
		<g>
			<path class="st15" d="M160.7,119.3c-0.1,0.1-0.2,0.2-0.3,0.2l-6.3,3.9c-0.4,0.2-0.9,0.1-1.3-0.3c-0.2-0.4-0.1-0.9,0.3-1.3
				l6.3-3.9c0.4-0.2,0.9-0.1,1.3,0.3C160.9,118.6,160.9,119,160.7,119.3z"/>
		</g>
		<g>
			<path class="st2" d="M170.7,116.3c-0.3,0.4-0.6,0.7-1.1,1l-6.1,3.8c-1.7,1.1-3.9,0.5-4.9-1.2c-1.1-1.7-0.5-3.9,1.2-4.9l6.1-3.8
				c1.7-1,3.9-0.5,4.9,1.2C171.5,113.6,171.4,115.1,170.7,116.3z"/>
		</g>
		<g>
			<path class="st1" d="M190.2,108.5c-0.5,0.8-1.4,1.6-2.3,2.1l-12.7,7.5c-3.4,2-7.8,0.8-9.8-2.5c-2-3.4-0.8-7.8,2.5-9.8l12.7-7.5
				c3.4-2,7.8-0.8,9.8,2.5C191.9,103.4,191.7,106.3,190.2,108.5z"/>
		</g>
		<g>
			<path class="st2" d="M200.5,105.7c-0.8,1.2-1.9,2.2-3.1,2.9l-11,6.5c-4.6,2.7-10.6,1.2-13.4-3.5c-2.7-4.6-1.2-10.6,3.5-13.4
				l11-6.5c4.6-2.7,10.6-1.2,13.4,3.5C202.8,98.7,202.5,102.6,200.5,105.7z"/>
		</g>
		<g>
			<path class="st16" d="M225.8,88.8c-1.7,2.5-3.7,8.1-1.6,12c2,3.9-4.2,6.3-4.2,6.3c-4.1,2.3-16.1,7.5-16.1,7.5s-8.5,3.9-11.3-0.1
				s-9.8-19.8-10.5-23.9c-1.1-5.4,5.9-9.1,5.9-9.1l16.7-8.6c1.3-0.6,6.3-2.1,8.6,4.3c2.2,6.4-3.4-3.5-2.2-3.7c8-1,12.8,0.4,16.9,7.9
				C231.8,88.1,230,82.7,225.8,88.8z"/>
		</g>
		<g>
			<path class="st16" d="M229.2,85.8c-1.5,2.2-3.3,7.1-1.5,10.7c1.8,3.5-3.7,5.7-3.7,5.7c-3.6,2-14.4,6.6-14.4,6.6
				s-7.6,3.5-10.1-0.1c-2.5-3.6-8.7-17.7-9.3-21.3c-0.9-4.7,5.2-8.2,5.2-8.2l14.9-7.7c1.1-0.6,5.7-1.9,7.7,3.8c2,5.7-2.9-3.2-2-3.3
				c7-0.9,11.3,0.4,15,7C234.5,85.1,232.8,80.4,229.2,85.8z"/>
		</g>
		<g>
			<path class="st17" d="M246.5,83.5c-1.1,1.6-2.5,2.9-4.2,3.9l-24,13.4c-6,3.4-13.5,1.2-16.9-4.8c-3.4-6-1.2-13.5,4.8-16.9l24-13.4
				c6-3.4,13.5-1.2,16.9,4.8C249.3,74.8,249,79.9,246.5,83.5z"/>
		</g>
		
			<ellipse transform="matrix(0.5598 -0.8286 0.8286 0.5598 41.3473 230.2092)" class="st18" cx="237.3" cy="76.2" rx="11.7" ry="10.8"/>
		<g>
			<path class="st17" d="M254.4,74.4c-0.6,0.9-1.5,1.7-2.5,2.3l-8.7,5.1c-3.7,2.2-8.4,0.9-10.6-2.7c-2.2-3.7-0.9-8.4,2.7-10.6
				l8.7-5.1c3.7-2.2,8.4-0.9,10.6,2.7C256.2,68.8,255.9,72.1,254.4,74.4z"/>
		</g>
		<ellipse transform="matrix(0.6454 -0.7639 0.7639 0.6454 34.7201 214.5363)" class="st19" cx="248.4" cy="69.9" rx="8" ry="7.4"/>
		<g>
			<path class="st20" d="M282.8,55.5c-0.2,0.3-0.6,0.5-1,0.3c-5.5-2-6.7,0.1-6.7,0.1l-0.1,0.1l-0.1,0.1c-6,6.1-7.5,6.2-9.1,5.7
				c-0.3-0.1-0.5-0.2-0.8-0.1l-15.4,8.6c-0.4,0.2-0.9,0.1-1.3-0.3c-0.2-0.4-0.1-0.9,0.3-1.3l15.6-8.7c0.9-0.3,1.6-0.1,2,0
				c0.7,0.2,1.7,0.5,7.2-5.1c0.5-0.7,2.5-3.2,8.8-0.8c0.4,0.2,0.7,0.6,0.5,1.2C282.8,55.4,282.8,55.5,282.8,55.5z"/>
		</g>
	</g>
</g>
</svg>
