<?xml version="1.0" encoding="utf-8"?>
<!-- Generator: Adobe Illustrator 25.2.1, SVG Export Plug-In . SVG Version: 6.00 Build 0)  -->
<svg version="1.1" id="Layer_1" xmlns="http://www.w3.org/2000/svg" xmlns:xlink="http://www.w3.org/1999/xlink" x="0px" y="0px"
	 viewBox="0 0 164.28 180.89" style="enable-background:new 0 0 164.28 180.89;" xml:space="preserve">
<style type="text/css">
	.st0{fill:none;stroke:#FFFFFF;stroke-width:0.2414;stroke-linejoin:bevel;stroke-miterlimit:10;}
	.st1{fill:#CBB8B9;stroke:#FFFFFF;stroke-width:0.2414;stroke-miterlimit:10;}
	.st2{fill:#E4DAD8;stroke:#FFFFFF;stroke-width:0.2414;stroke-miterlimit:10;}
	.st3{fill:#CBB8B9;stroke:#FFFFFF;stroke-width:0.2414;stroke-linejoin:bevel;stroke-miterlimit:10;}
	.st4{fill:#E4DAD8;stroke:#FFFFFF;stroke-width:0.2414;stroke-linejoin:bevel;stroke-miterlimit:10;}
	.st5{fill:none;stroke:#FFFFFF;stroke-width:0.2414;stroke-miterlimit:10;}
	.st6{fill:none;stroke:#9C1B43;stroke-width:0.5319;stroke-miterlimit:10;}
	.st7{fill:#DD335A;stroke:#FFFFFF;stroke-width:0.2414;stroke-miterlimit:10;}
	.st8{fill:#B71549;stroke:#FFFFFF;stroke-width:0.2414;stroke-miterlimit:10;}
	.st9{fill:#B71549;stroke:#FFFFFF;stroke-width:0.2681;stroke-miterlimit:10;}
	.st10{fill:none;stroke:#361D32;stroke-width:2.6594;stroke-linecap:round;stroke-miterlimit:10;}
	.st11{clip-path:url(#SVGID_2_);fill:#B79797;stroke:#FFFFFF;stroke-width:0.2414;stroke-miterlimit:10;}
	.st12{fill:none;stroke:#361D32;stroke-width:0.2414;stroke-miterlimit:10;}
	.st13{fill:none;stroke:#361D32;stroke-width:0.2681;stroke-miterlimit:10;}
	.st14{fill:#B79797;stroke:#FFFFFF;stroke-width:0.2414;stroke-miterlimit:10;}
</style>
<g>
	<line class="st0" x1="59.61" y1="160.61" x2="59.57" y2="168.78"/>
	<polygon class="st1" points="17.21,136.41 59.96,158.1 132.51,121.56 132.67,113.14 92.25,94.66 17.22,132.47 	"/>
	<polygon class="st1" points="17.24,137.1 17.33,128.89 60.05,149.8 59.88,158.09 	"/>
	<polygon class="st1" points="8.21,139.12 8.22,145.93 60.21,172.16 147.92,128.01 147.79,121.03 60.15,164.63 	"/>
	<path class="st2" d="M17.42,128.85c-0.01,0.03,42.6,20.94,42.61,20.91l72.53-36.62l-42.82-20.7L17.42,128.85z"/>
	<polygon class="st2" points="59.85,164.61 147.97,121.04 95.86,95.71 8.38,138.58 	"/>
	<polygon class="st1" points="17.21,136.41 59.83,158.43 134.01,120.7 134.16,112.29 92.25,94.66 17.22,132.47 	"/>
	<polygon class="st3" points="17.24,137.1 17.33,128.89 59.83,150.31 59.77,158.49 	"/>
	<polygon class="st3" points="8.51,138.62 8.47,146.81 59.82,172.61 148.21,127.8 148.07,120.82 59.84,164.64 	"/>
	<path class="st4" d="M17.42,128.85c-0.01,0.03,42.32,21.42,42.32,21.42l74.73-38.2l-42.82-20.7L17.42,128.85z"/>
	<line class="st5" x1="59.8" y1="164.85" x2="59.8" y2="172.53"/>
</g>
<path class="st6" d="M97.01,64.06"/>
<path class="st6" d="M89.2,58.32"/>
<path class="st6" d="M84.39,54.8"/>
<path class="st6" d="M76.6,49.07"/>
<path class="st6" d="M97.01,64.06"/>
<path class="st6" d="M89.2,58.32"/>
<path class="st6" d="M84.39,54.8"/>
<path class="st6" d="M76.6,49.07"/>
<g>
	<polygon class="st7" points="57.17,51.52 84.34,65.03 92.37,60.42 65.79,47.16 	"/>
	<polygon class="st7" points="49.17,55.74 76.33,69.24 84.36,64.63 57.78,51.37 	"/>
	<ellipse transform="matrix(0.0894 -0.996 0.996 0.0894 6.7969 123.1793)" class="st8" cx="70.76" cy="57.87" rx="2.41" ry="4.67"/>
	<polygon class="st8" points="76.14,69.42 76.09,134.92 84.35,130.73 84.39,64.69 	"/>
	<polygon class="st9" points="84.44,64.59 84.38,130.43 92.12,126.58 92.16,60.19 	"/>
	<polygon class="st7" points="49.27,55.78 49.46,121.21 76.44,134.64 76.5,69.22 	"/>
	<g>
		<path class="st10" d="M49.07,74.62c-8.03,1.18,26.87,13.05,26.87,13.05l17.35-8.84l5.05,18.63"/>
		<path class="st10" d="M49.24,102.42c-8.03,1.18,26.7,13.05,26.7,13.05l17.7-8.84l8.05,15.59"/>
		<line class="st10" x1="93.29" y1="78.83" x2="93.72" y2="96.41"/>
		<line class="st10" x1="93.64" y1="106.63" x2="96.08" y2="124.2"/>
	</g>
	<line class="st5" x1="67.43" y1="56.14" x2="67.43" y2="59.25"/>
</g>
<g>
	<g>
		<g>
			<g>
				<defs>
					<path id="SVGID_1_" d="M104.56,12.1c2.37,1.59,4.71,8.05-0.83,14.54c-5.54,6.49-21.13,8.88-21.13,8.88s6.71,1.18,9.51,2.19
						c2.8,1.02,27.32,31.8,30.01,32.93c2.01,0.96,12.71,0.12,19.74-7.69c7.03-7.8,6.31-15.59,5.51-17.56
						c-0.67-1.64-30.67-24.12-40.05-31.19L104.56,12.1"/>
				</defs>
				<clipPath id="SVGID_2_">
					<use xlink:href="#SVGID_1_"  style="overflow:visible;"/>
				</clipPath>
				<path class="st11" d="M147.45,45.84c0,0,0.3,10.37-6.02,16.69c-8.49,8.21-18.2,8.04-19.19,8.04
					c-3.18-2.61-26.77-32.35-31.05-33.89c-4.28-1.54-9.15,0-9.15,0l5.99-2.66l6.25-1.37l14.3,4.85l9.03,1.07l24.48,2.87
					L147.45,45.84z"/>
			</g>
			<g>
				<path id="XMLID_3_" class="st12" d="M104.56,12.1c2.37,1.59,4.71,8.05-0.83,14.54c-5.54,6.49-21.13,8.88-21.13,8.88
					s6.71,1.18,9.51,2.19c2.8,1.02,27.32,31.8,30.01,32.93c2.01,0.96,12.71,0.12,19.74-7.69c7.03-7.8,6.31-15.59,5.51-17.56
					c-0.67-1.64-30.67-24.12-40.05-31.19L104.56,12.1"/>
			</g>
		</g>
		<path class="st13" d="M81.01,35.51c0,0-1.88-6.98,6.92-17.54s15.32-6.94,16.64-5.87"/>
	</g>
	<path class="st14" d="M92.7,32.26c-0.88-1.77-12.12-1.04-16.47,5.63c-4.36,6.67-3.97,8.37-3.97,8.37l-1.22,8.48
		c0,0,2.35,8.22,1.56,0.63c-0.79-7.59,5.24-14.69,5.24-14.69s3.95-3.02,7.58-5.49C88.12,33.34,93.08,33.01,92.7,32.26z"/>
</g>
</svg>
