<?xml version="1.0" encoding="utf-8"?>
<!-- Generator: Adobe Illustrator 25.2.3, SVG Export Plug-In . SVG Version: 6.00 Build 0)  -->
<svg version="1.1" id="Layer_1" xmlns="http://www.w3.org/2000/svg" xmlns:xlink="http://www.w3.org/1999/xlink" x="0px" y="0px"
	 viewBox="0 0 156 212.9" style="enable-background:new 0 0 156 212.9;" xml:space="preserve">
<style type="text/css">
	.st0{fill:none;stroke:#FFFFFF;stroke-width:0.25;stroke-linejoin:bevel;stroke-miterlimit:10;}
	.st1{fill:#CBB8B9;stroke:#FFFFFF;stroke-width:0.25;stroke-miterlimit:10;}
	.st2{fill:#E4DAD8;stroke:#FFFFFF;stroke-width:0.25;stroke-miterlimit:10;}
	.st3{fill:#CBB8B9;stroke:#FFFFFF;stroke-width:0.25;stroke-linejoin:bevel;stroke-miterlimit:10;}
	.st4{fill:#E4DAD8;stroke:#FFFFFF;stroke-width:0.25;stroke-linejoin:bevel;stroke-miterlimit:10;}
	.st5{fill:none;stroke:#FFFFFF;stroke-width:0.25;stroke-miterlimit:10;}
	.st6{fill:none;stroke:#9C1B43;stroke-width:0.5851;stroke-miterlimit:10;}
	.st7{fill:none;stroke:#9C1B43;stroke-width:0.25;stroke-miterlimit:10;}
	.st8{fill:#DD335A;stroke:#FFFFFF;stroke-width:0.25;stroke-miterlimit:10;}
	.st9{fill:#B71549;stroke:#FFFFFF;stroke-width:0.25;stroke-miterlimit:10;}
	.st10{fill:#B71549;stroke:#FFFFFF;stroke-width:0.2655;stroke-linejoin:bevel;stroke-miterlimit:10;}
	.st11{fill:#DD335A;stroke:#FFFFFF;stroke-width:0.25;stroke-linejoin:bevel;stroke-miterlimit:10;}
	.st12{fill:none;stroke:#361D32;stroke-width:2.9253;stroke-linecap:round;stroke-miterlimit:10;}
	.st13{clip-path:url(#SVGID_2_);fill:#B79797;stroke:#FFFFFF;stroke-width:0.25;stroke-miterlimit:10;}
	.st14{fill:none;stroke:#361D32;stroke-width:0.25;stroke-miterlimit:10;}
	.st15{fill:#B79797;stroke:#FFFFFF;stroke-width:0.25;stroke-miterlimit:10;}
</style>
<g>
	<line class="st0" x1="57.8" y1="199.6" x2="57.7" y2="208.6"/>
	<polygon class="st1" points="11.1,172.9 58.1,196.8 137.9,156.6 138.1,147.3 93.7,127 11.1,168.6 	"/>
	<polygon class="st1" points="11.1,173.7 11.2,164.7 58.2,187.7 58,196.8 	"/>
	<polygon class="st1" points="1.2,175.9 1.2,183.4 58.4,212.3 154.9,163.7 154.7,156 58.3,204 	"/>
	<path class="st2" d="M11.3,164.6l46.9,23l79.8-40.3l-47.1-22.8L11.3,164.6z"/>
	<polygon class="st2" points="58,204 154.9,156 97.6,128.2 1.4,175.3 	"/>
	<polygon class="st1" points="11.1,172.9 58,197.2 139.6,155.7 139.8,146.4 93.7,127 11.1,168.6 	"/>
	<polygon class="st3" points="11.1,173.7 11.2,164.7 58,188.2 57.9,197.2 	"/>
	<polygon class="st3" points="1.5,175.4 1.5,184.4 58,212.8 155.2,163.5 155.1,155.8 58,204 	"/>
	<path class="st4" d="M11.3,164.6l46.6,23.6l82.2-42L93,123.4L11.3,164.6z"/>
	<line class="st5" x1="58" y1="204.2" x2="58" y2="212.7"/>
</g>
<path class="st6" d="M98.9,93.4"/>
<path class="st7" d="M90.3,87"/>
<path class="st7" d="M85,83.2"/>
<path class="st7" d="M76.4,76.9"/>
<path class="st6" d="M98.9,93.4"/>
<path class="st7" d="M90.3,87"/>
<path class="st7" d="M85,83.2"/>
<path class="st7" d="M76.4,76.9"/>
<g>
	<polygon class="st8" points="55.1,79.6 85,94.4 93.8,89.4 64.5,74.8 	"/>
	<polygon class="st8" points="46.3,84.2 76.1,99.1 85,94 55.7,79.4 	"/>
	
		<ellipse transform="matrix(8.939926e-02 -0.996 0.996 8.939926e-02 -22.4337 148.6149)" class="st9" cx="70.1" cy="86.6" rx="2.7" ry="5.1"/>
	<polygon class="st10" points="75.9,99.3 75.9,171.3 85,166.7 85,94.1 	"/>
	<polygon class="st9" points="85.1,93.9 85,166.4 93.5,162.1 93.6,89.1 	"/>
	<polygon class="st11" points="46.4,84.3 46.6,156.2 76,171.3 76.3,99 	"/>
	<g>
		<path class="st12" d="M46.2,105c-8.8,1.3,29.6,14.4,29.6,14.4l19.1-9.7l5.6,20.5"/>
		<path class="st12" d="M46.3,135.6c-8.8,1.3,29.4,14.4,29.4,14.4l19.5-9.7l8.9,17.1"/>
		<line class="st12" x1="94.8" y1="109.6" x2="95.3" y2="128.9"/>
		<line class="st12" x1="95.2" y1="140.2" x2="97.9" y2="159.5"/>
	</g>
	<line class="st5" x1="66.4" y1="84.6" x2="66.4" y2="88.1"/>
</g>
<g>
	<g>
		<g>
			<g>
				<g>
					<g>
						<defs>
							<path id="SVGID_1_" d="M107.2,36.2c2.6,1.7,5.2,8.9-0.9,16S83,62,83,62s7.4,1.3,10.5,2.4c3.1,1.1,30.1,35,33,36.2
								c2.2,1.1,14,0.1,21.7-8.5s6.9-17.1,6.1-19.3c-0.7-1.8-33.7-26.5-44.1-34.3L107.2,36.2"/>
						</defs>
						<clipPath id="SVGID_2_">
							<use xlink:href="#SVGID_1_"  style="overflow:visible;"/>
						</clipPath>
						<path class="st13" d="M154.4,73.3c0,0,0.3,11.4-6.6,18.4c-9.3,9-20,8.8-21.1,8.8c-3.5-2.9-29.4-35.6-34.2-37.3
							c-4.7-1.7-10.1,0-10.1,0l6.6-2.9l6.9-1.5l15.7,5.3l9.9,1.2l26.9,3.2L154.4,73.3z"/>
					</g>
				</g>
			</g>
			<g>
				<path id="XMLID_3_" class="st14" d="M107.2,36.2c2.6,1.7,5.2,8.9-0.9,16S83,62,83,62s7.4,1.3,10.5,2.4c3.1,1.1,30.1,35,33,36.2
					c2.2,1.1,14,0.1,21.7-8.5s6.9-17.1,6.1-19.3c-0.7-1.8-33.7-26.5-44.1-34.3L107.2,36.2"/>
			</g>
		</g>
		<path class="st14" d="M81.3,62c0,0-2.1-7.7,7.6-19.3s16.9-7.6,18.3-6.5"/>
	</g>
	<path class="st15" d="M94.1,58.4c-1-1.9-13.3-1.1-18.1,6.2c-4.8,7.3-4.4,9.2-4.4,9.2l-1.3,9.3c0,0,2.6,9,1.7,0.7s5.8-16.2,5.8-16.2
		s4.3-3.3,8.3-6C89.1,59.6,94.6,59.2,94.1,58.4z"/>
</g>
</svg>
