<?xml version="1.0" encoding="utf-8"?>
<!-- Generator: Adobe Illustrator 25.2.3, SVG Export Plug-In . SVG Version: 6.00 Build 0)  -->
<svg version="1.1" id="Layer_1" xmlns="http://www.w3.org/2000/svg" xmlns:xlink="http://www.w3.org/1999/xlink" x="0px" y="0px"
	 viewBox="0 0 274 325.9" style="enable-background:new 0 0 274 325.9;" xml:space="preserve">
<style type="text/css">
	.st0{fill:none;stroke:#FFFFFF;stroke-width:0.525;stroke-linejoin:bevel;stroke-miterlimit:10;}
	.st1{fill:#CCB9B9;stroke:#FFFFFF;stroke-width:0.525;stroke-miterlimit:10;}
	.st2{fill:#E4DAD8;stroke:#FFFFFF;stroke-width:0.525;stroke-miterlimit:10;}
	.st3{fill:#CCB9B9;stroke:#FFFFFF;stroke-width:0.525;stroke-linejoin:bevel;stroke-miterlimit:10;}
	.st4{fill:#E4DAD8;stroke:#FFFFFF;stroke-width:0.525;stroke-linejoin:bevel;stroke-miterlimit:10;}
	.st5{fill:none;stroke:#FFFFFF;stroke-width:0.525;stroke-miterlimit:10;}
	.st6{fill:none;stroke:#B71148;stroke-width:1.0415;stroke-miterlimit:10;}
	.st7{fill:#DC3359;stroke:#FFFFFF;stroke-width:0.525;stroke-miterlimit:10;}
	.st8{fill:#B71148;stroke:#FFFFFF;stroke-width:0.5525;stroke-miterlimit:10;}
	.st9{fill:#B71148;stroke:#FFFFFF;stroke-width:0.525;stroke-miterlimit:10;}
	.st10{fill:none;stroke:#361D32;stroke-width:5.2074;stroke-linecap:round;stroke-miterlimit:10;}
	.st11{fill:none;stroke:#FFFFFF;stroke-width:0.5525;stroke-miterlimit:10;}
	.st12{clip-path:url(#SVGID_2_);fill:#B79797;stroke:#FFFFFF;stroke-width:0.525;stroke-miterlimit:10;}
	.st13{fill:none;stroke:#361D32;stroke-width:0.525;stroke-miterlimit:10;}
	.st14{fill:#B79797;stroke:#FFFFFF;stroke-width:0.525;stroke-miterlimit:10;}
</style>
<g>
	<g>
		<line class="st0" x1="100.6" y1="300.9" x2="100.5" y2="317"/>
		<polygon class="st1" points="17.5,253.6 101.3,296 243.4,224.5 243.6,208 164.5,171.8 17.6,245.8 		"/>
		<polygon class="st1" points="17.6,254.9 17.9,238.9 101.4,279.8 101.1,296 		"/>
		<polygon class="st1" points="0,258.8 0,272.1 101.7,323.6 273.5,237.1 273.2,223.4 101.6,308.8 		"/>
		<path class="st2" d="M18,238.8c0,0,83.4,41.1,83.5,40.9l142-71.7l-83.9-40.5L18,238.8z"/>
		<polygon class="st2" points="101,308.8 273.6,223.4 171.6,173.9 0.3,257.8 		"/>
		<polygon class="st1" points="17.5,253.6 101,296.7 246.2,222.8 246.5,206.3 164.5,171.8 17.6,245.8 		"/>
		<polygon class="st3" points="17.6,254.9 17.9,238.9 101,280.8 100.9,296.8 		"/>
		<polygon class="st3" points="0.5,257.9 0.4,273.9 101,324.4 274,236.7 273.8,223 101,308.8 		"/>
		<path class="st4" d="M18,238.8l82.8,41.9l146.4-74.8l-83.9-40.5L18,238.8z"/>
		<line class="st5" x1="101" y1="309.2" x2="101" y2="324.2"/>
	</g>
	<path class="st6" d="M173.9,111.9"/>
	<path class="st6" d="M158.6,100.7"/>
	<path class="st6" d="M149.1,93.8"/>
	<path class="st6" d="M133.9,82.5"/>
	<path class="st6" d="M173.9,111.9"/>
	<path class="st6" d="M158.6,100.7"/>
	<path class="st6" d="M149.1,93.8"/>
	<path class="st6" d="M133.9,82.5"/>
	<g>
		<polygon class="st7" points="95.9,87.3 149,113.8 164.7,104.8 112.7,78.7 		"/>
		<polygon class="st7" points="80.1,95.5 133.4,122 149.1,113 97,87 		"/>
		
			<ellipse transform="matrix(8.935341e-02 -0.996 0.996 8.935341e-02 12.1298 212.7619)" class="st8" cx="122.4" cy="99.7" rx="4.7" ry="9.1"/>
		<polygon class="st9" points="132.9,122.4 132.8,250.6 149,242.4 149.1,113.1 		"/>
		<polygon class="st9" points="149.2,112.9 149.1,241.8 164.2,234.3 164.3,104.4 		"/>
		<polygon class="st7" points="80.3,95.6 80.7,223.7 133.6,250.1 133.7,122 		"/>
		<g>
			<path class="st10" d="M80,132.6c-15.8,2.3,52.6,25.5,52.6,25.5l34-17.3l9.9,36.5"/>
			<path class="st10" d="M80.3,187c-15.8,2.3,52.3,25.5,52.3,25.5l34.6-17.3l15.8,30.6"/>
			<line class="st10" x1="166.5" y1="140.8" x2="167.4" y2="175.2"/>
			<line class="st10" x1="167.3" y1="195.2" x2="172" y2="229.6"/>
		</g>
		<line class="st11" x1="115.9" y1="96.4" x2="115.9" y2="102.5"/>
	</g>
	<g>
		<g>
			<g>
				<g>
					<defs>
						<path id="SVGID_1_" d="M188.6,10.2c4.6,3.2,9.2,15.8-1.6,28.5s-41.4,17.4-41.4,17.4s13.1,2.3,18.6,4.3
							c5.5,2,53.4,62.3,58.8,64.5c4,1.9,24.9,0.2,38.6-15s12.4-30.6,10.8-34.4c-1.4-3.3-60.1-47.2-78.4-61.1L188.6,10.2"/>
					</defs>
					<clipPath id="SVGID_2_">
						<use xlink:href="#SVGID_1_"  style="overflow:visible;"/>
					</clipPath>
					<path class="st12" d="M272.6,76.2c0,0,0.6,20.3-11.8,32.7c-16.6,16.1-35.6,15.8-37.6,15.8c-6.2-5.1-52.4-63.3-60.8-66.4
						s-18,0-18,0l11.8-5.2l12.2-2.7l28,9.5l17.6,2.1l47.9,5.6L272.6,76.2z"/>
				</g>
				<g>
					<path id="XMLID_49_" class="st13" d="M188.6,10.2c4.6,3.2,9.2,15.8-1.6,28.5s-41.4,17.4-41.4,17.4s13.1,2.3,18.6,4.3
						c5.5,2,53.4,62.3,58.8,64.5c4,1.9,24.9,0.2,38.6-15s12.4-30.6,10.8-34.4c-1.4-3.3-60.1-47.2-78.4-61.1L188.6,10.2"/>
				</g>
			</g>
			<path class="st13" d="M142.5,56c0,0-3.7-13.7,13.5-34.3s30-13.5,32.6-11.4"/>
		</g>
		<path class="st14" d="M165.4,49.7c-1.7-3.5-23.7-2.1-32.2,11s-7.8,16.4-7.8,16.4L123,93.6c0,0,4.6,16.1,3,1.3s10.3-28.8,10.3-28.8
			s7.8-5.9,14.8-10.8C156.4,51.8,166.1,51.1,165.4,49.7z"/>
	</g>
</g>
</svg>
