<?xml version="1.0" encoding="utf-8"?>
<!-- Generator: Adobe Illustrator 25.2.3, SVG Export Plug-In . SVG Version: 6.00 Build 0)  -->
<svg version="1.1" id="Layer_1" xmlns="http://www.w3.org/2000/svg" xmlns:xlink="http://www.w3.org/1999/xlink" x="0px" y="0px"
	 viewBox="0 0 166.5 220.4" style="enable-background:new 0 0 166.5 220.4;" xml:space="preserve">
<style type="text/css">
	.st0{fill:none;stroke:#FFFFFF;stroke-width:0.25;stroke-linejoin:bevel;stroke-miterlimit:10;}
	.st1{fill:#CBB8B9;stroke:#FFFFFF;stroke-width:0.25;stroke-miterlimit:10;}
	.st2{fill:#E4DAD8;stroke:#FFFFFF;stroke-width:0.25;stroke-miterlimit:10;}
	.st3{fill:#CBB8B9;stroke:#FFFFFF;stroke-width:0.25;stroke-linejoin:bevel;stroke-miterlimit:10;}
	.st4{fill:#E4DAD8;stroke:#FFFFFF;stroke-width:0.25;stroke-linejoin:bevel;stroke-miterlimit:10;}
	.st5{fill:none;stroke:#FFFFFF;stroke-width:0.25;stroke-miterlimit:10;}
	.st6{fill:none;stroke:#9C1B43;stroke-width:0.6269;stroke-miterlimit:10;}
	.st7{fill:none;stroke:#9C1B43;stroke-width:0.2679;stroke-miterlimit:10;}
	.st8{fill:#DD335A;stroke:#FFFFFF;stroke-width:0.25;stroke-miterlimit:10;}
	.st9{fill:#B71549;stroke:#FFFFFF;stroke-width:0.2679;stroke-miterlimit:10;}
	.st10{fill:#B71549;stroke:#FFFFFF;stroke-width:0.2845;stroke-linejoin:bevel;stroke-miterlimit:10;}
	.st11{fill:#DD335A;stroke:#FFFFFF;stroke-width:0.25;stroke-linejoin:bevel;stroke-miterlimit:10;}
	.st12{fill:none;stroke:#361D32;stroke-width:3.1342;stroke-linecap:round;stroke-miterlimit:10;}
	.st13{fill:none;stroke:#FFFFFF;stroke-width:0.2679;stroke-miterlimit:10;}
	.st14{clip-path:url(#SVGID_2_);fill:#B79797;stroke:#FFFFFF;stroke-width:0.25;stroke-miterlimit:10;}
	.st15{fill:none;stroke:#361D32;stroke-width:0.25;stroke-miterlimit:10;}
	.st16{fill:#B79797;stroke:#FFFFFF;stroke-width:0.25;stroke-miterlimit:10;}
</style>
<g>
	<g>
		<line class="st0" x1="60.6" y1="205" x2="60.5" y2="214.7"/>
		<polygon class="st1" points="10.6,176.4 61,202 146.5,158.9 146.7,149 99.1,127.2 10.6,171.8 		"/>
		<polygon class="st1" points="10.6,177.3 10.7,167.6 61.1,192.3 60.9,202 		"/>
		<polygon class="st1" points="0,179.6 0,187.7 61.3,218.6 164.7,166.6 164.5,158.3 61.2,209.7 		"/>
		<path class="st2" d="M10.8,167.5l50.2,24.6l85.5-43.2l-50.5-24.4L10.8,167.5z"/>
		<polygon class="st2" points="60.9,209.7 164.7,158.3 103.3,128.5 0.2,179 		"/>
		<polygon class="st1" points="10.6,176.4 60.9,202.4 148.3,158 148.5,148 99.1,127.2 10.6,171.8 		"/>
		<polygon class="st3" points="10.6,177.3 10.7,167.6 60.9,192.8 60.8,202.4 		"/>
		<polygon class="st3" points="0.3,179.1 0.3,188.7 60.9,219.2 165,166.3 164.9,158.1 60.9,209.7 		"/>
		<path class="st4" d="M10.8,167.5l49.9,25.3l88.1-45l-50.5-24.4L10.8,167.5z"/>
		<line class="st5" x1="60.9" y1="209.9" x2="60.9" y2="219.1"/>
	</g>
	<path class="st6" d="M104.7,91.2"/>
	<path class="st7" d="M95.5,84.4"/>
	<path class="st7" d="M89.8,80.3"/>
	<path class="st7" d="M80.6,73.6"/>
	<path class="st6" d="M104.7,91.2"/>
	<path class="st7" d="M95.5,84.4"/>
	<path class="st7" d="M89.8,80.3"/>
	<path class="st7" d="M80.6,73.6"/>
	<g>
		<polygon class="st8" points="57.8,76.4 89.8,92.3 99.2,86.9 67.8,71.3 		"/>
		<polygon class="st8" points="48.3,81.4 80.2,97.3 89.8,91.9 58.4,76.2 		"/>
		
			<ellipse transform="matrix(8.939890e-02 -0.996 0.996 8.939890e-02 -16.3366 149.8942)" class="st9" cx="73.8" cy="83.9" rx="2.9" ry="5.5"/>
		<polygon class="st10" points="80,97.6 80,174.7 89.8,169.8 89.8,92 		"/>
		<polygon class="st9" points="89.9,91.8 89.8,169.4 98.9,164.8 99,86.6 		"/>
		<polygon class="st11" points="48.4,81.5 48.6,158.5 80.1,174.7 80.5,97.2 		"/>
		<g>
			<path class="st12" d="M48.2,103.7c-9.4,1.4,31.7,15.4,31.7,15.4l20.5-10.4l6,22"/>
			<path class="st12" d="M48.3,136.4c-9.4,1.4,31.5,15.4,31.5,15.4l20.9-10.4l9.5,18.3"/>
			<line class="st12" x1="100.3" y1="108.6" x2="100.8" y2="129.3"/>
			<line class="st12" x1="100.7" y1="141.4" x2="103.6" y2="162.1"/>
		</g>
		<line class="st13" x1="69.9" y1="81.8" x2="69.9" y2="85.6"/>
	</g>
	<g>
		<g>
			<g>
				<g>
					<g>
						<g>
							<g>
								<defs>
									<path id="SVGID_1_" d="M113.6,29.9c2.8,1.8,5.6,9.5-1,17.1s-25,10.5-25,10.5s7.9,1.4,11.2,2.6c3.3,1.2,32.2,37.5,35.4,38.8
										c2.4,1.2,15,0.1,23.2-9.1s7.4-18.3,6.5-20.7c-0.8-1.9-36.1-28.4-47.2-36.8L113.6,29.9"/>
								</defs>
								<clipPath id="SVGID_2_">
									<use xlink:href="#SVGID_1_"  style="overflow:visible;"/>
								</clipPath>
								<path class="st14" d="M164.1,69.7c0,0,0.3,12.2-7.1,19.7c-10,9.6-21.4,9.4-22.6,9.4c-3.8-3.1-31.5-38.1-36.6-40
									c-5-1.8-10.8,0-10.8,0l7.1-3.1l7.4-1.6l16.8,5.7l10.6,1.3l28.8,3.4L164.1,69.7z"/>
							</g>
						</g>
					</g>
				</g>
				<g>
					<path id="XMLID_3_" class="st15" d="M113.6,29.9c2.8,1.8,5.6,9.5-1,17.1s-25,10.5-25,10.5s7.9,1.4,11.2,2.6
						c3.3,1.2,32.2,37.5,35.4,38.8c2.4,1.2,15,0.1,23.2-9.1s7.4-18.3,6.5-20.7c-0.8-1.9-36.1-28.4-47.2-36.8L113.6,29.9"/>
				</g>
			</g>
			<path class="st15" d="M85.8,57.6c0,0-2.2-8.3,8.1-20.7s18.1-8.1,19.6-7"/>
		</g>
		<path class="st16" d="M99.5,53.7c-1.1-2-14.2-1.2-19.4,6.6c-5.1,7.8-4.7,9.9-4.7,9.9l-1.4,10c0,0,2.8,9.6,1.8,0.8
			c-1-8.9,6.2-17.4,6.2-17.4s4.6-3.5,8.9-6.4C94.2,55,100.1,54.6,99.5,53.7z"/>
	</g>
</g>
</svg>
