<?xml version="1.0" encoding="utf-8"?>
<!-- Generator: Adobe Illustrator 25.2.3, SVG Export Plug-In . SVG Version: 6.00 Build 0)  -->
<svg version="1.1" id="Layer_1" xmlns="http://www.w3.org/2000/svg" xmlns:xlink="http://www.w3.org/1999/xlink" x="0px" y="0px"
	 viewBox="0 0 266.2 304.7" style="enable-background:new 0 0 266.2 304.7;" xml:space="preserve">
<style type="text/css">
	.st0{fill:none;stroke:#FFFFFF;stroke-width:0.5;stroke-linejoin:bevel;stroke-miterlimit:10;}
	.st1{fill:#CCB9B9;stroke:#FFFFFF;stroke-width:0.5;stroke-miterlimit:10;}
	.st2{fill:#E4DAD8;stroke:#FFFFFF;stroke-width:0.5;stroke-miterlimit:10;}
	.st3{fill:#E4DAD8;stroke:#FFFFFF;stroke-width:0.5;stroke-linejoin:bevel;stroke-miterlimit:10;}
	.st4{fill:#CCB9B9;stroke:#FFFFFF;stroke-width:0.5;stroke-linejoin:bevel;stroke-miterlimit:10;}
	.st5{fill:none;stroke:#FFFFFF;stroke-width:0.5;stroke-miterlimit:10;}
	.st6{fill:#DC3359;stroke:#FFFFFF;stroke-width:0.5;stroke-miterlimit:10;}
	.st7{fill:#C42C54;stroke:#FFFFFF;stroke-width:0.5;stroke-miterlimit:10;}
	.st8{fill:none;stroke:#FFFFFF;stroke-width:0.496;stroke-miterlimit:10;}
	.st9{fill:none;stroke:#C42C54;stroke-width:0.496;stroke-miterlimit:10;}
	.st10{fill:none;stroke:#B71148;stroke-width:0.496;stroke-linecap:round;stroke-miterlimit:10;}
	.st11{fill:#B71148;}
	.st12{fill:#C42C54;}
	.st13{fill:#B71148;stroke:#FFFFFF;stroke-width:0.5;stroke-miterlimit:10;}
	.st14{fill:#B71148;stroke:#FFFFFF;stroke-width:0.4795;stroke-miterlimit:10;}
	.st15{fill:#DC3359;stroke:#FFFFFF;stroke-width:0.4795;stroke-miterlimit:10;}
	.st16{fill:none;stroke:#B71148;stroke-width:2.8771;stroke-linecap:round;stroke-miterlimit:10;}
</style>
<g>
	<g>
		<line class="st0" x1="97.6" y1="279.9" x2="97.5" y2="295.1"/>
		<polygon class="st1" points="18.6,234.7 98.3,275.2 233.6,207 233.9,191.3 158.5,156.9 18.6,227.4 		"/>
		<polygon class="st1" points="18.6,236 18.8,220.7 98.4,259.7 98.1,275.1 		"/>
		<polygon class="st1" points="1.8,239.8 1.8,252.5 98.8,301.4 262.3,219.1 262.1,206 98.6,287.3 		"/>
		<path class="st2" d="M19,220.6c0,0,79.4,39.1,79.5,39l135.2-68.3l-79.9-38.6L19,220.6z"/>
		<polygon class="st3" points="98.1,287.3 262.4,206.1 165.2,158.8 2.1,238.8 		"/>
		<polygon class="st1" points="18.6,234.7 98,275.8 236.4,205.4 236.7,189.7 158.5,156.9 18.6,227.4 		"/>
		<polygon class="st4" points="18.6,236 18.8,220.7 98,260.7 97.9,275.9 		"/>
		<polygon class="st4" points="2.3,238.8 2.3,254.1 98,302.2 262.9,218.7 262.6,205.6 98,287.4 		"/>
		<path class="st3" d="M19,220.6l78.9,39.9l139.4-71.2l-79.9-38.6L19,220.6z"/>
		<line class="st5" x1="98" y1="287.8" x2="98" y2="302.1"/>
	</g>
	<polygon class="st6" points="57.6,229.1 97.7,249.2 97.7,230.8 56.8,210.9 	"/>
	<polygon class="st7" points="97.7,249 212,192.1 212.7,176.1 97.8,230.9 	"/>
	<line class="st8" x1="56.8" y1="210.8" x2="169.4" y2="153.3"/>
	<line class="st9" x1="99.7" y1="226" x2="200.9" y2="178.4"/>
	<path class="st10" d="M69,209.1c-0.7-1.3,98.4-52.2,98.4-52.2"/>
	<g>
		<polygon class="st11" points="96.7,226.1 98.8,224.7 97,222.9 93.2,222.5 91.2,224 92.9,225.8 		"/>
		<path class="st12" d="M96.4,225.4l0.5-0.3c0.4-0.3,0.4-0.8,0.1-1.1l-0.4-0.4c-0.1-0.1-0.3-0.2-0.4-0.2l-2.1-0.2
			c-0.2,0-0.3,0-0.5,0.1l-0.5,0.3c-0.4,0.3-0.4,0.8-0.1,1.1l0.4,0.4c0.1,0.1,0.3,0.2,0.4,0.2l2.1,0.2
			C96,225.5,96.2,225.5,96.4,225.4z"/>
	</g>
	<g>
		<polygon class="st11" points="200.5,176 202.5,174.5 200.8,172.7 197,172.4 194.9,173.8 196.7,175.6 		"/>
		<path class="st12" d="M200.1,175.2l0.5-0.3c0.4-0.3,0.4-0.8,0.1-1.1l-0.4-0.4c-0.1-0.1-0.3-0.2-0.4-0.2l-2.1-0.2
			c-0.2,0-0.3,0-0.5,0.1l-0.5,0.3c-0.4,0.3-0.4,0.8-0.1,1.1l0.4,0.4c0.1,0.1,0.3,0.2,0.4,0.2l2.1,0.2
			C199.8,175.4,199.9,175.3,200.1,175.2z"/>
	</g>
	<g>
		<polygon class="st11" points="78.5,211.5 80.5,210.2 78.8,208.4 75.2,208.1 73.2,209.5 74.9,211.2 		"/>
		<path class="st12" d="M78.1,210.9l0.5-0.3c0.3-0.2,0.4-0.7,0.1-1l-0.4-0.4c-0.1-0.1-0.3-0.2-0.4-0.2l-2-0.2c-0.2,0-0.3,0-0.5,0.1
			l-0.5,0.3c-0.3,0.2-0.4,0.7-0.1,1l0.4,0.4c0.1,0.1,0.3,0.2,0.4,0.2l2,0.2C77.9,211,78,210.9,78.1,210.9z"/>
	</g>
	<polygon class="st13" points="48.2,224.1 97.7,248.9 97.7,230.8 48.1,205.8 	"/>
	<polygon class="st13" points="97.7,249 212.9,192.2 212.6,174.1 97.7,230.9 	"/>
	<path class="st14" d="M170.9,163.4l10.1-5.1c0,0-0.8,2.8,1.4,3.9c2.3,1.1,6.2-0.3,6.2-0.3l-13.8,6.1c0,0-0.7,1-2.9-0.7
		C169.8,165.6,170.9,163.4,170.9,163.4z"/>
	<g>
		<path class="st15" d="M187.5,161.9l-13.3,6.5c3.9,10.3-3.2,12.4-3.4,12.5l-4.9,3.2l-0.7-0.2c-0.3,0.1-1,0.8-1,0.8l-0.8,0.3
			l-6.6,3.5l-0.7-0.3l-0.9,1.1l-4.2,2.1c-0.2,0.1-1-0.4-1-0.4s-0.1,1-0.4,1.2c-0.8,0.6-3.9,2.2-3.9,2.2l-1.4-0.1c0,0.2-0.8,1-1.2,1
			c-0.3,0-3.7,2-4,2.1c-0.3,0.1-1.2-0.5-1.2-0.2c0,0.3-1.4,1.5-1.4,1.5l-4.1,2.3c0,0-3.1,1.5-4.8,1.9c-1.8,0.4-1.7,0-1.7,0l-2.5,1.2
			l-0.9,0.8c0,0-0.8,1.5-3.7,3.3c-2.9,1.9-7.4,2.4-10,2.4c-3.2,0-12.8-0.8-12.8-0.8l-1.7,0.8c0,0,0.2,1.4-0.1,1.5
			c-0.3,0.1-1.1-0.5-1.1-0.5l-1,0.3l-4.4,2.4c0,0-0.9-1-2.7-4.6c-1.5-3-1.3-3.4-1.3-3.4l1.7-0.8c0,0,2.3-1,3.1-1.6
			c0.3-0.2-0.1,0.6,0.3,0.4c0.3-0.2,0.8,0.5,1,0.5s0.6-0.3,0.6-0.3l1.3-0.8c0,0,5.8-7.3,10-11.7c4.2-4.4,8.7-6.2,8.7-6.2l3.7-0.5
			l3-1.2l2-2.4c0,0,7.1-4,8.7-4.3c0.2,0,1.5,0.1,1.8-0.1s0.2-0.7,0.3-0.8c1-0.7,3-1.7,3.9-2c0.3-0.1,1.3-0.5,1.3-0.5l1.5,0.5
			c-0.2-0.2-0.8-0.6-0.5-0.9c0.1-0.1,0.5-0.3,0.6-0.4c0,0,3.2-1.8,4-2c0.3-0.1,1.7,0.1,1.7,0.1s0-1,0.2-1.1c1.5-0.7,3.9-1.8,4.6-2
			c0.2-0.1,1.2,0.3,1.2,0.3s-0.2-0.8-0.1-0.9c1.1-0.9,7.8-4.1,7.8-4.1s0.6,0.2,0.7,0.2c0.2-0.5,0.4-0.7,0.5-0.8
			c0.6-0.4,5.5-3.3,6.7-3.6c1.6-0.3,2.4-0.5,7.2,4.1l9.2-4.8l-18.4-10L48.1,206.2l49.5,25.1L212.4,174L187.5,161.9z"/>
	</g>
	<line class="st16" x1="105.8" y1="220.6" x2="191.7" y2="178.1"/>
	<line class="st16" x1="70.5" y1="200.4" x2="155.8" y2="156.6"/>
	<g>
		<polygon class="st11" points="164.7,155.2 166.6,153.8 164.9,152.1 161.3,151.8 159.4,153.2 161,154.9 		"/>
		<path class="st12" d="M164.3,154.5l0.5-0.3c0.3-0.2,0.4-0.7,0.1-1l-0.4-0.4c-0.1-0.1-0.3-0.2-0.4-0.2l-2-0.2c-0.2,0-0.3,0-0.5,0.1
			l-0.5,0.3c-0.3,0.2-0.4,0.7-0.1,1l0.4,0.4c0.1,0.1,0.3,0.2,0.4,0.2l2,0.2C164,154.7,164.2,154.6,164.3,154.5z"/>
	</g>
	<g>
		<polygon class="st11" points="200.1,173.7 202.2,172.3 200.4,170.5 196.6,170.1 194.6,171.6 196.3,173.3 		"/>
		<path class="st12" d="M199.8,173l0.5-0.3c0.4-0.3,0.4-0.8,0.1-1.1l-0.4-0.4c-0.1-0.1-0.3-0.2-0.4-0.2l-2.1-0.2
			c-0.2,0-0.3,0-0.5,0.1l-0.5,0.3c-0.4,0.3-0.4,0.8-0.1,1.1l0.4,0.4c0.1,0.1,0.3,0.2,0.4,0.2l2.1,0.2
			C199.4,173.1,199.6,173.1,199.8,173z"/>
	</g>
	<g>
		<polygon class="st11" points="98.4,223.8 100.4,222.3 98.7,220.5 94.9,220.2 92.8,221.6 94.6,223.4 		"/>
		<path class="st12" d="M98,223.1l0.5-0.3c0.4-0.3,0.4-0.8,0.1-1.1l-0.4-0.4c-0.1-0.1-0.3-0.2-0.4-0.2l-2.1-0.2
			c-0.2,0-0.3,0-0.5,0.1l-0.5,0.3c-0.4,0.3-0.4,0.8-0.1,1.1l0.4,0.4c0.1,0.1,0.3,0.2,0.4,0.2l2.1,0.2
			C97.7,223.2,97.9,223.2,98,223.1z"/>
	</g>
	<g>
		<polygon class="st11" points="70.2,208.6 72.2,207.1 70.5,205.3 66.7,205 64.6,206.4 66.4,208.2 		"/>
		<path class="st12" d="M69.8,207.9l0.5-0.3c0.4-0.3,0.4-0.8,0.1-1.1L70,206c-0.1-0.1-0.3-0.2-0.4-0.2l-2.1-0.2
			c-0.2,0-0.3,0-0.5,0.1l-0.5,0.3c-0.4,0.3-0.4,0.8-0.1,1.1l0.4,0.4c0.1,0.1,0.3,0.2,0.4,0.2l2.1,0.2C69.5,208,69.7,208,69.8,207.9z
			"/>
	</g>
	<g>
		<path class="st14" d="M177.9,145.9l12.5,6.2c0,0,0.6-1.6,4.5,0s4.1,4.3,4.1,4.3l23,11.6l-1.2-118.9l-43.2-24L177.9,145.9z"/>
		<path class="st12" d="M183.7,138.2c0,0,1.8,1.7,3.1,3.2s2.7,2.2,2.7,2.2s4.6,0.2,6.5,1s3.1,1.9,3.2,2.6c0,0.3,1.4,0.2,1.4,0.2
			s6.5-0.1,10-3c0.2-0.2,0.3-0.4,0.3-0.6c0,0-3.9-4.5-7.5-6.5c-1.9-1-9-2.6-12.1-2.9C187.7,133.9,183.7,138.2,183.7,138.2z"/>
		<path class="st6" d="M222.7,168.5l0.1-121.8l-50.2-25.8l-0.2,122.6l19.2,9.7l0.1-9.5c-4.6-1.7-7.1-5.3-7.5-6.8
			c-0.3-1.2-0.5-4.9-0.3-5.7c0-0.2,0.5-0.6,0.5-0.8s-0.5-0.4-0.5-0.6c-0.1-1.6-0.2-7.4,0.1-8.8c0-0.2,0.5-0.4,0.5-0.4
			s-0.4-0.7-0.4-0.9c-0.1-0.7-0.2-3.5-0.3-5.2c0-0.2,0.6-0.5,0.6-0.5s-0.4-0.7-0.4-1c-0.2-0.8-0.1-4.8-0.1-4.8c0-0.1,0-0.2,0-0.3
			c0.1-0.3,0.5-0.5,0.8-0.4v-0.1c0,0-0.9-0.9-0.9-1.2c-0.1-1-0.2-4.4-0.1-5.5c0-0.1,0.5-0.3,0.6-0.7c0-0.3-0.4-0.7-0.5-0.9
			c-0.4-1.5-0.2-9.8-0.2-9.8l1.4-1.9v-2.6l-1.1-2.9c0,0-1.6-5.8,0.5-11.5c2-5.8,7.1-11.8,7.1-11.8l0.1-1.5c0,0,0.1-0.5,0-0.7
			s-1-0.3-0.9-0.7s1.3-0.6,1.3-1c0.1-0.9,0-3.5,0-3.5l0.7-3c0,0,5.1,0.3,8.1,3.2l0.4,6.2v0.6c0,0,0.5,0.7,0.6,1c0,0.4-1,0.5-1,0.5
			v0.8c0,0,4,7.3,5.4,10.1c1.1,2.3,3.5,8,3.2,11.4c-0.3,3.5-1.4,4.3-1.4,4.3l-0.4,2.7l0.4,2.2c0,0,0.3,0.7,0.8,2.4
			c0.4,1.8,0.5,5.2,0.5,5.2l-0.2,4.7c0,0-0.5,1.7-0.8,1.9c-0.2,0.1,0.7,0.7,0.8,1s-0.2,4.2-0.1,4.6c0.1,0.3-0.2,1.5-0.4,1.5l0.7,1.2
			c0,0-0.1,3.5-0.2,4.5c0,0.3-0.9,0.9-0.9,0.9s0.8,0.5,0.8,0.8l0.1,4.7l-0.6,1.3l0.6,0.4l-0.1,7.4l0.1,0.9c0,0-0.3,0.9-0.3,1.3
			l0.5,0.6l-0.6,6.9c0,0-1.3,5-10.5,2.4l-0.1,10.3L222.7,168.5z"/>
		<line class="st16" x1="177.9" y1="131.7" x2="178.7" y2="43.1"/>
		<line class="st16" x1="215.8" y1="146.2" x2="215.8" y2="60.1"/>
		<polygon class="st13" points="222.8,46.3 222.7,168.5 238.1,160.7 238.3,38.4 		"/>
		<polygon class="st13" points="172,21.4 222.8,46.5 238.4,38.3 188.7,12.6 		"/>
		<g>
			<g>
				<polygon class="st11" points="176,29.7 178,31.2 179.4,34.5 178.7,36.1 176.6,34.5 175.3,31.2 				"/>
				<polygon class="st11" points="178.7,36.1 180.3,35.4 181,33.7 179.6,30.5 177.6,29 176,29.6 178.1,31.3 179.4,34.5 				"/>
			</g>
			<g>
				<path class="st12" d="M176.6,35l1.1-0.5c0,0,0.5-0.5,0-1.8c-0.6-1.3-1.3-1.3-1.3-1.3l-1.1,0.5L176.6,35z"/>
				<path class="st12" d="M175.2,31.9c0.4-0.2,1,0.4,1.4,1.2s0.3,1.7,0,1.8c-0.4,0.2-0.9-0.4-1.3-1.2
					C174.9,32.9,174.9,32.1,175.2,31.9z"/>
				<path class="st12" d="M176.6,35c0,0-1.4,0.6-2.1-1s0.7-2.1,0.7-2.1"/>
			</g>
		</g>
		<g>
			<g>
				<polygon class="st11" points="212.7,47.7 214.8,49.3 216.1,52.6 215.4,54.1 213.3,52.6 212,49.3 				"/>
				<polygon class="st11" points="215.4,54.2 217,53.4 217.7,51.8 216.4,48.6 214.3,47 212.7,47.7 214.8,49.3 216.1,52.6 				"/>
			</g>
			<g>
				<path class="st12" d="M213.3,53.1l1.1-0.5c0,0,0.5-0.5,0-1.8c-0.6-1.3-1.3-1.3-1.3-1.3L212,50L213.3,53.1z"/>
				<path class="st12" d="M212,50c0.4-0.2,1,0.4,1.4,1.2s0.3,1.7,0,1.8s-0.9-0.4-1.3-1.2S211.6,50.2,212,50z"/>
				<path class="st12" d="M213.3,53c0,0-1.4,0.6-2.1-1c-0.7-1.6,0.7-2.1,0.7-2.1"/>
			</g>
		</g>
		<g>
			<g>
				<polygon class="st11" points="213.9,155.4 215.9,157 217.3,160.2 216.6,161.8 214.5,160.2 213.2,157 				"/>
				<polygon class="st11" points="216.6,161.8 218.1,161.1 218.9,159.5 217.5,156.3 215.5,154.7 213.9,155.3 216,157 217.3,160.2 
									"/>
			</g>
			<g>
				<path class="st12" d="M214.5,160.7l1.1-0.5c0,0,0.5-0.5,0-1.8c-0.6-1.3-1.3-1.3-1.3-1.3l-1.1,0.5L214.5,160.7z"/>
				<path class="st12" d="M213.1,157.7c0.4-0.2,1,0.4,1.4,1.2s0.3,1.7,0,1.8c-0.4,0.2-0.9-0.4-1.3-1.2
					C212.8,158.6,212.8,157.8,213.1,157.7z"/>
				<path class="st12" d="M214.5,160.7c0,0-1.4,0.6-2.1-1c-0.7-1.6,0.7-2.1,0.7-2.1"/>
			</g>
		</g>
		<g>
			<g>
				<polygon class="st11" points="176.8,139 178.8,140.6 180.2,143.9 179.5,145.4 177.4,143.9 176.1,140.6 				"/>
				<polygon class="st11" points="179.5,145.5 181.1,144.7 181.8,143.1 180.4,139.9 178.4,138.3 176.8,139 178.9,140.6 180.2,143.9 
									"/>
			</g>
			<g>
				<path class="st12" d="M177.4,144.4l1.1-0.5c0,0,0.5-0.5,0-1.8s-1.3-1.3-1.3-1.3l-1.1,0.5L177.4,144.4z"/>
				<path class="st12" d="M176,141.3c0.4-0.2,1,0.4,1.4,1.2s0.3,1.7,0,1.8c-0.4,0.2-0.9-0.4-1.3-1.2
					C175.7,142.3,175.7,141.5,176,141.3z"/>
				<path class="st12" d="M177.4,144.4c0,0-1.4,0.6-2.1-1c-0.7-1.6,0.7-2.1,0.7-2.1"/>
			</g>
		</g>
	</g>
	<g>
		<path class="st13" d="M94.2,212.1c0.4-0.1,0.1-1.5,0.1-1.5l1.7-0.8c0,0,9.7,0.8,12.9,0.8c2.6,0,7.1-0.6,10.1-2.5s3.7-3.4,3.7-3.4
			l0.9-0.8l2.5-1.2c0,0-0.1,0.4,1.7,0c1.8-0.4,4.9-1.9,4.9-1.9l4.1-2.3c0,0,1.3-1.3,1.4-1.5c0-0.3,0.9,0.3,1.2,0.3
			c0.3-0.1,3.7-2.1,4.1-2.1s1.2-0.9,1.2-1l1.4,0.1c0,0,3.1-1.7,4-2.3c0.3-0.2,0.4-1.2,0.4-1.2s0.8,0.5,1,0.4l4.3-2.1l0.9-1.1
			l0.7,0.3l6.6-3.5l0.8-0.3c0,0,0.7-0.7,1-0.8l0.7,0.2l4.9-3.2c0.2-0.1,7.8-1.8,3.2-12.5c-0.1-0.3-0.1-0.2-0.1-0.2s-1,0.4-2.6-1.2
			s-0.3-3.7-0.3-3.7c-1.8-2.2-3.6-3.3-5.4-3.8c-2.5-0.8-8.3,3.2-9,3.7c-0.2,0.1-0.3,0.7-0.5,0.8s-0.5-0.2-0.7-0.2
			c-1.5,0.6-6.7,3.2-7.8,4.1c-0.1,0.1-0.1,0.6-0.1,0.6s-0.8,0-1,0c-0.7,0.2-3.2,1.4-4.8,2.1c-0.2,0.1-0.2,0.8-0.2,0.8s-0.8,0-1.1,0
			c-0.8,0.2-4.4,2.1-4.4,2.1c-0.1,0.1-0.2,0.1-0.2,0.2c-0.3,0.2-0.3,0.6-0.1,0.9h0c0,0-1.2-0.4-1.5-0.3c-0.9,0.3-4,1.8-5,2.4
			c-0.1,0.1-0.1,0.6-0.3,0.8c-0.3,0.2-0.9,0-1,0c-1.6,0.3-8.9,4.2-8.9,4.2l-1.9,2.1l-3.1,1.6l-1.9,0.1c0,0-5.5,1-9.8,5.5
			c-4.2,4.5-11.1,10.6-11.1,10.6l-1.3,0.8c0,0-0.4,0.3-0.6,0.3s-0.7-0.7-1.1-0.5c-0.4,0.3,0,1.4-0.3,1.6c-0.8,0.5-3.1,1.6-3.1,1.6
			l-1.7,0.9c0,0-2.6,1.9-1.1,5c1.8,3.7,5.2,3.1,5.2,3.1l4.2-2.3l1-0.3C93,211.5,93.8,212.2,94.2,212.1z"/>
		<path class="st13" d="M85.6,209.9"/>
		<path class="st13" d="M107.7,185.6"/>
	</g>
</g>
<path class="st12" d="M175.8,174.7c0,0,0-2.2-0.6-4.2c-0.6-2-1-2.1-1-2.1s-1.6,0.1-2.8-1.5c-1.2-1.6-0.5-3.2-0.2-3.8
	c0.1-0.2-1.5-1.7-1.5-1.7s-2.7-1.7-3.7-1.8c-1.1-0.1-1.6,0.2-1.6,0.2s0.1,3.9,2,7.3c1.1,1.8,2,3.9,4.4,5.9
	C173.4,175.4,175.8,174.7,175.8,174.7z"/>
</svg>
