<?xml version="1.0" encoding="utf-8"?>
<!-- Generator: Adobe Illustrator 25.2.3, SVG Export Plug-In . SVG Version: 6.00 Build 0)  -->
<svg version="1.1" id="Layer_1" xmlns="http://www.w3.org/2000/svg" xmlns:xlink="http://www.w3.org/1999/xlink" x="0px" y="0px"
	 viewBox="0 0 266.2 304.7" style="enable-background:new 0 0 266.2 304.7;" xml:space="preserve">
<style type="text/css">
	.st0{fill:#CCB9B9;stroke:#FFFFFF;stroke-width:0.5;stroke-linejoin:bevel;stroke-miterlimit:10;}
	.st1{fill:#CCB9B9;stroke:#FFFFFF;stroke-width:0.5;stroke-miterlimit:10;}
	.st2{fill:#E4DAD8;stroke:#FFFFFF;stroke-width:0.5;stroke-miterlimit:10;}
	.st3{fill:#E4DAD8;stroke:#FFFFFF;stroke-width:0.5;stroke-linejoin:bevel;stroke-miterlimit:10;}
	.st4{fill:none;stroke:#B71148;stroke-width:0.9919;stroke-miterlimit:10;}
	.st5{fill:#DC3359;stroke:#FFFFFF;stroke-width:0.5;stroke-miterlimit:10;}
	.st6{fill:#B71148;stroke:#FFFFFF;stroke-width:0.5262;stroke-miterlimit:10;}
	.st7{fill:#B71148;stroke:#FFFFFF;stroke-width:0.5;stroke-miterlimit:10;}
	.st8{fill:none;stroke:#361D32;stroke-width:4.9594;stroke-linecap:round;stroke-miterlimit:10;}
	.st9{clip-path:url(#XMLID_2_);fill:#B79797;stroke:#FFFFFF;stroke-width:0.5;stroke-miterlimit:10;}
	.st10{fill:none;stroke:#361D32;stroke-width:0.5;stroke-miterlimit:10;}
	.st11{fill:#B79797;stroke:#FFFFFF;stroke-width:0.5;stroke-miterlimit:10;}
</style>
<g>
	<g>
		<line class="st0" x1="98.3" y1="280.9" x2="98.2" y2="296.2"/>
		<polygon class="st1" points="19.2,235.8 99,276.2 234.3,208.1 234.5,192.4 159.2,157.9 19.3,228.4 		"/>
		<polygon class="st1" points="19.3,237.1 19.5,221.8 99.1,260.8 98.8,276.2 		"/>
		<polygon class="st1" points="2.5,240.8 2.5,253.5 99.4,302.5 263,220.1 262.7,207.1 99.3,288.4 		"/>
		<path class="st2" d="M19.6,221.7c0,0,79.4,39.1,79.5,39l135.2-68.3l-79.9-38.6L19.6,221.7z"/>
		<polygon class="st2" points="98.7,288.4 263.1,207.1 165.9,159.9 2.8,239.8 		"/>
		<polygon class="st1" points="19.2,235.8 98.7,276.9 237,206.5 237.3,190.8 159.2,157.9 19.3,228.4 		"/>
		<polygon class="st0" points="19.3,237.1 19.5,221.8 98.7,261.7 98.6,277 		"/>
		<polygon class="st0" points="3,239.9 2.9,255.2 98.7,303.3 263.5,219.7 263.3,206.7 98.7,288.4 		"/>
		<path class="st3" d="M19.6,221.7c0,0,78.9,39.9,78.9,39.9l139.4-71.2l-79.9-38.6L19.6,221.7z"/>
		<line class="st1" x1="98.7" y1="288.8" x2="98.7" y2="303.1"/>
	</g>
	<path class="st4" d="M168.1,100.9"/>
	<path class="st4" d="M153.5,90.2"/>
	<path class="st4" d="M144.5,83.6"/>
	<path class="st4" d="M130,72.9"/>
	<path class="st4" d="M168.1,100.9"/>
	<path class="st4" d="M153.5,90.2"/>
	<path class="st4" d="M144.5,83.6"/>
	<path class="st4" d="M130,72.9"/>
	<g>
		<polygon class="st5" points="93.8,77.5 144.4,102.7 159.4,94.1 109.8,69.3 		"/>
		<polygon class="st5" points="78.8,85.3 129.5,110.5 144.5,101.9 94.9,77.2 		"/>
		
			<ellipse transform="matrix(8.935341e-02 -0.996 0.996 8.935341e-02 19.5026 199.9533)" class="st6" cx="119.1" cy="89.3" rx="4.5" ry="8.7"/>
		<polygon class="st7" points="129.1,110.9 129,233 144.4,225.2 144.5,102 		"/>
		<polygon class="st7" points="144.6,101.8 144.5,224.6 158.9,217.5 159,93.7 		"/>
		<polygon class="st5" points="79,85.4 79.4,207.4 129.7,232.5 129.8,110.5 		"/>
		<g>
			<path class="st8" d="M78.7,120.6c-15,2.2,50.1,24.3,50.1,24.3l32.4-16.5l9.4,34.8"/>
			<path class="st8" d="M79,172.4c-15,2.2,49.8,24.3,49.8,24.3l33-16.5l15,29.1"/>
			<line class="st8" x1="161.1" y1="128.4" x2="161.9" y2="161.2"/>
			<line class="st8" x1="161.8" y1="180.2" x2="166.3" y2="213"/>
		</g>
		<line class="st6" x1="112.9" y1="86.1" x2="112.9" y2="91.9"/>
	</g>
	<g>
		<g>
			<g>
				<defs>
					<path id="XMLID_49_" d="M182.1,4c4.4,3,8.8,15-1.5,27.1c-10.3,12.1-39.4,16.6-39.4,16.6s12.5,2.2,17.7,4.1
						c5.2,1.9,50.9,59.3,56,61.4c3.8,1.8,23.7,0.2,36.8-14.3s11.8-29.1,10.3-32.8c-1.3-3.1-57.2-45-74.7-58.2L182.1,4"/>
				</defs>
				<clipPath id="XMLID_2_">
					<use xlink:href="#XMLID_49_"  style="overflow:visible;"/>
				</clipPath>
				<path class="st9" d="M262.1,66.9c0,0,0.6,19.3-11.2,31.1c-15.8,15.3-33.9,15-35.8,15c-5.9-4.9-49.9-60.3-57.9-63.2
					c-8-2.9-17.1,0-17.1,0l11.2-5l11.6-2.6l26.7,9l16.8,2l45.6,5.3L262.1,66.9z"/>
				<use xlink:href="#XMLID_49_"  style="overflow:visible;fill:none;stroke:#361D32;stroke-width:0.5;stroke-miterlimit:10;"/>
			</g>
			<path class="st10" d="M138.2,47.6c0,0-3.5-13,12.9-32.7S179.7,2,182.1,4"/>
		</g>
		<path class="st11" d="M160,41.6c-1.6-3.3-22.6-2-30.7,10.5s-7.4,15.6-7.4,15.6l-2.3,15.8c0,0,4.4,15.3,2.9,1.2s9.8-27.4,9.8-27.4
			s7.4-5.6,14.1-10.3C151.5,43.6,160.7,43,160,41.6z"/>
	</g>
</g>
</svg>
