<?xml version="1.0" encoding="utf-8"?>
<!-- Generator: Adobe Illustrator 25.2.3, SVG Export Plug-In . SVG Version: 6.00 Build 0)  -->
<svg version="1.1" id="Layer_1" xmlns="http://www.w3.org/2000/svg" xmlns:xlink="http://www.w3.org/1999/xlink" x="0px" y="0px"
	 viewBox="0 0 283 321.5" style="enable-background:new 0 0 283 321.5;" xml:space="preserve">
<style type="text/css">
	.st0{fill:none;stroke:#FFFFFF;stroke-width:0.525;stroke-linejoin:bevel;stroke-miterlimit:10;}
	.st1{fill:#CCB9B9;stroke:#FFFFFF;stroke-width:0.525;stroke-miterlimit:10;}
	.st2{fill:#E4DAD8;stroke:#FFFFFF;stroke-width:0.525;stroke-miterlimit:10;}
	.st3{fill:#E4DAD8;stroke:#FFFFFF;stroke-width:0.525;stroke-linejoin:bevel;stroke-miterlimit:10;}
	.st4{fill:#CCB9B9;stroke:#FFFFFF;stroke-width:0.525;stroke-linejoin:bevel;stroke-miterlimit:10;}
	.st5{fill:none;stroke:#FFFFFF;stroke-width:0.525;stroke-miterlimit:10;}
	.st6{fill:#DC3359;stroke:#FFFFFF;stroke-width:0.525;stroke-miterlimit:10;}
	.st7{fill:#C42C54;stroke:#FFFFFF;stroke-width:0.525;stroke-miterlimit:10;}
	.st8{fill:none;stroke:#FFFFFF;stroke-width:0.5208;stroke-miterlimit:10;}
	.st9{fill:none;stroke:#C42C54;stroke-width:0.5208;stroke-miterlimit:10;}
	.st10{fill:none;stroke:#B71148;stroke-width:0.5208;stroke-linecap:round;stroke-miterlimit:10;}
	.st11{fill:#B71148;}
	.st12{fill:#C42C54;}
	.st13{fill:#B71148;stroke:#FFFFFF;stroke-width:0.525;stroke-miterlimit:10;}
	.st14{fill:#B71148;stroke:#FFFFFF;stroke-width:0.5035;stroke-miterlimit:10;}
	.st15{fill:#DC3359;stroke:#FFFFFF;stroke-width:0.5035;stroke-miterlimit:10;}
	.st16{fill:none;stroke:#B71148;stroke-width:3.021;stroke-linecap:round;stroke-miterlimit:10;}
</style>
<g>
	<g>
		<line class="st0" x1="105.3" y1="295.3" x2="105.2" y2="311.3"/>
		<polygon class="st1" points="22.3,247.9 106,290.4 248.1,218.8 248.4,202.3 169.2,166.2 22.3,240.2 		"/>
		<polygon class="st1" points="22.3,249.2 22.5,233.2 106.1,274.1 105.8,290.3 		"/>
		<polygon class="st1" points="4.7,253.2 4.7,266.6 106.5,317.9 278.2,231.5 278,217.7 106.3,303.1 		"/>
		<path class="st2" d="M22.7,233.1c0,0,83.4,41.1,83.5,40.9l142-71.7l-83.9-40.5L22.7,233.1z"/>
		<polygon class="st3" points="105.8,303.1 278.3,217.8 176.2,168.2 5,252.2 		"/>
		<polygon class="st1" points="22.3,247.9 105.7,291 251,217.1 251.3,200.6 169.2,166.2 22.3,240.2 		"/>
		<polygon class="st4" points="22.3,249.2 22.5,233.2 105.7,275.2 105.6,291.1 		"/>
		<polygon class="st4" points="5.2,252.2 5.2,268.2 105.7,318.7 278.8,231.1 278.5,217.3 105.7,303.2 		"/>
		<path class="st3" d="M22.7,233.1l82.8,41.9l146.4-74.8L168,159.7L22.7,233.1z"/>
		<line class="st5" x1="105.7" y1="303.6" x2="105.7" y2="318.6"/>
	</g>
	<polygon class="st6" points="63.3,242 105.4,263.1 105.4,243.8 62.4,222.9 	"/>
	<polygon class="st7" points="105.4,262.9 225.4,203.1 226.1,186.3 105.5,243.9 	"/>
	<line class="st8" x1="62.4" y1="222.8" x2="180.7" y2="162.4"/>
	<line class="st9" x1="107.5" y1="238.7" x2="213.7" y2="188.8"/>
	<path class="st10" d="M75.2,221c-0.7-1.4,103.3-54.8,103.3-54.8"/>
	<g>
		<polygon class="st11" points="104.3,238.8 106.5,237.4 104.6,235.5 100.6,235.1 98.5,236.6 100.3,238.5 		"/>
		<path class="st12" d="M104,238.1l0.5-0.3c0.4-0.3,0.4-0.8,0.1-1.2l-0.4-0.4c-0.1-0.1-0.3-0.2-0.4-0.2l-2.2-0.2
			c-0.2,0-0.3,0-0.5,0.1l-0.5,0.3c-0.4,0.3-0.4,0.8-0.1,1.2l0.4,0.4c0.1,0.1,0.3,0.2,0.4,0.2l2.2,0.2
			C103.6,238.2,103.8,238.2,104,238.1z"/>
	</g>
	<g>
		<polygon class="st11" points="213.3,186.2 215.4,184.7 213.6,182.8 209.6,182.4 207.4,183.9 209.3,185.8 		"/>
		<path class="st12" d="M212.9,185.4l0.5-0.3c0.4-0.3,0.4-0.8,0.1-1.2l-0.4-0.4c-0.1-0.1-0.3-0.2-0.4-0.2l-2.2-0.2
			c-0.2,0-0.3,0-0.5,0.1l-0.5,0.3c-0.4,0.3-0.4,0.8-0.1,1.2l0.4,0.4c0.1,0.1,0.3,0.2,0.4,0.2l2.2,0.2
			C212.6,185.6,212.7,185.5,212.9,185.4z"/>
	</g>
	<g>
		<polygon class="st11" points="85.2,223.5 87.3,222.1 85.5,220.2 81.7,219.9 79.6,221.4 81.4,223.2 		"/>
		<path class="st12" d="M84.8,222.9l0.5-0.3c0.3-0.2,0.4-0.7,0.1-1.1l-0.4-0.4c-0.1-0.1-0.3-0.2-0.4-0.2l-2.1-0.2
			c-0.2,0-0.3,0-0.5,0.1l-0.5,0.3c-0.3,0.2-0.4,0.7-0.1,1.1l0.4,0.4c0.1,0.1,0.3,0.2,0.4,0.2l2.1,0.2
			C84.6,223,84.7,222.9,84.8,222.9z"/>
	</g>
	<polygon class="st13" points="53.4,236.7 105.4,262.8 105.4,243.8 53.3,217.5 	"/>
	<polygon class="st13" points="105.4,262.9 226.3,203.2 226,184.2 105.4,243.9 	"/>
	<path class="st14" d="M182.2,173l10.6-5.4c0,0-0.8,2.9,1.5,4.1c2.4,1.2,6.5-0.3,6.5-0.3l-14.5,6.4c0,0-0.7,1.1-3-0.7
		C181.1,175.3,182.2,173,182.2,173z"/>
	<g>
		<path class="st15" d="M199.7,171.4l-14,6.8c4.1,10.8-3.4,13-3.6,13.1l-5.1,3.4l-0.7-0.2c-0.3,0.1-1.1,0.8-1.1,0.8l-0.8,0.3
			l-6.9,3.7l-0.7-0.3l-0.9,1.2l-4.4,2.2c-0.2,0.1-1-0.4-1-0.4s-0.1,1-0.4,1.3c-0.8,0.6-4.1,2.3-4.1,2.3l-1.5-0.1
			c0,0.2-0.8,1.1-1.3,1.1c-0.3,0-3.9,2.1-4.2,2.2c-0.3,0.1-1.3-0.5-1.3-0.2s-1.5,1.6-1.5,1.6l-4.3,2.4c0,0-3.3,1.6-5,2
			c-1.9,0.4-1.8,0-1.8,0l-2.6,1.3l-0.9,0.8c0,0-0.8,1.6-3.9,3.5c-3,2-7.8,2.5-10.5,2.5c-3.4,0-13.4-0.8-13.4-0.8l-1.8,0.8
			c0,0,0.2,1.5-0.1,1.6c-0.3,0.1-1.2-0.5-1.2-0.5l-1,0.3l-4.6,2.5c0,0-0.9-1.1-2.8-4.8c-1.6-3.2-1.4-3.6-1.4-3.6l1.8-0.8
			c0,0,2.4-1.1,3.3-1.7c0.3-0.2-0.1,0.6,0.3,0.4c0.3-0.2,0.8,0.5,1.1,0.5c0.2,0,0.6-0.3,0.6-0.3l1.4-0.8c0,0,6.1-7.7,10.5-12.3
			s9.1-6.5,9.1-6.5l3.9-0.5l3.2-1.3l2.1-2.5c0,0,7.5-4.2,9.1-4.5c0.2,0,1.6,0.1,1.9-0.1c0.3-0.2,0.2-0.7,0.3-0.8
			c1.1-0.7,3.1-1.8,4.1-2.1c0.3-0.1,1.4-0.5,1.4-0.5l1.6,0.5c-0.2-0.2-0.8-0.6-0.5-0.9c0.1-0.1,0.5-0.3,0.6-0.4c0,0,3.4-1.9,4.2-2.1
			c0.3-0.1,1.8,0.1,1.8,0.1s0-1.1,0.2-1.2c1.6-0.7,4.1-1.9,4.8-2.1c0.2-0.1,1.3,0.3,1.3,0.3s-0.2-0.8-0.1-0.9
			c1.2-0.9,8.2-4.3,8.2-4.3s0.6,0.2,0.7,0.2c0.2-0.5,0.4-0.7,0.5-0.8c0.6-0.4,5.8-3.5,7-3.8c1.7-0.3,2.5-0.5,7.6,4.3l9.7-5
			l-19.3-10.5l-120,60.1l52,26.4l120.5-60.2L199.7,171.4z"/>
	</g>
	<line class="st16" x1="113.9" y1="233.1" x2="204.1" y2="188.4"/>
	<line class="st16" x1="76.8" y1="211.8" x2="166.4" y2="165.9"/>
	<g>
		<polygon class="st11" points="175.7,164.4 177.7,162.9 175.9,161.1 172.1,160.8 170.2,162.3 171.8,164.1 		"/>
		<path class="st12" d="M175.3,163.7l0.5-0.3c0.3-0.2,0.4-0.7,0.1-1.1l-0.4-0.4c-0.1-0.1-0.3-0.2-0.4-0.2l-2.1-0.2
			c-0.2,0-0.3,0-0.5,0.1l-0.5,0.3c-0.3,0.2-0.4,0.7-0.1,1.1l0.4,0.4c0.1,0.1,0.3,0.2,0.4,0.2l2.1,0.2
			C175,163.9,175.2,163.8,175.3,163.7z"/>
	</g>
	<g>
		<polygon class="st11" points="212.9,183.8 215.1,182.3 213.2,180.5 209.2,180 207.1,181.6 208.9,183.4 		"/>
		<path class="st12" d="M212.6,183.1l0.5-0.3c0.4-0.3,0.4-0.8,0.1-1.2l-0.4-0.4c-0.1-0.1-0.3-0.2-0.4-0.2l-2.2-0.2
			c-0.2,0-0.3,0-0.5,0.1l-0.5,0.3c-0.4,0.3-0.4,0.8-0.1,1.2l0.4,0.4c0.1,0.1,0.3,0.2,0.4,0.2l2.2,0.2
			C212.2,183.2,212.4,183.2,212.6,183.1z"/>
	</g>
	<g>
		<polygon class="st11" points="106.1,236.4 108.2,234.8 106.4,233 102.4,232.6 100.2,234.1 102.1,236 		"/>
		<path class="st12" d="M105.7,235.7l0.5-0.3c0.4-0.3,0.4-0.8,0.1-1.2l-0.4-0.4c-0.1-0.1-0.3-0.2-0.4-0.2l-2.2-0.2
			c-0.2,0-0.3,0-0.5,0.1l-0.5,0.3c-0.4,0.3-0.4,0.8-0.1,1.2l0.4,0.4c0.1,0.1,0.3,0.2,0.4,0.2l2.2,0.2
			C105.4,235.8,105.6,235.8,105.7,235.7z"/>
	</g>
	<g>
		<polygon class="st11" points="76.5,220.5 78.6,218.9 76.8,217 72.8,216.7 70.6,218.1 72.5,220 		"/>
		<path class="st12" d="M76.1,219.7l0.5-0.3c0.4-0.3,0.4-0.8,0.1-1.2l-0.4-0.5c-0.1-0.1-0.3-0.2-0.4-0.2l-2.2-0.2
			c-0.2,0-0.3,0-0.5,0.1l-0.5,0.3c-0.4,0.3-0.4,0.8-0.1,1.2l0.4,0.4c0.1,0.1,0.3,0.2,0.4,0.2l2.2,0.2
			C75.8,219.8,76,219.8,76.1,219.7z"/>
	</g>
	<g>
		<path class="st14" d="M189.6,154.6l13.1,6.5c0,0,0.6-1.7,4.7,0c4.1,1.7,4.3,4.5,4.3,4.5l24.1,12.2L234.6,53l-45.4-25.2
			L189.6,154.6z"/>
		<path class="st12" d="M195.7,146.5c0,0,1.9,1.8,3.3,3.4s2.8,2.3,2.8,2.3s4.8,0.2,6.8,1.1c2,0.8,3.3,2,3.4,2.7
			c0,0.3,1.5,0.2,1.5,0.2s6.8-0.1,10.5-3.1c0.2-0.2,0.3-0.4,0.3-0.6c0,0-4.1-4.7-7.9-6.8c-2-1.1-9.5-2.7-12.7-3
			C199.9,142,195.7,146.5,195.7,146.5z"/>
		<path class="st6" d="M236.6,178.4l0.1-127.9L184,23.4l-0.2,128.7l20.2,10.2l0.1-10c-4.8-1.8-7.5-5.6-7.9-7.1
			c-0.3-1.3-0.5-5.1-0.3-6c0-0.2,0.5-0.6,0.5-0.8s-0.5-0.4-0.5-0.6c-0.1-1.7-0.2-7.8,0.1-9.2c0-0.2,0.5-0.4,0.5-0.4
			s-0.4-0.7-0.4-0.9c-0.1-0.7-0.2-3.7-0.3-5.5c0-0.2,0.6-0.5,0.6-0.5s-0.4-0.7-0.4-1.1c-0.2-0.8-0.1-5-0.1-5c0-0.1,0-0.2,0-0.3
			c0.1-0.3,0.5-0.5,0.8-0.4v-0.1c0,0-0.9-0.9-0.9-1.3c-0.1-1.1-0.2-4.6-0.1-5.8c0-0.1,0.5-0.3,0.6-0.7c0-0.3-0.4-0.7-0.5-0.9
			c-0.4-1.6-0.2-10.3-0.2-10.3l1.5-2v-2.7l-1.2-3c0,0-1.7-6.1,0.5-12.1c2.1-6.1,7.5-12.4,7.5-12.4l0.1-1.6c0,0,0.1-0.5,0-0.7
			s-1.1-0.3-0.9-0.7c0.1-0.4,1.4-0.6,1.4-1c0.1-0.9,0-3.7,0-3.7l0.7-3.1c0,0,5.4,0.3,8.5,3.4l0.4,6.5v0.6c0,0,0.5,0.7,0.6,1
			c0,0.4-1.1,0.5-1.1,0.5V65c0,0,4.2,7.7,5.7,10.6c1.2,2.4,3.7,8.4,3.4,12c-0.3,3.7-1.5,4.5-1.5,4.5l-0.4,2.8l0.4,2.3
			c0,0,0.3,0.7,0.8,2.5c0.4,1.9,0.5,5.5,0.5,5.5l-0.2,4.9c0,0-0.5,1.8-0.8,2c-0.2,0.1,0.7,0.7,0.8,1s-0.2,4.4-0.1,4.8
			c0.1,0.3-0.2,1.6-0.4,1.6l0.7,1.3c0,0-0.1,3.7-0.2,4.7c0,0.3-0.9,0.9-0.9,0.9s0.8,0.5,0.8,0.8l0.1,4.9l-0.6,1.4l0.6,0.4l-0.1,7.8
			l0.1,0.9c0,0-0.3,0.9-0.3,1.4l0.5,0.6l-0.6,7.2c0,0-1.4,5.2-11,2.5l-0.1,10.8L236.6,178.4z"/>
		<line class="st16" x1="189.6" y1="139.7" x2="190.4" y2="46.7"/>
		<line class="st16" x1="229.4" y1="154.9" x2="229.4" y2="64.5"/>
		<polygon class="st13" points="236.7,50 236.6,178.4 252.8,170.2 253,41.8 		"/>
		<polygon class="st13" points="183.4,23.9 236.7,50.3 253.1,41.6 200.9,14.7 		"/>
		<g>
			<g>
				<polygon class="st11" points="187.6,32.6 189.7,34.2 191.2,37.7 190.4,39.3 188.2,37.7 186.8,34.2 				"/>
				<polygon class="st11" points="190.4,39.3 192.1,38.6 192.8,36.8 191.4,33.5 189.3,31.9 187.6,32.5 189.8,34.3 191.2,37.7 				
					"/>
			</g>
			<g>
				<path class="st12" d="M188.2,38.2l1.2-0.5c0,0,0.5-0.5,0-1.9c-0.6-1.4-1.4-1.4-1.4-1.4l-1.2,0.5L188.2,38.2z"/>
				<path class="st12" d="M186.7,34.9c0.4-0.2,1.1,0.4,1.5,1.3c0.4,0.8,0.3,1.8,0,1.9c-0.4,0.2-0.9-0.4-1.4-1.3
					C186.4,36,186.4,35.1,186.7,34.9z"/>
				<path class="st12" d="M188.2,38.2c0,0-1.5,0.6-2.2-1c-0.7-1.7,0.7-2.2,0.7-2.2"/>
			</g>
		</g>
		<g>
			<g>
				<polygon class="st11" points="226.1,51.5 228.3,53.2 229.7,56.7 229,58.2 226.7,56.7 225.4,53.2 				"/>
				<polygon class="st11" points="229,58.3 230.6,57.5 231.4,55.8 230,52.5 227.8,50.8 226.1,51.5 228.3,53.2 229.7,56.7 				"/>
			</g>
			<g>
				<path class="st12" d="M226.7,57.2l1.2-0.5c0,0,0.5-0.5,0-1.9c-0.6-1.4-1.4-1.4-1.4-1.4l-1.2,0.5L226.7,57.2z"/>
				<path class="st12" d="M225.4,53.9c0.4-0.2,1.1,0.4,1.5,1.3c0.4,0.8,0.3,1.8,0,1.9c-0.3,0.1-0.9-0.4-1.4-1.3
					C225.1,55,225,54.1,225.4,53.9z"/>
				<path class="st12" d="M226.7,57.1c0,0-1.5,0.6-2.2-1c-0.7-1.7,0.7-2.2,0.7-2.2"/>
			</g>
		</g>
		<g>
			<g>
				<polygon class="st11" points="227.4,164.6 229.5,166.3 230.9,169.6 230.2,171.3 228,169.6 226.6,166.3 				"/>
				<polygon class="st11" points="230.2,171.3 231.8,170.6 232.6,168.9 231.2,165.5 229.1,163.9 227.4,164.5 229.6,166.3 
					230.9,169.6 				"/>
			</g>
			<g>
				<path class="st12" d="M228,170.2l1.2-0.5c0,0,0.5-0.5,0-1.9c-0.6-1.4-1.4-1.4-1.4-1.4l-1.2,0.5L228,170.2z"/>
				<path class="st12" d="M226.5,167c0.4-0.2,1,0.4,1.5,1.3c0.4,0.8,0.3,1.8,0,1.9c-0.4,0.2-0.9-0.4-1.4-1.3
					C226.2,168,226.2,167.1,226.5,167z"/>
				<path class="st12" d="M228,170.2c0,0-1.5,0.6-2.2-1c-0.7-1.7,0.7-2.2,0.7-2.2"/>
			</g>
		</g>
		<g>
			<g>
				<polygon class="st11" points="188.4,147.4 190.5,149.1 192,152.5 191.3,154.1 189.1,152.5 187.7,149.1 				"/>
				<polygon class="st11" points="191.3,154.2 192.9,153.4 193.7,151.7 192.2,148.3 190.1,146.6 188.4,147.4 190.6,149.1 192,152.5 
									"/>
			</g>
			<g>
				<path class="st12" d="M189.1,153.1l1.2-0.5c0,0,0.5-0.5,0-1.9s-1.4-1.4-1.4-1.4l-1.2,0.5L189.1,153.1z"/>
				<path class="st12" d="M187.6,149.8c0.4-0.2,1.1,0.4,1.5,1.3c0.4,0.8,0.3,1.8,0,1.9c-0.4,0.2-0.9-0.4-1.4-1.3
					C187.3,150.8,187.3,150,187.6,149.8z"/>
				<path class="st12" d="M189.1,153.1c0,0-1.5,0.6-2.2-1.1s0.7-2.2,0.7-2.2"/>
			</g>
		</g>
	</g>
	<g>
		<path class="st13" d="M101.7,224.1c0.4-0.1,0.1-1.6,0.1-1.6l1.8-0.8c0,0,10.2,0.8,13.5,0.8c2.7,0,7.5-0.6,10.6-2.6
			c3.2-2,3.9-3.6,3.9-3.6l0.9-0.8l2.6-1.3c0,0-0.1,0.4,1.8,0c1.9-0.4,5.1-2,5.1-2l4.3-2.4c0,0,1.4-1.4,1.5-1.6
			c0-0.3,0.9,0.3,1.3,0.3c0.3-0.1,3.9-2.2,4.3-2.2c0.4,0,1.3-0.9,1.3-1.1l1.5,0.1c0,0,3.3-1.8,4.2-2.4c0.3-0.2,0.4-1.3,0.4-1.3
			s0.8,0.5,1.1,0.4l4.5-2.2l0.9-1.2l0.7,0.3l6.9-3.7l0.8-0.3c0,0,0.7-0.7,1.1-0.8l0.7,0.2l5.1-3.4c0.2-0.1,8.2-1.9,3.4-13.1
			c-0.1-0.3-0.1-0.2-0.1-0.2s-1.1,0.4-2.7-1.3s-0.3-3.9-0.3-3.9c-1.9-2.3-3.8-3.5-5.7-4c-2.6-0.8-8.7,3.4-9.5,3.9
			c-0.2,0.1-0.3,0.7-0.5,0.8s-0.5-0.2-0.7-0.2c-1.6,0.6-7,3.4-8.2,4.3c-0.1,0.1-0.1,0.6-0.1,0.6s-0.8,0-1,0c-0.7,0.2-3.4,1.5-5,2.2
			c-0.2,0.1-0.2,0.8-0.2,0.8s-0.8,0-1.2,0c-0.8,0.2-4.6,2.2-4.6,2.2c-0.1,0.1-0.2,0.1-0.2,0.2c-0.3,0.2-0.3,0.6-0.1,0.9l0,0
			c0,0-1.3-0.4-1.6-0.3c-0.9,0.3-4.2,1.9-5.2,2.5c-0.1,0.1-0.1,0.6-0.3,0.8c-0.3,0.2-0.9,0-1.1,0c-1.7,0.3-9.3,4.4-9.3,4.4l-2,2.2
			l-3.3,1.7l-2,0.1c0,0-5.8,1.1-10.3,5.8c-4.4,4.7-11.7,11.1-11.7,11.1l-1.4,0.8c0,0-0.4,0.3-0.6,0.3s-0.7-0.7-1.2-0.5
			c-0.4,0.3,0,1.5-0.3,1.7c-0.8,0.5-3.3,1.7-3.3,1.7l-1.8,0.9c0,0-2.7,2-1.2,5.2c1.9,3.9,5.5,3.3,5.5,3.3l4.4-2.4l1-0.3
			C100.4,223.5,101.3,224.2,101.7,224.1z"/>
		<path class="st13" d="M92.7,221.8"/>
		<path class="st13" d="M115.9,196.3"/>
	</g>
</g>
<path class="st12" d="M187.1,184.2c0,0,0-2.2-0.6-4.2s-1-2.1-1-2.1s-1.6,0.1-2.8-1.5s-0.5-3.2-0.2-3.8c0.1-0.2-1.5-1.7-1.5-1.7
	s-2.7-1.7-3.7-1.8c-1.1-0.1-1.6,0.2-1.6,0.2s0.1,3.9,2,7.3c1.1,1.8,2,3.9,4.4,5.9C184.7,184.9,187.1,184.2,187.1,184.2z"/>
</svg>
