<?xml version="1.0" encoding="utf-8"?>
<!-- Generator: Adobe Illustrator 25.2.3, SVG Export Plug-In . SVG Version: 6.00 Build 0)  -->
<svg version="1.1" id="Layer_1" xmlns="http://www.w3.org/2000/svg" xmlns:xlink="http://www.w3.org/1999/xlink" x="0px" y="0px"
	 viewBox="0 0 140 200" style="enable-background:new 0 0 140 200;" xml:space="preserve">
<style type="text/css">
	.st0{fill:none;stroke:#FFFFFF;stroke-width:0.2116;stroke-linejoin:bevel;stroke-miterlimit:10;}
	.st1{fill:#CBB8B9;stroke:#FFFFFF;stroke-width:0.2116;stroke-miterlimit:10;}
	.st2{fill:#E4DAD8;stroke:#FFFFFF;stroke-width:0.2116;stroke-miterlimit:10;}
	.st3{fill:#CBB8B9;stroke:#FFFFFF;stroke-width:0.2116;stroke-linejoin:bevel;stroke-miterlimit:10;}
	.st4{fill:#E4DAD8;stroke:#FFFFFF;stroke-width:0.2116;stroke-linejoin:bevel;stroke-miterlimit:10;}
	.st5{fill:none;stroke:#FFFFFF;stroke-width:0.2116;stroke-miterlimit:10;}
	.st6{fill:none;stroke:#9C1B43;stroke-width:0.5307;stroke-miterlimit:10;}
	.st7{fill:none;stroke:#9C1B43;stroke-width:0.2268;stroke-miterlimit:10;}
	.st8{fill:#DD335A;stroke:#FFFFFF;stroke-width:0.2116;stroke-miterlimit:10;}
	.st9{fill:#B71549;stroke:#FFFFFF;stroke-width:0.2268;stroke-miterlimit:10;}
	.st10{fill:#B71549;stroke:#FFFFFF;stroke-width:0.2408;stroke-linejoin:bevel;stroke-miterlimit:10;}
	.st11{fill:#DD335A;stroke:#FFFFFF;stroke-width:0.2116;stroke-linejoin:bevel;stroke-miterlimit:10;}
	.st12{fill:none;stroke:#361D32;stroke-width:2.6531;stroke-linecap:round;stroke-miterlimit:10;}
	.st13{fill:none;stroke:#FFFFFF;stroke-width:0.2268;stroke-miterlimit:10;}
	.st14{clip-path:url(#SVGID_2_);fill:#B79797;stroke:#FFFFFF;stroke-width:0.2116;stroke-miterlimit:10;}
	.st15{fill:none;stroke:#361D32;stroke-width:0.2116;stroke-miterlimit:10;}
	.st16{fill:#B79797;stroke:#FFFFFF;stroke-width:0.2116;stroke-miterlimit:10;}
</style>
<g>
	<g>
		<line class="st0" x1="51.4" y1="186.8" x2="51.3" y2="195"/>
		<polygon class="st1" points="9.1,162.6 51.8,184.2 124.1,147.8 124.3,139.4 84,120.9 9.1,158.7 		"/>
		<polygon class="st2" points="51.7,190.8 139.6,147.3 87.6,122 0.3,164.8 		"/>
		<polygon class="st1" points="9.1,162.6 51.7,184.6 125.6,147.5 125.4,140.2 84,120.9 9.1,158.7 		"/>
		<polygon class="st3" points="9.1,163.3 9.2,155.6 51.7,177.1 51.6,184.6 		"/>
		<polygon class="st3" points="0.4,164.9 0.4,173 51.7,198.8 139.8,154 139.7,147.1 51.7,190.8 		"/>
		<path class="st4" d="M9.3,155.7l42.4,21.6l74-36.9l-42.6-21.6L9.3,155.7z"/>
		<line class="st5" x1="51.7" y1="190.9" x2="51.7" y2="198.7"/>
	</g>
	<path class="st6" d="M88.8,90.5"/>
	<path class="st7" d="M81,84.7"/>
	<path class="st7" d="M76.2,81.2"/>
	<path class="st7" d="M68.4,75.6"/>
	<path class="st6" d="M88.8,90.5"/>
	<path class="st7" d="M81,84.7"/>
	<path class="st7" d="M76.2,81.2"/>
	<path class="st7" d="M68.4,75.6"/>
	<g>
		<polygon class="st8" points="49.1,77.9 76.2,91.4 84.1,86.8 57.5,73.6 		"/>
		<polygon class="st8" points="41,82.2 68,95.6 76.2,91 49.6,77.8 		"/>
		
			<ellipse transform="matrix(8.939818e-02 -0.996 0.996 8.939818e-02 -26.9045 139.172)" class="st9" cx="62.7" cy="84.3" rx="2.5" ry="4.7"/>
		<polygon class="st10" points="67.9,95.9 67.9,161.1 76.2,157 76.2,91.1 		"/>
		<polygon class="st9" points="76.2,91 76.2,156.7 83.9,152.8 83.9,86.6 		"/>
		<polygon class="st11" points="41.1,82.2 41.3,147.4 67.9,161.1 68.3,95.5 		"/>
		<g>
			<path class="st12" d="M40.9,101c-8,1.2,26.8,13,26.8,13l17.4-8.8l5.1,18.6"/>
			<path class="st12" d="M41,128.7c-8,1.2,26.7,13,26.7,13l17.7-8.8l8,15.5"/>
			<line class="st12" x1="85" y1="105.2" x2="85.5" y2="122.7"/>
			<line class="st12" x1="85.4" y1="132.9" x2="87.8" y2="150.5"/>
		</g>
		<line class="st13" x1="59.3" y1="82.5" x2="59.3" y2="85.7"/>
	</g>
	<g>
		<g>
			<g>
				<g>
					<g>
						<g>
							<g>
								<g>
									<g>
										<defs>
											<path id="SVGID_1_" d="M96.3,38.6c2.4,1.5,4.7,8-0.8,14.5C89.9,59.5,74.3,62,74.3,62s6.7,1.2,9.5,2.2
												c2.8,1,27.3,31.7,30,32.8c2,1,12.7,0.1,19.6-7.7s6.3-15.5,5.5-17.5c-0.7-1.6-30.6-24-40-31.2L96.3,38.6"/>
										</defs>
										<clipPath id="SVGID_2_">
											<use xlink:href="#SVGID_1_"  style="overflow:visible;"/>
										</clipPath>
										<path class="st14" d="M139,72.3c0,0,0.3,10.3-6,16.7c-8.5,8.1-18.1,8-19.1,8c-3.2-2.6-26.7-32.3-31-33.9
											c-4.2-1.5-9.1,0-9.1,0l6-2.6l6.3-1.4l14.2,4.8l9,1.1l24.4,2.9L139,72.3z"/>
									</g>
								</g>
							</g>
						</g>
					</g>
				</g>
				<g>
					<path id="XMLID_3_" class="st15" d="M96.3,38.6c2.4,1.5,4.7,8-0.8,14.5C89.9,59.5,74.3,62,74.3,62s6.7,1.2,9.5,2.2
						c2.8,1,27.3,31.7,30,32.8c2,1,12.7,0.1,19.6-7.7s6.3-15.5,5.5-17.5c-0.7-1.6-30.6-24-40-31.2L96.3,38.6"/>
				</g>
			</g>
			<path class="st15" d="M72.8,62c0,0-1.9-7,6.9-17.5s15.3-6.9,16.6-5.9"/>
		</g>
		<path class="st16" d="M84.4,58.7c-0.9-1.7-12-1-16.4,5.6c-4.3,6.6-4,8.4-4,8.4l-1.2,8.5c0,0,2.3,9.3,1.5,0.7
			c-0.8-7.5,5.2-14.7,5.2-14.7s3.9-3,7.5-5.4C79.9,59.8,84.9,59.5,84.4,58.7z"/>
	</g>
</g>
</svg>
