<?xml version="1.0" encoding="utf-8"?>
<!-- Generator: Adobe Illustrator 25.2.1, SVG Export Plug-In . SVG Version: 6.00 Build 0)  -->
<svg version="1.1" id="Layer_1" xmlns="http://www.w3.org/2000/svg" xmlns:xlink="http://www.w3.org/1999/xlink" x="0px" y="0px"
	 viewBox="0 0 189.28 180.89" style="enable-background:new 0 0 189.28 180.89;" xml:space="preserve">
<style type="text/css">
	.st0{fill:#CBB8B9;stroke:#FFFFFF;stroke-width:0.25;stroke-linejoin:bevel;stroke-miterlimit:10;}
	.st1{fill:#CBB8B9;stroke:#FFFFFF;stroke-width:0.25;stroke-miterlimit:10;}
	.st2{fill:#E4DAD8;stroke:#FFFFFF;stroke-width:0.25;stroke-miterlimit:10;}
	.st3{fill:#E4DAD8;stroke:#FFFFFF;stroke-width:0.25;stroke-linejoin:bevel;stroke-miterlimit:10;}
	.st4{fill:none;stroke:#9C1B43;stroke-width:0.5509;stroke-miterlimit:10;}
	.st5{fill:#DD335A;stroke:#FFFFFF;stroke-width:0.25;stroke-miterlimit:10;}
	.st6{fill:#B71549;stroke:#FFFFFF;stroke-width:0.25;stroke-miterlimit:10;}
	.st7{fill:#B71549;stroke:#FFFFFF;stroke-width:0.2777;stroke-miterlimit:10;}
	.st8{fill:none;stroke:#361D32;stroke-width:2.7544;stroke-linecap:round;stroke-miterlimit:10;}
	.st9{clip-path:url(#XMLID_2_);fill:#B79797;stroke:#FFFFFF;stroke-width:0.25;stroke-miterlimit:10;}
	.st10{fill:none;stroke:#361D32;stroke-width:0.2777;stroke-miterlimit:10;}
	.st11{fill:#B79797;stroke:#FFFFFF;stroke-width:0.25;stroke-miterlimit:10;}
</style>
<g>
	<line class="st0" x1="72.95" y1="163.07" x2="72.9" y2="171.54"/>
	<polygon class="st1" points="29.03,138.01 73.31,160.47 148.45,122.63 148.62,113.91 106.75,94.77 29.04,133.93 	"/>
	<polygon class="st1" points="29.06,138.72 29.16,130.22 73.4,151.88 73.23,160.46 	"/>
	<polygon class="st1" points="19.71,140.82 19.72,147.87 73.57,175.04 164.41,129.31 164.27,122.08 73.5,167.24 	"/>
	<path class="st2" d="M29.25,130.18c-0.01,0.03,44.12,21.69,44.13,21.66l75.12-37.93l-44.35-21.44L29.25,130.18z"/>
	<polygon class="st2" points="73.19,167.22 164.46,122.09 110.49,95.86 19.89,140.26 	"/>
	<polygon class="st1" points="29.03,138.01 73.17,160.82 150,121.74 150.16,113.03 106.75,94.77 29.04,133.93 	"/>
	<polygon class="st0" points="29.06,138.72 29.16,130.22 73.17,152.41 73.11,160.88 	"/>
	<polygon class="st0" points="20.02,140.3 19.98,148.78 73.16,175.5 164.71,129.09 164.57,121.86 73.18,167.25 	"/>
	<path class="st3" d="M29.25,130.18c-0.01,0.03,43.83,22.19,43.83,22.19l77.4-39.56l-44.35-21.44L29.25,130.18z"/>
	<line class="st1" x1="73.14" y1="167.47" x2="73.14" y2="175.42"/>
</g>
<path class="st4" d="M111.68,63.08"/>
<path class="st4" d="M103.59,57.13"/>
<path class="st4" d="M98.61,53.48"/>
<path class="st4" d="M90.54,47.55"/>
<path class="st4" d="M111.68,63.08"/>
<path class="st4" d="M103.59,57.13"/>
<path class="st4" d="M98.61,53.48"/>
<path class="st4" d="M90.54,47.55"/>
<g>
	<polygon class="st5" points="70.42,50.09 98.56,64.08 106.88,59.31 79.35,45.57 	"/>
	<polygon class="st5" points="62.13,54.46 90.26,68.44 98.58,63.67 71.05,49.93 	"/>
	<ellipse transform="matrix(0.0894 -0.996 0.996 0.0894 20.5112 135.7539)" class="st6" cx="84.49" cy="56.66" rx="2.5" ry="4.84"/>
	<polygon class="st6" points="90.07,68.63 90.01,136.47 98.57,132.13 98.61,63.73 	"/>
	<polygon class="st7" points="98.66,63.62 98.6,131.82 106.62,127.83 106.66,59.07 	"/>
	<polygon class="st5" points="62.24,54.5 62.43,122.27 90.38,136.18 90.44,68.42 	"/>
	<g>
		<path class="st8" d="M62.03,74.01c-8.32,1.22,27.83,13.52,27.83,13.52l17.97-9.16l5.23,19.3"/>
		<path class="st8" d="M62.21,102.81c-8.32,1.22,27.65,13.52,27.65,13.52l18.33-9.16l8.34,16.15"/>
		<line class="st8" x1="107.83" y1="78.37" x2="108.27" y2="96.58"/>
		<line class="st8" x1="108.19" y1="107.17" x2="110.72" y2="125.36"/>
	</g>
	<line class="st6" x1="81.04" y1="54.87" x2="81.04" y2="58.09"/>
</g>
<g>
	<g>
		<g>
			<defs>
				<path id="XMLID_3_" d="M119.5,9.26c2.45,1.65,4.88,8.34-0.86,15.06s-21.88,9.2-21.88,9.2s6.95,1.22,9.85,2.27
					c2.9,1.06,28.3,32.94,31.08,34.11c2.08,0.99,13.16,0.12,20.44-7.96s6.54-16.15,5.71-18.19c-0.69-1.7-31.77-24.98-41.48-32.3
					L119.5,9.26"/>
			</defs>
			<clipPath id="XMLID_2_">
				<use xlink:href="#XMLID_3_"  style="overflow:visible;"/>
			</clipPath>
			<path class="st9" d="M163.92,44.21c0,0,0.31,10.74-6.24,17.29c-8.79,8.5-18.85,8.33-19.88,8.33c-3.29-2.7-27.73-33.51-32.16-35.1
				c-4.43-1.59-9.48,0-9.48,0l6.2-2.76l6.47-1.42l14.81,5.02l9.35,1.11l25.35,2.97L163.92,44.21z"/>
			<use xlink:href="#XMLID_3_"  style="overflow:visible;fill:none;stroke:#361D32;stroke-width:0.25;stroke-miterlimit:10;"/>
		</g>
		<path class="st10" d="M95.11,33.51c0,0-1.95-7.23,7.17-18.17s15.87-7.19,17.23-6.08"/>
	</g>
	<path class="st11" d="M107.22,30.14c-0.91-1.83-12.55-1.08-17.06,5.83c-4.52,6.91-4.11,8.67-4.11,8.67l-1.26,8.78
		c0,0,2.43,8.51,1.62,0.65c-0.82-7.86,5.43-15.21,5.43-15.21s4.09-3.13,7.85-5.69C102.47,31.26,107.61,30.92,107.22,30.14z"/>
</g>
</svg>
