<?xml version="1.0" encoding="utf-8"?>
<!-- Generator: Adobe Illustrator 25.2.3, SVG Export Plug-In . SVG Version: 6.00 Build 0)  -->
<svg version="1.1" xmlns="http://www.w3.org/2000/svg" xmlns:xlink="http://www.w3.org/1999/xlink" x="0px" y="0px"
	 viewBox="0 0 181.5 296.7" style="enable-background:new 0 0 181.5 296.7;" xml:space="preserve">
<style type="text/css">
	.st0{fill:#DA5B3E;stroke:#FFFFFF;stroke-width:0.2681;stroke-miterlimit:10;}
	.st1{fill:#DA5B3E;stroke:#FFFFFF;stroke-width:0.2681;stroke-miterlimit:9.9976;}
	.st2{fill:#24234C;stroke:#FFFFFF;stroke-width:0.2681;stroke-miterlimit:10;}
	.st3{fill:#24234C;stroke:#FFFFFF;stroke-width:0.2681;stroke-miterlimit:10.0012;}
	.st4{fill:#24234C;stroke:#FFFFFF;stroke-width:0.2679;stroke-miterlimit:10;}
	.st5{fill:#24234C;stroke:#FFFFFF;stroke-width:0.2679;stroke-miterlimit:10.0012;}
	.st6{fill:#DA5B3E;stroke:#FFFFFF;stroke-width:0.2679;stroke-miterlimit:10;}
	.st7{fill:#DA5B3E;stroke:#FFFFFF;stroke-width:0.2679;stroke-miterlimit:9.9976;}
	.st8{fill:none;stroke:#B79797;stroke-width:1.7029;stroke-miterlimit:10;}
	.st9{fill:#B79797;}
	.st10{fill:#B79797;stroke:#B79797;stroke-width:0.5945;stroke-miterlimit:10;}
	.st11{fill:none;stroke:#B79797;stroke-width:0.5945;stroke-miterlimit:10;}
</style>
<g id="Layer_1">
	<g>
		<g>
			<g>
				<path class="st0" d="M145.6,295.5c-3.2-1.3-3.2-3.2-2.9-4.1c0.5-1.5,1.4-3.1,1.3-4.7c-0.1-1.1-0.3-2.4,0-3.7
					c0.1-0.8,0.3-1.4,0.4-2.2c0.1-0.6,0.3-1,0.3-1.7c0-0.8-0.4-1.4-0.5-2.2c-0.1-0.5-0.3-0.9-0.3-1.4c0-0.8-0.1-1.5,0-2.3
					c0.1-0.6,0-1.3,0.3-1.9c0.3-0.5,0.3-0.9,0.5-1.5c0.3-0.6,0.5-1.1,0.5-1.8c0-0.9-0.1-1.8-0.5-2.5c-0.3-0.4-0.3-0.9-0.1-1.1
					c0.1-0.8,0.1-1.4,0.4-2c0.4-0.9,0.5-1.5,0.5-2.4c0-0.4,0.1-0.9-0.3-1.1c-0.3-0.3-0.6-0.5-0.6-0.8s0.1-0.5,0.3-0.8
					c1-2.3,0.5-4.5,0-6.8c-0.3-1,0-2.2,0.3-3.2c0.1-0.6,0-1.3-0.1-1.9c0-0.9,0-1.8-0.1-2.5c-0.1-0.4-0.3-0.8-0.5-1
					c-0.1-0.3-0.1-0.5-0.1-0.6c0.3-0.5,0.5-0.9,0.8-1.4c0.3-0.6,0.1-1.3,0.1-1.9c0-0.4-0.1-3.9-0.1-4.3c0-0.4,0-0.8-0.1-1
					c-0.5-1.1-0.3-2.4-0.6-3.6l7.5,1.8c0.6,1.3,0.8,0.3,1.3,1.5c0.3,0.8,0.1,1.9,0.3,2.5c0,0.4-1.3,5-0.8,5
					c-0.4,0.8-0.6,1.5-0.6,2.3c0,0.9-0.5,2-0.1,2.9c0.3,0.9,0.3,1.9-0.1,2.7c-0.5,1.1-1.3,2.4-1.3,3.7c0,0.4,0.3,0.6,0.3,0.9
					c0,0.6,0.3,1.3,0.4,1.9c0.1,1,0.6,2.2,0.9,3.2c0.4,1.1,0.5,2.4,0.3,3.4c-0.1,0.6-0.3,1.1-0.3,1.9c0,0.6-0.3,1.3-0.4,1.9
					c-0.3,1.1-0.4,2.4-0.4,3.6c0,0.9,0.1,1.5,0.1,2.4c0,0.5-0.3,0.9-0.4,1.5c-0.1,0.6-0.3,1.1-0.3,1.8c0.1,1.9,2,3.9,1.1,5.9
					c-0.3,0.5-0.5,0.9-0.8,1.3c-0.3,0.5-0.4,0.9-0.4,1.1c0,0.8-0.3,1.4-0.5,2.2c-0.3,0.9-0.4,1.7-0.6,2.5c-0.3,0.9-0.4,1.7-0.6,2.5
					c-0.1,0.5-0.4,1-0.5,1.7c-0.1,0.5,0,0.9,0,1.4c0,0.9-0.1,1.8,0.1,2.5c0.1,0.9,0,1,0,1C147.4,297,148.8,296.8,145.6,295.5z"/>
				<path class="st0" d="M144.6,232.2c0.1,2.5,5.1,7.1,7.4,7.8"/>
				<path class="st0" d="M144.1,241.4c-0.3,1.8,5.2,3.8,6,4.7c0.9,0.9,1.1,1.8,1.1,1.8"/>
				<path class="st0" d="M144.5,248.9c-0.3,1,0.9,2.2,2.8,3.6c0.8,0.6,3.4,2.7,3.8,4.1"/>
				<path class="st0" d="M144.7,257.3c-0.8,1,2.7,6,6.4,6.5"/>
				<path class="st0" d="M144.9,266.3c0,0.6,1.5,5,5.5,6.1"/>
				<path class="st0" d="M144.1,277.3c0.6,1.4,4.2,5.3,6,6"/>
				<path class="st0" d="M143.9,284c-0.3,1.4,0.8,3.4,1.5,4.5c0.8,1,1.5,1.3,2.8,1.8"/>
			</g>
			
				<ellipse transform="matrix(0.3109 -0.9504 0.9504 0.3109 -116.7733 299.9433)" class="st1" cx="148.5" cy="230.5" rx="1.5" ry="4.7"/>
		</g>
		<g>
			<g>
				<path class="st2" d="M179,266.8l1-4.5c-0.9,0-1.8,0.3-2.5,0.4c-0.9,0.1-1.8,0.1-2.5,0.1c-0.5,0-0.9,0.1-1.4,0
					c-0.6-0.1-1-0.4-1.7-0.5c-0.9-0.3-1.7-0.4-2.5-0.6c-0.9-0.3-1.7-0.4-2.5-0.6c-0.8-0.3-1.4-0.5-2.2-0.5c-0.5,0-0.9-0.1-1.1-0.4
					c-0.5-0.3-0.9-0.5-1.3-0.8c-1.9-0.9-3.9,1-5.9,1c-0.6,0-1.1-0.1-1.8-0.3c-0.5-0.1-0.9-0.4-1.5-0.4c-0.9,0-1.5,0.1-2.4,0.1
					c-1.1,0-2.4-0.1-3.4-0.4c-0.6-0.1-1.3-0.4-1.9-0.4s-1.1,0-1.9-0.3c-1.1-0.3-2.4-0.1-3.4,0.1c-1,0.4-2.2,0.8-3.2,0.9
					c-0.6,0.1-1.3,0.3-1.9,0.4c-0.4,0-0.6,0.3-0.9,0.3c-1.1,0-2.4-0.9-3.7-1.1c-0.9-0.4-1.9-0.4-2.7-0.1c-0.9,0.4-2-0.1-2.9-0.1
					c-0.8,0-1.5-0.3-2.3-0.6c-0.3-0.1-0.6-0.4-0.9-0.5c-0.3,0-0.5,0-0.9,0c-0.8,0-0.9-0.5-2.9,1.5c-2.2,2-2.8,7-2.8,7
					c1.1-0.4,2.3-0.1,3.4-0.5c0.4-0.1,0.8-0.1,1-0.1c0.4,0,0.8-0.1,1-0.1c0.6,0,1.3-0.1,1.9,0.1c0.5,0.1,0.9,0.5,1.4,0.8
					c0.3,0.1,0.5,0,0.6-0.1c0.4-0.3,0.8-0.4,1-0.5c0.9-0.1,1.8-0.1,2.5-0.1c0.6,0,1.3-0.3,1.9-0.1c1,0.1,2.2,0.5,3.2,0.3
					c2.3-0.5,4.5-1,6.8,0c0.3,0.1,0.5,0.3,0.8,0.3c0.3-0.1,0.5-0.4,0.8-0.6c0.4-0.4,0.8-0.3,1.1-0.3c0.9,0,1.7,0.1,2.4,0.4
					c0.8,0.3,1.4,0.3,2,0.4c0.4,0.1,0.9,0.1,1.1-0.1c0.9-0.4,1.8-0.5,2.5-0.5c0.6,0,1.1,0.3,1.8,0.5c0.5,0.3,0.9,0.4,1.5,0.5
					c0.6,0.3,1.3,0.1,1.9,0.3c0.8,0.1,1.5,0,2.3,0c0.5,0,0.9-0.1,1.4-0.3c0.8-0.1,1.4-0.5,2.2-0.5c0.6,0,1,0.1,1.7,0.3
					c0.8,0.1,1.4,0.3,2.2,0.4c1.1,0.3,2.4,0.1,3.7,0c1.7-0.3,3.2,0.8,4.7,1.1c0.9,0.3,1.7,0.4,2.5-0.1c0.5-0.3,1-0.5,1.5-0.8
					C178.2,267.1,178.6,267.1,179,266.8L179,266.8"/>
				<path class="st2" d="M116.8,266.7c0.9-0.1,2.4-2.5,3.3-4.2c0.4-0.6,0.8-1,1-1.5c0.3-0.5,1.4-1.8,1.4-1.8"/>
				<path class="st2" d="M123.2,266.5c1.7,0.3,2.9-3.9,4.6-6c0.3-0.3,0.4-0.5,0.6-0.6c0.1-0.1,0.9-0.5,0.9-0.5"/>
				<path class="st2" d="M130.5,266.1c0.9,0.3,2.3-0.8,3.7-2.5c0.6-0.8,1.7-2.8,2.7-3.1"/>
				<path class="st2" d="M138.4,265.7c0.6,0,1.3,0,1.9,0.1c0.3,0.1,0.4,0.1,0.8-0.1c0.3-0.3,0.6-0.5,0.9-0.8
					c0.5-0.4,0.9-0.9,1.1-1.4c0.6-0.8,1.1-1.1,1.8-1.9c0.4-0.4,1.4-1.3,1.7-1.8"/>
				<path class="st2" d="M149.5,265.9c0.6-0.3,4.1-3.3,4.5-3.8s0.6-1,0.9-1.4"/>
				<path class="st2" d="M159.6,266.7c1.4-1,1.5-2.4,2.8-3.8c0.5-0.5,1.9-2.3,2.8-2.3"/>
				<path class="st2" d="M166.9,267c1.4,0.3,2.8-1.9,3.8-3.1c0.4-0.5,2.2-1.1,2.2-1.1"/>
				<path class="st2" d="M173.5,268c1.1,0.4,2.2-1.1,3.6-2.7c0.3-0.3,0.9-1.4,1.1-1.8c0.1-0.3,1-0.9,1.1-1"/>
			</g>
			
				<ellipse transform="matrix(0.51 -0.8602 0.8602 0.51 -140.4971 283.6368)" class="st3" cx="178.7" cy="265.1" rx="3.3" ry="1.4"/>
		</g>
	</g>
	<g>
		<g>
			<g>
				<path class="st4" d="M65.2,266.5l1-4.5c-0.9,0-1.8,0.3-2.5,0.4c-0.9,0.1-1.8,0.1-2.5,0.1c-0.5,0-0.9,0.1-1.4,0
					c-0.6-0.1-1-0.4-1.7-0.5c-0.9-0.3-1.7-0.4-2.5-0.6s-1.7-0.4-2.5-0.6c-0.8-0.3-1.4-0.5-2.2-0.5c-0.5,0-0.9-0.1-1.1-0.4
					c-0.5-0.3-0.9-0.5-1.3-0.8c-1.9-0.9-3.9,1-5.9,1c-0.6,0-1.1-0.1-1.8-0.3c-0.5-0.1-0.9-0.4-1.5-0.4c-0.9,0-1.5,0.1-2.4,0.1
					c-1.1,0-2.4-0.1-3.4-0.4c-0.6-0.1-1.3-0.4-1.9-0.4s-1.1,0-1.9-0.3c-1.1-0.3-2.4-0.1-3.4,0.1c-1,0.4-2.2,0.8-3.2,0.9
					c-0.6,0.1-1.3,0.3-1.9,0.4c-0.4,0-0.6,0.3-0.9,0.3c-1.1,0-2.4-0.9-3.7-1.1c-0.9-0.4-1.9-0.4-2.7-0.1c-0.9,0.4-2-0.1-2.9-0.1
					c-0.8,0-1.5-0.3-2.3-0.6c-0.3-0.1-0.6-0.4-0.9-0.5c-0.4-0.3-0.6-0.3-0.9-0.3c-0.8,0-0.9-0.5-2.9,1.5c-2.2,2-2.8,7-2.8,7
					c1.1-0.4,2.3-0.1,3.4-0.5c0.4-0.1,0.8-0.1,1-0.1c0.4,0,0.8-0.1,1-0.1c0.6,0,1.3-0.1,1.9,0.1c0.5,0.1,0.9,0.5,1.4,0.8
					c0.3,0.1,0.5,0,0.6-0.1c0.4-0.3,0.8-0.4,1-0.5c0.9-0.1,1.8-0.1,2.5-0.1c0.6,0,1.3-0.3,1.9-0.1c1,0.1,2.2,0.5,3.2,0.3
					c2.3-0.5,4.5-1,6.7,0c0.3,0.1,0.5,0.3,0.8,0.3c0.3-0.1,0.5-0.4,0.8-0.6c0.4-0.4,0.8-0.3,1.1-0.3c0.9,0,1.7,0.1,2.4,0.4
					c0.8,0.3,1.4,0.3,2,0.4c0.4,0.1,0.9,0.1,1.1-0.1c0.9-0.4,1.8-0.5,2.5-0.5c0.6,0,1.1,0.3,1.8,0.5c0.5,0.3,0.9,0.4,1.5,0.5
					c0.6,0.3,1.3,0.1,1.9,0.3c0.8,0.1,1.5,0,2.3,0c0.5,0,0.9-0.1,1.4-0.3c0.8-0.1,1.4-0.5,2.2-0.5c0.6,0,1,0.1,1.7,0.3
					c0.8,0.1,1.4,0.3,2.2,0.4c1.1,0.3,2.4,0.1,3.7,0c1.7-0.3,3.2,0.8,4.7,1.1c0.9,0.3,1.7,0.4,2.5-0.1c0.5-0.3,1-0.5,1.5-0.8
					C64.4,266.8,64.9,266.8,65.2,266.5L65.2,266.5"/>
				<path class="st4" d="M3,266.3c0.9-0.1,2.4-2.5,3.3-4.2c0.4-0.6,0.8-1,1-1.5c0.3-0.5,1.4-1.8,1.4-1.8"/>
				<path class="st4" d="M9.3,266.1c1.7,0.3,2.9-3.9,4.6-6c0.3-0.3,0.4-0.5,0.6-0.6c0.1-0.1,0.9-0.5,0.9-0.5"/>
				<path class="st4" d="M16.8,265.7c0.9,0.3,2.3-0.8,3.7-2.5c0.6-0.8,1.7-2.8,2.7-3.1"/>
				<path class="st4" d="M24.4,265.6c0.6,0,1.3,0,1.9,0.1c0.3,0.1,0.4,0.1,0.8-0.1c0.3-0.3,0.6-0.5,0.9-0.8c0.5-0.4,0.9-0.9,1.1-1.4
					c0.6-0.8,1.1-1.1,1.8-1.9c0.4-0.4,1.4-1.3,1.7-1.8"/>
				<path class="st4" d="M35.6,265.7c0.6-0.3,4.1-3.3,4.5-3.8s0.6-1,0.9-1.4"/>
				<path class="st4" d="M45.8,266.3c1.4-1,1.5-2.4,2.8-3.8c0.5-0.5,1.9-2.3,2.8-2.3"/>
				<path class="st4" d="M53.1,266.7c1.4,0.3,2.8-1.9,3.8-3.1c0.4-0.5,2.2-1.1,2.2-1.1"/>
				<path class="st4" d="M59.7,267.6c1.1,0.4,2.2-1.1,3.6-2.7c0.3-0.3,0.9-1.4,1.1-1.8c0.1-0.3,1-0.9,1.1-1"/>
			</g>
			<ellipse transform="matrix(0.51 -0.8602 0.8602 0.51 -196.1382 185.7215)" class="st5" cx="64.9" cy="265" rx="3.3" ry="1.4"/>
		</g>
		<g>
			<g>
				<path class="st6" d="M31.8,295.1c-3.2-1.3-3.2-3.2-2.9-4.1c0.5-1.5,1.4-3.1,1.3-4.7c-0.1-1.1-0.3-2.4,0-3.7
					c0.1-0.8,0.3-1.4,0.4-2.2c0.1-0.6,0.3-1,0.3-1.7c0-0.8-0.4-1.4-0.5-2.2c-0.1-0.5-0.3-0.9-0.3-1.4c0-0.8-0.1-1.5,0-2.3
					c0.1-0.6,0-1.3,0.3-1.9c0.3-0.5,0.3-0.9,0.5-1.5c0.3-0.6,0.5-1.1,0.5-1.8c0-0.9-0.1-1.8-0.5-2.5c-0.3-0.4-0.3-0.9-0.1-1.1
					c0.1-0.8,0.1-1.4,0.4-2c0.4-0.9,0.5-1.5,0.5-2.4c0-0.4,0.1-0.9-0.3-1.1c-0.3-0.3-0.6-0.5-0.6-0.8s0.1-0.5,0.3-0.8
					c1-2.3,0.5-4.5,0-6.7c-0.3-1,0-2.2,0.3-3.2c0.1-0.6,0-1.3-0.1-1.9c0-0.9,0-1.8-0.1-2.5c-0.1-0.4-0.3-0.8-0.5-1
					c-0.1-0.3-0.1-0.5-0.1-0.6c0.3-0.5,0.5-0.9,0.8-1.4c0.3-0.6,0.1-1.3,0.1-1.9c0-0.4-0.1-3.9-0.1-4.3c0-0.4,0-0.8-0.1-1
					c-0.5-1.1-0.3-2.4-0.6-3.6l7.5,1.8c0.6,1.3,0.8,0.3,1.3,1.5c0.3,0.8,0.1,1.9,0.3,2.5c0,0.4-1.3,5-0.8,5
					c-0.4,0.8-0.6,1.5-0.6,2.3c0,0.9-0.5,2-0.1,2.9c0.3,0.9,0.3,1.9-0.1,2.7c-0.5,1.1-1.3,2.4-1.3,3.7c0,0.4,0.3,0.6,0.3,0.9
					c0,0.6,0.3,1.3,0.4,1.9c0.1,1,0.6,2.2,0.9,3.2c0.4,1.1,0.5,2.4,0.3,3.4c-0.1,0.6-0.3,1.1-0.3,1.9c0,0.6-0.3,1.3-0.4,1.9
					c-0.3,1.1-0.4,2.4-0.4,3.6c0,0.9,0.1,1.5,0.1,2.4c0,0.5-0.3,0.9-0.4,1.5c-0.1,0.6-0.3,1.1-0.3,1.8c0.1,1.9,2,3.9,1.1,5.9
					c-0.3,0.5-0.5,0.9-0.8,1.3c-0.3,0.5-0.4,0.9-0.4,1.1c0,0.8-0.3,1.4-0.5,2.2c-0.3,0.9-0.4,1.7-0.6,2.5c-0.3,0.9-0.4,1.7-0.6,2.5
					c-0.1,0.5-0.4,1-0.5,1.7c-0.1,0.5,0,0.9,0,1.4c0,0.9-0.1,1.8,0.1,2.5c0.1,0.9,0,1,0,1C33.7,296.6,35,296.5,31.8,295.1z"/>
				<path class="st6" d="M30.8,231.8c0.1,2.5,5.1,7.1,7.4,7.8"/>
				<path class="st6" d="M30.3,241c-0.3,1.8,5.2,3.8,6,4.7c0.9,0.9,1.1,1.8,1.1,1.8"/>
				<path class="st6" d="M30.8,248.6c-0.3,1,0.9,2.2,2.8,3.6c0.8,0.6,3.4,2.7,3.8,4.1"/>
				<path class="st6" d="M30.9,257c-0.8,1,2.7,6,6.4,6.5"/>
				<path class="st6" d="M31.2,266c0,0.6,1.5,5,5.5,6.1"/>
				<path class="st6" d="M30.3,277c0.6,1.4,4.2,5.3,6,6"/>
				<path class="st6" d="M30.2,283.8c-0.3,1.4,0.8,3.4,1.5,4.5c0.9,1,1.5,1.3,2.8,1.8"/>
			</g>
			
				<ellipse transform="matrix(0.3109 -0.9504 0.9504 0.3109 -195.1494 191.5095)" class="st7" cx="34.5" cy="230.3" rx="1.5" ry="4.7"/>
		</g>
	</g>
	<g>
		<g>
			<line class="st8" x1="148.7" y1="165.1" x2="148.7" y2="222.4"/>
			<g>
				<path class="st9" d="M148.7,157.4c-1.3,3.6-3.6,8.1-6,10.9l6-2.2l6,2.2C152.3,165.6,150.1,161,148.7,157.4z"/>
			</g>
		</g>
	</g>
	<g>
		<g>
			<line class="st8" x1="33.8" y1="165.6" x2="33.8" y2="222.8"/>
			<g>
				<path class="st9" d="M33.8,157.9c-1.3,3.6-3.6,8.1-6,10.9l6-2.2l6,2.2C37.4,166.1,35.1,161.5,33.8,157.9z"/>
			</g>
		</g>
	</g>
	<g>
		<rect x="12.9" y="4.6" class="st9" width="30.4" height="30.4"/>
		<rect x="43.4" y="34.5" class="st9" width="30.4" height="30.4"/>
		<rect x="73.8" y="65" class="st10" width="30.4" height="30.4"/>
		<rect x="73.8" y="4.1" class="st11" width="30.4" height="30.4"/>
		<rect x="104" y="34.5" class="st11" width="30.4" height="30.4"/>
		<rect x="134.5" y="65" class="st11" width="30.4" height="30.4"/>
		<rect x="104" y="4.1" class="st9" width="30.4" height="30.4"/>
		<rect x="134.5" y="34.8" class="st9" width="30.4" height="30.4"/>
		<rect x="12.9" y="65" class="st11" width="30.4" height="30.4"/>
		<rect x="43.4" y="95.2" class="st11" width="30.4" height="30.4"/>
		<rect x="73.8" y="125.6" class="st11" width="30.4" height="30.4"/>
		<rect x="73.8" y="64.7" class="st9" width="30.4" height="30.4"/>
		<rect x="43.4" y="125.9" class="st9" width="30.4" height="30.4"/>
		<rect x="12.9" y="95.4" class="st9" width="30.4" height="30.4"/>
		<rect x="12.9" y="65" class="st11" width="91.3" height="91.3"/>
		<rect x="104" y="95.2" class="st9" width="30.4" height="30.4"/>
		<rect x="134.5" y="125.6" class="st9" width="30.4" height="30.4"/>
		<rect x="73.6" y="65" class="st11" width="91.3" height="91.3"/>
		<rect x="12.9" y="4.1" class="st11" width="152.2" height="152.2"/>
	</g>
</g>
<g id="Layer_2">
</g>
</svg>
