<?xml version="1.0" encoding="utf-8"?>
<!-- Generator: Adobe Illustrator 25.2.3, SVG Export Plug-In . SVG Version: 6.00 Build 0)  -->
<svg version="1.1" id="Layer_1" xmlns="http://www.w3.org/2000/svg" xmlns:xlink="http://www.w3.org/1999/xlink" x="0px" y="0px"
	 viewBox="0 0 65.1 65.1" style="enable-background:new 0 0 65.1 65.1;" xml:space="preserve">
<style type="text/css">
	.st0{fill:#B79797;}
	.st1{fill:#B79797;stroke:#B79797;stroke-width:0.25;stroke-miterlimit:10;}
	.st2{fill:none;stroke:#B79797;stroke-width:0.25;stroke-miterlimit:10;}
</style>
<g>
	<rect x="0.6" y="0.8" class="st0" width="12.8" height="12.8"/>
	<rect x="13.4" y="13.4" class="st0" width="12.8" height="12.8"/>
	<rect x="26.2" y="26.2" class="st1" width="12.8" height="12.8"/>
	<rect x="26.2" y="0.6" class="st2" width="12.8" height="12.8"/>
	<rect x="38.9" y="13.4" class="st2" width="12.8" height="12.8"/>
	<rect x="51.7" y="26.2" class="st2" width="12.8" height="12.8"/>
	<rect x="38.9" y="0.6" class="st0" width="12.8" height="12.8"/>
	<rect x="51.7" y="13.5" class="st0" width="12.8" height="12.8"/>
	<rect x="0.6" y="26.2" class="st2" width="12.8" height="12.8"/>
	<rect x="13.4" y="38.9" class="st2" width="12.8" height="12.8"/>
	<rect x="26.2" y="51.7" class="st2" width="12.8" height="12.8"/>
	<rect x="26.2" y="26.1" class="st0" width="12.8" height="12.8"/>
	<rect x="13.4" y="51.8" class="st0" width="12.8" height="12.8"/>
	<rect x="0.6" y="39" class="st0" width="12.8" height="12.8"/>
	<rect x="0.6" y="26.2" class="st2" width="38.4" height="38.4"/>
	<rect x="38.9" y="38.9" class="st0" width="12.8" height="12.8"/>
	<rect x="51.7" y="51.7" class="st0" width="12.8" height="12.8"/>
	<rect x="26.1" y="26.2" class="st2" width="38.4" height="38.4"/>
	<rect x="0.6" y="0.6" class="st2" width="64" height="64"/>
</g>
</svg>
