<?xml version="1.0" encoding="utf-8"?>
<!-- Generator: Adobe Illustrator 25.2.3, SVG Export Plug-In . SVG Version: 6.00 Build 0)  -->
<svg version="1.1" id="Layer_1" xmlns="http://www.w3.org/2000/svg" xmlns:xlink="http://www.w3.org/1999/xlink" x="0px" y="0px"
	 viewBox="0 0 152.1 204.5" style="enable-background:new 0 0 152.1 204.5;" xml:space="preserve">
<style type="text/css">
	.st0{fill:#C2AAA7;stroke:#F4F4F4;stroke-width:0.25;stroke-miterlimit:10;}
	.st1{fill:#E4DAD8;stroke:#F4F4F4;stroke-width:0.25;stroke-miterlimit:10;}
	.st2{fill:#C2AAA7;stroke:#F4F4F4;stroke-width:0.35;stroke-miterlimit:10;}
	.st3{fill:#ED6D47;}
	.st4{fill:#DB4A3A;}
	.st5{fill:#D7432E;}
	.st6{fill:none;stroke:#CB452E;stroke-width:2.996000e-02;stroke-linecap:round;stroke-miterlimit:10;}
	.st7{fill:none;stroke:#CB452E;stroke-width:6.006000e-02;stroke-linecap:round;stroke-miterlimit:10;}
	.st8{fill:none;stroke:#CB452E;stroke-width:9.002000e-02;stroke-linecap:round;stroke-miterlimit:10;}
	.st9{fill:none;stroke:#CB452E;stroke-width:0.12;stroke-linecap:round;stroke-miterlimit:10;}
	.st10{fill:none;stroke:#CB452E;stroke-width:0.1499;stroke-linecap:round;stroke-miterlimit:10;}
	.st11{fill:none;stroke:#CB452E;stroke-width:0.18;stroke-linecap:round;stroke-miterlimit:10;}
	.st12{fill:none;stroke:#CB452E;stroke-width:0.21;stroke-linecap:round;stroke-miterlimit:10;}
	.st13{fill:none;stroke:#CB452E;stroke-width:0.24;stroke-linecap:round;stroke-miterlimit:10;}
	.st14{fill:none;stroke:#CB452E;stroke-width:0.2701;stroke-linecap:round;stroke-miterlimit:10;}
	.st15{fill:none;stroke:#CB452E;stroke-width:0.3;stroke-linecap:round;stroke-miterlimit:10;}
	.st16{fill:none;stroke:#CB452E;stroke-width:0.33;stroke-linecap:round;stroke-miterlimit:10;}
	.st17{fill:none;stroke:#CB452E;stroke-width:0.3599;stroke-linecap:round;stroke-miterlimit:10;}
	.st18{fill:none;stroke:#CB452E;stroke-width:0.39;stroke-linecap:round;stroke-miterlimit:10;}
	.st19{fill:none;stroke:#CB452E;stroke-width:0.42;stroke-linecap:round;stroke-miterlimit:10;}
	.st20{fill:none;stroke:#CB452E;stroke-width:0.45;stroke-linecap:round;stroke-miterlimit:10;}
	.st21{fill:none;stroke:#CB452E;stroke-width:0.4801;stroke-linecap:round;stroke-miterlimit:10;}
	.st22{fill:none;stroke:#CB452E;stroke-width:0.51;stroke-linecap:round;stroke-miterlimit:10;}
	.st23{fill:none;stroke:#CB452E;stroke-width:0.54;stroke-linecap:round;stroke-miterlimit:10;}
	.st24{fill:none;stroke:#CB452E;stroke-width:0.5699;stroke-linecap:round;stroke-miterlimit:10;}
	.st25{fill:none;stroke:#CB452E;stroke-width:0.6;stroke-linecap:round;stroke-miterlimit:10;}
	.st26{fill:none;stroke:#CB452E;stroke-width:0.63;stroke-linecap:round;stroke-miterlimit:10;}
	.st27{fill:none;stroke:#CB452E;stroke-width:0.66;stroke-linecap:round;stroke-miterlimit:10;}
	.st28{fill:none;stroke:#CB452E;stroke-width:0.6901;stroke-linecap:round;stroke-miterlimit:10;}
	.st29{fill:none;stroke:#CB452E;stroke-width:0.72;stroke-linecap:round;stroke-miterlimit:10;}
	.st30{fill:none;stroke:#CB452E;stroke-width:0.75;stroke-linecap:round;stroke-miterlimit:10;}
	.st31{fill:none;stroke:#CB452E;stroke-width:0.7799;stroke-linecap:round;stroke-miterlimit:10;}
	.st32{fill:none;stroke:#CB452E;stroke-width:0.81;stroke-linecap:round;stroke-miterlimit:10;}
	.st33{fill:none;stroke:#CB452E;stroke-width:0.84;stroke-linecap:round;stroke-miterlimit:10;}
	.st34{fill:none;stroke:#CB452E;stroke-width:0.87;stroke-linecap:round;stroke-miterlimit:10;}
	.st35{fill:none;stroke:#CB452E;stroke-width:0.9001;stroke-linecap:round;stroke-miterlimit:10;}
	.st36{fill:none;stroke:#CB452E;stroke-width:0.93;stroke-linecap:round;stroke-miterlimit:10;}
	.st37{fill:#EC6B47;}
	.st38{fill:#EC6A46;}
	.st39{fill:#EB6845;}
	.st40{fill:#EA6645;}
	.st41{fill:#E96544;}
	.st42{fill:#E86343;}
	.st43{fill:#E76143;}
	.st44{fill:#E66042;}
	.st45{fill:#E55E42;}
	.st46{fill:#E55C41;}
	.st47{fill:#E45B40;}
	.st48{fill:#E35940;}
	.st49{fill:#E2573F;}
	.st50{fill:#E1563E;}
	.st51{fill:#E0543E;}
	.st52{fill:#DF523D;}
	.st53{fill:#DE513D;}
	.st54{fill:#DE4F3C;}
	.st55{fill:#DD4D3B;}
	.st56{fill:#DC4C3B;}
	.st57{fill:#C2AAA7;stroke:#F4F4F4;stroke-width:0.3619;stroke-miterlimit:10;}
	.st58{fill:#C2AAA7;stroke:#FFFFFF;stroke-width:0.175;stroke-miterlimit:10;}
	.st59{fill:#E4DAD8;stroke:#F4F4F4;stroke-width:0.175;stroke-miterlimit:10;}
	.st60{fill:#E4DAD8;stroke:#FFFFFF;stroke-width:0.3149;stroke-miterlimit:10;}
	.st61{fill:#C2AAA7;stroke:#FFFFFF;stroke-width:0.1611;stroke-miterlimit:10;}
	.st62{fill:#CFBCBC;stroke:#FFFFFF;stroke-width:0.3149;stroke-miterlimit:10;}
	.st63{fill:#E4DAD8;stroke:#FFFFFF;stroke-width:0.1574;stroke-miterlimit:10;}
	.st64{fill:#E4DAD8;stroke:#FFFFFF;stroke-width:0.1996;stroke-miterlimit:10;}
	.st65{fill:#5E5756;stroke:#FFFFFF;stroke-width:0.1574;stroke-miterlimit:10;}
	.st66{fill:#C2AAA7;}
	.st67{fill:#24234C;}
	.st68{fill:none;stroke:#24234C;stroke-width:0.1574;stroke-miterlimit:10;}
	.st69{fill:none;stroke:#24234C;stroke-width:0.1574;stroke-linecap:round;stroke-miterlimit:10;}
	.st70{fill:#DC3359;}
	.st71{fill:none;stroke:#BF282E;stroke-width:0.3957;stroke-miterlimit:10;}
	.st72{fill:none;stroke:#000000;stroke-width:1.187;stroke-miterlimit:10;}
	.st73{fill:none;stroke:#000000;stroke-width:1.187;stroke-linecap:round;stroke-miterlimit:10;}
	.st74{fill:none;stroke:#24234C;stroke-width:0.6297;stroke-linecap:round;stroke-miterlimit:10;}
	.st75{fill:none;stroke:#24234C;stroke-width:0.5914;stroke-linecap:round;stroke-miterlimit:10;}
	.st76{fill:#E4DAD8;stroke:#FFFFFF;stroke-width:0.3149;stroke-linejoin:bevel;stroke-miterlimit:10;}
	.st77{fill:#CFBCBC;stroke:#FFFFFF;stroke-width:0.3149;stroke-linejoin:bevel;stroke-miterlimit:10;}
</style>
<g>
	<g>
		<ellipse class="st0" cx="31.7" cy="54.7" rx="14.8" ry="6"/>
		<ellipse class="st1" cx="31.9" cy="53" rx="14.8" ry="6.6"/>
	</g>
	<path class="st2" d="M19.8,12.4L21,53c0,0,3.1,3.1,11.5,3.1s10.4-3.2,10.4-3.2V12.4H19.8z"/>
	<g>
		<path class="st3" d="M42.8,52.2c-0.6,1-12.9-1.4-12.9-1.4l-9,1.3V16.4L32.6,21L43,15.8C42.9,15.8,42.8,50.8,42.8,52.2z"/>
	</g>
	<g>
		<g>
			<path class="st3" d="M20.7,26.6c4.8,3.4,9.8,6.3,15.1,8.7c2.1,1,4.2,1.8,6.4,2.5c0.4,0.1,1.1-0.4,0.6-0.6
				c-2.1-0.7-4.2-1.5-6.2-2.4c-5.3-2.4-10.5-5.3-15.3-8.7C21.1,25.9,20.3,26.3,20.7,26.6L20.7,26.6z"/>
		</g>
	</g>
	<g>
		<g>
			<path class="st3" d="M21,28.4c4.8,3.4,9.9,6.3,15.3,8.8c2.1,1,4.2,1.8,6.4,2.5c0.3,0.1,1.1-0.3,0.6-0.6c-2.1-0.7-4.2-1.5-6.3-2.4
				c-5.3-2.4-10.4-5.3-15.1-8.7C21.5,27.8,20.7,28.3,21,28.4L21,28.4z"/>
		</g>
	</g>
	<g>
		<g>
			<path class="st3" d="M20.7,21.8c4.9,3.4,9.9,6.4,15.3,8.8c2.1,0.8,4.1,1.8,6.3,2.4c0.1,0,1-0.3,0.7-0.3c-2.2-0.7-4.3-1.5-6.3-2.5
				c-5.3-2.4-10.4-5.3-15.1-8.7C21.2,21.4,20.5,21.8,20.7,21.8L20.7,21.8z"/>
		</g>
	</g>
	<g>
		<g>
			<path class="st3" d="M20.4,24.9c4.9,3.4,9.9,6.4,15.3,8.8c2.1,0.8,4.1,1.8,6.3,2.4c0.3,0,1-0.3,0.7-0.4c-2.2-0.7-4.3-1.5-6.3-2.5
				C31,30.8,26,27.8,21.2,24.5C21.1,24.5,20.3,24.9,20.4,24.9L20.4,24.9z"/>
		</g>
	</g>
	<g>
		<g>
			<path class="st3" d="M20.7,20.1c4.8,3.4,9.8,6.3,15.1,8.7c2.1,1,4.2,1.8,6.4,2.5c0.3,0,1.1-0.3,0.7-0.4c-2.1-0.7-4.2-1.5-6.2-2.4
				c-5.3-2.4-10.5-5.3-15.3-8.8C21.2,19.6,20.4,20,20.7,20.1L20.7,20.1z"/>
		</g>
	</g>
	<g>
		<g>
			<path class="st3" d="M20.1,38.8c4.9,3.4,10.1,6.3,15.5,8.8c2.1,1,4.1,1.8,6.3,2.5c0.4,0.1,1.1-0.4,0.6-0.6
				c-2.1-0.7-4.1-1.5-6-2.4C31,44.6,25.9,41.7,21,38.3C20.5,38.1,19.7,38.5,20.1,38.8L20.1,38.8z"/>
		</g>
	</g>
	<g>
		<g>
			<path class="st3" d="M21,23.8c4.9,3.4,9.9,6.4,15.3,8.8c2.1,0.8,4.1,1.8,6.3,2.4c0.3,0,1-0.3,0.7-0.4C41,33.9,38.9,33,36.9,32
				c-5.3-2.4-10.4-5.3-15.1-8.7C21.7,23.2,20.8,23.6,21,23.8L21,23.8z"/>
		</g>
	</g>
	<g>
		<g>
			<path class="st3" d="M21,33.4c5.6-2,10.9-4.3,16-7.4c2-1.1,4.1-2.4,5.9-3.8c0.1-0.1-0.7,0-0.8,0.1c-1.7,1.4-3.6,2.5-5.5,3.6
				c-5,2.9-10.4,5.3-15.8,7.3C20,33.6,20.5,33.6,21,33.4L21,33.4z"/>
		</g>
	</g>
	<g>
		<g>
			<path class="st3" d="M21.5,35.1c5.6-2,10.9-4.3,16.1-7.4c2-1.1,3.9-2.4,5.7-3.8c0.4-0.3-0.6-0.3-0.7-0.1
				c-1.7,1.4-3.6,2.5-5.6,3.6c-5,2.9-10.4,5.3-15.8,7.3C20.5,35,21.1,35.3,21.5,35.1L21.5,35.1z"/>
		</g>
	</g>
	<g>
		<g>
			<path class="st3" d="M21.4,37.4c5.5-2,10.9-4.3,16-7.3c2-1.1,4.1-2.4,5.9-3.9c0.4-0.3-0.6-0.1-0.7,0c-1.7,1.4-3.6,2.5-5.5,3.6
				c-5,2.9-10.5,5.5-16,7.4C20.4,37.2,21.1,37.4,21.4,37.4L21.4,37.4z"/>
		</g>
	</g>
	<g>
		<g>
			<path class="st3" d="M21.2,44.6c5.6-2,10.9-4.3,16.1-7.4c2-1.1,3.9-2.4,5.7-3.8c0.4-0.3-0.6-0.3-0.7-0.1
				c-1.7,1.4-3.6,2.5-5.6,3.6c-5,2.9-10.4,5.3-15.8,7.3C20.4,44.5,21,44.8,21.2,44.6L21.2,44.6z"/>
		</g>
	</g>
	<g>
		<g>
			<path class="st3" d="M21.1,48c5.5-2,10.9-4.3,16-7.3c2-1.1,4.1-2.4,5.9-3.9c0.4-0.3-0.6-0.1-0.7,0c-1.7,1.4-3.6,2.5-5.5,3.6
				c-5,2.9-10.5,5.5-16,7.4C20.1,48,20.7,48.1,21.1,48L21.1,48z"/>
		</g>
	</g>
	<g>
		<g>
			<path class="st3" d="M21.7,49.8c5.6-2,10.9-4.3,16.1-7.4c2-1.1,3.9-2.4,5.7-3.8c0.4-0.4-0.3-0.7-0.6-0.4
				c-1.7,1.4-3.6,2.5-5.6,3.6c-5,2.9-10.4,5.3-15.8,7.3C21,49.3,21.1,50,21.7,49.8L21.7,49.8z"/>
		</g>
	</g>
	<g>
		<g>
			<path class="st3" d="M21.7,51.9c5.6-2,10.9-4.5,16.1-7.4c2-1.1,3.9-2.4,5.7-3.8c0.4-0.3-0.6-0.4-0.7-0.1
				c-1.5,1.3-3.8,2.5-5.6,3.6c-5,2.9-10.4,5.3-15.8,7.3C20.7,51.8,21.2,52.1,21.7,51.9L21.7,51.9z"/>
		</g>
	</g>
	<g>
		<g>
			<path class="st3" d="M20.7,38.3c5.6-2,10.9-4.3,16.1-7.4c2-1.1,3.9-2.4,5.7-3.8c0.4-0.4-0.3-0.7-0.6-0.4
				c-1.7,1.4-3.6,2.5-5.6,3.6c-5,2.9-10.4,5.3-15.8,7.3C19.8,37.9,20.1,38.5,20.7,38.3L20.7,38.3z"/>
		</g>
	</g>
	<g>
		<g>
			<path class="st3" d="M21.4,39.6c5.5-2,10.9-4.3,16-7.3c2-1.1,4.1-2.4,5.9-3.9c0.4-0.3-0.6-0.1-0.7,0c-1.7,1.4-3.6,2.5-5.5,3.6
				c-5,2.9-10.5,5.5-16,7.4C20.4,39.6,21,39.7,21.4,39.6L21.4,39.6z"/>
		</g>
	</g>
	<g>
		<g>
			<path class="st3" d="M21.2,42c5.6-2,10.9-4.3,16.1-7.4c2-1.1,3.9-2.4,5.7-3.8c0.4-0.3-0.4-0.4-0.7-0.1c0.1-0.1-0.3,0.1-0.3,0.3
				c-0.4,0.3-0.7,0.6-1.1,0.8c-1.4,1-2.8,1.8-4.2,2.7c-5,2.9-10.4,5.3-15.8,7.3C20.3,41.8,20.8,42.1,21.2,42L21.2,42z"/>
		</g>
	</g>
	<g>
		<g>
			<path class="st3" d="M21.9,30.6c5.3-2,10.5-4.2,15.3-7.4c1.7-1.1,3.5-2.4,4.9-3.9c0.4-0.4-0.4-0.6-0.8-0.3
				c-1.3,1.3-3.1,2.5-4.6,3.6c-4.6,3.1-9.7,5.5-14.8,7.3C21.2,30.2,21.4,30.8,21.9,30.6L21.9,30.6z"/>
		</g>
	</g>
	<g>
		<g>
			<path class="st3" d="M20.8,32c5.5-2,10.9-4.3,16-7.3c2-1.1,4.1-2.4,5.9-3.9c0.4-0.4-0.3-0.7-0.6-0.4c-1.7,1.4-3.6,2.5-5.5,3.6
				c-5,2.9-10.4,5.5-16,7.3C20.1,31.8,20.3,32.3,20.8,32L20.8,32z"/>
		</g>
	</g>
	<g>
		<g>
			<path class="st3" d="M20.8,34.3c5.6-2,10.9-4.3,16.1-7.4c2-1.1,3.9-2.4,5.7-3.8c0.4-0.3-0.6-0.3-0.7-0.1
				c-1.7,1.4-3.6,2.5-5.6,3.6c-5,2.9-10.4,5.3-15.8,7.3C19.8,34.1,20.4,34.4,20.8,34.3L20.8,34.3z"/>
		</g>
	</g>
	<g>
		<g>
			<path class="st3" d="M21,29.8c5.6-2,10.9-4.3,16.1-7.4c2-1.1,3.9-2.4,5.7-3.8c0.4-0.3-0.6-0.1-0.7-0.1c-1.7,1.4-3.6,2.5-5.6,3.6
				c-5,2.9-10.4,5.3-15.8,7.3C20,29.7,20.5,29.9,21,29.8L21,29.8z"/>
		</g>
	</g>
	<g>
		<g>
			<path class="st3" d="M20.8,32c5.5-2,10.9-4.3,16-7.3c2-1.1,4.1-2.4,5.9-3.9c0.4-0.3-0.6-0.1-0.7,0c-1.7,1.4-3.6,2.5-5.5,3.6
				c-5,2.9-10.5,5.5-16,7.4C19.8,32,20.4,32.2,20.8,32L20.8,32z"/>
		</g>
	</g>
	<g>
		<g>
			<path class="st3" d="M21.2,40c5.6-2,10.9-4.3,16.1-7.4c2-1.1,3.9-2.4,5.7-3.8c0.4-0.3-0.6-0.3-0.7-0.1c-1.7,1.4-3.6,2.5-5.6,3.6
				c-5,2.9-10.4,5.3-15.8,7.3C20.3,39.9,20.8,40.2,21.2,40L21.2,40z"/>
		</g>
	</g>
	<g>
		<g>
			<path class="st3" d="M21.2,43.1c5.5-2,10.9-4.3,16-7.3c2-1.1,4.1-2.4,5.9-3.9c0.4-0.4-0.3-0.7-0.6-0.4c-1.7,1.4-3.6,2.5-5.5,3.6
				c-5,2.9-10.4,5.5-16,7.3C20.5,42.8,20.7,43.4,21.2,43.1L21.2,43.1z"/>
		</g>
	</g>
	<g>
		<g>
			<path class="st3" d="M21.2,45.5c5.6-2,10.9-4.3,16.1-7.4c2-1.1,3.9-2.4,5.7-3.8c0.4-0.3-0.6-0.3-0.7-0.1
				c-1.7,1.4-3.6,2.5-5.6,3.6c-5,2.9-10.4,5.3-15.8,7.3C20.4,45.3,21,45.6,21.2,45.5L21.2,45.5z"/>
		</g>
	</g>
	<g>
		<g>
			<path class="st3" d="M21,49.4c5.6-2,10.9-4.3,16.1-7.4c2-1.1,3.9-2.4,5.7-3.8c0.4-0.4-0.3-0.7-0.6-0.4c-1.7,1.4-3.6,2.5-5.6,3.6
				c-5,2.9-10.4,5.3-15.8,7.3C20.3,48.8,20.4,49.5,21,49.4L21,49.4z"/>
		</g>
	</g>
	<g>
		<g>
			<path class="st3" d="M20.4,30.6c4.8,3.4,9.8,6.3,15.3,8.7c2.1,1,4.2,1.8,6.4,2.5c0.4,0.1,1.1-0.6,0.6-0.7
				c-2.1-0.7-4.2-1.5-6.2-2.4C31.2,36.3,26,33.4,21.2,30C20.8,29.8,20,30.2,20.4,30.6L20.4,30.6z"/>
		</g>
	</g>
	<g>
		<g>
			<path class="st3" d="M20.7,32.3c4.9,3.4,9.9,6.4,15.3,8.8c2.1,1,4.2,1.8,6.3,2.4c0.3,0,1-0.3,0.7-0.3c-2.1-0.7-4.2-1.5-6.3-2.5
				c-5.3-2.4-10.4-5.3-15.1-8.7C21.4,31.9,20.5,32.3,20.7,32.3L20.7,32.3z"/>
		</g>
	</g>
	<g>
		<g>
			<path class="st3" d="M20.4,36.8c4.9,3.4,10.1,6.4,15.4,9c2,1,3.9,1.8,5.9,2.5c0.4,0.1,1.1-0.4,0.6-0.6c-2.1-0.7-4.1-1.5-5.9-2.5
				c-5.3-2.5-10.4-5.6-15.3-9C20.7,36.1,19.8,36.5,20.4,36.8L20.4,36.8z"/>
		</g>
	</g>
	<g>
		<g>
			<path class="st3" d="M20.7,25.5c4.9,3.4,9.9,6.4,15.3,8.8c2.1,0.8,4.1,1.8,6.3,2.4c0.1,0,1-0.3,0.7-0.3c-2.2-0.7-4.3-1.5-6.3-2.5
				c-5.3-2.4-10.4-5.3-15.1-8.7C21.4,25,20.5,25.5,20.7,25.5L20.7,25.5z"/>
		</g>
	</g>
	<g>
		<g>
			<path class="st3" d="M20.8,21c4.8,3.4,9.8,6.3,15.1,8.7c2.1,1,4.2,1.8,6.4,2.5c0.4,0.1,1.1-0.4,0.6-0.6c-2.1-0.7-4.2-1.5-6.2-2.4
				c-5.3-2.4-10.5-5.3-15.3-8.7C21.2,20.3,20.4,20.7,20.8,21L20.8,21z"/>
		</g>
	</g>
	<g>
		<g>
			<path class="st3" d="M20.7,24.1c4.8,3.4,9.8,6.3,15.1,8.7c2.1,1,4.2,1.8,6.4,2.5c0.4,0.1,1.1-0.6,0.6-0.7
				c-2.1-0.7-4.2-1.5-6.2-2.4c-5.3-2.4-10.5-5.3-15.3-8.7C21,23.4,20.1,23.8,20.7,24.1L20.7,24.1z"/>
		</g>
	</g>
	<g>
		<g>
			<path class="st4" d="M20.7,19.2c4.8,3.4,9.8,6.3,15.1,8.7c2.1,1,4.2,1.8,6.4,2.5c0.3,0,1.1-0.3,0.7-0.4c-2.1-0.7-4.2-1.5-6.2-2.4
				c-5.3-2.4-10.5-5.5-15.3-8.8C21.4,18.7,20.5,19.2,20.7,19.2L20.7,19.2z"/>
		</g>
	</g>
	<g>
		<g>
			<path class="st3" d="M20.3,37.8c5,3.4,10.2,6.3,15.7,8.8c2,1,4.1,1.8,6.2,2.5c0.3,0.1,1.1-0.4,0.6-0.6c-2.1-0.7-4.2-1.5-6.2-2.5
				c-5.3-2.5-10.5-5.5-15.4-8.7C20.7,37.1,19.8,37.5,20.3,37.8L20.3,37.8z"/>
		</g>
	</g>
	<g>
		<g>
			<path class="st4" d="M21.1,22.8c4.8,3.4,9.8,6.3,15.1,8.7c2.1,1,4.2,1.8,6.4,2.5c0.3,0,1.1-0.3,0.7-0.4c-2.1-0.7-4.2-1.5-6.2-2.4
				c-5.3-2.4-10.5-5.3-15.3-8.8C21.8,22.2,21,22.7,21.1,22.8L21.1,22.8z"/>
		</g>
	</g>
	<g>
		<g>
			<path class="st3" d="M21,32.7c5.5-2,10.9-4.3,16-7.3c2-1.1,4.1-2.4,5.9-3.9c0.4-0.4-0.3-0.7-0.6-0.4c-1.7,1.4-3.6,2.5-5.5,3.6
				c-5,2.9-10.4,5.5-16,7.3C20.3,32.3,20.4,33,21,32.7L21,32.7z"/>
		</g>
	</g>
	<g>
		<g>
			<path class="st3" d="M21.7,34c5.7-2,11.3-4.3,16.5-7.3c0.3-0.1,5.7-3.5,5-3.9c-0.3-0.1-1,0.3-0.8,0.3c0.3,0.1-1,1.3-1.1,1.3
				c-1.3,1-2.7,1.8-4.2,2.5c-5,2.8-10.4,5-15.7,7C20.7,34,21.2,34.1,21.7,34L21.7,34z"/>
		</g>
	</g>
	<g>
		<g>
			<path class="st3" d="M21.4,36.5c5.6-2,10.9-4.3,16.1-7.4c2-1.1,3.9-2.4,5.7-3.8c0.4-0.4-0.3-0.7-0.6-0.4
				c-1.7,1.4-3.6,2.5-5.6,3.6c-5,2.9-10.4,5.3-15.8,7.3C20.7,36.1,20.8,36.8,21.4,36.5L21.4,36.5z"/>
		</g>
	</g>
	<g>
		<g>
			<path class="st3" d="M21.4,43.7c5.6-2,10.9-4.3,16.1-7.4c2-1.1,3.9-2.4,5.7-3.8c0.4-0.3-0.6-0.3-0.7-0.1
				c-1.7,1.4-3.6,2.5-5.6,3.6c-5,2.9-10.4,5.3-15.8,7.3C20.4,43.5,21,43.8,21.4,43.7L21.4,43.7z"/>
		</g>
	</g>
	<g>
		<g>
			<path class="st3" d="M22.1,45.2c5.6-2,11.3-4.2,16.5-7.3c0.6-0.3,5.7-3.1,4.6-4.2c-0.3-0.1-1.1,0.1-0.8,0.3
				c0.8,0.8-4.8,3.8-5.2,4.1c-4.9,2.7-10.2,4.8-15.5,6.7C21.1,45.1,21.7,45.3,22.1,45.2L22.1,45.2z"/>
		</g>
	</g>
	<g>
		<g>
			<path class="st3" d="M21.2,47.2c5.6-2,10.9-4.3,16.1-7.4c2-1.1,3.9-2.4,5.7-3.8c0.4-0.3-0.6-0.3-0.7-0.1
				c-1.7,1.4-3.6,2.5-5.6,3.6c-5,2.9-10.4,5.3-15.8,7.3C20.3,47,20.8,47.3,21.2,47.2L21.2,47.2z"/>
		</g>
	</g>
	<g>
		<g>
			<path class="st4" d="M21.7,50.9c5.6-2,10.9-4.5,16.1-7.4c2-1.1,3.9-2.4,5.7-3.8c0.4-0.3-0.6-0.3-0.7-0.1
				c-1.7,1.4-3.6,2.5-5.6,3.6c-5,2.9-10.4,5.3-15.8,7.3C20.7,50.8,21.2,51.1,21.7,50.9L21.7,50.9z"/>
		</g>
	</g>
	<g>
		<g>
			<path class="st3" d="M20.7,37.4c5.6-2,10.9-4.3,16.1-7.4c2-1.1,3.9-2.4,5.7-3.8c0.4-0.4-0.3-0.7-0.6-0.4
				c-1.7,1.4-3.6,2.5-5.6,3.6c-5,2.9-10.4,5.3-15.8,7.3C20,36.9,20.1,37.5,20.7,37.4L20.7,37.4z"/>
		</g>
	</g>
	<g>
		<g>
			<path class="st3" d="M21.5,38.8c5.6-2,10.9-4.3,16.1-7.4c2-1.1,3.9-2.4,5.7-3.8c0.4-0.3-0.6-0.3-0.7-0.1C40.9,28.9,39,30,37,31.1
				c-5,2.9-10.4,5.3-15.8,7.3C20.5,38.6,21.1,38.9,21.5,38.8L21.5,38.8z"/>
		</g>
	</g>
	<g>
		<g>
			<path class="st3" d="M21.2,41c5.6-2,10.9-4.3,16.1-7.4c2-1.1,3.9-2.4,5.7-3.8c0.4-0.3-0.6-0.3-0.7-0.1c-1.7,1.4-3.6,2.5-5.6,3.6
				c-5,2.9-10.4,5.3-15.8,7.3C20.4,40.9,21,41.1,21.2,41L21.2,41z"/>
		</g>
	</g>
	<g>
		<g>
			<path class="st3" d="M22.1,29.5c5.3-2,10.5-4.2,15.3-7.4c1.7-1.1,3.5-2.4,4.9-3.8c0.4-0.4-0.6-0.4-0.7-0.1
				c-1.4,1.4-3.1,2.5-4.8,3.6c-4.6,3.1-9.8,5.5-15,7.3C21.1,29.4,21.7,29.7,22.1,29.5L22.1,29.5z"/>
		</g>
	</g>
	<g>
		<g>
			<path class="st3" d="M21.1,30.9c5.6-2,10.9-4.3,16-7.4c2-1.1,4.1-2.4,5.9-3.8c0.1-0.1-0.7-0.1-0.8,0.1c-1.7,1.4-3.6,2.5-5.5,3.6
				c-5,2.9-10.4,5.3-15.8,7.3C20.1,30.9,20.7,31.1,21.1,30.9L21.1,30.9z"/>
		</g>
	</g>
	<g>
		<g>
			<path class="st4" d="M20.8,33.4c5.6-2,10.9-4.3,16-7.3c2-1.1,4.1-2.4,5.9-3.8c0.4-0.4-0.3-0.7-0.6-0.4c-1.7,1.4-3.6,2.5-5.5,3.6
				c-5,2.9-10.4,5.5-16,7.3C20.1,33,20.3,33.6,20.8,33.4L20.8,33.4z"/>
		</g>
	</g>
	<g>
		<g>
			<path class="st4" d="M20.8,31.3c5.6-2,10.9-4.3,16.1-7.4c2-1.1,3.9-2.4,5.7-3.8c0.4-0.4-0.3-0.7-0.6-0.4
				c-1.7,1.4-3.6,2.5-5.6,3.6c-5,2.9-10.4,5.3-15.8,7.3C20.1,30.9,20.3,31.5,20.8,31.3L20.8,31.3z"/>
		</g>
	</g>
	<g>
		<g>
			<path class="st4" d="M21.4,39c5.6-2,10.9-4.3,16.1-7.4c2-1.1,3.9-2.4,5.7-3.8c0.4-0.3-0.6-0.3-0.7-0.1c-1.7,1.4-3.6,2.5-5.6,3.6
				c-5,2.9-10.4,5.3-15.8,7.3C20.4,39,21,39.2,21.4,39L21.4,39z"/>
		</g>
	</g>
	<g>
		<g>
			<path class="st3" d="M21.4,42c5.6-2,10.9-4.3,16-7.4c2-1.1,4.1-2.4,5.9-3.8c0.1-0.1-0.7,0-0.8,0.1c-1.7,1.4-3.6,2.5-5.5,3.6
				c-5,2.9-10.4,5.3-15.8,7.3C20.5,42,21.1,42.1,21.4,42L21.4,42z"/>
		</g>
	</g>
	<g>
		<g>
			<path class="st3" d="M21.2,44.6c5.5-2,10.9-4.3,16-7.3c2-1.1,4.1-2.4,5.9-3.9c0.4-0.4-0.3-0.7-0.6-0.4c-1.7,1.4-3.6,2.5-5.5,3.6
				c-5,2.9-10.4,5.5-16,7.3C20.5,44.2,20.7,44.8,21.2,44.6L21.2,44.6z"/>
		</g>
	</g>
	<g>
		<g>
			<path class="st4" d="M21.1,48.4c5.6-2,10.9-4.3,16.1-7.4c2-1.1,3.9-2.4,5.7-3.8c0.4-0.4-0.3-0.7-0.6-0.4
				c-1.7,1.4-3.6,2.5-5.6,3.6c-5,2.9-10.4,5.3-15.8,7.3C20.4,48,20.5,48.6,21.1,48.4L21.1,48.4z"/>
		</g>
	</g>
	<g>
		<g>
			<path class="st4" d="M20.4,29.5c4.8,3.4,9.8,6.3,15.1,8.7c2.1,1,4.2,1.8,6.4,2.5c0.3,0.1,1.1-0.3,0.7-0.4
				c-2.1-0.7-4.2-1.5-6.2-2.4c-5.3-2.4-10.5-5.3-15.3-8.7C21.1,29,20.3,29.4,20.4,29.5L20.4,29.5z"/>
		</g>
	</g>
	<g>
		<g>
			<path class="st3" d="M21,31.5c4.9,3.4,9.9,6.4,15.3,8.8c2.1,0.8,4.2,1.8,6.3,2.4c0.3,0.1,1.1-0.4,0.6-0.6
				c-2.1-0.7-4.3-1.5-6.3-2.5c-5.3-2.4-10.4-5.3-15.1-8.7C21.4,30.9,20.5,31.2,21,31.5L21,31.5z"/>
		</g>
	</g>
	<g>
		<g>
			<path class="st4" d="M20.4,35.8c4.9,3.4,10.2,6.4,15.5,9c2,1,4.1,1.8,6,2.5c0.4,0.1,1.1-0.4,0.6-0.6c-2.1-0.7-4.2-1.5-6.2-2.5
				c-5.3-2.5-10.5-5.6-15.4-9C20.8,35.1,20,35.5,20.4,35.8L20.4,35.8z"/>
		</g>
	</g>
	<g>
		<g>
			<path class="st3" d="M20.8,27.7c0,0.1-0.1,0.3-0.1,0.3s0.1,0,0.3,0c0.3,0,0.6-0.1,0.7-0.1c0.6-0.1,1-0.3,1.5-0.6
				c1-0.4,2-0.8,2.9-1.3c2-0.8,3.8-1.8,5.7-2.9l5.6-3.1c1-0.6,1.8-1,2.8-1.5c0.4-0.3,1-0.6,1.4-0.8c0.3-0.1,0.4-0.3,0.6-0.4
				c0.1-0.1,0.4-0.4,0.1-0.6l0,0l0,0l0,0c0.1,0,0.3,0.1,0.3,0.4c0,0.1-0.1,0.3-0.1,0.4c-0.1,0.3-0.3,0.4-0.6,0.6
				c-0.4,0.4-0.8,0.7-1.3,1.1c-0.8,0.7-1.8,1.3-2.7,1.8c-1.8,1.1-3.8,2.1-5.7,2.9c-2,1-3.9,1.8-5.9,2.7c-1,0.4-2,0.8-2.9,1.1
				c-0.6,0.1-1,0.3-1.5,0.4c-0.3,0-0.6,0.1-0.8,0.1c-0.1,0-0.3,0-0.4-0.1C20.7,27.8,20.8,27.7,20.8,27.7
				C20.8,27.6,20.8,27.6,20.8,27.7C21,27.7,21,27.7,20.8,27.7L20.8,27.7L20.8,27.7z"/>
		</g>
		<g>
			<g>
				<path class="st3" d="M31.6,33.7c0,0.3,0,0.6,0.1,0.7c0,0.1,0,0.3,0,0.6v0.1l0,0v0.1l0,0l0,0l0,0l0,0l0,0c0,0,0,0,0.1,0l0,0
					c0,0,0,0,0.1,0l0,0H32l0,0h0.1l0,0c0,0,0,0,0.1,0l0,0c0,0,0,0,0.1,0l0,0c0,0,0,0,0.1,0l0,0l0,0l0,0l0,0c0,0,0,0,0-0.1V35
					c0-0.1-0.1-0.4-0.1-0.6s0-0.3,0-0.4l0,0c0,0,0,0-0.1,0h-0.1C31.9,33.7,31.9,33.7,31.6,33.7C31.7,33.7,31.7,33.7,31.6,33.7
					l-0.1,0.1l0,0c0,0,0,0,0,0.1c0,0.3,0.1,0.7,0.1,1c0,0.1,0,0.1,0,0.3c0,0,0,0.1,0.1,0.1c0,0,0,0,0.1,0H32c0.1,0,0.3,0,0.4-0.1
					c0,0,0,0,0.1,0s0.1-0.1,0.3-0.1l0,0c0-0.1,0-0.1,0-0.3c0-0.1,0-0.1,0-0.3c0-0.3,0-0.7-0.1-1v-0.1l0,0c0,0,0,0-0.1,0h-0.1h-0.1
					h-0.1c0,0-0.1,0-0.1,0.1C31.7,33.6,31.7,33.6,31.6,33.7C31.6,33.6,31.6,33.7,31.6,33.7L31.6,33.7z"/>
			</g>
			<path class="st3" d="M32.2,33.6c0,0.3,0.1,0.6,0.1,0.8c0,0.3,0,0.6,0,0.8v0.1l0,0c0,0-0.1,0-0.3,0c-0.1,0-0.1,0-0.1-0.1
				c-0.1-0.1-0.1-0.1-0.1-0.3c0-0.1,0-0.3-0.1-0.4c0-0.3,0-0.6,0-0.8c0,0,0-0.1,0.1-0.1c0,0,0.1,0,0.1,0.1c0.1,0.3,0.1,0.6,0.3,0.7
				c0,0.1,0,0.3,0.1,0.3v0.1l0,0h-0.1l0,0l0,0c0-0.1,0-0.4,0-0.7s0-0.6,0-0.7c0,0,0-0.1,0.1-0.1C32.2,33.4,32.2,33.4,32.2,33.6z"/>
		</g>
		<g>
			<g>
				<path class="st3" d="M21.2,50.7c-0.7,1,1.3,0.4,1.5,0.4c1.8-0.4,3.6-1.3,5.5-2.1c4.5-2,9-4.1,13-6.9C41.5,42,44,40.3,43,40
					c-0.3-0.1-1,0.3-0.8,0.3c0.7,0.3-1.1,1.5-1.3,1.7c-1.5,1.1-3.2,2-4.9,2.8c-3.9,2.1-7.8,4.1-11.9,5.6c-0.1,0-2.5,1-2,0.1
					C22.2,50.4,21.4,50.4,21.2,50.7L21.2,50.7z"/>
			</g>
		</g>
	</g>
	<g>
		<g>
			<g>
				<path class="st5" d="M41.8,24.5c0.8,1.4-4.3,0.8-4.9,0.7c-2.8-0.6-5.6-1.5-8-2.9c-2.1-1.1-3.9-2.5-5.7-4.1
					c-0.1-0.1-2.7-2.7-2.1-2.8c0.6-0.3-0.3-0.1-0.6-0.1c-1.3,0.6,1.1,2.7,1.5,3.1c2.4,2.1,5,3.9,8,5.3c2.9,1.4,6.3,2.4,9.7,2.2
					c0.6,0,3.9-0.3,3.1-1.5C42.7,24.1,41.8,24.3,41.8,24.5L41.8,24.5z"/>
			</g>
		</g>
		<g>
			<path class="st6" d="M42.4,25.2c1.1,1.5-4.9,2.1-10.9-0.3c-6-2.5-12-8.1-10.8-8.5"/>
			<g>
				<path class="st5" d="M42,25.3c0.7,1.1-4.5,0.8-4.9,0.7c-2.8-0.4-5.3-1.4-7.8-2.7c-2.1-1.1-4.1-2.5-5.9-4.1
					c-0.6-0.6-1.3-1.1-1.7-1.8c-0.1-0.1-0.3-0.4-0.4-0.7c-0.1-0.1,0-0.4-0.1-0.3c0.6-0.3,0-0.6-0.4-0.4c-1.4,0.7,1,2.7,1.5,3.2
					c2.2,2.1,4.9,3.9,7.8,5.2c3.1,1.4,6.4,2.4,9.8,2.2c0.7,0,4.1-0.3,3.1-1.8C42.7,24.8,41.7,25,42,25.3L42,25.3z"/>
			</g>
		</g>
		<g>
			<path class="st7" d="M42.4,26c1.1,1.5-5,2.2-10.9-0.1c-6-2.5-12-8-10.6-8.4"/>
			<g>
				<path class="st5" d="M42,26.2c0.8,1.4-4.2,1-4.9,1c-2.8-0.4-5.5-1.3-7.8-2.7c-2.1-1.1-4.1-2.4-5.7-3.9c-0.1-0.1-2.8-2.8-2.4-2.9
					c0.6-0.3-0.3-0.3-0.6-0.1c-1.3,0.6,1.3,2.7,1.7,3.1c2.4,2.1,5.2,3.9,8,5.3c2.9,1.3,6.2,2.1,9.4,2c0.7,0,4.1-0.4,3.2-1.7
					C42.7,25.6,41.8,26,42,26.2L42,26.2z"/>
			</g>
		</g>
		<g>
			<path class="st8" d="M42.4,26.9c1.1,1.5-5.2,2.4-11.1,0c-6-2.4-11.9-7.8-10.5-8.4"/>
			<g>
				<path class="st5" d="M42,27c0.8,1.4-3.9,1.1-4.5,1.1c-2.8-0.3-5.5-1.1-8-2.4c-2.2-1.1-4.2-2.5-6.2-4.2c-0.6-0.6-1.3-1.1-1.7-1.7
					c-0.1-0.3-0.4-0.4-0.6-0.7c0-0.1,0-0.4-0.1-0.4c0.6-0.3,0-0.4-0.3-0.3c-1.4,0.6,0.8,2.5,1.3,2.9c2.2,2.1,5,3.9,7.8,5.3
					c2.9,1.4,6.4,2.1,9.8,2c0.6,0,4.2-0.4,3.2-1.8C42.7,26.4,41.8,26.7,42,27L42,27z"/>
			</g>
		</g>
		<g>
			<path class="st9" d="M42.4,27.7c1.1,1.5-5.2,2.5-11.2,0.1s-11.9-7.7-10.5-8.3"/>
			<g>
				<path class="st5" d="M42,27.8c0.7,1.1-4.1,1.1-4.5,1.1c-2.8-0.1-5.6-1-8.1-2.2c-2.1-1.1-4.1-2.4-5.9-3.9
					c-0.3-0.1-2.8-2.8-2.5-2.9c0.6-0.3,0-0.6-0.4-0.4c-1.5,0.7,1,2.7,1.5,3.2c2.2,2.1,5,3.8,7.8,5c2.9,1.4,6.3,2.1,9.7,1.8
					c0.7,0,4.2-0.4,3.4-2C42.7,27.1,41.7,27.6,42,27.8L42,27.8z"/>
			</g>
		</g>
		<g>
			<path class="st10" d="M42.4,28.5c1.1,1.5-5.3,2.7-11.3,0.3s-11.8-7.7-10.4-8.1"/>
			<g>
				<path class="st5" d="M42,28.7c0.8,1.4-3.8,1.4-4.3,1.3c-2.9-0.1-5.7-1-8.4-2.4c-2.1-1.1-4.1-2.4-5.9-3.9
					c-0.1-0.1-2.8-2.7-2.2-2.9c0.6-0.3-0.3-0.1-0.6-0.1c-1.3,0.6,1.1,2.7,1.5,3.1c2.4,2.1,5.3,3.9,8.3,5.2c2.9,1.1,6.2,1.7,9.4,1.4
					c0.7-0.1,3.9-0.6,3.1-1.8C42.8,28.1,41.8,28.5,42,28.7L42,28.7z"/>
			</g>
		</g>
		<g>
			<path class="st11" d="M42.4,29.4c1.1,1.5-5.5,2.7-11.3,0.6c-6-2.2-11.6-7.6-10.2-8"/>
			<g>
				<path class="st5" d="M42,29.5c0.8,1.3-3.6,1.4-4.2,1.4c-2.8,0-5.6-0.8-8.3-2.1c-2.2-1.1-4.3-2.4-6.2-4.1
					c-0.6-0.6-1.3-1.1-1.7-1.7c-0.1-0.3-0.4-0.4-0.6-0.7c0-0.1,0-0.4-0.1-0.4c0.6-0.3,0-0.6-0.3-0.3c-1.4,0.7,0.7,2.5,1.3,2.9
					c2.2,2.1,5,3.9,8,5c2.9,1.3,6.3,1.8,9.5,1.5c0.7,0,4.3-0.6,3.5-2C42.7,29,41.8,29.2,42,29.5L42,29.5z"/>
			</g>
		</g>
		<g>
			<path class="st12" d="M42.4,30.2c1.1,1.5-5.6,2.8-11.5,0.7c-6-2.2-11.6-7.4-10.2-8"/>
			<g>
				<path class="st5" d="M42,30.4c0.7,1.3-3.9,1.4-4.5,1.4c-2.8,0-5.6-0.7-8.1-2c-2.2-1-4.2-2.4-6.2-3.9c-0.6-0.6-1.3-1.1-1.7-1.7
					c-0.1-0.3-0.3-0.4-0.6-0.7c-0.1-0.1,0-0.4-0.1-0.3c0.6-0.3,0-0.6-0.4-0.4c-1.5,0.7,1,2.7,1.4,3.2c2.4,2.1,5.2,3.8,8.1,5
					c2.9,1.1,6.3,1.7,9.5,1.3c0.7-0.1,4.1-0.7,3.2-2.1C42.7,29.7,41.8,30.1,42,30.4L42,30.4z"/>
			</g>
		</g>
		<g>
			<path class="st13" d="M42.5,30.9c1.1,1.5-5.6,2.9-11.6,0.8c-6-2.2-11.5-7.3-10.1-7.8"/>
			<g>
				<path class="st5" d="M42,31.1c0.8,1.4-3.8,1.5-4.3,1.5c-2.9,0-5.7-0.7-8.4-2c-2.1-1-4.2-2.2-5.9-3.8c-0.1-0.1-2.8-2.7-2.2-2.9
					c0.6-0.3-0.3-0.1-0.6-0.1c-1.4,0.6,1.1,2.7,1.5,3.1c2.4,2.1,5.3,3.9,8.4,5c2.9,1,6.2,1.4,9.1,1c0.7-0.1,4.1-0.7,3.2-2
					C42.8,30.6,42,31.1,42,31.1L42,31.1z"/>
			</g>
		</g>
		<g>
			<path class="st14" d="M42.5,31.8c1.1,1.5-5.7,3.1-11.6,1c-6-2.1-11.3-7.3-9.9-7.7"/>
			<g>
				<path class="st5" d="M42.1,32c0.7,1.1-3.8,1.4-4.2,1.4c-2.7,0.1-5.5-0.4-7.8-1.4c-2.2-1-4.3-2.2-6.3-3.8c-0.7-0.6-1.4-1.3-2-2
					c-0.1-0.1-0.7-1.1-0.7-1.1c0.6-0.3,0-0.7-0.4-0.6c-1.5,0.7,1,2.8,1.5,3.2c2.2,2.1,5,3.6,8,4.8c3.1,1.1,6.6,1.5,9.7,1
					c0.8-0.1,4.1-0.8,3.1-2.2C42.7,31.3,41.8,31.6,42.1,32L42.1,32z"/>
			</g>
		</g>
		<g>
			<path class="st15" d="M42.5,32.6c1.1,1.5-5.9,3.1-11.8,1.1c-6-2.1-11.3-7.1-9.9-7.6"/>
			<g>
				<path class="st5" d="M42,32.7c0.8,1.4-3.5,1.7-4.1,1.7c-2.8,0.1-5.6-0.3-8.1-1.4c-2.2-1-4.3-2.2-6.3-3.8
					c-0.7-0.6-1.3-1.1-1.8-1.8c-0.1-0.3-0.4-0.6-0.6-0.8c0-0.1,0-0.4-0.1-0.4c0.6-0.3,0-0.4-0.3-0.3c-1.4,0.7,0.8,2.7,1.4,3.1
					c2.4,2.1,5.2,3.8,8.1,4.8s6.3,1.4,9.4,0.8c0.7-0.1,4.2-0.8,3.4-2.1C42.8,32.3,42,32.6,42,32.7L42,32.7z"/>
			</g>
		</g>
		<g>
			<path class="st16" d="M42.5,33.4c1.1,1.5-5.9,3.2-11.9,1.3c-6-2.1-11.2-7-9.8-7.6"/>
			<g>
				<path class="st5" d="M42.1,33.7c0.7,1.1-3.6,1.5-4.2,1.5c-2.7,0.1-5.3-0.1-7.8-1.1c-2.2-0.8-4.5-2.1-6.3-3.6
					c-0.7-0.6-1.4-1.3-2.1-2c-0.1-0.1-0.7-1.1-0.7-1.1c0.6-0.3,0-0.7-0.4-0.6c-1.5,0.7,1,2.8,1.5,3.2c2.4,2.1,5.2,3.6,8.1,4.8
					c2.9,1,6.3,1.3,9.5,0.7c0.8-0.1,4.2-0.8,3.2-2.4C42.7,33,41.8,33.3,42.1,33.7L42.1,33.7z"/>
			</g>
		</g>
		<g>
			<path class="st17" d="M42.5,34.3c1.1,1.5-6,3.4-11.9,1.4c-6-2-11.2-6.9-9.8-7.4"/>
			<g>
				<path class="st5" d="M42.1,34.4c0.7,1.1-3.5,1.7-4.1,1.7c-2.8,0.3-5.6,0-8.1-1.1c-2.2-0.8-4.5-2.1-6.4-3.6
					c-0.1-0.1-2.9-2.8-2.5-2.9c0.6-0.3,0-0.6-0.4-0.4c-1.5,0.7,0.8,2.7,1.4,3.2c2.4,2.1,5.2,3.6,8.3,4.6c2.9,1,6.4,1.1,9.5,0.4
					c0.8-0.1,4.1-1,3.2-2.4C42.8,33.9,41.8,34.1,42.1,34.4L42.1,34.4z"/>
			</g>
		</g>
		<g>
			<path class="st18" d="M42.5,35.1c1.1,1.5-6.2,3.5-12,1.5c-6-2-11.1-6.9-9.7-7.3"/>
			<g>
				<path class="st5" d="M42.1,35.3c0.8,1.3-3.2,1.8-3.9,2c-2.8,0.3-5.7,0-8.4-1c-2.2-0.8-4.5-2.1-6.3-3.6c-0.7-0.6-1.3-1.1-1.8-1.7
					c-0.1-0.3-0.4-0.6-0.6-0.8c0-0.1,0-0.4-0.1-0.4c0.6-0.3,0-0.4-0.3-0.3c-1.5,0.7,0.8,2.5,1.4,3.1c2.4,2.1,5.2,3.6,8.3,4.6
					c2.9,0.8,6.3,1,9.4,0.3c0.7-0.1,4.2-1,3.4-2.2C42.8,34.7,42,35.1,42.1,35.3L42.1,35.3z"/>
			</g>
		</g>
		<g>
			<path class="st19" d="M42.5,36c1.1,1.5-6.3,3.6-12.2,1.7c-6-2-10.9-6.7-9.5-7.1"/>
			<g>
				<path class="st5" d="M42.1,36.1c0.7,1.1-3.5,1.8-3.9,1.8c-2.7,0.3-5.5,0.1-8-0.7c-2.4-0.8-4.6-2.1-6.4-3.5
					c-0.3-0.1-2.9-2.8-2.7-2.9c0.6-0.3,0-0.6-0.4-0.4c-1.5,0.7,0.8,2.7,1.4,3.1c2.4,2.1,5.3,3.6,8.3,4.6c3.1,0.8,6.3,1,9.4,0.3
					c0.8-0.1,4.2-1,3.2-2.5C42.8,35.5,42,35.8,42.1,36.1L42.1,36.1z"/>
			</g>
		</g>
		<g>
			<path class="st20" d="M42.5,36.8c1.1,1.5-6.3,3.6-12.3,2c-6-1.8-10.9-6.6-9.5-7.1"/>
			<g>
				<path class="st5" d="M42.1,36.9c0.6,1-3.4,1.7-3.9,1.8c-2.5,0.4-5.3,0.3-7.8-0.6c-2.4-0.7-4.6-2-6.6-3.5
					c-0.3-0.1-3.1-2.8-2.8-2.9c0.6-0.3,0-0.7-0.4-0.6c-1.5,0.7,0.8,2.7,1.4,3.2c2.4,2.1,5.5,3.8,8.5,4.6c2.9,0.8,6.3,0.8,9.2,0
					c0.8-0.3,4.1-1.1,3.2-2.7C42.8,36.2,41.8,36.5,42.1,36.9L42.1,36.9z"/>
			</g>
		</g>
		<g>
			<path class="st21" d="M42.5,37.6c1.1,1.5-6.4,3.8-12.3,2.1c-6-1.8-10.8-6.4-9.4-7"/>
			<g>
				<path class="st5" d="M42.1,37.8c0.6,1-3.4,1.8-3.9,1.8c-2.5,0.4-5.3,0.4-7.8-0.3c-2.4-0.7-4.6-1.8-6.6-3.4
					c-0.7-0.6-1.4-1.1-2.1-1.8C21.5,34,20.8,33,21,32.9c0.6-0.3,0-0.7-0.4-0.6c-1.5,0.7,1,2.8,1.5,3.4c2.4,2.1,5.5,3.6,8.5,4.5
					c2.9,0.7,6.2,0.7,9.1-0.1c0.8-0.3,4.2-1.1,3.2-2.7C42.8,37.1,42,37.4,42.1,37.8L42.1,37.8z"/>
			</g>
		</g>
		<g>
			<path class="st22" d="M42.5,38.5c1.1,1.5-6.6,3.9-12.5,2.2c-6-1.7-10.6-6.4-9.2-6.9"/>
			<g>
				<path class="st5" d="M42.2,38.6c0.6,1-3.4,1.8-3.8,2c-2.5,0.6-5.3,0.6-7.8-0.1c-2.4-0.7-4.8-1.8-6.7-3.4
					c-0.3-0.1-3.2-2.8-2.8-2.9c0.6-0.3,0-0.7-0.4-0.6c-1.5,0.7,0.8,2.8,1.4,3.2c2.4,2.1,5.5,3.6,8.5,4.3c2.9,0.7,6.3,0.6,9.1-0.3
					c0.8-0.3,4.1-1.3,3.2-2.7C42.8,37.9,42,38.2,42.2,38.6L42.2,38.6z"/>
			</g>
		</g>
		<g>
			<path class="st23" d="M42.7,39.3c1.1,1.5-6.7,4.1-12.6,2.4c-6-1.7-10.6-6.3-9.2-6.7"/>
			<g>
				<path class="st5" d="M42.1,39.5c0.7,1.1-2.8,2-3.4,2.1c-2.5,0.6-5.3,0.7-8,0c-2.5-0.7-5-2-7.1-3.5c-0.7-0.6-1.4-1.1-2-1.8
					c-0.1-0.3-0.4-0.6-0.6-0.8c0-0.1,0-0.4-0.1-0.4c0.6-0.3,0-0.6-0.3-0.3c-1.5,0.7,1,2.8,1.5,3.2c2.4,2,5.5,3.5,8.4,4.2
					c2.9,0.6,6,0.4,9-0.4c0.7-0.1,4.2-1.3,3.4-2.5C42.9,38.9,42,39.2,42.1,39.5L42.1,39.5z"/>
			</g>
		</g>
		<g>
			<path class="st24" d="M42.7,40.2c1.1,1.5-6.7,4.2-12.6,2.5S19.6,36.5,21,36"/>
			<g>
				<path class="st5" d="M42.1,40.2c0.7,1.1-2.8,2-3.5,2.1c-2.5,0.7-5.5,0.7-8,0.1c-2.5-0.6-5-1.8-7.1-3.5c-0.7-0.6-1.4-1.1-2-1.8
					c-0.1-0.3-0.4-0.6-0.6-0.8c0-0.1,0-0.4-0.1-0.4c0.6-0.3,0-0.6-0.3-0.3c-1.5,0.7,1,2.8,1.5,3.2c2.4,2,5.3,3.5,8.4,4.1
					c2.9,0.6,6.2,0.3,9-0.6c0.7-0.1,4.2-1.3,3.5-2.7C42.9,39.7,42,40,42.1,40.2L42.1,40.2z"/>
			</g>
		</g>
		<g>
			<path class="st25" d="M42.7,41c1.1,1.5-6.9,4.2-12.7,2.7c-5.9-1.5-10.4-6-9.1-6.6"/>
			<g>
				<path class="st5" d="M42.2,41c0.7,1.3-2.8,2.1-3.5,2.2c-2.7,0.7-5.5,0.8-8.1,0.1c-2.5-0.6-4.9-1.8-6.9-3.2
					c-0.7-0.6-1.4-1.1-2.1-1.8c-0.1-0.3-0.4-0.6-0.6-0.8c0-0.1,0-0.4-0.1-0.4c0.6-0.3,0-0.4-0.3-0.3c-1.5,0.7,0.8,2.7,1.5,3.2
					c2.4,2,5.5,3.5,8.5,3.9c2.9,0.6,6.2,0.3,9-0.7c0.7-0.1,4.2-1.3,3.4-2.7C42.9,40.6,42.1,40.9,42.2,41L42.2,41z"/>
			</g>
		</g>
		<g>
			<path class="st26" d="M42.7,41.8c1.1,1.5-7,4.3-12.9,2.8s-10.4-6-9-6.4"/>
			<g>
				<path class="st5" d="M42.2,41.8c0.7,1.1-2.8,2.1-3.4,2.2c-2.5,0.7-5.3,1-8,0.4c-2.5-0.6-4.9-1.7-7-3.2c-0.7-0.6-1.5-1.1-2.1-1.8
					c-0.1-0.1-0.8-1.1-0.7-1.3c0.6-0.3,0-0.4-0.3-0.3c-1.5,0.7,1,2.7,1.5,3.2c2.5,2,5.6,3.4,8.7,3.9c2.9,0.4,6,0.1,8.8-0.8
					c0.7-0.3,4.1-1.4,3.4-2.7C42.9,41.4,42.1,41.7,42.2,41.8L42.2,41.8z"/>
			</g>
		</g>
		<g>
			<path class="st27" d="M42.7,42.5c1.1,1.5-7,4.5-12.9,2.9s-10.2-5.9-8.8-6.3"/>
			<g>
				<path class="st5" d="M42.2,42.7c0.7,1.1-2.7,2.1-3.4,2.2c-2.5,0.7-5.2,1-7.7,0.6c-2.7-0.4-5.2-1.5-7.3-3.1
					c-0.7-0.6-1.5-1.1-2.1-1.8c-0.1-0.1-1-1.3-0.7-1.3c0.6-0.3,0-0.6-0.4-0.3c-1.5,0.7,1,2.8,1.5,3.2c2.5,2,5.6,3.4,8.7,3.8
					c2.9,0.4,6,0,8.8-1c0.7-0.3,4.2-1.4,3.4-2.7C42.9,42.1,42.1,42.5,42.2,42.7L42.2,42.7z"/>
			</g>
		</g>
		<g>
			<path class="st28" d="M42.7,43.4c1.1,1.5-7.1,4.6-13,3.1c-5.9-1.4-10.2-5.7-8.8-6.3"/>
			<g>
				<path class="st5" d="M42.2,43.7c0.6,0.8-3.1,2-3.5,2.1c-2.4,0.7-4.9,1-7.4,0.7s-5-1.4-7.3-2.8c-0.8-0.6-1.7-1.1-2.2-2
					c-0.1-0.1-0.8-1.1-0.7-1.1c0.6-0.3,0-0.8-0.4-0.6c-1.1,0.6,0,1.8,0.4,2.4c1.5,1.5,3.5,2.8,5.5,3.5c4.5,2,9.8,1.8,14.3-0.1
					c0.8-0.3,3.1-1.4,2.4-2.5C42.9,42.8,42,43.2,42.2,43.7L42.2,43.7z"/>
			</g>
		</g>
		<g>
			<path class="st29" d="M42.7,44.2c1.1,1.5-7.3,4.8-13.2,3.4c-5.9-1.4-10.1-5.6-8.7-6.2"/>
			<g>
				<path class="st5" d="M42.2,44.5c0.6,1-3.1,2.1-3.6,2.2c-2.4,0.7-4.9,1.1-7.3,0.8c-2.7-0.3-5.2-1.4-7.3-2.8
					c-0.8-0.6-1.5-1.1-2.2-1.8c0-0.1-0.8-1.1-0.7-1.1c0.6-0.3,0-0.7-0.4-0.6c-1.1,0.6-0.1,1.8,0.4,2.2c1.5,1.5,3.5,2.8,5.6,3.6
					c4.5,1.8,9.8,1.5,14.1-0.4c0.8-0.3,3.1-1.4,2.2-2.5C42.9,43.7,42,44.1,42.2,44.5L42.2,44.5z"/>
			</g>
		</g>
		<g>
			<path class="st30" d="M42.7,45.1c1.1,1.5-7.3,4.8-13.3,3.5c-5.9-1.4-9.9-5.6-8.5-6"/>
			<g>
				<path class="st5" d="M42.2,45.3c0.6,1-3.1,2.1-3.5,2.2c-2.4,0.7-4.8,1.1-7.3,1c-2.7-0.1-5.2-1.3-7.4-2.7c-0.8-0.6-1.7-1.1-2.4-2
					c-0.1-0.1-0.8-1.1-0.7-1.3c0.6-0.3,0-0.7-0.4-0.6c-1.1,0.6-0.1,1.7,0.4,2.2c1.5,1.7,3.6,2.8,5.7,3.5c4.5,1.7,9.7,1.3,14-0.7
					c0.7-0.3,2.9-1.4,2.2-2.5C42.9,44.6,42.1,44.9,42.2,45.3L42.2,45.3z"/>
			</g>
		</g>
		<g>
			<path class="st31" d="M42.7,45.9c1.1,1.5-7.4,4.9-13.3,3.6s-9.9-5.5-8.5-5.9"/>
			<g>
				<path class="st5" d="M42.2,46c0.7,1.1-2.5,2.2-3.1,2.4c-2.4,0.8-5.2,1.3-7.7,1.1c-2.7-0.3-5.3-1.3-7.6-2.8
					c-0.3-0.1-3.6-2.8-2.8-3.2c0.6-0.3-0.3-0.3-0.6-0.1c-1.1,0.4,0.1,1.7,0.6,2.2c1.7,1.5,3.8,2.7,5.9,3.5c4.3,1.5,9.2,0.8,13.4-1
					c0.6-0.3,3.2-1.4,2.5-2.5C43.1,45.6,42.2,45.9,42.2,46L42.2,46z"/>
			</g>
		</g>
		<g>
			<path class="st32" d="M42.8,46.7c1.1,1.5-7.6,5-13.4,3.8c-5.9-1.3-9.8-5.3-8.4-5.9"/>
			<g>
				<path class="st5" d="M42.4,46.9c0.6,1-2.9,2.2-3.5,2.4c-2.4,0.8-4.9,1.3-7.3,1.1c-2.7-0.1-5.3-1.1-7.6-2.5
					c-0.8-0.6-1.5-1.1-2.2-1.8c-0.1-0.1-1-1.1-0.7-1.3c0.6-0.3,0-0.7-0.4-0.4c-1.1,0.4-0.1,1.7,0.4,2.2c1.5,1.7,3.6,2.7,5.7,3.5
					c4.5,1.5,9.7,1,14-1c0.7-0.3,3.1-1.4,2.4-2.5C42.9,46.3,42.1,46.6,42.4,46.9L42.4,46.9z"/>
			</g>
		</g>
		<g>
			<path class="st33" d="M42.8,47.6c1.1,1.5-7.7,5.2-13.6,3.9s-9.7-5.2-8.4-5.7"/>
			<g>
				<path class="st5" d="M42.4,47.7c0.6,0.8-2.9,2.1-3.5,2.4c-2.2,0.8-4.6,1.3-7,1.3c-2.7,0-5.5-1-7.7-2.4c-0.8-0.6-1.7-1.1-2.2-1.8
					c-0.1-0.1-1-1.1-0.7-1.3c0.6-0.3,0-0.8-0.4-0.6c-1.1,0.6-0.1,1.8,0.4,2.4c1.5,1.7,3.8,2.8,6,3.5c4.5,1.4,9.7,0.7,13.9-1.3
					c0.7-0.4,2.9-1.4,2.2-2.7C42.9,47,42.1,47.3,42.4,47.7L42.4,47.7z"/>
			</g>
		</g>
		<g>
			<path class="st34" d="M42.8,48.4c1.1,1.5-7.7,5.3-13.6,4.1c-5.9-1.1-9.7-5.2-8.3-5.6"/>
			<g>
				<path class="st5" d="M42.2,48.6c0.7,1.1-2.5,2.2-3.1,2.5c-2.4,1-4.9,1.5-7.4,1.5c-2.7,0-5.3-0.8-7.6-2.1
					c-0.8-0.6-1.7-1.1-2.4-1.8c-0.1-0.1-1.1-1.3-0.8-1.4c0.6-0.3,0-0.6-0.3-0.3c-1.1,0.4-0.3,1.5,0.3,2.1c1.7,1.7,3.9,2.8,6.2,3.5
					c4.3,1.3,9.4,0.4,13.4-1.4c0.7-0.3,3.2-1.4,2.5-2.5C43.1,48,42.2,48.3,42.2,48.6L42.2,48.6z"/>
			</g>
		</g>
		<g>
			<path class="st35" d="M42.8,49.3c1.1,1.5-7.8,5.3-13.7,4.2s-9.5-5-8.1-5.5"/>
			<g>
				<path class="st5" d="M42.4,49.4c0.6,1-2.8,2.2-3.2,2.5c-2.4,1-4.9,1.5-7.3,1.5c-2.7,0-5.3-0.7-7.6-2.1c-0.8-0.6-1.7-1.1-2.4-1.8
					c-0.1-0.1-1.1-1.3-0.7-1.4c0.6-0.3,0-0.6-0.4-0.4c-1.1,0.6-0.1,1.7,0.4,2.2c1.5,1.5,3.8,2.7,5.9,3.2c4.5,1.4,9.7,0.4,13.9-1.7
					c0.7-0.3,2.9-1.4,2.2-2.5C43.1,48.8,42.1,49.1,42.4,49.4L42.4,49.4z"/>
			</g>
		</g>
		<path class="st36" d="M42.8,50.1c1.1,1.5-8,5.5-13.9,4.3c-5.9-1.1-9.5-4.9-8.1-5.3"/>
	</g>
	<g>
		<g>
			<g>
				<path class="st3" d="M42.7,14.3c0.1,0-1,1-1,1.1c-0.7,0.6-1.4,1.1-2.2,1.5c-2,1.3-4.1,2.5-6.2,3.5c-2.4,1.1-4.8,2.1-7.1,3.1
					c-1,0.4-2,0.8-2.9,1.1c-0.4,0.1-3.1,1.1-2.4-0.4c0.1-0.4-0.6-0.4-0.7-0.1c-0.4,0.8,0.1,1.5,1.1,1.5s2-0.6,2.9-0.8
					c3.2-1.1,6.3-2.5,9.2-3.9c2.8-1.3,5.5-2.9,7.8-4.8c0.3-0.3,2.9-2,1.7-2.5C42.8,13.6,42.2,14,42.7,14.3L42.7,14.3z"/>
			</g>
		</g>
		<g>
			<g>
				<path class="st37" d="M20.3,25.5c-0.3,0.7,0,1.4,0.7,1.5c1,0.1,2.1-0.4,3.1-0.7c3.2-1.1,6.3-2.5,9.4-3.9
					c2.7-1.3,5.3-2.8,7.7-4.5c0.3-0.1,3.1-2.1,2-2.7c-0.3-0.1-0.8,0.3-0.6,0.4c0.4,0.1-2.5,2.4-2.8,2.5c-2,1.3-4.1,2.5-6.2,3.5
					c-2.4,1.1-4.8,2.1-7.1,3.1c-1.1,0.4-2.1,0.8-3.2,1.3c-0.4,0.1-3.1,1.1-2.4-0.4C21.1,25.2,20.4,25.2,20.3,25.5L20.3,25.5z"/>
			</g>
		</g>
		<g>
			<g>
				<path class="st38" d="M20.3,26.6c-0.3,0.7,0,1.4,0.8,1.4c1,0.1,2.4-0.4,3.2-0.8c3.4-1.1,6.4-2.5,9.7-4.1
					c2.5-1.3,5.2-2.7,7.4-4.5c0.3-0.3,2.8-2,1.7-2.5c-0.3-0.1-0.7,0.3-0.4,0.4c0.1,0.1-2.8,2.5-2.9,2.7c-1.8,1.3-3.8,2.4-5.9,3.4
					c-2.4,1.1-4.8,2.1-7.1,3.1c-1.1,0.4-2.2,0.8-3.4,1.3c-0.4,0.1-3.1,1-2.4-0.4C21.1,26.3,20.4,26.3,20.3,26.6L20.3,26.6z"/>
			</g>
		</g>
		<g>
			<g>
				<path class="st39" d="M20.3,27.8c-1.1,2.2,3.2,0.8,3.9,0.7c3.1-1,6.2-2.4,9.1-3.8c2.7-1.3,5.3-2.7,7.7-4.3
					c0.3-0.3,3.1-2.2,2.1-2.7c-0.3-0.1-0.8,0.1-0.6,0.3c0.4,0.3-2.7,2.5-2.9,2.7c-2,1.3-3.9,2.4-6,3.4c-2.2,1-4.5,2.1-6.9,2.9
					c-1.1,0.4-2.2,0.8-3.4,1.3c-0.4,0.1-3.4,1.1-2.7-0.4C21.1,27.6,20.4,27.6,20.3,27.8L20.3,27.8z"/>
			</g>
		</g>
		<g>
			<g>
				<path class="st40" d="M20.3,29c-1,2.2,3.2,1,3.9,0.7c3.1-1,6-2.2,9-3.6c2.8-1.3,5.5-2.7,8-4.5c0.3-0.3,3.1-2.1,2-2.7
					c-0.3-0.1-0.7,0.3-0.3,0.4c0.3,0.1-3.1,2.7-3.4,2.9c-2,1.3-3.9,2.4-6.2,3.4c-2.1,1-4.2,2-6.4,2.8c-1.1,0.4-2.1,0.8-3.2,1.1
					c-0.3,0.1-3.4,1-2.7-0.3C21.1,28.8,20.4,28.8,20.3,29L20.3,29z"/>
			</g>
		</g>
		<g>
			<g>
				<path class="st41" d="M20.4,30.2c-1,2.1,3.1,0.8,3.8,0.7c2.9-1,5.7-2.1,8.5-3.4s5.5-2.5,8-4.3c0.3-0.3,3.4-2.4,2.4-2.9
					c-0.1-0.1-0.7,0.1-0.4,0.3c0.6,0.3-3.1,2.9-3.4,3.1C37.3,25,35.1,26,33,27s-4.2,1.8-6.4,2.7c-1,0.4-2.1,0.7-3.1,1.1
					c-0.4,0.1-3.1,0.8-2.5-0.6C21,30.1,20.4,30.1,20.4,30.2L20.4,30.2z"/>
			</g>
		</g>
		<g>
			<g>
				<path class="st42" d="M20.4,31.5c-1,2.1,3.2,1,3.8,0.7c2.8-0.8,5.5-2,8.1-3.1c2.8-1.3,5.5-2.5,8-4.2c0.3-0.3,3.8-2.5,2.8-3.2
					c-0.3-0.1-0.7,0.1-0.4,0.3c0.6,0.3-3.4,3.1-3.6,3.2c-2,1.3-4.2,2.2-6.3,3.2c-2.1,0.8-4.1,1.8-6.2,2.5c-1,0.4-2,0.7-2.9,1
					C23.4,32,23,32,22.6,32.2c-0.3,0-2,0.4-1.5-0.7C21,31.2,20.4,31.2,20.4,31.5L20.4,31.5z"/>
			</g>
		</g>
		<g>
			<g>
				<path class="st43" d="M20.4,32.7c-0.8,2,3.4,0.7,3.9,0.6c2.7-0.8,5.3-2,8-3.1c2.8-1.3,5.5-2.4,8-4.1c0.4-0.3,3.9-2.7,2.8-3.2
					c-0.1-0.1-0.7,0.1-0.4,0.3c0.7,0.4-3.6,3.4-4.1,3.6c-2.1,1.3-4.2,2.2-6.4,3.1c-2.1,0.8-4.1,1.7-6.2,2.5c-1,0.3-2,0.7-2.9,0.8
					c-0.6,0.1-2.7,0.7-2.1-0.7C21,32.5,20.4,32.6,20.4,32.7L20.4,32.7z"/>
			</g>
		</g>
		<g>
			<g>
				<path class="st44" d="M20.4,34c-0.7,2,3.4,0.7,3.9,0.6c2.5-0.7,5-1.8,7.6-2.8c2.7-1.1,5.3-2.2,7.7-3.8c0.4-0.3,4.5-2.9,3.5-3.5
					c-0.1-0.1-0.6,0.1-0.4,0.1c0.8,0.6-3.4,3.4-3.8,3.5c-2,1.3-4.2,2.1-6.3,3.1S28.2,33,26,33.9c-0.8,0.3-1.8,0.6-2.7,0.8
					c-0.6,0.1-2.9,0.7-2.4-0.7C21,33.7,20.4,33.9,20.4,34L20.4,34z"/>
			</g>
		</g>
		<g>
			<g>
				<path class="st45" d="M20.4,35.1c-0.7,2,3.1,1,3.9,0.7c2.7-0.7,5.2-1.8,7.7-2.9c2.5-1.1,5.3-2.2,7.7-3.8
					c0.4-0.3,4.5-2.9,3.4-3.6c-0.1-0.1-0.7,0.1-0.4,0.3c0.7,0.4-4.3,3.8-4.6,3.9c-1.8,1-3.8,1.8-5.7,2.7c-2.1,0.8-4.2,1.7-6.3,2.5
					c-0.8,0.3-1.7,0.6-2.5,0.7c-0.4,0.1-0.7,0.1-1.1,0.3c-0.4,0-1.7,0.1-1.4-0.7C21,34.8,20.5,34.8,20.4,35.1L20.4,35.1z"/>
			</g>
		</g>
		<g>
			<g>
				<path class="st46" d="M20.4,36.4c-0.7,1.8,3.4,0.7,3.9,0.6c2.5-0.7,5-1.7,7.4-2.8c2.4-1,4.9-2,7.1-3.4c0.4-0.3,5-3.2,4.1-3.9
					c-0.1-0.1-0.6,0.1-0.4,0.1c1,0.6-4.2,3.8-4.6,4.1c-1.8,1-3.8,1.8-5.7,2.7c-2,0.8-3.9,1.7-6,2.4c-0.8,0.3-1.8,0.6-2.7,0.8
					c-0.6,0.1-3.1,0.7-2.5-0.7C21,36.1,20.5,36.2,20.4,36.4L20.4,36.4z"/>
			</g>
		</g>
		<g>
			<g>
				<path class="st47" d="M20.4,37.6c-0.7,1.7,3.2,0.7,3.8,0.6c2.5-0.7,5-1.7,7.6-2.7c2.4-1,4.9-2,7.1-3.2c0.6-0.3,5.3-3.2,4.2-4.1
					c-0.1-0.1-0.6,0.1-0.4,0.1c1,0.7-4.6,4.1-5.2,4.3c-1.7,0.8-3.5,1.7-5.3,2.4c-2.1,0.8-4.2,1.7-6.3,2.4c-0.4,0.1-5.5,1.7-4.9,0
					C21,37.4,20.5,37.4,20.4,37.6L20.4,37.6z"/>
			</g>
		</g>
		<g>
			<g>
				<path class="st48" d="M20.5,38.8c-0.6,1.7,3.4,0.7,3.9,0.6c2.4-0.7,4.8-1.5,7.1-2.5s4.6-2,6.9-3.1c0.4-0.3,5.7-3.4,4.5-4.2
					c-0.1,0-0.4,0.1-0.4,0.1c1.1,0.8-4.5,4.1-4.9,4.2c-1.7,0.8-3.5,1.7-5.3,2.4c-2.1,0.8-4.1,1.7-6.3,2.4c-0.6,0.1-5.7,1.8-5.2,0
					C21,38.6,20.5,38.6,20.5,38.8L20.5,38.8z"/>
			</g>
		</g>
		<g>
			<g>
				<path class="st49" d="M20.5,40c-0.6,1.7,3.2,0.7,3.8,0.6c2.7-0.7,5-1.7,7.6-2.7c2.4-1,4.6-2,6.9-3.1c0.6-0.3,5.5-3.1,4.2-4.1
					c-0.1-0.1-0.4,0.1-0.3,0.1c0.7,0.6-2,2.4-2.2,2.7c-1,0.7-2,1.1-3.1,1.7c-1.8,0.8-3.6,1.7-5.5,2.4c-2.1,0.8-4.1,1.7-6.2,2.2
					c-0.4,0.1-5.5,1.5-4.9,0C21,39.7,20.5,39.9,20.5,40L20.5,40z"/>
			</g>
		</g>
		<g>
			<g>
				<path class="st50" d="M20.5,41.3c-0.6,1.5,3.1,0.7,3.6,0.6c2.5-0.6,4.9-1.5,7.3-2.5s4.6-2,7-2.9c0.7-0.3,5.9-3.1,4.5-4.2
					c-0.1,0-0.4,0.1-0.4,0.1c1.3,1-4.2,3.9-4.8,4.2c-1.8,0.8-3.6,1.7-5.6,2.4c-2.1,0.8-4.2,1.7-6.3,2.2c-0.4,0.1-5.6,1.7-5,0
					C21,41,20.5,41.1,20.5,41.3L20.5,41.3z"/>
			</g>
		</g>
		<g>
			<g>
				<path class="st51" d="M20.5,42.4c-0.6,1.5,3.2,0.7,3.8,0.6c2.5-0.6,4.9-1.5,7.3-2.5s4.8-2,7-3.1c0.7-0.3,5.6-2.9,4.2-4.1
					c-0.1-0.1-0.4,0-0.3,0.1c1.3,1-4.1,3.8-4.9,4.2c-1.8,0.8-3.8,1.7-5.6,2.4c-2.1,0.8-4.1,1.5-6.3,2.2c-0.4,0.1-5.3,1.5-4.8,0
					C21,42.3,20.5,42.3,20.5,42.4L20.5,42.4z"/>
			</g>
		</g>
		<g>
			<g>
				<path class="st52" d="M20.5,43.7c-0.4,1.1,2,1,2.5,0.8c1.7-0.3,3.2-0.8,4.9-1.4c3.9-1.3,7.7-2.8,11.3-4.6
					c0.7-0.3,4.9-2.7,3.6-3.6c-0.1,0-0.4,0-0.3,0.1c1,0.8-2.1,2.8-2.7,3.1c-0.7,0.3-1.4,0.7-2.1,1c-2,0.8-3.9,1.7-5.9,2.5
					c-2.1,0.8-4.2,1.5-6.3,2.2c-0.4,0.1-5.3,1.4-4.8,0C21,43.5,20.5,43.5,20.5,43.7L20.5,43.7z"/>
			</g>
		</g>
		<g>
			<g>
				<path class="st53" d="M20.5,44.8c-0.3,1.1,2.1,0.8,2.7,0.8c1.7-0.3,3.4-0.8,5-1.4c3.9-1.3,7.7-2.8,11.3-4.6
					c0.7-0.4,4.6-2.4,3.4-3.5c-0.1,0-0.4,0-0.3,0.1c1,0.8-1.8,2.7-2.4,2.9c-0.7,0.4-1.4,0.7-2.2,1.1c-2,0.8-3.9,1.7-5.9,2.5
					c-2.1,0.8-4.2,1.7-6.4,2.2c-0.3,0.1-5.3,1.4-4.8-0.1C21,44.6,20.5,44.8,20.5,44.8L20.5,44.8z"/>
			</g>
		</g>
		<g>
			<g>
				<path class="st54" d="M20.5,46c-0.3,1.1,2.1,0.8,2.7,0.7c1.7-0.3,3.4-0.8,4.9-1.4c3.9-1.4,7.8-2.9,11.6-4.8
					c0.7-0.3,1.4-0.7,2.1-1.1c0.4-0.4,1.7-1.5,1-2.2c0,0-0.3,0-0.3,0.1c1,1-1.5,2.5-2.1,2.8c-0.7,0.4-1.4,0.7-2.2,1
					c-2,0.8-4.1,1.7-6,2.5c-2.1,0.8-4.2,1.5-6.3,2.2c-0.4,0.1-5.3,1.4-4.9-0.1C21,45.9,20.5,45.9,20.5,46L20.5,46z"/>
			</g>
		</g>
		<g>
			<g>
				<path class="st55" d="M20.5,47.3c-0.3,1.1,2.1,0.8,2.7,0.8c1.7-0.3,3.5-0.8,5.2-1.4c3.9-1.4,7.8-2.9,11.6-4.8
					c0.8-0.4,4.1-2,2.8-3.2c0,0-0.3,0-0.3,0.1c1.5,1.4-3.4,3.4-4.2,3.8c-2,0.8-4.1,1.7-6.2,2.5s-4.3,1.7-6.4,2.2
					c-0.3,0.1-5.2,1.4-4.8-0.1C21,47.2,20.7,47.2,20.5,47.3L20.5,47.3z"/>
			</g>
		</g>
		<g>
			<g>
				<path class="st56" d="M20.7,48.4c-0.3,1,2.1,0.8,2.7,0.8c1.7-0.3,3.5-0.8,5.2-1.4c4.1-1.4,8-2.9,11.8-4.8c1-0.4,4.1-1.7,2.5-3.2
					c-0.1-0.1-0.3,0-0.3,0.1c1.5,1.5-3.2,3.2-4.2,3.6c-2.1,1-4.2,1.8-6.3,2.5c-2.1,0.8-4.3,1.5-6.4,2.2c-0.3,0.1-5,1.3-4.8-0.1
					C21,48.3,20.7,48.3,20.7,48.4L20.7,48.4z"/>
			</g>
		</g>
		<g>
			<g>
				<path class="st4" d="M20.7,49.7c-0.3,1,2.2,0.8,2.7,0.7c1.7-0.3,3.5-0.8,5-1.4c4.1-1.4,8.1-2.9,11.9-4.8c1-0.4,3.9-1.5,2.4-3.1
					c0,0-0.3,0-0.3,0.1c1.5,1.7-2.9,3.1-3.9,3.6c-2.1,1-4.3,1.8-6.4,2.7s-4.3,1.5-6.6,2.2C25.2,50,20.4,51.1,20.7,49.7
					C21,49.5,20.7,49.5,20.7,49.7L20.7,49.7z"/>
			</g>
		</g>
	</g>
	<g>
		<g>
			<path class="st3" d="M21,29.9c5.2-1.1,10.2-2.8,15-4.8c1.1-0.4,2.1-0.8,3.2-1.4c0.7-0.4,1.3-0.8,2-1.4s2.5-1.4,2.7-2.4
				c0-0.3-0.7-0.1-0.7,0.1c0,1-2.1,1.8-2.8,2.4c-1.7,1.3-3.6,2.1-5.6,2.9c-4.5,1.8-9,3.2-13.7,4.2C20.4,29.7,20.5,29.9,21,29.9
				L21,29.9z"/>
		</g>
	</g>
	<g>
		<g>
			<path class="st3" d="M20.8,42c4.6-0.8,9.2-2,13.7-3.5c2.1-0.7,4.3-1.5,6.4-2.7c0.8-0.4,2.7-1.5,2.7-2.7c0-0.1-0.7,0-0.7,0.1
				c0,0.7-1,1.3-1.4,1.7c-0.8,0.7-2,1.1-3.1,1.4c-1.8,0.8-3.8,1.5-5.7,2.1c-3.9,1.3-7.8,2.2-11.9,2.9C20.5,41.7,20.3,42.1,20.8,42
				L20.8,42z"/>
		</g>
	</g>
	<g>
		<g>
			<path class="st3" d="M20.5,49.1c5.5-1.1,10.9-2,16.2-3.8c0.6-0.1,7.6-2.5,6.3-3.6c-0.1-0.1-0.8,0.1-0.7,0.3
				c0.6,0.6-2.1,1.7-2.4,1.8c-1.7,0.7-3.5,1.4-5.3,1.8c-4.8,1.4-9.5,2.2-14.3,3.1C20.1,49,20.1,49.3,20.5,49.1L20.5,49.1z"/>
		</g>
	</g>
	<g>
		<g>
			<path class="st3" d="M20.5,51.8c4.5-0.7,9.1-1.3,13.4-2.1c2-0.4,3.9-1,5.7-1.8c1.1-0.6,3.1-1.3,3.5-2.7c0.1-0.3-0.7-0.3-0.7,0
				c-0.3,1-2,1.5-2.8,2c-0.8,0.4-1.5,0.7-2.4,1c-1.8,0.7-3.6,1-5.5,1.3c-3.8,0.6-7.6,1.1-11.2,1.8C20.3,51.2,20.1,51.8,20.5,51.8
				L20.5,51.8z"/>
		</g>
	</g>
	<g>
		<g>
			<path class="st3" d="M20.3,34.4c6.9,4.3,14,9.1,22.3,9.8c0.1,0,0.8-0.3,0.4-0.3c-8.3-0.7-15.3-5.5-22.1-9.8
				C20.8,34,20.1,34.3,20.3,34.4L20.3,34.4z"/>
		</g>
	</g>
	<g>
		<g>
			<path class="st3" d="M20.4,49c4.8-0.7,9.7-1.1,14.4-2.1c1.8-0.3,3.6-0.8,5.3-1.5c0.8-0.4,3.8-1.4,3.1-2.8c-0.1-0.1-0.8,0-0.7,0.1
				c1.1,2.4-8.7,4.1-10.1,4.2c-3.9,0.6-7.8,1.1-11.9,1.7C20.3,48.7,20,49.1,20.4,49L20.4,49z"/>
		</g>
	</g>
	<g>
		<g>
			<path class="st3" d="M20.1,38.3c4.6-0.3,9.2-1,13.7-2c2-0.4,3.9-0.8,5.9-1.8c1.4-0.7,2.8-1.5,3.8-2.8c0.1-0.3-0.6-0.3-0.7,0
				c-1,1.4-2.9,2.4-4.5,3.1c-1.8,0.8-3.9,1.1-5.9,1.5c-4.1,0.8-8.1,1.4-12.3,1.7C20,37.9,19.7,38.5,20.1,38.3L20.1,38.3z"/>
		</g>
	</g>
	<g>
		<g>
			<path class="st3" d="M20,32.5c4,0.5,8.4,1.1,12.4,0.5c2.5-0.4,4.9-1.5,7-2.8c1.3-0.8,4.1-2.4,3.9-4.2c0-0.4-0.7-0.3-0.7,0
				c0,0.8-0.8,1.7-1.4,2.1c-0.8,0.8-2,1.4-2.9,2.1c-2.1,1.3-4.5,2.2-7,2.4c-3.6,0.3-7.6-0.1-11.2-0.6C19.8,31.9,19.6,32.5,20,32.5
				L20,32.5z"/>
		</g>
	</g>
	<g>
		<g>
			<path class="st3" d="M21.1,20.3c-0.1-0.3-0.4-0.8-0.4-1.1c-0.1,0.1-0.4,0.1-0.7,0.1c0,0,0.1,1.5,0.1,1.7c0.1,0.6,0.1,1.1,0.4,1.7
				c0.4,1.3,0.8,2.5,1.5,3.6c1.4,2.5,3.5,4.8,5.9,6.3c2.8,1.8,6.2,3.1,9.5,3.9c1.7,0.4,3.6,0.8,5.5,1c0.1,0,0.8-0.3,0.4-0.3
				c-1.8,0-3.5-0.4-5.3-0.8c-3.4-0.8-6.7-2.1-9.7-4.1c-4.2-2.8-7.6-7.8-7.7-13.2l0,0l0,0c-0.1,0-0.6,0-0.7,0.1
				c0,0.3,0.3,0.8,0.4,1.1C20.5,20.6,21.2,20.4,21.1,20.3L21.1,20.3z"/>
		</g>
	</g>
	<g>
		<g>
			<path class="st3" d="M20.1,27.1c3.2,2.4,6.6,4.6,10.1,6.7c2.5,1.5,5.3,2.9,8.1,3.9c0.8,0.3,4.6,2,5.2,0.3c0-0.1-0.7,0-0.7,0.1
				c-0.3,1.1-6.6-1.8-7.1-2.1c-2.4-1.1-4.8-2.5-7-3.9c-2.7-1.7-5.3-3.4-7.8-5.3C20.7,26.7,20,27,20.1,27.1L20.1,27.1z"/>
		</g>
	</g>
	<g>
		<g>
			<path class="st3" d="M20.5,43.5c3.1,2.1,6.7,3.2,10.2,4.6c3.8,1.4,7.7,2.8,11.6,4.1c0.4,0.1,0.7-0.6,0.1-0.7
				c-3.8-1.3-7.6-2.5-11.2-3.9C27.8,46.3,24,45.2,21,43C20.5,42.5,20.1,43.2,20.5,43.5L20.5,43.5z"/>
		</g>
	</g>
	<g>
		<g>
			<path class="st3" d="M42.1,47.6c-4.6,0.8-9.5,1-14.3,0.8c-1.1,0-2.2-0.1-3.5-0.3c-0.6,0-1.1-0.1-1.5-0.3c-0.3,0-1-0.4-1.3-0.4
				c-0.4,0-0.4,0-0.6,0.4c-0.1,1,1.3,2.9,1.7,3.8c1.4,2.7,2.8,5.3,4.2,8.1c4.1,7.7,7.8,15.7,10.8,23.8c2.7,7.3,5.3,16,3.6,23.8
				c-1,4.9-4.9,8.1-6.4,12.7c-2.5,7.1-1.7,14.8,0,22.1c0.1,0.4,0.7,0.3,0.6-0.1c-1.5-6.7-2.5-14-0.3-20.7c1-3.1,2.7-5.6,4.5-8.1
				c0.8-1.1,1.4-2.4,1.8-3.8c2.1-6.7,0.3-14.6-1.7-21.1c-2.5-8.3-6-16.1-9.8-23.8c-2.5-5.2-5.6-10.2-8-15.4
				c-0.1-0.3-0.1-0.7-0.4-0.8c0,0,0-0.3-0.1-0.3c0,0-0.4,0-0.1,0.3c1.5,1,4.1,0.8,5.7,0.8c4.9,0.1,10.1,0,15-0.8
				C42.7,48.1,42.5,47.4,42.1,47.6L42.1,47.6z"/>
		</g>
	</g>
	<g>
		<g>
			<ellipse class="st57" cx="32" cy="13" rx="14.8" ry="6.9"/>
			<ellipse class="st1" cx="32.2" cy="11" rx="14.8" ry="7.4"/>
		</g>
		<g>
			<path class="st58" d="M33.4,10.9c0,0-0.3,0.7-1.4,0.7c-1,0-1.4-0.7-1.4-0.7V2.5h2.7L33.4,10.9L33.4,10.9z"/>
			<ellipse class="st59" cx="32" cy="2.4" rx="1.4" ry="0.6"/>
		</g>
	</g>
</g>
<polygon class="st60" points="5.7,159.1 95.9,113.9 102.2,117 10.1,162.7 "/>
<g>
	<path class="st61" d="M9.9,159.3c-0.6,0-1.3-0.4-1.6-1c-0.4-0.9-0.1-2,0.8-2.4l101-51.1c0.9-0.4,1.9-0.1,2.4,0.8
		c0.4,0.9,0.1,2-0.8,2.4l-101,51.1C10.4,159.2,10.2,159.3,9.9,159.3z"/>
</g>
<path class="st62" d="M146.8,137l-91.4,45.8l-0.7,11.8c0,0,1.5,1.5,5.9-1.5c0,0,87.7-44.6,89.2-45.4s2.2-4.9,1.4-7.4
	C150.4,137.9,146.8,137,146.8,137z"/>
<path class="st63" d="M55.5,182.9l-0.6,12c0,0,5.6,2,5.7-4.3C60.6,184.2,55.5,182.9,55.5,182.9z"/>
<path class="st64" d="M7.1,131.8"/>
<g>
	<g>
		<path class="st65" d="M17.8,152.9c-0.3,0-0.5-0.2-0.5-0.5l-0.1-25.8c0-0.3,0.2-0.5,0.5-0.5l0,0c0.3,0,0.5,0.2,0.5,0.5l0.1,25.8
			C18.3,152.7,18.1,152.9,17.8,152.9L17.8,152.9z"/>
	</g>
	<path class="st65" d="M21,151.3c-0.3,0-0.5-0.2-0.5-0.5L20.4,125c0-0.3,0.2-0.5,0.5-0.5l0,0c0.3,0,0.5,0.2,0.5,0.5l0.1,25.8
		C21.5,151.1,21.3,151.3,21,151.3L21,151.3z"/>
	<path class="st65" d="M24.2,149.8c-0.3,0-0.5-0.2-0.5-0.5l-0.1-25.8c0-0.3,0.2-0.5,0.5-0.5l0,0c0.3,0,0.5,0.2,0.5,0.5l0.1,25.8
		C24.7,149.6,24.5,149.8,24.2,149.8L24.2,149.8z"/>
	<path class="st65" d="M27.4,148.2c-0.3,0-0.5-0.2-0.5-0.5l-0.1-25.8c0-0.3,0.2-0.5,0.5-0.5l0,0c0.3,0,0.5,0.2,0.5,0.5l0.1,25.8
		C27.9,148,27.7,148.2,27.4,148.2L27.4,148.2z"/>
	<path class="st65" d="M30.6,146.6c-0.3,0-0.5-0.2-0.5-0.5v-25.7c0-0.3,0.2-0.5,0.5-0.5l0,0c0.3,0,0.5,0.2,0.5,0.5l0.1,25.8
		C31.1,146.4,30.9,146.6,30.6,146.6L30.6,146.6z"/>
	<path class="st65" d="M33.8,145.1c-0.3,0-0.5-0.2-0.5-0.5l-0.1-25.8c0-0.3,0.2-0.5,0.5-0.5l0,0c0.3,0,0.5,0.2,0.5,0.5l0.1,25.8
		C34.3,144.9,34.1,145.1,33.8,145.1L33.8,145.1z"/>
	<path class="st65" d="M37,143.5c-0.3,0-0.5-0.2-0.5-0.5l-0.1-25.8c0-0.3,0.2-0.5,0.5-0.5l0,0c0.3,0,0.5,0.2,0.5,0.5l0.1,25.8
		C37.5,143.3,37.3,143.5,37,143.5L37,143.5z"/>
	<path class="st65" d="M40.2,141.9c-0.3,0-0.5-0.2-0.5-0.5l-0.1-25.8c0-0.3,0.2-0.5,0.5-0.5l0,0c0.3,0,0.5,0.2,0.5,0.5l0.1,25.8
		C40.7,141.7,40.5,141.9,40.2,141.9L40.2,141.9z"/>
	<path class="st65" d="M43.4,140.4c-0.3,0-0.5-0.2-0.5-0.5l-0.1-25.8c0-0.3,0.2-0.5,0.5-0.5l0,0c0.3,0,0.5,0.2,0.5,0.5l0.1,25.8
		C43.9,140.2,43.7,140.4,43.4,140.4L43.4,140.4z"/>
	<path class="st65" d="M46.6,138.8c-0.3,0-0.5-0.2-0.5-0.5v-25.7c0-0.3,0.2-0.5,0.5-0.5l0,0c0.3,0,0.5,0.2,0.5,0.5l0.1,25.8
		C47.1,138.6,46.9,138.8,46.6,138.8L46.6,138.8z"/>
	<path class="st65" d="M49.8,137.3c-0.3,0-0.5-0.2-0.5-0.5L49.2,111c0-0.3,0.2-0.5,0.5-0.5l0,0c0.3,0,0.5,0.2,0.5,0.5l0.1,25.8
		C50.3,137,50.1,137.3,49.8,137.3L49.8,137.3z"/>
	<path class="st65" d="M53,135.7c-0.3,0-0.5-0.2-0.5-0.5l-0.1-25.8c0-0.3,0.2-0.5,0.5-0.5l0,0c0.3,0,0.5,0.2,0.5,0.5l0.1,25.8
		C53.5,135.5,53.3,135.7,53,135.7L53,135.7z"/>
	<path class="st65" d="M56.2,134.1c-0.3,0-0.5-0.2-0.5-0.5l-0.1-25.8c0-0.3,0.2-0.5,0.5-0.5l0,0c0.3,0,0.5,0.2,0.5,0.5l0.1,25.8
		C56.7,133.9,56.5,134.1,56.2,134.1L56.2,134.1z"/>
	<path class="st65" d="M59.4,132.6c-0.3,0-0.5-0.2-0.5-0.5l-0.1-25.8c0-0.3,0.2-0.5,0.5-0.5l0,0c0.3,0,0.5,0.2,0.5,0.5l0.1,25.8
		C59.9,132.3,59.7,132.6,59.4,132.6L59.4,132.6z"/>
	<path class="st65" d="M62.6,131c-0.3,0-0.5-0.2-0.5-0.5v-25.8c0-0.3,0.2-0.5,0.5-0.5l0,0c0.3,0,0.5,0.2,0.5,0.5l0.1,25.8
		C63.1,130.8,62.9,131,62.6,131L62.6,131z"/>
	<path class="st65" d="M65.8,129.4c-0.3,0-0.5-0.2-0.5-0.5l-0.1-25.8c0-0.3,0.2-0.5,0.5-0.5l0,0c0.3,0,0.5,0.2,0.5,0.5l0.1,25.8
		C66.3,129.2,66.1,129.4,65.8,129.4L65.8,129.4z"/>
	<path class="st65" d="M69,127.9c-0.3,0-0.5-0.2-0.5-0.5v-25.8c0-0.3,0.2-0.5,0.5-0.5l0,0c0.3,0,0.5,0.2,0.5,0.5l0.1,25.8
		C69.5,127.6,69.3,127.9,69,127.9L69,127.9z"/>
	<path class="st65" d="M72.2,126.3c-0.3,0-0.5-0.2-0.5-0.5L71.6,100c0-0.3,0.2-0.5,0.5-0.5l0,0c0.3,0,0.5,0.2,0.5,0.5l0.1,25.8
		C72.7,126.1,72.5,126.3,72.2,126.3L72.2,126.3z"/>
	<path class="st65" d="M75.4,124.7c-0.3,0-0.5-0.2-0.5-0.5l-0.1-25.8c0-0.3,0.2-0.5,0.5-0.5l0,0c0.3,0,0.5,0.2,0.5,0.5l0.1,25.8
		C75.9,124.5,75.7,124.7,75.4,124.7L75.4,124.7z"/>
	<g>
		<path class="st65" d="M78.6,123.2c-0.3,0-0.5-0.2-0.5-0.5V96.9c0-0.3,0.2-0.5,0.5-0.5l0,0c0.3,0,0.5,0.2,0.5,0.5l0.1,25.8
			C79.1,122.9,78.9,123.2,78.6,123.2L78.6,123.2z"/>
	</g>
</g>
<g>
	<path class="st61" d="M5.3,134.5c-0.7,0-1.3-0.4-1.6-1c-0.4-0.9-0.1-2,0.8-2.4l103.9-52c0.9-0.4,1.9-0.1,2.4,0.8
		c0.4,0.9,0.1,2-0.8,2.4l-103.9,52C5.8,134.4,5.5,134.5,5.3,134.5z"/>
</g>
<g>
	<g>
		<g>
			<g>
				<path class="st61" d="M3.6,135.3c-0.7,0-1.3-0.4-1.6-1c-0.4-0.9-0.1-2,0.8-2.4l3.6-1.8c0.9-0.4,1.9-0.1,2.4,0.8
					c0.4,0.9,0.1,2-0.8,2.4l-3.6,1.8C4.1,135.3,3.8,135.3,3.6,135.3z"/>
			</g>
			<polygon class="st60" points="95.8,68.3 95.9,114 101.7,116.9 101.6,71.7 			"/>
		</g>
	</g>
	<g>
		<path class="st61" d="M92.3,87.2l3.7-1.9c0.9-0.5,1.9-0.1,2.4,0.8s0.1,2-0.8,2.4l-3.7,1.9"/>
	</g>
	<g>
		<path class="st61" d="M94.3,112.8l2.7-1.4c0.9-0.5,1.9-0.1,2.4,0.8s0.1,2-0.7,2.4l-2,1"/>
	</g>
</g>
<path class="st64" d="M96.4,111.1"/>
<g>
	<g>
		<path class="st60" d="M38.9,176.7c0.5,1.2-1.3,3.8-2.6,4.7c-1.2,0.9-22.7,11.3-24.4,12.3c-1.8,1.1-6.1,2.1-7.1,2.2s-2.3,0.2-3.1-1
			s2.8-4.1,4-5.2s26.1-13.2,27.3-13.4C34.1,176.2,38.4,175.5,38.9,176.7z"/>
		<path class="st60" d="M1.6,195c0,0,1.3-0.2,3.7-1s10.1-5,10.1-5l21-10.5l2.5-1.7"/>
		<ellipse class="st66" cx="32.1" cy="182.1" rx="0.6" ry="0.6"/>
		<path class="st60" d="M10.7,187.6c-0.3,0.1-1,1.1,0.5,1.5c1.5,0.5,2.9-0.4,2.9-0.4l17.5-8.5c0,0,0.8-0.7,0.1-1.5
			c-0.8-0.8-2.4-0.1-2.4-0.1S11,187.4,10.7,187.6z"/>
		<path class="st63" d="M16.3,187.6c0,0,0.4-1.2-0.7-1.2c-1.1,0-4.9,1.6-4.9,1.9s1.2,1.2,2.4,0.8S16.3,187.6,16.3,187.6z"/>
		<path class="st63" d="M10.5,188.7c-0.1-0.3,0.3-1,1.3-0.7s1.2,0.9,0.9,1.1C12.3,189.5,10.6,189,10.5,188.7z"/>
	</g>
	<g>
		<g>
			<path class="st67" d="M51.4,173.4c-4.8,2.2-9.6,4.3-14.4,6.3c-1.7,0.7-3.4,1.4-5.1,2.2c0,0,0.4,0.5,0.6,0.5
				c1.7-0.8,3.4-1.5,5.1-2.2c4.8-2,9.6-4.1,14.4-6.3C52,173.9,51.5,173.4,51.4,173.4L51.4,173.4z"/>
		</g>
	</g>
	<g>
		<path class="st68" d="M30,180.8c-0.1-0.1,0.5-2-1.4-1.1"/>
		<path class="st69" d="M29.7,180.9c-0.1-0.2,0.5-2-1.4-1.1"/>
		<path class="st69" d="M29.4,181.1c-0.1-0.2,0.5-1.9-1.4-1.1"/>
		<path class="st69" d="M29.2,181.2c-0.1-0.2,0.4-1.9-1.5-1.1"/>
		<path class="st69" d="M28.9,181.4c-0.1-0.2,0.4-1.9-1.5-1.1"/>
		<path class="st69" d="M28.6,181.5c-0.1-0.3,0.4-1.9-1.5-1.1"/>
		<path class="st69" d="M28.3,181.6c-0.1-0.3,0.3-1.9-1.5-1.1"/>
		<path class="st69" d="M28,181.8c-0.1-0.3,0.3-1.9-1.5-1.1"/>
		<path class="st69" d="M27.7,181.9c-0.1-0.3,0.3-1.9-1.5-1.1"/>
		<path class="st69" d="M27.5,182c-0.1-0.4,0.2-1.9-1.5-1.1"/>
		<path class="st69" d="M27.2,182.2c-0.1-0.4,0.2-1.9-1.5-1.1"/>
		<path class="st69" d="M26.9,182.3c-0.1-0.4,0.1-1.9-1.6-1.1"/>
		<path class="st69" d="M26.6,182.5c-0.1-0.4,0.1-1.9-1.6-1.1"/>
		<path class="st69" d="M26.3,182.6c-0.1-0.5,0.1-1.9-1.6-1.1"/>
		<path class="st69" d="M26,182.7c-0.1-0.5,0-1.9-1.6-1.1"/>
		<path class="st69" d="M25.8,182.9c-0.1-0.5,0-1.9-1.6-1.1"/>
		<path class="st69" d="M25.5,183c-0.1-0.5,0-1.8-1.6-1"/>
		<path class="st69" d="M25.2,183.1c-0.1-0.6-0.1-1.8-1.6-1"/>
		<path class="st69" d="M24.9,183.3c-0.1-0.6-0.1-1.8-1.7-1"/>
		<path class="st69" d="M24.6,183.4c-0.1-0.6-0.1-1.8-1.7-1"/>
		<path class="st69" d="M24.4,183.6c-0.1-0.6-0.2-1.8-1.7-1"/>
		<path class="st69" d="M24.1,183.7c-0.1-0.7-0.2-1.8-1.7-1"/>
		<path class="st69" d="M23.8,183.8c-0.1-0.7-0.3-1.8-1.7-1"/>
		<path class="st69" d="M23.5,184c-0.1-0.7-0.3-1.8-1.7-1"/>
		<path class="st69" d="M23.2,184.1c-0.1-0.7-0.3-1.8-1.7-1"/>
		<path class="st69" d="M22.9,184.2c-0.1-0.8-0.4-1.8-1.8-1"/>
		<path class="st69" d="M22.7,184.4c-0.1-0.8-0.4-1.8-1.8-1"/>
		<path class="st69" d="M22.4,184.5c-0.1-0.8-0.4-1.8-1.8-1"/>
		<path class="st69" d="M22.1,184.7c-0.1-0.8-0.5-1.8-1.8-1"/>
		<path class="st69" d="M21.8,184.8c-0.1-0.9-0.5-1.8-1.8-1"/>
		<path class="st69" d="M21.5,184.9c-0.1-0.9-0.5-1.8-1.8-1"/>
		<path class="st69" d="M21.2,185.1c0-0.9-0.6-1.7-1.8-1"/>
		<path class="st69" d="M21,185.2c0-0.9-0.6-1.7-1.8-1"/>
		<path class="st69" d="M20.7,185.3c0-1-0.7-1.7-1.9-1"/>
		<path class="st69" d="M20.4,185.5c0-1-0.7-1.7-1.9-1"/>
		<path class="st69" d="M20.1,185.6c0-1-0.7-1.7-1.9-1"/>
		<path class="st69" d="M19.8,185.8c0-1-0.8-1.7-1.9-0.9"/>
		<path class="st69" d="M19.5,185.9c0-1.1-0.8-1.7-1.9-0.9"/>
		<path class="st69" d="M19.3,186c0-1.1-0.8-1.7-1.9-0.9"/>
		<path class="st69" d="M19,186.2c0-1.1-0.9-1.7-1.9-0.9"/>
		<path class="st69" d="M18.7,186.3c0-1.2-0.9-1.7-2-0.9"/>
		<path class="st69" d="M18.4,186.4c0-1.2-0.9-1.7-2-0.9"/>
		<path class="st69" d="M18.1,186.6c0-1.2-1-1.7-2-0.9"/>
		<path class="st69" d="M17.8,186.7c0-1.2-1-1.7-2-0.9"/>
		<path class="st69" d="M17.6,186.9c0-1.3-1.1-1.7-2-0.9"/>
		<path class="st69" d="M17.3,187c0-1.3-1.1-1.7-2-0.9"/>
		<path class="st69" d="M17,187.1c0-1.3-1.1-1.6-2-0.9"/>
		<path class="st69" d="M16.7,187.3c0-1.3-1.2-1.6-2.1-0.9"/>
		<path class="st69" d="M16.4,187.4c0-1.4-1.2-1.6-2.1-0.9"/>
		<path class="st69" d="M16.1,187.5c0-1.4-1.2-1.6-2.1-0.9"/>
		<path class="st69" d="M15.9,187.7c0-1.4-1.3-1.6-2.1-0.9"/>
		<path class="st69" d="M15.6,187.8c0-1.4-1.3-1.6-2.1-0.9"/>
	</g>
</g>
<g>
	<g>
		<path class="st3" d="M17.4,153.2c10.1,5.6,20.3,11.3,30.3,17.2c1.7,1,3.5,2,5.1,3.2c2.4,1.8,5.8,1.9,8.7,2.2
			c3.5,0.3,6.6,0.2,9.9,1.8c2.3,1.1,4.7,3.7,4.7,6.4c0,0.7-0.1,1.5-0.2,2.2c-0.1,6.1-0.3,12.3-0.4,18.4c0,0.3,1.1,0.1,1.1-0.3
			c0.1-5.6,0.2-11.2,0.4-16.9c0-0.9,0-1.8,0.1-2.7c0.2-1.9-0.3-3.4-1.5-5c-2.3-3.1-6.3-4.1-9.9-4.3c-1.8-0.1-3.6-0.2-5.3-0.5
			c-1.8-0.2-3.8-0.4-5.5-1.2c-1.5-0.7-2.9-1.9-4.4-2.8c-6-3.6-12.2-7-18.3-10.5c-4.6-2.6-9.2-5.2-13.9-7.8
			C18,152.5,17,152.9,17.4,153.2L17.4,153.2z"/>
	</g>
</g>
<g>
	<g>
		<path class="st3" d="M52.3,135.6c5.1,2.8,10.2,5.5,15.3,8.3c6.6,3.6,13.2,7.1,19.9,10.7c1.8,1,3.7,1.6,5.6,2.2
			c2.1,0.8,4.3,1.5,6.5,2.1c2.7,0.6,5.5,1,7.5,3.1c1.7,1.8,2.8,4.9,2.5,7.3c-0.1,0.8-0.1,1.6-0.2,2.4c-0.2,3.7-0.3,7.4-0.4,11
			c-0.1,4.5-0.3,9-0.4,13.6c-0.1,2.8-0.3,5.7-0.2,8.5c0,0.1,0,0.3,0,0.4c0,0.3,1.1,0.1,1.1-0.3c0.2-6.4,0.3-12.8,0.5-19.3
			c0.1-4.2,0.2-8.4,0.4-12.5c0.1-2.5,0.6-5-0.2-7.4c-0.9-3-2.6-5.1-5.6-6.2c-2.2-0.8-4.5-1.1-6.8-1.8c-2.9-0.9-6-1.8-8.8-3.1
			c-5.9-2.9-11.7-6.3-17.5-9.4c-3.8-2.1-7.7-4.2-11.5-6.2c-2.2-1.2-4.4-2.5-6.7-3.6c-0.1-0.1-0.2-0.1-0.3-0.2
			C52.9,134.9,51.9,135.3,52.3,135.6L52.3,135.6z"/>
	</g>
</g>
<g>
	<g>
		<path class="st3" d="M55.8,133.6c5.3,2.8,10.7,5.7,16,8.5c6.5,3.4,12.9,6.9,19.4,10.3c2.3,1.2,4.8,2.2,7.2,3.2
			c1.9,0.8,3.8,1.5,5.8,1.9c3.6,0.7,6.4,2.4,7.7,5.9c0.6,1.5,0.8,2.9,0.7,4.5c0,1,0,2-0.1,3c-0.1,3.9-0.1,7.9-0.2,11.8
			c-0.1,4.5-0.2,9.1-0.2,13.6c0,2.8-0.3,5.6-0.1,8.4c0,0.1,0,0.3,0,0.4c0,0.3,1.1,0.1,1.1-0.3c0.1-6.4,0.2-12.7,0.3-19.1
			c0.1-6.3,0-13,0.4-19c0.1-1.4-0.5-2.9-1-4.2c-0.6-1.4-1.4-2.6-2.6-3.5c-2.2-1.6-4.8-1.8-7.2-2.6c-3.5-1.1-7.1-2.7-10.4-4.3
			c-5.6-2.8-11.1-5.9-16.7-8.9c-4-2.1-8-4.3-12-6.4c-2.3-1.2-4.6-2.6-7-3.7c-0.1-0.1-0.2-0.1-0.3-0.2
			C56.4,132.9,55.4,133.4,55.8,133.6L55.8,133.6z"/>
	</g>
</g>
<g>
	<g>
		<path class="st3" d="M62,130.7c5.7,3.2,11.4,6.3,17.2,9.5c3.9,2.2,7.8,4.3,11.7,6.5c1.8,1,3.6,2.1,5.4,3c1.2,0.5,2.5,0.9,3.7,1.3
			c2.3,0.8,4.7,1.7,7.1,2.4c1.8,0.6,3.6,1,5.5,1.4c3.3,0.8,5.5,3.2,5.9,6.6c0.2,1.4-0.1,2.7-0.2,4.1c-0.1,1.2-0.1,2.4-0.1,3.6
			c0,4.3,0,8.5,0,12.8c0,4.7,0,9.5,0.1,14.2c0,2.9-0.2,5.8,0.1,8.6c0,0.1,0,0.3,0,0.4c0,0.3,1.1,0.1,1.1-0.3
			c-0.1-6.6-0.1-13.2-0.1-19.8c0-4.6,0-9.3,0-13.9c0-2.2-0.2-4.6,0.2-6.7c0.5-2.8-0.1-5.7-1.9-7.8c-1.6-1.9-3.9-2.2-6.2-2.7
			c-4.4-1-8.7-2.8-13-4.3c-1.5-0.5-2.8-1.3-4.2-2.1c-3.6-2-7.2-4-10.8-6c-6.7-3.7-13.3-7.5-20-11c-0.1-0.1-0.3-0.1-0.4-0.2
			C62.6,130.1,61.6,130.5,62,130.7L62,130.7z"/>
	</g>
</g>
<g>
	<g>
		<path class="st3" d="M71.4,126.2c6.1,3.3,12.1,6.6,18.2,9.9c3.9,2.1,7.8,4.2,11.7,6.3c1.5,0.8,3,1.7,4.6,2.4
			c2.2,0.9,4.4,1.8,6.6,2.7c1.9,0.7,3.8,1.5,5.7,1.9c1.7,0.3,3.5,0.6,5.1,1.4c1.8,0.9,2.6,2.7,3.5,4.4c0.5,1,1.1,2.1,0.9,3.2
			c0,0.3,0,0.5-0.1,0.8c-0.5,7.8-0.4,15.6-0.5,23.5c-0.1,4.7-0.2,9.4-0.2,14.1c0,2.7-0.3,5.4-0.1,8c0,0.1,0,0.3,0,0.4
			c0,0.3,1.1,0.1,1.1-0.3c0.1-6.3,0.2-12.7,0.3-19c0.1-8.6,0.2-17.2,0.6-25.8c0-0.6,0.1-1.2,0.1-1.9c0.1-1.5-0.7-2.9-1.4-4.2
			c-0.7-1.3-1.4-2.6-2.7-3.4c-2.3-1.4-5.1-1.4-7.6-2.2c-2.4-0.8-4.8-1.8-7.2-2.7c-5.6-2.3-10.7-5.3-16-8.2
			c-7.1-3.8-14.1-7.8-21.2-11.5c-0.1-0.1-0.3-0.1-0.4-0.2C72,125.6,71,126,71.4,126.2L71.4,126.2z"/>
	</g>
</g>
<g>
	<g>
		<path class="st3" d="M75.3,124.3c6.1,3.5,12.1,7,18.2,10.5c3.8,2.2,7.6,4.4,11.4,6.6c1.6,0.9,3,1.8,4.7,2.5
			c4.3,1.7,8.6,3.3,13.1,4.3c1.8,0.4,3.7,1,5.1,2.3c1.4,1.2,2.2,3.1,2.7,4.8c0.4,1.3,0.3,2.3,0.2,3.6c-0.4,7.9-0.3,15.9-0.3,23.8
			c0,4.7-0.1,9.5-0.1,14.2c0,2.7-0.3,5.4,0,8.1c0,0.1,0,0.3,0,0.4c0,0.3,1.1,0.1,1.1-0.3c0-6.4,0.1-12.8,0.1-19.2
			c0.1-8.7,0-17.3,0.3-26c0-0.7,0-1.4,0.1-2c0.3-2.6-1.1-6-3.1-7.8c-2.1-1.9-4.9-2.2-7.5-2.9c-2.5-0.7-4.9-1.6-7.3-2.5
			c-2.2-0.8-4.3-1.5-6.3-2.7c-3.3-1.9-6.6-3.8-9.9-5.7c-7-4.1-14-8.3-21.2-12.2c-0.1-0.1-0.3-0.2-0.4-0.2
			C75.9,123.6,74.9,124.1,75.3,124.3L75.3,124.3z"/>
	</g>
</g>
<g>
	<g>
		<path class="st3" d="M65.9,129c5.9,3.2,11.8,6.5,17.6,9.7c4,2.2,7.9,4.4,11.9,6.6c1.7,0.9,3.3,1.9,5,2.7c3.8,1.8,7.8,3.5,11.8,4.7
			c2.6,0.8,5.5,0.9,7.5,2.9c2,2.1,1.7,4.6,1.5,7.2c-0.1,2,0,4,0,6c0,4.5,0,8.9,0.1,13.4c0,4.7,0.1,9.4,0.1,14.1c0,2.8-0.2,5.6,0,8.4
			c0,0.1,0,0.3,0,0.4c0,0.3,1.1,0.1,1.1-0.3c0-6.5-0.1-13-0.1-19.4c0-7.5-0.2-15-0.1-22.6c0-1.1,0.3-2.5,0.2-3.8
			c-0.3-3.2-2.6-5.1-5.5-6c-1.2-0.4-2.4-0.5-3.5-0.8s-2.2-0.7-3.2-1.1c-2.4-0.9-4.7-1.9-7-2.8c-5.4-2.3-10.4-5.5-15.5-8.3
			c-6.9-3.8-13.7-7.7-20.6-11.4c-0.1-0.1-0.3-0.1-0.4-0.2C66.5,128.3,65.5,128.7,65.9,129L65.9,129z"/>
	</g>
</g>
<g>
	<g>
		<path class="st3" d="M24.8,149.7c10.2,6.4,20.4,12.7,30.6,19.1c0.9,0.6,1.9,1.5,3,1.7c3.2,0.8,6.5,1.2,9.6,1.7
			c3.6,0.7,7.9,1,10.9,3.2c2.6,2,3.1,5.8,3,8.7c-0.2,6.6-0.3,13.2-0.5,19.8c0,0.4,1.1,0.2,1.1-0.2c0.2-6.1,0.3-12.3,0.5-18.4
			c0.1-2.4,0-4.7-0.8-7.1c-1.5-4.3-6.2-5.3-10.2-6c-3.6-0.7-7.2-1.3-10.8-2c-0.6-0.1-1.2-0.2-1.7-0.3c-0.1,0-0.8-0.2-0.7-0.1
			c-0.4-0.2-0.8-0.5-1.2-0.7c-5.6-3.5-11.3-7-16.9-10.5c-5.1-3.2-10.1-6.3-15.2-9.5C25.4,149.1,24.4,149.5,24.8,149.7L24.8,149.7z"
			/>
	</g>
</g>
<g>
	<g>
		<path class="st3" d="M27.6,148.2c10.5,6.2,21,12.5,31.5,18.7c1,0.6,1.8,1.2,3,1.5c3.5,0.8,7,1.6,10.4,2.3
			c3.9,0.9,8.7,1.2,11.3,4.6c1.7,2.3,1.6,5.4,1.5,8.2c-0.1,6.9-0.3,13.7-0.5,20.6c0,0.3,1.1,0.1,1.1-0.3c0.2-6.2,0.3-12.5,0.4-18.7
			c0.1-2.6,0.3-5.5-0.4-8c-1.2-4.5-6.5-5.5-10.4-6.4c-3.4-0.7-6.8-1.5-10.2-2.3c-1-0.2-2.2-0.3-3.2-0.7c0.2,0.1-0.1-0.1-0.1-0.1
			c-0.3-0.1-0.5-0.3-0.8-0.5c-5.7-3.4-11.4-6.8-17.2-10.2c-5.2-3.1-10.4-6.2-15.6-9.3C28.2,147.5,27.2,147.9,27.6,148.2L27.6,148.2z
			"/>
	</g>
</g>
<g>
	<g>
		<path class="st3" d="M33.3,144.8c10.5,6.2,21.1,12.4,31.6,18.7c1,0.6,2,1.4,3.2,1.7c3.2,0.9,6.6,1.5,9.9,2.2
			c4.1,0.9,8.4,1.5,11,5.2c1.4,2,2.2,4,2.2,6.4c0,1.4-0.1,2.8-0.1,4.2c-0.3,7.2-0.7,14.4-1.1,21.7c0,0.4,1.1,0.2,1.1-0.2
			c0.3-6.4,0.7-12.8,1-19.2c0.1-2.7,0.5-5.5,0.2-8.1c-0.3-2.8-2.2-6.1-4.5-7.7c-1.9-1.3-4.2-1.8-6.5-2.3c-3.3-0.7-6.6-1.5-9.9-2.2
			c-0.7-0.2-1.4-0.3-2.1-0.5c-0.1,0-0.7-0.2-0.6-0.1c-0.4-0.2-0.8-0.5-1.2-0.7c-5.9-3.5-11.7-6.9-17.6-10.4
			c-3.3-1.9-6.5-3.9-9.8-5.8c-1.8-1.1-3.6-2.3-5.5-3.3c-0.1,0-0.2-0.1-0.3-0.2C33.9,144.1,32.9,144.5,33.3,144.8L33.3,144.8z"/>
	</g>
</g>
<g>
	<g>
		<path class="st3" d="M36.6,143.6c4.6,2.6,9.2,5.3,13.8,7.9c6.4,3.7,12.8,7.4,19.2,11.1c1.3,0.7,2.1,1.1,3.5,1.4
			c3.6,0.8,7.2,1.6,10.8,2.4c1.9,0.4,4,0.6,5.7,1.6c1.3,0.8,2.1,2.1,2.9,3.4c0.8,1.3,1.5,2.8,1.7,4.4c0.3,2.2-0.1,4.6-0.2,6.8
			c-0.3,7.1-0.5,14.1-0.8,21.2c0,0.2,0,0.3,0,0.5c0,0.4,1.1,0.2,1.1-0.2c0.2-6.4,0.5-12.8,0.7-19.1c0.1-2.8,0.3-5.6,0.3-8.4
			c0-1.9-0.8-3.8-1.8-5.4c-1.3-2.3-2.9-3.8-5.5-4.5c-3.4-0.9-7-1.5-10.5-2.3c-1.7-0.4-3.3-0.7-5-1.1c-0.5-0.1-0.4-0.1-0.9-0.4
			c-5.8-3.3-11.6-6.7-17.4-10c-3.5-2-7-4-10.5-6.1c-2-1.2-4-2.5-6.1-3.5c-0.1,0-0.2-0.1-0.3-0.2C37.2,142.9,36.2,143.3,36.6,143.6
			L36.6,143.6z"/>
	</g>
</g>
<g>
	<g>
		<path class="st3" d="M42.8,140.6c4.9,2.7,9.8,5.5,14.7,8.2c6.4,3.6,12.8,7.2,19.2,10.7c1.5,0.9,3.1,1.2,4.8,1.7
			c3.4,1,6.7,2.1,10.1,2.8c1.5,0.3,3.1,0.7,4.4,1.7c1.3,0.9,2.2,2.4,2.8,3.8c0.6,1.5,0.9,3.2,0.9,4.8c0,2.9-0.1,5.7-0.1,8.6
			c-0.1,7.2-0.5,14.5-0.3,21.7c0,0.2,0,0.3,0,0.5c0,0.3,1.1,0.1,1.1-0.3c0.1-6.4,0.2-12.8,0.3-19.2c0.1-3.5,0.1-7,0.2-10.5
			s-0.6-7.6-3.6-9.8c-1.9-1.4-4.2-1.6-6.4-2.2c-1.6-0.4-3.2-0.9-4.8-1.4c-2-0.6-3.9-1.1-5.9-1.7c-0.5-0.2-1.1-0.3-1.6-0.5
			c-2.1-1-4-2.3-6-3.4c-3.6-2-7.3-4.1-10.9-6.1c-3.7-2.1-7.4-4.2-11.1-6.2c-2.1-1.2-4.2-2.5-6.4-3.6c-0.1-0.1-0.2-0.1-0.3-0.2
			C43.4,139.9,42.4,140.3,42.8,140.6L42.8,140.6z"/>
	</g>
</g>
<g>
	<g>
		<path class="st3" d="M46.1,138.6c5,2.9,10.1,5.8,15.1,8.6c6.4,3.7,12.8,7.3,19.2,11c1.6,0.9,3.6,1.3,5.4,1.8
			c2,0.6,4.1,1.2,6.1,1.8c1.7,0.5,3.5,0.8,5.2,1.3c4.4,1.4,6.2,5.9,6.1,10.3c-0.1,3.2-0.1,6.4-0.2,9.6c-0.1,4.4-0.2,8.9-0.3,13.3
			c-0.1,2.9-0.2,5.8-0.2,8.7c0,0.1,0,0.3,0,0.4c0,0.3,1.1,0.1,1.1-0.3c0.1-6.4,0.3-12.9,0.4-19.3c0.1-3.8,0.1-7.5,0.2-11.3
			c0.1-3.4-0.2-6.8-2.6-9.6c-1.9-2.2-4.6-2.5-7.2-3.1c-1.3-0.3-2.7-0.8-4-1.2c-2.1-0.6-4.2-1.2-6.3-1.8c-0.7-0.2-1.4-0.3-2.1-0.6
			c-2-0.9-3.9-2.2-5.7-3.3c-3.7-2.1-7.4-4.2-11.1-6.3c-3.8-2.2-7.6-4.3-11.3-6.5c-2.2-1.2-4.3-2.6-6.6-3.8c-0.1-0.1-0.2-0.1-0.3-0.2
			C46.7,137.9,45.7,138.4,46.1,138.6L46.1,138.6z"/>
	</g>
</g>
<g>
	<g>
		<g>
			<path class="st70" d="M79.1,204.1c0.2-6.4,0.3-12.8,0.6-19.2c0.1-1.3,0.3-2.6-0.1-3.8c-0.8-2.7-3.1-4.7-5.6-5.8
				c-3-1.3-6.1-1.9-9.3-2.5c-2.4-0.5-4.7-0.9-7.1-1.5c-1-0.2-1.3-0.2-1.9-0.9c-1.6-1.9-2.9-4-4.3-6.1c-4.9-7.2-9.6-14.4-14.7-21.4
				c-2.5-3.4-5-6.8-7.8-9.9c-1.8-2.1-3.8-4.4-6.3-5.9c-0.4-0.2-0.8-0.4-1.2-0.6c-0.4-0.1-1.3,0.5-0.7,0.7c2.3,0.7,4.2,3,5.8,4.7
				c2.7,2.9,5.1,6.1,7.5,9.3c5.2,7,10.1,14.3,15,21.5c1.6,2.4,3.2,4.8,4.9,7.1c0.4,0.5,0.8,1.2,1.3,1.6c1,0.8,2.7,0.8,3.9,1.1
				c3.1,0.7,6.3,1.1,9.4,1.9c4.8,1.2,10.5,3.6,10,9.5c-0.5,6.6-0.4,13.2-0.6,19.8c0,0.2,0,0.4,0,0.6C77.9,204.7,79,204.5,79.1,204.1
				L79.1,204.1z"/>
		</g>
	</g>
	<g>
		<g>
			<path class="st70" d="M88.2,204.3c0.2-6.8,0.3-13.6,0.5-20.5c0-1.4,0.1-2.8,0.1-4.3c0.1-1.7,0.2-3-0.6-4.6
				c-2.2-4.1-6.9-5.4-11.1-6.3c-1.9-0.4-3.9-0.9-5.8-1.3c-1.2-0.3-2.4-0.5-3.5-0.8c-0.5-0.1-1.6-0.3-1.9-0.5c-0.5-0.3-0.9-1-1.2-1.5
				c-0.8-1-1.5-2.1-2.2-3.2c-5-7.4-9.8-14.8-15-22c-2.7-3.7-5.4-7.3-8.4-10.8c-2-2.3-4.2-4.8-6.8-6.3c-0.4-0.2-0.9-0.4-1.3-0.6
				c-0.4-0.1-1.3,0.4-0.7,0.6c2.5,0.7,4.7,3.3,6.4,5.1c2.9,3.1,5.5,6.5,8,10c5.4,7.4,10.4,15,15.4,22.5c1.4,2.1,2.7,4.3,4.3,6.2
				c0.5,0.6,1,0.7,1.8,0.9c2.3,0.6,4.6,1.1,6.9,1.6c3.5,0.8,7.1,1.3,10.2,3c2.8,1.5,4.8,4.2,4.4,7.4c-0.1,0.9-0.1,1.8-0.1,2.8
				c-0.2,7.4-0.4,14.8-0.6,22.1c0,0.2,0,0.4,0,0.6C87.1,204.9,88.2,204.7,88.2,204.3L88.2,204.3z"/>
		</g>
	</g>
	<g>
		<g>
			<path class="st70" d="M97.3,204.4c0.1-7.1,0.3-14.1,0.5-21.2c0.1-3-0.1-6,0.2-9c0.1-0.7,0.2-1.5,0.1-2.3
				c-0.3-1.7-1.5-3.2-2.8-4.4c-2-1.8-4.8-2.6-7.4-3.2c-3.5-0.8-7-1.7-10.6-2.6c-1-0.3-1.8-0.3-2.4-1c-0.6-0.8-1.2-1.7-1.8-2.5
				c-4.9-7.4-9.7-14.9-14.8-22.2c-2.8-3.9-5.7-7.8-8.8-11.5c-2.2-2.5-4.5-5.4-7.5-7c-0.4-0.2-0.9-0.4-1.4-0.6
				c-0.3-0.1-1.2,0.3-0.9,0.4c2.8,0.7,5.1,3.4,6.9,5.5c3.2,3.5,6,7.2,8.8,11c5.4,7.5,10.4,15.2,15.5,23c0.7,1.1,1.4,2.2,2.2,3.3
				c0.3,0.4,0.6,1.1,1.1,1.4c0.4,0.3,1.2,0.3,1.6,0.5c1.2,0.3,2.3,0.6,3.5,0.9c2,0.5,4,1.1,6,1.5c1.5,0.4,3,0.7,4.5,1.2
				c3.1,1.1,6.6,3.4,7,7.1c0.1,1-0.2,2.2-0.2,3.2c0,1.6-0.1,3.2-0.1,4.8c-0.2,7.8-0.4,15.7-0.5,23.5c0,0.2,0,0.3,0,0.5
				C96.2,204.9,97.3,204.7,97.3,204.4L97.3,204.4z"/>
		</g>
	</g>
	<g>
		<g>
			<path class="st70" d="M106.4,204.7c0.1-7.2,0.3-14.4,0.4-21.6c0.1-4,0.2-7.9,0.3-11.9c0-0.9,0.2-1.8,0.3-2.7
				c0.3-3.2-2.7-6.1-5.4-7.4c-2-0.9-4-1.4-6.1-1.9c-1.8-0.4-3.6-1-5.4-1.5c-1.2-0.3-2.4-0.7-3.7-1c-0.5-0.1-1.7-0.4-1.9-0.5
				c-0.5-0.3-0.9-1.2-1.2-1.6c-4.9-7.3-9.5-14.8-14.5-22c-3-4.2-6-8.4-9.4-12.4c-2.3-2.7-4.9-5.8-8.1-7.5c-0.5-0.3-1-0.5-1.6-0.6
				c-0.3-0.1-1.3,0.4-0.7,0.6c3,0.7,5.5,3.8,7.5,5.9c3.3,3.7,6.3,7.6,9.2,11.7c5.4,7.6,10.4,15.4,15.5,23.2c0.6,0.9,1.1,1.8,1.8,2.7
				c0.5,0.7,1.1,0.7,1.9,1c3.6,1,7.1,2.2,10.8,3c3.1,0.7,6.3,1.8,8.4,4.3c0.7,0.8,1.2,1.7,1.5,2.7c0.3,0.9,0.1,1.7,0,2.6
				c0,0.2,0,0.4,0,0.6c-0.1,3.3-0.2,6.6-0.2,9.9c-0.2,8.1-0.3,16.2-0.5,24.3c0,0.2,0,0.3,0,0.5C105.3,205.3,106.4,205,106.4,204.7
				L106.4,204.7z"/>
		</g>
	</g>
	<g>
		<g>
			<path class="st70" d="M115.5,204.8c0.1-7.3,0.3-14.6,0.4-22c0.1-4.6,0.2-9.2,0.3-13.9c0-1.3,0-2.5,0.1-3.8c0-0.4,0.1-0.6,0.1-0.8
				c0.4-1.8-0.3-3.5-1.4-4.9c-3-3.9-7.9-4.3-12.1-5.6c-2.4-0.8-4.8-1.5-7.3-2.3c-0.9-0.3-1.3-0.3-1.8-1.1
				c-4.7-7.1-9.1-14.5-13.9-21.5c-3.1-4.5-6.3-9-9.9-13.2c-2.4-2.9-5.2-6.2-8.6-8c-0.5-0.3-1.1-0.5-1.7-0.6
				c-0.2-0.1-1.2,0.3-0.9,0.4c3.2,0.7,6,4,8.2,6.3c3.6,4,6.8,8.3,10,12.7c5.3,7.5,10.2,15.4,15.1,23.1c0.3,0.5,0.7,1.3,1.1,1.7
				c0.3,0.3,1,0.3,1.4,0.4c1.2,0.4,2.3,0.7,3.5,1.1c2,0.6,4,1.3,6,1.9c1.9,0.5,3.8,0.8,5.7,1.7c1.9,0.8,3.4,2.1,4.5,3.8
				c0.5,0.7,0.9,1.6,1,2.5c0.1,0.8-0.1,1.3-0.2,2.1c-0.1,0.7-0.1,1.5-0.1,2.2c-0.1,4.1-0.2,8.2-0.3,12.2c-0.2,8.4-0.3,16.8-0.4,25.1
				c0,0.2,0,0.3,0,0.5C114.4,205.2,115.5,205.1,115.5,204.8L115.5,204.8z"/>
		</g>
	</g>
	<g>
		<g>
			<path class="st70" d="M124.6,205c0.1-7.4,0.2-14.9,0.4-22.3c0.1-5.1,0.2-10.2,0.3-15.4c0-1.7,0.1-3.5,0.1-5.2
				c0-0.6,0-1.6,0.1-2.1c0.1-0.7,0.4-1.3,0.3-2.1c-0.1-1-0.6-1.9-1.1-2.7c-1.1-1.6-2.6-2.9-4.3-3.7c-1.8-0.9-4.2-1.3-5.9-1.7
				c-2.2-0.7-4.3-1.5-6.5-2.2c-1.1-0.4-2.2-0.7-3.3-1.1c-0.3-0.1-0.8-0.2-0.9-0.3c-0.6-0.5-1-1.6-1.4-2.3c-1-1.6-1.9-3.1-2.9-4.7
				c-2.8-4.6-5.7-9.1-8.7-13.6c-3.2-4.8-6.6-9.5-10.2-13.9c-2.6-3.2-5.6-6.9-9.4-8.8c-0.6-0.3-1.2-0.5-1.8-0.7
				c-0.3-0.1-1.2,0.4-0.9,0.5c1.5,0.3,2.9,1.2,4.1,2.2c1.7,1.4,3.2,2.9,4.7,4.5c3.8,4.2,7.2,8.9,10.5,13.6
				c5.2,7.4,9.8,15.1,14.6,22.8c0.4,0.7,0.5,0.8,1.3,1c2.4,0.8,4.8,1.6,7.1,2.4c1.3,0.5,2.6,0.9,4,1.2c3.7,0.7,7.3,2.3,9.3,5.7
				c0.4,0.8,0.8,1.7,0.8,2.6c0,0.6-0.2,1-0.3,1.5c0,0.2,0,0.5,0,0.7c0,1.3-0.1,2.6-0.1,3.9c-0.1,4.8-0.2,9.6-0.3,14.3
				c-0.1,8.5-0.5,17-0.4,25.5c0,0.2,0,0.3,0,0.5C123.5,205.5,124.6,205.3,124.6,205L124.6,205z"/>
		</g>
	</g>
	<g>
		<g>
			<path class="st70" d="M133.7,205.2c0.1-7.5,0.2-15,0.3-22.5c0.1-8.9,0.2-17.9,0.5-26.8c0-0.1,0-0.5,0-0.5
				c0.2-0.8,0.4-1.4,0.3-2.2c-0.2-1.1-0.7-2.1-1.4-3c-2.2-3-5.5-4.3-9-5c-1.3-0.2-2.9-0.9-4.4-1.5c-2.2-0.8-4.5-1.5-6.7-2.4
				c-0.4-0.2-0.1,0.1-0.3-0.2c-0.2-0.3-0.4-0.7-0.6-1c-0.8-1.4-1.6-2.7-2.4-4.1c-2.7-4.6-5.6-9.1-8.5-13.6
				c-3.4-5.1-6.9-10.1-10.7-14.8c-2.8-3.4-6-7.4-10.1-9.5c-0.6-0.3-1.2-0.6-1.9-0.7c-0.3,0-1.2,0.4-0.9,0.4c1.6,0.3,3.1,1.3,4.4,2.3
				c1.9,1.5,3.5,3.2,5.1,5c4,4.5,7.5,9.3,10.9,14.3c3.2,4.7,6.3,9.5,9.3,14.4c1,1.7,2,3.4,3,5.1c0.5,0.8,0.8,1.8,1.4,2.5
				s2.1,0.9,2.9,1.2c2.4,0.9,4.8,1.8,7.2,2.6c1.8,0.7,3.7,0.8,5.6,1.6c2.1,0.9,3.9,2.3,5.1,4.3c0.5,0.8,0.9,1.8,1,2.8
				c0,0.7-0.3,1.1-0.4,1.7c-0.1,0.7,0,1.5-0.1,2.2c0,1.8-0.1,3.5-0.1,5.3c-0.1,5.3-0.2,10.6-0.3,15.8c-0.1,5.4-0.2,10.9-0.3,16.3
				c0,3.2-0.2,6.5-0.1,9.7c0,0.2,0,0.3,0,0.5C132.6,205.7,133.7,205.5,133.7,205.2L133.7,205.2z"/>
		</g>
	</g>
</g>
<path class="st71" d="M75,190.5"/>
<path class="st72" d="M75.9,113.7"/>
<path class="st72" d="M96,120.7"/>
<path class="st73" d="M95.3,124.1"/>
<path class="st72" d="M84,109"/>
<path class="st74" d="M60.3,175.5c-1.3,1.4,2.5,1.2,4.1,0.4"/>
<g>
	<path class="st74" d="M118.3,142.8c0.1,0,3.6-0.9,2.8,0.2c-0.4,0.1-0.7,0.3-1,0.4"/>
</g>
<path class="st74" d="M124.9,206.8"/>
<path class="st74" d="M36.4,180.9"/>
<path class="st74" d="M54.9,171.7"/>
<g>
	<path class="st74" d="M55.6,175.1c-0.1,0.4,0.4,0.3,1.2,0c1.1-0.4,2.8-2.1,4.4-2.4"/>
	<g>
		<path class="st74" d="M113.9,141.1c0.1,0,3-0.8,2.2,0.3c0,0-2.3,0.8-3.2,2.6"/>
	</g>
	<g>
		<path class="st74" d="M111.8,142.1c-3.8-0.1-6.9,2.9-7.4,3.8"/>
	</g>
	<g>
		<path class="st74" d="M102.7,147.2c-3.8-0.1-6.9,2.9-7.4,3.8"/>
	</g>
	<g>
		<path class="st74" d="M93,152c-3.8-0.1-6.9,2.9-7.4,3.8"/>
	</g>
	<g>
		<path class="st74" d="M83.7,157.2c-3.8-0.1-6.9,2.9-7.4,3.8"/>
	</g>
	<g>
		<path class="st74" d="M74.6,162.2c-3.8-0.1-6.9,2.9-7.4,3.8"/>
	</g>
	<g>
		<path class="st74" d="M65.1,167.2c-3.8-0.1-6.9,2.9-7.4,3.8"/>
	</g>
	<g>
		<g>
			<path class="st74" d="M111.3,144.7c-3.8-0.1-6.9,2.9-7.4,3.8"/>
		</g>
		<g>
			<path class="st74" d="M102.2,149.7c-3.8-0.1-6.9,2.9-7.4,3.8"/>
		</g>
		<g>
			<path class="st74" d="M92.6,154.6c-3.8-0.1-6.9,2.9-7.4,3.8"/>
		</g>
		<g>
			<path class="st74" d="M83.3,159.7c-3.8-0.1-6.9,2.9-7.4,3.8"/>
		</g>
		<g>
			<path class="st74" d="M74.2,164.7c-3.8-0.1-6.9,2.9-7.4,3.8"/>
		</g>
		<g>
			<path class="st74" d="M64.7,169.7c-3.8-0.1-6.9,2.9-7.4,3.8"/>
		</g>
	</g>
	<path class="st74" d="M51.5,173.9c0,0,1.8-1.5,3.7-2.1"/>
</g>
<g>
	<g>
		<path class="st74" d="M110.8,146.9c-3.8-0.1-6.9,2.9-7.4,3.8"/>
	</g>
	<g>
		<path class="st74" d="M119.8,142.6c-3.8-0.1-6.9,2.9-7.4,3.8"/>
	</g>
	<g>
		<path class="st74" d="M101.7,151.9c-3.8-0.1-6.9,2.9-7.4,3.8"/>
	</g>
	<g>
		<path class="st74" d="M92,156.8c-3.8-0.1-6.9,2.9-7.4,3.8"/>
	</g>
	<g>
		<path class="st74" d="M82.7,161.9c-3.8-0.1-6.9,2.9-7.4,3.8"/>
	</g>
	<g>
		<path class="st74" d="M73.6,167c-3.8-0.1-6.9,2.9-7.4,3.8"/>
	</g>
	<g>
		<path class="st74" d="M64.1,171.9c-2.2-0.1-4.3,1.3-5.6,2.3"/>
	</g>
</g>
<g>
	<g>
		<path class="st74" d="M126.2,145c1.2-0.6-0.8-1.9-2.2-1.4c0,0-2.3,0.8-3.2,2.6"/>
	</g>
	<g>
		<path class="st74" d="M119.7,144.4c-3.8-0.1-6.9,2.9-7.4,3.8"/>
	</g>
	<g>
		<path class="st74" d="M110.6,149.4c-3.8-0.1-6.9,2.9-7.4,3.8"/>
	</g>
	<g>
		<path class="st74" d="M100.9,154.2c-3.8-0.1-6.9,2.9-7.4,3.8"/>
	</g>
	<g>
		<path class="st74" d="M91.6,159.4c-3.8-0.1-6.9,2.9-7.4,3.8"/>
	</g>
	<g>
		<path class="st74" d="M82.5,164.4c-3.8-0.1-6.9,2.9-7.4,3.8"/>
	</g>
	<g>
		<path class="st74" d="M73,169.4c-3.8-0.1-6.6,2.6-7.1,3.4"/>
	</g>
	<g>
		<g>
			<path class="st74" d="M119.2,146.9c-3.8-0.1-6.9,2.9-7.4,3.8"/>
		</g>
		<g>
			<path class="st74" d="M110.1,151.9c-3.8-0.1-6.9,2.9-7.4,3.8"/>
		</g>
		<g>
			<path class="st74" d="M100.4,156.8c-3.8-0.1-6.9,2.9-7.4,3.8"/>
		</g>
		<g>
			<path class="st74" d="M91.1,161.9c-3.8-0.1-6.9,2.9-7.4,3.8"/>
		</g>
		<g>
			<path class="st74" d="M82,167c-3.8-0.1-6.4,2.4-6.9,3.3"/>
		</g>
		<g>
			<path class="st74" d="M72.5,171.9c-3.8-0.1-6.3,2.3-6.8,3.1"/>
		</g>
	</g>
	<path class="st74" d="M60.2,175.6c0,0,1.5-1.5,4.1-2"/>
</g>
<g>
	<g>
		<path class="st74" d="M118.7,149.1c-3.8-0.1-6.9,2.9-7.4,3.8"/>
	</g>
	<g>
		<path class="st74" d="M126.4,145c-3.8-0.1-5.6,2.7-6.1,3.6"/>
	</g>
	<g>
		<path class="st74" d="M109.6,154.2c-3.8-0.1-6.9,2.9-7.4,3.8"/>
	</g>
	<g>
		<path class="st74" d="M99.9,159c-3.8-0.1-6.9,2.9-7.4,3.8"/>
	</g>
	<g>
		<path class="st74" d="M90.6,164.1c-3.8-0.1-6.9,2.9-7.4,3.8"/>
	</g>
	<g>
		<path class="st74" d="M81.5,169.2c-3.8-0.1-6.2,2.2-6.8,3.1"/>
	</g>
	<g>
		<path class="st74" d="M72,174.2c-2.2-0.1-4.5,2.6-4.5,2.6"/>
	</g>
</g>
<g>
	<path class="st74" d="M133.7,148.3c1.5,0.3,0.9,1.7,0.4,1.9"/>
</g>
<g>
	<path class="st74" d="M72.9,178.4c-0.1,0.4-1.3,2-0.5,1.7c1.1-0.4,2.8-2.1,4.4-2.4"/>
	<g>
		<path class="st74" d="M129.4,146.1c0.1,0,3-0.8,2.2,0.3c0,0-2.3,0.8-3.2,2.6"/>
	</g>
	<g>
		<path class="st74" d="M127.3,147.2c-3.8-0.1-6.9,2.9-7.4,3.8"/>
	</g>
	<g>
		<path class="st74" d="M118.2,152.2c-3.8-0.1-6.9,2.9-7.4,3.8"/>
	</g>
	<g>
		<path class="st74" d="M108.5,157c-3.8-0.1-6.9,2.9-7.4,3.8"/>
	</g>
	<g>
		<path class="st74" d="M99.2,162.2c-3.8-0.1-6.9,2.9-7.4,3.8"/>
	</g>
	<g>
		<path class="st74" d="M90.1,167.2c-3.8-0.1-6.3,2.3-6.8,3.2"/>
	</g>
	<g>
		<path class="st74" d="M81.2,171.7c-3.8-0.1-6.8,2.8-7.4,3.6"/>
	</g>
	<g>
		<g>
			<path class="st74" d="M126.9,149.7c-3.8-0.1-6.9,2.9-7.4,3.8"/>
		</g>
		<g>
			<path class="st74" d="M117.8,154.8c-3.8-0.1-6.9,2.9-7.4,3.8"/>
		</g>
		<g>
			<path class="st74" d="M108.1,159.6c-3.8-0.1-6.9,2.9-7.4,3.8"/>
		</g>
		<g>
			<path class="st74" d="M98.8,164.7c-3.8-0.1-6.9,2.9-7.4,3.8"/>
		</g>
		<g>
			<path class="st74" d="M89.7,169.8c-3.8-0.1-6.9,2.9-7.4,3.8"/>
		</g>
		<g>
			<path class="st74" d="M80.2,174.8c-3.8-0.1-6.9,2.9-7.4,3.8"/>
		</g>
	</g>
	<path class="st74" d="M67.2,176.9c-1.6,2.4,5-0.7,5-0.7"/>
</g>
<g>
	<g>
		<path class="st74" d="M125.2,152.5c-3.8-0.1-6.9,2.9-7.4,3.8"/>
	</g>
	<g>
		<path class="st74" d="M134.1,148.3c-3.8-0.1-6.9,2.9-7.4,3.8"/>
	</g>
	<g>
		<path class="st74" d="M116,157.6c-3.8-0.1-6.9,2.9-7.4,3.8"/>
	</g>
	<g>
		<path class="st74" d="M106.4,162.4c-3.8-0.1-6.9,2.9-7.4,3.8"/>
	</g>
	<g>
		<path class="st74" d="M97.1,167.6c-3.8-0.1-6.9,2.9-7.4,3.8"/>
	</g>
	<g>
		<path class="st74" d="M88,172.6c-3.8-0.1-6.9,2.9-7.4,3.8"/>
	</g>
	<g>
		<path class="st74" d="M78.5,177.6c-2.2-0.1-4.3,1-5.6,2"/>
	</g>
</g>
<path class="st74" d="M77.2,179.5c-4,2.2-2.7,3.2-1.6,3.2"/>
<g>
	<path class="st74" d="M132.6,153.7c0.1,0,3.1-1.4,3.7-0.2c0.4,0.8-0.6,1-1.6,1.5"/>
</g>
<g>
	<path class="st74" d="M132.5,151c-3.8-0.1-6.9,2.9-7.4,3.8"/>
</g>
<g>
	<path class="st74" d="M123.4,156c-3.8-0.1-6.9,2.9-7.4,3.8"/>
</g>
<g>
	<path class="st74" d="M113.8,160.8c-3.8-0.1-6.9,2.9-7.4,3.8"/>
</g>
<g>
	<path class="st74" d="M104.1,166.3c-3.8-0.1-6.2,2.2-6.7,3"/>
</g>
<g>
	<path class="st74" d="M94.8,171.3c-3.8-0.1-5.8,2.1-6.3,3"/>
</g>
<g>
	<path class="st74" d="M86.7,175.5c-3.8-0.1-7.1,2.5-7.6,3.4"/>
</g>
<g>
	<g>
		<path class="st74" d="M130.2,154.8c-3.8-0.1-6.9,2.9-7.4,3.8"/>
	</g>
	<g>
		<path class="st74" d="M121.1,159.8c-3.8-0.1-6.9,2.9-7.4,3.8"/>
	</g>
	<g>
		<path class="st74" d="M111.4,164.6c-3.8-0.1-6.9,2.9-7.4,3.8"/>
	</g>
	<g>
		<path class="st74" d="M102.1,169.8c-3.8-0.1-6,2-6.6,2.9"/>
	</g>
	<g>
		<path class="st74" d="M93,174.2c-3.8-0.1-5.2,2.2-5.7,3.1"/>
	</g>
	<g>
		<path class="st74" d="M84.6,178.4c-3.1,0.4-4.3,1.6-6.5,3.2"/>
	</g>
</g>
<g>
	<g>
		<path class="st75" d="M118.2,163.6c-3.5-0.1-6.5,2.7-7,3.6"/>
	</g>
	<g>
		<path class="st75" d="M127.4,159.1c-3.5-0.1-6.5,2.7-7,3.6"/>
	</g>
	<g>
		<path class="st75" d="M109.2,168.1c-3.5-0.1-6.5,2.7-7,3.6"/>
	</g>
	<g>
		<path class="st75" d="M100,173c-3.5-0.1-6.5,2.7-7,3.6"/>
	</g>
	<g>
		<path class="st75" d="M90.2,177.9c-3.5-0.1-6.5,2.7-7,3.6"/>
	</g>
	<g>
		<path class="st75" d="M81.5,182.3c-2.3-0.1-4.3,1.1-5.6,2.1c-0.7,0.6-1.4,1.2-0.2,1.4"/>
	</g>
	<g>
		<path class="st75" d="M135.1,154.8c-3,0.5-5.3,2.7-5.7,3.5"/>
	</g>
</g>
<path class="st74" d="M77.5,186c-4,2.1-2.8,3.1-1.6,3.1"/>
<g>
	<path class="st74" d="M132.7,160.9c0.1,0,3.1-1.4,3.7-0.1c0.4,0.8-0.6,1-1.6,1.5"/>
</g>
<g>
	<path class="st74" d="M133.3,158.5c-3.8-0.2-7,2.8-7.5,3.6"/>
</g>
<g>
	<path class="st74" d="M124.1,163.4c-3.8-0.2-7,2.8-7.5,3.6"/>
</g>
<g>
	<path class="st74" d="M114.4,168c-3.8-0.2-7,2.8-7.5,3.6"/>
</g>
<g>
	<path class="st74" d="M104.6,173.4c-3.8-0.2-6.2,2-6.7,2.9"/>
</g>
<g>
	<path class="st74" d="M95.9,177.3c-3.8-0.2-5.8,2-6.4,2.9"/>
</g>
<g>
	<path class="st74" d="M87.5,181.5c-3.8-0.2-7.1,2.4-7.7,3.3"/>
</g>
<g>
	<g>
		<path class="st74" d="M130.5,162c-3.8-0.2-7,2.8-7.5,3.6"/>
	</g>
	<g>
		<path class="st74" d="M121.3,166.9c-3.8-0.2-7,2.8-7.5,3.6"/>
	</g>
	<g>
		<path class="st74" d="M111.6,171.6c-3.8-0.2-7,2.8-7.5,3.6"/>
	</g>
	<g>
		<path class="st74" d="M102.2,176.5c-3.8-0.2-6.1,1.9-6.6,2.8"/>
	</g>
	<g>
		<path class="st74" d="M93,180.8c-3.8-0.2-5.2,2.1-5.7,3"/>
	</g>
	<g>
		<path class="st74" d="M84.5,184.8c-3.1,0.4-4.4,1.5-6.5,3"/>
	</g>
</g>
<g>
	<g>
		<path class="st75" d="M118.4,170.6c-3.5-0.1-6.5,2.6-7,3.4"/>
	</g>
	<g>
		<path class="st75" d="M127.7,166.2c-3.5-0.1-6.5,2.6-7,3.4"/>
	</g>
	<g>
		<path class="st75" d="M109.3,174.9c-3.5-0.1-6.5,2.6-7,3.4"/>
	</g>
	<g>
		<path class="st75" d="M100.1,179.7c-3.5-0.1-6.5,2.6-7,3.4"/>
	</g>
	<g>
		<path class="st75" d="M90.1,184.3c-3.5-0.1-6.5,2.6-7,3.4"/>
	</g>
	<g>
		<path class="st75" d="M81.4,188.6c-2.3-0.1-4.3,1-5.6,2c-0.7,0.6-1.4,1.2-0.2,1.4"/>
	</g>
	<g>
		<path class="st75" d="M135.5,162.1c-3,0.4-5.3,2.6-5.8,3.4"/>
	</g>
</g>
<path class="st74" d="M77.3,193.1c-4,2.1-2.8,3.1-1.6,3.1"/>
<g>
	<path class="st74" d="M132.5,168c0.1,0,3.1-1.4,3.7-0.1c0.4,0.8-0.6,1-1.6,1.5"/>
</g>
<g>
	<path class="st74" d="M133.2,165.5c-3.8-0.2-7,2.8-7.5,3.6"/>
</g>
<g>
	<path class="st74" d="M124,170.4c-3.8-0.2-7,2.8-7.5,3.6"/>
</g>
<g>
	<path class="st74" d="M114.2,175.1c-3.8-0.2-7,2.8-7.5,3.6"/>
</g>
<g>
	<path class="st74" d="M104.4,180.4c-3.8-0.2-6.2,2-6.7,2.9"/>
</g>
<g>
	<path class="st74" d="M95.4,184.3c-3.8-0.2-5.8,2-6.4,2.9"/>
</g>
<g>
	<path class="st74" d="M87,188.4c-3.8-0.2-7.1,2.4-7.7,3.3"/>
</g>
<g>
	<g>
		<path class="st74" d="M130.4,169c-3.8-0.2-7,2.8-7.5,3.6"/>
	</g>
	<g>
		<path class="st74" d="M121.2,173.9c-3.8-0.2-7,2.8-7.5,3.6"/>
	</g>
	<g>
		<path class="st74" d="M111.4,178.5c-3.8-0.2-7,2.8-7.5,3.6"/>
	</g>
	<g>
		<path class="st74" d="M102,183.5c-3.8-0.2-6.1,1.9-6.6,2.8"/>
	</g>
	<g>
		<path class="st74" d="M92.9,187.7c-3.8-0.2-5.2,2.1-5.7,3"/>
	</g>
	<g>
		<path class="st74" d="M84.3,191.8c-3.1,0.4-4.4,1.5-6.5,3"/>
	</g>
</g>
<g>
	<g>
		<path class="st75" d="M118.2,177.6c-3.5-0.1-6.5,2.6-7,3.4"/>
	</g>
	<g>
		<path class="st75" d="M127.6,173.3c-3.5-0.1-6.5,2.6-7,3.4"/>
	</g>
	<g>
		<path class="st75" d="M109.2,181.9c-3.5-0.1-6.5,2.6-7,3.4"/>
	</g>
	<g>
		<path class="st75" d="M99.9,186.7c-3.5-0.1-6.5,2.6-7,3.4"/>
	</g>
	<g>
		<path class="st75" d="M89.9,191.4c-3.5-0.1-6.5,2.6-7,3.4"/>
	</g>
	<g>
		<path class="st75" d="M81.2,195.7c-2.3-0.1-4.3,1-5.6,2c-0.7,0.6-1.4,1.2-0.2,1.4"/>
	</g>
	<g>
		<path class="st75" d="M135.3,169.2c-3,0.4-5.3,2.6-5.8,3.4"/>
	</g>
</g>
<path class="st74" d="M76.3,200c-4,2.1-2.8,3.1-1.6,3.1"/>
<g>
	<path class="st74" d="M132,175.3c0.1,0,3.1-1.4,3.7-0.1c0.4,0.8-0.6,1-1.6,1.5"/>
</g>
<g>
	<path class="st74" d="M132.6,172.8c-3.8-0.2-7,2.8-7.5,3.6"/>
</g>
<g>
	<path class="st74" d="M123.4,177.7c-3.8-0.2-7,2.8-7.5,3.6"/>
</g>
<g>
	<path class="st74" d="M114.2,182c-3.8-0.2-7,2.8-7.5,3.6"/>
</g>
<g>
	<path class="st74" d="M104.7,187.2c-3.8-0.2-6.2,2-6.7,2.9"/>
</g>
<g>
	<path class="st74" d="M95.5,191.5c-3.8-0.2-5.8,2-6.4,2.9"/>
</g>
<g>
	<path class="st74" d="M86.8,195.7c-3.8-0.2-7.1,2.4-7.7,3.3"/>
</g>
<g>
	<g>
		<path class="st74" d="M129.8,176.3c-3.8-0.2-7,2.8-7.5,3.6"/>
	</g>
	<g>
		<path class="st74" d="M120.6,181.2c-3.8-0.2-7,2.8-7.5,3.6"/>
	</g>
	<g>
		<path class="st74" d="M110.8,185.9c-3.8-0.2-7,2.8-7.5,3.6"/>
	</g>
	<g>
		<path class="st74" d="M101.5,190.9c-3.8-0.2-6.1,1.9-6.6,2.8"/>
	</g>
	<g>
		<path class="st74" d="M92.3,195.1c-3.8-0.2-5.2,2.1-5.7,3"/>
	</g>
	<g>
		<path class="st74" d="M83.8,199.1c-3.1,0.4-4.4,1.5-6.5,3"/>
	</g>
</g>
<g>
	<g>
		<path class="st75" d="M117.7,184.9c-3.5-0.1-6.5,2.6-7,3.4"/>
	</g>
	<g>
		<path class="st75" d="M127,180.6c-3.5-0.1-6.5,2.6-7,3.4"/>
	</g>
	<g>
		<path class="st75" d="M108.6,189.2c-3.5-0.1-6.5,2.6-7,3.4"/>
	</g>
	<g>
		<path class="st75" d="M99.3,194c-3.5-0.1-6.5,2.6-7,3.4"/>
	</g>
	<g>
		<path class="st75" d="M89.4,198.7c-3.5-0.1-6.5,2.6-7,3.4"/>
	</g>
	<g>
		<path class="st75" d="M80.7,203c-2.3-0.1-4.3,1-5.6,2c-0.7,0.6-1.4,1.2-0.2,1.4"/>
	</g>
	<g>
		<path class="st75" d="M134.7,176.5c-3,0.4-5.3,2.6-5.8,3.4"/>
	</g>
</g>
<g>
	<path class="st74" d="M132.2,182.6c0.1,0,3.1-1.4,3.7-0.1c0.4,0.8-0.6,1-1.6,1.5"/>
</g>
<g>
	<path class="st74" d="M132.8,180.1c-3.8-0.2-7,2.8-7.5,3.6"/>
</g>
<g>
	<path class="st74" d="M123.6,185c-3.8-0.2-7,2.8-7.5,3.6"/>
</g>
<g>
	<path class="st74" d="M114.3,189.3c-3.8-0.2-7,2.8-7.5,3.6"/>
</g>
<g>
	<path class="st74" d="M104.8,194.4c-3.8-0.2-6.2,2-6.7,2.9"/>
</g>
<g>
	<path class="st74" d="M95.6,198.8c-3.8-0.2-5.8,2-6.4,2.9"/>
</g>
<g>
	<path class="st74" d="M87,203c-3.8-0.2-7.1,2.4-7.7,3.3"/>
</g>
<g>
	<g>
		<path class="st74" d="M130,183.6c-3.8-0.2-7,2.8-7.5,3.6"/>
	</g>
	<g>
		<path class="st74" d="M120.8,188.5c-3.8-0.2-7,2.8-7.5,3.6"/>
	</g>
	<g>
		<path class="st74" d="M111,193.1c-3.8-0.2-7,2.8-7.5,3.6"/>
	</g>
	<g>
		<path class="st74" d="M101.6,198.1c-3.8-0.2-6.1,1.9-6.6,2.8"/>
	</g>
	<g>
		<path class="st74" d="M92.5,202.3c-3.8-0.2-5.2,2.1-5.7,3"/>
	</g>
</g>
<g>
	<g>
		<path class="st75" d="M117.8,192.2c-3.5-0.1-6.5,2.6-7,3.4"/>
	</g>
	<g>
		<path class="st75" d="M127.2,187.8c-3.5-0.1-6.5,2.6-7,3.4"/>
	</g>
	<g>
		<path class="st75" d="M108.8,196.5c-3.5-0.1-6.5,2.6-7,3.4"/>
	</g>
	<g>
		<path class="st75" d="M99.5,201.3c-3.5-0.1-6.5,2.6-7,3.4"/>
	</g>
	<g>
		<path class="st75" d="M134.9,183.8c-3,0.4-5.3,2.6-5.8,3.4"/>
	</g>
</g>
<g>
	<path class="st74" d="M131.7,190.5c0.1,0,3.1-1.4,3.7-0.1c0.4,0.8-0.6,1-1.6,1.5"/>
</g>
<g>
	<path class="st74" d="M132.4,188c-3.8-0.2-7,2.8-7.5,3.6"/>
</g>
<g>
	<path class="st74" d="M123.2,192.9c-3.8-0.2-7,2.8-7.5,3.6"/>
</g>
<g>
	<path class="st74" d="M113.9,197.2c-3.8-0.2-7,2.8-7.5,3.6"/>
</g>
<g>
	<path class="st74" d="M104.4,202.4c-3.8-0.2-6.2,2-6.7,2.9"/>
</g>
<g>
	<g>
		<path class="st74" d="M129.6,191.5c-3.8-0.2-7,2.8-7.5,3.6"/>
	</g>
	<g>
		<path class="st74" d="M120.4,196.4c-3.8-0.2-7,2.8-7.5,3.6"/>
	</g>
	<g>
		<path class="st74" d="M110.6,201.1c-3.8-0.2-7,2.8-7.5,3.6"/>
	</g>
</g>
<g>
	<g>
		<path class="st75" d="M117.4,200.1c-3.5-0.1-6.5,2.6-7,3.4"/>
	</g>
	<g>
		<path class="st75" d="M126.7,195.8c-3.5-0.1-6.5,2.6-7,3.4"/>
	</g>
	<g>
		<path class="st75" d="M134.5,191.7c-3,0.4-5.3,2.6-5.8,3.4"/>
	</g>
</g>
<g>
	<path class="st74" d="M132,197.6c0.1,0,3.1-1.4,3.7-0.1c0.4,0.8-0.6,1-1.6,1.5"/>
</g>
<g>
	<path class="st74" d="M132.6,195.1c-3.8-0.2-7,2.8-7.5,3.6"/>
</g>
<g>
	<path class="st74" d="M123.4,200c-3.8-0.2-7,2.8-7.5,3.6"/>
</g>
<g>
	<g>
		<path class="st74" d="M129.8,198.6c-3.8-0.2-7,2.8-7.5,3.6"/>
	</g>
	<g>
		<path class="st74" d="M120.6,203.5c-3.8-0.2-7,2.8-7.5,3.6"/>
	</g>
</g>
<g>
	<g>
		<path class="st75" d="M127,202.9c-3.5-0.1-6.5,2.6-7,3.4"/>
	</g>
	<g>
		<path class="st75" d="M134.7,198.8c-3,0.4-5.3,2.6-5.8,3.4"/>
	</g>
</g>
<g>
	<path class="st74" d="M132,204.9c0.1,0,3.1-1.4,3.7-0.1c0.4,0.8-0.6,1-1.6,1.5"/>
</g>
<g>
	<path class="st74" d="M132.6,202.4c-3.8-0.2-7,2.8-7.5,3.6"/>
</g>
<g>
	<g>
		<polygon class="st76" points="4.2,114.6 10.2,117.8 10.2,163 4.2,159.3 		"/>
		<g>
			<g>
				<path class="st61" d="M3.4,162.3c-0.6,0-1.3-0.3-1.6-1c-0.5-0.9-0.1-2,0.8-2.4l3.9-2.1c0.9-0.5,1.9-0.1,2.4,0.8
					c0.5,0.9,0.1,2-0.8,2.4l-3.9,2.1C4,162.2,3.7,162.3,3.4,162.3z"/>
			</g>
			<g>
				<path class="st61" d="M3.3,135.5c-0.7,0-1.3-0.4-1.6-1c-0.4-0.9-0.1-2,0.8-2.4l3.6-1.8c0.9-0.4,1.9-0.1,2.4,0.8
					c0.4,0.9,0.1,2-0.8,2.4l-3.6,1.8C3.8,135.5,3.6,135.5,3.3,135.5z"/>
			</g>
			<polygon class="st77" points="3.9,114.6 95.8,68.7 101.7,71.8 10.2,117.8 			"/>
		</g>
	</g>
</g>
</svg>
