<?xml version="1.0" encoding="utf-8"?>
<!-- Generator: Adobe Illustrator 25.2.3, SVG Export Plug-In . SVG Version: 6.00 Build 0)  -->
<svg version="1.1" xmlns="http://www.w3.org/2000/svg" xmlns:xlink="http://www.w3.org/1999/xlink" x="0px" y="0px"
	 viewBox="0 0 140 200" style="enable-background:new 0 0 140 200;" xml:space="preserve">
<style type="text/css">
	.st0{display:none;}
	.st1{display:inline;}
	.st2{fill:none;stroke:#B71549;stroke-width:3.3859;stroke-linecap:round;stroke-miterlimit:10;}
	.st3{fill:none;stroke:#F77441;stroke-width:5.0788;stroke-linecap:round;stroke-miterlimit:10;}
	.st4{fill:none;stroke:#F77441;stroke-width:3.3859;stroke-linecap:round;stroke-miterlimit:10;}
	.st5{fill:#F77441;}
	.st6{fill:none;stroke:#B71549;stroke-width:3.6652;stroke-linecap:round;stroke-miterlimit:10;}
	.st7{fill:none;stroke:#F77441;stroke-width:5.4978;stroke-linecap:round;stroke-miterlimit:10;}
</style>
<g id="Layer_1" class="st0">
	<g class="st1">
		<line class="st2" x1="15.9" y1="105.4" x2="90.2" y2="142.9"/>
		<line class="st2" x1="33.4" y1="96.4" x2="106.7" y2="133.5"/>
		<line class="st2" x1="51.4" y1="87.7" x2="120.7" y2="122.6"/>
		<path class="st3" d="M60.3,90.3"/>
		<path class="st3" d="M56.7,92.2"/>
		<path class="st4" d="M24.4,115.4c1.1-1.4,11.3-6,15.7-7.5s15-6.8,17.8-9.2c2.8-2.4,11.3-7.7,14-7.7"/>
		<path class="st4" d="M38.2,122.4c1.1-1.4,11.3-6,15.7-7.5s15-6.8,17.8-9.2c2.8-2.4,11.3-7.7,14-7.7"/>
		<path class="st4" d="M50.7,129.9c1.1-1.4,11.3-6,15.7-7.5c4.3-1.5,15-6.8,17.8-9.2c2.8-2.4,11.3-7.7,14-7.7"/>
		<path class="st4" d="M64.7,136.1c1.1-1.4,11.3-6,15.7-7.5c4.4-1.5,15-6.8,17.8-9.2c2.8-2.4,11.3-7.7,14-7.7"/>
		<line class="st2" x1="24.8" y1="100.7" x2="98.5" y2="138.2"/>
		<line class="st2" x1="42.1" y1="91.9" x2="113.2" y2="128.2"/>
		<g>
			<g>
				<path class="st5" d="M59.8,89.8l7.9-3.9c0.8-0.4,1.8-0.1,2.2,0.7c0.4,0.8,0.1,1.8-0.7,2.2l-5.7,2.8L59.8,89.8z"/>
			</g>
			<g>
				<path class="st5" d="M18.7,114.8c-0.6,0-1.2-0.1-1.5-0.7c-0.4-0.8-0.3-1.8,0.5-2.2c0,0,3-1.3,3.8-1.9l3.4,1.7l-5.4,2.9
					C19.2,114.8,18.9,114.8,18.7,114.8z"/>
			</g>
			<g>
				<path class="st5" d="M25.2,108.1c1.4-0.5,3.9-2.4,6.7-3.9c2.6-1.4,5.4-2.6,6.9-3.3c0.7-0.3,3.6,1.8,3.6,1.8s-5.9,2.6-7.7,3.6
					c-1.9,1-5.6,3.5-6.1,3.5L25.2,108.1z"/>
			</g>
			<g>
				<path class="st5" d="M42.3,98.8c1.4-0.5,3.9-2.4,6.7-3.9c2.6-1.4,5.4-2.6,6.9-3.3c0.7-0.3,3.6,1.8,3.6,1.8s-6,2.6-7.8,3.6
					c-1.9,1-5.6,3.5-6.1,3.5L42.3,98.8z"/>
			</g>
		</g>
		<g>
			<g>
				<path class="st5" d="M72.3,96.3l7.9-3.9c0.8-0.4,1.8-0.1,2.2,0.7c0.4,0.8,0.1,1.8-0.7,2.2L76,98.2L72.3,96.3z"/>
			</g>
			<g>
				<path class="st5" d="M31.3,121.3c-0.6,0-1.2-0.1-1.5-0.7c-0.4-0.8-0.3-1.8,0.5-2.2c0,0,3-1.3,3.8-1.9l3.4,1.7l-5.4,2.9
					C31.8,121.2,31.5,121.3,31.3,121.3z"/>
			</g>
			<g>
				<path class="st5" d="M37.8,114.5c1.4-0.5,3.9-2.4,6.7-3.9c2.6-1.4,5.4-2.6,6.9-3.3c0.7-0.3,3.6,1.8,3.6,1.8s-5.9,2.6-7.7,3.6
					c-1.9,1-5.6,3.5-6.1,3.5L37.8,114.5z"/>
			</g>
			<g>
				<path class="st5" d="M54.9,105.3c1.4-0.5,3.9-2.4,6.7-3.9c2.6-1.4,5.4-2.6,6.9-3.3c0.7-0.3,3.6,1.8,3.6,1.8s-5.9,2.6-7.7,3.6
					c-1.9,1-5.6,3.5-6.1,3.5L54.9,105.3z"/>
			</g>
		</g>
		<g>
			<g>
				<path class="st5" d="M85.9,103l7.9-3.9c0.8-0.4,1.8-0.1,2.2,0.7c0.4,0.8,0.1,1.8-0.7,2.2l-5.7,2.8L85.9,103z"/>
			</g>
			<g>
				<path class="st5" d="M44.8,128c-0.6,0-1.2-0.1-1.5-0.7c-0.4-0.8-0.3-1.8,0.5-2.2c0,0,3-1.3,3.8-1.9l3.4,1.7l-5.4,2.9
					C45.3,128,45.1,128,44.8,128z"/>
			</g>
			<g>
				<path class="st5" d="M51.3,121.3c1.4-0.5,3.9-2.4,6.7-3.9c2.6-1.4,5.4-2.6,6.9-3.3c0.7-0.3,3.6,1.8,3.6,1.8s-5.9,2.6-7.7,3.6
					s-5.6,3.5-6.1,3.5L51.3,121.3z"/>
			</g>
			<g>
				<path class="st5" d="M68.4,112c1.4-0.5,3.9-2.4,6.7-3.9c2.6-1.4,5.4-2.6,6.9-3.3c0.7-0.3,3.6,1.8,3.6,1.8s-5.9,2.6-7.7,3.6
					c-1.9,1-5.6,3.5-6.1,3.5L68.4,112z"/>
			</g>
		</g>
		<g>
			<g>
				<path class="st5" d="M99.2,109.8l7.9-3.9c0.8-0.4,1.8-0.1,2.2,0.7c0.4,0.8,0.1,1.8-0.7,2.2l-5.7,2.8L99.2,109.8z"/>
			</g>
			<g>
				<path class="st5" d="M58.1,134.8c-0.6,0-1.2-0.1-1.5-0.7c-0.4-0.8-0.3-1.8,0.5-2.2c0,0,3-1.3,3.8-1.9l3.4,1.7l-5.4,2.9
					C58.6,134.8,58.4,134.8,58.1,134.8z"/>
			</g>
			<g>
				<path class="st5" d="M64.6,128c1.4-0.5,3.9-2.4,6.7-3.9c2.6-1.4,5.4-2.6,6.9-3.3c0.7-0.3,3.6,1.8,3.6,1.8s-5.9,2.6-7.7,3.6
					c-1.9,1-5.6,3.5-6.1,3.5L64.6,128z"/>
			</g>
			<g>
				<path class="st5" d="M81.7,118.8c1.4-0.5,3.9-2.4,6.7-3.9c2.6-1.4,5.4-2.6,6.9-3.3c0.7-0.3,3.6,1.8,3.6,1.8S93,116,91.1,117
					s-5.6,3.5-6.1,3.5L81.7,118.8z"/>
			</g>
		</g>
		<g>
			<g>
				<path class="st5" d="M112.7,116.6l7.9-3.9c0.8-0.4,1.8-0.1,2.2,0.7c0.4,0.8,0.1,1.8-0.7,2.2l-5.7,2.8L112.7,116.6z"/>
			</g>
			<g>
				<path class="st5" d="M71.7,141.6c-0.6,0-1.2-0.1-1.5-0.7c-0.4-0.8-0.3-1.8,0.5-2.2c0,0,3-1.3,3.8-1.9l3.4,1.7l-5.4,2.9
					C72.2,141.5,71.9,141.6,71.7,141.6z"/>
			</g>
			<g>
				<path class="st5" d="M78.2,134.8c1.4-0.5,3.9-2.4,6.7-3.9c2.6-1.4,5.4-2.6,6.9-3.3c0.7-0.3,3.6,1.8,3.6,1.8s-5.9,2.6-7.7,3.6
					c-1.9,1-5.6,3.5-6.1,3.5L78.2,134.8z"/>
			</g>
			<g>
				<path class="st5" d="M95.3,125.6c1.4-0.5,3.9-2.4,6.7-3.9c2.6-1.4,5.4-2.6,6.9-3.3c0.7-0.3,3.6,1.8,3.6,1.8s-5.9,2.6-7.7,3.6
					c-1.9,1-5.6,3.5-6.1,3.5L95.3,125.6z"/>
			</g>
		</g>
	</g>
</g>
<g id="Layer_2">
	<g>
		<line class="st6" x1="15.4" y1="107.9" x2="87.5" y2="144.5"/>
		<line class="st6" x1="34.5" y1="98.2" x2="104.2" y2="133.4"/>
		<line class="st6" x1="53.9" y1="88.8" x2="119" y2="121.5"/>
		<path class="st7" d="M63.6,91.6"/>
		<path class="st7" d="M59.6,93.7"/>
		<g>
			<path class="st5" d="M60.6,103c-5.3,3.2-14.6,8.1-18.4,9.4c-4.5,1.5-13.9,7.4-14.9,8.6c-0.4,0.4-0.9,0.6-1.4,0.6
				c-0.4,0-0.8-0.1-1.2-0.4c-0.8-0.7-0.9-1.8-0.2-2.6c1.7-2,11.8-8.1,16.5-9.7c3.1-1,15.4-7.4,19.1-9.5"/>
		</g>
		<g>
			<path class="st5" d="M74.2,108.4c0.4-0.2,0.8-0.5,1-0.6c2.2-1.9,12.3-9.3,16.3-9.3c0,0,0,0,0,0c1,0,1.8,0.8,1.8,1.8
				c0,1-0.8,1.8-1.8,1.8c-2,0-10.4,5.4-14,8.4c-0.2,0.2-0.5,0.4-0.8,0.6"/>
		</g>
		<line class="st6" x1="25.1" y1="102.9" x2="95.6" y2="138.7"/>
		<line class="st6" x1="43.9" y1="93.3" x2="110.8" y2="128.1"/>
		<g>
			<path class="st5" d="M52.8,95.7c0,0,3.8-2.7,5-3.4c1.3-0.8,3.2-1.6,4.7-2.1s8-3.9,8-3.9c0.9-0.5,2-0.1,2.4,0.8
				c0.5,0.9,0.1,2-0.8,2.4l-5.8,2.6c0,0-4.2,1.7-5.9,2.6c-1.6,1-4.1,2.8-4.1,2.8L52.8,95.7z"/>
		</g>
		<g>
			<path class="st5" d="M18.5,118.2c-0.7,0-1.3-0.1-1.6-0.7c-0.5-0.9-0.4-2,0.5-2.4c0,0,3.2-1.5,4.1-2l3.7,1.9l-5.8,3.1
				C19.1,118.1,18.8,118.2,18.5,118.2z"/>
		</g>
		<g>
			<path class="st5" d="M25.5,110.8c1.5-0.5,4.3-2.7,7.2-4.2c1.6-0.9,7.3-4.2,9.8-5.4c2.4-1.3,6-2.8,6.7-3.1l3.5,1.9
				c0,0-3.3,1.3-7.3,3.4c-4.2,2.2-8.7,4.9-9.8,5.5c-2,1.1-6.1,3.8-6.6,3.8L25.5,110.8z"/>
		</g>
		<g>
			<path class="st5" d="M41.2,129.7c-0.7,0-1.3-0.1-1.6-0.7c-0.5-0.9-0.4-2,0.5-2.4c0,0,3.2-1.5,4.1-2l3.7,1.9l-5.8,3.1
				C41.8,129.7,41.5,129.7,41.2,129.7z"/>
		</g>
		<g>
			<path class="st5" d="M48.2,122.4c1.5-0.5,4.3-2.7,7.2-4.2c1.6-0.9,7.3-4.2,9.8-5.4s6-2.8,6.7-3.1l3.5,1.9c0,0-3.3,1.3-7.3,3.4
				c-4.2,2.2-8.7,4.9-9.8,5.5c-2,1.1-6.1,3.8-6.6,3.8L48.2,122.4z"/>
		</g>
		<g>
			<path class="st5" d="M97.7,119.2c0.1-0.1,0.2-0.1,0.3-0.2c2.2-1.9,12.3-9.3,16.3-9.3c0,0,0,0,0,0c1,0,1.8,0.8,1.8,1.8
				c0,1-0.7,1.6-1.8,1.8c-1.8,0.4-9.2,4.7-13.1,7.7"/>
		</g>
		<g>
			<path class="st5" d="M63.5,141.1c-0.7,0-1.3-0.1-1.6-0.7c-0.5-0.9-0.4-2,0.5-2.4c0,0,3.2-1.5,4.1-2l3.7,1.9l-5.8,3.1
				C64.1,141,63.8,141.1,63.5,141.1z"/>
		</g>
		<g>
			<path class="st5" d="M70.5,133.8c1.5-0.5,4.3-2.7,7.2-4.2c1.6-0.9,7.3-4.2,9.8-5.4c2-1,4.7-2.2,6.1-2.8c0.3-0.1,4,1.7,3.6,1.9
				c-1.1,0.5-3.7,1.6-6.7,3.2c-4.2,2.2-8.7,4.9-9.8,5.5c-2,1.1-6.1,3.8-6.6,3.8L70.5,133.8z"/>
		</g>
		<g>
			<g>
				<path class="st5" d="M70.1,94.9l8.5-4.2c0.9-0.5,2-0.1,2.4,0.8c0.5,0.9,0.1,2-0.8,2.4l-6.2,3L70.1,94.9z"/>
			</g>
			<g>
				<path class="st5" d="M50.9,104.4c1.5-0.5,4.5-2.5,7.5-4.1c2.9-1.5,7.4-3.4,7.4-3.4l3.9,1.9c0,0-6.2,2.6-8.2,3.7s-7,4-7,4
					L50.9,104.4z"/>
			</g>
		</g>
		<g>
			<path class="st5" d="M83.7,111.4"/>
			<path class="st5" d="M64.5,125c-4.8,2.1-12.7,7-13.6,8c-0.4,0.4-0.9,0.6-1.4,0.6c-0.4,0-0.8-0.1-1.2-0.4
				c-0.8-0.7-0.9-1.8-0.2-2.6c1.2-1.5,7.2-5.3,12.1-7.7"/>
		</g>
		<g>
			<g>
				<path class="st5" d="M93.2,106.4l8.5-4.2c0.9-0.5,2-0.1,2.4,0.8c0.5,0.9,0.1,2-0.8,2.4l-6.2,3L93.2,106.4z"/>
			</g>
			<g>
				<path class="st5" d="M74,115.9c1.5-0.5,4.5-2.5,7.5-4.1c2.9-1.5,7.4-3.4,7.4-3.4l3.9,1.9c0,0-6.2,2.6-8.2,3.7c-2,1.1-7,4-7,4
					L74,115.9z"/>
			</g>
		</g>
		<g>
			<path class="st5" d="M59.5,113c-3.2,1.6-6.4,3-8.4,3.7c-4.4,1.5-15,8-16.2,9.2c-0.4,0.4-0.9,0.6-1.4,0.6c-0.4,0-0.8-0.1-1.2-0.4
				c-0.8-0.7-0.9-1.8-0.2-2.5c1.6-1.9,13.1-8.8,17.8-10.3c1.4-0.5,3.4-1.3,5.6-2.4"/>
		</g>
		<g>
			<path class="st5" d="M59.7,109c4.7-2.3,10-5.2,11.7-6.6c2.6-2.2,12.4-8.7,16.3-8.8c0,0,0,0,0,0c1,0,1.8,0.8,1.8,1.8
				c0,1-0.8,1.8-1.8,1.8c-2,0-10.5,5-14,7.9c-1.6,1.4-6.2,3.8-10.3,5.8"/>
		</g>
		<g>
			<path class="st5" d="M81.8,124.3c-3.2,1.6-6.4,3-8.4,3.7c-4.4,1.5-15,8-16.2,9.2c-0.4,0.4-0.9,0.6-1.4,0.6
				c-0.4,0-0.8-0.1-1.2-0.4c-0.8-0.7-0.9-1.8-0.2-2.5c1.6-1.9,13.1-8.8,17.8-10.3c1.4-0.5,3.4-1.3,5.6-2.4"/>
		</g>
		<g>
			<path class="st5" d="M82,120.3c4.7-2.3,10-5.2,11.7-6.6c2.6-2.2,12.4-8.7,16.3-8.8c0,0,0,0,0,0c1,0,1.8,0.8,1.8,1.8
				c0,1-0.8,1.8-1.8,1.8c-2,0-10.5,5-14,7.9c-1.6,1.4-6.2,3.8-10.3,5.8"/>
		</g>
		<polygon class="st5" points="64.3,120.8 78,113.7 81.1,116 68.3,122.8 		"/>
		<g>
			<path class="st5" d="M104.5,122"/>
			<path class="st5" d="M86.4,136c-4.7,2.3-12.5,7.4-13.3,8.5c-0.3,0.4-0.9,0.7-1.4,0.7c-0.4,0-0.8-0.1-1.2-0.4
				c-0.8-0.6-0.9-1.8-0.3-2.6c1.2-1.5,7.3-5.5,12.1-8.2"/>
		</g>
		<g>
			<g>
				<path class="st5" d="M113.5,116.7l6.6-3.5c0.9-0.5,2-0.2,2.5,0.7c0.5,0.9,0.2,2-0.7,2.5l-4.5,2.3L113.5,116.7z"/>
			</g>
			<g>
				<path class="st5" d="M95,126.9c1.5-0.6,4.4-2.7,7.3-4.4c2.8-1.6,7.3-3.7,7.3-3.7l4,1.9c0,0-6.1,2.8-8.1,4c-2,1.2-7,4.2-7,4.2
					L95,126.9z"/>
			</g>
		</g>
		<polygon class="st5" points="85.9,131.8 98.9,124.6 102.1,126.7 90,133.8 		"/>
	</g>
</g>
</svg>
