<?xml version="1.0" encoding="utf-8"?>
<!-- Generator: Adobe Illustrator 25.2.3, SVG Export Plug-In . SVG Version: 6.00 Build 0)  -->
<svg version="1.1" id="Layer_1" xmlns="http://www.w3.org/2000/svg" xmlns:xlink="http://www.w3.org/1999/xlink" x="0px" y="0px"
	 viewBox="0 0 152.1 204.5" style="enable-background:new 0 0 152.1 204.5;" xml:space="preserve">
<style type="text/css">
	.st0{fill:#C2AAA7;stroke:#F4F4F4;stroke-width:0.25;stroke-miterlimit:10;}
	.st1{fill:#E4DAD8;stroke:#F4F4F4;stroke-width:0.25;stroke-miterlimit:10;}
	.st2{fill:#C2AAA7;stroke:#F4F4F4;stroke-width:0.35;stroke-miterlimit:10;}
	.st3{fill:#ED6D47;}
	.st4{fill:#DB4A3A;}
	.st5{fill:#D7432E;}
	.st6{fill:none;stroke:#CB452E;stroke-width:2.996000e-02;stroke-linecap:round;stroke-miterlimit:10;}
	.st7{fill:none;stroke:#CB452E;stroke-width:6.006000e-02;stroke-linecap:round;stroke-miterlimit:10;}
	.st8{fill:none;stroke:#CB452E;stroke-width:9.002000e-02;stroke-linecap:round;stroke-miterlimit:10;}
	.st9{fill:none;stroke:#CB452E;stroke-width:0.12;stroke-linecap:round;stroke-miterlimit:10;}
	.st10{fill:none;stroke:#CB452E;stroke-width:0.1499;stroke-linecap:round;stroke-miterlimit:10;}
	.st11{fill:none;stroke:#CB452E;stroke-width:0.18;stroke-linecap:round;stroke-miterlimit:10;}
	.st12{fill:none;stroke:#CB452E;stroke-width:0.21;stroke-linecap:round;stroke-miterlimit:10;}
	.st13{fill:none;stroke:#CB452E;stroke-width:0.24;stroke-linecap:round;stroke-miterlimit:10;}
	.st14{fill:none;stroke:#CB452E;stroke-width:0.2701;stroke-linecap:round;stroke-miterlimit:10;}
	.st15{fill:none;stroke:#CB452E;stroke-width:0.3;stroke-linecap:round;stroke-miterlimit:10;}
	.st16{fill:none;stroke:#CB452E;stroke-width:0.33;stroke-linecap:round;stroke-miterlimit:10;}
	.st17{fill:none;stroke:#CB452E;stroke-width:0.3599;stroke-linecap:round;stroke-miterlimit:10;}
	.st18{fill:none;stroke:#CB452E;stroke-width:0.39;stroke-linecap:round;stroke-miterlimit:10;}
	.st19{fill:none;stroke:#CB452E;stroke-width:0.42;stroke-linecap:round;stroke-miterlimit:10;}
	.st20{fill:none;stroke:#CB452E;stroke-width:0.45;stroke-linecap:round;stroke-miterlimit:10;}
	.st21{fill:none;stroke:#CB452E;stroke-width:0.4801;stroke-linecap:round;stroke-miterlimit:10;}
	.st22{fill:none;stroke:#CB452E;stroke-width:0.51;stroke-linecap:round;stroke-miterlimit:10;}
	.st23{fill:none;stroke:#CB452E;stroke-width:0.54;stroke-linecap:round;stroke-miterlimit:10;}
	.st24{fill:none;stroke:#CB452E;stroke-width:0.5699;stroke-linecap:round;stroke-miterlimit:10;}
	.st25{fill:none;stroke:#CB452E;stroke-width:0.6;stroke-linecap:round;stroke-miterlimit:10;}
	.st26{fill:none;stroke:#CB452E;stroke-width:0.63;stroke-linecap:round;stroke-miterlimit:10;}
	.st27{fill:none;stroke:#CB452E;stroke-width:0.66;stroke-linecap:round;stroke-miterlimit:10;}
	.st28{fill:none;stroke:#CB452E;stroke-width:0.6901;stroke-linecap:round;stroke-miterlimit:10;}
	.st29{fill:none;stroke:#CB452E;stroke-width:0.72;stroke-linecap:round;stroke-miterlimit:10;}
	.st30{fill:none;stroke:#CB452E;stroke-width:0.75;stroke-linecap:round;stroke-miterlimit:10;}
	.st31{fill:none;stroke:#CB452E;stroke-width:0.7799;stroke-linecap:round;stroke-miterlimit:10;}
	.st32{fill:none;stroke:#CB452E;stroke-width:0.81;stroke-linecap:round;stroke-miterlimit:10;}
	.st33{fill:none;stroke:#CB452E;stroke-width:0.84;stroke-linecap:round;stroke-miterlimit:10;}
	.st34{fill:none;stroke:#CB452E;stroke-width:0.87;stroke-linecap:round;stroke-miterlimit:10;}
	.st35{fill:none;stroke:#CB452E;stroke-width:0.9001;stroke-linecap:round;stroke-miterlimit:10;}
	.st36{fill:none;stroke:#CB452E;stroke-width:0.93;stroke-linecap:round;stroke-miterlimit:10;}
	.st37{fill:#EC6B47;}
	.st38{fill:#EC6A46;}
	.st39{fill:#EB6845;}
	.st40{fill:#EA6645;}
	.st41{fill:#E96544;}
	.st42{fill:#E86343;}
	.st43{fill:#E76143;}
	.st44{fill:#E66042;}
	.st45{fill:#E55E42;}
	.st46{fill:#E55C41;}
	.st47{fill:#E45B40;}
	.st48{fill:#E35940;}
	.st49{fill:#E2573F;}
	.st50{fill:#E1563E;}
	.st51{fill:#E0543E;}
	.st52{fill:#DF523D;}
	.st53{fill:#DE513D;}
	.st54{fill:#DE4F3C;}
	.st55{fill:#DD4D3B;}
	.st56{fill:#DC4C3B;}
	.st57{fill:#C2AAA7;stroke:#F4F4F4;stroke-width:0.3619;stroke-miterlimit:10;}
	.st58{fill:#C2AAA7;stroke:#FFFFFF;stroke-width:0.175;stroke-miterlimit:10;}
	.st59{fill:#E4DAD8;stroke:#F4F4F4;stroke-width:0.175;stroke-miterlimit:10;}
	.st60{fill:#E4DAD8;stroke:#FFFFFF;stroke-width:0.3149;stroke-miterlimit:10;}
	.st61{fill:#C2AAA7;stroke:#FFFFFF;stroke-width:0.1611;stroke-miterlimit:10;}
	.st62{fill:#CFBCBC;stroke:#FFFFFF;stroke-width:0.3149;stroke-miterlimit:10;}
	.st63{fill:#E4DAD8;stroke:#FFFFFF;stroke-width:0.1574;stroke-miterlimit:10;}
	.st64{fill:#E4DAD8;stroke:#FFFFFF;stroke-width:0.1996;stroke-miterlimit:10;}
	.st65{fill:#5E5756;stroke:#FFFFFF;stroke-width:0.1574;stroke-miterlimit:10;}
	.st66{fill:#E4DAD8;stroke:#FFFFFF;stroke-width:0.3149;stroke-linejoin:bevel;stroke-miterlimit:10;}
	.st67{fill:#CFBCBC;stroke:#FFFFFF;stroke-width:0.3149;stroke-linejoin:bevel;stroke-miterlimit:10;}
	.st68{fill:#C2AAA7;}
	.st69{fill:#24234C;}
	.st70{fill:none;stroke:#24234C;stroke-width:0.1574;stroke-miterlimit:10;}
	.st71{fill:none;stroke:#24234C;stroke-width:0.1574;stroke-linecap:round;stroke-miterlimit:10;}
	.st72{fill:#DC3359;}
	.st73{fill:none;stroke:#BF282E;stroke-width:0.3957;stroke-miterlimit:10;}
	.st74{fill:none;stroke:#000000;stroke-width:1.187;stroke-miterlimit:10;}
	.st75{fill:none;stroke:#000000;stroke-width:1.187;stroke-linecap:round;stroke-miterlimit:10;}
	.st76{fill:none;stroke:#24234C;stroke-width:0.6297;stroke-linecap:round;stroke-miterlimit:10;}
	.st77{fill:none;stroke:#24234C;stroke-width:0.5914;stroke-linecap:round;stroke-miterlimit:10;}
</style>
<g>
	<g>
		<ellipse class="st0" cx="31.7" cy="54.7" rx="14.8" ry="6"/>
		<ellipse class="st1" cx="31.9" cy="53" rx="14.8" ry="6.6"/>
	</g>
	<path class="st2" d="M19.8,12.4L21,53c0,0,3.1,3.1,11.5,3.1s10.4-3.2,10.4-3.2V12.4H19.8z"/>
	<g>
		<path class="st3" d="M42.8,52.2c-0.6,1-12.9-1.4-12.9-1.4l-9,1.3V16.4L32.6,21L43,15.8C42.9,15.8,42.8,50.8,42.8,52.2z"/>
	</g>
	<g>
		<g>
			<path class="st3" d="M20.7,26.6c4.8,3.4,9.8,6.3,15.1,8.7c2.1,1,4.2,1.8,6.4,2.5c0.4,0.1,1.1-0.4,0.6-0.6
				c-2.1-0.7-4.2-1.5-6.2-2.4c-5.3-2.4-10.5-5.3-15.3-8.7C21.1,25.9,20.3,26.3,20.7,26.6L20.7,26.6z"/>
		</g>
	</g>
	<g>
		<g>
			<path class="st3" d="M21,28.4c4.8,3.4,9.9,6.3,15.3,8.8c2.1,1,4.2,1.8,6.4,2.5c0.3,0.1,1.1-0.3,0.6-0.6c-2.1-0.7-4.2-1.5-6.3-2.4
				c-5.3-2.4-10.4-5.3-15.1-8.7C21.5,27.8,20.7,28.3,21,28.4L21,28.4z"/>
		</g>
	</g>
	<g>
		<g>
			<path class="st3" d="M20.7,21.8c4.9,3.4,9.9,6.4,15.3,8.8c2.1,0.8,4.1,1.8,6.3,2.4c0.1,0,1-0.3,0.7-0.3c-2.2-0.7-4.3-1.5-6.3-2.5
				c-5.3-2.4-10.4-5.3-15.1-8.7C21.2,21.4,20.5,21.8,20.7,21.8L20.7,21.8z"/>
		</g>
	</g>
	<g>
		<g>
			<path class="st3" d="M20.4,24.9c4.9,3.4,9.9,6.4,15.3,8.8c2.1,0.8,4.1,1.8,6.3,2.4c0.3,0,1-0.3,0.7-0.4c-2.2-0.7-4.3-1.5-6.3-2.5
				C31,30.8,26,27.8,21.2,24.5C21.1,24.5,20.3,24.9,20.4,24.9L20.4,24.9z"/>
		</g>
	</g>
	<g>
		<g>
			<path class="st3" d="M20.7,20.1c4.8,3.4,9.8,6.3,15.1,8.7c2.1,1,4.2,1.8,6.4,2.5c0.3,0,1.1-0.3,0.7-0.4c-2.1-0.7-4.2-1.5-6.2-2.4
				c-5.3-2.4-10.5-5.3-15.3-8.8C21.2,19.6,20.4,20,20.7,20.1L20.7,20.1z"/>
		</g>
	</g>
	<g>
		<g>
			<path class="st3" d="M20.1,38.8c4.9,3.4,10.1,6.3,15.5,8.8c2.1,1,4.1,1.8,6.3,2.5c0.4,0.1,1.1-0.4,0.6-0.6
				c-2.1-0.7-4.1-1.5-6-2.4C31,44.6,25.9,41.7,21,38.3C20.5,38.1,19.7,38.5,20.1,38.8L20.1,38.8z"/>
		</g>
	</g>
	<g>
		<g>
			<path class="st3" d="M21,23.8c4.9,3.4,9.9,6.4,15.3,8.8c2.1,0.8,4.1,1.8,6.3,2.4c0.3,0,1-0.3,0.7-0.4C41,33.9,38.9,33,36.9,32
				c-5.3-2.4-10.4-5.3-15.1-8.7C21.7,23.2,20.8,23.6,21,23.8L21,23.8z"/>
		</g>
	</g>
	<g>
		<g>
			<path class="st3" d="M21,33.4c5.6-2,10.9-4.3,16-7.4c2-1.1,4.1-2.4,5.9-3.8c0.1-0.1-0.7,0-0.8,0.1c-1.7,1.4-3.6,2.5-5.5,3.6
				c-5,2.9-10.4,5.3-15.8,7.3C20,33.6,20.5,33.6,21,33.4L21,33.4z"/>
		</g>
	</g>
	<g>
		<g>
			<path class="st3" d="M21.5,35.1c5.6-2,10.9-4.3,16.1-7.4c2-1.1,3.9-2.4,5.7-3.8c0.4-0.3-0.6-0.3-0.7-0.1
				c-1.7,1.4-3.6,2.5-5.6,3.6c-5,2.9-10.4,5.3-15.8,7.3C20.5,35,21.1,35.3,21.5,35.1L21.5,35.1z"/>
		</g>
	</g>
	<g>
		<g>
			<path class="st3" d="M21.4,37.4c5.5-2,10.9-4.3,16-7.3c2-1.1,4.1-2.4,5.9-3.9c0.4-0.3-0.6-0.1-0.7,0c-1.7,1.4-3.6,2.5-5.5,3.6
				c-5,2.9-10.5,5.5-16,7.4C20.4,37.2,21.1,37.4,21.4,37.4L21.4,37.4z"/>
		</g>
	</g>
	<g>
		<g>
			<path class="st3" d="M21.2,44.6c5.6-2,10.9-4.3,16.1-7.4c2-1.1,3.9-2.4,5.7-3.8c0.4-0.3-0.6-0.3-0.7-0.1
				c-1.7,1.4-3.6,2.5-5.6,3.6c-5,2.9-10.4,5.3-15.8,7.3C20.4,44.5,21,44.8,21.2,44.6L21.2,44.6z"/>
		</g>
	</g>
	<g>
		<g>
			<path class="st3" d="M21.1,48c5.5-2,10.9-4.3,16-7.3c2-1.1,4.1-2.4,5.9-3.9c0.4-0.3-0.6-0.1-0.7,0c-1.7,1.4-3.6,2.5-5.5,3.6
				c-5,2.9-10.5,5.5-16,7.4C20.1,48,20.7,48.1,21.1,48L21.1,48z"/>
		</g>
	</g>
	<g>
		<g>
			<path class="st3" d="M21.7,49.8c5.6-2,10.9-4.3,16.1-7.4c2-1.1,3.9-2.4,5.7-3.8c0.4-0.4-0.3-0.7-0.6-0.4
				c-1.7,1.4-3.6,2.5-5.6,3.6c-5,2.9-10.4,5.3-15.8,7.3C21,49.3,21.1,50,21.7,49.8L21.7,49.8z"/>
		</g>
	</g>
	<g>
		<g>
			<path class="st3" d="M21.7,51.9c5.6-2,10.9-4.5,16.1-7.4c2-1.1,3.9-2.4,5.7-3.8c0.4-0.3-0.6-0.4-0.7-0.1
				c-1.5,1.3-3.8,2.5-5.6,3.6c-5,2.9-10.4,5.3-15.8,7.3C20.7,51.8,21.2,52.1,21.7,51.9L21.7,51.9z"/>
		</g>
	</g>
	<g>
		<g>
			<path class="st3" d="M20.7,38.3c5.6-2,10.9-4.3,16.1-7.4c2-1.1,3.9-2.4,5.7-3.8c0.4-0.4-0.3-0.7-0.6-0.4
				c-1.7,1.4-3.6,2.5-5.6,3.6c-5,2.9-10.4,5.3-15.8,7.3C19.8,37.9,20.1,38.5,20.7,38.3L20.7,38.3z"/>
		</g>
	</g>
	<g>
		<g>
			<path class="st3" d="M21.4,39.6c5.5-2,10.9-4.3,16-7.3c2-1.1,4.1-2.4,5.9-3.9c0.4-0.3-0.6-0.1-0.7,0c-1.7,1.4-3.6,2.5-5.5,3.6
				c-5,2.9-10.5,5.5-16,7.4C20.4,39.6,21,39.7,21.4,39.6L21.4,39.6z"/>
		</g>
	</g>
	<g>
		<g>
			<path class="st3" d="M21.2,42c5.6-2,10.9-4.3,16.1-7.4c2-1.1,3.9-2.4,5.7-3.8c0.4-0.3-0.4-0.4-0.7-0.1c0.1-0.1-0.3,0.1-0.3,0.3
				c-0.4,0.3-0.7,0.6-1.1,0.8c-1.4,1-2.8,1.8-4.2,2.7c-5,2.9-10.4,5.3-15.8,7.3C20.3,41.8,20.8,42.1,21.2,42L21.2,42z"/>
		</g>
	</g>
	<g>
		<g>
			<path class="st3" d="M21.9,30.6c5.3-2,10.5-4.2,15.3-7.4c1.7-1.1,3.5-2.4,4.9-3.9c0.4-0.4-0.4-0.6-0.8-0.3
				c-1.3,1.3-3.1,2.5-4.6,3.6c-4.6,3.1-9.7,5.5-14.8,7.3C21.2,30.2,21.4,30.8,21.9,30.6L21.9,30.6z"/>
		</g>
	</g>
	<g>
		<g>
			<path class="st3" d="M20.8,32c5.5-2,10.9-4.3,16-7.3c2-1.1,4.1-2.4,5.9-3.9c0.4-0.4-0.3-0.7-0.6-0.4c-1.7,1.4-3.6,2.5-5.5,3.6
				c-5,2.9-10.4,5.5-16,7.3C20.1,31.8,20.3,32.3,20.8,32L20.8,32z"/>
		</g>
	</g>
	<g>
		<g>
			<path class="st3" d="M20.8,34.3c5.6-2,10.9-4.3,16.1-7.4c2-1.1,3.9-2.4,5.7-3.8c0.4-0.3-0.6-0.3-0.7-0.1
				c-1.7,1.4-3.6,2.5-5.6,3.6c-5,2.9-10.4,5.3-15.8,7.3C19.8,34.1,20.4,34.4,20.8,34.3L20.8,34.3z"/>
		</g>
	</g>
	<g>
		<g>
			<path class="st3" d="M21,29.8c5.6-2,10.9-4.3,16.1-7.4c2-1.1,3.9-2.4,5.7-3.8c0.4-0.3-0.6-0.1-0.7-0.1c-1.7,1.4-3.6,2.5-5.6,3.6
				c-5,2.9-10.4,5.3-15.8,7.3C20,29.7,20.5,29.9,21,29.8L21,29.8z"/>
		</g>
	</g>
	<g>
		<g>
			<path class="st3" d="M20.8,32c5.5-2,10.9-4.3,16-7.3c2-1.1,4.1-2.4,5.9-3.9c0.4-0.3-0.6-0.1-0.7,0c-1.7,1.4-3.6,2.5-5.5,3.6
				c-5,2.9-10.5,5.5-16,7.4C19.8,32,20.4,32.2,20.8,32L20.8,32z"/>
		</g>
	</g>
	<g>
		<g>
			<path class="st3" d="M21.2,40c5.6-2,10.9-4.3,16.1-7.4c2-1.1,3.9-2.4,5.7-3.8c0.4-0.3-0.6-0.3-0.7-0.1c-1.7,1.4-3.6,2.5-5.6,3.6
				c-5,2.9-10.4,5.3-15.8,7.3C20.3,39.9,20.8,40.2,21.2,40L21.2,40z"/>
		</g>
	</g>
	<g>
		<g>
			<path class="st3" d="M21.2,43.1c5.5-2,10.9-4.3,16-7.3c2-1.1,4.1-2.4,5.9-3.9c0.4-0.4-0.3-0.7-0.6-0.4c-1.7,1.4-3.6,2.5-5.5,3.6
				c-5,2.9-10.4,5.5-16,7.3C20.5,42.8,20.7,43.4,21.2,43.1L21.2,43.1z"/>
		</g>
	</g>
	<g>
		<g>
			<path class="st3" d="M21.2,45.5c5.6-2,10.9-4.3,16.1-7.4c2-1.1,3.9-2.4,5.7-3.8c0.4-0.3-0.6-0.3-0.7-0.1
				c-1.7,1.4-3.6,2.5-5.6,3.6c-5,2.9-10.4,5.3-15.8,7.3C20.4,45.3,21,45.6,21.2,45.5L21.2,45.5z"/>
		</g>
	</g>
	<g>
		<g>
			<path class="st3" d="M21,49.4c5.6-2,10.9-4.3,16.1-7.4c2-1.1,3.9-2.4,5.7-3.8c0.4-0.4-0.3-0.7-0.6-0.4c-1.7,1.4-3.6,2.5-5.6,3.6
				c-5,2.9-10.4,5.3-15.8,7.3C20.3,48.8,20.4,49.5,21,49.4L21,49.4z"/>
		</g>
	</g>
	<g>
		<g>
			<path class="st3" d="M20.4,30.6c4.8,3.4,9.8,6.3,15.3,8.7c2.1,1,4.2,1.8,6.4,2.5c0.4,0.1,1.1-0.6,0.6-0.7
				c-2.1-0.7-4.2-1.5-6.2-2.4C31.2,36.3,26,33.4,21.2,30C20.8,29.8,20,30.2,20.4,30.6L20.4,30.6z"/>
		</g>
	</g>
	<g>
		<g>
			<path class="st3" d="M20.7,32.3c4.9,3.4,9.9,6.4,15.3,8.8c2.1,1,4.2,1.8,6.3,2.4c0.3,0,1-0.3,0.7-0.3c-2.1-0.7-4.2-1.5-6.3-2.5
				c-5.3-2.4-10.4-5.3-15.1-8.7C21.4,31.9,20.5,32.3,20.7,32.3L20.7,32.3z"/>
		</g>
	</g>
	<g>
		<g>
			<path class="st3" d="M20.4,36.8c4.9,3.4,10.1,6.4,15.4,9c2,1,3.9,1.8,5.9,2.5c0.4,0.1,1.1-0.4,0.6-0.6c-2.1-0.7-4.1-1.5-5.9-2.5
				c-5.3-2.5-10.4-5.6-15.3-9C20.7,36.1,19.8,36.5,20.4,36.8L20.4,36.8z"/>
		</g>
	</g>
	<g>
		<g>
			<path class="st3" d="M20.7,25.5c4.9,3.4,9.9,6.4,15.3,8.8c2.1,0.8,4.1,1.8,6.3,2.4c0.1,0,1-0.3,0.7-0.3c-2.2-0.7-4.3-1.5-6.3-2.5
				c-5.3-2.4-10.4-5.3-15.1-8.7C21.4,25,20.5,25.5,20.7,25.5L20.7,25.5z"/>
		</g>
	</g>
	<g>
		<g>
			<path class="st3" d="M20.8,21c4.8,3.4,9.8,6.3,15.1,8.7c2.1,1,4.2,1.8,6.4,2.5c0.4,0.1,1.1-0.4,0.6-0.6c-2.1-0.7-4.2-1.5-6.2-2.4
				c-5.3-2.4-10.5-5.3-15.3-8.7C21.2,20.3,20.4,20.7,20.8,21L20.8,21z"/>
		</g>
	</g>
	<g>
		<g>
			<path class="st3" d="M20.7,24.1c4.8,3.4,9.8,6.3,15.1,8.7c2.1,1,4.2,1.8,6.4,2.5c0.4,0.1,1.1-0.6,0.6-0.7
				c-2.1-0.7-4.2-1.5-6.2-2.4c-5.3-2.4-10.5-5.3-15.3-8.7C21,23.4,20.1,23.8,20.7,24.1L20.7,24.1z"/>
		</g>
	</g>
	<g>
		<g>
			<path class="st4" d="M20.7,19.2c4.8,3.4,9.8,6.3,15.1,8.7c2.1,1,4.2,1.8,6.4,2.5c0.3,0,1.1-0.3,0.7-0.4c-2.1-0.7-4.2-1.5-6.2-2.4
				c-5.3-2.4-10.5-5.5-15.3-8.8C21.4,18.7,20.5,19.2,20.7,19.2L20.7,19.2z"/>
		</g>
	</g>
	<g>
		<g>
			<path class="st3" d="M20.3,37.8c5,3.4,10.2,6.3,15.7,8.8c2,1,4.1,1.8,6.2,2.5c0.3,0.1,1.1-0.4,0.6-0.6c-2.1-0.7-4.2-1.5-6.2-2.5
				c-5.3-2.5-10.5-5.5-15.4-8.7C20.7,37.1,19.8,37.5,20.3,37.8L20.3,37.8z"/>
		</g>
	</g>
	<g>
		<g>
			<path class="st4" d="M21.1,22.8c4.8,3.4,9.8,6.3,15.1,8.7c2.1,1,4.2,1.8,6.4,2.5c0.3,0,1.1-0.3,0.7-0.4c-2.1-0.7-4.2-1.5-6.2-2.4
				c-5.3-2.4-10.5-5.3-15.3-8.8C21.8,22.2,21,22.7,21.1,22.8L21.1,22.8z"/>
		</g>
	</g>
	<g>
		<g>
			<path class="st3" d="M21,32.7c5.5-2,10.9-4.3,16-7.3c2-1.1,4.1-2.4,5.9-3.9c0.4-0.4-0.3-0.7-0.6-0.4c-1.7,1.4-3.6,2.5-5.5,3.6
				c-5,2.9-10.4,5.5-16,7.3C20.3,32.3,20.4,33,21,32.7L21,32.7z"/>
		</g>
	</g>
	<g>
		<g>
			<path class="st3" d="M21.7,34c5.7-2,11.3-4.3,16.5-7.3c0.3-0.1,5.7-3.5,5-3.9c-0.3-0.1-1,0.3-0.8,0.3c0.3,0.1-1,1.3-1.1,1.3
				c-1.3,1-2.7,1.8-4.2,2.5c-5,2.8-10.4,5-15.7,7C20.7,34,21.2,34.1,21.7,34L21.7,34z"/>
		</g>
	</g>
	<g>
		<g>
			<path class="st3" d="M21.4,36.5c5.6-2,10.9-4.3,16.1-7.4c2-1.1,3.9-2.4,5.7-3.8c0.4-0.4-0.3-0.7-0.6-0.4
				c-1.7,1.4-3.6,2.5-5.6,3.6c-5,2.9-10.4,5.3-15.8,7.3C20.7,36.1,20.8,36.8,21.4,36.5L21.4,36.5z"/>
		</g>
	</g>
	<g>
		<g>
			<path class="st3" d="M21.4,43.7c5.6-2,10.9-4.3,16.1-7.4c2-1.1,3.9-2.4,5.7-3.8c0.4-0.3-0.6-0.3-0.7-0.1
				c-1.7,1.4-3.6,2.5-5.6,3.6c-5,2.9-10.4,5.3-15.8,7.3C20.4,43.5,21,43.8,21.4,43.7L21.4,43.7z"/>
		</g>
	</g>
	<g>
		<g>
			<path class="st3" d="M22.1,45.2c5.6-2,11.3-4.2,16.5-7.3c0.6-0.3,5.7-3.1,4.6-4.2c-0.3-0.1-1.1,0.1-0.8,0.3
				c0.8,0.8-4.8,3.8-5.2,4.1c-4.9,2.7-10.2,4.8-15.5,6.7C21.1,45.1,21.7,45.3,22.1,45.2L22.1,45.2z"/>
		</g>
	</g>
	<g>
		<g>
			<path class="st3" d="M21.2,47.2c5.6-2,10.9-4.3,16.1-7.4c2-1.1,3.9-2.4,5.7-3.8c0.4-0.3-0.6-0.3-0.7-0.1
				c-1.7,1.4-3.6,2.5-5.6,3.6c-5,2.9-10.4,5.3-15.8,7.3C20.3,47,20.8,47.3,21.2,47.2L21.2,47.2z"/>
		</g>
	</g>
	<g>
		<g>
			<path class="st4" d="M21.7,50.9c5.6-2,10.9-4.5,16.1-7.4c2-1.1,3.9-2.4,5.7-3.8c0.4-0.3-0.6-0.3-0.7-0.1
				c-1.7,1.4-3.6,2.5-5.6,3.6c-5,2.9-10.4,5.3-15.8,7.3C20.7,50.8,21.2,51.1,21.7,50.9L21.7,50.9z"/>
		</g>
	</g>
	<g>
		<g>
			<path class="st3" d="M20.7,37.4c5.6-2,10.9-4.3,16.1-7.4c2-1.1,3.9-2.4,5.7-3.8c0.4-0.4-0.3-0.7-0.6-0.4
				c-1.7,1.4-3.6,2.5-5.6,3.6c-5,2.9-10.4,5.3-15.8,7.3C20,36.9,20.1,37.5,20.7,37.4L20.7,37.4z"/>
		</g>
	</g>
	<g>
		<g>
			<path class="st3" d="M21.5,38.8c5.6-2,10.9-4.3,16.1-7.4c2-1.1,3.9-2.4,5.7-3.8c0.4-0.3-0.6-0.3-0.7-0.1C40.9,28.9,39,30,37,31.1
				c-5,2.9-10.4,5.3-15.8,7.3C20.5,38.6,21.1,38.9,21.5,38.8L21.5,38.8z"/>
		</g>
	</g>
	<g>
		<g>
			<path class="st3" d="M21.2,41c5.6-2,10.9-4.3,16.1-7.4c2-1.1,3.9-2.4,5.7-3.8c0.4-0.3-0.6-0.3-0.7-0.1c-1.7,1.4-3.6,2.5-5.6,3.6
				c-5,2.9-10.4,5.3-15.8,7.3C20.4,40.9,21,41.1,21.2,41L21.2,41z"/>
		</g>
	</g>
	<g>
		<g>
			<path class="st3" d="M22.1,29.5c5.3-2,10.5-4.2,15.3-7.4c1.7-1.1,3.5-2.4,4.9-3.8c0.4-0.4-0.6-0.4-0.7-0.1
				c-1.4,1.4-3.1,2.5-4.8,3.6c-4.6,3.1-9.8,5.5-15,7.3C21.1,29.4,21.7,29.7,22.1,29.5L22.1,29.5z"/>
		</g>
	</g>
	<g>
		<g>
			<path class="st3" d="M21.1,30.9c5.6-2,10.9-4.3,16-7.4c2-1.1,4.1-2.4,5.9-3.8c0.1-0.1-0.7-0.1-0.8,0.1c-1.7,1.4-3.6,2.5-5.5,3.6
				c-5,2.9-10.4,5.3-15.8,7.3C20.1,30.9,20.7,31.1,21.1,30.9L21.1,30.9z"/>
		</g>
	</g>
	<g>
		<g>
			<path class="st4" d="M20.8,33.4c5.6-2,10.9-4.3,16-7.3c2-1.1,4.1-2.4,5.9-3.8c0.4-0.4-0.3-0.7-0.6-0.4c-1.7,1.4-3.6,2.5-5.5,3.6
				c-5,2.9-10.4,5.5-16,7.3C20.1,33,20.3,33.6,20.8,33.4L20.8,33.4z"/>
		</g>
	</g>
	<g>
		<g>
			<path class="st4" d="M20.8,31.3c5.6-2,10.9-4.3,16.1-7.4c2-1.1,3.9-2.4,5.7-3.8c0.4-0.4-0.3-0.7-0.6-0.4
				c-1.7,1.4-3.6,2.5-5.6,3.6c-5,2.9-10.4,5.3-15.8,7.3C20.1,30.9,20.3,31.5,20.8,31.3L20.8,31.3z"/>
		</g>
	</g>
	<g>
		<g>
			<path class="st4" d="M21.4,39c5.6-2,10.9-4.3,16.1-7.4c2-1.1,3.9-2.4,5.7-3.8c0.4-0.3-0.6-0.3-0.7-0.1c-1.7,1.4-3.6,2.5-5.6,3.6
				c-5,2.9-10.4,5.3-15.8,7.3C20.4,39,21,39.2,21.4,39L21.4,39z"/>
		</g>
	</g>
	<g>
		<g>
			<path class="st3" d="M21.4,42c5.6-2,10.9-4.3,16-7.4c2-1.1,4.1-2.4,5.9-3.8c0.1-0.1-0.7,0-0.8,0.1c-1.7,1.4-3.6,2.5-5.5,3.6
				c-5,2.9-10.4,5.3-15.8,7.3C20.5,42,21.1,42.1,21.4,42L21.4,42z"/>
		</g>
	</g>
	<g>
		<g>
			<path class="st3" d="M21.2,44.6c5.5-2,10.9-4.3,16-7.3c2-1.1,4.1-2.4,5.9-3.9c0.4-0.4-0.3-0.7-0.6-0.4c-1.7,1.4-3.6,2.5-5.5,3.6
				c-5,2.9-10.4,5.5-16,7.3C20.5,44.2,20.7,44.8,21.2,44.6L21.2,44.6z"/>
		</g>
	</g>
	<g>
		<g>
			<path class="st4" d="M21.1,48.4c5.6-2,10.9-4.3,16.1-7.4c2-1.1,3.9-2.4,5.7-3.8c0.4-0.4-0.3-0.7-0.6-0.4
				c-1.7,1.4-3.6,2.5-5.6,3.6c-5,2.9-10.4,5.3-15.8,7.3C20.4,48,20.5,48.6,21.1,48.4L21.1,48.4z"/>
		</g>
	</g>
	<g>
		<g>
			<path class="st4" d="M20.4,29.5c4.8,3.4,9.8,6.3,15.1,8.7c2.1,1,4.2,1.8,6.4,2.5c0.3,0.1,1.1-0.3,0.7-0.4
				c-2.1-0.7-4.2-1.5-6.2-2.4c-5.3-2.4-10.5-5.3-15.3-8.7C21.1,29,20.3,29.4,20.4,29.5L20.4,29.5z"/>
		</g>
	</g>
	<g>
		<g>
			<path class="st3" d="M21,31.5c4.9,3.4,9.9,6.4,15.3,8.8c2.1,0.8,4.2,1.8,6.3,2.4c0.3,0.1,1.1-0.4,0.6-0.6
				c-2.1-0.7-4.3-1.5-6.3-2.5c-5.3-2.4-10.4-5.3-15.1-8.7C21.4,30.9,20.5,31.2,21,31.5L21,31.5z"/>
		</g>
	</g>
	<g>
		<g>
			<path class="st4" d="M20.4,35.8c4.9,3.4,10.2,6.4,15.5,9c2,1,4.1,1.8,6,2.5c0.4,0.1,1.1-0.4,0.6-0.6c-2.1-0.7-4.2-1.5-6.2-2.5
				c-5.3-2.5-10.5-5.6-15.4-9C20.8,35.1,20,35.5,20.4,35.8L20.4,35.8z"/>
		</g>
	</g>
	<g>
		<g>
			<path class="st3" d="M20.8,27.7c0,0.1-0.1,0.3-0.1,0.3s0.1,0,0.3,0c0.3,0,0.6-0.1,0.7-0.1c0.6-0.1,1-0.3,1.5-0.6
				c1-0.4,2-0.8,2.9-1.3c2-0.8,3.8-1.8,5.7-2.9l5.6-3.1c1-0.6,1.8-1,2.8-1.5c0.4-0.3,1-0.6,1.4-0.8c0.3-0.1,0.4-0.3,0.6-0.4
				c0.1-0.1,0.4-0.4,0.1-0.6l0,0l0,0l0,0c0.1,0,0.3,0.1,0.3,0.4c0,0.1-0.1,0.3-0.1,0.4c-0.1,0.3-0.3,0.4-0.6,0.6
				c-0.4,0.4-0.8,0.7-1.3,1.1c-0.8,0.7-1.8,1.3-2.7,1.8c-1.8,1.1-3.8,2.1-5.7,2.9c-2,1-3.9,1.8-5.9,2.7c-1,0.4-2,0.8-2.9,1.1
				c-0.6,0.1-1,0.3-1.5,0.4c-0.3,0-0.6,0.1-0.8,0.1c-0.1,0-0.3,0-0.4-0.1C20.7,27.8,20.8,27.7,20.8,27.7
				C20.8,27.6,20.8,27.6,20.8,27.7C21,27.7,21,27.7,20.8,27.7L20.8,27.7L20.8,27.7z"/>
		</g>
		<g>
			<g>
				<path class="st3" d="M31.6,33.7c0,0.3,0,0.6,0.1,0.7c0,0.1,0,0.3,0,0.6v0.1l0,0v0.1l0,0l0,0l0,0l0,0l0,0c0,0,0,0,0.1,0l0,0
					c0,0,0,0,0.1,0l0,0H32l0,0h0.1l0,0c0,0,0,0,0.1,0l0,0c0,0,0,0,0.1,0l0,0c0,0,0,0,0.1,0l0,0l0,0l0,0l0,0c0,0,0,0,0-0.1V35
					c0-0.1-0.1-0.4-0.1-0.6s0-0.3,0-0.4l0,0c0,0,0,0-0.1,0h-0.1C31.9,33.7,31.9,33.7,31.6,33.7C31.7,33.7,31.7,33.7,31.6,33.7
					l-0.1,0.1l0,0c0,0,0,0,0,0.1c0,0.3,0.1,0.7,0.1,1c0,0.1,0,0.1,0,0.3c0,0,0,0.1,0.1,0.1c0,0,0,0,0.1,0H32c0.1,0,0.3,0,0.4-0.1
					c0,0,0,0,0.1,0s0.1-0.1,0.3-0.1l0,0c0-0.1,0-0.1,0-0.3c0-0.1,0-0.1,0-0.3c0-0.3,0-0.7-0.1-1v-0.1l0,0c0,0,0,0-0.1,0h-0.1h-0.1
					h-0.1c0,0-0.1,0-0.1,0.1C31.7,33.6,31.7,33.6,31.6,33.7C31.6,33.6,31.6,33.7,31.6,33.7L31.6,33.7z"/>
			</g>
			<path class="st3" d="M32.2,33.6c0,0.3,0.1,0.6,0.1,0.8c0,0.3,0,0.6,0,0.8v0.1l0,0c0,0-0.1,0-0.3,0c-0.1,0-0.1,0-0.1-0.1
				c-0.1-0.1-0.1-0.1-0.1-0.3c0-0.1,0-0.3-0.1-0.4c0-0.3,0-0.6,0-0.8c0,0,0-0.1,0.1-0.1c0,0,0.1,0,0.1,0.1c0.1,0.3,0.1,0.6,0.3,0.7
				c0,0.1,0,0.3,0.1,0.3v0.1l0,0h-0.1l0,0l0,0c0-0.1,0-0.4,0-0.7s0-0.6,0-0.7c0,0,0-0.1,0.1-0.1C32.2,33.4,32.2,33.4,32.2,33.6z"/>
		</g>
		<g>
			<g>
				<path class="st3" d="M21.2,50.7c-0.7,1,1.3,0.4,1.5,0.4c1.8-0.4,3.6-1.3,5.5-2.1c4.5-2,9-4.1,13-6.9C41.5,42,44,40.3,43,40
					c-0.3-0.1-1,0.3-0.8,0.3c0.7,0.3-1.1,1.5-1.3,1.7c-1.5,1.1-3.2,2-4.9,2.8c-3.9,2.1-7.8,4.1-11.9,5.6c-0.1,0-2.5,1-2,0.1
					C22.2,50.4,21.4,50.4,21.2,50.7L21.2,50.7z"/>
			</g>
		</g>
	</g>
	<g>
		<g>
			<g>
				<path class="st5" d="M41.8,24.5c0.8,1.4-4.3,0.8-4.9,0.7c-2.8-0.6-5.6-1.5-8-2.9c-2.1-1.1-3.9-2.5-5.7-4.1
					c-0.1-0.1-2.7-2.7-2.1-2.8c0.6-0.3-0.3-0.1-0.6-0.1c-1.3,0.6,1.1,2.7,1.5,3.1c2.4,2.1,5,3.9,8,5.3c2.9,1.4,6.3,2.4,9.7,2.2
					c0.6,0,3.9-0.3,3.1-1.5C42.7,24.1,41.8,24.3,41.8,24.5L41.8,24.5z"/>
			</g>
		</g>
		<g>
			<path class="st6" d="M42.4,25.2c1.1,1.5-4.9,2.1-10.9-0.3c-6-2.5-12-8.1-10.8-8.5"/>
			<g>
				<path class="st5" d="M42,25.3c0.7,1.1-4.5,0.8-4.9,0.7c-2.8-0.4-5.3-1.4-7.8-2.7c-2.1-1.1-4.1-2.5-5.9-4.1
					c-0.6-0.6-1.3-1.1-1.7-1.8c-0.1-0.1-0.3-0.4-0.4-0.7c-0.1-0.1,0-0.4-0.1-0.3c0.6-0.3,0-0.6-0.4-0.4c-1.4,0.7,1,2.7,1.5,3.2
					c2.2,2.1,4.9,3.9,7.8,5.2c3.1,1.4,6.4,2.4,9.8,2.2c0.7,0,4.1-0.3,3.1-1.8C42.7,24.8,41.7,25,42,25.3L42,25.3z"/>
			</g>
		</g>
		<g>
			<path class="st7" d="M42.4,26c1.1,1.5-5,2.2-10.9-0.1c-6-2.5-12-8-10.6-8.4"/>
			<g>
				<path class="st5" d="M42,26.2c0.8,1.4-4.2,1-4.9,1c-2.8-0.4-5.5-1.3-7.8-2.7c-2.1-1.1-4.1-2.4-5.7-3.9c-0.1-0.1-2.8-2.8-2.4-2.9
					c0.6-0.3-0.3-0.3-0.6-0.1c-1.3,0.6,1.3,2.7,1.7,3.1c2.4,2.1,5.2,3.9,8,5.3c2.9,1.3,6.2,2.1,9.4,2c0.7,0,4.1-0.4,3.2-1.7
					C42.7,25.6,41.8,26,42,26.2L42,26.2z"/>
			</g>
		</g>
		<g>
			<path class="st8" d="M42.4,26.9c1.1,1.5-5.2,2.4-11.1,0c-6-2.4-11.9-7.8-10.5-8.4"/>
			<g>
				<path class="st5" d="M42,27c0.8,1.4-3.9,1.1-4.5,1.1c-2.8-0.3-5.5-1.1-8-2.4c-2.2-1.1-4.2-2.5-6.2-4.2c-0.6-0.6-1.3-1.1-1.7-1.7
					c-0.1-0.3-0.4-0.4-0.6-0.7c0-0.1,0-0.4-0.1-0.4c0.6-0.3,0-0.4-0.3-0.3c-1.4,0.6,0.8,2.5,1.3,2.9c2.2,2.1,5,3.9,7.8,5.3
					c2.9,1.4,6.4,2.1,9.8,2c0.6,0,4.2-0.4,3.2-1.8C42.7,26.4,41.8,26.7,42,27L42,27z"/>
			</g>
		</g>
		<g>
			<path class="st9" d="M42.4,27.7c1.1,1.5-5.2,2.5-11.2,0.1s-11.9-7.7-10.5-8.3"/>
			<g>
				<path class="st5" d="M42,27.8c0.7,1.1-4.1,1.1-4.5,1.1c-2.8-0.1-5.6-1-8.1-2.2c-2.1-1.1-4.1-2.4-5.9-3.9
					c-0.3-0.1-2.8-2.8-2.5-2.9c0.6-0.3,0-0.6-0.4-0.4c-1.5,0.7,1,2.7,1.5,3.2c2.2,2.1,5,3.8,7.8,5c2.9,1.4,6.3,2.1,9.7,1.8
					c0.7,0,4.2-0.4,3.4-2C42.7,27.1,41.7,27.6,42,27.8L42,27.8z"/>
			</g>
		</g>
		<g>
			<path class="st10" d="M42.4,28.5c1.1,1.5-5.3,2.7-11.3,0.3s-11.8-7.7-10.4-8.1"/>
			<g>
				<path class="st5" d="M42,28.7c0.8,1.4-3.8,1.4-4.3,1.3c-2.9-0.1-5.7-1-8.4-2.4c-2.1-1.1-4.1-2.4-5.9-3.9
					c-0.1-0.1-2.8-2.7-2.2-2.9c0.6-0.3-0.3-0.1-0.6-0.1c-1.3,0.6,1.1,2.7,1.5,3.1c2.4,2.1,5.3,3.9,8.3,5.2c2.9,1.1,6.2,1.7,9.4,1.4
					c0.7-0.1,3.9-0.6,3.1-1.8C42.8,28.1,41.8,28.5,42,28.7L42,28.7z"/>
			</g>
		</g>
		<g>
			<path class="st11" d="M42.4,29.4c1.1,1.5-5.5,2.7-11.3,0.6c-6-2.2-11.6-7.6-10.2-8"/>
			<g>
				<path class="st5" d="M42,29.5c0.8,1.3-3.6,1.4-4.2,1.4c-2.8,0-5.6-0.8-8.3-2.1c-2.2-1.1-4.3-2.4-6.2-4.1
					c-0.6-0.6-1.3-1.1-1.7-1.7c-0.1-0.3-0.4-0.4-0.6-0.7c0-0.1,0-0.4-0.1-0.4c0.6-0.3,0-0.6-0.3-0.3c-1.4,0.7,0.7,2.5,1.3,2.9
					c2.2,2.1,5,3.9,8,5c2.9,1.3,6.3,1.8,9.5,1.5c0.7,0,4.3-0.6,3.5-2C42.7,29,41.8,29.2,42,29.5L42,29.5z"/>
			</g>
		</g>
		<g>
			<path class="st12" d="M42.4,30.2c1.1,1.5-5.6,2.8-11.5,0.7c-6-2.2-11.6-7.4-10.2-8"/>
			<g>
				<path class="st5" d="M42,30.4c0.7,1.3-3.9,1.4-4.5,1.4c-2.8,0-5.6-0.7-8.1-2c-2.2-1-4.2-2.4-6.2-3.9c-0.6-0.6-1.3-1.1-1.7-1.7
					c-0.1-0.3-0.3-0.4-0.6-0.7c-0.1-0.1,0-0.4-0.1-0.3c0.6-0.3,0-0.6-0.4-0.4c-1.5,0.7,1,2.7,1.4,3.2c2.4,2.1,5.2,3.8,8.1,5
					c2.9,1.1,6.3,1.7,9.5,1.3c0.7-0.1,4.1-0.7,3.2-2.1C42.7,29.7,41.8,30.1,42,30.4L42,30.4z"/>
			</g>
		</g>
		<g>
			<path class="st13" d="M42.5,30.9c1.1,1.5-5.6,2.9-11.6,0.8c-6-2.2-11.5-7.3-10.1-7.8"/>
			<g>
				<path class="st5" d="M42,31.1c0.8,1.4-3.8,1.5-4.3,1.5c-2.9,0-5.7-0.7-8.4-2c-2.1-1-4.2-2.2-5.9-3.8c-0.1-0.1-2.8-2.7-2.2-2.9
					c0.6-0.3-0.3-0.1-0.6-0.1c-1.4,0.6,1.1,2.7,1.5,3.1c2.4,2.1,5.3,3.9,8.4,5c2.9,1,6.2,1.4,9.1,1c0.7-0.1,4.1-0.7,3.2-2
					C42.8,30.6,42,31.1,42,31.1L42,31.1z"/>
			</g>
		</g>
		<g>
			<path class="st14" d="M42.5,31.8c1.1,1.5-5.7,3.1-11.6,1c-6-2.1-11.3-7.3-9.9-7.7"/>
			<g>
				<path class="st5" d="M42.1,32c0.7,1.1-3.8,1.4-4.2,1.4c-2.7,0.1-5.5-0.4-7.8-1.4c-2.2-1-4.3-2.2-6.3-3.8c-0.7-0.6-1.4-1.3-2-2
					c-0.1-0.1-0.7-1.1-0.7-1.1c0.6-0.3,0-0.7-0.4-0.6c-1.5,0.7,1,2.8,1.5,3.2c2.2,2.1,5,3.6,8,4.8c3.1,1.1,6.6,1.5,9.7,1
					c0.8-0.1,4.1-0.8,3.1-2.2C42.7,31.3,41.8,31.6,42.1,32L42.1,32z"/>
			</g>
		</g>
		<g>
			<path class="st15" d="M42.5,32.6c1.1,1.5-5.9,3.1-11.8,1.1c-6-2.1-11.3-7.1-9.9-7.6"/>
			<g>
				<path class="st5" d="M42,32.7c0.8,1.4-3.5,1.7-4.1,1.7c-2.8,0.1-5.6-0.3-8.1-1.4c-2.2-1-4.3-2.2-6.3-3.8
					c-0.7-0.6-1.3-1.1-1.8-1.8c-0.1-0.3-0.4-0.6-0.6-0.8c0-0.1,0-0.4-0.1-0.4c0.6-0.3,0-0.4-0.3-0.3c-1.4,0.7,0.8,2.7,1.4,3.1
					c2.4,2.1,5.2,3.8,8.1,4.8s6.3,1.4,9.4,0.8c0.7-0.1,4.2-0.8,3.4-2.1C42.8,32.3,42,32.6,42,32.7L42,32.7z"/>
			</g>
		</g>
		<g>
			<path class="st16" d="M42.5,33.4c1.1,1.5-5.9,3.2-11.9,1.3c-6-2.1-11.2-7-9.8-7.6"/>
			<g>
				<path class="st5" d="M42.1,33.7c0.7,1.1-3.6,1.5-4.2,1.5c-2.7,0.1-5.3-0.1-7.8-1.1c-2.2-0.8-4.5-2.1-6.3-3.6
					c-0.7-0.6-1.4-1.3-2.1-2c-0.1-0.1-0.7-1.1-0.7-1.1c0.6-0.3,0-0.7-0.4-0.6c-1.5,0.7,1,2.8,1.5,3.2c2.4,2.1,5.2,3.6,8.1,4.8
					c2.9,1,6.3,1.3,9.5,0.7c0.8-0.1,4.2-0.8,3.2-2.4C42.7,33,41.8,33.3,42.1,33.7L42.1,33.7z"/>
			</g>
		</g>
		<g>
			<path class="st17" d="M42.5,34.3c1.1,1.5-6,3.4-11.9,1.4c-6-2-11.2-6.9-9.8-7.4"/>
			<g>
				<path class="st5" d="M42.1,34.4c0.7,1.1-3.5,1.7-4.1,1.7c-2.8,0.3-5.6,0-8.1-1.1c-2.2-0.8-4.5-2.1-6.4-3.6
					c-0.1-0.1-2.9-2.8-2.5-2.9c0.6-0.3,0-0.6-0.4-0.4c-1.5,0.7,0.8,2.7,1.4,3.2c2.4,2.1,5.2,3.6,8.3,4.6c2.9,1,6.4,1.1,9.5,0.4
					c0.8-0.1,4.1-1,3.2-2.4C42.8,33.9,41.8,34.1,42.1,34.4L42.1,34.4z"/>
			</g>
		</g>
		<g>
			<path class="st18" d="M42.5,35.1c1.1,1.5-6.2,3.5-12,1.5c-6-2-11.1-6.9-9.7-7.3"/>
			<g>
				<path class="st5" d="M42.1,35.3c0.8,1.3-3.2,1.8-3.9,2c-2.8,0.3-5.7,0-8.4-1c-2.2-0.8-4.5-2.1-6.3-3.6c-0.7-0.6-1.3-1.1-1.8-1.7
					c-0.1-0.3-0.4-0.6-0.6-0.8c0-0.1,0-0.4-0.1-0.4c0.6-0.3,0-0.4-0.3-0.3c-1.5,0.7,0.8,2.5,1.4,3.1c2.4,2.1,5.2,3.6,8.3,4.6
					c2.9,0.8,6.3,1,9.4,0.3c0.7-0.1,4.2-1,3.4-2.2C42.8,34.7,42,35.1,42.1,35.3L42.1,35.3z"/>
			</g>
		</g>
		<g>
			<path class="st19" d="M42.5,36c1.1,1.5-6.3,3.6-12.2,1.7c-6-2-10.9-6.7-9.5-7.1"/>
			<g>
				<path class="st5" d="M42.1,36.1c0.7,1.1-3.5,1.8-3.9,1.8c-2.7,0.3-5.5,0.1-8-0.7c-2.4-0.8-4.6-2.1-6.4-3.5
					c-0.3-0.1-2.9-2.8-2.7-2.9c0.6-0.3,0-0.6-0.4-0.4c-1.5,0.7,0.8,2.7,1.4,3.1c2.4,2.1,5.3,3.6,8.3,4.6c3.1,0.8,6.3,1,9.4,0.3
					c0.8-0.1,4.2-1,3.2-2.5C42.8,35.5,42,35.8,42.1,36.1L42.1,36.1z"/>
			</g>
		</g>
		<g>
			<path class="st20" d="M42.5,36.8c1.1,1.5-6.3,3.6-12.3,2c-6-1.8-10.9-6.6-9.5-7.1"/>
			<g>
				<path class="st5" d="M42.1,36.9c0.6,1-3.4,1.7-3.9,1.8c-2.5,0.4-5.3,0.3-7.8-0.6c-2.4-0.7-4.6-2-6.6-3.5
					c-0.3-0.1-3.1-2.8-2.8-2.9c0.6-0.3,0-0.7-0.4-0.6c-1.5,0.7,0.8,2.7,1.4,3.2c2.4,2.1,5.5,3.8,8.5,4.6c2.9,0.8,6.3,0.8,9.2,0
					c0.8-0.3,4.1-1.1,3.2-2.7C42.8,36.2,41.8,36.5,42.1,36.9L42.1,36.9z"/>
			</g>
		</g>
		<g>
			<path class="st21" d="M42.5,37.6c1.1,1.5-6.4,3.8-12.3,2.1c-6-1.8-10.8-6.4-9.4-7"/>
			<g>
				<path class="st5" d="M42.1,37.8c0.6,1-3.4,1.8-3.9,1.8c-2.5,0.4-5.3,0.4-7.8-0.3c-2.4-0.7-4.6-1.8-6.6-3.4
					c-0.7-0.6-1.4-1.1-2.1-1.8C21.5,34,20.8,33,21,32.9c0.6-0.3,0-0.7-0.4-0.6c-1.5,0.7,1,2.8,1.5,3.4c2.4,2.1,5.5,3.6,8.5,4.5
					c2.9,0.7,6.2,0.7,9.1-0.1c0.8-0.3,4.2-1.1,3.2-2.7C42.8,37.1,42,37.4,42.1,37.8L42.1,37.8z"/>
			</g>
		</g>
		<g>
			<path class="st22" d="M42.5,38.5c1.1,1.5-6.6,3.9-12.5,2.2c-6-1.7-10.6-6.4-9.2-6.9"/>
			<g>
				<path class="st5" d="M42.2,38.6c0.6,1-3.4,1.8-3.8,2c-2.5,0.6-5.3,0.6-7.8-0.1c-2.4-0.7-4.8-1.8-6.7-3.4
					c-0.3-0.1-3.2-2.8-2.8-2.9c0.6-0.3,0-0.7-0.4-0.6c-1.5,0.7,0.8,2.8,1.4,3.2c2.4,2.1,5.5,3.6,8.5,4.3c2.9,0.7,6.3,0.6,9.1-0.3
					c0.8-0.3,4.1-1.3,3.2-2.7C42.8,37.9,42,38.2,42.2,38.6L42.2,38.6z"/>
			</g>
		</g>
		<g>
			<path class="st23" d="M42.7,39.3c1.1,1.5-6.7,4.1-12.6,2.4c-6-1.7-10.6-6.3-9.2-6.7"/>
			<g>
				<path class="st5" d="M42.1,39.5c0.7,1.1-2.8,2-3.4,2.1c-2.5,0.6-5.3,0.7-8,0c-2.5-0.7-5-2-7.1-3.5c-0.7-0.6-1.4-1.1-2-1.8
					c-0.1-0.3-0.4-0.6-0.6-0.8c0-0.1,0-0.4-0.1-0.4c0.6-0.3,0-0.6-0.3-0.3c-1.5,0.7,1,2.8,1.5,3.2c2.4,2,5.5,3.5,8.4,4.2
					c2.9,0.6,6,0.4,9-0.4c0.7-0.1,4.2-1.3,3.4-2.5C42.9,38.9,42,39.2,42.1,39.5L42.1,39.5z"/>
			</g>
		</g>
		<g>
			<path class="st24" d="M42.7,40.2c1.1,1.5-6.7,4.2-12.6,2.5S19.6,36.5,21,36"/>
			<g>
				<path class="st5" d="M42.1,40.2c0.7,1.1-2.8,2-3.5,2.1c-2.5,0.7-5.5,0.7-8,0.1c-2.5-0.6-5-1.8-7.1-3.5c-0.7-0.6-1.4-1.1-2-1.8
					c-0.1-0.3-0.4-0.6-0.6-0.8c0-0.1,0-0.4-0.1-0.4c0.6-0.3,0-0.6-0.3-0.3c-1.5,0.7,1,2.8,1.5,3.2c2.4,2,5.3,3.5,8.4,4.1
					c2.9,0.6,6.2,0.3,9-0.6c0.7-0.1,4.2-1.3,3.5-2.7C42.9,39.7,42,40,42.1,40.2L42.1,40.2z"/>
			</g>
		</g>
		<g>
			<path class="st25" d="M42.7,41c1.1,1.5-6.9,4.2-12.7,2.7c-5.9-1.5-10.4-6-9.1-6.6"/>
			<g>
				<path class="st5" d="M42.2,41c0.7,1.3-2.8,2.1-3.5,2.2c-2.7,0.7-5.5,0.8-8.1,0.1c-2.5-0.6-4.9-1.8-6.9-3.2
					c-0.7-0.6-1.4-1.1-2.1-1.8c-0.1-0.3-0.4-0.6-0.6-0.8c0-0.1,0-0.4-0.1-0.4c0.6-0.3,0-0.4-0.3-0.3c-1.5,0.7,0.8,2.7,1.5,3.2
					c2.4,2,5.5,3.5,8.5,3.9c2.9,0.6,6.2,0.3,9-0.7c0.7-0.1,4.2-1.3,3.4-2.7C42.9,40.6,42.1,40.9,42.2,41L42.2,41z"/>
			</g>
		</g>
		<g>
			<path class="st26" d="M42.7,41.8c1.1,1.5-7,4.3-12.9,2.8s-10.4-6-9-6.4"/>
			<g>
				<path class="st5" d="M42.2,41.8c0.7,1.1-2.8,2.1-3.4,2.2c-2.5,0.7-5.3,1-8,0.4c-2.5-0.6-4.9-1.7-7-3.2c-0.7-0.6-1.5-1.1-2.1-1.8
					c-0.1-0.1-0.8-1.1-0.7-1.3c0.6-0.3,0-0.4-0.3-0.3c-1.5,0.7,1,2.7,1.5,3.2c2.5,2,5.6,3.4,8.7,3.9c2.9,0.4,6,0.1,8.8-0.8
					c0.7-0.3,4.1-1.4,3.4-2.7C42.9,41.4,42.1,41.7,42.2,41.8L42.2,41.8z"/>
			</g>
		</g>
		<g>
			<path class="st27" d="M42.7,42.5c1.1,1.5-7,4.5-12.9,2.9s-10.2-5.9-8.8-6.3"/>
			<g>
				<path class="st5" d="M42.2,42.7c0.7,1.1-2.7,2.1-3.4,2.2c-2.5,0.7-5.2,1-7.7,0.6c-2.7-0.4-5.2-1.5-7.3-3.1
					c-0.7-0.6-1.5-1.1-2.1-1.8c-0.1-0.1-1-1.3-0.7-1.3c0.6-0.3,0-0.6-0.4-0.3c-1.5,0.7,1,2.8,1.5,3.2c2.5,2,5.6,3.4,8.7,3.8
					c2.9,0.4,6,0,8.8-1c0.7-0.3,4.2-1.4,3.4-2.7C42.9,42.1,42.1,42.5,42.2,42.7L42.2,42.7z"/>
			</g>
		</g>
		<g>
			<path class="st28" d="M42.7,43.4c1.1,1.5-7.1,4.6-13,3.1c-5.9-1.4-10.2-5.7-8.8-6.3"/>
			<g>
				<path class="st5" d="M42.2,43.7c0.6,0.8-3.1,2-3.5,2.1c-2.4,0.7-4.9,1-7.4,0.7s-5-1.4-7.3-2.8c-0.8-0.6-1.7-1.1-2.2-2
					c-0.1-0.1-0.8-1.1-0.7-1.1c0.6-0.3,0-0.8-0.4-0.6c-1.1,0.6,0,1.8,0.4,2.4c1.5,1.5,3.5,2.8,5.5,3.5c4.5,2,9.8,1.8,14.3-0.1
					c0.8-0.3,3.1-1.4,2.4-2.5C42.9,42.8,42,43.2,42.2,43.7L42.2,43.7z"/>
			</g>
		</g>
		<g>
			<path class="st29" d="M42.7,44.2c1.1,1.5-7.3,4.8-13.2,3.4c-5.9-1.4-10.1-5.6-8.7-6.2"/>
			<g>
				<path class="st5" d="M42.2,44.5c0.6,1-3.1,2.1-3.6,2.2c-2.4,0.7-4.9,1.1-7.3,0.8c-2.7-0.3-5.2-1.4-7.3-2.8
					c-0.8-0.6-1.5-1.1-2.2-1.8c0-0.1-0.8-1.1-0.7-1.1c0.6-0.3,0-0.7-0.4-0.6c-1.1,0.6-0.1,1.8,0.4,2.2c1.5,1.5,3.5,2.8,5.6,3.6
					c4.5,1.8,9.8,1.5,14.1-0.4c0.8-0.3,3.1-1.4,2.2-2.5C42.9,43.7,42,44.1,42.2,44.5L42.2,44.5z"/>
			</g>
		</g>
		<g>
			<path class="st30" d="M42.7,45.1c1.1,1.5-7.3,4.8-13.3,3.5c-5.9-1.4-9.9-5.6-8.5-6"/>
			<g>
				<path class="st5" d="M42.2,45.3c0.6,1-3.1,2.1-3.5,2.2c-2.4,0.7-4.8,1.1-7.3,1c-2.7-0.1-5.2-1.3-7.4-2.7c-0.8-0.6-1.7-1.1-2.4-2
					c-0.1-0.1-0.8-1.1-0.7-1.3c0.6-0.3,0-0.7-0.4-0.6c-1.1,0.6-0.1,1.7,0.4,2.2c1.5,1.7,3.6,2.8,5.7,3.5c4.5,1.7,9.7,1.3,14-0.7
					c0.7-0.3,2.9-1.4,2.2-2.5C42.9,44.6,42.1,44.9,42.2,45.3L42.2,45.3z"/>
			</g>
		</g>
		<g>
			<path class="st31" d="M42.7,45.9c1.1,1.5-7.4,4.9-13.3,3.6s-9.9-5.5-8.5-5.9"/>
			<g>
				<path class="st5" d="M42.2,46c0.7,1.1-2.5,2.2-3.1,2.4c-2.4,0.8-5.2,1.3-7.7,1.1c-2.7-0.3-5.3-1.3-7.6-2.8
					c-0.3-0.1-3.6-2.8-2.8-3.2c0.6-0.3-0.3-0.3-0.6-0.1c-1.1,0.4,0.1,1.7,0.6,2.2c1.7,1.5,3.8,2.7,5.9,3.5c4.3,1.5,9.2,0.8,13.4-1
					c0.6-0.3,3.2-1.4,2.5-2.5C43.1,45.6,42.2,45.9,42.2,46L42.2,46z"/>
			</g>
		</g>
		<g>
			<path class="st32" d="M42.8,46.7c1.1,1.5-7.6,5-13.4,3.8c-5.9-1.3-9.8-5.3-8.4-5.9"/>
			<g>
				<path class="st5" d="M42.4,46.9c0.6,1-2.9,2.2-3.5,2.4c-2.4,0.8-4.9,1.3-7.3,1.1c-2.7-0.1-5.3-1.1-7.6-2.5
					c-0.8-0.6-1.5-1.1-2.2-1.8c-0.1-0.1-1-1.1-0.7-1.3c0.6-0.3,0-0.7-0.4-0.4c-1.1,0.4-0.1,1.7,0.4,2.2c1.5,1.7,3.6,2.7,5.7,3.5
					c4.5,1.5,9.7,1,14-1c0.7-0.3,3.1-1.4,2.4-2.5C42.9,46.3,42.1,46.6,42.4,46.9L42.4,46.9z"/>
			</g>
		</g>
		<g>
			<path class="st33" d="M42.8,47.6c1.1,1.5-7.7,5.2-13.6,3.9s-9.7-5.2-8.4-5.7"/>
			<g>
				<path class="st5" d="M42.4,47.7c0.6,0.8-2.9,2.1-3.5,2.4c-2.2,0.8-4.6,1.3-7,1.3c-2.7,0-5.5-1-7.7-2.4c-0.8-0.6-1.7-1.1-2.2-1.8
					c-0.1-0.1-1-1.1-0.7-1.3c0.6-0.3,0-0.8-0.4-0.6c-1.1,0.6-0.1,1.8,0.4,2.4c1.5,1.7,3.8,2.8,6,3.5c4.5,1.4,9.7,0.7,13.9-1.3
					c0.7-0.4,2.9-1.4,2.2-2.7C42.9,47,42.1,47.3,42.4,47.7L42.4,47.7z"/>
			</g>
		</g>
		<g>
			<path class="st34" d="M42.8,48.4c1.1,1.5-7.7,5.3-13.6,4.1c-5.9-1.1-9.7-5.2-8.3-5.6"/>
			<g>
				<path class="st5" d="M42.2,48.6c0.7,1.1-2.5,2.2-3.1,2.5c-2.4,1-4.9,1.5-7.4,1.5c-2.7,0-5.3-0.8-7.6-2.1
					c-0.8-0.6-1.7-1.1-2.4-1.8c-0.1-0.1-1.1-1.3-0.8-1.4c0.6-0.3,0-0.6-0.3-0.3c-1.1,0.4-0.3,1.5,0.3,2.1c1.7,1.7,3.9,2.8,6.2,3.5
					c4.3,1.3,9.4,0.4,13.4-1.4c0.7-0.3,3.2-1.4,2.5-2.5C43.1,48,42.2,48.3,42.2,48.6L42.2,48.6z"/>
			</g>
		</g>
		<g>
			<path class="st35" d="M42.8,49.3c1.1,1.5-7.8,5.3-13.7,4.2s-9.5-5-8.1-5.5"/>
			<g>
				<path class="st5" d="M42.4,49.4c0.6,1-2.8,2.2-3.2,2.5c-2.4,1-4.9,1.5-7.3,1.5c-2.7,0-5.3-0.7-7.6-2.1c-0.8-0.6-1.7-1.1-2.4-1.8
					c-0.1-0.1-1.1-1.3-0.7-1.4c0.6-0.3,0-0.6-0.4-0.4c-1.1,0.6-0.1,1.7,0.4,2.2c1.5,1.5,3.8,2.7,5.9,3.2c4.5,1.4,9.7,0.4,13.9-1.7
					c0.7-0.3,2.9-1.4,2.2-2.5C43.1,48.8,42.1,49.1,42.4,49.4L42.4,49.4z"/>
			</g>
		</g>
		<path class="st36" d="M42.8,50.1c1.1,1.5-8,5.5-13.9,4.3c-5.9-1.1-9.5-4.9-8.1-5.3"/>
	</g>
	<g>
		<g>
			<g>
				<path class="st3" d="M42.7,14.3c0.1,0-1,1-1,1.1c-0.7,0.6-1.4,1.1-2.2,1.5c-2,1.3-4.1,2.5-6.2,3.5c-2.4,1.1-4.8,2.1-7.1,3.1
					c-1,0.4-2,0.8-2.9,1.1c-0.4,0.1-3.1,1.1-2.4-0.4c0.1-0.4-0.6-0.4-0.7-0.1c-0.4,0.8,0.1,1.5,1.1,1.5s2-0.6,2.9-0.8
					c3.2-1.1,6.3-2.5,9.2-3.9c2.8-1.3,5.5-2.9,7.8-4.8c0.3-0.3,2.9-2,1.7-2.5C42.8,13.6,42.2,14,42.7,14.3L42.7,14.3z"/>
			</g>
		</g>
		<g>
			<g>
				<path class="st37" d="M20.3,25.5c-0.3,0.7,0,1.4,0.7,1.5c1,0.1,2.1-0.4,3.1-0.7c3.2-1.1,6.3-2.5,9.4-3.9
					c2.7-1.3,5.3-2.8,7.7-4.5c0.3-0.1,3.1-2.1,2-2.7c-0.3-0.1-0.8,0.3-0.6,0.4c0.4,0.1-2.5,2.4-2.8,2.5c-2,1.3-4.1,2.5-6.2,3.5
					c-2.4,1.1-4.8,2.1-7.1,3.1c-1.1,0.4-2.1,0.8-3.2,1.3c-0.4,0.1-3.1,1.1-2.4-0.4C21.1,25.2,20.4,25.2,20.3,25.5L20.3,25.5z"/>
			</g>
		</g>
		<g>
			<g>
				<path class="st38" d="M20.3,26.6c-0.3,0.7,0,1.4,0.8,1.4c1,0.1,2.4-0.4,3.2-0.8c3.4-1.1,6.4-2.5,9.7-4.1
					c2.5-1.3,5.2-2.7,7.4-4.5c0.3-0.3,2.8-2,1.7-2.5c-0.3-0.1-0.7,0.3-0.4,0.4c0.1,0.1-2.8,2.5-2.9,2.7c-1.8,1.3-3.8,2.4-5.9,3.4
					c-2.4,1.1-4.8,2.1-7.1,3.1c-1.1,0.4-2.2,0.8-3.4,1.3c-0.4,0.1-3.1,1-2.4-0.4C21.1,26.3,20.4,26.3,20.3,26.6L20.3,26.6z"/>
			</g>
		</g>
		<g>
			<g>
				<path class="st39" d="M20.3,27.8c-1.1,2.2,3.2,0.8,3.9,0.7c3.1-1,6.2-2.4,9.1-3.8c2.7-1.3,5.3-2.7,7.7-4.3
					c0.3-0.3,3.1-2.2,2.1-2.7c-0.3-0.1-0.8,0.1-0.6,0.3c0.4,0.3-2.7,2.5-2.9,2.7c-2,1.3-3.9,2.4-6,3.4c-2.2,1-4.5,2.1-6.9,2.9
					c-1.1,0.4-2.2,0.8-3.4,1.3c-0.4,0.1-3.4,1.1-2.7-0.4C21.1,27.6,20.4,27.6,20.3,27.8L20.3,27.8z"/>
			</g>
		</g>
		<g>
			<g>
				<path class="st40" d="M20.3,29c-1,2.2,3.2,1,3.9,0.7c3.1-1,6-2.2,9-3.6c2.8-1.3,5.5-2.7,8-4.5c0.3-0.3,3.1-2.1,2-2.7
					c-0.3-0.1-0.7,0.3-0.3,0.4c0.3,0.1-3.1,2.7-3.4,2.9c-2,1.3-3.9,2.4-6.2,3.4c-2.1,1-4.2,2-6.4,2.8c-1.1,0.4-2.1,0.8-3.2,1.1
					c-0.3,0.1-3.4,1-2.7-0.3C21.1,28.8,20.4,28.8,20.3,29L20.3,29z"/>
			</g>
		</g>
		<g>
			<g>
				<path class="st41" d="M20.4,30.2c-1,2.1,3.1,0.8,3.8,0.7c2.9-1,5.7-2.1,8.5-3.4s5.5-2.5,8-4.3c0.3-0.3,3.4-2.4,2.4-2.9
					c-0.1-0.1-0.7,0.1-0.4,0.3c0.6,0.3-3.1,2.9-3.4,3.1C37.3,25,35.1,26,33,27s-4.2,1.8-6.4,2.7c-1,0.4-2.1,0.7-3.1,1.1
					c-0.4,0.1-3.1,0.8-2.5-0.6C21,30.1,20.4,30.1,20.4,30.2L20.4,30.2z"/>
			</g>
		</g>
		<g>
			<g>
				<path class="st42" d="M20.4,31.5c-1,2.1,3.2,1,3.8,0.7c2.8-0.8,5.5-2,8.1-3.1c2.8-1.3,5.5-2.5,8-4.2c0.3-0.3,3.8-2.5,2.8-3.2
					c-0.3-0.1-0.7,0.1-0.4,0.3c0.6,0.3-3.4,3.1-3.6,3.2c-2,1.3-4.2,2.2-6.3,3.2c-2.1,0.8-4.1,1.8-6.2,2.5c-1,0.4-2,0.7-2.9,1
					C23.4,32,23,32,22.6,32.2c-0.3,0-2,0.4-1.5-0.7C21,31.2,20.4,31.2,20.4,31.5L20.4,31.5z"/>
			</g>
		</g>
		<g>
			<g>
				<path class="st43" d="M20.4,32.7c-0.8,2,3.4,0.7,3.9,0.6c2.7-0.8,5.3-2,8-3.1c2.8-1.3,5.5-2.4,8-4.1c0.4-0.3,3.9-2.7,2.8-3.2
					c-0.1-0.1-0.7,0.1-0.4,0.3c0.7,0.4-3.6,3.4-4.1,3.6c-2.1,1.3-4.2,2.2-6.4,3.1c-2.1,0.8-4.1,1.7-6.2,2.5c-1,0.3-2,0.7-2.9,0.8
					c-0.6,0.1-2.7,0.7-2.1-0.7C21,32.5,20.4,32.6,20.4,32.7L20.4,32.7z"/>
			</g>
		</g>
		<g>
			<g>
				<path class="st44" d="M20.4,34c-0.7,2,3.4,0.7,3.9,0.6c2.5-0.7,5-1.8,7.6-2.8c2.7-1.1,5.3-2.2,7.7-3.8c0.4-0.3,4.5-2.9,3.5-3.5
					c-0.1-0.1-0.6,0.1-0.4,0.1c0.8,0.6-3.4,3.4-3.8,3.5c-2,1.3-4.2,2.1-6.3,3.1S28.2,33,26,33.9c-0.8,0.3-1.8,0.6-2.7,0.8
					c-0.6,0.1-2.9,0.7-2.4-0.7C21,33.7,20.4,33.9,20.4,34L20.4,34z"/>
			</g>
		</g>
		<g>
			<g>
				<path class="st45" d="M20.4,35.1c-0.7,2,3.1,1,3.9,0.7c2.7-0.7,5.2-1.8,7.7-2.9c2.5-1.1,5.3-2.2,7.7-3.8
					c0.4-0.3,4.5-2.9,3.4-3.6c-0.1-0.1-0.7,0.1-0.4,0.3c0.7,0.4-4.3,3.8-4.6,3.9c-1.8,1-3.8,1.8-5.7,2.7c-2.1,0.8-4.2,1.7-6.3,2.5
					c-0.8,0.3-1.7,0.6-2.5,0.7c-0.4,0.1-0.7,0.1-1.1,0.3c-0.4,0-1.7,0.1-1.4-0.7C21,34.8,20.5,34.8,20.4,35.1L20.4,35.1z"/>
			</g>
		</g>
		<g>
			<g>
				<path class="st46" d="M20.4,36.4c-0.7,1.8,3.4,0.7,3.9,0.6c2.5-0.7,5-1.7,7.4-2.8c2.4-1,4.9-2,7.1-3.4c0.4-0.3,5-3.2,4.1-3.9
					c-0.1-0.1-0.6,0.1-0.4,0.1c1,0.6-4.2,3.8-4.6,4.1c-1.8,1-3.8,1.8-5.7,2.7c-2,0.8-3.9,1.7-6,2.4c-0.8,0.3-1.8,0.6-2.7,0.8
					c-0.6,0.1-3.1,0.7-2.5-0.7C21,36.1,20.5,36.2,20.4,36.4L20.4,36.4z"/>
			</g>
		</g>
		<g>
			<g>
				<path class="st47" d="M20.4,37.6c-0.7,1.7,3.2,0.7,3.8,0.6c2.5-0.7,5-1.7,7.6-2.7c2.4-1,4.9-2,7.1-3.2c0.6-0.3,5.3-3.2,4.2-4.1
					c-0.1-0.1-0.6,0.1-0.4,0.1c1,0.7-4.6,4.1-5.2,4.3c-1.7,0.8-3.5,1.7-5.3,2.4c-2.1,0.8-4.2,1.7-6.3,2.4c-0.4,0.1-5.5,1.7-4.9,0
					C21,37.4,20.5,37.4,20.4,37.6L20.4,37.6z"/>
			</g>
		</g>
		<g>
			<g>
				<path class="st48" d="M20.5,38.8c-0.6,1.7,3.4,0.7,3.9,0.6c2.4-0.7,4.8-1.5,7.1-2.5s4.6-2,6.9-3.1c0.4-0.3,5.7-3.4,4.5-4.2
					c-0.1,0-0.4,0.1-0.4,0.1c1.1,0.8-4.5,4.1-4.9,4.2c-1.7,0.8-3.5,1.7-5.3,2.4c-2.1,0.8-4.1,1.7-6.3,2.4c-0.6,0.1-5.7,1.8-5.2,0
					C21,38.6,20.5,38.6,20.5,38.8L20.5,38.8z"/>
			</g>
		</g>
		<g>
			<g>
				<path class="st49" d="M20.5,40c-0.6,1.7,3.2,0.7,3.8,0.6c2.7-0.7,5-1.7,7.6-2.7c2.4-1,4.6-2,6.9-3.1c0.6-0.3,5.5-3.1,4.2-4.1
					c-0.1-0.1-0.4,0.1-0.3,0.1c0.7,0.6-2,2.4-2.2,2.7c-1,0.7-2,1.1-3.1,1.7c-1.8,0.8-3.6,1.7-5.5,2.4c-2.1,0.8-4.1,1.7-6.2,2.2
					c-0.4,0.1-5.5,1.5-4.9,0C21,39.7,20.5,39.9,20.5,40L20.5,40z"/>
			</g>
		</g>
		<g>
			<g>
				<path class="st50" d="M20.5,41.3c-0.6,1.5,3.1,0.7,3.6,0.6c2.5-0.6,4.9-1.5,7.3-2.5s4.6-2,7-2.9c0.7-0.3,5.9-3.1,4.5-4.2
					c-0.1,0-0.4,0.1-0.4,0.1c1.3,1-4.2,3.9-4.8,4.2c-1.8,0.8-3.6,1.7-5.6,2.4c-2.1,0.8-4.2,1.7-6.3,2.2c-0.4,0.1-5.6,1.7-5,0
					C21,41,20.5,41.1,20.5,41.3L20.5,41.3z"/>
			</g>
		</g>
		<g>
			<g>
				<path class="st51" d="M20.5,42.4c-0.6,1.5,3.2,0.7,3.8,0.6c2.5-0.6,4.9-1.5,7.3-2.5s4.8-2,7-3.1c0.7-0.3,5.6-2.9,4.2-4.1
					c-0.1-0.1-0.4,0-0.3,0.1c1.3,1-4.1,3.8-4.9,4.2c-1.8,0.8-3.8,1.7-5.6,2.4c-2.1,0.8-4.1,1.5-6.3,2.2c-0.4,0.1-5.3,1.5-4.8,0
					C21,42.3,20.5,42.3,20.5,42.4L20.5,42.4z"/>
			</g>
		</g>
		<g>
			<g>
				<path class="st52" d="M20.5,43.7c-0.4,1.1,2,1,2.5,0.8c1.7-0.3,3.2-0.8,4.9-1.4c3.9-1.3,7.7-2.8,11.3-4.6
					c0.7-0.3,4.9-2.7,3.6-3.6c-0.1,0-0.4,0-0.3,0.1c1,0.8-2.1,2.8-2.7,3.1c-0.7,0.3-1.4,0.7-2.1,1c-2,0.8-3.9,1.7-5.9,2.5
					c-2.1,0.8-4.2,1.5-6.3,2.2c-0.4,0.1-5.3,1.4-4.8,0C21,43.5,20.5,43.5,20.5,43.7L20.5,43.7z"/>
			</g>
		</g>
		<g>
			<g>
				<path class="st53" d="M20.5,44.8c-0.3,1.1,2.1,0.8,2.7,0.8c1.7-0.3,3.4-0.8,5-1.4c3.9-1.3,7.7-2.8,11.3-4.6
					c0.7-0.4,4.6-2.4,3.4-3.5c-0.1,0-0.4,0-0.3,0.1c1,0.8-1.8,2.7-2.4,2.9c-0.7,0.4-1.4,0.7-2.2,1.1c-2,0.8-3.9,1.7-5.9,2.5
					c-2.1,0.8-4.2,1.7-6.4,2.2c-0.3,0.1-5.3,1.4-4.8-0.1C21,44.6,20.5,44.8,20.5,44.8L20.5,44.8z"/>
			</g>
		</g>
		<g>
			<g>
				<path class="st54" d="M20.5,46c-0.3,1.1,2.1,0.8,2.7,0.7c1.7-0.3,3.4-0.8,4.9-1.4c3.9-1.4,7.8-2.9,11.6-4.8
					c0.7-0.3,1.4-0.7,2.1-1.1c0.4-0.4,1.7-1.5,1-2.2c0,0-0.3,0-0.3,0.1c1,1-1.5,2.5-2.1,2.8c-0.7,0.4-1.4,0.7-2.2,1
					c-2,0.8-4.1,1.7-6,2.5c-2.1,0.8-4.2,1.5-6.3,2.2c-0.4,0.1-5.3,1.4-4.9-0.1C21,45.9,20.5,45.9,20.5,46L20.5,46z"/>
			</g>
		</g>
		<g>
			<g>
				<path class="st55" d="M20.5,47.3c-0.3,1.1,2.1,0.8,2.7,0.8c1.7-0.3,3.5-0.8,5.2-1.4c3.9-1.4,7.8-2.9,11.6-4.8
					c0.8-0.4,4.1-2,2.8-3.2c0,0-0.3,0-0.3,0.1c1.5,1.4-3.4,3.4-4.2,3.8c-2,0.8-4.1,1.7-6.2,2.5s-4.3,1.7-6.4,2.2
					c-0.3,0.1-5.2,1.4-4.8-0.1C21,47.2,20.7,47.2,20.5,47.3L20.5,47.3z"/>
			</g>
		</g>
		<g>
			<g>
				<path class="st56" d="M20.7,48.4c-0.3,1,2.1,0.8,2.7,0.8c1.7-0.3,3.5-0.8,5.2-1.4c4.1-1.4,8-2.9,11.8-4.8c1-0.4,4.1-1.7,2.5-3.2
					c-0.1-0.1-0.3,0-0.3,0.1c1.5,1.5-3.2,3.2-4.2,3.6c-2.1,1-4.2,1.8-6.3,2.5c-2.1,0.8-4.3,1.5-6.4,2.2c-0.3,0.1-5,1.3-4.8-0.1
					C21,48.3,20.7,48.3,20.7,48.4L20.7,48.4z"/>
			</g>
		</g>
		<g>
			<g>
				<path class="st4" d="M20.7,49.7c-0.3,1,2.2,0.8,2.7,0.7c1.7-0.3,3.5-0.8,5-1.4c4.1-1.4,8.1-2.9,11.9-4.8c1-0.4,3.9-1.5,2.4-3.1
					c0,0-0.3,0-0.3,0.1c1.5,1.7-2.9,3.1-3.9,3.6c-2.1,1-4.3,1.8-6.4,2.7s-4.3,1.5-6.6,2.2C25.2,50,20.4,51.1,20.7,49.7
					C21,49.5,20.7,49.5,20.7,49.7L20.7,49.7z"/>
			</g>
		</g>
	</g>
	<g>
		<g>
			<path class="st3" d="M21,29.9c5.2-1.1,10.2-2.8,15-4.8c1.1-0.4,2.1-0.8,3.2-1.4c0.7-0.4,1.3-0.8,2-1.4s2.5-1.4,2.7-2.4
				c0-0.3-0.7-0.1-0.7,0.1c0,1-2.1,1.8-2.8,2.4c-1.7,1.3-3.6,2.1-5.6,2.9c-4.5,1.8-9,3.2-13.7,4.2C20.4,29.7,20.5,29.9,21,29.9
				L21,29.9z"/>
		</g>
	</g>
	<g>
		<g>
			<path class="st3" d="M20.8,42c4.6-0.8,9.2-2,13.7-3.5c2.1-0.7,4.3-1.5,6.4-2.7c0.8-0.4,2.7-1.5,2.7-2.7c0-0.1-0.7,0-0.7,0.1
				c0,0.7-1,1.3-1.4,1.7c-0.8,0.7-2,1.1-3.1,1.4c-1.8,0.8-3.8,1.5-5.7,2.1c-3.9,1.3-7.8,2.2-11.9,2.9C20.5,41.7,20.3,42.1,20.8,42
				L20.8,42z"/>
		</g>
	</g>
	<g>
		<g>
			<path class="st3" d="M20.5,49.1c5.5-1.1,10.9-2,16.2-3.8c0.6-0.1,7.6-2.5,6.3-3.6c-0.1-0.1-0.8,0.1-0.7,0.3
				c0.6,0.6-2.1,1.7-2.4,1.8c-1.7,0.7-3.5,1.4-5.3,1.8c-4.8,1.4-9.5,2.2-14.3,3.1C20.1,49,20.1,49.3,20.5,49.1L20.5,49.1z"/>
		</g>
	</g>
	<g>
		<g>
			<path class="st3" d="M20.5,51.8c4.5-0.7,9.1-1.3,13.4-2.1c2-0.4,3.9-1,5.7-1.8c1.1-0.6,3.1-1.3,3.5-2.7c0.1-0.3-0.7-0.3-0.7,0
				c-0.3,1-2,1.5-2.8,2c-0.8,0.4-1.5,0.7-2.4,1c-1.8,0.7-3.6,1-5.5,1.3c-3.8,0.6-7.6,1.1-11.2,1.8C20.3,51.2,20.1,51.8,20.5,51.8
				L20.5,51.8z"/>
		</g>
	</g>
	<g>
		<g>
			<path class="st3" d="M20.3,34.4c6.9,4.3,14,9.1,22.3,9.8c0.1,0,0.8-0.3,0.4-0.3c-8.3-0.7-15.3-5.5-22.1-9.8
				C20.8,34,20.1,34.3,20.3,34.4L20.3,34.4z"/>
		</g>
	</g>
	<g>
		<g>
			<path class="st3" d="M20.4,49c4.8-0.7,9.7-1.1,14.4-2.1c1.8-0.3,3.6-0.8,5.3-1.5c0.8-0.4,3.8-1.4,3.1-2.8c-0.1-0.1-0.8,0-0.7,0.1
				c1.1,2.4-8.7,4.1-10.1,4.2c-3.9,0.6-7.8,1.1-11.9,1.7C20.3,48.7,20,49.1,20.4,49L20.4,49z"/>
		</g>
	</g>
	<g>
		<g>
			<path class="st3" d="M20.1,38.3c4.6-0.3,9.2-1,13.7-2c2-0.4,3.9-0.8,5.9-1.8c1.4-0.7,2.8-1.5,3.8-2.8c0.1-0.3-0.6-0.3-0.7,0
				c-1,1.4-2.9,2.4-4.5,3.1c-1.8,0.8-3.9,1.1-5.9,1.5c-4.1,0.8-8.1,1.4-12.3,1.7C20,37.9,19.7,38.5,20.1,38.3L20.1,38.3z"/>
		</g>
	</g>
	<g>
		<g>
			<path class="st3" d="M20,32.5c4,0.5,8.4,1.1,12.4,0.5c2.5-0.4,4.9-1.5,7-2.8c1.3-0.8,4.1-2.4,3.9-4.2c0-0.4-0.7-0.3-0.7,0
				c0,0.8-0.8,1.7-1.4,2.1c-0.8,0.8-2,1.4-2.9,2.1c-2.1,1.3-4.5,2.2-7,2.4c-3.6,0.3-7.6-0.1-11.2-0.6C19.8,31.9,19.6,32.5,20,32.5
				L20,32.5z"/>
		</g>
	</g>
	<g>
		<g>
			<path class="st3" d="M21.1,20.3c-0.1-0.3-0.4-0.8-0.4-1.1c-0.1,0.1-0.4,0.1-0.7,0.1c0,0,0.1,1.5,0.1,1.7c0.1,0.6,0.1,1.1,0.4,1.7
				c0.4,1.3,0.8,2.5,1.5,3.6c1.4,2.5,3.5,4.8,5.9,6.3c2.8,1.8,6.2,3.1,9.5,3.9c1.7,0.4,3.6,0.8,5.5,1c0.1,0,0.8-0.3,0.4-0.3
				c-1.8,0-3.5-0.4-5.3-0.8c-3.4-0.8-6.7-2.1-9.7-4.1c-4.2-2.8-7.6-7.8-7.7-13.2l0,0l0,0c-0.1,0-0.6,0-0.7,0.1
				c0,0.3,0.3,0.8,0.4,1.1C20.5,20.6,21.2,20.4,21.1,20.3L21.1,20.3z"/>
		</g>
	</g>
	<g>
		<g>
			<path class="st3" d="M20.1,27.1c3.2,2.4,6.6,4.6,10.1,6.7c2.5,1.5,5.3,2.9,8.1,3.9c0.8,0.3,4.6,2,5.2,0.3c0-0.1-0.7,0-0.7,0.1
				c-0.3,1.1-6.6-1.8-7.1-2.1c-2.4-1.1-4.8-2.5-7-3.9c-2.7-1.7-5.3-3.4-7.8-5.3C20.7,26.7,20,27,20.1,27.1L20.1,27.1z"/>
		</g>
	</g>
	<g>
		<g>
			<path class="st3" d="M20.5,43.5c3.1,2.1,6.7,3.2,10.2,4.6c3.8,1.4,7.7,2.8,11.6,4.1c0.4,0.1,0.7-0.6,0.1-0.7
				c-3.8-1.3-7.6-2.5-11.2-3.9C27.8,46.3,24,45.2,21,43C20.5,42.5,20.1,43.2,20.5,43.5L20.5,43.5z"/>
		</g>
	</g>
	<g>
		<g>
			<path class="st3" d="M42.1,47.6c-4.6,0.8-9.5,1-14.3,0.8c-1.1,0-2.2-0.1-3.5-0.3c-0.6,0-1.1-0.1-1.5-0.3c-0.3,0-1-0.4-1.3-0.4
				c-0.4,0-0.4,0-0.6,0.4c-0.1,1,1.3,2.9,1.7,3.8c1.4,2.7,2.8,5.3,4.2,8.1c4.1,7.7,7.8,15.7,10.8,23.8c2.7,7.3,5.3,16,3.6,23.8
				c-1,4.9-4.9,8.1-6.4,12.7c-2.5,7.1-1.7,14.8,0,22.1c0.1,0.4,0.7,0.3,0.6-0.1c-1.5-6.7-2.5-14-0.3-20.7c1-3.1,2.7-5.6,4.5-8.1
				c0.8-1.1,1.4-2.4,1.8-3.8c2.1-6.7,0.3-14.6-1.7-21.1c-2.5-8.3-6-16.1-9.8-23.8c-2.5-5.2-5.6-10.2-8-15.4
				c-0.1-0.3-0.1-0.7-0.4-0.8c0,0,0-0.3-0.1-0.3c0,0-0.4,0-0.1,0.3c1.5,1,4.1,0.8,5.7,0.8c4.9,0.1,10.1,0,15-0.8
				C42.7,48.1,42.5,47.4,42.1,47.6L42.1,47.6z"/>
		</g>
	</g>
	<g>
		<g>
			<ellipse class="st57" cx="32" cy="13" rx="14.8" ry="6.9"/>
			<ellipse class="st1" cx="32.2" cy="11" rx="14.8" ry="7.4"/>
		</g>
		<g>
			<path class="st58" d="M33.4,10.9c0,0-0.3,0.7-1.4,0.7c-1,0-1.4-0.7-1.4-0.7V2.5h2.7L33.4,10.9L33.4,10.9z"/>
			<ellipse class="st59" cx="32" cy="2.4" rx="1.4" ry="0.6"/>
		</g>
	</g>
</g>
<polygon class="st60" points="5.6,158.5 95.8,113.3 102.1,116.4 11.9,161.6 "/>
<g>
	<path class="st61" d="M9.8,158.7c-0.6,0-1.3-0.4-1.6-1c-0.4-0.9-0.1-2,0.8-2.4l101-51.1c0.9-0.4,1.9-0.1,2.4,0.8
		c0.4,0.9,0.1,2-0.8,2.4l-101,51.1C10.3,158.6,10.1,158.7,9.8,158.7z"/>
</g>
<path class="st62" d="M146.7,136.4l-91.4,45.8L54.6,194c0,0,1.5,1.5,5.9-1.5c0,0,87.7-44.6,89.2-45.4s2.2-4.9,1.4-7.4
	C150.3,137.3,146.7,136.4,146.7,136.4z"/>
<path class="st63" d="M55.4,182.3l-0.6,12c0,0,5.6,2,5.7-4.3C60.5,183.6,55.4,182.3,55.4,182.3z"/>
<path class="st64" d="M7,131.2"/>
<g>
	<g>
		<path class="st65" d="M17.7,152.3c-0.3,0-0.5-0.2-0.5-0.5l-0.1-25.8c0-0.3,0.2-0.5,0.5-0.5c0,0,0,0,0,0c0.3,0,0.5,0.2,0.5,0.5
			l0.1,25.8C18.2,152.1,18,152.3,17.7,152.3C17.7,152.3,17.7,152.3,17.7,152.3z"/>
	</g>
	<path class="st65" d="M20.9,150.7c-0.3,0-0.5-0.2-0.5-0.5l-0.1-25.8c0-0.3,0.2-0.5,0.5-0.5c0,0,0,0,0,0c0.3,0,0.5,0.2,0.5,0.5
		l0.1,25.8C21.4,150.5,21.2,150.7,20.9,150.7C20.9,150.7,20.9,150.7,20.9,150.7z"/>
	<path class="st65" d="M24.1,149.2c-0.3,0-0.5-0.2-0.5-0.5l-0.1-25.8c0-0.3,0.2-0.5,0.5-0.5c0,0,0,0,0,0c0.3,0,0.5,0.2,0.5,0.5
		l0.1,25.8C24.6,149,24.4,149.2,24.1,149.2C24.1,149.2,24.1,149.2,24.1,149.2z"/>
	<path class="st65" d="M27.3,147.6c-0.3,0-0.5-0.2-0.5-0.5l-0.1-25.8c0-0.3,0.2-0.5,0.5-0.5c0,0,0,0,0,0c0.3,0,0.5,0.2,0.5,0.5
		l0.1,25.8C27.8,147.4,27.6,147.6,27.3,147.6C27.3,147.6,27.3,147.6,27.3,147.6z"/>
	<path class="st65" d="M30.5,146c-0.3,0-0.5-0.2-0.5-0.5L30,119.8c0-0.3,0.2-0.5,0.5-0.5c0,0,0,0,0,0c0.3,0,0.5,0.2,0.5,0.5
		l0.1,25.8C31,145.8,30.8,146,30.5,146C30.5,146,30.5,146,30.5,146z"/>
	<path class="st65" d="M33.7,144.5c-0.3,0-0.5-0.2-0.5-0.5l-0.1-25.8c0-0.3,0.2-0.5,0.5-0.5c0,0,0,0,0,0c0.3,0,0.5,0.2,0.5,0.5
		l0.1,25.8C34.2,144.3,34,144.5,33.7,144.5C33.7,144.5,33.7,144.5,33.7,144.5z"/>
	<path class="st65" d="M36.9,142.9c-0.3,0-0.5-0.2-0.5-0.5l-0.1-25.8c0-0.3,0.2-0.5,0.5-0.5c0,0,0,0,0,0c0.3,0,0.5,0.2,0.5,0.5
		l0.1,25.8C37.4,142.7,37.2,142.9,36.9,142.9C36.9,142.9,36.9,142.9,36.9,142.9z"/>
	<path class="st65" d="M40.1,141.3c-0.3,0-0.5-0.2-0.5-0.5l-0.1-25.8c0-0.3,0.2-0.5,0.5-0.5c0,0,0,0,0,0c0.3,0,0.5,0.2,0.5,0.5
		l0.1,25.8C40.6,141.1,40.4,141.3,40.1,141.3C40.1,141.3,40.1,141.3,40.1,141.3z"/>
	<path class="st65" d="M43.3,139.8c-0.3,0-0.5-0.2-0.5-0.5l-0.1-25.8c0-0.3,0.2-0.5,0.5-0.5c0,0,0,0,0,0c0.3,0,0.5,0.2,0.5,0.5
		l0.1,25.8C43.8,139.6,43.6,139.8,43.3,139.8C43.3,139.8,43.3,139.8,43.3,139.8z"/>
	<path class="st65" d="M46.5,138.2c-0.3,0-0.5-0.2-0.5-0.5L46,112c0-0.3,0.2-0.5,0.5-0.5c0,0,0,0,0,0c0.3,0,0.5,0.2,0.5,0.5
		l0.1,25.8C47,138,46.8,138.2,46.5,138.2C46.5,138.2,46.5,138.2,46.5,138.2z"/>
	<path class="st65" d="M49.7,136.7c-0.3,0-0.5-0.2-0.5-0.5l-0.1-25.8c0-0.3,0.2-0.5,0.5-0.5c0,0,0,0,0,0c0.3,0,0.5,0.2,0.5,0.5
		l0.1,25.8C50.2,136.4,50,136.7,49.7,136.7C49.7,136.7,49.7,136.7,49.7,136.7z"/>
	<path class="st65" d="M52.9,135.1c-0.3,0-0.5-0.2-0.5-0.5l-0.1-25.8c0-0.3,0.2-0.5,0.5-0.5c0,0,0,0,0,0c0.3,0,0.5,0.2,0.5,0.5
		l0.1,25.8C53.4,134.9,53.2,135.1,52.9,135.1C52.9,135.1,52.9,135.1,52.9,135.1z"/>
	<path class="st65" d="M56.1,133.5c-0.3,0-0.5-0.2-0.5-0.5l-0.1-25.8c0-0.3,0.2-0.5,0.5-0.5c0,0,0,0,0,0c0.3,0,0.5,0.2,0.5,0.5
		l0.1,25.8C56.6,133.3,56.4,133.5,56.1,133.5C56.1,133.5,56.1,133.5,56.1,133.5z"/>
	<path class="st65" d="M59.3,132c-0.3,0-0.5-0.2-0.5-0.5l-0.1-25.8c0-0.3,0.2-0.5,0.5-0.5c0,0,0,0,0,0c0.3,0,0.5,0.2,0.5,0.5
		l0.1,25.8C59.8,131.7,59.6,132,59.3,132C59.3,132,59.3,132,59.3,132z"/>
	<path class="st65" d="M62.5,130.4c-0.3,0-0.5-0.2-0.5-0.5L62,104.1c0-0.3,0.2-0.5,0.5-0.5c0,0,0,0,0,0c0.3,0,0.5,0.2,0.5,0.5
		l0.1,25.8C63,130.2,62.8,130.4,62.5,130.4C62.5,130.4,62.5,130.4,62.5,130.4z"/>
	<path class="st65" d="M65.7,128.8c-0.3,0-0.5-0.2-0.5-0.5l-0.1-25.8c0-0.3,0.2-0.5,0.5-0.5c0,0,0,0,0,0c0.3,0,0.5,0.2,0.5,0.5
		l0.1,25.8C66.2,128.6,66,128.8,65.7,128.8C65.7,128.8,65.7,128.8,65.7,128.8z"/>
	<path class="st65" d="M68.9,127.3c-0.3,0-0.5-0.2-0.5-0.5L68.4,101c0-0.3,0.2-0.5,0.5-0.5c0,0,0,0,0,0c0.3,0,0.5,0.2,0.5,0.5
		l0.1,25.8C69.4,127,69.2,127.3,68.9,127.3C68.9,127.3,68.9,127.3,68.9,127.3z"/>
	<path class="st65" d="M72.1,125.7c-0.3,0-0.5-0.2-0.5-0.5l-0.1-25.8c0-0.3,0.2-0.5,0.5-0.5c0,0,0,0,0,0c0.3,0,0.5,0.2,0.5,0.5
		l0.1,25.8C72.6,125.5,72.4,125.7,72.1,125.7C72.1,125.7,72.1,125.7,72.1,125.7z"/>
	<path class="st65" d="M75.3,124.1c-0.3,0-0.5-0.2-0.5-0.5l-0.1-25.8c0-0.3,0.2-0.5,0.5-0.5c0,0,0,0,0,0c0.3,0,0.5,0.2,0.5,0.5
		l0.1,25.8C75.8,123.9,75.6,124.1,75.3,124.1C75.3,124.1,75.3,124.1,75.3,124.1z"/>
	<g>
		<path class="st65" d="M78.5,122.6c-0.3,0-0.5-0.2-0.5-0.5L78,96.3c0-0.3,0.2-0.5,0.5-0.5c0,0,0,0,0,0c0.3,0,0.5,0.2,0.5,0.5
			l0.1,25.8C79,122.3,78.8,122.6,78.5,122.6C78.5,122.6,78.5,122.6,78.5,122.6z"/>
	</g>
</g>
<g>
	<path class="st61" d="M5.2,133.9c-0.7,0-1.3-0.4-1.6-1c-0.4-0.9-0.1-2,0.8-2.4l103.9-52c0.9-0.4,1.9-0.1,2.4,0.8
		c0.4,0.9,0.1,2-0.8,2.4L6,133.7C5.7,133.8,5.4,133.9,5.2,133.9z"/>
</g>
<g>
	<g>
		<polygon class="st66" points="3.4,113.2 10,116.6 11.8,161.6 5.7,158.5 		"/>
		<g>
			<g>
				<path class="st61" d="M4.8,160.9c-0.6,0-1.3-0.3-1.6-1c-0.5-0.9-0.1-2,0.8-2.4l3.9-2.1c0.9-0.5,1.9-0.1,2.4,0.8
					c0.5,0.9,0.1,2-0.8,2.4l-3.9,2.1C5.4,160.8,5.1,160.9,4.8,160.9z"/>
			</g>
			<g>
				<path class="st61" d="M3.5,134.7c-0.7,0-1.3-0.4-1.6-1c-0.4-0.9-0.1-2,0.8-2.4l3.6-1.8c0.9-0.4,1.9-0.1,2.4,0.8
					c0.4,0.9,0.1,2-0.8,2.4l-3.6,1.8C4,134.7,3.7,134.7,3.5,134.7z"/>
			</g>
			<polygon class="st60" points="95.7,67.7 95.8,113.4 101.9,116.6 101.9,70.7 			"/>
			<polygon class="st67" points="3.6,113.2 95.9,67.5 101.8,70.7 10,116.6 			"/>
		</g>
	</g>
	<g>
		<path class="st61" d="M92.2,86.6l3.7-1.9c0.9-0.5,1.9-0.1,2.4,0.8c0.5,0.9,0.1,2-0.8,2.4l-3.7,1.9"/>
	</g>
	<g>
		<path class="st61" d="M94.2,112.2l2.7-1.4c0.9-0.5,1.9-0.1,2.4,0.8c0.5,0.9,0.1,2-0.7,2.4l-2,1"/>
	</g>
</g>
<path class="st64" d="M96.3,110.5"/>
<g>
	<g>
		<path class="st60" d="M38.8,176.1c0.5,1.2-1.3,3.8-2.6,4.7c-1.2,0.9-22.7,11.3-24.4,12.3c-1.8,1.1-6.1,2.1-7.1,2.2s-2.3,0.2-3.1-1
			c-0.8-1.2,2.8-4.1,4-5.2s26.1-13.2,27.3-13.4C34,175.6,38.3,174.9,38.8,176.1z"/>
		<path class="st60" d="M1.5,194.4c0,0,1.3-0.2,3.7-1s10.1-5,10.1-5l21-10.5l2.5-1.7"/>
		<ellipse class="st68" cx="32" cy="181.5" rx="0.6" ry="0.6"/>
		<path class="st60" d="M10.6,187c-0.3,0.1-1,1.1,0.5,1.5c1.5,0.5,2.9-0.4,2.9-0.4l17.5-8.5c0,0,0.8-0.7,0.1-1.5
			c-0.8-0.8-2.4-0.1-2.4-0.1S10.9,186.8,10.6,187z"/>
		<path class="st63" d="M16.2,187c0,0,0.4-1.2-0.7-1.2c-1.1,0-4.9,1.6-4.9,1.9s1.2,1.2,2.4,0.8S16.2,187,16.2,187z"/>
		<path class="st63" d="M10.4,188.1c-0.1-0.3,0.3-1,1.3-0.7c1,0.3,1.2,0.9,0.9,1.1C12.2,188.9,10.5,188.4,10.4,188.1z"/>
	</g>
	<g>
		<g>
			<path class="st69" d="M51.3,172.8c-4.8,2.2-9.6,4.3-14.4,6.3c-1.7,0.7-3.4,1.4-5.1,2.2c0,0,0.4,0.5,0.6,0.5
				c1.7-0.8,3.4-1.5,5.1-2.2c4.8-2,9.6-4.1,14.4-6.3C51.9,173.3,51.4,172.8,51.3,172.8L51.3,172.8z"/>
		</g>
	</g>
	<g>
		<path class="st70" d="M29.9,180.2c-0.1-0.1,0.5-2-1.4-1.1"/>
		<path class="st71" d="M29.6,180.3c-0.1-0.2,0.5-2-1.4-1.1"/>
		<path class="st71" d="M29.3,180.5c-0.1-0.2,0.5-1.9-1.4-1.1"/>
		<path class="st71" d="M29.1,180.6c-0.1-0.2,0.4-1.9-1.5-1.1"/>
		<path class="st71" d="M28.8,180.8c-0.1-0.2,0.4-1.9-1.5-1.1"/>
		<path class="st71" d="M28.5,180.9c-0.1-0.3,0.4-1.9-1.5-1.1"/>
		<path class="st71" d="M28.2,181c-0.1-0.3,0.3-1.9-1.5-1.1"/>
		<path class="st71" d="M27.9,181.2c-0.1-0.3,0.3-1.9-1.5-1.1"/>
		<path class="st71" d="M27.6,181.3c-0.1-0.3,0.3-1.9-1.5-1.1"/>
		<path class="st71" d="M27.4,181.4c-0.1-0.4,0.2-1.9-1.5-1.1"/>
		<path class="st71" d="M27.1,181.6c-0.1-0.4,0.2-1.9-1.5-1.1"/>
		<path class="st71" d="M26.8,181.7c-0.1-0.4,0.1-1.9-1.6-1.1"/>
		<path class="st71" d="M26.5,181.9c-0.1-0.4,0.1-1.9-1.6-1.1"/>
		<path class="st71" d="M26.2,182c-0.1-0.5,0.1-1.9-1.6-1.1"/>
		<path class="st71" d="M25.9,182.1c-0.1-0.5,0-1.9-1.6-1.1"/>
		<path class="st71" d="M25.7,182.3c-0.1-0.5,0-1.9-1.6-1.1"/>
		<path class="st71" d="M25.4,182.4c-0.1-0.5,0-1.8-1.6-1"/>
		<path class="st71" d="M25.1,182.5c-0.1-0.6-0.1-1.8-1.6-1"/>
		<path class="st71" d="M24.8,182.7c-0.1-0.6-0.1-1.8-1.7-1"/>
		<path class="st71" d="M24.5,182.8c-0.1-0.6-0.1-1.8-1.7-1"/>
		<path class="st71" d="M24.3,183c-0.1-0.6-0.2-1.8-1.7-1"/>
		<path class="st71" d="M24,183.1c-0.1-0.7-0.2-1.8-1.7-1"/>
		<path class="st71" d="M23.7,183.2c-0.1-0.7-0.3-1.8-1.7-1"/>
		<path class="st71" d="M23.4,183.4c-0.1-0.7-0.3-1.8-1.7-1"/>
		<path class="st71" d="M23.1,183.5c-0.1-0.7-0.3-1.8-1.7-1"/>
		<path class="st71" d="M22.8,183.6c-0.1-0.8-0.4-1.8-1.8-1"/>
		<path class="st71" d="M22.6,183.8c-0.1-0.8-0.4-1.8-1.8-1"/>
		<path class="st71" d="M22.3,183.9c-0.1-0.8-0.4-1.8-1.8-1"/>
		<path class="st71" d="M22,184.1c-0.1-0.8-0.5-1.8-1.8-1"/>
		<path class="st71" d="M21.7,184.2c-0.1-0.9-0.5-1.8-1.8-1"/>
		<path class="st71" d="M21.4,184.3c-0.1-0.9-0.5-1.8-1.8-1"/>
		<path class="st71" d="M21.1,184.5c0-0.9-0.6-1.7-1.8-1"/>
		<path class="st71" d="M20.9,184.6c0-0.9-0.6-1.7-1.8-1"/>
		<path class="st71" d="M20.6,184.7c0-1-0.7-1.7-1.9-1"/>
		<path class="st71" d="M20.3,184.9c0-1-0.7-1.7-1.9-1"/>
		<path class="st71" d="M20,185c0-1-0.7-1.7-1.9-1"/>
		<path class="st71" d="M19.7,185.2c0-1-0.8-1.7-1.9-0.9"/>
		<path class="st71" d="M19.4,185.3c0-1.1-0.8-1.7-1.9-0.9"/>
		<path class="st71" d="M19.2,185.4c0-1.1-0.8-1.7-1.9-0.9"/>
		<path class="st71" d="M18.9,185.6c0-1.1-0.9-1.7-1.9-0.9"/>
		<path class="st71" d="M18.6,185.7c0-1.2-0.9-1.7-2-0.9"/>
		<path class="st71" d="M18.3,185.8c0-1.2-0.9-1.7-2-0.9"/>
		<path class="st71" d="M18,186c0-1.2-1-1.7-2-0.9"/>
		<path class="st71" d="M17.7,186.1c0-1.2-1-1.7-2-0.9"/>
		<path class="st71" d="M17.5,186.3c0-1.3-1.1-1.7-2-0.9"/>
		<path class="st71" d="M17.2,186.4c0-1.3-1.1-1.7-2-0.9"/>
		<path class="st71" d="M16.9,186.5c0-1.3-1.1-1.6-2-0.9"/>
		<path class="st71" d="M16.6,186.7c0-1.3-1.2-1.6-2.1-0.9"/>
		<path class="st71" d="M16.3,186.8c0-1.4-1.2-1.6-2.1-0.9"/>
		<path class="st71" d="M16,186.9c0-1.4-1.2-1.6-2.1-0.9"/>
		<path class="st71" d="M15.8,187.1c0-1.4-1.3-1.6-2.1-0.9"/>
		<path class="st71" d="M15.5,187.2c0-1.4-1.3-1.6-2.1-0.9"/>
	</g>
</g>
<g>
	<g>
		<path class="st3" d="M17.3,152.6c10.1,5.6,20.3,11.3,30.3,17.2c1.7,1,3.5,2,5.1,3.2c2.4,1.8,5.8,1.9,8.7,2.2
			c3.5,0.3,6.6,0.2,9.9,1.8c2.3,1.1,4.7,3.7,4.7,6.4c0,0.7-0.1,1.5-0.2,2.2c-0.1,6.1-0.3,12.3-0.4,18.4c0,0.3,1.1,0.1,1.1-0.3
			c0.1-5.6,0.2-11.2,0.4-16.9c0-0.9,0-1.8,0.1-2.7c0.2-1.9-0.3-3.4-1.5-5c-2.3-3.1-6.3-4.1-9.9-4.3c-1.8-0.1-3.6-0.2-5.3-0.5
			c-1.8-0.2-3.8-0.4-5.5-1.2c-1.5-0.7-2.9-1.9-4.4-2.8c-6-3.6-12.2-7-18.3-10.5c-4.6-2.6-9.2-5.2-13.9-7.8
			C17.9,151.9,16.9,152.3,17.3,152.6L17.3,152.6z"/>
	</g>
</g>
<g>
	<g>
		<path class="st3" d="M52.2,135c5.1,2.8,10.2,5.5,15.3,8.3c6.6,3.6,13.2,7.1,19.9,10.7c1.8,1,3.7,1.6,5.6,2.2
			c2.1,0.8,4.3,1.5,6.5,2.1c2.7,0.6,5.5,1,7.5,3.1c1.7,1.8,2.8,4.9,2.5,7.3c-0.1,0.8-0.1,1.6-0.2,2.4c-0.2,3.7-0.3,7.4-0.4,11
			c-0.1,4.5-0.3,9-0.4,13.6c-0.1,2.8-0.3,5.7-0.2,8.5c0,0.1,0,0.3,0,0.4c0,0.3,1.1,0.1,1.1-0.3c0.2-6.4,0.3-12.8,0.5-19.3
			c0.1-4.2,0.2-8.4,0.4-12.5c0.1-2.5,0.6-5-0.2-7.4c-0.9-3-2.6-5.1-5.6-6.2c-2.2-0.8-4.5-1.1-6.8-1.8c-2.9-0.9-6-1.8-8.8-3.1
			c-5.9-2.9-11.7-6.3-17.5-9.4c-3.8-2.1-7.7-4.2-11.5-6.2c-2.2-1.2-4.4-2.5-6.7-3.6c-0.1-0.1-0.2-0.1-0.3-0.2
			C52.8,134.3,51.8,134.7,52.2,135L52.2,135z"/>
	</g>
</g>
<g>
	<g>
		<path class="st3" d="M55.7,133c5.3,2.8,10.7,5.7,16,8.5c6.5,3.4,12.9,6.9,19.4,10.3c2.3,1.2,4.8,2.2,7.2,3.2
			c1.9,0.8,3.8,1.5,5.8,1.9c3.6,0.7,6.4,2.4,7.7,5.9c0.6,1.5,0.8,2.9,0.7,4.5c0,1,0,2-0.1,3c-0.1,3.9-0.1,7.9-0.2,11.8
			c-0.1,4.5-0.2,9.1-0.2,13.6c0,2.8-0.3,5.6-0.1,8.4c0,0.1,0,0.3,0,0.4c0,0.3,1.1,0.1,1.1-0.3c0.1-6.4,0.2-12.7,0.3-19.1
			c0.1-6.3,0-13,0.4-19c0.1-1.4-0.5-2.9-1-4.2c-0.6-1.4-1.4-2.6-2.6-3.5c-2.2-1.6-4.8-1.8-7.2-2.6c-3.5-1.1-7.1-2.7-10.4-4.3
			c-5.6-2.8-11.1-5.9-16.7-8.9c-4-2.1-8-4.3-12-6.4c-2.3-1.2-4.6-2.6-7-3.7c-0.1-0.1-0.2-0.1-0.3-0.2
			C56.3,132.3,55.3,132.8,55.7,133L55.7,133z"/>
	</g>
</g>
<g>
	<g>
		<path class="st3" d="M61.9,130.1c5.7,3.2,11.4,6.3,17.2,9.5c3.9,2.2,7.8,4.3,11.7,6.5c1.8,1,3.6,2.1,5.4,3
			c1.2,0.5,2.5,0.9,3.7,1.3c2.3,0.8,4.7,1.7,7.1,2.4c1.8,0.6,3.6,1,5.5,1.4c3.3,0.8,5.5,3.2,5.9,6.6c0.2,1.4-0.1,2.7-0.2,4.1
			c-0.1,1.2-0.1,2.4-0.1,3.6c0,4.3,0,8.5,0,12.8c0,4.7,0,9.5,0.1,14.2c0,2.9-0.2,5.8,0.1,8.6c0,0.1,0,0.3,0,0.4
			c0,0.3,1.1,0.1,1.1-0.3c-0.1-6.6-0.1-13.2-0.1-19.8c0-4.6,0-9.3,0-13.9c0-2.2-0.2-4.6,0.2-6.7c0.5-2.8-0.1-5.7-1.9-7.8
			c-1.6-1.9-3.9-2.2-6.2-2.7c-4.4-1-8.7-2.8-13-4.3c-1.5-0.5-2.8-1.3-4.2-2.1c-3.6-2-7.2-4-10.8-6c-6.7-3.7-13.3-7.5-20-11
			c-0.1-0.1-0.3-0.1-0.4-0.2C62.5,129.5,61.5,129.9,61.9,130.1L61.9,130.1z"/>
	</g>
</g>
<g>
	<g>
		<path class="st3" d="M71.3,125.6c6.1,3.3,12.1,6.6,18.2,9.9c3.9,2.1,7.8,4.2,11.7,6.3c1.5,0.8,3,1.7,4.6,2.4
			c2.2,0.9,4.4,1.8,6.6,2.7c1.9,0.7,3.8,1.5,5.7,1.9c1.7,0.3,3.5,0.6,5.1,1.4c1.8,0.9,2.6,2.7,3.5,4.4c0.5,1,1.1,2.1,0.9,3.2
			c0,0.3,0,0.5-0.1,0.8c-0.5,7.8-0.4,15.6-0.5,23.5c-0.1,4.7-0.2,9.4-0.2,14.1c0,2.7-0.3,5.4-0.1,8c0,0.1,0,0.3,0,0.4
			c0,0.3,1.1,0.1,1.1-0.3c0.1-6.3,0.2-12.7,0.3-19c0.1-8.6,0.2-17.2,0.6-25.8c0-0.6,0.1-1.2,0.1-1.9c0.1-1.5-0.7-2.9-1.4-4.2
			c-0.7-1.3-1.4-2.6-2.7-3.4c-2.3-1.4-5.1-1.4-7.6-2.2c-2.4-0.8-4.8-1.8-7.2-2.7c-5.6-2.3-10.7-5.3-16-8.2
			c-7.1-3.8-14.1-7.8-21.2-11.5c-0.1-0.1-0.3-0.1-0.4-0.2C71.9,125,70.9,125.4,71.3,125.6L71.3,125.6z"/>
	</g>
</g>
<g>
	<g>
		<path class="st3" d="M75.2,123.7c6.1,3.5,12.1,7,18.2,10.5c3.8,2.2,7.6,4.4,11.4,6.6c1.6,0.9,3,1.8,4.7,2.5
			c4.3,1.7,8.6,3.3,13.1,4.3c1.8,0.4,3.7,1,5.1,2.3c1.4,1.2,2.2,3.1,2.7,4.8c0.4,1.3,0.3,2.3,0.2,3.6c-0.4,7.9-0.3,15.9-0.3,23.8
			c0,4.7-0.1,9.5-0.1,14.2c0,2.7-0.3,5.4,0,8.1c0,0.1,0,0.3,0,0.4c0,0.3,1.1,0.1,1.1-0.3c0-6.4,0.1-12.8,0.1-19.2
			c0.1-8.7,0-17.3,0.3-26c0-0.7,0-1.4,0.1-2c0.3-2.6-1.1-6-3.1-7.8c-2.1-1.9-4.9-2.2-7.5-2.9c-2.5-0.7-4.9-1.6-7.3-2.5
			c-2.2-0.8-4.3-1.5-6.3-2.7c-3.3-1.9-6.6-3.8-9.9-5.7c-7-4.1-14-8.3-21.2-12.2c-0.1-0.1-0.3-0.2-0.4-0.2
			C75.8,123,74.8,123.5,75.2,123.7L75.2,123.7z"/>
	</g>
</g>
<g>
	<g>
		<path class="st3" d="M65.8,128.4c5.9,3.2,11.8,6.5,17.6,9.7c4,2.2,7.9,4.4,11.9,6.6c1.7,0.9,3.3,1.9,5,2.7
			c3.8,1.8,7.8,3.5,11.8,4.7c2.6,0.8,5.5,0.9,7.5,2.9c2,2.1,1.7,4.6,1.5,7.2c-0.1,2,0,4,0,6c0,4.5,0,8.9,0.1,13.4
			c0,4.7,0.1,9.4,0.1,14.1c0,2.8-0.2,5.6,0,8.4c0,0.1,0,0.3,0,0.4c0,0.3,1.1,0.1,1.1-0.3c0-6.5-0.1-13-0.1-19.4
			c0-7.5-0.2-15-0.1-22.6c0-1.1,0.3-2.5,0.2-3.8c-0.3-3.2-2.6-5.1-5.5-6c-1.2-0.4-2.4-0.5-3.5-0.8c-1.1-0.3-2.2-0.7-3.2-1.1
			c-2.4-0.9-4.7-1.9-7-2.8c-5.4-2.3-10.4-5.5-15.5-8.3c-6.9-3.8-13.7-7.7-20.6-11.4c-0.1-0.1-0.3-0.1-0.4-0.2
			C66.4,127.7,65.4,128.1,65.8,128.4L65.8,128.4z"/>
	</g>
</g>
<g>
	<g>
		<path class="st3" d="M24.7,149.1c10.2,6.4,20.4,12.7,30.6,19.1c0.9,0.6,1.9,1.5,3,1.7c3.2,0.8,6.5,1.2,9.6,1.7
			c3.6,0.7,7.9,1,10.9,3.2c2.6,2,3.1,5.8,3,8.7c-0.2,6.6-0.3,13.2-0.5,19.8c0,0.4,1.1,0.2,1.1-0.2c0.2-6.1,0.3-12.3,0.5-18.4
			c0.1-2.4,0-4.7-0.8-7.1c-1.5-4.3-6.2-5.3-10.2-6c-3.6-0.7-7.2-1.3-10.8-2c-0.6-0.1-1.2-0.2-1.7-0.3c-0.1,0-0.8-0.2-0.7-0.1
			c-0.4-0.2-0.8-0.5-1.2-0.7c-5.6-3.5-11.3-7-16.9-10.5c-5.1-3.2-10.1-6.3-15.2-9.5C25.3,148.5,24.3,148.9,24.7,149.1L24.7,149.1z"
			/>
	</g>
</g>
<g>
	<g>
		<path class="st3" d="M27.5,147.6c10.5,6.2,21,12.5,31.5,18.7c1,0.6,1.8,1.2,3,1.5c3.5,0.8,7,1.6,10.4,2.3
			c3.9,0.9,8.7,1.2,11.3,4.6c1.7,2.3,1.6,5.4,1.5,8.2c-0.1,6.9-0.3,13.7-0.5,20.6c0,0.3,1.1,0.1,1.1-0.3c0.2-6.2,0.3-12.5,0.4-18.7
			c0.1-2.6,0.3-5.5-0.4-8c-1.2-4.5-6.5-5.5-10.4-6.4c-3.4-0.7-6.8-1.5-10.2-2.3c-1-0.2-2.2-0.3-3.2-0.7c0.2,0.1-0.1-0.1-0.1-0.1
			c-0.3-0.1-0.5-0.3-0.8-0.5c-5.7-3.4-11.4-6.8-17.2-10.2c-5.2-3.1-10.4-6.2-15.6-9.3C28.1,146.9,27.1,147.3,27.5,147.6L27.5,147.6z
			"/>
	</g>
</g>
<g>
	<g>
		<path class="st3" d="M33.2,144.2c10.5,6.2,21.1,12.4,31.6,18.7c1,0.6,2,1.4,3.2,1.7c3.2,0.9,6.6,1.5,9.9,2.2
			c4.1,0.9,8.4,1.5,11,5.2c1.4,2,2.2,4,2.2,6.4c0,1.4-0.1,2.8-0.1,4.2c-0.3,7.2-0.7,14.4-1.1,21.7c0,0.4,1.1,0.2,1.1-0.2
			c0.3-6.4,0.7-12.8,1-19.2c0.1-2.7,0.5-5.5,0.2-8.1c-0.3-2.8-2.2-6.1-4.5-7.7c-1.9-1.3-4.2-1.8-6.5-2.3c-3.3-0.7-6.6-1.5-9.9-2.2
			c-0.7-0.2-1.4-0.3-2.1-0.5c-0.1,0-0.7-0.2-0.6-0.1c-0.4-0.2-0.8-0.5-1.2-0.7c-5.9-3.5-11.7-6.9-17.6-10.4
			c-3.3-1.9-6.5-3.9-9.8-5.8c-1.8-1.1-3.6-2.3-5.5-3.3c-0.1,0-0.2-0.1-0.3-0.2C33.8,143.5,32.8,143.9,33.2,144.2L33.2,144.2z"/>
	</g>
</g>
<g>
	<g>
		<path class="st3" d="M36.5,143c4.6,2.6,9.2,5.3,13.8,7.9c6.4,3.7,12.8,7.4,19.2,11.1c1.3,0.7,2.1,1.1,3.5,1.4
			c3.6,0.8,7.2,1.6,10.8,2.4c1.9,0.4,4,0.6,5.7,1.6c1.3,0.8,2.1,2.1,2.9,3.4c0.8,1.3,1.5,2.8,1.7,4.4c0.3,2.2-0.1,4.6-0.2,6.8
			c-0.3,7.1-0.5,14.1-0.8,21.2c0,0.2,0,0.3,0,0.5c0,0.4,1.1,0.2,1.1-0.2c0.2-6.4,0.5-12.8,0.7-19.1c0.1-2.8,0.3-5.6,0.3-8.4
			c0-1.9-0.8-3.8-1.8-5.4c-1.3-2.3-2.9-3.8-5.5-4.5c-3.4-0.9-7-1.5-10.5-2.3c-1.7-0.4-3.3-0.7-5-1.1c-0.5-0.1-0.4-0.1-0.9-0.4
			c-5.8-3.3-11.6-6.7-17.4-10c-3.5-2-7-4-10.5-6.1c-2-1.2-4-2.5-6.1-3.5c-0.1,0-0.2-0.1-0.3-0.2C37.1,142.3,36.1,142.7,36.5,143
			L36.5,143z"/>
	</g>
</g>
<g>
	<g>
		<path class="st3" d="M42.7,140c4.9,2.7,9.8,5.5,14.7,8.2c6.4,3.6,12.8,7.2,19.2,10.7c1.5,0.9,3.1,1.2,4.8,1.7
			c3.4,1,6.7,2.1,10.1,2.8c1.5,0.3,3.1,0.7,4.4,1.7c1.3,0.9,2.2,2.4,2.8,3.8c0.6,1.5,0.9,3.2,0.9,4.8c0,2.9-0.1,5.7-0.1,8.6
			c-0.1,7.2-0.5,14.5-0.3,21.7c0,0.2,0,0.3,0,0.5c0,0.3,1.1,0.1,1.1-0.3c0.1-6.4,0.2-12.8,0.3-19.2c0.1-3.5,0.1-7,0.2-10.5
			c0.1-3.5-0.6-7.6-3.6-9.8c-1.9-1.4-4.2-1.6-6.4-2.2c-1.6-0.4-3.2-0.9-4.8-1.4c-2-0.6-3.9-1.1-5.9-1.7c-0.5-0.2-1.1-0.3-1.6-0.5
			c-2.1-1-4-2.3-6-3.4c-3.6-2-7.3-4.1-10.9-6.1c-3.7-2.1-7.4-4.2-11.1-6.2c-2.1-1.2-4.2-2.5-6.4-3.6c-0.1-0.1-0.2-0.1-0.3-0.2
			C43.3,139.3,42.3,139.7,42.7,140L42.7,140z"/>
	</g>
</g>
<g>
	<g>
		<path class="st3" d="M46,138c5,2.9,10.1,5.8,15.1,8.6c6.4,3.7,12.8,7.3,19.2,11c1.6,0.9,3.6,1.3,5.4,1.8c2,0.6,4.1,1.2,6.1,1.8
			c1.7,0.5,3.5,0.8,5.2,1.3c4.4,1.4,6.2,5.9,6.1,10.3c-0.1,3.2-0.1,6.4-0.2,9.6c-0.1,4.4-0.2,8.9-0.3,13.3c-0.1,2.9-0.2,5.8-0.2,8.7
			c0,0.1,0,0.3,0,0.4c0,0.3,1.1,0.1,1.1-0.3c0.1-6.4,0.3-12.9,0.4-19.3c0.1-3.8,0.1-7.5,0.2-11.3c0.1-3.4-0.2-6.8-2.6-9.6
			c-1.9-2.2-4.6-2.5-7.2-3.1c-1.3-0.3-2.7-0.8-4-1.2c-2.1-0.6-4.2-1.2-6.3-1.8c-0.7-0.2-1.4-0.3-2.1-0.6c-2-0.9-3.9-2.2-5.7-3.3
			c-3.7-2.1-7.4-4.2-11.1-6.3c-3.8-2.2-7.6-4.3-11.3-6.5c-2.2-1.2-4.3-2.6-6.6-3.8c-0.1-0.1-0.2-0.1-0.3-0.2
			C46.6,137.3,45.6,137.8,46,138L46,138z"/>
	</g>
</g>
<g>
	<g>
		<g>
			<path class="st72" d="M79,203.5c0.2-6.4,0.3-12.8,0.6-19.2c0.1-1.3,0.3-2.6-0.1-3.8c-0.8-2.7-3.1-4.7-5.6-5.8
				c-3-1.3-6.1-1.9-9.3-2.5c-2.4-0.5-4.7-0.9-7.1-1.5c-1-0.2-1.3-0.2-1.9-0.9c-1.6-1.9-2.9-4-4.3-6.1c-4.9-7.2-9.6-14.4-14.7-21.4
				c-2.5-3.4-5-6.8-7.8-9.9c-1.8-2.1-3.8-4.4-6.3-5.9c-0.4-0.2-0.8-0.4-1.2-0.6c-0.4-0.1-1.3,0.5-0.7,0.7c2.3,0.7,4.2,3,5.8,4.7
				c2.7,2.9,5.1,6.1,7.5,9.3c5.2,7,10.1,14.3,15,21.5c1.6,2.4,3.2,4.8,4.9,7.1c0.4,0.5,0.8,1.2,1.3,1.6c1,0.8,2.7,0.8,3.9,1.1
				c3.1,0.7,6.3,1.1,9.4,1.9c4.8,1.2,10.5,3.6,10,9.5c-0.5,6.6-0.4,13.2-0.6,19.8c0,0.2,0,0.4,0,0.6C77.8,204.1,78.9,203.9,79,203.5
				L79,203.5z"/>
		</g>
	</g>
	<g>
		<g>
			<path class="st72" d="M88.1,203.7c0.2-6.8,0.3-13.6,0.5-20.5c0-1.4,0.1-2.8,0.1-4.3c0.1-1.7,0.2-3-0.6-4.6
				c-2.2-4.1-6.9-5.4-11.1-6.3c-1.9-0.4-3.9-0.9-5.8-1.3c-1.2-0.3-2.4-0.5-3.5-0.8c-0.5-0.1-1.6-0.3-1.9-0.5c-0.5-0.3-0.9-1-1.2-1.5
				c-0.8-1-1.5-2.1-2.2-3.2c-5-7.4-9.8-14.8-15-22c-2.7-3.7-5.4-7.3-8.4-10.8c-2-2.3-4.2-4.8-6.8-6.3c-0.4-0.2-0.9-0.4-1.3-0.6
				c-0.4-0.1-1.3,0.4-0.7,0.6c2.5,0.7,4.7,3.3,6.4,5.1c2.9,3.1,5.5,6.5,8,10C50,144.1,55,151.7,60,159.2c1.4,2.1,2.7,4.3,4.3,6.2
				c0.5,0.6,1,0.7,1.8,0.9c2.3,0.6,4.6,1.1,6.9,1.6c3.5,0.8,7.1,1.3,10.2,3c2.8,1.5,4.8,4.2,4.4,7.4c-0.1,0.9-0.1,1.8-0.1,2.8
				c-0.2,7.4-0.4,14.8-0.6,22.1c0,0.2,0,0.4,0,0.6C87,204.3,88.1,204.1,88.1,203.7L88.1,203.7z"/>
		</g>
	</g>
	<g>
		<g>
			<path class="st72" d="M97.2,203.8c0.1-7.1,0.3-14.1,0.5-21.2c0.1-3-0.1-6,0.2-9c0.1-0.7,0.2-1.5,0.1-2.3
				c-0.3-1.7-1.5-3.2-2.8-4.4c-2-1.8-4.8-2.6-7.4-3.2c-3.5-0.8-7-1.7-10.6-2.6c-1-0.3-1.8-0.3-2.4-1c-0.6-0.8-1.2-1.7-1.8-2.5
				c-4.9-7.4-9.7-14.9-14.8-22.2c-2.8-3.9-5.7-7.8-8.8-11.5c-2.2-2.5-4.5-5.4-7.5-7c-0.4-0.2-0.9-0.4-1.4-0.6
				c-0.3-0.1-1.2,0.3-0.9,0.4c2.8,0.7,5.1,3.4,6.9,5.5c3.2,3.5,6,7.2,8.8,11c5.4,7.5,10.4,15.2,15.5,23c0.7,1.1,1.4,2.2,2.2,3.3
				c0.3,0.4,0.6,1.1,1.1,1.4c0.4,0.3,1.2,0.3,1.6,0.5c1.2,0.3,2.3,0.6,3.5,0.9c2,0.5,4,1.1,6,1.5c1.5,0.4,3,0.7,4.5,1.2
				c3.1,1.1,6.6,3.4,7,7.1c0.1,1-0.2,2.2-0.2,3.2c0,1.6-0.1,3.2-0.1,4.8c-0.2,7.8-0.4,15.7-0.5,23.5c0,0.2,0,0.3,0,0.5
				C96.1,204.3,97.2,204.1,97.2,203.8L97.2,203.8z"/>
		</g>
	</g>
	<g>
		<g>
			<path class="st72" d="M106.3,204.1c0.1-7.2,0.3-14.4,0.4-21.6c0.1-4,0.2-7.9,0.3-11.9c0-0.9,0.2-1.8,0.3-2.7
				c0.3-3.2-2.7-6.1-5.4-7.4c-2-0.9-4-1.4-6.1-1.9c-1.8-0.4-3.6-1-5.4-1.5c-1.2-0.3-2.4-0.7-3.7-1c-0.5-0.1-1.7-0.4-1.9-0.5
				c-0.5-0.3-0.9-1.2-1.2-1.6c-4.9-7.3-9.5-14.8-14.5-22c-3-4.2-6-8.4-9.4-12.4c-2.3-2.7-4.9-5.8-8.1-7.5c-0.5-0.3-1-0.5-1.6-0.6
				c-0.3-0.1-1.3,0.4-0.7,0.6c3,0.7,5.5,3.8,7.5,5.9c3.3,3.7,6.3,7.6,9.2,11.7c5.4,7.6,10.4,15.4,15.5,23.2c0.6,0.9,1.1,1.8,1.8,2.7
				c0.5,0.7,1.1,0.7,1.9,1c3.6,1,7.1,2.2,10.8,3c3.1,0.7,6.3,1.8,8.4,4.3c0.7,0.8,1.2,1.7,1.5,2.7c0.3,0.9,0.1,1.7,0,2.6
				c0,0.2,0,0.4,0,0.6c-0.1,3.3-0.2,6.6-0.2,9.9c-0.2,8.1-0.3,16.2-0.5,24.3c0,0.2,0,0.3,0,0.5C105.2,204.7,106.3,204.4,106.3,204.1
				L106.3,204.1z"/>
		</g>
	</g>
	<g>
		<g>
			<path class="st72" d="M115.4,204.2c0.1-7.3,0.3-14.6,0.4-22c0.1-4.6,0.2-9.2,0.3-13.9c0-1.3,0-2.5,0.1-3.8c0-0.4,0.1-0.6,0.1-0.8
				c0.4-1.8-0.3-3.5-1.4-4.9c-3-3.9-7.9-4.3-12.1-5.6c-2.4-0.8-4.8-1.5-7.3-2.3c-0.9-0.3-1.3-0.3-1.8-1.1
				c-4.7-7.1-9.1-14.5-13.9-21.5c-3.1-4.5-6.3-9-9.9-13.2c-2.4-2.9-5.2-6.2-8.6-8c-0.5-0.3-1.1-0.5-1.7-0.6
				c-0.2-0.1-1.2,0.3-0.9,0.4c3.2,0.7,6,4,8.2,6.3c3.6,4,6.8,8.3,10,12.7c5.3,7.5,10.2,15.4,15.1,23.1c0.3,0.5,0.7,1.3,1.1,1.7
				c0.3,0.3,1,0.3,1.4,0.4c1.2,0.4,2.3,0.7,3.5,1.1c2,0.6,4,1.3,6,1.9c1.9,0.5,3.8,0.8,5.7,1.7c1.9,0.8,3.4,2.1,4.5,3.8
				c0.5,0.7,0.9,1.6,1,2.5c0.1,0.8-0.1,1.3-0.2,2.1c-0.1,0.7-0.1,1.5-0.1,2.2c-0.1,4.1-0.2,8.2-0.3,12.2c-0.2,8.4-0.3,16.8-0.4,25.1
				c0,0.2,0,0.3,0,0.5C114.3,204.6,115.4,204.5,115.4,204.2L115.4,204.2z"/>
		</g>
	</g>
	<g>
		<g>
			<path class="st72" d="M124.5,204.4c0.1-7.4,0.2-14.9,0.4-22.3c0.1-5.1,0.2-10.2,0.3-15.4c0-1.7,0.1-3.5,0.1-5.2
				c0-0.6,0-1.6,0.1-2.1c0.1-0.7,0.4-1.3,0.3-2.1c-0.1-1-0.6-1.9-1.1-2.7c-1.1-1.6-2.6-2.9-4.3-3.7c-1.8-0.9-4.2-1.3-5.9-1.7
				c-2.2-0.7-4.3-1.5-6.5-2.2c-1.1-0.4-2.2-0.7-3.3-1.1c-0.3-0.1-0.8-0.2-0.9-0.3c-0.6-0.5-1-1.6-1.4-2.3c-1-1.6-1.9-3.1-2.9-4.7
				c-2.8-4.6-5.7-9.1-8.7-13.6c-3.2-4.8-6.6-9.5-10.2-13.9c-2.6-3.2-5.6-6.9-9.4-8.8c-0.6-0.3-1.2-0.5-1.8-0.7
				c-0.3-0.1-1.2,0.4-0.9,0.5c1.5,0.3,2.9,1.2,4.1,2.2c1.7,1.4,3.2,2.9,4.7,4.5c3.8,4.2,7.2,8.9,10.5,13.6
				c5.2,7.4,9.8,15.1,14.6,22.8c0.4,0.7,0.5,0.8,1.3,1c2.4,0.8,4.8,1.6,7.1,2.4c1.3,0.5,2.6,0.9,4,1.2c3.7,0.7,7.3,2.3,9.3,5.7
				c0.4,0.8,0.8,1.7,0.8,2.6c0,0.6-0.2,1-0.3,1.5c0,0.2,0,0.5,0,0.7c0,1.3-0.1,2.6-0.1,3.9c-0.1,4.8-0.2,9.6-0.3,14.3
				c-0.1,8.5-0.5,17-0.4,25.5c0,0.2,0,0.3,0,0.5C123.4,204.9,124.5,204.7,124.5,204.4L124.5,204.4z"/>
		</g>
	</g>
	<g>
		<g>
			<path class="st72" d="M133.6,204.6c0.1-7.5,0.2-15,0.3-22.5c0.1-8.9,0.2-17.9,0.5-26.8c0-0.1,0-0.5,0-0.5
				c0.2-0.8,0.4-1.4,0.3-2.2c-0.2-1.1-0.7-2.1-1.4-3c-2.2-3-5.5-4.3-9-5c-1.3-0.2-2.9-0.9-4.4-1.5c-2.2-0.8-4.5-1.5-6.7-2.4
				c-0.4-0.2-0.1,0.1-0.3-0.2c-0.2-0.3-0.4-0.7-0.6-1c-0.8-1.4-1.6-2.7-2.4-4.1c-2.7-4.6-5.6-9.1-8.5-13.6
				c-3.4-5.1-6.9-10.1-10.7-14.8c-2.8-3.4-6-7.4-10.1-9.5c-0.6-0.3-1.2-0.6-1.9-0.7c-0.3,0-1.2,0.4-0.9,0.4c1.6,0.3,3.1,1.3,4.4,2.3
				c1.9,1.5,3.5,3.2,5.1,5c4,4.5,7.5,9.3,10.9,14.3c3.2,4.7,6.3,9.5,9.3,14.4c1,1.7,2,3.4,3,5.1c0.5,0.8,0.8,1.8,1.4,2.5
				c0.6,0.7,2.1,0.9,2.9,1.2c2.4,0.9,4.8,1.8,7.2,2.6c1.8,0.7,3.7,0.8,5.6,1.6c2.1,0.9,3.9,2.3,5.1,4.3c0.5,0.8,0.9,1.8,1,2.8
				c0,0.7-0.3,1.1-0.4,1.7c-0.1,0.7,0,1.5-0.1,2.2c0,1.8-0.1,3.5-0.1,5.3c-0.1,5.3-0.2,10.6-0.3,15.8c-0.1,5.4-0.2,10.9-0.3,16.3
				c0,3.2-0.2,6.5-0.1,9.7c0,0.2,0,0.3,0,0.5C132.5,205.1,133.6,204.9,133.6,204.6L133.6,204.6z"/>
		</g>
	</g>
</g>
<path class="st73" d="M74.9,189.9"/>
<path class="st74" d="M75.8,113.1"/>
<path class="st74" d="M95.9,120.1"/>
<path class="st75" d="M95.2,123.5"/>
<path class="st74" d="M83.9,108.4"/>
<path class="st76" d="M60.2,174.9c-1.3,1.4,2.5,1.2,4.1,0.4"/>
<g>
	<path class="st76" d="M118.2,142.2c0.1,0,3.6-0.9,2.8,0.2c-0.4,0.1-0.7,0.3-1,0.4"/>
</g>
<path class="st76" d="M124.8,206.2"/>
<path class="st76" d="M36.3,180.3"/>
<path class="st76" d="M54.8,171.1"/>
<g>
	<path class="st76" d="M55.5,174.5c-0.1,0.4,0.4,0.3,1.2,0c1.1-0.4,2.8-2.1,4.4-2.4"/>
	<g>
		<path class="st76" d="M113.8,140.5c0.1,0,3-0.8,2.2,0.3c0,0-2.3,0.8-3.2,2.6"/>
	</g>
	<g>
		<path class="st76" d="M111.7,141.5c-3.8-0.1-6.9,2.9-7.4,3.8"/>
	</g>
	<g>
		<path class="st76" d="M102.6,146.6c-3.8-0.1-6.9,2.9-7.4,3.8"/>
	</g>
	<g>
		<path class="st76" d="M92.9,151.4c-3.8-0.1-6.9,2.9-7.4,3.8"/>
	</g>
	<g>
		<path class="st76" d="M83.6,156.6c-3.8-0.1-6.9,2.9-7.4,3.8"/>
	</g>
	<g>
		<path class="st76" d="M74.5,161.6c-3.8-0.1-6.9,2.9-7.4,3.8"/>
	</g>
	<g>
		<path class="st76" d="M65,166.6c-3.8-0.1-6.9,2.9-7.4,3.8"/>
	</g>
	<g>
		<g>
			<path class="st76" d="M111.2,144.1c-3.8-0.1-6.9,2.9-7.4,3.8"/>
		</g>
		<g>
			<path class="st76" d="M102.1,149.1c-3.8-0.1-6.9,2.9-7.4,3.8"/>
		</g>
		<g>
			<path class="st76" d="M92.5,154c-3.8-0.1-6.9,2.9-7.4,3.8"/>
		</g>
		<g>
			<path class="st76" d="M83.2,159.1c-3.8-0.1-6.9,2.9-7.4,3.8"/>
		</g>
		<g>
			<path class="st76" d="M74.1,164.1c-3.8-0.1-6.9,2.9-7.4,3.8"/>
		</g>
		<g>
			<path class="st76" d="M64.6,169.1c-3.8-0.1-6.9,2.9-7.4,3.8"/>
		</g>
	</g>
	<path class="st76" d="M51.4,173.3c0,0,1.8-1.5,3.7-2.1"/>
</g>
<g>
	<g>
		<path class="st76" d="M110.7,146.3c-3.8-0.1-6.9,2.9-7.4,3.8"/>
	</g>
	<g>
		<path class="st76" d="M119.7,142c-3.8-0.1-6.9,2.9-7.4,3.8"/>
	</g>
	<g>
		<path class="st76" d="M101.6,151.3c-3.8-0.1-6.9,2.9-7.4,3.8"/>
	</g>
	<g>
		<path class="st76" d="M91.9,156.2c-3.8-0.1-6.9,2.9-7.4,3.8"/>
	</g>
	<g>
		<path class="st76" d="M82.6,161.3c-3.8-0.1-6.9,2.9-7.4,3.8"/>
	</g>
	<g>
		<path class="st76" d="M73.5,166.4c-3.8-0.1-6.9,2.9-7.4,3.8"/>
	</g>
	<g>
		<path class="st76" d="M64,171.3c-2.2-0.1-4.3,1.3-5.6,2.3"/>
	</g>
</g>
<g>
	<g>
		<path class="st76" d="M126.1,144.4c1.2-0.6-0.8-1.9-2.2-1.4c0,0-2.3,0.8-3.2,2.6"/>
	</g>
	<g>
		<path class="st76" d="M119.6,143.8c-3.8-0.1-6.9,2.9-7.4,3.8"/>
	</g>
	<g>
		<path class="st76" d="M110.5,148.8c-3.8-0.1-6.9,2.9-7.4,3.8"/>
	</g>
	<g>
		<path class="st76" d="M100.8,153.6c-3.8-0.1-6.9,2.9-7.4,3.8"/>
	</g>
	<g>
		<path class="st76" d="M91.5,158.8c-3.8-0.1-6.9,2.9-7.4,3.8"/>
	</g>
	<g>
		<path class="st76" d="M82.4,163.8c-3.8-0.1-6.9,2.9-7.4,3.8"/>
	</g>
	<g>
		<path class="st76" d="M72.9,168.8c-3.8-0.1-6.6,2.6-7.1,3.4"/>
	</g>
	<g>
		<g>
			<path class="st76" d="M119.1,146.3c-3.8-0.1-6.9,2.9-7.4,3.8"/>
		</g>
		<g>
			<path class="st76" d="M110,151.3c-3.8-0.1-6.9,2.9-7.4,3.8"/>
		</g>
		<g>
			<path class="st76" d="M100.3,156.2c-3.8-0.1-6.9,2.9-7.4,3.8"/>
		</g>
		<g>
			<path class="st76" d="M91,161.3c-3.8-0.1-6.9,2.9-7.4,3.8"/>
		</g>
		<g>
			<path class="st76" d="M81.9,166.4c-3.8-0.1-6.4,2.4-6.9,3.3"/>
		</g>
		<g>
			<path class="st76" d="M72.4,171.3c-3.8-0.1-6.3,2.3-6.8,3.1"/>
		</g>
	</g>
	<path class="st76" d="M60.1,175c0,0,1.5-1.5,4.1-2"/>
</g>
<g>
	<g>
		<path class="st76" d="M118.6,148.5c-3.8-0.1-6.9,2.9-7.4,3.8"/>
	</g>
	<g>
		<path class="st76" d="M126.3,144.4c-3.8-0.1-5.6,2.7-6.1,3.6"/>
	</g>
	<g>
		<path class="st76" d="M109.5,153.6c-3.8-0.1-6.9,2.9-7.4,3.8"/>
	</g>
	<g>
		<path class="st76" d="M99.8,158.4c-3.8-0.1-6.9,2.9-7.4,3.8"/>
	</g>
	<g>
		<path class="st76" d="M90.5,163.5c-3.8-0.1-6.9,2.9-7.4,3.8"/>
	</g>
	<g>
		<path class="st76" d="M81.4,168.6c-3.8-0.1-6.2,2.2-6.8,3.1"/>
	</g>
	<g>
		<path class="st76" d="M71.9,173.6c-2.2-0.1-4.5,2.6-4.5,2.6"/>
	</g>
</g>
<g>
	<path class="st76" d="M133.6,147.7c1.5,0.3,0.9,1.7,0.4,1.9"/>
</g>
<g>
	<path class="st76" d="M72.8,177.8c-0.1,0.4-1.3,2-0.5,1.7c1.1-0.4,2.8-2.1,4.4-2.4"/>
	<g>
		<path class="st76" d="M129.3,145.5c0.1,0,3-0.8,2.2,0.3c0,0-2.3,0.8-3.2,2.6"/>
	</g>
	<g>
		<path class="st76" d="M127.2,146.6c-3.8-0.1-6.9,2.9-7.4,3.8"/>
	</g>
	<g>
		<path class="st76" d="M118.1,151.6c-3.8-0.1-6.9,2.9-7.4,3.8"/>
	</g>
	<g>
		<path class="st76" d="M108.4,156.4c-3.8-0.1-6.9,2.9-7.4,3.8"/>
	</g>
	<g>
		<path class="st76" d="M99.1,161.6c-3.8-0.1-6.9,2.9-7.4,3.8"/>
	</g>
	<g>
		<path class="st76" d="M90,166.6c-3.8-0.1-6.3,2.3-6.8,3.2"/>
	</g>
	<g>
		<path class="st76" d="M81.1,171.1c-3.8-0.1-6.8,2.8-7.4,3.6"/>
	</g>
	<g>
		<g>
			<path class="st76" d="M126.8,149.1c-3.8-0.1-6.9,2.9-7.4,3.8"/>
		</g>
		<g>
			<path class="st76" d="M117.7,154.2c-3.8-0.1-6.9,2.9-7.4,3.8"/>
		</g>
		<g>
			<path class="st76" d="M108,159c-3.8-0.1-6.9,2.9-7.4,3.8"/>
		</g>
		<g>
			<path class="st76" d="M98.7,164.1c-3.8-0.1-6.9,2.9-7.4,3.8"/>
		</g>
		<g>
			<path class="st76" d="M89.6,169.2c-3.8-0.1-6.9,2.9-7.4,3.8"/>
		</g>
		<g>
			<path class="st76" d="M80.1,174.2c-3.8-0.1-6.9,2.9-7.4,3.8"/>
		</g>
	</g>
	<path class="st76" d="M67.1,176.3c-1.6,2.4,5-0.7,5-0.7"/>
</g>
<g>
	<g>
		<path class="st76" d="M125.1,151.9c-3.8-0.1-6.9,2.9-7.4,3.8"/>
	</g>
	<g>
		<path class="st76" d="M134,147.7c-3.8-0.1-6.9,2.9-7.4,3.8"/>
	</g>
	<g>
		<path class="st76" d="M115.9,157c-3.8-0.1-6.9,2.9-7.4,3.8"/>
	</g>
	<g>
		<path class="st76" d="M106.3,161.8c-3.8-0.1-6.9,2.9-7.4,3.8"/>
	</g>
	<g>
		<path class="st76" d="M97,167c-3.8-0.1-6.9,2.9-7.4,3.8"/>
	</g>
	<g>
		<path class="st76" d="M87.9,172c-3.8-0.1-6.9,2.9-7.4,3.8"/>
	</g>
	<g>
		<path class="st76" d="M78.4,177c-2.2-0.1-4.3,1-5.6,2"/>
	</g>
</g>
<path class="st76" d="M77.1,178.9c-4,2.2-2.7,3.2-1.6,3.2"/>
<g>
	<path class="st76" d="M132.5,153.1c0.1,0,3.1-1.4,3.7-0.2c0.4,0.8-0.6,1-1.6,1.5"/>
</g>
<g>
	<path class="st76" d="M132.4,150.4c-3.8-0.1-6.9,2.9-7.4,3.8"/>
</g>
<g>
	<path class="st76" d="M123.3,155.4c-3.8-0.1-6.9,2.9-7.4,3.8"/>
</g>
<g>
	<path class="st76" d="M113.7,160.2c-3.8-0.1-6.9,2.9-7.4,3.8"/>
</g>
<g>
	<path class="st76" d="M104,165.7c-3.8-0.1-6.2,2.2-6.7,3"/>
</g>
<g>
	<path class="st76" d="M94.7,170.7c-3.8-0.1-5.8,2.1-6.3,3"/>
</g>
<g>
	<path class="st76" d="M86.6,174.9c-3.8-0.1-7.1,2.5-7.6,3.4"/>
</g>
<g>
	<g>
		<path class="st76" d="M130.1,154.2c-3.8-0.1-6.9,2.9-7.4,3.8"/>
	</g>
	<g>
		<path class="st76" d="M121,159.2c-3.8-0.1-6.9,2.9-7.4,3.8"/>
	</g>
	<g>
		<path class="st76" d="M111.3,164c-3.8-0.1-6.9,2.9-7.4,3.8"/>
	</g>
	<g>
		<path class="st76" d="M102,169.2c-3.8-0.1-6,2-6.6,2.9"/>
	</g>
	<g>
		<path class="st76" d="M92.9,173.6c-3.8-0.1-5.2,2.2-5.7,3.1"/>
	</g>
	<g>
		<path class="st76" d="M84.5,177.8c-3.1,0.4-4.3,1.6-6.5,3.2"/>
	</g>
</g>
<g>
	<g>
		<path class="st77" d="M118.1,163c-3.5-0.1-6.5,2.7-7,3.6"/>
	</g>
	<g>
		<path class="st77" d="M127.3,158.5c-3.5-0.1-6.5,2.7-7,3.6"/>
	</g>
	<g>
		<path class="st77" d="M109.1,167.5c-3.5-0.1-6.5,2.7-7,3.6"/>
	</g>
	<g>
		<path class="st77" d="M99.9,172.4c-3.5-0.1-6.5,2.7-7,3.6"/>
	</g>
	<g>
		<path class="st77" d="M90.1,177.3c-3.5-0.1-6.5,2.7-7,3.6"/>
	</g>
	<g>
		<path class="st77" d="M81.4,181.7c-2.3-0.1-4.3,1.1-5.6,2.1c-0.7,0.6-1.4,1.2-0.2,1.4"/>
	</g>
	<g>
		<path class="st77" d="M135,154.2c-3,0.5-5.3,2.7-5.7,3.5"/>
	</g>
</g>
<path class="st76" d="M77.4,185.4c-4,2.1-2.8,3.1-1.6,3.1"/>
<g>
	<path class="st76" d="M132.6,160.3c0.1,0,3.1-1.4,3.7-0.1c0.4,0.8-0.6,1-1.6,1.5"/>
</g>
<g>
	<path class="st76" d="M133.2,157.9c-3.8-0.2-7,2.8-7.5,3.6"/>
</g>
<g>
	<path class="st76" d="M124,162.8c-3.8-0.2-7,2.8-7.5,3.6"/>
</g>
<g>
	<path class="st76" d="M114.3,167.4c-3.8-0.2-7,2.8-7.5,3.6"/>
</g>
<g>
	<path class="st76" d="M104.5,172.8c-3.8-0.2-6.2,2-6.7,2.9"/>
</g>
<g>
	<path class="st76" d="M95.8,176.7c-3.8-0.2-5.8,2-6.4,2.9"/>
</g>
<g>
	<path class="st76" d="M87.4,180.9c-3.8-0.2-7.1,2.4-7.7,3.3"/>
</g>
<g>
	<g>
		<path class="st76" d="M130.4,161.4c-3.8-0.2-7,2.8-7.5,3.6"/>
	</g>
	<g>
		<path class="st76" d="M121.2,166.3c-3.8-0.2-7,2.8-7.5,3.6"/>
	</g>
	<g>
		<path class="st76" d="M111.5,171c-3.8-0.2-7,2.8-7.5,3.6"/>
	</g>
	<g>
		<path class="st76" d="M102.1,175.9c-3.8-0.2-6.1,1.9-6.6,2.8"/>
	</g>
	<g>
		<path class="st76" d="M92.9,180.2c-3.8-0.2-5.2,2.1-5.7,3"/>
	</g>
	<g>
		<path class="st76" d="M84.4,184.2c-3.1,0.4-4.4,1.5-6.5,3"/>
	</g>
</g>
<g>
	<g>
		<path class="st77" d="M118.3,170c-3.5-0.1-6.5,2.6-7,3.4"/>
	</g>
	<g>
		<path class="st77" d="M127.6,165.6c-3.5-0.1-6.5,2.6-7,3.4"/>
	</g>
	<g>
		<path class="st77" d="M109.2,174.3c-3.5-0.1-6.5,2.6-7,3.4"/>
	</g>
	<g>
		<path class="st77" d="M100,179.1c-3.5-0.1-6.5,2.6-7,3.4"/>
	</g>
	<g>
		<path class="st77" d="M90,183.7c-3.5-0.1-6.5,2.6-7,3.4"/>
	</g>
	<g>
		<path class="st77" d="M81.3,188c-2.3-0.1-4.3,1-5.6,2c-0.7,0.6-1.4,1.2-0.2,1.4"/>
	</g>
	<g>
		<path class="st77" d="M135.4,161.5c-3,0.4-5.3,2.6-5.8,3.4"/>
	</g>
</g>
<path class="st76" d="M77.2,192.5c-4,2.1-2.8,3.1-1.6,3.1"/>
<g>
	<path class="st76" d="M132.4,167.4c0.1,0,3.1-1.4,3.7-0.1c0.4,0.8-0.6,1-1.6,1.5"/>
</g>
<g>
	<path class="st76" d="M133.1,164.9c-3.8-0.2-7,2.8-7.5,3.6"/>
</g>
<g>
	<path class="st76" d="M123.9,169.8c-3.8-0.2-7,2.8-7.5,3.6"/>
</g>
<g>
	<path class="st76" d="M114.1,174.5c-3.8-0.2-7,2.8-7.5,3.6"/>
</g>
<g>
	<path class="st76" d="M104.3,179.8c-3.8-0.2-6.2,2-6.7,2.9"/>
</g>
<g>
	<path class="st76" d="M95.3,183.7c-3.8-0.2-5.8,2-6.4,2.9"/>
</g>
<g>
	<path class="st76" d="M86.9,187.8c-3.8-0.2-7.1,2.4-7.7,3.3"/>
</g>
<g>
	<g>
		<path class="st76" d="M130.3,168.4c-3.8-0.2-7,2.8-7.5,3.6"/>
	</g>
	<g>
		<path class="st76" d="M121.1,173.3c-3.8-0.2-7,2.8-7.5,3.6"/>
	</g>
	<g>
		<path class="st76" d="M111.3,177.9c-3.8-0.2-7,2.8-7.5,3.6"/>
	</g>
	<g>
		<path class="st76" d="M101.9,182.9c-3.8-0.2-6.1,1.9-6.6,2.8"/>
	</g>
	<g>
		<path class="st76" d="M92.8,187.1c-3.8-0.2-5.2,2.1-5.7,3"/>
	</g>
	<g>
		<path class="st76" d="M84.2,191.2c-3.1,0.4-4.4,1.5-6.5,3"/>
	</g>
</g>
<g>
	<g>
		<path class="st77" d="M118.1,177c-3.5-0.1-6.5,2.6-7,3.4"/>
	</g>
	<g>
		<path class="st77" d="M127.5,172.7c-3.5-0.1-6.5,2.6-7,3.4"/>
	</g>
	<g>
		<path class="st77" d="M109.1,181.3c-3.5-0.1-6.5,2.6-7,3.4"/>
	</g>
	<g>
		<path class="st77" d="M99.8,186.1c-3.5-0.1-6.5,2.6-7,3.4"/>
	</g>
	<g>
		<path class="st77" d="M89.8,190.8c-3.5-0.1-6.5,2.6-7,3.4"/>
	</g>
	<g>
		<path class="st77" d="M81.1,195.1c-2.3-0.1-4.3,1-5.6,2c-0.7,0.6-1.4,1.2-0.2,1.4"/>
	</g>
	<g>
		<path class="st77" d="M135.2,168.6c-3,0.4-5.3,2.6-5.8,3.4"/>
	</g>
</g>
<path class="st76" d="M76.2,199.4c-4,2.1-2.8,3.1-1.6,3.1"/>
<g>
	<path class="st76" d="M131.9,174.7c0.1,0,3.1-1.4,3.7-0.1c0.4,0.8-0.6,1-1.6,1.5"/>
</g>
<g>
	<path class="st76" d="M132.5,172.2c-3.8-0.2-7,2.8-7.5,3.6"/>
</g>
<g>
	<path class="st76" d="M123.3,177.1c-3.8-0.2-7,2.8-7.5,3.6"/>
</g>
<g>
	<path class="st76" d="M114.1,181.4c-3.8-0.2-7,2.8-7.5,3.6"/>
</g>
<g>
	<path class="st76" d="M104.6,186.6c-3.8-0.2-6.2,2-6.7,2.9"/>
</g>
<g>
	<path class="st76" d="M95.4,190.9c-3.8-0.2-5.8,2-6.4,2.9"/>
</g>
<g>
	<path class="st76" d="M86.7,195.1c-3.8-0.2-7.1,2.4-7.7,3.3"/>
</g>
<g>
	<g>
		<path class="st76" d="M129.7,175.7c-3.8-0.2-7,2.8-7.5,3.6"/>
	</g>
	<g>
		<path class="st76" d="M120.5,180.6c-3.8-0.2-7,2.8-7.5,3.6"/>
	</g>
	<g>
		<path class="st76" d="M110.7,185.3c-3.8-0.2-7,2.8-7.5,3.6"/>
	</g>
	<g>
		<path class="st76" d="M101.4,190.3c-3.8-0.2-6.1,1.9-6.6,2.8"/>
	</g>
	<g>
		<path class="st76" d="M92.2,194.5c-3.8-0.2-5.2,2.1-5.7,3"/>
	</g>
	<g>
		<path class="st76" d="M83.7,198.5c-3.1,0.4-4.4,1.5-6.5,3"/>
	</g>
</g>
<g>
	<g>
		<path class="st77" d="M117.6,184.3c-3.5-0.1-6.5,2.6-7,3.4"/>
	</g>
	<g>
		<path class="st77" d="M126.9,180c-3.5-0.1-6.5,2.6-7,3.4"/>
	</g>
	<g>
		<path class="st77" d="M108.5,188.6c-3.5-0.1-6.5,2.6-7,3.4"/>
	</g>
	<g>
		<path class="st77" d="M99.2,193.4c-3.5-0.1-6.5,2.6-7,3.4"/>
	</g>
	<g>
		<path class="st77" d="M89.3,198.1c-3.5-0.1-6.5,2.6-7,3.4"/>
	</g>
	<g>
		<path class="st77" d="M80.6,202.4c-2.3-0.1-4.3,1-5.6,2c-0.7,0.6-1.4,1.2-0.2,1.4"/>
	</g>
	<g>
		<path class="st77" d="M134.6,175.9c-3,0.4-5.3,2.6-5.8,3.4"/>
	</g>
</g>
<g>
	<path class="st76" d="M132.1,182c0.1,0,3.1-1.4,3.7-0.1c0.4,0.8-0.6,1-1.6,1.5"/>
</g>
<g>
	<path class="st76" d="M132.7,179.5c-3.8-0.2-7,2.8-7.5,3.6"/>
</g>
<g>
	<path class="st76" d="M123.5,184.4c-3.8-0.2-7,2.8-7.5,3.6"/>
</g>
<g>
	<path class="st76" d="M114.2,188.7c-3.8-0.2-7,2.8-7.5,3.6"/>
</g>
<g>
	<path class="st76" d="M104.7,193.8c-3.8-0.2-6.2,2-6.7,2.9"/>
</g>
<g>
	<path class="st76" d="M95.5,198.2c-3.8-0.2-5.8,2-6.4,2.9"/>
</g>
<g>
	<path class="st76" d="M86.9,202.4c-3.8-0.2-7.1,2.4-7.7,3.3"/>
</g>
<g>
	<g>
		<path class="st76" d="M129.9,183c-3.8-0.2-7,2.8-7.5,3.6"/>
	</g>
	<g>
		<path class="st76" d="M120.7,187.9c-3.8-0.2-7,2.8-7.5,3.6"/>
	</g>
	<g>
		<path class="st76" d="M110.9,192.5c-3.8-0.2-7,2.8-7.5,3.6"/>
	</g>
	<g>
		<path class="st76" d="M101.5,197.5c-3.8-0.2-6.1,1.9-6.6,2.8"/>
	</g>
	<g>
		<path class="st76" d="M92.4,201.7c-3.8-0.2-5.2,2.1-5.7,3"/>
	</g>
</g>
<g>
	<g>
		<path class="st77" d="M117.7,191.6c-3.5-0.1-6.5,2.6-7,3.4"/>
	</g>
	<g>
		<path class="st77" d="M127.1,187.2c-3.5-0.1-6.5,2.6-7,3.4"/>
	</g>
	<g>
		<path class="st77" d="M108.7,195.9c-3.5-0.1-6.5,2.6-7,3.4"/>
	</g>
	<g>
		<path class="st77" d="M99.4,200.7c-3.5-0.1-6.5,2.6-7,3.4"/>
	</g>
	<g>
		<path class="st77" d="M134.8,183.2c-3,0.4-5.3,2.6-5.8,3.4"/>
	</g>
</g>
<g>
	<path class="st76" d="M131.6,189.9c0.1,0,3.1-1.4,3.7-0.1c0.4,0.8-0.6,1-1.6,1.5"/>
</g>
<g>
	<path class="st76" d="M132.3,187.4c-3.8-0.2-7,2.8-7.5,3.6"/>
</g>
<g>
	<path class="st76" d="M123.1,192.3c-3.8-0.2-7,2.8-7.5,3.6"/>
</g>
<g>
	<path class="st76" d="M113.8,196.6c-3.8-0.2-7,2.8-7.5,3.6"/>
</g>
<g>
	<path class="st76" d="M104.3,201.8c-3.8-0.2-6.2,2-6.7,2.9"/>
</g>
<g>
	<g>
		<path class="st76" d="M129.5,190.9c-3.8-0.2-7,2.8-7.5,3.6"/>
	</g>
	<g>
		<path class="st76" d="M120.3,195.8c-3.8-0.2-7,2.8-7.5,3.6"/>
	</g>
	<g>
		<path class="st76" d="M110.5,200.5c-3.8-0.2-7,2.8-7.5,3.6"/>
	</g>
</g>
<g>
	<g>
		<path class="st77" d="M117.3,199.5c-3.5-0.1-6.5,2.6-7,3.4"/>
	</g>
	<g>
		<path class="st77" d="M126.6,195.2c-3.5-0.1-6.5,2.6-7,3.4"/>
	</g>
	<g>
		<path class="st77" d="M134.4,191.1c-3,0.4-5.3,2.6-5.8,3.4"/>
	</g>
</g>
<g>
	<path class="st76" d="M131.9,197c0.1,0,3.1-1.4,3.7-0.1c0.4,0.8-0.6,1-1.6,1.5"/>
</g>
<g>
	<path class="st76" d="M132.5,194.5c-3.8-0.2-7,2.8-7.5,3.6"/>
</g>
<g>
	<path class="st76" d="M123.3,199.4c-3.8-0.2-7,2.8-7.5,3.6"/>
</g>
<g>
	<g>
		<path class="st76" d="M129.7,198c-3.8-0.2-7,2.8-7.5,3.6"/>
	</g>
	<g>
		<path class="st76" d="M120.5,202.9c-3.8-0.2-7,2.8-7.5,3.6"/>
	</g>
</g>
<g>
	<g>
		<path class="st77" d="M126.9,202.3c-3.5-0.1-6.5,2.6-7,3.4"/>
	</g>
	<g>
		<path class="st77" d="M134.6,198.2c-3,0.4-5.3,2.6-5.8,3.4"/>
	</g>
</g>
<g>
	<path class="st76" d="M131.9,204.3c0.1,0,3.1-1.4,3.7-0.1c0.4,0.8-0.6,1-1.6,1.5"/>
</g>
<g>
	<path class="st76" d="M132.5,201.8c-3.8-0.2-7,2.8-7.5,3.6"/>
</g>
</svg>
