<?xml version="1.0" encoding="utf-8"?>
<!-- Generator: Adobe Illustrator 25.2.3, SVG Export Plug-In . SVG Version: 6.00 Build 0)  -->
<svg version="1.1" id="Layer_1" xmlns="http://www.w3.org/2000/svg" xmlns:xlink="http://www.w3.org/1999/xlink" x="0px" y="0px"
	 viewBox="0 0 65.1 65.1" style="enable-background:new 0 0 65.1 65.1;" xml:space="preserve">
<style type="text/css">
	.st0{fill:#B79797;}
	.st1{fill:none;stroke:#B79797;stroke-width:0.25;stroke-miterlimit:10;}
</style>
<g>
	<rect x="0.7" y="0.6" class="st0" width="12.8" height="12.8"/>
	<rect x="13.5" y="13.4" class="st0" width="12.8" height="12.8"/>
	<rect x="26.4" y="0.6" class="st0" width="12.8" height="12.8"/>
	<rect x="0.8" y="26.1" class="st0" width="12.8" height="12.8"/>
	<rect x="39.2" y="13.4" class="st0" width="12.8" height="12.8"/>
	<rect x="51.9" y="26.1" class="st0" width="12.8" height="12.8"/>
	<rect x="52" y="0.6" class="st0" width="12.7" height="12.8"/>
	<rect x="0.8" y="26.2" class="st0" width="12.8" height="12.8"/>
	<rect x="13.6" y="38.9" class="st0" width="12.8" height="12.8"/>
	<rect x="26.4" y="51.7" class="st0" width="12.8" height="12.8"/>
	<rect x="26.4" y="26.1" class="st0" width="12.8" height="12.8"/>
	<rect x="0.8" y="51.7" class="st0" width="12.8" height="12.8"/>
	<rect x="39.2" y="38.9" class="st0" width="12.8" height="12.8"/>
	<rect x="52" y="51.7" class="st0" width="12.7" height="12.8"/>
	<rect x="51.9" y="26.1" class="st0" width="12.7" height="12.8"/>
	<rect x="0.7" y="0.6" class="st1" width="64" height="64"/>
</g>
</svg>
