<?xml version="1.0" encoding="utf-8"?>
<!-- Generator: Adobe Illustrator 25.2.3, SVG Export Plug-In . SVG Version: 6.00 Build 0)  -->
<svg version="1.1" id="Layer_1" xmlns="http://www.w3.org/2000/svg" xmlns:xlink="http://www.w3.org/1999/xlink" x="0px" y="0px"
	 viewBox="0 0 152.1 204.5" style="enable-background:new 0 0 152.1 204.5;" xml:space="preserve">
<style type="text/css">
	.st0{fill:#C2AAA7;stroke:#F4F4F4;stroke-width:0.25;stroke-miterlimit:10;}
	.st1{fill:#E4DAD8;stroke:#F4F4F4;stroke-width:0.25;stroke-miterlimit:10;}
	.st2{fill:#C2AAA7;stroke:#F4F4F4;stroke-width:0.35;stroke-miterlimit:10;}
	.st3{fill:#ED6D47;}
	.st4{fill:#DB4A3A;}
	.st5{fill:#D7432E;}
	.st6{fill:none;stroke:#CB452E;stroke-width:2.996000e-02;stroke-linecap:round;stroke-miterlimit:10;}
	.st7{fill:none;stroke:#CB452E;stroke-width:6.006000e-02;stroke-linecap:round;stroke-miterlimit:10;}
	.st8{fill:none;stroke:#CB452E;stroke-width:9.002000e-02;stroke-linecap:round;stroke-miterlimit:10;}
	.st9{fill:none;stroke:#CB452E;stroke-width:0.12;stroke-linecap:round;stroke-miterlimit:10;}
	.st10{fill:none;stroke:#CB452E;stroke-width:0.1499;stroke-linecap:round;stroke-miterlimit:10;}
	.st11{fill:none;stroke:#CB452E;stroke-width:0.18;stroke-linecap:round;stroke-miterlimit:10;}
	.st12{fill:none;stroke:#CB452E;stroke-width:0.21;stroke-linecap:round;stroke-miterlimit:10;}
	.st13{fill:none;stroke:#CB452E;stroke-width:0.24;stroke-linecap:round;stroke-miterlimit:10;}
	.st14{fill:none;stroke:#CB452E;stroke-width:0.2701;stroke-linecap:round;stroke-miterlimit:10;}
	.st15{fill:none;stroke:#CB452E;stroke-width:0.3;stroke-linecap:round;stroke-miterlimit:10;}
	.st16{fill:none;stroke:#CB452E;stroke-width:0.33;stroke-linecap:round;stroke-miterlimit:10;}
	.st17{fill:none;stroke:#CB452E;stroke-width:0.3599;stroke-linecap:round;stroke-miterlimit:10;}
	.st18{fill:none;stroke:#CB452E;stroke-width:0.39;stroke-linecap:round;stroke-miterlimit:10;}
	.st19{fill:none;stroke:#CB452E;stroke-width:0.42;stroke-linecap:round;stroke-miterlimit:10;}
	.st20{fill:none;stroke:#CB452E;stroke-width:0.45;stroke-linecap:round;stroke-miterlimit:10;}
	.st21{fill:none;stroke:#CB452E;stroke-width:0.4801;stroke-linecap:round;stroke-miterlimit:10;}
	.st22{fill:none;stroke:#CB452E;stroke-width:0.51;stroke-linecap:round;stroke-miterlimit:10;}
	.st23{fill:none;stroke:#CB452E;stroke-width:0.54;stroke-linecap:round;stroke-miterlimit:10;}
	.st24{fill:none;stroke:#CB452E;stroke-width:0.5699;stroke-linecap:round;stroke-miterlimit:10;}
	.st25{fill:none;stroke:#CB452E;stroke-width:0.6;stroke-linecap:round;stroke-miterlimit:10;}
	.st26{fill:none;stroke:#CB452E;stroke-width:0.63;stroke-linecap:round;stroke-miterlimit:10;}
	.st27{fill:none;stroke:#CB452E;stroke-width:0.66;stroke-linecap:round;stroke-miterlimit:10;}
	.st28{fill:none;stroke:#CB452E;stroke-width:0.6901;stroke-linecap:round;stroke-miterlimit:10;}
	.st29{fill:none;stroke:#CB452E;stroke-width:0.72;stroke-linecap:round;stroke-miterlimit:10;}
	.st30{fill:none;stroke:#CB452E;stroke-width:0.75;stroke-linecap:round;stroke-miterlimit:10;}
	.st31{fill:none;stroke:#CB452E;stroke-width:0.7799;stroke-linecap:round;stroke-miterlimit:10;}
	.st32{fill:none;stroke:#CB452E;stroke-width:0.81;stroke-linecap:round;stroke-miterlimit:10;}
	.st33{fill:none;stroke:#CB452E;stroke-width:0.84;stroke-linecap:round;stroke-miterlimit:10;}
	.st34{fill:none;stroke:#CB452E;stroke-width:0.87;stroke-linecap:round;stroke-miterlimit:10;}
	.st35{fill:none;stroke:#CB452E;stroke-width:0.9001;stroke-linecap:round;stroke-miterlimit:10;}
	.st36{fill:none;stroke:#CB452E;stroke-width:0.93;stroke-linecap:round;stroke-miterlimit:10;}
	.st37{fill:#EC6B47;}
	.st38{fill:#EC6A46;}
	.st39{fill:#EB6845;}
	.st40{fill:#EA6645;}
	.st41{fill:#E96544;}
	.st42{fill:#E86343;}
	.st43{fill:#E76143;}
	.st44{fill:#E66042;}
	.st45{fill:#E55E42;}
	.st46{fill:#E55C41;}
	.st47{fill:#E45B40;}
	.st48{fill:#E35940;}
	.st49{fill:#E2573F;}
	.st50{fill:#E1563E;}
	.st51{fill:#E0543E;}
	.st52{fill:#DF523D;}
	.st53{fill:#DE513D;}
	.st54{fill:#DE4F3C;}
	.st55{fill:#DD4D3B;}
	.st56{fill:#DC4C3B;}
	.st57{fill:#C2AAA7;stroke:#F4F4F4;stroke-width:0.3619;stroke-miterlimit:10;}
	.st58{fill:#C2AAA7;stroke:#FFFFFF;stroke-width:0.175;stroke-miterlimit:10;}
	.st59{fill:#E4DAD8;stroke:#F4F4F4;stroke-width:0.175;stroke-miterlimit:10;}
	.st60{fill:none;stroke:#000000;stroke-width:0.9527;stroke-miterlimit:10;}
	.st61{fill:none;stroke:#000000;stroke-width:0.9527;stroke-linecap:round;stroke-miterlimit:10;}
	.st62{fill:#CFBCBC;stroke:#FFFFFF;stroke-width:0.2907;stroke-miterlimit:10;}
	.st63{fill:#E4DAD8;stroke:#FFFFFF;stroke-width:0.2907;stroke-miterlimit:10;}
	.st64{fill:#CFBCBC;stroke:#FFFFFF;stroke-width:0.1453;stroke-miterlimit:10;}
	.st65{fill:#E4DAD8;stroke:#FFFFFF;stroke-width:0.1453;stroke-miterlimit:10;}
	.st66{fill:#C2AAA7;stroke:#FFFFFF;stroke-width:0.1487;stroke-miterlimit:10;}
	.st67{fill:#E4DAD8;stroke:#FFFFFF;stroke-width:0.1843;stroke-miterlimit:10;}
	.st68{fill:#5E5756;stroke:#FFFFFF;stroke-width:0.1453;stroke-miterlimit:10;}
	.st69{fill:#E4DAD8;stroke:#FFFFFF;stroke-width:0.2907;stroke-linejoin:bevel;stroke-miterlimit:10;}
	.st70{fill:#CFBCBC;stroke:#FFFFFF;stroke-width:0.2907;stroke-linejoin:bevel;stroke-miterlimit:10;}
	.st71{fill:#C2AAA7;}
	.st72{fill:#24234C;}
	.st73{fill:none;stroke:#24234C;stroke-width:0.1453;stroke-miterlimit:10;}
	.st74{fill:none;stroke:#24234C;stroke-width:0.1453;stroke-linecap:round;stroke-miterlimit:10;}
	.st75{fill:#CEBBBB;stroke:#FFFFFF;stroke-width:0.2481;stroke-miterlimit:10;}
	.st76{fill:#FFFFFF;stroke:#E2D7D5;stroke-width:0.1453;stroke-miterlimit:10;}
	.st77{fill:#DC3359;}
	.st78{fill:none;stroke:#BF282E;stroke-width:0.3653;stroke-miterlimit:10;}
	.st79{fill:none;stroke:#000000;stroke-width:1.0958;stroke-miterlimit:10;}
	.st80{fill:none;stroke:#000000;stroke-width:1.0958;stroke-linecap:round;stroke-miterlimit:10;}
	.st81{fill:none;stroke:#24234C;stroke-width:0.5813;stroke-linecap:round;stroke-miterlimit:10;}
</style>
<g>
	<g>
		<g>
			<ellipse class="st0" cx="31.7" cy="54.7" rx="14.8" ry="6"/>
			<ellipse class="st1" cx="31.9" cy="53" rx="14.8" ry="6.6"/>
		</g>
		<path class="st2" d="M19.8,12.4L21,53c0,0,3.1,3.1,11.5,3.1s10.4-3.2,10.4-3.2V12.4H19.8z"/>
		<g>
			<path class="st3" d="M42.8,52.2c-0.6,1-12.9-1.4-12.9-1.4l-9,1.3V16.4L32.6,21L43,15.8C42.9,15.8,42.8,50.8,42.8,52.2z"/>
		</g>
		<g>
			<g>
				<path class="st3" d="M20.7,26.6c4.8,3.4,9.8,6.3,15.1,8.7c2.1,1,4.2,1.8,6.4,2.5c0.4,0.1,1.1-0.4,0.6-0.6
					c-2.1-0.7-4.2-1.5-6.2-2.4c-5.3-2.4-10.5-5.3-15.3-8.7C21.1,25.9,20.3,26.3,20.7,26.6L20.7,26.6z"/>
			</g>
		</g>
		<g>
			<g>
				<path class="st3" d="M21,28.4c4.8,3.4,9.9,6.3,15.3,8.8c2.1,1,4.2,1.8,6.4,2.5c0.3,0.1,1.1-0.3,0.6-0.6
					c-2.1-0.7-4.2-1.5-6.3-2.4c-5.3-2.4-10.4-5.3-15.1-8.7C21.5,27.8,20.7,28.3,21,28.4L21,28.4z"/>
			</g>
		</g>
		<g>
			<g>
				<path class="st3" d="M20.7,21.8c4.9,3.4,9.9,6.4,15.3,8.8c2.1,0.8,4.1,1.8,6.3,2.4c0.1,0,1-0.3,0.7-0.3
					c-2.2-0.7-4.3-1.5-6.3-2.5c-5.3-2.4-10.4-5.3-15.1-8.7C21.2,21.4,20.5,21.8,20.7,21.8L20.7,21.8z"/>
			</g>
		</g>
		<g>
			<g>
				<path class="st3" d="M20.4,24.9c4.9,3.4,9.9,6.4,15.3,8.8c2.1,0.8,4.1,1.8,6.3,2.4c0.3,0,1-0.3,0.7-0.4
					c-2.2-0.7-4.3-1.5-6.3-2.5C31,30.8,26,27.8,21.2,24.5C21.1,24.5,20.3,24.9,20.4,24.9L20.4,24.9z"/>
			</g>
		</g>
		<g>
			<g>
				<path class="st3" d="M20.7,20.1c4.8,3.4,9.8,6.3,15.1,8.7c2.1,1,4.2,1.8,6.4,2.5c0.3,0,1.1-0.3,0.7-0.4
					c-2.1-0.7-4.2-1.5-6.2-2.4c-5.3-2.4-10.5-5.3-15.3-8.8C21.2,19.6,20.4,20,20.7,20.1L20.7,20.1z"/>
			</g>
		</g>
		<g>
			<g>
				<path class="st3" d="M20.1,38.8c4.9,3.4,10.1,6.3,15.5,8.8c2.1,1,4.1,1.8,6.3,2.5c0.4,0.1,1.1-0.4,0.6-0.6
					c-2.1-0.7-4.1-1.5-6-2.4C31,44.6,25.9,41.7,21,38.3C20.5,38.1,19.7,38.5,20.1,38.8L20.1,38.8z"/>
			</g>
		</g>
		<g>
			<g>
				<path class="st3" d="M21,23.8c4.9,3.4,9.9,6.4,15.3,8.8c2.1,0.8,4.1,1.8,6.3,2.4c0.3,0,1-0.3,0.7-0.4C41,33.9,38.9,33,36.9,32
					c-5.3-2.4-10.4-5.3-15.1-8.7C21.7,23.2,20.8,23.6,21,23.8L21,23.8z"/>
			</g>
		</g>
		<g>
			<g>
				<path class="st3" d="M21,33.4c5.6-2,10.9-4.3,16-7.4c2-1.1,4.1-2.4,5.9-3.8c0.1-0.1-0.7,0-0.8,0.1c-1.7,1.4-3.6,2.5-5.5,3.6
					c-5,2.9-10.4,5.3-15.8,7.3C20,33.6,20.5,33.6,21,33.4L21,33.4z"/>
			</g>
		</g>
		<g>
			<g>
				<path class="st3" d="M21.5,35.1c5.6-2,10.9-4.3,16.1-7.4c2-1.1,3.9-2.4,5.7-3.8c0.4-0.3-0.6-0.3-0.7-0.1
					c-1.7,1.4-3.6,2.5-5.6,3.6c-5,2.9-10.4,5.3-15.8,7.3C20.5,35,21.1,35.3,21.5,35.1L21.5,35.1z"/>
			</g>
		</g>
		<g>
			<g>
				<path class="st3" d="M21.4,37.4c5.5-2,10.9-4.3,16-7.3c2-1.1,4.1-2.4,5.9-3.9c0.4-0.3-0.6-0.1-0.7,0c-1.7,1.4-3.6,2.5-5.5,3.6
					c-5,2.9-10.5,5.5-16,7.4C20.4,37.2,21.1,37.4,21.4,37.4L21.4,37.4z"/>
			</g>
		</g>
		<g>
			<g>
				<path class="st3" d="M21.2,44.6c5.6-2,10.9-4.3,16.1-7.4c2-1.1,3.9-2.4,5.7-3.8c0.4-0.3-0.6-0.3-0.7-0.1
					c-1.7,1.4-3.6,2.5-5.6,3.6c-5,2.9-10.4,5.3-15.8,7.3C20.4,44.5,21,44.8,21.2,44.6L21.2,44.6z"/>
			</g>
		</g>
		<g>
			<g>
				<path class="st3" d="M21.1,48c5.5-2,10.9-4.3,16-7.3c2-1.1,4.1-2.4,5.9-3.9c0.4-0.3-0.6-0.1-0.7,0c-1.7,1.4-3.6,2.5-5.5,3.6
					c-5,2.9-10.5,5.5-16,7.4C20.1,48,20.7,48.1,21.1,48L21.1,48z"/>
			</g>
		</g>
		<g>
			<g>
				<path class="st3" d="M21.7,49.8c5.6-2,10.9-4.3,16.1-7.4c2-1.1,3.9-2.4,5.7-3.8c0.4-0.4-0.3-0.7-0.6-0.4
					c-1.7,1.4-3.6,2.5-5.6,3.6c-5,2.9-10.4,5.3-15.8,7.3C21,49.3,21.1,50,21.7,49.8L21.7,49.8z"/>
			</g>
		</g>
		<g>
			<g>
				<path class="st3" d="M21.7,51.9c5.6-2,10.9-4.5,16.1-7.4c2-1.1,3.9-2.4,5.7-3.8c0.4-0.3-0.6-0.4-0.7-0.1
					c-1.5,1.3-3.8,2.5-5.6,3.6c-5,2.9-10.4,5.3-15.8,7.3C20.7,51.8,21.2,52.1,21.7,51.9L21.7,51.9z"/>
			</g>
		</g>
		<g>
			<g>
				<path class="st3" d="M20.7,38.3c5.6-2,10.9-4.3,16.1-7.4c2-1.1,3.9-2.4,5.7-3.8c0.4-0.4-0.3-0.7-0.6-0.4
					c-1.7,1.4-3.6,2.5-5.6,3.6c-5,2.9-10.4,5.3-15.8,7.3C19.8,37.9,20.1,38.5,20.7,38.3L20.7,38.3z"/>
			</g>
		</g>
		<g>
			<g>
				<path class="st3" d="M21.4,39.6c5.5-2,10.9-4.3,16-7.3c2-1.1,4.1-2.4,5.9-3.9c0.4-0.3-0.6-0.1-0.7,0c-1.7,1.4-3.6,2.5-5.5,3.6
					c-5,2.9-10.5,5.5-16,7.4C20.4,39.6,21,39.7,21.4,39.6L21.4,39.6z"/>
			</g>
		</g>
		<g>
			<g>
				<path class="st3" d="M21.2,42c5.6-2,10.9-4.3,16.1-7.4c2-1.1,3.9-2.4,5.7-3.8c0.4-0.3-0.4-0.4-0.7-0.1c0.1-0.1-0.3,0.1-0.3,0.3
					c-0.4,0.3-0.7,0.6-1.1,0.8c-1.4,1-2.8,1.8-4.2,2.7c-5,2.9-10.4,5.3-15.8,7.3C20.3,41.8,20.8,42.1,21.2,42L21.2,42z"/>
			</g>
		</g>
		<g>
			<g>
				<path class="st3" d="M21.9,30.6c5.3-2,10.5-4.2,15.3-7.4c1.7-1.1,3.5-2.4,4.9-3.9c0.4-0.4-0.4-0.6-0.8-0.3
					c-1.3,1.3-3.1,2.5-4.6,3.6c-4.6,3.1-9.7,5.5-14.8,7.3C21.2,30.2,21.4,30.8,21.9,30.6L21.9,30.6z"/>
			</g>
		</g>
		<g>
			<g>
				<path class="st3" d="M20.8,32c5.5-2,10.9-4.3,16-7.3c2-1.1,4.1-2.4,5.9-3.9c0.4-0.4-0.3-0.7-0.6-0.4c-1.7,1.4-3.6,2.5-5.5,3.6
					c-5,2.9-10.4,5.5-16,7.3C20.1,31.8,20.3,32.3,20.8,32L20.8,32z"/>
			</g>
		</g>
		<g>
			<g>
				<path class="st3" d="M20.8,34.3c5.6-2,10.9-4.3,16.1-7.4c2-1.1,3.9-2.4,5.7-3.8c0.4-0.3-0.6-0.3-0.7-0.1
					c-1.7,1.4-3.6,2.5-5.6,3.6c-5,2.9-10.4,5.3-15.8,7.3C19.8,34.1,20.4,34.4,20.8,34.3L20.8,34.3z"/>
			</g>
		</g>
		<g>
			<g>
				<path class="st3" d="M21,29.8c5.6-2,10.9-4.3,16.1-7.4c2-1.1,3.9-2.4,5.7-3.8c0.4-0.3-0.6-0.1-0.7-0.1c-1.7,1.4-3.6,2.5-5.6,3.6
					c-5,2.9-10.4,5.3-15.8,7.3C20,29.7,20.5,29.9,21,29.8L21,29.8z"/>
			</g>
		</g>
		<g>
			<g>
				<path class="st3" d="M20.8,32c5.5-2,10.9-4.3,16-7.3c2-1.1,4.1-2.4,5.9-3.9c0.4-0.3-0.6-0.1-0.7,0c-1.7,1.4-3.6,2.5-5.5,3.6
					c-5,2.9-10.5,5.5-16,7.4C19.8,32,20.4,32.2,20.8,32L20.8,32z"/>
			</g>
		</g>
		<g>
			<g>
				<path class="st3" d="M21.2,40c5.6-2,10.9-4.3,16.1-7.4c2-1.1,3.9-2.4,5.7-3.8c0.4-0.3-0.6-0.3-0.7-0.1c-1.7,1.4-3.6,2.5-5.6,3.6
					c-5,2.9-10.4,5.3-15.8,7.3C20.3,39.9,20.8,40.2,21.2,40L21.2,40z"/>
			</g>
		</g>
		<g>
			<g>
				<path class="st3" d="M21.2,43.1c5.5-2,10.9-4.3,16-7.3c2-1.1,4.1-2.4,5.9-3.9c0.4-0.4-0.3-0.7-0.6-0.4c-1.7,1.4-3.6,2.5-5.5,3.6
					c-5,2.9-10.4,5.5-16,7.3C20.5,42.8,20.7,43.4,21.2,43.1L21.2,43.1z"/>
			</g>
		</g>
		<g>
			<g>
				<path class="st3" d="M21.2,45.5c5.6-2,10.9-4.3,16.1-7.4c2-1.1,3.9-2.4,5.7-3.8c0.4-0.3-0.6-0.3-0.7-0.1
					c-1.7,1.4-3.6,2.5-5.6,3.6c-5,2.9-10.4,5.3-15.8,7.3C20.4,45.3,21,45.6,21.2,45.5L21.2,45.5z"/>
			</g>
		</g>
		<g>
			<g>
				<path class="st3" d="M21,49.4c5.6-2,10.9-4.3,16.1-7.4c2-1.1,3.9-2.4,5.7-3.8c0.4-0.4-0.3-0.7-0.6-0.4c-1.7,1.4-3.6,2.5-5.6,3.6
					c-5,2.9-10.4,5.3-15.8,7.3C20.3,48.8,20.4,49.5,21,49.4L21,49.4z"/>
			</g>
		</g>
		<g>
			<g>
				<path class="st3" d="M20.4,30.6c4.8,3.4,9.8,6.3,15.3,8.7c2.1,1,4.2,1.8,6.4,2.5c0.4,0.1,1.1-0.6,0.6-0.7
					c-2.1-0.7-4.2-1.5-6.2-2.4C31.2,36.3,26,33.4,21.2,30C20.8,29.8,20,30.2,20.4,30.6L20.4,30.6z"/>
			</g>
		</g>
		<g>
			<g>
				<path class="st3" d="M20.7,32.3c4.9,3.4,9.9,6.4,15.3,8.8c2.1,1,4.2,1.8,6.3,2.4c0.3,0,1-0.3,0.7-0.3c-2.1-0.7-4.2-1.5-6.3-2.5
					c-5.3-2.4-10.4-5.3-15.1-8.7C21.4,31.9,20.5,32.3,20.7,32.3L20.7,32.3z"/>
			</g>
		</g>
		<g>
			<g>
				<path class="st3" d="M20.4,36.8c4.9,3.4,10.1,6.4,15.4,9c2,1,3.9,1.8,5.9,2.5c0.4,0.1,1.1-0.4,0.6-0.6c-2.1-0.7-4.1-1.5-5.9-2.5
					c-5.3-2.5-10.4-5.6-15.3-9C20.7,36.1,19.8,36.5,20.4,36.8L20.4,36.8z"/>
			</g>
		</g>
		<g>
			<g>
				<path class="st3" d="M20.7,25.5c4.9,3.4,9.9,6.4,15.3,8.8c2.1,0.8,4.1,1.8,6.3,2.4c0.1,0,1-0.3,0.7-0.3
					c-2.2-0.7-4.3-1.5-6.3-2.5c-5.3-2.4-10.4-5.3-15.1-8.7C21.4,25,20.5,25.5,20.7,25.5L20.7,25.5z"/>
			</g>
		</g>
		<g>
			<g>
				<path class="st3" d="M20.8,21c4.8,3.4,9.8,6.3,15.1,8.7c2.1,1,4.2,1.8,6.4,2.5c0.4,0.1,1.1-0.4,0.6-0.6
					c-2.1-0.7-4.2-1.5-6.2-2.4c-5.3-2.4-10.5-5.3-15.3-8.7C21.2,20.3,20.4,20.7,20.8,21L20.8,21z"/>
			</g>
		</g>
		<g>
			<g>
				<path class="st3" d="M20.7,24.1c4.8,3.4,9.8,6.3,15.1,8.7c2.1,1,4.2,1.8,6.4,2.5c0.4,0.1,1.1-0.6,0.6-0.7
					c-2.1-0.7-4.2-1.5-6.2-2.4c-5.3-2.4-10.5-5.3-15.3-8.7C21,23.4,20.1,23.8,20.7,24.1L20.7,24.1z"/>
			</g>
		</g>
		<g>
			<g>
				<path class="st4" d="M20.7,19.2c4.8,3.4,9.8,6.3,15.1,8.7c2.1,1,4.2,1.8,6.4,2.5c0.3,0,1.1-0.3,0.7-0.4
					c-2.1-0.7-4.2-1.5-6.2-2.4c-5.3-2.4-10.5-5.5-15.3-8.8C21.4,18.7,20.5,19.2,20.7,19.2L20.7,19.2z"/>
			</g>
		</g>
		<g>
			<g>
				<path class="st3" d="M20.3,37.8c5,3.4,10.2,6.3,15.7,8.8c2,1,4.1,1.8,6.2,2.5c0.3,0.1,1.1-0.4,0.6-0.6c-2.1-0.7-4.2-1.5-6.2-2.5
					c-5.3-2.5-10.5-5.5-15.4-8.7C20.7,37.1,19.8,37.5,20.3,37.8L20.3,37.8z"/>
			</g>
		</g>
		<g>
			<g>
				<path class="st4" d="M21.1,22.8c4.8,3.4,9.8,6.3,15.1,8.7c2.1,1,4.2,1.8,6.4,2.5c0.3,0,1.1-0.3,0.7-0.4
					c-2.1-0.7-4.2-1.5-6.2-2.4c-5.3-2.4-10.5-5.3-15.3-8.8C21.8,22.2,21,22.7,21.1,22.8L21.1,22.8z"/>
			</g>
		</g>
		<g>
			<g>
				<path class="st3" d="M21,32.7c5.5-2,10.9-4.3,16-7.3c2-1.1,4.1-2.4,5.9-3.9c0.4-0.4-0.3-0.7-0.6-0.4c-1.7,1.4-3.6,2.5-5.5,3.6
					c-5,2.9-10.4,5.5-16,7.3C20.3,32.3,20.4,33,21,32.7L21,32.7z"/>
			</g>
		</g>
		<g>
			<g>
				<path class="st3" d="M21.7,34c5.7-2,11.3-4.3,16.5-7.3c0.3-0.1,5.7-3.5,5-3.9c-0.3-0.1-1,0.3-0.8,0.3c0.3,0.1-1,1.3-1.1,1.3
					c-1.3,1-2.7,1.8-4.2,2.5c-5,2.8-10.4,5-15.7,7C20.7,34,21.2,34.1,21.7,34L21.7,34z"/>
			</g>
		</g>
		<g>
			<g>
				<path class="st3" d="M21.4,36.5c5.6-2,10.9-4.3,16.1-7.4c2-1.1,3.9-2.4,5.7-3.8c0.4-0.4-0.3-0.7-0.6-0.4
					c-1.7,1.4-3.6,2.5-5.6,3.6c-5,2.9-10.4,5.3-15.8,7.3C20.7,36.1,20.8,36.8,21.4,36.5L21.4,36.5z"/>
			</g>
		</g>
		<g>
			<g>
				<path class="st3" d="M21.4,43.7c5.6-2,10.9-4.3,16.1-7.4c2-1.1,3.9-2.4,5.7-3.8c0.4-0.3-0.6-0.3-0.7-0.1
					c-1.7,1.4-3.6,2.5-5.6,3.6c-5,2.9-10.4,5.3-15.8,7.3C20.4,43.5,21,43.8,21.4,43.7L21.4,43.7z"/>
			</g>
		</g>
		<g>
			<g>
				<path class="st3" d="M22.1,45.2c5.6-2,11.3-4.2,16.5-7.3c0.6-0.3,5.7-3.1,4.6-4.2c-0.3-0.1-1.1,0.1-0.8,0.3
					c0.8,0.8-4.8,3.8-5.2,4.1c-4.9,2.7-10.2,4.8-15.5,6.7C21.1,45.1,21.7,45.3,22.1,45.2L22.1,45.2z"/>
			</g>
		</g>
		<g>
			<g>
				<path class="st3" d="M21.2,47.2c5.6-2,10.9-4.3,16.1-7.4c2-1.1,3.9-2.4,5.7-3.8c0.4-0.3-0.6-0.3-0.7-0.1
					c-1.7,1.4-3.6,2.5-5.6,3.6c-5,2.9-10.4,5.3-15.8,7.3C20.3,47,20.8,47.3,21.2,47.2L21.2,47.2z"/>
			</g>
		</g>
		<g>
			<g>
				<path class="st4" d="M21.7,50.9c5.6-2,10.9-4.5,16.1-7.4c2-1.1,3.9-2.4,5.7-3.8c0.4-0.3-0.6-0.3-0.7-0.1
					c-1.7,1.4-3.6,2.5-5.6,3.6c-5,2.9-10.4,5.3-15.8,7.3C20.7,50.8,21.2,51.1,21.7,50.9L21.7,50.9z"/>
			</g>
		</g>
		<g>
			<g>
				<path class="st3" d="M20.7,37.4c5.6-2,10.9-4.3,16.1-7.4c2-1.1,3.9-2.4,5.7-3.8c0.4-0.4-0.3-0.7-0.6-0.4
					c-1.7,1.4-3.6,2.5-5.6,3.6c-5,2.9-10.4,5.3-15.8,7.3C20,36.9,20.1,37.5,20.7,37.4L20.7,37.4z"/>
			</g>
		</g>
		<g>
			<g>
				<path class="st3" d="M21.5,38.8c5.6-2,10.9-4.3,16.1-7.4c2-1.1,3.9-2.4,5.7-3.8c0.4-0.3-0.6-0.3-0.7-0.1
					C40.9,28.9,39,30,37,31.1c-5,2.9-10.4,5.3-15.8,7.3C20.5,38.6,21.1,38.9,21.5,38.8L21.5,38.8z"/>
			</g>
		</g>
		<g>
			<g>
				<path class="st3" d="M21.2,41c5.6-2,10.9-4.3,16.1-7.4c2-1.1,3.9-2.4,5.7-3.8c0.4-0.3-0.6-0.3-0.7-0.1c-1.7,1.4-3.6,2.5-5.6,3.6
					c-5,2.9-10.4,5.3-15.8,7.3C20.4,40.9,21,41.1,21.2,41L21.2,41z"/>
			</g>
		</g>
		<g>
			<g>
				<path class="st3" d="M22.1,29.5c5.3-2,10.5-4.2,15.3-7.4c1.7-1.1,3.5-2.4,4.9-3.8c0.4-0.4-0.6-0.4-0.7-0.1
					c-1.4,1.4-3.1,2.5-4.8,3.6c-4.6,3.1-9.8,5.5-15,7.3C21.1,29.4,21.7,29.7,22.1,29.5L22.1,29.5z"/>
			</g>
		</g>
		<g>
			<g>
				<path class="st3" d="M21.1,30.9c5.6-2,10.9-4.3,16-7.4c2-1.1,4.1-2.4,5.9-3.8c0.1-0.1-0.7-0.1-0.8,0.1c-1.7,1.4-3.6,2.5-5.5,3.6
					c-5,2.9-10.4,5.3-15.8,7.3C20.1,30.9,20.7,31.1,21.1,30.9L21.1,30.9z"/>
			</g>
		</g>
		<g>
			<g>
				<path class="st4" d="M20.8,33.4c5.6-2,10.9-4.3,16-7.3c2-1.1,4.1-2.4,5.9-3.8c0.4-0.4-0.3-0.7-0.6-0.4c-1.7,1.4-3.6,2.5-5.5,3.6
					c-5,2.9-10.4,5.5-16,7.3C20.1,33,20.3,33.6,20.8,33.4L20.8,33.4z"/>
			</g>
		</g>
		<g>
			<g>
				<path class="st4" d="M20.8,31.3c5.6-2,10.9-4.3,16.1-7.4c2-1.1,3.9-2.4,5.7-3.8c0.4-0.4-0.3-0.7-0.6-0.4
					c-1.7,1.4-3.6,2.5-5.6,3.6c-5,2.9-10.4,5.3-15.8,7.3C20.1,30.9,20.3,31.5,20.8,31.3L20.8,31.3z"/>
			</g>
		</g>
		<g>
			<g>
				<path class="st4" d="M21.4,39c5.6-2,10.9-4.3,16.1-7.4c2-1.1,3.9-2.4,5.7-3.8c0.4-0.3-0.6-0.3-0.7-0.1c-1.7,1.4-3.6,2.5-5.6,3.6
					c-5,2.9-10.4,5.3-15.8,7.3C20.4,39,21,39.2,21.4,39L21.4,39z"/>
			</g>
		</g>
		<g>
			<g>
				<path class="st3" d="M21.4,42c5.6-2,10.9-4.3,16-7.4c2-1.1,4.1-2.4,5.9-3.8c0.1-0.1-0.7,0-0.8,0.1c-1.7,1.4-3.6,2.5-5.5,3.6
					c-5,2.9-10.4,5.3-15.8,7.3C20.5,42,21.1,42.1,21.4,42L21.4,42z"/>
			</g>
		</g>
		<g>
			<g>
				<path class="st3" d="M21.2,44.6c5.5-2,10.9-4.3,16-7.3c2-1.1,4.1-2.4,5.9-3.9c0.4-0.4-0.3-0.7-0.6-0.4c-1.7,1.4-3.6,2.5-5.5,3.6
					c-5,2.9-10.4,5.5-16,7.3C20.5,44.2,20.7,44.8,21.2,44.6L21.2,44.6z"/>
			</g>
		</g>
		<g>
			<g>
				<path class="st4" d="M21.1,48.4c5.6-2,10.9-4.3,16.1-7.4c2-1.1,3.9-2.4,5.7-3.8c0.4-0.4-0.3-0.7-0.6-0.4
					c-1.7,1.4-3.6,2.5-5.6,3.6c-5,2.9-10.4,5.3-15.8,7.3C20.4,48,20.5,48.6,21.1,48.4L21.1,48.4z"/>
			</g>
		</g>
		<g>
			<g>
				<path class="st4" d="M20.4,29.5c4.8,3.4,9.8,6.3,15.1,8.7c2.1,1,4.2,1.8,6.4,2.5c0.3,0.1,1.1-0.3,0.7-0.4
					c-2.1-0.7-4.2-1.5-6.2-2.4c-5.3-2.4-10.5-5.3-15.3-8.7C21.1,29,20.3,29.4,20.4,29.5L20.4,29.5z"/>
			</g>
		</g>
		<g>
			<g>
				<path class="st3" d="M21,31.5c4.9,3.4,9.9,6.4,15.3,8.8c2.1,0.8,4.2,1.8,6.3,2.4c0.3,0.1,1.1-0.4,0.6-0.6
					c-2.1-0.7-4.3-1.5-6.3-2.5c-5.3-2.4-10.4-5.3-15.1-8.7C21.4,30.9,20.5,31.2,21,31.5L21,31.5z"/>
			</g>
		</g>
		<g>
			<g>
				<path class="st4" d="M20.4,35.8c4.9,3.4,10.2,6.4,15.5,9c2,1,4.1,1.8,6,2.5c0.4,0.1,1.1-0.4,0.6-0.6c-2.1-0.7-4.2-1.5-6.2-2.5
					c-5.3-2.5-10.5-5.6-15.4-9C20.8,35.1,20,35.5,20.4,35.8L20.4,35.8z"/>
			</g>
		</g>
		<g>
			<g>
				<path class="st3" d="M20.8,27.7c0,0.1-0.1,0.3-0.1,0.3s0.1,0,0.3,0c0.3,0,0.6-0.1,0.7-0.1c0.6-0.1,1-0.3,1.5-0.6
					c1-0.4,2-0.8,2.9-1.3c2-0.8,3.8-1.8,5.7-2.9l5.6-3.1c1-0.6,1.8-1,2.8-1.5c0.4-0.3,1-0.6,1.4-0.8c0.3-0.1,0.4-0.3,0.6-0.4
					c0.1-0.1,0.4-0.4,0.1-0.6l0,0l0,0l0,0c0.1,0,0.3,0.1,0.3,0.4c0,0.1-0.1,0.3-0.1,0.4c-0.1,0.3-0.3,0.4-0.6,0.6
					c-0.4,0.4-0.8,0.7-1.3,1.1c-0.8,0.7-1.8,1.3-2.7,1.8c-1.8,1.1-3.8,2.1-5.7,2.9c-2,1-3.9,1.8-5.9,2.7c-1,0.4-2,0.8-2.9,1.1
					c-0.6,0.1-1,0.3-1.5,0.4c-0.3,0-0.6,0.1-0.8,0.1c-0.1,0-0.3,0-0.4-0.1C20.7,27.8,20.8,27.7,20.8,27.7
					C20.8,27.6,20.8,27.6,20.8,27.7C21,27.7,21,27.7,20.8,27.7L20.8,27.7L20.8,27.7z"/>
			</g>
			<g>
				<g>
					<path class="st3" d="M31.6,33.7c0,0.3,0,0.6,0.1,0.7c0,0.1,0,0.3,0,0.6v0.1l0,0v0.1l0,0l0,0l0,0l0,0l0,0c0,0,0,0,0.1,0l0,0
						c0,0,0,0,0.1,0l0,0H32l0,0h0.1l0,0c0,0,0,0,0.1,0l0,0c0,0,0,0,0.1,0l0,0c0,0,0,0,0.1,0l0,0l0,0l0,0l0,0c0,0,0,0,0-0.1V35
						c0-0.1-0.1-0.4-0.1-0.6s0-0.3,0-0.4l0,0c0,0,0,0-0.1,0h-0.1C31.9,33.7,31.9,33.7,31.6,33.7C31.7,33.7,31.7,33.7,31.6,33.7
						l-0.1,0.1l0,0c0,0,0,0,0,0.1c0,0.3,0.1,0.7,0.1,1c0,0.1,0,0.1,0,0.3c0,0,0,0.1,0.1,0.1c0,0,0,0,0.1,0H32c0.1,0,0.3,0,0.4-0.1
						c0,0,0,0,0.1,0s0.1-0.1,0.3-0.1l0,0c0-0.1,0-0.1,0-0.3c0-0.1,0-0.1,0-0.3c0-0.3,0-0.7-0.1-1v-0.1l0,0c0,0,0,0-0.1,0h-0.1h-0.1
						h-0.1c0,0-0.1,0-0.1,0.1C31.7,33.6,31.7,33.6,31.6,33.7C31.6,33.6,31.6,33.7,31.6,33.7L31.6,33.7z"/>
				</g>
				<path class="st3" d="M32.2,33.6c0,0.3,0.1,0.6,0.1,0.8c0,0.3,0,0.6,0,0.8v0.1l0,0c0,0-0.1,0-0.3,0c-0.1,0-0.1,0-0.1-0.1
					c-0.1-0.1-0.1-0.1-0.1-0.3c0-0.1,0-0.3-0.1-0.4c0-0.3,0-0.6,0-0.8c0,0,0-0.1,0.1-0.1c0,0,0.1,0,0.1,0.1c0.1,0.3,0.1,0.6,0.3,0.7
					c0,0.1,0,0.3,0.1,0.3v0.1l0,0h-0.1l0,0l0,0c0-0.1,0-0.4,0-0.7s0-0.6,0-0.7c0,0,0-0.1,0.1-0.1C32.2,33.4,32.2,33.4,32.2,33.6z"/>
			</g>
			<g>
				<g>
					<path class="st3" d="M21.2,50.7c-0.7,1,1.3,0.4,1.5,0.4c1.8-0.4,3.6-1.3,5.5-2.1c4.5-2,9-4.1,13-6.9C41.5,42,44,40.3,43,40
						c-0.3-0.1-1,0.3-0.8,0.3c0.7,0.3-1.1,1.5-1.3,1.7c-1.5,1.1-3.2,2-4.9,2.8c-3.9,2.1-7.8,4.1-11.9,5.6c-0.1,0-2.5,1-2,0.1
						C22.2,50.4,21.4,50.4,21.2,50.7L21.2,50.7z"/>
				</g>
			</g>
		</g>
		<g>
			<g>
				<g>
					<path class="st5" d="M41.8,24.5c0.8,1.4-4.3,0.8-4.9,0.7c-2.8-0.6-5.6-1.5-8-2.9c-2.1-1.1-3.9-2.5-5.7-4.1
						c-0.1-0.1-2.7-2.7-2.1-2.8c0.6-0.3-0.3-0.1-0.6-0.1c-1.3,0.6,1.1,2.7,1.5,3.1c2.4,2.1,5,3.9,8,5.3c2.9,1.4,6.3,2.4,9.7,2.2
						c0.6,0,3.9-0.3,3.1-1.5C42.7,24.1,41.8,24.3,41.8,24.5L41.8,24.5z"/>
				</g>
			</g>
			<g>
				<path class="st6" d="M42.4,25.2c1.1,1.5-4.9,2.1-10.9-0.3c-6-2.5-12-8.1-10.8-8.5"/>
				<g>
					<path class="st5" d="M42,25.3c0.7,1.1-4.5,0.8-4.9,0.7c-2.8-0.4-5.3-1.4-7.8-2.7c-2.1-1.1-4.1-2.5-5.9-4.1
						c-0.6-0.6-1.3-1.1-1.7-1.8c-0.1-0.1-0.3-0.4-0.4-0.7c-0.1-0.1,0-0.4-0.1-0.3c0.6-0.3,0-0.6-0.4-0.4c-1.4,0.7,1,2.7,1.5,3.2
						c2.2,2.1,4.9,3.9,7.8,5.2c3.1,1.4,6.4,2.4,9.8,2.2c0.7,0,4.1-0.3,3.1-1.8C42.7,24.8,41.7,25,42,25.3L42,25.3z"/>
				</g>
			</g>
			<g>
				<path class="st7" d="M42.4,26c1.1,1.5-5,2.2-10.9-0.1c-6-2.5-12-8-10.6-8.4"/>
				<g>
					<path class="st5" d="M42,26.2c0.8,1.4-4.2,1-4.9,1c-2.8-0.4-5.5-1.3-7.8-2.7c-2.1-1.1-4.1-2.4-5.7-3.9
						c-0.1-0.1-2.8-2.8-2.4-2.9c0.6-0.3-0.3-0.3-0.6-0.1c-1.3,0.6,1.3,2.7,1.7,3.1c2.4,2.1,5.2,3.9,8,5.3c2.9,1.3,6.2,2.1,9.4,2
						c0.7,0,4.1-0.4,3.2-1.7C42.7,25.6,41.8,26,42,26.2L42,26.2z"/>
				</g>
			</g>
			<g>
				<path class="st8" d="M42.4,26.9c1.1,1.5-5.2,2.4-11.1,0c-6-2.4-11.9-7.8-10.5-8.4"/>
				<g>
					<path class="st5" d="M42,27c0.8,1.4-3.9,1.1-4.5,1.1c-2.8-0.3-5.5-1.1-8-2.4c-2.2-1.1-4.2-2.5-6.2-4.2
						c-0.6-0.6-1.3-1.1-1.7-1.7c-0.1-0.3-0.4-0.4-0.6-0.7c0-0.1,0-0.4-0.1-0.4c0.6-0.3,0-0.4-0.3-0.3c-1.4,0.6,0.8,2.5,1.3,2.9
						c2.2,2.1,5,3.9,7.8,5.3c2.9,1.4,6.4,2.1,9.8,2c0.6,0,4.2-0.4,3.2-1.8C42.7,26.4,41.8,26.7,42,27L42,27z"/>
				</g>
			</g>
			<g>
				<path class="st9" d="M42.4,27.7c1.1,1.5-5.2,2.5-11.2,0.1s-11.9-7.7-10.5-8.3"/>
				<g>
					<path class="st5" d="M42,27.8c0.7,1.1-4.1,1.1-4.5,1.1c-2.8-0.1-5.6-1-8.1-2.2c-2.1-1.1-4.1-2.4-5.9-3.9
						c-0.3-0.1-2.8-2.8-2.5-2.9c0.6-0.3,0-0.6-0.4-0.4c-1.5,0.7,1,2.7,1.5,3.2c2.2,2.1,5,3.8,7.8,5c2.9,1.4,6.3,2.1,9.7,1.8
						c0.7,0,4.2-0.4,3.4-2C42.7,27.1,41.7,27.6,42,27.8L42,27.8z"/>
				</g>
			</g>
			<g>
				<path class="st10" d="M42.4,28.5c1.1,1.5-5.3,2.7-11.3,0.3s-11.8-7.7-10.4-8.1"/>
				<g>
					<path class="st5" d="M42,28.7c0.8,1.4-3.8,1.4-4.3,1.3c-2.9-0.1-5.7-1-8.4-2.4c-2.1-1.1-4.1-2.4-5.9-3.9
						c-0.1-0.1-2.8-2.7-2.2-2.9c0.6-0.3-0.3-0.1-0.6-0.1c-1.3,0.6,1.1,2.7,1.5,3.1c2.4,2.1,5.3,3.9,8.3,5.2c2.9,1.1,6.2,1.7,9.4,1.4
						c0.7-0.1,3.9-0.6,3.1-1.8C42.8,28.1,41.8,28.5,42,28.7L42,28.7z"/>
				</g>
			</g>
			<g>
				<path class="st11" d="M42.4,29.4c1.1,1.5-5.5,2.7-11.3,0.6c-6-2.2-11.6-7.6-10.2-8"/>
				<g>
					<path class="st5" d="M42,29.5c0.8,1.3-3.6,1.4-4.2,1.4c-2.8,0-5.6-0.8-8.3-2.1c-2.2-1.1-4.3-2.4-6.2-4.1
						c-0.6-0.6-1.3-1.1-1.7-1.7c-0.1-0.3-0.4-0.4-0.6-0.7c0-0.1,0-0.4-0.1-0.4c0.6-0.3,0-0.6-0.3-0.3c-1.4,0.7,0.7,2.5,1.3,2.9
						c2.2,2.1,5,3.9,8,5c2.9,1.3,6.3,1.8,9.5,1.5c0.7,0,4.3-0.6,3.5-2C42.7,29,41.8,29.2,42,29.5L42,29.5z"/>
				</g>
			</g>
			<g>
				<path class="st12" d="M42.4,30.2c1.1,1.5-5.6,2.8-11.5,0.7c-6-2.2-11.6-7.4-10.2-8"/>
				<g>
					<path class="st5" d="M42,30.4c0.7,1.3-3.9,1.4-4.5,1.4c-2.8,0-5.6-0.7-8.1-2c-2.2-1-4.2-2.4-6.2-3.9c-0.6-0.6-1.3-1.1-1.7-1.7
						c-0.1-0.3-0.3-0.4-0.6-0.7c-0.1-0.1,0-0.4-0.1-0.3c0.6-0.3,0-0.6-0.4-0.4c-1.5,0.7,1,2.7,1.4,3.2c2.4,2.1,5.2,3.8,8.1,5
						c2.9,1.1,6.3,1.7,9.5,1.3c0.7-0.1,4.1-0.7,3.2-2.1C42.7,29.7,41.8,30.1,42,30.4L42,30.4z"/>
				</g>
			</g>
			<g>
				<path class="st13" d="M42.5,30.9c1.1,1.5-5.6,2.9-11.6,0.8c-6-2.2-11.5-7.3-10.1-7.8"/>
				<g>
					<path class="st5" d="M42,31.1c0.8,1.4-3.8,1.5-4.3,1.5c-2.9,0-5.7-0.7-8.4-2c-2.1-1-4.2-2.2-5.9-3.8c-0.1-0.1-2.8-2.7-2.2-2.9
						c0.6-0.3-0.3-0.1-0.6-0.1c-1.4,0.6,1.1,2.7,1.5,3.1c2.4,2.1,5.3,3.9,8.4,5c2.9,1,6.2,1.4,9.1,1c0.7-0.1,4.1-0.7,3.2-2
						C42.8,30.6,42,31.1,42,31.1L42,31.1z"/>
				</g>
			</g>
			<g>
				<path class="st14" d="M42.5,31.8c1.1,1.5-5.7,3.1-11.6,1c-6-2.1-11.3-7.3-9.9-7.7"/>
				<g>
					<path class="st5" d="M42.1,32c0.7,1.1-3.8,1.4-4.2,1.4c-2.7,0.1-5.5-0.4-7.8-1.4c-2.2-1-4.3-2.2-6.3-3.8c-0.7-0.6-1.4-1.3-2-2
						c-0.1-0.1-0.7-1.1-0.7-1.1c0.6-0.3,0-0.7-0.4-0.6c-1.5,0.7,1,2.8,1.5,3.2c2.2,2.1,5,3.6,8,4.8c3.1,1.1,6.6,1.5,9.7,1
						c0.8-0.1,4.1-0.8,3.1-2.2C42.7,31.3,41.8,31.6,42.1,32L42.1,32z"/>
				</g>
			</g>
			<g>
				<path class="st15" d="M42.5,32.6c1.1,1.5-5.9,3.1-11.8,1.1c-6-2.1-11.3-7.1-9.9-7.6"/>
				<g>
					<path class="st5" d="M42,32.7c0.8,1.4-3.5,1.7-4.1,1.7c-2.8,0.1-5.6-0.3-8.1-1.4c-2.2-1-4.3-2.2-6.3-3.8
						c-0.7-0.6-1.3-1.1-1.8-1.8c-0.1-0.3-0.4-0.6-0.6-0.8c0-0.1,0-0.4-0.1-0.4c0.6-0.3,0-0.4-0.3-0.3c-1.4,0.7,0.8,2.7,1.4,3.1
						c2.4,2.1,5.2,3.8,8.1,4.8s6.3,1.4,9.4,0.8c0.7-0.1,4.2-0.8,3.4-2.1C42.8,32.3,42,32.6,42,32.7L42,32.7z"/>
				</g>
			</g>
			<g>
				<path class="st16" d="M42.5,33.4c1.1,1.5-5.9,3.2-11.9,1.3c-6-2.1-11.2-7-9.8-7.6"/>
				<g>
					<path class="st5" d="M42.1,33.7c0.7,1.1-3.6,1.5-4.2,1.5c-2.7,0.1-5.3-0.1-7.8-1.1c-2.2-0.8-4.5-2.1-6.3-3.6
						c-0.7-0.6-1.4-1.3-2.1-2c-0.1-0.1-0.7-1.1-0.7-1.1c0.6-0.3,0-0.7-0.4-0.6c-1.5,0.7,1,2.8,1.5,3.2c2.4,2.1,5.2,3.6,8.1,4.8
						c2.9,1,6.3,1.3,9.5,0.7c0.8-0.1,4.2-0.8,3.2-2.4C42.7,33,41.8,33.3,42.1,33.7L42.1,33.7z"/>
				</g>
			</g>
			<g>
				<path class="st17" d="M42.5,34.3c1.1,1.5-6,3.4-11.9,1.4c-6-2-11.2-6.9-9.8-7.4"/>
				<g>
					<path class="st5" d="M42.1,34.4c0.7,1.1-3.5,1.7-4.1,1.7c-2.8,0.3-5.6,0-8.1-1.1c-2.2-0.8-4.5-2.1-6.4-3.6
						c-0.1-0.1-2.9-2.8-2.5-2.9c0.6-0.3,0-0.6-0.4-0.4c-1.5,0.7,0.8,2.7,1.4,3.2c2.4,2.1,5.2,3.6,8.3,4.6c2.9,1,6.4,1.1,9.5,0.4
						c0.8-0.1,4.1-1,3.2-2.4C42.8,33.9,41.8,34.1,42.1,34.4L42.1,34.4z"/>
				</g>
			</g>
			<g>
				<path class="st18" d="M42.5,35.1c1.1,1.5-6.2,3.5-12,1.5c-6-2-11.1-6.9-9.7-7.3"/>
				<g>
					<path class="st5" d="M42.1,35.3c0.8,1.3-3.2,1.8-3.9,2c-2.8,0.3-5.7,0-8.4-1c-2.2-0.8-4.5-2.1-6.3-3.6
						c-0.7-0.6-1.3-1.1-1.8-1.7c-0.1-0.3-0.4-0.6-0.6-0.8c0-0.1,0-0.4-0.1-0.4c0.6-0.3,0-0.4-0.3-0.3c-1.5,0.7,0.8,2.5,1.4,3.1
						c2.4,2.1,5.2,3.6,8.3,4.6c2.9,0.8,6.3,1,9.4,0.3c0.7-0.1,4.2-1,3.4-2.2C42.8,34.7,42,35.1,42.1,35.3L42.1,35.3z"/>
				</g>
			</g>
			<g>
				<path class="st19" d="M42.5,36c1.1,1.5-6.3,3.6-12.2,1.7c-6-2-10.9-6.7-9.5-7.1"/>
				<g>
					<path class="st5" d="M42.1,36.1c0.7,1.1-3.5,1.8-3.9,1.8c-2.7,0.3-5.5,0.1-8-0.7c-2.4-0.8-4.6-2.1-6.4-3.5
						c-0.3-0.1-2.9-2.8-2.7-2.9c0.6-0.3,0-0.6-0.4-0.4c-1.5,0.7,0.8,2.7,1.4,3.1c2.4,2.1,5.3,3.6,8.3,4.6c3.1,0.8,6.3,1,9.4,0.3
						c0.8-0.1,4.2-1,3.2-2.5C42.8,35.5,42,35.8,42.1,36.1L42.1,36.1z"/>
				</g>
			</g>
			<g>
				<path class="st20" d="M42.5,36.8c1.1,1.5-6.3,3.6-12.3,2c-6-1.8-10.9-6.6-9.5-7.1"/>
				<g>
					<path class="st5" d="M42.1,36.9c0.6,1-3.4,1.7-3.9,1.8c-2.5,0.4-5.3,0.3-7.8-0.6c-2.4-0.7-4.6-2-6.6-3.5
						c-0.3-0.1-3.1-2.8-2.8-2.9c0.6-0.3,0-0.7-0.4-0.6c-1.5,0.7,0.8,2.7,1.4,3.2c2.4,2.1,5.5,3.8,8.5,4.6c2.9,0.8,6.3,0.8,9.2,0
						c0.8-0.3,4.1-1.1,3.2-2.7C42.8,36.2,41.8,36.5,42.1,36.9L42.1,36.9z"/>
				</g>
			</g>
			<g>
				<path class="st21" d="M42.5,37.6c1.1,1.5-6.4,3.8-12.3,2.1c-6-1.8-10.8-6.4-9.4-7"/>
				<g>
					<path class="st5" d="M42.1,37.8c0.6,1-3.4,1.8-3.9,1.8c-2.5,0.4-5.3,0.4-7.8-0.3c-2.4-0.7-4.6-1.8-6.6-3.4
						c-0.7-0.6-1.4-1.1-2.1-1.8C21.5,34,20.8,33,21,32.9c0.6-0.3,0-0.7-0.4-0.6c-1.5,0.7,1,2.8,1.5,3.4c2.4,2.1,5.5,3.6,8.5,4.5
						c2.9,0.7,6.2,0.7,9.1-0.1c0.8-0.3,4.2-1.1,3.2-2.7C42.8,37.1,42,37.4,42.1,37.8L42.1,37.8z"/>
				</g>
			</g>
			<g>
				<path class="st22" d="M42.5,38.5c1.1,1.5-6.6,3.9-12.5,2.2c-6-1.7-10.6-6.4-9.2-6.9"/>
				<g>
					<path class="st5" d="M42.2,38.6c0.6,1-3.4,1.8-3.8,2c-2.5,0.6-5.3,0.6-7.8-0.1c-2.4-0.7-4.8-1.8-6.7-3.4
						c-0.3-0.1-3.2-2.8-2.8-2.9c0.6-0.3,0-0.7-0.4-0.6c-1.5,0.7,0.8,2.8,1.4,3.2c2.4,2.1,5.5,3.6,8.5,4.3c2.9,0.7,6.3,0.6,9.1-0.3
						c0.8-0.3,4.1-1.3,3.2-2.7C42.8,37.9,42,38.2,42.2,38.6L42.2,38.6z"/>
				</g>
			</g>
			<g>
				<path class="st23" d="M42.7,39.3c1.1,1.5-6.7,4.1-12.6,2.4c-6-1.7-10.6-6.3-9.2-6.7"/>
				<g>
					<path class="st5" d="M42.1,39.5c0.7,1.1-2.8,2-3.4,2.1c-2.5,0.6-5.3,0.7-8,0c-2.5-0.7-5-2-7.1-3.5c-0.7-0.6-1.4-1.1-2-1.8
						c-0.1-0.3-0.4-0.6-0.6-0.8c0-0.1,0-0.4-0.1-0.4c0.6-0.3,0-0.6-0.3-0.3c-1.5,0.7,1,2.8,1.5,3.2c2.4,2,5.5,3.5,8.4,4.2
						c2.9,0.6,6,0.4,9-0.4c0.7-0.1,4.2-1.3,3.4-2.5C42.9,38.9,42,39.2,42.1,39.5L42.1,39.5z"/>
				</g>
			</g>
			<g>
				<path class="st24" d="M42.7,40.2c1.1,1.5-6.7,4.2-12.6,2.5S19.6,36.5,21,36"/>
				<g>
					<path class="st5" d="M42.1,40.2c0.7,1.1-2.8,2-3.5,2.1c-2.5,0.7-5.5,0.7-8,0.1c-2.5-0.6-5-1.8-7.1-3.5c-0.7-0.6-1.4-1.1-2-1.8
						c-0.1-0.3-0.4-0.6-0.6-0.8c0-0.1,0-0.4-0.1-0.4c0.6-0.3,0-0.6-0.3-0.3c-1.5,0.7,1,2.8,1.5,3.2c2.4,2,5.3,3.5,8.4,4.1
						c2.9,0.6,6.2,0.3,9-0.6c0.7-0.1,4.2-1.3,3.5-2.7C42.9,39.7,42,40,42.1,40.2L42.1,40.2z"/>
				</g>
			</g>
			<g>
				<path class="st25" d="M42.7,41c1.1,1.5-6.9,4.2-12.7,2.7c-5.9-1.5-10.4-6-9.1-6.6"/>
				<g>
					<path class="st5" d="M42.2,41c0.7,1.3-2.8,2.1-3.5,2.2c-2.7,0.7-5.5,0.8-8.1,0.1c-2.5-0.6-4.9-1.8-6.9-3.2
						c-0.7-0.6-1.4-1.1-2.1-1.8c-0.1-0.3-0.4-0.6-0.6-0.8c0-0.1,0-0.4-0.1-0.4c0.6-0.3,0-0.4-0.3-0.3c-1.5,0.7,0.8,2.7,1.5,3.2
						c2.4,2,5.5,3.5,8.5,3.9c2.9,0.6,6.2,0.3,9-0.7c0.7-0.1,4.2-1.3,3.4-2.7C42.9,40.6,42.1,40.9,42.2,41L42.2,41z"/>
				</g>
			</g>
			<g>
				<path class="st26" d="M42.7,41.8c1.1,1.5-7,4.3-12.9,2.8s-10.4-6-9-6.4"/>
				<g>
					<path class="st5" d="M42.2,41.8c0.7,1.1-2.8,2.1-3.4,2.2c-2.5,0.7-5.3,1-8,0.4c-2.5-0.6-4.9-1.7-7-3.2
						c-0.7-0.6-1.5-1.1-2.1-1.8c-0.1-0.1-0.8-1.1-0.7-1.3c0.6-0.3,0-0.4-0.3-0.3c-1.5,0.7,1,2.7,1.5,3.2c2.5,2,5.6,3.4,8.7,3.9
						c2.9,0.4,6,0.1,8.8-0.8c0.7-0.3,4.1-1.4,3.4-2.7C42.9,41.4,42.1,41.7,42.2,41.8L42.2,41.8z"/>
				</g>
			</g>
			<g>
				<path class="st27" d="M42.7,42.5c1.1,1.5-7,4.5-12.9,2.9s-10.2-5.9-8.8-6.3"/>
				<g>
					<path class="st5" d="M42.2,42.7c0.7,1.1-2.7,2.1-3.4,2.2c-2.5,0.7-5.2,1-7.7,0.6c-2.7-0.4-5.2-1.5-7.3-3.1
						c-0.7-0.6-1.5-1.1-2.1-1.8c-0.1-0.1-1-1.3-0.7-1.3c0.6-0.3,0-0.6-0.4-0.3c-1.5,0.7,1,2.8,1.5,3.2c2.5,2,5.6,3.4,8.7,3.8
						c2.9,0.4,6,0,8.8-1c0.7-0.3,4.2-1.4,3.4-2.7C42.9,42.1,42.1,42.5,42.2,42.7L42.2,42.7z"/>
				</g>
			</g>
			<g>
				<path class="st28" d="M42.7,43.4c1.1,1.5-7.1,4.6-13,3.1c-5.9-1.4-10.2-5.7-8.8-6.3"/>
				<g>
					<path class="st5" d="M42.2,43.7c0.6,0.8-3.1,2-3.5,2.1c-2.4,0.7-4.9,1-7.4,0.7s-5-1.4-7.3-2.8c-0.8-0.6-1.7-1.1-2.2-2
						c-0.1-0.1-0.8-1.1-0.7-1.1c0.6-0.3,0-0.8-0.4-0.6c-1.1,0.6,0,1.8,0.4,2.4c1.5,1.5,3.5,2.8,5.5,3.5c4.5,2,9.8,1.8,14.3-0.1
						c0.8-0.3,3.1-1.4,2.4-2.5C42.9,42.8,42,43.2,42.2,43.7L42.2,43.7z"/>
				</g>
			</g>
			<g>
				<path class="st29" d="M42.7,44.2c1.1,1.5-7.3,4.8-13.2,3.4c-5.9-1.4-10.1-5.6-8.7-6.2"/>
				<g>
					<path class="st5" d="M42.2,44.5c0.6,1-3.1,2.1-3.6,2.2c-2.4,0.7-4.9,1.1-7.3,0.8c-2.7-0.3-5.2-1.4-7.3-2.8
						c-0.8-0.6-1.5-1.1-2.2-1.8c0-0.1-0.8-1.1-0.7-1.1c0.6-0.3,0-0.7-0.4-0.6c-1.1,0.6-0.1,1.8,0.4,2.2c1.5,1.5,3.5,2.8,5.6,3.6
						c4.5,1.8,9.8,1.5,14.1-0.4c0.8-0.3,3.1-1.4,2.2-2.5C42.9,43.7,42,44.1,42.2,44.5L42.2,44.5z"/>
				</g>
			</g>
			<g>
				<path class="st30" d="M42.7,45.1c1.1,1.5-7.3,4.8-13.3,3.5c-5.9-1.4-9.9-5.6-8.5-6"/>
				<g>
					<path class="st5" d="M42.2,45.3c0.6,1-3.1,2.1-3.5,2.2c-2.4,0.7-4.8,1.1-7.3,1c-2.7-0.1-5.2-1.3-7.4-2.7
						c-0.8-0.6-1.7-1.1-2.4-2c-0.1-0.1-0.8-1.1-0.7-1.3c0.6-0.3,0-0.7-0.4-0.6c-1.1,0.6-0.1,1.7,0.4,2.2c1.5,1.7,3.6,2.8,5.7,3.5
						c4.5,1.7,9.7,1.3,14-0.7c0.7-0.3,2.9-1.4,2.2-2.5C42.9,44.6,42.1,44.9,42.2,45.3L42.2,45.3z"/>
				</g>
			</g>
			<g>
				<path class="st31" d="M42.7,45.9c1.1,1.5-7.4,4.9-13.3,3.6s-9.9-5.5-8.5-5.9"/>
				<g>
					<path class="st5" d="M42.2,46c0.7,1.1-2.5,2.2-3.1,2.4c-2.4,0.8-5.2,1.3-7.7,1.1c-2.7-0.3-5.3-1.3-7.6-2.8
						c-0.3-0.1-3.6-2.8-2.8-3.2c0.6-0.3-0.3-0.3-0.6-0.1c-1.1,0.4,0.1,1.7,0.6,2.2c1.7,1.5,3.8,2.7,5.9,3.5c4.3,1.5,9.2,0.8,13.4-1
						c0.6-0.3,3.2-1.4,2.5-2.5C43.1,45.6,42.2,45.9,42.2,46L42.2,46z"/>
				</g>
			</g>
			<g>
				<path class="st32" d="M42.8,46.7c1.1,1.5-7.6,5-13.4,3.8c-5.9-1.3-9.8-5.3-8.4-5.9"/>
				<g>
					<path class="st5" d="M42.4,46.9c0.6,1-2.9,2.2-3.5,2.4c-2.4,0.8-4.9,1.3-7.3,1.1c-2.7-0.1-5.3-1.1-7.6-2.5
						c-0.8-0.6-1.5-1.1-2.2-1.8c-0.1-0.1-1-1.1-0.7-1.3c0.6-0.3,0-0.7-0.4-0.4c-1.1,0.4-0.1,1.7,0.4,2.2c1.5,1.7,3.6,2.7,5.7,3.5
						c4.5,1.5,9.7,1,14-1c0.7-0.3,3.1-1.4,2.4-2.5C42.9,46.3,42.1,46.6,42.4,46.9L42.4,46.9z"/>
				</g>
			</g>
			<g>
				<path class="st33" d="M42.8,47.6c1.1,1.5-7.7,5.2-13.6,3.9s-9.7-5.2-8.4-5.7"/>
				<g>
					<path class="st5" d="M42.4,47.7c0.6,0.8-2.9,2.1-3.5,2.4c-2.2,0.8-4.6,1.3-7,1.3c-2.7,0-5.5-1-7.7-2.4
						c-0.8-0.6-1.7-1.1-2.2-1.8c-0.1-0.1-1-1.1-0.7-1.3c0.6-0.3,0-0.8-0.4-0.6c-1.1,0.6-0.1,1.8,0.4,2.4c1.5,1.7,3.8,2.8,6,3.5
						c4.5,1.4,9.7,0.7,13.9-1.3c0.7-0.4,2.9-1.4,2.2-2.7C42.9,47,42.1,47.3,42.4,47.7L42.4,47.7z"/>
				</g>
			</g>
			<g>
				<path class="st34" d="M42.8,48.4c1.1,1.5-7.7,5.3-13.6,4.1c-5.9-1.1-9.7-5.2-8.3-5.6"/>
				<g>
					<path class="st5" d="M42.2,48.6c0.7,1.1-2.5,2.2-3.1,2.5c-2.4,1-4.9,1.5-7.4,1.5c-2.7,0-5.3-0.8-7.6-2.1
						c-0.8-0.6-1.7-1.1-2.4-1.8c-0.1-0.1-1.1-1.3-0.8-1.4c0.6-0.3,0-0.6-0.3-0.3c-1.1,0.4-0.3,1.5,0.3,2.1c1.7,1.7,3.9,2.8,6.2,3.5
						c4.3,1.3,9.4,0.4,13.4-1.4c0.7-0.3,3.2-1.4,2.5-2.5C43.1,48,42.2,48.3,42.2,48.6L42.2,48.6z"/>
				</g>
			</g>
			<g>
				<path class="st35" d="M42.8,49.3c1.1,1.5-7.8,5.3-13.7,4.2s-9.5-5-8.1-5.5"/>
				<g>
					<path class="st5" d="M42.4,49.4c0.6,1-2.8,2.2-3.2,2.5c-2.4,1-4.9,1.5-7.3,1.5c-2.7,0-5.3-0.7-7.6-2.1
						c-0.8-0.6-1.7-1.1-2.4-1.8c-0.1-0.1-1.1-1.3-0.7-1.4c0.6-0.3,0-0.6-0.4-0.4c-1.1,0.6-0.1,1.7,0.4,2.2c1.5,1.5,3.8,2.7,5.9,3.2
						c4.5,1.4,9.7,0.4,13.9-1.7c0.7-0.3,2.9-1.4,2.2-2.5C43.1,48.8,42.1,49.1,42.4,49.4L42.4,49.4z"/>
				</g>
			</g>
			<path class="st36" d="M42.8,50.1c1.1,1.5-8,5.5-13.9,4.3c-5.9-1.1-9.5-4.9-8.1-5.3"/>
		</g>
		<g>
			<g>
				<g>
					<path class="st3" d="M42.7,14.3c0.1,0-1,1-1,1.1c-0.7,0.6-1.4,1.1-2.2,1.5c-2,1.3-4.1,2.5-6.2,3.5c-2.4,1.1-4.8,2.1-7.1,3.1
						c-1,0.4-2,0.8-2.9,1.1c-0.4,0.1-3.1,1.1-2.4-0.4c0.1-0.4-0.6-0.4-0.7-0.1c-0.4,0.8,0.1,1.5,1.1,1.5s2-0.6,2.9-0.8
						c3.2-1.1,6.3-2.5,9.2-3.9c2.8-1.3,5.5-2.9,7.8-4.8c0.3-0.3,2.9-2,1.7-2.5C42.8,13.6,42.2,14,42.7,14.3L42.7,14.3z"/>
				</g>
			</g>
			<g>
				<g>
					<path class="st37" d="M20.3,25.5c-0.3,0.7,0,1.4,0.7,1.5c1,0.1,2.1-0.4,3.1-0.7c3.2-1.1,6.3-2.5,9.4-3.9
						c2.7-1.3,5.3-2.8,7.7-4.5c0.3-0.1,3.1-2.1,2-2.7c-0.3-0.1-0.8,0.3-0.6,0.4c0.4,0.1-2.5,2.4-2.8,2.5c-2,1.3-4.1,2.5-6.2,3.5
						c-2.4,1.1-4.8,2.1-7.1,3.1c-1.1,0.4-2.1,0.8-3.2,1.3c-0.4,0.1-3.1,1.1-2.4-0.4C21.1,25.2,20.4,25.2,20.3,25.5L20.3,25.5z"/>
				</g>
			</g>
			<g>
				<g>
					<path class="st38" d="M20.3,26.6c-0.3,0.7,0,1.4,0.8,1.4c1,0.1,2.4-0.4,3.2-0.8c3.4-1.1,6.4-2.5,9.7-4.1
						c2.5-1.3,5.2-2.7,7.4-4.5c0.3-0.3,2.8-2,1.7-2.5c-0.3-0.1-0.7,0.3-0.4,0.4c0.1,0.1-2.8,2.5-2.9,2.7c-1.8,1.3-3.8,2.4-5.9,3.4
						c-2.4,1.1-4.8,2.1-7.1,3.1c-1.1,0.4-2.2,0.8-3.4,1.3c-0.4,0.1-3.1,1-2.4-0.4C21.1,26.3,20.4,26.3,20.3,26.6L20.3,26.6z"/>
				</g>
			</g>
			<g>
				<g>
					<path class="st39" d="M20.3,27.8c-1.1,2.2,3.2,0.8,3.9,0.7c3.1-1,6.2-2.4,9.1-3.8c2.7-1.3,5.3-2.7,7.7-4.3
						c0.3-0.3,3.1-2.2,2.1-2.7c-0.3-0.1-0.8,0.1-0.6,0.3c0.4,0.3-2.7,2.5-2.9,2.7c-2,1.3-3.9,2.4-6,3.4c-2.2,1-4.5,2.1-6.9,2.9
						c-1.1,0.4-2.2,0.8-3.4,1.3c-0.4,0.1-3.4,1.1-2.7-0.4C21.1,27.6,20.4,27.6,20.3,27.8L20.3,27.8z"/>
				</g>
			</g>
			<g>
				<g>
					<path class="st40" d="M20.3,29c-1,2.2,3.2,1,3.9,0.7c3.1-1,6-2.2,9-3.6c2.8-1.3,5.5-2.7,8-4.5c0.3-0.3,3.1-2.1,2-2.7
						c-0.3-0.1-0.7,0.3-0.3,0.4c0.3,0.1-3.1,2.7-3.4,2.9c-2,1.3-3.9,2.4-6.2,3.4c-2.1,1-4.2,2-6.4,2.8c-1.1,0.4-2.1,0.8-3.2,1.1
						c-0.3,0.1-3.4,1-2.7-0.3C21.1,28.8,20.4,28.8,20.3,29L20.3,29z"/>
				</g>
			</g>
			<g>
				<g>
					<path class="st41" d="M20.4,30.2c-1,2.1,3.1,0.8,3.8,0.7c2.9-1,5.7-2.1,8.5-3.4s5.5-2.5,8-4.3c0.3-0.3,3.4-2.4,2.4-2.9
						c-0.1-0.1-0.7,0.1-0.4,0.3c0.6,0.3-3.1,2.9-3.4,3.1C37.3,25,35.1,26,33,27s-4.2,1.8-6.4,2.7c-1,0.4-2.1,0.7-3.1,1.1
						c-0.4,0.1-3.1,0.8-2.5-0.6C21,30.1,20.4,30.1,20.4,30.2L20.4,30.2z"/>
				</g>
			</g>
			<g>
				<g>
					<path class="st42" d="M20.4,31.5c-1,2.1,3.2,1,3.8,0.7c2.8-0.8,5.5-2,8.1-3.1c2.8-1.3,5.5-2.5,8-4.2c0.3-0.3,3.8-2.5,2.8-3.2
						c-0.3-0.1-0.7,0.1-0.4,0.3c0.6,0.3-3.4,3.1-3.6,3.2c-2,1.3-4.2,2.2-6.3,3.2c-2.1,0.8-4.1,1.8-6.2,2.5c-1,0.4-2,0.7-2.9,1
						C23.4,32,23,32,22.6,32.2c-0.3,0-2,0.4-1.5-0.7C21,31.2,20.4,31.2,20.4,31.5L20.4,31.5z"/>
				</g>
			</g>
			<g>
				<g>
					<path class="st43" d="M20.4,32.7c-0.8,2,3.4,0.7,3.9,0.6c2.7-0.8,5.3-2,8-3.1c2.8-1.3,5.5-2.4,8-4.1c0.4-0.3,3.9-2.7,2.8-3.2
						c-0.1-0.1-0.7,0.1-0.4,0.3c0.7,0.4-3.6,3.4-4.1,3.6c-2.1,1.3-4.2,2.2-6.4,3.1c-2.1,0.8-4.1,1.7-6.2,2.5c-1,0.3-2,0.7-2.9,0.8
						c-0.6,0.1-2.7,0.7-2.1-0.7C21,32.5,20.4,32.6,20.4,32.7L20.4,32.7z"/>
				</g>
			</g>
			<g>
				<g>
					<path class="st44" d="M20.4,34c-0.7,2,3.4,0.7,3.9,0.6c2.5-0.7,5-1.8,7.6-2.8c2.7-1.1,5.3-2.2,7.7-3.8c0.4-0.3,4.5-2.9,3.5-3.5
						c-0.1-0.1-0.6,0.1-0.4,0.1c0.8,0.6-3.4,3.4-3.8,3.5c-2,1.3-4.2,2.1-6.3,3.1S28.2,33,26,33.9c-0.8,0.3-1.8,0.6-2.7,0.8
						c-0.6,0.1-2.9,0.7-2.4-0.7C21,33.7,20.4,33.9,20.4,34L20.4,34z"/>
				</g>
			</g>
			<g>
				<g>
					<path class="st45" d="M20.4,35.1c-0.7,2,3.1,1,3.9,0.7c2.7-0.7,5.2-1.8,7.7-2.9c2.5-1.1,5.3-2.2,7.7-3.8
						c0.4-0.3,4.5-2.9,3.4-3.6c-0.1-0.1-0.7,0.1-0.4,0.3c0.7,0.4-4.3,3.8-4.6,3.9c-1.8,1-3.8,1.8-5.7,2.7c-2.1,0.8-4.2,1.7-6.3,2.5
						c-0.8,0.3-1.7,0.6-2.5,0.7c-0.4,0.1-0.7,0.1-1.1,0.3c-0.4,0-1.7,0.1-1.4-0.7C21,34.8,20.5,34.8,20.4,35.1L20.4,35.1z"/>
				</g>
			</g>
			<g>
				<g>
					<path class="st46" d="M20.4,36.4c-0.7,1.8,3.4,0.7,3.9,0.6c2.5-0.7,5-1.7,7.4-2.8c2.4-1,4.9-2,7.1-3.4c0.4-0.3,5-3.2,4.1-3.9
						c-0.1-0.1-0.6,0.1-0.4,0.1c1,0.6-4.2,3.8-4.6,4.1c-1.8,1-3.8,1.8-5.7,2.7c-2,0.8-3.9,1.7-6,2.4c-0.8,0.3-1.8,0.6-2.7,0.8
						c-0.6,0.1-3.1,0.7-2.5-0.7C21,36.1,20.5,36.2,20.4,36.4L20.4,36.4z"/>
				</g>
			</g>
			<g>
				<g>
					<path class="st47" d="M20.4,37.6c-0.7,1.7,3.2,0.7,3.8,0.6c2.5-0.7,5-1.7,7.6-2.7c2.4-1,4.9-2,7.1-3.2c0.6-0.3,5.3-3.2,4.2-4.1
						c-0.1-0.1-0.6,0.1-0.4,0.1c1,0.7-4.6,4.1-5.2,4.3c-1.7,0.8-3.5,1.7-5.3,2.4c-2.1,0.8-4.2,1.7-6.3,2.4c-0.4,0.1-5.5,1.7-4.9,0
						C21,37.4,20.5,37.4,20.4,37.6L20.4,37.6z"/>
				</g>
			</g>
			<g>
				<g>
					<path class="st48" d="M20.5,38.8c-0.6,1.7,3.4,0.7,3.9,0.6c2.4-0.7,4.8-1.5,7.1-2.5s4.6-2,6.9-3.1c0.4-0.3,5.7-3.4,4.5-4.2
						c-0.1,0-0.4,0.1-0.4,0.1c1.1,0.8-4.5,4.1-4.9,4.2c-1.7,0.8-3.5,1.7-5.3,2.4c-2.1,0.8-4.1,1.7-6.3,2.4c-0.6,0.1-5.7,1.8-5.2,0
						C21,38.6,20.5,38.6,20.5,38.8L20.5,38.8z"/>
				</g>
			</g>
			<g>
				<g>
					<path class="st49" d="M20.5,40c-0.6,1.7,3.2,0.7,3.8,0.6c2.7-0.7,5-1.7,7.6-2.7c2.4-1,4.6-2,6.9-3.1c0.6-0.3,5.5-3.1,4.2-4.1
						c-0.1-0.1-0.4,0.1-0.3,0.1c0.7,0.6-2,2.4-2.2,2.7c-1,0.7-2,1.1-3.1,1.7c-1.8,0.8-3.6,1.7-5.5,2.4c-2.1,0.8-4.1,1.7-6.2,2.2
						c-0.4,0.1-5.5,1.5-4.9,0C21,39.7,20.5,39.9,20.5,40L20.5,40z"/>
				</g>
			</g>
			<g>
				<g>
					<path class="st50" d="M20.5,41.3c-0.6,1.5,3.1,0.7,3.6,0.6c2.5-0.6,4.9-1.5,7.3-2.5s4.6-2,7-2.9c0.7-0.3,5.9-3.1,4.5-4.2
						c-0.1,0-0.4,0.1-0.4,0.1c1.3,1-4.2,3.9-4.8,4.2c-1.8,0.8-3.6,1.7-5.6,2.4c-2.1,0.8-4.2,1.7-6.3,2.2c-0.4,0.1-5.6,1.7-5,0
						C21,41,20.5,41.1,20.5,41.3L20.5,41.3z"/>
				</g>
			</g>
			<g>
				<g>
					<path class="st51" d="M20.5,42.4c-0.6,1.5,3.2,0.7,3.8,0.6c2.5-0.6,4.9-1.5,7.3-2.5s4.8-2,7-3.1c0.7-0.3,5.6-2.9,4.2-4.1
						c-0.1-0.1-0.4,0-0.3,0.1c1.3,1-4.1,3.8-4.9,4.2c-1.8,0.8-3.8,1.7-5.6,2.4c-2.1,0.8-4.1,1.5-6.3,2.2c-0.4,0.1-5.3,1.5-4.8,0
						C21,42.3,20.5,42.3,20.5,42.4L20.5,42.4z"/>
				</g>
			</g>
			<g>
				<g>
					<path class="st52" d="M20.5,43.7c-0.4,1.1,2,1,2.5,0.8c1.7-0.3,3.2-0.8,4.9-1.4c3.9-1.3,7.7-2.8,11.3-4.6
						c0.7-0.3,4.9-2.7,3.6-3.6c-0.1,0-0.4,0-0.3,0.1c1,0.8-2.1,2.8-2.7,3.1c-0.7,0.3-1.4,0.7-2.1,1c-2,0.8-3.9,1.7-5.9,2.5
						c-2.1,0.8-4.2,1.5-6.3,2.2c-0.4,0.1-5.3,1.4-4.8,0C21,43.5,20.5,43.5,20.5,43.7L20.5,43.7z"/>
				</g>
			</g>
			<g>
				<g>
					<path class="st53" d="M20.5,44.8c-0.3,1.1,2.1,0.8,2.7,0.8c1.7-0.3,3.4-0.8,5-1.4c3.9-1.3,7.7-2.8,11.3-4.6
						c0.7-0.4,4.6-2.4,3.4-3.5c-0.1,0-0.4,0-0.3,0.1c1,0.8-1.8,2.7-2.4,2.9c-0.7,0.4-1.4,0.7-2.2,1.1c-2,0.8-3.9,1.7-5.9,2.5
						c-2.1,0.8-4.2,1.7-6.4,2.2c-0.3,0.1-5.3,1.4-4.8-0.1C21,44.6,20.5,44.8,20.5,44.8L20.5,44.8z"/>
				</g>
			</g>
			<g>
				<g>
					<path class="st54" d="M20.5,46c-0.3,1.1,2.1,0.8,2.7,0.7c1.7-0.3,3.4-0.8,4.9-1.4c3.9-1.4,7.8-2.9,11.6-4.8
						c0.7-0.3,1.4-0.7,2.1-1.1c0.4-0.4,1.7-1.5,1-2.2c0,0-0.3,0-0.3,0.1c1,1-1.5,2.5-2.1,2.8c-0.7,0.4-1.4,0.7-2.2,1
						c-2,0.8-4.1,1.7-6,2.5c-2.1,0.8-4.2,1.5-6.3,2.2c-0.4,0.1-5.3,1.4-4.9-0.1C21,45.9,20.5,45.9,20.5,46L20.5,46z"/>
				</g>
			</g>
			<g>
				<g>
					<path class="st55" d="M20.5,47.3c-0.3,1.1,2.1,0.8,2.7,0.8c1.7-0.3,3.5-0.8,5.2-1.4c3.9-1.4,7.8-2.9,11.6-4.8
						c0.8-0.4,4.1-2,2.8-3.2c0,0-0.3,0-0.3,0.1c1.5,1.4-3.4,3.4-4.2,3.8c-2,0.8-4.1,1.7-6.2,2.5s-4.3,1.7-6.4,2.2
						c-0.3,0.1-5.2,1.4-4.8-0.1C21,47.2,20.7,47.2,20.5,47.3L20.5,47.3z"/>
				</g>
			</g>
			<g>
				<g>
					<path class="st56" d="M20.7,48.4c-0.3,1,2.1,0.8,2.7,0.8c1.7-0.3,3.5-0.8,5.2-1.4c4.1-1.4,8-2.9,11.8-4.8
						c1-0.4,4.1-1.7,2.5-3.2c-0.1-0.1-0.3,0-0.3,0.1c1.5,1.5-3.2,3.2-4.2,3.6c-2.1,1-4.2,1.8-6.3,2.5c-2.1,0.8-4.3,1.5-6.4,2.2
						c-0.3,0.1-5,1.3-4.8-0.1C21,48.3,20.7,48.3,20.7,48.4L20.7,48.4z"/>
				</g>
			</g>
			<g>
				<g>
					<path class="st4" d="M20.7,49.7c-0.3,1,2.2,0.8,2.7,0.7c1.7-0.3,3.5-0.8,5-1.4c4.1-1.4,8.1-2.9,11.9-4.8c1-0.4,3.9-1.5,2.4-3.1
						c0,0-0.3,0-0.3,0.1c1.5,1.7-2.9,3.1-3.9,3.6c-2.1,1-4.3,1.8-6.4,2.7s-4.3,1.5-6.6,2.2C25.2,50,20.4,51.1,20.7,49.7
						C21,49.5,20.7,49.5,20.7,49.7L20.7,49.7z"/>
				</g>
			</g>
		</g>
		<g>
			<g>
				<path class="st3" d="M21,29.9c5.2-1.1,10.2-2.8,15-4.8c1.1-0.4,2.1-0.8,3.2-1.4c0.7-0.4,1.3-0.8,2-1.4s2.5-1.4,2.7-2.4
					c0-0.3-0.7-0.1-0.7,0.1c0,1-2.1,1.8-2.8,2.4c-1.7,1.3-3.6,2.1-5.6,2.9c-4.5,1.8-9,3.2-13.7,4.2C20.4,29.7,20.5,29.9,21,29.9
					L21,29.9z"/>
			</g>
		</g>
		<g>
			<g>
				<path class="st3" d="M20.8,42c4.6-0.8,9.2-2,13.7-3.5c2.1-0.7,4.3-1.5,6.4-2.7c0.8-0.4,2.7-1.5,2.7-2.7c0-0.1-0.7,0-0.7,0.1
					c0,0.7-1,1.3-1.4,1.7c-0.8,0.7-2,1.1-3.1,1.4c-1.8,0.8-3.8,1.5-5.7,2.1c-3.9,1.3-7.8,2.2-11.9,2.9C20.5,41.7,20.3,42.1,20.8,42
					L20.8,42z"/>
			</g>
		</g>
		<g>
			<g>
				<path class="st3" d="M20.5,49.1c5.5-1.1,10.9-2,16.2-3.8c0.6-0.1,7.6-2.5,6.3-3.6c-0.1-0.1-0.8,0.1-0.7,0.3
					c0.6,0.6-2.1,1.7-2.4,1.8c-1.7,0.7-3.5,1.4-5.3,1.8c-4.8,1.4-9.5,2.2-14.3,3.1C20.1,49,20.1,49.3,20.5,49.1L20.5,49.1z"/>
			</g>
		</g>
		<g>
			<g>
				<path class="st3" d="M20.5,51.8c4.5-0.7,9.1-1.3,13.4-2.1c2-0.4,3.9-1,5.7-1.8c1.1-0.6,3.1-1.3,3.5-2.7c0.1-0.3-0.7-0.3-0.7,0
					c-0.3,1-2,1.5-2.8,2c-0.8,0.4-1.5,0.7-2.4,1c-1.8,0.7-3.6,1-5.5,1.3c-3.8,0.6-7.6,1.1-11.2,1.8C20.3,51.2,20.1,51.8,20.5,51.8
					L20.5,51.8z"/>
			</g>
		</g>
		<g>
			<g>
				<path class="st3" d="M20.3,34.4c6.9,4.3,14,9.1,22.3,9.8c0.1,0,0.8-0.3,0.4-0.3c-8.3-0.7-15.3-5.5-22.1-9.8
					C20.8,34,20.1,34.3,20.3,34.4L20.3,34.4z"/>
			</g>
		</g>
		<g>
			<g>
				<path class="st3" d="M20.4,49c4.8-0.7,9.7-1.1,14.4-2.1c1.8-0.3,3.6-0.8,5.3-1.5c0.8-0.4,3.8-1.4,3.1-2.8
					c-0.1-0.1-0.8,0-0.7,0.1c1.1,2.4-8.7,4.1-10.1,4.2c-3.9,0.6-7.8,1.1-11.9,1.7C20.3,48.7,20,49.1,20.4,49L20.4,49z"/>
			</g>
		</g>
		<g>
			<g>
				<path class="st3" d="M20.1,38.3c4.6-0.3,9.2-1,13.7-2c2-0.4,3.9-0.8,5.9-1.8c1.4-0.7,2.8-1.5,3.8-2.8c0.1-0.3-0.6-0.3-0.7,0
					c-1,1.4-2.9,2.4-4.5,3.1c-1.8,0.8-3.9,1.1-5.9,1.5c-4.1,0.8-8.1,1.4-12.3,1.7C20,37.9,19.7,38.5,20.1,38.3L20.1,38.3z"/>
			</g>
		</g>
		<g>
			<g>
				<path class="st3" d="M20,32.5c4,0.5,8.4,1.1,12.4,0.5c2.5-0.4,4.9-1.5,7-2.8c1.3-0.8,4.1-2.4,3.9-4.2c0-0.4-0.7-0.3-0.7,0
					c0,0.8-0.8,1.7-1.4,2.1c-0.8,0.8-2,1.4-2.9,2.1c-2.1,1.3-4.5,2.2-7,2.4c-3.6,0.3-7.6-0.1-11.2-0.6C19.8,31.9,19.6,32.5,20,32.5
					L20,32.5z"/>
			</g>
		</g>
		<g>
			<g>
				<path class="st3" d="M21.1,20.3c-0.1-0.3-0.4-0.8-0.4-1.1c-0.1,0.1-0.4,0.1-0.7,0.1c0,0,0.1,1.5,0.1,1.7
					c0.1,0.6,0.1,1.1,0.4,1.7c0.4,1.3,0.8,2.5,1.5,3.6c1.4,2.5,3.5,4.8,5.9,6.3c2.8,1.8,6.2,3.1,9.5,3.9c1.7,0.4,3.6,0.8,5.5,1
					c0.1,0,0.8-0.3,0.4-0.3c-1.8,0-3.5-0.4-5.3-0.8c-3.4-0.8-6.7-2.1-9.7-4.1c-4.2-2.8-7.6-7.8-7.7-13.2l0,0l0,0
					c-0.1,0-0.6,0-0.7,0.1c0,0.3,0.3,0.8,0.4,1.1C20.5,20.6,21.2,20.4,21.1,20.3L21.1,20.3z"/>
			</g>
		</g>
		<g>
			<g>
				<path class="st3" d="M20.1,27.1c3.2,2.4,6.6,4.6,10.1,6.7c2.5,1.5,5.3,2.9,8.1,3.9c0.8,0.3,4.6,2,5.2,0.3c0-0.1-0.7,0-0.7,0.1
					c-0.3,1.1-6.6-1.8-7.1-2.1c-2.4-1.1-4.8-2.5-7-3.9c-2.7-1.7-5.3-3.4-7.8-5.3C20.7,26.7,20,27,20.1,27.1L20.1,27.1z"/>
			</g>
		</g>
		<g>
			<g>
				<path class="st3" d="M20.5,43.5c3.1,2.1,6.7,3.2,10.2,4.6c3.8,1.4,7.7,2.8,11.6,4.1c0.4,0.1,0.7-0.6,0.1-0.7
					c-3.8-1.3-7.6-2.5-11.2-3.9C27.8,46.3,24,45.2,21,43C20.5,42.5,20.1,43.2,20.5,43.5L20.5,43.5z"/>
			</g>
		</g>
		<g>
			<g>
				<path class="st3" d="M42.1,47.6c-4.6,0.8-9.5,1-14.3,0.8c-1.1,0-2.2-0.1-3.5-0.3c-0.6,0-1.1-0.1-1.5-0.3c-0.3,0-1-0.4-1.3-0.4
					c-0.4,0-0.4,0-0.6,0.4c-0.1,1,1.3,2.9,1.7,3.8c1.4,2.7,2.8,5.3,4.2,8.1c4.1,7.7,7.8,15.7,10.8,23.8c2.7,7.3,5.3,16,3.6,23.8
					c-1,4.9-4.9,8.1-6.4,12.7c-2.5,7.1-1.7,14.8,0,22.1c0.1,0.4,0.7,0.3,0.6-0.1c-1.5-6.7-2.5-14-0.3-20.7c1-3.1,2.7-5.6,4.5-8.1
					c0.8-1.1,1.4-2.4,1.8-3.8c2.1-6.7,0.3-14.6-1.7-21.1c-2.5-8.3-6-16.1-9.8-23.8c-2.5-5.2-5.6-10.2-8-15.4
					c-0.1-0.3-0.1-0.7-0.4-0.8c0,0,0-0.3-0.1-0.3c0,0-0.4,0-0.1,0.3c1.5,1,4.1,0.8,5.7,0.8c4.9,0.1,10.1,0,15-0.8
					C42.7,48.1,42.5,47.4,42.1,47.6L42.1,47.6z"/>
			</g>
		</g>
		<g>
			<g>
				<ellipse class="st57" cx="32" cy="13" rx="14.8" ry="6.9"/>
				<ellipse class="st1" cx="32.2" cy="11" rx="14.8" ry="7.4"/>
			</g>
			<g>
				<path class="st58" d="M33.4,10.9c0,0-0.3,0.7-1.4,0.7c-1,0-1.4-0.7-1.4-0.7V2.5h2.7L33.4,10.9L33.4,10.9z"/>
				<ellipse class="st59" cx="32" cy="2.4" rx="1.4" ry="0.6"/>
			</g>
		</g>
	</g>
	<path class="st60" d="M86.9,108.9"/>
	<path class="st61" d="M80.7,112"/>
	<path class="st60" d="M73.8,107.1"/>
</g>
<path class="st62" d="M141.7,139c0,0-94,47.1-98.2,51.4c-5.4,5.4-2.7,9.1-0.9,11c1.8,1.9,7.2,2.3,11.1-0.2c0,0,95-48.3,96.5-49.1
	c1.5-0.8,2.1-7.6-1.3-10.9C145.4,138,141.7,139,141.7,139z"/>
<polygon class="st63" points="5.2,151.7 88.4,110 94.2,112.9 11,154.6 "/>
<g>
	<ellipse class="st64" cx="47.1" cy="196.4" rx="7.2" ry="7.3"/>
	<g>
		<ellipse class="st64" cx="46.7" cy="197" rx="5.3" ry="5.3"/>
		<ellipse class="st65" cx="46.2" cy="197.2" rx="4.7" ry="4.7"/>
	</g>
</g>
<g>
	<path class="st66" d="M9,151.9c-0.6,0-1.2-0.3-1.5-0.9c-0.4-0.8-0.1-1.8,0.7-2.2l93.3-47.2c0.8-0.4,1.8-0.1,2.2,0.7
		c0.4,0.8,0.1,1.8-0.7,2.2L9.8,151.8C9.5,151.9,9.3,151.9,9,151.9z"/>
</g>
<path class="st62" d="M135.4,131.4l-84.3,42.3l-0.7,10.8c0,0,1.4,1.4,5.5-1.4c0,0,81-41.2,82.3-41.9s2-4.6,1.3-6.8
	C138.7,132.2,135.4,131.4,135.4,131.4z"/>
<path class="st65" d="M51.1,173.7l-0.6,11c0,0,5.1,1.8,5.2-4C55.9,175,51.1,173.7,51.1,173.7z"/>
<path class="st67" d="M6.4,126.6"/>
<g>
	<g>
		<path class="st68" d="M79.9,113.4c-0.2,0-0.4-0.2-0.4-0.4L79.3,90c0-0.2,0.2-0.4,0.4-0.4c0,0,0,0,0,0c0.2,0,0.4,0.2,0.4,0.4
			l0.1,22.9C80.3,113.2,80.1,113.4,79.9,113.4C79.9,113.4,79.9,113.4,79.9,113.4z"/>
	</g>
	<g>
		<path class="st68" d="M77.1,114.8c-0.2,0-0.4-0.2-0.4-0.4l-0.1-22.9c0-0.2,0.2-0.4,0.4-0.4c0,0,0,0,0,0c0.2,0,0.4,0.2,0.4,0.4
			l0.1,22.9C77.6,114.6,77.4,114.8,77.1,114.8C77.1,114.8,77.1,114.8,77.1,114.8z"/>
	</g>
	<g>
		<path class="st68" d="M74.4,116.2c-0.2,0-0.4-0.2-0.4-0.4l-0.1-23c0-0.2,0.2-0.4,0.4-0.4c0,0,0,0,0,0c0.2,0,0.4,0.2,0.4,0.4
			l0.1,23C74.8,116,74.6,116.2,74.4,116.2C74.4,116.2,74.4,116.2,74.4,116.2z"/>
	</g>
	<g>
		<path class="st68" d="M71.7,117.6c-0.2,0-0.4-0.2-0.4-0.4l-0.1-23c0-0.2,0.2-0.4,0.4-0.4c0,0,0,0,0,0c0.2,0,0.4,0.2,0.4,0.4
			l0.1,23C72.1,117.4,71.9,117.6,71.7,117.6C71.7,117.6,71.7,117.6,71.7,117.6z"/>
	</g>
	<g>
		<path class="st68" d="M69,119c-0.2,0-0.4-0.2-0.4-0.4l-0.1-23c0-0.2,0.2-0.4,0.4-0.4c0,0,0,0,0,0c0.2,0,0.4,0.2,0.4,0.4l0.1,23
			C69.4,118.8,69.2,119,69,119C69,119,69,119,69,119z"/>
	</g>
	<g>
		<path class="st68" d="M66.2,120.4c-0.2,0-0.4-0.2-0.4-0.4l-0.1-23.1c0-0.2,0.2-0.4,0.4-0.4c0,0,0,0,0,0c0.2,0,0.4,0.2,0.4,0.4
			l0.1,23.1C66.7,120.2,66.5,120.4,66.2,120.4C66.2,120.4,66.2,120.4,66.2,120.4z"/>
	</g>
	<g>
		<path class="st68" d="M63.5,121.8c-0.2,0-0.4-0.2-0.4-0.4l-0.1-23.1c0-0.2,0.2-0.4,0.4-0.4c0,0,0,0,0,0c0.2,0,0.4,0.2,0.4,0.4
			l0.1,23.1C63.9,121.6,63.7,121.8,63.5,121.8C63.5,121.8,63.5,121.8,63.5,121.8z"/>
	</g>
	<g>
		<path class="st68" d="M60.8,123.2c-0.2,0-0.4-0.2-0.4-0.4l-0.1-23.2c0-0.2,0.2-0.4,0.4-0.4c0,0,0,0,0,0c0.2,0,0.4,0.2,0.4,0.4
			l0.1,23.2C61.2,123,61,123.2,60.8,123.2C60.8,123.2,60.8,123.2,60.8,123.2z"/>
	</g>
	<g>
		<path class="st68" d="M58,124.6c-0.2,0-0.4-0.2-0.4-0.4l-0.1-23.2c0-0.2,0.2-0.4,0.4-0.4c0,0,0,0,0,0c0.2,0,0.4,0.2,0.4,0.4
			l0.1,23.2C58.5,124.4,58.3,124.6,58,124.6C58,124.6,58,124.6,58,124.6z"/>
	</g>
	<g>
		<path class="st68" d="M55.3,126c-0.2,0-0.4-0.2-0.4-0.4l-0.1-23.3c0-0.2,0.2-0.4,0.4-0.4c0,0,0,0,0,0c0.2,0,0.4,0.2,0.4,0.4
			l0.1,23.3C55.8,125.8,55.6,126,55.3,126C55.3,126,55.3,126,55.3,126z"/>
	</g>
	<g>
		<path class="st68" d="M52.6,127.4c-0.2,0-0.4-0.2-0.4-0.4L52,103.7c0-0.2,0.2-0.4,0.4-0.4c0,0,0,0,0,0c0.2,0,0.4,0.2,0.4,0.4
			l0.1,23.3C53,127.2,52.8,127.4,52.6,127.4C52.6,127.4,52.6,127.4,52.6,127.4z"/>
	</g>
	<g>
		<path class="st68" d="M49.9,128.8c-0.2,0-0.4-0.2-0.4-0.4L49.3,105c0-0.2,0.2-0.4,0.4-0.4c0,0,0,0,0,0c0.2,0,0.4,0.2,0.4,0.4
			l0.1,23.3C50.3,128.6,50.1,128.8,49.9,128.8C49.9,128.8,49.9,128.8,49.9,128.8z"/>
	</g>
	<g>
		<path class="st68" d="M47.1,130.2c-0.2,0-0.4-0.2-0.4-0.4l-0.1-23.4c0-0.2,0.2-0.4,0.4-0.4c0,0,0,0,0,0c0.2,0,0.4,0.2,0.4,0.4
			l0.1,23.4C47.6,130,47.4,130.2,47.1,130.2C47.1,130.2,47.1,130.2,47.1,130.2z"/>
	</g>
	<g>
		<path class="st68" d="M44.4,131.6c-0.2,0-0.4-0.2-0.4-0.4l-0.1-23.4c0-0.2,0.2-0.4,0.4-0.4c0,0,0,0,0,0c0.2,0,0.4,0.2,0.4,0.4
			l0.1,23.4C44.8,131.4,44.6,131.6,44.4,131.6C44.4,131.6,44.4,131.6,44.4,131.6z"/>
	</g>
	<g>
		<path class="st68" d="M41.7,133c-0.2,0-0.4-0.2-0.4-0.4l-0.1-23.5c0-0.2,0.2-0.4,0.4-0.4c0,0,0,0,0,0c0.2,0,0.4,0.2,0.4,0.4
			l0.1,23.5C42.1,132.8,41.9,133,41.7,133C41.7,133,41.7,133,41.7,133z"/>
	</g>
	<g>
		<path class="st68" d="M39,134.4c-0.2,0-0.4-0.2-0.4-0.4l-0.1-23.5c0-0.2,0.2-0.4,0.4-0.4c0,0,0,0,0,0c0.2,0,0.4,0.2,0.4,0.4
			l0.1,23.5C39.4,134.2,39.2,134.4,39,134.4C39,134.4,39,134.4,39,134.4z"/>
	</g>
	<g>
		<path class="st68" d="M36.2,135.8c-0.2,0-0.4-0.2-0.4-0.4l-0.1-23.5c0-0.2,0.2-0.4,0.4-0.4c0,0,0,0,0,0c0.2,0,0.4,0.2,0.4,0.4
			l0.1,23.5C36.7,135.6,36.5,135.8,36.2,135.8C36.2,135.8,36.2,135.8,36.2,135.8z"/>
	</g>
	<g>
		<path class="st68" d="M33.5,137.2c-0.2,0-0.4-0.2-0.4-0.4L33,113.2c0-0.2,0.2-0.4,0.4-0.4c0,0,0,0,0,0c0.2,0,0.4,0.2,0.4,0.4
			l0.1,23.6C33.9,137,33.7,137.2,33.5,137.2C33.5,137.2,33.5,137.2,33.5,137.2z"/>
	</g>
	<g>
		<path class="st68" d="M30.8,138.6c-0.2,0-0.4-0.2-0.4-0.4l-0.1-23.6c0-0.2,0.2-0.4,0.4-0.4c0,0,0,0,0,0c0.2,0,0.4,0.2,0.4,0.4
			l0.1,23.6C31.2,138.4,31,138.6,30.8,138.6C30.8,138.6,30.8,138.6,30.8,138.6z"/>
	</g>
	<g>
		<path class="st68" d="M28,140c-0.2,0-0.4-0.2-0.4-0.4l-0.1-23.7c0-0.2,0.2-0.4,0.4-0.4c0,0,0,0,0,0c0.2,0,0.4,0.2,0.4,0.4
			l0.1,23.7C28.5,139.8,28.3,140,28,140C28,140,28,140,28,140z"/>
	</g>
	<g>
		<path class="st68" d="M25.3,141.4c-0.2,0-0.4-0.2-0.4-0.4l-0.1-23.7c0-0.2,0.2-0.4,0.4-0.4c0,0,0,0,0,0c0.2,0,0.4,0.2,0.4,0.4
			l0.1,23.7C25.8,141.2,25.6,141.4,25.3,141.4C25.3,141.4,25.3,141.4,25.3,141.4z"/>
	</g>
	<g>
		<path class="st68" d="M22.6,142.8c-0.2,0-0.4-0.2-0.4-0.4L22,118.6c0-0.2,0.2-0.4,0.4-0.4c0,0,0,0,0,0c0.2,0,0.4,0.2,0.4,0.4
			l0.1,23.7C23,142.6,22.8,142.8,22.6,142.8C22.6,142.8,22.6,142.8,22.6,142.8z"/>
	</g>
	<g>
		<path class="st68" d="M19.9,144.2c-0.2,0-0.4-0.2-0.4-0.4L19.3,120c0-0.2,0.2-0.4,0.4-0.4c0,0,0,0,0,0c0.2,0,0.4,0.2,0.4,0.4
			l0.1,23.8C20.3,144,20.1,144.2,19.9,144.2C19.9,144.2,19.9,144.2,19.9,144.2z"/>
	</g>
</g>
<g>
	<path class="st66" d="M4.7,129c-0.6,0-1.2-0.3-1.5-0.9c-0.4-0.8-0.1-1.8,0.7-2.2l96-48c0.8-0.4,1.8-0.1,2.2,0.7
		c0.4,0.8,0.1,1.8-0.7,2.2l-96,48C5.2,129,5,129,4.7,129z"/>
</g>
<g>
	<g>
		<polygon class="st69" points="3.1,109.9 9.2,113.1 10.9,154.6 5.3,151.7 		"/>
		<g>
			<g>
				<path class="st66" d="M4.4,154c-0.6,0-1.2-0.3-1.5-0.9c-0.4-0.8-0.1-1.8,0.7-2.2l3.6-1.9c0.8-0.4,1.8-0.1,2.2,0.7
					c0.4,0.8,0.1,1.8-0.7,2.2l-3.6,1.9C4.9,153.9,4.7,154,4.4,154z"/>
			</g>
			<g>
				<path class="st66" d="M3.2,129.9c-0.6,0-1.2-0.3-1.5-0.9c-0.4-0.8-0.1-1.8,0.7-2.2l3.3-1.7c0.8-0.4,1.8-0.1,2.2,0.7
					c0.4,0.8,0.1,1.8-0.7,2.2l-3.3,1.7C3.7,129.8,3.4,129.9,3.2,129.9z"/>
			</g>
			<polygon class="st63" points="88.3,67.9 88.4,110.1 94,113.1 94,70.8 			"/>
			<polygon class="st70" points="3.3,109.9 88.5,67.8 94,70.7 9.2,113.1 			"/>
		</g>
	</g>
	<g>
		<path class="st66" d="M85.1,85.4l3.4-1.8c0.8-0.4,1.8-0.1,2.2,0.7c0.4,0.8,0.1,1.8-0.7,2.2l-3.4,1.8"/>
	</g>
	<g>
		<path class="st66" d="M87.1,109.1l2.4-1.3c0.8-0.4,1.8-0.1,2.2,0.7c0.4,0.8,0.1,1.8-0.7,2.2l-1.6,0.8"/>
	</g>
</g>
<path class="st67" d="M88.9,107.4"/>
<g>
	<g>
		<path class="st63" d="M35.8,168c0.5,1.1-1.2,3.5-2.4,4.3c-1.1,0.8-20.9,10.4-22.5,11.4c-1.6,1-5.6,1.9-6.6,2s-2.1,0.2-2.9-0.9
			c-0.8-1.1,2.5-3.8,3.7-4.8c1.1-1.1,24.1-12.2,25.2-12.3C31.4,167.6,35.3,166.9,35.8,168z"/>
		<path class="st63" d="M1.4,184.9c0,0,1.2-0.2,3.4-0.9c2.2-0.8,9.3-4.6,9.3-4.6l19.4-9.7l2.3-1.6"/>
		<ellipse class="st71" cx="29.5" cy="173" rx="0.5" ry="0.5"/>
		<path class="st63" d="M9.8,178.1c-0.3,0.1-0.9,1,0.5,1.4s2.7-0.4,2.7-0.4l16.1-7.8c0,0,0.8-0.6,0.1-1.4c-0.7-0.7-2.2-0.1-2.2-0.1
			S10.1,177.9,9.8,178.1z"/>
		<path class="st65" d="M15,178.1c0,0,0.4-1.1-0.7-1.1s-4.5,1.5-4.5,1.8s1.1,1.1,2.2,0.8C13.2,179.1,15,178.1,15,178.1z"/>
		<path class="st65" d="M9.6,179.1c-0.1-0.3,0.3-0.9,1.2-0.6s1.1,0.8,0.8,1.1S9.7,179.4,9.6,179.1z"/>
	</g>
	<g>
		<g>
			<path class="st72" d="M29.8,173.3c1.6-0.7,3.1-1.4,4.7-2.1c4.5-1.9,8.9-3.8,13.3-5.8c0,0-0.4-0.5-0.5-0.4
				c-4.4,2-8.8,3.9-13.3,5.8c-1.6,0.7-3.2,1.3-4.7,2.1C29.3,172.9,29.6,173.4,29.8,173.3L29.8,173.3z"/>
		</g>
	</g>
	<g>
		<path class="st73" d="M27.6,171.8c-0.1-0.1,0.5-1.8-1.3-1"/>
		<path class="st74" d="M27.3,171.9c-0.1-0.1,0.5-1.8-1.3-1"/>
		<path class="st74" d="M27.1,172.1c-0.1-0.2,0.4-1.8-1.3-1"/>
		<path class="st74" d="M26.8,172.2c-0.1-0.2,0.4-1.8-1.3-1"/>
		<path class="st74" d="M26.5,172.3c-0.1-0.2,0.4-1.8-1.4-1"/>
		<path class="st74" d="M26.3,172.5c-0.1-0.2,0.3-1.8-1.4-1"/>
		<path class="st74" d="M26,172.6c-0.1-0.3,0.3-1.8-1.4-1"/>
		<path class="st74" d="M25.8,172.7c-0.1-0.3,0.3-1.8-1.4-1"/>
		<path class="st74" d="M25.5,172.8c-0.1-0.3,0.2-1.8-1.4-1"/>
		<path class="st74" d="M25.2,173c-0.1-0.3,0.2-1.8-1.4-1"/>
		<path class="st74" d="M25,173.1c-0.1-0.4,0.2-1.7-1.4-1"/>
		<path class="st74" d="M24.7,173.2c-0.1-0.4,0.1-1.7-1.4-1"/>
		<path class="st74" d="M24.5,173.3c-0.1-0.4,0.1-1.7-1.5-1"/>
		<path class="st74" d="M24.2,173.5c-0.1-0.4,0.1-1.7-1.5-1"/>
		<path class="st74" d="M23.9,173.6c-0.1-0.5,0-1.7-1.5-1"/>
		<path class="st74" d="M23.7,173.7c-0.1-0.5,0-1.7-1.5-1"/>
		<path class="st74" d="M23.4,173.8c-0.1-0.5,0-1.7-1.5-1"/>
		<path class="st74" d="M23.1,174c-0.1-0.5-0.1-1.7-1.5-1"/>
		<path class="st74" d="M22.9,174.1c-0.1-0.5-0.1-1.7-1.5-1"/>
		<path class="st74" d="M22.6,174.2c-0.1-0.6-0.1-1.7-1.5-1"/>
		<path class="st74" d="M22.4,174.4c-0.1-0.6-0.2-1.7-1.6-0.9"/>
		<path class="st74" d="M22.1,174.5c-0.1-0.6-0.2-1.7-1.6-0.9"/>
		<path class="st74" d="M21.8,174.6c-0.1-0.6-0.2-1.7-1.6-0.9"/>
		<path class="st74" d="M21.6,174.7c-0.1-0.7-0.3-1.7-1.6-0.9"/>
		<path class="st74" d="M21.3,174.9c-0.1-0.7-0.3-1.7-1.6-0.9"/>
		<path class="st74" d="M21.1,175c-0.1-0.7-0.3-1.6-1.6-0.9"/>
		<path class="st74" d="M20.8,175.1c-0.1-0.7-0.4-1.6-1.6-0.9"/>
		<path class="st74" d="M20.5,175.2c-0.1-0.8-0.4-1.6-1.6-0.9"/>
		<path class="st74" d="M20.3,175.4c-0.1-0.8-0.4-1.6-1.7-0.9"/>
		<path class="st74" d="M20,175.5c0-0.8-0.5-1.6-1.7-0.9"/>
		<path class="st74" d="M19.8,175.6c0-0.8-0.5-1.6-1.7-0.9"/>
		<path class="st74" d="M19.5,175.8c0-0.9-0.5-1.6-1.7-0.9"/>
		<path class="st74" d="M19.2,175.9c0-0.9-0.6-1.6-1.7-0.9"/>
		<path class="st74" d="M19,176c0-0.9-0.6-1.6-1.7-0.9"/>
		<path class="st74" d="M18.7,176.1c0-0.9-0.6-1.6-1.7-0.9"/>
		<path class="st74" d="M18.4,176.3c0-0.9-0.7-1.6-1.7-0.9"/>
		<path class="st74" d="M18.2,176.4c0-1-0.7-1.6-1.8-0.9"/>
		<path class="st74" d="M17.9,176.5c0-1-0.7-1.6-1.8-0.9"/>
		<path class="st74" d="M17.7,176.6c0-1-0.8-1.6-1.8-0.9"/>
		<path class="st74" d="M17.4,176.8c0-1-0.8-1.6-1.8-0.9"/>
		<path class="st74" d="M17.1,176.9c0-1.1-0.8-1.6-1.8-0.9"/>
		<path class="st74" d="M16.9,177c0-1.1-0.9-1.5-1.8-0.8"/>
		<path class="st74" d="M16.6,177.2c0-1.1-0.9-1.5-1.8-0.8"/>
		<path class="st74" d="M16.4,177.3c0-1.1-0.9-1.5-1.8-0.8"/>
		<path class="st74" d="M16.1,177.4c0-1.2-1-1.5-1.9-0.8"/>
		<path class="st74" d="M15.8,177.5c0-1.2-1-1.5-1.9-0.8"/>
		<path class="st74" d="M15.6,177.7c0-1.2-1-1.5-1.9-0.8"/>
		<path class="st74" d="M15.3,177.8c0-1.2-1.1-1.5-1.9-0.8"/>
		<path class="st74" d="M15,177.9c0-1.3-1.1-1.5-1.9-0.8"/>
		<path class="st74" d="M14.8,178c0-1.3-1.1-1.5-1.9-0.8"/>
		<path class="st74" d="M14.5,178.2c0-1.3-1.2-1.5-1.9-0.8"/>
		<path class="st74" d="M14.3,178.3c0-1.3-1.2-1.5-1.9-0.8"/>
	</g>
</g>
<g>
	<g>
		<g>
			<path class="st3" d="M19.9,144.4c6.2,4.6,12.3,9.3,18.4,14c2.7,2,5.3,4.1,8,6.2c1.4,1.1,3.3,1.3,5,1.6c2.5,0.4,5,0.6,7.6,0.8
				c2.4,0.2,4.8,0.4,6.9,1.7c1.8,1.1,3.4,3.2,3.7,5.3c0.2,1,0,2.4-0.9,3c-0.6,0.4,0.3,0.6,0.6,0.4c1.9-1.3,1.5-4,0.5-5.7
				c-1.7-3.1-4.4-4.4-7.7-5.1c-1.6-0.3-3.3-0.3-5-0.4c-2.7-0.2-5.4-0.4-8-1.2c-1.3-0.4-2.1-1.1-3.1-1.9c-1.5-1.2-3-2.3-4.5-3.5
				c-4.2-3.2-8.4-6.4-12.6-9.6c-2.7-2.1-5.5-4.1-8.2-6.2C20.4,143.6,19.5,144.1,19.9,144.4L19.9,144.4z"/>
		</g>
	</g>
	<g>
		<g>
			<path class="st3" d="M25.3,141.6c2.3,1.9,4.7,3.6,7.1,5.3c4.1,3,8.2,6,12.3,9c2.6,1.9,5.2,3.9,7.8,5.8c1.4,1.1,3.5,1.3,5.2,1.6
				c2.4,0.4,4.8,0.7,7.2,0.9c2.4,0.2,4.9,0.6,6.9,2.1c1.8,1.4,5.1,6,2.2,7.9c-0.6,0.4,0.3,0.8,0.7,0.5c1.8-1.2,1.6-3.6,0.8-5.3
				c-1.4-3-3.9-4.6-7-5.3c-4.3-1-8.8-0.8-13.1-1.9c-1.3-0.3-2.1-0.9-3.1-1.7c-1.4-1.1-2.9-2.2-4.4-3.3c-4.2-3.1-8.4-6.2-12.7-9.3
				c-3-2.2-6.2-4.3-9.1-6.8C25.7,140.7,24.9,141.2,25.3,141.6L25.3,141.6z"/>
		</g>
	</g>
	<g>
		<g>
			<path class="st3" d="M30.7,138.6c2.6,2.2,5.4,4,8.1,6c4.1,3,8.3,5.9,12.5,8.9c2.5,1.8,4.9,3.6,7.4,5.4c1.5,1.1,3.6,1.3,5.4,1.6
				c2.3,0.4,4.5,0.7,6.8,1c2.5,0.3,5.1,0.8,7,2.6c1.7,1.5,4.4,5.9,1.6,7.7c-0.4,0.3,0.6,0.2,0.8,0.1c1.8-1.1,1.6-3.5,0.8-5.1
				c-1.4-3-3.9-4.5-7.1-5.3c-4.1-0.9-8.4-1-12.5-2.1c-1.2-0.3-2-0.9-3-1.6c-1.4-1-2.8-2.1-4.3-3.1c-4.2-3-8.4-6-12.6-8.9
				c-3.3-2.4-6.9-4.7-10-7.3C31.4,138.1,30.4,138.5,30.7,138.6L30.7,138.6z"/>
		</g>
	</g>
	<g>
		<g>
			<path class="st3" d="M36.1,135.8c2.8,2.4,5.9,4.4,8.9,6.4c4.2,2.9,8.4,5.8,12.7,8.7c2.4,1.6,4.7,3.4,7.1,5c1.4,1,3.5,1.2,5.1,1.6
				c2.1,0.4,4.3,0.8,6.5,1.1c2.5,0.4,5.1,0.9,7,2.6c1.6,1.5,4.4,5.9,1.6,7.6c-0.6,0.4,0.3,0.4,0.6,0.2c1.5-0.9,1.8-2.8,1.2-4.4
				c-1.1-3-3.6-5-6.6-5.8c-4.1-1.1-8.3-1.3-12.4-2.4c-2.7-0.7-4.9-2.8-7.1-4.4c-4.2-2.9-8.5-5.8-12.7-8.7c-3.7-2.6-7.6-5-11-7.9
				C36.8,135.2,35.8,135.6,36.1,135.8L36.1,135.8z"/>
		</g>
	</g>
	<g>
		<g>
			<path class="st3" d="M41.6,133c3.1,2.6,6.5,4.8,9.8,7.1c4.2,2.9,8.5,5.7,12.7,8.5c2.3,1.5,4.6,3.1,6.9,4.6c1.5,1,3.5,1.3,5.2,1.6
				c2,0.5,3.9,0.9,5.9,1.2c2.5,0.5,5.1,0.9,7,2.7c1.5,1.5,4.1,5.6,1.3,7.2c-0.6,0.4,0.3,0.7,0.7,0.4c1.5-0.9,1.8-2.8,1.3-4.3
				c-0.9-2.9-3.3-5-6.2-5.9c-3.9-1.2-8.1-1.6-12.1-2.7c-2.6-0.7-4.6-2.5-6.9-4c-4.3-2.8-8.5-5.6-12.8-8.5c-4.1-2.7-8.3-5.4-12-8.6
				C42.1,132.2,41.2,132.7,41.6,133L41.6,133z"/>
		</g>
	</g>
	<g>
		<g>
			<path class="st3" d="M46.9,130.1c3.3,2.8,7.1,5.3,10.7,7.7c4.3,2.8,8.6,5.6,13,8.3c2.2,1.4,4.3,2.9,6.5,4.2
				c1.6,0.9,3.6,1.3,5.4,1.7c1.8,0.5,3.5,0.9,5.3,1.3c2.6,0.6,5.2,1.1,7,3.1c1.5,1.6,3.6,5.5,0.9,7.1c-0.4,0.3,0.6,0.2,0.8,0
				c1.4-0.8,1.7-2.6,1.3-4.1c-0.9-2.9-3.3-4.9-6.1-5.8c-3.8-1.2-7.7-1.7-11.5-2.9c-2.5-0.8-4.5-2.4-6.7-3.7
				c-4.2-2.7-8.5-5.3-12.7-8.1c-4.4-2.9-9-5.7-13-9.2C47.7,129.6,46.8,130,46.9,130.1L46.9,130.1z"/>
		</g>
	</g>
	<g>
		<g>
			<path class="st3" d="M52.4,127.4c3.6,3.1,7.6,5.7,11.6,8.2c4.2,2.7,8.6,5.4,12.9,8c2.1,1.3,4.2,2.7,6.4,3.9
				c1.4,0.8,3.3,1.2,4.8,1.7c1.7,0.5,3.5,1,5.2,1.5c2.5,0.7,5,1,6.9,3c1.2,1.3,2.4,3.1,2.2,4.9c-0.1,0.6-0.3,1.1-0.7,1.6
				c-0.1,0.1-0.5,0.5-0.4,0.4c-0.6,0.3-0.1,0.8,0.4,0.5c1.3-0.7,1.9-2.1,1.7-3.6c-0.4-2.8-2.7-5.3-5.2-6.3c-1.7-0.7-3.5-0.9-5.3-1.4
				c-2.1-0.6-4.2-1.2-6.3-1.9c-2.4-0.8-4.4-2.1-6.5-3.4c-4.3-2.6-8.6-5.2-12.8-7.8c-4.8-3.1-9.8-6.1-14.1-9.8
				C52.9,126.5,52,127,52.4,127.4L52.4,127.4z"/>
		</g>
	</g>
	<g>
		<g>
			<path class="st3" d="M57.8,124.4C65.5,131,74.5,136,83.3,141c2.1,1.2,4.1,2.4,6.2,3.6c1.5,0.8,3.2,1.3,4.8,1.8
				c1.6,0.5,3.2,1.1,4.8,1.6c2.7,0.7,5.2,1,7.1,3.3c1.1,1.3,2.2,3.1,1.8,4.8c-0.1,0.5-0.3,1-0.7,1.3c-0.1,0.1-0.5,0.4-0.4,0.4
				c-0.6,0.3-0.1,0.8,0.4,0.5c4.3-2.4-0.1-8.2-3-9.6c-1.7-0.8-3.6-1-5.3-1.6c-2-0.6-3.9-1.3-5.9-2c-2.3-0.8-4.2-2-6.3-3.2
				c-4.2-2.4-8.5-4.9-12.7-7.4c-5.3-3.2-10.6-6.6-15.4-10.6C58.4,123.8,57.4,124.2,57.8,124.4L57.8,124.4z"/>
		</g>
	</g>
	<g>
		<g>
			<path class="st3" d="M63.2,121.6c8,6.8,17.5,12,26.7,17c4.8,2.6,9.5,5.1,14.7,6.7c1.2,0.4,2.5,0.5,3.6,0.9
				c1.5,0.6,2.7,1.5,3.6,2.8c1.2,1.6,2.7,4.9,0.3,6.2c-0.6,0.3,0.3,0.5,0.6,0.3c4.2-2.3-0.2-8-2.9-9.4c-1.7-0.9-3.6-1-5.3-1.6
				c-1.9-0.7-3.7-1.4-5.5-2.1c-2.1-0.8-3.9-1.9-5.9-2.9c-4.3-2.3-8.5-4.6-12.7-7.1c-5.7-3.4-11.3-6.9-16.4-11.2
				C63.9,121,62.9,121.4,63.2,121.6L63.2,121.6z"/>
		</g>
	</g>
	<g>
		<g>
			<path class="st3" d="M68.6,118.8c8.3,7,18,12.4,27.6,17.3c1.8,0.9,3.7,1.8,5.5,2.8c1.5,0.8,3.1,1.4,4.6,2.1
				c1.3,0.6,2.5,1.2,3.9,1.7c1.1,0.4,2.3,0.4,3.4,0.8c1.5,0.6,2.8,1.5,3.8,2.8c0.9,1.2,1.9,2.9,1.5,4.5c-0.2,0.6-0.8,1.4-1.1,1.6
				c-0.6,0.3-0.1,0.7,0.4,0.5c4.1-2.2,0.5-7.6-2.2-9.2c-1.7-1-3.8-1.1-5.5-1.8c-1.7-0.7-3.4-1.5-5.1-2.3c-6.3-2.8-12.4-6.1-18.4-9.5
				c-6-3.5-12-7.2-17.3-11.7C69.3,118.1,68.3,118.5,68.6,118.8L68.6,118.8z"/>
		</g>
	</g>
	<g>
		<g>
			<path class="st3" d="M74,115.9c8.5,7.2,18.4,12.7,28.3,17.5c1.7,0.8,3.8,1.7,5.4,2.5c1.5,0.8,2.9,1.5,4.4,2.3
				c1.1,0.6,2.3,1.3,3.5,1.7c1.3,0.4,2.6,0.5,3.9,1c1.5,0.6,2.7,1.7,3.6,3c1.1,1.6,2.3,4.7,0,5.9c-0.6,0.3,0.3,0.4,0.6,0.2
				c4.2-2.1,0.2-7.7-2.5-9.2c-1.7-0.9-3.7-0.9-5.4-1.7c-1.7-0.8-3.4-1.7-5-2.5c-5.9-3-12-5.7-17.8-9c-6.3-3.5-12.4-7.4-17.9-12.1
				C74.7,115.3,73.8,115.7,74,115.9L74,115.9z"/>
		</g>
	</g>
	<g>
		<g>
			<path class="st3" d="M79.5,113c8.7,7.4,18.7,13.1,29.1,17.7c1.7,0.8,3.5,1.4,5.2,2.2c1.4,0.7,2.7,1.6,4,2.3
				c1.1,0.6,2.2,1.5,3.4,1.9c1.3,0.5,2.7,0.5,3.9,1c1.5,0.6,2.7,1.7,3.6,3c1.1,1.6,2.3,4.7-0.1,5.9c-0.6,0.3,0.3,0.4,0.6,0.3
				c4.2-2.1,0.2-7.7-2.5-9.2c-1.7-0.9-3.7-0.9-5.4-1.8c-1.6-0.9-3.2-1.8-4.8-2.8c-1.6-0.9-3.1-1.6-4.9-2.3c-4.3-1.8-8.5-3.8-12.5-6
				c-6.6-3.6-13-7.7-18.7-12.5C80.2,112.5,79.2,112.8,79.5,113L79.5,113z"/>
		</g>
	</g>
</g>
<g>
	<ellipse class="st75" cx="45.8" cy="197.4" rx="1.2" ry="1.2"/>
	<g>
		<path class="st76" d="M40,201.3c-0.4,0-0.7-0.2-0.8-0.6c-0.2-0.5,0-1.1,0.5-1.3l5.5-2.7c0.5-0.2,1.1,0,1.3,0.5
			c0.2,0.5,0,1.1-0.5,1.3l-5.5,2.7C40.4,201.3,40.2,201.3,40,201.3z"/>
	</g>
</g>
<g>
	<g>
		<g>
			<path class="st77" d="M72.8,175.9c2.2-3.9-1.3-7.7-4.8-9.3c-2-0.9-4.1-1.5-6.2-1.8c-3.2-0.4-6.4-0.7-9.5-1.4
				c-0.7-0.2-0.9-0.1-1.3-0.6c-0.4-0.5-0.7-1-1-1.5c-6-9.9-11.1-20.4-17.5-30.2c-1.6-2.5-3.3-5-5.3-7.2c-1.2-1.4-2.6-2.9-4.4-3.5
				c-0.4-0.1-1.2,0.4-0.6,0.6c1.6,0.5,2.8,2,3.9,3.1c1.7,1.9,3.1,3.9,4.5,6c3.6,5.3,6.7,10.8,9.9,16.3c2.6,4.6,5.1,9.3,7.8,13.9
				c0.6,1,1.1,2.3,2,3.1c0.5,0.4,1.2,0.5,1.8,0.6c1.6,0.3,3.3,0.5,4.9,0.8c2.5,0.3,4.7,0.5,7,1.1c1.9,0.5,4,1.2,5.6,2.5
				c2.2,1.7,3.7,4.7,2.2,7.3C71.6,176.3,72.7,176.2,72.8,175.9L72.8,175.9z"/>
		</g>
	</g>
	<g>
		<g>
			<path class="st77" d="M78.3,173c2.3-4.1-1.6-7.7-5.1-9.2c-1.9-0.8-3.9-1.4-6-1.7c-3.1-0.5-6.3-0.9-9.4-1.7
				c-0.9-0.2-1.4-1.4-1.9-2.2c-5.9-9.8-11.1-20.1-17.5-29.7c-1.7-2.5-3.5-5-5.5-7.3c-1.2-1.3-2.6-2.9-4.4-3.5
				c-0.3-0.1-1.2,0.3-0.8,0.4c1.6,0.5,2.9,1.9,3.9,3c1.7,1.8,3.2,3.9,4.6,5.9c3.7,5.3,7,10.9,10.2,16.5c2.6,4.6,5.2,9.3,7.8,13.8
				c0.5,0.9,1.1,2.3,2,3c0.4,0.4,1,0.4,1.6,0.5c1.6,0.4,3.2,0.6,4.9,0.9c2.3,0.4,4.6,0.6,6.8,1.3c2,0.6,4.1,1.3,5.7,2.6
				c2.2,1.8,3.5,4.6,2,7.2C77.2,173.4,78.1,173.3,78.3,173L78.3,173z"/>
		</g>
	</g>
	<g>
		<g>
			<path class="st77" d="M83.7,170.3c2.2-4-1.4-7.6-4.9-9.2c-2-0.9-4.1-1.5-6.2-1.9c-3-0.6-6-1.1-8.9-1.9c-0.6-0.1-0.5-0.1-0.9-0.6
				c-0.4-0.5-0.7-1-1-1.5c-6-9.9-11.3-20.3-17.9-29.8c-1.7-2.5-3.5-5-5.6-7.2c-1.2-1.3-2.7-2.8-4.5-3.4c-0.4-0.1-1.2,0.4-0.6,0.6
				c1.6,0.5,2.9,1.8,4,3c1.8,1.9,3.3,3.9,4.8,6c3.7,5.2,7,10.6,10.2,16.1c2.7,4.5,5.2,9.2,7.9,13.7c0.6,1,1.2,2.4,2,3.2
				c0.4,0.4,0.8,0.4,1.3,0.5c1.5,0.4,3,0.7,4.5,1c2.2,0.5,4.5,0.8,6.7,1.4c4,1.1,11,4.5,8,9.7C82.5,170.7,83.5,170.7,83.7,170.3
				L83.7,170.3z"/>
		</g>
	</g>
	<g>
		<g>
			<path class="st77" d="M89.1,167.4c2.3-4.1-1.7-7.6-5.2-9.1c-1.9-0.8-3.9-1.3-6-1.8c-1.6-0.4-3.1-0.7-4.7-1.1
				c-1.2-0.3-2.7-0.5-3.8-1c-0.7-0.3-1.2-1.5-1.7-2.3c-6-9.9-11.4-20.1-18.2-29.6c-1.7-2.4-3.5-4.8-5.5-6.9
				c-1.3-1.3-2.8-2.9-4.6-3.4c-0.2-0.1-1.1,0.3-0.8,0.4c1.6,0.4,3,1.8,4.1,2.9c1.8,1.8,3.4,3.9,4.9,6c3.8,5.1,7.1,10.6,10.4,16
				c2.7,4.6,5.4,9.2,8.1,13.8c0.6,1,1.1,2.3,2,3.1c0.3,0.3,0.8,0.4,1.2,0.5c1.5,0.4,3,0.7,4.5,1.1c2.2,0.5,4.4,1,6.6,1.6
				c4,1.2,10.7,4.6,7.8,9.8C88,167.7,89,167.7,89.1,167.4L89.1,167.4z"/>
		</g>
	</g>
	<g>
		<g>
			<path class="st77" d="M94.5,164.7c3.7-6.7-6.4-9.8-11.1-11.1c-1.5-0.4-3-0.8-4.5-1.3c-0.7-0.2-1.5-0.4-2.2-0.6
				c-0.5-0.1-1.2-0.2-1.7-0.5c-0.5-0.3-1.1-1.6-1.5-2.2c-6-9.9-11.6-20-18.4-29.4c-1.8-2.5-3.7-4.9-5.8-7c-1.3-1.3-2.8-2.8-4.7-3.3
				c-0.4-0.1-1.2,0.5-0.6,0.6c1.6,0.4,3,1.7,4.2,2.9c1.8,1.8,3.4,3.8,4.9,5.8c3.8,5,7.2,10.4,10.5,15.8c2.8,4.5,5.4,9.1,8.1,13.7
				c0.6,1.1,1.3,2.3,2.1,3.3c0.3,0.3,0.4,0.4,0.9,0.5c1.3,0.4,2.6,0.7,3.9,1.1c2.2,0.6,4.5,1.2,6.7,1.9c4,1.2,11.2,4.5,8.2,9.7
				C93.3,165.1,94.3,165,94.5,164.7L94.5,164.7z"/>
		</g>
	</g>
	<g>
		<g>
			<path class="st77" d="M99.9,161.9c3.8-6.7-6.7-9.7-11.1-11.1c-1.5-0.5-2.9-1-4.4-1.4c-1-0.3-2.5-0.5-3.4-1.1
				c-0.5-0.3-1.1-1.6-1.5-2.2c-6-9.9-11.7-20-18.7-29.3c-1.8-2.4-3.7-4.8-5.9-7c-1.3-1.3-2.9-2.7-4.7-3.2c-0.3-0.1-1.2,0.4-0.6,0.5
				c1.6,0.4,3.1,1.7,4.2,2.9c1.8,1.8,3.5,3.8,5.1,5.8c3.9,5,7.4,10.4,10.7,15.8c2.8,4.5,5.5,9.1,8.2,13.6c0.6,1,1.2,2.3,2,3.2
				c0.3,0.3,0.4,0.3,0.8,0.5c1.3,0.4,2.6,0.8,3.8,1.2c2.2,0.7,4.3,1.4,6.5,2.1c3.9,1.3,10.9,4.5,8,9.7
				C98.7,162.3,99.7,162.1,99.9,161.9L99.9,161.9z"/>
		</g>
	</g>
	<g>
		<g>
			<path class="st77" d="M105.3,159.1c3.7-6.6-6.5-9.5-10.9-11.1c-1.4-0.5-2.9-1.1-4.3-1.6c-1-0.4-2.3-0.6-3.2-1.1
				c-0.4-0.3-1.1-1.6-1.4-2.2c-6-9.9-11.9-19.9-19-29.2c-1.9-2.4-3.8-4.8-6-6.9c-1.4-1.3-3-2.7-4.8-3.1c-0.3-0.1-1.2,0.4-0.6,0.5
				c1.7,0.4,3.1,1.7,4.3,2.8c1.9,1.8,3.6,3.7,5.2,5.8c4,5,7.5,10.3,10.9,15.7c2.9,4.5,5.6,9,8.3,13.6c0.6,1,1.2,2.3,2,3.2
				c0.2,0.3,0.4,0.3,0.8,0.4c1.2,0.4,2.4,0.9,3.7,1.3c2.1,0.8,4.2,1.6,6.4,2.3c3.9,1.3,10.8,4.5,7.9,9.7
				C104.2,159.5,105.2,159.3,105.3,159.1L105.3,159.1z"/>
		</g>
	</g>
	<g>
		<g>
			<path class="st77" d="M110.7,156.3c3.7-6.6-6.5-9.4-10.9-11.3c-1.4-0.6-2.8-1.2-4.2-1.7c-0.9-0.4-2.2-0.6-3-1.2
				c0.2,0.1-0.3-0.4-0.3-0.6c-0.3-0.5-0.7-1-1-1.6c-6.1-9.9-12.1-19.9-19.3-29c-1.9-2.4-3.9-4.8-6.1-6.8c-1.4-1.3-3-2.7-4.9-3.1
				c-0.4-0.1-1.2,0.5-0.6,0.6c1.7,0.4,3.2,1.6,4.4,2.7c1.9,1.7,3.6,3.7,5.2,5.7c4,4.9,7.6,10.2,11.1,15.5c2.9,4.4,5.7,8.9,8.4,13.4
				c0.7,1.1,1.3,2.3,2.1,3.3c0.2,0.3,0.3,0.3,0.6,0.5c1,0.5,2.1,0.8,3.2,1.3c2.1,0.9,4.2,1.8,6.4,2.6c3.8,1.3,10.9,4.5,8,9.6
				C109.5,156.7,110.5,156.7,110.7,156.3L110.7,156.3z"/>
		</g>
	</g>
	<g>
		<g>
			<path class="st77" d="M116.2,153.4c3.7-6.5-7-9.4-11.2-11.3c-1.3-0.6-2.7-1.2-4-1.9c-0.6-0.3-1.8-0.6-2.3-1
				c-0.6-0.5-1-1.6-1.4-2.3c-6-9.8-12.1-19.7-19.4-28.7c-1.9-2.4-3.9-4.8-6.2-6.8c-1.4-1.3-3.1-2.7-5-3.1c-0.2,0-1.1,0.3-0.8,0.4
				c1.7,0.3,3.2,1.6,4.5,2.7c1.9,1.7,3.7,3.6,5.3,5.6c4.2,5,7.9,10.3,11.4,15.7c2.9,4.4,5.8,8.9,8.5,13.4c0.6,1,1.2,2.3,2,3.2
				c0.2,0.2,0.2,0.2,0.5,0.4c1.1,0.6,2.3,1,3.4,1.6c2,0.9,4,1.9,6,2.7c3.8,1.4,10.6,4.6,7.7,9.7C115.1,153.7,116,153.7,116.2,153.4
				L116.2,153.4z"/>
		</g>
	</g>
	<g>
		<g>
			<path class="st77" d="M121.6,150.7c1-1.7,1.2-3.4,0-5c-1.2-1.8-3.1-2.9-5-3.9c-2.1-1-3.8-1.6-5.7-2.6c-1.3-0.7-2.6-1.4-3.9-2
				c-0.8-0.4-1.8-0.7-2.5-1.2c0.3,0.2-0.2-0.4-0.2-0.5c-0.3-0.5-0.7-1.1-1-1.6c-6.1-9.9-12.4-19.8-19.8-28.8c-1.9-2.3-4-4.6-6.2-6.7
				c-1.5-1.3-3.3-2.7-5.3-3.1c-0.5-0.1-1,0.6-0.4,0.7c1.7,0.3,3.3,1.6,4.6,2.7c2,1.7,3.7,3.7,5.4,5.6c4.1,4.9,7.8,10.1,11.4,15.4
				c3,4.4,5.8,8.9,8.6,13.4c0.6,1,1.2,2.2,1.9,3.1c0.2,0.2,0.2,0.3,0.5,0.4c1,0.6,2,1,3,1.5c1.9,1,3.8,2.1,5.9,2.9
				c1.9,0.7,3.9,1.6,5.5,2.8c1.1,0.8,2.2,1.8,2.8,3c0.6,1.3,0.2,2.5-0.5,3.7C120.3,151.1,121.3,151.1,121.6,150.7L121.6,150.7z"/>
		</g>
	</g>
	<g>
		<g>
			<path class="st77" d="M127,147.8c1-1.8,1.1-3.4-0.2-5c-1.4-1.7-3.3-2.8-5.3-3.8c-2-1-3.7-1.6-5.6-2.7c-1.3-0.7-2.5-1.4-3.8-2.2
				c-0.5-0.3-1.4-0.7-1.7-1c-0.6-0.6-1-1.6-1.4-2.3c-6.1-9.8-12.5-19.6-19.9-28.4c-2-2.4-4.1-4.7-6.4-6.7c-1.5-1.3-3.2-2.7-5.2-3
				c-0.3,0-1.1,0.4-0.8,0.4c1.8,0.3,3.3,1.5,4.7,2.6c2,1.7,3.8,3.6,5.6,5.6c4.2,4.8,8,10.1,11.7,15.4c3,4.4,6,8.9,8.8,13.4
				c0.6,1,1.2,2.1,1.9,3.1c0.7,0.9,2.2,1.4,3.2,2c1.9,1.1,3.7,2.3,5.8,3.1c2.1,0.8,4.2,1.8,6,3.2c1,0.8,2,1.8,2.4,3
				c0.4,1.2,0,2.4-0.7,3.4C125.9,148.1,126.8,148.1,127,147.8L127,147.8z"/>
		</g>
	</g>
</g>
<path class="st78" d="M69.1,180.8"/>
<path class="st79" d="M69.9,109.8"/>
<path class="st79" d="M88.5,116.3"/>
<path class="st80" d="M88.8,100.5"/>
<path class="st80" d="M87.8,119.4"/>
<path class="st79" d="M77.4,105.5"/>
<path class="st79" d="M82.6,93.8"/>
<g>
	<g>
		<path class="st72" d="M48,165.9c-0.1,0.3-0.1,0.6,0.1,0.8c0.2,0.3,0.5,0.4,0.8,0.5c0.8,0.2,1.8,0,2.5-0.4c0.3-0.2-0.1-0.7-0.4-0.6
			c-0.6,0.3-1.3,0.5-2,0.4c-0.1,0-0.2,0-0.3-0.1c0,0-0.1,0-0.1,0c0,0,0,0,0,0c0,0,0,0-0.1,0c-0.1,0,0,0,0,0c0,0,0,0-0.1,0
			c0.1,0.1,0,0,0,0c0-0.1,0,0.1,0,0c0,0,0-0.1,0,0c0,0,0-0.1,0,0c0,0,0,0,0-0.1c0-0.1,0,0,0,0c0,0,0-0.1,0-0.1
			C48.8,165.9,48.2,165.6,48,165.9L48,165.9z"/>
	</g>
</g>
<g>
	<g>
		<path class="st72" d="M55.3,166.7c-0.2,0.3-0.1,0.7,0.2,0.9c0.4,0.2,0.9,0.1,1.3,0c0.8-0.2,1.5-0.6,2.2-1c0.2-0.1,0.5-0.2,0.7-0.4
			c0.4-0.2,0.1-0.7-0.3-0.5c-0.5,0.3-1,0.5-1.5,0.8c-0.5,0.3-1.1,0.5-1.7,0.6c-0.1,0-0.2,0-0.3,0c-0.1,0,0,0,0,0c0,0,0,0-0.1,0
			c0,0,0,0,0,0c0,0,0,0,0,0c0,0,0,0,0,0c0,0,0-0.1,0-0.1c0-0.1,0-0.1,0.1-0.1c0.1-0.2-0.1-0.3-0.2-0.4
			C55.6,166.5,55.4,166.6,55.3,166.7L55.3,166.7z"/>
	</g>
</g>
<g>
	<g>
		<path class="st72" d="M60,167.2c-0.2,0.3-0.2,0.7,0.1,1c0.3,0.3,0.7,0.4,1.1,0.3c0.8-0.1,1.4-0.5,2.1-0.9c0.2-0.1,0.5-0.3,0.7-0.4
			c0.3-0.1-0.2-0.6-0.5-0.5c-0.4,0.2-0.8,0.4-1.2,0.6c-0.2,0.1-0.5,0.3-0.7,0.4c-0.3,0.1-0.8,0.3-1.1,0.3c0,0-0.1,0-0.1,0
			c-0.1,0-0.1,0,0,0c0,0,0,0,0,0c0,0,0,0.1,0,0c0,0,0,0,0,0c0,0,0,0,0-0.1c0-0.1,0-0.2,0.1-0.2C60.6,167.4,60.1,167,60,167.2
			L60,167.2z"/>
	</g>
</g>
<g>
	<g>
		<path class="st72" d="M63.8,168.9c-0.2,0.4-0.1,0.7,0.2,1c0.3,0.3,0.6,0.3,1,0.3c0.7-0.1,1.4-0.5,2.1-0.9c0.2-0.1,0.5-0.3,0.7-0.4
			c0.1-0.1-0.2-0.6-0.4-0.5c-0.4,0.2-0.8,0.4-1.2,0.6c-0.6,0.3-1.2,0.7-1.9,0.6c-0.1,0-0.1,0-0.2-0.1c0,0,0,0,0,0
			c0,0,0.1,0.1,0.1,0.1c0,0.1,0,0.1,0,0c0,0,0-0.1,0-0.1c0-0.1,0.1-0.2,0.1-0.3C64.3,169.3,63.9,168.8,63.8,168.9L63.8,168.9z"/>
	</g>
</g>
<g>
	<g>
		<path class="st72" d="M67.6,170.1c-0.3,0.2-0.5,0.4-0.7,0.8c-0.1,0.3,0,0.5,0.1,0.8c0.2,0.5,0.7,0.9,1.1,1.2
			c0.3,0.1,0.6,0.3,0.9,0.3c0.2,0,0.3-0.1,0.4-0.3c0.1-0.1,0-0.2-0.2-0.2c0,0-0.1,0,0,0c0,0,0,0,0,0c-0.1,0-0.1,0-0.2,0
			c-0.1,0-0.2-0.1-0.3-0.1c-0.2-0.1-0.4-0.3-0.6-0.4c-0.2-0.2-0.3-0.3-0.4-0.5c-0.1-0.1-0.1-0.2-0.1-0.3c0,0,0-0.1,0-0.1
			c0,0,0-0.1,0-0.1c0,0,0-0.1,0,0c0-0.1,0-0.1,0-0.2c0,0,0,0,0,0c0,0,0,0,0,0c0,0,0-0.1,0,0c0,0,0,0,0,0c0,0,0,0,0,0c0,0,0,0,0,0
			c0,0,0.1-0.1,0.1,0c0,0,0,0,0,0c0,0,0,0,0.1,0c0.1-0.1,0.3-0.2,0.2-0.4C67.9,169.9,67.7,170,67.6,170.1L67.6,170.1z"/>
	</g>
</g>
<g>
	<g>
		<path class="st72" d="M68.5,173.1c-0.2,0.2-0.5,0.4-0.6,0.6c-0.1,0.2,0,0.5,0,0.7c0.2,0.5,0.7,0.9,1.1,1.2
			c0.2,0.1,0.5,0.2,0.8,0.2c0.2,0,0.3-0.1,0.4-0.2c0,0,0.2-0.2,0.1-0.2c-0.4,0-0.9-0.3-1.2-0.6c-0.3-0.3-0.7-0.7-0.6-1.2
			c0-0.1,0-0.2,0.1-0.3c0.1-0.1,0.2-0.2,0.3-0.3c0.1,0,0.2-0.2,0.1-0.2C68.8,173,68.6,173.1,68.5,173.1L68.5,173.1z"/>
	</g>
</g>
<g>
	<g>
		<g>
			<path class="st81" d="M116.1,134.5c-2.2-0.2-3.5,0.7-4.8,2.1"/>
		</g>
		<g>
			<path class="st81" d="M110,137.5c-2.2-0.2-3.5,0.7-4.8,2.1"/>
		</g>
	</g>
	<g>
		<g>
			<path class="st81" d="M115.2,136.5c-2.2-0.2-3.5,0.7-4.8,2.1"/>
		</g>
		<g>
			<path class="st81" d="M109,139.5c-2.2-0.2-3.5,0.7-4.8,2.1"/>
		</g>
	</g>
	<g>
		<g>
			<path class="st81" d="M104.3,140.4c-2.2-0.2-3.5,0.7-4.8,2.1"/>
		</g>
		<g>
			<path class="st81" d="M98.1,143.4c-2.2-0.2-3.5,0.7-4.8,2.1"/>
		</g>
	</g>
	<g>
		<g>
			<path class="st81" d="M103.3,142.6c-2.2-0.2-3.5,0.7-4.8,2.1"/>
		</g>
		<g>
			<path class="st81" d="M97.2,145.6c-2.2-0.2-3.5,0.7-4.8,2.1"/>
		</g>
	</g>
	<g>
		<g>
			<path class="st81" d="M92.3,146.3c-2.2-0.2-3.5,0.7-4.8,2.1"/>
		</g>
		<g>
			<path class="st81" d="M86.2,149.3c-2.2-0.2-3.5,0.7-4.8,2.1"/>
		</g>
	</g>
	<g>
		<g>
			<path class="st81" d="M91.4,148.5c-2.2-0.2-3.5,0.7-4.8,2.1"/>
		</g>
		<g>
			<path class="st81" d="M85.2,151.5c-2.2-0.2-3.5,0.7-4.8,2.1"/>
		</g>
	</g>
	<g>
		<g>
			<path class="st81" d="M80.2,152.5c-2.2-0.2-3.5,0.7-4.8,2.1"/>
		</g>
		<g>
			<path class="st81" d="M74.1,155.5c-2.2-0.2-3.5,0.7-4.8,2.1"/>
		</g>
	</g>
	<g>
		<g>
			<path class="st81" d="M79.3,154.5c-2.2-0.2-3.5,0.7-4.8,2.1"/>
		</g>
		<g>
			<path class="st81" d="M73.2,157.5c-2.2-0.2-3.5,0.7-4.8,2.1"/>
		</g>
	</g>
	<g>
		<g>
			<path class="st81" d="M68.4,158.4c-2.2-0.2-3.5,0.7-4.8,2.1"/>
		</g>
		<g>
			<path class="st81" d="M62.2,161.4c-2.2-0.2-3.5,0.7-4.8,2.1"/>
		</g>
	</g>
	<g>
		<g>
			<path class="st81" d="M67.4,160.4c-2.2-0.2-3.5,0.7-4.8,2.1"/>
		</g>
		<g>
			<path class="st81" d="M61.3,163.5c-2.2-0.2-3.5,0.7-4.8,2.1"/>
		</g>
	</g>
	<g>
		<path class="st81" d="M54.9,164.8c0,0-2.1,0.3-3.3,1.7"/>
	</g>
</g>
<g>
	<g>
		<g>
			<path class="st81" d="M119.4,136.2c-2.2-0.2-3.5,0.7-4.8,2.1"/>
		</g>
		<g>
			<path class="st81" d="M113.2,139.2c-2.2-0.2-3.5,0.7-4.8,2.1"/>
		</g>
	</g>
	<g>
		<g>
			<path class="st81" d="M118.5,138.2c-2.2-0.2-3.5,0.7-4.8,2.1"/>
		</g>
		<g>
			<path class="st81" d="M112.3,141.2c-2.2-0.2-3.5,0.7-4.8,2.1"/>
		</g>
	</g>
	<g>
		<g>
			<path class="st81" d="M107.5,142.1c-2.2-0.2-3.5,0.7-4.8,2.1"/>
		</g>
		<g>
			<path class="st81" d="M101.4,145.1c-2.2-0.2-3.5,0.7-4.8,2.1"/>
		</g>
	</g>
	<g>
		<g>
			<path class="st81" d="M106.6,144.3c-2.2-0.2-3.5,0.7-4.8,2.1"/>
		</g>
		<g>
			<path class="st81" d="M100.4,147.3c-2.2-0.2-3.5,0.7-4.8,2.1"/>
		</g>
	</g>
	<g>
		<g>
			<path class="st81" d="M95.6,148c-2.2-0.2-3.5,0.7-4.8,2.1"/>
		</g>
		<g>
			<path class="st81" d="M89.4,151c-2.2-0.2-3.5,0.7-4.8,2.1"/>
		</g>
	</g>
	<g>
		<g>
			<path class="st81" d="M94.7,150.2c-2.2-0.2-3.5,0.7-4.8,2.1"/>
		</g>
		<g>
			<path class="st81" d="M88.5,153.2c-2.2-0.2-3.5,0.7-4.8,2.1"/>
		</g>
	</g>
	<g>
		<g>
			<path class="st81" d="M83.5,154.2c-2.2-0.2-3.5,0.7-4.8,2.1"/>
		</g>
		<g>
			<path class="st81" d="M77.3,157.2c-2.2-0.2-3.5,0.7-4.8,2.1"/>
		</g>
	</g>
	<g>
		<g>
			<path class="st81" d="M82.6,156.2c-2.2-0.2-3.5,0.7-4.8,2.1"/>
		</g>
		<g>
			<path class="st81" d="M76.4,159.2c-2.2-0.2-3.5,0.7-4.8,2.1"/>
		</g>
	</g>
	<g>
		<g>
			<path class="st81" d="M71.6,160.1c-2.2-0.2-3.5,0.7-4.8,2.1"/>
		</g>
		<g>
			<path class="st81" d="M65.5,163.2c-2.2-0.2-3.5,0.7-4.8,2.1"/>
		</g>
	</g>
	<g>
		<g>
			<path class="st81" d="M70.7,162.1c-2.2-0.2-3.5,0.7-4.8,2.1"/>
		</g>
		<g>
			<path class="st81" d="M64.9,164.8c-2.2-0.2-2.9,1.6-2.9,1.6"/>
		</g>
	</g>
</g>
<g>
	<g>
		<g>
			<path class="st81" d="M123.7,137.6c-2.2-0.2-3.5,0.7-4.8,2.1"/>
		</g>
		<g>
			<path class="st81" d="M117.5,140.6c-2.2-0.2-3.5,0.7-4.8,2.1"/>
		</g>
	</g>
	<g>
		<g>
			<path class="st81" d="M122.7,139.6c-2.2-0.2-3.5,0.7-4.8,2.1"/>
		</g>
		<g>
			<path class="st81" d="M116.6,142.6c-2.2-0.2-3.5,0.7-4.8,2.1"/>
		</g>
	</g>
	<g>
		<g>
			<path class="st81" d="M111.8,143.5c-2.2-0.2-3.5,0.7-4.8,2.1"/>
		</g>
		<g>
			<path class="st81" d="M105.7,146.5c-2.2-0.2-3.5,0.7-4.8,2.1"/>
		</g>
	</g>
	<g>
		<g>
			<path class="st81" d="M110.9,145.7c-2.2-0.2-3.5,0.7-4.8,2.1"/>
		</g>
		<g>
			<path class="st81" d="M104.7,148.7c-2.2-0.2-3.5,0.7-4.8,2.1"/>
		</g>
	</g>
	<g>
		<g>
			<path class="st81" d="M99.9,149.4c-2.2-0.2-3.5,0.7-4.8,2.1"/>
		</g>
		<g>
			<path class="st81" d="M93.7,152.4c-2.2-0.2-3.5,0.7-4.8,2.1"/>
		</g>
	</g>
	<g>
		<g>
			<path class="st81" d="M99,151.6c-2.2-0.2-3.5,0.7-4.8,2.1"/>
		</g>
		<g>
			<path class="st81" d="M92.8,154.6c-2.2-0.2-3.5,0.7-4.8,2.1"/>
		</g>
	</g>
	<g>
		<g>
			<path class="st81" d="M87.8,155.6c-2.2-0.2-3.5,0.7-4.8,2.1"/>
		</g>
		<g>
			<path class="st81" d="M81.6,158.6c-2.2-0.2-3.5,0.7-4.8,2.1"/>
		</g>
	</g>
	<g>
		<g>
			<path class="st81" d="M86.9,157.6c-2.2-0.2-3.5,0.7-4.8,2.1"/>
		</g>
		<g>
			<path class="st81" d="M80.7,160.6c-2.2-0.2-3.5,0.7-4.8,2.1"/>
		</g>
	</g>
	<g>
		<g>
			<path class="st81" d="M75.9,161.5c-2.2-0.2-3.5,0.7-4.8,2.1"/>
		</g>
		<g>
			<path class="st81" d="M69.8,164.5c-2.2-0.2-3.5,0.7-4.8,2.1"/>
		</g>
	</g>
	<g>
		<g>
			<path class="st81" d="M75,163.5c-2.2-0.2-3.5,0.7-4.8,2.1"/>
		</g>
		<g>
			<path class="st81" d="M68.8,166.6c-2.2-0.2-3.5,0.7-4.8,2.1"/>
		</g>
	</g>
</g>
<g>
	<g>
		<g>
			<path class="st81" d="M126.9,139.4c-2.2-0.2-3.5,0.7-4.8,2.1"/>
		</g>
		<g>
			<path class="st81" d="M120.7,142.4c-2.2-0.2-3.5,0.7-4.8,2.1"/>
		</g>
	</g>
	<g>
		<g>
			<path class="st81" d="M125.9,141.4c-2.2-0.2-3.5,0.7-4.8,2.1"/>
		</g>
		<g>
			<path class="st81" d="M119.8,144.4c-2.2-0.2-3.5,0.7-4.8,2.1"/>
		</g>
	</g>
	<g>
		<g>
			<path class="st81" d="M115,145.3c-2.2-0.2-3.5,0.7-4.8,2.1"/>
		</g>
		<g>
			<path class="st81" d="M108.9,148.4c-2.2-0.2-3.5,0.7-4.8,2.1"/>
		</g>
	</g>
	<g>
		<g>
			<path class="st81" d="M114.1,147.5c-2.2-0.2-3.5,0.7-4.8,2.1"/>
		</g>
		<g>
			<path class="st81" d="M107.9,150.5c-2.2-0.2-3.5,0.7-4.8,2.1"/>
		</g>
	</g>
	<g>
		<g>
			<path class="st81" d="M103.1,151.2c-2.2-0.2-3.5,0.7-4.8,2.1"/>
		</g>
		<g>
			<path class="st81" d="M96.9,154.2c-2.2-0.2-3.5,0.7-4.8,2.1"/>
		</g>
	</g>
	<g>
		<g>
			<path class="st81" d="M102.2,153.4c-2.2-0.2-3.5,0.7-4.8,2.1"/>
		</g>
		<g>
			<path class="st81" d="M96,156.4c-2.2-0.2-3.5,0.7-4.8,2.1"/>
		</g>
	</g>
	<g>
		<g>
			<path class="st81" d="M91,157.4c-2.2-0.2-3.5,0.7-4.8,2.1"/>
		</g>
		<g>
			<path class="st81" d="M84.8,160.4c-2.2-0.2-3.5,0.7-4.8,2.1"/>
		</g>
	</g>
	<g>
		<g>
			<path class="st81" d="M90.1,159.4c-2.2-0.2-3.5,0.7-4.8,2.1"/>
		</g>
		<g>
			<path class="st81" d="M83.9,162.4c-2.2-0.2-3.5,0.7-4.8,2.1"/>
		</g>
	</g>
	<g>
		<g>
			<path class="st81" d="M79.1,163.3c-2.2-0.2-3.5,0.7-4.8,2.1"/>
		</g>
		<g>
			<path class="st81" d="M73,166.4c-2.2-0.2-3.5,0.7-4.8,2.1"/>
		</g>
	</g>
	<g>
		<g>
			<path class="st81" d="M78.2,165.4c-2.2-0.2-3.5,0.7-4.8,2.1"/>
		</g>
		<g>
			<path class="st81" d="M72,168.4c-2.2-0.2-3.5,0.7-4.8,2.1"/>
		</g>
	</g>
</g>
<g>
	<g>
		<g>
			<path class="st81" d="M129,141.9c-2.2-0.2-3.5,0.6-4.7,2"/>
		</g>
		<g>
			<path class="st81" d="M122.9,144.9c-2.2-0.2-3.5,0.7-4.8,2.1"/>
		</g>
	</g>
	<g>
		<g>
			<path class="st81" d="M128.1,143.8c-2.2-0.2-3.5,0.7-4.8,2.1"/>
		</g>
		<g>
			<path class="st81" d="M122,146.9c-2.2-0.2-3.5,0.7-4.8,2.1"/>
		</g>
	</g>
	<g>
		<g>
			<path class="st81" d="M117.2,147.8c-2.2-0.2-3.5,0.7-4.8,2.1"/>
		</g>
		<g>
			<path class="st81" d="M111,150.8c-2.2-0.2-3.5,0.7-4.8,2.1"/>
		</g>
	</g>
	<g>
		<g>
			<path class="st81" d="M116.3,149.9c-2.2-0.2-3.5,0.7-4.8,2.1"/>
		</g>
		<g>
			<path class="st81" d="M110.1,152.9c-2.2-0.2-3.5,0.7-4.8,2.1"/>
		</g>
	</g>
	<g>
		<g>
			<path class="st81" d="M105.3,153.6c-2.2-0.2-3.5,0.7-4.8,2.1"/>
		</g>
		<g>
			<path class="st81" d="M99.1,156.7c-2.2-0.2-3.5,0.7-4.8,2.1"/>
		</g>
	</g>
	<g>
		<g>
			<path class="st81" d="M104.3,155.8c-2.2-0.2-3.5,0.7-4.8,2.1"/>
		</g>
		<g>
			<path class="st81" d="M98.2,158.8c-2.2-0.2-3.5,0.7-4.8,2.1"/>
		</g>
	</g>
	<g>
		<g>
			<path class="st81" d="M93.2,159.8c-2.2-0.2-3.5,0.7-4.8,2.1"/>
		</g>
		<g>
			<path class="st81" d="M87,162.8c-2.2-0.2-3.5,0.7-4.8,2.1"/>
		</g>
	</g>
	<g>
		<g>
			<path class="st81" d="M92.2,161.8c-2.2-0.2-3.5,0.7-4.8,2.1"/>
		</g>
		<g>
			<path class="st81" d="M86.1,164.8c-2.2-0.2-3.5,0.7-4.8,2.1"/>
		</g>
	</g>
	<g>
		<g>
			<path class="st81" d="M81.3,165.8c-2.2-0.2-3.5,0.7-4.8,2.1"/>
		</g>
		<g>
			<path class="st81" d="M75.1,168.8c-2.2-0.2-3.5,0.7-4.8,2.1"/>
		</g>
	</g>
	<g>
		<g>
			<path class="st81" d="M80.4,167.8c-2.2-0.2-3.5,0.7-4.8,2.1"/>
		</g>
		<g>
			<path class="st81" d="M74.2,170.8c-2.2-0.2-3.5,0.7-4.8,2.1"/>
		</g>
	</g>
</g>
<g>
	<g>
		<g>
			<path class="st81" d="M129.9,144.4c-2.2-0.2-3.5,0.7-4.8,2.1"/>
		</g>
		<g>
			<path class="st81" d="M123.8,147.5c-2.2-0.2-3.5,0.7-4.8,2.1"/>
		</g>
	</g>
	<g>
		<g>
			<path class="st81" d="M129,146.5c-2.2-0.2-3.5,0.7-4.8,2.1"/>
		</g>
		<g>
			<path class="st81" d="M122.9,149.5c-2.2-0.2-3.5,0.7-4.8,2.1"/>
		</g>
	</g>
	<g>
		<g>
			<path class="st81" d="M118.1,150.4c-2.2-0.2-3.5,0.7-4.8,2.1"/>
		</g>
		<g>
			<path class="st81" d="M111.9,153.4c-2.2-0.2-3.5,0.7-4.8,2.1"/>
		</g>
	</g>
	<g>
		<g>
			<path class="st81" d="M117.2,152.5c-2.2-0.2-3.5,0.7-4.8,2.1"/>
		</g>
		<g>
			<path class="st81" d="M111,155.5c-2.2-0.2-3.5,0.7-4.8,2.1"/>
		</g>
	</g>
	<g>
		<g>
			<path class="st81" d="M106.2,156.2c-2.2-0.2-3.5,0.7-4.8,2.1"/>
		</g>
		<g>
			<path class="st81" d="M100,159.3c-2.2-0.2-3.5,0.7-4.8,2.1"/>
		</g>
	</g>
	<g>
		<g>
			<path class="st81" d="M105.2,158.4c-2.2-0.2-3.5,0.7-4.8,2.1"/>
		</g>
		<g>
			<path class="st81" d="M99.1,161.4c-2.2-0.2-3.5,0.7-4.8,2.1"/>
		</g>
	</g>
	<g>
		<g>
			<path class="st81" d="M94.1,162.4c-2.2-0.2-3.5,0.7-4.8,2.1"/>
		</g>
		<g>
			<path class="st81" d="M87.9,165.4c-2.2-0.2-3.5,0.7-4.8,2.1"/>
		</g>
	</g>
	<g>
		<g>
			<path class="st81" d="M93.1,164.4c-2.2-0.2-3.5,0.7-4.8,2.1"/>
		</g>
		<g>
			<path class="st81" d="M87,167.4c-2.2-0.2-3.5,0.7-4.8,2.1"/>
		</g>
	</g>
	<g>
		<g>
			<path class="st81" d="M82.2,168.4c-2.2-0.2-3.5,0.7-4.8,2.1"/>
		</g>
		<g>
			<path class="st81" d="M76,171.4c-2.2-0.2-3.5,0.7-4.8,2.1"/>
		</g>
	</g>
	<g>
		<g>
			<path class="st81" d="M81.3,170.4c-2.2-0.2-3.5,0.7-4.8,2.1"/>
		</g>
		<g>
			<path class="st81" d="M75.1,173.4c-2.2-0.2-3.5,0.7-4.8,2.1"/>
		</g>
	</g>
</g>
<g>
	<g>
		<path class="st81" d="M112.7,132.6c-2.2-0.2-3.5,0.7-4.8,2.1"/>
	</g>
	<g>
		<path class="st81" d="M106.6,135.6c-2.2-0.2-3.5,0.7-4.8,2.1"/>
	</g>
</g>
<g>
	<g>
		<path class="st81" d="M111.8,134.6c-2.2-0.2-3.5,0.7-4.8,2.1"/>
	</g>
	<g>
		<path class="st81" d="M105.6,137.6c-2.2-0.2-3.5,0.7-4.8,2.1"/>
	</g>
</g>
<g>
	<g>
		<path class="st81" d="M100.9,138.5c-2.2-0.2-3.5,0.7-4.8,2.1"/>
	</g>
	<g>
		<path class="st81" d="M94.7,141.5c-2.2-0.2-3.5,0.7-4.8,2.1"/>
	</g>
</g>
<g>
	<g>
		<path class="st81" d="M100,140.7c-2.2-0.2-3.5,0.7-4.8,2.1"/>
	</g>
	<g>
		<path class="st81" d="M93.8,143.7c-2.2-0.2-3.5,0.7-4.8,2.1"/>
	</g>
</g>
<g>
	<g>
		<path class="st81" d="M88.9,144.4c-2.2-0.2-3.5,0.7-4.8,2.1"/>
	</g>
	<g>
		<path class="st81" d="M82.8,147.4c-2.2-0.2-3.5,0.7-4.8,2.1"/>
	</g>
</g>
<g>
	<g>
		<path class="st81" d="M88,146.6c-2.2-0.2-3.5,0.7-4.8,2.1"/>
	</g>
	<g>
		<path class="st81" d="M81.9,149.6c-2.2-0.2-3.5,0.7-4.8,2.1"/>
	</g>
</g>
<g>
	<g>
		<path class="st81" d="M76.8,150.6c-2.2-0.2-3.5,0.7-4.8,2.1"/>
	</g>
	<g>
		<path class="st81" d="M70.7,153.6c-2.2-0.2-3.5,0.7-4.8,2.1"/>
	</g>
</g>
<g>
	<g>
		<path class="st81" d="M75.9,152.6c-2.2-0.2-3.5,0.7-4.8,2.1"/>
	</g>
	<g>
		<path class="st81" d="M69.8,155.6c-2.2-0.2-3.5,0.7-4.8,2.1"/>
	</g>
</g>
<g>
	<g>
		<path class="st81" d="M65,156.5c-2.2-0.2-3.5,0.7-4.8,2.1"/>
	</g>
	<g>
		<path class="st81" d="M58.8,159.5c-2.2-0.2-3.5,0.7-4.8,2.1"/>
	</g>
</g>
<g>
	<g>
		<path class="st81" d="M64,158.5c-2.2-0.2-3.5,0.7-4.8,2.1"/>
	</g>
	<g>
		<path class="st81" d="M57.9,161.5c-2.2-0.2-3.5,0.7-4.8,2.1"/>
	</g>
</g>
<g>
	<path class="st81" d="M53.2,162.5c-2.2-0.2-3.5,0.7-4.8,2.1"/>
</g>
<g>
	<path class="st81" d="M52,164.6c-1.7-0.2-2.4,0.3-3.4,1.2"/>
</g>
<g>
	<g>
		<g>
			<path class="st72" d="M114.6,132.4c0.2-0.1,0.4-0.1,0.7-0.1c0,0,0.1,0,0.1,0c0,0,0,0,0.1,0c0,0,0.1,0,0,0c0,0,0,0,0,0
				c0,0,0,0,0.1,0c0,0,0.1,0,0.1,0c0,0,0.1,0,0.1,0c0,0,0,0,0,0c0,0-0.1,0,0,0c0,0,0,0,0,0c0,0,0,0,0,0c0.1,0-0.1,0,0,0c0,0,0,0,0,0
				c0,0-0.1-0.1,0,0c0,0-0.1-0.1,0,0c0,0,0-0.1,0,0c0,0.1,0,0,0,0c0,0,0,0,0,0c0,0,0-0.1,0,0c0,0,0,0,0,0c0,0,0-0.1,0,0c0,0,0,0,0,0
				c0,0,0,0,0,0.1c0,0,0,0.1,0,0c0,0,0,0.1-0.1,0.1c0,0,0.1,0,0.1-0.1c-0.5,0.2-1,0.4-1.4,0.7c-0.3,0.3-0.6,0.6-0.8,0.9
				c-0.2,0.2,0.3,0.7,0.5,0.5c0.2-0.2,0.3-0.3,0.5-0.5c0.1-0.1,0.1-0.1,0.2-0.2c0,0,0.1-0.1,0.1-0.1c0,0,0,0,0.1,0c0,0,0.1-0.1,0,0
				c0,0,0,0,0,0c0,0,0,0,0.1,0c0,0,0.1-0.1,0.1-0.1c0.1-0.1,0.2-0.1,0.3-0.2c0.1-0.1,0.3-0.1,0.4-0.2c0.1,0,0.1,0,0.2-0.1
				c0.1,0,0.1-0.1,0.2-0.1c0.1-0.1,0.2-0.3,0.1-0.5c-0.1-0.2-0.2-0.4-0.4-0.5c-0.3-0.1-0.6-0.1-1-0.1c-0.2,0-0.5,0-0.7,0.1
				c-0.2,0-0.2,0.2-0.1,0.3C114.3,132.3,114.5,132.4,114.6,132.4L114.6,132.4z"/>
		</g>
	</g>
</g>
<g>
	<g>
		<g>
			<path class="st72" d="M117.6,133.9C117.5,133.9,117.6,133.9,117.6,133.9C117.6,133.9,117.6,133.9,117.6,133.9
				C117.7,133.8,117.8,133.8,117.6,133.9c0.1,0,0.2,0,0.3,0c0,0,0.1,0,0.1,0c-0.1,0,0,0,0.1,0c0,0,0.1,0,0.1,0c0.1,0-0.1,0,0,0
				c0,0,0,0,0.1,0c0,0,0,0,0.1,0c0.1,0-0.1,0,0,0c0,0,0.1,0,0.1,0c0,0,0,0,0,0c0,0,0,0,0,0c0,0,0,0,0.1,0c0,0,0,0,0,0c0,0,0,0,0,0
				c0,0,0.1,0.1,0.1,0.1c0.1,0.1,0,0.3-0.1,0.4c0,0,0.1,0,0.1-0.1c-0.5,0.2-1,0.4-1.4,0.7c-0.3,0.3-0.6,0.6-0.8,0.9
				c-0.1,0.1,0.2,0.1,0.3,0.1c0.1,0,0.3,0,0.4-0.1c0.3-0.3,0.5-0.7,0.9-0.9c0.2-0.1,0.4-0.2,0.5-0.3c0.1-0.1,0.3-0.1,0.4-0.2
				c0.1,0,0.2,0,0.2-0.1c0.1,0,0.1-0.1,0.1-0.1c0.1-0.1,0.1-0.2,0.1-0.3c0-0.1-0.2-0.2-0.3-0.2c-0.3-0.1-0.7-0.1-1,0
				c-0.3,0-0.6,0.1-0.9,0.1c0,0-0.2,0.1-0.1,0.1C117.3,133.9,117.5,133.9,117.6,133.9L117.6,133.9z"/>
		</g>
	</g>
</g>
<g>
	<g>
		<g>
			<path class="st72" d="M121.5,135.6C121.5,135.6,121.6,135.5,121.5,135.6c0.1,0,0.1,0,0.1,0c0.1,0,0.2,0,0.3-0.1
				c0.3,0,0.5-0.1,0.8,0c0,0,0,0,0.1,0c0,0,0,0,0,0c-0.1,0-0.3-0.1-0.4-0.2c0,0,0,0,0,0c0,0,0,0,0,0c0,0,0,0,0,0
				c0,0.1,0,0.2-0.1,0.3c0,0.1-0.1,0.1-0.1,0.1c-0.1,0-0.1,0-0.2,0.1c-0.1,0-0.2,0.1-0.4,0.2c-0.2,0.1-0.4,0.2-0.5,0.3
				c-0.3,0.3-0.6,0.6-0.9,0.9c0,0,0.3,0.2,0.3,0.2c0.1,0,0.1,0.1,0.2,0.1c0,0,0.1,0,0.1,0c0.3-0.3,0.5-0.7,0.9-0.9
				c0.2-0.1,0.4-0.2,0.6-0.3c0.1-0.1,0.3-0.1,0.4-0.2c0.1,0,0.2,0,0.2-0.1c0,0,0.1-0.1,0.1-0.1c0.1-0.1,0.1-0.2,0.1-0.3
				c0-0.1-0.1-0.1-0.1-0.1c-0.2-0.1-0.3-0.2-0.5-0.3c-0.3-0.1-0.6-0.1-0.9-0.1c-0.2,0-0.5,0-0.7,0.1c0,0,0.1,0.1,0.1,0.1
				c0.1,0,0.1,0.1,0.2,0.1c0.1,0,0.1,0.1,0.2,0.1C121.5,135.5,121.5,135.6,121.5,135.6L121.5,135.6z"/>
		</g>
	</g>
</g>
<g>
	<g>
		<g>
			<path class="st72" d="M125.8,137.2C125.8,137.2,125.9,137.2,125.8,137.2C125.9,137.2,125.8,137.2,125.8,137.2
				C125.8,137.2,125.9,137.2,125.8,137.2c0.1,0,0.1,0,0.1,0c0.2,0,0.3,0,0.5-0.1c0,0,0.1,0,0.1,0c0,0-0.1,0,0,0c0,0,0,0,0.1,0
				c0,0,0.2,0,0.2,0c0,0-0.1,0,0,0c0,0,0,0,0,0c0,0,0,0,0,0c0,0,0,0,0.1,0c0,0,0,0,0,0c0,0-0.1,0,0,0c0,0,0,0,0.1,0c0,0,0,0,0,0
				c0,0,0,0,0,0c0,0,0,0,0,0c0,0,0,0,0,0c0,0,0,0.1,0,0c0,0,0,0,0,0c0,0,0,0,0,0.1c0,0,0,0,0,0c0,0-0.1,0.1-0.1,0.1
				c0.1-0.1,0.2-0.1,0.3-0.2c-0.5,0.2-1,0.4-1.5,0.7c-0.3,0.3-0.6,0.6-0.8,0.9c-0.1,0.1-0.1,0.2,0.1,0.2c0.1,0,0.4,0,0.5-0.1
				c0.3-0.3,0.5-0.7,0.9-0.9c0,0,0,0,0,0c0,0,0,0,0,0c0,0,0,0,0.1,0c0,0,0.1-0.1,0.1-0.1c0,0,0,0,0.1,0c0,0,0.1,0,0,0c0,0,0,0,0.1,0
				c0,0,0.1,0,0.1,0c0.1,0,0.1-0.1,0.2-0.1c0,0,0.1,0,0.1,0c0,0,0,0,0,0c0,0,0.1,0,0,0c0,0,0.2-0.1,0.3-0.1c0.1,0,0.2-0.1,0.2-0.2
				c0.1-0.1,0.1-0.3,0.1-0.4c0-0.1-0.1-0.2-0.3-0.2c-0.3-0.1-0.7-0.1-1-0.1c-0.2,0-0.5,0.1-0.7,0.1c-0.1,0-0.3,0.1-0.3,0.3
				C125.5,137.3,125.7,137.2,125.8,137.2L125.8,137.2z"/>
		</g>
	</g>
</g>
<g>
	<g>
		<g>
			<path class="st72" d="M128.3,139.2c0.2,0,0.5,0,0.7,0c0.2,0,0.3,0.1,0.5,0.1c0.1,0,0.3,0.1,0.3,0.2c0.1,0.1-0.1,0.3-0.2,0.4
				c0.2-0.1,0.4-0.2,0.6-0.3c-0.6,0.1-1.1,0.2-1.7,0.5c-0.4,0.2-0.8,0.5-1.2,0.8c0,0-0.1,0.1-0.1,0.1c0,0,0.1,0,0.1,0
				c0.2-0.1,0.3-0.1,0.4-0.2c0.2-0.1,0.4-0.3,0.5-0.4c0,0,0,0,0.1,0c0,0,0.1,0,0,0c0,0,0.1-0.1,0.1-0.1c-0.1,0.1,0.1-0.1,0,0
				c0,0,0.1,0,0,0c0,0,0,0,0,0c0,0,0,0,0,0c0,0,0.1,0,0.2-0.1c0.1,0,0.3-0.1,0.4-0.1c0.1,0,0.3,0,0.4-0.1c0.2,0,0.5-0.2,0.6-0.3
				c0.2-0.2,0.3-0.4,0.1-0.6c-0.2-0.1-0.5-0.2-0.8-0.2c-0.2,0-0.4-0.1-0.7,0c-0.1,0-0.3,0.1-0.4,0.2
				C128.4,139.1,128.4,139.1,128.3,139.2C128.3,139.2,128.3,139.2,128.3,139.2L128.3,139.2z"/>
		</g>
	</g>
</g>
<g>
	<g>
		<g>
			<path class="st72" d="M130.8,141.9c0,0,0.1,0,0.1,0c0,0,0.1,0,0.1,0c0,0,0,0,0.1,0c-0.1,0,0,0,0,0c0,0,0.1,0,0.1,0c0,0,0.1,0,0,0
				c0,0,0,0,0,0c0.1,0-0.1-0.1,0,0c0,0-0.1-0.1,0,0c-0.1-0.1,0-0.1,0,0c0-0.1,0-0.1,0,0c0,0,0-0.1,0,0c0,0.1,0,0,0,0c0,0,0,0.1,0,0
				c0,0,0,0,0,0.1c0,0.1-0.1,0.1-0.1,0.2c-0.1,0.1-0.2,0-0.3,0.1c-0.1,0-0.2,0-0.3,0.1c-0.3,0.1-0.6,0.2-0.9,0.3
				c-0.3,0.2-0.6,0.4-0.9,0.6c-0.3,0.2,0.1,0.7,0.4,0.6c0.3-0.2,0.6-0.4,0.9-0.6c0.3-0.2,0.6-0.3,1-0.3c0.1,0,0.3,0,0.4-0.1
				c0.1,0,0.2-0.1,0.3-0.2c0.1-0.1,0.2-0.3,0.2-0.5c0-0.4-0.3-0.6-0.6-0.7c-0.2-0.1-0.4-0.1-0.6-0.1c-0.2,0-0.2,0.1-0.2,0.3
				C130.5,141.7,130.6,141.9,130.8,141.9L130.8,141.9z"/>
		</g>
	</g>
</g>
<g>
	<g>
		<g>
			<path class="st72" d="M131.5,144.3c0.1,0,0.2,0,0.2,0c0.1,0,0.2,0,0.2,0c0,0,0,0,0.1,0c0.1,0,0,0,0,0c0,0,0.1,0,0.1,0
				c0,0,0.1,0,0.1,0c0.1,0,0,0,0,0c0,0,0,0,0,0c0.1,0-0.1,0,0,0c0.1,0-0.1,0,0,0c-0.1,0,0,0-0.1-0.1c0,0,0-0.1,0,0c0,0,0-0.1,0,0
				c0,0,0,0,0,0c0,0,0,0,0,0c0,0,0,0.1,0,0c0,0,0,0,0,0c-0.1,0.1-0.1,0.2-0.2,0.2c0,0,0.1,0,0.1,0c-0.5,0-1,0.1-1.4,0.4
				c-0.4,0.2-0.7,0.5-1,0.7c-0.1,0.1,0,0.2,0.1,0.3c0.1,0.1,0.3,0.2,0.4,0.2c0.3-0.2,0.6-0.5,0.9-0.7c0.4-0.2,0.8-0.3,1.2-0.4
				c0.1,0,0.2,0,0.2,0c0,0,0.1-0.1,0.1-0.1c0.1-0.1,0.1-0.1,0.1-0.2c0.1-0.1,0.1-0.2,0-0.4c-0.2-0.3-0.6-0.4-0.9-0.5
				c-0.2,0-0.4,0-0.7,0c-0.2,0-0.1,0.2,0,0.3C131.2,144.2,131.4,144.3,131.5,144.3L131.5,144.3z"/>
		</g>
	</g>
</g>
</svg>
