<?xml version="1.0" encoding="utf-8"?>
<!-- Generator: Adobe Illustrator 25.2.1, SVG Export Plug-In . SVG Version: 6.00 Build 0)  -->
<svg version="1.1" id="Layer_1" xmlns="http://www.w3.org/2000/svg" xmlns:xlink="http://www.w3.org/1999/xlink" x="0px" y="0px"
	 viewBox="0 0 65.13 65.06" style="enable-background:new 0 0 65.13 65.06;" xml:space="preserve">
<style type="text/css">
	.st0{fill:#9F7F7D;stroke:#C2AAA7;stroke-width:0.2167;stroke-miterlimit:10;}
	.st1{fill:none;stroke:#C2AAA7;stroke-width:0.2155;stroke-miterlimit:10;}
</style>
<g>
	<rect x="0.49" y="0.67" class="st0" width="12.81" height="12.81"/>
	<rect x="13.29" y="13.34" class="st0" width="12.81" height="12.81"/>
	<rect x="26.1" y="26.15" class="st0" width="12.81" height="12.81"/>
	<rect x="26.1" y="0.53" class="st0" width="12.81" height="12.81"/>
	<rect x="0.47" y="26.26" class="st0" width="12.81" height="12.81"/>
	<rect x="38.79" y="13.34" class="st0" width="12.81" height="12.81"/>
	<rect x="51.6" y="26.15" class="st0" width="12.81" height="12.81"/>
	<rect x="51.6" y="0.53" class="st0" width="12.81" height="12.81"/>
	<rect x="0.49" y="26.17" class="st0" width="12.81" height="12.81"/>
	<rect x="13.29" y="38.84" class="st0" width="12.81" height="12.81"/>
	<rect x="26.1" y="51.65" class="st0" width="12.81" height="12.81"/>
	<rect x="26.1" y="26.03" class="st0" width="12.81" height="12.81"/>
	<rect x="0.47" y="51.76" class="st0" width="12.81" height="12.81"/>
	<rect x="0.52" y="26.13" class="st1" width="38.43" height="38.47"/>
	<rect x="38.79" y="38.84" class="st0" width="12.81" height="12.81"/>
	<rect x="51.6" y="51.65" class="st0" width="12.81" height="12.81"/>
	<rect x="51.6" y="26.03" class="st0" width="12.81" height="12.81"/>
	<rect x="26.02" y="26.13" class="st1" width="38.43" height="38.47"/>
	<rect x="0.45" y="0.52" class="st1" width="63.99" height="64.1"/>
</g>
</svg>
