<?xml version="1.0" encoding="utf-8"?>
<!-- Generator: Adobe Illustrator 25.2.3, SVG Export Plug-In . SVG Version: 6.00 Build 0)  -->
<svg version="1.1" id="Layer_1" xmlns="http://www.w3.org/2000/svg" xmlns:xlink="http://www.w3.org/1999/xlink" x="0px" y="0px"
	 viewBox="0 0 202.4 306.4" style="enable-background:new 0 0 202.4 306.4;" xml:space="preserve">
<style type="text/css">
	.st0{fill:#CBB8B9;stroke:#FFFFFF;stroke-width:0.4583;stroke-linejoin:bevel;stroke-miterlimit:10;}
	.st1{fill:#E4DAD8;stroke:#FFFFFF;stroke-width:0.4401;stroke-linejoin:bevel;stroke-miterlimit:10;}
	.st2{fill:none;stroke:#B79797;stroke-width:0.6796;stroke-linecap:round;stroke-miterlimit:10;}
	.st3{fill:none;stroke:#9F8080;stroke-width:0.6796;stroke-linecap:round;stroke-miterlimit:10;}
	.st4{fill:#B79797;stroke:#FFFFFF;stroke-width:0.4401;stroke-miterlimit:10;}
</style>
<polygon class="st0" points="1.5,235.5 1.5,249.6 111.9,304.9 111.5,290.6 "/>
<polygon class="st1" points="1.5,235.7 111.7,290.1 201.5,245.6 91.5,190 "/>
<g>
	<g>
		<path class="st2" d="M117.7,206.9v12.8c0,0.9-0.9,1.6-1.8,1.5l0,0c-0.5-0.2-0.9-0.5-0.9-1.1l-2.9-13.4"/>
		<line class="st2" x1="117.2" y1="220.8" x2="115.9" y2="205.6"/>
		<line class="st3" x1="117.6" y1="220.8" x2="116.5" y2="205.2"/>
		<line class="st2" x1="113.5" y1="204.9" x2="115.5" y2="221"/>
		<line class="st2" x1="116.5" y1="221.2" x2="114.1" y2="203"/>
		<line class="st2" x1="119" y1="208.5" x2="117.7" y2="220.4"/>
		<line class="st3" x1="114.1" y1="205.2" x2="116.1" y2="221"/>
		<line class="st2" x1="112.8" y1="204.9" x2="115.2" y2="220.8"/>
		<line class="st2" x1="115.2" y1="204.9" x2="116.8" y2="221"/>
	</g>
	<g>
		<path class="st2" d="M111.7,203.9v12.8c0,0.9-0.9,1.6-1.8,1.5l0,0c-0.5-0.2-0.9-0.5-0.9-1.1l-2.9-13.4"/>
		<line class="st2" x1="111.1" y1="218.1" x2="109.7" y2="202.8"/>
		<line class="st3" x1="111.3" y1="218.1" x2="110.4" y2="202.3"/>
		<line class="st2" x1="107.5" y1="202.1" x2="109.5" y2="218.2"/>
		<line class="st3" x1="110.4" y1="218.4" x2="108" y2="200.3"/>
		<line class="st2" x1="113" y1="205.6" x2="111.5" y2="217.7"/>
		<line class="st2" x1="107.8" y1="202.3" x2="109.9" y2="218.2"/>
		<line class="st3" x1="106.7" y1="202.1" x2="109.1" y2="217.9"/>
		<line class="st2" x1="109.1" y1="202.1" x2="110.8" y2="218.2"/>
	</g>
	<g>
		<path class="st2" d="M104.9,200.8v12.8c0,0.9-0.9,1.6-1.8,1.5l0,0c-0.5-0.2-0.9-0.5-0.9-1.1l-2.9-13.4"/>
		<line class="st2" x1="104.4" y1="214.8" x2="102.9" y2="199.5"/>
		<line class="st2" x1="104.7" y1="214.8" x2="103.6" y2="199"/>
		<line class="st2" x1="100.7" y1="198.8" x2="102.7" y2="214.9"/>
		<line class="st3" x1="103.6" y1="215.1" x2="101.2" y2="197"/>
		<line class="st2" x1="106.2" y1="202.5" x2="104.7" y2="214.4"/>
		<line class="st2" x1="101.2" y1="199.2" x2="103.1" y2="214.9"/>
		<line class="st2" x1="100" y1="198.8" x2="102.3" y2="214.6"/>
		<line class="st3" x1="102.3" y1="198.8" x2="104" y2="214.9"/>
	</g>
	<g>
		<path class="st2" d="M98.1,197.7v12.8c0,0.9-0.9,1.6-1.8,1.5l0,0c-0.5-0.2-0.9-0.5-0.9-1.1l-2.9-13.4"/>
		<line class="st2" x1="97.6" y1="211.8" x2="96.3" y2="196.4"/>
		<line class="st2" x1="97.9" y1="211.6" x2="96.8" y2="196.1"/>
		<line class="st2" x1="93.9" y1="195.7" x2="95.9" y2="211.8"/>
		<line class="st2" x1="96.8" y1="212" x2="94.5" y2="194"/>
		<line class="st2" x1="99.4" y1="199.4" x2="98.1" y2="211.5"/>
		<line class="st2" x1="94.5" y1="196.1" x2="96.5" y2="211.8"/>
		<line class="st3" x1="93.2" y1="195.9" x2="95.6" y2="211.6"/>
		<line class="st3" x1="95.6" y1="195.7" x2="97.4" y2="212"/>
	</g>
	<g>
		<path class="st3" d="M92.1,194.2v12.8c0,0.9-0.9,1.6-1.8,1.5l0,0c-0.5-0.2-0.9-0.5-0.9-1.1L86.4,194"/>
		<line class="st2" x1="91.5" y1="208.3" x2="90.1" y2="192.9"/>
		<line class="st2" x1="91.7" y1="208.2" x2="90.8" y2="192.6"/>
		<line class="st2" x1="87.9" y1="192.2" x2="89.9" y2="208.3"/>
		<line class="st2" x1="90.8" y1="208.5" x2="88.4" y2="190.6"/>
		<line class="st2" x1="93.4" y1="195.9" x2="91.9" y2="208"/>
		<line class="st3" x1="88.2" y1="192.6" x2="90.2" y2="208.3"/>
		<line class="st2" x1="87.1" y1="192.4" x2="89.5" y2="208.2"/>
		<line class="st2" x1="89.5" y1="192.2" x2="91.2" y2="208.3"/>
	</g>
	<g>
		<path class="st3" d="M74.7,199v12.8c0,0.9-0.9,1.6-1.8,1.5l0,0c-0.5-0.2-0.9-0.5-0.9-1.1L69,198.8"/>
		<line class="st2" x1="74.1" y1="213.1" x2="72.8" y2="197.9"/>
		<line class="st2" x1="74.5" y1="212.9" x2="73.4" y2="197.3"/>
		<line class="st2" x1="70.6" y1="197.2" x2="72.6" y2="213.1"/>
		<line class="st3" x1="73.6" y1="213.5" x2="71" y2="195.3"/>
		<line class="st3" x1="76.1" y1="200.6" x2="74.7" y2="212.7"/>
		<line class="st3" x1="71" y1="197.3" x2="73" y2="213.3"/>
		<line class="st2" x1="69.7" y1="197.2" x2="72.3" y2="212.9"/>
		<line class="st2" x1="72.3" y1="197.2" x2="73.9" y2="213.3"/>
	</g>
	<g>
		<path class="st3" d="M81.4,195.7v12.8c0,0.9-0.9,1.6-1.8,1.5l0,0c-0.5-0.2-0.9-0.5-0.9-1.1l-3.3-13.4"/>
		<line class="st3" x1="80.9" y1="209.8" x2="79.4" y2="194.4"/>
		<line class="st3" x1="81.1" y1="209.6" x2="80" y2="194"/>
		<line class="st3" x1="77.2" y1="193.7" x2="79.2" y2="209.8"/>
		<line class="st3" x1="80.2" y1="210" x2="77.8" y2="192"/>
		<line class="st2" x1="82.7" y1="197.3" x2="81.3" y2="209.4"/>
		<line class="st2" x1="77.6" y1="194" x2="79.6" y2="209.8"/>
		<line class="st2" x1="76.5" y1="193.9" x2="78.9" y2="209.6"/>
		<line class="st2" x1="78.9" y1="193.7" x2="80.5" y2="209.8"/>
	</g>
	<g>
		<path class="st3" d="M86.8,192.4v12.8c0,0.9-0.9,1.6-1.8,1.5l0,0c-0.5-0.2-0.9-0.5-0.9-1.1l-2.9-13.4"/>
		<line class="st2" x1="86.2" y1="206.5" x2="84.7" y2="191.1"/>
		<line class="st3" x1="86.4" y1="206.3" x2="85.5" y2="190.7"/>
		<line class="st3" x1="82.5" y1="190.4" x2="84.6" y2="206.5"/>
		<line class="st3" x1="85.5" y1="206.7" x2="83.1" y2="188.5"/>
		<line class="st2" x1="88" y1="194" x2="86.6" y2="206.1"/>
		<line class="st2" x1="82.9" y1="190.7" x2="84.9" y2="206.5"/>
		<line class="st3" x1="81.8" y1="190.4" x2="84.2" y2="206.3"/>
		<line class="st2" x1="84.2" y1="190.4" x2="85.8" y2="206.5"/>
	</g>
	<g>
		<path class="st3" d="M130.6,213.8v12.8c0,0.9-0.9,1.6-1.8,1.5l0,0c-0.5-0.2-0.9-0.5-0.9-1.1l-2.9-13.4"/>
		<line class="st2" x1="130" y1="227.8" x2="128.7" y2="212.6"/>
		<line class="st2" x1="130.4" y1="227.8" x2="129.3" y2="212.2"/>
		<line class="st2" x1="126.4" y1="211.8" x2="128.6" y2="228"/>
		<line class="st2" x1="129.3" y1="228.1" x2="126.9" y2="210"/>
		<line class="st2" x1="132" y1="215.5" x2="130.6" y2="227.4"/>
		<line class="st3" x1="126.9" y1="212.2" x2="128.9" y2="228"/>
		<line class="st2" x1="125.6" y1="211.8" x2="128.2" y2="227.8"/>
		<line class="st2" x1="128" y1="211.8" x2="129.8" y2="228"/>
	</g>
	<g>
		<path class="st2" d="M119.2,213.1v12.8c0,0.9-0.9,1.6-1.8,1.5l0,0c-0.5-0.2-0.9-0.5-0.9-1.1l-2.9-13.4"/>
		<line class="st3" x1="118.7" y1="227.2" x2="117.2" y2="212"/>
		<line class="st2" x1="119" y1="227.2" x2="117.9" y2="211.5"/>
		<line class="st2" x1="115" y1="211.3" x2="117" y2="227.4"/>
		<line class="st2" x1="117.9" y1="227.6" x2="115.5" y2="209.4"/>
		<line class="st3" x1="120.5" y1="214.8" x2="119" y2="226.9"/>
		<line class="st2" x1="115.4" y1="211.5" x2="117.4" y2="227.4"/>
		<line class="st3" x1="114.3" y1="211.3" x2="116.6" y2="227"/>
		<line class="st3" x1="116.6" y1="211.3" x2="118.3" y2="227.4"/>
	</g>
	<g>
		<path class="st3" d="M124.5,209.8v12.8c0,0.9-0.9,1.6-1.8,1.5l0,0c-0.5-0.2-0.9-0.5-0.9-1.1l-2.9-13.4"/>
		<line class="st2" x1="124" y1="223.9" x2="122.5" y2="208.7"/>
		<line class="st2" x1="124.3" y1="223.7" x2="123.2" y2="208.2"/>
		<line class="st2" x1="120.3" y1="208" x2="122.3" y2="223.9"/>
		<line class="st2" x1="123.2" y1="224.3" x2="120.9" y2="206.1"/>
		<line class="st3" x1="125.8" y1="211.5" x2="124.3" y2="223.6"/>
		<line class="st3" x1="120.9" y1="208.2" x2="122.7" y2="224.1"/>
		<line class="st2" x1="119.6" y1="208" x2="122" y2="223.7"/>
		<line class="st3" x1="122" y1="208" x2="123.6" y2="224.1"/>
	</g>
	<g>
		<path class="st3" d="M112.4,210.2V223c0,0.9-0.9,1.6-1.8,1.5l0,0c-0.5-0.2-0.9-0.5-0.9-1.1l-2.9-13.4"/>
		<line class="st2" x1="111.9" y1="224.3" x2="110.4" y2="208.9"/>
		<line class="st2" x1="112.2" y1="224.1" x2="111.1" y2="208.5"/>
		<line class="st2" x1="108.2" y1="208.2" x2="110.2" y2="224.3"/>
		<line class="st2" x1="111.1" y1="224.5" x2="108.8" y2="206.3"/>
		<line class="st2" x1="113.7" y1="211.8" x2="112.2" y2="223.9"/>
		<line class="st2" x1="108.8" y1="208.5" x2="110.8" y2="224.3"/>
		<line class="st2" x1="107.5" y1="208.2" x2="109.9" y2="224.1"/>
		<line class="st3" x1="109.9" y1="208.2" x2="111.5" y2="224.3"/>
	</g>
	<g>
		<path class="st2" d="M106.4,207.4v12.8c0,0.9-0.9,1.6-1.8,1.5l0,0c-0.5-0.2-0.9-0.5-0.9-1.1l-2.9-13.4"/>
		<line class="st2" x1="105.8" y1="221.4" x2="104.4" y2="206.1"/>
		<line class="st3" x1="106" y1="221.4" x2="105.1" y2="205.6"/>
		<line class="st2" x1="102.2" y1="205.4" x2="104.2" y2="221.5"/>
		<line class="st2" x1="105.1" y1="221.7" x2="102.7" y2="203.6"/>
		<line class="st2" x1="107.7" y1="209.1" x2="106.2" y2="221"/>
		<line class="st3" x1="102.5" y1="205.6" x2="104.5" y2="221.5"/>
		<line class="st2" x1="101.4" y1="205.4" x2="103.8" y2="221.2"/>
		<line class="st2" x1="103.8" y1="205.4" x2="105.5" y2="221.5"/>
	</g>
	<g>
		<path class="st3" d="M99.6,204.1V217c0,0.9-0.9,1.6-1.8,1.5l0,0c-0.5-0.2-0.9-0.5-0.9-1.1l-2.9-13.4"/>
		<line class="st2" x1="99" y1="218.1" x2="97.6" y2="202.8"/>
		<line class="st2" x1="99.4" y1="218.1" x2="98.3" y2="202.5"/>
		<line class="st2" x1="95.4" y1="202.1" x2="97.4" y2="218.2"/>
		<line class="st2" x1="98.3" y1="218.4" x2="95.9" y2="200.3"/>
		<line class="st2" x1="100.9" y1="205.8" x2="99.4" y2="217.7"/>
		<line class="st2" x1="95.9" y1="202.5" x2="97.8" y2="218.2"/>
		<line class="st2" x1="94.6" y1="202.1" x2="97" y2="218.1"/>
		<line class="st3" x1="97" y1="202.1" x2="98.7" y2="218.2"/>
	</g>
	<g>
		<path class="st2" d="M86.2,204.3v12.8c0,0.9-0.9,1.6-1.8,1.5l0,0c-0.5-0.2-0.9-0.5-0.9-1.1l-2.9-13.4"/>
		<line class="st2" x1="85.7" y1="218.4" x2="84.2" y2="203.2"/>
		<line class="st2" x1="85.8" y1="218.4" x2="84.7" y2="202.7"/>
		<line class="st2" x1="82" y1="202.5" x2="84" y2="218.6"/>
		<line class="st2" x1="84.9" y1="218.8" x2="82.5" y2="200.6"/>
		<line class="st2" x1="87.5" y1="206" x2="86" y2="218.1"/>
		<line class="st3" x1="82.4" y1="202.7" x2="84.4" y2="218.6"/>
		<line class="st3" x1="81.3" y1="202.5" x2="83.6" y2="218.2"/>
		<line class="st3" x1="83.6" y1="202.5" x2="85.3" y2="218.6"/>
	</g>
	<g>
		<path class="st3" d="M92.8,201v12.8c0,0.9-0.9,1.6-1.8,1.5l0,0c-0.5-0.2-0.9-0.5-0.9-1.1l-2.9-13.4"/>
		<line class="st2" x1="92.3" y1="215.1" x2="90.8" y2="199.7"/>
		<line class="st2" x1="92.6" y1="214.9" x2="91.5" y2="199.4"/>
		<line class="st2" x1="88.6" y1="199" x2="90.6" y2="215.1"/>
		<line class="st2" x1="91.5" y1="215.5" x2="89.1" y2="197.3"/>
		<line class="st2" x1="94.1" y1="202.7" x2="92.6" y2="214.8"/>
		<line class="st3" x1="89.1" y1="199.4" x2="91.2" y2="215.3"/>
		<line class="st2" x1="87.9" y1="199.2" x2="90.2" y2="214.9"/>
		<line class="st2" x1="90.2" y1="199.2" x2="91.9" y2="215.3"/>
	</g>
	<g>
		<path class="st3" d="M162.5,229.4v12.8c0,0.9-0.9,1.6-1.8,1.5l0,0c-0.5-0.2-0.9-0.5-0.9-1.1l-2.9-13.4"/>
		<line class="st2" x1="161.9" y1="243.5" x2="160.6" y2="228.3"/>
		<line class="st2" x1="162.3" y1="243.5" x2="161.2" y2="227.8"/>
		<line class="st2" x1="158.2" y1="227.6" x2="160.3" y2="243.5"/>
		<line class="st2" x1="161.2" y1="243.9" x2="158.8" y2="225.8"/>
		<line class="st2" x1="163.9" y1="231.1" x2="162.5" y2="243.2"/>
		<line class="st3" x1="158.8" y1="227.8" x2="160.8" y2="243.7"/>
		<line class="st2" x1="157.5" y1="227.6" x2="159.9" y2="243.4"/>
		<line class="st2" x1="159.9" y1="227.6" x2="161.7" y2="243.7"/>
	</g>
	<g>
		<path class="st2" d="M155.7,226.3v12.8c0,0.9-0.9,1.6-1.8,1.5l0,0c-0.5-0.2-0.9-0.5-0.9-1.1l-2.9-13.4"/>
		<line class="st2" x1="155.1" y1="240.2" x2="153.8" y2="225"/>
		<line class="st3" x1="155.5" y1="240.2" x2="154.4" y2="224.5"/>
		<line class="st2" x1="151.6" y1="224.3" x2="153.7" y2="240.4"/>
		<line class="st2" x1="154.4" y1="240.6" x2="152" y2="222.5"/>
		<line class="st2" x1="157.1" y1="228" x2="155.7" y2="239.9"/>
		<line class="st2" x1="152" y1="224.7" x2="154" y2="240.4"/>
		<line class="st3" x1="150.7" y1="224.3" x2="153.3" y2="240.1"/>
		<line class="st2" x1="153.1" y1="224.3" x2="154.9" y2="240.4"/>
	</g>
	<g>
		<path class="st2" d="M148.9,223.2V236c0,0.9-0.9,1.6-1.8,1.5l0,0c-0.5-0.2-0.9-0.5-0.9-1.1l-2.9-13.4"/>
		<line class="st2" x1="148.3" y1="237.3" x2="147.1" y2="221.9"/>
		<line class="st3" x1="148.7" y1="237.1" x2="147.6" y2="221.5"/>
		<line class="st2" x1="144.9" y1="221.2" x2="146.9" y2="237.3"/>
		<line class="st2" x1="147.8" y1="237.5" x2="145.2" y2="219.5"/>
		<line class="st3" x1="150.4" y1="224.8" x2="148.9" y2="236.9"/>
		<line class="st3" x1="145.2" y1="221.5" x2="147.2" y2="237.3"/>
		<line class="st2" x1="143.9" y1="221.4" x2="146.5" y2="237.1"/>
		<line class="st2" x1="146.5" y1="221.2" x2="148.2" y2="237.5"/>
	</g>
	<g>
		<path class="st2" d="M142.8,219.7v12.8c0,0.9-0.9,1.6-1.8,1.5l0,0c-0.5-0.2-0.9-0.5-0.9-1.1l-2.9-13.4"/>
		<line class="st2" x1="142.3" y1="233.8" x2="141" y2="218.4"/>
		<line class="st2" x1="142.7" y1="233.6" x2="141.6" y2="218.1"/>
		<line class="st2" x1="138.6" y1="217.7" x2="140.6" y2="233.8"/>
		<line class="st2" x1="141.6" y1="234" x2="139.2" y2="216"/>
		<line class="st3" x1="144.3" y1="221.4" x2="142.8" y2="233.5"/>
		<line class="st2" x1="139.2" y1="218.1" x2="141.2" y2="233.8"/>
		<line class="st3" x1="137.9" y1="217.9" x2="140.3" y2="233.6"/>
		<line class="st3" x1="140.3" y1="217.7" x2="142.1" y2="233.8"/>
	</g>
	<g>
		<path class="st3" d="M136.6,217v12.8c0,0.9-0.9,1.6-1.8,1.5l0,0c-0.5-0.2-0.9-0.5-0.9-1.1l-2.9-13.4"/>
		<line class="st2" x1="136.1" y1="230.9" x2="134.6" y2="215.7"/>
		<line class="st2" x1="136.2" y1="230.9" x2="135.1" y2="215.1"/>
		<line class="st2" x1="132.4" y1="214.9" x2="134.4" y2="231.1"/>
		<line class="st2" x1="135.3" y1="231.3" x2="132.9" y2="213.1"/>
		<line class="st2" x1="137.9" y1="218.6" x2="136.4" y2="230.5"/>
		<line class="st2" x1="132.8" y1="215.3" x2="134.8" y2="231.1"/>
		<line class="st3" x1="131.7" y1="214.9" x2="134" y2="230.7"/>
		<line class="st3" x1="134" y1="214.9" x2="135.7" y2="231.1"/>
	</g>
	<g>
		<path class="st2" d="M67.7,202.5v12.8c0,0.9-0.9,1.6-1.8,1.5l0,0c-0.5-0.2-0.9-0.5-0.9-1.1l-3.3-13.6"/>
		<line class="st2" x1="67" y1="216.4" x2="65.7" y2="201.2"/>
		<line class="st3" x1="67.3" y1="216.4" x2="66.2" y2="200.6"/>
		<line class="st2" x1="63.5" y1="200.5" x2="65.5" y2="216.6"/>
		<line class="st2" x1="66.4" y1="216.8" x2="64" y2="198.6"/>
		<line class="st2" x1="69" y1="204.1" x2="67.5" y2="216"/>
		<line class="st3" x1="63.8" y1="200.6" x2="65.9" y2="216.6"/>
		<line class="st2" x1="62.6" y1="200.5" x2="65.1" y2="216.2"/>
		<line class="st2" x1="65.1" y1="200.5" x2="66.8" y2="216.6"/>
	</g>
	<g>
		<path class="st2" d="M105.6,227.2V241c0,0-0.7,1.3-2.7,0.2L99.8,227"/>
		<line class="st2" x1="105.1" y1="241.2" x2="103.8" y2="225.9"/>
		<line class="st2" x1="105.5" y1="241.2" x2="104.4" y2="225.4"/>
		<line class="st2" x1="101.6" y1="225.2" x2="103.6" y2="241.3"/>
		<line class="st2" x1="104.4" y1="241.5" x2="102" y2="223.4"/>
		<line class="st3" x1="107.1" y1="228.9" x2="105.6" y2="240.8"/>
		<line class="st2" x1="102" y1="225.6" x2="104" y2="241.3"/>
		<line class="st2" x1="100.7" y1="225.2" x2="103.3" y2="241"/>
		<line class="st2" x1="103.3" y1="225.2" x2="104.9" y2="241.3"/>
	</g>
	<g>
		<path class="st2" d="M118.7,220.4v12.8c0,0.9-0.9,1.6-1.8,1.5l0,0c-0.5-0.2-0.9-0.5-0.9-1.1l-2.9-13.4"/>
		<line class="st2" x1="118.1" y1="234.6" x2="116.6" y2="219.2"/>
		<line class="st2" x1="118.3" y1="234.4" x2="117.4" y2="218.8"/>
		<line class="st2" x1="114.4" y1="218.4" x2="116.5" y2="234.6"/>
		<line class="st2" x1="117.4" y1="234.7" x2="115" y2="216.8"/>
		<line class="st2" x1="119.9" y1="222.1" x2="118.5" y2="234.2"/>
		<line class="st3" x1="114.8" y1="218.8" x2="116.8" y2="234.6"/>
		<line class="st2" x1="113.7" y1="218.6" x2="116.1" y2="234.4"/>
		<line class="st2" x1="116.1" y1="218.6" x2="117.7" y2="234.7"/>
	</g>
	<g>
		<path class="st2" d="M125.3,217.1V230c0,0.9-0.9,1.6-1.8,1.5l0,0c-0.5-0.2-0.9-0.5-0.9-1.1l-2.9-13.4"/>
		<line class="st2" x1="124.7" y1="231.3" x2="123.4" y2="215.9"/>
		<line class="st2" x1="125.1" y1="231.1" x2="124" y2="215.5"/>
		<line class="st2" x1="121" y1="215.1" x2="123.2" y2="231.3"/>
		<line class="st2" x1="124" y1="231.4" x2="121.6" y2="213.3"/>
		<line class="st2" x1="126.7" y1="218.8" x2="125.3" y2="230.9"/>
		<line class="st3" x1="121.6" y1="215.5" x2="123.6" y2="231.3"/>
		<line class="st2" x1="120.3" y1="215.3" x2="122.9" y2="231.1"/>
		<line class="st2" x1="122.7" y1="215.1" x2="124.5" y2="231.3"/>
	</g>
	<g>
		<path class="st2" d="M99.6,223.2v13.7c0,0-0.7,1.3-2.7,0.2L93.7,223"/>
		<line class="st2" x1="99" y1="237.3" x2="97.8" y2="221.9"/>
		<line class="st2" x1="99.4" y1="237.1" x2="98.3" y2="221.5"/>
		<line class="st2" x1="95.4" y1="221.2" x2="97.4" y2="237.3"/>
		<line class="st2" x1="98.3" y1="237.5" x2="95.9" y2="219.5"/>
		<line class="st2" x1="100.9" y1="224.8" x2="99.6" y2="236.9"/>
		<line class="st2" x1="95.9" y1="221.5" x2="97.9" y2="237.3"/>
		<line class="st2" x1="94.6" y1="221.4" x2="97" y2="237.1"/>
		<line class="st2" x1="97" y1="221.4" x2="98.7" y2="237.5"/>
	</g>
	<g>
		<path class="st2" d="M86.8,217.3v13.7c0,0-0.7,1.3-2.7,0.2l-3.1-14.1"/>
		<line class="st2" x1="86.2" y1="231.4" x2="84.7" y2="216"/>
		<line class="st2" x1="86.6" y1="231.3" x2="85.5" y2="215.7"/>
		<line class="st2" x1="82.5" y1="215.3" x2="84.6" y2="231.4"/>
		<line class="st2" x1="85.5" y1="231.8" x2="83.1" y2="213.7"/>
		<line class="st3" x1="88" y1="219" x2="86.6" y2="231.1"/>
		<line class="st2" x1="83.1" y1="215.7" x2="84.9" y2="231.6"/>
		<line class="st2" x1="81.8" y1="215.5" x2="84.2" y2="231.3"/>
		<line class="st2" x1="84.2" y1="215.5" x2="85.8" y2="231.6"/>
	</g>
	<g>
		<path class="st2" d="M92.6,214v12.8c0,0.9-0.9,1.6-1.8,1.5l0,0c-0.5-0.2-0.9-0.5-0.9-1.1l-2.9-13.4"/>
		<line class="st2" x1="92.1" y1="228.1" x2="90.6" y2="212.7"/>
		<line class="st2" x1="92.3" y1="228" x2="91.2" y2="212.4"/>
		<line class="st2" x1="88.4" y1="212" x2="90.4" y2="228.1"/>
		<line class="st2" x1="91.3" y1="228.3" x2="89" y2="210.4"/>
		<line class="st2" x1="93.9" y1="215.7" x2="92.4" y2="227.8"/>
		<line class="st2" x1="88.8" y1="212.4" x2="90.8" y2="228.1"/>
		<line class="st3" x1="87.7" y1="212.2" x2="90.1" y2="228"/>
		<line class="st3" x1="90.1" y1="212" x2="91.7" y2="228.1"/>
	</g>
	<g>
		<path class="st2" d="M80,214v13.7c0,0-0.7,1.3-2.7,0.2l-3.1-14.1"/>
		<line class="st2" x1="79.4" y1="228.1" x2="78.1" y2="212.9"/>
		<line class="st2" x1="79.8" y1="228.1" x2="78.7" y2="212.4"/>
		<line class="st2" x1="75.8" y1="212.2" x2="77.8" y2="228.3"/>
		<line class="st2" x1="78.7" y1="228.5" x2="76.3" y2="210.4"/>
		<line class="st2" x1="81.3" y1="215.7" x2="80" y2="227.8"/>
		<line class="st2" x1="76.3" y1="212.4" x2="78.3" y2="228.3"/>
		<line class="st2" x1="75" y1="212.2" x2="77.4" y2="228"/>
		<line class="st2" x1="77.4" y1="212.2" x2="79.1" y2="228.3"/>
	</g>
	<g>
		<path class="st3" d="M61.8,205.8v13.7c0,0-0.7,1.3-2.7,0.2L56,205.6"/>
		<line class="st2" x1="61.3" y1="219.7" x2="59.8" y2="204.5"/>
		<line class="st3" x1="61.5" y1="219.7" x2="60.5" y2="203.9"/>
		<line class="st2" x1="57.6" y1="203.8" x2="59.6" y2="219.9"/>
		<line class="st3" x1="60.5" y1="220.1" x2="58.2" y2="201.9"/>
		<line class="st2" x1="63.1" y1="207.4" x2="61.6" y2="219.3"/>
		<line class="st3" x1="58" y1="204.1" x2="60" y2="219.9"/>
		<line class="st2" x1="56.9" y1="203.8" x2="59.3" y2="219.7"/>
		<line class="st2" x1="59.3" y1="203.8" x2="60.9" y2="219.9"/>
	</g>
	<g>
		<path class="st2" d="M143.6,245.7v13.7c0,0-0.7,1.3-2.7,0.2l-3.1-14.1"/>
		<line class="st2" x1="143" y1="259.7" x2="141.7" y2="244.5"/>
		<line class="st2" x1="143.4" y1="259.7" x2="142.3" y2="243.9"/>
		<line class="st2" x1="139.5" y1="243.7" x2="141.6" y2="259.8"/>
		<line class="st2" x1="142.5" y1="260" x2="139.9" y2="241.9"/>
		<line class="st2" x1="145" y1="247.4" x2="143.6" y2="259.3"/>
		<line class="st2" x1="139.9" y1="244.1" x2="141.9" y2="259.8"/>
		<line class="st2" x1="138.6" y1="243.7" x2="141.2" y2="259.5"/>
		<line class="st2" x1="141.2" y1="243.7" x2="142.8" y2="259.8"/>
	</g>
	<g>
		<path class="st3" d="M137.5,242.8v13.7c0,0-0.7,1.3-2.7,0.2l-3.1-14.1"/>
		<line class="st2" x1="137" y1="256.9" x2="135.7" y2="241.5"/>
		<line class="st2" x1="137.3" y1="256.7" x2="136.2" y2="241.2"/>
		<line class="st2" x1="133.5" y1="240.8" x2="135.5" y2="256.9"/>
		<line class="st2" x1="136.2" y1="257.3" x2="133.9" y2="239.1"/>
		<line class="st2" x1="139" y1="244.5" x2="137.5" y2="256.6"/>
		<line class="st2" x1="133.9" y1="241.2" x2="135.9" y2="256.9"/>
		<line class="st2" x1="132.6" y1="241" x2="135.1" y2="256.7"/>
		<line class="st3" x1="135" y1="241" x2="136.8" y2="257.1"/>
	</g>
	<g>
		<path class="st2" d="M143.4,239.5v12.8c0,0.9-0.9,1.6-1.8,1.5l0,0c-0.5-0.2-0.9-0.5-0.9-1.1l-2.9-13.4"/>
		<line class="st2" x1="142.8" y1="253.6" x2="141.4" y2="238.2"/>
		<line class="st2" x1="143.2" y1="253.4" x2="142.1" y2="237.9"/>
		<line class="st2" x1="139.2" y1="237.5" x2="141.2" y2="253.6"/>
		<line class="st2" x1="142.1" y1="253.8" x2="139.7" y2="235.8"/>
		<line class="st3" x1="144.7" y1="241.2" x2="143.2" y2="253.3"/>
		<line class="st2" x1="139.7" y1="237.9" x2="141.7" y2="253.6"/>
		<line class="st2" x1="138.4" y1="237.7" x2="140.8" y2="253.4"/>
		<line class="st2" x1="140.8" y1="237.5" x2="142.5" y2="253.6"/>
	</g>
	<g>
		<path class="st2" d="M150.5,236.2V249c0,0.9-0.9,1.6-1.8,1.5l0,0c-0.5-0.2-0.9-0.5-0.9-1.1l-2.9-13.4"/>
		<line class="st2" x1="150" y1="250.1" x2="148.5" y2="234.9"/>
		<line class="st2" x1="150.2" y1="250.1" x2="149.3" y2="234.6"/>
		<line class="st2" x1="146.3" y1="234.2" x2="148.3" y2="250.3"/>
		<line class="st2" x1="149.3" y1="250.5" x2="146.9" y2="232.4"/>
		<line class="st2" x1="151.8" y1="237.9" x2="150.4" y2="249.8"/>
		<line class="st2" x1="146.7" y1="234.6" x2="148.7" y2="250.3"/>
		<line class="st2" x1="145.6" y1="234.2" x2="148" y2="250.1"/>
		<line class="st2" x1="148" y1="234.2" x2="149.6" y2="250.3"/>
	</g>
	<g>
		<path class="st2" d="M157.1,232.9v12.8c0,0.9-0.9,1.6-1.8,1.5l0,0c-0.5-0.2-0.9-0.5-0.9-1.1l-2.9-13.4"/>
		<line class="st2" x1="156.6" y1="246.8" x2="155.3" y2="231.6"/>
		<line class="st2" x1="157" y1="246.8" x2="155.9" y2="231.1"/>
		<line class="st2" x1="152.9" y1="230.9" x2="154.9" y2="247"/>
		<line class="st2" x1="155.9" y1="247.2" x2="153.5" y2="229.1"/>
		<line class="st2" x1="158.6" y1="234.4" x2="157.1" y2="246.5"/>
		<line class="st2" x1="153.5" y1="231.1" x2="155.5" y2="247"/>
		<line class="st2" x1="152.2" y1="230.9" x2="154.6" y2="246.7"/>
		<line class="st2" x1="154.6" y1="230.9" x2="156.4" y2="247"/>
	</g>
	<g>
		<path class="st2" d="M130.8,239.5v13.7c0,0-0.7,1.3-2.7,0.2l-3.1-14.1"/>
		<line class="st2" x1="130.2" y1="253.6" x2="128.9" y2="238.4"/>
		<line class="st2" x1="130.6" y1="253.6" x2="129.5" y2="237.9"/>
		<line class="st2" x1="126.7" y1="237.7" x2="128.7" y2="253.8"/>
		<line class="st2" x1="129.7" y1="254" x2="127.1" y2="235.8"/>
		<line class="st2" x1="132.2" y1="241.2" x2="130.8" y2="253.3"/>
		<line class="st2" x1="127.1" y1="237.9" x2="129.1" y2="253.8"/>
		<line class="st2" x1="125.8" y1="237.7" x2="128.4" y2="253.4"/>
		<line class="st2" x1="128.4" y1="237.7" x2="130" y2="253.8"/>
	</g>
	<g>
		<path class="st2" d="M150.4,229.6v12.8c0,0.9-0.9,1.6-1.8,1.5l0,0c-0.5-0.2-0.9-0.5-0.9-1.1l-2.9-13.4"/>
		<line class="st2" x1="149.8" y1="243.5" x2="148.5" y2="228.3"/>
		<line class="st3" x1="150.2" y1="243.5" x2="149.1" y2="228"/>
		<line class="st2" x1="146.1" y1="227.6" x2="148.3" y2="243.7"/>
		<line class="st2" x1="149.1" y1="243.9" x2="146.7" y2="225.8"/>
		<line class="st2" x1="151.8" y1="231.3" x2="150.4" y2="243.2"/>
		<line class="st3" x1="146.7" y1="228" x2="148.7" y2="243.7"/>
		<line class="st2" x1="145.4" y1="227.6" x2="148" y2="243.5"/>
		<line class="st3" x1="147.8" y1="227.6" x2="149.6" y2="243.7"/>
	</g>
	<g>
		<path class="st2" d="M124,236.6v13.7c0,0-0.7,1.3-2.7,0.2l-3.1-14.1"/>
		<line class="st2" x1="123.4" y1="250.7" x2="122.1" y2="235.3"/>
		<line class="st2" x1="123.8" y1="250.5" x2="122.7" y2="234.9"/>
		<line class="st2" x1="119.9" y1="234.6" x2="122" y2="250.7"/>
		<line class="st2" x1="122.9" y1="250.9" x2="120.3" y2="232.7"/>
		<line class="st2" x1="125.4" y1="238.2" x2="124" y2="250.3"/>
		<line class="st2" x1="120.3" y1="234.9" x2="122.3" y2="250.7"/>
		<line class="st2" x1="119" y1="234.6" x2="121.6" y2="250.5"/>
		<line class="st2" x1="121.6" y1="234.6" x2="123.2" y2="250.7"/>
	</g>
	<g>
		<path class="st2" d="M129.8,233.3v12.8c0,0.9-0.9,1.6-1.8,1.5l0,0c-0.5-0.2-0.9-0.5-0.9-1.1l-2.9-13.4"/>
		<line class="st2" x1="129.3" y1="247.2" x2="128" y2="232"/>
		<line class="st3" x1="129.7" y1="247.2" x2="128.6" y2="231.4"/>
		<line class="st2" x1="125.6" y1="231.3" x2="127.6" y2="247.4"/>
		<line class="st2" x1="128.6" y1="247.6" x2="126.2" y2="229.4"/>
		<line class="st2" x1="131.3" y1="234.9" x2="129.8" y2="246.8"/>
		<line class="st2" x1="126.2" y1="231.6" x2="128.2" y2="247.4"/>
		<line class="st2" x1="124.9" y1="231.3" x2="127.3" y2="247.2"/>
		<line class="st2" x1="127.3" y1="231.3" x2="129.1" y2="247.4"/>
	</g>
	<g>
		<path class="st2" d="M143.6,226.5v12.8c0,0.9-0.9,1.6-1.8,1.5l0,0c-0.5-0.2-0.9-0.5-0.9-1.1l-2.9-13.4"/>
		<line class="st2" x1="143" y1="240.6" x2="141.7" y2="225.2"/>
		<line class="st2" x1="143.4" y1="240.4" x2="142.3" y2="224.8"/>
		<line class="st2" x1="139.5" y1="224.5" x2="141.6" y2="240.6"/>
		<line class="st2" x1="142.3" y1="241" x2="139.9" y2="222.8"/>
		<line class="st2" x1="145" y1="228.1" x2="143.6" y2="240.2"/>
		<line class="st2" x1="139.9" y1="224.8" x2="141.9" y2="240.6"/>
		<line class="st3" x1="138.6" y1="224.7" x2="141.2" y2="240.4"/>
		<line class="st3" x1="141.2" y1="224.7" x2="142.8" y2="240.8"/>
	</g>
	<g>
		<path class="st3" d="M131.3,220.3v12.8c0,0.9-0.9,1.6-1.8,1.5l0,0c-0.5-0.2-0.9-0.5-0.9-1.1l-2.9-13.4"/>
		<line class="st2" x1="130.8" y1="234.2" x2="129.3" y2="219"/>
		<line class="st2" x1="130.9" y1="234.2" x2="129.8" y2="218.6"/>
		<line class="st2" x1="127.1" y1="218.2" x2="129.1" y2="234.4"/>
		<line class="st2" x1="130" y1="234.6" x2="127.6" y2="216.4"/>
		<line class="st2" x1="132.6" y1="221.9" x2="131.1" y2="233.8"/>
		<line class="st3" x1="127.5" y1="218.6" x2="129.5" y2="234.4"/>
		<line class="st2" x1="126.4" y1="218.2" x2="128.7" y2="234.2"/>
		<line class="st3" x1="128.7" y1="218.2" x2="130.4" y2="234.4"/>
	</g>
	<g>
		<path class="st2" d="M90.6,239.5v12.8c0,0.9-0.9,1.6-1.8,1.5l0,0c-0.5-0.2-0.9-0.5-0.9-1.1l-2.9-13.4"/>
		<line class="st2" x1="90.1" y1="253.4" x2="88.8" y2="238.2"/>
		<line class="st2" x1="90.4" y1="253.4" x2="89.3" y2="237.7"/>
		<line class="st2" x1="86.6" y1="237.5" x2="88.6" y2="253.6"/>
		<line class="st2" x1="89.3" y1="253.8" x2="86.9" y2="235.7"/>
		<line class="st2" x1="92.1" y1="241.2" x2="90.6" y2="253.1"/>
		<line class="st3" x1="86.9" y1="237.9" x2="89" y2="253.6"/>
		<line class="st2" x1="85.7" y1="237.5" x2="88.2" y2="253.4"/>
		<line class="st2" x1="88.2" y1="237.5" x2="89.9" y2="253.6"/>
	</g>
	<g>
		<path class="st2" d="M84.4,229.1v12.8c0,0.9-0.9,1.6-1.8,1.5l0,0c-0.5-0.2-0.9-0.5-0.9-1.1l-2.9-13.4"/>
		<line class="st2" x1="83.8" y1="243.2" x2="82.5" y2="228"/>
		<line class="st2" x1="84.2" y1="243.2" x2="83.1" y2="227.4"/>
		<line class="st2" x1="80.3" y1="227.2" x2="82.4" y2="243.4"/>
		<line class="st2" x1="83.3" y1="243.5" x2="80.7" y2="225.4"/>
		<line class="st2" x1="85.8" y1="230.7" x2="84.4" y2="242.8"/>
		<line class="st2" x1="80.7" y1="227.4" x2="82.7" y2="243.4"/>
		<line class="st3" x1="79.4" y1="227.2" x2="82" y2="243"/>
		<line class="st2" x1="82" y1="227.2" x2="83.6" y2="243.4"/>
	</g>
	<g>
		<path class="st2" d="M71.7,229.6v12.8c0,0.9-0.9,1.6-1.8,1.5l0,0c-0.5-0.2-0.9-0.5-0.9-1.1L66,229.4"/>
		<line class="st2" x1="71.2" y1="243.7" x2="69.7" y2="228.5"/>
		<line class="st2" x1="71.5" y1="243.5" x2="70.4" y2="228"/>
		<line class="st2" x1="67.5" y1="227.8" x2="69.5" y2="243.7"/>
		<line class="st2" x1="70.4" y1="244.1" x2="68.1" y2="225.9"/>
		<line class="st2" x1="73" y1="231.3" x2="71.5" y2="243.4"/>
		<line class="st2" x1="68.1" y1="228" x2="69.9" y2="243.9"/>
		<line class="st3" x1="66.8" y1="227.8" x2="69.2" y2="243.5"/>
		<line class="st3" x1="69.2" y1="227.8" x2="70.8" y2="243.9"/>
	</g>
	<g>
		<path class="st2" d="M78.3,226.3v12.8c0,0.9-0.9,1.6-1.8,1.5l0,0c-0.5-0.2-0.9-0.5-0.9-1.1l-2.9-13.4"/>
		<line class="st2" x1="77.8" y1="240.4" x2="76.5" y2="225"/>
		<line class="st2" x1="78.1" y1="240.2" x2="77" y2="224.7"/>
		<line class="st2" x1="74.3" y1="224.3" x2="76.3" y2="240.4"/>
		<line class="st2" x1="77" y1="240.6" x2="74.7" y2="222.6"/>
		<line class="st2" x1="79.8" y1="228" x2="78.3" y2="240.1"/>
		<line class="st2" x1="74.7" y1="224.7" x2="76.7" y2="240.4"/>
		<line class="st3" x1="73.4" y1="224.5" x2="75.9" y2="240.2"/>
		<line class="st3" x1="75.9" y1="224.3" x2="77.6" y2="240.4"/>
	</g>
	<g>
		<line class="st2" x1="83.1" y1="237.1" x2="81.8" y2="221.7"/>
		<line class="st2" x1="83.5" y1="236.9" x2="82.4" y2="221.4"/>
		<line class="st3" x1="85.1" y1="224.7" x2="83.6" y2="236.8"/>
		<path class="st3" d="M83.6,223v12.8c0,0.9-0.9,1.6-1.8,1.5l0,0c-0.5-0.2-0.9-0.5-0.9-1.1L78,222.8"/>
		<line class="st2" x1="79.6" y1="221" x2="81.6" y2="237.1"/>
		<line class="st2" x1="82.4" y1="237.3" x2="80" y2="219.2"/>
		<line class="st3" x1="80" y1="221.4" x2="82" y2="237.1"/>
		<line class="st2" x1="78.7" y1="221" x2="81.3" y2="236.9"/>
		<line class="st3" x1="81.3" y1="221" x2="82.9" y2="237.1"/>
	</g>
	<g>
		<path class="st2" d="M71.5,223v12.8c0,0.9-0.9,1.6-1.8,1.5l0,0c-0.5-0.2-0.9-0.5-0.9-1.1l-2.9-13.4"/>
		<line class="st2" x1="71" y1="237.1" x2="69.7" y2="221.9"/>
		<line class="st3" x1="71.4" y1="236.9" x2="70.3" y2="221.4"/>
		<line class="st2" x1="67.5" y1="221.2" x2="69.5" y2="237.1"/>
		<line class="st2" x1="70.4" y1="237.5" x2="67.9" y2="219.3"/>
		<line class="st2" x1="73" y1="224.7" x2="71.5" y2="236.8"/>
		<line class="st3" x1="67.9" y1="221.4" x2="69.9" y2="237.3"/>
		<line class="st3" x1="66.6" y1="221.2" x2="69.2" y2="236.9"/>
		<line class="st2" x1="69.2" y1="221.2" x2="70.8" y2="237.3"/>
	</g>
	<g>
		<path class="st2" d="M64,213.3v12.8c0,0.9-0.9,1.6-1.8,1.5l0,0c-0.5-0.2-0.9-0.5-0.9-1.1l-2.9-13.4"/>
		<line class="st2" x1="63.5" y1="227.2" x2="62.2" y2="212"/>
		<line class="st2" x1="63.8" y1="227.2" x2="62.7" y2="211.5"/>
		<line class="st2" x1="60" y1="211.3" x2="62" y2="227.4"/>
		<line class="st2" x1="62.7" y1="227.6" x2="60.4" y2="209.4"/>
		<line class="st2" x1="65.5" y1="214.9" x2="64" y2="226.9"/>
		<line class="st2" x1="60.4" y1="211.5" x2="62.4" y2="227.4"/>
		<line class="st3" x1="59.1" y1="211.3" x2="61.6" y2="227"/>
		<line class="st3" x1="61.6" y1="211.3" x2="63.3" y2="227.4"/>
	</g>
	<g>
		<path class="st3" d="M50.8,213.1v12.8c0,0.9-0.9,1.6-1.8,1.5l0,0c-0.5-0.2-0.9-0.5-0.9-1.1l-2.9-13.4"/>
		<line class="st2" x1="50.3" y1="227.2" x2="48.8" y2="211.8"/>
		<line class="st2" x1="50.6" y1="227" x2="49.5" y2="211.5"/>
		<line class="st2" x1="46.6" y1="211.1" x2="48.6" y2="227.2"/>
		<line class="st2" x1="49.5" y1="227.4" x2="47.2" y2="209.3"/>
		<line class="st3" x1="52.1" y1="214.8" x2="50.6" y2="226.9"/>
		<line class="st3" x1="47.2" y1="211.5" x2="49" y2="227.2"/>
		<line class="st2" x1="45.9" y1="211.3" x2="48.3" y2="227"/>
		<line class="st2" x1="48.3" y1="211.1" x2="49.9" y2="227.2"/>
	</g>
	<g>
		<path class="st2" d="M57.8,210.4v12.8c0,0.9-0.9,1.6-1.8,1.5l0,0c-0.5-0.2-0.9-0.5-0.9-1.1l-2.9-13.4"/>
		<line class="st2" x1="57.2" y1="224.5" x2="55.8" y2="209.1"/>
		<line class="st2" x1="57.6" y1="224.3" x2="56.5" y2="208.7"/>
		<line class="st2" x1="53.6" y1="208.3" x2="55.6" y2="224.5"/>
		<line class="st2" x1="56.5" y1="224.8" x2="54.1" y2="206.7"/>
		<line class="st2" x1="59.1" y1="212" x2="57.6" y2="224.1"/>
		<line class="st2" x1="53.9" y1="208.7" x2="56" y2="224.5"/>
		<line class="st2" x1="52.8" y1="208.5" x2="55.2" y2="224.3"/>
		<line class="st3" x1="55.2" y1="208.5" x2="56.9" y2="224.7"/>
	</g>
	<g>
		<path class="st2" d="M122.5,248.5v12.8c0,0.9-0.9,1.6-1.8,1.5l0,0c-0.5-0.2-0.9-0.5-0.9-1.1l-2.9-13.4"/>
		<line class="st2" x1="122" y1="262.6" x2="120.5" y2="247.4"/>
		<line class="st3" x1="122.1" y1="262.4" x2="121" y2="246.8"/>
		<line class="st2" x1="118.3" y1="246.7" x2="120.3" y2="262.6"/>
		<line class="st2" x1="121.2" y1="263" x2="118.8" y2="244.8"/>
		<line class="st2" x1="123.8" y1="250.1" x2="122.3" y2="262.2"/>
		<line class="st2" x1="118.7" y1="246.8" x2="120.7" y2="262.8"/>
		<line class="st2" x1="117.6" y1="246.7" x2="119.9" y2="262.4"/>
		<line class="st2" x1="119.9" y1="246.7" x2="121.6" y2="262.8"/>
	</g>
	<g>
		<path class="st2" d="M102.9,245.4v12.8c0,0.9-0.9,1.6-1.8,1.5l0,0c-0.5-0.2-0.9-0.5-0.9-1.1l-2.9-13.4"/>
		<line class="st2" x1="102.3" y1="259.5" x2="101.1" y2="244.1"/>
		<line class="st2" x1="102.7" y1="259.3" x2="101.6" y2="243.7"/>
		<line class="st2" x1="98.7" y1="243.4" x2="100.9" y2="259.5"/>
		<line class="st2" x1="101.6" y1="259.7" x2="99.2" y2="241.5"/>
		<line class="st2" x1="104.4" y1="247" x2="102.9" y2="259.1"/>
		<line class="st3" x1="99.2" y1="243.7" x2="101.2" y2="259.5"/>
		<line class="st3" x1="97.9" y1="243.4" x2="100.5" y2="259.3"/>
		<line class="st2" x1="100.3" y1="243.4" x2="102.2" y2="259.5"/>
	</g>
	<g>
		<path class="st2" d="M135.1,254.5v12.8c0,0.9-0.9,1.6-1.8,1.5l0,0c-0.5-0.2-0.9-0.5-0.9-1.1l-2.9-13.4"/>
		<line class="st2" x1="134.6" y1="268.6" x2="133.1" y2="253.3"/>
		<line class="st2" x1="135" y1="268.5" x2="133.9" y2="252.9"/>
		<line class="st2" x1="130.9" y1="252.5" x2="132.9" y2="268.6"/>
		<line class="st2" x1="133.9" y1="268.8" x2="131.5" y2="250.9"/>
		<line class="st3" x1="136.4" y1="256.2" x2="135" y2="268.3"/>
		<line class="st2" x1="131.3" y1="252.9" x2="133.3" y2="268.6"/>
		<line class="st3" x1="130.2" y1="252.7" x2="132.6" y2="268.5"/>
		<line class="st3" x1="132.6" y1="252.7" x2="134.2" y2="268.8"/>
	</g>
	<g>
		<path class="st3" d="M161.2,239.9v12.8c0,0.9-0.9,1.6-1.8,1.5l0,0c-0.5-0.2-0.9-0.5-0.9-1.1l-3.3-13.6"/>
		<line class="st2" x1="160.6" y1="254" x2="159.2" y2="238.6"/>
		<line class="st2" x1="161" y1="253.8" x2="159.9" y2="238.2"/>
		<line class="st2" x1="157" y1="237.9" x2="159" y2="254"/>
		<line class="st2" x1="159.9" y1="254.2" x2="157.5" y2="236"/>
		<line class="st2" x1="162.5" y1="241.5" x2="161" y2="253.4"/>
		<line class="st3" x1="157.5" y1="238.2" x2="159.5" y2="254"/>
		<line class="st2" x1="156.2" y1="237.9" x2="158.6" y2="253.8"/>
		<line class="st2" x1="158.6" y1="237.9" x2="160.3" y2="254"/>
	</g>
	<g>
		<path class="st3" d="M150,247.6v12.8c0,0.9-0.9,1.6-1.8,1.5l0,0c-0.5-0.2-0.9-0.5-0.9-1.1l-2.9-13.4"/>
		<line class="st2" x1="149.4" y1="261.7" x2="148.2" y2="246.3"/>
		<line class="st2" x1="149.8" y1="261.5" x2="148.7" y2="245.9"/>
		<line class="st2" x1="146" y1="245.6" x2="148" y2="261.7"/>
		<line class="st2" x1="148.9" y1="261.9" x2="146.3" y2="243.7"/>
		<line class="st2" x1="151.5" y1="249.2" x2="150" y2="261.3"/>
		<line class="st2" x1="146.3" y1="245.9" x2="148.3" y2="261.7"/>
		<line class="st2" x1="145" y1="245.7" x2="147.6" y2="261.5"/>
		<line class="st3" x1="147.6" y1="245.6" x2="149.3" y2="261.7"/>
	</g>
	<g>
		<path class="st3" d="M156,242.4v12.8c0,0.9-0.9,1.6-1.8,1.5l0,0c-0.5-0.2-0.9-0.5-0.9-1.1l-2.9-13.4"/>
		<line class="st2" x1="155.5" y1="256.6" x2="154.2" y2="241.3"/>
		<line class="st2" x1="155.9" y1="256.4" x2="154.8" y2="240.8"/>
		<line class="st2" x1="152" y1="240.6" x2="154" y2="256.6"/>
		<line class="st2" x1="154.9" y1="256.9" x2="152.4" y2="238.8"/>
		<line class="st2" x1="157.5" y1="244.1" x2="156" y2="256.2"/>
		<line class="st2" x1="152.4" y1="240.8" x2="154.4" y2="256.7"/>
		<line class="st2" x1="151.1" y1="240.6" x2="153.7" y2="256.4"/>
		<line class="st2" x1="153.7" y1="240.6" x2="155.3" y2="256.7"/>
	</g>
	<g>
		<path class="st2" d="M142.7,252v12.8c0,0.9-0.9,1.6-1.8,1.5l0,0c-0.5-0.2-0.9-0.5-0.9-1.1l-2.9-13.4"/>
		<line class="st2" x1="142.1" y1="265.9" x2="140.6" y2="250.7"/>
		<line class="st3" x1="142.3" y1="265.9" x2="141.2" y2="250.1"/>
		<line class="st2" x1="138.4" y1="250" x2="140.5" y2="266.1"/>
		<line class="st2" x1="141.4" y1="266.3" x2="139" y2="248.1"/>
		<line class="st3" x1="143.9" y1="253.6" x2="142.5" y2="265.5"/>
		<line class="st3" x1="138.8" y1="250.3" x2="140.8" y2="266.1"/>
		<line class="st2" x1="137.7" y1="250" x2="140.1" y2="265.7"/>
		<line class="st2" x1="140.1" y1="250" x2="141.7" y2="266.1"/>
	</g>
	<g>
		<path class="st2" d="M168.5,236.9v12.8c0,0.9-0.9,1.6-1.8,1.5l0,0c-0.5-0.2-0.9-0.5-0.9-1.1l-2.9-13.4"/>
		<line class="st2" x1="168" y1="251.1" x2="166.7" y2="235.7"/>
		<line class="st3" x1="168.3" y1="250.9" x2="167.2" y2="235.3"/>
		<line class="st2" x1="164.5" y1="235.1" x2="166.5" y2="251.1"/>
		<line class="st2" x1="167.2" y1="251.4" x2="164.8" y2="233.3"/>
		<line class="st2" x1="170" y1="238.6" x2="168.5" y2="250.7"/>
		<line class="st2" x1="164.8" y1="235.3" x2="166.9" y2="251.2"/>
		<line class="st3" x1="163.6" y1="235.1" x2="166.1" y2="250.9"/>
		<line class="st2" x1="166.1" y1="235.1" x2="167.8" y2="251.2"/>
	</g>
	<g>
		<path class="st2" d="M128.6,258v12.8c0,0.9-0.9,1.6-1.8,1.5l0,0c-0.5-0.2-0.9-0.5-0.9-1.1l-2.9-13.4"/>
		<line class="st2" x1="128" y1="271.9" x2="126.7" y2="256.7"/>
		<line class="st3" x1="128.4" y1="271.9" x2="127.3" y2="256.2"/>
		<line class="st2" x1="124.5" y1="256" x2="126.5" y2="272.1"/>
		<line class="st2" x1="127.5" y1="272.3" x2="124.9" y2="254.2"/>
		<line class="st2" x1="130" y1="259.7" x2="128.6" y2="271.6"/>
		<line class="st3" x1="124.9" y1="256.4" x2="126.9" y2="272.1"/>
		<line class="st2" x1="123.6" y1="256" x2="126.2" y2="271.8"/>
		<line class="st3" x1="126.2" y1="256" x2="127.8" y2="272.1"/>
	</g>
	<g>
		<path class="st2" d="M122.5,255.1v12.8c0,0.9-0.9,1.6-1.8,1.5l0,0c-0.5-0.2-0.9-0.5-0.9-1.1l-2.9-13.4"/>
		<line class="st2" x1="122" y1="269.2" x2="120.7" y2="254"/>
		<line class="st3" x1="122.3" y1="269" x2="121.2" y2="253.4"/>
		<line class="st2" x1="118.5" y1="253.3" x2="120.5" y2="269.2"/>
		<line class="st3" x1="121.2" y1="269.6" x2="118.8" y2="251.4"/>
		<line class="st2" x1="124" y1="256.7" x2="122.5" y2="268.8"/>
		<line class="st2" x1="118.8" y1="253.4" x2="120.9" y2="269.4"/>
		<line class="st2" x1="117.6" y1="253.3" x2="120.1" y2="269"/>
		<line class="st3" x1="119.9" y1="253.3" x2="121.8" y2="269.4"/>
	</g>
	<g>
		<path class="st2" d="M97.4,236v12.8c0,0.9-0.9,1.6-1.8,1.5l0,0c-0.5-0.2-0.9-0.5-0.9-1.1l-2.9-13.4"/>
		<line class="st2" x1="96.8" y1="250.1" x2="95.4" y2="234.9"/>
		<line class="st2" x1="97" y1="250.1" x2="95.9" y2="234.4"/>
		<line class="st2" x1="93.2" y1="234.2" x2="95.2" y2="250.3"/>
		<line class="st2" x1="96.1" y1="250.5" x2="93.7" y2="232.4"/>
		<line class="st3" x1="98.7" y1="237.7" x2="97.2" y2="249.8"/>
		<line class="st2" x1="93.5" y1="234.4" x2="95.6" y2="250.3"/>
		<line class="st3" x1="92.4" y1="234.2" x2="94.8" y2="250"/>
		<line class="st3" x1="94.8" y1="234.2" x2="96.5" y2="250.3"/>
	</g>
	<g>
		<path class="st3" d="M84.6,235.5v12.8c0,0.9-0.9,1.6-1.8,1.5l0,0c-0.5-0.2-0.9-0.5-0.9-1.1l-2.9-13.4"/>
		<line class="st2" x1="84" y1="249.6" x2="82.5" y2="234.2"/>
		<line class="st2" x1="84.4" y1="249.4" x2="83.3" y2="233.8"/>
		<line class="st2" x1="80.3" y1="233.5" x2="82.4" y2="249.6"/>
		<line class="st2" x1="83.3" y1="250" x2="80.9" y2="231.8"/>
		<line class="st2" x1="85.8" y1="237.1" x2="84.4" y2="249.2"/>
		<line class="st2" x1="80.9" y1="233.8" x2="82.9" y2="249.6"/>
		<line class="st2" x1="79.6" y1="233.6" x2="82" y2="249.4"/>
		<line class="st3" x1="82" y1="233.6" x2="83.6" y2="249.8"/>
	</g>
	<g>
		<path class="st2" d="M91.2,232.2V245c0,0.9-0.9,1.6-1.8,1.5l0,0c-0.5-0.2-0.9-0.5-0.9-1.1L85.5,232"/>
		<line class="st2" x1="90.6" y1="246.3" x2="89.3" y2="230.9"/>
		<line class="st3" x1="91" y1="246.1" x2="89.9" y2="230.5"/>
		<line class="st2" x1="87.1" y1="230.2" x2="89.1" y2="246.3"/>
		<line class="st2" x1="90.1" y1="246.5" x2="87.5" y2="228.5"/>
		<line class="st2" x1="92.6" y1="233.8" x2="91.2" y2="245.9"/>
		<line class="st2" x1="87.5" y1="230.5" x2="89.5" y2="246.3"/>
		<line class="st3" x1="86.2" y1="230.3" x2="88.8" y2="246.1"/>
		<line class="st2" x1="88.8" y1="230.2" x2="90.4" y2="246.3"/>
	</g>
	<g>
		<path class="st3" d="M77.8,232.5v12.8c0,0.9-0.9,1.6-1.8,1.5l0,0c-0.5-0.2-0.9-0.5-0.9-1.1l-2.9-13.4"/>
		<line class="st2" x1="77.2" y1="246.5" x2="75.9" y2="231.3"/>
		<line class="st2" x1="77.6" y1="246.5" x2="76.5" y2="230.7"/>
		<line class="st2" x1="73.6" y1="230.5" x2="75.6" y2="246.7"/>
		<line class="st2" x1="76.5" y1="246.8" x2="74.1" y2="228.7"/>
		<line class="st2" x1="79.2" y1="234.2" x2="77.8" y2="246.1"/>
		<line class="st3" x1="74.1" y1="230.9" x2="76.1" y2="246.7"/>
		<line class="st2" x1="72.8" y1="230.5" x2="75.2" y2="246.3"/>
		<line class="st3" x1="75.2" y1="230.5" x2="77" y2="246.7"/>
	</g>
	<g>
		<path class="st2" d="M64.9,226.5v12.8c0,0.9-0.9,1.6-1.8,1.5l0,0c-0.5-0.2-0.9-0.5-0.9-1.1l-2.9-13.4"/>
		<line class="st2" x1="64.4" y1="240.4" x2="63.1" y2="225.2"/>
		<line class="st2" x1="64.8" y1="240.4" x2="63.7" y2="224.7"/>
		<line class="st2" x1="60.7" y1="224.5" x2="62.7" y2="240.6"/>
		<line class="st2" x1="63.7" y1="240.8" x2="61.3" y2="222.6"/>
		<line class="st2" x1="66.2" y1="228" x2="64.9" y2="240.1"/>
		<line class="st2" x1="61.3" y1="224.7" x2="63.3" y2="240.6"/>
		<line class="st2" x1="60" y1="224.5" x2="62.4" y2="240.2"/>
		<line class="st3" x1="62.4" y1="224.5" x2="64" y2="240.6"/>
	</g>
	<g>
		<path class="st2" d="M52.1,219.9v12.8c0,0.9-0.9,1.6-1.8,1.5l0,0c-0.5-0.2-0.9-0.5-0.9-1.1l-2.9-13.4"/>
		<line class="st2" x1="51.6" y1="234" x2="50.1" y2="218.6"/>
		<line class="st3" x1="51.9" y1="233.8" x2="50.8" y2="218.2"/>
		<line class="st2" x1="47.9" y1="217.9" x2="49.9" y2="234"/>
		<line class="st2" x1="50.8" y1="234.2" x2="48.4" y2="216"/>
		<line class="st2" x1="53.4" y1="221.5" x2="51.9" y2="233.6"/>
		<line class="st3" x1="48.3" y1="218.2" x2="50.3" y2="234"/>
		<line class="st2" x1="47.2" y1="218.1" x2="49.5" y2="233.8"/>
		<line class="st2" x1="49.5" y1="217.9" x2="51.2" y2="234"/>
	</g>
	<g>
		<path class="st2" d="M58.7,216.6v12.8c0,0.9-0.9,1.6-1.8,1.5l0,0c-0.5-0.2-0.9-0.5-0.9-1.1L53,216.4"/>
		<line class="st2" x1="58.2" y1="230.5" x2="56.9" y2="215.3"/>
		<line class="st2" x1="58.5" y1="230.5" x2="57.4" y2="214.8"/>
		<line class="st2" x1="54.7" y1="214.6" x2="56.7" y2="230.7"/>
		<line class="st2" x1="57.4" y1="230.9" x2="55" y2="212.7"/>
		<line class="st2" x1="60.2" y1="218.2" x2="58.7" y2="230.2"/>
		<line class="st2" x1="55" y1="214.9" x2="57.1" y2="230.7"/>
		<line class="st3" x1="53.8" y1="214.6" x2="56.3" y2="230.5"/>
		<line class="st3" x1="56.1" y1="214.6" x2="58" y2="230.7"/>
	</g>
	<g>
		<path class="st2" d="M44.2,216.4v12.8c0,0.9-0.9,1.6-1.8,1.5l0,0c-0.5-0.2-0.9-0.5-0.9-1.1l-2.9-13.4"/>
		<line class="st2" x1="43.5" y1="230.5" x2="42.2" y2="215.1"/>
		<line class="st2" x1="43.9" y1="230.3" x2="42.8" y2="214.8"/>
		<line class="st2" x1="40" y1="214.4" x2="42" y2="230.5"/>
		<line class="st2" x1="42.9" y1="230.7" x2="40.6" y2="212.7"/>
		<line class="st2" x1="45.5" y1="218.1" x2="44" y2="230.2"/>
		<line class="st3" x1="40.4" y1="214.8" x2="42.4" y2="230.5"/>
		<line class="st3" x1="39.1" y1="214.6" x2="41.7" y2="230.3"/>
		<line class="st3" x1="41.7" y1="214.6" x2="43.3" y2="230.7"/>
	</g>
	<g>
		<path class="st2" d="M115.7,252v12.8c0,0.9-0.9,1.6-1.8,1.5l0,0c-0.5-0.2-0.9-0.5-0.9-1.1l-2.9-13.4"/>
		<line class="st2" x1="115.2" y1="265.9" x2="113.9" y2="250.7"/>
		<line class="st2" x1="115.5" y1="265.9" x2="114.4" y2="250.1"/>
		<line class="st2" x1="111.7" y1="250" x2="113.7" y2="266.1"/>
		<line class="st2" x1="114.6" y1="266.3" x2="112.1" y2="248.1"/>
		<line class="st2" x1="117.2" y1="253.4" x2="115.7" y2="265.5"/>
		<line class="st2" x1="112.1" y1="250.1" x2="114.1" y2="266.1"/>
		<line class="st3" x1="110.8" y1="250" x2="113.3" y2="265.7"/>
		<line class="st2" x1="113.3" y1="250" x2="115" y2="266.1"/>
	</g>
	<g>
		<path class="st3" d="M108.9,248.9v12.8c0,0.9-0.9,1.6-1.8,1.5l0,0c-0.5-0.2-0.9-0.5-0.9-1.1l-2.9-13.4"/>
		<line class="st2" x1="108.4" y1="263" x2="107.1" y2="247.6"/>
		<line class="st2" x1="108.8" y1="262.8" x2="107.7" y2="247.2"/>
		<line class="st2" x1="104.9" y1="246.8" x2="106.9" y2="263"/>
		<line class="st2" x1="107.8" y1="263.1" x2="105.3" y2="245"/>
		<line class="st2" x1="110.4" y1="250.5" x2="108.9" y2="262.6"/>
		<line class="st2" x1="105.3" y1="247.2" x2="107.3" y2="263"/>
		<line class="st2" x1="104" y1="247" x2="106.6" y2="262.8"/>
		<line class="st2" x1="106.6" y1="246.8" x2="108.2" y2="263"/>
	</g>
	<g>
		<path class="st2" d="M115.7,245.6v12.8c0,0.9-0.9,1.6-1.8,1.5l0,0c-0.5-0.2-0.9-0.5-0.9-1.1l-2.9-13.4"/>
		<line class="st2" x1="115.2" y1="259.5" x2="113.7" y2="244.3"/>
		<line class="st2" x1="115.4" y1="259.5" x2="114.4" y2="243.7"/>
		<line class="st2" x1="111.5" y1="243.5" x2="113.5" y2="259.7"/>
		<line class="st2" x1="114.4" y1="259.8" x2="112.1" y2="241.7"/>
		<line class="st3" x1="117" y1="247.2" x2="115.5" y2="259.1"/>
		<line class="st2" x1="111.9" y1="243.9" x2="113.9" y2="259.7"/>
		<line class="st2" x1="110.8" y1="243.5" x2="113.2" y2="259.5"/>
		<line class="st3" x1="113.2" y1="243.5" x2="114.8" y2="259.7"/>
	</g>
	<g>
		<path class="st3" d="M109.7,242.1v12.8c0,0.9-0.9,1.6-1.8,1.5l0,0c-0.5-0.2-0.9-0.5-0.9-1.1l-2.9-13.4"/>
		<line class="st2" x1="108.9" y1="256" x2="107.7" y2="240.8"/>
		<line class="st3" x1="109.3" y1="256" x2="108.2" y2="240.2"/>
		<line class="st2" x1="105.5" y1="240.1" x2="107.5" y2="256.2"/>
		<line class="st2" x1="108.4" y1="256.4" x2="106" y2="238.2"/>
		<line class="st2" x1="111" y1="243.7" x2="109.5" y2="255.6"/>
		<line class="st3" x1="105.8" y1="240.4" x2="107.8" y2="256.2"/>
		<line class="st2" x1="104.5" y1="240.1" x2="107.1" y2="255.8"/>
		<line class="st3" x1="107.1" y1="240.1" x2="108.8" y2="256.2"/>
	</g>
	<g>
		<path class="st2" d="M111.5,223.7v12.8c0,0.9-0.9,1.6-1.8,1.5l0,0c-0.5-0.2-0.9-0.5-0.9-1.1l-2.9-13.4"/>
		<line class="st2" x1="111" y1="237.9" x2="109.5" y2="222.6"/>
		<line class="st3" x1="111.3" y1="237.9" x2="110.2" y2="222.1"/>
		<line class="st2" x1="107.3" y1="221.9" x2="109.3" y2="238"/>
		<line class="st2" x1="110.2" y1="238.2" x2="107.8" y2="220.1"/>
		<line class="st2" x1="112.8" y1="225.4" x2="111.3" y2="237.5"/>
		<line class="st3" x1="107.8" y1="222.1" x2="109.9" y2="238"/>
		<line class="st3" x1="106.6" y1="221.9" x2="108.9" y2="237.7"/>
		<line class="st2" x1="108.9" y1="221.9" x2="110.6" y2="238"/>
	</g>
	<g>
		<path class="st3" d="M105.5,219.9v12.8c0,0.9-0.9,1.6-1.8,1.5l0,0c-0.5-0.2-0.9-0.5-0.9-1.1l-2.9-13.4"/>
		<line class="st2" x1="104.9" y1="234" x2="103.4" y2="218.6"/>
		<line class="st2" x1="105.1" y1="233.8" x2="104" y2="218.2"/>
		<line class="st3" x1="101.2" y1="217.9" x2="103.3" y2="234"/>
		<line class="st2" x1="104.2" y1="234.2" x2="101.8" y2="216.2"/>
		<line class="st3" x1="106.7" y1="221.5" x2="105.3" y2="233.6"/>
		<line class="st2" x1="101.6" y1="218.2" x2="103.6" y2="234"/>
		<line class="st2" x1="100.5" y1="218.1" x2="102.9" y2="233.8"/>
		<line class="st3" x1="102.9" y1="217.9" x2="104.5" y2="234"/>
	</g>
	<g>
		<path class="st3" d="M112.4,216.6v12.8c0,0.9-0.9,1.6-1.8,1.5l0,0c-0.5-0.2-0.9-0.5-0.9-1.1l-2.9-13.4"/>
		<line class="st2" x1="111.9" y1="230.5" x2="110.6" y2="215.3"/>
		<line class="st2" x1="112.2" y1="230.5" x2="111.1" y2="214.8"/>
		<line class="st2" x1="108.4" y1="214.6" x2="110.4" y2="230.7"/>
		<line class="st2" x1="111.3" y1="230.9" x2="108.9" y2="212.7"/>
		<line class="st2" x1="113.9" y1="218.2" x2="112.4" y2="230.2"/>
		<line class="st3" x1="108.8" y1="214.9" x2="110.8" y2="230.7"/>
		<line class="st2" x1="107.5" y1="214.6" x2="110" y2="230.5"/>
		<line class="st3" x1="110" y1="214.6" x2="111.7" y2="230.7"/>
	</g>
	<g>
		<path class="st2" d="M98.7,216.8v12.8c0,0.9-0.9,1.6-1.8,1.5l0,0c-0.5-0.2-0.9-0.5-0.9-1.1L93,216.6"/>
		<line class="st2" x1="98.1" y1="230.9" x2="96.7" y2="215.7"/>
		<line class="st2" x1="98.3" y1="230.9" x2="97.4" y2="215.1"/>
		<line class="st2" x1="94.5" y1="214.9" x2="96.5" y2="231.1"/>
		<line class="st2" x1="97.4" y1="231.3" x2="95" y2="213.1"/>
		<line class="st3" x1="100" y1="218.4" x2="98.5" y2="230.5"/>
		<line class="st3" x1="94.8" y1="215.1" x2="96.8" y2="231.1"/>
		<line class="st2" x1="93.7" y1="214.9" x2="96.1" y2="230.7"/>
		<line class="st3" x1="96.1" y1="214.9" x2="97.8" y2="231.1"/>
	</g>
	<g>
		<path class="st2" d="M105.8,213.5v12.8c0,0.9-0.9,1.6-1.8,1.5l0,0c-0.5-0.2-0.9-0.5-0.9-1.1l-2.9-13.4"/>
		<line class="st2" x1="105.3" y1="227.6" x2="103.8" y2="212.2"/>
		<line class="st3" x1="105.5" y1="227.4" x2="104.4" y2="211.8"/>
		<line class="st2" x1="101.6" y1="211.5" x2="103.6" y2="227.6"/>
		<line class="st2" x1="104.5" y1="227.8" x2="102.2" y2="209.8"/>
		<line class="st3" x1="107.1" y1="215.1" x2="105.6" y2="227.2"/>
		<line class="st3" x1="102" y1="211.8" x2="104" y2="227.6"/>
		<line class="st3" x1="100.9" y1="211.6" x2="103.3" y2="227.4"/>
		<line class="st3" x1="103.3" y1="211.6" x2="104.9" y2="227.8"/>
	</g>
	<g>
		<path class="st3" d="M85.8,210.7v12.8c0,0.9-0.9,1.6-1.8,1.5l0,0c-0.5-0.2-0.9-0.5-0.9-1.1l-2.9-13.4"/>
		<line class="st2" x1="85.3" y1="224.8" x2="83.8" y2="209.6"/>
		<line class="st2" x1="85.5" y1="224.7" x2="84.4" y2="209.1"/>
		<line class="st2" x1="81.6" y1="208.9" x2="83.6" y2="224.8"/>
		<line class="st2" x1="84.6" y1="225.2" x2="82.2" y2="207.1"/>
		<line class="st2" x1="87.1" y1="212.4" x2="85.7" y2="224.5"/>
		<line class="st2" x1="82" y1="209.1" x2="84" y2="225"/>
		<line class="st3" x1="80.9" y1="208.9" x2="83.3" y2="224.7"/>
		<line class="st3" x1="83.3" y1="208.9" x2="84.9" y2="225"/>
	</g>
	<g>
		<path class="st3" d="M93,207.4v12.8c0,0.9-0.9,1.6-1.8,1.5l0,0c-0.5-0.2-0.9-0.5-0.9-1.1l-2.9-13.4"/>
		<line class="st2" x1="92.3" y1="221.5" x2="91" y2="206.1"/>
		<line class="st2" x1="92.6" y1="221.4" x2="91.5" y2="205.8"/>
		<line class="st2" x1="88.8" y1="205.4" x2="90.8" y2="221.5"/>
		<line class="st2" x1="91.7" y1="221.7" x2="89.3" y2="203.8"/>
		<line class="st2" x1="94.3" y1="209.1" x2="92.8" y2="221.2"/>
		<line class="st3" x1="89.1" y1="205.8" x2="91.2" y2="221.5"/>
		<line class="st2" x1="87.9" y1="205.6" x2="90.4" y2="221.4"/>
		<line class="st3" x1="90.4" y1="205.4" x2="92.1" y2="221.5"/>
	</g>
	<g>
		<path class="st3" d="M73.2,211.1v13.7c0,0-0.7,1.3-2.7,0.2l-3.1-14.1"/>
		<line class="st2" x1="72.6" y1="225.2" x2="71.4" y2="209.8"/>
		<line class="st2" x1="73" y1="225" x2="71.9" y2="209.4"/>
		<line class="st2" x1="69" y1="209.1" x2="71" y2="225.2"/>
		<line class="st2" x1="71.9" y1="225.4" x2="69.5" y2="207.2"/>
		<line class="st2" x1="74.7" y1="212.7" x2="73.2" y2="224.8"/>
		<line class="st3" x1="69.5" y1="209.4" x2="71.5" y2="225.2"/>
		<line class="st3" x1="68.2" y1="209.1" x2="70.6" y2="225"/>
		<line class="st3" x1="70.6" y1="209.1" x2="72.5" y2="225.2"/>
	</g>
	<g>
		<path class="st2" d="M79.1,207.8v12.8c0,0.9-0.9,1.6-1.8,1.5l0,0c-0.5-0.2-0.9-0.5-0.9-1.1l-2.9-13.4"/>
		<line class="st2" x1="78.5" y1="221.7" x2="77" y2="206.5"/>
		<line class="st3" x1="78.7" y1="221.7" x2="77.8" y2="206"/>
		<line class="st2" x1="74.8" y1="205.8" x2="76.9" y2="221.9"/>
		<line class="st3" x1="77.8" y1="222.1" x2="75.4" y2="203.9"/>
		<line class="st2" x1="80.3" y1="209.4" x2="78.9" y2="221.4"/>
		<line class="st2" x1="75.2" y1="206.1" x2="77.2" y2="221.9"/>
		<line class="st3" x1="74.1" y1="205.8" x2="76.5" y2="221.7"/>
		<line class="st2" x1="76.5" y1="205.8" x2="78.1" y2="221.9"/>
	</g>
	<g>
		<path class="st2" d="M67.1,207.6v13.7c0,0-0.7,1.3-2.7,0.2l-3.1-14.1"/>
		<line class="st2" x1="66.6" y1="221.7" x2="65.1" y2="206.3"/>
		<line class="st2" x1="67" y1="221.5" x2="65.9" y2="206"/>
		<line class="st2" x1="62.9" y1="205.6" x2="64.9" y2="221.7"/>
		<line class="st2" x1="65.9" y1="221.9" x2="63.5" y2="203.8"/>
		<line class="st3" x1="68.4" y1="209.3" x2="67" y2="221.2"/>
		<line class="st3" x1="63.5" y1="206" x2="65.3" y2="221.7"/>
		<line class="st2" x1="62.2" y1="205.6" x2="64.6" y2="221.5"/>
		<line class="st3" x1="64.6" y1="205.6" x2="66.2" y2="221.7"/>
	</g>
	<g>
		<path class="st3" d="M136.6,236.2V249c0,0.9-0.9,1.6-1.8,1.5l0,0c-0.5-0.2-0.9-0.5-0.9-1.1l-2.9-13.4"/>
		<line class="st2" x1="136.1" y1="250.3" x2="134.8" y2="235.1"/>
		<line class="st2" x1="136.4" y1="250.1" x2="135.3" y2="234.6"/>
		<line class="st2" x1="132.4" y1="234.4" x2="134.4" y2="250.3"/>
		<line class="st2" x1="135.3" y1="250.7" x2="132.9" y2="232.5"/>
		<line class="st2" x1="137.9" y1="237.9" x2="136.6" y2="250"/>
		<line class="st2" x1="132.9" y1="234.6" x2="135" y2="250.5"/>
		<line class="st3" x1="131.7" y1="234.4" x2="134" y2="250.1"/>
		<line class="st3" x1="134" y1="234.4" x2="135.9" y2="250.5"/>
	</g>
	<g>
		<path class="st2" d="M143.8,232.9v12.8c0,0.9-0.9,1.6-1.8,1.5l0,0c-0.5-0.2-0.9-0.5-0.9-1.1l-2.9-13.4"/>
		<line class="st2" x1="143.2" y1="247" x2="141.7" y2="231.6"/>
		<line class="st3" x1="143.4" y1="246.8" x2="142.5" y2="231.3"/>
		<line class="st2" x1="139.5" y1="230.9" x2="141.6" y2="247"/>
		<line class="st2" x1="142.5" y1="247.2" x2="140.1" y2="229.2"/>
		<line class="st2" x1="145" y1="234.6" x2="143.6" y2="246.7"/>
		<line class="st2" x1="139.9" y1="231.3" x2="141.9" y2="247"/>
		<line class="st3" x1="138.8" y1="231.1" x2="141.2" y2="246.8"/>
		<line class="st3" x1="141.2" y1="230.9" x2="142.8" y2="247"/>
	</g>
	<g>
		<path class="st2" d="M137,229.8v12.8c0,0.9-0.9,1.6-1.8,1.5l0,0c-0.5-0.2-0.9-0.5-0.9-1.1l-2.9-13.4"/>
		<line class="st2" x1="136.4" y1="243.9" x2="135" y2="228.7"/>
		<line class="st2" x1="136.8" y1="243.9" x2="135.7" y2="228.1"/>
		<line class="st2" x1="132.8" y1="228" x2="134.8" y2="244.1"/>
		<line class="st2" x1="135.7" y1="244.3" x2="133.3" y2="226.1"/>
		<line class="st2" x1="138.3" y1="231.4" x2="136.8" y2="243.5"/>
		<line class="st2" x1="133.3" y1="228.1" x2="135.3" y2="244.1"/>
		<line class="st3" x1="132" y1="228" x2="134.4" y2="243.7"/>
		<line class="st3" x1="134.4" y1="228" x2="136.1" y2="244.1"/>
	</g>
	<g>
		<path class="st2" d="M117.9,233.1v13.7c0,0-0.7,1.3-2.7,0.2l-3.1-14.1"/>
		<line class="st2" x1="117.4" y1="247.2" x2="116.1" y2="231.8"/>
		<line class="st3" x1="117.7" y1="247" x2="116.6" y2="231.4"/>
		<line class="st2" x1="113.7" y1="231.1" x2="115.9" y2="247.2"/>
		<line class="st2" x1="116.6" y1="247.4" x2="114.3" y2="229.2"/>
		<line class="st2" x1="119.4" y1="234.7" x2="117.9" y2="246.7"/>
		<line class="st3" x1="114.3" y1="231.4" x2="116.3" y2="247.2"/>
		<line class="st2" x1="113" y1="231.1" x2="115.5" y2="247"/>
		<line class="st2" x1="115.4" y1="231.1" x2="117.2" y2="247.2"/>
	</g>
	<g>
		<path class="st3" d="M123.8,229.8v12.8c0,0.9-0.9,1.6-1.8,1.5l0,0c-0.5-0.2-0.9-0.5-0.9-1.1l-2.9-13.4"/>
		<line class="st2" x1="123.2" y1="243.7" x2="121.8" y2="228.5"/>
		<line class="st3" x1="123.6" y1="243.7" x2="122.5" y2="228"/>
		<line class="st2" x1="119.6" y1="227.8" x2="121.6" y2="243.9"/>
		<line class="st2" x1="122.5" y1="244.1" x2="120.1" y2="225.9"/>
		<line class="st2" x1="125.1" y1="231.4" x2="123.6" y2="243.4"/>
		<line class="st3" x1="120.1" y1="228.1" x2="122" y2="243.9"/>
		<line class="st2" x1="118.8" y1="227.8" x2="121.2" y2="243.7"/>
		<line class="st2" x1="121.2" y1="227.8" x2="122.9" y2="243.9"/>
	</g>
	<g>
		<path class="st3" d="M130.9,226.3v12.8c0,0.9-0.9,1.6-1.8,1.5l0,0c-0.5-0.2-0.9-0.5-0.9-1.1l-2.9-13.4"/>
		<line class="st2" x1="130.4" y1="240.4" x2="128.9" y2="225.2"/>
		<line class="st2" x1="130.6" y1="240.4" x2="129.5" y2="224.7"/>
		<line class="st2" x1="126.7" y1="224.5" x2="128.7" y2="240.6"/>
		<line class="st2" x1="129.7" y1="240.8" x2="127.3" y2="222.6"/>
		<line class="st2" x1="132.2" y1="228" x2="130.8" y2="240.1"/>
		<line class="st3" x1="127.1" y1="224.7" x2="129.1" y2="240.6"/>
		<line class="st3" x1="126" y1="224.5" x2="128.4" y2="240.2"/>
		<line class="st3" x1="128.4" y1="224.5" x2="130" y2="240.6"/>
	</g>
	<g>
		<path class="st3" d="M102.7,232.7v12.8c0,0.9-0.9,1.6-1.8,1.5l0,0c-0.5-0.2-0.9-0.5-0.9-1.1L97,232.5"/>
		<line class="st2" x1="102.2" y1="246.8" x2="100.7" y2="231.6"/>
		<line class="st3" x1="102.3" y1="246.7" x2="101.2" y2="231.1"/>
		<line class="st2" x1="98.5" y1="230.9" x2="100.5" y2="246.8"/>
		<line class="st2" x1="101.4" y1="247.2" x2="99" y2="229.1"/>
		<line class="st3" x1="104" y1="234.4" x2="102.5" y2="246.5"/>
		<line class="st3" x1="98.9" y1="231.1" x2="100.9" y2="247"/>
		<line class="st3" x1="97.8" y1="230.9" x2="100.1" y2="246.7"/>
		<line class="st3" x1="100.1" y1="230.9" x2="101.8" y2="247"/>
	</g>
	<g>
		<path class="st3" d="M127.8,243.4v12.8c0,0.9-0.9,1.6-1.8,1.5l0,0c-0.5-0.2-0.9-0.5-0.9-1.1l-2.9-13.4"/>
		<line class="st2" x1="127.3" y1="257.3" x2="126" y2="242.1"/>
		<line class="st3" x1="127.6" y1="257.3" x2="126.5" y2="241.5"/>
		<line class="st2" x1="123.8" y1="241.3" x2="125.8" y2="257.5"/>
		<line class="st2" x1="126.5" y1="257.6" x2="124.2" y2="239.5"/>
		<line class="st3" x1="129.3" y1="245" x2="127.8" y2="256.9"/>
		<line class="st2" x1="124.2" y1="241.5" x2="126.2" y2="257.5"/>
		<line class="st3" x1="122.9" y1="241.3" x2="125.4" y2="257.1"/>
		<line class="st3" x1="125.4" y1="241.3" x2="127.1" y2="257.5"/>
	</g>
	<g>
		<path class="st2" d="M115,238.8v12.8c0,0.9-0.9,1.6-1.8,1.5l0,0c-0.5-0.2-0.9-0.5-0.9-1.1l-2.9-13.4"/>
		<line class="st2" x1="114.4" y1="252.7" x2="113" y2="237.5"/>
		<line class="st2" x1="114.6" y1="252.7" x2="113.5" y2="236.9"/>
		<line class="st2" x1="110.8" y1="236.8" x2="112.8" y2="252.9"/>
		<line class="st2" x1="113.7" y1="253.1" x2="111.3" y2="234.9"/>
		<line class="st3" x1="116.3" y1="240.4" x2="114.8" y2="252.3"/>
		<line class="st3" x1="111.1" y1="236.9" x2="113.2" y2="252.9"/>
		<line class="st2" x1="109.9" y1="236.8" x2="112.4" y2="252.5"/>
		<line class="st3" x1="112.4" y1="236.8" x2="114.1" y2="252.9"/>
	</g>
	<g>
		<path class="st3" d="M64.8,220.1v12.8c0,0.9-0.9,1.6-1.8,1.5l0,0c-0.5-0.2-0.9-0.5-0.9-1.1l-2.9-13.4"/>
		<line class="st2" x1="64.2" y1="234" x2="62.9" y2="218.8"/>
		<line class="st3" x1="64.6" y1="234" x2="63.5" y2="218.2"/>
		<line class="st2" x1="60.7" y1="218.1" x2="62.7" y2="234.2"/>
		<line class="st2" x1="63.7" y1="234.4" x2="61.3" y2="216.2"/>
		<line class="st2" x1="66.2" y1="221.7" x2="64.8" y2="233.6"/>
		<line class="st3" x1="61.1" y1="218.4" x2="63.1" y2="234.2"/>
		<line class="st2" x1="59.8" y1="218.1" x2="62.4" y2="234"/>
		<line class="st2" x1="62.4" y1="218.1" x2="64" y2="234.2"/>
	</g>
	<g>
		<path class="st3" d="M92.8,220.3V234c0,0-0.7,1.3-2.7,0.2l-3.1-14.1"/>
		<line class="st2" x1="92.3" y1="234.2" x2="91" y2="219"/>
		<line class="st3" x1="92.6" y1="234.2" x2="91.5" y2="218.4"/>
		<line class="st2" x1="88.6" y1="218.2" x2="90.6" y2="234.4"/>
		<line class="st3" x1="91.5" y1="234.6" x2="89.1" y2="216.4"/>
		<line class="st3" x1="94.3" y1="221.9" x2="92.8" y2="233.8"/>
		<line class="st2" x1="89.1" y1="218.6" x2="91.2" y2="234.4"/>
		<line class="st2" x1="87.9" y1="218.2" x2="90.2" y2="234"/>
		<line class="st2" x1="90.2" y1="218.2" x2="92.1" y2="234.4"/>
	</g>
	<g>
		<path class="st2" d="M122.5,261.3v12.8c0,0.9-0.9,1.6-1.8,1.5l0,0c-0.5-0.2-0.9-0.5-0.9-1.1l-2.9-13.4"/>
		<line class="st2" x1="122" y1="275.4" x2="120.7" y2="260"/>
		<line class="st2" x1="122.3" y1="275.2" x2="121.2" y2="259.7"/>
		<line class="st2" x1="118.5" y1="259.3" x2="120.5" y2="275.4"/>
		<line class="st2" x1="121.4" y1="275.6" x2="118.8" y2="257.6"/>
		<line class="st3" x1="124" y1="263" x2="122.5" y2="275.1"/>
		<line class="st2" x1="118.8" y1="259.7" x2="120.9" y2="275.4"/>
		<line class="st3" x1="117.6" y1="259.5" x2="120.1" y2="275.2"/>
		<line class="st3" x1="120.1" y1="259.3" x2="121.8" y2="275.4"/>
	</g>
	<g>
		<path class="st2" d="M83.5,242.8v12.8c0,0.9-0.9,1.6-1.8,1.5l0,0c-0.5-0.2-0.9-0.5-0.9-1.1l-2.9-13.4"/>
		<line class="st2" x1="82.9" y1="256.9" x2="81.6" y2="241.5"/>
		<line class="st2" x1="83.3" y1="256.7" x2="82.2" y2="241.2"/>
		<line class="st2" x1="79.4" y1="240.8" x2="81.4" y2="256.9"/>
		<line class="st2" x1="82.4" y1="257.1" x2="80" y2="239.1"/>
		<line class="st2" x1="84.9" y1="244.5" x2="83.5" y2="256.6"/>
		<line class="st3" x1="79.8" y1="241.2" x2="81.8" y2="256.9"/>
		<line class="st2" x1="78.5" y1="241" x2="81.1" y2="256.7"/>
		<line class="st2" x1="81.1" y1="240.8" x2="82.7" y2="256.9"/>
	</g>
	<g>
		<path class="st3" d="M77.4,238.8v12.8c0,0.9-0.9,1.6-1.8,1.5l0,0c-0.5-0.2-0.9-0.5-0.9-1.1l-2.9-13.4"/>
		<line class="st2" x1="76.9" y1="252.9" x2="75.6" y2="237.7"/>
		<line class="st2" x1="77.2" y1="252.9" x2="76.1" y2="237.1"/>
		<line class="st2" x1="73.2" y1="236.9" x2="75.4" y2="253.1"/>
		<line class="st2" x1="76.1" y1="253.3" x2="73.7" y2="235.1"/>
		<line class="st2" x1="78.9" y1="240.4" x2="77.4" y2="252.5"/>
		<line class="st2" x1="73.7" y1="237.1" x2="75.8" y2="253.1"/>
		<line class="st2" x1="72.5" y1="236.9" x2="75" y2="252.7"/>
		<line class="st3" x1="74.8" y1="236.9" x2="76.7" y2="253.1"/>
	</g>
	<g>
		<path class="st2" d="M64.6,233.1v12.8c0,0.9-0.9,1.6-1.8,1.5l0,0c-0.5-0.2-0.9-0.5-0.9-1.1l-2.9-13.4"/>
		<line class="st2" x1="64" y1="247" x2="62.7" y2="231.8"/>
		<line class="st3" x1="64.4" y1="247" x2="63.3" y2="231.3"/>
		<line class="st2" x1="60.4" y1="231.1" x2="62.4" y2="247.2"/>
		<line class="st2" x1="63.3" y1="247.4" x2="60.9" y2="229.2"/>
		<line class="st2" x1="66" y1="234.7" x2="64.6" y2="246.7"/>
		<line class="st3" x1="60.9" y1="231.3" x2="62.9" y2="247.2"/>
		<line class="st2" x1="59.6" y1="231.1" x2="62" y2="246.8"/>
		<line class="st2" x1="62" y1="231.1" x2="63.8" y2="247.2"/>
	</g>
	<g>
		<path class="st2" d="M51,226.7v12.8c0,0.9-0.9,1.6-1.8,1.5l0,0c-0.5-0.2-0.9-0.5-0.9-1.1l-2.9-13.4"/>
		<line class="st2" x1="50.5" y1="240.8" x2="49.2" y2="225.6"/>
		<line class="st2" x1="50.8" y1="240.6" x2="49.7" y2="225"/>
		<line class="st2" x1="47" y1="224.8" x2="49" y2="240.8"/>
		<line class="st2" x1="49.7" y1="241.2" x2="47.3" y2="223"/>
		<line class="st3" x1="52.5" y1="228.3" x2="51" y2="240.4"/>
		<line class="st2" x1="47.3" y1="225" x2="49.4" y2="241"/>
		<line class="st3" x1="46.1" y1="224.8" x2="48.6" y2="240.6"/>
		<line class="st3" x1="48.6" y1="224.8" x2="50.3" y2="241"/>
	</g>
	<g>
		<path class="st2" d="M115.4,258.6v12.8c0,0.9-0.9,1.6-1.8,1.5l0,0c-0.5-0.2-0.9-0.5-0.9-1.1l-2.9-13.4"/>
		<line class="st2" x1="114.8" y1="272.5" x2="113.5" y2="257.3"/>
		<line class="st2" x1="115.2" y1="272.5" x2="114.1" y2="256.7"/>
		<line class="st2" x1="111.3" y1="256.6" x2="113.3" y2="272.7"/>
		<line class="st2" x1="114.3" y1="272.9" x2="111.7" y2="254.7"/>
		<line class="st2" x1="116.8" y1="260.2" x2="115.4" y2="272.1"/>
		<line class="st3" x1="111.7" y1="256.7" x2="113.7" y2="272.7"/>
		<line class="st2" x1="110.4" y1="256.6" x2="113" y2="272.3"/>
		<line class="st3" x1="113" y1="256.6" x2="114.6" y2="272.7"/>
	</g>
	<g>
		<path class="st2" d="M108.8,255.3v12.8c0,0.9-0.9,1.6-1.8,1.5l0,0c-0.5-0.2-0.9-0.5-0.9-1.1l-2.9-13.4"/>
		<line class="st2" x1="108" y1="269.2" x2="106.7" y2="254"/>
		<line class="st3" x1="108.4" y1="269.2" x2="107.3" y2="253.6"/>
		<line class="st2" x1="104.5" y1="253.3" x2="106.6" y2="269.4"/>
		<line class="st2" x1="107.5" y1="269.6" x2="105.1" y2="251.4"/>
		<line class="st3" x1="110" y1="256.9" x2="108.6" y2="268.8"/>
		<line class="st3" x1="104.9" y1="253.6" x2="106.9" y2="269.4"/>
		<line class="st2" x1="103.6" y1="253.3" x2="106.2" y2="269.2"/>
		<line class="st2" x1="106.2" y1="253.3" x2="107.8" y2="269.4"/>
	</g>
	<g>
		<path class="st2" d="M57.8,229.8v12.8c0,0.9-0.9,1.6-1.8,1.5l0,0c-0.5-0.2-0.9-0.5-0.9-1.1l-2.9-13.4"/>
		<line class="st2" x1="57.2" y1="243.7" x2="56" y2="228.5"/>
		<line class="st2" x1="57.6" y1="243.7" x2="56.5" y2="228.1"/>
		<line class="st2" x1="53.6" y1="227.8" x2="55.8" y2="243.9"/>
		<line class="st2" x1="56.5" y1="244.1" x2="54.1" y2="225.9"/>
		<line class="st3" x1="59.3" y1="231.4" x2="57.8" y2="243.4"/>
		<line class="st2" x1="54.1" y1="228.1" x2="56.1" y2="243.9"/>
		<line class="st2" x1="52.8" y1="227.8" x2="55.4" y2="243.7"/>
		<line class="st2" x1="55.2" y1="227.8" x2="57.1" y2="243.9"/>
	</g>
	<g>
		<path class="st2" d="M45,223.2V236c0,0.9-0.9,1.6-1.8,1.5l0,0c-0.5-0.2-0.9-0.5-0.9-1.1L39.3,223"/>
		<line class="st2" x1="44.4" y1="237.3" x2="43.1" y2="221.9"/>
		<line class="st3" x1="44.8" y1="237.1" x2="43.7" y2="221.5"/>
		<line class="st2" x1="40.7" y1="221.2" x2="42.8" y2="237.3"/>
		<line class="st2" x1="43.7" y1="237.7" x2="41.3" y2="219.5"/>
		<line class="st2" x1="46.4" y1="224.8" x2="45" y2="236.9"/>
		<line class="st3" x1="41.3" y1="221.5" x2="43.3" y2="237.3"/>
		<line class="st2" x1="40" y1="221.4" x2="42.4" y2="237.1"/>
		<line class="st2" x1="42.4" y1="221.4" x2="44.2" y2="237.5"/>
	</g>
	<g>
		<path class="st2" d="M31,223.9v13.7c0,0-0.7,1.3-2.7,0.2l-3.1-14.1"/>
		<line class="st2" x1="30.3" y1="238" x2="29" y2="222.6"/>
		<line class="st2" x1="30.7" y1="237.9" x2="29.6" y2="222.3"/>
		<line class="st2" x1="26.8" y1="221.9" x2="28.8" y2="238"/>
		<line class="st2" x1="29.7" y1="238.4" x2="27.4" y2="220.3"/>
		<line class="st2" x1="32.3" y1="225.6" x2="30.8" y2="237.7"/>
		<line class="st2" x1="27.2" y1="222.3" x2="29.2" y2="238.2"/>
		<line class="st3" x1="25.9" y1="222.1" x2="28.5" y2="237.9"/>
		<line class="st3" x1="28.5" y1="222.1" x2="30.1" y2="238.2"/>
	</g>
	<g>
		<path class="st2" d="M37.1,219.7v12.8c0,0.9-0.9,1.6-1.8,1.5l0,0c-0.5-0.2-0.9-0.5-0.9-1.1l-2.9-13.4"/>
		<line class="st2" x1="36.5" y1="233.8" x2="35.1" y2="218.6"/>
		<line class="st2" x1="36.7" y1="233.8" x2="35.8" y2="218.1"/>
		<line class="st2" x1="32.9" y1="217.9" x2="34.9" y2="234"/>
		<line class="st2" x1="35.8" y1="234.2" x2="33.4" y2="216"/>
		<line class="st2" x1="38.4" y1="221.4" x2="36.9" y2="233.5"/>
		<line class="st3" x1="33.2" y1="218.1" x2="35.2" y2="234"/>
		<line class="st2" x1="32.1" y1="217.9" x2="34.5" y2="233.6"/>
		<line class="st3" x1="34.5" y1="217.9" x2="36.2" y2="234"/>
	</g>
	<g>
		<path class="st3" d="M95.7,248.7v12.8c0,0.9-0.9,1.6-1.8,1.5l0,0c-0.5-0.2-0.9-0.5-0.9-1.1l-2.9-13.4"/>
		<line class="st2" x1="95.2" y1="262.8" x2="93.9" y2="247.4"/>
		<line class="st2" x1="95.6" y1="262.6" x2="94.5" y2="247"/>
		<line class="st2" x1="91.7" y1="246.7" x2="93.7" y2="262.8"/>
		<line class="st2" x1="94.6" y1="263.1" x2="92.1" y2="245"/>
		<line class="st2" x1="97.2" y1="250.3" x2="95.7" y2="262.4"/>
		<line class="st3" x1="92.1" y1="247" x2="94.1" y2="262.8"/>
		<line class="st2" x1="90.8" y1="246.8" x2="93.4" y2="262.6"/>
		<line class="st2" x1="93.4" y1="246.8" x2="95" y2="263"/>
	</g>
	<g>
		<path class="st3" d="M70.6,235.8v12.8c0,0.9-0.9,1.6-1.8,1.5l0,0c-0.5-0.2-0.9-0.5-0.9-1.1l-2.9-13.4"/>
		<line class="st2" x1="70.1" y1="250" x2="68.8" y2="234.6"/>
		<line class="st2" x1="70.4" y1="249.8" x2="69.3" y2="234.2"/>
		<line class="st2" x1="66.6" y1="233.8" x2="68.6" y2="250"/>
		<line class="st2" x1="69.3" y1="250.1" x2="67" y2="232"/>
		<line class="st2" x1="72.1" y1="237.5" x2="70.6" y2="249.6"/>
		<line class="st2" x1="67" y1="234.2" x2="69" y2="250"/>
		<line class="st3" x1="65.7" y1="234" x2="68.2" y2="249.8"/>
		<line class="st2" x1="68.2" y1="233.8" x2="69.9" y2="250"/>
	</g>
	<g>
		<path class="st3" d="M115.7,264.6v13.7c0,0-0.7,1.3-2.7,0.2l-3.1-14.1"/>
		<line class="st2" x1="115.2" y1="278.7" x2="113.7" y2="263.3"/>
		<line class="st3" x1="115.5" y1="278.5" x2="114.4" y2="263"/>
		<line class="st2" x1="111.5" y1="262.6" x2="113.5" y2="278.7"/>
		<line class="st2" x1="114.4" y1="278.9" x2="112.1" y2="260.9"/>
		<line class="st2" x1="117" y1="266.3" x2="115.5" y2="278.4"/>
		<line class="st3" x1="112.1" y1="263" x2="114.1" y2="278.7"/>
		<line class="st2" x1="110.8" y1="262.8" x2="113.2" y2="278.5"/>
		<line class="st2" x1="113.2" y1="262.6" x2="114.8" y2="278.9"/>
	</g>
	<g>
		<path class="st2" d="M109.7,261.9v13.7c0,0-0.7,1.3-2.7,0.2l-3.1-14.1"/>
		<line class="st2" x1="109.1" y1="275.8" x2="107.7" y2="260.6"/>
		<line class="st2" x1="109.3" y1="275.8" x2="108.4" y2="260"/>
		<line class="st2" x1="105.5" y1="259.8" x2="107.5" y2="276"/>
		<line class="st2" x1="108.4" y1="276.2" x2="106" y2="258"/>
		<line class="st2" x1="111" y1="263.5" x2="109.5" y2="275.4"/>
		<line class="st2" x1="105.8" y1="260.2" x2="107.8" y2="276"/>
		<line class="st3" x1="104.7" y1="259.8" x2="107.1" y2="275.8"/>
		<line class="st3" x1="107.1" y1="259.8" x2="108.8" y2="276"/>
	</g>
	<g>
		<path class="st2" d="M71.5,242.3V256c0,0-0.7,1.3-2.7,0.2l-3.1-14.1"/>
		<line class="st2" x1="71" y1="256.2" x2="69.7" y2="241"/>
		<line class="st2" x1="71.4" y1="256.2" x2="70.3" y2="240.4"/>
		<line class="st2" x1="67.5" y1="240.2" x2="69.5" y2="256.4"/>
		<line class="st2" x1="70.4" y1="256.6" x2="68.1" y2="238.4"/>
		<line class="st2" x1="73" y1="243.9" x2="71.5" y2="255.8"/>
		<line class="st3" x1="67.9" y1="240.6" x2="69.9" y2="256.4"/>
		<line class="st2" x1="66.6" y1="240.2" x2="69.2" y2="256"/>
		<line class="st3" x1="69.2" y1="240.2" x2="70.8" y2="256.4"/>
	</g>
	<g>
		<path class="st3" d="M64.6,240.1v13.7c0,0-0.7,1.3-2.7,0.2l-3.1-14.1"/>
		<line class="st2" x1="64" y1="254" x2="62.7" y2="238.8"/>
		<line class="st2" x1="64.4" y1="254" x2="63.3" y2="238.2"/>
		<line class="st2" x1="60.4" y1="238" x2="62.4" y2="254.2"/>
		<line class="st2" x1="63.3" y1="254.4" x2="60.9" y2="236.2"/>
		<line class="st2" x1="66" y1="241.7" x2="64.6" y2="253.6"/>
		<line class="st3" x1="60.9" y1="238.4" x2="62.9" y2="254.2"/>
		<line class="st2" x1="59.6" y1="238" x2="62" y2="254"/>
		<line class="st3" x1="62" y1="238" x2="63.8" y2="254.2"/>
	</g>
	<g>
		<path class="st2" d="M102.9,258.6v13.7c0,0-0.7,1.3-2.7,0.2L97,258.4"/>
		<line class="st2" x1="102.3" y1="272.7" x2="100.9" y2="257.3"/>
		<line class="st2" x1="102.5" y1="272.5" x2="101.6" y2="256.9"/>
		<line class="st2" x1="98.7" y1="256.6" x2="100.7" y2="272.7"/>
		<line class="st2" x1="101.6" y1="272.9" x2="99.2" y2="254.7"/>
		<line class="st2" x1="104.2" y1="260.2" x2="102.7" y2="272.3"/>
		<line class="st2" x1="99" y1="256.9" x2="101.1" y2="272.7"/>
		<line class="st3" x1="97.9" y1="256.7" x2="100.3" y2="272.5"/>
		<line class="st2" x1="100.3" y1="256.6" x2="102" y2="272.7"/>
	</g>
	<g>
		<path class="st3" d="M77.8,246.1v13.7c0,0-0.7,1.3-2.7,0.2l-3.1-14.1"/>
		<line class="st2" x1="77.2" y1="260.2" x2="75.8" y2="244.8"/>
		<line class="st2" x1="77.4" y1="260" x2="76.5" y2="244.5"/>
		<line class="st2" x1="73.6" y1="244.1" x2="75.6" y2="260.2"/>
		<line class="st2" x1="76.5" y1="260.4" x2="74.1" y2="242.4"/>
		<line class="st2" x1="79.1" y1="247.8" x2="77.6" y2="259.8"/>
		<line class="st3" x1="73.9" y1="244.5" x2="75.9" y2="260.2"/>
		<line class="st2" x1="72.8" y1="244.3" x2="75.2" y2="260"/>
		<line class="st2" x1="75.2" y1="244.3" x2="76.9" y2="260.4"/>
	</g>
	<g>
		<path class="st2" d="M96.1,255.5v13.7c0,0-0.7,1.3-2.7,0.2l-3.1-14.1"/>
		<line class="st2" x1="95.6" y1="269.6" x2="94.1" y2="254.4"/>
		<line class="st2" x1="95.9" y1="269.6" x2="94.8" y2="253.8"/>
		<line class="st2" x1="91.9" y1="253.6" x2="93.9" y2="269.7"/>
		<line class="st2" x1="94.8" y1="269.9" x2="92.4" y2="251.8"/>
		<line class="st2" x1="97.4" y1="257.1" x2="95.9" y2="269.2"/>
		<line class="st2" x1="92.4" y1="253.8" x2="94.5" y2="269.7"/>
		<line class="st3" x1="91.2" y1="253.6" x2="93.5" y2="269.4"/>
		<line class="st3" x1="93.5" y1="253.6" x2="95.2" y2="269.7"/>
	</g>
	<g>
		<path class="st2" d="M102,252.2V265c0,0.9-0.9,1.6-1.8,1.5l0,0c-0.5-0.2-0.9-0.5-0.9-1.1L96.3,252"/>
		<line class="st2" x1="101.4" y1="266.3" x2="100" y2="250.9"/>
		<line class="st3" x1="101.6" y1="266.1" x2="100.5" y2="250.5"/>
		<line class="st2" x1="97.8" y1="250.3" x2="99.8" y2="266.3"/>
		<line class="st2" x1="100.7" y1="266.6" x2="98.3" y2="248.5"/>
		<line class="st3" x1="103.3" y1="253.8" x2="101.8" y2="265.9"/>
		<line class="st3" x1="98.1" y1="250.5" x2="100.1" y2="266.4"/>
		<line class="st2" x1="97" y1="250.3" x2="99.4" y2="266.1"/>
		<line class="st2" x1="99.4" y1="250.3" x2="101.1" y2="266.4"/>
	</g>
	<g>
		<path class="st2" d="M90.1,252v13.7c0,0-0.7,1.3-2.7,0.2l-3.1-14.1"/>
		<line class="st2" x1="89.5" y1="266.1" x2="88" y2="250.9"/>
		<line class="st2" x1="89.7" y1="265.9" x2="88.6" y2="250.3"/>
		<line class="st2" x1="85.8" y1="250.1" x2="87.9" y2="266.1"/>
		<line class="st2" x1="88.8" y1="266.4" x2="86.4" y2="248.3"/>
		<line class="st3" x1="91.3" y1="253.6" x2="89.9" y2="265.7"/>
		<line class="st2" x1="86.2" y1="250.3" x2="88.2" y2="266.3"/>
		<line class="st3" x1="85.1" y1="250.1" x2="87.5" y2="265.9"/>
		<line class="st3" x1="87.5" y1="250.1" x2="89.1" y2="266.3"/>
	</g>
	<g>
		<path class="st2" d="M83.6,249.2V263c0,0-0.7,1.3-2.7,0.2L77.8,249"/>
		<line class="st2" x1="83.1" y1="263.3" x2="81.8" y2="247.9"/>
		<line class="st2" x1="83.5" y1="263.1" x2="82.4" y2="247.6"/>
		<line class="st2" x1="79.6" y1="247.2" x2="81.6" y2="263.3"/>
		<line class="st2" x1="82.4" y1="263.5" x2="80" y2="245.6"/>
		<line class="st2" x1="85.1" y1="250.9" x2="83.6" y2="263"/>
		<line class="st2" x1="80" y1="247.6" x2="82" y2="263.3"/>
		<line class="st3" x1="78.7" y1="247.4" x2="81.3" y2="263.1"/>
		<line class="st3" x1="81.3" y1="247.2" x2="82.9" y2="263.3"/>
	</g>
	<g>
		<path class="st2" d="M45,230.9v13.7c0,0-0.7,1.3-2.7,0.2l-3.1-14.1"/>
		<line class="st2" x1="44.4" y1="245" x2="43.1" y2="229.6"/>
		<line class="st2" x1="44.8" y1="244.8" x2="43.7" y2="229.2"/>
		<line class="st2" x1="40.7" y1="228.9" x2="42.9" y2="245"/>
		<line class="st2" x1="43.7" y1="245.2" x2="41.3" y2="227.2"/>
		<line class="st2" x1="46.4" y1="232.5" x2="45" y2="244.6"/>
		<line class="st3" x1="41.3" y1="229.2" x2="43.3" y2="245"/>
		<line class="st2" x1="40" y1="229.1" x2="42.6" y2="244.8"/>
		<line class="st2" x1="42.4" y1="228.9" x2="44.2" y2="245"/>
	</g>
	<g>
		<path class="st3" d="M38.9,227.4v13.7c0,0-0.7,1.3-2.7,0.2L33,227.2"/>
		<line class="st2" x1="38.4" y1="241.5" x2="36.9" y2="226.1"/>
		<line class="st2" x1="38.7" y1="241.3" x2="37.6" y2="225.8"/>
		<line class="st2" x1="34.7" y1="225.4" x2="36.7" y2="241.5"/>
		<line class="st2" x1="37.6" y1="241.7" x2="35.2" y2="223.7"/>
		<line class="st3" x1="40.2" y1="229.1" x2="38.7" y2="241.2"/>
		<line class="st3" x1="35.2" y1="225.8" x2="37.1" y2="241.5"/>
		<line class="st2" x1="34" y1="225.6" x2="36.3" y2="241.3"/>
		<line class="st3" x1="36.3" y1="225.4" x2="38" y2="241.5"/>
	</g>
	<g>
		<path class="st2" d="M58.5,237.1v13.7c0,0-0.7,1.3-2.7,0.2l-3.1-14.1"/>
		<line class="st2" x1="58" y1="251.2" x2="56.5" y2="236"/>
		<line class="st2" x1="58.3" y1="251.1" x2="57.2" y2="235.5"/>
		<line class="st2" x1="54.3" y1="235.3" x2="56.3" y2="251.2"/>
		<line class="st2" x1="57.2" y1="251.6" x2="54.9" y2="233.5"/>
		<line class="st2" x1="59.8" y1="238.8" x2="58.3" y2="250.9"/>
		<line class="st3" x1="54.9" y1="235.5" x2="56.9" y2="251.4"/>
		<line class="st2" x1="53.6" y1="235.3" x2="56" y2="251.1"/>
		<line class="st3" x1="56" y1="235.3" x2="57.6" y2="251.4"/>
	</g>
	<g>
		<path class="st3" d="M51.7,234v13.7c0,0-0.7,1.3-2.7,0.2l-3.1-14.1"/>
		<line class="st2" x1="51.2" y1="247.9" x2="49.9" y2="232.7"/>
		<line class="st3" x1="51.6" y1="247.9" x2="50.5" y2="232.2"/>
		<line class="st2" x1="47.5" y1="232" x2="49.5" y2="248.1"/>
		<line class="st2" x1="50.5" y1="248.3" x2="48.1" y2="230.2"/>
		<line class="st2" x1="53" y1="235.7" x2="51.7" y2="247.6"/>
		<line class="st2" x1="48.1" y1="232.4" x2="50.1" y2="248.1"/>
		<line class="st3" x1="46.8" y1="232" x2="49.2" y2="247.8"/>
		<line class="st2" x1="49.2" y1="232" x2="51" y2="248.1"/>
	</g>
</g>
<g>
	<g>
		<g>
			<path class="st0" d="M97.2,78.4l0.2,110.9c0,0-1.3-2.7-1.5-2.7c-0.2,0,0.7,9.5,0.7,9.5L97,199c0,0-1.1-2-1.3-1.8
				c-0.2,0.2,0,3.3,0,3.3l0.2,9.2c0,0-0.7,11.4-1.3,11.4c-0.5,0-1.5-29.1-1.5-29.1l-0.4-10.3l-0.4-103L97.2,78.4z"/>
		</g>
		<ellipse class="st4" cx="94.8" cy="78.4" rx="2.4" ry="1.3"/>
	</g>
	<g>
		<g>
			<path class="st0" d="M82.9,95L83.1,206c0,0-1.3-2.7-1.5-2.7c-0.2,0,0.7,9.5,0.7,9.5l0.4,2.9c0,0-1.1-2-1.3-1.8
				c-0.2,0.2,0,3.3,0,3.3l0.2,9.2c0,0-0.7,11.4-1.3,11.4c-0.5,0-1.1-29.1-1.1-29.1l-0.4-10.3l-0.7-103L82.9,95z"/>
		</g>
		<ellipse class="st4" cx="80.5" cy="95" rx="2.4" ry="1.3"/>
	</g>
	<g>
		<g>
			<path class="st0" d="M111.9,97.6l0.2,110.9c0,0-1.3-2.7-1.5-2.7c-0.2,0,0.7,9.5,0.7,9.5l0.4,2.9c0,0-1.1-2-1.3-1.8
				c-0.2,0.2,0,3.3,0,3.3l0.2,9.2c0,0-0.7,11.4-1.3,11.4s-1.1-29.1-1.1-29.1l-0.7-10.3l-0.4-103L111.9,97.6z"/>
		</g>
		<ellipse class="st4" cx="109.5" cy="97.6" rx="2.4" ry="1.3"/>
	</g>
	<g>
		<g>
			<path class="st0" d="M124,59.3l0.2,110.9c0,0-1.3-2.7-1.5-2.7c-0.2,0,0.7,9.5,0.7,9.5l0.4,2.9c0,0-1.1-2-1.3-1.8
				c-0.2,0.2,0,3.3,0,3.3l0.2,9.2c0,0-0.7,11.4-1.3,11.4c-0.5,0-1.1-29.1-1.1-29.1l-0.4-10.3l-0.4-103L124,59.3z"/>
		</g>
		<ellipse class="st4" cx="121.4" cy="59.5" rx="2.4" ry="1.3"/>
	</g>
</g>
<polygon class="st0" points="112.2,304.4 201.5,259.7 201.5,246.1 112.2,290.3 "/>
</svg>
