<?xml version="1.0" encoding="utf-8"?>
<!-- Generator: Adobe Illustrator 25.2.3, SVG Export Plug-In . SVG Version: 6.00 Build 0)  -->
<svg version="1.1" id="Layer_1" xmlns="http://www.w3.org/2000/svg" xmlns:xlink="http://www.w3.org/1999/xlink" x="0px" y="0px"
	 viewBox="0 0 202.4 249.1" style="enable-background:new 0 0 202.4 249.1;" xml:space="preserve">
<style type="text/css">
	.st0{fill:#CBB8B9;stroke:#FFFFFF;stroke-width:0.4583;stroke-linejoin:bevel;stroke-miterlimit:10;}
	.st1{fill:#E4DAD8;stroke:#FFFFFF;stroke-width:0.4401;stroke-linejoin:bevel;stroke-miterlimit:10;}
	.st2{fill:none;stroke:#B79797;stroke-width:0.6796;stroke-linecap:round;stroke-miterlimit:10;}
	.st3{fill:none;stroke:#9F8080;stroke-width:0.6796;stroke-linecap:round;stroke-miterlimit:10;}
	.st4{fill:#B79797;stroke:#FFFFFF;stroke-width:0.4401;stroke-miterlimit:10;}
</style>
<polygon class="st0" points="1.5,178.1 1.5,192.3 111.9,247.6 111.5,233.3 "/>
<polygon class="st1" points="1.5,178.3 111.7,232.8 201.5,188.2 91.5,132.7 "/>
<g>
	<g>
		<path class="st2" d="M117.7,149.6v12.8c0,0.9-0.9,1.6-1.8,1.5l0,0c-0.5-0.2-0.9-0.5-0.9-1.1l-2.9-13.4"/>
		<line class="st2" x1="117.2" y1="163.5" x2="115.9" y2="148.3"/>
		<line class="st3" x1="117.6" y1="163.5" x2="116.5" y2="147.9"/>
		<line class="st2" x1="113.5" y1="147.5" x2="115.5" y2="163.7"/>
		<line class="st2" x1="116.5" y1="163.9" x2="114.1" y2="145.7"/>
		<line class="st2" x1="119" y1="151.2" x2="117.7" y2="163.1"/>
		<line class="st3" x1="114.1" y1="147.9" x2="116.1" y2="163.7"/>
		<line class="st2" x1="112.8" y1="147.5" x2="115.2" y2="163.5"/>
		<line class="st2" x1="115.2" y1="147.5" x2="116.8" y2="163.7"/>
	</g>
	<g>
		<path class="st2" d="M111.7,146.6v12.8c0,0.9-0.9,1.6-1.8,1.5l0,0c-0.5-0.2-0.9-0.5-0.9-1.1l-2.9-13.4"/>
		<line class="st2" x1="111.1" y1="160.7" x2="109.7" y2="145.5"/>
		<line class="st3" x1="111.3" y1="160.7" x2="110.4" y2="145"/>
		<line class="st2" x1="107.5" y1="144.8" x2="109.5" y2="160.9"/>
		<line class="st3" x1="110.4" y1="161.1" x2="108" y2="143"/>
		<line class="st2" x1="113" y1="148.3" x2="111.5" y2="160.4"/>
		<line class="st2" x1="107.8" y1="145" x2="109.9" y2="160.9"/>
		<line class="st3" x1="106.7" y1="144.8" x2="109.1" y2="160.6"/>
		<line class="st2" x1="109.1" y1="144.8" x2="110.8" y2="160.9"/>
	</g>
	<g>
		<path class="st2" d="M104.9,143.5v12.8c0,0.9-0.9,1.6-1.8,1.5l0,0c-0.5-0.2-0.9-0.5-0.9-1.1l-2.9-13.4"/>
		<line class="st2" x1="104.4" y1="157.4" x2="102.9" y2="142.2"/>
		<line class="st2" x1="104.7" y1="157.4" x2="103.6" y2="141.7"/>
		<line class="st2" x1="100.7" y1="141.5" x2="102.7" y2="157.6"/>
		<line class="st3" x1="103.6" y1="157.8" x2="101.2" y2="139.7"/>
		<line class="st2" x1="106.2" y1="145.2" x2="104.7" y2="157.1"/>
		<line class="st2" x1="101.2" y1="141.9" x2="103.1" y2="157.6"/>
		<line class="st2" x1="100" y1="141.5" x2="102.3" y2="157.3"/>
		<line class="st3" x1="102.3" y1="141.5" x2="104" y2="157.6"/>
	</g>
	<g>
		<path class="st2" d="M98.1,140.4v12.8c0,0.9-0.9,1.6-1.8,1.5l0,0c-0.5-0.2-0.9-0.5-0.9-1.1l-2.9-13.4"/>
		<line class="st2" x1="97.6" y1="154.5" x2="96.3" y2="139.1"/>
		<line class="st2" x1="97.9" y1="154.3" x2="96.8" y2="138.7"/>
		<line class="st2" x1="93.9" y1="138.4" x2="95.9" y2="154.5"/>
		<line class="st2" x1="96.8" y1="154.7" x2="94.5" y2="136.7"/>
		<line class="st2" x1="99.4" y1="142" x2="98.1" y2="154.1"/>
		<line class="st2" x1="94.5" y1="138.7" x2="96.5" y2="154.5"/>
		<line class="st3" x1="93.2" y1="138.6" x2="95.6" y2="154.3"/>
		<line class="st3" x1="95.6" y1="138.4" x2="97.4" y2="154.7"/>
	</g>
	<g>
		<path class="st3" d="M92.1,136.9v12.8c0,0.9-0.9,1.6-1.8,1.5l0,0c-0.5-0.2-0.9-0.5-0.9-1.1l-2.9-13.4"/>
		<line class="st2" x1="91.5" y1="151" x2="90.1" y2="135.6"/>
		<line class="st2" x1="91.7" y1="150.8" x2="90.8" y2="135.3"/>
		<line class="st2" x1="87.9" y1="134.9" x2="89.9" y2="151"/>
		<line class="st2" x1="90.8" y1="151.2" x2="88.4" y2="133.2"/>
		<line class="st2" x1="93.4" y1="138.6" x2="91.9" y2="150.7"/>
		<line class="st3" x1="88.2" y1="135.3" x2="90.2" y2="151"/>
		<line class="st2" x1="87.1" y1="135.1" x2="89.5" y2="150.8"/>
		<line class="st2" x1="89.5" y1="134.9" x2="91.2" y2="151"/>
	</g>
	<g>
		<path class="st3" d="M74.7,141.7v12.8c0,0.9-0.9,1.6-1.8,1.5l0,0c-0.5-0.2-0.9-0.5-0.9-1.1L69,141.5"/>
		<line class="st2" x1="74.1" y1="155.8" x2="72.8" y2="140.6"/>
		<line class="st2" x1="74.5" y1="155.6" x2="73.4" y2="140"/>
		<line class="st2" x1="70.6" y1="139.8" x2="72.6" y2="155.8"/>
		<line class="st3" x1="73.6" y1="156.2" x2="71" y2="138"/>
		<line class="st3" x1="76.1" y1="143.3" x2="74.7" y2="155.4"/>
		<line class="st3" x1="71" y1="140" x2="73" y2="156"/>
		<line class="st2" x1="69.7" y1="139.8" x2="72.3" y2="155.6"/>
		<line class="st2" x1="72.3" y1="139.8" x2="73.9" y2="156"/>
	</g>
	<g>
		<path class="st3" d="M81.4,138.4v12.8c0,0.9-0.9,1.6-1.8,1.5l0,0c-0.5-0.2-0.9-0.5-0.9-1.1l-3.3-13.4"/>
		<line class="st3" x1="80.9" y1="152.5" x2="79.4" y2="137.1"/>
		<line class="st3" x1="81.1" y1="152.3" x2="80" y2="136.7"/>
		<line class="st3" x1="77.2" y1="136.4" x2="79.2" y2="152.5"/>
		<line class="st3" x1="80.2" y1="152.7" x2="77.8" y2="134.7"/>
		<line class="st2" x1="82.7" y1="140" x2="81.3" y2="152.1"/>
		<line class="st2" x1="77.6" y1="136.7" x2="79.6" y2="152.5"/>
		<line class="st2" x1="76.5" y1="136.5" x2="78.9" y2="152.3"/>
		<line class="st2" x1="78.9" y1="136.4" x2="80.5" y2="152.5"/>
	</g>
	<g>
		<path class="st3" d="M86.8,135.1v12.8c0,0.9-0.9,1.6-1.8,1.5l0,0c-0.5-0.2-0.9-0.5-0.9-1.1l-2.9-13.4"/>
		<line class="st2" x1="86.2" y1="149.2" x2="84.7" y2="133.8"/>
		<line class="st3" x1="86.4" y1="149" x2="85.5" y2="133.4"/>
		<line class="st3" x1="82.5" y1="133.1" x2="84.6" y2="149.2"/>
		<line class="st3" x1="85.5" y1="149.4" x2="83.1" y2="131.2"/>
		<line class="st2" x1="88" y1="136.7" x2="86.6" y2="148.8"/>
		<line class="st2" x1="82.9" y1="133.4" x2="84.9" y2="149.2"/>
		<line class="st3" x1="81.8" y1="133.1" x2="84.2" y2="149"/>
		<line class="st2" x1="84.2" y1="133.1" x2="85.8" y2="149.2"/>
	</g>
	<g>
		<path class="st3" d="M130.6,156.5v12.8c0,0.9-0.9,1.6-1.8,1.5l0,0c-0.5-0.2-0.9-0.5-0.9-1.1l-2.9-13.4"/>
		<line class="st2" x1="130" y1="170.5" x2="128.7" y2="155.2"/>
		<line class="st2" x1="130.4" y1="170.5" x2="129.3" y2="154.9"/>
		<line class="st2" x1="126.4" y1="154.5" x2="128.6" y2="170.6"/>
		<line class="st2" x1="129.3" y1="170.8" x2="126.9" y2="152.7"/>
		<line class="st2" x1="132" y1="158.2" x2="130.6" y2="170.1"/>
		<line class="st3" x1="126.9" y1="154.9" x2="128.9" y2="170.6"/>
		<line class="st2" x1="125.6" y1="154.5" x2="128.2" y2="170.5"/>
		<line class="st2" x1="128" y1="154.5" x2="129.8" y2="170.6"/>
	</g>
	<g>
		<path class="st2" d="M119.2,155.8v12.8c0,0.9-0.9,1.6-1.8,1.5l0,0c-0.5-0.2-0.9-0.5-0.9-1.1l-2.9-13.4"/>
		<line class="st3" x1="118.7" y1="169.9" x2="117.2" y2="154.7"/>
		<line class="st2" x1="119" y1="169.9" x2="117.9" y2="154.1"/>
		<line class="st2" x1="115" y1="154" x2="117" y2="170.1"/>
		<line class="st2" x1="117.9" y1="170.3" x2="115.5" y2="152.1"/>
		<line class="st3" x1="120.5" y1="157.4" x2="119" y2="169.5"/>
		<line class="st2" x1="115.4" y1="154.1" x2="117.4" y2="170.1"/>
		<line class="st3" x1="114.3" y1="154" x2="116.6" y2="169.7"/>
		<line class="st3" x1="116.6" y1="154" x2="118.3" y2="170.1"/>
	</g>
	<g>
		<path class="st3" d="M124.5,152.5v12.8c0,0.9-0.9,1.6-1.8,1.5l0,0c-0.5-0.2-0.9-0.5-0.9-1.1l-2.9-13.4"/>
		<line class="st2" x1="124" y1="166.6" x2="122.5" y2="151.4"/>
		<line class="st2" x1="124.3" y1="166.4" x2="123.2" y2="150.8"/>
		<line class="st2" x1="120.3" y1="150.7" x2="122.3" y2="166.6"/>
		<line class="st2" x1="123.2" y1="167" x2="120.9" y2="148.8"/>
		<line class="st3" x1="125.8" y1="154.1" x2="124.3" y2="166.2"/>
		<line class="st3" x1="120.9" y1="150.8" x2="122.7" y2="166.8"/>
		<line class="st2" x1="119.6" y1="150.7" x2="122" y2="166.4"/>
		<line class="st3" x1="122" y1="150.7" x2="123.6" y2="166.8"/>
	</g>
	<g>
		<path class="st3" d="M112.4,152.9v12.8c0,0.9-0.9,1.6-1.8,1.5l0,0c-0.5-0.2-0.9-0.5-0.9-1.1l-2.9-13.4"/>
		<line class="st2" x1="111.9" y1="167" x2="110.4" y2="151.6"/>
		<line class="st2" x1="112.2" y1="166.8" x2="111.1" y2="151.2"/>
		<line class="st2" x1="108.2" y1="150.8" x2="110.2" y2="167"/>
		<line class="st2" x1="111.1" y1="167.2" x2="108.8" y2="149"/>
		<line class="st2" x1="113.7" y1="154.5" x2="112.2" y2="166.6"/>
		<line class="st2" x1="108.8" y1="151.2" x2="110.8" y2="167"/>
		<line class="st2" x1="107.5" y1="150.8" x2="109.9" y2="166.8"/>
		<line class="st3" x1="109.9" y1="150.8" x2="111.5" y2="167"/>
	</g>
	<g>
		<path class="st2" d="M106.4,150.1v12.8c0,0.9-0.9,1.6-1.8,1.5l0,0c-0.5-0.2-0.9-0.5-0.9-1.1l-2.9-13.4"/>
		<line class="st2" x1="105.8" y1="164" x2="104.4" y2="148.8"/>
		<line class="st3" x1="106" y1="164" x2="105.1" y2="148.3"/>
		<line class="st2" x1="102.2" y1="148.1" x2="104.2" y2="164.2"/>
		<line class="st2" x1="105.1" y1="164.4" x2="102.7" y2="146.3"/>
		<line class="st2" x1="107.7" y1="151.8" x2="106.2" y2="163.7"/>
		<line class="st3" x1="102.5" y1="148.3" x2="104.5" y2="164.2"/>
		<line class="st2" x1="101.4" y1="148.1" x2="103.8" y2="163.9"/>
		<line class="st2" x1="103.8" y1="148.1" x2="105.5" y2="164.2"/>
	</g>
	<g>
		<path class="st3" d="M99.6,146.8v12.8c0,0.9-0.9,1.6-1.8,1.5l0,0c-0.5-0.2-0.9-0.5-0.9-1.1l-2.9-13.4"/>
		<line class="st2" x1="99" y1="160.7" x2="97.6" y2="145.5"/>
		<line class="st2" x1="99.4" y1="160.7" x2="98.3" y2="145.2"/>
		<line class="st2" x1="95.4" y1="144.8" x2="97.4" y2="160.9"/>
		<line class="st2" x1="98.3" y1="161.1" x2="95.9" y2="143"/>
		<line class="st2" x1="100.9" y1="148.5" x2="99.4" y2="160.4"/>
		<line class="st2" x1="95.9" y1="145.2" x2="97.8" y2="160.9"/>
		<line class="st2" x1="94.6" y1="144.8" x2="97" y2="160.7"/>
		<line class="st3" x1="97" y1="144.8" x2="98.7" y2="160.9"/>
	</g>
	<g>
		<path class="st2" d="M86.2,147v12.8c0,0.9-0.9,1.6-1.8,1.5l0,0c-0.5-0.2-0.9-0.5-0.9-1.1l-2.9-13.4"/>
		<line class="st2" x1="85.7" y1="161.1" x2="84.2" y2="145.9"/>
		<line class="st2" x1="85.8" y1="161.1" x2="84.7" y2="145.3"/>
		<line class="st2" x1="82" y1="145.2" x2="84" y2="161.3"/>
		<line class="st2" x1="84.9" y1="161.5" x2="82.5" y2="143.3"/>
		<line class="st2" x1="87.5" y1="148.6" x2="86" y2="160.7"/>
		<line class="st3" x1="82.4" y1="145.3" x2="84.4" y2="161.3"/>
		<line class="st3" x1="81.3" y1="145.2" x2="83.6" y2="160.9"/>
		<line class="st3" x1="83.6" y1="145.2" x2="85.3" y2="161.3"/>
	</g>
	<g>
		<path class="st3" d="M92.8,143.7v12.8c0,0.9-0.9,1.6-1.8,1.5l0,0c-0.5-0.2-0.9-0.5-0.9-1.1l-2.9-13.4"/>
		<line class="st2" x1="92.3" y1="157.8" x2="90.8" y2="142.4"/>
		<line class="st2" x1="92.6" y1="157.6" x2="91.5" y2="142"/>
		<line class="st2" x1="88.6" y1="141.7" x2="90.6" y2="157.8"/>
		<line class="st2" x1="91.5" y1="158.2" x2="89.1" y2="140"/>
		<line class="st2" x1="94.1" y1="145.3" x2="92.6" y2="157.4"/>
		<line class="st3" x1="89.1" y1="142" x2="91.2" y2="158"/>
		<line class="st2" x1="87.9" y1="141.9" x2="90.2" y2="157.6"/>
		<line class="st2" x1="90.2" y1="141.9" x2="91.9" y2="158"/>
	</g>
	<g>
		<path class="st3" d="M162.5,172.1v12.8c0,0.9-0.9,1.6-1.8,1.5l0,0c-0.5-0.2-0.9-0.5-0.9-1.1l-2.9-13.4"/>
		<line class="st2" x1="161.9" y1="186.2" x2="160.6" y2="171"/>
		<line class="st2" x1="162.3" y1="186.2" x2="161.2" y2="170.5"/>
		<line class="st2" x1="158.2" y1="170.3" x2="160.3" y2="186.2"/>
		<line class="st2" x1="161.2" y1="186.6" x2="158.8" y2="168.4"/>
		<line class="st2" x1="163.9" y1="173.7" x2="162.5" y2="185.8"/>
		<line class="st3" x1="158.8" y1="170.5" x2="160.8" y2="186.4"/>
		<line class="st2" x1="157.5" y1="170.3" x2="159.9" y2="186"/>
		<line class="st2" x1="159.9" y1="170.3" x2="161.7" y2="186.4"/>
	</g>
	<g>
		<path class="st2" d="M155.7,169v12.8c0,0.9-0.9,1.6-1.8,1.5l0,0c-0.5-0.2-0.9-0.5-0.9-1.1l-2.9-13.4"/>
		<line class="st2" x1="155.1" y1="182.9" x2="153.8" y2="167.7"/>
		<line class="st3" x1="155.5" y1="182.9" x2="154.4" y2="167.2"/>
		<line class="st2" x1="151.6" y1="167" x2="153.7" y2="183.1"/>
		<line class="st2" x1="154.4" y1="183.3" x2="152" y2="165.1"/>
		<line class="st2" x1="157.1" y1="170.6" x2="155.7" y2="182.5"/>
		<line class="st2" x1="152" y1="167.3" x2="154" y2="183.1"/>
		<line class="st3" x1="150.7" y1="167" x2="153.3" y2="182.7"/>
		<line class="st2" x1="153.1" y1="167" x2="154.9" y2="183.1"/>
	</g>
	<g>
		<path class="st2" d="M148.9,165.9v12.8c0,0.9-0.9,1.6-1.8,1.5l0,0c-0.5-0.2-0.9-0.5-0.9-1.1l-2.9-13.4"/>
		<line class="st2" x1="148.3" y1="180" x2="147.1" y2="164.6"/>
		<line class="st3" x1="148.7" y1="179.8" x2="147.6" y2="164.2"/>
		<line class="st2" x1="144.9" y1="163.9" x2="146.9" y2="180"/>
		<line class="st2" x1="147.8" y1="180.2" x2="145.2" y2="162.2"/>
		<line class="st3" x1="150.4" y1="167.5" x2="148.9" y2="179.6"/>
		<line class="st3" x1="145.2" y1="164.2" x2="147.2" y2="180"/>
		<line class="st2" x1="143.9" y1="164" x2="146.5" y2="179.8"/>
		<line class="st2" x1="146.5" y1="163.9" x2="148.2" y2="180.2"/>
	</g>
	<g>
		<path class="st2" d="M142.8,162.4v12.8c0,0.9-0.9,1.6-1.8,1.5l0,0c-0.5-0.2-0.9-0.5-0.9-1.1l-2.9-13.4"/>
		<line class="st2" x1="142.3" y1="176.5" x2="141" y2="161.1"/>
		<line class="st2" x1="142.7" y1="176.3" x2="141.6" y2="160.7"/>
		<line class="st2" x1="138.6" y1="160.4" x2="140.6" y2="176.5"/>
		<line class="st2" x1="141.6" y1="176.7" x2="139.2" y2="158.7"/>
		<line class="st3" x1="144.3" y1="164" x2="142.8" y2="176.1"/>
		<line class="st2" x1="139.2" y1="160.7" x2="141.2" y2="176.5"/>
		<line class="st3" x1="137.9" y1="160.6" x2="140.3" y2="176.3"/>
		<line class="st3" x1="140.3" y1="160.4" x2="142.1" y2="176.5"/>
	</g>
	<g>
		<path class="st3" d="M136.6,159.6v12.8c0,0.9-0.9,1.6-1.8,1.5l0,0c-0.5-0.2-0.9-0.5-0.9-1.1l-2.9-13.4"/>
		<line class="st2" x1="136.1" y1="173.6" x2="134.6" y2="158.4"/>
		<line class="st2" x1="136.2" y1="173.6" x2="135.1" y2="157.8"/>
		<line class="st2" x1="132.4" y1="157.6" x2="134.4" y2="173.7"/>
		<line class="st2" x1="135.3" y1="173.9" x2="132.9" y2="155.8"/>
		<line class="st2" x1="137.9" y1="161.3" x2="136.4" y2="173.2"/>
		<line class="st2" x1="132.8" y1="158" x2="134.8" y2="173.7"/>
		<line class="st3" x1="131.7" y1="157.6" x2="134" y2="173.4"/>
		<line class="st3" x1="134" y1="157.6" x2="135.7" y2="173.7"/>
	</g>
	<g>
		<path class="st2" d="M67.7,145.2V158c0,0.9-0.9,1.6-1.8,1.5l0,0c-0.5-0.2-0.9-0.5-0.9-1.1l-3.3-13.6"/>
		<line class="st2" x1="67" y1="159.1" x2="65.7" y2="143.9"/>
		<line class="st3" x1="67.3" y1="159.1" x2="66.2" y2="143.3"/>
		<line class="st2" x1="63.5" y1="143.1" x2="65.5" y2="159.3"/>
		<line class="st2" x1="66.4" y1="159.5" x2="64" y2="141.3"/>
		<line class="st2" x1="69" y1="146.8" x2="67.5" y2="158.7"/>
		<line class="st3" x1="63.8" y1="143.3" x2="65.9" y2="159.3"/>
		<line class="st2" x1="62.6" y1="143.1" x2="65.1" y2="158.9"/>
		<line class="st2" x1="65.1" y1="143.1" x2="66.8" y2="159.3"/>
	</g>
	<g>
		<path class="st2" d="M105.6,169.9v13.7c0,0-0.7,1.3-2.7,0.2l-3.1-14.1"/>
		<line class="st2" x1="105.1" y1="183.8" x2="103.8" y2="168.6"/>
		<line class="st2" x1="105.5" y1="183.8" x2="104.4" y2="168.1"/>
		<line class="st2" x1="101.6" y1="167.9" x2="103.6" y2="184"/>
		<line class="st2" x1="104.4" y1="184.2" x2="102" y2="166.1"/>
		<line class="st3" x1="107.1" y1="171.5" x2="105.6" y2="183.5"/>
		<line class="st2" x1="102" y1="168.3" x2="104" y2="184"/>
		<line class="st2" x1="100.7" y1="167.9" x2="103.3" y2="183.6"/>
		<line class="st2" x1="103.3" y1="167.9" x2="104.9" y2="184"/>
	</g>
	<g>
		<path class="st2" d="M118.7,163.1v12.8c0,0.9-0.9,1.6-1.8,1.5l0,0c-0.5-0.2-0.9-0.5-0.9-1.1l-2.9-13.4"/>
		<line class="st2" x1="118.1" y1="177.2" x2="116.6" y2="161.8"/>
		<line class="st2" x1="118.3" y1="177" x2="117.4" y2="161.5"/>
		<line class="st2" x1="114.4" y1="161.1" x2="116.5" y2="177.2"/>
		<line class="st2" x1="117.4" y1="177.4" x2="115" y2="159.5"/>
		<line class="st2" x1="119.9" y1="164.8" x2="118.5" y2="176.9"/>
		<line class="st3" x1="114.8" y1="161.5" x2="116.8" y2="177.2"/>
		<line class="st2" x1="113.7" y1="161.3" x2="116.1" y2="177"/>
		<line class="st2" x1="116.1" y1="161.3" x2="117.7" y2="177.4"/>
	</g>
	<g>
		<path class="st2" d="M125.3,159.8v12.8c0,0.9-0.9,1.6-1.8,1.5l0,0c-0.5-0.2-0.9-0.5-0.9-1.1l-2.9-13.4"/>
		<line class="st2" x1="124.7" y1="173.9" x2="123.4" y2="158.5"/>
		<line class="st2" x1="125.1" y1="173.7" x2="124" y2="158.2"/>
		<line class="st2" x1="121" y1="157.8" x2="123.2" y2="173.9"/>
		<line class="st2" x1="124" y1="174.1" x2="121.6" y2="156"/>
		<line class="st2" x1="126.7" y1="161.5" x2="125.3" y2="173.6"/>
		<line class="st3" x1="121.6" y1="158.2" x2="123.6" y2="173.9"/>
		<line class="st2" x1="120.3" y1="158" x2="122.9" y2="173.7"/>
		<line class="st2" x1="122.7" y1="157.8" x2="124.5" y2="173.9"/>
	</g>
	<g>
		<path class="st2" d="M99.6,165.9v13.7c0,0-0.7,1.3-2.7,0.2l-3.1-14.1"/>
		<line class="st2" x1="99" y1="180" x2="97.8" y2="164.6"/>
		<line class="st2" x1="99.4" y1="179.8" x2="98.3" y2="164.2"/>
		<line class="st2" x1="95.4" y1="163.9" x2="97.4" y2="180"/>
		<line class="st2" x1="98.3" y1="180.2" x2="95.9" y2="162.2"/>
		<line class="st2" x1="100.9" y1="167.5" x2="99.6" y2="179.6"/>
		<line class="st2" x1="95.9" y1="164.2" x2="97.9" y2="180"/>
		<line class="st2" x1="94.6" y1="164" x2="97" y2="179.8"/>
		<line class="st2" x1="97" y1="164" x2="98.7" y2="180.2"/>
	</g>
	<g>
		<path class="st2" d="M86.8,160v13.7c0,0-0.7,1.3-2.7,0.2l-3.1-14.1"/>
		<line class="st2" x1="86.2" y1="174.1" x2="84.7" y2="158.7"/>
		<line class="st2" x1="86.6" y1="173.9" x2="85.5" y2="158.4"/>
		<line class="st2" x1="82.5" y1="158" x2="84.6" y2="174.1"/>
		<line class="st2" x1="85.5" y1="174.5" x2="83.1" y2="156.3"/>
		<line class="st3" x1="88" y1="161.7" x2="86.6" y2="173.7"/>
		<line class="st2" x1="83.1" y1="158.4" x2="84.9" y2="174.3"/>
		<line class="st2" x1="81.8" y1="158.2" x2="84.2" y2="173.9"/>
		<line class="st2" x1="84.2" y1="158.2" x2="85.8" y2="174.3"/>
	</g>
	<g>
		<path class="st2" d="M92.6,156.7v12.8c0,0.9-0.9,1.6-1.8,1.5l0,0c-0.5-0.2-0.9-0.5-0.9-1.1l-2.9-13.4"/>
		<line class="st2" x1="92.1" y1="170.8" x2="90.6" y2="155.4"/>
		<line class="st2" x1="92.3" y1="170.6" x2="91.2" y2="155.1"/>
		<line class="st2" x1="88.4" y1="154.7" x2="90.4" y2="170.8"/>
		<line class="st2" x1="91.3" y1="171" x2="89" y2="153"/>
		<line class="st2" x1="93.9" y1="158.4" x2="92.4" y2="170.5"/>
		<line class="st2" x1="88.8" y1="155.1" x2="90.8" y2="170.8"/>
		<line class="st3" x1="87.7" y1="154.9" x2="90.1" y2="170.6"/>
		<line class="st3" x1="90.1" y1="154.7" x2="91.7" y2="170.8"/>
	</g>
	<g>
		<path class="st2" d="M80,156.7v13.7c0,0-0.7,1.3-2.7,0.2l-3.1-14.1"/>
		<line class="st2" x1="79.4" y1="170.8" x2="78.1" y2="155.6"/>
		<line class="st2" x1="79.8" y1="170.8" x2="78.7" y2="155.1"/>
		<line class="st2" x1="75.8" y1="154.9" x2="77.8" y2="171"/>
		<line class="st2" x1="78.7" y1="171.2" x2="76.3" y2="153"/>
		<line class="st2" x1="81.3" y1="158.4" x2="80" y2="170.5"/>
		<line class="st2" x1="76.3" y1="155.1" x2="78.3" y2="171"/>
		<line class="st2" x1="75" y1="154.9" x2="77.4" y2="170.6"/>
		<line class="st2" x1="77.4" y1="154.9" x2="79.1" y2="171"/>
	</g>
	<g>
		<path class="st3" d="M61.8,148.5v13.7c0,0-0.7,1.3-2.7,0.2L56,148.3"/>
		<line class="st2" x1="61.3" y1="162.4" x2="59.8" y2="147.2"/>
		<line class="st3" x1="61.5" y1="162.4" x2="60.5" y2="146.6"/>
		<line class="st2" x1="57.6" y1="146.4" x2="59.6" y2="162.6"/>
		<line class="st3" x1="60.5" y1="162.8" x2="58.2" y2="144.6"/>
		<line class="st2" x1="63.1" y1="150.1" x2="61.6" y2="162"/>
		<line class="st3" x1="58" y1="146.8" x2="60" y2="162.6"/>
		<line class="st2" x1="56.9" y1="146.4" x2="59.3" y2="162.4"/>
		<line class="st2" x1="59.3" y1="146.4" x2="60.9" y2="162.6"/>
	</g>
	<g>
		<path class="st2" d="M143.6,188.4v13.7c0,0-0.7,1.3-2.7,0.2l-3.1-14.1"/>
		<line class="st2" x1="143" y1="202.3" x2="141.7" y2="187.1"/>
		<line class="st2" x1="143.4" y1="202.3" x2="142.3" y2="186.6"/>
		<line class="st2" x1="139.5" y1="186.4" x2="141.6" y2="202.5"/>
		<line class="st2" x1="142.5" y1="202.7" x2="139.9" y2="184.6"/>
		<line class="st2" x1="145" y1="190.1" x2="143.6" y2="202"/>
		<line class="st2" x1="139.9" y1="186.8" x2="141.9" y2="202.5"/>
		<line class="st2" x1="138.6" y1="186.4" x2="141.2" y2="202.2"/>
		<line class="st2" x1="141.2" y1="186.4" x2="142.8" y2="202.5"/>
	</g>
	<g>
		<path class="st3" d="M137.5,185.5v13.7c0,0-0.7,1.3-2.7,0.2l-3.1-14.1"/>
		<line class="st2" x1="137" y1="199.6" x2="135.7" y2="184.2"/>
		<line class="st2" x1="137.3" y1="199.4" x2="136.2" y2="183.8"/>
		<line class="st2" x1="133.5" y1="183.5" x2="135.5" y2="199.6"/>
		<line class="st2" x1="136.2" y1="200" x2="133.9" y2="181.8"/>
		<line class="st2" x1="139" y1="187.1" x2="137.5" y2="199.2"/>
		<line class="st2" x1="133.9" y1="183.8" x2="135.9" y2="199.6"/>
		<line class="st2" x1="132.6" y1="183.6" x2="135.1" y2="199.4"/>
		<line class="st3" x1="135" y1="183.6" x2="136.8" y2="199.8"/>
	</g>
	<g>
		<path class="st2" d="M143.4,182.2V195c0,0.9-0.9,1.6-1.8,1.5l0,0c-0.5-0.2-0.9-0.5-0.9-1.1l-2.9-13.4"/>
		<line class="st2" x1="142.8" y1="196.3" x2="141.4" y2="180.9"/>
		<line class="st2" x1="143.2" y1="196.1" x2="142.1" y2="180.5"/>
		<line class="st2" x1="139.2" y1="180.2" x2="141.2" y2="196.3"/>
		<line class="st2" x1="142.1" y1="196.5" x2="139.7" y2="178.5"/>
		<line class="st3" x1="144.7" y1="183.8" x2="143.2" y2="195.9"/>
		<line class="st2" x1="139.7" y1="180.5" x2="141.7" y2="196.3"/>
		<line class="st2" x1="138.4" y1="180.3" x2="140.8" y2="196.1"/>
		<line class="st2" x1="140.8" y1="180.2" x2="142.5" y2="196.3"/>
	</g>
	<g>
		<path class="st2" d="M150.5,178.9v12.8c0,0.9-0.9,1.6-1.8,1.5l0,0c-0.5-0.2-0.9-0.5-0.9-1.1l-2.9-13.4"/>
		<line class="st2" x1="150" y1="192.8" x2="148.5" y2="177.6"/>
		<line class="st2" x1="150.2" y1="192.8" x2="149.3" y2="177.2"/>
		<line class="st2" x1="146.3" y1="176.9" x2="148.3" y2="193"/>
		<line class="st2" x1="149.3" y1="193.2" x2="146.9" y2="175"/>
		<line class="st2" x1="151.8" y1="180.5" x2="150.4" y2="192.4"/>
		<line class="st2" x1="146.7" y1="177.2" x2="148.7" y2="193"/>
		<line class="st2" x1="145.6" y1="176.9" x2="148" y2="192.8"/>
		<line class="st2" x1="148" y1="176.9" x2="149.6" y2="193"/>
	</g>
	<g>
		<path class="st2" d="M157.1,175.6v12.8c0,0.9-0.9,1.6-1.8,1.5l0,0c-0.5-0.2-0.9-0.5-0.9-1.1l-2.9-13.4"/>
		<line class="st2" x1="156.6" y1="189.5" x2="155.3" y2="174.3"/>
		<line class="st2" x1="157" y1="189.5" x2="155.9" y2="173.7"/>
		<line class="st2" x1="152.9" y1="173.6" x2="154.9" y2="189.7"/>
		<line class="st2" x1="155.9" y1="189.9" x2="153.5" y2="171.7"/>
		<line class="st2" x1="158.6" y1="177" x2="157.1" y2="189.1"/>
		<line class="st2" x1="153.5" y1="173.7" x2="155.5" y2="189.7"/>
		<line class="st2" x1="152.2" y1="173.6" x2="154.6" y2="189.3"/>
		<line class="st2" x1="154.6" y1="173.6" x2="156.4" y2="189.7"/>
	</g>
	<g>
		<path class="st2" d="M130.8,182.2v13.7c0,0-0.7,1.3-2.7,0.2l-3.1-14.1"/>
		<line class="st2" x1="130.2" y1="196.3" x2="128.9" y2="181.1"/>
		<line class="st2" x1="130.6" y1="196.3" x2="129.5" y2="180.5"/>
		<line class="st2" x1="126.7" y1="180.3" x2="128.7" y2="196.5"/>
		<line class="st2" x1="129.7" y1="196.7" x2="127.1" y2="178.5"/>
		<line class="st2" x1="132.2" y1="183.8" x2="130.8" y2="195.9"/>
		<line class="st2" x1="127.1" y1="180.5" x2="129.1" y2="196.5"/>
		<line class="st2" x1="125.8" y1="180.3" x2="128.4" y2="196.1"/>
		<line class="st2" x1="128.4" y1="180.3" x2="130" y2="196.5"/>
	</g>
	<g>
		<path class="st2" d="M150.4,172.3v12.8c0,0.9-0.9,1.6-1.8,1.5l0,0c-0.5-0.2-0.9-0.5-0.9-1.1l-2.9-13.4"/>
		<line class="st2" x1="149.8" y1="186.2" x2="148.5" y2="171"/>
		<line class="st3" x1="150.2" y1="186.2" x2="149.1" y2="170.6"/>
		<line class="st2" x1="146.1" y1="170.3" x2="148.3" y2="186.4"/>
		<line class="st2" x1="149.1" y1="186.6" x2="146.7" y2="168.4"/>
		<line class="st2" x1="151.8" y1="173.9" x2="150.4" y2="185.8"/>
		<line class="st3" x1="146.7" y1="170.6" x2="148.7" y2="186.4"/>
		<line class="st2" x1="145.4" y1="170.3" x2="148" y2="186.2"/>
		<line class="st3" x1="147.8" y1="170.3" x2="149.6" y2="186.4"/>
	</g>
	<g>
		<path class="st2" d="M124,179.2V193c0,0-0.7,1.3-2.7,0.2l-3.1-14.1"/>
		<line class="st2" x1="123.4" y1="193.4" x2="122.1" y2="178"/>
		<line class="st2" x1="123.8" y1="193.2" x2="122.7" y2="177.6"/>
		<line class="st2" x1="119.9" y1="177.2" x2="122" y2="193.4"/>
		<line class="st2" x1="122.9" y1="193.5" x2="120.3" y2="175.4"/>
		<line class="st2" x1="125.4" y1="180.9" x2="124" y2="193"/>
		<line class="st2" x1="120.3" y1="177.6" x2="122.3" y2="193.4"/>
		<line class="st2" x1="119" y1="177.2" x2="121.6" y2="193.2"/>
		<line class="st2" x1="121.6" y1="177.2" x2="123.2" y2="193.4"/>
	</g>
	<g>
		<path class="st2" d="M129.8,175.9v12.8c0,0.9-0.9,1.6-1.8,1.5l0,0c-0.5-0.2-0.9-0.5-0.9-1.1l-2.9-13.4"/>
		<line class="st2" x1="129.3" y1="189.9" x2="128" y2="174.7"/>
		<line class="st3" x1="129.7" y1="189.9" x2="128.6" y2="174.1"/>
		<line class="st2" x1="125.6" y1="173.9" x2="127.6" y2="190.1"/>
		<line class="st2" x1="128.6" y1="190.2" x2="126.2" y2="172.1"/>
		<line class="st2" x1="131.3" y1="177.6" x2="129.8" y2="189.5"/>
		<line class="st2" x1="126.2" y1="174.3" x2="128.2" y2="190.1"/>
		<line class="st2" x1="124.9" y1="173.9" x2="127.3" y2="189.9"/>
		<line class="st2" x1="127.3" y1="173.9" x2="129.1" y2="190.1"/>
	</g>
	<g>
		<path class="st2" d="M143.6,169.2V182c0,0.9-0.9,1.6-1.8,1.5l0,0c-0.5-0.2-0.9-0.5-0.9-1.1l-2.9-13.4"/>
		<line class="st2" x1="143" y1="183.3" x2="141.7" y2="167.9"/>
		<line class="st2" x1="143.4" y1="183.1" x2="142.3" y2="167.5"/>
		<line class="st2" x1="139.5" y1="167.2" x2="141.6" y2="183.3"/>
		<line class="st2" x1="142.3" y1="183.6" x2="139.9" y2="165.5"/>
		<line class="st2" x1="145" y1="170.8" x2="143.6" y2="182.9"/>
		<line class="st2" x1="139.9" y1="167.5" x2="141.9" y2="183.3"/>
		<line class="st3" x1="138.6" y1="167.3" x2="141.2" y2="183.1"/>
		<line class="st3" x1="141.2" y1="167.3" x2="142.8" y2="183.5"/>
	</g>
	<g>
		<path class="st3" d="M131.3,162.9v12.8c0,0.9-0.9,1.6-1.8,1.5l0,0c-0.5-0.2-0.9-0.5-0.9-1.1l-2.9-13.4"/>
		<line class="st2" x1="130.8" y1="176.9" x2="129.3" y2="161.7"/>
		<line class="st2" x1="130.9" y1="176.9" x2="129.8" y2="161.3"/>
		<line class="st2" x1="127.1" y1="160.9" x2="129.1" y2="177"/>
		<line class="st2" x1="130" y1="177.2" x2="127.6" y2="159.1"/>
		<line class="st2" x1="132.6" y1="164.6" x2="131.1" y2="176.5"/>
		<line class="st3" x1="127.5" y1="161.3" x2="129.5" y2="177"/>
		<line class="st2" x1="126.4" y1="160.9" x2="128.7" y2="176.9"/>
		<line class="st3" x1="128.7" y1="160.9" x2="130.4" y2="177"/>
	</g>
	<g>
		<path class="st2" d="M90.6,182.2V195c0,0.9-0.9,1.6-1.8,1.5l0,0c-0.5-0.2-0.9-0.5-0.9-1.1L84.9,182"/>
		<line class="st2" x1="90.1" y1="196.1" x2="88.8" y2="180.9"/>
		<line class="st2" x1="90.4" y1="196.1" x2="89.3" y2="180.3"/>
		<line class="st2" x1="86.6" y1="180.2" x2="88.6" y2="196.3"/>
		<line class="st2" x1="89.3" y1="196.5" x2="86.9" y2="178.3"/>
		<line class="st2" x1="92.1" y1="183.8" x2="90.6" y2="195.7"/>
		<line class="st3" x1="86.9" y1="180.5" x2="89" y2="196.3"/>
		<line class="st2" x1="85.7" y1="180.2" x2="88.2" y2="196.1"/>
		<line class="st2" x1="88.2" y1="180.2" x2="89.9" y2="196.3"/>
	</g>
	<g>
		<path class="st2" d="M84.4,171.7v12.8c0,0.9-0.9,1.6-1.8,1.5l0,0c-0.5-0.2-0.9-0.5-0.9-1.1l-2.9-13.4"/>
		<line class="st2" x1="83.8" y1="185.8" x2="82.5" y2="170.6"/>
		<line class="st2" x1="84.2" y1="185.8" x2="83.1" y2="170.1"/>
		<line class="st2" x1="80.3" y1="169.9" x2="82.4" y2="186"/>
		<line class="st2" x1="83.3" y1="186.2" x2="80.7" y2="168.1"/>
		<line class="st2" x1="85.8" y1="173.4" x2="84.4" y2="185.5"/>
		<line class="st2" x1="80.7" y1="170.1" x2="82.7" y2="186"/>
		<line class="st3" x1="79.4" y1="169.9" x2="82" y2="185.7"/>
		<line class="st2" x1="82" y1="169.9" x2="83.6" y2="186"/>
	</g>
	<g>
		<path class="st2" d="M71.7,172.3v12.8c0,0.9-0.9,1.6-1.8,1.5l0,0c-0.5-0.2-0.9-0.5-0.9-1.1L66,172.1"/>
		<line class="st2" x1="71.2" y1="186.4" x2="69.7" y2="171.2"/>
		<line class="st2" x1="71.5" y1="186.2" x2="70.4" y2="170.6"/>
		<line class="st2" x1="67.5" y1="170.5" x2="69.5" y2="186.4"/>
		<line class="st2" x1="70.4" y1="186.8" x2="68.1" y2="168.6"/>
		<line class="st2" x1="73" y1="173.9" x2="71.5" y2="186"/>
		<line class="st2" x1="68.1" y1="170.6" x2="69.9" y2="186.6"/>
		<line class="st3" x1="66.8" y1="170.5" x2="69.2" y2="186.2"/>
		<line class="st3" x1="69.2" y1="170.5" x2="70.8" y2="186.6"/>
	</g>
	<g>
		<path class="st2" d="M78.3,169v12.8c0,0.9-0.9,1.6-1.8,1.5l0,0c-0.5-0.2-0.9-0.5-0.9-1.1l-2.9-13.4"/>
		<line class="st2" x1="77.8" y1="183.1" x2="76.5" y2="167.7"/>
		<line class="st2" x1="78.1" y1="182.9" x2="77" y2="167.3"/>
		<line class="st2" x1="74.3" y1="167" x2="76.3" y2="183.1"/>
		<line class="st2" x1="77" y1="183.3" x2="74.7" y2="165.3"/>
		<line class="st2" x1="79.8" y1="170.6" x2="78.3" y2="182.7"/>
		<line class="st2" x1="74.7" y1="167.3" x2="76.7" y2="183.1"/>
		<line class="st3" x1="73.4" y1="167.2" x2="75.9" y2="182.9"/>
		<line class="st3" x1="75.9" y1="167" x2="77.6" y2="183.1"/>
	</g>
	<g>
		<line class="st2" x1="83.1" y1="179.8" x2="81.8" y2="164.4"/>
		<line class="st2" x1="83.5" y1="179.6" x2="82.4" y2="164"/>
		<line class="st3" x1="85.1" y1="167.3" x2="83.6" y2="179.4"/>
		<path class="st3" d="M83.6,165.7v12.8c0,0.9-0.9,1.6-1.8,1.5l0,0c-0.5-0.2-0.9-0.5-0.9-1.1L78,165.5"/>
		<line class="st2" x1="79.6" y1="163.7" x2="81.6" y2="179.8"/>
		<line class="st2" x1="82.4" y1="180" x2="80" y2="161.8"/>
		<line class="st3" x1="80" y1="164" x2="82" y2="179.8"/>
		<line class="st2" x1="78.7" y1="163.7" x2="81.3" y2="179.6"/>
		<line class="st3" x1="81.3" y1="163.7" x2="82.9" y2="179.8"/>
	</g>
	<g>
		<path class="st2" d="M71.5,165.7v12.8c0,0.9-0.9,1.6-1.8,1.5l0,0c-0.5-0.2-0.9-0.5-0.9-1.1l-2.9-13.4"/>
		<line class="st2" x1="71" y1="179.8" x2="69.7" y2="164.6"/>
		<line class="st3" x1="71.4" y1="179.6" x2="70.3" y2="164"/>
		<line class="st2" x1="67.5" y1="163.9" x2="69.5" y2="179.8"/>
		<line class="st2" x1="70.4" y1="180.2" x2="67.9" y2="162"/>
		<line class="st2" x1="73" y1="167.3" x2="71.5" y2="179.4"/>
		<line class="st3" x1="67.9" y1="164" x2="69.9" y2="180"/>
		<line class="st3" x1="66.6" y1="163.9" x2="69.2" y2="179.6"/>
		<line class="st2" x1="69.2" y1="163.9" x2="70.8" y2="180"/>
	</g>
	<g>
		<path class="st2" d="M64,156v12.8c0,0.9-0.9,1.6-1.8,1.5l0,0c-0.5-0.2-0.9-0.5-0.9-1.1l-2.9-13.4"/>
		<line class="st2" x1="63.5" y1="169.9" x2="62.2" y2="154.7"/>
		<line class="st2" x1="63.8" y1="169.9" x2="62.7" y2="154.1"/>
		<line class="st2" x1="60" y1="154" x2="62" y2="170.1"/>
		<line class="st2" x1="62.7" y1="170.3" x2="60.4" y2="152.1"/>
		<line class="st2" x1="65.5" y1="157.6" x2="64" y2="169.5"/>
		<line class="st2" x1="60.4" y1="154.1" x2="62.4" y2="170.1"/>
		<line class="st3" x1="59.1" y1="154" x2="61.6" y2="169.7"/>
		<line class="st3" x1="61.6" y1="154" x2="63.3" y2="170.1"/>
	</g>
	<g>
		<path class="st3" d="M50.8,155.8v12.8c0,0.9-0.9,1.6-1.8,1.5l0,0c-0.5-0.2-0.9-0.5-0.9-1.1l-2.9-13.4"/>
		<line class="st2" x1="50.3" y1="169.9" x2="48.8" y2="154.5"/>
		<line class="st2" x1="50.6" y1="169.7" x2="49.5" y2="154.1"/>
		<line class="st2" x1="46.6" y1="153.8" x2="48.6" y2="169.9"/>
		<line class="st2" x1="49.5" y1="170.1" x2="47.2" y2="151.9"/>
		<line class="st3" x1="52.1" y1="157.4" x2="50.6" y2="169.5"/>
		<line class="st3" x1="47.2" y1="154.1" x2="49" y2="169.9"/>
		<line class="st2" x1="45.9" y1="154" x2="48.3" y2="169.7"/>
		<line class="st2" x1="48.3" y1="153.8" x2="49.9" y2="169.9"/>
	</g>
	<g>
		<path class="st2" d="M57.8,153v12.8c0,0.9-0.9,1.6-1.8,1.5l0,0c-0.5-0.2-0.9-0.5-0.9-1.1l-2.9-13.4"/>
		<line class="st2" x1="57.2" y1="167.2" x2="55.8" y2="151.8"/>
		<line class="st2" x1="57.6" y1="167" x2="56.5" y2="151.4"/>
		<line class="st2" x1="53.6" y1="151" x2="55.6" y2="167.2"/>
		<line class="st2" x1="56.5" y1="167.5" x2="54.1" y2="149.4"/>
		<line class="st2" x1="59.1" y1="154.7" x2="57.6" y2="166.8"/>
		<line class="st2" x1="53.9" y1="151.4" x2="56" y2="167.2"/>
		<line class="st2" x1="52.8" y1="151.2" x2="55.2" y2="167"/>
		<line class="st3" x1="55.2" y1="151.2" x2="56.9" y2="167.3"/>
	</g>
	<g>
		<path class="st2" d="M122.5,191.2V204c0,0.9-0.9,1.6-1.8,1.5l0,0c-0.5-0.2-0.9-0.5-0.9-1.1l-2.9-13.4"/>
		<line class="st2" x1="122" y1="205.3" x2="120.5" y2="190.1"/>
		<line class="st3" x1="122.1" y1="205.1" x2="121" y2="189.5"/>
		<line class="st2" x1="118.3" y1="189.3" x2="120.3" y2="205.3"/>
		<line class="st2" x1="121.2" y1="205.6" x2="118.8" y2="187.5"/>
		<line class="st2" x1="123.8" y1="192.8" x2="122.3" y2="204.9"/>
		<line class="st2" x1="118.7" y1="189.5" x2="120.7" y2="205.5"/>
		<line class="st2" x1="117.6" y1="189.3" x2="119.9" y2="205.1"/>
		<line class="st2" x1="119.9" y1="189.3" x2="121.6" y2="205.5"/>
	</g>
	<g>
		<path class="st2" d="M102.9,188v12.8c0,0.9-0.9,1.6-1.8,1.5l0,0c-0.5-0.2-0.9-0.5-0.9-1.1l-2.9-13.4"/>
		<line class="st2" x1="102.3" y1="202.2" x2="101.1" y2="186.8"/>
		<line class="st2" x1="102.7" y1="202" x2="101.6" y2="186.4"/>
		<line class="st2" x1="98.7" y1="186" x2="100.9" y2="202.2"/>
		<line class="st2" x1="101.6" y1="202.3" x2="99.2" y2="184.2"/>
		<line class="st2" x1="104.4" y1="189.7" x2="102.9" y2="201.8"/>
		<line class="st3" x1="99.2" y1="186.4" x2="101.2" y2="202.2"/>
		<line class="st3" x1="97.9" y1="186" x2="100.5" y2="202"/>
		<line class="st2" x1="100.3" y1="186" x2="102.2" y2="202.2"/>
	</g>
	<g>
		<path class="st2" d="M135.1,197.2V210c0,0.9-0.9,1.6-1.8,1.5l0,0c-0.5-0.2-0.9-0.5-0.9-1.1l-2.9-13.4"/>
		<line class="st2" x1="134.6" y1="211.3" x2="133.1" y2="195.9"/>
		<line class="st2" x1="135" y1="211.1" x2="133.9" y2="195.6"/>
		<line class="st2" x1="130.9" y1="195.2" x2="132.9" y2="211.3"/>
		<line class="st2" x1="133.9" y1="211.5" x2="131.5" y2="193.5"/>
		<line class="st3" x1="136.4" y1="198.9" x2="135" y2="211"/>
		<line class="st2" x1="131.3" y1="195.6" x2="133.3" y2="211.3"/>
		<line class="st3" x1="130.2" y1="195.4" x2="132.6" y2="211.1"/>
		<line class="st3" x1="132.6" y1="195.4" x2="134.2" y2="211.5"/>
	</g>
	<g>
		<path class="st3" d="M161.2,182.5v12.8c0,0.9-0.9,1.6-1.8,1.5l0,0c-0.5-0.2-0.9-0.5-0.9-1.1l-3.3-13.6"/>
		<line class="st2" x1="160.6" y1="196.7" x2="159.2" y2="181.3"/>
		<line class="st2" x1="161" y1="196.5" x2="159.9" y2="180.9"/>
		<line class="st2" x1="157" y1="180.5" x2="159" y2="196.7"/>
		<line class="st2" x1="159.9" y1="196.8" x2="157.5" y2="178.7"/>
		<line class="st2" x1="162.5" y1="184.2" x2="161" y2="196.1"/>
		<line class="st3" x1="157.5" y1="180.9" x2="159.5" y2="196.7"/>
		<line class="st2" x1="156.2" y1="180.5" x2="158.6" y2="196.5"/>
		<line class="st2" x1="158.6" y1="180.5" x2="160.3" y2="196.7"/>
	</g>
	<g>
		<path class="st3" d="M150,190.2v12.8c0,0.9-0.9,1.6-1.8,1.5l0,0c-0.5-0.2-0.9-0.5-0.9-1.1l-2.9-13.4"/>
		<line class="st2" x1="149.4" y1="204.4" x2="148.2" y2="189"/>
		<line class="st2" x1="149.8" y1="204.2" x2="148.7" y2="188.6"/>
		<line class="st2" x1="146" y1="188.2" x2="148" y2="204.4"/>
		<line class="st2" x1="148.9" y1="204.5" x2="146.3" y2="186.4"/>
		<line class="st2" x1="151.5" y1="191.9" x2="150" y2="204"/>
		<line class="st2" x1="146.3" y1="188.6" x2="148.3" y2="204.4"/>
		<line class="st2" x1="145" y1="188.4" x2="147.6" y2="204.2"/>
		<line class="st3" x1="147.6" y1="188.2" x2="149.3" y2="204.4"/>
	</g>
	<g>
		<path class="st3" d="M156,185.1v12.8c0,0.9-0.9,1.6-1.8,1.5l0,0c-0.5-0.2-0.9-0.5-0.9-1.1l-2.9-13.4"/>
		<line class="st2" x1="155.5" y1="199.2" x2="154.2" y2="184"/>
		<line class="st2" x1="155.9" y1="199" x2="154.8" y2="183.5"/>
		<line class="st2" x1="152" y1="183.3" x2="154" y2="199.2"/>
		<line class="st2" x1="154.9" y1="199.6" x2="152.4" y2="181.4"/>
		<line class="st2" x1="157.5" y1="186.8" x2="156" y2="198.9"/>
		<line class="st2" x1="152.4" y1="183.5" x2="154.4" y2="199.4"/>
		<line class="st2" x1="151.1" y1="183.3" x2="153.7" y2="199"/>
		<line class="st2" x1="153.7" y1="183.3" x2="155.3" y2="199.4"/>
	</g>
	<g>
		<path class="st2" d="M142.7,194.6v12.8c0,0.9-0.9,1.6-1.8,1.5l0,0c-0.5-0.2-0.9-0.5-0.9-1.1l-2.9-13.4"/>
		<line class="st2" x1="142.1" y1="208.6" x2="140.6" y2="193.4"/>
		<line class="st3" x1="142.3" y1="208.6" x2="141.2" y2="192.8"/>
		<line class="st2" x1="138.4" y1="192.6" x2="140.5" y2="208.8"/>
		<line class="st2" x1="141.4" y1="208.9" x2="139" y2="190.8"/>
		<line class="st3" x1="143.9" y1="196.3" x2="142.5" y2="208.2"/>
		<line class="st3" x1="138.8" y1="193" x2="140.8" y2="208.8"/>
		<line class="st2" x1="137.7" y1="192.6" x2="140.1" y2="208.4"/>
		<line class="st2" x1="140.1" y1="192.6" x2="141.7" y2="208.8"/>
	</g>
	<g>
		<path class="st2" d="M168.5,179.6v12.8c0,0.9-0.9,1.6-1.8,1.5l0,0c-0.5-0.2-0.9-0.5-0.9-1.1l-2.9-13.4"/>
		<line class="st2" x1="168" y1="193.7" x2="166.7" y2="178.3"/>
		<line class="st3" x1="168.3" y1="193.5" x2="167.2" y2="178"/>
		<line class="st2" x1="164.5" y1="177.8" x2="166.5" y2="193.7"/>
		<line class="st2" x1="167.2" y1="194.1" x2="164.8" y2="175.9"/>
		<line class="st2" x1="170" y1="181.3" x2="168.5" y2="193.4"/>
		<line class="st2" x1="164.8" y1="178" x2="166.9" y2="193.9"/>
		<line class="st3" x1="163.6" y1="177.8" x2="166.1" y2="193.5"/>
		<line class="st2" x1="166.1" y1="177.8" x2="167.8" y2="193.9"/>
	</g>
	<g>
		<path class="st2" d="M128.6,200.7v12.8c0,0.9-0.9,1.6-1.8,1.5l0,0c-0.5-0.2-0.9-0.5-0.9-1.1l-2.9-13.4"/>
		<line class="st2" x1="128" y1="214.6" x2="126.7" y2="199.4"/>
		<line class="st3" x1="128.4" y1="214.6" x2="127.3" y2="198.9"/>
		<line class="st2" x1="124.5" y1="198.7" x2="126.5" y2="214.8"/>
		<line class="st2" x1="127.5" y1="215" x2="124.9" y2="196.8"/>
		<line class="st2" x1="130" y1="202.3" x2="128.6" y2="214.3"/>
		<line class="st3" x1="124.9" y1="199" x2="126.9" y2="214.8"/>
		<line class="st2" x1="123.6" y1="198.7" x2="126.2" y2="214.4"/>
		<line class="st3" x1="126.2" y1="198.7" x2="127.8" y2="214.8"/>
	</g>
	<g>
		<path class="st2" d="M122.5,197.8v12.8c0,0.9-0.9,1.6-1.8,1.5l0,0c-0.5-0.2-0.9-0.5-0.9-1.1l-2.9-13.4"/>
		<line class="st2" x1="122" y1="211.9" x2="120.7" y2="196.7"/>
		<line class="st3" x1="122.3" y1="211.7" x2="121.2" y2="196.1"/>
		<line class="st2" x1="118.5" y1="195.9" x2="120.5" y2="211.9"/>
		<line class="st3" x1="121.2" y1="212.2" x2="118.8" y2="194.1"/>
		<line class="st2" x1="124" y1="199.4" x2="122.5" y2="211.5"/>
		<line class="st2" x1="118.8" y1="196.1" x2="120.9" y2="212.1"/>
		<line class="st2" x1="117.6" y1="195.9" x2="120.1" y2="211.7"/>
		<line class="st3" x1="119.9" y1="195.9" x2="121.8" y2="212.1"/>
	</g>
	<g>
		<path class="st2" d="M97.4,178.7v12.8c0,0.9-0.9,1.6-1.8,1.5l0,0c-0.5-0.2-0.9-0.5-0.9-1.1l-2.9-13.4"/>
		<line class="st2" x1="96.8" y1="192.8" x2="95.4" y2="177.6"/>
		<line class="st2" x1="97" y1="192.8" x2="95.9" y2="177"/>
		<line class="st2" x1="93.2" y1="176.9" x2="95.2" y2="193"/>
		<line class="st2" x1="96.1" y1="193.2" x2="93.7" y2="175"/>
		<line class="st3" x1="98.7" y1="180.3" x2="97.2" y2="192.4"/>
		<line class="st2" x1="93.5" y1="177" x2="95.6" y2="193"/>
		<line class="st3" x1="92.4" y1="176.9" x2="94.8" y2="192.6"/>
		<line class="st3" x1="94.8" y1="176.9" x2="96.5" y2="193"/>
	</g>
	<g>
		<path class="st3" d="M84.6,178.1V191c0,0.9-0.9,1.6-1.8,1.5l0,0c-0.5-0.2-0.9-0.5-0.9-1.1L78.9,178"/>
		<line class="st2" x1="84" y1="192.3" x2="82.5" y2="176.9"/>
		<line class="st2" x1="84.4" y1="192.1" x2="83.3" y2="176.5"/>
		<line class="st2" x1="80.3" y1="176.1" x2="82.4" y2="192.3"/>
		<line class="st2" x1="83.3" y1="192.6" x2="80.9" y2="174.5"/>
		<line class="st2" x1="85.8" y1="179.8" x2="84.4" y2="191.9"/>
		<line class="st2" x1="80.9" y1="176.5" x2="82.9" y2="192.3"/>
		<line class="st2" x1="79.6" y1="176.3" x2="82" y2="192.1"/>
		<line class="st3" x1="82" y1="176.3" x2="83.6" y2="192.4"/>
	</g>
	<g>
		<path class="st2" d="M91.2,174.8v12.8c0,0.9-0.9,1.6-1.8,1.5l0,0c-0.5-0.2-0.9-0.5-0.9-1.1l-2.9-13.4"/>
		<line class="st2" x1="90.6" y1="189" x2="89.3" y2="173.6"/>
		<line class="st3" x1="91" y1="188.8" x2="89.9" y2="173.2"/>
		<line class="st2" x1="87.1" y1="172.8" x2="89.1" y2="189"/>
		<line class="st2" x1="90.1" y1="189.1" x2="87.5" y2="171.2"/>
		<line class="st2" x1="92.6" y1="176.5" x2="91.2" y2="188.6"/>
		<line class="st2" x1="87.5" y1="173.2" x2="89.5" y2="189"/>
		<line class="st3" x1="86.2" y1="173" x2="88.8" y2="188.8"/>
		<line class="st2" x1="88.8" y1="172.8" x2="90.4" y2="189"/>
	</g>
	<g>
		<path class="st3" d="M77.8,175.2V188c0,0.9-0.9,1.6-1.8,1.5l0,0c-0.5-0.2-0.9-0.5-0.9-1.1L72.1,175"/>
		<line class="st2" x1="77.2" y1="189.1" x2="75.9" y2="173.9"/>
		<line class="st2" x1="77.6" y1="189.1" x2="76.5" y2="173.4"/>
		<line class="st2" x1="73.6" y1="173.2" x2="75.6" y2="189.3"/>
		<line class="st2" x1="76.5" y1="189.5" x2="74.1" y2="171.4"/>
		<line class="st2" x1="79.2" y1="176.9" x2="77.8" y2="188.8"/>
		<line class="st3" x1="74.1" y1="173.6" x2="76.1" y2="189.3"/>
		<line class="st2" x1="72.8" y1="173.2" x2="75.2" y2="189"/>
		<line class="st3" x1="75.2" y1="173.2" x2="77" y2="189.3"/>
	</g>
	<g>
		<path class="st2" d="M64.9,169.2V182c0,0.9-0.9,1.6-1.8,1.5l0,0c-0.5-0.2-0.9-0.5-0.9-1.1L59.3,169"/>
		<line class="st2" x1="64.4" y1="183.1" x2="63.1" y2="167.9"/>
		<line class="st2" x1="64.8" y1="183.1" x2="63.7" y2="167.3"/>
		<line class="st2" x1="60.7" y1="167.2" x2="62.7" y2="183.3"/>
		<line class="st2" x1="63.7" y1="183.5" x2="61.3" y2="165.3"/>
		<line class="st2" x1="66.2" y1="170.6" x2="64.9" y2="182.7"/>
		<line class="st2" x1="61.3" y1="167.3" x2="63.3" y2="183.3"/>
		<line class="st2" x1="60" y1="167.2" x2="62.4" y2="182.9"/>
		<line class="st3" x1="62.4" y1="167.2" x2="64" y2="183.3"/>
	</g>
	<g>
		<path class="st2" d="M52.1,162.6v12.8c0,0.9-0.9,1.6-1.8,1.5l0,0c-0.5-0.2-0.9-0.5-0.9-1.1l-2.9-13.4"/>
		<line class="st2" x1="51.6" y1="176.7" x2="50.1" y2="161.3"/>
		<line class="st3" x1="51.9" y1="176.5" x2="50.8" y2="160.9"/>
		<line class="st2" x1="47.9" y1="160.6" x2="49.9" y2="176.7"/>
		<line class="st2" x1="50.8" y1="176.9" x2="48.4" y2="158.7"/>
		<line class="st2" x1="53.4" y1="164.2" x2="51.9" y2="176.3"/>
		<line class="st3" x1="48.3" y1="160.9" x2="50.3" y2="176.7"/>
		<line class="st2" x1="47.2" y1="160.7" x2="49.5" y2="176.5"/>
		<line class="st2" x1="49.5" y1="160.6" x2="51.2" y2="176.7"/>
	</g>
	<g>
		<path class="st2" d="M58.7,159.3v12.8c0,0.9-0.9,1.6-1.8,1.5l0,0c-0.5-0.2-0.9-0.5-0.9-1.1L53,159.1"/>
		<line class="st2" x1="58.2" y1="173.2" x2="56.9" y2="158"/>
		<line class="st2" x1="58.5" y1="173.2" x2="57.4" y2="157.4"/>
		<line class="st2" x1="54.7" y1="157.3" x2="56.7" y2="173.4"/>
		<line class="st2" x1="57.4" y1="173.6" x2="55" y2="155.4"/>
		<line class="st2" x1="60.2" y1="160.9" x2="58.7" y2="172.8"/>
		<line class="st2" x1="55" y1="157.6" x2="57.1" y2="173.4"/>
		<line class="st3" x1="53.8" y1="157.3" x2="56.3" y2="173.2"/>
		<line class="st3" x1="56.1" y1="157.3" x2="58" y2="173.4"/>
	</g>
	<g>
		<path class="st2" d="M44.2,159.1v12.8c0,0.9-0.9,1.6-1.8,1.5l0,0c-0.5-0.2-0.9-0.5-0.9-1.1l-2.9-13.4"/>
		<line class="st2" x1="43.5" y1="173.2" x2="42.2" y2="157.8"/>
		<line class="st2" x1="43.9" y1="173" x2="42.8" y2="157.4"/>
		<line class="st2" x1="40" y1="157.1" x2="42" y2="173.2"/>
		<line class="st2" x1="42.9" y1="173.4" x2="40.6" y2="155.4"/>
		<line class="st2" x1="45.5" y1="160.7" x2="44" y2="172.8"/>
		<line class="st3" x1="40.4" y1="157.4" x2="42.4" y2="173.2"/>
		<line class="st3" x1="39.1" y1="157.3" x2="41.7" y2="173"/>
		<line class="st3" x1="41.7" y1="157.3" x2="43.3" y2="173.4"/>
	</g>
	<g>
		<path class="st2" d="M115.7,194.6v12.8c0,0.9-0.9,1.6-1.8,1.5l0,0c-0.5-0.2-0.9-0.5-0.9-1.1l-2.9-13.4"/>
		<line class="st2" x1="115.2" y1="208.6" x2="113.9" y2="193.4"/>
		<line class="st2" x1="115.5" y1="208.6" x2="114.4" y2="192.8"/>
		<line class="st2" x1="111.7" y1="192.6" x2="113.7" y2="208.8"/>
		<line class="st2" x1="114.6" y1="208.9" x2="112.1" y2="190.8"/>
		<line class="st2" x1="117.2" y1="196.1" x2="115.7" y2="208.2"/>
		<line class="st2" x1="112.1" y1="192.8" x2="114.1" y2="208.8"/>
		<line class="st3" x1="110.8" y1="192.6" x2="113.3" y2="208.4"/>
		<line class="st2" x1="113.3" y1="192.6" x2="115" y2="208.8"/>
	</g>
	<g>
		<path class="st3" d="M108.9,191.5v12.8c0,0.9-0.9,1.6-1.8,1.5l0,0c-0.5-0.2-0.9-0.5-0.9-1.1l-2.9-13.4"/>
		<line class="st2" x1="108.4" y1="205.6" x2="107.1" y2="190.2"/>
		<line class="st2" x1="108.8" y1="205.5" x2="107.7" y2="189.9"/>
		<line class="st2" x1="104.9" y1="189.5" x2="106.9" y2="205.6"/>
		<line class="st2" x1="107.8" y1="205.8" x2="105.3" y2="187.7"/>
		<line class="st2" x1="110.4" y1="193.2" x2="108.9" y2="205.3"/>
		<line class="st2" x1="105.3" y1="189.9" x2="107.3" y2="205.6"/>
		<line class="st2" x1="104" y1="189.7" x2="106.6" y2="205.5"/>
		<line class="st2" x1="106.6" y1="189.5" x2="108.2" y2="205.6"/>
	</g>
	<g>
		<path class="st2" d="M115.7,188.2v12.8c0,0.9-0.9,1.6-1.8,1.5l0,0c-0.5-0.2-0.9-0.5-0.9-1.1L110,188"/>
		<line class="st2" x1="115.2" y1="202.2" x2="113.7" y2="186.9"/>
		<line class="st2" x1="115.4" y1="202.2" x2="114.4" y2="186.4"/>
		<line class="st2" x1="111.5" y1="186.2" x2="113.5" y2="202.3"/>
		<line class="st2" x1="114.4" y1="202.5" x2="112.1" y2="184.4"/>
		<line class="st3" x1="117" y1="189.9" x2="115.5" y2="201.8"/>
		<line class="st2" x1="111.9" y1="186.6" x2="113.9" y2="202.3"/>
		<line class="st2" x1="110.8" y1="186.2" x2="113.2" y2="202.2"/>
		<line class="st3" x1="113.2" y1="186.2" x2="114.8" y2="202.3"/>
	</g>
	<g>
		<path class="st3" d="M109.7,184.7v12.8c0,0.9-0.9,1.6-1.8,1.5l0,0c-0.5-0.2-0.9-0.5-0.9-1.1l-2.9-13.4"/>
		<line class="st2" x1="108.9" y1="198.7" x2="107.7" y2="183.5"/>
		<line class="st3" x1="109.3" y1="198.7" x2="108.2" y2="182.9"/>
		<line class="st2" x1="105.5" y1="182.7" x2="107.5" y2="198.9"/>
		<line class="st2" x1="108.4" y1="199" x2="106" y2="180.9"/>
		<line class="st2" x1="111" y1="186.4" x2="109.5" y2="198.3"/>
		<line class="st3" x1="105.8" y1="183.1" x2="107.8" y2="198.9"/>
		<line class="st2" x1="104.5" y1="182.7" x2="107.1" y2="198.5"/>
		<line class="st3" x1="107.1" y1="182.7" x2="108.8" y2="198.9"/>
	</g>
	<g>
		<path class="st2" d="M111.5,166.4v12.8c0,0.9-0.9,1.6-1.8,1.5l0,0c-0.5-0.2-0.9-0.5-0.9-1.1l-2.9-13.4"/>
		<line class="st2" x1="111" y1="180.5" x2="109.5" y2="165.3"/>
		<line class="st3" x1="111.3" y1="180.5" x2="110.2" y2="164.8"/>
		<line class="st2" x1="107.3" y1="164.6" x2="109.3" y2="180.7"/>
		<line class="st2" x1="110.2" y1="180.9" x2="107.8" y2="162.8"/>
		<line class="st2" x1="112.8" y1="168.1" x2="111.3" y2="180.2"/>
		<line class="st3" x1="107.8" y1="164.8" x2="109.9" y2="180.7"/>
		<line class="st3" x1="106.6" y1="164.6" x2="108.9" y2="180.3"/>
		<line class="st2" x1="108.9" y1="164.6" x2="110.6" y2="180.7"/>
	</g>
	<g>
		<path class="st3" d="M105.5,162.6v12.8c0,0.9-0.9,1.6-1.8,1.5l0,0c-0.5-0.2-0.9-0.5-0.9-1.1l-2.9-13.4"/>
		<line class="st2" x1="104.9" y1="176.7" x2="103.4" y2="161.3"/>
		<line class="st2" x1="105.1" y1="176.5" x2="104" y2="160.9"/>
		<line class="st3" x1="101.2" y1="160.6" x2="103.3" y2="176.7"/>
		<line class="st2" x1="104.2" y1="176.9" x2="101.8" y2="158.9"/>
		<line class="st3" x1="106.7" y1="164.2" x2="105.3" y2="176.3"/>
		<line class="st2" x1="101.6" y1="160.9" x2="103.6" y2="176.7"/>
		<line class="st2" x1="100.5" y1="160.7" x2="102.9" y2="176.5"/>
		<line class="st3" x1="102.9" y1="160.6" x2="104.5" y2="176.7"/>
	</g>
	<g>
		<path class="st3" d="M112.4,159.3v12.8c0,0.9-0.9,1.6-1.8,1.5l0,0c-0.5-0.2-0.9-0.5-0.9-1.1l-2.9-13.4"/>
		<line class="st2" x1="111.9" y1="173.2" x2="110.6" y2="158"/>
		<line class="st2" x1="112.2" y1="173.2" x2="111.1" y2="157.4"/>
		<line class="st2" x1="108.4" y1="157.3" x2="110.4" y2="173.4"/>
		<line class="st2" x1="111.3" y1="173.6" x2="108.9" y2="155.4"/>
		<line class="st2" x1="113.9" y1="160.9" x2="112.4" y2="172.8"/>
		<line class="st3" x1="108.8" y1="157.6" x2="110.8" y2="173.4"/>
		<line class="st2" x1="107.5" y1="157.3" x2="110" y2="173.2"/>
		<line class="st3" x1="110" y1="157.3" x2="111.7" y2="173.4"/>
	</g>
	<g>
		<path class="st2" d="M98.7,159.5v12.8c0,0.9-0.9,1.6-1.8,1.5l0,0c-0.5-0.2-0.9-0.5-0.9-1.1L93,159.3"/>
		<line class="st2" x1="98.1" y1="173.6" x2="96.7" y2="158.4"/>
		<line class="st2" x1="98.3" y1="173.6" x2="97.4" y2="157.8"/>
		<line class="st2" x1="94.5" y1="157.6" x2="96.5" y2="173.7"/>
		<line class="st2" x1="97.4" y1="173.9" x2="95" y2="155.8"/>
		<line class="st3" x1="100" y1="161.1" x2="98.5" y2="173.2"/>
		<line class="st3" x1="94.8" y1="157.8" x2="96.8" y2="173.7"/>
		<line class="st2" x1="93.7" y1="157.6" x2="96.1" y2="173.4"/>
		<line class="st3" x1="96.1" y1="157.6" x2="97.8" y2="173.7"/>
	</g>
	<g>
		<path class="st2" d="M105.8,156.2V169c0,0.9-0.9,1.6-1.8,1.5l0,0c-0.5-0.2-0.9-0.5-0.9-1.1l-2.9-13.4"/>
		<line class="st2" x1="105.3" y1="170.3" x2="103.8" y2="154.9"/>
		<line class="st3" x1="105.5" y1="170.1" x2="104.4" y2="154.5"/>
		<line class="st2" x1="101.6" y1="154.1" x2="103.6" y2="170.3"/>
		<line class="st2" x1="104.5" y1="170.5" x2="102.2" y2="152.5"/>
		<line class="st3" x1="107.1" y1="157.8" x2="105.6" y2="169.9"/>
		<line class="st3" x1="102" y1="154.5" x2="104" y2="170.3"/>
		<line class="st3" x1="100.9" y1="154.3" x2="103.3" y2="170.1"/>
		<line class="st3" x1="103.3" y1="154.3" x2="104.9" y2="170.5"/>
	</g>
	<g>
		<path class="st3" d="M85.8,153.4v12.8c0,0.9-0.9,1.6-1.8,1.5l0,0c-0.5-0.2-0.9-0.5-0.9-1.1l-2.9-13.4"/>
		<line class="st2" x1="85.3" y1="167.5" x2="83.8" y2="152.3"/>
		<line class="st2" x1="85.5" y1="167.3" x2="84.4" y2="151.8"/>
		<line class="st2" x1="81.6" y1="151.6" x2="83.6" y2="167.5"/>
		<line class="st2" x1="84.6" y1="167.9" x2="82.2" y2="149.7"/>
		<line class="st2" x1="87.1" y1="155.1" x2="85.7" y2="167.2"/>
		<line class="st2" x1="82" y1="151.8" x2="84" y2="167.7"/>
		<line class="st3" x1="80.9" y1="151.6" x2="83.3" y2="167.3"/>
		<line class="st3" x1="83.3" y1="151.6" x2="84.9" y2="167.7"/>
	</g>
	<g>
		<path class="st3" d="M93,150.1v12.8c0,0.9-0.9,1.6-1.8,1.5l0,0c-0.5-0.2-0.9-0.5-0.9-1.1l-2.9-13.4"/>
		<line class="st2" x1="92.3" y1="164.2" x2="91" y2="148.8"/>
		<line class="st2" x1="92.6" y1="164" x2="91.5" y2="148.5"/>
		<line class="st2" x1="88.8" y1="148.1" x2="90.8" y2="164.2"/>
		<line class="st2" x1="91.7" y1="164.4" x2="89.3" y2="146.4"/>
		<line class="st2" x1="94.3" y1="151.8" x2="92.8" y2="163.9"/>
		<line class="st3" x1="89.1" y1="148.5" x2="91.2" y2="164.2"/>
		<line class="st2" x1="87.9" y1="148.3" x2="90.4" y2="164"/>
		<line class="st3" x1="90.4" y1="148.1" x2="92.1" y2="164.2"/>
	</g>
	<g>
		<path class="st3" d="M73.2,153.8v13.7c0,0-0.7,1.3-2.7,0.2l-3.1-14.1"/>
		<line class="st2" x1="72.6" y1="167.9" x2="71.4" y2="152.5"/>
		<line class="st2" x1="73" y1="167.7" x2="71.9" y2="152.1"/>
		<line class="st2" x1="69" y1="151.8" x2="71" y2="167.9"/>
		<line class="st2" x1="71.9" y1="168.1" x2="69.5" y2="149.9"/>
		<line class="st2" x1="74.7" y1="155.4" x2="73.2" y2="167.5"/>
		<line class="st3" x1="69.5" y1="152.1" x2="71.5" y2="167.9"/>
		<line class="st3" x1="68.2" y1="151.8" x2="70.6" y2="167.7"/>
		<line class="st3" x1="70.6" y1="151.8" x2="72.5" y2="167.9"/>
	</g>
	<g>
		<path class="st2" d="M79.1,150.5v12.8c0,0.9-0.9,1.6-1.8,1.5l0,0c-0.5-0.2-0.9-0.5-0.9-1.1l-2.9-13.4"/>
		<line class="st2" x1="78.5" y1="164.4" x2="77" y2="149.2"/>
		<line class="st3" x1="78.7" y1="164.4" x2="77.8" y2="148.6"/>
		<line class="st2" x1="74.8" y1="148.5" x2="76.9" y2="164.6"/>
		<line class="st3" x1="77.8" y1="164.8" x2="75.4" y2="146.6"/>
		<line class="st2" x1="80.3" y1="152.1" x2="78.9" y2="164"/>
		<line class="st2" x1="75.2" y1="148.8" x2="77.2" y2="164.6"/>
		<line class="st3" x1="74.1" y1="148.5" x2="76.5" y2="164.4"/>
		<line class="st2" x1="76.5" y1="148.5" x2="78.1" y2="164.6"/>
	</g>
	<g>
		<path class="st2" d="M67.1,150.3V164c0,0-0.7,1.3-2.7,0.2l-3.1-14.1"/>
		<line class="st2" x1="66.6" y1="164.4" x2="65.1" y2="149"/>
		<line class="st2" x1="67" y1="164.2" x2="65.9" y2="148.6"/>
		<line class="st2" x1="62.9" y1="148.3" x2="64.9" y2="164.4"/>
		<line class="st2" x1="65.9" y1="164.6" x2="63.5" y2="146.4"/>
		<line class="st3" x1="68.4" y1="151.9" x2="67" y2="163.9"/>
		<line class="st3" x1="63.5" y1="148.6" x2="65.3" y2="164.4"/>
		<line class="st2" x1="62.2" y1="148.3" x2="64.6" y2="164.2"/>
		<line class="st3" x1="64.6" y1="148.3" x2="66.2" y2="164.4"/>
	</g>
	<g>
		<path class="st3" d="M136.6,178.9v12.8c0,0.9-0.9,1.6-1.8,1.5l0,0c-0.5-0.2-0.9-0.5-0.9-1.1l-2.9-13.4"/>
		<line class="st2" x1="136.1" y1="193" x2="134.8" y2="177.8"/>
		<line class="st2" x1="136.4" y1="192.8" x2="135.3" y2="177.2"/>
		<line class="st2" x1="132.4" y1="177" x2="134.4" y2="193"/>
		<line class="st2" x1="135.3" y1="193.4" x2="132.9" y2="175.2"/>
		<line class="st2" x1="137.9" y1="180.5" x2="136.6" y2="192.6"/>
		<line class="st2" x1="132.9" y1="177.2" x2="135" y2="193.2"/>
		<line class="st3" x1="131.7" y1="177" x2="134" y2="192.8"/>
		<line class="st3" x1="134" y1="177" x2="135.9" y2="193.2"/>
	</g>
	<g>
		<path class="st2" d="M143.8,175.6v12.8c0,0.9-0.9,1.6-1.8,1.5l0,0c-0.5-0.2-0.9-0.5-0.9-1.1l-2.9-13.4"/>
		<line class="st2" x1="143.2" y1="189.7" x2="141.7" y2="174.3"/>
		<line class="st3" x1="143.4" y1="189.5" x2="142.5" y2="173.9"/>
		<line class="st2" x1="139.5" y1="173.6" x2="141.6" y2="189.7"/>
		<line class="st2" x1="142.5" y1="189.9" x2="140.1" y2="171.9"/>
		<line class="st2" x1="145" y1="177.2" x2="143.6" y2="189.3"/>
		<line class="st2" x1="139.9" y1="173.9" x2="141.9" y2="189.7"/>
		<line class="st3" x1="138.8" y1="173.7" x2="141.2" y2="189.5"/>
		<line class="st3" x1="141.2" y1="173.6" x2="142.8" y2="189.7"/>
	</g>
	<g>
		<path class="st2" d="M137,172.5v12.8c0,0.9-0.9,1.6-1.8,1.5l0,0c-0.5-0.2-0.9-0.5-0.9-1.1l-2.9-13.4"/>
		<line class="st2" x1="136.4" y1="186.6" x2="135" y2="171.4"/>
		<line class="st2" x1="136.8" y1="186.6" x2="135.7" y2="170.8"/>
		<line class="st2" x1="132.8" y1="170.6" x2="134.8" y2="186.8"/>
		<line class="st2" x1="135.7" y1="186.9" x2="133.3" y2="168.8"/>
		<line class="st2" x1="138.3" y1="174.1" x2="136.8" y2="186.2"/>
		<line class="st2" x1="133.3" y1="170.8" x2="135.3" y2="186.8"/>
		<line class="st3" x1="132" y1="170.6" x2="134.4" y2="186.4"/>
		<line class="st3" x1="134.4" y1="170.6" x2="136.1" y2="186.8"/>
	</g>
	<g>
		<path class="st2" d="M117.9,175.8v13.7c0,0-0.7,1.3-2.7,0.2l-3.1-14.1"/>
		<line class="st2" x1="117.4" y1="189.9" x2="116.1" y2="174.5"/>
		<line class="st3" x1="117.7" y1="189.7" x2="116.6" y2="174.1"/>
		<line class="st2" x1="113.7" y1="173.7" x2="115.9" y2="189.9"/>
		<line class="st2" x1="116.6" y1="190.1" x2="114.3" y2="171.9"/>
		<line class="st2" x1="119.4" y1="177.4" x2="117.9" y2="189.3"/>
		<line class="st3" x1="114.3" y1="174.1" x2="116.3" y2="189.9"/>
		<line class="st2" x1="113" y1="173.7" x2="115.5" y2="189.7"/>
		<line class="st2" x1="115.4" y1="173.7" x2="117.2" y2="189.9"/>
	</g>
	<g>
		<path class="st3" d="M123.8,172.5v12.8c0,0.9-0.9,1.6-1.8,1.5l0,0c-0.5-0.2-0.9-0.5-0.9-1.1l-2.9-13.4"/>
		<line class="st2" x1="123.2" y1="186.4" x2="121.8" y2="171.2"/>
		<line class="st3" x1="123.6" y1="186.4" x2="122.5" y2="170.6"/>
		<line class="st2" x1="119.6" y1="170.5" x2="121.6" y2="186.6"/>
		<line class="st2" x1="122.5" y1="186.8" x2="120.1" y2="168.6"/>
		<line class="st2" x1="125.1" y1="174.1" x2="123.6" y2="186"/>
		<line class="st3" x1="120.1" y1="170.8" x2="122" y2="186.6"/>
		<line class="st2" x1="118.8" y1="170.5" x2="121.2" y2="186.4"/>
		<line class="st2" x1="121.2" y1="170.5" x2="122.9" y2="186.6"/>
	</g>
	<g>
		<path class="st3" d="M130.9,169v12.8c0,0.9-0.9,1.6-1.8,1.5l0,0c-0.5-0.2-0.9-0.5-0.9-1.1l-2.9-13.4"/>
		<line class="st2" x1="130.4" y1="183.1" x2="128.9" y2="167.9"/>
		<line class="st2" x1="130.6" y1="183.1" x2="129.5" y2="167.3"/>
		<line class="st2" x1="126.7" y1="167.2" x2="128.7" y2="183.3"/>
		<line class="st2" x1="129.7" y1="183.5" x2="127.3" y2="165.3"/>
		<line class="st2" x1="132.2" y1="170.6" x2="130.8" y2="182.7"/>
		<line class="st3" x1="127.1" y1="167.3" x2="129.1" y2="183.3"/>
		<line class="st3" x1="126" y1="167.2" x2="128.4" y2="182.9"/>
		<line class="st3" x1="128.4" y1="167.2" x2="130" y2="183.3"/>
	</g>
	<g>
		<path class="st3" d="M102.7,175.4v12.8c0,0.9-0.9,1.6-1.8,1.5l0,0c-0.5-0.2-0.9-0.5-0.9-1.1L97,175.2"/>
		<line class="st2" x1="102.2" y1="189.5" x2="100.7" y2="174.3"/>
		<line class="st3" x1="102.3" y1="189.3" x2="101.2" y2="173.7"/>
		<line class="st2" x1="98.5" y1="173.6" x2="100.5" y2="189.5"/>
		<line class="st2" x1="101.4" y1="189.9" x2="99" y2="171.7"/>
		<line class="st3" x1="104" y1="177" x2="102.5" y2="189.1"/>
		<line class="st3" x1="98.9" y1="173.7" x2="100.9" y2="189.7"/>
		<line class="st3" x1="97.8" y1="173.6" x2="100.1" y2="189.3"/>
		<line class="st3" x1="100.1" y1="173.6" x2="101.8" y2="189.7"/>
	</g>
	<g>
		<path class="st3" d="M127.8,186v12.8c0,0.9-0.9,1.6-1.8,1.5l0,0c-0.5-0.2-0.9-0.5-0.9-1.1l-2.9-13.4"/>
		<line class="st2" x1="127.3" y1="200" x2="126" y2="184.7"/>
		<line class="st3" x1="127.6" y1="200" x2="126.5" y2="184.2"/>
		<line class="st2" x1="123.8" y1="184" x2="125.8" y2="200.1"/>
		<line class="st2" x1="126.5" y1="200.3" x2="124.2" y2="182.2"/>
		<line class="st3" x1="129.3" y1="187.7" x2="127.8" y2="199.6"/>
		<line class="st2" x1="124.2" y1="184.2" x2="126.2" y2="200.1"/>
		<line class="st3" x1="122.9" y1="184" x2="125.4" y2="199.8"/>
		<line class="st3" x1="125.4" y1="184" x2="127.1" y2="200.1"/>
	</g>
	<g>
		<path class="st2" d="M115,181.4v12.8c0,0.9-0.9,1.6-1.8,1.5l0,0c-0.5-0.2-0.9-0.5-0.9-1.1l-2.9-13.4"/>
		<line class="st2" x1="114.4" y1="195.4" x2="113" y2="180.2"/>
		<line class="st2" x1="114.6" y1="195.4" x2="113.5" y2="179.6"/>
		<line class="st2" x1="110.8" y1="179.4" x2="112.8" y2="195.6"/>
		<line class="st2" x1="113.7" y1="195.7" x2="111.3" y2="177.6"/>
		<line class="st3" x1="116.3" y1="183.1" x2="114.8" y2="195"/>
		<line class="st3" x1="111.1" y1="179.6" x2="113.2" y2="195.6"/>
		<line class="st2" x1="109.9" y1="179.4" x2="112.4" y2="195.2"/>
		<line class="st3" x1="112.4" y1="179.4" x2="114.1" y2="195.6"/>
	</g>
	<g>
		<path class="st3" d="M64.8,162.8v12.8c0,0.9-0.9,1.6-1.8,1.5l0,0c-0.5-0.2-0.9-0.5-0.9-1.1l-2.9-13.4"/>
		<line class="st2" x1="64.2" y1="176.7" x2="62.9" y2="161.5"/>
		<line class="st3" x1="64.6" y1="176.7" x2="63.5" y2="160.9"/>
		<line class="st2" x1="60.7" y1="160.7" x2="62.7" y2="176.9"/>
		<line class="st2" x1="63.7" y1="177" x2="61.3" y2="158.9"/>
		<line class="st2" x1="66.2" y1="164.4" x2="64.8" y2="176.3"/>
		<line class="st3" x1="61.1" y1="161.1" x2="63.1" y2="176.9"/>
		<line class="st2" x1="59.8" y1="160.7" x2="62.4" y2="176.7"/>
		<line class="st2" x1="62.4" y1="160.7" x2="64" y2="176.9"/>
	</g>
	<g>
		<path class="st3" d="M92.8,162.9v13.7c0,0-0.7,1.3-2.7,0.2l-3.1-14.1"/>
		<line class="st2" x1="92.3" y1="176.9" x2="91" y2="161.7"/>
		<line class="st3" x1="92.6" y1="176.9" x2="91.5" y2="161.1"/>
		<line class="st2" x1="88.6" y1="160.9" x2="90.6" y2="177"/>
		<line class="st3" x1="91.5" y1="177.2" x2="89.1" y2="159.1"/>
		<line class="st3" x1="94.3" y1="164.6" x2="92.8" y2="176.5"/>
		<line class="st2" x1="89.1" y1="161.3" x2="91.2" y2="177"/>
		<line class="st2" x1="87.9" y1="160.9" x2="90.2" y2="176.7"/>
		<line class="st2" x1="90.2" y1="160.9" x2="92.1" y2="177"/>
	</g>
	<g>
		<path class="st2" d="M122.5,204v12.8c0,0.9-0.9,1.6-1.8,1.5l0,0c-0.5-0.2-0.9-0.5-0.9-1.1l-2.9-13.4"/>
		<line class="st2" x1="122" y1="218.1" x2="120.7" y2="202.7"/>
		<line class="st2" x1="122.3" y1="217.9" x2="121.2" y2="202.3"/>
		<line class="st2" x1="118.5" y1="202" x2="120.5" y2="218.1"/>
		<line class="st2" x1="121.4" y1="218.3" x2="118.8" y2="200.3"/>
		<line class="st3" x1="124" y1="205.6" x2="122.5" y2="217.7"/>
		<line class="st2" x1="118.8" y1="202.3" x2="120.9" y2="218.1"/>
		<line class="st3" x1="117.6" y1="202.2" x2="120.1" y2="217.9"/>
		<line class="st3" x1="120.1" y1="202" x2="121.8" y2="218.1"/>
	</g>
	<g>
		<path class="st2" d="M83.5,185.5v12.8c0,0.9-0.9,1.6-1.8,1.5l0,0c-0.5-0.2-0.9-0.5-0.9-1.1l-2.9-13.4"/>
		<line class="st2" x1="82.9" y1="199.6" x2="81.6" y2="184.2"/>
		<line class="st2" x1="83.3" y1="199.4" x2="82.2" y2="183.8"/>
		<line class="st2" x1="79.4" y1="183.5" x2="81.4" y2="199.6"/>
		<line class="st2" x1="82.4" y1="199.8" x2="80" y2="181.8"/>
		<line class="st2" x1="84.9" y1="187.1" x2="83.5" y2="199.2"/>
		<line class="st3" x1="79.8" y1="183.8" x2="81.8" y2="199.6"/>
		<line class="st2" x1="78.5" y1="183.6" x2="81.1" y2="199.4"/>
		<line class="st2" x1="81.1" y1="183.5" x2="82.7" y2="199.6"/>
	</g>
	<g>
		<path class="st3" d="M77.4,181.4v12.8c0,0.9-0.9,1.6-1.8,1.5l0,0c-0.5-0.2-0.9-0.5-0.9-1.1l-2.9-13.4"/>
		<line class="st2" x1="76.9" y1="195.6" x2="75.6" y2="180.3"/>
		<line class="st2" x1="77.2" y1="195.6" x2="76.1" y2="179.8"/>
		<line class="st2" x1="73.2" y1="179.6" x2="75.4" y2="195.7"/>
		<line class="st2" x1="76.1" y1="195.9" x2="73.7" y2="177.8"/>
		<line class="st2" x1="78.9" y1="183.1" x2="77.4" y2="195.2"/>
		<line class="st2" x1="73.7" y1="179.8" x2="75.8" y2="195.7"/>
		<line class="st2" x1="72.5" y1="179.6" x2="75" y2="195.4"/>
		<line class="st3" x1="74.8" y1="179.6" x2="76.7" y2="195.7"/>
	</g>
	<g>
		<path class="st2" d="M64.6,175.8v12.8c0,0.9-0.9,1.6-1.8,1.5l0,0c-0.5-0.2-0.9-0.5-0.9-1.1l-2.9-13.4"/>
		<line class="st2" x1="64" y1="189.7" x2="62.7" y2="174.5"/>
		<line class="st3" x1="64.4" y1="189.7" x2="63.3" y2="173.9"/>
		<line class="st2" x1="60.4" y1="173.7" x2="62.4" y2="189.9"/>
		<line class="st2" x1="63.3" y1="190.1" x2="60.9" y2="171.9"/>
		<line class="st2" x1="66" y1="177.4" x2="64.6" y2="189.3"/>
		<line class="st3" x1="60.9" y1="173.9" x2="62.9" y2="189.9"/>
		<line class="st2" x1="59.6" y1="173.7" x2="62" y2="189.5"/>
		<line class="st2" x1="62" y1="173.7" x2="63.8" y2="189.9"/>
	</g>
	<g>
		<path class="st2" d="M51,169.4v12.8c0,0.9-0.9,1.6-1.8,1.5l0,0c-0.5-0.2-0.9-0.5-0.9-1.1l-2.9-13.4"/>
		<line class="st2" x1="50.5" y1="183.5" x2="49.2" y2="168.3"/>
		<line class="st2" x1="50.8" y1="183.3" x2="49.7" y2="167.7"/>
		<line class="st2" x1="47" y1="167.5" x2="49" y2="183.5"/>
		<line class="st2" x1="49.7" y1="183.8" x2="47.3" y2="165.7"/>
		<line class="st3" x1="52.5" y1="171" x2="51" y2="183.1"/>
		<line class="st2" x1="47.3" y1="167.7" x2="49.4" y2="183.6"/>
		<line class="st3" x1="46.1" y1="167.5" x2="48.6" y2="183.3"/>
		<line class="st3" x1="48.6" y1="167.5" x2="50.3" y2="183.6"/>
	</g>
	<g>
		<path class="st2" d="M115.4,201.2v12.8c0,0.9-0.9,1.6-1.8,1.5l0,0c-0.5-0.2-0.9-0.5-0.9-1.1l-2.9-13.4"/>
		<line class="st2" x1="114.8" y1="215.2" x2="113.5" y2="200"/>
		<line class="st2" x1="115.2" y1="215.2" x2="114.1" y2="199.4"/>
		<line class="st2" x1="111.3" y1="199.2" x2="113.3" y2="215.4"/>
		<line class="st2" x1="114.3" y1="215.5" x2="111.7" y2="197.4"/>
		<line class="st2" x1="116.8" y1="202.9" x2="115.4" y2="214.8"/>
		<line class="st3" x1="111.7" y1="199.4" x2="113.7" y2="215.4"/>
		<line class="st2" x1="110.4" y1="199.2" x2="113" y2="215"/>
		<line class="st3" x1="113" y1="199.2" x2="114.6" y2="215.4"/>
	</g>
	<g>
		<path class="st2" d="M108.8,197.9v12.8c0,0.9-0.9,1.6-1.8,1.5l0,0c-0.5-0.2-0.9-0.5-0.9-1.1l-2.9-13.4"/>
		<line class="st2" x1="108" y1="211.9" x2="106.7" y2="196.7"/>
		<line class="st3" x1="108.4" y1="211.9" x2="107.3" y2="196.3"/>
		<line class="st2" x1="104.5" y1="195.9" x2="106.6" y2="212.1"/>
		<line class="st2" x1="107.5" y1="212.2" x2="105.1" y2="194.1"/>
		<line class="st3" x1="110" y1="199.6" x2="108.6" y2="211.5"/>
		<line class="st3" x1="104.9" y1="196.3" x2="106.9" y2="212.1"/>
		<line class="st2" x1="103.6" y1="195.9" x2="106.2" y2="211.9"/>
		<line class="st2" x1="106.2" y1="195.9" x2="107.8" y2="212.1"/>
	</g>
	<g>
		<path class="st2" d="M57.8,172.5v12.8c0,0.9-0.9,1.6-1.8,1.5l0,0c-0.5-0.2-0.9-0.5-0.9-1.1l-2.9-13.4"/>
		<line class="st2" x1="57.2" y1="186.4" x2="56" y2="171.2"/>
		<line class="st2" x1="57.6" y1="186.4" x2="56.5" y2="170.8"/>
		<line class="st2" x1="53.6" y1="170.5" x2="55.8" y2="186.6"/>
		<line class="st2" x1="56.5" y1="186.8" x2="54.1" y2="168.6"/>
		<line class="st3" x1="59.3" y1="174.1" x2="57.8" y2="186"/>
		<line class="st2" x1="54.1" y1="170.8" x2="56.1" y2="186.6"/>
		<line class="st2" x1="52.8" y1="170.5" x2="55.4" y2="186.4"/>
		<line class="st2" x1="55.2" y1="170.5" x2="57.1" y2="186.6"/>
	</g>
	<g>
		<path class="st2" d="M45,165.9v12.8c0,0.9-0.9,1.6-1.8,1.5l0,0c-0.5-0.2-0.9-0.5-0.9-1.1l-2.9-13.4"/>
		<line class="st2" x1="44.4" y1="180" x2="43.1" y2="164.6"/>
		<line class="st3" x1="44.8" y1="179.8" x2="43.7" y2="164.2"/>
		<line class="st2" x1="40.7" y1="163.9" x2="42.8" y2="180"/>
		<line class="st2" x1="43.7" y1="180.3" x2="41.3" y2="162.2"/>
		<line class="st2" x1="46.4" y1="167.5" x2="45" y2="179.6"/>
		<line class="st3" x1="41.3" y1="164.2" x2="43.3" y2="180"/>
		<line class="st2" x1="40" y1="164" x2="42.4" y2="179.8"/>
		<line class="st2" x1="42.4" y1="164" x2="44.2" y2="180.2"/>
	</g>
	<g>
		<path class="st2" d="M31,166.6v13.7c0,0-0.7,1.3-2.7,0.2l-3.1-14.1"/>
		<line class="st2" x1="30.3" y1="180.7" x2="29" y2="165.3"/>
		<line class="st2" x1="30.7" y1="180.5" x2="29.6" y2="165"/>
		<line class="st2" x1="26.8" y1="164.6" x2="28.8" y2="180.7"/>
		<line class="st2" x1="29.7" y1="181.1" x2="27.4" y2="162.9"/>
		<line class="st2" x1="32.3" y1="168.3" x2="30.8" y2="180.3"/>
		<line class="st2" x1="27.2" y1="165" x2="29.2" y2="180.9"/>
		<line class="st3" x1="25.9" y1="164.8" x2="28.5" y2="180.5"/>
		<line class="st3" x1="28.5" y1="164.8" x2="30.1" y2="180.9"/>
	</g>
	<g>
		<path class="st2" d="M37.1,162.4v12.8c0,0.9-0.9,1.6-1.8,1.5l0,0c-0.5-0.2-0.9-0.5-0.9-1.1l-2.9-13.4"/>
		<line class="st2" x1="36.5" y1="176.5" x2="35.1" y2="161.3"/>
		<line class="st2" x1="36.7" y1="176.5" x2="35.8" y2="160.7"/>
		<line class="st2" x1="32.9" y1="160.6" x2="34.9" y2="176.7"/>
		<line class="st2" x1="35.8" y1="176.9" x2="33.4" y2="158.7"/>
		<line class="st2" x1="38.4" y1="164" x2="36.9" y2="176.1"/>
		<line class="st3" x1="33.2" y1="160.7" x2="35.2" y2="176.7"/>
		<line class="st2" x1="32.1" y1="160.6" x2="34.5" y2="176.3"/>
		<line class="st3" x1="34.5" y1="160.6" x2="36.2" y2="176.7"/>
	</g>
	<g>
		<path class="st3" d="M95.7,191.3v12.8c0,0.9-0.9,1.6-1.8,1.5l0,0c-0.5-0.2-0.9-0.5-0.9-1.1l-2.9-13.4"/>
		<line class="st2" x1="95.2" y1="205.5" x2="93.9" y2="190.1"/>
		<line class="st2" x1="95.6" y1="205.3" x2="94.5" y2="189.7"/>
		<line class="st2" x1="91.7" y1="189.3" x2="93.7" y2="205.5"/>
		<line class="st2" x1="94.6" y1="205.8" x2="92.1" y2="187.7"/>
		<line class="st2" x1="97.2" y1="193" x2="95.7" y2="205.1"/>
		<line class="st3" x1="92.1" y1="189.7" x2="94.1" y2="205.5"/>
		<line class="st2" x1="90.8" y1="189.5" x2="93.4" y2="205.3"/>
		<line class="st2" x1="93.4" y1="189.5" x2="95" y2="205.6"/>
	</g>
	<g>
		<path class="st3" d="M70.6,178.5v12.8c0,0.9-0.9,1.6-1.8,1.5l0,0c-0.5-0.2-0.9-0.5-0.9-1.1l-2.9-13.4"/>
		<line class="st2" x1="70.1" y1="192.6" x2="68.8" y2="177.2"/>
		<line class="st2" x1="70.4" y1="192.4" x2="69.3" y2="176.9"/>
		<line class="st2" x1="66.6" y1="176.5" x2="68.6" y2="192.6"/>
		<line class="st2" x1="69.3" y1="192.8" x2="67" y2="174.7"/>
		<line class="st2" x1="72.1" y1="180.2" x2="70.6" y2="192.3"/>
		<line class="st2" x1="67" y1="176.9" x2="69" y2="192.6"/>
		<line class="st3" x1="65.7" y1="176.7" x2="68.2" y2="192.4"/>
		<line class="st2" x1="68.2" y1="176.5" x2="69.9" y2="192.6"/>
	</g>
	<g>
		<path class="st3" d="M115.7,207.3V221c0,0-0.7,1.3-2.7,0.2l-3.1-14.1"/>
		<line class="st2" x1="115.2" y1="221.4" x2="113.7" y2="206"/>
		<line class="st3" x1="115.5" y1="221.2" x2="114.4" y2="205.6"/>
		<line class="st2" x1="111.5" y1="205.3" x2="113.5" y2="221.4"/>
		<line class="st2" x1="114.4" y1="221.6" x2="112.1" y2="203.6"/>
		<line class="st2" x1="117" y1="208.9" x2="115.5" y2="221"/>
		<line class="st3" x1="112.1" y1="205.6" x2="114.1" y2="221.4"/>
		<line class="st2" x1="110.8" y1="205.5" x2="113.2" y2="221.2"/>
		<line class="st2" x1="113.2" y1="205.3" x2="114.8" y2="221.6"/>
	</g>
	<g>
		<path class="st2" d="M109.7,204.5v13.7c0,0-0.7,1.3-2.7,0.2l-3.1-14.1"/>
		<line class="st2" x1="109.1" y1="218.5" x2="107.7" y2="203.3"/>
		<line class="st2" x1="109.3" y1="218.5" x2="108.4" y2="202.7"/>
		<line class="st2" x1="105.5" y1="202.5" x2="107.5" y2="218.7"/>
		<line class="st2" x1="108.4" y1="218.8" x2="106" y2="200.7"/>
		<line class="st2" x1="111" y1="206.2" x2="109.5" y2="218.1"/>
		<line class="st2" x1="105.8" y1="202.9" x2="107.8" y2="218.7"/>
		<line class="st3" x1="104.7" y1="202.5" x2="107.1" y2="218.5"/>
		<line class="st3" x1="107.1" y1="202.5" x2="108.8" y2="218.7"/>
	</g>
	<g>
		<path class="st2" d="M71.5,184.9v13.7c0,0-0.7,1.3-2.7,0.2l-3.1-14.1"/>
		<line class="st2" x1="71" y1="198.9" x2="69.7" y2="183.6"/>
		<line class="st2" x1="71.4" y1="198.9" x2="70.3" y2="183.1"/>
		<line class="st2" x1="67.5" y1="182.9" x2="69.5" y2="199"/>
		<line class="st2" x1="70.4" y1="199.2" x2="68.1" y2="181.1"/>
		<line class="st2" x1="73" y1="186.6" x2="71.5" y2="198.5"/>
		<line class="st3" x1="67.9" y1="183.3" x2="69.9" y2="199"/>
		<line class="st2" x1="66.6" y1="182.9" x2="69.2" y2="198.7"/>
		<line class="st3" x1="69.2" y1="182.9" x2="70.8" y2="199"/>
	</g>
	<g>
		<path class="st3" d="M64.6,182.7v13.7c0,0-0.7,1.3-2.7,0.2l-3.1-14.1"/>
		<line class="st2" x1="64" y1="196.7" x2="62.7" y2="181.4"/>
		<line class="st2" x1="64.4" y1="196.7" x2="63.3" y2="180.9"/>
		<line class="st2" x1="60.4" y1="180.7" x2="62.4" y2="196.8"/>
		<line class="st2" x1="63.3" y1="197" x2="60.9" y2="178.9"/>
		<line class="st2" x1="66" y1="184.4" x2="64.6" y2="196.3"/>
		<line class="st3" x1="60.9" y1="181.1" x2="62.9" y2="196.8"/>
		<line class="st2" x1="59.6" y1="180.7" x2="62" y2="196.7"/>
		<line class="st3" x1="62" y1="180.7" x2="63.8" y2="196.8"/>
	</g>
	<g>
		<path class="st2" d="M102.9,201.2V215c0,0-0.7,1.3-2.7,0.2L97,201.1"/>
		<line class="st2" x1="102.3" y1="215.4" x2="100.9" y2="200"/>
		<line class="st2" x1="102.5" y1="215.2" x2="101.6" y2="199.6"/>
		<line class="st2" x1="98.7" y1="199.2" x2="100.7" y2="215.4"/>
		<line class="st2" x1="101.6" y1="215.5" x2="99.2" y2="197.4"/>
		<line class="st2" x1="104.2" y1="202.9" x2="102.7" y2="215"/>
		<line class="st2" x1="99" y1="199.6" x2="101.1" y2="215.4"/>
		<line class="st3" x1="97.9" y1="199.4" x2="100.3" y2="215.2"/>
		<line class="st2" x1="100.3" y1="199.2" x2="102" y2="215.4"/>
	</g>
	<g>
		<path class="st3" d="M77.8,188.8v13.7c0,0-0.7,1.3-2.7,0.2l-3.1-14.1"/>
		<line class="st2" x1="77.2" y1="202.9" x2="75.8" y2="187.5"/>
		<line class="st2" x1="77.4" y1="202.7" x2="76.5" y2="187.1"/>
		<line class="st2" x1="73.6" y1="186.8" x2="75.6" y2="202.9"/>
		<line class="st2" x1="76.5" y1="203.1" x2="74.1" y2="185.1"/>
		<line class="st2" x1="79.1" y1="190.4" x2="77.6" y2="202.5"/>
		<line class="st3" x1="73.9" y1="187.1" x2="75.9" y2="202.9"/>
		<line class="st2" x1="72.8" y1="186.9" x2="75.2" y2="202.7"/>
		<line class="st2" x1="75.2" y1="186.9" x2="76.9" y2="203.1"/>
	</g>
	<g>
		<path class="st2" d="M96.1,198.1v13.7c0,0-0.7,1.3-2.7,0.2l-3.1-14.1"/>
		<line class="st2" x1="95.6" y1="212.2" x2="94.1" y2="197"/>
		<line class="st2" x1="95.9" y1="212.2" x2="94.8" y2="196.5"/>
		<line class="st2" x1="91.9" y1="196.3" x2="93.9" y2="212.4"/>
		<line class="st2" x1="94.8" y1="212.6" x2="92.4" y2="194.5"/>
		<line class="st2" x1="97.4" y1="199.8" x2="95.9" y2="211.9"/>
		<line class="st2" x1="92.4" y1="196.5" x2="94.5" y2="212.4"/>
		<line class="st3" x1="91.2" y1="196.3" x2="93.5" y2="212.1"/>
		<line class="st3" x1="93.5" y1="196.3" x2="95.2" y2="212.4"/>
	</g>
	<g>
		<path class="st2" d="M102,194.8v12.8c0,0.9-0.9,1.6-1.8,1.5l0,0c-0.5-0.2-0.9-0.5-0.9-1.1l-2.9-13.4"/>
		<line class="st2" x1="101.4" y1="208.9" x2="100" y2="193.5"/>
		<line class="st3" x1="101.6" y1="208.8" x2="100.5" y2="193.2"/>
		<line class="st2" x1="97.8" y1="193" x2="99.8" y2="208.9"/>
		<line class="st2" x1="100.7" y1="209.3" x2="98.3" y2="191.2"/>
		<line class="st3" x1="103.3" y1="196.5" x2="101.8" y2="208.6"/>
		<line class="st3" x1="98.1" y1="193.2" x2="100.1" y2="209.1"/>
		<line class="st2" x1="97" y1="193" x2="99.4" y2="208.8"/>
		<line class="st2" x1="99.4" y1="193" x2="101.1" y2="209.1"/>
	</g>
	<g>
		<path class="st2" d="M90.1,194.6v13.7c0,0-0.7,1.3-2.7,0.2l-3.1-14.1"/>
		<line class="st2" x1="89.5" y1="208.8" x2="88" y2="193.5"/>
		<line class="st2" x1="89.7" y1="208.6" x2="88.6" y2="193"/>
		<line class="st2" x1="85.8" y1="192.8" x2="87.9" y2="208.8"/>
		<line class="st2" x1="88.8" y1="209.1" x2="86.4" y2="191"/>
		<line class="st3" x1="91.3" y1="196.3" x2="89.9" y2="208.4"/>
		<line class="st2" x1="86.2" y1="193" x2="88.2" y2="208.9"/>
		<line class="st3" x1="85.1" y1="192.8" x2="87.5" y2="208.6"/>
		<line class="st3" x1="87.5" y1="192.8" x2="89.1" y2="208.9"/>
	</g>
	<g>
		<path class="st2" d="M83.6,191.9v13.7c0,0-0.7,1.3-2.7,0.2l-3.1-14.1"/>
		<line class="st2" x1="83.1" y1="206" x2="81.8" y2="190.6"/>
		<line class="st2" x1="83.5" y1="205.8" x2="82.4" y2="190.2"/>
		<line class="st2" x1="79.6" y1="189.9" x2="81.6" y2="206"/>
		<line class="st2" x1="82.4" y1="206.2" x2="80" y2="188.2"/>
		<line class="st2" x1="85.1" y1="193.5" x2="83.6" y2="205.6"/>
		<line class="st2" x1="80" y1="190.2" x2="82" y2="206"/>
		<line class="st3" x1="78.7" y1="190.1" x2="81.3" y2="205.8"/>
		<line class="st3" x1="81.3" y1="189.9" x2="82.9" y2="206"/>
	</g>
	<g>
		<path class="st2" d="M45,173.6v13.7c0,0-0.7,1.3-2.7,0.2l-3.1-14.1"/>
		<line class="st2" x1="44.4" y1="187.7" x2="43.1" y2="172.3"/>
		<line class="st2" x1="44.8" y1="187.5" x2="43.7" y2="171.9"/>
		<line class="st2" x1="40.7" y1="171.5" x2="42.9" y2="187.7"/>
		<line class="st2" x1="43.7" y1="187.9" x2="41.3" y2="169.9"/>
		<line class="st2" x1="46.4" y1="175.2" x2="45" y2="187.3"/>
		<line class="st3" x1="41.3" y1="171.9" x2="43.3" y2="187.7"/>
		<line class="st2" x1="40" y1="171.7" x2="42.6" y2="187.5"/>
		<line class="st2" x1="42.4" y1="171.5" x2="44.2" y2="187.7"/>
	</g>
	<g>
		<path class="st3" d="M38.9,170.1v13.7c0,0-0.7,1.3-2.7,0.2L33,169.9"/>
		<line class="st2" x1="38.4" y1="184.2" x2="36.9" y2="168.8"/>
		<line class="st2" x1="38.7" y1="184" x2="37.6" y2="168.4"/>
		<line class="st2" x1="34.7" y1="168.1" x2="36.7" y2="184.2"/>
		<line class="st2" x1="37.6" y1="184.4" x2="35.2" y2="166.4"/>
		<line class="st3" x1="40.2" y1="171.7" x2="38.7" y2="183.8"/>
		<line class="st3" x1="35.2" y1="168.4" x2="37.1" y2="184.2"/>
		<line class="st2" x1="34" y1="168.3" x2="36.3" y2="184"/>
		<line class="st3" x1="36.3" y1="168.1" x2="38" y2="184.2"/>
	</g>
	<g>
		<path class="st2" d="M58.5,179.8v13.7c0,0-0.7,1.3-2.7,0.2l-3.1-14.1"/>
		<line class="st2" x1="58" y1="193.9" x2="56.5" y2="178.7"/>
		<line class="st2" x1="58.3" y1="193.7" x2="57.2" y2="178.1"/>
		<line class="st2" x1="54.3" y1="178" x2="56.3" y2="193.9"/>
		<line class="st2" x1="57.2" y1="194.3" x2="54.9" y2="176.1"/>
		<line class="st2" x1="59.8" y1="181.4" x2="58.3" y2="193.5"/>
		<line class="st3" x1="54.9" y1="178.1" x2="56.9" y2="194.1"/>
		<line class="st2" x1="53.6" y1="178" x2="56" y2="193.7"/>
		<line class="st3" x1="56" y1="178" x2="57.6" y2="194.1"/>
	</g>
	<g>
		<path class="st3" d="M51.7,176.7v13.7c0,0-0.7,1.3-2.7,0.2l-3.1-14.1"/>
		<line class="st2" x1="51.2" y1="190.6" x2="49.9" y2="175.4"/>
		<line class="st3" x1="51.6" y1="190.6" x2="50.5" y2="174.8"/>
		<line class="st2" x1="47.5" y1="174.7" x2="49.5" y2="190.8"/>
		<line class="st2" x1="50.5" y1="191" x2="48.1" y2="172.8"/>
		<line class="st2" x1="53" y1="178.3" x2="51.7" y2="190.2"/>
		<line class="st2" x1="48.1" y1="175" x2="50.1" y2="190.8"/>
		<line class="st3" x1="46.8" y1="174.7" x2="49.2" y2="190.4"/>
		<line class="st2" x1="49.2" y1="174.7" x2="51" y2="190.8"/>
	</g>
</g>
<g>
	<g>
		<g>
			<path class="st0" d="M97.2,21L97.4,132c0,0-1.3-2.7-1.5-2.7c-0.2,0,0.7,9.5,0.7,9.5l0.4,2.9c0,0-1.1-2-1.3-1.8s0,3.3,0,3.3
				l0.2,9.2c0,0-0.7,11.4-1.3,11.4c-0.5,0-1.5-29.1-1.5-29.1l-0.4-10.3l-0.4-103L97.2,21z"/>
		</g>
		<ellipse class="st4" cx="94.8" cy="21" rx="2.4" ry="1.3"/>
	</g>
	<g>
		<g>
			<path class="st0" d="M82.9,37.7l0.2,110.9c0,0-1.3-2.7-1.5-2.7c-0.2,0,0.7,9.5,0.7,9.5l0.4,2.9c0,0-1.1-2-1.3-1.8
				c-0.2,0.2,0,3.3,0,3.3l0.2,9.2c0,0-0.7,11.4-1.3,11.4c-0.5,0-1.1-29.1-1.1-29.1l-0.4-10.3l-0.7-103L82.9,37.7z"/>
		</g>
		<ellipse class="st4" cx="80.5" cy="37.7" rx="2.4" ry="1.3"/>
	</g>
	<g>
		<g>
			<path class="st0" d="M111.9,40.3l0.2,110.9c0,0-1.3-2.7-1.5-2.7c-0.2,0,0.7,9.5,0.7,9.5l0.4,2.9c0,0-1.1-2-1.3-1.8s0,3.3,0,3.3
				l0.2,9.2c0,0-0.7,11.4-1.3,11.4s-1.1-29.1-1.1-29.1l-0.7-10.3l-0.4-103L111.9,40.3z"/>
		</g>
		<ellipse class="st4" cx="109.5" cy="40.3" rx="2.4" ry="1.3"/>
	</g>
	<g>
		<g>
			<path class="st0" d="M124,2l0.2,110.9c0,0-1.3-2.7-1.5-2.7c-0.2,0,0.7,9.5,0.7,9.5l0.4,2.9c0,0-1.1-2-1.3-1.8
				c-0.2,0.2,0,3.3,0,3.3l0.2,9.2c0,0-0.7,11.4-1.3,11.4c-0.5,0-1.1-29.1-1.1-29.1l-0.4-10.3l-0.4-103L124,2z"/>
		</g>
		<ellipse class="st4" cx="121.4" cy="2.2" rx="2.4" ry="1.3"/>
	</g>
</g>
<polygon class="st0" points="112.2,247.1 201.5,202.3 201.5,188.8 112.2,233 "/>
</svg>
