<?xml version="1.0" encoding="utf-8"?>
<!-- Generator: Adobe Illustrator 25.2.3, SVG Export Plug-In . SVG Version: 6.00 Build 0)  -->
<svg version="1.1" id="Layer_1" xmlns="http://www.w3.org/2000/svg" xmlns:xlink="http://www.w3.org/1999/xlink" x="0px" y="0px"
	 viewBox="0 0 151.5 196.3" style="enable-background:new 0 0 151.5 196.3;" xml:space="preserve">
<style type="text/css">
	.st0{fill:none;stroke:#FFFFFF;stroke-width:0.25;stroke-linejoin:bevel;stroke-miterlimit:10;}
	.st1{fill:#CCB9B9;stroke:#FFFFFF;stroke-width:0.25;stroke-miterlimit:10;}
	.st2{fill:#CCB9B9;stroke:#FFFFFF;stroke-width:0.2576;stroke-miterlimit:10;}
	.st3{fill:#E4DAD8;stroke:#FFFFFF;stroke-width:0.25;stroke-miterlimit:10;}
	.st4{fill:#CCB9B9;stroke:#FFFFFF;stroke-width:0.2576;stroke-linejoin:bevel;stroke-miterlimit:10;}
	.st5{fill:#CCB9B9;stroke:#FFFFFF;stroke-width:0.25;stroke-linejoin:bevel;stroke-miterlimit:10;}
	.st6{fill:#E4DAD8;stroke:#FFFFFF;stroke-width:0.25;stroke-linejoin:bevel;stroke-miterlimit:10;}
	.st7{fill:none;stroke:#FFFFFF;stroke-width:0.2576;stroke-miterlimit:10;}
	.st8{fill:#F77441;stroke:#FFFFFF;stroke-width:0.2576;stroke-linejoin:bevel;stroke-miterlimit:10;}
	.st9{fill:#E4DAD8;stroke:#FFFFFF;stroke-width:0.2576;stroke-miterlimit:10;}
	.st10{fill:none;stroke:#FFFFFF;stroke-width:0.2576;stroke-linejoin:bevel;stroke-miterlimit:10;}
	.st11{fill:#E4DAD8;stroke:#FFFFFF;stroke-width:0.2576;stroke-miterlimit:10.0006;}
	.st12{fill:#CCB9B9;stroke:#FFFFFF;stroke-width:0.2576;stroke-miterlimit:10.0006;}
	.st13{fill:#CCB9B9;}
	.st14{fill:#FFFFFF;}
	.st15{fill:#F77441;stroke:#FFFFFF;stroke-width:0.25;stroke-linejoin:bevel;stroke-miterlimit:10;}
	.st16{fill:none;stroke:#F77441;stroke-width:0.2296;stroke-miterlimit:10.0002;}
	.st17{fill:none;stroke:#FFFFFF;stroke-width:0.25;stroke-miterlimit:10;}
	.st18{fill:#E4DAD8;stroke:#FFFFFF;stroke-width:0.4908;stroke-miterlimit:10;}
	.st19{fill:none;stroke:#FFFFFF;stroke-width:0.1873;stroke-miterlimit:10;}
	.st20{fill:#F77441;stroke:#FFFFFF;stroke-width:0.2118;stroke-miterlimit:10;}
	.st21{fill:none;stroke:#F77441;stroke-width:0.5;stroke-miterlimit:10;}
	.st22{fill:#F77441;stroke:#FFFFFF;stroke-width:0.5;stroke-miterlimit:10;}
	.st23{fill:none;stroke:#FFFFFF;stroke-width:0.5;stroke-miterlimit:10;}
	.st24{fill:#CCB9B9;stroke:#FFFFFF;stroke-width:0.1521;stroke-miterlimit:10;}
</style>
<g>
	<g>
		<line class="st0" x1="55.7" y1="187.1" x2="55.7" y2="195.8"/>
	</g>
</g>
<g>
	<g>
		<polygon class="st1" points="10.2,156.3 56,179.6 133.7,140.4 133.9,131.4 90.6,111.6 10.2,152.1 		"/>
		<polygon class="st2" points="10.2,157.1 10.3,148.3 56.1,170.7 55.9,179.5 		"/>
		<polygon class="st1" points="0.5,159.2 0.5,166.5 56.3,194.6 150.2,147.3 150.1,139.8 56.2,186.6 		"/>
		<polygon class="st3" points="55.9,186.5 150.3,139.9 94.4,112.7 0.7,158.7 		"/>
		<polygon class="st1" points="10.2,156.3 55.8,179.9 135.3,139.5 135.5,130.5 90.6,111.6 10.2,152.1 		"/>
		<polygon class="st4" points="10.2,157.1 10.3,148.3 55.8,171.2 55.8,180 		"/>
		<polygon class="st5" points="0.9,158.7 0.8,167.5 55.8,195.1 150.5,147.1 150.4,139.6 55.8,186.6 		"/>
		<path class="st6" d="M10.4,148.2l45.3,23l80.1-40.9l-45.9-22.2L10.4,148.2z"/>
		<line class="st7" x1="55.9" y1="186.5" x2="55.9" y2="195.4"/>
	</g>
	<g>
		<polygon class="st8" points="120.2,105.7 120.4,132.6 86.8,115.7 86.9,89.2 		"/>
		<polygon class="st2" points="111.2,110.4 111.3,137.3 77.7,120.4 77.9,93.9 		"/>
		<polygon class="st9" points="77.9,93.9 111.2,110.4 111.3,137.3 120.4,132.6 120.2,105.7 86.9,89.2 		"/>
		<line class="st10" x1="111.2" y1="110.4" x2="120.2" y2="105.7"/>
		
			<ellipse transform="matrix(0.7937 -0.6084 0.6084 0.7937 -50.7938 81.083)" class="st11" cx="94.1" cy="115.4" rx="7.7" ry="12.3"/>
		
			<ellipse transform="matrix(0.7937 -0.6084 0.6084 0.7937 -50.7938 81.083)" class="st12" cx="94.1" cy="115.4" rx="6.7" ry="10.6"/>
		
			<ellipse transform="matrix(0.7937 -0.6084 0.6084 0.7937 -50.7938 81.083)" class="st11" cx="94.1" cy="115.4" rx="5.4" ry="8.6"/>
		
			<ellipse transform="matrix(0.8249 -0.5653 0.5653 0.8249 -42.4662 63.5342)" class="st13" cx="81.3" cy="100.3" rx="1.6" ry="2.2"/>
		<path class="st14" d="M82.4,102.1c-0.3,0.3-2.7,0.3-3.3-0.8c-0.7-1.1,0.9-3,1.3-3s1.6,0.2,2.1,1.4S82.6,101.8,82.4,102.1z"/>
		
			<ellipse transform="matrix(0.8249 -0.5653 0.5653 0.8249 -52.9237 66.5275)" class="st13" cx="80.9" cy="118.7" rx="1.6" ry="2.2"/>
		<path class="st14" d="M81.9,120.5c-0.3,0.3-2.7,0.3-3.3-0.8c-0.7-1.1,0.9-3,1.3-3s1.6,0.2,2.1,1.4
			C82.4,119.3,82.2,120.2,81.9,120.5z"/>
		
			<ellipse transform="matrix(0.8249 -0.5653 0.5653 0.8249 -44.9029 81.0518)" class="st13" cx="108.4" cy="113" rx="1.6" ry="2.2"/>
		<path class="st14" d="M109.4,114.9c-0.3,0.3-2.7,0.3-3.3-0.8c-0.7-1.1,0.9-3,1.3-3s1.6,0.2,2.1,1.4S109.7,114.6,109.4,114.9z"/>
		
			<ellipse transform="matrix(0.8249 -0.5653 0.5653 0.8249 -55.4294 83.526)" class="st13" cx="107.1" cy="131.2" rx="1.6" ry="2.2"/>
		<path class="st14" d="M108.2,133c-0.3,0.3-2.7,0.3-3.3-0.8c-0.7-1.1,0.9-3,1.3-3s1.6,0.2,2.1,1.4
			C108.7,131.9,108.5,132.7,108.2,133z"/>
	</g>
	<polygon class="st15" points="58.3,126.9 91.9,143.8 91.9,130 58.2,113.9 	"/>
	<polygon class="st15" points="18.7,146.6 53.7,129.9 53.8,116.7 18.7,134.3 	"/>
	<g>
		
			<ellipse transform="matrix(0.8484 -0.5294 0.5294 0.8484 -64.0381 47.3779)" class="st16" cx="50.7" cy="135.5" rx="3.1" ry="6.6"/>
		<path class="st3" d="M40,133.1c0,0,7-3.1,7.3-3.3c0.3-0.3,0.1-0.9,1-1.5c0.8-0.5,1.3-0.2,1.6-0.4c0.3-0.2,4.2-5.6,6.2-7.9
			s4.2-4,5.6-4.5s3.4-1.5,3.9-2s1.4-2.6,2.3-4.1s8.7-5.4,15.6,5.6l0,0c6.8,11-0.1,16.3-1.9,16.4c-1.8,0.2-4,0-4.7,0.3
			s-2.4,1.5-3.5,2.6s-3.5,2.3-6.5,3.1s-9.5,1.9-9.8,2.1s-0.2,0.7-1.1,1.2c-0.8,0.5-1.4,0-1.7,0.2c-0.4,0.2-6,5.5-6,5.5L40,133.1z"/>
		<path class="st17" d="M67.8,109.6c0.3-0.5,0.9-0.9,1.4-1.2c2.9-1.8,8.4,1.7,12.2,7.8c3.8,6.1,4.6,12.6,1.7,14.4
			c-0.3,0.2-0.8,0.6-1.2,0.7"/>
		<path class="st18" d="M39.9,133.3c1.8-1.4,6.2-0.1,8.1,2.1s3.5,5.9,1.1,9.5s-6.7-0.2-9-3.1C37.9,138.8,38.1,134.7,39.9,133.3z"/>
		<path class="st19" d="M47.3,130c1.5-0.9,4.1,0.8,6,3.9c1.9,3.1,2.2,6.2,0.7,7.1"/>
		<path class="st19" d="M47.5,130c0.1-0.8,0.4-1.4,0.9-1.7c1.6-1,4.6,0.9,6.7,4.3c2.1,3.4,2.5,7,0.9,8c-0.5,0.3-1.1,0.3-1.7,0.2"/>
		<path class="st17" d="M76.7,131.8c0,0,3.7-3.4-1.8-11.7s-9.5-6.5-9.5-6.5"/>
	</g>
	<g>
		<path class="st20" d="M54.5,142.8"/>
		<path class="st20" d="M65.5,128.5"/>
	</g>
	<g>
		<path class="st20" d="M54,141.6"/>
		<path class="st20" d="M65,127.3"/>
	</g>
	<g>
		<ellipse class="st21" cx="36.4" cy="22" rx="11.8" ry="5.6"/>
		<path class="st22" d="M50.2,8.1c0,0-2,13.5-1.9,14.2s1.3,1,1.3,2.9c0,1.8-0.9,2.2-0.9,2.8c0,0.7,4.5,11.6,6.1,16.8
			c1.6,5.2,2.1,10,1.4,12.7c-0.7,2.8-0.9,6.6-0.6,7.8c0.3,1.2,2.6,4.7,4,7.4c1.4,2.8-0.1,18.2-23.1,18.2h-0.1
			c-23,0-24.5-15.5-23.1-18.2c1.4-2.8,3.7-6.2,4-7.4c0.3-1.2,0-5.1-0.6-7.8c-0.7-2.8-0.2-7.5,1.4-12.7s6.1-16.2,6.1-16.8
			c0-0.7-0.9-1-0.9-2.8s1.2-2.1,1.3-2.9c0.1-0.8-2.6-14.2-2.6-14.2S50.2,8.1,50.2,8.1z"/>
		<path class="st23" d="M59.3,72.3c0.5,0.9,0.5,2.2,0.5,3.2c0,6.1-10.5,11.1-23.3,11.1s-23.4-5-23.4-11.2c0-0.8-0.2-1.9,0.1-2.6"/>
		<ellipse class="st22" cx="36.1" cy="8.1" rx="14" ry="6.7"/>
		<path class="st23" d="M47.9,22.2c0,3-5,5.4-11.5,5.4S25,25.1,25,22"/>
		<path class="st23" d="M47.8,22.4c1,0.9,1.6,1.9,1.6,3c0,3.4-5.8,6.1-12.9,6.1s-12.8-2.8-12.8-6.1c0-0.9,0.5-1.9,1.4-2.8"/>
		<path class="st23" d="M17.6,64.7c0,0,1.6,8.7,19.3,8.4c17.7-0.4,18.7-8.3,18.7-8.3"/>
	</g>
	<polygon class="st2" points="18.8,146.6 56.1,164.9 55.9,152 18.7,134.2 	"/>
	<polygon class="st5" points="56.1,165 103.3,141.5 103.3,129.1 56.2,152.3 	"/>
	<g>
		<path class="st6" d="M37.3,143.4l-18.6-9.1l49.5-24.7l0.9-1.4c0,0-0.4,0.3-1.4,1.9c-1.1,1.6-1.5,2.9-2.2,3.5
			c-0.8,0.6-2.8,1.2-5.6,3s-2.5,2.2-4.7,4.4c-2.2,2.2-4.8,6.7-5.2,6.9c-0.3,0.2-0.9,0.1-1.7,0.6c-0.9,0.5-0.7,1-1,1.2
			s-6.7,3.1-6.7,3.1l-0.7,0.3c-1.3,0.7-1.4,2.9-0.7,5.4l3.4,1.6c0,0-1,2.7,0,3.2s2.7-0.5,2.7-0.5l0.9-0.4l3.3,1.6
			c0,0,3.8-2.5,4.9-3.4c0,0,0.8,0.6,1.8,0c1.1-0.6,1-1.4,1-1.4s11.4-2.7,14.3-3.9c2.9-1.1,5.2-5.4,6.5-5.7c1.3-0.4,3.7,0,5.9-2.8
			c0.7-0.9,0.6-4,0.6-4c1.8-0.7,1.3-2.8,1.6-3.6l17.4,9.5l-47.6,23.7l-14.6-7.2l-2.4-1.3c0,0,0.8,1.8-0.7,1
			C36.7,144.3,37.3,143.4,37.3,143.4z"/>
	</g>
	<path class="st24" d="M41,145.2c0,0-1.4,3-2.7,2.2c-1.3-0.7-1.7-4.3-1.7-4.3l5.9-3c0,0-0.6,2.8,0.7,3.6c0.6,0.3,3.1-1.4,3.1-1.4
		L41,145.2z"/>
	<g>
		<ellipse class="st13" cx="55.4" cy="146.6" rx="2.9" ry="1.4"/>
		<path class="st14" d="M52.5,146.6c0,0,2.7-5.2,5.8,0c0,0-1.5,0.7-3.2,0.7S52.5,146.6,52.5,146.6z"/>
	</g>
	<g>
		<ellipse class="st13" cx="28.8" cy="134.7" rx="2.9" ry="1.4"/>
		<path class="st14" d="M25.8,134.7c0,0,2.7-5.2,5.8,0c0,0-1.5,0.7-3.2,0.7C26.7,135.4,25.8,134.7,25.8,134.7z"/>
	</g>
	<g>
		<ellipse class="st13" cx="91" cy="129" rx="2.9" ry="1.4"/>
		<path class="st14" d="M88,129c0,0,2.7-5.2,5.8,0c0,0-1.5,0.7-3.2,0.7C88.9,129.7,88,129,88,129z"/>
	</g>
	<g>
		<polygon class="st1" points="81.1,74.3 117.1,92.6 117,38.2 83.3,21.8 		"/>
		<g>
			<path class="st1" d="M93.4,13.5l36.4,18.3l-12.5,6.5c-0.5,1-36.9-18.3-36.9-18.3L93.4,13.5z"/>
			<g>
				<path class="st3" d="M80.1,19.8l-0.2,53.8l10.7,5.5c0,0-5.1-7.6-3.3-11.1c1.8-3.6,1.7-3.7,1.8-4.7c0.1-1-0.7-1.3-0.8-5
					c-0.1-3.6,5.1-15.6,5.1-15.9c0-0.4-0.7-0.4-0.6-1.1c0-0.7,0.9-1.4,0.9-1.4l-1-6.7l4.9,2.2c0,0,2.9-1.4,3.8-0.9s1,3.4,1,3.4
					l4.1,2c0,0-1.4,5.9-1.5,5.9c0,0,0.4,0.4,0.5,1.3s-0.7,1.2-0.7,1.2s3.6,12.8,3.4,15.8c-0.2,3.1-1.5,5.2-1.1,7.3
					c0.3,2.1,1.1,1.3,2,5.3c0.5,2.2-0.7,4.3-2.4,5.9c-1.4,1.3-3.4,1.8-3.4,1.8l-1.1,0.5l15.2,7.7L117,38.2L80.1,19.8z"/>
			</g>
			<g>
				<g>
					
						<ellipse transform="matrix(0.7214 -0.6925 0.6925 0.7214 5.0664 65.9648)" class="st13" cx="84.5" cy="26.7" rx="1.9" ry="2.9"/>
				</g>
				<g>
					
						<ellipse transform="matrix(0.7214 -0.6925 0.6925 0.7214 5.0664 65.9648)" class="st13" cx="84.5" cy="26.7" rx="1.6" ry="2.4"/>
				</g>
			</g>
			<g>
				<g>
					
						<ellipse transform="matrix(0.7214 -0.6925 0.6925 0.7214 -27.0494 78.3905)" class="st13" cx="83.9" cy="72.8" rx="1.5" ry="2.4"/>
				</g>
				<g>
					
						<ellipse transform="matrix(0.7214 -0.6925 0.6925 0.7214 -27.0494 78.3905)" class="st13" cx="83.9" cy="72.8" rx="1.3" ry="2"/>
				</g>
			</g>
			<g>
				<g>
					<ellipse transform="matrix(0.7214 -0.6925 0.6925 0.7214 2.631 89.0681)" class="st13" cx="112" cy="41.3" rx="1.9" ry="2.9"/>
				</g>
				<g>
					<ellipse transform="matrix(0.7214 -0.6925 0.6925 0.7214 2.631 89.0681)" class="st13" cx="112" cy="41.3" rx="1.6" ry="2.4"/>
				</g>
			</g>
			<g>
				<g>
					
						<ellipse transform="matrix(0.7214 -0.6925 0.6925 0.7214 -27.8637 100.998)" class="st13" cx="111.6" cy="85.1" rx="1.9" ry="2.9"/>
				</g>
				<g>
					
						<ellipse transform="matrix(0.7214 -0.6925 0.6925 0.7214 -27.8637 100.998)" class="st13" cx="111.6" cy="85.1" rx="1.6" ry="2.4"/>
				</g>
			</g>
			<path class="st1" d="M129.8,31.8v54.6l-12.7,6.2c0,0-0.3-54.4-0.1-54.4L129.8,31.8z"/>
			<path class="st1" d="M97.6,35.6l-0.1-6.9c0,0,3-1.5,4.5-0.6c1.4,0.9,0.2,2.9,0.2,2.9v6.8c0,0,0.1-2.9-0.9-3.1
				C100.2,34.5,97.6,35.6,97.6,35.6z"/>
		</g>
	</g>
</g>
</svg>
