<?xml version="1.0" encoding="utf-8"?>
<!-- Generator: Adobe Illustrator 25.2.3, SVG Export Plug-In . SVG Version: 6.00 Build 0)  -->
<svg version="1.1" id="Layer_1" xmlns="http://www.w3.org/2000/svg" xmlns:xlink="http://www.w3.org/1999/xlink" x="0px" y="0px"
	 viewBox="0 0 65.1 65.1" style="enable-background:new 0 0 65.1 65.1;" xml:space="preserve">
<style type="text/css">
	.st0{fill:none;stroke:#D8422E;stroke-width:2.9062;stroke-miterlimit:10;}
	.st1{fill:none;stroke:#EE7345;stroke-width:2.9062;stroke-miterlimit:10;}
</style>
<path class="st0" d="M9.6,42.6c0,0,5.5,1.8,7.4-4s-3.2-10.3-4-14.3c-0.8-4,2.1-7.3,6.7-6.9s7,2,5.8,7.8c-1.2,5.8-4.4,10.5-2.8,13.6
	c1.5,3.1,5,4.1,6.9,3.8"/>
<path class="st0" d="M26.8,42.4c0,0,5.5,1.8,7.4-4c1.9-5.8-3.2-10.3-4-14.3c-0.8-4,2.1-7.3,6.7-6.9s7,2,5.8,7.8S38.4,35.5,40,38.6
	c1.5,3.1,5,4.1,6.9,3.8"/>
<path class="st0" d="M44.9,42.1c0,0,5.5,1.8,7.4-4s-3.2-10.3-4-14.3s2.1-7.3,6.7-6.9s7,2,5.8,7.8S56.4,35.3,58,38.4
	c1.5,3.1,8.1,1.6,3.4,4.6"/>
<path class="st0" d="M9.6,27.2c0,0,5.5,1.8,7.4-4s-3.2-10.3-4-14.3c-0.8-4,2.1-7.3,6.7-6.9s7,2,5.8,7.8c-1.2,5.8-4.4,10.5-2.8,13.6
	s5,4.1,6.9,3.8"/>
<path class="st0" d="M26.8,27c0,0,5.5,1.8,7.4-4c1.9-5.8-3.2-10.3-4-14.3c-0.8-4,2.1-7.3,6.7-6.9s7,2,5.8,7.8S38.4,20.1,40,23.2
	c1.5,3.1,5,4.1,6.9,3.8"/>
<path class="st0" d="M44.9,26.8c0,0,5.5,1.8,7.4-4s-3.2-10.3-4-14.3s2.1-7.3,6.7-6.9s7,2,5.8,7.8S56.4,19.9,58,23
	c1.5,3.1,7.8,1,5,4.6"/>
<path class="st0" d="M9.6,58.7c0,0,5.5,1.8,7.4-4s-3.2-10.3-4-14.3c-0.8-4,2.1-7.3,6.7-6.9c4.6,0.3,7,2,5.8,7.8
	c-1.2,5.8-4.4,10.5-2.8,13.6c1.5,3.1,5,4.1,6.9,3.8"/>
<path class="st0" d="M26.8,58.5c0,0,5.5,1.8,7.4-4c1.9-5.8-3.2-10.3-4-14.3c-0.8-4,2.1-7.3,6.7-6.9c4.6,0.3,7,2,5.8,7.8
	S38.4,51.6,40,54.7c1.5,3.1,5,4.1,6.9,3.8"/>
<path class="st0" d="M44.9,58.3c0,0,5.5,1.8,7.4-4S49.1,44,48.3,40s2.1-7.3,6.7-6.9c4.6,0.3,7,2,5.8,7.8S56.4,51.4,58,54.5
	c1.5,3.1,9.6,2,1.9,6.8"/>
<path class="st1" d="M2.2,47.3c-2.7-0.4,5.5,1.8,7.4-4S6.5,33,5.7,29s2.1-7.3,6.7-6.9s7,2,5.8,7.8s-4.4,10.5-2.8,13.6s5,4.1,6.9,3.8
	"/>
<path class="st1" d="M19.4,47.1c0,0,5.5,1.8,7.4-4s-3.2-10.3-4-14.3s2.1-7.3,6.7-6.9s7,2,5.8,7.8S31,40.2,32.6,43.3
	c1.5,3.1,5,4.1,6.9,3.8"/>
<path class="st1" d="M37.5,46.9c0,0,5.5,1.8,7.4-4c1.9-5.8-3.2-10.3-4-14.3c-0.8-4,2.1-7.3,6.7-6.9s7,2,5.8,7.8S49,40,50.6,43.1
	c1.5,3.1,4.2,5.4,11.3,0.5"/>
<path class="st1" d="M2.2,31.9c-2.7-0.5,5.5,1.8,7.4-4s-3.2-10.3-4-14.3s2.1-7.3,6.7-6.9s7,2,5.8,7.8S13.8,25,15.4,28.1
	s5,4.1,6.9,3.8"/>
<path class="st1" d="M19.4,31.7c0,0,5.5,1.8,7.4-4s-3.2-10.3-4-14.3s2.1-7.3,6.7-6.9s7,2,5.8,7.8S31,24.8,32.6,27.9
	c1.5,3.1,5,4.1,6.9,3.8"/>
<path class="st1" d="M37.5,31.5c0,0,5.5,1.8,7.4-4c1.9-5.8-3.2-10.3-4-14.3c-0.8-4,2.1-7.3,6.7-6.9s7,2,5.8,7.8S49,24.6,50.6,27.7
	c1.5,3.1,10.8,2.7,12.9-0.7"/>
<path class="st1" d="M2.4,63.3c-2.2-0.6,5.4,2,7.3-3.8s-3.2-10.3-4-14.3s2.1-7.3,6.7-6.9c4.6,0.3,7,2,5.8,7.8s-4.4,10.5-2.8,13.6
	c1.5,3.1,5,4.1,6.9,3.8"/>
<path class="st1" d="M19.4,63.3c0,0,5.5,1.8,7.4-4S23.7,49,22.9,45s2.1-7.3,6.7-6.9c4.6,0.3,7,2,5.8,7.8S31,56.4,32.6,59.5
	c1.5,3.1,5,4.1,6.9,3.8"/>
<path class="st1" d="M37.5,63c0,0,5.5,1.8,7.4-4c1.9-5.8-3.2-10.3-4-14.3c-0.8-4,2.1-7.3,6.7-6.9c4.6,0.3,7,2,5.8,7.8
	S49,56.2,50.6,59.3c1.5,3.1,7,4.9,9.5,1.5"/>
</svg>
