<?xml version="1.0" encoding="utf-8"?>
<!-- Generator: Adobe Illustrator 25.2.3, SVG Export Plug-In . SVG Version: 6.00 Build 0)  -->
<svg version="1.1" xmlns="http://www.w3.org/2000/svg" xmlns:xlink="http://www.w3.org/1999/xlink" x="0px" y="0px"
	 viewBox="0 0 150 167.6" style="enable-background:new 0 0 150 167.6;" xml:space="preserve">
<style type="text/css">
	.st0{fill:#D8422E;}
	.st1{fill:none;stroke:#FFFFFF;stroke-width:0.25;stroke-miterlimit:10;}
	.st2{fill:#CCB9B9;stroke:#FFFFFF;stroke-width:0.25;stroke-miterlimit:10;}
	.st3{fill:#CCB9B9;stroke:#FFFFFF;stroke-width:0.25;stroke-linejoin:bevel;stroke-miterlimit:10;}
	.st4{fill:none;stroke:#FFFFFF;stroke-width:0.25;stroke-linejoin:bevel;stroke-miterlimit:10;}
	.st5{fill:#B79797;stroke:#FFFFFF;stroke-width:0.25;stroke-linejoin:bevel;stroke-miterlimit:10;}
	.st6{fill:#B79797;stroke:#FFFFFF;stroke-width:0.25;stroke-miterlimit:10;}
	.st7{fill:#E4DAD8;stroke:#FFFFFF;stroke-width:0.5891;stroke-miterlimit:10;}
	.st8{fill:url(#SVGID_1_);stroke:#FFFFFF;stroke-width:0.5891;stroke-miterlimit:10;}
	.st9{fill:none;}
	.st10{fill:#E4DAD8;stroke:#FFFFFF;stroke-width:0.25;stroke-miterlimit:10;}
	.st11{fill:#E4DAD8;stroke:#FFFFFF;stroke-width:0.25;stroke-linejoin:bevel;stroke-miterlimit:10;}
	.st12{fill:#B79797;stroke:#FFFFFF;stroke-width:0.172;stroke-linejoin:bevel;stroke-miterlimit:10;}
	.st13{clip-path:url(#SVGID_3_);}
	.st14{clip-path:url(#SVGID_5_);}
	.st15{fill:#E4DAD8;stroke:#FFFFFF;stroke-width:0.5;stroke-miterlimit:10;}
	.st16{fill:url(#SVGID_6_);stroke:#FFFFFF;stroke-width:0.25;stroke-linejoin:bevel;stroke-miterlimit:10;}
</style>
<symbol  id="Mezzotint" viewBox="-40.1 -24.9 80.1 50">
	<g>
		<g>
			<g>
				<g>
					<path class="st0" d="M-12.9,9.4c-0.2,0.1-0.4,0.3-0.5,0.5c0.9,0.3,1.7,0.7,2.7,0.5C-11,9.9-11,9.2-11.4,9
						C-11.7,8.8-12.4,9.2-12.9,9.4z"/>
					<path class="st0" d="M16.6,18c-0.9,0.2-4.2-2.4-5.2-2.3c-0.4,0.1-1,0-1.2-0.1c-0.4-0.4-0.5-0.1-0.9-0.5
						c-0.7-0.7-2.2-1.1-2.9,0.1c-0.2,0.3,0.2,1.2,2.5,0.5c0.2-0.1,0.6,0.7,1,0.8c5.1,2.3,9.5,4,9,2.7L16.6,18z"/>
					<path class="st0" d="M5.7,17.8c-0.3,0.7-0.4,2-0.2,2.1c2.3,1,3.6,1.1,4.3,0.4c0.7-0.6-1.9-0.2-3-0.5c-1.1-0.4-0.4-3.1-1.1-3.3
						C5,16.4,5.7,17.1,5.7,17.8z"/>
					<path class="st0" d="M3.3,18.7c-1.8-0.9-1.8-1.2-4.2,0c0.7-0.4,0.4-0.4,2.1,1.1C1.4,19.9,2.8,18.8,3.3,18.7z"/>
					<path class="st0" d="M-3.6,12.9c-0.5-0.2-1.3-0.6-1.5-0.4C-6.6,13.8-8,13-9.4,12.4c0.7-1.2,0.4-2.8,1.6-3.7
						c-0.8,0.2-1.9,0.3-2,1.1c0,0.3,0.9,0.8,0.8,1c-1.3,2.7,0.7,3.7,2.8,3.6c0.2,0,0.3-1.2,0.6-1.3c1.4-0.4,2.9,3.6,3.1,2
						c0-1,0.2-2.2,2.1-1.9C0.4,13.2,1,14.3,1.7,15c0.8,0.3,1.7-1.2,1-2C0.9,11.1-1.4,13.9-3.6,12.9z"/>
					<path class="st0" d="M3.3,9.1c-0.4,0-0.8-0.1-1,0c-0.2,0.2-0.1,0.6-0.1,1C2.8,10,3.5,9.6,3.8,9.8c1.1,0.9,2.1,2.4,1.2,4.1
						C7.7,12.4,6,9.4,3.3,9.1z"/>
					<path class="st0" d="M4.5,5.8c3,2.5,3.9,4.6,5.7,0.7C10,4.9,8.8,7.6,8.2,7.4C7.8,7.3,8.6,5.4,8.3,5.3C7.9,5.1,6.5,6.5,6,6.4
						c-0.8-0.2-0.9-1.2-1.1-2C4.8,4.9,4.4,5.7,4.5,5.8z"/>
					<path class="st0" d="M7.1,2.3c-0.1,0.1,0,0.6,0,1C7.9,3,9.5,3.8,9.5,2.7C9.5,1.7,7.5,1.6,7.1,2.3z"/>
					<path class="st0" d="M-5.3,5.1C-5.9,5.1-6,6-5.7,6.5c0.5,0.9,1,2.7,2.1,2.2c0-1.2,0.8-1.9,1.6-2.7C-3.9,7.9-4.2,5.1-5.3,5.1z"
						/>
					<path class="st0" d="M13.7,4.6c2.2-1.7,4.1-0.2,6.2-0.2c0.4,0,0.7-0.8,1.1-0.8c1.1-0.1,2,0.5,2.6,1.5C23.4,3,25.9,3.6,26,2.4
						c0.1-2.3-1.8-3.9-0.8-6.4c-1.6-1.1-3.6-0.6-5.3-1.1c2.4,1.3,5.9,1.8,4.2,5.3c0.4,0,0.8-0.1,1,0.1c0.4,0.4,0.6,1.1,0.5,1.5
						c-0.4,0.9-1.4,1.8-2.5,1.5c-1.9-0.6-2.4-0.3-4.3-0.2c-0.9,0-1.7-1.7-3.2-1.8c0,0.4,0.1,1-0.1,1c-1.9-0.6-2.7,0.5-2.2,1.5
						L13.7,4.6z"/>
					<path class="st0" d="M20.5,8.7L20.5,8.7c0,0.2-1.2,0.6-1.4,0.4c-1.2-1.1-2.6-2-3.8-0.4C18.4,8.4,21,10,23.8,11
						c0.9,0.3,0.3,4.1,1.8,3.7l0.9-2.3c1,0,1.8-0.2,2.1-2.1c-0.7,0.8-1.5,1.8-2.6,1.5c-1.8-0.5-1.9-1.7-3.3-2.9
						c-0.2-0.2-1.1,0.5-1.4,0.3C21,9.1,20.6,8.9,20.5,8.7z"/>
					<path class="st0" d="M0.7-18.1c1.1,0.4,1.5-0.5,2.1-1.1C1.8-19.5,1.2-18.9,0.7-18.1z"/>
					<path class="st0" d="M33.9,1.9c-3.4-2.7-0.4,0.4-0.6,0.6c0.7-0.3,1.4-1.1,2.1,0C34.9,2.3,34.3,2.2,33.9,1.9z"/>
					<path class="st0" d="M30.4-3.7c-0.8-0.5-1.8-1-2.5-0.5c-0.6,0.4-1.8,0.3-0.6,2.5c1.1-2.2,3-1.3,4.8-0.5
						C31.5-2.7,31-3.3,30.4-3.7z"/>
					<path class="st0" d="M21.5,2.2c-0.4-0.1-0.7-0.6-1.1-1c0,1.2,0.7,2.3,1.6,2.4c0.5,0.1,1-0.9,1.6-1.4
						C22.9,2.3,22.2,2.5,21.5,2.2z"/>
					<path class="st0" d="M9.4-0.4c0.4,0.3,1.1,0.7,1,0.9c-0.2,0.9-1.1,1.6-1.8,2.4c0.4,0,0.8,0,1-0.1c0.8-0.5,0.6-1.8,0.9-1.9
						c2.2-0.6,6.3,0.4,8.6,0.4c0-0.4-2.5-1.2-2.6-1.2C13.7-0.3,12.2-0.1,9.4-0.4z"/>
					<path class="st0" d="M11.5-4.7c-0.2,0.8-1.1,1.7,0.1,2c2.4,0.6,4.5-1.4,6.9-1.5c-1.2-1.8,1.1-3.4,1-5.3c0-0.4-0.7-0.7-0.9-1.1
						c-0.4-0.7-1.1-1.4,0-2.1c-0.4,0-0.7,0-1.1,0c0.4,2.3-1.3,1-2.1,2.1c0.5-0.2,1.2-0.6,1.5-0.4c1.1,0.6,2.2,1.5,2.1,3.1
						c0,0.6-0.2,1.4-0.5,1.4c-1,0.3-2-0.5-2.6-1.4c-0.1,1.7,1.4,3.9-0.6,4.5c-0.7,0.2-1.8,0.1-3.1-0.1c-1.7-0.2,1.1-2.4-0.6-3.4
						C11.6-6.1,11.7-5.4,11.5-4.7z"/>
					<path class="st0" d="M6.4,0.5c0-0.2,0.9-0.5,0.9-0.8C7.3-1,7.8-2.4,7.4-3C8-3.1,8.7-3.4,9-3.1c0.7,0.7-0.9,2.6-1.6,3.9
						C7.1,1.4,7.3,2.4,7.9,3C7.4,2.2,6.5,1.4,6.4,0.5z"/>
					<path class="st0" d="M0.4-3.1c-0.8-1.5-1.4-0.2-1.1,0.9c0.4,0.9,2,3.3,3.8,1.7c0.2-0.2,0.1-0.6,0.1-1C2.5-1.5,3.2,2,0.4-3.1z"
						/>
					<path class="st0" d="M-9,22.2c0.1-0.2,1.8-0.1,2.4-0.1L-7,22.1c-1.8-0.3-2.8-3-4.6-4.3c-0.7-0.5-2,0.5-2.4,0.2L-9,22.2z"/>
					<path class="st0" d="M13.1,21.2c0.4,0.4,0.7,0.7,1.1,1.1c0.2-0.8,0.3-1.6,1.1-2.1C14.5,20.5,13.8,20.8,13.1,21.2z"/>
					<path class="st0" d="M-8.7,16.1c-0.8-1.5-1.4-0.2-1.1,0.9c0.4,0.9,2,3.3,3.8,1.7c0.2-0.2,0.1-0.6,0.1-1
						C-6.7,17.7-6,21.3-8.7,16.1z"/>
					<path class="st0" d="M-31.2,11.6c0.1,0.4-5.6,1.8-5.8,2.3l2.6,1.5c0.8-0.4,0.7-1.7,1.2-1.9c2.3-0.8,3.9,1.1,4.3-2.3
						c0,0,0.7-0.1,0.9,0c0.5,0.6,0.4,1.6,1.2,2c0.6,0.3,1.1-0.1,1.6-0.4c1.8-0.9,1.4,2.1,4.3,1.1c0.3-0.1,1.2,0.8,1.4,1.4
						c0.3,1.5-1.1,2.2-2,3.2c0.8-1,2-1.1,3.2-1.1c-0.5-0.2-1.1-0.4-1.6-0.5c0.4-1.1,0.7-2.1,1.1-3.2c-0.5,0.2-1.2,0.6-1.5,0.4
						c-0.9-0.4-1.4-1.6-2.2-1.9c-0.2-0.1-0.7,0.8-1,0.8c-1.9-0.2-3.2-2.4-4.7-2.1"/>
					<path class="st0" d="M-36.4,13.2"/>
					<path class="st0" d="M-37.4-5.8c0.4-0.2,1,0.2,1.5,0.4c0.2-0.5,0.4-1.1,0.5-1.6c3.2,1.4,7.8,2.7,10.6,0
						c-0.4-0.4-0.7-0.7-1.1-1.1c-0.5,0.7-1.4,1.1-2.1,0.9c-1.3-0.4-0.2-2.4-2.7-2.5c0.9,0.9,2.5,1.9,1.9,3.1c-0.7,1.4-3.1,0.4-4-0.9
						c-0.4,0.4-0.8,1-1,0.9c-2-0.7-4,0.6-5.9-0.4c0.1,1.8-1.2,3.6,0,5.3C-37.9-2.6-39-5.1-37.4-5.8z"/>
					<path class="st0" d="M-19.9,11.3c-1.2,1,0.2,1.1,0.5,1.6C-19.6,12.4-19.7,11.8-19.9,11.3z"/>
					<path class="st0" d="M-17.1,6.6c-0.1-1-0.5-1.6-1.2-2.1c-0.2,0.5-0.6,1.3-0.4,1.5c1.2,1.1,1,3.1,2.5,3.8
						C-16,8.6-17,7.7-17.1,6.6z"/>
					<path class="st0" d="M-16.7,12.5c1,1.3,1-0.6,1.6-0.5C-15.7,12.1-16.2,12.3-16.7,12.5z"/>
					<path class="st0" d="M-15.4-10.1c-1.9-1.7-1.5-4.1-1.1-6.3c0.1,0.9,0,1.9-0.6,2.6c-0.1,0.2-0.8-0.1-0.9,0.1
						c-0.4,0.4-0.7,1.2-0.5,1.4c0.9,1.1,1.5,2.6,3.6,2.9c0.3,0,0.4,0.9,0.6,1.4c-0.5,0.2-1.1,0.4-1.6,0.5c0.4,1.1,0.7,2.1,1.1,3.2
						c1.4-1.8-0.3-3.9,0.5-5.8C-14.8-10.1-15.2-10-15.4-10.1z"/>
					<path class="st0" d="M-5.7,1.8c0.8-1,1.6-0.2,2,0.3c0.5,0.5,0.4,1,2.7,1c0.4,0,1.2,0.7,2,1c0-0.4,0.1-0.7,0.1-1.1
						C0.6,3.1,0,3.4-0.5,3.2c-0.6-0.3-1-1.4-1.5-1.5C-2.8,1.7-4,2.3-5,1.2c-0.2-0.2,0.1-0.8,0-0.9c-1.1-0.5-1.8-1.1-2.4-1.9
						C-8,0.1-6.5,0.8-5.7,1.8z"/>
					<path class="st0" d="M-1.5-0.4c-2-0.2-2,2.1-4,1.3C-4.3,0.3-5.4,0.3-4-1.7c0.4,0.4,0.8,1.2,1,1.1c2.7-0.7,4,2.4,6.7,2.4
						C3.5,2.1,3.3,2.4,3.1,2.7C2.8,2.2,0.5,1.1,0.3,1.2C-1.7,1.6,0.2-0.2-1.5-0.4z"/>
					<path class="st0" d="M-11.1-6.8c-0.2,2.3-1.5,1-2.4,2.1c0.5,0.2,1.1,0.4,1.6,0.5c-0.3-2.1,2.3-1.4,2.4-2.7
						C-9.4-7.8-11.1-7.1-11.1-6.8z"/>
					<path class="st0" d="M-13.4-3.3c-0.2-0.2-1,0.4-1.4,0.3c-2.3-0.8-2.2-1.7-2.6-3.7c-0.7,0.4-0.8,1.1-0.5,1.5
						c0.7,1,1.2,0.4,1.2,2.2c0,0.5,1.9,0,2.7,0.4c1.6,0.7,2.9,0.1,4.5,0.5c0.5,0.1,0.8-1,0.4-1.3C-10.5-4.3-10.7-0.9-13.4-3.3z"/>
					<path class="st0" d="M-27.4-1.4c-0.2-0.2-1,0.4-1.4,0.3c-2.3-0.8-2.2-1.7-2.6-3.7c-0.7,0.4-0.8,1.1-0.5,1.5
						c0.7,1,1.2,0.4,1.2,2.2c0,0.5,1.9,0,2.7,0.4c1.6,0.7,2.9,0.1,4.5,0.5c0.5,0.1,0.8-1,0.4-1.3C-24.5-2.4-24.7,1-27.4-1.4z"/>
					<path class="st0" d="M13.3,13c-0.1,0.5,0.9,0.4,1.5,0.2c-0.6-1.5,2-2.6,0.8-3.8c-0.4-0.5-1.5-0.2-2.1-0.8
						C13.1,10.4,13.6,11.2,13.3,13z"/>
					<path class="st0" d="M-5.3-11.4c-0.6-1.7-1.6,0.1-2.4-0.2C-7-9.5-6-12.6-5.3-11.4z"/>
					<path class="st0" d="M-34.2,1.9c0.2-0.5,0.4-1.1,0.5-1.6c0.5,0.2,1.3,0.3,1.4,0.6c0.8,2.2,3.3,2.9,5.2,3.8c0.4-1,1.3-1.2,2.1-1
						c1.9,0.6,5.3,1.2,6.9,2.6c-0.5,0.3-1.1,0.9-1.3,0.8c-2.9-1.6-8.3-3.2-11.4-1.3c-0.1,0.1-0.6-0.3-0.7-0.6
						c-0.4-0.8,0.4-1.6,0.2-2.2C-31.6,1.9-33.1,2-34.2,1.9z"/>
					<path class="st0" d="M-5.5-2.5c-0.3-0.4-1-0.6-1-1.3C-4.3-3-2.5-1.2,0.3-1.7c-0.2,1.1-1.2,1-2,1.3C-2.1-2.5-4.5-0.9-5.5-2.5z"
						/>
					<path class="st0" d="M-2.3-8.9c-0.5,0.3-1,0.4-1.6,0.6c1.5-0.3,1.5,1.5,3.8,0.8c0.5-0.2,1.3,0.9,1,1.9c0.4,0,0.7,0,1.1,0
						C0.4-6.7-0.2-8.4-1.2-9.9C-1.5-9.5-1.8-9.1-2.3-8.9z"/>
					<path class="st0" d="M9.6-17.6c-0.4-0.4-1-0.4-1.5-0.6c0,0.4-0.1,0.9,0,1c1.1,0.4,1.9,0.9,2.6,1.7
						C10.4-16.2,10.1-17.1,9.6-17.6z"/>
					<path class="st0" d="M12.9-12.8c-1.1,0.7-0.4,1.6,0.1,2c0.4,0.4,1.4,0.2,1.4-0.4c0-0.7-1.2-1.2,0.7-2.7
						C14.3-13.5,13.6-13.2,12.9-12.8z"/>
					<path class="st0" d="M15.4-16c-1.1-0.1-2.8-1.4-2.8,0C12.6-14.6,14.3-15.8,15.4-16z"/>
					<path class="st0" d="M17.3-24.9c-1.2,1,0.2,1.1,0.5,1.6C17.6-23.8,17.4-24.4,17.3-24.9z"/>
					<path class="st0" d="M-24.9-9.9c2-0.3,5.1,1.9,7,1.1c-1.9,0.3-4.6-2.3-6.4-2.3L-24.9-9.9z"/>
					<path class="st0" d="M34.3-5.9c3,2.5,3.9,4.6,5.7,0.7c-0.3-1.6-1.4,1.1-2.1,0.9c-0.3-0.1,0.4-1.9,0.1-2.1
						c-0.4-0.2-1.8,1.2-2.2,1.1c-0.8-0.2-0.9-1.2-1.1-2C34.5-6.8,34.1-6,34.3-5.9z"/>
					<path class="st0" d="M6.8-14c-0.8,1-1.5,0.3-2.1-0.1c-0.2-0.1,0-0.8-0.1-0.9c-1.6-0.6-2.1,1.3-3.1,2c0.4-0.4,0.7-1,1-0.9
						c1.6,0.3,4.5,0.5,4.3,3c-0.2-1.6,1.9-2.5,1.1-4.2C7.5-14.7,7.1-14.4,6.8-14z"/>
					<path class="st0" d="M1.8,3.7C1,4.7,0.3,4-0.3,3.6c-0.2-0.1,0-0.8-0.1-0.9C-2,2.1-2.4,4-3.5,4.7c0.4-0.4,0.7-1,1-0.9
						c1.6,0.3,4.5,0.5,4.3,3C1.6,5.3,3.7,4.3,2.9,2.6C2.5,3,2.1,3.3,1.8,3.7z"/>
					<path class="st0" d="M-6.4,2.6C-5,3.2-4.1,2.2-3.2,1.5C-4.5,1.3-5.4,2-6.4,2.6z"/>
					<path class="st0" d="M-13.5,13.4c-0.1,0.1,0,0.6,0,1c0.9-0.3,2.4,0.6,2.4-0.5C-11.1,12.8-13.2,12.6-13.5,13.4z"/>
					<path class="st0" d="M-37.8,6.3c1.1,0.4,1.5-0.5,2.1-1.1C-36.8,4.9-37.3,5.6-37.8,6.3z"/>
					<path class="st0" d="M-5.3-8.7c-0.7,0-0.7-0.1-1,0c-0.8,0.4-0.9,1.3-1.1,2.1C-6-8.8-3.8-8-2.6-6.1C-2.4-6.6-2-7.4-2.2-7.5
						C-2.9-8.2-4.2-8.4-5.3-8.7z"/>
					<path class="st0" d="M32.7-2.5c-0.7,0-0.7-0.1-1,0c-0.8,0.4-0.9,1.3-1.1,2.1c1.4-2.2,3.6-1.5,4.8,0.5c1.7-2,0.6-1.3,0.4-1.5
						C35.1-2,33.8-2.2,32.7-2.5z"/>
					<path class="st0" d="M25.2,6.6c-0.7,0-0.7-0.1-1,0c-0.8,0.4-0.9,1.3-1.1,2.1c1.4-2.2,3.6-1.5,4.8,0.5c0.2-0.5,0.6-1.3,0.4-1.5
						C27.6,7,26.3,6.9,25.2,6.6z"/>
					<path class="st0" d="M-11.8,1.6c0.7,0.5,0.9,1.3,1.1,2.1c0.7-0.4,0.8-1.1,0.4-1.5C-10.7,1.8-11.3,1.8-11.8,1.6z"/>
					<path class="st0" d="M-28.3-9.2c0.7,0.5,0.9,1.3,1.1,2.1c0.7-0.4,0.8-1.1,0.4-1.5C-27.2-9-27.8-9.1-28.3-9.2z"/>
					<path class="st0" d="M-23.8,10.6c1.4,0.7,2.2-0.3,3.2-1.1C-21.8,9.4-22.8,10.1-23.8,10.6z"/>
					<path class="st0" d="M-34.7-3.6c-1.1,1.4,1,1.3,1.1,2.1C-32.2-3.1-35.4-2.4-34.7-3.6z"/>
					<path class="st0" d="M28.3-12.2c-0.7-0.5-2,0.5-2.4,0.2c-1.5-1.2-2.2-0.9-3.9-1.4c0,0.4-0.1,0.8,0.1,1c0.7,0.7,2.2,0.1,2.9,0.4
						c2.4,1.1,4.9,3.9,6,4.2c0.1-0.2,1.8-0.1,2.4-0.1L28.3-12.2z"/>
					<path class="st0" d="M-31.7-6.4c0.9,0.2,1.7,0.4,2.2,0.5c0-0.7-0.7-1.1-1-1.4L-31.7-6.4z"/>
					<path class="st0" d="M10.7,23.8c2-0.3,5.1,1.9,7,1.1c-1.9,0.3-4.6-2.3-6.4-2.3c-3.4-0.1-6.6,1.2-10,0.3c-1.2-0.4-1.4-2.4-3.2-2
						c1.5,1.9,3.4,3.7,5.8,3.5C6.3,24,8.3,24.2,10.7,23.8z"/>
					<path class="st0" d="M-22.8,1c0.2,0.5,0.2,0.8,0.6,1.2C-23.1,2.8-24.1,3.4-25,4c0.1,1.4,1.8,0.2,3.2-0.3
						c3.2-1.1,4.9-2.2,2.9-0.9C-19.8,2.1-21.6,1.7-22.8,1z"/>
					<path class="st0" d="M-10.3-0.1c2.1,0.8,3.4,1,3.1,0.3l-2.4-1.3L-10.3-0.1z"/>
					<path class="st0" d="M32.5,4.1c-0.1-0.3,0.6-0.5,1-0.4c-0.3,1.2,1.6,1.5,0.8,2.5c-0.3,0.4-1.1,0.4-1.5,1
						C32.6,6,32.9,5.4,32.5,4.1z"/>
					<path class="st0" d="M8.2,11.1c1.4,0.7,2.2-0.3,3.2-1.1C10.1,9.8,9.2,10.5,8.2,11.1z"/>
					<path class="st0" d="M9.1-9.6c1.1,0.4,1.5-0.5,2.1-1.1C10.2-11,9.7-10.4,9.1-9.6z"/>
					<path class="st0" d="M16,11.5c0.7,0.5,0.9,1.3,1.1,2.1c0.7-0.4,0.8-1.1,0.4-1.5C17.1,11.7,16.5,11.6,16,11.5z"/>
					<path class="st0" d="M3.6,3.6c1.2-1.2-0.7-0.9-0.8-1.5C3.1,2.6,3.4,3.1,3.6,3.6z"/>
					<path class="st0" d="M22-10.1C22.7-9.6,22.8-8.8,23-8c0.7-0.4,0.8-1.1,0.5-1.5C23.1-9.9,22.5-10,22-10.1z"/>
					<path class="st0" d="M27.3,0.7c0.6,0.7,1.4,0.7,2.2,0.7c-0.3,0.7-1,1-1.4,0.7C27.7,1.8,27.6,1.2,27.3,0.7z"/>
					<path class="st0" d="M20.4,3.5c-1.2,1,0.2,1.1,0.5,1.6C20.8,4.6,20.6,4,20.4,3.5z"/>
					<path class="st0" d="M-14.5-15.1c1.1-0.7,1.6,0.3,1.9,0.9c0.1,0.2-0.3,0.8-0.3,0.8c1.2,1.2,2.4-0.4,3.7-0.6
						c-0.5,0.2-1.1,0.6-1.3,0.4c-1.4-0.9-4-2.3-2.7-4.5c-0.4,1.5-2.8,1.5-2.7,3.5C-15.4-14.7-15-14.8-14.5-15.1z"/>
					<path class="st0" d="M-14.5,4.5c1.1-0.7,1.6,0.3,1.9,0.9c0.1,0.2-0.3,0.8-0.3,0.8c1.2,1.2,2.4-0.4,3.7-0.6
						c-0.5,0.2-1.1,0.6-1.3,0.4c-1.4-0.9-4-2.3-2.7-4.5c-0.4,1.5-2.8,1.5-2.7,3.5C-15.4,4.9-15,4.8-14.5,4.5z"/>
					<path class="st0" d="M-5.7,8.7c-1.2,1,0.2,1.1,0.5,1.6C-5.3,9.7-5.5,9.2-5.7,8.7z"/>
					<path class="st0" d="M-1.2,12c1.1,0.4,1.5-0.5,2.1-1.1C-0.1,10.6-0.7,11.2-1.2,12z"/>
					<path class="st0" d="M5.9-9.4C4.6-8.4,6-8.2,6.4-7.8C6.2-8.3,6-8.8,5.9-9.4z"/>
					<path class="st0" d="M-7.6-14.4c0.5,0.3,0.5,0.9,0.6,1.5c0.5-0.3,0.7-0.9,0.4-1.2C-6.8-14.3-7.2-14.3-7.6-14.4z"/>
					<path class="st0" d="M-11.6-11.8c-3.4-2.7-0.4,0.4-0.6,0.6c0.7-0.3,1.4-1.1,2.1,0C-10.6-11.4-11.2-11.4-11.6-11.8z"/>
					<path class="st0" d="M-16.5,2.9c2.3-1.2,1.2,0.8,3.6-0.9c0.4-1.3-0.8-2.4-1.9-3.3c-0.3-0.2-1.4-0.4-1.8-0.7
						c0.3,0.5,0.6,1,0.8,1.4c0.3,0.5,1.2,1.4,1.2,1.5C-15.1,2.4-16.5,2.9-16.5,2.9z"/>
					<path class="st0" d="M-22.3-2.7c-0.7-1.1,0.4-1.6,1.1-1.7c0.5-0.1,1.3,0.5,1,1.1c-0.4,0.6-1.6,0.5-0.7,2.6
						C-21.5-1.4-21.9-2-22.3-2.7z"/>
				</g>
				<path class="st0" d="M-31.8,12.8c-0.5-0.3-0.1-1.7,0.5-2.4c0.7-0.7,1.8-0.8,3.1-0.1c-0.7-0.5-1.2-1.5-0.9-2.1
					c0.6-1.4,2.7,0.8,3.4-0.7c0.2-0.4-0.1-1.2-0.5-1.4c-0.4-0.2-1.1,0.1-1.5,0.5c-0.2,0.2,0,0.9-0.1,0.9c-1.6,0.6-2.9,2.2-4.7,1.6
					c-0.4-0.1-0.7-0.6-1.1-1c-0.5,0.6-1.7,1.3-0.9,2c0.7,0.6,2.1,0.7,2.4,1.8"/>
			</g>
		</g>
	</g>
</symbol>
<g id="Layer_2">
</g>
<g id="Layer_1">
	<line class="st1" x1="65.9" y1="138.5" x2="65.9" y2="146.3"/>
	<line class="st1" x1="65.6" y1="138.3" x2="65.6" y2="146.4"/>
	<polygon class="st2" points="17.2,129.2 17.3,120.7 61.6,142.3 61.4,150.9 	"/>
	<polygon class="st3" points="17.2,129.2 17.3,120.7 61.3,142.9 61.3,151.3 	"/>
	<line class="st4" x1="61.1" y1="157.5" x2="61.1" y2="165.9"/>
	<g>
		<path class="st5" d="M58.5,90.2l-8.3,4.1l7.3,3.7l8.2-4.2L58.5,90.2z M58.3,94.5c-0.6,0-1-0.3-1-0.7s0.5-0.7,1-0.7s1,0.3,1,0.7
			S58.9,94.5,58.3,94.5z"/>
		<path class="st5" d="M58.5,89.4l-8.3,4.1l7.3,3.7l8.2-4.2L58.5,89.4z M58.3,93.7c-0.6,0-1-0.3-1-0.7s0.5-0.7,1-0.7s1,0.3,1,0.7
			S58.9,93.7,58.3,93.7z"/>
		<polygon class="st5" points="50.3,93.5 50.3,94.3 57.5,98 57.5,97.2 		"/>
		<polygon class="st5" points="57.5,97.2 65.8,93 65.8,93.8 57.5,98 		"/>
	</g>
	<polygon class="st2" points="60.9,123.4 33.4,109 33.4,121.7 60.8,135.6 	"/>
	<g>
		<polygon class="st6" points="29.5,97.1 29.2,121 38.5,116.4 38.5,92.7 		"/>
		<path class="st2" d="M37.9,100.8l-9.1-4.9l0.1,25l8.9,4.3C37.9,125.3,37.9,100.3,37.9,100.8z"/>
		<polygon class="st5" points="39.1,100 37.8,100.8 37.8,125.3 39,124.6 		"/>
		<polygon class="st6" points="37.5,92.1 28.9,96.3 37.8,100.8 39,100 31.4,96.2 38.7,92.6 		"/>
	</g>
	<g>
		<path class="st7" d="M48.4,16.3c-2.8-1.4-1.9-8.4-4.3-8.9c-1.7-0.4-24,3.6-27.4,4.7c-3.4,1.1-5,1.6-5.9,3.3c-1,2-2,7.1-3.9,10
			s-2.2,5.8-4.8,9.5c-3.2,3.7,6.9,20.1,9.3,21.2c2.4,1.1,11,4.7,28.5,1.3c17.6-3.2,25-13.1,25-13.1c2.6-2.3,3.1-16,3-19.6
			c-0.1-3.5-3.4-5.2-6.6-6.6c-1.5-0.6-3-1.9-6.8-2C50.4,16.3,49.9,17.1,48.4,16.3z"/>
		<path class="st7" d="M66.7,21.9c1,2.1,1,5.4-1.3,8.3c-2.3,3-9.6,8.7-17.8,11.5c-8.1,2.9-11.5,3.3-16.3,4
			c-4.8,0.8-9.9,1.4-16.8,0.3c-6.9-1-12.7-3.4-13.9-8.2c0-2,0.3-3.5,1.8-5.4c3.2-3.9,2.7-3.1,5.2-6s3.3-8.2,5.2-10.8S43,9,43,9
			s1.4-0.3,2,0.6c0.6,0.9,1.1,6.7,4.3,7c1.8,0.1,4.6-0.2,8.6,0.2C62.3,17.2,65.6,19.7,66.7,21.9z"/>
		
			<linearGradient id="SVGID_1_" gradientUnits="userSpaceOnUse" x1="-153.2992" y1="-1948.8987" x2="-90.8436" y2="-1948.8987" gradientTransform="matrix(0.9946 -0.1024 -9.805299e-02 -0.9822 -35.5829 -1893.5634)">
			<stop  offset="0" style="stop-color:#E4DAD8"/>
			<stop  offset="1" style="stop-color:#CCB9B9"/>
		</linearGradient>
		<path class="st8" d="M64.7,25.5c1.2,5.8-10.7,13.8-27.7,17.6S4.8,44.9,3.5,39.2S15.2,27.4,32,23.6S63.4,20,64.7,25.5z"/>
	</g>
	<rect x="45.6" y="93.1" class="st9" width="13" height="8.1"/>
	<rect x="42.8" y="97" class="st9" width="13" height="8.1"/>
	<rect x="51.6" y="100.1" class="st9" width="13" height="8.1"/>
	<rect x="47.2" y="101.3" class="st9" width="13" height="8.1"/>
	<rect x="49.9" y="112.7" class="st9" width="13" height="8.1"/>
	<rect x="49.2" y="117" class="st9" width="13" height="8.1"/>
	<rect x="41.9" y="114.2" class="st9" width="13" height="8.1"/>
	<rect x="42.1" y="108.5" class="st9" width="13" height="8.1"/>
	<rect x="35.8" y="98.8" class="st9" width="13" height="8.1"/>
	<rect x="52.1" y="93.5" class="st9" width="13" height="8.1"/>
	<rect x="48.3" y="107.3" class="st9" width="13" height="8.1"/>
	<rect x="35.5" y="103.9" class="st9" width="13" height="8.1"/>
	<rect x="37.3" y="110.3" class="st9" width="13" height="8.1"/>
	<rect x="36.8" y="87.3" class="st9" width="13" height="8.1"/>
	<rect x="34" y="91.1" class="st9" width="13" height="8.1"/>
	<rect x="42.8" y="94.2" class="st9" width="13" height="8.1"/>
	<rect x="38.4" y="95.4" class="st9" width="13" height="8.1"/>
	<rect x="41.1" y="106.8" class="st9" width="13" height="8.1"/>
	<rect x="40.4" y="111.2" class="st9" width="13" height="8.1"/>
	<rect x="33.1" y="108.3" class="st9" width="13" height="8.1"/>
	<rect x="33.3" y="102.6" class="st9" width="13" height="8.1"/>
	<rect x="27" y="93" class="st9" width="13" height="8.1"/>
	<rect x="47.3" y="89.8" class="st9" width="13" height="8.1"/>
	<rect x="43.3" y="87.7" class="st9" width="13" height="8.1"/>
	<rect x="39.5" y="101.5" class="st9" width="13" height="8.1"/>
	<rect x="26.7" y="98" class="st9" width="13" height="8.1"/>
	<rect x="28.5" y="104.4" class="st9" width="13" height="8.1"/>
	<rect x="47.8" y="110.1" class="st9" width="13" height="8.1"/>
	<rect x="50.2" y="97" class="st9" width="13" height="8.1"/>
	<rect x="50.9" y="107.2" class="st9" width="13" height="8.1"/>
	<rect x="51.4" y="101.4" class="st9" width="13" height="8.1"/>
	<rect x="46.5" y="102.6" class="st9" width="13" height="8.1"/>
	<g>
		<line class="st2" x1="62.4" y1="138.1" x2="62.4" y2="146"/>
		<line class="st2" x1="62.2" y1="138" x2="62.1" y2="146.1"/>
		<polygon class="st2" points="13.7,128.1 58,150.6 133.2,112.8 133.3,104 91.5,84.9 13.8,124.1 		"/>
		<polygon class="st2" points="13.8,128.9 13.9,120.4 58.1,142 57.9,150.6 		"/>
		<polygon class="st2" points="4.4,131 4.4,138 58.3,165.2 149.1,119.4 149,112.2 58.2,157.4 		"/>
		<polygon class="st10" points="57.9,157.4 149.2,112.2 95.2,86 4.6,130.4 		"/>
		<polygon class="st2" points="13.7,128.1 57.9,151 134.7,111.9 134.9,103.2 91.5,84.9 13.8,124.1 		"/>
		<polygon class="st3" points="13.8,128.9 13.9,120.4 57.9,142.5 57.8,151 		"/>
		<polygon class="st3" points="4.7,130.4 4.7,138.9 57.9,165.6 149.4,119.2 149.3,112 57.9,157.4 		"/>
		<path class="st11" d="M14,120.3c0,0,43.8,22.2,43.8,22.2l77.4-39.6L90.8,81.5L14,120.3z"/>
		<line class="st3" x1="57.6" y1="157.2" x2="57.6" y2="165.6"/>
		<g>
			<path class="st5" d="M86.4,41.4l0.1-8l-7.3-3.7l0,8.2L86.4,41.4z M83.2,36.5c-0.3,0.2-0.9,0.1-1.2-0.4c-0.3-0.5-0.3-1,0-1.3
				c0.3-0.2,0.9-0.1,1.2,0.4C83.6,35.7,83.6,36.2,83.2,36.5z"/>
			<path class="st5" d="M85.7,42l0.1-8l-7.3-3.7l0,8.2L85.7,42z M82.5,37c-0.3,0.2-0.9,0.1-1.2-0.4c-0.3-0.5-0.3-1,0-1.3
				c0.3-0.2,0.9-0.1,1.2,0.4S82.8,36.8,82.5,37z"/>
			<polygon class="st5" points="78.5,30.3 79.2,29.7 86.5,33.4 86.4,41.4 85.7,42 85.8,34 			"/>
		</g>
		<polygon class="st2" points="125.3,15 125.3,71.1 114,76.7 113.7,20.8 		"/>
		<g>
			<polygon class="st12" points="86.7,60.8 112.9,75.3 112.3,20.3 87,8.7 			"/>
			<g>
				<defs>
					<polygon id="SVGID_2_" points="86.7,60.8 112.9,75.3 112.3,20.3 87,8.7 					"/>
				</defs>
				<clipPath id="SVGID_3_">
					<use xlink:href="#SVGID_2_"  style="overflow:visible;"/>
				</clipPath>
				<g class="st13">
					
						<use xlink:href="#Mezzotint"  width="80.1" height="50" x="-40.1" y="-24.9" transform="matrix(0.162 0 0 -0.162 101.7669 31.818)" style="overflow:visible;"/>
					
						<use xlink:href="#Mezzotint"  width="80.1" height="50" x="-40.1" y="-24.9" transform="matrix(0.162 0 0 -0.162 98.9134 35.6798)" style="overflow:visible;"/>
					
						<use xlink:href="#Mezzotint"  width="80.1" height="50" x="-40.1" y="-24.9" transform="matrix(0.162 0 0 -0.162 107.7833 38.7812)" style="overflow:visible;"/>
					
						<use xlink:href="#Mezzotint"  width="80.1" height="50" x="-40.1" y="-24.9" transform="matrix(0.162 0 0 -0.162 103.3847 39.9688)" style="overflow:visible;"/>
					
						<use xlink:href="#Mezzotint"  width="80.1" height="50" x="-40.1" y="-24.9" transform="matrix(0.162 0 0 -0.162 106.0233 51.3343)" style="overflow:visible;"/>
					
						<use xlink:href="#Mezzotint"  width="80.1" height="50" x="-40.1" y="-24.9" transform="matrix(0.162 0 0 -0.162 105.3219 55.7294)" style="overflow:visible;"/>
					
						<use xlink:href="#Mezzotint"  width="80.1" height="50" x="-40.1" y="-24.9" transform="matrix(0.162 0 0 -0.162 98.0326 52.8382)" style="overflow:visible;"/>
					
						<use xlink:href="#Mezzotint"  width="80.1" height="50" x="-40.1" y="-24.9" transform="matrix(0.162 0 0 -0.162 98.2274 47.1583)" style="overflow:visible;"/>
					
						<use xlink:href="#Mezzotint"  width="80.1" height="50" x="-40.1" y="-24.9" transform="matrix(0.162 0 0 -0.162 91.9677 37.5061)" style="overflow:visible;"/>
					
						<use xlink:href="#Mezzotint"  width="80.1" height="50" x="-40.1" y="-24.9" transform="matrix(0.162 0 0 -0.162 112.2841 34.3257)" style="overflow:visible;"/>
					
						<use xlink:href="#Mezzotint"  width="80.1" height="50" x="-40.1" y="-24.9" transform="matrix(0.162 0 0 -0.162 108.2204 32.2201)" style="overflow:visible;"/>
					
						<use xlink:href="#Mezzotint"  width="80.1" height="50" x="-40.1" y="-24.9" transform="matrix(0.162 0 0 -0.162 104.4233 46.0091)" style="overflow:visible;"/>
					
						<use xlink:href="#Mezzotint"  width="80.1" height="50" x="-40.1" y="-24.9" transform="matrix(0.162 0 0 -0.162 121.1896 40.9015)" style="overflow:visible;"/>
					
						<use xlink:href="#Mezzotint"  width="80.1" height="50" x="-40.1" y="-24.9" transform="matrix(0.162 0 0 -0.162 91.6856 42.5801)" style="overflow:visible;"/>
					
						<use xlink:href="#Mezzotint"  width="80.1" height="50" x="-40.1" y="-24.9" transform="matrix(0.162 0 0 -0.162 93.4646 48.9741)" style="overflow:visible;"/>
					
						<use xlink:href="#Mezzotint"  width="80.1" height="50" x="-40.1" y="-24.9" transform="matrix(0.162 0 0 -0.162 112.7357 54.6684)" style="overflow:visible;"/>
					
						<use xlink:href="#Mezzotint"  width="80.1" height="50" x="-40.1" y="-24.9" transform="matrix(0.162 0 0 -0.162 119.9909 49.1641)" style="overflow:visible;"/>
					
						<use xlink:href="#Mezzotint"  width="80.1" height="50" x="-40.1" y="-24.9" transform="matrix(0.162 0 0 -0.162 115.1708 41.5645)" style="overflow:visible;"/>
					
						<use xlink:href="#Mezzotint"  width="80.1" height="50" x="-40.1" y="-24.9" transform="matrix(0.162 0 0 -0.162 115.8854 51.7471)" style="overflow:visible;"/>
					
						<use xlink:href="#Mezzotint"  width="80.1" height="50" x="-40.1" y="-24.9" transform="matrix(0.162 0 0 -0.162 116.3176 45.9225)" style="overflow:visible;"/>
					
						<use xlink:href="#Mezzotint"  width="80.1" height="50" x="-40.1" y="-24.9" transform="matrix(0.162 0 0 -0.162 111.4502 47.1128)" style="overflow:visible;"/>
				</g>
				<g class="st13">
					
						<use xlink:href="#Mezzotint"  width="80.1" height="50" x="-40.1" y="-24.9" transform="matrix(0.1199 0.1091 0.1091 -0.1199 107.1847 46.2991)" style="overflow:visible;"/>
					
						<use xlink:href="#Mezzotint"  width="80.1" height="50" x="-40.1" y="-24.9" transform="matrix(0.1199 0.1091 0.1091 -0.1199 102.4751 47.2351)" style="overflow:visible;"/>
					
						<use xlink:href="#Mezzotint"  width="80.1" height="50" x="-40.1" y="-24.9" transform="matrix(0.1199 0.1091 0.1091 -0.1199 106.9486 55.4983)" style="overflow:visible;"/>
					
						<use xlink:href="#Mezzotint"  width="80.1" height="50" x="-40.1" y="-24.9" transform="matrix(0.1199 0.1091 0.1091 -0.1199 102.8959 53.4166)" style="overflow:visible;"/>
					
						<use xlink:href="#Mezzotint"  width="80.1" height="50" x="-40.1" y="-24.9" transform="matrix(0.1199 0.1091 0.1091 -0.1199 97.1987 63.5989)" style="overflow:visible;"/>
					
						<use xlink:href="#Mezzotint"  width="80.1" height="50" x="-40.1" y="-24.9" transform="matrix(0.1199 0.1091 0.1091 -0.1199 93.7221 66.3777)" style="overflow:visible;"/>
					
						<use xlink:href="#Mezzotint"  width="80.1" height="50" x="-40.1" y="-24.9" transform="matrix(0.1199 0.1091 0.1091 -0.1199 90.2763 59.3336)" style="overflow:visible;"/>
					
						<use xlink:href="#Mezzotint"  width="80.1" height="50" x="-40.1" y="-24.9" transform="matrix(0.1199 0.1091 0.1091 -0.1199 94.2428 55.2635)" style="overflow:visible;"/>
					
						<use xlink:href="#Mezzotint"  width="80.1" height="50" x="-40.1" y="-24.9" transform="matrix(0.1199 0.1091 0.1091 -0.1199 96.1086 43.9115)" style="overflow:visible;"/>
					
						<use xlink:href="#Mezzotint"  width="80.1" height="50" x="-40.1" y="-24.9" transform="matrix(0.1199 0.1091 0.1091 -0.1199 113.2761 55.2318)" style="overflow:visible;"/>
					
						<use xlink:href="#Mezzotint"  width="80.1" height="50" x="-40.1" y="-24.9" transform="matrix(0.1199 0.1091 0.1091 -0.1199 111.6874 50.9396)" style="overflow:visible;"/>
					
						<use xlink:href="#Mezzotint"  width="80.1" height="50" x="-40.1" y="-24.9" transform="matrix(0.1199 0.1091 0.1091 -0.1199 99.5991 58.5833)" style="overflow:visible;"/>
					
						<use xlink:href="#Mezzotint"  width="80.1" height="50" x="-40.1" y="-24.9" transform="matrix(0.1199 0.1091 0.1091 -0.1199 115.4377 66.0889)" style="overflow:visible;"/>
					
						<use xlink:href="#Mezzotint"  width="80.1" height="50" x="-40.1" y="-24.9" transform="matrix(0.1199 0.1091 0.1091 -0.1199 92.4853 47.4747)" style="overflow:visible;"/>
					
						<use xlink:href="#Mezzotint"  width="80.1" height="50" x="-40.1" y="-24.9" transform="matrix(0.1199 0.1091 0.1091 -0.1199 89.498 53.4014)" style="overflow:visible;"/>
					
						<use xlink:href="#Mezzotint"  width="80.1" height="50" x="-40.1" y="-24.9" transform="matrix(0.1199 0.1091 0.1091 -0.1199 99.9198 70.5823)" style="overflow:visible;"/>
					
						<use xlink:href="#Mezzotint"  width="80.1" height="50" x="-40.1" y="-24.9" transform="matrix(0.1199 0.1091 0.1091 -0.1199 108.9905 71.3937)" style="overflow:visible;"/>
					
						<use xlink:href="#Mezzotint"  width="80.1" height="50" x="-40.1" y="-24.9" transform="matrix(0.1199 0.1091 0.1091 -0.1199 110.5396 62.5287)" style="overflow:visible;"/>
					
						<use xlink:href="#Mezzotint"  width="80.1" height="50" x="-40.1" y="-24.9" transform="matrix(0.1199 0.1091 0.1091 -0.1199 104.2155 70.5413)" style="overflow:visible;"/>
					
						<use xlink:href="#Mezzotint"  width="80.1" height="50" x="-40.1" y="-24.9" transform="matrix(0.1199 0.1091 0.1091 -0.1199 108.4551 66.524)" style="overflow:visible;"/>
					
						<use xlink:href="#Mezzotint"  width="80.1" height="50" x="-40.1" y="-24.9" transform="matrix(0.1199 0.1091 0.1091 -0.1199 104.0537 64.1286)" style="overflow:visible;"/>
				</g>
				<g class="st13">
					
						<use xlink:href="#Mezzotint"  width="80.1" height="50" x="-40.1" y="-24.9" transform="matrix(0.162 0 0 -0.162 95.4046 23.6872)" style="overflow:visible;"/>
					
						<use xlink:href="#Mezzotint"  width="80.1" height="50" x="-40.1" y="-24.9" transform="matrix(0.162 0 0 -0.162 92.5511 27.549)" style="overflow:visible;"/>
					
						<use xlink:href="#Mezzotint"  width="80.1" height="50" x="-40.1" y="-24.9" transform="matrix(0.162 0 0 -0.162 101.421 30.6503)" style="overflow:visible;"/>
					
						<use xlink:href="#Mezzotint"  width="80.1" height="50" x="-40.1" y="-24.9" transform="matrix(0.162 0 0 -0.162 97.0224 31.8379)" style="overflow:visible;"/>
					
						<use xlink:href="#Mezzotint"  width="80.1" height="50" x="-40.1" y="-24.9" transform="matrix(0.162 0 0 -0.162 99.661 43.2035)" style="overflow:visible;"/>
					
						<use xlink:href="#Mezzotint"  width="80.1" height="50" x="-40.1" y="-24.9" transform="matrix(0.162 0 0 -0.162 98.9596 47.5986)" style="overflow:visible;"/>
					
						<use xlink:href="#Mezzotint"  width="80.1" height="50" x="-40.1" y="-24.9" transform="matrix(0.162 0 0 -0.162 91.6703 44.7073)" style="overflow:visible;"/>
					
						<use xlink:href="#Mezzotint"  width="80.1" height="50" x="-40.1" y="-24.9" transform="matrix(0.162 0 0 -0.162 91.8651 39.0275)" style="overflow:visible;"/>
					
						<use xlink:href="#Mezzotint"  width="80.1" height="50" x="-40.1" y="-24.9" transform="matrix(0.162 0 0 -0.162 85.6054 29.3753)" style="overflow:visible;"/>
					
						<use xlink:href="#Mezzotint"  width="80.1" height="50" x="-40.1" y="-24.9" transform="matrix(0.162 0 0 -0.162 105.9218 26.1949)" style="overflow:visible;"/>
					
						<use xlink:href="#Mezzotint"  width="80.1" height="50" x="-40.1" y="-24.9" transform="matrix(0.162 0 0 -0.162 101.8581 24.0893)" style="overflow:visible;"/>
					
						<use xlink:href="#Mezzotint"  width="80.1" height="50" x="-40.1" y="-24.9" transform="matrix(0.162 0 0 -0.162 98.061 37.8783)" style="overflow:visible;"/>
					
						<use xlink:href="#Mezzotint"  width="80.1" height="50" x="-40.1" y="-24.9" transform="matrix(0.162 0 0 -0.162 114.8272 32.7706)" style="overflow:visible;"/>
					
						<use xlink:href="#Mezzotint"  width="80.1" height="50" x="-40.1" y="-24.9" transform="matrix(0.162 0 0 -0.162 85.3233 34.4492)" style="overflow:visible;"/>
					
						<use xlink:href="#Mezzotint"  width="80.1" height="50" x="-40.1" y="-24.9" transform="matrix(0.162 0 0 -0.162 87.1023 40.8433)" style="overflow:visible;"/>
					
						<use xlink:href="#Mezzotint"  width="80.1" height="50" x="-40.1" y="-24.9" transform="matrix(0.162 0 0 -0.162 106.3734 46.5376)" style="overflow:visible;"/>
					
						<use xlink:href="#Mezzotint"  width="80.1" height="50" x="-40.1" y="-24.9" transform="matrix(0.162 0 0 -0.162 113.6286 41.0332)" style="overflow:visible;"/>
					
						<use xlink:href="#Mezzotint"  width="80.1" height="50" x="-40.1" y="-24.9" transform="matrix(0.162 0 0 -0.162 108.8085 33.4337)" style="overflow:visible;"/>
					
						<use xlink:href="#Mezzotint"  width="80.1" height="50" x="-40.1" y="-24.9" transform="matrix(0.162 0 0 -0.162 109.5231 43.6163)" style="overflow:visible;"/>
					
						<use xlink:href="#Mezzotint"  width="80.1" height="50" x="-40.1" y="-24.9" transform="matrix(0.162 0 0 -0.162 109.9553 37.7916)" style="overflow:visible;"/>
					
						<use xlink:href="#Mezzotint"  width="80.1" height="50" x="-40.1" y="-24.9" transform="matrix(0.162 0 0 -0.162 105.0879 38.982)" style="overflow:visible;"/>
				</g>
				<g class="st13">
					
						<use xlink:href="#Mezzotint"  width="80.1" height="50" x="-40.1" y="-24.9" transform="matrix(0.162 0 0 -0.162 94.5906 9.7787)" style="overflow:visible;"/>
					
						<use xlink:href="#Mezzotint"  width="80.1" height="50" x="-40.1" y="-24.9" transform="matrix(0.162 0 0 -0.162 91.737 13.6405)" style="overflow:visible;"/>
					
						<use xlink:href="#Mezzotint"  width="80.1" height="50" x="-40.1" y="-24.9" transform="matrix(0.162 0 0 -0.162 100.6069 16.7418)" style="overflow:visible;"/>
					
						<use xlink:href="#Mezzotint"  width="80.1" height="50" x="-40.1" y="-24.9" transform="matrix(0.162 0 0 -0.162 96.2083 17.9295)" style="overflow:visible;"/>
					
						<use xlink:href="#Mezzotint"  width="80.1" height="50" x="-40.1" y="-24.9" transform="matrix(0.162 0 0 -0.162 98.847 29.295)" style="overflow:visible;"/>
					
						<use xlink:href="#Mezzotint"  width="80.1" height="50" x="-40.1" y="-24.9" transform="matrix(0.162 0 0 -0.162 98.1456 33.6901)" style="overflow:visible;"/>
					
						<use xlink:href="#Mezzotint"  width="80.1" height="50" x="-40.1" y="-24.9" transform="matrix(0.162 0 0 -0.162 90.8563 30.7988)" style="overflow:visible;"/>
					
						<use xlink:href="#Mezzotint"  width="80.1" height="50" x="-40.1" y="-24.9" transform="matrix(0.162 0 0 -0.162 91.051 25.119)" style="overflow:visible;"/>
					
						<use xlink:href="#Mezzotint"  width="80.1" height="50" x="-40.1" y="-24.9" transform="matrix(0.162 0 0 -0.162 84.7913 15.4668)" style="overflow:visible;"/>
					
						<use xlink:href="#Mezzotint"  width="80.1" height="50" x="-40.1" y="-24.9" transform="matrix(0.162 0 0 -0.162 105.1077 12.2864)" style="overflow:visible;"/>
					
						<use xlink:href="#Mezzotint"  width="80.1" height="50" x="-40.1" y="-24.9" transform="matrix(0.162 0 0 -0.162 101.044 10.1808)" style="overflow:visible;"/>
					
						<use xlink:href="#Mezzotint"  width="80.1" height="50" x="-40.1" y="-24.9" transform="matrix(0.162 0 0 -0.162 97.247 23.9698)" style="overflow:visible;"/>
					
						<use xlink:href="#Mezzotint"  width="80.1" height="50" x="-40.1" y="-24.9" transform="matrix(0.162 0 0 -0.162 114.0132 18.8622)" style="overflow:visible;"/>
					
						<use xlink:href="#Mezzotint"  width="80.1" height="50" x="-40.1" y="-24.9" transform="matrix(0.162 0 0 -0.162 84.5092 20.5407)" style="overflow:visible;"/>
					
						<use xlink:href="#Mezzotint"  width="80.1" height="50" x="-40.1" y="-24.9" transform="matrix(0.162 0 0 -0.162 86.2883 26.9348)" style="overflow:visible;"/>
					
						<use xlink:href="#Mezzotint"  width="80.1" height="50" x="-40.1" y="-24.9" transform="matrix(0.162 0 0 -0.162 105.5593 32.6291)" style="overflow:visible;"/>
					
						<use xlink:href="#Mezzotint"  width="80.1" height="50" x="-40.1" y="-24.9" transform="matrix(0.162 0 0 -0.162 112.8146 27.1247)" style="overflow:visible;"/>
					
						<use xlink:href="#Mezzotint"  width="80.1" height="50" x="-40.1" y="-24.9" transform="matrix(0.162 0 0 -0.162 107.9944 19.5252)" style="overflow:visible;"/>
					
						<use xlink:href="#Mezzotint"  width="80.1" height="50" x="-40.1" y="-24.9" transform="matrix(0.162 0 0 -0.162 108.7091 29.7078)" style="overflow:visible;"/>
					
						<use xlink:href="#Mezzotint"  width="80.1" height="50" x="-40.1" y="-24.9" transform="matrix(0.162 0 0 -0.162 109.1413 23.8831)" style="overflow:visible;"/>
					
						<use xlink:href="#Mezzotint"  width="80.1" height="50" x="-40.1" y="-24.9" transform="matrix(0.162 0 0 -0.162 104.2738 25.0735)" style="overflow:visible;"/>
				</g>
			</g>
		</g>
		<polygon class="st2" points="114,20.6 86.2,7 98.2,1.1 125.4,14.8 		"/>
		<path class="st6" d="M114.1,20.6L85.8,6.8l0,55.3l28,13.9L114.1,20.6z M87.3,61.3L87.3,9.2l25.2,12.2l0,52.2L87.3,61.3z"/>
		<g>
			<path class="st5" d="M121.9,57l0.1-8l-7.3-3.7l0,8.2L121.9,57z M118.8,52.1c-0.3,0.2-0.9,0.1-1.2-0.4c-0.3-0.5-0.3-1,0-1.3
				c0.3-0.2,0.9-0.1,1.2,0.4S119.1,51.8,118.8,52.1z"/>
			<path class="st5" d="M121.2,57.6l0.1-8l-7.3-3.7l0,8.2L121.2,57.6z M118.1,52.6c-0.3,0.2-0.9,0.1-1.2-0.4c-0.3-0.5-0.3-1,0-1.3
				c0.3-0.2,0.9-0.1,1.2,0.4C118.4,51.8,118.4,52.4,118.1,52.6z"/>
			<polygon class="st5" points="114,45.9 114.8,45.3 122,49 121.9,57 121.2,57.6 121.3,49.6 			"/>
		</g>
		<path class="st0" d="M94,27.5c-4.4,8.8,0.2,25.4,1.9,29.4s12.6,0.5,11.1-17.7C105.4,21,98.4,18.8,94,27.5z"/>
		<path class="st0" d="M95.8,31.9c-3,5.8,0.1,16.9,1.3,19.6c1.1,2.7,8.4,0.3,7.4-11.8S98.7,26,95.8,31.9z"/>
		<circle class="st5" cx="99.7" cy="40" r="1.4"/>
		<polygon class="st6" points="112.7,96.3 85.2,81.9 85.2,93.7 112.7,108.2 		"/>
		<g>
			<path class="st5" d="M55.1,89.9L46.8,94l7.3,3.7l8.2-4.2L55.1,89.9z M54.8,94.2c-0.6,0-1-0.3-1-0.7s0.5-0.7,1-0.7s1,0.3,1,0.7
				S55.4,94.2,54.8,94.2z"/>
			<path class="st5" d="M55.1,89.1l-8.3,4.1l7.3,3.7l8.2-4.2L55.1,89.1z M54.8,93.4c-0.6,0-1-0.3-1-0.7s0.5-0.7,1-0.7s1,0.3,1,0.7
				S55.4,93.4,54.8,93.4z"/>
			<polygon class="st5" points="46.8,93.2 46.8,94 54.1,97.6 54.1,96.9 			"/>
			<polygon class="st5" points="54.1,96.9 62.3,92.7 62.3,93.5 54.1,97.6 			"/>
		</g>
		<polygon class="st6" points="29.9,121 85.1,93.8 85.1,81 29.8,108.6 		"/>
		<polygon class="st2" points="57.4,135.4 112.7,107.8 112.8,95.3 57.5,122.4 		"/>
		<polygon class="st2" points="57.4,123.1 29.9,108.7 29.9,121.4 57.4,135.3 		"/>
		<g>
			<path class="st5" d="M89,107.7l-8.3,4.1l7.3,3.7l8.2-4.2L89,107.7z M88.8,112.1c-0.6,0-1-0.3-1-0.7s0.5-0.7,1-0.7s1,0.3,1,0.7
				S89.4,112.1,88.8,112.1z"/>
			<path class="st5" d="M89,106.9l-8.3,4.1l7.3,3.7l8.2-4.2L89,106.9z M88.8,111.3c-0.6,0-1-0.3-1-0.7s0.5-0.7,1-0.7s1,0.3,1,0.7
				S89.4,111.3,88.8,111.3z"/>
			<polygon class="st5" points="80.8,111 80.8,111.8 88.1,115.5 88.1,114.7 			"/>
			<polygon class="st5" points="88.1,114.7 96.3,110.5 96.3,111.3 88.1,115.5 			"/>
		</g>
		<path class="st6" d="M84.5,81l-55.2,28.1l28.2,13.9l55.3-27.8L84.5,81z M32.9,109.1l51.5-26.4l24.8,12.6l-51.9,26L32.9,109.1z"/>
		<g>
			<polygon class="st12" points="84.3,82.5 108.7,94.9 57.3,121 33.1,108.9 			"/>
			<g>
				<defs>
					<polygon id="SVGID_4_" points="84.3,82.5 108.7,94.9 57.3,121 33.1,108.9 					"/>
				</defs>
				<clipPath id="SVGID_5_">
					<use xlink:href="#SVGID_4_"  style="overflow:visible;"/>
				</clipPath>
				<g class="st14">
					
						<use xlink:href="#Mezzotint"  width="80.1" height="50" x="-40.1" y="-24.9" transform="matrix(0.162 0 0 -0.162 81.7032 84.6833)" style="overflow:visible;"/>
					
						<use xlink:href="#Mezzotint"  width="80.1" height="50" x="-40.1" y="-24.9" transform="matrix(0.162 0 0 -0.162 78.8496 88.5452)" style="overflow:visible;"/>
					
						<use xlink:href="#Mezzotint"  width="80.1" height="50" x="-40.1" y="-24.9" transform="matrix(0.162 0 0 -0.162 87.7195 91.6465)" style="overflow:visible;"/>
					
						<use xlink:href="#Mezzotint"  width="80.1" height="50" x="-40.1" y="-24.9" transform="matrix(0.162 0 0 -0.162 83.3209 92.8341)" style="overflow:visible;"/>
					
						<use xlink:href="#Mezzotint"  width="80.1" height="50" x="-40.1" y="-24.9" transform="matrix(0.162 0 0 -0.162 85.9596 104.1997)" style="overflow:visible;"/>
					
						<use xlink:href="#Mezzotint"  width="80.1" height="50" x="-40.1" y="-24.9" transform="matrix(0.162 0 0 -0.162 85.2581 108.5947)" style="overflow:visible;"/>
					
						<use xlink:href="#Mezzotint"  width="80.1" height="50" x="-40.1" y="-24.9" transform="matrix(0.162 0 0 -0.162 77.9688 105.7035)" style="overflow:visible;"/>
					
						<use xlink:href="#Mezzotint"  width="80.1" height="50" x="-40.1" y="-24.9" transform="matrix(0.162 0 0 -0.162 78.1636 100.0236)" style="overflow:visible;"/>
					
						<use xlink:href="#Mezzotint"  width="80.1" height="50" x="-40.1" y="-24.9" transform="matrix(0.162 0 0 -0.162 71.9039 90.3714)" style="overflow:visible;"/>
					
						<use xlink:href="#Mezzotint"  width="80.1" height="50" x="-40.1" y="-24.9" transform="matrix(0.162 0 0 -0.162 92.2203 87.191)" style="overflow:visible;"/>
					
						<use xlink:href="#Mezzotint"  width="80.1" height="50" x="-40.1" y="-24.9" transform="matrix(0.162 0 0 -0.162 88.1566 85.0854)" style="overflow:visible;"/>
					
						<use xlink:href="#Mezzotint"  width="80.1" height="50" x="-40.1" y="-24.9" transform="matrix(0.162 0 0 -0.162 84.3596 98.8744)" style="overflow:visible;"/>
					
						<use xlink:href="#Mezzotint"  width="80.1" height="50" x="-40.1" y="-24.9" transform="matrix(0.162 0 0 -0.162 101.1258 93.7668)" style="overflow:visible;"/>
					
						<use xlink:href="#Mezzotint"  width="80.1" height="50" x="-40.1" y="-24.9" transform="matrix(0.162 0 0 -0.162 71.6218 95.4454)" style="overflow:visible;"/>
					
						<use xlink:href="#Mezzotint"  width="80.1" height="50" x="-40.1" y="-24.9" transform="matrix(0.162 0 0 -0.162 73.4009 101.8395)" style="overflow:visible;"/>
					
						<use xlink:href="#Mezzotint"  width="80.1" height="50" x="-40.1" y="-24.9" transform="matrix(0.162 0 0 -0.162 92.6719 107.5337)" style="overflow:visible;"/>
					
						<use xlink:href="#Mezzotint"  width="80.1" height="50" x="-40.1" y="-24.9" transform="matrix(0.162 0 0 -0.162 99.9272 102.0294)" style="overflow:visible;"/>
					
						<use xlink:href="#Mezzotint"  width="80.1" height="50" x="-40.1" y="-24.9" transform="matrix(0.162 0 0 -0.162 95.107 94.4298)" style="overflow:visible;"/>
					
						<use xlink:href="#Mezzotint"  width="80.1" height="50" x="-40.1" y="-24.9" transform="matrix(0.162 0 0 -0.162 95.8217 104.6124)" style="overflow:visible;"/>
					
						<use xlink:href="#Mezzotint"  width="80.1" height="50" x="-40.1" y="-24.9" transform="matrix(0.162 0 0 -0.162 96.2539 98.7878)" style="overflow:visible;"/>
					
						<use xlink:href="#Mezzotint"  width="80.1" height="50" x="-40.1" y="-24.9" transform="matrix(0.162 0 0 -0.162 91.3864 99.9781)" style="overflow:visible;"/>
				</g>
				<g class="st14">
					
						<use xlink:href="#Mezzotint"  width="80.1" height="50" x="-40.1" y="-24.9" transform="matrix(0.162 0 0 -0.162 49.0795 96.9002)" style="overflow:visible;"/>
					
						<use xlink:href="#Mezzotint"  width="80.1" height="50" x="-40.1" y="-24.9" transform="matrix(0.162 0 0 -0.162 46.226 100.762)" style="overflow:visible;"/>
					
						<use xlink:href="#Mezzotint"  width="80.1" height="50" x="-40.1" y="-24.9" transform="matrix(0.162 0 0 -0.162 55.0959 103.8633)" style="overflow:visible;"/>
					
						<use xlink:href="#Mezzotint"  width="80.1" height="50" x="-40.1" y="-24.9" transform="matrix(0.162 0 0 -0.162 50.6973 105.0509)" style="overflow:visible;"/>
					
						<use xlink:href="#Mezzotint"  width="80.1" height="50" x="-40.1" y="-24.9" transform="matrix(0.162 0 0 -0.162 53.3359 116.4165)" style="overflow:visible;"/>
					
						<use xlink:href="#Mezzotint"  width="80.1" height="50" x="-40.1" y="-24.9" transform="matrix(0.162 0 0 -0.162 52.6345 120.8116)" style="overflow:visible;"/>
					
						<use xlink:href="#Mezzotint"  width="80.1" height="50" x="-40.1" y="-24.9" transform="matrix(0.162 0 0 -0.162 45.3452 117.9203)" style="overflow:visible;"/>
					
						<use xlink:href="#Mezzotint"  width="80.1" height="50" x="-40.1" y="-24.9" transform="matrix(0.162 0 0 -0.162 45.54 112.2405)" style="overflow:visible;"/>
					
						<use xlink:href="#Mezzotint"  width="80.1" height="50" x="-40.1" y="-24.9" transform="matrix(0.162 0 0 -0.162 39.2803 102.5883)" style="overflow:visible;"/>
					
						<use xlink:href="#Mezzotint"  width="80.1" height="50" x="-40.1" y="-24.9" transform="matrix(0.162 0 0 -0.162 59.5967 99.4079)" style="overflow:visible;"/>
					
						<use xlink:href="#Mezzotint"  width="80.1" height="50" x="-40.1" y="-24.9" transform="matrix(0.162 0 0 -0.162 55.533 97.3023)" style="overflow:visible;"/>
					
						<use xlink:href="#Mezzotint"  width="80.1" height="50" x="-40.1" y="-24.9" transform="matrix(0.162 0 0 -0.162 51.7359 111.0913)" style="overflow:visible;"/>
					
						<use xlink:href="#Mezzotint"  width="80.1" height="50" x="-40.1" y="-24.9" transform="matrix(0.162 0 0 -0.162 68.5022 105.9836)" style="overflow:visible;"/>
					
						<use xlink:href="#Mezzotint"  width="80.1" height="50" x="-40.1" y="-24.9" transform="matrix(0.162 0 0 -0.162 38.9982 107.6622)" style="overflow:visible;"/>
					
						<use xlink:href="#Mezzotint"  width="80.1" height="50" x="-40.1" y="-24.9" transform="matrix(0.162 0 0 -0.162 40.7772 114.0563)" style="overflow:visible;"/>
					
						<use xlink:href="#Mezzotint"  width="80.1" height="50" x="-40.1" y="-24.9" transform="matrix(0.162 0 0 -0.162 60.0483 119.7506)" style="overflow:visible;"/>
					
						<use xlink:href="#Mezzotint"  width="80.1" height="50" x="-40.1" y="-24.9" transform="matrix(0.162 0 0 -0.162 67.3035 114.2462)" style="overflow:visible;"/>
					
						<use xlink:href="#Mezzotint"  width="80.1" height="50" x="-40.1" y="-24.9" transform="matrix(0.162 0 0 -0.162 62.4834 106.6467)" style="overflow:visible;"/>
					
						<use xlink:href="#Mezzotint"  width="80.1" height="50" x="-40.1" y="-24.9" transform="matrix(0.162 0 0 -0.162 63.198 116.8293)" style="overflow:visible;"/>
					
						<use xlink:href="#Mezzotint"  width="80.1" height="50" x="-40.1" y="-24.9" transform="matrix(0.162 0 0 -0.162 63.6303 111.0046)" style="overflow:visible;"/>
					
						<use xlink:href="#Mezzotint"  width="80.1" height="50" x="-40.1" y="-24.9" transform="matrix(0.162 0 0 -0.162 58.7628 112.195)" style="overflow:visible;"/>
				</g>
				<g class="st14">
					
						<use xlink:href="#Mezzotint"  width="80.1" height="50" x="-40.1" y="-24.9" transform="matrix(0.162 0 0 -0.162 69.5095 94.3)" style="overflow:visible;"/>
					
						<use xlink:href="#Mezzotint"  width="80.1" height="50" x="-40.1" y="-24.9" transform="matrix(0.162 0 0 -0.162 66.656 98.1618)" style="overflow:visible;"/>
					
						<use xlink:href="#Mezzotint"  width="80.1" height="50" x="-40.1" y="-24.9" transform="matrix(0.162 0 0 -0.162 75.5259 101.2632)" style="overflow:visible;"/>
					
						<use xlink:href="#Mezzotint"  width="80.1" height="50" x="-40.1" y="-24.9" transform="matrix(0.162 0 0 -0.162 71.1273 102.4508)" style="overflow:visible;"/>
					
						<use xlink:href="#Mezzotint"  width="80.1" height="50" x="-40.1" y="-24.9" transform="matrix(0.162 0 0 -0.162 73.7659 113.8163)" style="overflow:visible;"/>
					
						<use xlink:href="#Mezzotint"  width="80.1" height="50" x="-40.1" y="-24.9" transform="matrix(0.162 0 0 -0.162 73.0645 118.2114)" style="overflow:visible;"/>
					
						<use xlink:href="#Mezzotint"  width="80.1" height="50" x="-40.1" y="-24.9" transform="matrix(0.162 0 0 -0.162 65.7752 115.3201)" style="overflow:visible;"/>
					
						<use xlink:href="#Mezzotint"  width="80.1" height="50" x="-40.1" y="-24.9" transform="matrix(0.162 0 0 -0.162 65.97 109.6403)" style="overflow:visible;"/>
					
						<use xlink:href="#Mezzotint"  width="80.1" height="50" x="-40.1" y="-24.9" transform="matrix(0.162 0 0 -0.162 59.7103 99.9881)" style="overflow:visible;"/>
					
						<use xlink:href="#Mezzotint"  width="80.1" height="50" x="-40.1" y="-24.9" transform="matrix(0.162 0 0 -0.162 80.0267 96.8077)" style="overflow:visible;"/>
					
						<use xlink:href="#Mezzotint"  width="80.1" height="50" x="-40.1" y="-24.9" transform="matrix(0.162 0 0 -0.162 75.963 94.7021)" style="overflow:visible;"/>
					
						<use xlink:href="#Mezzotint"  width="80.1" height="50" x="-40.1" y="-24.9" transform="matrix(0.162 0 0 -0.162 72.1659 108.4911)" style="overflow:visible;"/>
					
						<use xlink:href="#Mezzotint"  width="80.1" height="50" x="-40.1" y="-24.9" transform="matrix(0.162 0 0 -0.162 88.9322 103.3835)" style="overflow:visible;"/>
					
						<use xlink:href="#Mezzotint"  width="80.1" height="50" x="-40.1" y="-24.9" transform="matrix(0.162 0 0 -0.162 59.4282 105.0621)" style="overflow:visible;"/>
					
						<use xlink:href="#Mezzotint"  width="80.1" height="50" x="-40.1" y="-24.9" transform="matrix(0.162 0 0 -0.162 61.2072 111.4561)" style="overflow:visible;"/>
					
						<use xlink:href="#Mezzotint"  width="80.1" height="50" x="-40.1" y="-24.9" transform="matrix(0.162 0 0 -0.162 80.4783 117.1504)" style="overflow:visible;"/>
					
						<use xlink:href="#Mezzotint"  width="80.1" height="50" x="-40.1" y="-24.9" transform="matrix(0.162 0 0 -0.162 87.7335 111.646)" style="overflow:visible;"/>
					
						<use xlink:href="#Mezzotint"  width="80.1" height="50" x="-40.1" y="-24.9" transform="matrix(0.162 0 0 -0.162 82.9134 104.0465)" style="overflow:visible;"/>
					
						<use xlink:href="#Mezzotint"  width="80.1" height="50" x="-40.1" y="-24.9" transform="matrix(0.162 0 0 -0.162 83.628 114.2291)" style="overflow:visible;"/>
					
						<use xlink:href="#Mezzotint"  width="80.1" height="50" x="-40.1" y="-24.9" transform="matrix(0.162 0 0 -0.162 84.0603 108.4044)" style="overflow:visible;"/>
					
						<use xlink:href="#Mezzotint"  width="80.1" height="50" x="-40.1" y="-24.9" transform="matrix(0.162 0 0 -0.162 79.1928 109.5948)" style="overflow:visible;"/>
				</g>
				<g class="st14">
					
						<use xlink:href="#Mezzotint"  width="80.1" height="50" x="-40.1" y="-24.9" transform="matrix(0.162 0 0 -0.162 40.2891 91.0291)" style="overflow:visible;"/>
					
						<use xlink:href="#Mezzotint"  width="80.1" height="50" x="-40.1" y="-24.9" transform="matrix(0.162 0 0 -0.162 37.4355 94.891)" style="overflow:visible;"/>
					
						<use xlink:href="#Mezzotint"  width="80.1" height="50" x="-40.1" y="-24.9" transform="matrix(0.162 0 0 -0.162 46.3054 97.9923)" style="overflow:visible;"/>
					
						<use xlink:href="#Mezzotint"  width="80.1" height="50" x="-40.1" y="-24.9" transform="matrix(0.162 0 0 -0.162 41.9069 99.1799)" style="overflow:visible;"/>
					
						<use xlink:href="#Mezzotint"  width="80.1" height="50" x="-40.1" y="-24.9" transform="matrix(0.162 0 0 -0.162 44.5455 110.5454)" style="overflow:visible;"/>
					
						<use xlink:href="#Mezzotint"  width="80.1" height="50" x="-40.1" y="-24.9" transform="matrix(0.162 0 0 -0.162 43.8441 114.9405)" style="overflow:visible;"/>
					
						<use xlink:href="#Mezzotint"  width="80.1" height="50" x="-40.1" y="-24.9" transform="matrix(0.162 0 0 -0.162 36.5548 112.0493)" style="overflow:visible;"/>
					
						<use xlink:href="#Mezzotint"  width="80.1" height="50" x="-40.1" y="-24.9" transform="matrix(0.162 0 0 -0.162 36.7495 106.3694)" style="overflow:visible;"/>
					
						<use xlink:href="#Mezzotint"  width="80.1" height="50" x="-40.1" y="-24.9" transform="matrix(0.162 0 0 -0.162 30.4898 96.7172)" style="overflow:visible;"/>
					
						<use xlink:href="#Mezzotint"  width="80.1" height="50" x="-40.1" y="-24.9" transform="matrix(0.162 0 0 -0.162 50.8063 93.5368)" style="overflow:visible;"/>
					
						<use xlink:href="#Mezzotint"  width="80.1" height="50" x="-40.1" y="-24.9" transform="matrix(0.162 0 0 -0.162 46.7426 91.4312)" style="overflow:visible;"/>
					
						<use xlink:href="#Mezzotint"  width="80.1" height="50" x="-40.1" y="-24.9" transform="matrix(0.162 0 0 -0.162 42.9455 105.2202)" style="overflow:visible;"/>
					
						<use xlink:href="#Mezzotint"  width="80.1" height="50" x="-40.1" y="-24.9" transform="matrix(0.162 0 0 -0.162 59.7117 100.1126)" style="overflow:visible;"/>
					
						<use xlink:href="#Mezzotint"  width="80.1" height="50" x="-40.1" y="-24.9" transform="matrix(0.162 0 0 -0.162 30.2078 101.7912)" style="overflow:visible;"/>
					
						<use xlink:href="#Mezzotint"  width="80.1" height="50" x="-40.1" y="-24.9" transform="matrix(0.162 0 0 -0.162 31.9868 108.1853)" style="overflow:visible;"/>
					
						<use xlink:href="#Mezzotint"  width="80.1" height="50" x="-40.1" y="-24.9" transform="matrix(0.162 0 0 -0.162 51.2579 113.8795)" style="overflow:visible;"/>
					
						<use xlink:href="#Mezzotint"  width="80.1" height="50" x="-40.1" y="-24.9" transform="matrix(0.162 0 0 -0.162 58.5131 108.3752)" style="overflow:visible;"/>
					
						<use xlink:href="#Mezzotint"  width="80.1" height="50" x="-40.1" y="-24.9" transform="matrix(0.162 0 0 -0.162 53.693 100.7756)" style="overflow:visible;"/>
					
						<use xlink:href="#Mezzotint"  width="80.1" height="50" x="-40.1" y="-24.9" transform="matrix(0.162 0 0 -0.162 54.4076 110.9582)" style="overflow:visible;"/>
					
						<use xlink:href="#Mezzotint"  width="80.1" height="50" x="-40.1" y="-24.9" transform="matrix(0.162 0 0 -0.162 54.8398 105.1336)" style="overflow:visible;"/>
					
						<use xlink:href="#Mezzotint"  width="80.1" height="50" x="-40.1" y="-24.9" transform="matrix(0.162 0 0 -0.162 49.9724 106.3239)" style="overflow:visible;"/>
				</g>
				<g class="st14">
					
						<use xlink:href="#Mezzotint"  width="80.1" height="50" x="-40.1" y="-24.9" transform="matrix(0.162 0 0 -0.162 77.8228 79.6309)" style="overflow:visible;"/>
					
						<use xlink:href="#Mezzotint"  width="80.1" height="50" x="-40.1" y="-24.9" transform="matrix(0.162 0 0 -0.162 74.9692 83.4927)" style="overflow:visible;"/>
					
						<use xlink:href="#Mezzotint"  width="80.1" height="50" x="-40.1" y="-24.9" transform="matrix(0.162 0 0 -0.162 83.8391 86.5941)" style="overflow:visible;"/>
					
						<use xlink:href="#Mezzotint"  width="80.1" height="50" x="-40.1" y="-24.9" transform="matrix(0.162 0 0 -0.162 79.4405 87.7817)" style="overflow:visible;"/>
					
						<use xlink:href="#Mezzotint"  width="80.1" height="50" x="-40.1" y="-24.9" transform="matrix(0.162 0 0 -0.162 82.0792 99.1472)" style="overflow:visible;"/>
					
						<use xlink:href="#Mezzotint"  width="80.1" height="50" x="-40.1" y="-24.9" transform="matrix(0.162 0 0 -0.162 81.3777 103.5423)" style="overflow:visible;"/>
					
						<use xlink:href="#Mezzotint"  width="80.1" height="50" x="-40.1" y="-24.9" transform="matrix(0.162 0 0 -0.162 74.0884 100.651)" style="overflow:visible;"/>
					
						<use xlink:href="#Mezzotint"  width="80.1" height="50" x="-40.1" y="-24.9" transform="matrix(0.162 0 0 -0.162 74.2832 94.9712)" style="overflow:visible;"/>
					
						<use xlink:href="#Mezzotint"  width="80.1" height="50" x="-40.1" y="-24.9" transform="matrix(0.162 0 0 -0.162 68.0235 85.319)" style="overflow:visible;"/>
					
						<use xlink:href="#Mezzotint"  width="80.1" height="50" x="-40.1" y="-24.9" transform="matrix(0.162 0 0 -0.162 88.3399 82.1386)" style="overflow:visible;"/>
					
						<use xlink:href="#Mezzotint"  width="80.1" height="50" x="-40.1" y="-24.9" transform="matrix(0.162 0 0 -0.162 84.2762 80.033)" style="overflow:visible;"/>
					
						<use xlink:href="#Mezzotint"  width="80.1" height="50" x="-40.1" y="-24.9" transform="matrix(0.162 0 0 -0.162 80.4791 93.822)" style="overflow:visible;"/>
					
						<use xlink:href="#Mezzotint"  width="80.1" height="50" x="-40.1" y="-24.9" transform="matrix(0.162 0 0 -0.162 97.2454 88.7144)" style="overflow:visible;"/>
					
						<use xlink:href="#Mezzotint"  width="80.1" height="50" x="-40.1" y="-24.9" transform="matrix(0.162 0 0 -0.162 67.7414 90.393)" style="overflow:visible;"/>
					
						<use xlink:href="#Mezzotint"  width="80.1" height="50" x="-40.1" y="-24.9" transform="matrix(0.162 0 0 -0.162 69.5205 96.787)" style="overflow:visible;"/>
					
						<use xlink:href="#Mezzotint"  width="80.1" height="50" x="-40.1" y="-24.9" transform="matrix(0.162 0 0 -0.162 88.7915 102.4813)" style="overflow:visible;"/>
					
						<use xlink:href="#Mezzotint"  width="80.1" height="50" x="-40.1" y="-24.9" transform="matrix(0.162 0 0 -0.162 96.0468 96.977)" style="overflow:visible;"/>
					
						<use xlink:href="#Mezzotint"  width="80.1" height="50" x="-40.1" y="-24.9" transform="matrix(0.162 0 0 -0.162 91.2266 89.3774)" style="overflow:visible;"/>
					
						<use xlink:href="#Mezzotint"  width="80.1" height="50" x="-40.1" y="-24.9" transform="matrix(0.162 0 0 -0.162 91.9413 99.56)" style="overflow:visible;"/>
					
						<use xlink:href="#Mezzotint"  width="80.1" height="50" x="-40.1" y="-24.9" transform="matrix(0.162 0 0 -0.162 92.3735 93.7354)" style="overflow:visible;"/>
					
						<use xlink:href="#Mezzotint"  width="80.1" height="50" x="-40.1" y="-24.9" transform="matrix(0.162 0 0 -0.162 87.506 94.9257)" style="overflow:visible;"/>
				</g>
			</g>
		</g>
		<g>
			<polygon class="st6" points="26,96.8 25.8,120.7 35,116.1 35,92.4 			"/>
			<path class="st2" d="M34.5,100.5l-9.1-4.9l0.1,25l8.9,4.3C34.4,125,34.5,100,34.5,100.5z"/>
			<polygon class="st5" points="35.6,99.7 34.3,100.5 34.3,125 35.5,124.3 			"/>
			<polygon class="st6" points="34,91.8 25.4,96 34.3,100.5 35.6,99.7 27.9,95.9 35.3,92.3 			"/>
		</g>
		<g>
			<polygon class="st6" points="112.4,85 112.7,108.9 103.4,104.4 103.4,80.7 			"/>
			<path class="st2" d="M104,88.7l9.1-4.9l-0.1,25l-8.9,4.3C104,113.2,104,88.3,104,88.7z"/>
			<polygon class="st5" points="102.8,87.9 104.1,88.7 104.1,113.3 102.9,112.5 			"/>
			<polygon class="st6" points="104.4,80 113,84.3 104.1,88.7 102.9,88 110.5,84.2 103.1,80.6 			"/>
		</g>
		<path class="st15" d="M81.7,93.2c-8.8-1-21.4,8.3-24.3,11c-2.9,2.7,3.6,10.8,18.5,3.7C90.9,100.8,90.5,94.1,81.7,93.2z"/>
		<path class="st10" d="M78.5,90.3c-6.9-0.7-16.6,6.4-18.9,8.5c-2.2,2.1,2.8,8.4,14.4,2.9C85.6,96.2,85.4,91.1,78.5,90.3z"/>
		<linearGradient id="SVGID_6_" gradientUnits="userSpaceOnUse" x1="56.2317" y1="101.3055" x2="88.5064" y2="101.3055">
			<stop  offset="0" style="stop-color:#E4DAD8"/>
			<stop  offset="1" style="stop-color:#CCB9B9"/>
		</linearGradient>
		<path class="st16" d="M59.4,99.3c0.6-0.6-3.3,4.5-3.1,6.4s1.8,10.8,21.1,2.2s7.9-14.2,7.9-14.2l-3.8-2.7c0,0,7.7,2.5-6.7,9.9
			S58.7,99.9,59.4,99.3z"/>
	</g>
</g>
</svg>
