<?xml version="1.0" encoding="utf-8"?>
<!-- Generator: Adobe Illustrator 25.2.3, SVG Export Plug-In . SVG Version: 6.00 Build 0)  -->
<svg version="1.1" id="Layer_1" xmlns="http://www.w3.org/2000/svg" xmlns:xlink="http://www.w3.org/1999/xlink" x="0px" y="0px"
	 viewBox="0 0 145.7 164.6" style="enable-background:new 0 0 145.7 164.6;" xml:space="preserve">
<style type="text/css">
	.st0{fill:#D8422E;}
	.st1{fill:#CCB9B9;stroke:#FFFFFF;stroke-width:0.25;stroke-miterlimit:10;}
	.st2{fill:#E4DAD8;stroke:#FFFFFF;stroke-width:0.25;stroke-miterlimit:10;}
	.st3{fill:#CCB9B9;stroke:#FFFFFF;stroke-width:0.25;stroke-linejoin:bevel;stroke-miterlimit:10;}
	.st4{fill:#E4DAD8;stroke:#FFFFFF;stroke-width:0.25;stroke-linejoin:bevel;stroke-miterlimit:10;}
	.st5{fill:#B79797;stroke:#FFFFFF;stroke-width:0.25;stroke-linejoin:bevel;stroke-miterlimit:10;}
	.st6{fill:#B79797;stroke:#FFFFFF;stroke-width:0.172;stroke-linejoin:bevel;stroke-miterlimit:10;}
	.st7{clip-path:url(#SVGID_2_);}
	.st8{fill:#B79797;stroke:#FFFFFF;stroke-width:0.25;stroke-miterlimit:10;}
	.st9{clip-path:url(#SVGID_4_);}
	.st10{fill:#E4DAD8;stroke:#FFFFFF;stroke-width:0.5;stroke-miterlimit:10;}
	.st11{fill:url(#SVGID_5_);stroke:#FFFFFF;stroke-width:0.5;stroke-miterlimit:10;}
	.st12{fill:url(#SVGID_6_);stroke:#FFFFFF;stroke-width:0.25;stroke-linejoin:bevel;stroke-miterlimit:10;}
</style>
<symbol  id="Mezzotint_2" viewBox="-40.1 -24.9 80.1 50">
	<g>
		<g>
			<g>
				<g>
					<path class="st0" d="M-12.9,9.4c-0.2,0.1-0.4,0.3-0.5,0.5c0.9,0.3,1.7,0.7,2.7,0.5C-11,9.9-11,9.2-11.4,9
						C-11.7,8.8-12.4,9.2-12.9,9.4z"/>
					<path class="st0" d="M16.6,18c-0.9,0.2-4.2-2.4-5.2-2.3c-0.4,0.1-1,0-1.2-0.1c-0.4-0.4-0.5-0.1-0.9-0.5
						c-0.7-0.7-2.2-1.1-2.9,0.1c-0.2,0.3,0.2,1.2,2.5,0.5c0.2-0.1,0.6,0.7,1,0.8c5.1,2.3,9.5,4,9,2.7L16.6,18z"/>
					<path class="st0" d="M5.7,17.8c-0.3,0.7-0.4,2-0.2,2.1c2.3,1,3.6,1.1,4.3,0.4c0.7-0.6-1.9-0.2-3-0.5c-1.1-0.4-0.4-3.1-1.1-3.3
						C5,16.4,5.7,17.1,5.7,17.8z"/>
					<path class="st0" d="M3.3,18.7c-1.8-0.9-1.8-1.2-4.2,0c0.7-0.4,0.4-0.4,2.1,1.1C1.4,19.9,2.8,18.8,3.3,18.7z"/>
					<path class="st0" d="M-3.6,12.9c-0.5-0.2-1.3-0.6-1.5-0.4C-6.6,13.8-8,13-9.4,12.4c0.7-1.2,0.4-2.8,1.6-3.7
						c-0.8,0.2-1.9,0.3-2,1.1c0,0.3,0.9,0.8,0.8,1c-1.3,2.7,0.7,3.7,2.8,3.6c0.2,0,0.3-1.2,0.6-1.3c1.4-0.4,2.9,3.6,3.1,2
						c0-1,0.2-2.2,2.1-1.9C0.4,13.2,1,14.3,1.7,15c0.8,0.3,1.7-1.2,1-2C0.9,11.1-1.4,13.9-3.6,12.9z"/>
					<path class="st0" d="M3.3,9.1c-0.4,0-0.8-0.1-1,0c-0.2,0.2-0.1,0.6-0.1,1C2.8,10,3.5,9.6,3.8,9.8c1.1,0.9,2.1,2.4,1.2,4.1
						C7.7,12.4,6,9.4,3.3,9.1z"/>
					<path class="st0" d="M4.5,5.8c3,2.5,3.9,4.6,5.7,0.7C10,4.9,8.8,7.6,8.2,7.4C7.8,7.3,8.6,5.4,8.3,5.3C7.9,5.1,6.5,6.5,6,6.4
						c-0.8-0.2-0.9-1.2-1.1-2C4.8,4.9,4.4,5.7,4.5,5.8z"/>
					<path class="st0" d="M7.1,2.3c-0.1,0.1,0,0.6,0,1C7.9,3,9.5,3.8,9.5,2.7C9.5,1.7,7.5,1.6,7.1,2.3z"/>
					<path class="st0" d="M-5.3,5.1C-5.9,5.1-6,6-5.7,6.5c0.5,0.9,1,2.7,2.1,2.2c0-1.2,0.8-1.9,1.6-2.7C-3.9,7.9-4.2,5.1-5.3,5.1z"
						/>
					<path class="st0" d="M13.7,4.6c2.2-1.7,4.1-0.2,6.2-0.2c0.4,0,0.7-0.8,1.1-0.8c1.1-0.1,2,0.5,2.6,1.5C23.4,3,25.9,3.6,26,2.4
						c0.1-2.3-1.8-3.9-0.8-6.4c-1.6-1.1-3.6-0.6-5.3-1.1c2.4,1.3,5.9,1.8,4.2,5.3c0.4,0,0.8-0.1,1,0.1c0.4,0.4,0.6,1.1,0.5,1.5
						c-0.4,0.9-1.4,1.8-2.5,1.5c-1.9-0.6-2.4-0.3-4.3-0.2c-0.9,0-1.7-1.7-3.2-1.8c0,0.4,0.1,1-0.1,1c-1.9-0.6-2.7,0.5-2.2,1.5
						L13.7,4.6z"/>
					<path class="st0" d="M20.5,8.7L20.5,8.7c0,0.2-1.2,0.6-1.4,0.4c-1.2-1.1-2.6-2-3.8-0.4C18.4,8.4,21,10,23.8,11
						c0.9,0.3,0.3,4.1,1.8,3.7l0.9-2.3c1,0,1.8-0.2,2.1-2.1c-0.7,0.8-1.5,1.8-2.6,1.5c-1.8-0.5-1.9-1.7-3.3-2.9
						c-0.2-0.2-1.1,0.5-1.4,0.3C21,9.1,20.6,8.9,20.5,8.7z"/>
					<path class="st0" d="M0.7-18.1c1.1,0.4,1.5-0.5,2.1-1.1C1.8-19.5,1.2-18.9,0.7-18.1z"/>
					<path class="st0" d="M33.9,1.9c-3.4-2.7-0.4,0.4-0.6,0.6c0.7-0.3,1.4-1.1,2.1,0C34.9,2.3,34.3,2.2,33.9,1.9z"/>
					<path class="st0" d="M30.4-3.7c-0.8-0.5-1.8-1-2.5-0.5c-0.6,0.4-1.8,0.3-0.6,2.5c1.1-2.2,3-1.3,4.8-0.5
						C31.5-2.7,31-3.3,30.4-3.7z"/>
					<path class="st0" d="M21.5,2.2c-0.4-0.1-0.7-0.6-1.1-1c0,1.2,0.7,2.3,1.6,2.4c0.5,0.1,1-0.9,1.6-1.4
						C22.9,2.3,22.2,2.5,21.5,2.2z"/>
					<path class="st0" d="M9.4-0.4c0.4,0.3,1.1,0.7,1,0.9c-0.2,0.9-1.1,1.6-1.8,2.4c0.4,0,0.8,0,1-0.1c0.8-0.5,0.6-1.8,0.9-1.9
						c2.2-0.6,6.3,0.4,8.6,0.4c0-0.4-2.5-1.2-2.6-1.2C13.7-0.3,12.2-0.1,9.4-0.4z"/>
					<path class="st0" d="M11.5-4.7c-0.2,0.8-1.1,1.7,0.1,2c2.4,0.6,4.5-1.4,6.9-1.5c-1.2-1.8,1.1-3.4,1-5.3c0-0.4-0.7-0.7-0.9-1.1
						c-0.4-0.7-1.1-1.4,0-2.1c-0.4,0-0.7,0-1.1,0c0.4,2.3-1.3,1-2.1,2.1c0.5-0.2,1.2-0.6,1.5-0.4c1.1,0.6,2.2,1.5,2.1,3.1
						c0,0.6-0.2,1.4-0.5,1.4c-1,0.3-2-0.5-2.6-1.4c-0.1,1.7,1.4,3.9-0.6,4.5c-0.7,0.2-1.8,0.1-3.1-0.1c-1.7-0.2,1.1-2.4-0.6-3.4
						C11.6-6.1,11.7-5.4,11.5-4.7z"/>
					<path class="st0" d="M6.4,0.5c0-0.2,0.9-0.5,0.9-0.8C7.3-1,7.8-2.4,7.4-3C8-3.1,8.7-3.4,9-3.1c0.7,0.7-0.9,2.6-1.6,3.9
						C7.1,1.4,7.3,2.4,7.9,3C7.4,2.2,6.5,1.4,6.4,0.5z"/>
					<path class="st0" d="M0.4-3.1c-0.8-1.5-1.4-0.2-1.1,0.9c0.4,0.9,2,3.3,3.8,1.7c0.2-0.2,0.1-0.6,0.1-1C2.5-1.5,3.2,2,0.4-3.1z"
						/>
					<path class="st0" d="M-9,22.2c0.1-0.2,1.8-0.1,2.4-0.1L-7,22.1c-1.8-0.3-2.8-3-4.6-4.3c-0.7-0.5-2,0.5-2.4,0.2L-9,22.2z"/>
					<path class="st0" d="M13.1,21.2c0.4,0.4,0.7,0.7,1.1,1.1c0.2-0.8,0.3-1.6,1.1-2.1C14.5,20.5,13.8,20.8,13.1,21.2z"/>
					<path class="st0" d="M-8.7,16.1c-0.8-1.5-1.4-0.2-1.1,0.9c0.4,0.9,2,3.3,3.8,1.7c0.2-0.2,0.1-0.6,0.1-1
						C-6.7,17.7-6,21.3-8.7,16.1z"/>
					<path class="st0" d="M-31.2,11.6c0.1,0.4-5.6,1.8-5.8,2.3l2.6,1.5c0.8-0.4,0.7-1.7,1.2-1.9c2.3-0.8,3.9,1.1,4.3-2.3
						c0,0,0.7-0.1,0.9,0c0.5,0.6,0.4,1.6,1.2,2c0.6,0.3,1.1-0.1,1.6-0.4c1.8-0.9,1.4,2.1,4.3,1.1c0.3-0.1,1.2,0.8,1.4,1.4
						c0.3,1.5-1.1,2.2-2,3.2c0.8-1,2-1.1,3.2-1.1c-0.5-0.2-1.1-0.4-1.6-0.5c0.4-1.1,0.7-2.1,1.1-3.2c-0.5,0.2-1.2,0.6-1.5,0.4
						c-0.9-0.4-1.4-1.6-2.2-1.9c-0.2-0.1-0.7,0.8-1,0.8c-1.9-0.2-3.2-2.4-4.7-2.1"/>
					<path class="st0" d="M-36.4,13.2"/>
					<path class="st0" d="M-37.4-5.8c0.4-0.2,1,0.2,1.5,0.4c0.2-0.5,0.4-1.1,0.5-1.6c3.2,1.4,7.8,2.7,10.6,0
						c-0.4-0.4-0.7-0.7-1.1-1.1c-0.5,0.7-1.4,1.1-2.1,0.9c-1.3-0.4-0.2-2.4-2.7-2.5c0.9,0.9,2.5,1.9,1.9,3.1c-0.7,1.4-3.1,0.4-4-0.9
						c-0.4,0.4-0.8,1-1,0.9c-2-0.7-4,0.6-5.9-0.4c0.1,1.8-1.2,3.6,0,5.3C-37.9-2.6-39-5.1-37.4-5.8z"/>
					<path class="st0" d="M-19.9,11.3c-1.2,1,0.2,1.1,0.5,1.6C-19.6,12.4-19.7,11.8-19.9,11.3z"/>
					<path class="st0" d="M-17.1,6.6c-0.1-1-0.5-1.6-1.2-2.1c-0.2,0.5-0.6,1.3-0.4,1.5c1.2,1.1,1,3.1,2.5,3.8
						C-16,8.6-17,7.7-17.1,6.6z"/>
					<path class="st0" d="M-16.7,12.5c1,1.3,1-0.6,1.6-0.5C-15.7,12.1-16.2,12.3-16.7,12.5z"/>
					<path class="st0" d="M-15.4-10.1c-1.9-1.7-1.5-4.1-1.1-6.3c0.1,0.9,0,1.9-0.6,2.6c-0.1,0.2-0.8-0.1-0.9,0.1
						c-0.4,0.4-0.7,1.2-0.5,1.4c0.9,1.1,1.5,2.6,3.6,2.9c0.3,0,0.4,0.9,0.6,1.4c-0.5,0.2-1.1,0.4-1.6,0.5c0.4,1.1,0.7,2.1,1.1,3.2
						c1.4-1.8-0.3-3.9,0.5-5.8C-14.8-10.1-15.2-10-15.4-10.1z"/>
					<path class="st0" d="M-5.7,1.8c0.8-1,1.6-0.2,2,0.3c0.5,0.5,0.4,1,2.7,1c0.4,0,1.2,0.7,2,1c0-0.4,0.1-0.7,0.1-1.1
						C0.6,3.1,0,3.4-0.5,3.2c-0.6-0.3-1-1.4-1.5-1.5C-2.8,1.7-4,2.3-5,1.2c-0.2-0.2,0.1-0.8,0-0.9c-1.1-0.5-1.8-1.1-2.4-1.9
						C-8,0.1-6.5,0.8-5.7,1.8z"/>
					<path class="st0" d="M-1.5-0.4c-2-0.2-2,2.1-4,1.3C-4.3,0.3-5.4,0.3-4-1.7c0.4,0.4,0.8,1.2,1,1.1c2.7-0.7,4,2.4,6.7,2.4
						C3.5,2.1,3.3,2.4,3.1,2.7C2.8,2.2,0.5,1.1,0.3,1.2C-1.7,1.6,0.2-0.2-1.5-0.4z"/>
					<path class="st0" d="M-11.1-6.8c-0.2,2.3-1.5,1-2.4,2.1c0.5,0.2,1.1,0.4,1.6,0.5c-0.3-2.1,2.3-1.4,2.4-2.7
						C-9.4-7.8-11.1-7.1-11.1-6.8z"/>
					<path class="st0" d="M-13.4-3.3c-0.2-0.2-1,0.4-1.4,0.3c-2.3-0.8-2.2-1.7-2.6-3.7c-0.7,0.4-0.8,1.1-0.5,1.5
						c0.7,1,1.2,0.4,1.2,2.2c0,0.5,1.9,0,2.7,0.4c1.6,0.7,2.9,0.1,4.5,0.5c0.5,0.1,0.8-1,0.4-1.3C-10.5-4.3-10.7-0.9-13.4-3.3z"/>
					<path class="st0" d="M-27.4-1.4c-0.2-0.2-1,0.4-1.4,0.3c-2.3-0.8-2.2-1.7-2.6-3.7c-0.7,0.4-0.8,1.1-0.5,1.5
						c0.7,1,1.2,0.4,1.2,2.2c0,0.5,1.9,0,2.7,0.4c1.6,0.7,2.9,0.1,4.5,0.5c0.5,0.1,0.8-1,0.4-1.3C-24.5-2.4-24.7,1-27.4-1.4z"/>
					<path class="st0" d="M13.3,13c-0.1,0.5,0.9,0.4,1.5,0.2c-0.6-1.5,2-2.6,0.8-3.8c-0.4-0.5-1.5-0.2-2.1-0.8
						C13.1,10.4,13.6,11.2,13.3,13z"/>
					<path class="st0" d="M-5.3-11.4c-0.6-1.7-1.6,0.1-2.4-0.2C-7-9.5-6-12.6-5.3-11.4z"/>
					<path class="st0" d="M-34.2,1.9c0.2-0.5,0.4-1.1,0.5-1.6c0.5,0.2,1.3,0.3,1.4,0.6c0.8,2.2,3.3,2.9,5.2,3.8c0.4-1,1.3-1.2,2.1-1
						c1.9,0.6,5.3,1.2,6.9,2.6c-0.5,0.3-1.1,0.9-1.3,0.8c-2.9-1.6-8.3-3.2-11.4-1.3c-0.1,0.1-0.6-0.3-0.7-0.6
						c-0.4-0.8,0.4-1.6,0.2-2.2C-31.6,1.9-33.1,2-34.2,1.9z"/>
					<path class="st0" d="M-5.5-2.5c-0.3-0.4-1-0.6-1-1.3C-4.3-3-2.5-1.2,0.3-1.7c-0.2,1.1-1.2,1-2,1.3C-2.1-2.5-4.5-0.9-5.5-2.5z"
						/>
					<path class="st0" d="M-2.3-8.9c-0.5,0.3-1,0.4-1.6,0.6c1.5-0.3,1.5,1.5,3.8,0.8c0.5-0.2,1.3,0.9,1,1.9c0.4,0,0.7,0,1.1,0
						C0.4-6.7-0.2-8.4-1.2-9.9C-1.5-9.5-1.8-9.1-2.3-8.9z"/>
					<path class="st0" d="M9.6-17.6c-0.4-0.4-1-0.4-1.5-0.6c0,0.4-0.1,0.9,0,1c1.1,0.4,1.9,0.9,2.6,1.7
						C10.4-16.2,10.1-17.1,9.6-17.6z"/>
					<path class="st0" d="M12.9-12.8c-1.1,0.7-0.4,1.6,0.1,2c0.4,0.4,1.4,0.2,1.4-0.4c0-0.7-1.2-1.2,0.7-2.7
						C14.3-13.5,13.6-13.2,12.9-12.8z"/>
					<path class="st0" d="M15.4-16c-1.1-0.1-2.8-1.4-2.8,0C12.6-14.6,14.3-15.8,15.4-16z"/>
					<path class="st0" d="M17.3-24.9c-1.2,1,0.2,1.1,0.5,1.6C17.6-23.8,17.4-24.4,17.3-24.9z"/>
					<path class="st0" d="M-24.9-9.9c2-0.3,5.1,1.9,7,1.1c-1.9,0.3-4.6-2.3-6.4-2.3L-24.9-9.9z"/>
					<path class="st0" d="M34.3-5.9c3,2.5,3.9,4.6,5.7,0.7c-0.3-1.6-1.4,1.1-2.1,0.9c-0.3-0.1,0.4-1.9,0.1-2.1
						c-0.4-0.2-1.8,1.2-2.2,1.1c-0.8-0.2-0.9-1.2-1.1-2C34.5-6.8,34.1-6,34.3-5.9z"/>
					<path class="st0" d="M6.8-14c-0.8,1-1.5,0.3-2.1-0.1c-0.2-0.1,0-0.8-0.1-0.9c-1.6-0.6-2.1,1.3-3.1,2c0.4-0.4,0.7-1,1-0.9
						c1.6,0.3,4.5,0.5,4.3,3c-0.2-1.6,1.9-2.5,1.1-4.2C7.5-14.7,7.1-14.4,6.8-14z"/>
					<path class="st0" d="M1.8,3.7C1,4.7,0.3,4-0.3,3.6c-0.2-0.1,0-0.8-0.1-0.9C-2,2.1-2.4,4-3.5,4.7c0.4-0.4,0.7-1,1-0.9
						c1.6,0.3,4.5,0.5,4.3,3C1.6,5.3,3.7,4.3,2.9,2.6C2.5,3,2.1,3.3,1.8,3.7z"/>
					<path class="st0" d="M-6.4,2.6C-5,3.2-4.1,2.2-3.2,1.5C-4.5,1.3-5.4,2-6.4,2.6z"/>
					<path class="st0" d="M-13.5,13.4c-0.1,0.1,0,0.6,0,1c0.9-0.3,2.4,0.6,2.4-0.5C-11.1,12.8-13.2,12.6-13.5,13.4z"/>
					<path class="st0" d="M-37.8,6.3c1.1,0.4,1.5-0.5,2.1-1.1C-36.8,4.9-37.3,5.6-37.8,6.3z"/>
					<path class="st0" d="M-5.3-8.7c-0.7,0-0.7-0.1-1,0c-0.8,0.4-0.9,1.3-1.1,2.1C-6-8.8-3.8-8-2.6-6.1C-2.4-6.6-2-7.4-2.2-7.5
						C-2.9-8.2-4.2-8.4-5.3-8.7z"/>
					<path class="st0" d="M32.7-2.5c-0.7,0-0.7-0.1-1,0c-0.8,0.4-0.9,1.3-1.1,2.1c1.4-2.2,3.6-1.5,4.8,0.5c1.7-2,0.6-1.3,0.4-1.5
						C35.1-2,33.8-2.2,32.7-2.5z"/>
					<path class="st0" d="M25.2,6.6c-0.7,0-0.7-0.1-1,0c-0.8,0.4-0.9,1.3-1.1,2.1c1.4-2.2,3.6-1.5,4.8,0.5c0.2-0.5,0.6-1.3,0.4-1.5
						C27.6,7,26.3,6.9,25.2,6.6z"/>
					<path class="st0" d="M-11.8,1.6c0.7,0.5,0.9,1.3,1.1,2.1c0.7-0.4,0.8-1.1,0.4-1.5C-10.7,1.8-11.3,1.8-11.8,1.6z"/>
					<path class="st0" d="M-28.3-9.2c0.7,0.5,0.9,1.3,1.1,2.1c0.7-0.4,0.8-1.1,0.4-1.5C-27.2-9-27.8-9.1-28.3-9.2z"/>
					<path class="st0" d="M-23.8,10.6c1.4,0.7,2.2-0.3,3.2-1.1C-21.8,9.4-22.8,10.1-23.8,10.6z"/>
					<path class="st0" d="M-34.7-3.6c-1.1,1.4,1,1.3,1.1,2.1C-32.2-3.1-35.4-2.4-34.7-3.6z"/>
					<path class="st0" d="M28.3-12.2c-0.7-0.5-2,0.5-2.4,0.2c-1.5-1.2-2.2-0.9-3.9-1.4c0,0.4-0.1,0.8,0.1,1c0.7,0.7,2.2,0.1,2.9,0.4
						c2.4,1.1,4.9,3.9,6,4.2c0.1-0.2,1.8-0.1,2.4-0.1L28.3-12.2z"/>
					<path class="st0" d="M-31.7-6.4c0.9,0.2,1.7,0.4,2.2,0.5c0-0.7-0.7-1.1-1-1.4L-31.7-6.4z"/>
					<path class="st0" d="M10.7,23.8c2-0.3,5.1,1.9,7,1.1c-1.9,0.3-4.6-2.3-6.4-2.3c-3.4-0.1-6.6,1.2-10,0.3c-1.2-0.4-1.4-2.4-3.2-2
						c1.5,1.9,3.4,3.7,5.8,3.5C6.3,24,8.3,24.2,10.7,23.8z"/>
					<path class="st0" d="M-22.8,1c0.2,0.5,0.2,0.8,0.6,1.2C-23.1,2.8-24.1,3.4-25,4c0.1,1.4,1.8,0.2,3.2-0.3
						c3.2-1.1,4.9-2.2,2.9-0.9C-19.8,2.1-21.6,1.7-22.8,1z"/>
					<path class="st0" d="M-10.3-0.1c2.1,0.8,3.4,1,3.1,0.3l-2.4-1.3L-10.3-0.1z"/>
					<path class="st0" d="M32.5,4.1c-0.1-0.3,0.6-0.5,1-0.4c-0.3,1.2,1.6,1.5,0.8,2.5c-0.3,0.4-1.1,0.4-1.5,1
						C32.6,6,32.9,5.4,32.5,4.1z"/>
					<path class="st0" d="M8.2,11.1c1.4,0.7,2.2-0.3,3.2-1.1C10.1,9.8,9.2,10.5,8.2,11.1z"/>
					<path class="st0" d="M9.1-9.6c1.1,0.4,1.5-0.5,2.1-1.1C10.2-11,9.7-10.4,9.1-9.6z"/>
					<path class="st0" d="M16,11.5c0.7,0.5,0.9,1.3,1.1,2.1c0.7-0.4,0.8-1.1,0.4-1.5C17.1,11.7,16.5,11.6,16,11.5z"/>
					<path class="st0" d="M3.6,3.6c1.2-1.2-0.7-0.9-0.8-1.5C3.1,2.6,3.4,3.1,3.6,3.6z"/>
					<path class="st0" d="M22-10.1C22.7-9.6,22.8-8.8,23-8c0.7-0.4,0.8-1.1,0.5-1.5C23.1-9.9,22.5-10,22-10.1z"/>
					<path class="st0" d="M27.3,0.7c0.6,0.7,1.4,0.7,2.2,0.7c-0.3,0.7-1,1-1.4,0.7C27.7,1.8,27.6,1.2,27.3,0.7z"/>
					<path class="st0" d="M20.4,3.5c-1.2,1,0.2,1.1,0.5,1.6C20.8,4.6,20.6,4,20.4,3.5z"/>
					<path class="st0" d="M-14.5-15.1c1.1-0.7,1.6,0.3,1.9,0.9c0.1,0.2-0.3,0.8-0.3,0.8c1.2,1.2,2.4-0.4,3.7-0.6
						c-0.5,0.2-1.1,0.6-1.3,0.4c-1.4-0.9-4-2.3-2.7-4.5c-0.4,1.5-2.8,1.5-2.7,3.5C-15.4-14.7-15-14.8-14.5-15.1z"/>
					<path class="st0" d="M-14.5,4.5c1.1-0.7,1.6,0.3,1.9,0.9c0.1,0.2-0.3,0.8-0.3,0.8c1.2,1.2,2.4-0.4,3.7-0.6
						c-0.5,0.2-1.1,0.6-1.3,0.4c-1.4-0.9-4-2.3-2.7-4.5c-0.4,1.5-2.8,1.5-2.7,3.5C-15.4,4.9-15,4.8-14.5,4.5z"/>
					<path class="st0" d="M-5.7,8.7c-1.2,1,0.2,1.1,0.5,1.6C-5.3,9.7-5.5,9.2-5.7,8.7z"/>
					<path class="st0" d="M-1.2,12c1.1,0.4,1.5-0.5,2.1-1.1C-0.1,10.6-0.7,11.2-1.2,12z"/>
					<path class="st0" d="M5.9-9.4C4.6-8.4,6-8.2,6.4-7.8C6.2-8.3,6-8.8,5.9-9.4z"/>
					<path class="st0" d="M-7.6-14.4c0.5,0.3,0.5,0.9,0.6,1.5c0.5-0.3,0.7-0.9,0.4-1.2C-6.8-14.3-7.2-14.3-7.6-14.4z"/>
					<path class="st0" d="M-11.6-11.8c-3.4-2.7-0.4,0.4-0.6,0.6c0.7-0.3,1.4-1.1,2.1,0C-10.6-11.4-11.2-11.4-11.6-11.8z"/>
					<path class="st0" d="M-16.5,2.9c2.3-1.2,1.2,0.8,3.6-0.9c0.4-1.3-0.8-2.4-1.9-3.3c-0.3-0.2-1.4-0.4-1.8-0.7
						c0.3,0.5,0.6,1,0.8,1.4c0.3,0.5,1.2,1.4,1.2,1.5C-15.1,2.4-16.5,2.9-16.5,2.9z"/>
					<path class="st0" d="M-22.3-2.7c-0.7-1.1,0.4-1.6,1.1-1.7c0.5-0.1,1.3,0.5,1,1.1c-0.4,0.6-1.6,0.5-0.7,2.6
						C-21.5-1.4-21.9-2-22.3-2.7z"/>
				</g>
				<path class="st0" d="M-31.8,12.8c-0.5-0.3-0.1-1.7,0.5-2.4c0.7-0.7,1.8-0.8,3.1-0.1c-0.7-0.5-1.2-1.5-0.9-2.1
					c0.6-1.4,2.7,0.8,3.4-0.7c0.2-0.4-0.1-1.2-0.5-1.4c-0.4-0.2-1.1,0.1-1.5,0.5c-0.2,0.2,0,0.9-0.1,0.9c-1.6,0.6-2.9,2.2-4.7,1.6
					c-0.4-0.1-0.7-0.6-1.1-1c-0.5,0.6-1.7,1.3-0.9,2c0.7,0.6,2.1,0.7,2.4,1.8"/>
			</g>
		</g>
	</g>
</symbol>
<g>
	<line class="st1" x1="58" y1="135.5" x2="58" y2="143.3"/>
	<line class="st1" x1="57.7" y1="135.3" x2="57.7" y2="143.4"/>
	<polygon class="st1" points="9.3,125.5 53.6,147.9 128.7,110.1 128.9,101.4 87,82.2 9.3,121.4 	"/>
	<polygon class="st1" points="9.3,126.2 9.4,117.7 53.7,139.3 53.5,147.9 	"/>
	<polygon class="st1" points="0,128.3 0,135.3 53.8,162.5 144.7,116.8 144.5,109.5 53.8,154.7 	"/>
	<polygon class="st2" points="53.5,154.7 144.7,109.5 90.8,83.3 0.2,127.7 	"/>
	<polygon class="st1" points="9.3,125.5 53.4,148.3 130.3,109.2 130.4,100.5 87,82.2 9.3,121.4 	"/>
	<polygon class="st3" points="9.3,126.2 9.4,117.7 53.4,139.9 53.4,148.3 	"/>
	<polygon class="st3" points="0.3,127.7 0.3,136.2 53.4,162.9 145,116.5 144.8,109.3 53.5,154.7 	"/>
	<path class="st4" d="M9.5,117.6c0,0,43.8,22.2,43.8,22.2l77.4-39.6L86.4,78.8L9.5,117.6z"/>
	<line class="st3" x1="53.2" y1="154.5" x2="53.2" y2="162.9"/>
	<g>
		<path class="st5" d="M81.9,42.7l0.1-8L74.8,31l0,8.2L81.9,42.7z M78.8,37.8c-0.3,0.2-0.9,0.1-1.2-0.4c-0.3-0.5-0.3-1,0-1.3
			c0.3-0.2,0.9-0.1,1.2,0.4C79.1,37,79.1,37.6,78.8,37.8z"/>
		<path class="st5" d="M81.2,43.3l0.1-8l-7.3-3.7l0,8.2L81.2,43.3z M78.1,38.4c-0.3,0.2-0.9,0.1-1.2-0.4c-0.3-0.5-0.3-1,0-1.3
			c0.3-0.2,0.9-0.1,1.2,0.4C78.4,37.5,78.4,38.1,78.1,38.4z"/>
		<polygon class="st5" points="74.1,31.6 74.8,31 82,34.7 81.9,42.7 81.2,43.3 81.3,35.3 		"/>
	</g>
	<polygon class="st1" points="120.9,16.3 120.9,72.4 109.5,78 109.3,22.1 	"/>
	<g>
		<polygon class="st6" points="82.3,62.1 108.4,76.6 107.9,21.6 82.6,10 		"/>
		<g>
			<defs>
				<polygon id="SVGID_1_" points="82.3,62.1 108.4,76.6 107.9,21.6 82.6,10 				"/>
			</defs>
			<clipPath id="SVGID_2_">
				<use xlink:href="#SVGID_1_"  style="overflow:visible;"/>
			</clipPath>
			<g class="st7">
				
					<use xlink:href="#Mezzotint_2"  width="80.1" height="50" x="-40.1" y="-24.9" transform="matrix(0.162 0 0 -0.162 97.3366 33.1241)" style="overflow:visible;"/>
				
					<use xlink:href="#Mezzotint_2"  width="80.1" height="50" x="-40.1" y="-24.9" transform="matrix(0.162 0 0 -0.162 94.483 36.9859)" style="overflow:visible;"/>
				
					<use xlink:href="#Mezzotint_2"  width="80.1" height="50" x="-40.1" y="-24.9" transform="matrix(0.162 0 0 -0.162 103.3529 40.0872)" style="overflow:visible;"/>
				
					<use xlink:href="#Mezzotint_2"  width="80.1" height="50" x="-40.1" y="-24.9" transform="matrix(0.162 0 0 -0.162 98.9544 41.2749)" style="overflow:visible;"/>
				
					<use xlink:href="#Mezzotint_2"  width="80.1" height="50" x="-40.1" y="-24.9" transform="matrix(0.162 0 0 -0.162 101.593 52.6404)" style="overflow:visible;"/>
				
					<use xlink:href="#Mezzotint_2"  width="80.1" height="50" x="-40.1" y="-24.9" transform="matrix(0.162 0 0 -0.162 100.8916 57.0355)" style="overflow:visible;"/>
				
					<use xlink:href="#Mezzotint_2"  width="80.1" height="50" x="-40.1" y="-24.9" transform="matrix(0.162 0 0 -0.162 93.6023 54.1442)" style="overflow:visible;"/>
				
					<use xlink:href="#Mezzotint_2"  width="80.1" height="50" x="-40.1" y="-24.9" transform="matrix(0.162 0 0 -0.162 93.797 48.4644)" style="overflow:visible;"/>
				
					<use xlink:href="#Mezzotint_2"  width="80.1" height="50" x="-40.1" y="-24.9" transform="matrix(0.162 0 0 -0.162 87.5373 38.8122)" style="overflow:visible;"/>
				
					<use xlink:href="#Mezzotint_2"  width="80.1" height="50" x="-40.1" y="-24.9" transform="matrix(0.162 0 0 -0.162 107.8538 35.6318)" style="overflow:visible;"/>
				
					<use xlink:href="#Mezzotint_2"  width="80.1" height="50" x="-40.1" y="-24.9" transform="matrix(0.162 0 0 -0.162 103.79 33.5262)" style="overflow:visible;"/>
				
					<use xlink:href="#Mezzotint_2"  width="80.1" height="50" x="-40.1" y="-24.9" transform="matrix(0.162 0 0 -0.162 99.993 47.3152)" style="overflow:visible;"/>
				
					<use xlink:href="#Mezzotint_2"  width="80.1" height="50" x="-40.1" y="-24.9" transform="matrix(0.162 0 0 -0.162 116.7592 42.2076)" style="overflow:visible;"/>
				
					<use xlink:href="#Mezzotint_2"  width="80.1" height="50" x="-40.1" y="-24.9" transform="matrix(0.162 0 0 -0.162 87.2553 43.8862)" style="overflow:visible;"/>
				
					<use xlink:href="#Mezzotint_2"  width="80.1" height="50" x="-40.1" y="-24.9" transform="matrix(0.162 0 0 -0.162 89.0343 50.2802)" style="overflow:visible;"/>
				
					<use xlink:href="#Mezzotint_2"  width="80.1" height="50" x="-40.1" y="-24.9" transform="matrix(0.162 0 0 -0.162 108.3054 55.9745)" style="overflow:visible;"/>
				
					<use xlink:href="#Mezzotint_2"  width="80.1" height="50" x="-40.1" y="-24.9" transform="matrix(0.162 0 0 -0.162 115.5606 50.4701)" style="overflow:visible;"/>
				
					<use xlink:href="#Mezzotint_2"  width="80.1" height="50" x="-40.1" y="-24.9" transform="matrix(0.162 0 0 -0.162 110.7404 42.8706)" style="overflow:visible;"/>
				
					<use xlink:href="#Mezzotint_2"  width="80.1" height="50" x="-40.1" y="-24.9" transform="matrix(0.162 0 0 -0.162 111.4551 53.0532)" style="overflow:visible;"/>
				
					<use xlink:href="#Mezzotint_2"  width="80.1" height="50" x="-40.1" y="-24.9" transform="matrix(0.162 0 0 -0.162 111.8873 47.2285)" style="overflow:visible;"/>
				
					<use xlink:href="#Mezzotint_2"  width="80.1" height="50" x="-40.1" y="-24.9" transform="matrix(0.162 0 0 -0.162 107.0198 48.4189)" style="overflow:visible;"/>
			</g>
			<g class="st7">
				
					<use xlink:href="#Mezzotint_2"  width="80.1" height="50" x="-40.1" y="-24.9" transform="matrix(0.1199 0.1091 0.1091 -0.1199 102.7543 47.6051)" style="overflow:visible;"/>
				
					<use xlink:href="#Mezzotint_2"  width="80.1" height="50" x="-40.1" y="-24.9" transform="matrix(0.1199 0.1091 0.1091 -0.1199 98.0447 48.5411)" style="overflow:visible;"/>
				
					<use xlink:href="#Mezzotint_2"  width="80.1" height="50" x="-40.1" y="-24.9" transform="matrix(0.1199 0.1091 0.1091 -0.1199 102.5182 56.8044)" style="overflow:visible;"/>
				
					<use xlink:href="#Mezzotint_2"  width="80.1" height="50" x="-40.1" y="-24.9" transform="matrix(0.1199 0.1091 0.1091 -0.1199 98.4656 54.7226)" style="overflow:visible;"/>
				
					<use xlink:href="#Mezzotint_2"  width="80.1" height="50" x="-40.1" y="-24.9" transform="matrix(0.1199 0.1091 0.1091 -0.1199 92.7684 64.905)" style="overflow:visible;"/>
				
					<use xlink:href="#Mezzotint_2"  width="80.1" height="50" x="-40.1" y="-24.9" transform="matrix(0.1199 0.1091 0.1091 -0.1199 89.2917 67.6838)" style="overflow:visible;"/>
				
					<use xlink:href="#Mezzotint_2"  width="80.1" height="50" x="-40.1" y="-24.9" transform="matrix(0.1199 0.1091 0.1091 -0.1199 85.8459 60.6397)" style="overflow:visible;"/>
				
					<use xlink:href="#Mezzotint_2"  width="80.1" height="50" x="-40.1" y="-24.9" transform="matrix(0.1199 0.1091 0.1091 -0.1199 89.8125 56.5696)" style="overflow:visible;"/>
				
					<use xlink:href="#Mezzotint_2"  width="80.1" height="50" x="-40.1" y="-24.9" transform="matrix(0.1199 0.1091 0.1091 -0.1199 91.6782 45.2176)" style="overflow:visible;"/>
				
					<use xlink:href="#Mezzotint_2"  width="80.1" height="50" x="-40.1" y="-24.9" transform="matrix(0.1199 0.1091 0.1091 -0.1199 108.8458 56.5379)" style="overflow:visible;"/>
				
					<use xlink:href="#Mezzotint_2"  width="80.1" height="50" x="-40.1" y="-24.9" transform="matrix(0.1199 0.1091 0.1091 -0.1199 107.2571 52.2456)" style="overflow:visible;"/>
				
					<use xlink:href="#Mezzotint_2"  width="80.1" height="50" x="-40.1" y="-24.9" transform="matrix(0.1199 0.1091 0.1091 -0.1199 95.1687 59.8894)" style="overflow:visible;"/>
				
					<use xlink:href="#Mezzotint_2"  width="80.1" height="50" x="-40.1" y="-24.9" transform="matrix(0.1199 0.1091 0.1091 -0.1199 111.0073 67.395)" style="overflow:visible;"/>
				
					<use xlink:href="#Mezzotint_2"  width="80.1" height="50" x="-40.1" y="-24.9" transform="matrix(0.1199 0.1091 0.1091 -0.1199 88.0549 48.7808)" style="overflow:visible;"/>
				
					<use xlink:href="#Mezzotint_2"  width="80.1" height="50" x="-40.1" y="-24.9" transform="matrix(0.1199 0.1091 0.1091 -0.1199 85.0677 54.7074)" style="overflow:visible;"/>
				
					<use xlink:href="#Mezzotint_2"  width="80.1" height="50" x="-40.1" y="-24.9" transform="matrix(0.1199 0.1091 0.1091 -0.1199 95.4894 71.8884)" style="overflow:visible;"/>
				
					<use xlink:href="#Mezzotint_2"  width="80.1" height="50" x="-40.1" y="-24.9" transform="matrix(0.1199 0.1091 0.1091 -0.1199 104.5601 72.6998)" style="overflow:visible;"/>
				
					<use xlink:href="#Mezzotint_2"  width="80.1" height="50" x="-40.1" y="-24.9" transform="matrix(0.1199 0.1091 0.1091 -0.1199 106.1093 63.8348)" style="overflow:visible;"/>
				
					<use xlink:href="#Mezzotint_2"  width="80.1" height="50" x="-40.1" y="-24.9" transform="matrix(0.1199 0.1091 0.1091 -0.1199 99.7851 71.8474)" style="overflow:visible;"/>
				
					<use xlink:href="#Mezzotint_2"  width="80.1" height="50" x="-40.1" y="-24.9" transform="matrix(0.1199 0.1091 0.1091 -0.1199 104.0247 67.83)" style="overflow:visible;"/>
				
					<use xlink:href="#Mezzotint_2"  width="80.1" height="50" x="-40.1" y="-24.9" transform="matrix(0.1199 0.1091 0.1091 -0.1199 99.6234 65.4347)" style="overflow:visible;"/>
			</g>
			<g class="st7">
				
					<use xlink:href="#Mezzotint_2"  width="80.1" height="50" x="-40.1" y="-24.9" transform="matrix(0.162 0 0 -0.162 90.9743 24.9932)" style="overflow:visible;"/>
				
					<use xlink:href="#Mezzotint_2"  width="80.1" height="50" x="-40.1" y="-24.9" transform="matrix(0.162 0 0 -0.162 88.1207 28.855)" style="overflow:visible;"/>
				
					<use xlink:href="#Mezzotint_2"  width="80.1" height="50" x="-40.1" y="-24.9" transform="matrix(0.162 0 0 -0.162 96.9906 31.9564)" style="overflow:visible;"/>
				
					<use xlink:href="#Mezzotint_2"  width="80.1" height="50" x="-40.1" y="-24.9" transform="matrix(0.162 0 0 -0.162 92.592 33.144)" style="overflow:visible;"/>
				
					<use xlink:href="#Mezzotint_2"  width="80.1" height="50" x="-40.1" y="-24.9" transform="matrix(0.162 0 0 -0.162 95.2307 44.5095)" style="overflow:visible;"/>
				
					<use xlink:href="#Mezzotint_2"  width="80.1" height="50" x="-40.1" y="-24.9" transform="matrix(0.162 0 0 -0.162 94.5293 48.9046)" style="overflow:visible;"/>
				
					<use xlink:href="#Mezzotint_2"  width="80.1" height="50" x="-40.1" y="-24.9" transform="matrix(0.162 0 0 -0.162 87.24 46.0134)" style="overflow:visible;"/>
				
					<use xlink:href="#Mezzotint_2"  width="80.1" height="50" x="-40.1" y="-24.9" transform="matrix(0.162 0 0 -0.162 87.4347 40.3335)" style="overflow:visible;"/>
				
					<use xlink:href="#Mezzotint_2"  width="80.1" height="50" x="-40.1" y="-24.9" transform="matrix(0.162 0 0 -0.162 81.175 30.6813)" style="overflow:visible;"/>
				
					<use xlink:href="#Mezzotint_2"  width="80.1" height="50" x="-40.1" y="-24.9" transform="matrix(0.162 0 0 -0.162 101.4915 27.5009)" style="overflow:visible;"/>
				
					<use xlink:href="#Mezzotint_2"  width="80.1" height="50" x="-40.1" y="-24.9" transform="matrix(0.162 0 0 -0.162 97.4277 25.3953)" style="overflow:visible;"/>
				
					<use xlink:href="#Mezzotint_2"  width="80.1" height="50" x="-40.1" y="-24.9" transform="matrix(0.162 0 0 -0.162 93.6307 39.1843)" style="overflow:visible;"/>
				
					<use xlink:href="#Mezzotint_2"  width="80.1" height="50" x="-40.1" y="-24.9" transform="matrix(0.162 0 0 -0.162 110.3969 34.0767)" style="overflow:visible;"/>
				
					<use xlink:href="#Mezzotint_2"  width="80.1" height="50" x="-40.1" y="-24.9" transform="matrix(0.162 0 0 -0.162 80.893 35.7553)" style="overflow:visible;"/>
				
					<use xlink:href="#Mezzotint_2"  width="80.1" height="50" x="-40.1" y="-24.9" transform="matrix(0.162 0 0 -0.162 82.672 42.1493)" style="overflow:visible;"/>
				
					<use xlink:href="#Mezzotint_2"  width="80.1" height="50" x="-40.1" y="-24.9" transform="matrix(0.162 0 0 -0.162 101.9431 47.8436)" style="overflow:visible;"/>
				
					<use xlink:href="#Mezzotint_2"  width="80.1" height="50" x="-40.1" y="-24.9" transform="matrix(0.162 0 0 -0.162 109.1983 42.3393)" style="overflow:visible;"/>
				
					<use xlink:href="#Mezzotint_2"  width="80.1" height="50" x="-40.1" y="-24.9" transform="matrix(0.162 0 0 -0.162 104.3781 34.7397)" style="overflow:visible;"/>
				
					<use xlink:href="#Mezzotint_2"  width="80.1" height="50" x="-40.1" y="-24.9" transform="matrix(0.162 0 0 -0.162 105.0928 44.9223)" style="overflow:visible;"/>
				
					<use xlink:href="#Mezzotint_2"  width="80.1" height="50" x="-40.1" y="-24.9" transform="matrix(0.162 0 0 -0.162 105.525 39.0977)" style="overflow:visible;"/>
				
					<use xlink:href="#Mezzotint_2"  width="80.1" height="50" x="-40.1" y="-24.9" transform="matrix(0.162 0 0 -0.162 100.6575 40.288)" style="overflow:visible;"/>
			</g>
			<g class="st7">
				
					<use xlink:href="#Mezzotint_2"  width="80.1" height="50" x="-40.1" y="-24.9" transform="matrix(0.162 0 0 -0.162 90.1602 11.0847)" style="overflow:visible;"/>
				
					<use xlink:href="#Mezzotint_2"  width="80.1" height="50" x="-40.1" y="-24.9" transform="matrix(0.162 0 0 -0.162 87.3066 14.9466)" style="overflow:visible;"/>
				
					<use xlink:href="#Mezzotint_2"  width="80.1" height="50" x="-40.1" y="-24.9" transform="matrix(0.162 0 0 -0.162 96.1766 18.0479)" style="overflow:visible;"/>
				
					<use xlink:href="#Mezzotint_2"  width="80.1" height="50" x="-40.1" y="-24.9" transform="matrix(0.162 0 0 -0.162 91.778 19.2355)" style="overflow:visible;"/>
				
					<use xlink:href="#Mezzotint_2"  width="80.1" height="50" x="-40.1" y="-24.9" transform="matrix(0.162 0 0 -0.162 94.4166 30.601)" style="overflow:visible;"/>
				
					<use xlink:href="#Mezzotint_2"  width="80.1" height="50" x="-40.1" y="-24.9" transform="matrix(0.162 0 0 -0.162 93.7152 34.9961)" style="overflow:visible;"/>
				
					<use xlink:href="#Mezzotint_2"  width="80.1" height="50" x="-40.1" y="-24.9" transform="matrix(0.162 0 0 -0.162 86.4259 32.1049)" style="overflow:visible;"/>
				
					<use xlink:href="#Mezzotint_2"  width="80.1" height="50" x="-40.1" y="-24.9" transform="matrix(0.162 0 0 -0.162 86.6207 26.425)" style="overflow:visible;"/>
				
					<use xlink:href="#Mezzotint_2"  width="80.1" height="50" x="-40.1" y="-24.9" transform="matrix(0.162 0 0 -0.162 80.3609 16.7728)" style="overflow:visible;"/>
				
					<use xlink:href="#Mezzotint_2"  width="80.1" height="50" x="-40.1" y="-24.9" transform="matrix(0.162 0 0 -0.162 100.6774 13.5924)" style="overflow:visible;"/>
				
					<use xlink:href="#Mezzotint_2"  width="80.1" height="50" x="-40.1" y="-24.9" transform="matrix(0.162 0 0 -0.162 96.6137 11.4868)" style="overflow:visible;"/>
				
					<use xlink:href="#Mezzotint_2"  width="80.1" height="50" x="-40.1" y="-24.9" transform="matrix(0.162 0 0 -0.162 92.8166 25.2758)" style="overflow:visible;"/>
				
					<use xlink:href="#Mezzotint_2"  width="80.1" height="50" x="-40.1" y="-24.9" transform="matrix(0.162 0 0 -0.162 109.5828 20.1682)" style="overflow:visible;"/>
				
					<use xlink:href="#Mezzotint_2"  width="80.1" height="50" x="-40.1" y="-24.9" transform="matrix(0.162 0 0 -0.162 80.0789 21.8468)" style="overflow:visible;"/>
				
					<use xlink:href="#Mezzotint_2"  width="80.1" height="50" x="-40.1" y="-24.9" transform="matrix(0.162 0 0 -0.162 81.8579 28.2409)" style="overflow:visible;"/>
				
					<use xlink:href="#Mezzotint_2"  width="80.1" height="50" x="-40.1" y="-24.9" transform="matrix(0.162 0 0 -0.162 101.129 33.9351)" style="overflow:visible;"/>
				
					<use xlink:href="#Mezzotint_2"  width="80.1" height="50" x="-40.1" y="-24.9" transform="matrix(0.162 0 0 -0.162 108.3842 28.4308)" style="overflow:visible;"/>
				
					<use xlink:href="#Mezzotint_2"  width="80.1" height="50" x="-40.1" y="-24.9" transform="matrix(0.162 0 0 -0.162 103.5641 20.8312)" style="overflow:visible;"/>
				
					<use xlink:href="#Mezzotint_2"  width="80.1" height="50" x="-40.1" y="-24.9" transform="matrix(0.162 0 0 -0.162 104.2787 31.0138)" style="overflow:visible;"/>
				
					<use xlink:href="#Mezzotint_2"  width="80.1" height="50" x="-40.1" y="-24.9" transform="matrix(0.162 0 0 -0.162 104.7109 25.1892)" style="overflow:visible;"/>
				
					<use xlink:href="#Mezzotint_2"  width="80.1" height="50" x="-40.1" y="-24.9" transform="matrix(0.162 0 0 -0.162 99.8435 26.3795)" style="overflow:visible;"/>
			</g>
		</g>
	</g>
	<polygon class="st1" points="109.6,21.9 81.8,8.3 93.7,2.4 121,16.1 	"/>
	<path class="st8" d="M109.6,21.9L81.4,8.1l0,55.3l28,13.9L109.6,21.9z M82.9,62.6l-0.1-52.1L108,22.7l0,52.2L82.9,62.6z"/>
	<g>
		<path class="st5" d="M117.5,58.3l0.1-8l-7.3-3.7l0,8.2L117.5,58.3z M114.3,53.4c-0.3,0.2-0.9,0.1-1.2-0.4c-0.3-0.5-0.3-1,0-1.3
			c0.3-0.2,0.9-0.1,1.2,0.4C114.7,52.6,114.7,53.1,114.3,53.4z"/>
		<path class="st5" d="M116.8,58.9l0.1-8l-7.3-3.7l0,8.2L116.8,58.9z M113.6,53.9c-0.3,0.2-0.9,0.1-1.2-0.4c-0.3-0.5-0.3-1,0-1.3
			c0.3-0.2,0.9-0.1,1.2,0.4S114,53.7,113.6,53.9z"/>
		<polygon class="st5" points="109.6,47.2 110.3,46.6 117.6,50.3 117.5,58.3 116.8,58.9 116.9,50.9 		"/>
	</g>
	<path class="st0" d="M89.6,28.8c-4.4,8.8,0.2,25.4,1.9,29.4s12.6,0.5,11.1-17.7C101,22.3,94,20.1,89.6,28.8z"/>
	<path class="st0" d="M91.3,33.2c-3,5.8,0.1,16.9,1.3,19.6c1.1,2.7,8.4,0.3,7.4-11.8S94.3,27.4,91.3,33.2z"/>
	<circle class="st5" cx="95.3" cy="41.3" r="1.4"/>
	<polygon class="st8" points="108.3,93.6 80.8,79.2 80.8,91.1 108.2,105.5 	"/>
	<g>
		<path class="st5" d="M50.6,87.2l-8.3,4.1l7.3,3.7l8.2-4.2L50.6,87.2z M50.4,91.5c-0.6,0-1-0.3-1-0.7s0.5-0.7,1-0.7s1,0.3,1,0.7
			S51,91.5,50.4,91.5z"/>
		<path class="st5" d="M50.6,86.4l-8.3,4.1l7.3,3.7l8.2-4.2L50.6,86.4z M50.4,90.7c-0.6,0-1-0.3-1-0.7s0.5-0.7,1-0.7s1,0.3,1,0.7
			S51,90.7,50.4,90.7z"/>
		<polygon class="st5" points="42.4,90.5 42.4,91.3 49.6,95 49.6,94.2 		"/>
		<polygon class="st5" points="49.6,94.2 57.9,90 57.9,90.8 49.6,95 		"/>
	</g>
	<polygon class="st8" points="25.4,118.3 80.6,91.2 80.7,78.3 25.4,105.9 	"/>
	<polygon class="st1" points="53,132.7 108.3,105.1 108.4,92.6 53.1,119.7 	"/>
	<polygon class="st1" points="53,120.4 25.5,106 25.5,118.7 52.9,132.6 	"/>
	<g>
		<path class="st5" d="M84.6,105l-8.3,4.1l7.3,3.7l8.2-4.2L84.6,105z M84.4,109.4c-0.6,0-1-0.3-1-0.7s0.5-0.7,1-0.7s1,0.3,1,0.7
			S84.9,109.4,84.4,109.4z"/>
		<path class="st5" d="M84.6,104.2l-8.3,4.1l7.3,3.7l8.2-4.2L84.6,104.2z M84.4,108.6c-0.6,0-1-0.3-1-0.7s0.5-0.7,1-0.7s1,0.3,1,0.7
			S84.9,108.6,84.4,108.6z"/>
		<polygon class="st5" points="76.3,108.4 76.3,109.1 83.6,112.8 83.6,112 		"/>
		<polygon class="st5" points="83.6,112 91.9,107.8 91.9,108.6 83.6,112.8 		"/>
	</g>
	<path class="st8" d="M80.1,78.3l-55.2,28.1l28.2,13.9l55.3-27.8L80.1,78.3z M28.5,106.4L80,80l24.8,12.6l-51.9,26L28.5,106.4z"/>
	<g>
		<polygon class="st6" points="79.8,79.9 104.2,92.2 52.9,118.3 28.7,106.2 		"/>
		<g>
			<defs>
				<polygon id="SVGID_3_" points="79.8,79.9 104.2,92.2 52.9,118.3 28.7,106.2 				"/>
			</defs>
			<clipPath id="SVGID_4_">
				<use xlink:href="#SVGID_3_"  style="overflow:visible;"/>
			</clipPath>
			<g class="st9">
				
					<use xlink:href="#Mezzotint_2"  width="80.1" height="50" x="-40.1" y="-24.9" transform="matrix(0.162 0 0 -0.162 77.2728 81.9894)" style="overflow:visible;"/>
				
					<use xlink:href="#Mezzotint_2"  width="80.1" height="50" x="-40.1" y="-24.9" transform="matrix(0.162 0 0 -0.162 74.4192 85.8512)" style="overflow:visible;"/>
				
					<use xlink:href="#Mezzotint_2"  width="80.1" height="50" x="-40.1" y="-24.9" transform="matrix(0.162 0 0 -0.162 83.2892 88.9526)" style="overflow:visible;"/>
				
					<use xlink:href="#Mezzotint_2"  width="80.1" height="50" x="-40.1" y="-24.9" transform="matrix(0.162 0 0 -0.162 78.8906 90.1402)" style="overflow:visible;"/>
				
					<use xlink:href="#Mezzotint_2"  width="80.1" height="50" x="-40.1" y="-24.9" transform="matrix(0.162 0 0 -0.162 81.5292 101.5057)" style="overflow:visible;"/>
				
					<use xlink:href="#Mezzotint_2"  width="80.1" height="50" x="-40.1" y="-24.9" transform="matrix(0.162 0 0 -0.162 80.8278 105.9008)" style="overflow:visible;"/>
				
					<use xlink:href="#Mezzotint_2"  width="80.1" height="50" x="-40.1" y="-24.9" transform="matrix(0.162 0 0 -0.162 73.5385 103.0096)" style="overflow:visible;"/>
				
					<use xlink:href="#Mezzotint_2"  width="80.1" height="50" x="-40.1" y="-24.9" transform="matrix(0.162 0 0 -0.162 73.7333 97.3297)" style="overflow:visible;"/>
				
					<use xlink:href="#Mezzotint_2"  width="80.1" height="50" x="-40.1" y="-24.9" transform="matrix(0.162 0 0 -0.162 67.4735 87.6775)" style="overflow:visible;"/>
				
					<use xlink:href="#Mezzotint_2"  width="80.1" height="50" x="-40.1" y="-24.9" transform="matrix(0.162 0 0 -0.162 87.79 84.4971)" style="overflow:visible;"/>
				
					<use xlink:href="#Mezzotint_2"  width="80.1" height="50" x="-40.1" y="-24.9" transform="matrix(0.162 0 0 -0.162 83.7263 82.3915)" style="overflow:visible;"/>
				
					<use xlink:href="#Mezzotint_2"  width="80.1" height="50" x="-40.1" y="-24.9" transform="matrix(0.162 0 0 -0.162 79.9292 96.1805)" style="overflow:visible;"/>
				
					<use xlink:href="#Mezzotint_2"  width="80.1" height="50" x="-40.1" y="-24.9" transform="matrix(0.162 0 0 -0.162 96.6954 91.0729)" style="overflow:visible;"/>
				
					<use xlink:href="#Mezzotint_2"  width="80.1" height="50" x="-40.1" y="-24.9" transform="matrix(0.162 0 0 -0.162 67.1915 92.7515)" style="overflow:visible;"/>
				
					<use xlink:href="#Mezzotint_2"  width="80.1" height="50" x="-40.1" y="-24.9" transform="matrix(0.162 0 0 -0.162 68.9705 99.1455)" style="overflow:visible;"/>
				
					<use xlink:href="#Mezzotint_2"  width="80.1" height="50" x="-40.1" y="-24.9" transform="matrix(0.162 0 0 -0.162 88.2416 104.8398)" style="overflow:visible;"/>
				
					<use xlink:href="#Mezzotint_2"  width="80.1" height="50" x="-40.1" y="-24.9" transform="matrix(0.162 0 0 -0.162 95.4968 99.3355)" style="overflow:visible;"/>
				
					<use xlink:href="#Mezzotint_2"  width="80.1" height="50" x="-40.1" y="-24.9" transform="matrix(0.162 0 0 -0.162 90.6767 91.7359)" style="overflow:visible;"/>
				
					<use xlink:href="#Mezzotint_2"  width="80.1" height="50" x="-40.1" y="-24.9" transform="matrix(0.162 0 0 -0.162 91.3913 101.9185)" style="overflow:visible;"/>
				
					<use xlink:href="#Mezzotint_2"  width="80.1" height="50" x="-40.1" y="-24.9" transform="matrix(0.162 0 0 -0.162 91.8235 96.0939)" style="overflow:visible;"/>
				
					<use xlink:href="#Mezzotint_2"  width="80.1" height="50" x="-40.1" y="-24.9" transform="matrix(0.162 0 0 -0.162 86.9561 97.2842)" style="overflow:visible;"/>
			</g>
			<g class="st9">
				
					<use xlink:href="#Mezzotint_2"  width="80.1" height="50" x="-40.1" y="-24.9" transform="matrix(0.162 0 0 -0.162 44.6492 94.2062)" style="overflow:visible;"/>
				
					<use xlink:href="#Mezzotint_2"  width="80.1" height="50" x="-40.1" y="-24.9" transform="matrix(0.162 0 0 -0.162 41.7956 98.068)" style="overflow:visible;"/>
				
					<use xlink:href="#Mezzotint_2"  width="80.1" height="50" x="-40.1" y="-24.9" transform="matrix(0.162 0 0 -0.162 50.6655 101.1694)" style="overflow:visible;"/>
				
					<use xlink:href="#Mezzotint_2"  width="80.1" height="50" x="-40.1" y="-24.9" transform="matrix(0.162 0 0 -0.162 46.267 102.357)" style="overflow:visible;"/>
				
					<use xlink:href="#Mezzotint_2"  width="80.1" height="50" x="-40.1" y="-24.9" transform="matrix(0.162 0 0 -0.162 48.9056 113.7225)" style="overflow:visible;"/>
				
					<use xlink:href="#Mezzotint_2"  width="80.1" height="50" x="-40.1" y="-24.9" transform="matrix(0.162 0 0 -0.162 48.2042 118.1176)" style="overflow:visible;"/>
				
					<use xlink:href="#Mezzotint_2"  width="80.1" height="50" x="-40.1" y="-24.9" transform="matrix(0.162 0 0 -0.162 40.9149 115.2264)" style="overflow:visible;"/>
				
					<use xlink:href="#Mezzotint_2"  width="80.1" height="50" x="-40.1" y="-24.9" transform="matrix(0.162 0 0 -0.162 41.1096 109.5465)" style="overflow:visible;"/>
				
					<use xlink:href="#Mezzotint_2"  width="80.1" height="50" x="-40.1" y="-24.9" transform="matrix(0.162 0 0 -0.162 34.8499 99.8943)" style="overflow:visible;"/>
				
					<use xlink:href="#Mezzotint_2"  width="80.1" height="50" x="-40.1" y="-24.9" transform="matrix(0.162 0 0 -0.162 55.1664 96.7139)" style="overflow:visible;"/>
				
					<use xlink:href="#Mezzotint_2"  width="80.1" height="50" x="-40.1" y="-24.9" transform="matrix(0.162 0 0 -0.162 51.1026 94.6083)" style="overflow:visible;"/>
				
					<use xlink:href="#Mezzotint_2"  width="80.1" height="50" x="-40.1" y="-24.9" transform="matrix(0.162 0 0 -0.162 47.3056 108.3973)" style="overflow:visible;"/>
				
					<use xlink:href="#Mezzotint_2"  width="80.1" height="50" x="-40.1" y="-24.9" transform="matrix(0.162 0 0 -0.162 64.0718 103.2897)" style="overflow:visible;"/>
				
					<use xlink:href="#Mezzotint_2"  width="80.1" height="50" x="-40.1" y="-24.9" transform="matrix(0.162 0 0 -0.162 34.5679 104.9683)" style="overflow:visible;"/>
				
					<use xlink:href="#Mezzotint_2"  width="80.1" height="50" x="-40.1" y="-24.9" transform="matrix(0.162 0 0 -0.162 36.3469 111.3623)" style="overflow:visible;"/>
				
					<use xlink:href="#Mezzotint_2"  width="80.1" height="50" x="-40.1" y="-24.9" transform="matrix(0.162 0 0 -0.162 55.618 117.0566)" style="overflow:visible;"/>
				
					<use xlink:href="#Mezzotint_2"  width="80.1" height="50" x="-40.1" y="-24.9" transform="matrix(0.162 0 0 -0.162 62.8732 111.5523)" style="overflow:visible;"/>
				
					<use xlink:href="#Mezzotint_2"  width="80.1" height="50" x="-40.1" y="-24.9" transform="matrix(0.162 0 0 -0.162 58.053 103.9527)" style="overflow:visible;"/>
				
					<use xlink:href="#Mezzotint_2"  width="80.1" height="50" x="-40.1" y="-24.9" transform="matrix(0.162 0 0 -0.162 58.7677 114.1353)" style="overflow:visible;"/>
				
					<use xlink:href="#Mezzotint_2"  width="80.1" height="50" x="-40.1" y="-24.9" transform="matrix(0.162 0 0 -0.162 59.1999 108.3107)" style="overflow:visible;"/>
				
					<use xlink:href="#Mezzotint_2"  width="80.1" height="50" x="-40.1" y="-24.9" transform="matrix(0.162 0 0 -0.162 54.3324 109.501)" style="overflow:visible;"/>
			</g>
			<g class="st9">
				
					<use xlink:href="#Mezzotint_2"  width="80.1" height="50" x="-40.1" y="-24.9" transform="matrix(0.162 0 0 -0.162 65.0792 91.606)" style="overflow:visible;"/>
				
					<use xlink:href="#Mezzotint_2"  width="80.1" height="50" x="-40.1" y="-24.9" transform="matrix(0.162 0 0 -0.162 62.2256 95.4679)" style="overflow:visible;"/>
				
					<use xlink:href="#Mezzotint_2"  width="80.1" height="50" x="-40.1" y="-24.9" transform="matrix(0.162 0 0 -0.162 71.0955 98.5692)" style="overflow:visible;"/>
				
					<use xlink:href="#Mezzotint_2"  width="80.1" height="50" x="-40.1" y="-24.9" transform="matrix(0.162 0 0 -0.162 66.697 99.7568)" style="overflow:visible;"/>
				
					<use xlink:href="#Mezzotint_2"  width="80.1" height="50" x="-40.1" y="-24.9" transform="matrix(0.162 0 0 -0.162 69.3356 111.1224)" style="overflow:visible;"/>
				
					<use xlink:href="#Mezzotint_2"  width="80.1" height="50" x="-40.1" y="-24.9" transform="matrix(0.162 0 0 -0.162 68.6342 115.5174)" style="overflow:visible;"/>
				
					<use xlink:href="#Mezzotint_2"  width="80.1" height="50" x="-40.1" y="-24.9" transform="matrix(0.162 0 0 -0.162 61.3449 112.6262)" style="overflow:visible;"/>
				
					<use xlink:href="#Mezzotint_2"  width="80.1" height="50" x="-40.1" y="-24.9" transform="matrix(0.162 0 0 -0.162 61.5396 106.9463)" style="overflow:visible;"/>
				
					<use xlink:href="#Mezzotint_2"  width="80.1" height="50" x="-40.1" y="-24.9" transform="matrix(0.162 0 0 -0.162 55.2799 97.2941)" style="overflow:visible;"/>
				
					<use xlink:href="#Mezzotint_2"  width="80.1" height="50" x="-40.1" y="-24.9" transform="matrix(0.162 0 0 -0.162 75.5964 94.1137)" style="overflow:visible;"/>
				
					<use xlink:href="#Mezzotint_2"  width="80.1" height="50" x="-40.1" y="-24.9" transform="matrix(0.162 0 0 -0.162 71.5326 92.0081)" style="overflow:visible;"/>
				
					<use xlink:href="#Mezzotint_2"  width="80.1" height="50" x="-40.1" y="-24.9" transform="matrix(0.162 0 0 -0.162 67.7356 105.7971)" style="overflow:visible;"/>
				
					<use xlink:href="#Mezzotint_2"  width="80.1" height="50" x="-40.1" y="-24.9" transform="matrix(0.162 0 0 -0.162 84.5018 100.6895)" style="overflow:visible;"/>
				
					<use xlink:href="#Mezzotint_2"  width="80.1" height="50" x="-40.1" y="-24.9" transform="matrix(0.162 0 0 -0.162 54.9979 102.3681)" style="overflow:visible;"/>
				
					<use xlink:href="#Mezzotint_2"  width="80.1" height="50" x="-40.1" y="-24.9" transform="matrix(0.162 0 0 -0.162 56.7769 108.7622)" style="overflow:visible;"/>
				
					<use xlink:href="#Mezzotint_2"  width="80.1" height="50" x="-40.1" y="-24.9" transform="matrix(0.162 0 0 -0.162 76.048 114.4564)" style="overflow:visible;"/>
				
					<use xlink:href="#Mezzotint_2"  width="80.1" height="50" x="-40.1" y="-24.9" transform="matrix(0.162 0 0 -0.162 83.3032 108.9521)" style="overflow:visible;"/>
				
					<use xlink:href="#Mezzotint_2"  width="80.1" height="50" x="-40.1" y="-24.9" transform="matrix(0.162 0 0 -0.162 78.483 101.3525)" style="overflow:visible;"/>
				
					<use xlink:href="#Mezzotint_2"  width="80.1" height="50" x="-40.1" y="-24.9" transform="matrix(0.162 0 0 -0.162 79.1977 111.5351)" style="overflow:visible;"/>
				
					<use xlink:href="#Mezzotint_2"  width="80.1" height="50" x="-40.1" y="-24.9" transform="matrix(0.162 0 0 -0.162 79.6299 105.7105)" style="overflow:visible;"/>
				
					<use xlink:href="#Mezzotint_2"  width="80.1" height="50" x="-40.1" y="-24.9" transform="matrix(0.162 0 0 -0.162 74.7624 106.9008)" style="overflow:visible;"/>
			</g>
			<g class="st9">
				
					<use xlink:href="#Mezzotint_2"  width="80.1" height="50" x="-40.1" y="-24.9" transform="matrix(0.162 0 0 -0.162 35.8588 88.3352)" style="overflow:visible;"/>
				
					<use xlink:href="#Mezzotint_2"  width="80.1" height="50" x="-40.1" y="-24.9" transform="matrix(0.162 0 0 -0.162 33.0052 92.197)" style="overflow:visible;"/>
				
					<use xlink:href="#Mezzotint_2"  width="80.1" height="50" x="-40.1" y="-24.9" transform="matrix(0.162 0 0 -0.162 41.8751 95.2984)" style="overflow:visible;"/>
				
					<use xlink:href="#Mezzotint_2"  width="80.1" height="50" x="-40.1" y="-24.9" transform="matrix(0.162 0 0 -0.162 37.4765 96.486)" style="overflow:visible;"/>
				
					<use xlink:href="#Mezzotint_2"  width="80.1" height="50" x="-40.1" y="-24.9" transform="matrix(0.162 0 0 -0.162 40.1152 107.8515)" style="overflow:visible;"/>
				
					<use xlink:href="#Mezzotint_2"  width="80.1" height="50" x="-40.1" y="-24.9" transform="matrix(0.162 0 0 -0.162 39.4138 112.2466)" style="overflow:visible;"/>
				
					<use xlink:href="#Mezzotint_2"  width="80.1" height="50" x="-40.1" y="-24.9" transform="matrix(0.162 0 0 -0.162 32.1245 109.3554)" style="overflow:visible;"/>
				
					<use xlink:href="#Mezzotint_2"  width="80.1" height="50" x="-40.1" y="-24.9" transform="matrix(0.162 0 0 -0.162 32.3192 103.6755)" style="overflow:visible;"/>
				
					<use xlink:href="#Mezzotint_2"  width="80.1" height="50" x="-40.1" y="-24.9" transform="matrix(0.162 0 0 -0.162 26.0595 94.0233)" style="overflow:visible;"/>
				
					<use xlink:href="#Mezzotint_2"  width="80.1" height="50" x="-40.1" y="-24.9" transform="matrix(0.162 0 0 -0.162 46.3759 90.8429)" style="overflow:visible;"/>
				
					<use xlink:href="#Mezzotint_2"  width="80.1" height="50" x="-40.1" y="-24.9" transform="matrix(0.162 0 0 -0.162 42.3122 88.7373)" style="overflow:visible;"/>
				
					<use xlink:href="#Mezzotint_2"  width="80.1" height="50" x="-40.1" y="-24.9" transform="matrix(0.162 0 0 -0.162 38.5152 102.5263)" style="overflow:visible;"/>
				
					<use xlink:href="#Mezzotint_2"  width="80.1" height="50" x="-40.1" y="-24.9" transform="matrix(0.162 0 0 -0.162 55.2814 97.4187)" style="overflow:visible;"/>
				
					<use xlink:href="#Mezzotint_2"  width="80.1" height="50" x="-40.1" y="-24.9" transform="matrix(0.162 0 0 -0.162 25.7774 99.0973)" style="overflow:visible;"/>
				
					<use xlink:href="#Mezzotint_2"  width="80.1" height="50" x="-40.1" y="-24.9" transform="matrix(0.162 0 0 -0.162 27.5565 105.4913)" style="overflow:visible;"/>
				
					<use xlink:href="#Mezzotint_2"  width="80.1" height="50" x="-40.1" y="-24.9" transform="matrix(0.162 0 0 -0.162 46.8275 111.1856)" style="overflow:visible;"/>
				
					<use xlink:href="#Mezzotint_2"  width="80.1" height="50" x="-40.1" y="-24.9" transform="matrix(0.162 0 0 -0.162 54.0828 105.6813)" style="overflow:visible;"/>
				
					<use xlink:href="#Mezzotint_2"  width="80.1" height="50" x="-40.1" y="-24.9" transform="matrix(0.162 0 0 -0.162 49.2626 98.0817)" style="overflow:visible;"/>
				
					<use xlink:href="#Mezzotint_2"  width="80.1" height="50" x="-40.1" y="-24.9" transform="matrix(0.162 0 0 -0.162 49.9773 108.2643)" style="overflow:visible;"/>
				
					<use xlink:href="#Mezzotint_2"  width="80.1" height="50" x="-40.1" y="-24.9" transform="matrix(0.162 0 0 -0.162 50.4095 102.4397)" style="overflow:visible;"/>
				
					<use xlink:href="#Mezzotint_2"  width="80.1" height="50" x="-40.1" y="-24.9" transform="matrix(0.162 0 0 -0.162 45.542 103.63)" style="overflow:visible;"/>
			</g>
			<g class="st9">
				
					<use xlink:href="#Mezzotint_2"  width="80.1" height="50" x="-40.1" y="-24.9" transform="matrix(0.162 0 0 -0.162 73.3924 76.9369)" style="overflow:visible;"/>
				
					<use xlink:href="#Mezzotint_2"  width="80.1" height="50" x="-40.1" y="-24.9" transform="matrix(0.162 0 0 -0.162 70.5388 80.7988)" style="overflow:visible;"/>
				
					<use xlink:href="#Mezzotint_2"  width="80.1" height="50" x="-40.1" y="-24.9" transform="matrix(0.162 0 0 -0.162 79.4088 83.9001)" style="overflow:visible;"/>
				
					<use xlink:href="#Mezzotint_2"  width="80.1" height="50" x="-40.1" y="-24.9" transform="matrix(0.162 0 0 -0.162 75.0102 85.0877)" style="overflow:visible;"/>
				
					<use xlink:href="#Mezzotint_2"  width="80.1" height="50" x="-40.1" y="-24.9" transform="matrix(0.162 0 0 -0.162 77.6488 96.4533)" style="overflow:visible;"/>
				
					<use xlink:href="#Mezzotint_2"  width="80.1" height="50" x="-40.1" y="-24.9" transform="matrix(0.162 0 0 -0.162 76.9474 100.8483)" style="overflow:visible;"/>
				
					<use xlink:href="#Mezzotint_2"  width="80.1" height="50" x="-40.1" y="-24.9" transform="matrix(0.162 0 0 -0.162 69.6581 97.9571)" style="overflow:visible;"/>
				
					<use xlink:href="#Mezzotint_2"  width="80.1" height="50" x="-40.1" y="-24.9" transform="matrix(0.162 0 0 -0.162 69.8529 92.2772)" style="overflow:visible;"/>
				
					<use xlink:href="#Mezzotint_2"  width="80.1" height="50" x="-40.1" y="-24.9" transform="matrix(0.162 0 0 -0.162 63.5931 82.625)" style="overflow:visible;"/>
				
					<use xlink:href="#Mezzotint_2"  width="80.1" height="50" x="-40.1" y="-24.9" transform="matrix(0.162 0 0 -0.162 83.9096 79.4446)" style="overflow:visible;"/>
				
					<use xlink:href="#Mezzotint_2"  width="80.1" height="50" x="-40.1" y="-24.9" transform="matrix(0.162 0 0 -0.162 79.8459 77.339)" style="overflow:visible;"/>
				
					<use xlink:href="#Mezzotint_2"  width="80.1" height="50" x="-40.1" y="-24.9" transform="matrix(0.162 0 0 -0.162 76.0488 91.128)" style="overflow:visible;"/>
				
					<use xlink:href="#Mezzotint_2"  width="80.1" height="50" x="-40.1" y="-24.9" transform="matrix(0.162 0 0 -0.162 92.815 86.0204)" style="overflow:visible;"/>
				
					<use xlink:href="#Mezzotint_2"  width="80.1" height="50" x="-40.1" y="-24.9" transform="matrix(0.162 0 0 -0.162 63.3111 87.699)" style="overflow:visible;"/>
				
					<use xlink:href="#Mezzotint_2"  width="80.1" height="50" x="-40.1" y="-24.9" transform="matrix(0.162 0 0 -0.162 65.0901 94.0931)" style="overflow:visible;"/>
				
					<use xlink:href="#Mezzotint_2"  width="80.1" height="50" x="-40.1" y="-24.9" transform="matrix(0.162 0 0 -0.162 84.3612 99.7873)" style="overflow:visible;"/>
				
					<use xlink:href="#Mezzotint_2"  width="80.1" height="50" x="-40.1" y="-24.9" transform="matrix(0.162 0 0 -0.162 91.6164 94.283)" style="overflow:visible;"/>
				
					<use xlink:href="#Mezzotint_2"  width="80.1" height="50" x="-40.1" y="-24.9" transform="matrix(0.162 0 0 -0.162 86.7963 86.6834)" style="overflow:visible;"/>
				
					<use xlink:href="#Mezzotint_2"  width="80.1" height="50" x="-40.1" y="-24.9" transform="matrix(0.162 0 0 -0.162 87.5109 96.866)" style="overflow:visible;"/>
				
					<use xlink:href="#Mezzotint_2"  width="80.1" height="50" x="-40.1" y="-24.9" transform="matrix(0.162 0 0 -0.162 87.9431 91.0414)" style="overflow:visible;"/>
				
					<use xlink:href="#Mezzotint_2"  width="80.1" height="50" x="-40.1" y="-24.9" transform="matrix(0.162 0 0 -0.162 83.0757 92.2317)" style="overflow:visible;"/>
			</g>
		</g>
	</g>
	<g>
		<polygon class="st8" points="21.6,94.1 21.3,118 30.6,113.4 30.6,89.7 		"/>
		<path class="st1" d="M30,97.8l-9.1-4.9l0.1,25l8.9,4.3C30,122.3,30,97.3,30,97.8z"/>
		<polygon class="st5" points="31.2,97 29.9,97.8 29.9,122.3 31.1,121.6 		"/>
		<polygon class="st8" points="29.6,89.1 21,93.3 29.9,97.8 31.1,97 23.5,93.2 30.8,89.6 		"/>
	</g>
	<g>
		<polygon class="st8" points="108,82.3 108.2,106.2 99,101.7 99,78 		"/>
		<path class="st1" d="M99.5,86l9.1-4.9l-0.1,25l-8.9,4.3C99.6,110.5,99.5,85.6,99.5,86z"/>
		<polygon class="st5" points="98.4,85.3 99.7,86 99.7,110.6 98.5,109.8 		"/>
		<polygon class="st8" points="100,77.3 108.6,81.6 99.7,86 98.4,85.3 106.1,81.5 98.7,77.9 		"/>
	</g>
	<path class="st10" d="M77.3,90.5c-8.8-1-21.4,8.3-24.3,11c-2.9,2.7,3.6,10.8,18.5,3.7C86.5,98.1,86.1,91.4,77.3,90.5z"/>
	<path class="st2" d="M74.1,87.6c-6.9-0.7-16.6,6.4-18.9,8.5c-2.2,2.1,2.8,8.4,14.4,2.9C81.2,93.5,81,88.4,74.1,87.6z"/>
	<g>
		<path class="st10" d="M50,43c-2.3-1.4-1.2-6.6-3.2-7.1c-1.5-0.4-20.6,2-23.5,2.8c-3,0.8-3.8,1-4.7,2.4c-0.9,1.6-1.9,5.4-3.7,7.8
			c-1.8,2.4-2.8,4.8-5.2,7.8c-2.9,3,5,17.4,7,18.4c2,1,7.9,3.2,22.9,1.2c15.1-2,20.7-6.9,23-8.8s3.3-13.4,3.4-16.5
			c0.1-3-2.6-4.6-5.3-5.9c-1.3-0.6-2.5-1.8-5.7-2C51.7,43.1,51.2,43.7,50,43z"/>
		<path class="st10" d="M65.2,48.5c0.8,1.9,0.6,4.6-1.5,7c-2.1,2.5-8.6,6.9-15.6,9s-9.9,2.3-14,2.7s-8.5,0.7-14.3-0.4
			S9.2,63.4,8.4,59.3c0.1-1.7,0.4-3,1.8-4.5c2.9-3.1,2.5-2.5,4.7-4.8c2.2-2.4,3.2-6.8,4.9-8.9s26-4.3,26-4.3s1.2-0.2,1.7,0.6
			s0.6,5.8,3.3,6.1c1.5,0.2,3.9,0.1,7.3,0.6C61.7,44.4,64.4,46.6,65.2,48.5z"/>
		
			<linearGradient id="SVGID_5_" gradientUnits="userSpaceOnUse" x1="-4.4674" y1="-24.316" x2="48.5455" y2="-24.316" gradientTransform="matrix(0.9985 -5.201441e-02 4.825360e-02 0.9859 16.277 82.0272)">
			<stop  offset="0" style="stop-color:#E4DAD8"/>
			<stop  offset="1" style="stop-color:#CCB9B9"/>
		</linearGradient>
		<path class="st11" d="M63.4,51.6c0.8,4.9-9.8,11.2-24.3,13.7c-14.5,2.5-27.4,0.2-28.2-4.7s10.3-9.5,24.8-12S62.5,46.8,63.4,51.6z"
			/>
	</g>
	<linearGradient id="SVGID_6_" gradientUnits="userSpaceOnUse" x1="51.8014" y1="98.6116" x2="84.076" y2="98.6116">
		<stop  offset="0" style="stop-color:#E4DAD8"/>
		<stop  offset="1" style="stop-color:#CCB9B9"/>
	</linearGradient>
	<path class="st12" d="M54.9,96.6c0.6-0.6-3.3,4.5-3.1,6.4c0.2,1.9,1.8,10.8,21.1,2.2s7.9-14.2,7.9-14.2l-3.8-2.7
		c0,0,7.7,2.5-6.7,9.9S54.3,97.2,54.9,96.6z"/>
</g>
</svg>
