<?xml version="1.0" encoding="utf-8"?>
<!-- Generator: Adobe Illustrator 25.2.3, SVG Export Plug-In . SVG Version: 6.00 Build 0)  -->
<svg version="1.1" id="Layer_2" xmlns="http://www.w3.org/2000/svg" xmlns:xlink="http://www.w3.org/1999/xlink" x="0px" y="0px"
	 viewBox="0 0 140 200" style="enable-background:new 0 0 140 200;" xml:space="preserve">
<style type="text/css">
	.st0{fill:none;stroke:#F77441;stroke-width:4.9942;stroke-linecap:round;stroke-miterlimit:10;}
	.st1{fill:none;stroke:#B71549;stroke-width:3.3295;stroke-linecap:round;stroke-miterlimit:10;}
	.st2{fill:none;stroke:#F77441;stroke-width:3.3295;stroke-linecap:round;stroke-miterlimit:10;}
	.st3{fill:#F77441;}
</style>
<path class="st0" d="M60.7,90.4"/>
<path class="st0" d="M57.1,92.3"/>
<line class="st1" x1="34.2" y1="96.4" x2="104.6" y2="132.3"/>
<line class="st1" x1="51.9" y1="87.9" x2="119.3" y2="121.7"/>
<line class="st1" x1="25.7" y1="100.7" x2="96.5" y2="137.6"/>
<line class="st1" x1="42.8" y1="92" x2="112.3" y2="127.4"/>
<path class="st2" d="M18.6,111.6c1.1-1.4,8.1-4.8,13.8-7.8c5.7-3.1,20-10.4,20-10.4L62.7,88"/>
<path class="st2" d="M52.2,129.8c1.1-1.4,8.1-4.8,13.8-7.8c5.7-3.1,20-10.4,20-10.4l11-5.8"/>
<path class="st2" d="M51.1,108c5.8-3.2,15.5-8.8,19.1-10.4c3.8-1.7,6.9-2.7,6.9-2.7"/>
<line class="st1" x1="16.9" y1="105.2" x2="89.2" y2="142.3"/>
<g>
	<path class="st3" d="M63.2,95.4c-1.9,1-3.9,2.4-5,3.4c-2.1,1.7-7,4.2-11.8,6.6c-2.1,1.1-4.1,2-5.8,2.9c-5.2,2.8-14.3,9-14.4,9
		c-0.3,0.2-0.6,0.3-0.9,0.3c-0.5,0-1.1-0.3-1.4-0.7c-0.5-0.8-0.3-1.8,0.4-2.3c0.4-0.3,9.3-6.4,14.7-9.2c1.7-0.9,3.7-1.9,5.9-3
		c4.4-2.2,9.4-4.6,11.1-6.1c0.9-0.7,2.3-1.7,4-2.7"/>
	<path class="st3" d="M63.4,91.6c2.5-1.2,5.3-2.2,6.8-2.2c0,0,0,0,0,0c0.9,0,1.7,0.7,1.7,1.7c0,0.9-0.7,1.7-1.7,1.7
		c-0.6,0-2,0.3-3.2,0.8"/>
</g>
<g>
	<g>
		<path class="st3" d="M31.1,120.6c-0.6,0-1.2-0.1-1.5-0.6c-0.4-0.8-0.4-1.8,0.5-2.2c0,0,6.3-3.4,8.5-4.4l2.9,1.8l-9.6,5.2
			C31.6,120.5,31.3,120.6,31.1,120.6z"/>
	</g>
	<g>
		<path class="st3" d="M45.5,112.7c-1.9,1.2-4.6,2.9-5,2.9l-3.2-1.7c1.1-0.4,2.9-1.7,4.9-2.9"/>
		<path class="st3" d="M45.5,109.1c1.9-0.9,9-4.6,9-4.6l3.1,1.8c0,0-6.4,3.5-8.7,4.5"/>
	</g>
</g>
<path class="st2" d="M38.6,121.9c1.1-1.4,8.1-4.8,13.8-7.8c5.7-3.1,20-10.4,20-10.4l10.3-5.3"/>
<path class="st2" d="M87.6,126.3c5.7-3.5,15-9.6,18.5-11.4c3.7-1.9,6.8-3,6.8-3"/>
<g>
	<path class="st3" d="M99.3,113.4c-1.9,1.1-5.5,2.8-6.6,3.8c-2,1.8-7,4.3-11.7,6.7c-2.1,1.1-4.1,2.1-5.8,3
		c-5.2,2.8-14.2,9.2-14.2,9.2c-0.3,0.2-0.6,0.3-0.9,0.3c-0.5,0-1.1-0.2-1.4-0.7c-0.5-0.8-0.3-1.8,0.4-2.3c0.4-0.3,9.2-6.5,14.6-9.4
		c1.7-0.9,3.7-2,5.9-3c4.4-2.2,9.4-4.7,11.1-6.2c0.8-0.8,3.6-2.1,5.3-3.1"/>
	<path class="st3" d="M98.7,109.5c2.5-1.2,4.3-1.8,5.8-1.9c0,0,0,0,0,0c0.9,0,1.7,0.7,1.7,1.6c0,0.9-0.7,1.7-1.6,1.7
		c-0.6,0-1-0.1-2.1,0.4"/>
</g>
<g>
	<g>
		<path class="st3" d="M68.3,139.8c-0.6,0-1.2,0-1.5-0.6c-0.5-0.8-0.4-1.8,0.3-2.2c0,0,6.1-3.7,8.2-4.8l3,1.7l-9.3,5.7
			C68.8,139.8,68.5,139.8,68.3,139.8z"/>
	</g>
	<g>
		<path class="st3" d="M81.8,131.7c-1.9,1.2-4,2.6-4.4,2.7l-3.3-1.5c1.1-0.5,2.4-1.4,4.4-2.8"/>
		<path class="st3" d="M81.6,128c1.8-1,9.1-5.6,9.1-5.6l3.3,1.8c0,0-6.6,4.2-8.9,5.4"/>
	</g>
</g>
<path class="st2" d="M75.9,142.3c1-1.4,7.8-5.4,13.2-8.9c5.4-3.5,19.1-12,19.1-12l9.8-6.1"/>
<g>
	<path class="st3" d="M68.5,115.7c-2.9,1.4-5.7,2.6-7.5,3.2c-4,1.4-13.7,7.2-14.7,8.4c-0.3,0.4-0.8,0.6-1.3,0.6
		c-0.4,0-0.8-0.1-1.1-0.4c-0.7-0.6-0.8-1.6-0.2-2.3c1.5-1.8,11.9-8,16.2-9.4c1.3-0.4,2.9-1,4.9-2"/>
</g>
<g>
	<path class="st3" d="M68.7,112.1c3.2-1.7,6.3-3.5,7.5-4.5c2.3-2,11.3-7.9,14.8-8c0,0,0,0,0,0c0.9,0,1.7,0.7,1.7,1.7
		c0,0.9-0.7,1.7-1.7,1.7c-1.8,0-9.6,4.5-12.7,7.2c-1.1,0.9-3.7,2.3-6.4,3.7"/>
</g>
</svg>
