<?xml version="1.0" encoding="utf-8"?>
<!-- Generator: Adobe Illustrator 25.2.3, SVG Export Plug-In . SVG Version: 6.00 Build 0)  -->
<svg version="1.1" id="Layer_1" xmlns="http://www.w3.org/2000/svg" xmlns:xlink="http://www.w3.org/1999/xlink" x="0px" y="0px"
	 viewBox="0 0 152.1 204.5" style="enable-background:new 0 0 152.1 204.5;" xml:space="preserve">
<style type="text/css">
	.st0{fill:#C2AAA7;stroke:#F4F4F4;stroke-width:0.25;stroke-miterlimit:10;}
	.st1{fill:#E4DAD8;stroke:#F4F4F4;stroke-width:0.25;stroke-miterlimit:10;}
	.st2{fill:#C2AAA7;stroke:#F4F4F4;stroke-width:0.35;stroke-miterlimit:10;}
	.st3{fill:#ED6D47;}
	.st4{fill:#DB4A3A;}
	.st5{fill:#D7432E;}
	.st6{fill:none;stroke:#CB452E;stroke-width:2.996000e-02;stroke-linecap:round;stroke-miterlimit:10;}
	.st7{fill:none;stroke:#CB452E;stroke-width:6.006000e-02;stroke-linecap:round;stroke-miterlimit:10;}
	.st8{fill:none;stroke:#CB452E;stroke-width:9.002000e-02;stroke-linecap:round;stroke-miterlimit:10;}
	.st9{fill:none;stroke:#CB452E;stroke-width:0.12;stroke-linecap:round;stroke-miterlimit:10;}
	.st10{fill:none;stroke:#CB452E;stroke-width:0.1499;stroke-linecap:round;stroke-miterlimit:10;}
	.st11{fill:none;stroke:#CB452E;stroke-width:0.18;stroke-linecap:round;stroke-miterlimit:10;}
	.st12{fill:none;stroke:#CB452E;stroke-width:0.21;stroke-linecap:round;stroke-miterlimit:10;}
	.st13{fill:none;stroke:#CB452E;stroke-width:0.24;stroke-linecap:round;stroke-miterlimit:10;}
	.st14{fill:none;stroke:#CB452E;stroke-width:0.2701;stroke-linecap:round;stroke-miterlimit:10;}
	.st15{fill:none;stroke:#CB452E;stroke-width:0.3;stroke-linecap:round;stroke-miterlimit:10;}
	.st16{fill:none;stroke:#CB452E;stroke-width:0.33;stroke-linecap:round;stroke-miterlimit:10;}
	.st17{fill:none;stroke:#CB452E;stroke-width:0.3599;stroke-linecap:round;stroke-miterlimit:10;}
	.st18{fill:none;stroke:#CB452E;stroke-width:0.39;stroke-linecap:round;stroke-miterlimit:10;}
	.st19{fill:none;stroke:#CB452E;stroke-width:0.42;stroke-linecap:round;stroke-miterlimit:10;}
	.st20{fill:none;stroke:#CB452E;stroke-width:0.45;stroke-linecap:round;stroke-miterlimit:10;}
	.st21{fill:none;stroke:#CB452E;stroke-width:0.4801;stroke-linecap:round;stroke-miterlimit:10;}
	.st22{fill:none;stroke:#CB452E;stroke-width:0.51;stroke-linecap:round;stroke-miterlimit:10;}
	.st23{fill:none;stroke:#CB452E;stroke-width:0.54;stroke-linecap:round;stroke-miterlimit:10;}
	.st24{fill:none;stroke:#CB452E;stroke-width:0.5699;stroke-linecap:round;stroke-miterlimit:10;}
	.st25{fill:none;stroke:#CB452E;stroke-width:0.6;stroke-linecap:round;stroke-miterlimit:10;}
	.st26{fill:none;stroke:#CB452E;stroke-width:0.63;stroke-linecap:round;stroke-miterlimit:10;}
	.st27{fill:none;stroke:#CB452E;stroke-width:0.66;stroke-linecap:round;stroke-miterlimit:10;}
	.st28{fill:none;stroke:#CB452E;stroke-width:0.6901;stroke-linecap:round;stroke-miterlimit:10;}
	.st29{fill:none;stroke:#CB452E;stroke-width:0.72;stroke-linecap:round;stroke-miterlimit:10;}
	.st30{fill:none;stroke:#CB452E;stroke-width:0.75;stroke-linecap:round;stroke-miterlimit:10;}
	.st31{fill:none;stroke:#CB452E;stroke-width:0.7799;stroke-linecap:round;stroke-miterlimit:10;}
	.st32{fill:none;stroke:#CB452E;stroke-width:0.81;stroke-linecap:round;stroke-miterlimit:10;}
	.st33{fill:none;stroke:#CB452E;stroke-width:0.84;stroke-linecap:round;stroke-miterlimit:10;}
	.st34{fill:none;stroke:#CB452E;stroke-width:0.87;stroke-linecap:round;stroke-miterlimit:10;}
	.st35{fill:none;stroke:#CB452E;stroke-width:0.9001;stroke-linecap:round;stroke-miterlimit:10;}
	.st36{fill:none;stroke:#CB452E;stroke-width:0.93;stroke-linecap:round;stroke-miterlimit:10;}
	.st37{fill:#EC6B47;}
	.st38{fill:#EC6A46;}
	.st39{fill:#EB6845;}
	.st40{fill:#EA6645;}
	.st41{fill:#E96544;}
	.st42{fill:#E86343;}
	.st43{fill:#E76143;}
	.st44{fill:#E66042;}
	.st45{fill:#E55E42;}
	.st46{fill:#E55C41;}
	.st47{fill:#E45B40;}
	.st48{fill:#E35940;}
	.st49{fill:#E2573F;}
	.st50{fill:#E1563E;}
	.st51{fill:#E0543E;}
	.st52{fill:#DF523D;}
	.st53{fill:#DE513D;}
	.st54{fill:#DE4F3C;}
	.st55{fill:#DD4D3B;}
	.st56{fill:#DC4C3B;}
	.st57{fill:#C2AAA7;stroke:#F4F4F4;stroke-width:0.3619;stroke-miterlimit:10;}
	.st58{fill:#C2AAA7;stroke:#FFFFFF;stroke-width:0.175;stroke-miterlimit:10;}
	.st59{fill:#E4DAD8;stroke:#F4F4F4;stroke-width:0.175;stroke-miterlimit:10;}
	.st60{fill:#E4DAD8;stroke:#FFFFFF;stroke-width:0.1633;stroke-miterlimit:10;}
	.st61{fill:#E4DAD8;stroke:#FFFFFF;stroke-width:0.1996;stroke-miterlimit:10;}
	.st62{fill:none;stroke:#000000;stroke-width:1.187;stroke-miterlimit:10;}
	.st63{fill:none;stroke:#000000;stroke-width:2.0419;stroke-linecap:round;stroke-miterlimit:10;}
	.st64{fill:none;stroke:#000000;stroke-width:1.187;stroke-linecap:round;stroke-miterlimit:10;}
	.st65{fill:#E4DAD8;stroke:#FFFFFF;stroke-width:0.3149;stroke-miterlimit:10;}
	.st66{fill:#C2AAA7;stroke:#FFFFFF;stroke-width:0.1611;stroke-miterlimit:10;}
	.st67{fill:#CFBCBC;stroke:#FFFFFF;stroke-width:0.3149;stroke-miterlimit:10;}
	.st68{fill:#E4DAD8;stroke:#FFFFFF;stroke-width:0.1574;stroke-miterlimit:10;}
	.st69{fill:#5E5756;stroke:#FFFFFF;stroke-width:0.1574;stroke-miterlimit:10;}
	.st70{fill:#E4DAD8;stroke:#FFFFFF;stroke-width:0.3149;stroke-linejoin:bevel;stroke-miterlimit:10;}
	.st71{fill:#CFBCBC;stroke:#FFFFFF;stroke-width:0.3149;stroke-linejoin:bevel;stroke-miterlimit:10;}
	.st72{fill:#C2AAA7;}
	.st73{fill:#24234C;}
	.st74{fill:none;stroke:#24234C;stroke-width:0.1574;stroke-miterlimit:10;}
	.st75{fill:none;stroke:#24234C;stroke-width:0.1574;stroke-linecap:round;stroke-miterlimit:10;}
	.st76{fill:#DC3359;}
	.st77{fill:none;stroke:#BF282E;stroke-width:0.3957;stroke-miterlimit:10;}
	.st78{fill:none;stroke:#24234C;stroke-width:0.6297;stroke-linecap:round;stroke-miterlimit:10;}
	.st79{fill:none;stroke:#24234C;stroke-width:0.5714;stroke-linecap:round;stroke-miterlimit:10;}
	.st80{fill:none;stroke:#24234C;stroke-width:0.9034;stroke-linecap:round;stroke-miterlimit:10;}
</style>
<g>
	<g>
		<ellipse class="st0" cx="31.7" cy="54.7" rx="14.8" ry="6"/>
		<ellipse class="st1" cx="31.9" cy="53" rx="14.8" ry="6.6"/>
	</g>
	<path class="st2" d="M19.8,12.4L21,53c0,0,3.1,3.1,11.5,3.1s10.4-3.2,10.4-3.2V12.4H19.8z"/>
	<g>
		<path class="st3" d="M42.8,52.2c-0.6,1-12.9-1.4-12.9-1.4l-9,1.3V16.4L32.6,21L43,15.8C42.9,15.8,42.8,50.8,42.8,52.2z"/>
	</g>
	<g>
		<g>
			<path class="st3" d="M20.7,26.6c4.8,3.4,9.8,6.3,15.1,8.7c2.1,1,4.2,1.8,6.4,2.5c0.4,0.1,1.1-0.4,0.6-0.6
				c-2.1-0.7-4.2-1.5-6.2-2.4c-5.3-2.4-10.5-5.3-15.3-8.7C21.1,25.9,20.3,26.3,20.7,26.6L20.7,26.6z"/>
		</g>
	</g>
	<g>
		<g>
			<path class="st3" d="M21,28.4c4.8,3.4,9.9,6.3,15.3,8.8c2.1,1,4.2,1.8,6.4,2.5c0.3,0.1,1.1-0.3,0.6-0.6c-2.1-0.7-4.2-1.5-6.3-2.4
				c-5.3-2.4-10.4-5.3-15.1-8.7C21.5,27.8,20.7,28.3,21,28.4L21,28.4z"/>
		</g>
	</g>
	<g>
		<g>
			<path class="st3" d="M20.7,21.8c4.9,3.4,9.9,6.4,15.3,8.8c2.1,0.8,4.1,1.8,6.3,2.4c0.1,0,1-0.3,0.7-0.3c-2.2-0.7-4.3-1.5-6.3-2.5
				c-5.3-2.4-10.4-5.3-15.1-8.7C21.2,21.4,20.5,21.8,20.7,21.8L20.7,21.8z"/>
		</g>
	</g>
	<g>
		<g>
			<path class="st3" d="M20.4,24.9c4.9,3.4,9.9,6.4,15.3,8.8c2.1,0.8,4.1,1.8,6.3,2.4c0.3,0,1-0.3,0.7-0.4c-2.2-0.7-4.3-1.5-6.3-2.5
				C31,30.8,26,27.8,21.2,24.5C21.1,24.5,20.3,24.9,20.4,24.9L20.4,24.9z"/>
		</g>
	</g>
	<g>
		<g>
			<path class="st3" d="M20.7,20.1c4.8,3.4,9.8,6.3,15.1,8.7c2.1,1,4.2,1.8,6.4,2.5c0.3,0,1.1-0.3,0.7-0.4c-2.1-0.7-4.2-1.5-6.2-2.4
				c-5.3-2.4-10.5-5.3-15.3-8.8C21.2,19.6,20.4,20,20.7,20.1L20.7,20.1z"/>
		</g>
	</g>
	<g>
		<g>
			<path class="st3" d="M20.1,38.8c4.9,3.4,10.1,6.3,15.5,8.8c2.1,1,4.1,1.8,6.3,2.5c0.4,0.1,1.1-0.4,0.6-0.6
				c-2.1-0.7-4.1-1.5-6-2.4C31,44.6,25.9,41.7,21,38.3C20.5,38.1,19.7,38.5,20.1,38.8L20.1,38.8z"/>
		</g>
	</g>
	<g>
		<g>
			<path class="st3" d="M21,23.8c4.9,3.4,9.9,6.4,15.3,8.8c2.1,0.8,4.1,1.8,6.3,2.4c0.3,0,1-0.3,0.7-0.4C41,33.9,38.9,33,36.9,32
				c-5.3-2.4-10.4-5.3-15.1-8.7C21.7,23.2,20.8,23.6,21,23.8L21,23.8z"/>
		</g>
	</g>
	<g>
		<g>
			<path class="st3" d="M21,33.4c5.6-2,10.9-4.3,16-7.4c2-1.1,4.1-2.4,5.9-3.8c0.1-0.1-0.7,0-0.8,0.1c-1.7,1.4-3.6,2.5-5.5,3.6
				c-5,2.9-10.4,5.3-15.8,7.3C20,33.6,20.5,33.6,21,33.4L21,33.4z"/>
		</g>
	</g>
	<g>
		<g>
			<path class="st3" d="M21.5,35.1c5.6-2,10.9-4.3,16.1-7.4c2-1.1,3.9-2.4,5.7-3.8c0.4-0.3-0.6-0.3-0.7-0.1
				c-1.7,1.4-3.6,2.5-5.6,3.6c-5,2.9-10.4,5.3-15.8,7.3C20.5,35,21.1,35.3,21.5,35.1L21.5,35.1z"/>
		</g>
	</g>
	<g>
		<g>
			<path class="st3" d="M21.4,37.4c5.5-2,10.9-4.3,16-7.3c2-1.1,4.1-2.4,5.9-3.9c0.4-0.3-0.6-0.1-0.7,0c-1.7,1.4-3.6,2.5-5.5,3.6
				c-5,2.9-10.5,5.5-16,7.4C20.4,37.2,21.1,37.4,21.4,37.4L21.4,37.4z"/>
		</g>
	</g>
	<g>
		<g>
			<path class="st3" d="M21.2,44.6c5.6-2,10.9-4.3,16.1-7.4c2-1.1,3.9-2.4,5.7-3.8c0.4-0.3-0.6-0.3-0.7-0.1
				c-1.7,1.4-3.6,2.5-5.6,3.6c-5,2.9-10.4,5.3-15.8,7.3C20.4,44.5,21,44.8,21.2,44.6L21.2,44.6z"/>
		</g>
	</g>
	<g>
		<g>
			<path class="st3" d="M21.1,48c5.5-2,10.9-4.3,16-7.3c2-1.1,4.1-2.4,5.9-3.9c0.4-0.3-0.6-0.1-0.7,0c-1.7,1.4-3.6,2.5-5.5,3.6
				c-5,2.9-10.5,5.5-16,7.4C20.1,48,20.7,48.1,21.1,48L21.1,48z"/>
		</g>
	</g>
	<g>
		<g>
			<path class="st3" d="M21.7,49.8c5.6-2,10.9-4.3,16.1-7.4c2-1.1,3.9-2.4,5.7-3.8c0.4-0.4-0.3-0.7-0.6-0.4
				c-1.7,1.4-3.6,2.5-5.6,3.6c-5,2.9-10.4,5.3-15.8,7.3C21,49.3,21.1,50,21.7,49.8L21.7,49.8z"/>
		</g>
	</g>
	<g>
		<g>
			<path class="st3" d="M21.7,51.9c5.6-2,10.9-4.5,16.1-7.4c2-1.1,3.9-2.4,5.7-3.8c0.4-0.3-0.6-0.4-0.7-0.1
				c-1.5,1.3-3.8,2.5-5.6,3.6c-5,2.9-10.4,5.3-15.8,7.3C20.7,51.8,21.2,52.1,21.7,51.9L21.7,51.9z"/>
		</g>
	</g>
	<g>
		<g>
			<path class="st3" d="M20.7,38.3c5.6-2,10.9-4.3,16.1-7.4c2-1.1,3.9-2.4,5.7-3.8c0.4-0.4-0.3-0.7-0.6-0.4
				c-1.7,1.4-3.6,2.5-5.6,3.6c-5,2.9-10.4,5.3-15.8,7.3C19.8,37.9,20.1,38.5,20.7,38.3L20.7,38.3z"/>
		</g>
	</g>
	<g>
		<g>
			<path class="st3" d="M21.4,39.6c5.5-2,10.9-4.3,16-7.3c2-1.1,4.1-2.4,5.9-3.9c0.4-0.3-0.6-0.1-0.7,0c-1.7,1.4-3.6,2.5-5.5,3.6
				c-5,2.9-10.5,5.5-16,7.4C20.4,39.6,21,39.7,21.4,39.6L21.4,39.6z"/>
		</g>
	</g>
	<g>
		<g>
			<path class="st3" d="M21.2,42c5.6-2,10.9-4.3,16.1-7.4c2-1.1,3.9-2.4,5.7-3.8c0.4-0.3-0.4-0.4-0.7-0.1c0.1-0.1-0.3,0.1-0.3,0.3
				c-0.4,0.3-0.7,0.6-1.1,0.8c-1.4,1-2.8,1.8-4.2,2.7c-5,2.9-10.4,5.3-15.8,7.3C20.3,41.8,20.8,42.1,21.2,42L21.2,42z"/>
		</g>
	</g>
	<g>
		<g>
			<path class="st3" d="M21.9,30.6c5.3-2,10.5-4.2,15.3-7.4c1.7-1.1,3.5-2.4,4.9-3.9c0.4-0.4-0.4-0.6-0.8-0.3
				c-1.3,1.3-3.1,2.5-4.6,3.6c-4.6,3.1-9.7,5.5-14.8,7.3C21.2,30.2,21.4,30.8,21.9,30.6L21.9,30.6z"/>
		</g>
	</g>
	<g>
		<g>
			<path class="st3" d="M20.8,32c5.5-2,10.9-4.3,16-7.3c2-1.1,4.1-2.4,5.9-3.9c0.4-0.4-0.3-0.7-0.6-0.4c-1.7,1.4-3.6,2.5-5.5,3.6
				c-5,2.9-10.4,5.5-16,7.3C20.1,31.8,20.3,32.3,20.8,32L20.8,32z"/>
		</g>
	</g>
	<g>
		<g>
			<path class="st3" d="M20.8,34.3c5.6-2,10.9-4.3,16.1-7.4c2-1.1,3.9-2.4,5.7-3.8c0.4-0.3-0.6-0.3-0.7-0.1
				c-1.7,1.4-3.6,2.5-5.6,3.6c-5,2.9-10.4,5.3-15.8,7.3C19.8,34.1,20.4,34.4,20.8,34.3L20.8,34.3z"/>
		</g>
	</g>
	<g>
		<g>
			<path class="st3" d="M21,29.8c5.6-2,10.9-4.3,16.1-7.4c2-1.1,3.9-2.4,5.7-3.8c0.4-0.3-0.6-0.1-0.7-0.1c-1.7,1.4-3.6,2.5-5.6,3.6
				c-5,2.9-10.4,5.3-15.8,7.3C20,29.7,20.5,29.9,21,29.8L21,29.8z"/>
		</g>
	</g>
	<g>
		<g>
			<path class="st3" d="M20.8,32c5.5-2,10.9-4.3,16-7.3c2-1.1,4.1-2.4,5.9-3.9c0.4-0.3-0.6-0.1-0.7,0c-1.7,1.4-3.6,2.5-5.5,3.6
				c-5,2.9-10.5,5.5-16,7.4C19.8,32,20.4,32.2,20.8,32L20.8,32z"/>
		</g>
	</g>
	<g>
		<g>
			<path class="st3" d="M21.2,40c5.6-2,10.9-4.3,16.1-7.4c2-1.1,3.9-2.4,5.7-3.8c0.4-0.3-0.6-0.3-0.7-0.1c-1.7,1.4-3.6,2.5-5.6,3.6
				c-5,2.9-10.4,5.3-15.8,7.3C20.3,39.9,20.8,40.2,21.2,40L21.2,40z"/>
		</g>
	</g>
	<g>
		<g>
			<path class="st3" d="M21.2,43.1c5.5-2,10.9-4.3,16-7.3c2-1.1,4.1-2.4,5.9-3.9c0.4-0.4-0.3-0.7-0.6-0.4c-1.7,1.4-3.6,2.5-5.5,3.6
				c-5,2.9-10.4,5.5-16,7.3C20.5,42.8,20.7,43.4,21.2,43.1L21.2,43.1z"/>
		</g>
	</g>
	<g>
		<g>
			<path class="st3" d="M21.2,45.5c5.6-2,10.9-4.3,16.1-7.4c2-1.1,3.9-2.4,5.7-3.8c0.4-0.3-0.6-0.3-0.7-0.1
				c-1.7,1.4-3.6,2.5-5.6,3.6c-5,2.9-10.4,5.3-15.8,7.3C20.4,45.3,21,45.6,21.2,45.5L21.2,45.5z"/>
		</g>
	</g>
	<g>
		<g>
			<path class="st3" d="M21,49.4c5.6-2,10.9-4.3,16.1-7.4c2-1.1,3.9-2.4,5.7-3.8c0.4-0.4-0.3-0.7-0.6-0.4c-1.7,1.4-3.6,2.5-5.6,3.6
				c-5,2.9-10.4,5.3-15.8,7.3C20.3,48.8,20.4,49.5,21,49.4L21,49.4z"/>
		</g>
	</g>
	<g>
		<g>
			<path class="st3" d="M20.4,30.6c4.8,3.4,9.8,6.3,15.3,8.7c2.1,1,4.2,1.8,6.4,2.5c0.4,0.1,1.1-0.6,0.6-0.7
				c-2.1-0.7-4.2-1.5-6.2-2.4C31.2,36.3,26,33.4,21.2,30C20.8,29.8,20,30.2,20.4,30.6L20.4,30.6z"/>
		</g>
	</g>
	<g>
		<g>
			<path class="st3" d="M20.7,32.3c4.9,3.4,9.9,6.4,15.3,8.8c2.1,1,4.2,1.8,6.3,2.4c0.3,0,1-0.3,0.7-0.3c-2.1-0.7-4.2-1.5-6.3-2.5
				c-5.3-2.4-10.4-5.3-15.1-8.7C21.4,31.9,20.5,32.3,20.7,32.3L20.7,32.3z"/>
		</g>
	</g>
	<g>
		<g>
			<path class="st3" d="M20.4,36.8c4.9,3.4,10.1,6.4,15.4,9c2,1,3.9,1.8,5.9,2.5c0.4,0.1,1.1-0.4,0.6-0.6c-2.1-0.7-4.1-1.5-5.9-2.5
				c-5.3-2.5-10.4-5.6-15.3-9C20.7,36.1,19.8,36.5,20.4,36.8L20.4,36.8z"/>
		</g>
	</g>
	<g>
		<g>
			<path class="st3" d="M20.7,25.5c4.9,3.4,9.9,6.4,15.3,8.8c2.1,0.8,4.1,1.8,6.3,2.4c0.1,0,1-0.3,0.7-0.3c-2.2-0.7-4.3-1.5-6.3-2.5
				c-5.3-2.4-10.4-5.3-15.1-8.7C21.4,25,20.5,25.5,20.7,25.5L20.7,25.5z"/>
		</g>
	</g>
	<g>
		<g>
			<path class="st3" d="M20.8,21c4.8,3.4,9.8,6.3,15.1,8.7c2.1,1,4.2,1.8,6.4,2.5c0.4,0.1,1.1-0.4,0.6-0.6c-2.1-0.7-4.2-1.5-6.2-2.4
				c-5.3-2.4-10.5-5.3-15.3-8.7C21.2,20.3,20.4,20.7,20.8,21L20.8,21z"/>
		</g>
	</g>
	<g>
		<g>
			<path class="st3" d="M20.7,24.1c4.8,3.4,9.8,6.3,15.1,8.7c2.1,1,4.2,1.8,6.4,2.5c0.4,0.1,1.1-0.6,0.6-0.7
				c-2.1-0.7-4.2-1.5-6.2-2.4c-5.3-2.4-10.5-5.3-15.3-8.7C21,23.4,20.1,23.8,20.7,24.1L20.7,24.1z"/>
		</g>
	</g>
	<g>
		<g>
			<path class="st4" d="M20.7,19.2c4.8,3.4,9.8,6.3,15.1,8.7c2.1,1,4.2,1.8,6.4,2.5c0.3,0,1.1-0.3,0.7-0.4c-2.1-0.7-4.2-1.5-6.2-2.4
				c-5.3-2.4-10.5-5.5-15.3-8.8C21.4,18.7,20.5,19.2,20.7,19.2L20.7,19.2z"/>
		</g>
	</g>
	<g>
		<g>
			<path class="st3" d="M20.3,37.8c5,3.4,10.2,6.3,15.7,8.8c2,1,4.1,1.8,6.2,2.5c0.3,0.1,1.1-0.4,0.6-0.6c-2.1-0.7-4.2-1.5-6.2-2.5
				c-5.3-2.5-10.5-5.5-15.4-8.7C20.7,37.1,19.8,37.5,20.3,37.8L20.3,37.8z"/>
		</g>
	</g>
	<g>
		<g>
			<path class="st4" d="M21.1,22.8c4.8,3.4,9.8,6.3,15.1,8.7c2.1,1,4.2,1.8,6.4,2.5c0.3,0,1.1-0.3,0.7-0.4c-2.1-0.7-4.2-1.5-6.2-2.4
				c-5.3-2.4-10.5-5.3-15.3-8.8C21.8,22.2,21,22.7,21.1,22.8L21.1,22.8z"/>
		</g>
	</g>
	<g>
		<g>
			<path class="st3" d="M21,32.7c5.5-2,10.9-4.3,16-7.3c2-1.1,4.1-2.4,5.9-3.9c0.4-0.4-0.3-0.7-0.6-0.4c-1.7,1.4-3.6,2.5-5.5,3.6
				c-5,2.9-10.4,5.5-16,7.3C20.3,32.3,20.4,33,21,32.7L21,32.7z"/>
		</g>
	</g>
	<g>
		<g>
			<path class="st3" d="M21.7,34c5.7-2,11.3-4.3,16.5-7.3c0.3-0.1,5.7-3.5,5-3.9c-0.3-0.1-1,0.3-0.8,0.3c0.3,0.1-1,1.3-1.1,1.3
				c-1.3,1-2.7,1.8-4.2,2.5c-5,2.8-10.4,5-15.7,7C20.7,34,21.2,34.1,21.7,34L21.7,34z"/>
		</g>
	</g>
	<g>
		<g>
			<path class="st3" d="M21.4,36.5c5.6-2,10.9-4.3,16.1-7.4c2-1.1,3.9-2.4,5.7-3.8c0.4-0.4-0.3-0.7-0.6-0.4
				c-1.7,1.4-3.6,2.5-5.6,3.6c-5,2.9-10.4,5.3-15.8,7.3C20.7,36.1,20.8,36.8,21.4,36.5L21.4,36.5z"/>
		</g>
	</g>
	<g>
		<g>
			<path class="st3" d="M21.4,43.7c5.6-2,10.9-4.3,16.1-7.4c2-1.1,3.9-2.4,5.7-3.8c0.4-0.3-0.6-0.3-0.7-0.1
				c-1.7,1.4-3.6,2.5-5.6,3.6c-5,2.9-10.4,5.3-15.8,7.3C20.4,43.5,21,43.8,21.4,43.7L21.4,43.7z"/>
		</g>
	</g>
	<g>
		<g>
			<path class="st3" d="M22.1,45.2c5.6-2,11.3-4.2,16.5-7.3c0.6-0.3,5.7-3.1,4.6-4.2c-0.3-0.1-1.1,0.1-0.8,0.3
				c0.8,0.8-4.8,3.8-5.2,4.1c-4.9,2.7-10.2,4.8-15.5,6.7C21.1,45.1,21.7,45.3,22.1,45.2L22.1,45.2z"/>
		</g>
	</g>
	<g>
		<g>
			<path class="st3" d="M21.2,47.2c5.6-2,10.9-4.3,16.1-7.4c2-1.1,3.9-2.4,5.7-3.8c0.4-0.3-0.6-0.3-0.7-0.1
				c-1.7,1.4-3.6,2.5-5.6,3.6c-5,2.9-10.4,5.3-15.8,7.3C20.3,47,20.8,47.3,21.2,47.2L21.2,47.2z"/>
		</g>
	</g>
	<g>
		<g>
			<path class="st4" d="M21.7,50.9c5.6-2,10.9-4.5,16.1-7.4c2-1.1,3.9-2.4,5.7-3.8c0.4-0.3-0.6-0.3-0.7-0.1
				c-1.7,1.4-3.6,2.5-5.6,3.6c-5,2.9-10.4,5.3-15.8,7.3C20.7,50.8,21.2,51.1,21.7,50.9L21.7,50.9z"/>
		</g>
	</g>
	<g>
		<g>
			<path class="st3" d="M20.7,37.4c5.6-2,10.9-4.3,16.1-7.4c2-1.1,3.9-2.4,5.7-3.8c0.4-0.4-0.3-0.7-0.6-0.4
				c-1.7,1.4-3.6,2.5-5.6,3.6c-5,2.9-10.4,5.3-15.8,7.3C20,36.9,20.1,37.5,20.7,37.4L20.7,37.4z"/>
		</g>
	</g>
	<g>
		<g>
			<path class="st3" d="M21.5,38.8c5.6-2,10.9-4.3,16.1-7.4c2-1.1,3.9-2.4,5.7-3.8c0.4-0.3-0.6-0.3-0.7-0.1C40.9,28.9,39,30,37,31.1
				c-5,2.9-10.4,5.3-15.8,7.3C20.5,38.6,21.1,38.9,21.5,38.8L21.5,38.8z"/>
		</g>
	</g>
	<g>
		<g>
			<path class="st3" d="M21.2,41c5.6-2,10.9-4.3,16.1-7.4c2-1.1,3.9-2.4,5.7-3.8c0.4-0.3-0.6-0.3-0.7-0.1c-1.7,1.4-3.6,2.5-5.6,3.6
				c-5,2.9-10.4,5.3-15.8,7.3C20.4,40.9,21,41.1,21.2,41L21.2,41z"/>
		</g>
	</g>
	<g>
		<g>
			<path class="st3" d="M22.1,29.5c5.3-2,10.5-4.2,15.3-7.4c1.7-1.1,3.5-2.4,4.9-3.8c0.4-0.4-0.6-0.4-0.7-0.1
				c-1.4,1.4-3.1,2.5-4.8,3.6c-4.6,3.1-9.8,5.5-15,7.3C21.1,29.4,21.7,29.7,22.1,29.5L22.1,29.5z"/>
		</g>
	</g>
	<g>
		<g>
			<path class="st3" d="M21.1,30.9c5.6-2,10.9-4.3,16-7.4c2-1.1,4.1-2.4,5.9-3.8c0.1-0.1-0.7-0.1-0.8,0.1c-1.7,1.4-3.6,2.5-5.5,3.6
				c-5,2.9-10.4,5.3-15.8,7.3C20.1,30.9,20.7,31.1,21.1,30.9L21.1,30.9z"/>
		</g>
	</g>
	<g>
		<g>
			<path class="st4" d="M20.8,33.4c5.6-2,10.9-4.3,16-7.3c2-1.1,4.1-2.4,5.9-3.8c0.4-0.4-0.3-0.7-0.6-0.4c-1.7,1.4-3.6,2.5-5.5,3.6
				c-5,2.9-10.4,5.5-16,7.3C20.1,33,20.3,33.6,20.8,33.4L20.8,33.4z"/>
		</g>
	</g>
	<g>
		<g>
			<path class="st4" d="M20.8,31.3c5.6-2,10.9-4.3,16.1-7.4c2-1.1,3.9-2.4,5.7-3.8c0.4-0.4-0.3-0.7-0.6-0.4
				c-1.7,1.4-3.6,2.5-5.6,3.6c-5,2.9-10.4,5.3-15.8,7.3C20.1,30.9,20.3,31.5,20.8,31.3L20.8,31.3z"/>
		</g>
	</g>
	<g>
		<g>
			<path class="st4" d="M21.4,39c5.6-2,10.9-4.3,16.1-7.4c2-1.1,3.9-2.4,5.7-3.8c0.4-0.3-0.6-0.3-0.7-0.1c-1.7,1.4-3.6,2.5-5.6,3.6
				c-5,2.9-10.4,5.3-15.8,7.3C20.4,39,21,39.2,21.4,39L21.4,39z"/>
		</g>
	</g>
	<g>
		<g>
			<path class="st3" d="M21.4,42c5.6-2,10.9-4.3,16-7.4c2-1.1,4.1-2.4,5.9-3.8c0.1-0.1-0.7,0-0.8,0.1c-1.7,1.4-3.6,2.5-5.5,3.6
				c-5,2.9-10.4,5.3-15.8,7.3C20.5,42,21.1,42.1,21.4,42L21.4,42z"/>
		</g>
	</g>
	<g>
		<g>
			<path class="st3" d="M21.2,44.6c5.5-2,10.9-4.3,16-7.3c2-1.1,4.1-2.4,5.9-3.9c0.4-0.4-0.3-0.7-0.6-0.4c-1.7,1.4-3.6,2.5-5.5,3.6
				c-5,2.9-10.4,5.5-16,7.3C20.5,44.2,20.7,44.8,21.2,44.6L21.2,44.6z"/>
		</g>
	</g>
	<g>
		<g>
			<path class="st4" d="M21.1,48.4c5.6-2,10.9-4.3,16.1-7.4c2-1.1,3.9-2.4,5.7-3.8c0.4-0.4-0.3-0.7-0.6-0.4
				c-1.7,1.4-3.6,2.5-5.6,3.6c-5,2.9-10.4,5.3-15.8,7.3C20.4,48,20.5,48.6,21.1,48.4L21.1,48.4z"/>
		</g>
	</g>
	<g>
		<g>
			<path class="st4" d="M20.4,29.5c4.8,3.4,9.8,6.3,15.1,8.7c2.1,1,4.2,1.8,6.4,2.5c0.3,0.1,1.1-0.3,0.7-0.4
				c-2.1-0.7-4.2-1.5-6.2-2.4c-5.3-2.4-10.5-5.3-15.3-8.7C21.1,29,20.3,29.4,20.4,29.5L20.4,29.5z"/>
		</g>
	</g>
	<g>
		<g>
			<path class="st3" d="M21,31.5c4.9,3.4,9.9,6.4,15.3,8.8c2.1,0.8,4.2,1.8,6.3,2.4c0.3,0.1,1.1-0.4,0.6-0.6
				c-2.1-0.7-4.3-1.5-6.3-2.5c-5.3-2.4-10.4-5.3-15.1-8.7C21.4,30.9,20.5,31.2,21,31.5L21,31.5z"/>
		</g>
	</g>
	<g>
		<g>
			<path class="st4" d="M20.4,35.8c4.9,3.4,10.2,6.4,15.5,9c2,1,4.1,1.8,6,2.5c0.4,0.1,1.1-0.4,0.6-0.6c-2.1-0.7-4.2-1.5-6.2-2.5
				c-5.3-2.5-10.5-5.6-15.4-9C20.8,35.1,20,35.5,20.4,35.8L20.4,35.8z"/>
		</g>
	</g>
	<g>
		<g>
			<path class="st3" d="M20.8,27.7c0,0.1-0.1,0.3-0.1,0.3s0.1,0,0.3,0c0.3,0,0.6-0.1,0.7-0.1c0.6-0.1,1-0.3,1.5-0.6
				c1-0.4,2-0.8,2.9-1.3c2-0.8,3.8-1.8,5.7-2.9l5.6-3.1c1-0.6,1.8-1,2.8-1.5c0.4-0.3,1-0.6,1.4-0.8c0.3-0.1,0.4-0.3,0.6-0.4
				c0.1-0.1,0.4-0.4,0.1-0.6l0,0l0,0l0,0c0.1,0,0.3,0.1,0.3,0.4c0,0.1-0.1,0.3-0.1,0.4c-0.1,0.3-0.3,0.4-0.6,0.6
				c-0.4,0.4-0.8,0.7-1.3,1.1c-0.8,0.7-1.8,1.3-2.7,1.8c-1.8,1.1-3.8,2.1-5.7,2.9c-2,1-3.9,1.8-5.9,2.7c-1,0.4-2,0.8-2.9,1.1
				c-0.6,0.1-1,0.3-1.5,0.4c-0.3,0-0.6,0.1-0.8,0.1c-0.1,0-0.3,0-0.4-0.1C20.7,27.8,20.8,27.7,20.8,27.7
				C20.8,27.6,20.8,27.6,20.8,27.7C21,27.7,21,27.7,20.8,27.7L20.8,27.7L20.8,27.7z"/>
		</g>
		<g>
			<g>
				<path class="st3" d="M31.6,33.7c0,0.3,0,0.6,0.1,0.7c0,0.1,0,0.3,0,0.6v0.1l0,0v0.1l0,0l0,0l0,0l0,0l0,0c0,0,0,0,0.1,0l0,0
					c0,0,0,0,0.1,0l0,0H32l0,0h0.1l0,0c0,0,0,0,0.1,0l0,0c0,0,0,0,0.1,0l0,0c0,0,0,0,0.1,0l0,0l0,0l0,0l0,0c0,0,0,0,0-0.1V35
					c0-0.1-0.1-0.4-0.1-0.6s0-0.3,0-0.4l0,0c0,0,0,0-0.1,0h-0.1C31.9,33.7,31.9,33.7,31.6,33.7C31.7,33.7,31.7,33.7,31.6,33.7
					l-0.1,0.1l0,0c0,0,0,0,0,0.1c0,0.3,0.1,0.7,0.1,1c0,0.1,0,0.1,0,0.3c0,0,0,0.1,0.1,0.1c0,0,0,0,0.1,0H32c0.1,0,0.3,0,0.4-0.1
					c0,0,0,0,0.1,0s0.1-0.1,0.3-0.1l0,0c0-0.1,0-0.1,0-0.3c0-0.1,0-0.1,0-0.3c0-0.3,0-0.7-0.1-1v-0.1l0,0c0,0,0,0-0.1,0h-0.1h-0.1
					h-0.1c0,0-0.1,0-0.1,0.1C31.7,33.6,31.7,33.6,31.6,33.7C31.6,33.6,31.6,33.7,31.6,33.7L31.6,33.7z"/>
			</g>
			<path class="st3" d="M32.2,33.6c0,0.3,0.1,0.6,0.1,0.8c0,0.3,0,0.6,0,0.8v0.1l0,0c0,0-0.1,0-0.3,0c-0.1,0-0.1,0-0.1-0.1
				c-0.1-0.1-0.1-0.1-0.1-0.3c0-0.1,0-0.3-0.1-0.4c0-0.3,0-0.6,0-0.8c0,0,0-0.1,0.1-0.1c0,0,0.1,0,0.1,0.1c0.1,0.3,0.1,0.6,0.3,0.7
				c0,0.1,0,0.3,0.1,0.3v0.1l0,0h-0.1l0,0l0,0c0-0.1,0-0.4,0-0.7s0-0.6,0-0.7c0,0,0-0.1,0.1-0.1C32.2,33.4,32.2,33.4,32.2,33.6z"/>
		</g>
		<g>
			<g>
				<path class="st3" d="M21.2,50.7c-0.7,1,1.3,0.4,1.5,0.4c1.8-0.4,3.6-1.3,5.5-2.1c4.5-2,9-4.1,13-6.9C41.5,42,44,40.3,43,40
					c-0.3-0.1-1,0.3-0.8,0.3c0.7,0.3-1.1,1.5-1.3,1.7c-1.5,1.1-3.2,2-4.9,2.8c-3.9,2.1-7.8,4.1-11.9,5.6c-0.1,0-2.5,1-2,0.1
					C22.2,50.4,21.4,50.4,21.2,50.7L21.2,50.7z"/>
			</g>
		</g>
	</g>
	<g>
		<g>
			<g>
				<path class="st5" d="M41.8,24.5c0.8,1.4-4.3,0.8-4.9,0.7c-2.8-0.6-5.6-1.5-8-2.9c-2.1-1.1-3.9-2.5-5.7-4.1
					c-0.1-0.1-2.7-2.7-2.1-2.8c0.6-0.3-0.3-0.1-0.6-0.1c-1.3,0.6,1.1,2.7,1.5,3.1c2.4,2.1,5,3.9,8,5.3c2.9,1.4,6.3,2.4,9.7,2.2
					c0.6,0,3.9-0.3,3.1-1.5C42.7,24.1,41.8,24.3,41.8,24.5L41.8,24.5z"/>
			</g>
		</g>
		<g>
			<path class="st6" d="M42.4,25.2c1.1,1.5-4.9,2.1-10.9-0.3c-6-2.5-12-8.1-10.8-8.5"/>
			<g>
				<path class="st5" d="M42,25.3c0.7,1.1-4.5,0.8-4.9,0.7c-2.8-0.4-5.3-1.4-7.8-2.7c-2.1-1.1-4.1-2.5-5.9-4.1
					c-0.6-0.6-1.3-1.1-1.7-1.8c-0.1-0.1-0.3-0.4-0.4-0.7c-0.1-0.1,0-0.4-0.1-0.3c0.6-0.3,0-0.6-0.4-0.4c-1.4,0.7,1,2.7,1.5,3.2
					c2.2,2.1,4.9,3.9,7.8,5.2c3.1,1.4,6.4,2.4,9.8,2.2c0.7,0,4.1-0.3,3.1-1.8C42.7,24.8,41.7,25,42,25.3L42,25.3z"/>
			</g>
		</g>
		<g>
			<path class="st7" d="M42.4,26c1.1,1.5-5,2.2-10.9-0.1c-6-2.5-12-8-10.6-8.4"/>
			<g>
				<path class="st5" d="M42,26.2c0.8,1.4-4.2,1-4.9,1c-2.8-0.4-5.5-1.3-7.8-2.7c-2.1-1.1-4.1-2.4-5.7-3.9c-0.1-0.1-2.8-2.8-2.4-2.9
					c0.6-0.3-0.3-0.3-0.6-0.1c-1.3,0.6,1.3,2.7,1.7,3.1c2.4,2.1,5.2,3.9,8,5.3c2.9,1.3,6.2,2.1,9.4,2c0.7,0,4.1-0.4,3.2-1.7
					C42.7,25.6,41.8,26,42,26.2L42,26.2z"/>
			</g>
		</g>
		<g>
			<path class="st8" d="M42.4,26.9c1.1,1.5-5.2,2.4-11.1,0c-6-2.4-11.9-7.8-10.5-8.4"/>
			<g>
				<path class="st5" d="M42,27c0.8,1.4-3.9,1.1-4.5,1.1c-2.8-0.3-5.5-1.1-8-2.4c-2.2-1.1-4.2-2.5-6.2-4.2c-0.6-0.6-1.3-1.1-1.7-1.7
					c-0.1-0.3-0.4-0.4-0.6-0.7c0-0.1,0-0.4-0.1-0.4c0.6-0.3,0-0.4-0.3-0.3c-1.4,0.6,0.8,2.5,1.3,2.9c2.2,2.1,5,3.9,7.8,5.3
					c2.9,1.4,6.4,2.1,9.8,2c0.6,0,4.2-0.4,3.2-1.8C42.7,26.4,41.8,26.7,42,27L42,27z"/>
			</g>
		</g>
		<g>
			<path class="st9" d="M42.4,27.7c1.1,1.5-5.2,2.5-11.2,0.1s-11.9-7.7-10.5-8.3"/>
			<g>
				<path class="st5" d="M42,27.8c0.7,1.1-4.1,1.1-4.5,1.1c-2.8-0.1-5.6-1-8.1-2.2c-2.1-1.1-4.1-2.4-5.9-3.9
					c-0.3-0.1-2.8-2.8-2.5-2.9c0.6-0.3,0-0.6-0.4-0.4c-1.5,0.7,1,2.7,1.5,3.2c2.2,2.1,5,3.8,7.8,5c2.9,1.4,6.3,2.1,9.7,1.8
					c0.7,0,4.2-0.4,3.4-2C42.7,27.1,41.7,27.6,42,27.8L42,27.8z"/>
			</g>
		</g>
		<g>
			<path class="st10" d="M42.4,28.5c1.1,1.5-5.3,2.7-11.3,0.3s-11.8-7.7-10.4-8.1"/>
			<g>
				<path class="st5" d="M42,28.7c0.8,1.4-3.8,1.4-4.3,1.3c-2.9-0.1-5.7-1-8.4-2.4c-2.1-1.1-4.1-2.4-5.9-3.9
					c-0.1-0.1-2.8-2.7-2.2-2.9c0.6-0.3-0.3-0.1-0.6-0.1c-1.3,0.6,1.1,2.7,1.5,3.1c2.4,2.1,5.3,3.9,8.3,5.2c2.9,1.1,6.2,1.7,9.4,1.4
					c0.7-0.1,3.9-0.6,3.1-1.8C42.8,28.1,41.8,28.5,42,28.7L42,28.7z"/>
			</g>
		</g>
		<g>
			<path class="st11" d="M42.4,29.4c1.1,1.5-5.5,2.7-11.3,0.6c-6-2.2-11.6-7.6-10.2-8"/>
			<g>
				<path class="st5" d="M42,29.5c0.8,1.3-3.6,1.4-4.2,1.4c-2.8,0-5.6-0.8-8.3-2.1c-2.2-1.1-4.3-2.4-6.2-4.1
					c-0.6-0.6-1.3-1.1-1.7-1.7c-0.1-0.3-0.4-0.4-0.6-0.7c0-0.1,0-0.4-0.1-0.4c0.6-0.3,0-0.6-0.3-0.3c-1.4,0.7,0.7,2.5,1.3,2.9
					c2.2,2.1,5,3.9,8,5c2.9,1.3,6.3,1.8,9.5,1.5c0.7,0,4.3-0.6,3.5-2C42.7,29,41.8,29.2,42,29.5L42,29.5z"/>
			</g>
		</g>
		<g>
			<path class="st12" d="M42.4,30.2c1.1,1.5-5.6,2.8-11.5,0.7c-6-2.2-11.6-7.4-10.2-8"/>
			<g>
				<path class="st5" d="M42,30.4c0.7,1.3-3.9,1.4-4.5,1.4c-2.8,0-5.6-0.7-8.1-2c-2.2-1-4.2-2.4-6.2-3.9c-0.6-0.6-1.3-1.1-1.7-1.7
					c-0.1-0.3-0.3-0.4-0.6-0.7c-0.1-0.1,0-0.4-0.1-0.3c0.6-0.3,0-0.6-0.4-0.4c-1.5,0.7,1,2.7,1.4,3.2c2.4,2.1,5.2,3.8,8.1,5
					c2.9,1.1,6.3,1.7,9.5,1.3c0.7-0.1,4.1-0.7,3.2-2.1C42.7,29.7,41.8,30.1,42,30.4L42,30.4z"/>
			</g>
		</g>
		<g>
			<path class="st13" d="M42.5,30.9c1.1,1.5-5.6,2.9-11.6,0.8c-6-2.2-11.5-7.3-10.1-7.8"/>
			<g>
				<path class="st5" d="M42,31.1c0.8,1.4-3.8,1.5-4.3,1.5c-2.9,0-5.7-0.7-8.4-2c-2.1-1-4.2-2.2-5.9-3.8c-0.1-0.1-2.8-2.7-2.2-2.9
					c0.6-0.3-0.3-0.1-0.6-0.1c-1.4,0.6,1.1,2.7,1.5,3.1c2.4,2.1,5.3,3.9,8.4,5c2.9,1,6.2,1.4,9.1,1c0.7-0.1,4.1-0.7,3.2-2
					C42.8,30.6,42,31.1,42,31.1L42,31.1z"/>
			</g>
		</g>
		<g>
			<path class="st14" d="M42.5,31.8c1.1,1.5-5.7,3.1-11.6,1c-6-2.1-11.3-7.3-9.9-7.7"/>
			<g>
				<path class="st5" d="M42.1,32c0.7,1.1-3.8,1.4-4.2,1.4c-2.7,0.1-5.5-0.4-7.8-1.4c-2.2-1-4.3-2.2-6.3-3.8c-0.7-0.6-1.4-1.3-2-2
					c-0.1-0.1-0.7-1.1-0.7-1.1c0.6-0.3,0-0.7-0.4-0.6c-1.5,0.7,1,2.8,1.5,3.2c2.2,2.1,5,3.6,8,4.8c3.1,1.1,6.6,1.5,9.7,1
					c0.8-0.1,4.1-0.8,3.1-2.2C42.7,31.3,41.8,31.6,42.1,32L42.1,32z"/>
			</g>
		</g>
		<g>
			<path class="st15" d="M42.5,32.6c1.1,1.5-5.9,3.1-11.8,1.1c-6-2.1-11.3-7.1-9.9-7.6"/>
			<g>
				<path class="st5" d="M42,32.7c0.8,1.4-3.5,1.7-4.1,1.7c-2.8,0.1-5.6-0.3-8.1-1.4c-2.2-1-4.3-2.2-6.3-3.8
					c-0.7-0.6-1.3-1.1-1.8-1.8c-0.1-0.3-0.4-0.6-0.6-0.8c0-0.1,0-0.4-0.1-0.4c0.6-0.3,0-0.4-0.3-0.3c-1.4,0.7,0.8,2.7,1.4,3.1
					c2.4,2.1,5.2,3.8,8.1,4.8s6.3,1.4,9.4,0.8c0.7-0.1,4.2-0.8,3.4-2.1C42.8,32.3,42,32.6,42,32.7L42,32.7z"/>
			</g>
		</g>
		<g>
			<path class="st16" d="M42.5,33.4c1.1,1.5-5.9,3.2-11.9,1.3c-6-2.1-11.2-7-9.8-7.6"/>
			<g>
				<path class="st5" d="M42.1,33.7c0.7,1.1-3.6,1.5-4.2,1.5c-2.7,0.1-5.3-0.1-7.8-1.1c-2.2-0.8-4.5-2.1-6.3-3.6
					c-0.7-0.6-1.4-1.3-2.1-2c-0.1-0.1-0.7-1.1-0.7-1.1c0.6-0.3,0-0.7-0.4-0.6c-1.5,0.7,1,2.8,1.5,3.2c2.4,2.1,5.2,3.6,8.1,4.8
					c2.9,1,6.3,1.3,9.5,0.7c0.8-0.1,4.2-0.8,3.2-2.4C42.7,33,41.8,33.3,42.1,33.7L42.1,33.7z"/>
			</g>
		</g>
		<g>
			<path class="st17" d="M42.5,34.3c1.1,1.5-6,3.4-11.9,1.4c-6-2-11.2-6.9-9.8-7.4"/>
			<g>
				<path class="st5" d="M42.1,34.4c0.7,1.1-3.5,1.7-4.1,1.7c-2.8,0.3-5.6,0-8.1-1.1c-2.2-0.8-4.5-2.1-6.4-3.6
					c-0.1-0.1-2.9-2.8-2.5-2.9c0.6-0.3,0-0.6-0.4-0.4c-1.5,0.7,0.8,2.7,1.4,3.2c2.4,2.1,5.2,3.6,8.3,4.6c2.9,1,6.4,1.1,9.5,0.4
					c0.8-0.1,4.1-1,3.2-2.4C42.8,33.9,41.8,34.1,42.1,34.4L42.1,34.4z"/>
			</g>
		</g>
		<g>
			<path class="st18" d="M42.5,35.1c1.1,1.5-6.2,3.5-12,1.5c-6-2-11.1-6.9-9.7-7.3"/>
			<g>
				<path class="st5" d="M42.1,35.3c0.8,1.3-3.2,1.8-3.9,2c-2.8,0.3-5.7,0-8.4-1c-2.2-0.8-4.5-2.1-6.3-3.6c-0.7-0.6-1.3-1.1-1.8-1.7
					c-0.1-0.3-0.4-0.6-0.6-0.8c0-0.1,0-0.4-0.1-0.4c0.6-0.3,0-0.4-0.3-0.3c-1.5,0.7,0.8,2.5,1.4,3.1c2.4,2.1,5.2,3.6,8.3,4.6
					c2.9,0.8,6.3,1,9.4,0.3c0.7-0.1,4.2-1,3.4-2.2C42.8,34.7,42,35.1,42.1,35.3L42.1,35.3z"/>
			</g>
		</g>
		<g>
			<path class="st19" d="M42.5,36c1.1,1.5-6.3,3.6-12.2,1.7c-6-2-10.9-6.7-9.5-7.1"/>
			<g>
				<path class="st5" d="M42.1,36.1c0.7,1.1-3.5,1.8-3.9,1.8c-2.7,0.3-5.5,0.1-8-0.7c-2.4-0.8-4.6-2.1-6.4-3.5
					c-0.3-0.1-2.9-2.8-2.7-2.9c0.6-0.3,0-0.6-0.4-0.4c-1.5,0.7,0.8,2.7,1.4,3.1c2.4,2.1,5.3,3.6,8.3,4.6c3.1,0.8,6.3,1,9.4,0.3
					c0.8-0.1,4.2-1,3.2-2.5C42.8,35.5,42,35.8,42.1,36.1L42.1,36.1z"/>
			</g>
		</g>
		<g>
			<path class="st20" d="M42.5,36.8c1.1,1.5-6.3,3.6-12.3,2c-6-1.8-10.9-6.6-9.5-7.1"/>
			<g>
				<path class="st5" d="M42.1,36.9c0.6,1-3.4,1.7-3.9,1.8c-2.5,0.4-5.3,0.3-7.8-0.6c-2.4-0.7-4.6-2-6.6-3.5
					c-0.3-0.1-3.1-2.8-2.8-2.9c0.6-0.3,0-0.7-0.4-0.6c-1.5,0.7,0.8,2.7,1.4,3.2c2.4,2.1,5.5,3.8,8.5,4.6c2.9,0.8,6.3,0.8,9.2,0
					c0.8-0.3,4.1-1.1,3.2-2.7C42.8,36.2,41.8,36.5,42.1,36.9L42.1,36.9z"/>
			</g>
		</g>
		<g>
			<path class="st21" d="M42.5,37.6c1.1,1.5-6.4,3.8-12.3,2.1c-6-1.8-10.8-6.4-9.4-7"/>
			<g>
				<path class="st5" d="M42.1,37.8c0.6,1-3.4,1.8-3.9,1.8c-2.5,0.4-5.3,0.4-7.8-0.3c-2.4-0.7-4.6-1.8-6.6-3.4
					c-0.7-0.6-1.4-1.1-2.1-1.8C21.5,34,20.8,33,21,32.9c0.6-0.3,0-0.7-0.4-0.6c-1.5,0.7,1,2.8,1.5,3.4c2.4,2.1,5.5,3.6,8.5,4.5
					c2.9,0.7,6.2,0.7,9.1-0.1c0.8-0.3,4.2-1.1,3.2-2.7C42.8,37.1,42,37.4,42.1,37.8L42.1,37.8z"/>
			</g>
		</g>
		<g>
			<path class="st22" d="M42.5,38.5c1.1,1.5-6.6,3.9-12.5,2.2c-6-1.7-10.6-6.4-9.2-6.9"/>
			<g>
				<path class="st5" d="M42.2,38.6c0.6,1-3.4,1.8-3.8,2c-2.5,0.6-5.3,0.6-7.8-0.1c-2.4-0.7-4.8-1.8-6.7-3.4
					c-0.3-0.1-3.2-2.8-2.8-2.9c0.6-0.3,0-0.7-0.4-0.6c-1.5,0.7,0.8,2.8,1.4,3.2c2.4,2.1,5.5,3.6,8.5,4.3c2.9,0.7,6.3,0.6,9.1-0.3
					c0.8-0.3,4.1-1.3,3.2-2.7C42.8,37.9,42,38.2,42.2,38.6L42.2,38.6z"/>
			</g>
		</g>
		<g>
			<path class="st23" d="M42.7,39.3c1.1,1.5-6.7,4.1-12.6,2.4c-6-1.7-10.6-6.3-9.2-6.7"/>
			<g>
				<path class="st5" d="M42.1,39.5c0.7,1.1-2.8,2-3.4,2.1c-2.5,0.6-5.3,0.7-8,0c-2.5-0.7-5-2-7.1-3.5c-0.7-0.6-1.4-1.1-2-1.8
					c-0.1-0.3-0.4-0.6-0.6-0.8c0-0.1,0-0.4-0.1-0.4c0.6-0.3,0-0.6-0.3-0.3c-1.5,0.7,1,2.8,1.5,3.2c2.4,2,5.5,3.5,8.4,4.2
					c2.9,0.6,6,0.4,9-0.4c0.7-0.1,4.2-1.3,3.4-2.5C42.9,38.9,42,39.2,42.1,39.5L42.1,39.5z"/>
			</g>
		</g>
		<g>
			<path class="st24" d="M42.7,40.2c1.1,1.5-6.7,4.2-12.6,2.5S19.6,36.5,21,36"/>
			<g>
				<path class="st5" d="M42.1,40.2c0.7,1.1-2.8,2-3.5,2.1c-2.5,0.7-5.5,0.7-8,0.1c-2.5-0.6-5-1.8-7.1-3.5c-0.7-0.6-1.4-1.1-2-1.8
					c-0.1-0.3-0.4-0.6-0.6-0.8c0-0.1,0-0.4-0.1-0.4c0.6-0.3,0-0.6-0.3-0.3c-1.5,0.7,1,2.8,1.5,3.2c2.4,2,5.3,3.5,8.4,4.1
					c2.9,0.6,6.2,0.3,9-0.6c0.7-0.1,4.2-1.3,3.5-2.7C42.9,39.7,42,40,42.1,40.2L42.1,40.2z"/>
			</g>
		</g>
		<g>
			<path class="st25" d="M42.7,41c1.1,1.5-6.9,4.2-12.7,2.7c-5.9-1.5-10.4-6-9.1-6.6"/>
			<g>
				<path class="st5" d="M42.2,41c0.7,1.3-2.8,2.1-3.5,2.2c-2.7,0.7-5.5,0.8-8.1,0.1c-2.5-0.6-4.9-1.8-6.9-3.2
					c-0.7-0.6-1.4-1.1-2.1-1.8c-0.1-0.3-0.4-0.6-0.6-0.8c0-0.1,0-0.4-0.1-0.4c0.6-0.3,0-0.4-0.3-0.3c-1.5,0.7,0.8,2.7,1.5,3.2
					c2.4,2,5.5,3.5,8.5,3.9c2.9,0.6,6.2,0.3,9-0.7c0.7-0.1,4.2-1.3,3.4-2.7C42.9,40.6,42.1,40.9,42.2,41L42.2,41z"/>
			</g>
		</g>
		<g>
			<path class="st26" d="M42.7,41.8c1.1,1.5-7,4.3-12.9,2.8s-10.4-6-9-6.4"/>
			<g>
				<path class="st5" d="M42.2,41.8c0.7,1.1-2.8,2.1-3.4,2.2c-2.5,0.7-5.3,1-8,0.4c-2.5-0.6-4.9-1.7-7-3.2c-0.7-0.6-1.5-1.1-2.1-1.8
					c-0.1-0.1-0.8-1.1-0.7-1.3c0.6-0.3,0-0.4-0.3-0.3c-1.5,0.7,1,2.7,1.5,3.2c2.5,2,5.6,3.4,8.7,3.9c2.9,0.4,6,0.1,8.8-0.8
					c0.7-0.3,4.1-1.4,3.4-2.7C42.9,41.4,42.1,41.7,42.2,41.8L42.2,41.8z"/>
			</g>
		</g>
		<g>
			<path class="st27" d="M42.7,42.5c1.1,1.5-7,4.5-12.9,2.9s-10.2-5.9-8.8-6.3"/>
			<g>
				<path class="st5" d="M42.2,42.7c0.7,1.1-2.7,2.1-3.4,2.2c-2.5,0.7-5.2,1-7.7,0.6c-2.7-0.4-5.2-1.5-7.3-3.1
					c-0.7-0.6-1.5-1.1-2.1-1.8c-0.1-0.1-1-1.3-0.7-1.3c0.6-0.3,0-0.6-0.4-0.3c-1.5,0.7,1,2.8,1.5,3.2c2.5,2,5.6,3.4,8.7,3.8
					c2.9,0.4,6,0,8.8-1c0.7-0.3,4.2-1.4,3.4-2.7C42.9,42.1,42.1,42.5,42.2,42.7L42.2,42.7z"/>
			</g>
		</g>
		<g>
			<path class="st28" d="M42.7,43.4c1.1,1.5-7.1,4.6-13,3.1c-5.9-1.4-10.2-5.7-8.8-6.3"/>
			<g>
				<path class="st5" d="M42.2,43.7c0.6,0.8-3.1,2-3.5,2.1c-2.4,0.7-4.9,1-7.4,0.7s-5-1.4-7.3-2.8c-0.8-0.6-1.7-1.1-2.2-2
					c-0.1-0.1-0.8-1.1-0.7-1.1c0.6-0.3,0-0.8-0.4-0.6c-1.1,0.6,0,1.8,0.4,2.4c1.5,1.5,3.5,2.8,5.5,3.5c4.5,2,9.8,1.8,14.3-0.1
					c0.8-0.3,3.1-1.4,2.4-2.5C42.9,42.8,42,43.2,42.2,43.7L42.2,43.7z"/>
			</g>
		</g>
		<g>
			<path class="st29" d="M42.7,44.2c1.1,1.5-7.3,4.8-13.2,3.4c-5.9-1.4-10.1-5.6-8.7-6.2"/>
			<g>
				<path class="st5" d="M42.2,44.5c0.6,1-3.1,2.1-3.6,2.2c-2.4,0.7-4.9,1.1-7.3,0.8c-2.7-0.3-5.2-1.4-7.3-2.8
					c-0.8-0.6-1.5-1.1-2.2-1.8c0-0.1-0.8-1.1-0.7-1.1c0.6-0.3,0-0.7-0.4-0.6c-1.1,0.6-0.1,1.8,0.4,2.2c1.5,1.5,3.5,2.8,5.6,3.6
					c4.5,1.8,9.8,1.5,14.1-0.4c0.8-0.3,3.1-1.4,2.2-2.5C42.9,43.7,42,44.1,42.2,44.5L42.2,44.5z"/>
			</g>
		</g>
		<g>
			<path class="st30" d="M42.7,45.1c1.1,1.5-7.3,4.8-13.3,3.5c-5.9-1.4-9.9-5.6-8.5-6"/>
			<g>
				<path class="st5" d="M42.2,45.3c0.6,1-3.1,2.1-3.5,2.2c-2.4,0.7-4.8,1.1-7.3,1c-2.7-0.1-5.2-1.3-7.4-2.7c-0.8-0.6-1.7-1.1-2.4-2
					c-0.1-0.1-0.8-1.1-0.7-1.3c0.6-0.3,0-0.7-0.4-0.6c-1.1,0.6-0.1,1.7,0.4,2.2c1.5,1.7,3.6,2.8,5.7,3.5c4.5,1.7,9.7,1.3,14-0.7
					c0.7-0.3,2.9-1.4,2.2-2.5C42.9,44.6,42.1,44.9,42.2,45.3L42.2,45.3z"/>
			</g>
		</g>
		<g>
			<path class="st31" d="M42.7,45.9c1.1,1.5-7.4,4.9-13.3,3.6s-9.9-5.5-8.5-5.9"/>
			<g>
				<path class="st5" d="M42.2,46c0.7,1.1-2.5,2.2-3.1,2.4c-2.4,0.8-5.2,1.3-7.7,1.1c-2.7-0.3-5.3-1.3-7.6-2.8
					c-0.3-0.1-3.6-2.8-2.8-3.2c0.6-0.3-0.3-0.3-0.6-0.1c-1.1,0.4,0.1,1.7,0.6,2.2c1.7,1.5,3.8,2.7,5.9,3.5c4.3,1.5,9.2,0.8,13.4-1
					c0.6-0.3,3.2-1.4,2.5-2.5C43.1,45.6,42.2,45.9,42.2,46L42.2,46z"/>
			</g>
		</g>
		<g>
			<path class="st32" d="M42.8,46.7c1.1,1.5-7.6,5-13.4,3.8c-5.9-1.3-9.8-5.3-8.4-5.9"/>
			<g>
				<path class="st5" d="M42.4,46.9c0.6,1-2.9,2.2-3.5,2.4c-2.4,0.8-4.9,1.3-7.3,1.1c-2.7-0.1-5.3-1.1-7.6-2.5
					c-0.8-0.6-1.5-1.1-2.2-1.8c-0.1-0.1-1-1.1-0.7-1.3c0.6-0.3,0-0.7-0.4-0.4c-1.1,0.4-0.1,1.7,0.4,2.2c1.5,1.7,3.6,2.7,5.7,3.5
					c4.5,1.5,9.7,1,14-1c0.7-0.3,3.1-1.4,2.4-2.5C42.9,46.3,42.1,46.6,42.4,46.9L42.4,46.9z"/>
			</g>
		</g>
		<g>
			<path class="st33" d="M42.8,47.6c1.1,1.5-7.7,5.2-13.6,3.9s-9.7-5.2-8.4-5.7"/>
			<g>
				<path class="st5" d="M42.4,47.7c0.6,0.8-2.9,2.1-3.5,2.4c-2.2,0.8-4.6,1.3-7,1.3c-2.7,0-5.5-1-7.7-2.4c-0.8-0.6-1.7-1.1-2.2-1.8
					c-0.1-0.1-1-1.1-0.7-1.3c0.6-0.3,0-0.8-0.4-0.6c-1.1,0.6-0.1,1.8,0.4,2.4c1.5,1.7,3.8,2.8,6,3.5c4.5,1.4,9.7,0.7,13.9-1.3
					c0.7-0.4,2.9-1.4,2.2-2.7C42.9,47,42.1,47.3,42.4,47.7L42.4,47.7z"/>
			</g>
		</g>
		<g>
			<path class="st34" d="M42.8,48.4c1.1,1.5-7.7,5.3-13.6,4.1c-5.9-1.1-9.7-5.2-8.3-5.6"/>
			<g>
				<path class="st5" d="M42.2,48.6c0.7,1.1-2.5,2.2-3.1,2.5c-2.4,1-4.9,1.5-7.4,1.5c-2.7,0-5.3-0.8-7.6-2.1
					c-0.8-0.6-1.7-1.1-2.4-1.8c-0.1-0.1-1.1-1.3-0.8-1.4c0.6-0.3,0-0.6-0.3-0.3c-1.1,0.4-0.3,1.5,0.3,2.1c1.7,1.7,3.9,2.8,6.2,3.5
					c4.3,1.3,9.4,0.4,13.4-1.4c0.7-0.3,3.2-1.4,2.5-2.5C43.1,48,42.2,48.3,42.2,48.6L42.2,48.6z"/>
			</g>
		</g>
		<g>
			<path class="st35" d="M42.8,49.3c1.1,1.5-7.8,5.3-13.7,4.2s-9.5-5-8.1-5.5"/>
			<g>
				<path class="st5" d="M42.4,49.4c0.6,1-2.8,2.2-3.2,2.5c-2.4,1-4.9,1.5-7.3,1.5c-2.7,0-5.3-0.7-7.6-2.1c-0.8-0.6-1.7-1.1-2.4-1.8
					c-0.1-0.1-1.1-1.3-0.7-1.4c0.6-0.3,0-0.6-0.4-0.4c-1.1,0.6-0.1,1.7,0.4,2.2c1.5,1.5,3.8,2.7,5.9,3.2c4.5,1.4,9.7,0.4,13.9-1.7
					c0.7-0.3,2.9-1.4,2.2-2.5C43.1,48.8,42.1,49.1,42.4,49.4L42.4,49.4z"/>
			</g>
		</g>
		<path class="st36" d="M42.8,50.1c1.1,1.5-8,5.5-13.9,4.3c-5.9-1.1-9.5-4.9-8.1-5.3"/>
	</g>
	<g>
		<g>
			<g>
				<path class="st3" d="M42.7,14.3c0.1,0-1,1-1,1.1c-0.7,0.6-1.4,1.1-2.2,1.5c-2,1.3-4.1,2.5-6.2,3.5c-2.4,1.1-4.8,2.1-7.1,3.1
					c-1,0.4-2,0.8-2.9,1.1c-0.4,0.1-3.1,1.1-2.4-0.4c0.1-0.4-0.6-0.4-0.7-0.1c-0.4,0.8,0.1,1.5,1.1,1.5s2-0.6,2.9-0.8
					c3.2-1.1,6.3-2.5,9.2-3.9c2.8-1.3,5.5-2.9,7.8-4.8c0.3-0.3,2.9-2,1.7-2.5C42.8,13.6,42.2,14,42.7,14.3L42.7,14.3z"/>
			</g>
		</g>
		<g>
			<g>
				<path class="st37" d="M20.3,25.5c-0.3,0.7,0,1.4,0.7,1.5c1,0.1,2.1-0.4,3.1-0.7c3.2-1.1,6.3-2.5,9.4-3.9
					c2.7-1.3,5.3-2.8,7.7-4.5c0.3-0.1,3.1-2.1,2-2.7c-0.3-0.1-0.8,0.3-0.6,0.4c0.4,0.1-2.5,2.4-2.8,2.5c-2,1.3-4.1,2.5-6.2,3.5
					c-2.4,1.1-4.8,2.1-7.1,3.1c-1.1,0.4-2.1,0.8-3.2,1.3c-0.4,0.1-3.1,1.1-2.4-0.4C21.1,25.2,20.4,25.2,20.3,25.5L20.3,25.5z"/>
			</g>
		</g>
		<g>
			<g>
				<path class="st38" d="M20.3,26.6c-0.3,0.7,0,1.4,0.8,1.4c1,0.1,2.4-0.4,3.2-0.8c3.4-1.1,6.4-2.5,9.7-4.1
					c2.5-1.3,5.2-2.7,7.4-4.5c0.3-0.3,2.8-2,1.7-2.5c-0.3-0.1-0.7,0.3-0.4,0.4c0.1,0.1-2.8,2.5-2.9,2.7c-1.8,1.3-3.8,2.4-5.9,3.4
					c-2.4,1.1-4.8,2.1-7.1,3.1c-1.1,0.4-2.2,0.8-3.4,1.3c-0.4,0.1-3.1,1-2.4-0.4C21.1,26.3,20.4,26.3,20.3,26.6L20.3,26.6z"/>
			</g>
		</g>
		<g>
			<g>
				<path class="st39" d="M20.3,27.8c-1.1,2.2,3.2,0.8,3.9,0.7c3.1-1,6.2-2.4,9.1-3.8c2.7-1.3,5.3-2.7,7.7-4.3
					c0.3-0.3,3.1-2.2,2.1-2.7c-0.3-0.1-0.8,0.1-0.6,0.3c0.4,0.3-2.7,2.5-2.9,2.7c-2,1.3-3.9,2.4-6,3.4c-2.2,1-4.5,2.1-6.9,2.9
					c-1.1,0.4-2.2,0.8-3.4,1.3c-0.4,0.1-3.4,1.1-2.7-0.4C21.1,27.6,20.4,27.6,20.3,27.8L20.3,27.8z"/>
			</g>
		</g>
		<g>
			<g>
				<path class="st40" d="M20.3,29c-1,2.2,3.2,1,3.9,0.7c3.1-1,6-2.2,9-3.6c2.8-1.3,5.5-2.7,8-4.5c0.3-0.3,3.1-2.1,2-2.7
					c-0.3-0.1-0.7,0.3-0.3,0.4c0.3,0.1-3.1,2.7-3.4,2.9c-2,1.3-3.9,2.4-6.2,3.4c-2.1,1-4.2,2-6.4,2.8c-1.1,0.4-2.1,0.8-3.2,1.1
					c-0.3,0.1-3.4,1-2.7-0.3C21.1,28.8,20.4,28.8,20.3,29L20.3,29z"/>
			</g>
		</g>
		<g>
			<g>
				<path class="st41" d="M20.4,30.2c-1,2.1,3.1,0.8,3.8,0.7c2.9-1,5.7-2.1,8.5-3.4s5.5-2.5,8-4.3c0.3-0.3,3.4-2.4,2.4-2.9
					c-0.1-0.1-0.7,0.1-0.4,0.3c0.6,0.3-3.1,2.9-3.4,3.1C37.3,25,35.1,26,33,27s-4.2,1.8-6.4,2.7c-1,0.4-2.1,0.7-3.1,1.1
					c-0.4,0.1-3.1,0.8-2.5-0.6C21,30.1,20.4,30.1,20.4,30.2L20.4,30.2z"/>
			</g>
		</g>
		<g>
			<g>
				<path class="st42" d="M20.4,31.5c-1,2.1,3.2,1,3.8,0.7c2.8-0.8,5.5-2,8.1-3.1c2.8-1.3,5.5-2.5,8-4.2c0.3-0.3,3.8-2.5,2.8-3.2
					c-0.3-0.1-0.7,0.1-0.4,0.3c0.6,0.3-3.4,3.1-3.6,3.2c-2,1.3-4.2,2.2-6.3,3.2c-2.1,0.8-4.1,1.8-6.2,2.5c-1,0.4-2,0.7-2.9,1
					C23.4,32,23,32,22.6,32.2c-0.3,0-2,0.4-1.5-0.7C21,31.2,20.4,31.2,20.4,31.5L20.4,31.5z"/>
			</g>
		</g>
		<g>
			<g>
				<path class="st43" d="M20.4,32.7c-0.8,2,3.4,0.7,3.9,0.6c2.7-0.8,5.3-2,8-3.1c2.8-1.3,5.5-2.4,8-4.1c0.4-0.3,3.9-2.7,2.8-3.2
					c-0.1-0.1-0.7,0.1-0.4,0.3c0.7,0.4-3.6,3.4-4.1,3.6c-2.1,1.3-4.2,2.2-6.4,3.1c-2.1,0.8-4.1,1.7-6.2,2.5c-1,0.3-2,0.7-2.9,0.8
					c-0.6,0.1-2.7,0.7-2.1-0.7C21,32.5,20.4,32.6,20.4,32.7L20.4,32.7z"/>
			</g>
		</g>
		<g>
			<g>
				<path class="st44" d="M20.4,34c-0.7,2,3.4,0.7,3.9,0.6c2.5-0.7,5-1.8,7.6-2.8c2.7-1.1,5.3-2.2,7.7-3.8c0.4-0.3,4.5-2.9,3.5-3.5
					c-0.1-0.1-0.6,0.1-0.4,0.1c0.8,0.6-3.4,3.4-3.8,3.5c-2,1.3-4.2,2.1-6.3,3.1S28.2,33,26,33.9c-0.8,0.3-1.8,0.6-2.7,0.8
					c-0.6,0.1-2.9,0.7-2.4-0.7C21,33.7,20.4,33.9,20.4,34L20.4,34z"/>
			</g>
		</g>
		<g>
			<g>
				<path class="st45" d="M20.4,35.1c-0.7,2,3.1,1,3.9,0.7c2.7-0.7,5.2-1.8,7.7-2.9c2.5-1.1,5.3-2.2,7.7-3.8
					c0.4-0.3,4.5-2.9,3.4-3.6c-0.1-0.1-0.7,0.1-0.4,0.3c0.7,0.4-4.3,3.8-4.6,3.9c-1.8,1-3.8,1.8-5.7,2.7c-2.1,0.8-4.2,1.7-6.3,2.5
					c-0.8,0.3-1.7,0.6-2.5,0.7c-0.4,0.1-0.7,0.1-1.1,0.3c-0.4,0-1.7,0.1-1.4-0.7C21,34.8,20.5,34.8,20.4,35.1L20.4,35.1z"/>
			</g>
		</g>
		<g>
			<g>
				<path class="st46" d="M20.4,36.4c-0.7,1.8,3.4,0.7,3.9,0.6c2.5-0.7,5-1.7,7.4-2.8c2.4-1,4.9-2,7.1-3.4c0.4-0.3,5-3.2,4.1-3.9
					c-0.1-0.1-0.6,0.1-0.4,0.1c1,0.6-4.2,3.8-4.6,4.1c-1.8,1-3.8,1.8-5.7,2.7c-2,0.8-3.9,1.7-6,2.4c-0.8,0.3-1.8,0.6-2.7,0.8
					c-0.6,0.1-3.1,0.7-2.5-0.7C21,36.1,20.5,36.2,20.4,36.4L20.4,36.4z"/>
			</g>
		</g>
		<g>
			<g>
				<path class="st47" d="M20.4,37.6c-0.7,1.7,3.2,0.7,3.8,0.6c2.5-0.7,5-1.7,7.6-2.7c2.4-1,4.9-2,7.1-3.2c0.6-0.3,5.3-3.2,4.2-4.1
					c-0.1-0.1-0.6,0.1-0.4,0.1c1,0.7-4.6,4.1-5.2,4.3c-1.7,0.8-3.5,1.7-5.3,2.4c-2.1,0.8-4.2,1.7-6.3,2.4c-0.4,0.1-5.5,1.7-4.9,0
					C21,37.4,20.5,37.4,20.4,37.6L20.4,37.6z"/>
			</g>
		</g>
		<g>
			<g>
				<path class="st48" d="M20.5,38.8c-0.6,1.7,3.4,0.7,3.9,0.6c2.4-0.7,4.8-1.5,7.1-2.5s4.6-2,6.9-3.1c0.4-0.3,5.7-3.4,4.5-4.2
					c-0.1,0-0.4,0.1-0.4,0.1c1.1,0.8-4.5,4.1-4.9,4.2c-1.7,0.8-3.5,1.7-5.3,2.4c-2.1,0.8-4.1,1.7-6.3,2.4c-0.6,0.1-5.7,1.8-5.2,0
					C21,38.6,20.5,38.6,20.5,38.8L20.5,38.8z"/>
			</g>
		</g>
		<g>
			<g>
				<path class="st49" d="M20.5,40c-0.6,1.7,3.2,0.7,3.8,0.6c2.7-0.7,5-1.7,7.6-2.7c2.4-1,4.6-2,6.9-3.1c0.6-0.3,5.5-3.1,4.2-4.1
					c-0.1-0.1-0.4,0.1-0.3,0.1c0.7,0.6-2,2.4-2.2,2.7c-1,0.7-2,1.1-3.1,1.7c-1.8,0.8-3.6,1.7-5.5,2.4c-2.1,0.8-4.1,1.7-6.2,2.2
					c-0.4,0.1-5.5,1.5-4.9,0C21,39.7,20.5,39.9,20.5,40L20.5,40z"/>
			</g>
		</g>
		<g>
			<g>
				<path class="st50" d="M20.5,41.3c-0.6,1.5,3.1,0.7,3.6,0.6c2.5-0.6,4.9-1.5,7.3-2.5s4.6-2,7-2.9c0.7-0.3,5.9-3.1,4.5-4.2
					c-0.1,0-0.4,0.1-0.4,0.1c1.3,1-4.2,3.9-4.8,4.2c-1.8,0.8-3.6,1.7-5.6,2.4c-2.1,0.8-4.2,1.7-6.3,2.2c-0.4,0.1-5.6,1.7-5,0
					C21,41,20.5,41.1,20.5,41.3L20.5,41.3z"/>
			</g>
		</g>
		<g>
			<g>
				<path class="st51" d="M20.5,42.4c-0.6,1.5,3.2,0.7,3.8,0.6c2.5-0.6,4.9-1.5,7.3-2.5s4.8-2,7-3.1c0.7-0.3,5.6-2.9,4.2-4.1
					c-0.1-0.1-0.4,0-0.3,0.1c1.3,1-4.1,3.8-4.9,4.2c-1.8,0.8-3.8,1.7-5.6,2.4c-2.1,0.8-4.1,1.5-6.3,2.2c-0.4,0.1-5.3,1.5-4.8,0
					C21,42.3,20.5,42.3,20.5,42.4L20.5,42.4z"/>
			</g>
		</g>
		<g>
			<g>
				<path class="st52" d="M20.5,43.7c-0.4,1.1,2,1,2.5,0.8c1.7-0.3,3.2-0.8,4.9-1.4c3.9-1.3,7.7-2.8,11.3-4.6
					c0.7-0.3,4.9-2.7,3.6-3.6c-0.1,0-0.4,0-0.3,0.1c1,0.8-2.1,2.8-2.7,3.1c-0.7,0.3-1.4,0.7-2.1,1c-2,0.8-3.9,1.7-5.9,2.5
					c-2.1,0.8-4.2,1.5-6.3,2.2c-0.4,0.1-5.3,1.4-4.8,0C21,43.5,20.5,43.5,20.5,43.7L20.5,43.7z"/>
			</g>
		</g>
		<g>
			<g>
				<path class="st53" d="M20.5,44.8c-0.3,1.1,2.1,0.8,2.7,0.8c1.7-0.3,3.4-0.8,5-1.4c3.9-1.3,7.7-2.8,11.3-4.6
					c0.7-0.4,4.6-2.4,3.4-3.5c-0.1,0-0.4,0-0.3,0.1c1,0.8-1.8,2.7-2.4,2.9c-0.7,0.4-1.4,0.7-2.2,1.1c-2,0.8-3.9,1.7-5.9,2.5
					c-2.1,0.8-4.2,1.7-6.4,2.2c-0.3,0.1-5.3,1.4-4.8-0.1C21,44.6,20.5,44.8,20.5,44.8L20.5,44.8z"/>
			</g>
		</g>
		<g>
			<g>
				<path class="st54" d="M20.5,46c-0.3,1.1,2.1,0.8,2.7,0.7c1.7-0.3,3.4-0.8,4.9-1.4c3.9-1.4,7.8-2.9,11.6-4.8
					c0.7-0.3,1.4-0.7,2.1-1.1c0.4-0.4,1.7-1.5,1-2.2c0,0-0.3,0-0.3,0.1c1,1-1.5,2.5-2.1,2.8c-0.7,0.4-1.4,0.7-2.2,1
					c-2,0.8-4.1,1.7-6,2.5c-2.1,0.8-4.2,1.5-6.3,2.2c-0.4,0.1-5.3,1.4-4.9-0.1C21,45.9,20.5,45.9,20.5,46L20.5,46z"/>
			</g>
		</g>
		<g>
			<g>
				<path class="st55" d="M20.5,47.3c-0.3,1.1,2.1,0.8,2.7,0.8c1.7-0.3,3.5-0.8,5.2-1.4c3.9-1.4,7.8-2.9,11.6-4.8
					c0.8-0.4,4.1-2,2.8-3.2c0,0-0.3,0-0.3,0.1c1.5,1.4-3.4,3.4-4.2,3.8c-2,0.8-4.1,1.7-6.2,2.5s-4.3,1.7-6.4,2.2
					c-0.3,0.1-5.2,1.4-4.8-0.1C21,47.2,20.7,47.2,20.5,47.3L20.5,47.3z"/>
			</g>
		</g>
		<g>
			<g>
				<path class="st56" d="M20.7,48.4c-0.3,1,2.1,0.8,2.7,0.8c1.7-0.3,3.5-0.8,5.2-1.4c4.1-1.4,8-2.9,11.8-4.8c1-0.4,4.1-1.7,2.5-3.2
					c-0.1-0.1-0.3,0-0.3,0.1c1.5,1.5-3.2,3.2-4.2,3.6c-2.1,1-4.2,1.8-6.3,2.5c-2.1,0.8-4.3,1.5-6.4,2.2c-0.3,0.1-5,1.3-4.8-0.1
					C21,48.3,20.7,48.3,20.7,48.4L20.7,48.4z"/>
			</g>
		</g>
		<g>
			<g>
				<path class="st4" d="M20.7,49.7c-0.3,1,2.2,0.8,2.7,0.7c1.7-0.3,3.5-0.8,5-1.4c4.1-1.4,8.1-2.9,11.9-4.8c1-0.4,3.9-1.5,2.4-3.1
					c0,0-0.3,0-0.3,0.1c1.5,1.7-2.9,3.1-3.9,3.6c-2.1,1-4.3,1.8-6.4,2.7s-4.3,1.5-6.6,2.2C25.2,50,20.4,51.1,20.7,49.7
					C21,49.5,20.7,49.5,20.7,49.7L20.7,49.7z"/>
			</g>
		</g>
	</g>
	<g>
		<g>
			<path class="st3" d="M21,29.9c5.2-1.1,10.2-2.8,15-4.8c1.1-0.4,2.1-0.8,3.2-1.4c0.7-0.4,1.3-0.8,2-1.4s2.5-1.4,2.7-2.4
				c0-0.3-0.7-0.1-0.7,0.1c0,1-2.1,1.8-2.8,2.4c-1.7,1.3-3.6,2.1-5.6,2.9c-4.5,1.8-9,3.2-13.7,4.2C20.4,29.7,20.5,29.9,21,29.9
				L21,29.9z"/>
		</g>
	</g>
	<g>
		<g>
			<path class="st3" d="M20.8,42c4.6-0.8,9.2-2,13.7-3.5c2.1-0.7,4.3-1.5,6.4-2.7c0.8-0.4,2.7-1.5,2.7-2.7c0-0.1-0.7,0-0.7,0.1
				c0,0.7-1,1.3-1.4,1.7c-0.8,0.7-2,1.1-3.1,1.4c-1.8,0.8-3.8,1.5-5.7,2.1c-3.9,1.3-7.8,2.2-11.9,2.9C20.5,41.7,20.3,42.1,20.8,42
				L20.8,42z"/>
		</g>
	</g>
	<g>
		<g>
			<path class="st3" d="M20.5,49.1c5.5-1.1,10.9-2,16.2-3.8c0.6-0.1,7.6-2.5,6.3-3.6c-0.1-0.1-0.8,0.1-0.7,0.3
				c0.6,0.6-2.1,1.7-2.4,1.8c-1.7,0.7-3.5,1.4-5.3,1.8c-4.8,1.4-9.5,2.2-14.3,3.1C20.1,49,20.1,49.3,20.5,49.1L20.5,49.1z"/>
		</g>
	</g>
	<g>
		<g>
			<path class="st3" d="M20.5,51.8c4.5-0.7,9.1-1.3,13.4-2.1c2-0.4,3.9-1,5.7-1.8c1.1-0.6,3.1-1.3,3.5-2.7c0.1-0.3-0.7-0.3-0.7,0
				c-0.3,1-2,1.5-2.8,2c-0.8,0.4-1.5,0.7-2.4,1c-1.8,0.7-3.6,1-5.5,1.3c-3.8,0.6-7.6,1.1-11.2,1.8C20.3,51.2,20.1,51.8,20.5,51.8
				L20.5,51.8z"/>
		</g>
	</g>
	<g>
		<g>
			<path class="st3" d="M20.3,34.4c6.9,4.3,14,9.1,22.3,9.8c0.1,0,0.8-0.3,0.4-0.3c-8.3-0.7-15.3-5.5-22.1-9.8
				C20.8,34,20.1,34.3,20.3,34.4L20.3,34.4z"/>
		</g>
	</g>
	<g>
		<g>
			<path class="st3" d="M20.4,49c4.8-0.7,9.7-1.1,14.4-2.1c1.8-0.3,3.6-0.8,5.3-1.5c0.8-0.4,3.8-1.4,3.1-2.8c-0.1-0.1-0.8,0-0.7,0.1
				c1.1,2.4-8.7,4.1-10.1,4.2c-3.9,0.6-7.8,1.1-11.9,1.7C20.3,48.7,20,49.1,20.4,49L20.4,49z"/>
		</g>
	</g>
	<g>
		<g>
			<path class="st3" d="M20.1,38.3c4.6-0.3,9.2-1,13.7-2c2-0.4,3.9-0.8,5.9-1.8c1.4-0.7,2.8-1.5,3.8-2.8c0.1-0.3-0.6-0.3-0.7,0
				c-1,1.4-2.9,2.4-4.5,3.1c-1.8,0.8-3.9,1.1-5.9,1.5c-4.1,0.8-8.1,1.4-12.3,1.7C20,37.9,19.7,38.5,20.1,38.3L20.1,38.3z"/>
		</g>
	</g>
	<g>
		<g>
			<path class="st3" d="M20,32.5c4,0.5,8.4,1.1,12.4,0.5c2.5-0.4,4.9-1.5,7-2.8c1.3-0.8,4.1-2.4,3.9-4.2c0-0.4-0.7-0.3-0.7,0
				c0,0.8-0.8,1.7-1.4,2.1c-0.8,0.8-2,1.4-2.9,2.1c-2.1,1.3-4.5,2.2-7,2.4c-3.6,0.3-7.6-0.1-11.2-0.6C19.8,31.9,19.6,32.5,20,32.5
				L20,32.5z"/>
		</g>
	</g>
	<g>
		<g>
			<path class="st3" d="M21.1,20.3c-0.1-0.3-0.4-0.8-0.4-1.1c-0.1,0.1-0.4,0.1-0.7,0.1c0,0,0.1,1.5,0.1,1.7c0.1,0.6,0.1,1.1,0.4,1.7
				c0.4,1.3,0.8,2.5,1.5,3.6c1.4,2.5,3.5,4.8,5.9,6.3c2.8,1.8,6.2,3.1,9.5,3.9c1.7,0.4,3.6,0.8,5.5,1c0.1,0,0.8-0.3,0.4-0.3
				c-1.8,0-3.5-0.4-5.3-0.8c-3.4-0.8-6.7-2.1-9.7-4.1c-4.2-2.8-7.6-7.8-7.7-13.2l0,0l0,0c-0.1,0-0.6,0-0.7,0.1
				c0,0.3,0.3,0.8,0.4,1.1C20.5,20.6,21.2,20.4,21.1,20.3L21.1,20.3z"/>
		</g>
	</g>
	<g>
		<g>
			<path class="st3" d="M20.1,27.1c3.2,2.4,6.6,4.6,10.1,6.7c2.5,1.5,5.3,2.9,8.1,3.9c0.8,0.3,4.6,2,5.2,0.3c0-0.1-0.7,0-0.7,0.1
				c-0.3,1.1-6.6-1.8-7.1-2.1c-2.4-1.1-4.8-2.5-7-3.9c-2.7-1.7-5.3-3.4-7.8-5.3C20.7,26.7,20,27,20.1,27.1L20.1,27.1z"/>
		</g>
	</g>
	<g>
		<g>
			<path class="st3" d="M20.5,43.5c3.1,2.1,6.7,3.2,10.2,4.6c3.8,1.4,7.7,2.8,11.6,4.1c0.4,0.1,0.7-0.6,0.1-0.7
				c-3.8-1.3-7.6-2.5-11.2-3.9C27.8,46.3,24,45.2,21,43C20.5,42.5,20.1,43.2,20.5,43.5L20.5,43.5z"/>
		</g>
	</g>
	<g>
		<g>
			<path class="st3" d="M42.1,47.6c-4.6,0.8-9.5,1-14.3,0.8c-1.1,0-2.2-0.1-3.5-0.3c-0.6,0-1.1-0.1-1.5-0.3c-0.3,0-1-0.4-1.3-0.4
				c-0.4,0-0.4,0-0.6,0.4c-0.1,1,1.3,2.9,1.7,3.8c1.4,2.7,2.8,5.3,4.2,8.1c4.1,7.7,7.8,15.7,10.8,23.8c2.7,7.3,5.3,16,3.6,23.8
				c-1,4.9-4.9,8.1-6.4,12.7c-2.5,7.1-1.7,14.8,0,22.1c0.1,0.4,0.7,0.3,0.6-0.1c-1.5-6.7-2.5-14-0.3-20.7c1-3.1,2.7-5.6,4.5-8.1
				c0.8-1.1,1.4-2.4,1.8-3.8c2.1-6.7,0.3-14.6-1.7-21.1c-2.5-8.3-6-16.1-9.8-23.8c-2.5-5.2-5.6-10.2-8-15.4
				c-0.1-0.3-0.1-0.7-0.4-0.8c0,0,0-0.3-0.1-0.3c0,0-0.4,0-0.1,0.3c1.5,1,4.1,0.8,5.7,0.8c4.9,0.1,10.1,0,15-0.8
				C42.7,48.1,42.5,47.4,42.1,47.6L42.1,47.6z"/>
		</g>
	</g>
	<g>
		<g>
			<ellipse class="st57" cx="32" cy="13" rx="14.8" ry="6.9"/>
			<ellipse class="st1" cx="32.2" cy="11" rx="14.8" ry="7.4"/>
		</g>
		<g>
			<path class="st58" d="M33.4,10.9c0,0-0.3,0.7-1.4,0.7c-1,0-1.4-0.7-1.4-0.7V2.5h2.7L33.4,10.9L33.4,10.9z"/>
			<ellipse class="st59" cx="32" cy="2.4" rx="1.4" ry="0.6"/>
		</g>
	</g>
</g>
<path class="st60" d="M139.1,80.1"/>
<path class="st61" d="M7,132.2"/>
<path class="st61" d="M96.3,111.5"/>
<path class="st62" d="M75.8,114.1"/>
<path class="st62" d="M95.9,121.1"/>
<path class="st63" d="M-27.7,97.9"/>
<path class="st64" d="M95.2,124.5"/>
<path class="st62" d="M83.9,109.5"/>
<polygon class="st65" points="5.4,158.9 95.5,113.8 101.8,116.8 11.6,162.1 "/>
<g>
	<path class="st66" d="M9.5,159.1c-0.6,0-1.3-0.4-1.6-1c-0.4-0.9-0.1-2,0.8-2.4l101-51.1c0.9-0.4,1.9-0.1,2.4,0.8
		c0.4,0.9,0.1,2-0.8,2.4l-101,51.1C10.1,159.1,9.8,159.1,9.5,159.1z"/>
</g>
<path class="st67" d="M146.4,136.9l-91.4,45.8l-0.8,11.7c0,0,1.5,1.5,5.9-1.5c0,0,87.7-44.6,89.2-45.4c1.5-0.8,2.2-4.9,1.4-7.4
	S146.4,136.9,146.4,136.9z"/>
<path class="st68" d="M55.1,182.7l-0.6,12c0,0,5.6,2,5.7-4.3S55.1,182.7,55.1,182.7z"/>
<path class="st61" d="M6.7,131.6"/>
<g>
	<g>
		<path class="st69" d="M17.5,153.3c-0.3,0-0.5-0.2-0.5-0.5L16.9,127c0-0.3,0.2-0.5,0.5-0.5c0,0,0,0,0,0c0.3,0,0.5,0.2,0.5,0.5
			l0.1,25.8C17.9,153.1,17.7,153.3,17.5,153.3C17.5,153.3,17.5,153.3,17.5,153.3z"/>
	</g>
	<path class="st69" d="M20.8,151.5c-0.3,0-0.5-0.2-0.5-0.5l-0.1-25.8c0-0.3,0.2-0.5,0.5-0.5c0,0,0,0,0,0c0.3,0,0.5,0.2,0.5,0.5
		l0.1,25.8C21.3,151.3,21.1,151.5,20.8,151.5C20.8,151.5,20.8,151.5,20.8,151.5z"/>
	<path class="st69" d="M24.2,149.8c-0.3,0-0.5-0.2-0.5-0.5l-0.1-25.8c0-0.3,0.2-0.5,0.5-0.5c0,0,0,0,0,0c0.3,0,0.5,0.2,0.5,0.5
		l0.1,25.8C24.7,149.6,24.5,149.8,24.2,149.8C24.2,149.8,24.2,149.8,24.2,149.8z"/>
	<path class="st69" d="M27.6,148c-0.3,0-0.5-0.2-0.5-0.5l-0.1-25.8c0-0.3,0.2-0.5,0.5-0.5c0,0,0,0,0,0c0.3,0,0.5,0.2,0.5,0.5
		l0.1,25.8C28.1,147.8,27.8,148,27.6,148C27.6,148,27.6,148,27.6,148z"/>
	<path class="st69" d="M31,146.3c-0.3,0-0.5-0.2-0.5-0.5l-0.1-25.8c0-0.3,0.2-0.5,0.5-0.5c0,0,0,0,0,0c0.3,0,0.5,0.2,0.5,0.5
		l0.1,25.8C31.4,146.1,31.2,146.3,31,146.3C31,146.3,31,146.3,31,146.3z"/>
	<path class="st69" d="M34.3,144.5c-0.3,0-0.5-0.2-0.5-0.5l-0.1-25.8c0-0.3,0.2-0.5,0.5-0.5c0,0,0,0,0,0c0.3,0,0.5,0.2,0.5,0.5
		l0.1,25.8C34.8,144.3,34.6,144.5,34.3,144.5C34.3,144.5,34.3,144.5,34.3,144.5z"/>
	<path class="st69" d="M37.7,142.8c-0.3,0-0.5-0.2-0.5-0.5l-0.1-25.8c0-0.3,0.2-0.5,0.5-0.5c0,0,0,0,0,0c0.3,0,0.5,0.2,0.5,0.5
		l0.1,25.8C38.2,142.6,38,142.8,37.7,142.8C37.7,142.8,37.7,142.8,37.7,142.8z"/>
	<path class="st69" d="M41.1,141.1c-0.3,0-0.5-0.2-0.5-0.5l-0.1-25.8c0-0.3,0.2-0.5,0.5-0.5c0,0,0,0,0,0c0.3,0,0.5,0.2,0.5,0.5
		l0.1,25.8C41.5,140.9,41.3,141.1,41.1,141.1C41.1,141.1,41.1,141.1,41.1,141.1z"/>
	<path class="st69" d="M44.4,139.3c-0.3,0-0.5-0.2-0.5-0.5l-0.1-25.8c0-0.3,0.2-0.5,0.5-0.5c0,0,0,0,0,0c0.3,0,0.5,0.2,0.5,0.5
		l0.1,25.8C44.9,139.1,44.7,139.3,44.4,139.3C44.4,139.3,44.4,139.3,44.4,139.3z"/>
	<path class="st69" d="M47.8,137.6c-0.3,0-0.5-0.2-0.5-0.5l-0.1-25.8c0-0.3,0.2-0.5,0.5-0.5c0,0,0,0,0,0c0.3,0,0.5,0.2,0.5,0.5
		l0.1,25.8C48.3,137.4,48.1,137.6,47.8,137.6C47.8,137.6,47.8,137.6,47.8,137.6z"/>
	<path class="st69" d="M51.2,135.8c-0.3,0-0.5-0.2-0.5-0.5l-0.1-25.8c0-0.3,0.2-0.5,0.5-0.5c0,0,0,0,0,0c0.3,0,0.5,0.2,0.5,0.5
		l0.1,25.8C51.7,135.6,51.4,135.8,51.2,135.8C51.2,135.8,51.2,135.8,51.2,135.8z"/>
	<path class="st69" d="M54.6,134.1c-0.3,0-0.5-0.2-0.5-0.5L54,107.9c0-0.3,0.2-0.5,0.5-0.5c0,0,0,0,0,0c0.3,0,0.5,0.2,0.5,0.5
		l0.1,25.8C55,133.9,54.8,134.1,54.6,134.1C54.6,134.1,54.6,134.1,54.6,134.1z"/>
	<path class="st69" d="M57.9,132.3c-0.3,0-0.5-0.2-0.5-0.5l-0.1-25.8c0-0.3,0.2-0.5,0.5-0.5c0,0,0,0,0,0c0.3,0,0.5,0.2,0.5,0.5
		l0.1,25.8C58.4,132.1,58.2,132.3,57.9,132.3C57.9,132.3,57.9,132.3,57.9,132.3z"/>
	<path class="st69" d="M61.3,130.6c-0.3,0-0.5-0.2-0.5-0.5l-0.1-25.8c0-0.3,0.2-0.5,0.5-0.5c0,0,0,0,0,0c0.3,0,0.5,0.2,0.5,0.5
		l0.1,25.8C61.8,130.4,61.6,130.6,61.3,130.6C61.3,130.6,61.3,130.6,61.3,130.6z"/>
	<path class="st69" d="M64.7,128.9c-0.3,0-0.5-0.2-0.5-0.5l-0.1-25.8c0-0.3,0.2-0.5,0.5-0.5c0,0,0,0,0,0c0.3,0,0.5,0.2,0.5,0.5
		l0.1,25.8C65.1,128.6,64.9,128.9,64.7,128.9C64.7,128.9,64.7,128.9,64.7,128.9z"/>
	<path class="st69" d="M68,127.1c-0.3,0-0.5-0.2-0.5-0.5l-0.1-25.8c0-0.3,0.2-0.5,0.5-0.5c0,0,0,0,0,0c0.3,0,0.5,0.2,0.5,0.5
		l0.1,25.8C68.5,126.9,68.3,127.1,68,127.1C68,127.1,68,127.1,68,127.1z"/>
	<path class="st69" d="M71.4,125.4c-0.3,0-0.5-0.2-0.5-0.5l-0.1-25.8c0-0.3,0.2-0.5,0.5-0.5c0,0,0,0,0,0c0.3,0,0.5,0.2,0.5,0.5
		l0.1,25.8C71.9,125.2,71.7,125.4,71.4,125.4C71.4,125.4,71.4,125.4,71.4,125.4z"/>
	<path class="st69" d="M74.8,123.6c-0.3,0-0.5-0.2-0.5-0.5l-0.1-25.8c0-0.3,0.2-0.5,0.5-0.5c0,0,0,0,0,0c0.3,0,0.5,0.2,0.5,0.5
		l0.1,25.8C75.3,123.4,75.1,123.6,74.8,123.6C74.8,123.6,74.8,123.6,74.8,123.6z"/>
	<path class="st69" d="M78.2,121.9c-0.3,0-0.5-0.2-0.5-0.5l-0.1-25.8c0-0.3,0.2-0.5,0.5-0.5c0,0,0,0,0,0c0.3,0,0.5,0.2,0.5,0.5
		l0.1,25.8C78.6,121.7,78.4,121.9,78.2,121.9C78.2,121.9,78.2,121.9,78.2,121.9z"/>
	<path class="st69" d="M81.5,120.1c-0.3,0-0.5-0.2-0.5-0.5L81,93.9c0-0.3,0.2-0.5,0.5-0.5c0,0,0,0,0,0c0.3,0,0.5,0.2,0.5,0.5
		l0.1,25.8C82,119.9,81.8,120.1,81.5,120.1C81.5,120.1,81.5,120.1,81.5,120.1z"/>
	<path class="st69" d="M84.9,118.4c-0.3,0-0.5-0.2-0.5-0.5l-0.1-25.8c0-0.3,0.2-0.5,0.5-0.5c0,0,0,0,0,0c0.3,0,0.5,0.2,0.5,0.5
		l0.1,25.8C85.4,118.2,85.2,118.4,84.9,118.4C84.9,118.4,84.9,118.4,84.9,118.4z"/>
	<path class="st69" d="M88.3,116.7c-0.3,0-0.5-0.2-0.5-0.5l-0.1-25.8c0-0.3,0.2-0.5,0.5-0.5c0,0,0,0,0,0c0.3,0,0.5,0.2,0.5,0.5
		l0.1,25.8C88.8,116.4,88.5,116.7,88.3,116.7C88.3,116.7,88.3,116.7,88.3,116.7z"/>
	<g>
		<path class="st69" d="M91.7,114.9c-0.3,0-0.5-0.2-0.5-0.5l-0.1-25.8c0-0.3,0.2-0.5,0.5-0.5c0,0,0,0,0,0c0.3,0,0.5,0.2,0.5,0.5
			l0.1,25.8C92.1,114.7,91.9,114.9,91.7,114.9C91.7,114.9,91.7,114.9,91.7,114.9z"/>
	</g>
</g>
<g>
	<path class="st66" d="M4.9,134.4c-0.7,0-1.3-0.4-1.6-1c-0.4-0.9-0.1-2,0.8-2.4l103.9-52c0.9-0.4,1.9-0.1,2.4,0.8
		c0.4,0.9,0.1,2-0.8,2.4l-103.9,52C5.4,134.3,5.2,134.4,4.9,134.4z"/>
</g>
<g>
	<g>
		<polygon class="st70" points="3.2,113.6 9.7,117.1 11.6,162 5.5,158.9 		"/>
		<g>
			<g>
				<path class="st66" d="M4.5,161.4c-0.6,0-1.3-0.3-1.6-1c-0.5-0.9-0.1-2,0.8-2.4l3.9-2.1c0.9-0.5,1.9-0.1,2.4,0.8
					c0.5,0.9,0.1,2-0.8,2.4l-3.9,2.1C5.1,161.3,4.8,161.4,4.5,161.4z"/>
			</g>
			<g>
				<path class="st66" d="M3.2,135.2c-0.7,0-1.3-0.4-1.6-1c-0.4-0.9-0.1-2,0.8-2.4L6,130c0.9-0.4,1.9-0.1,2.4,0.8
					c0.4,0.9,0.1,2-0.8,2.4L4,135C3.7,135.2,3.5,135.2,3.2,135.2z"/>
			</g>
			<polygon class="st65" points="95.4,68.1 95.5,113.8 101.6,117 101.6,71.2 			"/>
			<polygon class="st71" points="3.3,113.6 95.6,68 101.5,71.1 9.7,117 			"/>
		</g>
	</g>
	<g>
		<path class="st66" d="M91.9,87l3.7-1.9c0.9-0.5,1.9-0.1,2.4,0.8c0.5,0.9,0.1,2-0.8,2.4l-3.7,1.9"/>
	</g>
	<g>
		<path class="st66" d="M94.1,112.7l2.6-1.4c0.9-0.5,1.9-0.1,2.4,0.8c0.5,0.9,0.1,2-0.7,2.4l-1.7,0.9"/>
	</g>
</g>
<path class="st61" d="M96,110.9"/>
<g>
	<g>
		<path class="st65" d="M38.5,176.6c0.5,1.2-1.3,3.8-2.6,4.7c-1.2,0.9-22.7,11.3-24.4,12.4s-6.1,2.1-7.1,2.2s-2.3,0.2-3.1-1
			s2.8-4.1,4-5.2s26.1-13.2,27.3-13.4C33.7,176.1,38,175.4,38.5,176.6z"/>
		<path class="st65" d="M1.2,194.9c0,0,1.3-0.2,3.7-1c2.4-0.8,10.1-5,10.1-5l21-10.5l2.5-1.7"/>
		<ellipse class="st72" cx="31.7" cy="182" rx="0.6" ry="0.6"/>
		<path class="st65" d="M10.3,187.4c-0.3,0.1-1,1.1,0.5,1.5s2.9-0.4,2.9-0.4l17.5-8.5c0,0,0.8-0.7,0.1-1.5s-2.4-0.1-2.4-0.1
			S10.6,187.3,10.3,187.4z"/>
		<path class="st68" d="M16,187.4c0,0,0.4-1.2-0.7-1.2s-4.9,1.6-4.9,1.9c0,0.3,1.2,1.2,2.4,0.8S16,187.4,16,187.4z"/>
		<path class="st68" d="M10.1,188.6c-0.1-0.3,0.3-1,1.3-0.7c1,0.3,1.2,0.9,0.9,1.1C12,189.3,10.3,188.9,10.1,188.6z"/>
	</g>
	<g>
		<g>
			<path class="st73" d="M32,182.3c1.7-0.8,3.4-1.5,5.1-2.2c4.8-2,9.6-4.1,14.4-6.3c0,0-0.4-0.5-0.6-0.5c-4.8,2.2-9.6,4.3-14.4,6.3
				c-1.7,0.7-3.4,1.4-5.1,2.2C31.4,181.8,31.9,182.4,32,182.3L32,182.3z"/>
		</g>
	</g>
	<g>
		<path class="st74" d="M29.6,180.7c-0.1-0.1,0.5-2-1.4-1.1"/>
		<path class="st75" d="M29.3,180.8c-0.1-0.2,0.5-2-1.4-1.1"/>
		<path class="st75" d="M29.1,181c-0.1-0.2,0.5-1.9-1.4-1.1"/>
		<path class="st75" d="M28.8,181.1c-0.1-0.2,0.4-1.9-1.5-1.1"/>
		<path class="st75" d="M28.5,181.2c-0.1-0.2,0.4-1.9-1.5-1.1"/>
		<path class="st75" d="M28.2,181.4c-0.1-0.3,0.4-1.9-1.5-1.1"/>
		<path class="st75" d="M27.9,181.5c-0.1-0.3,0.3-1.9-1.5-1.1"/>
		<path class="st75" d="M27.6,181.6c-0.1-0.3,0.3-1.9-1.5-1.1"/>
		<path class="st75" d="M27.4,181.8c-0.1-0.3,0.3-1.9-1.5-1.1"/>
		<path class="st75" d="M27.1,181.9c-0.1-0.4,0.2-1.9-1.5-1.1"/>
		<path class="st75" d="M26.8,182.1c-0.1-0.4,0.2-1.9-1.5-1.1"/>
		<path class="st75" d="M26.5,182.2c-0.1-0.4,0.1-1.9-1.6-1.1"/>
		<path class="st75" d="M26.2,182.3c-0.1-0.4,0.1-1.9-1.6-1.1"/>
		<path class="st75" d="M25.9,182.5c-0.1-0.5,0.1-1.9-1.6-1.1"/>
		<path class="st75" d="M25.7,182.6c-0.1-0.5,0-1.9-1.6-1.1"/>
		<path class="st75" d="M25.4,182.7c-0.1-0.5,0-1.9-1.6-1.1"/>
		<path class="st75" d="M25.1,182.9c-0.1-0.5,0-1.8-1.6-1"/>
		<path class="st75" d="M24.8,183c-0.1-0.6-0.1-1.8-1.6-1"/>
		<path class="st75" d="M24.5,183.2c-0.1-0.6-0.1-1.8-1.7-1"/>
		<path class="st75" d="M24.3,183.3c-0.1-0.6-0.1-1.8-1.7-1"/>
		<path class="st75" d="M24,183.4c-0.1-0.6-0.2-1.8-1.7-1"/>
		<path class="st75" d="M23.7,183.6c-0.1-0.7-0.2-1.8-1.7-1"/>
		<path class="st75" d="M23.4,183.7c-0.1-0.7-0.3-1.8-1.7-1"/>
		<path class="st75" d="M23.1,183.8c-0.1-0.7-0.3-1.8-1.7-1"/>
		<path class="st75" d="M22.8,184c-0.1-0.7-0.3-1.8-1.7-1"/>
		<path class="st75" d="M22.6,184.1c-0.1-0.8-0.4-1.8-1.8-1"/>
		<path class="st75" d="M22.3,184.3c-0.1-0.8-0.4-1.8-1.8-1"/>
		<path class="st75" d="M22,184.4c-0.1-0.8-0.4-1.8-1.8-1"/>
		<path class="st75" d="M21.7,184.5c-0.1-0.8-0.5-1.8-1.8-1"/>
		<path class="st75" d="M21.4,184.7c-0.1-0.9-0.5-1.8-1.8-1"/>
		<path class="st75" d="M21.1,184.8c-0.1-0.9-0.5-1.8-1.8-1"/>
		<path class="st75" d="M20.9,184.9c0-0.9-0.6-1.7-1.8-1"/>
		<path class="st75" d="M20.6,185.1c0-0.9-0.6-1.7-1.8-1"/>
		<path class="st75" d="M20.3,185.2c0-1-0.7-1.7-1.9-1"/>
		<path class="st75" d="M20,185.4c0-1-0.7-1.7-1.9-1"/>
		<path class="st75" d="M19.7,185.5c0-1-0.7-1.7-1.9-1"/>
		<path class="st75" d="M19.4,185.6c0-1-0.8-1.7-1.9-0.9"/>
		<path class="st75" d="M19.2,185.8c0-1.1-0.8-1.7-1.9-0.9"/>
		<path class="st75" d="M18.9,185.9c0-1.1-0.8-1.7-1.9-0.9"/>
		<path class="st75" d="M18.6,186c0-1.1-0.9-1.7-1.9-0.9"/>
		<path class="st75" d="M18.3,186.2c0-1.2-0.9-1.7-2-0.9"/>
		<path class="st75" d="M18,186.3c0-1.2-0.9-1.7-2-0.9"/>
		<path class="st75" d="M17.7,186.5c0-1.2-1-1.7-2-0.9"/>
		<path class="st75" d="M17.5,186.6c0-1.2-1-1.7-2-0.9"/>
		<path class="st75" d="M17.2,186.7c0-1.3-1.1-1.7-2-0.9"/>
		<path class="st75" d="M16.9,186.9c0-1.3-1.1-1.7-2-0.9"/>
		<path class="st75" d="M16.6,187c0-1.3-1.1-1.6-2-0.9"/>
		<path class="st75" d="M16.3,187.1c0-1.3-1.2-1.6-2.1-0.9"/>
		<path class="st75" d="M16,187.3c0-1.4-1.2-1.6-2.1-0.9"/>
		<path class="st75" d="M15.8,187.4c0-1.4-1.2-1.6-2.1-0.9"/>
		<path class="st75" d="M15.5,187.6c0-1.4-1.3-1.6-2.1-0.9"/>
		<path class="st75" d="M15.2,187.7c0-1.4-1.3-1.6-2.1-0.9"/>
	</g>
</g>
<g>
	<g>
		<g>
			<path class="st3" d="M33.8,144c10.5,6.3,21.1,12.5,31.4,19.3c0.7,0.4,1.3,0.9,1.9,1.3c1.1,0.8,2.3,1.2,3.5,1.5
				c3.4,0.9,6.8,1.2,10.2,1.7c2.2,0.3,4.6,0.9,6.3,2.5c1.7,1.5,3.4,4.1,3.1,6.4c-0.3,2.4-0.3,4.8-0.4,7.2
				c-0.2,6.7-0.4,13.4-0.5,20.1c0,0.3,1.1,0.1,1.1-0.3c0.1-6,0.2-12,0.4-18c0.1-2.9,0.1-5.8,0.4-8.7c0-0.2,0-0.4,0.1-0.7
				c0.2-1.2-0.2-2.2-0.7-3.3c-1.2-2.3-2.8-4.1-5.3-5c-3.1-1.1-6.6-1.2-9.8-1.7c-2-0.3-4.1-0.7-6-1.5c-0.8-0.3-1.4-0.9-2.1-1.3
				c-5.6-3.8-11.4-7.2-17.2-10.7c-5.2-3.1-10.3-6.3-15.5-9.4C34.4,143.4,33.4,143.8,33.8,144L33.8,144z"/>
		</g>
	</g>
	<g>
		<g>
			<path class="st3" d="M30.5,145.8c10.3,6.1,20.7,12.2,30.8,18.7c1.6,1,3.1,2.4,5,3c3.4,1.2,7.1,1.6,10.6,2
				c1.8,0.2,3.7,0.6,5.3,1.4c2.4,1.2,4.5,3.8,4.9,6.5c0.1,0.8-0.1,1.8-0.2,2.7c-0.1,1.3-0.1,2.7-0.2,4c-0.2,6.7-0.3,13.4-0.4,20.1
				c0,0.1,1.1,0,1.1-0.3c0.1-5.9,0.2-11.7,0.4-17.6c0.1-2.5,0-5.2,0.3-7.7c0.3-2.2-0.8-4.2-2.2-5.9c-1.5-1.7-3.5-2.6-5.7-3.1
				c-3.3-0.7-6.6-0.9-9.9-1.6c-1.7-0.3-3.6-0.7-5-1.7c-0.6-0.4-1.1-0.8-1.7-1.2c-5.7-3.7-11.5-7.2-17.4-10.7
				c-4.9-3-9.9-5.9-14.9-8.9C31.3,145.2,30.4,145.7,30.5,145.8L30.5,145.8z"/>
		</g>
	</g>
	<g>
		<g>
			<path class="st3" d="M27.3,147.5c10.2,6,20.4,11.9,30.3,18.2c1.5,0.9,2.9,2.1,4.4,2.9c1.6,0.8,3.4,1.2,5.2,1.5
				c1.8,0.3,3.6,0.6,5.4,0.8c4.2,0.5,8.3,1.4,10.5,5.4c0.6,1.1,1.1,2.4,1,3.7c0,0.3-0.1,0.6-0.1,0.9c-0.1,1.1-0.1,2.3-0.2,3.5
				c-0.2,6.5-0.3,13-0.4,19.6c0,0.1,1.1,0,1.1-0.3c0.1-5.7,0.2-11.5,0.3-17.2c0.1-2.3,0.2-4.6,0.4-6.9c0.2-2.5-1.9-5.4-3.8-6.8
				c-1.8-1.3-4.2-1.8-6.3-2.1c-3.1-0.5-6.2-0.7-9.3-1.5c-1.3-0.3-2.5-0.8-3.6-1.6c-0.6-0.5-1.3-0.9-1.9-1.3
				c-5.8-3.7-11.7-7.2-17.6-10.7c-4.8-2.8-9.5-5.7-14.3-8.5C28,147,27.2,147.5,27.3,147.5L27.3,147.5z"/>
		</g>
	</g>
	<g>
		<g>
			<path class="st3" d="M24.1,149.4c9.9,5.8,19.8,11.5,29.5,17.5c1.6,1,3.2,1.9,4.7,3c2.6,1.9,6.4,2.2,9.5,2.7
				c3.4,0.5,7.3,0.6,10.1,2.9c1.9,1.6,3.3,4.2,3,6.8c-0.1,0.9-0.1,1.8-0.2,2.7c-0.2,6.3-0.3,12.6-0.3,19c0,0.3,1.1,0.1,1.1-0.3
				c0-5.8,0.1-11.5,0.3-17.3c0.1-2.5,0.7-5.4-0.3-7.8c-1.8-4.3-6-5.7-10.2-6.2c-3.5-0.5-7.1-0.7-10.4-2.1c-1.6-0.6-3-1.9-4.4-2.8
				c-5.8-3.6-11.7-7.1-17.5-10.5c-4.6-2.7-9.2-5.4-13.8-8.1C24.7,148.7,23.7,149.2,24.1,149.4L24.1,149.4z"/>
		</g>
	</g>
</g>
<g>
	<g>
		<path class="st3" d="M17.2,152.7c10.1,5.7,20.2,11.5,30.1,17.5c1.7,1,3.5,2,5.1,3.2c2.4,1.8,5.9,1.9,8.7,2.2
			c3.5,0.3,6.6,0.2,9.9,1.8c2.3,1.1,4.7,3.7,4.7,6.4c0,0.7-0.1,1.5-0.2,2.2c-0.1,6.1-0.3,12.3-0.4,18.4c0,0.3,1.1,0.1,1.1-0.3
			c0.1-5.6,0.2-11.2,0.4-16.9c0-0.9,0-1.8,0.1-2.7c0.2-1.9-0.3-3.4-1.5-5c-2.3-3.1-6.3-4.1-9.9-4.3c-1.8-0.1-3.6-0.2-5.3-0.5
			c-1.8-0.2-3.8-0.4-5.5-1.2c-1.5-0.7-2.9-1.9-4.4-2.8c-6-3.7-12.1-7.2-18.2-10.7c-4.6-2.6-9.2-5.3-13.8-7.9
			C17.8,152,16.8,152.4,17.2,152.7L17.2,152.7z"/>
	</g>
</g>
<g>
	<g>
		<path class="st3" d="M90.4,115.2c9.5,8.1,19.4,15.6,29.8,22.5c1.9,1.3,3.8,2.4,5.8,3.5c1.6,0.9,3.4,1.9,5.2,2.3
			c2.5,0.5,4.6,1,6.2,3.1c1,1.3,2,2.9,2.1,4.6c0.1,0.7-0.1,1.2-0.2,1.8c-0.1,0.6-0.1,1.1-0.1,1.7c-0.1,2.7-0.2,5.3-0.2,8
			c-0.2,8.2-0.3,16.4-0.4,24.7c-0.1,3.6-0.1,7.1-0.2,10.7c0,1.2,0,2.4,0,3.6c0,0.6-0.2,1.4,0,2c0,0.1,0,0.2,0,0.3
			c0,0.3,1.1,0.1,1.1-0.3c0.1-4.5,0.1-9.1,0.2-13.6c0.1-8.3,0.2-16.7,0.4-25c0.1-3.1,0.1-6.2,0.2-9.3c0-0.8,0-1.6,0.1-2.4
			c0.1-0.9,0.4-1.7,0.2-2.7c-0.4-2.4-2.3-5.2-4.4-6.4c-1.8-1-4-0.9-5.9-1.7c-2.8-1.2-5.5-2.8-8-4.4c-9-5.8-17.7-12.4-26-19.2
			c-1.6-1.3-3.3-2.7-4.9-4.1C91.2,114.6,90.2,115,90.4,115.2L90.4,115.2z"/>
	</g>
</g>
<g>
	<g>
		<g>
			<path class="st3" d="M84.5,118.2c9.4,8,19.5,15.2,30.1,21.5c1.8,1.1,3.2,1.9,5.1,3c1.8,1.1,3.8,2.2,5.8,2.9
				c1.9,0.6,4.1,0.4,5.9,1.5c2.4,1.6,3.6,4.9,3.4,7.7c0,0.7-0.3,1.4-0.3,2.1c-0.1,2.2-0.2,4.5-0.2,6.8c-0.2,7.9-0.3,15.8-0.4,23.7
				c0,3.5-0.1,7.1-0.1,10.6c0,1.2,0,2.5,0,3.7c0,0.6-0.1,1.4,0,2c0,0.1,0,0.2,0,0.3c0,0.3,1.1,0.1,1.1-0.3c0-4.6,0.1-9.2,0.2-13.8
				c0.1-8.1,0.2-16.2,0.4-24.3c0.1-2.7,0.1-5.4,0.2-8c0-0.5,0-1.1,0.1-1.6c0.4-2.1,0.3-4.3-0.7-6.3c-1.1-2-2.5-3.4-4.8-3.9
				c-2-0.5-3.9-0.7-5.8-1.6c-2.4-1.2-4.7-2.6-7-4c-9.5-5.5-18.5-11.8-27.1-18.6c-1.6-1.3-3.1-2.5-4.6-3.8
				C85.3,117.5,84.3,117.9,84.5,118.2L84.5,118.2z"/>
		</g>
	</g>
	<g>
		<g>
			<path class="st3" d="M81.1,119.9c9.3,7.9,19.4,15.1,29.9,21.4c1.6,1,3.2,1.9,4.8,2.8c1.9,1,3.8,2.1,5.8,2.9
				c1.8,0.7,3.7,0.6,5.5,1.2c2.6,0.8,4.1,3.9,4.5,6.4c0.2,1.1-0.1,2.1-0.2,3.2c-0.2,2.1-0.1,4.3-0.2,6.4c-0.2,7.7-0.3,15.5-0.4,23.2
				c-0.1,5.4-0.2,10.9-0.2,16.3c0,0.5,1.1,0.2,1.1-0.1c0.2-12.5,0.3-25,0.6-37.6c0.1-2.5,0.1-5.1,0.2-7.6c0-0.4,0-0.9,0.1-1.3
				c0.4-2.6-0.1-5-1.6-7.2c-1.3-1.9-2.9-2.5-5.1-2.8c-2-0.3-3.7-0.8-5.6-1.7c-2.3-1.1-4.6-2.4-6.8-3.7c-11.1-6.4-21.6-14-31.3-22.3
				C81.8,119.2,80.8,119.7,81.1,119.9L81.1,119.9z"/>
		</g>
	</g>
	<g>
		<g>
			<path class="st3" d="M77.6,121.7c9.3,7.9,19.2,15.1,29.6,21.4c1.6,1,3.2,1.9,4.9,2.7c1.9,1,3.8,2,5.8,2.8
				c1.7,0.7,3.5,0.8,5.3,1.2c2.7,0.6,4.4,3,5.1,5.5c0.4,1.4,0.3,2.5,0.1,3.9c-0.2,1.9-0.1,3.8-0.2,5.7c-0.2,7.6-0.3,15.1-0.4,22.7
				c-0.1,5.5-0.2,10.9-0.3,16.4c0,0.2,1.1,0,1.1-0.3c0.2-12.3,0.4-24.7,0.6-37c0.1-2.4,0.1-4.7,0.2-7.1c0-0.6,0.1-1,0.2-1.6
				c0.3-2.5-0.9-5.4-2.7-7.2c-1.5-1.6-3.7-1.6-5.7-1.9c-1.8-0.3-3.4-1.1-5.1-1.9c-2.2-1.1-4.4-2.2-6.5-3.4
				c-11-6.5-21.4-14-31.1-22.3C78.4,121.1,77.5,121.5,77.6,121.7L77.6,121.7z"/>
		</g>
	</g>
	<g>
		<g>
			<path class="st3" d="M74.2,123.4c9.2,7.8,19,15,29.3,21.3c1.5,0.9,3,1.7,4.5,2.5c3.4,1.7,6.7,3.4,10.5,4c1,0.1,2,0.2,2.9,0.6
				c1.3,0.6,2.1,1.9,2.8,3.1c0.9,1.7,1.3,3.5,1.1,5.3c-0.2,1.6-0.1,3.4-0.2,5.1c-0.2,7.4-0.3,14.7-0.5,22.1
				c-0.1,5.5-0.2,11-0.3,16.6c0,0.3,1.1,0.1,1.1-0.3c0.2-12.2,0.4-24.5,0.7-36.7c0.1-2.2,0.1-4.3,0.2-6.5c0-0.2,0-0.3,0-0.5
				c0-0.1,0,0.3,0,0c0.1-0.5,0.2-1,0.1-1.6c-0.2-2.4-1.6-5.4-3.7-6.7c-1.6-1-3.6-0.8-5.4-1.2c-1.8-0.4-3.6-1.3-5.2-2.1
				c-2.1-1-4.3-2-6.3-3.2c-10.8-6.4-21.1-14-30.7-22.1C74.9,122.8,73.9,123.2,74.2,123.4L74.2,123.4z"/>
		</g>
	</g>
</g>
<g>
	<g>
		<g>
			<path class="st3" d="M68,126.9c8.9,7.6,18.8,14.2,29,20.1c1.7,0.9,3.4,1.8,5,2.8c3,1.7,5.9,3.5,9.4,4.2c2.4,0.5,4.7,1.1,6.3,3.1
				c0.9,1.1,1.8,2.6,2,4c0.1,0.8,0,1.5-0.2,2.2c-0.2,1.3-0.1,2.8-0.1,4.1c-0.2,6.9-0.2,13.9-0.3,20.9c-0.1,5.3-0.1,10.5-0.2,15.8
				c0,0.3,1.1,0.1,1.1-0.3c0.1-11.6,0.3-23.2,0.5-34.8c0-1.9,0.1-3.8,0.2-5.6c0-0.1,0-0.1,0-0.2c0-0.2-0.1,0.3,0,0
				c0.2-1,0.4-1.7,0.1-2.7c-0.6-2.3-2.3-4.6-4.4-5.8c-1.9-1-4.1-1-6.1-1.7c-1.9-0.6-3.7-1.7-5.5-2.7c-1.4-0.8-2.9-1.6-4.3-2.4
				c-11.1-6.1-21.7-13.2-31.4-21.4C68.7,126.2,67.7,126.6,68,126.9L68,126.9z"/>
		</g>
	</g>
	<g>
		<g>
			<path class="st3" d="M64.5,128.6c8.8,7.5,18.4,14.1,28.5,19.8c1.6,0.9,3.3,1.9,5,2.7c2.8,1.5,5.7,3.1,8.8,4c2,0.6,4.1,0.6,6,1.7
				c2.3,1.3,4.2,4.5,4,7.2c-0.1,1.4-0.3,2.8-0.3,4.3c-0.2,6.7-0.3,13.4-0.4,20.1c-0.1,5.2-0.2,10.4-0.3,15.6c0,0.5,1.1,0.3,1.1-0.1
				c0.2-11.4,0.3-22.8,0.6-34.2c0-1.6,0-3.3,0.2-4.8c0-0.2,0,0.2,0-0.1c0.1-0.4,0.2-0.8,0.2-1.2c0-1.4-0.5-2.8-1.2-4
				c-1.1-2-2.8-3.4-5-4.1c-1.9-0.6-3.8-0.7-5.6-1.4c-1.9-0.7-3.7-1.6-5.4-2.5c-1.4-0.7-2.8-1.5-4.2-2.2c-10.9-6-21.4-13-30.8-21.1
				C65.1,127.8,64.1,128.3,64.5,128.6L64.5,128.6z"/>
		</g>
	</g>
	<g>
		<g>
			<path class="st3" d="M60.9,130.2c8.7,7.4,18.3,13.9,28.2,19.6c4.3,2.5,8.8,4.7,13.5,6.3c1.8,0.6,3.7,0.7,5.5,1.4
				c2.8,0.9,4.4,3.1,5.2,5.8c0.5,1.8,0.2,3.6,0.1,5.5c-0.3,6.4-0.4,12.9-0.5,19.3c-0.1,5.3-0.2,10.5-0.3,15.8c0,0.2,1.1,0.1,1.1-0.3
				c0.2-11.2,0.4-22.4,0.8-33.6c0.1-1.5,0.2-2.9,0.3-4.4c0.2-2.2-1-4.9-2.4-6.4c-1.6-1.7-3.9-2.3-6.1-2.8c-5-1-9.7-3.3-14.1-5.7
				c-10.7-5.9-21-12.8-30.3-20.8C61.7,129.6,60.7,130.1,60.9,130.2L60.9,130.2z"/>
		</g>
	</g>
	<g>
		<g>
			<path class="st3" d="M57.4,131.9c8.6,7.3,18,13.8,27.8,19.3c4.3,2.4,8.7,4.4,13.4,6c3.8,1.3,8.8,1.1,10.9,5.1
				c0.9,1.7,1.6,3.7,1.3,5.5c-0.1,0.5-0.1,1.1-0.1,1.6c-0.3,6.1-0.5,12.2-0.6,18.3c-0.1,5.3-0.3,10.7-0.4,16c0,0.3,1.1,0.1,1.1-0.3
				c0.3-11.1,0.5-22.1,1-33.2c0.1-1.7,0.4-3.5,0-5.2c-0.5-2.2-1.5-4.5-3.6-5.8c-1.8-1.1-4-1.4-6-1.8c-3.4-0.7-6.8-2.3-10-3.6
				c-1.3-0.5-2.5-1.1-3.7-1.8c-10.6-5.8-20.8-12.7-30-20.6C58.2,131.3,57.2,131.7,57.4,131.9L57.4,131.9z"/>
		</g>
	</g>
</g>
<g>
	<g>
		<g>
			<path class="st3" d="M50.8,135.7c4.5,2.7,9.1,5.5,13.6,8.2c6.6,4,13.2,8,19.8,12c1.2,0.7,2.3,1.4,3.5,2.1c2,1.1,4,2.3,6.1,3.1
				c2.1,0.8,4.4,0.6,6.5,1.3c3,1.1,4.7,4.8,4.3,7.9c-0.1,0.8-0.3,1.5-0.3,2.3c-0.1,3.3-0.1,6.6-0.1,9.9c0,4.3,0,8.6,0,12.9
				c0,2.7-0.2,5.6,0,8.3c0,0.1,0,0.3,0,0.4c0,0.3,1.1,0.1,1.1-0.3c0-6.2,0-12.4,0-18.5c0-3.8,0-7.6,0.1-11.4c0-0.9,0-1.9,0.1-2.8
				c0.4-2.3,0.3-4.4-1.1-6.5c-1.4-2.2-3.4-2.9-6-3.2c-1.1-0.1-2.3-0.2-3.3-0.6c-1.1-0.4-2.2-0.9-3.3-1.5c-1.8-0.9-3.6-2-5.3-3
				c-6.1-3.7-12.2-7.4-18.3-11.1c-3.5-2.1-6.9-4.2-10.4-6.3c-1.9-1.2-3.9-2.5-5.9-3.6c-0.1,0-0.2-0.1-0.3-0.2
				C51.4,135.1,50.4,135.5,50.8,135.7L50.8,135.7z"/>
		</g>
	</g>
	<g>
		<g>
			<path class="st3" d="M47.3,137.3c4.4,2.7,8.9,5.4,13.3,8.1c6.5,4,13,7.9,19.5,11.9c1.1,0.7,2.2,1.4,3.4,2c1.9,1,3.9,1.9,5.8,2.8
				c2,0.8,4,1.1,6.1,1.5c3.1,0.6,5.1,2.5,5.9,5.6c0.4,1.5,0.2,2.8,0.1,4.2c-0.2,3-0.2,6-0.2,9c0,4.3-0.1,8.5-0.1,12.8
				c0,2.8-0.2,5.6,0,8.4c0,0.1,0,0.3,0,0.4c0,0.2,1.1,0,1.1-0.3c0-6.2,0-12.4,0.1-18.6c0-3.6,0-7.1,0.2-10.7c0-0.7,0-1.4,0.2-2.1
				c0.5-2.6-0.5-5.7-2.5-7.6c-1.8-1.7-4.5-1.8-6.8-2.2c-2.1-0.4-4.1-1.4-6-2.3c-1.6-0.8-3.3-1.6-4.8-2.5c-6-3.7-12.1-7.3-18.1-11
				c-3.4-2.1-6.8-4.1-10.2-6.2c-1.9-1.1-3.7-2.5-5.7-3.4c-0.1,0-0.2-0.1-0.3-0.2C48.1,136.7,47.2,137.2,47.3,137.3L47.3,137.3z"/>
		</g>
	</g>
	<g>
		<g>
			<path class="st3" d="M44,139c4.3,2.7,8.7,5.3,13,8c6.4,3.9,12.7,7.8,19.1,11.7c1.1,0.7,2.1,1.4,3.3,1.9c3.4,1.6,6.9,3.5,10.6,4.1
				c2.8,0.5,5.8,1,7.3,3.7c1.1,1.9,1.5,4,1.3,6.1c-0.4,2.7-0.2,5.5-0.2,8.1c-0.1,7-0.2,13.9-0.1,20.9c0,0.1,0,0.3,0,0.4
				c0,0.5,1.1,0.3,1.1-0.1c0-6.2,0-12.4,0.1-18.5c0-3.3,0-6.6,0.2-9.9c0-0.9,0.3-1.7,0.2-2.6c-0.2-2.6-1.3-5.6-3.6-7.1
				c-2-1.3-4.5-1.3-6.8-1.9c-2.1-0.6-4.2-1.5-6.2-2.4c-1.6-0.7-3.2-1.4-4.7-2.3c-5.9-3.6-11.8-7.2-17.8-10.9
				c-5.2-3.2-10.3-6.6-15.7-9.6c-0.1-0.1-0.2-0.1-0.3-0.2C44.5,138.2,43.5,138.7,44,139L44,139z"/>
		</g>
	</g>
	<g>
		<g>
			<path class="st3" d="M40.5,140.6c4.3,2.6,8.5,5.3,12.8,7.9c6.3,3.9,12.6,7.7,18.9,11.6c1,0.6,2,1.4,3.1,1.8
				c3.5,1.5,7.1,3.2,10.8,4c2.4,0.6,5.2,0.8,7.1,2.6c1.7,1.6,2.9,4.9,2.5,7.2c-0.3,2.2-0.2,4.6-0.3,6.8c-0.1,7-0.4,14-0.2,20.9
				c0,0.2,0,0.3,0,0.5c0,0.3,1.1,0.1,1.1-0.3c0-6.2,0.1-12.3,0.2-18.5c0-3,0-6,0.2-9c0.1-1.4,0.1-2.6-0.4-4.1
				c-0.8-2.5-2.2-4.5-4.7-5.5c-2.1-0.8-4.3-1-6.4-1.7c-2.1-0.7-4.1-1.5-6.2-2.3c-1.7-0.7-3-1.2-4.4-2.1c-5.8-3.6-11.7-7.2-17.5-10.8
				c-3.3-2-6.5-4-9.8-6c-1.8-1.1-3.6-2.4-5.5-3.4c-0.1,0-0.2-0.1-0.3-0.2C41.2,140,40.2,140.4,40.5,140.6L40.5,140.6z"/>
		</g>
	</g>
</g>
<g>
	<g>
		<g>
			<path class="st76" d="M78.7,203.9c0.2-6.5,0.3-12.9,0.6-19.4c0.1-1.4,0.3-2.7-0.2-4c-0.9-2.7-3.3-4.5-5.8-5.5
				c-3-1.3-6-1.7-9.3-2.1c-2.4-0.3-4.7-0.6-7.1-1.1c-1-0.2-1.5-0.2-2.1-0.9c-1.6-1.9-2.8-4-4.2-6.1c-4.7-7.3-9.4-14.6-14.4-21.7
				c-2.4-3.5-4.9-6.9-7.7-10.2c-1.8-2.1-3.8-4.5-6.2-6c-0.4-0.2-0.8-0.4-1.2-0.6c-0.4-0.1-1.3,0.4-0.7,0.6c2.3,0.7,4.2,3.1,5.7,4.8
				c2.7,3,5,6.1,7.4,9.4c5.1,7.1,9.9,14.6,14.7,22c1.6,2.4,3.1,4.9,4.8,7.2c0.4,0.5,0.7,1.1,1.2,1.5c1,0.7,2.8,0.7,4,0.9
				c2.3,0.4,4.6,0.7,6.9,0.9c1.2,0.1,1.8,0.2,2.7,0.4c4.8,1.1,10.7,3.6,10.2,9.5c-0.3,3.1-0.2,6.3-0.3,9.4
				c-0.1,3.4-0.2,6.9-0.3,10.3c0,0.2,0,0.4,0,0.6C77.6,204.5,78.7,204.3,78.7,203.9L78.7,203.9z"/>
		</g>
	</g>
	<g>
		<g>
			<path class="st76" d="M93.3,203.8c0.1-7,0.3-13.9,0.5-20.9c0-1.7,0.1-3.4,0.1-5c0-1,0.2-2,0.2-3c-0.1-3.1-2.5-5.8-5.1-7.1
				c-1.9-1-4.1-1.5-6.2-1.9c-3.3-0.6-7.4-1.5-10.9-2.5c-0.6-0.2-0.8-0.5-1.3-1.2c-0.7-1-1.3-2-1.9-3c-4.7-7.5-9.2-15.1-14.1-22.5
				c-2.6-3.8-5.2-7.7-8.1-11.3c-2-2.5-4.2-5.2-7-6.8c-0.4-0.2-0.9-0.5-1.3-0.6c-0.3-0.1-1.2,0.3-0.9,0.4c2.6,0.7,4.8,3.4,6.5,5.3
				c3,3.4,5.6,7.1,8.1,10.8c5.2,7.6,9.9,15.4,14.7,23.2c0.8,1.2,1.5,2.5,2.3,3.7c0.4,0.6,0.8,1.4,1.3,1.9c0.8,0.7,2.3,0.8,3.3,1
				c2.3,0.5,4.6,1,6.9,1.5c4,0.9,8.4,1.5,11,5c1,1.3,1.8,3,1.6,4.7c0,0.4-0.1,0.7-0.1,1.1c-0.1,1.2-0.1,2.5-0.1,3.7
				c-0.2,7.7-0.4,15.3-0.5,23c0,0.2,0,0.4,0,0.6C92.2,204.3,93.3,204.2,93.3,203.8L93.3,203.8z"/>
		</g>
	</g>
	<g>
		<g>
			<path class="st76" d="M108,203.8c0.1-7.2,0.2-14.3,0.4-21.5c0.1-3.9,0.1-7.8,0.2-11.6c0-0.9,0.2-1.8,0.2-2.7
				c0.1-3.2-2.4-6.3-5.1-7.7c-1.3-0.7-2.8-1.1-4.3-1.5c-0.5-0.1-0.9-0.2-1.4-0.3c-0.1,0-0.5-0.1-0.4-0.1c-1.9-0.4-3.7-1.2-5.5-1.8
				c-1.2-0.4-2.3-0.7-3.5-1.1c-0.4-0.1-1.2-0.3-1.4-0.5c-0.5-0.4-0.9-1.3-1.2-1.9c-4.5-7.6-8.7-15.3-13.4-22.7
				c-2.7-4.3-5.5-8.5-8.6-12.5c-2.1-2.8-4.6-5.9-7.7-7.6c-0.5-0.3-1-0.5-1.5-0.6c-0.3-0.1-1.3,0.4-0.9,0.5c2.9,0.7,5.4,3.8,7.2,6
				c3.2,3.8,6,7.9,8.7,12c5,7.8,9.6,15.8,14.2,23.9c0.6,1,1.1,1.9,1.7,2.8c0.5,0.7,0.7,0.7,1.6,1c3.5,1.1,7,2.5,10.5,3.2
				c3.3,0.6,6.4,1.9,8.3,4.7c0.9,1.5,1.7,3.3,1.4,5c-0.1,0.3-0.1,0.6-0.1,0.9c-0.2,3.2-0.2,6.3-0.2,9.5c-0.2,8.1-0.3,16.2-0.4,24.3
				c0,0.2,0,0.3,0,0.5C106.9,204.3,108,204.1,108,203.8L108,203.8z"/>
		</g>
	</g>
	<g>
		<g>
			<path class="st76" d="M122.7,203.8c0.1-7.3,0.2-14.7,0.3-22c0.1-4.8,0.1-9.6,0.2-14.4c0-1.4,0.1-2.9,0.1-4.3
				c0-1.2,0.4-2.4,0.2-3.6c-0.6-3.4-3.1-6.3-6.3-7.6c-1.3-0.5-2.7-0.9-4.1-1c-0.7-0.1-0.5,0-1.2-0.3c-2.3-1-4.5-2-6.8-3
				c-0.4-0.2-0.8-0.4-1.3-0.5c-0.1-0.1-0.7-0.4-0.5-0.1c-0.1-0.1-0.2-0.4-0.3-0.5c-4.2-7.4-7.9-15-12.3-22.2
				c-2.8-4.8-5.8-9.5-9.1-13.9c-2.3-3-4.9-6.6-8.3-8.4c-0.6-0.3-1.1-0.5-1.7-0.6c-0.6-0.1-1.1,0.7-0.4,0.8c1.4,0.3,2.6,1.3,3.6,2.2
				c1.6,1.4,3,3,4.3,4.6c3.3,4.1,6.2,8.6,9,13.1c4.8,7.8,9,15.9,13.3,24c0.3,0.5,0.5,1.3,1,1.7c0.4,0.3,1.2,0.5,1.6,0.7
				c1.1,0.5,2.3,1,3.4,1.5c1.5,0.6,3.1,1.6,4.6,2c3.1,0.7,6,1.1,8.1,3.7c1.1,1.4,2.1,3.3,2.2,5.2c0,0.6-0.2,1.2-0.3,1.8
				c-0.1,1-0.1,2-0.1,3c-0.1,4.4-0.2,8.7-0.2,13.1c-0.1,8.3-0.3,16.6-0.4,24.9c0,0.2,0,0.3,0,0.5
				C121.5,204.5,122.7,204.4,122.7,203.8L122.7,203.8z"/>
		</g>
	</g>
	<g>
		<g>
			<path class="st76" d="M137.3,203.7c0.1-7.4,0.2-14.9,0.3-22.3c0.1-8.7,0.1-17.3,0.4-26c0-0.4,0.1-0.4,0.1-0.8
				c0.5-1.6,0-3.4-0.7-4.9c-1.6-3.4-4.4-5.4-8.1-6c-0.5-0.1-1-0.1-1.5-0.2c-0.3,0,0.1,0.1-0.3-0.1c-0.9-0.5-1.8-1.1-2.8-1.6
				c-1.2-0.7-2.4-1.4-3.6-2.1c-0.4-0.2-1.5-0.7-1.7-0.9c-0.4-0.4-0.6-1.3-0.8-1.8c-0.7-1.5-1.5-3.1-2.2-4.6
				c-2.4-4.8-4.8-9.6-7.4-14.3c-2.9-5.2-5.9-10.3-9.4-15.1c-2.4-3.4-5.2-7.4-9-9.4c-0.6-0.3-1.2-0.6-1.9-0.7c-0.3,0-1.2,0.4-0.9,0.4
				c1.6,0.3,2.9,1.3,4.1,2.3c1.7,1.5,3.2,3.2,4.6,5c3.6,4.6,6.7,9.6,9.6,14.7c2.8,4.9,5.4,9.8,7.9,14.8c1.4,2.8,2.7,5.8,4.2,8.6
				c0.4,0.8,1.3,1,2,1.5c2.1,1.2,4.1,2.5,6.3,3.6c0.5,0.3,0.9,0.2,1.5,0.3c1.9,0.2,3.8,0.8,5.3,1.9c1.6,1.2,2.8,3.1,3.5,5
				c0.3,0.8,0.5,1.6,0.5,2.5c0,0.6-0.2,1.1-0.3,1.7c-0.1,0.7,0,1.5-0.1,2.1c0,1.7-0.1,3.4-0.1,5.1c-0.1,5.1-0.1,10.3-0.2,15.4
				c-0.1,5.4-0.1,10.8-0.2,16.2c0,3.2-0.2,6.3-0.1,9.5c0,0.2,0,0.3,0,0.5C136.2,204.2,137.3,204,137.3,203.7L137.3,203.7z"/>
		</g>
	</g>
</g>
<path class="st77" d="M74.6,190.4"/>
<path class="st62" d="M75.5,113.5"/>
<path class="st62" d="M95.6,120.6"/>
<path class="st64" d="M94.9,123.9"/>
<path class="st62" d="M83.6,108.9"/>
<path class="st78" d="M53.5,174.9c-0.4,0.9,2.4,0.6,3.1,0.2"/>
<path class="st78" d="M61,175.3c-0.5,0.9,1.5,1,3.1,0.2"/>
<path class="st78" d="M68.4,175c-2.6,1.7-0.6,2.4,1,1.5l1.5-0.9"/>
<path class="st78" d="M71.3,177.3c-1.5,0.9,0.8,2.1,2.8,0.3"/>
<path class="st78" d="M74.1,180.3c-1.5,0.9-0.3,2.6,1.6,1"/>
<path class="st79" d="M75.5,183.4c-1.5,0.7,0.1,2.1,2,0.8"/>
<path class="st78" d="M75.7,187.2c-1.5,0.9-1,3.6,1,2"/>
<g>
	<path class="st78" d="M140.7,156.8c0.1,0,1.4,0.1,0.6,0.7c-0.8,0.6-1.6,0.8-2.2,1"/>
</g>
<path class="st78" d="M75.1,191.7c-1.5,0.9-1,2.5,0.7,1.5"/>
<g>
	<path class="st78" d="M137.9,163.5c0,0,3-1.2,3.2-0.1s-2.9,1.4-2.9,1.4"/>
</g>
<g>
	<path class="st78" d="M138.3,171.1c0,0,2.3-1.2,2.5-0.1c0.2,1-3,2.2-3,2.2"/>
</g>
<g>
	<path class="st78" d="M140.5,159.9c0.1,0,1.1,0,0.9,0.7s-2.4,1.2-3.2,1.3"/>
</g>
<path class="st78" d="M75.5,197.1c-1.9,0.8-1.8,3.5,0.5,2"/>
<path class="st78" d="M74.6,203.4c-1.1,0.1-0.2-1.1,0.4-1.4l4.1-2.8"/>
<g>
	<path class="st78" d="M140.4,178.6c0.1,0,1.9,0.2,0.9,1.1c-0.1-0.1-3.6,2.1-3.5,2.3"/>
</g>
<g>
	<path class="st78" d="M132.9,186.2c0.1,0,7.9-3.1,8.2-2c0.3,1-13.6,6.9-14.4,7.5"/>
</g>
<g>
	<path class="st78" d="M138.3,195.3c0.1,0,2.4-1,2-0.1c-0.4,0.9-2.5,1.9-3.4,2.6"/>
</g>
<g>
	<path class="st78" d="M138.5,199.5c0.1,0,2.4-1,2-0.1c-0.4,0.9-2.5,1.9-3.4,2.6"/>
</g>
<path class="st78" d="M137.6,192c0,0,2.6-0.9,2.8-0.1c0.3,0.8,0.2,0.7-0.7,1.3"/>
<g>
	<path class="st78" d="M70.5,164.5c-7.2,2-13.5,6.5-13.5,6.5"/>
	<path class="st78" d="M85.9,155.8c-7.2,2-13.1,7.1-13.1,7.1"/>
	<path class="st78" d="M101.8,147.7c-7.2,2-13.5,7.1-13.5,7.1"/>
	<path class="st78" d="M118.1,139.5c-7.2,2-14.2,7.1-14.2,7.1"/>
</g>
<g>
	<path class="st78" d="M67,168.4c-7.2,2-13.5,6.5-13.5,6.5"/>
	<path class="st78" d="M82.5,159.7c-7.2,2-13.1,7.1-13.1,7.1"/>
	<path class="st78" d="M98.4,151.7c-7.2,2-13.5,7.1-13.5,7.1"/>
	<path class="st78" d="M114.2,143.6c-7.2,2-13.7,6.9-13.7,6.9"/>
</g>
<g>
	<path class="st78" d="M78.9,163.7c-7.2,2-14.4,7.4-14.4,7.4"/>
	<path class="st78" d="M62.7,172.1c-2.3,0.6-4.6,2.1-6.5,3"/>
	<path class="st78" d="M94.1,156c-7.2,2-13.4,6.5-13.4,6.5"/>
	<path class="st78" d="M109.2,148.3c-7.2,2-13,6.5-13,6.5"/>
	<path class="st78" d="M125.5,140c-7.2,2-14.2,7.1-14.2,7.1"/>
</g>
<g>
	<path class="st78" d="M72.2,169.1c-7.2,2-11.1,6.2-11.1,6.2"/>
	<path class="st78" d="M90.3,159.8c-7.2,2-15.9,8.2-15.9,8.2"/>
	<path class="st78" d="M105.5,151.9c-7.2,2-13.4,6.9-13.4,6.9"/>
	<path class="st78" d="M120.9,144c-7.2,2-13.4,6.9-13.4,6.9"/>
</g>
<g>
	<path class="st78" d="M68.6,173c-2,0.6-3,1.8-4.7,2.7"/>
	<path class="st78" d="M84.4,164.9c-7.2,2-13.8,6.8-13.8,6.8"/>
	<path class="st78" d="M100.7,156.7c-7.2,2-14.2,7.1-14.2,7.1"/>
	<path class="st78" d="M116.5,148.3c-7.2,2-13.2,6.8-13.2,6.8"/>
	<path class="st78" d="M127.3,142.2c-5,2.2-8.6,5.1-8.6,5.1"/>
</g>
<g>
	<path class="st78" d="M36.9,191.2"/>
	<path class="st78" d="M50.4,184.7"/>
	<path class="st78" d="M83.6,167.4c-7.2,2-11.9,6.7-11.9,6.7"/>
	<path class="st78" d="M98.6,159.6c-7.2,2-13,6.7-13,6.7"/>
</g>
<g>
	<path class="st78" d="M54.7,172.4c-1.8-0.2-2.7,0.4-3.7,1.3"/>
</g>
<g>
	<path class="st78" d="M119.9,138.5l3.9-0.9c0.1,0,2.4-0.5,1.6,0.5c-0.7,0.2-1.1,0.4-1.4,0.7"/>
</g>
<g>
	<path class="st78" d="M125.8,139.9c0.1,0,3.6-0.9,2.8,0.2c-0.4,0.1-0.7,0.3-1,0.4"/>
</g>
<g>
	<path class="st78" d="M129.3,141.6c0.1,0,3-0.8,2.2,0.3c-1.4,0.4-1.6,0.9-2.3,1.6"/>
</g>
<g>
	<path class="st78" d="M135.2,143.4c0.1,0,2.4-0.5,1.6,0.5l-1.4,1"/>
</g>
<g>
	<path class="st78" d="M137.3,145.4c0.1,0,2.4-0.5,1.6,0.5l-1.4,1"/>
</g>
<g>
	<path class="st78" d="M140.7,152.5c0,0,1.2,0.1,0.4,1.1c0,0-1.3,0.2-2.1,0.8"/>
</g>
<g>
	<path class="st78" d="M140.7,148.7c0.1,0,1.6,0.1,0.6,1c-1.4,0.1-1.7,0.5-2.6,1.1"/>
</g>
<path class="st78" d="M113,152.1c-6.5,2.2-12.3,6.6-12.3,6.6"/>
<path class="st78" d="M128.2,144.4c-6.9,2.1-12.4,6.5-12.4,6.5"/>
<path class="st78" d="M115.5,142.7c0,0,2.9-2.4,8.3-3.7"/>
<path class="st78" d="M122.9,142.9c0,0,3.5-2.4,4.7-2.3"/>
<g>
	<path class="st78" d="M76.9,173.3c-2.2,0.6-4.2,1.4-6.1,2.3"/>
	<path class="st78" d="M92.4,164.6c-7.2,2-13.1,7.1-13.1,7.1"/>
	<path class="st78" d="M108.3,156.5c-7.2,2-13.5,7.1-13.5,7.1"/>
	<path class="st78" d="M124.1,148.4c-7.2,2-13.7,6.9-13.7,6.9"/>
</g>
<g>
	<path class="st78" d="M88.9,168.5c-7.2,2-14.4,7.4-14.4,7.4"/>
	<path class="st78" d="M104,160.9c-7.2,2-13.4,6.5-13.4,6.5"/>
	<path class="st78" d="M119.1,153.2c-7.2,2-13,6.5-13,6.5"/>
	<path class="st78" d="M135.5,144.8c-7.2,2-14.2,7.1-14.2,7.1"/>
</g>
<g>
	<path class="st78" d="M84.1,172.8c-7.2,2-10.3,5.2-10.3,5.2"/>
	<path class="st78" d="M100.2,164.6c-7.2,2-14.2,7-14.2,7"/>
	<path class="st78" d="M115.4,156.7c-7.2,2-13.4,6.9-13.4,6.9"/>
	<path class="st78" d="M130.8,148.9c-7.2,2-13.4,6.9-13.4,6.9"/>
</g>
<g>
	<path class="st78" d="M81.6,176.1c-2,0.6-6.1,3.6-7.9,4.5"/>
	<path class="st78" d="M96.6,168.6c-7.2,2-12.7,5.9-12.7,5.9"/>
	<path class="st78" d="M110.6,161.5c-7.2,2-12.1,5.6-12.1,5.6"/>
	<path class="st78" d="M126.4,153.1c-7.2,2-13.2,6.8-13.2,6.8"/>
	<path class="st78" d="M137.2,147c-5,2.2-8.6,5.1-8.6,5.1"/>
</g>
<g>
	<path class="st78" d="M46,196.2"/>
	<path class="st78" d="M59.5,189.7"/>
	<path class="st78" d="M94.7,171.5c-7.2,2-12.8,6.7-12.8,6.7"/>
	<path class="st78" d="M108.8,164.1c-7,1.8-10.9,5-12.1,6"/>
</g>
<path class="st78" d="M123.7,156.3c-6.5,2.2-12.3,6.6-12.3,6.6"/>
<path class="st78" d="M138.4,149.1c-6.9,2.1-12.4,6.5-12.4,6.5"/>
<path class="st78" d="M125.4,147.5c0,0,2.9-2.4,8.3-3.7"/>
<path class="st78" d="M132.8,147.7c0,0,3.5-2.4,4.7-2.3"/>
<g>
	<path class="st78" d="M77.8,182c-1.5,0.4-1,0.9-2.4,1.4"/>
	<path class="st78" d="M80.3,179.1c-1.4,0.6-3.4,1.7-4.7,2.4"/>
	<path class="st78" d="M92.8,174.2c-7.2,2-12.8,7-12.8,7"/>
	<path class="st78" d="M107.2,166.8c-7.2,2-12,6.4-12,6.4"/>
	<path class="st78" d="M127.1,156.8c-7.2,2-17.5,8.7-17.5,8.7"/>
</g>
<g>
	<path class="st78" d="M91.8,177c-7.2,2-14.4,7.4-14.4,7.4"/>
	<path class="st78" d="M107,169.3c-7.2,2-13.4,6.5-13.4,6.5"/>
	<path class="st78" d="M122.1,161.6c-7.2,2-13,6.5-13,6.5"/>
	<path class="st78" d="M138.4,153.3c-7.2,2-14.2,7.1-14.2,7.1"/>
</g>
<g>
	<path class="st78" d="M86.2,181.7c-4.5,1.2-9,4.2-10.9,5.7"/>
	<path class="st78" d="M103.2,173c-7.2,2-14.7,7.2-14.7,7.2"/>
	<path class="st78" d="M118.4,165.2c-7.2,2-13.4,6.9-13.4,6.9"/>
	<path class="st78" d="M133.8,157.3c-7.2,2-13.4,6.9-13.4,6.9"/>
</g>
<g>
	<path class="st78" d="M83.3,185.3c-2,0.6-4.7,2.8-6.4,3.7"/>
	<path class="st78" d="M97.5,178.2c-7.2,2-11.9,5.6-11.9,5.6"/>
	<path class="st78" d="M113.8,169.9c-7.2,2-14.2,7.1-14.2,7.1"/>
	<path class="st78" d="M127.9,162.1c-7.2,2-11.6,6.2-11.6,6.2"/>
	<path class="st78" d="M140.3,155.4c-5,2.2-9.8,5.5-9.8,5.5"/>
</g>
<g>
	<path class="st78" d="M48.6,204.6"/>
	<path class="st78" d="M62.1,198"/>
	<path class="st78" d="M95.3,180.7c-7.2,2-11.9,6.7-11.9,6.7"/>
	<path class="st78" d="M110.4,172.9c-7.2,2-13,6.7-13,6.7"/>
</g>
<path class="st78" d="M124.2,166.1c-6.5,2.2-10.6,5.8-10.6,5.8"/>
<path class="st78" d="M141.1,157.7c-6.9,2.1-13.8,6.9-13.8,6.9"/>
<path class="st78" d="M128.4,156c0,0,2.9-2.4,8.3-3.7"/>
<path class="st78" d="M135.8,156.2c0,0,3.5-2.4,4.7-2.3"/>
<g>
	<path class="st78" d="M78,192.5c-1.1,0.3-2.1,0.6-3.1,1"/>
	<path class="st78" d="M93.5,183.8c-7.2,2-13.1,7.1-13.1,7.1"/>
	<path class="st78" d="M109.4,175.7c-7.2,2-13.5,7.1-13.5,7.1"/>
	<path class="st78" d="M125.2,167.7c-7.2,2-13.7,6.9-13.7,6.9"/>
</g>
<g>
	<path class="st78" d="M89.9,187.8c-7.2,2-14.4,7.4-14.4,7.4"/>
	<path class="st78" d="M105.1,180.1c-7.2,2-13.4,6.5-13.4,6.5"/>
	<path class="st78" d="M120.2,172.4c-7.2,2-13,6.5-13,6.5"/>
	<path class="st78" d="M136.2,164.1c-7.2,2-13.8,7.1-13.8,7.1"/>
</g>
<g>
	<path class="st78" d="M83.2,193.1c-3.4,0.9-8.1,4.2-8.1,4.2"/>
	<path class="st78" d="M101.3,183.8c-7.2,2-15.9,8.2-15.9,8.2"/>
	<path class="st78" d="M116.5,176c-7.2,2-13.4,6.9-13.4,6.9"/>
	<path class="st78" d="M131.9,168.1c-7.2,2-13.4,6.9-13.4,6.9"/>
</g>
<g>
	<path class="st78" d="M79.5,197.1c-2,0.6-2.4,1.3-4.1,2.1"/>
	<path class="st78" d="M94.9,189c-7.2,2-13.3,6.8-13.3,6.8"/>
	<path class="st78" d="M111.7,180.7c-7.2,2-14.2,7.1-14.2,7.1"/>
	<path class="st78" d="M127.5,172.4c-7.2,2-13.2,6.8-13.2,6.8"/>
	<path class="st78" d="M138.5,166.5c-5,2.2-8.9,4.9-8.9,4.9"/>
</g>
<g>
	<path class="st78" d="M47.9,215.3"/>
	<path class="st78" d="M61.4,208.8"/>
	<path class="st78" d="M94.6,191.4c-7.2,2-13.3,6.7-13.3,6.7"/>
	<path class="st78" d="M109.6,183.7c-7.2,2-13,6.7-13,6.7"/>
</g>
<g>
	<path class="st78" d="M138.1,166.7c1.6-0.8,3-0.2,2.9,0.5s-0.7,0.9-1.9,1.3"/>
</g>
<path class="st78" d="M124,176.2c-6.5,2.2-12.3,6.6-12.3,6.6"/>
<path class="st78" d="M139.7,168.3c-6.9,2.1-12.9,6.7-12.9,6.7"/>
<path class="st78" d="M126.5,166.8c0.8-0.7,7.7-4.6,12.1-4.9"/>
<path class="st78" d="M133.9,167c0,0,3.5-2.4,4.7-2.3"/>
<path class="st78" d="M135.5,172.8c0,0,3.5-2.4,4.7-2.3"/>
<g>
	<path class="st78" d="M77.4,201.9c-0.9,0.2-1.8,1.2-2.7,1.5"/>
	<path class="st78" d="M92.8,193.9c-7.2,2-13.1,7.1-13.1,7.1"/>
	<path class="st78" d="M108.7,185.8c-7.2,2-13.5,7.1-13.5,7.1"/>
	<path class="st78" d="M124.6,177.7c-7.2,2-13.7,6.9-13.7,6.9"/>
</g>
<g>
	<path class="st78" d="M89.3,197.8c-5.1,1.4-10.2,4.5-12.7,6.2"/>
	<path class="st78" d="M66.6,209.2"/>
	<path class="st78" d="M73,206.2"/>
	<path class="st78" d="M104.4,190.2c-7.2,2-13.4,6.5-13.4,6.5"/>
	<path class="st78" d="M119.6,182.4c-7.2,2-13,6.5-13,6.5"/>
	<path class="st78" d="M135.9,174.1c-7.2,2-14.2,7.1-14.2,7.1"/>
</g>
<g>
	<path class="st78" d="M82.5,203.2c-1.1,0.3-2.1,0.6-3,1"/>
	<path class="st78" d="M100.6,193.9c-7.2,2-15.9,8.2-15.9,8.2"/>
	<path class="st78" d="M115.9,186c-7.2,2-13.4,6.9-13.4,6.9"/>
	<path class="st78" d="M131.2,178.1c-7.2,2-13.4,6.9-13.4,6.9"/>
</g>
<g>
	<path class="st78" d="M94.8,199.1c-5,1.4-9.7,4.1-12.1,5.6"/>
	<path class="st78" d="M111.1,190.8c-7.2,2-14.2,7.1-14.2,7.1"/>
	<path class="st78" d="M126.8,182.4c-7.2,2-13.2,6.8-13.2,6.8"/>
	<path class="st78" d="M138.6,176.3c-5.2,1.4-9.6,5.1-9.6,5.1"/>
</g>
<g>
	<path class="st78" d="M47.2,225.3"/>
	<path class="st78" d="M60.8,218.8"/>
	<path class="st78" d="M93.9,201.5c-2.7,0.7-5,1.8-6.9,2.9"/>
	<path class="st78" d="M109,193.7c-7.2,2-13,6.7-13,6.7"/>
</g>
<g>
	<path class="st78" d="M138.1,174.6c0.1,0,3-0.8,2.2,0.3"/>
</g>
<path class="st78" d="M123.3,186.2c-6.5,2.2-12.3,6.6-12.3,6.6"/>
<path class="st78" d="M138.6,178.6c-6.9,2.1-12.4,6.5-12.4,6.5"/>
<path class="st78" d="M125.8,176.8c0,0,2.9-2.4,8.3-3.7"/>
<path class="st78" d="M133.2,177c0,0,3.5-2.4,4.7-2.3"/>
<g>
	<path class="st78" d="M105.7,198c-7.2,2-13.5,7.1-13.5,7.1"/>
	<path class="st78" d="M121.5,189.9c-7.2,2-13.7,6.9-13.7,6.9"/>
</g>
<g>
	<path class="st78" d="M99.2,203.4c-0.8,0.2-1.6,0.5-2.4,0.8"/>
	<path class="st78" d="M114.3,195.7c-7.2,2-13,6.5-13,6.5"/>
	<path class="st78" d="M130.6,187.3c-7.2,2-14.2,7.1-14.2,7.1"/>
</g>
<g>
	<path class="st78" d="M77.7,216.4"/>
	<path class="st78" d="M93.6,208.2"/>
	<path class="st78" d="M108.8,200.4c-3.4,0.9-6.6,2.5-9,4"/>
	<path class="st78" d="M124.2,192.5c-7.2,2-13.4,6.9-13.4,6.9"/>
</g>
<g>
	<path class="st78" d="M96.6,208.8"/>
	<path class="st78" d="M110.8,201.7c-2.4,0.6-4.8,1.6-6.8,2.7"/>
	<path class="st78" d="M126.6,193.3c-7.2,2-13.2,6.8-13.2,6.8"/>
	<path class="st78" d="M139.2,187.2c-1.5,0.3-10.5,5.2-10.5,5.2"/>
</g>
<g>
	<path class="st78" d="M139,187.3c1.2-0.5,3.2-0.2,2,0.9l-0.8,0.6"/>
</g>
<path class="st78" d="M123.1,197.1c-6.5,2.2-12.3,6.6-12.3,6.6"/>
<path class="st78" d="M138.3,189.5c-6.9,2.1-12.4,6.5-12.4,6.5"/>
<path class="st78" d="M124.4,188.6c0,0,6.2-4.8,11.6-6.1"/>
<g>
	<path class="st78" d="M96.4,213.3"/>
	<path class="st78" d="M109.9,206.2"/>
	<path class="st78" d="M125.7,198.1c-7.2,2-13.7,6.9-13.7,6.9"/>
</g>
<g>
	<path class="st78" d="M121.1,202.5c-1.4,0.4-3.2,1.3-4.5,1.8"/>
	<path class="st78" d="M137.7,193.8c-7.2,2-14.9,7.8-14.9,7.8"/>
</g>
<g>
	<path class="st78" d="M103.6,213.4"/>
	<path class="st78" d="M117,206.4"/>
	<path class="st78" d="M132.4,198.6c-7.2,2-13.4,6.9-13.4,6.9"/>
</g>
<g>
	<path class="st78" d="M128,202.8c-1.4,0.4-2.8,0.9-4.1,1.4"/>
	<path class="st78" d="M138.8,196.7c-5,2.2-8.6,5.1-8.6,5.1"/>
</g>
<path class="st78" d="M112.2,213.2"/>
<path class="st78" d="M124.5,206.7"/>
<path class="st78" d="M135.7,200.4c-5.9,2.2-8.4,5-8.4,5"/>
<path class="st78" d="M131.8,204.7c-1.7,1.2-2.5,2-2.5,2"/>
<path class="st78" d="M137.7,201.7c-2.6,1-4.5,2.1-5.9,3"/>
<path class="st80" d="M137.8,203.4c-1.2,0.5-2.3,1-3.3,1.6"/>
<path class="st78" d="M127,197.3c0,0,3.6-3.4,9-4.7"/>
<path class="st78" d="M134.4,197.4c0,0,3.5-2.4,4.7-2.3"/>
<path class="st78" d="M80.1,189.4c-1.7,0.5-3.4,1.6-4.9,2.3"/>
</svg>
