<?xml version="1.0" encoding="utf-8"?>
<!-- Generator: Adobe Illustrator 25.2.3, SVG Export Plug-In . SVG Version: 6.00 Build 0)  -->
<svg version="1.1" id="Layer_1" xmlns="http://www.w3.org/2000/svg" xmlns:xlink="http://www.w3.org/1999/xlink" x="0px" y="0px"
	 viewBox="0 0 158.5 127.6" style="enable-background:new 0 0 158.5 127.6;" xml:space="preserve">
<style type="text/css">
	.st0{fill:#CCB9B9;stroke:#FFFFFF;stroke-width:0.2145;stroke-miterlimit:10;}
	.st1{fill:#CCB9B9;stroke:#FFFFFF;stroke-width:0.2145;stroke-linejoin:bevel;stroke-miterlimit:10;}
	.st2{fill:#E4DAD8;stroke:#FFFFFF;stroke-width:0.2289;stroke-linejoin:bevel;stroke-miterlimit:10;}
	.st3{fill:none;stroke:#000000;stroke-width:0.2208;stroke-miterlimit:10;}
	.st4{fill:#DD335A;stroke:#FFFFFF;stroke-width:0.3392;stroke-miterlimit:10;}
	.st5{fill:none;stroke:#FFFFFF;stroke-width:0.2106;stroke-linecap:round;stroke-miterlimit:10;}
	.st6{fill:#DD335A;stroke:#FFFFFF;stroke-width:0.1475;stroke-linecap:round;stroke-miterlimit:10;}
	.st7{fill:none;stroke:#FFFFFF;stroke-width:0.1475;stroke-linecap:round;stroke-miterlimit:10;}
	.st8{fill:#1D1D1B;}
	.st9{stroke:url(#SVGID_1_);stroke-width:0.5282;stroke-miterlimit:10;}
	.st10{fill:#666666;}
	.st11{stroke:url(#SVGID_2_);stroke-width:0.5282;stroke-miterlimit:10;}
	.st12{stroke:url(#SVGID_3_);stroke-width:0.5282;stroke-miterlimit:10;}
	.st13{opacity:0.7;fill:#6466AC;}
	.st14{opacity:0.46;fill:#F5F5F5;}
	.st15{fill:#D8422E;}
	.st16{fill:none;stroke:#000000;stroke-width:0.513;stroke-miterlimit:10;}
</style>
<polygon class="st0" points="106.3,103.2 38.3,68.9 1.6,85.8 1.7,93.3 67.5,126.5 106.3,106.8 "/>
<polygon class="st0" points="67.6,126.5 67.5,118.9 106.2,100 106.2,107.4 "/>
<polygon class="st0" points="106.3,103.2 38.3,68.9 0.2,84.9 0.3,92.5 67.6,126.7 106.3,106.8 "/>
<polygon class="st1" points="67.7,126.7 67.6,119.4 106.2,100 106.2,107.4 "/>
<path class="st2" d="M38.7,65.9L-0.1,84.7l67.9,34.7l38.4-19.4L38.7,65.9z"/>
<g>
	<polygon points="67.5,104.2 69,104.9 70.3,104.2 68.9,103.5 	"/>
	<polygon points="72.6,107.3 75.2,108.6 77.7,107.3 75.1,106 	"/>
	<g>
		<polygon points="71.6,104.2 72.2,104.4 72.8,104.2 72.2,103.8 		"/>
		<polygon points="71,103.9 71.6,104.2 72.2,103.9 71.6,103.6 		"/>
		<polygon points="74.5,104.4 75.1,104.8 75.6,104.5 75,104.1 		"/>
		<polygon points="75.1,104.7 75.6,105.1 76.2,104.8 75.6,104.5 		"/>
		<polygon points="75.6,104.4 76.2,104.8 76.8,104.5 76.2,104.2 		"/>
		<polygon points="76.2,103.5 76.8,103.8 77.3,103.6 76.8,103.2 		"/>
		<polygon points="73.9,104.8 74.5,105 75.1,104.7 74.5,104.5 		"/>
		<polygon points="72.7,104.2 73.3,104.5 73.9,104.2 73.3,103.9 		"/>
		<polygon points="72.7,103.6 73.3,103.9 73.9,103.6 73.3,103.3 		"/>
		<polygon points="73.9,103.6 74.5,103.8 75,103.6 74.4,103.2 		"/>
		<polygon points="73.9,104.2 74.5,104.4 75.1,104.1 74.5,103.8 		"/>
		<polygon points="72.7,104.8 73.3,105.1 73.9,104.8 73.3,104.5 		"/>
		<polygon points="75,103.6 75.6,103.8 76.2,103.5 75.6,103.2 		"/>
		<polygon points="73.8,103 74.4,103.3 75,103 74.4,102.7 		"/>
		<polygon points="75,102.9 75.6,103.2 76.2,102.9 75.6,102.6 		"/>
		<polygon points="71.6,103.6 72.2,103.9 72.7,103.6 72.2,103.3 		"/>
	</g>
	<g>
		<polygon points="72.3,102.6 72.8,103 73.4,102.7 72.8,102.4 		"/>
		<polygon points="72.8,103 73.4,103.3 74,103 73.4,102.7 		"/>
		<polygon points="73.4,102.7 74,103 74.5,102.7 74,102.4 		"/>
		<polygon points="74,101.7 74.5,102.1 75.1,101.8 74.5,101.5 		"/>
		<polygon points="71.7,103 72.2,103.3 72.8,103 72.3,102.7 		"/>
		<polygon points="70.5,102.4 71.1,102.7 71.7,102.4 71.1,102.1 		"/>
		<polygon points="71.6,101.8 72.2,102.1 72.8,101.8 72.2,101.5 		"/>
		<polygon points="71.7,102.4 72.3,102.7 72.8,102.4 72.2,102.1 		"/>
		<polygon points="70.5,103 71.1,103.3 71.7,103 71.1,102.7 		"/>
		<polygon points="72.8,101.8 73.4,102 74,101.7 73.4,101.4 		"/>
		<polygon points="72.8,101.2 73.4,101.4 74,101.1 73.4,100.8 		"/>
	</g>
	<g>
		<polygon points="75,102.4 75.7,102.7 76.2,102.4 75.6,102.1 		"/>
		<polygon points="77.9,102.7 78.5,103 79.1,102.7 78.5,102.4 		"/>
		<polygon points="78.5,103 79.1,103.3 79.7,103 79.1,102.7 		"/>
		<polygon points="79.1,102.7 79.6,103 80.2,102.7 79.6,102.4 		"/>
		<polygon points="79.6,101.8 80.2,102.1 80.8,101.8 80.2,101.5 		"/>
		<polygon points="77.4,103 77.9,103.3 78.5,103 78,102.7 		"/>
		<polygon points="76.2,102.4 76.8,102.7 77.4,102.4 76.8,102.1 		"/>
		<polygon points="76.2,101.8 76.8,102.1 77.4,101.8 76.8,101.5 		"/>
		<polygon points="77.3,101.8 77.9,102.1 78.5,101.8 77.9,101.5 		"/>
		<polygon points="77.3,102.4 77.9,102.7 78.5,102.4 77.9,102.1 		"/>
		<polygon points="76.2,103 76.8,103.3 77.4,103 76.8,102.7 		"/>
		<polygon points="78.5,101.8 79.1,102.1 79.7,101.8 79.1,101.5 		"/>
		<polygon points="77.3,101.2 77.9,101.5 78.5,101.2 77.9,100.9 		"/>
		<polygon points="78.5,101.2 79.1,101.5 79.6,101.2 79.1,100.9 		"/>
	</g>
	<g>
		<polygon points="80.3,105 79.7,104.8 79.1,105.1 79.7,105.4 		"/>
		<polygon points="77.4,104.8 76.8,104.5 76.2,104.8 76.8,105.1 		"/>
		<polygon points="76.8,104.5 76.2,104.2 75.6,104.5 76.2,104.8 		"/>
		<polygon points="76.2,104.8 75.7,104.5 75.1,104.8 75.7,105.1 		"/>
		<polygon points="75.7,105.7 75.1,105.4 74.5,105.7 75.1,106 		"/>
		<polygon points="77.9,104.4 77.4,104.2 76.8,104.5 77.3,104.7 		"/>
		<polygon points="79.1,105 78.5,104.7 77.9,105 78.5,105.3 		"/>
		<polygon points="79.1,105.6 78.5,105.4 78,105.6 78.5,106 		"/>
		<polygon points="78,105.6 77.4,105.4 76.8,105.7 77.4,106 		"/>
		<polygon points="78,105.1 77.4,104.8 76.8,105.1 77.4,105.4 		"/>
		<polygon points="79.1,104.4 78.5,104.1 77.9,104.4 78.5,104.7 		"/>
		<polygon points="76.8,105.7 76.2,105.4 75.6,105.7 76.2,106 		"/>
		<polygon points="78,106.2 77.4,106 76.8,106.3 77.4,106.6 		"/>
		<polygon points="76.8,106.3 76.2,106 75.7,106.3 76.2,106.6 		"/>
	</g>
	<g>
		<polygon points="81.4,105 80.8,104.8 80.2,105.1 80.8,105.4 		"/>
		<polygon points="78.5,104.8 77.9,104.5 77.4,104.8 77.9,105.1 		"/>
		<polygon points="77.9,104.5 77.4,104.2 76.8,104.5 77.4,104.8 		"/>
		<polygon points="77.4,104.8 76.8,104.5 76.2,104.8 76.8,105.1 		"/>
		<polygon points="76.8,105.7 76.2,105.4 75.7,105.7 76.2,106 		"/>
		<polygon points="79.1,104.4 78.5,104.2 77.9,104.5 78.5,104.7 		"/>
		<polygon points="80.3,105 79.7,104.7 79.1,105 79.7,105.3 		"/>
		<polygon points="80.3,105.6 79.7,105.4 79.1,105.6 79.7,105.9 		"/>
		<polygon points="79.1,105.6 78.5,105.4 78,105.7 78.5,106 		"/>
		<polygon points="79.1,105 78.5,104.8 77.9,105.1 78.5,105.4 		"/>
		<polygon points="80.3,104.4 79.7,104.1 79.1,104.4 79.7,104.7 		"/>
		<polygon points="78,105.7 77.4,105.4 76.8,105.7 77.4,106 		"/>
		<polygon points="79.2,106.2 78.6,106 78,106.3 78.6,106.6 		"/>
		<polygon points="78,106.3 77.4,106 76.8,106.3 77.4,106.6 		"/>
	</g>
	<g>
		<polygon points="75.1,104.8 74.5,104.5 73.9,104.8 74.5,105.1 		"/>
		<polygon points="75.7,105.1 75.1,104.8 74.5,105.1 75.1,105.4 		"/>
		<polygon points="72.2,104.5 71.6,104.2 71.1,104.5 71.6,104.8 		"/>
		<polygon points="70.5,105.4 69.9,105.1 69.4,105.4 69.9,105.7 		"/>
		<polygon points="72.8,104.2 72.2,103.9 71.6,104.2 72.2,104.5 		"/>
		<polygon points="74,104.8 73.3,104.5 72.8,104.8 73.4,105.1 		"/>
		<polygon points="74,105.4 73.4,105.1 72.8,105.4 73.4,105.7 		"/>
		<polygon points="72.8,105.4 72.2,105.1 71.7,105.4 72.2,105.7 		"/>
		<polygon points="72.8,104.8 72.2,104.5 71.6,104.8 72.2,105.1 		"/>
		<polygon points="74,104.2 73.3,103.9 72.8,104.2 73.4,104.5 		"/>
		<polygon points="71.7,105.4 71,105.1 70.5,105.4 71.1,105.7 		"/>
		<polygon points="72.9,106 72.2,105.7 71.7,106 72.3,106.3 		"/>
		<polygon points="75.1,105.9 74.5,105.7 73.9,106 74.5,106.3 		"/>
		<polygon points="74,106.5 73.4,106.3 72.8,106.6 73.4,106.9 		"/>
		<polygon points="71.7,106 71.1,105.7 70.5,106 71.1,106.3 		"/>
		<polygon points="75.1,105.3 74.5,105 73.9,105.3 74.5,105.6 		"/>
		<polygon points="74,105.9 73.4,105.7 72.8,106 73.4,106.3 		"/>
		<polygon points="72.8,106.6 72.2,106.3 71.7,106.6 72.3,106.9 		"/>
		<polygon points="75.1,105.4 74.5,105.1 73.9,105.4 74.5,105.7 		"/>
	</g>
	<polygon class="st3" points="66.6,104.2 68.9,105.3 71.2,104.2 68.9,103 	"/>
	<g>
		<polygon points="74.6,100.7 76,101.4 77.4,100.7 76,100 		"/>
		<polygon class="st3" points="73.6,100.7 76,101.8 78.2,100.7 75.9,99.5 		"/>
	</g>
	<g>
		<polygon points="80.3,103.6 81.8,104.3 83.1,103.6 81.7,102.9 		"/>
		<polygon class="st3" points="79.4,103.7 81.7,104.8 83.9,103.6 81.7,102.4 		"/>
	</g>
</g>
<g>
	<path class="st4" d="M48.3,71.3c-0.3,0.1-0.6,0.4-1.5,0.3c-0.4,0-5.5-2.2-8.3-2.1c-2.8,0.1-5.5,0.8-6.5,1.4c-1.1,0.5-2,1.4-2.9,2.6
		s-4.8,4.1-3.8,8.5s2.2,4.5,2.4,4.8c0.2,0.4-0.5,1.4,0,2.3s0.8,0.9,0.8,1.2s-0.6,1.2,0.5,2.5c1.1,1.4,2.2,1.5,2.4,1.6
		s0.3,1.4,1.2,1.6c0.9,0.2,1.1,0.4,2.4,0.5s2.2,0,2.5,0.1s2.4,1.1,3.8,1.9c1.4,0.7,1.8,1.2,3.3,1.2s1.8-0.3,2.7-0.1
		c0.9,0.2,0.9,0.3,1.7,1.4c0.9,1.1,2.6,1.6,5.5,1.6c3,0,5.1-1.1,6.4-1.2c1.3-0.1,3.3,0.2,4.1,0s2.4-1.5,2.7-3.7
		c0.3-2.3,0.9-1.9,1.2-2.2s0.9-2.6,0.5-4.3c-0.4-1.7-1.5-4.8-5.1-9s-5.6-5.4-8.2-7c-2.6-1.5-5.5-1.7-5.7-2.2c-0.3-0.5-0.9-1.4-1-1.6
		C49,71.2,48.6,71.2,48.3,71.3z"/>
	<path class="st5" d="M48.8,71.7c0,0-0.7,0.8-2.2,0.6c-1.5-0.3-3.8-1.9-3.8-1.9"/>
	<path class="st5" d="M49,71.6c0,0-0.6,1-1.5,1.7c-1.1,0.8-1.4,1.1-3,1.8c-1.7,0.7-5.8,0.8-6.8,1.6c-0.9,0.8-1.9,1.5-0.9,2.1
		s3.4,1.3,9.8,1.7S57,84.2,57,84.2s6.3,3.8,6.4,8.4s0,6.9-3.2,8.9"/>
	<path class="st5" d="M49.1,71.7c0,0,0.8,2.5,1.8,3.2c0.9,0.7,7.2,4.5,7.2,4.5s3.6,2.6,6.6,6.9s3.2,8.5,3.2,8.5l-0.2,2.8"/>
	<path class="st5" d="M27.6,86.7c0,0,0.7,0.9,2.5,1.3"/>
	<path class="st5" d="M40.9,89.4c1.6,0.6,7.6-1.5,9.6-1.2c1.9,0.2,3.3,1.1,3.9,2.3c0.7,1.2,0.1,1.9-0.3,2.2c-0.4,0.3-1,0.6-3.8-0.3
		c-2.8-0.9-8.4-2.1-8.4-2.1l-2.3-0.3"/>
	<path class="st5" d="M43.8,89.3c0,0,5.7,1.2,6.4,1.2c0.7,0,0.8-0.7,0.3-1c-0.6-0.3-0.9-0.3-2.2-0.1"/>
	<path class="st5" d="M38.4,76.4c0,0-6.8,2.1-6.8,3.8s4.3,3.4,7.8,3.6c3.5,0.2,13.2,0.7,15,2c1.8,1.3,4.7,3.8,5.4,6.4
		s0.7,3.9-0.7,5.3c-1.4,1.3-4.4,0.8-7,0.3c-2.5-0.5-5.5-1.8-5.5-1.8"/>
	<path class="st5" d="M44.2,96.2c0,0-6.8-4.3-10.4-4.8c-3.6-0.5-2.2,3-2.2,3"/>
	<path class="st5" d="M49,71.6c-0.3,0.4-0.8,0.7-1.4,1.1c-1.4,0.9-3.4,1.5-4.4,1.7c-1.3,0.3-8.7-0.2-11.4,0.8s-5,2.3-4.6,5.2
		c0.3,2.9,2.5,4.8,3.3,5.2s10.7,2.9,12.6,2.9c1.8,0,5.7-1.8,9.6-0.6s4.6,3.9,4.7,4.7c0.1,0.8,0.5,2.9-2.5,2.7s-4.1-0.8-6.9-0.4
		c-2.7,0.4-0.6,1.2-2.7,0.4c-2.1-0.8-5.6-5.4-5.6-5.4s-5.1-3.2-7.4-2.5c-2.3,0.7-3.9,2.8-3.9,2.8"/>
	<path class="st5" d="M33.1,70.4c0,0,3.8-0.6,5.7,0.2s3.1,2,4.9,2.2c1.8,0.2,3.6,0.2,5.3-1.2"/>
	<path class="st5" d="M28.4,74.1c0,0,3.2-2.3,7.3-1.6s5.6,1.8,8.5,1.3s4.4-1.8,4.4-1.8"/>
	<path class="st5" d="M42.3,79.5c1-0.1,3.1-1.8,4.3-3.5c1.2-1.7,2.3-4.2,2.3-4.2"/>
	<path class="st5" d="M49.5,72.9c0,0-1.1,0.6-1.1,1.9c0,1.3,0.8,1.8,1.3,1.7c0.5-0.1,1.9-1,1.9-1"/>
	<path class="st5" d="M42.3,79.5c-1.3,0.1-3.6-0.4-4.2-1.1"/>
</g>
<g>
	<g>
		<path class="st6" d="M68.8,16.8c-0.2,0.1-0.4,0.3-1,0.2c-0.3,0-3.9-1.6-5.8-1.5c-2,0.1-3.8,0.6-4.6,1s-1.4,1-2.1,1.8
			s-3.3,2.8-2.7,5.9s1.5,3.1,1.7,3.4c0.1,0.3-0.3,1,0,1.6c0.3,0.6,0.5,0.6,0.6,0.8c0,0.2-0.4,0.8,0.4,1.8c0.8,1,1.5,1,1.7,1.1
			c0.1,0.1,0.2,1,0.9,1.1c0.6,0.1,0.8,0.3,1.7,0.3c0.9,0,1.6,0,1.8,0c0.2,0,1.7,0.8,2.7,1.3c1,0.5,1.3,0.8,2.3,0.8
			c1,0,1.3-0.2,1.9-0.1s0.6,0.2,1.2,1c0.6,0.8,1.8,1.2,3.9,1.1c2.1,0,3.6-0.7,4.5-0.8s2.3,0.1,2.9,0c0.6-0.1,1.7-1,1.9-2.6
			c0.2-1.6,0.6-1.3,0.8-1.5c0.2-0.2,0.6-1.8,0.3-3s-1-3.3-3.6-6.3s-3.9-3.8-5.7-4.9c-1.8-1.1-3.8-1.2-4-1.5s-0.6-1-0.7-1.1
			S69,16.8,68.8,16.8z"/>
		<path class="st7" d="M69.2,16.9c0,0-0.5,0.8-1.6,0.6c-1-0.2-2.7-1.3-2.7-1.3"/>
		<path class="st7" d="M69.3,17.1c0,0-0.4,0.7-1.1,1.1c-0.8,0.6-1,0.8-2.1,1.3c-1.2,0.5-4.1,0.5-4.7,1.1c-0.6,0.5-1.3,1-0.6,1.5
			c0.7,0.5,2.4,0.9,6.9,1.2s7.3,2.5,7.3,2.5s4.2,3,4.2,5.9s0.4,4.7-1.9,6.1"/>
		<path class="st7" d="M69.3,17.1c0,0,0.6,1.8,1.2,2.2c0.7,0.5,5,3.1,5,3.1s2.5,1.8,4.6,4.8c2.1,3,2.2,5.9,2.2,5.9l-0.1,2"/>
		<path class="st7" d="M54.3,27.6c0,0,0.5,0.6,1.7,0.9"/>
		<path class="st7" d="M64.8,29.3l5.6-0.7c0,0,2.5,0.4,2.8,1.6c0.2,1.2,0,1.5,0,1.5s-1,0.5-3-0.2c-2-0.7-5.9-1.5-5.9-1.5l-1.6-0.2"
			/>
		<path class="st7" d="M65.6,29.4c0,0,3.8,0.8,4.4,0.8c0.5,0,0.8-0.5,0.3-0.7c-0.5-0.2-0.6-0.2-1.5-0.1"/>
		<path class="st7" d="M61.5,20.6c0,0-4.4,1.3-4.4,2.5c0,1.2,3,2.4,5.4,2.5S71.8,26.1,73,27c1.3,0.9,3.3,2.7,3.7,4.5
			c0.4,1.8,0.5,2.8-0.5,3.7c-1,0.9-3.1,0.6-4.9,0.2c-1.8-0.4-3.8-1.3-3.8-1.3"/>
		<path class="st7" d="M65.9,34.3c0,0-4.8-3-7.3-3.4C56,30.6,57,33,57,33"/>
		<path class="st7" d="M69.2,17.1c-0.2,0.3-0.5,0.5-1,0.8c-1,0.6-2.4,1.1-3.1,1.2c-0.9,0.2-6.1-0.1-8,0.6c-1.9,0.7-3.5,1.6-3.2,3.7
			s2.3,3.6,2.3,3.6l8.8,2c0,0,4-1.3,6.7-0.4c2.7,0.8,3.3,3.3,3.3,3.3s0.3,2-1.7,1.9c-2.1-0.1-2.9-0.6-4.8-0.3
			c-1.9,0.3-0.4,0.8-1.9,0.3c-1.5-0.6-3.9-3.7-3.9-3.7s-3.6-2.2-5.2-1.8c-1.6,0.5-2.7,2-2.7,2"/>
		<path class="st7" d="M58.1,16.2c0,0,2.7-0.4,4,0.2c1.3,0.6,2.2,1.4,3.4,1.5c1.2,0.1,2.5,0.1,3.7-0.8"/>
		<path class="st7" d="M54.8,18.8c0,0,2.2-1.6,5.1-1.1s3.9,1.3,6,0.9c2.1-0.4,3.1-1.3,3.1-1.3"/>
		<path class="st7" d="M64.6,22.5c0,0,2-2.1,2.5-3c0.6-0.9,1.9-2.2,1.9-2.2"/>
		<path class="st7" d="M69.6,18c0,0-0.7,0.4-0.8,1.3c0,0.9,0.6,1.2,0.9,1.2c0.4,0,1.3-0.7,1.3-0.7"/>
		<path class="st7" d="M64.6,22.5c0,0-2.5-0.3-2.9-0.8"/>
	</g>
	<path class="st8" d="M156.7,41.8c-0.3-1.1-1-1.3-1.7-1.7L77,1.3c-1.3-0.6-2.9-0.6-4.1,0L37.5,19.7c-0.8,0.4-1.3,1.3-1.3,2.2
		c0,0.3,0,1.4,0,1.6c0,1.1,0.7,2.9,1.6,3.3c1,0.5,71.5,36.8,74.5,38.2c3,1.5,6-0.1,6.7-0.5l36.5-18.3c0.9-0.5,1.5-1.4,1.5-2.5
		C157.1,43.1,157.1,42.9,156.7,41.8z M151.5,42.3c0.7,0.3,0.7,1.3,0,1.7c-6.5,3.2-29.2,14.6-32,16c-3.2,1.6-6.3-0.1-6.3-0.1
		l-73.5-37L74.4,5c0.3-0.2,0.7-0.3,1.1-0.3c0.3,0,0.7,0.1,1,0.2L151.5,42.3z"/>
	<g>
		<linearGradient id="SVGID_1_" gradientUnits="userSpaceOnUse" x1="46.0088" y1="29.9032" x2="51.1972" y2="29.9032">
			<stop  offset="0" style="stop-color:#FFFFFF"/>
			<stop  offset="1" style="stop-color:#000000"/>
		</linearGradient>
		<line class="st9" x1="46.1" y1="28.6" x2="51.1" y2="31.2"/>
		<path class="st10" d="M51.1,32c-0.1,0-0.2,0-0.4-0.1l-4.9-2.5c-0.4-0.2-0.5-0.7-0.3-1.1c0.2-0.4,0.7-0.5,1.1-0.3l4.9,2.5
			c0.4,0.2,0.5,0.7,0.3,1.1C51.6,31.8,51.4,32,51.1,32z"/>
	</g>
	<g>
		<linearGradient id="SVGID_2_" gradientUnits="userSpaceOnUse" x1="40.4771" y1="26.5632" x2="43.4971" y2="26.5632">
			<stop  offset="0" style="stop-color:#FFFFFF"/>
			<stop  offset="1" style="stop-color:#000000"/>
		</linearGradient>
		<line class="st11" x1="40.6" y1="25.9" x2="43.4" y2="27.3"/>
		<path class="st10" d="M43.4,28.1c-0.1,0-0.2,0-0.4-0.1l-2.8-1.4c-0.4-0.2-0.5-0.7-0.4-1.1c0.2-0.4,0.7-0.5,1.1-0.4l2.8,1.4
			c0.4,0.2,0.5,0.7,0.4,1.1C43.9,27.9,43.7,28.1,43.4,28.1z"/>
	</g>
	<g>
		<linearGradient id="SVGID_3_" gradientUnits="userSpaceOnUse" x1="53.4716" y1="33.8954" x2="58.8338" y2="33.8954">
			<stop  offset="0" style="stop-color:#FFFFFF"/>
			<stop  offset="1" style="stop-color:#000000"/>
		</linearGradient>
		<line class="st12" x1="53.6" y1="32.6" x2="58.7" y2="35.2"/>
		<path class="st10" d="M58.7,36c-0.1,0-0.2,0-0.4-0.1l-5.1-2.6c-0.4-0.2-0.5-0.7-0.3-1.1c0.2-0.4,0.7-0.5,1.1-0.3l5.1,2.6
			c0.4,0.2,0.5,0.7,0.3,1.1C59.3,35.8,59,36,58.7,36z"/>
	</g>
	<path class="st13" d="M40.6,23.6c0,0,68.2,34.6,71.4,36.1c3.1,1.5,5.6,1.2,7.5,0.3c1.9-0.9,31.7-15.6,33-16.4
		c1.3-0.8,0.7-2-0.7-2.7S77.5,4,77.5,4s-2.5-1.1-3.4-0.6c-6.4,3.4-33.5,17.2-34.8,17.9C37.8,22,40.6,23.6,40.6,23.6z"/>
	<g>
		<path d="M51.1,15.9l2.9,1.5c0.5,0.2,1,0.2,1.5,0L68,11.2c0.5-0.3,0.5-1,0-1.3l-3.2-1.7c-0.1,0-0.1,0-0.2,0l-14.1,6.9
			C50.3,15.2,49.4,15.1,51.1,15.9z"/>
		<ellipse class="st10" cx="64.9" cy="10.5" rx="1.2" ry="0.6"/>
	</g>
	<path class="st14" d="M62.1,30l6.2,3.4c0.9,0.5,1.9,0.5,2.7,0l27.3-13.9c0.8-0.4,0.8-1.5,0-2L91.6,14c-0.8-0.4-1.7-0.4-2.5,0
		l-27,13.8C61.2,28.2,61.1,29.5,62.1,30z"/>
	<g>
		<path class="st15" d="M68.6,28.4c-0.2-0.2-0.4-0.3-0.7-0.3c-0.3,0-0.6,0.1-0.9,0.2c-0.2,0.1-0.4,0.3-0.5,0.4
			c-0.1,0.1-0.2,0.3-0.2,0.4c0,0.1,0,0.3,0.1,0.4c0.1,0.1,0.2,0.2,0.3,0.2c0.1,0,0.3,0.1,0.4,0.1c0.1,0,0.3,0,0.4,0
			c0.1,0,0.3-0.1,0.4-0.1l0.6-0.2c0.2,0,0.3-0.1,0.5-0.1c0.2,0,0.4-0.1,0.6-0.1c0.2,0,0.4,0,0.6,0.1c0.2,0.1,0.4,0.2,0.5,0.4
			c0.2,0.2,0.3,0.4,0.2,0.7c0,0.3-0.1,0.5-0.3,0.7c-0.2,0.2-0.5,0.5-0.9,0.7c-0.4,0.2-0.7,0.3-1,0.4c-0.3,0-0.6,0-0.9-0.1
			c-0.3-0.1-0.5-0.2-0.7-0.4l0.6-0.3c0.1,0.1,0.3,0.2,0.5,0.3c0.2,0,0.4,0,0.6,0c0.2,0,0.4-0.1,0.6-0.2c0.2-0.1,0.4-0.3,0.6-0.4
			c0.1-0.2,0.2-0.3,0.2-0.5c0-0.2,0-0.3-0.1-0.5C70,30.1,69.9,30,69.7,30c-0.2,0-0.3,0-0.5,0c-0.2,0-0.4,0.1-0.6,0.1l-0.7,0.2
			c-0.5,0.1-0.9,0.2-1.2,0.1c-0.4,0-0.6-0.2-0.9-0.5c-0.2-0.2-0.3-0.5-0.2-0.7c0-0.2,0.1-0.5,0.3-0.7s0.4-0.4,0.8-0.6
			c0.3-0.2,0.6-0.3,1-0.3c0.3,0,0.6,0,0.9,0.1c0.3,0.1,0.5,0.2,0.7,0.4L68.6,28.4z"/>
		<path class="st15" d="M74.1,29.8c-0.4,0.2-0.7,0.3-1.1,0.3c-0.4,0-0.7-0.1-1-0.2c-0.3-0.2-0.6-0.4-0.8-0.7
			c-0.2-0.3-0.4-0.6-0.4-0.9c0-0.3,0-0.6,0.2-0.9c0.2-0.3,0.4-0.5,0.7-0.7c0.3-0.1,0.5-0.2,0.8-0.3c0.3,0,0.5,0,0.8,0
			c0.2,0.1,0.5,0.2,0.6,0.4l-0.6,0.3c-0.2-0.1-0.3-0.2-0.6-0.2c-0.2,0-0.5,0-0.7,0.2c-0.2,0.1-0.4,0.3-0.5,0.5
			c-0.1,0.2-0.1,0.4-0.1,0.6c0,0.2,0.1,0.4,0.3,0.7c0.2,0.2,0.4,0.4,0.6,0.5c0.2,0.1,0.5,0.2,0.7,0.2c0.2,0,0.5-0.1,0.7-0.2
			c0.2-0.1,0.3-0.2,0.4-0.3c0.1-0.1,0.1-0.2,0.2-0.3c0-0.1,0-0.2,0-0.4l0.6-0.3c0.1,0.2,0.1,0.4,0.1,0.6c0,0.2-0.1,0.4-0.2,0.6
			C74.5,29.4,74.3,29.6,74.1,29.8z"/>
		<path class="st15" d="M77.5,27.9c-0.2,0.1-0.5,0.2-0.7,0.2c-0.3,0-0.5,0-0.7-0.1c-0.2-0.1-0.4-0.2-0.6-0.4
			c-0.1-0.2-0.2-0.3-0.2-0.5c0-0.2,0-0.3,0.1-0.4c0.1-0.1,0.2-0.3,0.4-0.4c0.1-0.1,0.3-0.2,0.5-0.4c0.2-0.1,0.4-0.3,0.5-0.4
			c0.1-0.1,0.2-0.2,0.3-0.2c0-0.1,0-0.1,0-0.2l0,0c-0.2-0.2-0.3-0.3-0.5-0.3c-0.2,0-0.5,0-0.7,0.2c-0.3,0.1-0.5,0.3-0.5,0.5
			c-0.1,0.2-0.1,0.3-0.1,0.5l-0.7,0.1c0-0.2,0-0.4,0.1-0.6c0.1-0.2,0.2-0.4,0.4-0.5c0.2-0.1,0.3-0.3,0.5-0.4
			c0.1-0.1,0.3-0.1,0.4-0.2c0.2-0.1,0.4-0.1,0.6-0.1c0.2,0,0.4,0,0.6,0.1c0.2,0.1,0.4,0.3,0.6,0.5l1.5,2l-0.6,0.3l-0.3-0.4l0,0
			c0,0.1,0,0.2,0,0.3c0,0.1-0.1,0.3-0.2,0.4C77.9,27.7,77.7,27.8,77.5,27.9z M77.2,27.5c0.2-0.1,0.4-0.3,0.5-0.4
			c0.1-0.2,0.1-0.3,0.1-0.5c0-0.2-0.1-0.3-0.2-0.4l-0.3-0.4c0,0,0,0.1-0.1,0.1C77.2,26,77.1,26,77,26.1c-0.1,0.1-0.2,0.1-0.3,0.2
			c-0.1,0.1-0.2,0.1-0.2,0.2c-0.1,0.1-0.3,0.2-0.4,0.3C76.1,26.9,76,27,76,27.1c0,0.1,0,0.2,0.1,0.3c0.1,0.2,0.3,0.2,0.5,0.2
			C76.8,27.7,77,27.6,77.2,27.5z"/>
		<path class="st15" d="M79.4,24.3l1.4,1.8l-0.6,0.3l-2.3-3l0.6-0.3l0.4,0.5l0,0c0-0.2,0-0.4,0.1-0.6c0.1-0.2,0.3-0.4,0.6-0.5
			c0.3-0.1,0.5-0.2,0.8-0.2c0.3,0,0.5,0,0.7,0.1c0.2,0.1,0.5,0.3,0.7,0.5l1.5,1.9l-0.6,0.3l-1.5-1.9c-0.2-0.2-0.4-0.4-0.7-0.4
			c-0.3-0.1-0.5,0-0.8,0.1c-0.2,0.1-0.3,0.2-0.4,0.4c-0.1,0.1-0.1,0.3-0.1,0.5C79.2,23.9,79.2,24.1,79.4,24.3z"/>
		<path class="st15" d="M88.9,18.9c0.3,0.4,0.5,0.8,0.6,1.2c0,0.4,0,0.8-0.2,1.1s-0.5,0.6-0.9,0.9c-0.4,0.2-0.9,0.4-1.3,0.4
			c-0.5,0-0.9-0.1-1.3-0.3c-0.4-0.2-0.8-0.5-1.1-0.9c-0.3-0.4-0.5-0.8-0.6-1.2s0-0.8,0.2-1.1c0.2-0.3,0.5-0.6,0.9-0.9
			c0.4-0.2,0.9-0.3,1.3-0.4c0.5,0,0.9,0.1,1.3,0.3C88.2,18.1,88.6,18.4,88.9,18.9z M88.3,19.2c-0.3-0.3-0.6-0.6-0.9-0.8
			c-0.3-0.2-0.7-0.2-1-0.2c-0.3,0-0.7,0.1-1,0.3c-0.3,0.2-0.5,0.4-0.7,0.6c-0.1,0.3-0.2,0.5-0.2,0.9c0,0.3,0.2,0.6,0.5,1
			c0.3,0.3,0.6,0.6,0.9,0.8c0.3,0.2,0.7,0.2,1,0.2c0.3,0,0.7-0.1,1-0.3c0.3-0.2,0.5-0.4,0.7-0.6c0.1-0.3,0.2-0.5,0.2-0.9
			C88.8,19.8,88.6,19.5,88.3,19.2z M87.1,20.9l0.7-0.4l1,0.3l0.3,0.1l1.5,0.4l-0.7,0.4l-1-0.3l-0.3-0.1L87.1,20.9z"/>
		<path class="st15" d="M91.5,20.3l-3.1-4l1.7-0.9c0.4-0.2,0.8-0.3,1.1-0.4c0.3,0,0.6,0,0.9,0.1c0.3,0.1,0.5,0.3,0.7,0.5
			c0.2,0.2,0.3,0.5,0.3,0.7c0,0.2-0.1,0.5-0.2,0.7c-0.2,0.2-0.4,0.5-0.8,0.7l-1.4,0.7l-0.3-0.4l1.3-0.7c0.3-0.1,0.5-0.3,0.6-0.4
			c0.1-0.2,0.2-0.3,0.1-0.5c0-0.2-0.1-0.3-0.2-0.5c-0.1-0.2-0.3-0.3-0.4-0.4c-0.2-0.1-0.4-0.1-0.6-0.1c-0.2,0-0.5,0.1-0.7,0.3
			l-1.1,0.6l2.8,3.6L91.5,20.3z M92.5,17.2l2.6,1.1l-0.7,0.4l-2.6-1.1L92.5,17.2z"/>
	</g>
	<polygon class="st14" points="83.7,39.3 108.1,52 135.3,38.3 110.9,25.6 	"/>
	<g>
		<polygon points="90.8,39.3 94.1,40.8 97.2,39.2 94,37.6 		"/>
		<polygon points="102.4,46.5 108.6,49.4 114.3,46.4 108.4,43.4 		"/>
		<g>
			<polygon points="100.2,39.2 101.6,39.9 102.9,39.2 101.5,38.5 			"/>
			<polygon points="98.8,38.5 100.2,39.2 101.5,38.5 100.2,37.8 			"/>
			<polygon points="106.9,39.8 108.2,40.6 109.6,39.9 108.2,39.2 			"/>
			<polygon points="108.2,40.5 109.6,41.3 110.9,40.6 109.6,39.9 			"/>
			<polygon points="109.5,39.8 110.9,40.6 112.2,39.9 110.8,39.2 			"/>
			<polygon points="110.8,37.7 112.2,38.5 113.5,37.8 112.2,37.1 			"/>
			<polygon points="105.6,40.6 106.9,41.2 108.2,40.6 107,39.9 			"/>
			<polygon points="102.8,39.2 104.2,39.9 105.6,39.2 104.2,38.5 			"/>
			<polygon points="102.8,37.8 104.2,38.5 105.5,37.8 104.2,37.1 			"/>
			<polygon points="105.4,37.8 106.9,38.5 108.2,37.8 106.8,37.1 			"/>
			<polygon points="105.5,39.2 106.9,39.8 108.2,39.2 106.9,38.4 			"/>
			<polygon points="102.8,40.6 104.2,41.3 105.6,40.6 104.2,39.9 			"/>
			<polygon points="108.2,37.8 109.6,38.4 110.9,37.7 109.6,37 			"/>
			<polygon points="105.4,36.4 106.8,37.1 108.1,36.4 106.8,35.7 			"/>
			<polygon points="108.1,36.4 109.5,37 110.9,36.3 109.5,35.6 			"/>
			<polygon points="100.1,37.8 101.5,38.5 102.9,37.8 101.5,37.1 			"/>
		</g>
		<g>
			<polygon points="101.7,35.7 103.1,36.4 104.4,35.7 103.1,35 			"/>
			<polygon points="103.1,36.4 104.4,37.1 105.7,36.4 104.4,35.7 			"/>
			<polygon points="104.3,35.7 105.7,36.4 107,35.7 105.7,35 			"/>
			<polygon points="105.7,33.6 107,34.3 108.4,33.6 107,32.9 			"/>
			<polygon points="100.4,36.4 101.7,37.1 103.1,36.4 101.8,35.7 			"/>
			<polygon points="97.7,35 99.1,35.7 100.4,35 99,34.3 			"/>
			<polygon points="100.3,33.6 101.7,34.3 103,33.6 101.7,32.9 			"/>
			<polygon points="100.3,35 101.7,35.7 103.1,35 101.7,34.3 			"/>
			<polygon points="97.7,36.4 99.1,37.1 100.4,36.4 99,35.7 			"/>
			<polygon points="103,33.6 104.4,34.3 105.8,33.6 104.4,32.9 			"/>
			<polygon points="103,32.2 104.4,32.9 105.7,32.2 104.3,31.5 			"/>
		</g>
		<g>
			<polygon points="108.2,35.1 109.6,35.8 110.9,35.1 109.6,34.4 			"/>
			<polygon points="114.9,35.8 116.3,36.5 117.6,35.8 116.2,35.1 			"/>
			<polygon points="116.3,36.5 117.6,37.2 118.9,36.5 117.6,35.8 			"/>
			<polygon points="117.5,35.8 118.9,36.5 120.2,35.8 118.9,35.1 			"/>
			<polygon points="118.9,33.7 120.2,34.4 121.6,33.7 120.2,33 			"/>
			<polygon points="113.6,36.5 114.9,37.2 116.3,36.5 115,35.8 			"/>
			<polygon points="110.9,35.1 112.3,35.8 113.6,35.1 112.2,34.4 			"/>
			<polygon points="110.8,33.7 112.3,34.4 113.6,33.7 112.2,33 			"/>
			<polygon points="113.5,33.7 114.9,34.4 116.2,33.7 114.9,33 			"/>
			<polygon points="113.5,35.1 114.9,35.8 116.3,35.1 114.9,34.4 			"/>
			<polygon points="110.9,36.5 112.3,37.2 113.6,36.5 112.2,35.8 			"/>
			<polygon points="116.2,33.7 117.6,34.4 119,33.7 117.6,33 			"/>
			<polygon points="113.4,32.3 114.8,33 116.2,32.3 114.8,31.6 			"/>
			<polygon points="116.2,32.3 117.6,32.9 118.9,32.3 117.5,31.6 			"/>
		</g>
		<g>
			<polygon points="120.3,41.2 118.9,40.6 117.6,41.3 118.9,42 			"/>
			<polygon points="113.6,40.6 112.3,39.9 110.9,40.6 112.3,41.3 			"/>
			<polygon points="112.3,39.9 110.9,39.2 109.6,39.9 110.9,40.6 			"/>
			<polygon points="111,40.6 109.6,39.9 108.3,40.6 109.7,41.3 			"/>
			<polygon points="109.7,42.7 108.3,42 107,42.7 108.3,43.4 			"/>
			<polygon points="114.9,39.9 113.6,39.2 112.3,39.9 113.5,40.5 			"/>
			<polygon points="117.7,41.2 116.3,40.5 114.9,41.2 116.3,41.9 			"/>
			<polygon points="117.7,42.6 116.3,42 115,42.6 116.3,43.3 			"/>
			<polygon points="115.1,42.6 113.6,42 112.3,42.7 113.7,43.4 			"/>
			<polygon points="115,41.3 113.6,40.6 112.3,41.3 113.6,42 			"/>
			<polygon points="117.7,39.8 116.3,39.2 114.9,39.8 116.3,40.5 			"/>
			<polygon points="112.3,42.7 110.9,42 109.6,42.7 110.9,43.4 			"/>
			<polygon points="115.1,44 113.7,43.4 112.4,44 113.7,44.7 			"/>
			<polygon points="112.4,44.1 111,43.4 109.6,44.1 111,44.8 			"/>
		</g>
		<g>
			<polygon points="123,41.2 121.6,40.6 120.2,41.3 121.6,42 			"/>
			<polygon points="116.3,40.6 114.9,39.9 113.6,40.6 114.9,41.3 			"/>
			<polygon points="114.9,39.9 113.6,39.2 112.2,39.9 113.6,40.6 			"/>
			<polygon points="113.7,40.6 112.3,39.9 111,40.6 112.3,41.3 			"/>
			<polygon points="112.3,42.7 111,42 109.6,42.7 111,43.4 			"/>
			<polygon points="117.6,39.8 116.3,39.2 114.9,39.9 116.2,40.5 			"/>
			<polygon points="120.3,41.2 118.9,40.5 117.6,41.2 119,41.9 			"/>
			<polygon points="120.3,42.6 118.9,41.9 117.6,42.6 119,43.3 			"/>
			<polygon points="117.7,42.6 116.3,42 115,42.7 116.3,43.4 			"/>
			<polygon points="117.7,41.2 116.3,40.6 114.9,41.3 116.3,42 			"/>
			<polygon points="120.3,39.8 118.9,39.2 117.6,39.8 118.9,40.5 			"/>
			<polygon points="115,42.7 113.6,42 112.2,42.7 113.6,43.4 			"/>
			<polygon points="117.8,44 116.4,43.4 115,44 116.4,44.7 			"/>
			<polygon points="115,44.1 113.6,43.4 112.3,44.1 113.7,44.8 			"/>
		</g>
		<g>
			<polygon points="108.3,40.6 106.9,39.9 105.6,40.6 107,41.3 			"/>
			<polygon points="109.7,41.3 108.3,40.6 107,41.3 108.3,42 			"/>
			<polygon points="101.6,39.9 100.3,39.2 98.9,39.9 100.3,40.6 			"/>
			<polygon points="97.7,42 96.3,41.3 95,42 96.3,42.7 			"/>
			<polygon points="102.9,39.2 101.6,38.5 100.3,39.2 101.5,39.9 			"/>
			<polygon points="105.7,40.6 104.3,39.9 102.9,40.6 104.3,41.3 			"/>
			<polygon points="105.7,42 104.3,41.3 103,42 104.3,42.7 			"/>
			<polygon points="103.1,42 101.7,41.3 100.3,42 101.7,42.7 			"/>
			<polygon points="103,40.6 101.6,39.9 100.3,40.6 101.7,41.3 			"/>
			<polygon points="105.7,39.2 104.3,38.5 102.9,39.2 104.3,39.9 			"/>
			<polygon points="100.3,42 98.9,41.4 97.6,42 99,42.7 			"/>
			<polygon points="103.1,43.4 101.7,42.7 100.4,43.4 101.7,44.1 			"/>
			<polygon points="108.3,43.3 106.9,42.7 105.6,43.3 107,44 			"/>
			<polygon points="105.7,44.7 104.3,44.1 103,44.7 104.4,45.4 			"/>
			<polygon points="100.4,43.4 99,42.8 97.6,43.4 99,44.1 			"/>
			<polygon points="108.4,41.9 107,41.2 105.6,41.9 107,42.6 			"/>
			<polygon points="105.8,43.3 104.4,42.7 103,43.4 104.4,44.1 			"/>
			<polygon points="103.1,44.8 101.7,44.1 100.3,44.8 101.7,45.5 			"/>
			<polygon points="108.4,42 107,41.3 105.6,42 107,42.7 			"/>
		</g>
		<polygon class="st16" points="88.5,39.3 94,41.9 99.2,39.2 93.9,36.4 		"/>
		<g>
			<polygon points="107.2,31.2 110.5,32.7 113.6,31.1 110.4,29.5 			"/>
			<polygon class="st16" points="104.9,31.2 110.4,33.8 115.5,31.1 110.2,28.3 			"/>
		</g>
		<g>
			<polygon points="120.5,38 123.8,39.6 126.9,37.9 123.7,36.3 			"/>
			<polygon class="st16" points="118.2,38 123.7,40.6 128.9,37.9 123.6,35.2 			"/>
		</g>
	</g>
</g>
</svg>
