<?xml version="1.0" encoding="utf-8"?>
<!-- Generator: Adobe Illustrator 25.2.3, SVG Export Plug-In . SVG Version: 6.00 Build 0)  -->
<svg version="1.1" id="Layer_1" xmlns="http://www.w3.org/2000/svg" xmlns:xlink="http://www.w3.org/1999/xlink" x="0px" y="0px"
	 viewBox="0 0 151.3 119.4" style="enable-background:new 0 0 151.3 119.4;" xml:space="preserve">
<style type="text/css">
	.st0{fill:#CCB9B9;stroke:#FFFFFF;stroke-width:0.1643;stroke-miterlimit:10;}
	.st1{fill:#CCB9B9;stroke:#FFFFFF;stroke-width:0.1643;stroke-linejoin:bevel;stroke-miterlimit:10;}
	.st2{fill:#E4DAD8;stroke:#FFFFFF;stroke-width:0.1752;stroke-linejoin:bevel;stroke-miterlimit:10;}
	.st3{fill:none;stroke:#000000;stroke-width:0.169;stroke-miterlimit:10;}
	.st4{fill:#DD335A;stroke:#FFFFFF;stroke-width:0.2597;stroke-miterlimit:10;}
	.st5{fill:none;stroke:#FFFFFF;stroke-width:0.1613;stroke-linecap:round;stroke-miterlimit:10;}
	.st6{fill:#DD335A;stroke:#FFFFFF;stroke-width:0.1129;stroke-linecap:round;stroke-miterlimit:10;}
	.st7{fill:none;stroke:#FFFFFF;stroke-width:0.1129;stroke-linecap:round;stroke-miterlimit:10;}
	.st8{fill:#1D1D1B;stroke:#FFFFFF;stroke-width:0.1914;stroke-miterlimit:10;}
	.st9{stroke:url(#SVGID_1_);stroke-width:0.4044;stroke-miterlimit:10;}
	.st10{fill:#666666;}
	.st11{stroke:url(#SVGID_2_);stroke-width:0.4044;stroke-miterlimit:10;}
	.st12{stroke:url(#SVGID_3_);stroke-width:0.4044;stroke-miterlimit:10;}
	.st13{opacity:0.7;fill:#6466AC;}
	.st14{opacity:0.46;fill:#F5F5F5;}
	.st15{fill:#D8422E;}
	.st16{fill:none;stroke:#000000;stroke-width:0.3928;stroke-miterlimit:10;}
	.st17{opacity:0.12;fill:#DD335A;stroke:#FFFFFF;stroke-width:0.2597;stroke-miterlimit:10;}
</style>
<polygon class="st0" points="81.8,101.4 29.7,75.1 1.7,88 1.7,93.8 52.1,119.2 81.8,104.1 "/>
<polygon class="st0" points="52.2,119.2 52.1,113.4 81.7,98.9 81.7,104.6 "/>
<polygon class="st0" points="81.8,101.4 29.7,75.1 0.5,87.4 0.7,93.2 52.2,119.4 81.8,104.1 "/>
<polygon class="st1" points="52.2,119.4 52.2,113.8 81.7,98.9 81.7,104.6 "/>
<path class="st2" d="M30,72.8L0.3,87.2l52,26.5l29.4-14.8L30,72.8z"/>
<g>
	<polygon points="52.1,102.1 53.2,102.6 54.2,102.1 53.2,101.6 	"/>
	<polygon points="56,104.5 58,105.5 59.9,104.5 57.9,103.5 	"/>
	<g>
		<polygon points="55.2,102.1 55.7,102.3 56.1,102.1 55.7,101.9 		"/>
		<polygon points="54.8,101.9 55.2,102.1 55.7,101.9 55.2,101.6 		"/>
		<polygon points="57.4,102.3 57.9,102.6 58.3,102.3 57.9,102.1 		"/>
		<polygon points="57.9,102.6 58.3,102.8 58.7,102.6 58.3,102.3 		"/>
		<polygon points="58.3,102.3 58.7,102.6 59.2,102.3 58.7,102.1 		"/>
		<polygon points="58.7,101.6 59.2,101.9 59.6,101.6 59.2,101.4 		"/>
		<polygon points="57,102.6 57.4,102.8 57.9,102.6 57.4,102.3 		"/>
		<polygon points="56.1,102.1 56.6,102.3 57,102.1 56.5,101.9 		"/>
		<polygon points="56.1,101.7 56.5,101.9 57,101.6 56.5,101.4 		"/>
		<polygon points="56.9,101.6 57.4,101.9 57.9,101.6 57.4,101.4 		"/>
		<polygon points="57,102.1 57.4,102.3 57.9,102.1 57.4,101.9 		"/>
		<polygon points="56.1,102.6 56.6,102.8 57,102.6 56.5,102.3 		"/>
		<polygon points="57.9,101.6 58.3,101.9 58.8,101.6 58.3,101.4 		"/>
		<polygon points="56.9,101.2 57.4,101.4 57.8,101.2 57.4,101 		"/>
		<polygon points="57.8,101.2 58.3,101.4 58.7,101.2 58.3,100.9 		"/>
		<polygon points="55.2,101.7 55.7,101.9 56.1,101.6 55.7,101.4 		"/>
	</g>
	<g>
		<polygon points="55.7,100.9 56.2,101.2 56.6,101 56.2,100.7 		"/>
		<polygon points="56.2,101.2 56.6,101.4 57.1,101.2 56.6,101 		"/>
		<polygon points="56.6,101 57,101.2 57.5,101 57,100.7 		"/>
		<polygon points="57,100.3 57.5,100.5 57.9,100.3 57.5,100 		"/>
		<polygon points="55.3,101.2 55.7,101.4 56.2,101.2 55.7,101 		"/>
		<polygon points="54.4,100.7 54.9,101 55.3,100.7 54.8,100.5 		"/>
		<polygon points="55.2,100.3 55.7,100.5 56.2,100.3 55.7,100 		"/>
		<polygon points="55.3,100.7 55.7,101 56.2,100.7 55.7,100.5 		"/>
		<polygon points="54.4,101.2 54.9,101.4 55.3,101.2 54.8,101 		"/>
		<polygon points="56.2,100.3 56.6,100.5 57.1,100.3 56.6,100 		"/>
		<polygon points="56.1,99.8 56.6,100 57,99.8 56.6,99.6 		"/>
	</g>
	<g>
		<polygon points="57.9,100.8 58.3,101 58.8,100.8 58.3,100.5 		"/>
		<polygon points="60.1,101 60.5,101.2 61,101 60.5,100.8 		"/>
		<polygon points="60.5,101.2 61,101.4 61.4,101.2 61,101 		"/>
		<polygon points="60.9,101 61.4,101.2 61.8,101 61.4,100.8 		"/>
		<polygon points="61.4,100.3 61.8,100.5 62.3,100.3 61.8,100.1 		"/>
		<polygon points="59.6,101.2 60.1,101.4 60.5,101.2 60.1,101 		"/>
		<polygon points="58.7,100.8 59.2,101 59.6,100.8 59.2,100.5 		"/>
		<polygon points="58.7,100.3 59.2,100.5 59.6,100.3 59.2,100.1 		"/>
		<polygon points="59.6,100.3 60.1,100.5 60.5,100.3 60.1,100.1 		"/>
		<polygon points="59.6,100.8 60.1,101 60.5,100.7 60.1,100.5 		"/>
		<polygon points="58.7,101.2 59.2,101.4 59.6,101.2 59.2,101 		"/>
		<polygon points="60.5,100.3 61,100.5 61.4,100.3 61,100.1 		"/>
		<polygon points="59.6,99.8 60,100.1 60.5,99.8 60,99.6 		"/>
		<polygon points="60.5,99.8 60.9,100.1 61.4,99.8 60.9,99.6 		"/>
	</g>
	<g>
		<polygon points="61.9,102.8 61.4,102.6 61,102.8 61.4,103 		"/>
		<polygon points="59.6,102.6 59.2,102.3 58.8,102.6 59.2,102.8 		"/>
		<polygon points="59.2,102.3 58.8,102.1 58.3,102.3 58.8,102.6 		"/>
		<polygon points="58.8,102.6 58.3,102.3 57.9,102.6 58.3,102.8 		"/>
		<polygon points="58.3,103.3 57.9,103 57.5,103.3 57.9,103.5 		"/>
		<polygon points="60.1,102.3 59.6,102.1 59.2,102.3 59.6,102.6 		"/>
		<polygon points="61,102.8 60.5,102.6 60.1,102.8 60.5,103 		"/>
		<polygon points="61,103.2 60.5,103 60.1,103.2 60.5,103.5 		"/>
		<polygon points="60.1,103.2 59.7,103 59.2,103.3 59.7,103.5 		"/>
		<polygon points="60.1,102.8 59.6,102.6 59.2,102.8 59.7,103 		"/>
		<polygon points="61,102.3 60.5,102.1 60.1,102.3 60.5,102.6 		"/>
		<polygon points="59.2,103.3 58.8,103 58.3,103.3 58.8,103.5 		"/>
		<polygon points="60.1,103.7 59.7,103.5 59.2,103.7 59.7,103.9 		"/>
		<polygon points="59.2,103.7 58.8,103.5 58.3,103.7 58.8,104 		"/>
	</g>
	<g>
		<polygon points="62.7,102.8 62.3,102.6 61.8,102.8 62.3,103 		"/>
		<polygon points="60.5,102.6 60.1,102.3 59.6,102.6 60.1,102.8 		"/>
		<polygon points="60.1,102.3 59.6,102.1 59.2,102.3 59.6,102.6 		"/>
		<polygon points="59.7,102.6 59.2,102.3 58.8,102.6 59.2,102.8 		"/>
		<polygon points="59.2,103.3 58.8,103 58.3,103.3 58.8,103.5 		"/>
		<polygon points="61,102.3 60.5,102.1 60.1,102.3 60.5,102.6 		"/>
		<polygon points="61.9,102.8 61.4,102.6 61,102.8 61.4,103 		"/>
		<polygon points="61.9,103.2 61.4,103 61,103.2 61.4,103.5 		"/>
		<polygon points="61,103.2 60.5,103 60.1,103.3 60.5,103.5 		"/>
		<polygon points="61,102.8 60.5,102.6 60.1,102.8 60.5,103 		"/>
		<polygon points="61.9,102.3 61.4,102.1 61,102.3 61.4,102.6 		"/>
		<polygon points="60.1,103.3 59.6,103 59.2,103.3 59.6,103.5 		"/>
		<polygon points="61,103.7 60.5,103.5 60.1,103.7 60.6,103.9 		"/>
		<polygon points="60.1,103.7 59.6,103.5 59.2,103.7 59.7,104 		"/>
	</g>
	<g>
		<polygon points="57.9,102.6 57.4,102.3 57,102.6 57.4,102.8 		"/>
		<polygon points="58.4,102.8 57.9,102.6 57.5,102.8 57.9,103 		"/>
		<polygon points="55.7,102.4 55.2,102.1 54.8,102.3 55.3,102.6 		"/>
		<polygon points="54.4,103 53.9,102.8 53.5,103 53.9,103.3 		"/>
		<polygon points="56.1,102.1 55.7,101.9 55.2,102.1 55.7,102.3 		"/>
		<polygon points="57,102.6 56.6,102.3 56.1,102.6 56.6,102.8 		"/>
		<polygon points="57,103 56.6,102.8 56.1,103 56.6,103.3 		"/>
		<polygon points="56.2,103 55.7,102.8 55.3,103 55.7,103.3 		"/>
		<polygon points="56.2,102.6 55.7,102.4 55.3,102.6 55.7,102.8 		"/>
		<polygon points="57,102.1 56.6,101.9 56.1,102.1 56.6,102.3 		"/>
		<polygon points="55.3,103 54.8,102.8 54.4,103 54.8,103.3 		"/>
		<polygon points="56.2,103.5 55.7,103.3 55.3,103.5 55.7,103.7 		"/>
		<polygon points="57.9,103.5 57.4,103.2 57,103.5 57.5,103.7 		"/>
		<polygon points="57.1,103.9 56.6,103.7 56.1,103.9 56.6,104.2 		"/>
		<polygon points="55.3,103.5 54.8,103.3 54.4,103.5 54.8,103.7 		"/>
		<polygon points="57.9,103 57.5,102.8 57,103 57.5,103.2 		"/>
		<polygon points="57.1,103.5 56.6,103.3 56.2,103.5 56.6,103.7 		"/>
		<polygon points="56.2,103.9 55.7,103.7 55.3,104 55.7,104.2 		"/>
		<polygon points="57.9,103 57.5,102.8 57,103 57.5,103.3 		"/>
	</g>
	<polygon class="st3" points="51.4,102.1 53.2,103 54.9,102.1 53.1,101.2 	"/>
	<g>
		<polygon points="57.5,99.5 58.6,100 59.6,99.4 58.6,98.9 		"/>
		<polygon class="st3" points="56.8,99.5 58.6,100.3 60.3,99.4 58.5,98.5 		"/>
	</g>
	<g>
		<polygon points="61.9,101.7 63,102.2 64,101.7 63,101.1 		"/>
		<polygon class="st3" points="61.2,101.7 63,102.6 64.7,101.7 62.9,100.8 		"/>
	</g>
</g>
<g>
	<path class="st4" d="M37.4,77c-0.3,0.1-0.4,0.3-1.1,0.2c-0.3,0-4.2-1.7-6.4-1.6c-2.1,0.1-4.2,0.6-5,1.1s-1.5,1-2.3,2
		c-0.7,0.9-3.6,3.1-2.9,6.5c0.7,3.4,1.7,3.4,1.8,3.7c0.2,0.3-0.4,1.1,0,1.8c0.4,0.7,0.6,0.7,0.6,0.9c0,0.2-0.4,0.9,0.4,1.9
		c0.8,1.1,1.7,1.1,1.8,1.2s0.2,1.1,0.9,1.2c0.7,0.1,0.9,0.3,1.9,0.4s1.7,0,1.9,0c0.2,0,1.9,0.9,2.9,1.4c1.1,0.6,1.4,0.9,2.5,0.9
		c1.1,0,1.4-0.2,2.1-0.1c0.7,0.2,0.7,0.2,1.3,1c0.7,0.8,2,1.3,4.2,1.2c2.3,0,3.9-0.8,4.9-0.9c1-0.1,2.5,0.2,3.2,0
		c0.6-0.2,1.8-1.1,2-2.8c0.2-1.8,0.7-1.4,0.9-1.7s0.7-2,0.4-3.3c-0.3-1.3-1.1-3.6-3.9-6.9s-4.3-4.2-6.2-5.3s-4.2-1.3-4.4-1.7
		c-0.2-0.4-0.7-1-0.8-1.2C37.9,76.9,37.6,76.9,37.4,77z"/>
	<path class="st5" d="M37.8,77.3c0,0-0.6,0.6-1.7,0.4c-1.1-0.2-2.9-1.5-2.9-1.5"/>
	<path class="st5" d="M37.9,77.2c0,0-0.5,0.8-1.2,1.3c-0.8,0.6-1.1,0.9-2.3,1.4c-1.3,0.5-4.4,0.6-5.2,1.2c-0.7,0.6-1.5,1.1-0.7,1.6
		c0.8,0.5,2.6,1,7.5,1.3c4.9,0.4,7.9,2.7,7.9,2.7s4.8,2.9,4.9,6.4s0,5.3-2.5,6.8"/>
	<path class="st5" d="M38,77.3c0,0,0.6,1.9,1.3,2.5c0.7,0.5,5.5,3.4,5.5,3.4s2.8,2,5.1,5.3c2.3,3.3,2.5,6.5,2.5,6.5l-0.2,2.2"/>
	<path class="st5" d="M21.5,88.7c0,0,0.6,0.7,1.9,1"/>
	<path class="st5" d="M31.8,90.8c1.2,0.5,5.8-1.1,7.3-0.9c1.5,0.2,2.5,0.8,3,1.7c0.5,0.9,0.1,1.5-0.3,1.7c-0.3,0.2-0.8,0.5-2.9-0.2
		c-2.2-0.7-6.4-1.6-6.4-1.6l-1.7-0.3"/>
	<path class="st5" d="M34,90.7c0,0,4.3,0.9,4.9,0.9s0.6-0.5,0.2-0.8s-0.7-0.2-1.7-0.1"/>
	<path class="st5" d="M29.8,80.8c0,0-5.2,1.6-5.2,2.9c0,1.4,3.3,2.6,5.9,2.8c2.7,0.2,10.1,0.5,11.5,1.5c1.4,1,3.6,2.9,4.1,4.9
		s0.6,3-0.5,4c-1.1,1-3.4,0.6-5.3,0.2c-1.9-0.4-4.2-1.4-4.2-1.4"/>
	<path class="st5" d="M34.2,96c0,0-5.2-3.3-8-3.7c-2.8-0.4-1.7,2.3-1.7,2.3"/>
	<path class="st5" d="M37.9,77.2c-0.2,0.3-0.6,0.6-1,0.8c-1.1,0.7-2.6,1.2-3.3,1.3c-1,0.2-6.7-0.2-8.7,0.6c-2,0.8-3.8,1.7-3.5,4
		c0.3,2.3,1.9,3.7,2.5,3.9s8.2,2.2,9.6,2.2c1.4,0,4.4-1.4,7.3-0.5s3.5,3,3.6,3.6s0.4,2.2-1.9,2c-2.3-0.2-3.2-0.6-5.3-0.3
		c-2.1,0.3-0.5,0.9-2.1,0.3s-4.3-4.1-4.3-4.1s-3.9-2.5-5.7-1.9s-3,2.1-3,2.1"/>
	<path class="st5" d="M25.7,76.3c0,0,2.9-0.4,4.4,0.2c1.5,0.6,2.4,1.5,3.7,1.7s2.7,0.1,4.1-0.9"/>
	<path class="st5" d="M22.1,79.1c0,0,2.4-1.7,5.6-1.2c3.2,0.5,4.3,1.4,6.5,1s3.4-1.4,3.4-1.4"/>
	<path class="st5" d="M32.8,83.2c0.8-0.1,2.4-1.4,3.3-2.7c0.9-1.3,1.7-3.2,1.7-3.2"/>
	<path class="st5" d="M38.3,78.2c0,0-0.8,0.4-0.8,1.5c0,1,0.6,1.4,1,1.3c0.4,0,1.4-0.8,1.4-0.8"/>
	<path class="st5" d="M32.8,83.2c-1,0.1-2.7-0.3-3.2-0.9"/>
</g>
<g>
	<g>
		<path class="st6" d="M82.7,13.4c-0.2,0.1-0.3,0.2-0.8,0.2c-0.2,0-3-1.2-4.5-1.1c-1.5,0.1-2.9,0.4-3.5,0.7
			c-0.6,0.3-1.1,0.7-1.6,1.4c-0.5,0.6-2.6,2.2-2.1,4.5s1.2,2.4,1.3,2.6c0.1,0.2-0.2,0.7,0,1.2c0.2,0.5,0.4,0.5,0.4,0.6
			s-0.3,0.6,0.3,1.4c0.6,0.7,1.2,0.8,1.3,0.9s0.2,0.8,0.7,0.9s0.6,0.2,1.3,0.2s1.2,0,1.4,0c0.2,0,1.3,0.6,2,1c0.7,0.4,1,0.6,1.7,0.6
			s1-0.2,1.5,0c0.5,0.1,0.5,0.2,0.9,0.7c0.5,0.6,1.4,0.9,3,0.9c1.6,0,2.7-0.6,3.4-0.6s1.8,0.1,2.2,0c0.4-0.1,1.3-0.8,1.4-2
			c0.2-1.2,0.5-1,0.6-1.2s0.5-1.4,0.2-2.3s-0.8-2.6-2.8-4.8s-3-2.9-4.4-3.7c-1.4-0.8-2.9-0.9-3.1-1.2c-0.1-0.3-0.5-0.7-0.6-0.8
			C83.1,13.3,82.9,13.3,82.7,13.4z"/>
		<path class="st7" d="M83,13.4c0,0-0.4,0.6-1.2,0.4s-2-1-2-1"/>
		<path class="st7" d="M83.1,13.6c0,0-0.3,0.5-0.8,0.9c-0.6,0.4-0.7,0.6-1.6,1c-0.9,0.4-3.1,0.4-3.6,0.9c-0.5,0.4-1,0.8-0.5,1.1
			c0.6,0.4,1.8,0.7,5.3,0.9s5.6,1.9,5.6,1.9s3.2,2.3,3.2,4.5s0.3,3.6-1.4,4.7"/>
		<path class="st7" d="M83.1,13.6c0,0,0.4,1.4,0.9,1.7s3.8,2.4,3.8,2.4s1.9,1.4,3.6,3.7c1.6,2.3,1.7,4.6,1.7,4.6l-0.1,1.5"/>
		<path class="st7" d="M71.6,21.6c0,0,0.4,0.5,1.3,0.7"/>
		<path class="st7" d="M79.6,22.9l4.3-0.5c0,0,1.9,0.3,2.1,1.2c0.2,0.9,0,1.1,0,1.1s-0.8,0.4-2.3-0.1c-1.5-0.5-4.5-1.1-4.5-1.1
			l-1.2-0.2"/>
		<path class="st7" d="M80.3,23c0,0,2.9,0.6,3.3,0.6c0.4,0,0.6-0.4,0.3-0.5c-0.4-0.1-0.4-0.1-1.1-0.1"/>
		<path class="st7" d="M77.1,16.2c0,0-3.4,1-3.3,1.9c0,0.9,2.3,1.8,4.2,1.9c1.9,0.1,7.1,0.4,8,1.1c1,0.7,2.5,2,2.9,3.4
			c0.3,1.4,0.4,2.1-0.4,2.8c-0.8,0.7-2.4,0.4-3.7,0.1c-1.4-0.3-2.9-1-2.9-1"/>
		<path class="st7" d="M80.5,26.7c0,0-3.7-2.3-5.6-2.6c-1.9-0.3-1.2,1.6-1.2,1.6"/>
		<path class="st7" d="M83.1,13.6c-0.2,0.2-0.4,0.4-0.7,0.6c-0.8,0.5-1.8,0.8-2.3,0.9c-0.7,0.1-4.7-0.1-6.1,0.4
			c-1.4,0.5-2.7,1.2-2.5,2.8c0.2,1.6,1.8,2.8,1.8,2.8l6.7,1.5c0,0,3-1,5.1-0.3c2.1,0.6,2.5,2.5,2.5,2.5s0.3,1.5-1.3,1.4
			c-1.6-0.1-2.2-0.4-3.7-0.2s-0.3,0.6-1.5,0.2c-1.1-0.4-3-2.9-3-2.9s-2.7-1.7-4-1.4c-1.3,0.4-2.1,1.5-2.1,1.5"/>
		<path class="st7" d="M74.6,12.9c0,0,2-0.3,3.1,0.1c1,0.4,1.7,1.1,2.6,1.2c1,0.1,1.9,0.1,2.8-0.6"/>
		<path class="st7" d="M72,14.9c0,0,1.7-1.2,3.9-0.9c2.2,0.3,3,1,4.6,0.7s2.4-1,2.4-1"/>
		<path class="st7" d="M79.5,17.8c0,0,1.5-1.6,1.9-2.3c0.5-0.7,1.5-1.7,1.5-1.7"/>
		<path class="st7" d="M83.4,14.2c0,0-0.6,0.3-0.6,1c0,0.7,0.4,1,0.7,0.9c0.3,0,1-0.5,1-0.5"/>
		<path class="st7" d="M79.5,17.7c0,0-1.9-0.2-2.2-0.6"/>
	</g>
	<path class="st8" d="M150,32.5c-0.3-0.8-0.8-1-1.3-1.3L89,1.5c-1-0.5-2.2-0.5-3.2,0l-27.1,14c-0.6,0.3-1,1-1,1.7c0,0.2,0,1.1,0,1.3
		c0,0.8,0.5,2.2,1.2,2.5c0.7,0.4,54.7,28.1,57,29.3c2.3,1.1,4.6-0.1,5.2-0.4l28-14c0.7-0.4,1.2-1.1,1.2-1.9
		C150.3,33.5,150.3,33.3,150,32.5z M146,32.9c0.5,0.3,0.5,1,0,1.3c-4.9,2.5-22.4,11.2-24.5,12.2c-2.4,1.2-4.8,0-4.8,0L60.5,18.1
		L87,4.3c0.3-0.1,0.5-0.2,0.8-0.2c0.3,0,0.5,0.1,0.8,0.2L146,32.9z"/>
	<g>
		<linearGradient id="SVGID_1_" gradientUnits="userSpaceOnUse" x1="65.2788" y1="23.3832" x2="69.2511" y2="23.3832">
			<stop  offset="0" style="stop-color:#FFFFFF"/>
			<stop  offset="1" style="stop-color:#000000"/>
		</linearGradient>
		<line class="st9" x1="65.4" y1="22.4" x2="69.2" y2="24.4"/>
		<path class="st10" d="M69.2,25c-0.1,0-0.2,0-0.3-0.1L65.1,23c-0.3-0.2-0.4-0.5-0.3-0.8c0.2-0.3,0.5-0.4,0.8-0.3l3.8,1.9
			c0.3,0.2,0.4,0.5,0.3,0.8C69.6,24.8,69.4,25,69.2,25z"/>
	</g>
	<g>
		<linearGradient id="SVGID_2_" gradientUnits="userSpaceOnUse" x1="61.0436" y1="20.826" x2="63.3558" y2="20.826">
			<stop  offset="0" style="stop-color:#FFFFFF"/>
			<stop  offset="1" style="stop-color:#000000"/>
		</linearGradient>
		<line class="st11" x1="61.1" y1="20.3" x2="63.3" y2="21.4"/>
		<path class="st10" d="M63.3,22c-0.1,0-0.2,0-0.3-0.1l-2.1-1.1c-0.3-0.2-0.4-0.5-0.3-0.8c0.2-0.3,0.5-0.4,0.8-0.3l2.1,1.1
			c0.3,0.2,0.4,0.5,0.3,0.8C63.7,21.8,63.5,22,63.3,22z"/>
	</g>
	<g>
		<linearGradient id="SVGID_3_" gradientUnits="userSpaceOnUse" x1="70.9925" y1="26.4397" x2="75.0979" y2="26.4397">
			<stop  offset="0" style="stop-color:#FFFFFF"/>
			<stop  offset="1" style="stop-color:#000000"/>
		</linearGradient>
		<line class="st12" x1="71.1" y1="25.4" x2="75" y2="27.4"/>
		<path class="st10" d="M75,28c-0.1,0-0.2,0-0.3-0.1l-3.9-2c-0.3-0.2-0.4-0.5-0.3-0.8c0.2-0.3,0.5-0.4,0.8-0.3l3.9,2
			c0.3,0.2,0.4,0.5,0.3,0.8C75.4,27.9,75.2,28,75,28z"/>
	</g>
	<path class="st13" d="M61.1,18.6c0,0,52.2,26.5,54.6,27.6c2.4,1.1,4.3,0.9,5.7,0.3s24.3-11.9,25.3-12.5c1-0.6,0.5-1.5-0.5-2
		S89.4,3.5,89.4,3.5s-1.9-0.8-2.6-0.5c-4.9,2.6-25.7,13.2-26.6,13.7C59,17.3,61.1,18.6,61.1,18.6z"/>
	<g>
		<path d="M69.2,12.6l2.2,1.1c0.4,0.2,0.8,0.2,1.1,0L82.1,9c0.4-0.2,0.4-0.8,0-1l-2.5-1.3c0,0-0.1,0-0.1,0L68.7,12
			C68.6,12.1,67.9,12,69.2,12.6z"/>
		<ellipse class="st10" cx="79.7" cy="8.5" rx="0.9" ry="0.4"/>
	</g>
	<path class="st14" d="M77.6,23.5l4.8,2.6c0.7,0.4,1.4,0.4,2.1,0l20.9-10.6c0.6-0.3,0.6-1.2,0-1.5l-5.2-2.8c-0.6-0.3-1.3-0.3-1.9,0
		L77.6,21.7C76.9,22.1,76.9,23.1,77.6,23.5z"/>
	<g>
		<path class="st15" d="M82.5,22.2C82.4,22.1,82.2,22,82,22c-0.2,0-0.5,0.1-0.7,0.2c-0.2,0.1-0.3,0.2-0.4,0.3
			c-0.1,0.1-0.1,0.2-0.2,0.3c0,0.1,0,0.2,0.1,0.3c0.1,0.1,0.1,0.1,0.2,0.2c0.1,0,0.2,0,0.3,0c0.1,0,0.2,0,0.3,0c0.1,0,0.2,0,0.3-0.1
			l0.5-0.1c0.1,0,0.3-0.1,0.4-0.1c0.2,0,0.3,0,0.5,0c0.2,0,0.3,0,0.5,0.1c0.2,0.1,0.3,0.2,0.4,0.3c0.1,0.2,0.2,0.3,0.2,0.5
			c0,0.2-0.1,0.4-0.2,0.6c-0.1,0.2-0.4,0.4-0.7,0.5c-0.3,0.1-0.5,0.2-0.8,0.3c-0.3,0-0.5,0-0.7,0c-0.2-0.1-0.4-0.2-0.5-0.3l0.5-0.3
			c0.1,0.1,0.2,0.2,0.4,0.2c0.1,0,0.3,0,0.5,0c0.2,0,0.3-0.1,0.5-0.2c0.2-0.1,0.3-0.2,0.4-0.3c0.1-0.1,0.2-0.2,0.2-0.4
			c0-0.1,0-0.2-0.1-0.4c-0.1-0.1-0.2-0.2-0.3-0.2c-0.1,0-0.3,0-0.4,0c-0.1,0-0.3,0.1-0.5,0.1L82,23.7c-0.4,0.1-0.7,0.1-0.9,0.1
			c-0.3,0-0.5-0.2-0.7-0.4c-0.1-0.2-0.2-0.4-0.2-0.5c0-0.2,0.1-0.4,0.2-0.6c0.1-0.2,0.3-0.3,0.6-0.5c0.2-0.1,0.5-0.2,0.7-0.2
			s0.5,0,0.7,0c0.2,0.1,0.4,0.2,0.5,0.3L82.5,22.2z"/>
		<path class="st15" d="M86.8,23.3c-0.3,0.1-0.5,0.2-0.8,0.2c-0.3,0-0.5-0.1-0.8-0.2c-0.2-0.1-0.5-0.3-0.6-0.5
			c-0.2-0.2-0.3-0.5-0.3-0.7c0-0.2,0-0.5,0.1-0.7c0.1-0.2,0.3-0.4,0.6-0.5c0.2-0.1,0.4-0.2,0.6-0.2c0.2,0,0.4,0,0.6,0
			c0.2,0.1,0.4,0.1,0.5,0.3l-0.4,0.2c-0.1-0.1-0.3-0.1-0.4-0.2c-0.2,0-0.4,0-0.6,0.1c-0.2,0.1-0.3,0.2-0.4,0.3
			c-0.1,0.1-0.1,0.3-0.1,0.5c0,0.2,0.1,0.3,0.2,0.5c0.1,0.2,0.3,0.3,0.5,0.4c0.2,0.1,0.4,0.1,0.5,0.1c0.2,0,0.4,0,0.5-0.1
			c0.1-0.1,0.2-0.1,0.3-0.2c0.1-0.1,0.1-0.2,0.1-0.3c0-0.1,0-0.2,0-0.3l0.4-0.2c0.1,0.1,0.1,0.3,0.1,0.5c0,0.2-0.1,0.3-0.2,0.5
			C87.1,23,87,23.2,86.8,23.3z"/>
		<path class="st15" d="M89.4,21.9C89.2,22,89,22,88.8,22.1c-0.2,0-0.4,0-0.5-0.1c-0.2-0.1-0.3-0.2-0.4-0.3
			c-0.1-0.1-0.2-0.3-0.2-0.4c0-0.1,0-0.2,0.1-0.3c0.1-0.1,0.2-0.2,0.3-0.3c0.1-0.1,0.2-0.2,0.4-0.3c0.2-0.1,0.3-0.2,0.4-0.3
			C88.9,20.1,89,20,89,20c0-0.1,0-0.1,0-0.2l0,0c-0.1-0.1-0.3-0.2-0.4-0.3c-0.2,0-0.3,0-0.6,0.1c-0.2,0.1-0.3,0.2-0.4,0.4
			c-0.1,0.1-0.1,0.3-0.1,0.4L87,20.5c0-0.2,0-0.3,0-0.5c0.1-0.1,0.2-0.3,0.3-0.4s0.3-0.2,0.4-0.3c0.1,0,0.2-0.1,0.3-0.1
			c0.1,0,0.3-0.1,0.4-0.1c0.2,0,0.3,0,0.5,0.1c0.2,0.1,0.3,0.2,0.5,0.4l1.2,1.5l-0.4,0.2L90,21l0,0c0,0.1,0,0.1,0,0.2
			c0,0.1-0.1,0.2-0.2,0.3C89.7,21.7,89.5,21.8,89.4,21.9z M89.2,21.5c0.2-0.1,0.3-0.2,0.4-0.3c0.1-0.1,0.1-0.2,0.1-0.4
			c0-0.1,0-0.2-0.1-0.3l-0.3-0.3c0,0,0,0.1-0.1,0.1c-0.1,0-0.1,0.1-0.2,0.2c-0.1,0.1-0.1,0.1-0.2,0.2c-0.1,0-0.1,0.1-0.2,0.1
			c-0.1,0.1-0.2,0.2-0.3,0.2c-0.1,0.1-0.1,0.2-0.1,0.2c0,0.1,0,0.2,0.1,0.3c0.1,0.1,0.2,0.2,0.4,0.2C88.9,21.7,89,21.6,89.2,21.5z"
			/>
		<path class="st15" d="M90.8,19.1l1.1,1.4l-0.4,0.2l-1.8-2.3l0.4-0.2l0.3,0.4l0,0c0-0.2,0-0.3,0.1-0.4c0.1-0.1,0.2-0.3,0.4-0.4
			c0.2-0.1,0.4-0.2,0.6-0.2c0.2,0,0.4,0,0.6,0.1c0.2,0.1,0.3,0.2,0.5,0.4l1.1,1.5l-0.4,0.2l-1.1-1.4c-0.1-0.2-0.3-0.3-0.5-0.3
			c-0.2,0-0.4,0-0.6,0.1c-0.1,0.1-0.2,0.2-0.3,0.3c-0.1,0.1-0.1,0.2-0.1,0.4C90.7,18.8,90.7,18.9,90.8,19.1z"/>
		<path class="st15" d="M98.1,14.9c0.3,0.3,0.4,0.6,0.4,1c0,0.3,0,0.6-0.2,0.9c-0.2,0.3-0.4,0.5-0.7,0.7c-0.3,0.2-0.7,0.3-1,0.3
			c-0.4,0-0.7-0.1-1-0.2c-0.3-0.2-0.6-0.4-0.9-0.7c-0.3-0.3-0.4-0.6-0.4-1s0-0.6,0.2-0.9c0.2-0.3,0.4-0.5,0.7-0.7
			c0.3-0.2,0.7-0.3,1-0.3c0.4,0,0.7,0.1,1,0.2C97.6,14.4,97.9,14.6,98.1,14.9z M97.7,15.2c-0.2-0.3-0.4-0.5-0.7-0.6
			c-0.3-0.1-0.5-0.2-0.8-0.2c-0.3,0-0.5,0.1-0.7,0.2c-0.2,0.1-0.4,0.3-0.5,0.5c-0.1,0.2-0.2,0.4-0.1,0.7c0,0.2,0.2,0.5,0.4,0.8
			c0.2,0.3,0.4,0.5,0.7,0.6c0.3,0.1,0.5,0.2,0.8,0.2c0.3,0,0.5-0.1,0.7-0.2c0.2-0.1,0.4-0.3,0.5-0.5c0.1-0.2,0.2-0.4,0.1-0.7
			C98,15.7,97.9,15.4,97.7,15.2z M96.7,16.5l0.5-0.3l0.8,0.2l0.2,0.1l1.2,0.3l-0.5,0.3l-0.8-0.2l-0.2-0.1L96.7,16.5z"/>
		<path class="st15" d="M100.1,16L97.7,13l1.3-0.7c0.3-0.2,0.6-0.3,0.8-0.3c0.3,0,0.5,0,0.7,0.1c0.2,0.1,0.4,0.2,0.5,0.4
			c0.1,0.2,0.2,0.4,0.2,0.6c0,0.2,0,0.4-0.2,0.6c-0.1,0.2-0.3,0.4-0.6,0.5l-1,0.6l-0.3-0.3l1-0.6c0.2-0.1,0.4-0.2,0.4-0.3
			c0.1-0.1,0.1-0.2,0.1-0.4s-0.1-0.2-0.2-0.4s-0.2-0.2-0.3-0.3c-0.1-0.1-0.3-0.1-0.4-0.1c-0.2,0-0.4,0.1-0.6,0.2l-0.8,0.4l2.1,2.7
			L100.1,16z M100.8,13.7l2,0.9l-0.5,0.3l-2-0.9L100.8,13.7z"/>
	</g>
	<polygon class="st14" points="94.1,30.5 112.8,40.3 133.6,29.8 114.9,20.1 	"/>
	<g>
		<polygon points="99.6,30.5 102.1,31.7 104.5,30.5 102,29.2 		"/>
		<polygon points="108.5,36.1 113.2,38.3 117.6,36 113,33.7 		"/>
		<g>
			<polygon points="106.8,30.5 107.8,31 108.8,30.5 107.8,29.9 			"/>
			<polygon points="105.7,30 106.8,30.5 107.8,30 106.7,29.4 			"/>
			<polygon points="111.9,31 112.9,31.5 113.9,31 112.9,30.5 			"/>
			<polygon points="112.9,31.5 114,32.1 115,31.5 113.9,31 			"/>
			<polygon points="113.9,31 114.9,31.5 115.9,31 114.9,30.5 			"/>
			<polygon points="114.9,29.4 116,29.9 117,29.4 115.9,28.9 			"/>
			<polygon points="110.9,31.6 111.9,32.1 112.9,31.5 111.9,31 			"/>
			<polygon points="108.8,30.5 109.9,31 110.9,30.5 109.8,30 			"/>
			<polygon points="108.8,29.4 109.8,29.9 110.9,29.4 109.8,28.9 			"/>
			<polygon points="110.8,29.4 111.9,29.9 112.9,29.4 111.8,28.9 			"/>
			<polygon points="110.8,30.5 111.9,31 112.9,30.5 111.9,29.9 			"/>
			<polygon points="108.8,31.6 109.9,32.1 110.9,31.6 109.8,31 			"/>
			<polygon points="112.9,29.4 114,29.9 115,29.4 113.9,28.9 			"/>
			<polygon points="110.7,28.4 111.8,28.9 112.8,28.3 111.8,27.8 			"/>
			<polygon points="112.8,28.3 113.9,28.8 114.9,28.3 113.9,27.8 			"/>
			<polygon points="106.7,29.4 107.8,30 108.8,29.4 107.8,28.9 			"/>
		</g>
		<g>
			<polygon points="107.9,27.8 109,28.4 110,27.8 109,27.3 			"/>
			<polygon points="109,28.3 110,28.9 111,28.4 110,27.8 			"/>
			<polygon points="109.9,27.8 111,28.4 112,27.8 111,27.3 			"/>
			<polygon points="111,26.2 112,26.7 113,26.2 112,25.7 			"/>
			<polygon points="106.9,28.4 107.9,28.9 109,28.3 108,27.8 			"/>
			<polygon points="104.8,27.3 105.9,27.8 106.9,27.3 105.9,26.8 			"/>
			<polygon points="106.8,26.2 107.9,26.7 108.9,26.2 107.9,25.7 			"/>
			<polygon points="106.9,27.3 107.9,27.8 109,27.3 107.9,26.7 			"/>
			<polygon points="104.8,28.4 105.9,28.9 106.9,28.4 105.9,27.8 			"/>
			<polygon points="108.9,26.2 110,26.7 111,26.2 110,25.7 			"/>
			<polygon points="108.9,25.1 110,25.7 111,25.1 109.9,24.6 			"/>
		</g>
		<g>
			<polygon points="112.9,27.4 114,27.9 115,27.3 114,26.8 			"/>
			<polygon points="118,27.9 119.1,28.4 120.1,27.9 119.1,27.3 			"/>
			<polygon points="119.1,28.4 120.1,29 121.1,28.4 120.1,27.9 			"/>
			<polygon points="120,27.9 121.1,28.4 122.1,27.9 121.1,27.3 			"/>
			<polygon points="121.1,26.3 122.1,26.8 123.1,26.3 122.1,25.7 			"/>
			<polygon points="117,28.4 118,28.9 119.1,28.4 118.1,27.9 			"/>
			<polygon points="114.9,27.4 116,27.9 117,27.4 116,26.8 			"/>
			<polygon points="114.9,26.3 116,26.8 117,26.3 116,25.8 			"/>
			<polygon points="116.9,26.3 118,26.8 119,26.3 118,25.7 			"/>
			<polygon points="117,27.4 118,27.9 119.1,27.3 118,26.8 			"/>
			<polygon points="114.9,28.4 116,29 117,28.4 116,27.9 			"/>
			<polygon points="119,26.3 120.1,26.8 121.1,26.3 120.1,25.7 			"/>
			<polygon points="116.9,25.2 118,25.7 119,25.2 118,24.7 			"/>
			<polygon points="119,25.2 120.1,25.7 121.1,25.2 120,24.6 			"/>
		</g>
		<g>
			<polygon points="122.2,32.1 121.1,31.5 120.1,32.1 121.1,32.6 			"/>
			<polygon points="117,31.6 116,31 115,31.5 116,32.1 			"/>
			<polygon points="116,31 115,30.5 114,31 115,31.6 			"/>
			<polygon points="115,31.6 114,31 113,31.5 114,32.1 			"/>
			<polygon points="114,33.2 113,32.6 112,33.2 113,33.7 			"/>
			<polygon points="118,31 117.1,30.5 116,31 117,31.5 			"/>
			<polygon points="120.1,32 119.1,31.5 118,32.1 119.1,32.6 			"/>
			<polygon points="120.2,33.1 119.1,32.6 118.1,33.1 119.1,33.7 			"/>
			<polygon points="118.1,33.1 117.1,32.6 116.1,33.2 117.1,33.7 			"/>
			<polygon points="118.1,32.1 117,31.6 116,32.1 117.1,32.6 			"/>
			<polygon points="120.1,31 119.1,30.5 118,31 119.1,31.5 			"/>
			<polygon points="116,33.2 115,32.6 114,33.2 115,33.7 			"/>
			<polygon points="118.2,34.2 117.1,33.7 116.1,34.2 117.1,34.7 			"/>
			<polygon points="116.1,34.2 115,33.7 114,34.2 115,34.8 			"/>
		</g>
		<g>
			<polygon points="124.2,32.1 123.1,31.5 122.1,32.1 123.2,32.6 			"/>
			<polygon points="119.1,31.6 118,31 117,31.5 118.1,32.1 			"/>
			<polygon points="118,31 117,30.5 116,31 117,31.6 			"/>
			<polygon points="117.1,31.6 116,31 115,31.5 116.1,32.1 			"/>
			<polygon points="116,33.2 115,32.6 114,33.2 115,33.7 			"/>
			<polygon points="120.1,31 119.1,30.5 118,31 119,31.5 			"/>
			<polygon points="122.2,32 121.1,31.5 120.1,32.1 121.1,32.6 			"/>
			<polygon points="122.2,33.1 121.1,32.6 120.1,33.1 121.1,33.7 			"/>
			<polygon points="120.2,33.1 119.1,32.6 118.1,33.2 119.1,33.7 			"/>
			<polygon points="120.1,32.1 119.1,31.6 118.1,32.1 119.1,32.6 			"/>
			<polygon points="122.2,31 121.1,30.5 120.1,31 121.1,31.5 			"/>
			<polygon points="118.1,33.1 117,32.6 116,33.2 117,33.7 			"/>
			<polygon points="120.2,34.2 119.1,33.7 118.1,34.2 119.2,34.7 			"/>
			<polygon points="118.1,34.2 117,33.7 116,34.2 117.1,34.8 			"/>
		</g>
		<g>
			<polygon points="113,31.6 111.9,31.1 110.9,31.6 111.9,32.1 			"/>
			<polygon points="114.1,32.1 113,31.6 112,32.1 113,32.6 			"/>
			<polygon points="107.9,31.1 106.8,30.5 105.8,31.1 106.8,31.6 			"/>
			<polygon points="104.8,32.7 103.8,32.1 102.8,32.7 103.8,33.2 			"/>
			<polygon points="108.9,30.5 107.9,30 106.8,30.5 107.8,31 			"/>
			<polygon points="111,31.5 109.9,31 108.9,31.6 109.9,32.1 			"/>
			<polygon points="111,32.6 109.9,32.1 108.9,32.6 109.9,33.2 			"/>
			<polygon points="109,32.6 107.9,32.1 106.9,32.7 107.9,33.2 			"/>
			<polygon points="108.9,31.6 107.9,31.1 106.8,31.6 107.9,32.1 			"/>
			<polygon points="111,30.5 109.9,30 108.9,30.5 109.9,31 			"/>
			<polygon points="106.9,32.7 105.8,32.1 104.8,32.7 105.8,33.2 			"/>
			<polygon points="109,33.7 107.9,33.2 106.9,33.7 108,34.3 			"/>
			<polygon points="113,33.7 111.9,33.1 110.9,33.7 111.9,34.2 			"/>
			<polygon points="111,34.7 109.9,34.2 108.9,34.7 110,35.3 			"/>
			<polygon points="106.9,33.7 105.8,33.2 104.8,33.8 105.9,34.3 			"/>
			<polygon points="113,32.6 111.9,32.1 110.9,32.6 112,33.1 			"/>
			<polygon points="111,33.7 110,33.2 108.9,33.7 110,34.2 			"/>
			<polygon points="109,34.8 107.9,34.3 106.9,34.8 107.9,35.3 			"/>
			<polygon points="113,32.6 112,32.1 110.9,32.6 112,33.2 			"/>
		</g>
		<polygon class="st16" points="97.8,30.6 102,32.5 106,30.5 101.9,28.4 		"/>
		<g>
			<polygon points="112.1,24.3 114.6,25.5 117,24.3 114.6,23 			"/>
			<polygon class="st16" points="110.4,24.4 114.6,26.3 118.5,24.3 114.5,22.2 			"/>
		</g>
		<g>
			<polygon points="122.3,29.6 124.9,30.8 127.2,29.5 124.8,28.3 			"/>
			<polygon class="st16" points="120.6,29.6 124.8,31.6 128.7,29.5 124.7,27.4 			"/>
		</g>
	</g>
</g>
<polygon class="st17" points="69,25.9 51.1,102.3 58.2,106.2 66,102.1 75.4,29.4 "/>
</svg>
