<?xml version="1.0" encoding="utf-8"?>
<!-- Generator: Adobe Illustrator 25.2.3, SVG Export Plug-In . SVG Version: 6.00 Build 0)  -->
<svg version="1.1" id="Layer_1" xmlns="http://www.w3.org/2000/svg" xmlns:xlink="http://www.w3.org/1999/xlink" x="0px" y="0px"
	 viewBox="0 0 176.5 151" style="enable-background:new 0 0 176.5 151;" xml:space="preserve">
<style type="text/css">
	.st0{fill:#CCB9B9;stroke:#FFFFFF;stroke-width:0.1976;stroke-miterlimit:10;}
	.st1{fill:#CCB9B9;stroke:#FFFFFF;stroke-width:0.2395;stroke-miterlimit:10;}
	.st2{fill:#CCB9B9;stroke:#FFFFFF;stroke-width:0.2395;stroke-linejoin:bevel;stroke-miterlimit:10;}
	.st3{fill:#E4DAD8;stroke:#FFFFFF;stroke-width:0.2556;stroke-linejoin:bevel;stroke-miterlimit:10;}
	.st4{fill:none;stroke:#000000;stroke-width:0.2034;stroke-miterlimit:10;}
	.st5{fill:#B59695;stroke:#FFFFFF;stroke-width:0.5;stroke-miterlimit:10;}
	.st6{fill:none;stroke:#FFFFFF;stroke-width:0.194;stroke-linecap:round;stroke-miterlimit:10;}
	.st7{fill:#B59695;stroke:#FFFFFF;stroke-width:0.2116;stroke-miterlimit:10;}
	.st8{fill:none;stroke:#FFFFFF;stroke-width:0.1129;stroke-linecap:round;stroke-miterlimit:10;}
	.st9{fill:#1D1D1B;stroke:#FFFFFF;stroke-width:0.1914;stroke-miterlimit:10;}
	.st10{fill:none;stroke:url(#SVGID_1_);stroke-width:0.4044;stroke-miterlimit:10;}
	.st11{fill:#666666;}
	.st12{fill:none;stroke:url(#SVGID_2_);stroke-width:0.4044;stroke-miterlimit:10;}
	.st13{fill:none;stroke:url(#SVGID_3_);stroke-width:0.4044;stroke-miterlimit:10;}
	.st14{opacity:0.54;fill:#543C52;enable-background:new    ;}
	.st15{opacity:0.46;fill:#F5F5F5;enable-background:new    ;}
	.st16{fill:#D8422E;}
	.st17{fill:none;stroke:#000000;stroke-width:0.3928;stroke-miterlimit:10;}
	.st18{opacity:0.12;fill:#DD335A;stroke:#FFFFFF;stroke-width:0.3125;stroke-miterlimit:10;enable-background:new    ;}
</style>
<polygon class="st0" points="107.2,124.2 44.5,92.6 10.7,108.2 10.8,115.1 71.4,145.6 107.2,127.5 "/>
<polygon class="st0" points="71.5,145.6 71.4,138.7 107,121.3 107.1,128.1 "/>
<polygon class="st1" points="119,124.1 43,85.8 0.4,103.7 0.5,112.1 75.7,150.4 119,128.1 "/>
<polygon class="st2" points="75.8,150.4 75.7,142.3 118.7,120.6 118.9,128.8 "/>
<path class="st3" d="M43.5,82.4l-43.3,21l75.8,38.8l42.8-21.7L43.5,82.4z"/>
<g>
	<polygon points="71.4,125.1 72.8,125.8 74,125.1 72.7,124.5 	"/>
	<polygon points="76.1,128 78.5,129.2 80.8,128 78.4,126.8 	"/>
	<g>
		<polygon points="75.2,125.1 75.7,125.4 76.2,125.1 75.7,124.8 		"/>
		<polygon points="74.6,124.8 75.2,125.1 75.7,124.8 75.2,124.5 		"/>
		<polygon points="77.8,125.4 78.4,125.6 78.9,125.4 78.3,125.1 		"/>
		<polygon points="78.4,125.6 78.9,125.9 79.4,125.6 78.9,125.4 		"/>
		<polygon points="78.9,125.4 79.4,125.6 79.9,125.4 79.4,125.1 		"/>
		<polygon points="79.4,124.5 79.9,124.8 80.5,124.5 79.9,124.3 		"/>
		<polygon points="77.3,125.7 77.8,125.9 78.4,125.6 77.9,125.4 		"/>
		<polygon points="76.2,125.1 76.8,125.4 77.3,125.1 76.8,124.8 		"/>
		<polygon points="76.2,124.6 76.8,124.8 77.3,124.5 76.8,124.3 		"/>
		<polygon points="77.3,124.5 77.8,124.8 78.3,124.5 77.8,124.3 		"/>
		<polygon points="77.3,125.1 77.8,125.4 78.4,125.1 77.8,124.8 		"/>
		<polygon points="76.2,125.7 76.8,125.9 77.3,125.7 76.8,125.4 		"/>
		<polygon points="78.3,124.5 78.9,124.8 79.4,124.5 78.9,124.3 		"/>
		<polygon points="77.2,124 77.8,124.3 78.3,124 77.8,123.7 		"/>
		<polygon points="78.3,124 78.9,124.2 79.4,124 78.9,123.7 		"/>
		<polygon points="75.1,124.6 75.7,124.8 76.2,124.5 75.7,124.3 		"/>
	</g>
	<g>
		<polygon points="75.8,123.7 76.3,124 76.8,123.7 76.3,123.4 		"/>
		<polygon points="76.3,124 76.8,124.3 77.4,124 76.8,123.7 		"/>
		<polygon points="76.8,123.7 77.4,124 77.9,123.7 77.3,123.4 		"/>
		<polygon points="77.4,122.9 77.9,123.2 78.4,122.9 77.9,122.6 		"/>
		<polygon points="75.3,124 75.8,124.3 76.3,124 75.8,123.7 		"/>
		<polygon points="74.2,123.5 74.7,123.7 75.3,123.4 74.7,123.2 		"/>
		<polygon points="75.2,122.9 75.8,123.2 76.3,122.9 75.8,122.6 		"/>
		<polygon points="75.2,123.4 75.8,123.7 76.3,123.4 75.8,123.2 		"/>
		<polygon points="74.2,124 74.7,124.3 75.3,124 74.7,123.7 		"/>
		<polygon points="76.3,122.9 76.9,123.2 77.4,122.9 76.8,122.6 		"/>
		<polygon points="76.3,122.3 76.8,122.6 77.4,122.3 76.8,122 		"/>
	</g>
	<g>
		<polygon points="78.4,123.5 78.9,123.7 79.4,123.5 78.9,123.2 		"/>
		<polygon points="81,123.7 81.5,124 82.1,123.8 81.5,123.5 		"/>
		<polygon points="81.5,124 82.1,124.3 82.6,124 82.1,123.7 		"/>
		<polygon points="82,123.7 82.6,124 83.1,123.8 82.6,123.5 		"/>
		<polygon points="82.6,122.9 83.1,123.2 83.6,122.9 83.1,122.6 		"/>
		<polygon points="80.5,124 81,124.3 81.5,124 81,123.8 		"/>
		<polygon points="79.4,123.5 80,123.8 80.5,123.5 79.9,123.2 		"/>
		<polygon points="79.4,122.9 80,123.2 80.5,122.9 79.9,122.6 		"/>
		<polygon points="80.4,122.9 81,123.2 81.5,122.9 81,122.6 		"/>
		<polygon points="80.5,123.5 81,123.7 81.5,123.5 81,123.2 		"/>
		<polygon points="79.4,124 80,124.3 80.5,124 79.9,123.8 		"/>
		<polygon points="81.5,122.9 82.1,123.2 82.6,122.9 82.1,122.6 		"/>
		<polygon points="80.4,122.4 81,122.6 81.5,122.4 81,122.1 		"/>
		<polygon points="81.5,122.4 82.1,122.6 82.6,122.4 82,122.1 		"/>
	</g>
	<g>
		<polygon points="83.2,125.9 82.6,125.6 82.1,125.9 82.6,126.2 		"/>
		<polygon points="80.5,125.7 80,125.4 79.4,125.6 80,125.9 		"/>
		<polygon points="80,125.4 79.4,125.1 78.9,125.4 79.4,125.7 		"/>
		<polygon points="79.5,125.7 78.9,125.4 78.4,125.6 78.9,125.9 		"/>
		<polygon points="78.9,126.5 78.4,126.2 77.9,126.5 78.4,126.8 		"/>
		<polygon points="81,125.4 80.5,125.1 80,125.4 80.5,125.6 		"/>
		<polygon points="82.1,125.9 81.5,125.6 81,125.9 81.6,126.2 		"/>
		<polygon points="82.1,126.5 81.5,126.2 81,126.5 81.6,126.7 		"/>
		<polygon points="81.1,126.5 80.5,126.2 80,126.5 80.5,126.8 		"/>
		<polygon points="81,125.9 80.5,125.7 80,125.9 80.5,126.2 		"/>
		<polygon points="82.1,125.4 81.5,125.1 81,125.4 81.6,125.6 		"/>
		<polygon points="80,126.5 79.4,126.2 78.9,126.5 79.4,126.8 		"/>
		<polygon points="81.1,127 80.5,126.8 80,127 80.5,127.3 		"/>
		<polygon points="80,127 79.4,126.8 78.9,127 79.5,127.3 		"/>
	</g>
	<g>
		<polygon points="84.2,125.9 83.6,125.6 83.1,125.9 83.7,126.2 		"/>
		<polygon points="81.5,125.7 81,125.4 80.5,125.6 81,125.9 		"/>
		<polygon points="81,125.4 80.5,125.1 79.9,125.4 80.5,125.6 		"/>
		<polygon points="80.5,125.7 80,125.4 79.4,125.6 80,125.9 		"/>
		<polygon points="80,126.5 79.4,126.2 78.9,126.5 79.4,126.8 		"/>
		<polygon points="82.1,125.4 81.6,125.1 81,125.4 81.5,125.6 		"/>
		<polygon points="83.2,125.9 82.6,125.6 82.1,125.9 82.6,126.2 		"/>
		<polygon points="83.2,126.5 82.6,126.2 82.1,126.5 82.6,126.7 		"/>
		<polygon points="82.1,126.5 81.6,126.2 81,126.5 81.6,126.8 		"/>
		<polygon points="82.1,125.9 81.5,125.7 81,125.9 81.6,126.2 		"/>
		<polygon points="83.2,125.3 82.6,125.1 82.1,125.4 82.6,125.6 		"/>
		<polygon points="81,126.5 80.5,126.2 79.9,126.5 80.5,126.8 		"/>
		<polygon points="82.1,127 81.6,126.8 81.1,127 81.6,127.3 		"/>
		<polygon points="81.1,127 80.5,126.8 80,127 80.5,127.3 		"/>
	</g>
	<g>
		<polygon points="78.4,125.7 77.8,125.4 77.3,125.7 77.9,125.9 		"/>
		<polygon points="78.9,125.9 78.4,125.7 77.9,125.9 78.4,126.2 		"/>
		<polygon points="75.7,125.4 75.2,125.1 74.7,125.4 75.2,125.7 		"/>
		<polygon points="74.2,126.2 73.6,125.9 73.1,126.2 73.6,126.5 		"/>
		<polygon points="76.3,125.1 75.7,124.8 75.2,125.1 75.7,125.4 		"/>
		<polygon points="77.3,125.6 76.8,125.4 76.3,125.7 76.8,125.9 		"/>
		<polygon points="77.4,126.2 76.8,125.9 76.3,126.2 76.8,126.5 		"/>
		<polygon points="76.3,126.2 75.8,125.9 75.2,126.2 75.8,126.5 		"/>
		<polygon points="76.3,125.7 75.7,125.4 75.2,125.7 75.7,126 		"/>
		<polygon points="77.3,125.1 76.8,124.8 76.3,125.1 76.8,125.4 		"/>
		<polygon points="75.2,126.2 74.7,126 74.1,126.2 74.7,126.5 		"/>
		<polygon points="76.3,126.8 75.8,126.5 75.2,126.8 75.8,127 		"/>
		<polygon points="78.4,126.7 77.8,126.5 77.3,126.7 77.9,127 		"/>
		<polygon points="77.4,127.3 76.8,127 76.3,127.3 76.8,127.6 		"/>
		<polygon points="75.2,126.8 74.7,126.5 74.2,126.8 74.7,127.1 		"/>
		<polygon points="78.4,126.2 77.9,125.9 77.3,126.2 77.9,126.5 		"/>
		<polygon points="77.4,126.7 76.8,126.5 76.3,126.8 76.8,127 		"/>
		<polygon points="76.3,127.3 75.8,127 75.2,127.3 75.8,127.6 		"/>
		<polygon points="78.4,126.2 77.9,125.9 77.3,126.2 77.9,126.5 		"/>
	</g>
	<polygon class="st4" points="70.5,125.1 72.7,126.2 74.8,125.1 72.7,124 	"/>
	<g>
		<polygon points="77.9,121.9 79.2,122.5 80.5,121.9 79.2,121.2 		"/>
		<polygon class="st4" points="77,121.9 79.2,122.9 81.3,121.9 79.2,120.8 		"/>
	</g>
	<g>
		<polygon points="83.2,124.6 84.5,125.2 85.8,124.6 84.5,123.9 		"/>
		<polygon class="st4" points="82.3,124.6 84.5,125.7 86.5,124.6 84.4,123.5 		"/>
	</g>
</g>
<g>
	<path class="st5" d="M51.8,94.2c-0.3,0.1-0.5,0.3-1.4,0.3c-0.4,0-5.1-2-7.7-1.9s-5,0.8-6,1.3s-1.9,1.3-2.7,2.4
		c-0.8,1.1-4.4,3.7-3.5,7.8c0.8,4.1,2,4.1,2.2,4.5c0.2,0.3-0.4,1.3,0,2.1c0.4,0.8,0.7,0.8,0.7,1.1s-0.5,1.1,0.5,2.3
		c1,1.3,2,1.4,2.2,1.5s0.3,1.3,1.1,1.5c0.8,0.2,1,0.4,2.2,0.4s2.1,0,2.3,0c0.3,0.1,2.2,1.1,3.5,1.7c1.3,0.7,1.6,1.1,3,1.1
		s1.7-0.3,2.5-0.1s0.8,0.3,1.6,1.3s2.4,1.5,5.1,1.5c2.7,0,4.7-1,5.9-1.1c1.2-0.1,3,0.2,3.8,0c0.8-0.2,2.2-1.4,2.5-3.4
		c0.3-2.1,0.9-1.7,1.1-2s0.8-2.4,0.4-4c-0.4-1.6-1.4-4.4-4.7-8.3c-3.4-3.9-5.1-5-7.5-6.4s-5.1-1.5-5.3-2s-0.8-1.3-1-1.4
		C52.5,94.1,52.1,94.1,51.8,94.2z"/>
	<path class="st6" d="M52.3,94.6c0,0-0.7,0.8-2.1,0.5c-1.4-0.3-3.5-1.8-3.5-1.8"/>
	<path class="st6" d="M52.4,94.5c0,0-0.6,1-1.4,1.5c-1,0.7-1.3,1-2.8,1.7c-1.5,0.6-5.3,0.7-6.2,1.5c-0.8,0.7-1.8,1.3-0.8,2
		c1,0.6,3.1,1.2,9.1,1.6s9.5,3.3,9.5,3.3s5.8,3.5,5.9,7.7s0,6.3-3,8.2"/>
	<path class="st6" d="M52.6,94.6c0,0,0.8,2.3,1.6,3c0.9,0.6,6.6,4.1,6.6,4.1s3.3,2.4,6.1,6.3c2.8,4,3,7.8,3,7.8l-0.2,2.6"/>
	<path class="st6" d="M32.7,108.4c0,0,0.7,0.8,2.3,1.2"/>
	<path class="st6" d="M45.1,110.9c1.5,0.6,7-1.3,8.8-1.1c1.8,0.2,3,1,3.6,2.1s0.1,1.8-0.3,2c-0.4,0.3-0.9,0.6-3.5-0.3
		s-7.7-1.9-7.7-1.9l-2.1-0.3"/>
	<path class="st6" d="M47.7,110.8c0,0,5.2,1.1,5.9,1.1s0.8-0.6,0.3-0.9s-0.8-0.2-2-0.1"/>
	<path class="st6" d="M42.7,98.9c0,0-6.3,1.9-6.2,3.5c0,1.6,3.9,3.1,7.1,3.3c3.2,0.2,12.1,0.6,13.8,1.8c1.7,1.2,4.4,3.5,4.9,5.9
		c0.6,2.4,0.7,3.6-0.6,4.9c-1.3,1.2-4.1,0.7-6.4,0.2c-2.3-0.5-5.1-1.7-5.1-1.7"/>
	<path class="st6" d="M48,117.1c0,0-6.3-4-9.6-4.4c-3.3-0.4-2,2.8-2,2.8"/>
	<path class="st6" d="M52.4,94.5c-0.3,0.4-0.7,0.7-1.3,1c-1.3,0.8-3.2,1.4-4,1.6c-1.2,0.2-8-0.2-10.5,0.7c-2.5,0.9-4.6,2.1-4.3,4.8
		c0.3,2.7,2.3,4.4,3,4.7c0.8,0.3,9.9,2.7,11.6,2.6s5.2-1.7,8.8-0.6s4.2,3.6,4.3,4.3c0.1,0.7,0.4,2.6-2.3,2.5
		c-2.7-0.2-3.8-0.7-6.3-0.4c-2.5,0.4-0.6,1.1-2.5,0.4c-2-0.7-5.1-4.9-5.1-4.9s-4.7-3-6.8-2.3c-2.2,0.6-3.6,2.6-3.6,2.6"/>
	<path class="st6" d="M37.8,93.4c0,0,3.5-0.5,5.3,0.2c1.8,0.7,2.8,1.8,4.5,2s3.3,0.2,4.9-1.1"/>
	<path class="st6" d="M33.5,96.8c0,0,2.9-2.1,6.7-1.5c3.8,0.6,5.1,1.7,7.9,1.2c2.7-0.5,4.1-1.7,4.1-1.7"/>
	<path class="st6" d="M46.3,101.7c0.9-0.1,2.9-1.7,4-3.2s2.1-3.9,2.1-3.9"/>
	<path class="st6" d="M52.9,95.7c0,0-1,0.5-1,1.8c0,1.2,0.7,1.6,1.2,1.6s1.7-0.9,1.7-0.9"/>
	<path class="st6" d="M46.3,101.7c-1.2,0.1-3.3-0.4-3.9-1"/>
</g>
<g>
	<g>
		<path class="st7" d="M108.3,13.8c-0.2,0.1-0.3,0.2-0.8,0.2c-0.2,0-3-1.2-4.5-1.1c-1.5,0.1-2.9,0.4-3.5,0.7s-1.1,0.7-1.6,1.4
			c-0.5,0.6-2.6,2.2-2.1,4.5s1.2,2.4,1.3,2.6c0.1,0.2-0.2,0.7,0,1.2s0.4,0.5,0.4,0.6s-0.3,0.6,0.3,1.4c0.6,0.7,1.2,0.8,1.3,0.9
			s0.2,0.8,0.7,0.9s0.6,0.2,1.3,0.2c0.7,0,1.2,0,1.4,0c0.2,0,1.3,0.6,2,1s1,0.6,1.7,0.6s1-0.2,1.5,0c0.5,0.1,0.5,0.2,0.9,0.7
			c0.5,0.6,1.4,0.9,3,0.9s2.7-0.6,3.4-0.6c0.7-0.1,1.8,0.1,2.2,0s1.3-0.8,1.4-2c0.2-1.2,0.5-1,0.6-1.2s0.5-1.4,0.2-2.3
			s-0.8-2.6-2.8-4.8s-3-2.9-4.4-3.7s-2.9-0.9-3.1-1.2c-0.1-0.3-0.5-0.7-0.6-0.8C108.7,13.7,108.5,13.7,108.3,13.8z"/>
		<path class="st8" d="M108.6,13.8c0,0-0.4,0.6-1.2,0.4s-2-1-2-1"/>
		<path class="st8" d="M108.7,14c0,0-0.3,0.5-0.8,0.9c-0.6,0.4-0.7,0.6-1.6,1s-3.1,0.4-3.6,0.9c-0.5,0.4-1,0.8-0.5,1.1
			c0.6,0.4,1.8,0.7,5.3,0.9c3.4,0.3,5.6,1.9,5.6,1.9s3.2,2.3,3.2,4.5s0.3,3.6-1.4,4.7"/>
		<path class="st8" d="M108.7,14c0,0,0.4,1.4,0.9,1.7c0.5,0.4,3.8,2.4,3.8,2.4s1.9,1.4,3.6,3.7c1.6,2.3,1.7,4.6,1.7,4.6l-0.1,1.5"/>
		<path class="st8" d="M97.2,22c0,0,0.4,0.5,1.3,0.7"/>
		<path class="st8" d="M105.2,23.3l4.3-0.5c0,0,1.9,0.3,2.1,1.2c0.2,0.9,0,1.1,0,1.1s-0.8,0.4-2.3-0.1s-4.5-1.1-4.5-1.1l-1.1-0.2"/>
		<path class="st8" d="M105.9,23.4c0,0,2.9,0.6,3.3,0.6s0.6-0.4,0.3-0.5c-0.4-0.1-0.4-0.1-1.1-0.1"/>
		<path class="st8" d="M102.7,16.6c0,0-3.4,1-3.3,1.9c0,0.9,2.3,1.8,4.2,1.9s7.1,0.4,8,1.1s2.5,2,2.9,3.4c0.3,1.4,0.4,2.1-0.4,2.8
			s-2.4,0.4-3.7,0.1c-1.4-0.3-2.9-1-2.9-1"/>
		<path class="st8" d="M106.1,27.1c0,0-3.7-2.3-5.6-2.6s-1.2,1.6-1.2,1.6"/>
		<path class="st8" d="M108.6,13.9c-0.2,0.2-0.4,0.4-0.7,0.6c-0.8,0.5-1.8,0.8-2.3,0.9c-0.7,0.1-4.7-0.1-6.1,0.4S96.8,17,97,18.6
			c0.2,1.6,1.8,2.8,1.8,2.8l6.7,1.5c0,0,3-1,5.1-0.3c2.1,0.6,2.5,2.5,2.5,2.5s0.3,1.5-1.3,1.4c-1.6-0.1-2.2-0.4-3.7-0.2
			c-1.5,0.2-0.3,0.6-1.5,0.2s-3-2.9-3-2.9s-2.7-1.7-4-1.4c-1.3,0.4-2.1,1.5-2.1,1.5"/>
		<path class="st8" d="M100.1,13.3c0,0,2-0.3,3.1,0.1c1,0.4,1.7,1.1,2.6,1.2c1,0.1,1.9,0.1,2.8-0.6"/>
		<path class="st8" d="M97.6,15.3c0,0,1.7-1.2,3.9-0.9c2.2,0.3,3,1,4.6,0.7s2.4-1,2.4-1"/>
		<path class="st8" d="M105.1,18.1c0,0,1.5-1.6,1.9-2.3c0.5-0.7,1.5-1.7,1.5-1.7"/>
		<path class="st8" d="M108.9,14.6c0,0-0.6,0.3-0.6,1c0,0.7,0.4,1,0.7,0.9c0.3,0,1-0.5,1-0.5"/>
		<path class="st8" d="M105.1,18.1c0,0-1.9-0.2-2.2-0.6"/>
	</g>
	<path class="st9" d="M175.6,32.9c-0.3-0.8-0.8-1-1.3-1.3L114.6,1.9c-1-0.5-2.2-0.5-3.2,0L84.4,16c-0.6,0.3-1,1-1,1.7
		c0,0.2,0,1.1,0,1.3c0,0.8,0.5,2.2,1.2,2.5s54.7,28.1,57,29.3s5.9,0.8,6.5,0.5l27.1-13.9c0.7-0.4,0.8-2,0.8-2.8
		C175.9,33.9,175.9,33.7,175.6,32.9z M171.6,33.3c0.5,0.3,0.5,1,0,1.3c-4.9,2.5-22.4,11.2-24.5,12.2c-2.4,1.2-4.8,0-4.8,0L86.1,18.4
		l26.5-13.8c0.3-0.1,0.5-0.2,0.8-0.2s0.5,0.1,0.8,0.2L171.6,33.3z"/>
	<g>
		
			<linearGradient id="SVGID_1_" gradientUnits="userSpaceOnUse" x1="90.8151" y1="1795.75" x2="94.7874" y2="1795.75" gradientTransform="matrix(1 0 0 1 0 -1772)">
			<stop  offset="0" style="stop-color:#FFFFFF"/>
			<stop  offset="1" style="stop-color:#000000"/>
		</linearGradient>
		<line class="st10" x1="91" y1="22.8" x2="94.7" y2="24.7"/>
		<path class="st11" d="M94.7,25.4c-0.1,0-0.2,0-0.3-0.1l-3.7-2c-0.3-0.2-0.4-0.5-0.3-0.8c0.2-0.3,0.5-0.4,0.8-0.3l3.8,1.9
			c0.3,0.2,0.4,0.5,0.3,0.8C95.2,25.2,95,25.4,94.7,25.4z"/>
	</g>
	<g>
		
			<linearGradient id="SVGID_2_" gradientUnits="userSpaceOnUse" x1="86.5799" y1="1793.25" x2="88.8921" y2="1793.25" gradientTransform="matrix(1 0 0 1 0 -1772)">
			<stop  offset="0" style="stop-color:#FFFFFF"/>
			<stop  offset="1" style="stop-color:#000000"/>
		</linearGradient>
		<line class="st12" x1="86.7" y1="20.7" x2="88.8" y2="21.8"/>
		<path class="st11" d="M88.8,22.4c-0.1,0-0.2,0-0.3-0.1l-2.1-1.1c-0.3-0.2-0.4-0.5-0.3-0.8c0.2-0.3,0.5-0.4,0.8-0.3l2.1,1.1
			c0.3,0.2,0.4,0.5,0.3,0.8C89.3,22.2,89.1,22.4,88.8,22.4z"/>
	</g>
	<g>
		
			<linearGradient id="SVGID_3_" gradientUnits="userSpaceOnUse" x1="96.5288" y1="1798.8" x2="100.6342" y2="1798.8" gradientTransform="matrix(1 0 0 1 0 -1772)">
			<stop  offset="0" style="stop-color:#FFFFFF"/>
			<stop  offset="1" style="stop-color:#000000"/>
		</linearGradient>
		<line class="st13" x1="96.7" y1="25.8" x2="100.6" y2="27.8"/>
		<path class="st11" d="M100.6,28.4c-0.1,0-0.2,0-0.3-0.1l-3.9-2c-0.3-0.2-0.4-0.5-0.3-0.8c0.2-0.3,0.5-0.4,0.8-0.3l3.9,2
			c0.3,0.2,0.4,0.5,0.3,0.8S100.8,28.4,100.6,28.4z"/>
	</g>
	<path class="st14" d="M86.7,19c0,0,52.2,26.5,54.6,27.6c2.4,1.1,4.3,0.9,5.7,0.3s24.3-11.9,25.3-12.5c1-0.6,0.5-1.5-0.5-2
		S114.9,4,114.9,4s-1.9-0.8-2.6-0.5c-4.9,2.6-25.6,13.1-26.6,13.6C84.6,17.7,86.7,19,86.7,19z"/>
	<g>
		<path d="M94.8,13l2.2,1.1c0.4,0.2,0.8,0.2,1.1,0l9.6-4.7c0.4-0.2,0.4-0.8,0-1l-2.5-1.3h-0.1l-10.8,5.3
			C94.2,12.5,93.5,12.4,94.8,13z"/>
		<ellipse class="st11" cx="105.3" cy="8.9" rx="0.9" ry="0.4"/>
	</g>
	<path class="st15" d="M103.1,23.9l4.8,2.6c0.7,0.4,1.4,0.4,2.1,0l20.9-10.6c0.6-0.3,0.6-1.2,0-1.5l-5.2-2.8c-0.6-0.3-1.3-0.3-1.9,0
		l-20.6,10.5C102.5,22.5,102.4,23.5,103.1,23.9z"/>
	<g>
		<path class="st16" d="M108.1,22.6c-0.1-0.1-0.3-0.2-0.5-0.2s-0.5,0.1-0.7,0.2s-0.3,0.2-0.4,0.3c-0.1,0.1-0.1,0.2-0.2,0.3
			c0,0.1,0,0.2,0.1,0.3c0.1,0.1,0.1,0.1,0.2,0.2c0.1,0,0.2,0,0.3,0c0.1,0,0.2,0,0.3,0c0.1,0,0.2,0,0.3-0.1l0.5-0.1
			c0.1,0,0.3-0.1,0.4-0.1c0.2,0,0.3,0,0.5,0s0.3,0,0.5,0.1s0.3,0.2,0.4,0.3c0.1,0.2,0.2,0.3,0.2,0.5s-0.1,0.4-0.2,0.6
			s-0.4,0.4-0.7,0.5c-0.3,0.1-0.5,0.2-0.8,0.3c-0.3,0-0.5,0-0.7,0c-0.2-0.1-0.4-0.2-0.5-0.3l0.5-0.3c0.1,0.1,0.2,0.2,0.4,0.2
			c0.1,0,0.3,0,0.5,0s0.3-0.1,0.5-0.2s0.3-0.2,0.4-0.3c0.1-0.1,0.2-0.2,0.2-0.4c0-0.1,0-0.2-0.1-0.4c-0.1-0.1-0.2-0.2-0.3-0.2
			c-0.1,0-0.3,0-0.4,0s-0.3,0.1-0.5,0.1l-0.6,0.1c-0.4,0.1-0.7,0.1-0.9,0.1c-0.3,0-0.5-0.2-0.7-0.4c-0.1-0.2-0.2-0.4-0.2-0.5
			c0-0.2,0.1-0.4,0.2-0.6s0.3-0.3,0.6-0.5c0.2-0.1,0.5-0.2,0.7-0.2s0.5,0,0.7,0c0.2,0.1,0.4,0.2,0.5,0.3L108.1,22.6z"/>
		<path class="st16" d="M112.3,23.7c-0.3,0.1-0.5,0.2-0.8,0.2s-0.5-0.1-0.8-0.2c-0.2-0.1-0.5-0.3-0.6-0.5c-0.2-0.2-0.3-0.5-0.3-0.7
			s0-0.5,0.1-0.7s0.3-0.4,0.6-0.5c0.2-0.1,0.4-0.2,0.6-0.2s0.4,0,0.6,0c0.2,0.1,0.4,0.1,0.5,0.3l-0.4,0.2c-0.1-0.1-0.3-0.1-0.4-0.2
			c-0.2,0-0.4,0-0.6,0.1s-0.3,0.2-0.4,0.3c-0.1,0.1-0.1,0.3-0.1,0.5s0.1,0.3,0.2,0.5s0.3,0.3,0.5,0.4s0.4,0.1,0.5,0.1
			c0.2,0,0.4,0,0.5-0.1s0.2-0.1,0.3-0.2c0.1-0.1,0.1-0.2,0.1-0.3c0-0.1,0-0.2,0-0.3l0.4-0.2c0.1,0.1,0.1,0.3,0.1,0.5
			s-0.1,0.3-0.2,0.5C112.7,23.4,112.5,23.6,112.3,23.7z"/>
		<path class="st16" d="M115,22.3c-0.2,0.1-0.4,0.2-0.6,0.2s-0.4,0-0.5-0.1c-0.2-0.1-0.3-0.2-0.4-0.3c-0.1-0.1-0.2-0.3-0.2-0.4
			s0-0.2,0.1-0.3c0.1-0.1,0.2-0.2,0.3-0.3c0.1-0.1,0.2-0.2,0.4-0.3c0.2-0.1,0.3-0.2,0.4-0.3c0.1-0.1,0.2-0.1,0.2-0.2s0-0.1,0-0.2
			l0,0c-0.1-0.1-0.3-0.2-0.4-0.3c-0.2,0-0.3,0-0.6,0.1c-0.2,0.1-0.3,0.2-0.4,0.4c-0.1,0.1-0.1,0.3-0.1,0.4l-0.5,0.1
			c0-0.2,0-0.3,0-0.5c0.1-0.1,0.2-0.3,0.3-0.4s0.3-0.2,0.4-0.3c0.1,0,0.2-0.1,0.3-0.1c0.1,0,0.3-0.1,0.4-0.1c0.2,0,0.3,0,0.5,0.1
			s0.3,0.2,0.5,0.4l1.2,1.5l-0.4,0.2l-0.2-0.3l0,0c0,0.1,0,0.1,0,0.2s-0.1,0.2-0.2,0.3C115.3,22.1,115.1,22.2,115,22.3z M114.8,21.9
			c0.2-0.1,0.3-0.2,0.4-0.3c0.1-0.1,0.1-0.2,0.1-0.4c0-0.1,0-0.2-0.1-0.3l-0.3-0.3c0,0,0,0.1-0.1,0.1s-0.1,0.1-0.2,0.2
			s-0.1,0.1-0.2,0.2c-0.1,0-0.1,0.1-0.2,0.1c-0.1,0.1-0.2,0.2-0.3,0.2c-0.1,0.1-0.1,0.2-0.1,0.2c0,0.1,0,0.2,0.1,0.3
			c0.1,0.1,0.2,0.2,0.4,0.2C114.4,22.1,114.6,22,114.8,21.9z"/>
		<path class="st16" d="M116.4,19.5l1.1,1.4l-0.4,0.2l-1.8-2.3l0.4-0.2L116,19l0,0c0-0.2,0-0.3,0.1-0.4s0.2-0.3,0.4-0.4
			c0.2-0.1,0.4-0.2,0.6-0.2s0.4,0,0.6,0.1s0.3,0.2,0.5,0.4l1.1,1.5l-0.4,0.2l-1.1-1.4c-0.1-0.2-0.3-0.3-0.5-0.3s-0.4,0-0.6,0.1
			c-0.1,0.1-0.2,0.2-0.3,0.3c-0.1,0.1-0.1,0.2-0.1,0.4S116.3,19.3,116.4,19.5z"/>
		<path class="st16" d="M123.7,15.3c0.3,0.3,0.4,0.6,0.4,1c0,0.3,0,0.6-0.2,0.9s-0.4,0.5-0.7,0.7c-0.3,0.2-0.7,0.3-1,0.3
			c-0.4,0-0.7-0.1-1-0.2s-0.6-0.4-0.9-0.7c-0.3-0.3-0.4-0.6-0.4-1c0-0.3,0-0.6,0.2-0.9c0.2-0.3,0.4-0.5,0.7-0.7
			c0.3-0.2,0.7-0.3,1-0.3c0.4,0,0.7,0.1,1,0.2S123.5,15,123.7,15.3z M123.3,15.6c-0.2-0.3-0.4-0.5-0.7-0.6c-0.3-0.1-0.5-0.2-0.8-0.2
			s-0.5,0.1-0.7,0.2c-0.2,0.1-0.4,0.3-0.5,0.5s-0.2,0.4-0.1,0.7c0,0.2,0.2,0.5,0.4,0.8c0.2,0.3,0.4,0.5,0.7,0.6
			c0.3,0.1,0.5,0.2,0.8,0.2s0.5-0.1,0.7-0.2s0.4-0.3,0.5-0.5s0.2-0.4,0.1-0.7C123.6,16.1,123.5,15.8,123.3,15.6z M122.3,16.9
			l0.5-0.3l0.8,0.2l0.2,0.1l1.2,0.3l-0.5,0.3l-0.8-0.2l-0.2-0.1L122.3,16.9z"/>
		<path class="st16" d="M125.7,16.4l-2.4-3.1l1.3-0.7c0.3-0.2,0.6-0.3,0.8-0.3c0.3,0,0.5,0,0.7,0.1s0.4,0.2,0.5,0.4s0.2,0.4,0.2,0.6
			c0,0.2,0,0.4-0.2,0.6c-0.1,0.2-0.3,0.4-0.6,0.5l-1,0.6l-0.3-0.3l1-0.6c0.2-0.1,0.4-0.2,0.4-0.3c0.1-0.1,0.1-0.2,0.1-0.4
			c0-0.1-0.1-0.2-0.2-0.4c-0.1-0.1-0.2-0.2-0.3-0.3c-0.1-0.1-0.3-0.1-0.4-0.1c-0.2,0-0.4,0.1-0.6,0.2l-0.8,0.4L126,16L125.7,16.4z
			 M126.4,14.1l2,0.9l-0.5,0.3l-2-0.9L126.4,14.1z"/>
	</g>
	<polygon class="st15" points="119.7,30.9 138.4,40.7 159.2,30.2 140.5,20.5 	"/>
	<g>
		<polygon points="125.1,30.9 127.7,32.1 130.1,30.9 127.6,29.6 		"/>
		<polygon points="134.1,36.5 138.7,38.7 143.2,36.4 138.6,34.1 		"/>
		<g>
			<polygon points="132.3,30.9 133.4,31.4 134.4,30.9 133.4,30.3 			"/>
			<polygon points="131.3,30.4 132.3,30.9 133.4,30.3 132.3,29.8 			"/>
			<polygon points="137.5,31.4 138.5,31.9 139.5,31.4 138.5,30.9 			"/>
			<polygon points="138.5,31.9 139.5,32.5 140.5,31.9 139.5,31.4 			"/>
			<polygon points="139.5,31.4 140.5,31.9 141.5,31.4 140.5,30.9 			"/>
			<polygon points="140.5,29.8 141.5,30.3 142.6,29.8 141.5,29.3 			"/>
			<polygon points="136.5,31.9 137.5,32.5 138.5,31.9 137.5,31.4 			"/>
			<polygon points="134.4,30.9 135.4,31.4 136.5,30.9 135.4,30.3 			"/>
			<polygon points="134.3,29.8 135.4,30.3 136.4,29.8 135.4,29.3 			"/>
			<polygon points="136.4,29.8 137.4,30.3 138.5,29.8 137.4,29.3 			"/>
			<polygon points="136.4,30.9 137.5,31.4 138.5,30.9 137.4,30.3 			"/>
			<polygon points="134.4,32 135.4,32.5 136.5,31.9 135.4,31.4 			"/>
			<polygon points="138.5,29.8 139.5,30.3 140.6,29.8 139.5,29.2 			"/>
			<polygon points="136.3,28.8 137.4,29.3 138.4,28.7 137.4,28.2 			"/>
			<polygon points="138.4,28.7 139.5,29.2 140.5,28.7 139.5,28.2 			"/>
			<polygon points="132.3,29.8 133.4,30.3 134.4,29.8 133.3,29.3 			"/>
		</g>
		<g>
			<polygon points="133.5,28.2 134.6,28.7 135.6,28.2 134.5,27.7 			"/>
			<polygon points="134.5,28.7 135.6,29.3 136.6,28.8 135.6,28.2 			"/>
			<polygon points="135.5,28.2 136.6,28.7 137.6,28.2 136.5,27.7 			"/>
			<polygon points="136.6,26.6 137.6,27.1 138.6,26.6 137.6,26.1 			"/>
			<polygon points="132.5,28.8 133.5,29.3 134.6,28.7 133.6,28.2 			"/>
			<polygon points="130.4,27.7 131.5,28.2 132.5,27.7 131.5,27.2 			"/>
			<polygon points="132.4,26.6 133.5,27.1 134.5,26.6 133.5,26.1 			"/>
			<polygon points="132.4,27.7 133.5,28.2 134.5,27.7 133.5,27.1 			"/>
			<polygon points="130.4,28.8 131.5,29.3 132.5,28.8 131.5,28.2 			"/>
			<polygon points="134.5,26.6 135.6,27.1 136.6,26.6 135.6,26.1 			"/>
			<polygon points="134.5,25.5 135.5,26 136.6,25.5 135.5,25 			"/>
		</g>
		<g>
			<polygon points="138.5,27.8 139.6,28.3 140.6,27.7 139.5,27.2 			"/>
			<polygon points="143.6,28.3 144.7,28.8 145.7,28.3 144.6,27.7 			"/>
			<polygon points="144.6,28.8 145.7,29.3 146.7,28.8 145.7,28.3 			"/>
			<polygon points="145.6,28.3 146.7,28.8 147.7,28.3 146.6,27.7 			"/>
			<polygon points="146.7,26.6 147.7,27.2 148.7,26.7 147.7,26.1 			"/>
			<polygon points="142.6,28.8 143.6,29.3 144.7,28.8 143.7,28.3 			"/>
			<polygon points="140.5,27.8 141.6,28.3 142.6,27.8 141.6,27.2 			"/>
			<polygon points="140.5,26.7 141.6,27.2 142.6,26.7 141.5,26.1 			"/>
			<polygon points="142.5,26.7 143.6,27.2 144.6,26.7 143.6,26.1 			"/>
			<polygon points="142.5,27.7 143.6,28.3 144.6,27.7 143.6,27.2 			"/>
			<polygon points="140.5,28.8 141.6,29.3 142.6,28.8 141.6,28.3 			"/>
			<polygon points="144.6,26.7 145.7,27.2 146.7,26.7 145.7,26.1 			"/>
			<polygon points="142.5,25.6 143.6,26.1 144.6,25.6 143.5,25.1 			"/>
			<polygon points="144.6,25.6 145.7,26.1 146.7,25.6 145.6,25 			"/>
		</g>
		<g>
			<polygon points="147.8,32.4 146.7,31.9 145.7,32.5 146.7,33 			"/>
			<polygon points="142.6,32 141.6,31.4 140.6,31.9 141.6,32.5 			"/>
			<polygon points="141.6,31.4 140.6,30.9 139.5,31.4 140.6,31.9 			"/>
			<polygon points="140.6,32 139.6,31.4 138.6,31.9 139.6,32.5 			"/>
			<polygon points="139.6,33.6 138.5,33 137.5,33.5 138.6,34.1 			"/>
			<polygon points="143.6,31.4 142.6,30.9 141.6,31.4 142.6,31.9 			"/>
			<polygon points="145.7,32.4 144.6,31.9 143.6,32.5 144.7,33 			"/>
			<polygon points="145.7,33.5 144.7,33 143.6,33.5 144.7,34.1 			"/>
			<polygon points="143.7,33.5 142.6,33 141.6,33.5 142.7,34.1 			"/>
			<polygon points="143.7,32.5 142.6,32 141.6,32.5 142.6,33 			"/>
			<polygon points="145.7,31.4 144.6,30.9 143.6,31.4 144.7,31.9 			"/>
			<polygon points="141.6,33.5 140.5,33 139.5,33.6 140.6,34.1 			"/>
			<polygon points="143.8,34.6 142.7,34.1 141.7,34.6 142.7,35.1 			"/>
			<polygon points="141.7,34.6 140.6,34.1 139.6,34.6 140.6,35.2 			"/>
		</g>
		<g>
			<polygon points="149.8,32.4 148.7,31.9 147.7,32.5 148.7,33 			"/>
			<polygon points="144.7,32 143.6,31.4 142.6,31.9 143.6,32.5 			"/>
			<polygon points="143.6,31.4 142.6,30.9 141.6,31.4 142.6,31.9 			"/>
			<polygon points="142.7,32 141.6,31.4 140.6,31.9 141.6,32.5 			"/>
			<polygon points="141.6,33.6 140.6,33 139.6,33.5 140.6,34.1 			"/>
			<polygon points="145.7,31.4 144.7,30.9 143.6,31.4 144.6,31.9 			"/>
			<polygon points="147.8,32.4 146.7,31.9 145.7,32.5 146.7,33 			"/>
			<polygon points="147.8,33.5 146.7,33 145.7,33.5 146.7,34.1 			"/>
			<polygon points="145.8,33.5 144.7,33 143.7,33.5 144.7,34.1 			"/>
			<polygon points="145.7,32.5 144.6,32 143.6,32.5 144.7,33 			"/>
			<polygon points="147.8,31.4 146.7,30.9 145.7,31.4 146.7,31.9 			"/>
			<polygon points="143.7,33.5 142.6,33 141.6,33.6 142.6,34.1 			"/>
			<polygon points="145.8,34.6 144.7,34.1 143.7,34.6 144.7,35.1 			"/>
			<polygon points="143.7,34.6 142.6,34.1 141.6,34.6 142.7,35.2 			"/>
		</g>
		<g>
			<polygon points="138.6,32 137.5,31.4 136.5,32 137.5,32.5 			"/>
			<polygon points="139.6,32.5 138.6,32 137.5,32.5 138.6,33 			"/>
			<polygon points="133.4,31.5 132.4,30.9 131.4,31.4 132.4,32 			"/>
			<polygon points="130.4,33.1 129.4,32.5 128.4,33.1 129.4,33.6 			"/>
			<polygon points="134.4,30.9 133.5,30.4 132.4,30.9 133.4,31.4 			"/>
			<polygon points="136.5,31.9 135.5,31.4 134.4,32 135.5,32.5 			"/>
			<polygon points="136.6,33 135.5,32.5 134.5,33 135.5,33.6 			"/>
			<polygon points="134.5,33 133.5,32.5 132.5,33 133.5,33.6 			"/>
			<polygon points="134.5,32 133.4,31.5 132.4,32 133.5,32.5 			"/>
			<polygon points="136.5,30.9 135.5,30.4 134.4,30.9 135.5,31.4 			"/>
			<polygon points="132.4,33 131.4,32.5 130.4,33.1 131.4,33.6 			"/>
			<polygon points="134.6,34.1 133.5,33.6 132.5,34.1 133.5,34.6 			"/>
			<polygon points="138.6,34 137.5,33.5 136.5,34.1 137.5,34.6 			"/>
			<polygon points="136.6,35.1 135.5,34.6 134.5,35.1 135.5,35.7 			"/>
			<polygon points="132.5,34.1 131.4,33.6 130.4,34.1 131.4,34.7 			"/>
			<polygon points="138.6,33 137.5,32.5 136.5,33 137.6,33.5 			"/>
			<polygon points="136.6,34.1 135.5,33.6 134.5,34.1 135.6,34.6 			"/>
			<polygon points="134.6,35.2 133.5,34.6 132.5,35.2 133.5,35.7 			"/>
			<polygon points="138.6,33 137.5,32.5 136.5,33 137.6,33.6 			"/>
		</g>
		<polygon class="st17" points="123.4,30.9 127.6,32.9 131.6,30.9 127.5,28.8 		"/>
		<g>
			<polygon points="137.7,24.7 140.2,25.9 142.6,24.7 140.1,23.4 			"/>
			<polygon class="st17" points="135.9,24.7 140.1,26.7 144.1,24.7 140,22.6 			"/>
		</g>
		<g>
			<polygon points="147.9,30 150.4,31.2 152.8,29.9 150.4,28.7 			"/>
			<polygon class="st17" points="146.2,30 150.4,32 154.3,29.9 150.3,27.8 			"/>
		</g>
	</g>
</g>
<polygon class="st18" points="97.4,28 70.2,126 78.7,130.8 88.2,125.8 98.3,28.5 "/>
</svg>
