<?xml version="1.0" encoding="utf-8"?>
<!-- Generator: Adobe Illustrator 25.2.3, SVG Export Plug-In . SVG Version: 6.00 Build 0)  -->
<svg version="1.1" id="Layer_1" xmlns="http://www.w3.org/2000/svg" xmlns:xlink="http://www.w3.org/1999/xlink" x="0px" y="0px"
	 viewBox="0 0 167.8 146.5" style="enable-background:new 0 0 167.8 146.5;" xml:space="preserve">
<style type="text/css">
	.st0{fill:#CCB9B9;stroke:#FFFFFF;stroke-width:0.1976;stroke-miterlimit:10;}
	.st1{fill:#CCB9B9;stroke:#FFFFFF;stroke-width:0.1976;stroke-linejoin:bevel;stroke-miterlimit:10;}
	.st2{fill:#E4DAD8;stroke:#FFFFFF;stroke-width:0.2108;stroke-linejoin:bevel;stroke-miterlimit:10;}
	.st3{fill:none;stroke:#000000;stroke-width:0.2034;stroke-miterlimit:10;}
	.st4{fill:#B59695;stroke:#FFFFFF;stroke-width:0.5;stroke-miterlimit:10;}
	.st5{fill:none;stroke:#FFFFFF;stroke-width:0.194;stroke-linecap:round;stroke-miterlimit:10;}
	.st6{fill:#B59695;stroke:#FFFFFF;stroke-width:0.2116;stroke-miterlimit:10;}
	.st7{fill:none;stroke:#FFFFFF;stroke-width:0.1129;stroke-linecap:round;stroke-miterlimit:10;}
	.st8{fill:#1D1D1B;stroke:#FFFFFF;stroke-width:0.1914;stroke-miterlimit:10;}
	.st9{stroke:url(#SVGID_1_);stroke-width:0.4044;stroke-miterlimit:10;}
	.st10{fill:#666666;}
	.st11{stroke:url(#SVGID_2_);stroke-width:0.4044;stroke-miterlimit:10;}
	.st12{stroke:url(#SVGID_3_);stroke-width:0.4044;stroke-miterlimit:10;}
	.st13{opacity:0.7;fill:#6466AC;}
	.st14{opacity:0.46;fill:#F5F5F5;}
	.st15{fill:#D8422E;}
	.st16{fill:none;stroke:#000000;stroke-width:0.3928;stroke-miterlimit:10;}
	.st17{opacity:0.12;fill:#DD335A;stroke:#FFFFFF;stroke-width:0.3125;stroke-miterlimit:10;}
</style>
<polygon class="st0" points="98.5,124.2 35.8,92.6 2,108.2 2.1,115.1 62.7,145.6 98.5,127.5 "/>
<polygon class="st0" points="62.8,145.6 62.7,138.7 98.3,121.3 98.4,128.1 "/>
<polygon class="st0" points="98.5,124.2 35.8,92.6 0.7,107.4 0.8,114.3 62.8,145.9 98.5,127.5 "/>
<polygon class="st1" points="62.9,145.9 62.8,139.2 98.3,121.3 98.4,128.1 "/>
<path class="st2" d="M36.2,89.8L0.5,107.1L63,139.1l35.3-17.9L36.2,89.8z"/>
<g>
	<polygon points="62.7,125.1 64.1,125.8 65.3,125.1 64,124.5 	"/>
	<polygon points="67.4,128 69.8,129.2 72.1,128 69.7,126.8 	"/>
	<g>
		<polygon points="66.5,125.1 67,125.4 67.5,125.1 67,124.8 		"/>
		<polygon points="65.9,124.8 66.5,125.1 67,124.8 66.5,124.5 		"/>
		<polygon points="69.1,125.4 69.7,125.6 70.2,125.4 69.6,125.1 		"/>
		<polygon points="69.7,125.6 70.2,125.9 70.7,125.6 70.2,125.4 		"/>
		<polygon points="70.2,125.4 70.7,125.6 71.2,125.4 70.7,125.1 		"/>
		<polygon points="70.7,124.5 71.2,124.8 71.8,124.5 71.2,124.3 		"/>
		<polygon points="68.6,125.7 69.1,125.9 69.7,125.6 69.2,125.4 		"/>
		<polygon points="67.5,125.1 68.1,125.4 68.6,125.1 68.1,124.8 		"/>
		<polygon points="67.5,124.6 68.1,124.8 68.6,124.5 68.1,124.3 		"/>
		<polygon points="68.6,124.5 69.1,124.8 69.6,124.5 69.1,124.3 		"/>
		<polygon points="68.6,125.1 69.1,125.4 69.7,125.1 69.1,124.8 		"/>
		<polygon points="67.5,125.7 68.1,125.9 68.6,125.7 68.1,125.4 		"/>
		<polygon points="69.6,124.5 70.2,124.8 70.7,124.5 70.2,124.3 		"/>
		<polygon points="68.5,124 69.1,124.3 69.6,124 69.1,123.7 		"/>
		<polygon points="69.6,124 70.2,124.2 70.7,124 70.2,123.7 		"/>
		<polygon points="66.4,124.6 67,124.8 67.5,124.5 67,124.3 		"/>
	</g>
	<g>
		<polygon points="67.1,123.7 67.6,124 68.1,123.7 67.6,123.4 		"/>
		<polygon points="67.6,124 68.1,124.3 68.7,124 68.1,123.7 		"/>
		<polygon points="68.1,123.7 68.7,124 69.2,123.7 68.6,123.4 		"/>
		<polygon points="68.7,122.9 69.2,123.2 69.7,122.9 69.2,122.6 		"/>
		<polygon points="66.6,124 67.1,124.3 67.6,124 67.1,123.7 		"/>
		<polygon points="65.5,123.5 66,123.7 66.6,123.4 66,123.2 		"/>
		<polygon points="66.5,122.9 67.1,123.2 67.6,122.9 67.1,122.6 		"/>
		<polygon points="66.5,123.4 67.1,123.7 67.6,123.4 67.1,123.2 		"/>
		<polygon points="65.5,124 66,124.3 66.6,124 66,123.7 		"/>
		<polygon points="67.6,122.9 68.2,123.2 68.7,122.9 68.1,122.6 		"/>
		<polygon points="67.6,122.3 68.1,122.6 68.7,122.3 68.1,122 		"/>
	</g>
	<g>
		<polygon points="69.7,123.5 70.2,123.7 70.7,123.5 70.2,123.2 		"/>
		<polygon points="72.3,123.7 72.8,124 73.4,123.8 72.8,123.5 		"/>
		<polygon points="72.8,124 73.4,124.3 73.9,124 73.4,123.7 		"/>
		<polygon points="73.3,123.7 73.9,124 74.4,123.8 73.9,123.5 		"/>
		<polygon points="73.9,122.9 74.4,123.2 74.9,122.9 74.4,122.6 		"/>
		<polygon points="71.8,124 72.3,124.3 72.8,124 72.3,123.8 		"/>
		<polygon points="70.7,123.5 71.3,123.8 71.8,123.5 71.2,123.2 		"/>
		<polygon points="70.7,122.9 71.3,123.2 71.8,122.9 71.2,122.6 		"/>
		<polygon points="71.7,122.9 72.3,123.2 72.8,122.9 72.3,122.6 		"/>
		<polygon points="71.8,123.5 72.3,123.7 72.8,123.5 72.3,123.2 		"/>
		<polygon points="70.7,124 71.3,124.3 71.8,124 71.2,123.8 		"/>
		<polygon points="72.8,122.9 73.4,123.2 73.9,122.9 73.4,122.6 		"/>
		<polygon points="71.7,122.4 72.3,122.6 72.8,122.4 72.3,122.1 		"/>
		<polygon points="72.8,122.4 73.4,122.6 73.9,122.4 73.3,122.1 		"/>
	</g>
	<g>
		<polygon points="74.5,125.9 73.9,125.6 73.4,125.9 73.9,126.2 		"/>
		<polygon points="71.8,125.7 71.3,125.4 70.7,125.6 71.3,125.9 		"/>
		<polygon points="71.3,125.4 70.7,125.1 70.2,125.4 70.7,125.7 		"/>
		<polygon points="70.8,125.7 70.2,125.4 69.7,125.6 70.2,125.9 		"/>
		<polygon points="70.2,126.5 69.7,126.2 69.2,126.5 69.7,126.8 		"/>
		<polygon points="72.3,125.4 71.8,125.1 71.3,125.4 71.8,125.6 		"/>
		<polygon points="73.4,125.9 72.8,125.6 72.3,125.9 72.9,126.2 		"/>
		<polygon points="73.4,126.5 72.8,126.2 72.3,126.5 72.9,126.7 		"/>
		<polygon points="72.4,126.5 71.8,126.2 71.3,126.5 71.8,126.8 		"/>
		<polygon points="72.3,125.9 71.8,125.7 71.3,125.9 71.8,126.2 		"/>
		<polygon points="73.4,125.4 72.8,125.1 72.3,125.4 72.9,125.6 		"/>
		<polygon points="71.3,126.5 70.7,126.2 70.2,126.5 70.7,126.8 		"/>
		<polygon points="72.4,127 71.8,126.8 71.3,127 71.8,127.3 		"/>
		<polygon points="71.3,127 70.7,126.8 70.2,127 70.8,127.3 		"/>
	</g>
	<g>
		<polygon points="75.5,125.9 74.9,125.6 74.4,125.9 75,126.2 		"/>
		<polygon points="72.8,125.7 72.3,125.4 71.8,125.6 72.3,125.9 		"/>
		<polygon points="72.3,125.4 71.8,125.1 71.2,125.4 71.8,125.6 		"/>
		<polygon points="71.8,125.7 71.3,125.4 70.7,125.6 71.3,125.9 		"/>
		<polygon points="71.3,126.5 70.7,126.2 70.2,126.5 70.7,126.8 		"/>
		<polygon points="73.4,125.4 72.9,125.1 72.3,125.4 72.8,125.6 		"/>
		<polygon points="74.5,125.9 73.9,125.6 73.4,125.9 73.9,126.2 		"/>
		<polygon points="74.5,126.5 73.9,126.2 73.4,126.5 73.9,126.7 		"/>
		<polygon points="73.4,126.5 72.9,126.2 72.3,126.5 72.9,126.8 		"/>
		<polygon points="73.4,125.9 72.8,125.7 72.3,125.9 72.9,126.2 		"/>
		<polygon points="74.5,125.3 73.9,125.1 73.4,125.4 73.9,125.6 		"/>
		<polygon points="72.3,126.5 71.8,126.2 71.2,126.5 71.8,126.8 		"/>
		<polygon points="73.4,127 72.9,126.8 72.4,127 72.9,127.3 		"/>
		<polygon points="72.4,127 71.8,126.8 71.3,127 71.8,127.3 		"/>
	</g>
	<g>
		<polygon points="69.7,125.7 69.1,125.4 68.6,125.7 69.2,125.9 		"/>
		<polygon points="70.2,125.9 69.7,125.7 69.2,125.9 69.7,126.2 		"/>
		<polygon points="67,125.4 66.5,125.1 66,125.4 66.5,125.7 		"/>
		<polygon points="65.5,126.2 64.9,125.9 64.4,126.2 64.9,126.5 		"/>
		<polygon points="67.6,125.1 67,124.8 66.5,125.1 67,125.4 		"/>
		<polygon points="68.6,125.6 68.1,125.4 67.6,125.7 68.1,125.9 		"/>
		<polygon points="68.7,126.2 68.1,125.9 67.6,126.2 68.1,126.5 		"/>
		<polygon points="67.6,126.2 67.1,125.9 66.5,126.2 67.1,126.5 		"/>
		<polygon points="67.6,125.7 67,125.4 66.5,125.7 67,126 		"/>
		<polygon points="68.6,125.1 68.1,124.8 67.6,125.1 68.1,125.4 		"/>
		<polygon points="66.5,126.2 66,126 65.4,126.2 66,126.5 		"/>
		<polygon points="67.6,126.8 67.1,126.5 66.5,126.8 67.1,127 		"/>
		<polygon points="69.7,126.7 69.1,126.5 68.6,126.7 69.2,127 		"/>
		<polygon points="68.7,127.3 68.1,127 67.6,127.3 68.1,127.6 		"/>
		<polygon points="66.5,126.8 66,126.5 65.5,126.8 66,127.1 		"/>
		<polygon points="69.7,126.2 69.2,125.9 68.6,126.2 69.2,126.5 		"/>
		<polygon points="68.7,126.7 68.1,126.5 67.6,126.8 68.1,127 		"/>
		<polygon points="67.6,127.3 67.1,127 66.5,127.3 67.1,127.6 		"/>
		<polygon points="69.7,126.2 69.2,125.9 68.6,126.2 69.2,126.5 		"/>
	</g>
	<polygon class="st3" points="61.8,125.1 64,126.2 66.1,125.1 64,124 	"/>
	<g>
		<polygon points="69.2,121.9 70.5,122.5 71.8,121.9 70.5,121.2 		"/>
		<polygon class="st3" points="68.3,121.9 70.5,122.9 72.6,121.9 70.5,120.8 		"/>
	</g>
	<g>
		<polygon points="74.5,124.6 75.8,125.2 77.1,124.6 75.8,123.9 		"/>
		<polygon class="st3" points="73.6,124.6 75.8,125.7 77.8,124.6 75.7,123.5 		"/>
	</g>
</g>
<g>
	<path class="st4" d="M43.1,94.2c-0.3,0.1-0.5,0.3-1.4,0.3c-0.4,0-5.1-2-7.7-1.9s-5,0.8-6,1.3c-1,0.5-1.9,1.3-2.7,2.4
		c-0.8,1.1-4.4,3.7-3.5,7.8c0.8,4.1,2,4.1,2.2,4.5c0.2,0.3-0.4,1.3,0,2.1c0.4,0.8,0.7,0.8,0.7,1.1s-0.5,1.1,0.5,2.3
		c1,1.3,2,1.4,2.2,1.5c0.2,0.1,0.3,1.3,1.1,1.5c0.8,0.2,1,0.4,2.2,0.4c1.2,0,2.1,0,2.3,0c0.3,0.1,2.2,1.1,3.5,1.7
		c1.3,0.7,1.6,1.1,3,1.1s1.7-0.3,2.5-0.1s0.8,0.3,1.6,1.3c0.8,1,2.4,1.5,5.1,1.5c2.7,0,4.7-1,5.9-1.1c1.2-0.1,3,0.2,3.8,0
		c0.8-0.2,2.2-1.4,2.5-3.4c0.3-2.1,0.9-1.7,1.1-2c0.2-0.3,0.8-2.4,0.4-4c-0.4-1.6-1.4-4.4-4.7-8.3c-3.4-3.9-5.1-5-7.5-6.4
		c-2.4-1.4-5.1-1.5-5.3-2c-0.2-0.5-0.8-1.3-1-1.4C43.8,94.1,43.4,94.1,43.1,94.2z"/>
	<path class="st5" d="M43.6,94.6c0,0-0.7,0.8-2.1,0.5c-1.4-0.3-3.5-1.8-3.5-1.8"/>
	<path class="st5" d="M43.7,94.5c0,0-0.6,1-1.4,1.5c-1,0.7-1.3,1-2.8,1.7c-1.5,0.6-5.3,0.7-6.2,1.5c-0.8,0.7-1.8,1.3-0.8,2
		c1,0.6,3.1,1.2,9.1,1.6s9.5,3.3,9.5,3.3s5.8,3.5,5.9,7.7c0.1,4.2,0,6.3-3,8.2"/>
	<path class="st5" d="M43.9,94.6c0,0,0.8,2.3,1.6,3c0.9,0.6,6.6,4.1,6.6,4.1s3.3,2.4,6.1,6.3c2.8,4,3,7.8,3,7.8l-0.2,2.6"/>
	<path class="st5" d="M24,108.4c0,0,0.7,0.8,2.3,1.2"/>
	<path class="st5" d="M36.4,110.9c1.5,0.6,7-1.3,8.8-1.1c1.8,0.2,3,1,3.6,2.1c0.6,1.1,0.1,1.8-0.3,2c-0.4,0.3-0.9,0.6-3.5-0.3
		s-7.7-1.9-7.7-1.9l-2.1-0.3"/>
	<path class="st5" d="M39,110.8c0,0,5.2,1.1,5.9,1.1c0.7,0,0.8-0.6,0.3-0.9c-0.5-0.3-0.8-0.2-2-0.1"/>
	<path class="st5" d="M34,98.9c0,0-6.3,1.9-6.2,3.5c0,1.6,3.9,3.1,7.1,3.3s12.1,0.6,13.8,1.8c1.7,1.2,4.4,3.5,4.9,5.9
		c0.6,2.4,0.7,3.6-0.6,4.9c-1.3,1.2-4.1,0.7-6.4,0.2c-2.3-0.5-5.1-1.7-5.1-1.7"/>
	<path class="st5" d="M39.3,117.1c0,0-6.3-4-9.6-4.4s-2,2.8-2,2.8"/>
	<path class="st5" d="M43.7,94.5c-0.3,0.4-0.7,0.7-1.3,1c-1.3,0.8-3.2,1.4-4,1.6c-1.2,0.2-8-0.2-10.5,0.7c-2.5,0.9-4.6,2.1-4.3,4.8
		s2.3,4.4,3,4.7c0.8,0.3,9.9,2.7,11.6,2.6s5.2-1.7,8.8-0.6s4.2,3.6,4.3,4.3c0.1,0.7,0.4,2.6-2.3,2.5c-2.7-0.2-3.8-0.7-6.3-0.4
		c-2.5,0.4-0.6,1.1-2.5,0.4c-2-0.7-5.1-4.9-5.1-4.9s-4.7-3-6.8-2.3c-2.2,0.6-3.6,2.6-3.6,2.6"/>
	<path class="st5" d="M29.1,93.4c0,0,3.5-0.5,5.3,0.2c1.8,0.7,2.8,1.8,4.5,2s3.3,0.2,4.9-1.1"/>
	<path class="st5" d="M24.8,96.8c0,0,2.9-2.1,6.7-1.5s5.1,1.7,7.9,1.2c2.7-0.5,4.1-1.7,4.1-1.7"/>
	<path class="st5" d="M37.6,101.7c0.9-0.1,2.9-1.7,4-3.2s2.1-3.9,2.1-3.9"/>
	<path class="st5" d="M44.2,95.7c0,0-1,0.5-1,1.8c0,1.2,0.7,1.6,1.2,1.6s1.7-0.9,1.7-0.9"/>
	<path class="st5" d="M37.6,101.7c-1.2,0.1-3.3-0.4-3.9-1"/>
</g>
<g>
	<g>
		<path class="st6" d="M99.6,13.8c-0.2,0.1-0.3,0.2-0.8,0.2c-0.2,0-3-1.2-4.5-1.1c-1.5,0.1-2.9,0.4-3.5,0.7s-1.1,0.7-1.6,1.4
			c-0.5,0.6-2.6,2.2-2.1,4.5s1.2,2.4,1.3,2.6c0.1,0.2-0.2,0.7,0,1.2c0.2,0.5,0.4,0.5,0.4,0.6c0,0.1-0.3,0.6,0.3,1.4
			c0.6,0.7,1.2,0.8,1.3,0.9s0.2,0.8,0.7,0.9c0.5,0.1,0.6,0.2,1.3,0.2c0.7,0,1.2,0,1.4,0c0.2,0,1.3,0.6,2,1c0.7,0.4,1,0.6,1.7,0.6
			s1-0.2,1.5,0c0.5,0.1,0.5,0.2,0.9,0.7c0.5,0.6,1.4,0.9,3,0.9c1.6,0,2.7-0.6,3.4-0.6c0.7-0.1,1.8,0.1,2.2,0s1.3-0.8,1.4-2
			c0.2-1.2,0.5-1,0.6-1.2c0.1-0.2,0.5-1.4,0.2-2.3s-0.8-2.6-2.8-4.8s-3-2.9-4.4-3.7c-1.4-0.8-2.9-0.9-3.1-1.2
			c-0.1-0.3-0.5-0.7-0.6-0.8C100,13.7,99.8,13.7,99.6,13.8z"/>
		<path class="st7" d="M99.9,13.8c0,0-0.4,0.6-1.2,0.4s-2-1-2-1"/>
		<path class="st7" d="M100,14c0,0-0.3,0.5-0.8,0.9c-0.6,0.4-0.7,0.6-1.6,1c-0.9,0.4-3.1,0.4-3.6,0.9c-0.5,0.4-1,0.8-0.5,1.1
			c0.6,0.4,1.8,0.7,5.3,0.9c3.4,0.3,5.6,1.9,5.6,1.9s3.2,2.3,3.2,4.5s0.3,3.6-1.4,4.7"/>
		<path class="st7" d="M100,14c0,0,0.4,1.4,0.9,1.7c0.5,0.4,3.8,2.4,3.8,2.4s1.9,1.4,3.6,3.7c1.6,2.3,1.7,4.6,1.7,4.6l-0.1,1.5"/>
		<path class="st7" d="M88.5,22c0,0,0.4,0.5,1.3,0.7"/>
		<path class="st7" d="M96.5,23.3l4.3-0.5c0,0,1.9,0.3,2.1,1.2c0.2,0.9,0,1.1,0,1.1s-0.8,0.4-2.3-0.1c-1.5-0.5-4.5-1.1-4.5-1.1
			L95,23.7"/>
		<path class="st7" d="M97.2,23.4c0,0,2.9,0.6,3.3,0.6c0.4,0,0.6-0.4,0.3-0.5c-0.4-0.1-0.4-0.1-1.1-0.1"/>
		<path class="st7" d="M94,16.6c0,0-3.4,1-3.3,1.9c0,0.9,2.3,1.8,4.2,1.9s7.1,0.4,8,1.1s2.5,2,2.9,3.4c0.3,1.4,0.4,2.1-0.4,2.8
			s-2.4,0.4-3.7,0.1c-1.4-0.3-2.9-1-2.9-1"/>
		<path class="st7" d="M97.4,27.1c0,0-3.7-2.3-5.6-2.6s-1.2,1.6-1.2,1.6"/>
		<path class="st7" d="M99.9,13.9c-0.2,0.2-0.4,0.4-0.7,0.6c-0.8,0.5-1.8,0.8-2.3,0.9c-0.7,0.1-4.7-0.1-6.1,0.4
			c-1.4,0.5-2.7,1.2-2.5,2.8c0.2,1.6,1.8,2.8,1.8,2.8l6.7,1.5c0,0,3-1,5.1-0.3c2.1,0.6,2.5,2.5,2.5,2.5s0.3,1.5-1.3,1.4
			c-1.6-0.1-2.2-0.4-3.7-0.2c-1.5,0.2-0.3,0.6-1.5,0.2s-3-2.9-3-2.9s-2.7-1.7-4-1.4c-1.3,0.4-2.1,1.5-2.1,1.5"/>
		<path class="st7" d="M91.4,13.3c0,0,2-0.3,3.1,0.1c1,0.4,1.7,1.1,2.6,1.2c1,0.1,1.9,0.1,2.8-0.6"/>
		<path class="st7" d="M88.9,15.3c0,0,1.7-1.2,3.9-0.9c2.2,0.3,3,1,4.6,0.7s2.4-1,2.4-1"/>
		<path class="st7" d="M96.4,18.1c0,0,1.5-1.6,1.9-2.3c0.5-0.7,1.5-1.7,1.5-1.7"/>
		<path class="st7" d="M100.2,14.6c0,0-0.6,0.3-0.6,1c0,0.7,0.4,1,0.7,0.9c0.3,0,1-0.5,1-0.5"/>
		<path class="st7" d="M96.4,18.1c0,0-1.9-0.2-2.2-0.6"/>
	</g>
	<path class="st8" d="M166.9,32.9c-0.3-0.8-0.8-1-1.3-1.3L105.9,1.9c-1-0.5-2.2-0.5-3.2,0L75.7,16c-0.6,0.3-1,1-1,1.7
		c0,0.2,0,1.1,0,1.3c0,0.8,0.5,2.2,1.2,2.5s54.7,28.1,57,29.3s4.6-0.1,5.2-0.4l28-14c0.7-0.4,1.2-1.1,1.2-1.9
		C167.2,33.9,167.2,33.7,166.9,32.9z M162.9,33.3c0.5,0.3,0.5,1,0,1.3c-4.9,2.5-22.4,11.2-24.5,12.2c-2.4,1.2-4.8,0-4.8,0L77.4,18.4
		l26.5-13.8c0.3-0.1,0.5-0.2,0.8-0.2c0.3,0,0.5,0.1,0.8,0.2L162.9,33.3z"/>
	<g>
		<linearGradient id="SVGID_1_" gradientUnits="userSpaceOnUse" x1="82.1585" y1="23.7742" x2="86.1308" y2="23.7742">
			<stop  offset="0" style="stop-color:#FFFFFF"/>
			<stop  offset="1" style="stop-color:#000000"/>
		</linearGradient>
		<line class="st9" x1="82.3" y1="22.8" x2="86" y2="24.7"/>
		<path class="st10" d="M86,25.4c-0.1,0-0.2,0-0.3-0.1L82,23.3c-0.3-0.2-0.4-0.5-0.3-0.8c0.2-0.3,0.5-0.4,0.8-0.3l3.8,1.9
			c0.3,0.2,0.4,0.5,0.3,0.8C86.5,25.2,86.3,25.4,86,25.4z"/>
	</g>
	<g>
		<linearGradient id="SVGID_2_" gradientUnits="userSpaceOnUse" x1="77.9233" y1="21.217" x2="80.2355" y2="21.217">
			<stop  offset="0" style="stop-color:#FFFFFF"/>
			<stop  offset="1" style="stop-color:#000000"/>
		</linearGradient>
		<line class="st11" x1="78" y1="20.7" x2="80.1" y2="21.8"/>
		<path class="st10" d="M80.1,22.4c-0.1,0-0.2,0-0.3-0.1l-2.1-1.1c-0.3-0.2-0.4-0.5-0.3-0.8c0.2-0.3,0.5-0.4,0.8-0.3l2.1,1.1
			c0.3,0.2,0.4,0.5,0.3,0.8C80.6,22.2,80.4,22.4,80.1,22.4z"/>
	</g>
	<g>
		<linearGradient id="SVGID_3_" gradientUnits="userSpaceOnUse" x1="87.8722" y1="26.8307" x2="91.9776" y2="26.8307">
			<stop  offset="0" style="stop-color:#FFFFFF"/>
			<stop  offset="1" style="stop-color:#000000"/>
		</linearGradient>
		<line class="st12" x1="88" y1="25.8" x2="91.9" y2="27.8"/>
		<path class="st10" d="M91.9,28.4c-0.1,0-0.2,0-0.3-0.1l-3.9-2c-0.3-0.2-0.4-0.5-0.3-0.8c0.2-0.3,0.5-0.4,0.8-0.3l3.9,2
			c0.3,0.2,0.4,0.5,0.3,0.8C92.3,28.3,92.1,28.4,91.9,28.4z"/>
	</g>
	<path class="st13" d="M78,19c0,0,52.2,26.5,54.6,27.6c2.4,1.1,4.3,0.9,5.7,0.3s24.3-11.9,25.3-12.5c1-0.6,0.5-1.5-0.5-2
		c-1-0.5-56.9-28.4-56.9-28.4s-1.9-0.8-2.6-0.5C98.7,6.1,78,16.6,77,17.1C75.9,17.7,78,19,78,19z"/>
	<g>
		<path d="M86.1,13l2.2,1.1c0.4,0.2,0.8,0.2,1.1,0L99,9.4c0.4-0.2,0.4-0.8,0-1l-2.5-1.3c0,0-0.1,0-0.1,0l-10.8,5.3
			C85.5,12.5,84.8,12.4,86.1,13z"/>
		<ellipse class="st10" cx="96.6" cy="8.9" rx="0.9" ry="0.4"/>
	</g>
	<path class="st14" d="M94.4,23.9l4.8,2.6c0.7,0.4,1.4,0.4,2.1,0l20.9-10.6c0.6-0.3,0.6-1.2,0-1.5l-5.2-2.8c-0.6-0.3-1.3-0.3-1.9,0
		L94.5,22.1C93.8,22.5,93.7,23.5,94.4,23.9z"/>
	<g>
		<path class="st15" d="M99.4,22.6c-0.1-0.1-0.3-0.2-0.5-0.2c-0.2,0-0.5,0.1-0.7,0.2c-0.2,0.1-0.3,0.2-0.4,0.3
			c-0.1,0.1-0.1,0.2-0.2,0.3c0,0.1,0,0.2,0.1,0.3c0.1,0.1,0.1,0.1,0.2,0.2c0.1,0,0.2,0,0.3,0c0.1,0,0.2,0,0.3,0c0.1,0,0.2,0,0.3-0.1
			l0.5-0.1c0.1,0,0.3-0.1,0.4-0.1c0.2,0,0.3,0,0.5,0c0.2,0,0.3,0,0.5,0.1c0.2,0.1,0.3,0.2,0.4,0.3c0.1,0.2,0.2,0.3,0.2,0.5
			c0,0.2-0.1,0.4-0.2,0.6c-0.1,0.2-0.4,0.4-0.7,0.5c-0.3,0.1-0.5,0.2-0.8,0.3c-0.3,0-0.5,0-0.7,0c-0.2-0.1-0.4-0.2-0.5-0.3l0.5-0.3
			c0.1,0.1,0.2,0.2,0.4,0.2c0.1,0,0.3,0,0.5,0c0.2,0,0.3-0.1,0.5-0.2c0.2-0.1,0.3-0.2,0.4-0.3c0.1-0.1,0.2-0.2,0.2-0.4
			c0-0.1,0-0.2-0.1-0.4c-0.1-0.1-0.2-0.2-0.3-0.2c-0.1,0-0.3,0-0.4,0c-0.1,0-0.3,0.1-0.5,0.1l-0.6,0.1c-0.4,0.1-0.7,0.1-0.9,0.1
			c-0.3,0-0.5-0.2-0.7-0.4c-0.1-0.2-0.2-0.4-0.2-0.5c0-0.2,0.1-0.4,0.2-0.6c0.1-0.2,0.3-0.3,0.6-0.5c0.2-0.1,0.5-0.2,0.7-0.2
			c0.2,0,0.5,0,0.7,0c0.2,0.1,0.4,0.2,0.5,0.3L99.4,22.6z"/>
		<path class="st15" d="M103.6,23.7c-0.3,0.1-0.5,0.2-0.8,0.2c-0.3,0-0.5-0.1-0.8-0.2c-0.2-0.1-0.5-0.3-0.6-0.5
			c-0.2-0.2-0.3-0.5-0.3-0.7c0-0.2,0-0.5,0.1-0.7c0.1-0.2,0.3-0.4,0.6-0.5c0.2-0.1,0.4-0.2,0.6-0.2c0.2,0,0.4,0,0.6,0
			c0.2,0.1,0.4,0.1,0.5,0.3l-0.4,0.2c-0.1-0.1-0.3-0.1-0.4-0.2c-0.2,0-0.4,0-0.6,0.1c-0.2,0.1-0.3,0.2-0.4,0.3
			c-0.1,0.1-0.1,0.3-0.1,0.5c0,0.2,0.1,0.3,0.2,0.5c0.1,0.2,0.3,0.3,0.5,0.4c0.2,0.1,0.4,0.1,0.5,0.1c0.2,0,0.4,0,0.5-0.1
			c0.1-0.1,0.2-0.1,0.3-0.2c0.1-0.1,0.1-0.2,0.1-0.3c0-0.1,0-0.2,0-0.3l0.4-0.2c0.1,0.1,0.1,0.3,0.1,0.5c0,0.2-0.1,0.3-0.2,0.5
			C104,23.4,103.8,23.6,103.6,23.7z"/>
		<path class="st15" d="M106.3,22.3c-0.2,0.1-0.4,0.2-0.6,0.2c-0.2,0-0.4,0-0.5-0.1c-0.2-0.1-0.3-0.2-0.4-0.3
			c-0.1-0.1-0.2-0.3-0.2-0.4c0-0.1,0-0.2,0.1-0.3c0.1-0.1,0.2-0.2,0.3-0.3c0.1-0.1,0.2-0.2,0.4-0.3c0.2-0.1,0.3-0.2,0.4-0.3
			c0.1-0.1,0.2-0.1,0.2-0.2c0-0.1,0-0.1,0-0.2l0,0c-0.1-0.1-0.3-0.2-0.4-0.3c-0.2,0-0.3,0-0.6,0.1c-0.2,0.1-0.3,0.2-0.4,0.4
			c-0.1,0.1-0.1,0.3-0.1,0.4l-0.5,0.1c0-0.2,0-0.3,0-0.5c0.1-0.1,0.2-0.3,0.3-0.4s0.3-0.2,0.4-0.3c0.1,0,0.2-0.1,0.3-0.1
			c0.1,0,0.3-0.1,0.4-0.1c0.2,0,0.3,0,0.5,0.1c0.2,0.1,0.3,0.2,0.5,0.4l1.2,1.5l-0.4,0.2l-0.2-0.3l0,0c0,0.1,0,0.1,0,0.2
			c0,0.1-0.1,0.2-0.2,0.3C106.6,22.1,106.4,22.2,106.3,22.3z M106.1,21.9c0.2-0.1,0.3-0.2,0.4-0.3c0.1-0.1,0.1-0.2,0.1-0.4
			c0-0.1,0-0.2-0.1-0.3l-0.3-0.3c0,0,0,0.1-0.1,0.1c-0.1,0-0.1,0.1-0.2,0.2c-0.1,0.1-0.1,0.1-0.2,0.2c-0.1,0-0.1,0.1-0.2,0.1
			c-0.1,0.1-0.2,0.2-0.3,0.2c-0.1,0.1-0.1,0.2-0.1,0.2c0,0.1,0,0.2,0.1,0.3c0.1,0.1,0.2,0.2,0.4,0.2C105.7,22.1,105.9,22,106.1,21.9
			z"/>
		<path class="st15" d="M107.7,19.5l1.1,1.4l-0.4,0.2l-1.8-2.3l0.4-0.2l0.3,0.4l0,0c0-0.2,0-0.3,0.1-0.4c0.1-0.1,0.2-0.3,0.4-0.4
			c0.2-0.1,0.4-0.2,0.6-0.2c0.2,0,0.4,0,0.6,0.1c0.2,0.1,0.3,0.2,0.5,0.4l1.1,1.5l-0.4,0.2l-1.1-1.4c-0.1-0.2-0.3-0.3-0.5-0.3
			c-0.2,0-0.4,0-0.6,0.1c-0.1,0.1-0.2,0.2-0.3,0.3c-0.1,0.1-0.1,0.2-0.1,0.4S107.6,19.3,107.7,19.5z"/>
		<path class="st15" d="M115,15.3c0.3,0.3,0.4,0.6,0.4,1c0,0.3,0,0.6-0.2,0.9c-0.2,0.3-0.4,0.5-0.7,0.7c-0.3,0.2-0.7,0.3-1,0.3
			c-0.4,0-0.7-0.1-1-0.2s-0.6-0.4-0.9-0.7c-0.3-0.3-0.4-0.6-0.4-1c0-0.3,0-0.6,0.2-0.9c0.2-0.3,0.4-0.5,0.7-0.7
			c0.3-0.2,0.7-0.3,1-0.3c0.4,0,0.7,0.1,1,0.2S114.8,15,115,15.3z M114.6,15.6c-0.2-0.3-0.4-0.5-0.7-0.6c-0.3-0.1-0.5-0.2-0.8-0.2
			c-0.3,0-0.5,0.1-0.7,0.2c-0.2,0.1-0.4,0.3-0.5,0.5c-0.1,0.2-0.2,0.4-0.1,0.7c0,0.2,0.2,0.5,0.4,0.8c0.2,0.3,0.4,0.5,0.7,0.6
			c0.3,0.1,0.5,0.2,0.8,0.2c0.3,0,0.5-0.1,0.7-0.2c0.2-0.1,0.4-0.3,0.5-0.5c0.1-0.2,0.2-0.4,0.1-0.7
			C114.9,16.1,114.8,15.8,114.6,15.6z M113.6,16.9l0.5-0.3l0.8,0.2l0.2,0.1l1.2,0.3l-0.5,0.3l-0.8-0.2l-0.2-0.1L113.6,16.9z"/>
		<path class="st15" d="M117,16.4l-2.4-3.1l1.3-0.7c0.3-0.2,0.6-0.3,0.8-0.3c0.3,0,0.5,0,0.7,0.1c0.2,0.1,0.4,0.2,0.5,0.4
			c0.1,0.2,0.2,0.4,0.2,0.6c0,0.2,0,0.4-0.2,0.6c-0.1,0.2-0.3,0.4-0.6,0.5l-1,0.6l-0.3-0.3l1-0.6c0.2-0.1,0.4-0.2,0.4-0.3
			c0.1-0.1,0.1-0.2,0.1-0.4c0-0.1-0.1-0.2-0.2-0.4c-0.1-0.1-0.2-0.2-0.3-0.3c-0.1-0.1-0.3-0.1-0.4-0.1c-0.2,0-0.4,0.1-0.6,0.2
			l-0.8,0.4l2.1,2.7L117,16.4z M117.7,14.1l2,0.9l-0.5,0.3l-2-0.9L117.7,14.1z"/>
	</g>
	<polygon class="st14" points="111,30.9 129.7,40.7 150.5,30.2 131.8,20.5 	"/>
	<g>
		<polygon points="116.4,30.9 119,32.1 121.4,30.9 118.9,29.6 		"/>
		<polygon points="125.4,36.5 130,38.7 134.5,36.4 129.9,34.1 		"/>
		<g>
			<polygon points="123.6,30.9 124.7,31.4 125.7,30.9 124.7,30.3 			"/>
			<polygon points="122.6,30.4 123.6,30.9 124.7,30.3 123.6,29.8 			"/>
			<polygon points="128.8,31.4 129.8,31.9 130.8,31.4 129.8,30.9 			"/>
			<polygon points="129.8,31.9 130.8,32.5 131.8,31.9 130.8,31.4 			"/>
			<polygon points="130.8,31.4 131.8,31.9 132.8,31.4 131.8,30.9 			"/>
			<polygon points="131.8,29.8 132.8,30.3 133.9,29.8 132.8,29.3 			"/>
			<polygon points="127.8,31.9 128.8,32.5 129.8,31.9 128.8,31.4 			"/>
			<polygon points="125.7,30.9 126.7,31.4 127.8,30.9 126.7,30.3 			"/>
			<polygon points="125.6,29.8 126.7,30.3 127.7,29.8 126.7,29.3 			"/>
			<polygon points="127.7,29.8 128.7,30.3 129.8,29.8 128.7,29.3 			"/>
			<polygon points="127.7,30.9 128.8,31.4 129.8,30.9 128.7,30.3 			"/>
			<polygon points="125.7,32 126.7,32.5 127.8,31.9 126.7,31.4 			"/>
			<polygon points="129.8,29.8 130.8,30.3 131.9,29.8 130.8,29.2 			"/>
			<polygon points="127.6,28.8 128.7,29.3 129.7,28.7 128.7,28.2 			"/>
			<polygon points="129.7,28.7 130.8,29.2 131.8,28.7 130.8,28.2 			"/>
			<polygon points="123.6,29.8 124.7,30.3 125.7,29.8 124.6,29.3 			"/>
		</g>
		<g>
			<polygon points="124.8,28.2 125.9,28.7 126.9,28.2 125.8,27.7 			"/>
			<polygon points="125.8,28.7 126.9,29.3 127.9,28.8 126.9,28.2 			"/>
			<polygon points="126.8,28.2 127.9,28.7 128.9,28.2 127.8,27.7 			"/>
			<polygon points="127.9,26.6 128.9,27.1 129.9,26.6 128.9,26.1 			"/>
			<polygon points="123.8,28.8 124.8,29.3 125.9,28.7 124.9,28.2 			"/>
			<polygon points="121.7,27.7 122.8,28.2 123.8,27.7 122.8,27.2 			"/>
			<polygon points="123.7,26.6 124.8,27.1 125.8,26.6 124.8,26.1 			"/>
			<polygon points="123.7,27.7 124.8,28.2 125.8,27.7 124.8,27.1 			"/>
			<polygon points="121.7,28.8 122.8,29.3 123.8,28.8 122.8,28.2 			"/>
			<polygon points="125.8,26.6 126.9,27.1 127.9,26.6 126.9,26.1 			"/>
			<polygon points="125.8,25.5 126.8,26 127.9,25.5 126.8,25 			"/>
		</g>
		<g>
			<polygon points="129.8,27.8 130.9,28.3 131.9,27.7 130.8,27.2 			"/>
			<polygon points="134.9,28.3 136,28.8 137,28.3 135.9,27.7 			"/>
			<polygon points="135.9,28.8 137,29.3 138,28.8 137,28.3 			"/>
			<polygon points="136.9,28.3 138,28.8 139,28.3 137.9,27.7 			"/>
			<polygon points="138,26.6 139,27.2 140,26.7 139,26.1 			"/>
			<polygon points="133.9,28.8 134.9,29.3 136,28.8 135,28.3 			"/>
			<polygon points="131.8,27.8 132.9,28.3 133.9,27.8 132.9,27.2 			"/>
			<polygon points="131.8,26.7 132.9,27.2 133.9,26.7 132.8,26.1 			"/>
			<polygon points="133.8,26.7 134.9,27.2 135.9,26.7 134.9,26.1 			"/>
			<polygon points="133.8,27.7 134.9,28.3 135.9,27.7 134.9,27.2 			"/>
			<polygon points="131.8,28.8 132.9,29.3 133.9,28.8 132.9,28.3 			"/>
			<polygon points="135.9,26.7 137,27.2 138,26.7 137,26.1 			"/>
			<polygon points="133.8,25.6 134.9,26.1 135.9,25.6 134.8,25.1 			"/>
			<polygon points="135.9,25.6 137,26.1 138,25.6 136.9,25 			"/>
		</g>
		<g>
			<polygon points="139.1,32.4 138,31.9 137,32.5 138,33 			"/>
			<polygon points="133.9,32 132.9,31.4 131.9,31.9 132.9,32.5 			"/>
			<polygon points="132.9,31.4 131.9,30.9 130.8,31.4 131.9,31.9 			"/>
			<polygon points="131.9,32 130.9,31.4 129.9,31.9 130.9,32.5 			"/>
			<polygon points="130.9,33.6 129.8,33 128.8,33.5 129.9,34.1 			"/>
			<polygon points="134.9,31.4 133.9,30.9 132.9,31.4 133.9,31.9 			"/>
			<polygon points="137,32.4 135.9,31.9 134.9,32.5 136,33 			"/>
			<polygon points="137,33.5 136,33 134.9,33.5 136,34.1 			"/>
			<polygon points="135,33.5 133.9,33 132.9,33.5 134,34.1 			"/>
			<polygon points="135,32.5 133.9,32 132.9,32.5 133.9,33 			"/>
			<polygon points="137,31.4 135.9,30.9 134.9,31.4 136,31.9 			"/>
			<polygon points="132.9,33.5 131.8,33 130.8,33.6 131.9,34.1 			"/>
			<polygon points="135.1,34.6 134,34.1 133,34.6 134,35.1 			"/>
			<polygon points="133,34.6 131.9,34.1 130.9,34.6 131.9,35.2 			"/>
		</g>
		<g>
			<polygon points="141.1,32.4 140,31.9 139,32.5 140,33 			"/>
			<polygon points="136,32 134.9,31.4 133.9,31.9 134.9,32.5 			"/>
			<polygon points="134.9,31.4 133.9,30.9 132.9,31.4 133.9,31.9 			"/>
			<polygon points="134,32 132.9,31.4 131.9,31.9 132.9,32.5 			"/>
			<polygon points="132.9,33.6 131.9,33 130.9,33.5 131.9,34.1 			"/>
			<polygon points="137,31.4 136,30.9 134.9,31.4 135.9,31.9 			"/>
			<polygon points="139.1,32.4 138,31.9 137,32.5 138,33 			"/>
			<polygon points="139.1,33.5 138,33 137,33.5 138,34.1 			"/>
			<polygon points="137.1,33.5 136,33 135,33.5 136,34.1 			"/>
			<polygon points="137,32.5 135.9,32 134.9,32.5 136,33 			"/>
			<polygon points="139.1,31.4 138,30.9 137,31.4 138,31.9 			"/>
			<polygon points="135,33.5 133.9,33 132.9,33.6 133.9,34.1 			"/>
			<polygon points="137.1,34.6 136,34.1 135,34.6 136,35.1 			"/>
			<polygon points="135,34.6 133.9,34.1 132.9,34.6 134,35.2 			"/>
		</g>
		<g>
			<polygon points="129.9,32 128.8,31.4 127.8,32 128.8,32.5 			"/>
			<polygon points="130.9,32.5 129.9,32 128.8,32.5 129.9,33 			"/>
			<polygon points="124.7,31.5 123.7,30.9 122.7,31.4 123.7,32 			"/>
			<polygon points="121.7,33.1 120.7,32.5 119.7,33.1 120.7,33.6 			"/>
			<polygon points="125.7,30.9 124.8,30.4 123.7,30.9 124.7,31.4 			"/>
			<polygon points="127.8,31.9 126.8,31.4 125.7,32 126.8,32.5 			"/>
			<polygon points="127.9,33 126.8,32.5 125.8,33 126.8,33.6 			"/>
			<polygon points="125.8,33 124.8,32.5 123.8,33 124.8,33.6 			"/>
			<polygon points="125.8,32 124.7,31.5 123.7,32 124.8,32.5 			"/>
			<polygon points="127.8,30.9 126.8,30.4 125.7,30.9 126.8,31.4 			"/>
			<polygon points="123.7,33 122.7,32.5 121.7,33.1 122.7,33.6 			"/>
			<polygon points="125.9,34.1 124.8,33.6 123.8,34.1 124.8,34.6 			"/>
			<polygon points="129.9,34 128.8,33.5 127.8,34.1 128.8,34.6 			"/>
			<polygon points="127.9,35.1 126.8,34.6 125.8,35.1 126.8,35.7 			"/>
			<polygon points="123.8,34.1 122.7,33.6 121.7,34.1 122.7,34.7 			"/>
			<polygon points="129.9,33 128.8,32.5 127.8,33 128.9,33.5 			"/>
			<polygon points="127.9,34.1 126.8,33.6 125.8,34.1 126.9,34.6 			"/>
			<polygon points="125.9,35.2 124.8,34.6 123.8,35.2 124.8,35.7 			"/>
			<polygon points="129.9,33 128.8,32.5 127.8,33 128.9,33.6 			"/>
		</g>
		<polygon class="st16" points="114.7,30.9 118.9,32.9 122.9,30.9 118.8,28.8 		"/>
		<g>
			<polygon points="129,24.7 131.5,25.9 133.9,24.7 131.4,23.4 			"/>
			<polygon class="st16" points="127.2,24.7 131.4,26.7 135.4,24.7 131.3,22.6 			"/>
		</g>
		<g>
			<polygon points="139.2,30 141.7,31.2 144.1,29.9 141.7,28.7 			"/>
			<polygon class="st16" points="137.5,30 141.7,32 145.6,29.9 141.6,27.8 			"/>
		</g>
	</g>
</g>
<polygon class="st17" points="88.7,28 61.5,126 70,130.8 79.5,125.8 89.6,28.5 "/>
</svg>
