<?xml version="1.0" encoding="utf-8"?>
<!-- Generator: Adobe Illustrator 25.2.3, SVG Export Plug-In . SVG Version: 6.00 Build 0)  -->
<svg version="1.1" id="Layer_1" xmlns="http://www.w3.org/2000/svg" xmlns:xlink="http://www.w3.org/1999/xlink" x="0px" y="0px"
	 viewBox="0 0 161.3 139.1" style="enable-background:new 0 0 161.3 139.1;" xml:space="preserve">
<style type="text/css">
	.st0{fill:#CCB9B9;stroke:#FFFFFF;stroke-width:0.1643;stroke-miterlimit:10;}
	.st1{fill:#CCB9B9;stroke:#FFFFFF;stroke-width:0.1643;stroke-linejoin:bevel;stroke-miterlimit:10;}
	.st2{fill:#E4DAD8;stroke:#FFFFFF;stroke-width:0.1752;stroke-linejoin:bevel;stroke-miterlimit:10;}
	.st3{fill:none;stroke:#000000;stroke-width:0.169;stroke-miterlimit:10;}
	.st4{fill:#CCB9B9;stroke:#FFFFFF;stroke-width:0.5;stroke-miterlimit:10;}
	.st5{fill:none;stroke:#FFFFFF;stroke-width:0.1613;stroke-linecap:round;stroke-miterlimit:10;}
	.st6{fill:#DD335A;stroke:#FFFFFF;stroke-width:0.1129;stroke-linecap:round;stroke-miterlimit:10;}
	.st7{fill:none;stroke:#FFFFFF;stroke-width:0.1129;stroke-linecap:round;stroke-miterlimit:10;}
	.st8{fill:#1D1D1B;stroke:#FFFFFF;stroke-width:0.1914;stroke-miterlimit:10;}
	.st9{stroke:url(#SVGID_1_);stroke-width:0.4044;stroke-miterlimit:10;}
	.st10{fill:#666666;}
	.st11{stroke:url(#SVGID_2_);stroke-width:0.4044;stroke-miterlimit:10;}
	.st12{stroke:url(#SVGID_3_);stroke-width:0.4044;stroke-miterlimit:10;}
	.st13{opacity:0.7;fill:#6466AC;}
	.st14{opacity:0.46;fill:#F5F5F5;}
	.st15{fill:#D8422E;}
	.st16{fill:none;stroke:#000000;stroke-width:0.3928;stroke-miterlimit:10;}
	.st17{opacity:0.12;fill:#DD335A;stroke:#FFFFFF;stroke-width:0.2597;stroke-miterlimit:10;}
</style>
<polygon class="st0" points="81.8,121 29.7,94.7 1.7,107.7 1.7,113.4 52.1,138.8 81.8,123.8 "/>
<polygon class="st0" points="52.2,138.8 52.1,133 81.7,118.6 81.7,124.2 "/>
<polygon class="st0" points="81.8,121 29.7,94.7 0.5,107 0.7,112.8 52.2,139 81.8,123.8 "/>
<polygon class="st1" points="52.2,139 52.2,133.4 81.7,118.6 81.7,124.2 "/>
<path class="st2" d="M30,92.4L0.3,106.8l52,26.5l29.4-14.8L30,92.4z"/>
<g>
	<polygon points="52.1,121.8 53.2,122.3 54.2,121.7 53.2,121.2 	"/>
	<polygon points="56,124.2 58,125.1 59.9,124.1 57.9,123.1 	"/>
	<g>
		<polygon points="55.2,121.7 55.7,122 56.1,121.7 55.7,121.5 		"/>
		<polygon points="54.8,121.5 55.2,121.7 55.7,121.5 55.2,121.3 		"/>
		<polygon points="57.4,121.9 57.9,122.2 58.3,122 57.9,121.7 		"/>
		<polygon points="57.9,122.2 58.3,122.4 58.7,122.2 58.3,122 		"/>
		<polygon points="58.3,121.9 58.7,122.2 59.2,122 58.7,121.7 		"/>
		<polygon points="58.7,121.3 59.2,121.5 59.6,121.3 59.2,121 		"/>
		<polygon points="57,122.2 57.4,122.4 57.9,122.2 57.4,122 		"/>
		<polygon points="56.1,121.7 56.6,122 57,121.7 56.5,121.5 		"/>
		<polygon points="56.1,121.3 56.5,121.5 57,121.3 56.5,121 		"/>
		<polygon points="56.9,121.3 57.4,121.5 57.9,121.3 57.4,121 		"/>
		<polygon points="57,121.7 57.4,121.9 57.9,121.7 57.4,121.5 		"/>
		<polygon points="56.1,122.2 56.6,122.4 57,122.2 56.5,122 		"/>
		<polygon points="57.9,121.3 58.3,121.5 58.8,121.3 58.3,121 		"/>
		<polygon points="56.9,120.8 57.4,121 57.8,120.8 57.4,120.6 		"/>
		<polygon points="57.8,120.8 58.3,121 58.7,120.8 58.3,120.6 		"/>
		<polygon points="55.2,121.3 55.7,121.5 56.1,121.3 55.7,121 		"/>
	</g>
	<g>
		<polygon points="55.7,120.6 56.2,120.8 56.6,120.6 56.2,120.3 		"/>
		<polygon points="56.2,120.8 56.6,121 57.1,120.8 56.6,120.6 		"/>
		<polygon points="56.6,120.6 57,120.8 57.5,120.6 57,120.4 		"/>
		<polygon points="57,119.9 57.5,120.1 57.9,119.9 57.5,119.7 		"/>
		<polygon points="55.3,120.8 55.7,121 56.2,120.8 55.7,120.6 		"/>
		<polygon points="54.4,120.4 54.9,120.6 55.3,120.4 54.8,120.1 		"/>
		<polygon points="55.2,119.9 55.7,120.1 56.2,119.9 55.7,119.7 		"/>
		<polygon points="55.3,120.4 55.7,120.6 56.2,120.3 55.7,120.1 		"/>
		<polygon points="54.4,120.8 54.9,121 55.3,120.8 54.8,120.6 		"/>
		<polygon points="56.2,119.9 56.6,120.1 57.1,119.9 56.6,119.7 		"/>
		<polygon points="56.1,119.4 56.6,119.6 57,119.4 56.6,119.2 		"/>
	</g>
	<g>
		<polygon points="57.9,120.4 58.3,120.6 58.8,120.4 58.3,120.1 		"/>
		<polygon points="60.1,120.6 60.5,120.8 61,120.6 60.5,120.4 		"/>
		<polygon points="60.5,120.8 61,121.1 61.4,120.8 61,120.6 		"/>
		<polygon points="60.9,120.6 61.4,120.8 61.8,120.6 61.4,120.4 		"/>
		<polygon points="61.4,119.9 61.8,120.1 62.3,119.9 61.8,119.7 		"/>
		<polygon points="59.6,120.8 60.1,121.1 60.5,120.8 60.1,120.6 		"/>
		<polygon points="58.7,120.4 59.2,120.6 59.6,120.4 59.2,120.2 		"/>
		<polygon points="58.7,119.9 59.2,120.2 59.6,119.9 59.2,119.7 		"/>
		<polygon points="59.6,119.9 60.1,120.1 60.5,119.9 60.1,119.7 		"/>
		<polygon points="59.6,120.4 60.1,120.6 60.5,120.4 60.1,120.1 		"/>
		<polygon points="58.7,120.9 59.2,121.1 59.6,120.8 59.2,120.6 		"/>
		<polygon points="60.5,119.9 61,120.1 61.4,119.9 61,119.7 		"/>
		<polygon points="59.6,119.5 60,119.7 60.5,119.5 60,119.2 		"/>
		<polygon points="60.5,119.5 60.9,119.7 61.4,119.4 60.9,119.2 		"/>
	</g>
	<g>
		<polygon points="61.9,122.4 61.4,122.2 61,122.4 61.4,122.6 		"/>
		<polygon points="59.6,122.2 59.2,122 58.8,122.2 59.2,122.4 		"/>
		<polygon points="59.2,122 58.8,121.7 58.3,122 58.8,122.2 		"/>
		<polygon points="58.8,122.2 58.3,122 57.9,122.2 58.3,122.4 		"/>
		<polygon points="58.3,122.9 57.9,122.7 57.5,122.9 57.9,123.1 		"/>
		<polygon points="60.1,122 59.6,121.7 59.2,122 59.6,122.2 		"/>
		<polygon points="61,122.4 60.5,122.2 60.1,122.4 60.5,122.6 		"/>
		<polygon points="61,122.9 60.5,122.6 60.1,122.9 60.5,123.1 		"/>
		<polygon points="60.1,122.9 59.7,122.6 59.2,122.9 59.7,123.1 		"/>
		<polygon points="60.1,122.4 59.6,122.2 59.2,122.4 59.7,122.7 		"/>
		<polygon points="61,121.9 60.5,121.7 60.1,121.9 60.5,122.2 		"/>
		<polygon points="59.2,122.9 58.8,122.7 58.3,122.9 58.8,123.1 		"/>
		<polygon points="60.1,123.3 59.7,123.1 59.2,123.3 59.7,123.6 		"/>
		<polygon points="59.2,123.3 58.8,123.1 58.3,123.3 58.8,123.6 		"/>
	</g>
	<g>
		<polygon points="62.7,122.4 62.3,122.2 61.8,122.4 62.3,122.6 		"/>
		<polygon points="60.5,122.2 60.1,122 59.6,122.2 60.1,122.4 		"/>
		<polygon points="60.1,122 59.6,121.7 59.2,122 59.6,122.2 		"/>
		<polygon points="59.7,122.2 59.2,122 58.8,122.2 59.2,122.4 		"/>
		<polygon points="59.2,122.9 58.8,122.6 58.3,122.9 58.8,123.1 		"/>
		<polygon points="61,121.9 60.5,121.7 60.1,122 60.5,122.2 		"/>
		<polygon points="61.9,122.4 61.4,122.2 61,122.4 61.4,122.6 		"/>
		<polygon points="61.9,122.9 61.4,122.6 61,122.9 61.4,123.1 		"/>
		<polygon points="61,122.9 60.5,122.6 60.1,122.9 60.5,123.1 		"/>
		<polygon points="61,122.4 60.5,122.2 60.1,122.4 60.5,122.7 		"/>
		<polygon points="61.9,121.9 61.4,121.7 61,121.9 61.4,122.2 		"/>
		<polygon points="60.1,122.9 59.6,122.7 59.2,122.9 59.6,123.1 		"/>
		<polygon points="61,123.3 60.5,123.1 60.1,123.3 60.6,123.6 		"/>
		<polygon points="60.1,123.3 59.6,123.1 59.2,123.3 59.7,123.6 		"/>
	</g>
	<g>
		<polygon points="57.9,122.2 57.4,122 57,122.2 57.4,122.4 		"/>
		<polygon points="58.4,122.4 57.9,122.2 57.5,122.4 57.9,122.7 		"/>
		<polygon points="55.7,122 55.2,121.7 54.8,122 55.3,122.2 		"/>
		<polygon points="54.4,122.7 53.9,122.4 53.5,122.7 53.9,122.9 		"/>
		<polygon points="56.1,121.7 55.7,121.5 55.2,121.7 55.7,122 		"/>
		<polygon points="57,122.2 56.6,122 56.1,122.2 56.6,122.4 		"/>
		<polygon points="57,122.6 56.6,122.4 56.1,122.7 56.6,122.9 		"/>
		<polygon points="56.2,122.7 55.7,122.4 55.3,122.7 55.7,122.9 		"/>
		<polygon points="56.2,122.2 55.7,122 55.3,122.2 55.7,122.4 		"/>
		<polygon points="57,121.7 56.6,121.5 56.1,121.7 56.6,122 		"/>
		<polygon points="55.3,122.7 54.8,122.4 54.4,122.7 54.8,122.9 		"/>
		<polygon points="56.2,123.1 55.7,122.9 55.3,123.1 55.7,123.3 		"/>
		<polygon points="57.9,123.1 57.4,122.9 57,123.1 57.5,123.3 		"/>
		<polygon points="57.1,123.6 56.6,123.3 56.1,123.6 56.6,123.8 		"/>
		<polygon points="55.3,123.1 54.8,122.9 54.4,123.1 54.8,123.4 		"/>
		<polygon points="57.9,122.6 57.5,122.4 57,122.6 57.5,122.9 		"/>
		<polygon points="57.1,123.1 56.6,122.9 56.2,123.1 56.6,123.3 		"/>
		<polygon points="56.2,123.6 55.7,123.4 55.3,123.6 55.7,123.8 		"/>
		<polygon points="57.9,122.6 57.5,122.4 57,122.7 57.5,122.9 		"/>
	</g>
	<polygon class="st3" points="51.4,121.8 53.2,122.6 54.9,121.7 53.1,120.8 	"/>
	<g>
		<polygon points="57.5,119.1 58.6,119.6 59.6,119.1 58.6,118.5 		"/>
		<polygon class="st3" points="56.8,119.1 58.6,119.9 60.3,119.1 58.5,118.2 		"/>
	</g>
	<g>
		<polygon points="61.9,121.3 63,121.9 64,121.3 63,120.8 		"/>
		<polygon class="st3" points="61.2,121.3 63,122.2 64.7,121.3 62.9,120.4 		"/>
	</g>
</g>
<g>
	<path class="st4" d="M37.4,96.6c-0.3,0.1-0.4,0.3-1.1,0.2c-0.3,0-4.2-1.7-6.4-1.6c-2.1,0.1-4.2,0.6-5,1.1s-1.5,1-2.3,2
		c-0.7,0.9-3.6,3.1-2.9,6.5c0.7,3.4,1.7,3.4,1.8,3.7c0.2,0.3-0.4,1.1,0,1.8c0.4,0.7,0.6,0.7,0.6,0.9c0,0.2-0.4,0.9,0.4,1.9
		c0.8,1.1,1.7,1.1,1.8,1.2s0.2,1.1,0.9,1.2c0.7,0.1,0.9,0.3,1.9,0.4s1.7,0,1.9,0c0.2,0,1.9,0.9,2.9,1.4c1.1,0.6,1.4,0.9,2.5,0.9
		c1.1,0,1.4-0.2,2.1-0.1c0.7,0.2,0.7,0.2,1.3,1c0.7,0.8,2,1.3,4.2,1.2c2.3,0,3.9-0.8,4.9-0.9s2.5,0.2,3.2,0c0.6-0.2,1.8-1.1,2-2.8
		c0.2-1.8,0.7-1.4,0.9-1.7s0.7-2,0.4-3.3c-0.3-1.3-1.1-3.6-3.9-6.9c-2.8-3.2-4.3-4.2-6.2-5.3s-4.2-1.3-4.4-1.7
		c-0.2-0.4-0.7-1-0.8-1.2C37.9,96.5,37.6,96.5,37.4,96.6z"/>
	<path class="st5" d="M37.8,96.9c0,0-0.6,0.6-1.7,0.4c-1.1-0.2-2.9-1.5-2.9-1.5"/>
	<path class="st5" d="M37.9,96.8c0,0-0.5,0.8-1.2,1.3c-0.8,0.6-1.1,0.9-2.3,1.4c-1.3,0.5-4.4,0.6-5.2,1.2c-0.7,0.6-1.5,1.1-0.7,1.6
		c0.8,0.5,2.6,1,7.5,1.3c4.9,0.4,7.9,2.7,7.9,2.7s4.8,2.9,4.9,6.4s0,5.3-2.5,6.8"/>
	<path class="st5" d="M38,96.9c0,0,0.6,1.9,1.3,2.5c0.7,0.5,5.5,3.4,5.5,3.4s2.8,2,5.1,5.3c2.3,3.3,2.5,6.5,2.5,6.5l-0.2,2.2"/>
	<path class="st5" d="M21.5,108.4c0,0,0.6,0.7,1.9,1"/>
	<path class="st5" d="M31.8,110.4c1.2,0.5,5.8-1.1,7.3-0.9s2.5,0.8,3,1.7c0.5,0.9,0.1,1.5-0.3,1.7c-0.3,0.2-0.8,0.5-2.9-0.2
		c-2.2-0.7-6.4-1.6-6.4-1.6l-1.7-0.3"/>
	<path class="st5" d="M34,110.4c0,0,4.3,0.9,4.9,0.9s0.6-0.5,0.2-0.8s-0.7-0.2-1.7-0.1"/>
	<path class="st5" d="M29.8,100.4c0,0-5.2,1.6-5.2,2.9c0,1.4,3.3,2.6,5.9,2.8c2.7,0.2,10.1,0.5,11.5,1.5c1.4,1,3.6,2.9,4.1,4.9
		s0.6,3-0.5,4c-1.1,1-3.4,0.6-5.3,0.2c-1.9-0.4-4.2-1.4-4.2-1.4"/>
	<path class="st5" d="M34.2,115.6c0,0-5.2-3.3-8-3.7s-1.7,2.3-1.7,2.3"/>
	<path class="st5" d="M37.9,96.8c-0.2,0.3-0.6,0.6-1,0.8c-1.1,0.7-2.6,1.2-3.3,1.3c-1,0.2-6.7-0.2-8.7,0.6c-2,0.8-3.8,1.7-3.5,4
		c0.3,2.3,1.9,3.7,2.5,3.9s8.2,2.2,9.6,2.2c1.4,0,4.4-1.4,7.3-0.5s3.5,3,3.6,3.6s0.4,2.2-1.9,2c-2.3-0.2-3.2-0.6-5.3-0.3
		c-2.1,0.3-0.5,0.9-2.1,0.3s-4.3-4.1-4.3-4.1s-3.9-2.5-5.7-1.9c-1.8,0.5-3,2.1-3,2.1"/>
	<path class="st5" d="M25.7,95.9c0,0,2.9-0.4,4.4,0.2c1.5,0.6,2.4,1.5,3.7,1.7s2.7,0.1,4.1-0.9"/>
	<path class="st5" d="M22.1,98.7c0,0,2.4-1.7,5.6-1.2c3.2,0.5,4.3,1.4,6.5,1c2.3-0.4,3.4-1.4,3.4-1.4"/>
	<path class="st5" d="M32.8,102.8c0.8-0.1,2.4-1.4,3.3-2.7c0.9-1.3,1.7-3.2,1.7-3.2"/>
	<path class="st5" d="M38.3,97.8c0,0-0.8,0.4-0.8,1.5c0,1,0.6,1.4,1,1.3c0.4,0,1.4-0.8,1.4-0.8"/>
	<path class="st5" d="M32.8,102.8c-1,0.1-2.7-0.3-3.2-0.9"/>
</g>
<g>
	<g>
		<path class="st6" d="M93.1,13.8c-0.2,0.1-0.3,0.2-0.8,0.2c-0.2,0-3-1.2-4.5-1.1s-2.9,0.4-3.5,0.7s-1.1,0.7-1.6,1.4
			c-0.5,0.6-2.6,2.2-2.1,4.5s1.2,2.4,1.3,2.6c0.1,0.2-0.2,0.7,0,1.2c0.2,0.5,0.4,0.5,0.4,0.6c0,0.1-0.3,0.6,0.3,1.4s1.2,0.8,1.3,0.9
			s0.2,0.8,0.7,0.9c0.5,0.1,0.6,0.2,1.3,0.2c0.7,0,1.2,0,1.4,0c0.2,0,1.3,0.6,2,1c0.7,0.4,1,0.6,1.7,0.6c0.8,0,1-0.2,1.5,0
			C93,29,93,29,93.5,29.6c0.5,0.6,1.4,0.9,3,0.9c1.6,0,2.7-0.6,3.4-0.6c0.7-0.1,1.8,0.1,2.2,0c0.4-0.1,1.3-0.8,1.4-2
			c0.2-1.2,0.5-1,0.6-1.2s0.5-1.4,0.2-2.3c-0.2-0.9-0.8-2.6-2.8-4.8s-3-2.9-4.4-3.7c-1.4-0.8-2.9-0.9-3.1-1.2s-0.5-0.7-0.6-0.8
			C93.5,13.7,93.3,13.7,93.1,13.8z"/>
		<path class="st7" d="M93.4,13.8c0,0-0.4,0.6-1.2,0.4s-2-1-2-1"/>
		<path class="st7" d="M93.5,14c0,0-0.3,0.5-0.8,0.9c-0.6,0.4-0.7,0.6-1.6,1c-0.9,0.4-3.1,0.4-3.6,0.9c-0.5,0.4-1,0.8-0.5,1.1
			c0.6,0.4,1.8,0.7,5.3,0.9c3.4,0.3,5.6,1.9,5.6,1.9s3.2,2.3,3.2,4.5s0.3,3.6-1.4,4.7"/>
		<path class="st7" d="M93.6,14c0,0,0.4,1.4,0.9,1.7c0.5,0.4,3.8,2.4,3.8,2.4s1.9,1.4,3.6,3.7c1.6,2.3,1.7,4.6,1.7,4.6l-0.1,1.5"/>
		<path class="st7" d="M82,22c0,0,0.4,0.5,1.3,0.7"/>
		<path class="st7" d="M90.1,23.3l4.3-0.5c0,0,1.9,0.3,2.1,1.2c0.2,0.9,0,1.1,0,1.1s-0.8,0.4-2.3-0.1c-1.5-0.5-4.5-1.1-4.5-1.1
			l-1.2-0.2"/>
		<path class="st7" d="M90.8,23.4c0,0,2.9,0.6,3.3,0.6s0.6-0.4,0.3-0.5c-0.4-0.1-0.4-0.1-1.1-0.1"/>
		<path class="st7" d="M87.6,16.6c0,0-3.4,1-3.3,1.9s2.3,1.8,4.2,1.9s7.1,0.4,8,1.1s2.5,2,2.9,3.4c0.3,1.4,0.4,2.1-0.4,2.8
			c-0.8,0.7-2.4,0.4-3.7,0.1s-2.9-1-2.9-1"/>
		<path class="st7" d="M90.9,27.1c0,0-3.7-2.3-5.6-2.6s-1.2,1.6-1.2,1.6"/>
		<path class="st7" d="M93.5,13.9c-0.2,0.2-0.4,0.4-0.7,0.6c-0.8,0.5-1.8,0.8-2.3,0.9c-0.7,0.1-4.7-0.1-6.1,0.4
			c-1.4,0.5-2.7,1.2-2.5,2.8s1.8,2.8,1.8,2.8l6.7,1.5c0,0,3-1,5.1-0.3c2.1,0.6,2.5,2.5,2.5,2.5s0.3,1.5-1.3,1.4s-2.2-0.4-3.7-0.2
			c-1.5,0.2-0.3,0.6-1.5,0.2c-1.1-0.4-3-2.9-3-2.9s-2.7-1.7-4-1.4c-1.3,0.4-2.1,1.5-2.1,1.5"/>
		<path class="st7" d="M85,13.3c0,0,2-0.3,3.1,0.1c1,0.4,1.7,1.1,2.6,1.2c1,0.1,1.9,0.1,2.8-0.6"/>
		<path class="st7" d="M82.5,15.3c0,0,1.7-1.2,3.9-0.9c2.2,0.3,3,1,4.6,0.7s2.4-1,2.4-1"/>
		<path class="st7" d="M89.9,18.1c0,0,1.5-1.6,1.9-2.3c0.5-0.7,1.5-1.7,1.5-1.7"/>
		<path class="st7" d="M93.8,14.6c0,0-0.6,0.3-0.6,1c0,0.7,0.4,1,0.7,0.9c0.3,0,1-0.5,1-0.5"/>
		<path class="st7" d="M89.9,18.1c0,0-1.9-0.2-2.2-0.6"/>
	</g>
	<path class="st8" d="M160.5,32.9c-0.3-0.8-0.8-1-1.3-1.3L99.5,1.9c-1-0.5-2.2-0.5-3.2,0L69.2,16c-0.6,0.3-1,1-1,1.7
		c0,0.2,0,1.1,0,1.3c0,0.8,0.5,2.2,1.2,2.5s54.7,28.1,57,29.3c2.3,1.1,4.6-0.1,5.2-0.4l28-14c0.7-0.4,1.2-1.1,1.2-1.9
		C160.8,33.9,160.7,33.7,160.5,32.9z M156.5,33.3c0.5,0.3,0.5,1,0,1.3c-4.9,2.5-22.4,11.2-24.5,12.2c-2.4,1.2-4.8,0-4.8,0L70.9,18.4
		L97.4,4.7c0.3-0.1,0.5-0.2,0.8-0.2c0.3,0,0.5,0.1,0.8,0.2L156.5,33.3z"/>
	<g>
		<linearGradient id="SVGID_1_" gradientUnits="userSpaceOnUse" x1="75.7144" y1="23.7742" x2="79.6868" y2="23.7742">
			<stop  offset="0" style="stop-color:#FFFFFF"/>
			<stop  offset="1" style="stop-color:#000000"/>
		</linearGradient>
		<line class="st9" x1="75.8" y1="22.8" x2="79.6" y2="24.7"/>
		<path class="st10" d="M79.6,25.4c-0.1,0-0.2,0-0.3-0.1l-3.8-1.9c-0.3-0.2-0.4-0.5-0.3-0.8c0.2-0.3,0.5-0.4,0.8-0.3l3.8,1.9
			c0.3,0.2,0.4,0.5,0.3,0.8C80,25.2,79.8,25.4,79.6,25.4z"/>
	</g>
	<g>
		<linearGradient id="SVGID_2_" gradientUnits="userSpaceOnUse" x1="71.4792" y1="21.217" x2="73.7914" y2="21.217">
			<stop  offset="0" style="stop-color:#FFFFFF"/>
			<stop  offset="1" style="stop-color:#000000"/>
		</linearGradient>
		<line class="st11" x1="71.6" y1="20.7" x2="73.7" y2="21.8"/>
		<path class="st10" d="M73.7,22.4c-0.1,0-0.2,0-0.3-0.1l-2.1-1.1c-0.3-0.2-0.4-0.5-0.3-0.8c0.2-0.3,0.5-0.4,0.8-0.3l2.1,1.1
			c0.3,0.2,0.4,0.5,0.3,0.8C74.1,22.2,73.9,22.4,73.7,22.4z"/>
	</g>
	<g>
		<linearGradient id="SVGID_3_" gradientUnits="userSpaceOnUse" x1="81.4281" y1="26.8307" x2="85.5336" y2="26.8307">
			<stop  offset="0" style="stop-color:#FFFFFF"/>
			<stop  offset="1" style="stop-color:#000000"/>
		</linearGradient>
		<line class="st12" x1="81.5" y1="25.8" x2="85.4" y2="27.8"/>
		<path class="st10" d="M85.4,28.4c-0.1,0-0.2,0-0.3-0.1l-3.9-2c-0.3-0.2-0.4-0.5-0.3-0.8c0.2-0.3,0.5-0.4,0.8-0.3l3.9,2
			c0.3,0.2,0.4,0.5,0.3,0.8C85.9,28.3,85.7,28.4,85.4,28.4z"/>
	</g>
	<path class="st13" d="M71.6,19c0,0,52.2,26.5,54.6,27.6c2.4,1.1,4.3,0.9,5.7,0.3s24.3-11.9,25.3-12.5c1-0.6,0.5-1.5-0.5-2
		c-1-0.5-56.9-28.4-56.9-28.4s-1.9-0.8-2.6-0.5c-4.9,2.6-25.7,13.2-26.6,13.7C69.4,17.7,71.6,19,71.6,19z"/>
	<g>
		<path d="M79.6,13l2.2,1.1c0.4,0.2,0.8,0.2,1.1,0l9.6-4.7c0.4-0.2,0.4-0.8,0-1l-2.5-1.3c0,0-0.1,0-0.1,0l-10.8,5.3
			C79,12.5,78.3,12.4,79.6,13z"/>
		<ellipse class="st10" cx="90.1" cy="8.9" rx="0.9" ry="0.4"/>
	</g>
	<path class="st14" d="M88,23.9l4.8,2.6c0.7,0.4,1.4,0.4,2.1,0l20.9-10.6c0.6-0.3,0.6-1.2,0-1.5l-5.2-2.8c-0.6-0.3-1.3-0.3-1.9,0
		L88,22.1C87.3,22.5,87.3,23.5,88,23.9z"/>
	<g>
		<path class="st15" d="M93,22.6c-0.1-0.1-0.3-0.2-0.5-0.2c-0.2,0-0.5,0.1-0.7,0.2c-0.2,0.1-0.3,0.2-0.4,0.3
			c-0.1,0.1-0.1,0.2-0.2,0.3c0,0.1,0,0.2,0.1,0.3c0.1,0.1,0.1,0.1,0.2,0.2c0.1,0,0.2,0,0.3,0c0.1,0,0.2,0,0.3,0c0.1,0,0.2,0,0.3-0.1
			l0.5-0.1c0.1,0,0.3-0.1,0.4-0.1c0.2,0,0.3,0,0.5,0c0.2,0,0.3,0,0.5,0.1c0.2,0.1,0.3,0.2,0.4,0.3c0.1,0.2,0.2,0.3,0.2,0.5
			c0,0.2-0.1,0.4-0.2,0.6c-0.1,0.2-0.4,0.4-0.7,0.5c-0.3,0.1-0.5,0.2-0.8,0.3c-0.3,0-0.5,0-0.7,0c-0.2-0.1-0.4-0.2-0.5-0.3l0.5-0.3
			c0.1,0.1,0.2,0.2,0.4,0.2c0.1,0,0.3,0,0.5,0c0.2,0,0.3-0.1,0.5-0.2c0.2-0.1,0.3-0.2,0.4-0.3c0.1-0.1,0.2-0.2,0.2-0.4
			c0-0.1,0-0.2-0.1-0.4c-0.1-0.1-0.2-0.2-0.3-0.2c-0.1,0-0.3,0-0.4,0c-0.1,0-0.3,0.1-0.5,0.1l-0.6,0.1c-0.4,0.1-0.7,0.1-0.9,0.1
			c-0.3,0-0.5-0.2-0.7-0.4c-0.1-0.2-0.2-0.4-0.2-0.5c0-0.2,0.1-0.4,0.2-0.6c0.1-0.2,0.3-0.3,0.6-0.5c0.2-0.1,0.5-0.2,0.7-0.2
			c0.2,0,0.5,0,0.7,0c0.2,0.1,0.4,0.2,0.5,0.3L93,22.6z"/>
		<path class="st15" d="M97.2,23.7c-0.3,0.1-0.5,0.2-0.8,0.2c-0.3,0-0.5-0.1-0.8-0.2c-0.2-0.1-0.5-0.3-0.6-0.5
			c-0.2-0.2-0.3-0.5-0.3-0.7c0-0.2,0-0.5,0.1-0.7c0.1-0.2,0.3-0.4,0.6-0.5c0.2-0.1,0.4-0.2,0.6-0.2c0.2,0,0.4,0,0.6,0
			c0.2,0.1,0.4,0.1,0.5,0.3l-0.4,0.2c-0.1-0.1-0.3-0.1-0.4-0.2c-0.2,0-0.4,0-0.6,0.1c-0.2,0.1-0.3,0.2-0.4,0.3
			c-0.1,0.1-0.1,0.3-0.1,0.5c0,0.2,0.1,0.3,0.2,0.5c0.1,0.2,0.3,0.3,0.5,0.4c0.2,0.1,0.4,0.1,0.5,0.1c0.2,0,0.4,0,0.5-0.1
			c0.1-0.1,0.2-0.1,0.3-0.2c0.1-0.1,0.1-0.2,0.1-0.3c0-0.1,0-0.2,0-0.3l0.4-0.2c0.1,0.1,0.1,0.3,0.1,0.5c0,0.2-0.1,0.3-0.2,0.5
			C97.6,23.4,97.4,23.6,97.2,23.7z"/>
		<path class="st15" d="M99.8,22.3c-0.2,0.1-0.4,0.2-0.6,0.2c-0.2,0-0.4,0-0.5-0.1c-0.2-0.1-0.3-0.2-0.4-0.3
			c-0.1-0.1-0.2-0.3-0.2-0.4c0-0.1,0-0.2,0.1-0.3c0.1-0.1,0.2-0.2,0.3-0.3c0.1-0.1,0.2-0.2,0.4-0.3c0.2-0.1,0.3-0.2,0.4-0.3
			s0.2-0.1,0.2-0.2c0-0.1,0-0.1,0-0.2l0,0c-0.1-0.1-0.3-0.2-0.4-0.3c-0.2,0-0.3,0-0.6,0.1c-0.2,0.1-0.3,0.2-0.4,0.4
			C98,20.6,98,20.7,98,20.8l-0.5,0.1c0-0.2,0-0.3,0-0.5c0.1-0.1,0.2-0.3,0.3-0.4c0.1-0.1,0.3-0.2,0.4-0.3c0.1,0,0.2-0.1,0.3-0.1
			c0.1,0,0.3-0.1,0.4-0.1c0.2,0,0.3,0,0.5,0.1c0.2,0.1,0.3,0.2,0.5,0.4l1.2,1.5l-0.4,0.2l-0.2-0.3l0,0c0,0.1,0,0.1,0,0.2
			c0,0.1-0.1,0.2-0.2,0.3C100.1,22.1,100,22.2,99.8,22.3z M99.6,21.9c0.2-0.1,0.3-0.2,0.4-0.3c0.1-0.1,0.1-0.2,0.1-0.4
			c0-0.1,0-0.2-0.1-0.3l-0.3-0.3c0,0,0,0.1-0.1,0.1c-0.1,0-0.1,0.1-0.2,0.2c-0.1,0.1-0.1,0.1-0.2,0.2c-0.1,0-0.1,0.1-0.2,0.1
			c-0.1,0.1-0.2,0.2-0.3,0.2c-0.1,0.1-0.1,0.2-0.1,0.2c0,0.1,0,0.2,0.1,0.3c0.1,0.1,0.2,0.2,0.4,0.2C99.3,22.1,99.5,22,99.6,21.9z"
			/>
		<path class="st15" d="M101.3,19.5l1.1,1.4l-0.4,0.2l-1.8-2.3l0.4-0.2l0.3,0.4l0,0c0-0.2,0-0.3,0.1-0.4c0.1-0.1,0.2-0.3,0.4-0.4
			c0.2-0.1,0.4-0.2,0.6-0.2c0.2,0,0.4,0,0.6,0.1c0.2,0.1,0.3,0.2,0.5,0.4l1.1,1.5l-0.4,0.2l-1.1-1.4c-0.1-0.2-0.3-0.3-0.5-0.3
			c-0.2,0-0.4,0-0.6,0.1c-0.1,0.1-0.2,0.2-0.3,0.3c-0.1,0.1-0.1,0.2-0.1,0.4S101.2,19.3,101.3,19.5z"/>
		<path class="st15" d="M108.6,15.3c0.3,0.3,0.4,0.6,0.4,1c0,0.3,0,0.6-0.2,0.9s-0.4,0.5-0.7,0.7c-0.3,0.2-0.7,0.3-1,0.3
			c-0.4,0-0.7-0.1-1-0.2s-0.6-0.4-0.9-0.7c-0.3-0.3-0.4-0.6-0.4-1c0-0.3,0-0.6,0.2-0.9c0.2-0.3,0.4-0.5,0.7-0.7
			c0.3-0.2,0.7-0.3,1-0.3c0.4,0,0.7,0.1,1,0.2S108.3,15,108.6,15.3z M108.1,15.6c-0.2-0.3-0.4-0.5-0.7-0.6c-0.3-0.1-0.5-0.2-0.8-0.2
			c-0.3,0-0.5,0.1-0.7,0.2c-0.2,0.1-0.4,0.3-0.5,0.5c-0.1,0.2-0.2,0.4-0.1,0.7c0,0.2,0.2,0.5,0.4,0.8c0.2,0.3,0.4,0.5,0.7,0.6
			c0.3,0.1,0.5,0.2,0.8,0.2c0.3,0,0.5-0.1,0.7-0.2c0.2-0.1,0.4-0.3,0.5-0.5c0.1-0.2,0.2-0.4,0.1-0.7
			C108.5,16.1,108.3,15.8,108.1,15.6z M107.2,16.9l0.5-0.3l0.8,0.2l0.2,0.1l1.2,0.3l-0.5,0.3l-0.8-0.2l-0.2-0.1L107.2,16.9z"/>
		<path class="st15" d="M110.6,16.4l-2.4-3.1l1.3-0.7c0.3-0.2,0.6-0.3,0.8-0.3c0.3,0,0.5,0,0.7,0.1c0.2,0.1,0.4,0.2,0.5,0.4
			c0.1,0.2,0.2,0.4,0.2,0.6c0,0.2,0,0.4-0.2,0.6c-0.1,0.2-0.3,0.4-0.6,0.5l-1,0.6l-0.3-0.3l1-0.6c0.2-0.1,0.4-0.2,0.4-0.3
			c0.1-0.1,0.1-0.2,0.1-0.4s-0.1-0.2-0.2-0.4s-0.2-0.2-0.3-0.3c-0.1-0.1-0.3-0.1-0.4-0.1c-0.2,0-0.4,0.1-0.6,0.2l-0.8,0.4l2.1,2.7
			L110.6,16.4z M111.3,14.1l2,0.9l-0.5,0.3l-2-0.9L111.3,14.1z"/>
	</g>
	<polygon class="st14" points="104.6,30.9 123.2,40.7 144.1,30.2 125.4,20.5 	"/>
	<g>
		<polygon points="110,30.9 112.5,32.1 114.9,30.9 112.5,29.6 		"/>
		<polygon points="118.9,36.5 123.6,38.7 128,36.4 123.5,34.1 		"/>
		<g>
			<polygon points="117.2,30.9 118.3,31.4 119.3,30.9 118.2,30.3 			"/>
			<polygon points="116.1,30.4 117.2,30.9 118.2,30.3 117.2,29.8 			"/>
			<polygon points="122.3,31.4 123.4,31.9 124.4,31.4 123.3,30.9 			"/>
			<polygon points="123.3,31.9 124.4,32.5 125.4,31.9 124.4,31.4 			"/>
			<polygon points="124.3,31.4 125.4,31.9 126.4,31.4 125.3,30.9 			"/>
			<polygon points="125.4,29.8 126.4,30.3 127.4,29.8 126.4,29.3 			"/>
			<polygon points="121.3,31.9 122.3,32.5 123.4,31.9 122.4,31.4 			"/>
			<polygon points="119.2,30.9 120.3,31.4 121.3,30.9 120.3,30.3 			"/>
			<polygon points="119.2,29.8 120.3,30.3 121.3,29.8 120.3,29.3 			"/>
			<polygon points="121.2,29.8 122.3,30.3 123.3,29.8 122.3,29.3 			"/>
			<polygon points="121.3,30.9 122.3,31.4 123.3,30.9 122.3,30.3 			"/>
			<polygon points="119.2,32 120.3,32.5 121.3,31.9 120.3,31.4 			"/>
			<polygon points="123.3,29.8 124.4,30.3 125.4,29.8 124.4,29.2 			"/>
			<polygon points="121.2,28.8 122.3,29.3 123.3,28.7 122.2,28.2 			"/>
			<polygon points="123.3,28.7 124.4,29.2 125.4,28.7 124.3,28.2 			"/>
			<polygon points="117.1,29.8 118.2,30.3 119.2,29.8 118.2,29.3 			"/>
		</g>
		<g>
			<polygon points="118.4,28.2 119.4,28.7 120.4,28.2 119.4,27.7 			"/>
			<polygon points="119.4,28.7 120.4,29.3 121.5,28.8 120.4,28.2 			"/>
			<polygon points="120.4,28.2 121.4,28.7 122.4,28.2 121.4,27.7 			"/>
			<polygon points="121.4,26.6 122.4,27.1 123.5,26.6 122.4,26.1 			"/>
			<polygon points="117.4,28.8 118.4,29.3 119.4,28.7 118.4,28.2 			"/>
			<polygon points="115.3,27.7 116.3,28.2 117.4,27.7 116.3,27.2 			"/>
			<polygon points="117.3,26.6 118.3,27.1 119.4,26.6 118.3,26.1 			"/>
			<polygon points="117.3,27.7 118.4,28.2 119.4,27.7 118.4,27.1 			"/>
			<polygon points="115.3,28.8 116.3,29.3 117.4,28.8 116.3,28.2 			"/>
			<polygon points="119.4,26.6 120.4,27.1 121.5,26.6 120.4,26.1 			"/>
			<polygon points="119.3,25.5 120.4,26 121.4,25.5 120.4,25 			"/>
		</g>
		<g>
			<polygon points="123.3,27.8 124.4,28.3 125.4,27.7 124.4,27.2 			"/>
			<polygon points="128.5,28.3 129.5,28.8 130.5,28.3 129.5,27.7 			"/>
			<polygon points="129.5,28.8 130.5,29.3 131.6,28.8 130.5,28.3 			"/>
			<polygon points="130.5,28.3 131.5,28.8 132.5,28.3 131.5,27.7 			"/>
			<polygon points="131.5,26.6 132.5,27.2 133.6,26.7 132.5,26.1 			"/>
			<polygon points="127.5,28.8 128.5,29.3 129.5,28.8 128.5,28.3 			"/>
			<polygon points="125.4,27.8 126.5,28.3 127.5,27.8 126.4,27.2 			"/>
			<polygon points="125.4,26.7 126.4,27.2 127.4,26.7 126.4,26.1 			"/>
			<polygon points="127.4,26.7 128.5,27.2 129.5,26.7 128.4,26.1 			"/>
			<polygon points="127.4,27.7 128.5,28.3 129.5,27.7 128.5,27.2 			"/>
			<polygon points="125.4,28.8 126.5,29.3 127.5,28.8 126.4,28.3 			"/>
			<polygon points="129.5,26.7 130.5,27.2 131.6,26.7 130.5,26.1 			"/>
			<polygon points="127.3,25.6 128.4,26.1 129.4,25.6 128.4,25.1 			"/>
			<polygon points="129.4,25.6 130.5,26.1 131.5,25.6 130.5,25 			"/>
		</g>
		<g>
			<polygon points="132.6,32.4 131.5,31.9 130.5,32.5 131.6,33 			"/>
			<polygon points="127.5,32 126.4,31.4 125.4,31.9 126.5,32.5 			"/>
			<polygon points="126.4,31.4 125.4,30.9 124.4,31.4 125.4,31.9 			"/>
			<polygon points="125.5,32 124.4,31.4 123.4,31.9 124.5,32.5 			"/>
			<polygon points="124.4,33.6 123.4,33 122.4,33.5 123.4,34.1 			"/>
			<polygon points="128.5,31.4 127.5,30.9 126.4,31.4 127.4,31.9 			"/>
			<polygon points="130.6,32.4 129.5,31.9 128.5,32.5 129.5,33 			"/>
			<polygon points="130.6,33.5 129.5,33 128.5,33.5 129.5,34.1 			"/>
			<polygon points="128.6,33.5 127.5,33 126.5,33.5 127.5,34.1 			"/>
			<polygon points="128.5,32.5 127.5,32 126.5,32.5 127.5,33 			"/>
			<polygon points="130.6,31.4 129.5,30.9 128.5,31.4 129.5,31.9 			"/>
			<polygon points="126.5,33.5 125.4,33 124.4,33.6 125.4,34.1 			"/>
			<polygon points="128.6,34.6 127.5,34.1 126.5,34.6 127.6,35.1 			"/>
			<polygon points="126.5,34.6 125.4,34.1 124.4,34.6 125.5,35.2 			"/>
		</g>
		<g>
			<polygon points="134.6,32.4 133.6,31.9 132.5,32.5 133.6,33 			"/>
			<polygon points="129.5,32 128.5,31.4 127.5,31.9 128.5,32.5 			"/>
			<polygon points="128.5,31.4 127.4,30.9 126.4,31.4 127.5,31.9 			"/>
			<polygon points="127.5,32 126.5,31.4 125.5,31.9 126.5,32.5 			"/>
			<polygon points="126.5,33.6 125.4,33 124.4,33.5 125.5,34.1 			"/>
			<polygon points="130.5,31.4 129.5,30.9 128.5,31.4 129.4,31.9 			"/>
			<polygon points="132.6,32.4 131.5,31.9 130.5,32.5 131.6,33 			"/>
			<polygon points="132.6,33.5 131.6,33 130.5,33.5 131.6,34.1 			"/>
			<polygon points="130.6,33.5 129.5,33 128.5,33.5 129.6,34.1 			"/>
			<polygon points="130.6,32.5 129.5,32 128.5,32.5 129.5,33 			"/>
			<polygon points="132.6,31.4 131.5,30.9 130.5,31.4 131.6,31.9 			"/>
			<polygon points="128.5,33.5 127.4,33 126.4,33.6 127.5,34.1 			"/>
			<polygon points="130.7,34.6 129.6,34.1 128.6,34.6 129.6,35.1 			"/>
			<polygon points="128.6,34.6 127.5,34.1 126.5,34.6 127.5,35.2 			"/>
		</g>
		<g>
			<polygon points="123.4,32 122.3,31.4 121.3,32 122.4,32.5 			"/>
			<polygon points="124.5,32.5 123.4,32 122.4,32.5 123.4,33 			"/>
			<polygon points="118.3,31.5 117.3,30.9 116.2,31.4 117.3,32 			"/>
			<polygon points="115.3,33.1 114.2,32.5 113.2,33.1 114.2,33.6 			"/>
			<polygon points="119.3,30.9 118.3,30.4 117.3,30.9 118.2,31.4 			"/>
			<polygon points="121.4,31.9 120.3,31.4 119.3,32 120.3,32.5 			"/>
			<polygon points="121.4,33 120.3,32.5 119.3,33 120.4,33.6 			"/>
			<polygon points="119.4,33 118.3,32.5 117.3,33 118.4,33.6 			"/>
			<polygon points="119.4,32 118.3,31.5 117.3,32 118.3,32.5 			"/>
			<polygon points="121.4,30.9 120.3,30.4 119.3,30.9 120.3,31.4 			"/>
			<polygon points="117.3,33 116.2,32.5 115.2,33.1 116.3,33.6 			"/>
			<polygon points="119.4,34.1 118.4,33.6 117.3,34.1 118.4,34.6 			"/>
			<polygon points="123.4,34 122.4,33.5 121.3,34.1 122.4,34.6 			"/>
			<polygon points="121.5,35.1 120.4,34.6 119.4,35.1 120.4,35.7 			"/>
			<polygon points="117.3,34.1 116.3,33.6 115.3,34.1 116.3,34.7 			"/>
			<polygon points="123.5,33 122.4,32.5 121.4,33 122.4,33.5 			"/>
			<polygon points="121.5,34.1 120.4,33.6 119.4,34.1 120.4,34.6 			"/>
			<polygon points="119.4,35.2 118.3,34.6 117.3,35.2 118.4,35.7 			"/>
			<polygon points="123.5,33 122.4,32.5 121.4,33 122.4,33.6 			"/>
		</g>
		<polygon class="st16" points="108.3,30.9 112.5,32.9 116.4,30.9 112.4,28.8 		"/>
		<g>
			<polygon points="122.5,24.7 125.1,25.9 127.5,24.7 125,23.4 			"/>
			<polygon class="st16" points="120.8,24.7 125,26.7 129,24.7 124.9,22.6 			"/>
		</g>
		<g>
			<polygon points="132.7,30 135.3,31.2 137.7,29.9 135.2,28.7 			"/>
			<polygon class="st16" points="131,30 135.2,32 139.2,29.9 135.1,27.8 			"/>
		</g>
	</g>
</g>
<polygon class="st17" points="85.3,29.5 51.1,122.5 58.2,126.4 66,122.3 86.6,30.2 "/>
</svg>
