<?xml version="1.0" encoding="utf-8"?>
<!-- Generator: Adobe Illustrator 25.2.3, SVG Export Plug-In . SVG Version: 6.00 Build 0)  -->
<svg version="1.1" id="Layer_1" xmlns="http://www.w3.org/2000/svg" xmlns:xlink="http://www.w3.org/1999/xlink" x="0px" y="0px"
	 viewBox="0 0 158.5 121.8" style="enable-background:new 0 0 158.5 121.8;" xml:space="preserve">
<style type="text/css">
	.st0{fill:none;stroke:#000000;stroke-width:0.2573;stroke-miterlimit:10;}
	.st1{fill:#DD335A;stroke:#FFFFFF;stroke-width:0.3953;stroke-miterlimit:10;}
	.st2{fill:none;stroke:#FFFFFF;stroke-width:0.2454;stroke-linecap:round;stroke-miterlimit:10;}
	.st3{fill:#DD335A;stroke:#FFFFFF;stroke-width:0.1719;stroke-linecap:round;stroke-miterlimit:10;}
	.st4{fill:none;stroke:#FFFFFF;stroke-width:0.1719;stroke-linecap:round;stroke-miterlimit:10;}
	.st5{fill:#1D1D1B;}
	.st6{stroke:url(#SVGID_1_);stroke-width:0.6155;stroke-miterlimit:10;}
	.st7{fill:#666666;}
	.st8{stroke:url(#SVGID_2_);stroke-width:0.6155;stroke-miterlimit:10;}
	.st9{stroke:url(#SVGID_3_);stroke-width:0.6155;stroke-miterlimit:10;}
	.st10{opacity:0.7;fill:#6466AC;}
	.st11{opacity:0.46;fill:#F5F5F5;}
	.st12{fill:#D8422E;}
	.st13{fill:none;stroke:#000000;stroke-width:0.5978;stroke-miterlimit:10;}
</style>
<g>
	<polygon points="55.5,113.4 57.1,114.2 58.7,113.4 57.1,112.5 	"/>
	<polygon points="61.3,117 64.4,118.5 67.2,117 64.3,115.5 	"/>
	<g>
		<polygon points="60.2,113.4 60.9,113.7 61.5,113.3 60.8,113 		"/>
		<polygon points="59.5,113 60.2,113.3 60.8,113 60.2,112.7 		"/>
		<polygon points="63.5,113.7 64.2,114 64.9,113.7 64.2,113.3 		"/>
		<polygon points="64.2,114 64.9,114.4 65.5,114 64.9,113.7 		"/>
		<polygon points="64.8,113.7 65.5,114 66.2,113.7 65.5,113.3 		"/>
		<polygon points="65.5,112.6 66.2,113 66.9,112.6 66.2,112.3 		"/>
		<polygon points="62.9,114.1 63.5,114.4 64.2,114 63.6,113.7 		"/>
		<polygon points="61.5,113.4 62.2,113.7 62.9,113.4 62.2,113 		"/>
		<polygon points="61.5,112.7 62.2,113 62.9,112.7 62.2,112.3 		"/>
		<polygon points="62.8,112.7 63.5,113 64.2,112.6 63.5,112.3 		"/>
		<polygon points="62.8,113.4 63.5,113.7 64.2,113.3 63.5,113 		"/>
		<polygon points="61.5,114.1 62.2,114.4 62.9,114.1 62.2,113.7 		"/>
		<polygon points="64.2,112.6 64.9,113 65.5,112.6 64.9,112.3 		"/>
		<polygon points="62.8,112 63.5,112.3 64.1,112 63.5,111.6 		"/>
		<polygon points="64.1,111.9 64.9,112.3 65.5,111.9 64.8,111.6 		"/>
		<polygon points="60.1,112.7 60.8,113 61.5,112.7 60.8,112.3 		"/>
	</g>
	<g>
		<polygon points="60.9,111.6 61.6,112 62.3,111.6 61.6,111.3 		"/>
		<polygon points="61.6,111.9 62.3,112.3 63,112 62.3,111.6 		"/>
		<polygon points="62.2,111.6 62.9,112 63.6,111.6 62.9,111.3 		"/>
		<polygon points="62.9,110.5 63.6,110.9 64.3,110.6 63.6,110.2 		"/>
		<polygon points="60.3,112 60.9,112.3 61.6,112 61,111.6 		"/>
		<polygon points="58.9,111.3 59.6,111.6 60.3,111.3 59.6,110.9 		"/>
		<polygon points="60.2,110.6 60.9,110.9 61.6,110.6 60.9,110.2 		"/>
		<polygon points="60.2,111.3 60.9,111.6 61.6,111.3 60.9,110.9 		"/>
		<polygon points="58.9,112 59.6,112.3 60.3,112 59.6,111.6 		"/>
		<polygon points="61.6,110.6 62.3,110.9 63,110.5 62.3,110.2 		"/>
		<polygon points="61.6,109.9 62.3,110.2 62.9,109.8 62.2,109.5 		"/>
	</g>
	<g>
		<polygon points="64.2,111.3 64.9,111.6 65.6,111.3 64.9,110.9 		"/>
		<polygon points="67.6,111.6 68.2,112 68.9,111.6 68.2,111.3 		"/>
		<polygon points="68.2,112 68.9,112.3 69.6,112 68.9,111.6 		"/>
		<polygon points="68.9,111.6 69.5,112 70.2,111.7 69.5,111.3 		"/>
		<polygon points="69.5,110.6 70.2,110.9 70.9,110.6 70.2,110.2 		"/>
		<polygon points="66.9,112 67.5,112.3 68.2,112 67.6,111.7 		"/>
		<polygon points="65.5,111.3 66.2,111.7 66.9,111.3 66.2,111 		"/>
		<polygon points="65.5,110.6 66.2,110.9 66.9,110.6 66.2,110.3 		"/>
		<polygon points="66.8,110.6 67.5,110.9 68.2,110.6 67.5,110.2 		"/>
		<polygon points="66.9,111.3 67.6,111.6 68.2,111.3 67.5,110.9 		"/>
		<polygon points="65.5,112 66.2,112.4 66.9,112 66.2,111.7 		"/>
		<polygon points="68.2,110.6 68.9,110.9 69.6,110.6 68.9,110.2 		"/>
		<polygon points="66.8,109.9 67.5,110.2 68.2,109.9 67.5,109.6 		"/>
		<polygon points="68.2,109.9 68.9,110.2 69.5,109.9 68.9,109.5 		"/>
	</g>
	<g>
		<polygon points="70.3,114.4 69.6,114 68.9,114.4 69.6,114.7 		"/>
		<polygon points="66.9,114.1 66.2,113.7 65.6,114 66.2,114.4 		"/>
		<polygon points="66.2,113.7 65.5,113.3 64.9,113.7 65.6,114.1 		"/>
		<polygon points="65.6,114.1 64.9,113.7 64.2,114 64.9,114.4 		"/>
		<polygon points="64.9,115.1 64.2,114.8 63.6,115.1 64.2,115.5 		"/>
		<polygon points="67.6,113.7 66.9,113.4 66.2,113.7 66.9,114 		"/>
		<polygon points="68.9,114.4 68.2,114 67.6,114.4 68.2,114.7 		"/>
		<polygon points="68.9,115.1 68.2,114.7 67.6,115.1 68.3,115.4 		"/>
		<polygon points="67.6,115.1 66.9,114.8 66.3,115.1 66.9,115.5 		"/>
		<polygon points="67.6,114.4 66.9,114.1 66.2,114.4 66.9,114.8 		"/>
		<polygon points="68.9,113.7 68.2,113.3 67.6,113.7 68.2,114 		"/>
		<polygon points="66.2,115.1 65.5,114.8 64.9,115.1 65.6,115.5 		"/>
		<polygon points="67.6,115.8 66.9,115.4 66.3,115.8 67,116.1 		"/>
		<polygon points="66.3,115.8 65.6,115.5 64.9,115.8 65.6,116.2 		"/>
	</g>
	<g>
		<polygon points="71.6,114.4 70.9,114 70.2,114.4 70.9,114.7 		"/>
		<polygon points="68.2,114.1 67.6,113.7 66.9,114 67.6,114.4 		"/>
		<polygon points="67.6,113.7 66.9,113.3 66.2,113.7 66.9,114.1 		"/>
		<polygon points="66.9,114.1 66.2,113.7 65.6,114 66.3,114.4 		"/>
		<polygon points="66.2,115.1 65.6,114.8 64.9,115.1 65.6,115.5 		"/>
		<polygon points="68.9,113.7 68.2,113.4 67.6,113.7 68.2,114 		"/>
		<polygon points="70.3,114.4 69.6,114 68.9,114.4 69.6,114.7 		"/>
		<polygon points="70.3,115.1 69.6,114.7 68.9,115.1 69.6,115.4 		"/>
		<polygon points="69,115.1 68.2,114.8 67.6,115.1 68.3,115.4 		"/>
		<polygon points="68.9,114.4 68.2,114.1 67.6,114.4 68.2,114.8 		"/>
		<polygon points="70.3,113.7 69.6,113.3 68.9,113.7 69.6,114 		"/>
		<polygon points="67.6,115.1 66.9,114.8 66.2,115.1 66.9,115.5 		"/>
		<polygon points="69,115.8 68.3,115.4 67.6,115.8 68.3,116.1 		"/>
		<polygon points="67.6,115.8 66.9,115.5 66.2,115.8 66.9,116.2 		"/>
	</g>
	<g>
		<polygon points="64.2,114.1 63.5,113.7 62.9,114.1 63.6,114.4 		"/>
		<polygon points="64.9,114.4 64.2,114.1 63.6,114.4 64.3,114.8 		"/>
		<polygon points="60.9,113.7 60.2,113.4 59.5,113.7 60.2,114.1 		"/>
		<polygon points="58.9,114.8 58.2,114.4 57.6,114.8 58.2,115.1 		"/>
		<polygon points="61.5,113.4 60.9,113 60.2,113.4 60.8,113.7 		"/>
		<polygon points="62.9,114 62.2,113.7 61.5,114.1 62.2,114.4 		"/>
		<polygon points="62.9,114.7 62.2,114.4 61.6,114.8 62.2,115.1 		"/>
		<polygon points="61.6,114.8 60.9,114.4 60.2,114.8 60.9,115.1 		"/>
		<polygon points="61.6,114.1 60.9,113.7 60.2,114.1 60.9,114.4 		"/>
		<polygon points="62.9,113.3 62.2,113 61.5,113.4 62.2,113.7 		"/>
		<polygon points="60.2,114.8 59.5,114.4 58.9,114.8 59.5,115.1 		"/>
		<polygon points="61.6,115.5 60.9,115.1 60.3,115.5 60.9,115.8 		"/>
		<polygon points="64.3,115.4 63.5,115.1 62.9,115.4 63.6,115.8 		"/>
		<polygon points="63,116.1 62.2,115.8 61.6,116.1 62.3,116.5 		"/>
		<polygon points="60.3,115.5 59.6,115.1 58.9,115.5 59.6,115.8 		"/>
		<polygon points="64.3,114.7 63.6,114.4 62.9,114.7 63.6,115.1 		"/>
		<polygon points="63,115.4 62.3,115.1 61.6,115.5 62.3,115.8 		"/>
		<polygon points="61.6,116.2 60.9,115.8 60.2,116.2 60.9,116.5 		"/>
		<polygon points="64.3,114.7 63.6,114.4 62.9,114.8 63.6,115.1 		"/>
	</g>
	<polygon class="st0" points="54.3,113.4 57.1,114.7 59.7,113.3 57,112 	"/>
	<g>
		<polygon points="63.7,109.3 65.3,110.1 66.9,109.3 65.3,108.5 		"/>
		<polygon class="st0" points="62.5,109.3 65.3,110.6 67.9,109.3 65.2,107.9 		"/>
	</g>
	<g>
		<polygon points="70.4,112.8 72,113.5 73.6,112.7 72,111.9 		"/>
		<polygon class="st0" points="69.2,112.8 72,114.1 74.6,112.7 71.9,111.3 		"/>
	</g>
</g>
<g>
	<path class="st1" d="M31.8,76.1c-0.4,0.1-0.6,0.4-1.7,0.3c-0.5,0-6.4-2.6-9.7-2.5c-3.3,0.1-6.4,1-7.6,1.6c-1.2,0.6-2.4,1.6-3.4,3
		s-5.5,4.7-4.5,9.9s2.5,5.2,2.8,5.6c0.2,0.4-0.5,1.6,0,2.7s0.9,1,0.9,1.4c0.1,0.3-0.7,1.4,0.6,3c1.3,1.6,2.5,1.7,2.8,1.9
		c0.2,0.1,0.3,1.7,1.4,1.9c1.1,0.2,1.3,0.5,2.8,0.5c1.5,0.1,2.6,0,2.9,0.1s2.8,1.3,4.4,2.2c1.6,0.9,2.1,1.4,3.8,1.4s2.1-0.4,3.2-0.1
		c1,0.3,1,0.3,2,1.6s3,1.9,6.4,1.9c3.5,0,6-1.2,7.4-1.4s3.8,0.2,4.8,0c1-0.2,2.8-1.7,3.1-4.3c0.3-2.7,1.1-2.2,1.4-2.6s1.1-3,0.5-5
		s-1.7-5.6-6-10.5s-6.5-6.3-9.5-8.1c-3-1.8-6.4-1.9-6.7-2.6s-1-1.6-1.2-1.8S32.2,76,31.8,76.1z"/>
	<path class="st2" d="M32.4,76.5c0,0-0.9,1-2.6,0.7C28,76.9,25.3,75,25.3,75"/>
	<path class="st2" d="M32.6,76.5c0,0-0.7,1.2-1.8,1.9c-1.3,0.9-1.6,1.3-3.6,2.1c-1.9,0.8-6.7,0.9-7.9,1.9c-1.1,0.9-2.2,1.7-1,2.5
		c1.2,0.8,4,1.5,11.5,2c7.5,0.5,12.1,4.1,12.1,4.1s7.3,4.5,7.4,9.7c0.1,5.3,0,8-3.8,10.4"/>
	<path class="st2" d="M32.7,76.6c0,0,1,3,2,3.7c1.1,0.8,8.3,5.2,8.3,5.2s4.2,3,7.7,8c3.5,5,3.7,9.9,3.7,9.9l-0.2,3.3"/>
	<path class="st2" d="M7.6,94c0,0,0.8,1.1,2.9,1.5"/>
	<path class="st2" d="M23.2,97.2c1.9,0.7,8.9-1.7,11.1-1.4s3.8,1.3,4.6,2.7c0.8,1.4,0.1,2.2-0.4,2.5s-1.2,0.7-4.4-0.4
		s-9.7-2.4-9.7-2.4l-2.7-0.4"/>
	<path class="st2" d="M26.6,97.1c0,0,6.6,1.4,7.5,1.4s1-0.8,0.3-1.2c-0.7-0.4-1.1-0.3-2.5-0.2"/>
	<path class="st2" d="M20.3,82c0,0-7.9,2.4-7.9,4.5c0,2.1,5,4,9,4.2s15.4,0.8,17.5,2.3c2.1,1.6,5.5,4.4,6.2,7.5s0.9,4.6-0.8,6.2
		s-5.1,0.9-8.1,0.3c-3-0.6-6.4-2.1-6.4-2.1"/>
	<path class="st2" d="M26.9,105.1c0,0-8-5.1-12.2-5.6c-4.2-0.5-2.6,3.5-2.6,3.5"/>
	<path class="st2" d="M32.5,76.5c-0.4,0.5-0.9,0.8-1.6,1.3c-1.6,1-4,1.8-5.1,2c-1.6,0.3-10.1-0.2-13.3,0.9c-3.1,1.2-5.8,2.7-5.4,6.1
		c0.4,3.4,2.9,5.6,3.8,6s12.5,3.4,14.7,3.4s6.6-2.1,11.1-0.7s5.3,4.5,5.5,5.5s0.5,3.4-2.9,3.1c-3.4-0.2-4.8-0.9-8-0.5
		c-3.2,0.5-0.7,1.4-3.2,0.5s-6.5-6.2-6.5-6.2s-5.9-3.7-8.7-3s-4.5,3.3-4.5,3.3"/>
	<path class="st2" d="M14,75c0,0,4.4-0.7,6.6,0.3s3.6,2.3,5.7,2.6c2.1,0.2,4.2,0.2,6.2-1.4"/>
	<path class="st2" d="M8.5,79.4c0,0,3.7-2.6,8.5-1.9s6.5,2.1,9.9,1.5c3.5-0.7,5.2-2.1,5.2-2.1"/>
	<path class="st2" d="M24.8,85.6c1.2-0.1,3.6-2.1,5.1-4.1s2.6-4.9,2.6-4.9"/>
	<path class="st2" d="M33.2,78c0,0-1.2,0.7-1.3,2.2c0,1.5,0.9,2.1,1.5,2c0.6-0.1,2.2-1.1,2.2-1.1"/>
	<path class="st2" d="M24.7,85.6c-1.5,0.1-4.1-0.5-4.9-1.3"/>
</g>
<g>
	<g>
		<path class="st3" d="M51.8,24.8c-0.3,0.1-0.4,0.3-1.2,0.2c-0.3,0-4.5-1.8-6.8-1.7c-2.3,0.1-4.4,0.7-5.3,1.1
			c-0.9,0.4-1.7,1.1-2.4,2.1c-0.7,1-3.9,3.3-3.1,6.9c0.7,3.6,1.8,3.6,1.9,3.9c0.2,0.3-0.4,1.1,0,1.9c0.4,0.7,0.6,0.7,0.7,1
			c0,0.2-0.5,1,0.4,2.1c0.9,1.1,1.8,1.2,1.9,1.3c0.2,0.1,0.2,1.2,1,1.3c0.7,0.1,0.9,0.3,2,0.4s1.8,0,2.1,0c0.2,0.1,2,0.9,3.1,1.5
			c1.1,0.6,1.5,1,2.7,1s1.5-0.3,2.2-0.1c0.7,0.2,0.7,0.2,1.4,1.1c0.7,0.9,2.1,1.3,4.5,1.3c2.4,0,4.2-0.9,5.2-1c1-0.1,2.7,0.2,3.4,0
			c0.7-0.2,2-1.2,2.2-3c0.2-1.9,0.8-1.5,1-1.8c0.2-0.3,0.7-2.1,0.4-3.5s-1.2-3.9-4.2-7.3c-3-3.4-4.5-4.4-6.7-5.7s-4.5-1.4-4.7-1.8
			c-0.2-0.4-0.7-1.1-0.9-1.3C52.4,24.7,52,24.7,51.8,24.8z"/>
		<path class="st4" d="M52.2,24.9c0,0-0.6,0.9-1.8,0.7c-1.2-0.2-3.1-1.6-3.1-1.6"/>
		<path class="st4" d="M52.3,25.1c0,0-0.5,0.8-1.2,1.3c-0.9,0.6-1.1,0.9-2.5,1.5s-4.7,0.6-5.5,1.3c-0.7,0.6-1.6,1.2-0.7,1.7
			c0.9,0.5,2.8,1,8,1.4c5.2,0.4,8.5,2.9,8.5,2.9s4.8,3.5,4.9,6.8c0.1,3.3,0.4,5.5-2.2,7.1"/>
		<path class="st4" d="M52.4,25.1c0,0,0.7,2.1,1.4,2.6c0.8,0.5,5.8,3.7,5.8,3.7s2.9,2.1,5.4,5.6c2.5,3.5,2.6,6.9,2.6,6.9l-0.2,2.3"
			/>
		<path class="st4" d="M34.9,37.4c0,0,0.6,0.8,2,1.1"/>
		<path class="st4" d="M47.1,39.3l6.5-0.8c0,0,2.9,0.4,3.2,1.9s0.1,1.7,0.1,1.7s-1.1,0.5-3.4-0.2c-2.3-0.8-6.8-1.7-6.8-1.7L44.7,40"
			/>
		<path class="st4" d="M48.1,39.5c0,0,4.5,1,5.1,1s0.9-0.6,0.4-0.8c-0.5-0.2-0.7-0.2-1.7-0.1"/>
		<path class="st4" d="M43.3,29.1c0,0-5.1,1.5-5.1,2.9c0,1.4,3.5,2.8,6.3,2.9c2.8,0.2,10.8,0.5,12.2,1.6c1.5,1.1,3.9,3.1,4.4,5.2
			s0.6,3.2-0.5,4.3s-3.6,0.7-5.7,0.2c-2.1-0.4-4.5-1.5-4.5-1.5"/>
		<path class="st4" d="M48.4,45.1c0,0-5.6-3.5-8.5-3.9c-2.9-0.4-1.8,2.5-1.8,2.5"/>
		<path class="st4" d="M52.3,25.1c-0.2,0.3-0.6,0.6-1.1,0.9c-1.2,0.7-2.8,1.2-3.6,1.4c-1.1,0.2-7.1-0.2-9.3,0.7s-4,1.9-3.8,4.3
			s2.7,4.2,2.7,4.2l10.3,2.3c0,0,4.6-1.5,7.8-0.5s3.8,3.8,3.8,3.8s0.4,2.3-2,2.2c-2.4-0.2-3.4-0.7-5.6-0.3c-2.2,0.3-0.5,1-2.2,0.3
			c-1.7-0.7-4.5-4.4-4.5-4.4s-4.1-2.6-6.1-2.1c-1.9,0.5-3.2,2.3-3.2,2.3"/>
		<path class="st4" d="M39.3,24.1c0,0,3.1-0.5,4.7,0.2c1.6,0.7,2.5,1.6,4,1.8c1.5,0.2,2.9,0.2,4.3-1"/>
		<path class="st4" d="M35.5,27.1c0,0,2.6-1.8,5.9-1.3c3.4,0.5,4.5,1.5,7,1s3.6-1.5,3.6-1.5"/>
		<path class="st4" d="M46.9,31.4c0,0,2.3-2.4,3-3.4c0.7-1,2.2-2.5,2.2-2.5"/>
		<path class="st4" d="M52.7,26.1c0,0-0.9,0.5-0.9,1.6c0,1.1,0.7,1.5,1.1,1.4s1.5-0.8,1.5-0.8"/>
		<path class="st4" d="M46.8,31.4c0,0-2.9-0.3-3.4-0.9"/>
	</g>
	<path class="st5" d="M154.2,53.9c-0.4-1.2-1.2-1.5-2-1.9L61.4,6.7c-1.5-0.8-3.3-0.7-4.8,0L15.3,28.1c-0.9,0.5-1.5,1.5-1.5,2.5
		c0,0.4,0,1.6,0,1.9c0,1.2,0.8,3.3,1.9,3.9C16.9,37,99,79.3,102.5,81c3.5,1.7,7-0.1,7.9-0.6l42.5-21.3c1.1-0.5,1.8-1.6,1.8-2.9
		C154.7,55.4,154.6,55.1,154.2,53.9z M148.1,54.5c0.8,0.4,0.8,1.6,0,2c-7.5,3.8-34.1,17-37.2,18.6c-3.7,1.8-7.4-0.1-7.4-0.1
		L17.9,31.9L58.3,11c0.4-0.2,0.8-0.3,1.2-0.3c0.4,0,0.8,0.1,1.2,0.3L148.1,54.5z"/>
	<g>
		<linearGradient id="SVGID_1_" gradientUnits="userSpaceOnUse" x1="25.2258" y1="40.0214" x2="31.2717" y2="40.0214">
			<stop  offset="0" style="stop-color:#FFFFFF"/>
			<stop  offset="1" style="stop-color:#000000"/>
		</linearGradient>
		<line class="st6" x1="25.4" y1="38.5" x2="31.1" y2="41.5"/>
		<path class="st7" d="M31.1,42.4c-0.1,0-0.3,0-0.4-0.1l-5.8-3c-0.5-0.2-0.6-0.8-0.4-1.2c0.2-0.5,0.8-0.6,1.2-0.4l5.8,3
			c0.5,0.2,0.6,0.8,0.4,1.2C31.8,42.2,31.5,42.4,31.1,42.4z"/>
	</g>
	<g>
		<linearGradient id="SVGID_2_" gradientUnits="userSpaceOnUse" x1="18.7799" y1="36.1295" x2="22.299" y2="36.1295">
			<stop  offset="0" style="stop-color:#FFFFFF"/>
			<stop  offset="1" style="stop-color:#000000"/>
		</linearGradient>
		<line class="st8" x1="18.9" y1="35.3" x2="22.2" y2="36.9"/>
		<path class="st7" d="M22.2,37.9c-0.1,0-0.3,0-0.4-0.1l-3.2-1.6c-0.5-0.2-0.6-0.8-0.4-1.2c0.2-0.5,0.8-0.6,1.2-0.4l3.2,1.6
			c0.5,0.2,0.6,0.8,0.4,1.2C22.8,37.7,22.5,37.9,22.2,37.9z"/>
	</g>
	<g>
		<linearGradient id="SVGID_3_" gradientUnits="userSpaceOnUse" x1="33.922" y1="44.6735" x2="40.1704" y2="44.6735">
			<stop  offset="0" style="stop-color:#FFFFFF"/>
			<stop  offset="1" style="stop-color:#000000"/>
		</linearGradient>
		<line class="st9" x1="34.1" y1="43.2" x2="40" y2="46.2"/>
		<path class="st7" d="M40,47.1c-0.1,0-0.3,0-0.4-0.1l-6-3c-0.5-0.2-0.6-0.8-0.4-1.2c0.2-0.5,0.8-0.6,1.2-0.4l6,3
			c0.5,0.2,0.6,0.8,0.4,1.2C40.7,46.9,40.4,47.1,40,47.1z"/>
	</g>
	<path class="st10" d="M18.9,32.7c0,0,79.5,40.3,83.2,42s6.5,1.4,8.7,0.4s36.9-18.2,38.5-19.1c1.5-0.9,0.8-2.3-0.8-3.1
		c-1.5-0.8-86.6-43.2-86.6-43.2s-2.9-1.3-4-0.7c-7.5,4-39.1,20.1-40.6,20.8C15.7,30.8,18.9,32.7,18.9,32.7z"/>
	<g>
		<path d="M31.2,23.7l3.3,1.7c0.5,0.3,1.2,0.3,1.7,0l14.6-7.2c0.6-0.3,0.6-1.2,0-1.5l-3.8-1.9c-0.1,0-0.2,0-0.2,0l-16.4,8
			C30.2,22.8,29.2,22.8,31.2,23.7z"/>
		<ellipse class="st7" cx="47.2" cy="17.4" rx="1.4" ry="0.7"/>
	</g>
	<path class="st11" d="M43.9,40.1l7.2,4c1,0.5,2.2,0.6,3.2,0L86.1,28c0.9-0.5,0.9-1.8,0-2.3l-7.8-4.2c-0.9-0.5-2-0.5-2.9,0L44,37.5
		C42.9,38,42.9,39.6,43.9,40.1z"/>
	<g>
		<path class="st12" d="M51.5,38.2c-0.2-0.2-0.5-0.3-0.8-0.3c-0.3,0-0.7,0.1-1,0.3c-0.3,0.1-0.5,0.3-0.6,0.5
			c-0.1,0.2-0.2,0.3-0.2,0.5c0,0.2,0,0.3,0.1,0.5c0.1,0.1,0.2,0.2,0.4,0.3c0.1,0,0.3,0.1,0.5,0.1c0.2,0,0.3,0,0.5-0.1
			c0.2,0,0.3-0.1,0.4-0.1l0.7-0.2c0.2,0,0.4-0.1,0.6-0.1s0.5-0.1,0.7-0.1c0.2,0,0.5,0.1,0.7,0.1c0.2,0.1,0.4,0.2,0.6,0.5
			c0.2,0.3,0.3,0.5,0.3,0.8c0,0.3-0.1,0.6-0.3,0.9c-0.2,0.3-0.6,0.6-1,0.8c-0.4,0.2-0.8,0.4-1.2,0.4c-0.4,0.1-0.7,0-1.1-0.1
			c-0.3-0.1-0.6-0.3-0.8-0.5l0.7-0.4c0.2,0.2,0.3,0.3,0.6,0.3c0.2,0,0.5,0,0.7,0c0.2-0.1,0.5-0.1,0.7-0.3c0.3-0.1,0.5-0.3,0.6-0.5
			c0.2-0.2,0.3-0.4,0.3-0.6c0-0.2,0-0.4-0.2-0.5c-0.1-0.2-0.3-0.3-0.5-0.3c-0.2,0-0.4,0-0.6,0s-0.5,0.1-0.7,0.1l-0.8,0.2
			c-0.5,0.1-1,0.2-1.4,0.1c-0.4-0.1-0.7-0.2-1-0.5c-0.2-0.3-0.3-0.5-0.3-0.8c0-0.3,0.1-0.6,0.4-0.8c0.2-0.3,0.5-0.5,0.9-0.7
			c0.4-0.2,0.8-0.3,1.1-0.4s0.7,0,1,0.1c0.3,0.1,0.6,0.3,0.8,0.5L51.5,38.2z"/>
		<path class="st12" d="M57.9,39.9c-0.4,0.2-0.8,0.3-1.2,0.3c-0.4,0-0.8-0.1-1.2-0.3c-0.4-0.2-0.7-0.5-1-0.8
			c-0.3-0.4-0.4-0.7-0.5-1.1c0-0.4,0-0.7,0.2-1c0.2-0.3,0.5-0.6,0.9-0.8c0.3-0.2,0.6-0.3,0.9-0.3c0.3,0,0.6,0,0.9,0.1
			c0.3,0.1,0.5,0.2,0.7,0.4L57,36.8c-0.2-0.1-0.4-0.2-0.7-0.2c-0.3,0-0.6,0-0.9,0.2c-0.3,0.1-0.4,0.3-0.6,0.5
			c-0.1,0.2-0.1,0.4-0.1,0.7c0,0.3,0.2,0.5,0.4,0.8c0.2,0.3,0.4,0.5,0.7,0.6c0.3,0.1,0.5,0.2,0.8,0.2c0.3,0,0.6-0.1,0.8-0.2
			c0.2-0.1,0.3-0.2,0.4-0.3c0.1-0.1,0.2-0.3,0.2-0.4c0-0.1,0-0.3,0-0.4l0.7-0.4c0.1,0.2,0.2,0.5,0.2,0.7c0,0.2-0.1,0.5-0.3,0.7
			C58.5,39.5,58.2,39.7,57.9,39.9z"/>
		<path class="st12" d="M61.9,37.7C61.6,37.9,61.3,38,61,38c-0.3,0-0.6,0-0.8-0.1c-0.3-0.1-0.5-0.2-0.7-0.5
			c-0.2-0.2-0.2-0.4-0.2-0.6c0-0.2,0.1-0.3,0.2-0.5c0.1-0.2,0.3-0.3,0.4-0.5c0.2-0.1,0.4-0.3,0.5-0.4c0.2-0.2,0.4-0.3,0.6-0.4
			c0.2-0.1,0.3-0.2,0.3-0.3c0-0.1,0-0.2,0-0.2l0,0c-0.2-0.2-0.4-0.4-0.6-0.4c-0.3,0-0.5,0-0.8,0.2c-0.3,0.2-0.5,0.4-0.6,0.6
			c-0.1,0.2-0.1,0.4-0.1,0.6l-0.8,0.2c-0.1-0.3,0-0.5,0.1-0.7c0.1-0.2,0.2-0.4,0.4-0.6s0.4-0.3,0.6-0.4c0.1-0.1,0.3-0.1,0.5-0.2
			c0.2-0.1,0.4-0.1,0.7-0.1c0.2,0,0.5,0,0.7,0.1c0.2,0.1,0.5,0.3,0.7,0.6l1.8,2.3l-0.7,0.4l-0.4-0.5l0,0c0,0.1,0,0.2,0,0.4
			c0,0.1-0.1,0.3-0.3,0.4C62.3,37.5,62.2,37.6,61.9,37.7z M61.6,37.2c0.3-0.1,0.5-0.3,0.6-0.5c0.1-0.2,0.2-0.4,0.2-0.5
			c0-0.2-0.1-0.3-0.2-0.5l-0.4-0.5c0,0-0.1,0.1-0.1,0.2c-0.1,0.1-0.2,0.2-0.3,0.2c-0.1,0.1-0.2,0.2-0.3,0.2
			c-0.1,0.1-0.2,0.1-0.3,0.2c-0.2,0.1-0.3,0.2-0.4,0.4c-0.1,0.1-0.2,0.2-0.2,0.4c0,0.1,0,0.3,0.1,0.4c0.1,0.2,0.3,0.3,0.6,0.3
			C61.1,37.4,61.4,37.3,61.6,37.2z"/>
		<path class="st12" d="M64.1,33.5l1.6,2.1l-0.7,0.4l-2.7-3.5l0.6-0.3l0.4,0.5l0.1,0c0-0.2,0-0.5,0.1-0.7c0.1-0.2,0.4-0.4,0.7-0.6
			c0.3-0.2,0.6-0.3,0.9-0.3c0.3,0,0.6,0,0.9,0.2c0.3,0.1,0.5,0.3,0.8,0.6l1.7,2.2l-0.7,0.4l-1.7-2.2c-0.2-0.3-0.5-0.4-0.8-0.5
			c-0.3-0.1-0.6,0-0.9,0.2c-0.2,0.1-0.4,0.3-0.5,0.4c-0.1,0.2-0.2,0.3-0.1,0.5C63.9,33.1,63.9,33.3,64.1,33.5z"/>
		<path class="st12" d="M75.2,27.2c0.4,0.5,0.6,1,0.7,1.5c0.1,0.5,0,0.9-0.3,1.3c-0.2,0.4-0.6,0.7-1.1,1c-0.5,0.3-1,0.4-1.6,0.4
			c-0.5,0-1.1-0.1-1.6-0.3c-0.5-0.2-0.9-0.6-1.3-1.1c-0.4-0.5-0.6-1-0.7-1.5c-0.1-0.5,0-0.9,0.3-1.3c0.2-0.4,0.6-0.7,1.1-1
			c0.5-0.3,1-0.4,1.6-0.4c0.5,0,1.1,0.1,1.6,0.3C74.4,26.3,74.9,26.7,75.2,27.2z M74.6,27.5c-0.3-0.4-0.7-0.7-1.1-0.9
			c-0.4-0.2-0.8-0.3-1.2-0.3c-0.4,0-0.8,0.1-1.1,0.3c-0.4,0.2-0.6,0.4-0.8,0.7c-0.2,0.3-0.2,0.6-0.2,1c0,0.4,0.2,0.8,0.5,1.2
			c0.3,0.4,0.7,0.7,1.1,0.9c0.4,0.2,0.8,0.3,1.2,0.3c0.4,0,0.8-0.1,1.1-0.3c0.4-0.2,0.6-0.4,0.8-0.7c0.2-0.3,0.2-0.6,0.2-1
			C75.1,28.3,74.9,27.9,74.6,27.5z M73.1,29.5l0.8-0.4l1.2,0.3l0.3,0.1l1.8,0.5l-0.8,0.4l-1.2-0.3L74.9,30L73.1,29.5z"/>
		<path class="st12" d="M78.2,28.8l-3.6-4.7l2-1.1c0.5-0.2,0.9-0.4,1.3-0.4c0.4,0,0.7,0,1,0.2c0.3,0.1,0.6,0.3,0.8,0.6
			c0.2,0.3,0.3,0.6,0.4,0.8c0,0.3-0.1,0.6-0.3,0.8c-0.2,0.3-0.5,0.5-1,0.8l-1.6,0.9l-0.4-0.5l1.6-0.8c0.3-0.2,0.5-0.3,0.7-0.5
			s0.2-0.4,0.2-0.5c0-0.2-0.1-0.4-0.2-0.6c-0.1-0.2-0.3-0.3-0.5-0.4c-0.2-0.1-0.4-0.1-0.7-0.1c-0.3,0-0.5,0.1-0.9,0.3l-1.2,0.7
			l3.2,4.2L78.2,28.8z M79.4,25.3l3.1,1.3L81.6,27l-3-1.3L79.4,25.3z"/>
	</g>
	<polygon class="st11" points="69.2,50.9 97.5,65.7 129.2,49.8 100.8,35.1 	"/>
	<g>
		<polygon points="77.4,50.9 81.3,52.8 84.9,50.9 81.2,48.9 		"/>
		<polygon points="91,59.4 98.1,62.8 104.8,59.3 97.9,55.7 		"/>
		<g>
			<polygon points="88.3,50.8 90,51.6 91.5,50.8 89.9,50 			"/>
			<polygon points="86.7,50.1 88.4,50.8 89.9,50 88.3,49.2 			"/>
			<polygon points="96.2,51.6 97.7,52.4 99.3,51.6 97.7,50.8 			"/>
			<polygon points="97.7,52.4 99.3,53.3 100.8,52.5 99.3,51.6 			"/>
			<polygon points="99.2,51.6 100.8,52.4 102.3,51.6 100.8,50.8 			"/>
			<polygon points="100.8,49.2 102.4,50 103.9,49.2 102.3,48.4 			"/>
			<polygon points="94.6,52.5 96.1,53.2 97.7,52.4 96.3,51.7 			"/>
			<polygon points="91.4,50.9 93.1,51.6 94.6,50.8 93,50 			"/>
			<polygon points="91.4,49.2 93.1,50 94.6,49.2 93,48.4 			"/>
			<polygon points="94.5,49.2 96.1,50 97.7,49.2 96.1,48.4 			"/>
			<polygon points="94.5,50.8 96.2,51.6 97.7,50.8 96.1,50 			"/>
			<polygon points="91.4,52.5 93.1,53.3 94.6,52.5 93,51.6 			"/>
			<polygon points="97.7,49.2 99.3,50 100.9,49.2 99.3,48.3 			"/>
			<polygon points="94.4,47.6 96.1,48.4 97.6,47.6 96,46.8 			"/>
			<polygon points="97.6,47.6 99.3,48.3 100.8,47.5 99.2,46.7 			"/>
			<polygon points="88.3,49.2 89.9,50 91.5,49.2 89.9,48.4 			"/>
		</g>
		<g>
			<polygon points="90.1,46.7 91.7,47.6 93.3,46.8 91.7,46 			"/>
			<polygon points="91.7,47.6 93.3,48.4 94.8,47.6 93.3,46.8 			"/>
			<polygon points="93.2,46.8 94.8,47.6 96.3,46.8 94.7,46 			"/>
			<polygon points="94.8,44.3 96.3,45.1 97.9,44.3 96.3,43.5 			"/>
			<polygon points="88.6,47.6 90.1,48.4 91.7,47.6 90.2,46.8 			"/>
			<polygon points="85.4,46 87.1,46.8 88.6,46 87,45.2 			"/>
			<polygon points="88.5,44.4 90.1,45.1 91.7,44.3 90.1,43.5 			"/>
			<polygon points="88.5,46 90.2,46.8 91.7,45.9 90.1,45.1 			"/>
			<polygon points="85.4,47.6 87.1,48.4 88.6,47.6 87,46.8 			"/>
			<polygon points="91.7,44.3 93.3,45.1 94.8,44.3 93.3,43.5 			"/>
			<polygon points="91.6,42.7 93.2,43.5 94.8,42.7 93.2,41.9 			"/>
		</g>
		<g>
			<polygon points="97.7,46.1 99.4,46.9 100.9,46.1 99.3,45.2 			"/>
			<polygon points="105.5,46.8 107.1,47.7 108.6,46.9 107.1,46 			"/>
			<polygon points="107.1,47.7 108.7,48.5 110.2,47.7 108.6,46.9 			"/>
			<polygon points="108.6,46.8 110.2,47.7 111.7,46.9 110.1,46.1 			"/>
			<polygon points="110.1,44.4 111.7,45.2 113.3,44.4 111.7,43.6 			"/>
			<polygon points="104,47.7 105.5,48.5 107.1,47.7 105.6,46.9 			"/>
			<polygon points="100.8,46.1 102.4,46.9 104,46.1 102.4,45.3 			"/>
			<polygon points="100.8,44.5 102.4,45.2 104,44.4 102.4,43.6 			"/>
			<polygon points="103.8,44.5 105.5,45.2 107,44.4 105.4,43.6 			"/>
			<polygon points="103.9,46.1 105.5,46.8 107.1,46 105.5,45.2 			"/>
			<polygon points="100.8,47.7 102.4,48.5 104,47.7 102.4,46.9 			"/>
			<polygon points="107,44.4 108.7,45.2 110.2,44.4 108.6,43.6 			"/>
			<polygon points="103.8,42.8 105.4,43.6 107,42.8 105.4,42 			"/>
			<polygon points="107,42.8 108.6,43.6 110.2,42.8 108.6,41.9 			"/>
		</g>
		<g>
			<polygon points="111.8,53.2 110.2,52.5 108.6,53.3 110.2,54.1 			"/>
			<polygon points="104,52.5 102.4,51.6 100.9,52.4 102.5,53.3 			"/>
			<polygon points="102.4,51.7 100.9,50.8 99.3,51.6 100.9,52.5 			"/>
			<polygon points="101,52.5 99.4,51.6 97.8,52.4 99.4,53.3 			"/>
			<polygon points="99.4,54.9 97.8,54.1 96.3,54.9 97.8,55.7 			"/>
			<polygon points="105.5,51.6 104,50.8 102.4,51.6 103.9,52.4 			"/>
			<polygon points="108.7,53.2 107.1,52.4 105.5,53.2 107.1,54 			"/>
			<polygon points="108.8,54.8 107.1,54.1 105.6,54.9 107.2,55.7 			"/>
			<polygon points="105.7,54.9 104,54.1 102.5,54.9 104.1,55.7 			"/>
			<polygon points="105.6,53.2 104,52.5 102.4,53.3 104,54.1 			"/>
			<polygon points="108.7,51.6 107.1,50.8 105.5,51.6 107.1,52.4 			"/>
			<polygon points="102.5,54.9 100.9,54.1 99.3,54.9 100.9,55.7 			"/>
			<polygon points="105.7,56.5 104.1,55.7 102.6,56.5 104.1,57.3 			"/>
			<polygon points="102.6,56.5 100.9,55.8 99.4,56.6 101,57.4 			"/>
		</g>
		<g>
			<polygon points="114.9,53.2 113.3,52.4 111.7,53.3 113.3,54.1 			"/>
			<polygon points="107.1,52.5 105.5,51.6 104,52.4 105.6,53.3 			"/>
			<polygon points="105.5,51.7 104,50.8 102.4,51.6 104,52.5 			"/>
			<polygon points="104.1,52.5 102.5,51.6 100.9,52.4 102.5,53.3 			"/>
			<polygon points="102.5,54.9 100.9,54.1 99.4,54.9 100.9,55.7 			"/>
			<polygon points="108.6,51.6 107.1,50.8 105.5,51.6 107,52.4 			"/>
			<polygon points="111.8,53.2 110.2,52.4 108.6,53.2 110.2,54 			"/>
			<polygon points="111.9,54.8 110.2,54.1 108.7,54.9 110.3,55.7 			"/>
			<polygon points="108.8,54.9 107.1,54.1 105.6,54.9 107.2,55.7 			"/>
			<polygon points="108.7,53.2 107.1,52.5 105.5,53.3 107.1,54.1 			"/>
			<polygon points="111.8,51.6 110.2,50.8 108.6,51.6 110.2,52.4 			"/>
			<polygon points="105.6,54.9 103.9,54.1 102.4,54.9 104,55.7 			"/>
			<polygon points="108.8,56.5 107.2,55.7 105.7,56.5 107.2,57.3 			"/>
			<polygon points="105.7,56.5 104,55.7 102.5,56.6 104.1,57.4 			"/>
		</g>
		<g>
			<polygon points="97.8,52.5 96.2,51.7 94.7,52.5 96.3,53.3 			"/>
			<polygon points="99.5,53.3 97.8,52.5 96.3,53.3 97.9,54.1 			"/>
			<polygon points="90,51.7 88.5,50.9 86.9,51.7 88.5,52.5 			"/>
			<polygon points="85.4,54.2 83.8,53.3 82.3,54.1 83.9,55 			"/>
			<polygon points="91.6,50.9 90.1,50.1 88.5,50.9 89.9,51.7 			"/>
			<polygon points="94.8,52.4 93.1,51.7 91.6,52.5 93.2,53.3 			"/>
			<polygon points="94.8,54.1 93.1,53.3 91.6,54.1 93.2,54.9 			"/>
			<polygon points="91.7,54.1 90.1,53.3 88.5,54.1 90.1,55 			"/>
			<polygon points="91.7,52.5 90,51.7 88.5,52.5 90.1,53.3 			"/>
			<polygon points="94.8,50.8 93.1,50 91.6,50.9 93.2,51.7 			"/>
			<polygon points="88.5,54.1 86.9,53.4 85.3,54.2 86.9,55 			"/>
			<polygon points="91.8,55.7 90.1,54.9 88.6,55.7 90.2,56.6 			"/>
			<polygon points="97.9,55.6 96.2,54.9 94.7,55.7 96.3,56.5 			"/>
			<polygon points="94.8,57.3 93.2,56.5 91.7,57.3 93.2,58.1 			"/>
			<polygon points="88.6,55.8 86.9,55 85.4,55.8 87,56.6 			"/>
			<polygon points="97.9,54 96.3,53.2 94.7,54.1 96.3,54.9 			"/>
			<polygon points="94.9,55.7 93.2,54.9 91.7,55.7 93.3,56.5 			"/>
			<polygon points="91.7,57.3 90.1,56.6 88.5,57.4 90.1,58.2 			"/>
			<polygon points="97.9,54.1 96.3,53.3 94.7,54.1 96.3,54.9 			"/>
		</g>
		<polygon class="st13" points="74.8,50.9 81.2,54 87.2,50.8 81,47.6 		"/>
		<g>
			<polygon points="96.5,41.5 100.3,43.3 104,41.4 100.2,39.5 			"/>
			<polygon class="st13" points="93.8,41.5 100.2,44.5 106.3,41.4 100.1,38.2 			"/>
		</g>
		<g>
			<polygon points="112,49.4 115.9,51.3 119.5,49.4 115.8,47.5 			"/>
			<polygon class="st13" points="109.4,49.5 115.8,52.5 121.8,49.3 115.6,46.2 			"/>
		</g>
	</g>
</g>
</svg>
