<?xml version="1.0" encoding="utf-8"?>
<!-- Generator: Adobe Illustrator 25.2.3, SVG Export Plug-In . SVG Version: 6.00 Build 0)  -->
<svg version="1.1" id="Layer_1" xmlns="http://www.w3.org/2000/svg" xmlns:xlink="http://www.w3.org/1999/xlink" x="0px" y="0px"
	 viewBox="0 0 23.7 23.8" style="enable-background:new 0 0 23.7 23.8;" xml:space="preserve">
<style type="text/css">
	.st0{fill:#E8E4F3;}
	.st1{fill:#706D72;}
	.st2{fill:none;stroke:#706D72;stroke-width:0.5;stroke-miterlimit:10;}
	.st3{fill:none;stroke:#706D72;stroke-linecap:round;stroke-miterlimit:10;}
</style>
<g>
	<g id="budicon-search-a_1_">
		<path class="st0" d="M13.7,3.6c-0.8-0.8-1.8-1.4-2.9-1.8c0.3,0.2,0.7,0.5,1,0.8c2.8,2.8,2.8,7.4,0,10.2c-1.4,1.4-3.2,2.1-5.1,2.1
			c-0.8,0-1.5-0.1-2.2-0.4c1.2,0.9,2.6,1.3,4.2,1.3c1.9,0,3.7-0.8,5.1-2.1C16.5,11,16.5,6.4,13.7,3.6z"/>
		<path class="st1" d="M23.2,21.1l-4.8-4.8c-0.3-0.3-0.8-0.4-1.1-0.4c-0.2,0-0.4,0.2-0.6,0.3l-2-2c2.9-3.2,2.8-8.2-0.3-11.2
			c-1.6-1.6-3.7-2.4-5.8-2.4S4.4,1.3,2.8,2.9c-3.2,3.2-3.2,8.4,0,11.6c1.6,1.6,3.7,2.4,5.8,2.4c1.9,0,3.9-0.7,5.4-2.1l1.9,1.9
			c-0.3,0.5-0.2,1.4,0.3,1.8l4.8,4.8c0.3,0.3,0.8,0.4,1.1,0.4s0.9-0.2,1.1-0.4C23.8,22.7,23.8,21.6,23.2,21.1z M8.6,15.9
			c-1.9,0-3.7-0.8-5.1-2.1C0.7,11,0.7,6.4,3.5,3.6c1.4-1.4,3.2-2.1,5.1-2.1s3.7,0.8,5.1,2.1c2.8,2.8,2.8,7.4,0,10.2
			C12.4,15.2,10.5,15.9,8.6,15.9z M22.5,22.5c-0.1,0.1-0.3,0.1-0.3,0.1c-0.1,0-0.2,0-0.3-0.1L17,17.7c-0.1-0.1-0.1-0.3-0.1-0.3
			c0-0.1,0-0.2,0.1-0.3c0.1-0.1,0.3-0.1,0.3-0.1c0.1,0,0.2,0,0.3,0.1l4.8,4.8c0.1,0.1,0.1,0.3,0.1,0.3
			C22.6,22.3,22.6,22.4,22.5,22.5z"/>
		<line class="st2" x1="14.1" y1="14.7" x2="16.3" y2="16.8"/>
		<line class="st2" x1="14.6" y1="14.2" x2="16.8" y2="16.2"/>
	</g>
	<circle class="st3" cx="8.6" cy="8.5" r="7"/>
</g>
</svg>
