<?xml version="1.0" encoding="utf-8"?>
<!-- Generator: Adobe Illustrator 25.2.3, SVG Export Plug-In . SVG Version: 6.00 Build 0)  -->
<svg version="1.1" id="Layer_1" xmlns="http://www.w3.org/2000/svg" xmlns:xlink="http://www.w3.org/1999/xlink" x="0px" y="0px"
	 viewBox="0 0 239.6 379" style="enable-background:new 0 0 239.6 379;" xml:space="preserve">
<style type="text/css">
	.st0{fill:#EF7C4F;}
	.st1{fill:#FFFFFF;}
	.st2{fill:#CBB8B9;}
	.st3{fill:#E4DAD8;stroke:#FFFFFF;stroke-width:0.2464;stroke-linejoin:bevel;stroke-miterlimit:10;}
	.st4{fill:none;stroke:#FFFFFF;stroke-width:0.2464;stroke-miterlimit:10;}
	.st5{fill:none;stroke:#FFFFFF;stroke-width:0.2173;stroke-miterlimit:10;}
	.st6{fill:none;stroke:#FFFFFF;stroke-width:0.2203;stroke-miterlimit:10;}
	.st7{fill:none;stroke:#CBB8B9;stroke-width:2.7799;stroke-miterlimit:10;}
	.st8{fill:#E4DAD8;stroke:#FFFFFF;stroke-width:0.4928;stroke-miterlimit:10;}
	.st9{fill:#CBB8B9;stroke:#FFFFFF;stroke-width:0.4928;stroke-miterlimit:9.9998;}
	.st10{fill:#CBB8B9;stroke:#FFFFFF;stroke-width:0.4928;stroke-miterlimit:10;}
	.st11{fill:#DD335A;}
	.st12{fill:#DE3858;}
	.st13{fill:#E03D57;}
	.st14{fill:#E14155;}
	.st15{fill:#E24654;}
	.st16{fill:#E34B52;}
	.st17{fill:#E55050;}
	.st18{fill:#E6554F;}
	.st19{fill:#E75A4D;}
	.st20{fill:#E95F4B;}
	.st21{fill:#EA644A;}
	.st22{fill:#EB6948;}
	.st23{fill:#ED6E47;}
	.st24{fill:#EE7345;}
	.st25{fill:#D8422E;}
	.st26{fill:#CBB8B9;stroke:#FFFFFF;stroke-width:0.4928;stroke-linejoin:bevel;stroke-miterlimit:10;}
	.st27{fill:none;stroke:#FFFFFF;stroke-width:0.9248;stroke-miterlimit:10;}
	.st28{fill:#361D32;stroke:#FFFFFF;stroke-width:0.4928;stroke-miterlimit:10;}
	.st29{fill:#EE784C;}
	.st30{fill:#EC744A;}
	.st31{fill:#EA7048;}
	.st32{fill:#E96C45;}
	.st33{fill:#E76843;}
	.st34{fill:#E56341;}
	.st35{fill:#E45F3E;}
	.st36{fill:#E25B3C;}
	.st37{fill:#E0573A;}
	.st38{fill:#DF5337;}
	.st39{fill:#DD4F35;}
	.st40{fill:#DB4B33;}
	.st41{fill:#DA4730;}
	.st42{fill:#361D32;stroke:#FFFFFF;stroke-width:0.5724;stroke-miterlimit:10;}
	.st43{fill:#B79797;stroke:#FFFFFF;stroke-width:0.4928;stroke-miterlimit:10;}
	.st44{fill:#B79797;stroke:#FFFFFF;stroke-width:0.5323;stroke-miterlimit:10;}
	.st45{fill:none;stroke:#FFFFFF;stroke-width:0.4928;stroke-miterlimit:10;}
	.st46{fill:#E4DAD8;stroke:#FFFFFF;stroke-width:0.4928;stroke-linejoin:bevel;stroke-miterlimit:10;}
	.st47{fill:#361D32;stroke:#FFFFFF;stroke-width:0.2589;stroke-miterlimit:10;}
	.st48{fill:#361D32;stroke:#FFFFFF;stroke-width:0.2464;stroke-miterlimit:10;}
	.st49{fill:none;stroke:#FFFFFF;stroke-width:0.2319;stroke-miterlimit:10;}
	.st50{fill:none;stroke:#FFFFFF;stroke-width:0.2543;stroke-miterlimit:10;}
	.st51{fill:none;stroke:#FFFFFF;stroke-width:0.2399;stroke-miterlimit:10;}
	.st52{fill:#DE3859;}
	.st53{fill:#DF3D58;}
	.st54{fill:#E14258;}
	.st55{fill:#E24857;}
	.st56{fill:#E34D56;}
	.st57{fill:#E55255;}
	.st58{fill:#E65754;}
	.st59{fill:#E75D54;}
	.st60{fill:#E96253;}
	.st61{fill:#EA6752;}
	.st62{fill:#EB6C51;}
	.st63{fill:#ED7250;}
	.st64{fill:#EE774F;}
	.st65{fill:#361D32;stroke:#361D32;stroke-width:0.4928;stroke-miterlimit:10;}
	.st66{fill:#B79797;stroke:#FFFFFF;stroke-width:0.5152;stroke-miterlimit:10;}
</style>
<g>
	<g>
		<g>
			<path class="st0" d="M203.3,214l8.6,0.8c0.2-3-1-3.6-1.1-6.5c0-1.1,0.1-2.1,0.2-3.2c0.1-0.9,0.4-1.8,0.4-2.7c0-1.4-0.1-5-0.1-6.5
				c0-2.1,0.1-1.8,0.4-3.7c0,0-0.3-1.6,0.5-4.8c0.8-3.3,0.4-3.9,0.4-3.9v-1.2l-0.1-0.8l-0.1-0.6v-4.3l-3.2-0.5l-5.1,0.8
				c0.1,0.5,0.5,1,0.7,1.5c0.4,0.7,0.2,1.5,0.2,2.2c0,1.6-0.1,3.2-0.5,4.7c-0.3,1.3-0.3,2.7-0.5,4c-0.1,0.8-0.1,1.6,0.1,2.4
				c0.5,1.7,0.6,3.4,0.6,5c0,1.2-0.2,2.3-0.5,3.4c-0.3,1-0.4,2-0.6,3c-0.3,1.2-0.2,2.5-0.3,3.6c-0.2,1.4,0,2.9,0,4.3
				c0,0.9,0.1,1.8,0.2,2.7c0.2,1.4,0.6,1,0.6,1.1"/>
			<g>
				<path class="st1" d="M203.1,214.2c2.9,0.3,5.7,0.5,8.6,0.8c0.2,0,0.6-0.1,0.6-0.3c0.1-1.7-0.5-3.1-0.8-4.7
					c-0.5-2.3,0-4.4,0.3-6.7c0.4-3-0.3-6,0-9c0.1-0.9,0.3-1.8,0.3-2.7c-0.1-1.7,0.3-3.4,0.7-5c0.3-1.6,0.4-3.2,0.2-4.8
					c-0.2-1.8-0.1-3.5-0.1-5.4c0-0.1-0.1-0.1-0.1-0.1c-1.2-0.2-2.5-0.6-3.6-0.4c-1.6,0.2-3.2,0.5-4.7,0.7c-0.1,0-0.5,0.1-0.4,0.3
					c0.2,0.7,0.7,1.2,0.9,1.9c0.2,0.8,0.1,1.7,0.1,2.5c0,1.9-0.5,3.7-0.7,5.6c-0.2,1.6-0.4,3.3-0.1,4.8c0.4,1.9,0.7,3.6,0.6,5.5
					c-0.1,1.9-0.7,3.6-1,5.5c-0.3,1.7-0.4,3.4-0.5,4.9c-0.1,1.7,0,3.5,0.2,5.2c0.1,0.6,0,1.4,0.4,1.9c0.1,0.1,0.4,0.3,0.3,0.2
					c0.1,0.2,0.8-0.1,0.8-0.2c-0.1-0.1-0.2-0.1-0.3-0.2c-0.3-0.7-0.4-1.5-0.5-2.3c-0.2-1.9-0.2-3.7-0.1-5.6c0.2-1.8,0.3-3.5,0.6-5.3
					c0.3-1.6,0.8-3.2,0.8-4.7c0-1.9-0.3-3.6-0.7-5.4c-0.3-1.7,0-3.8,0.3-5.5c0.3-1.5,0.5-3,0.6-4.5c0-0.7,0.1-1.6,0-2.4
					c-0.2-0.7-0.7-1.3-0.9-2.1c-0.1,0.1-0.3,0.2-0.4,0.3c1.2-0.2,2.4-0.4,3.4-0.5c1.4-0.2,1.5-0.2,2.8,0c0.3,0,1.7,0,1.8,0.3
					c-0.2-0.2-0.1,0.2-0.1,0.3c0,0.3,0,0.7,0,1c0,1.2-0.1,2.4,0.1,3.4c0.1,0.8,0.1,1.5,0.2,2.3c0.1,2.1-0.7,4-0.9,6.1
					c-0.2,1.4-0.1,2.7-0.3,4c-0.3,1.8-0.1,3.5-0.1,5.3c0,1.1,0.1,2.2,0.1,3.2c0,1.6-0.4,3.1-0.6,4.6c-0.1,1.4,0,2.8,0.4,4
					c0.4,1.3,0.7,2.5,0.6,3.8c0.2-0.1,0.4-0.2,0.6-0.3c-2.9-0.3-5.7-0.5-8.6-0.8C203.4,213.9,202.7,214.2,203.1,214.2L203.1,214.2z"
					/>
			</g>
		</g>
		<g>
			<g>
				<path class="st1" d="M204.6,181.5c0.3,0.5,0.5,1,0.8,1.5c0.3,0.5,0.7,0.9,1.1,1.3c0.8,0.9,1.5,1.8,2.2,2.8
					c0.5,0.7,1,1.4,1.5,2.1c0.4,0.6,0.8,1.3,1.4,1.9c0.2,0.2,0.9-0.1,0.7-0.3c-0.5-0.5-0.9-1.2-1.3-1.8c-0.5-0.7-1.1-1.4-1.6-2.2
					c-0.7-1-1.3-1.9-2.1-2.8c-0.4-0.4-0.8-0.9-1.1-1.3c-0.3-0.5-0.6-1-0.9-1.6C205.1,181,204.4,181.2,204.6,181.5L204.6,181.5z"/>
			</g>
		</g>
		<g>
			<g>
				<path class="st1" d="M204.3,196.3c0.2,0.7,0.6,1.4,1,2.1c0.5,0.9,1,1.7,1.6,2.6c0.4,0.6,0.8,1.2,1.2,1.8c0.3,0.6,0.6,1.2,1,1.7
					c0.5,0.6,1.1,1,1.6,1.6c0.2,0.3,0.9,0,0.7-0.3c-0.4-0.6-1.1-1.1-1.6-1.6c-0.4-0.5-0.7-1-0.9-1.5c-0.3-0.6-0.8-1.2-1.2-1.9
					c-0.5-0.8-1-1.7-1.5-2.5c-0.4-0.7-0.8-1.3-1-2.1C204.9,195.7,204.2,195.9,204.3,196.3L204.3,196.3z"/>
			</g>
		</g>
	</g>
	<g>
		<g>
			<path class="st2" d="M235.8,196.2c-0.1,10.3-10.4,15.5-17.4,17.2c-5.4,1.3-10.9,1.3-16.3,0.1c-4.6-1-9.2-2.9-13.1-6.2
				c-2.9-2.5-5.4-6-5.8-10.3c-0.5-4.2,1.3-8.1,3.8-11c3.2-3.6,7.5-5.8,11.7-7.1c5.3-1.6,10.9-1.9,16.2-1c5.2,0.9,10.6,2.8,15,6.6
				C233.1,187.2,235.8,191.3,235.8,196.2c0,0.6,2.3,0.2,2.3-0.7c-0.1-4.6-2.4-8.6-5.4-11.4c-3.9-3.7-8.8-5.8-13.6-7
				c-5.7-1.4-11.8-1.4-17.6-0.2c-5,1.1-10,3.2-14.3,6.7c-3.1,2.7-5.9,6.4-6.4,11c-0.5,4.5,1.4,8.7,4.1,11.6
				c3.5,3.9,8.2,6.3,12.9,7.7c5.6,1.7,11.6,2,17.3,1.1c5.1-0.8,10.4-2.6,14.9-5.9c3.3-2.5,6.6-6,7.6-10.7c0.2-1,0.3-2,0.3-3.1
				C238.1,194.9,235.8,195.3,235.8,196.2z"/>
		</g>
	</g>
	<polygon class="st3" points="51.2,158.5 59.6,162.7 59.6,163.9 51.2,159.7 	"/>
	<polygon class="st3" points="51.2,158.5 53.4,157.4 59.6,160.3 59.6,162.7 	"/>
	<path class="st4" d="M61.4,131.8c0,0-1.7,1.7-2.8,1.9c-1.6,0.3-3.4,0.2-4,1.3"/>
	<path class="st5" d="M57.6,136.6c0,0-1.7,1.7-2.8,1.9c-1.6,0.3-3.4,0.2-4,1.3"/>
	<path class="st6" d="M49.1,149c0,0-1.4,2.3-2.5,2.8c-1.5,0.7-3.3,1.1-3.6,2.3"/>
	<line class="st7" x1="143" y1="219.8" x2="182" y2="198.8"/>
	<g>
		<g>
			<path class="st8" d="M140.3,26.3c0,0-5.3-3-10.3,5.5c-5.1,8.5,1.8,12.2,1.8,12.2L208,81.8c-1.5-4.9-2.9-7.7-0.9-12
				s7.7-5.6,10.7-4.7C223.4,66.7,140.3,26.3,140.3,26.3z"/>
		</g>
		<ellipse transform="matrix(0.5 -0.866 0.866 0.5 42.9262 220.8452)" class="st9" cx="212.7" cy="73.2" rx="10" ry="7.4"/>
	</g>
	<ellipse transform="matrix(0.5 -0.866 0.866 0.5 -24.7552 99.1935)" class="st9" cx="73.5" cy="71" rx="10" ry="7.4"/>
	<path class="st10" d="M117.7,251.3l32.4,0.2c0,0-2.5,21.7-3.9,33.1c-0.3,6-1.2,12.3-3.7,17.9c-4.6,10.1-11.9,18-11.9,18l0.7,49.6
		c0,0-1.6,6.3-13.1,6.6h-0.4c-11.4-0.2-13.1-6.6-13.1-6.6l0.7-49.6c0,0-7.3-7.9-11.9-18c-2.6-5.6-3.4-12-3.7-17.9
		c-1.5-11.4-3.9-33.1-3.9-33.1l32.4-0.2H117.7z"/>
	<path class="st10" d="M105.5,320.4c0,0,4.1,5.2,12.8,5.2c8.7,0,12.3-5.1,12.3-5.1"/>
	<g>
		<g>
			<g>
				<path class="st0" d="M149.2,254c1,1.4-3.4,3.4-4.1,3.7c-3.9,1.9-8.2,3.3-12.4,4.2c-10.8,2.7-21.9,3-32.7,0.1
					c-2.5-0.7-4.8-1.4-7.1-2.4c-0.9-0.4-1.9-0.8-2.8-1.3c-0.3-0.2-0.7-0.4-1-0.6c-0.3-0.2-1.6-1.1-1.2-1.2c0.9-0.3,0.7-1.3-0.3-1
					c-0.6,0.2-1.5,0.5-1.4,1.3c0.1,0.9,1.6,1.6,2.2,2c1.8,1.1,3.7,1.9,5.7,2.6c6,2.2,12.3,3.4,18.7,3.6c5.9,0.3,11.8-0.4,17.6-1.7
					c5-1.1,10.1-2.6,14.8-4.7c1.3-0.6,7.1-3.2,5.3-5.4C150.2,252.8,148.7,253.4,149.2,254L149.2,254z"/>
			</g>
		</g>
		<g>
			<g>
				<path class="st0" d="M149,257.3c0.8,1.3-3.7,3.3-4.4,3.6c-3.9,1.9-8.1,3.2-12.3,4.1c-4.8,1.2-9.8,2-14.7,2.1
					c-5.7,0.2-11.6-0.6-17.2-2.1c-2.5-0.7-4.8-1.5-7.2-2.5c-0.9-0.4-1.9-0.8-2.8-1.3c-0.4-0.2-2.5-1.7-2.3-1.8
					c0.9-0.3,0.7-1.4-0.3-1c-0.6,0.2-1.4,0.6-1.3,1.3c0.1,0.9,1.6,1.6,2.2,2c1.8,1,3.6,1.9,5.5,2.6c6,2.3,12.3,3.4,18.7,3.7
					c5.7,0.3,11.4-0.4,17.1-1.6c5-1.1,10.1-2.6,14.8-4.6c1.4-0.6,7-3,5.5-5.3C150,256.1,148.6,256.7,149,257.3L149,257.3z"/>
			</g>
		</g>
		<g>
			<g>
				<path class="st0" d="M148.7,260.6c0.9,1.7-3.5,3.4-4.5,3.9c-3.9,1.8-8.1,3.1-12.3,4c-4.9,1.2-10.1,2-15.1,2
					c-5.7,0-11.4-0.9-17-2.5c-2.4-0.7-4.7-1.5-7-2.6c-0.8-0.4-1.7-0.8-2.5-1.3c-0.2-0.1-2.6-1.7-1.9-2c1-0.4,0.1-0.6-0.5-0.3
					c-0.5,0.2-1.2,0.5-1.1,1.1c0.2,0.8,1.6,1.4,2.3,1.8c1.8,1,3.6,1.8,5.5,2.6c5.8,2.2,12,3.4,18.2,3.6c5.6,0.3,11.2-0.4,16.8-1.6
					c4.9-1,9.8-2.4,14.4-4.3c1.7-0.7,3.4-1.6,4.9-2.7c0.6-0.5,1.7-1.4,1.2-2.3C150.1,259.9,148.6,260.4,148.7,260.6L148.7,260.6z"/>
			</g>
		</g>
		<g>
			<g>
				<path class="st0" d="M148.5,264c0.5,1.5-3.9,3.2-4.8,3.5c-3.9,1.7-8.1,3-12.3,3.8c-4.5,1.1-9.3,1.8-13.9,1.9
					c-5.6,0.1-11.4-0.7-16.9-2.3c-2.4-0.7-4.7-1.5-7-2.5c-0.8-0.4-1.7-0.8-2.5-1.2c-0.3-0.2-0.7-0.4-1-0.6c-0.2-0.1-1.6-1.1-1.3-1.2
					c1-0.4,0.1-1.2-0.7-0.9c-2.4,1,0.3,2.7,1.5,3.4c1.8,1,3.6,1.9,5.5,2.6c5.6,2.2,11.7,3.4,17.7,3.6c5.5,0.3,10.9-0.3,16.4-1.4
					c4.9-1,10-2.4,14.6-4.3c1.7-0.7,3.4-1.5,4.7-2.6c0.7-0.5,1.8-1.5,1.4-2.5C149.8,262.9,148.2,263.3,148.5,264L148.5,264z"/>
			</g>
		</g>
		<g>
			<g>
				<path class="st0" d="M148.3,267.4c0.2,0.8-0.7,1.4-1.2,1.8c-1.2,0.8-2.5,1.4-3.7,2c-3.9,1.7-8.2,2.9-12.4,3.7
					c-4.5,1-9.2,1.7-13.9,1.7c-5.6,0-11.2-0.9-16.6-2.5c-2.4-0.7-4.7-1.6-7-2.6c-0.8-0.4-1.5-0.8-2.3-1.2c-0.4-0.2-2.8-1.8-2.1-2.2
					c0.9-0.4-0.5-0.4-0.9-0.2c-2.1,1,0.9,2.6,1.9,3.1c1.8,1,3.6,1.8,5.5,2.5c5.6,2.1,11.6,3.3,17.5,3.5c5.3,0.3,10.7-0.3,16-1.4
					c4.7-1,9.5-2.2,13.9-4c1.7-0.7,3.4-1.5,4.9-2.5c0.7-0.5,1.9-1.3,1.7-2.3C149.7,266.6,148.2,267,148.3,267.4L148.3,267.4z"/>
			</g>
		</g>
		<g>
			<g>
				<path class="st0" d="M148,270.7c0.1,0.7-1,1.3-1.4,1.6c-1.2,0.8-2.6,1.4-3.9,2c-3.9,1.6-8,2.7-12.1,3.5c-4.4,1-9.1,1.7-13.6,1.7
					c-5.5,0-11-0.9-16.4-2.5c-2.3-0.7-4.4-1.5-6.6-2.5c-0.8-0.4-1.6-0.8-2.3-1.2c-0.4-0.2-2.5-1.8-2.4-1.9c0.9-0.5,0.1-1.1-0.6-0.7
					c-2.1,1.1,0.5,2.6,1.6,3.3c1.7,1,3.5,1.9,5.4,2.6c5.4,2.1,11.2,3.3,17.1,3.7c5.3,0.4,10.5-0.2,15.8-1.2
					c4.8-0.9,9.7-2.2,14.3-3.9c1.8-0.7,3.5-1.4,5-2.5c0.7-0.5,1.8-1.3,1.7-2.3C149.5,269.7,148,270.1,148,270.7L148,270.7z"/>
			</g>
		</g>
		<g>
			<g>
				<path class="st0" d="M147.8,274.1c0,0.8-1,1.4-1.6,1.7c-1.3,0.8-2.7,1.4-4.1,2c-4,1.6-8.2,2.7-12.4,3.4c-4.2,0.9-8.7,1.5-13,1.4
					c-5.5-0.1-11-1-16.4-2.7c-2.2-0.7-4.3-1.5-6.4-2.6c-0.6-0.3-5-2.8-4.1-3.3c0.6-0.4-0.9-0.2-1.2-0.1c-1.6,1,1.4,2.6,2.2,3
					c1.7,1,3.5,1.8,5.4,2.5c5.4,2.1,11.2,3.3,17.1,3.6c5,0.3,10.1-0.2,15.1-1.2c4.7-0.9,9.4-2.1,13.8-3.7c1.8-0.7,3.5-1.4,5.1-2.4
					c0.8-0.5,1.9-1.2,2-2.2C149.4,273.5,147.8,273.7,147.8,274.1L147.8,274.1z"/>
			</g>
		</g>
		<g>
			<g>
				<path class="st0" d="M147.6,277.3c-0.1,0.7-1.2,1.2-1.8,1.5c-1.3,0.7-2.6,1.3-3.9,1.8c-3.8,1.5-7.9,2.5-11.9,3.4
					c-4.1,0.9-8.5,1.5-12.7,1.5c-5.4,0-10.8-0.9-16-2.5c-2.3-0.7-4.4-1.5-6.5-2.5c-0.8-0.4-1.6-0.8-2.3-1.2
					c-0.3-0.2-2.6-1.8-2.4-1.9c0.8-0.6-0.4-1.2-1-0.7c-2.6,1.8,6.1,5.4,7.3,5.8c5.3,2.2,11,3.4,16.8,3.8c5,0.4,10-0.1,14.9-1
					c4.6-0.8,9.3-2,13.7-3.5c1.8-0.7,3.5-1.4,5.2-2.3c0.9-0.5,2.1-1.3,2.3-2.4C149.3,276.4,147.7,276.6,147.6,277.3L147.6,277.3z"/>
			</g>
		</g>
		<g>
			<g>
				<path class="st0" d="M147.4,280.8c-0.3,0.8-1.3,1.3-2,1.6c-1.3,0.7-2.7,1.3-4.1,1.8c-3.9,1.4-8.1,2.5-12.1,3.2
					c-4,0.8-8.2,1.4-12.2,1.3c-5.4-0.1-10.7-1-15.9-2.7c-2.2-0.7-4.2-1.5-6.3-2.5c-0.6-0.3-5-2.8-4.3-3.3c0.7-0.6-0.8-0.5-1.2-0.2
					c-2,1.7,6.6,5.2,7.7,5.6c5.2,2.1,10.7,3.3,16.4,3.6c9.4,0.7,19.1-1.3,27.9-4.3c1.9-0.6,3.6-1.3,5.4-2.3c0.9-0.5,2.1-1.2,2.4-2.2
					C149.1,280.1,147.5,280.3,147.4,280.8L147.4,280.8z"/>
			</g>
		</g>
		<g>
			<g>
				<path class="st0" d="M147.2,284c-0.4,0.8-1.4,1.2-2.1,1.6c-1.4,0.7-2.8,1.2-4.1,1.7c-3.8,1.3-7.9,2.3-11.8,3.1
					c-3.9,0.7-8,1.3-12,1.3c-5.2-0.1-10.5-1-15.6-2.6c-2.2-0.7-4.3-1.6-6.4-2.6c-0.5-0.2-4.9-2.7-4.4-3.2c0.7-0.7-0.8-0.8-1.3-0.4
					c-1.8,1.8,6.3,5.2,7.5,5.7c5.1,2.1,10.5,3.4,16.1,3.8c9.2,0.8,18.8-1.1,27.6-3.9c1.9-0.6,3.6-1.3,5.4-2.2c1-0.5,2.2-1.2,2.7-2.2
					C149,283.3,147.5,283.4,147.2,284L147.2,284z"/>
			</g>
		</g>
		<g>
			<g>
				<path class="st0" d="M147,287.4c-0.4,0.7-1.5,1.2-2.2,1.6c-1.4,0.7-3,1.2-4.4,1.7c-3.8,1.3-7.8,2.2-11.7,2.9
					c-3.8,0.7-7.8,1.2-11.7,1.1c-5.2-0.2-10.4-1.1-15.4-2.8c-2.2-0.7-4.2-1.6-6.2-2.6c-0.6-0.3-4.6-2.6-4.2-3.1
					c0.6-0.8-0.9-0.9-1.3-0.4c-1.6,2,6.2,5.2,7.5,5.7c4.9,2.1,10.3,3.3,15.5,3.7c9.2,0.9,18.6-0.9,27.3-3.6c1.9-0.6,3.7-1.2,5.4-2.1
					c1.1-0.5,2.3-1.2,2.9-2.2C148.8,286.8,147.3,286.8,147,287.4L147,287.4z"/>
			</g>
		</g>
		<g>
			<g>
				<path class="st0" d="M146.8,290.8c-0.6,0.7-1.6,1.2-2.4,1.6c-1.5,0.7-3,1.2-4.4,1.7c-3.8,1.2-7.8,2.1-11.8,2.8
					c-3.6,0.6-7.3,1.1-11,1c-5.2-0.1-10.4-1.1-15.5-2.8c-2-0.7-4-1.5-5.9-2.5c-0.7-0.4-5-2.6-4.5-3.4c0.3-0.6-1.2-0.5-1.4,0
					c-0.7,1.3,2.2,2.7,3,3.2c1.7,1,3.4,1.8,5.2,2.6c4.8,2,10.1,3.2,15.3,3.6c8.8,0.8,17.9-1,26.4-3.4c1.9-0.6,3.7-1.2,5.5-2.1
					c1.1-0.5,2.3-1.1,3-2.1C148.6,290.2,147.1,290.3,146.8,290.8L146.8,290.8z"/>
			</g>
		</g>
		<g>
			<g>
				<path class="st0" d="M146.6,294.1c-0.7,0.8-1.6,1.2-2.5,1.6c-1.5,0.7-3,1.2-4.5,1.6c-3.8,1.2-7.9,2-11.8,2.7
					c-3.5,0.6-7.2,1-10.8,0.9c-5.1-0.2-10.3-1.2-15.1-2.9c-2.1-0.7-4-1.6-5.9-2.6c-0.7-0.4-1.5-0.8-2.2-1.3
					c-0.4-0.3-2.5-1.4-2.2-2.2c0.2-0.5-1.4-0.4-1.5,0.2c-0.4,1.2,2.4,2.7,3.3,3.2c1.6,1,3.4,1.8,5,2.5c4.8,2,10,3.2,15.1,3.6
					c8.5,0.8,17.3-0.9,25.5-3.2c1.9-0.5,3.7-1.1,5.5-1.9c1.2-0.5,2.5-1.1,3.4-2.1C148.5,293.7,147,293.7,146.6,294.1L146.6,294.1z"
					/>
			</g>
		</g>
		<g>
			<g>
				<path class="st0" d="M146.4,297.3c-0.8,0.8-2.1,1.3-3.2,1.7c-1.8,0.7-3.5,1.2-5.4,1.7c-4.2,1.1-8.5,1.9-12.8,2.5
					c-9.3,1.2-18.8-0.1-27.3-4.1c-1.6-0.7-3.1-1.6-4.4-2.6c-0.4-0.3-1.7-1.2-1.6-1.6c0.2-0.7-1.4-0.5-1.5,0.1
					c-0.2,0.6,0.7,1.3,1.1,1.6c1.1,1,2.4,1.7,3.6,2.4c4.1,2.3,8.8,3.7,13.4,4.6c9.7,1.9,19.4,0.6,28.9-1.9c2.2-0.6,4.3-1.2,6.4-2
					c1.4-0.5,2.9-1.2,3.9-2.2C148.3,297.1,146.9,296.9,146.4,297.3L146.4,297.3z"/>
			</g>
		</g>
	</g>
	<g>
		<g>
			<g>
				<path class="st11" d="M150.1,256.4c1,1.3-3.4,3.6-4.2,4c-3.9,2.2-8.4,3.7-12.7,5c-5,1.4-10.3,2.3-15.4,2.2
					c-6-0.1-12-1.5-17.6-3.5c-2.6-0.9-5-2-7.5-3.3c-0.9-0.4-1.8-0.9-2.6-1.4c-0.4-0.2-0.8-0.5-1.2-0.7c-0.2-0.1-0.4-0.3-0.6-0.4
					c-0.1-0.1-0.3-0.2-0.4-0.4c-0.2,0.3-0.2,0.4,0.1,0.2c1-0.3,0.8-1.7-0.3-1.4c-0.7,0.2-1.6,0.7-1.5,1.6c0.1,1,1.5,1.7,2.2,2.1
					c1.9,1.1,3.8,2.1,5.8,3c5.8,2.7,12.1,4.6,18.5,5.4c6.2,0.8,12.5,0,18.5-1.4c5.1-1.3,10.3-3.1,15-5.5c1.5-0.8,7.3-3.8,5.3-6.3
					C150.9,254.9,149.6,255.7,150.1,256.4L150.1,256.4z"/>
			</g>
		</g>
		<g>
			<g>
				<path class="st12" d="M149.9,259.1c0.4,0.6-0.5,1.6-0.9,2c-1,1-2.4,1.8-3.5,2.6c-3.9,2.3-8.4,3.8-12.7,5
					c-5,1.4-10.3,2.3-15.4,2.3c-6,0-12-1.5-17.7-3.5c-2.5-0.9-4.8-2-7.2-3.2c-0.9-0.4-1.7-0.9-2.6-1.4c-0.7-0.4-2.6-1.3-1.1-1.8
					c0.4-0.1-0.9-1.1-1.4-0.9c-2.2,0.8,1,2.7,1.8,3.2c1.8,1.1,3.6,2.1,5.6,2.9c5.6,2.6,11.6,4.4,17.8,5.3c6.1,0.9,12.3,0.3,18.4-1.1
					c5.1-1.2,10.3-2.9,14.9-5.3c1.5-0.8,7-3.4,5.3-5.7C150.9,258.9,149.4,258.4,149.9,259.1L149.9,259.1z"/>
			</g>
		</g>
		<g>
			<g>
				<path class="st13" d="M149.5,262.6c1,1.7-3.2,3.8-4.1,4.3c-3.9,2.3-8.4,3.7-12.7,4.9c-5.2,1.4-10.6,2.2-16.1,1.9
					c-5.7-0.3-11.4-1.8-16.9-3.7c-2.3-0.9-4.4-1.9-6.6-3c-0.8-0.4-1.6-0.8-2.4-1.3c-0.4-0.2-0.8-0.5-1.2-0.8
					c-0.1-0.1-1.4-1.2-1.2-1.3c0.9-0.4,0.7-0.8-0.2-0.5c-0.5,0.2-1.5,0.5-1.3,1.2c0.2,0.9,1.6,1.5,2.3,1.9c1.8,1.1,3.6,2,5.5,2.9
					c5.6,2.6,11.6,4.3,17.7,5.1c6,0.7,12.2,0.1,18.1-1.4c5-1.2,10.1-2.9,14.7-5.2c1.7-0.9,3.4-1.9,4.7-3.2c0.6-0.6,1.7-1.7,1.1-2.6
					C150.8,261.7,149.3,262.3,149.5,262.6L149.5,262.6z"/>
			</g>
		</g>
		<g>
			<g>
				<path class="st14" d="M149.4,265.8c-0.1-0.1-0.1,0.2-0.2,0.4c-0.3,0.4-0.7,0.8-1,1.1c-1.1,1-2.5,1.8-3.7,2.5
					c-4,2.1-8.4,3.6-12.7,4.7c-5,1.3-10.3,2.1-15.6,1.9c-5.5-0.2-11-1.6-16.3-3.5c-2.3-0.9-4.5-1.8-6.7-3c-0.8-0.4-1.6-0.9-2.4-1.3
					c-0.3-0.2-0.6-0.4-0.9-0.6c-0.2-0.2-0.5-0.3-0.7-0.5c-0.2-0.1-0.4-0.3-0.5-0.5c0,0.3,0.1,0.4,0.3,0.2c0.8-0.3,0-1.8-0.8-1.5
					c-2.3,1,0.6,3.1,1.5,3.7c1.7,1.1,3.4,2,5.1,2.8c5.4,2.6,11.2,4.3,17.2,5.2c6.1,0.9,12.3,0.4,18.4-1c5.1-1.1,10.2-2.8,14.8-5.2
					c1.8-0.9,6.8-3.4,5.4-6.1C150.1,264.2,149,264.8,149.4,265.8L149.4,265.8z"/>
			</g>
		</g>
		<g>
			<g>
				<path class="st15" d="M148.9,268.4c0.7,1.8-3.4,3.8-4.5,4.4c-3.8,2.2-8.1,3.6-12.3,4.7c-5.1,1.4-10.4,2.2-15.9,2.1
					c-5.6-0.1-11.2-1.4-16.5-3.4c-2.3-0.9-4.5-1.9-6.7-3c-0.8-0.4-1.6-0.9-2.3-1.3c-0.6-0.4-2.6-1.4-1.4-2c0.2-0.1-1-1-1.4-0.8
					c-1.7,0.8,1.4,2.6,2.1,3c1.6,1,3.4,1.9,5,2.7c5,2.4,10.3,4.1,15.9,5c11,1.9,23.1-0.4,33-5.2c1.8-0.9,3.5-1.8,5-3.1
					c0.7-0.6,1.7-1.5,1.4-2.5C150.3,268.6,148.9,268.2,148.9,268.4L148.9,268.4z"/>
			</g>
		</g>
		<g>
			<g>
				<path class="st16" d="M148.6,271.9c0.1,0.5-0.7,1.3-1.2,1.6c-1.1,1-2.5,1.7-3.7,2.4c-3.9,2.1-8.3,3.4-12.6,4.5
					c-5.1,1.2-10.3,1.9-15.7,1.6c-5.3-0.3-10.4-1.6-15.5-3.4c-2.1-0.8-4.1-1.7-6.2-2.8c-0.8-0.4-1.5-0.8-2.3-1.3
					c-0.3-0.2-0.6-0.4-0.8-0.5c-0.2-0.2-0.5-0.3-0.7-0.5c-0.3-0.3-0.4-0.5-0.7-0.4c1-0.5,0.1-1.8-0.8-1.4c-3.4,1.8,4.7,5.5,6,6.1
					c4.9,2.4,10.2,4.1,15.6,5c11.1,2,23.5-0.3,33.6-5.3c1.8-0.9,3.5-1.9,5-3.2c0.8-0.7,1.7-1.7,1.4-2.8
					C150,270.7,148.3,270.9,148.6,271.9L148.6,271.9z"/>
			</g>
		</g>
		<g>
			<g>
				<path class="st17" d="M148.3,274.9c0.1,0.8-0.7,1.5-1.2,2c-1.1,1-2.4,1.7-3.6,2.4c-3.9,2.1-8.3,3.5-12.7,4.5
					c-5.3,1.3-10.7,1.9-16.2,1.5c-5.1-0.4-10.3-1.7-15.1-3.6c-2-0.8-3.9-1.7-5.8-2.8c-0.6-0.3-4.7-2.7-3.8-3.3
					c0.5-0.3-1-0.7-1.4-0.4c-1.5,0.9,1.4,2.6,2.1,3c1.6,1,3.2,1.9,4.8,2.6c4.7,2.3,9.9,3.8,15.1,4.7c10.9,1.8,22.9-0.3,32.8-5
					c1.8-0.8,3.5-1.8,5-3c0.7-0.6,1.8-1.5,1.7-2.5C149.9,274.5,148.2,274.5,148.3,274.9L148.3,274.9z"/>
			</g>
		</g>
		<g>
			<g>
				<path class="st18" d="M148.1,278.4c0,0.8-0.9,1.5-1.4,1.9c-1.2,0.9-2.5,1.7-3.7,2.3c-4,2.1-8.5,3.4-12.9,4.3
					c-5.3,1.1-10.8,1.6-16.3,1c-4.9-0.5-9.8-1.9-14.3-3.7c-1.9-0.8-3.7-1.7-5.5-2.7c-0.5-0.3-4.4-2.9-3.9-3.2c0.9-0.6-0.6-0.4-1-0.1
					c-1.6,1.1,0.9,2.5,1.8,3c1.6,1,3.3,1.9,5,2.7c4.8,2.2,10,3.7,15.2,4.5c10.7,1.5,22.4-0.7,32.1-5.4c1.7-0.8,3.4-1.8,4.9-3
					c0.7-0.6,1.7-1.4,1.6-2.4C149.6,277.5,148,277.9,148.1,278.4L148.1,278.4z"/>
			</g>
		</g>
		<g>
			<g>
				<path class="st19" d="M147.7,281.3c0,0.6-0.9,1.3-1.4,1.6c-1.2,0.9-2.5,1.7-3.7,2.3c-3.8,1.9-7.9,3.3-12,4.1
					c-10.2,2.3-20.5,1.8-30.3-2c-2-0.8-3.8-1.6-5.7-2.7c-0.8-0.4-1.5-0.8-2.2-1.3c-0.4-0.2-2.2-1.7-2.2-1.6c0.9-0.7-0.4-1.4-1.1-0.9
					c-2.3,1.9,5.2,5.3,6.4,5.9c4.6,2.3,9.6,3.8,14.7,4.6c10.7,1.8,22.6-0.2,32.4-4.9c1.7-0.8,3.4-1.7,4.9-2.9
					c0.8-0.6,1.8-1.5,1.9-2.6C149.5,280.3,147.8,280.5,147.7,281.3L147.7,281.3z"/>
			</g>
		</g>
		<g>
			<g>
				<path class="st20" d="M147.4,284.4c-0.1,0.7-0.9,1.3-1.5,1.8c-1.1,0.9-2.4,1.6-3.5,2.2c-3.7,1.9-7.8,3.2-11.8,4.1
					c-10.2,2.4-20.5,1.9-30.3-2c-2-0.8-3.8-1.7-5.7-2.7c-0.5-0.3-4.5-2.7-4-3.3c0.6-0.5-1.1-0.9-1.5-0.5c-1.6,1.6,6,5.2,7.1,5.7
					c4.5,2.2,9.5,3.6,14.4,4.4c10.5,1.7,22-0.3,31.6-4.7c1.7-0.8,3.4-1.7,4.8-2.8c0.8-0.6,1.8-1.4,2-2.4
					C149.2,283.8,147.5,283.7,147.4,284.4L147.4,284.4z"/>
			</g>
		</g>
		<g>
			<g>
				<path class="st21" d="M147.4,287c-0.2,0.7-1,1.3-1.5,1.8c-1.1,0.9-2.3,1.6-3.5,2.2c-3.5,1.9-7.4,3.1-11.3,4
					c-10.1,2.5-20.6,2.3-30.4-1.4c-2-0.7-3.9-1.6-5.8-2.6c-0.5-0.3-4.6-2.6-4.2-3c0.3-0.3-0.9-1.5-1.1-1.3c-0.8,1.1,1.9,3,2.6,3.4
					c1.3,0.9,2.7,1.7,4,2.4c4.2,2.2,8.9,3.7,13.6,4.6c10.4,2,22,0.3,31.7-4c1.8-0.8,3.4-1.7,5-2.8c0.8-0.6,1.8-1.3,2-2.3
					C148.7,287.8,147.5,286.7,147.4,287L147.4,287z"/>
			</g>
		</g>
		<g>
			<g>
				<path class="st22" d="M146.9,290.6c-0.3,0.7-1,1.2-1.6,1.6c-1.1,0.8-2.3,1.5-3.5,2.1c-3.6,1.8-7.6,3.1-11.6,3.8
					c-9.9,2.1-20,1.8-29.5-2c-1.9-0.8-3.7-1.7-5.5-2.7c-0.7-0.4-1.4-0.8-2.1-1.3c-0.4-0.3-0.8-0.6-1.2-0.9c-0.2-0.2-0.4-0.3-0.6-0.5
					c-0.1-0.2-0.3-0.6-0.4-0.4c0.5-0.9-1-1-1.4-0.4c-0.8,1.4,1.7,2.8,2.6,3.4c1.5,1,3,1.8,4.5,2.6c4.4,2.1,9.2,3.5,14.1,4.2
					c10.3,1.5,21.5-0.3,30.9-4.6c1.6-0.8,3.2-1.6,4.6-2.7c0.8-0.6,1.8-1.3,2.2-2.3C148.9,289.8,147.2,290,146.9,290.6L146.9,290.6z"
					/>
			</g>
		</g>
		<g>
			<g>
				<path class="st23" d="M146.8,293.3c-1,1.8-3.4,2.9-5,3.6c-3.5,1.8-7.3,3-11.1,3.8c-9.8,2.2-19.9,2.1-29.4-1.4
					c-2-0.8-3.9-1.6-5.8-2.7c-0.7-0.4-1.5-0.8-2.2-1.3c-0.3-0.2-0.6-0.4-0.8-0.6c-0.2-0.1-0.4-0.3-0.6-0.5c-0.2-0.1-0.4-0.3-0.5-0.5
					c-0.2-0.3-0.3-0.3-0.2-0.1c0.2-0.5-1-1.7-1.2-1.2c-0.5,1.4,1.9,2.9,2.8,3.4c1.3,1,2.8,1.8,4.1,2.5c4.2,2.2,8.9,3.6,13.6,4.4
					c10,1.7,21,0.1,30.3-3.9c1.7-0.7,3.4-1.6,4.9-2.6c0.9-0.6,1.8-1.3,2.3-2.2C148.3,294,147.1,292.7,146.8,293.3L146.8,293.3z"/>
			</g>
		</g>
		<g>
			<g>
				<path class="st24" d="M146.7,296.4c-1.3,2-4,3.2-6.1,4.1c-3.9,1.8-8.2,3.1-12.5,3.7c-10.3,1.8-20.8,1.1-30.3-3.4
					c-1.6-0.8-3.2-1.7-4.6-2.7c-0.5-0.4-1.1-0.8-1.5-1.2c-0.1-0.1-0.3-0.4-0.4-0.4s0.2,0.2,0.1,0.5c0.1-0.5-0.9-1.7-0.9-1.4
					c-0.5,1.8,2.7,3.5,3.7,4.3c3.5,2.4,7.7,4,11.7,5.1c10.8,3,23,1.8,33.3-2.3c2-0.8,3.8-1.7,5.6-2.8c1-0.6,2.1-1.4,2.8-2.4
					C147.8,297.3,146.9,296,146.7,296.4L146.7,296.4z"/>
			</g>
		</g>
	</g>
	<g>
		<g>
			<path class="st25" d="M90.7,269.6c6.7,5.7,14.1,10.7,21.9,14.9c3.8,2.1,7.8,3.8,11.8,5.5c4.2,1.7,8.7,3.5,13.3,3.6
				c1,0,1-1.6,0-1.6c-4.5-0.1-9-2.1-13.1-3.6c-3.9-1.6-7.9-3.4-11.6-5.4c-7.6-4-14.7-8.9-21.2-14.4C91.1,267.9,89.9,269,90.7,269.6
				L90.7,269.6z"/>
		</g>
	</g>
	<polygon class="st26" points="0.9,226.9 0.5,237.2 140.2,304.8 140.2,294.9 	"/>
	<polygon class="st26" points="140.2,304.6 204.5,272.6 204.5,262.1 140.2,294.7 	"/>
	<g>
		<path class="st8" d="M77.5,62.1c0,0-5.3-3-10.3,5.5c-5.1,8.5,1.8,12.2,1.8,12.2l76.3,37.8c-1.5-4.9-2.9-7.7-0.9-12
			c2-4.3,7.7-5.6,10.7-4.7C160.7,102.5,77.5,62.1,77.5,62.1z"/>
	</g>
	<g>
		<g>
			<path class="st25" d="M107.5,103c1.3-1.9,3.7-2.9,5.7-3.7c2.7-1.2,5.4-2.2,8.2-3.2c2.1-0.7,4-1.4,6-2.3c3.5-1.6,7.4-2,10.9-3.5
				c0.6-0.3-0.3-0.3-0.6-0.2c-3.5,1.6-7.6,2.1-11.1,3.6c-2.3,1-4.6,1.8-7,2.6c-2.7,1-5.4,2-8,3.3c-1.8,0.9-3.8,1.9-5,3.5
				C106.4,103.3,107.3,103.3,107.5,103L107.5,103z"/>
		</g>
	</g>
	<g>
		<g>
			<path class="st11" d="M110,100.7c0.6-2.6,3.2-3.8,4.8-5.6c0.9-0.9,1.6-2,2.6-2.7c1.2-0.8,2.6-1.4,3.8-2.1
				c0.3-0.1,0.4-0.4,0.1-0.6c-0.3-0.2-0.8,0-1.1,0.2c-1.4,0.7-2.8,1.3-4,2.2c-1.1,0.8-1.9,1.9-2.8,2.9c-1.8,1.9-4.4,3.3-5,6
				C108.5,101.5,109.9,101.2,110,100.7L110,100.7z"/>
		</g>
	</g>
	<g>
		<g>
			<path class="st11" d="M111,101.2c3.2-1.4,6-3.3,8.7-5.5c2.7-2.3,5.5-4.7,9.2-4.9c0.9,0,1.2-1.2,0.1-1.2c-3.6,0.2-6.6,2.3-9.3,4.5
				c-3,2.5-5.8,4.6-9.4,6.1C109.4,100.6,110.2,101.5,111,101.2L111,101.2z"/>
		</g>
	</g>
	<g>
		<g>
			<path class="st11" d="M111.9,100.8c2.5-0.2,4.3-1.3,6.4-2.6c5.8-3.4,12-6.2,18.2-8.9c4-1.7,7.9-3.4,11.3-6
				c3.1-2.3,5.9-4.8,8.4-7.7c4.5-5.1,8.2-10.9,11.5-16.8c1.4-2.5,2.7-4.9,4.2-7.2c0.5-0.8,1-1.5,1.7-2.2c0.2-0.2,0.5-0.4,0.7-0.5
				c0.2-0.1,0.4-0.1,0.4-0.1c0.8,0,1.6-1.1,0.5-1.1c-1.4-0.1-2.5,0.9-3.4,1.9c-1.4,1.6-2.4,3.4-3.4,5.2c-3.3,5.5-6.3,11.1-10.2,16.3
				c-4.7,6.2-10.5,11.8-17.5,15.3c-4.4,2.2-9.1,3.8-13.5,5.9c-2.7,1.3-5.4,2.6-8,4c-1.4,0.8-2.8,1.7-4.1,2.5
				c-1.1,0.5-1.9,0.8-3.2,0.9C111.1,99.7,110.8,100.9,111.9,100.8L111.9,100.8z"/>
		</g>
	</g>
	<g>
		<g>
			<path class="st11" d="M108.8,100.9c-0.8-1.2-0.5-2.9,0.1-4c0.7-1.4,1.9-2.3,3.3-2.9c3-1.5,6.1-2.8,9.2-4.1
				c0.3-0.1,0.6-0.5,0.4-0.8c-0.2-0.3-0.8-0.2-1.1-0.1c-1.8,0.8-3.5,1.6-5.3,2.5c-1.7,0.8-3.4,1.4-5,2.4c-2.4,1.5-4.8,5-3,7.8
				C107.7,102.1,109.2,101.5,108.8,100.9L108.8,100.9z"/>
		</g>
	</g>
	<g>
		<g>
			<path class="st25" d="M110.6,99.3c5.8-2.9,11.7-5.4,17.7-7.8c1-0.4,1.6-0.8,2.3-1.6c0.7-0.9,1.5-1.7,2.4-2.4
				c2.6-1.9,5.7-2.3,8.4-3.9c1.9-1.2,3.5-2.7,5.2-4.1c11-10,20.6-21.3,31.9-31c3-2.6,6.1-5,9.5-7.2c2.6-1.7,5.4-3.3,8.4-3.8
				c0.7-0.1,1.3-0.9,0.3-0.7c-5.9,1.2-11.1,4.9-15.7,8.6c-6.2,4.9-11.8,10.4-17.4,16c-5.2,5.2-10.3,10.5-15.6,15.7
				c-2,1.9-3.9,3.7-6,5.3c-0.7,0.6-1.5,1.1-2.4,1.6c-1.4,0.7-3.1,1.1-4.5,1.8c-1.7,0.8-3.4,1.8-4.6,3.1c-0.6,0.6-1.1,1.6-1.9,2.1
				c-1.1,0.7-2.7,1.1-3.9,1.6c-1.8,0.7-3.4,1.5-5.2,2.2c-3.3,1.4-6.4,2.9-9.6,4.4C108.8,99.5,110.2,99.5,110.6,99.3L110.6,99.3z"/>
		</g>
	</g>
	<g>
		<g>
			<path class="st11" d="M109.1,101.8c2.9-0.5,5.6-2.2,8.1-3.6c3.4-2.1,6.8-4.2,10.3-6.3s7-4.1,10.7-5.5c1.5-0.5,3.1-1,4.5-1.1
				c1-0.1,2,0,3-0.2c2.3-0.6,4.2-1.9,6.1-3.3c2.5-1.8,4.8-3.8,7.1-6c5.4-5,10.4-10.3,15.8-15.4c2.6-2.5,5.2-4.9,8.1-7.1
				c1.8-1.4,4-3.1,6.4-3.4c0.9-0.1,1.2-1.3,0.1-1.2c-2.1,0.2-4,1.4-5.7,2.5c-2.5,1.7-4.7,3.6-7,5.6c-5.4,4.9-10.4,10.3-15.7,15.3
				c-2.5,2.4-4.9,4.7-7.6,6.9c-2,1.6-4,3.2-6.3,4.2c-2.1,0.9-4.3,0.6-6.5,1.1c-3.6,0.9-7,2.7-10.3,4.4c-4,2.3-7.9,4.8-11.8,7.2
				c-2.9,1.8-6,3.9-9.4,4.5C107.8,100.8,108.2,102,109.1,101.8L109.1,101.8z"/>
		</g>
	</g>
	<g>
		<g>
			<path class="st11" d="M113.5,97.5c2-2.2,3.6-4.6,5.9-6.4c0.7-0.5,1.4-0.9,2.1-1.4c1.1-0.8,2.2-1.7,3.3-2.6
				c4.4-3.6,8.9-7.4,13.2-11c12.7-10.8,25.3-22,37.4-33.6c5.8-5.6,11.6-11.4,16.8-17.7c0.4-0.5-1.1-0.3-1.4,0
				c-4.4,5.5-9.5,10.5-14.5,15.6c-6.2,6.1-12.6,12-19.1,17.8c-10.6,9.6-21.5,18.9-32.5,28c-1.3,1.1-2.7,2.2-4,3.3
				c-0.2,0.1-0.3,0.2-0.5,0.3c-0.2,0.1,0.1-0.1,0,0c-0.6,0.4-1.2,0.8-1.7,1.2c-2.4,1.9-4.1,4.4-6.2,6.6
				C111.7,97.9,113.2,97.8,113.5,97.5L113.5,97.5z"/>
		</g>
	</g>
	<g>
		<g>
			<path class="st11" d="M108.8,98.8c3.2-1,5.4-3,7.9-5.1c0.8-0.7,1.7-1.2,2.5-1.8c2.1-1.3,4-2.7,6.1-4c8.3-5.7,16.5-11.5,24.5-17.5
				c10.1-7.5,19.7-15.5,29.3-23.6c9.5-8.1,19.1-16,29-23.8c3.9-3.2,7.9-6.2,11.9-9.2c0.7-0.6,1.5-1.1,2.2-1.6c0,0,0.5-0.4,0.2-0.1
				c-0.4,0.3,0.2-0.2,0.3-0.2c0.2-0.2,0.5-0.4,0.7-0.5c0.4-0.3,0.8-0.6,1.2-0.8c0.1-0.1,0.3-0.2,0.4-0.2c0.5-0.3-0.8,0.3-0.4,0.2
				c0.9-0.3,2.5-1.4,1.6-2.5c-0.8-1.1-3.1-0.4-4-0.1c-1.9,0.7-3.7,2.4-5.3,3.5c-3.3,2.4-6.4,4.8-9.6,7.3
				c-9.4,7.3-18.5,14.8-27.6,22.4c-9.8,8.2-19.3,16.5-29.4,24.1c-8.4,6.4-16.9,12.5-25.4,18.5c-2.8,1.9-5.5,3.8-8.4,5.7
				c-0.6,0.4-1.2,0.8-1.7,1.1c-1.4,0.9-2.7,2-3.8,3.1c-0.6,0.5-1.1,1-1.7,1.4c-0.2,0.2-0.4,0.3-0.6,0.4c0,0-0.8,0.4-0.5,0.3
				c-0.9,0.3-3,1-2.7,2.4C105.6,99.4,108,99.1,108.8,98.8L108.8,98.8z"/>
		</g>
	</g>
	<g>
		<path class="st25" d="M109.6,101.2c4.5-4.5,9.8-8.5,15.4-11.6c2.6-1.5,5.3-2.7,8-3.8c0.6-0.2,1.1-0.6,1.6-0.9
			c1.7-1.1,3.3-2.4,4.7-3.6c3-2.5,5.8-5,8.7-7.6c8.8-8,17.3-16.4,25.6-24.8c8.1-8.4,17.5-15.4,26-23.2c3.7-3.4,7.9-8.2,12-11.1
			c1.7-1.2,10.8-5.9,10.9-6.4c0.1-0.5-0.8-0.4-1-0.4c-3.7,0.5-7.2,2.3-10.3,4.2c-4,2.6-7.8,5.5-11.3,8.7
			c-8.8,7.7-16.9,16.2-24.9,24.5c-8.5,8.8-17.1,17.3-25.9,25.6c-3.3,3.1-6.5,6-10,8.9c-1.9,1.6-3.7,3.2-5.7,4.6
			c-0.3,0.2-0.6,0.4-0.9,0.6c-0.1,0-0.1,0.1-0.2,0.1c-0.1,0,0.3-0.2,0,0c-0.1,0.1-0.2,0.1-0.3,0.2c-0.1,0-0.2,0.1-0.2,0.1
			c-0.2,0.1,0.2-0.1,0.2-0.1c0,0.1-0.4,0.2-0.5,0.2c-1.6,0.6-3.1,1.3-4.5,2.1c-5.9,2.9-11.3,6.5-16.3,10.8c-1.2,1.1-2.4,2.2-3.4,3.3
			c-0.4,0.4,0.4,0.6,0.6,0.6C108.6,101.9,109.2,101.6,109.6,101.2L109.6,101.2z"/>
	</g>
	<g>
		<g>
			<path class="st25" d="M102.5,106.5c0.8-1.9,1.6-3.6,2.6-5.4c1-1.8,2-3.6,3.4-5s3.2-2,4.8-3c1.7-1,3.2-2.1,4.6-3.4
				c0.6-0.6-0.9-0.4-1.2-0.1c-1.6,1.4-3.2,2.6-5,3.5c-1.6,0.9-3.4,1.6-4.6,3c-1.4,1.4-2.3,3.2-3.3,4.8c-1.1,1.9-2,3.8-2.8,5.8
				C100.8,107.1,102.3,106.9,102.5,106.5L102.5,106.5z"/>
		</g>
	</g>
	<g>
		<g>
			<path class="st25" d="M98.7,112.7c4.8-5.5,11.3-9,17.8-12.2c2.2-1.1,4-2.3,6.1-3.6c7.1-5.2,14.1-10.6,21-16.2
				c9.3-7.3,18.4-14.7,27.5-22.2c4.3-3.5,8.6-7.3,12.8-10.9c6-5,12.4-9.8,18.9-14.2c5.3-3.6,10.7-7.2,16-11
				c3.9-2.9,7.9-5.9,10.9-9.7c0.6-0.8,1.2-1.5,1.7-2.4c0.1-0.2-1.3-0.1-1.5,0.3c-2.5,4-6.2,7.1-9.9,10c-4.9,3.7-10.2,7.2-15.3,10.7
				c-6,4.1-12,8.3-17.7,12.9c-4.8,3.8-9.5,8-14.2,11.9c-9,7.6-18.1,15-27.3,22.3c-7.4,5.8-14.8,11.7-22.4,17.3
				c-1.6,1.2-3.4,2.7-4.9,3.5c-2.8,1.5-5.7,2.8-8.6,4.3c-3,1.7-5.8,3.4-8.4,5.6c-1.4,1.1-2.6,2.4-3.7,3.6
				C97,113.2,98.5,113,98.7,112.7L98.7,112.7z"/>
		</g>
	</g>
	<g>
		<g>
			<path class="st25" d="M87.7,112.3c4.4-3.5,9.8-5.9,14.9-8.1c5.5-2.4,11.1-4.3,16.7-6.6c2.2-0.9,4.2-1.9,6.3-3
				c2.5-1.4,4.7-3.4,7-5.1c3.1-2.4,6.1-4.7,9.4-6.8c3.4-2.1,6.9-3.5,10.5-4.9c3.7-1.4,6.8-3.4,9.8-6c3.4-2.9,6.6-5.8,10-8.7
				c3.3-2.9,6.6-5.8,9.9-8.7c3.1-2.7,6-5.4,9.6-7.4c2.4-1.4,5-2.5,7-4.3c0.8-0.8,1.6-1.6,2.3-2.5c2.7-3.1,5.3-6.1,8-9.2
				c3.2-3.6,6.3-7.3,9.6-10.9c2.3-2.6,4.5-5.2,7-7.6c0.2-0.2,0.3-0.3,0.5-0.5s0.4-0.3,0.3-0.2c1.3-1-0.7-1.5-1.6-0.9
				c-2.2,1.7-3.9,3.9-5.8,5.9c-3.2,3.4-6.2,7-9.3,10.4c-3,3.4-5.8,6.8-8.8,10.2c-1,1.2-2.1,2.3-3.1,3.4c-0.3,0.4-0.7,0.7-1,1.1
				c-0.1,0.1-0.2,0.2-0.3,0.3c-0.1,0.1-0.1,0.1,0,0c-0.4,0.3-0.8,0.6-1.3,0.9c-1.7,1.1-3.4,2-5.1,3s-3.4,2.2-4.8,3.4
				c-3.3,2.7-6.4,5.5-9.6,8.3c-3.3,2.9-6.6,5.8-9.9,8.7c-3.2,2.8-6.2,5.8-9.7,8.1c-3.4,2.2-7.3,3-10.8,4.6c-3.4,1.7-6.6,3.7-9.7,6
				c-4.7,3.4-9.1,7.6-14.4,10.1c-10.5,4.8-22,7.8-31.8,14.1c-1.1,0.7-2.1,1.4-3.2,2.2C84.8,112.5,86.8,113,87.7,112.3L87.7,112.3z"
				/>
		</g>
	</g>
	<g>
		<path class="st0" d="M72.8,122.5c4.8-7.1,8-4.6,14.6-10.2c0.6-0.5,1.2-1,1.8-1.5c-0.7,0.5,0.2-0.1,0.4-0.3
			c0.4-0.3,0.7-0.5,1.1-0.8c1.2-0.8,2.3-1.6,3.5-2.4c2.1-1.3,4.1-2.5,6.2-3.5c1.8-0.9,3.4-1.9,5.1-2.9c2.1-1.3,3.7-2.9,5.5-4.4
			c5.7-5.1,11.4-9.6,18.1-13.6c0.2-0.1,0.5-0.3,0.7-0.4c0.5-0.3,0.6-0.6-0.1,0.1c0.6-0.6,1.8-0.9,2.6-1.2c1.7-0.8,3.4-1.7,4.9-2.8
			c2.5-1.7,4.5-3.8,6.7-5.8c0.7-0.7,1.5-1.3,2.2-2c0.2-0.1,1.1-0.9,0.6-0.5c0.5-0.3,0.9-0.7,1.4-1c1.8-1.2,3.5-2.3,5.2-3.6
			c1.5-1.3,2.3-2.8,3.4-4.3s2.3-3.2,3.4-4.7c1-1.4,2-2.9,2.8-4.3c0.2-0.4,0.4-0.7,0.7-1c0.4-0.4-0.5,0.5,0.2-0.2
			c0.1-0.1,0.3-0.3,0.4-0.4c0.2-0.1,0.3-0.3,0.5-0.4c-0.1,0.1-0.6,0.4,0,0c0.4-0.3,0.8-0.5,1.2-0.8c0.5-0.3-0.6,0.3-0.1,0
			c0.2-0.1,0.4-0.2,0.6-0.3c0.5-0.2,0.9-0.4,1.4-0.6c0.4-0.2,0.9-0.3,1.3-0.5c0.2-0.1,0.8-0.3-0.1,0c0.3-0.1,0.6-0.2,0.8-0.3
			c2.2-0.7,4.2-1.4,6.3-2.2c4.8-1.9,8.6-5.4,12.4-8.9c5.1-4.6,10.3-9.4,15.7-13.7c0.4-0.3,0.8-0.6,1.2-0.9c0.1-0.1,0.6-0.5,0.3-0.2
			c-0.3,0.2,0.2-0.2,0.3-0.2c0.8-0.6,1.5-1.1,2.3-1.7c1.5-1.1,3.1-2.2,4.6-3.2c0.8-0.5,1.6-1,2.4-1.4c0.4-0.2,0.7-0.4,1.1-0.6
			c0.2-0.1,0.4-0.2,0.6-0.3c0.4-0.2-0.6,0.3,0.1,0c1.5-0.8,3.1-1.5,4.6-2.1c0.1,0,0.4-0.2,0.6-0.2c-0.6,0-0.6,0.2-0.2,0.1
			c0.4-0.1,0.8-0.3,1.2-0.4c0.8-0.2,1.5-0.4,2.3-0.6c1.3-0.3,3.9-1.6,3.4-3.3c-0.5-1.8-3.4-1.3-4.6-1.1c-7.4,1.5-14.2,5.4-20.2,9.7
			c-6.2,4.3-12,9.4-17.6,14.5c-2.3,2.1-4.5,4.1-6.9,6.2c-0.9,0.8-1.8,1.6-2.8,2.4c-0.2,0.2-0.4,0.3-0.6,0.5
			c-0.1,0.1-0.2,0.1-0.3,0.2c-0.4,0.4,0.3-0.3,0.3-0.3c-0.2,0.3-0.8,0.6-1.1,0.8c-0.5,0.3-1.4,0.6-0.1,0.1c-0.9,0.3-1.7,0.7-2.6,1.1
			c-0.2,0.1-0.4,0.2-0.7,0.2c-0.6,0.2,0.7-0.2,0.1,0c-0.5,0.1-0.9,0.3-1.4,0.5c-1,0.3-2,0.7-3,1c-4.2,1.5-8.6,3.3-11.5,6.9
			c-1,1.3-1.8,2.9-2.7,4.2c-1.1,1.6-2.4,3.2-3.4,4.7c-0.5,0.7-1,1.4-1.4,2.1c-0.5,0.8-0.8,1.4-1.2,1.8c-0.2,0.2-0.3,0.3-0.5,0.4
			c-0.1,0.1-0.6,0.5-0.3,0.3s-0.3,0.2-0.3,0.2c-0.2,0.2-0.5,0.3-0.7,0.5c-0.8,0.6-1.7,1.1-2.6,1.7c-3.2,2.1-5.8,4.8-8.6,7.4
			c-0.4,0.4-0.9,0.8-1.3,1.2c-0.3,0.3-0.7,0.6-0.1,0.1c-0.3,0.2-0.6,0.5-0.9,0.7c-0.6,0.4-1.3,0.8-2,1.2c-0.1,0.1-0.7,0.4-0.2,0.1
			c0.5-0.3-0.2,0.1-0.3,0.1c-0.5,0.3-1,0.5-1.5,0.7c-6.8,3.3-12.8,7.9-18.6,12.6c-1.7,1.3-3.3,2.7-4.8,4.1c-0.1,0.1-2.9,2.3-2.8,2.5
			c0-0.1,0.8-0.6,0.3-0.2c-0.1,0.1-0.2,0.1-0.3,0.2c-0.2,0.1-0.3,0.2-0.5,0.4c-0.4,0.3-0.8,0.5-1.2,0.8c-0.8,0.5-1.7,1-2.5,1.5
			c-4.3,2.4-8.7,4.7-12.7,7.6c-6.7,4.8-12.4,3.8-17.4,10.3c-1.6,2.1-2.7,4.6-4.1,6.8c-1.1,1.6,0.4,2.1,1.8,2.1
			c1.9,0,4.7-2.9,4.7-2.9L72.8,122.5z"/>
	</g>
	<g>
		<g>
			<path class="st24" d="M114.2,102.2c10.7-7.4,21.5-14.8,32.6-21.7c5.2-3.3,10.6-6.2,15.6-9.9c2.4-1.8,4.5-3.7,6.8-5.6
				c2.1-1.8,4.1-3.4,6.1-5.3c0.9-0.9,1.8-1.9,2.6-2.9c0.4-0.6,0.9-1.2,1.2-1.8c0.1-0.2,0.3-0.4,0.4-0.7c0,0.1,0.5-0.9,0.2-0.4
				c-0.3,0.4,0.2-0.3,0.3-0.4c0.2-0.2,0.4-0.4,0.5-0.6c0.2-0.2,0.5-0.5,0.7-0.7c-0.5,0.5,0.5-0.5,0.7-0.6c3-2.6,6.1-4.8,9.2-7.1
				c2.5-1.9,5.2-3.7,7.3-6.1c2.5-3,4.9-5.7,7.6-8.4c3.6-3.5,7.5-7,11.5-10.1c1-0.7,2-1.4,3-2.1c0.5-0.4,1-0.7,1.6-1
				c0.2-0.1,0.3-0.2,0.5-0.3c0.3-0.2,0.3-0.2,0.1-0.1c0.1-0.1,0.3-0.1,0.4-0.2c0.9-0.5,1.9-1,2.8-1.5c0.5-0.2,0.9-0.4,1.4-0.6
				c-0.1,0-0.7,0.2-0.1,0.1c0.3-0.1,0.6-0.2,0.9-0.3c1.2-0.3,2.9-1.4,2.5-2.9c-0.4-1.5-2.5-1.6-3.5-1.3c-4,1.2-7.7,3.4-11.1,5.7
				c-3.8,2.7-7.4,5.7-10.8,8.9c-3.3,3-6.4,6.1-9.3,9.5c-1,1.1-1.8,2.3-2.8,3.4c-0.1,0.1-0.2,0.2-0.3,0.3c-0.3,0.3,0.6-0.5,0.1-0.1
				c-0.3,0.2-0.5,0.5-0.8,0.7c-0.7,0.6-1.4,1.1-2.1,1.7c-3.1,2.5-6.3,4.7-9.4,7.2c-2.6,2.1-5.1,4.1-6.8,7c-1.3,2.2-3.2,3.8-5,5.4
				c-2.1,1.8-4.2,3.5-6.3,5.4c-4.5,3.9-9.8,6.9-14.9,10.1c-12.7,7.7-24.9,16.1-37.1,24.4c-1.1,0.7-1.5,2.3-0.3,3.1
				C111.1,103.4,113,103,114.2,102.2L114.2,102.2z"/>
		</g>
	</g>
	<g>
		<path class="st25" d="M70.3,118.2c3.7-6.4,9-4.8,15-9.2c5.1-3.7,10.7-6.6,16.7-9.1c4-1.7,7.7-2.8,11.8-4.3c0.5-0.2,1-0.4,1.5-0.6
			c0.8-0.4,1.2-0.9,1.8-1.6c3.3-3.5,6.7-6.9,10.1-10.3c3.4-3.4,6.9-6.8,10.3-10.3c2.8-2.9,5.4-5.8,9-7.9c3.1-1.7,6.3-2.9,9.5-4.4
			c1.8-0.9,3.4-1.9,5-3c1.2-0.9,2.3-1.8,3.4-2.8c2.7-2.4,5.1-5,7.4-7.7c1-1.2,2-2.4,2.9-3.6c0.3-0.5,0.6-1,0.9-1.5
			c0-0.1,0.1-0.2,0.1-0.2c-0.1,0.2-0.1,0.1,0,0c0.1-0.1,0.1-0.1,0.2-0.2l0.1-0.1c0.1-0.1-0.2,0.2,0,0c0.2-0.2,0.4-0.3,0.6-0.5
			c0.6-0.4,1.2-0.8,1.7-1.2c2-1.5,3.8-3.1,5.7-4.7c3.2-2.9,9.2-6.1,11.9-9.4c3.2-3.6,5.6-7.1,9.3-10.3c4.4-3.9,9.5-7.6,14.6-10.6
			c0.2-0.1,1.4-0.2,1.6-0.3c-0.1,0-1,0-1,0c0.4-0.2-1.6-0.7-2-1.2c-0.3-0.5-1.2-0.4-1.6-0.1c-3.7,2.1,0.7-3.4-2.7-0.7
			c-8.5,0-19.2,13.5-22.3,16.6c-3.5,3.5-2.1,7.5-5.5,11.1c-2.3,2.4-4.6,4.7-7.2,6.8c-1.4,1.1-2.8,2.1-4.1,3.1
			c-0.4,0.3-0.9,0.6-1.2,1c-0.5,0.5-1.9,1.2-2.3,1.8c-1.8,2.8-7.4,5.1-9.7,7.5c-2.2,2.3-8.3,6.3-8.3,6.3l-4.1,5.1
			c0,0-6.4,3.3-9.2,5.6c-1.7,1.5-3.2,3.2-4.7,4.8c-1.7,1.8-3.4,3.4-5,5.1c-3.5,3.5-7.1,7-10.5,10.5c-1.6,1.7-3.3,3.3-4.8,5
			c-0.2,0.3-0.6,0.5-0.8,0.8c0.1-0.1,0.2-0.2,0,0c-0.2,0.2,0.2-0.1,0,0c-0.1,0-0.2,0.1-0.3,0.1c-0.5,0.2-1.1,0.4-1.6,0.6
			c-0.1,0-0.4,0.1,0,0c-0.1,0-0.1,0.1-0.2,0.1c-0.2,0.1-0.4,0.1-0.6,0.2c-0.4,0.1-0.9,0.3-1.3,0.4c-2.2,0.8-4.3,1.5-6.4,2.4
			c-5.7,2.2-11.3,4.8-16.5,8.1c-6.1,3.8-11.7,1.8-16.1,7.6c-1.2,1.6-2.3,3.2-3.3,4.8c-0.3,0.5,0.3,0.9,0.7,0.9
			C69.3,119,70,118.8,70.3,118.2L70.3,118.2z"/>
	</g>
	<g>
		<path class="st0" d="M73,123c0,0,3.9-0.6,11.7-4.4c3.4-1.7,7.7-0.7,10.8-2.9c1.4-0.9,2.7-2,3.8-3.1c1.4-1.4,2.6-2.8,3.9-4
			c6.7-6.2,14.7-10.8,21.9-16.3c2.1-1.6,4.1-3.4,6.2-4.9c1.3-1,2.8-1.6,4.2-2.1c3.7-1.4,7.6-2.4,11.4-3.7c1.6-0.5,3.2-1.1,4.6-2
			c1.1-0.6,2-1.3,3-2c2.8-2,6.4-3.1,9.1-5c2.9-2.1,6.1-5.2,9.1-7.1c1-0.6,6.6-3,7.8-4.2c0.8-0.9,5.3-3.9,6.3-4.4
			c1.1-0.5,6.4-4.3,8.3-5.9c1.8-1.6,16.5-15.3,17.5-16.4c3.9-4,7.6-8,11.6-11.8c2.2-2,4.6-4,6.8-5.9c1.5-1.3,2.9-2.9,4.3-3.8
			c-0.1,0-1-1.5-1.4-1.5c-1.6-0.1-6.3-2.3-7.5-1.4c-2,1.5-6.9,6.7-8.8,8.4c-4.5,4.1-12.4,10.2-16.8,14.5c-1.6,1.6-3.2,2.9-4.7,4.4
			c-1.7,1.7-3.8,3.7-4.7,4.1c-1.2,0.5,4,6,3,5.5c-4.3-2.1-5.9,1-6.8,1.8c-1.8,1.8-3.8,4.6-5.9,5.9c-1,0.6-1,2.2-2.1,2.9
			c-1.3,0.8-11.5,8.3-14,10c-3.1,2.2-6,4.4-9.1,6.7c-2.2,1.6-4.3,1-6.7,2.3c-3.2,1.8-6.8,3.4-10.2,4.4c-3.5,1.1-7.3,2.1-10.3,4.2
			c-2.2,1.6-4.1,3.4-6.2,5c-2.1,1.6-4.2,2.5-6.3,4c-3.7,2.6-7.5,5.2-11,8c-1.7,1.3-4.1,3.6-5.6,5c-1.4,1.3-2.9,2.6-4.1,3.9
			c-0.2-0.4-8.5,3.1-8.3,3.6c-0.2-0.5-21.3,8.5-21.1,9c-1.8,1.4-1.4-2.9-1-3.4L73,123z"/>
	</g>
	<path class="st8" d="M67.6,193.3l-67,33.1l139.8,68.4l0,0l64.1-32.6L67.6,193.3z M107.9,270.4c-22-4.9-27.7-9.9-28-17.9
		c-0.4-8.2,17.7-15.1,38.3-15.1s37.3,7.3,37.3,16.4C155.4,262.7,129.8,275.4,107.9,270.4z"/>
	<g>
		<path class="st27" d="M156.8,254.2c0,8.7-16.4,18.9-35.9,18.9s-39.3-7.1-39.3-15.8c0-8.7,13.5-21.4,33-21.4
			C145.9,235.8,156.8,245.5,156.8,254.2z"/>
		<path class="st28" d="M118.7,235.6c-21.7,0-39.2,8-39.2,17.8s16.7,19.7,38.3,19.7s40.1-9.9,40.1-19.7S140.4,235.6,118.7,235.6z
			 M118.7,268.1c-18.8,0-34-6.7-34-15.1c0-8.3,15.2-15.1,34-15.1s34,6.8,34,15.1C152.7,261.4,137.5,268.1,118.7,268.1z"/>
	</g>
	<g>
		<path class="st8" d="M148.1,256.9c0.5-0.2,0.5-2.8,0.5-2.8s0.7-10.3-1.4-25.1c-2.7-18.7-12.3-24-12.3-24l0.2-41.5l-33.7,0.4
			l0.5,40.8c0,0-9.3,8-10.6,19.4c-1.5,11.4-3.7,27.3-0.8,33.9"/>
		<ellipse class="st8" cx="118.2" cy="164.3" rx="17.1" ry="8.6"/>
		<path class="st8" d="M134.9,204.8c0,3.4-6.9,8.6-16.3,8.6s-16.8-5.1-16.8-8.6"/>
		<ellipse class="st10" cx="118.3" cy="164.3" rx="9.9" ry="5"/>
		<ellipse class="st10" cx="118.3" cy="157.5" rx="9.9" ry="5"/>
		<path class="st26" d="M108.5,157.7v6.6c0,0,0.2,5.5,10.4,5.2c10.3-0.3,9.2-5.2,9.2-5.2v-6.8c0,0-1.2,4.6-9.7,4.7
			C110,162.3,108.5,157.7,108.5,157.7z"/>
	</g>
	<g>
		<path class="st24" d="M141.3,87.9c-6,0.6-11.7,2.6-17.2,5.4c-5,2.6-9.7,5.8-14.5,8.6c-0.5,0.3-1.1,0.6-1.6,0.9
			c-0.4,0.2,0.4-0.2-0.1,0c-0.1,0.1-0.2,0.1-0.3,0.2c-0.5,0.3-1,0.5-1.6,0.7c-0.3,0.1-0.5,0.2-0.8,0.3c-0.6,0.2,0.1,0-0.5,0.2
			c-0.6,0.2-1.2,0.4-1.8,0.6c-2.7,0.8-5.4,1.6-8.1,2.5c-7.7,2.6-14.6,6.6-20.6,11.9c-4.2,3.7-15.5,8.4-16.4,9.9
			c-0.3,0.4-0.5,0.8-0.8,1.2c-0.5,0.8-1,0.9-1.9,1.8s-1.2,2.5-1.9,3.3c-0.6,0.7-1.1,0.6-1.7,1.3c-0.8,1-1.3,2-2,3.1
			c-0.6,0.8-1.1,1.8-1.9,2.5c-1.9,1.8-2.4,2.6-3,4c-0.6,1.5-0.1,1.1-1.6,3.6c-0.3,0.5-0.6,1.2-0.9,1.9c-0.6,1.5-1.6,3.8-2.2,5.9
			c-0.7,2.6-0.6,4.3-0.9,5.3c-0.3,1.1-0.8,2.8-0.9,3.4c-0.2,1-0.3,1.6-0.8,2.9c-0.5,1.2-0.5,3.2-0.7,4.5c-0.3,1.7-1,3-0.5,4.7
			s-0.3,2.6-0.5,3.8c-0.1,1.2-0.2,2.3-0.3,3.4c-0.1,1.9-0.7,4.1,0,5.7s-0.4,3.8,0.4,6.1c0.9,2.2,0.3,1.9,0.5,3.1
			c0.2,1.2,0,3.2,0.6,4c0.6,0.9,1.1,6,2,7.2c0.9,1.2,0.9,2.6,1.3,3.8c0.4,1.2,1.1,1.6,1.4,3.5c0.3,2.1,3.4,5.5,3.6,7.2
			c0.3,1.8,2.9,5.7,4.4,6.7c1.6,1,1.9,2.4,3,3.5c0.6,0.6,0.7,1.4,1.7,1.9c1,0.5,3.6,4.2,5,4.5c1.4,0.3,5.2,4.1,6.5,4.6
			c1.2,0.4,5.3,3.4,6.2,3.4s3,1.4,4.2,2.4c2.4,1.7,4.6,3.7,7.2,5.2c0.8,0.5,2.1,0.2,2.9-0.3c0.6-0.4,1.2-1.2,0.3-1.7
			c-2.6-1.5-4.7-3.4-7.2-5.2c-2.2-1.6-7.2-3.7-7.2-3.7l-2.8-1.4c-1.2-2.1-6.1-3.3-6.5-4.8c-0.4-1.6-5.7-4.1-5.5-5.2
			s-3.4-3.3-3.7-4.4c-0.3-1.2-4.5-4.9-4.4-6.1c0.2-1.2-3.3-5.6-3.2-6.5c0-2.3-3.1-6.1-3.1-7.7c0.1-1.6-1.1-3.6-1.6-5.5
			c-0.3-1.1-0.5-2.2-0.7-3.2c-0.4-2.1-1.4-4.9-1-6.2c0.4-1.3-0.4-4.7-0.4-5.8c-0.1-1.1-0.3-5.1,0-6.5c0.3-1.4,0.2-2.8,0.3-4.1
			c0.1-1,0.2-2,0.4-3c0.2-1.3-0.2-2.1,0.6-3.8c0,0,0.6-3.4,0.9-5.2c0.3-1.6,0.4-2.7,0.8-4.2c0.4-2,1.6-4.7,2.1-6.6
			c0.7-2.5,0.6-4.3,1.7-6.6c0.3-0.7,0.8-1.9,1.8-3c1.1-1.1,2.1-3.3,2.5-4.1c1.5-2.9,1.9-1.7,3.6-5c0.8-0.9,0.9-1.9,2.7-3.1
			c1.8-1.2,2.2-1.3,3.6-3.2c1.8-2.5,4.3-3.9,6.4-6.2c5.6-6.3,16.7-11.7,24.6-15.1c2.9-1.2,5.2-2,8.3-2.9c2.5-0.7,5-1.4,7.5-2.4
			c3.7-1.5,7.1-3.8,10.4-5.9c4.6-2.9,9.3-5.7,14.4-7.5c2.7-1,5.4-1.6,8.2-1.9c0.8-0.1,2.2-0.5,2.3-1.4
			C143.3,88,141.9,87.9,141.3,87.9L141.3,87.9z"/>
	</g>
	<g>
		<g>
			<g>
				<path class="st0" d="M143.2,219.5c0.4,0.4-0.2,1.3-0.4,1.7c-0.7,1-1.6,1.9-2.6,2.7c-3.3,2.7-7.3,4.2-11.4,5.1
					c-6.2,1.4-12.7,1.1-18.8-0.1c-4.5-0.9-9.1-2.3-13-4.7c-1.3-0.8-2.7-1.7-3.6-2.9c-0.3-0.4-1.2-1.4-0.9-2s-1.3-0.1-1.5,0.3
					c-0.9,1.7,2.5,3.9,3.4,4.6c4,2.8,8.9,4.4,13.6,5.4c10.8,2.3,23.8,1.8,32.8-5.3c0.9-0.7,5.1-4,3.6-5.6
					C144.2,218.3,142.8,219.1,143.2,219.5L143.2,219.5z"/>
			</g>
		</g>
		<g>
			<g>
				<path class="st29" d="M143.7,221.9c1,1.1-2.6,3.8-3.2,4.3c-3.4,2.7-7.5,4.2-11.7,5.2c-6.1,1.4-12.5,1.1-18.6,0
					c-4.7-0.9-9.5-2.4-13.6-4.8c-1.4-0.8-2.7-1.8-3.7-3c-0.3-0.4-1.2-1.3-0.9-1.8c0.4-0.6-1.2-0.5-1.5-0.1c-1.1,1.7,2.5,4,3.4,4.6
					c4,2.8,8.9,4.4,13.6,5.5c11,2.4,24.1,2,33.6-5c1.3-1,2.7-2.1,3.5-3.4c0.4-0.6,1.1-1.7,0.5-2.4
					C144.7,220.9,143.2,221.4,143.7,221.9L143.7,221.9z"/>
			</g>
		</g>
		<g>
			<g>
				<path class="st30" d="M144.3,224.6c-0.1-0.2,0-0.1-0.1,0.3s-0.4,0.8-0.7,1.1c-0.9,1.1-2,2-3.1,2.8c-3.6,2.6-7.9,4.2-12.1,5.1
					c-6.1,1.4-12.4,1.2-18.5,0.1c-4.7-0.9-9.5-2.3-13.6-4.6c-1.4-0.8-2.8-1.7-3.9-2.9c-0.3-0.3-0.7-0.7-0.9-1.1
					c-0.1-0.2-0.1-0.3,0-0.4c0.5-0.6-0.9-1.7-1.3-1c-1.3,1.7,2.4,4.3,3.4,5c3.9,2.9,8.7,4.5,13.3,5.7c11.3,2.8,24.7,2.3,34.6-4.6
					c1.3-0.9,5.8-4,3.9-6.1C144.8,223.2,143.7,223.7,144.3,224.6L144.3,224.6z"/>
			</g>
		</g>
		<g>
			<g>
				<path class="st31" d="M145,226.9C144.7,226.5,145,226.7,145,226.9c-0.2,0.2-0.2,0.4-0.2,0.5c-0.2,0.4-0.5,0.8-0.8,1.2
					c-0.9,1.1-2.1,2-3.3,2.8c-3.7,2.6-8.2,4.2-12.6,5.2c-6.1,1.3-12.3,1.3-18.4,0.2c-4.9-0.8-9.8-2.3-14.2-4.6
					c-0.6-0.4-5.9-3.3-4.7-4.5c0.3-0.3-1-1.4-1.2-1.1c-1.3,1.4,2.7,4.2,3.4,4.8c3.8,2.8,8.4,4.5,12.9,5.7c11.6,3.1,25,2.6,35.4-4.1
					c1.4-0.9,6.1-3.8,4.2-6C145.3,226.3,144.3,226,145,226.9L145,226.9z"/>
			</g>
		</g>
		<g>
			<g>
				<path class="st32" d="M145.7,229.3c-0.3-0.4-0.1,0.1-0.2,0.5c-0.2,0.4-0.5,0.8-0.8,1.2c-1,1.1-2.2,2-3.4,2.8
					c-3.8,2.6-8.3,4.1-12.7,5.2c-10.8,2.5-23.3,0.9-33.1-4.2c-0.7-0.3-6.5-3.4-5.1-4.6c0.2-0.2-1-1.4-1.1-1.2
					c-1.3,1.2,2.7,4.2,3.4,4.7c3.7,2.8,8.4,4.6,12.9,5.8c11.8,3.2,25.4,2.7,36.1-3.8c1.5-0.9,6.5-3.8,4.5-6
					C145.8,229,144.9,228.4,145.7,229.3L145.7,229.3z"/>
			</g>
		</g>
		<g>
			<g>
				<path class="st33" d="M145.8,232.4c0.2,0.3-0.4,1.2-0.8,1.6c-1,1.1-2.3,2-3.5,2.8c-4.1,2.6-8.9,4.1-13.6,5
					c-10.7,2.1-23.1,0.4-32.7-5c-1.5-0.8-3-1.7-4.1-2.9c-0.4-0.3-0.7-0.7-0.9-1.2c-0.1-0.1-0.1-0.3-0.1-0.3c0-0.1,0,0,0,0
					c0.8-0.7-0.6-1.4-1.2-0.9c-1.8,1.5,2.1,4.1,3.1,4.8c4.1,2.9,9,4.6,13.8,5.8c12,3.1,25.5,2.2,36.4-4.2c1.3-0.8,7.1-4.1,5.2-6.4
					C146.6,231,145.1,231.6,145.8,232.4L145.8,232.4z"/>
			</g>
		</g>
		<g>
			<g>
				<path class="st34" d="M146.2,234.6c1.2,1.5-3.5,4.2-4.3,4.7c-4.3,2.7-9.3,4.3-14.2,5.2c-10.9,2.1-23.4,0.3-33.1-5.2
					c-0.5-0.3-6.3-3.8-5-4.7c0.5-0.4-1-0.7-1.4-0.4c-1.7,1.3,2.6,4,3.3,4.5c4.2,2.8,9.1,4.6,13.9,5.8c12.1,3,25.5,2.2,36.6-3.9
					c1.8-1,3.5-2.1,4.9-3.5c0.6-0.6,1.6-1.8,0.9-2.6C147.4,234.1,145.9,234.3,146.2,234.6L146.2,234.6z"/>
			</g>
		</g>
		<g>
			<g>
				<path class="st35" d="M146.7,237.3c1.3,1.6-3.8,4.5-4.7,5c-4.6,2.7-10,4.4-15.2,5.2c-11,1.9-23.4-0.2-33-5.8
					c-0.5-0.3-6.2-3.8-4.7-4.8c0.3-0.2-0.2-0.2-0.3-0.2c-0.3,0-0.8,0.1-1.1,0.2c-1.7,1.1,2.8,3.9,3.4,4.3c4.3,2.8,9.4,4.6,14.4,5.8
					c12.1,2.9,25.4,1.7,36.6-4c1.9-1,3.7-2.1,5.3-3.5c0.6-0.6,1.7-1.7,1-2.6C148.1,236.7,146.6,237.1,146.7,237.3L146.7,237.3z"/>
			</g>
		</g>
		<g>
			<g>
				<path class="st36" d="M147.5,240.3c0,0,0,0.2-0.1,0.5c-0.2,0.5-0.7,0.9-1.1,1.2c-1.3,1.2-2.9,2.1-4.4,2.9
					c-4.7,2.5-9.9,4-15.1,4.9c-11,1.9-23-0.1-32.8-5.3c-1.6-0.9-3.2-1.8-4.5-3c-0.4-0.3-0.7-0.7-1-1.1c-0.3-0.4,0-0.3-0.3-0.1
					c0.9-0.5,0.2-1.8-0.7-1.3c-2.5,1.5,1.5,4.2,2.6,4.9c4.2,2.9,9.2,4.7,14.1,6.1c12.7,3.4,26.6,2.3,38.3-3.8c1.6-0.8,8.2-4.1,6-6.8
					C148.1,238.5,146.8,239.6,147.5,240.3L147.5,240.3z"/>
			</g>
		</g>
		<g>
			<g>
				<path class="st37" d="M147.8,242.4c1.3,1.6-4.7,4.6-5.5,5c-4.8,2.5-10.3,4.1-15.6,5c-11.2,1.9-23.6-0.1-33.6-5.6
					c-0.4-0.2-6.3-3.8-5-4.5c0.7-0.4-0.8-1-1.3-0.8c-2.1,1.1,2.4,4,3.1,4.4c4.2,2.9,9.2,4.7,14.1,6c12.7,3.4,26.4,2.4,38.3-3.4
					c1.2-0.6,8.9-4,7-6.5C149,241.8,147.4,241.8,147.8,242.4L147.8,242.4z"/>
			</g>
		</g>
		<g>
			<g>
				<path class="st38" d="M148.5,245.4c0.3,0.4-1.1,1.6-1.4,1.9c-1.5,1.2-3.2,2.1-4.8,2.9c-4.9,2.4-10.3,3.9-15.7,4.7
					c-11.2,1.8-23.4-0.2-33.4-5.5c-1.7-0.9-3.3-1.8-4.6-3.1c-0.4-0.3-0.8-0.7-1-1.1c-0.1-0.2-0.1-0.2-0.1-0.3c0,0.1-0.1,0.2-0.1,0.2
					c0.9-0.5,0.2-1.7-0.7-1.2c-2.7,1.3,1.7,4.2,2.7,4.9c4.3,3,9.5,4.8,14.5,6.2c13,3.4,27.1,2.2,39.3-3.7c1.6-0.8,8.8-4,6.6-6.8
					C149.2,243.7,147.9,244.6,148.5,245.4L148.5,245.4z"/>
			</g>
		</g>
		<g>
			<g>
				<path class="st39" d="M148.9,247.9c1.5,1.9-4.5,4.5-5.5,5c-5,2.4-10.5,3.9-16.1,4.9c-11.5,1.9-23.8-0.2-34.2-5.5
					c-1.7-0.9-3.4-1.9-4.9-3.2c-0.4-0.4-1-0.8-1.2-1.3c-0.2-0.4,0-0.7-0.4-0.6c0.9-0.4,0.7-0.9-0.2-0.5c-2.8,1.2,1.4,3.7,2.6,4.5
					c4.8,3.1,10.3,5,15.9,6.4c12.8,3.1,26.5,1.4,38.4-4.1c2.1-1,4.1-2.1,5.9-3.5c0.7-0.6,2-1.8,1.3-2.8
					C150.1,246.9,148.7,247.7,148.9,247.9L148.9,247.9z"/>
			</g>
		</g>
		<g>
			<g>
				<path class="st40" d="M149.5,250.4c1.1,1.4-5.3,4.4-6,4.7c-4.9,2.3-10.2,3.8-15.5,4.8c-11.8,2.2-24.1,0.3-35-5
					c-1.9-0.9-3.7-2-5.3-3.3c-0.4-0.3-1-0.8-1.2-1.3c-0.2-0.3-0.2-0.3,0-0.4c0.9-0.4-0.2-1.3-0.9-1c-2.8,1.1,2.5,4.4,3.3,4.9
					c4.8,3.1,10.3,5,16,6.4c13.1,3.3,27.1,1.6,39.3-4c1.5-0.7,8.9-3.8,6.8-6.5C150.4,249.2,148.9,249.6,149.5,250.4L149.5,250.4z"/>
			</g>
		</g>
		<g>
			<g>
				<path class="st41" d="M149.9,252.7c1.5,1.9-4.4,4.5-5.4,4.9c-4.9,2.4-10.3,3.9-15.7,5c-6.4,1.3-12.9,1.6-19.3,0.5
					c-5.9-1-11.8-2.9-17.2-5.5c-1.9-1-3.7-2-5.4-3.4c-0.4-0.3-1.8-1.6-0.8-2c0.4-0.2-0.9-0.6-1.3-0.5c-2.4,0.9,3.4,4.3,3.9,4.6
					c5.1,3,10.8,5,16.7,6.4c12.8,3,26.4,1.2,38.5-3.9c1.2-0.5,9.3-3.7,7.5-6.2C151.1,252.4,149.8,252.5,149.9,252.7L149.9,252.7z"/>
			</g>
		</g>
		<g>
			<g>
				<path class="st25" d="M150.5,255.5c1.5,2-4.4,4.5-5.4,4.9c-5,2.3-10.4,3.8-15.9,4.8c-6.5,1.2-13,1.4-19.5,0.3
					c-5.8-1-11.6-2.9-17-5.4c-2-1-4-2.1-5.7-3.4c-0.5-0.4-1.1-0.9-1.4-1.5c-0.1-0.2-0.1-0.4-0.2-0.5c-0.1-0.3,0.6-0.4-0.2-0.2
					c0.8-0.3,0.8-0.6-0.1-0.3c-1,0.3-1.6,0.8-0.9,1.7c1,1.3,2.6,2.2,3.9,3.1c5.5,3.3,11.8,5.4,18,6.7c12.7,2.7,26.3,0.4,38.2-4.6
					c1.2-0.5,9.3-3.7,7.5-6.1C151.7,254.8,150.4,255.4,150.5,255.5L150.5,255.5z"/>
			</g>
		</g>
	</g>
	<path class="st42" d="M81.7,259.3c-0.8-0.7-1.2-1.8-0.9-2.9c0.4-1.7,2-2.7,3.6-2.3c1.7,0.4,2.7,2,2.3,3.6c-0.1,0.3-0.2,0.4-0.3,0.7
		l1.6,1.2c0.4-0.5,0.5-0.8,0.6-1.5c0.6-2.7-1.1-5.3-3.7-5.9c-2.7-0.6-5.3,1.1-5.9,3.7s1.1,5.3,3.7,5.9C83.1,262,82,259.5,81.7,259.3
		z"/>
	<g>
		<g>
			<path class="st24" d="M85,254.8c-0.9-0.5-2.7,0.1-3.4,0.7c-0.7,0.6-0.4,1,0.1,1.6c1.8,2.1,3.9,4,6.1,5.7
				c4.5,3.6,9.9,5.7,15.5,6.9c4.4,1,9.1,1.3,13.6,1.4c5.2,0.1,10.4-0.1,15.6-1.2c6.8-1.4,13.8-4.3,18.4-9.7c1.2-1.3,5.7-7.8,1.8-8.6
				c-0.9-0.2-2.2,0.2-2.9,0.8c-0.6,0.5-0.5,1,0.3,1.1c-0.4-0.1-0.2-0.2-0.2,0s0-0.1,0,0s0.1,0.2,0.1,0.3c0.1,0.5,0.1,0.8,0,1.1
				c-0.3,1.4-0.9,2.8-1.8,3.8c-2.9,4-7.3,6.8-11.9,8.3c-3.7,1.3-7.7,1.7-11.7,1.9c-4.4,0.2-8.8,0.1-13.2-0.3
				c-5.6-0.6-11.3-2-16.2-4.8c-1.9-1.1-3.6-2.4-5.2-3.8c-1.3-1.1-2.5-2.3-3.6-3.4c-0.4-0.4-0.7-0.7-1.1-1.1
				c-0.1-0.2-0.2-0.2-0.1-0.2v-0.1l0,0c-0.1-0.3-0.2-0.1-0.4,0.7c-0.5,0.2-0.9,0.4-1.4,0.6c-0.3,0.1-1.7,0.1-1.7,0.1
				C82.7,257,86.5,255.5,85,254.8L85,254.8z"/>
		</g>
	</g>
	<rect x="104.6" y="343.2" class="st43" width="25.5" height="17.1"/>
	<path class="st44" d="M130.1,348v4.2c0.4,0.5,0.6,1,0.6,1.6c0,2.8-5.7,4.2-12.9,4.2c-7.2,0-13.6-1.5-13.6-4.2
		c0-0.4,0.1-0.8,0.4-1.1v-4.4c-3.1,1.5-4.9,3.4-4.9,5.6c0,5,8.1,8.2,17.9,8.2c10,0,17.9-3.6,17.9-8.2
		C135.6,351.5,133.5,349.5,130.1,348z"/>
	<g>
		<path class="st10" d="M58.2,202.5l3.4,1.7l3.3-1.8l0.2-52.8l-3.4-1.7l-3.5,1.8C58,149.6,58.2,203,58.2,202.5z"/>
		<g>
			<line class="st45" x1="61.4" y1="204" x2="61.5" y2="151.4"/>
			<path class="st46" d="M57.9,149.6l3.6,1.8l3.5-1.9l-3.4-1.8L57.9,149.6z"/>
		</g>
	</g>
	<path class="st47" d="M46.5,152.3l-0.7,2.3c1.6,0.2,2.3,0.8,2.3,1.4c0,0.9-2.2,1.5-4.7,1.5c-2.7,0-4.7-0.7-4.7-1.5
		c0-0.6,1.2-1.2,2.9-1.5l1-2.8c-4.3,0.2-7.9,2.2-7.9,4.2c0,2.3,3.8,4.1,8.7,4.1s8.7-1.9,8.7-4.1C51.9,154.1,49.9,152.7,46.5,152.3z"
		/>
	<g>
		<path class="st48" d="M43.2,161.4c-6,0-8.5-2.6-8.6-3.3v-2.4c0,1.5,3.4,4,8.2,4c7,0,9-3.2,9-3.2l-0.1,1.8
			C51.4,159.3,47.7,161.2,43.2,161.4z"/>
	</g>
	<polygon class="st3" points="49.7,158.9 58.2,163 58.1,164.2 49.7,160 	"/>
	<polygon class="st3" points="49.7,158.9 51.9,157.7 58.1,160.6 58.2,163 	"/>
	<path class="st4" d="M66.5,126.6c0,0-3.8,1.9-4.8,2.1c-1.6,0.3-3.4,0.1-4.1,1.2"/>
	<path class="st4" d="M60,132.2c0,0-1.7,1.7-2.8,1.9c-1.6,0.3-3.4,0.2-4,1.3"/>
	<path class="st5" d="M56.1,137c0,0-1.7,1.7-2.8,1.9c-1.6,0.3-3.4,0.2-4,1.3"/>
	<path class="st5" d="M51.6,142.8c0,0-1.6,1.6-2.7,1.9c-1.6,0.4-3.4,0.7-4.1,1.9"/>
	<path class="st6" d="M47.7,149.3c0,0-1.4,2.3-2.5,2.8c-1.5,0.7-3.3,1.1-3.6,2.3"/>
	<path class="st6" d="M43.6,161.3c0,0-0.9,2.2-1.9,2.8c-1.4,0.9-3.1,1.4-3.4,2.7"/>
	<path class="st49" d="M42.6,166.8c0,0-1.1,2.7-2.1,3.4c-1.4,1-2.9,1.7-3.4,3.4"/>
	<path class="st50" d="M41.6,172.4c-0.3,1.6-1.8,3.9-2.9,4.5c-1.6,1-2.2,1-2.7,2.6"/>
	<path class="st51" d="M40.8,178.2c-0.3,1.6-1.7,3.8-2.7,4.5c-1.4,1-1.9,1.2-2.4,2.8"/>
	<path class="st4" d="M40.3,183.8c0.1,1.6-1,4.1-2.1,5c-1.6,1.3-2.3,1.5-2.5,3.2"/>
	<path class="st4" d="M40.2,189.2c0,1.7-0.9,4.5-1.8,5.4c-1.3,1.4-1.9,1.5-2,3.4"/>
	<path class="st4" d="M40.7,196.2c0.1,1.6-0.6,4.2-1.4,5.1c-1.1,1.3-1.7,1.5-1.7,3.2"/>
	<path class="st4" d="M41.8,203.6c0.1,1.6-0.5,4.2-1.1,5.1c-0.9,1.3-1.1,1.5-1.1,3.2"/>
	<path class="st4" d="M43.8,211.1c0.1,1.6-0.4,4.1-0.8,5c-0.6,1.3-0.9,1.5-0.9,3.2"/>
	<path class="st4" d="M46.8,218.6c0.1,1.6-0.3,2.9-0.7,3.8c-0.6,1.3-0.3,2.4-0.3,4"/>
	<path class="st4" d="M49.9,225.2c0.3,1.6,0.1,3.1,0,3.9c0,1.3-0.1,2.1,0.1,3.7"/>
	<path class="st4" d="M54.3,231.5c0.3,1.6,0.1,2.5,0,3.4c0,1.3,0.3,1.7,0.5,3.4"/>
	<path class="st4" d="M58,236c0.6,1.5,0.6,2.4,0.8,3.3c0.2,1.3,0.7,2.1,1.3,3.6"/>
	<path class="st4" d="M63.4,240.9c0.6,1.5,0.7,1.7,1.3,3.2c0.6,1.5,1.2,2,1.7,3.5"/>
	<path class="st4" d="M77.4,118.3c0,0-3.5,0.4-4.6,0.6c-1.6,0.3-6.1,0.4-6.9,1.5"/>
	<path class="st4" d="M73,122.8c0,0-4.9,0.6-6.1,1c-1.7,0.6-3.5,0.7-4.5,2.1"/>
	<g>
		<g>
			<g>
				<path class="st11" d="M142.8,215.4C142.8,215.4,142.8,215.3,142.8,215.4c-0.1,0.4-0.1,0.6-0.2,1c-0.4,1.2-1.3,2.2-2.1,3.1
					c-2.9,3.3-6.9,5.4-11,6.6c-6.4,1.9-13.3,1.8-19.8,0.4c-4.6-1-9.5-2.7-13.1-5.9c-1.1-1-2.2-2.2-2.8-3.6c-0.3-0.8-0.5-1.7,0-2.2
					c0.7-0.7-0.8-1.4-1.4-0.8c-1.8,1.8,0.6,5,1.8,6.4c3.4,3.7,8.4,5.9,13.2,7.1c11.4,2.9,26,2.2,34.4-7.1c0.8-0.9,4.5-5.8,1.5-6.4
					C142.3,213.9,141.7,215.2,142.8,215.4L142.8,215.4z"/>
			</g>
		</g>
		<g>
			<g>
				<path class="st52" d="M144,218c-0.1,0-0.5-0.8-0.6-0.6c0,0.1,0,0.4,0,0.5c-0.1,0.5-0.3,0.9-0.5,1.3c-0.7,1.2-1.6,2.3-2.6,3.3
					c-3.2,3.1-7.3,5.2-11.5,6.4c-6.2,1.8-12.9,1.7-19.2,0.5c-4.8-0.9-9.9-2.6-13.7-5.8c-1.2-1-4.3-4-2.7-5.8c0.2-0.3-1-1.5-1.2-1.2
					c-1.6,1.7,1.2,4.9,2.3,6.1c3.4,3.6,8.2,5.9,13,7.2c11.4,3.1,26.3,2.5,34.9-6.9c1-1.1,2.1-2.4,2.4-3.7c0.2-1-0.5-2.2-1.6-2.4
					c-0.3-0.1,0.2,0.6,0.2,0.6C143.4,217.6,143.7,217.9,144,218L144,218z"/>
			</g>
		</g>
		<g>
			<g>
				<path class="st53" d="M143.3,220c1.6,0.4-1.8,4.3-2.1,4.6c-3.1,3.2-7.1,5.4-11.3,6.8c-6.8,2.3-14.2,2.2-21.1,0.6
					c-4.6-1.1-9.4-3.1-12.9-6.3c-1.1-1-4.4-4.3-2.8-6c-0.2,0.2-1.4-0.5-1.7-0.1c-1.6,1.7,1.6,4.8,2.6,5.8c3.6,3.4,8.6,5.4,13.4,6.6
					c11.4,2.7,25,2.2,34.3-5.9c0.6-0.5,5.5-5.3,3.2-6c-0.4-0.1-0.8-0.2-1.2-0.1C143.6,219.9,143,220,143.3,220L143.3,220z"/>
			</g>
		</g>
		<g>
			<g>
				<path class="st54" d="M144.4,223.2c-0.3-0.1-0.2-0.5-0.3,0c-0.1,0.4-0.3,0.7-0.5,1.1c-0.7,1.2-1.7,2.3-2.8,3.2
					c-3.4,3.1-7.7,5.1-12,6.3c-6.3,1.8-13.1,1.7-19.5,0.4c-4.8-1-9.8-2.8-13.6-5.8c-1.2-1-2.5-2.1-3.2-3.4c-0.3-0.6-0.8-1.7-0.4-2.1
					c0.6-0.6-0.8-1.6-1.3-1.1c-1.7,1.8,1.2,4.8,2.3,6c3.5,3.6,8.5,5.8,13.3,7.1c11.7,3.2,26.1,2.2,35.6-6.3c1-0.9,5.6-5.3,2.4-6.4
					C143.6,221.7,143.6,222.9,144.4,223.2L144.4,223.2z"/>
			</g>
		</g>
		<g>
			<g>
				<path class="st55" d="M144.5,225.7c-0.2-0.1,0,0.1,0,0.4c-0.1,0.4-0.3,0.8-0.5,1.1c-0.8,1.2-1.8,2.3-2.9,3.2
					c-3.6,3.1-8.1,5.2-12.7,6.4c-6.4,1.7-13.1,1.5-19.5,0.1c-4.7-1.1-9.6-2.9-13.3-6c-1.3-1-2.5-2.2-3.3-3.5
					c-0.3-0.5-0.9-1.7-0.4-2.2c0.6-0.6-1.1-0.9-1.5-0.5c-1.6,1.7,1.5,4.6,2.6,5.6c3.6,3.4,8.6,5.6,13.4,6.9
					c11.9,3.2,25.9,2.1,35.8-6c0.8-0.7,6-5.1,3.3-6.2C144.8,224.7,143.6,225.3,144.5,225.7L144.5,225.7z"/>
			</g>
		</g>
		<g>
			<g>
				<path class="st56" d="M144.7,228.2c1.5,0.7-2.8,4.3-3.2,4.7c-3.8,3.2-8.5,5.2-13.2,6.4c-6.5,1.6-13.3,1.3-19.8-0.2
					c-4.7-1.1-9.5-3-13.3-6c-1.3-1-2.6-2.2-3.4-3.5c-0.3-0.5-1-1.7-0.5-2.3c0.3-0.3-0.3-0.3-0.4-0.3c-0.4,0-0.8,0.2-1.1,0.5
					c-1.5,1.6,1.9,4.6,2.9,5.4c3.7,3.4,8.7,5.4,13.5,6.7c12,3.2,25.6,1.6,35.8-6c0.6-0.4,6.3-5.2,4.2-6.1
					C145.7,227.4,144.4,228.1,144.7,228.2L144.7,228.2z"/>
			</g>
		</g>
		<g>
			<g>
				<path class="st57" d="M145.9,231.3c-0.6-0.3-0.1-0.8-0.4-0.1c-0.2,0.5-0.5,0.9-0.8,1.3c-1,1.2-2.3,2.3-3.5,3.2
					c-4,3-8.9,4.9-13.7,6c-6.3,1.4-12.8,1.2-19.1-0.2c-4.7-1.1-9.5-2.9-13.4-5.8c-1.3-1-2.6-2.1-3.5-3.4c-0.3-0.4-0.6-0.9-0.7-1.2
					s-0.1-0.4,0.1-0.6c0.5-0.5-0.6-1.8-1.2-1.2c-1.6,1.7,1.9,4.9,3,5.9c3.7,3.4,8.6,5.6,13.4,7c12.2,3.4,26.4,2.1,36.7-5.8
					c1.2-0.9,6.5-5,3.3-6.6C145,229.3,145.3,230.9,145.9,231.3L145.9,231.3z"/>
			</g>
		</g>
		<g>
			<g>
				<path class="st58" d="M146.1,233.7c-0.4-0.2-0.1-0.4-0.3,0.1c-0.2,0.5-0.5,0.9-0.9,1.3c-1,1.2-2.3,2.2-3.5,3.1
					c-4.1,2.9-9,4.8-13.8,6c-10.7,2.5-23.7,0.7-32.7-5.7c-1.4-1-2.7-2.1-3.7-3.4c-0.3-0.4-1.1-1.6-0.8-1.9c0.6-0.6-0.8-1.6-1.3-1.1
					c-1.5,1.7,2,4.6,3,5.6c3.8,3.4,8.8,5.6,13.6,7c12.3,3.5,26.2,2.1,36.9-5.3c1.1-0.8,7.1-4.9,4.1-6.5
					C145.8,232.2,145.2,233.2,146.1,233.7L146.1,233.7z"/>
			</g>
		</g>
		<g>
			<g>
				<path class="st59" d="M147,236.3c-0.2-0.1-0.2-0.6-0.4-0.4c-0.1,0.1-0.1,0.4-0.2,0.5c-0.2,0.5-0.6,0.9-1,1.3
					c-1.2,1.2-2.6,2.2-3.9,3.2c-4.3,2.9-9.3,4.8-14.4,5.9c-10.8,2.4-23.4,0.5-32.6-5.8c-1.5-1-2.9-2.1-3.9-3.4
					c-0.3-0.3-1.1-1.3-0.7-1.8c0.4-0.4-0.8-1.6-1.1-1.3c-1.4,1.5,2.4,4.7,3.3,5.5c3.7,3.3,8.5,5.4,13.2,6.9
					c12.5,3.8,26.7,2.3,37.7-5c1.3-0.9,7.2-4.6,4-6.6C145.9,234.6,146.5,236,147,236.3L147,236.3z"/>
			</g>
		</g>
		<g>
			<g>
				<path class="st60" d="M147.1,239.1c-0.4-0.3-0.1-0.5-0.4,0c-0.3,0.5-0.7,0.9-1.1,1.3c-1.3,1.2-2.8,2.3-4.2,3.2
					c-4.4,2.8-9.5,4.6-14.6,5.6c-10.9,2.3-23.3,0.2-32.5-6c-1.5-1-3-2.1-4-3.4c-0.3-0.3-0.7-0.8-0.8-1.1c-0.1-0.2-0.1-0.3-0.1-0.4
					c0,0-0.1,0.1,0,0.1c0.6-0.7-0.6-1.9-1.2-1.1c-1.6,1.7,2.3,4.8,3.4,5.6c3.9,3.3,8.8,5.4,13.6,6.9c12.6,3.7,26.6,2,37.8-5
					c1.3-0.8,7.8-4.8,4.8-6.8C146.8,237.1,146.4,238.6,147.1,239.1L147.1,239.1z"/>
			</g>
		</g>
		<g>
			<g>
				<path class="st61" d="M147.2,241.5c1.5,1.2-4.3,4.7-5,5c-5,3-10.7,4.9-16.6,5.8c-10.8,1.7-22.9-0.7-32-7c-1.4-1-2.8-2.1-3.8-3.4
					c-0.3-0.3-1.4-1.6-0.9-2.1c0.2-0.3-0.3,0-0.4,0c-0.3,0.1-0.8,0.4-1,0.6c-1.2,1.4,3,4.3,3.7,4.9c4.1,3.1,9,5.2,14,6.6
					c12.5,3.4,25.9,1.3,37.1-5.2c0.7-0.4,8-4.8,6.3-6.1C148.4,240.4,147.2,241.5,147.2,241.5L147.2,241.5z"/>
			</g>
		</g>
		<g>
			<g>
				<path class="st62" d="M147.6,243.7c1.3,1.1-4.5,4.6-5,4.9c-4.8,2.9-10.3,4.9-15.9,6c-11.2,2.3-23.7-0.2-33.2-6.6
					c-0.6-0.4-5.9-4-4.8-5.2c0.1-0.1-1.4-0.4-1.6-0.1c-1.1,1.3,3.4,4.3,4,4.8c4.1,3.1,9.1,5.1,14,6.5c12.5,3.4,25.9,1.7,37.4-4.3
					c0.8-0.4,8.7-4.7,6.9-6.2C148.9,243.3,147.5,243.7,147.6,243.7L147.6,243.7z"/>
			</g>
		</g>
		<g>
			<g>
				<path class="st63" d="M148.1,246.4c1.4,1.3-4.5,4.5-5.2,4.9c-5,2.9-10.6,4.8-16.3,6c-11.3,2.2-23.8-0.4-33.3-6.7
					c-1.5-1-3-2.1-4.1-3.4c-0.3-0.3-1.5-1.5-1-2c-0.1,0.1-1.4-0.2-1.6,0.1c-1,1.2,3.5,4.2,4.2,4.7c4.3,3.1,9.3,5.1,14.3,6.5
					c12.4,3.4,25.5,1.4,37-4.2c0.7-0.4,9.4-4.8,7.8-6.3C149.4,245.9,148.2,246.6,148.1,246.4L148.1,246.4z"/>
			</g>
		</g>
		<g>
			<g>
				<path class="st64" d="M148.6,249.1c1.3,1.4-4.8,4.5-5.5,4.9c-5.1,2.8-10.7,4.7-16.5,5.7c-11.4,2.1-23.6-0.5-33.4-6.6
					c-0.5-0.3-6.7-4.2-5.7-5.3c-0.1,0.1-1.3,0-1.6,0.3c-1,1.2,3.9,4.3,4.5,4.7c4.6,3.1,9.9,5.2,15.2,6.6c12.4,3.2,25.5,0.8,37-4.7
					c0.8-0.4,9.1-4.4,7.5-6C149.9,248.4,148.6,249.2,148.6,249.1L148.6,249.1z"/>
			</g>
		</g>
		<g>
			<g>
				<path class="st0" d="M149.4,252.1c-0.3-0.3-0.1-0.3-0.4,0.2c-0.4,0.5-0.9,0.9-1.4,1.2c-1.5,1.1-3.2,2-4.8,2.8
					c-4.9,2.5-10.3,4.2-15.7,5.3c-11.5,2.3-23.5,0.2-33.6-5.6c-1.8-1-3.4-2.1-4.9-3.4c-0.5-0.4-1-0.8-1.4-1.3
					c-0.1-0.1-0.2-0.4-0.3-0.5c0,0,0.1,0.1-0.1,0.3c0.6-0.7-0.6-1.9-1.2-1.2c-1.5,1.8,3.4,4.8,4.4,5.4c4.6,3.2,10,5.4,15.3,6.9
					c6.7,1.8,13.6,2.3,20.5,1.1c6.1-1,12.2-3,17.8-5.7c1.4-0.7,8.9-4,6.6-6.6C149.7,250.3,148.7,251.3,149.4,252.1L149.4,252.1z"/>
			</g>
		</g>
	</g>
	<ellipse transform="matrix(0.5 -0.866 0.866 0.5 -19.3832 184.4878)" class="st9" cx="150.1" cy="109" rx="10" ry="7.4"/>
	<g>
		<g>
			<path class="st8" d="M89.5,42.1c0,0-5.3-3-10.3,5.5S81,59.8,81,59.8l76.3,37.8c-1.5-4.9-2.9-7.7-0.9-12c2-4.3,7.7-5.6,10.7-4.7
				C172.7,82.5,89.5,42.1,89.5,42.1z"/>
		</g>
		<ellipse transform="matrix(0.5 -0.866 0.866 0.5 3.9323 184.9312)" class="st9" cx="162.1" cy="89.1" rx="10" ry="7.4"/>
	</g>
	<g>
		<path class="st65" d="M127.1,346.6c-6.8,1.4-15.8,1.6-25.3-0.8c-9.6-2.4-100.4-49.8-100.4-49.8v8.5c0,0,88.7,47,99.4,50.4
			c5.9,1.9,10.1,2.5,14.6,2.7c3.6,0.1,7.8-0.2,13.3-1.2c12.3-2.2,63.2-29.3,63.2-29.3l12.6-6.4l0.2-9.7c0,0-47.8,24.7-66.3,32.1
			C134.2,344.7,133.9,345.3,127.1,346.6z"/>
		<g>
			<path class="st28" d="M117.3,347.8c-5,0-10.2-0.6-15.2-1.9c-9.6-2.4-99-48.8-101.1-49.9l1.5-0.8c0.5,0.3,90.8,47,100.1,49.4
				c11.1,2.8,20.5,1.8,24.9,0.9c5.2-1,7.3-2.1,9.5-3c0.6-0.3,3.5-1.5,4.4-1.9c18.2-7.3,61.8-30.3,62.1-30.4l1.4,0.5
				c-0.3,0.2-47,25.1-65.4,32.5c-0.9,0.3-1.6,0.6-2.2,0.9c-2.3,1-3.6,1.6-9.2,2.7C124.7,347.5,121.1,347.8,117.3,347.8z"/>
		</g>
	</g>
	<path class="st66" d="M130.8,331.3v4.6c0.4,0.5,0.6,1.1,0.6,1.7c0,3-5.8,4.6-13,4.6c-7.2,0-13.7-1.6-13.7-4.6
		c0-0.4,0.1-0.8,0.4-1.2v-4.8c-3.1,1.6-4.9,3.7-4.9,6c0,5.4,8.1,8.8,18.1,8.8c10,0,18.1-3.9,18.1-8.8
		C136.4,335.2,134.3,332.9,130.8,331.3z"/>
	<path class="st4" d="M70.2,245.8c0.4,1.1,0.9,1.1,1.3,2.1c0.4,1,0.8,1.6,1.2,2.8"/>
	<g>
		<g>
			<path class="st8" d="M153.5,7.6c0,0-5.3-3-10.3,5.5s1.8,12.2,1.8,12.2L221.2,63c-1.5-4.9-2.9-7.7-0.9-12s7.7-5.6,10.7-4.7
				C236.6,48,153.5,7.6,153.5,7.6z"/>
		</g>
		<ellipse transform="matrix(0.5 -0.866 0.866 0.5 65.7632 222.9374)" class="st9" cx="226" cy="54.5" rx="10" ry="7.4"/>
	</g>
</g>
</svg>
