<?xml version="1.0" encoding="utf-8"?>
<!-- Generator: Adobe Illustrator 25.2.3, SVG Export Plug-In . SVG Version: 6.00 Build 0)  -->
<svg version="1.1" id="Layer_1" xmlns="http://www.w3.org/2000/svg" xmlns:xlink="http://www.w3.org/1999/xlink" x="0px" y="0px"
	 viewBox="0 0 242.6 382.6" style="enable-background:new 0 0 242.6 382.6;" xml:space="preserve">
<style type="text/css">
	.st0{fill:#EF7C4F;}
	.st1{fill:#FFFFFF;}
	.st2{fill:#CBB8B9;}
	.st3{fill:#E4DAD8;stroke:#FFFFFF;stroke-width:0.5;stroke-linejoin:bevel;stroke-miterlimit:10;}
	.st4{fill:none;stroke:#FFFFFF;stroke-width:0.2495;stroke-miterlimit:10;}
	.st5{fill:none;stroke:#FFFFFF;stroke-width:0.2201;stroke-miterlimit:10;}
	.st6{fill:none;stroke:#FFFFFF;stroke-width:0.2231;stroke-miterlimit:10;}
	.st7{fill:none;stroke:#CBB8B9;stroke-width:2.8147;stroke-miterlimit:10;}
	.st8{fill:#E4DAD8;stroke:#FFFFFF;stroke-width:0.5;stroke-miterlimit:10;}
	.st9{fill:#CBB8B9;stroke:#FFFFFF;stroke-width:0.5;stroke-miterlimit:9.9998;}
	.st10{fill:#CBB8B9;stroke:#FFFFFF;stroke-width:0.499;stroke-miterlimit:9.9998;}
	.st11{fill:#CBB8B9;stroke:#FFFFFF;stroke-width:0.5;stroke-miterlimit:10;}
	.st12{fill:#DD335A;}
	.st13{fill:#DE3858;}
	.st14{fill:#E03D57;}
	.st15{fill:#E14155;}
	.st16{fill:#E24654;}
	.st17{fill:#E34B52;}
	.st18{fill:#E55050;}
	.st19{fill:#E6554F;}
	.st20{fill:#E75A4D;}
	.st21{fill:#E95F4B;}
	.st22{fill:#EA644A;}
	.st23{fill:#EB6948;}
	.st24{fill:#ED6E47;}
	.st25{fill:#EE7345;}
	.st26{fill:#D8422E;}
	.st27{fill:#CBB8B9;stroke:#FFFFFF;stroke-width:0.5;stroke-linejoin:bevel;stroke-miterlimit:10;}
	.st28{fill:none;stroke:#FFFFFF;stroke-width:0.9364;stroke-miterlimit:10;}
	.st29{fill:#361D32;stroke:#FFFFFF;stroke-width:0.499;stroke-miterlimit:10;}
	.st30{fill:#E4DAD8;stroke:#FFFFFF;stroke-width:0.499;stroke-miterlimit:10;}
	.st31{fill:#EE784C;}
	.st32{fill:#EC744A;}
	.st33{fill:#EA7048;}
	.st34{fill:#E96C45;}
	.st35{fill:#E76843;}
	.st36{fill:#E56341;}
	.st37{fill:#E45F3E;}
	.st38{fill:#E25B3C;}
	.st39{fill:#E0573A;}
	.st40{fill:#DF5337;}
	.st41{fill:#DD4F35;}
	.st42{fill:#DB4B33;}
	.st43{fill:#DA4730;}
	.st44{fill:#361D32;stroke:#FFFFFF;stroke-width:0.5;stroke-miterlimit:10;}
	.st45{fill:#B79797;stroke:#FFFFFF;stroke-width:0.5;stroke-miterlimit:10;}
	.st46{fill:none;stroke:#FFFFFF;stroke-width:0.5;stroke-miterlimit:10;}
	.st47{fill:#361D32;stroke:#FFFFFF;stroke-width:0.2622;stroke-miterlimit:10;}
	.st48{fill:#361D32;stroke:#FFFFFF;stroke-width:0.2495;stroke-miterlimit:10;}
	.st49{fill:#E4DAD8;stroke:#FFFFFF;stroke-width:0.2495;stroke-linejoin:bevel;stroke-miterlimit:10;}
	.st50{fill:none;stroke:#FFFFFF;stroke-width:0.2348;stroke-miterlimit:10;}
	.st51{fill:none;stroke:#FFFFFF;stroke-width:0.2575;stroke-miterlimit:10;}
	.st52{fill:none;stroke:#FFFFFF;stroke-width:0.2429;stroke-miterlimit:10;}
	.st53{fill:#DE3859;}
	.st54{fill:#DF3D58;}
	.st55{fill:#E14258;}
	.st56{fill:#E24857;}
	.st57{fill:#E34D56;}
	.st58{fill:#E55255;}
	.st59{fill:#E65754;}
	.st60{fill:#E75D54;}
	.st61{fill:#E96253;}
	.st62{fill:#EA6752;}
	.st63{fill:#EB6C51;}
	.st64{fill:#ED7250;}
	.st65{fill:#EE774F;}
</style>
<g>
	<g>
		<g>
			<path class="st0" d="M206.2,216.6l8.7,0.8c0.2-3-1-3.7-1.1-6.6c0-1.1,0.1-2.1,0.2-3.2c0.1-0.9,0.4-1.8,0.4-2.7
				c0-1.4-0.1-5.1-0.1-6.6c0-2.1,0.1-1.8,0.4-3.8c0,0-0.3-1.6,0.5-4.9c0.8-3.3,0.4-4,0.4-4v-1.2l-0.1-0.8l-0.1-0.6v-4.4l-3.2-0.5
				L207,179c0.1,0.5,0.5,1,0.7,1.5c0.4,0.7,0.2,1.5,0.2,2.2c0,1.6-0.1,3.2-0.5,4.8c-0.3,1.3-0.3,2.7-0.5,4.1
				c-0.1,0.8-0.1,1.6,0.1,2.4c0.5,1.7,0.6,3.4,0.6,5.1c0,1.2-0.2,2.3-0.5,3.5c-0.3,1-0.4,2-0.6,3c-0.3,1.2-0.2,2.5-0.3,3.7
				c-0.2,1.4,0,2.9,0,4.4c0,0.9,0.1,1.8,0.2,2.7c0.2,1.4,0.6,1,0.6,1.1"/>
			<g>
				<path class="st1" d="M205.6,216.8c2.9,0.3,5.8,0.5,8.7,0.8c0.2,0,0.6-0.1,0.6-0.3c0.1-1.7-0.5-3.1-0.8-4.8
					c-0.5-2.3,0-4.5,0.3-6.8c0.4-3-0.3-6.1,0-9.1c0.1-0.9,0.3-1.8,0.3-2.7c-0.1-1.7,0.3-3.4,0.7-5.1c0.3-1.6,0.4-3.2,0.2-4.9
					c-0.2-1.8-0.1-3.6-0.1-5.5c0-0.1-0.1-0.1-0.1-0.1c-1.2-0.2-2.5-0.6-3.7-0.4c-1.6,0.2-3.2,0.5-4.8,0.7c-0.1,0-0.5,0.1-0.4,0.3
					c0.2,0.7,0.7,1.2,0.9,1.9c0.2,0.8,0.1,1.7,0.1,2.5c0,1.9-0.5,3.8-0.7,5.7c-0.2,1.6-0.4,3.3-0.1,4.9c0.4,1.9,0.7,3.7,0.6,5.6
					c-0.1,1.9-0.7,3.7-1,5.6c-0.3,1.7-0.4,3.4-0.5,5c-0.1,1.7,0,3.6,0.2,5.3c0.1,0.6,0,1.4,0.4,1.9c0.1,0.1,0.4,0.3,0.3,0.2
					c0.1,0.2,0.8-0.1,0.8-0.2c-0.1-0.1-0.2-0.1-0.3-0.2c-0.3-0.7-0.4-1.5-0.5-2.3c-0.2-1.9-0.2-3.8-0.1-5.7c0.2-1.8,0.3-3.6,0.6-5.4
					c0.3-1.6,0.8-3.2,0.8-4.8c0-1.9-0.3-3.7-0.7-5.5c-0.3-1.7,0-3.9,0.3-5.6c0.3-1.5,0.5-3,0.6-4.6c0-0.7,0.1-1.6,0-2.4
					c-0.2-0.7-0.7-1.3-0.9-2.1c-0.1,0.1-0.3,0.2-0.4,0.3c1.2-0.2,2.4-0.4,3.5-0.5c1.4-0.2,1.5-0.2,2.8,0c0.3,0,1.7,0,1.8,0.3
					c-0.2-0.2-0.1,0.2-0.1,0.3c0,0.3,0,0.7,0,1c0,1.2-0.1,2.4,0.1,3.5c0.1,0.8,0.1,1.5,0.2,2.3c0.1,2.1-0.7,4.1-0.9,6.2
					c-0.2,1.4-0.1,2.7-0.3,4.1c-0.3,1.8-0.1,3.6-0.1,5.4c0,1.1,0.1,2.2,0.1,3.2c0,1.6-0.4,3.1-0.6,4.7c-0.1,1.4,0,2.8,0.4,4.1
					c0.4,1.3,0.7,2.5,0.6,3.9c0.2-0.1,0.4-0.2,0.6-0.3c-2.9-0.3-5.8-0.5-8.7-0.8C205.9,216.5,205.2,216.8,205.6,216.8L205.6,216.8z"
					/>
			</g>
		</g>
		<g>
			<g>
				<path class="st1" d="M207.1,183.7c0.3,0.5,0.5,1,0.8,1.5c0.3,0.5,0.7,0.9,1.1,1.3c0.8,0.9,1.5,1.8,2.2,2.8
					c0.5,0.7,1,1.4,1.5,2.1c0.4,0.6,0.8,1.3,1.4,1.9c0.2,0.2,0.9-0.1,0.7-0.3c-0.5-0.5-0.9-1.2-1.3-1.8c-0.5-0.7-1.1-1.4-1.6-2.2
					c-0.7-1-1.3-1.9-2.1-2.8c-0.4-0.4-0.8-0.9-1.1-1.3c-0.3-0.5-0.6-1-0.9-1.6C207.6,183.2,206.9,183.4,207.1,183.7L207.1,183.7z"/>
			</g>
		</g>
		<g>
			<g>
				<path class="st1" d="M206.8,198.8c0.2,0.7,0.6,1.4,1,2.1c0.5,0.9,1,1.7,1.6,2.6c0.4,0.6,0.8,1.2,1.2,1.8c0.3,0.6,0.6,1.2,1,1.7
					c0.5,0.6,1.1,1,1.6,1.6c0.2,0.3,0.9,0,0.7-0.3c-0.4-0.6-1.1-1.1-1.6-1.6c-0.4-0.5-0.7-1-0.9-1.5c-0.3-0.6-0.8-1.2-1.2-1.9
					c-0.5-0.8-1-1.7-1.5-2.5c-0.4-0.7-0.8-1.3-1-2.1C207.4,198.2,206.7,198.4,206.8,198.8L206.8,198.8z"/>
			</g>
		</g>
	</g>
	<g>
		<g>
			<path class="st2" d="M238.8,198.6c-0.1,10.5-10.5,15.7-17.6,17.4c-5.5,1.3-11.1,1.3-16.5,0.1c-4.6-1-9.3-2.9-13.2-6.3
				c-2.9-2.5-5.5-6.1-5.9-10.5c-0.5-4.3,1.3-8.2,3.8-11.2c3.2-3.7,7.6-5.9,11.8-7.2c5.4-1.6,11-1.9,16.5-1
				c5.3,0.9,10.7,2.8,15.2,6.7C236,189.6,238.7,193.7,238.8,198.6c0,0.6,2.3,0.2,2.3-0.7c-0.1-4.7-2.5-8.7-5.5-11.6
				c-4-3.8-8.9-5.9-13.8-7.1c-5.8-1.4-11.9-1.4-17.8-0.2c-5,1.1-10.2,3.2-14.5,6.8c-3.1,2.7-6,6.5-6.4,11.2
				c-0.5,4.6,1.4,8.8,4.1,11.8c3.6,4,8.4,6.4,13.1,7.8c5.7,1.7,11.7,2,17.5,1.1c5.2-0.8,10.5-2.6,15-6c3.4-2.5,6.7-6.1,7.7-10.9
				c0.2-1,0.3-2,0.3-3.1C241,197.3,238.8,197.7,238.8,198.6z"/>
		</g>
	</g>
	<polygon class="st3" points="51.8,160.4 60.3,164.7 60.3,165.9 51.8,161.7 	"/>
	<polygon class="st3" points="51.8,160.4 54,159.3 60.3,162.3 60.3,164.7 	"/>
	<path class="st4" d="M62.2,133.5c0,0-1.7,1.7-2.8,1.9c-1.6,0.3-3.4,0.2-4.1,1.3"/>
	<path class="st5" d="M58.3,138.3c0,0-1.7,1.7-2.8,1.9c-1.6,0.3-3.4,0.2-4.1,1.3"/>
	<path class="st6" d="M49.7,150.8c0,0-1.4,2.3-2.5,2.8c-1.5,0.7-3.3,1.1-3.7,2.3"/>
	<line class="st7" x1="144.7" y1="222.5" x2="184.3" y2="201.3"/>
	<g>
		<g>
			<path class="st8" d="M142.1,26.6c0,0-5.4-3-10.5,5.6c-5.2,8.6,1.8,12.4,1.8,12.4l77.2,38.2c-1.5-5-2.9-7.8-0.9-12.2
				c2-4.4,7.8-5.7,10.9-4.8C226.2,67.5,142.1,26.6,142.1,26.6z"/>
		</g>
		<ellipse transform="matrix(0.5 -0.866 0.866 0.5 43.48 223.595)" class="st9" cx="215.4" cy="74.1" rx="10.1" ry="7.5"/>
	</g>
	<ellipse transform="matrix(0.5 -0.866 0.866 0.5 -25.0494 100.4192)" class="st10" cx="74.4" cy="71.9" rx="10.1" ry="7.5"/>
	<path class="st11" d="M119.2,254.4l32.8,0.2c0,0-2.5,22-4,33.5c-0.3,6.1-1.2,12.5-3.8,18.2c-4.7,10.2-12.1,18.3-12.1,18.3l0.7,50.2
		c0,0-1.6,6.4-13.3,6.7h-0.4c-11.6-0.2-13.3-6.7-13.3-6.7l0.7-50.2c0,0-7.4-8-12.1-18.3c-2.6-5.7-3.5-12.2-3.8-18.2
		c-1.5-11.6-4-33.5-4-33.5l32.8-0.2H119.2z"/>
	<path class="st11" d="M106.8,324.4c0,0,4.2,5.3,13,5.3s12.5-5.2,12.5-5.2"/>
	<g>
		<g>
			<g>
				<path class="st0" d="M151,257.1c1,1.4-3.5,3.4-4.2,3.8c-4,1.9-8.3,3.3-12.6,4.3c-11,2.7-22.2,3-33.1,0.1
					c-2.5-0.7-4.9-1.4-7.2-2.4c-0.9-0.4-1.9-0.8-2.8-1.3c-0.3-0.2-0.7-0.4-1-0.6c-0.3-0.2-1.6-1.1-1.2-1.2c0.9-0.3,0.7-1.3-0.3-1
					c-0.6,0.2-1.5,0.5-1.4,1.3c0.1,0.9,1.6,1.6,2.2,2c1.8,1.1,3.8,1.9,5.8,2.6c6.1,2.2,12.5,3.4,19,3.7c6,0.3,12-0.4,17.9-1.7
					c5.1-1.1,10.2-2.6,15-4.8c1.3-0.6,7.2-3.2,5.4-5.5C152,255.9,150.5,256.5,151,257.1L151,257.1z"/>
			</g>
		</g>
		<g>
			<g>
				<path class="st0" d="M150.8,260.5c0.8,1.3-3.8,3.3-4.5,3.7c-4,1.9-8.2,3.2-12.5,4.2c-4.9,1.2-9.9,2-14.9,2.1
					c-5.8,0.2-11.8-0.6-17.4-2.1c-2.5-0.7-4.9-1.5-7.3-2.5c-0.9-0.4-1.9-0.8-2.8-1.3c-0.4-0.2-2.5-1.7-2.3-1.8
					c0.9-0.3,0.7-1.4-0.3-1c-0.6,0.2-1.4,0.6-1.3,1.3c0.1,0.9,1.6,1.6,2.2,2c1.8,1,3.7,1.9,5.6,2.6c6.1,2.3,12.5,3.5,19,3.8
					c5.8,0.3,11.6-0.4,17.3-1.6c5.1-1.1,10.2-2.6,15-4.7c1.4-0.6,7.1-3,5.6-5.4C151.8,259.3,150.4,259.9,150.8,260.5L150.8,260.5z"
					/>
			</g>
		</g>
		<g>
			<g>
				<path class="st0" d="M150.5,263.8c0.9,1.7-3.6,3.5-4.6,4c-4,1.8-8.2,3.1-12.5,4.1c-5,1.2-10.2,2-15.3,2
					c-5.8,0-11.6-0.9-17.2-2.5c-2.4-0.7-4.8-1.5-7.1-2.6c-0.8-0.4-1.7-0.8-2.5-1.3c-0.2-0.1-2.6-1.7-1.9-2c1-0.4,0.1-0.6-0.5-0.3
					c-0.5,0.2-1.2,0.5-1.1,1.1c0.2,0.8,1.6,1.4,2.3,1.8c1.8,1,3.7,1.8,5.6,2.6c5.9,2.2,12.2,3.4,18.5,3.7c5.7,0.3,11.4-0.4,17-1.6
					c5-1,9.9-2.4,14.6-4.4c1.7-0.7,3.5-1.6,5-2.7c0.6-0.5,1.7-1.4,1.2-2.3C151.9,263.1,150.4,263.6,150.5,263.8L150.5,263.8z"/>
			</g>
		</g>
		<g>
			<g>
				<path class="st0" d="M150.3,267.3c0.5,1.5-4,3.2-4.9,3.6c-4,1.7-8.2,3-12.5,3.9c-4.6,1.1-9.4,1.8-14.1,1.9
					c-5.7,0.1-11.6-0.7-17.1-2.3c-2.4-0.7-4.8-1.5-7.1-2.5c-0.8-0.4-1.7-0.8-2.5-1.2c-0.3-0.2-0.7-0.4-1-0.6
					c-0.2-0.1-1.6-1.1-1.3-1.2c1-0.4,0.1-1.2-0.7-0.9c-2.4,1,0.3,2.7,1.5,3.4c1.8,1,3.7,1.9,5.6,2.6c5.7,2.2,11.9,3.4,18,3.7
					c5.6,0.3,11.1-0.3,16.6-1.4c5-1,10.1-2.4,14.8-4.4c1.7-0.7,3.4-1.5,4.8-2.6c0.7-0.5,1.8-1.5,1.4-2.5
					C151.6,266.2,150,266.6,150.3,267.3L150.3,267.3z"/>
			</g>
		</g>
		<g>
			<g>
				<path class="st0" d="M150.1,270.7c0.2,0.8-0.7,1.4-1.2,1.8c-1.2,0.8-2.5,1.4-3.8,2c-4,1.7-8.3,2.9-12.6,3.8
					c-4.6,1-9.3,1.7-14.1,1.7c-5.7,0-11.4-0.9-16.8-2.5c-2.4-0.7-4.8-1.6-7.1-2.6c-0.8-0.4-1.5-0.8-2.3-1.2
					c-0.4-0.2-2.8-1.8-2.1-2.2c0.9-0.4-0.5-0.4-0.9-0.2c-2.1,1,0.9,2.6,1.9,3.1c1.8,1,3.7,1.8,5.6,2.5c5.7,2.1,11.8,3.3,17.8,3.6
					c5.4,0.3,10.9-0.3,16.2-1.4c4.8-1,9.6-2.2,14.1-4.1c1.7-0.7,3.5-1.5,5-2.5c0.7-0.5,1.9-1.3,1.7-2.3
					C151.5,269.9,150,270.3,150.1,270.7L150.1,270.7z"/>
			</g>
		</g>
		<g>
			<g>
				<path class="st0" d="M149.8,274.1c0.1,0.7-1,1.3-1.4,1.6c-1.2,0.8-2.6,1.4-4,2c-4,1.6-8.1,2.7-12.3,3.6c-4.5,1-9.2,1.7-13.8,1.7
					c-5.6,0-11.2-0.9-16.6-2.5c-2.3-0.7-4.5-1.5-6.7-2.5c-0.8-0.4-1.6-0.8-2.3-1.2c-0.4-0.2-2.5-1.8-2.4-1.9
					c0.9-0.5,0.1-1.1-0.6-0.7c-2.1,1.1,0.5,2.6,1.6,3.3c1.7,1,3.6,1.9,5.5,2.6c5.5,2.1,11.4,3.3,17.3,3.8c5.4,0.4,10.7-0.2,16-1.2
					c4.9-0.9,9.8-2.2,14.5-4c1.8-0.7,3.6-1.4,5.1-2.5c0.7-0.5,1.8-1.3,1.7-2.3C151.3,273.1,149.8,273.5,149.8,274.1L149.8,274.1z"/>
			</g>
		</g>
		<g>
			<g>
				<path class="st0" d="M149.6,277.5c0,0.8-1,1.4-1.6,1.7c-1.3,0.8-2.7,1.4-4.2,2c-4.1,1.6-8.3,2.7-12.6,3.5
					c-4.3,0.9-8.8,1.5-13.2,1.4c-5.6-0.1-11.2-1-16.6-2.7c-2.2-0.7-4.4-1.5-6.5-2.6c-0.6-0.3-5.1-2.8-4.2-3.3
					c0.6-0.4-0.9-0.2-1.2-0.1c-1.6,1,1.4,2.6,2.2,3c1.7,1,3.6,1.8,5.5,2.5c5.5,2.1,11.4,3.3,17.3,3.7c5.1,0.3,10.2-0.2,15.3-1.2
					c4.8-0.9,9.5-2.1,14-3.8c1.8-0.7,3.6-1.4,5.2-2.4c0.8-0.5,1.9-1.2,2-2.2C151.2,276.9,149.6,277.1,149.6,277.5L149.6,277.5z"/>
			</g>
		</g>
		<g>
			<g>
				<path class="st0" d="M149.4,280.8c-0.1,0.7-1.2,1.2-1.8,1.5c-1.3,0.7-2.6,1.3-4,1.8c-3.9,1.5-8,2.5-12.1,3.4
					c-4.2,0.9-8.6,1.5-12.9,1.5c-5.5,0-11-0.9-16.2-2.5c-2.3-0.7-4.5-1.5-6.6-2.5c-0.8-0.4-1.6-0.8-2.3-1.2
					c-0.3-0.2-2.6-1.8-2.4-1.9c0.8-0.6-0.4-1.2-1-0.7c-2.6,1.8,6.2,5.5,7.4,5.9c5.4,2.2,11.2,3.4,17,3.9c5.1,0.4,10.1-0.1,15.1-1
					c4.7-0.8,9.4-2,13.9-3.6c1.8-0.7,3.6-1.4,5.3-2.3c0.9-0.5,2.1-1.3,2.3-2.4C151.1,279.9,149.5,280.1,149.4,280.8L149.4,280.8z"/>
			</g>
		</g>
		<g>
			<g>
				<path class="st0" d="M149.2,284.3c-0.3,0.8-1.3,1.3-2,1.6c-1.3,0.7-2.7,1.3-4.2,1.8c-4,1.4-8.2,2.5-12.3,3.2
					c-4.1,0.8-8.3,1.4-12.4,1.3c-5.5-0.1-10.9-1-16.1-2.7c-2.2-0.7-4.3-1.5-6.4-2.5c-0.6-0.3-5.1-2.8-4.4-3.3
					c0.7-0.6-0.8-0.5-1.2-0.2c-2,1.7,6.7,5.3,7.8,5.7c5.3,2.1,10.9,3.3,16.6,3.7c9.5,0.7,19.4-1.3,28.2-4.4c1.9-0.6,3.7-1.3,5.5-2.3
					c0.9-0.5,2.1-1.2,2.4-2.2C150.9,283.6,149.3,283.8,149.2,284.3L149.2,284.3z"/>
			</g>
		</g>
		<g>
			<g>
				<path class="st0" d="M149,287.6c-0.4,0.8-1.4,1.2-2.1,1.6c-1.4,0.7-2.8,1.2-4.2,1.7c-3.9,1.3-8,2.3-12,3.1
					c-4,0.7-8.1,1.3-12.2,1.3c-5.3-0.1-10.7-1-15.8-2.6c-2.2-0.7-4.4-1.6-6.5-2.6c-0.5-0.2-5-2.7-4.5-3.2c0.7-0.7-0.8-0.8-1.3-0.4
					c-1.8,1.8,6.4,5.3,7.6,5.8c5.2,2.1,10.7,3.4,16.3,3.9c9.3,0.8,19.1-1.1,27.9-4c1.9-0.6,3.7-1.3,5.5-2.2c1-0.5,2.2-1.2,2.7-2.2
					C150.8,286.9,149.3,287,149,287.6L149,287.6z"/>
			</g>
		</g>
		<g>
			<g>
				<path class="st0" d="M148.8,291c-0.4,0.7-1.5,1.2-2.2,1.6c-1.4,0.7-3,1.2-4.5,1.7c-3.9,1.3-7.9,2.2-11.9,2.9
					c-3.9,0.7-7.9,1.2-11.9,1.1c-5.3-0.2-10.6-1.1-15.6-2.8c-2.2-0.7-4.3-1.6-6.3-2.6c-0.6-0.3-4.7-2.6-4.3-3.1
					c0.6-0.8-0.9-0.9-1.3-0.4c-1.6,2,6.3,5.3,7.6,5.8c5,2.1,10.4,3.3,15.7,3.8c9.3,0.9,18.9-0.9,27.6-3.7c1.9-0.6,3.8-1.2,5.5-2.1
					c1.1-0.5,2.3-1.2,2.9-2.2C150.6,290.4,149.1,290.4,148.8,291L148.8,291z"/>
			</g>
		</g>
		<g>
			<g>
				<path class="st0" d="M148.6,294.5c-0.6,0.7-1.6,1.2-2.4,1.6c-1.5,0.7-3,1.2-4.5,1.7c-3.9,1.2-7.9,2.1-12,2.8
					c-3.7,0.6-7.4,1.1-11.2,1c-5.3-0.1-10.6-1.1-15.7-2.8c-2-0.7-4.1-1.5-6-2.5c-0.7-0.4-5.1-2.6-4.6-3.5c0.3-0.6-1.2-0.5-1.4,0
					c-0.7,1.3,2.2,2.7,3,3.2c1.7,1,3.4,1.8,5.3,2.6c4.9,2,10.2,3.2,15.5,3.7c8.9,0.8,18.2-1,26.7-3.5c1.9-0.6,3.8-1.2,5.6-2.1
					c1.1-0.5,2.3-1.1,3-2.1C150.4,293.9,148.9,294,148.6,294.5L148.6,294.5z"/>
			</g>
		</g>
		<g>
			<g>
				<path class="st0" d="M148.4,297.7c-0.7,0.8-1.6,1.2-2.5,1.6c-1.5,0.7-3,1.2-4.6,1.6c-3.9,1.2-8,2-12,2.7c-3.6,0.6-7.3,1-11,0.9
					c-5.2-0.2-10.4-1.2-15.3-2.9c-2.1-0.7-4.1-1.6-6-2.6c-0.7-0.4-1.5-0.8-2.2-1.3c-0.4-0.3-2.5-1.4-2.2-2.2
					c0.2-0.5-1.4-0.4-1.5,0.2c-0.4,1.2,2.4,2.7,3.3,3.2c1.6,1,3.4,1.8,5.1,2.5c4.9,2,10.1,3.2,15.3,3.7c8.6,0.8,17.6-0.9,25.8-3.2
					c1.9-0.5,3.8-1.1,5.6-1.9c1.2-0.5,2.5-1.1,3.4-2.1C150.3,297.3,148.8,297.3,148.4,297.7L148.4,297.7z"/>
			</g>
		</g>
		<g>
			<g>
				<path class="st0" d="M148.2,301c-0.8,0.8-2.1,1.3-3.2,1.7c-1.8,0.7-3.6,1.2-5.5,1.7c-4.3,1.1-8.6,1.9-13,2.5
					c-9.4,1.2-19.1-0.1-27.6-4.2c-1.6-0.7-3.1-1.6-4.5-2.6c-0.4-0.3-1.7-1.2-1.6-1.6c0.2-0.7-1.4-0.5-1.5,0.1
					c-0.2,0.6,0.7,1.3,1.1,1.6c1.1,1,2.4,1.7,3.7,2.4c4.2,2.3,8.9,3.8,13.6,4.7c9.8,1.9,19.7,0.6,29.2-1.9c2.2-0.6,4.4-1.2,6.5-2
					c1.4-0.5,2.9-1.2,4-2.2C150.1,300.8,148.7,300.6,148.2,301L148.2,301z"/>
			</g>
		</g>
	</g>
	<g>
		<g>
			<g>
				<path class="st12" d="M151.9,259.6c1,1.3-3.5,3.7-4.3,4.1c-4,2.2-8.5,3.8-12.9,5.1c-5.1,1.4-10.4,2.3-15.6,2.2
					c-6.1-0.1-12.2-1.5-17.9-3.6c-2.6-0.9-5.1-2-7.6-3.3c-0.9-0.4-1.8-0.9-2.6-1.4c-0.4-0.2-0.8-0.5-1.2-0.7
					c-0.2-0.1-0.4-0.3-0.6-0.4c-0.1-0.1-0.3-0.2-0.4-0.4c-0.2,0.3-0.2,0.4,0.1,0.2c1-0.3,0.8-1.7-0.3-1.4c-0.7,0.2-1.6,0.7-1.5,1.6
					c0.1,1,1.5,1.7,2.2,2.1c1.9,1.1,3.9,2.1,5.9,3c5.9,2.7,12.3,4.7,18.8,5.5c6.3,0.8,12.7,0,18.8-1.4c5.2-1.3,10.4-3.1,15.2-5.6
					c1.5-0.8,7.4-3.9,5.4-6.4C152.8,258,151.4,258.9,151.9,259.6L151.9,259.6z"/>
			</g>
		</g>
		<g>
			<g>
				<path class="st13" d="M151.7,262.3c0.4,0.6-0.5,1.6-0.9,2c-1,1-2.4,1.8-3.6,2.6c-4,2.3-8.5,3.9-12.9,5.1
					c-5.1,1.4-10.4,2.3-15.6,2.3c-6.1,0-12.2-1.5-18-3.6c-2.5-0.9-4.9-2-7.3-3.2c-0.9-0.4-1.7-0.9-2.6-1.4c-0.7-0.4-2.6-1.3-1.1-1.8
					c0.4-0.1-0.9-1.1-1.4-0.9c-2.2,0.8,1,2.7,1.8,3.2c1.8,1.1,3.7,2.1,5.7,2.9c5.7,2.6,11.8,4.5,18.1,5.4c6.2,0.9,12.5,0.3,18.7-1.1
					c5.2-1.2,10.4-2.9,15.1-5.4c1.5-0.8,7.1-3.4,5.4-5.8C152.8,262.1,151.2,261.6,151.7,262.3L151.7,262.3z"/>
			</g>
		</g>
		<g>
			<g>
				<path class="st14" d="M151.3,265.9c1,1.7-3.2,3.9-4.2,4.4c-4,2.3-8.5,3.8-12.9,5c-5.3,1.4-10.8,2.2-16.3,1.9
					c-5.8-0.3-11.6-1.8-17.1-3.8c-2.3-0.9-4.5-1.9-6.7-3c-0.8-0.4-1.6-0.8-2.4-1.3c-0.4-0.2-0.8-0.5-1.2-0.8
					c-0.1-0.1-1.4-1.2-1.2-1.3c0.9-0.4,0.7-0.8-0.2-0.5c-0.5,0.2-1.5,0.5-1.3,1.2c0.2,0.9,1.6,1.5,2.3,1.9c1.8,1.1,3.7,2,5.6,2.9
					c5.7,2.6,11.8,4.4,18,5.2c6.1,0.7,12.4,0.1,18.4-1.4c5.1-1.2,10.2-2.9,14.9-5.3c1.7-0.9,3.4-1.9,4.8-3.2
					c0.6-0.6,1.7-1.7,1.1-2.6C152.7,264.9,151.1,265.6,151.3,265.9L151.3,265.9z"/>
			</g>
		</g>
		<g>
			<g>
				<path class="st15" d="M151.2,269.1c-0.1-0.1-0.1,0.2-0.2,0.4c-0.3,0.4-0.7,0.8-1,1.1c-1.1,1-2.5,1.8-3.8,2.5
					c-4.1,2.1-8.5,3.7-12.9,4.8c-5.1,1.3-10.5,2.1-15.8,1.9c-5.6-0.2-11.2-1.6-16.5-3.6c-2.3-0.9-4.6-1.8-6.8-3
					c-0.8-0.4-1.6-0.9-2.4-1.3c-0.3-0.2-0.6-0.4-0.9-0.6c-0.2-0.2-0.5-0.3-0.7-0.5c-0.2-0.1-0.4-0.3-0.5-0.5c0,0.3,0.1,0.4,0.3,0.2
					c0.8-0.3,0-1.8-0.8-1.5c-2.3,1,0.6,3.1,1.5,3.8c1.7,1.1,3.4,2,5.2,2.8c5.5,2.6,11.4,4.4,17.4,5.3c6.2,0.9,12.5,0.4,18.7-1
					c5.2-1.1,10.3-2.8,15-5.3c1.8-0.9,6.9-3.4,5.5-6.2C151.9,267.5,150.8,268.1,151.2,269.1L151.2,269.1z"/>
			</g>
		</g>
		<g>
			<g>
				<path class="st16" d="M150.7,271.7c0.7,1.8-3.5,3.9-4.6,4.5c-3.9,2.2-8.2,3.7-12.5,4.8c-5.2,1.4-10.6,2.2-16.1,2.1
					c-5.7-0.1-11.4-1.4-16.7-3.4c-2.3-0.9-4.6-1.9-6.8-3c-0.8-0.4-1.6-0.9-2.3-1.3c-0.6-0.4-2.6-1.4-1.4-2c0.2-0.1-1-1-1.4-0.8
					c-1.7,0.8,1.4,2.6,2.1,3c1.6,1,3.4,1.9,5.1,2.7c5.1,2.4,10.5,4.2,16.1,5.1c11.2,1.9,23.4-0.4,33.4-5.3c1.8-0.9,3.6-1.8,5.1-3.1
					c0.7-0.6,1.7-1.5,1.4-2.5C152.1,271.9,150.7,271.5,150.7,271.7L150.7,271.7z"/>
			</g>
		</g>
		<g>
			<g>
				<path class="st17" d="M150.4,275.3c0.1,0.5-0.7,1.3-1.2,1.6c-1.1,1-2.5,1.7-3.8,2.4c-4,2.1-8.4,3.5-12.8,4.6
					c-5.2,1.2-10.5,1.9-15.9,1.6c-5.4-0.3-10.6-1.6-15.7-3.5c-2.1-0.8-4.2-1.7-6.3-2.8c-0.8-0.4-1.5-0.8-2.3-1.3
					c-0.3-0.2-0.6-0.4-0.8-0.5c-0.2-0.2-0.5-0.3-0.7-0.5c-0.3-0.3-0.4-0.5-0.7-0.4c1-0.5,0.1-1.8-0.8-1.4c-3.4,1.8,4.8,5.6,6.1,6.2
					c5,2.4,10.3,4.2,15.8,5.1c11.3,2,23.8-0.3,34-5.4c1.8-0.9,3.6-1.9,5.1-3.2c0.8-0.7,1.7-1.7,1.4-2.8
					C151.8,274.1,150.1,274.3,150.4,275.3L150.4,275.3z"/>
			</g>
		</g>
		<g>
			<g>
				<path class="st18" d="M150.1,278.3c0.1,0.8-0.7,1.5-1.2,2c-1.1,1-2.4,1.7-3.7,2.4c-4,2.1-8.4,3.6-12.9,4.6
					c-5.4,1.3-10.9,1.9-16.4,1.5c-5.2-0.4-10.4-1.7-15.3-3.7c-2-0.8-4-1.7-5.9-2.8c-0.6-0.3-4.8-2.7-3.9-3.3c0.5-0.3-1-0.7-1.4-0.4
					c-1.5,0.9,1.4,2.6,2.1,3c1.6,1,3.2,1.9,4.9,2.6c4.8,2.3,10,3.9,15.3,4.8c11.1,1.8,23.2-0.3,33.2-5.1c1.8-0.8,3.6-1.8,5.1-3
					c0.7-0.6,1.8-1.5,1.7-2.5C151.7,277.9,150,277.9,150.1,278.3L150.1,278.3z"/>
			</g>
		</g>
		<g>
			<g>
				<path class="st19" d="M149.9,281.9c0,0.8-0.9,1.5-1.4,1.9c-1.2,0.9-2.5,1.7-3.8,2.3c-4.1,2.1-8.6,3.4-13.1,4.4
					c-5.4,1.1-11,1.6-16.5,1c-5-0.5-9.9-1.9-14.5-3.8c-1.9-0.8-3.8-1.7-5.6-2.7c-0.5-0.3-4.5-2.9-4-3.2c0.9-0.6-0.6-0.4-1-0.1
					c-1.6,1.1,0.9,2.5,1.8,3c1.6,1,3.3,1.9,5.1,2.7c4.9,2.2,10.1,3.8,15.4,4.6c10.9,1.5,22.7-0.7,32.5-5.5c1.7-0.8,3.5-1.8,5-3
					c0.7-0.6,1.7-1.4,1.6-2.4C151.4,281,149.8,281.4,149.9,281.9L149.9,281.9z"/>
			</g>
		</g>
		<g>
			<g>
				<path class="st20" d="M149.5,284.8c0,0.6-0.9,1.3-1.4,1.6c-1.2,0.9-2.5,1.7-3.8,2.3c-3.9,1.9-8,3.3-12.2,4.2
					c-10.3,2.3-20.8,1.8-30.6-2c-2-0.8-3.9-1.6-5.8-2.7c-0.8-0.4-1.5-0.8-2.2-1.3c-0.4-0.2-2.2-1.7-2.2-1.6c0.9-0.7-0.4-1.4-1.1-0.9
					c-2.3,1.9,5.3,5.4,6.5,6c4.7,2.3,9.7,3.9,14.9,4.7c10.9,1.8,22.9-0.2,32.8-5c1.7-0.8,3.5-1.7,5-2.9c0.8-0.6,1.8-1.5,1.9-2.6
					C151.3,283.8,149.6,284,149.5,284.8L149.5,284.8z"/>
			</g>
		</g>
		<g>
			<g>
				<path class="st21" d="M149.2,288c-0.1,0.7-0.9,1.3-1.5,1.8c-1.1,0.9-2.4,1.6-3.6,2.2c-3.8,1.9-7.9,3.2-12,4.2
					c-10.3,2.4-20.8,1.9-30.6-2c-2-0.8-3.9-1.7-5.8-2.7c-0.5-0.3-4.6-2.7-4.1-3.3c0.6-0.5-1.1-0.9-1.5-0.5c-1.6,1.6,6.1,5.3,7.2,5.8
					c4.6,2.2,9.6,3.7,14.6,4.5c10.7,1.7,22.3-0.3,32-4.8c1.7-0.8,3.4-1.7,4.9-2.8c0.8-0.6,1.8-1.4,2-2.4
					C151,287.4,149.3,287.3,149.2,288L149.2,288z"/>
			</g>
		</g>
		<g>
			<g>
				<path class="st22" d="M149.2,290.6c-0.2,0.7-1,1.3-1.5,1.8c-1.1,0.9-2.3,1.6-3.6,2.2c-3.6,1.9-7.5,3.1-11.5,4.1
					c-10.2,2.5-20.9,2.3-30.7-1.4c-2-0.7-4-1.6-5.9-2.6c-0.5-0.3-4.7-2.6-4.3-3c0.3-0.3-0.9-1.5-1.1-1.3c-0.8,1.1,1.9,3,2.6,3.5
					c1.3,0.9,2.7,1.7,4.1,2.4c4.3,2.2,9,3.8,13.8,4.7c10.6,2,22.3,0.3,32.1-4.1c1.8-0.8,3.5-1.7,5.1-2.8c0.8-0.6,1.8-1.3,2-2.3
					C150.5,291.4,149.3,290.3,149.2,290.6L149.2,290.6z"/>
			</g>
		</g>
		<g>
			<g>
				<path class="st23" d="M148.7,294.3c-0.3,0.7-1,1.2-1.6,1.6c-1.1,0.8-2.3,1.5-3.6,2.1c-3.7,1.8-7.7,3.1-11.8,3.9
					c-10,2.1-20.3,1.8-29.8-2c-1.9-0.8-3.8-1.7-5.6-2.7c-0.7-0.4-1.4-0.8-2.1-1.3c-0.4-0.3-0.8-0.6-1.2-0.9
					c-0.2-0.2-0.4-0.3-0.6-0.5c-0.1-0.2-0.3-0.6-0.4-0.4c0.5-0.9-1-1-1.4-0.4c-0.8,1.4,1.7,2.8,2.6,3.4c1.5,1,3,1.8,4.6,2.6
					c4.5,2.1,9.3,3.6,14.3,4.3c10.4,1.5,21.8-0.3,31.2-4.7c1.6-0.8,3.2-1.6,4.7-2.7c0.8-0.6,1.8-1.3,2.2-2.3
					C150.7,293.5,149,293.7,148.7,294.3L148.7,294.3z"/>
			</g>
		</g>
		<g>
			<g>
				<path class="st24" d="M148.6,296.9c-1,1.8-3.4,2.9-5.1,3.7c-3.6,1.8-7.4,3-11.3,3.9c-9.9,2.2-20.2,2.1-29.7-1.4
					c-2-0.8-4-1.6-5.9-2.7c-0.7-0.4-1.5-0.8-2.2-1.3c-0.3-0.2-0.6-0.4-0.8-0.6c-0.2-0.1-0.4-0.3-0.6-0.5c-0.2-0.1-0.4-0.3-0.5-0.5
					c-0.2-0.3-0.3-0.3-0.2-0.1c0.2-0.5-1-1.7-1.2-1.2c-0.5,1.4,1.9,2.9,2.8,3.5c1.3,1,2.8,1.8,4.2,2.5c4.3,2.2,9,3.7,13.8,4.5
					c10.1,1.7,21.3,0.1,30.6-4c1.7-0.7,3.4-1.6,5-2.6c0.9-0.6,1.8-1.3,2.3-2.2C150.1,297.6,148.9,296.3,148.6,296.9L148.6,296.9z"/>
			</g>
		</g>
		<g>
			<g>
				<path class="st25" d="M148.5,300c-1.3,2-4.1,3.2-6.2,4.2c-4,1.8-8.3,3.1-12.7,3.8c-10.4,1.8-21.1,1.1-30.6-3.5
					c-1.6-0.8-3.2-1.7-4.7-2.7c-0.5-0.4-1.1-0.8-1.5-1.2c-0.1-0.1-0.3-0.4-0.4-0.4s0.2,0.2,0.1,0.5c0.1-0.5-0.9-1.7-0.9-1.4
					c-0.5,1.8,2.7,3.6,3.8,4.4c3.6,2.4,7.8,4.1,11.9,5.2c11,3,23.3,1.8,33.7-2.3c2-0.8,3.9-1.7,5.7-2.8c1-0.6,2.1-1.4,2.8-2.4
					C149.6,301,148.7,299.6,148.5,300L148.5,300z"/>
			</g>
		</g>
	</g>
	<g>
		<g>
			<path class="st26" d="M91.9,273c6.8,5.8,14.3,10.9,22.2,15.1c3.9,2.1,7.9,3.9,12,5.6c4.3,1.7,8.8,3.6,13.5,3.7c1,0,1-1.6,0-1.6
				c-4.6-0.1-9.1-2.1-13.3-3.7c-4-1.6-8-3.5-11.8-5.5c-7.7-4.1-14.9-9-21.5-14.6C92.3,271.2,91.1,272.3,91.9,273L91.9,273z"/>
		</g>
	</g>
	<polygon class="st27" points="0.9,229.7 0.5,240.2 142,308.6 142,298.5 	"/>
	<polygon class="st27" points="142,308.4 207,276 207,265.4 142,298.3 	"/>
	<g>
		<path class="st8" d="M78.5,62.8c0,0-5.4-3-10.5,5.6c-5.2,8.6,1.8,12.4,1.8,12.4L147,119c-1.5-5-2.9-7.8-0.9-12.2
			c2-4.4,7.8-5.7,10.9-4.8C162.7,103.7,78.5,62.8,78.5,62.8z"/>
	</g>
	<g>
		<g>
			<path class="st26" d="M108.8,104.2c1.3-1.9,3.8-2.9,5.8-3.8c2.7-1.2,5.5-2.2,8.3-3.2c2.1-0.7,4.1-1.4,6.1-2.3
				c3.6-1.6,7.5-2,11.1-3.6c0.6-0.3-0.3-0.3-0.6-0.2c-3.6,1.6-7.7,2.1-11.3,3.7c-2.3,1-4.7,1.8-7.1,2.6c-2.7,1-5.5,2-8.1,3.3
				c-1.8,0.9-3.9,1.9-5.1,3.6C107.7,104.5,108.6,104.5,108.8,104.2L108.8,104.2z"/>
		</g>
	</g>
	<g>
		<g>
			<path class="st12" d="M111.4,101.9c0.6-2.6,3.2-3.9,4.9-5.7c0.9-0.9,1.6-2,2.6-2.7c1.2-0.8,2.6-1.4,3.9-2.1
				c0.3-0.1,0.4-0.4,0.1-0.6c-0.3-0.2-0.8,0-1.1,0.2c-1.4,0.7-2.8,1.3-4.1,2.2c-1.1,0.8-1.9,1.9-2.8,2.9c-1.8,1.9-4.5,3.3-5.1,6.1
				C109.8,102.7,111.3,102.4,111.4,101.9L111.4,101.9z"/>
		</g>
	</g>
	<g>
		<g>
			<path class="st12" d="M112.4,102.4c3.2-1.4,6.1-3.3,8.8-5.6c2.7-2.3,5.6-4.8,9.3-5c0.9,0,1.2-1.2,0.1-1.2
				c-3.7,0.2-6.7,2.3-9.4,4.6c-3,2.5-5.9,4.7-9.5,6.2C110.7,101.8,111.6,102.7,112.4,102.4L112.4,102.4z"/>
		</g>
	</g>
	<g>
		<g>
			<path class="st12" d="M113.3,102c2.5-0.2,4.4-1.3,6.5-2.6c5.9-3.5,12.2-6.3,18.5-9c4.1-1.7,8-3.5,11.5-6.1c3.1-2.3,6-4.9,8.5-7.8
				c4.6-5.2,8.3-11.1,11.7-17c1.4-2.5,2.7-5,4.3-7.3c0.5-0.8,1-1.5,1.7-2.2c0.2-0.2,0.5-0.4,0.7-0.5c0.2-0.1,0.4-0.1,0.4-0.1
				c0.8,0,1.6-1.1,0.5-1.1c-1.4-0.1-2.5,0.9-3.4,1.9c-1.4,1.6-2.4,3.5-3.4,5.3c-3.3,5.6-6.4,11.3-10.3,16.5
				c-4.8,6.3-10.7,12-17.8,15.5c-4.5,2.2-9.2,3.9-13.7,6c-2.7,1.3-5.5,2.6-8.1,4.1c-1.4,0.8-2.8,1.7-4.2,2.5
				c-1.1,0.5-1.9,0.8-3.2,0.9C112.5,100.9,112.2,102.1,113.3,102L113.3,102z"/>
		</g>
	</g>
	<g>
		<g>
			<path class="st12" d="M110.1,102.1c-0.8-1.2-0.5-2.9,0.1-4.1c0.7-1.4,1.9-2.3,3.3-2.9c3-1.5,6.2-2.8,9.3-4.2
				c0.3-0.1,0.6-0.5,0.4-0.8c-0.2-0.3-0.8-0.2-1.1-0.1c-1.8,0.8-3.6,1.6-5.4,2.5c-1.7,0.8-3.5,1.4-5.1,2.4c-2.4,1.5-4.9,5.1-3,7.9
				C109,103.3,110.5,102.7,110.1,102.1L110.1,102.1z"/>
		</g>
	</g>
	<g>
		<g>
			<path class="st26" d="M112,100.5c5.9-2.9,11.9-5.5,18-7.9c1-0.4,1.6-0.8,2.3-1.6c0.7-0.9,1.5-1.7,2.4-2.4c2.6-1.9,5.8-2.3,8.5-4
				c1.9-1.2,3.6-2.7,5.3-4.2c11.2-10.1,20.9-21.6,32.3-31.4c3-2.6,6.2-5.1,9.6-7.3c2.6-1.7,5.5-3.3,8.5-3.9c0.7-0.1,1.3-0.9,0.3-0.7
				c-6,1.2-11.3,5-15.9,8.7c-6.3,5-12,10.6-17.7,16.2c-5.3,5.3-10.4,10.7-15.8,15.9c-2,1.9-4,3.8-6.1,5.4c-0.7,0.6-1.5,1.1-2.4,1.6
				c-1.4,0.7-3.1,1.1-4.6,1.8c-1.7,0.8-3.4,1.8-4.7,3.1c-0.6,0.6-1.1,1.6-1.9,2.1c-1.1,0.7-2.7,1.1-4,1.6c-1.8,0.7-3.5,1.5-5.3,2.2
				c-3.3,1.4-6.5,2.9-9.7,4.5C110.1,100.7,111.6,100.7,112,100.5L112,100.5z"/>
		</g>
	</g>
	<g>
		<g>
			<path class="st12" d="M110.4,103c2.9-0.5,5.7-2.2,8.2-3.7c3.5-2.1,6.9-4.3,10.4-6.4c3.5-2.1,7.1-4.2,10.9-5.6
				c1.5-0.5,3.1-1,4.6-1.1c1-0.1,2,0,3-0.2c2.3-0.6,4.3-1.9,6.2-3.3c2.5-1.8,4.9-3.9,7.2-6.1c5.5-5.1,10.6-10.5,16-15.6
				c2.6-2.5,5.3-5,8.2-7.2c1.8-1.4,4.1-3.1,6.5-3.4c0.9-0.1,1.2-1.3,0.1-1.2c-2.1,0.2-4.1,1.4-5.8,2.5c-2.5,1.7-4.8,3.7-7.1,5.7
				c-5.5,5-10.6,10.4-15.9,15.5c-2.5,2.4-5,4.8-7.7,7c-2,1.6-4.1,3.2-6.4,4.3c-2.1,0.9-4.4,0.6-6.6,1.1c-3.7,0.9-7.1,2.7-10.4,4.5
				c-4.1,2.3-8,4.9-12,7.3c-2.9,1.8-6.1,4-9.5,4.6C109.1,102,109.5,103.2,110.4,103L110.4,103z"/>
		</g>
	</g>
	<g>
		<g>
			<path class="st12" d="M114.9,98.7c2-2.2,3.7-4.7,6-6.5c0.7-0.5,1.4-0.9,2.1-1.4c1.1-0.8,2.2-1.7,3.3-2.6c4.5-3.7,9-7.5,13.4-11.2
				c12.9-11,25.6-22.3,37.8-34c5.9-5.7,11.8-11.6,17-18c0.4-0.5-1.1-0.3-1.4,0c-4.5,5.6-9.6,10.7-14.7,15.8
				c-6.3,6.2-12.8,12.2-19.4,18.1c-10.8,9.7-21.8,19.2-32.9,28.3c-1.3,1.1-2.7,2.2-4.1,3.3c-0.2,0.1-0.3,0.2-0.5,0.3
				c-0.2,0.1,0.1-0.1,0,0c-0.6,0.4-1.2,0.8-1.7,1.2c-2.4,1.9-4.2,4.5-6.3,6.7C113.1,99.1,114.6,99,114.9,98.7L114.9,98.7z"/>
		</g>
	</g>
	<g>
		<g>
			<path class="st12" d="M110.1,100c3.2-1,5.5-3,8-5.2c0.8-0.7,1.7-1.2,2.5-1.8c2.1-1.3,4.1-2.7,6.2-4.1
				c8.4-5.8,16.7-11.7,24.8-17.8c10.2-7.6,20-15.7,29.6-23.9c9.6-8.2,19.4-16.2,29.3-24.1c4-3.2,8-6.3,12.1-9.3
				c0.7-0.6,1.5-1.1,2.2-1.6c0,0,0.5-0.4,0.2-0.1c-0.4,0.3,0.2-0.2,0.3-0.2c0.2-0.2,0.5-0.4,0.7-0.5c0.4-0.3,0.8-0.6,1.2-0.8
				c0.1-0.1,0.3-0.2,0.4-0.2c0.5-0.3-0.8,0.3-0.4,0.2c0.9-0.3,2.5-1.4,1.6-2.5c-0.8-1.1-3.1-0.4-4.1-0.1c-1.9,0.7-3.8,2.4-5.4,3.6
				c-3.3,2.4-6.5,4.9-9.7,7.4c-9.5,7.4-18.8,15-27.9,22.7c-9.9,8.3-19.6,16.7-29.7,24.5c-8.5,6.5-17.1,12.7-25.7,18.8
				c-2.8,1.9-5.6,3.9-8.5,5.8c-0.6,0.4-1.2,0.8-1.7,1.1c-1.4,0.9-2.7,2-3.9,3.1c-0.6,0.5-1.1,1-1.7,1.4c-0.2,0.2-0.4,0.3-0.6,0.4
				c0,0-0.8,0.4-0.5,0.3c-0.9,0.3-3,1-2.7,2.4C106.9,100.6,109.3,100.3,110.1,100L110.1,100z"/>
		</g>
	</g>
	<g>
		<path class="st26" d="M111,102.4c4.6-4.6,9.9-8.6,15.6-11.8c2.6-1.5,5.4-2.7,8.1-3.9c0.6-0.2,1.1-0.6,1.6-0.9
			c1.7-1.1,3.3-2.4,4.8-3.7c3-2.5,5.9-5.1,8.8-7.7c8.9-8.1,17.6-16.6,25.9-25.1c8.2-8.5,17.8-15.6,26.3-23.5
			c3.8-3.5,8-8.3,12.2-11.3c1.7-1.2,11-6,11.1-6.5s-0.8-0.4-1-0.4c-3.8,0.5-7.3,2.3-10.4,4.3c-4.1,2.6-7.9,5.6-11.5,8.8
			c-8.9,7.8-17.1,16.4-25.2,24.8c-8.6,8.9-17.3,17.6-26.2,25.9c-3.3,3.1-6.6,6.1-10.1,9c-1.9,1.6-3.8,3.2-5.8,4.7
			c-0.3,0.2-0.6,0.4-0.9,0.6c-0.1,0-0.1,0.1-0.2,0.1c-0.1,0,0.3-0.2,0,0c-0.1,0.1-0.2,0.1-0.3,0.2c-0.1,0-0.2,0.1-0.2,0.1
			c-0.2,0.1,0.2-0.1,0.2-0.1c0,0.1-0.4,0.2-0.5,0.2c-1.6,0.6-3.1,1.3-4.6,2.1c-6,2.9-11.5,6.6-16.5,11c-1.2,1.1-2.4,2.2-3.5,3.3
			c-0.4,0.4,0.4,0.6,0.6,0.6C109.9,103.1,110.5,102.8,111,102.4L111,102.4z"/>
	</g>
	<g>
		<g>
			<path class="st26" d="M103.7,107.8c0.8-1.9,1.6-3.7,2.6-5.5c1-1.8,2-3.7,3.4-5.1c1.4-1.4,3.2-2,4.9-3c1.7-1,3.2-2.1,4.7-3.4
				c0.6-0.6-0.9-0.4-1.2-0.1c-1.6,1.4-3.2,2.6-5.1,3.6c-1.6,0.9-3.4,1.6-4.7,3c-1.4,1.4-2.3,3.2-3.3,4.9c-1.1,1.9-2,3.9-2.8,5.9
				C102,108.4,103.5,108.2,103.7,107.8L103.7,107.8z"/>
		</g>
	</g>
	<g>
		<g>
			<path class="st26" d="M99.9,114.1c4.9-5.6,11.5-9.1,18.1-12.4c2.2-1.1,4.1-2.3,6.2-3.7c7.2-5.3,14.3-10.8,21.3-16.4
				c9.4-7.4,18.7-14.9,27.8-22.5c4.4-3.6,8.7-7.4,13-11.1c6.1-5.1,12.6-9.9,19.2-14.4c5.4-3.7,10.9-7.3,16.2-11.2
				c4-2.9,8-6,11.1-9.8c0.6-0.8,1.2-1.5,1.7-2.4c0.1-0.2-1.3-0.1-1.5,0.3c-2.5,4.1-6.3,7.2-10,10.1c-5,3.8-10.3,7.3-15.5,10.9
				c-6.1,4.2-12.2,8.4-18,13.1c-4.9,3.9-9.6,8.1-14.4,12.1c-9.1,7.7-18.4,15.2-27.6,22.6c-7.5,5.9-15,11.9-22.7,17.6
				c-1.6,1.2-3.5,2.7-5,3.6c-2.8,1.5-5.8,2.8-8.7,4.4c-3,1.7-5.9,3.5-8.5,5.7c-1.4,1.1-2.6,2.4-3.8,3.7
				C98.2,114.6,99.7,114.4,99.9,114.1L99.9,114.1z"/>
		</g>
	</g>
	<g>
		<g>
			<path class="st26" d="M88.8,113.7c4.5-3.6,9.9-6,15.1-8.2c5.6-2.4,11.3-4.4,16.9-6.7c2.2-0.9,4.3-1.9,6.4-3
				c2.5-1.4,4.8-3.4,7.1-5.2c3.1-2.4,6.2-4.8,9.5-6.9c3.4-2.1,7-3.6,10.7-5c3.8-1.4,6.9-3.5,9.9-6.1c3.4-2.9,6.7-5.9,10.1-8.8
				c3.3-2.9,6.7-5.9,10-8.8c3.1-2.7,6.1-5.5,9.7-7.5c2.4-1.4,5.1-2.5,7.1-4.4c0.8-0.8,1.6-1.6,2.3-2.5c2.7-3.1,5.4-6.2,8.1-9.3
				c3.2-3.7,6.4-7.4,9.7-11.1c2.3-2.6,4.6-5.3,7.1-7.7c0.2-0.2,0.3-0.3,0.5-0.5c0.2-0.2,0.4-0.3,0.3-0.2c1.3-1-0.7-1.5-1.6-0.9
				c-2.2,1.7-4,4-5.9,6c-3.2,3.5-6.3,7.1-9.4,10.6c-3,3.4-5.9,6.9-8.9,10.3c-1,1.2-2.1,2.3-3.1,3.5c-0.3,0.4-0.7,0.7-1,1.1
				c-0.1,0.1-0.2,0.2-0.3,0.3s-0.1,0.1,0,0c-0.4,0.3-0.8,0.6-1.3,0.9c-1.7,1.1-3.5,2-5.2,3s-3.4,2.2-4.9,3.4
				c-3.3,2.7-6.5,5.6-9.7,8.4c-3.3,2.9-6.7,5.9-10,8.8c-3.2,2.8-6.3,5.9-9.8,8.2c-3.4,2.2-7.4,3-11,4.7c-3.5,1.7-6.7,3.8-9.8,6.1
				c-4.8,3.5-9.2,7.7-14.6,10.2c-10.7,4.9-22.3,7.9-32.2,14.3c-1.1,0.7-2.1,1.4-3.2,2.2C85.9,113.9,87.9,114.4,88.8,113.7
				L88.8,113.7z"/>
		</g>
	</g>
	<g>
		<path class="st0" d="M73.7,124c4.9-7.2,8.1-4.7,14.8-10.3c0.6-0.5,1.2-1,1.8-1.5c-0.7,0.5,0.2-0.1,0.4-0.3
			c0.4-0.3,0.7-0.5,1.1-0.8c1.2-0.8,2.3-1.6,3.6-2.4c2.1-1.3,4.2-2.5,6.3-3.6c1.8-0.9,3.5-1.9,5.2-2.9c2.1-1.3,3.8-2.9,5.6-4.5
			c5.8-5.2,11.6-9.7,18.4-13.8c0.2-0.1,0.5-0.3,0.7-0.4c0.5-0.3,0.6-0.6-0.1,0.1c0.6-0.6,1.8-0.9,2.6-1.2c1.7-0.8,3.4-1.7,5-2.8
			c2.5-1.7,4.6-3.9,6.8-5.9c0.7-0.7,1.5-1.3,2.2-2c0.2-0.1,1.1-0.9,0.6-0.5c0.5-0.3,0.9-0.7,1.4-1c1.8-1.2,3.6-2.3,5.3-3.7
			c1.5-1.3,2.3-2.8,3.4-4.4c1.1-1.6,2.3-3.2,3.4-4.8c1-1.4,2-2.9,2.8-4.4c0.2-0.4,0.4-0.7,0.7-1c0.4-0.4-0.5,0.5,0.2-0.2
			c0.1-0.1,0.3-0.3,0.4-0.4c0.2-0.1,0.3-0.3,0.5-0.4c-0.1,0.1-0.6,0.4,0,0c0.4-0.3,0.8-0.5,1.2-0.8c0.5-0.3-0.6,0.3-0.1,0
			c0.2-0.1,0.4-0.2,0.6-0.3c0.5-0.2,0.9-0.4,1.4-0.6c0.4-0.2,0.9-0.3,1.3-0.5c0.2-0.1,0.8-0.3-0.1,0c0.3-0.1,0.6-0.2,0.8-0.3
			c2.2-0.7,4.3-1.4,6.4-2.2c4.9-1.9,8.7-5.5,12.6-9c5.2-4.7,10.4-9.5,15.9-13.9c0.4-0.3,0.8-0.6,1.2-0.9c0.1-0.1,0.6-0.5,0.3-0.2
			c-0.3,0.2,0.2-0.2,0.3-0.2c0.8-0.6,1.5-1.1,2.3-1.7c1.5-1.1,3.1-2.2,4.7-3.2c0.8-0.5,1.6-1,2.4-1.4c0.4-0.2,0.7-0.4,1.1-0.6
			c0.2-0.1,0.4-0.2,0.6-0.3c0.4-0.2-0.6,0.3,0.1,0c1.5-0.8,3.1-1.5,4.7-2.1c0.1,0,0.4-0.2,0.6-0.2c-0.6,0-0.6,0.2-0.2,0.1
			s0.8-0.3,1.2-0.4c0.8-0.2,1.5-0.4,2.3-0.6c1.3-0.3,4-1.6,3.5-3.3c-0.5-1.8-3.4-1.3-4.7-1.1c-7.5,1.5-14.4,5.5-20.5,9.8
			c-6.3,4.4-12.2,9.5-17.9,14.7c-2.3,2.1-4.6,4.2-7,6.3c-0.9,0.8-1.8,1.6-2.8,2.4c-0.2,0.2-0.4,0.3-0.6,0.5
			c-0.1,0.1-0.2,0.1-0.3,0.2c-0.4,0.4,0.3-0.3,0.3-0.3c-0.2,0.3-0.8,0.6-1.1,0.8c-0.5,0.3-1.4,0.6-0.1,0.1c-0.9,0.3-1.7,0.7-2.6,1.1
			c-0.2,0.1-0.4,0.2-0.7,0.2c-0.6,0.2,0.7-0.2,0.1,0c-0.5,0.1-0.9,0.3-1.4,0.5c-1,0.3-2,0.7-3,1c-4.3,1.5-8.7,3.3-11.7,7
			c-1,1.3-1.8,2.9-2.7,4.3c-1.1,1.6-2.4,3.2-3.5,4.8c-0.5,0.7-1,1.4-1.4,2.1c-0.5,0.8-0.8,1.4-1.2,1.8c-0.2,0.2-0.3,0.3-0.5,0.4
			c-0.1,0.1-0.6,0.5-0.3,0.3c0.3-0.2-0.3,0.2-0.3,0.2c-0.2,0.2-0.5,0.3-0.7,0.5c-0.8,0.6-1.7,1.1-2.6,1.7c-3.2,2.1-5.9,4.9-8.7,7.5
			c-0.4,0.4-0.9,0.8-1.3,1.2c-0.3,0.3-0.7,0.6-0.1,0.1c-0.3,0.2-0.6,0.5-0.9,0.7c-0.6,0.4-1.3,0.8-2,1.2c-0.1,0.1-0.7,0.4-0.2,0.1
			c0.5-0.3-0.2,0.1-0.3,0.1c-0.5,0.3-1,0.5-1.5,0.7c-6.9,3.3-13,8-18.9,12.8c-1.7,1.3-3.3,2.7-4.9,4.2c-0.1,0.1-2.9,2.3-2.8,2.5
			c0-0.1,0.8-0.6,0.3-0.2c-0.1,0.1-0.2,0.1-0.3,0.2c-0.2,0.1-0.3,0.2-0.5,0.4c-0.4,0.3-0.8,0.5-1.2,0.8c-0.8,0.5-1.7,1-2.5,1.5
			c-4.4,2.4-8.8,4.8-12.9,7.7c-6.8,4.9-12.6,3.9-17.7,10.5c-1.6,2.1-2.7,4.7-4.2,6.9c-1.1,1.6,0.4,2.1,1.8,2.1
			c1.9,0,4.8-2.9,4.8-2.9L73.7,124z"/>
	</g>
	<g>
		<g>
			<path class="st25" d="M115.6,103.4c10.9-7.5,21.8-15,33-22c5.3-3.3,10.8-6.3,15.8-10c2.4-1.8,4.6-3.8,6.9-5.7
				c2.1-1.8,4.2-3.5,6.2-5.4c0.9-0.9,1.8-1.9,2.6-2.9c0.4-0.6,0.9-1.2,1.2-1.8c0.1-0.2,0.3-0.4,0.4-0.7c0,0.1,0.5-0.9,0.2-0.4
				c-0.3,0.4,0.2-0.3,0.3-0.4c0.2-0.2,0.4-0.4,0.5-0.6c0.2-0.2,0.5-0.5,0.7-0.7c-0.5,0.5,0.5-0.5,0.7-0.6c3-2.6,6.2-4.9,9.3-7.2
				c2.5-1.9,5.3-3.8,7.4-6.2c2.5-3,5-5.8,7.7-8.5c3.7-3.6,7.6-7.1,11.7-10.2c1-0.7,2-1.4,3-2.1c0.5-0.4,1-0.7,1.6-1
				c0.2-0.1,0.3-0.2,0.5-0.3c0.3-0.2,0.3-0.2,0.1-0.1c0.1-0.1,0.3-0.1,0.4-0.2c0.9-0.5,1.9-1,2.8-1.5c0.5-0.2,0.9-0.4,1.4-0.6
				c-0.1,0-0.7,0.2-0.1,0.1c0.3-0.1,0.6-0.2,0.9-0.3c1.2-0.3,2.9-1.4,2.5-2.9c-0.4-1.5-2.5-1.6-3.6-1.3c-4.1,1.2-7.8,3.4-11.3,5.8
				c-3.9,2.7-7.5,5.8-11,9c-3.3,3-6.5,6.2-9.4,9.6c-1,1.1-1.8,2.3-2.8,3.4c-0.1,0.1-0.2,0.2-0.3,0.3c-0.3,0.3,0.6-0.5,0.1-0.1
				c-0.3,0.2-0.5,0.5-0.8,0.7c-0.7,0.6-1.4,1.1-2.1,1.7c-3.1,2.5-6.4,4.8-9.5,7.3c-2.6,2.1-5.2,4.2-6.9,7.1
				c-1.3,2.2-3.2,3.9-5.1,5.5c-2.1,1.8-4.3,3.6-6.4,5.5c-4.6,4-9.9,7-15.1,10.2c-12.9,7.8-25.2,16.3-37.5,24.8
				c-1.1,0.7-1.5,2.3-0.3,3.1C112.5,104.6,114.4,104.2,115.6,103.4L115.6,103.4z"/>
		</g>
	</g>
	<g>
		<path class="st26" d="M71.2,119.7c3.8-6.5,9.1-4.9,15.2-9.3c5.2-3.8,10.9-6.7,16.9-9.2c4.1-1.7,7.8-2.8,12-4.4
			c0.5-0.2,1-0.4,1.5-0.6c0.8-0.4,1.2-0.9,1.8-1.6c3.3-3.6,6.8-7,10.2-10.4c3.5-3.5,7-6.9,10.5-10.5c2.8-2.9,5.5-5.9,9.1-8
			c3.1-1.7,6.4-2.9,9.6-4.5c1.8-0.9,3.5-1.9,5.1-3c1.2-0.9,2.3-1.8,3.4-2.8c2.7-2.4,5.2-5.1,7.5-7.8c1-1.2,2-2.4,2.9-3.7
			c0.3-0.5,0.6-1,0.9-1.5c0-0.1,0.1-0.2,0.1-0.2c-0.1,0.2-0.1,0.1,0,0c0.1-0.1,0.1-0.1,0.2-0.2l0.1-0.1c0.1-0.1-0.2,0.2,0,0
			c0.2-0.2,0.4-0.3,0.6-0.5c0.6-0.4,1.2-0.8,1.7-1.2c2-1.5,3.9-3.1,5.8-4.8c3.2-2.9,9.3-6.2,12.1-9.5c3.2-3.7,5.7-7.2,9.4-10.5
			c4.5-4,9.6-7.7,14.8-10.8c0.2-0.1,1.4-0.2,1.6-0.3c-0.1,0-1,0-1,0c0.4-0.2-1.6-0.7-2-1.2c-0.3-0.5-1.2-0.4-1.6-0.1
			c-3.8,2.1,0.7-3.4-2.7-0.7c-8.6,0-19.5,13.7-22.6,16.8c-3.6,3.6-2.1,7.6-5.6,11.3c-2.3,2.4-4.7,4.8-7.3,6.9
			c-1.4,1.1-2.8,2.1-4.2,3.1c-0.4,0.3-0.9,0.6-1.2,1c-0.5,0.5-1.9,1.2-2.3,1.8c-1.8,2.8-7.5,5.2-9.8,7.6c-2.2,2.3-8.4,6.4-8.4,6.4
			l-4.2,5.2c0,0-6.5,3.3-9.3,5.7c-1.7,1.5-3.2,3.2-4.8,4.9c-1.7,1.8-3.4,3.5-5.1,5.2c-3.6,3.6-7.2,7.1-10.7,10.7
			c-1.6,1.7-3.3,3.3-4.9,5.1c-0.2,0.3-0.6,0.5-0.8,0.8c0.1-0.1,0.2-0.2,0,0c-0.2,0.2,0.2-0.1,0,0c-0.1,0-0.2,0.1-0.3,0.1
			c-0.5,0.2-1.1,0.4-1.6,0.6c-0.1,0-0.4,0.1,0,0c-0.1,0-0.1,0.1-0.2,0.1c-0.2,0.1-0.4,0.1-0.6,0.2c-0.4,0.1-0.9,0.3-1.3,0.4
			c-2.2,0.8-4.4,1.5-6.5,2.4c-5.8,2.2-11.5,4.9-16.7,8.2c-6.2,3.9-11.9,1.8-16.3,7.7c-1.2,1.6-2.3,3.2-3.3,4.9
			c-0.3,0.5,0.3,0.9,0.7,0.9C70.2,120.5,70.9,120.3,71.2,119.7L71.2,119.7z"/>
	</g>
	<g>
		<path class="st0" d="M73.9,124.5c0,0,3.9-0.6,11.8-4.5c3.4-1.7,7.8-0.7,10.9-2.9c1.4-0.9,2.7-2,3.9-3.1c1.4-1.4,2.6-2.8,4-4.1
			c6.8-6.3,14.9-11,22.2-16.5c2.1-1.6,4.2-3.4,6.3-5c1.3-1,2.8-1.6,4.3-2.1c3.8-1.4,7.7-2.4,11.6-3.8c1.6-0.5,3.2-1.1,4.7-2
			c1.1-0.6,2-1.3,3-2c2.8-2,6.5-3.1,9.2-5.1c2.9-2.1,6.2-5.3,9.2-7.2c1-0.6,6.7-3,7.9-4.3c0.8-0.9,5.4-4,6.4-4.5
			c1.1-0.5,6.5-4.4,8.4-6c1.8-1.6,16.7-15.5,17.8-16.6c4-4.1,7.7-8.1,11.8-12c2.2-2,4.7-4.1,6.9-6c1.5-1.3,2.9-2.9,4.4-3.9
			c-0.1,0-1-1.5-1.4-1.5c-1.6-0.1-6.4-2.3-7.6-1.4c-2,1.5-7,6.8-8.9,8.5c-4.6,4.2-12.6,10.3-17,14.7c-1.6,1.6-3.2,2.9-4.8,4.5
			c-1.7,1.7-3.9,3.8-4.8,4.2c-1.2,0.5,4.1,6.1,3,5.6c-4.4-2.1-6,1-6.9,1.8c-1.8,1.8-3.9,4.7-6,6c-1,0.6-1,2.2-2.1,2.9
			c-1.3,0.8-11.7,8.4-14.2,10.1c-3.1,2.2-6.1,4.5-9.2,6.8c-2.2,1.6-4.4,1-6.8,2.3c-3.2,1.8-6.9,3.5-10.3,4.5
			c-3.6,1.1-7.4,2.1-10.5,4.3c-2.2,1.6-4.2,3.5-6.3,5.1c-2.1,1.6-4.3,2.5-6.4,4.1c-3.8,2.6-7.6,5.3-11.2,8.1
			c-1.7,1.3-4.2,3.7-5.7,5.1c-1.4,1.3-2.9,2.6-4.2,4c-0.2-0.4-8.6,3.2-8.4,3.6c-0.2-0.5-21.6,8.6-21.4,9.1c-1.8,1.4-1.4-3-1-3.5
			L73.9,124.5z"/>
	</g>
	<path class="st8" d="M68.4,195.7L0.5,229.2l141.5,69.3l0,0l64.9-33L68.4,195.7z M109.2,273.8c-22.3-5-28-10-28.3-18.2
		c-0.4-8.3,18-15.3,38.8-15.3s37.7,7.4,37.7,16.6C157.3,266,131.4,278.8,109.2,273.8z"/>
	<g>
		<path class="st28" d="M158.7,257.3c0,8.8-16.6,19.2-36.3,19.2s-39.8-7.2-39.8-16c0-8.8,13.7-21.7,33.4-21.7
			C147.7,238.8,158.7,248.5,158.7,257.3z"/>
		<path class="st29" d="M120.2,238.6c-22,0-39.7,8.1-39.7,18.1c0,10,16.9,20,38.8,20s40.6-10,40.6-20
			C159.9,246.6,142.2,238.6,120.2,238.6z M120.2,271.4c-19.1,0-34.4-6.8-34.4-15.3c0-8.4,15.4-15.3,34.4-15.3s34.4,6.9,34.4,15.3
			C154.6,264.6,139.3,271.4,120.2,271.4z"/>
	</g>
	<g>
		<path class="st8" d="M149.9,260.1c0.5-0.2,0.5-2.8,0.5-2.8s0.7-10.5-1.4-25.4c-2.7-19-12.5-24.3-12.5-24.3l0.2-42l-34.1,0.4
			l0.5,41.3c0,0-9.4,8.1-10.8,19.7c-1.5,11.6-3.8,27.6-0.8,34.3"/>
		<ellipse class="st8" cx="119.7" cy="166.3" rx="17.3" ry="8.7"/>
		<path class="st30" d="M136.6,207.3c0,3.5-7,8.7-16.5,8.7s-17-5.2-17-8.7"/>
		<ellipse class="st11" cx="119.8" cy="166.3" rx="10" ry="5.1"/>
		<ellipse class="st11" cx="119.8" cy="159.4" rx="10" ry="5.1"/>
		<path class="st27" d="M109.8,159.6v6.7c0,0,0.2,5.6,10.6,5.3c10.4-0.3,9.3-5.3,9.3-5.3v-6.9c0,0-1.2,4.7-9.8,4.8
			C111.4,164.3,109.8,159.6,109.8,159.6z"/>
	</g>
	<g>
		<path class="st25" d="M143,89c-6.1,0.6-11.9,2.6-17.4,5.5c-5.1,2.6-9.8,5.9-14.7,8.7c-0.5,0.3-1.1,0.6-1.6,0.9
			c-0.4,0.2,0.4-0.2-0.1,0c-0.1,0.1-0.2,0.1-0.3,0.2c-0.5,0.3-1,0.5-1.6,0.7c-0.3,0.1-0.5,0.2-0.8,0.3c-0.6,0.2,0.1,0-0.5,0.2
			s-1.2,0.4-1.8,0.6c-2.7,0.8-5.5,1.6-8.2,2.5c-7.8,2.6-14.8,6.7-20.9,12.1c-4.3,3.8-15.7,8.5-16.6,10c-0.3,0.4-0.5,0.8-0.8,1.2
			c-0.5,0.8-1,0.9-1.9,1.8c-0.9,0.9-1.2,2.5-1.9,3.3c-0.6,0.7-1.1,0.6-1.7,1.3c-0.8,1-1.3,2-2,3.1c-0.6,0.8-1.1,1.8-1.9,2.5
			c-1.9,1.8-2.4,2.6-3,4.1c-0.6,1.5-0.1,1.1-1.6,3.7c-0.3,0.5-0.6,1.2-0.9,1.9c-0.6,1.5-1.6,3.9-2.2,6c-0.7,2.6-0.6,4.4-0.9,5.4
			c-0.3,1.1-0.8,2.8-0.9,3.4c-0.2,1-0.3,1.6-0.8,2.9c-0.5,1.2-0.5,3.2-0.7,4.6c-0.3,1.7-1,3-0.5,4.8c0.5,1.8-0.3,2.6-0.5,3.9
			c-0.1,1.2-0.2,2.3-0.3,3.5c-0.1,1.9-0.7,4.2,0,5.8s-0.4,3.9,0.4,6.2c0.9,2.2,0.3,1.9,0.5,3.1c0.2,1.2,0,3.2,0.6,4.1
			c0.6,0.9,1.1,6.1,2,7.3c0.9,1.2,0.9,2.6,1.3,3.9c0.4,1.2,1.1,1.6,1.4,3.6c0.3,2.1,3.4,5.6,3.7,7.3c0.3,1.8,2.9,5.8,4.5,6.8
			c1.6,1,1.9,2.4,3,3.6c0.6,0.6,0.7,1.4,1.7,1.9s3.7,4.3,5.1,4.6c1.4,0.3,5.3,4.2,6.6,4.7c1.2,0.4,5.4,3.5,6.3,3.4s3,1.4,4.3,2.4
			c2.4,1.7,4.7,3.8,7.3,5.3c0.8,0.5,2.1,0.2,2.9-0.3c0.6-0.4,1.2-1.2,0.3-1.7c-2.6-1.5-4.8-3.5-7.3-5.3c-2.2-1.6-7.3-3.8-7.3-3.8
			l-2.8-1.4c-1.2-2.1-6.2-3.3-6.6-4.9c-0.4-1.6-5.8-4.2-5.6-5.3c0.2-1.1-3.5-3.3-3.8-4.5c-0.3-1.2-4.6-5-4.5-6.2
			c0.2-1.2-3.3-5.7-3.2-6.6c0-2.3-3.1-6.2-3.1-7.8c0.1-1.6-1.1-3.7-1.6-5.6c-0.3-1.1-0.5-2.2-0.7-3.2c-0.4-2.1-1.4-5-1-6.3
			c0.4-1.3-0.4-4.8-0.4-5.9c-0.1-1.1-0.3-5.2,0-6.6s0.2-2.8,0.3-4.2c0.1-1,0.2-2,0.4-3c0.2-1.3-0.2-2.1,0.6-3.9c0,0,0.6-3.5,0.9-5.3
			c0.3-1.6,0.4-2.7,0.8-4.3c0.4-2,1.6-4.8,2.1-6.7c0.7-2.5,0.6-4.4,1.7-6.7c0.3-0.7,0.8-1.9,1.8-3c1.1-1.1,2.1-3.3,2.5-4.2
			c1.5-2.9,1.9-1.7,3.7-5.1c0.8-0.9,0.9-1.9,2.7-3.1c1.8-1.2,2.3-1.3,3.7-3.2c1.8-2.5,4.4-4,6.5-6.3c5.7-6.4,16.9-11.9,24.9-15.3
			c2.9-1.2,5.3-2,8.4-2.9c2.5-0.7,5.1-1.4,7.6-2.4c3.8-1.5,7.2-3.9,10.6-6c4.7-2.9,9.4-5.8,14.6-7.6c2.7-1,5.5-1.6,8.3-1.9
			c0.8-0.1,2.2-0.5,2.3-1.4C145,89.1,143.6,89,143,89L143,89z"/>
	</g>
	<g>
		<g>
			<g>
				<path class="st0" d="M144.9,222.2c0.4,0.4-0.2,1.3-0.4,1.7c-0.7,1-1.6,1.9-2.6,2.7c-3.3,2.7-7.4,4.3-11.6,5.2
					c-6.3,1.4-12.9,1.1-19.1-0.1c-4.6-0.9-9.2-2.3-13.2-4.8c-1.3-0.8-2.7-1.7-3.7-2.9c-0.3-0.4-1.2-1.4-0.9-2
					c0.3-0.6-1.3-0.1-1.5,0.3c-0.9,1.7,2.5,4,3.5,4.7c4.1,2.8,9,4.5,13.8,5.5c11,2.3,24.1,1.8,33.2-5.4c0.9-0.7,5.2-4.1,3.7-5.7
					C146,221,144.5,221.8,144.9,222.2L144.9,222.2z"/>
			</g>
		</g>
		<g>
			<g>
				<path class="st31" d="M145.4,224.7c1,1.1-2.6,3.9-3.2,4.4c-3.4,2.7-7.6,4.3-11.9,5.3c-6.2,1.4-12.7,1.1-18.9,0
					c-4.8-0.9-9.6-2.4-13.8-4.9c-1.4-0.8-2.7-1.8-3.8-3c-0.3-0.4-1.2-1.3-0.9-1.8c0.4-0.6-1.2-0.5-1.5-0.1c-1.1,1.7,2.5,4.1,3.5,4.7
					c4.1,2.8,9,4.5,13.8,5.6c11.2,2.4,24.5,2,34-5.1c1.3-1,2.7-2.1,3.6-3.5c0.4-0.6,1.1-1.7,0.5-2.4
					C146.5,223.6,144.9,224.2,145.4,224.7L145.4,224.7z"/>
			</g>
		</g>
		<g>
			<g>
				<path class="st32" d="M146.1,227.4c-0.1-0.2,0-0.1-0.1,0.3c-0.1,0.4-0.4,0.8-0.7,1.1c-0.9,1.1-2,2-3.1,2.8
					c-3.7,2.6-8,4.3-12.3,5.2c-6.2,1.4-12.6,1.2-18.8,0.1c-4.8-0.9-9.6-2.3-13.8-4.7c-1.4-0.8-2.8-1.7-4-2.9
					c-0.3-0.3-0.7-0.7-0.9-1.1c-0.1-0.2-0.1-0.3,0-0.4c0.5-0.6-0.9-1.7-1.3-1c-1.3,1.7,2.4,4.4,3.4,5.1c4,2.9,8.8,4.6,13.5,5.8
					c11.5,2.8,25,2.3,35-4.7c1.3-0.9,5.9-4.1,4-6.2C146.6,226,145.4,226.5,146.1,227.4L146.1,227.4z"/>
			</g>
		</g>
		<g>
			<g>
				<path class="st33" d="M146.8,229.7C146.5,229.3,146.8,229.5,146.8,229.7c-0.2,0.2-0.2,0.4-0.2,0.5c-0.2,0.4-0.5,0.8-0.8,1.2
					c-0.9,1.1-2.1,2-3.3,2.8c-3.8,2.6-8.3,4.3-12.8,5.3c-6.2,1.3-12.5,1.3-18.7,0.2c-5-0.8-9.9-2.3-14.4-4.7c-0.6-0.4-6-3.3-4.8-4.6
					c0.3-0.3-1-1.4-1.2-1.1c-1.3,1.4,2.7,4.3,3.5,4.9c3.9,2.8,8.5,4.6,13.1,5.8c11.8,3.1,25.3,2.6,35.8-4.2c1.4-0.9,6.2-3.9,4.3-6.1
					C147.1,229.1,146.1,228.8,146.8,229.7L146.8,229.7z"/>
			</g>
		</g>
		<g>
			<g>
				<path class="st34" d="M147.5,232.2c-0.3-0.4-0.1,0.1-0.2,0.5c-0.2,0.4-0.5,0.8-0.8,1.2c-1,1.1-2.2,2-3.4,2.8
					c-3.9,2.6-8.4,4.2-12.9,5.3c-11,2.5-23.6,0.9-33.5-4.3c-0.7-0.3-6.6-3.4-5.2-4.7c0.2-0.2-1-1.4-1.1-1.2
					c-1.3,1.2,2.7,4.3,3.4,4.8c3.8,2.8,8.5,4.7,13.1,5.9c12,3.2,25.7,2.7,36.5-3.9c1.5-0.9,6.6-3.9,4.6-6.1
					C147.6,231.9,146.7,231.3,147.5,232.2L147.5,232.2z"/>
			</g>
		</g>
		<g>
			<g>
				<path class="st35" d="M147.6,235.3c0.2,0.3-0.4,1.2-0.8,1.6c-1,1.1-2.3,2-3.6,2.8c-4.2,2.6-9,4.2-13.8,5.1
					c-10.9,2.1-23.4,0.4-33.1-5.1c-1.5-0.8-3-1.7-4.2-2.9c-0.4-0.3-0.7-0.7-0.9-1.2c-0.1-0.1-0.1-0.3-0.1-0.3c0-0.1,0,0,0,0
					c0.8-0.7-0.6-1.4-1.2-0.9c-1.8,1.5,2.1,4.2,3.1,4.9c4.2,2.9,9.1,4.7,14,5.9c12.2,3.1,25.8,2.2,36.8-4.3c1.3-0.8,7.2-4.2,5.3-6.5
					C148.4,233.9,146.9,234.5,147.6,235.3L147.6,235.3z"/>
			</g>
		</g>
		<g>
			<g>
				<path class="st36" d="M148,237.6c1.2,1.5-3.6,4.3-4.4,4.8c-4.4,2.7-9.4,4.4-14.4,5.3c-11.1,2.1-23.7,0.3-33.5-5.3
					c-0.5-0.3-6.4-3.9-5.1-4.8c0.5-0.4-1-0.7-1.4-0.4c-1.7,1.3,2.6,4.1,3.3,4.6c4.3,2.8,9.2,4.7,14.1,5.9c12.3,3,25.8,2.2,37-4
					c1.8-1,3.6-2.1,5-3.6c0.6-0.6,1.6-1.8,0.9-2.6C149.2,237,147.7,237.2,148,237.6L148,237.6z"/>
			</g>
		</g>
		<g>
			<g>
				<path class="st37" d="M148.5,240.3c1.3,1.6-3.9,4.6-4.8,5.1c-4.7,2.7-10.1,4.5-15.4,5.3c-11.2,1.9-23.7-0.2-33.4-5.9
					c-0.5-0.3-6.3-3.9-4.8-4.9c0.3-0.2-0.2-0.2-0.3-0.2c-0.3,0-0.8,0.1-1.1,0.2c-1.7,1.1,2.8,4,3.4,4.4c4.4,2.8,9.5,4.7,14.6,5.9
					c12.3,2.9,25.7,1.7,37-4.1c1.9-1,3.8-2.1,5.4-3.6c0.6-0.6,1.7-1.7,1-2.6C149.9,239.7,148.4,240.1,148.5,240.3L148.5,240.3z"/>
			</g>
		</g>
		<g>
			<g>
				<path class="st38" d="M149.3,243.3c0,0,0,0.2-0.1,0.5c-0.2,0.5-0.7,0.9-1.1,1.2c-1.3,1.2-2.9,2.1-4.5,2.9
					c-4.8,2.5-10,4.1-15.3,5c-11.2,1.9-23.3-0.1-33.2-5.4c-1.6-0.9-3.2-1.8-4.6-3c-0.4-0.3-0.7-0.7-1-1.1s0-0.3-0.3-0.1
					c0.9-0.5,0.2-1.8-0.7-1.3c-2.5,1.5,1.5,4.3,2.6,5c4.3,2.9,9.3,4.8,14.3,6.2c12.9,3.4,26.9,2.3,38.8-3.9c1.6-0.8,8.3-4.2,6.1-6.9
					C149.9,241.5,148.6,242.6,149.3,243.3L149.3,243.3z"/>
			</g>
		</g>
		<g>
			<g>
				<path class="st39" d="M149.6,245.5c1.3,1.6-4.8,4.7-5.6,5.1c-4.9,2.5-10.4,4.2-15.8,5.1c-11.4,1.9-23.9-0.1-34-5.7
					c-0.4-0.2-6.4-3.9-5.1-4.6c0.7-0.4-0.8-1-1.3-0.8c-2.1,1.1,2.4,4.1,3.1,4.5c4.3,2.9,9.3,4.8,14.3,6.1
					c12.9,3.5,26.7,2.4,38.8-3.4c1.2-0.6,9-4.1,7.1-6.6C150.8,244.9,149.2,244.9,149.6,245.5L149.6,245.5z"/>
			</g>
		</g>
		<g>
			<g>
				<path class="st40" d="M150.3,248.4c0.3,0.4-1.1,1.6-1.4,1.9c-1.5,1.2-3.2,2.1-4.9,2.9c-5,2.4-10.4,4-15.9,4.8
					c-11.4,1.8-23.7-0.2-33.8-5.6c-1.7-0.9-3.3-1.8-4.7-3.1c-0.4-0.3-0.8-0.7-1-1.1c-0.1-0.2-0.1-0.2-0.1-0.3c0,0.1-0.1,0.2-0.1,0.2
					c0.9-0.5,0.2-1.7-0.7-1.2c-2.7,1.3,1.7,4.3,2.7,5c4.4,3,9.6,4.9,14.7,6.3c13.2,3.5,27.4,2.2,39.8-3.8c1.6-0.8,8.9-4.1,6.7-6.9
					C151,246.7,149.7,247.6,150.3,248.4L150.3,248.4z"/>
			</g>
		</g>
		<g>
			<g>
				<path class="st41" d="M150.7,250.9c1.5,1.9-4.6,4.6-5.6,5.1c-5.1,2.4-10.7,4-16.3,5c-11.7,1.9-24.1-0.2-34.6-5.6
					c-1.7-0.9-3.5-1.9-5-3.2c-0.4-0.4-1-0.8-1.2-1.3c-0.2-0.4,0-0.7-0.4-0.6c0.9-0.4,0.7-0.9-0.2-0.5c-2.8,1.2,1.4,3.8,2.6,4.6
					c4.9,3.1,10.5,5.1,16.1,6.5c13,3.1,26.8,1.4,38.9-4.2c2.1-1,4.2-2.1,6-3.6c0.7-0.6,2-1.8,1.3-2.8
					C151.9,249.9,150.5,250.7,150.7,250.9L150.7,250.9z"/>
			</g>
		</g>
		<g>
			<g>
				<path class="st42" d="M151.3,253.5c1.1,1.4-5.4,4.5-6.1,4.8c-5,2.3-10.3,3.9-15.7,4.9c-12,2.2-24.5,0.3-35.4-5.1
					c-1.9-0.9-3.8-2-5.4-3.3c-0.4-0.3-1-0.8-1.2-1.3c-0.2-0.3-0.2-0.3,0-0.4c0.9-0.4-0.2-1.3-0.9-1c-2.8,1.1,2.5,4.5,3.3,5
					c4.9,3.1,10.5,5.1,16.2,6.5c13.3,3.3,27.4,1.6,39.8-4.1c1.5-0.7,9-3.9,6.9-6.6C152.2,252.3,150.7,252.7,151.3,253.5L151.3,253.5
					z"/>
			</g>
		</g>
		<g>
			<g>
				<path class="st43" d="M151.7,255.8c1.5,1.9-4.5,4.6-5.5,5c-5,2.4-10.4,4-15.9,5.1c-6.5,1.3-13.1,1.6-19.6,0.5
					c-6-1-12-2.9-17.4-5.6c-1.9-1-3.8-2-5.5-3.4c-0.4-0.3-1.8-1.6-0.8-2c0.4-0.2-0.9-0.6-1.3-0.5c-2.4,0.9,3.4,4.4,4,4.7
					c5.2,3,11,5.1,16.9,6.5c13,3,26.7,1.2,39-4c1.2-0.5,9.4-3.8,7.6-6.3C153,255.5,151.6,255.6,151.7,255.8L151.7,255.8z"/>
			</g>
		</g>
		<g>
			<g>
				<path class="st26" d="M152.3,258.7c1.5,2-4.5,4.6-5.5,5c-5.1,2.3-10.6,3.9-16.1,4.9c-6.6,1.2-13.2,1.4-19.8,0.3
					c-5.9-1-11.8-2.9-17.2-5.5c-2-1-4.1-2.1-5.8-3.5c-0.5-0.4-1.1-0.9-1.4-1.5c-0.1-0.2-0.1-0.4-0.2-0.5c-0.1-0.3,0.6-0.4-0.2-0.2
					c0.8-0.3,0.8-0.6-0.1-0.3c-1,0.3-1.6,0.8-0.9,1.7c1,1.3,2.6,2.2,4,3.1c5.6,3.3,12,5.5,18.3,6.8c12.9,2.7,26.6,0.4,38.7-4.7
					c1.2-0.5,9.4-3.8,7.6-6.2C153.6,257.9,152.2,258.6,152.3,258.7L152.3,258.7z"/>
			</g>
		</g>
	</g>
	<path class="st44" d="M82.7,262.5c-0.8-0.7-1.2-1.8-0.9-2.9c0.4-1.7,2-2.7,3.7-2.3c1.7,0.4,2.7,2,2.3,3.7c-0.1,0.3-0.2,0.4-0.3,0.7
		l1.6,1.2c0.4-0.5,0.5-0.8,0.6-1.5c0.6-2.7-1.1-5.4-3.8-6c-2.7-0.6-5.4,1.1-6,3.8c-0.6,2.7,1.1,5.4,3.8,6
		C84.2,265.2,83,262.7,82.7,262.5z"/>
	<g>
		<g>
			<path class="st25" d="M86.1,257.9c-0.9-0.5-2.7,0.1-3.4,0.7c-0.7,0.6-0.4,1,0.1,1.6c1.8,2.1,4,4.1,6.2,5.8c4.6,3.7,10,5.8,15.7,7
				c4.5,1,9.2,1.3,13.8,1.4c5.3,0.1,10.6-0.1,15.8-1.2c6.9-1.4,14-4.4,18.7-9.8c1.2-1.3,5.8-7.9,1.8-8.7c-0.9-0.2-2.2,0.2-2.9,0.8
				c-0.6,0.5-0.5,1,0.3,1.1c-0.4-0.1-0.2-0.2-0.2,0s0-0.1,0,0c0,0.1,0.1,0.2,0.1,0.3c0.1,0.5,0.1,0.8,0,1.1
				c-0.3,1.4-0.9,2.8-1.8,3.9c-2.9,4.1-7.4,6.9-12.1,8.4c-3.8,1.3-7.8,1.7-11.9,1.9c-4.5,0.2-8.9,0.1-13.4-0.3
				c-5.7-0.6-11.5-2-16.4-4.9c-1.9-1.1-3.7-2.4-5.3-3.9c-1.3-1.1-2.5-2.3-3.7-3.5c-0.4-0.4-0.7-0.7-1.1-1.1
				c-0.1-0.2-0.2-0.2-0.1-0.2v-0.1l0,0c-0.1-0.3-0.2-0.1-0.4,0.7c-0.5,0.2-0.9,0.4-1.4,0.6c-0.3,0.1-1.7,0.1-1.7,0.1
				C83.8,260.2,87.6,258.7,86.1,257.9L86.1,257.9z"/>
		</g>
	</g>
	<path class="st45" d="M105.9,347.4c0,0,16,2.7,26.9,0v17.3h-26.9V347.4z"/>
	<path class="st45" d="M131.8,352.3v4.3c0.4,0.5,0.6,1,0.6,1.6c0,2.8-5.8,4.3-13.1,4.3c-7.3,0-13.8-1.5-13.8-4.3
		c0-0.4,0.1-0.8,0.4-1.1v-4.5c-3.1,1.5-5,3.5-5,5.7c0,5.1,8.2,8.3,18.2,8.3c10.1,0,18.2-3.7,18.2-8.3
		C137.3,355.9,135.2,353.8,131.8,352.3z"/>
	<g>
		<path class="st11" d="M58.9,205l3.5,1.7l3.3-1.8l0.2-53.5l-3.5-1.7l-3.6,1.8C58.7,151.4,58.9,205.5,58.9,205z"/>
		<g>
			<line class="st46" x1="62.2" y1="206.5" x2="62.3" y2="153.2"/>
			<path class="st3" d="M58.6,151.4l3.7,1.8l3.6-1.9l-3.5-1.8L58.6,151.4z"/>
		</g>
	</g>
	<path class="st47" d="M47,154.1l-0.7,2.3c1.6,0.2,2.3,0.8,2.3,1.4c0,0.9-2.2,1.5-4.8,1.5c-2.7,0-4.8-0.7-4.8-1.5
		c0-0.6,1.2-1.2,2.9-1.5l1-2.8c-4.4,0.2-8,2.2-8,4.3c0,2.3,3.9,4.2,8.8,4.2s8.8-1.9,8.8-4.2C52.5,156,50.5,154.6,47,154.1z"/>
	<g>
		<path class="st48" d="M43.7,163.4c-6.1,0-8.6-2.6-8.7-3.3v-2.4c0,1.5,3.4,4.1,8.3,4.1c7.1,0,9.1-3.2,9.1-3.2l-0.1,1.8
			C52,161.3,48.3,163.2,43.7,163.4z"/>
	</g>
	<polygon class="st49" points="50.3,160.8 58.9,165 58.8,166.2 50.3,162 	"/>
	<polygon class="st49" points="50.3,160.8 52.5,159.6 58.8,162.6 58.9,165 	"/>
	<path class="st4" d="M67.3,128.2c0,0-3.8,1.9-4.9,2.1c-1.6,0.3-3.4,0.1-4.2,1.2"/>
	<path class="st4" d="M60.7,133.9c0,0-1.7,1.7-2.8,1.9c-1.6,0.3-3.4,0.2-4.1,1.3"/>
	<path class="st5" d="M56.8,138.7c0,0-1.7,1.7-2.8,1.9c-1.6,0.3-3.4,0.2-4.1,1.3"/>
	<path class="st5" d="M52.2,144.6c0,0-1.6,1.6-2.7,1.9c-1.6,0.4-3.5,0.7-4.2,1.9"/>
	<path class="st6" d="M48.2,151.1c0,0-1.4,2.3-2.5,2.8c-1.5,0.7-3.3,1.1-3.7,2.3"/>
	<path class="st6" d="M44.1,163.3c0,0-0.9,2.2-1.9,2.8c-1.4,0.9-3.1,1.4-3.5,2.7"/>
	<path class="st50" d="M43.2,168.9c0,0-1.1,2.7-2.1,3.4c-1.4,1-2.9,1.7-3.4,3.4"/>
	<path class="st51" d="M42.2,174.5c-0.3,1.6-1.8,4-2.9,4.6c-1.6,1-2.2,1-2.7,2.6"/>
	<path class="st52" d="M41.3,180.4c-0.3,1.6-1.7,3.9-2.7,4.6c-1.4,1-1.9,1.2-2.4,2.8"/>
	<path class="st4" d="M40.8,186.1c0.1,1.6-1,4.2-2.1,5.1c-1.6,1.3-2.3,1.5-2.5,3.2"/>
	<path class="st4" d="M40.7,191.6c0,1.7-0.9,4.6-1.8,5.5c-1.3,1.4-1.9,1.5-2,3.4"/>
	<path class="st4" d="M41.2,198.6c0.1,1.6-0.6,4.3-1.4,5.2c-1.1,1.3-1.7,1.5-1.7,3.2"/>
	<path class="st4" d="M42.4,206.1c0.1,1.6-0.5,4.3-1.1,5.2c-0.9,1.3-1.1,1.5-1.1,3.2"/>
	<path class="st4" d="M44.3,213.7c0.1,1.6-0.4,4.2-0.8,5.1c-0.6,1.3-0.9,1.5-0.9,3.2"/>
	<path class="st4" d="M47.3,221.3c0.1,1.6-0.3,2.9-0.7,3.9c-0.6,1.3-0.3,3-0.3,4.7"/>
	<path class="st4" d="M50.5,228c0.3,1.6,0.1,3.1,0,4c0,1.3-0.1,2.1,0.1,3.8"/>
	<path class="st4" d="M54.9,234.4c0.3,1.6,0.1,2.5,0,3.4c0,1.3,0.3,1.7,0.5,3.4"/>
	<path class="st4" d="M58.7,239c0.6,1.5,0.6,2.4,0.8,3.3c0.2,1.3,0.7,2.1,1.3,3.7"/>
	<path class="st4" d="M64.2,243.9c0.6,1.5,0.7,1.7,1.3,3.2c0.6,1.5,1.2,2,1.7,3.6"/>
	<path class="st4" d="M78.4,119.7c0,0-3.6,0.4-4.7,0.6c-1.6,0.3-6.2,0.4-7,1.5"/>
	<path class="st4" d="M73.9,124.4c0,0-5,0.6-6.2,1c-1.7,0.6-3.6,0.7-4.6,2.1"/>
	<g>
		<g>
			<g>
				<path class="st12" d="M144.5,218.1C144.5,218.1,144.5,218,144.5,218.1c-0.1,0.4-0.1,0.6-0.2,1c-0.4,1.2-1.3,2.2-2.1,3.1
					c-2.9,3.3-7,5.5-11.2,6.7c-6.5,1.9-13.5,1.8-20.1,0.4c-4.7-1-9.6-2.7-13.3-6c-1.1-1-2.2-2.2-2.8-3.7c-0.3-0.8-0.5-1.7,0-2.2
					c0.7-0.7-0.8-1.4-1.4-0.8c-1.8,1.8,0.6,5.1,1.8,6.5c3.4,3.8,8.5,6,13.4,7.2c11.6,2.9,26.3,2.2,34.8-7.2c0.8-0.9,4.6-5.9,1.5-6.5
					C144,216.5,143.4,217.9,144.5,218.1L144.5,218.1z"/>
			</g>
		</g>
		<g>
			<g>
				<path class="st53" d="M145.8,220.7c-0.1,0-0.5-0.8-0.6-0.6c0,0.1,0,0.4,0,0.5c-0.1,0.5-0.3,0.9-0.5,1.3
					c-0.7,1.2-1.6,2.3-2.6,3.3c-3.2,3.1-7.4,5.3-11.7,6.5c-6.3,1.8-13.1,1.7-19.5,0.5c-4.9-0.9-10-2.6-13.9-5.9
					c-1.2-1-4.4-4.1-2.7-5.9c0.2-0.3-1-1.5-1.2-1.2c-1.6,1.7,1.2,5,2.3,6.2c3.5,3.7,8.3,6,13.2,7.3c11.6,3.1,26.6,2.5,35.3-7
					c1-1.1,2.1-2.4,2.4-3.8c0.2-1-0.5-2.2-1.6-2.4c-0.3-0.1,0.2,0.6,0.2,0.6C145.1,220.3,145.4,220.6,145.8,220.7L145.8,220.7z"/>
			</g>
		</g>
		<g>
			<g>
				<path class="st54" d="M145,222.7c1.6,0.4-1.8,4.4-2.1,4.7c-3.1,3.2-7.2,5.5-11.5,6.9c-6.9,2.3-14.4,2.2-21.4,0.6
					c-4.7-1.1-9.5-3.1-13.1-6.4c-1.1-1-4.5-4.4-2.8-6.1c-0.2,0.2-1.4-0.5-1.7-0.1c-1.6,1.7,1.6,4.9,2.6,5.9
					c3.7,3.5,8.7,5.5,13.6,6.7c11.6,2.7,25.3,2.2,34.7-6c0.6-0.5,5.6-5.4,3.2-6.1c-0.4-0.1-0.8-0.2-1.2-0.1
					C145.3,222.6,144.7,222.7,145,222.7L145,222.7z"/>
			</g>
		</g>
		<g>
			<g>
				<path class="st55" d="M146.2,226c-0.3-0.1-0.2-0.5-0.3,0c-0.1,0.4-0.3,0.7-0.5,1.1c-0.7,1.2-1.7,2.3-2.8,3.2
					c-3.5,3.1-7.8,5.2-12.2,6.4c-6.4,1.8-13.3,1.7-19.8,0.4c-4.9-1-9.9-2.8-13.8-5.9c-1.2-1-2.5-2.1-3.2-3.5
					c-0.3-0.6-0.8-1.7-0.4-2.1c0.6-0.6-0.8-1.6-1.3-1.1c-1.7,1.8,1.2,4.9,2.3,6.1c3.6,3.7,8.6,5.9,13.5,7.2
					c11.9,3.2,26.4,2.2,36-6.4c1-0.9,5.7-5.4,2.4-6.5C145.3,224.5,145.3,225.7,146.2,226L146.2,226z"/>
			</g>
		</g>
		<g>
			<g>
				<path class="st56" d="M146.3,228.5c-0.2-0.1,0,0.1,0,0.4c-0.1,0.4-0.3,0.8-0.5,1.1c-0.8,1.2-1.8,2.3-2.9,3.2
					c-3.7,3.1-8.2,5.3-12.9,6.5c-6.5,1.7-13.3,1.5-19.8,0.1c-4.8-1.1-9.7-2.9-13.5-6.1c-1.3-1-2.5-2.2-3.3-3.6
					c-0.3-0.5-0.9-1.7-0.4-2.2c0.6-0.6-1.1-0.9-1.5-0.5c-1.6,1.7,1.5,4.7,2.6,5.7c3.7,3.5,8.7,5.7,13.6,7
					c12.1,3.2,26.2,2.1,36.2-6.1c0.8-0.7,6.1-5.2,3.3-6.3C146.6,227.5,145.3,228.1,146.3,228.5L146.3,228.5z"/>
			</g>
		</g>
		<g>
			<g>
				<path class="st57" d="M146.5,231.1c1.5,0.7-2.8,4.4-3.2,4.8c-3.9,3.2-8.6,5.3-13.4,6.5c-6.6,1.6-13.5,1.3-20.1-0.2
					c-4.8-1.1-9.6-3-13.5-6.1c-1.3-1-2.6-2.2-3.5-3.6c-0.3-0.5-1-1.7-0.5-2.3c0.3-0.3-0.3-0.3-0.4-0.3c-0.4,0-0.8,0.2-1.1,0.5
					c-1.5,1.6,1.9,4.7,2.9,5.5c3.8,3.4,8.8,5.5,13.7,6.8c12.2,3.2,25.9,1.6,36.2-6.1c0.6-0.4,6.4-5.3,4.3-6.2
					C147.5,230.2,146.2,231,146.5,231.1L146.5,231.1z"/>
			</g>
		</g>
		<g>
			<g>
				<path class="st58" d="M147.7,234.2c-0.6-0.3-0.1-0.8-0.4-0.1c-0.2,0.5-0.5,0.9-0.8,1.3c-1,1.2-2.3,2.3-3.6,3.2
					c-4.1,3-9,5-13.9,6.1c-6.4,1.4-13,1.2-19.4-0.2c-4.8-1.1-9.6-2.9-13.6-5.9c-1.3-1-2.6-2.1-3.6-3.4c-0.3-0.4-0.6-0.9-0.7-1.2
					c-0.1-0.3-0.1-0.4,0.1-0.6c0.5-0.5-0.6-1.8-1.2-1.2c-1.6,1.7,1.9,5,3,6c3.8,3.5,8.7,5.7,13.6,7.1c12.4,3.5,26.7,2.1,37.1-5.9
					c1.2-0.9,6.6-5.1,3.3-6.7C146.8,232.2,147.1,233.8,147.7,234.2L147.7,234.2z"/>
			</g>
		</g>
		<g>
			<g>
				<path class="st59" d="M147.9,236.6c-0.4-0.2-0.1-0.4-0.3,0.1s-0.5,0.9-0.9,1.3c-1,1.2-2.3,2.2-3.6,3.1c-4.2,2.9-9.1,4.9-14,6.1
					c-10.9,2.5-24,0.7-33.1-5.8c-1.4-1-2.7-2.1-3.8-3.4c-0.3-0.4-1.1-1.6-0.8-1.9c0.6-0.6-0.8-1.6-1.3-1.1c-1.5,1.7,2,4.7,3,5.7
					c3.9,3.4,8.9,5.7,13.8,7.1c12.5,3.6,26.5,2.1,37.3-5.4c1.1-0.8,7.2-5,4.2-6.6C147.6,235.1,147,236.1,147.9,236.6L147.9,236.6z"
					/>
			</g>
		</g>
		<g>
			<g>
				<path class="st60" d="M148.8,239.3c-0.2-0.1-0.2-0.6-0.4-0.4c-0.1,0.1-0.1,0.4-0.2,0.5c-0.2,0.5-0.6,0.9-1,1.3
					c-1.2,1.2-2.6,2.2-4,3.2c-4.4,2.9-9.4,4.9-14.6,6c-11,2.4-23.7,0.5-33-5.9c-1.5-1-2.9-2.1-4-3.4c-0.3-0.3-1.1-1.3-0.7-1.8
					c0.4-0.4-0.8-1.6-1.1-1.3c-1.4,1.5,2.4,4.8,3.3,5.6c3.8,3.3,8.6,5.5,13.4,7c12.7,3.9,27,2.3,38.1-5.1c1.3-0.9,7.3-4.7,4.1-6.7
					C147.7,237.6,148.3,239,148.8,239.3L148.8,239.3z"/>
			</g>
		</g>
		<g>
			<g>
				<path class="st61" d="M148.9,242.1c-0.4-0.3-0.1-0.5-0.4,0c-0.3,0.5-0.7,0.9-1.1,1.3c-1.3,1.2-2.8,2.3-4.3,3.2
					c-4.5,2.8-9.6,4.7-14.8,5.7c-11.1,2.3-23.6,0.2-32.9-6.1c-1.5-1-3-2.1-4.1-3.5c-0.3-0.3-0.7-0.8-0.8-1.1
					c-0.1-0.2-0.1-0.3-0.1-0.4c0,0-0.1,0.1,0,0.1c0.6-0.7-0.6-1.9-1.2-1.1c-1.6,1.7,2.3,4.9,3.4,5.7c4,3.3,8.9,5.5,13.8,7
					c12.8,3.8,26.9,2,38.2-5.1c1.3-0.8,7.9-4.9,4.9-6.9C148.6,240.1,148.2,241.6,148.9,242.1L148.9,242.1z"/>
			</g>
		</g>
		<g>
			<g>
				<path class="st62" d="M149,244.5c1.5,1.2-4.4,4.8-5.1,5.1c-5.1,3-10.9,5-16.8,5.9c-11,1.7-23.2-0.7-32.4-7.1
					c-1.4-1-2.8-2.1-3.9-3.4c-0.3-0.3-1.4-1.6-0.9-2.1c0.2-0.3-0.3,0-0.4,0c-0.3,0.1-0.8,0.4-1,0.6c-1.2,1.4,3,4.4,3.8,5
					c4.2,3.1,9.1,5.3,14.2,6.7c12.7,3.5,26.2,1.3,37.5-5.3c0.7-0.4,8.1-4.9,6.4-6.2C150.2,243.4,149,244.5,149,244.5L149,244.5z"/>
			</g>
		</g>
		<g>
			<g>
				<path class="st63" d="M149.4,246.7c1.3,1.1-4.6,4.7-5.1,5c-4.9,2.9-10.5,5-16.1,6.1c-11.4,2.3-24-0.2-33.6-6.7
					c-0.6-0.4-6-4.1-4.9-5.3c0.1-0.1-1.4-0.4-1.6-0.1c-1.1,1.3,3.4,4.4,4.1,4.9c4.2,3.1,9.2,5.2,14.2,6.6
					c12.7,3.5,26.2,1.7,37.8-4.4c0.8-0.4,8.8-4.8,7-6.3C150.7,246.3,149.3,246.7,149.4,246.7L149.4,246.7z"/>
			</g>
		</g>
		<g>
			<g>
				<path class="st64" d="M149.9,249.4c1.4,1.3-4.6,4.6-5.3,5c-5.1,2.9-10.8,4.9-16.5,6.1c-11.5,2.2-24.1-0.4-33.7-6.8
					c-1.5-1-3-2.1-4.2-3.4c-0.3-0.3-1.5-1.5-1-2c-0.1,0.1-1.4-0.2-1.6,0.1c-1,1.2,3.6,4.3,4.3,4.8c4.4,3.1,9.4,5.2,14.5,6.6
					c12.6,3.4,25.8,1.4,37.4-4.3c0.7-0.4,9.5-4.9,7.9-6.4C151.2,248.9,150,249.6,149.9,249.4L149.9,249.4z"/>
			</g>
		</g>
		<g>
			<g>
				<path class="st65" d="M150.4,252.2c1.3,1.4-4.9,4.6-5.6,5c-5.2,2.8-10.9,4.8-16.7,5.8c-11.6,2.1-23.9-0.5-33.8-6.7
					c-0.5-0.3-6.8-4.3-5.8-5.4c-0.1,0.1-1.3,0-1.6,0.3c-1,1.2,4,4.4,4.6,4.8c4.7,3.1,10,5.3,15.4,6.7c12.6,3.2,25.8,0.8,37.4-4.8
					c0.8-0.4,9.2-4.5,7.6-6.1C151.7,251.5,150.4,252.3,150.4,252.2L150.4,252.2z"/>
			</g>
		</g>
		<g>
			<g>
				<path class="st0" d="M151.2,255.2c-0.3-0.3-0.1-0.3-0.4,0.2c-0.4,0.5-0.9,0.9-1.4,1.2c-1.5,1.1-3.2,2-4.9,2.8
					c-5,2.5-10.4,4.3-15.9,5.4c-11.7,2.3-23.8,0.2-34-5.7c-1.8-1-3.5-2.1-5-3.4c-0.5-0.4-1-0.8-1.4-1.3c-0.1-0.1-0.2-0.4-0.3-0.5
					c0,0,0.1,0.1-0.1,0.3c0.6-0.7-0.6-1.9-1.2-1.2c-1.5,1.8,3.5,4.9,4.5,5.5c4.7,3.2,10.1,5.5,15.5,7c6.8,1.8,13.8,2.3,20.8,1.1
					c6.2-1,12.4-3,18.1-5.8c1.4-0.7,9-4.1,6.7-6.7C151.5,253.4,150.5,254.4,151.2,255.2L151.2,255.2z"/>
			</g>
		</g>
	</g>
	<ellipse transform="matrix(0.5 -0.866 0.866 0.5 -19.6101 186.7821)" class="st9" cx="152" cy="110.4" rx="10.1" ry="7.5"/>
	<g>
		<g>
			<path class="st8" d="M90.7,42.6c0,0-5.4-3-10.5,5.6C75.1,56.7,82,60.5,82,60.5l77.2,38.2c-1.5-5-2.9-7.8-0.9-12.2
				c2-4.4,7.8-5.7,10.9-4.8C174.9,83.5,90.7,42.6,90.7,42.6z"/>
		</g>
		<ellipse transform="matrix(0.5 -0.866 0.866 0.5 3.9975 187.2311)" class="st9" cx="164.1" cy="90.2" rx="10.1" ry="7.5"/>
	</g>
	<g>
		<path class="st44" d="M128.7,350.9c-6.9,1.4-16,1.6-25.6-0.8c-9.7-2.4-101.7-50.4-101.7-50.4v8.6c0,0,89.8,47.6,100.6,51
			c6,1.9,10.2,2.5,14.8,2.7c3.7,0.1,7.9-0.2,13.5-1.2c12.5-2.2,20-6.5,20-6.5l87.1-45l0.2-9.8c0,0-78.8,40.5-97.6,48
			C135.9,349,135.6,349.6,128.7,350.9z"/>
		<g>
			<path class="st44" d="M118.8,352.1c-5.1,0-10.3-0.6-15.4-1.9C93.7,347.8,3.2,300.8,1,299.7l1.5-0.8c0.5,0.3,91.9,47.6,101.4,50
				c11.3,2.8,20.8,1.8,25.2,0.9c5.3-1,11.7-3.8,15.3-5.5s91.9-46,92.2-46.1l1.3,0.7c-0.3,0.2-94.4,47.6-96.5,48.4
				c-2.1,0.9-6.2,2.7-11.8,3.8C126.3,351.8,122.6,352.1,118.8,352.1z"/>
		</g>
	</g>
	<path class="st45" d="M132.5,335.5v4.7c0.4,0.5,0.6,1.1,0.6,1.7c0,3-5.9,4.7-13.2,4.7c-7.3,0-13.9-1.6-13.9-4.7
		c0-0.4,0.1-0.8,0.4-1.2v-4.9c-3.1,1.6-5,3.8-5,6.1c0,5.5,8.2,8.9,18.4,8.9c10.1,0,18.4-4,18.4-8.9
		C138.1,339.4,136,337.1,132.5,335.5z"/>
	<path class="st4" d="M71.1,248.8c0.4,1.1,0.9,1.1,1.3,2.1c0.4,1,0.8,1.6,1.2,2.8"/>
	<g>
		<g>
			<path class="st8" d="M155.4,7.6c0,0-5.4-3-10.5,5.6s1.8,12.4,1.8,12.4L224,63.8c-1.5-5-2.9-7.8-0.9-12.2c2-4.4,7.8-5.7,10.9-4.8
				C239.6,48.5,155.4,7.6,155.4,7.6z"/>
		</g>
		<ellipse transform="matrix(0.5 -0.866 0.866 0.5 66.6031 225.7134)" class="st9" cx="228.8" cy="55.2" rx="10.1" ry="7.5"/>
	</g>
</g>
</svg>
