<?xml version="1.0" encoding="utf-8"?>
<!-- Generator: Adobe Illustrator 25.2.3, SVG Export Plug-In . SVG Version: 6.00 Build 0)  -->
<svg version="1.1" id="Layer_1" xmlns="http://www.w3.org/2000/svg" xmlns:xlink="http://www.w3.org/1999/xlink" x="0px" y="0px"
	 viewBox="0 0 140 220" style="enable-background:new 0 0 140 220;" xml:space="preserve">
<style type="text/css">
	.st0{fill:#E4DAD8;stroke:#FFFFFF;stroke-width:0.5;stroke-miterlimit:10;}
	.st1{fill:#EF7C4F;}
	.st2{fill:#EE784C;}
	.st3{fill:#EC734A;}
	.st4{fill:#EA6F47;}
	.st5{fill:#E86A45;}
	.st6{fill:#E66642;}
	.st7{fill:#E56240;}
	.st8{fill:#E35D3D;}
	.st9{fill:#E1593B;}
	.st10{fill:#DF5438;}
	.st11{fill:#DD5036;}
	.st12{fill:#DC4B33;}
	.st13{fill:#DA4731;}
	.st14{fill:#D8422E;}
	.st15{fill:#DD335A;}
	.st16{fill:#DE3859;}
	.st17{fill:#E03E58;}
	.st18{fill:#E14457;}
	.st19{fill:#E34957;}
	.st20{fill:#E44F56;}
	.st21{fill:#E55555;}
	.st22{fill:#E75A54;}
	.st23{fill:#E86053;}
	.st24{fill:#EA6652;}
	.st25{fill:#EB6B51;}
	.st26{fill:#EC7150;}
	.st27{fill:#EE7750;}
	.st28{fill:#CEBDBA;stroke:#FFFFFF;stroke-width:0.5;stroke-linejoin:bevel;stroke-miterlimit:10;}
	.st29{fill:none;stroke:#FFFFFF;stroke-width:0.5;stroke-miterlimit:10;}
	.st30{fill:#CEBDBA;stroke:#FFFFFF;stroke-width:0.5;stroke-miterlimit:10;}
	.st31{fill:#DF3D58;}
	.st32{fill:#E14258;}
	.st33{fill:#E24857;}
	.st34{fill:#E34D56;}
	.st35{fill:#E55255;}
	.st36{fill:#E65754;}
	.st37{fill:#E75D54;}
	.st38{fill:#E96253;}
	.st39{fill:#EA6752;}
	.st40{fill:#EB6C51;}
	.st41{fill:#ED7250;}
	.st42{fill:#EE774F;}
	.st43{fill:none;stroke:#FFFFFF;stroke-width:0.4169;stroke-miterlimit:10;}
	.st44{fill:none;stroke:#FFFFFF;stroke-width:0.2938;stroke-miterlimit:10;}
	.st45{fill:none;stroke:#FFFFFF;stroke-width:0.297;stroke-miterlimit:10;}
	.st46{fill:#543C52;stroke:#FFFFFF;stroke-width:0.25;stroke-miterlimit:10;}
	.st47{fill:#543C52;stroke:#FFFFFF;stroke-width:0.5;stroke-miterlimit:10;}
	.st48{fill:#E4DAD8;stroke:#FFFFFF;stroke-width:0.4783;stroke-miterlimit:10;}
</style>
<g>
	<g>
		<path class="st0" d="M74.3,127.2l29.1,0.2c0,0-2.2,19.5-3.5,29.7c-0.2,5.4-1.1,11.1-3.4,16.1c-4.1,9.1-10.7,16.2-10.7,16.2
			l0.6,14.5c0,0-1.5,5.7-11.7,5.9h-0.3c-10.3-0.2-11.7-5.9-11.7-5.9l0.6-14.5c0,0-6.6-7.1-10.7-16.2c-2.3-5.1-3.1-10.8-3.4-16.1
			c-1.3-10.2-3.5-29.7-3.5-29.7l29.1-0.2C74.8,127.2,74.3,127.2,74.3,127.2z"/>
		<path class="st0" d="M63.4,189.2c0,0,3.7,4.7,11.5,4.7s11.1-4.6,11.1-4.6"/>
		<g>
			<g>
				<g>
					<path class="st1" d="M102.6,129.6c2,2.6-13.6,7.1-14.9,7.4c-9.7,2.4-19.6,2.6-29.2,0c-2.2-0.6-4.4-1.3-6.5-2.2
						c-0.8-0.3-1.6-0.7-2.3-1.1c-0.4-0.2-2.7-1.6-1.9-1.9c0.9-0.3,0.1-0.6-0.5-0.4c-2.2,0.8-0.3,2,1,2.7c1.6,0.9,3.4,1.7,5.2,2.3
						c5.5,1.9,11.3,3,17.1,3.2c5.2,0.2,10.5-0.5,15.6-1.6c4.5-1,8.9-2.3,13.1-4.3c1-0.5,6.2-2.7,4.7-4.6
						C103.6,128.8,102.3,129.1,102.6,129.6L102.6,129.6z"/>
				</g>
			</g>
			<g>
				<g>
					<path class="st2" d="M102.2,132.6c1.6,2.6-13.6,6.8-14.9,7.1c-9.5,2.3-19.1,2.5-28.6,0c-2.2-0.6-4.4-1.3-6.5-2.2
						c-0.8-0.3-1.6-0.7-2.4-1.1c-0.4-0.2-2.6-1.6-2-1.8c0.9-0.3,0.1-0.8-0.5-0.6c-2.2,0.8-0.2,2.1,1,2.8c1.6,0.9,3.3,1.7,5,2.3
						c5.3,1.9,10.8,3,16.4,3.3c5.2,0.3,10.4-0.3,15.5-1.4c4.5-1,9-2.3,13.2-4.2c1.1-0.5,6.2-2.6,4.9-4.6
						C103.2,131.6,101.9,132.1,102.2,132.6L102.2,132.6z"/>
				</g>
			</g>
			<g>
				<g>
					<path class="st3" d="M101.8,135.6c0.7,1.5-3.3,3.1-4.1,3.4c-3.5,1.6-7.2,2.7-10.9,3.6c-9.3,2.2-18.8,2.3-28-0.2
						c-2.2-0.6-4.3-1.3-6.4-2.2c-0.8-0.3-1.5-0.7-2.2-1.1c-0.4-0.2-2.6-1.6-2.1-1.8c0.9-0.4,0.1-0.8-0.5-0.5c-2,0.8-0.1,2.1,1,2.7
						c1.6,0.9,3.2,1.7,4.9,2.3c5.1,1.9,10.6,3,16,3.3c5.1,0.3,10.2-0.2,15.2-1.3c4.4-0.9,8.9-2.2,13-4c1.1-0.5,6.4-2.6,5.4-4.6
						C102.9,134.8,101.6,135.1,101.8,135.6L101.8,135.6z"/>
				</g>
			</g>
			<g>
				<g>
					<path class="st4" d="M101.4,138.6c0.5,1.3-3.5,2.9-4.3,3.2c-3.5,1.5-7.1,2.6-10.8,3.5c-9.1,2.1-18.4,2.2-27.5-0.4
						c-2.1-0.6-4.2-1.3-6.1-2.2c-0.8-0.3-1.5-0.7-2.3-1.1c-0.3-0.2-2.2-1.5-2-1.6c0.8-0.4,0.1-1.1-0.6-0.8c-1.9,0.9,0,2.3,1,2.9
						c1.5,0.9,3.1,1.6,4.7,2.3c5,2,10.4,3.1,15.7,3.5c9.4,0.7,19.3-1.3,28-5c1.3-0.6,6.3-2.4,5.5-4.6
						C102.5,137.6,101.2,137.9,101.4,138.6L101.4,138.6z"/>
				</g>
			</g>
			<g>
				<g>
					<path class="st5" d="M101,141.6c0.3,1.6-3.7,3-4.6,3.4c-3.5,1.5-7.2,2.5-10.8,3.3c-9.1,2-18.4,1.8-27.3-0.9
						c-1.9-0.6-3.7-1.3-5.5-2.1c-0.5-0.2-4.7-2.6-3.9-2.9c0.8-0.4-0.4-0.5-0.8-0.3c-1.8,0.9,0.6,2.2,1.4,2.7c1.4,0.9,3,1.5,4.6,2.1
						c4.9,1.9,10.1,3,15.3,3.4c9.2,0.7,18.9-1.2,27.4-4.8c1.5-0.6,3.1-1.3,4.4-2.3c0.6-0.4,1.5-1.2,1.3-2
						C102.3,140.9,100.9,141.2,101,141.6L101,141.6z"/>
				</g>
			</g>
			<g>
				<g>
					<path class="st6" d="M100.6,144.6c0,0.6-0.9,1.1-1.3,1.4c-1.1,0.7-2.3,1.3-3.5,1.8c-3.4,1.4-7,2.4-10.6,3.2
						c-8.8,1.9-17.6,1.8-26.2-0.8c-2-0.6-3.9-1.3-5.8-2.1c-0.7-0.3-1.5-0.7-2.2-1.1c-0.3-0.2-2.2-1.6-2.2-1.6
						c0.8-0.4,0.1-1.2-0.6-0.8c-2.9,1.6,4.6,4.7,5.8,5.1c4.8,1.9,9.9,3.1,15.1,3.5c9,0.8,18.5-1.1,26.8-4.4c1.6-0.6,3.2-1.3,4.6-2.3
						c0.7-0.5,1.6-1.2,1.5-2.2C101.9,143.6,100.6,144.1,100.6,144.6L100.6,144.6z"/>
				</g>
			</g>
			<g>
				<g>
					<path class="st7" d="M100.2,147.6c0,0.6-0.9,1.1-1.4,1.4c-1.1,0.7-2.3,1.2-3.4,1.7c-3.4,1.4-7,2.4-10.5,3.1
						c-8.6,1.8-17.3,1.7-25.8-0.9c-1.9-0.6-3.8-1.3-5.7-2.1c-0.4-0.2-4.4-2.5-4.1-2.7c0.8-0.5-0.3-1-0.9-0.7c-2.4,1.5,5,4.7,6,5.1
						c4.6,1.9,9.6,3,14.5,3.5c8.9,0.9,18.1-0.9,26.4-4.1c1.6-0.6,3.2-1.3,4.6-2.2c0.7-0.5,1.7-1.2,1.8-2.1
						C101.6,146.8,100.3,146.9,100.2,147.6L100.2,147.6z"/>
				</g>
			</g>
			<g>
				<g>
					<path class="st8" d="M99.8,150.6c-0.1,0.7-1.1,1.2-1.6,1.5c-1.1,0.7-2.3,1.2-3.5,1.6c-3.4,1.3-7,2.3-10.5,3
						c-8.5,1.7-17.1,1.4-25.4-1.3c-1.9-0.6-3.7-1.3-5.4-2.2c-0.4-0.2-4.1-2.4-3.9-2.6c0.7-0.5-0.4-1-0.9-0.6c-2.2,1.6,4.8,4.5,5.9,5
						c4.5,1.9,9.3,3,14.1,3.5c8.7,0.9,17.8-0.7,26-3.8c1.6-0.6,3.3-1.3,4.8-2.2c0.8-0.5,1.7-1.1,1.9-2.1
						C101.3,149.9,100,150.1,99.8,150.6L99.8,150.6z"/>
				</g>
			</g>
			<g>
				<g>
					<path class="st9" d="M99.5,153.6c-0.2,0.7-1.1,1.2-1.7,1.6c-1.2,0.7-2.4,1.2-3.7,1.7c-3.4,1.3-7,2.2-10.7,2.9
						c-8.4,1.6-16.8,1-24.9-1.7c-1.8-0.6-3.5-1.3-5.2-2.2c-0.6-0.3-4.2-2.3-3.5-2.9c0.3-0.3-1-0.1-1.2,0.1c-1.5,1.3,5.7,4.4,6.6,4.7
						c4.4,1.8,9,2.8,13.7,3.3c8.4,0.9,17.2-0.8,25.1-3.7c1.6-0.6,3.2-1.2,4.6-2.1c0.8-0.4,1.8-1,2.1-2
						C100.9,153.1,99.6,153.4,99.5,153.6L99.5,153.6z"/>
				</g>
			</g>
			<g>
				<g>
					<path class="st10" d="M99.1,156.6c-0.3,0.7-1.2,1.1-1.8,1.4c-1.2,0.6-2.4,1.2-3.7,1.6c-3.4,1.2-6.8,2.1-10.3,2.8
						c-8.1,1.5-16.3,1.1-24.2-1.6c-1.8-0.6-3.5-1.3-5.1-2.1c-0.4-0.2-4.2-2.4-3.9-2.7c0.6-0.6-0.7-0.9-1.1-0.4c-1.6,1.6,5,4.5,6,4.9
						c4.2,1.8,8.7,2.9,13.2,3.5c8.4,1.1,17.2-0.4,25.2-3.2c1.6-0.6,3.3-1.2,4.8-2c0.9-0.5,1.9-1.1,2.3-2
						C100.7,155.9,99.4,155.9,99.1,156.6L99.1,156.6z"/>
				</g>
			</g>
			<g>
				<g>
					<path class="st11" d="M98.7,159.6c-0.4,0.7-1.4,1.1-2,1.5c-1.2,0.6-2.5,1.1-3.8,1.6c-3.3,1.1-6.7,2-10.1,2.6
						c-7.9,1.4-16,0.9-23.6-1.8c-1.7-0.6-3.4-1.3-5.1-2.1c-0.5-0.2-4.1-2.3-3.8-2.7c0.5-0.7-0.8-0.9-1.1-0.4
						c-1.3,1.8,4.9,4.4,6.1,4.9c4.1,1.8,8.5,2.9,12.9,3.5c8.3,1.1,16.8-0.3,24.6-2.9c1.6-0.5,3.2-1.1,4.7-1.9c0.9-0.5,2-1.1,2.5-2
						C100.4,159.1,99,159.1,98.7,159.6L98.7,159.6z"/>
				</g>
			</g>
			<g>
				<g>
					<path class="st12" d="M98.4,162.6c-1.2,1.7-4.1,2.4-5.9,3c-3.4,1.1-6.8,2-10.3,2.5c-7.7,1.3-15.5,0.6-22.9-2
						c-1.7-0.6-3.4-1.3-4.9-2.1c-0.6-0.3-4.1-2.1-3.7-2.8c0.3-0.7-1-0.6-1.3-0.1c-0.9,1.8,5.1,4.2,6.2,4.8c3.9,1.7,8.1,2.8,12.3,3.5
						c8.1,1.2,16.3-0.1,24-2.6c1.7-0.5,3.4-1.1,5-1.9c1-0.5,2.1-1,2.7-1.9C100,162.1,98.8,162.1,98.4,162.6L98.4,162.6z"/>
				</g>
			</g>
			<g>
				<g>
					<path class="st13" d="M98,165.6c-1.5,1.6-4.2,2.4-6.2,3c-3.3,1.1-6.7,1.8-10.1,2.4c-7.6,1.2-15.3,0.4-22.5-2.2
						c-1.7-0.6-3.3-1.3-4.9-2.2c-0.7-0.4-3.8-1.9-3.5-2.8c0.2-0.5-1.2-0.4-1.4,0.1c-0.3,1.1,1.9,2.2,2.6,2.7c1.3,0.8,2.6,1.4,3.9,2
						c3.8,1.7,7.8,2.7,11.9,3.3c7.8,1.2,15.8,0,23.3-2.3c2.5-0.8,6-1.6,7.9-3.7C99.7,165.2,98.4,165.1,98,165.6L98,165.6z"/>
				</g>
			</g>
			<g>
				<g>
					<path class="st14" d="M97.6,168.6c-0.8,0.8-1.9,1.2-2.9,1.7c-1.5,0.7-3.2,1.2-4.8,1.6c-3.6,1-7.4,1.8-11.1,2.2
						c-7.8,0.8-16.2-0.7-23.2-4.3c-1.2-0.6-2.3-1.2-3.4-2c-0.3-0.2-1.3-0.9-1.2-1.3c0.2-0.6-1.2-0.4-1.4,0.1
						c-0.3,1.3,2.8,2.8,3.6,3.2c3.3,1.9,6.9,3.2,10.6,4c4.4,1.1,8.9,1.6,13.4,1.2c4.1-0.3,8.2-1.1,12.1-2.2c3-0.8,7-1.7,9.3-4
						C99.4,168.4,98,168.1,97.6,168.6L97.6,168.6z"/>
				</g>
			</g>
		</g>
		<g>
			<g>
				<g>
					<path class="st15" d="M103.4,131.8c0.9,1.2-3.2,3.4-3.9,3.8c-3.5,2-7.4,3.4-11.3,4.5c-4.5,1.3-9.2,2.1-13.9,2.1
						c-5.4,0-10.8-1.3-15.9-3.2c-2.3-0.8-4.5-1.7-6.6-2.8c-0.8-0.4-1.6-0.8-2.3-1.2c-0.3-0.2-0.6-0.3-0.8-0.5
						c-0.3-0.2-0.6-0.4-0.8-0.6c-0.4-0.3-0.5-0.2-0.1-0.3c0.9-0.3,0.1-1.3-0.7-1.1c-2.4,0.8-0.2,2.4,1,3.1c1.7,1,3.4,1.9,5.2,2.7
						c5.3,2.4,10.9,4.1,16.7,4.8c5.6,0.7,11.2,0,16.6-1.3c4.6-1.1,9.3-2.7,13.5-5c1.3-0.7,6.4-3.3,4.7-5.5
						C104.3,130.6,102.9,131.1,103.4,131.8L103.4,131.8z"/>
				</g>
			</g>
			<g>
				<g>
					<path class="st16" d="M103.5,134.4C103.3,134.1,103.5,134.4,103.5,134.4c-0.2,0.2-0.2,0.4-0.3,0.5c-0.2,0.4-0.6,0.8-1,1.1
						c-1,0.9-2.3,1.6-3.5,2.3c-3.6,1.9-7.4,3.3-11.3,4.3c-4.6,1.2-9.4,2-14.2,1.9c-5.2-0.2-10.4-1.4-15.3-3.2
						c-2.3-0.8-4.5-1.8-6.7-2.9c-0.7-0.4-1.5-0.8-2.2-1.2c-0.3-0.2-0.7-0.4-1-0.6c-0.1,0-0.1-0.1-0.2-0.1c-0.4-0.5-0.6-0.5-0.4-0.2
						c-0.2,0.2,0.6-0.1,0.7-0.2c0.2-0.1-0.4-1.4-0.8-1.3c-1.9,0.7,0.6,2.6,1.4,3.1c1.5,1,3.1,1.7,4.6,2.5c5.1,2.4,10.5,4.2,16.1,5
						c5.6,0.8,11.2,0.3,16.7-1c4.6-1.1,9.3-2.6,13.5-4.9c1.6-0.9,5.9-3,4.2-5.4C103.4,133.4,103,133.6,103.5,134.4L103.5,134.4z"/>
				</g>
			</g>
			<g>
				<g>
					<path class="st17" d="M102.5,137.2c0.9,1.6-2.7,3.5-3.6,4c-3.4,2-7.3,3.4-11.1,4.4c-4.9,1.4-10,2.1-15.1,1.8
						c-5.2-0.3-10.3-1.7-15.1-3.6c-2-0.8-4-1.7-6-2.7c-0.6-0.3-1.3-0.7-1.9-1.1c-0.4-0.3-2.5-1.5-1.4-1.9c0.6-0.2-0.8-0.2-1.1-0.1
						c-1.9,0.7,0.6,2.1,1.5,2.6c1.6,1,3.3,1.8,5.1,2.6c5,2.2,10.4,3.8,15.8,4.4c9.7,1.1,20.2-1.3,28.8-5.6c1.1-0.6,6.6-3.1,5.5-5.1
						C103.8,136.6,102.5,137.1,102.5,137.2L102.5,137.2z"/>
				</g>
			</g>
			<g>
				<g>
					<path class="st18" d="M102.1,140.1c0.7,1.4-3.2,3.4-4.1,3.9c-3.5,1.9-7.4,3.3-11.3,4.3c-4.7,1.2-9.5,1.9-14.3,1.6
						c-4.9-0.3-9.7-1.5-14.3-3.2c-2-0.8-3.9-1.6-5.8-2.6c-0.7-0.4-1.4-0.7-2.1-1.1c-0.3-0.2-2.3-1.5-1.8-1.7c0.9-0.4-0.2-1-0.8-0.7
						c-1.9,0.8,0.1,2.1,1,2.7c1.5,1,3.1,1.8,4.7,2.5c4.7,2.2,9.6,3.8,14.7,4.6c10,1.6,21.1-0.6,30.1-5.3c1.3-0.7,6.3-3,5.3-5.2
						C103.3,139.2,101.8,139.6,102.1,140.1L102.1,140.1z"/>
				</g>
			</g>
			<g>
				<g>
					<path class="st19" d="M101.7,142.6c0.6,1.6-3,3.4-3.9,3.9c-3.4,1.9-7.2,3.3-11,4.3c-4.6,1.2-9.5,1.9-14.3,1.7
						c-4.9-0.2-9.7-1.4-14.2-3.1c-2-0.8-4-1.6-5.9-2.6c-0.7-0.4-1.3-0.7-2-1.1c-0.5-0.3-2.5-1.5-1.6-1.9c0.5-0.2-0.8-0.8-1.2-0.6
						c-1.6,0.8,1,2.2,1.7,2.7c1.4,0.9,2.9,1.6,4.4,2.3c4.5,2.1,9.3,3.6,14.2,4.5c9.9,1.7,20.8-0.3,29.8-4.8c1.5-0.8,3.1-1.6,4.3-2.7
						c0.6-0.5,1.5-1.4,1.2-2.3C103,142.4,101.6,142.4,101.7,142.6L101.7,142.6z"/>
				</g>
			</g>
			<g>
				<g>
					<path class="st20" d="M101.3,145.8c0.2,0.6-0.7,1.3-1.1,1.6c-1,0.9-2.1,1.5-3.3,2.2c-3.5,1.9-7.4,3.2-11.3,4.1
						c-4.7,1.1-9.5,1.6-14.3,1.2c-4.5-0.4-9-1.5-13.2-3.2c-1.9-0.7-3.7-1.5-5.4-2.5c-0.7-0.4-1.3-0.7-2-1.1
						c-0.2-0.2-0.5-0.3-0.7-0.5c-0.3-0.2-0.6-0.4-0.8-0.6c-0.2-0.2-0.4-0.2-0.2-0.3c0.8-0.4-0.3-1.3-1-0.9c-2.6,1.4,4.7,4.9,5.7,5.4
						c4.3,2.1,9,3.6,13.7,4.4c9.9,1.7,20.8-0.2,29.8-4.7c1.6-0.8,3.1-1.7,4.4-2.9c0.7-0.6,1.5-1.5,1.2-2.5
						C102.6,144.8,101.1,144.9,101.3,145.8L101.3,145.8z"/>
				</g>
			</g>
			<g>
				<g>
					<path class="st21" d="M101.1,148.1c0.2,1.6-3.1,3.2-4.1,3.8c-3.4,1.9-7.1,3.2-10.8,4.1c-9.2,2.3-18.6,1.9-27.6-1.3
						c-2-0.7-3.9-1.5-5.7-2.5c-0.7-0.4-1.4-0.8-2.1-1.2c-0.4-0.2-2.1-1.2-1.6-1.5c0.3-0.2-0.6-1.4-1-1.2c-2,1.2,4.7,4.8,5.6,5.2
						c4.2,2.1,8.7,3.6,13.3,4.5c9.7,1.8,20.3,0.2,29.2-4.1c1.6-0.8,3.2-1.6,4.5-2.8c0.6-0.5,1.5-1.4,1.4-2.3
						C102.1,148.4,101,147.6,101.1,148.1L101.1,148.1z"/>
				</g>
			</g>
			<g>
				<g>
					<path class="st22" d="M100.6,150.9c0.1,1.6-2.9,3.1-4,3.8c-3.3,1.9-6.9,3.1-10.5,4.1c-9.2,2.3-18.6,2-27.5-1.3
						c-1.9-0.7-3.8-1.5-5.6-2.5c-0.7-0.4-1.4-0.7-2-1.2c-0.5-0.3-2.3-1.2-1.5-1.7c0.1-0.1-0.9-1.1-1.2-0.9c-1.5,1,5.1,4.5,5.9,4.9
						c4,2,8.3,3.5,12.7,4.4c9.6,1.9,20.1,0.4,29-3.9c1.5-0.7,3.1-1.6,4.4-2.7c0.6-0.5,1.6-1.3,1.5-2.2
						C101.8,151.2,100.6,150.6,100.6,150.9L100.6,150.9z"/>
				</g>
			</g>
			<g>
				<g>
					<path class="st23" d="M100.1,154.1c-0.1,1.7-2.9,3.1-4.1,3.8c-3.2,1.8-6.7,3-10.3,3.9c-9.3,2.3-18.8,1.6-27.6-2
						c-1.7-0.7-3.4-1.5-5-2.5c-0.6-0.4-4-2.2-3.1-2.9c0.1-0.1-1.1-0.5-1.4-0.2c-1.3,1.1,5.8,4.6,6.6,5c4.1,1.9,8.6,3.3,13.1,4
						c9.3,1.4,19.4-0.1,27.8-4.2c1.4-0.7,2.9-1.5,4.1-2.5c0.6-0.5,1.5-1.3,1.6-2.2C101.6,153.9,100.1,153.8,100.1,154.1L100.1,154.1
						z"/>
				</g>
			</g>
			<g>
				<g>
					<path class="st24" d="M99.7,156.9c-0.3,1.5-2.9,2.8-4.1,3.4c-3.1,1.7-6.5,2.8-9.9,3.6c-8.9,2.1-18.1,1.6-26.6-1.7
						c-1.8-0.7-3.5-1.5-5.2-2.4c-0.4-0.2-4.2-2.5-3.9-2.8c0.6-0.7-0.7-1-1.2-0.5c-1.6,1.7,5,4.7,6.1,5.2c4.1,2,8.6,3.4,13.2,4.1
						c9.1,1.4,19.3-0.1,27.6-4.4c1.8-0.9,5.1-2.5,5.6-4.7C101.3,156.1,99.8,156.2,99.7,156.9L99.7,156.9z"/>
				</g>
			</g>
			<g>
				<g>
					<path class="st25" d="M99.3,159.6c-0.5,1.6-2.7,2.7-4,3.5c-2.9,1.7-6.1,2.8-9.3,3.6c-8.9,2.3-18.3,2-26.9-1.4
						c-0.7-0.3-9.7-4.3-8.9-5.4c0.3-0.4-1.1-0.9-1.4-0.5c-1.1,1.5,5.5,4.6,6.5,5.1c4,1.9,8.2,3.2,12.5,3.9c9,1.5,19,0.2,27.2-3.9
						c1.4-0.7,2.8-1.4,4-2.4c0.7-0.5,1.5-1.2,1.7-2.1C100.8,159.6,99.4,159.1,99.3,159.6L99.3,159.6z"/>
				</g>
			</g>
			<g>
				<g>
					<path class="st26" d="M99,162.2c-0.7,1.6-2.7,2.7-4.1,3.4c-2.8,1.6-5.9,2.7-9.1,3.4c-8.7,2.2-18,1.9-26.5-1.3
						c-1.8-0.7-3.6-1.5-5.2-2.4c-0.4-0.2-4-2.2-3.7-2.7s-0.9-1.4-1.1-1c-0.6,1.1,1.5,2.5,2.2,3c1.2,0.9,2.5,1.6,3.9,2.3
						c3.9,2,8.1,3.3,12.4,4.1c8.9,1.5,18.8,0.3,26.9-3.7c1.9-0.9,4.8-2.3,5.7-4.4C100.4,162.6,99.2,161.6,99,162.2L99,162.2z"/>
				</g>
			</g>
			<g>
				<g>
					<path class="st27" d="M98.5,165.1c-0.8,1.4-2.5,2.4-3.8,3.2c-2.7,1.6-5.8,2.7-8.9,3.5c-8.5,2.2-17.7,2-26-0.9
						c-1.9-0.7-3.7-1.5-5.4-2.4c-0.8-0.4-4.1-2.1-3.8-3.1c0.1-0.3-1.2-0.9-1.3-0.8c-0.3,0.9,1.9,2.2,2.5,2.6
						c1.2,0.8,2.5,1.6,3.8,2.3c3.7,1.9,7.6,3.2,11.7,4c8.8,1.6,18.7,0.6,26.8-3.3c2-0.9,4.6-2.2,5.7-4.3
						C99.9,165.6,98.6,164.9,98.5,165.1L98.5,165.1z"/>
				</g>
			</g>
			<g>
				<g>
					<path class="st1" d="M98.2,167.8c-1.1,1.6-3,2.7-4.7,3.6c-3.2,1.7-6.6,2.8-10.2,3.4c-9.1,1.8-18.7,1-27.1-3.1
						c-1.5-0.7-2.9-1.5-4.2-2.5c-0.4-0.3-0.8-0.6-1.2-1c-0.2-0.2-0.2-0.3-0.2-0.2c0.1-0.5-1-1.4-1.2-0.9c-0.3,1.4,2.7,3.2,3.6,3.7
						c3.3,2.1,7.1,3.6,10.9,4.6c9.2,2.4,19.9,1.8,28.7-2.2c2.3-1,5.1-2.4,6.5-4.5C99.6,168.4,98.5,167.4,98.2,167.8L98.2,167.8z"/>
				</g>
			</g>
		</g>
		<g>
			<path class="st28" d="M75.8,113.2c-20.4,0-36.4,7.8-36.4,17.1s15.2,18.3,35.6,18.3s37.8-9.3,37.8-18.6
				C112.8,120.7,96.2,113.2,75.8,113.2z M75.8,143.8c-17.7,0-32-6.4-32-14.2s14.3-14.2,32-14.2s32,6.4,32,14.2
				S93.4,143.8,75.8,143.8z"/>
			<path class="st29" d="M110.8,129.8c0,7.8-15.1,17-33.1,17s-36.3-6.4-36.3-14.2s12.4-19.2,30.5-19.2
				C100.8,113.3,110.8,121.9,110.8,129.8z"/>
			<path class="st0" d="M75.7,113.2c-20,0-36.4,7-36.4,15.8c0,8.8,15.6,18,35.6,18s37-8.9,37-17.8S95.7,113.2,75.7,113.2z
				 M75.7,142.2c-17.3,0-31.3-6-31.3-13.5s14-13.5,31.4-13.5s31.4,6.1,31.4,13.5C107.1,136.2,93,142.2,75.7,142.2z"/>
		</g>
		<g>
			<path class="st0" d="M101.6,132.9c0.4-0.1,0.5-3.2,0.5-3.2s0.6-9.3-1.3-22.6c-2.4-16.8-11-21.6-11-21.6l0.1-37.3l-30.3,0.4
				L60,85.4c0,0-8.3,7.2-9.6,17.4c-1.3,10.2-5.3,23.3-3.8,29.5c0,0,5.1,8.9,28.5,9.4C98.4,142.2,101.6,132.9,101.6,132.9z"/>
			<ellipse class="st0" cx="74.8" cy="49" rx="15.3" ry="7.7"/>
			<path class="st0" d="M89.8,85.3c0,3.1-6.2,7.7-14.6,7.7s-15.1-4.6-15.1-7.7"/>
			<ellipse class="st30" cx="74.9" cy="49" rx="8.8" ry="4.6"/>
			<ellipse class="st30" cx="74.9" cy="42.8" rx="8.8" ry="4.6"/>
			<path class="st28" d="M66.1,43V49c0,0,0.2,5,9.4,4.7s8.2-4.7,8.2-4.7v-6.1c0,0-1.1,4.2-8.7,4.3C67.4,47.2,66.1,43,66.1,43z"/>
		</g>
		<g>
			<g>
				<g>
					<path class="st1" d="M98.6,101.2c0.9,0.6-2.6,3.2-2.9,3.4c-3.2,2.3-6.9,3.8-10.6,4.8c-9.7,2.5-20,1.3-28.6-3.7
						c-1.5-0.8-2.9-1.8-4.1-3c-0.3-0.3-1.6-1.4-1.3-2c0.2-0.5-1.1-0.1-1.3,0.3c-0.4,0.7,0.4,1.5,0.8,2c1,1.1,2.2,2,3.5,2.8
						c4.1,2.7,8.9,4.4,13.7,5.3c9.6,1.8,20.6-0.5,28.6-6.1c0.5-0.4,4.8-3.4,3.4-4.4C99.5,100.2,98.3,101.1,98.6,101.2L98.6,101.2z"
						/>
				</g>
			</g>
			<g>
				<g>
					<path class="st1" d="M98.7,102.9c1,0.8-2.2,3.2-2.7,3.5c-2.9,2.2-6.3,3.7-9.8,4.8c-5.6,1.7-11.5,2.4-17.2,1.4
						c-4.6-0.8-9.1-2.4-13.1-4.7c-1.4-0.8-2.8-1.8-4-2.9c-0.4-0.4-1.5-1.4-1.2-2.1c0,0-1.3-0.3-1.5,0c-0.3,0.6,0.6,1.5,1,1.9
						c1.1,1.1,2.5,2.1,3.8,2.9c4.2,2.6,8.9,4.2,13.8,5.1c9.6,1.7,20.5-0.1,28.7-5.5c0.5-0.3,5-3.4,3.7-4.4
						C99.9,102.7,98.8,102.9,98.7,102.9L98.7,102.9z"/>
				</g>
			</g>
			<g>
				<g>
					<path class="st1" d="M99.1,104.8c0.9,0.8-2.3,3.2-2.7,3.5c-3,2.2-6.5,3.8-10,4.8c-10.1,3.1-21.1,2.2-30.4-2.9
						c-1.6-0.9-3.1-1.8-4.4-3c-0.4-0.4-1.6-1.4-1.3-2.1c0.1-0.2-1.3-0.7-1.5-0.4c-0.3,0.7,0.6,1.5,1,1.9c1.1,1.1,2.4,2.1,3.8,2.9
						c4.2,2.6,9,4.3,13.9,5.3c9.8,1.9,21.1,0.3,29.5-5.4c0.6-0.4,4.9-3.4,3.5-4.5C100.1,104.8,98.7,104.7,99.1,104.8L99.1,104.8z"/>
				</g>
			</g>
			<g>
				<g>
					<path class="st1" d="M99.4,107.2c0,0,0.1,0,0,0.2c-0.1,0.3-0.3,0.6-0.5,0.8c-0.7,0.9-1.6,1.6-2.5,2.3
						c-3.1,2.2-6.7,3.7-10.3,4.7c-10.1,2.8-20.8,1.8-30.1-3.1c-1.6-0.9-3.2-1.8-4.6-3c-0.4-0.3-1.8-1.5-1.5-1.9
						c0.3-0.7-1.1-1.1-1.4-0.4c-0.4,0.8,0.4,1.6,0.8,2.1c1.1,1.1,2.4,2.1,3.7,2.9c4.3,2.7,9.3,4.5,14.3,5.4c6,1.2,12.2,0.9,18.1-0.6
						c4.2-1,8.5-2.7,12-5.2c0.9-0.6,4.8-3.4,3.1-4.9C100,106.2,98.7,106.7,99.4,107.2L99.4,107.2z"/>
				</g>
			</g>
			<g>
				<g>
					<path class="st1" d="M100.3,109.2c-0.6-0.6-0.3-0.4-0.5,0.2c-0.1,0.3-0.3,0.6-0.6,0.9c-0.7,0.9-1.6,1.6-2.5,2.2
						c-3,2.2-6.4,3.6-9.9,4.7c-10.2,3-21.1,2.2-30.8-2.3c-1.8-0.9-3.6-1.8-5.3-3.1c-0.4-0.3-2-1.3-1.7-2.1c0.1-0.3-1-1.1-1-1.1
						c-0.3,0.7,0.7,1.6,1,2.1c1,1.1,2.3,2,3.5,2.9c4.3,2.8,9.2,4.6,14.2,5.7c6.2,1.3,12.5,1.1,18.6-0.4c4.3-1,8.7-2.7,12.3-5.3
						c1-0.8,2.2-1.7,2.8-2.8c0.5-0.9,0.2-1.4-0.5-2.1C99.4,107.9,99.9,108.8,100.3,109.2L100.3,109.2z"/>
				</g>
			</g>
			<g>
				<g>
					<path class="st1" d="M100.1,111.1c-0.1-0.1,0,0.2-0.1,0.3c-0.1,0.3-0.3,0.7-0.5,0.9c-0.7,0.9-1.6,1.6-2.4,2.3
						c-3,2.2-6.5,3.7-10.1,4.7c-10.4,3-21.5,2.2-31.3-2.5c-1.8-0.9-3.7-1.9-5.3-3.1c-0.3-0.3-1.9-1.3-1.6-1.9c0.2-0.4-1-1.3-1.2-0.9
						c-0.3,0.7,0.5,1.6,1,2.1c1.1,1.1,2.5,2.1,3.8,2.9c4.5,2.8,9.6,4.6,14.7,5.6c6.1,1.2,12.4,1,18.5-0.4c4.3-1,8.6-2.6,12.2-5.2
						c1.2-0.8,4.7-3.3,2.9-5C100.3,110.4,99.4,110.3,100.1,111.1L100.1,111.1z"/>
				</g>
			</g>
			<g>
				<g>
					<path class="st1" d="M100.4,113.1c-0.2-0.2-0.1,0.1-0.1,0.4c-0.1,0.4-0.3,0.7-0.5,1c-0.6,0.9-1.5,1.6-2.3,2.2
						c-3,2.3-6.7,3.8-10.3,4.8c-10.5,3-21.8,2.1-31.7-2.5c-1.9-0.9-3.7-1.9-5.3-3.1c-0.4-0.3-2-1.4-1.7-2c0.2-0.4-1.1-1.2-1.2-0.9
						c-0.3,0.7,0.6,1.6,1,2c1.1,1.2,2.5,2.1,3.9,2.9c4.6,2.8,9.8,4.6,15,5.6c6.1,1.2,12.4,1,18.5-0.4c4.4-1,8.9-2.6,12.6-5.2
						c1.2-0.9,4.5-3.2,2.8-5C100.6,112.3,99.7,112.3,100.4,113.1L100.4,113.1z"/>
				</g>
			</g>
			<g>
				<g>
					<path class="st1" d="M100.3,115.3c0.9,1-2,3.2-2.6,3.6c-3.2,2.3-6.9,3.8-10.7,4.8c-10.8,2.8-22.3,1.7-32.3-3.3
						c-1.7-0.9-3.4-1.8-5-3c-0.4-0.3-1.9-1.5-1.7-2c0.3-0.8-1.1-0.7-1.4,0c-0.3,0.8,0.6,1.6,1.1,2.1c1.2,1.2,2.7,2.1,4.2,2.9
						c4.9,2.7,10.3,4.5,15.8,5.4c6.2,1,12.5,0.6,18.6-0.8c4.3-1,8.6-2.6,12.1-5.2c1.1-0.8,4.8-3.6,3.1-5.2
						C101.1,114.1,99.8,114.8,100.3,115.3L100.3,115.3z"/>
				</g>
			</g>
			<g>
				<g>
					<path class="st1" d="M101.4,117.6c-0.6-0.7-0.2-0.6-0.4,0c-0.1,0.4-0.4,0.8-0.6,1.1c-0.7,0.9-1.6,1.7-2.6,2.4
						c-3,2.2-6.6,3.6-10.1,4.5c-10.7,3-22.1,2.1-32.3-2.4c-2-0.9-4-1.9-5.9-3.1c-0.6-0.4-1.3-0.9-1.9-1.4c-0.2-0.1-0.4-0.3-0.5-0.5
						c0.1,0.3,0.1,0.3,0.2,0c0.1-0.3-0.8-1.3-0.8-1.2c-0.3,0.7,0.7,1.9,1.2,2.4c1.1,1.2,2.5,2,3.8,2.8c4.9,2.9,10.5,4.8,16,5.8
						c6.5,1.1,13.2,0.8,19.5-0.8c4.2-1,8.6-2.6,12.1-5.4c1.7-1.3,3.8-3.3,1.9-5.4C100.6,116.1,101.2,117.3,101.4,117.6L101.4,117.6z
						"/>
				</g>
			</g>
			<g>
				<g>
					<path class="st1" d="M100.9,118.8c1.1,1.2-1.4,3.3-2.2,4c-2.9,2.3-6.5,3.8-10,4.9c-11.1,3.3-23.2,2.6-33.8-2.1
						c-2-0.9-4-1.9-5.8-3.2c-0.5-0.3-2.2-1.5-1.9-2.3c0.1-0.2-1.3-0.9-1.3-0.7c-0.3,0.7,0.9,1.6,1.3,2c1.3,1.1,2.8,2,4.3,2.9
						c4.7,2.6,9.9,4.4,15.1,5.4c6.5,1.3,13.3,1.1,19.8-0.3c4.3-0.9,8.7-2.4,12.4-4.9c1.1-0.7,4.9-3.4,3.3-5.1
						c-0.2-0.2-0.6-0.5-0.9-0.5C101.1,118.8,100.6,118.6,100.9,118.8L100.9,118.8z"/>
				</g>
			</g>
			<g>
				<g>
					<path class="st1" d="M101.1,121.3c1.1,1.3-1.7,3.5-2.5,4.1c-3.1,2.4-7,3.8-10.7,4.7c-11.3,2.9-23.3,1.7-33.9-3.3
						c-1.9-0.9-3.8-1.9-5.4-3.1c-0.4-0.3-2.1-1.4-1.8-2.1c0.2-0.4-1.2-0.1-1.4,0.3c-0.3,0.7,0.9,1.7,1.4,2c1.4,1.2,3.1,2.1,4.7,3
						c5.2,2.7,10.9,4.4,16.6,5.2c6.4,0.9,13.1,0.4,19.4-1.1c4.2-1,8.4-2.6,11.9-5.2c1.2-0.8,4.5-3.4,3-5.2
						C102.1,120.3,100.7,120.9,101.1,121.3L101.1,121.3z"/>
				</g>
			</g>
			<g>
				<g>
					<path class="st1" d="M101.3,123.2c1.1,1.3-1.5,3.4-2.3,4.1c-3,2.4-6.8,3.8-10.5,4.8c-11.4,3.1-23.5,2-34.3-2.8
						c-2-0.9-4-1.9-5.8-3.2c-0.4-0.3-2.3-1.5-2-2.1c0.2-0.6-1.3-0.7-1.4-0.3c-0.3,0.8,0.7,1.6,1.2,2c1.4,1.2,3.1,2.2,4.7,3
						c5.3,2.7,11.1,4.5,16.9,5.4c6.4,0.9,13,0.6,19.4-0.8c4.3-1,8.8-2.5,12.4-5.1c1.3-0.9,4.6-3.5,3-5.3
						C102.3,122.6,100.9,122.7,101.3,123.2L101.3,123.2z"/>
				</g>
			</g>
			<g>
				<g>
					<path class="st1" d="M101.7,125.4c0.2,0.3,0.1,0.9-0.2,1.4c-0.5,1-1.4,1.7-2.3,2.4c-3.1,2.3-6.8,3.7-10.6,4.7
						c-11.5,3-23.7,2-34.6-2.7c-2.1-0.9-4.2-1.9-6-3.2c-0.6-0.4-1.1-0.8-1.6-1.2c-0.2-0.2-0.3-0.3-0.5-0.5c-0.1-0.2-0.1,0-0.1,0
						c0.3-0.8-1.1-1.4-1.4-0.6c-0.3,0.9,0.7,1.8,1.3,2.3c1.4,1.2,3,2.2,4.7,3c5.3,2.8,11.1,4.6,17,5.5c6.7,1,13.6,0.7,20.2-0.8
						c4.3-1,8.8-2.5,12.4-5.2c1.5-1.1,4.5-3.7,2.8-5.8C102.2,124.1,101.1,124.7,101.7,125.4L101.7,125.4z"/>
				</g>
			</g>
			<g>
				<g>
					<path class="st1" d="M101.9,127.3c1,1.2-1.6,3.3-2.4,4c-3.1,2.4-6.9,3.8-10.6,4.8c-11.7,3-24.1,2-35.2-2.7
						c-2.1-0.9-4.1-1.9-6-3.1c-0.6-0.4-1.2-0.8-1.8-1.3c-0.2-0.2-0.5-0.7-0.5-0.6c0.3-0.7-1.1-1.4-1.3-0.7c-0.3,0.9,0.6,1.8,1.3,2.3
						c1.4,1.2,3.1,2.2,4.7,3c5.4,2.8,11.3,4.6,17.2,5.5c6.7,1.1,13.8,0.7,20.4-0.8c4.4-1,8.8-2.5,12.5-5.1c1.5-1.1,4.5-3.7,2.8-5.7
						C102.5,126.2,101.3,126.6,101.9,127.3L101.9,127.3z"/>
				</g>
			</g>
			<g>
				<g>
					<path class="st1" d="M102,129.1c1.2,1.5-1,3.5-2.1,4.4c-2.9,2.4-6.7,3.8-10.3,4.8c-12,3.3-24.8,2.1-36.2-2.8
						c-2.1-0.9-4.2-1.9-6.1-3.2c-0.4-0.3-2.5-1.5-2.2-2.2c0.2-0.5-1.3-0.5-1.5-0.1c-0.3,0.8,0.9,1.6,1.4,2c1.5,1.2,3.3,2.2,5.1,3
						c5.6,2.7,11.6,4.5,17.8,5.3c6.6,0.9,13.5,0.5,20.1-0.9c4.4-0.9,8.9-2.4,12.5-5c1.3-0.9,4.6-3.5,3-5.5
						C103.2,128.6,101.7,128.9,102,129.1L102,129.1z"/>
				</g>
			</g>
		</g>
		<g>
			<g>
				<g>
					<path class="st15" d="M97.9,94.8C97.9,94.8,97.9,94.8,97.9,94.8c-0.1,0.3-0.2,0.7-0.3,1c-0.5,1.1-1.2,2-2,2.9
						c-2.7,2.9-6.5,4.9-10.3,6c-5.9,1.7-12.2,1.4-18.2,0.2c-4.2-0.9-8.6-2.3-11.9-5.3c-1-0.9-3.7-3.8-2.4-5.2
						c0.6-0.7-0.7-1.3-1.3-0.7c-1.5,1.6,0.3,4.4,1.4,5.7c3,3.4,7.5,5.2,11.8,6.3c10.6,2.7,24.1,2.3,32-6.3c0.7-0.8,4.3-5.3,1.5-5.8
						C97.5,93.4,97,94.7,97.9,94.8L97.9,94.8z"/>
				</g>
			</g>
			<g>
				<g>
					<path class="st16" d="M98.4,97.3c-0.3-0.1-0.1-0.4-0.2-0.1s-0.2,0.6-0.3,1c-0.5,1.1-1.4,2-2.2,2.8c-2.9,2.9-6.7,4.8-10.6,5.9
						c-5.9,1.6-12.1,1.4-18.1,0.2c-4.3-0.9-8.7-2.4-12-5.2c-1-0.8-3.9-3.7-2.6-4.9c0.6-0.6-0.6-1.5-1.2-0.9
						c-1.6,1.6,0.5,4.3,1.6,5.5c3.1,3.3,7.7,5.2,12,6.3c10.7,2.7,24.1,2.2,32.3-6.2c0.8-0.8,4.5-5.2,1.6-5.8
						C97.7,95.9,97.6,97.2,98.4,97.3L98.4,97.3z"/>
				</g>
			</g>
			<g>
				<g>
					<path class="st31" d="M99.3,99.8c-0.3-0.1-0.4-0.8-0.6-0.5c0,0.1,0,0.3-0.1,0.4c-0.1,0.4-0.3,0.8-0.5,1.2
						c-0.7,1.1-1.5,2-2.5,2.9c-3,2.7-6.8,4.6-10.7,5.7c-5.7,1.6-11.8,1.5-17.7,0.4c-4.5-0.8-9.2-2.3-12.9-5.2
						c-0.9-0.7-4.1-3.6-2.6-5c0.2-0.2-0.9-1.2-1.1-1c-1.5,1.4,1.2,4.3,2.1,5.2c3.2,3.2,7.6,5.1,11.9,6.3c10.7,2.9,24.2,2.4,32.6-5.9
						c1-0.9,2.1-2.1,2.5-3.5c0.3-0.9-0.3-1.8-1.3-2C98.1,98.7,99,99.7,99.3,99.8L99.3,99.8z"/>
				</g>
			</g>
			<g>
				<g>
					<path class="st32" d="M98.8,102.2c0.9,0.3-2.4,3.8-2.7,4c-3.2,2.9-7.2,4.7-11.4,5.8c-5.9,1.5-12.2,1.2-18.1-0.1
						c-4.3-0.9-8.6-2.5-12.1-5.2c-1.1-0.9-2.2-1.9-3-3.1c-0.3-0.5-0.7-1.5-0.4-1.8c0.7-0.7-0.6-0.6-1-0.2c-1.6,1.5,0.8,4,1.8,4.9
						c3.4,3.2,8,5,12.5,6.1c10.9,2.7,23.6,1.8,32.4-5.9c0.5-0.4,5-4.8,2.9-5.4C99.3,101.2,98.2,102.1,98.8,102.2L98.8,102.2z"/>
				</g>
			</g>
			<g>
				<g>
					<path class="st33" d="M99.6,104.8c-0.5-0.2-0.1-0.5-0.4-0.1c-0.2,0.3-0.4,0.7-0.6,1c-0.7,1-1.7,1.9-2.7,2.7
						c-3.3,2.7-7.3,4.5-11.5,5.6c-5.8,1.4-11.9,1.2-17.7,0c-4.3-0.9-8.7-2.4-12.4-5c-1.2-0.8-2.3-1.8-3.1-3
						c-0.2-0.3-0.4-0.7-0.5-1.1c-0.1-0.3,0-0.4,0.1-0.5c0.7-0.6-0.5-1.6-1.1-1c-1.7,1.5,1.2,4.3,2.2,5.2c3.5,3.1,8.1,5,12.5,6.1
						c11,2.8,23.9,2,32.9-5.6c0.8-0.7,5.4-4.9,2.6-5.8C98.9,103.2,98.7,104.7,99.6,104.8L99.6,104.8z"/>
				</g>
			</g>
			<g>
				<g>
					<path class="st34" d="M99.6,107.2c0.4,0.1-0.2,0.9-0.4,1.2c-0.8,1-1.7,1.9-2.7,2.7c-3.4,2.7-7.5,4.5-11.8,5.5
						c-5.9,1.4-12.1,1.1-18-0.1c-4.3-0.9-8.7-2.4-12.4-4.9c-1.3-0.8-2.5-1.8-3.4-3c-0.3-0.4-0.6-0.8-0.7-1.2c0-0.1-0.1-0.3-0.1-0.4
						c0-0.2,0,0,0,0c0.8-0.6-0.2-0.9-0.8-0.4c-1.7,1.4,1.1,3.9,2.1,4.7c3.5,3,8,4.8,12.5,5.9c11.1,2.9,23.8,1.8,33.1-5.4
						c0.4-0.3,5.6-4.8,3.7-5.5C100.1,106.1,99.1,107.1,99.6,107.2L99.6,107.2z"/>
				</g>
			</g>
			<g>
				<g>
					<path class="st35" d="M100.1,109.2c-0.3-0.1-0.1,0.1-0.2,0.4c-0.1,0.4-0.4,0.7-0.6,1c-0.8,1-1.8,1.9-2.8,2.6
						c-3.4,2.7-7.5,4.5-11.7,5.7c-5.8,1.6-11.8,1.5-17.7,0.5c-4.9-0.9-9.8-2.5-13.9-5.4c-0.6-0.4-4.8-3.5-3.3-4.6
						c-0.1,0.1-1.1-0.7-1.4-0.5c-1.4,1.1,2.5,4,3.1,4.4c3.6,2.6,7.9,4.3,12.2,5.5c11.1,3,23.5,2.3,33.1-4.4c0.6-0.4,6-4.4,3.9-5.2
						C100.7,109.2,99.3,108.8,100.1,109.2L100.1,109.2z"/>
				</g>
			</g>
			<g>
				<g>
					<path class="st36" d="M100.9,112.3c-0.3-0.2-0.3-0.6-0.4-0.5c0,0-0.2,0.3-0.2,0.4c-0.2,0.4-0.6,0.7-0.9,1.1
						c-1,1-2.1,1.9-3.3,2.7c-3.7,2.5-7.9,4.2-12.3,5.2c-5.7,1.3-11.6,1.1-17.3,0c-4.5-0.9-8.9-2.4-12.8-4.7
						c-1.3-0.8-2.7-1.7-3.7-2.8c-0.3-0.3-0.6-0.7-0.8-1c-0.1-0.2-0.1-0.2,0-0.2c0.6-0.4-0.2-1.7-0.8-1.3c-1.8,1.3,1.8,4.1,2.6,4.8
						c3.7,2.9,8.2,4.7,12.6,5.9c11.4,3.1,24.2,2,34-5c0.9-0.6,6.1-4.4,3.4-5.7C100.1,110.7,100.3,112.1,100.9,112.3L100.9,112.3z"/>
				</g>
			</g>
			<g>
				<g>
					<path class="st37" d="M100.7,114.4c0.6,0.3-3.7,3.8-4.1,4c-3.7,2.5-8,4.3-12.4,5.3c-10.1,2.3-21.9,0.4-30.8-5
						c-0.4-0.2-5.5-3.8-4.6-4.4c0.7-0.4-0.8-0.6-1.1-0.3c-1.6,1.1,2.3,3.7,3,4.2c3.9,2.7,8.6,4.5,13.2,5.6
						c11.3,2.7,23.3,1.6,33.2-4.7c0.5-0.3,6.4-4.4,4.8-5.2C101.6,113.8,100.2,114.2,100.7,114.4L100.7,114.4z"/>
				</g>
			</g>
			<g>
				<g>
					<path class="st38" d="M101.1,116.8c0.7,0.4-3.9,3.8-4.2,4c-3.8,2.5-8.2,4.3-12.7,5.3c-10.2,2.4-21.9,0.3-31-4.9
						c-0.3-0.2-5.8-3.8-4.7-4.4c0.3-0.2-1-0.4-1.3-0.2c-1.4,0.9,3,3.7,3.5,4c4,2.6,8.6,4.3,13.3,5.4c11.3,2.7,23.2,1.6,33.3-4.4
						c0.5-0.3,6.6-4.2,5.3-5.1C102.1,116.3,100.7,116.6,101.1,116.8L101.1,116.8z"/>
				</g>
			</g>
			<g>
				<g>
					<path class="st39" d="M101.5,119.6c0.8,0.5-4.2,3.7-4.5,3.9c-4.2,2.5-9,4.2-13.8,5.1c-10,1.8-21-0.3-29.9-5.1
						c-1.5-0.8-2.9-1.7-4.2-2.7c-0.4-0.3-0.8-0.7-1-1.1c-0.4-0.6,0.1-0.6-0.8-0.2c0.5-0.3,1-1.1,0.1-0.6c-0.8,0.4-1.1,0.9-0.6,1.6
						c0.7,1,1.8,1.7,2.8,2.3c4.1,2.7,8.8,4.4,13.5,5.6c6.2,1.6,12.8,2.1,19.1,0.9c5.1-0.9,10.1-2.8,14.7-5.4
						c0.4-0.2,7.1-4.5,5.9-5.3C102.4,118.6,101.3,119.4,101.5,119.6L101.5,119.6z"/>
				</g>
			</g>
			<g>
				<g>
					<path class="st40" d="M102.6,122.2c-0.2-0.3-0.3-0.6-0.5-0.9c0,0,0,0,0,0.1c0,0,0,0.1-0.1,0.1c-0.1,0.1-0.2,0.3-0.3,0.4
						c-0.3,0.4-0.7,0.7-1.1,1c-1.2,1-2.6,1.8-3.9,2.5c-4.1,2.3-8.6,3.9-13.1,4.9c-10.2,2.2-21.2,0.2-30.5-4.3
						c-1.6-0.8-3.3-1.7-4.7-2.7c-0.4-0.3-0.8-0.7-1.3-1c-0.5-0.4-0.1,0.1,0,0.1c0.3-0.1-0.4-1.5-0.8-1.3c-1.5,0.7,2.8,3.8,3.2,4.1
						c4,2.6,8.6,4.3,13.2,5.6c6.2,1.7,12.8,2.3,19.2,1.3c5.5-0.9,11-2.8,15.9-5.6c1.1-0.7,7-3.5,4.5-5.5
						C101.8,120.7,102.3,121.9,102.6,122.2L102.6,122.2z"/>
				</g>
			</g>
			<g>
				<g>
					<path class="st41" d="M102.3,124.6C102.2,124.4,102.3,124.4,102.3,124.6c-0.1-0.1-0.2,0.2-0.3,0.2c-0.3,0.3-0.7,0.6-1.1,0.9
						c-1.3,1-2.7,1.8-4.1,2.5c-4.2,2.2-8.8,3.9-13.5,4.8c-10.1,2-21-0.1-30.3-4.6c-1.6-0.7-3.1-1.6-4.5-2.5c-0.5-0.3-0.9-0.6-1.3-1
						c-0.6-0.6,0-0.4-0.8,0c0.8-0.4,0.5-1.4-0.3-1c-2.3,1,2,3.4,2.7,3.8c4.2,2.5,8.9,4.2,13.6,5.4c6.1,1.6,12.6,2.2,18.9,1.3
						c5.5-0.8,11-2.6,16-5.2c0.6-0.3,7.7-4.1,6.3-5.4C103.1,123.3,101.7,124.1,102.3,124.6L102.3,124.6z"/>
				</g>
			</g>
			<g>
				<g>
					<path class="st42" d="M103.2,126.9c-1.1-1.2,0-0.7-0.4-0.5c-0.1,0.1-0.2,0.3-0.3,0.4c-0.4,0.4-0.8,0.7-1.2,1
						c-1.3,0.9-2.8,1.7-4.2,2.5c-4.4,2.2-9.1,3.9-13.9,4.8c-10.2,2-21-0.1-30.4-4.3c-1.7-0.8-3.4-1.6-5-2.6c-0.5-0.3-0.9-0.7-1.4-1
						c-0.6-0.4,0,0.1,0,0.2c0.3-0.1-0.4-1.4-0.9-1.2c-0.7,0.3,0.4,1.5,0.6,1.8c0.9,0.9,2,1.5,3.1,2.1c4.2,2.4,8.9,4.1,13.6,5.3
						c6.1,1.6,12.5,2.3,18.7,1.4c5.7-0.8,11.3-2.6,16.4-5.2c1.8-0.9,3.6-1.9,5.2-3.1c0.8-0.6,1.4-1.3,0.6-2.2
						C102.7,125.6,102.7,126.4,103.2,126.9L103.2,126.9z"/>
				</g>
			</g>
			<g>
				<g>
					<path class="st1" d="M103.1,129.4c-0.2-0.3,0.1-0.4-0.1-0.3c-0.1,0-0.3,0.3-0.4,0.4c-0.4,0.4-0.8,0.7-1.3,0.9
						c-1.3,0.9-2.7,1.6-4.2,2.3c-4.3,2.1-9,3.7-13.7,4.6c-10.4,2.1-21.1,0-30.7-4.1c-1.7-0.7-3.5-1.6-5.1-2.5
						c-0.5-0.3-1.1-0.6-1.5-1c-0.1-0.1-0.3-0.3-0.4-0.3c-0.3-0.1,0.1,0,0,0c0,0,0,0.5-0.3,0.6c0.9-0.3,0.3-1.6-0.5-1.4
						c-2.4,0.7,2.9,3.7,3.4,3.9c4.5,2.4,9.3,4.1,14.2,5.3c6.2,1.5,12.6,2.2,18.9,1.3c5.5-0.8,11-2.6,16-4.9c0.9-0.4,8.2-3.5,6.8-5.4
						C103.7,128.1,102.5,128.6,103.1,129.4L103.1,129.4z"/>
				</g>
			</g>
		</g>
		<g>
			<path class="st43" d="M24.5,94.9c0,1.1-1.4,2.4-2.3,2.9c-1.3,0.8-3.4,4.1-3.7,5.2"/>
			<g>
				<path class="st14" d="M49.7,37.5c6.2-7,14.7-10.6,22.8-14.8c3.3-1.7,3.2-11.1,2.4-10.9c-16.6,4.7-8,7.8-12.2,10.9
					c-3.5,2.5-14.1,9-21.3,17c-0.9,1-3,6.3-2.3,6.3C40.4,46.2,48.9,38.5,49.7,37.5L49.7,37.5z"/>
			</g>
			<g>
				<path class="st1" d="M62.1,12.4c-5.2,3.1-4,2.6-8.1,7.1c-4.6,5-7.9,10.6-12.1,15.9c-5.8,7.4-12.3,14.1-15.4,23.3
					c-5.5,16.1-8.9,33.8-5.9,50.7c0.2,1.3,3.9,1.5,3.6,0.1c-0.8-4.4-0.2-9.8-0.3-14.3c0.4-4.8,0.1-7,0.4-10.5c0.7-2.4,0-4.5,0.7-6.2
					s0.4-2.3,0.6-3.5c0.2-0.9,0.6-1.1,0.8-2.6c0.2-1.5,0-1.8,0.2-2.5c0.5-2,2-4.1,2.5-6.1c1.4-4.9,5-9.6,7.6-13.9
					c2.4-4,2.7-7.5,5.7-11.1c3.5-4.3,8.1-7.2,11.5-11.5c4.1-5.4,6.6-3.1,12.1-7C73,15.4,66,10.1,62.1,12.4z"/>
			</g>
			<g>
				<g>
					<path class="st1" d="M22.5,71.1c-1.2,6.6-2.4,13.3-3.2,19.9c-0.6,4.7-1,9.4-0.7,14.1c0.3,3.5,1.1,7,2.7,10.2
						c1.8,3.4,4.2,6.2,7.1,8.7c4.3,3.9,9.2,7.2,14.1,10.5c1.3,0.9,5.6-1,3.6-2.3c-7.1-4.8-15.3-9.9-19.8-17.4
						c-4-6.7-3.5-15-2.7-22.5c0.8-7.3,2.1-14.5,3.4-21.7C27.4,68.6,22.8,69.3,22.5,71.1L22.5,71.1z"/>
				</g>
			</g>
			<g>
				<g>
					<path class="st14" d="M53.7,26c1.6-2.2,3.1-4.5,4.7-6.7c0.2-0.3,0.4-0.6,0.7-0.8c0.3-0.3,0.3-0.3,0.6-0.6
						c0.7-0.6,1.2-0.9,2-1.4c1.5-0.9,3.1-1.8,4.6-2.6c0.3-0.2,0.6-0.5,0.2-0.8c-0.4-0.2-1.1,0-1.5,0.2c-2.3,1.3-4.7,2.4-6.8,4.1
						c-1.3,1.1-2.2,2.5-3.1,3.9C54,23,52.9,24.5,51.7,26c-0.3,0.4,0.3,0.6,0.6,0.6C52.8,26.6,53.4,26.5,53.7,26L53.7,26z"/>
				</g>
			</g>
			<g>
				<g>
					<path class="st1" d="M63.4,18.9c0.6-0.4,1.3-0.9,1.9-1.4c0.3-0.3,1-0.7,0.8-1.2c-0.4-1.3-2.5,0-3.2,0.4c-2.9,1.6-5.8,3.3-8.6,5
						c-0.9,0.5-1.7,1-2.6,1.6c-0.4,0.2-0.5,0.7-0.2,1.1c0.3,0.3,1,0.3,1.4,0.1c3.6-2.1,7.2-4.2,10.6-6.5c1.9-1.3,3.8-2.7,5.5-4.3
						c1.1-1-0.6-1.7-1.5-1c-4.5,4.1-10,7.1-15.2,10.3c-0.1,0-0.2,0.1-0.2,0.1c-0.2,0.1,0.2-0.1,0.1,0l-0.1,0.1
						c0.4,0.4,0.8,0.8,1.2,1.1c-0.5,0.3,0.1-0.1,0.3-0.2c0.4-0.3,0.8-0.5,1.3-0.8c1.3-0.8,2.6-1.6,3.9-2.3c1.4-0.8,2.8-1.6,4.2-2.4
						c0.3-0.2,0.9-0.5,1.4-0.8c0.2-0.1,0.8-0.3,1-0.5c-0.1,0.1-0.3,0.1-0.4,0.1c-0.6,0-1.1-0.3-0.9-0.9c0,0,0.2-0.3,0.1-0.1
						c-0.1,0.2,0.2-0.2,0,0c-0.1,0.1-0.2,0.1-0.2,0.2c-0.6,0.5-1.3,0.9-1.9,1.4c-0.5,0.2-0.7,0.8-0.2,1.1
						C62.3,19.4,63,19.1,63.4,18.9L63.4,18.9z"/>
				</g>
			</g>
			<g>
				<path class="st14" d="M50,33.8c6.5-11,2.9-9.9,14.6-14.4c2.9-1.1,6.2-1.8,9-3.3c0.7-0.4,1.1-0.7,1.6-1.3
					c1.6-1.7-9.9,1.9-11.9,2.7c-5.3,2-13.8,9.4-17.7,16c-0.2,0.4-3.4,5.5-3.2,5.7c0,0,6-2.5,6.5-3.4L50,33.8z"/>
			</g>
			<path class="st44" d="M49.2,38.5c-2.7,1.5-5.8,1.1-8.3,1.6c-2.5,0.4-4.1,1.4-4.8,2.3"/>
			<path class="st44" d="M44.5,42.5c0,0-2.3,2.3-6.9,2.7S32.5,47,32.5,47"/>
			<path class="st44" d="M38.2,48.2c0,0-3.1,2-5.8,3s-3.8,2-4.6,3.2"/>
			<path class="st44" d="M34.3,54.2c0,0-1.5,1.2-4,2.3s-4.5,4.2-5,5.2"/>
			<path class="st44" d="M30.9,60c0,0-1.9,3.3-2.8,3.7c-0.7,0.3-3.2,2.3-4.5,4"/>
			<path class="st44" d="M27.4,71.7c0,0-1.8,2.1-2.7,2.5c-1.3,0.7-3.3,3.1-3.7,4.2"/>
			<path class="st44" d="M26.1,77.2c-0.2,1.1-2.3,4.8-3.2,5.2c-1.3,0.6-2.8,2.2-3.2,3.3"/>
			<path class="st44" d="M25.4,86.4c-0.2,1.1-2.4,3.5-3.3,4c-1.3,0.6-3.2,2.7-3.6,3.8"/>
			<path class="st45" d="M24.6,110.6c0.2,1.1,0.5,3.4,0,4.5s-0.6,3.3-0.6,4.6"/>
			<path class="st44" d="M29.2,117.9c0.5,1,0.5,3.1,0,4c-0.7,1.3-1.2,1.6-0.8,2.8"/>
			<path class="st44" d="M32.9,122.2c0.7,0.9,1.1,2.9,0.8,3.9c-0.4,1.4-0.8,1.8-0.2,2.9"/>
			<path class="st44" d="M56.6,31.9c-2.5,1.6-9.3,1.2-10.5,1.4c-1.8,0.3-3.4,0.6-4.2,1.8"/>
			<g>
				<path class="st14" d="M48.8,31c8.9-7.2,18.7-8.7,20.6-10.4"/>
				<g>
					<path class="st1" d="M50.8,31.4c3.7-3,7.9-5.1,12.3-6.9c1.6-0.6,3.1-1.1,4.7-1.7c1.2-0.5,2.5-1,3.5-1.8
						c0.8-0.7,0.6-1.4-0.4-1.6c-1.2-0.2-2.8,0.2-3.7,1c-0.1,0.1-0.1,0.1-0.2,0.2c0.3-0.2,0.2-0.3,0.1-0.1c0,0-0.5,0.3,0,0
						c0.4-0.2,0,0-0.1,0c-0.6,0.2-1.2,0.5-1.8,0.7c-1.7,0.6-3.4,1.2-5.1,1.9c-4.8,1.9-9.4,4.4-13.4,7.7c-0.8,0.7-0.6,1.4,0.4,1.6
						C48.4,32.5,49.9,32.2,50.8,31.4L50.8,31.4z"/>
				</g>
			</g>
			<path class="st44" d="M73.7,22.1C69.3,24.6,55,26,53.9,26c-1.7,0.1-6.2,1.3-7,2.2"/>
			<path class="st46" d="M29.5,63.5l-0.8,2.3c1.4,0.2,1.7,0.6,1.7,1.1c0,0.8-1.9,1.4-4.3,1.4s-4.3-0.6-4.3-1.4
				c0-0.6,0.7-1.1,2.2-1.3l0.7-2.5c-3.9,0.2-6.5,2-6.5,3.9c0,2.1,3.5,3.7,7.8,3.7s7.8-1.7,7.8-3.7C33.9,65.3,32.6,64,29.5,63.5z"/>
			<g>
				<path class="st46" d="M25.6,71.9c-4.1,0.2-7.2-2.3-7.3-2.9l-0.1-2.3c0,1.4,3,3.6,7.4,3.6c3.6,0,6.6-1,7.6-2.2
					c0.2-0.3,0.4-0.8,0.4-0.8l-0.3,1.9C33,70.2,29.7,71.8,25.6,71.9z"/>
			</g>
		</g>
		<path class="st47" d="M41.7,134.1c0,0-1.3-0.6-0.9-2.7c0.3-1.5,1.9-2.5,3.4-2.2c1.5,0.3,2.5,1.9,2.2,3.4c-0.1,0.3-0.2,0.4-0.3,0.6
			l1.5,1.1c0.3-0.5,0.5-0.8,0.6-1.4c0.6-2.5-1-5.4-3.6-6c-2.5-0.6-5.5,1.4-6,3.9c-0.5,2,0.3,4.8,2.9,5.9L41.7,134.1z"/>
		<g>
			<g>
				<path class="st1" d="M41.8,133.1c3.4,2.8,7,5.5,10.9,7.7c4.4,2.5,9.8,3.3,14.8,3.8c7.7,0.8,15.6,0.3,23.1-1.6
					c4.8-1.2,10.3-3.3,13.3-7.5c0.8-1.1,1.3-2.3,1.4-3.6c0.1-1.4-0.8-1.5-2.2-1.1c-0.4,0.1-1.8,0.5-1.6,1.1c0.2,0.6,1.7,0.2,2,0.1
					c-0.6,0-1.2,0-1.8,0c0,0,0,0-0.1-0.1v0.1c0,0.1,0.1,0.2,0.1,0.2c0,0.3,0,0.6,0,0.8c-0.2,1-0.7,2-1.2,2.9
					c-2.6,3.7-7.4,5.2-11.6,6.2c-6.6,1.5-13.5,1.6-20.2,0.8c-4.2-0.5-8.8-1.3-12.5-3.4c-3.8-2.2-7.4-4.9-10.9-7.7
					C44.4,131.2,41.1,132.6,41.8,133.1L41.8,133.1z"/>
			</g>
		</g>
		<path class="st44" d="M24.1,95.2c0,1.1-1.4,2.4-2.3,2.9c-1.3,0.7-3.4,4-3.7,5.2"/>
		<path class="st44" d="M23.9,102.6c0.1,1.6-1.5,4.3-2.4,5.2c-1.4,1.3-1.4,2.6-1.6,4.2"/>
	</g>
	<path class="st48" d="M46.6,133.2"/>
</g>
</svg>
