<?xml version="1.0" encoding="utf-8"?>
<!-- Generator: Adobe Illustrator 25.2.1, SVG Export Plug-In . SVG Version: 6.00 Build 0)  -->
<svg version="1.1" id="Layer_1" xmlns="http://www.w3.org/2000/svg" xmlns:xlink="http://www.w3.org/1999/xlink" x="0px" y="0px"
	 viewBox="0 0 224.28 243.89" style="enable-background:new 0 0 224.28 243.89;" xml:space="preserve">
<style type="text/css">
	.st0{fill:#CAB7B7;stroke:#FFFFFF;stroke-width:0.5976;stroke-miterlimit:10;}
	.st1{fill:#D75E40;}
	.st2{fill:#D85C3F;}
	.st3{fill:#D85A3D;}
	.st4{fill:#D8573C;}
	.st5{fill:#D8553B;}
	.st6{fill:#D85339;}
	.st7{fill:#D85138;}
	.st8{fill:#D84F36;}
	.st9{fill:#D84D35;}
	.st10{fill:#D84B34;}
	.st11{fill:#D84932;}
	.st12{fill:#D84731;}
	.st13{fill:#D84530;}
	.st14{fill:#D8422E;}
	.st15{fill:#DC3359;}
	.st16{fill:#DD3758;}
	.st17{fill:#DE3C57;}
	.st18{fill:#E04055;}
	.st19{fill:#E14554;}
	.st20{fill:#E34952;}
	.st21{fill:#E44E51;}
	.st22{fill:#E55250;}
	.st23{fill:#E7574E;}
	.st24{fill:#E85B4D;}
	.st25{fill:#E9604B;}
	.st26{fill:#EB644A;}
	.st27{fill:#EC6949;}
	.st28{fill:#ED6D47;}
	.st29{fill:#E4DAD8;stroke:#FFFFFF;stroke-width:0.5976;stroke-miterlimit:10;}
	.st30{fill:none;stroke:#FFFFFF;stroke-width:0.5976;stroke-miterlimit:10;}
	.st31{fill:#CAB7B7;stroke:#FFFFFF;stroke-width:0.5976;stroke-linejoin:bevel;stroke-miterlimit:10;}
	.st32{fill:#D55C3F;}
	.st33{fill:#D35B3E;}
	.st34{fill:#D05A3D;}
	.st35{fill:#CE583C;}
	.st36{fill:#CB573C;}
	.st37{fill:#C9563B;}
	.st38{fill:#C6553A;}
	.st39{fill:#C45339;}
	.st40{fill:#C25238;}
	.st41{fill:#BF5137;}
	.st42{fill:#BD4F36;}
	.st43{fill:#BA4E35;}
	.st44{fill:#B84D34;}
	.st45{fill:#B54B33;}
	.st46{fill:#DB3658;}
	.st47{fill:#DB3956;}
	.st48{fill:#DB3C54;}
	.st49{fill:#DB3F52;}
	.st50{fill:#DA4250;}
	.st51{fill:#DA454F;}
	.st52{fill:#DA484D;}
	.st53{fill:#D94B4B;}
	.st54{fill:#D94E49;}
	.st55{fill:#D95147;}
	.st56{fill:#D85546;}
	.st57{fill:#D85844;}
	.st58{fill:#D85B42;}
	.st59{fill:none;stroke:#FFFFFF;stroke-width:0.4983;stroke-miterlimit:10;}
	.st60{fill:#92392D;}
	.st61{fill:#91392D;}
	.st62{fill:none;stroke:#FFFFFF;stroke-width:0.3511;stroke-miterlimit:10;}
	.st63{fill:none;stroke:#FFFFFF;stroke-width:0.355;stroke-miterlimit:10;}
	.st64{fill:none;stroke:#FFFFFF;stroke-width:0.3512;stroke-miterlimit:10;}
	.st65{fill:#522321;stroke:#FFFFFF;stroke-width:0.2988;stroke-miterlimit:10;}
	.st66{fill:#512320;stroke:#FFFFFF;stroke-width:0.2988;stroke-miterlimit:10;}
	.st67{fill:#92392D;stroke:#FFFFFF;stroke-width:0.5976;stroke-miterlimit:10;}
	.st68{fill:#E4DAD8;stroke:#FFFFFF;stroke-width:0.5716;stroke-miterlimit:10;}
</style>
<g>
	<g>
		<path class="st0" d="M105.2,141.9l34.84,0.18c0,0-2.69,23.29-4.23,35.52c-0.29,6.43-1.26,13.23-4.03,19.29
			c-4.93,10.82-12.77,19.33-12.77,19.33l0.77,17.34c0,0-1.74,6.83-14.04,7.07h-0.39c-12.29-0.24-14.04-7.07-14.04-7.07l0.77-17.34
			c0,0-7.84-8.51-12.77-19.33c-2.77-6.07-3.74-12.86-4.03-19.29c-1.54-12.24-4.23-35.52-4.23-35.52l34.84-0.18H105.2z"/>
		<path class="st0" d="M92.08,216.13c0,0,4.48,5.65,13.73,5.65s13.22-5.55,13.22-5.55"/>
		<g>
			<g>
				<g>
					<path class="st1" d="M138.99,144.72c0.48,0.6-0.09,1.34-0.55,1.79c-1.02,1-2.37,1.7-3.63,2.33c-4.24,2.12-8.86,3.55-13.45,4.69
						c-5.49,1.37-11.13,2.29-16.79,2.4c-6.46,0.13-12.99-0.81-19.19-2.55c-2.62-0.74-5.22-1.63-7.71-2.76
						c-0.89-0.41-1.78-0.84-2.62-1.34c-0.23-0.14-2.53-1.68-1.9-1.88c0.19-0.06,0.8-0.24,0.72-0.54c-0.08-0.29-0.73-0.16-0.9-0.11
						c-0.78,0.24-2.1,0.78-1.3,1.74c0.67,0.81,1.77,1.35,2.69,1.85c2.05,1.11,4.22,1.97,6.42,2.73c6.4,2.18,13.17,3.37,19.92,3.61
						c6.24,0.22,12.48-0.61,18.56-1.96c5.26-1.17,10.51-2.74,15.41-5.01c1.74-0.81,3.55-1.7,4.99-3c0.7-0.63,1.59-1.66,0.85-2.58
						C140.21,143.77,138.66,144.32,138.99,144.72L138.99,144.72z"/>
				</g>
			</g>
			<g>
				<g>
					<path class="st2" d="M138.47,148.27c0.46,0.69-0.15,1.42-0.65,1.88c-1.06,1-2.41,1.69-3.7,2.32c-4.24,2.07-8.83,3.46-13.4,4.57
						c-5.34,1.3-10.85,2.17-16.36,2.22c-6.39,0.06-12.83-0.91-18.96-2.68c-2.59-0.75-5.14-1.65-7.58-2.8
						c-0.86-0.41-1.71-0.84-2.53-1.34c-0.3-0.18-2.64-1.66-1.69-1.98c0.16-0.06,0.63-0.22,0.49-0.44c-0.13-0.2-0.9,0.06-1.04,0.1
						c-0.75,0.25-1.72,0.73-1.01,1.57c0.69,0.8,1.75,1.34,2.67,1.84c1.98,1.08,4.09,1.92,6.21,2.66c6.26,2.18,12.9,3.38,19.52,3.66
						c6.05,0.26,12.1-0.51,18.01-1.79c5.25-1.14,10.49-2.65,15.41-4.85c1.79-0.8,3.63-1.68,5.14-2.95c0.63-0.53,1.69-1.54,1.09-2.43
						C139.83,147.45,138.35,148.09,138.47,148.27L138.47,148.27z"/>
				</g>
			</g>
			<g>
				<g>
					<path class="st3" d="M138.01,151.9c0.04,0.07,0.07,0.15,0.09,0.22c0.01,0.04,0.02,0.22,0.02,0.11c0,0.19-0.05,0.3-0.09,0.38
						c-0.2,0.41-0.44,0.63-0.83,0.96c-1.03,0.89-2.47,1.62-3.76,2.22c-4.23,1.98-8.76,3.34-13.29,4.42
						c-5.24,1.25-10.64,2.11-16.04,2.14c-6.24,0.04-12.53-0.92-18.51-2.67c-2.53-0.74-5.02-1.62-7.4-2.75
						c-0.86-0.4-1.71-0.84-2.53-1.34c-0.55-0.33-1.11-0.67-1.57-1.12c-0.09-0.09-0.39-0.34-0.35-0.5c0.01-0.03-0.03-0.01-0.03-0.01
						c0,0.02,0.19-0.07,0.21-0.08c0.26-0.1,0.63-0.42,0.41-0.71c-0.22-0.31-0.81-0.15-1.08-0.05c-0.93,0.34-1.54,1.07-0.77,1.91
						c0.71,0.78,1.75,1.33,2.67,1.84c1.96,1.08,4.05,1.93,6.16,2.68c6.1,2.17,12.57,3.38,19.03,3.71c5.94,0.3,11.87-0.4,17.68-1.63
						c5.14-1.08,10.28-2.55,15.1-4.66c1.81-0.79,3.66-1.68,5.2-2.93c0.67-0.55,1.81-1.62,1.29-2.6
						C139.31,150.86,137.74,151.37,138.01,151.9L138.01,151.9z"/>
				</g>
			</g>
			<g>
				<g>
					<path class="st4" d="M137.55,155.52c0.29,0.74-0.49,1.43-1,1.85c-1.13,0.93-2.5,1.6-3.82,2.21c-4.2,1.93-8.71,3.25-13.21,4.29
						c-5.08,1.17-10.32,1.96-15.55,1.93c-6.16-0.04-12.36-1.04-18.26-2.82c-2.46-0.75-4.88-1.63-7.2-2.75
						c-0.85-0.41-1.68-0.85-2.48-1.34c-0.55-0.34-1.14-0.7-1.59-1.17c-0.13-0.14-0.34-0.34-0.35-0.55c-0.01-0.13,0.1-0.28,0.05-0.27
						c0.16-0.06,0.64-0.21,0.48-0.44c-0.13-0.2-0.9,0.05-1.04,0.1c-0.86,0.34-1.51,0.83-0.72,1.65c0.71,0.75,1.7,1.29,2.6,1.78
						c1.88,1.04,3.88,1.87,5.9,2.6c5.99,2.17,12.34,3.39,18.7,3.75c5.77,0.32,11.54-0.32,17.19-1.48c5.16-1.06,10.3-2.5,15.17-4.55
						c1.83-0.77,3.68-1.63,5.27-2.83c0.65-0.49,1.85-1.43,1.47-2.4C139.02,154.72,137.43,155.23,137.55,155.52L137.55,155.52z"/>
				</g>
			</g>
			<g>
				<g>
					<path class="st5" d="M137.08,159.15c0.18,0.71-0.65,1.36-1.19,1.77c-1.18,0.89-2.55,1.54-3.89,2.13
						c-4.24,1.86-8.74,3.15-13.25,4.16c-4.96,1.1-10.06,1.85-15.15,1.77c-6.03-0.09-12.11-1.1-17.87-2.89
						c-2.38-0.74-4.73-1.62-6.97-2.71c-0.82-0.4-1.63-0.83-2.4-1.32c-0.55-0.35-1.14-0.71-1.59-1.19c-0.04-0.04-0.48-0.58-0.33-0.65
						c0.18-0.08,0.66-0.3,0.45-0.57c-0.19-0.24-0.85-0.06-1.06,0.03c-0.82,0.36-1.35,0.9-0.67,1.69c0.67,0.78,1.69,1.32,2.58,1.82
						c1.85,1.05,3.81,1.89,5.8,2.63c5.77,2.14,11.89,3.38,18.02,3.81c5.77,0.4,11.5-0.16,17.16-1.29
						c5.06-1.01,10.09-2.37,14.87-4.33c1.85-0.76,3.73-1.61,5.36-2.77c0.72-0.52,2.01-1.46,1.75-2.52
						C138.58,158.24,136.96,158.66,137.08,159.15L137.08,159.15z"/>
				</g>
			</g>
			<g>
				<g>
					<path class="st6" d="M136.62,162.78c0.09,0.76-0.83,1.41-1.36,1.79c-1.23,0.87-2.62,1.53-4.01,2.11
						c-4.21,1.79-8.66,3.05-13.14,4c-4.82,1.03-9.79,1.75-14.73,1.6c-5.94-0.17-11.86-1.17-17.53-2.98
						c-2.34-0.75-4.65-1.63-6.85-2.73c-0.78-0.39-1.54-0.81-2.28-1.27c-0.18-0.11-2.51-1.67-1.85-1.99
						c0.22-0.11,0.47-0.31,0.18-0.47c-0.28-0.16-0.88,0.07-1.13,0.19c-0.9,0.44-0.92,1.05-0.23,1.71c0.72,0.69,1.64,1.22,2.51,1.71
						c1.82,1.03,3.76,1.86,5.71,2.59c5.62,2.1,11.59,3.34,17.57,3.78c5.61,0.42,11.2-0.1,16.71-1.17c4.98-0.96,9.94-2.28,14.65-4.15
						c1.87-0.75,3.76-1.57,5.43-2.69c0.76-0.51,2.07-1.39,1.95-2.46C138.2,161.98,136.57,162.31,136.62,162.78L136.62,162.78z"/>
				</g>
			</g>
			<g>
				<g>
					<path class="st7" d="M136.15,166.26c-0.01,0.32-0.12,0.46-0.34,0.71c-0.31,0.35-0.63,0.58-1.09,0.89
						c-1.27,0.85-2.7,1.49-4.12,2.08c-4.16,1.72-8.56,2.92-12.96,3.85c-4.67,0.98-9.51,1.68-14.3,1.53
						c-5.85-0.18-11.7-1.16-17.27-2.96c-2.28-0.73-4.54-1.6-6.68-2.67c-0.78-0.39-1.54-0.8-2.27-1.27
						c-0.52-0.33-1.06-0.66-1.51-1.09c-0.16-0.15-0.27-0.35-0.42-0.51c-0.13-0.13,0.08-0.11-0.14,0.01c0.97-0.53,0.09-1.35-0.7-0.91
						c-2.27,1.24,0.98,3.1,2.1,3.76c1.76,1.03,3.63,1.87,5.52,2.61c5.5,2.15,11.37,3.43,17.25,3.95c5.51,0.48,10.95,0.05,16.38-0.93
						c4.94-0.9,9.84-2.18,14.53-3.99c1.87-0.72,3.75-1.53,5.44-2.61c0.85-0.55,2.2-1.44,2.23-2.59
						C137.81,165.3,136.17,165.55,136.15,166.26L136.15,166.26z"/>
				</g>
			</g>
			<g>
				<g>
					<path class="st8" d="M135.7,169.93c-0.12,0.76-0.97,1.31-1.62,1.72c-1.33,0.85-2.8,1.49-4.27,2.06
						c-4.11,1.63-8.44,2.79-12.77,3.66c-4.67,0.93-9.44,1.55-14.21,1.33c-5.64-0.25-11.28-1.28-16.64-3.06
						c-2.22-0.74-4.41-1.61-6.5-2.67c-0.76-0.39-1.51-0.8-2.22-1.26c-0.53-0.34-1.07-0.7-1.52-1.14c-0.16-0.15-0.38-0.35-0.44-0.57
						c-0.04-0.15,0.03-0.27-0.07-0.21c0.23-0.14,0.46-0.37,0.16-0.56c-0.28-0.18-0.89,0.02-1.14,0.17c-1.89,1.18,1.48,2.93,2.45,3.5
						c1.72,1.01,3.55,1.83,5.41,2.55c5.31,2.07,10.95,3.34,16.62,3.86c5.33,0.49,10.6,0.15,15.88-0.78
						c4.93-0.87,9.82-2.1,14.52-3.84c1.89-0.7,3.79-1.48,5.51-2.53c0.87-0.53,2.28-1.35,2.46-2.46
						C137.4,169.15,135.78,169.43,135.7,169.93L135.7,169.93z"/>
				</g>
			</g>
			<g>
				<g>
					<path class="st9" d="M135.25,173.59c-0.25,0.84-1.19,1.4-1.89,1.82c-1.35,0.82-2.83,1.44-4.31,2c-4.11,1.56-8.4,2.68-12.71,3.5
						c-4.64,0.88-9.35,1.39-14.08,1.1c-5.54-0.34-11.08-1.42-16.31-3.27c-2.1-0.74-4.17-1.6-6.14-2.65
						c-0.64-0.34-4.79-2.66-3.84-3.35c0.3-0.22-0.27-0.24-0.37-0.23c-0.37,0.03-0.78,0.16-1.09,0.38c-1.33,0.96,2.21,2.87,2.93,3.28
						c1.7,0.97,3.5,1.79,5.32,2.5c5.22,2.04,10.75,3.29,16.32,3.81c5.16,0.48,10.25,0.15,15.35-0.72c4.82-0.82,9.6-2.01,14.2-3.66
						c1.92-0.69,3.84-1.45,5.61-2.46c0.9-0.52,2.27-1.26,2.6-2.34C136.92,173.02,135.37,173.2,135.25,173.59L135.25,173.59z"/>
				</g>
			</g>
			<g>
				<g>
					<path class="st10" d="M134.81,177c-0.12,0.28-0.4,0.57-0.61,0.75c-0.4,0.33-0.86,0.63-1.3,0.88c-1.41,0.81-2.93,1.42-4.45,1.99
						c-4.08,1.51-8.34,2.58-12.61,3.38c-4.42,0.83-8.92,1.32-13.42,1.06c-5.4-0.32-10.78-1.35-15.9-3.12
						c-2.11-0.72-4.17-1.57-6.15-2.6c-0.75-0.39-1.48-0.81-2.19-1.27c-0.52-0.34-1.06-0.69-1.51-1.12
						c-0.16-0.15-0.28-0.36-0.44-0.51c-0.16-0.15,0.03-0.29-0.21-0.08c0.83-0.72-0.47-1.17-1.06-0.67c-1.58,1.38,1.66,3.1,2.67,3.7
						c1.62,0.97,3.35,1.78,5.1,2.5c5.05,2.08,10.44,3.37,15.85,3.98c5.1,0.58,10.12,0.37,15.19-0.44c4.71-0.76,9.38-1.86,13.89-3.41
						c1.96-0.67,3.92-1.41,5.75-2.41c1.05-0.57,2.42-1.31,2.93-2.46C136.71,176.33,135.08,176.38,134.81,177L134.81,177z"/>
				</g>
			</g>
			<g>
				<g>
					<path class="st11" d="M134.35,180.62c-0.09,0.15,0.03-0.02-0.09,0.13c-0.06,0.07-0.12,0.14-0.18,0.21
						c-0.17,0.19-0.21,0.21-0.46,0.4c-0.46,0.35-0.92,0.63-1.42,0.89c-1.45,0.77-2.99,1.38-4.53,1.92
						c-4.08,1.43-8.31,2.47-12.57,3.22c-4.37,0.77-8.77,1.17-13.2,0.85c-5.27-0.38-10.51-1.45-15.48-3.24
						c-2.01-0.72-3.98-1.55-5.85-2.56c-0.71-0.38-1.41-0.79-2.09-1.23c-0.53-0.35-1.07-0.71-1.53-1.16
						c-0.15-0.15-0.27-0.33-0.41-0.48c-0.11-0.13,0.01-0.21-0.1-0.1c0.26-0.28,0.13-0.62-0.2-0.75c-0.37-0.14-0.88,0.02-1.14,0.31
						c-1.79,1.94,6.67,5.56,7.9,6.08c4.88,2.05,10.1,3.34,15.35,3.98c4.96,0.61,9.84,0.48,14.77-0.27
						c4.67-0.71,9.32-1.77,13.81-3.25c1.98-0.65,3.97-1.38,5.82-2.34c1.13-0.59,2.47-1.31,3.14-2.45c0.2-0.35-0.18-0.61-0.48-0.64
						C135.02,180.08,134.55,180.27,134.35,180.62L134.35,180.62z"/>
				</g>
			</g>
			<g>
				<g>
					<path class="st12" d="M133.9,184.3c-0.51,0.7-1.51,1.25-2.37,1.68c-1.47,0.74-3.02,1.33-4.58,1.85
						c-4.05,1.36-8.23,2.36-12.44,3.05c-4.28,0.71-8.55,1.04-12.88,0.67c-5.1-0.42-10.19-1.51-14.99-3.28
						c-1.96-0.72-3.9-1.57-5.74-2.57c-0.71-0.39-1.41-0.8-2.08-1.25c-0.26-0.17-2.33-1.53-2.02-1.98c0.22-0.32-0.19-0.48-0.44-0.49
						c-0.36-0.02-0.85,0.13-1.07,0.45c-0.46,0.67,0.43,1.43,0.89,1.82c0.71,0.6,1.5,1.12,2.3,1.6c1.56,0.94,3.2,1.73,4.88,2.43
						c4.77,2,9.84,3.29,14.96,3.93c2.6,0.33,5.23,0.54,7.85,0.44c2.2-0.08,4.39-0.3,6.58-0.61c4.56-0.66,9.09-1.67,13.47-3.07
						c1.99-0.63,3.98-1.33,5.85-2.26c1.19-0.59,2.54-1.27,3.34-2.38c0.23-0.32-0.19-0.48-0.44-0.5
						C134.6,183.83,134.12,183.99,133.9,184.3L133.9,184.3z"/>
				</g>
			</g>
			<g>
				<g>
					<path class="st13" d="M133.53,187.74c-0.63,0.74-1.66,1.27-2.61,1.72c-1.5,0.72-3.07,1.29-4.65,1.8
						c-4.01,1.3-8.15,2.25-12.31,2.9c-4.2,0.66-8.36,0.92-12.61,0.53c-4.97-0.46-9.88-1.55-14.56-3.3
						c-1.94-0.72-3.84-1.57-5.64-2.57c-0.68-0.38-1.35-0.78-2-1.22c-0.51-0.35-1.03-0.71-1.47-1.14c-0.16-0.15-0.33-0.32-0.44-0.51
						c-0.06-0.09-0.11-0.28-0.14-0.22c0.37-0.8-1.26-0.73-1.54-0.14c-0.35,0.75,0.49,1.44,0.99,1.88c0.7,0.61,1.47,1.13,2.26,1.61
						c1.52,0.93,3.12,1.71,4.76,2.42c4.58,1.98,9.46,3.26,14.39,3.96c4.73,0.67,9.4,0.68,14.13,0.05c4.48-0.6,8.93-1.55,13.25-2.85
						c2.02-0.61,4.04-1.29,5.96-2.17c1.26-0.58,2.66-1.26,3.58-2.33C135.52,187.4,133.96,187.23,133.53,187.74L133.53,187.74z"/>
				</g>
			</g>
			<g>
				<g>
					<path class="st14" d="M133.06,191.37c-0.82,0.82-2.17,1.43-3.33,1.93c-1.84,0.79-3.75,1.4-5.66,1.94
						c-4.44,1.26-9.01,2.18-13.59,2.66c-4.93,0.52-9.87,0.17-14.74-0.8c-4.49-0.9-8.95-2.32-13.03-4.41
						c-1.42-0.73-2.83-1.54-4.09-2.53c-0.36-0.29-0.68-0.55-0.98-0.92c-0.08-0.1-0.23-0.34-0.18-0.26
						c-0.03-0.04-0.05-0.11-0.05-0.16c0-0.01-0.03,0.13,0.02-0.01c0.12-0.39-0.49-0.5-0.73-0.48c-0.39,0.03-0.78,0.24-0.9,0.63
						c-0.19,0.6,0.63,1.28,1.01,1.61c1.01,0.9,2.16,1.63,3.34,2.29c3.95,2.24,8.31,3.79,12.72,4.84c5.17,1.23,10.56,1.86,15.88,1.45
						c4.83-0.38,9.66-1.29,14.34-2.54c2.38-0.63,4.74-1.36,7.02-2.3c1.52-0.63,3.16-1.36,4.33-2.54c0.27-0.27,0.13-0.61-0.19-0.72
						C133.83,190.92,133.34,191.1,133.06,191.37L133.06,191.37z"/>
				</g>
			</g>
		</g>
		<g>
			<g>
				<g>
					<path class="st15" d="M139.97,147.45c0.06,0.07,0.1,0.15,0.15,0.22c0.02,0.04-0.02-0.13,0.01,0.06
						c0.02,0.11,0.01,0.18-0.02,0.23c-0.04,0.1-0.08,0.2-0.12,0.3c0.09-0.2-0.04,0.06-0.08,0.12c-0.08,0.11-0.15,0.21-0.23,0.32
						c-0.03,0.03-0.11,0.13,0.01-0.01c-0.07,0.08-0.13,0.15-0.2,0.22c-1.08,1.13-2.33,1.89-3.7,2.68
						c-4.32,2.47-9.09,4.19-13.88,5.53c-5.53,1.54-11.3,2.54-17.06,2.44c-6.58-0.11-13.14-1.77-19.28-4.06
						c-2.73-1.02-5.41-2.18-8-3.51c-0.9-0.46-1.8-0.95-2.67-1.47c-0.53-0.32-1.07-0.65-1.54-1.07c-0.07-0.06-0.36-0.35-0.31-0.36
						c0.11-0.01-0.16,0.48-0.18,0.42c-0.01-0.03,0.31-0.12,0.34-0.13c1.02-0.32,0.81-1.82-0.31-1.47c-1.03,0.32-2.07,1.22-1.25,2.31
						c0.68,0.91,1.85,1.47,2.82,2.04c2.06,1.19,4.22,2.22,6.39,3.16c6.26,2.7,12.93,4.74,19.73,5.45
						c6.49,0.67,13.02-0.13,19.33-1.68c5.39-1.33,10.76-3.18,15.67-5.81c1.77-0.94,3.63-2.02,5.02-3.49
						c0.79-0.83,1.79-2.26,0.9-3.37C140.91,145.78,139.37,146.7,139.97,147.45L139.97,147.45z"/>
				</g>
			</g>
			<g>
				<g>
					<path class="st16" d="M139.6,150.2c0.04,0.05,0.09,0.16,0.1,0.27c0.02,0.18-0.02,0.35-0.08,0.52
						c-0.16,0.45-0.49,0.84-0.82,1.18c-1.07,1.13-2.43,1.98-3.77,2.75c-4.28,2.45-9.01,4.18-13.75,5.5
						c-5.6,1.56-11.45,2.56-17.28,2.43c-6.53-0.14-13-1.72-19.09-4.02c-2.64-1-5.25-2.12-7.76-3.43c-0.87-0.45-1.73-0.93-2.57-1.45
						c-0.19-0.12-0.39-0.24-0.58-0.37c-0.14-0.1-0.63-0.36-0.69-0.56c-0.11-0.35,0.38-0.49,0.63-0.58c0.4-0.14-0.81-1.33-1.3-1.16
						c-2.55,0.85,1.62,3.29,2.57,3.84c2.02,1.18,4.14,2.21,6.28,3.15c6.04,2.65,12.47,4.63,19.03,5.42
						c6.38,0.77,12.82,0.11,19.06-1.35c5.35-1.25,10.68-3.04,15.55-5.61c1.74-0.92,3.55-1.94,4.96-3.34
						c0.75-0.74,1.54-1.81,0.81-2.84c-0.23-0.33-0.63-0.66-1.03-0.75C139.57,149.74,139.39,149.9,139.6,150.2L139.6,150.2z"/>
				</g>
			</g>
			<g>
				<g>
					<path class="st17" d="M139.07,153.89c0.13,0.21,0.01-0.06,0.04,0.07c0.05,0.21,0.02-0.1,0.01,0.1
						c-0.01,0.17,0.01,0.06-0.01,0.11c-0.03,0.1-0.06,0.2-0.1,0.3c-0.07,0.18-0.11,0.22-0.26,0.43c-0.16,0.22-0.35,0.43-0.54,0.63
						c-1.08,1.1-2.46,1.93-3.8,2.69c-4.26,2.41-8.96,4.09-13.67,5.36c-5.6,1.5-11.46,2.42-17.27,2.18
						c-6.28-0.26-12.48-1.81-18.34-4.03c-2.53-0.96-5.02-2.06-7.41-3.32c-0.86-0.45-1.71-0.93-2.55-1.44
						c-0.48-0.3-1.02-0.6-1.4-1.01c-0.03-0.04-0.1-0.1-0.11-0.1c-0.07-0.13-0.07-0.11-0.01,0.07c0,0.02-0.01,0.04-0.02,0.05
						c0.06-0.01,0.34-0.18,0.45-0.23c0.42-0.15,0.19-0.76,0.01-1c-0.27-0.34-0.71-0.52-1.13-0.37c-1.12,0.4-1.08,1.37-0.37,2.19
						c0.73,0.84,1.79,1.42,2.74,1.99c1.91,1.14,3.92,2.12,5.96,3.02c5.93,2.62,12.24,4.57,18.69,5.37
						c6.36,0.79,12.8,0.17,19.03-1.26c5.34-1.23,10.66-3,15.52-5.56c1.76-0.92,3.56-1.97,4.98-3.38c0.8-0.79,1.6-1.97,0.92-3.09
						c-0.21-0.35-0.65-0.71-1.09-0.61C138.97,153.1,138.87,153.56,139.07,153.89L139.07,153.89z"/>
				</g>
			</g>
			<g>
				<g>
					<path class="st18" d="M138.44,157.32c0.04,0.08,0.11,0.24,0.04,0.07c0.03,0.07,0.03,0.15,0.02,0.22
						c0.01-0.22-0.01,0.04-0.03,0.1c-0.02,0.05-0.03,0.1-0.05,0.15c-0.05,0.17,0.07-0.14-0.01,0.03c-0.22,0.47-0.5,0.78-0.84,1.1
						c-1.13,1.1-2.51,1.94-3.87,2.7c-4.32,2.39-9.06,4.06-13.83,5.27c-5.64,1.43-11.51,2.23-17.34,1.86
						c-5.99-0.38-11.92-1.92-17.49-4.1c-2.41-0.94-4.77-2.01-7.05-3.24c-0.76-0.41-1.51-0.83-2.21-1.28
						c-0.51-0.33-1.09-0.65-1.5-1.1c-0.01-0.01-0.13-0.17-0.16-0.19c-0.08-0.03-0.03-0.14-0.03,0.01c0,0.02-0.03,0.08-0.05,0.08
						c0.06-0.01,0.18-0.1,0.27-0.13c0.41-0.16,0.46-0.65,0.22-0.97c-0.29-0.37-0.83-0.44-1.24-0.28c-0.98,0.38-1.24,1.26-0.56,2.08
						c0.68,0.82,1.68,1.38,2.59,1.92c1.85,1.12,3.8,2.1,5.77,2.99c5.63,2.53,11.62,4.41,17.74,5.26c6.43,0.89,12.93,0.43,19.26-0.95
						c5.36-1.16,10.71-2.9,15.6-5.42c1.81-0.93,3.69-1.99,5.17-3.4c0.78-0.75,1.82-1.95,1.23-3.11
						C139.72,156.18,137.97,156.38,138.44,157.32L138.44,157.32z"/>
				</g>
			</g>
			<g>
				<g>
					<path class="st19" d="M137.98,160.83c0.01,0.02,0.01-0.12,0,0.06c0,0.05,0.04-0.15-0.01,0.07c-0.05,0.23,0.01,0.02-0.02,0.09
						c-0.04,0.1-0.08,0.19-0.13,0.29c-0.02,0.05-0.05,0.09-0.08,0.14c0.08-0.14,0.03-0.04,0.01-0.01c-0.07,0.1-0.14,0.19-0.21,0.29
						c-0.19,0.23-0.4,0.45-0.63,0.66c-1.06,1-2.52,1.87-3.85,2.6c-4.27,2.34-8.98,3.95-13.69,5.12c-5.68,1.41-11.63,2.12-17.48,1.65
						c-5.75-0.46-11.38-1.94-16.74-4.05c-2.27-0.89-4.5-1.89-6.64-3.06c-0.79-0.43-1.57-0.88-2.32-1.36
						c-0.47-0.3-0.95-0.6-1.37-0.98c-0.09-0.08-0.35-0.37-0.35-0.36c0.05-0.02-0.29,0.3-0.02,0.18c1.07-0.46,0.23-1.87-0.74-1.45
						c-0.98,0.42-1.35,1.3-0.66,2.18c0.64,0.83,1.63,1.4,2.51,1.94c1.76,1.09,3.61,2.03,5.49,2.89c5.4,2.49,11.17,4.3,17.05,5.21
						c6.43,0.99,12.98,0.61,19.33-0.72c5.42-1.13,10.78-2.84,15.71-5.37c1.82-0.93,3.64-1.98,5.15-3.38
						c0.87-0.81,1.83-1.97,1.33-3.23C139.24,159.3,137.56,159.8,137.98,160.83L137.98,160.83z"/>
				</g>
			</g>
			<g>
				<g>
					<path class="st20" d="M137.44,164.15c0.22,0.77-0.58,1.56-1.09,2.04c-1.14,1.07-2.53,1.89-3.89,2.63
						c-4.25,2.31-8.93,3.88-13.63,4.99c-5.73,1.35-11.7,1.94-17.57,1.34c-5.6-0.57-11.09-2.08-16.29-4.2
						c-2.16-0.88-4.28-1.87-6.31-3.01c-0.71-0.4-1.42-0.82-2.1-1.28c-0.2-0.13-2.28-1.58-1.71-1.85c0.26-0.12,0.48-0.38,0.18-0.57
						c-0.32-0.19-0.93,0.07-1.22,0.2c-2.16,1.03,1.04,2.81,2,3.4c1.71,1.06,3.52,1.97,5.35,2.81c5.22,2.39,10.77,4.12,16.44,4.99
						c6.35,0.97,12.81,0.62,19.1-0.64c5.42-1.09,10.78-2.78,15.73-5.27c1.82-0.92,3.67-1.95,5.2-3.32c0.69-0.62,1.86-1.69,1.55-2.76
						C139.03,163.18,137.3,163.66,137.44,164.15L137.44,164.15z"/>
				</g>
			</g>
			<g>
				<g>
					<path class="st21" d="M137.18,166.71c0.15,0.82-0.65,1.6-1.18,2.1c-1.11,1.05-2.44,1.87-3.77,2.62c-4.1,2.3-8.63,3.87-13.19,5
						c-5.75,1.42-11.76,2.12-17.68,1.67c-5.61-0.42-11.14-1.81-16.37-3.85c-2.24-0.88-4.44-1.87-6.55-3.03
						c-0.77-0.42-1.53-0.86-2.27-1.34c-0.46-0.3-0.92-0.61-1.35-0.96c-0.13-0.11,0.05,0.05,0.05,0.08c0.01-0.06-0.06-0.14-0.02-0.2
						c0.1-0.15,0.17-0.23,0.34-0.33c0.14-0.08-0.87-1.5-1.25-1.3c-1.62,0.86,2.37,3.51,3.02,3.92c1.6,1.02,3.29,1.91,5,2.73
						c5,2.37,10.34,4.1,15.8,5.03c6.25,1.06,12.6,0.84,18.82-0.32c5.19-0.97,10.34-2.54,15.09-4.87c1.8-0.88,3.6-1.87,5.13-3.17
						c0.68-0.58,1.83-1.57,1.64-2.6c-0.07-0.35-0.41-0.67-0.66-0.9C137.75,166.94,137.14,166.49,137.18,166.71L137.18,166.71z"/>
				</g>
			</g>
			<g>
				<g>
					<path class="st22" d="M136.53,171.04c0,0.03,0,0.15-0.06,0.34c0.05-0.14-0.01,0.03-0.04,0.08c-0.03,0.05-0.19,0.33-0.1,0.19
						c-0.32,0.47-0.47,0.61-0.9,0.99c-1.06,0.95-2.38,1.75-3.69,2.46c-4.02,2.17-8.44,3.65-12.89,4.68
						c-5.62,1.31-11.5,1.9-17.26,1.37c-5.43-0.49-10.8-1.87-15.85-3.91c-2.16-0.87-4.28-1.86-6.31-3.01
						c-0.74-0.42-1.47-0.86-2.17-1.33c-0.47-0.32-0.95-0.65-1.38-1.04c-0.18-0.16-0.3-0.39-0.47-0.55c0.03,0.03-0.04-0.1-0.06-0.11
						c-0.01-0.08-0.02-0.1-0.01-0.06c-0.35,0.35-0.43,0.45-0.22,0.32c0.26-0.16,0.68-0.6,0.47-0.93c-0.22-0.34-0.79-0.11-1.04,0.05
						c-2.22,1.34,0.86,3.16,2.02,3.89c1.65,1.05,3.38,1.94,5.15,2.76c5.08,2.35,10.51,4.05,16.05,4.87
						c6.24,0.92,12.59,0.59,18.77-0.63c5.09-1.01,10.17-2.6,14.79-4.98c1.75-0.9,3.5-1.9,4.99-3.21c0.81-0.71,1.92-1.78,1.83-2.96
						C138.08,169.58,136.48,170.35,136.53,171.04L136.53,171.04z"/>
				</g>
			</g>
			<g>
				<g>
					<path class="st23" d="M136.04,173.78c-0.01,0.07-0.02,0.14-0.03,0.21c-0.03,0.2,0.06-0.11-0.03,0.09
						c-0.08,0.17-0.17,0.34-0.28,0.5c-0.01,0.01-0.18,0.24-0.32,0.38c-0.18,0.2-0.38,0.39-0.59,0.58c-1.07,0.97-2.32,1.74-3.59,2.43
						c-3.92,2.16-8.23,3.65-12.57,4.67c-5.57,1.32-11.38,1.93-17.1,1.48c-5.37-0.42-10.65-1.74-15.66-3.72
						c-2.13-0.84-4.22-1.8-6.22-2.92c-0.76-0.42-1.5-0.87-2.22-1.35c-0.45-0.3-0.9-0.61-1.31-0.96c-0.14-0.12-0.29-0.37-0.44-0.45
						c-0.26-0.14,0.03-0.09-0.04-0.03c-0.05,0.05-0.01,0.21-0.11,0.29c0.83-0.59-0.19-2.04-0.94-1.51
						c-2.88,2.03,6.26,6.37,7.61,7.01c4.96,2.34,10.27,3.99,15.69,4.84c6.12,0.95,12.39,0.69,18.47-0.44
						c5-0.93,9.97-2.45,14.52-4.73c1.71-0.86,3.42-1.84,4.89-3.08c0.77-0.65,1.81-1.61,1.86-2.7c0.02-0.46-0.22-0.9-0.68-1.06
						C136.62,173.18,136.06,173.32,136.04,173.78L136.04,173.78z"/>
				</g>
			</g>
			<g>
				<g>
					<path class="st24" d="M135.68,177c-0.03,0.2-0.2,0.53-0.42,0.83c-0.27,0.36-0.61,0.69-0.95,0.99
						c-1.08,0.95-2.32,1.73-3.57,2.42c-3.79,2.11-7.97,3.54-12.18,4.54c-5.5,1.31-11.26,1.91-16.91,1.52
						c-5.37-0.38-10.67-1.65-15.68-3.62c-2.13-0.84-4.23-1.8-6.22-2.92c-0.76-0.43-1.5-0.88-2.22-1.37
						c-0.45-0.31-0.9-0.62-1.31-0.98c-0.04-0.03-0.44-0.46-0.44-0.46c0.09-0.05-0.06,0.33,0.1,0.19c0.55-0.46-0.56-1.88-1.1-1.43
						c-0.75,0.63,0.01,1.7,0.49,2.24c0.7,0.77,1.58,1.36,2.45,1.93c1.57,1.03,3.23,1.91,4.91,2.71c4.83,2.31,10.02,3.93,15.31,4.77
						c6.11,0.96,12.4,0.72,18.47-0.41c4.83-0.89,9.6-2.35,14-4.54c1.65-0.82,3.28-1.75,4.7-2.93c0.78-0.65,1.74-1.51,1.91-2.57
						C137.14,177.27,135.82,176.11,135.68,177L135.68,177z"/>
				</g>
			</g>
			<g>
				<g>
					<path class="st25" d="M135.29,180.19c-0.21,0.78-0.94,1.43-1.52,1.94c-1.03,0.9-2.19,1.64-3.38,2.31
						c-3.63,2.05-7.64,3.45-11.68,4.43c-5.45,1.33-11.16,1.94-16.77,1.61c-5.34-0.31-10.63-1.52-15.63-3.43
						c-2.18-0.83-4.31-1.8-6.34-2.94c-0.79-0.44-1.56-0.9-2.31-1.4c-0.4-0.27-0.81-0.55-1.18-0.85c-0.13-0.11-0.54-0.38-0.56-0.48
						c0.08,0.51,0.15,0.02,0.23-0.07c0.23-0.25-0.97-1.56-1.12-1.41c-0.54,0.57,0.58,1.72,0.92,2.1c0.71,0.77,1.57,1.39,2.43,1.98
						c1.51,1.02,3.12,1.89,4.76,2.68c4.73,2.29,9.81,3.89,15,4.71c5.98,0.94,12.11,0.71,18.06-0.35c4.71-0.84,9.39-2.22,13.69-4.35
						c1.61-0.8,3.2-1.7,4.61-2.84c0.76-0.62,1.67-1.39,1.94-2.37c0.07-0.27-0.43-0.78-0.59-0.95
						C135.8,180.46,135.36,179.97,135.29,180.19L135.29,180.19z"/>
				</g>
			</g>
			<g>
				<g>
					<path class="st26" d="M134.52,184.12c-0.29,0.72-0.89,1.27-1.52,1.81c-1.01,0.87-2.16,1.59-3.33,2.24
						c-3.5,1.95-7.37,3.28-11.26,4.18c-5.35,1.25-10.98,1.81-16.47,1.41c-5.2-0.37-10.35-1.59-15.18-3.55
						c-2.06-0.83-4.07-1.79-5.99-2.91c-0.68-0.4-1.36-0.82-2.01-1.28c-0.52-0.37-1.03-0.75-1.48-1.18
						c-0.17-0.16-0.35-0.33-0.47-0.54c-0.04-0.07-0.09-0.14-0.12-0.22c-0.03-0.09,0.05-0.17-0.05-0.04c0.52-0.73-1.2-0.97-1.57-0.45
						c-0.55,0.77,0.41,1.58,0.95,2.06c0.69,0.61,1.47,1.13,2.25,1.63c1.61,1.04,3.32,1.94,5.06,2.74c4.79,2.2,9.93,3.7,15.16,4.41
						c6.01,0.81,12.19,0.49,18.14-0.64c4.51-0.86,8.96-2.22,13.07-4.28c1.58-0.8,3.11-1.7,4.5-2.81c0.79-0.63,1.68-1.4,2.07-2.37
						C136.54,183.63,134.76,183.5,134.52,184.12L134.52,184.12z"/>
				</g>
			</g>
			<g>
				<g>
					<path class="st27" d="M134.3,186.93c-0.39,0.73-1.03,1.33-1.65,1.86c-1.01,0.86-2.13,1.58-3.28,2.23
						c-3.43,1.94-7.22,3.26-11.04,4.16c-10.5,2.5-21.61,2.09-31.7-1.83c-2.09-0.81-4.13-1.77-6.08-2.89c-0.7-0.41-1.4-0.83-2.07-1.3
						c-0.44-0.31-0.87-0.62-1.28-0.97c-0.17-0.14-0.58-0.35-0.45-0.6c0.18-0.38-1.08-1.59-1.27-1.19c-0.33,0.69,0.88,1.81,1.29,2.2
						c0.75,0.72,1.6,1.33,2.46,1.91c1.5,1.01,3.08,1.87,4.7,2.65c4.59,2.2,9.51,3.7,14.55,4.45c5.88,0.88,11.93,0.63,17.77-0.4
						c4.39-0.78,8.74-2.05,12.74-4.03c1.52-0.75,3.01-1.61,4.35-2.65c0.81-0.63,1.67-1.35,2.16-2.27
						C135.75,187.81,134.42,186.71,134.3,186.93L134.3,186.93z"/>
				</g>
			</g>
			<g>
				<g>
					<path class="st28" d="M133.92,190.27c-0.53,0.81-1.29,1.46-2.05,2.05c-1.18,0.92-2.48,1.7-3.82,2.39
						c-4.04,2.09-8.48,3.38-12.94,4.16c-10.95,1.9-22.41,0.76-32.37-4.36c-1.6-0.82-3.19-1.74-4.62-2.84
						c-0.26-0.2-0.51-0.4-0.76-0.62c-0.1-0.09-0.2-0.19-0.31-0.28c-0.18-0.17-0.05-0.05-0.16-0.17c-0.07-0.08-0.14-0.15-0.2-0.23
						c0.21,0.27-0.11-0.29,0.07,0.1c-0.09-0.21,0.1,0.29,0.08,0.19c0.04,0.15,0.05,0.17,0.02,0.27c0.11-0.36-0.13-0.8-0.33-1.08
						c-0.06-0.09-0.56-0.68-0.66-0.36c-0.29,0.92,0.75,2.01,1.34,2.58c1,0.97,2.19,1.78,3.37,2.51c3.95,2.45,8.39,4.17,12.9,5.31
						c6.17,1.56,12.53,1.79,18.85,1.09c5.14-0.57,10.27-1.76,14.99-3.9c1.75-0.8,3.46-1.72,5.01-2.87c0.95-0.7,1.92-1.5,2.57-2.5
						C135.17,191.31,134.18,189.87,133.92,190.27L133.92,190.27z"/>
				</g>
			</g>
		</g>
		<g>
			<path class="st29" d="M106.93,125.09c-24.36,0-43.55,9.35-43.55,20.46c0,11.11,18.19,21.9,42.55,21.9s45.12-11.13,45.12-22.24
				C151.04,134.1,131.29,125.09,106.93,125.09z M106.93,161.64c-21.13,0-38.25-7.6-38.25-16.97s17.13-16.97,38.25-16.97
				s38.25,7.6,38.25,16.97C145.18,154.04,128.06,161.64,106.93,161.64z"/>
			<path class="st30" d="M148.75,144.97c0,9.35-18.01,20.29-39.6,20.29s-43.32-7.58-43.32-16.93c0-9.35,14.83-22.98,36.42-22.98
				C136.82,125.35,148.75,135.62,148.75,144.97z"/>
			<path class="st0" d="M106.87,125.09c-23.87,0-43.47,8.34-43.47,18.93s18.63,21.47,42.49,21.47s44.2-10.62,44.2-21.22
				S130.74,125.09,106.87,125.09z M106.87,159.95c-20.7,0-37.48-7.25-37.48-16.19c0-8.94,16.78-16.19,37.48-16.19
				s37.48,7.25,37.48,16.19S127.57,159.95,106.87,159.95z"/>
		</g>
		<g>
			<path class="st29" d="M137.83,148.79c0.53-0.16,0.57-3.81,0.57-3.81s0.73-11.08-1.53-27.03c-2.85-20.11-13.21-25.77-13.21-25.77
				l0.16-44.54l-36.23,0.44l0.47,43.82c0,0-9.92,8.58-11.46,20.83c-1.54,12.24-6.28,27.89-4.53,35.24c0,0,6.09,10.61,34,11.28
				S137.83,148.79,137.83,148.79z"/>
			<ellipse class="st29" cx="105.74" cy="48.43" rx="18.3" ry="9.2"/>
			<path class="st29" d="M123.67,91.92c0,3.75-7.42,9.26-17.47,9.26s-18-5.51-18-9.26"/>
			<ellipse class="st0" cx="105.85" cy="48.43" rx="10.53" ry="5.44"/>
			<ellipse class="st0" cx="105.85" cy="41.15" rx="10.53" ry="5.44"/>
			<path class="st31" d="M95.32,41.34v7.09c0,0,0.25,5.94,11.23,5.57c10.98-0.37,9.84-5.57,9.84-5.57v-7.27
				c0,0-1.28,5.01-10.35,5.09C96.97,46.32,95.32,41.34,95.32,41.34z"/>
		</g>
		<g>
			<g>
				<g>
					<path class="st1" d="M134.99,111.18c-0.04-0.03-0.24-0.25-0.29-0.33c0.02,0.03-0.16-0.42-0.13-0.31c-0.14-0.5,0-0.07-0.02-0.09
						c0.01,0.01,0.03-0.14-0.01,0.01c-0.03,0.13-0.05,0.16-0.04,0.14c-0.15,0.37-0.4,0.69-0.65,1c-0.87,1.05-1.97,1.91-3.08,2.69
						c-3.7,2.63-7.98,4.48-12.33,5.75c-6.14,1.79-12.69,2.44-19.03,1.52c-5.54-0.8-11.03-2.59-15.92-5.35
						c-1.8-1.02-3.58-2.16-5.09-3.57c-0.26-0.24-0.56-0.54-0.68-0.68c-0.11-0.13-0.21-0.26-0.32-0.39
						c-0.04-0.05-0.08-0.11-0.12-0.16c-0.13-0.18,0.11,0.17,0-0.01c-0.05-0.08-0.29-0.42-0.1-0.16c-0.01-0.01-0.05-0.13-0.06-0.13
						c-0.04,0.01,0.05,0.13,0.02,0.05c-0.02-0.04-0.02-0.02,0.01-0.05c0.3-0.55-0.76-1.96-1.08-1.38c-0.54,0.97,0.44,2.29,1.04,3
						c1.17,1.38,2.65,2.5,4.15,3.5c4.72,3.15,10.2,5.25,15.74,6.41c3.49,0.73,7.04,1.1,10.6,0.92c3.39-0.17,6.76-0.67,10.05-1.51
						c4.88-1.25,9.7-3.19,13.85-6.09c1.23-0.86,2.45-1.82,3.42-2.98c0.63-0.75,1.14-1.64,0.6-2.6c-0.14-0.26-0.34-0.48-0.59-0.65
						c-0.32-0.21-0.57-0.02-0.57,0.33C134.35,110.49,134.66,110.96,134.99,111.18L134.99,111.18z"/>
				</g>
			</g>
			<g>
				<g>
					<path class="st32" d="M135.2,113.32c-0.2-0.14-0.4-0.36-0.45-0.44c-0.08-0.14-0.04,0.01-0.02-0.08
						c-0.03,0.13-0.03,0.26-0.07,0.39c-0.09,0.27-0.38,0.68-0.61,0.97c-0.84,1.05-1.92,1.92-3,2.7c-3.72,2.7-8.09,4.55-12.49,5.82
						c-6.17,1.78-12.71,2.45-19.09,1.58c-5.68-0.78-11.32-2.56-16.34-5.35c-1.75-0.97-3.72-2.24-5.05-3.49
						c-0.26-0.24-0.52-0.5-0.75-0.77c-0.02-0.02-0.06-0.07-0.17-0.21c-0.05-0.06-0.27-0.39-0.17-0.23c-0.06-0.1-0.12-0.21-0.17-0.32
						c0,0-0.01,0.02-0.04-0.13c-0.02-0.07-0.01-0.24,0.01-0.28c0.29-0.53-1.16-1.58-1.39-1.14c-0.48,0.89,0.6,2.06,1.13,2.66
						c1.23,1.38,2.79,2.51,4.34,3.52c4.87,3.16,10.47,5.29,16.14,6.46c3.55,0.73,7.15,1.11,10.77,0.93
						c3.38-0.16,6.76-0.64,10.05-1.44c4.97-1.21,9.85-3.16,14.07-6.07c1.25-0.86,2.49-1.82,3.46-2.99c0.47-0.57,1.1-1.4,0.71-2.17
						c-0.17-0.34-0.46-0.59-0.77-0.8c-0.19-0.14-0.7-0.36-0.8-0.02C134.42,112.75,134.99,113.17,135.2,113.32L135.2,113.32z"/>
				</g>
			</g>
			<g>
				<g>
					<path class="st33" d="M135.1,115.74c-0.23-0.18-0.14-0.12-0.09-0.07c-0.2-0.2-0.11-0.12-0.07-0.08c-0.14-0.14,0.04-0.08-0.01,0
						c-0.02,0.03,0.02-0.16-0.01,0.03c-0.04,0.21,0.02-0.01-0.01,0.09c-0.13,0.4-0.33,0.7-0.5,0.93c-0.82,1.08-1.91,1.97-3,2.77
						c-3.68,2.69-8.05,4.52-12.42,5.76c-6.28,1.78-12.96,2.46-19.43,1.55c-5.73-0.81-11.38-2.6-16.46-5.38
						c-1.86-1.02-3.77-2.21-5.29-3.61c-0.27-0.24-0.52-0.49-0.76-0.76c-0.24-0.27-0.25-0.26-0.47-0.61
						c-0.06-0.09-0.11-0.18-0.15-0.27c0.1,0.2-0.03-0.09-0.05-0.15c-0.02-0.06-0.03-0.07,0.02-0.16c0.39-0.73-1.26-1.46-1.65-0.71
						c-0.48,0.91,0.61,2.1,1.16,2.68c1.28,1.36,2.86,2.47,4.44,3.45c5.05,3.15,10.79,5.26,16.62,6.39
						c3.63,0.71,7.31,1.03,11.01,0.83c3.42-0.18,6.84-0.67,10.17-1.49c4.96-1.22,9.89-3.14,14.09-6.08
						c1.26-0.88,2.52-1.84,3.49-3.04c0.49-0.61,1.13-1.48,0.83-2.32c-0.1-0.29-0.31-0.49-0.55-0.68
						C135.22,114.21,134.16,115.02,135.1,115.74L135.1,115.74z"/>
				</g>
			</g>
			<g>
				<g>
					<path class="st34" d="M135.28,118.23c0.18,0.15-0.13-0.17-0.02-0.03c0.02,0.03-0.16-0.17-0.02-0.02
						c-0.28-0.32,0.11-0.05-0.02,0c-0.04,0.02,0.04-0.24,0-0.08c-0.01,0.05-0.02,0.1-0.03,0.14c-0.05,0.21-0.01,0.06-0.02,0.07
						c-0.03,0.07-0.06,0.14-0.09,0.21c-0.1,0.21-0.23,0.4-0.37,0.59c-0.11,0.16,0.03-0.02-0.14,0.18c-0.09,0.11-0.18,0.21-0.27,0.32
						c-0.21,0.23-0.42,0.45-0.65,0.66c-0.57,0.54-1.17,1.04-1.81,1.5c-3.64,2.69-8.01,4.5-12.35,5.73
						c-6.34,1.79-13.07,2.47-19.62,1.62c-5.92-0.77-11.79-2.61-17.06-5.43c-1.92-1.03-3.8-2.17-5.43-3.61
						c-0.3-0.26-0.58-0.54-0.86-0.82c-0.02-0.02-0.19-0.21-0.05-0.05c-0.05-0.05-0.09-0.1-0.13-0.16c-0.09-0.11-0.18-0.23-0.27-0.35
						c-0.05-0.07-0.23-0.42-0.12-0.17c-0.05-0.09-0.08-0.19-0.12-0.29c-0.04-0.09,0.05,0.06,0.02,0.06c-0.01,0-0.01-0.12-0.01-0.13
						c-0.04,0.43,0.01,0.09,0.01,0.09c-0.04-0.05-0.09,0.19-0.02,0.06c0.47-0.91-1.11-1.77-1.58-0.86
						c-0.55,1.06,0.52,2.24,1.19,2.94c1.3,1.37,2.92,2.46,4.53,3.45c5.15,3.16,11.02,5.27,16.95,6.38c3.69,0.7,7.41,1,11.17,0.79
						c3.45-0.19,6.89-0.68,10.26-1.5c4.97-1.22,9.93-3.12,14.14-6.07c1.27-0.89,2.53-1.86,3.5-3.08c0.57-0.71,1.25-1.7,0.87-2.65
						c-0.09-0.23-0.25-0.45-0.44-0.61C135.58,116.45,134.38,117.49,135.28,118.23L135.28,118.23z"/>
				</g>
			</g>
			<g>
				<g>
					<path class="st35" d="M135.32,120.36c0.17,0.15,0.22,0.37,0.19,0.54c-0.05,0.36-0.27,0.76-0.43,0.99
						c-0.71,1.07-1.73,1.93-2.74,2.69c-3.65,2.77-8.03,4.58-12.42,5.82c-6.39,1.81-13.22,2.45-19.82,1.58
						c-6.06-0.8-12.05-2.68-17.46-5.55c-1.97-1.05-3.93-2.22-5.61-3.7c-0.51-0.45-1.03-0.94-1.41-1.52
						c-0.19-0.29-0.35-0.64-0.23-0.87c0.17-0.35-0.55-0.39-0.71-0.38c-0.35,0.02-0.86,0.14-1.03,0.49c-0.4,0.8,0.73,1.87,1.21,2.34
						c1.38,1.35,3.04,2.44,4.69,3.42c5.32,3.14,11.34,5.21,17.41,6.27c7.15,1.25,14.48,0.87,21.52-0.86
						c5.04-1.23,10.06-3.12,14.34-6.09c1.27-0.88,2.54-1.87,3.52-3.09c0.45-0.56,1.14-1.48,0.88-2.26
						c-0.05-0.15-0.14-0.28-0.26-0.38c-0.3-0.26-0.8-0.19-1.14-0.08C135.69,119.8,135.03,120.11,135.32,120.36L135.32,120.36z"/>
				</g>
			</g>
			<g>
				<g>
					<path class="st36" d="M135.83,122.76c0.01,0.01,0.06,0.07,0.07,0.07c-0.43,0.01,0.01-0.18-0.06-0.06
						c-0.04,0.07-0.03-0.13,0.01,0.03c0.03,0.14,0.02-0.14,0.01,0.06c0,0.08-0.01,0.16-0.02,0.24c-0.02,0.14,0.03-0.07-0.03,0.12
						c-0.03,0.09-0.06,0.17-0.1,0.25c-0.09,0.21-0.2,0.41-0.33,0.6c-0.64,1-1.79,1.96-2.8,2.74c-3.63,2.76-8.02,4.55-12.37,5.79
						c-6.52,1.87-13.52,2.57-20.26,1.76c-6.13-0.74-12.19-2.56-17.7-5.36c-2.01-1.02-4.11-2.25-5.78-3.66
						c-0.31-0.26-0.6-0.53-0.88-0.81c-0.3-0.3-0.34-0.35-0.52-0.61c-0.07-0.1-0.14-0.2-0.19-0.31c-0.08-0.14,0.06,0.14,0,0
						c-0.02-0.05-0.05-0.1-0.06-0.15c-0.05-0.2-0.04,0.07-0.02-0.11c0.02-0.12-0.07,0.11,0.02-0.07c0.34-0.69-1.3-1.43-1.64-0.73
						c-0.46,0.93,0.77,2.12,1.35,2.68c1.43,1.39,3.14,2.51,4.85,3.51c5.44,3.17,11.54,5.3,17.74,6.41
						c3.81,0.68,7.62,0.95,11.49,0.74c3.52-0.19,7.03-0.68,10.46-1.51c5-1.2,9.97-3.07,14.22-6.03c1.25-0.87,2.48-1.85,3.41-3.06
						c0.51-0.67,1.11-1.59,0.78-2.46c-0.08-0.22-0.23-0.43-0.41-0.59c-0.29-0.27-0.82-0.51-1.21-0.32
						C135.48,122.1,135.57,122.52,135.83,122.76L135.83,122.76z"/>
				</g>
			</g>
			<g>
				<g>
					<path class="st37" d="M136.39,125.5c-0.03-0.03-0.17-0.19-0.08-0.08c0.09,0.11-0.04-0.06-0.06-0.1
						c0.09,0.21-0.06-0.19,0.01,0.01c0.02,0.05,0,0.14,0.01,0.01c0.01-0.2-0.02,0.02-0.01,0.02c-0.01,0,0,0.1,0,0.11
						s0.04-0.17,0-0.03c-0.02,0.08-0.04,0.16-0.06,0.24c-0.01,0.04-0.03,0.09-0.04,0.13c-0.04,0.11,0.06-0.12-0.01,0.03
						c-0.1,0.2-0.2,0.4-0.33,0.59c-0.69,1.05-1.72,1.93-2.79,2.74c-3.68,2.78-8.1,4.55-12.51,5.79c-6.59,1.84-13.64,2.55-20.44,1.76
						c-6.26-0.72-12.47-2.55-18.11-5.36c-1.93-0.96-3.84-2.03-5.56-3.34c-0.32-0.24-0.64-0.49-0.94-0.76
						c-0.13-0.11-0.26-0.22-0.38-0.34c-0.06-0.06-0.12-0.11-0.17-0.17c-0.12-0.11,0.08,0.09-0.07-0.07c-0.18-0.2-0.35-0.4-0.51-0.62
						c-0.13-0.18,0.07,0.14-0.06-0.1c-0.02-0.04-0.04-0.08-0.06-0.12c-0.05-0.1,0.02,0.19,0.02,0.04c-0.01-0.21-0.03,0.17-0.01-0.03
						c0-0.02-0.03,0.11-0.04,0.13c0.37-0.77-0.95-1.98-1.36-1.13c-0.55,1.15,0.66,2.38,1.4,3.11c1.42,1.39,3.16,2.49,4.87,3.48
						c5.54,3.2,11.78,5.33,18.07,6.43c7.36,1.29,14.91,0.91,22.18-0.82c5.01-1.19,10.04-3.07,14.27-6.07
						c1.26-0.89,2.49-1.91,3.4-3.16c0.58-0.79,1.07-1.85,0.61-2.82c-0.13-0.27-0.3-0.47-0.51-0.67c-0.28-0.27-0.81-0.33-1.04,0.03
						C135.81,124.73,136.11,125.23,136.39,125.5L136.39,125.5z"/>
				</g>
			</g>
			<g>
				<g>
					<path class="st38" d="M136.24,127.71c0.52,0.51,0.23,1.22-0.07,1.76c-0.62,1.07-1.59,1.92-2.58,2.69
						c-3.56,2.77-8,4.51-12.33,5.68c-6.74,1.83-13.93,2.5-20.87,1.64c-6.41-0.79-12.73-2.66-18.52-5.54
						c-1.98-0.98-3.92-2.09-5.69-3.42c-0.82-0.62-2.1-1.5-2.4-2.56c-0.03-0.1-0.03-0.11-0.03-0.15c0-0.06,0.06-0.21,0.01-0.09
						c0.28-0.59-1.35-0.06-1.55,0.37c-0.42,0.9,0.78,1.89,1.34,2.4c1.51,1.37,3.29,2.46,5.06,3.44c5.68,3.14,12.02,5.21,18.42,6.24
						c7.37,1.19,14.97,0.72,22.21-1.03c5.1-1.23,10.2-3.15,14.51-6.18c1.31-0.92,2.59-1.96,3.56-3.26c0.47-0.63,1.08-1.58,0.79-2.41
						c-0.05-0.14-0.13-0.27-0.24-0.37C137.44,126.51,135.99,127.46,136.24,127.71L136.24,127.71z"/>
				</g>
			</g>
			<g>
				<g>
					<path class="st39" d="M136.59,130.17c0.42,0.43,0.17,1.21-0.14,1.76c-0.6,1.05-1.6,1.94-2.59,2.71
						c-3.6,2.8-8.06,4.51-12.43,5.7c-6.78,1.84-14.06,2.5-21.04,1.66c-6.51-0.78-12.95-2.64-18.84-5.53
						c-2.02-0.99-4.01-2.1-5.82-3.44c-0.85-0.63-2.13-1.48-2.47-2.55c-0.04-0.11-0.03-0.1-0.03-0.14c-0.01-0.11,0.02-0.13,0-0.08
						c0.3-0.65-1.37-0.18-1.58,0.28c-0.42,0.92,0.82,1.93,1.4,2.45c1.57,1.39,3.41,2.5,5.25,3.49c5.85,3.15,12.34,5.24,18.91,6.25
						c7.43,1.15,15.12,0.68,22.42-1.09c5.11-1.24,10.23-3.12,14.55-6.18c1.3-0.92,2.56-1.97,3.49-3.27
						c0.47-0.66,1.05-1.63,0.71-2.47c-0.07-0.17-0.18-0.31-0.31-0.43C137.74,128.91,136.16,129.72,136.59,130.17L136.59,130.17z"/>
				</g>
			</g>
			<g>
				<g>
					<path class="st40" d="M136.78,132.27c1.33,1.43-1.68,3.97-2.66,4.75c-3.6,2.87-8.09,4.64-12.49,5.86
						c-6.74,1.87-14.02,2.6-20.98,1.85c-6.66-0.72-13.26-2.59-19.31-5.49c-2.09-1-4.14-2.12-6.02-3.49
						c-0.61-0.44-1.19-0.91-1.72-1.44c-0.29-0.3-0.67-0.7-0.77-1.07c-0.04-0.14-0.03-0.29-0.02-0.32c0.2-0.46-1.54-0.54-1.74-0.08
						c-0.39,0.87,0.95,1.92,1.5,2.39c1.63,1.4,3.52,2.52,5.41,3.52c5.97,3.16,12.57,5.25,19.24,6.28
						c7.59,1.17,15.41,0.72,22.89-0.99c5.09-1.16,10.24-2.98,14.54-6c1.27-0.89,2.53-1.91,3.43-3.18c0.47-0.66,1.01-1.6,0.7-2.43
						c-0.06-0.17-0.15-0.32-0.28-0.45c-0.25-0.27-0.79-0.23-1.12-0.17C137.26,131.83,136.54,132.01,136.78,132.27L136.78,132.27z"/>
				</g>
			</g>
			<g>
				<g>
					<path class="st41" d="M137.19,134.27c0.46,0.51,0.27,1.33-0.06,1.97c-0.6,1.16-1.61,2.11-2.61,2.91
						c-3.6,2.92-8.14,4.7-12.56,5.94c-6.83,1.92-14.21,2.71-21.28,2.09c-6.87-0.6-13.67-2.41-19.94-5.27
						c-2.08-0.95-4.13-2.02-6.01-3.33c-0.64-0.45-1.23-0.89-1.78-1.43c-0.28-0.27-0.63-0.62-0.74-1.02
						c-0.04-0.14-0.05-0.21,0.01-0.34c0.15-0.34-1.46-1.13-1.59-0.84c-0.37,0.85,1.12,2,1.63,2.43c1.71,1.45,3.67,2.61,5.65,3.66
						c5.99,3.18,12.59,5.34,19.27,6.47c7.65,1.28,15.53,0.95,23.11-0.71c5.12-1.12,10.32-2.9,14.65-5.92
						c1.26-0.88,2.52-1.89,3.4-3.16c0.46-0.67,0.97-1.61,0.65-2.44c-0.07-0.18-0.18-0.35-0.31-0.49c-0.27-0.3-0.66-0.53-1.05-0.65
						C137.52,134.11,136.93,133.98,137.19,134.27L137.19,134.27z"/>
				</g>
			</g>
			<g>
				<g>
					<path class="st42" d="M137.83,137.29c0.17,0.2-0.11-0.15,0.03,0.04c0.09,0.12-0.07-0.09-0.03-0.07
						c0.02,0.01,0.05,0.12,0.05,0.14c-0.01-0.13-0.01-0.08,0.01,0.07c0.01,0.16,0.03-0.08,0,0.14c-0.01,0.09-0.02,0.18-0.04,0.28
						c-0.02,0.11,0.01,0.02-0.06,0.21c-0.08,0.21-0.17,0.42-0.28,0.63c-0.61,1.13-1.64,2.07-2.67,2.87
						c-3.66,2.89-8.24,4.63-12.7,5.84c-6.94,1.88-14.4,2.61-21.56,1.95c-6.92-0.64-13.76-2.48-20.11-5.32
						c-2.21-0.99-4.39-2.12-6.41-3.48c-0.64-0.43-1.28-0.9-1.87-1.44c-0.06-0.05-0.11-0.1-0.16-0.15c-0.13-0.13,0,0.01-0.03-0.03
						c-0.1-0.11-0.19-0.21-0.29-0.33c-0.04-0.04-0.07-0.09-0.1-0.13c-0.03-0.04,0.12,0.17,0.01,0.01c-0.03-0.04-0.05-0.08-0.07-0.12
						c-0.05-0.09,0.13,0.14,0.01,0.02c-0.08-0.09-0.01,0.13-0.01-0.04c0,0.07-0.01,0.16,0.01,0.05c0.01-0.02-0.05,0.15-0.01,0.04
						c0.27-0.64-1.04-1.86-1.34-1.13c-0.49,1.15,1.07,2.49,1.81,3.12c1.66,1.42,3.6,2.54,5.53,3.55c6.15,3.21,12.91,5.35,19.75,6.43
						c7.79,1.23,15.87,0.81,23.55-0.94c5.07-1.15,10.25-2.95,14.49-6.02c1.67-1.2,4.77-3.65,3.78-6.1
						c-0.11-0.28-0.29-0.55-0.48-0.77c-0.2-0.23-0.68-0.6-0.99-0.34C137.34,136.51,137.63,137.06,137.83,137.29L137.83,137.29z"/>
				</g>
			</g>
			<g>
				<g>
					<path class="st43" d="M137.84,139.83c0.16,0.18-0.05-0.13,0.05,0.06c0.03,0.06,0.13,0.3,0.08,0.16
						c-0.05-0.14,0.02,0.11,0.03,0.16c0.01,0.04,0.01,0.08,0.02,0.12c0.02,0.1,0.02-0.2-0.01-0.01c-0.01,0.09-0.02,0.18-0.03,0.28
						c-0.02,0.12-0.09,0.34-0.03,0.16c-0.07,0.21-0.15,0.42-0.26,0.63c-0.06,0.11-0.12,0.22-0.18,0.33
						c0.09-0.16-0.11,0.17-0.16,0.24c-0.18,0.26-0.38,0.5-0.59,0.73c-0.54,0.6-0.95,0.97-1.58,1.46c-3.65,2.89-8.21,4.6-12.66,5.79
						c-3.26,0.87-6.6,1.43-9.96,1.77c-3.93,0.39-7.87,0.5-11.81,0.13c-7.01-0.66-13.94-2.52-20.37-5.38
						c-2.22-0.99-4.41-2.11-6.43-3.46c-0.66-0.44-1.42-1.01-1.89-1.43c-0.21-0.19-0.41-0.4-0.6-0.61c-0.04-0.05-0.08-0.1-0.12-0.15
						s0.09,0.15,0.01,0.01c-0.05-0.09-0.1-0.17-0.14-0.26c-0.07-0.13,0,0.14,0.02,0.05c0-0.01-0.01-0.09-0.02-0.09
						c0.01,0.02,0.08,0.2,0.01,0.08c-0.04-0.07-0.04,0.12-0.02,0.09c0.41-0.99-1.29-1.54-1.68-0.61c-0.49,1.2,1.02,2.38,1.81,3.03
						c1.71,1.41,3.69,2.52,5.67,3.52c6.35,3.22,13.29,5.36,20.34,6.4c7.86,1.16,16.05,0.71,23.79-1.08
						c5.1-1.18,10.32-2.95,14.58-6.07c1.25-0.91,2.47-1.96,3.31-3.27c0.59-0.92,1.05-2.08,0.58-3.15c-0.1-0.22-0.23-0.42-0.38-0.6
						C138.56,138.08,137.09,138.96,137.84,139.83L137.84,139.83z"/>
				</g>
			</g>
			<g>
				<g>
					<path class="st44" d="M138.21,142.02c-0.15-0.18-0.01,0.01,0.05,0.09c0.09,0.15-0.01-0.1,0.05,0.12
						c0.02,0.08,0.05,0.16,0.07,0.25c-0.04-0.17,0.01,0.09,0,0.16c0,0.1-0.01,0.19-0.02,0.28c-0.01,0.05-0.02,0.11-0.03,0.16
						c-0.02,0.1,0.03-0.08-0.02,0.05c-0.07,0.23-0.15,0.46-0.27,0.68c-0.56,1.14-1.55,2.07-2.57,2.89
						c-3.61,2.92-8.24,4.65-12.67,5.84c-7.08,1.89-14.69,2.62-21.99,1.99c-7.12-0.62-14.18-2.46-20.73-5.32
						c-2.28-1-4.52-2.1-6.59-3.46c-0.4-0.26-0.8-0.54-1.18-0.82c-0.36-0.27-0.52-0.39-0.78-0.63c-0.22-0.2-0.43-0.41-0.63-0.63
						c-0.1-0.12,0.08,0.11-0.01-0.01c-0.04-0.05-0.07-0.09-0.1-0.14c-0.03-0.04-0.05-0.08-0.07-0.12c-0.09-0.15,0.06,0.12-0.01-0.02
						c-0.04-0.07-0.09-0.28-0.04-0.08c-0.04-0.15-0.03-0.01,0-0.06c0.3-0.73-1.35-1.47-1.64-0.75c-0.44,1.11,1.21,2.33,1.91,2.89
						c1.8,1.45,3.88,2.58,5.94,3.61c6.45,3.22,13.51,5.34,20.64,6.38c7.9,1.16,16.13,0.71,23.92-1.04
						c5.13-1.15,10.38-2.92,14.69-6.04c1.26-0.91,2.47-1.97,3.3-3.3c0.51-0.82,0.87-1.86,0.48-2.81c-0.11-0.28-0.27-0.49-0.46-0.72
						C138.91,140.84,137.45,141.12,138.21,142.02L138.21,142.02z"/>
				</g>
			</g>
			<g>
				<g>
					<path class="st45" d="M138.37,144.39c0.06,0.07,0.1,0.14,0.15,0.21c0.06,0.09,0.05,0.1,0-0.02c0.02,0.05,0.05,0.1,0.06,0.15
						c0.03,0.09,0.05,0.17,0.07,0.26c-0.03-0.15,0.01,0.03,0.01,0.15c0,0.1-0.01,0.19-0.01,0.29c-0.01,0.14,0,0.02,0,0.03
						c-0.01,0.06-0.02,0.11-0.04,0.16c-0.07,0.23-0.14,0.46-0.24,0.68c-0.19,0.41-0.53,0.89-0.92,1.36
						c-0.46,0.54-0.99,1.04-1.52,1.47c-3.65,2.97-8.3,4.68-12.8,5.88c-3.29,0.87-6.64,1.44-10.02,1.78
						c-4.05,0.41-8.14,0.56-12.2,0.2c-7.24-0.63-14.4-2.47-21.08-5.33c-2.34-1.01-4.65-2.14-6.8-3.52
						c-0.77-0.49-1.34-0.88-1.99-1.45c-0.12-0.1-0.23-0.21-0.34-0.32c-0.07-0.07-0.29-0.31-0.25-0.26c0.05,0.06-0.11-0.15-0.16-0.21
						c-0.03-0.04-0.06-0.09-0.09-0.13c-0.09-0.14,0.09,0.12-0.01-0.01c-0.02-0.02-0.03-0.07-0.04-0.1
						c-0.02-0.12,0.05,0.09,0.01,0.04c-0.01-0.01-0.01-0.08,0-0.09c-0.1,0.21-0.02,0.11,0,0.05c0.32-0.83-1.37-1.43-1.69-0.6
						c-0.43,1.1,1.18,2.31,1.89,2.86c1.85,1.44,3.93,2.59,6.04,3.62c6.59,3.22,13.76,5.38,21.02,6.41
						c8.02,1.14,16.33,0.67,24.23-1.08c5.12-1.13,10.43-2.88,14.71-6c1.26-0.91,2.51-1.98,3.33-3.32c0.54-0.89,0.95-1.97,0.55-3
						c-0.09-0.23-0.21-0.45-0.37-0.64c-0.28-0.34-0.76-0.57-1.2-0.42C138.32,143.62,138.09,144.06,138.37,144.39L138.37,144.39z"/>
				</g>
			</g>
		</g>
		<g>
			<g>
				<g>
					<path class="st15" d="M133.39,103.28c0.2,0.03,0.03-0.01-0.01-0.03c0.17,0.1-0.2-0.12-0.01,0c-0.04-0.02-0.15-0.19-0.07-0.07
						c0.04,0.06,0.1,0.18-0.03-0.09c0.03,0.06,0.06,0.14,0.06,0.2c-0.01-0.17,0-0.1-0.01,0.05c-0.01,0.09-0.02,0.18-0.02,0.28
						c-0.02,0.19,0.03-0.11,0,0c-0.01,0.04-0.02,0.09-0.03,0.13c-0.04,0.12-0.07,0.24-0.11,0.37c-0.23,0.68-0.38,0.91-0.74,1.48
						c-0.42,0.67-0.91,1.3-1.44,1.9c-3.06,3.48-7.49,5.94-11.94,7.32c-7.11,2.2-14.81,1.98-22.06,0.55
						c-5.21-1.03-10.7-2.83-14.7-6.48c-0.64-0.59-1.17-1.14-1.64-1.77c-0.22-0.3-0.43-0.61-0.62-0.92
						c-0.08-0.14-0.16-0.28-0.23-0.42c-0.04-0.07-0.07-0.14-0.1-0.2c-0.06-0.12-0.06-0.13-0.05-0.1c-0.11-0.26-0.21-0.52-0.29-0.8
						c-0.04-0.13-0.07-0.26-0.09-0.38c-0.01-0.06-0.02-0.12-0.03-0.17c-0.02-0.11,0.01,0.17,0-0.03c-0.01-0.21-0.01-0.42,0.01-0.64
						c0.01-0.14,0.02-0.09-0.01,0.03c0.01-0.05,0.02-0.1,0.04-0.15c0.03-0.09,0.06-0.17,0.09-0.27c0.05-0.15-0.11,0.1,0.04-0.07
						c0.05-0.06,0.26-0.3,0.04-0.07c0.8-0.82-0.54-1.85-1.24-1.13c-2,2.04,0.15,5.3,1.6,6.96c3.52,4.02,8.95,6.2,14,7.49
						c4.11,1.05,8.39,1.6,12.62,1.72c3.81,0.11,7.66-0.23,11.36-1.17c5.22-1.33,10.31-3.85,14.07-7.78c1.15-1.2,2.23-2.55,2.88-4.1
						c0.36-0.85,0.67-2.09-0.13-2.8c-0.19-0.17-0.45-0.3-0.71-0.34c-0.44-0.07-0.95,0.04-1.12,0.51
						C132.64,102.71,132.96,103.21,133.39,103.28L133.39,103.28z"/>
				</g>
			</g>
			<g>
				<g>
					<path class="st46" d="M134.43,106.27c-0.07-0.01-0.16-0.04-0.06-0.01c0.12,0.04-0.16-0.11-0.08-0.04
						c-0.11-0.1-0.22-0.19-0.32-0.32c-0.05-0.07-0.04-0.09-0.07-0.17c0.07,0.18,0.02,0.01,0.02,0.08c-0.01,0.08-0.01,0.16-0.02,0.24
						c-0.01,0.05-0.02,0.09-0.02,0.13c-0.03,0.14,0.03-0.09-0.02,0.06c-0.06,0.23-0.15,0.45-0.24,0.67
						c-0.57,1.29-1.51,2.42-2.48,3.42c-3.4,3.53-7.91,5.92-12.57,7.31c-7.13,2.13-14.79,1.9-22.05,0.5
						c-5.24-1.01-10.73-2.82-14.85-6.34c-0.71-0.61-1.14-1.03-1.75-1.76c-0.12-0.14-0.23-0.29-0.34-0.43
						c0.11,0.15-0.17-0.24-0.22-0.32c-0.09-0.14-0.17-0.28-0.26-0.41c-0.05-0.09-0.24-0.46-0.16-0.29
						c-0.12-0.26-0.23-0.52-0.33-0.79c-0.06-0.17,0.02,0.09-0.02-0.04c-0.02-0.05-0.03-0.1-0.04-0.15
						c-0.03-0.13-0.05-0.26-0.07-0.38c-0.01-0.05-0.01-0.09-0.02-0.14c-0.01-0.12,0,0.13,0-0.02c0-0.1,0.01-0.2,0.01-0.31
						c0.02-0.26-0.01-0.14,0.11-0.4c0.04-0.07,0.07-0.14,0.12-0.21c-0.07,0.11,0.04-0.05,0.1-0.1c0.52-0.51-0.67-1.85-1.17-1.36
						c-0.71,0.7-0.65,1.81-0.39,2.69c0.44,1.54,1.42,2.9,2.51,4.05c3.76,3.98,9.14,6.23,14.35,7.56c7.65,1.95,16.03,2.51,23.74,0.6
						c5.23-1.29,10.36-3.78,14.2-7.62c1.12-1.12,2.21-2.4,2.88-3.85c0.46-1.01,0.65-2.19-0.3-3c-0.24-0.2-0.51-0.32-0.82-0.37
						c-0.42-0.08-0.42,0.45-0.33,0.71C133.64,105.87,134.02,106.2,134.43,106.27L134.43,106.27z"/>
				</g>
			</g>
			<g>
				<g>
					<path class="st47" d="M134.54,108.76c-0.05-0.01-0.48-0.2-0.48-0.2c0.03-0.01,0.03-0.01,0.05,0.07
						c0.05,0.16,0.07,0.14,0.06,0.32c-0.01,0.41-0.18,0.82-0.36,1.18c-0.62,1.3-1.62,2.41-2.63,3.41c-3.54,3.5-8.13,5.89-12.87,7.29
						c-7.09,2.1-14.72,1.92-21.93,0.47c-5.21-1.05-10.55-2.89-14.68-6.35c-1.18-0.98-2.3-2.12-3.04-3.49
						c-0.39-0.72-0.8-1.68-0.44-2.5c0.07-0.16,0.11-0.21,0.23-0.33c0.25-0.23-1.31-0.86-1.66-0.54c-0.66,0.61-0.49,1.59-0.21,2.35
						c0.51,1.39,1.55,2.58,2.6,3.59c3.95,3.8,9.42,5.93,14.65,7.25c4.01,1.02,8.15,1.56,12.28,1.73c3.82,0.16,7.66-0.14,11.39-0.99
						c5.36-1.23,10.63-3.64,14.72-7.39c1.2-1.11,2.37-2.36,3.16-3.8c0.32-0.59,0.88-1.66,0.24-2.23c-0.26-0.23-0.64-0.35-0.97-0.42
						c-0.16-0.04-0.88-0.2-0.94,0.07C133.66,108.56,134.41,108.74,134.54,108.76L134.54,108.76z"/>
				</g>
			</g>
			<g>
				<g>
					<path class="st48" d="M134.67,111.93c-0.05-0.01-0.2-0.06-0.08-0.02c-0.08-0.03-0.06-0.04-0.06-0.03
						c-0.02,0.02-0.03-0.09,0.02,0.03c0.03,0.07,0-0.11,0.02,0.06c0.01,0.07,0.01,0.13,0.01,0.2c0,0.08,0.02-0.02-0.02,0.14
						c-0.03,0.1-0.05,0.19-0.09,0.29c-0.08,0.22-0.18,0.43-0.29,0.63c-0.65,1.21-1.76,2.37-2.81,3.34
						c-3.66,3.4-8.35,5.71-13.13,7.03c-7.11,1.97-14.69,1.69-21.87,0.2c-5.27-1.09-10.62-2.98-14.91-6.33
						c-1.23-0.96-2.4-2.07-3.23-3.4c-0.29-0.46-0.5-0.87-0.61-1.35c-0.05-0.19-0.07-0.38-0.07-0.57c0-0.14,0.01-0.15,0.08-0.37
						c0.06-0.17-0.01-0.02,0.05-0.09c0.04-0.06,0.1-0.11,0.15-0.16c0.32-0.29-0.15-0.56-0.39-0.61c-0.42-0.09-0.88,0.03-1.2,0.31
						c-0.71,0.63-0.47,1.68-0.15,2.44c0.58,1.37,1.67,2.52,2.75,3.51c4.03,3.68,9.44,5.79,14.65,7.09c7.6,1.9,15.83,2.39,23.51,0.66
						c5.5-1.24,10.9-3.65,15.19-7.35c1.29-1.11,2.53-2.33,3.44-3.78c0.38-0.6,1.1-1.74,0.55-2.43c-0.17-0.21-0.43-0.31-0.69-0.37
						c-0.36-0.09-0.96-0.01-1.2,0.31C134.02,111.65,134.37,111.86,134.67,111.93L134.67,111.93z"/>
				</g>
			</g>
			<g>
				<g>
					<path class="st49" d="M134.82,114.91c0.63,0.18,0.05,1.25-0.15,1.6c-0.72,1.25-1.8,2.31-2.87,3.25
						c-3.78,3.34-8.51,5.53-13.36,6.78c-7.21,1.86-14.87,1.52-22.1-0.01c-5.34-1.13-10.74-3.05-15.15-6.34
						c-1.29-0.96-2.55-2.07-3.46-3.4c-0.43-0.63-1.03-1.57-0.77-2.37c0.01-0.04,0.1-0.21,0.06-0.13c0.08-0.15-0.01-0.02,0.06-0.07
						c0.27-0.22,0.14-0.29-0.13-0.24c-0.39,0.07-0.82,0.37-1.11,0.61c-0.71,0.59-0.55,1.47-0.18,2.22c0.64,1.33,1.78,2.44,2.88,3.39
						c4.14,3.53,9.49,5.61,14.71,6.89c7.48,1.83,15.53,2.32,23.07,0.59c5.67-1.3,11.17-3.78,15.72-7.42
						c1.37-1.1,2.72-2.33,3.75-3.76c0.33-0.46,1.28-1.67,0.83-2.31c-0.07-0.1-0.19-0.16-0.31-0.2c-0.3-0.09-0.8,0.27-1.04,0.41
						C135.18,114.44,134.59,114.85,134.82,114.91L134.82,114.91z"/>
				</g>
			</g>
			<g>
				<g>
					<path class="st50" d="M135.62,118.12c0.18,0.06-0.15-0.13-0.04-0.03c-0.04-0.03-0.18-0.23-0.15-0.16
						c0.03,0.06-0.09-0.21-0.02-0.02c0.01,0.03,0.06-0.15-0.02,0.05c-0.03,0.07-0.05,0.16-0.07,0.23c0.08-0.24-0.03,0.05-0.07,0.13
						c-0.11,0.22-0.24,0.43-0.38,0.63c-0.21,0.3-0.2,0.29-0.47,0.61c-0.24,0.29-0.5,0.57-0.76,0.84c-0.62,0.63-1.28,1.22-1.96,1.78
						c-4.01,3.26-8.9,5.48-13.88,6.77c-7.03,1.83-14.45,1.58-21.53,0.16c-5.39-1.08-10.81-2.94-15.36-6.09
						c-1.38-0.96-2.61-1.94-3.62-3.22c-0.18-0.22-0.35-0.46-0.5-0.7c-0.1-0.16,0.04,0.08-0.03-0.04c-0.03-0.05-0.05-0.09-0.08-0.14
						c-0.05-0.1-0.1-0.21-0.15-0.32c-0.04-0.09-0.07-0.18-0.1-0.28c-0.05-0.13-0.02-0.09,0.01,0.03c-0.01-0.05-0.03-0.1-0.03-0.15
						c0-0.08-0.01-0.15-0.01-0.22c0.01,0.32-0.03-0.03,0.03-0.04c-0.03,0.01-0.02,0.16,0.02-0.01c0.02-0.09-0.12,0.15-0.06,0.08
						c0.05-0.06,0.18-0.15-0.07,0.04c0.91-0.71-0.18-1.9-1.01-1.26c-2.31,1.8,1.46,5.12,2.77,6.2c4.24,3.52,9.61,5.64,14.89,7
						c7.55,1.95,15.66,2.49,23.32,0.92c5.68-1.17,11.27-3.52,15.9-7.06c1.48-1.13,2.91-2.38,4.04-3.87c0.53-0.7,1.41-1.94,0.76-2.82
						c-0.14-0.18-0.35-0.34-0.57-0.41c-0.43-0.14-0.96-0.06-1.2,0.37C135.01,117.47,135.2,117.99,135.62,118.12L135.62,118.12z"/>
				</g>
			</g>
			<g>
				<g>
					<path class="st51" d="M135.66,120.63c0.59,0.22-0.17,1.29-0.38,1.59c-0.91,1.27-2.13,2.33-3.35,3.28
						c-4.15,3.25-9.09,5.52-14.19,6.81c-7.07,1.79-14.57,1.42-21.66-0.08c-5.41-1.14-10.82-3.08-15.44-6.19
						c-1.38-0.93-2.75-1.98-3.81-3.27c-0.41-0.5-1.23-1.49-0.96-2.22c0.04-0.09,0.17-0.23,0.15-0.22c0.3-0.22-0.26-0.19-0.37-0.19
						c-0.36,0.03-0.88,0.11-1.19,0.33c-0.69,0.5-0.3,1.37,0.07,1.95c0.8,1.27,2.01,2.3,3.19,3.2c4.4,3.36,9.78,5.42,15.12,6.73
						c7.46,1.83,15.34,2.29,22.9,0.8c5.83-1.15,11.56-3.4,16.44-6.82c1.54-1.08,3.05-2.28,4.28-3.7c0.37-0.42,1.46-1.58,1.14-2.25
						c-0.05-0.1-0.15-0.18-0.26-0.22c-0.33-0.12-0.79,0.01-1.11,0.1C136.16,120.29,135.46,120.56,135.66,120.63L135.66,120.63z"/>
				</g>
			</g>
			<g>
				<g>
					<path class="st52" d="M136.84,123.95c0,0-0.28-0.22-0.36-0.34c-0.05-0.07-0.1-0.19-0.08-0.18c-0.04-0.02,0.04-0.12-0.02,0.05
						c-0.03,0.08-0.05,0.15-0.08,0.23c0.04-0.1-0.03,0.07-0.08,0.15c-0.06,0.09-0.11,0.18-0.17,0.28c-0.15,0.23-0.33,0.44-0.51,0.65
						c-1.06,1.24-2.37,2.28-3.69,3.23c-4.4,3.14-9.5,5.35-14.75,6.62c-7.03,1.69-14.32,1.48-21.38,0.09
						c-5.5-1.08-10.99-2.96-15.75-5.95c-1.42-0.89-2.77-1.89-3.82-2.99c-0.11-0.11-0.21-0.22-0.31-0.34
						c-0.04-0.05-0.09-0.1-0.13-0.15c-0.13-0.15,0.05,0.07-0.04-0.05c-0.15-0.2-0.29-0.4-0.4-0.61c0.07,0.12,0,0-0.05-0.12
						c-0.05-0.11-0.07-0.24-0.04-0.1c-0.02-0.07-0.03-0.14-0.03-0.21c0,0.08-0.04,0.05,0.02-0.07c-0.02,0.04,0.09-0.09,0.06-0.07
						c0.69-0.46-0.61-1.68-1.2-1.28c-0.86,0.58-0.3,1.74,0.14,2.4c0.89,1.33,2.19,2.4,3.46,3.34c4.51,3.33,9.93,5.48,15.33,6.86
						c7.4,1.89,15.3,2.52,22.84,1.1c5.9-1.11,11.68-3.38,16.65-6.78c1.55-1.06,3.07-2.23,4.33-3.62c0.59-0.65,1.57-1.73,1-2.66
						c-0.15-0.26-0.42-0.49-0.69-0.61c-0.3-0.12-0.79-0.25-0.91,0.17C136.08,123.35,136.53,123.82,136.84,123.95L136.84,123.95z"/>
				</g>
			</g>
			<g>
				<g>
					<path class="st53" d="M137.38,126.9c-0.22-0.11-0.43-0.31-0.54-0.51c-0.02-0.04-0.01-0.08-0.02-0.05
						c-0.09,0.19,0.02,0.07-0.11,0.31c-0.23,0.43-0.56,0.81-0.89,1.16c-1.16,1.24-2.56,2.27-3.97,3.21
						c-4.59,3.08-9.82,5.26-15.2,6.49c-7,1.61-14.26,1.39-21.27-0.03c-5.46-1.1-10.88-2.93-15.67-5.81
						c-1.53-0.91-2.84-1.8-4.08-3.01c-0.09-0.09-0.3-0.31-0.22-0.22c-0.1-0.1-0.19-0.21-0.28-0.32c-0.08-0.1-0.16-0.2-0.23-0.3
						c-0.03-0.04-0.06-0.09-0.09-0.13c-0.01-0.02,0.07,0.11-0.01-0.02c-0.05-0.08-0.09-0.17-0.14-0.26
						c-0.09-0.17,0.02,0.09-0.04-0.1c-0.02-0.05-0.04-0.23-0.03-0.14c0.01,0.1,0-0.07,0.02-0.11c-0.02,0.03-0.05,0.07,0.04-0.03
						c0.03-0.03-0.09,0.06,0.05-0.03c0.64-0.4-0.73-1.53-1.31-1.17c-0.86,0.53-0.12,1.7,0.29,2.27c0.96,1.3,2.33,2.33,3.64,3.25
						c4.6,3.21,10.03,5.33,15.44,6.71c7.38,1.89,15.25,2.54,22.78,1.18c6-1.08,11.87-3.32,17-6.62c1.63-1.05,3.23-2.22,4.6-3.61
						c0.55-0.56,1.63-1.58,1.19-2.47c-0.16-0.33-0.49-0.57-0.82-0.72c-0.27-0.13-0.79-0.2-0.87,0.19
						C136.56,126.4,137.09,126.76,137.38,126.9L137.38,126.9z"/>
				</g>
			</g>
			<g>
				<g>
					<path class="st54" d="M137.22,129.75c0.03,0.02-0.06-0.02-0.02-0.09c-0.02,0.04-0.01,0.11-0.03,0.16
						c-0.07,0.17,0.05-0.06-0.04,0.1c-0.27,0.48-0.48,0.69-0.85,1.06c-1.2,1.2-2.61,2.2-4.03,3.12c-4.71,3.02-10.02,5.16-15.48,6.37
						c-6.96,1.54-14.14,1.26-21.09-0.16c-5.52-1.12-10.99-3.01-15.89-5.83c-1.51-0.87-3.02-1.83-4.31-3
						c-0.4-0.36-0.79-0.75-1.1-1.18c-0.05-0.08-0.1-0.15-0.15-0.23c-0.09-0.15-0.04-0.03-0.08-0.15c-0.02-0.06-0.04-0.12-0.05-0.18
						c-0.04-0.16,0.03,0.02-0.01-0.06c-0.03-0.07-0.05,0.01,0-0.02c-0.01,0.01-0.19,0.16-0.12,0.12c0.3-0.17,0.48-0.52,0.17-0.76
						c-0.33-0.25-0.92-0.1-1.24,0.08c-2.27,1.27,2.86,4.59,3.64,5.11c4.72,3.12,10.19,5.19,15.66,6.56
						c7.35,1.83,15.09,2.45,22.59,1.16c6.15-1.06,12.18-3.28,17.52-6.5c1.75-1.05,3.47-2.21,4.97-3.6c0.54-0.5,1.87-1.59,1.66-2.49
						c-0.04-0.17-0.16-0.33-0.32-0.41c-0.37-0.2-0.89-0.14-1.24,0.08C137.14,129.14,136.84,129.54,137.22,129.75L137.22,129.75z"/>
				</g>
			</g>
			<g>
				<g>
					<path class="st55" d="M138.87,133.03c0.03,0.02-0.92-1.21-0.89-1.25c-0.01,0.01,0.02,0.05,0.01,0.07
						c-0.02,0.03-0.02,0.11-0.03,0.15c-0.06,0.15-0.14,0.29-0.23,0.42c-0.31,0.43-0.7,0.81-1.1,1.16c-1.37,1.23-2.92,2.26-4.49,3.19
						c-4.89,2.93-10.32,5.04-15.9,6.24c-6.97,1.51-14.13,1.3-21.11-0.06c-5.65-1.1-11.22-2.95-16.31-5.66
						c-1.64-0.87-3.26-1.83-4.71-2.99c-0.27-0.21-0.52-0.43-0.77-0.66c-0.1-0.09-0.15-0.14-0.23-0.22
						c-0.04-0.04-0.08-0.09-0.13-0.13c-0.06-0.06,0.07-0.01-0.05-0.05c0.05,0.02,0.1,0.12,0.2,0.28c0.04,0.06,0.05,0.16,0.06,0.08
						c0,0.01-0.05-0.15-0.01-0.23c0.04-0.09,0.1-0.15,0.19-0.2c0.08-0.04-0.81-1.58-1.05-1.46c-0.81,0.41,0.75,2.13,1.01,2.44
						c1.03,1.2,2.35,2.14,3.67,2.99c4.77,3.07,10.22,5.13,15.7,6.52c7.26,1.84,14.93,2.52,22.35,1.27
						c6.24-1.05,12.33-3.27,17.79-6.46c1.72-1.01,3.42-2.11,4.9-3.45c0.4-0.37,0.82-0.76,1.12-1.22c0.26-0.4,0.23-0.65-0.01-1.06
						c-0.23-0.39-0.53-0.88-0.92-1.12c-0.12-0.08,0.22,0.56,0.24,0.6C138.35,132.47,138.58,132.85,138.87,133.03L138.87,133.03z"/>
				</g>
			</g>
			<g>
				<g>
					<path class="st56" d="M138.24,135.91c-0.09-0.07-0.11-0.2-0.08-0.38c-0.02,0.08-0.13,0.27,0.01,0.02
						c-0.05,0.09-0.11,0.16-0.16,0.24c-0.15,0.23,0.07-0.06-0.09,0.11c-0.08,0.09-0.17,0.18-0.25,0.27
						c-0.23,0.23-0.47,0.44-0.71,0.65c-0.51,0.43-1.21,0.94-1.9,1.4c-0.85,0.57-1.74,1.11-2.63,1.62
						c-5.02,2.85-10.56,4.91-16.22,6.06c-6.9,1.39-13.93,1.11-20.82-0.27c-5.62-1.13-11.15-3-16.24-5.63
						c-1.75-0.9-3.48-1.91-5.01-3.14c-0.26-0.2-0.5-0.42-0.73-0.64c-0.04-0.04-0.08-0.08-0.13-0.13c-0.14-0.15,0.02,0.03-0.06-0.06
						c-0.07-0.08-0.14-0.17-0.2-0.26c-0.05-0.07-0.1-0.15-0.14-0.22c-0.06-0.11-0.01,0.15-0.01-0.05c-0.01,0.2-0.16,0.51-0.48,0.65
						c0.38-0.17,0.78-0.55,0.67-1.01c-0.1-0.42-0.63-0.55-0.99-0.39c-3.05,1.34,2.68,4.71,3.64,5.27c4.9,2.94,10.37,5,15.9,6.38
						c7.25,1.82,14.85,2.53,22.26,1.37c6.43-1.01,12.7-3.19,18.42-6.29c1.91-1.04,3.78-2.19,5.48-3.56c0.72-0.58,2.11-1.6,2.03-2.67
						c-0.02-0.23-0.11-0.45-0.31-0.6C138.78,134.15,137.44,135.34,138.24,135.91L138.24,135.91z"/>
				</g>
			</g>
			<g>
				<g>
					<path class="st57" d="M138.55,138.38C138.57,138.39,138.57,138.37,138.55,138.38c-0.01,0.01,0.05-0.07-0.02,0.05
						c-0.05,0.08,0.03-0.04-0.04,0.1c-0.05,0.09-0.11,0.16-0.16,0.24c-0.31,0.4-0.71,0.73-1.1,1.05c-1.49,1.19-3.14,2.17-4.81,3.08
						c-5.2,2.83-10.88,4.91-16.69,6.07c-6.81,1.36-13.74,1.13-20.53-0.23c-5.68-1.14-11.26-2.99-16.44-5.58
						c-1.79-0.89-3.58-1.88-5.16-3.1c-0.35-0.28-0.8-0.63-1.1-1.03c0.07,0.09-0.21-0.34-0.12-0.21c-0.06-0.08,0.09-0.11-0.02-0.04
						c0.06-0.04-0.13,0.06-0.1,0.05c0.34-0.13,0.36-0.38,0.07-0.59c-0.31-0.22-0.9-0.29-1.26-0.15c-0.98,0.37-0.15,1.26,0.32,1.7
						c1.19,1.11,2.64,1.97,4.06,2.77c5.05,2.85,10.59,4.89,16.2,6.28c7.17,1.78,14.69,2.52,22.02,1.48
						c6.5-0.92,12.85-3.03,18.7-5.98c2-1.01,3.97-2.12,5.77-3.45c0.56-0.41,1.12-0.85,1.6-1.35c0.23-0.24,0.57-0.59,0.59-0.94
						c0.01-0.16-0.06-0.32-0.18-0.43c-0.33-0.27-0.79-0.37-1.2-0.3C138.73,137.88,138.22,138.11,138.55,138.38L138.55,138.38z"/>
				</g>
			</g>
			<g>
				<g>
					<path class="st58" d="M139.05,141.64c-0.01-0.01,0,0.05-0.02,0.13c-0.02,0.08-0.1,0.17-0.21,0.32
						c-0.22,0.27-0.77,0.71-1.12,0.97c-1.56,1.16-3.28,2.11-5.01,3c-5.29,2.7-11,4.68-16.84,5.77c-6.83,1.28-13.74,0.95-20.53-0.42
						c-5.71-1.15-11.31-2.98-16.56-5.49c-1.87-0.89-3.73-1.86-5.43-3.05c-0.46-0.32-0.95-0.66-1.33-1.07
						c-0.1-0.12-0.17-0.24-0.26-0.37c-0.06-0.08-0.04-0.08-0.03-0.08c-0.08-0.06,0.27-0.01-0.03,0.04
						c-0.13,0.02-0.49,0.34-0.74,0.42c0.23-0.07,0.93-0.3,0.94-0.62c0.02-0.32-0.57-0.17-0.72-0.12c-0.39,0.12-1.24,0.43-1.1,0.98
						c0.08,0.32,0.45,0.61,0.68,0.81c1.19,1.06,2.65,1.86,4.05,2.62c5.13,2.78,10.72,4.78,16.38,6.16
						c7.17,1.75,14.63,2.44,21.96,1.36c6.59-0.97,13.04-3.09,19.04-5.99c2.09-1.01,4.16-2.12,6.07-3.45
						c0.6-0.41,1.19-0.85,1.72-1.35c0.27-0.26,0.7-0.64,0.76-1.03c0.03-0.16-0.01-0.26-0.13-0.36
						C140.26,140.53,138.7,141.32,139.05,141.64L139.05,141.64z"/>
				</g>
			</g>
			<g>
				<g>
					<path class="st1" d="M139.77,144.75c-0.2-0.22-0.23-0.47-0.24-0.62c-0.02-0.32,0.03,0.02-0.01-0.01c0,0-0.05,0.09-0.06,0.09
						c0.17-0.18,0.06-0.08,0.02-0.04c-0.07,0.08-0.14,0.16-0.22,0.23c-0.41,0.41-0.87,0.74-1.3,1.03c-1.66,1.13-3.45,2.08-5.26,2.96
						c-5.32,2.59-11,4.53-16.8,5.67c-3.24,0.64-6.54,1.02-9.84,1c-3.5-0.03-7-0.41-10.44-1.04c-5.94-1.08-11.77-2.92-17.29-5.38
						c-1.99-0.89-3.97-1.86-5.8-3.04c-0.29-0.18-0.58-0.38-0.86-0.58c-0.06-0.04-0.11-0.08-0.16-0.12
						c-0.21-0.16,0.06,0.06-0.06-0.04c-0.09-0.08-0.19-0.16-0.28-0.24c-0.06-0.06-0.12-0.12-0.18-0.18c0.01,0.01,0.1,0.19,0.01-0.02
						c0.16,0.32,0.08,0.77-0.28,0.86c1.05-0.27,0.35-1.86-0.57-1.63c-1.44,0.36-0.31,1.82,0.34,2.34c1.34,1.08,2.89,1.91,4.42,2.7
						c5.41,2.77,11.23,4.82,17.14,6.21c7.21,1.68,14.63,2.36,21.98,1.23c6.48-0.99,12.84-3.04,18.78-5.82
						c2.03-0.95,4.04-1.99,5.9-3.23c0.78-0.52,2.28-1.35,2.44-2.4c0.06-0.37-0.1-0.7-0.35-0.97
						C140.06,142.84,139.01,143.91,139.77,144.75L139.77,144.75z"/>
				</g>
			</g>
		</g>
		<g>
			<path class="st59" d="M45.66,103.39c-0.06,1.3-1.69,2.85-2.78,3.48c-1.57,0.91-4.09,4.86-4.41,6.22"/>
			<g>
				<path class="st60" d="M75.82,34.83c7.39-8.31,17.52-12.66,27.2-17.66c3.96-2.05,3.78-13.28,2.81-13.02
					c-19.82,5.48-9.47,9.17-14.58,12.91c-4.14,3.03-16.87,10.78-25.4,20.37c-1.08,1.21-3.59,7.55-2.76,7.55
					C64.64,45.01,74.76,36.02,75.82,34.83L75.82,34.83z"/>
			</g>
			<g>
				<path class="st1" d="M90.58,4.66c-6.24,3.7-4.82,3.1-9.72,8.43c-5.44,5.91-9.47,12.73-14.41,19
					c-6.98,8.87-14.77,16.95-18.47,27.85c-6.55,19.27-10.53,40.47-6.96,60.59c0.28,1.55,4.62,1.74,4.33,0.09
					c-0.93-5.27-0.22-11.77-0.33-17.04c0.46-5.76,0.07-8.4,0.44-12.59c0.9-2.85,0.05-5.43,0.88-7.37c0.83-1.94,0.44-2.79,0.69-4.17
					c0.2-1.13,0.72-1.31,0.99-3.05c0.26-1.75,0.04-2.1,0.24-2.98c0.55-2.42,2.35-4.91,3.01-7.31c1.62-5.84,5.96-11.42,9.13-16.61
					c2.92-4.77,3.27-8.93,6.79-13.26c4.16-5.12,9.73-8.55,13.76-13.76c4.94-6.4,7.88-3.7,14.52-8.37
					C103.64,8.38,95.26,1.89,90.58,4.66z"/>
			</g>
			<g>
				<g>
					<path class="st28" d="M43.22,74.75c-1.4,7.89-2.82,15.79-3.82,23.74c-0.7,5.59-1.21,11.27-0.79,16.9
						c0.31,4.18,1.27,8.31,3.22,12.05c2.11,4.04,5.08,7.45,8.44,10.49c4.52,4.09,9.55,7.62,14.58,11.06
						c0.76,0.52,1.51,1.03,2.27,1.54c0.46,0.31,1.32,0.3,1.83,0.24c0.68-0.08,1.51-0.32,2.08-0.72c0.86-0.6,1.53-1.58,0.44-2.31
						c-2.83-1.9-5.64-3.84-8.4-5.85c-0.6-0.43-1.19-0.87-1.78-1.32c-0.12-0.09-0.49-0.37-0.16-0.12c-0.14-0.11-0.28-0.21-0.42-0.32
						c-0.29-0.22-0.59-0.45-0.88-0.68c-1.05-0.83-2.09-1.67-3.11-2.54c-3.4-2.92-6.6-6.18-8.89-10.07c-0.12-0.2-0.22-0.4-0.34-0.6
						c0.26,0.44,0.05,0.08-0.02-0.03c-0.07-0.13-0.14-0.27-0.21-0.4c-0.22-0.43-0.43-0.87-0.63-1.31c-0.41-0.92-0.77-1.86-1.07-2.82
						c-0.64-2.01-1.05-4.08-1.28-6.16c-0.13-1.14-0.21-2.28-0.25-3.42c-0.01-0.15-0.01-0.3-0.02-0.44c-0.01-0.16-0.01-0.5-0.01-0.13
						c-0.01-0.34-0.01-0.68-0.01-1.02c0-0.63,0.01-1.25,0.03-1.88c0.08-2.87,0.33-5.73,0.65-8.57c0.85-7.57,2.18-15.09,3.5-22.6
						c0.19-1.11,0.39-2.22,0.59-3.34C49.15,71.85,43.58,72.74,43.22,74.75L43.22,74.75z"/>
				</g>
			</g>
			<g>
				<g>
					<path class="st61" d="M80.57,21.08c1.96-2.62,3.72-5.37,5.62-8.02c0.25-0.35,0.52-0.69,0.8-1.02c0.06-0.07,0.12-0.13,0.17-0.19
						c0.11-0.12,0.14-0.15,0.08-0.09c0.15-0.15,0.31-0.29,0.46-0.43c0.34-0.29,0.7-0.56,1.07-0.82c-0.2,0.14,0.04-0.03,0.12-0.08
						c0.12-0.08,0.23-0.15,0.35-0.22c0.28-0.17,0.55-0.34,0.83-0.51c1.82-1.09,3.69-2.11,5.54-3.15c0.36-0.2,0.75-0.65,0.24-0.92
						c-0.5-0.27-1.36,0.01-1.81,0.26c-1.72,0.97-3.45,1.92-5.15,2.92c-1.02,0.6-2.04,1.21-2.95,1.95c-1.58,1.27-2.62,3.02-3.74,4.67
						c-1.29,1.91-2.63,3.8-4.01,5.64c-0.36,0.47,0.31,0.67,0.67,0.67C79.43,21.76,80.21,21.55,80.57,21.08L80.57,21.08z"/>
				</g>
			</g>
			<g>
				<g>
					<path class="st45" d="M92.18,12.47c0.76-0.53,1.53-1.05,2.26-1.61c0.42-0.33,1.18-0.83,1.01-1.46
						c-0.28-1.01-1.71-0.57-2.36-0.27c-0.53,0.24-1.05,0.53-1.56,0.81c-3.46,1.89-6.85,3.92-10.24,5.93
						c-1.03,0.61-2.07,1.22-3.09,1.85c-0.43,0.27-0.63,0.89-0.24,1.26c0.41,0.39,1.21,0.38,1.68,0.1c4.29-2.52,8.6-5.05,12.71-7.85
						c2.3-1.56,4.5-3.25,6.54-5.13c0.4-0.37,0.7-0.95,0.14-1.35C98.54,4.4,97.6,4.5,97.15,4.91C91.7,9.93,85.12,13.54,78.8,17.34
						c-0.09,0.06-0.18,0.11-0.27,0.16c-0.28,0.17,0.24-0.09,0.09-0.05c-0.05,0.01-0.1,0.06-0.14,0.08c0.48,0.45,0.96,0.91,1.45,1.36
						c-0.64,0.39,0.15-0.09,0.32-0.19c0.52-0.31,1.03-0.62,1.55-0.92c1.57-0.93,3.14-1.86,4.72-2.79c1.66-0.97,3.33-1.94,5.01-2.89
						c0.63-0.36,1.27-0.71,1.91-1.05c0.22-0.12,0.44-0.23,0.67-0.34c0.2-0.1,0.73-0.25,0.12-0.08c0.02-0.01,0.05-0.02,0.07-0.02
						c-0.23,0.06-0.5,0.09-0.78,0.02c-0.78-0.2-0.79-0.85-0.52-1.2c-0.17,0.23,0.28-0.21,0.06-0.05c-0.09,0.07-0.17,0.14-0.27,0.21
						c-0.75,0.59-1.55,1.13-2.34,1.67c-0.46,0.32-0.66,0.98-0.14,1.35C90.85,13.02,91.67,12.82,92.18,12.47L92.18,12.47z"/>
				</g>
			</g>
			<g>
				<path class="st14" d="M76.11,30.4c7.8-13.15,3.44-11.83,17.4-17.18c3.5-1.34,7.38-2.21,10.72-3.93c0.81-0.42,1.3-0.89,1.92-1.57
					c1.93-2.08-11.86,2.33-14.21,3.23c-6.38,2.43-16.51,11.18-21.21,19.11c-0.28,0.47-4.12,6.56-3.87,6.8c0,0,7.16-3.05,7.8-4.12
					L76.11,30.4z"/>
			</g>
			<path class="st62" d="M75.13,35.79c-3.18,1.81-6.88,1.33-9.94,1.87c-3.05,0.54-4.85,1.66-5.71,2.76"/>
			<path class="st62" d="M69.61,40.68c0,0-2.73,2.7-8.21,3.27c-5.48,0.57-6.12,2.12-6.12,2.12"/>
			<path class="st62" d="M62.04,47.62c0,0-3.66,2.42-6.94,3.62c-3.28,1.2-4.5,2.42-5.54,3.86"/>
			<path class="st62" d="M57.41,54.67c0,0-1.85,1.43-4.81,2.69c-2.95,1.26-5.35,5.18-6.05,6.38"/>
			<path class="st62" d="M53.36,61.72c0,0-2.26,3.89-3.31,4.37c-0.89,0.41-3.78,2.76-5.42,4.8"/>
			<path class="st62" d="M49.13,75.57c0,0-2.18,2.52-3.24,3.01c-1.53,0.7-3.88,3.69-4.37,4.99"/>
			<path class="st62" d="M47.56,82.18c-0.2,1.29-2.77,5.68-3.82,6.21c-1.53,0.77-3.38,2.6-3.83,3.91"/>
			<path class="st62" d="M46.77,93.17c-0.2,1.29-2.84,4.23-3.89,4.76c-1.53,0.77-3.84,3.24-4.28,4.55"/>
			<path class="st63" d="M45.82,122.04c0.27,1.36,0.61,4.04,0.01,5.35c-0.6,1.31-0.71,3.98-0.68,5.46"/>
			<path class="st62" d="M51.26,130.84c0.6,1.21,0.55,3.66-0.03,4.74c-0.84,1.56-1.38,1.94-0.97,3.32"/>
			<path class="st62" d="M55.75,135.98c0.84,1.06,1.3,3.46,0.96,4.64c-0.49,1.7-0.94,2.18-0.25,3.45"/>
			<path class="st62" d="M83.96,27.91c-3.01,1.89-11.13,1.39-12.61,1.65c-2.13,0.39-4.01,0.74-5.07,2.21"/>
			<g>
				<path class="st61" d="M74.68,26.99c10.6-8.55,22.31-10.45,24.58-12.44"/>
				<g>
					<path class="st1" d="M77.14,27.36c1.03-0.83,2.1-1.61,3.18-2.36c0.09-0.06,0.42-0.29-0.01,0c0.12-0.08,0.25-0.16,0.38-0.24
						c0.25-0.16,0.5-0.32,0.75-0.48c0.53-0.33,1.06-0.65,1.59-0.95c1-0.58,2.01-1.12,3.04-1.64c0.24-0.12,0.48-0.24,0.72-0.36
						c0.08-0.04,0.26-0.15,0.36-0.17c-0.49,0.09-0.42,0.2-0.17,0.08c0.52-0.24,1.04-0.48,1.57-0.71c3.05-1.34,6.21-2.38,9.31-3.59
						c1.33-0.52,2.77-1.09,3.87-2.03c0.31-0.26,0.78-0.72,0.65-1.2c-0.12-0.46-0.77-0.66-1.17-0.71c-1.41-0.19-3.29,0.23-4.39,1.18
						c-0.06,0.05-0.12,0.09-0.17,0.14c-0.32,0.31,0.61-0.37,0.31-0.2c-0.19,0.11-0.39,0.21-0.58,0.32
						c-0.36,0.19,0.85-0.39,0.32-0.15c-0.11,0.05-0.22,0.1-0.34,0.15c-0.27,0.11-0.53,0.22-0.8,0.33c-1.36,0.54-2.75,1.01-4.13,1.52
						c-4.01,1.48-7.96,3.17-11.69,5.28c-2.62,1.48-5.15,3.17-7.5,5.07c-0.31,0.25-0.78,0.73-0.65,1.2c0.12,0.46,0.77,0.66,1.17,0.71
						C74.2,28.73,75.98,28.28,77.14,27.36L77.14,27.36z"/>
				</g>
			</g>
			<path class="st64" d="M104.42,16.32c-5.27,3.02-22.33,4.63-23.69,4.71c-1.98,0.11-7.46,1.55-8.32,2.65"/>
			<path class="st65" d="M51.66,65.77l-0.98,2.69c1.72,0.27,1.99,0.71,1.99,1.36c0,0.91-2.29,1.64-5.12,1.64
				c-2.83,0-5.12-0.73-5.12-1.64c0-0.68,0.85-1.31,2.67-1.56l0.83-3c-4.65,0.26-7.82,2.34-7.82,4.61c0,2.45,4.19,4.44,9.37,4.44
				s9.37-1.99,9.37-4.44C56.85,67.94,55.34,66.37,51.66,65.77z"/>
			<g>
				<path class="st66" d="M46.98,75.9c-4.92,0.24-8.59-2.76-8.69-3.47l-0.14-2.72c0,1.62,3.59,4.32,8.84,4.32
					c4.29,0,7.91-1.25,9.04-2.6c0.25-0.3,0.54-0.9,0.54-0.9l-0.35,2.28C55.86,73.78,51.9,75.66,46.98,75.9z"/>
			</g>
		</g>
		<path class="st67" d="M66.21,150.28c0,0-1.5-0.7-1.05-3.26c0.41-1.84,2.24-3,4.09-2.59c1.85,0.41,3.02,2.24,2.61,4.08
			c-0.08,0.34-0.2,0.47-0.36,0.76l1.74,1.36c0.41-0.58,0.56-0.91,0.72-1.65c0.66-3-1.23-6.47-4.25-7.13
			c-3.01-0.66-6.56,1.72-7.22,4.72c-0.54,2.44,0.39,5.75,3.49,7L66.21,150.28z"/>
		<g>
			<g>
				<path class="st28" d="M66.27,149.02c3.96,3.18,8.1,6.27,12.48,8.85c5.17,3.05,11.26,4.12,17.15,4.78
					c9.16,1.03,18.53,0.55,27.52-1.56c3.94-0.93,7.83-2.26,11.35-4.3c2.07-1.19,4.03-2.71,5.47-4.63c0.87-1.17,1.61-2.48,1.86-3.93
					c0.09-0.55,0.32-1.65-0.22-2.08c-0.7-0.55-2.2-0.03-2.87,0.19c-0.35,0.12-1.85,0.75-1.27,1.31c0.58,0.55,2.2,0,2.79-0.2
					c-0.35,0.06-0.7,0.12-1.06,0.18c-0.41,0.19-0.83,0.24-1.24,0.16c-0.18-0.04-0.27-0.02-0.42-0.13c0.01,0.01,0.02,0.02,0.03,0.02
					c-0.09-0.06-0.07-0.21-0.07-0.07c0,0.09,0.06,0.21,0.08,0.3c0.03,0.15,0.03,0.32,0.03,0.47c0,0.09-0.01,0.18-0.01,0.27
					c-0.01,0.24,0.03-0.11-0.02,0.15c-0.22,1.26-0.73,2.42-1.45,3.48c-0.05,0.08-0.1,0.15-0.15,0.22c-0.07,0.1,0.03-0.04,0.04-0.05
					c-0.04,0.05-0.08,0.1-0.11,0.15c-0.14,0.18-0.28,0.36-0.43,0.53c-0.32,0.38-0.67,0.73-1.03,1.07c-0.18,0.17-0.37,0.34-0.56,0.5
					c-0.11,0.09-0.21,0.18-0.33,0.27c0.22-0.18-0.07,0.05-0.14,0.11c-0.5,0.38-1.02,0.74-1.56,1.07c-0.14,0.09-0.29,0.18-0.43,0.27
					c-0.12,0.07-0.39,0.22-0.11,0.07c-0.32,0.18-0.64,0.35-0.97,0.52c-0.35,0.17-0.69,0.34-1.05,0.51
					c-0.16,0.07-0.32,0.14-0.47,0.21c0.4-0.17-0.21,0.09-0.33,0.13c-0.84,0.34-1.69,0.64-2.55,0.92c0.37-0.12-0.1,0.03-0.23,0.07
					c-0.24,0.07-0.48,0.14-0.72,0.21c-0.51,0.14-1.01,0.28-1.52,0.4c-1.15,0.29-1.77,0.42-3,0.65c-1.07,0.2-2.15,0.38-3.23,0.53
					c-1.93,0.27-4.06,0.46-6.17,0.57c-3.94,0.2-7.89,0.08-11.85-0.32c-3.19-0.33-6.33-0.84-9.45-1.64c-1.2-0.31-2.39-0.66-3.56-1.08
					c-1.09-0.4-1.63-0.65-2.68-1.23c-4.67-2.59-9-5.87-13.18-9.18c-0.1-0.08-0.19-0.15-0.29-0.22c-0.65-0.53-2.12-0.07-2.79,0.2
					C67.24,147.83,65.64,148.51,66.27,149.02L66.27,149.02z"/>
			</g>
		</g>
		<path class="st62" d="M45.22,103.56c-0.06,1.3-1.69,2.85-2.78,3.48c-1.57,0.91-4.09,4.86-4.41,6.22"/>
		<path class="st62" d="M44.93,112.45c0.1,1.86-1.76,5.13-2.92,6.18c-1.69,1.53-1.69,3.1-1.89,5.08"/>
	</g>
	<path class="st68" d="M72.08,149.16"/>
</g>
</svg>
