<?xml version="1.0" encoding="utf-8"?>
<!-- Generator: Adobe Illustrator 25.2.3, SVG Export Plug-In . SVG Version: 6.00 Build 0)  -->
<svg version="1.1" id="Layer_1" xmlns="http://www.w3.org/2000/svg" xmlns:xlink="http://www.w3.org/1999/xlink" x="0px" y="0px"
	 viewBox="0 0 242.6 382.6" style="enable-background:new 0 0 242.6 382.6;" xml:space="preserve">
<style type="text/css">
	.st0{fill:#E4DAD8;stroke:#FFFFFF;stroke-width:0.5;stroke-linejoin:bevel;stroke-miterlimit:10;}
	.st1{fill:none;stroke:#FFFFFF;stroke-width:0.2495;stroke-miterlimit:10;}
	.st2{fill:none;stroke:#FFFFFF;stroke-width:0.2201;stroke-miterlimit:10;}
	.st3{fill:none;stroke:#FFFFFF;stroke-width:0.2231;stroke-miterlimit:10;}
	.st4{fill:#CBB8B9;stroke:#FFFFFF;stroke-width:0.5;stroke-miterlimit:10;}
	.st5{fill:#EF7C4F;}
	.st6{fill:#DD335A;}
	.st7{fill:#DE3858;}
	.st8{fill:#E03D57;}
	.st9{fill:#E14155;}
	.st10{fill:#E24654;}
	.st11{fill:#E34B52;}
	.st12{fill:#E55050;}
	.st13{fill:#E6554F;}
	.st14{fill:#E75A4D;}
	.st15{fill:#E95F4B;}
	.st16{fill:#EA644A;}
	.st17{fill:#EB6948;}
	.st18{fill:#ED6E47;}
	.st19{fill:#EE7345;}
	.st20{fill:#D8422E;}
	.st21{fill:#CBB8B9;stroke:#FFFFFF;stroke-width:0.5;stroke-linejoin:bevel;stroke-miterlimit:10;}
	.st22{fill:#E4DAD8;stroke:#FFFFFF;stroke-width:0.5;stroke-miterlimit:10;}
	.st23{fill:none;stroke:#FFFFFF;stroke-width:0.9364;stroke-miterlimit:10;}
	.st24{fill:#361D32;stroke:#FFFFFF;stroke-width:0.499;stroke-miterlimit:10;}
	.st25{fill:#E4DAD8;stroke:#FFFFFF;stroke-width:0.499;stroke-miterlimit:10;}
	.st26{fill:#EE784C;}
	.st27{fill:#EC744A;}
	.st28{fill:#EA7048;}
	.st29{fill:#E96C45;}
	.st30{fill:#E76843;}
	.st31{fill:#E56341;}
	.st32{fill:#E45F3E;}
	.st33{fill:#E25B3C;}
	.st34{fill:#E0573A;}
	.st35{fill:#DF5337;}
	.st36{fill:#DD4F35;}
	.st37{fill:#DB4B33;}
	.st38{fill:#DA4730;}
	.st39{fill:#361D32;stroke:#FFFFFF;stroke-width:0.5;stroke-miterlimit:10;}
	.st40{fill:#B79797;stroke:#FFFFFF;stroke-width:0.5;stroke-miterlimit:10;}
	.st41{fill:none;stroke:#FFFFFF;stroke-width:0.5;stroke-miterlimit:10;}
	.st42{fill:#361D32;stroke:#FFFFFF;stroke-width:0.2622;stroke-miterlimit:10;}
	.st43{fill:#361D32;stroke:#FFFFFF;stroke-width:0.2495;stroke-miterlimit:10;}
	.st44{fill:#E4DAD8;stroke:#FFFFFF;stroke-width:0.2495;stroke-linejoin:bevel;stroke-miterlimit:10;}
	.st45{fill:none;stroke:#FFFFFF;stroke-width:0.2348;stroke-miterlimit:10;}
	.st46{fill:none;stroke:#FFFFFF;stroke-width:0.2575;stroke-miterlimit:10;}
	.st47{fill:none;stroke:#FFFFFF;stroke-width:0.2429;stroke-miterlimit:10;}
	.st48{fill:#DE3859;}
	.st49{fill:#DF3D58;}
	.st50{fill:#E14258;}
	.st51{fill:#E24857;}
	.st52{fill:#E34D56;}
	.st53{fill:#E55255;}
	.st54{fill:#E65754;}
	.st55{fill:#E75D54;}
	.st56{fill:#E96253;}
	.st57{fill:#EA6752;}
	.st58{fill:#EB6C51;}
	.st59{fill:#ED7250;}
	.st60{fill:#EE774F;}
</style>
<g>
	<polygon class="st0" points="54.7,138.8 63.2,143.1 63.2,144.3 54.7,140.1 	"/>
	<polygon class="st0" points="54.7,138.8 56.9,137.7 63.2,140.7 63.2,143.1 	"/>
	<path class="st1" d="M65.1,111.9c0,0-1.7,1.7-2.8,1.9c-1.6,0.3-3.4,0.2-4.1,1.3"/>
	<path class="st2" d="M61.2,116.7c0,0-1.7,1.7-2.8,1.9c-1.6,0.3-3.4,0.2-4.1,1.3"/>
	<path class="st3" d="M52.6,129.2c0,0-1.4,2.3-2.5,2.8c-1.5,0.7-3.3,1.1-3.7,2.3"/>
	<path class="st4" d="M122.1,232.8l32.8,0.2c0,0-2.5,22-4,33.5c-0.3,6.1-1.2,12.5-3.8,18.2C142.4,294.9,135,303,135,303l0.7,50.2
		c0,0-1.6,6.4-13.3,6.7H122c-11.6-0.2-13.3-6.7-13.3-6.7l0.7-50.2c0,0-7.4-8-12.1-18.3c-2.6-5.7-3.5-12.2-3.8-18.2
		c-1.5-11.6-4-33.5-4-33.5l32.8-0.2L122.1,232.8L122.1,232.8z"/>
	<path class="st4" d="M109.7,302.8c0,0,4.2,5.3,13,5.3s12.5-5.2,12.5-5.2"/>
	<g>
		<g>
			<g>
				<path class="st5" d="M153.9,235.5c1,1.4-3.5,3.4-4.2,3.8c-4,1.9-8.3,3.3-12.6,4.3c-11,2.7-22.2,3-33.1,0.1
					c-2.5-0.7-4.9-1.4-7.2-2.4c-0.9-0.4-1.9-0.8-2.8-1.3c-0.3-0.2-0.7-0.4-1-0.6s-1.6-1.1-1.2-1.2c0.9-0.3,0.7-1.3-0.3-1
					c-0.6,0.2-1.5,0.5-1.4,1.3c0.1,0.9,1.6,1.6,2.2,2c1.8,1.1,3.8,1.9,5.8,2.6c6.1,2.2,12.5,3.4,19,3.7c6,0.3,12-0.4,17.9-1.7
					c5.1-1.1,10.2-2.6,15-4.8c1.3-0.6,7.2-3.2,5.4-5.5C154.9,234.3,153.4,234.9,153.9,235.5L153.9,235.5z"/>
			</g>
		</g>
		<g>
			<g>
				<path class="st5" d="M153.7,238.9c0.8,1.3-3.8,3.3-4.5,3.7c-4,1.9-8.2,3.2-12.5,4.2c-4.9,1.2-9.9,2-14.9,2.1
					c-5.8,0.2-11.8-0.6-17.4-2.1c-2.5-0.7-4.9-1.5-7.3-2.5c-0.9-0.4-1.9-0.8-2.8-1.3c-0.4-0.2-2.5-1.7-2.3-1.8
					c0.9-0.3,0.7-1.4-0.3-1c-0.6,0.2-1.4,0.6-1.3,1.3c0.1,0.9,1.6,1.6,2.2,2c1.8,1,3.7,1.9,5.6,2.6c6.1,2.3,12.5,3.5,19,3.8
					c5.8,0.3,11.6-0.4,17.3-1.6c5.1-1.1,10.2-2.6,15-4.7c1.4-0.6,7.1-3,5.6-5.4C154.7,237.7,153.3,238.3,153.7,238.9L153.7,238.9z"
					/>
			</g>
		</g>
		<g>
			<g>
				<path class="st5" d="M153.4,242.2c0.9,1.7-3.6,3.5-4.6,4c-4,1.8-8.2,3.1-12.5,4.1c-5,1.2-10.2,2-15.3,2
					c-5.8,0-11.6-0.9-17.2-2.5c-2.4-0.7-4.8-1.5-7.1-2.6c-0.8-0.4-1.7-0.8-2.5-1.3c-0.2-0.1-2.6-1.7-1.9-2c1-0.4,0.1-0.6-0.5-0.3
					c-0.5,0.2-1.2,0.5-1.1,1.1c0.2,0.8,1.6,1.4,2.3,1.8c1.8,1,3.7,1.8,5.6,2.6c5.9,2.2,12.2,3.4,18.5,3.7c5.7,0.3,11.4-0.4,17-1.6
					c5-1,9.9-2.4,14.6-4.4c1.7-0.7,3.5-1.6,5-2.7c0.6-0.5,1.7-1.4,1.2-2.3C154.8,241.5,153.3,242,153.4,242.2L153.4,242.2z"/>
			</g>
		</g>
		<g>
			<g>
				<path class="st5" d="M153.2,245.7c0.5,1.5-4,3.2-4.9,3.6c-4,1.7-8.2,3-12.5,3.9c-4.6,1.1-9.4,1.8-14.1,1.9
					c-5.7,0.1-11.6-0.7-17.1-2.3c-2.4-0.7-4.8-1.5-7.1-2.5c-0.8-0.4-1.7-0.8-2.5-1.2c-0.3-0.2-0.7-0.4-1-0.6
					c-0.2-0.1-1.6-1.1-1.3-1.2c1-0.4,0.1-1.2-0.7-0.9c-2.4,1,0.3,2.7,1.5,3.4c1.8,1,3.7,1.9,5.6,2.6c5.7,2.2,11.9,3.4,18,3.7
					c5.6,0.3,11.1-0.3,16.6-1.4c5-1,10.1-2.4,14.8-4.4c1.7-0.7,3.4-1.5,4.8-2.6c0.7-0.5,1.8-1.5,1.4-2.5
					C154.5,244.6,152.9,245,153.2,245.7L153.2,245.7z"/>
			</g>
		</g>
		<g>
			<g>
				<path class="st5" d="M153,249.1c0.2,0.8-0.7,1.4-1.2,1.8c-1.2,0.8-2.5,1.4-3.8,2c-4,1.7-8.3,2.9-12.6,3.8
					c-4.6,1-9.3,1.7-14.1,1.7c-5.7,0-11.4-0.9-16.8-2.5c-2.4-0.7-4.8-1.6-7.1-2.6c-0.8-0.4-1.5-0.8-2.3-1.2
					c-0.4-0.2-2.8-1.8-2.1-2.2c0.9-0.4-0.5-0.4-0.9-0.2c-2.1,1,0.9,2.6,1.9,3.1c1.8,1,3.7,1.8,5.6,2.5c5.7,2.1,11.8,3.3,17.8,3.6
					c5.4,0.3,10.9-0.3,16.2-1.4c4.8-1,9.6-2.2,14.1-4.1c1.7-0.7,3.5-1.5,5-2.5c0.7-0.5,1.9-1.3,1.7-2.3
					C154.4,248.3,152.9,248.7,153,249.1L153,249.1z"/>
			</g>
		</g>
		<g>
			<g>
				<path class="st5" d="M152.7,252.5c0.1,0.7-1,1.3-1.4,1.6c-1.2,0.8-2.6,1.4-4,2c-4,1.6-8.1,2.7-12.3,3.6c-4.5,1-9.2,1.7-13.8,1.7
					c-5.6,0-11.2-0.9-16.6-2.5c-2.3-0.7-4.5-1.5-6.7-2.5c-0.8-0.4-1.6-0.8-2.3-1.2c-0.4-0.2-2.5-1.8-2.4-1.9
					c0.9-0.5,0.1-1.1-0.6-0.7c-2.1,1.1,0.5,2.6,1.6,3.3c1.7,1,3.6,1.9,5.5,2.6c5.5,2.1,11.4,3.3,17.3,3.8c5.4,0.4,10.7-0.2,16-1.2
					c4.9-0.9,9.8-2.2,14.5-4c1.8-0.7,3.6-1.4,5.1-2.5c0.7-0.5,1.8-1.3,1.7-2.3C154.2,251.5,152.7,251.9,152.7,252.5L152.7,252.5z"/>
			</g>
		</g>
		<g>
			<g>
				<path class="st5" d="M152.5,255.9c0,0.8-1,1.4-1.6,1.7c-1.3,0.8-2.7,1.4-4.2,2c-4.1,1.6-8.3,2.7-12.6,3.5
					c-4.3,0.9-8.8,1.5-13.2,1.4c-5.6-0.1-11.2-1-16.6-2.7c-2.2-0.7-4.4-1.5-6.5-2.6c-0.6-0.3-5.1-2.8-4.2-3.3
					c0.6-0.4-0.9-0.2-1.2-0.1c-1.6,1,1.4,2.6,2.2,3c1.7,1,3.6,1.8,5.5,2.5c5.5,2.1,11.4,3.3,17.3,3.7c5.1,0.3,10.2-0.2,15.3-1.2
					c4.8-0.9,9.5-2.1,14-3.8c1.8-0.7,3.6-1.4,5.2-2.4c0.8-0.5,1.9-1.2,2-2.2C154.1,255.3,152.5,255.5,152.5,255.9L152.5,255.9z"/>
			</g>
		</g>
		<g>
			<g>
				<path class="st5" d="M152.3,259.2c-0.1,0.7-1.2,1.2-1.8,1.5c-1.3,0.7-2.6,1.3-4,1.8c-3.9,1.5-8,2.5-12.1,3.4
					c-4.2,0.9-8.6,1.5-12.9,1.5c-5.5,0-11-0.9-16.2-2.5c-2.3-0.7-4.5-1.5-6.6-2.5c-0.8-0.4-1.6-0.8-2.3-1.2
					c-0.3-0.2-2.6-1.8-2.4-1.9c0.8-0.6-0.4-1.2-1-0.7c-2.6,1.8,6.2,5.5,7.4,5.9c5.4,2.2,11.2,3.4,17,3.9c5.1,0.4,10.1-0.1,15.1-1
					c4.7-0.8,9.4-2,13.9-3.6c1.8-0.7,3.6-1.4,5.3-2.3c0.9-0.5,2.1-1.3,2.3-2.4C154,258.3,152.4,258.5,152.3,259.2L152.3,259.2z"/>
			</g>
		</g>
		<g>
			<g>
				<path class="st5" d="M152.1,262.7c-0.3,0.8-1.3,1.3-2,1.6c-1.3,0.7-2.7,1.3-4.2,1.8c-4,1.4-8.2,2.5-12.3,3.2
					c-4.1,0.8-8.3,1.4-12.4,1.3c-5.5-0.1-10.9-1-16.1-2.7c-2.2-0.7-4.3-1.5-6.4-2.5c-0.6-0.3-5.1-2.8-4.4-3.3
					c0.7-0.6-0.8-0.5-1.2-0.2c-2,1.7,6.7,5.3,7.8,5.7c5.3,2.1,10.9,3.3,16.6,3.7c9.5,0.7,19.4-1.3,28.2-4.4c1.9-0.6,3.7-1.3,5.5-2.3
					c0.9-0.5,2.1-1.2,2.4-2.2C153.8,262,152.2,262.2,152.1,262.7L152.1,262.7z"/>
			</g>
		</g>
		<g>
			<g>
				<path class="st5" d="M151.9,266c-0.4,0.8-1.4,1.2-2.1,1.6c-1.4,0.7-2.8,1.2-4.2,1.7c-3.9,1.3-8,2.3-12,3.1
					c-4,0.7-8.1,1.3-12.2,1.3c-5.3-0.1-10.7-1-15.8-2.6c-2.2-0.7-4.4-1.6-6.5-2.6c-0.5-0.2-5-2.7-4.5-3.2c0.7-0.7-0.8-0.8-1.3-0.4
					c-1.8,1.8,6.4,5.3,7.6,5.8c5.2,2.1,10.7,3.4,16.3,3.9c9.3,0.8,19.1-1.1,27.9-4c1.9-0.6,3.7-1.3,5.5-2.2c1-0.5,2.2-1.2,2.7-2.2
					C153.7,265.3,152.2,265.4,151.9,266L151.9,266z"/>
			</g>
		</g>
		<g>
			<g>
				<path class="st5" d="M151.7,269.4c-0.4,0.7-1.5,1.2-2.2,1.6c-1.4,0.7-3,1.2-4.5,1.7c-3.9,1.3-7.9,2.2-11.9,2.9
					c-3.9,0.7-7.9,1.2-11.9,1.1c-5.3-0.2-10.6-1.1-15.6-2.8c-2.2-0.7-4.3-1.6-6.3-2.6c-0.6-0.3-4.7-2.6-4.3-3.1
					c0.6-0.8-0.9-0.9-1.3-0.4c-1.6,2,6.3,5.3,7.6,5.8c5,2.1,10.4,3.3,15.7,3.8c9.3,0.9,18.9-0.9,27.6-3.7c1.9-0.6,3.8-1.2,5.5-2.1
					c1.1-0.5,2.3-1.2,2.9-2.2C153.5,268.8,152,268.8,151.7,269.4L151.7,269.4z"/>
			</g>
		</g>
		<g>
			<g>
				<path class="st5" d="M151.5,272.9c-0.6,0.7-1.6,1.2-2.4,1.6c-1.5,0.7-3,1.2-4.5,1.7c-3.9,1.2-7.9,2.1-12,2.8
					c-3.7,0.6-7.4,1.1-11.2,1c-5.3-0.1-10.6-1.1-15.7-2.8c-2-0.7-4.1-1.5-6-2.5c-0.7-0.4-5.1-2.6-4.6-3.5c0.3-0.6-1.2-0.5-1.4,0
					c-0.7,1.3,2.2,2.7,3,3.2c1.7,1,3.4,1.8,5.3,2.6c4.9,2,10.2,3.2,15.5,3.7c8.9,0.8,18.2-1,26.7-3.5c1.9-0.6,3.8-1.2,5.6-2.1
					c1.1-0.5,2.3-1.1,3-2.1C153.3,272.3,151.8,272.4,151.5,272.9L151.5,272.9z"/>
			</g>
		</g>
		<g>
			<g>
				<path class="st5" d="M151.3,276.1c-0.7,0.8-1.6,1.2-2.5,1.6c-1.5,0.7-3,1.2-4.6,1.6c-3.9,1.2-8,2-12,2.7c-3.6,0.6-7.3,1-11,0.9
					c-5.2-0.2-10.4-1.2-15.3-2.9c-2.1-0.7-4.1-1.6-6-2.6c-0.7-0.4-1.5-0.8-2.2-1.3c-0.4-0.3-2.5-1.4-2.2-2.2
					c0.2-0.5-1.4-0.4-1.5,0.2c-0.4,1.2,2.4,2.7,3.3,3.2c1.6,1,3.4,1.8,5.1,2.5c4.9,2,10.1,3.2,15.3,3.7c8.6,0.8,17.6-0.9,25.8-3.2
					c1.9-0.5,3.8-1.1,5.6-1.9c1.2-0.5,2.5-1.1,3.4-2.1C153.2,275.7,151.7,275.7,151.3,276.1L151.3,276.1z"/>
			</g>
		</g>
		<g>
			<g>
				<path class="st5" d="M151.1,279.4c-0.8,0.8-2.1,1.3-3.2,1.7c-1.8,0.7-3.6,1.2-5.5,1.7c-4.3,1.1-8.6,1.9-13,2.5
					c-9.4,1.2-19.1-0.1-27.6-4.2c-1.6-0.7-3.1-1.6-4.5-2.6c-0.4-0.3-1.7-1.2-1.6-1.6c0.2-0.7-1.4-0.5-1.5,0.1
					c-0.2,0.6,0.7,1.3,1.1,1.6c1.1,1,2.4,1.7,3.7,2.4c4.2,2.3,8.9,3.8,13.6,4.7c9.8,1.9,19.7,0.6,29.2-1.9c2.2-0.6,4.4-1.2,6.5-2
					c1.4-0.5,2.9-1.2,4-2.2C153,279.2,151.6,279,151.1,279.4L151.1,279.4z"/>
			</g>
		</g>
	</g>
	<g>
		<g>
			<g>
				<path class="st6" d="M154.8,238c1,1.3-3.5,3.7-4.3,4.1c-4,2.2-8.5,3.8-12.9,5.1c-5.1,1.4-10.4,2.3-15.6,2.2
					c-6.1-0.1-12.2-1.5-17.9-3.6c-2.6-0.9-5.1-2-7.6-3.3c-0.9-0.4-1.8-0.9-2.6-1.4c-0.4-0.2-0.8-0.5-1.2-0.7
					c-0.2-0.1-0.4-0.3-0.6-0.4c-0.1-0.1-0.3-0.2-0.4-0.4c-0.2,0.3-0.2,0.4,0.1,0.2c1-0.3,0.8-1.7-0.3-1.4c-0.7,0.2-1.6,0.7-1.5,1.6
					c0.1,1,1.5,1.7,2.2,2.1c1.9,1.1,3.9,2.1,5.9,3c5.9,2.7,12.3,4.7,18.8,5.5c6.3,0.8,12.7,0,18.8-1.4c5.2-1.3,10.4-3.1,15.2-5.6
					c1.5-0.8,7.4-3.9,5.4-6.4C155.7,236.4,154.3,237.3,154.8,238L154.8,238z"/>
			</g>
		</g>
		<g>
			<g>
				<path class="st7" d="M154.6,240.7c0.4,0.6-0.5,1.6-0.9,2c-1,1-2.4,1.8-3.6,2.6c-4,2.3-8.5,3.9-12.9,5.1
					c-5.1,1.4-10.4,2.3-15.6,2.3c-6.1,0-12.2-1.5-18-3.6c-2.5-0.9-4.9-2-7.3-3.2c-0.9-0.4-1.7-0.9-2.6-1.4c-0.7-0.4-2.6-1.3-1.1-1.8
					c0.4-0.1-0.9-1.1-1.4-0.9c-2.2,0.8,1,2.7,1.8,3.2c1.8,1.1,3.7,2.1,5.7,2.9c5.7,2.6,11.8,4.5,18.1,5.4c6.2,0.9,12.5,0.3,18.7-1.1
					c5.2-1.2,10.4-2.9,15.1-5.4c1.5-0.8,7.1-3.4,5.4-5.8C155.7,240.5,154.1,240,154.6,240.7L154.6,240.7z"/>
			</g>
		</g>
		<g>
			<g>
				<path class="st8" d="M154.2,244.3c1,1.7-3.2,3.9-4.2,4.4c-4,2.3-8.5,3.8-12.9,5c-5.3,1.4-10.8,2.2-16.3,1.9
					c-5.8-0.3-11.6-1.8-17.1-3.8c-2.3-0.9-4.5-1.9-6.7-3c-0.8-0.4-1.6-0.8-2.4-1.3c-0.4-0.2-0.8-0.5-1.2-0.8
					c-0.1-0.1-1.4-1.2-1.2-1.3c0.9-0.4,0.7-0.8-0.2-0.5c-0.5,0.2-1.5,0.5-1.3,1.2c0.2,0.9,1.6,1.5,2.3,1.9c1.8,1.1,3.7,2,5.6,2.9
					c5.7,2.6,11.8,4.4,18,5.2c6.1,0.7,12.4,0.1,18.4-1.4c5.1-1.2,10.2-2.9,14.9-5.3c1.7-0.9,3.4-1.9,4.8-3.2
					c0.6-0.6,1.7-1.7,1.1-2.6C155.6,243.3,154,244,154.2,244.3L154.2,244.3z"/>
			</g>
		</g>
		<g>
			<g>
				<path class="st9" d="M154.1,247.5c-0.1-0.1-0.1,0.2-0.2,0.4c-0.3,0.4-0.7,0.8-1,1.1c-1.1,1-2.5,1.8-3.8,2.5
					c-4.1,2.1-8.5,3.7-12.9,4.8c-5.1,1.3-10.5,2.1-15.8,1.9c-5.6-0.2-11.2-1.6-16.5-3.6c-2.3-0.9-4.6-1.8-6.8-3
					c-0.8-0.4-1.6-0.9-2.4-1.3c-0.3-0.2-0.6-0.4-0.9-0.6c-0.2-0.2-0.5-0.3-0.7-0.5c-0.2-0.1-0.4-0.3-0.5-0.5c0,0.3,0.1,0.4,0.3,0.2
					c0.8-0.3,0-1.8-0.8-1.5c-2.3,1,0.6,3.1,1.5,3.8c1.7,1.1,3.4,2,5.2,2.8c5.5,2.6,11.4,4.4,17.4,5.3c6.2,0.9,12.5,0.4,18.7-1
					c5.2-1.1,10.3-2.8,15-5.3c1.8-0.9,6.9-3.4,5.5-6.2C154.8,245.9,153.7,246.5,154.1,247.5L154.1,247.5z"/>
			</g>
		</g>
		<g>
			<g>
				<path class="st10" d="M153.6,250.1c0.7,1.8-3.5,3.9-4.6,4.5c-3.9,2.2-8.2,3.7-12.5,4.8c-5.2,1.4-10.6,2.2-16.1,2.1
					c-5.7-0.1-11.4-1.4-16.7-3.4c-2.3-0.9-4.6-1.9-6.8-3c-0.8-0.4-1.6-0.9-2.3-1.3c-0.6-0.4-2.6-1.4-1.4-2c0.2-0.1-1-1-1.4-0.8
					c-1.7,0.8,1.4,2.6,2.1,3c1.6,1,3.4,1.9,5.1,2.7c5.1,2.4,10.5,4.2,16.1,5.1c11.2,1.9,23.4-0.4,33.4-5.3c1.8-0.9,3.6-1.8,5.1-3.1
					c0.7-0.6,1.7-1.5,1.4-2.5C155,250.3,153.6,249.9,153.6,250.1L153.6,250.1z"/>
			</g>
		</g>
		<g>
			<g>
				<path class="st11" d="M153.3,253.7c0.1,0.5-0.7,1.3-1.2,1.6c-1.1,1-2.5,1.7-3.8,2.4c-4,2.1-8.4,3.5-12.8,4.6
					c-5.2,1.2-10.5,1.9-15.9,1.6s-10.6-1.6-15.7-3.5c-2.1-0.8-4.2-1.7-6.3-2.8c-0.8-0.4-1.5-0.8-2.3-1.3c-0.3-0.2-0.6-0.4-0.8-0.5
					c-0.2-0.2-0.5-0.3-0.7-0.5c-0.3-0.3-0.4-0.5-0.7-0.4c1-0.5,0.1-1.8-0.8-1.4c-3.4,1.8,4.8,5.6,6.1,6.2c5,2.4,10.3,4.2,15.8,5.1
					c11.3,2,23.8-0.3,34-5.4c1.8-0.9,3.6-1.9,5.1-3.2c0.8-0.7,1.7-1.7,1.4-2.8C154.7,252.5,153,252.7,153.3,253.7L153.3,253.7z"/>
			</g>
		</g>
		<g>
			<g>
				<path class="st12" d="M153,256.7c0.1,0.8-0.7,1.5-1.2,2c-1.1,1-2.4,1.7-3.7,2.4c-4,2.1-8.4,3.6-12.9,4.6
					c-5.4,1.3-10.9,1.9-16.4,1.5c-5.2-0.4-10.4-1.7-15.3-3.7c-2-0.8-4-1.7-5.9-2.8c-0.6-0.3-4.8-2.7-3.9-3.3c0.5-0.3-1-0.7-1.4-0.4
					c-1.5,0.9,1.4,2.6,2.1,3c1.6,1,3.2,1.9,4.9,2.6c4.8,2.3,10,3.9,15.3,4.8c11.1,1.8,23.2-0.3,33.2-5.1c1.8-0.8,3.6-1.8,5.1-3
					c0.7-0.6,1.8-1.5,1.7-2.5C154.6,256.3,152.9,256.3,153,256.7L153,256.7z"/>
			</g>
		</g>
		<g>
			<g>
				<path class="st13" d="M152.8,260.3c0,0.8-0.9,1.5-1.4,1.9c-1.2,0.9-2.5,1.7-3.8,2.3c-4.1,2.1-8.6,3.4-13.1,4.4
					c-5.4,1.1-11,1.6-16.5,1c-5-0.5-9.9-1.9-14.5-3.8c-1.9-0.8-3.8-1.7-5.6-2.7c-0.5-0.3-4.5-2.9-4-3.2c0.9-0.6-0.6-0.4-1-0.1
					c-1.6,1.1,0.9,2.5,1.8,3c1.6,1,3.3,1.9,5.1,2.7c4.9,2.2,10.1,3.8,15.4,4.6c10.9,1.5,22.7-0.7,32.5-5.5c1.7-0.8,3.5-1.8,5-3
					c0.7-0.6,1.7-1.4,1.6-2.4C154.3,259.4,152.7,259.8,152.8,260.3L152.8,260.3z"/>
			</g>
		</g>
		<g>
			<g>
				<path class="st14" d="M152.4,263.2c0,0.6-0.9,1.3-1.4,1.6c-1.2,0.9-2.5,1.7-3.8,2.3c-3.9,1.9-8,3.3-12.2,4.2
					c-10.3,2.3-20.8,1.8-30.6-2c-2-0.8-3.9-1.6-5.8-2.7c-0.8-0.4-1.5-0.8-2.2-1.3c-0.4-0.2-2.2-1.7-2.2-1.6c0.9-0.7-0.4-1.4-1.1-0.9
					c-2.3,1.9,5.3,5.4,6.5,6c4.7,2.3,9.7,3.9,14.9,4.7c10.9,1.8,22.9-0.2,32.8-5c1.7-0.8,3.5-1.7,5-2.9c0.8-0.6,1.8-1.5,1.9-2.6
					C154.2,262.2,152.5,262.4,152.4,263.2L152.4,263.2z"/>
			</g>
		</g>
		<g>
			<g>
				<path class="st15" d="M152.1,266.4c-0.1,0.7-0.9,1.3-1.5,1.8c-1.1,0.9-2.4,1.6-3.6,2.2c-3.8,1.9-7.9,3.2-12,4.2
					c-10.3,2.4-20.8,1.9-30.6-2c-2-0.8-3.9-1.7-5.8-2.7c-0.5-0.3-4.6-2.7-4.1-3.3c0.6-0.5-1.1-0.9-1.5-0.5c-1.6,1.6,6.1,5.3,7.2,5.8
					c4.6,2.2,9.6,3.7,14.6,4.5c10.7,1.7,22.3-0.3,32-4.8c1.7-0.8,3.4-1.7,4.9-2.8c0.8-0.6,1.8-1.4,2-2.4
					C153.9,265.8,152.2,265.7,152.1,266.4L152.1,266.4z"/>
			</g>
		</g>
		<g>
			<g>
				<path class="st16" d="M152.1,269c-0.2,0.7-1,1.3-1.5,1.8c-1.1,0.9-2.3,1.6-3.6,2.2c-3.6,1.9-7.5,3.1-11.5,4.1
					c-10.2,2.5-20.9,2.3-30.7-1.4c-2-0.7-4-1.6-5.9-2.6c-0.5-0.3-4.7-2.6-4.3-3c0.3-0.3-0.9-1.5-1.1-1.3c-0.8,1.1,1.9,3,2.6,3.5
					c1.3,0.9,2.7,1.7,4.1,2.4c4.3,2.2,9,3.8,13.8,4.7c10.6,2,22.3,0.3,32.1-4.1c1.8-0.8,3.5-1.7,5.1-2.8c0.8-0.6,1.8-1.3,2-2.3
					C153.4,269.8,152.2,268.7,152.1,269L152.1,269z"/>
			</g>
		</g>
		<g>
			<g>
				<path class="st17" d="M151.6,272.7c-0.3,0.7-1,1.2-1.6,1.6c-1.1,0.8-2.3,1.5-3.6,2.1c-3.7,1.8-7.7,3.1-11.8,3.9
					c-10,2.1-20.3,1.8-29.8-2c-1.9-0.8-3.8-1.7-5.6-2.7c-0.7-0.4-1.4-0.8-2.1-1.3c-0.4-0.3-0.8-0.6-1.2-0.9
					c-0.2-0.2-0.4-0.3-0.6-0.5c-0.1-0.2-0.3-0.6-0.4-0.4c0.5-0.9-1-1-1.4-0.4c-0.8,1.4,1.7,2.8,2.6,3.4c1.5,1,3,1.8,4.6,2.6
					c4.5,2.1,9.3,3.6,14.3,4.3c10.4,1.5,21.8-0.3,31.2-4.7c1.6-0.8,3.2-1.6,4.7-2.7c0.8-0.6,1.8-1.3,2.2-2.3
					C153.6,271.9,151.9,272.1,151.6,272.7L151.6,272.7z"/>
			</g>
		</g>
		<g>
			<g>
				<path class="st18" d="M151.5,275.3c-1,1.8-3.4,2.9-5.1,3.7c-3.6,1.8-7.4,3-11.3,3.9c-9.9,2.2-20.2,2.1-29.7-1.4
					c-2-0.8-4-1.6-5.9-2.7c-0.7-0.4-1.5-0.8-2.2-1.3c-0.3-0.2-0.6-0.4-0.8-0.6c-0.2-0.1-0.4-0.3-0.6-0.5c-0.2-0.1-0.4-0.3-0.5-0.5
					c-0.2-0.3-0.3-0.3-0.2-0.1c0.2-0.5-1-1.7-1.2-1.2c-0.5,1.4,1.9,2.9,2.8,3.5c1.3,1,2.8,1.8,4.2,2.5c4.3,2.2,9,3.7,13.8,4.5
					c10.1,1.7,21.3,0.1,30.6-4c1.7-0.7,3.4-1.6,5-2.6c0.9-0.6,1.8-1.3,2.3-2.2C153,276,151.8,274.7,151.5,275.3L151.5,275.3z"/>
			</g>
		</g>
		<g>
			<g>
				<path class="st19" d="M151.4,278.4c-1.3,2-4.1,3.2-6.2,4.2c-4,1.8-8.3,3.1-12.7,3.8c-10.4,1.8-21.1,1.1-30.6-3.5
					c-1.6-0.8-3.2-1.7-4.7-2.7c-0.5-0.4-1.1-0.8-1.5-1.2c-0.1-0.1-0.3-0.4-0.4-0.4s0.2,0.2,0.1,0.5c0.1-0.5-0.9-1.7-0.9-1.4
					c-0.5,1.8,2.7,3.6,3.8,4.4c3.6,2.4,7.8,4.1,11.9,5.2c11,3,23.3,1.8,33.7-2.3c2-0.8,3.9-1.7,5.7-2.8c1-0.6,2.1-1.4,2.8-2.4
					C152.5,279.4,151.6,278,151.4,278.4L151.4,278.4z"/>
			</g>
		</g>
	</g>
	<g>
		<g>
			<path class="st20" d="M94.8,251.4c6.8,5.8,14.3,10.9,22.2,15.1c3.9,2.1,7.9,3.9,12,5.6c4.3,1.7,8.8,3.6,13.5,3.7c1,0,1-1.6,0-1.6
				c-4.6-0.1-9.1-2.1-13.3-3.7c-4-1.6-8-3.5-11.8-5.5c-7.7-4.1-14.9-9-21.5-14.6C95.2,249.6,94,250.7,94.8,251.4L94.8,251.4z"/>
		</g>
	</g>
	<polygon class="st21" points="3.8,208.1 3.4,218.6 144.9,287 144.9,276.9 	"/>
	<polygon class="st21" points="144.9,286.8 209.9,254.4 209.9,243.8 144.9,276.7 	"/>
	<g>
		<g>
			<path class="st20" d="M111.7,82.6c1.3-1.9,3.8-2.9,5.8-3.8c2.7-1.2,5.5-2.2,8.3-3.2c2.1-0.7,4.1-1.4,6.1-2.3
				c3.6-1.6,7.5-2,11.1-3.6c0.6-0.3-0.3-0.3-0.6-0.2c-3.6,1.6-7.7,2.1-11.3,3.7c-2.3,1-4.7,1.8-7.1,2.6c-2.7,1-5.5,2-8.1,3.3
				c-1.8,0.9-3.9,1.9-5.1,3.6C110.6,82.9,111.5,82.9,111.7,82.6L111.7,82.6z"/>
		</g>
	</g>
	<g>
		<g>
			<path class="st6" d="M114.3,80.3c0.6-2.6,3.2-3.9,4.9-5.7c0.9-0.9,1.6-2,2.6-2.7c1.2-0.8,2.6-1.4,3.9-2.1
				c0.3-0.1,0.4-0.4,0.1-0.6s-0.8,0-1.1,0.2c-1.4,0.7-2.8,1.3-4.1,2.2c-1.1,0.8-1.9,1.9-2.8,2.9c-1.8,1.9-4.5,3.3-5.1,6.1
				C112.7,81.1,114.2,80.8,114.3,80.3L114.3,80.3z"/>
		</g>
	</g>
	<g>
		<g>
			<path class="st6" d="M115.3,80.8c3.2-1.4,6.1-3.3,8.8-5.6c2.7-2.3,5.6-4.8,9.3-5c0.9,0,1.2-1.2,0.1-1.2c-3.7,0.2-6.7,2.3-9.4,4.6
				c-3,2.5-5.9,4.7-9.5,6.2C113.6,80.2,114.5,81.1,115.3,80.8L115.3,80.8z"/>
		</g>
	</g>
	<g>
		<g>
			<path class="st6" d="M116.2,80.4c2.5-0.2,4.4-1.3,6.5-2.6c5.9-3.5,12.2-6.3,18.5-9c4.1-1.7,8-3.5,11.5-6.1
				c3.1-2.3,5.6-9.5,9-15.4c1.4-2.5,2.7-5,4.3-7.3c0.5-0.8,1-1.5,1.7-2.2c0.2-0.2,0.5-0.4,0.7-0.5s0.4-0.1,0.4-0.1
				c0.8,0,1.6-1.1,0.5-1.1c-1.4-0.1-2.5,0.9-3.4,1.9c-1.4,1.6-2.4,3.5-3.4,5.3c-3.3,5.6-6.4,11.3-10.3,16.5
				c-4.8,6.3,0.5,2.6-6.6,6.1c-4.5,2.2-9.2,3.9-13.7,6c-2.7,1.3-5.5,2.6-8.1,4.1c-1.4,0.8-2.8,1.7-4.2,2.5c-1.1,0.5-1.9,0.8-3.2,0.9
				C115.4,79.3,115.1,80.5,116.2,80.4L116.2,80.4z"/>
		</g>
	</g>
	<g>
		<g>
			<path class="st6" d="M113,80.5c-0.8-1.2-0.5-2.9,0.1-4.1c0.7-1.4,1.9-2.3,3.3-2.9c3-1.5,6.2-2.8,9.3-4.2c0.3-0.1,0.6-0.5,0.4-0.8
				s-0.8-0.2-1.1-0.1c-1.8,0.8-3.6,1.6-5.4,2.5c-1.7,0.8-3.5,1.4-5.1,2.4c-2.4,1.5-4.9,5.1-3,7.9C111.9,81.7,113.4,81.1,113,80.5
				L113,80.5z"/>
		</g>
	</g>
	<g>
		<g>
			<path class="st20" d="M114.9,78.9c5.9-2.9,11.9-5.5,18-7.9c1-0.4,1.6-0.8,2.3-1.6c0.7-0.9,1.5-1.7,2.4-2.4c2.6-1.9,5.8-2.3,8.5-4
				c1.9-1.2-7.6,6.7-5.9,5.2c11.2-10.1,20.9-21.6,32.3-31.4c3-2.6,6.2-5.1,9.6-7.3c2.6-1.7,5.5-3.3,8.5-3.9c0.7-0.1,1.3-0.9,0.3-0.7
				c-6,1.2-11.3,5-15.9,8.7c-6.3,5-12,10.6-17.7,16.2c-5.3,5.3-10.4,10.7-15.8,15.9c-2,1.9-4,3.8-6.1,5.4c-0.7,0.6,9.7-8.3,8.8-7.8
				c-1.4,0.7-3.1,1.1-4.6,1.8c-1.7,0.8-3.4,1.8-4.7,3.1c-0.6,0.6-1.1,1.6-1.9,2.1c-1.1,0.7-2.7,1.1-4,1.6c-1.8,0.7-3.5,1.5-5.3,2.2
				c-3.3,1.4-6.5,2.9-9.7,4.5C113,79.1,114.5,79.1,114.9,78.9L114.9,78.9z"/>
		</g>
	</g>
	<g>
		<g>
			<path class="st6" d="M113.3,81.4c2.9-0.5,5.7-2.2,8.2-3.7c3.5-2.1,6.9-4.3,10.4-6.4s7.1-4.2,10.9-5.6c1.5-0.5,3.1-1,4.6-1.1
				c1-0.1,2,0,3-0.2c2.3-0.6-0.1,2.2,2.2,0c5.5-5.1,10.6-10.5,16-15.6c2.6-2.5,5.3-5,8.2-7.2c1.8-1.4,4.1-3.1,6.5-3.4
				c0.9-0.1,1.2-1.3,0.1-1.2c-2.1,0.2-4.1,1.4-5.8,2.5c-2.5,1.7-4.8,3.7-7.1,5.7c-5.5,5-10.6,10.4-15.9,15.5c-2.5,2.4-5,4.8-7.7,7
				c-2,1.6,7.1-6.2,4.8-5.1c-2.1,0.9-4.4,0.6-6.6,1.1c-3.7,0.9-7.1,2.7-10.4,4.5c-4.1,2.3-8,4.9-12,7.3c-2.9,1.8-6.1,4-9.5,4.6
				C112,80.4,112.4,81.6,113.3,81.4L113.3,81.4z"/>
		</g>
	</g>
	<g>
		<g>
			<path class="st6" d="M117.8,77.1c2-2.2,3.7-4.7,6-6.5c0.7-0.5,1.4-0.9,2.1-1.4c1.1-0.8,2.2-1.7,3.3-2.6c4.5-3.7-2.2,1.9,2.2-1.8
				c12.9-11,25.6-22.3,37.8-34c5.9-5.7,11.8-11.6,17-18c0.4-0.5-1.1-0.3-1.4,0c-4.5,5.6-9.6,10.7-14.7,15.8
				c-6.3,6.2-12.8,12.2-19.4,18.1c-10.8,9.7-10.6,9.8-21.7,18.9c-1.3,1.1-2.7,2.2-4.1,3.3c-0.2,0.1-0.3,0.2-0.5,0.3
				c-0.2,0.1,0.1-0.1,0,0c-0.6,0.4-1.2,0.8-1.7,1.2c-2.4,1.9-4.2,4.5-6.3,6.7C116,77.5,117.5,77.4,117.8,77.1L117.8,77.1z"/>
		</g>
	</g>
	<g>
		<g>
			<path class="st6" d="M113,78.4c3.2-1,5.5-3,8-5.2c0.8-0.7,1.7-1.2,2.5-1.8c2.1-1.3,4.1-2.7,6.2-4.1c8.4-5.8,5.5-2.3,13.6-8.4
				c10.2-7.6,20-15.7,29.6-23.9s19.4-16.2,29.3-24.1c4-3.2,8-6.3,12.1-9.3c0.7-0.6,1.5-1.1,2.2-1.6c0,0,0.5-0.4,0.2-0.1
				c-0.4,0.3,0.2-0.2,0.3-0.2c0.2-0.2,0.5-0.4,0.7-0.5c0.4-0.3,0.8-0.6,1.2-0.8c0.1-0.1,0.3-0.2,0.4-0.2c0.5-0.3-0.8,0.3-0.4,0.2
				c0.9-0.3,2.5-1.4,1.6-2.5c-0.8-1.1-3.1-0.4-4.1-0.1c-1.9,0.7-3.8,2.4-5.4,3.6c-3.3,2.4-6.5,4.9-9.7,7.4
				c-9.5,7.4-18.8,15-27.9,22.7c-9.9,8.3-19.6,16.7-29.7,24.5c-8.5,6.5-5.9,3.3-14.5,9.4c-2.8,1.9-5.6,3.9-8.5,5.8
				c-0.6,0.4-1.2,0.8-1.7,1.1c-1.4,0.9-2.7,2-3.9,3.1c-0.6,0.5-1.1,1-1.7,1.4c-0.2,0.2-0.4,0.3-0.6,0.4c0,0-0.8,0.4-0.5,0.3
				c-0.9,0.3-3,1-2.7,2.4C109.8,79,112.2,78.7,113,78.4L113,78.4z"/>
		</g>
	</g>
	<g>
		<path class="st20" d="M113.9,80.8c4.6-4.6,9.9-8.6,15.6-11.8c2.6-1.5,5.4-2.7,8.1-3.9c0.6-0.2,1.1-0.6,1.6-0.9
			c1.7-1.1-7.9,7-6.4,5.7c3-2.5,5.9-5.1,8.8-7.7c8.9-8.1,17.6-16.6,25.9-25.1c8.2-8.5,17.8-15.6,26.3-23.5c3.8-3.5,8-8.3,12.2-11.3
			c1.7-1.2,11-6,11.1-6.5s-0.8-0.4-1-0.4c-3.8,0.5-7.3,2.3-10.4,4.3c-4.1,2.6-7.9,5.6-11.5,8.8c-8.9,7.8-17.1,16.4-25.2,24.8
			c-8.6,8.9-17.3,17.6-26.2,25.9c-3.3,3.1-6.6,6.1-10.1,9c-1.9,1.6,7.4-6.2,5.4-4.7c-0.3,0.2-0.6,0.4-0.9,0.6
			c-0.1,0-0.1,0.1-0.2,0.1c-0.1,0,0.3-0.2,0,0c-0.1,0.1-0.2,0.1-0.3,0.2c-0.1,0-0.2,0.1-0.2,0.1c-0.2,0.1,0.2-0.1,0.2-0.1
			c0,0.1-0.4,0.2-0.5,0.2c-1.6,0.6-3.1,1.3-4.6,2.1c-6,2.9-11.5,6.6-16.5,11c-1.2,1.1-2.4,2.2-3.5,3.3c-0.4,0.4,0.4,0.6,0.6,0.6
			C112.8,81.5,113.4,81.2,113.9,80.8L113.9,80.8z"/>
	</g>
	<g>
		<g>
			<path class="st20" d="M106.6,86.2c0.8-1.9,1.6-3.7,2.6-5.5s2-3.7,3.4-5.1s3.2-2,4.9-3c1.7-1,3.2-2.1,4.7-3.4
				c0.6-0.6-0.9-0.4-1.2-0.1c-1.6,1.4-3.2,2.6-5.1,3.6c-1.6,0.9-3.4,1.6-4.7,3c-1.4,1.4-2.3,3.2-3.3,4.9c-1.1,1.9-2,3.9-2.8,5.9
				C104.9,86.8,106.4,86.6,106.6,86.2L106.6,86.2z"/>
		</g>
	</g>
	<g>
		<g>
			<path class="st20" d="M102.8,92.5c4.9-5.6,11.5-9.1,18.1-12.4c2.2-1.1,4.1-2.3,6.2-3.7c7.2-5.3,3.1-1.4,10.1-7
				c9.4-7.4,18.7-14.9,27.8-22.5c4.4-3.6,8.7-7.4,13-11.1c6.1-5.1,12.6-9.9,19.2-14.4c5.4-3.7,10.9-7.3,16.2-11.2
				c4-2.9,8-6,11.1-9.8c0.6-0.8,1.2-1.5,1.7-2.4c0.1-0.2-1.3-0.1-1.5,0.3c-2.5,4.1-6.3,7.2-10,10.1c-5,3.8-10.3,7.3-15.5,10.9
				c-6.1,4.2-12.2,8.4-18,13.1c-4.9,3.9-9.6,8.1-14.4,12.1c-9.1,7.7-18.4,15.2-27.6,22.6c-7.5,5.9-3.8,2.5-11.5,8.2
				c-1.6,1.2-3.5,2.7-5,3.6c-2.8,1.5-5.8,2.8-8.7,4.4c-3,1.7-5.9,3.5-8.5,5.7c-1.4,1.1-2.6,2.4-3.8,3.7
				C101.1,93,102.6,92.8,102.8,92.5L102.8,92.5z"/>
		</g>
	</g>
	<g>
		<g>
			<path class="st20" d="M91.7,92.1c4.5-3.6,9.9-6,15.1-8.2c5.6-2.4,11.3-4.4,16.9-6.7c2.2-0.9,4.3-1.9,6.4-3
				c2.5-1.4,4.8-3.4,7.1-5.2c3.1-2.4,6.2-4.8,9.5-6.9c3.4-2.1-4.2,5.8-0.5,4.4c3.8-1.4,6.9-3.5,9.9-6.1c3.4-2.9,6.7-5.9,10.1-8.8
				c3.3-2.9,6.7-5.9,10-8.8c3.1-2.7,6.1-5.5,9.7-7.5c2.4-1.4,5.1-2.5,7.1-4.4c0.8-0.8,1.6-1.6,2.3-2.5c2.7-3.1,5.4-6.2,8.1-9.3
				c3.2-3.7,6.4-7.4,9.7-11.1c2.3-2.6,4.6-5.3,7.1-7.7c0.2-0.2,0.3-0.3,0.5-0.5s0.4-0.3,0.3-0.2c1.3-1-0.7-1.5-1.6-0.9
				c-2.2,1.7-4,4-5.9,6c-3.2,3.5-6.3,7.1-9.4,10.6c-3,3.4-5.9,6.9-8.9,10.3c-1,1.2-2.1,2.3-3.1,3.5c-0.3,0.4-0.7,0.7-1,1.1
				c-0.1,0.1-0.2,0.2-0.3,0.3s-0.1,0.1,0,0c-0.4,0.3-0.8,0.6-1.3,0.9c-1.7,1.1-3.5,2-5.2,3s-3.4,2.2-4.9,3.4
				c-3.3,2.7-6.5,5.6-9.7,8.4c-3.3,2.9-6.7,5.9-10,8.8c-3.2,2.8-6.3,5.9-9.8,8.2c-3.4,2.2-7.4,3-11,4.7c-3.5,1.7,4.5-5.6,1.4-3.3
				c-4.8,3.5-9.2,7.7-14.6,10.2c-10.7,4.9-22.3,7.9-32.2,14.3c-1.1,0.7-2.1,1.4-3.2,2.2C88.8,92.3,90.8,92.8,91.7,92.1L91.7,92.1z"
				/>
		</g>
	</g>
	<g>
		<path class="st5" d="M76.6,102.4c4.9-7.2,8.1-4.7,14.8-10.3c0.6-0.5,1.2-1,1.8-1.5c-0.7,0.5,0.2-0.1,0.4-0.3
			c0.4-0.3,0.7-0.5,1.1-0.8c1.2-0.8,2.3-1.6,3.6-2.4c2.1-1.3,4.2-2.5,6.3-3.6c1.8-0.9,3.5-1.9,5.2-2.9c2.1-1.3,3.8-2.9,5.6-4.5
			c5.8-5.2,11.6-9.7,18.4-13.8c0.2-0.1-10.7,9.1-10.5,9c0.5-0.3,0.6-0.6-0.1,0.1c0.6-0.6,1.8-0.9,2.6-1.2c1.7-0.8,3.4-1.7,5-2.8
			c2.5-1.7,4.6-3.9,6.8-5.9c0.7-0.7,1.5-1.3,2.2-2c0.2-0.1,1.1-0.9,0.6-0.5c0.5-0.3,0.9-0.7,1.4-1c1.8-1.2,3.6-2.3,5.3-3.7
			c1.5-1.3,2.3-2.8,3.4-4.4c1.1-1.6,2.3-3.2,3.4-4.8c1-1.4,2-2.9,2.8-4.4c0.2-0.4,0.4-0.7,0.7-1c0.4-0.4-0.5,0.5,0.2-0.2
			c0.1-0.1,0.3-0.3,0.4-0.4c0.2-0.1,0.3-0.3,0.5-0.4c-0.1,0.1-0.6,0.4,0,0c0.4-0.3,0.8-0.5,1.2-0.8c0.5-0.3-0.6,0.3-0.1,0
			c0.2-0.1,0.4-0.2,0.6-0.3c0.5-0.2,0.9-0.4,1.4-0.6c0.4-0.2,0.9-0.3,1.3-0.5c0.2-0.1,0.8-0.3-0.1,0c0.3-0.1,0.6-0.2,0.8-0.3
			c2.2-0.7,4.3-1.4,6.4-2.2c4.9-1.9,8.7-5.5,12.6-9c5.2-4.7,10.4-9.5,15.9-13.9c0.4-0.3,0.8-0.6,1.2-0.9c0.1-0.1,0.6-0.5,0.3-0.2
			c-0.3,0.2,0.2-0.2,0.3-0.2c0.8-0.6,1.5-1.1,2.3-1.7c1.5-1.1,3.1-2.2,4.7-3.2c0.8-0.5,1.6-1,2.4-1.4c0.4-0.2,0.7-0.4,1.1-0.6
			c0.2-0.1,0.4-0.2,0.6-0.3c0.4-0.2-0.6,0.3,0.1,0c1.5-0.8,3.1-1.5,4.7-2.1c0.1,0,0.4-0.2,0.6-0.2c-0.6,0-0.6,0.2-0.2,0.1
			s0.8-0.3,1.2-0.4c0.8-0.2,1.5-0.4,2.3-0.6c1.3-0.3,4-1.6,3.5-3.3c-0.5-1.8-3.4-1.3-4.7-1.1c-7.5,1.5-14.4,5.5-20.5,9.8
			c-6.3,4.4-12.2,9.5-17.9,14.7c-2.3,2.1-4.6,4.2-7,6.3c-0.9,0.8-1.8,1.6-2.8,2.4c-0.2,0.2-0.4,0.3-0.6,0.5
			c-0.1,0.1-0.2,0.1-0.3,0.2c-0.4,0.4,0.3-0.3,0.3-0.3c-0.2,0.3-0.8,0.6-1.1,0.8c-0.5,0.3-1.4,0.6-0.1,0.1c-0.9,0.3-1.7,0.7-2.6,1.1
			c-0.2,0.1-0.4,0.2-0.7,0.2c-0.6,0.2,0.7-0.2,0.1,0c-0.5,0.1-0.9,0.3-1.4,0.5c-1,0.3-2,0.7-3,1c-4.3,1.5-8.7,3.3-11.7,7
			c-1,1.3-1.8,2.9-2.7,4.3c-1.1,1.6-2.4,3.2-3.5,4.8c-0.5,0.7-1,1.4-1.4,2.1c-0.5,0.8-0.8,1.4-1.2,1.8c-0.2,0.2-0.3,0.3-0.5,0.4
			c-0.1,0.1-0.6,0.5-0.3,0.3s-0.3,0.2-0.3,0.2c-0.2,0.2-0.5,0.3-0.7,0.5c-0.8,0.6-1.7,1.1-2.6,1.7c-3.2,2.1-5.9,4.9-8.7,7.5
			c-0.4,0.4-0.9,0.8-1.3,1.2c-0.3,0.3-0.7,0.6-0.1,0.1c-0.3,0.2-0.6,0.5-0.9,0.7c-0.6,0.4-1.3,0.8-2,1.2c-0.1,0.1-0.7,0.4-0.2,0.1
			s-0.2,0.1-0.3,0.1c-0.5,0.3-1,0.5-1.5,0.7c-6.9,3.3-1.8-1.4-7.7,3.4c-1.7,1.3-3.3,2.7-4.9,4.2c-0.1,0.1-2.9,2.3-2.8,2.5
			c0-0.1,0.8-0.6,0.3-0.2c-0.1,0.1-0.2,0.1-0.3,0.2c-0.2,0.1-0.3,0.2-0.5,0.4c-0.4,0.3-0.8,0.5-1.2,0.8c-0.8,0.5-1.7,1-2.5,1.5
			c-4.4,2.4-8.8,4.8-12.9,7.7c-6.8,4.9-12.6,3.9-17.7,10.5c-1.6,2.1-2.7,4.7-4.2,6.9c-1.1,1.6,0.4,2.1,1.8,2.1
			c1.9,0,4.8-2.9,4.8-2.9L76.6,102.4z"/>
	</g>
	<g>
		<g>
			<path class="st19" d="M118.5,81.8c10.9-7.5,10.6-5.6,21.8-12.6c5.3-3.3,10.8-6.3,15.8-10c2.4-1.8,4.6-3.8,6.9-5.7
				c2.1-1.8,4.2-3.5,6.2-5.4c0.9-0.9,1.8-1.9,2.6-2.9c0.4-0.6,0.9-1.2,1.2-1.8c0.1-0.2,0.3-0.4,0.4-0.7c0,0.1,0.5-0.9,0.2-0.4
				c-0.3,0.4,0.2-0.3,0.3-0.4c0.2-0.2,0.4-0.4,0.5-0.6c0.2-0.2,0.5-0.5,0.7-0.7c-0.5,0.5,0.5-0.5,0.7-0.6c3-2.6,6.2-4.9,9.3-7.2
				c2.5-1.9,5.3-3.8,7.4-6.2c2.5-3,5-5.8,7.7-8.5c3.7-3.6,7.6-7.1,11.7-10.2c1-0.7,2-1.4,3-2.1c0.5-0.4,1-0.7,1.6-1
				c0.2-0.1,0.3-0.2,0.5-0.3c0.3-0.2,0.3-0.2,0.1-0.1c0.1-0.1,0.3-0.1,0.4-0.2c0.9-0.5,1.9-1,2.8-1.5c0.5-0.2,0.9-0.4,1.4-0.6
				c-0.1,0-0.7,0.2-0.1,0.1c0.3-0.1,0.6-0.2,0.9-0.3c1.2-0.3,2.9-1.4,2.5-2.9s-2.5-1.6-3.6-1.3c-4.1,1.2-7.8,3.4-11.3,5.8
				c-3.9,2.7-7.5,5.8-11,9c-3.3,3-6.5,6.2-9.4,9.6c-1,1.1-1.8,2.3-2.8,3.4c-0.1,0.1-0.2,0.2-0.3,0.3c-0.3,0.3,0.6-0.5,0.1-0.1
				c-0.3,0.2-0.5,0.5-0.8,0.7c-0.7,0.6-1.4,1.1-2.1,1.7c-3.1,2.5-6.4,4.8-9.5,7.3c-2.6,2.1-5.2,4.2-6.9,7.1
				c-1.3,2.2-3.2,3.9-5.1,5.5c-2.1,1.8-4.3,3.6-6.4,5.5c-4.6,4-9.9,7-15.1,10.2c-12.9,7.8-14,6.9-26.3,15.4
				c-1.1,0.7-1.5,2.3-0.3,3.1C115.4,83,117.3,82.6,118.5,81.8L118.5,81.8z"/>
		</g>
	</g>
	<g>
		<path class="st20" d="M74.1,98.1c3.8-6.5,9.1-4.9,15.2-9.3c5.2-3.8,10.9-6.7,16.9-9.2c4.1-1.7,7.8-2.8,12-4.4
			c0.5-0.2,1-0.4,1.5-0.6c0.8-0.4,1.2-0.9,1.8-1.6c3.3-3.6,6-7.9,9.5-11.5c2.8-2.9,5.5-5.9,9.1-8c3.1-1.7,6.4-2.9,9.6-4.5
			c1.8-0.9,3.5-1.9,5.1-3c1.2-0.9,2.3-1.8,3.4-2.8c2.7-2.4,5.2-5.1,7.5-7.8c1-1.2,2-2.4,2.9-3.7c0.3-0.5,0.6-1,0.9-1.5
			c0-0.1,0.1-0.2,0.1-0.2c-0.1,0.2-0.1,0.1,0,0s0.1-0.1,0.2-0.2l0.1-0.1c0.1-0.1-0.2,0.2,0,0s0.4-0.3,0.6-0.5
			c0.6-0.4,1.2-0.8,1.7-1.2c2-1.5,3.9-3.1,5.8-4.8c3.2-2.9,9.3-6.2,12.1-9.5c3.2-3.7,5.7-7.2,9.4-10.5c4.5-4,9.6-7.7,14.8-10.8
			c0.2-0.1,1.4-0.2,1.6-0.3c-0.1,0-1,0-1,0c0.4-0.2-1.6-0.7-2-1.2c-0.3-0.5-1.2-0.4-1.6-0.1c-3.8,2.1,0.7-3.4-2.7-0.7
			C200-9.9,189.1,3.8,186,6.9c-3.6,3.6-2.1,7.6-5.6,11.3c-2.3,2.4-4.7,4.8-7.3,6.9c-1.4,1.1-2.8,2.1-4.2,3.1c-0.4,0.3-0.9,0.6-1.2,1
			c-0.5,0.5-1.9,1.2-2.3,1.8c-1.8,2.8-7.5,5.2-9.8,7.6c-2.2,2.3-8.4,6.4-8.4,6.4l-4.2,5.2c0,0-6.5,3.3-9.3,5.7
			c-1.7,1.5-3.2,3.2-4.8,4.9c-1.7,1.8-3.4,3.5-5.1,5.2c-3.6,3.6,4-2.3,0.5,1.3c-1.6,1.7-3.3,3.3-4.9,5.1c-0.2,0.3-0.6,0.5-0.8,0.8
			c0.1-0.1,0.2-0.2,0,0s0.2-0.1,0,0c-0.1,0-0.2,0.1-0.3,0.1c-0.5,0.2-1.1,0.4-1.6,0.6c-0.1,0-0.4,0.1,0,0c-0.1,0-0.1,0.1-0.2,0.1
			c-0.2,0.1-0.4,0.1-0.6,0.2c-0.4,0.1-0.9,0.3-1.3,0.4c-2.2,0.8-4.4,1.5-6.5,2.4c-5.8,2.2-11.5,4.9-16.7,8.2
			c-6.2,3.9-11.9,1.8-16.3,7.7c-1.2,1.6-2.3,3.2-3.3,4.9c-0.3,0.5,0.3,0.9,0.7,0.9C73.1,98.9,73.8,98.7,74.1,98.1L74.1,98.1z"/>
	</g>
	<g>
		<path class="st5" d="M76.8,102.9c0,0,3.9-0.6,11.8-4.5c3.4-1.7,7.8-0.7,10.9-2.9c1.4-0.9,2.7-2,3.9-3.1c1.4-1.4,2.6-2.8,4-4.1
			c6.8-6.3,14.9-11,22.2-16.5c2.1-1.6,4.2-3.4,6.3-5c1.3-1,2.8-1.6,4.3-2.1c3.8-1.4,0.4,5.6,0.4,5.6s3.2-1.1,4.7-2
			c1.1-0.6,2-1.3,3-2c2.8-2,6.5-3.1,9.2-5.1c2.9-2.1,6.2-5.3,9.2-7.2c1-0.6,13-6.1,22.7-14.8s9.1-5.5,17.8-16.6s7.7-8.1,11.8-12
			c2.2-2,4.7-4.1,6.9-6c1.5-1.3,2.9-2.9,4.4-3.9c-0.1,0-1-1.5-1.4-1.5c-1.6-0.1-6.4-2.3-7.6-1.4c-2,1.5-1.3,1.1-3.2,2.8
			c-4.6,4.2-11.3,16-15.7,20.4c-1.6,1.6-3.5,2.1-5.1,3.7c-1.7,1.7-4.4,4.6-5.3,5c-1.2,0.5-2.1,6.1-3.2,5.6c-4.4-2.1-6,3.3-6.9,4.1
			c-1.8,1.8-3.9,2.4-6,3.7c-1,0.6-1,2.2-2.1,2.9c-1.3,0.8-11.7,8.4-14.2,10.1c-3.1,2.2-6.1,4.5-9.2,6.8c-2.2,1.6-4.4,1-6.8,2.3
			c-3.2,1.8-6.9,3.5-10.3,4.5c-3.6,1.1,3.8-7.3,0.7-5.1c-2.2,1.6-4.2,3.5-6.3,5.1c-2.1,1.6-4.3,2.5-6.4,4.1
			c-3.8,2.6-7.6,5.3-11.2,8.1c-1.7,1.3-4.2,3.7-5.7,5.1c-1.4,1.3-2.9,2.6-4.2,4c-0.2-0.4-8.6,3.2-8.4,3.6
			c-0.2-0.5-21.6,8.6-21.4,9.1c-1.8,1.4-1.4-3-1-3.5L76.8,102.9z"/>
	</g>
	<path class="st22" d="M71.3,174.1L3.4,207.6l141.5,69.3l0,0l64.9-33L71.3,174.1z M112.1,252.2c-22.3-5-28-10-28.3-18.2
		c-0.4-8.3,18-15.3,38.8-15.3s37.7,7.4,37.7,16.6C160.2,244.4,134.3,257.2,112.1,252.2z"/>
	<g>
		<path class="st23" d="M161.6,235.7c0,8.8-16.6,19.2-36.3,19.2s-39.8-7.2-39.8-16c0-8.8,13.7-21.7,33.4-21.7
			C150.6,217.2,161.6,226.9,161.6,235.7z"/>
		<path class="st24" d="M123.1,217c-22,0-39.7,8.1-39.7,18.1s16.9,20,38.8,20s40.6-10,40.6-20C162.8,225,145.1,217,123.1,217z
			 M123.1,249.8c-19.1,0-34.4-6.8-34.4-15.3c0-8.4,15.4-15.3,34.4-15.3s34.4,6.9,34.4,15.3C157.5,243,142.2,249.8,123.1,249.8z"/>
	</g>
	<g>
		<path class="st22" d="M152.8,238.5c0.5-0.2,0.5-2.8,0.5-2.8s0.7-10.5-1.4-25.4c-2.7-19-12.5-24.3-12.5-24.3l0.2-42l-34.1,0.4
			l0.5,41.3c0,0-9.4,8.1-10.8,19.7c-1.5,11.6-3.8,27.6-0.8,34.3"/>
		<ellipse class="st22" cx="122.6" cy="144.7" rx="17.3" ry="8.7"/>
		<path class="st25" d="M139.5,185.7c0,3.5-7,8.7-16.5,8.7s-17-5.2-17-8.7"/>
		<ellipse class="st4" cx="122.7" cy="144.7" rx="10" ry="5.1"/>
		<ellipse class="st4" cx="122.7" cy="137.8" rx="10" ry="5.1"/>
		<path class="st21" d="M112.7,138v6.7c0,0,0.2,5.6,10.6,5.3s9.3-5.3,9.3-5.3v-6.9c0,0-1.2,4.7-9.8,4.8
			C114.3,142.7,112.7,138,112.7,138z"/>
	</g>
	<g>
		<path class="st19" d="M145.9,67.4c-6.1,0.6-11.9,2.6-17.4,5.5c-5.1,2.6-9.8,5.9-14.7,8.7c-0.5,0.3-1.1,0.6-1.6,0.9
			c-0.4,0.2,0.4-0.2-0.1,0c-0.1,0.1-0.2,0.1-0.3,0.2c-0.5,0.3-1,0.5-1.6,0.7c-0.3,0.1-0.5,0.2-0.8,0.3c-0.6,0.2,0.1,0-0.5,0.2
			s-1.2,0.4-1.8,0.6c-2.7,0.8-5.5,1.6-8.2,2.5c-7.8,2.6-14.8,6.7-20.9,12.1c-4.3,3.8-15.7,8.5-16.6,10c-0.3,0.4-0.5,0.8-0.8,1.2
			c-0.5,0.8-1,0.9-1.9,1.8c-0.9,0.9-1.2,2.5-1.9,3.3c-0.6,0.7-1.1,0.6-1.7,1.3c-0.8,1-1.3,2-2,3.1c-0.6,0.8-1.1,1.8-1.9,2.5
			c-1.9,1.8-2.4,2.6-3,4.1s-0.1,1.1-1.6,3.7c-0.3,0.5-0.6,1.2-0.9,1.9c-0.6,1.5-1.6,3.9-2.2,6c-0.7,2.6-0.6,4.4-0.9,5.4
			c-0.3,1.1-0.8,2.8-0.9,3.4c-0.2,1-0.3,1.6-0.8,2.9c-0.5,1.2-0.5,3.2-0.7,4.6c-0.3,1.7-1,3-0.5,4.8s-0.3,2.6-0.5,3.9
			c-0.1,1.2-0.2,2.3-0.3,3.5c-0.1,1.9-0.7,4.2,0,5.8s-0.4,3.9,0.4,6.2c0.9,2.2,0.3,1.9,0.5,3.1c0.2,1.2,0,3.2,0.6,4.1
			c0.6,0.9,1.1,6.1,2,7.3s0.9,2.6,1.3,3.9c0.4,1.2,1.1,1.6,1.4,3.6c0.3,2.1,3.4,5.6,3.7,7.3c0.3,1.8,2.9,5.8,4.5,6.8s1.9,2.4,3,3.6
			c0.6,0.6,0.7,1.4,1.7,1.9s3.7,4.3,5.1,4.6s5.3,4.2,6.6,4.7c1.2,0.4,5.4,3.5,6.3,3.4s3,1.4,4.3,2.4c2.4,1.7,4.7,3.8,7.3,5.3
			c0.8,0.5,2.1,0.2,2.9-0.3c0.6-0.4,1.2-1.2,0.3-1.7c-2.6-1.5-4.8-3.5-7.3-5.3c-2.2-1.6-7.3-3.8-7.3-3.8l-2.8-1.4
			c-1.2-2.1-6.2-3.3-6.6-4.9c-0.4-1.6-5.8-4.2-5.6-5.3s-3.5-3.3-3.8-4.5s-4.6-5-4.5-6.2c0.2-1.2-3.3-5.7-3.2-6.6
			c0-2.3-3.1-6.2-3.1-7.8c0.1-1.6-1.1-3.7-1.6-5.6c-0.3-1.1-0.5-2.2-0.7-3.2c-0.4-2.1-1.4-5-1-6.3s-0.4-4.8-0.4-5.9
			c-0.1-1.1-0.3-5.2,0-6.6s0.2-2.8,0.3-4.2c0.1-1,0.2-2,0.4-3c0.2-1.3-0.2-2.1,0.6-3.9c0,0,0.6-3.5,0.9-5.3c0.3-1.6,0.4-2.7,0.8-4.3
			c0.4-2,1.6-4.8,2.1-6.7c0.7-2.5,0.6-4.4,1.7-6.7c0.3-0.7,0.8-1.9,1.8-3c1.1-1.1,2.1-3.3,2.5-4.2c1.5-2.9,1.9-1.7,3.7-5.1
			c0.8-0.9,0.9-1.9,2.7-3.1c1.8-1.2,2.3-1.3,3.7-3.2c1.8-2.5,4.4-4,6.5-6.3c5.7-6.4,16.9-11.9,24.9-15.3c2.9-1.2,5.3-2,8.4-2.9
			c2.5-0.7,5.1-1.4,7.6-2.4c3.8-1.5,7.2-3.9,10.6-6c4.7-2.9,9.4-5.8,14.6-7.6c2.7-1-9.4,1.8,8.3-1.9
			C162.8,66.3,146.5,67.4,145.9,67.4L145.9,67.4z"/>
	</g>
	<g>
		<g>
			<g>
				<path class="st5" d="M147.8,200.6c0.4,0.4-0.2,1.3-0.4,1.7c-0.7,1-1.6,1.9-2.6,2.7c-3.3,2.7-7.4,4.3-11.6,5.2
					c-6.3,1.4-12.9,1.1-19.1-0.1c-4.6-0.9-9.2-2.3-13.2-4.8c-1.3-0.8-2.7-1.7-3.7-2.9c-0.3-0.4-1.2-1.4-0.9-2
					c0.3-0.6-1.3-0.1-1.5,0.3c-0.9,1.7,2.5,4,3.5,4.7c4.1,2.8,9,4.5,13.8,5.5c11,2.3,24.1,1.8,33.2-5.4c0.9-0.7,5.2-4.1,3.7-5.7
					C148.9,199.4,147.4,200.2,147.8,200.6L147.8,200.6z"/>
			</g>
		</g>
		<g>
			<g>
				<path class="st26" d="M148.3,203.1c1,1.1-2.6,3.9-3.2,4.4c-3.4,2.7-7.6,4.3-11.9,5.3c-6.2,1.4-12.7,1.1-18.9,0
					c-4.8-0.9-9.6-2.4-13.8-4.9c-1.4-0.8-2.7-1.8-3.8-3c-0.3-0.4-1.2-1.3-0.9-1.8c0.4-0.6-1.2-0.5-1.5-0.1c-1.1,1.7,2.5,4.1,3.5,4.7
					c4.1,2.8,9,4.5,13.8,5.6c11.2,2.4,24.5,2,34-5.1c1.3-1,2.7-2.1,3.6-3.5c0.4-0.6,1.1-1.7,0.5-2.4
					C149.4,202,147.8,202.6,148.3,203.1L148.3,203.1z"/>
			</g>
		</g>
		<g>
			<g>
				<path class="st27" d="M149,205.8c-0.1-0.2,0-0.1-0.1,0.3c-0.1,0.4-0.4,0.8-0.7,1.1c-0.9,1.1-2,2-3.1,2.8
					c-3.7,2.6-8,4.3-12.3,5.2c-6.2,1.4-12.6,1.2-18.8,0.1c-4.8-0.9-9.6-2.3-13.8-4.7c-1.4-0.8-2.8-1.7-4-2.9
					c-0.3-0.3-0.7-0.7-0.9-1.1c-0.1-0.2-0.1-0.3,0-0.4c0.5-0.6-0.9-1.7-1.3-1c-1.3,1.7,2.4,4.4,3.4,5.1c4,2.9,8.8,4.6,13.5,5.8
					c11.5,2.8,25,2.3,35-4.7c1.3-0.9,5.9-4.1,4-6.2C149.5,204.4,148.3,204.9,149,205.8L149,205.8z"/>
			</g>
		</g>
		<g>
			<g>
				<path class="st28" d="M149.7,208.1C149.4,207.7,149.7,207.9,149.7,208.1c-0.2,0.2-0.2,0.4-0.2,0.5c-0.2,0.4-0.5,0.8-0.8,1.2
					c-0.9,1.1-2.1,2-3.3,2.8c-3.8,2.6-8.3,4.3-12.8,5.3c-6.2,1.3-12.5,1.3-18.7,0.2c-5-0.8-9.9-2.3-14.4-4.7c-0.6-0.4-6-3.3-4.8-4.6
					c0.3-0.3-1-1.4-1.2-1.1c-1.3,1.4,2.7,4.3,3.5,4.9c3.9,2.8,8.5,4.6,13.1,5.8c11.8,3.1,25.3,2.6,35.8-4.2c1.4-0.9,6.2-3.9,4.3-6.1
					C150,207.5,149,207.2,149.7,208.1L149.7,208.1z"/>
			</g>
		</g>
		<g>
			<g>
				<path class="st29" d="M150.4,210.6c-0.3-0.4-0.1,0.1-0.2,0.5c-0.2,0.4-0.5,0.8-0.8,1.2c-1,1.1-2.2,2-3.4,2.8
					c-3.9,2.6-8.4,4.2-12.9,5.3c-11,2.5-23.6,0.9-33.5-4.3c-0.7-0.3-6.6-3.4-5.2-4.7c0.2-0.2-1-1.4-1.1-1.2
					c-1.3,1.2,2.7,4.3,3.4,4.8c3.8,2.8,8.5,4.7,13.1,5.9c12,3.2,25.7,2.7,36.5-3.9c1.5-0.9,6.6-3.9,4.6-6.1
					C150.5,210.3,149.6,209.7,150.4,210.6L150.4,210.6z"/>
			</g>
		</g>
		<g>
			<g>
				<path class="st30" d="M150.5,213.7c0.2,0.3-0.4,1.2-0.8,1.6c-1,1.1-2.3,2-3.6,2.8c-4.2,2.6-9,4.2-13.8,5.1
					c-10.9,2.1-23.4,0.4-33.1-5.1c-1.5-0.8-3-1.7-4.2-2.9c-0.4-0.3-0.7-0.7-0.9-1.2c-0.1-0.1-0.1-0.3-0.1-0.3c0-0.1,0,0,0,0
					c0.8-0.7-0.6-1.4-1.2-0.9c-1.8,1.5,2.1,4.2,3.1,4.9c4.2,2.9,9.1,4.7,14,5.9c12.2,3.1,25.8,2.2,36.8-4.3c1.3-0.8,7.2-4.2,5.3-6.5
					C151.3,212.3,149.8,212.9,150.5,213.7L150.5,213.7z"/>
			</g>
		</g>
		<g>
			<g>
				<path class="st31" d="M150.9,216c1.2,1.5-3.6,4.3-4.4,4.8c-4.4,2.7-9.4,4.4-14.4,5.3c-11.1,2.1-23.7,0.3-33.5-5.3
					c-0.5-0.3-6.4-3.9-5.1-4.8c0.5-0.4-1-0.7-1.4-0.4c-1.7,1.3,2.6,4.1,3.3,4.6c4.3,2.8,9.2,4.7,14.1,5.9c12.3,3,25.8,2.2,37-4
					c1.8-1,3.6-2.1,5-3.6c0.6-0.6,1.6-1.8,0.9-2.6C152.1,215.4,150.6,215.6,150.9,216L150.9,216z"/>
			</g>
		</g>
		<g>
			<g>
				<path class="st32" d="M151.4,218.7c1.3,1.6-3.9,4.6-4.8,5.1c-4.7,2.7-10.1,4.5-15.4,5.3c-11.2,1.9-23.7-0.2-33.4-5.9
					c-0.5-0.3-6.3-3.9-4.8-4.9c0.3-0.2-0.2-0.2-0.3-0.2c-0.3,0-0.8,0.1-1.1,0.2c-1.7,1.1,2.8,4,3.4,4.4c4.4,2.8,9.5,4.7,14.6,5.9
					c12.3,2.9,25.7,1.7,37-4.1c1.9-1,3.8-2.1,5.4-3.6c0.6-0.6,1.7-1.7,1-2.6C152.8,218.1,151.3,218.5,151.4,218.7L151.4,218.7z"/>
			</g>
		</g>
		<g>
			<g>
				<path class="st33" d="M152.2,221.7c0,0,0,0.2-0.1,0.5c-0.2,0.5-0.7,0.9-1.1,1.2c-1.3,1.2-2.9,2.1-4.5,2.9
					c-4.8,2.5-10,4.1-15.3,5c-11.2,1.9-23.3-0.1-33.2-5.4c-1.6-0.9-3.2-1.8-4.6-3c-0.4-0.3-0.7-0.7-1-1.1s0-0.3-0.3-0.1
					c0.9-0.5,0.2-1.8-0.7-1.3c-2.5,1.5,1.5,4.3,2.6,5c4.3,2.9,9.3,4.8,14.3,6.2c12.9,3.4,26.9,2.3,38.8-3.9c1.6-0.8,8.3-4.2,6.1-6.9
					C152.8,219.9,151.5,221,152.2,221.7L152.2,221.7z"/>
			</g>
		</g>
		<g>
			<g>
				<path class="st34" d="M152.5,223.9c1.3,1.6-4.8,4.7-5.6,5.1c-4.9,2.5-10.4,4.2-15.8,5.1c-11.4,1.9-23.9-0.1-34-5.7
					c-0.4-0.2-6.4-3.9-5.1-4.6c0.7-0.4-0.8-1-1.3-0.8c-2.1,1.1,2.4,4.1,3.1,4.5c4.3,2.9,9.3,4.8,14.3,6.1
					c12.9,3.5,26.7,2.4,38.8-3.4c1.2-0.6,9-4.1,7.1-6.6C153.7,223.3,152.1,223.3,152.5,223.9L152.5,223.9z"/>
			</g>
		</g>
		<g>
			<g>
				<path class="st35" d="M153.2,226.8c0.3,0.4-1.1,1.6-1.4,1.9c-1.5,1.2-3.2,2.1-4.9,2.9c-5,2.4-10.4,4-15.9,4.8
					c-11.4,1.8-23.7-0.2-33.8-5.6c-1.7-0.9-3.3-1.8-4.7-3.1c-0.4-0.3-0.8-0.7-1-1.1c-0.1-0.2-0.1-0.2-0.1-0.3c0,0.1-0.1,0.2-0.1,0.2
					c0.9-0.5,0.2-1.7-0.7-1.2c-2.7,1.3,1.7,4.3,2.7,5c4.4,3,9.6,4.9,14.7,6.3c13.2,3.5,27.4,2.2,39.8-3.8c1.6-0.8,8.9-4.1,6.7-6.9
					C153.9,225.1,152.6,226,153.2,226.8L153.2,226.8z"/>
			</g>
		</g>
		<g>
			<g>
				<path class="st36" d="M153.6,229.3c1.5,1.9-4.6,4.6-5.6,5.1c-5.1,2.4-10.7,4-16.3,5c-11.7,1.9-24.1-0.2-34.6-5.6
					c-1.7-0.9-3.5-1.9-5-3.2c-0.4-0.4-1-0.8-1.2-1.3c-0.2-0.4,0-0.7-0.4-0.6c0.9-0.4,0.7-0.9-0.2-0.5c-2.8,1.2,1.4,3.8,2.6,4.6
					c4.9,3.1,10.5,5.1,16.1,6.5c13,3.1,26.8,1.4,38.9-4.2c2.1-1,4.2-2.1,6-3.6c0.7-0.6,2-1.8,1.3-2.8
					C154.8,228.3,153.4,229.1,153.6,229.3L153.6,229.3z"/>
			</g>
		</g>
		<g>
			<g>
				<path class="st37" d="M154.2,231.9c1.1,1.4-5.4,4.5-6.1,4.8c-5,2.3-10.3,3.9-15.7,4.9c-12,2.2-24.5,0.3-35.4-5.1
					c-1.9-0.9-3.8-2-5.4-3.3c-0.4-0.3-1-0.8-1.2-1.3c-0.2-0.3-0.2-0.3,0-0.4c0.9-0.4-0.2-1.3-0.9-1c-2.8,1.1,2.5,4.5,3.3,5
					c4.9,3.1,10.5,5.1,16.2,6.5c13.3,3.3,27.4,1.6,39.8-4.1c1.5-0.7,9-3.9,6.9-6.6C155.1,230.7,153.6,231.1,154.2,231.9L154.2,231.9
					z"/>
			</g>
		</g>
		<g>
			<g>
				<path class="st38" d="M154.6,234.2c1.5,1.9-4.5,4.6-5.5,5c-5,2.4-10.4,4-15.9,5.1c-6.5,1.3-13.1,1.6-19.6,0.5
					c-6-1-12-2.9-17.4-5.6c-1.9-1-3.8-2-5.5-3.4c-0.4-0.3-1.8-1.6-0.8-2c0.4-0.2-0.9-0.6-1.3-0.5c-2.4,0.9,3.4,4.4,4,4.7
					c5.2,3,11,5.1,16.9,6.5c13,3,26.7,1.2,39-4c1.2-0.5,9.4-3.8,7.6-6.3C155.9,233.9,154.5,234,154.6,234.2L154.6,234.2z"/>
			</g>
		</g>
		<g>
			<g>
				<path class="st20" d="M155.2,237.1c1.5,2-4.5,4.6-5.5,5c-5.1,2.3-10.6,3.9-16.1,4.9c-6.6,1.2-13.2,1.4-19.8,0.3
					c-5.9-1-11.8-2.9-17.2-5.5c-2-1-4.1-2.1-5.8-3.5c-0.5-0.4-1.1-0.9-1.4-1.5c-0.1-0.2-0.1-0.4-0.2-0.5c-0.1-0.3,0.6-0.4-0.2-0.2
					c0.8-0.3,0.8-0.6-0.1-0.3c-1,0.3-1.6,0.8-0.9,1.7c1,1.3,2.6,2.2,4,3.1c5.6,3.3,12,5.5,18.3,6.8c12.9,2.7,26.6,0.4,38.7-4.7
					c1.2-0.5,9.4-3.8,7.6-6.2C156.5,236.3,155.1,237,155.2,237.1L155.2,237.1z"/>
			</g>
		</g>
	</g>
	<path class="st39" d="M85.6,240.9c-0.8-0.7-1.2-1.8-0.9-2.9c0.4-1.7,2-2.7,3.7-2.3c1.7,0.4,2.7,2,2.3,3.7c-0.1,0.3-0.2,0.4-0.3,0.7
		l1.6,1.2c0.4-0.5,0.5-0.8,0.6-1.5c0.6-2.7-1.1-5.4-3.8-6c-2.7-0.6-5.4,1.1-6,3.8c-0.6,2.7,1.1,5.4,3.8,6
		C87.1,243.6,85.9,241.1,85.6,240.9z"/>
	<g>
		<g>
			<path class="st19" d="M89,236.3c-0.9-0.5-2.7,0.1-3.4,0.7c-0.7,0.6-0.4,1,0.1,1.6c1.8,2.1,4,4.1,6.2,5.8c4.6,3.7,10,5.8,15.7,7
				c4.5,1,9.2,1.3,13.8,1.4c5.3,0.1,10.6-0.1,15.8-1.2c6.9-1.4,14-4.4,18.7-9.8c1.2-1.3,5.8-7.9,1.8-8.7c-0.9-0.2-2.2,0.2-2.9,0.8
				c-0.6,0.5-0.5,1,0.3,1.1c-0.4-0.1-0.2-0.2-0.2,0s0-0.1,0,0s0.1,0.2,0.1,0.3c0.1,0.5,0.1,0.8,0,1.1c-0.3,1.4-0.9,2.8-1.8,3.9
				c-2.9,4.1-7.4,6.9-12.1,8.4c-3.8,1.3-7.8,1.7-11.9,1.9c-4.5,0.2-8.9,0.1-13.4-0.3c-5.7-0.6-11.5-2-16.4-4.9
				c-1.9-1.1-3.7-2.4-5.3-3.9c-1.3-1.1-2.5-2.3-3.7-3.5c-0.4-0.4-0.7-0.7-1.1-1.1c-0.1-0.2-0.2-0.2-0.1-0.2v-0.1l0,0
				c-0.1-0.3-0.2-0.1-0.4,0.7c-0.5,0.2-0.9,0.4-1.4,0.6c-0.3,0.1-1.7,0.1-1.7,0.1C86.7,238.6,90.5,237.1,89,236.3L89,236.3z"/>
		</g>
	</g>
	<path class="st40" d="M108.8,325.8c0,0,16,2.7,26.9,0v17.3h-26.9V325.8z"/>
	<path class="st40" d="M134.7,330.7v4.3c0.4,0.5,0.6,1,0.6,1.6c0,2.8-5.8,4.3-13.1,4.3c-7.3,0-13.8-1.5-13.8-4.3
		c0-0.4,0.1-0.8,0.4-1.1V331c-3.1,1.5-5,3.5-5,5.7c0,5.1,8.2,8.3,18.2,8.3c10.1,0,18.2-3.7,18.2-8.3
		C140.2,334.3,138.1,332.2,134.7,330.7z"/>
	<g>
		<path class="st4" d="M61.8,183.4l3.5,1.7l3.3-1.8l0.2-53.5l-3.5-1.7l-3.6,1.8C61.6,129.8,61.8,183.9,61.8,183.4z"/>
		<g>
			<line class="st41" x1="65.1" y1="184.9" x2="65.2" y2="131.6"/>
			<path class="st0" d="M61.5,129.8l3.7,1.8l3.6-1.9l-3.5-1.8L61.5,129.8z"/>
		</g>
	</g>
	<path class="st42" d="M49.9,132.5l-0.7,2.3c1.6,0.2,2.3,0.8,2.3,1.4c0,0.9-2.2,1.5-4.8,1.5c-2.7,0-4.8-0.7-4.8-1.5
		c0-0.6,1.2-1.2,2.9-1.5l1-2.8c-4.4,0.2-8,2.2-8,4.3c0,2.3,3.9,4.2,8.8,4.2s8.8-1.9,8.8-4.2C55.4,134.4,53.4,133,49.9,132.5z"/>
	<g>
		<path class="st43" d="M46.6,141.8c-6.1,0-8.6-2.6-8.7-3.3v-2.4c0,1.5,3.4,4.1,8.3,4.1c7.1,0,9.1-3.2,9.1-3.2l-0.1,1.8
			C54.9,139.7,51.2,141.6,46.6,141.8z"/>
	</g>
	<polygon class="st44" points="53.2,139.2 61.8,143.4 61.7,144.6 53.2,140.4 	"/>
	<polygon class="st44" points="53.2,139.2 55.4,138 61.7,141 61.8,143.4 	"/>
	<path class="st1" d="M70.2,106.6c0,0-3.8,1.9-4.9,2.1c-1.6,0.3-3.4,0.1-4.2,1.2"/>
	<path class="st1" d="M63.6,112.3c0,0-1.7,1.7-2.8,1.9c-1.6,0.3-3.4,0.2-4.1,1.3"/>
	<path class="st2" d="M59.7,117.1c0,0-1.7,1.7-2.8,1.9c-1.6,0.3-3.4,0.2-4.1,1.3"/>
	<path class="st2" d="M55.1,123c0,0-1.6,1.6-2.7,1.9c-1.6,0.4-3.5,0.7-4.2,1.9"/>
	<path class="st3" d="M51.1,129.5c0,0-1.4,2.3-2.5,2.8c-1.5,0.7-3.3,1.1-3.7,2.3"/>
	<path class="st3" d="M47,141.7c0,0-0.9,2.2-1.9,2.8c-1.4,0.9-3.1,1.4-3.5,2.7"/>
	<path class="st45" d="M46.1,147.3c0,0-1.1,2.7-2.1,3.4c-1.4,1-2.9,1.7-3.4,3.4"/>
	<path class="st46" d="M45.1,152.9c-0.3,1.6-1.8,4-2.9,4.6c-1.6,1-2.2,1-2.7,2.6"/>
	<path class="st47" d="M44.2,158.8c-0.3,1.6-1.7,3.9-2.7,4.6c-1.4,1-1.9,1.2-2.4,2.8"/>
	<path class="st1" d="M43.7,164.5c0.1,1.6-1,4.2-2.1,5.1c-1.6,1.3-2.3,1.5-2.5,3.2"/>
	<path class="st1" d="M43.6,170c0,1.7-0.9,4.6-1.8,5.5c-1.3,1.4-1.9,1.5-2,3.4"/>
	<path class="st1" d="M44.1,177c0.1,1.6-0.6,4.3-1.4,5.2c-1.1,1.3-1.7,1.5-1.7,3.2"/>
	<path class="st1" d="M45.3,184.5c0.1,1.6-0.5,4.3-1.1,5.2c-0.9,1.3-1.1,1.5-1.1,3.2"/>
	<path class="st1" d="M47.2,192.1c0.1,1.6-0.4,4.2-0.8,5.1c-0.6,1.3-0.9,1.5-0.9,3.2"/>
	<path class="st1" d="M50.2,199.7c0.1,1.6-0.3,2.9-0.7,3.9c-0.6,1.3-0.3,3-0.3,4.7"/>
	<path class="st1" d="M53.4,206.4c0.3,1.6,0.1,3.1,0,4c0,1.3-0.1,2.1,0.1,3.8"/>
	<path class="st1" d="M57.8,212.8c0.3,1.6,0.1,2.5,0,3.4c0,1.3,0.3,1.7,0.5,3.4"/>
	<path class="st1" d="M61.6,217.4c0.6,1.5,0.6,2.4,0.8,3.3c0.2,1.3,0.7,2.1,1.3,3.7"/>
	<path class="st1" d="M67.1,222.3c0.6,1.5,0.7,1.7,1.3,3.2c0.6,1.5,1.2,2,1.7,3.6"/>
	<path class="st1" d="M81.3,98.1c0,0-3.6,0.4-4.7,0.6c-1.6,0.3-6.2,0.4-7,1.5"/>
	<path class="st1" d="M76.8,102.8c0,0-5,0.6-6.2,1c-1.7,0.6-3.6,0.7-4.6,2.1"/>
	<g>
		<g>
			<g>
				<path class="st6" d="M147.4,196.5C147.4,196.5,147.4,196.4,147.4,196.5c-0.1,0.4-0.1,0.6-0.2,1c-0.4,1.2-1.3,2.2-2.1,3.1
					c-2.9,3.3-7,5.5-11.2,6.7c-6.5,1.9-13.5,1.8-20.1,0.4c-4.7-1-9.6-2.7-13.3-6c-1.1-1-2.2-2.2-2.8-3.7c-0.3-0.8-0.5-1.7,0-2.2
					c0.7-0.7-0.8-1.4-1.4-0.8c-1.8,1.8,0.6,5.1,1.8,6.5c3.4,3.8,8.5,6,13.4,7.2c11.6,2.9,26.3,2.2,34.8-7.2c0.8-0.9,4.6-5.9,1.5-6.5
					C146.9,194.9,146.3,196.3,147.4,196.5L147.4,196.5z"/>
			</g>
		</g>
		<g>
			<g>
				<path class="st48" d="M148.7,199.1c-0.1,0-0.5-0.8-0.6-0.6c0,0.1,0,0.4,0,0.5c-0.1,0.5-0.3,0.9-0.5,1.3
					c-0.7,1.2-1.6,2.3-2.6,3.3c-3.2,3.1-7.4,5.3-11.7,6.5c-6.3,1.8-13.1,1.7-19.5,0.5c-4.9-0.9-10-2.6-13.9-5.9
					c-1.2-1-4.4-4.1-2.7-5.9c0.2-0.3-1-1.5-1.2-1.2c-1.6,1.7,1.2,5,2.3,6.2c3.5,3.7,8.3,6,13.2,7.3c11.6,3.1,26.6,2.5,35.3-7
					c1-1.1,2.1-2.4,2.4-3.8c0.2-1-0.5-2.2-1.6-2.4c-0.3-0.1,0.2,0.6,0.2,0.6C148,198.7,148.3,199,148.7,199.1L148.7,199.1z"/>
			</g>
		</g>
		<g>
			<g>
				<path class="st49" d="M147.9,201.1c1.6,0.4-1.8,4.4-2.1,4.7c-3.1,3.2-7.2,5.5-11.5,6.9c-6.9,2.3-14.4,2.2-21.4,0.6
					c-4.7-1.1-9.5-3.1-13.1-6.4c-1.1-1-4.5-4.4-2.8-6.1c-0.2,0.2-1.4-0.5-1.7-0.1c-1.6,1.7,1.6,4.9,2.6,5.9
					c3.7,3.5,8.7,5.5,13.6,6.7c11.6,2.7,25.3,2.2,34.7-6c0.6-0.5,5.6-5.4,3.2-6.1c-0.4-0.1-0.8-0.2-1.2-0.1
					C148.2,201,147.6,201.1,147.9,201.1L147.9,201.1z"/>
			</g>
		</g>
		<g>
			<g>
				<path class="st50" d="M149.1,204.4c-0.3-0.1-0.2-0.5-0.3,0c-0.1,0.4-0.3,0.7-0.5,1.1c-0.7,1.2-1.7,2.3-2.8,3.2
					c-3.5,3.1-7.8,5.2-12.2,6.4c-6.4,1.8-13.3,1.7-19.8,0.4c-4.9-1-9.9-2.8-13.8-5.9c-1.2-1-2.5-2.1-3.2-3.5
					c-0.3-0.6-0.8-1.7-0.4-2.1c0.6-0.6-0.8-1.6-1.3-1.1c-1.7,1.8,1.2,4.9,2.3,6.1c3.6,3.7,8.6,5.9,13.5,7.2
					c11.9,3.2,26.4,2.2,36-6.4c1-0.9,5.7-5.4,2.4-6.5C148.2,202.9,148.2,204.1,149.1,204.4L149.1,204.4z"/>
			</g>
		</g>
		<g>
			<g>
				<path class="st51" d="M149.2,206.9c-0.2-0.1,0,0.1,0,0.4c-0.1,0.4-0.3,0.8-0.5,1.1c-0.8,1.2-1.8,2.3-2.9,3.2
					c-3.7,3.1-8.2,5.3-12.9,6.5c-6.5,1.7-13.3,1.5-19.8,0.1c-4.8-1.1-9.7-2.9-13.5-6.1c-1.3-1-2.5-2.2-3.3-3.6
					c-0.3-0.5-0.9-1.7-0.4-2.2c0.6-0.6-1.1-0.9-1.5-0.5c-1.6,1.7,1.5,4.7,2.6,5.7c3.7,3.5,8.7,5.7,13.6,7
					c12.1,3.2,26.2,2.1,36.2-6.1c0.8-0.7,6.1-5.2,3.3-6.3C149.5,205.9,148.2,206.5,149.2,206.9L149.2,206.9z"/>
			</g>
		</g>
		<g>
			<g>
				<path class="st52" d="M149.4,209.5c1.5,0.7-2.8,4.4-3.2,4.8c-3.9,3.2-8.6,5.3-13.4,6.5c-6.6,1.6-13.5,1.3-20.1-0.2
					c-4.8-1.1-9.6-3-13.5-6.1c-1.3-1-2.6-2.2-3.5-3.6c-0.3-0.5-1-1.7-0.5-2.3c0.3-0.3-0.3-0.3-0.4-0.3c-0.4,0-0.8,0.2-1.1,0.5
					c-1.5,1.6,1.9,4.7,2.9,5.5c3.8,3.4,8.8,5.5,13.7,6.8c12.2,3.2,25.9,1.6,36.2-6.1c0.6-0.4,6.4-5.3,4.3-6.2
					C150.4,208.6,149.1,209.4,149.4,209.5L149.4,209.5z"/>
			</g>
		</g>
		<g>
			<g>
				<path class="st53" d="M150.6,212.6c-0.6-0.3-0.1-0.8-0.4-0.1c-0.2,0.5-0.5,0.9-0.8,1.3c-1,1.2-2.3,2.3-3.6,3.2
					c-4.1,3-9,5-13.9,6.1c-6.4,1.4-13,1.2-19.4-0.2c-4.8-1.1-9.6-2.9-13.6-5.9c-1.3-1-2.6-2.1-3.6-3.4c-0.3-0.4-0.6-0.9-0.7-1.2
					s-0.1-0.4,0.1-0.6c0.5-0.5-0.6-1.8-1.2-1.2c-1.6,1.7,1.9,5,3,6c3.8,3.5,8.7,5.7,13.6,7.1c12.4,3.5,26.7,2.1,37.1-5.9
					c1.2-0.9,6.6-5.1,3.3-6.7C149.7,210.6,150,212.2,150.6,212.6L150.6,212.6z"/>
			</g>
		</g>
		<g>
			<g>
				<path class="st54" d="M150.8,215c-0.4-0.2-0.1-0.4-0.3,0.1s-0.5,0.9-0.9,1.3c-1,1.2-2.3,2.2-3.6,3.1c-4.2,2.9-9.1,4.9-14,6.1
					c-10.9,2.5-24,0.7-33.1-5.8c-1.4-1-2.7-2.1-3.8-3.4c-0.3-0.4-1.1-1.6-0.8-1.9c0.6-0.6-0.8-1.6-1.3-1.1c-1.5,1.7,2,4.7,3,5.7
					c3.9,3.4,8.9,5.7,13.8,7.1c12.5,3.6,26.5,2.1,37.3-5.4c1.1-0.8,7.2-5,4.2-6.6C150.5,213.5,149.9,214.5,150.8,215L150.8,215z"/>
			</g>
		</g>
		<g>
			<g>
				<path class="st55" d="M151.7,217.7c-0.2-0.1-0.2-0.6-0.4-0.4c-0.1,0.1-0.1,0.4-0.2,0.5c-0.2,0.5-0.6,0.9-1,1.3
					c-1.2,1.2-2.6,2.2-4,3.2c-4.4,2.9-9.4,4.9-14.6,6c-11,2.4-23.7,0.5-33-5.9c-1.5-1-2.9-2.1-4-3.4c-0.3-0.3-1.1-1.3-0.7-1.8
					c0.4-0.4-0.8-1.6-1.1-1.3c-1.4,1.5,2.4,4.8,3.3,5.6c3.8,3.3,8.6,5.5,13.4,7c12.7,3.9,27,2.3,38.1-5.1c1.3-0.9,7.3-4.7,4.1-6.7
					C150.6,216,151.2,217.4,151.7,217.7L151.7,217.7z"/>
			</g>
		</g>
		<g>
			<g>
				<path class="st56" d="M151.8,220.5c-0.4-0.3-0.1-0.5-0.4,0c-0.3,0.5-0.7,0.9-1.1,1.3c-1.3,1.2-2.8,2.3-4.3,3.2
					c-4.5,2.8-9.6,4.7-14.8,5.7c-11.1,2.3-23.6,0.2-32.9-6.1c-1.5-1-3-2.1-4.1-3.5c-0.3-0.3-0.7-0.8-0.8-1.1
					c-0.1-0.2-0.1-0.3-0.1-0.4c0,0-0.1,0.1,0,0.1c0.6-0.7-0.6-1.9-1.2-1.1c-1.6,1.7,2.3,4.9,3.4,5.7c4,3.3,8.9,5.5,13.8,7
					c12.8,3.8,26.9,2,38.2-5.1c1.3-0.8,7.9-4.9,4.9-6.9C151.5,218.5,151.1,220,151.8,220.5L151.8,220.5z"/>
			</g>
		</g>
		<g>
			<g>
				<path class="st57" d="M151.9,222.9c1.5,1.2-4.4,4.8-5.1,5.1c-5.1,3-10.9,5-16.8,5.9c-11,1.7-23.2-0.7-32.4-7.1
					c-1.4-1-2.8-2.1-3.9-3.4c-0.3-0.3-1.4-1.6-0.9-2.1c0.2-0.3-0.3,0-0.4,0c-0.3,0.1-0.8,0.4-1,0.6c-1.2,1.4,3,4.4,3.8,5
					c4.2,3.1,9.1,5.3,14.2,6.7c12.7,3.5,26.2,1.3,37.5-5.3c0.7-0.4,8.1-4.9,6.4-6.2C153.1,221.8,151.9,222.9,151.9,222.9
					L151.9,222.9z"/>
			</g>
		</g>
		<g>
			<g>
				<path class="st58" d="M152.3,225.1c1.3,1.1-4.6,4.7-5.1,5c-4.9,2.9-10.5,5-16.1,6.1c-11.4,2.3-24-0.2-33.6-6.7
					c-0.6-0.4-6-4.1-4.9-5.3c0.1-0.1-1.4-0.4-1.6-0.1c-1.1,1.3,3.4,4.4,4.1,4.9c4.2,3.1,9.2,5.2,14.2,6.6
					c12.7,3.5,26.2,1.7,37.8-4.4c0.8-0.4,8.8-4.8,7-6.3C153.6,224.7,152.2,225.1,152.3,225.1L152.3,225.1z"/>
			</g>
		</g>
		<g>
			<g>
				<path class="st59" d="M152.8,227.8c1.4,1.3-4.6,4.6-5.3,5c-5.1,2.9-10.8,4.9-16.5,6.1c-11.5,2.2-24.1-0.4-33.7-6.8
					c-1.5-1-3-2.1-4.2-3.4c-0.3-0.3-1.5-1.5-1-2c-0.1,0.1-1.4-0.2-1.6,0.1c-1,1.2,3.6,4.3,4.3,4.8c4.4,3.1,9.4,5.2,14.5,6.6
					c12.6,3.4,25.8,1.4,37.4-4.3c0.7-0.4,9.5-4.9,7.9-6.4C154.1,227.3,152.9,228,152.8,227.8L152.8,227.8z"/>
			</g>
		</g>
		<g>
			<g>
				<path class="st60" d="M153.3,230.6c1.3,1.4-4.9,4.6-5.6,5c-5.2,2.8-10.9,4.8-16.7,5.8c-11.6,2.1-23.9-0.5-33.8-6.7
					c-0.5-0.3-6.8-4.3-5.8-5.4c-0.1,0.1-1.3,0-1.6,0.3c-1,1.2,4,4.4,4.6,4.8c4.7,3.1,10,5.3,15.4,6.7c12.6,3.2,25.8,0.8,37.4-4.8
					c0.8-0.4,9.2-4.5,7.6-6.1C154.6,229.9,153.3,230.7,153.3,230.6L153.3,230.6z"/>
			</g>
		</g>
		<g>
			<g>
				<path class="st5" d="M154.1,233.6c-0.3-0.3-0.1-0.3-0.4,0.2c-0.4,0.5-0.9,0.9-1.4,1.2c-1.5,1.1-3.2,2-4.9,2.8
					c-5,2.5-10.4,4.3-15.9,5.4c-11.7,2.3-23.8,0.2-34-5.7c-1.8-1-3.5-2.1-5-3.4c-0.5-0.4-1-0.8-1.4-1.3c-0.1-0.1-0.2-0.4-0.3-0.5
					c0,0,0.1,0.1-0.1,0.3c0.6-0.7-0.6-1.9-1.2-1.2c-1.5,1.8,3.5,4.9,4.5,5.5c4.7,3.2,10.1,5.5,15.5,7c6.8,1.8,13.8,2.3,20.8,1.1
					c6.2-1,12.4-3,18.1-5.8c1.4-0.7,9-4.1,6.7-6.7C154.4,231.8,153.4,232.8,154.1,233.6L154.1,233.6z"/>
			</g>
		</g>
	</g>
	<g>
		<path class="st39" d="M131.6,329.3c-6.9,1.4-16,1.6-25.6-0.8c-9.7-2.4-101.7-50.4-101.7-50.4v8.6c0,0,89.8,47.6,100.6,51
			c6,1.9,10.2,2.5,14.8,2.7c3.7,0.1,7.9-0.2,13.5-1.2c12.5-2.2,20-6.5,20-6.5l87.1-45l0.2-9.8c0,0-78.8,40.5-97.6,48
			C138.8,327.4,138.5,328,131.6,329.3z"/>
		<g>
			<path class="st39" d="M121.7,330.5c-5.1,0-10.3-0.6-15.4-1.9c-9.7-2.4-100.2-49.4-102.4-50.5l1.5-0.8c0.5,0.3,91.9,47.6,101.4,50
				c11.3,2.8,20.8,1.8,25.2,0.9c5.3-1,11.7-3.8,15.3-5.5s91.9-46,92.2-46.1l1.3,0.7c-0.3,0.2-94.4,47.6-96.5,48.4
				c-2.1,0.9-6.2,2.7-11.8,3.8C129.2,330.2,125.5,330.5,121.7,330.5z"/>
		</g>
	</g>
	<path class="st40" d="M135.4,313.9v4.7c0.4,0.5,0.6,1.1,0.6,1.7c0,3-5.9,4.7-13.2,4.7c-7.3,0-13.9-1.6-13.9-4.7
		c0-0.4,0.1-0.8,0.4-1.2v-4.9c-3.1,1.6-5,3.8-5,6.1c0,5.5,8.2,8.9,18.4,8.9c10.1,0,18.4-4,18.4-8.9
		C141,317.8,138.9,315.5,135.4,313.9z"/>
	<path class="st1" d="M74,227.2c0.4,1.1,0.9,1.1,1.3,2.1s0.8,1.6,1.2,2.8"/>
</g>
</svg>
