<?xml version="1.0" encoding="utf-8"?>
<!-- Generator: Adobe Illustrator 25.2.3, SVG Export Plug-In . SVG Version: 6.00 Build 0)  -->
<svg version="1.1" id="Layer_1" xmlns="http://www.w3.org/2000/svg" xmlns:xlink="http://www.w3.org/1999/xlink" x="0px" y="0px"
	 viewBox="0 0 243.7 395.3" style="enable-background:new 0 0 243.7 395.3;" xml:space="preserve">
<style type="text/css">
	.st0{fill:#EF7C4F;}
	.st1{fill:#FFFFFF;}
	.st2{fill:#CBB8B9;}
	.st3{fill:#E4DAD8;stroke:#FFFFFF;stroke-width:0.25;stroke-linejoin:bevel;stroke-miterlimit:10;}
	.st4{fill:none;stroke:#FFFFFF;stroke-width:0.25;stroke-miterlimit:10;}
	.st5{fill:none;stroke:#FFFFFF;stroke-width:0.2205;stroke-miterlimit:10;}
	.st6{fill:none;stroke:#FFFFFF;stroke-width:0.2235;stroke-miterlimit:10;}
	.st7{fill:none;stroke:#CBB8B9;stroke-width:2.8204;stroke-miterlimit:10;}
	.st8{fill:#E4DAD8;stroke:#FFFFFF;stroke-width:0.5;stroke-miterlimit:10;}
	.st9{fill:#CBB8B9;stroke:#FFFFFF;stroke-width:0.5;stroke-miterlimit:9.9998;}
	.st10{fill:#CBB8B9;stroke:#FFFFFF;stroke-width:0.5;stroke-miterlimit:10;}
	.st11{fill:#DD335A;}
	.st12{fill:#DE3858;}
	.st13{fill:#E03D57;}
	.st14{fill:#E14155;}
	.st15{fill:#E24654;}
	.st16{fill:#E34B52;}
	.st17{fill:#E55050;}
	.st18{fill:#E6554F;}
	.st19{fill:#E75A4D;}
	.st20{fill:#E95F4B;}
	.st21{fill:#EA644A;}
	.st22{fill:#EB6948;}
	.st23{fill:#ED6E47;}
	.st24{fill:#EE7345;}
	.st25{fill:#D8422E;}
	.st26{fill:#CBB8B9;stroke:#FFFFFF;stroke-width:0.5;stroke-linejoin:bevel;stroke-miterlimit:10;}
	.st27{fill:none;stroke:#FFFFFF;stroke-width:0.9383;stroke-miterlimit:10;}
	.st28{fill:#361D32;stroke:#FFFFFF;stroke-width:0.5;stroke-miterlimit:10;}
	.st29{fill:#EE784C;}
	.st30{fill:#EC744A;}
	.st31{fill:#EA7048;}
	.st32{fill:#E96C45;}
	.st33{fill:#E76843;}
	.st34{fill:#E56341;}
	.st35{fill:#E45F3E;}
	.st36{fill:#E25B3C;}
	.st37{fill:#E0573A;}
	.st38{fill:#DF5337;}
	.st39{fill:#DD4F35;}
	.st40{fill:#DB4B33;}
	.st41{fill:#DA4730;}
	.st42{fill:#361D32;stroke:#FFFFFF;stroke-width:0.5807;stroke-miterlimit:10;}
	.st43{fill:#B79797;stroke:#FFFFFF;stroke-width:0.5;stroke-miterlimit:10;}
	.st44{fill:#B79797;stroke:#FFFFFF;stroke-width:0.5401;stroke-miterlimit:10;}
	.st45{fill:none;stroke:#FFFFFF;stroke-width:0.5;stroke-miterlimit:10;}
	.st46{fill:#E4DAD8;stroke:#FFFFFF;stroke-width:0.5;stroke-linejoin:bevel;stroke-miterlimit:10;}
	.st47{fill:#361D32;stroke:#FFFFFF;stroke-width:0.2627;stroke-miterlimit:10;}
	.st48{fill:#361D32;stroke:#FFFFFF;stroke-width:0.25;stroke-miterlimit:10;}
	.st49{fill:none;stroke:#FFFFFF;stroke-width:0.2353;stroke-miterlimit:10;}
	.st50{fill:none;stroke:#FFFFFF;stroke-width:0.258;stroke-miterlimit:10;}
	.st51{fill:none;stroke:#FFFFFF;stroke-width:0.2434;stroke-miterlimit:10;}
	.st52{fill:#DE3859;}
	.st53{fill:#DF3D58;}
	.st54{fill:#E14258;}
	.st55{fill:#E24857;}
	.st56{fill:#E34D56;}
	.st57{fill:#E55255;}
	.st58{fill:#E65754;}
	.st59{fill:#E75D54;}
	.st60{fill:#E96253;}
	.st61{fill:#EA6752;}
	.st62{fill:#EB6C51;}
	.st63{fill:#ED7250;}
	.st64{fill:#EE774F;}
	.st65{fill:#361D32;stroke:#361D32;stroke-width:0.5;stroke-miterlimit:10;}
	.st66{fill:#B79797;stroke:#FFFFFF;stroke-width:0.5227;stroke-miterlimit:10;}
</style>
<g>
	<g>
		<g>
			<path class="st0" d="M207.3,228.4l8.7,0.8c0.2-3-1-3.7-1.1-6.6c0-1.1,0.1-2.1,0.2-3.2c0.1-0.9,0.4-1.8,0.4-2.7
				c0-1.4-0.1-5.1-0.1-6.6c0-2.1,0.1-1.8,0.4-3.8c0,0-0.3-1.6,0.5-4.9c0.8-3.3,0.4-4,0.4-4v-1.2l-0.1-0.8l-0.1-0.6v-4.4l-3.2-0.5
				l-5.2,0.8c0.1,0.5,0.5,1,0.7,1.5c0.4,0.7,0.2,1.5,0.2,2.2c0,1.6-0.1,3.2-0.5,4.8c-0.3,1.3-0.3,2.7-0.5,4.1
				c-0.1,0.8-0.1,1.6,0.1,2.4c0.5,1.7,0.6,3.4,0.6,5.1c0,1.2-0.2,2.3-0.5,3.5c-0.3,1-0.4,2-0.6,3c-0.3,1.2-0.2,2.5-0.3,3.7
				c-0.2,1.4,0,2.9,0,4.4c0,0.9,0.1,1.8,0.2,2.7c0.2,1.4,0.6,1,0.6,1.1"/>
			<g>
				<path class="st1" d="M207.1,228.6c2.9,0.3,5.8,0.5,8.7,0.8c0.2,0,0.6-0.1,0.6-0.3c0.1-1.7-0.5-3.1-0.8-4.8
					c-0.5-2.3,0-4.5,0.3-6.8c0.4-3-0.3-6.1,0-9.1c0.1-0.9,0.3-1.8,0.3-2.7c-0.1-1.7,0.3-3.4,0.7-5.1c0.3-1.6,0.4-3.2,0.2-4.9
					c-0.2-1.8-0.1-3.6-0.1-5.5c0-0.1-0.1-0.1-0.1-0.1c-1.2-0.2-2.5-0.6-3.7-0.4c-1.6,0.2-3.2,0.5-4.8,0.7c-0.1,0-0.5,0.1-0.4,0.3
					c0.2,0.7,0.7,1.2,0.9,1.9c0.2,0.8,0.1,1.7,0.1,2.5c0,1.9-0.5,3.8-0.7,5.7c-0.2,1.6-0.4,3.3-0.1,4.9c0.4,1.9,0.7,3.7,0.6,5.6
					c-0.1,1.9-0.7,3.7-1,5.6c-0.3,1.7-0.4,3.4-0.5,5c-0.1,1.7,0,3.6,0.2,5.3c0.1,0.6,0,1.4,0.4,1.9c0.1,0.1,0.4,0.3,0.3,0.2
					c0.1,0.2,0.8-0.1,0.8-0.2c-0.1-0.1-0.2-0.1-0.3-0.2c-0.3-0.7-0.4-1.5-0.5-2.3c-0.2-1.9-0.2-3.8-0.1-5.7c0.2-1.8,0.3-3.6,0.6-5.4
					c0.3-1.6,0.8-3.2,0.8-4.8c0-1.9-0.3-3.7-0.7-5.5c-0.3-1.7,0-3.9,0.3-5.6c0.3-1.5,0.5-3,0.6-4.6c0-0.7,0.1-1.6,0-2.4
					c-0.2-0.7-0.7-1.3-0.9-2.1c-0.1,0.1-0.3,0.2-0.4,0.3c1.2-0.2,2.4-0.4,3.5-0.5c1.4-0.2,1.5-0.2,2.8,0c0.3,0,1.7,0,1.8,0.3
					c-0.2-0.2-0.1,0.2-0.1,0.3c0,0.3,0,0.7,0,1c0,1.2-0.1,2.4,0.1,3.5c0.1,0.8,0.1,1.5,0.2,2.3c0.1,2.1-0.7,4.1-0.9,6.2
					c-0.2,1.4-0.1,2.7-0.3,4.1c-0.3,1.8-0.1,3.6-0.1,5.4c0,1.1,0.1,2.2,0.1,3.2c0,1.6-0.4,3.1-0.6,4.7c-0.1,1.4,0,2.8,0.4,4.1
					s0.7,2.5,0.6,3.9c0.2-0.1,0.4-0.2,0.6-0.3c-2.9-0.3-5.8-0.5-8.7-0.8C207.4,228.3,206.7,228.6,207.1,228.6L207.1,228.6z"/>
			</g>
		</g>
		<g>
			<g>
				<path class="st1" d="M208.6,195.4c0.3,0.5,0.5,1,0.8,1.5s0.7,0.9,1.1,1.3c0.8,0.9,1.5,1.8,2.2,2.8c0.5,0.7,1,1.4,1.5,2.1
					c0.4,0.6,0.8,1.3,1.4,1.9c0.2,0.2,0.9-0.1,0.7-0.3c-0.5-0.5-0.9-1.2-1.3-1.8c-0.5-0.7-1.1-1.4-1.6-2.2c-0.7-1-1.3-1.9-2.1-2.8
					c-0.4-0.4-0.8-0.9-1.1-1.3c-0.3-0.5-0.6-1-0.9-1.6C209.1,194.9,208.4,195.1,208.6,195.4L208.6,195.4z"/>
			</g>
		</g>
		<g>
			<g>
				<path class="st1" d="M208.3,210.5c0.2,0.7,0.6,1.4,1,2.1c0.5,0.9,1,1.7,1.6,2.6c0.4,0.6,0.8,1.2,1.2,1.8c0.3,0.6,0.6,1.2,1,1.7
					c0.5,0.6,1.1,1,1.6,1.6c0.2,0.3,0.9,0,0.7-0.3c-0.4-0.6-1.1-1.1-1.6-1.6c-0.4-0.5-0.7-1-0.9-1.5c-0.3-0.6-0.8-1.2-1.2-1.9
					c-0.5-0.8-1-1.7-1.5-2.5c-0.4-0.7-0.8-1.3-1-2.1C208.9,209.9,208.2,210.1,208.3,210.5L208.3,210.5z"/>
			</g>
		</g>
	</g>
	<g>
		<g>
			<path class="st2" d="M240.3,210.4c-0.1,10.5-10.5,15.7-17.6,17.4c-5.5,1.3-11.1,1.3-16.6,0.1c-4.6-1-9.4-2.9-13.3-6.3
				c-2.9-2.5-5.5-6.1-5.9-10.5c-0.5-4.3,1.3-8.2,3.8-11.2c3.2-3.7,7.6-5.9,11.8-7.2c5.4-1.6,11-1.9,16.5-1
				c5.3,0.9,10.8,2.8,15.2,6.7C237.5,201.3,240.3,205.4,240.3,210.4c0,0.6,2.3,0.2,2.3-0.7c-0.1-4.7-2.5-8.7-5.5-11.6
				c-4-3.8-8.9-5.9-13.8-7.1c-5.8-1.4-11.9-1.4-17.8-0.2c-5.1,1.1-10.2,3.2-14.5,6.8c-3.1,2.7-6,6.5-6.5,11.2
				c-0.5,4.6,1.4,8.8,4.1,11.8c3.6,4,8.4,6.4,13.1,7.8c5.7,1.7,11.8,2,17.6,1.1c5.2-0.8,10.5-2.6,15.1-6c3.4-2.5,6.7-6.1,7.7-10.9
				c0.2-1,0.3-2,0.3-3.1C242.6,209.1,240.3,209.5,240.3,210.4z"/>
		</g>
	</g>
	<polygon class="st3" points="53,172.1 61.5,176.4 61.5,177.6 53,173.4 	"/>
	<polygon class="st3" points="53,172.1 55.2,171 61.5,174 61.5,176.4 	"/>
	<path class="st4" d="M63.4,145.1c0,0-1.7,1.7-2.8,1.9c-1.6,0.3-3.4,0.2-4.1,1.3"/>
	<path class="st5" d="M59.5,149.9c0,0-1.7,1.7-2.8,1.9c-1.6,0.3-3.4,0.2-4.1,1.3"/>
	<path class="st6" d="M50.9,162.5c0,0-1.4,2.3-2.5,2.8c-1.5,0.7-3.3,1.1-3.7,2.3"/>
	<line class="st7" x1="146.1" y1="234.3" x2="185.7" y2="213"/>
	<g>
		<g>
			<path class="st8" d="M143.4,28c0,0-5.4-3-10.5,5.6c-5.2,8.6,1.8,12.4,1.8,12.4l77.4,38.3c-1.5-5-2.9-7.8-0.9-12.2
				c2-4.4,7.8-5.7,10.9-4.8C227.7,69,143.4,28,143.4,28z"/>
		</g>
		<ellipse transform="matrix(0.5 -0.866 0.866 0.5 42.9256 225.6422)" class="st9" cx="216.9" cy="75.6" rx="10.1" ry="7.5"/>
	</g>
	<ellipse transform="matrix(0.5 -0.866 0.866 0.5 -25.7418 102.2182)" class="st9" cx="75.7" cy="73.4" rx="10.1" ry="7.5"/>
	<path class="st10" d="M120.5,266.3l32.9,0.2c0,0-2.5,22-4,33.6c-0.3,6.1-1.2,12.5-3.8,18.2c-4.7,10.2-12.1,18.3-12.1,18.3l0.7,50.3
		c0,0-1.6,6.4-13.3,6.7h-0.4c-11.6-0.2-13.3-6.7-13.3-6.7l0.7-50.3c0,0-7.4-8-12.1-18.3c-2.6-5.7-3.5-12.2-3.8-18.2
		c-1.5-11.6-4-33.6-4-33.6l32.9-0.2H120.5z"/>
	<path class="st10" d="M108.1,336.4c0,0,4.2,5.3,13,5.3s12.5-5.2,12.5-5.2"/>
	<g>
		<g>
			<g>
				<path class="st0" d="M152.4,269c1,1.4-3.5,3.4-4.2,3.8c-4,1.9-8.3,3.3-12.6,4.3c-11,2.7-22.2,3-33.2,0.1
					c-2.5-0.7-4.9-1.4-7.2-2.4c-0.9-0.4-1.9-0.8-2.8-1.3c-0.3-0.2-0.7-0.4-1-0.6s-1.6-1.1-1.2-1.2c0.9-0.3,0.7-1.3-0.3-1
					c-0.6,0.2-1.5,0.5-1.4,1.3c0.1,0.9,1.6,1.6,2.2,2c1.8,1.1,3.8,1.9,5.8,2.6c6.1,2.2,12.5,3.4,19,3.7c6,0.3,12-0.4,17.9-1.7
					c5.1-1.1,10.2-2.6,15-4.8c1.3-0.6,7.2-3.2,5.4-5.5C153.4,267.8,151.9,268.4,152.4,269L152.4,269z"/>
			</g>
		</g>
		<g>
			<g>
				<path class="st0" d="M152.2,272.4c0.8,1.3-3.8,3.3-4.5,3.7c-4,1.9-8.2,3.2-12.5,4.2c-4.9,1.2-9.9,2-14.9,2.1
					c-5.8,0.2-11.8-0.6-17.4-2.1c-2.5-0.7-4.9-1.5-7.3-2.5c-0.9-0.4-1.9-0.8-2.8-1.3c-0.4-0.2-2.5-1.7-2.3-1.8
					c0.9-0.3,0.7-1.4-0.3-1c-0.6,0.2-1.4,0.6-1.3,1.3c0.1,0.9,1.6,1.6,2.2,2c1.8,1,3.7,1.9,5.6,2.6c6.1,2.3,12.5,3.5,19,3.8
					c5.8,0.3,11.6-0.4,17.3-1.6c5.1-1.1,10.2-2.6,15-4.7c1.4-0.6,7.1-3,5.6-5.4C153.2,271.2,151.8,271.8,152.2,272.4L152.2,272.4z"
					/>
			</g>
		</g>
		<g>
			<g>
				<path class="st0" d="M151.9,275.7c0.9,1.7-3.6,3.5-4.6,4c-4,1.8-8.2,3.1-12.5,4.1c-5,1.2-10.2,2-15.3,2
					c-5.8,0-11.6-0.9-17.2-2.5c-2.4-0.7-4.8-1.5-7.1-2.6c-0.8-0.4-1.7-0.8-2.5-1.3c-0.2-0.1-2.6-1.7-1.9-2c1-0.4,0.1-0.6-0.5-0.3
					c-0.5,0.2-1.2,0.5-1.1,1.1c0.2,0.8,1.6,1.4,2.3,1.8c1.8,1,3.7,1.8,5.6,2.6c5.9,2.2,12.2,3.4,18.5,3.7c5.7,0.3,11.4-0.4,17-1.6
					c5-1,9.9-2.4,14.6-4.4c1.7-0.7,3.5-1.6,5-2.7c0.6-0.5,1.7-1.4,1.2-2.3C153.3,275,151.8,275.5,151.9,275.7L151.9,275.7z"/>
			</g>
		</g>
		<g>
			<g>
				<path class="st0" d="M151.7,279.2c0.5,1.5-4,3.2-4.9,3.6c-4,1.7-8.2,3-12.5,3.9c-4.6,1.1-9.4,1.8-14.1,1.9
					c-5.7,0.1-11.6-0.7-17.1-2.3c-2.4-0.7-4.8-1.5-7.1-2.5c-0.8-0.4-1.7-0.8-2.5-1.2c-0.3-0.2-0.7-0.4-1-0.6
					c-0.2-0.1-1.6-1.1-1.3-1.2c1-0.4,0.1-1.2-0.7-0.9c-2.4,1,0.3,2.7,1.5,3.4c1.8,1,3.7,1.9,5.6,2.6c5.7,2.2,11.9,3.4,18,3.7
					c5.6,0.3,11.1-0.3,16.6-1.4c5-1,10.1-2.4,14.8-4.4c1.7-0.7,3.4-1.5,4.8-2.6c0.7-0.5,1.8-1.5,1.4-2.5
					C153,278.1,151.4,278.5,151.7,279.2L151.7,279.2z"/>
			</g>
		</g>
		<g>
			<g>
				<path class="st0" d="M151.5,282.6c0.2,0.8-0.7,1.4-1.2,1.8c-1.2,0.8-2.5,1.4-3.8,2c-4,1.7-8.3,2.9-12.6,3.8
					c-4.6,1-9.3,1.7-14.1,1.7c-5.7,0-11.4-0.9-16.8-2.5c-2.4-0.7-4.8-1.6-7.1-2.6c-0.8-0.4-1.5-0.8-2.3-1.2
					c-0.4-0.2-2.8-1.8-2.1-2.2c0.9-0.4-0.5-0.4-0.9-0.2c-2.1,1,0.9,2.6,1.9,3.1c1.8,1,3.7,1.8,5.6,2.5c5.7,2.1,11.8,3.3,17.8,3.6
					c5.4,0.3,10.9-0.3,16.2-1.4c4.8-1,9.6-2.2,14.1-4.1c1.7-0.7,3.5-1.5,5-2.5c0.7-0.5,1.9-1.3,1.7-2.3
					C152.9,281.8,151.4,282.2,151.5,282.6L151.5,282.6z"/>
			</g>
		</g>
		<g>
			<g>
				<path class="st0" d="M151.2,286c0.1,0.7-1,1.3-1.4,1.6c-1.2,0.8-2.6,1.4-4,2c-4,1.6-8.1,2.7-12.3,3.6c-4.5,1-9.2,1.7-13.8,1.7
					c-5.6,0-11.2-0.9-16.6-2.5c-2.3-0.7-4.5-1.5-6.7-2.5c-0.8-0.4-1.6-0.8-2.3-1.2c-0.4-0.2-2.5-1.8-2.4-1.9
					c0.9-0.5,0.1-1.1-0.6-0.7c-2.1,1.1,0.5,2.6,1.6,3.3c1.7,1,3.6,1.9,5.5,2.6c5.5,2.1,11.4,3.3,17.3,3.8c5.4,0.4,10.7-0.2,16-1.2
					c4.9-0.9,9.8-2.2,14.5-4c1.8-0.7,3.6-1.4,5.1-2.5c0.7-0.5,1.8-1.3,1.7-2.3C152.7,285,151.2,285.4,151.2,286L151.2,286z"/>
			</g>
		</g>
		<g>
			<g>
				<path class="st0" d="M151,289.4c0,0.8-1,1.4-1.6,1.7c-1.3,0.8-2.7,1.4-4.2,2c-4.1,1.6-8.3,2.7-12.6,3.5
					c-4.3,0.9-8.8,1.5-13.2,1.4c-5.6-0.1-11.2-1-16.6-2.7c-2.2-0.7-4.4-1.5-6.5-2.6c-0.6-0.3-5.1-2.8-4.2-3.3
					c0.6-0.4-0.9-0.2-1.2-0.1c-1.6,1,1.4,2.6,2.2,3c1.7,1,3.6,1.8,5.5,2.5c5.5,2.1,11.4,3.3,17.3,3.7c5.1,0.3,10.2-0.2,15.3-1.2
					c4.8-0.9,9.5-2.1,14-3.8c1.8-0.7,3.6-1.4,5.2-2.4c0.8-0.5,1.9-1.2,2-2.2C152.6,288.8,151,289,151,289.4L151,289.4z"/>
			</g>
		</g>
		<g>
			<g>
				<path class="st0" d="M150.8,292.7c-0.1,0.7-1.2,1.2-1.8,1.5c-1.3,0.7-2.6,1.3-4,1.8c-3.9,1.5-8,2.5-12.1,3.4
					c-4.2,0.9-8.6,1.5-12.9,1.5c-5.5,0-11-0.9-16.2-2.5c-2.3-0.7-4.5-1.5-6.6-2.5c-0.8-0.4-1.6-0.8-2.3-1.2
					c-0.3-0.2-2.6-1.8-2.4-1.9c0.8-0.6-0.4-1.2-1-0.7c-2.6,1.8,6.2,5.5,7.4,5.9c5.4,2.2,11.2,3.4,17,3.9c5.1,0.4,10.1-0.1,15.1-1
					c4.7-0.8,9.4-2,13.9-3.6c1.8-0.7,3.6-1.4,5.3-2.3c0.9-0.5,2.1-1.3,2.3-2.4C152.5,291.8,150.9,292,150.8,292.7L150.8,292.7z"/>
			</g>
		</g>
		<g>
			<g>
				<path class="st0" d="M150.6,296.2c-0.3,0.8-1.3,1.3-2,1.6c-1.3,0.7-2.7,1.3-4.2,1.8c-4,1.4-8.2,2.5-12.3,3.2
					c-4.1,0.8-8.3,1.4-12.4,1.3c-5.5-0.1-10.9-1-16.1-2.7c-2.2-0.7-4.3-1.5-6.4-2.5c-0.6-0.3-5.1-2.8-4.4-3.3
					c0.7-0.6-0.8-0.5-1.2-0.2c-2,1.7,6.7,5.3,7.8,5.7c5.3,2.1,10.9,3.3,16.6,3.7c9.5,0.7,19.4-1.3,28.3-4.4c1.9-0.6,3.7-1.3,5.5-2.3
					c0.9-0.5,2.1-1.2,2.4-2.2C152.3,295.5,150.7,295.7,150.6,296.2L150.6,296.2z"/>
			</g>
		</g>
		<g>
			<g>
				<path class="st0" d="M150.4,299.5c-0.4,0.8-1.4,1.2-2.1,1.6c-1.4,0.7-2.8,1.2-4.2,1.7c-3.9,1.3-8,2.3-12,3.1
					c-4,0.7-8.1,1.3-12.2,1.3c-5.3-0.1-10.7-1-15.8-2.6c-2.2-0.7-4.4-1.6-6.5-2.6c-0.5-0.2-5-2.7-4.5-3.2c0.7-0.7-0.8-0.8-1.3-0.4
					c-1.8,1.8,6.4,5.3,7.6,5.8c5.2,2.1,10.7,3.4,16.3,3.9c9.3,0.8,19.1-1.1,28-4c1.9-0.6,3.7-1.3,5.5-2.2c1-0.5,2.2-1.2,2.7-2.2
					C152.2,298.8,150.7,298.9,150.4,299.5L150.4,299.5z"/>
			</g>
		</g>
		<g>
			<g>
				<path class="st0" d="M150.2,302.9c-0.4,0.7-1.5,1.2-2.2,1.6c-1.4,0.7-3,1.2-4.5,1.7c-3.9,1.3-7.9,2.2-11.9,2.9
					c-3.9,0.7-7.9,1.2-11.9,1.1c-5.3-0.2-10.6-1.1-15.6-2.8c-2.2-0.7-4.3-1.6-6.3-2.6c-0.6-0.3-4.7-2.6-4.3-3.1
					c0.6-0.8-0.9-0.9-1.3-0.4c-1.6,2,6.3,5.3,7.6,5.8c5,2.1,10.4,3.3,15.7,3.8c9.3,0.9,18.9-0.9,27.7-3.7c1.9-0.6,3.8-1.2,5.5-2.1
					c1.1-0.5,2.3-1.2,2.9-2.2C152,302.3,150.5,302.3,150.2,302.9L150.2,302.9z"/>
			</g>
		</g>
		<g>
			<g>
				<path class="st0" d="M150,306.4c-0.6,0.7-1.6,1.2-2.4,1.6c-1.5,0.7-3,1.2-4.5,1.7c-3.9,1.2-7.9,2.1-12,2.8
					c-3.7,0.6-7.4,1.1-11.2,1c-5.3-0.1-10.6-1.1-15.7-2.8c-2-0.7-4.1-1.5-6-2.5c-0.7-0.4-5.1-2.6-4.6-3.5c0.3-0.6-1.2-0.5-1.4,0
					c-0.7,1.3,2.2,2.7,3,3.2c1.7,1,3.4,1.8,5.3,2.6c4.9,2,10.2,3.2,15.5,3.7c8.9,0.8,18.2-1,26.8-3.5c1.9-0.6,3.8-1.2,5.6-2.1
					c1.1-0.5,2.3-1.1,3-2.1C151.8,305.8,150.3,305.9,150,306.4L150,306.4z"/>
			</g>
		</g>
		<g>
			<g>
				<path class="st0" d="M149.8,309.7c-0.7,0.8-1.6,1.2-2.5,1.6c-1.5,0.7-3,1.2-4.6,1.6c-3.9,1.2-8,2-12,2.7c-3.6,0.6-7.3,1-11,0.9
					c-5.2-0.2-10.4-1.2-15.3-2.9c-2.1-0.7-4.1-1.6-6-2.6c-0.7-0.4-1.5-0.8-2.2-1.3c-0.4-0.3-2.5-1.4-2.2-2.2
					c0.2-0.5-1.4-0.4-1.5,0.2c-0.4,1.2,2.4,2.7,3.3,3.2c1.6,1,3.4,1.8,5.1,2.5c4.9,2,10.1,3.2,15.3,3.7c8.6,0.8,17.6-0.9,25.9-3.2
					c1.9-0.5,3.8-1.1,5.6-1.9c1.2-0.5,2.5-1.1,3.4-2.1C151.7,309.3,150.2,309.3,149.8,309.7L149.8,309.7z"/>
			</g>
		</g>
		<g>
			<g>
				<path class="st0" d="M149.6,313c-0.8,0.8-2.1,1.3-3.2,1.7c-1.8,0.7-3.6,1.2-5.5,1.7c-4.3,1.1-8.6,1.9-13,2.5
					c-9.4,1.2-19.1-0.1-27.7-4.2c-1.6-0.7-3.1-1.6-4.5-2.6c-0.4-0.3-1.7-1.2-1.6-1.6c0.2-0.7-1.4-0.5-1.5,0.1
					c-0.2,0.6,0.7,1.3,1.1,1.6c1.1,1,2.4,1.7,3.7,2.4c4.2,2.3,8.9,3.8,13.6,4.7c9.8,1.9,19.7,0.6,29.3-1.9c2.2-0.6,4.4-1.2,6.5-2
					c1.4-0.5,2.9-1.2,4-2.2C151.5,312.8,150.1,312.6,149.6,313L149.6,313z"/>
			</g>
		</g>
	</g>
	<g>
		<g>
			<g>
				<path class="st11" d="M153.3,271.5c1,1.3-3.5,3.7-4.3,4.1c-4,2.2-8.5,3.8-12.9,5.1c-5.1,1.4-10.4,2.3-15.6,2.2
					c-6.1-0.1-12.2-1.5-17.9-3.6c-2.6-0.9-5.1-2-7.6-3.3c-0.9-0.4-1.8-0.9-2.6-1.4c-0.4-0.2-0.8-0.5-1.2-0.7
					c-0.2-0.1-0.4-0.3-0.6-0.4c-0.1-0.1-0.3-0.2-0.4-0.4c-0.2,0.3-0.2,0.4,0.1,0.2c1-0.3,0.8-1.7-0.3-1.4c-0.7,0.2-1.6,0.7-1.5,1.6
					c0.1,1,1.5,1.7,2.2,2.1c1.9,1.1,3.9,2.1,5.9,3c5.9,2.7,12.3,4.7,18.8,5.5c6.3,0.8,12.7,0,18.8-1.4c5.2-1.3,10.4-3.1,15.2-5.6
					c1.5-0.8,7.4-3.9,5.4-6.4C154.2,269.9,152.8,270.8,153.3,271.5L153.3,271.5z"/>
			</g>
		</g>
		<g>
			<g>
				<path class="st12" d="M153.1,274.2c0.4,0.6-0.5,1.6-0.9,2c-1,1-2.4,1.8-3.6,2.6c-4,2.3-8.5,3.9-12.9,5.1
					c-5.1,1.4-10.4,2.3-15.6,2.3c-6.1,0-12.2-1.5-18-3.6c-2.5-0.9-4.9-2-7.3-3.2c-0.9-0.4-1.7-0.9-2.6-1.4c-0.7-0.4-2.6-1.3-1.1-1.8
					c0.4-0.1-0.9-1.1-1.4-0.9c-2.2,0.8,1,2.7,1.8,3.2c1.8,1.1,3.7,2.1,5.7,2.9c5.7,2.6,11.8,4.5,18.1,5.4c6.2,0.9,12.5,0.3,18.7-1.1
					c5.2-1.2,10.4-2.9,15.1-5.4c1.5-0.8,7.1-3.4,5.4-5.8C154.2,274,152.6,273.5,153.1,274.2L153.1,274.2z"/>
			</g>
		</g>
		<g>
			<g>
				<path class="st13" d="M152.7,277.8c1,1.7-3.2,3.9-4.2,4.4c-4,2.3-8.5,3.8-12.9,5c-5.3,1.4-10.8,2.2-16.3,1.9
					c-5.8-0.3-11.6-1.8-17.1-3.8c-2.3-0.9-4.5-1.9-6.7-3c-0.8-0.4-1.6-0.8-2.4-1.3c-0.4-0.2-0.8-0.5-1.2-0.8
					c-0.1-0.1-1.4-1.2-1.2-1.3c0.9-0.4,0.7-0.8-0.2-0.5c-0.5,0.2-1.5,0.5-1.3,1.2c0.2,0.9,1.6,1.5,2.3,1.9c1.8,1.1,3.7,2,5.6,2.9
					c5.7,2.6,11.8,4.4,18,5.2c6.1,0.7,12.4,0.1,18.4-1.4c5.1-1.2,10.2-2.9,14.9-5.3c1.7-0.9,3.4-1.9,4.8-3.2
					c0.6-0.6,1.7-1.7,1.1-2.6C154.1,276.8,152.5,277.5,152.7,277.8L152.7,277.8z"/>
			</g>
		</g>
		<g>
			<g>
				<path class="st14" d="M152.6,281c-0.1-0.1-0.1,0.2-0.2,0.4c-0.3,0.4-0.7,0.8-1,1.1c-1.1,1-2.5,1.8-3.8,2.5
					c-4.1,2.1-8.5,3.7-12.9,4.8c-5.1,1.3-10.5,2.1-15.8,1.9c-5.6-0.2-11.2-1.6-16.5-3.6c-2.3-0.9-4.6-1.8-6.8-3
					c-0.8-0.4-1.6-0.9-2.4-1.3c-0.3-0.2-0.6-0.4-0.9-0.6c-0.2-0.2-0.5-0.3-0.7-0.5c-0.2-0.1-0.4-0.3-0.5-0.5c0,0.3,0.1,0.4,0.3,0.2
					c0.8-0.3,0-1.8-0.8-1.5c-2.3,1,0.6,3.1,1.5,3.8c1.7,1.1,3.4,2,5.2,2.8c5.5,2.6,11.4,4.4,17.4,5.3c6.2,0.9,12.5,0.4,18.7-1
					c5.2-1.1,10.3-2.8,15-5.3c1.8-0.9,6.9-3.4,5.5-6.2C153.3,279.4,152.2,280,152.6,281L152.6,281z"/>
			</g>
		</g>
		<g>
			<g>
				<path class="st15" d="M152.1,283.6c0.7,1.8-3.5,3.9-4.6,4.5c-3.9,2.2-8.2,3.7-12.5,4.8c-5.2,1.4-10.6,2.2-16.1,2.1
					c-5.7-0.1-11.4-1.4-16.7-3.4c-2.3-0.9-4.6-1.9-6.8-3c-0.8-0.4-1.6-0.9-2.3-1.3c-0.6-0.4-2.6-1.4-1.4-2c0.2-0.1-1-1-1.4-0.8
					c-1.7,0.8,1.4,2.6,2.1,3c1.6,1,3.4,1.9,5.1,2.7c5.1,2.4,10.5,4.2,16.1,5.1c11.2,1.9,23.4-0.4,33.5-5.3c1.8-0.9,3.6-1.8,5.1-3.1
					c0.7-0.6,1.7-1.5,1.4-2.5C153.5,283.8,152.1,283.4,152.1,283.6L152.1,283.6z"/>
			</g>
		</g>
		<g>
			<g>
				<path class="st16" d="M151.8,287.2c0.1,0.5-0.7,1.3-1.2,1.6c-1.1,1-2.5,1.7-3.8,2.4c-4,2.1-8.4,3.5-12.8,4.6
					c-5.2,1.2-10.5,1.9-15.9,1.6s-10.6-1.6-15.7-3.5c-2.1-0.8-4.2-1.7-6.3-2.8c-0.8-0.4-1.5-0.8-2.3-1.3c-0.3-0.2-0.6-0.4-0.8-0.5
					c-0.2-0.2-0.5-0.3-0.7-0.5c-0.3-0.3-0.4-0.5-0.7-0.4c1-0.5,0.1-1.8-0.8-1.4c-3.4,1.8,4.8,5.6,6.1,6.2c5,2.4,10.3,4.2,15.8,5.1
					c11.3,2,23.8-0.3,34.1-5.4c1.8-0.9,3.6-1.9,5.1-3.2c0.8-0.7,1.7-1.7,1.4-2.8C153.2,286,151.5,286.2,151.8,287.2L151.8,287.2z"/>
			</g>
		</g>
		<g>
			<g>
				<path class="st17" d="M151.5,290.2c0.1,0.8-0.7,1.5-1.2,2c-1.1,1-2.4,1.7-3.7,2.4c-4,2.1-8.4,3.6-12.9,4.6
					c-5.4,1.3-10.9,1.9-16.4,1.5c-5.2-0.4-10.4-1.7-15.3-3.7c-2-0.8-4-1.7-5.9-2.8c-0.6-0.3-4.8-2.7-3.9-3.3c0.5-0.3-1-0.7-1.4-0.4
					c-1.5,0.9,1.4,2.6,2.1,3c1.6,1,3.2,1.9,4.9,2.6c4.8,2.3,10,3.9,15.3,4.8c11.1,1.8,23.2-0.3,33.3-5.1c1.8-0.8,3.6-1.8,5.1-3
					c0.7-0.6,1.8-1.5,1.7-2.5C153.1,289.8,151.4,289.8,151.5,290.2L151.5,290.2z"/>
			</g>
		</g>
		<g>
			<g>
				<path class="st18" d="M151.3,293.8c0,0.8-0.9,1.5-1.4,1.9c-1.2,0.9-2.5,1.7-3.8,2.3c-4.1,2.1-8.6,3.4-13.1,4.4
					c-5.4,1.1-11,1.6-16.5,1c-5-0.5-9.9-1.9-14.5-3.8c-1.9-0.8-3.8-1.7-5.6-2.7c-0.5-0.3-4.5-2.9-4-3.2c0.9-0.6-0.6-0.4-1-0.1
					c-1.6,1.1,0.9,2.5,1.8,3c1.6,1,3.3,1.9,5.1,2.7c4.9,2.2,10.1,3.8,15.4,4.6c10.9,1.5,22.7-0.7,32.6-5.5c1.7-0.8,3.5-1.8,5-3
					c0.7-0.6,1.7-1.4,1.6-2.4C152.8,292.9,151.2,293.3,151.3,293.8L151.3,293.8z"/>
			</g>
		</g>
		<g>
			<g>
				<path class="st19" d="M150.9,296.7c0,0.6-0.9,1.3-1.4,1.6c-1.2,0.9-2.5,1.7-3.8,2.3c-3.9,1.9-8,3.3-12.2,4.2
					c-10.3,2.3-20.8,1.8-30.7-2c-2-0.8-3.9-1.6-5.8-2.7c-0.8-0.4-1.5-0.8-2.2-1.3c-0.4-0.2-2.2-1.7-2.2-1.6c0.9-0.7-0.4-1.4-1.1-0.9
					c-2.3,1.9,5.3,5.4,6.5,6c4.7,2.3,9.7,3.9,14.9,4.7c10.9,1.8,22.9-0.2,32.9-5c1.7-0.8,3.5-1.7,5-2.9c0.8-0.6,1.8-1.5,1.9-2.6
					C152.7,295.7,151,295.9,150.9,296.7L150.9,296.7z"/>
			</g>
		</g>
		<g>
			<g>
				<path class="st20" d="M150.6,299.9c-0.1,0.7-0.9,1.3-1.5,1.8c-1.1,0.9-2.4,1.6-3.6,2.2c-3.8,1.9-7.9,3.2-12,4.2
					c-10.3,2.4-20.8,1.9-30.7-2c-2-0.8-3.9-1.7-5.8-2.7c-0.5-0.3-4.6-2.7-4.1-3.3c0.6-0.5-1.1-0.9-1.5-0.5c-1.6,1.6,6.1,5.3,7.2,5.8
					c4.6,2.2,9.6,3.7,14.6,4.5c10.7,1.7,22.3-0.3,32.1-4.8c1.7-0.8,3.4-1.7,4.9-2.8c0.8-0.6,1.8-1.4,2-2.4
					C152.4,299.3,150.7,299.2,150.6,299.9L150.6,299.9z"/>
			</g>
		</g>
		<g>
			<g>
				<path class="st21" d="M150.6,302.5c-0.2,0.7-1,1.3-1.5,1.8c-1.1,0.9-2.3,1.6-3.6,2.2c-3.6,1.9-7.5,3.1-11.5,4.1
					c-10.2,2.5-20.9,2.3-30.8-1.4c-2-0.7-4-1.6-5.9-2.6c-0.5-0.3-4.7-2.6-4.3-3c0.3-0.3-0.9-1.5-1.1-1.3c-0.8,1.1,1.9,3,2.6,3.5
					c1.3,0.9,2.7,1.7,4.1,2.4c4.3,2.2,9,3.8,13.8,4.7c10.6,2,22.3,0.3,32.2-4.1c1.8-0.8,3.5-1.7,5.1-2.8c0.8-0.6,1.8-1.3,2-2.3
					C151.9,303.3,150.7,302.2,150.6,302.5L150.6,302.5z"/>
			</g>
		</g>
		<g>
			<g>
				<path class="st22" d="M150.1,306.2c-0.3,0.7-1,1.2-1.6,1.6c-1.1,0.8-2.3,1.5-3.6,2.1c-3.7,1.8-7.7,3.1-11.8,3.9
					c-10,2.1-20.3,1.8-29.9-2c-1.9-0.8-3.8-1.7-5.6-2.7c-0.7-0.4-1.4-0.8-2.1-1.3c-0.4-0.3-0.8-0.6-1.2-0.9
					c-0.2-0.2-0.4-0.3-0.6-0.5c-0.1-0.2-0.3-0.6-0.4-0.4c0.5-0.9-1-1-1.4-0.4c-0.8,1.4,1.7,2.8,2.6,3.4c1.5,1,3,1.8,4.6,2.6
					c4.5,2.1,9.3,3.6,14.3,4.3c10.4,1.5,21.8-0.3,31.3-4.7c1.6-0.8,3.2-1.6,4.7-2.7c0.8-0.6,1.8-1.3,2.2-2.3
					C152.1,305.4,150.4,305.6,150.1,306.2L150.1,306.2z"/>
			</g>
		</g>
		<g>
			<g>
				<path class="st23" d="M150,308.9c-1,1.8-3.4,2.9-5.1,3.7c-3.6,1.8-7.4,3-11.3,3.9c-9.9,2.2-20.2,2.1-29.8-1.4
					c-2-0.8-4-1.6-5.9-2.7c-0.7-0.4-1.5-0.8-2.2-1.3c-0.3-0.2-0.6-0.4-0.8-0.6c-0.2-0.1-0.4-0.3-0.6-0.5c-0.2-0.1-0.4-0.3-0.5-0.5
					c-0.2-0.3-0.3-0.3-0.2-0.1c0.2-0.5-1-1.7-1.2-1.2c-0.5,1.4,1.9,2.9,2.8,3.5c1.3,1,2.8,1.8,4.2,2.5c4.3,2.2,9,3.7,13.8,4.5
					c10.1,1.7,21.3,0.1,30.7-4c1.7-0.7,3.4-1.6,5-2.6c0.9-0.6,1.8-1.3,2.3-2.2C151.5,309.6,150.3,308.3,150,308.9L150,308.9z"/>
			</g>
		</g>
		<g>
			<g>
				<path class="st24" d="M149.9,312c-1.3,2-4.1,3.2-6.2,4.2c-4,1.8-8.3,3.1-12.7,3.8c-10.4,1.8-21.1,1.1-30.7-3.5
					c-1.6-0.8-3.2-1.7-4.7-2.7c-0.5-0.4-1.1-0.8-1.5-1.2c-0.1-0.1-0.3-0.4-0.4-0.4s0.2,0.2,0.1,0.5c0.1-0.5-0.9-1.7-0.9-1.4
					c-0.5,1.8,2.7,3.6,3.8,4.4c3.6,2.4,7.8,4.1,11.9,5.2c11,3,23.3,1.8,33.8-2.3c2-0.8,3.9-1.7,5.7-2.8c1-0.6,2.1-1.4,2.8-2.4
					C151,313,150.1,311.6,149.9,312L149.9,312z"/>
			</g>
		</g>
	</g>
	<g>
		<g>
			<path class="st25" d="M93.1,284.9c6.8,5.8,14.3,10.9,22.2,15.1c3.9,2.1,7.9,3.9,12,5.6c4.3,1.7,8.8,3.6,13.5,3.7c1,0,1-1.6,0-1.6
				c-4.6-0.1-9.1-2.1-13.3-3.7c-4-1.6-8-3.5-11.8-5.5c-7.7-4.1-14.9-9-21.5-14.6C93.5,283.1,92.3,284.2,93.1,284.9L93.1,284.9z"/>
		</g>
	</g>
	<polygon class="st26" points="2,241.5 1.6,252 143.3,320.6 143.3,310.5 	"/>
	<polygon class="st26" points="143.3,320.4 208.5,287.9 208.5,277.3 143.3,310.3 	"/>
	<g>
		<path class="st8" d="M79.7,64.3c0,0-5.4-3-10.5,5.6C64,78.5,71,82.3,71,82.3l77.4,38.3c-1.5-5-2.9-7.8-0.9-12.2
			c2-4.4,7.8-5.7,10.9-4.8C164.1,105.3,79.7,64.3,79.7,64.3z"/>
	</g>
	<g>
		<g>
			<path class="st25" d="M110.1,105.8c1.3-1.9,3.8-2.9,5.8-3.8c2.7-1.2,5.5-2.2,8.3-3.2c2.1-0.7,4.1-1.4,6.1-2.3
				c3.6-1.6,7.5-2,11.1-3.6c0.6-0.3-0.3-0.3-0.6-0.2c-3.6,1.6-7.7,2.1-11.3,3.7c-2.3,1-4.7,1.8-7.1,2.6c-2.7,1-5.5,2-8.1,3.3
				c-1.8,0.9-3.9,1.9-5.1,3.6C109,106.1,109.9,106.1,110.1,105.8L110.1,105.8z"/>
		</g>
	</g>
	<g>
		<g>
			<path class="st11" d="M112.7,103.5c0.6-2.6,3.2-3.9,4.9-5.7c0.9-0.9,1.6-2,2.6-2.7c1.2-0.8,2.6-1.4,3.9-2.1
				c0.3-0.1,0.4-0.4,0.1-0.6s-0.8,0-1.1,0.2c-1.4,0.7-2.8,1.3-4.1,2.2c-1.1,0.8-1.9,1.9-2.8,2.9c-1.8,1.9-4.5,3.3-5.1,6.1
				C111.1,104.3,112.6,104,112.7,103.5L112.7,103.5z"/>
		</g>
	</g>
	<g>
		<g>
			<path class="st11" d="M113.7,104c3.2-1.4,6.1-3.3,8.8-5.6c2.7-2.3,5.6-4.8,9.3-5c0.9,0,1.2-1.2,0.1-1.2c-3.7,0.2-6.7,2.3-9.4,4.6
				c-3,2.5-5.9,4.7-9.5,6.2C112,103.4,112.9,104.3,113.7,104L113.7,104z"/>
		</g>
	</g>
	<g>
		<g>
			<path class="st11" d="M114.6,103.6c2.5-0.2,4.4-1.3,6.5-2.6c5.9-3.5,12.2-6.3,18.5-9c4.1-1.7,8-3.5,11.5-6.1
				c3.1-2.3,6-4.9,8.5-7.8c4.6-5.2,8.3-11.1,11.7-17c1.4-2.5,2.7-5,4.3-7.3c0.5-0.8,1-1.5,1.7-2.2c0.2-0.2,0.5-0.4,0.7-0.5
				s0.4-0.1,0.4-0.1c0.8,0,1.6-1.1,0.5-1.1c-1.4-0.1-2.5,0.9-3.4,1.9c-1.4,1.6-2.4,3.5-3.4,5.3c-3.3,5.6-6.4,11.3-10.3,16.5
				c-4.8,6.3-10.7,12-17.8,15.5c-4.5,2.2-9.2,3.9-13.7,6c-2.7,1.3-5.5,2.6-8.1,4.1c-1.4,0.8-2.8,1.7-4.2,2.5
				c-1.1,0.5-1.9,0.8-3.2,0.9C113.8,102.5,113.5,103.7,114.6,103.6L114.6,103.6z"/>
		</g>
	</g>
	<g>
		<g>
			<path class="st11" d="M111.4,103.7c-0.8-1.2-0.5-2.9,0.1-4.1c0.7-1.4,1.9-2.3,3.3-2.9c3-1.5,6.2-2.8,9.3-4.2
				c0.3-0.1,0.6-0.5,0.4-0.8s-0.8-0.2-1.1-0.1c-1.8,0.8-3.6,1.6-5.4,2.5c-1.7,0.8-3.5,1.4-5.1,2.4c-2.4,1.5-4.9,5.1-3,7.9
				C110.3,104.9,111.8,104.3,111.4,103.7L111.4,103.7z"/>
		</g>
	</g>
	<g>
		<g>
			<path class="st25" d="M113.3,102.1c5.9-2.9,11.9-5.5,18-7.9c1-0.4,1.6-0.8,2.3-1.6c0.7-0.9,1.5-1.7,2.4-2.4
				c2.6-1.9,5.8-2.3,8.5-4c1.9-1.2,3.6-2.7,5.3-4.2c11.2-10.1,20.9-21.6,32.4-31.5c3-2.6,6.2-5.1,9.6-7.3c2.6-1.7,5.5-3.3,8.5-3.9
				c0.7-0.1,1.3-0.9,0.3-0.7c-6,1.2-11.3,5-15.9,8.7c-6.3,5-12,10.6-17.7,16.2c-5.3,5.3-10.4,10.7-15.8,15.9c-2,1.9-4,3.8-6.1,5.4
				c-0.7,0.6-1.5,1.1-2.4,1.6c-1.4,0.7-3.1,1.1-4.6,1.8c-1.7,0.8-3.4,1.8-4.7,3.1c-0.6,0.6-1.1,1.6-1.9,2.1c-1.1,0.7-2.7,1.1-4,1.6
				c-1.8,0.7-3.5,1.5-5.3,2.2c-3.3,1.4-6.5,2.9-9.7,4.5C111.4,102.3,112.9,102.3,113.3,102.1L113.3,102.1z"/>
		</g>
	</g>
	<g>
		<g>
			<path class="st11" d="M111.7,104.6c2.9-0.5,5.7-2.2,8.2-3.7c3.5-2.1,6.9-4.3,10.4-6.4c3.5-2.1,7.1-4.2,10.9-5.6
				c1.5-0.5,3.1-1,4.6-1.1c1-0.1,2,0,3-0.2c2.3-0.6,4.3-1.9,6.2-3.3c2.5-1.8,4.9-3.9,7.2-6.1c5.5-5.1,10.6-10.5,16-15.6
				c2.6-2.5,5.3-5,8.2-7.2c1.8-1.4,4.1-3.1,6.5-3.4c0.9-0.1,1.2-1.3,0.1-1.2c-2.1,0.2-4.1,1.4-5.8,2.5c-2.5,1.7-4.8,3.7-7.1,5.7
				c-5.5,5-10.6,10.4-15.9,15.5c-2.5,2.4-5,4.8-7.7,7c-2,1.6-4.1,3.2-6.4,4.3c-2.1,0.9-4.4,0.6-6.6,1.1c-3.7,0.9-7.1,2.7-10.4,4.5
				c-4.1,2.3-8,4.9-12,7.3c-2.9,1.8-6.1,4-9.5,4.6C110.4,103.6,110.8,104.8,111.7,104.6L111.7,104.6z"/>
		</g>
	</g>
	<g>
		<g>
			<path class="st11" d="M116.2,100.3c2-2.2,3.7-4.7,6-6.5c0.7-0.5,1.4-0.9,2.1-1.4c1.1-0.8,2.2-1.7,3.3-2.6
				c4.5-3.7,9-7.5,13.4-11.2c12.9-11,25.7-22.3,37.9-34.1c5.9-5.7,11.8-11.6,17-18c0.4-0.5-1.1-0.3-1.4,0
				c-4.5,5.6-9.6,10.7-14.7,15.8c-6.3,6.2-12.8,12.2-19.4,18.1c-10.8,9.7-21.8,19.2-33,28.4c-1.3,1.1-2.7,2.2-4.1,3.3
				c-0.2,0.1-0.3,0.2-0.5,0.3c-0.2,0.1,0.1-0.1,0,0c-0.6,0.4-1.2,0.8-1.7,1.2c-2.4,1.9-4.2,4.5-6.3,6.7
				C114.4,100.7,115.9,100.6,116.2,100.3L116.2,100.3z"/>
		</g>
	</g>
	<g>
		<g>
			<path class="st11" d="M111.4,101.6c3.2-1,5.5-3,8-5.2c0.8-0.7,1.7-1.2,2.5-1.8c2.1-1.3,4.1-2.7,6.2-4.1
				c8.4-5.8,16.7-11.7,24.9-17.8c10.2-7.6,20-15.7,29.7-23.9c9.6-8.2,19.4-16.2,29.4-24.1c4-3.2,8-6.3,12.1-9.3
				c0.7-0.6,1.5-1.1,2.2-1.6c0,0,0.5-0.4,0.2-0.1c-0.4,0.3,0.2-0.2,0.3-0.2c0.2-0.2,0.5-0.4,0.7-0.5c0.4-0.3,0.8-0.6,1.2-0.8
				c0.1-0.1,0.3-0.2,0.4-0.2c0.5-0.3-0.8,0.3-0.4,0.2c0.9-0.3,2.5-1.4,1.6-2.5c-0.8-1.1-3.1-0.4-4.1-0.1c-1.9,0.7-3.8,2.4-5.4,3.6
				c-3.3,2.4-6.5,4.9-9.7,7.4c-9.5,7.4-18.8,15-28,22.7c-9.9,8.3-19.6,16.7-29.8,24.5c-8.5,6.5-17.1,12.7-25.8,18.8
				c-2.8,1.9-5.6,3.9-8.5,5.8c-0.6,0.4-1.2,0.8-1.7,1.1c-1.4,0.9-2.7,2-3.9,3.1c-0.6,0.5-1.1,1-1.7,1.4c-0.2,0.2-0.4,0.3-0.6,0.4
				c0,0-0.8,0.4-0.5,0.3c-0.9,0.3-3,1-2.7,2.4C108.2,102.2,110.6,101.9,111.4,101.6L111.4,101.6z"/>
		</g>
	</g>
	<g>
		<path class="st25" d="M112.3,104c4.6-4.6,9.9-8.6,15.6-11.8c2.6-1.5,5.4-2.7,8.1-3.9c0.6-0.2,1.1-0.6,1.6-0.9
			c1.7-1.1,3.3-2.4,4.8-3.7c3-2.5,5.9-5.1,8.8-7.7c8.9-8.1,17.6-16.6,26-25.2c8.2-8.5,17.8-15.6,26.4-23.5c3.8-3.5,8-8.3,12.2-11.3
			c1.7-1.2,11-6,11.1-6.5s-0.8-0.4-1-0.4c-3.8,0.5-7.3,2.3-10.4,4.3c-4.1,2.6-7.9,5.6-11.5,8.8c-8.9,7.8-17.1,16.4-25.3,24.9
			c-8.6,8.9-17.3,17.6-26.3,26c-3.3,3.1-6.6,6.1-10.1,9c-1.9,1.6-3.8,3.2-5.8,4.7c-0.3,0.2-0.6,0.4-0.9,0.6c-0.1,0-0.1,0.1-0.2,0.1
			c-0.1,0,0.3-0.2,0,0c-0.1,0.1-0.2,0.1-0.3,0.2c-0.1,0-0.2,0.1-0.2,0.1c-0.2,0.1,0.2-0.1,0.2-0.1c0,0.1-0.4,0.2-0.5,0.2
			c-1.6,0.6-3.1,1.3-4.6,2.1c-6,2.9-11.5,6.6-16.5,11c-1.2,1.1-2.4,2.2-3.5,3.3c-0.4,0.4,0.4,0.6,0.6,0.6
			C111.2,104.7,111.8,104.4,112.3,104L112.3,104z"/>
	</g>
	<g>
		<g>
			<path class="st25" d="M105,109.4c0.8-1.9,1.6-3.7,2.6-5.5s2-3.7,3.4-5.1s3.2-2,4.9-3c1.7-1,3.2-2.1,4.7-3.4
				c0.6-0.6-0.9-0.4-1.2-0.1c-1.6,1.4-3.2,2.6-5.1,3.6c-1.6,0.9-3.4,1.6-4.7,3c-1.4,1.4-2.3,3.2-3.3,4.9c-1.1,1.9-2,3.9-2.8,5.9
				C103.3,110,104.8,109.8,105,109.4L105,109.4z"/>
		</g>
	</g>
	<g>
		<g>
			<path class="st25" d="M101.2,115.7c4.9-5.6,11.5-9.1,18.1-12.4c2.2-1.1,4.1-2.3,6.2-3.7c7.2-5.3,14.3-10.8,21.3-16.4
				c9.4-7.4,18.7-14.9,27.9-22.5c4.4-3.6,8.7-7.4,13-11.1c6.1-5.1,12.6-9.9,19.2-14.4c5.4-3.7,10.9-7.3,16.2-11.2
				c4-2.9,8-6,11.1-9.8c0.6-0.8,1.2-1.5,1.7-2.4c0.1-0.2-1.3-0.1-1.5,0.3c-2.5,4.1-6.3,7.2-10,10.1c-5,3.8-10.3,7.3-15.5,10.9
				c-6.1,4.2-12.2,8.4-18,13.1c-4.9,3.9-9.6,8.1-14.4,12.1c-9.1,7.7-18.4,15.2-27.7,22.6c-7.5,5.9-15,11.9-22.7,17.6
				c-1.6,1.2-3.5,2.7-5,3.6c-2.8,1.5-5.8,2.8-8.7,4.4c-3,1.7-5.9,3.5-8.5,5.7c-1.4,1.1-2.6,2.4-3.8,3.7
				C99.5,116.2,101,116,101.2,115.7L101.2,115.7z"/>
		</g>
	</g>
	<g>
		<g>
			<path class="st25" d="M90,115.3c4.5-3.6,9.9-6,15.1-8.2c5.6-2.4,11.3-4.4,16.9-6.7c2.2-0.9,4.3-1.9,6.4-3
				c2.5-1.4,4.8-3.4,7.1-5.2c3.1-2.4,6.2-4.8,9.5-6.9c3.4-2.1,7-3.6,10.7-5c3.8-1.4,6.9-3.5,9.9-6.1c3.4-2.9,6.7-5.9,10.1-8.8
				c3.3-2.9,6.7-5.9,10-8.8c3.1-2.7,6.1-5.5,9.7-7.5c2.4-1.4,5.1-2.5,7.1-4.4c0.8-0.8,1.6-1.6,2.3-2.5c2.7-3.1,5.4-6.2,8.1-9.3
				c3.2-3.7,6.4-7.4,9.7-11.1c2.3-2.6,4.6-5.3,7.1-7.7c0.2-0.2,0.3-0.3,0.5-0.5s0.4-0.3,0.3-0.2c1.3-1-0.7-1.5-1.6-0.9
				c-2.2,1.7-4,4-5.9,6c-3.2,3.5-6.3,7.1-9.4,10.6c-3,3.4-5.9,6.9-8.9,10.3c-1,1.2-2.1,2.3-3.1,3.5c-0.3,0.4-0.7,0.7-1,1.1
				c-0.1,0.1-0.2,0.2-0.3,0.3s-0.1,0.1,0,0c-0.4,0.3-0.8,0.6-1.3,0.9c-1.7,1.1-3.5,2-5.2,3s-3.4,2.2-4.9,3.4
				c-3.3,2.7-6.5,5.6-9.7,8.4c-3.3,2.9-6.7,5.9-10,8.8c-3.2,2.8-6.3,5.9-9.8,8.2c-3.4,2.2-7.4,3-11,4.7c-3.5,1.7-6.7,3.8-9.8,6.1
				c-4.8,3.5-9.2,7.7-14.6,10.2c-10.7,4.9-22.3,7.9-32.3,14.3c-1.1,0.7-2.1,1.4-3.2,2.2C87.1,115.5,89.1,116,90,115.3L90,115.3z"/>
		</g>
	</g>
	<g>
		<path class="st0" d="M74.9,131.1c4.9-7.2,8.1-10.2,14.8-15.8c0.6-0.5,1.2-1,1.8-1.5c-0.7,0.5,0.2-0.1,0.4-0.3
			c0.4-0.3,0.7-0.5,1.1-0.8c1.2-0.8,2.3-1.6,3.6-2.4c2.1-1.3,4.2-2.5,6.3-3.6c1.8-0.9,3.5-1.9,5.2-2.9c2.1-1.3,3.8-2.9,5.6-4.5
			c5.8-5.2,11.6-9.7,18.4-13.8c0.2-0.1,0.5-0.3,0.7-0.4c0.5-0.3,0.6-0.6-0.1,0.1c0.6-0.6,1.8-0.9,2.6-1.2c1.7-0.8,3.4-1.7,5-2.8
			c2.5-1.7,4.6-3.9,6.8-5.9c0.7-0.7,1.5-1.3,2.2-2c0.2-0.1,1.1-0.9,0.6-0.5c0.5-0.3,0.9-0.7,1.4-1c1.8-1.2,3.6-2.3,5.3-3.7
			c1.5-1.3,2.3-2.8,3.4-4.4c1.1-1.6,2.3-3.2,3.4-4.8c1-1.4,2-2.9,2.8-4.4c0.2-0.4,0.4-0.7,0.7-1c0.4-0.4-0.5,0.5,0.2-0.2
			c0.1-0.1,0.3-0.3,0.4-0.4c0.2-0.1,0.3-0.3,0.5-0.4c-0.1,0.1-0.6,0.4,0,0c0.4-0.3,0.8-0.5,1.2-0.8c0.5-0.3-0.6,0.3-0.1,0
			c0.2-0.1,0.4-0.2,0.6-0.3c0.5-0.2,0.9-0.4,1.4-0.6c0.4-0.2,0.9-0.3,1.3-0.5c0.2-0.1,0.8-0.3-0.1,0c0.3-0.1,0.6-0.2,0.8-0.3
			c2.2-0.7,4.3-1.4,6.4-2.2c4.9-1.9,8.7-5.5,12.6-9c5.2-4.7,10.4-9.5,15.9-13.9c0.4-0.3,0.8-0.6,1.2-0.9c0.1-0.1,0.6-0.5,0.3-0.2
			c-0.3,0.2,0.2-0.2,0.3-0.2c0.8-0.6,1.5-1.1,2.3-1.7c1.5-1.1,3.1-2.2,4.7-3.2c0.8-0.5,1.6-1,2.4-1.4c0.4-0.2,0.7-0.4,1.1-0.6
			c0.2-0.1,0.4-0.2,0.6-0.3c0.4-0.2-0.6,0.3,0.1,0c1.5-0.8,3.1-1.5,4.7-2.1c0.1,0,0.4-0.2,0.6-0.2c-0.6,0-0.6,0.2-0.2,0.1
			c0.4-0.1,0.8-0.3,1.2-0.4c0.8-0.2,1.5-0.4,2.3-0.6c1.3-0.3,4-1.6,3.5-3.3c-0.5-1.8-3.4-1.3-4.7-1.1c-7.5,1.5-14.4,5.5-20.5,9.8
			c-6.3,4.4-12.2,9.5-17.9,14.7c-2.3,2.1-4.6,4.2-7,6.3c-0.9,0.8-1.8,1.6-2.8,2.4c-0.2,0.2-0.4,0.3-0.6,0.5
			c-0.1,0.1-0.2,0.1-0.3,0.2c-0.4,0.4,0.3-0.3,0.3-0.3c-0.2,0.3-0.8,0.6-1.1,0.8c-0.5,0.3-1.4,0.6-0.1,0.1c-0.9,0.3-1.7,0.7-2.6,1.1
			c-0.2,0.1-0.4,0.2-0.7,0.2c-0.6,0.2,0.7-0.2,0.1,0c-0.5,0.1-0.9,0.3-1.4,0.5c-1,0.3-2,0.7-3,1c-4.3,1.5-8.7,3.3-11.7,7
			c-1,1.3-1.8,2.9-2.7,4.3c-1.1,1.6-2.4,3.2-3.5,4.8c-0.5,0.7-1,1.4-1.4,2.1c-0.5,0.8-0.8,1.4-1.2,1.8c-0.2,0.2-0.3,0.3-0.5,0.4
			c-0.1,0.1-0.6,0.5-0.3,0.3s-0.3,0.2-0.3,0.2c-0.2,0.2-0.5,0.3-0.7,0.5c-0.8,0.6-1.7,1.1-2.6,1.7c-3.2,2.1-5.9,4.9-8.7,7.5
			c-0.4,0.4-0.9,0.8-1.3,1.2c-0.3,0.3-0.7,0.6-0.1,0.1c-0.3,0.2-0.6,0.5-0.9,0.7c-0.6,0.4-1.3,0.8-2,1.2c-0.1,0.1-0.7,0.4-0.2,0.1
			s-0.2,0.1-0.3,0.1c-0.5,0.3-1,0.5-1.5,0.7c-6.9,3.3-13,8-18.9,12.8c-1.7,1.3-3.3,2.7-4.9,4.2c-0.1,0.1-2.9,2.3-2.8,2.5
			c0-0.1,0.8-0.6,0.3-0.2c-0.1,0.1-0.2,0.1-0.3,0.2c-0.2,0.1-0.3,0.2-0.5,0.4c-0.4,0.3-0.8,0.5-1.2,0.8c-0.8,0.5-1.7,1-2.5,1.5
			c-4.4,2.4-8.8,4.8-12.9,7.7c-6.8,4.9-12.6,10.9-17.7,17.5c-1.6,2.1-2.7,4.7-4.2,6.9c-1.1,1.6,0.4,2.1,1.8,2.1
			c1.9,0,4.8-2.9,4.8-2.9L74.9,131.1z"/>
	</g>
	<g>
		<g>
			<path class="st24" d="M116.9,105c10.9-7.5,21.8-15,33.1-22c5.3-3.3,10.8-6.3,15.8-10c2.4-1.8,4.6-3.8,6.9-5.7
				c2.1-1.8,4.2-3.5,6.2-5.4c0.9-0.9,1.8-1.9,2.6-2.9c0.4-0.6,0.9-1.2,1.2-1.8c0.1-0.2,0.3-0.4,0.4-0.7c0,0.1,0.5-0.9,0.2-0.4
				c-0.3,0.4,0.2-0.3,0.3-0.4c0.2-0.2,0.4-0.4,0.5-0.6c0.2-0.2,0.5-0.5,0.7-0.7c-0.5,0.5,0.5-0.5,0.7-0.6c3-2.6,6.2-4.9,9.3-7.2
				c2.5-1.9,5.3-3.8,7.4-6.2c2.5-3,5-5.8,7.7-8.5c3.7-3.6,7.6-7.1,11.7-10.2c1-0.7,2-1.4,3-2.1c0.5-0.4,1-0.7,1.6-1
				c0.2-0.1,0.3-0.2,0.5-0.3c0.3-0.2,0.3-0.2,0.1-0.1c0.1-0.1,0.3-0.1,0.4-0.2c0.9-0.5,1.9-1,2.8-1.5c0.5-0.2,0.9-0.4,1.4-0.6
				c-0.1,0-0.7,0.2-0.1,0.1c0.3-0.1,0.6-0.2,0.9-0.3c1.2-0.3,2.9-1.4,2.5-2.9s-2.5-1.6-3.6-1.3c-4.1,1.2-7.8,3.4-11.3,5.8
				c-3.9,2.7-7.5,5.8-11,9c-3.3,3-6.5,6.2-9.4,9.6c-1,1.1-1.8,2.3-2.8,3.4c-0.1,0.1-0.2,0.2-0.3,0.3c-0.3,0.3,0.6-0.5,0.1-0.1
				c-0.3,0.2-0.5,0.5-0.8,0.7c-0.7,0.6-1.4,1.1-2.1,1.7c-3.1,2.5-6.4,4.8-9.5,7.3c-2.6,2.1-5.2,4.2-6.9,7.1
				c-1.3,2.2-3.2,3.9-5.1,5.5c-2.1,1.8-4.3,3.6-6.4,5.5c-4.6,4-9.9,7-15.1,10.2c-12.9,7.8-25.3,16.3-37.6,24.8
				c-1.1,0.7-1.5,2.3-0.3,3.1C113.8,106.2,115.7,105.8,116.9,105L116.9,105z"/>
		</g>
	</g>
	<g>
		<path class="st25" d="M72.4,128.3c3.8-6.5,9.1-11.9,15.2-16.3c5.2-3.8,10.9-6.7,16.9-9.2c4.1-1.7,7.8-2.8,12-4.4
			c0.5-0.2,1-0.4,1.5-0.6c0.8-0.4,1.2-0.9,1.8-1.6c3.3-3.6,6.8-7,10.2-10.4c3.5-3.5,7-6.9,10.5-10.5c2.8-2.9,5.5-5.9,9.1-8
			c3.1-1.7,6.4-2.9,9.6-4.5c1.8-0.9,3.5-1.9,5.1-3c1.2-0.9,2.3-1.8,3.4-2.8c2.7-2.4,5.2-5.1,7.5-7.8c1-1.2,2-2.4,2.9-3.7
			c0.3-0.5,0.6-1,0.9-1.5c0-0.1,0.1-0.2,0.1-0.2c-0.1,0.2-0.1,0.1,0,0s0.1-0.1,0.2-0.2l0.1-0.1c0.1-0.1-0.2,0.2,0,0s0.4-0.3,0.6-0.5
			c0.6-0.4,1.2-0.8,1.7-1.2c2-1.5,3.9-3.1,5.8-4.8c3.2-2.9,9.3-6.2,12.1-9.5c3.2-3.7,5.7-7.2,9.4-10.5c4.5-4,9.6-7.7,14.8-10.8
			c0.2-0.1,1.4-0.2,1.6-0.3c-0.1,0-1,0-1,0c0.4-0.2-1.6-0.7-2-1.2c-0.3-0.5-1.2-0.4-1.6-0.1c-3.8,2.1,0.7-3.4-2.7-0.7
			c-8.6,0-19.5,13.7-22.6,16.8c-3.6,3.6-2.1,7.6-5.6,11.3c-2.3,2.4-4.7,4.8-7.3,6.9c-1.4,1.1-2.8,2.1-4.2,3.1
			c-0.4,0.3-0.9,0.6-1.2,1c-0.5,0.5-1.9,1.2-2.3,1.8c-1.8,2.8-7.5,5.2-9.8,7.6c-2.2,2.3-8.4,6.4-8.4,6.4l-4.2,5.2
			c0,0-6.5,3.3-9.3,5.7c-1.7,1.5-3.2,3.2-4.8,4.9c-1.7,1.8-3.4,3.5-5.1,5.2c-3.6,3.6-7.2,7.1-10.7,10.7c-1.6,1.7-3.3,3.3-4.9,5.1
			c-0.2,0.3-0.6,0.5-0.8,0.8c0.1-0.1,0.2-0.2,0,0s0.2-0.1,0,0c-0.1,0-0.2,0.1-0.3,0.1c-0.5,0.2-1.1,0.4-1.6,0.6c-0.1,0-0.4,0.1,0,0
			c-0.1,0-0.1,0.1-0.2,0.1c-0.2,0.1-0.4,0.1-0.6,0.2c-0.4,0.1-0.9,0.3-1.3,0.4c-2.2,0.8-4.4,1.5-6.5,2.4c-5.8,2.2-11.5,4.9-16.7,8.2
			c-6.2,3.9-11.9,8.8-16.3,14.7c-1.2,1.6-2.3,3.2-3.3,4.9c-0.3,0.5,0.3,0.9,0.7,0.9C71.4,129.1,72.1,128.9,72.4,128.3L72.4,128.3z"
			/>
	</g>
	<g>
		<path class="st0" d="M66.1,138.7C72,132,80,128.1,87.9,124.2c3.4-1.7,6.9-3.3,10-5.5c1.4-0.9,2.7-2,3.9-3.1c1.4-1.4,2.6-2.8,4-4.1
			c6.8-6.3,14.9-11,22.2-16.5c2.1-1.6,4.2-3.4,6.3-5c1.3-1,2.8-1.6,4.3-2.1c3.8-1.4,7.7-2.4,11.6-3.8c1.6-0.5,3.2-1.1,4.7-2
			c1.1-0.6,2-1.3,3-2c2.8-2,6.5-3.1,9.2-5.1c2.9-2.1,6.2-5.3,9.2-7.2c1-0.6,6.7-3,7.9-4.3c0.8-0.9,5.4-4,6.4-4.5
			c1.1-0.5,6.5-4.4,8.4-6c1.8-1.6,16.7-15.5,17.8-16.6c4-4.1,7.7-8.1,11.8-12c2.2-2,4.7-4.1,6.9-6c1.5-1.3,2.9-2.9,4.4-3.9
			c-0.1,0-1-1.5-1.4-1.5c-1.6-0.1-6.4-2.3-7.6-1.4c-2,1.5-7,6.8-8.9,8.5c-4.6,4.2-12.6,10.3-17,14.7c-1.6,1.6-3.2,2.9-4.8,4.5
			c-1.7,1.7-3.9,3.8-4.8,4.2c-1.2,0.5,4.1,6.1,3,5.6c-4.4-2.1-6,1-6.9,1.8c-1.8,1.8-3.9,4.7-6,6c-1,0.6-1,2.2-2.1,2.9
			c-1.3,0.8-11.7,8.4-14.2,10.1c-3.1,2.2-6.1,4.5-9.2,6.8c-2.2,1.6-4.4,1-6.8,2.3c-3.2,1.8-6.9,3.5-10.3,4.5
			c-3.6,1.1-7.4,2.1-10.5,4.3c-2.2,1.6-4.2,3.5-6.3,5.1c-2.1,1.6-4.3,2.5-6.4,4.1c-3.8,2.6-7.6,5.3-11.2,8.1
			c-1.7,1.3-4.2,3.7-5.7,5.1c-1.4,1.3-2.9,2.6-4.2,4c-2.5,2.5-5.4,4.5-8.4,6.1c-7.6,4-14.7,8.1-21.4,13.6c-1.8,1.4-3.4,3-4.9,4.7
			c-0.4,0.4,0.3,0.6,0.6,0.6C65.1,139.4,65.7,139.2,66.1,138.7L66.1,138.7z"/>
	</g>
	<path class="st8" d="M69.6,207.4L1.6,241l141.8,69.4l0,0l65-33.1L69.6,207.4z M110.5,285.7c-22.3-5-28.1-10-28.4-18.2
		c-0.4-8.3,18-15.3,38.9-15.3s37.8,7.4,37.8,16.6C158.7,277.9,132.7,290.7,110.5,285.7z"/>
	<g>
		<path class="st27" d="M160.1,269.2c0,8.8-16.6,19.2-36.4,19.2s-39.9-7.2-39.9-16s13.7-21.7,33.5-21.7
			C149.1,250.6,160.1,260.4,160.1,269.2z"/>
		<path class="st28" d="M121.5,250.4c-22,0-39.8,8.1-39.8,18.1s16.9,20,38.9,20s40.7-10,40.7-20S143.5,250.4,121.5,250.4z
			 M121.5,283.3c-19.1,0-34.5-6.8-34.5-15.3c0-8.4,15.4-15.3,34.5-15.3S156,259.6,156,268C156,276.5,140.6,283.3,121.5,283.3z"/>
	</g>
	<g>
		<path class="st8" d="M151.3,272c0.5-0.2,0.5-2.8,0.5-2.8s0.7-10.5-1.4-25.5c-2.7-19-12.5-24.3-12.5-24.3l0.2-42.1l-34.2,0.4
			l0.5,41.4c0,0-9.4,8.1-10.8,19.7c-1.5,11.6-3.8,27.7-0.8,34.4"/>
		<ellipse class="st8" cx="121" cy="178" rx="17.3" ry="8.7"/>
		<path class="st8" d="M137.9,219.1c0,3.5-7,8.7-16.5,8.7s-17-5.2-17-8.7"/>
		<ellipse class="st10" cx="121.1" cy="178" rx="10" ry="5.1"/>
		<ellipse class="st10" cx="121.1" cy="171.1" rx="10" ry="5.1"/>
		<path class="st26" d="M111.1,171.3v6.7c0,0,0.2,5.6,10.6,5.3s9.3-5.3,9.3-5.3v-6.9c0,0-1.2,4.7-9.8,4.8
			C112.7,176,111.1,171.3,111.1,171.3z"/>
	</g>
	<g>
		<path class="st24" d="M144.4,90.5c-6.1,0.6-11.9,2.6-17.4,5.5c-5.1,2.6-9.8,5.9-14.7,8.7c-0.5,0.3-1.1,0.6-1.6,0.9
			c-0.4,0.2,0.4-0.2-0.1,0c-0.1,0.1-0.2,0.1-0.3,0.2c-0.5,0.3-1,0.5-1.6,0.7c-0.3,0.1-0.5,0.2-0.8,0.3c-0.6,0.2,0.1,0-0.5,0.2
			s-1.2,0.4-1.8,0.6c-2.7,0.8-5.5,1.6-8.2,2.5c-7.8,2.6-14.8,6.7-20.9,12.1c-4.3,3.8-8.1,8.2-11.4,12.8c-0.2,0.3-0.3,0.5-0.4,0.7
			c-0.2,0.5-0.8,1.2-2.3,2.4s-1.6,2.6-2.5,4.1c-0.3,0.4-0.5,0.8-0.8,1.2c-0.5,0.8-1,0.9-1.9,1.8c-0.9,0.9-1.2,2.5-1.9,3.3
			c-0.6,0.7-1.1,0.6-1.7,1.3c-0.8,1-1.3,2-2,3.1c-0.6,0.8-1.1,1.8-1.9,2.5c-1.9,1.8-2.4,2.6-3,4.1s-0.1,1.1-1.6,3.7
			c-0.3,0.5-0.6,1.2-0.9,1.9c-0.6,1.5-1.6,3.9-2.2,6c-0.7,2.6-0.6,4.4-0.9,5.4c-0.3,1.1-0.8,2.8-0.9,3.4c-0.2,1-0.3,1.6-0.8,2.9
			c-0.5,1.2-0.5,3.2-0.7,4.6c-0.3,1.7-1,3-0.5,4.8s-0.3,2.6-0.5,3.9c-0.1,1.2-0.2,2.3-0.3,3.5c-0.1,1.9-0.7,4.2,0,5.8
			s-0.4,3.9,0.4,6.2c0.9,2.2,0.3,1.9,0.5,3.1c0.2,1.2,0,3.2,0.6,4.1s1.1,6.1,2,7.3s0.9,2.6,1.3,3.9c0.4,1.2,1.1,1.6,1.4,3.6
			c0.3,2.1,3.4,5.6,3.7,7.3c0.3,1.8,2.9,5.8,4.5,6.8s1.9,2.4,3,3.6c0.6,0.6,0.7,1.4,1.7,1.9s3.7,4.3,5.1,4.6
			c1.4,0.3,5.3,4.2,6.6,4.7c1.2,0.4,5.4,3.5,6.3,3.4s3,1.4,4.3,2.4c2.4,1.7,4.7,3.8,7.3,5.3c0.8,0.5,2.1,0.2,2.9-0.3
			c0.6-0.4,1.2-1.2,0.3-1.7c-2.6-1.5-4.8-3.5-7.3-5.3c-2.2-1.6-7.3-3.8-7.3-3.8l-2.8-1.4c-1.2-2.1-6.2-3.3-6.6-4.9s-5.8-4.2-5.6-5.3
			s-3.5-3.3-3.8-4.5s-4.6-5-4.5-6.2c0.2-1.2-3.3-5.7-3.2-6.6c0-2.3-3.1-6.2-3.1-7.8c0.1-1.6-1.1-3.7-1.6-5.6
			c-0.3-1.1-0.5-2.2-0.7-3.2c-0.4-2.1-1.4-5-1-6.3s-0.4-4.8-0.4-5.9c-0.1-1.1-0.3-5.2,0-6.6c0.3-1.4,0.2-2.8,0.3-4.2
			c0.1-1,0.2-2,0.4-3c0.2-1.3-0.2-2.1,0.6-3.9c0,0,0.6-3.5,0.9-5.3c0.3-1.6,0.4-2.7,0.8-4.3c0.4-2,1.6-4.8,2.1-6.7
			c0.7-2.5,0.6-4.4,1.7-6.7c0.3-0.7,0.8-1.9,1.8-3c1.1-1.1,2.1-3.3,2.5-4.2c1.5-2.9,1.9-1.7,3.7-5.1c0.8-0.9,0.9-1.9,2.7-3.1
			c1.8-1.2,2.8-4.3,4.6-6c1.9-1.7,2.9-4.3,4.3-6.2c1.8-2.5,3.7-5,5.8-7.3c5.7-6.4,12.4-11.9,20.4-15.3c2.9-1.2,5.3-2,8.4-2.9
			c2.5-0.7,5.1-1.4,7.6-2.4c3.8-1.5,7.2-3.9,10.6-6c4.7-2.9,9.4-5.8,14.6-7.6c2.7-1,5.5-1.6,8.3-1.9c0.8-0.1,2.2-0.5,2.3-1.4
			C146.4,90.6,145,90.5,144.4,90.5L144.4,90.5z"/>
	</g>
	<g>
		<g>
			<g>
				<path class="st0" d="M146.3,234c0.4,0.4-0.2,1.3-0.4,1.7c-0.7,1-1.6,1.9-2.6,2.7c-3.3,2.7-7.4,4.3-11.6,5.2
					c-6.3,1.4-12.9,1.1-19.1-0.1c-4.6-0.9-9.2-2.3-13.2-4.8c-1.3-0.8-2.7-1.7-3.7-2.9c-0.3-0.4-1.2-1.4-0.9-2
					c0.3-0.6-1.3-0.1-1.5,0.3c-0.9,1.7,2.5,4,3.5,4.7c4.1,2.8,9,4.5,13.8,5.5c11,2.3,24.1,1.8,33.3-5.4c0.9-0.7,5.2-4.1,3.7-5.7
					C147.4,232.8,145.9,233.6,146.3,234L146.3,234z"/>
			</g>
		</g>
		<g>
			<g>
				<path class="st29" d="M146.8,236.5c1,1.1-2.6,3.9-3.2,4.4c-3.4,2.7-7.6,4.3-11.9,5.3c-6.2,1.4-12.7,1.1-18.9,0
					c-4.8-0.9-9.6-2.4-13.8-4.9c-1.4-0.8-2.7-1.8-3.8-3c-0.3-0.4-1.2-1.3-0.9-1.8c0.4-0.6-1.2-0.5-1.5-0.1c-1.1,1.7,2.5,4.1,3.5,4.7
					c4.1,2.8,9,4.5,13.8,5.6c11.2,2.4,24.5,2,34.1-5.1c1.3-1,2.7-2.1,3.6-3.5c0.4-0.6,1.1-1.7,0.5-2.4
					C147.9,235.4,146.3,236,146.8,236.5L146.8,236.5z"/>
			</g>
		</g>
		<g>
			<g>
				<path class="st30" d="M147.5,239.2c-0.1-0.2,0-0.1-0.1,0.3c-0.1,0.4-0.4,0.8-0.7,1.1c-0.9,1.1-2,2-3.1,2.8
					c-3.7,2.6-8,4.3-12.3,5.2c-6.2,1.4-12.6,1.2-18.8,0.1c-4.8-0.9-9.6-2.3-13.8-4.7c-1.4-0.8-2.8-1.7-4-2.9
					c-0.3-0.3-0.7-0.7-0.9-1.1c-0.1-0.2-0.1-0.3,0-0.4c0.5-0.6-0.9-1.7-1.3-1c-1.3,1.7,2.4,4.4,3.4,5.1c4,2.9,8.8,4.6,13.5,5.8
					c11.5,2.8,25.1,2.3,35.1-4.7c1.3-0.9,5.9-4.1,4-6.2C148,237.8,146.8,238.3,147.5,239.2L147.5,239.2z"/>
			</g>
		</g>
		<g>
			<g>
				<path class="st31" d="M148.2,241.5c-0.3-0.4,0-0.2-0.1,0.1c-0.1,0.1-0.1,0.3-0.1,0.4c-0.2,0.4-0.5,0.8-0.8,1.2
					c-0.9,1.1-2.1,2-3.3,2.8c-3.8,2.6-8.3,4.3-12.8,5.3c-6.2,1.3-12.5,1.3-18.7,0.2c-5-0.8-9.9-2.3-14.4-4.7c-0.6-0.4-6-3.3-4.8-4.6
					c0.3-0.3-1-1.4-1.2-1.1c-1.3,1.4,2.7,4.3,3.5,4.9c3.9,2.8,8.5,4.6,13.1,5.8c11.8,3.1,25.4,2.6,35.9-4.2c1.4-0.9,6.2-3.9,4.3-6.1
					C148.5,240.9,147.5,240.6,148.2,241.5L148.2,241.5z"/>
			</g>
		</g>
		<g>
			<g>
				<path class="st32" d="M148.9,244c-0.3-0.4-0.1,0.1-0.2,0.5c-0.2,0.4-0.5,0.8-0.8,1.2c-1,1.1-2.2,2-3.4,2.8
					c-3.9,2.6-8.4,4.2-12.9,5.3c-11,2.5-23.6,0.9-33.6-4.3c-0.7-0.3-6.6-3.4-5.2-4.7c0.2-0.2-1-1.4-1.1-1.2
					c-1.3,1.2,2.7,4.3,3.4,4.8c3.8,2.8,8.5,4.7,13.1,5.9c12,3.2,25.8,2.7,36.6-3.9c1.5-0.9,6.6-3.9,4.6-6.1
					C149,243.7,148.1,243.1,148.9,244L148.9,244z"/>
			</g>
		</g>
		<g>
			<g>
				<path class="st33" d="M149,247.1c0.2,0.3-0.4,1.2-0.8,1.6c-1,1.1-2.3,2-3.6,2.8c-4.2,2.6-9,4.2-13.8,5.1
					c-10.9,2.1-23.4,0.4-33.2-5.1c-1.5-0.8-3-1.7-4.2-2.9c-0.4-0.3-0.7-0.7-0.9-1.2c-0.1-0.1-0.1-0.3-0.1-0.3c0-0.1,0,0,0,0
					c0.8-0.7-0.6-1.4-1.2-0.9c-1.8,1.5,2.1,4.2,3.1,4.9c4.2,2.9,9.1,4.7,14,5.9c12.2,3.1,25.9,2.2,36.9-4.3c1.3-0.8,7.2-4.2,5.3-6.5
					C149.8,245.7,148.3,246.3,149,247.1L149,247.1z"/>
			</g>
		</g>
		<g>
			<g>
				<path class="st34" d="M149.4,249.4c1.2,1.5-3.6,4.3-4.4,4.8c-4.4,2.7-9.4,4.4-14.4,5.3c-11.1,2.1-23.7,0.3-33.6-5.3
					c-0.5-0.3-6.4-3.9-5.1-4.8c0.5-0.4-1-0.7-1.4-0.4c-1.7,1.3,2.6,4.1,3.3,4.6c4.3,2.8,9.2,4.7,14.1,5.9c12.3,3,25.9,2.2,37.1-4
					c1.8-1,3.6-2.1,5-3.6c0.6-0.6,1.6-1.8,0.9-2.6C150.6,248.8,149.1,249,149.4,249.4L149.4,249.4z"/>
			</g>
		</g>
		<g>
			<g>
				<path class="st35" d="M149.9,252.1c1.3,1.6-3.9,4.6-4.8,5.1c-4.7,2.7-10.1,4.5-15.4,5.3c-11.2,1.9-23.7-0.2-33.5-5.9
					c-0.5-0.3-6.3-3.9-4.8-4.9c0.3-0.2-0.2-0.2-0.3-0.2c-0.3,0-0.8,0.1-1.1,0.2c-1.7,1.1,2.8,4,3.4,4.4c4.4,2.8,9.5,4.7,14.6,5.9
					c12.3,2.9,25.8,1.7,37.1-4.1c1.9-1,3.8-2.1,5.4-3.6c0.6-0.6,1.7-1.7,1-2.6C151.3,251.5,149.8,251.9,149.9,252.1L149.9,252.1z"/>
			</g>
		</g>
		<g>
			<g>
				<path class="st36" d="M150.7,255.1c0,0,0,0.2-0.1,0.5c-0.2,0.5-0.7,0.9-1.1,1.2c-1.3,1.2-2.9,2.1-4.5,2.9
					c-4.8,2.5-10,4.1-15.3,5c-11.2,1.9-23.3-0.1-33.3-5.4c-1.6-0.9-3.2-1.8-4.6-3c-0.4-0.3-0.7-0.7-1-1.1c-0.3-0.4,0-0.3-0.3-0.1
					c0.9-0.5,0.2-1.8-0.7-1.3c-2.5,1.5,1.5,4.3,2.6,5c4.3,2.9,9.3,4.8,14.3,6.2c12.9,3.4,27,2.3,38.9-3.9c1.6-0.8,8.3-4.2,6.1-6.9
					C151.3,253.3,150,254.4,150.7,255.1L150.7,255.1z"/>
			</g>
		</g>
		<g>
			<g>
				<path class="st37" d="M151,257.3c1.3,1.6-4.8,4.7-5.6,5.1c-4.9,2.5-10.4,4.2-15.8,5.1c-11.4,1.9-23.9-0.1-34.1-5.7
					c-0.4-0.2-6.4-3.9-5.1-4.6c0.7-0.4-0.8-1-1.3-0.8c-2.1,1.1,2.4,4.1,3.1,4.5c4.3,2.9,9.3,4.8,14.3,6.1
					c12.9,3.5,26.8,2.4,38.9-3.4c1.2-0.6,9-4.1,7.1-6.6C152.2,256.7,150.6,256.7,151,257.3L151,257.3z"/>
			</g>
		</g>
		<g>
			<g>
				<path class="st38" d="M151.7,260.3c0.3,0.4-1.1,1.6-1.4,1.9c-1.5,1.2-3.2,2.1-4.9,2.9c-5,2.4-10.4,4-15.9,4.8
					c-11.4,1.8-23.7-0.2-33.9-5.6c-1.7-0.9-3.3-1.8-4.7-3.1c-0.4-0.3-0.8-0.7-1-1.1c-0.1-0.2-0.1-0.2-0.1-0.3c0,0.1-0.1,0.2-0.1,0.2
					c0.9-0.5,0.2-1.7-0.7-1.2c-2.7,1.3,1.7,4.3,2.7,5c4.4,3,9.6,4.9,14.7,6.3c13.2,3.5,27.5,2.2,39.9-3.8c1.6-0.8,8.9-4.1,6.7-6.9
					C152.4,258.6,151.1,259.5,151.7,260.3L151.7,260.3z"/>
			</g>
		</g>
		<g>
			<g>
				<path class="st39" d="M152.1,262.8c1.5,1.9-4.6,4.6-5.6,5.1c-5.1,2.4-10.7,4-16.3,5c-11.7,1.9-24.1-0.2-34.7-5.6
					c-1.7-0.9-3.5-1.9-5-3.2c-0.4-0.4-1-0.8-1.2-1.3c-0.2-0.4,0-0.7-0.4-0.6c0.9-0.4,0.7-0.9-0.2-0.5c-2.8,1.2,1.4,3.8,2.6,4.6
					c4.9,3.1,10.5,5.1,16.1,6.5c13,3.1,26.9,1.4,39-4.2c2.1-1,4.2-2.1,6-3.6c0.7-0.6,2-1.8,1.3-2.8
					C153.3,261.8,151.9,262.6,152.1,262.8L152.1,262.8z"/>
			</g>
		</g>
		<g>
			<g>
				<path class="st40" d="M152.7,265.4c1.1,1.4-5.4,4.5-6.1,4.8c-5,2.3-10.3,3.9-15.7,4.9c-12,2.2-24.5,0.3-35.5-5.1
					c-1.9-0.9-3.8-2-5.4-3.3c-0.4-0.3-1-0.8-1.2-1.3c-0.2-0.3-0.2-0.3,0-0.4c0.9-0.4-0.2-1.3-0.9-1c-2.8,1.1,2.5,4.5,3.3,5
					c4.9,3.1,10.5,5.1,16.2,6.5c13.3,3.3,27.5,1.6,39.9-4.1c1.5-0.7,9-3.9,6.9-6.6C153.6,264.2,152.1,264.6,152.7,265.4L152.7,265.4
					z"/>
			</g>
		</g>
		<g>
			<g>
				<path class="st41" d="M153.1,267.7c1.5,1.9-4.5,4.6-5.5,5c-5,2.4-10.4,4-15.9,5.1c-6.5,1.3-13.1,1.6-19.6,0.5
					c-6-1-12-2.9-17.4-5.6c-1.9-1-3.8-2-5.5-3.4c-0.4-0.3-1.8-1.6-0.8-2c0.4-0.2-0.9-0.6-1.3-0.5c-2.4,0.9,3.4,4.4,4,4.7
					c5.2,3,11,5.1,16.9,6.5c13,3,26.8,1.2,39.1-4c1.2-0.5,9.4-3.8,7.6-6.3C154.4,267.4,153,267.5,153.1,267.7L153.1,267.7z"/>
			</g>
		</g>
		<g>
			<g>
				<path class="st25" d="M153.7,270.6c1.5,2-4.5,4.6-5.5,5c-5.1,2.3-10.6,3.9-16.1,4.9c-6.6,1.2-13.2,1.4-19.8,0.3
					c-5.9-1-11.8-2.9-17.2-5.5c-2-1-4.1-2.1-5.8-3.5c-0.5-0.4-1.1-0.9-1.4-1.5c-0.1-0.2-0.1-0.4-0.2-0.5c-0.1-0.3,0.6-0.4-0.2-0.2
					c0.8-0.3,0.8-0.6-0.1-0.3c-1,0.3-1.6,0.8-0.9,1.7c1,1.3,2.6,2.2,4,3.1c5.6,3.3,12,5.5,18.3,6.8c12.9,2.7,26.7,0.4,38.8-4.7
					c1.2-0.5,9.4-3.8,7.6-6.2C155,269.8,153.6,270.5,153.7,270.6L153.7,270.6z"/>
			</g>
		</g>
	</g>
	<path class="st42" d="M83.9,274.4c-0.8-0.7-1.2-1.8-0.9-2.9c0.4-1.7,2-2.7,3.7-2.3c1.7,0.4,2.7,2,2.3,3.7c-0.1,0.3-0.2,0.4-0.3,0.7
		l1.6,1.2c0.4-0.5,0.5-0.8,0.6-1.5c0.6-2.7-1.1-5.4-3.8-6c-2.7-0.6-5.4,1.1-6,3.8c-0.6,2.7,1.1,5.4,3.8,6
		C85.4,277.1,84.2,274.6,83.9,274.4z"/>
	<g>
		<g>
			<path class="st24" d="M87.3,269.8c-0.9-0.5-2.7,0.1-3.4,0.7c-0.7,0.6-0.4,1,0.1,1.6c1.8,2.1,4,4.1,6.2,5.8c4.6,3.7,10,5.8,15.7,7
				c4.5,1,9.2,1.3,13.8,1.4c5.3,0.1,10.6-0.1,15.8-1.2c6.9-1.4,14-4.4,18.7-9.8c1.2-1.3,5.8-7.9,1.8-8.7c-0.9-0.2-2.2,0.2-2.9,0.8
				c-0.6,0.5-0.5,1,0.3,1.1c-0.4-0.1-0.2-0.2-0.2,0s0-0.1,0,0s0.1,0.2,0.1,0.3c0.1,0.5,0.1,0.8,0,1.1c-0.3,1.4-0.9,2.8-1.8,3.9
				c-2.9,4.1-7.4,6.9-12.1,8.4c-3.8,1.3-7.8,1.7-11.9,1.9c-4.5,0.2-8.9,0.1-13.4-0.3c-5.7-0.6-11.5-2-16.4-4.9
				c-1.9-1.1-3.7-2.4-5.3-3.9c-1.3-1.1-2.5-2.3-3.7-3.5c-0.4-0.4-0.7-0.7-1.1-1.1c-0.1-0.2-0.2-0.2-0.1-0.2v-0.1l0,0
				c-0.1-0.3-0.2-0.1-0.4,0.7c-0.5,0.2-0.9,0.4-1.4,0.6c-0.3,0.1-1.7,0.1-1.7,0.1C85,272.1,88.8,270.6,87.3,269.8L87.3,269.8z"/>
		</g>
	</g>
	<rect x="107.2" y="359.5" class="st43" width="25.9" height="17.3"/>
	<path class="st44" d="M133.1,364.4v4.3c0.4,0.5,0.6,1,0.6,1.6c0,2.8-5.8,4.3-13.1,4.3s-13.8-1.5-13.8-4.3c0-0.4,0.1-0.8,0.4-1.1
		v-4.5c-3.1,1.5-5,3.5-5,5.7c0,5.1,8.2,8.3,18.2,8.3c10.1,0,18.2-3.7,18.2-8.3C138.6,368,136.5,365.9,133.1,364.4z"/>
	<g>
		<path class="st10" d="M60.1,216.8l3.5,1.7l3.3-1.8l0.2-53.6l-3.5-1.7l-3.6,1.8C59.9,163.1,60.1,217.3,60.1,216.8z"/>
		<g>
			<line class="st45" x1="63.4" y1="218.3" x2="63.5" y2="164.9"/>
			<path class="st46" d="M59.8,163.1l3.7,1.8l3.6-1.9l-3.5-1.8L59.8,163.1z"/>
		</g>
	</g>
	<path class="st47" d="M48.2,165.8l-0.7,2.3c1.6,0.2,2.3,0.8,2.3,1.4c0,0.9-2.2,1.5-4.8,1.5c-2.7,0-4.8-0.7-4.8-1.5
		c0-0.6,1.2-1.2,2.9-1.5l1-2.8c-4.4,0.2-8,2.2-8,4.3c0,2.3,3.9,4.2,8.8,4.2s8.8-1.9,8.8-4.2C53.7,167.7,51.7,166.3,48.2,165.8z"/>
	<g>
		<path class="st48" d="M44.9,175.1c-6.1,0-8.6-2.6-8.7-3.3v-2.4c0,1.5,3.4,4.1,8.3,4.1c7.1,0,9.1-3.2,9.1-3.2l-0.1,1.8
			C53.2,173,49.5,174.9,44.9,175.1z"/>
	</g>
	<polygon class="st3" points="51.5,172.5 60.1,176.7 60,177.9 51.5,173.7 	"/>
	<polygon class="st3" points="51.5,172.5 53.7,171.3 60,174.3 60.1,176.7 	"/>
	<path class="st4" d="M66.1,139.8c0,0-1.4,1.9-2.5,2.1c-1.6,0.3-3.4,0.1-4.2,1.2"/>
	<path class="st4" d="M61.9,145.5c0,0-1.7,1.7-2.8,1.9c-1.6,0.3-3.4,0.2-4.1,1.3"/>
	<path class="st5" d="M58,150.3c0,0-1.7,1.7-2.8,1.9c-1.6,0.3-3.4,0.2-4.1,1.3"/>
	<path class="st5" d="M53.4,156.2c0,0-1.6,1.6-2.7,1.9c-1.6,0.4-3.5,0.7-4.2,1.9"/>
	<path class="st6" d="M49.4,162.8c0,0-1.4,2.3-2.5,2.8c-1.5,0.7-3.3,1.1-3.7,2.3"/>
	<path class="st6" d="M45.3,175c0,0-0.9,2.2-1.9,2.8c-1.4,0.9-3.1,1.4-3.5,2.7"/>
	<path class="st49" d="M44.3,180.6c0,0-1.1,2.7-2.1,3.4c-1.4,1-2.9,1.7-3.4,3.4"/>
	<path class="st50" d="M43.3,186.2c-0.3,1.6-1.8,4-2.9,4.6c-1.6,1-2.2,1-2.7,2.6"/>
	<path class="st51" d="M42.4,192.1c-0.3,1.6-1.7,3.9-2.7,4.6c-1.4,1-1.9,1.2-2.4,2.8"/>
	<path class="st4" d="M41.9,197.8c0.1,1.6-1,4.2-2.1,5.1c-1.6,1.3-2.3,1.5-2.5,3.2"/>
	<path class="st4" d="M41.8,203.3c0,1.7-0.9,4.6-1.8,5.5c-1.3,1.4-1.9,1.5-2,3.4"/>
	<path class="st4" d="M42.3,210.4c0.1,1.6-0.6,4.3-1.4,5.2c-1.1,1.3-1.7,1.5-1.7,3.2"/>
	<path class="st4" d="M43.5,217.9c0.1,1.6-0.5,4.3-1.1,5.2c-0.9,1.3-1.1,1.5-1.1,3.2"/>
	<path class="st4" d="M45.5,225.5c0.1,1.6-0.4,4.2-0.8,5.1c-0.6,1.3-0.9,1.5-0.9,3.2"/>
	<path class="st4" d="M48.5,233.1c0.1,1.6-0.3,2.9-0.7,3.9c-0.6,1.3-0.3,2.4-0.3,4.1"/>
	<path class="st4" d="M51.7,239.8c0.3,1.6,0.1,3.1,0,4c0,1.3-0.1,2.1,0.1,3.8"/>
	<path class="st4" d="M56.1,246.2c0.3,1.6,0.1,2.5,0,3.4c0,1.3,0.3,1.7,0.5,3.4"/>
	<path class="st4" d="M59.9,250.8c0.6,1.5,0.6,2.4,0.8,3.3c0.2,1.3,0.7,2.1,1.3,3.7"/>
	<path class="st4" d="M65.4,255.7c0.6,1.5,0.7,1.7,1.3,3.2c0.6,1.5,1.2,2,1.7,3.6"/>
	<path class="st4" d="M79.6,124.8c0,0-4.7,2.8-5.8,3c-1.6,0.3-3.8,0.2-4.6,1.3"/>
	<path class="st4" d="M75.1,131.3c0,0-5,2.3-6.2,2.7c-1.7,0.6-3.6,0.7-4.6,2.1"/>
	<g>
		<g>
			<g>
				<path class="st11" d="M145.9,229.9C145.9,229.9,145.9,229.8,145.9,229.9c-0.1,0.4-0.1,0.6-0.2,1c-0.4,1.2-1.3,2.2-2.1,3.1
					c-2.9,3.3-7,5.5-11.2,6.7c-6.5,1.9-13.5,1.8-20.1,0.4c-4.7-1-9.6-2.7-13.3-6c-1.1-1-2.2-2.2-2.8-3.7c-0.3-0.8-0.5-1.7,0-2.2
					c0.7-0.7-0.8-1.4-1.4-0.8c-1.8,1.8,0.6,5.1,1.8,6.5c3.4,3.8,8.5,6,13.4,7.2c11.6,2.9,26.4,2.2,34.9-7.2c0.8-0.9,4.6-5.9,1.5-6.5
					C145.4,228.3,144.8,229.7,145.9,229.9L145.9,229.9z"/>
			</g>
		</g>
		<g>
			<g>
				<path class="st52" d="M147.2,232.5c-0.1,0-0.5-0.8-0.6-0.6c0,0.1,0,0.4,0,0.5c-0.1,0.5-0.3,0.9-0.5,1.3
					c-0.7,1.2-1.6,2.3-2.6,3.3c-3.2,3.1-7.4,5.3-11.7,6.5c-6.3,1.8-13.1,1.7-19.5,0.5c-4.9-0.9-10-2.6-13.9-5.9
					c-1.2-1-4.4-4.1-2.7-5.9c0.2-0.3-1-1.5-1.2-1.2c-1.6,1.7,1.2,5,2.3,6.2c3.5,3.7,8.3,6,13.2,7.3c11.6,3.1,26.7,2.5,35.4-7
					c1-1.1,2.1-2.4,2.4-3.8c0.2-1-0.5-2.2-1.6-2.4c-0.3-0.1,0.2,0.6,0.2,0.6C146.5,232.1,146.8,232.4,147.2,232.5L147.2,232.5z"/>
			</g>
		</g>
		<g>
			<g>
				<path class="st53" d="M146.4,234.5c1.6,0.4-1.8,4.4-2.1,4.7c-3.1,3.2-7.2,5.5-11.5,6.9c-6.9,2.3-14.4,2.2-21.4,0.6
					c-4.7-1.1-9.5-3.1-13.1-6.4c-1.1-1-4.5-4.4-2.8-6.1c-0.2,0.2-1.4-0.5-1.7-0.1c-1.6,1.7,1.6,4.9,2.6,5.9
					c3.7,3.5,8.7,5.5,13.6,6.7c11.6,2.7,25.4,2.2,34.8-6c0.6-0.5,5.6-5.4,3.2-6.1c-0.4-0.1-0.8-0.2-1.2-0.1
					C146.7,234.4,146.1,234.5,146.4,234.5L146.4,234.5z"/>
			</g>
		</g>
		<g>
			<g>
				<path class="st54" d="M147.6,237.8c-0.3-0.1-0.2-0.5-0.3,0c-0.1,0.4-0.3,0.7-0.5,1.1c-0.7,1.2-1.7,2.3-2.8,3.2
					c-3.5,3.1-7.8,5.2-12.2,6.4c-6.4,1.8-13.3,1.7-19.8,0.4c-4.9-1-9.9-2.8-13.8-5.9c-1.2-1-2.5-2.1-3.2-3.5
					c-0.3-0.6-0.8-1.7-0.4-2.1c0.6-0.6-0.8-1.6-1.3-1.1c-1.7,1.8,1.2,4.9,2.3,6.1c3.6,3.7,8.6,5.9,13.5,7.2
					c11.9,3.2,26.5,2.2,36.1-6.4c1-0.9,5.7-5.4,2.4-6.5C146.7,236.3,146.7,237.5,147.6,237.8L147.6,237.8z"/>
			</g>
		</g>
		<g>
			<g>
				<path class="st55" d="M147.7,240.3c-0.2-0.1,0,0.1,0,0.4c-0.1,0.4-0.3,0.8-0.5,1.1c-0.8,1.2-1.8,2.3-2.9,3.2
					c-3.7,3.1-8.2,5.3-12.9,6.5c-6.5,1.7-13.3,1.5-19.8,0.1c-4.8-1.1-9.7-2.9-13.5-6.1c-1.3-1-2.5-2.2-3.3-3.6
					c-0.3-0.5-0.9-1.7-0.4-2.2c0.6-0.6-1.1-0.9-1.5-0.5c-1.6,1.7,1.5,4.7,2.6,5.7c3.7,3.5,8.7,5.7,13.6,7
					c12.1,3.2,26.3,2.1,36.3-6.1c0.8-0.7,6.1-5.2,3.3-6.3C148,239.3,146.7,239.9,147.7,240.3L147.7,240.3z"/>
			</g>
		</g>
		<g>
			<g>
				<path class="st56" d="M147.9,242.9c1.5,0.7-2.8,4.4-3.2,4.8c-3.9,3.2-8.6,5.3-13.4,6.5c-6.6,1.6-13.5,1.3-20.1-0.2
					c-4.8-1.1-9.6-3-13.5-6.1c-1.3-1-2.6-2.2-3.5-3.6c-0.3-0.5-1-1.7-0.5-2.3c0.3-0.3-0.3-0.3-0.4-0.3c-0.4,0-0.8,0.2-1.1,0.5
					c-1.5,1.6,1.9,4.7,2.9,5.5c3.8,3.4,8.8,5.5,13.7,6.8c12.2,3.2,26,1.6,36.3-6.1c0.6-0.4,6.4-5.3,4.3-6.2
					C148.9,242,147.6,242.8,147.9,242.9L147.9,242.9z"/>
			</g>
		</g>
		<g>
			<g>
				<path class="st57" d="M149.1,246c-0.6-0.3-0.1-0.8-0.4-0.1c-0.2,0.5-0.5,0.9-0.8,1.3c-1,1.2-2.3,2.3-3.6,3.2
					c-4.1,3-9,5-13.9,6.1c-6.4,1.4-13,1.2-19.4-0.2c-4.8-1.1-9.6-2.9-13.6-5.9c-1.3-1-2.6-2.1-3.6-3.4c-0.3-0.4-0.6-0.9-0.7-1.2
					s-0.1-0.4,0.1-0.6c0.5-0.5-0.6-1.8-1.2-1.2c-1.6,1.7,1.9,5,3,6c3.8,3.5,8.7,5.7,13.6,7.1c12.4,3.5,26.8,2.1,37.2-5.9
					c1.2-0.9,6.6-5.1,3.3-6.7C148.2,244,148.5,245.6,149.1,246L149.1,246z"/>
			</g>
		</g>
		<g>
			<g>
				<path class="st58" d="M149.3,248.4c-0.4-0.2-0.1-0.4-0.3,0.1s-0.5,0.9-0.9,1.3c-1,1.2-2.3,2.2-3.6,3.1c-4.2,2.9-9.1,4.9-14,6.1
					c-10.9,2.5-24,0.7-33.2-5.8c-1.4-1-2.7-2.1-3.8-3.4c-0.3-0.4-1.1-1.6-0.8-1.9c0.6-0.6-0.8-1.6-1.3-1.1c-1.5,1.7,2,4.7,3,5.7
					c3.9,3.4,8.9,5.7,13.8,7.1c12.5,3.6,26.6,2.1,37.4-5.4c1.1-0.8,7.2-5,4.2-6.6C149,246.9,148.4,247.9,149.3,248.4L149.3,248.4z"
					/>
			</g>
		</g>
		<g>
			<g>
				<path class="st59" d="M150.2,251.1c-0.2-0.1-0.2-0.6-0.4-0.4c-0.1,0.1-0.1,0.4-0.2,0.5c-0.2,0.5-0.6,0.9-1,1.3
					c-1.2,1.2-2.6,2.2-4,3.2c-4.4,2.9-9.4,4.9-14.6,6c-11,2.4-23.7,0.5-33.1-5.9c-1.5-1-2.9-2.1-4-3.4c-0.3-0.3-1.1-1.3-0.7-1.8
					c0.4-0.4-0.8-1.6-1.1-1.3c-1.4,1.5,2.4,4.8,3.3,5.6c3.8,3.3,8.6,5.5,13.4,7c12.7,3.9,27.1,2.3,38.2-5.1c1.3-0.9,7.3-4.7,4.1-6.7
					C149.1,249.4,149.7,250.8,150.2,251.1L150.2,251.1z"/>
			</g>
		</g>
		<g>
			<g>
				<path class="st60" d="M150.3,253.9c-0.4-0.3-0.1-0.5-0.4,0c-0.3,0.5-0.7,0.9-1.1,1.3c-1.3,1.2-2.8,2.3-4.3,3.2
					c-4.5,2.8-9.6,4.7-14.8,5.7c-11.1,2.3-23.6,0.2-33-6.1c-1.5-1-3-2.1-4.1-3.5c-0.3-0.3-0.7-0.8-0.8-1.1c-0.1-0.2-0.1-0.3-0.1-0.4
					c0,0-0.1,0.1,0,0.1c0.6-0.7-0.6-1.9-1.2-1.1c-1.6,1.7,2.3,4.9,3.4,5.7c4,3.3,8.9,5.5,13.8,7c12.8,3.8,27,2,38.3-5.1
					c1.3-0.8,7.9-4.9,4.9-6.9C150,251.9,149.6,253.4,150.3,253.9L150.3,253.9z"/>
			</g>
		</g>
		<g>
			<g>
				<path class="st61" d="M150.4,256.3c1.5,1.2-4.4,4.8-5.1,5.1c-5.1,3-10.9,5-16.8,5.9c-11,1.7-23.2-0.7-32.5-7.1
					c-1.4-1-2.8-2.1-3.9-3.4c-0.3-0.3-1.4-1.6-0.9-2.1c0.2-0.3-0.3,0-0.4,0c-0.3,0.1-0.8,0.4-1,0.6c-1.2,1.4,3,4.4,3.8,5
					c4.2,3.1,9.1,5.3,14.2,6.7c12.7,3.5,26.3,1.3,37.6-5.3c0.7-0.4,8.1-4.9,6.4-6.2C151.6,255.2,150.4,256.3,150.4,256.3
					L150.4,256.3z"/>
			</g>
		</g>
		<g>
			<g>
				<path class="st62" d="M150.8,258.6c1.3,1.1-4.6,4.7-5.1,5c-4.9,2.9-10.5,5-16.1,6.1c-11.4,2.3-24-0.2-33.7-6.7
					c-0.6-0.4-6-4.1-4.9-5.3c0.1-0.1-1.4-0.4-1.6-0.1c-1.1,1.3,3.4,4.4,4.1,4.9c4.2,3.1,9.2,5.2,14.2,6.6
					c12.7,3.5,26.3,1.7,37.9-4.4c0.8-0.4,8.8-4.8,7-6.3C152.1,258.2,150.7,258.6,150.8,258.6L150.8,258.6z"/>
			</g>
		</g>
		<g>
			<g>
				<path class="st63" d="M151.3,261.3c1.4,1.3-4.6,4.6-5.3,5c-5.1,2.9-10.8,4.9-16.5,6.1c-11.5,2.2-24.1-0.4-33.8-6.8
					c-1.5-1-3-2.1-4.2-3.4c-0.3-0.3-1.5-1.5-1-2c-0.1,0.1-1.4-0.2-1.6,0.1c-1,1.2,3.6,4.3,4.3,4.8c4.4,3.1,9.4,5.2,14.5,6.6
					c12.6,3.4,25.9,1.4,37.5-4.3c0.7-0.4,9.5-4.9,7.9-6.4C152.6,260.8,151.4,261.5,151.3,261.3L151.3,261.3z"/>
			</g>
		</g>
		<g>
			<g>
				<path class="st64" d="M151.8,264.1c1.3,1.4-4.9,4.6-5.6,5c-5.2,2.8-10.9,4.8-16.7,5.8c-11.6,2.1-23.9-0.5-33.9-6.7
					c-0.5-0.3-6.8-4.3-5.8-5.4c-0.1,0.1-1.3,0-1.6,0.3c-1,1.2,4,4.4,4.6,4.8c4.7,3.1,10,5.3,15.4,6.7c12.6,3.2,25.9,0.8,37.5-4.8
					c0.8-0.4,9.2-4.5,7.6-6.1C153.1,263.4,151.8,264.2,151.8,264.1L151.8,264.1z"/>
			</g>
		</g>
		<g>
			<g>
				<path class="st0" d="M152.6,267.1c-0.3-0.3-0.1-0.3-0.4,0.2c-0.4,0.5-0.9,0.9-1.4,1.2c-1.5,1.1-3.2,2-4.9,2.8
					c-5,2.5-10.4,4.3-15.9,5.4c-11.7,2.3-23.8,0.2-34.1-5.7c-1.8-1-3.5-2.1-5-3.4c-0.5-0.4-1-0.8-1.4-1.3c-0.1-0.1-0.2-0.4-0.3-0.5
					c0,0,0.1,0.1-0.1,0.3c0.6-0.7-0.6-1.9-1.2-1.2c-1.5,1.8,3.5,4.9,4.5,5.5c4.7,3.2,10.1,5.5,15.5,7c6.8,1.8,13.8,2.3,20.8,1.1
					c6.2-1,12.4-3,18.1-5.8c1.4-0.7,9-4.1,6.7-6.7C152.9,265.3,151.9,266.3,152.6,267.1L152.6,267.1z"/>
			</g>
		</g>
	</g>
	<ellipse transform="matrix(0.5 -0.866 0.866 0.5 -20.2916 188.7551)" class="st9" cx="153.3" cy="112" rx="10.1" ry="7.5"/>
	<g>
		<g>
			<path class="st8" d="M91.9,44c0,0-5.4-3-10.5,5.6S83.2,62,83.2,62l77.4,38.3c-1.5-5-2.9-7.8-0.9-12.2c2-4.4,7.8-5.7,10.9-4.8
				C176.3,85,91.9,44,91.9,44z"/>
		</g>
		<ellipse transform="matrix(0.5 -0.866 0.866 0.5 3.3636 189.205)" class="st9" cx="165.5" cy="91.7" rx="10.1" ry="7.5"/>
	</g>
	<g>
		<path class="st65" d="M130,363c-6.9,1.4-16,1.6-25.7-0.8S2.4,311.7,2.4,311.7v8.6c0,0,90,47.7,100.8,51.1c6,1.9,10.2,2.5,14.8,2.7
			c3.7,0.1,7.9-0.2,13.5-1.2c12.5-2.2,64.1-29.7,64.1-29.7l12.8-6.5l0.2-9.8c0,0-48.5,25.1-67.3,32.6
			C137.2,361.1,136.9,361.7,130,363z"/>
		<g>
			<path class="st28" d="M120.1,364.2c-5.1,0-10.3-0.6-15.4-1.9C95,359.9,4.3,312.8,2.1,311.7l1.5-0.8c0.5,0.3,92.1,47.7,101.6,50.1
				c11.3,2.8,20.8,1.8,25.3,0.9c5.3-1,7.4-2.1,9.6-3c0.6-0.3,3.6-1.5,4.5-1.9c18.5-7.4,62.7-30.7,63-30.8l1.4,0.5
				c-0.3,0.2-47.7,25.5-66.4,33c-0.9,0.3-1.6,0.6-2.2,0.9c-2.3,1-3.7,1.6-9.3,2.7C127.6,363.9,123.9,364.2,120.1,364.2z"/>
		</g>
	</g>
	<path class="st66" d="M133.8,347.5v4.7c0.4,0.5,0.6,1.1,0.6,1.7c0,3-5.9,4.7-13.2,4.7s-13.9-1.6-13.9-4.7c0-0.4,0.1-0.8,0.4-1.2
		v-4.9c-3.1,1.6-5,3.8-5,6.1c0,5.5,8.2,8.9,18.4,8.9c10.1,0,18.4-4,18.4-8.9C139.4,351.4,137.3,349.1,133.8,347.5z"/>
	<path class="st4" d="M72.3,260.7c0.4,1.1,0.9,1.1,1.3,2.1s0.8,1.6,1.2,2.8"/>
	<g>
		<g>
			<path class="st8" d="M156.8,9c0,0-5.4-3-10.5,5.6s1.8,12.4,1.8,12.4l77.4,38.3c-1.5-5-2.9-7.8-0.9-12.2s7.8-5.7,10.9-4.8
				C241.1,50,156.8,9,156.8,9z"/>
		</g>
		<ellipse transform="matrix(0.5 -0.866 0.866 0.5 66.0952 227.7648)" class="st9" cx="230.3" cy="56.6" rx="10.1" ry="7.5"/>
	</g>
</g>
</svg>
