<?xml version="1.0" encoding="utf-8"?>
<!-- Generator: Adobe Illustrator 25.2.3, SVG Export Plug-In . SVG Version: 6.00 Build 0)  -->
<svg version="1.1" id="Layer_1" xmlns="http://www.w3.org/2000/svg" xmlns:xlink="http://www.w3.org/1999/xlink" x="0px" y="0px"
	 viewBox="0 0 242.6 382.6" style="enable-background:new 0 0 242.6 382.6;" xml:space="preserve">
<style type="text/css">
	.st0{fill:#E4DAD8;stroke:#FFFFFF;stroke-width:0.5;stroke-linejoin:bevel;stroke-miterlimit:10;}
	.st1{fill:none;stroke:#FFFFFF;stroke-width:0.2495;stroke-miterlimit:10;}
	.st2{fill:none;stroke:#FFFFFF;stroke-width:0.2201;stroke-miterlimit:10;}
	.st3{fill:none;stroke:#FFFFFF;stroke-width:0.2231;stroke-miterlimit:10;}
	.st4{fill:#CBB8B9;stroke:#FFFFFF;stroke-width:0.5;stroke-miterlimit:10;}
	.st5{fill:#EF7C4F;}
	.st6{fill:#DD335A;}
	.st7{fill:#DE3858;}
	.st8{fill:#E03D57;}
	.st9{fill:#E14155;}
	.st10{fill:#E24654;}
	.st11{fill:#E34B52;}
	.st12{fill:#E55050;}
	.st13{fill:#E6554F;}
	.st14{fill:#E75A4D;}
	.st15{fill:#E95F4B;}
	.st16{fill:#EA644A;}
	.st17{fill:#EB6948;}
	.st18{fill:#ED6E47;}
	.st19{fill:#EE7345;}
	.st20{fill:#D8422E;}
	.st21{fill:#CBB8B9;stroke:#FFFFFF;stroke-width:0.5;stroke-linejoin:bevel;stroke-miterlimit:10;}
	.st22{fill:#E4DAD8;stroke:#FFFFFF;stroke-width:0.5;stroke-miterlimit:10;}
	.st23{fill:none;stroke:#FFFFFF;stroke-width:0.9364;stroke-miterlimit:10;}
	.st24{fill:#361D32;stroke:#FFFFFF;stroke-width:0.499;stroke-miterlimit:10;}
	.st25{fill:#E4DAD8;stroke:#FFFFFF;stroke-width:0.499;stroke-miterlimit:10;}
	.st26{fill:#EE784C;}
	.st27{fill:#EC744A;}
	.st28{fill:#EA7048;}
	.st29{fill:#E96C45;}
	.st30{fill:#E76843;}
	.st31{fill:#E56341;}
	.st32{fill:#E45F3E;}
	.st33{fill:#E25B3C;}
	.st34{fill:#E0573A;}
	.st35{fill:#DF5337;}
	.st36{fill:#DD4F35;}
	.st37{fill:#DB4B33;}
	.st38{fill:#DA4730;}
	.st39{fill:#361D32;stroke:#FFFFFF;stroke-width:0.5;stroke-miterlimit:10;}
	.st40{fill:#B79797;stroke:#FFFFFF;stroke-width:0.5;stroke-miterlimit:10;}
	.st41{fill:none;stroke:#FFFFFF;stroke-width:0.5;stroke-miterlimit:10;}
	.st42{fill:#361D32;stroke:#FFFFFF;stroke-width:0.2622;stroke-miterlimit:10;}
	.st43{fill:#361D32;stroke:#FFFFFF;stroke-width:0.2495;stroke-miterlimit:10;}
	.st44{fill:#E4DAD8;stroke:#FFFFFF;stroke-width:0.2495;stroke-linejoin:bevel;stroke-miterlimit:10;}
	.st45{fill:none;stroke:#FFFFFF;stroke-width:0.2348;stroke-miterlimit:10;}
	.st46{fill:none;stroke:#FFFFFF;stroke-width:0.2575;stroke-miterlimit:10;}
	.st47{fill:none;stroke:#FFFFFF;stroke-width:0.2429;stroke-miterlimit:10;}
	.st48{fill:#DE3859;}
	.st49{fill:#DF3D58;}
	.st50{fill:#E14258;}
	.st51{fill:#E24857;}
	.st52{fill:#E34D56;}
	.st53{fill:#E55255;}
	.st54{fill:#E65754;}
	.st55{fill:#E75D54;}
	.st56{fill:#E96253;}
	.st57{fill:#EA6752;}
	.st58{fill:#EB6C51;}
	.st59{fill:#ED7250;}
	.st60{fill:#EE774F;}
</style>
<g>
	<polygon class="st0" points="53.2,152.2 61.7,156.5 61.7,157.7 53.2,153.5 	"/>
	<polygon class="st0" points="53.2,152.2 55.4,151.1 61.7,154.1 61.7,156.5 	"/>
	<path class="st1" d="M63.6,125.3c0,0-1.7,1.7-2.8,1.9c-1.6,0.3-3.4,0.2-4.1,1.3"/>
	<path class="st2" d="M59.7,130.1c0,0-1.7,1.7-2.8,1.9c-1.6,0.3-3.4,0.2-4.1,1.3"/>
	<path class="st3" d="M51.1,142.6c0,0-1.4,2.3-2.5,2.8c-1.5,0.7-3.3,1.1-3.7,2.3"/>
	<path class="st4" d="M120.6,246.2l32.8,0.2c0,0-2.5,22-4,33.5c-0.3,6.1-1.2,12.5-3.8,18.2c-4.7,10.2-12.1,18.3-12.1,18.3l0.7,50.2
		c0,0-1.6,6.4-13.3,6.7h-0.4c-11.6-0.2-13.3-6.7-13.3-6.7l0.7-50.2c0,0-7.4-8-12.1-18.3c-2.6-5.7-3.5-12.2-3.8-18.2
		c-1.5-11.6-4-33.5-4-33.5l32.8-0.2L120.6,246.2L120.6,246.2z"/>
	<path class="st4" d="M108.2,316.2c0,0,4.2,5.3,13,5.3s12.5-5.2,12.5-5.2"/>
	<g>
		<g>
			<g>
				<path class="st5" d="M152.4,248.9c1,1.4-3.5,3.4-4.2,3.8c-4,1.9-8.3,3.3-12.6,4.3c-11,2.7-22.2,3-33.1,0.1
					c-2.5-0.7-4.9-1.4-7.2-2.4c-0.9-0.4-1.9-0.8-2.8-1.3c-0.3-0.2-0.7-0.4-1-0.6s-1.6-1.1-1.2-1.2c0.9-0.3,0.7-1.3-0.3-1
					c-0.6,0.2-1.5,0.5-1.4,1.3c0.1,0.9,1.6,1.6,2.2,2c1.8,1.1,3.8,1.9,5.8,2.6c6.1,2.2,12.5,3.4,19,3.7c6,0.3,12-0.4,17.9-1.7
					c5.1-1.1,10.2-2.6,15-4.8c1.3-0.6,7.2-3.2,5.4-5.5C153.4,247.7,151.9,248.3,152.4,248.9L152.4,248.9z"/>
			</g>
		</g>
		<g>
			<g>
				<path class="st5" d="M152.2,252.3c0.8,1.3-3.8,3.3-4.5,3.7c-4,1.9-8.2,3.2-12.5,4.2c-4.9,1.2-9.9,2-14.9,2.1
					c-5.8,0.2-11.8-0.6-17.4-2.1c-2.5-0.7-4.9-1.5-7.3-2.5c-0.9-0.4-1.9-0.8-2.8-1.3c-0.4-0.2-2.5-1.7-2.3-1.8
					c0.9-0.3,0.7-1.4-0.3-1c-0.6,0.2-1.4,0.6-1.3,1.3c0.1,0.9,1.6,1.6,2.2,2c1.8,1,3.7,1.9,5.6,2.6c6.1,2.3,12.5,3.5,19,3.8
					c5.8,0.3,11.6-0.4,17.3-1.6c5.1-1.1,10.2-2.6,15-4.7c1.4-0.6,7.1-3,5.6-5.4C153.2,251.1,151.8,251.7,152.2,252.3L152.2,252.3z"
					/>
			</g>
		</g>
		<g>
			<g>
				<path class="st5" d="M151.9,255.6c0.9,1.7-3.6,3.5-4.6,4c-4,1.8-8.2,3.1-12.5,4.1c-5,1.2-10.2,2-15.3,2
					c-5.8,0-11.6-0.9-17.2-2.5c-2.4-0.7-4.8-1.5-7.1-2.6c-0.8-0.4-1.7-0.8-2.5-1.3c-0.2-0.1-2.6-1.7-1.9-2c1-0.4,0.1-0.6-0.5-0.3
					c-0.5,0.2-1.2,0.5-1.1,1.1c0.2,0.8,1.6,1.4,2.3,1.8c1.8,1,3.7,1.8,5.6,2.6c5.9,2.2,12.2,3.4,18.5,3.7c5.7,0.3,11.4-0.4,17-1.6
					c5-1,9.9-2.4,14.6-4.4c1.7-0.7,3.5-1.6,5-2.7c0.6-0.5,1.7-1.4,1.2-2.3C153.3,254.9,151.8,255.4,151.9,255.6L151.9,255.6z"/>
			</g>
		</g>
		<g>
			<g>
				<path class="st5" d="M151.7,259.1c0.5,1.5-4,3.2-4.9,3.6c-4,1.7-8.2,3-12.5,3.9c-4.6,1.1-9.4,1.8-14.1,1.9
					c-5.7,0.1-11.6-0.7-17.1-2.3c-2.4-0.7-4.8-1.5-7.1-2.5c-0.8-0.4-1.7-0.8-2.5-1.2c-0.3-0.2-0.7-0.4-1-0.6
					c-0.2-0.1-1.6-1.1-1.3-1.2c1-0.4,0.1-1.2-0.7-0.9c-2.4,1,0.3,2.7,1.5,3.4c1.8,1,3.7,1.9,5.6,2.6c5.7,2.2,11.9,3.4,18,3.7
					c5.6,0.3,11.1-0.3,16.6-1.4c5-1,10.1-2.4,14.8-4.4c1.7-0.7,3.4-1.5,4.8-2.6c0.7-0.5,1.8-1.5,1.4-2.5
					C153,258,151.4,258.4,151.7,259.1L151.7,259.1z"/>
			</g>
		</g>
		<g>
			<g>
				<path class="st5" d="M151.5,262.5c0.2,0.8-0.7,1.4-1.2,1.8c-1.2,0.8-2.5,1.4-3.8,2c-4,1.7-8.3,2.9-12.6,3.8
					c-4.6,1-9.3,1.7-14.1,1.7c-5.7,0-11.4-0.9-16.8-2.5c-2.4-0.7-4.8-1.6-7.1-2.6c-0.8-0.4-1.5-0.8-2.3-1.2
					c-0.4-0.2-2.8-1.8-2.1-2.2c0.9-0.4-0.5-0.4-0.9-0.2c-2.1,1,0.9,2.6,1.9,3.1c1.8,1,3.7,1.8,5.6,2.5c5.7,2.1,11.8,3.3,17.8,3.6
					c5.4,0.3,10.9-0.3,16.2-1.4c4.8-1,9.6-2.2,14.1-4.1c1.7-0.7,3.5-1.5,5-2.5c0.7-0.5,1.9-1.3,1.7-2.3
					C152.9,261.7,151.4,262.1,151.5,262.5L151.5,262.5z"/>
			</g>
		</g>
		<g>
			<g>
				<path class="st5" d="M151.2,265.9c0.1,0.7-1,1.3-1.4,1.6c-1.2,0.8-2.6,1.4-4,2c-4,1.6-8.1,2.7-12.3,3.6c-4.5,1-9.2,1.7-13.8,1.7
					c-5.6,0-11.2-0.9-16.6-2.5c-2.3-0.7-4.5-1.5-6.7-2.5c-0.8-0.4-1.6-0.8-2.3-1.2c-0.4-0.2-2.5-1.8-2.4-1.9
					c0.9-0.5,0.1-1.1-0.6-0.7c-2.1,1.1,0.5,2.6,1.6,3.3c1.7,1,3.6,1.9,5.5,2.6c5.5,2.1,11.4,3.3,17.3,3.8c5.4,0.4,10.7-0.2,16-1.2
					c4.9-0.9,9.8-2.2,14.5-4c1.8-0.7,3.6-1.4,5.1-2.5c0.7-0.5,1.8-1.3,1.7-2.3C152.7,264.9,151.2,265.3,151.2,265.9L151.2,265.9z"/>
			</g>
		</g>
		<g>
			<g>
				<path class="st5" d="M151,269.3c0,0.8-1,1.4-1.6,1.7c-1.3,0.8-2.7,1.4-4.2,2c-4.1,1.6-8.3,2.7-12.6,3.5
					c-4.3,0.9-8.8,1.5-13.2,1.4c-5.6-0.1-11.2-1-16.6-2.7c-2.2-0.7-4.4-1.5-6.5-2.6c-0.6-0.3-5.1-2.8-4.2-3.3
					c0.6-0.4-0.9-0.2-1.2-0.1c-1.6,1,1.4,2.6,2.2,3c1.7,1,3.6,1.8,5.5,2.5c5.5,2.1,11.4,3.3,17.3,3.7c5.1,0.3,10.2-0.2,15.3-1.2
					c4.8-0.9,9.5-2.1,14-3.8c1.8-0.7,3.6-1.4,5.2-2.4c0.8-0.5,1.9-1.2,2-2.2C152.6,268.7,151,268.9,151,269.3L151,269.3z"/>
			</g>
		</g>
		<g>
			<g>
				<path class="st5" d="M150.8,272.6c-0.1,0.7-1.2,1.2-1.8,1.5c-1.3,0.7-2.6,1.3-4,1.8c-3.9,1.5-8,2.5-12.1,3.4
					c-4.2,0.9-8.6,1.5-12.9,1.5c-5.5,0-11-0.9-16.2-2.5c-2.3-0.7-4.5-1.5-6.6-2.5c-0.8-0.4-1.6-0.8-2.3-1.2
					c-0.3-0.2-2.6-1.8-2.4-1.9c0.8-0.6-0.4-1.2-1-0.7c-2.6,1.8,6.2,5.5,7.4,5.9c5.4,2.2,11.2,3.4,17,3.9c5.1,0.4,10.1-0.1,15.1-1
					c4.7-0.8,9.4-2,13.9-3.6c1.8-0.7,3.6-1.4,5.3-2.3c0.9-0.5,2.1-1.3,2.3-2.4C152.5,271.7,150.9,271.9,150.8,272.6L150.8,272.6z"/>
			</g>
		</g>
		<g>
			<g>
				<path class="st5" d="M150.6,276.1c-0.3,0.8-1.3,1.3-2,1.6c-1.3,0.7-2.7,1.3-4.2,1.8c-4,1.4-8.2,2.5-12.3,3.2
					c-4.1,0.8-8.3,1.4-12.4,1.3c-5.5-0.1-10.9-1-16.1-2.7c-2.2-0.7-4.3-1.5-6.4-2.5c-0.6-0.3-5.1-2.8-4.4-3.3
					c0.7-0.6-0.8-0.5-1.2-0.2c-2,1.7,6.7,5.3,7.8,5.7c5.3,2.1,10.9,3.3,16.6,3.7c9.5,0.7,19.4-1.3,28.2-4.4c1.9-0.6,3.7-1.3,5.5-2.3
					c0.9-0.5,2.1-1.2,2.4-2.2C152.3,275.4,150.7,275.6,150.6,276.1L150.6,276.1z"/>
			</g>
		</g>
		<g>
			<g>
				<path class="st5" d="M150.4,279.4c-0.4,0.8-1.4,1.2-2.1,1.6c-1.4,0.7-2.8,1.2-4.2,1.7c-3.9,1.3-8,2.3-12,3.1
					c-4,0.7-8.1,1.3-12.2,1.3c-5.3-0.1-10.7-1-15.8-2.6c-2.2-0.7-4.4-1.6-6.5-2.6c-0.5-0.2-5-2.7-4.5-3.2c0.7-0.7-0.8-0.8-1.3-0.4
					c-1.8,1.8,6.4,5.3,7.6,5.8c5.2,2.1,10.7,3.4,16.3,3.9c9.3,0.8,19.1-1.1,27.9-4c1.9-0.6,3.7-1.3,5.5-2.2c1-0.5,2.2-1.2,2.7-2.2
					C152.2,278.7,150.7,278.8,150.4,279.4L150.4,279.4z"/>
			</g>
		</g>
		<g>
			<g>
				<path class="st5" d="M150.2,282.8c-0.4,0.7-1.5,1.2-2.2,1.6c-1.4,0.7-3,1.2-4.5,1.7c-3.9,1.3-7.9,2.2-11.9,2.9
					c-3.9,0.7-7.9,1.2-11.9,1.1c-5.3-0.2-10.6-1.1-15.6-2.8c-2.2-0.7-4.3-1.6-6.3-2.6c-0.6-0.3-4.7-2.6-4.3-3.1
					c0.6-0.8-0.9-0.9-1.3-0.4c-1.6,2,6.3,5.3,7.6,5.8c5,2.1,10.4,3.3,15.7,3.8c9.3,0.9,18.9-0.9,27.6-3.7c1.9-0.6,3.8-1.2,5.5-2.1
					c1.1-0.5,2.3-1.2,2.9-2.2C152,282.2,150.5,282.2,150.2,282.8L150.2,282.8z"/>
			</g>
		</g>
		<g>
			<g>
				<path class="st5" d="M150,286.3c-0.6,0.7-1.6,1.2-2.4,1.6c-1.5,0.7-3,1.2-4.5,1.7c-3.9,1.2-7.9,2.1-12,2.8
					c-3.7,0.6-7.4,1.1-11.2,1c-5.3-0.1-10.6-1.1-15.7-2.8c-2-0.7-4.1-1.5-6-2.5c-0.7-0.4-5.1-2.6-4.6-3.5c0.3-0.6-1.2-0.5-1.4,0
					c-0.7,1.3,2.2,2.7,3,3.2c1.7,1,3.4,1.8,5.3,2.6c4.9,2,10.2,3.2,15.5,3.7c8.9,0.8,18.2-1,26.7-3.5c1.9-0.6,3.8-1.2,5.6-2.1
					c1.1-0.5,2.3-1.1,3-2.1C151.8,285.7,150.3,285.8,150,286.3L150,286.3z"/>
			</g>
		</g>
		<g>
			<g>
				<path class="st5" d="M149.8,289.5c-0.7,0.8-1.6,1.2-2.5,1.6c-1.5,0.7-3,1.2-4.6,1.6c-3.9,1.2-8,2-12,2.7c-3.6,0.6-7.3,1-11,0.9
					c-5.2-0.2-10.4-1.2-15.3-2.9c-2.1-0.7-4.1-1.6-6-2.6c-0.7-0.4-1.5-0.8-2.2-1.3c-0.4-0.3-2.5-1.4-2.2-2.2
					c0.2-0.5-1.4-0.4-1.5,0.2c-0.4,1.2,2.4,2.7,3.3,3.2c1.6,1,3.4,1.8,5.1,2.5c4.9,2,10.1,3.2,15.3,3.7c8.6,0.8,17.6-0.9,25.8-3.2
					c1.9-0.5,3.8-1.1,5.6-1.9c1.2-0.5,2.5-1.1,3.4-2.1C151.7,289.1,150.2,289.1,149.8,289.5L149.8,289.5z"/>
			</g>
		</g>
		<g>
			<g>
				<path class="st5" d="M149.6,292.8c-0.8,0.8-2.1,1.3-3.2,1.7c-1.8,0.7-3.6,1.2-5.5,1.7c-4.3,1.1-8.6,1.9-13,2.5
					c-9.4,1.2-19.1-0.1-27.6-4.2c-1.6-0.7-3.1-1.6-4.5-2.6c-0.4-0.3-1.7-1.2-1.6-1.6c0.2-0.7-1.4-0.5-1.5,0.1
					c-0.2,0.6,0.7,1.3,1.1,1.6c1.1,1,2.4,1.7,3.7,2.4c4.2,2.3,8.9,3.8,13.6,4.7c9.8,1.9,19.7,0.6,29.2-1.9c2.2-0.6,4.4-1.2,6.5-2
					c1.4-0.5,2.9-1.2,4-2.2C151.5,292.6,150.1,292.4,149.6,292.8L149.6,292.8z"/>
			</g>
		</g>
	</g>
	<g>
		<g>
			<g>
				<path class="st6" d="M153.3,251.4c1,1.3-3.5,3.7-4.3,4.1c-4,2.2-8.5,3.8-12.9,5.1c-5.1,1.4-10.4,2.3-15.6,2.2
					c-6.1-0.1-12.2-1.5-17.9-3.6c-2.6-0.9-5.1-2-7.6-3.3c-0.9-0.4-1.8-0.9-2.6-1.4c-0.4-0.2-0.8-0.5-1.2-0.7
					c-0.2-0.1-0.4-0.3-0.6-0.4c-0.1-0.1-0.3-0.2-0.4-0.4c-0.2,0.3-0.2,0.4,0.1,0.2c1-0.3,0.8-1.7-0.3-1.4c-0.7,0.2-1.6,0.7-1.5,1.6
					c0.1,1,1.5,1.7,2.2,2.1c1.9,1.1,3.9,2.1,5.9,3c5.9,2.7,12.3,4.7,18.8,5.5c6.3,0.8,12.7,0,18.8-1.4c5.2-1.3,10.4-3.1,15.2-5.6
					c1.5-0.8,7.4-3.9,5.4-6.4C154.2,249.8,152.8,250.7,153.3,251.4L153.3,251.4z"/>
			</g>
		</g>
		<g>
			<g>
				<path class="st7" d="M153.1,254.1c0.4,0.6-0.5,1.6-0.9,2c-1,1-2.4,1.8-3.6,2.6c-4,2.3-8.5,3.9-12.9,5.1
					c-5.1,1.4-10.4,2.3-15.6,2.3c-6.1,0-12.2-1.5-18-3.6c-2.5-0.9-4.9-2-7.3-3.2c-0.9-0.4-1.7-0.9-2.6-1.4c-0.7-0.4-2.6-1.3-1.1-1.8
					c0.4-0.1-0.9-1.1-1.4-0.9c-2.2,0.8,1,2.7,1.8,3.2c1.8,1.1,3.7,2.1,5.7,2.9c5.7,2.6,11.8,4.5,18.1,5.4c6.2,0.9,12.5,0.3,18.7-1.1
					c5.2-1.2,10.4-2.9,15.1-5.4c1.5-0.8,7.1-3.4,5.4-5.8C154.2,253.9,152.6,253.4,153.1,254.1L153.1,254.1z"/>
			</g>
		</g>
		<g>
			<g>
				<path class="st8" d="M152.7,257.7c1,1.7-3.2,3.9-4.2,4.4c-4,2.3-8.5,3.8-12.9,5c-5.3,1.4-10.8,2.2-16.3,1.9
					c-5.8-0.3-11.6-1.8-17.1-3.8c-2.3-0.9-4.5-1.9-6.7-3c-0.8-0.4-1.6-0.8-2.4-1.3c-0.4-0.2-0.8-0.5-1.2-0.8
					c-0.1-0.1-1.4-1.2-1.2-1.3c0.9-0.4,0.7-0.8-0.2-0.5c-0.5,0.2-1.5,0.5-1.3,1.2c0.2,0.9,1.6,1.5,2.3,1.9c1.8,1.1,3.7,2,5.6,2.9
					c5.7,2.6,11.8,4.4,18,5.2c6.1,0.7,12.4,0.1,18.4-1.4c5.1-1.2,10.2-2.9,14.9-5.3c1.7-0.9,3.4-1.9,4.8-3.2
					c0.6-0.6,1.7-1.7,1.1-2.6C154.1,256.7,152.5,257.4,152.7,257.7L152.7,257.7z"/>
			</g>
		</g>
		<g>
			<g>
				<path class="st9" d="M152.6,260.9c-0.1-0.1-0.1,0.2-0.2,0.4c-0.3,0.4-0.7,0.8-1,1.1c-1.1,1-2.5,1.8-3.8,2.5
					c-4.1,2.1-8.5,3.7-12.9,4.8c-5.1,1.3-10.5,2.1-15.8,1.9c-5.6-0.2-11.2-1.6-16.5-3.6c-2.3-0.9-4.6-1.8-6.8-3
					c-0.8-0.4-1.6-0.9-2.4-1.3c-0.3-0.2-0.6-0.4-0.9-0.6c-0.2-0.2-0.5-0.3-0.7-0.5c-0.2-0.1-0.4-0.3-0.5-0.5c0,0.3,0.1,0.4,0.3,0.2
					c0.8-0.3,0-1.8-0.8-1.5c-2.3,1,0.6,3.1,1.5,3.8c1.7,1.1,3.4,2,5.2,2.8c5.5,2.6,11.4,4.4,17.4,5.3c6.2,0.9,12.5,0.4,18.7-1
					c5.2-1.1,10.3-2.8,15-5.3c1.8-0.9,6.9-3.4,5.5-6.2C153.3,259.3,152.2,259.9,152.6,260.9L152.6,260.9z"/>
			</g>
		</g>
		<g>
			<g>
				<path class="st10" d="M152.1,263.5c0.7,1.8-3.5,3.9-4.6,4.5c-3.9,2.2-8.2,3.7-12.5,4.8c-5.2,1.4-10.6,2.2-16.1,2.1
					c-5.7-0.1-11.4-1.4-16.7-3.4c-2.3-0.9-4.6-1.9-6.8-3c-0.8-0.4-1.6-0.9-2.3-1.3c-0.6-0.4-2.6-1.4-1.4-2c0.2-0.1-1-1-1.4-0.8
					c-1.7,0.8,1.4,2.6,2.1,3c1.6,1,3.4,1.9,5.1,2.7c5.1,2.4,10.5,4.2,16.1,5.1c11.2,1.9,23.4-0.4,33.4-5.3c1.8-0.9,3.6-1.8,5.1-3.1
					c0.7-0.6,1.7-1.5,1.4-2.5C153.5,263.7,152.1,263.3,152.1,263.5L152.1,263.5z"/>
			</g>
		</g>
		<g>
			<g>
				<path class="st11" d="M151.8,267.1c0.1,0.5-0.7,1.3-1.2,1.6c-1.1,1-2.5,1.7-3.8,2.4c-4,2.1-8.4,3.5-12.8,4.6
					c-5.2,1.2-10.5,1.9-15.9,1.6s-10.6-1.6-15.7-3.5c-2.1-0.8-4.2-1.7-6.3-2.8c-0.8-0.4-1.5-0.8-2.3-1.3c-0.3-0.2-0.6-0.4-0.8-0.5
					c-0.2-0.2-0.5-0.3-0.7-0.5c-0.3-0.3-0.4-0.5-0.7-0.4c1-0.5,0.1-1.8-0.8-1.4c-3.4,1.8,4.8,5.6,6.1,6.2c5,2.4,10.3,4.2,15.8,5.1
					c11.3,2,23.8-0.3,34-5.4c1.8-0.9,3.6-1.9,5.1-3.2c0.8-0.7,1.7-1.7,1.4-2.8C153.2,265.9,151.5,266.1,151.8,267.1L151.8,267.1z"/>
			</g>
		</g>
		<g>
			<g>
				<path class="st12" d="M151.5,270.1c0.1,0.8-0.7,1.5-1.2,2c-1.1,1-2.4,1.7-3.7,2.4c-4,2.1-8.4,3.6-12.9,4.6
					c-5.4,1.3-10.9,1.9-16.4,1.5c-5.2-0.4-10.4-1.7-15.3-3.7c-2-0.8-4-1.7-5.9-2.8c-0.6-0.3-4.8-2.7-3.9-3.3c0.5-0.3-1-0.7-1.4-0.4
					c-1.5,0.9,1.4,2.6,2.1,3c1.6,1,3.2,1.9,4.9,2.6c4.8,2.3,10,3.9,15.3,4.8c11.1,1.8,23.2-0.3,33.2-5.1c1.8-0.8,3.6-1.8,5.1-3
					c0.7-0.6,1.8-1.5,1.7-2.5C153.1,269.7,151.4,269.7,151.5,270.1L151.5,270.1z"/>
			</g>
		</g>
		<g>
			<g>
				<path class="st13" d="M151.3,273.7c0,0.8-0.9,1.5-1.4,1.9c-1.2,0.9-2.5,1.7-3.8,2.3c-4.1,2.1-8.6,3.4-13.1,4.4
					c-5.4,1.1-11,1.6-16.5,1c-5-0.5-9.9-1.9-14.5-3.8c-1.9-0.8-3.8-1.7-5.6-2.7c-0.5-0.3-4.5-2.9-4-3.2c0.9-0.6-0.6-0.4-1-0.1
					c-1.6,1.1,0.9,2.5,1.8,3c1.6,1,3.3,1.9,5.1,2.7c4.9,2.2,10.1,3.8,15.4,4.6c10.9,1.5,22.7-0.7,32.5-5.5c1.7-0.8,3.5-1.8,5-3
					c0.7-0.6,1.7-1.4,1.6-2.4C152.8,272.8,151.2,273.2,151.3,273.7L151.3,273.7z"/>
			</g>
		</g>
		<g>
			<g>
				<path class="st14" d="M150.9,276.6c0,0.6-0.9,1.3-1.4,1.6c-1.2,0.9-2.5,1.7-3.8,2.3c-3.9,1.9-8,3.3-12.2,4.2
					c-10.3,2.3-20.8,1.8-30.6-2c-2-0.8-3.9-1.6-5.8-2.7c-0.8-0.4-1.5-0.8-2.2-1.3c-0.4-0.2-2.2-1.7-2.2-1.6c0.9-0.7-0.4-1.4-1.1-0.9
					c-2.3,1.9,5.3,5.4,6.5,6c4.7,2.3,9.7,3.9,14.9,4.7c10.9,1.8,22.9-0.2,32.8-5c1.7-0.8,3.5-1.7,5-2.9c0.8-0.6,1.8-1.5,1.9-2.6
					C152.7,275.6,151,275.8,150.9,276.6L150.9,276.6z"/>
			</g>
		</g>
		<g>
			<g>
				<path class="st15" d="M150.6,279.8c-0.1,0.7-0.9,1.3-1.5,1.8c-1.1,0.9-2.4,1.6-3.6,2.2c-3.8,1.9-7.9,3.2-12,4.2
					c-10.3,2.4-20.8,1.9-30.6-2c-2-0.8-3.9-1.7-5.8-2.7c-0.5-0.3-4.6-2.7-4.1-3.3c0.6-0.5-1.1-0.9-1.5-0.5c-1.6,1.6,6.1,5.3,7.2,5.8
					c4.6,2.2,9.6,3.7,14.6,4.5c10.7,1.7,22.3-0.3,32-4.8c1.7-0.8,3.4-1.7,4.9-2.8c0.8-0.6,1.8-1.4,2-2.4
					C152.4,279.2,150.7,279.1,150.6,279.8L150.6,279.8z"/>
			</g>
		</g>
		<g>
			<g>
				<path class="st16" d="M150.6,282.4c-0.2,0.7-1,1.3-1.5,1.8c-1.1,0.9-2.3,1.6-3.6,2.2c-3.6,1.9-7.5,3.1-11.5,4.1
					c-10.2,2.5-20.9,2.3-30.7-1.4c-2-0.7-4-1.6-5.9-2.6c-0.5-0.3-4.7-2.6-4.3-3c0.3-0.3-0.9-1.5-1.1-1.3c-0.8,1.1,1.9,3,2.6,3.5
					c1.3,0.9,2.7,1.7,4.1,2.4c4.3,2.2,9,3.8,13.8,4.7c10.6,2,22.3,0.3,32.1-4.1c1.8-0.8,3.5-1.7,5.1-2.8c0.8-0.6,1.8-1.3,2-2.3
					C151.9,283.2,150.7,282.1,150.6,282.4L150.6,282.4z"/>
			</g>
		</g>
		<g>
			<g>
				<path class="st17" d="M150.1,286.1c-0.3,0.7-1,1.2-1.6,1.6c-1.1,0.8-2.3,1.5-3.6,2.1c-3.7,1.8-7.7,3.1-11.8,3.9
					c-10,2.1-20.3,1.8-29.8-2c-1.9-0.8-3.8-1.7-5.6-2.7c-0.7-0.4-1.4-0.8-2.1-1.3c-0.4-0.3-0.8-0.6-1.2-0.9
					c-0.2-0.2-0.4-0.3-0.6-0.5c-0.1-0.2-0.3-0.6-0.4-0.4c0.5-0.9-1-1-1.4-0.4c-0.8,1.4,1.7,2.8,2.6,3.4c1.5,1,3,1.8,4.6,2.6
					c4.5,2.1,9.3,3.6,14.3,4.3c10.4,1.5,21.8-0.3,31.2-4.7c1.6-0.8,3.2-1.6,4.7-2.7c0.8-0.6,1.8-1.3,2.2-2.3
					C152.1,285.3,150.4,285.5,150.1,286.1L150.1,286.1z"/>
			</g>
		</g>
		<g>
			<g>
				<path class="st18" d="M150,288.7c-1,1.8-3.4,2.9-5.1,3.7c-3.6,1.8-7.4,3-11.3,3.9c-9.9,2.2-20.2,2.1-29.7-1.4
					c-2-0.8-4-1.6-5.9-2.7c-0.7-0.4-1.5-0.8-2.2-1.3c-0.3-0.2-0.6-0.4-0.8-0.6c-0.2-0.1-0.4-0.3-0.6-0.5c-0.2-0.1-0.4-0.3-0.5-0.5
					c-0.2-0.3-0.3-0.3-0.2-0.1c0.2-0.5-1-1.7-1.2-1.2c-0.5,1.4,1.9,2.9,2.8,3.5c1.3,1,2.8,1.8,4.2,2.5c4.3,2.2,9,3.7,13.8,4.5
					c10.1,1.7,21.3,0.1,30.6-4c1.7-0.7,3.4-1.6,5-2.6c0.9-0.6,1.8-1.3,2.3-2.2C151.5,289.4,150.3,288.1,150,288.7L150,288.7z"/>
			</g>
		</g>
		<g>
			<g>
				<path class="st19" d="M149.9,291.8c-1.3,2-4.1,3.2-6.2,4.2c-4,1.8-8.3,3.1-12.7,3.8c-10.4,1.8-21.1,1.1-30.6-3.5
					c-1.6-0.8-3.2-1.7-4.7-2.7c-0.5-0.4-1.1-0.8-1.5-1.2c-0.1-0.1-0.3-0.4-0.4-0.4s0.2,0.2,0.1,0.5c0.1-0.5-0.9-1.7-0.9-1.4
					c-0.5,1.8,2.7,3.6,3.8,4.4c3.6,2.4,7.8,4.1,11.9,5.2c11,3,23.3,1.8,33.7-2.3c2-0.8,3.9-1.7,5.7-2.8c1-0.6,2.1-1.4,2.8-2.4
					C151,292.8,150.1,291.4,149.9,291.8L149.9,291.8z"/>
			</g>
		</g>
	</g>
	<g>
		<g>
			<path class="st20" d="M93.3,264.8c6.8,5.8,14.3,10.9,22.2,15.1c3.9,2.1,7.9,3.9,12,5.6c4.3,1.7,8.8,3.6,13.5,3.7c1,0,1-1.6,0-1.6
				c-4.6-0.1-9.1-2.1-13.3-3.7c-4-1.6-8-3.5-11.8-5.5c-7.7-4.1-14.9-9-21.5-14.6C93.7,263,92.5,264.1,93.3,264.8L93.3,264.8z"/>
		</g>
	</g>
	<polygon class="st21" points="2.3,221.5 1.9,232 143.4,300.4 143.4,290.3 	"/>
	<polygon class="st21" points="143.4,300.2 208.4,267.8 208.4,257.2 143.4,290.1 	"/>
	<g>
		<g>
			<path class="st20" d="M110.2,96c1.3-1.9,3.8-2.9,5.8-3.8c2.7-1.2,5.5-2.2,8.3-3.2c2.1-0.7,4.1-1.4,6.1-2.3
				c3.6-1.6,7.5-2,11.1-3.6c0.6-0.3-0.3-0.3-0.6-0.2c-3.6,1.6-7.7,2.1-11.3,3.7c-2.3,1-4.7,1.8-7.1,2.6c-2.7,1-5.5,2-8.1,3.3
				c-1.8,0.9-3.9,1.9-5.1,3.6C109.1,96.3,110,96.3,110.2,96L110.2,96z"/>
		</g>
	</g>
	<g>
		<g>
			<path class="st6" d="M112.8,93.7c0.6-2.6,3.2-3.9,4.9-5.7c0.9-0.9,1.6-2,2.6-2.7c1.2-0.8,2.6-1.4,3.9-2.1
				c0.3-0.1,0.4-0.4,0.1-0.6s-0.8,0-1.1,0.2c-1.4,0.7-2.8,1.3-4.1,2.2c-1.1,0.8-1.9,1.9-2.8,2.9c-1.8,1.9-4.5,3.3-5.1,6.1
				C111.2,94.5,112.7,94.2,112.8,93.7L112.8,93.7z"/>
		</g>
	</g>
	<g>
		<g>
			<path class="st6" d="M113.8,94.2c3.2-1.4,6.1-3.3,8.8-5.6c2.7-2.3,5.6-4.8,9.3-5c0.9,0,1.2-1.2,0.1-1.2c-3.7,0.2-6.7,2.3-9.4,4.6
				c-3,2.5-5.9,4.7-9.5,6.2C112.1,93.6,113,94.5,113.8,94.2L113.8,94.2z"/>
		</g>
	</g>
	<g>
		<g>
			<path class="st6" d="M114.7,93.8c2.5-0.2,4.4-1.3,6.5-2.6c5.9-3.5,12.2-6.3,18.5-9c4.1-1.7,8-3.5,11.5-6.1
				c3.1-2.3,5.6-9.5,9-15.4c1.4-2.5,2.7-5,4.3-7.3c0.5-0.8,1-1.5,1.7-2.2c0.2-0.2,0.5-0.4,0.7-0.5s0.4-0.1,0.4-0.1
				c0.8,0,1.6-1.1,0.5-1.1c-1.4-0.1-2.5,0.9-3.4,1.9c-1.4,1.6-2.4,3.5-3.4,5.3c-3.3,5.6-6.4,11.3-10.3,16.5
				c-4.8,6.3,0.5,2.6-6.6,6.1c-4.5,2.2-9.2,3.9-13.7,6c-2.7,1.3-5.5,2.6-8.1,4.1c-1.4,0.8-2.8,1.7-4.2,2.5c-1.1,0.5-1.9,0.8-3.2,0.9
				C113.9,92.7,113.6,93.9,114.7,93.8L114.7,93.8z"/>
		</g>
	</g>
	<g>
		<g>
			<path class="st6" d="M111.5,93.9c-0.8-1.2-0.5-2.9,0.1-4.1c0.7-1.4,1.9-2.3,3.3-2.9c3-1.5,6.2-2.8,9.3-4.2
				c0.3-0.1,0.6-0.5,0.4-0.8s-0.8-0.2-1.1-0.1c-1.8,0.8-3.6,1.6-5.4,2.5c-1.7,0.8-3.5,1.4-5.1,2.4c-2.4,1.5-4.9,5.1-3,7.9
				C110.4,95.1,111.9,94.5,111.5,93.9L111.5,93.9z"/>
		</g>
	</g>
	<g>
		<g>
			<path class="st20" d="M113.4,92.3c5.9-2.9,11.9-5.5,18-7.9c1-0.4,1.6-0.8,2.3-1.6c0.7-0.9,1.5-1.7,2.4-2.4c2.6-1.9,5.8-2.3,8.5-4
				c1.9-1.2-7.6,6.7-5.9,5.2c11.2-10.1,20.9-21.6,32.3-31.4c3-2.6,6.2-5.1,9.6-7.3c2.6-1.7,5.5-3.3,8.5-3.9c0.7-0.1,1.3-0.9,0.3-0.7
				c-6,1.2-11.3,5-15.9,8.7c-6.3,5-12,10.6-17.7,16.2c-5.3,5.3-10.4,10.7-15.8,15.9c-2,1.9-4,3.8-6.1,5.4c-0.7,0.6,9.7-8.3,8.8-7.8
				c-1.4,0.7-3.1,1.1-4.6,1.8c-1.7,0.8-3.4,1.8-4.7,3.1c-0.6,0.6-1.1,1.6-1.9,2.1c-1.1,0.7-2.7,1.1-4,1.6c-1.8,0.7-3.5,1.5-5.3,2.2
				c-3.3,1.4-6.5,2.9-9.7,4.5C111.5,92.5,113,92.5,113.4,92.3L113.4,92.3z"/>
		</g>
	</g>
	<g>
		<g>
			<path class="st6" d="M111.8,94.8c2.9-0.5,5.7-2.2,8.2-3.7c3.5-2.1,6.9-4.3,10.4-6.4s7.1-4.2,10.9-5.6c1.5-0.5,3.1-1,4.6-1.1
				c1-0.1,2,0,3-0.2c2.3-0.6-0.1,2.2,2.2,0c5.5-5.1,10.6-10.5,16-15.6c2.6-2.5,5.3-5,8.2-7.2c1.8-1.4,4.1-3.1,6.5-3.4
				c0.9-0.1,1.2-1.3,0.1-1.2c-2.1,0.2-4.1,1.4-5.8,2.5c-2.5,1.7-4.8,3.7-7.1,5.7c-5.5,5-10.6,10.4-15.9,15.5c-2.5,2.4-5,4.8-7.7,7
				c-2,1.6,7.1-6.2,4.8-5.1c-2.1,0.9-4.4,0.6-6.6,1.1c-3.7,0.9-7.1,2.7-10.4,4.5c-4.1,2.3-8,4.9-12,7.3c-2.9,1.8-6.1,4-9.5,4.6
				C110.5,93.8,110.9,95,111.8,94.8L111.8,94.8z"/>
		</g>
	</g>
	<g>
		<g>
			<path class="st6" d="M116.3,90.5c2-2.2,3.7-4.7,6-6.5c0.7-0.5,1.4-0.9,2.1-1.4c1.1-0.8,2.2-1.7,3.3-2.6c4.5-3.7-2.2,1.9,2.2-1.8
				c12.9-11,25.6-22.3,37.8-34c5.9-5.7,11.8-11.6,17-18c0.4-0.5-1.1-0.3-1.4,0c-4.5,5.6-9.6,10.7-14.7,15.8
				c-6.3,6.2-12.8,12.2-19.4,18.1c-10.8,9.7-10.6,9.8-21.7,18.9c-1.3,1.1-2.7,2.2-4.1,3.3c-0.2,0.1-0.3,0.2-0.5,0.3
				c-0.2,0.1,0.1-0.1,0,0c-0.6,0.4-1.2,0.8-1.7,1.2c-2.4,1.9-4.2,4.5-6.3,6.7C114.5,90.9,116,90.8,116.3,90.5L116.3,90.5z"/>
		</g>
	</g>
	<g>
		<g>
			<path class="st6" d="M111.5,91.8c3.2-1,5.5-3,8-5.2c0.8-0.7,1.7-1.2,2.5-1.8c2.1-1.3,4.1-2.7,6.2-4.1c8.4-5.8,5.5-2.3,13.6-8.4
				c10.2-7.6,20-15.7,29.6-23.9s19.4-16.2,29.3-24.1c4-3.2,8-6.3,12.1-9.3c0.7-0.6,1.5-1.1,2.2-1.6c0,0,0.5-0.4,0.2-0.1
				c-0.4,0.3,0.2-0.2,0.3-0.2c0.2-0.2,0.5-0.4,0.7-0.5c0.4-0.3,0.8-0.6,1.2-0.8c0.1-0.1,0.3-0.2,0.4-0.2c0.5-0.3-0.8,0.3-0.4,0.2
				c0.9-0.3,2.5-1.4,1.6-2.5c-0.8-1.1-3.1-0.4-4.1-0.1c-1.9,0.7-3.8,2.4-5.4,3.6c-3.3,2.4-6.5,4.9-9.7,7.4
				c-9.5,7.4-18.8,15-27.9,22.7c-9.9,8.3-19.6,16.7-29.7,24.5c-8.5,6.5-5.9,3.3-14.5,9.4c-2.8,1.9-5.6,3.9-8.5,5.8
				c-0.6,0.4-1.2,0.8-1.7,1.1c-1.4,0.9-2.7,2-3.9,3.1c-0.6,0.5-1.1,1-1.7,1.4c-0.2,0.2-0.4,0.3-0.6,0.4c0,0-0.8,0.4-0.5,0.3
				c-0.9,0.3-3,1-2.7,2.4C108.3,92.4,110.7,92.1,111.5,91.8L111.5,91.8z"/>
		</g>
	</g>
	<g>
		<path class="st20" d="M112.4,94.2c4.6-4.6,9.9-8.6,15.6-11.8c2.6-1.5,5.4-2.7,8.1-3.9c0.6-0.2,1.1-0.6,1.6-0.9
			c1.7-1.1-7.9,7-6.4,5.7c3-2.5,5.9-5.1,8.8-7.7c8.9-8.1,17.6-16.6,25.9-25.1c8.2-8.5,17.8-15.6,26.3-23.5c3.8-3.5,8-8.3,12.2-11.3
			c1.7-1.2,11-6,11.1-6.5s-0.8-0.4-1-0.4c-3.8,0.5-7.3,2.3-10.4,4.3c-4.1,2.6-7.9,5.6-11.5,8.8c-8.9,7.8-17.1,16.4-25.2,24.8
			c-8.6,8.9-17.3,17.6-26.2,25.9c-3.3,3.1-6.6,6.1-10.1,9c-1.9,1.6,7.4-6.2,5.4-4.7c-0.3,0.2-0.6,0.4-0.9,0.6
			c-0.1,0-0.1,0.1-0.2,0.1c-0.1,0,0.3-0.2,0,0c-0.1,0.1-0.2,0.1-0.3,0.2c-0.1,0-0.2,0.1-0.2,0.1c-0.2,0.1,0.2-0.1,0.2-0.1
			c0,0.1-0.4,0.2-0.5,0.2c-1.6,0.6-3.1,1.3-4.6,2.1c-6,2.9-11.5,6.6-16.5,11c-1.2,1.1-2.4,2.2-3.5,3.3c-0.4,0.4,0.4,0.6,0.6,0.6
			C111.3,94.9,111.9,94.6,112.4,94.2L112.4,94.2z"/>
	</g>
	<g>
		<g>
			<path class="st20" d="M105.1,99.6c0.8-1.9,1.6-3.7,2.6-5.5s2-3.7,3.4-5.1s3.2-2,4.9-3c1.7-1,3.2-2.1,4.7-3.4
				c0.6-0.6-0.9-0.4-1.2-0.1c-1.6,1.4-3.2,2.6-5.1,3.6c-1.6,0.9-3.4,1.6-4.7,3c-1.4,1.4-2.3,3.2-3.3,4.9c-1.1,1.9-2,3.9-2.8,5.9
				C103.4,100.2,104.9,100,105.1,99.6L105.1,99.6z"/>
		</g>
	</g>
	<g>
		<g>
			<path class="st20" d="M101.3,105.9c4.9-5.6,11.5-9.1,18.1-12.4c2.2-1.1,4.1-2.3,6.2-3.7c7.2-5.3,3.1-1.4,10.1-7
				c9.4-7.4,18.7-14.9,27.8-22.5c4.4-3.6,8.7-7.4,13-11.1c6.1-5.1,12.6-9.9,19.2-14.4c5.4-3.7,10.9-7.3,16.2-11.2
				c4-2.9,8-6,11.1-9.8c0.6-0.8,1.2-1.5,1.7-2.4c0.1-0.2-1.3-0.1-1.5,0.3c-2.5,4.1-6.3,7.2-10,10.1c-5,3.8-10.3,7.3-15.5,10.9
				c-6.1,4.2-12.2,8.4-18,13.1c-4.9,3.9-9.6,8.1-14.4,12.1c-9.1,7.7-18.4,15.2-27.6,22.6c-7.5,5.9-3.8,2.5-11.5,8.2
				c-1.6,1.2-3.5,2.7-5,3.6c-2.8,1.5-5.8,2.8-8.7,4.4c-3,1.7-5.9,3.5-8.5,5.7c-1.4,1.1-2.6,2.4-3.8,3.7
				C99.6,106.4,101.1,106.2,101.3,105.9L101.3,105.9z"/>
		</g>
	</g>
	<g>
		<g>
			<path class="st20" d="M90.2,105.5c4.5-3.6,9.9-6,15.1-8.2c5.6-2.4,11.3-4.4,16.9-6.7c2.2-0.9,4.3-1.9,6.4-3
				c2.5-1.4,4.8-3.4,7.1-5.2c3.1-2.4,6.2-4.8,9.5-6.9c3.4-2.1-4.2,5.8-0.5,4.4c3.8-1.4,6.9-3.5,9.9-6.1c3.4-2.9,6.7-5.9,10.1-8.8
				c3.3-2.9,6.7-5.9,10-8.8c3.1-2.7,6.1-5.5,9.7-7.5c2.4-1.4,5.1-2.5,7.1-4.4c0.8-0.8,1.6-1.6,2.3-2.5c2.7-3.1,5.4-6.2,8.1-9.3
				c3.2-3.7,6.4-7.4,9.7-11.1c2.3-2.6,4.6-5.3,7.1-7.7c0.2-0.2,0.3-0.3,0.5-0.5s0.4-0.3,0.3-0.2c1.3-1-0.7-1.5-1.6-0.9
				c-2.2,1.7-4,4-5.9,6c-3.2,3.5-6.3,7.1-9.4,10.6c-3,3.4-5.9,6.9-8.9,10.3c-1,1.2-2.1,2.3-3.1,3.5c-0.3,0.4-0.7,0.7-1,1.1
				c-0.1,0.1-0.2,0.2-0.3,0.3s-0.1,0.1,0,0c-0.4,0.3-0.8,0.6-1.3,0.9c-1.7,1.1-3.5,2-5.2,3s-3.4,2.2-4.9,3.4
				c-3.3,2.7-6.5,5.6-9.7,8.4c-3.3,2.9-6.7,5.9-10,8.8c-3.2,2.8-6.3,5.9-9.8,8.2c-3.4,2.2-7.4,3-11,4.7c-3.5,1.7,4.5-5.6,1.4-3.3
				c-4.8,3.5-9.2,7.7-14.6,10.2c-10.7,4.9-22.3,7.9-32.2,14.3c-1.1,0.7-2.1,1.4-3.2,2.2C87.3,105.7,89.3,106.2,90.2,105.5
				L90.2,105.5z"/>
		</g>
	</g>
	<g>
		<path class="st5" d="M75.1,115.8c4.9-7.2,8.1-4.7,14.8-10.3c0.6-0.5,1.2-1,1.8-1.5c-0.7,0.5,0.2-0.1,0.4-0.3
			c0.4-0.3,0.7-0.5,1.1-0.8c1.2-0.8,2.3-1.6,3.6-2.4c2.1-1.3,4.2-2.5,6.3-3.6c1.8-0.9,3.5-1.9,5.2-2.9c2.1-1.3,3.8-2.9,5.6-4.5
			c5.8-5.2,11.6-9.7,18.4-13.8c0.2-0.1-10.7,9.1-10.5,9c0.5-0.3,0.6-0.6-0.1,0.1c0.6-0.6,1.8-0.9,2.6-1.2c1.7-0.8,3.4-1.7,5-2.8
			c2.5-1.7,4.6-3.9,6.8-5.9c0.7-0.7,1.5-1.3,2.2-2c0.2-0.1,1.1-0.9,0.6-0.5c0.5-0.3,0.9-0.7,1.4-1c1.8-1.2,3.6-2.3,5.3-3.7
			c1.5-1.3,2.3-2.8,3.4-4.4c1.1-1.6,2.3-3.2,3.4-4.8c1-1.4,2-2.9,2.8-4.4c0.2-0.4,0.4-0.7,0.7-1c0.4-0.4-0.5,0.5,0.2-0.2
			c0.1-0.1,0.3-0.3,0.4-0.4c0.2-0.1,0.3-0.3,0.5-0.4c-0.1,0.1-0.6,0.4,0,0c0.4-0.3,0.8-0.5,1.2-0.8c0.5-0.3-0.6,0.3-0.1,0
			c0.2-0.1,0.4-0.2,0.6-0.3c0.5-0.2,0.9-0.4,1.4-0.6c0.4-0.2,0.9-0.3,1.3-0.5c0.2-0.1,0.8-0.3-0.1,0c0.3-0.1,0.6-0.2,0.8-0.3
			c2.2-0.7,4.3-1.4,6.4-2.2c4.9-1.9,8.7-5.5,12.6-9c5.2-4.7,10.4-9.5,15.9-13.9c0.4-0.3,0.8-0.6,1.2-0.9c0.1-0.1,0.6-0.5,0.3-0.2
			c-0.3,0.2,0.2-0.2,0.3-0.2c0.8-0.6,1.5-1.1,2.3-1.7c1.5-1.1,3.1-2.2,4.7-3.2c0.8-0.5,1.6-1,2.4-1.4c0.4-0.2,0.7-0.4,1.1-0.6
			c0.2-0.1,0.4-0.2,0.6-0.3c0.4-0.2-0.6,0.3,0.1,0c1.5-0.8,3.1-1.5,4.7-2.1c0.1,0,0.4-0.2,0.6-0.2c-0.6,0-0.6,0.2-0.2,0.1
			s0.8-0.3,1.2-0.4c0.8-0.2,1.5-0.4,2.3-0.6c1.3-0.3,3-2.4,2.5-4.1c-0.5-1.8-10.4-1.7-11.7-1.5c-7.5,1.5-6.4,6.7-12.5,11
			c-6.3,4.4-12.2,9.5-17.9,14.7c-2.3,2.1-4.6,4.2-7,6.3c-0.9,0.8-1.8,1.6-2.8,2.4c-0.2,0.2-0.4,0.3-0.6,0.5
			c-0.1,0.1-0.2,0.1-0.3,0.2c-0.4,0.4,0.3-0.3,0.3-0.3c-0.2,0.3-0.8,0.6-1.1,0.8c-0.5,0.3-1.4,0.6-0.1,0.1c-0.9,0.3-1.7,0.7-2.6,1.1
			c-0.2,0.1-0.4,0.2-0.7,0.2c-0.6,0.2,0.7-0.2,0.1,0c-0.5,0.1-0.9,0.3-1.4,0.5c-1,0.3-2,0.7-3,1c-4.3,1.5-8.7,3.3-11.7,7
			c-1,1.3-1.8,2.9-2.7,4.3c-1.1,1.6-2.4,3.2-3.5,4.8c-0.5,0.7-1,1.4-1.4,2.1c-0.5,0.8-0.8,1.4-1.2,1.8c-0.2,0.2-0.3,0.3-0.5,0.4
			c-0.1,0.1-0.6,0.5-0.3,0.3s-0.3,0.2-0.3,0.2c-0.2,0.2-0.5,0.3-0.7,0.5c-0.8,0.6-1.7,1.1-2.6,1.7c-3.2,2.1-5.9,4.9-8.7,7.5
			c-0.4,0.4-0.9,0.8-1.3,1.2c-0.3,0.3-0.7,0.6-0.1,0.1c-0.3,0.2-0.6,0.5-0.9,0.7c-0.6,0.4-1.3,0.8-2,1.2c-0.1,0.1-0.7,0.4-0.2,0.1
			s-0.2,0.1-0.3,0.1c-0.5,0.3-1,0.5-1.5,0.7c-6.9,3.3-1.8-1.4-7.7,3.4c-1.7,1.3-3.3,2.7-4.9,4.2c-0.1,0.1-2.9,2.3-2.8,2.5
			c0-0.1,0.8-0.6,0.3-0.2c-0.1,0.1-0.2,0.1-0.3,0.2c-0.2,0.1-0.3,0.2-0.5,0.4c-0.4,0.3-0.8,0.5-1.2,0.8c-0.8,0.5-1.7,1-2.5,1.5
			c-4.4,2.4-8.8,4.8-12.9,7.7c-6.8,4.9-12.6,3.9-17.7,10.5c-1.6,2.1-2.7,4.7-4.2,6.9c-1.1,1.6,0.4,2.1,1.8,2.1
			c1.9,0,4.8-2.9,4.8-2.9L75.1,115.8z"/>
	</g>
	<g>
		<g>
			<path class="st19" d="M117,95.2c10.9-7.5,10.6-5.6,21.8-12.6c5.3-3.3,10.8-6.3,15.8-10c2.4-1.8,4.6-3.8,6.9-5.7
				c2.1-1.8,4.2-3.5,6.2-5.4c0.9-0.9,1.8-1.9,2.6-2.9c0.4-0.6,0.9-1.2,1.2-1.8c0.1-0.2,0.3-0.4,0.4-0.7c0,0.1,0.5-0.9,0.2-0.4
				c-0.3,0.4,0.2-0.3,0.3-0.4c0.2-0.2,0.4-0.4,0.5-0.6c0.2-0.2,0.5-0.5,0.7-0.7c-0.5,0.5,0.5-0.5,0.7-0.6c3-2.6,6.2-4.9,9.3-7.2
				c2.5-1.9,5.3-3.8,7.4-6.2c2.5-3,5-5.8,7.7-8.5c3.7-3.6,7.6-7.1,11.7-10.2c1-0.7,2-1.4,3-2.1c0.5-0.4,1-0.7,1.6-1
				c0.2-0.1,0.3-0.2,0.5-0.3c0.3-0.2,0.3-0.2,0.1-0.1c0.1-0.1,0.3-0.1,0.4-0.2c0.9-0.5,1.9-1,2.8-1.5c0.5-0.2,0.9-0.4,1.4-0.6
				c-0.1,0-0.7,0.2-0.1,0.1c0.3-0.1,0.6-0.2,0.9-0.3c1.2-0.3,2.9-1.4,2.5-2.9s-2.5-1.6-3.6-1.3c-4.1,1.2-7.8,3.4-11.3,5.8
				c-3.9,2.7-7.5,5.8-11,9c-3.3,3-6.5,6.2-9.4,9.6c-1,1.1-1.8,2.3-2.8,3.4c-0.1,0.1-0.2,0.2-0.3,0.3c-0.3,0.3,0.6-0.5,0.1-0.1
				c-0.3,0.2-0.5,0.5-0.8,0.7c-0.7,0.6-1.4,1.1-2.1,1.7c-3.1,2.5-6.4,4.8-9.5,7.3c-2.6,2.1-5.2,4.2-6.9,7.1
				c-1.3,2.2-3.2,3.9-5.1,5.5c-2.1,1.8-4.3,3.6-6.4,5.5c-4.6,4-9.9,7-15.1,10.2c-12.9,7.8-14,6.9-26.3,15.4
				c-1.1,0.7-1.5,2.3-0.3,3.1C113.9,96.4,115.8,96,117,95.2L117,95.2z"/>
		</g>
	</g>
	<g>
		<path class="st20" d="M72.6,111.5c3.8-6.5,9.1-4.9,15.2-9.3c5.2-3.8,10.9-6.7,16.9-9.2c4.1-1.7,7.8-2.8,12-4.4
			c0.5-0.2,1-0.4,1.5-0.6c0.8-0.4,1.2-0.9,1.8-1.6c3.3-3.6,6-7.9,9.5-11.5c2.8-2.9,5.5-5.9,9.1-8c3.1-1.7,6.4-2.9,9.6-4.5
			c1.8-0.9,3.5-1.9,5.1-3c1.2-0.9,2.3-1.8,3.4-2.8c2.7-2.4,5.2-5.1,7.5-7.8c1-1.2,2-2.4,2.9-3.7c0.3-0.5,0.6-1,0.9-1.5
			c0-0.1,0.1-0.2,0.1-0.2c-0.1,0.2-0.1,0.1,0,0s0.1-0.1,0.2-0.2l0.1-0.1c0.1-0.1-0.2,0.2,0,0s0.4-0.3,0.6-0.5
			c0.6-0.4,1.2-0.8,1.7-1.2c2-1.5,3.9-3.1,5.8-4.8c3.2-2.9,7.8-7.4,10.6-10.7c3.2-3.7,4.8-7.2,8.5-10.5c4.5-4,6.1-7.9,11.3-11
			c0.2-0.1,0.6-0.3,0.6-0.3c0.4-0.2-1.6-0.7-2-1.2c-0.3-0.5-1.2-0.4-1.6-0.1c-3.8,2.1,0.7-3.4-2.7-0.7c-8.6,0-13.5,15.1-16.6,18.2
			c-3.6,3.6-4.5,8.6-8,12.3c-2.3,2.4-2.3,3.8-4.9,5.9c-1.4,1.1-2.8,2.1-4.2,3.1c-0.4,0.3-0.9,0.6-1.2,1c-0.5,0.5-1.9,1.2-2.3,1.8
			c-1.8,2.8-7.5,5.2-9.8,7.6c-2.2,2.3-8.4,6.4-8.4,6.4l-4.2,5.2c0,0-6.5,3.3-9.3,5.7c-1.7,1.5-3.2,3.2-4.8,4.9
			c-1.7,1.8-3.4,3.5-5.1,5.2c-3.6,3.6,4-2.3,0.5,1.3c-1.6,1.7-3.3,3.3-4.9,5.1c-0.2,0.3-0.6,0.5-0.8,0.8c0.1-0.1,0.2-0.2,0,0
			s0.2-0.1,0,0c-0.1,0-0.2,0.1-0.3,0.1c-0.5,0.2-1.1,0.4-1.6,0.6c-0.1,0-0.4,0.1,0,0c-0.1,0-0.1,0.1-0.2,0.1
			c-0.2,0.1-0.4,0.1-0.6,0.2c-0.4,0.1-0.9,0.3-1.3,0.4c-2.2,0.8-4.4,1.5-6.5,2.4c-5.8,2.2-11.5,4.9-16.7,8.2
			c-6.2,3.9-11.9,1.8-16.3,7.7c-1.2,1.6-2.3,3.2-3.3,4.9c-0.3,0.5,0.3,0.9,0.7,0.9C71.6,112.3,72.3,112.1,72.6,111.5L72.6,111.5z"/>
	</g>
	<g>
		<path class="st5" d="M75.3,116.3c0,0,3.9-0.6,11.8-4.5c3.4-1.7,7.8-0.7,10.9-2.9c1.4-0.9,2.7-2,3.9-3.1c1.4-1.4,2.6-2.8,4-4.1
			c6.8-6.3,14.9-11,22.2-16.5c2.1-1.6,4.2-3.4,6.3-5c1.3-1,2.8-1.6,4.3-2.1c3.8-1.4,0.4,5.6,0.4,5.6s3.2-1.1,4.7-2
			c1.1-0.6,2-1.3,3-2c2.8-2,6.5-3.1,9.2-5.1c2.9-2.1,6.2-5.3,9.2-7.2c1-0.6,13-6.1,22.7-14.8s15.1-3.2,23.8-14.3
			c8.7-11.1,6.4-5.1,10.5-9c2.2-2,7.1-7.1,9.3-9c1.5-1.3,1.5-3.5,7.4-6.4s-5.5-4.6-5.9-4.6c-1.6-0.1-4.4,2.5-5.6,3.4
			c-2,1.5-1.9,1.9-3.8,3.6c-4.6,4.2-10,9.1-14.4,13.5c-1.6,1.6-7.3,6.8-8.9,8.4c-1.7,1.7-8.9,4.6-9.8,5c-1.2,0.5-3.2,5.6-3.2,5.6
			s-6,3.3-6.9,4.1c-1.8,1.8-3.9,2.4-6,3.7c-1,0.6-1,2.2-2.1,2.9c-1.3,0.8-11.7,8.4-14.2,10.1c-3.1,2.2-6.1,4.5-9.2,6.8
			c-2.2,1.6-4.4,1-6.8,2.3c-3.2,1.8-6.9,3.5-10.3,4.5c-3.6,1.1,3.8-7.3,0.7-5.1c-2.2,1.6-4.2,3.5-6.3,5.1c-2.1,1.6-4.3,2.5-6.4,4.1
			c-3.8,2.6-7.6,5.3-11.2,8.1c-1.7,1.3-4.2,3.7-5.7,5.1c-1.4,1.3-2.9,2.6-4.2,4c-0.2-0.4-8.6,3.2-8.4,3.6
			c-0.2-0.5-21.6,8.6-21.4,9.1c-1.8,1.4-1.4-3-1-3.5L75.3,116.3z"/>
	</g>
	<path class="st22" d="M69.8,187.5L1.9,221l141.5,69.3l0,0l64.9-33L69.8,187.5z M110.6,265.6c-22.3-5-28-10-28.3-18.2
		c-0.4-8.3,18-15.3,38.8-15.3s37.7,7.4,37.7,16.6C158.7,257.8,132.8,270.6,110.6,265.6z"/>
	<g>
		<path class="st23" d="M160.1,249.1c0,8.8-16.6,19.2-36.3,19.2s-39.8-7.2-39.8-16s13.7-21.7,33.4-21.7
			C149.1,230.6,160.1,240.3,160.1,249.1z"/>
		<path class="st24" d="M121.6,230.4c-22,0-39.7,8.1-39.7,18.1c0,10,16.9,20,38.8,20s40.6-10,40.6-20
			C161.3,238.4,143.6,230.4,121.6,230.4z M121.6,263.2c-19.1,0-34.4-6.8-34.4-15.3c0-8.4,15.4-15.3,34.4-15.3s34.4,6.9,34.4,15.3
			C156,256.4,140.7,263.2,121.6,263.2z"/>
	</g>
	<g>
		<path class="st22" d="M151.3,251.9c0.5-0.2,0.5-2.8,0.5-2.8s0.7-10.5-1.4-25.4c-2.7-19-12.5-24.3-12.5-24.3l0.2-42l-34.1,0.4
			l0.5,41.3c0,0-9.4,8.1-10.8,19.7c-1.5,11.6-3.8,27.6-0.8,34.3"/>
		<ellipse class="st22" cx="121.1" cy="158.1" rx="17.3" ry="8.7"/>
		<path class="st25" d="M138,199.1c0,3.5-7,8.7-16.5,8.7s-17-5.2-17-8.7"/>
		<ellipse class="st4" cx="121.2" cy="158.1" rx="10" ry="5.1"/>
		<ellipse class="st4" cx="121.2" cy="151.2" rx="10" ry="5.1"/>
		<path class="st21" d="M111.2,151.4v6.7c0,0,0.2,5.6,10.6,5.3s9.3-5.3,9.3-5.3v-6.9c0,0-1.2,4.7-9.8,4.8
			C112.8,156.1,111.2,151.4,111.2,151.4z"/>
	</g>
	<g>
		<path class="st19" d="M144.4,80.8c-6.1,0.6-11.9,2.6-17.4,5.5c-5.1,2.6-9.8,5.9-14.7,8.7c-0.5,0.3-1.1,0.6-1.6,0.9
			c-0.4,0.2,0.4-0.2-0.1,0c-0.1,0.1-0.2,0.1-0.3,0.2c-0.5,0.3-1,0.5-1.6,0.7c-0.3,0.1-0.5,0.2-0.8,0.3c-0.6,0.2,0.1,0-0.5,0.2
			s-1.2,0.4-1.8,0.6c-2.7,0.8-5.5,1.6-8.2,2.5c-7.8,2.6-14.8,6.7-20.9,12.1c-4.3,3.8-15.7,8.5-16.6,10c-0.3,0.4-0.5,0.8-0.8,1.2
			c-0.5,0.8-1,0.9-1.9,1.8c-0.9,0.9-1.2,2.5-1.9,3.3c-0.6,0.7-1.1,0.6-1.7,1.3c-0.8,1-1.3,2-2,3.1c-0.6,0.8-1.1,1.8-1.9,2.5
			c-1.9,1.8-2.4,2.6-3,4.1s-0.1,1.1-1.6,3.7c-0.3,0.5-0.6,1.2-0.9,1.9c-0.6,1.5-1.6,3.9-2.2,6c-0.7,2.6-0.6,4.4-0.9,5.4
			c-0.3,1.1-0.8,2.8-0.9,3.4c-0.2,1-0.3,1.6-0.8,2.9c-0.5,1.2-0.5,3.2-0.7,4.6c-0.3,1.7-1,3-0.5,4.8s-0.3,2.6-0.5,3.9
			c-0.1,1.2-0.2,2.3-0.3,3.5c-0.1,1.9-0.7,4.2,0,5.8s-0.4,3.9,0.4,6.2c0.9,2.2,0.3,1.9,0.5,3.1c0.2,1.2,0,3.2,0.6,4.1
			c0.6,0.9,1.1,6.1,2,7.3s0.9,2.6,1.3,3.9c0.4,1.2,1.1,1.6,1.4,3.6c0.3,2.1,3.4,5.6,3.7,7.3c0.3,1.8,2.9,5.8,4.5,6.8s1.9,2.4,3,3.6
			c0.6,0.6,0.7,1.4,1.7,1.9s3.7,4.3,5.1,4.6c1.4,0.3,5.3,4.2,6.6,4.7c1.2,0.4,5.4,3.5,6.3,3.4s3,1.4,4.3,2.4
			c2.4,1.7,4.7,3.8,7.3,5.3c0.8,0.5,2.1,0.2,2.9-0.3c0.6-0.4,1.2-1.2,0.3-1.7c-2.6-1.5-4.8-3.5-7.3-5.3c-2.2-1.6-7.3-3.8-7.3-3.8
			l-2.8-1.4c-1.2-2.1-6.2-3.3-6.6-4.9c-0.4-1.6-5.8-4.2-5.6-5.3s-3.5-3.3-3.8-4.5s-4.6-5-4.5-6.2c0.2-1.2-3.3-5.7-3.2-6.6
			c0-2.3-3.1-6.2-3.1-7.8c0.1-1.6-1.1-3.7-1.6-5.6c-0.3-1.1-0.5-2.2-0.7-3.2c-0.4-2.1-1.4-5-1-6.3s-0.4-4.8-0.4-5.9
			c-0.1-1.1-0.3-5.2,0-6.6s0.2-2.8,0.3-4.2c0.1-1,0.2-2,0.4-3c0.2-1.3-0.2-2.1,0.6-3.9c0,0,0.6-3.5,0.9-5.3c0.3-1.6,0.4-2.7,0.8-4.3
			c0.4-2,1.6-4.8,2.1-6.7c0.7-2.5,0.6-4.4,1.7-6.7c0.3-0.7,0.8-1.9,1.8-3c1.1-1.1,2.1-3.3,2.5-4.2c1.5-2.9,1.9-1.7,3.7-5.1
			c0.8-0.9,0.9-1.9,2.7-3.1c1.8-1.2,2.3-1.3,3.7-3.2c1.8-2.5,4.4-4,6.5-6.3c5.7-6.4,16.9-11.9,24.9-15.3c2.9-1.2,5.3-2,8.4-2.9
			c2.5-0.7,5.1-1.4,7.6-2.4c3.8-1.5,7.2-3.9,10.6-6c4.7-2.9,9.4-5.8,14.6-7.6c2.7-1-9.4,1.8,8.3-1.9C161.3,79.7,145,80.8,144.4,80.8
			L144.4,80.8z"/>
	</g>
	<g>
		<g>
			<g>
				<path class="st5" d="M146.3,214c0.4,0.4-0.2,1.3-0.4,1.7c-0.7,1-1.6,1.9-2.6,2.7c-3.3,2.7-7.4,4.3-11.6,5.2
					c-6.3,1.4-12.9,1.1-19.1-0.1c-4.6-0.9-9.2-2.3-13.2-4.8c-1.3-0.8-2.7-1.7-3.7-2.9c-0.3-0.4-1.2-1.4-0.9-2
					c0.3-0.6-1.3-0.1-1.5,0.3c-0.9,1.7,2.5,4,3.5,4.7c4.1,2.8,9,4.5,13.8,5.5c11,2.3,24.1,1.8,33.2-5.4c0.9-0.7,5.2-4.1,3.7-5.7
					C147.4,212.8,145.9,213.6,146.3,214L146.3,214z"/>
			</g>
		</g>
		<g>
			<g>
				<path class="st26" d="M146.8,216.5c1,1.1-2.6,3.9-3.2,4.4c-3.4,2.7-7.6,4.3-11.9,5.3c-6.2,1.4-12.7,1.1-18.9,0
					c-4.8-0.9-9.6-2.4-13.8-4.9c-1.4-0.8-2.7-1.8-3.8-3c-0.3-0.4-1.2-1.3-0.9-1.8c0.4-0.6-1.2-0.5-1.5-0.1c-1.1,1.7,2.5,4.1,3.5,4.7
					c4.1,2.8,9,4.5,13.8,5.6c11.2,2.4,24.5,2,34-5.1c1.3-1,2.7-2.1,3.6-3.5c0.4-0.6,1.1-1.7,0.5-2.4
					C147.9,215.4,146.3,216,146.8,216.5L146.8,216.5z"/>
			</g>
		</g>
		<g>
			<g>
				<path class="st27" d="M147.5,219.2c-0.1-0.2,0-0.1-0.1,0.3c-0.1,0.4-0.4,0.8-0.7,1.1c-0.9,1.1-2,2-3.1,2.8
					c-3.7,2.6-8,4.3-12.3,5.2c-6.2,1.4-12.6,1.2-18.8,0.1c-4.8-0.9-9.6-2.3-13.8-4.7c-1.4-0.8-2.8-1.7-4-2.9
					c-0.3-0.3-0.7-0.7-0.9-1.1c-0.1-0.2-0.1-0.3,0-0.4c0.5-0.6-0.9-1.7-1.3-1c-1.3,1.7,2.4,4.4,3.4,5.1c4,2.9,8.8,4.6,13.5,5.8
					c11.5,2.8,25,2.3,35-4.7c1.3-0.9,5.9-4.1,4-6.2C148,217.8,146.8,218.3,147.5,219.2L147.5,219.2z"/>
			</g>
		</g>
		<g>
			<g>
				<path class="st28" d="M148.2,221.5C147.9,221.1,148.2,221.3,148.2,221.5c-0.2,0.2-0.2,0.4-0.2,0.5c-0.2,0.4-0.5,0.8-0.8,1.2
					c-0.9,1.1-2.1,2-3.3,2.8c-3.8,2.6-8.3,4.3-12.8,5.3c-6.2,1.3-12.5,1.3-18.7,0.2c-5-0.8-9.9-2.3-14.4-4.7c-0.6-0.4-6-3.3-4.8-4.6
					c0.3-0.3-1-1.4-1.2-1.1c-1.3,1.4,2.7,4.3,3.5,4.9c3.9,2.8,8.5,4.6,13.1,5.8c11.8,3.1,25.3,2.6,35.8-4.2c1.4-0.9,6.2-3.9,4.3-6.1
					C148.5,220.9,147.5,220.6,148.2,221.5L148.2,221.5z"/>
			</g>
		</g>
		<g>
			<g>
				<path class="st29" d="M148.9,224c-0.3-0.4-0.1,0.1-0.2,0.5c-0.2,0.4-0.5,0.8-0.8,1.2c-1,1.1-2.2,2-3.4,2.8
					c-3.9,2.6-8.4,4.2-12.9,5.3c-11,2.5-23.6,0.9-33.5-4.3c-0.7-0.3-6.6-3.4-5.2-4.7c0.2-0.2-1-1.4-1.1-1.2
					c-1.3,1.2,2.7,4.3,3.4,4.8c3.8,2.8,8.5,4.7,13.1,5.9c12,3.2,25.7,2.7,36.5-3.9c1.5-0.9,6.6-3.9,4.6-6.1
					C149,223.7,148.1,223.1,148.9,224L148.9,224z"/>
			</g>
		</g>
		<g>
			<g>
				<path class="st30" d="M149,227.1c0.2,0.3-0.4,1.2-0.8,1.6c-1,1.1-2.3,2-3.6,2.8c-4.2,2.6-9,4.2-13.8,5.1
					c-10.9,2.1-23.4,0.4-33.1-5.1c-1.5-0.8-3-1.7-4.2-2.9c-0.4-0.3-0.7-0.7-0.9-1.2c-0.1-0.1-0.1-0.3-0.1-0.3c0-0.1,0,0,0,0
					c0.8-0.7-0.6-1.4-1.2-0.9c-1.8,1.5,2.1,4.2,3.1,4.9c4.2,2.9,9.1,4.7,14,5.9c12.2,3.1,25.8,2.2,36.8-4.3c1.3-0.8,7.2-4.2,5.3-6.5
					C149.8,225.7,148.3,226.3,149,227.1L149,227.1z"/>
			</g>
		</g>
		<g>
			<g>
				<path class="st31" d="M149.4,229.4c1.2,1.5-3.6,4.3-4.4,4.8c-4.4,2.7-9.4,4.4-14.4,5.3c-11.1,2.1-23.7,0.3-33.5-5.3
					c-0.5-0.3-6.4-3.9-5.1-4.8c0.5-0.4-1-0.7-1.4-0.4c-1.7,1.3,2.6,4.1,3.3,4.6c4.3,2.8,9.2,4.7,14.1,5.9c12.3,3,25.8,2.2,37-4
					c1.8-1,3.6-2.1,5-3.6c0.6-0.6,1.6-1.8,0.9-2.6C150.6,228.8,149.1,229,149.4,229.4L149.4,229.4z"/>
			</g>
		</g>
		<g>
			<g>
				<path class="st32" d="M149.9,232.1c1.3,1.6-3.9,4.6-4.8,5.1c-4.7,2.7-10.1,4.5-15.4,5.3c-11.2,1.9-23.7-0.2-33.4-5.9
					c-0.5-0.3-6.3-3.9-4.8-4.9c0.3-0.2-0.2-0.2-0.3-0.2c-0.3,0-0.8,0.1-1.1,0.2c-1.7,1.1,2.8,4,3.4,4.4c4.4,2.8,9.5,4.7,14.6,5.9
					c12.3,2.9,25.7,1.7,37-4.1c1.9-1,3.8-2.1,5.4-3.6c0.6-0.6,1.7-1.7,1-2.6C151.3,231.5,149.8,231.9,149.9,232.1L149.9,232.1z"/>
			</g>
		</g>
		<g>
			<g>
				<path class="st33" d="M150.7,235.1c0,0,0,0.2-0.1,0.5c-0.2,0.5-0.7,0.9-1.1,1.2c-1.3,1.2-2.9,2.1-4.5,2.9
					c-4.8,2.5-10,4.1-15.3,5c-11.2,1.9-23.3-0.1-33.2-5.4c-1.6-0.9-3.2-1.8-4.6-3c-0.4-0.3-0.7-0.7-1-1.1s0-0.3-0.3-0.1
					c0.9-0.5,0.2-1.8-0.7-1.3c-2.5,1.5,1.5,4.3,2.6,5c4.3,2.9,9.3,4.8,14.3,6.2c12.9,3.4,26.9,2.3,38.8-3.9c1.6-0.8,8.3-4.2,6.1-6.9
					C151.3,233.3,150,234.4,150.7,235.1L150.7,235.1z"/>
			</g>
		</g>
		<g>
			<g>
				<path class="st34" d="M151,237.3c1.3,1.6-4.8,4.7-5.6,5.1c-4.9,2.5-10.4,4.2-15.8,5.1c-11.4,1.9-23.9-0.1-34-5.7
					c-0.4-0.2-6.4-3.9-5.1-4.6c0.7-0.4-0.8-1-1.3-0.8c-2.1,1.1,2.4,4.1,3.1,4.5c4.3,2.9,9.3,4.8,14.3,6.1
					c12.9,3.5,26.7,2.4,38.8-3.4c1.2-0.6,9-4.1,7.1-6.6C152.2,236.7,150.6,236.7,151,237.3L151,237.3z"/>
			</g>
		</g>
		<g>
			<g>
				<path class="st35" d="M151.7,240.2c0.3,0.4-1.1,1.6-1.4,1.9c-1.5,1.2-3.2,2.1-4.9,2.9c-5,2.4-10.4,4-15.9,4.8
					c-11.4,1.8-23.7-0.2-33.8-5.6c-1.7-0.9-3.3-1.8-4.7-3.1c-0.4-0.3-0.8-0.7-1-1.1c-0.1-0.2-0.1-0.2-0.1-0.3c0,0.1-0.1,0.2-0.1,0.2
					c0.9-0.5,0.2-1.7-0.7-1.2c-2.7,1.3,1.7,4.3,2.7,5c4.4,3,9.6,4.9,14.7,6.3c13.2,3.5,27.4,2.2,39.8-3.8c1.6-0.8,8.9-4.1,6.7-6.9
					C152.4,238.5,151.1,239.4,151.7,240.2L151.7,240.2z"/>
			</g>
		</g>
		<g>
			<g>
				<path class="st36" d="M152.1,242.7c1.5,1.9-4.6,4.6-5.6,5.1c-5.1,2.4-10.7,4-16.3,5c-11.7,1.9-24.1-0.2-34.6-5.6
					c-1.7-0.9-3.5-1.9-5-3.2c-0.4-0.4-1-0.8-1.2-1.3c-0.2-0.4,0-0.7-0.4-0.6c0.9-0.4,0.7-0.9-0.2-0.5c-2.8,1.2,1.4,3.8,2.6,4.6
					c4.9,3.1,10.5,5.1,16.1,6.5c13,3.1,26.8,1.4,38.9-4.2c2.1-1,4.2-2.1,6-3.6c0.7-0.6,2-1.8,1.3-2.8
					C153.3,241.7,151.9,242.5,152.1,242.7L152.1,242.7z"/>
			</g>
		</g>
		<g>
			<g>
				<path class="st37" d="M152.7,245.3c1.1,1.4-5.4,4.5-6.1,4.8c-5,2.3-10.3,3.9-15.7,4.9c-12,2.2-24.5,0.3-35.4-5.1
					c-1.9-0.9-3.8-2-5.4-3.3c-0.4-0.3-1-0.8-1.2-1.3c-0.2-0.3-0.2-0.3,0-0.4c0.9-0.4-0.2-1.3-0.9-1c-2.8,1.1,2.5,4.5,3.3,5
					c4.9,3.1,10.5,5.1,16.2,6.5c13.3,3.3,27.4,1.6,39.8-4.1c1.5-0.7,9-3.9,6.9-6.6C153.6,244.1,152.1,244.5,152.7,245.3L152.7,245.3
					z"/>
			</g>
		</g>
		<g>
			<g>
				<path class="st38" d="M153.1,247.6c1.5,1.9-4.5,4.6-5.5,5c-5,2.4-10.4,4-15.9,5.1c-6.5,1.3-13.1,1.6-19.6,0.5
					c-6-1-12-2.9-17.4-5.6c-1.9-1-3.8-2-5.5-3.4c-0.4-0.3-1.8-1.6-0.8-2c0.4-0.2-0.9-0.6-1.3-0.5c-2.4,0.9,3.4,4.4,4,4.7
					c5.2,3,11,5.1,16.9,6.5c13,3,26.7,1.2,39-4c1.2-0.5,9.4-3.8,7.6-6.3C154.4,247.3,153,247.4,153.1,247.6L153.1,247.6z"/>
			</g>
		</g>
		<g>
			<g>
				<path class="st20" d="M153.7,250.5c1.5,2-4.5,4.6-5.5,5c-5.1,2.3-10.6,3.9-16.1,4.9c-6.6,1.2-13.2,1.4-19.8,0.3
					c-5.9-1-11.8-2.9-17.2-5.5c-2-1-4.1-2.1-5.8-3.5c-0.5-0.4-1.1-0.9-1.4-1.5c-0.1-0.2-0.1-0.4-0.2-0.5c-0.1-0.3,0.6-0.4-0.2-0.2
					c0.8-0.3,0.8-0.6-0.1-0.3c-1,0.3-1.6,0.8-0.9,1.7c1,1.3,2.6,2.2,4,3.1c5.6,3.3,12,5.5,18.3,6.8c12.9,2.7,26.6,0.4,38.7-4.7
					c1.2-0.5,9.4-3.8,7.6-6.2C155,249.7,153.6,250.4,153.7,250.5L153.7,250.5z"/>
			</g>
		</g>
	</g>
	<path class="st39" d="M84.1,254.3c-0.8-0.7-1.2-1.8-0.9-2.9c0.4-1.7,2-2.7,3.7-2.3c1.7,0.4,2.7,2,2.3,3.7c-0.1,0.3-0.2,0.4-0.3,0.7
		l1.6,1.2c0.4-0.5,0.5-0.8,0.6-1.5c0.6-2.7-1.1-5.4-3.8-6c-2.7-0.6-5.4,1.1-6,3.8c-0.6,2.7,1.1,5.4,3.8,6
		C85.6,257,84.4,254.5,84.1,254.3z"/>
	<g>
		<g>
			<path class="st19" d="M87.5,249.7c-0.9-0.5-2.7,0.1-3.4,0.7c-0.7,0.6-0.4,1,0.1,1.6c1.8,2.1,4,4.1,6.2,5.8c4.6,3.7,10,5.8,15.7,7
				c4.5,1,9.2,1.3,13.8,1.4c5.3,0.1,10.6-0.1,15.8-1.2c6.9-1.4,14-4.4,18.7-9.8c1.2-1.3,5.8-7.9,1.8-8.7c-0.9-0.2-2.2,0.2-2.9,0.8
				c-0.6,0.5-0.5,1,0.3,1.1c-0.4-0.1-0.2-0.2-0.2,0s0-0.1,0,0s0.1,0.2,0.1,0.3c0.1,0.5,0.1,0.8,0,1.1c-0.3,1.4-0.9,2.8-1.8,3.9
				c-2.9,4.1-7.4,6.9-12.1,8.4c-3.8,1.3-7.8,1.7-11.9,1.9c-4.5,0.2-8.9,0.1-13.4-0.3c-5.7-0.6-11.5-2-16.4-4.9
				c-1.9-1.1-3.7-2.4-5.3-3.9c-1.3-1.1-2.5-2.3-3.7-3.5c-0.4-0.4-0.7-0.7-1.1-1.1c-0.1-0.2-0.2-0.2-0.1-0.2V250l0,0
				c-0.1-0.3-0.2-0.1-0.4,0.7c-0.5,0.2-0.9,0.4-1.4,0.6c-0.3,0.1-1.7,0.1-1.7,0.1C85.2,252,89,250.5,87.5,249.7L87.5,249.7z"/>
		</g>
	</g>
	<path class="st40" d="M107.3,339.2c0,0,16,2.7,26.9,0v17.3h-26.9V339.2z"/>
	<path class="st40" d="M133.2,344.1v4.3c0.4,0.5,0.6,1,0.6,1.6c0,2.8-5.8,4.3-13.1,4.3c-7.3,0-13.8-1.5-13.8-4.3
		c0-0.4,0.1-0.8,0.4-1.1v-4.5c-3.1,1.5-5,3.5-5,5.7c0,5.1,8.2,8.3,18.2,8.3c10.1,0,18.2-3.7,18.2-8.3
		C138.7,347.7,136.6,345.6,133.2,344.1z"/>
	<g>
		<path class="st4" d="M60.3,196.8l3.5,1.7l3.3-1.8l0.2-53.5l-3.5-1.7l-3.6,1.8C60.1,143.2,60.3,197.3,60.3,196.8z"/>
		<g>
			<line class="st41" x1="63.6" y1="198.3" x2="63.7" y2="145"/>
			<path class="st0" d="M60,143.2l3.7,1.8l3.6-1.9l-3.5-1.8L60,143.2z"/>
		</g>
	</g>
	<path class="st42" d="M48.4,145.9l-0.7,2.3c1.6,0.2,2.3,0.8,2.3,1.4c0,0.9-2.2,1.5-4.8,1.5c-2.7,0-4.8-0.7-4.8-1.5
		c0-0.6,1.2-1.2,2.9-1.5l1-2.8c-4.4,0.2-8,2.2-8,4.3c0,2.3,3.9,4.2,8.8,4.2s8.8-1.9,8.8-4.2C53.9,147.8,51.9,146.4,48.4,145.9z"/>
	<g>
		<path class="st43" d="M45.1,155.2c-6.1,0-8.6-2.6-8.7-3.3v-2.4c0,1.5,3.4,4.1,8.3,4.1c7.1,0,9.1-3.2,9.1-3.2l-0.1,1.8
			C53.4,153.1,49.7,155,45.1,155.2z"/>
	</g>
	<polygon class="st44" points="51.7,152.6 60.3,156.8 60.2,158 51.7,153.8 	"/>
	<polygon class="st44" points="51.7,152.6 53.9,151.4 60.2,154.4 60.3,156.8 	"/>
	<path class="st1" d="M68.7,120c0,0-3.8,1.9-4.9,2.1c-1.6,0.3-3.4,0.1-4.2,1.2"/>
	<path class="st1" d="M62.1,125.7c0,0-1.7,1.7-2.8,1.9c-1.6,0.3-3.4,0.2-4.1,1.3"/>
	<path class="st2" d="M58.2,130.5c0,0-1.7,1.7-2.8,1.9c-1.6,0.3-3.4,0.2-4.1,1.3"/>
	<path class="st2" d="M53.6,136.4c0,0-1.6,1.6-2.7,1.9c-1.6,0.4-3.5,0.7-4.2,1.9"/>
	<path class="st3" d="M49.6,142.9c0,0-1.4,2.3-2.5,2.8c-1.5,0.7-3.3,1.1-3.7,2.3"/>
	<path class="st3" d="M45.5,155.1c0,0-0.9,2.2-1.9,2.8c-1.4,0.9-3.1,1.4-3.5,2.7"/>
	<path class="st45" d="M44.6,160.7c0,0-1.1,2.7-2.1,3.4c-1.4,1-2.9,1.7-3.4,3.4"/>
	<path class="st46" d="M43.6,166.3c-0.3,1.6-1.8,4-2.9,4.6c-1.6,1-2.2,1-2.7,2.6"/>
	<path class="st47" d="M42.7,172.2c-0.3,1.6-1.7,3.9-2.7,4.6c-1.4,1-1.9,1.2-2.4,2.8"/>
	<path class="st1" d="M42.2,177.9c0.1,1.6-1,4.2-2.1,5.1c-1.6,1.3-2.3,1.5-2.5,3.2"/>
	<path class="st1" d="M42.1,183.4c0,1.7-0.9,4.6-1.8,5.5c-1.3,1.4-1.9,1.5-2,3.4"/>
	<path class="st1" d="M42.6,190.4c0.1,1.6-0.6,4.3-1.4,5.2c-1.1,1.3-1.7,1.5-1.7,3.2"/>
	<path class="st1" d="M43.8,197.9c0.1,1.6-0.5,4.3-1.1,5.2c-0.9,1.3-1.1,1.5-1.1,3.2"/>
	<path class="st1" d="M45.7,205.5c0.1,1.6-0.4,4.2-0.8,5.1c-0.6,1.3-0.9,1.5-0.9,3.2"/>
	<path class="st1" d="M48.7,213.1c0.1,1.6-0.3,2.9-0.7,3.9c-0.6,1.3-0.3,3-0.3,4.7"/>
	<path class="st1" d="M51.9,219.8c0.3,1.6,0.1,3.1,0,4c0,1.3-0.1,2.1,0.1,3.8"/>
	<path class="st1" d="M56.3,226.2c0.3,1.6,0.1,2.5,0,3.4c0,1.3,0.3,1.7,0.5,3.4"/>
	<path class="st1" d="M60.1,230.8c0.6,1.5,0.6,2.4,0.8,3.3c0.2,1.3,0.7,2.1,1.3,3.7"/>
	<path class="st1" d="M65.6,235.7c0.6,1.5,0.7,1.7,1.3,3.2c0.6,1.5,1.2,2,1.7,3.6"/>
	<path class="st1" d="M79.8,111.5c0,0-3.6,0.4-4.7,0.6c-1.6,0.3-6.2,0.4-7,1.5"/>
	<path class="st1" d="M75.3,116.2c0,0-5,0.6-6.2,1c-1.7,0.6-3.6,0.7-4.6,2.1"/>
	<g>
		<g>
			<g>
				<path class="st6" d="M145.9,209.9C145.9,209.9,145.9,209.8,145.9,209.9c-0.1,0.4-0.1,0.6-0.2,1c-0.4,1.2-1.3,2.2-2.1,3.1
					c-2.9,3.3-7,5.5-11.2,6.7c-6.5,1.9-13.5,1.8-20.1,0.4c-4.7-1-9.6-2.7-13.3-6c-1.1-1-2.2-2.2-2.8-3.7c-0.3-0.8-0.5-1.7,0-2.2
					c0.7-0.7-0.8-1.4-1.4-0.8c-1.8,1.8,0.6,5.1,1.8,6.5c3.4,3.8,8.5,6,13.4,7.2c11.6,2.9,26.3,2.2,34.8-7.2c0.8-0.9,4.6-5.9,1.5-6.5
					C145.4,208.3,144.8,209.7,145.9,209.9L145.9,209.9z"/>
			</g>
		</g>
		<g>
			<g>
				<path class="st48" d="M147.2,212.5c-0.1,0-0.5-0.8-0.6-0.6c0,0.1,0,0.4,0,0.5c-0.1,0.5-0.3,0.9-0.5,1.3
					c-0.7,1.2-1.6,2.3-2.6,3.3c-3.2,3.1-7.4,5.3-11.7,6.5c-6.3,1.8-13.1,1.7-19.5,0.5c-4.9-0.9-10-2.6-13.9-5.9
					c-1.2-1-4.4-4.1-2.7-5.9c0.2-0.3-1-1.5-1.2-1.2c-1.6,1.7,1.2,5,2.3,6.2c3.5,3.7,8.3,6,13.2,7.3c11.6,3.1,26.6,2.5,35.3-7
					c1-1.1,2.1-2.4,2.4-3.8c0.2-1-0.5-2.2-1.6-2.4c-0.3-0.1,0.2,0.6,0.2,0.6C146.5,212.1,146.8,212.4,147.2,212.5L147.2,212.5z"/>
			</g>
		</g>
		<g>
			<g>
				<path class="st49" d="M146.4,214.5c1.6,0.4-1.8,4.4-2.1,4.7c-3.1,3.2-7.2,5.5-11.5,6.9c-6.9,2.3-14.4,2.2-21.4,0.6
					c-4.7-1.1-9.5-3.1-13.1-6.4c-1.1-1-4.5-4.4-2.8-6.1c-0.2,0.2-1.4-0.5-1.7-0.1c-1.6,1.7,1.6,4.9,2.6,5.9
					c3.7,3.5,8.7,5.5,13.6,6.7c11.6,2.7,25.3,2.2,34.7-6c0.6-0.5,5.6-5.4,3.2-6.1c-0.4-0.1-0.8-0.2-1.2-0.1
					C146.7,214.4,146.1,214.5,146.4,214.5L146.4,214.5z"/>
			</g>
		</g>
		<g>
			<g>
				<path class="st50" d="M147.6,217.8c-0.3-0.1-0.2-0.5-0.3,0c-0.1,0.4-0.3,0.7-0.5,1.1c-0.7,1.2-1.7,2.3-2.8,3.2
					c-3.5,3.1-7.8,5.2-12.2,6.4c-6.4,1.8-13.3,1.7-19.8,0.4c-4.9-1-9.9-2.8-13.8-5.9c-1.2-1-2.5-2.1-3.2-3.5
					c-0.3-0.6-0.8-1.7-0.4-2.1c0.6-0.6-0.8-1.6-1.3-1.1c-1.7,1.8,1.2,4.9,2.3,6.1c3.6,3.7,8.6,5.9,13.5,7.2
					c11.9,3.2,26.4,2.2,36-6.4c1-0.9,5.7-5.4,2.4-6.5C146.7,216.3,146.7,217.5,147.6,217.8L147.6,217.8z"/>
			</g>
		</g>
		<g>
			<g>
				<path class="st51" d="M147.7,220.3c-0.2-0.1,0,0.1,0,0.4c-0.1,0.4-0.3,0.8-0.5,1.1c-0.8,1.2-1.8,2.3-2.9,3.2
					c-3.7,3.1-8.2,5.3-12.9,6.5c-6.5,1.7-13.3,1.5-19.8,0.1c-4.8-1.1-9.7-2.9-13.5-6.1c-1.3-1-2.5-2.2-3.3-3.6
					c-0.3-0.5-0.9-1.7-0.4-2.2c0.6-0.6-1.1-0.9-1.5-0.5c-1.6,1.7,1.5,4.7,2.6,5.7c3.7,3.5,8.7,5.7,13.6,7
					c12.1,3.2,26.2,2.1,36.2-6.1c0.8-0.7,6.1-5.2,3.3-6.3C148,219.3,146.7,219.9,147.7,220.3L147.7,220.3z"/>
			</g>
		</g>
		<g>
			<g>
				<path class="st52" d="M147.9,222.9c1.5,0.7-2.8,4.4-3.2,4.8c-3.9,3.2-8.6,5.3-13.4,6.5c-6.6,1.6-13.5,1.3-20.1-0.2
					c-4.8-1.1-9.6-3-13.5-6.1c-1.3-1-2.6-2.2-3.5-3.6c-0.3-0.5-1-1.7-0.5-2.3c0.3-0.3-0.3-0.3-0.4-0.3c-0.4,0-0.8,0.2-1.1,0.5
					c-1.5,1.6,1.9,4.7,2.9,5.5c3.8,3.4,8.8,5.5,13.7,6.8c12.2,3.2,25.9,1.6,36.2-6.1c0.6-0.4,6.4-5.3,4.3-6.2
					C148.9,222,147.6,222.8,147.9,222.9L147.9,222.9z"/>
			</g>
		</g>
		<g>
			<g>
				<path class="st53" d="M149.1,226c-0.6-0.3-0.1-0.8-0.4-0.1c-0.2,0.5-0.5,0.9-0.8,1.3c-1,1.2-2.3,2.3-3.6,3.2
					c-4.1,3-9,5-13.9,6.1c-6.4,1.4-13,1.2-19.4-0.2c-4.8-1.1-9.6-2.9-13.6-5.9c-1.3-1-2.6-2.1-3.6-3.4c-0.3-0.4-0.6-0.9-0.7-1.2
					s-0.1-0.4,0.1-0.6c0.5-0.5-0.6-1.8-1.2-1.2c-1.6,1.7,1.9,5,3,6c3.8,3.5,8.7,5.7,13.6,7.1c12.4,3.5,26.7,2.1,37.1-5.9
					c1.2-0.9,6.6-5.1,3.3-6.7C148.2,224,148.5,225.6,149.1,226L149.1,226z"/>
			</g>
		</g>
		<g>
			<g>
				<path class="st54" d="M149.3,228.4c-0.4-0.2-0.1-0.4-0.3,0.1s-0.5,0.9-0.9,1.3c-1,1.2-2.3,2.2-3.6,3.1c-4.2,2.9-9.1,4.9-14,6.1
					c-10.9,2.5-24,0.7-33.1-5.8c-1.4-1-2.7-2.1-3.8-3.4c-0.3-0.4-1.1-1.6-0.8-1.9c0.6-0.6-0.8-1.6-1.3-1.1c-1.5,1.7,2,4.7,3,5.7
					c3.9,3.4,8.9,5.7,13.8,7.1c12.5,3.6,26.5,2.1,37.3-5.4c1.1-0.8,7.2-5,4.2-6.6C149,226.9,148.4,227.9,149.3,228.4L149.3,228.4z"
					/>
			</g>
		</g>
		<g>
			<g>
				<path class="st55" d="M150.2,231.1c-0.2-0.1-0.2-0.6-0.4-0.4c-0.1,0.1-0.1,0.4-0.2,0.5c-0.2,0.5-0.6,0.9-1,1.3
					c-1.2,1.2-2.6,2.2-4,3.2c-4.4,2.9-9.4,4.9-14.6,6c-11,2.4-23.7,0.5-33-5.9c-1.5-1-2.9-2.1-4-3.4c-0.3-0.3-1.1-1.3-0.7-1.8
					c0.4-0.4-0.8-1.6-1.1-1.3c-1.4,1.5,2.4,4.8,3.3,5.6c3.8,3.3,8.6,5.5,13.4,7c12.7,3.9,27,2.3,38.1-5.1c1.3-0.9,7.3-4.7,4.1-6.7
					C149.1,229.4,149.7,230.8,150.2,231.1L150.2,231.1z"/>
			</g>
		</g>
		<g>
			<g>
				<path class="st56" d="M150.3,233.9c-0.4-0.3-0.1-0.5-0.4,0c-0.3,0.5-0.7,0.9-1.1,1.3c-1.3,1.2-2.8,2.3-4.3,3.2
					c-4.5,2.8-9.6,4.7-14.8,5.7c-11.1,2.3-23.6,0.2-32.9-6.1c-1.5-1-3-2.1-4.1-3.5c-0.3-0.3-0.7-0.8-0.8-1.1
					c-0.1-0.2-0.1-0.3-0.1-0.4c0,0-0.1,0.1,0,0.1c0.6-0.7-0.6-1.9-1.2-1.1c-1.6,1.7,2.3,4.9,3.4,5.7c4,3.3,8.9,5.5,13.8,7
					c12.8,3.8,26.9,2,38.2-5.1c1.3-0.8,7.9-4.9,4.9-6.9C150,231.9,149.6,233.4,150.3,233.9L150.3,233.9z"/>
			</g>
		</g>
		<g>
			<g>
				<path class="st57" d="M150.4,236.3c1.5,1.2-4.4,4.8-5.1,5.1c-5.1,3-10.9,5-16.8,5.9c-11,1.7-23.2-0.7-32.4-7.1
					c-1.4-1-2.8-2.1-3.9-3.4c-0.3-0.3-1.4-1.6-0.9-2.1c0.2-0.3-0.3,0-0.4,0c-0.3,0.1-0.8,0.4-1,0.6c-1.2,1.4,3,4.4,3.8,5
					c4.2,3.1,9.1,5.3,14.2,6.7c12.7,3.5,26.2,1.3,37.5-5.3c0.7-0.4,8.1-4.9,6.4-6.2C151.6,235.2,150.4,236.3,150.4,236.3
					L150.4,236.3z"/>
			</g>
		</g>
		<g>
			<g>
				<path class="st58" d="M150.8,238.5c1.3,1.1-4.6,4.7-5.1,5c-4.9,2.9-10.5,5-16.1,6.1c-11.4,2.3-24-0.2-33.6-6.7
					c-0.6-0.4-6-4.1-4.9-5.3c0.1-0.1-1.4-0.4-1.6-0.1c-1.1,1.3,3.4,4.4,4.1,4.9c4.2,3.1,9.2,5.2,14.2,6.6
					c12.7,3.5,26.2,1.7,37.8-4.4c0.8-0.4,8.8-4.8,7-6.3C152.1,238.1,150.7,238.5,150.8,238.5L150.8,238.5z"/>
			</g>
		</g>
		<g>
			<g>
				<path class="st59" d="M151.3,241.2c1.4,1.3-4.6,4.6-5.3,5c-5.1,2.9-10.8,4.9-16.5,6.1c-11.5,2.2-24.1-0.4-33.7-6.8
					c-1.5-1-3-2.1-4.2-3.4c-0.3-0.3-1.5-1.5-1-2c-0.1,0.1-1.4-0.2-1.6,0.1c-1,1.2,3.6,4.3,4.3,4.8c4.4,3.1,9.4,5.2,14.5,6.6
					c12.6,3.4,25.8,1.4,37.4-4.3c0.7-0.4,9.5-4.9,7.9-6.4C152.6,240.7,151.4,241.4,151.3,241.2L151.3,241.2z"/>
			</g>
		</g>
		<g>
			<g>
				<path class="st60" d="M151.8,244c1.3,1.4-4.9,4.6-5.6,5c-5.2,2.8-10.9,4.8-16.7,5.8c-11.6,2.1-23.9-0.5-33.8-6.7
					c-0.5-0.3-6.8-4.3-5.8-5.4c-0.1,0.1-1.3,0-1.6,0.3c-1,1.2,4,4.4,4.6,4.8c4.7,3.1,10,5.3,15.4,6.7c12.6,3.2,25.8,0.8,37.4-4.8
					c0.8-0.4,9.2-4.5,7.6-6.1C153.1,243.3,151.8,244.1,151.8,244L151.8,244z"/>
			</g>
		</g>
		<g>
			<g>
				<path class="st5" d="M152.6,247c-0.3-0.3-0.1-0.3-0.4,0.2c-0.4,0.5-0.9,0.9-1.4,1.2c-1.5,1.1-3.2,2-4.9,2.8
					c-5,2.5-10.4,4.3-15.9,5.4c-11.7,2.3-23.8,0.2-34-5.7c-1.8-1-3.5-2.1-5-3.4c-0.5-0.4-1-0.8-1.4-1.3c-0.1-0.1-0.2-0.4-0.3-0.5
					c0,0,0.1,0.1-0.1,0.3c0.6-0.7-0.6-1.9-1.2-1.2c-1.5,1.8,3.5,4.9,4.5,5.5c4.7,3.2,10.1,5.5,15.5,7c6.8,1.8,13.8,2.3,20.8,1.1
					c6.2-1,12.4-3,18.1-5.8c1.4-0.7,9-4.1,6.7-6.7C152.9,245.2,151.9,246.2,152.6,247L152.6,247z"/>
			</g>
		</g>
	</g>
	<g>
		<path class="st39" d="M130.1,342.7c-6.9,1.4-16,1.6-25.6-0.8c-9.7-2.4-101.7-50.4-101.7-50.4v8.6c0,0,89.8,47.6,100.6,51
			c6,1.9,10.2,2.5,14.8,2.7c3.7,0.1,7.9-0.2,13.5-1.2c12.5-2.2,20-6.5,20-6.5l87.1-45l0.2-9.8c0,0-78.8,40.5-97.6,48
			C137.3,340.8,137,341.4,130.1,342.7z"/>
		<g>
			<path class="st39" d="M120.2,343.9c-5.1,0-10.3-0.6-15.4-1.9c-9.7-2.4-100.2-49.4-102.4-50.5l1.5-0.8c0.5,0.3,91.9,47.6,101.4,50
				c11.3,2.8,20.8,1.8,25.2,0.9c5.3-1,11.7-3.8,15.3-5.5s91.9-46,92.2-46.1l1.3,0.7c-0.3,0.2-94.4,47.6-96.5,48.4
				c-2.1,0.9-6.2,2.7-11.8,3.8C127.7,343.6,124,343.9,120.2,343.9z"/>
		</g>
	</g>
	<path class="st40" d="M133.9,327.3v4.7c0.4,0.5,0.6,1.1,0.6,1.7c0,3-5.9,4.7-13.2,4.7c-7.3,0-13.9-1.6-13.9-4.7
		c0-0.4,0.1-0.8,0.4-1.2v-4.9c-3.1,1.6-5,3.8-5,6.1c0,5.5,8.2,8.9,18.4,8.9c10.1,0,18.4-4,18.4-8.9
		C139.5,331.2,137.4,328.9,133.9,327.3z"/>
	<path class="st1" d="M72.5,240.6c0.4,1.1,0.9,1.1,1.3,2.1s0.8,1.6,1.2,2.8"/>
</g>
</svg>
