<?xml version="1.0" encoding="utf-8"?>
<!-- Generator: Adobe Illustrator 25.2.3, SVG Export Plug-In . SVG Version: 6.00 Build 0)  -->
<svg version="1.1" id="Layer_1" xmlns="http://www.w3.org/2000/svg" xmlns:xlink="http://www.w3.org/1999/xlink" x="0px" y="0px"
	 viewBox="0 0 140 220" style="enable-background:new 0 0 140 220;" xml:space="preserve">
<style type="text/css">
	.st0{fill:#E4DAD8;stroke:#FFFFFF;stroke-width:0.5458;stroke-miterlimit:10;}
	.st1{fill:#EF7C4F;}
	.st2{fill:#EE784C;}
	.st3{fill:#EC734A;}
	.st4{fill:#EA6F47;}
	.st5{fill:#E86A45;}
	.st6{fill:#E66642;}
	.st7{fill:#E56240;}
	.st8{fill:#E35D3D;}
	.st9{fill:#E1593B;}
	.st10{fill:#DF5438;}
	.st11{fill:#DD5036;}
	.st12{fill:#DC4B33;}
	.st13{fill:#DA4731;}
	.st14{fill:#D8422E;}
	.st15{fill:#DD335A;}
	.st16{fill:#DE3859;}
	.st17{fill:#E03E58;}
	.st18{fill:#E14457;}
	.st19{fill:#E34957;}
	.st20{fill:#E44F56;}
	.st21{fill:#E55555;}
	.st22{fill:#E75A54;}
	.st23{fill:#E86053;}
	.st24{fill:#EA6652;}
	.st25{fill:#EB6B51;}
	.st26{fill:#EC7150;}
	.st27{fill:#EE7750;}
	.st28{fill:#CEBDBA;stroke:#FFFFFF;stroke-width:0.5458;stroke-linejoin:bevel;stroke-miterlimit:10;}
	.st29{fill:none;stroke:#FFFFFF;stroke-width:0.5458;stroke-miterlimit:10;}
	.st30{fill:#CEBDBA;stroke:#FFFFFF;stroke-width:0.5458;stroke-miterlimit:10;}
	.st31{fill:#DF3D58;}
	.st32{fill:#E14258;}
	.st33{fill:#E24857;}
	.st34{fill:#E34D56;}
	.st35{fill:#E55255;}
	.st36{fill:#E65754;}
	.st37{fill:#E75D54;}
	.st38{fill:#E96253;}
	.st39{fill:#EA6752;}
	.st40{fill:#EB6C51;}
	.st41{fill:#ED7250;}
	.st42{fill:#EE774F;}
	.st43{fill:none;stroke:#FFFFFF;stroke-width:0.4551;stroke-miterlimit:10;}
	.st44{fill:none;stroke:#FFFFFF;stroke-width:0.3207;stroke-miterlimit:10;}
	.st45{fill:none;stroke:#FFFFFF;stroke-width:0.3242;stroke-miterlimit:10;}
	.st46{fill:#543C52;stroke:#FFFFFF;stroke-width:0.2729;stroke-miterlimit:10;}
	.st47{fill:#543C52;stroke:#FFFFFF;stroke-width:0.5458;stroke-miterlimit:10;}
	.st48{fill:#E4DAD8;stroke:#FFFFFF;stroke-width:0.5221;stroke-miterlimit:10;}
</style>
<g>
	<g>
		<path class="st0" d="M75.3,127.8L107,128c0,0-2.4,21.3-3.8,32.4c-0.2,5.9-1.2,12.1-3.7,17.6c-4.5,9.9-11.7,17.7-11.7,17.7
			l0.7,15.8c0,0-1.6,6.2-12.8,6.4h-0.3c-11.2-0.2-12.8-6.4-12.8-6.4l0.7-15.8c0,0-7.2-7.7-11.7-17.7c-2.5-5.6-3.4-11.8-3.7-17.6
			C46.4,149.3,44,128,44,128l31.8-0.2C75.8,127.8,75.3,127.8,75.3,127.8z"/>
		<path class="st0" d="M63.4,195.6c0,0,4,5.1,12.6,5.1s12.1-5,12.1-5"/>
		<g>
			<g>
				<g>
					<path class="st1" d="M106.1,130.4c2.2,2.8-14.8,7.7-16.3,8.1c-10.6,2.6-21.4,2.8-31.9,0c-2.4-0.7-4.8-1.4-7.1-2.4
						c-0.9-0.3-1.7-0.8-2.5-1.2c-0.4-0.2-2.9-1.7-2.1-2.1c1-0.3,0.1-0.7-0.5-0.4c-2.4,0.9-0.3,2.2,1.1,2.9c1.7,1,3.7,1.9,5.7,2.5
						c6,2.1,12.3,3.3,18.7,3.5c5.7,0.2,11.5-0.5,17-1.7c4.9-1.1,9.7-2.5,14.3-4.7c1.1-0.5,6.8-2.9,5.1-5
						C107.2,129.5,105.8,130,106.1,130.4L106.1,130.4z"/>
				</g>
			</g>
			<g>
				<g>
					<path class="st2" d="M105.7,133.8c1.7,2.8-14.8,7.4-16.3,7.7c-10.4,2.5-20.8,2.7-31.2,0c-2.4-0.7-4.8-1.4-7.1-2.4
						c-0.9-0.3-1.7-0.8-2.6-1.2c-0.4-0.2-2.8-1.7-2.2-2c1-0.3,0.1-0.9-0.5-0.7c-2.4,0.9-0.2,2.3,1.1,3.1c1.7,1,3.6,1.9,5.5,2.5
						c5.8,2.1,11.8,3.3,17.9,3.6c5.7,0.3,11.4-0.3,16.9-1.5c4.9-1.1,9.8-2.5,14.4-4.6c1.2-0.5,6.8-2.8,5.3-5
						C106.8,132.7,105.4,133.2,105.7,133.8L105.7,133.8z"/>
				</g>
			</g>
			<g>
				<g>
					<path class="st3" d="M105.3,137c0.8,1.6-3.6,3.4-4.5,3.7c-3.8,1.7-7.9,2.9-11.9,3.9c-10.2,2.4-20.5,2.5-30.6-0.2
						c-2.4-0.7-4.7-1.4-7-2.4c-0.9-0.3-1.6-0.8-2.4-1.2c-0.4-0.2-2.8-1.7-2.3-2c1-0.4,0.1-0.9-0.5-0.5c-2.2,0.9-0.1,2.3,1.1,2.9
						c1.7,1,3.5,1.9,5.3,2.5c5.6,2.1,11.6,3.3,17.5,3.6c5.6,0.3,11.1-0.2,16.6-1.4c4.8-1,9.7-2.4,14.2-4.4c1.2-0.5,7-2.8,5.9-5
						C106.5,136.1,105.1,136.5,105.3,137L105.3,137z"/>
				</g>
			</g>
			<g>
				<g>
					<path class="st4" d="M104.8,140.2c0.5,1.4-3.8,3.2-4.7,3.5c-3.8,1.6-7.7,2.8-11.8,3.8c-9.9,2.3-20.1,2.4-30-0.4
						c-2.3-0.7-4.6-1.4-6.7-2.4c-0.9-0.3-1.6-0.8-2.5-1.2c-0.3-0.2-2.4-1.6-2.2-1.7c0.9-0.4,0.1-1.2-0.7-0.9c-2.1,1,0,2.5,1.1,3.2
						c1.6,1,3.4,1.7,5.1,2.5c5.5,2.2,11.4,3.4,17.1,3.8c10.3,0.8,21.1-1.4,30.6-5.5c1.4-0.7,6.9-2.6,6-5
						C106,139.1,104.6,139.6,104.8,140.2L104.8,140.2z"/>
				</g>
			</g>
			<g>
				<g>
					<path class="st5" d="M104.4,143.6c0.3,1.7-4,3.3-5,3.7c-3.8,1.6-7.9,2.7-11.8,3.6c-9.9,2.2-20.1,2-29.8-1c-2.1-0.7-4-1.4-6-2.3
						c-0.5-0.2-5.1-2.8-4.3-3.2c0.9-0.4-0.4-0.5-0.9-0.3c-2,1,0.7,2.4,1.5,2.9c1.5,1,3.3,1.6,5,2.3c5.3,2.1,11,3.3,16.7,3.7
						c10,0.8,20.6-1.3,29.9-5.2c1.6-0.7,3.4-1.4,4.8-2.5c0.7-0.4,1.6-1.3,1.4-2.2C105.8,142.7,104.3,143.2,104.4,143.6L104.4,143.6z
						"/>
				</g>
			</g>
			<g>
				<g>
					<path class="st6" d="M104,146.9c0,0.7-1,1.2-1.4,1.5c-1.2,0.8-2.5,1.4-3.8,2c-3.7,1.5-7.6,2.6-11.6,3.5
						c-9.6,2.1-19.2,2-28.6-0.9c-2.2-0.7-4.3-1.4-6.3-2.3c-0.8-0.3-1.6-0.8-2.4-1.2c-0.3-0.2-2.4-1.7-2.4-1.7
						c0.9-0.4,0.1-1.3-0.7-0.9c-3.2,1.7,5,5.1,6.3,5.6c5.2,2.1,10.8,3.4,16.5,3.8c9.8,0.9,20.2-1.2,29.3-4.8c1.7-0.7,3.5-1.4,5-2.5
						c0.8-0.5,1.7-1.3,1.6-2.4C105.4,145.8,104,146.2,104,146.9L104,146.9z"/>
				</g>
			</g>
			<g>
				<g>
					<path class="st7" d="M103.5,150.1c0,0.7-1,1.2-1.5,1.5c-1.2,0.8-2.5,1.3-3.7,1.9c-3.7,1.5-7.6,2.6-11.5,3.4
						c-9.4,2-18.9,1.9-28.2-1c-2.1-0.7-4.1-1.4-6.2-2.3c-0.4-0.2-4.8-2.7-4.5-2.9c0.9-0.5-0.3-1.1-1-0.8c-2.6,1.6,5.5,5.1,6.5,5.6
						c5,2.1,10.5,3.3,15.8,3.8c9.7,1,19.8-1,28.8-4.5c1.7-0.7,3.5-1.4,5-2.4c0.8-0.5,1.9-1.3,2-2.3
						C105.1,149.2,103.6,149.4,103.5,150.1L103.5,150.1z"/>
				</g>
			</g>
			<g>
				<g>
					<path class="st8" d="M103.1,153.4c-0.1,0.8-1.2,1.3-1.7,1.6c-1.2,0.8-2.5,1.3-3.8,1.7c-3.7,1.4-7.6,2.5-11.5,3.3
						c-9.3,1.9-18.7,1.5-27.7-1.4c-2.1-0.7-4-1.4-5.9-2.4c-0.4-0.2-4.5-2.6-4.3-2.8c0.8-0.5-0.4-1.1-1-0.7c-2.4,1.7,5.2,4.9,6.4,5.5
						c4.9,2.1,10.2,3.3,15.4,3.8c9.5,1,19.4-0.8,28.4-4.1c1.7-0.7,3.6-1.4,5.2-2.4c0.9-0.5,1.9-1.2,2.1-2.3
						C104.7,152.6,103.3,152.8,103.1,153.4L103.1,153.4z"/>
				</g>
			</g>
			<g>
				<g>
					<path class="st9" d="M102.8,156.7c-0.2,0.8-1.2,1.3-1.9,1.7c-1.3,0.8-2.6,1.3-4,1.9c-3.7,1.4-7.6,2.4-11.7,3.2
						c-9.2,1.7-18.3,1.1-27.2-1.9c-2-0.7-3.8-1.4-5.7-2.4c-0.7-0.3-4.6-2.5-3.8-3.2c0.3-0.3-1.1-0.1-1.3,0.1
						c-1.6,1.4,6.2,4.8,7.2,5.1c4.8,2,9.8,3.1,15,3.6c9.2,1,18.8-0.9,27.4-4c1.7-0.7,3.5-1.3,5-2.3c0.9-0.4,2-1.1,2.3-2.2
						C104.3,156.2,102.9,156.4,102.8,156.7L102.8,156.7z"/>
				</g>
			</g>
			<g>
				<g>
					<path class="st10" d="M102.3,159.9c-0.3,0.8-1.3,1.2-2,1.5c-1.3,0.7-2.6,1.3-4,1.7c-3.7,1.3-7.4,2.3-11.2,3.1
						c-8.8,1.6-17.8,1.2-26.4-1.7c-2-0.7-3.8-1.4-5.6-2.3c-0.4-0.2-4.6-2.6-4.3-2.9c0.7-0.7-0.8-1-1.2-0.4c-1.7,1.7,5.5,4.9,6.5,5.3
						c4.6,2,9.5,3.2,14.4,3.8c9.2,1.2,18.8-0.4,27.5-3.5c1.7-0.7,3.6-1.3,5.2-2.2c1-0.5,2.1-1.2,2.5-2.2
						C104.1,159.2,102.7,159.2,102.3,159.9L102.3,159.9z"/>
				</g>
			</g>
			<g>
				<g>
					<path class="st11" d="M101.9,163.1c-0.4,0.8-1.5,1.2-2.2,1.6c-1.3,0.7-2.7,1.2-4.1,1.7c-3.6,1.2-7.3,2.2-11,2.8
						c-8.6,1.5-17.5,1-25.8-2c-1.9-0.7-3.7-1.4-5.6-2.3c-0.5-0.2-4.5-2.5-4.1-2.9c0.5-0.8-0.9-1-1.2-0.4c-1.4,2,5.3,4.8,6.7,5.3
						c4.5,2,9.3,3.2,14.1,3.8c9.1,1.2,18.3-0.3,26.9-3.2c1.7-0.5,3.5-1.2,5.1-2.1c1-0.5,2.2-1.2,2.7-2.2
						C103.7,162.6,102.2,162.6,101.9,163.1L101.9,163.1z"/>
				</g>
			</g>
			<g>
				<g>
					<path class="st12" d="M101.6,166.4c-1.3,1.9-4.5,2.6-6.4,3.3c-3.7,1.2-7.4,2.2-11.2,2.7c-8.4,1.4-16.9,0.7-25-2.2
						c-1.9-0.7-3.7-1.4-5.3-2.3c-0.7-0.3-4.5-2.3-4-3.1c0.3-0.8-1.1-0.7-1.4-0.1c-1,2,5.6,4.6,6.8,5.2c4.3,1.9,8.8,3.1,13.4,3.8
						c8.8,1.3,17.8-0.1,26.2-2.8c1.9-0.5,3.7-1.2,5.5-2.1c1.1-0.5,2.3-1.1,2.9-2.1C103.3,166,102,165.9,101.6,166.4L101.6,166.4z"/>
				</g>
			</g>
			<g>
				<g>
					<path class="st13" d="M101.1,169.7c-1.6,1.7-4.6,2.6-6.8,3.3c-3.6,1.2-7.3,2-11,2.6c-8.3,1.3-16.7,0.4-24.6-2.4
						c-1.9-0.7-3.6-1.4-5.3-2.4c-0.8-0.4-4.1-2.1-3.8-3.1c0.2-0.5-1.3-0.4-1.5,0.1c-0.3,1.2,2.1,2.4,2.8,2.9
						c1.4,0.9,2.8,1.5,4.3,2.2c4.1,1.9,8.5,2.9,13,3.6c8.5,1.3,17.2,0,25.4-2.5c2.7-0.9,6.5-1.7,8.6-4
						C103,169.4,101.6,169.3,101.1,169.7L101.1,169.7z"/>
				</g>
			</g>
			<g>
				<g>
					<path class="st14" d="M100.7,173c-0.9,0.9-2.1,1.3-3.2,1.9c-1.6,0.8-3.5,1.3-5.2,1.7c-3.9,1.1-8.1,2-12.1,2.4
						c-8.5,0.9-17.7-0.8-25.3-4.7c-1.3-0.7-2.5-1.3-3.7-2.2c-0.3-0.2-1.4-1-1.3-1.4c0.2-0.7-1.3-0.4-1.5,0.1
						c-0.3,1.4,3.1,3.1,3.9,3.5c3.6,2.1,7.5,3.5,11.6,4.4c4.8,1.2,9.7,1.7,14.6,1.3c4.5-0.3,9-1.2,13.2-2.4
						c3.3-0.9,7.6-1.9,10.2-4.4C102.7,172.8,101.1,172.5,100.7,173L100.7,173z"/>
				</g>
			</g>
		</g>
		<g>
			<g>
				<g>
					<path class="st15" d="M107,132.8c1,1.3-3.5,3.7-4.3,4.1c-3.8,2.2-8.1,3.7-12.3,4.9c-4.9,1.4-10,2.3-15.2,2.3
						c-5.9,0-11.8-1.4-17.4-3.5c-2.5-0.9-4.9-1.9-7.2-3.1c-0.9-0.4-1.7-0.9-2.5-1.3c-0.3-0.2-0.7-0.3-0.9-0.5
						c-0.3-0.2-0.7-0.4-0.9-0.7c-0.4-0.3-0.5-0.2-0.1-0.3c1-0.3,0.1-1.4-0.8-1.2c-2.6,0.9-0.2,2.6,1.1,3.4c1.9,1.1,3.7,2.1,5.7,2.9
						c5.8,2.6,11.9,4.5,18.2,5.2c6.1,0.8,12.2,0,18.1-1.4c5-1.2,10.2-2.9,14.7-5.5c1.4-0.8,7-3.6,5.1-6
						C108,131.5,106.5,132,107,132.8L107,132.8z"/>
				</g>
			</g>
			<g>
				<g>
					<path class="st16" d="M107.1,135.8C106.9,135.4,107.1,135.6,107.1,135.8c-0.2,0.2-0.2,0.4-0.3,0.5c-0.2,0.4-0.7,0.9-1.1,1.2
						c-1.1,1-2.5,1.7-3.8,2.5c-3.9,2.1-8.1,3.6-12.3,4.7c-5,1.3-10.3,2.2-15.5,2.1c-5.7-0.2-11.4-1.5-16.7-3.5
						c-2.5-0.9-4.9-2-7.3-3.2c-0.8-0.4-1.6-0.9-2.4-1.3c-0.3-0.2-0.8-0.4-1.1-0.7c-0.1,0-0.1-0.1-0.2-0.1c-0.4-0.5-0.7-0.5-0.4-0.2
						c-0.2,0.2,0.7-0.1,0.8-0.2c0.2-0.1-0.4-1.5-0.9-1.4c-2.1,0.8,0.7,2.8,1.5,3.4c1.6,1.1,3.4,1.9,5,2.7c5.6,2.6,11.5,4.6,17.6,5.5
						s12.2,0.3,18.2-1.1c5-1.2,10.2-2.8,14.7-5.3c1.7-1,6.4-3.3,4.6-5.9C107,134.7,106.6,134.9,107.1,135.8L107.1,135.8z"/>
				</g>
			</g>
			<g>
				<g>
					<path class="st17" d="M106,138.8c1,1.7-2.9,3.8-3.9,4.4c-3.7,2.2-8,3.7-12.1,4.8c-5.3,1.5-10.9,2.3-16.5,2
						c-5.7-0.3-11.2-1.9-16.5-3.9c-2.2-0.9-4.4-1.9-6.5-2.9c-0.7-0.3-1.4-0.8-2.1-1.2c-0.4-0.3-2.7-1.6-1.5-2.1
						c0.7-0.2-0.9-0.2-1.2-0.1c-2.1,0.8,0.7,2.3,1.6,2.8c1.7,1.1,3.6,2,5.6,2.8c5.5,2.4,11.4,4.1,17.2,4.8c10.6,1.2,22-1.4,31.4-6.1
						c1.2-0.7,7.2-3.4,6-5.6C107.5,138.2,106,138.7,106,138.8L106,138.8z"/>
				</g>
			</g>
			<g>
				<g>
					<path class="st18" d="M105.6,142c0.8,1.5-3.5,3.7-4.5,4.3c-3.8,2.1-8.1,3.6-12.3,4.7c-5.1,1.3-10.4,2.1-15.6,1.7
						c-5.3-0.3-10.6-1.6-15.6-3.5c-2.2-0.9-4.3-1.7-6.3-2.8c-0.8-0.4-1.5-0.8-2.3-1.2c-0.3-0.2-2.5-1.6-2-1.9c1-0.4-0.2-1.1-0.9-0.8
						c-2.1,0.9,0.1,2.3,1.1,2.9c1.6,1.1,3.4,2,5.1,2.7c5.1,2.4,10.5,4.1,16,5c10.9,1.7,23-0.7,32.9-5.8c1.4-0.8,6.9-3.3,5.8-5.7
						C106.9,141,105.3,141.3,105.6,142L105.6,142z"/>
				</g>
			</g>
			<g>
				<g>
					<path class="st19" d="M105.2,144.7c0.7,1.7-3.3,3.7-4.3,4.3c-3.7,2.1-7.9,3.6-12,4.7c-5,1.3-10.4,2.1-15.6,1.9
						c-5.3-0.2-10.6-1.5-15.5-3.4c-2.2-0.9-4.4-1.7-6.4-2.8c-0.8-0.4-1.4-0.8-2.2-1.2c-0.5-0.3-2.7-1.6-1.7-2.1
						c0.5-0.2-0.9-0.9-1.3-0.7c-1.7,0.9,1.1,2.4,1.9,2.9c1.5,1,3.2,1.7,4.8,2.5c4.9,2.3,10.2,3.9,15.5,4.9
						c10.8,1.9,22.7-0.3,32.5-5.2c1.6-0.9,3.4-1.7,4.7-2.9c0.7-0.5,1.6-1.5,1.3-2.5C106.6,144.5,105.1,144.4,105.2,144.7
						L105.2,144.7z"/>
				</g>
			</g>
			<g>
				<g>
					<path class="st20" d="M104.7,148.1c0.2,0.7-0.8,1.4-1.2,1.7c-1.1,1-2.3,1.6-3.6,2.4c-3.8,2.1-8.1,3.5-12.3,4.5
						c-5.1,1.2-10.4,1.7-15.6,1.3c-4.9-0.4-9.8-1.6-14.4-3.5c-2.1-0.8-4-1.6-5.9-2.7c-0.8-0.4-1.4-0.8-2.2-1.2
						c-0.2-0.2-0.5-0.3-0.8-0.5c-0.3-0.2-0.7-0.4-0.9-0.7c-0.2-0.2-0.4-0.2-0.2-0.3c0.9-0.4-0.3-1.4-1.1-1c-2.8,1.5,5.1,5.3,6.2,5.9
						c4.7,2.3,9.8,3.9,15,4.8c10.8,1.9,22.7-0.2,32.5-5.1c1.7-0.9,3.4-1.9,4.8-3.2c0.8-0.7,1.6-1.6,1.3-2.7
						C106.1,147,104.5,147.2,104.7,148.1L104.7,148.1z"/>
				</g>
			</g>
			<g>
				<g>
					<path class="st21" d="M104.5,150.6c0.2,1.7-3.4,3.5-4.5,4.1c-3.7,2.1-7.7,3.5-11.8,4.5c-10,2.5-20.3,2.1-30.1-1.4
						c-2.2-0.8-4.3-1.6-6.2-2.7c-0.8-0.4-1.5-0.9-2.3-1.3c-0.4-0.2-2.3-1.3-1.7-1.6c0.3-0.2-0.7-1.5-1.1-1.3
						c-2.2,1.3,5.1,5.2,6.1,5.7c4.6,2.3,9.5,3.9,14.5,4.9c10.6,2,22.2,0.2,31.9-4.5c1.7-0.9,3.5-1.7,4.9-3.1
						c0.7-0.5,1.6-1.5,1.5-2.5C105.6,151,104.4,150.1,104.5,150.6L104.5,150.6z"/>
				</g>
			</g>
			<g>
				<g>
					<path class="st22" d="M104,153.7c0.1,1.7-3.2,3.4-4.4,4.1c-3.6,2.1-7.5,3.4-11.5,4.5c-10,2.5-20.3,2.2-30-1.4
						c-2.1-0.8-4.1-1.6-6.1-2.7c-0.8-0.4-1.5-0.8-2.2-1.3c-0.5-0.3-2.5-1.3-1.6-1.9c0.1-0.1-1-1.2-1.3-1c-1.6,1.1,5.6,4.9,6.4,5.3
						c4.4,2.2,9.1,3.8,13.9,4.8c10.5,2.1,21.9,0.4,31.7-4.3c1.6-0.8,3.4-1.7,4.8-2.9c0.7-0.5,1.7-1.4,1.6-2.4
						C105.3,154.1,104,153.4,104,153.7L104,153.7z"/>
				</g>
			</g>
			<g>
				<g>
					<path class="st23" d="M103.4,157.1c-0.1,1.9-3.2,3.4-4.5,4.1c-3.5,2-7.3,3.3-11.2,4.3c-10.2,2.5-20.5,1.7-30.1-2.2
						c-1.9-0.8-3.7-1.6-5.5-2.7c-0.7-0.4-4.4-2.4-3.4-3.2c0.1-0.1-1.2-0.5-1.5-0.2c-1.4,1.2,6.3,5,7.2,5.5c4.5,2.1,9.4,3.6,14.3,4.4
						c10.2,1.5,21.2-0.1,30.3-4.6c1.5-0.8,3.2-1.6,4.5-2.7c0.7-0.5,1.6-1.4,1.7-2.4C105.1,156.9,103.4,156.8,103.4,157.1
						L103.4,157.1z"/>
				</g>
			</g>
			<g>
				<g>
					<path class="st24" d="M103,160.3c-0.3,1.6-3.2,3.1-4.5,3.7c-3.4,1.9-7.1,3.1-10.8,3.9c-9.7,2.3-19.8,1.7-29-1.9
						c-2-0.8-3.8-1.6-5.7-2.6c-0.4-0.2-4.6-2.7-4.3-3.1c0.7-0.8-0.8-1.1-1.3-0.5c-1.7,1.9,5.5,5.1,6.7,5.7c4.5,2.2,9.4,3.7,14.4,4.5
						c9.9,1.5,21.1-0.1,30.1-4.8c2-1,5.6-2.7,6.1-5.1C104.7,159.4,103.1,159.5,103,160.3L103,160.3z"/>
				</g>
			</g>
			<g>
				<g>
					<path class="st25" d="M102.5,163.1c-0.5,1.7-2.9,2.9-4.4,3.8c-3.2,1.9-6.7,3.1-10.2,3.9c-9.7,2.5-20,2.2-29.4-1.5
						c-0.8-0.3-10.6-4.7-9.7-5.9c0.3-0.4-1.2-1-1.5-0.5c-1.2,1.6,6,5,7.1,5.6c4.4,2.1,9,3.5,13.6,4.3c9.8,1.6,20.7,0.2,29.7-4.3
						c1.5-0.8,3.1-1.5,4.4-2.6c0.8-0.5,1.6-1.3,1.9-2.3C104.2,163.1,102.7,162.7,102.5,163.1L102.5,163.1z"/>
				</g>
			</g>
			<g>
				<g>
					<path class="st26" d="M102.2,166.1c-0.8,1.7-2.9,2.9-4.5,3.7c-3.1,1.7-6.4,2.9-9.9,3.7c-9.5,2.4-19.6,2.1-28.9-1.4
						c-2-0.8-3.9-1.6-5.7-2.6c-0.4-0.2-4.4-2.4-4-2.9c0.3-0.5-1-1.5-1.2-1.1c-0.7,1.2,1.6,2.7,2.4,3.3c1.3,1,2.7,1.7,4.3,2.5
						c4.3,2.2,8.8,3.6,13.5,4.5c9.7,1.6,20.5,0.3,29.4-4c2.1-1,5.2-2.5,6.2-4.8C103.7,166.4,102.4,165.4,102.2,166.1L102.2,166.1z"
						/>
				</g>
			</g>
			<g>
				<g>
					<path class="st27" d="M101.7,169.2c-0.9,1.5-2.7,2.6-4.1,3.5c-2.9,1.7-6.3,2.9-9.7,3.8c-9.3,2.4-19.3,2.2-28.4-1
						c-2.1-0.8-4-1.6-5.9-2.6c-0.9-0.4-4.5-2.3-4.1-3.4c0.1-0.3-1.3-1-1.4-0.9c-0.3,1,2.1,2.4,2.7,2.8c1.3,0.9,2.7,1.7,4.1,2.5
						c4,2.1,8.3,3.5,12.8,4.4c9.6,1.7,20.4,0.7,29.3-3.6c2.2-1,5-2.4,6.2-4.7C103.2,169.7,101.8,168.9,101.7,169.2L101.7,169.2z"/>
				</g>
			</g>
			<g>
				<g>
					<path class="st1" d="M101.3,172.1c-1.2,1.7-3.3,2.9-5.1,3.9c-3.5,1.9-7.2,3.1-11.1,3.7c-9.9,2-20.4,1.1-29.6-3.4
						c-1.6-0.8-3.2-1.6-4.6-2.7c-0.4-0.3-0.9-0.7-1.3-1.1c-0.2-0.2-0.2-0.3-0.2-0.2c0.1-0.5-1.1-1.5-1.3-1c-0.3,1.5,2.9,3.5,3.9,4
						c3.6,2.3,7.7,3.9,11.9,5c10,2.6,21.7,2,31.3-2.4c2.5-1.1,5.6-2.6,7.1-4.9C102.9,172.8,101.7,171.7,101.3,172.1L101.3,172.1z"/>
				</g>
			</g>
		</g>
		<g>
			<path class="st28" d="M76.9,112.5c-22.3,0-39.7,8.5-39.7,18.7s16.6,20,38.9,20s41.3-10.2,41.3-20.3S99.2,112.5,76.9,112.5z
				 M76.9,145.9c-19.3,0-34.9-7-34.9-15.5s15.6-15.5,34.9-15.5s34.9,7,34.9,15.5S96.1,145.9,76.9,145.9z"/>
			<path class="st29" d="M115.1,130.6c0,8.5-16.5,18.6-36.1,18.6s-39.6-7-39.6-15.5s13.5-21,33.3-21
				C104.2,112.7,115.1,122.1,115.1,130.6z"/>
			<path class="st0" d="M76.8,112.5c-21.8,0-39.7,7.6-39.7,17.2c0,9.6,17,19.6,38.9,19.6s40.4-9.7,40.4-19.4S98.6,112.5,76.8,112.5z
				 M76.8,144.3c-18.9,0-34.2-6.5-34.2-14.7s15.3-14.7,34.3-14.7s34.3,6.7,34.3,14.7C111.1,137.7,95.7,144.3,76.8,144.3z"/>
		</g>
		<g>
			<path class="st0" d="M105.1,134.1c0.4-0.1,0.5-3.5,0.5-3.5s0.7-10.2-1.4-24.7c-2.6-18.3-12-23.6-12-23.6l0.1-40.7l-33.1,0.4
				l0.4,40.1c0,0-9.1,7.9-10.5,19c-1.4,11.1-5.8,25.4-4.1,32.2c0,0,5.6,9.7,31.1,10.3C101.6,144.3,105.1,134.1,105.1,134.1z"/>
			<ellipse class="st0" cx="75.8" cy="42.4" rx="16.7" ry="8.4"/>
			<path class="st0" d="M92.2,82.2c0,3.4-6.8,8.4-15.9,8.4s-16.5-5-16.5-8.4"/>
			<ellipse class="st30" cx="75.9" cy="42.4" rx="9.6" ry="5"/>
			<ellipse class="st30" cx="75.9" cy="35.8" rx="9.6" ry="5"/>
			<path class="st28" d="M66.3,36v6.4c0,0,0.2,5.5,10.3,5.1s9-5.1,9-5.1v-6.7c0,0-1.2,4.6-9.5,4.7S66.3,36,66.3,36z"/>
		</g>
		<g>
			<g>
				<g>
					<path class="st1" d="M101.8,99.5c1,0.7-2.8,3.5-3.2,3.7c-3.5,2.5-7.5,4.1-11.6,5.2c-10.6,2.7-21.8,1.4-31.2-4
						c-1.6-0.9-3.2-2-4.5-3.3c-0.3-0.3-1.7-1.5-1.4-2.2c0.2-0.5-1.2-0.1-1.4,0.3c-0.4,0.8,0.4,1.6,0.9,2.2c1.1,1.2,2.4,2.2,3.8,3.1
						c4.5,2.9,9.7,4.8,15,5.8c10.5,2,22.5-0.5,31.2-6.7c0.5-0.4,5.2-3.7,3.7-4.8C102.8,98.4,101.5,99.3,101.8,99.5L101.8,99.5z"/>
				</g>
			</g>
			<g>
				<g>
					<path class="st1" d="M101.9,101.4c1.1,0.9-2.4,3.5-2.9,3.8c-3.2,2.4-6.9,4-10.7,5.2c-6.1,1.9-12.6,2.6-18.8,1.5
						c-5-0.9-9.9-2.6-14.3-5.1c-1.5-0.9-3.1-2-4.4-3.2c-0.4-0.4-1.6-1.5-1.3-2.3c0,0-1.4-0.3-1.6,0c-0.3,0.7,0.7,1.6,1.1,2.1
						c1.2,1.2,2.7,2.3,4.1,3.2c4.6,2.8,9.7,4.6,15.1,5.6c10.5,1.9,22.4-0.1,31.3-6c0.5-0.3,5.5-3.7,4-4.8
						C103.2,101,102,101.4,101.9,101.4L101.9,101.4z"/>
				</g>
			</g>
			<g>
				<g>
					<path class="st1" d="M102.3,103.4c1,0.9-2.5,3.5-2.9,3.8c-3.3,2.4-7.1,4.1-10.9,5.2c-11,3.4-23,2.4-33.2-3.2
						c-1.7-1-3.4-2-4.8-3.3c-0.4-0.4-1.7-1.5-1.4-2.3c0.1-0.2-1.4-0.8-1.6-0.4c-0.3,0.8,0.7,1.6,1.1,2.1c1.2,1.2,2.6,2.3,4.1,3.2
						c4.6,2.8,9.8,4.7,15.2,5.8c10.7,2.1,23,0.3,32.2-5.9c0.7-0.4,5.3-3.7,3.8-4.9C103.4,103.3,101.9,103.2,102.3,103.4L102.3,103.4
						z"/>
				</g>
			</g>
			<g>
				<g>
					<path class="st1" d="M102.7,106.1c0,0,0.1,0,0,0.2c-0.1,0.3-0.3,0.7-0.5,0.9c-0.8,1-1.7,1.7-2.7,2.5c-3.4,2.4-7.3,4-11.2,5.1
						c-11,3.1-22.7,2-32.9-3.4c-1.7-1-3.5-2-5-3.3c-0.4-0.3-2-1.6-1.6-2.1c0.3-0.8-1.2-1.2-1.5-0.4c-0.4,0.9,0.4,1.7,0.9,2.3
						c1.2,1.2,2.6,2.3,4,3.2c4.7,2.9,10.2,4.9,15.6,5.9c6.5,1.3,13.3,1,19.8-0.7c4.6-1.1,9.3-2.9,13.1-5.7c1-0.7,5.2-3.7,3.4-5.3
						C103.3,104.9,101.9,105.4,102.7,106.1L102.7,106.1z"/>
				</g>
			</g>
			<g>
				<g>
					<path class="st1" d="M103.6,108.1c-0.7-0.7-0.3-0.4-0.5,0.2c-0.1,0.3-0.3,0.7-0.7,1c-0.8,1-1.7,1.7-2.7,2.4
						c-3.3,2.4-7,3.9-10.8,5.1c-11.1,3.3-23,2.4-33.6-2.5c-2-1-3.9-2-5.8-3.4c-0.4-0.3-2.2-1.4-1.9-2.3c0.1-0.3-1.1-1.2-1.1-1.2
						c-0.3,0.8,0.8,1.7,1.1,2.3c1.1,1.2,2.5,2.2,3.8,3.2c4.7,3.1,10,5,15.5,6.2c6.8,1.4,13.6,1.2,20.3-0.4c4.7-1.1,9.5-2.9,13.4-5.8
						c1.1-0.9,2.4-1.9,3.1-3.1c0.5-1,0.2-1.5-0.5-2.3C102.7,106.8,103.2,107.8,103.6,108.1L103.6,108.1z"/>
				</g>
			</g>
			<g>
				<g>
					<path class="st1" d="M103.4,110.2c-0.1-0.1,0,0.2-0.1,0.3c-0.1,0.3-0.3,0.8-0.5,1c-0.8,1-1.7,1.7-2.6,2.5
						c-3.3,2.4-7.1,4-11,5.1c-11.4,3.3-23.5,2.4-34.2-2.7c-2-1-4-2.1-5.8-3.4c-0.3-0.3-2.1-1.4-1.7-2.1c0.2-0.4-1.1-1.4-1.3-1
						c-0.3,0.8,0.5,1.7,1.1,2.3c1.2,1.2,2.7,2.3,4.1,3.2c4.9,3.1,10.5,5,16,6.1c6.7,1.3,13.5,1.1,20.2-0.4c4.7-1.1,9.4-2.8,13.3-5.7
						c1.3-0.9,5.1-3.6,3.2-5.5C103.6,109.6,102.7,109.4,103.4,110.2L103.4,110.2z"/>
				</g>
			</g>
			<g>
				<g>
					<path class="st1" d="M103.7,112.4c-0.2-0.2-0.1,0.1-0.1,0.4c-0.1,0.4-0.3,0.8-0.5,1.1c-0.7,1-1.6,1.7-2.5,2.4
						c-3.3,2.5-7.3,4.1-11.2,5.2c-11.5,3.3-23.8,2.3-34.6-2.7c-2.1-1-4-2.1-5.8-3.4c-0.4-0.3-2.2-1.5-1.9-2.2c0.2-0.4-1.2-1.3-1.3-1
						c-0.3,0.8,0.7,1.7,1.1,2.2c1.2,1.3,2.7,2.3,4.3,3.2c5,3.1,10.7,5,16.4,6.1c6.7,1.3,13.5,1.1,20.2-0.4c4.8-1.1,9.7-2.8,13.8-5.7
						c1.3-1,4.9-3.5,3.1-5.5C104,111.6,103,111.6,103.7,112.4L103.7,112.4z"/>
				</g>
			</g>
			<g>
				<g>
					<path class="st1" d="M103.6,114.9c1,1.1-2.2,3.5-2.8,3.9c-3.5,2.5-7.5,4.1-11.7,5.2c-11.8,3.1-24.3,1.9-35.3-3.6
						c-1.9-1-3.7-2-5.5-3.3c-0.4-0.3-2.1-1.6-1.9-2.2c0.3-0.9-1.2-0.8-1.5,0c-0.3,0.9,0.7,1.7,1.2,2.3c1.3,1.3,2.9,2.3,4.6,3.2
						c5.3,2.9,11.2,4.9,17.2,5.9c6.8,1.1,13.6,0.7,20.3-0.9c4.7-1.1,9.4-2.8,13.2-5.7c1.2-0.9,5.2-3.9,3.4-5.7
						C104.5,113.5,103.1,114.4,103.6,114.9L103.6,114.9z"/>
				</g>
			</g>
			<g>
				<g>
					<path class="st1" d="M104.8,117.3c-0.7-0.8-0.2-0.7-0.4,0c-0.1,0.4-0.4,0.9-0.7,1.2c-0.8,1-1.7,1.9-2.8,2.6
						c-3.3,2.4-7.2,3.9-11,4.9c-11.7,3.3-24.1,2.3-35.3-2.6c-2.2-1-4.4-2.1-6.4-3.4c-0.7-0.4-1.4-1-2.1-1.5
						c-0.2-0.1-0.4-0.3-0.5-0.5c0.1,0.3,0.1,0.3,0.2,0c0.1-0.3-0.9-1.4-0.9-1.3c-0.3,0.8,0.8,2.1,1.3,2.6c1.2,1.3,2.7,2.2,4.1,3.1
						c5.3,3.2,11.5,5.2,17.5,6.3c7.1,1.2,14.4,0.9,21.3-0.9c4.6-1.1,9.4-2.8,13.2-5.9c1.9-1.4,4.1-3.6,2.1-5.9
						C104,115.7,104.6,117.1,104.8,117.3L104.8,117.3z"/>
				</g>
			</g>
			<g>
				<g>
					<path class="st1" d="M104.3,118.6c1.2,1.3-1.5,3.6-2.4,4.4c-3.2,2.5-7.1,4.1-10.9,5.3c-12.1,3.6-25.3,2.8-36.9-2.3
						c-2.2-1-4.4-2.1-6.3-3.5c-0.5-0.3-2.4-1.6-2.1-2.5c0.1-0.2-1.4-1-1.4-0.8c-0.3,0.8,1,1.7,1.4,2.2c1.4,1.2,3.1,2.2,4.7,3.2
						c5.1,2.8,10.8,4.8,16.5,5.9c7.1,1.4,14.5,1.2,21.6-0.3c4.7-1,9.5-2.6,13.5-5.3c1.2-0.8,5.3-3.7,3.6-5.6c-0.2-0.2-0.7-0.5-1-0.5
						C104.5,118.6,104,118.4,104.3,118.6L104.3,118.6z"/>
				</g>
			</g>
			<g>
				<g>
					<path class="st1" d="M104.5,121.5c1.2,1.4-1.9,3.8-2.7,4.5c-3.4,2.6-7.6,4.1-11.7,5.1c-12.3,3.2-25.4,1.9-37-3.6
						c-2.1-1-4.1-2.1-5.9-3.4c-0.4-0.3-2.3-1.5-2-2.3c0.2-0.4-1.3-0.1-1.5,0.3c-0.3,0.8,1,1.9,1.5,2.2c1.5,1.3,3.4,2.3,5.1,3.3
						c5.7,2.9,11.9,4.8,18.1,5.7c7,1,14.3,0.4,21.2-1.2c4.6-1.1,9.2-2.8,13-5.7c1.3-0.9,4.9-3.7,3.3-5.7
						C105.6,120.4,104.1,121,104.5,121.5L104.5,121.5z"/>
				</g>
			</g>
			<g>
				<g>
					<path class="st1" d="M104.7,123.4c1.2,1.4-1.6,3.7-2.5,4.5c-3.3,2.6-7.4,4.1-11.5,5.2c-12.4,3.4-25.7,2.2-37.4-3.1
						c-2.2-1-4.4-2.1-6.3-3.5c-0.4-0.3-2.5-1.6-2.2-2.3c0.2-0.7-1.4-0.8-1.5-0.3c-0.3,0.9,0.8,1.7,1.3,2.2c1.5,1.3,3.4,2.4,5.1,3.3
						c5.8,2.9,12.1,4.9,18.4,5.9c7,1,14.2,0.7,21.2-0.9c4.7-1.1,9.6-2.7,13.5-5.6c1.4-1,5-3.8,3.3-5.8
						C105.8,122.8,104.3,122.9,104.7,123.4L104.7,123.4z"/>
				</g>
			</g>
			<g>
				<g>
					<path class="st1" d="M105.2,125.9c0.2,0.3,0.1,1-0.2,1.5c-0.5,1.1-1.5,1.9-2.5,2.6c-3.4,2.5-7.4,4-11.6,5.1
						c-12.6,3.3-25.9,2.2-37.8-2.9c-2.3-1-4.6-2.1-6.5-3.5c-0.7-0.4-1.2-0.9-1.7-1.3c-0.2-0.2-0.3-0.3-0.5-0.5c-0.1-0.2-0.1,0-0.1,0
						c0.3-0.9-1.2-1.5-1.5-0.7c-0.3,1,0.8,2,1.4,2.5c1.5,1.3,3.3,2.4,5.1,3.3c5.8,3.1,12.1,5,18.6,6c7.3,1.1,14.8,0.8,22-0.9
						c4.7-1.1,9.6-2.7,13.5-5.7c1.6-1.2,4.9-4,3.1-6.3C105.7,124.4,104.5,125.1,105.2,125.9L105.2,125.9z"/>
				</g>
			</g>
			<g>
				<g>
					<path class="st1" d="M105.4,128c1.1,1.3-1.7,3.6-2.6,4.4c-3.4,2.6-7.5,4.1-11.6,5.2c-12.8,3.3-26.3,2.2-38.4-2.9
						c-2.3-1-4.5-2.1-6.5-3.4c-0.7-0.4-1.3-0.9-2-1.4c-0.2-0.2-0.5-0.8-0.5-0.7c0.3-0.8-1.2-1.5-1.4-0.8c-0.3,1,0.7,2,1.4,2.5
						c1.5,1.3,3.4,2.4,5.1,3.3c5.9,3.1,12.3,5,18.8,6c7.3,1.2,15.1,0.8,22.3-0.9c4.8-1.1,9.6-2.7,13.6-5.6c1.6-1.2,4.9-4,3.1-6.2
						C106,126.8,104.7,127.1,105.4,128L105.4,128z"/>
				</g>
			</g>
			<g>
				<g>
					<path class="st1" d="M105.5,130c1.3,1.6-1.1,3.8-2.3,4.8c-3.2,2.6-7.3,4.1-11.2,5.2c-13.1,3.6-27.1,2.3-39.5-3.1
						c-2.3-1-4.6-2.1-6.7-3.5c-0.4-0.3-2.7-1.6-2.4-2.4c0.2-0.5-1.4-0.5-1.6-0.1c-0.3,0.9,1,1.7,1.5,2.2c1.6,1.3,3.6,2.4,5.6,3.3
						c6.1,2.9,12.7,4.9,19.4,5.8c7.2,1,14.7,0.5,21.9-1c4.8-1,9.7-2.6,13.6-5.5c1.4-1,5-3.8,3.3-6
						C106.8,129.4,105.2,129.6,105.5,130L105.5,130z"/>
				</g>
			</g>
		</g>
		<g>
			<g>
				<g>
					<path class="st15" d="M101,92.5C101,92.5,101,92.4,101,92.5c-0.1,0.3-0.2,0.8-0.3,1.1c-0.5,1.2-1.3,2.2-2.2,3.2
						c-2.9,3.2-7.1,5.3-11.2,6.5c-6.4,1.9-13.3,1.5-19.9,0.2c-4.6-1-9.4-2.5-13-5.8c-1.1-1-4-4.1-2.6-5.7c0.7-0.8-0.8-1.4-1.4-0.8
						c-1.6,1.7,0.3,4.8,1.5,6.2c3.3,3.7,8.2,5.7,12.9,6.9c11.6,2.9,26.3,2.5,34.9-6.9c0.8-0.9,4.7-5.8,1.6-6.3
						C100.6,91,100,92.3,101,92.5L101,92.5z"/>
				</g>
			</g>
			<g>
				<g>
					<path class="st16" d="M101.6,95.3c-0.3-0.1-0.1-0.4-0.2-0.1c-0.1,0.3-0.2,0.7-0.3,1.1c-0.5,1.2-1.5,2.2-2.4,3.1
						c-3.2,3.2-7.3,5.2-11.6,6.4c-6.4,1.7-13.2,1.5-19.8,0.2c-4.7-1-9.5-2.6-13.1-5.7c-1.1-0.9-4.3-4-2.8-5.3c0.7-0.7-0.7-1.6-1.3-1
						c-1.7,1.7,0.5,4.7,1.7,6c3.4,3.6,8.4,5.7,13.1,6.9c11.7,2.9,26.3,2.4,35.3-6.8c0.9-0.9,4.9-5.7,1.7-6.3
						C100.8,93.7,100.7,95,101.6,95.3L101.6,95.3z"/>
				</g>
			</g>
			<g>
				<g>
					<path class="st31" d="M102.5,97.9c-0.3-0.1-0.4-0.9-0.7-0.5c0,0.1,0,0.3-0.1,0.4c-0.1,0.4-0.3,0.9-0.5,1.3
						c-0.8,1.2-1.6,2.2-2.7,3.2c-3.3,2.9-7.4,5-11.7,6.2c-6.2,1.7-12.9,1.6-19.3,0.4c-4.9-0.9-10-2.5-14.1-5.7
						c-1-0.8-4.5-3.9-2.8-5.5c0.2-0.2-1-1.3-1.2-1.1c-1.6,1.5,1.3,4.7,2.3,5.7c3.5,3.5,8.3,5.6,13,6.9c11.7,3.2,26.4,2.6,35.6-6.4
						c1.1-1,2.3-2.3,2.7-3.8c0.3-1-0.3-2-1.4-2.2C101.2,96.7,102.2,97.8,102.5,97.9L102.5,97.9z"/>
				</g>
			</g>
			<g>
				<g>
					<path class="st32" d="M102,100.6c1,0.3-2.6,4.1-2.9,4.4c-3.5,3.2-7.9,5.1-12.4,6.3c-6.4,1.6-13.3,1.3-19.8-0.1
						c-4.7-1-9.4-2.7-13.2-5.7c-1.2-1-2.4-2.1-3.3-3.4c-0.3-0.5-0.8-1.6-0.4-2c0.8-0.8-0.7-0.7-1.1-0.2c-1.7,1.6,0.9,4.4,2,5.3
						c3.7,3.5,8.7,5.5,13.6,6.7c11.9,2.9,25.8,2,35.4-6.4c0.5-0.4,5.5-5.2,3.2-5.9C102.5,99.4,101.3,100.4,102,100.6L102,100.6z"/>
				</g>
			</g>
			<g>
				<g>
					<path class="st33" d="M102.9,103.4c-0.5-0.2-0.1-0.5-0.4-0.1c-0.2,0.3-0.4,0.8-0.7,1.1c-0.8,1.1-1.9,2.1-2.9,2.9
						c-3.6,2.9-8,4.9-12.6,6.1c-6.3,1.5-13,1.3-19.3,0c-4.7-1-9.5-2.6-13.5-5.5c-1.3-0.9-2.5-2-3.4-3.3c-0.2-0.3-0.4-0.8-0.5-1.2
						c-0.1-0.3,0-0.4,0.1-0.5c0.8-0.7-0.5-1.7-1.2-1.1c-1.9,1.6,1.3,4.7,2.4,5.7c3.8,3.4,8.8,5.5,13.6,6.7c12,3.1,26.1,2.2,35.9-6.1
						c0.9-0.8,5.9-5.3,2.8-6.3C102.1,101.7,101.9,103.2,102.9,103.4L102.9,103.4z"/>
				</g>
			</g>
			<g>
				<g>
					<path class="st34" d="M102.9,106.1c0.4,0.1-0.2,1-0.4,1.3c-0.9,1.1-1.9,2.1-2.9,2.9c-3.7,2.9-8.2,4.9-12.9,6
						c-6.4,1.5-13.2,1.2-19.6-0.1c-4.7-1-9.5-2.6-13.5-5.3c-1.4-0.9-2.7-2-3.7-3.3c-0.3-0.4-0.7-0.9-0.8-1.3c0-0.1-0.1-0.3-0.1-0.4
						c0-0.2,0,0,0,0c0.9-0.7-0.2-1-0.9-0.4c-1.9,1.5,1.2,4.3,2.3,5.1c3.8,3.3,8.7,5.2,13.6,6.4c12.1,3.2,26,2,36.1-5.9
						c0.4-0.3,6.1-5.2,4-6C103.4,104.8,102.3,105.8,102.9,106.1L102.9,106.1z"/>
				</g>
			</g>
			<g>
				<g>
					<path class="st35" d="M103.4,108.1c-0.3-0.1-0.1,0.1-0.2,0.4c-0.1,0.4-0.4,0.8-0.7,1.1c-0.9,1.1-2,2.1-3.1,2.8
						c-3.7,2.9-8.2,4.9-12.8,6.2c-6.3,1.7-12.9,1.6-19.3,0.5c-5.3-1-10.7-2.7-15.2-5.9c-0.7-0.4-5.2-3.8-3.6-5
						c-0.1,0.1-1.2-0.8-1.5-0.5c-1.5,1.2,2.7,4.4,3.4,4.8c3.9,2.8,8.6,4.7,13.3,6c12.1,3.3,25.7,2.5,36.1-4.8
						c0.7-0.4,6.5-4.8,4.3-5.7C104.1,108.1,102.5,107.7,103.4,108.1L103.4,108.1z"/>
				</g>
			</g>
			<g>
				<g>
					<path class="st36" d="M104.3,111.6c-0.3-0.2-0.3-0.7-0.4-0.5c0,0-0.2,0.3-0.2,0.4c-0.2,0.4-0.7,0.8-1,1.2
						c-1.1,1.1-2.3,2.1-3.6,2.9c-4,2.7-8.6,4.6-13.4,5.7c-6.2,1.4-12.7,1.2-18.9,0c-4.9-1-9.7-2.6-14-5.1c-1.4-0.9-2.9-1.9-4-3.1
						c-0.3-0.3-0.7-0.8-0.9-1.1c-0.1-0.2-0.1-0.2,0-0.2c0.7-0.4-0.2-1.9-0.9-1.4c-2,1.4,2,4.5,2.8,5.2c4,3.2,9,5.1,13.8,6.4
						c12.4,3.4,26.4,2.2,37.1-5.5c1-0.7,6.7-4.8,3.7-6.2C103.4,109.8,103.6,111.3,104.3,111.6L104.3,111.6z"/>
				</g>
			</g>
			<g>
				<g>
					<path class="st37" d="M104.1,113.9c0.7,0.3-4,4.1-4.5,4.4c-4,2.7-8.7,4.7-13.5,5.8c-11,2.5-23.9,0.4-33.6-5.5
						c-0.4-0.2-6-4.1-5-4.8c0.8-0.4-0.9-0.7-1.2-0.3c-1.7,1.2,2.5,4,3.3,4.6c4.3,2.9,9.4,4.9,14.4,6.1c12.3,2.9,25.4,1.7,36.2-5.1
						c0.5-0.3,7-4.8,5.2-5.7C105.1,113.2,103.5,113.6,104.1,113.9L104.1,113.9z"/>
				</g>
			</g>
			<g>
				<g>
					<path class="st38" d="M104.5,116.4c0.8,0.4-4.3,4.1-4.6,4.4c-4.1,2.7-9,4.7-13.9,5.8c-11.1,2.6-23.9,0.3-33.8-5.3
						c-0.3-0.2-6.3-4.1-5.1-4.8c0.3-0.2-1.1-0.4-1.4-0.2c-1.5,1,3.3,4,3.8,4.4c4.4,2.8,9.4,4.7,14.5,5.9c12.3,2.9,25.3,1.7,36.3-4.8
						c0.5-0.3,7.2-4.6,5.8-5.6C105.6,116,104.1,116.2,104.5,116.4L104.5,116.4z"/>
				</g>
			</g>
			<g>
				<g>
					<path class="st39" d="M104.9,119.5c0.9,0.5-4.6,4-4.9,4.3c-4.6,2.7-9.8,4.6-15.1,5.6c-10.9,2-22.9-0.3-32.6-5.6
						c-1.6-0.9-3.2-1.9-4.6-2.9c-0.4-0.3-0.9-0.8-1.1-1.2c-0.4-0.7,0.1-0.7-0.9-0.2c0.5-0.3,1.1-1.2,0.1-0.7c-0.9,0.4-1.2,1-0.7,1.7
						c0.8,1.1,2,1.9,3.1,2.5c4.5,2.9,9.6,4.8,14.7,6.1c6.8,1.7,14,2.3,20.8,1c5.6-1,11-3.1,16-5.9c0.4-0.2,7.7-4.9,6.4-5.8
						C105.9,118.4,104.7,119.4,104.9,119.5L104.9,119.5z"/>
				</g>
			</g>
			<g>
				<g>
					<path class="st40" d="M106.1,122.4c-0.2-0.3-0.3-0.7-0.5-1c0,0,0,0,0,0.1c0,0,0,0.1-0.1,0.1c-0.1,0.1-0.2,0.3-0.3,0.4
						c-0.3,0.4-0.8,0.8-1.2,1.1c-1.3,1.1-2.8,2-4.3,2.7c-4.5,2.5-9.4,4.3-14.3,5.3c-11.1,2.4-23.1,0.2-33.3-4.7
						c-1.7-0.9-3.6-1.9-5.1-2.9c-0.4-0.3-0.9-0.8-1.4-1.1c-0.5-0.4-0.1,0.1,0,0.1c0.3-0.1-0.4-1.6-0.9-1.4c-1.6,0.8,3.1,4.1,3.5,4.5
						c4.4,2.8,9.4,4.7,14.4,6.1c6.8,1.9,14,2.5,21,1.4c6-1,12-3.1,17.4-6.1c1.2-0.8,7.6-3.8,4.9-6
						C105.3,120.7,105.8,122.1,106.1,122.4L106.1,122.4z"/>
				</g>
			</g>
			<g>
				<g>
					<path class="st41" d="M105.8,124.9C105.7,124.8,105.8,124.8,105.8,124.9c-0.1-0.1-0.2,0.2-0.3,0.2c-0.3,0.3-0.8,0.7-1.2,1
						c-1.4,1.1-2.9,2-4.5,2.7c-4.6,2.4-9.6,4.3-14.7,5.2c-11,2.2-22.9-0.1-33.1-5c-1.7-0.8-3.4-1.7-4.9-2.7c-0.5-0.3-1-0.7-1.4-1.1
						c-0.7-0.7,0-0.4-0.9,0c0.9-0.4,0.5-1.5-0.3-1.1c-2.5,1.1,2.2,3.7,2.9,4.1c4.6,2.7,9.7,4.6,14.8,5.9c6.7,1.7,13.8,2.4,20.6,1.4
						c6-0.9,12-2.8,17.5-5.7c0.7-0.3,8.4-4.5,6.9-5.9C106.7,123.6,105.2,124.4,105.8,124.9L105.8,124.9z"/>
				</g>
			</g>
			<g>
				<g>
					<path class="st42" d="M106.8,127.6c-1.2-1.3,0-0.8-0.4-0.5c-0.1,0.1-0.2,0.3-0.3,0.4c-0.4,0.4-0.9,0.8-1.3,1.1
						c-1.4,1-3.1,1.9-4.6,2.7c-4.8,2.4-9.9,4.3-15.2,5.2c-11.1,2.2-22.9-0.1-33.2-4.7c-1.9-0.9-3.7-1.7-5.5-2.8
						c-0.5-0.3-1-0.8-1.5-1.1c-0.7-0.4,0,0.1,0,0.2c0.3-0.1-0.4-1.5-1-1.3c-0.8,0.3,0.4,1.6,0.7,2c1,1,2.2,1.6,3.4,2.3
						c4.6,2.6,9.7,4.5,14.8,5.8c6.7,1.7,13.6,2.5,20.4,1.5c6.2-0.9,12.3-2.8,17.9-5.7c2-1,3.9-2.1,5.7-3.4c0.9-0.7,1.5-1.4,0.7-2.4
						C106.3,126,106.3,127,106.8,127.6L106.8,127.6z"/>
				</g>
			</g>
			<g>
				<g>
					<path class="st1" d="M106.7,130.3c-0.2-0.3,0.1-0.4-0.1-0.3c-0.1,0-0.3,0.3-0.4,0.4c-0.4,0.4-0.9,0.8-1.4,1
						c-1.4,1-2.9,1.7-4.6,2.5c-4.7,2.3-9.8,4-15,5c-11.4,2.3-23,0-33.5-4.5c-1.9-0.8-3.8-1.7-5.6-2.7c-0.5-0.3-1.2-0.7-1.6-1.1
						c-0.1-0.1-0.3-0.3-0.4-0.3c-0.3-0.1,0.1,0,0,0c0,0,0,0.5-0.3,0.7c1-0.3,0.3-1.7-0.5-1.5c-2.6,0.8,3.2,4,3.7,4.3
						c4.9,2.6,10.2,4.5,15.5,5.8c6.8,1.6,13.8,2.4,20.6,1.4c6-0.9,12-2.8,17.5-5.3c1-0.4,9-3.8,7.4-5.9
						C107.3,128.9,106,129.4,106.7,130.3L106.7,130.3z"/>
				</g>
			</g>
		</g>
		<g>
			<path class="st43" d="M20.9,92.6c0,1.2-1.5,2.6-2.5,3.2c-1.4,0.9-3.7,4.5-4,5.7"/>
			<g>
				<path class="st14" d="M48.4,30c6.8-7.6,16-11.6,24.9-16.2c3.6-1.9,3.5-12.1,2.6-11.9c-18.1,5.1-8.7,8.5-13.3,11.9
					c-3.8,2.7-15.4,9.8-23.2,18.6c-1,1.1-3.3,6.9-2.5,6.9C38.3,39.4,47.5,31.1,48.4,30L48.4,30z"/>
			</g>
			<g>
				<path class="st1" d="M61.9,2.5c-5.7,3.4-4.4,2.8-8.8,7.7c-5,5.5-8.6,11.6-13.2,17.4C33.6,35.7,26.5,43,23.1,53
					c-6,17.6-9.7,36.9-6.4,55.3c0.2,1.4,4.3,1.6,3.9,0.1c-0.9-4.8-0.2-10.7-0.3-15.6c0.4-5.2,0.1-7.6,0.4-11.5
					c0.8-2.6,0-4.9,0.8-6.8c0.8-1.9,0.4-2.5,0.7-3.8c0.2-1,0.7-1.2,0.9-2.8c0.2-1.6,0-2,0.2-2.7c0.5-2.2,2.2-4.5,2.7-6.7
					c1.5-5.3,5.5-10.5,8.3-15.2c2.6-4.4,2.9-8.2,6.2-12.1c3.8-4.7,8.8-7.9,12.6-12.6c4.5-5.9,7.2-3.4,13.2-7.6
					C73.8,5.9,66.2,0,61.9,2.5z"/>
			</g>
			<g>
				<g>
					<path class="st1" d="M18.7,66.6c-1.3,7.2-2.6,14.5-3.5,21.7c-0.7,5.1-1.1,10.3-0.8,15.4c0.3,3.8,1.2,7.6,2.9,11.1
						c2,3.7,4.6,6.8,7.7,9.5c4.7,4.3,10,7.9,15.4,11.5c1.4,1,6.1-1.1,3.9-2.5c-7.7-5.2-16.7-10.8-21.6-19
						c-4.4-7.3-3.8-16.4-2.9-24.6c0.9-8,2.3-15.8,3.7-23.7C24.1,63.8,19,64.7,18.7,66.6L18.7,66.6z"/>
				</g>
			</g>
			<g>
				<g>
					<path class="st14" d="M52.8,17.4c1.7-2.4,3.4-4.9,5.1-7.3c0.2-0.3,0.4-0.7,0.8-0.9C59,8.9,59,8.9,59.3,8.6
						c0.8-0.7,1.3-1,2.2-1.5c1.6-1,3.4-2,5-2.8c0.3-0.2,0.7-0.5,0.2-0.9c-0.4-0.2-1.2,0-1.6,0.2C62.6,5,60,6.2,57.7,8
						c-1.4,1.2-2.4,2.7-3.4,4.3c-1.2,1.7-2.4,3.5-3.7,5.1c-0.3,0.4,0.3,0.7,0.7,0.7C51.8,18.1,52.4,17.9,52.8,17.4L52.8,17.4z"/>
				</g>
			</g>
			<g>
				<g>
					<path class="st1" d="M63.4,9.6c0.7-0.4,1.4-1,2.1-1.5c0.3-0.3,1.1-0.8,0.9-1.3c-0.4-1.4-2.7,0-3.5,0.4
						c-3.2,1.7-6.3,3.6-9.4,5.5c-1,0.5-1.9,1.1-2.8,1.7c-0.4,0.2-0.5,0.8-0.2,1.2c0.3,0.3,1.1,0.3,1.5,0.1c3.9-2.3,7.9-4.6,11.6-7.1
						c2.1-1.4,4.1-2.9,6-4.7c1.2-1.1-0.7-1.9-1.6-1.1C62.9,7.3,56.9,10.6,51.2,14c-0.1,0-0.2,0.1-0.2,0.1c-0.2,0.1,0.2-0.1,0.1,0
						L51,14.3c0.4,0.4,0.9,0.9,1.3,1.2c-0.5,0.3,0.1-0.1,0.3-0.2c0.4-0.3,0.9-0.5,1.4-0.9c1.4-0.9,2.8-1.7,4.3-2.5
						c1.5-0.9,3.1-1.7,4.6-2.6c0.3-0.2,1-0.5,1.5-0.9c0.2-0.1,0.9-0.3,1.1-0.5c-0.1,0.1-0.3,0.1-0.4,0.1c-0.7,0-1.2-0.3-1-1
						c0,0,0.2-0.3,0.1-0.1c-0.1,0.2,0.2-0.2,0,0C64.1,7,64,7,64,7.1c-0.7,0.5-1.4,1-2.1,1.5c-0.5,0.2-0.8,0.9-0.2,1.2
						C62.2,10.1,62.9,9.9,63.4,9.6L63.4,9.6z"/>
				</g>
			</g>
			<g>
				<path class="st14" d="M48.7,25.9c7.1-12,3.2-10.8,15.9-15.7c3.2-1.2,6.8-2,9.8-3.6c0.8-0.4,1.2-0.8,1.7-1.4
					c1.7-1.9-10.8,2.1-13,2.9c-5.8,2.2-15.1,10.3-19.3,17.5c-0.2,0.4-3.7,6-3.5,6.2c0,0,6.5-2.7,7.1-3.7L48.7,25.9z"/>
			</g>
			<path class="st44" d="M47.9,31c-2.9,1.6-6.3,1.2-9.1,1.7c-2.7,0.4-4.5,1.5-5.2,2.5"/>
			<path class="st44" d="M42.7,35.3c0,0-2.5,2.5-7.5,2.9s-5.6,2-5.6,2"/>
			<path class="st44" d="M35.9,41.7c0,0-3.4,2.2-6.3,3.3s-4.1,2.2-5,3.5"/>
			<path class="st44" d="M31.6,48.2c0,0-1.6,1.3-4.4,2.5c-2.7,1.2-4.9,4.6-5.5,5.7"/>
			<path class="st44" d="M27.9,54.5c0,0-2.1,3.6-3.1,4c-0.8,0.3-3.5,2.5-4.9,4.4"/>
			<path class="st44" d="M24.1,67.2c0,0-2,2.3-2.9,2.7c-1.4,0.8-3.6,3.4-4,4.6"/>
			<path class="st44" d="M22.6,73.3c-0.2,1.2-2.5,5.2-3.5,5.7c-1.4,0.7-3.1,2.4-3.5,3.6"/>
			<path class="st44" d="M21.9,83.4c-0.2,1.2-2.6,3.8-3.6,4.4c-1.4,0.7-3.5,2.9-3.9,4.1"/>
			<path class="st45" d="M21,109.7c0.2,1.2,0.5,3.7,0,4.9s-0.7,3.6-0.7,5"/>
			<path class="st44" d="M26,117.7c0.5,1.1,0.5,3.4,0,4.4c-0.8,1.4-1.3,1.7-0.9,3.1"/>
			<path class="st44" d="M30.1,122.4c0.8,1,1.2,3.2,0.9,4.3c-0.4,1.5-0.9,2-0.2,3.2"/>
			<path class="st44" d="M55.9,23.8c-2.7,1.7-10.2,1.3-11.5,1.5c-2,0.3-3.7,0.7-4.6,2"/>
			<g>
				<path class="st14" d="M47.4,22.9c9.7-7.9,20.4-9.5,22.5-11.4"/>
				<g>
					<path class="st1" d="M49.6,23.2c4-3.3,8.6-5.6,13.4-7.5c1.7-0.7,3.4-1.2,5.1-1.9c1.3-0.5,2.7-1.1,3.8-2
						c0.9-0.8,0.7-1.5-0.4-1.7c-1.3-0.2-3.1,0.2-4,1.1c-0.1,0.1-0.1,0.1-0.2,0.2c0.3-0.2,0.2-0.3,0.1-0.1c0,0-0.5,0.3,0,0
						c0.4-0.2,0,0-0.1,0c-0.7,0.2-1.3,0.5-2,0.8c-1.9,0.7-3.7,1.3-5.6,2.1c-5.2,2.1-10.3,4.8-14.6,8.4c-0.9,0.8-0.7,1.5,0.4,1.7
						C47,24.5,48.6,24.1,49.6,23.2L49.6,23.2z"/>
				</g>
			</g>
			<path class="st44" d="M74.6,13.2c-4.8,2.7-20.4,4.3-21.6,4.3c-1.9,0.1-6.8,1.4-7.6,2.4"/>
			<path class="st46" d="M26.4,58.3l-0.9,2.5c1.5,0.2,1.9,0.7,1.9,1.2c0,0.9-2.1,1.5-4.7,1.5S18,62.8,18,62c0-0.7,0.8-1.2,2.4-1.4
				l0.8-2.7C16.9,58,14,60,14,62.1c0,2.3,3.8,4,8.5,4s8.5-1.9,8.5-4C31.2,60.3,29.7,58.8,26.4,58.3z"/>
			<g>
				<path class="st46" d="M22.1,67.5c-4.5,0.2-7.9-2.5-8-3.2L14,61.9c0,1.5,3.3,3.9,8.1,3.9c3.9,0,7.2-1.1,8.3-2.4
					c0.2-0.3,0.4-0.9,0.4-0.9l-0.3,2.1C30.2,65.6,26.6,67.3,22.1,67.5z"/>
			</g>
		</g>
		<path class="st47" d="M39.7,135.4c0,0-1.4-0.7-1-2.9c0.3-1.6,2.1-2.7,3.7-2.4s2.7,2.1,2.4,3.7c-0.1,0.3-0.2,0.4-0.3,0.7l1.6,1.2
			c0.3-0.5,0.5-0.9,0.7-1.5c0.7-2.7-1.1-5.9-3.9-6.5c-2.7-0.7-6,1.5-6.5,4.3c-0.5,2.2,0.3,5.2,3.2,6.4L39.7,135.4z"/>
		<g>
			<g>
				<path class="st1" d="M39.8,134.3c3.7,3.1,7.6,6,11.9,8.4c4.8,2.7,10.7,3.6,16.2,4.1c8.4,0.9,17,0.3,25.2-1.7
					c5.2-1.3,11.2-3.6,14.5-8.2c0.9-1.2,1.4-2.5,1.5-3.9c0.1-1.5-0.9-1.6-2.4-1.2c-0.4,0.1-2,0.5-1.7,1.2c0.2,0.7,1.9,0.2,2.2,0.1
					c-0.7,0-1.3,0-2,0c0,0,0,0-0.1-0.1v0.1c0,0.1,0.1,0.2,0.1,0.2c0,0.3,0,0.7,0,0.9c-0.2,1.1-0.8,2.2-1.3,3.2
					c-2.8,4-8.1,5.7-12.7,6.8c-7.2,1.6-14.7,1.7-22,0.9c-4.6-0.5-9.6-1.4-13.6-3.7c-4.1-2.4-8.1-5.3-11.9-8.4
					C42.6,132.3,39,133.8,39.8,134.3L39.8,134.3z"/>
			</g>
		</g>
		<path class="st44" d="M20.5,92.9c0,1.2-1.5,2.6-2.5,3.2c-1.4,0.8-3.7,4.4-4,5.7"/>
		<path class="st44" d="M20.2,100.9c0.1,1.7-1.6,4.7-2.6,5.7c-1.5,1.4-1.5,2.8-1.7,4.6"/>
	</g>
	<path class="st48" d="M45,134.4"/>
</g>
</svg>
