<?xml version="1.0" encoding="utf-8"?>
<!-- Generator: Adobe Illustrator 25.2.1, SVG Export Plug-In . SVG Version: 6.00 Build 0)  -->
<svg version="1.1" id="Layer_1" xmlns="http://www.w3.org/2000/svg" xmlns:xlink="http://www.w3.org/1999/xlink" x="0px" y="0px"
	 viewBox="0 0 96.34 200.5" style="enable-background:new 0 0 96.34 200.5;" xml:space="preserve">
<style type="text/css">
	.st0{fill:#CAB7B7;stroke:#FFFFFF;stroke-width:0.5;stroke-miterlimit:10;}
	.st1{fill:#D75E40;}
	.st2{fill:#D85C3F;}
	.st3{fill:#D85A3D;}
	.st4{fill:#D8573C;}
	.st5{fill:#D8553B;}
	.st6{fill:#D85339;}
	.st7{fill:#D85138;}
	.st8{fill:#D84F36;}
	.st9{fill:#D84D35;}
	.st10{fill:#D84B34;}
	.st11{fill:#D84932;}
	.st12{fill:#D84731;}
	.st13{fill:#D84530;}
	.st14{fill:#D8422E;}
	.st15{fill:#DC3359;}
	.st16{fill:#DD3758;}
	.st17{fill:#DE3C57;}
	.st18{fill:#E04055;}
	.st19{fill:#E14554;}
	.st20{fill:#E34952;}
	.st21{fill:#E44E51;}
	.st22{fill:#E55250;}
	.st23{fill:#E7574E;}
	.st24{fill:#E85B4D;}
	.st25{fill:#E9604B;}
	.st26{fill:#EB644A;}
	.st27{fill:#EC6949;}
	.st28{fill:#ED6D47;}
	.st29{fill:#E4DAD8;stroke:#FFFFFF;stroke-width:0.5;stroke-miterlimit:10;}
	.st30{fill:none;stroke:#FFFFFF;stroke-width:0.5;stroke-miterlimit:10;}
	.st31{fill:#CAB7B7;stroke:#FFFFFF;stroke-width:0.5;stroke-linejoin:bevel;stroke-miterlimit:10;}
	.st32{fill:#D55C3F;}
	.st33{fill:#D35B3E;}
	.st34{fill:#D05A3D;}
	.st35{fill:#CE583C;}
	.st36{fill:#CB573C;}
	.st37{fill:#C9563B;}
	.st38{fill:#C6553A;}
	.st39{fill:#C45339;}
	.st40{fill:#C25238;}
	.st41{fill:#BF5137;}
	.st42{fill:#BD4F36;}
	.st43{fill:#BA4E35;}
	.st44{fill:#B84D34;}
	.st45{fill:#B54B33;}
	.st46{fill:#DB3658;}
	.st47{fill:#DB3956;}
	.st48{fill:#DB3C54;}
	.st49{fill:#DB3F52;}
	.st50{fill:#DA4250;}
	.st51{fill:#DA454F;}
	.st52{fill:#DA484D;}
	.st53{fill:#D94B4B;}
	.st54{fill:#D94E49;}
	.st55{fill:#D95147;}
	.st56{fill:#D85546;}
	.st57{fill:#D85844;}
	.st58{fill:#D85B42;}
	.st59{fill:none;stroke:#FFFFFF;stroke-width:0.4169;stroke-miterlimit:10;}
	.st60{fill:#92392D;}
	.st61{fill:#91392D;}
	.st62{fill:none;stroke:#FFFFFF;stroke-width:0.2938;stroke-miterlimit:10;}
	.st63{fill:none;stroke:#FFFFFF;stroke-width:0.297;stroke-miterlimit:10;}
	.st64{fill:none;stroke:#FFFFFF;stroke-width:0.2939;stroke-miterlimit:10;}
	.st65{fill:#522321;stroke:#FFFFFF;stroke-width:0.25;stroke-miterlimit:10;}
	.st66{fill:#512320;stroke:#FFFFFF;stroke-width:0.25;stroke-miterlimit:10;}
	.st67{fill:#92392D;stroke:#FFFFFF;stroke-width:0.5;stroke-miterlimit:10;}
	.st68{fill:#E4DAD8;stroke:#FFFFFF;stroke-width:0.4783;stroke-miterlimit:10;}
</style>
<g>
	<g>
		<path class="st0" d="M57.51,117.22l29.15,0.15c0,0-2.25,19.48-3.54,29.72c-0.24,5.38-1.06,11.07-3.37,16.14
			c-4.12,9.05-10.69,16.17-10.69,16.17l0.64,14.51c0,0-1.46,5.71-11.75,5.91h-0.33c-10.29-0.2-11.75-5.91-11.75-5.91l0.64-14.51
			c0,0-6.57-7.12-10.69-16.17c-2.31-5.08-3.12-10.77-3.37-16.14c-1.29-10.24-3.54-29.72-3.54-29.72l29.15-0.15H57.51z"/>
		<path class="st0" d="M46.53,179.33c0,0,3.75,4.73,11.49,4.73s11.06-4.64,11.06-4.64"/>
		<g>
			<g>
				<g>
					<path class="st1" d="M85.77,119.58c0.4,0.51-0.08,1.12-0.46,1.5c-0.85,0.84-1.98,1.42-3.04,1.95
						c-3.55,1.77-7.42,2.97-11.26,3.92c-4.59,1.14-9.31,1.92-14.05,2.01c-5.4,0.11-10.87-0.67-16.06-2.13
						c-2.19-0.62-4.37-1.36-6.45-2.3c-0.75-0.34-1.49-0.7-2.19-1.12c-0.19-0.12-2.12-1.41-1.59-1.57c0.16-0.05,0.67-0.2,0.61-0.45
						c-0.07-0.24-0.61-0.13-0.75-0.09c-0.65,0.21-1.75,0.65-1.09,1.46c0.57,0.68,1.48,1.13,2.25,1.55c1.71,0.92,3.53,1.65,5.37,2.28
						c5.35,1.83,11.02,2.82,16.66,3.02c5.22,0.19,10.44-0.51,15.53-1.64c4.4-0.98,8.79-2.29,12.89-4.19
						c1.46-0.67,2.97-1.43,4.17-2.51c0.59-0.53,1.33-1.39,0.71-2.16C86.8,118.78,85.5,119.24,85.77,119.58L85.77,119.58z"/>
				</g>
			</g>
			<g>
				<g>
					<path class="st2" d="M85.34,122.54c0.38,0.58-0.13,1.19-0.55,1.58c-0.89,0.83-2.02,1.42-3.1,1.94
						c-3.55,1.73-7.39,2.9-11.22,3.83c-4.47,1.09-9.08,1.82-13.69,1.86c-5.35,0.05-10.74-0.76-15.87-2.24
						c-2.16-0.63-4.3-1.38-6.34-2.34c-0.72-0.34-1.44-0.7-2.12-1.12c-0.25-0.15-2.21-1.39-1.42-1.66c0.14-0.05,0.53-0.18,0.41-0.37
						c-0.11-0.17-0.76,0.05-0.87,0.09c-0.63,0.21-1.45,0.62-0.84,1.31c0.58,0.67,1.47,1.12,2.23,1.54c1.66,0.9,3.42,1.61,5.2,2.22
						c5.24,1.83,10.79,2.83,16.34,3.06c5.06,0.21,10.13-0.42,15.07-1.5c4.39-0.96,8.78-2.22,12.89-4.06
						c1.5-0.67,3.04-1.41,4.31-2.47c0.53-0.44,1.42-1.28,0.91-2.04C86.48,121.86,85.24,122.4,85.34,122.54L85.34,122.54z"/>
				</g>
			</g>
			<g>
				<g>
					<path class="st3" d="M84.96,125.58c0.04,0.06,0.06,0.13,0.07,0.19c0.01,0.04,0.02,0.18,0.02,0.1c0,0.16-0.04,0.25-0.07,0.32
						c-0.17,0.34-0.37,0.53-0.69,0.8c-0.86,0.75-2.07,1.35-3.15,1.86c-3.54,1.66-7.33,2.79-11.12,3.7
						c-4.39,1.04-8.91,1.76-13.42,1.79c-5.22,0.03-10.48-0.77-15.49-2.24c-2.11-0.62-4.2-1.36-6.2-2.3
						c-0.72-0.34-1.44-0.7-2.11-1.12c-0.45-0.28-0.93-0.56-1.31-0.94c-0.07-0.07-0.33-0.29-0.29-0.42c0.01-0.02-0.02-0.01-0.02-0.01
						c0,0.02,0.16-0.06,0.18-0.07c0.22-0.08,0.53-0.35,0.34-0.59c-0.19-0.26-0.67-0.13-0.9-0.04c-0.78,0.28-1.28,0.89-0.64,1.6
						c0.6,0.65,1.47,1.12,2.23,1.54c1.64,0.9,3.39,1.62,5.16,2.24c5.1,1.81,10.52,2.83,15.93,3.1c4.97,0.25,9.93-0.34,14.79-1.36
						c4.31-0.9,8.6-2.13,12.64-3.9c1.52-0.66,3.06-1.41,4.35-2.46c0.57-0.46,1.51-1.35,1.08-2.18
						C86.05,124.72,84.73,125.15,84.96,125.58L84.96,125.58z"/>
				</g>
			</g>
			<g>
				<g>
					<path class="st4" d="M84.57,128.62c0.24,0.62-0.41,1.2-0.83,1.55c-0.95,0.78-2.09,1.34-3.19,1.85
						c-3.52,1.62-7.29,2.71-11.05,3.59c-4.25,0.98-8.64,1.64-13.01,1.62c-5.16-0.03-10.35-0.87-15.28-2.36
						c-2.06-0.62-4.09-1.36-6.02-2.3c-0.71-0.34-1.41-0.71-2.08-1.12c-0.46-0.29-0.95-0.59-1.33-0.98
						c-0.11-0.12-0.28-0.28-0.29-0.45c-0.01-0.11,0.08-0.23,0.04-0.22c0.13-0.05,0.54-0.18,0.4-0.37c-0.11-0.17-0.76,0.04-0.87,0.08
						c-0.72,0.29-1.26,0.69-0.61,1.38c0.59,0.63,1.42,1.08,2.17,1.49c1.58,0.87,3.25,1.57,4.94,2.18
						c5.01,1.81,10.33,2.84,15.65,3.13c4.83,0.27,9.65-0.27,14.38-1.24c4.32-0.89,8.62-2.09,12.69-3.81
						c1.53-0.65,3.08-1.36,4.41-2.37c0.54-0.41,1.55-1.2,1.23-2.01C85.8,127.94,84.47,128.37,84.57,128.62L84.57,128.62z"/>
				</g>
			</g>
			<g>
				<g>
					<path class="st5" d="M84.18,131.65c0.15,0.6-0.55,1.14-1,1.48c-0.99,0.74-2.13,1.28-3.26,1.78c-3.54,1.56-7.31,2.64-11.08,3.48
						c-4.14,0.92-8.42,1.55-12.68,1.48c-5.05-0.07-10.13-0.92-14.95-2.42c-2-0.62-3.96-1.36-5.83-2.27
						c-0.69-0.33-1.36-0.69-2.01-1.1c-0.46-0.29-0.95-0.6-1.33-1c-0.04-0.04-0.4-0.49-0.27-0.54c0.15-0.07,0.56-0.25,0.38-0.48
						c-0.16-0.2-0.71-0.05-0.89,0.03c-0.68,0.3-1.13,0.76-0.56,1.42c0.57,0.65,1.42,1.1,2.16,1.53c1.55,0.87,3.19,1.58,4.85,2.2
						c4.83,1.79,9.95,2.83,15.08,3.18c4.83,0.33,9.62-0.14,14.35-1.08c4.23-0.84,8.45-1.98,12.44-3.62
						c1.55-0.64,3.12-1.34,4.49-2.32c0.61-0.43,1.68-1.22,1.46-2.11C85.44,130.89,84.08,131.24,84.18,131.65L84.18,131.65z"/>
				</g>
			</g>
			<g>
				<g>
					<path class="st6" d="M83.8,134.69c0.07,0.63-0.7,1.18-1.14,1.5c-1.03,0.73-2.19,1.28-3.35,1.77c-3.52,1.5-7.25,2.55-10.99,3.35
						c-4.03,0.86-8.19,1.46-12.33,1.34c-4.97-0.15-9.93-0.98-14.67-2.49c-1.96-0.62-3.89-1.36-5.73-2.28
						c-0.65-0.32-1.29-0.67-1.91-1.06c-0.15-0.1-2.1-1.39-1.55-1.66c0.18-0.09,0.4-0.26,0.15-0.39c-0.23-0.13-0.74,0.06-0.95,0.16
						c-0.76,0.37-0.77,0.87-0.19,1.44c0.6,0.58,1.37,1.02,2.1,1.43c1.53,0.86,3.14,1.56,4.78,2.17c4.71,1.76,9.7,2.79,14.71,3.16
						c4.7,0.35,9.37-0.09,13.98-0.98c4.16-0.8,8.31-1.91,12.26-3.48c1.56-0.62,3.15-1.31,4.55-2.25c0.63-0.42,1.73-1.17,1.63-2.06
						C85.12,134.02,83.75,134.29,83.8,134.69L83.8,134.69z"/>
				</g>
			</g>
			<g>
				<g>
					<path class="st7" d="M83.4,137.6c-0.01,0.27-0.1,0.38-0.29,0.6c-0.26,0.29-0.53,0.49-0.91,0.75c-1.06,0.71-2.26,1.25-3.45,1.74
						c-3.48,1.44-7.17,2.44-10.85,3.22c-3.91,0.82-7.96,1.41-11.96,1.28c-4.9-0.15-9.79-0.98-14.45-2.48
						c-1.91-0.62-3.8-1.33-5.59-2.23c-0.65-0.32-1.28-0.67-1.9-1.06c-0.43-0.27-0.88-0.56-1.26-0.91c-0.14-0.13-0.23-0.29-0.35-0.42
						c-0.11-0.11,0.07-0.09-0.12,0.01c0.81-0.44,0.08-1.13-0.59-0.76c-1.9,1.04,0.82,2.6,1.76,3.15c1.47,0.86,3.04,1.57,4.62,2.19
						c4.6,1.8,9.51,2.88,14.43,3.31c4.61,0.4,9.16,0.04,13.71-0.78c4.13-0.75,8.23-1.83,12.16-3.34c1.57-0.6,3.13-1.28,4.55-2.18
						c0.71-0.45,1.84-1.21,1.86-2.17C84.79,136.8,83.42,137.01,83.4,137.6L83.4,137.6z"/>
				</g>
			</g>
			<g>
				<g>
					<path class="st8" d="M83.02,140.67c-0.1,0.64-0.81,1.09-1.36,1.44c-1.12,0.71-2.35,1.24-3.57,1.72
						c-3.44,1.36-7.06,2.34-10.69,3.06c-3.91,0.78-7.9,1.29-11.89,1.12c-4.72-0.21-9.44-1.07-13.92-2.56
						c-1.86-0.62-3.69-1.35-5.44-2.24c-0.63-0.32-1.26-0.67-1.86-1.06c-0.44-0.29-0.89-0.59-1.27-0.95
						c-0.13-0.13-0.32-0.29-0.37-0.48c-0.04-0.12,0.03-0.23-0.06-0.18c0.19-0.12,0.39-0.31,0.14-0.47
						c-0.23-0.15-0.75,0.02-0.96,0.14c-1.58,0.99,1.24,2.45,2.05,2.93c1.45,0.84,2.97,1.53,4.53,2.13
						c4.44,1.73,9.16,2.79,13.91,3.23c4.46,0.41,8.88,0.13,13.28-0.65c4.12-0.73,8.22-1.76,12.15-3.21
						c1.58-0.59,3.17-1.24,4.61-2.11c0.73-0.44,1.91-1.13,2.06-2.06C84.45,140.02,83.09,140.26,83.02,140.67L83.02,140.67z"/>
				</g>
			</g>
			<g>
				<g>
					<path class="st9" d="M82.65,143.74c-0.21,0.7-1,1.17-1.58,1.53c-1.13,0.69-2.37,1.2-3.6,1.67c-3.44,1.31-7.03,2.24-10.64,2.93
						c-3.89,0.74-7.82,1.17-11.78,0.92c-4.64-0.29-9.27-1.19-13.65-2.74c-1.76-0.62-3.49-1.34-5.14-2.21
						c-0.54-0.29-4-2.23-3.21-2.81c0.25-0.18-0.23-0.2-0.31-0.2c-0.31,0.02-0.65,0.13-0.91,0.32c-1.12,0.81,1.85,2.4,2.45,2.74
						c1.42,0.81,2.93,1.5,4.45,2.09c4.37,1.7,9,2.75,13.66,3.19c4.32,0.4,8.57,0.13,12.84-0.6c4.03-0.69,8.04-1.68,11.88-3.06
						c1.61-0.58,3.21-1.22,4.7-2.06c0.75-0.43,1.9-1.05,2.17-1.96C84.05,143.26,82.75,143.41,82.65,143.74L82.65,143.74z"/>
				</g>
			</g>
			<g>
				<g>
					<path class="st10" d="M82.28,146.59c-0.1,0.23-0.33,0.48-0.51,0.63c-0.33,0.28-0.72,0.53-1.09,0.74
						c-1.18,0.67-2.46,1.19-3.73,1.66c-3.41,1.26-6.97,2.16-10.55,2.83c-3.7,0.69-7.46,1.11-11.23,0.88
						c-4.52-0.27-9.02-1.13-13.3-2.61c-1.76-0.61-3.49-1.31-5.15-2.18c-0.62-0.32-1.24-0.67-1.83-1.06
						c-0.43-0.28-0.88-0.58-1.26-0.94c-0.13-0.13-0.23-0.3-0.37-0.42c-0.14-0.13,0.03-0.24-0.18-0.07c0.69-0.6-0.4-0.98-0.88-0.56
						c-1.32,1.15,1.39,2.6,2.24,3.1c1.36,0.81,2.8,1.49,4.27,2.09c4.23,1.74,8.73,2.82,13.26,3.33c4.27,0.48,8.47,0.31,12.71-0.37
						c3.94-0.63,7.85-1.56,11.62-2.85c1.64-0.57,3.29-1.18,4.81-2.02c0.87-0.48,2.03-1.1,2.46-2.06
						C83.87,146.03,82.51,146.08,82.28,146.59L82.28,146.59z"/>
				</g>
			</g>
			<g>
				<g>
					<path class="st11" d="M81.89,149.62c-0.07,0.13,0.03-0.02-0.07,0.11c-0.05,0.06-0.1,0.12-0.15,0.18
						c-0.15,0.16-0.18,0.18-0.38,0.34c-0.38,0.29-0.77,0.53-1.19,0.74c-1.21,0.65-2.5,1.15-3.79,1.61
						c-3.41,1.2-6.95,2.07-10.52,2.69c-3.65,0.65-7.33,0.98-11.04,0.71c-4.41-0.32-8.79-1.22-12.95-2.71
						c-1.68-0.6-3.33-1.3-4.9-2.14c-0.6-0.32-1.18-0.66-1.75-1.03c-0.44-0.29-0.89-0.6-1.28-0.98c-0.13-0.13-0.23-0.27-0.34-0.4
						c-0.1-0.11,0.01-0.18-0.08-0.09c0.21-0.23,0.11-0.52-0.17-0.62c-0.31-0.12-0.74,0.02-0.96,0.26c-1.5,1.63,5.58,4.65,6.61,5.08
						c4.09,1.71,8.45,2.79,12.84,3.33c4.15,0.51,8.24,0.4,12.36-0.22c3.91-0.59,7.8-1.48,11.55-2.72c1.66-0.55,3.32-1.15,4.87-1.96
						c0.95-0.5,2.07-1.09,2.63-2.05c0.17-0.29-0.15-0.51-0.4-0.54C82.45,149.16,82.06,149.33,81.89,149.62L81.89,149.62z"/>
				</g>
			</g>
			<g>
				<g>
					<path class="st12" d="M81.52,152.7c-0.42,0.59-1.26,1.04-1.99,1.41c-1.23,0.62-2.53,1.11-3.83,1.55
						c-3.39,1.14-6.89,1.97-10.41,2.55c-3.58,0.59-7.15,0.87-10.78,0.57c-4.27-0.35-8.52-1.26-12.54-2.74
						c-1.64-0.61-3.26-1.31-4.8-2.15c-0.59-0.32-1.18-0.67-1.74-1.04c-0.22-0.15-1.95-1.28-1.69-1.66c0.18-0.27-0.16-0.4-0.37-0.41
						c-0.3-0.02-0.71,0.11-0.89,0.37c-0.39,0.57,0.36,1.2,0.74,1.53c0.59,0.51,1.25,0.94,1.92,1.34c1.3,0.78,2.68,1.45,4.09,2.04
						c3.99,1.67,8.23,2.75,12.52,3.29c2.18,0.27,4.38,0.45,6.57,0.37c1.84-0.07,3.67-0.25,5.5-0.51c3.81-0.56,7.61-1.39,11.27-2.57
						c1.66-0.53,3.33-1.12,4.9-1.89c1-0.49,2.13-1.06,2.79-1.99c0.19-0.26-0.16-0.4-0.37-0.42C82.1,152.3,81.71,152.43,81.52,152.7
						L81.52,152.7z"/>
				</g>
			</g>
			<g>
				<g>
					<path class="st13" d="M81.2,155.58c-0.53,0.62-1.39,1.06-2.19,1.45c-1.25,0.6-2.57,1.08-3.89,1.51
						c-3.36,1.09-6.82,1.88-10.3,2.43c-3.52,0.55-7,0.77-10.55,0.44c-4.15-0.38-8.27-1.3-12.18-2.76c-1.62-0.61-3.21-1.31-4.72-2.15
						c-0.57-0.32-1.13-0.65-1.67-1.02c-0.42-0.29-0.86-0.59-1.23-0.96c-0.13-0.13-0.28-0.26-0.37-0.42
						c-0.05-0.07-0.09-0.23-0.12-0.18c0.31-0.67-1.05-0.62-1.28-0.12c-0.29,0.62,0.41,1.21,0.83,1.57c0.59,0.51,1.23,0.95,1.89,1.34
						c1.27,0.78,2.61,1.43,3.98,2.02c3.83,1.66,7.91,2.73,12.04,3.32c3.96,0.56,7.86,0.57,11.82,0.04
						c3.75-0.51,7.47-1.29,11.08-2.39c1.69-0.51,3.38-1.08,4.98-1.82c1.05-0.48,2.23-1.05,3-1.95
						C82.87,155.29,81.57,155.15,81.2,155.58L81.2,155.58z"/>
				</g>
			</g>
			<g>
				<g>
					<path class="st14" d="M80.82,158.61c-0.68,0.69-1.82,1.2-2.79,1.62c-1.54,0.66-3.13,1.17-4.74,1.63
						c-3.71,1.06-7.54,1.82-11.38,2.23c-4.13,0.43-8.26,0.15-12.33-0.67c-3.76-0.76-7.49-1.94-10.9-3.69
						c-1.19-0.61-2.37-1.28-3.43-2.12c-0.3-0.24-0.57-0.45-0.82-0.77c-0.07-0.09-0.2-0.29-0.15-0.22c-0.02-0.04-0.04-0.09-0.04-0.13
						c0-0.01-0.02,0.11,0.02-0.01c0.1-0.32-0.41-0.42-0.62-0.4c-0.32,0.02-0.65,0.21-0.75,0.53c-0.16,0.51,0.53,1.07,0.84,1.35
						c0.84,0.75,1.81,1.36,2.79,1.92c3.31,1.88,6.95,3.17,10.64,4.05c4.33,1.03,8.83,1.56,13.28,1.21c4.04-0.32,8.08-1.08,12-2.12
						c1.99-0.53,3.97-1.14,5.87-1.92c1.27-0.53,2.64-1.14,3.62-2.12c0.22-0.23,0.11-0.51-0.16-0.61
						C81.46,158.24,81.05,158.38,80.82,158.61L80.82,158.61z"/>
				</g>
			</g>
		</g>
		<g>
			<g>
				<g>
					<path class="st15" d="M86.59,121.86c0.05,0.06,0.09,0.13,0.13,0.19c0.02,0.03-0.02-0.11,0.01,0.05
						c0.02,0.09,0.01,0.15-0.02,0.2c-0.03,0.09-0.07,0.17-0.1,0.25c0.08-0.17-0.03,0.05-0.07,0.1c-0.07,0.1-0.13,0.18-0.2,0.27
						c-0.02,0.03-0.09,0.11,0.01-0.01c-0.06,0.07-0.11,0.13-0.17,0.19c-0.9,0.95-1.95,1.58-3.1,2.24
						c-3.61,2.07-7.61,3.51-11.61,4.62c-4.63,1.29-9.46,2.12-14.27,2.04c-5.51-0.1-10.99-1.48-16.13-3.4
						c-2.28-0.85-4.53-1.82-6.7-2.94c-0.76-0.39-1.51-0.79-2.24-1.23c-0.44-0.27-0.89-0.54-1.28-0.89c-0.06-0.05-0.3-0.29-0.26-0.3
						c0.09-0.01-0.14,0.4-0.15,0.35c-0.01-0.03,0.26-0.1,0.28-0.11c0.85-0.26,0.68-1.53-0.26-1.23c-0.86,0.27-1.73,1.02-1.04,1.94
						c0.57,0.76,1.55,1.23,2.36,1.7c1.72,1,3.53,1.86,5.35,2.65c5.24,2.26,10.82,3.97,16.51,4.56c5.43,0.57,10.89-0.11,16.17-1.41
						c4.51-1.11,9.01-2.66,13.12-4.86c1.48-0.79,3.04-1.69,4.2-2.92c0.66-0.69,1.5-1.89,0.75-2.82
						C87.39,120.47,86.09,121.23,86.59,121.86L86.59,121.86z"/>
				</g>
			</g>
			<g>
				<g>
					<path class="st16" d="M86.29,124.16c0.03,0.04,0.07,0.13,0.08,0.23c0.02,0.15-0.02,0.29-0.07,0.43
						c-0.13,0.37-0.41,0.7-0.68,0.99c-0.89,0.95-2.04,1.66-3.15,2.3c-3.58,2.05-7.54,3.5-11.51,4.6c-4.69,1.31-9.58,2.14-14.46,2.03
						c-5.46-0.12-10.88-1.45-15.97-3.36c-2.21-0.83-4.39-1.77-6.49-2.88c-0.73-0.38-1.45-0.78-2.15-1.21
						c-0.16-0.1-0.32-0.21-0.49-0.31c-0.12-0.08-0.53-0.3-0.58-0.46c-0.09-0.29,0.32-0.41,0.53-0.48c0.34-0.12-0.67-1.11-1.09-0.98
						c-2.13,0.71,1.36,2.75,2.15,3.21c1.69,0.99,3.46,1.85,5.26,2.64c5.05,2.22,10.43,3.87,15.92,4.54
						c5.34,0.65,10.73,0.09,15.95-1.13c4.48-1.05,8.94-2.55,13.01-4.7c1.46-0.77,2.97-1.63,4.14-2.79c0.62-0.62,1.28-1.52,0.68-2.38
						c-0.2-0.27-0.53-0.55-0.86-0.62C86.26,123.78,86.11,123.91,86.29,124.16L86.29,124.16z"/>
				</g>
			</g>
			<g>
				<g>
					<path class="st17" d="M85.84,127.25c0.11,0.18,0.01-0.05,0.04,0.06c0.04,0.18,0.02-0.08,0.01,0.08
						c-0.01,0.14,0.01,0.05-0.01,0.09c-0.02,0.09-0.05,0.17-0.08,0.25c-0.06,0.15-0.09,0.18-0.22,0.36
						c-0.14,0.19-0.29,0.36-0.45,0.53c-0.9,0.92-2.06,1.62-3.18,2.25c-3.56,2.02-7.5,3.43-11.44,4.48
						c-4.69,1.25-9.59,2.02-14.45,1.83c-5.26-0.21-10.44-1.51-15.34-3.37c-2.12-0.8-4.19-1.72-6.2-2.78
						c-0.72-0.38-1.44-0.78-2.13-1.21c-0.4-0.25-0.85-0.5-1.17-0.84c-0.03-0.03-0.09-0.09-0.09-0.09c-0.06-0.11-0.06-0.09-0.01,0.06
						c0,0.02-0.01,0.03-0.02,0.04c0.05-0.01,0.28-0.15,0.38-0.19c0.35-0.13,0.16-0.64,0.01-0.83c-0.23-0.29-0.6-0.43-0.95-0.31
						c-0.94,0.34-0.9,1.15-0.31,1.83c0.62,0.7,1.5,1.19,2.29,1.66c1.6,0.95,3.29,1.77,4.98,2.52c4.97,2.19,10.24,3.83,15.64,4.49
						c5.33,0.66,10.71,0.15,15.92-1.05c4.47-1.03,8.92-2.51,12.98-4.65c1.47-0.77,2.98-1.65,4.17-2.83
						c0.67-0.66,1.33-1.65,0.77-2.58c-0.18-0.29-0.54-0.59-0.91-0.51C85.76,126.59,85.68,126.98,85.84,127.25L85.84,127.25z"/>
				</g>
			</g>
			<g>
				<g>
					<path class="st18" d="M85.32,130.12c0.03,0.07,0.09,0.21,0.04,0.06c0.02,0.06,0.02,0.13,0.02,0.19
						c0.01-0.19-0.01,0.03-0.02,0.08c-0.02,0.04-0.03,0.08-0.04,0.13c-0.04,0.14,0.06-0.12-0.01,0.03c-0.19,0.4-0.42,0.65-0.7,0.92
						c-0.95,0.92-2.1,1.63-3.24,2.26c-3.61,2-7.58,3.4-11.57,4.41c-4.72,1.2-9.63,1.86-14.51,1.56c-5.01-0.32-9.97-1.61-14.64-3.43
						c-2.02-0.79-3.99-1.68-5.9-2.71c-0.64-0.34-1.26-0.7-1.85-1.07c-0.42-0.27-0.91-0.54-1.25-0.92c-0.01-0.01-0.11-0.15-0.13-0.16
						c-0.07-0.03-0.02-0.12-0.03,0.01c0,0.02-0.03,0.07-0.04,0.07c0.05-0.01,0.15-0.08,0.22-0.11c0.34-0.13,0.39-0.55,0.18-0.81
						c-0.24-0.31-0.7-0.37-1.04-0.23c-0.82,0.32-1.04,1.06-0.46,1.74c0.57,0.69,1.41,1.15,2.17,1.61c1.55,0.94,3.18,1.75,4.83,2.5
						c4.71,2.11,9.73,3.69,14.85,4.4c5.38,0.74,10.82,0.36,16.11-0.79c4.49-0.98,8.96-2.43,13.05-4.53
						c1.52-0.78,3.09-1.66,4.33-2.85c0.65-0.63,1.52-1.64,1.03-2.6C86.39,129.17,84.92,129.34,85.32,130.12L85.32,130.12z"/>
				</g>
			</g>
			<g>
				<g>
					<path class="st19" d="M84.93,133.06c0.01,0.02,0.01-0.1,0,0.05c0,0.04,0.03-0.13-0.01,0.06c-0.04,0.2,0.01,0.02-0.02,0.08
						c-0.04,0.08-0.07,0.16-0.11,0.24c-0.02,0.04-0.04,0.08-0.07,0.12c0.07-0.12,0.02-0.04,0.01-0.01
						c-0.06,0.08-0.12,0.16-0.18,0.24c-0.16,0.2-0.34,0.38-0.53,0.56c-0.89,0.83-2.11,1.56-3.22,2.18
						c-3.57,1.96-7.52,3.31-11.46,4.28c-4.75,1.18-9.73,1.77-14.63,1.38c-4.81-0.38-9.53-1.62-14.01-3.39
						c-1.9-0.75-3.77-1.58-5.56-2.56c-0.66-0.36-1.31-0.73-1.94-1.14c-0.39-0.25-0.8-0.51-1.15-0.82c-0.07-0.07-0.29-0.31-0.29-0.3
						c0.04-0.02-0.24,0.25-0.02,0.15c0.89-0.38,0.19-1.57-0.62-1.22c-0.82,0.35-1.13,1.09-0.55,1.83c0.54,0.69,1.36,1.17,2.1,1.62
						c1.47,0.91,3.02,1.69,4.59,2.42c4.52,2.08,9.35,3.6,14.27,4.36c5.38,0.83,10.86,0.51,16.17-0.6c4.53-0.95,9.02-2.38,13.15-4.5
						c1.53-0.78,3.05-1.66,4.31-2.83c0.73-0.67,1.53-1.65,1.11-2.7C85.99,131.78,84.58,132.2,84.93,133.06L84.93,133.06z"/>
				</g>
			</g>
			<g>
				<g>
					<path class="st20" d="M84.48,135.84c0.19,0.64-0.48,1.31-0.91,1.71c-0.95,0.89-2.11,1.58-3.25,2.2
						c-3.56,1.94-7.47,3.24-11.4,4.17c-4.8,1.13-9.79,1.62-14.7,1.12c-4.69-0.48-9.28-1.74-13.63-3.52
						c-1.8-0.74-3.58-1.56-5.28-2.52c-0.6-0.34-1.19-0.69-1.76-1.07c-0.17-0.11-1.91-1.32-1.44-1.55c0.22-0.1,0.4-0.32,0.15-0.48
						c-0.26-0.16-0.78,0.06-1.02,0.17c-1.81,0.86,0.87,2.36,1.67,2.85c1.44,0.88,2.95,1.65,4.48,2.36c4.36,2,9.01,3.45,13.76,4.17
						c5.31,0.81,10.72,0.52,15.98-0.54c4.53-0.91,9.02-2.32,13.17-4.41c1.53-0.77,3.07-1.64,4.35-2.78c0.58-0.52,1.56-1.42,1.3-2.3
						C85.81,135.02,84.36,135.43,84.48,135.84L84.48,135.84z"/>
				</g>
			</g>
			<g>
				<g>
					<path class="st21" d="M84.26,137.98c0.13,0.68-0.55,1.34-0.99,1.76c-0.92,0.88-2.04,1.57-3.15,2.19
						c-3.43,1.92-7.22,3.24-11.03,4.18c-4.81,1.19-9.84,1.77-14.79,1.4c-4.69-0.35-9.32-1.51-13.7-3.22
						c-1.88-0.73-3.71-1.57-5.48-2.53c-0.65-0.35-1.28-0.72-1.9-1.12c-0.39-0.25-0.77-0.51-1.13-0.81c-0.11-0.1,0.04,0.04,0.04,0.07
						c0.01-0.05-0.05-0.12-0.02-0.17c0.09-0.12,0.15-0.2,0.29-0.27c0.12-0.07-0.73-1.25-1.04-1.09c-1.35,0.72,1.99,2.93,2.53,3.28
						c1.33,0.85,2.75,1.6,4.18,2.28c4.18,1.98,8.66,3.43,13.22,4.21c5.23,0.89,10.54,0.7,15.75-0.27c4.35-0.81,8.66-2.13,12.63-4.08
						c1.5-0.74,3.01-1.57,4.29-2.66c0.57-0.49,1.53-1.31,1.37-2.18c-0.06-0.29-0.34-0.57-0.56-0.75
						C84.74,138.18,84.23,137.79,84.26,137.98L84.26,137.98z"/>
				</g>
			</g>
			<g>
				<g>
					<path class="st22" d="M83.72,141.6c0,0.03,0,0.12-0.05,0.28c0.04-0.12-0.01,0.02-0.04,0.07c-0.02,0.04-0.16,0.28-0.09,0.16
						c-0.26,0.4-0.4,0.51-0.75,0.83c-0.89,0.79-1.99,1.47-3.09,2.06c-3.37,1.82-7.06,3.05-10.78,3.92
						c-4.7,1.09-9.62,1.59-14.44,1.15c-4.54-0.41-9.04-1.57-13.26-3.28c-1.81-0.73-3.58-1.56-5.28-2.52
						c-0.62-0.35-1.23-0.72-1.82-1.12c-0.4-0.27-0.8-0.54-1.15-0.87c-0.15-0.14-0.25-0.32-0.39-0.46c0.02,0.02-0.04-0.08-0.05-0.1
						c-0.01-0.07-0.02-0.08-0.01-0.05c-0.29,0.29-0.36,0.37-0.19,0.26c0.22-0.13,0.57-0.5,0.39-0.78c-0.18-0.29-0.66-0.09-0.87,0.04
						c-1.86,1.12,0.72,2.65,1.69,3.26c1.38,0.87,2.83,1.63,4.31,2.31c4.25,1.97,8.79,3.39,13.43,4.07
						c5.22,0.77,10.53,0.49,15.7-0.53c4.26-0.84,8.51-2.17,12.37-4.16c1.47-0.75,2.93-1.59,4.17-2.68c0.68-0.6,1.61-1.49,1.53-2.48
						C85.02,140.38,83.68,141.02,83.72,141.6L83.72,141.6z"/>
				</g>
			</g>
			<g>
				<g>
					<path class="st23" d="M83.31,143.89c-0.01,0.06-0.02,0.12-0.02,0.18c-0.03,0.17,0.05-0.09-0.02,0.07
						c-0.07,0.15-0.14,0.29-0.23,0.42c-0.01,0.01-0.15,0.2-0.26,0.32c-0.15,0.17-0.32,0.33-0.49,0.49c-0.89,0.81-1.94,1.45-3,2.04
						c-3.28,1.81-6.89,3.05-10.52,3.91c-4.67,1.1-9.53,1.61-14.31,1.24c-4.49-0.35-8.91-1.45-13.1-3.11
						c-1.78-0.7-3.53-1.51-5.21-2.45c-0.63-0.35-1.25-0.73-1.86-1.13c-0.37-0.25-0.76-0.51-1.09-0.81c-0.12-0.1-0.24-0.31-0.37-0.37
						c-0.22-0.12,0.03-0.08-0.03-0.03c-0.04,0.04-0.01,0.18-0.09,0.24c0.7-0.49-0.16-1.71-0.79-1.26c-2.41,1.7,5.24,5.33,6.37,5.87
						c4.14,1.96,8.6,3.34,13.13,4.05c5.12,0.8,10.37,0.58,15.46-0.37c4.18-0.78,8.34-2.05,12.15-3.96c1.44-0.72,2.86-1.54,4.09-2.58
						c0.65-0.54,1.52-1.34,1.56-2.26c0.02-0.39-0.19-0.75-0.57-0.88C83.8,143.39,83.32,143.51,83.31,143.89L83.31,143.89z"/>
				</g>
			</g>
			<g>
				<g>
					<path class="st24" d="M83.01,146.59c-0.03,0.17-0.17,0.44-0.35,0.69c-0.22,0.3-0.51,0.58-0.79,0.83
						c-0.9,0.8-1.94,1.45-2.99,2.03c-3.17,1.76-6.67,2.96-10.19,3.8c-4.6,1.1-9.42,1.6-14.15,1.27c-4.5-0.32-8.93-1.38-13.12-3.03
						c-1.78-0.7-3.54-1.5-5.21-2.45c-0.63-0.36-1.25-0.73-1.86-1.14c-0.37-0.26-0.76-0.52-1.09-0.82c-0.03-0.03-0.37-0.38-0.37-0.38
						c0.08-0.04-0.05,0.27,0.08,0.16c0.46-0.39-0.46-1.57-0.92-1.2c-0.62,0.53,0.01,1.43,0.41,1.87c0.59,0.64,1.32,1.14,2.05,1.61
						c1.31,0.86,2.7,1.6,4.11,2.27c4.04,1.93,8.38,3.29,12.81,3.99c5.11,0.81,10.37,0.6,15.46-0.34c4.04-0.75,8.03-1.97,11.72-3.8
						c1.38-0.69,2.74-1.47,3.93-2.45c0.65-0.54,1.46-1.26,1.6-2.15C84.23,146.82,83.12,145.85,83.01,146.59L83.01,146.59z"/>
				</g>
			</g>
			<g>
				<g>
					<path class="st25" d="M82.68,149.26c-0.18,0.65-0.78,1.2-1.27,1.62c-0.86,0.75-1.83,1.37-2.83,1.94
						c-3.04,1.71-6.39,2.89-9.77,3.71c-4.56,1.12-9.34,1.62-14.03,1.35c-4.47-0.26-8.9-1.27-13.08-2.87
						c-1.82-0.7-3.6-1.51-5.31-2.46c-0.66-0.37-1.3-0.76-1.93-1.17c-0.34-0.23-0.67-0.46-0.99-0.71c-0.11-0.09-0.45-0.32-0.46-0.4
						c0.07,0.42,0.13,0.02,0.2-0.06c0.2-0.21-0.81-1.31-0.94-1.18c-0.45,0.48,0.48,1.45,0.77,1.76c0.59,0.65,1.31,1.17,2.04,1.66
						c1.26,0.85,2.61,1.58,3.98,2.24c3.96,1.91,8.21,3.25,12.55,3.94c5,0.79,10.14,0.6,15.12-0.29c3.94-0.7,7.86-1.86,11.45-3.64
						c1.35-0.67,2.68-1.43,3.86-2.38c0.64-0.52,1.39-1.16,1.62-1.99c0.06-0.22-0.36-0.65-0.49-0.79
						C83.11,149.48,82.74,149.07,82.68,149.26L82.68,149.26z"/>
				</g>
			</g>
			<g>
				<g>
					<path class="st26" d="M82.03,152.54c-0.24,0.6-0.74,1.06-1.27,1.52c-0.84,0.73-1.81,1.33-2.78,1.87
						c-2.93,1.64-6.17,2.74-9.43,3.5c-4.48,1.05-9.18,1.51-13.78,1.18c-4.35-0.31-8.66-1.33-12.7-2.97c-1.72-0.7-3.4-1.5-5.01-2.44
						c-0.57-0.34-1.14-0.69-1.68-1.07c-0.43-0.31-0.86-0.62-1.24-0.99c-0.14-0.14-0.29-0.28-0.39-0.45
						c-0.04-0.06-0.07-0.12-0.1-0.18c-0.03-0.08,0.04-0.15-0.04-0.03c0.43-0.61-1.01-0.81-1.31-0.38c-0.45,0.65,0.34,1.32,0.79,1.72
						c0.58,0.51,1.23,0.95,1.88,1.36c1.35,0.87,2.77,1.62,4.23,2.29c4.01,1.84,8.31,3.1,12.68,3.69c5.02,0.68,10.2,0.41,15.18-0.54
						c3.78-0.72,7.5-1.86,10.94-3.58c1.32-0.67,2.6-1.43,3.77-2.36c0.66-0.53,1.41-1.17,1.73-1.98
						C83.73,152.13,82.24,152.03,82.03,152.54L82.03,152.54z"/>
				</g>
			</g>
			<g>
				<g>
					<path class="st27" d="M81.85,154.9c-0.32,0.61-0.86,1.11-1.38,1.56c-0.84,0.72-1.78,1.32-2.74,1.86
						c-2.88,1.62-6.04,2.72-9.24,3.48c-8.78,2.09-18.08,1.75-26.52-1.53c-1.75-0.68-3.46-1.48-5.09-2.42
						c-0.59-0.34-1.17-0.7-1.73-1.09c-0.37-0.26-0.73-0.52-1.07-0.81c-0.14-0.12-0.48-0.29-0.38-0.5c0.15-0.32-0.9-1.33-1.06-1
						c-0.27,0.58,0.73,1.51,1.08,1.84c0.62,0.61,1.33,1.12,2.06,1.6c1.25,0.84,2.57,1.56,3.93,2.21c3.84,1.84,7.96,3.1,12.18,3.73
						c4.92,0.73,9.98,0.53,14.87-0.34c3.67-0.65,7.31-1.72,10.66-3.37c1.27-0.63,2.52-1.34,3.64-2.21c0.67-0.53,1.4-1.13,1.8-1.9
						C83.06,155.63,81.95,154.71,81.85,154.9L81.85,154.9z"/>
				</g>
			</g>
			<g>
				<g>
					<path class="st28" d="M81.53,157.69c-0.44,0.67-1.08,1.22-1.72,1.72c-0.99,0.77-2.08,1.43-3.19,2
						c-3.38,1.75-7.09,2.83-10.83,3.48c-9.16,1.59-18.76,0.63-27.09-3.65c-1.34-0.69-2.67-1.45-3.87-2.38
						c-0.21-0.17-0.42-0.34-0.63-0.52c-0.09-0.08-0.17-0.16-0.26-0.23c-0.15-0.15-0.04-0.04-0.14-0.14
						c-0.06-0.07-0.12-0.13-0.17-0.2c0.18,0.22-0.09-0.24,0.06,0.09c-0.08-0.18,0.08,0.24,0.07,0.16c0.03,0.13,0.04,0.14,0.02,0.22
						c0.1-0.3-0.11-0.67-0.27-0.9c-0.05-0.07-0.46-0.57-0.55-0.3c-0.24,0.77,0.62,1.68,1.12,2.16c0.84,0.81,1.83,1.49,2.82,2.1
						c3.31,2.05,7.03,3.49,10.79,4.44c5.17,1.3,10.49,1.5,15.77,0.91c4.3-0.48,8.59-1.47,12.54-3.26c1.47-0.67,2.9-1.45,4.19-2.4
						c0.79-0.59,1.61-1.25,2.15-2.09C82.58,158.56,81.76,157.36,81.53,157.69L81.53,157.69z"/>
				</g>
			</g>
		</g>
		<g>
			<path class="st29" d="M58.95,103.15c-20.38,0-36.45,7.82-36.45,17.12s15.22,18.33,35.61,18.33s37.75-9.31,37.75-18.61
				C95.86,110.69,79.33,103.15,58.95,103.15z M58.95,133.73c-17.68,0-32.01-6.36-32.01-14.2s14.33-14.2,32.01-14.2
				s32.01,6.36,32.01,14.2C90.96,127.38,76.63,133.73,58.95,133.73z"/>
			<path class="st30" d="M93.94,119.78c0,7.82-15.07,16.98-33.14,16.98s-36.25-6.34-36.25-14.16s12.41-19.23,30.48-19.23
				C83.96,103.37,93.94,111.96,93.94,119.78z"/>
			<path class="st0" d="M58.9,103.15c-19.97,0-36.37,6.97-36.37,15.84c0,8.87,15.59,17.96,35.56,17.96s36.98-8.89,36.98-17.76
				C95.06,110.33,78.87,103.15,58.9,103.15z M58.9,132.32c-17.32,0-31.36-6.07-31.36-13.55s14.04-13.55,31.36-13.55
				s31.36,6.07,31.36,13.55C90.26,126.26,76.22,132.32,58.9,132.32z"/>
		</g>
		<g>
			<path class="st29" d="M84.8,122.98c0.44-0.13,0.48-3.19,0.48-3.19s0.61-9.27-1.28-22.62c-2.38-16.83-11.05-21.57-11.05-21.57
				l0.13-37.27L42.77,38.7l0.4,36.67c0,0-8.3,7.18-9.59,17.43c-1.29,10.24-5.26,23.34-3.79,29.49c0,0,5.1,8.88,28.45,9.44
				C81.6,132.29,84.8,122.98,84.8,122.98z"/>
			<ellipse class="st29" cx="57.96" cy="39" rx="15.31" ry="7.69"/>
			<path class="st29" d="M72.96,75.39c0,3.14-6.21,7.75-14.62,7.75s-15.07-4.61-15.07-7.75"/>
			<ellipse class="st0" cx="58.05" cy="39" rx="8.81" ry="4.55"/>
			<ellipse class="st0" cx="58.05" cy="32.92" rx="8.81" ry="4.55"/>
			<path class="st31" d="M49.24,33.07V39c0,0,0.21,4.97,9.4,4.67c9.18-0.31,8.23-4.67,8.23-4.67v-6.09c0,0-1.07,4.19-8.66,4.26
				C50.61,37.24,49.24,33.07,49.24,33.07z"/>
		</g>
		<g>
			<g>
				<g>
					<path class="st1" d="M82.43,91.52c-0.04-0.02-0.21-0.21-0.24-0.27c0.02,0.03-0.14-0.35-0.11-0.26c-0.12-0.42,0-0.06-0.02-0.08
						c0.01,0.01,0.03-0.12-0.01,0.01c-0.03,0.11-0.04,0.13-0.03,0.12c-0.13,0.31-0.34,0.58-0.55,0.83c-0.73,0.87-1.65,1.6-2.58,2.25
						c-3.1,2.2-6.68,3.75-10.32,4.81c-5.14,1.5-10.61,2.04-15.92,1.27c-4.64-0.67-9.23-2.17-13.32-4.47
						c-1.51-0.85-2.99-1.8-4.26-2.99c-0.22-0.21-0.46-0.45-0.57-0.57c-0.09-0.11-0.18-0.21-0.26-0.32c-0.04-0.04-0.07-0.09-0.1-0.13
						c-0.11-0.15,0.09,0.15,0-0.01c-0.04-0.07-0.24-0.35-0.09-0.13c-0.01-0.01-0.04-0.11-0.05-0.11c-0.03,0.01,0.04,0.11,0.02,0.04
						c-0.02-0.04-0.02-0.02,0.01-0.04c0.25-0.45-0.64-1.64-0.9-1.15c-0.45,0.81,0.37,1.92,0.87,2.51c0.98,1.16,2.21,2.09,3.47,2.93
						c3.95,2.63,8.53,4.39,13.17,5.36c2.92,0.61,5.89,0.92,8.88,0.77c2.84-0.14,5.66-0.56,8.41-1.26c4.09-1.04,8.12-2.67,11.59-5.09
						c1.03-0.72,2.05-1.52,2.87-2.49c0.53-0.63,0.95-1.37,0.5-2.17c-0.12-0.21-0.29-0.4-0.49-0.54c-0.27-0.18-0.48-0.02-0.48,0.28
						C81.89,90.93,82.15,91.33,82.43,91.52L82.43,91.52z"/>
				</g>
			</g>
			<g>
				<g>
					<path class="st32" d="M82.6,93.3c-0.17-0.12-0.33-0.3-0.37-0.37c-0.07-0.12-0.04,0.01-0.02-0.07
						c-0.03,0.11-0.02,0.22-0.06,0.32c-0.07,0.22-0.32,0.57-0.51,0.81c-0.7,0.88-1.61,1.61-2.51,2.26
						c-3.11,2.26-6.77,3.81-10.45,4.87c-5.16,1.49-10.64,2.05-15.97,1.32c-4.75-0.65-9.47-2.14-13.67-4.47
						c-1.47-0.81-3.11-1.88-4.23-2.92c-0.22-0.21-0.43-0.42-0.63-0.65c-0.02-0.02-0.05-0.06-0.15-0.18
						c-0.04-0.05-0.22-0.32-0.15-0.2c-0.05-0.09-0.1-0.18-0.14-0.26c0,0-0.01,0.02-0.04-0.11c-0.02-0.06-0.01-0.2,0.01-0.23
						c0.24-0.44-0.97-1.32-1.17-0.95c-0.4,0.74,0.5,1.72,0.95,2.22c1.03,1.16,2.34,2.1,3.63,2.94c4.07,2.64,8.76,4.42,13.5,5.4
						c2.97,0.61,5.98,0.92,9.01,0.78c2.83-0.14,5.66-0.54,8.41-1.21c4.15-1.02,8.24-2.65,11.77-5.08c1.04-0.72,2.08-1.52,2.9-2.5
						c0.4-0.48,0.92-1.17,0.59-1.82c-0.14-0.28-0.39-0.49-0.64-0.67c-0.16-0.12-0.59-0.3-0.67-0.02
						C81.95,92.82,82.43,93.17,82.6,93.3L82.6,93.3z"/>
				</g>
			</g>
			<g>
				<g>
					<path class="st33" d="M82.52,95.33c-0.19-0.15-0.12-0.1-0.08-0.06c-0.17-0.17-0.1-0.1-0.06-0.07c-0.12-0.12,0.04-0.07-0.01,0
						c-0.02,0.02,0.02-0.13-0.01,0.03c-0.03,0.18,0.02-0.01-0.01,0.08c-0.11,0.34-0.27,0.59-0.42,0.78c-0.68,0.9-1.6,1.65-2.51,2.31
						c-3.08,2.25-6.73,3.79-10.39,4.82c-5.25,1.49-10.84,2.06-16.25,1.29c-4.79-0.68-9.52-2.17-13.78-4.5
						c-1.56-0.85-3.15-1.85-4.43-3.02c-0.22-0.21-0.43-0.41-0.64-0.64c-0.2-0.22-0.21-0.22-0.39-0.51
						c-0.05-0.07-0.09-0.15-0.13-0.23c0.08,0.17-0.03-0.07-0.04-0.13c-0.02-0.05-0.03-0.06,0.02-0.14c0.32-0.62-1.05-1.22-1.38-0.59
						c-0.4,0.76,0.51,1.75,0.98,2.24c1.07,1.14,2.4,2.07,3.71,2.89c4.23,2.63,9.03,4.4,13.9,5.35c3.04,0.59,6.12,0.86,9.21,0.7
						c2.87-0.15,5.72-0.56,8.51-1.25c4.14-1.03,8.27-2.63,11.79-5.08c1.05-0.73,2.11-1.54,2.92-2.55c0.41-0.51,0.95-1.24,0.7-1.94
						c-0.09-0.24-0.26-0.41-0.46-0.57C82.62,94.05,81.74,94.73,82.52,95.33L82.52,95.33z"/>
				</g>
			</g>
			<g>
				<g>
					<path class="st34" d="M82.68,97.41c0.15,0.12-0.11-0.14-0.02-0.03c0.02,0.02-0.13-0.15-0.02-0.02c-0.23-0.27,0.09-0.04-0.02,0
						c-0.04,0.02,0.04-0.2,0-0.07c-0.01,0.04-0.02,0.08-0.02,0.12c-0.04,0.18-0.01,0.05-0.02,0.06c-0.03,0.06-0.05,0.12-0.08,0.18
						c-0.09,0.18-0.2,0.34-0.31,0.5c-0.1,0.13,0.03-0.02-0.12,0.15c-0.07,0.09-0.15,0.18-0.23,0.26c-0.18,0.19-0.35,0.37-0.54,0.56
						c-0.48,0.45-0.98,0.87-1.51,1.25c-3.05,2.25-6.7,3.76-10.34,4.79c-5.3,1.5-10.94,2.07-16.42,1.36
						c-4.96-0.65-9.87-2.19-14.27-4.54c-1.61-0.86-3.18-1.81-4.55-3.02c-0.25-0.22-0.49-0.45-0.72-0.69
						c-0.02-0.02-0.16-0.18-0.04-0.04c-0.04-0.04-0.08-0.09-0.11-0.13c-0.08-0.1-0.15-0.19-0.22-0.29c-0.04-0.06-0.2-0.35-0.1-0.14
						c-0.04-0.08-0.07-0.16-0.1-0.24c-0.03-0.08,0.04,0.05,0.02,0.05c-0.01,0-0.01-0.1-0.01-0.11c-0.03,0.36,0.01,0.07,0.01,0.07
						c-0.03-0.04-0.07,0.16-0.02,0.05c0.39-0.76-0.93-1.48-1.32-0.72c-0.45,0.88,0.43,1.87,1,2.46c1.09,1.14,2.45,2.06,3.79,2.89
						c4.31,2.65,9.22,4.41,14.18,5.34c3.09,0.59,6.21,0.84,9.35,0.66c2.89-0.16,5.77-0.57,8.58-1.25c4.15-1.02,8.3-2.61,11.83-5.08
						c1.06-0.74,2.11-1.56,2.93-2.57c0.48-0.59,1.05-1.43,0.73-2.22c-0.08-0.19-0.21-0.37-0.37-0.51
						C82.93,95.92,81.92,96.79,82.68,97.41L82.68,97.41z"/>
				</g>
			</g>
			<g>
				<g>
					<path class="st35" d="M82.71,99.2c0.15,0.12,0.18,0.31,0.16,0.45c-0.04,0.3-0.23,0.63-0.36,0.83
						c-0.59,0.89-1.45,1.61-2.29,2.25c-3.06,2.31-6.72,3.83-10.39,4.87c-5.35,1.52-11.06,2.05-16.58,1.32
						c-5.07-0.67-10.09-2.24-14.61-4.64c-1.65-0.87-3.29-1.86-4.7-3.1c-0.42-0.38-0.86-0.78-1.18-1.27
						c-0.16-0.24-0.29-0.54-0.2-0.73c0.15-0.29-0.45-0.32-0.6-0.32c-0.29,0.02-0.72,0.12-0.86,0.41c-0.34,0.67,0.61,1.56,1.02,1.96
						c1.15,1.13,2.54,2.05,3.93,2.86c4.45,2.63,9.49,4.36,14.57,5.25c5.98,1.05,12.11,0.73,18.01-0.72c4.22-1.03,8.42-2.61,12-5.1
						c1.06-0.73,2.13-1.57,2.94-2.58c0.37-0.47,0.96-1.24,0.73-1.89c-0.04-0.13-0.12-0.23-0.21-0.32c-0.25-0.21-0.67-0.16-0.96-0.07
						C83.01,98.72,82.46,98.98,82.71,99.2L82.71,99.2z"/>
				</g>
			</g>
			<g>
				<g>
					<path class="st36" d="M83.14,101.2c0.01,0.01,0.05,0.06,0.06,0.06c-0.36,0.01,0.01-0.15-0.05-0.05
						c-0.04,0.06-0.02-0.11,0.01,0.03c0.02,0.12,0.02-0.12,0.01,0.05c0,0.07-0.01,0.14-0.02,0.21c-0.02,0.12,0.03-0.06-0.03,0.1
						c-0.03,0.07-0.05,0.14-0.08,0.21c-0.08,0.18-0.17,0.34-0.28,0.5c-0.54,0.83-1.5,1.64-2.34,2.29c-3.04,2.3-6.71,3.81-10.36,4.85
						c-5.45,1.56-11.32,2.15-16.95,1.47c-5.14-0.62-10.2-2.14-14.81-4.49c-1.68-0.85-3.44-1.89-4.83-3.06
						c-0.26-0.21-0.51-0.44-0.74-0.68c-0.25-0.25-0.28-0.29-0.43-0.51c-0.06-0.09-0.12-0.17-0.16-0.26c-0.07-0.12,0.05,0.12,0,0
						c-0.02-0.04-0.04-0.09-0.05-0.13c-0.04-0.17-0.03,0.06-0.02-0.1c0.02-0.1-0.06,0.09,0.02-0.06c0.28-0.58-1.09-1.2-1.37-0.62
						c-0.38,0.78,0.65,1.77,1.13,2.24c1.2,1.17,2.63,2.1,4.06,2.93c4.55,2.65,9.66,4.44,14.84,5.36c3.19,0.57,6.38,0.79,9.61,0.62
						c2.95-0.16,5.88-0.57,8.75-1.26c4.18-1.01,8.34-2.57,11.9-5.04c1.04-0.73,2.08-1.55,2.85-2.56c0.42-0.56,0.92-1.33,0.65-2.06
						c-0.07-0.18-0.2-0.36-0.34-0.49c-0.24-0.23-0.68-0.42-1.01-0.26C82.84,100.65,82.91,101,83.14,101.2L83.14,101.2z"/>
				</g>
			</g>
			<g>
				<g>
					<path class="st37" d="M83.6,103.49c-0.03-0.03-0.15-0.16-0.07-0.07c0.08,0.1-0.04-0.05-0.05-0.08
						c0.08,0.18-0.05-0.16,0.01,0.01c0.02,0.04,0,0.12,0.01,0.01c0.01-0.17-0.02,0.02-0.01,0.02c-0.01,0,0,0.08,0,0.09
						c0,0.01,0.03-0.15,0-0.02c-0.02,0.07-0.03,0.13-0.05,0.2c-0.01,0.04-0.03,0.07-0.04,0.11c-0.03,0.09,0.05-0.1-0.01,0.02
						c-0.08,0.17-0.17,0.34-0.28,0.5c-0.58,0.88-1.44,1.61-2.33,2.29c-3.08,2.32-6.78,3.81-10.47,4.84
						c-5.51,1.54-11.41,2.13-17.1,1.47c-5.24-0.61-10.43-2.13-15.15-4.48c-1.62-0.8-3.21-1.7-4.65-2.79
						c-0.27-0.21-0.54-0.41-0.79-0.64c-0.11-0.1-0.21-0.19-0.32-0.29c-0.05-0.05-0.1-0.1-0.15-0.14c-0.1-0.1,0.07,0.07-0.06-0.06
						c-0.15-0.17-0.29-0.34-0.42-0.52c-0.11-0.15,0.06,0.12-0.05-0.09c-0.02-0.04-0.04-0.07-0.05-0.1
						c-0.04-0.08,0.02,0.16,0.02,0.04c-0.01-0.18-0.02,0.14-0.01-0.03c0-0.02-0.02,0.1-0.03,0.11c0.31-0.65-0.8-1.66-1.14-0.95
						c-0.46,0.96,0.55,1.99,1.17,2.6c1.19,1.16,2.64,2.08,4.07,2.91c4.63,2.68,9.86,4.46,15.12,5.38
						c6.16,1.08,12.48,0.76,18.56-0.69c4.19-1,8.41-2.57,11.94-5.08c1.05-0.74,2.08-1.6,2.85-2.64c0.48-0.66,0.89-1.55,0.51-2.36
						c-0.11-0.22-0.25-0.39-0.42-0.56c-0.23-0.23-0.67-0.28-0.87,0.02C83.12,102.85,83.37,103.27,83.6,103.49L83.6,103.49z"/>
				</g>
			</g>
			<g>
				<g>
					<path class="st38" d="M83.47,105.34c0.43,0.42,0.2,1.03-0.06,1.47c-0.52,0.89-1.33,1.61-2.16,2.25
						c-2.98,2.32-6.69,3.77-10.32,4.75c-5.64,1.53-11.65,2.09-17.46,1.37c-5.36-0.66-10.65-2.22-15.5-4.63
						c-1.66-0.82-3.29-1.75-4.76-2.87c-0.69-0.52-1.76-1.25-2.01-2.14c-0.03-0.09-0.02-0.1-0.02-0.13c0-0.05,0.05-0.18,0.01-0.08
						c0.23-0.49-1.13-0.05-1.29,0.31c-0.35,0.75,0.65,1.58,1.12,2.01c1.26,1.15,2.75,2.06,4.23,2.88
						c4.76,2.63,10.06,4.36,15.42,5.22c6.17,1,12.53,0.6,18.59-0.86c4.27-1.03,8.54-2.63,12.15-5.18c1.1-0.77,2.16-1.64,2.98-2.72
						c0.4-0.53,0.9-1.32,0.66-2.02c-0.04-0.12-0.11-0.22-0.2-0.31C84.48,104.34,83.27,105.14,83.47,105.34L83.47,105.34z"/>
				</g>
			</g>
			<g>
				<g>
					<path class="st39" d="M83.77,107.4c0.35,0.36,0.15,1.02-0.12,1.47c-0.51,0.88-1.33,1.62-2.16,2.27
						c-3.01,2.34-6.75,3.78-10.4,4.77c-5.67,1.54-11.77,2.09-17.6,1.39c-5.45-0.65-10.83-2.21-15.76-4.62
						c-1.69-0.83-3.36-1.75-4.87-2.88c-0.71-0.53-1.78-1.24-2.07-2.13c-0.03-0.1-0.02-0.08-0.02-0.12c-0.01-0.09,0.02-0.11,0-0.07
						c0.25-0.55-1.14-0.15-1.32,0.23c-0.35,0.77,0.69,1.61,1.17,2.05c1.31,1.17,2.86,2.09,4.39,2.92
						c4.89,2.64,10.33,4.39,15.82,5.23c6.22,0.96,12.65,0.57,18.76-0.91c4.28-1.04,8.56-2.61,12.18-5.18
						c1.09-0.77,2.14-1.65,2.92-2.74c0.4-0.55,0.87-1.36,0.59-2.07c-0.06-0.14-0.15-0.26-0.26-0.36
						C84.73,106.34,83.41,107.03,83.77,107.4L83.77,107.4z"/>
				</g>
			</g>
			<g>
				<g>
					<path class="st40" d="M83.92,109.16c1.12,1.2-1.41,3.32-2.23,3.98c-3.01,2.41-6.77,3.89-10.45,4.91
						c-5.64,1.57-11.73,2.18-17.56,1.55c-5.57-0.61-11.1-2.17-16.16-4.59c-1.75-0.84-3.47-1.77-5.04-2.92
						c-0.51-0.37-1-0.76-1.44-1.21c-0.24-0.25-0.57-0.59-0.65-0.89c-0.03-0.12-0.03-0.24-0.02-0.26c0.17-0.38-1.28-0.45-1.46-0.07
						c-0.32,0.73,0.8,1.61,1.25,2c1.36,1.17,2.94,2.11,4.53,2.95c4.99,2.64,10.52,4.39,16.1,5.25c6.35,0.98,12.89,0.6,19.16-0.83
						c4.26-0.98,8.57-2.49,12.17-5.02c1.06-0.74,2.11-1.6,2.88-2.66c0.4-0.55,0.84-1.34,0.59-2.04c-0.05-0.14-0.13-0.27-0.23-0.38
						c-0.21-0.22-0.66-0.19-0.94-0.15C84.33,108.79,83.73,108.95,83.92,109.16L83.92,109.16z"/>
				</g>
			</g>
			<g>
				<g>
					<path class="st41" d="M84.27,110.84c0.38,0.42,0.23,1.12-0.05,1.65c-0.5,0.97-1.35,1.76-2.19,2.44
						c-3.01,2.44-6.81,3.93-10.51,4.97c-5.72,1.61-11.89,2.27-17.81,1.75c-5.75-0.51-11.44-2.02-16.69-4.41
						c-1.74-0.79-3.46-1.69-5.02-2.78c-0.54-0.37-1.03-0.75-1.49-1.2c-0.23-0.23-0.53-0.52-0.62-0.85
						c-0.03-0.12-0.04-0.18,0.01-0.28c0.13-0.29-1.22-0.95-1.33-0.7c-0.31,0.71,0.94,1.67,1.36,2.03c1.44,1.21,3.07,2.19,4.73,3.07
						c5.01,2.66,10.53,4.47,16.13,5.41c6.4,1.07,13,0.8,19.34-0.59c4.28-0.94,8.63-2.43,12.26-4.96c1.06-0.74,2.11-1.58,2.85-2.65
						c0.39-0.56,0.81-1.35,0.54-2.05c-0.06-0.15-0.15-0.29-0.26-0.41c-0.23-0.25-0.56-0.44-0.88-0.54
						C84.55,110.7,84.06,110.6,84.27,110.84L84.27,110.84z"/>
				</g>
			</g>
			<g>
				<g>
					<path class="st42" d="M84.8,113.35c0.15,0.17-0.09-0.13,0.02,0.03c0.07,0.1-0.06-0.08-0.03-0.06c0.02,0.01,0.04,0.1,0.04,0.12
						c-0.01-0.11-0.01-0.07,0.01,0.06c0.01,0.14,0.02-0.07,0,0.12c-0.01,0.08-0.02,0.15-0.03,0.23c-0.02,0.09,0.01,0.02-0.05,0.18
						c-0.07,0.18-0.14,0.35-0.23,0.53c-0.51,0.95-1.37,1.73-2.23,2.41c-3.07,2.42-6.89,3.87-10.63,4.89
						c-5.81,1.57-12.04,2.19-18.04,1.63c-5.79-0.54-11.52-2.08-16.83-4.45c-1.85-0.83-3.67-1.77-5.36-2.91
						c-0.54-0.36-1.07-0.75-1.56-1.2c-0.05-0.04-0.09-0.09-0.14-0.13c-0.11-0.11,0,0.01-0.03-0.02c-0.09-0.09-0.16-0.18-0.24-0.27
						c-0.03-0.04-0.06-0.07-0.09-0.11c-0.03-0.03,0.1,0.14,0.01,0.01c-0.02-0.03-0.04-0.07-0.06-0.1c-0.04-0.08,0.11,0.12,0.01,0.02
						c-0.07-0.07-0.01,0.11-0.01-0.03c0,0.06-0.01,0.14,0.01,0.04c0.01-0.02-0.04,0.13-0.01,0.03c0.23-0.54-0.87-1.56-1.12-0.95
						c-0.41,0.96,0.89,2.08,1.51,2.61c1.39,1.19,3.01,2.13,4.62,2.97c5.15,2.69,10.8,4.48,16.53,5.38
						c6.51,1.03,13.28,0.68,19.71-0.78c4.24-0.97,8.57-2.47,12.12-5.04c1.39-1.01,3.99-3.05,3.16-5.1c-0.1-0.23-0.24-0.45-0.4-0.65
						c-0.17-0.2-0.57-0.51-0.83-0.28C84.4,112.71,84.64,113.17,84.8,113.35L84.8,113.35z"/>
				</g>
			</g>
			<g>
				<g>
					<path class="st43" d="M84.81,115.49c0.13,0.15-0.04-0.11,0.04,0.05c0.02,0.05,0.11,0.25,0.07,0.13
						c-0.04-0.12,0.02,0.09,0.03,0.14c0.01,0.04,0.01,0.07,0.02,0.1c0.02,0.08,0.02-0.17-0.01-0.01c-0.01,0.08-0.02,0.15-0.02,0.23
						c-0.02,0.1-0.07,0.29-0.02,0.13c-0.06,0.18-0.13,0.35-0.21,0.53c-0.05,0.1-0.1,0.18-0.15,0.28c0.08-0.13-0.1,0.14-0.14,0.2
						c-0.15,0.21-0.32,0.42-0.5,0.62c-0.45,0.5-0.8,0.81-1.32,1.22c-3.05,2.42-6.87,3.85-10.59,4.85c-2.72,0.73-5.52,1.2-8.33,1.48
						c-3.29,0.33-6.59,0.42-9.88,0.11c-5.87-0.56-11.66-2.11-17.04-4.5c-1.86-0.83-3.69-1.76-5.38-2.9
						c-0.56-0.37-1.19-0.84-1.58-1.2c-0.18-0.16-0.34-0.33-0.5-0.51c-0.04-0.04-0.07-0.09-0.1-0.13c-0.03-0.04,0.08,0.13,0.01,0.01
						c-0.04-0.07-0.08-0.15-0.12-0.22c-0.06-0.11,0,0.12,0.02,0.04c0-0.01-0.01-0.07-0.02-0.08c0.01,0.02,0.07,0.17,0.01,0.07
						c-0.04-0.06-0.03,0.1-0.02,0.08c0.34-0.83-1.08-1.29-1.41-0.51c-0.41,1.01,0.85,2,1.51,2.53c1.44,1.18,3.09,2.11,4.75,2.94
						c5.32,2.69,11.12,4.48,17.02,5.36c6.58,0.98,13.43,0.59,19.91-0.9c4.27-0.99,8.63-2.47,12.21-5.08
						c1.04-0.76,2.07-1.64,2.77-2.73c0.5-0.77,0.88-1.74,0.49-2.63c-0.08-0.18-0.19-0.35-0.32-0.5
						C85.41,114.02,84.19,114.75,84.81,115.49L84.81,115.49z"/>
				</g>
			</g>
			<g>
				<g>
					<path class="st44" d="M85.13,117.32c-0.13-0.15-0.01,0.01,0.04,0.07c0.08,0.13-0.01-0.09,0.04,0.1
						c0.02,0.07,0.04,0.14,0.06,0.21c-0.03-0.15,0.01,0.08,0,0.14c0,0.08-0.01,0.16-0.02,0.23c-0.01,0.04-0.02,0.09-0.02,0.13
						c-0.02,0.08,0.02-0.07-0.02,0.04c-0.06,0.2-0.13,0.38-0.22,0.57c-0.47,0.95-1.3,1.73-2.15,2.42c-3.02,2.45-6.89,3.9-10.6,4.89
						c-5.93,1.58-12.29,2.19-18.4,1.66c-5.96-0.52-11.87-2.06-17.35-4.45c-1.91-0.83-3.78-1.76-5.52-2.9
						c-0.34-0.22-0.67-0.45-0.99-0.69c-0.3-0.22-0.43-0.33-0.65-0.53c-0.18-0.17-0.36-0.34-0.53-0.53c-0.09-0.1,0.07,0.09-0.01-0.01
						c-0.03-0.04-0.06-0.08-0.09-0.12c-0.02-0.03-0.04-0.07-0.06-0.1c-0.08-0.13,0.05,0.1-0.01-0.02c-0.03-0.06-0.08-0.23-0.03-0.07
						c-0.04-0.13-0.02-0.01,0-0.05c0.25-0.62-1.13-1.23-1.37-0.62c-0.37,0.92,1.02,1.95,1.6,2.42c1.51,1.21,3.24,2.16,4.97,3.02
						c5.4,2.69,11.3,4.47,17.27,5.34c6.62,0.97,13.5,0.6,20.01-0.87c4.3-0.97,8.69-2.44,12.29-5.05c1.05-0.76,2.07-1.65,2.76-2.76
						c0.42-0.69,0.73-1.56,0.4-2.35c-0.1-0.23-0.23-0.41-0.38-0.61C85.71,116.33,84.5,116.56,85.13,117.32L85.13,117.32z"/>
				</g>
			</g>
			<g>
				<g>
					<path class="st45" d="M85.26,119.3c0.05,0.06,0.09,0.12,0.13,0.18c0.05,0.07,0.04,0.08,0-0.02c0.02,0.04,0.04,0.08,0.05,0.13
						c0.02,0.07,0.04,0.14,0.06,0.21c-0.03-0.13,0.01,0.03,0.01,0.13c0,0.08-0.01,0.16-0.01,0.24c-0.01,0.12,0,0.02,0,0.02
						c-0.01,0.05-0.02,0.09-0.03,0.14c-0.06,0.2-0.12,0.38-0.21,0.57c-0.16,0.34-0.44,0.75-0.77,1.14
						c-0.39,0.45-0.83,0.87-1.27,1.23c-3.06,2.49-6.95,3.92-10.71,4.92c-2.75,0.73-5.55,1.2-8.38,1.49
						c-3.39,0.34-6.81,0.46-10.21,0.17c-6.06-0.53-12.05-2.07-17.64-4.46c-1.96-0.84-3.89-1.79-5.69-2.95
						c-0.64-0.41-1.12-0.74-1.66-1.21c-0.1-0.09-0.19-0.18-0.29-0.26c-0.06-0.06-0.24-0.26-0.21-0.22c0.04,0.05-0.1-0.13-0.13-0.18
						c-0.03-0.04-0.05-0.07-0.07-0.11c-0.08-0.12,0.08,0.1-0.01-0.01c-0.02-0.02-0.03-0.06-0.03-0.08c-0.02-0.1,0.04,0.07,0.01,0.04
						c-0.01-0.01-0.01-0.07,0-0.07c-0.08,0.18-0.02,0.1,0,0.04c0.27-0.69-1.14-1.2-1.42-0.5c-0.36,0.92,0.99,1.94,1.58,2.4
						c1.55,1.21,3.29,2.16,5.05,3.03c5.52,2.69,11.51,4.5,17.59,5.36c6.71,0.95,13.67,0.57,20.27-0.9
						c4.29-0.95,8.72-2.41,12.31-5.02c1.05-0.76,2.1-1.66,2.78-2.77c0.45-0.74,0.79-1.65,0.46-2.51c-0.07-0.19-0.18-0.38-0.31-0.54
						c-0.23-0.29-0.63-0.48-1.01-0.35C85.21,118.66,85.03,119.02,85.26,119.3L85.26,119.3z"/>
				</g>
			</g>
		</g>
		<g>
			<g>
				<g>
					<path class="st15" d="M81.09,84.9c0.17,0.03,0.02-0.01-0.01-0.02c0.14,0.09-0.17-0.1-0.01,0c-0.03-0.02-0.12-0.16-0.06-0.06
						c0.03,0.05,0.08,0.15-0.03-0.07c0.02,0.05,0.05,0.12,0.05,0.17c-0.01-0.14,0-0.09-0.01,0.04c-0.01,0.08-0.02,0.15-0.02,0.23
						c-0.02,0.16,0.03-0.1,0,0C81,85.23,81,85.26,80.99,85.3c-0.03,0.1-0.06,0.21-0.1,0.31c-0.2,0.57-0.32,0.76-0.62,1.24
						c-0.35,0.57-0.76,1.09-1.2,1.59c-2.56,2.91-6.27,4.97-9.99,6.13c-5.95,1.84-12.4,1.66-18.45,0.46
						c-4.36-0.86-8.96-2.37-12.3-5.42c-0.54-0.49-0.98-0.96-1.37-1.48c-0.19-0.25-0.36-0.51-0.52-0.77
						c-0.07-0.12-0.13-0.23-0.2-0.35c-0.03-0.06-0.06-0.12-0.09-0.17c-0.05-0.1-0.05-0.11-0.04-0.09c-0.1-0.22-0.18-0.43-0.24-0.67
						c-0.03-0.11-0.06-0.21-0.08-0.32c-0.01-0.05-0.02-0.1-0.03-0.15c-0.02-0.1,0.01,0.14,0-0.03c-0.01-0.18-0.01-0.35,0.01-0.54
						c0.01-0.12,0.02-0.07-0.01,0.02c0.01-0.04,0.02-0.09,0.03-0.13c0.03-0.07,0.05-0.15,0.08-0.22c0.04-0.13-0.1,0.08,0.04-0.06
						c0.04-0.05,0.22-0.25,0.04-0.06c0.67-0.68-0.45-1.55-1.04-0.95c-1.67,1.71,0.13,4.43,1.34,5.82c2.95,3.36,7.49,5.19,11.71,6.27
						c3.44,0.88,7.02,1.34,10.56,1.45c3.19,0.1,6.41-0.2,9.51-0.98c4.37-1.12,8.63-3.22,11.78-6.51c0.97-1.01,1.86-2.13,2.41-3.43
						c0.3-0.71,0.57-1.75-0.11-2.34c-0.16-0.14-0.38-0.25-0.59-0.29c-0.37-0.06-0.8,0.03-0.94,0.42
						C80.47,84.42,80.73,84.84,81.09,84.9L81.09,84.9z"/>
				</g>
			</g>
			<g>
				<g>
					<path class="st46" d="M81.96,87.41c-0.06-0.01-0.13-0.04-0.05-0.01c0.1,0.04-0.13-0.09-0.07-0.04
						c-0.1-0.09-0.19-0.16-0.26-0.27c-0.04-0.06-0.03-0.07-0.06-0.15c0.06,0.15,0.02,0.01,0.02,0.07c-0.01,0.07-0.01,0.14-0.02,0.21
						c-0.01,0.04-0.02,0.08-0.02,0.11c-0.02,0.12,0.02-0.07-0.02,0.05c-0.05,0.19-0.12,0.37-0.21,0.56
						c-0.48,1.08-1.26,2.02-2.08,2.87c-2.85,2.96-6.62,4.95-10.52,6.12c-5.97,1.78-12.38,1.59-18.45,0.42
						c-4.38-0.84-8.98-2.36-12.43-5.3c-0.6-0.51-0.96-0.86-1.46-1.47c-0.1-0.12-0.19-0.24-0.29-0.36c0.1,0.13-0.14-0.21-0.18-0.27
						c-0.08-0.12-0.15-0.23-0.22-0.34c-0.04-0.07-0.21-0.39-0.14-0.24c-0.1-0.21-0.2-0.43-0.27-0.66c-0.05-0.15,0.02,0.07-0.02-0.04
						c-0.02-0.04-0.02-0.08-0.04-0.13c-0.02-0.11-0.04-0.21-0.06-0.32c-0.01-0.04-0.01-0.08-0.02-0.12c-0.01-0.1,0,0.11,0-0.02
						c0-0.09,0.01-0.17,0.01-0.26c0.02-0.22-0.01-0.12,0.09-0.34c0.03-0.06,0.06-0.12,0.1-0.18c-0.06,0.09,0.04-0.04,0.08-0.09
						c0.43-0.42-0.57-1.55-0.98-1.14c-0.6,0.59-0.54,1.51-0.33,2.25c0.37,1.28,1.19,2.43,2.1,3.39c3.15,3.33,7.65,5.22,12.01,6.32
						c6.4,1.63,13.41,2.1,19.87,0.51c4.37-1.08,8.67-3.16,11.88-6.37c0.94-0.94,1.85-2.01,2.41-3.22c0.38-0.84,0.54-1.83-0.25-2.51
						c-0.2-0.17-0.42-0.26-0.68-0.31c-0.35-0.07-0.35,0.37-0.28,0.59C81.3,87.06,81.61,87.34,81.96,87.41L81.96,87.41z"/>
				</g>
			</g>
			<g>
				<g>
					<path class="st47" d="M82.05,89.49c-0.04-0.01-0.4-0.17-0.4-0.17c0.02-0.01,0.03-0.01,0.04,0.06c0.04,0.13,0.06,0.12,0.05,0.27
						c-0.01,0.34-0.15,0.68-0.3,0.99c-0.52,1.09-1.35,2.02-2.2,2.86c-2.96,2.93-6.8,4.93-10.77,6.1
						c-5.93,1.75-12.32,1.61-18.35,0.39c-4.36-0.88-8.83-2.42-12.29-5.31c-0.99-0.82-1.93-1.77-2.54-2.92
						c-0.32-0.6-0.67-1.41-0.37-2.09c0.06-0.13,0.1-0.18,0.2-0.27c0.21-0.2-1.1-0.72-1.39-0.45c-0.55,0.51-0.41,1.33-0.18,1.97
						c0.42,1.16,1.3,2.16,2.18,3.01c3.31,3.18,7.88,4.96,12.26,6.07c3.36,0.85,6.82,1.3,10.28,1.45c3.19,0.13,6.41-0.12,9.53-0.83
						c4.49-1.03,8.9-3.05,12.32-6.18c1.01-0.92,1.99-1.97,2.65-3.18c0.27-0.49,0.74-1.39,0.2-1.86c-0.22-0.19-0.54-0.29-0.81-0.35
						c-0.14-0.03-0.73-0.17-0.78,0.06C81.32,89.32,81.94,89.47,82.05,89.49L82.05,89.49z"/>
				</g>
			</g>
			<g>
				<g>
					<path class="st48" d="M82.16,92.14c-0.04-0.01-0.17-0.05-0.07-0.02c-0.07-0.02-0.05-0.03-0.05-0.02
						c-0.02,0.02-0.03-0.07,0.02,0.03c0.03,0.06,0-0.09,0.02,0.05c0.01,0.06,0.01,0.11,0.01,0.17c0,0.07,0.02-0.02-0.02,0.12
						c-0.02,0.08-0.04,0.16-0.07,0.24c-0.07,0.18-0.15,0.36-0.24,0.53c-0.55,1.01-1.47,1.98-2.35,2.79
						c-3.06,2.85-6.98,4.78-10.99,5.88c-5.95,1.65-12.29,1.42-18.3,0.17c-4.41-0.91-8.89-2.49-12.47-5.3
						c-1.03-0.81-2.01-1.73-2.7-2.85c-0.24-0.38-0.41-0.73-0.51-1.13c-0.04-0.16-0.06-0.32-0.06-0.48c0-0.12,0.01-0.13,0.07-0.31
						c0.05-0.15-0.01-0.02,0.04-0.08c0.04-0.05,0.08-0.1,0.13-0.13c0.27-0.24-0.13-0.47-0.33-0.51c-0.35-0.08-0.74,0.03-1.01,0.26
						c-0.6,0.53-0.4,1.41-0.13,2.04c0.48,1.15,1.39,2.11,2.3,2.94c3.37,3.08,7.89,4.84,12.26,5.93c6.36,1.59,13.25,2,19.67,0.56
						c4.6-1.04,9.12-3.06,12.71-6.15c1.08-0.93,2.12-1.95,2.88-3.16c0.32-0.5,0.92-1.46,0.46-2.04c-0.15-0.18-0.36-0.26-0.58-0.31
						c-0.3-0.07-0.81-0.01-1.01,0.26C81.62,91.91,81.91,92.08,82.16,92.14L82.16,92.14z"/>
				</g>
			</g>
			<g>
				<g>
					<path class="st49" d="M82.29,94.63c0.53,0.15,0.04,1.05-0.12,1.33c-0.6,1.04-1.51,1.93-2.41,2.72
						c-3.16,2.79-7.12,4.62-11.18,5.67c-6.03,1.56-12.44,1.27-18.49-0.01c-4.47-0.95-8.99-2.55-12.68-5.31
						c-1.08-0.81-2.13-1.73-2.9-2.85c-0.36-0.53-0.86-1.31-0.64-1.99c0.01-0.03,0.08-0.18,0.05-0.11c0.07-0.13-0.01-0.02,0.05-0.06
						c0.22-0.18,0.12-0.24-0.11-0.2c-0.32,0.06-0.68,0.31-0.93,0.51c-0.6,0.5-0.45,1.23-0.15,1.86c0.54,1.12,1.49,2.04,2.41,2.84
						c3.46,2.95,7.94,4.69,12.31,5.77c6.26,1.53,12.99,1.94,19.31,0.5c4.75-1.09,9.35-3.16,13.16-6.21
						c1.15-0.92,2.27-1.95,3.13-3.15c0.28-0.38,1.07-1.4,0.69-1.93c-0.06-0.09-0.16-0.14-0.26-0.17c-0.25-0.07-0.67,0.22-0.87,0.34
						C82.59,94.24,82.1,94.58,82.29,94.63L82.29,94.63z"/>
				</g>
			</g>
			<g>
				<g>
					<path class="st50" d="M82.96,97.32c0.15,0.05-0.13-0.11-0.03-0.02c-0.03-0.03-0.15-0.19-0.13-0.14
						c0.02,0.05-0.07-0.18-0.02-0.02c0.01,0.03,0.05-0.13-0.02,0.04c-0.03,0.06-0.04,0.13-0.06,0.19c0.07-0.2-0.02,0.04-0.06,0.11
						c-0.1,0.18-0.21,0.36-0.32,0.53c-0.18,0.25-0.17,0.24-0.4,0.51c-0.21,0.24-0.42,0.48-0.64,0.7c-0.52,0.53-1.07,1.02-1.64,1.49
						c-3.36,2.73-7.44,4.58-11.61,5.67c-5.88,1.53-12.09,1.32-18.01,0.14c-4.51-0.9-9.04-2.46-12.85-5.1
						c-1.16-0.8-2.18-1.62-3.03-2.69c-0.15-0.19-0.29-0.38-0.42-0.59c-0.09-0.13,0.04,0.07-0.02-0.04
						c-0.02-0.04-0.04-0.08-0.07-0.12c-0.04-0.09-0.09-0.18-0.13-0.26c-0.03-0.08-0.06-0.15-0.08-0.23
						c-0.04-0.11-0.02-0.08,0.01,0.02c-0.01-0.04-0.02-0.09-0.02-0.12c0-0.07-0.01-0.13-0.01-0.19c0.01,0.26-0.02-0.03,0.02-0.04
						c-0.02,0.01-0.02,0.14,0.02-0.01c0.02-0.08-0.1,0.13-0.05,0.07c0.04-0.05,0.15-0.12-0.06,0.03c0.76-0.6-0.15-1.59-0.84-1.06
						c-1.93,1.5,1.22,4.28,2.31,5.19c3.54,2.94,8.05,4.72,12.46,5.85c6.32,1.63,13.11,2.08,19.51,0.77c4.76-0.98,9.43-2.94,13.3-5.9
						c1.24-0.95,2.44-1.99,3.38-3.24c0.44-0.59,1.18-1.63,0.63-2.36c-0.12-0.15-0.29-0.29-0.48-0.34c-0.36-0.12-0.81-0.05-1.01,0.31
						C82.44,96.78,82.61,97.21,82.96,97.32L82.96,97.32z"/>
				</g>
			</g>
			<g>
				<g>
					<path class="st51" d="M82.99,99.43c0.5,0.18-0.14,1.08-0.32,1.33c-0.76,1.06-1.78,1.95-2.81,2.74
						c-3.48,2.71-7.61,4.62-11.88,5.7c-5.92,1.5-12.19,1.19-18.12-0.07c-4.53-0.96-9.06-2.57-12.92-5.18
						c-1.15-0.78-2.3-1.66-3.19-2.74c-0.34-0.42-1.03-1.25-0.8-1.86c0.03-0.07,0.15-0.2,0.13-0.18c0.25-0.18-0.21-0.16-0.31-0.16
						c-0.3,0.02-0.74,0.09-1,0.27c-0.58,0.42-0.25,1.14,0.06,1.63c0.67,1.06,1.68,1.93,2.67,2.68c3.68,2.81,8.19,4.53,12.65,5.63
						c6.24,1.53,12.84,1.92,19.16,0.67c4.88-0.96,9.67-2.85,13.75-5.71c1.28-0.9,2.55-1.91,3.58-3.1c0.31-0.35,1.22-1.32,0.95-1.88
						c-0.04-0.09-0.12-0.15-0.21-0.18c-0.27-0.1-0.66,0.01-0.92,0.09C83.41,99.13,82.83,99.36,82.99,99.43L82.99,99.43z"/>
				</g>
			</g>
			<g>
				<g>
					<path class="st52" d="M83.97,102.2c0,0-0.23-0.19-0.3-0.28c-0.04-0.06-0.09-0.16-0.07-0.15c-0.03-0.02,0.04-0.1-0.02,0.04
						c-0.02,0.07-0.04,0.13-0.07,0.19c0.04-0.08-0.03,0.06-0.07,0.12c-0.05,0.08-0.1,0.15-0.15,0.23c-0.13,0.19-0.27,0.37-0.42,0.55
						c-0.89,1.04-1.98,1.91-3.09,2.7c-3.68,2.63-7.95,4.48-12.34,5.54c-5.88,1.42-11.98,1.24-17.89,0.08
						c-4.6-0.9-9.19-2.48-13.18-4.98c-1.19-0.75-2.32-1.58-3.19-2.5c-0.09-0.1-0.18-0.19-0.26-0.29c-0.04-0.04-0.07-0.09-0.11-0.13
						c-0.11-0.13,0.04,0.06-0.03-0.04c-0.13-0.17-0.24-0.33-0.34-0.51c0.06,0.1,0,0-0.04-0.1c-0.04-0.09-0.06-0.21-0.04-0.08
						c-0.02-0.06-0.02-0.12-0.02-0.18c0,0.07-0.04,0.04,0.02-0.06c-0.02,0.04,0.07-0.08,0.05-0.06c0.58-0.39-0.51-1.41-1.01-1.07
						c-0.72,0.49-0.25,1.46,0.12,2.01c0.74,1.11,1.83,2.01,2.9,2.79c3.78,2.79,8.31,4.58,12.83,5.74
						c6.19,1.58,12.81,2.11,19.11,0.92c4.94-0.93,9.77-2.83,13.93-5.67c1.29-0.88,2.57-1.86,3.62-3.03
						c0.49-0.54,1.31-1.45,0.84-2.22c-0.13-0.21-0.35-0.41-0.58-0.51c-0.25-0.1-0.66-0.21-0.76,0.14
						C83.34,101.69,83.72,102.09,83.97,102.2L83.97,102.2z"/>
				</g>
			</g>
			<g>
				<g>
					<path class="st53" d="M84.43,104.67c-0.18-0.09-0.36-0.26-0.45-0.42c-0.02-0.03-0.01-0.07-0.02-0.04
						c-0.08,0.16,0.02,0.06-0.09,0.26c-0.2,0.36-0.46,0.68-0.75,0.98c-0.97,1.04-2.14,1.9-3.32,2.68c-3.84,2.58-8.22,4.4-12.72,5.43
						c-5.85,1.34-11.93,1.16-17.8-0.03c-4.56-0.92-9.1-2.46-13.12-4.86c-1.28-0.76-2.38-1.5-3.42-2.52
						c-0.08-0.07-0.25-0.26-0.19-0.19c-0.08-0.09-0.16-0.18-0.23-0.26c-0.07-0.08-0.13-0.17-0.2-0.25
						c-0.03-0.04-0.05-0.07-0.08-0.11c-0.01-0.02,0.06,0.1-0.01-0.02c-0.04-0.07-0.08-0.14-0.12-0.21
						c-0.07-0.15,0.02,0.08-0.04-0.09c-0.02-0.04-0.04-0.2-0.03-0.12c0.01,0.09,0-0.06,0.02-0.1c-0.02,0.02-0.04,0.06,0.03-0.03
						c0.02-0.03-0.08,0.05,0.04-0.02c0.54-0.33-0.62-1.28-1.1-0.98c-0.72,0.44-0.1,1.43,0.24,1.9c0.8,1.09,1.95,1.95,3.05,2.71
						c3.85,2.69,8.39,4.46,12.92,5.62c6.18,1.58,12.76,2.12,19.06,0.99c5.02-0.9,9.93-2.78,14.22-5.54c1.36-0.88,2.7-1.86,3.85-3.02
						c0.45-0.46,1.36-1.32,1-2.07c-0.14-0.28-0.41-0.48-0.68-0.61c-0.23-0.11-0.66-0.17-0.73,0.16
						C83.75,104.24,84.19,104.55,84.43,104.67L84.43,104.67z"/>
				</g>
			</g>
			<g>
				<g>
					<path class="st54" d="M84.29,107.05c0.03,0.02-0.05-0.02-0.02-0.08c-0.02,0.04-0.01,0.1-0.03,0.14
						c-0.06,0.14,0.04-0.05-0.04,0.09c-0.23,0.4-0.4,0.58-0.71,0.88c-1.01,1.01-2.18,1.84-3.37,2.61
						c-3.94,2.53-8.38,4.32-12.95,5.33c-5.82,1.28-11.83,1.06-17.65-0.13c-4.62-0.94-9.2-2.52-13.3-4.88
						c-1.26-0.73-2.52-1.53-3.61-2.51c-0.33-0.3-0.66-0.62-0.92-0.99c-0.04-0.07-0.09-0.13-0.13-0.2c-0.08-0.13-0.03-0.02-0.07-0.13
						c-0.02-0.05-0.03-0.1-0.04-0.15c-0.04-0.14,0.03,0.02-0.01-0.05c-0.03-0.06-0.04,0.01,0-0.02c-0.01,0.01-0.16,0.13-0.1,0.1
						c0.25-0.14,0.4-0.43,0.14-0.64c-0.28-0.21-0.77-0.09-1.04,0.07c-1.9,1.06,2.39,3.84,3.05,4.28c3.95,2.61,8.52,4.35,13.1,5.49
						c6.15,1.53,12.63,2.05,18.9,0.97c5.15-0.88,10.19-2.74,14.66-5.44c1.46-0.88,2.91-1.85,4.16-3.01
						c0.45-0.42,1.57-1.33,1.39-2.08c-0.04-0.15-0.14-0.27-0.27-0.34c-0.31-0.17-0.74-0.12-1.04,0.07
						C84.23,106.54,83.97,106.88,84.29,107.05L84.29,107.05z"/>
				</g>
			</g>
			<g>
				<g>
					<path class="st55" d="M85.68,109.8c0.03,0.02-0.77-1.01-0.74-1.05c-0.01,0.01,0.02,0.04,0.01,0.06
						c-0.02,0.03-0.02,0.1-0.03,0.13c-0.05,0.13-0.12,0.24-0.2,0.35c-0.26,0.36-0.59,0.68-0.92,0.98c-1.14,1.03-2.44,1.89-3.76,2.67
						c-4.09,2.45-8.64,4.22-13.3,5.22c-5.83,1.26-11.82,1.09-17.66-0.05c-4.73-0.92-9.39-2.47-13.65-4.74
						c-1.37-0.73-2.72-1.53-3.94-2.5c-0.22-0.18-0.43-0.36-0.65-0.55c-0.08-0.08-0.13-0.12-0.19-0.19
						c-0.04-0.04-0.07-0.07-0.11-0.11c-0.05-0.05,0.06-0.01-0.04-0.04c0.04,0.02,0.08,0.1,0.17,0.23c0.03,0.05,0.04,0.13,0.05,0.07
						c0,0.01-0.04-0.13-0.01-0.2c0.03-0.08,0.09-0.13,0.16-0.17c0.07-0.04-0.68-1.32-0.88-1.22c-0.68,0.34,0.63,1.78,0.84,2.04
						c0.86,1.01,1.97,1.79,3.07,2.5c3.99,2.57,8.55,4.3,13.14,5.46c6.08,1.54,12.49,2.11,18.7,1.06c5.22-0.88,10.32-2.73,14.88-5.41
						c1.44-0.84,2.87-1.77,4.1-2.89c0.34-0.31,0.69-0.64,0.94-1.03c0.21-0.34,0.2-0.54-0.01-0.89c-0.19-0.32-0.44-0.73-0.77-0.94
						c-0.1-0.07,0.18,0.47,0.21,0.5C85.24,109.33,85.43,109.64,85.68,109.8L85.68,109.8z"/>
				</g>
			</g>
			<g>
				<g>
					<path class="st56" d="M85.15,112.2c-0.08-0.06-0.09-0.17-0.07-0.32c-0.02,0.07-0.11,0.22,0.01,0.02
						c-0.04,0.07-0.09,0.14-0.13,0.21c-0.12,0.2,0.06-0.05-0.07,0.09c-0.07,0.07-0.14,0.15-0.21,0.22c-0.19,0.19-0.39,0.37-0.6,0.55
						c-0.42,0.36-1.01,0.78-1.59,1.17c-0.71,0.48-1.45,0.92-2.2,1.35c-4.2,2.39-8.84,4.11-13.58,5.07
						c-5.77,1.16-11.65,0.93-17.42-0.22c-4.7-0.95-9.32-2.51-13.59-4.72c-1.46-0.76-2.91-1.6-4.19-2.63
						c-0.21-0.17-0.42-0.35-0.62-0.54c-0.04-0.04-0.07-0.07-0.11-0.11c-0.12-0.13,0.02,0.02-0.05-0.05
						c-0.06-0.07-0.12-0.14-0.17-0.21c-0.04-0.06-0.08-0.13-0.12-0.19c-0.05-0.09-0.01,0.13-0.01-0.04
						c-0.01,0.17-0.14,0.42-0.4,0.55c0.32-0.14,0.65-0.45,0.57-0.84c-0.08-0.35-0.53-0.45-0.83-0.32c-2.55,1.12,2.24,3.94,3.04,4.41
						c4.1,2.46,8.68,4.18,13.31,5.34c6.07,1.52,12.43,2.12,18.62,1.15c5.38-0.84,10.62-2.67,15.41-5.26
						c1.6-0.87,3.16-1.83,4.58-2.98c0.61-0.49,1.77-1.33,1.7-2.23c-0.02-0.2-0.1-0.38-0.26-0.5
						C85.6,110.74,84.48,111.73,85.15,112.2L85.15,112.2z"/>
				</g>
			</g>
			<g>
				<g>
					<path class="st57" d="M85.4,114.27C85.43,114.28,85.43,114.26,85.4,114.27c-0.01,0.01,0.04-0.06-0.02,0.04
						c-0.04,0.07,0.03-0.04-0.04,0.08c-0.04,0.07-0.09,0.14-0.14,0.2c-0.26,0.33-0.59,0.62-0.92,0.88c-1.24,1-2.63,1.82-4.03,2.58
						c-4.35,2.37-9.11,4.11-13.97,5.08c-5.7,1.14-11.49,0.95-17.18-0.2c-4.75-0.95-9.42-2.5-13.76-4.67
						c-1.5-0.75-2.99-1.57-4.32-2.6c-0.29-0.23-0.67-0.53-0.92-0.86c0.06,0.08-0.18-0.29-0.1-0.18c-0.05-0.07,0.07-0.1-0.02-0.04
						c0.05-0.04-0.11,0.05-0.09,0.04c0.29-0.11,0.3-0.32,0.06-0.5c-0.26-0.19-0.76-0.24-1.06-0.13c-0.82,0.31-0.13,1.06,0.26,1.42
						c1,0.93,2.21,1.65,3.4,2.32c4.23,2.38,8.86,4.09,13.56,5.25c6,1.49,12.29,2.11,18.43,1.24c5.44-0.77,10.76-2.53,15.65-5
						c1.67-0.84,3.32-1.77,4.83-2.89c0.46-0.34,0.94-0.71,1.33-1.13c0.19-0.2,0.48-0.49,0.5-0.79c0.01-0.13-0.05-0.27-0.15-0.36
						c-0.27-0.22-0.66-0.31-1.01-0.25C85.56,113.86,85.13,114.04,85.4,114.27L85.4,114.27z"/>
				</g>
			</g>
			<g>
				<g>
					<path class="st58" d="M85.82,117c-0.01-0.01,0,0.04-0.02,0.11c-0.02,0.07-0.08,0.15-0.18,0.26c-0.19,0.23-0.64,0.59-0.94,0.81
						c-1.3,0.97-2.74,1.77-4.19,2.51c-4.42,2.26-9.21,3.92-14.09,4.83c-5.71,1.07-11.5,0.79-17.18-0.35
						c-4.78-0.96-9.46-2.49-13.86-4.59c-1.56-0.75-3.12-1.56-4.54-2.55c-0.38-0.27-0.79-0.55-1.11-0.89
						c-0.09-0.1-0.14-0.21-0.22-0.31c-0.05-0.07-0.03-0.07-0.03-0.07c-0.07-0.05,0.22-0.01-0.03,0.04
						c-0.11,0.02-0.41,0.28-0.62,0.35c0.2-0.06,0.78-0.25,0.79-0.52c0.02-0.27-0.48-0.15-0.61-0.1c-0.33,0.1-1.04,0.36-0.92,0.82
						c0.07,0.27,0.37,0.51,0.57,0.68c1,0.89,2.21,1.56,3.39,2.19c4.29,2.32,8.97,4,13.71,5.16c6,1.47,12.24,2.04,18.37,1.14
						c5.52-0.81,10.91-2.59,15.93-5.01c1.75-0.84,3.48-1.77,5.08-2.89c0.5-0.34,1-0.71,1.44-1.13c0.22-0.21,0.59-0.54,0.64-0.86
						c0.02-0.14-0.01-0.21-0.11-0.3C86.84,116.07,85.54,116.73,85.82,117L85.82,117z"/>
				</g>
			</g>
			<g>
				<g>
					<path class="st1" d="M86.43,119.6c-0.17-0.18-0.19-0.39-0.2-0.52c-0.02-0.27,0.03,0.02-0.01-0.01c0,0-0.04,0.07-0.05,0.07
						c0.14-0.15,0.05-0.07,0.02-0.03c-0.06,0.07-0.12,0.13-0.18,0.2c-0.34,0.34-0.73,0.62-1.09,0.86c-1.39,0.95-2.89,1.74-4.4,2.48
						c-4.45,2.16-9.2,3.79-14.06,4.75c-2.71,0.54-5.47,0.85-8.23,0.83c-2.93-0.03-5.85-0.34-8.73-0.87
						c-4.97-0.9-9.85-2.44-14.47-4.5c-1.66-0.74-3.32-1.56-4.86-2.55c-0.24-0.15-0.48-0.32-0.72-0.49c-0.05-0.04-0.09-0.07-0.14-0.1
						c-0.18-0.13,0.05,0.05-0.05-0.04c-0.08-0.07-0.16-0.13-0.23-0.2c-0.05-0.05-0.1-0.1-0.15-0.15c0.01,0.01,0.09,0.16,0.01-0.02
						c0.13,0.27,0.07,0.65-0.23,0.72c0.88-0.22,0.29-1.56-0.48-1.36c-1.21,0.3-0.26,1.52,0.28,1.96c1.12,0.9,2.42,1.6,3.7,2.26
						c4.53,2.32,9.4,4.03,14.34,5.19c6.03,1.41,12.24,1.97,18.39,1.03c5.42-0.83,10.75-2.55,15.71-4.87
						c1.69-0.79,3.38-1.66,4.94-2.7c0.65-0.43,1.91-1.13,2.05-2.01c0.05-0.31-0.09-0.59-0.29-0.81
						C86.67,118,85.79,118.9,86.43,119.6L86.43,119.6z"/>
				</g>
			</g>
		</g>
		<g>
			<path class="st59" d="M7.68,85c-0.05,1.09-1.42,2.38-2.32,2.91c-1.31,0.76-3.42,4.07-3.69,5.2"/>
			<g>
				<path class="st60" d="M32.92,27.63c6.18-6.95,14.66-10.59,22.76-14.77c3.32-1.71,3.16-11.11,2.36-10.89
					c-16.58,4.58-7.92,7.67-12.2,10.8c-3.46,2.53-14.12,9.02-21.26,17.05c-0.9,1.02-3,6.32-2.3,6.32
					C23.57,36.14,32.04,28.62,32.92,27.63L32.92,27.63z"/>
			</g>
			<g>
				<path class="st1" d="M45.27,2.38c-5.22,3.1-4.03,2.59-8.13,7.06c-4.55,4.95-7.92,10.65-12.05,15.9
					c-5.84,7.42-12.36,14.19-15.46,23.3C4.15,64.76,0.82,82.5,3.81,99.34c0.23,1.3,3.87,1.46,3.62,0.07
					C6.65,95,7.25,89.57,7.16,85.15c0.39-4.82,0.06-7.03,0.37-10.53c0.75-2.38,0.04-4.54,0.74-6.17c0.69-1.63,0.37-2.33,0.58-3.49
					c0.17-0.95,0.61-1.09,0.83-2.55c0.22-1.46,0.04-1.75,0.2-2.49c0.45-2.02,1.97-4.11,2.52-6.12c1.36-4.89,4.98-9.55,7.64-13.89
					c2.44-3.99,2.74-7.48,5.68-11.09c3.48-4.28,8.14-7.15,11.51-11.52c4.13-5.35,6.6-3.1,12.15-7.01
					C56.2,5.49,49.19,0.06,45.27,2.38z"/>
			</g>
			<g>
				<g>
					<path class="st28" d="M5.64,61.03c-1.17,6.6-2.36,13.21-3.2,19.87c-0.59,4.68-1.02,9.43-0.66,14.14
						c0.26,3.5,1.06,6.95,2.69,10.08c1.76,3.38,4.25,6.23,7.06,8.77c3.79,3.43,8,6.38,12.2,9.25c0.63,0.43,1.26,0.86,1.9,1.28
						c0.38,0.26,1.11,0.25,1.53,0.21c0.57-0.07,1.26-0.27,1.74-0.6c0.72-0.51,1.28-1.32,0.37-1.94c-2.37-1.59-4.72-3.21-7.03-4.89
						c-0.5-0.36-1-0.73-1.49-1.1c-0.1-0.07-0.41-0.31-0.14-0.1c-0.12-0.09-0.23-0.18-0.35-0.27c-0.24-0.19-0.49-0.38-0.73-0.57
						c-0.88-0.69-1.75-1.39-2.6-2.13c-2.85-2.45-5.52-5.18-7.44-8.43c-0.1-0.17-0.19-0.33-0.29-0.5c0.22,0.37,0.04,0.07-0.02-0.03
						c-0.06-0.11-0.12-0.23-0.18-0.34c-0.18-0.36-0.36-0.73-0.53-1.1c-0.34-0.77-0.64-1.56-0.89-2.36
						c-0.54-1.68-0.87-3.41-1.07-5.16c-0.11-0.95-0.18-1.91-0.21-2.87c-0.01-0.13-0.01-0.25-0.02-0.37
						c-0.01-0.13-0.01-0.42-0.01-0.11c-0.01-0.29-0.01-0.57-0.01-0.85c0-0.53,0.01-1.05,0.02-1.57c0.07-2.4,0.27-4.79,0.54-7.17
						c0.71-6.34,1.82-12.63,2.93-18.91c0.16-0.93,0.33-1.86,0.49-2.79C10.6,58.61,5.94,59.35,5.64,61.03L5.64,61.03z"/>
				</g>
			</g>
			<g>
				<g>
					<path class="st61" d="M36.89,16.12c1.64-2.19,3.11-4.49,4.71-6.71c0.21-0.29,0.43-0.58,0.67-0.85c0.05-0.06,0.1-0.11,0.15-0.16
						c0.09-0.1,0.12-0.13,0.07-0.07c0.13-0.13,0.26-0.24,0.39-0.36c0.28-0.24,0.59-0.47,0.89-0.68c-0.17,0.12,0.04-0.02,0.1-0.07
						c0.1-0.07,0.19-0.13,0.29-0.19c0.23-0.15,0.46-0.29,0.69-0.42c1.53-0.91,3.09-1.77,4.63-2.64c0.3-0.17,0.63-0.54,0.21-0.77
						c-0.42-0.23-1.14,0.01-1.51,0.22c-1.44,0.81-2.89,1.61-4.31,2.44c-0.85,0.5-1.7,1.02-2.47,1.64c-1.32,1.06-2.19,2.52-3.12,3.91
						c-1.08,1.6-2.2,3.18-3.36,4.72c-0.3,0.4,0.26,0.56,0.57,0.57C35.94,16.69,36.6,16.52,36.89,16.12L36.89,16.12z"/>
				</g>
			</g>
			<g>
				<g>
					<path class="st45" d="M46.61,8.92c0.64-0.44,1.28-0.87,1.89-1.34c0.35-0.27,0.99-0.7,0.84-1.22C49.1,5.5,47.9,5.87,47.36,6.12
						c-0.44,0.2-0.87,0.44-1.3,0.67c-2.9,1.58-5.73,3.28-8.57,4.97c-0.86,0.51-1.73,1.03-2.59,1.55c-0.36,0.22-0.53,0.74-0.2,1.06
						c0.34,0.32,1.02,0.32,1.41,0.09c3.59-2.11,7.2-4.23,10.63-6.57c1.92-1.31,3.77-2.72,5.47-4.3c0.33-0.31,0.59-0.8,0.12-1.13
						c-0.41-0.29-1.2-0.21-1.58,0.13C46.2,6.8,40.7,9.81,35.41,13c-0.07,0.05-0.15,0.09-0.22,0.14c-0.23,0.14,0.2-0.07,0.07-0.04
						c-0.04,0.01-0.08,0.05-0.12,0.07c0.4,0.38,0.81,0.76,1.21,1.14c-0.54,0.32,0.13-0.08,0.26-0.16c0.43-0.26,0.86-0.52,1.29-0.77
						c1.31-0.78,2.63-1.56,3.95-2.33c1.39-0.81,2.78-1.63,4.19-2.42c0.53-0.3,1.06-0.59,1.6-0.87c0.18-0.1,0.37-0.19,0.56-0.29
						c0.17-0.08,0.62-0.21,0.1-0.07c0.02-0.01,0.04-0.02,0.06-0.02c-0.2,0.05-0.42,0.07-0.65,0.02c-0.65-0.17-0.66-0.71-0.43-1.01
						c-0.15,0.19,0.23-0.18,0.05-0.04c-0.08,0.06-0.15,0.12-0.22,0.18c-0.63,0.5-1.29,0.95-1.96,1.39
						c-0.38,0.26-0.55,0.82-0.12,1.13C45.5,9.37,46.18,9.21,46.61,8.92L46.61,8.92z"/>
				</g>
			</g>
			<g>
				<path class="st14" d="M33.16,23.92c6.52-11,2.88-9.9,14.56-14.38c2.93-1.12,6.18-1.85,8.97-3.29c0.68-0.35,1.09-0.75,1.61-1.31
					c1.61-1.74-9.92,1.95-11.89,2.7c-5.34,2.04-13.81,9.35-17.75,15.99c-0.23,0.39-3.45,5.49-3.24,5.69c0,0,5.99-2.55,6.52-3.45
					L33.16,23.92z"/>
			</g>
			<path class="st62" d="M32.34,28.43c-2.66,1.52-5.76,1.12-8.31,1.57c-2.55,0.45-4.06,1.39-4.78,2.31"/>
			<path class="st62" d="M27.72,32.52c0,0-2.28,2.26-6.87,2.74c-4.58,0.48-5.12,1.77-5.12,1.77"/>
			<path class="st62" d="M21.39,38.33c0,0-3.06,2.02-5.8,3.03c-2.74,1.01-3.77,2.03-4.64,3.23"/>
			<path class="st62" d="M17.52,44.23c0,0-1.55,1.2-4.02,2.25s-4.48,4.34-5.06,5.34"/>
			<path class="st62" d="M14.12,50.13c0,0-1.89,3.25-2.77,3.66c-0.75,0.34-3.16,2.3-4.54,4.01"/>
			<path class="st62" d="M10.58,61.72c0,0-1.82,2.11-2.71,2.52c-1.28,0.59-3.25,3.09-3.66,4.17"/>
			<path class="st62" d="M9.27,67.25C9.11,68.33,6.96,72,6.08,72.44c-1.28,0.64-2.83,2.17-3.2,3.28"/>
			<path class="st62" d="M8.61,76.44c-0.17,1.08-2.38,3.54-3.26,3.98c-1.28,0.64-3.21,2.71-3.58,3.81"/>
			<path class="st63" d="M7.82,100.6c0.22,1.14,0.51,3.38,0.01,4.47c-0.51,1.1-0.6,3.33-0.57,4.56"/>
			<path class="st62" d="M12.37,107.96c0.51,1.01,0.45,3.06-0.03,3.96c-0.7,1.31-1.16,1.62-0.81,2.78"/>
			<path class="st62" d="M16.13,112.26c0.7,0.88,1.09,2.9,0.8,3.88c-0.41,1.43-0.79,1.83-0.21,2.89"/>
			<path class="st62" d="M39.73,21.83c-2.52,1.58-9.31,1.16-10.55,1.38c-1.78,0.32-3.35,0.62-4.24,1.85"/>
			<g>
				<path class="st61" d="M31.97,21.07c8.87-7.16,18.67-8.74,20.57-10.41"/>
				<g>
					<path class="st1" d="M34.02,21.37c0.86-0.69,1.75-1.34,2.66-1.97c0.07-0.05,0.35-0.24-0.01,0c0.1-0.07,0.21-0.14,0.32-0.21
						c0.21-0.14,0.42-0.27,0.63-0.4c0.44-0.27,0.88-0.54,1.33-0.8c0.83-0.48,1.68-0.94,2.54-1.37c0.2-0.1,0.4-0.2,0.6-0.3
						c0.07-0.04,0.21-0.13,0.3-0.15c-0.41,0.08-0.35,0.17-0.15,0.07c0.43-0.2,0.87-0.4,1.31-0.59c2.55-1.12,5.2-1.99,7.79-3
						c1.12-0.43,2.32-0.91,3.23-1.69c0.26-0.22,0.65-0.61,0.55-1.01c-0.1-0.38-0.65-0.56-0.98-0.6c-1.18-0.16-2.75,0.19-3.67,0.99
						c-0.05,0.04-0.1,0.07-0.15,0.12c-0.26,0.26,0.51-0.31,0.26-0.17c-0.16,0.09-0.32,0.18-0.49,0.27c-0.3,0.16,0.71-0.32,0.27-0.13
						c-0.1,0.04-0.19,0.09-0.28,0.13c-0.22,0.1-0.44,0.18-0.67,0.27c-1.14,0.45-2.3,0.84-3.45,1.27c-3.36,1.24-6.66,2.66-9.78,4.42
						c-2.19,1.24-4.31,2.66-6.28,4.24c-0.26,0.21-0.65,0.62-0.55,1.01c0.1,0.38,0.65,0.56,0.98,0.6
						C31.56,22.52,33.05,22.15,34.02,21.37L34.02,21.37z"/>
				</g>
			</g>
			<path class="st64" d="M56.85,12.14c-4.41,2.52-18.69,3.87-19.83,3.94c-1.66,0.09-6.24,1.3-6.96,2.22"/>
			<path class="st65" d="M12.7,53.51l-0.82,2.25c1.44,0.22,1.66,0.59,1.66,1.14c0,0.76-1.92,1.37-4.28,1.37s-4.28-0.62-4.28-1.37
				c0-0.57,0.71-1.09,2.24-1.3l0.7-2.51c-3.89,0.22-6.54,1.96-6.54,3.86c0,2.05,3.51,3.72,7.84,3.72s7.84-1.66,7.84-3.72
				C17.04,55.33,15.78,54.01,12.7,53.51z"/>
			<g>
				<path class="st66" d="M8.79,61.99c-4.12,0.21-7.19-2.3-7.27-2.91L1.4,56.81c0,1.36,3,3.61,7.39,3.61c3.59,0,6.62-1.04,7.57-2.18
					c0.21-0.25,0.45-0.76,0.45-0.76l-0.29,1.91C16.22,60.22,12.91,61.79,8.79,61.99z"/>
			</g>
		</g>
		<path class="st67" d="M24.88,124.23c0,0-1.25-0.59-0.88-2.72c0.34-1.54,1.87-2.51,3.42-2.17c1.55,0.34,2.52,1.87,2.18,3.41
			c-0.07,0.28-0.17,0.4-0.3,0.64l1.46,1.14c0.34-0.49,0.46-0.76,0.6-1.38c0.56-2.51-1.03-5.41-3.55-5.96
			c-2.52-0.56-5.49,1.45-6.04,3.95c-0.45,2.05,0.32,4.81,2.92,5.86L24.88,124.23z"/>
		<g>
			<g>
				<path class="st28" d="M24.93,123.18c3.32,2.66,6.78,5.24,10.45,7.4c4.33,2.55,9.43,3.45,14.35,4
					c7.67,0.86,15.51,0.46,23.02-1.31c3.3-0.78,6.56-1.89,9.5-3.59c1.73-1,3.37-2.27,4.57-3.88c0.73-0.98,1.34-2.08,1.56-3.29
					c0.08-0.46,0.26-1.38-0.19-1.74c-0.59-0.46-1.84-0.03-2.4,0.16c-0.29,0.1-1.55,0.63-1.06,1.09c0.48,0.46,1.84,0,2.34-0.17
					c-0.29,0.05-0.59,0.1-0.88,0.15c-0.34,0.16-0.69,0.2-1.04,0.13c-0.15-0.03-0.22-0.02-0.35-0.11c0.01,0.01,0.02,0.02,0.02,0.02
					c-0.07-0.05-0.06-0.18-0.06-0.06c0,0.07,0.05,0.18,0.07,0.25c0.02,0.13,0.03,0.26,0.03,0.39c0,0.08-0.01,0.15-0.01,0.23
					c-0.01,0.2,0.03-0.09-0.02,0.13c-0.18,1.06-0.62,2.03-1.22,2.91c-0.04,0.07-0.09,0.13-0.13,0.18c-0.06,0.09,0.03-0.04,0.03-0.04
					c-0.03,0.04-0.07,0.09-0.1,0.13c-0.12,0.15-0.23,0.3-0.36,0.44c-0.27,0.32-0.56,0.62-0.86,0.89c-0.15,0.15-0.31,0.29-0.47,0.42
					c-0.09,0.08-0.18,0.15-0.27,0.23c0.19-0.15-0.06,0.04-0.12,0.09c-0.42,0.32-0.85,0.62-1.3,0.89c-0.12,0.08-0.24,0.15-0.36,0.22
					c-0.1,0.06-0.32,0.18-0.1,0.06c-0.27,0.15-0.54,0.29-0.81,0.43c-0.29,0.15-0.58,0.29-0.88,0.42c-0.13,0.06-0.26,0.12-0.4,0.18
					c0.33-0.15-0.18,0.07-0.28,0.11c-0.7,0.28-1.42,0.54-2.13,0.77c0.31-0.1-0.09,0.03-0.19,0.06c-0.2,0.06-0.4,0.12-0.61,0.18
					c-0.42,0.12-0.84,0.23-1.27,0.34c-0.96,0.24-1.48,0.35-2.51,0.55c-0.89,0.17-1.8,0.32-2.7,0.44c-1.62,0.23-3.4,0.39-5.17,0.48
					c-3.3,0.17-6.61,0.07-9.92-0.27c-2.67-0.27-5.3-0.7-7.91-1.37c-1.01-0.26-2-0.55-2.98-0.9c-0.91-0.33-1.36-0.55-2.24-1.03
					c-3.91-2.16-7.53-4.91-11.03-7.68c-0.08-0.07-0.16-0.13-0.24-0.19c-0.55-0.44-1.77-0.06-2.34,0.17
					C25.74,122.18,24.4,122.75,24.93,123.18L24.93,123.18z"/>
			</g>
		</g>
		<path class="st62" d="M7.31,85.14c-0.05,1.09-1.42,2.38-2.32,2.91c-1.31,0.76-3.42,4.07-3.69,5.2"/>
		<path class="st62" d="M7.07,92.57c0.09,1.56-1.47,4.29-2.45,5.18c-1.42,1.28-1.42,2.59-1.58,4.25"/>
	</g>
	<path class="st68" d="M29.79,123.29"/>
</g>
</svg>
