<?xml version="1.0" encoding="utf-8"?>
<!-- Generator: Adobe Illustrator 25.2.3, SVG Export Plug-In . SVG Version: 6.00 Build 0)  -->
<svg version="1.1" id="Layer_1" xmlns="http://www.w3.org/2000/svg" xmlns:xlink="http://www.w3.org/1999/xlink" x="0px" y="0px"
	 viewBox="0 0 96.3 200.5" style="enable-background:new 0 0 96.3 200.5;" xml:space="preserve">
<style type="text/css">
	.st0{fill:#E4DAD8;stroke:#FFFFFF;stroke-width:0.5;stroke-miterlimit:10;}
	.st1{fill:#EF7C4F;}
	.st2{fill:#EE784C;}
	.st3{fill:#EC734A;}
	.st4{fill:#EA6F47;}
	.st5{fill:#E86A45;}
	.st6{fill:#E66642;}
	.st7{fill:#E56240;}
	.st8{fill:#E35D3D;}
	.st9{fill:#E1593B;}
	.st10{fill:#DF5438;}
	.st11{fill:#DD5036;}
	.st12{fill:#DC4B33;}
	.st13{fill:#DA4731;}
	.st14{fill:#D8422E;}
	.st15{fill:#DD335A;}
	.st16{fill:#DE3859;}
	.st17{fill:#E03E58;}
	.st18{fill:#E14457;}
	.st19{fill:#E34957;}
	.st20{fill:#E44F56;}
	.st21{fill:#E55555;}
	.st22{fill:#E75A54;}
	.st23{fill:#E86053;}
	.st24{fill:#EA6652;}
	.st25{fill:#EB6B51;}
	.st26{fill:#EC7150;}
	.st27{fill:#EE7750;}
	.st28{fill:#CEBDBA;stroke:#FFFFFF;stroke-width:0.5;stroke-linejoin:bevel;stroke-miterlimit:10;}
	.st29{fill:none;stroke:#FFFFFF;stroke-width:0.5;stroke-miterlimit:10;}
	.st30{fill:#CEBDBA;stroke:#FFFFFF;stroke-width:0.5;stroke-miterlimit:10;}
	.st31{fill:#DF3D58;}
	.st32{fill:#E14258;}
	.st33{fill:#E24857;}
	.st34{fill:#E34D56;}
	.st35{fill:#E55255;}
	.st36{fill:#E65754;}
	.st37{fill:#E75D54;}
	.st38{fill:#E96253;}
	.st39{fill:#EA6752;}
	.st40{fill:#EB6C51;}
	.st41{fill:#ED7250;}
	.st42{fill:#EE774F;}
	.st43{fill:none;stroke:#FFFFFF;stroke-width:0.4169;stroke-miterlimit:10;}
	.st44{fill:none;stroke:#FFFFFF;stroke-width:0.2938;stroke-miterlimit:10;}
	.st45{fill:none;stroke:#FFFFFF;stroke-width:0.297;stroke-miterlimit:10;}
	.st46{fill:#543C52;stroke:#FFFFFF;stroke-width:0.25;stroke-miterlimit:10;}
	.st47{fill:#543C52;stroke:#FFFFFF;stroke-width:0.5;stroke-miterlimit:10;}
	.st48{fill:#E4DAD8;stroke:#FFFFFF;stroke-width:0.4783;stroke-miterlimit:10;}
</style>
<g>
	<g>
		<path class="st0" d="M56.9,117.4l29.1,0.2c0,0-2.2,19.5-3.5,29.7c-0.2,5.4-1.1,11.1-3.4,16.1c-4.1,9.1-10.7,16.2-10.7,16.2
			l0.6,14.5c0,0-1.5,5.7-11.7,5.9H57c-10.3-0.2-11.7-5.9-11.7-5.9l0.6-14.5c0,0-6.6-7.1-10.7-16.2c-2.3-5.1-3.1-10.8-3.4-16.1
			c-1.3-10.2-3.5-29.7-3.5-29.7l29.1-0.2C57.4,117.4,56.9,117.4,56.9,117.4z"/>
		<path class="st0" d="M46,179.5c0,0,3.7,4.7,11.5,4.7s11.1-4.6,11.1-4.6"/>
		<g>
			<g>
				<g>
					<path class="st1" d="M85.2,119.8c2,2.6-13.6,7.1-14.9,7.4c-9.7,2.4-19.6,2.6-29.2,0c-2.2-0.6-4.4-1.3-6.5-2.2
						c-0.8-0.3-1.6-0.7-2.3-1.1c-0.4-0.2-2.7-1.6-1.9-1.9c0.9-0.3,0.1-0.6-0.5-0.4c-2.2,0.8-0.3,2,1,2.7c1.6,0.9,3.4,1.7,5.2,2.3
						c5.5,1.9,11.3,3,17.1,3.2c5.2,0.2,10.5-0.5,15.6-1.6c4.5-1,8.9-2.3,13.1-4.3c1-0.5,6.2-2.7,4.7-4.6
						C86.2,119,84.9,119.4,85.2,119.8L85.2,119.8z"/>
				</g>
			</g>
			<g>
				<g>
					<path class="st2" d="M84.8,122.9c1.6,2.6-13.6,6.8-14.9,7.1c-9.5,2.3-19.1,2.5-28.6,0c-2.2-0.6-4.4-1.3-6.5-2.2
						c-0.8-0.3-1.6-0.7-2.4-1.1c-0.4-0.2-2.6-1.6-2-1.8c0.9-0.3,0.1-0.8-0.5-0.6c-2.2,0.8-0.2,2.1,1,2.8c1.6,0.9,3.3,1.7,5,2.3
						c5.3,1.9,10.8,3,16.4,3.3c5.2,0.3,10.4-0.3,15.5-1.4c4.5-1,9-2.3,13.2-4.2c1.1-0.5,6.2-2.6,4.9-4.6
						C85.8,121.9,84.5,122.4,84.8,122.9L84.8,122.9z"/>
				</g>
			</g>
			<g>
				<g>
					<path class="st3" d="M84.4,125.8c0.7,1.5-3.3,3.1-4.1,3.4c-3.5,1.6-7.2,2.7-10.9,3.6c-9.3,2.2-18.8,2.3-28-0.2
						c-2.2-0.6-4.3-1.3-6.4-2.2c-0.8-0.3-1.5-0.7-2.2-1.1c-0.4-0.2-2.6-1.6-2.1-1.8c0.9-0.4,0.1-0.8-0.5-0.5c-2,0.8-0.1,2.1,1,2.7
						c1.6,0.9,3.2,1.7,4.9,2.3c5.1,1.9,10.6,3,16,3.3c5.1,0.3,10.2-0.2,15.2-1.3c4.4-0.9,8.9-2.2,13-4c1.1-0.5,6.4-2.6,5.4-4.6
						C85.5,125,84.2,125.4,84.4,125.8L84.4,125.8z"/>
				</g>
			</g>
			<g>
				<g>
					<path class="st4" d="M84,128.8c0.5,1.3-3.5,2.9-4.3,3.2c-3.5,1.5-7.1,2.6-10.8,3.5c-9.1,2.1-18.4,2.2-27.5-0.4
						c-2.1-0.6-4.2-1.3-6.1-2.2c-0.8-0.3-1.5-0.7-2.3-1.1c-0.3-0.2-2.2-1.5-2-1.6c0.8-0.4,0.1-1.1-0.6-0.8c-1.9,0.9,0,2.3,1,2.9
						c1.5,0.9,3.1,1.6,4.7,2.3c5,2,10.4,3.1,15.7,3.5c9.4,0.7,19.3-1.3,28-5c1.3-0.6,6.3-2.4,5.5-4.6
						C85.1,127.8,83.8,128.2,84,128.8L84,128.8z"/>
				</g>
			</g>
			<g>
				<g>
					<path class="st5" d="M83.6,131.9c0.3,1.6-3.7,3-4.6,3.4c-3.5,1.5-7.2,2.5-10.8,3.3c-9.1,2-18.4,1.8-27.3-0.9
						c-1.9-0.6-3.7-1.3-5.5-2.1c-0.5-0.2-4.7-2.6-3.9-2.9c0.8-0.4-0.4-0.5-0.8-0.3c-1.8,0.9,0.6,2.2,1.4,2.7c1.4,0.9,3,1.5,4.6,2.1
						c4.9,1.9,10.1,3,15.3,3.4c9.2,0.7,18.9-1.2,27.4-4.8c1.5-0.6,3.1-1.3,4.4-2.3c0.6-0.4,1.5-1.2,1.3-2
						C84.9,131.1,83.5,131.5,83.6,131.9L83.6,131.9z"/>
				</g>
			</g>
			<g>
				<g>
					<path class="st6" d="M83.2,134.9c0,0.6-0.9,1.1-1.3,1.4c-1.1,0.7-2.3,1.3-3.5,1.8c-3.4,1.4-7,2.4-10.6,3.2
						c-8.8,1.9-17.6,1.8-26.2-0.8c-2-0.6-3.9-1.3-5.8-2.1c-0.7-0.3-1.5-0.7-2.2-1.1c-0.3-0.2-2.2-1.6-2.2-1.6
						c0.8-0.4,0.1-1.2-0.6-0.8c-2.9,1.6,4.6,4.7,5.8,5.1c4.8,1.9,9.9,3.1,15.1,3.5c9,0.8,18.5-1.1,26.8-4.4c1.6-0.6,3.2-1.3,4.6-2.3
						c0.7-0.5,1.6-1.2,1.5-2.2C84.5,133.9,83.2,134.3,83.2,134.9L83.2,134.9z"/>
				</g>
			</g>
			<g>
				<g>
					<path class="st7" d="M82.8,137.8c0,0.6-0.9,1.1-1.4,1.4c-1.1,0.7-2.3,1.2-3.4,1.7c-3.4,1.4-7,2.4-10.5,3.1
						c-8.6,1.8-17.3,1.7-25.8-0.9c-1.9-0.6-3.8-1.3-5.7-2.1c-0.4-0.2-4.4-2.5-4.1-2.7c0.8-0.5-0.3-1-0.9-0.7c-2.4,1.5,5,4.7,6,5.1
						c4.6,1.9,9.6,3,14.5,3.5c8.9,0.9,18.1-0.9,26.4-4.1c1.6-0.6,3.2-1.3,4.6-2.2c0.7-0.5,1.7-1.2,1.8-2.1
						C84.2,137,82.9,137.2,82.8,137.8L82.8,137.8z"/>
				</g>
			</g>
			<g>
				<g>
					<path class="st8" d="M82.4,140.9c-0.1,0.7-1.1,1.2-1.6,1.5c-1.1,0.7-2.3,1.2-3.5,1.6c-3.4,1.3-7,2.3-10.5,3
						c-8.5,1.7-17.1,1.4-25.4-1.3c-1.9-0.6-3.7-1.3-5.4-2.2c-0.4-0.2-4.1-2.4-3.9-2.6c0.7-0.5-0.4-1-0.9-0.6c-2.2,1.6,4.8,4.5,5.9,5
						c4.5,1.9,9.3,3,14.1,3.5c8.7,0.9,17.8-0.7,26-3.8c1.6-0.6,3.3-1.3,4.8-2.2c0.8-0.5,1.7-1.1,1.9-2.1
						C83.9,140.1,82.6,140.3,82.4,140.9L82.4,140.9z"/>
				</g>
			</g>
			<g>
				<g>
					<path class="st9" d="M82.1,143.9c-0.2,0.7-1.1,1.2-1.7,1.6c-1.2,0.7-2.4,1.2-3.7,1.7c-3.4,1.3-7,2.2-10.7,2.9
						c-8.4,1.6-16.8,1-24.9-1.7c-1.8-0.6-3.5-1.3-5.2-2.2c-0.6-0.3-4.2-2.3-3.5-2.9c0.3-0.3-1-0.1-1.2,0.1c-1.5,1.3,5.7,4.4,6.6,4.7
						c4.4,1.8,9,2.8,13.7,3.3c8.4,0.9,17.2-0.8,25.1-3.7c1.6-0.6,3.2-1.2,4.6-2.1c0.8-0.4,1.8-1,2.1-2
						C83.5,143.4,82.2,143.6,82.1,143.9L82.1,143.9z"/>
				</g>
			</g>
			<g>
				<g>
					<path class="st10" d="M81.7,146.8c-0.3,0.7-1.2,1.1-1.8,1.4c-1.2,0.6-2.4,1.2-3.7,1.6c-3.4,1.2-6.8,2.1-10.3,2.8
						c-8.1,1.5-16.3,1.1-24.2-1.6c-1.8-0.6-3.5-1.3-5.1-2.1c-0.4-0.2-4.2-2.4-3.9-2.7c0.6-0.6-0.7-0.9-1.1-0.4c-1.6,1.6,5,4.5,6,4.9
						c4.2,1.8,8.7,2.9,13.2,3.5c8.4,1.1,17.2-0.4,25.2-3.2c1.6-0.6,3.3-1.2,4.8-2c0.9-0.5,1.9-1.1,2.3-2
						C83.3,146.2,82,146.2,81.7,146.8L81.7,146.8z"/>
				</g>
			</g>
			<g>
				<g>
					<path class="st11" d="M81.3,149.8c-0.4,0.7-1.4,1.1-2,1.5c-1.2,0.6-2.5,1.1-3.8,1.6c-3.3,1.1-6.7,2-10.1,2.6
						c-7.9,1.4-16,0.9-23.6-1.8c-1.7-0.6-3.4-1.3-5.1-2.1c-0.5-0.2-4.1-2.3-3.8-2.7c0.5-0.7-0.8-0.9-1.1-0.4
						c-1.3,1.8,4.9,4.4,6.1,4.9c4.1,1.8,8.5,2.9,12.9,3.5c8.3,1.1,16.8-0.3,24.6-2.9c1.6-0.5,3.2-1.1,4.7-1.9c0.9-0.5,2-1.1,2.5-2
						C83,149.3,81.6,149.3,81.3,149.8L81.3,149.8z"/>
				</g>
			</g>
			<g>
				<g>
					<path class="st12" d="M81,152.8c-1.2,1.7-4.1,2.4-5.9,3c-3.4,1.1-6.8,2-10.3,2.5c-7.7,1.3-15.5,0.6-22.9-2
						c-1.7-0.6-3.4-1.3-4.9-2.1c-0.6-0.3-4.1-2.1-3.7-2.8c0.3-0.7-1-0.6-1.3-0.1c-0.9,1.8,5.1,4.2,6.2,4.8c3.9,1.7,8.1,2.8,12.3,3.5
						c8.1,1.2,16.3-0.1,24-2.6c1.7-0.5,3.4-1.1,5-1.9c1-0.5,2.1-1,2.7-1.9C82.6,152.4,81.4,152.3,81,152.8L81,152.8z"/>
				</g>
			</g>
			<g>
				<g>
					<path class="st13" d="M80.6,155.8c-1.5,1.6-4.2,2.4-6.2,3c-3.3,1.1-6.7,1.8-10.1,2.4c-7.6,1.2-15.3,0.4-22.5-2.2
						c-1.7-0.6-3.3-1.3-4.9-2.2c-0.7-0.4-3.8-1.9-3.5-2.8c0.2-0.5-1.2-0.4-1.4,0.1c-0.3,1.1,1.9,2.2,2.6,2.7c1.3,0.8,2.6,1.4,3.9,2
						c3.8,1.7,7.8,2.7,11.9,3.3c7.8,1.2,15.8,0,23.3-2.3c2.5-0.8,6-1.6,7.9-3.7C82.3,155.5,81,155.4,80.6,155.8L80.6,155.8z"/>
				</g>
			</g>
			<g>
				<g>
					<path class="st14" d="M80.2,158.8c-0.8,0.8-1.9,1.2-2.9,1.7c-1.5,0.7-3.2,1.2-4.8,1.6c-3.6,1-7.4,1.8-11.1,2.2
						c-7.8,0.8-16.2-0.7-23.2-4.3c-1.2-0.6-2.3-1.2-3.4-2c-0.3-0.2-1.3-0.9-1.2-1.3c0.2-0.6-1.2-0.4-1.4,0.1
						c-0.3,1.3,2.8,2.8,3.6,3.2c3.3,1.9,6.9,3.2,10.6,4c4.4,1.1,8.9,1.6,13.4,1.2c4.1-0.3,8.2-1.1,12.1-2.2c3-0.8,7-1.7,9.3-4
						C82,158.6,80.6,158.4,80.2,158.8L80.2,158.8z"/>
				</g>
			</g>
		</g>
		<g>
			<g>
				<g>
					<path class="st15" d="M86,122c0.9,1.2-3.2,3.4-3.9,3.8c-3.5,2-7.4,3.4-11.3,4.5c-4.5,1.3-9.2,2.1-13.9,2.1
						c-5.4,0-10.8-1.3-15.9-3.2c-2.3-0.8-4.5-1.7-6.6-2.8c-0.8-0.4-1.6-0.8-2.3-1.2c-0.3-0.2-0.6-0.3-0.8-0.5
						c-0.3-0.2-0.6-0.4-0.8-0.6c-0.4-0.3-0.5-0.2-0.1-0.3c0.9-0.3,0.1-1.3-0.7-1.1c-2.4,0.8-0.2,2.4,1,3.1c1.7,1,3.4,1.9,5.2,2.7
						c5.3,2.4,10.9,4.1,16.7,4.8c5.6,0.7,11.2,0,16.6-1.3c4.6-1.1,9.3-2.7,13.5-5c1.3-0.7,6.4-3.3,4.7-5.5
						C86.9,120.8,85.5,121.3,86,122L86,122z"/>
				</g>
			</g>
			<g>
				<g>
					<path class="st16" d="M86.1,124.7C85.9,124.4,86.1,124.6,86.1,124.7c-0.2,0.2-0.2,0.4-0.3,0.5c-0.2,0.4-0.6,0.8-1,1.1
						c-1,0.9-2.3,1.6-3.5,2.3c-3.6,1.9-7.4,3.3-11.3,4.3c-4.6,1.2-9.4,2-14.2,1.9c-5.2-0.2-10.4-1.4-15.3-3.2
						c-2.3-0.8-4.5-1.8-6.7-2.9c-0.7-0.4-1.5-0.8-2.2-1.2c-0.3-0.2-0.7-0.4-1-0.6c-0.1,0-0.1-0.1-0.2-0.1c-0.4-0.5-0.6-0.5-0.4-0.2
						c-0.2,0.2,0.6-0.1,0.7-0.2c0.2-0.1-0.4-1.4-0.8-1.3c-1.9,0.7,0.6,2.6,1.4,3.1c1.5,1,3.1,1.7,4.6,2.5c5.1,2.4,10.5,4.2,16.1,5
						s11.2,0.3,16.7-1c4.6-1.1,9.3-2.6,13.5-4.9c1.6-0.9,5.9-3,4.2-5.4C86,123.7,85.6,123.9,86.1,124.7L86.1,124.7z"/>
				</g>
			</g>
			<g>
				<g>
					<path class="st17" d="M85.1,127.5c0.9,1.6-2.7,3.5-3.6,4c-3.4,2-7.3,3.4-11.1,4.4c-4.9,1.4-10,2.1-15.1,1.8
						c-5.2-0.3-10.3-1.7-15.1-3.6c-2-0.8-4-1.7-6-2.7c-0.6-0.3-1.3-0.7-1.9-1.1c-0.4-0.3-2.5-1.5-1.4-1.9c0.6-0.2-0.8-0.2-1.1-0.1
						c-1.9,0.7,0.6,2.1,1.5,2.6c1.6,1,3.3,1.8,5.1,2.6c5,2.2,10.4,3.8,15.8,4.4c9.7,1.1,20.2-1.3,28.8-5.6c1.1-0.6,6.6-3.1,5.5-5.1
						C86.4,126.9,85.1,127.4,85.1,127.5L85.1,127.5z"/>
				</g>
			</g>
			<g>
				<g>
					<path class="st18" d="M84.7,130.4c0.7,1.4-3.2,3.4-4.1,3.9c-3.5,1.9-7.4,3.3-11.3,4.3c-4.7,1.2-9.5,1.9-14.3,1.6
						c-4.9-0.3-9.7-1.5-14.3-3.2c-2-0.8-3.9-1.6-5.8-2.6c-0.7-0.4-1.4-0.7-2.1-1.1c-0.3-0.2-2.3-1.5-1.8-1.7c0.9-0.4-0.2-1-0.8-0.7
						c-1.9,0.8,0.1,2.1,1,2.7c1.5,1,3.1,1.8,4.7,2.5c4.7,2.2,9.6,3.8,14.7,4.6c10,1.6,21.1-0.6,30.1-5.3c1.3-0.7,6.3-3,5.3-5.2
						C85.9,129.5,84.4,129.8,84.7,130.4L84.7,130.4z"/>
				</g>
			</g>
			<g>
				<g>
					<path class="st19" d="M84.3,132.9c0.6,1.6-3,3.4-3.9,3.9c-3.4,1.9-7.2,3.3-11,4.3c-4.6,1.2-9.5,1.9-14.3,1.7
						c-4.9-0.2-9.7-1.4-14.2-3.1c-2-0.8-4-1.6-5.9-2.6c-0.7-0.4-1.3-0.7-2-1.1c-0.5-0.3-2.5-1.5-1.6-1.9c0.5-0.2-0.8-0.8-1.2-0.6
						c-1.6,0.8,1,2.2,1.7,2.7c1.4,0.9,2.9,1.6,4.4,2.3c4.5,2.1,9.3,3.6,14.2,4.5c9.9,1.7,20.8-0.3,29.8-4.8c1.5-0.8,3.1-1.6,4.3-2.7
						c0.6-0.5,1.5-1.4,1.2-2.3C85.6,132.7,84.2,132.6,84.3,132.9L84.3,132.9z"/>
				</g>
			</g>
			<g>
				<g>
					<path class="st20" d="M83.9,136c0.2,0.6-0.7,1.3-1.1,1.6c-1,0.9-2.1,1.5-3.3,2.2c-3.5,1.9-7.4,3.2-11.3,4.1
						c-4.7,1.1-9.5,1.6-14.3,1.2c-4.5-0.4-9-1.5-13.2-3.2c-1.9-0.7-3.7-1.5-5.4-2.5c-0.7-0.4-1.3-0.7-2-1.1
						c-0.2-0.2-0.5-0.3-0.7-0.5c-0.3-0.2-0.6-0.4-0.8-0.6c-0.2-0.2-0.4-0.2-0.2-0.3c0.8-0.4-0.3-1.3-1-0.9c-2.6,1.4,4.7,4.9,5.7,5.4
						c4.3,2.1,9,3.6,13.7,4.4c9.9,1.7,20.8-0.2,29.8-4.7c1.6-0.8,3.1-1.7,4.4-2.9c0.7-0.6,1.5-1.5,1.2-2.5
						C85.2,135,83.7,135.2,83.9,136L83.9,136z"/>
				</g>
			</g>
			<g>
				<g>
					<path class="st21" d="M83.7,138.3c0.2,1.6-3.1,3.2-4.1,3.8c-3.4,1.9-7.1,3.2-10.8,4.1c-9.2,2.3-18.6,1.9-27.6-1.3
						c-2-0.7-3.9-1.5-5.7-2.5c-0.7-0.4-1.4-0.8-2.1-1.2c-0.4-0.2-2.1-1.2-1.6-1.5c0.3-0.2-0.6-1.4-1-1.2c-2,1.2,4.7,4.8,5.6,5.2
						c4.2,2.1,8.7,3.6,13.3,4.5c9.7,1.8,20.3,0.2,29.2-4.1c1.6-0.8,3.2-1.6,4.5-2.8c0.6-0.5,1.5-1.4,1.4-2.3
						C84.7,138.7,83.6,137.8,83.7,138.3L83.7,138.3z"/>
				</g>
			</g>
			<g>
				<g>
					<path class="st22" d="M83.2,141.1c0.1,1.6-2.9,3.1-4,3.8c-3.3,1.9-6.9,3.1-10.5,4.1c-9.2,2.3-18.6,2-27.5-1.3
						c-1.9-0.7-3.8-1.5-5.6-2.5c-0.7-0.4-1.4-0.7-2-1.2c-0.5-0.3-2.3-1.2-1.5-1.7c0.1-0.1-0.9-1.1-1.2-0.9c-1.5,1,5.1,4.5,5.9,4.9
						c4,2,8.3,3.5,12.7,4.4c9.6,1.9,20.1,0.4,29-3.9c1.5-0.7,3.1-1.6,4.4-2.7c0.6-0.5,1.6-1.3,1.5-2.2
						C84.4,141.5,83.2,140.9,83.2,141.1L83.2,141.1z"/>
				</g>
			</g>
			<g>
				<g>
					<path class="st23" d="M82.7,144.3c-0.1,1.7-2.9,3.1-4.1,3.8c-3.2,1.8-6.7,3-10.3,3.9c-9.3,2.3-18.8,1.6-27.6-2
						c-1.7-0.7-3.4-1.5-5-2.5c-0.6-0.4-4-2.2-3.1-2.9c0.1-0.1-1.1-0.5-1.4-0.2c-1.3,1.1,5.8,4.6,6.6,5c4.1,1.9,8.6,3.3,13.1,4
						c9.3,1.4,19.4-0.1,27.8-4.2c1.4-0.7,2.9-1.5,4.1-2.5c0.6-0.5,1.5-1.3,1.6-2.2C84.2,144.1,82.7,144,82.7,144.3L82.7,144.3z"/>
				</g>
			</g>
			<g>
				<g>
					<path class="st24" d="M82.3,147.2c-0.3,1.5-2.9,2.8-4.1,3.4c-3.1,1.7-6.5,2.8-9.9,3.6c-8.9,2.1-18.1,1.6-26.6-1.7
						c-1.8-0.7-3.5-1.5-5.2-2.4c-0.4-0.2-4.2-2.5-3.9-2.8c0.6-0.7-0.7-1-1.2-0.5c-1.6,1.7,5,4.7,6.1,5.2c4.1,2,8.6,3.4,13.2,4.1
						c9.1,1.4,19.3-0.1,27.6-4.4c1.8-0.9,5.1-2.5,5.6-4.7C83.9,146.4,82.4,146.5,82.3,147.2L82.3,147.2z"/>
				</g>
			</g>
			<g>
				<g>
					<path class="st25" d="M81.9,149.8c-0.5,1.6-2.7,2.7-4,3.5c-2.9,1.7-6.1,2.8-9.3,3.6c-8.9,2.3-18.3,2-26.9-1.4
						c-0.7-0.3-9.7-4.3-8.9-5.4c0.3-0.4-1.1-0.9-1.4-0.5c-1.1,1.5,5.5,4.6,6.5,5.1c4,1.9,8.2,3.2,12.5,3.9c9,1.5,19,0.2,27.2-3.9
						c1.4-0.7,2.8-1.4,4-2.4c0.7-0.5,1.5-1.2,1.7-2.1C83.4,149.8,82,149.4,81.9,149.8L81.9,149.8z"/>
				</g>
			</g>
			<g>
				<g>
					<path class="st26" d="M81.6,152.5c-0.7,1.6-2.7,2.7-4.1,3.4c-2.8,1.6-5.9,2.7-9.1,3.4c-8.7,2.2-18,1.9-26.5-1.3
						c-1.8-0.7-3.6-1.5-5.2-2.4c-0.4-0.2-4-2.2-3.7-2.7s-0.9-1.4-1.1-1c-0.6,1.1,1.5,2.5,2.2,3c1.2,0.9,2.5,1.6,3.9,2.3
						c3.9,2,8.1,3.3,12.4,4.1c8.9,1.5,18.8,0.3,26.9-3.7c1.9-0.9,4.8-2.3,5.7-4.4C83,152.8,81.8,151.9,81.6,152.5L81.6,152.5z"/>
				</g>
			</g>
			<g>
				<g>
					<path class="st27" d="M81.1,155.3c-0.8,1.4-2.5,2.4-3.8,3.2c-2.7,1.6-5.8,2.7-8.9,3.5c-8.5,2.2-17.7,2-26-0.9
						c-1.9-0.7-3.7-1.5-5.4-2.4c-0.8-0.4-4.1-2.1-3.8-3.1c0.1-0.3-1.2-0.9-1.3-0.8c-0.3,0.9,1.9,2.2,2.5,2.6
						c1.2,0.8,2.5,1.6,3.8,2.3c3.7,1.9,7.6,3.2,11.7,4c8.8,1.6,18.7,0.6,26.8-3.3c2-0.9,4.6-2.2,5.7-4.3
						C82.5,155.8,81.2,155.1,81.1,155.3L81.1,155.3z"/>
				</g>
			</g>
			<g>
				<g>
					<path class="st1" d="M80.8,158c-1.1,1.6-3,2.7-4.7,3.6c-3.2,1.7-6.6,2.8-10.2,3.4c-9.1,1.8-18.7,1-27.1-3.1
						c-1.5-0.7-2.9-1.5-4.2-2.5c-0.4-0.3-0.8-0.6-1.2-1c-0.2-0.2-0.2-0.3-0.2-0.2c0.1-0.5-1-1.4-1.2-0.9c-0.3,1.4,2.7,3.2,3.6,3.7
						c3.3,2.1,7.1,3.6,10.9,4.6c9.2,2.4,19.9,1.8,28.7-2.2c2.3-1,5.1-2.4,6.5-4.5C82.2,158.6,81.1,157.6,80.8,158L80.8,158z"/>
				</g>
			</g>
		</g>
		<g>
			<path class="st28" d="M58.4,103.4c-20.4,0-36.4,7.8-36.4,17.1s15.2,18.3,35.6,18.3s37.8-9.3,37.8-18.6S78.8,103.4,58.4,103.4z
				 M58.4,134c-17.7,0-32-6.4-32-14.2s14.3-14.2,32-14.2s32,6.4,32,14.2S76,134,58.4,134z"/>
			<path class="st29" d="M93.4,120c0,7.8-15.1,17-33.1,17S24,130.6,24,122.8s12.4-19.2,30.5-19.2C83.4,103.6,93.4,112.2,93.4,120z"
				/>
			<path class="st0" d="M58.3,103.4c-20,0-36.4,7-36.4,15.8s15.6,18,35.6,18s37-8.9,37-17.8S78.3,103.4,58.3,103.4z M58.3,132.5
				c-17.3,0-31.3-6-31.3-13.5s14-13.5,31.4-13.5s31.4,6.1,31.4,13.5C89.7,126.5,75.6,132.5,58.3,132.5z"/>
		</g>
		<g>
			<path class="st0" d="M84.2,123.2c0.4-0.1,0.5-3.2,0.5-3.2s0.6-9.3-1.3-22.6c-2.4-16.8-11-21.6-11-21.6l0.1-37.3l-30.3,0.4
				l0.4,36.7c0,0-8.3,7.2-9.6,17.4c-1.3,10.2-5.3,23.3-3.8,29.5c0,0,5.1,8.9,28.5,9.4C81,132.5,84.2,123.2,84.2,123.2z"/>
			<ellipse class="st0" cx="57.4" cy="39.2" rx="15.3" ry="7.7"/>
			<path class="st0" d="M72.4,75.6c0,3.1-6.2,7.7-14.6,7.7s-15.1-4.6-15.1-7.7"/>
			<ellipse class="st30" cx="57.5" cy="39.2" rx="8.8" ry="4.6"/>
			<ellipse class="st30" cx="57.5" cy="33.1" rx="8.8" ry="4.6"/>
			<path class="st28" d="M48.7,33.3v5.9c0,0,0.2,5,9.4,4.7s8.2-4.7,8.2-4.7v-6.1c0,0-1.1,4.2-8.7,4.3S48.7,33.3,48.7,33.3z"/>
		</g>
		<g>
			<g>
				<g>
					<path class="st1" d="M81.2,91.5c0.9,0.6-2.6,3.2-2.9,3.4c-3.2,2.3-6.9,3.8-10.6,4.8c-9.7,2.5-20,1.3-28.6-3.7
						c-1.5-0.8-2.9-1.8-4.1-3c-0.3-0.3-1.6-1.4-1.3-2c0.2-0.5-1.1-0.1-1.3,0.3c-0.4,0.7,0.4,1.5,0.8,2c1,1.1,2.2,2,3.5,2.8
						c4.1,2.7,8.9,4.4,13.7,5.3c9.6,1.8,20.6-0.5,28.6-6.1c0.5-0.4,4.8-3.4,3.4-4.4C82.1,90.5,80.9,91.3,81.2,91.5L81.2,91.5z"/>
				</g>
			</g>
			<g>
				<g>
					<path class="st1" d="M81.3,93.2c1,0.8-2.2,3.2-2.7,3.5c-2.9,2.2-6.3,3.7-9.8,4.8c-5.6,1.7-11.5,2.4-17.2,1.4
						c-4.6-0.8-9.1-2.4-13.1-4.7c-1.4-0.8-2.8-1.8-4-2.9c-0.4-0.4-1.5-1.4-1.2-2.1c0,0-1.3-0.3-1.5,0c-0.3,0.6,0.6,1.5,1,1.9
						c1.1,1.1,2.5,2.1,3.8,2.9c4.2,2.6,8.9,4.2,13.8,5.1c9.6,1.7,20.5-0.1,28.7-5.5c0.5-0.3,5-3.4,3.7-4.4
						C82.5,92.9,81.4,93.2,81.3,93.2L81.3,93.2z"/>
				</g>
			</g>
			<g>
				<g>
					<path class="st1" d="M81.7,95.1c0.9,0.8-2.3,3.2-2.7,3.5c-3,2.2-6.5,3.8-10,4.8c-10.1,3.1-21.1,2.2-30.4-2.9
						c-1.6-0.9-3.1-1.8-4.4-3c-0.4-0.4-1.6-1.4-1.3-2.1c0.1-0.2-1.3-0.7-1.5-0.4c-0.3,0.7,0.6,1.5,1,1.9c1.1,1.1,2.4,2.1,3.8,2.9
						c4.2,2.6,9,4.3,13.9,5.3c9.8,1.9,21.1,0.3,29.5-5.4c0.6-0.4,4.9-3.4,3.5-4.5C82.7,95,81.3,94.9,81.7,95.1L81.7,95.1z"/>
				</g>
			</g>
			<g>
				<g>
					<path class="st1" d="M82,97.5c0,0,0.1,0,0,0.2c-0.1,0.3-0.3,0.6-0.5,0.8c-0.7,0.9-1.6,1.6-2.5,2.3c-3.1,2.2-6.7,3.7-10.3,4.7
						c-10.1,2.8-20.8,1.8-30.1-3.1c-1.6-0.9-3.2-1.8-4.6-3c-0.4-0.3-1.8-1.5-1.5-1.9c0.3-0.7-1.1-1.1-1.4-0.4
						c-0.4,0.8,0.4,1.6,0.8,2.1c1.1,1.1,2.4,2.1,3.7,2.9c4.3,2.7,9.3,4.5,14.3,5.4c6,1.2,12.2,0.9,18.1-0.6c4.2-1,8.5-2.7,12-5.2
						c0.9-0.6,4.8-3.4,3.1-4.9C82.6,96.4,81.3,96.9,82,97.5L82,97.5z"/>
				</g>
			</g>
			<g>
				<g>
					<path class="st1" d="M82.9,99.4c-0.6-0.6-0.3-0.4-0.5,0.2c-0.1,0.3-0.3,0.6-0.6,0.9c-0.7,0.9-1.6,1.6-2.5,2.2
						c-3,2.2-6.4,3.6-9.9,4.7c-10.2,3-21.1,2.2-30.8-2.3c-1.8-0.9-3.6-1.8-5.3-3.1c-0.4-0.3-2-1.3-1.7-2.1c0.1-0.3-1-1.1-1-1.1
						c-0.3,0.7,0.7,1.6,1,2.1c1,1.1,2.3,2,3.5,2.9c4.3,2.8,9.2,4.6,14.2,5.7c6.2,1.3,12.5,1.1,18.6-0.4c4.3-1,8.7-2.7,12.3-5.3
						c1-0.8,2.2-1.7,2.8-2.8c0.5-0.9,0.2-1.4-0.5-2.1C82,98.2,82.5,99.1,82.9,99.4L82.9,99.4z"/>
				</g>
			</g>
			<g>
				<g>
					<path class="st1" d="M82.7,101.3c-0.1-0.1,0,0.2-0.1,0.3c-0.1,0.3-0.3,0.7-0.5,0.9c-0.7,0.9-1.6,1.6-2.4,2.3
						c-3,2.2-6.5,3.7-10.1,4.7c-10.4,3-21.5,2.2-31.3-2.5c-1.8-0.9-3.7-1.9-5.3-3.1c-0.3-0.3-1.9-1.3-1.6-1.9c0.2-0.4-1-1.3-1.2-0.9
						c-0.3,0.7,0.5,1.6,1,2.1c1.1,1.1,2.5,2.1,3.8,2.9c4.5,2.8,9.6,4.6,14.7,5.6c6.1,1.2,12.4,1,18.5-0.4c4.3-1,8.6-2.6,12.2-5.2
						c1.2-0.8,4.7-3.3,2.9-5C82.9,100.7,82,100.6,82.7,101.3L82.7,101.3z"/>
				</g>
			</g>
			<g>
				<g>
					<path class="st1" d="M83,103.3c-0.2-0.2-0.1,0.1-0.1,0.4c-0.1,0.4-0.3,0.7-0.5,1c-0.6,0.9-1.5,1.6-2.3,2.2
						c-3,2.3-6.7,3.8-10.3,4.8c-10.5,3-21.8,2.1-31.7-2.5c-1.9-0.9-3.7-1.9-5.3-3.1c-0.4-0.3-2-1.4-1.7-2c0.2-0.4-1.1-1.2-1.2-0.9
						c-0.3,0.7,0.6,1.6,1,2c1.1,1.2,2.5,2.1,3.9,2.9c4.6,2.8,9.8,4.6,15,5.6c6.1,1.2,12.4,1,18.5-0.4c4.4-1,8.9-2.6,12.6-5.2
						c1.2-0.9,4.5-3.2,2.8-5C83.2,102.6,82.3,102.6,83,103.3L83,103.3z"/>
				</g>
			</g>
			<g>
				<g>
					<path class="st1" d="M82.9,105.6c0.9,1-2,3.2-2.6,3.6c-3.2,2.3-6.9,3.8-10.7,4.8c-10.8,2.8-22.3,1.7-32.3-3.3
						c-1.7-0.9-3.4-1.8-5-3c-0.4-0.3-1.9-1.5-1.7-2c0.3-0.8-1.1-0.7-1.4,0c-0.3,0.8,0.6,1.6,1.1,2.1c1.2,1.2,2.7,2.1,4.2,2.9
						c4.9,2.7,10.3,4.5,15.8,5.4c6.2,1,12.5,0.6,18.6-0.8c4.3-1,8.6-2.6,12.1-5.2c1.1-0.8,4.8-3.6,3.1-5.2
						C83.7,104.3,82.4,105.1,82.9,105.6L82.9,105.6z"/>
				</g>
			</g>
			<g>
				<g>
					<path class="st1" d="M84,107.8c-0.6-0.7-0.2-0.6-0.4,0c-0.1,0.4-0.4,0.8-0.6,1.1c-0.7,0.9-1.6,1.7-2.6,2.4
						c-3,2.2-6.6,3.6-10.1,4.5c-10.7,3-22.1,2.1-32.3-2.4c-2-0.9-4-1.9-5.9-3.1c-0.6-0.4-1.3-0.9-1.9-1.4c-0.2-0.1-0.4-0.3-0.5-0.5
						c0.1,0.3,0.1,0.3,0.2,0s-0.8-1.3-0.8-1.2c-0.3,0.7,0.7,1.9,1.2,2.4c1.1,1.2,2.5,2,3.8,2.8c4.9,2.9,10.5,4.8,16,5.8
						c6.5,1.1,13.2,0.8,19.5-0.8c4.2-1,8.6-2.6,12.1-5.4c1.7-1.3,3.8-3.3,1.9-5.4C83.2,106.3,83.8,107.6,84,107.8L84,107.8z"/>
				</g>
			</g>
			<g>
				<g>
					<path class="st1" d="M83.5,109c1.1,1.2-1.4,3.3-2.2,4c-2.9,2.3-6.5,3.8-10,4.9c-11.1,3.3-23.2,2.6-33.8-2.1
						c-2-0.9-4-1.9-5.8-3.2c-0.5-0.3-2.2-1.5-1.9-2.3c0.1-0.2-1.3-0.9-1.3-0.7c-0.3,0.7,0.9,1.6,1.3,2c1.3,1.1,2.8,2,4.3,2.9
						c4.7,2.6,9.9,4.4,15.1,5.4c6.5,1.3,13.3,1.1,19.8-0.3c4.3-0.9,8.7-2.4,12.4-4.9c1.1-0.7,4.9-3.4,3.3-5.1
						c-0.2-0.2-0.6-0.5-0.9-0.5C83.7,109,83.2,108.8,83.5,109L83.5,109z"/>
				</g>
			</g>
			<g>
				<g>
					<path class="st1" d="M83.7,111.6c1.1,1.3-1.7,3.5-2.5,4.1c-3.1,2.4-7,3.8-10.7,4.7c-11.3,2.9-23.3,1.7-33.9-3.3
						c-1.9-0.9-3.8-1.9-5.4-3.1c-0.4-0.3-2.1-1.4-1.8-2.1c0.2-0.4-1.2-0.1-1.4,0.3c-0.3,0.7,0.9,1.7,1.4,2c1.4,1.2,3.1,2.1,4.7,3
						c5.2,2.7,10.9,4.4,16.6,5.2c6.4,0.9,13.1,0.4,19.4-1.1c4.2-1,8.4-2.6,11.9-5.2c1.2-0.8,4.5-3.4,3-5.2
						C84.7,110.6,83.3,111.2,83.7,111.6L83.7,111.6z"/>
				</g>
			</g>
			<g>
				<g>
					<path class="st1" d="M83.9,113.4c1.1,1.3-1.5,3.4-2.3,4.1c-3,2.4-6.8,3.8-10.5,4.8c-11.4,3.1-23.5,2-34.3-2.8
						c-2-0.9-4-1.9-5.8-3.2c-0.4-0.3-2.3-1.5-2-2.1c0.2-0.6-1.3-0.7-1.4-0.3c-0.3,0.8,0.7,1.6,1.2,2c1.4,1.2,3.1,2.2,4.7,3
						c5.3,2.7,11.1,4.5,16.9,5.4c6.4,0.9,13,0.6,19.4-0.8c4.3-1,8.8-2.5,12.4-5.1c1.3-0.9,4.6-3.5,3-5.3
						C84.9,112.8,83.5,112.9,83.9,113.4L83.9,113.4z"/>
				</g>
			</g>
			<g>
				<g>
					<path class="st1" d="M84.3,115.7c0.2,0.3,0.1,0.9-0.2,1.4c-0.5,1-1.4,1.7-2.3,2.4c-3.1,2.3-6.8,3.7-10.6,4.7
						c-11.5,3-23.7,2-34.6-2.7c-2.1-0.9-4.2-1.9-6-3.2c-0.6-0.4-1.1-0.8-1.6-1.2c-0.2-0.2-0.3-0.3-0.5-0.5c-0.1-0.2-0.1,0-0.1,0
						c0.3-0.8-1.1-1.4-1.4-0.6c-0.3,0.9,0.7,1.8,1.3,2.3c1.4,1.2,3,2.2,4.7,3c5.3,2.8,11.1,4.6,17,5.5c6.7,1,13.6,0.7,20.2-0.8
						c4.3-1,8.8-2.5,12.4-5.2c1.5-1.1,4.5-3.7,2.8-5.8C84.8,114.3,83.7,114.9,84.3,115.7L84.3,115.7z"/>
				</g>
			</g>
			<g>
				<g>
					<path class="st1" d="M84.5,117.6c1,1.2-1.6,3.3-2.4,4c-3.1,2.4-6.9,3.8-10.6,4.8c-11.7,3-24.1,2-35.2-2.7
						c-2.1-0.9-4.1-1.9-6-3.1c-0.6-0.4-1.2-0.8-1.8-1.3c-0.2-0.2-0.5-0.7-0.5-0.6c0.3-0.7-1.1-1.4-1.3-0.7c-0.3,0.9,0.6,1.8,1.3,2.3
						c1.4,1.2,3.1,2.2,4.7,3c5.4,2.8,11.3,4.6,17.2,5.5c6.7,1.1,13.8,0.7,20.4-0.8c4.4-1,8.8-2.5,12.5-5.1c1.5-1.1,4.5-3.7,2.8-5.7
						C85.1,116.5,83.9,116.8,84.5,117.6L84.5,117.6z"/>
				</g>
			</g>
			<g>
				<g>
					<path class="st1" d="M84.6,119.4c1.2,1.5-1,3.5-2.1,4.4c-2.9,2.4-6.7,3.8-10.3,4.8c-12,3.3-24.8,2.1-36.2-2.8
						c-2.1-0.9-4.2-1.9-6.1-3.2c-0.4-0.3-2.5-1.5-2.2-2.2c0.2-0.5-1.3-0.5-1.5-0.1c-0.3,0.8,0.9,1.6,1.4,2c1.5,1.2,3.3,2.2,5.1,3
						c5.6,2.7,11.6,4.5,17.8,5.3c6.6,0.9,13.5,0.5,20.1-0.9c4.4-0.9,8.9-2.4,12.5-5c1.3-0.9,4.6-3.5,3-5.5
						C85.8,118.9,84.3,119.1,84.6,119.4L84.6,119.4z"/>
				</g>
			</g>
		</g>
		<g>
			<g>
				<g>
					<path class="st15" d="M80.5,85.1C80.5,85.1,80.5,85,80.5,85.1c-0.1,0.3-0.2,0.7-0.3,1c-0.5,1.1-1.2,2-2,2.9
						c-2.7,2.9-6.5,4.9-10.3,6c-5.9,1.7-12.2,1.4-18.2,0.2c-4.2-0.9-8.6-2.3-11.9-5.3c-1-0.9-3.7-3.8-2.4-5.2
						c0.6-0.7-0.7-1.3-1.3-0.7c-1.5,1.6,0.3,4.4,1.4,5.7c3,3.4,7.5,5.2,11.8,6.3c10.6,2.7,24.1,2.3,32-6.3c0.7-0.8,4.3-5.3,1.5-5.8
						C80.1,83.7,79.6,84.9,80.5,85.1L80.5,85.1z"/>
				</g>
			</g>
			<g>
				<g>
					<path class="st16" d="M81,87.6c-0.3-0.1-0.1-0.4-0.2-0.1s-0.2,0.6-0.3,1c-0.5,1.1-1.4,2-2.2,2.8c-2.9,2.9-6.7,4.8-10.6,5.9
						c-5.9,1.6-12.1,1.4-18.1,0.2c-4.3-0.9-8.7-2.4-12-5.2c-1-0.8-3.9-3.7-2.6-4.9c0.6-0.6-0.6-1.5-1.2-0.9
						c-1.6,1.6,0.5,4.3,1.6,5.5c3.1,3.3,7.7,5.2,12,6.3c10.7,2.7,24.1,2.2,32.3-6.2c0.8-0.8,4.5-5.2,1.6-5.8
						C80.3,86.2,80.2,87.4,81,87.6L81,87.6z"/>
				</g>
			</g>
			<g>
				<g>
					<path class="st31" d="M81.9,90c-0.3-0.1-0.4-0.8-0.6-0.5c0,0.1,0,0.3-0.1,0.4c-0.1,0.4-0.3,0.8-0.5,1.2c-0.7,1.1-1.5,2-2.5,2.9
						c-3,2.7-6.8,4.6-10.7,5.7c-5.7,1.6-11.8,1.5-17.7,0.4c-4.5-0.8-9.2-2.3-12.9-5.2c-0.9-0.7-4.1-3.6-2.6-5c0.2-0.2-0.9-1.2-1.1-1
						c-1.5,1.4,1.2,4.3,2.1,5.2c3.2,3.2,7.6,5.1,11.9,6.3c10.7,2.9,24.2,2.4,32.6-5.9c1-0.9,2.1-2.1,2.5-3.5c0.3-0.9-0.3-1.8-1.3-2
						C80.7,88.9,81.6,89.9,81.9,90L81.9,90z"/>
				</g>
			</g>
			<g>
				<g>
					<path class="st32" d="M81.4,92.5c0.9,0.3-2.4,3.8-2.7,4c-3.2,2.9-7.2,4.7-11.4,5.8c-5.9,1.5-12.2,1.2-18.1-0.1
						c-4.3-0.9-8.6-2.5-12.1-5.2c-1.1-0.9-2.2-1.9-3-3.1c-0.3-0.5-0.7-1.5-0.4-1.8c0.7-0.7-0.6-0.6-1-0.2c-1.6,1.5,0.8,4,1.8,4.9
						c3.4,3.2,8,5,12.5,6.1c10.9,2.7,23.6,1.8,32.4-5.9c0.5-0.4,5-4.8,2.9-5.4C81.9,91.4,80.8,92.3,81.4,92.5L81.4,92.5z"/>
				</g>
			</g>
			<g>
				<g>
					<path class="st33" d="M82.2,95.1c-0.5-0.2-0.1-0.5-0.4-0.1c-0.2,0.3-0.4,0.7-0.6,1c-0.7,1-1.7,1.9-2.7,2.7
						c-3.3,2.7-7.3,4.5-11.5,5.6c-5.8,1.4-11.9,1.2-17.7,0c-4.3-0.9-8.7-2.4-12.4-5c-1.2-0.8-2.3-1.8-3.1-3
						c-0.2-0.3-0.4-0.7-0.5-1.1c-0.1-0.3,0-0.4,0.1-0.5c0.7-0.6-0.5-1.6-1.1-1c-1.7,1.5,1.2,4.3,2.2,5.2c3.5,3.1,8.1,5,12.5,6.1
						c11,2.8,23.9,2,32.9-5.6c0.8-0.7,5.4-4.9,2.6-5.8C81.5,93.5,81.3,94.9,82.2,95.1L82.2,95.1z"/>
				</g>
			</g>
			<g>
				<g>
					<path class="st34" d="M82.2,97.5c0.4,0.1-0.2,0.9-0.4,1.2c-0.8,1-1.7,1.9-2.7,2.7c-3.4,2.7-7.5,4.5-11.8,5.5
						c-5.9,1.4-12.1,1.1-18-0.1c-4.3-0.9-8.7-2.4-12.4-4.9c-1.3-0.8-2.5-1.8-3.4-3c-0.3-0.4-0.6-0.8-0.7-1.2c0-0.1-0.1-0.3-0.1-0.4
						c0-0.2,0,0,0,0c0.8-0.6-0.2-0.9-0.8-0.4c-1.7,1.4,1.1,3.9,2.1,4.7c3.5,3,8,4.8,12.5,5.9c11.1,2.9,23.8,1.8,33.1-5.4
						c0.4-0.3,5.6-4.8,3.7-5.5C82.7,96.3,81.7,97.3,82.2,97.5L82.2,97.5z"/>
				</g>
			</g>
			<g>
				<g>
					<path class="st35" d="M82.7,99.4c-0.3-0.1-0.1,0.1-0.2,0.4c-0.1,0.4-0.4,0.7-0.6,1c-0.8,1-1.8,1.9-2.8,2.6
						c-3.4,2.7-7.5,4.5-11.7,5.7c-5.8,1.6-11.8,1.5-17.7,0.5c-4.9-0.9-9.8-2.5-13.9-5.4c-0.6-0.4-4.8-3.5-3.3-4.6
						c-0.1,0.1-1.1-0.7-1.4-0.5c-1.4,1.1,2.5,4,3.1,4.4c3.6,2.6,7.9,4.3,12.2,5.5c11.1,3,23.5,2.3,33.1-4.4c0.6-0.4,6-4.4,3.9-5.2
						C83.3,99.4,81.9,99,82.7,99.4L82.7,99.4z"/>
				</g>
			</g>
			<g>
				<g>
					<path class="st36" d="M83.5,102.6c-0.3-0.2-0.3-0.6-0.4-0.5c0,0-0.2,0.3-0.2,0.4c-0.2,0.4-0.6,0.7-0.9,1.1
						c-1,1-2.1,1.9-3.3,2.7c-3.7,2.5-7.9,4.2-12.3,5.2c-5.7,1.3-11.6,1.1-17.3,0c-4.5-0.9-8.9-2.4-12.8-4.7
						c-1.3-0.8-2.7-1.7-3.7-2.8c-0.3-0.3-0.6-0.7-0.8-1c-0.1-0.2-0.1-0.2,0-0.2c0.6-0.4-0.2-1.7-0.8-1.3c-1.8,1.3,1.8,4.1,2.6,4.8
						c3.7,2.9,8.2,4.7,12.6,5.9c11.4,3.1,24.2,2,34-5c0.9-0.6,6.1-4.4,3.4-5.7C82.7,100.9,82.9,102.3,83.5,102.6L83.5,102.6z"/>
				</g>
			</g>
			<g>
				<g>
					<path class="st37" d="M83.3,104.7c0.6,0.3-3.7,3.8-4.1,4c-3.7,2.5-8,4.3-12.4,5.3c-10.1,2.3-21.9,0.4-30.8-5
						c-0.4-0.2-5.5-3.8-4.6-4.4c0.7-0.4-0.8-0.6-1.1-0.3c-1.6,1.1,2.3,3.7,3,4.2c3.9,2.7,8.6,4.5,13.2,5.6
						c11.3,2.7,23.3,1.6,33.2-4.7c0.5-0.3,6.4-4.4,4.8-5.2C84.2,104,82.8,104.4,83.3,104.7L83.3,104.7z"/>
				</g>
			</g>
			<g>
				<g>
					<path class="st38" d="M83.7,107c0.7,0.4-3.9,3.8-4.2,4c-3.8,2.5-8.2,4.3-12.7,5.3c-10.2,2.4-21.9,0.3-31-4.9
						c-0.3-0.2-5.8-3.8-4.7-4.4c0.3-0.2-1-0.4-1.3-0.2c-1.4,0.9,3,3.7,3.5,4c4,2.6,8.6,4.3,13.3,5.4c11.3,2.7,23.2,1.6,33.3-4.4
						c0.5-0.3,6.6-4.2,5.3-5.1C84.7,106.6,83.3,106.8,83.7,107L83.7,107z"/>
				</g>
			</g>
			<g>
				<g>
					<path class="st39" d="M84.1,109.8c0.8,0.5-4.2,3.7-4.5,3.9c-4.2,2.5-9,4.2-13.8,5.1c-10,1.8-21-0.3-29.9-5.1
						c-1.5-0.8-2.9-1.7-4.2-2.7c-0.4-0.3-0.8-0.7-1-1.1c-0.4-0.6,0.1-0.6-0.8-0.2c0.5-0.3,1-1.1,0.1-0.6c-0.8,0.4-1.1,0.9-0.6,1.6
						c0.7,1,1.8,1.7,2.8,2.3c4.1,2.7,8.8,4.4,13.5,5.6c6.2,1.6,12.8,2.1,19.1,0.9c5.1-0.9,10.1-2.8,14.7-5.4
						c0.4-0.2,7.1-4.5,5.9-5.3C85,108.8,83.9,109.7,84.1,109.8L84.1,109.8z"/>
				</g>
			</g>
			<g>
				<g>
					<path class="st40" d="M85.2,112.5c-0.2-0.3-0.3-0.6-0.5-0.9c0,0,0,0,0,0.1c0,0,0,0.1-0.1,0.1c-0.1,0.1-0.2,0.3-0.3,0.4
						c-0.3,0.4-0.7,0.7-1.1,1c-1.2,1-2.6,1.8-3.9,2.5c-4.1,2.3-8.6,3.9-13.1,4.9c-10.2,2.2-21.2,0.2-30.5-4.3
						c-1.6-0.8-3.3-1.7-4.7-2.7c-0.4-0.3-0.8-0.7-1.3-1c-0.5-0.4-0.1,0.1,0,0.1c0.3-0.1-0.4-1.5-0.8-1.3c-1.5,0.7,2.8,3.8,3.2,4.1
						c4,2.6,8.6,4.3,13.2,5.6c6.2,1.7,12.8,2.3,19.2,1.3c5.5-0.9,11-2.8,15.9-5.6c1.1-0.7,7-3.5,4.5-5.5
						C84.4,110.9,84.9,112.2,85.2,112.5L85.2,112.5z"/>
				</g>
			</g>
			<g>
				<g>
					<path class="st41" d="M84.9,114.8C84.8,114.7,84.9,114.7,84.9,114.8c-0.1-0.1-0.2,0.2-0.3,0.2c-0.3,0.3-0.7,0.6-1.1,0.9
						c-1.3,1-2.7,1.8-4.1,2.5c-4.2,2.2-8.8,3.9-13.5,4.8c-10.1,2-21-0.1-30.3-4.6c-1.6-0.7-3.1-1.6-4.5-2.5c-0.5-0.3-0.9-0.6-1.3-1
						c-0.6-0.6,0-0.4-0.8,0c0.8-0.4,0.5-1.4-0.3-1c-2.3,1,2,3.4,2.7,3.8c4.2,2.5,8.9,4.2,13.6,5.4c6.1,1.6,12.6,2.2,18.9,1.3
						c5.5-0.8,11-2.6,16-5.2c0.6-0.3,7.7-4.1,6.3-5.4C85.7,113.6,84.3,114.3,84.9,114.8L84.9,114.8z"/>
				</g>
			</g>
			<g>
				<g>
					<path class="st42" d="M85.8,117.2c-1.1-1.2,0-0.7-0.4-0.5c-0.1,0.1-0.2,0.3-0.3,0.4c-0.4,0.4-0.8,0.7-1.2,1
						c-1.3,0.9-2.8,1.7-4.2,2.5c-4.4,2.2-9.1,3.9-13.9,4.8c-10.2,2-21-0.1-30.4-4.3c-1.7-0.8-3.4-1.6-5-2.6c-0.5-0.3-0.9-0.7-1.4-1
						c-0.6-0.4,0,0.1,0,0.2c0.3-0.1-0.4-1.4-0.9-1.2c-0.7,0.3,0.4,1.5,0.6,1.8c0.9,0.9,2,1.5,3.1,2.1c4.2,2.4,8.9,4.1,13.6,5.3
						c6.1,1.6,12.5,2.3,18.7,1.4c5.7-0.8,11.3-2.6,16.4-5.2c1.8-0.9,3.6-1.9,5.2-3.1c0.8-0.6,1.4-1.3,0.6-2.2
						C85.3,115.8,85.3,116.7,85.8,117.2L85.8,117.2z"/>
				</g>
			</g>
			<g>
				<g>
					<path class="st1" d="M85.7,119.7c-0.2-0.3,0.1-0.4-0.1-0.3c-0.1,0-0.3,0.3-0.4,0.4c-0.4,0.4-0.8,0.7-1.3,0.9
						c-1.3,0.9-2.7,1.6-4.2,2.3c-4.3,2.1-9,3.7-13.7,4.6c-10.4,2.1-21.1,0-30.7-4.1c-1.7-0.7-3.5-1.6-5.1-2.5
						c-0.5-0.3-1.1-0.6-1.5-1c-0.1-0.1-0.3-0.3-0.4-0.3c-0.3-0.1,0.1,0,0,0c0,0,0,0.5-0.3,0.6c0.9-0.3,0.3-1.6-0.5-1.4
						c-2.4,0.7,2.9,3.7,3.4,3.9c4.5,2.4,9.3,4.1,14.2,5.3c6.2,1.5,12.6,2.2,18.9,1.3c5.5-0.8,11-2.6,16-4.9c0.9-0.4,8.2-3.5,6.8-5.4
						C86.3,118.4,85.1,118.9,85.7,119.7L85.7,119.7z"/>
				</g>
			</g>
		</g>
		<g>
			<path class="st43" d="M7.1,85.2c0,1.1-1.4,2.4-2.3,2.9c-1.3,0.8-3.4,4.1-3.7,5.2"/>
			<g>
				<path class="st14" d="M32.3,27.8c6.2-7,14.7-10.6,22.8-14.8c3.3-1.7,3.2-11.1,2.4-10.9c-16.6,4.7-8,7.8-12.2,10.9
					c-3.5,2.5-14.1,9-21.3,17c-0.9,1-3,6.3-2.3,6.3C23,36.4,31.5,28.8,32.3,27.8L32.3,27.8z"/>
			</g>
			<g>
				<path class="st1" d="M44.7,2.6c-5.2,3.1-4,2.6-8.1,7.1c-4.6,5-7.9,10.6-12.1,15.9C18.7,33,12.2,39.7,9.1,48.9
					C3.6,65,0.2,82.7,3.2,99.6c0.2,1.3,3.9,1.5,3.6,0.1C6,95.3,6.6,89.9,6.5,85.4c0.4-4.8,0.1-7,0.4-10.5c0.7-2.4,0-4.5,0.7-6.2
					s0.4-2.3,0.6-3.5c0.2-0.9,0.6-1.1,0.8-2.6s0-1.8,0.2-2.5c0.5-2,2-4.1,2.5-6.1c1.4-4.9,5-9.6,7.6-13.9c2.4-4,2.7-7.5,5.7-11.1
					c3.5-4.3,8.1-7.2,11.5-11.5c4.1-5.4,6.6-3.1,12.1-7C55.6,5.7,48.6,0.3,44.7,2.6z"/>
			</g>
			<g>
				<g>
					<path class="st1" d="M5.1,61.3c-1.2,6.6-2.4,13.3-3.2,19.9c-0.6,4.7-1,9.4-0.7,14.1c0.3,3.5,1.1,7,2.7,10.2
						c1.8,3.4,4.2,6.2,7.1,8.7c4.3,3.9,9.2,7.2,14.1,10.5c1.3,0.9,5.6-1,3.6-2.3c-7.1-4.8-15.3-9.9-19.8-17.4
						c-4-6.7-3.5-15-2.7-22.5C7,75.2,8.3,68,9.6,60.8C10,58.8,5.4,59.6,5.1,61.3L5.1,61.3z"/>
				</g>
			</g>
			<g>
				<g>
					<path class="st14" d="M36.3,16.3c1.6-2.2,3.1-4.5,4.7-6.7c0.2-0.3,0.4-0.6,0.7-0.8C42,8.5,42,8.5,42.3,8.2
						c0.7-0.6,1.2-0.9,2-1.4c1.5-0.9,3.1-1.8,4.6-2.6c0.3-0.2,0.6-0.5,0.2-0.8c-0.4-0.2-1.1,0-1.5,0.2c-2.3,1.3-4.7,2.4-6.8,4.1
						c-1.3,1.1-2.2,2.5-3.1,3.9c-1.1,1.6-2.2,3.2-3.4,4.7c-0.3,0.4,0.3,0.6,0.6,0.6C35.4,16.9,36,16.7,36.3,16.3L36.3,16.3z"/>
				</g>
			</g>
			<g>
				<g>
					<path class="st1" d="M46,9.1c0.6-0.4,1.3-0.9,1.9-1.4c0.3-0.3,1-0.7,0.8-1.2c-0.4-1.3-2.5,0-3.2,0.4c-2.9,1.6-5.8,3.3-8.6,5
						c-0.9,0.5-1.7,1-2.6,1.6c-0.4,0.2-0.5,0.7-0.2,1.1c0.3,0.3,1,0.3,1.4,0.1c3.6-2.1,7.2-4.2,10.6-6.5c1.9-1.3,3.8-2.7,5.5-4.3
						c1.1-1-0.6-1.7-1.5-1C45.6,7,40.1,10,34.9,13.2c-0.1,0-0.2,0.1-0.2,0.1c-0.2,0.1,0.2-0.1,0.1,0l-0.1,0.1
						c0.4,0.4,0.8,0.8,1.2,1.1c-0.5,0.3,0.1-0.1,0.3-0.2c0.4-0.3,0.8-0.5,1.3-0.8c1.3-0.8,2.6-1.6,3.9-2.3c1.4-0.8,2.8-1.6,4.2-2.4
						C45.9,8.6,46.5,8.3,47,8c0.2-0.1,0.8-0.3,1-0.5c-0.1,0.1-0.3,0.1-0.4,0.1c-0.6,0-1.1-0.3-0.9-0.9c0,0,0.2-0.3,0.1-0.1
						c-0.1,0.2,0.2-0.2,0,0c-0.1,0.1-0.2,0.1-0.2,0.2c-0.6,0.5-1.3,0.9-1.9,1.4C44.2,8.4,44,9,44.5,9.3C44.9,9.6,45.6,9.4,46,9.1
						L46,9.1z"/>
				</g>
			</g>
			<g>
				<path class="st14" d="M32.6,24.1c6.5-11,2.9-9.9,14.6-14.4c2.9-1.1,6.2-1.8,9-3.3c0.7-0.4,1.1-0.7,1.6-1.3
					c1.6-1.7-9.9,1.9-11.9,2.7c-5.3,2-13.8,9.4-17.7,16c-0.2,0.4-3.4,5.5-3.2,5.7c0,0,6-2.5,6.5-3.4L32.6,24.1z"/>
			</g>
			<path class="st44" d="M31.8,28.7c-2.7,1.5-5.8,1.1-8.3,1.6c-2.5,0.4-4.1,1.4-4.8,2.3"/>
			<path class="st44" d="M27.1,32.7c0,0-2.3,2.3-6.9,2.7s-5.1,1.8-5.1,1.8"/>
			<path class="st44" d="M20.8,38.5c0,0-3.1,2-5.8,3s-3.8,2-4.6,3.2"/>
			<path class="st44" d="M16.9,44.5c0,0-1.5,1.2-4,2.3S8.4,51,7.9,52"/>
			<path class="st44" d="M13.5,50.3c0,0-1.9,3.3-2.8,3.7c-0.7,0.3-3.2,2.3-4.5,4"/>
			<path class="st44" d="M10,61.9c0,0-1.8,2.1-2.7,2.5C6,65.1,4,67.5,3.6,68.6"/>
			<path class="st44" d="M8.7,67.5c-0.2,1.1-2.3,4.8-3.2,5.2c-1.3,0.6-2.8,2.2-3.2,3.3"/>
			<path class="st44" d="M8,76.7c-0.2,1.1-2.4,3.5-3.3,4c-1.3,0.6-3.2,2.7-3.6,3.8"/>
			<path class="st45" d="M7.2,100.8c0.2,1.1,0.5,3.4,0,4.5s-0.6,3.3-0.6,4.6"/>
			<path class="st44" d="M11.8,108.2c0.5,1,0.5,3.1,0,4c-0.7,1.3-1.2,1.6-0.8,2.8"/>
			<path class="st44" d="M15.5,112.5c0.7,0.9,1.1,2.9,0.8,3.9c-0.4,1.4-0.8,1.8-0.2,2.9"/>
			<path class="st44" d="M39.2,22.1c-2.5,1.6-9.3,1.2-10.5,1.4c-1.8,0.3-3.4,0.6-4.2,1.8"/>
			<g>
				<path class="st14" d="M31.4,21.3c8.9-7.2,18.7-8.7,20.6-10.4"/>
				<g>
					<path class="st1" d="M33.4,21.6c3.7-3,7.9-5.1,12.3-6.9c1.6-0.6,3.1-1.1,4.7-1.7c1.2-0.5,2.5-1,3.5-1.8
						c0.8-0.7,0.6-1.4-0.4-1.6c-1.2-0.2-2.8,0.2-3.7,1c-0.1,0.1-0.1,0.1-0.2,0.2c0.3-0.2,0.2-0.3,0.1-0.1c0,0-0.5,0.3,0,0
						c0.4-0.2,0,0-0.1,0c-0.6,0.2-1.2,0.5-1.8,0.7c-1.7,0.6-3.4,1.2-5.1,1.9c-4.8,1.9-9.4,4.4-13.4,7.7c-0.8,0.7-0.6,1.4,0.4,1.6
						C31,22.8,32.5,22.4,33.4,21.6L33.4,21.6z"/>
				</g>
			</g>
			<path class="st44" d="M56.3,12.4c-4.4,2.5-18.7,3.9-19.8,3.9c-1.7,0.1-6.2,1.3-7,2.2"/>
			<path class="st46" d="M12.1,53.7L11.3,56c1.4,0.2,1.7,0.6,1.7,1.1c0,0.8-1.9,1.4-4.3,1.4s-4.3-0.6-4.3-1.4c0-0.6,0.7-1.1,2.2-1.3
				l0.7-2.5c-3.9,0.2-6.5,2-6.5,3.9c0,2.1,3.5,3.7,7.8,3.7s7.8-1.7,7.8-3.7C16.5,55.6,15.2,54.2,12.1,53.7z"/>
			<g>
				<path class="st46" d="M8.2,62.2c-4.1,0.2-7.2-2.3-7.3-2.9L0.8,57c0,1.4,3,3.6,7.4,3.6c3.6,0,6.6-1,7.6-2.2
					c0.2-0.3,0.4-0.8,0.4-0.8l-0.3,1.9C15.6,60.4,12.3,62,8.2,62.2z"/>
			</g>
		</g>
		<path class="st47" d="M24.3,124.4c0,0-1.3-0.6-0.9-2.7c0.3-1.5,1.9-2.5,3.4-2.2s2.5,1.9,2.2,3.4c-0.1,0.3-0.2,0.4-0.3,0.6l1.5,1.1
			c0.3-0.5,0.5-0.8,0.6-1.4c0.6-2.5-1-5.4-3.6-6c-2.5-0.6-5.5,1.4-6,3.9c-0.5,2,0.3,4.8,2.9,5.9L24.3,124.4z"/>
		<g>
			<g>
				<path class="st1" d="M24.4,123.4c3.4,2.8,7,5.5,10.9,7.7c4.4,2.5,9.8,3.3,14.8,3.8c7.7,0.8,15.6,0.3,23.1-1.6
					c4.8-1.2,10.3-3.3,13.3-7.5c0.8-1.1,1.3-2.3,1.4-3.6c0.1-1.4-0.8-1.5-2.2-1.1c-0.4,0.1-1.8,0.5-1.6,1.1c0.2,0.6,1.7,0.2,2,0.1
					c-0.6,0-1.2,0-1.8,0c0,0,0,0-0.1-0.1v0.1c0,0.1,0.1,0.2,0.1,0.2c0,0.3,0,0.6,0,0.8c-0.2,1-0.7,2-1.2,2.9
					c-2.6,3.7-7.4,5.2-11.6,6.2c-6.6,1.5-13.5,1.6-20.2,0.8c-4.2-0.5-8.8-1.3-12.5-3.4c-3.8-2.2-7.4-4.9-10.9-7.7
					C27,121.5,23.7,122.9,24.4,123.4L24.4,123.4z"/>
			</g>
		</g>
		<path class="st44" d="M6.7,85.4c0,1.1-1.4,2.4-2.3,2.9c-1.3,0.7-3.4,4-3.7,5.2"/>
		<path class="st44" d="M6.5,92.8C6.6,94.4,5,97.1,4.1,98c-1.4,1.3-1.4,2.6-1.6,4.2"/>
	</g>
	<path class="st48" d="M29.2,123.5"/>
</g>
</svg>
