<?xml version="1.0" encoding="utf-8"?>
<!-- Generator: Adobe Illustrator 25.2.1, SVG Export Plug-In . SVG Version: 6.00 Build 0)  -->
<svg version="1.1" id="Layer_1" xmlns="http://www.w3.org/2000/svg" xmlns:xlink="http://www.w3.org/1999/xlink" x="0px" y="0px"
	 viewBox="0 0 257.34 422.21" style="enable-background:new 0 0 257.34 422.21;" xml:space="preserve">
<style type="text/css">
	.st0{fill:#CAB7B7;stroke:#FFFFFF;stroke-width:0.9893;stroke-miterlimit:10;}
	.st1{fill:#D75E40;}
	.st2{fill:#D85C3F;}
	.st3{fill:#D85A3D;}
	.st4{fill:#D8573C;}
	.st5{fill:#D8553B;}
	.st6{fill:#D85339;}
	.st7{fill:#D85138;}
	.st8{fill:#D84F36;}
	.st9{fill:#D84D35;}
	.st10{fill:#D84B34;}
	.st11{fill:#D84932;}
	.st12{fill:#D84731;}
	.st13{fill:#D84530;}
	.st14{fill:#D8422E;}
	.st15{fill:#DC3359;}
	.st16{fill:#DD3758;}
	.st17{fill:#DE3C57;}
	.st18{fill:#E04055;}
	.st19{fill:#E14554;}
	.st20{fill:#E34952;}
	.st21{fill:#E44E51;}
	.st22{fill:#E55250;}
	.st23{fill:#E7574E;}
	.st24{fill:#E85B4D;}
	.st25{fill:#E9604B;}
	.st26{fill:#EB644A;}
	.st27{fill:#EC6949;}
	.st28{fill:#ED6D47;}
	.st29{fill:#E4DAD8;stroke:#FFFFFF;stroke-width:0.9893;stroke-miterlimit:10;}
	.st30{fill:none;stroke:#FFFFFF;stroke-width:0.9893;stroke-miterlimit:10;}
	.st31{fill:#CAB7B7;stroke:#FFFFFF;stroke-width:0.9893;stroke-linejoin:bevel;stroke-miterlimit:10;}
	.st32{fill:#D55C3F;}
	.st33{fill:#D35B3E;}
	.st34{fill:#D05A3D;}
	.st35{fill:#CE583C;}
	.st36{fill:#CB573C;}
	.st37{fill:#C9563B;}
	.st38{fill:#C6553A;}
	.st39{fill:#C45339;}
	.st40{fill:#C25238;}
	.st41{fill:#BF5137;}
	.st42{fill:#BD4F36;}
	.st43{fill:#BA4E35;}
	.st44{fill:#B84D34;}
	.st45{fill:#B54B33;}
	.st46{fill:#DB3658;}
	.st47{fill:#DB3956;}
	.st48{fill:#DB3C54;}
	.st49{fill:#DB3F52;}
	.st50{fill:#DA4250;}
	.st51{fill:#DA454F;}
	.st52{fill:#DA484D;}
	.st53{fill:#D94B4B;}
	.st54{fill:#D94E49;}
	.st55{fill:#D95147;}
	.st56{fill:#D85546;}
	.st57{fill:#D85844;}
	.st58{fill:#D85B42;}
	.st59{fill:none;stroke:#FFFFFF;stroke-width:0.8249;stroke-miterlimit:10;}
	.st60{fill:#92392D;}
	.st61{fill:#91392D;}
	.st62{fill:none;stroke:#FFFFFF;stroke-width:0.5813;stroke-miterlimit:10;}
	.st63{fill:none;stroke:#FFFFFF;stroke-width:0.5877;stroke-miterlimit:10;}
	.st64{fill:none;stroke:#FFFFFF;stroke-width:0.5814;stroke-miterlimit:10;}
	.st65{fill:#522321;stroke:#FFFFFF;stroke-width:0.4947;stroke-miterlimit:10;}
	.st66{fill:#512320;stroke:#FFFFFF;stroke-width:0.4947;stroke-miterlimit:10;}
	.st67{fill:#92392D;stroke:#FFFFFF;stroke-width:0.9893;stroke-miterlimit:10;}
	.st68{fill:#E4DAD8;stroke:#FFFFFF;stroke-width:0.9463;stroke-miterlimit:10;}
</style>
<g>
	<g>
		<path class="st0" d="M137.24,238.77l57.68,0.3c0,0-4.45,38.55-7,58.81c-0.48,10.65-2.09,21.9-6.67,31.94
			c-8.16,17.91-21.15,31.99-21.15,31.99l1.27,28.7c0,0-2.88,11.3-23.24,11.7h-0.65c-20.35-0.4-23.24-11.7-23.24-11.7l1.27-28.7
			c0,0-12.99-14.08-21.15-31.99c-4.58-10.05-6.18-21.3-6.67-31.94c-2.55-20.27-7-58.81-7-58.81l57.68-0.3H137.24z"/>
		<path class="st0" d="M115.52,361.65c0,0,7.42,9.36,22.74,9.36s21.89-9.18,21.89-9.18"/>
		<g>
			<g>
				<g>
					<path class="st1" d="M193.17,243.43c0.8,1-0.15,2.21-0.91,2.97c-1.68,1.66-3.92,2.81-6.02,3.86
						c-7.02,3.51-14.68,5.87-22.27,7.76c-9.08,2.26-18.43,3.79-27.8,3.98c-10.69,0.21-21.5-1.33-31.78-4.22
						c-4.34-1.23-8.64-2.7-12.76-4.56c-1.48-0.68-2.94-1.39-4.34-2.22c-0.38-0.23-4.19-2.78-3.14-3.11c0.31-0.1,1.33-0.4,1.2-0.9
						c-0.13-0.47-1.21-0.26-1.49-0.18c-1.29,0.41-3.47,1.28-2.15,2.88c1.12,1.34,2.93,2.24,4.45,3.06
						c3.39,1.83,6.99,3.27,10.63,4.51c10.59,3.62,21.8,5.58,32.97,5.97c10.33,0.37,20.66-1.01,30.73-3.25
						c8.71-1.94,17.4-4.54,25.51-8.29c2.88-1.33,5.88-2.82,8.25-4.97c1.16-1.05,2.64-2.75,1.4-4.27
						C195.2,241.85,192.63,242.76,193.17,243.43L193.17,243.43z"/>
				</g>
			</g>
			<g>
				<g>
					<path class="st2" d="M192.32,249.3c0.76,1.14-0.25,2.35-1.08,3.12c-1.76,1.65-3.99,2.8-6.13,3.84
						c-7.02,3.42-14.62,5.73-22.19,7.57c-8.85,2.15-17.97,3.6-27.09,3.68c-10.58,0.09-21.24-1.5-31.39-4.44
						c-4.28-1.24-8.51-2.73-12.55-4.63c-1.43-0.68-2.84-1.39-4.19-2.22c-0.5-0.3-4.37-2.75-2.8-3.28c0.27-0.09,1.05-0.36,0.81-0.74
						c-0.22-0.33-1.5,0.09-1.72,0.17c-1.24,0.41-2.86,1.22-1.66,2.6c1.14,1.33,2.9,2.22,4.42,3.05c3.28,1.78,6.77,3.18,10.28,4.4
						c10.37,3.62,21.35,5.59,32.32,6.06c10.01,0.42,20.04-0.84,29.82-2.97c8.69-1.89,17.37-4.39,25.51-8.03
						c2.96-1.32,6.02-2.79,8.52-4.88c1.04-0.87,2.8-2.54,1.81-4.03C194.57,247.95,192.12,249.02,192.32,249.3L192.32,249.3z"/>
				</g>
			</g>
			<g>
				<g>
					<path class="st3" d="M191.56,255.31c0.07,0.12,0.11,0.25,0.14,0.37c0.02,0.07,0.03,0.36,0.03,0.19c0,0.31-0.08,0.5-0.14,0.63
						c-0.33,0.68-0.74,1.05-1.37,1.59c-1.71,1.48-4.09,2.68-6.23,3.68c-7,3.28-14.5,5.53-22,7.32c-8.68,2.06-17.62,3.49-26.55,3.54
						c-10.33,0.06-20.74-1.53-30.65-4.43c-4.18-1.23-8.31-2.69-12.26-4.55c-1.43-0.67-2.84-1.39-4.18-2.21
						c-0.9-0.55-1.84-1.11-2.6-1.85c-0.14-0.14-0.65-0.57-0.58-0.83c0.01-0.04-0.04-0.02-0.04-0.01c0,0.03,0.31-0.12,0.35-0.14
						c0.43-0.16,1.05-0.69,0.68-1.17c-0.37-0.51-1.33-0.25-1.79-0.08c-1.54,0.56-2.54,1.77-1.27,3.16c1.18,1.29,2.9,2.21,4.42,3.05
						c3.25,1.79,6.71,3.2,10.2,4.44c10.1,3.59,20.82,5.6,31.51,6.14c9.83,0.5,19.65-0.67,29.27-2.7c8.52-1.79,17.02-4.22,25-7.71
						c3-1.31,6.06-2.78,8.61-4.86c1.12-0.91,2.99-2.68,2.13-4.31C193.71,253.6,191.1,254.45,191.56,255.31L191.56,255.31z"/>
				</g>
			</g>
			<g>
				<g>
					<path class="st4" d="M190.79,261.32c0.48,1.23-0.81,2.37-1.65,3.06c-1.87,1.55-4.13,2.65-6.32,3.66
						c-6.96,3.2-14.42,5.37-21.87,7.1c-8.41,1.94-17.09,3.25-25.74,3.2c-10.21-0.06-20.47-1.72-30.23-4.66
						c-4.07-1.23-8.09-2.7-11.92-4.55c-1.4-0.68-2.78-1.4-4.11-2.22c-0.91-0.57-1.88-1.17-2.64-1.94c-0.22-0.23-0.56-0.56-0.57-0.9
						c-0.02-0.21,0.16-0.46,0.08-0.44c0.26-0.1,1.06-0.35,0.8-0.74c-0.21-0.33-1.5,0.08-1.72,0.16c-1.43,0.57-2.5,1.37-1.2,2.74
						c1.17,1.24,2.81,2.13,4.3,2.95c3.12,1.72,6.43,3.1,9.78,4.31c9.92,3.59,20.44,5.62,30.96,6.2c9.56,0.53,19.1-0.53,28.45-2.45
						c8.55-1.76,17.06-4.13,25.11-7.53c3.02-1.28,6.09-2.7,8.72-4.68c1.07-0.81,3.06-2.37,2.43-3.97
						C193.23,259.98,190.59,260.83,190.79,261.32L190.79,261.32z"/>
				</g>
			</g>
			<g>
				<g>
					<path class="st5" d="M190.02,267.32c0.3,1.18-1.08,2.26-1.97,2.92c-1.95,1.47-4.22,2.54-6.45,3.52
						c-7.01,3.08-14.46,5.22-21.93,6.89c-8.2,1.82-16.66,3.06-25.08,2.93c-9.99-0.14-20.05-1.82-29.58-4.78
						c-3.95-1.23-7.83-2.69-11.54-4.49c-1.36-0.66-2.7-1.37-3.98-2.18c-0.91-0.57-1.88-1.18-2.63-1.97
						c-0.07-0.07-0.79-0.96-0.54-1.07c0.3-0.14,1.1-0.5,0.75-0.94c-0.32-0.4-1.41-0.1-1.76,0.05c-1.35,0.59-2.23,1.5-1.11,2.8
						c1.12,1.29,2.8,2.18,4.27,3.02c3.06,1.73,6.31,3.13,9.6,4.35c9.55,3.54,19.69,5.6,29.83,6.3c9.55,0.66,19.03-0.27,28.4-2.13
						c8.37-1.66,16.71-3.92,24.61-7.17c3.07-1.26,6.17-2.66,8.88-4.59c1.2-0.85,3.33-2.42,2.89-4.17
						C192.5,265.82,189.82,266.51,190.02,267.32L190.02,267.32z"/>
				</g>
			</g>
			<g>
				<g>
					<path class="st6" d="M189.26,273.33c0.14,1.25-1.38,2.33-2.26,2.96c-2.04,1.44-4.34,2.53-6.63,3.5
						c-6.97,2.96-14.35,5.04-21.75,6.62c-7.98,1.7-16.21,2.89-24.39,2.65c-9.83-0.29-19.64-1.94-29.02-4.93
						c-3.88-1.23-7.7-2.7-11.34-4.52c-1.28-0.64-2.55-1.33-3.77-2.1c-0.3-0.19-4.16-2.76-3.07-3.29c0.36-0.18,0.79-0.51,0.3-0.78
						c-0.46-0.26-1.46,0.12-1.88,0.32c-1.5,0.73-1.53,1.73-0.38,2.84c1.19,1.15,2.71,2.02,4.15,2.83c3.02,1.7,6.22,3.08,9.45,4.29
						c9.31,3.48,19.2,5.53,29.1,6.26c9.29,0.69,18.54-0.17,27.67-1.93c8.24-1.59,16.45-3.78,24.25-6.88c3.09-1.23,6.23-2.59,9-4.46
						c1.25-0.84,3.42-2.31,3.23-4.08C191.87,272.01,189.17,272.55,189.26,273.33L189.26,273.33z"/>
				</g>
			</g>
			<g>
				<g>
					<path class="st7" d="M188.47,279.09c-0.02,0.53-0.19,0.76-0.57,1.18c-0.51,0.57-1.04,0.96-1.8,1.48
						c-2.1,1.41-4.48,2.47-6.83,3.44c-6.89,2.85-14.18,4.83-21.46,6.37c-7.74,1.63-15.75,2.78-23.67,2.53
						c-9.69-0.3-19.37-1.93-28.6-4.9c-3.78-1.22-7.51-2.64-11.06-4.42c-1.28-0.64-2.54-1.33-3.76-2.1c-0.86-0.54-1.75-1.1-2.5-1.8
						c-0.27-0.25-0.45-0.58-0.7-0.84c-0.21-0.21,0.14-0.18-0.23,0.02c1.61-0.87,0.15-2.23-1.17-1.51c-3.76,2.05,1.62,5.14,3.48,6.23
						c2.91,1.71,6.01,3.1,9.14,4.33c9.11,3.56,18.82,5.69,28.56,6.54c9.12,0.8,18.13,0.08,27.12-1.55
						c8.18-1.49,16.29-3.62,24.05-6.6c3.1-1.19,6.2-2.53,9.01-4.32c1.4-0.9,3.65-2.39,3.69-4.29
						C191.22,277.51,188.51,277.92,188.47,279.09L188.47,279.09z"/>
				</g>
			</g>
			<g>
				<g>
					<path class="st8" d="M187.73,285.17c-0.2,1.26-1.61,2.16-2.69,2.85c-2.21,1.4-4.64,2.46-7.06,3.41
						c-6.81,2.7-13.97,4.62-21.15,6.06c-7.73,1.55-15.63,2.56-23.52,2.21c-9.34-0.41-18.67-2.11-27.54-5.07
						c-3.68-1.23-7.3-2.67-10.76-4.43c-1.25-0.64-2.49-1.32-3.68-2.09c-0.88-0.57-1.77-1.16-2.52-1.88
						c-0.26-0.25-0.63-0.57-0.74-0.94c-0.07-0.24,0.05-0.45-0.11-0.35c0.38-0.24,0.77-0.61,0.27-0.93c-0.46-0.3-1.48,0.03-1.89,0.28
						c-3.13,1.95,2.46,4.85,4.06,5.79c2.86,1.66,5.88,3.02,8.96,4.22c8.79,3.43,18.13,5.53,27.52,6.4
						c8.83,0.82,17.56,0.25,26.28-1.28c8.16-1.44,16.26-3.48,24.04-6.36c3.13-1.16,6.27-2.45,9.12-4.18
						c1.44-0.88,3.77-2.23,4.07-4.08C190.55,283.88,187.86,284.35,187.73,285.17L187.73,285.17z"/>
				</g>
			</g>
			<g>
				<g>
					<path class="st9" d="M186.99,291.23c-0.41,1.39-1.97,2.31-3.13,3.02c-2.24,1.36-4.69,2.38-7.13,3.31
						c-6.8,2.59-13.91,4.44-21.05,5.8c-7.69,1.46-15.48,2.31-23.31,1.82c-9.18-0.57-18.34-2.36-27.01-5.42
						c-3.48-1.23-6.91-2.65-10.17-4.38c-1.06-0.57-7.92-4.41-6.35-5.55c0.5-0.36-0.45-0.4-0.62-0.39c-0.62,0.04-1.29,0.26-1.8,0.63
						c-2.21,1.6,3.66,4.75,4.85,5.43c2.81,1.61,5.79,2.96,8.8,4.13c8.64,3.37,17.8,5.45,27.03,6.31c8.55,0.8,16.96,0.25,25.41-1.19
						c7.98-1.36,15.9-3.33,23.51-6.06c3.18-1.14,6.35-2.41,9.29-4.08c1.49-0.85,3.76-2.08,4.3-3.87
						C189.76,290.28,187.18,290.58,186.99,291.23L186.99,291.23z"/>
				</g>
			</g>
			<g>
				<g>
					<path class="st10" d="M186.26,296.87c-0.2,0.46-0.66,0.95-1.01,1.24c-0.66,0.55-1.43,1.05-2.15,1.46
						c-2.33,1.33-4.86,2.36-7.38,3.29c-6.75,2.5-13.8,4.27-20.88,5.59c-7.32,1.37-14.76,2.19-22.21,1.75
						c-8.95-0.53-17.84-2.24-26.32-5.16c-3.49-1.2-6.91-2.6-10.18-4.31c-1.23-0.64-2.45-1.33-3.62-2.1
						c-0.86-0.56-1.75-1.14-2.49-1.85c-0.26-0.25-0.46-0.6-0.73-0.84c-0.27-0.25,0.05-0.47-0.35-0.13c1.37-1.19-0.79-1.94-1.75-1.11
						c-2.61,2.28,2.75,5.14,4.43,6.13c2.69,1.61,5.54,2.94,8.44,4.13c8.36,3.44,17.28,5.58,26.24,6.59
						c8.45,0.95,16.76,0.61,25.15-0.74c7.79-1.25,15.53-3.08,22.99-5.64c3.24-1.12,6.5-2.34,9.51-3.99
						c1.73-0.95,4.01-2.17,4.86-4.08C189.4,295.76,186.71,295.86,186.26,296.87L186.26,296.87z"/>
				</g>
			</g>
			<g>
				<g>
					<path class="st11" d="M185.49,302.87c-0.14,0.25,0.05-0.03-0.14,0.22c-0.09,0.12-0.2,0.24-0.3,0.35
						c-0.29,0.31-0.35,0.35-0.76,0.67c-0.76,0.58-1.53,1.04-2.36,1.47c-2.4,1.28-4.94,2.28-7.5,3.18
						c-6.75,2.37-13.76,4.1-20.81,5.33c-7.23,1.28-14.51,1.94-21.85,1.41c-8.73-0.63-17.4-2.41-25.63-5.36
						c-3.32-1.19-6.58-2.57-9.69-4.23c-1.18-0.63-2.34-1.31-3.46-2.04c-0.88-0.57-1.77-1.18-2.53-1.93
						c-0.25-0.25-0.45-0.54-0.68-0.8c-0.19-0.22,0.01-0.35-0.16-0.17c0.42-0.46,0.22-1.03-0.33-1.23c-0.62-0.24-1.46,0.03-1.89,0.51
						c-2.97,3.22,11.04,9.21,13.08,10.06c8.09,3.39,16.72,5.53,25.41,6.59c8.21,1.01,16.3,0.8,24.46-0.44
						c7.74-1.17,15.43-2.92,22.86-5.38c3.28-1.08,6.56-2.28,9.63-3.88c1.88-0.98,4.09-2.16,5.2-4.06c0.34-0.58-0.3-1.01-0.8-1.06
						C186.6,301.97,185.83,302.29,185.49,302.87L185.49,302.87z"/>
				</g>
			</g>
			<g>
				<g>
					<path class="st12" d="M184.76,308.96c-0.84,1.16-2.49,2.06-3.93,2.79c-2.43,1.23-5,2.2-7.58,3.07
						c-6.7,2.25-13.63,3.9-20.6,5.05c-7.09,1.17-14.15,1.72-21.32,1.12c-8.45-0.7-16.86-2.49-24.82-5.43
						c-3.25-1.2-6.45-2.59-9.5-4.25c-1.17-0.64-2.33-1.32-3.44-2.06c-0.43-0.29-3.85-2.53-3.35-3.28c0.36-0.53-0.31-0.79-0.74-0.82
						c-0.6-0.03-1.41,0.22-1.77,0.74c-0.77,1.12,0.72,2.37,1.47,3.02c1.17,1,2.48,1.85,3.8,2.65c2.58,1.55,5.31,2.86,8.09,4.03
						c7.89,3.3,16.29,5.44,24.77,6.51c4.31,0.54,8.66,0.89,13,0.74c3.65-0.13,7.27-0.49,10.89-1.01c7.54-1.1,15.05-2.76,22.3-5.08
						c3.29-1.05,6.59-2.21,9.69-3.74c1.97-0.97,4.21-2.1,5.53-3.94c0.38-0.52-0.32-0.79-0.74-0.83
						C185.91,308.18,185.12,308.44,184.76,308.96L184.76,308.96z"/>
				</g>
			</g>
			<g>
				<g>
					<path class="st13" d="M184.13,314.66c-1.05,1.23-2.75,2.1-4.33,2.86c-2.48,1.19-5.09,2.14-7.7,2.98
						c-6.64,2.15-13.49,3.72-20.38,4.8c-6.96,1.09-13.85,1.53-20.88,0.88c-8.22-0.76-16.36-2.57-24.1-5.47
						c-3.21-1.2-6.35-2.59-9.34-4.26c-1.13-0.63-2.24-1.29-3.3-2.02c-0.84-0.57-1.7-1.17-2.43-1.89c-0.26-0.25-0.55-0.52-0.74-0.84
						c-0.09-0.14-0.18-0.46-0.23-0.36c0.62-1.32-2.08-1.22-2.54-0.23c-0.57,1.23,0.82,2.39,1.64,3.11c1.16,1.01,2.44,1.87,3.74,2.66
						c2.52,1.54,5.17,2.83,7.87,4c7.58,3.28,15.66,5.4,23.82,6.56c7.83,1.11,15.56,1.12,23.39,0.08c7.41-1,14.78-2.56,21.93-4.72
						c3.35-1.01,6.68-2.14,9.86-3.6c2.08-0.95,4.41-2.08,5.93-3.85C187.43,314.09,184.86,313.82,184.13,314.66L184.13,314.66z"/>
				</g>
			</g>
			<g>
				<g>
					<path class="st14" d="M183.36,320.66c-1.35,1.36-3.6,2.37-5.52,3.2c-3.04,1.3-6.2,2.31-9.38,3.22
						c-7.35,2.09-14.91,3.61-22.51,4.41c-8.17,0.86-16.35,0.29-24.4-1.33c-7.43-1.5-14.81-3.84-21.57-7.31
						c-2.36-1.21-4.69-2.54-6.78-4.19c-0.6-0.47-1.12-0.9-1.62-1.53c-0.14-0.17-0.39-0.57-0.3-0.43c-0.04-0.07-0.08-0.18-0.08-0.26
						c0-0.02-0.04,0.21,0.03-0.01c0.2-0.64-0.81-0.83-1.22-0.79c-0.64,0.04-1.29,0.41-1.49,1.04c-0.31,1,1.04,2.12,1.66,2.67
						c1.67,1.49,3.58,2.7,5.53,3.79c6.54,3.71,13.76,6.28,21.05,8.01c8.57,2.04,17.48,3.08,26.28,2.4c8-0.63,15.99-2.14,23.74-4.2
						c3.94-1.05,7.85-2.25,11.62-3.8c2.52-1.04,5.23-2.25,7.17-4.2c0.44-0.45,0.22-1.01-0.32-1.2
						C184.64,319.93,183.82,320.21,183.36,320.66L183.36,320.66z"/>
				</g>
			</g>
		</g>
		<g>
			<g>
				<g>
					<path class="st15" d="M194.79,247.94c0.09,0.12,0.17,0.25,0.25,0.37c0.03,0.06-0.03-0.21,0.02,0.09
						c0.03,0.18,0.01,0.3-0.03,0.39c-0.06,0.17-0.13,0.33-0.2,0.49c0.15-0.33-0.06,0.09-0.14,0.19c-0.13,0.19-0.25,0.35-0.39,0.53
						c-0.04,0.05-0.18,0.21,0.02-0.02c-0.11,0.13-0.22,0.25-0.34,0.37c-1.78,1.87-3.85,3.13-6.13,4.44
						c-7.15,4.1-15.06,6.94-22.97,9.15c-9.16,2.55-18.71,4.2-28.24,4.04c-10.9-0.19-21.75-2.92-31.92-6.72
						c-4.52-1.69-8.96-3.61-13.25-5.81c-1.5-0.77-2.98-1.57-4.43-2.44c-0.88-0.53-1.77-1.07-2.54-1.77c-0.12-0.1-0.6-0.58-0.51-0.59
						c0.18-0.02-0.27,0.8-0.3,0.7c-0.02-0.05,0.52-0.2,0.56-0.21c1.69-0.52,1.34-3.02-0.52-2.44c-1.7,0.53-3.42,2.02-2.06,3.83
						c1.13,1.5,3.06,2.44,4.67,3.37c3.41,1.97,6.98,3.68,10.59,5.24c10.36,4.48,21.41,7.85,32.67,9.02
						c10.75,1.12,21.55-0.21,32-2.78c8.93-2.2,17.82-5.26,25.95-9.61c2.92-1.56,6.01-3.34,8.31-5.77c1.3-1.37,2.97-3.73,1.49-5.58
						C196.36,245.19,193.8,246.71,194.79,247.94L194.79,247.94z"/>
				</g>
			</g>
			<g>
				<g>
					<path class="st16" d="M194.19,252.5c0.06,0.08,0.14,0.26,0.16,0.45c0.03,0.3-0.03,0.58-0.13,0.85
						c-0.26,0.74-0.82,1.39-1.35,1.95c-1.77,1.87-4.03,3.28-6.24,4.55c-7.08,4.06-14.92,6.92-22.77,9.1
						c-9.28,2.59-18.96,4.23-28.61,4.02c-10.81-0.24-21.52-2.86-31.6-6.65c-4.38-1.65-8.69-3.51-12.84-5.69
						c-1.44-0.75-2.86-1.55-4.25-2.4c-0.32-0.2-0.64-0.41-0.96-0.62c-0.24-0.16-1.05-0.6-1.15-0.92c-0.18-0.58,0.63-0.81,1.05-0.95
						c0.67-0.23-1.33-2.2-2.15-1.93c-4.22,1.41,2.69,5.44,4.25,6.36c3.35,1.96,6.85,3.67,10.4,5.22c10,4.39,20.64,7.66,31.5,8.98
						c10.56,1.28,21.23,0.18,31.56-2.24c8.86-2.07,17.68-5.04,25.75-9.29c2.88-1.52,5.87-3.22,8.2-5.53c1.23-1.23,2.54-3,1.34-4.7
						c-0.39-0.54-1.04-1.09-1.71-1.23C194.13,251.75,193.84,252,194.19,252.5L194.19,252.5z"/>
				</g>
			</g>
			<g>
				<g>
					<path class="st17" d="M193.31,258.61c0.21,0.35,0.02-0.1,0.07,0.12c0.08,0.35,0.03-0.16,0.02,0.16
						c-0.01,0.28,0.01,0.1-0.02,0.18c-0.04,0.17-0.1,0.33-0.16,0.49c-0.12,0.3-0.18,0.36-0.43,0.72c-0.27,0.37-0.57,0.71-0.9,1.04
						c-1.79,1.82-4.07,3.2-6.29,4.45c-7.05,3.99-14.83,6.78-22.63,8.87c-9.28,2.48-18.97,4-28.59,3.62
						c-10.4-0.42-20.66-2.99-30.36-6.67c-4.19-1.59-8.3-3.4-12.27-5.5c-1.43-0.75-2.84-1.54-4.22-2.39
						c-0.79-0.49-1.68-0.99-2.32-1.66c-0.05-0.06-0.17-0.17-0.18-0.17c-0.11-0.22-0.11-0.18-0.01,0.11c0,0.03-0.01,0.06-0.03,0.08
						c0.09-0.01,0.56-0.3,0.75-0.38c0.69-0.25,0.32-1.26,0.02-1.65c-0.45-0.57-1.18-0.86-1.88-0.62c-1.85,0.67-1.79,2.27-0.61,3.62
						c1.22,1.39,2.96,2.35,4.53,3.29c3.17,1.88,6.5,3.51,9.86,4.99c9.83,4.34,20.26,7.57,30.94,8.89c10.54,1.3,21.2,0.29,31.5-2.08
						c8.84-2.04,17.65-4.97,25.69-9.2c2.91-1.53,5.9-3.26,8.25-5.6c1.32-1.31,2.64-3.26,1.52-5.11c-0.35-0.58-1.07-1.17-1.81-1.01
						C193.14,257.31,192.98,258.07,193.31,258.61L193.31,258.61z"/>
				</g>
			</g>
			<g>
				<g>
					<path class="st18" d="M192.27,264.29c0.06,0.13,0.18,0.41,0.07,0.11c0.04,0.11,0.04,0.25,0.03,0.37
						c0.02-0.37-0.02,0.06-0.04,0.16c-0.03,0.08-0.05,0.16-0.08,0.25c-0.08,0.28,0.12-0.23-0.02,0.05
						c-0.37,0.79-0.83,1.28-1.39,1.82c-1.87,1.82-4.15,3.22-6.41,4.48c-7.15,3.96-15,6.72-22.9,8.73
						c-9.34,2.37-19.06,3.69-28.71,3.08c-9.92-0.63-19.73-3.18-28.96-6.79c-3.99-1.56-7.9-3.33-11.67-5.36
						c-1.26-0.68-2.49-1.38-3.67-2.12c-0.84-0.54-1.81-1.07-2.48-1.82c-0.01-0.01-0.21-0.29-0.26-0.31
						c-0.13-0.05-0.04-0.23-0.05,0.01c0,0.03-0.05,0.13-0.08,0.14c0.1-0.02,0.3-0.16,0.44-0.21c0.68-0.26,0.77-1.08,0.36-1.61
						c-0.47-0.62-1.38-0.74-2.05-0.46c-1.62,0.63-2.05,2.09-0.92,3.44c1.13,1.36,2.79,2.28,4.29,3.19c3.07,1.86,6.29,3.47,9.56,4.94
						c9.32,4.18,19.25,7.3,29.38,8.7c10.65,1.47,21.4,0.71,31.88-1.57c8.88-1.93,17.73-4.81,25.83-8.97c3-1.55,6.11-3.29,8.57-5.64
						c1.29-1.24,3.01-3.24,2.04-5.15C194.39,262.41,191.49,262.74,192.27,264.29L192.27,264.29z"/>
				</g>
			</g>
			<g>
				<g>
					<path class="st19" d="M191.5,270.1c0.01,0.03,0.01-0.2,0,0.1c0,0.08,0.06-0.25-0.02,0.11c-0.08,0.39,0.02,0.03-0.03,0.15
						c-0.07,0.16-0.14,0.32-0.21,0.48c-0.03,0.08-0.08,0.15-0.13,0.23c0.14-0.24,0.04-0.07,0.01-0.02
						c-0.11,0.16-0.23,0.32-0.35,0.47c-0.32,0.39-0.67,0.75-1.04,1.1c-1.76,1.65-4.17,3.09-6.37,4.31
						c-7.06,3.88-14.87,6.54-22.67,8.47c-9.4,2.33-19.26,3.51-28.94,2.74c-9.51-0.76-18.85-3.21-27.71-6.7
						c-3.75-1.48-7.45-3.13-11-5.06c-1.31-0.71-2.59-1.45-3.84-2.26c-0.78-0.5-1.58-1-2.27-1.62c-0.14-0.13-0.57-0.61-0.58-0.6
						c0.08-0.03-0.47,0.5-0.03,0.3c1.77-0.76,0.38-3.1-1.23-2.41c-1.62,0.69-2.23,2.15-1.09,3.62c1.06,1.37,2.7,2.31,4.15,3.21
						c2.91,1.8,5.98,3.35,9.09,4.78c8.95,4.11,18.49,7.12,28.23,8.62c10.65,1.64,21.48,1.01,32-1.19c8.97-1.87,17.84-4.71,26.01-8.9
						c3.02-1.55,6.03-3.28,8.53-5.59c1.44-1.33,3.02-3.27,2.2-5.34C193.59,267.57,190.81,268.4,191.5,270.1L191.5,270.1z"/>
				</g>
			</g>
			<g>
				<g>
					<path class="st20" d="M190.61,275.6c0.37,1.27-0.95,2.59-1.81,3.38c-1.88,1.77-4.18,3.13-6.44,4.36
						c-7.04,3.83-14.78,6.42-22.56,8.25c-9.49,2.23-19.37,3.21-29.09,2.22c-9.27-0.94-18.36-3.44-26.97-6.96
						c-3.57-1.46-7.08-3.09-10.44-4.98c-1.18-0.67-2.35-1.36-3.48-2.12c-0.33-0.22-3.77-2.62-2.84-3.06c0.43-0.2,0.8-0.63,0.3-0.94
						c-0.52-0.31-1.55,0.11-2.02,0.34c-3.58,1.7,1.72,4.66,3.31,5.64c2.84,1.75,5.83,3.27,8.86,4.66
						c8.63,3.95,17.83,6.82,27.22,8.25c10.51,1.61,21.21,1.03,31.61-1.06c8.97-1.81,17.85-4.6,26.05-8.73
						c3.02-1.52,6.08-3.24,8.61-5.5c1.15-1.03,3.08-2.8,2.57-4.56C193.25,273.99,190.37,274.79,190.61,275.6L190.61,275.6z"/>
				</g>
			</g>
			<g>
				<g>
					<path class="st21" d="M190.18,279.84c0.25,1.35-1.08,2.65-1.96,3.48c-1.83,1.74-4.04,3.1-6.24,4.33
						c-6.79,3.8-14.29,6.41-21.83,8.28c-9.51,2.36-19.47,3.51-29.27,2.77c-9.28-0.69-18.44-2.99-27.1-6.38
						c-3.71-1.45-7.35-3.1-10.85-5.01c-1.28-0.69-2.53-1.43-3.75-2.21c-0.77-0.5-1.53-1.01-2.23-1.6c-0.22-0.19,0.08,0.08,0.08,0.13
						c0.01-0.1-0.1-0.23-0.03-0.33c0.17-0.24,0.29-0.39,0.57-0.54c0.24-0.13-1.44-2.48-2.06-2.15c-2.68,1.43,3.93,5.8,5,6.49
						c2.64,1.69,5.44,3.16,8.28,4.51c8.27,3.92,17.13,6.79,26.16,8.33c10.34,1.76,20.86,1.39,31.16-0.53
						c8.6-1.61,17.13-4.21,24.99-8.07c2.97-1.46,5.96-3.1,8.49-5.26c1.13-0.96,3.03-2.6,2.71-4.31c-0.11-0.57-0.68-1.12-1.1-1.49
						C191.13,280.23,190.11,279.47,190.18,279.84L190.18,279.84z"/>
				</g>
			</g>
			<g>
				<g>
					<path class="st22" d="M189.11,287c0,0.05,0,0.24-0.09,0.56c0.08-0.24-0.02,0.04-0.07,0.14c-0.04,0.08-0.32,0.55-0.17,0.32
						c-0.52,0.79-0.79,1.01-1.49,1.64c-1.76,1.57-3.94,2.9-6.12,4.07c-6.66,3.6-13.97,6.04-21.33,7.75
						c-9.3,2.16-19.03,3.14-28.57,2.27c-8.99-0.82-17.88-3.1-26.24-6.48c-3.58-1.44-7.09-3.08-10.45-4.98
						c-1.23-0.69-2.43-1.42-3.6-2.21c-0.79-0.53-1.58-1.07-2.28-1.72c-0.3-0.27-0.5-0.64-0.78-0.91c0.04,0.04-0.07-0.16-0.09-0.19
						c-0.02-0.14-0.03-0.16-0.02-0.09c-0.58,0.57-0.71,0.74-0.37,0.52c0.43-0.26,1.13-0.99,0.78-1.54
						c-0.36-0.57-1.31-0.18-1.72,0.08c-3.68,2.22,1.43,5.24,3.34,6.45c2.73,1.73,5.6,3.22,8.53,4.57c8.41,3.89,17.4,6.7,26.58,8.06
						c10.33,1.53,20.84,0.97,31.07-1.05c8.43-1.66,16.83-4.3,24.48-8.24c2.9-1.49,5.79-3.15,8.25-5.31
						c1.34-1.18,3.18-2.94,3.02-4.91C191.68,284.59,189.02,285.86,189.11,287L189.11,287z"/>
				</g>
			</g>
			<g>
				<g>
					<path class="st23" d="M188.29,291.54c-0.01,0.12-0.03,0.24-0.04,0.35c-0.05,0.33,0.1-0.18-0.04,0.14
						c-0.13,0.29-0.28,0.57-0.46,0.83c-0.01,0.01-0.3,0.4-0.52,0.63c-0.3,0.34-0.63,0.65-0.97,0.96c-1.77,1.61-3.84,2.87-5.94,4.03
						c-6.49,3.58-13.63,6.04-20.82,7.74c-9.23,2.18-18.85,3.19-28.31,2.45c-8.89-0.69-17.63-2.87-25.92-6.15
						c-3.53-1.39-6.99-2.98-10.3-4.84c-1.25-0.7-2.48-1.44-3.68-2.24c-0.74-0.5-1.5-1.01-2.16-1.6c-0.23-0.2-0.47-0.61-0.73-0.74
						c-0.43-0.24,0.05-0.15-0.06-0.05c-0.08,0.08-0.02,0.35-0.18,0.47c1.38-0.97-0.31-3.38-1.56-2.49
						c-4.77,3.36,10.36,10.54,12.61,11.61c8.2,3.88,17.01,6.61,25.97,8.01c10.13,1.58,20.51,1.14,30.58-0.74
						c8.27-1.55,16.51-4.06,24.04-7.83c2.84-1.43,5.66-3.05,8.09-5.1c1.28-1.07,3-2.66,3.08-4.47c0.03-0.77-0.37-1.49-1.12-1.75
						C189.26,290.54,188.32,290.78,188.29,291.54L188.29,291.54z"/>
				</g>
			</g>
			<g>
				<g>
					<path class="st24" d="M187.7,296.87c-0.05,0.33-0.33,0.88-0.69,1.37c-0.44,0.6-1.01,1.14-1.57,1.64
						c-1.78,1.58-3.84,2.86-5.91,4.01c-6.28,3.49-13.2,5.85-20.16,7.51c-9.11,2.17-18.64,3.17-27.99,2.51
						c-8.9-0.63-17.67-2.74-25.95-6c-3.53-1.39-7-2.97-10.3-4.84c-1.25-0.71-2.48-1.45-3.68-2.26c-0.74-0.51-1.5-1.02-2.16-1.62
						c-0.06-0.05-0.74-0.76-0.73-0.76c0.15-0.08-0.1,0.54,0.16,0.32c0.91-0.77-0.92-3.11-1.82-2.37c-1.23,1.04,0.02,2.82,0.82,3.7
						c1.16,1.27,2.62,2.26,4.06,3.19c2.59,1.7,5.34,3.17,8.13,4.49c7.99,3.82,16.59,6.51,25.35,7.89
						c10.12,1.6,20.52,1.19,30.58-0.68c7.99-1.48,15.89-3.89,23.18-7.52c2.73-1.36,5.43-2.9,7.78-4.85
						c1.29-1.07,2.88-2.49,3.16-4.25C190.11,297.33,187.92,295.41,187.7,296.87L187.7,296.87z"/>
				</g>
			</g>
			<g>
				<g>
					<path class="st25" d="M187.05,302.16c-0.35,1.28-1.55,2.37-2.52,3.21c-1.7,1.49-3.63,2.72-5.59,3.83
						c-6.02,3.39-12.65,5.71-19.33,7.34c-9.02,2.21-18.48,3.21-27.76,2.67c-8.85-0.52-17.61-2.51-25.87-5.68
						c-3.61-1.38-7.13-2.98-10.5-4.87c-1.3-0.73-2.58-1.5-3.82-2.32c-0.67-0.45-1.33-0.91-1.96-1.41c-0.22-0.18-0.9-0.63-0.92-0.79
						c0.14,0.84,0.25,0.03,0.39-0.11c0.39-0.41-1.61-2.59-1.86-2.33c-0.9,0.95,0.95,2.86,1.53,3.48c1.17,1.28,2.59,2.31,4.03,3.28
						c2.5,1.69,5.16,3.13,7.87,4.44c7.83,3.78,16.25,6.44,24.84,7.8c9.9,1.56,20.06,1.18,29.91-0.57c7.8-1.39,15.55-3.68,22.66-7.2
						c2.67-1.33,5.31-2.82,7.63-4.71c1.26-1.02,2.76-2.3,3.21-3.93c0.12-0.44-0.71-1.28-0.97-1.57
						C187.89,302.6,187.16,301.79,187.05,302.16L187.05,302.16z"/>
				</g>
			</g>
			<g>
				<g>
					<path class="st26" d="M185.77,308.66c-0.47,1.19-1.47,2.1-2.51,3c-1.67,1.44-3.58,2.63-5.51,3.7
						c-5.8,3.24-12.2,5.42-18.65,6.93c-8.86,2.07-18.17,2.99-27.26,2.33c-8.61-0.62-17.13-2.64-25.13-5.87
						c-3.4-1.38-6.73-2.97-9.91-4.82c-1.13-0.67-2.26-1.36-3.33-2.12c-0.85-0.61-1.7-1.23-2.46-1.96c-0.28-0.27-0.57-0.55-0.78-0.89
						c-0.07-0.12-0.14-0.24-0.19-0.36c-0.05-0.15,0.08-0.29-0.08-0.06c0.85-1.21-1.99-1.61-2.6-0.75c-0.9,1.28,0.68,2.62,1.57,3.4
						c1.15,1.01,2.43,1.88,3.72,2.7c2.67,1.72,5.49,3.21,8.37,4.54c7.93,3.65,16.44,6.13,25.09,7.31
						c9.94,1.34,20.18,0.81,30.03-1.06c7.47-1.42,14.84-3.68,21.65-7.09c2.62-1.32,5.15-2.82,7.45-4.66
						c1.31-1.05,2.78-2.32,3.42-3.92C189.12,307.84,186.18,307.64,185.77,308.66L185.77,308.66z"/>
				</g>
			</g>
			<g>
				<g>
					<path class="st27" d="M185.41,313.32c-0.64,1.21-1.7,2.2-2.73,3.08c-1.67,1.42-3.52,2.61-5.43,3.69
						c-5.69,3.21-11.95,5.39-18.28,6.89c-17.38,4.13-35.77,3.46-52.48-3.03c-3.46-1.34-6.84-2.92-10.07-4.78
						c-1.17-0.68-2.32-1.38-3.42-2.15c-0.73-0.51-1.44-1.02-2.11-1.61c-0.28-0.24-0.95-0.57-0.75-0.99c0.3-0.63-1.79-2.64-2.1-1.97
						c-0.54,1.15,1.45,2.99,2.14,3.65c1.23,1.2,2.64,2.21,4.07,3.16c2.48,1.66,5.09,3.09,7.78,4.38c7.6,3.65,15.75,6.13,24.09,7.38
						c9.73,1.45,19.75,1.05,29.43-0.67c7.27-1.29,14.47-3.4,21.1-6.67c2.52-1.24,4.98-2.66,7.2-4.38c1.33-1.04,2.77-2.24,3.57-3.76
						C187.81,314.76,185.61,312.95,185.41,313.32L185.41,313.32z"/>
				</g>
			</g>
			<g>
				<g>
					<path class="st28" d="M184.78,318.84c-0.88,1.33-2.14,2.42-3.4,3.4c-1.96,1.53-4.11,2.82-6.32,3.96
						c-6.68,3.46-14.03,5.6-21.43,6.89c-18.13,3.14-37.11,1.25-53.6-7.22c-2.65-1.36-5.28-2.87-7.65-4.71
						c-0.42-0.33-0.84-0.67-1.25-1.03c-0.17-0.15-0.34-0.31-0.51-0.46c-0.3-0.29-0.08-0.08-0.27-0.28
						c-0.12-0.13-0.23-0.25-0.34-0.39c0.35,0.44-0.18-0.48,0.11,0.17c-0.15-0.35,0.16,0.47,0.13,0.32c0.06,0.25,0.08,0.28,0.03,0.44
						c0.19-0.59-0.21-1.32-0.54-1.79c-0.1-0.14-0.92-1.13-1.09-0.59c-0.47,1.53,1.23,3.32,2.21,4.27c1.66,1.61,3.62,2.94,5.58,4.15
						c6.55,4.06,13.9,6.91,21.35,8.79c10.22,2.58,20.75,2.97,31.2,1.8c8.51-0.95,17-2.91,24.81-6.45c2.9-1.32,5.73-2.86,8.3-4.75
						c1.57-1.16,3.18-2.48,4.26-4.13C186.85,320.56,185.22,318.18,184.78,318.84L184.78,318.84z"/>
				</g>
			</g>
		</g>
		<g>
			<path class="st29" d="M140.1,210.93c-40.33,0-72.11,15.48-72.11,33.87c0,18.39,30.12,36.26,70.45,36.26s74.69-18.43,74.69-36.83
				C213.13,225.84,180.43,210.93,140.1,210.93z M140.1,271.44c-34.98,0-63.33-12.58-63.33-28.1s28.35-28.1,63.33-28.1
				s63.33,12.58,63.33,28.1C203.43,258.86,175.07,271.44,140.1,271.44z"/>
			<path class="st30" d="M209.33,243.84c0,15.48-29.82,33.59-65.56,33.59s-71.73-12.55-71.73-28.02s24.56-38.05,60.3-38.05
				C189.58,211.36,209.33,228.36,209.33,243.84z"/>
			<path class="st0" d="M140,210.93c-39.51,0-71.97,13.8-71.97,31.34s30.84,35.54,70.35,35.54s73.17-17.59,73.17-35.13
				S179.52,210.93,140,210.93z M140,268.64c-34.27,0-62.05-12-62.05-26.8c0-14.8,27.78-26.8,62.05-26.8s62.05,12,62.05,26.8
				C202.05,256.65,174.27,268.64,140,268.64z"/>
		</g>
		<g>
			<path class="st29" d="M191.25,250.17c0.88-0.26,0.95-6.31,0.95-6.31s1.21-18.35-2.53-44.75c-4.71-33.29-21.86-42.67-21.86-42.67
				l0.26-73.75l-59.98,0.73l0.79,72.55c0,0-16.42,14.21-18.97,34.48s-10.4,46.17-7.49,58.35c0,0,10.09,17.56,56.29,18.67
				C184.91,268.58,191.25,250.17,191.25,250.17z"/>
			<ellipse class="st29" cx="138.13" cy="84.01" rx="30.3" ry="15.22"/>
			<path class="st29" d="M167.81,156.01c0,6.21-12.28,15.33-28.92,15.33s-29.81-9.12-29.81-15.33"/>
			<ellipse class="st0" cx="138.31" cy="84.01" rx="17.44" ry="9.01"/>
			<ellipse class="st0" cx="138.31" cy="71.97" rx="17.44" ry="9.01"/>
			<path class="st31" d="M120.88,72.27v11.74c0,0,0.41,9.83,18.6,9.23c18.17-0.61,16.29-9.23,16.29-9.23V71.97
				c0,0-2.11,8.3-17.13,8.42C123.6,80.52,120.88,72.27,120.88,72.27z"/>
		</g>
		<g>
			<g>
				<g>
					<path class="st1" d="M186.56,187.91c-0.07-0.04-0.41-0.41-0.48-0.54c0.03,0.05-0.27-0.7-0.22-0.52c-0.24-0.83,0-0.12-0.03-0.15
						c0.01,0.01,0.05-0.24-0.01,0.02c-0.05,0.21-0.08,0.26-0.06,0.23c-0.25,0.61-0.67,1.15-1.08,1.65c-1.44,1.73-3.27,3.16-5.1,4.46
						c-6.13,4.36-13.21,7.42-20.42,9.52c-10.17,2.97-21,4.04-31.5,2.52c-9.18-1.33-18.27-4.29-26.36-8.85
						c-2.98-1.68-5.92-3.57-8.43-5.91c-0.43-0.41-0.92-0.9-1.12-1.13c-0.18-0.21-0.35-0.42-0.52-0.64
						c-0.07-0.08-0.13-0.18-0.19-0.26c-0.21-0.3,0.18,0.29,0-0.01c-0.08-0.13-0.47-0.7-0.17-0.26c-0.01-0.02-0.08-0.21-0.09-0.21
						c-0.06,0.01,0.08,0.21,0.03,0.08c-0.03-0.07-0.03-0.03,0.01-0.08c0.5-0.9-1.26-3.25-1.79-2.28c-0.89,1.61,0.73,3.79,1.72,4.96
						c1.93,2.29,4.38,4.14,6.87,5.8c7.81,5.21,16.88,8.69,26.06,10.61c5.78,1.21,11.66,1.82,17.56,1.53
						c5.61-0.28,11.19-1.11,16.64-2.5c8.09-2.06,16.06-5.28,22.93-10.08c2.04-1.43,4.06-3.01,5.67-4.93
						c1.04-1.24,1.88-2.72,0.99-4.3c-0.24-0.42-0.57-0.8-0.97-1.07c-0.53-0.35-0.94-0.03-0.95,0.55
						C185.49,186.76,186.01,187.55,186.56,187.91L186.56,187.91z"/>
				</g>
			</g>
			<g>
				<g>
					<path class="st32" d="M186.9,191.45c-0.33-0.24-0.66-0.59-0.74-0.74c-0.13-0.23-0.07,0.02-0.03-0.13
						c-0.05,0.21-0.04,0.43-0.11,0.64c-0.14,0.44-0.63,1.13-1.01,1.61c-1.39,1.74-3.18,3.18-4.97,4.48
						c-6.16,4.48-13.4,7.54-20.68,9.63c-10.21,2.94-21.05,4.06-31.6,2.62c-9.4-1.28-18.74-4.24-27.05-8.85
						c-2.9-1.61-6.16-3.71-8.36-5.77c-0.43-0.41-0.85-0.83-1.24-1.28c-0.03-0.03-0.1-0.11-0.29-0.35c-0.08-0.09-0.44-0.64-0.29-0.39
						c-0.1-0.17-0.2-0.35-0.28-0.52c0,0-0.02,0.03-0.07-0.22c-0.03-0.12-0.02-0.4,0.02-0.46c0.47-0.88-1.92-2.61-2.31-1.88
						c-0.79,1.47,0.99,3.41,1.88,4.4c2.04,2.29,4.62,4.16,7.19,5.82c8.06,5.23,17.33,8.75,26.71,10.69
						c5.87,1.21,11.84,1.83,17.83,1.54c5.6-0.27,11.19-1.06,16.64-2.39c8.22-2.01,16.31-5.24,23.29-10.05
						c2.06-1.42,4.12-3.01,5.73-4.95c0.79-0.95,1.82-2.32,1.17-3.6c-0.28-0.56-0.77-0.97-1.27-1.33c-0.31-0.23-1.16-0.6-1.32-0.03
						C185.61,190.5,186.55,191.19,186.9,191.45L186.9,191.45z"/>
				</g>
			</g>
			<g>
				<g>
					<path class="st33" d="M186.73,195.45c-0.38-0.3-0.24-0.2-0.15-0.12c-0.33-0.34-0.19-0.2-0.11-0.13c-0.23-0.24,0.07-0.14-0.02,0
						c-0.03,0.04,0.03-0.26-0.02,0.05c-0.06,0.35,0.03-0.01-0.02,0.15c-0.21,0.67-0.54,1.16-0.83,1.55
						c-1.35,1.79-3.16,3.26-4.96,4.58c-6.09,4.46-13.32,7.49-20.56,9.54c-10.39,2.94-21.45,4.08-32.16,2.56
						c-9.48-1.34-18.84-4.3-27.26-8.9c-3.08-1.69-6.24-3.67-8.76-5.98c-0.44-0.41-0.86-0.82-1.26-1.26
						c-0.4-0.44-0.41-0.43-0.78-1.01c-0.09-0.14-0.18-0.3-0.25-0.45c0.16,0.33-0.05-0.14-0.08-0.25c-0.03-0.1-0.05-0.11,0.03-0.27
						c0.64-1.22-2.08-2.42-2.74-1.17c-0.79,1.5,1.01,3.47,1.93,4.44c2.11,2.26,4.74,4.09,7.35,5.72c8.36,5.21,17.86,8.7,27.51,10.59
						c6.02,1.17,12.11,1.71,18.22,1.38c5.67-0.3,11.32-1.11,16.84-2.47c8.2-2.03,16.37-5.2,23.33-10.06
						c2.08-1.45,4.17-3.05,5.78-5.04c0.82-1.01,1.88-2.45,1.38-3.84c-0.17-0.47-0.52-0.82-0.91-1.12
						C186.94,192.92,185.18,194.26,186.73,195.45L186.73,195.45z"/>
				</g>
			</g>
			<g>
				<g>
					<path class="st34" d="M187.04,199.58c0.3,0.24-0.22-0.28-0.03-0.05c0.03,0.04-0.26-0.29-0.03-0.03c-0.46-0.53,0.18-0.08-0.03,0
						c-0.07,0.03,0.07-0.4,0-0.13c-0.02,0.08-0.03,0.16-0.04,0.24c-0.08,0.35-0.02,0.09-0.03,0.12c-0.05,0.12-0.1,0.23-0.15,0.35
						c-0.17,0.35-0.39,0.67-0.61,0.98c-0.19,0.26,0.05-0.03-0.24,0.3c-0.14,0.18-0.3,0.35-0.45,0.52c-0.35,0.38-0.7,0.74-1.07,1.1
						c-0.94,0.9-1.94,1.72-2.99,2.48c-6.03,4.46-13.26,7.44-20.45,9.48c-10.49,2.97-21.65,4.1-32.48,2.69
						c-9.81-1.28-19.52-4.33-28.24-8.99c-3.18-1.7-6.29-3.59-9-5.97c-0.49-0.43-0.96-0.89-1.42-1.36c-0.03-0.03-0.31-0.35-0.08-0.08
						c-0.08-0.08-0.15-0.17-0.22-0.26c-0.15-0.19-0.3-0.38-0.44-0.57c-0.08-0.11-0.39-0.7-0.19-0.28c-0.08-0.15-0.14-0.31-0.19-0.47
						c-0.06-0.15,0.08,0.1,0.03,0.1c-0.01,0-0.02-0.2-0.02-0.22c-0.06,0.72,0.01,0.14,0.01,0.14c-0.06-0.08-0.14,0.32-0.03,0.1
						c0.78-1.5-1.84-2.92-2.62-1.42c-0.9,1.75,0.86,3.7,1.97,4.87c2.15,2.26,4.84,4.08,7.49,5.71c8.52,5.24,18.25,8.72,28.06,10.57
						c6.12,1.16,12.28,1.66,18.49,1.31c5.72-0.32,11.41-1.12,16.98-2.48c8.22-2.02,16.43-5.17,23.4-10.05
						c2.1-1.47,4.18-3.08,5.79-5.09c0.94-1.17,2.07-2.82,1.44-4.39c-0.15-0.38-0.41-0.74-0.73-1.01
						C187.54,196.63,185.54,198.35,187.04,199.58L187.04,199.58z"/>
				</g>
			</g>
			<g>
				<g>
					<path class="st35" d="M187.1,203.11c0.29,0.24,0.36,0.61,0.32,0.9c-0.08,0.59-0.45,1.25-0.71,1.64
						c-1.17,1.77-2.86,3.19-4.54,4.46c-6.05,4.58-13.3,7.58-20.56,9.63c-10.59,3-21.89,4.06-32.81,2.62
						c-10.04-1.33-19.96-4.44-28.9-9.18c-3.27-1.73-6.51-3.68-9.29-6.13c-0.84-0.75-1.7-1.55-2.33-2.51
						c-0.31-0.47-0.58-1.06-0.39-1.44c0.29-0.57-0.9-0.64-1.18-0.63c-0.58,0.03-1.42,0.24-1.71,0.81c-0.67,1.33,1.21,3.09,2.01,3.88
						c2.28,2.24,5.03,4.05,7.77,5.66c8.81,5.2,18.77,8.63,28.83,10.38c11.84,2.07,23.97,1.44,35.63-1.42
						c8.35-2.04,16.65-5.17,23.75-10.09c2.1-1.45,4.21-3.1,5.82-5.11c0.74-0.93,1.89-2.45,1.45-3.74c-0.08-0.25-0.23-0.46-0.42-0.63
						c-0.49-0.42-1.32-0.31-1.89-0.13C187.71,202.17,186.61,202.68,187.1,203.11L187.1,203.11z"/>
				</g>
			</g>
			<g>
				<g>
					<path class="st36" d="M187.95,207.08c0.02,0.01,0.09,0.11,0.11,0.11c-0.71,0.01,0.02-0.3-0.09-0.1
						c-0.07,0.12-0.04-0.22,0.01,0.05c0.04,0.24,0.03-0.24,0.02,0.1c0,0.14-0.01,0.27-0.03,0.41c-0.03,0.23,0.05-0.11-0.05,0.2
						c-0.05,0.14-0.1,0.28-0.16,0.41c-0.15,0.35-0.34,0.68-0.55,0.99c-1.06,1.65-2.96,3.25-4.63,4.53
						c-6.02,4.56-13.28,7.53-20.49,9.59c-10.79,3.09-22.39,4.26-33.54,2.91c-10.16-1.23-20.18-4.24-29.3-8.88
						c-3.33-1.69-6.81-3.73-9.56-6.06c-0.51-0.42-1-0.87-1.46-1.34c-0.49-0.5-0.56-0.57-0.86-1.01c-0.12-0.17-0.23-0.34-0.32-0.52
						c-0.14-0.24,0.09,0.24,0,0c-0.03-0.08-0.08-0.17-0.09-0.25c-0.08-0.33-0.06,0.12-0.03-0.19c0.03-0.19-0.11,0.18,0.03-0.12
						c0.56-1.14-2.15-2.37-2.72-1.22c-0.76,1.55,1.28,3.51,2.23,4.44c2.37,2.31,5.2,4.16,8.03,5.8c9.01,5.25,19.11,8.78,29.37,10.61
						c6.31,1.13,12.62,1.57,19.02,1.23c5.83-0.31,11.63-1.12,17.31-2.49c8.28-1.99,16.51-5.08,23.54-9.98
						c2.06-1.44,4.11-3.06,5.64-5.07c0.84-1.11,1.83-2.63,1.28-4.08c-0.14-0.36-0.39-0.71-0.68-0.97c-0.48-0.45-1.35-0.84-2-0.52
						C187.37,205.98,187.51,206.68,187.95,207.08L187.95,207.08z"/>
				</g>
			</g>
			<g>
				<g>
					<path class="st37" d="M188.87,211.61c-0.05-0.05-0.29-0.32-0.14-0.13c0.15,0.19-0.07-0.09-0.1-0.16
						c0.15,0.35-0.1-0.31,0.02,0.02c0.03,0.08,0,0.23,0.01,0.02c0.02-0.34-0.03,0.03-0.01,0.03c-0.01,0,0,0.16,0,0.18
						c0,0.02,0.06-0.29,0-0.04c-0.03,0.14-0.06,0.26-0.09,0.4c-0.02,0.07-0.05,0.14-0.07,0.21c-0.06,0.18,0.09-0.2-0.02,0.04
						c-0.16,0.34-0.34,0.67-0.55,0.98c-1.14,1.74-2.85,3.19-4.61,4.53c-6.09,4.6-13.42,7.54-20.72,9.58
						c-10.91,3.05-22.58,4.22-33.84,2.91c-10.37-1.2-20.64-4.22-29.98-8.87c-3.2-1.59-6.35-3.36-9.2-5.53
						c-0.53-0.41-1.06-0.82-1.56-1.26c-0.21-0.19-0.42-0.37-0.63-0.57c-0.09-0.09-0.19-0.19-0.29-0.28
						c-0.19-0.19,0.13,0.14-0.11-0.12c-0.3-0.33-0.57-0.67-0.84-1.02c-0.22-0.3,0.11,0.24-0.1-0.17c-0.03-0.07-0.07-0.14-0.1-0.2
						c-0.08-0.16,0.03,0.31,0.03,0.07c-0.01-0.35-0.04,0.28-0.02-0.05c0-0.03-0.04,0.19-0.06,0.21c0.61-1.28-1.58-3.28-2.26-1.88
						c-0.91,1.9,1.09,3.94,2.32,5.15c2.36,2.3,5.23,4.11,8.06,5.75c9.17,5.31,19.51,8.83,29.92,10.65
						c12.19,2.13,24.69,1.5,36.72-1.36c8.3-1.98,16.63-5.09,23.62-10.05c2.08-1.47,4.11-3.16,5.63-5.23
						c0.95-1.31,1.77-3.07,1.01-4.67c-0.21-0.44-0.49-0.78-0.84-1.11c-0.46-0.45-1.33-0.55-1.72,0.04
						C187.91,210.34,188.41,211.16,188.87,211.61L188.87,211.61z"/>
				</g>
			</g>
			<g>
				<g>
					<path class="st38" d="M188.62,215.26c0.85,0.84,0.39,2.03-0.12,2.91c-1.02,1.77-2.63,3.18-4.27,4.45
						c-5.9,4.59-13.24,7.46-20.41,9.4c-11.15,3.03-23.06,4.13-34.55,2.72c-10.61-1.3-21.08-4.4-30.66-9.17
						c-3.28-1.63-6.5-3.46-9.42-5.67c-1.36-1.03-3.48-2.48-3.98-4.23c-0.05-0.17-0.04-0.19-0.04-0.25c0-0.1,0.1-0.35,0.01-0.15
						c0.46-0.97-2.23-0.09-2.56,0.62c-0.69,1.49,1.28,3.13,2.22,3.98c2.49,2.27,5.44,4.07,8.37,5.69c9.41,5.2,19.9,8.62,30.5,10.32
						c12.2,1.97,24.79,1.19,36.78-1.71c8.44-2.04,16.89-5.21,24.03-10.24c2.17-1.53,4.28-3.25,5.89-5.39
						c0.79-1.05,1.79-2.61,1.3-3.99c-0.08-0.24-0.22-0.44-0.4-0.62C190.62,213.29,188.21,214.86,188.62,215.26L188.62,215.26z"/>
				</g>
			</g>
			<g>
				<g>
					<path class="st39" d="M189.21,219.34c0.69,0.72,0.29,2.01-0.23,2.91c-1,1.74-2.64,3.21-4.28,4.49
						c-5.96,4.63-13.35,7.47-20.57,9.43c-11.22,3.04-23.28,4.13-34.83,2.75c-10.78-1.29-21.43-4.38-31.18-9.15
						c-3.35-1.64-6.64-3.47-9.64-5.69c-1.4-1.04-3.53-2.45-4.09-4.22c-0.06-0.19-0.04-0.16-0.04-0.23c-0.01-0.18,0.03-0.21,0-0.14
						c0.5-1.08-2.26-0.3-2.61,0.46c-0.69,1.52,1.36,3.19,2.32,4.06c2.59,2.31,5.65,4.13,8.69,5.77c9.68,5.22,20.44,8.68,31.3,10.35
						c12.3,1.9,25.02,1.12,37.11-1.8c8.47-2.05,16.93-5.17,24.09-10.24c2.15-1.52,4.23-3.27,5.78-5.42c0.79-1.09,1.73-2.7,1.17-4.1
						c-0.11-0.28-0.3-0.51-0.51-0.72C191.1,217.25,188.5,218.6,189.21,219.34L189.21,219.34z"/>
				</g>
			</g>
			<g>
				<g>
					<path class="st40" d="M189.51,222.82c2.21,2.37-2.78,6.56-4.41,7.87c-5.96,4.76-13.39,7.69-20.67,9.71
						c-11.16,3.1-23.21,4.31-34.74,3.06c-11.03-1.2-21.96-4.29-31.97-9.08c-3.46-1.66-6.86-3.51-9.97-5.77
						c-1.01-0.73-1.98-1.5-2.85-2.39c-0.47-0.49-1.12-1.17-1.28-1.77c-0.06-0.24-0.05-0.48-0.03-0.52c0.34-0.76-2.54-0.9-2.88-0.14
						c-0.64,1.44,1.58,3.19,2.48,3.95c2.7,2.31,5.82,4.17,8.96,5.83c9.88,5.23,20.81,8.69,31.85,10.39
						c12.57,1.94,25.51,1.19,37.9-1.64c8.42-1.93,16.96-4.93,24.08-9.93c2.1-1.47,4.18-3.17,5.69-5.26
						c0.79-1.09,1.66-2.65,1.16-4.03c-0.1-0.28-0.25-0.53-0.46-0.75c-0.41-0.44-1.31-0.38-1.85-0.29
						C190.31,222.09,189.12,222.4,189.51,222.82L189.51,222.82z"/>
				</g>
			</g>
			<g>
				<g>
					<path class="st41" d="M190.2,226.14c0.76,0.84,0.45,2.21-0.1,3.27c-0.99,1.92-2.67,3.49-4.33,4.82
						c-5.96,4.83-13.48,7.78-20.79,9.83c-11.31,3.19-23.52,4.49-35.24,3.46c-11.37-1-22.63-3.99-33.02-8.73
						c-3.44-1.57-6.84-3.34-9.94-5.51c-1.06-0.74-2.04-1.48-2.95-2.37c-0.46-0.45-1.05-1.03-1.23-1.69
						c-0.06-0.23-0.08-0.35,0.01-0.56c0.25-0.57-2.42-1.87-2.64-1.39c-0.61,1.4,1.86,3.3,2.7,4.02c2.84,2.4,6.08,4.33,9.36,6.07
						c9.92,5.26,20.84,8.85,31.91,10.7c12.67,2.12,25.72,1.58,38.26-1.17c8.47-1.86,17.08-4.8,24.25-9.81
						c2.09-1.46,4.17-3.13,5.64-5.24c0.77-1.11,1.61-2.67,1.07-4.05c-0.12-0.3-0.3-0.57-0.51-0.81c-0.45-0.5-1.1-0.87-1.74-1.07
						C190.74,225.86,189.77,225.66,190.2,226.14L190.2,226.14z"/>
				</g>
			</g>
			<g>
				<g>
					<path class="st42" d="M191.25,231.12c0.29,0.33-0.18-0.25,0.04,0.06c0.14,0.2-0.12-0.15-0.05-0.11
						c0.03,0.02,0.08,0.2,0.08,0.23c-0.01-0.21-0.01-0.13,0.01,0.11c0.01,0.27,0.04-0.14,0,0.24c-0.02,0.15-0.03,0.3-0.06,0.46
						c-0.03,0.18,0.02,0.03-0.09,0.35c-0.13,0.35-0.28,0.7-0.46,1.04c-1.01,1.88-2.72,3.42-4.42,4.76
						c-6.07,4.79-13.64,7.66-21.03,9.67c-11.49,3.11-23.83,4.33-35.7,3.23c-11.46-1.06-22.79-4.11-33.29-8.8
						c-3.67-1.64-7.27-3.51-10.61-5.76c-1.06-0.71-2.11-1.49-3.09-2.38c-0.09-0.08-0.18-0.17-0.27-0.25c-0.22-0.21,0,0.01-0.05-0.04
						c-0.17-0.18-0.32-0.35-0.48-0.54c-0.06-0.07-0.12-0.14-0.17-0.22c-0.05-0.06,0.19,0.28,0.02,0.01
						c-0.04-0.06-0.08-0.13-0.12-0.19c-0.08-0.15,0.22,0.24,0.02,0.03c-0.14-0.14-0.01,0.21-0.01-0.06c0,0.12-0.02,0.27,0.02,0.08
						c0.01-0.03-0.08,0.25-0.01,0.06c0.45-1.06-1.72-3.08-2.22-1.88c-0.81,1.9,1.77,4.11,2.99,5.16c2.75,2.35,5.96,4.21,9.15,5.88
						c10.18,5.32,21.37,8.86,32.7,10.65c12.89,2.04,26.28,1.34,38.99-1.55c8.39-1.91,16.96-4.88,23.99-9.97
						c2.76-1.99,7.89-6.04,6.25-10.1c-0.19-0.46-0.47-0.9-0.79-1.28c-0.34-0.39-1.12-1-1.64-0.56
						C190.45,229.85,190.92,230.75,191.25,231.12L191.25,231.12z"/>
				</g>
			</g>
			<g>
				<g>
					<path class="st43" d="M191.27,235.34c0.26,0.3-0.08-0.21,0.08,0.1c0.04,0.09,0.22,0.49,0.14,0.26
						c-0.08-0.23,0.03,0.18,0.05,0.27c0.02,0.07,0.02,0.14,0.03,0.19c0.03,0.16,0.03-0.33-0.01-0.02c-0.02,0.15-0.03,0.3-0.04,0.46
						c-0.03,0.19-0.14,0.57-0.04,0.26c-0.12,0.35-0.25,0.7-0.42,1.04c-0.09,0.19-0.19,0.36-0.3,0.55c0.15-0.26-0.19,0.28-0.27,0.4
						c-0.3,0.42-0.63,0.83-0.98,1.22c-0.89,0.99-1.58,1.61-2.61,2.42c-6.04,4.78-13.59,7.61-20.96,9.59
						c-5.39,1.44-10.93,2.37-16.49,2.92c-6.51,0.65-13.04,0.83-19.55,0.22c-11.61-1.1-23.07-4.17-33.72-8.91
						c-3.68-1.64-7.3-3.49-10.65-5.74c-1.1-0.74-2.36-1.66-3.13-2.37c-0.35-0.32-0.68-0.66-0.99-1.01
						c-0.07-0.08-0.14-0.17-0.19-0.25c-0.06-0.08,0.15,0.25,0.02,0.02c-0.08-0.14-0.16-0.29-0.24-0.43c-0.11-0.22,0,0.24,0.03,0.08
						c0-0.02-0.02-0.14-0.03-0.15c0.02,0.03,0.14,0.33,0.02,0.14c-0.07-0.11-0.06,0.19-0.03,0.15c0.68-1.64-2.14-2.55-2.78-1.01
						c-0.82,1.99,1.69,3.95,2.99,5.01c2.84,2.33,6.12,4.17,9.39,5.82c10.52,5.33,22.01,8.87,33.67,10.6
						c13.02,1.93,26.57,1.17,39.39-1.79c8.44-1.95,17.08-4.89,24.15-10.05c2.06-1.5,4.1-3.25,5.48-5.41
						c0.98-1.52,1.74-3.44,0.96-5.21c-0.16-0.36-0.38-0.69-0.63-0.99C192.46,232.44,190.04,233.89,191.27,235.34L191.27,235.34z"/>
				</g>
			</g>
			<g>
				<g>
					<path class="st44" d="M191.89,238.96c-0.25-0.3-0.01,0.01,0.08,0.14c0.15,0.25-0.01-0.17,0.08,0.19
						c0.03,0.14,0.08,0.27,0.11,0.41c-0.06-0.29,0.01,0.15,0,0.27c0,0.16-0.02,0.31-0.03,0.46c-0.01,0.08-0.03,0.18-0.04,0.26
						c-0.03,0.16,0.04-0.14-0.03,0.08c-0.11,0.39-0.25,0.76-0.44,1.12c-0.93,1.88-2.57,3.43-4.25,4.79
						c-5.98,4.84-13.64,7.71-20.98,9.67c-11.73,3.13-24.32,4.34-36.41,3.29c-11.79-1.02-23.48-4.07-34.33-8.8
						c-3.77-1.65-7.48-3.48-10.92-5.73c-0.67-0.43-1.32-0.89-1.95-1.36c-0.59-0.44-0.85-0.65-1.29-1.05
						c-0.36-0.33-0.72-0.68-1.04-1.05c-0.17-0.19,0.13,0.18-0.02-0.02c-0.06-0.08-0.11-0.15-0.17-0.24
						c-0.04-0.06-0.08-0.13-0.12-0.19c-0.15-0.25,0.1,0.2-0.02-0.03c-0.06-0.11-0.15-0.46-0.06-0.13c-0.07-0.25-0.04-0.01,0-0.09
						c0.49-1.22-2.23-2.43-2.71-1.23c-0.74,1.83,2.01,3.85,3.17,4.78c2.98,2.4,6.42,4.27,9.83,5.97
						c10.68,5.33,22.36,8.84,34.17,10.57c13.09,1.92,26.71,1.18,39.6-1.72c8.5-1.91,17.19-4.83,24.32-9.99
						c2.08-1.5,4.09-3.27,5.46-5.47c0.84-1.36,1.44-3.08,0.8-4.65c-0.19-0.46-0.45-0.82-0.76-1.2
						C193.05,237.01,190.64,237.47,191.89,238.96L191.89,238.96z"/>
				</g>
			</g>
			<g>
				<g>
					<path class="st45" d="M192.15,242.89c0.09,0.12,0.17,0.24,0.25,0.35c0.1,0.14,0.08,0.16,0-0.03c0.03,0.08,0.08,0.16,0.1,0.25
						c0.04,0.14,0.08,0.28,0.12,0.42c-0.05-0.25,0.01,0.05,0.01,0.25c0,0.16-0.01,0.31-0.02,0.47c-0.02,0.24,0,0.03,0,0.04
						c-0.02,0.09-0.03,0.18-0.06,0.27c-0.11,0.39-0.24,0.76-0.41,1.12c-0.31,0.68-0.87,1.48-1.52,2.25
						c-0.77,0.9-1.64,1.72-2.52,2.43c-6.05,4.92-13.75,7.76-21.19,9.73c-5.44,1.44-10.99,2.38-16.58,2.94
						c-6.71,0.68-13.48,0.92-20.2,0.34c-11.99-1.04-23.84-4.1-34.9-8.83c-3.88-1.66-7.7-3.55-11.25-5.83
						c-1.27-0.81-2.21-1.46-3.29-2.4c-0.19-0.17-0.38-0.35-0.57-0.52c-0.12-0.11-0.48-0.51-0.41-0.43c0.08,0.09-0.19-0.25-0.26-0.35
						c-0.05-0.07-0.09-0.14-0.14-0.22c-0.15-0.24,0.15,0.19-0.01-0.01c-0.03-0.03-0.05-0.12-0.06-0.16
						c-0.03-0.19,0.08,0.14,0.01,0.07c-0.01-0.02-0.01-0.13,0-0.14c-0.16,0.35-0.03,0.19,0,0.08c0.53-1.37-2.26-2.37-2.8-0.99
						c-0.71,1.82,1.96,3.83,3.13,4.74c3.07,2.39,6.51,4.28,10,5.99c10.92,5.33,22.78,8.9,34.8,10.61
						c13.27,1.88,27.04,1.12,40.11-1.78c8.48-1.88,17.26-4.77,24.36-9.94c2.08-1.51,4.16-3.28,5.51-5.49
						c0.9-1.47,1.57-3.27,0.91-4.97c-0.14-0.38-0.35-0.75-0.61-1.06c-0.46-0.57-1.25-0.95-1.99-0.7
						C192.06,241.62,191.69,242.33,192.15,242.89L192.15,242.89z"/>
				</g>
			</g>
		</g>
		<g>
			<g>
				<g>
					<path class="st15" d="M183.9,174.82c0.34,0.05,0.04-0.01-0.02-0.04c0.28,0.17-0.33-0.19-0.01,0c-0.06-0.03-0.24-0.32-0.12-0.12
						c0.06,0.09,0.16,0.3-0.05-0.14c0.04,0.09,0.09,0.23,0.09,0.34c-0.01-0.28,0-0.17-0.01,0.08c-0.01,0.15-0.03,0.3-0.03,0.46
						c-0.03,0.32,0.05-0.19,0,0c-0.02,0.07-0.03,0.14-0.05,0.21c-0.06,0.2-0.12,0.41-0.19,0.61c-0.39,1.12-0.63,1.51-1.23,2.46
						c-0.7,1.12-1.51,2.15-2.38,3.14c-5.06,5.75-12.4,9.83-19.76,12.12c-11.77,3.65-24.53,3.28-36.51,0.91
						c-8.62-1.7-17.72-4.68-24.33-10.72c-1.06-0.97-1.93-1.89-2.71-2.92c-0.37-0.49-0.72-1.01-1.03-1.53
						c-0.14-0.23-0.26-0.46-0.39-0.69c-0.06-0.11-0.12-0.23-0.17-0.34c-0.1-0.2-0.1-0.21-0.08-0.17c-0.19-0.43-0.35-0.86-0.47-1.32
						c-0.06-0.21-0.11-0.42-0.15-0.63c-0.02-0.09-0.03-0.19-0.05-0.29c-0.03-0.19,0.01,0.28,0-0.05c-0.02-0.35-0.01-0.7,0.02-1.06
						c0.02-0.23,0.03-0.14-0.02,0.04c0.02-0.08,0.03-0.17,0.06-0.25c0.05-0.14,0.1-0.29,0.15-0.44c0.08-0.25-0.19,0.16,0.07-0.11
						c0.08-0.09,0.43-0.49,0.07-0.12c1.32-1.35-0.89-3.07-2.05-1.88c-3.3,3.38,0.25,8.77,2.65,11.52
						c5.83,6.65,14.82,10.27,23.17,12.4c6.8,1.74,13.89,2.65,20.9,2.86c6.31,0.19,12.69-0.39,18.81-1.94
						c8.64-2.21,17.07-6.37,23.3-12.88c1.91-1.99,3.69-4.22,4.77-6.78c0.59-1.41,1.12-3.46-0.22-4.63c-0.32-0.28-0.75-0.5-1.17-0.57
						c-0.73-0.12-1.58,0.06-1.86,0.84C182.67,173.88,183.2,174.7,183.9,174.82L183.9,174.82z"/>
				</g>
			</g>
			<g>
				<g>
					<path class="st46" d="M185.63,179.78c-0.11-0.02-0.26-0.07-0.09-0.02c0.2,0.07-0.26-0.18-0.14-0.07
						c-0.19-0.17-0.37-0.32-0.52-0.53c-0.08-0.12-0.06-0.14-0.12-0.29c0.12,0.3,0.03,0.02,0.03,0.13c-0.01,0.14-0.02,0.27-0.03,0.41
						c-0.01,0.08-0.03,0.15-0.03,0.22c-0.04,0.23,0.04-0.14-0.03,0.09c-0.1,0.38-0.24,0.74-0.41,1.11c-0.95,2.14-2.5,4-4.11,5.67
						c-5.64,5.85-13.1,9.8-20.82,12.11c-11.81,3.53-24.49,3.14-36.5,0.83c-8.67-1.67-17.77-4.67-24.59-10.49
						c-1.18-1.01-1.89-1.7-2.89-2.91c-0.19-0.24-0.38-0.47-0.57-0.72c0.19,0.25-0.28-0.41-0.36-0.53c-0.15-0.23-0.29-0.46-0.43-0.68
						c-0.08-0.14-0.41-0.77-0.27-0.48c-0.2-0.42-0.39-0.85-0.54-1.3c-0.1-0.29,0.03,0.14-0.03-0.07c-0.03-0.08-0.04-0.16-0.07-0.25
						c-0.04-0.21-0.08-0.42-0.12-0.63c-0.01-0.08-0.02-0.15-0.03-0.23c-0.02-0.2,0,0.22,0-0.03c0-0.17,0.01-0.34,0.02-0.52
						c0.03-0.43-0.02-0.24,0.18-0.67c0.06-0.12,0.12-0.24,0.19-0.35c-0.12,0.18,0.07-0.08,0.16-0.17c0.85-0.84-1.12-3.07-1.94-2.26
						c-1.18,1.16-1.07,2.99-0.65,4.46c0.73,2.54,2.36,4.8,4.16,6.7c6.23,6.58,15.13,10.32,23.76,12.51
						c12.67,3.23,26.54,4.16,39.31,1c8.65-2.14,17.16-6.26,23.51-12.61c1.86-1.86,3.67-3.98,4.77-6.38c0.76-1.66,1.07-3.63-0.5-4.96
						c-0.4-0.34-0.84-0.52-1.35-0.62c-0.7-0.14-0.7,0.74-0.55,1.17C184.32,179.1,184.94,179.65,185.63,179.78L185.63,179.78z"/>
				</g>
			</g>
			<g>
				<g>
					<path class="st47" d="M185.8,183.9c-0.08-0.02-0.8-0.33-0.79-0.33c0.04-0.02,0.05-0.01,0.08,0.11c0.08,0.26,0.11,0.23,0.1,0.53
						c-0.02,0.68-0.3,1.35-0.59,1.96c-1.03,2.15-2.68,4-4.35,5.65c-5.85,5.79-13.46,9.75-21.31,12.07
						c-11.74,3.47-24.37,3.19-36.3,0.78c-8.62-1.74-17.47-4.79-24.31-10.51c-1.95-1.63-3.81-3.51-5.03-5.78
						c-0.64-1.19-1.32-2.79-0.73-4.13c0.11-0.26,0.19-0.35,0.39-0.54c0.41-0.39-2.17-1.42-2.75-0.89c-1.09,1.01-0.81,2.64-0.35,3.89
						c0.84,2.3,2.57,4.27,4.31,5.95c6.54,6.29,15.6,9.82,24.25,12.01c6.64,1.68,13.5,2.58,20.34,2.86
						c6.32,0.26,12.68-0.23,18.86-1.64c8.88-2.04,17.61-6.03,24.37-12.23c1.99-1.83,3.93-3.9,5.24-6.29
						c0.53-0.97,1.46-2.75,0.4-3.69c-0.43-0.38-1.06-0.57-1.61-0.69c-0.27-0.06-1.45-0.33-1.55,0.12
						C184.36,183.56,185.59,183.86,185.8,183.9L185.8,183.9z"/>
				</g>
			</g>
			<g>
				<g>
					<path class="st48" d="M186.02,189.15c-0.08-0.02-0.33-0.09-0.14-0.03c-0.14-0.04-0.09-0.06-0.1-0.04
						c-0.03,0.03-0.05-0.14,0.03,0.05c0.05,0.12,0-0.18,0.03,0.1c0.01,0.11,0.02,0.22,0.02,0.33c0,0.14,0.03-0.03-0.03,0.24
						c-0.04,0.16-0.08,0.32-0.14,0.48c-0.13,0.36-0.3,0.71-0.48,1.05c-1.08,2-2.91,3.92-4.65,5.53
						c-6.06,5.63-13.82,9.45-21.74,11.64c-11.77,3.26-24.32,2.8-36.2,0.34c-8.73-1.8-17.59-4.93-24.68-10.48
						c-2.04-1.6-3.98-3.42-5.35-5.64c-0.47-0.76-0.82-1.44-1.01-2.23c-0.08-0.31-0.11-0.63-0.11-0.95c0-0.24,0.01-0.25,0.14-0.62
						c0.1-0.29-0.01-0.03,0.08-0.15c0.07-0.1,0.16-0.19,0.25-0.26c0.53-0.47-0.25-0.93-0.65-1.01c-0.69-0.15-1.46,0.05-1.99,0.52
						c-1.18,1.04-0.79,2.78-0.25,4.04c0.95,2.27,2.76,4.17,4.55,5.81c6.67,6.09,15.62,9.58,24.26,11.74
						c12.59,3.15,26.21,3.96,38.92,1.1c9.1-2.05,18.04-6.05,25.14-12.17c2.14-1.84,4.19-3.86,5.69-6.26
						c0.63-0.99,1.82-2.88,0.91-4.03c-0.29-0.35-0.72-0.51-1.14-0.62c-0.59-0.14-1.6-0.01-1.99,0.52
						C184.95,188.69,185.53,189.02,186.02,189.15L186.02,189.15z"/>
				</g>
			</g>
			<g>
				<g>
					<path class="st49" d="M186.27,194.08c1.05,0.3,0.08,2.07-0.24,2.64c-1.19,2.06-2.98,3.82-4.76,5.38
						c-6.26,5.53-14.08,9.15-22.13,11.22c-11.93,3.08-24.62,2.52-36.59-0.02c-8.84-1.88-17.78-5.04-25.08-10.5
						c-2.14-1.6-4.22-3.42-5.74-5.63c-0.72-1.04-1.7-2.6-1.27-3.93c0.02-0.06,0.16-0.35,0.09-0.21c0.14-0.25-0.01-0.03,0.1-0.12
						c0.44-0.36,0.24-0.48-0.22-0.4c-0.64,0.12-1.35,0.61-1.84,1.01c-1.18,0.98-0.9,2.43-0.3,3.68c1.06,2.21,2.94,4.04,4.77,5.61
						c6.85,5.84,15.71,9.28,24.35,11.41c12.38,3.03,25.71,3.84,38.2,0.98c9.39-2.15,18.49-6.26,26.03-12.29
						c2.27-1.82,4.5-3.85,6.2-6.23c0.55-0.76,2.11-2.77,1.37-3.82c-0.12-0.17-0.31-0.27-0.51-0.33c-0.49-0.14-1.33,0.44-1.72,0.68
						C186.87,193.3,185.9,193.97,186.27,194.08L186.27,194.08z"/>
				</g>
			</g>
			<g>
				<g>
					<path class="st50" d="M187.6,199.4c0.3,0.09-0.25-0.21-0.06-0.04c-0.06-0.05-0.3-0.38-0.25-0.27c0.04,0.09-0.14-0.35-0.03-0.03
						c0.02,0.05,0.1-0.25-0.03,0.08c-0.05,0.12-0.08,0.26-0.12,0.38c0.14-0.4-0.04,0.08-0.12,0.22c-0.19,0.36-0.41,0.71-0.63,1.04
						c-0.35,0.5-0.33,0.48-0.79,1.01c-0.41,0.47-0.83,0.94-1.26,1.39c-1.02,1.05-2.11,2.02-3.24,2.94
						c-6.64,5.4-14.73,9.07-22.97,11.21c-11.64,3.02-23.92,2.61-35.64,0.27c-8.92-1.78-17.89-4.87-25.42-10.09
						c-2.29-1.59-4.32-3.21-5.99-5.33c-0.3-0.37-0.57-0.76-0.83-1.17c-0.17-0.26,0.07,0.13-0.04-0.07
						c-0.04-0.08-0.08-0.15-0.13-0.24c-0.08-0.17-0.17-0.35-0.25-0.52c-0.06-0.15-0.11-0.3-0.16-0.46
						c-0.08-0.21-0.03-0.15,0.01,0.04c-0.01-0.08-0.04-0.17-0.04-0.24c0-0.13-0.02-0.25-0.02-0.37c0.01,0.52-0.04-0.05,0.04-0.07
						c-0.04,0.01-0.03,0.27,0.03-0.01c0.03-0.15-0.2,0.25-0.09,0.13c0.08-0.09,0.3-0.24-0.11,0.06c1.51-1.18-0.3-3.15-1.67-2.09
						c-3.82,2.97,2.42,8.47,4.58,10.27c7.01,5.82,15.92,9.34,24.65,11.58c12.5,3.23,25.93,4.12,38.61,1.52
						c9.41-1.93,18.66-5.82,26.32-11.68c2.45-1.88,4.82-3.94,6.68-6.41c0.87-1.16,2.34-3.22,1.25-4.66
						c-0.23-0.3-0.57-0.57-0.94-0.68c-0.71-0.23-1.6-0.09-1.99,0.62C186.58,198.32,186.91,199.18,187.6,199.4L187.6,199.4z"/>
				</g>
			</g>
			<g>
				<g>
					<path class="st51" d="M187.66,203.56c0.98,0.36-0.28,2.14-0.63,2.64c-1.51,2.1-3.53,3.85-5.55,5.43
						c-6.88,5.37-15.06,9.14-23.5,11.28c-11.71,2.97-24.12,2.35-35.86-0.14c-8.96-1.89-17.92-5.09-25.56-10.25
						c-2.28-1.54-4.55-3.28-6.31-5.42c-0.68-0.83-2.04-2.47-1.59-3.68c0.06-0.14,0.29-0.39,0.25-0.36c0.5-0.36-0.42-0.32-0.62-0.31
						c-0.6,0.04-1.46,0.18-1.97,0.54c-1.14,0.83-0.49,2.26,0.12,3.23c1.32,2.1,3.33,3.81,5.28,5.3c7.28,5.56,16.2,8.97,25.02,11.14
						c12.34,3.03,25.4,3.79,37.91,1.33c9.66-1.9,19.14-5.63,27.21-11.3c2.54-1.78,5.04-3.78,7.09-6.13c0.62-0.7,2.42-2.61,1.88-3.72
						c-0.08-0.17-0.24-0.3-0.42-0.36c-0.54-0.2-1.3,0.02-1.83,0.17C188.49,202.98,187.34,203.44,187.66,203.56L187.66,203.56z"/>
				</g>
			</g>
			<g>
				<g>
					<path class="st52" d="M189.61,209.05c0,0-0.46-0.37-0.59-0.56c-0.08-0.11-0.17-0.31-0.14-0.3c-0.06-0.03,0.07-0.19-0.03,0.08
						c-0.04,0.13-0.08,0.25-0.13,0.38c0.07-0.16-0.05,0.11-0.14,0.24c-0.09,0.15-0.19,0.3-0.29,0.46c-0.25,0.38-0.54,0.74-0.84,1.08
						c-1.76,2.05-3.92,3.77-6.11,5.34c-7.29,5.2-15.73,8.86-24.42,10.96c-11.63,2.8-23.71,2.45-35.39,0.15
						c-9.1-1.79-18.19-4.9-26.07-9.85c-2.36-1.48-4.59-3.13-6.32-4.95c-0.18-0.19-0.35-0.37-0.52-0.57
						c-0.07-0.08-0.14-0.17-0.21-0.25c-0.21-0.25,0.08,0.11-0.06-0.08c-0.25-0.33-0.47-0.66-0.67-1.01c0.11,0.19,0,0-0.08-0.2
						c-0.08-0.18-0.12-0.41-0.07-0.16c-0.03-0.11-0.04-0.24-0.04-0.35c0,0.13-0.07,0.08,0.03-0.11c-0.03,0.07,0.14-0.15,0.1-0.12
						c1.15-0.77-1.01-2.78-1.99-2.12c-1.43,0.96-0.5,2.88,0.24,3.97c1.47,2.2,3.62,3.98,5.73,5.53c7.47,5.52,16.44,9.07,25.39,11.35
						c12.25,3.13,25.34,4.17,37.82,1.82c9.77-1.84,19.34-5.6,27.57-11.22c2.56-1.75,5.09-3.69,7.17-6c0.97-1.07,2.6-2.86,1.66-4.4
						c-0.25-0.42-0.69-0.82-1.15-1.01c-0.49-0.2-1.31-0.41-1.51,0.28C188.36,208.05,189.11,208.84,189.61,209.05L189.61,209.05z"/>
				</g>
			</g>
			<g>
				<g>
					<path class="st53" d="M190.51,213.93c-0.36-0.18-0.72-0.51-0.89-0.84c-0.03-0.06-0.01-0.14-0.03-0.08
						c-0.15,0.32,0.03,0.12-0.18,0.51c-0.39,0.72-0.92,1.34-1.48,1.93c-1.92,2.05-4.24,3.76-6.56,5.31
						c-7.6,5.1-16.26,8.7-25.16,10.75c-11.58,2.66-23.61,2.3-35.21-0.05c-9.03-1.82-18.01-4.86-25.95-9.62
						c-2.53-1.51-4.7-2.97-6.76-4.98c-0.15-0.14-0.5-0.52-0.37-0.37c-0.16-0.17-0.31-0.35-0.46-0.52c-0.14-0.16-0.26-0.33-0.39-0.49
						c-0.05-0.07-0.1-0.14-0.15-0.22c-0.02-0.03,0.11,0.19-0.02-0.03c-0.08-0.14-0.15-0.28-0.23-0.42
						c-0.14-0.29,0.03,0.15-0.07-0.17c-0.03-0.08-0.07-0.39-0.05-0.24c0.02,0.17,0-0.12,0.03-0.19c-0.03,0.04-0.08,0.11,0.06-0.05
						c0.04-0.05-0.15,0.09,0.08-0.04c1.06-0.66-1.22-2.53-2.17-1.93c-1.43,0.88-0.2,2.82,0.48,3.75c1.59,2.15,3.86,3.85,6.03,5.37
						c7.62,5.32,16.6,8.82,25.56,11.11c12.23,3.13,25.24,4.2,37.71,1.95c9.93-1.79,19.65-5.5,28.14-10.96
						c2.7-1.74,5.35-3.68,7.61-5.97c0.9-0.92,2.7-2.62,1.98-4.09c-0.27-0.55-0.81-0.95-1.35-1.2c-0.45-0.21-1.31-0.34-1.44,0.31
						C189.16,213.09,190.04,213.7,190.51,213.93L190.51,213.93z"/>
				</g>
			</g>
			<g>
				<g>
					<path class="st54" d="M190.24,218.65c0.05,0.03-0.09-0.03-0.03-0.15c-0.03,0.07-0.02,0.19-0.05,0.27
						c-0.11,0.28,0.08-0.09-0.07,0.17c-0.45,0.8-0.8,1.15-1.4,1.75c-1.99,1.99-4.32,3.65-6.67,5.16c-7.8,5-16.58,8.55-25.62,10.54
						c-11.52,2.54-23.4,2.09-34.92-0.26c-9.14-1.86-18.2-4.98-26.31-9.65c-2.5-1.44-4.99-3.02-7.14-4.96
						c-0.66-0.59-1.3-1.23-1.82-1.96c-0.08-0.13-0.17-0.25-0.25-0.39c-0.15-0.25-0.06-0.04-0.13-0.25c-0.03-0.1-0.06-0.2-0.08-0.3
						c-0.07-0.27,0.05,0.03-0.01-0.09c-0.05-0.11-0.08,0.01,0-0.03c-0.02,0.01-0.32,0.26-0.19,0.19c0.49-0.28,0.8-0.86,0.28-1.26
						c-0.55-0.41-1.52-0.17-2.05,0.13c-3.76,2.1,4.73,7.6,6.03,8.47c7.81,5.16,16.86,8.6,25.92,10.86
						c12.17,3.02,24.98,4.06,37.39,1.92c10.18-1.75,20.16-5.43,29.01-10.76c2.89-1.74,5.75-3.67,8.23-5.96
						c0.9-0.83,3.1-2.64,2.75-4.11c-0.07-0.29-0.27-0.54-0.53-0.68c-0.62-0.34-1.47-0.24-2.05,0.13
						C190.11,217.64,189.61,218.31,190.24,218.65L190.24,218.65z"/>
				</g>
			</g>
			<g>
				<g>
					<path class="st55" d="M192.98,224.08c0.05,0.03-1.52-2-1.47-2.07c-0.02,0.02,0.03,0.08,0.02,0.11
						c-0.03,0.05-0.03,0.19-0.05,0.25c-0.1,0.25-0.24,0.48-0.39,0.7c-0.51,0.72-1.17,1.34-1.82,1.93c-2.26,2.04-4.83,3.73-7.43,5.29
						c-8.1,4.85-17.09,8.34-26.32,10.32c-11.54,2.49-23.39,2.15-34.94-0.1c-9.36-1.82-18.58-4.89-27.01-9.38
						c-2.71-1.44-5.39-3.02-7.8-4.95c-0.44-0.35-0.86-0.71-1.28-1.09c-0.16-0.15-0.25-0.24-0.38-0.37
						c-0.07-0.07-0.14-0.14-0.21-0.22c-0.1-0.1,0.11-0.01-0.08-0.08c0.08,0.03,0.16,0.19,0.33,0.46c0.06,0.1,0.08,0.26,0.09,0.14
						c0,0.02-0.08-0.25-0.02-0.39c0.06-0.15,0.17-0.25,0.32-0.33c0.14-0.07-1.34-2.62-1.74-2.42c-1.34,0.68,1.24,3.53,1.67,4.04
						c1.7,1.99,3.89,3.54,6.07,4.94c7.89,5.08,16.92,8.5,25.99,10.8c12.02,3.05,24.71,4.17,37,2.1c10.32-1.74,20.42-5.41,29.45-10.7
						c2.85-1.66,5.67-3.5,8.12-5.72c0.67-0.61,1.36-1.26,1.85-2.03c0.42-0.67,0.39-1.07-0.02-1.76c-0.38-0.64-0.88-1.45-1.53-1.86
						c-0.2-0.13,0.36,0.93,0.41,0.99C192.11,223.15,192.49,223.77,192.98,224.08L192.98,224.08z"/>
				</g>
			</g>
			<g>
				<g>
					<path class="st56" d="M191.93,228.84c-0.15-0.11-0.18-0.33-0.13-0.63c-0.03,0.14-0.22,0.44,0.02,0.03
						c-0.08,0.14-0.18,0.27-0.26,0.41c-0.24,0.39,0.12-0.1-0.14,0.18c-0.14,0.14-0.28,0.3-0.41,0.44c-0.38,0.38-0.78,0.74-1.18,1.08
						c-0.84,0.72-2,1.55-3.14,2.31c-1.41,0.95-2.87,1.83-4.35,2.68c-8.31,4.72-17.49,8.14-26.86,10.03
						c-11.42,2.3-23.06,1.84-34.46-0.44c-9.3-1.87-18.45-4.96-26.88-9.33c-2.89-1.5-5.75-3.16-8.29-5.2
						c-0.42-0.34-0.83-0.69-1.22-1.06c-0.07-0.07-0.14-0.14-0.21-0.21c-0.24-0.25,0.03,0.04-0.09-0.1
						c-0.12-0.14-0.24-0.28-0.34-0.42c-0.08-0.12-0.16-0.25-0.23-0.37c-0.1-0.18-0.02,0.25-0.01-0.08c-0.01,0.34-0.27,0.84-0.8,1.08
						c0.63-0.28,1.29-0.9,1.12-1.66c-0.16-0.7-1.05-0.9-1.64-0.64c-5.04,2.22,4.44,7.79,6.02,8.73c8.12,4.87,17.17,8.28,26.33,10.57
						c12,3.01,24.59,4.19,36.85,2.27c10.65-1.66,21.02-5.28,30.49-10.41c3.17-1.72,6.26-3.62,9.07-5.89c1.2-0.96,3.5-2.64,3.36-4.42
						c-0.03-0.39-0.19-0.75-0.52-0.99C192.83,225.94,190.61,227.9,191.93,228.84L191.93,228.84z"/>
				</g>
			</g>
			<g>
				<g>
					<path class="st57" d="M192.44,232.93C192.48,232.96,192.49,232.91,192.44,232.93c-0.02,0.02,0.08-0.12-0.03,0.08
						c-0.08,0.14,0.05-0.07-0.07,0.16c-0.08,0.14-0.18,0.27-0.27,0.4c-0.52,0.66-1.17,1.22-1.82,1.74c-2.46,1.97-5.2,3.6-7.97,5.1
						c-8.61,4.69-18.02,8.14-27.64,10.05c-11.28,2.25-22.74,1.88-33.99-0.39c-9.4-1.88-18.64-4.94-27.22-9.24
						c-2.96-1.48-5.92-3.11-8.55-5.14c-0.58-0.46-1.33-1.05-1.82-1.71c0.12,0.15-0.35-0.57-0.2-0.35c-0.1-0.14,0.14-0.19-0.03-0.07
						c0.1-0.07-0.22,0.1-0.17,0.08c0.57-0.21,0.6-0.63,0.12-0.98c-0.52-0.37-1.5-0.48-2.09-0.25c-1.62,0.62-0.25,2.09,0.52,2.81
						c1.98,1.84,4.38,3.27,6.72,4.59c8.36,4.71,17.53,8.09,26.82,10.39c11.87,2.94,24.32,4.17,36.46,2.45
						c10.76-1.53,21.28-5.01,30.96-9.89c3.3-1.66,6.57-3.51,9.56-5.71c0.92-0.68,1.85-1.4,2.64-2.23c0.38-0.4,0.95-0.97,0.98-1.56
						c0.02-0.26-0.09-0.53-0.3-0.71c-0.54-0.44-1.31-0.62-1.99-0.5C192.74,232.11,191.89,232.48,192.44,232.93L192.44,232.93z"/>
				</g>
			</g>
			<g>
				<g>
					<path class="st58" d="M193.27,238.34c-0.02-0.02,0,0.08-0.03,0.22c-0.03,0.13-0.16,0.29-0.35,0.52
						c-0.37,0.45-1.27,1.17-1.85,1.61c-2.58,1.92-5.42,3.5-8.29,4.96c-8.75,4.47-18.22,7.76-27.88,9.56
						c-11.3,2.11-22.75,1.57-34-0.69c-9.45-1.9-18.72-4.93-27.42-9.09c-3.09-1.48-6.17-3.08-8.99-5.04
						c-0.76-0.53-1.57-1.09-2.2-1.77c-0.17-0.19-0.28-0.41-0.43-0.61c-0.09-0.13-0.06-0.14-0.05-0.13c-0.13-0.1,0.44-0.01-0.05,0.07
						c-0.22,0.03-0.81,0.56-1.23,0.69c0.39-0.12,1.55-0.5,1.56-1.02c0.03-0.53-0.94-0.29-1.2-0.2c-0.65,0.2-2.05,0.71-1.82,1.63
						c0.14,0.53,0.74,1.01,1.13,1.34c1.98,1.76,4.38,3.08,6.7,4.34c8.49,4.6,17.75,7.91,27.12,10.2c11.88,2.9,24.22,4.04,36.35,2.26
						c10.92-1.61,21.59-5.12,31.52-9.91c3.46-1.67,6.89-3.51,10.05-5.71c0.99-0.68,1.98-1.4,2.85-2.24
						c0.44-0.42,1.17-1.06,1.26-1.71c0.04-0.27-0.02-0.42-0.21-0.6C195.28,236.49,192.7,237.8,193.27,238.34L193.27,238.34z"/>
				</g>
			</g>
			<g>
				<g>
					<path class="st1" d="M194.46,243.47c-0.33-0.36-0.38-0.78-0.4-1.03c-0.03-0.53,0.05,0.03-0.02-0.02c0,0-0.08,0.14-0.09,0.14
						c0.28-0.3,0.09-0.13,0.03-0.06c-0.12,0.13-0.24,0.26-0.36,0.39c-0.68,0.68-1.44,1.23-2.15,1.7c-2.75,1.88-5.72,3.45-8.71,4.9
						c-8.81,4.28-18.21,7.49-27.82,9.39c-5.36,1.06-10.82,1.69-16.29,1.65c-5.8-0.05-11.58-0.68-17.28-1.72
						c-9.83-1.79-19.49-4.83-28.62-8.91c-3.29-1.47-6.56-3.08-9.61-5.04c-0.48-0.3-0.95-0.63-1.42-0.96
						c-0.09-0.07-0.18-0.14-0.27-0.2c-0.35-0.26,0.1,0.09-0.09-0.07c-0.15-0.13-0.31-0.26-0.46-0.4c-0.1-0.09-0.19-0.2-0.3-0.3
						c0.02,0.02,0.17,0.31,0.01-0.03c0.26,0.53,0.13,1.28-0.46,1.42c1.74-0.44,0.57-3.08-0.95-2.7c-2.39,0.6-0.52,3.01,0.56,3.88
						c2.22,1.79,4.78,3.17,7.32,4.47c8.96,4.59,18.59,7.98,28.38,10.27c11.93,2.79,24.22,3.9,36.39,2.04
						c10.73-1.64,21.27-5.04,31.09-9.63c3.35-1.57,6.68-3.29,9.77-5.35c1.29-0.86,3.78-2.23,4.05-3.98
						c0.09-0.61-0.17-1.17-0.57-1.61C194.94,240.32,193.21,242.09,194.46,243.47L194.46,243.47z"/>
				</g>
			</g>
		</g>
		<g>
			<path class="st59" d="M38.65,175.01c-0.09,2.15-2.8,4.71-4.6,5.75c-2.59,1.5-6.77,8.05-7.3,10.29"/>
			<g>
				<path class="st60" d="M88.59,61.5c12.23-13.75,29.01-20.96,45.03-29.23c6.56-3.39,6.26-21.99,4.66-21.55
					c-32.81,9.07-15.67,15.17-24.14,21.37c-6.85,5.01-27.93,17.84-42.06,33.73c-1.79,2.01-5.94,12.5-4.56,12.5
					C70.09,78.35,86.85,63.46,88.59,61.5L88.59,61.5z"/>
			</g>
			<g>
				<path class="st1" d="M113.04,11.55c-10.32,6.13-7.98,5.13-16.09,13.96C87.94,35.3,81.27,46.58,73.1,56.97
					c-11.56,14.69-24.45,28.07-30.58,46.11c-10.84,31.9-17.43,67-11.52,100.32c0.46,2.57,7.65,2.88,7.16,0.14
					c-1.55-8.73-0.36-19.48-0.54-28.22c0.77-9.53,0.12-13.91,0.74-20.84c1.49-4.71,0.08-8.99,1.46-12.21
					c1.37-3.22,0.73-4.61,1.14-6.91c0.34-1.87,1.2-2.16,1.64-5.05c0.43-2.89,0.07-3.47,0.4-4.93c0.9-4,3.89-8.14,4.98-12.1
					c2.69-9.67,9.86-18.9,15.11-27.49c4.83-7.9,5.42-14.79,11.24-21.95c6.89-8.47,16.11-14.15,22.78-22.79
					c8.18-10.59,13.05-6.13,24.04-13.86C134.65,17.7,120.78,6.96,113.04,11.55z"/>
			</g>
			<g>
				<g>
					<path class="st28" d="M34.62,127.59c-2.31,13.06-4.67,26.14-6.33,39.31c-1.17,9.26-2.01,18.65-1.31,27.98
						c0.52,6.93,2.1,13.76,5.33,19.95c3.49,6.68,8.41,12.33,13.97,17.36c7.49,6.78,15.82,12.62,24.14,18.31
						c1.25,0.85,2.5,1.7,3.75,2.54c0.76,0.52,2.19,0.5,3.03,0.41c1.13-0.13,2.5-0.53,3.45-1.19c1.43-1,2.53-2.62,0.73-3.83
						c-4.69-3.15-9.34-6.35-13.91-9.68c-0.99-0.72-1.97-1.44-2.95-2.18c-0.19-0.14-0.81-0.62-0.27-0.2
						c-0.24-0.18-0.46-0.35-0.7-0.53c-0.48-0.37-0.97-0.75-1.45-1.12c-1.74-1.37-3.46-2.76-5.15-4.21
						c-5.64-4.84-10.93-10.24-14.73-16.67c-0.19-0.33-0.37-0.66-0.57-0.99c0.43,0.73,0.08,0.14-0.03-0.05
						c-0.12-0.22-0.24-0.45-0.35-0.67c-0.36-0.72-0.72-1.44-1.04-2.17c-0.68-1.52-1.27-3.08-1.77-4.66
						c-1.06-3.32-1.73-6.75-2.12-10.21c-0.21-1.88-0.35-3.78-0.41-5.67c-0.01-0.25-0.02-0.49-0.03-0.73
						c-0.01-0.26-0.02-0.83-0.01-0.22c-0.01-0.57-0.02-1.12-0.02-1.69c0-1.04,0.02-2.07,0.04-3.11c0.14-4.75,0.54-9.48,1.07-14.19
						c1.41-12.54,3.61-24.98,5.79-37.41c0.32-1.84,0.65-3.68,0.97-5.53C44.43,122.8,35.22,124.26,34.62,127.59L34.62,127.59z"/>
				</g>
			</g>
			<g>
				<g>
					<path class="st61" d="M96.46,38.73c3.24-4.33,6.15-8.89,9.31-13.27c0.41-0.58,0.85-1.15,1.33-1.69
						c0.09-0.11,0.19-0.22,0.29-0.32c0.18-0.19,0.24-0.25,0.14-0.14c0.25-0.25,0.51-0.48,0.77-0.71c0.56-0.48,1.16-0.93,1.77-1.35
						c-0.33,0.23,0.07-0.04,0.2-0.13c0.19-0.13,0.38-0.25,0.57-0.37c0.46-0.29,0.91-0.57,1.37-0.84c3.02-1.81,6.11-3.5,9.17-5.22
						c0.59-0.33,1.24-1.07,0.41-1.52c-0.83-0.45-2.25,0.02-2.99,0.43c-2.85,1.61-5.71,3.18-8.52,4.83
						c-1.68,0.99-3.37,2.01-4.88,3.24c-2.61,2.1-4.34,4.99-6.18,7.74c-2.13,3.17-4.35,6.29-6.64,9.34
						c-0.59,0.79,0.51,1.11,1.12,1.12C94.58,39.86,95.87,39.52,96.46,38.73L96.46,38.73z"/>
				</g>
			</g>
			<g>
				<g>
					<path class="st45" d="M115.68,24.48c1.26-0.87,2.53-1.73,3.73-2.66c0.7-0.54,1.95-1.38,1.66-2.42
						c-0.46-1.67-2.83-0.94-3.9-0.45c-0.88,0.4-1.73,0.87-2.58,1.33c-5.73,3.13-11.34,6.49-16.95,9.83
						c-1.71,1.01-3.42,2.03-5.12,3.06c-0.72,0.44-1.05,1.47-0.4,2.09c0.68,0.64,2.01,0.63,2.79,0.17
						c7.1-4.17,14.24-8.36,21.04-12.99c3.8-2.59,7.45-5.38,10.83-8.5c0.66-0.61,1.17-1.58,0.24-2.23c-0.82-0.57-2.38-0.41-3.12,0.26
						c-9.02,8.32-19.92,14.29-30.38,20.59c-0.14,0.09-0.3,0.18-0.44,0.27c-0.46,0.28,0.4-0.14,0.14-0.08
						c-0.08,0.02-0.16,0.09-0.23,0.14c0.8,0.75,1.6,1.5,2.4,2.26c-1.06,0.64,0.25-0.15,0.52-0.31c0.85-0.51,1.71-1.02,2.56-1.53
						c2.59-1.55,5.2-3.08,7.81-4.61c2.75-1.61,5.51-3.22,8.29-4.78c1.05-0.59,2.1-1.17,3.16-1.73c0.36-0.19,0.74-0.38,1.11-0.57
						c0.33-0.16,1.22-0.41,0.2-0.13c0.03-0.01,0.08-0.03,0.11-0.03c-0.39,0.09-0.83,0.14-1.28,0.03c-1.28-0.34-1.31-1.41-0.85-1.99
						c-0.29,0.38,0.46-0.35,0.09-0.08c-0.15,0.11-0.29,0.24-0.44,0.35c-1.24,0.98-2.56,1.87-3.87,2.76
						c-0.76,0.52-1.09,1.63-0.24,2.23C113.48,25.39,114.84,25.06,115.68,24.48L115.68,24.48z"/>
				</g>
			</g>
			<g>
				<path class="st14" d="M89.08,54.16c12.91-21.77,5.69-19.58,28.8-28.45c5.8-2.22,12.23-3.66,17.74-6.51
					c1.34-0.69,2.15-1.48,3.19-2.59c3.19-3.44-19.63,3.85-23.52,5.34c-10.57,4.03-27.33,18.5-35.12,31.64
					c-0.46,0.78-6.82,10.86-6.41,11.25c0,0,11.85-5.04,12.91-6.82L89.08,54.16z"/>
			</g>
			<path class="st62" d="M87.44,63.09c-5.26,3-11.4,2.21-16.45,3.1c-5.05,0.9-8.03,2.75-9.45,4.57"/>
			<path class="st62" d="M78.31,71.19c0,0-4.52,4.48-13.59,5.42c-9.07,0.94-10.13,3.51-10.13,3.51"/>
			<path class="st62" d="M65.78,82.67c0,0-6.06,4-11.48,5.99c-5.42,1.99-7.45,4.01-9.18,6.4"/>
			<path class="st62" d="M58.12,94.35c0,0-3.07,2.37-7.96,4.46s-8.86,8.58-10.02,10.56"/>
			<path class="st62" d="M51.4,106.02c0,0-3.73,6.44-5.48,7.24c-1.48,0.68-6.26,4.56-8.98,7.94"/>
			<path class="st62" d="M44.4,128.95c0,0-3.61,4.17-5.36,4.98c-2.53,1.17-6.43,6.12-7.24,8.26"/>
			<path class="st62" d="M41.81,139.9c-0.33,2.13-4.58,9.4-6.32,10.27c-2.53,1.27-5.6,4.3-6.34,6.48"/>
			<path class="st62" d="M40.5,158.08c-0.33,2.13-4.71,7-6.45,7.87c-2.53,1.27-6.35,5.36-7.08,7.54"/>
			<path class="st63" d="M38.93,205.89c0.44,2.25,1.01,6.68,0.02,8.85c-1,2.17-1.18,6.58-1.12,9.03"/>
			<path class="st62" d="M47.93,220.44c1,2,0.9,6.06-0.05,7.84c-1.39,2.59-2.29,3.21-1.61,5.5"/>
			<path class="st62" d="M55.37,228.96c1.39,1.75,2.15,5.73,1.59,7.68c-0.81,2.82-1.56,3.62-0.41,5.72"/>
			<path class="st62" d="M102.07,50.04c-4.98,3.13-18.43,2.3-20.88,2.74c-3.53,0.64-6.63,1.23-8.39,3.66"/>
			<g>
				<path class="st61" d="M86.71,48.52c17.55-14.16,36.93-17.29,40.7-20.6"/>
				<g>
					<path class="st1" d="M90.77,49.12c1.71-1.37,3.47-2.66,5.27-3.9c0.14-0.1,0.7-0.47-0.02,0c0.2-0.14,0.41-0.27,0.63-0.41
						c0.41-0.27,0.83-0.53,1.24-0.79c0.87-0.54,1.75-1.07,2.63-1.58c1.65-0.95,3.32-1.86,5.03-2.71c0.4-0.2,0.79-0.4,1.19-0.59
						c0.14-0.07,0.42-0.25,0.59-0.29c-0.82,0.15-0.7,0.33-0.29,0.14c0.86-0.4,1.72-0.79,2.59-1.17c5.05-2.21,10.28-3.94,15.41-5.94
						c2.21-0.86,4.59-1.8,6.4-3.35c0.51-0.43,1.29-1.2,1.08-1.99c-0.2-0.76-1.28-1.1-1.93-1.18c-2.34-0.31-5.44,0.38-7.27,1.95
						c-0.09,0.08-0.2,0.14-0.29,0.23c-0.52,0.51,1.01-0.61,0.52-0.34c-0.32,0.18-0.64,0.35-0.96,0.53c-0.6,0.32,1.4-0.64,0.53-0.25
						c-0.19,0.08-0.37,0.17-0.56,0.25c-0.44,0.19-0.88,0.36-1.33,0.54c-2.26,0.89-4.55,1.67-6.83,2.52
						c-6.64,2.45-13.18,5.26-19.35,8.74c-4.34,2.46-8.52,5.26-12.42,8.39c-0.52,0.41-1.28,1.22-1.08,1.99
						c0.2,0.76,1.28,1.1,1.93,1.18C85.91,51.4,88.86,50.66,90.77,49.12L90.77,49.12z"/>
				</g>
			</g>
			<path class="st64" d="M135.94,30.86c-8.72,4.99-36.97,7.66-39.23,7.79c-3.28,0.18-12.35,2.57-13.77,4.39"/>
			<path class="st65" d="M48.59,112.72l-1.63,4.46c2.85,0.44,3.29,1.17,3.29,2.26c0,1.5-3.79,2.72-8.47,2.72s-8.47-1.22-8.47-2.72
				c0-1.12,1.41-2.16,4.43-2.58l1.38-4.96c-7.7,0.43-12.94,3.87-12.94,7.64c0,4.06,6.94,7.36,15.51,7.36s15.51-3.29,15.51-7.36
				C57.18,116.32,54.69,113.71,48.59,112.72z"/>
			<g>
				<path class="st66" d="M40.85,129.49c-8.15,0.41-14.23-4.56-14.38-5.75l-0.23-4.5c0,2.69,5.94,7.15,14.63,7.15
					c7.11,0,13.1-2.06,14.97-4.31c0.41-0.5,0.89-1.5,0.89-1.5l-0.58,3.78C55.55,125.98,49,129.09,40.85,129.49z"/>
			</g>
		</g>
		<path class="st67" d="M72.69,252.63c0,0-2.48-1.16-1.74-5.39c0.68-3.05,3.7-4.97,6.77-4.29c3.06,0.68,4.99,3.7,4.32,6.75
			c-0.13,0.56-0.33,0.79-0.6,1.26l2.88,2.25c0.68-0.96,0.92-1.51,1.19-2.74c1.1-4.96-2.04-10.7-7.03-11.8
			c-4.98-1.1-10.86,2.86-11.95,7.81c-0.9,4.05,0.64,9.52,5.77,11.59L72.69,252.63z"/>
		<g>
			<g>
				<path class="st28" d="M72.79,250.55c6.56,5.27,13.41,10.37,20.67,14.65c8.56,5.04,18.65,6.82,28.4,7.92
					c15.17,1.71,30.69,0.91,45.55-2.59c6.53-1.54,12.97-3.74,18.79-7.11c3.42-1.98,6.67-4.49,9.05-7.67
					c1.44-1.93,2.66-4.11,3.08-6.51c0.15-0.91,0.52-2.73-0.37-3.44c-1.16-0.91-3.65-0.05-4.75,0.31c-0.58,0.19-3.06,1.24-2.1,2.16
					c0.95,0.91,3.65,0,4.62-0.33c-0.58,0.1-1.17,0.2-1.75,0.3c-0.68,0.31-1.37,0.4-2.05,0.26c-0.3-0.06-0.44-0.03-0.7-0.22
					c0.02,0.01,0.03,0.03,0.04,0.03c-0.14-0.09-0.11-0.35-0.11-0.12c0,0.14,0.1,0.35,0.13,0.5c0.04,0.25,0.05,0.52,0.05,0.78
					c0,0.15-0.02,0.3-0.02,0.45c-0.01,0.4,0.05-0.18-0.03,0.25c-0.36,2.09-1.22,4.01-2.41,5.76c-0.08,0.13-0.17,0.25-0.25,0.36
					c-0.12,0.17,0.05-0.07,0.06-0.08c-0.06,0.08-0.13,0.17-0.19,0.25c-0.24,0.3-0.46,0.59-0.71,0.87c-0.53,0.63-1.11,1.22-1.71,1.77
					c-0.3,0.29-0.61,0.57-0.93,0.83c-0.18,0.15-0.35,0.3-0.54,0.45c0.37-0.3-0.11,0.08-0.24,0.18c-0.83,0.63-1.69,1.23-2.58,1.77
					c-0.24,0.15-0.48,0.3-0.72,0.44c-0.19,0.11-0.64,0.36-0.19,0.11c-0.53,0.3-1.06,0.58-1.61,0.85c-0.57,0.29-1.15,0.57-1.74,0.84
					c-0.26,0.12-0.52,0.24-0.79,0.35c0.66-0.29-0.35,0.14-0.55,0.22c-1.39,0.56-2.8,1.06-4.22,1.52c0.62-0.19-0.17,0.05-0.38,0.11
					c-0.4,0.12-0.79,0.24-1.2,0.35c-0.84,0.24-1.67,0.46-2.51,0.67c-1.9,0.47-2.93,0.69-4.97,1.08c-1.77,0.34-3.56,0.63-5.34,0.88
					c-3.2,0.45-6.73,0.77-10.22,0.95c-6.53,0.33-13.07,0.14-19.63-0.53c-5.28-0.54-10.48-1.39-15.65-2.71
					c-1.99-0.51-3.96-1.09-5.89-1.79c-1.8-0.66-2.7-1.08-4.44-2.04c-7.73-4.28-14.9-9.72-21.82-15.2c-0.16-0.13-0.31-0.25-0.47-0.37
					c-1.08-0.87-3.51-0.11-4.62,0.33C74.39,248.58,71.74,249.7,72.79,250.55L72.79,250.55z"/>
			</g>
		</g>
		<path class="st62" d="M37.93,175.29c-0.09,2.15-2.8,4.71-4.6,5.75c-2.59,1.5-6.77,8.05-7.3,10.29"/>
		<path class="st62" d="M37.45,190c0.17,3.08-2.91,8.49-4.84,10.24c-2.8,2.53-2.8,5.13-3.13,8.41"/>
	</g>
	<path class="st68" d="M82.41,250.78"/>
</g>
</svg>
