<?xml version="1.0" encoding="utf-8"?>
<!-- Generator: Adobe Illustrator 25.2.3, SVG Export Plug-In . SVG Version: 6.00 Build 0)  -->
<svg version="1.1" id="Layer_1" xmlns="http://www.w3.org/2000/svg" xmlns:xlink="http://www.w3.org/1999/xlink" x="0px" y="0px"
	 viewBox="0 0 140 200" style="enable-background:new 0 0 140 200;" xml:space="preserve">
<style type="text/css">
	.st0{fill:#E4DAD8;stroke:#FFFFFF;stroke-width:0.49;stroke-miterlimit:10;}
	.st1{fill:#EF7C4F;}
	.st2{fill:#EE784C;}
	.st3{fill:#EC734A;}
	.st4{fill:#EA6F47;}
	.st5{fill:#E86A45;}
	.st6{fill:#E66642;}
	.st7{fill:#E56240;}
	.st8{fill:#E35D3D;}
	.st9{fill:#E1593B;}
	.st10{fill:#DF5438;}
	.st11{fill:#DD5036;}
	.st12{fill:#DC4B33;}
	.st13{fill:#DA4731;}
	.st14{fill:#D8422E;}
	.st15{fill:#DD335A;}
	.st16{fill:#DE3859;}
	.st17{fill:#E03E58;}
	.st18{fill:#E14457;}
	.st19{fill:#E34957;}
	.st20{fill:#E44F56;}
	.st21{fill:#E55555;}
	.st22{fill:#E75A54;}
	.st23{fill:#E86053;}
	.st24{fill:#EA6652;}
	.st25{fill:#EB6B51;}
	.st26{fill:#EC7150;}
	.st27{fill:#EE7750;}
	.st28{fill:#CEBDBA;stroke:#FFFFFF;stroke-width:0.49;stroke-linejoin:bevel;stroke-miterlimit:10;}
	.st29{fill:none;stroke:#FFFFFF;stroke-width:0.49;stroke-miterlimit:10;}
	.st30{fill:#CEBDBA;stroke:#FFFFFF;stroke-width:0.49;stroke-miterlimit:10;}
	.st31{fill:#DF3D58;}
	.st32{fill:#E14258;}
	.st33{fill:#E24857;}
	.st34{fill:#E34D56;}
	.st35{fill:#E55255;}
	.st36{fill:#E65754;}
	.st37{fill:#E75D54;}
	.st38{fill:#E96253;}
	.st39{fill:#EA6752;}
	.st40{fill:#EB6C51;}
	.st41{fill:#ED7250;}
	.st42{fill:#EE774F;}
	.st43{fill:none;stroke:#FFFFFF;stroke-width:0.4086;stroke-miterlimit:10;}
	.st44{fill:none;stroke:#FFFFFF;stroke-width:0.2879;stroke-miterlimit:10;}
	.st45{fill:none;stroke:#FFFFFF;stroke-width:0.2911;stroke-miterlimit:10;}
	.st46{fill:#543C52;stroke:#FFFFFF;stroke-width:0.245;stroke-miterlimit:10;}
	.st47{fill:#543C52;stroke:#FFFFFF;stroke-width:0.49;stroke-miterlimit:10;}
	.st48{fill:#E4DAD8;stroke:#FFFFFF;stroke-width:0.4688;stroke-miterlimit:10;}
</style>
<g>
	<g>
		<path class="st0" d="M74,116l28.5,0.2c0,0-2.2,19.1-3.4,29.1c-0.2,5.3-1.1,10.9-3.3,15.8c-4,8.9-10.5,15.9-10.5,15.9l0.6,14.2
			c0,0-1.5,5.6-11.5,5.8h-0.3c-10.1-0.2-11.5-5.8-11.5-5.8l0.6-14.2c0,0-6.5-7-10.5-15.9c-2.3-5-3-10.6-3.3-15.8
			c-1.3-10-3.4-29.1-3.4-29.1l28.5-0.2C74.5,116,74,116,74,116z"/>
		<path class="st0" d="M63.3,176.8c0,0,3.6,4.6,11.3,4.6s10.9-4.5,10.9-4.5"/>
		<g>
			<g>
				<g>
					<path class="st1" d="M101.7,118.3c2,2.5-13.3,7-14.6,7.3c-9.5,2.4-19.2,2.5-28.6,0c-2.2-0.6-4.3-1.3-6.4-2.2
						c-0.8-0.3-1.6-0.7-2.3-1.1c-0.4-0.2-2.6-1.6-1.9-1.9c0.9-0.3,0.1-0.6-0.5-0.4c-2.2,0.8-0.3,2,1,2.6c1.6,0.9,3.3,1.7,5.1,2.3
						c5.4,1.9,11.1,2.9,16.8,3.1c5.1,0.2,10.3-0.5,15.3-1.6c4.4-1,8.7-2.3,12.8-4.2c1-0.5,6.1-2.6,4.6-4.5
						C102.7,117.5,101.4,117.9,101.7,118.3L101.7,118.3z"/>
				</g>
			</g>
			<g>
				<g>
					<path class="st2" d="M101.3,121.4c1.6,2.5-13.3,6.7-14.6,7c-9.3,2.3-18.7,2.5-28,0c-2.2-0.6-4.3-1.3-6.4-2.2
						c-0.8-0.3-1.6-0.7-2.4-1.1c-0.4-0.2-2.5-1.6-2-1.8c0.9-0.3,0.1-0.8-0.5-0.6c-2.2,0.8-0.2,2.1,1,2.7c1.6,0.9,3.2,1.7,4.9,2.3
						c5.2,1.9,10.6,2.9,16.1,3.2c5.1,0.3,10.2-0.3,15.2-1.4c4.4-1,8.8-2.3,12.9-4.1c1.1-0.5,6.1-2.5,4.8-4.5
						C102.3,120.4,101,120.9,101.3,121.4L101.3,121.4z"/>
				</g>
			</g>
			<g>
				<g>
					<path class="st3" d="M100.9,124.2c0.7,1.5-3.2,3-4,3.3c-3.4,1.6-7.1,2.6-10.7,3.5c-9.1,2.2-18.4,2.3-27.4-0.2
						c-2.2-0.6-4.2-1.3-6.3-2.2c-0.8-0.3-1.5-0.7-2.2-1.1c-0.4-0.2-2.5-1.6-2.1-1.8c0.9-0.4,0.1-0.8-0.5-0.5c-2,0.8-0.1,2.1,1,2.6
						c1.6,0.9,3.1,1.7,4.8,2.3c5,1.9,10.4,2.9,15.7,3.2c5,0.3,10-0.2,14.9-1.3c4.3-0.9,8.7-2.2,12.7-3.9c1.1-0.5,6.3-2.5,5.3-4.5
						C102,123.4,100.8,123.8,100.9,124.2L100.9,124.2z"/>
				</g>
			</g>
			<g>
				<g>
					<path class="st4" d="M100.6,127.2c0.5,1.3-3.4,2.8-4.2,3.1c-3.4,1.5-7,2.5-10.6,3.4c-8.9,2.1-18,2.2-27-0.4
						c-2.1-0.6-4.1-1.3-6-2.2c-0.8-0.3-1.5-0.7-2.3-1.1c-0.3-0.2-2.2-1.5-2-1.6c0.8-0.4,0.1-1.1-0.6-0.8c-1.9,0.9,0,2.3,1,2.8
						c1.5,0.9,3,1.6,4.6,2.3c4.9,2,10.2,3,15.4,3.4c9.2,0.7,18.9-1.3,27.4-4.9c1.3-0.6,6.2-2.4,5.4-4.5
						C101.6,126.2,100.4,126.6,100.6,127.2L100.6,127.2z"/>
				</g>
			</g>
			<g>
				<g>
					<path class="st5" d="M100.2,130.2c0.3,1.6-3.6,2.9-4.5,3.3c-3.4,1.5-7.1,2.5-10.6,3.2c-8.9,2-18,1.8-26.8-0.9
						c-1.9-0.6-3.6-1.3-5.4-2.1c-0.5-0.2-4.6-2.5-3.8-2.8c0.8-0.4-0.4-0.5-0.8-0.3c-1.8,0.9,0.6,2.2,1.4,2.6
						c1.4,0.9,2.9,1.5,4.5,2.1c4.8,1.9,9.9,2.9,15,3.3c9,0.7,18.5-1.2,26.9-4.7c1.5-0.6,3-1.3,4.3-2.3c0.6-0.4,1.5-1.2,1.3-2
						C101.4,129.4,100.1,129.8,100.2,130.2L100.2,130.2z"/>
				</g>
			</g>
			<g>
				<g>
					<path class="st6" d="M99.8,133.1c0,0.6-0.9,1.1-1.3,1.4c-1.1,0.7-2.3,1.3-3.4,1.8c-3.3,1.4-6.9,2.4-10.4,3.1
						c-8.6,1.9-17.2,1.8-25.7-0.8c-2-0.6-3.8-1.3-5.7-2.1c-0.7-0.3-1.5-0.7-2.2-1.1c-0.3-0.2-2.2-1.6-2.2-1.6
						c0.8-0.4,0.1-1.2-0.6-0.8c-2.8,1.6,4.5,4.6,5.7,5c4.7,1.9,9.7,3,14.8,3.4c8.8,0.8,18.1-1.1,26.3-4.3c1.6-0.6,3.1-1.3,4.5-2.3
						c0.7-0.5,1.6-1.2,1.5-2.2C101,132.1,99.8,132.5,99.8,133.1L99.8,133.1z"/>
				</g>
			</g>
			<g>
				<g>
					<path class="st7" d="M99.4,136c0,0.6-0.9,1.1-1.4,1.4c-1.1,0.7-2.3,1.2-3.3,1.7c-3.3,1.4-6.9,2.4-10.3,3
						c-8.4,1.8-17,1.7-25.3-0.9c-1.9-0.6-3.7-1.3-5.6-2.1c-0.4-0.2-4.3-2.5-4-2.6c0.8-0.5-0.3-1-0.9-0.7c-2.4,1.5,4.9,4.6,5.9,5
						c4.5,1.9,9.4,2.9,14.2,3.4c8.7,0.9,17.7-0.9,25.9-4c1.6-0.6,3.1-1.3,4.5-2.2c0.7-0.5,1.7-1.2,1.8-2.1
						C100.8,135.2,99.5,135.4,99.4,136L99.4,136z"/>
				</g>
			</g>
			<g>
				<g>
					<path class="st8" d="M99,139c-0.1,0.7-1.1,1.2-1.6,1.5c-1.1,0.7-2.3,1.2-3.4,1.6c-3.3,1.3-6.9,2.3-10.3,2.9
						c-8.3,1.7-16.8,1.4-24.9-1.3c-1.9-0.6-3.6-1.3-5.3-2.2c-0.4-0.2-4-2.4-3.8-2.5c0.7-0.5-0.4-1-0.9-0.6c-2.2,1.6,4.7,4.4,5.8,4.9
						c4.4,1.9,9.1,2.9,13.8,3.4c8.5,0.9,17.4-0.7,25.5-3.7c1.6-0.6,3.2-1.3,4.7-2.2c0.8-0.5,1.7-1.1,1.9-2.1
						C100.5,138.2,99.2,138.4,99,139L99,139z"/>
				</g>
			</g>
			<g>
				<g>
					<path class="st9" d="M98.7,141.9c-0.2,0.7-1.1,1.2-1.7,1.6c-1.2,0.7-2.4,1.2-3.6,1.7c-3.3,1.3-6.9,2.2-10.5,2.8
						c-8.2,1.6-16.5,1-24.4-1.7c-1.8-0.6-3.4-1.3-5.1-2.2c-0.6-0.3-4.1-2.3-3.4-2.8c0.3-0.3-1-0.1-1.2,0.1c-1.5,1.3,5.6,4.3,6.5,4.6
						c4.3,1.8,8.8,2.7,13.4,3.2c8.2,0.9,16.9-0.8,24.6-3.6c1.6-0.6,3.1-1.2,4.5-2.1c0.8-0.4,1.8-1,2.1-2
						C100.1,141.5,98.8,141.7,98.7,141.9L98.7,141.9z"/>
				</g>
			</g>
			<g>
				<g>
					<path class="st10" d="M98.3,144.8c-0.3,0.7-1.2,1.1-1.8,1.4c-1.2,0.6-2.4,1.2-3.6,1.6c-3.3,1.2-6.7,2.1-10.1,2.7
						c-7.9,1.5-16,1.1-23.7-1.6c-1.8-0.6-3.4-1.3-5-2.1c-0.4-0.2-4.1-2.4-3.8-2.6c0.6-0.6-0.7-0.9-1.1-0.4c-1.6,1.6,4.9,4.4,5.9,4.8
						c4.1,1.8,8.5,2.8,12.9,3.4c8.2,1.1,16.9-0.4,24.7-3.1c1.6-0.6,3.2-1.2,4.7-2c0.9-0.5,1.9-1.1,2.3-2
						C99.9,144.2,98.6,144.2,98.3,144.8L98.3,144.8z"/>
				</g>
			</g>
			<g>
				<g>
					<path class="st11" d="M97.9,147.7c-0.4,0.7-1.4,1.1-2,1.5c-1.2,0.6-2.5,1.1-3.7,1.6c-3.2,1.1-6.6,2-9.9,2.5
						c-7.7,1.4-15.7,0.9-23.1-1.8c-1.7-0.6-3.3-1.3-5-2.1c-0.5-0.2-4-2.3-3.7-2.6c0.5-0.7-0.8-0.9-1.1-0.4c-1.3,1.8,4.8,4.3,6,4.8
						c4,1.8,8.3,2.8,12.6,3.4c8.1,1.1,16.5-0.3,24.1-2.8c1.6-0.5,3.1-1.1,4.6-1.9c0.9-0.5,2-1.1,2.5-2
						C99.6,147.2,98.2,147.2,97.9,147.7L97.9,147.7z"/>
				</g>
			</g>
			<g>
				<g>
					<path class="st12" d="M97.6,150.7c-1.2,1.7-4,2.4-5.8,2.9c-3.3,1.1-6.7,2-10.1,2.5c-7.5,1.3-15.2,0.6-22.4-2
						c-1.7-0.6-3.3-1.3-4.8-2.1c-0.6-0.3-4-2.1-3.6-2.7c0.3-0.7-1-0.6-1.3-0.1c-0.9,1.8,5,4.1,6.1,4.7c3.8,1.7,7.9,2.7,12.1,3.4
						c7.9,1.2,16-0.1,23.5-2.5c1.7-0.5,3.3-1.1,4.9-1.9c1-0.5,2.1-1,2.6-1.9C99.2,150.3,98,150.2,97.6,150.7L97.6,150.7z"/>
				</g>
			</g>
			<g>
				<g>
					<path class="st13" d="M97.2,153.6c-1.5,1.6-4.1,2.4-6.1,2.9c-3.2,1.1-6.6,1.8-9.9,2.4c-7.4,1.2-15,0.4-22.1-2.2
						c-1.7-0.6-3.2-1.3-4.8-2.2c-0.7-0.4-3.7-1.9-3.4-2.7c0.2-0.5-1.2-0.4-1.4,0.1c-0.3,1.1,1.9,2.2,2.5,2.6c1.3,0.8,2.5,1.4,3.8,2
						c3.7,1.7,7.6,2.6,11.7,3.2c7.6,1.2,15.5,0,22.8-2.3c2.5-0.8,5.9-1.6,7.7-3.6C98.9,153.3,97.6,153.2,97.2,153.6L97.2,153.6z"/>
				</g>
			</g>
			<g>
				<g>
					<path class="st14" d="M96.8,156.6c-0.8,0.8-1.9,1.2-2.8,1.7c-1.5,0.7-3.1,1.2-4.7,1.6c-3.5,1-7.3,1.8-10.9,2.2
						c-7.6,0.8-15.9-0.7-22.7-4.2c-1.2-0.6-2.3-1.2-3.3-2c-0.3-0.2-1.3-0.9-1.2-1.3c0.2-0.6-1.2-0.4-1.4,0.1
						c-0.3,1.3,2.7,2.7,3.5,3.1c3.2,1.9,6.8,3.1,10.4,3.9c4.3,1.1,8.7,1.6,13.1,1.2c4-0.3,8-1.1,11.9-2.2c2.9-0.8,6.9-1.7,9.1-3.9
						C98.6,156.4,97.2,156.2,96.8,156.6L96.8,156.6z"/>
				</g>
			</g>
		</g>
		<g>
			<g>
				<g>
					<path class="st15" d="M102.5,120.5c0.9,1.2-3.1,3.3-3.8,3.7c-3.4,2-7.3,3.3-11.1,4.4c-4.4,1.3-9,2.1-13.6,2.1
						c-5.3,0-10.6-1.3-15.6-3.1c-2.3-0.8-4.4-1.7-6.5-2.7c-0.8-0.4-1.6-0.8-2.3-1.2c-0.3-0.2-0.6-0.3-0.8-0.5
						c-0.3-0.2-0.6-0.4-0.8-0.6c-0.4-0.3-0.5-0.2-0.1-0.3c0.9-0.3,0.1-1.3-0.7-1.1c-2.4,0.8-0.2,2.4,1,3c1.7,1,3.3,1.9,5.1,2.6
						c5.2,2.4,10.7,4,16.4,4.7c5.5,0.7,11,0,16.3-1.3c4.5-1.1,9.1-2.6,13.2-4.9c1.3-0.7,6.3-3.2,4.6-5.4
						C103.4,119.3,102,119.8,102.5,120.5L102.5,120.5z"/>
				</g>
			</g>
			<g>
				<g>
					<path class="st16" d="M102.6,123.1C102.4,122.8,102.6,123,102.6,123.1c-0.2,0.2-0.2,0.4-0.3,0.5c-0.2,0.4-0.6,0.8-1,1.1
						c-1,0.9-2.3,1.6-3.4,2.3c-3.5,1.9-7.3,3.2-11.1,4.2c-4.5,1.2-9.2,2-13.9,1.9c-5.1-0.2-10.2-1.4-15-3.1
						c-2.3-0.8-4.4-1.8-6.6-2.8c-0.7-0.4-1.5-0.8-2.2-1.2c-0.3-0.2-0.7-0.4-1-0.6c-0.1,0-0.1-0.1-0.2-0.1c-0.4-0.5-0.6-0.5-0.4-0.2
						c-0.2,0.2,0.6-0.1,0.7-0.2c0.2-0.1-0.4-1.4-0.8-1.3c-1.9,0.7,0.6,2.5,1.4,3c1.5,1,3,1.7,4.5,2.5c5,2.4,10.3,4.1,15.8,4.9
						s11,0.3,16.4-1c4.5-1.1,9.1-2.5,13.2-4.8c1.6-0.9,5.8-2.9,4.1-5.3C102.5,122.2,102.1,122.3,102.6,123.1L102.6,123.1z"/>
				</g>
			</g>
			<g>
				<g>
					<path class="st17" d="M101.6,125.9c0.9,1.6-2.6,3.4-3.5,3.9c-3.3,2-7.2,3.3-10.9,4.3c-4.8,1.4-9.8,2.1-14.8,1.8
						c-5.1-0.3-10.1-1.7-14.8-3.5c-2-0.8-3.9-1.7-5.9-2.6c-0.6-0.3-1.3-0.7-1.9-1.1c-0.4-0.3-2.5-1.5-1.4-1.9
						c0.6-0.2-0.8-0.2-1.1-0.1c-1.9,0.7,0.6,2.1,1.5,2.5c1.6,1,3.2,1.8,5,2.5c4.9,2.2,10.2,3.7,15.5,4.3c9.5,1.1,19.8-1.3,28.2-5.5
						c1.1-0.6,6.5-3,5.4-5C102.9,125.3,101.6,125.8,101.6,125.9L101.6,125.9z"/>
				</g>
			</g>
			<g>
				<g>
					<path class="st18" d="M101.2,128.7c0.7,1.4-3.1,3.3-4,3.8c-3.4,1.9-7.3,3.2-11.1,4.2c-4.6,1.2-9.3,1.9-14,1.6
						c-4.8-0.3-9.5-1.5-14-3.1c-2-0.8-3.8-1.6-5.7-2.5c-0.7-0.4-1.4-0.7-2.1-1.1c-0.3-0.2-2.3-1.5-1.8-1.7c0.9-0.4-0.2-1-0.8-0.7
						c-1.9,0.8,0.1,2.1,1,2.6c1.5,1,3,1.8,4.6,2.5c4.6,2.2,9.4,3.7,14.4,4.5c9.8,1.6,20.7-0.6,29.5-5.2c1.3-0.7,6.2-2.9,5.2-5.1
						C102.4,127.8,100.9,128.1,101.2,128.7L101.2,128.7z"/>
				</g>
			</g>
			<g>
				<g>
					<path class="st19" d="M100.8,131.2c0.6,1.6-2.9,3.3-3.8,3.8c-3.3,1.9-7.1,3.2-10.8,4.2c-4.5,1.2-9.3,1.9-14,1.7
						c-4.8-0.2-9.5-1.4-13.9-3c-2-0.8-3.9-1.6-5.8-2.5c-0.7-0.4-1.3-0.7-2-1.1c-0.5-0.3-2.5-1.5-1.6-1.9c0.5-0.2-0.8-0.8-1.2-0.6
						c-1.6,0.8,1,2.2,1.7,2.6c1.4,0.9,2.8,1.6,4.3,2.3c4.4,2.1,9.1,3.5,13.9,4.4c9.7,1.7,20.4-0.3,29.2-4.7c1.5-0.8,3-1.6,4.2-2.6
						c0.6-0.5,1.5-1.4,1.2-2.3C102.1,131,100.8,130.9,100.8,131.2L100.8,131.2z"/>
				</g>
			</g>
			<g>
				<g>
					<path class="st20" d="M100.5,134.2c0.2,0.6-0.7,1.3-1.1,1.6c-1,0.9-2.1,1.5-3.2,2.2c-3.4,1.9-7.3,3.1-11.1,4
						c-4.6,1.1-9.3,1.6-14,1.2c-4.4-0.4-8.8-1.5-12.9-3.1c-1.9-0.7-3.6-1.5-5.3-2.5c-0.7-0.4-1.3-0.7-2-1.1
						c-0.2-0.2-0.5-0.3-0.7-0.5c-0.3-0.2-0.6-0.4-0.8-0.6s-0.4-0.2-0.2-0.3c0.8-0.4-0.3-1.3-1-0.9c-2.5,1.4,4.6,4.8,5.6,5.3
						c4.2,2.1,8.8,3.5,13.4,4.3c9.7,1.7,20.4-0.2,29.2-4.6c1.6-0.8,3-1.7,4.3-2.8c0.7-0.6,1.5-1.5,1.2-2.5
						C101.7,133.2,100.3,133.4,100.5,134.2L100.5,134.2z"/>
				</g>
			</g>
			<g>
				<g>
					<path class="st21" d="M100.3,136.5c0.2,1.6-3,3.1-4,3.7c-3.3,1.9-7,3.1-10.6,4c-9,2.3-18.2,1.9-27-1.3c-2-0.7-3.8-1.5-5.6-2.5
						c-0.7-0.4-1.4-0.8-2.1-1.2c-0.4-0.2-2.1-1.2-1.6-1.5c0.3-0.2-0.6-1.4-1-1.2c-2,1.2,4.6,4.7,5.5,5.1c4.1,2.1,8.5,3.5,13,4.4
						c9.5,1.8,19.9,0.2,28.6-4c1.6-0.8,3.1-1.6,4.4-2.7c0.6-0.5,1.5-1.4,1.4-2.3C101.2,136.9,100.2,136,100.3,136.5L100.3,136.5z"/>
				</g>
			</g>
			<g>
				<g>
					<path class="st22" d="M99.8,139.2c0.1,1.6-2.8,3-3.9,3.7c-3.2,1.9-6.8,3-10.3,4c-9,2.3-18.2,2-27-1.3c-1.9-0.7-3.7-1.5-5.5-2.5
						c-0.7-0.4-1.4-0.7-2-1.2c-0.5-0.3-2.3-1.2-1.5-1.7c0.1-0.1-0.9-1.1-1.2-0.9c-1.5,1,5,4.4,5.8,4.8c3.9,2,8.1,3.4,12.4,4.3
						c9.4,1.9,19.7,0.4,28.4-3.8c1.5-0.7,3-1.6,4.3-2.6c0.6-0.5,1.6-1.3,1.5-2.2C100.9,139.6,99.8,139,99.8,139.2L99.8,139.2z"/>
				</g>
			</g>
			<g>
				<g>
					<path class="st23" d="M99.3,142.3c-0.1,1.7-2.8,3-4,3.7c-3.1,1.8-6.6,2.9-10.1,3.8c-9.1,2.3-18.4,1.6-27-2
						c-1.7-0.7-3.3-1.5-4.9-2.5c-0.6-0.4-3.9-2.2-3-2.8c0.1-0.1-1.1-0.5-1.4-0.2c-1.3,1.1,5.7,4.5,6.5,4.9c4,1.9,8.4,3.2,12.8,3.9
						c9.1,1.4,19-0.1,27.2-4.1c1.4-0.7,2.8-1.5,4-2.5c0.6-0.5,1.5-1.3,1.6-2.2C100.8,142.1,99.3,142,99.3,142.3L99.3,142.3z"/>
				</g>
			</g>
			<g>
				<g>
					<path class="st24" d="M98.9,145.2c-0.3,1.5-2.8,2.7-4,3.3c-3,1.7-6.4,2.7-9.7,3.5c-8.7,2.1-17.7,1.6-26.1-1.7
						c-1.8-0.7-3.4-1.5-5.1-2.4c-0.4-0.2-4.1-2.5-3.8-2.7c0.6-0.7-0.7-1-1.2-0.5c-1.6,1.7,4.9,4.6,6,5.1c4,2,8.4,3.3,12.9,4
						c8.9,1.4,18.9-0.1,27-4.3c1.8-0.9,5-2.5,5.5-4.6C100.5,144.4,99,144.5,98.9,145.2L98.9,145.2z"/>
				</g>
			</g>
			<g>
				<g>
					<path class="st25" d="M98.5,147.7c-0.5,1.6-2.6,2.6-3.9,3.4c-2.8,1.7-6,2.7-9.1,3.5c-8.7,2.3-17.9,2-26.4-1.4
						c-0.7-0.3-9.5-4.2-8.7-5.3c0.3-0.4-1.1-0.9-1.4-0.5c-1.1,1.5,5.4,4.5,6.4,5c3.9,1.9,8,3.1,12.3,3.8c8.8,1.5,18.6,0.2,26.7-3.8
						c1.4-0.7,2.7-1.4,3.9-2.4c0.7-0.5,1.5-1.2,1.7-2.1C100,147.7,98.6,147.3,98.5,147.7L98.5,147.7z"/>
				</g>
			</g>
			<g>
				<g>
					<path class="st26" d="M98.2,150.4c-0.7,1.6-2.6,2.6-4,3.3c-2.7,1.6-5.8,2.6-8.9,3.3c-8.5,2.2-17.6,1.9-26-1.3
						c-1.8-0.7-3.5-1.5-5.1-2.4c-0.4-0.2-3.9-2.2-3.6-2.6c0.3-0.5-0.9-1.4-1.1-1c-0.6,1.1,1.5,2.5,2.2,2.9c1.2,0.9,2.5,1.6,3.8,2.3
						c3.8,2,7.9,3.2,12.2,4c8.7,1.5,18.4,0.3,26.4-3.6c1.9-0.9,4.7-2.3,5.6-4.3C99.6,150.7,98.4,149.8,98.2,150.4L98.2,150.4z"/>
				</g>
			</g>
			<g>
				<g>
					<path class="st27" d="M97.7,153.1c-0.8,1.4-2.5,2.4-3.7,3.1c-2.6,1.6-5.7,2.6-8.7,3.4c-8.3,2.2-17.3,2-25.5-0.9
						c-1.9-0.7-3.6-1.5-5.3-2.4c-0.8-0.4-4-2.1-3.7-3c0.1-0.3-1.2-0.9-1.3-0.8c-0.3,0.9,1.9,2.2,2.5,2.5c1.2,0.8,2.5,1.6,3.7,2.3
						c3.6,1.9,7.4,3.1,11.5,3.9c8.6,1.6,18.3,0.6,26.3-3.2c2-0.9,4.5-2.2,5.6-4.2C99.1,153.6,97.8,152.9,97.7,153.1L97.7,153.1z"/>
				</g>
			</g>
			<g>
				<g>
					<path class="st1" d="M97.4,155.8c-1.1,1.6-2.9,2.6-4.6,3.5c-3.1,1.7-6.5,2.7-10,3.3c-8.9,1.8-18.3,1-26.6-3
						c-1.5-0.7-2.8-1.5-4.1-2.5c-0.4-0.3-0.8-0.6-1.2-1c-0.2-0.2-0.2-0.3-0.2-0.2c0.1-0.5-1-1.4-1.2-0.9c-0.3,1.4,2.6,3.1,3.5,3.6
						c3.2,2.1,7,3.5,10.7,4.5c9,2.4,19.5,1.8,28.1-2.2c2.3-1,5-2.4,6.4-4.4C98.8,156.4,97.7,155.4,97.4,155.8L97.4,155.8z"/>
				</g>
			</g>
		</g>
		<g>
			<path class="st28" d="M75.5,102.3c-20,0-35.7,7.6-35.7,16.8S54.7,137,74.7,137s37-9.1,37-18.2S95.5,102.3,75.5,102.3z
				 M75.5,132.2c-17.3,0-31.4-6.3-31.4-13.9s14-13.9,31.4-13.9s31.4,6.3,31.4,13.9S92.7,132.2,75.5,132.2z"/>
			<path class="st29" d="M109.8,118.5c0,7.6-14.8,16.7-32.4,16.7s-35.6-6.3-35.6-13.9s12.2-18.8,29.9-18.8
				C100,102.5,109.8,110.9,109.8,118.5z"/>
			<path class="st0" d="M75.4,102.3c-19.6,0-35.7,6.9-35.7,15.5s15.3,17.6,34.9,17.6s36.3-8.7,36.3-17.4S95,102.3,75.4,102.3z
				 M75.4,130.8c-17,0-30.7-5.9-30.7-13.2c0-7.4,13.7-13.2,30.8-13.2s30.8,6,30.8,13.2C106.1,124.9,92.3,130.8,75.4,130.8z"/>
		</g>
		<g>
			<path class="st0" d="M100.8,121.7c0.4-0.1,0.5-3.1,0.5-3.1s0.6-9.1-1.3-22.1c-2.4-16.5-10.8-21.2-10.8-21.2l0.1-36.6L59.6,39
				L60,75c0,0-8.1,7.1-9.4,17.1s-5.2,22.8-3.7,28.9c0,0,5,8.7,27.9,9.2C97.6,130.8,100.8,121.7,100.8,121.7z"/>
			<ellipse class="st0" cx="74.5" cy="39.3" rx="15" ry="7.5"/>
			<path class="st0" d="M89.2,75c0,3-6.1,7.5-14.3,7.5S60.1,78.1,60.1,75"/>
			<ellipse class="st30" cx="74.6" cy="39.3" rx="8.6" ry="4.5"/>
			<ellipse class="st30" cx="74.6" cy="33.4" rx="8.6" ry="4.5"/>
			<path class="st28" d="M66,33.6v5.8c0,0,0.2,4.9,9.2,4.6s8-4.6,8-4.6v-6c0,0-1.1,4.1-8.5,4.2C67.2,37.7,66,33.6,66,33.6z"/>
		</g>
		<g>
			<g>
				<g>
					<path class="st1" d="M97.8,90.6c0.9,0.6-2.5,3.1-2.8,3.3c-3.1,2.3-6.8,3.7-10.4,4.7c-9.5,2.5-19.6,1.3-28-3.6
						c-1.5-0.8-2.8-1.8-4-2.9c-0.3-0.3-1.6-1.4-1.3-2c0.2-0.5-1.1-0.1-1.3,0.3c-0.4,0.7,0.4,1.5,0.8,2c1,1.1,2.2,2,3.4,2.7
						c4,2.6,8.7,4.3,13.4,5.2c9.4,1.8,20.2-0.5,28-6c0.5-0.4,4.7-3.3,3.3-4.3C98.7,89.6,97.5,90.4,97.8,90.6L97.8,90.6z"/>
				</g>
			</g>
			<g>
				<g>
					<path class="st1" d="M97.9,92.3c1,0.8-2.2,3.1-2.6,3.4c-2.8,2.2-6.2,3.6-9.6,4.7c-5.5,1.7-11.3,2.4-16.9,1.4
						c-4.5-0.8-8.9-2.4-12.8-4.6c-1.4-0.8-2.7-1.8-3.9-2.8c-0.4-0.4-1.5-1.4-1.2-2.1c0,0-1.3-0.3-1.5,0c-0.3,0.6,0.6,1.5,1,1.9
						c1.1,1.1,2.5,2.1,3.7,2.8c4.1,2.5,8.7,4.1,13.5,5c9.4,1.7,20.1-0.1,28.1-5.4c0.5-0.3,4.9-3.3,3.6-4.3
						C99.1,92,98,92.3,97.9,92.3L97.9,92.3z"/>
				</g>
			</g>
			<g>
				<g>
					<path class="st1" d="M98.3,94.1c0.9,0.8-2.3,3.1-2.6,3.4c-2.9,2.2-6.4,3.7-9.8,4.7c-9.9,3-20.7,2.2-29.8-2.8
						c-1.6-0.9-3-1.8-4.3-2.9c-0.4-0.4-1.6-1.4-1.3-2.1c0.1-0.2-1.3-0.7-1.5-0.4c-0.3,0.7,0.6,1.5,1,1.9c1.1,1.1,2.4,2.1,3.7,2.8
						c4.1,2.5,8.8,4.2,13.6,5.2c9.6,1.9,20.7,0.3,28.9-5.3c0.6-0.4,4.8-3.3,3.4-4.4C99.3,94,97.9,93.9,98.3,94.1L98.3,94.1z"/>
				</g>
			</g>
			<g>
				<g>
					<path class="st1" d="M98.6,96.5c0,0,0.1,0,0,0.2c-0.1,0.3-0.3,0.6-0.5,0.8c-0.7,0.9-1.6,1.6-2.5,2.3c-3,2.2-6.6,3.6-10.1,4.6
						c-9.9,2.7-20.4,1.8-29.5-3c-1.6-0.9-3.1-1.8-4.5-2.9c-0.4-0.3-1.8-1.5-1.5-1.9c0.3-0.7-1.1-1.1-1.4-0.4
						c-0.4,0.8,0.4,1.6,0.8,2.1c1.1,1.1,2.4,2.1,3.6,2.8c4.2,2.6,9.1,4.4,14,5.3c5.9,1.2,12,0.9,17.7-0.6c4.1-1,8.3-2.6,11.8-5.1
						c0.9-0.6,4.7-3.3,3-4.8C99.2,95.4,97.9,95.9,98.6,96.5L98.6,96.5z"/>
				</g>
			</g>
			<g>
				<g>
					<path class="st1" d="M99.5,98.3c-0.6-0.6-0.3-0.4-0.5,0.2c-0.1,0.3-0.3,0.6-0.6,0.9c-0.7,0.9-1.6,1.6-2.5,2.2
						c-2.9,2.2-6.3,3.5-9.7,4.6c-10,2.9-20.7,2.2-30.2-2.3c-1.8-0.9-3.5-1.8-5.2-3c-0.4-0.3-2-1.3-1.7-2.1c0.1-0.3-1-1.1-1-1.1
						c-0.3,0.7,0.7,1.6,1,2.1c1,1.1,2.3,2,3.4,2.8c4.2,2.7,9,4.5,13.9,5.6c6.1,1.3,12.3,1.1,18.2-0.4c4.2-1,8.5-2.6,12.1-5.2
						c1-0.8,2.2-1.7,2.7-2.7c0.5-0.9,0.2-1.4-0.5-2.1C98.6,97.2,99.1,98,99.5,98.3L99.5,98.3z"/>
				</g>
			</g>
			<g>
				<g>
					<path class="st1" d="M99.3,100.2c-0.1-0.1,0,0.2-0.1,0.3c-0.1,0.3-0.3,0.7-0.5,0.9c-0.7,0.9-1.6,1.6-2.4,2.3
						c-2.9,2.2-6.4,3.6-9.9,4.6c-10.2,2.9-21.1,2.2-30.7-2.5c-1.8-0.9-3.6-1.9-5.2-3c-0.3-0.3-1.9-1.3-1.6-1.9
						c0.2-0.4-1-1.3-1.2-0.9c-0.3,0.7,0.5,1.6,1,2.1c1.1,1.1,2.5,2.1,3.7,2.8c4.4,2.7,9.4,4.5,14.4,5.5c6,1.2,12.2,1,18.1-0.4
						c4.2-1,8.4-2.5,12-5.1c1.2-0.8,4.6-3.2,2.8-4.9C99.5,99.6,98.6,99.5,99.3,100.2L99.3,100.2z"/>
				</g>
			</g>
			<g>
				<g>
					<path class="st1" d="M99.6,102.2c-0.2-0.2-0.1,0.1-0.1,0.4c-0.1,0.4-0.3,0.7-0.5,1c-0.6,0.9-1.5,1.6-2.3,2.2
						c-2.9,2.3-6.6,3.7-10.1,4.7c-10.3,2.9-21.4,2.1-31.1-2.5c-1.9-0.9-3.6-1.9-5.2-3c-0.4-0.3-2-1.4-1.7-2c0.2-0.4-1.1-1.2-1.2-0.9
						c-0.3,0.7,0.6,1.6,1,2c1.1,1.2,2.5,2.1,3.8,2.8c4.5,2.7,9.6,4.5,14.7,5.5c6,1.2,12.2,1,18.1-0.4c4.3-1,8.7-2.5,12.3-5.1
						c1.2-0.9,4.4-3.1,2.7-4.9C99.8,101.5,98.9,101.5,99.6,102.2L99.6,102.2z"/>
				</g>
			</g>
			<g>
				<g>
					<path class="st1" d="M99.5,104.4c0.9,1-2,3.1-2.5,3.5c-3.1,2.3-6.8,3.7-10.5,4.7c-10.6,2.7-21.9,1.7-31.7-3.2
						c-1.7-0.9-3.3-1.8-4.9-2.9c-0.4-0.3-1.9-1.5-1.7-2c0.3-0.8-1.1-0.7-1.4,0c-0.3,0.8,0.6,1.6,1.1,2.1c1.2,1.2,2.6,2.1,4.1,2.8
						c4.8,2.6,10.1,4.4,15.5,5.3c6.1,1,12.3,0.6,18.2-0.8c4.2-1,8.4-2.5,11.9-5.1c1.1-0.8,4.7-3.5,3-5.1
						C100.3,103.1,99,103.9,99.5,104.4L99.5,104.4z"/>
				</g>
			</g>
			<g>
				<g>
					<path class="st1" d="M100.6,106.6c-0.6-0.7-0.2-0.6-0.4,0c-0.1,0.4-0.4,0.8-0.6,1.1c-0.7,0.9-1.6,1.7-2.5,2.4
						c-2.9,2.2-6.5,3.5-9.9,4.4c-10.5,2.9-21.7,2.1-31.7-2.4c-2-0.9-3.9-1.9-5.8-3c-0.6-0.4-1.3-0.9-1.9-1.4
						c-0.2-0.1-0.4-0.3-0.5-0.5c0.1,0.3,0.1,0.3,0.2,0s-0.8-1.3-0.8-1.2c-0.3,0.7,0.7,1.9,1.2,2.4c1.1,1.2,2.5,2,3.7,2.7
						c4.8,2.8,10.3,4.7,15.7,5.7c6.4,1.1,12.9,0.8,19.1-0.8c4.1-1,8.4-2.5,11.9-5.3c1.7-1.3,3.7-3.2,1.9-5.3
						C99.8,105.1,100.4,106.4,100.6,106.6L100.6,106.6z"/>
				</g>
			</g>
			<g>
				<g>
					<path class="st1" d="M100.1,107.7c1.1,1.2-1.4,3.2-2.2,3.9c-2.8,2.3-6.4,3.7-9.8,4.8c-10.9,3.2-22.7,2.5-33.1-2.1
						c-2-0.9-3.9-1.9-5.7-3.1c-0.5-0.3-2.2-1.5-1.9-2.3c0.1-0.2-1.3-0.9-1.3-0.7c-0.3,0.7,0.9,1.6,1.3,2c1.3,1.1,2.7,2,4.2,2.8
						c4.6,2.5,9.7,4.3,14.8,5.3c6.4,1.3,13,1.1,19.4-0.3c4.2-0.9,8.5-2.4,12.2-4.8c1.1-0.7,4.8-3.3,3.2-5c-0.2-0.2-0.6-0.5-0.9-0.5
						C100.3,107.7,99.8,107.5,100.1,107.7L100.1,107.7z"/>
				</g>
			</g>
			<g>
				<g>
					<path class="st1" d="M100.3,110.3c1.1,1.3-1.7,3.4-2.5,4c-3,2.4-6.9,3.7-10.5,4.6c-11.1,2.8-22.8,1.7-33.2-3.2
						c-1.9-0.9-3.7-1.9-5.3-3c-0.4-0.3-2.1-1.4-1.8-2.1c0.2-0.4-1.2-0.1-1.4,0.3c-0.3,0.7,0.9,1.7,1.4,2c1.4,1.2,3,2.1,4.6,2.9
						c5.1,2.6,10.7,4.3,16.3,5.1c6.3,0.9,12.8,0.4,19-1.1c4.1-1,8.2-2.5,11.7-5.1c1.2-0.8,4.4-3.3,2.9-5.1
						C101.2,109.3,99.9,109.9,100.3,110.3L100.3,110.3z"/>
				</g>
			</g>
			<g>
				<g>
					<path class="st1" d="M100.5,112.1c1.1,1.3-1.5,3.3-2.3,4c-2.9,2.4-6.7,3.7-10.3,4.7c-11.2,3-23,2-33.6-2.7
						c-2-0.9-3.9-1.9-5.7-3.1c-0.4-0.3-2.3-1.5-2-2.1c0.2-0.6-1.3-0.7-1.4-0.3c-0.3,0.8,0.7,1.6,1.2,2c1.4,1.2,3,2.2,4.6,2.9
						c5.2,2.6,10.9,4.4,16.6,5.3c6.3,0.9,12.7,0.6,19-0.8c4.2-1,8.6-2.5,12.2-5c1.3-0.9,4.5-3.4,2.9-5.2
						C101.4,111.5,100.1,111.6,100.5,112.1L100.5,112.1z"/>
				</g>
			</g>
			<g>
				<g>
					<path class="st1" d="M100.8,114.3c0.2,0.3,0.1,0.9-0.2,1.4c-0.5,1-1.4,1.7-2.3,2.4c-3,2.3-6.7,3.6-10.4,4.6
						c-11.3,2.9-23.2,2-33.9-2.6c-2.1-0.9-4.1-1.9-5.9-3.1c-0.6-0.4-1.1-0.8-1.6-1.2c-0.2-0.2-0.3-0.3-0.5-0.5c-0.1-0.2-0.1,0-0.1,0
						c0.3-0.8-1.1-1.4-1.4-0.6c-0.3,0.9,0.7,1.8,1.3,2.3c1.4,1.2,2.9,2.2,4.6,2.9c5.2,2.7,10.9,4.5,16.7,5.4
						c6.6,1,13.3,0.7,19.8-0.8c4.2-1,8.6-2.5,12.2-5.1c1.5-1.1,4.4-3.6,2.7-5.7C101.3,112.9,100.3,113.5,100.8,114.3L100.8,114.3z"
						/>
				</g>
			</g>
			<g>
				<g>
					<path class="st1" d="M101,116.2c1,1.2-1.6,3.2-2.4,3.9c-3,2.4-6.8,3.7-10.4,4.7c-11.5,2.9-23.6,2-34.5-2.6
						c-2.1-0.9-4-1.9-5.9-3c-0.6-0.4-1.2-0.8-1.8-1.3c-0.2-0.2-0.5-0.7-0.5-0.6c0.3-0.7-1.1-1.4-1.3-0.7c-0.3,0.9,0.6,1.8,1.3,2.3
						c1.4,1.2,3,2.2,4.6,2.9c5.3,2.7,11.1,4.5,16.9,5.4c6.6,1.1,13.5,0.7,20-0.8c4.3-1,8.6-2.5,12.3-5c1.5-1.1,4.4-3.6,2.7-5.6
						C101.6,115.1,100.5,115.4,101,116.2L101,116.2z"/>
				</g>
			</g>
			<g>
				<g>
					<path class="st1" d="M101.1,117.9c1.2,1.5-1,3.4-2.1,4.3c-2.8,2.4-6.6,3.7-10.1,4.7c-11.8,3.2-24.3,2.1-35.5-2.7
						c-2.1-0.9-4.1-1.9-6-3.1c-0.4-0.3-2.5-1.5-2.2-2.2c0.2-0.5-1.3-0.5-1.5-0.1c-0.3,0.8,0.9,1.6,1.4,2c1.5,1.2,3.2,2.2,5,2.9
						c5.5,2.6,11.4,4.4,17.4,5.2c6.5,0.9,13.2,0.5,19.7-0.9c4.3-0.9,8.7-2.4,12.3-4.9c1.3-0.9,4.5-3.4,2.9-5.4
						C102.3,117.4,100.8,117.6,101.1,117.9L101.1,117.9z"/>
				</g>
			</g>
		</g>
		<g>
			<g>
				<g>
					<path class="st15" d="M97.1,84.3C97.1,84.3,97.1,84.2,97.1,84.3c-0.1,0.3-0.2,0.7-0.3,1c-0.5,1.1-1.2,2-2,2.8
						c-2.6,2.8-6.4,4.8-10.1,5.9c-5.8,1.7-12,1.4-17.8,0.2c-4.1-0.9-8.4-2.3-11.7-5.2c-1-0.9-3.6-3.7-2.4-5.1
						c0.6-0.7-0.7-1.3-1.3-0.7c-1.5,1.6,0.3,4.3,1.4,5.6c2.9,3.3,7.4,5.1,11.6,6.2c10.4,2.6,23.6,2.3,31.4-6.2
						c0.7-0.8,4.2-5.2,1.5-5.7C96.7,83,96.2,84.1,97.1,84.3L97.1,84.3z"/>
				</g>
			</g>
			<g>
				<g>
					<path class="st16" d="M97.6,86.8c-0.3-0.1-0.1-0.4-0.2-0.1s-0.2,0.6-0.3,1c-0.5,1.1-1.4,2-2.2,2.7c-2.8,2.8-6.6,4.7-10.4,5.8
						c-5.8,1.6-11.9,1.4-17.7,0.2c-4.2-0.9-8.5-2.4-11.8-5.1c-1-0.8-3.8-3.6-2.5-4.8c0.6-0.6-0.6-1.5-1.2-0.9
						c-1.6,1.6,0.5,4.2,1.6,5.4c3,3.2,7.5,5.1,11.8,6.2c10.5,2.6,23.6,2.2,31.7-6.1c0.8-0.8,4.4-5.1,1.6-5.7
						C96.9,85.4,96.8,86.6,97.6,86.8L97.6,86.8z"/>
				</g>
			</g>
			<g>
				<g>
					<path class="st31" d="M98.5,89.1c-0.3-0.1-0.4-0.8-0.6-0.5c0,0.1,0,0.3-0.1,0.4c-0.1,0.4-0.3,0.8-0.5,1.2
						c-0.7,1.1-1.5,2-2.5,2.8c-2.9,2.6-6.7,4.5-10.5,5.6c-5.6,1.6-11.6,1.5-17.3,0.4c-4.4-0.8-9-2.3-12.6-5.1
						c-0.9-0.7-4-3.5-2.5-4.9c0.2-0.2-0.9-1.2-1.1-1c-1.5,1.4,1.2,4.2,2.1,5.1c3.1,3.1,7.4,5,11.7,6.2c10.5,2.8,23.7,2.4,31.9-5.8
						c1-0.9,2.1-2.1,2.5-3.4c0.3-0.9-0.3-1.8-1.3-2C97.3,88,98.2,89,98.5,89.1L98.5,89.1z"/>
				</g>
			</g>
			<g>
				<g>
					<path class="st32" d="M98,91.6c0.9,0.3-2.4,3.7-2.6,3.9c-3.1,2.8-7.1,4.6-11.2,5.7c-5.8,1.5-12,1.2-17.7-0.1
						c-4.2-0.9-8.4-2.5-11.9-5.1c-1.1-0.9-2.2-1.9-2.9-3c-0.3-0.5-0.7-1.5-0.4-1.8c0.7-0.7-0.6-0.6-1-0.2c-1.6,1.5,0.8,3.9,1.8,4.8
						c3.3,3.1,7.8,4.9,12.3,6C75,104.4,87.4,103.5,96,96c0.5-0.4,4.9-4.7,2.8-5.3C98.5,90.5,97.4,91.4,98,91.6L98,91.6z"/>
				</g>
			</g>
			<g>
				<g>
					<path class="st33" d="M98.8,94.1c-0.5-0.2-0.1-0.5-0.4-0.1c-0.2,0.3-0.4,0.7-0.6,1c-0.7,1-1.7,1.9-2.6,2.6
						c-3.2,2.6-7.2,4.4-11.3,5.5c-5.7,1.4-11.7,1.2-17.3,0c-4.2-0.9-8.5-2.4-12.2-4.9c-1.2-0.8-2.3-1.8-3-2.9
						c-0.2-0.3-0.4-0.7-0.5-1.1c-0.1-0.3,0-0.4,0.1-0.5c0.7-0.6-0.5-1.6-1.1-1c-1.7,1.5,1.2,4.2,2.2,5.1c3.4,3,7.9,4.9,12.3,6
						c10.8,2.7,23.4,2,32.2-5.5c0.8-0.7,5.3-4.8,2.5-5.7C98.1,92.6,97.9,93.9,98.8,94.1L98.8,94.1z"/>
				</g>
			</g>
			<g>
				<g>
					<path class="st34" d="M98.8,96.5c0.4,0.1-0.2,0.9-0.4,1.2c-0.8,1-1.7,1.9-2.6,2.6c-3.3,2.6-7.4,4.4-11.6,5.4
						c-5.8,1.4-11.9,1.1-17.6-0.1c-4.2-0.9-8.5-2.4-12.2-4.8c-1.3-0.8-2.5-1.8-3.3-2.9c-0.3-0.4-0.6-0.8-0.7-1.2
						c0-0.1-0.1-0.3-0.1-0.4c0-0.2,0,0,0,0c0.8-0.6-0.2-0.9-0.8-0.4c-1.7,1.4,1.1,3.8,2.1,4.6c3.4,2.9,7.8,4.7,12.3,5.8
						c10.9,2.8,23.3,1.8,32.4-5.3c0.4-0.3,5.5-4.7,3.6-5.4C99.3,95.3,98.3,96.3,98.8,96.5L98.8,96.5z"/>
				</g>
			</g>
			<g>
				<g>
					<path class="st35" d="M99.3,98.3c-0.3-0.1-0.1,0.1-0.2,0.4c-0.1,0.4-0.4,0.7-0.6,1c-0.8,1-1.8,1.9-2.7,2.5
						c-3.3,2.6-7.4,4.4-11.5,5.6c-5.7,1.6-11.6,1.5-17.3,0.5c-4.8-0.9-9.6-2.5-13.6-5.3c-0.6-0.4-4.7-3.4-3.2-4.5
						C50,98.6,49,97.8,48.7,98c-1.4,1.1,2.5,3.9,3,4.3c3.5,2.5,7.7,4.2,12,5.4c10.9,2.9,23,2.3,32.4-4.3c0.6-0.4,5.9-4.3,3.8-5.1
						C99.9,98.3,98.5,97.9,99.3,98.3L99.3,98.3z"/>
				</g>
			</g>
			<g>
				<g>
					<path class="st36" d="M100.1,101.5c-0.3-0.2-0.3-0.6-0.4-0.5c0,0-0.2,0.3-0.2,0.4c-0.2,0.4-0.6,0.7-0.9,1.1
						c-1,1-2.1,1.9-3.2,2.6c-3.6,2.5-7.7,4.1-12.1,5.1c-5.6,1.3-11.4,1.1-17,0c-4.4-0.9-8.7-2.4-12.5-4.6c-1.3-0.8-2.6-1.7-3.6-2.7
						c-0.3-0.3-0.6-0.7-0.8-1c-0.1-0.2-0.1-0.2,0-0.2c0.6-0.4-0.2-1.7-0.8-1.3c-1.8,1.3,1.8,4,2.5,4.7c3.6,2.8,8,4.6,12.3,5.8
						c11.2,3,23.7,2,33.3-4.9c0.9-0.6,6-4.3,3.3-5.6C99.3,99.8,99.5,101.2,100.1,101.5L100.1,101.5z"/>
				</g>
			</g>
			<g>
				<g>
					<path class="st37" d="M99.9,103.5c0.6,0.3-3.6,3.7-4,3.9c-3.6,2.5-7.8,4.2-12.2,5.2c-9.9,2.3-21.5,0.4-30.2-4.9
						c-0.4-0.2-5.4-3.7-4.5-4.3c0.7-0.4-0.8-0.6-1.1-0.3c-1.6,1.1,2.3,3.6,2.9,4.1c3.8,2.6,8.4,4.4,12.9,5.5
						c11.1,2.6,22.8,1.6,32.5-4.6c0.5-0.3,6.3-4.3,4.7-5.1C100.8,102.8,99.4,103.2,99.9,103.5L99.9,103.5z"/>
				</g>
			</g>
			<g>
				<g>
					<path class="st38" d="M100.3,105.8c0.7,0.4-3.8,3.7-4.1,3.9c-3.7,2.5-8,4.2-12.4,5.2c-10,2.4-21.5,0.3-30.4-4.8
						c-0.3-0.2-5.7-3.7-4.6-4.3c0.3-0.2-1-0.4-1.3-0.2c-1.4,0.9,2.9,3.6,3.4,3.9c3.9,2.5,8.4,4.2,13,5.3c11.1,2.6,22.7,1.6,32.6-4.3
						c0.5-0.3,6.5-4.1,5.2-5C101.2,105.4,99.9,105.6,100.3,105.8L100.3,105.8z"/>
				</g>
			</g>
			<g>
				<g>
					<path class="st39" d="M100.7,108.5c0.8,0.5-4.1,3.6-4.4,3.8c-4.1,2.5-8.8,4.1-13.5,5c-9.8,1.8-20.6-0.3-29.3-5
						c-1.5-0.8-2.8-1.7-4.1-2.6c-0.4-0.3-0.8-0.7-1-1.1c-0.4-0.6,0.1-0.6-0.8-0.2c0.5-0.3,1-1.1,0.1-0.6c-0.8,0.4-1.1,0.9-0.6,1.6
						c0.7,1,1.8,1.7,2.7,2.3c4,2.6,8.6,4.3,13.2,5.5c6.1,1.6,12.5,2.1,18.7,0.9c5-0.9,9.9-2.7,14.4-5.3c0.4-0.2,7-4.4,5.8-5.2
						C101.5,107.5,100.5,108.4,100.7,108.5L100.7,108.5z"/>
				</g>
			</g>
			<g>
				<g>
					<path class="st40" d="M101.7,111.2c-0.2-0.3-0.3-0.6-0.5-0.9c0,0,0,0,0,0.1c0,0,0,0.1-0.1,0.1c-0.1,0.1-0.2,0.3-0.3,0.4
						c-0.3,0.4-0.7,0.7-1.1,1c-1.2,1-2.5,1.8-3.8,2.5c-4,2.3-8.4,3.8-12.8,4.8c-10,2.2-20.8,0.2-29.9-4.2c-1.6-0.8-3.2-1.7-4.6-2.6
						c-0.4-0.3-0.8-0.7-1.3-1c-0.5-0.4-0.1,0.1,0,0.1c0.3-0.1-0.4-1.5-0.8-1.3c-1.5,0.7,2.7,3.7,3.1,4c3.9,2.5,8.4,4.2,12.9,5.5
						c6.1,1.7,12.5,2.3,18.8,1.3c5.4-0.9,10.8-2.7,15.6-5.5c1.1-0.7,6.9-3.4,4.4-5.4C100.9,109.6,101.4,110.9,101.7,111.2
						L101.7,111.2z"/>
				</g>
			</g>
			<g>
				<g>
					<path class="st41" d="M101.4,113.4C101.3,113.3,101.4,113.3,101.4,113.4c-0.1-0.1-0.2,0.2-0.3,0.2c-0.3,0.3-0.7,0.6-1.1,0.9
						c-1.3,1-2.6,1.8-4,2.5c-4.1,2.2-8.6,3.8-13.2,4.7c-9.9,2-20.6-0.1-29.7-4.5c-1.6-0.7-3-1.6-4.4-2.5c-0.5-0.3-0.9-0.6-1.3-1
						c-0.6-0.6,0-0.4-0.8,0c0.8-0.4,0.5-1.4-0.3-1c-2.3,1,2,3.3,2.6,3.7c4.1,2.5,8.7,4.1,13.3,5.3c6,1.6,12.3,2.2,18.5,1.3
						c5.4-0.8,10.8-2.5,15.7-5.1c0.6-0.3,7.5-4,6.2-5.3C102.2,112.3,100.8,112.9,101.4,113.4L101.4,113.4z"/>
				</g>
			</g>
			<g>
				<g>
					<path class="st42" d="M102.3,115.8c-1.1-1.2,0-0.7-0.4-0.5c-0.1,0.1-0.2,0.3-0.3,0.4c-0.4,0.4-0.8,0.7-1.2,1
						c-1.3,0.9-2.7,1.7-4.1,2.5c-4.3,2.2-8.9,3.8-13.6,4.7c-10,2-20.6-0.1-29.8-4.2c-1.7-0.8-3.3-1.6-4.9-2.5
						c-0.5-0.3-0.9-0.7-1.4-1c-0.6-0.4,0,0.1,0,0.2c0.3-0.1-0.4-1.4-0.9-1.2c-0.7,0.3,0.4,1.5,0.6,1.8c0.9,0.9,2,1.5,3,2.1
						c4.1,2.4,8.7,4,13.3,5.2c6,1.6,12.3,2.3,18.3,1.4c5.6-0.8,11.1-2.5,16.1-5.1c1.8-0.9,3.5-1.9,5.1-3c0.8-0.6,1.4-1.3,0.6-2.2
						C101.8,114.4,101.8,115.3,102.3,115.8L102.3,115.8z"/>
				</g>
			</g>
			<g>
				<g>
					<path class="st1" d="M102.2,118.2c-0.2-0.3,0.1-0.4-0.1-0.3c-0.1,0-0.3,0.3-0.4,0.4c-0.4,0.4-0.8,0.7-1.3,0.9
						c-1.3,0.9-2.6,1.6-4.1,2.3c-4.2,2.1-8.8,3.6-13.4,4.5c-10.2,2.1-20.7,0-30.1-4c-1.7-0.7-3.4-1.6-5-2.5c-0.5-0.3-1.1-0.6-1.5-1
						c-0.1-0.1-0.3-0.3-0.4-0.3c-0.3-0.1,0.1,0,0,0c0,0,0,0.5-0.3,0.6c0.9-0.3,0.3-1.6-0.5-1.4c-2.4,0.7,2.8,3.6,3.3,3.8
						c4.4,2.4,9.1,4,13.9,5.2c6.1,1.5,12.3,2.2,18.5,1.3c5.4-0.8,10.8-2.5,15.7-4.8c0.9-0.4,8-3.4,6.7-5.3
						C102.8,117,101.6,117.4,102.2,118.2L102.2,118.2z"/>
				</g>
			</g>
		</g>
		<g>
			<path class="st43" d="M25.2,84.4c0,1.1-1.4,2.4-2.3,2.8c-1.3,0.8-3.3,4-3.6,5.1"/>
			<g>
				<path class="st14" d="M49.9,28.2c6.1-6.9,14.4-10.4,22.3-14.5C75.5,12,75.4,2.8,74.6,3c-16.3,4.6-7.8,7.6-12,10.7
					c-3.4,2.5-13.8,8.8-20.9,16.7c-0.9,1-2.9,6.2-2.3,6.2C40.8,36.6,49.1,29.1,49.9,28.2L49.9,28.2z"/>
			</g>
			<g>
				<path class="st1" d="M62,3.5c-5.1,3-3.9,2.5-7.9,7c-4.5,4.9-7.7,10.4-11.9,15.6c-5.7,7.3-12.1,13.8-15.1,22.8
					c-5.4,15.8-8.7,33.1-5.8,49.7c0.2,1.3,3.8,1.5,3.5,0.1c-0.8-4.3-0.2-9.6-0.3-14c0.4-4.7,0.1-6.9,0.4-10.3c0.7-2.4,0-4.4,0.7-6.1
					c0.7-1.7,0.4-2.3,0.6-3.4c0.2-0.9,0.6-1.1,0.8-2.5s0-1.8,0.2-2.5c0.5-2,2-4,2.5-6c1.4-4.8,4.9-9.4,7.4-13.6
					c2.4-3.9,2.6-7.4,5.6-10.9c3.4-4.2,7.9-7.1,11.3-11.3c4-5.3,6.5-3,11.9-6.9C72.7,6.5,65.9,1.2,62,3.5z"/>
			</g>
			<g>
				<g>
					<path class="st1" d="M23.2,61c-1.2,6.5-2.4,13-3.1,19.5c-0.6,4.6-1,9.2-0.7,13.8c0.3,3.4,1.1,6.9,2.6,10c1.8,3.3,4.1,6.1,7,8.5
						c4.2,3.8,9,7.1,13.8,10.3c1.3,0.9,5.5-1,3.5-2.3c-7-4.7-15-9.7-19.4-17.1c-3.9-6.6-3.4-14.7-2.6-22.1
						c0.8-7.2,2.1-14.2,3.3-21.3C28,58.5,23.5,59.3,23.2,61L23.2,61z"/>
				</g>
			</g>
			<g>
				<g>
					<path class="st14" d="M53.8,16.9c1.6-2.2,3-4.4,4.6-6.6c0.2-0.3,0.4-0.6,0.7-0.8c0.3-0.3,0.3-0.3,0.6-0.6
						c0.7-0.6,1.2-0.9,2-1.4c1.5-0.9,3-1.8,4.5-2.5c0.3-0.2,0.6-0.5,0.2-0.8c-0.4-0.2-1.1,0-1.5,0.2c-2.3,1.3-4.6,2.4-6.7,4
						c-1.3,1.1-2.2,2.5-3,3.8c-1.1,1.6-2.2,3.1-3.3,4.6c-0.3,0.4,0.3,0.6,0.6,0.6C52.9,17.5,53.5,17.3,53.8,16.9L53.8,16.9z"/>
				</g>
			</g>
			<g>
				<g>
					<path class="st1" d="M63.3,9.8c0.6-0.4,1.3-0.9,1.9-1.4c0.3-0.3,1-0.7,0.8-1.2c-0.4-1.3-2.5,0-3.1,0.4
						c-2.8,1.6-5.7,3.2-8.4,4.9c-0.9,0.5-1.7,1-2.5,1.6c-0.4,0.2-0.5,0.7-0.2,1.1c0.3,0.3,1,0.3,1.4,0.1c3.5-2.1,7.1-4.1,10.4-6.4
						c1.9-1.3,3.7-2.6,5.4-4.2c1.1-1-0.6-1.7-1.5-1c-4.4,4-9.8,7-14.9,10.1c-0.1,0-0.2,0.1-0.2,0.1c-0.2,0.1,0.2-0.1,0.1,0l-0.1,0.1
						c0.4,0.4,0.8,0.8,1.2,1.1c-0.5,0.3,0.1-0.1,0.3-0.2c0.4-0.3,0.8-0.5,1.3-0.8c1.3-0.8,2.5-1.6,3.8-2.3c1.4-0.8,2.7-1.6,4.1-2.4
						c0.3-0.2,0.9-0.5,1.4-0.8c0.2-0.1,0.8-0.3,1-0.5c-0.1,0.1-0.3,0.1-0.4,0.1c-0.6,0-1.1-0.3-0.9-0.9c0,0,0.2-0.3,0.1-0.1
						c-0.1,0.2,0.2-0.2,0,0c-0.1,0.1-0.2,0.1-0.2,0.2C63.3,8.1,62.6,8.5,62,9c-0.5,0.2-0.7,0.8-0.2,1.1
						C62.2,10.3,62.9,10.1,63.3,9.8L63.3,9.8z"/>
				</g>
			</g>
			<g>
				<path class="st14" d="M50.2,24.5c6.4-10.8,2.8-9.7,14.3-14.1c2.8-1.1,6.1-1.8,8.8-3.2c0.7-0.4,1.1-0.7,1.6-1.3
					c1.6-1.7-9.7,1.9-11.7,2.6c-5.2,2-13.5,9.2-17.3,15.7c-0.2,0.4-3.3,5.4-3.1,5.6c0,0,5.9-2.5,6.4-3.3L50.2,24.5z"/>
			</g>
			<path class="st44" d="M49.4,29c-2.6,1.5-5.7,1.1-8.1,1.6c-2.5,0.4-4,1.4-4.7,2.3"/>
			<path class="st44" d="M44.8,33c0,0-2.3,2.3-6.8,2.6c-4.5,0.4-5,1.8-5,1.8"/>
			<path class="st44" d="M38.6,38.7c0,0-3,2-5.7,2.9c-2.6,1-3.7,2-4.5,3.1"/>
			<path class="st44" d="M34.8,44.5c0,0-1.5,1.2-3.9,2.3c-2.5,1.1-4.4,4.1-4.9,5.1"/>
			<path class="st44" d="M31.5,50.2c0,0-1.9,3.2-2.7,3.6c-0.7,0.3-3.1,2.3-4.4,3.9"/>
			<path class="st44" d="M28,61.6c0,0-1.8,2.1-2.6,2.5c-1.3,0.7-3.2,3-3.6,4.1"/>
			<path class="st44" d="M26.8,67.1c-0.2,1.1-2.3,4.7-3.1,5.1c-1.3,0.6-2.7,2.2-3.1,3.2"/>
			<path class="st44" d="M26.1,76.1c-0.2,1.1-2.4,3.4-3.2,3.9c-1.3,0.6-3.1,2.6-3.5,3.7"/>
			<path class="st45" d="M25.3,99.7c0.2,1.1,0.5,3.3,0,4.4c-0.5,1.1-0.6,3.2-0.6,4.5"/>
			<path class="st44" d="M29.8,107c0.5,1,0.5,3,0,3.9c-0.7,1.3-1.2,1.6-0.8,2.7"/>
			<path class="st44" d="M33.4,111.2c0.7,0.9,1.1,2.8,0.8,3.8c-0.4,1.4-0.8,1.8-0.2,2.8"/>
			<path class="st44" d="M56.6,22.6c-2.5,1.6-9.1,1.2-10.3,1.4c-1.8,0.3-3.3,0.6-4.1,1.8"/>
			<g>
				<path class="st14" d="M49,21.8c8.7-7.1,18.3-8.5,20.2-10.2"/>
				<g>
					<path class="st1" d="M51,22.1c3.6-2.9,7.7-5,12.1-6.8c1.6-0.6,3-1.1,4.6-1.7c1.2-0.5,2.5-1,3.4-1.8c0.8-0.7,0.6-1.4-0.4-1.6
						c-1.2-0.2-2.7,0.2-3.6,1c-0.1,0.1-0.1,0.1-0.2,0.2c0.3-0.2,0.2-0.3,0.1-0.1c0,0-0.5,0.3,0,0c0.4-0.2,0,0-0.1,0
						c-0.6,0.2-1.2,0.5-1.8,0.7c-1.7,0.6-3.3,1.2-5,1.9c-4.7,1.9-9.2,4.3-13.1,7.5c-0.8,0.7-0.6,1.4,0.4,1.6
						C48.6,23.3,50.1,22.9,51,22.1L51,22.1z"/>
				</g>
			</g>
			<path class="st44" d="M73.4,13.1c-4.3,2.5-18.3,3.8-19.4,3.8c-1.7,0.1-6.1,1.3-6.9,2.2"/>
			<path class="st46" d="M30.1,53.5l-0.8,2.3c1.4,0.2,1.7,0.6,1.7,1.1c0,0.8-1.9,1.4-4.2,1.4s-4.2-0.6-4.2-1.4
				c0-0.6,0.7-1.1,2.2-1.3l0.7-2.5c-3.8,0.2-6.4,2-6.4,3.8c0,2.1,3.4,3.6,7.6,3.6s7.6-1.7,7.6-3.6C34.4,55.4,33.1,54,30.1,53.5z"/>
			<g>
				<path class="st46" d="M26.3,61.9c-4,0.2-7.1-2.3-7.2-2.8L19,56.8c0,1.4,2.9,3.5,7.3,3.5c3.5,0,6.5-1,7.4-2.2
					c0.2-0.3,0.4-0.8,0.4-0.8l-0.3,1.9C33.5,60.1,30.3,61.7,26.3,61.9z"/>
			</g>
		</g>
		<path class="st47" d="M42,122.8c0,0-1.3-0.6-0.9-2.6c0.3-1.5,1.9-2.5,3.3-2.2s2.5,1.9,2.2,3.3c-0.1,0.3-0.2,0.4-0.3,0.6l1.5,1.1
			c0.3-0.5,0.5-0.8,0.6-1.4c0.6-2.5-1-5.3-3.5-5.9c-2.5-0.6-5.4,1.4-5.9,3.8c-0.5,2,0.3,4.7,2.8,5.8L42,122.8z"/>
		<g>
			<g>
				<path class="st1" d="M42.1,121.9c3.3,2.7,6.9,5.4,10.7,7.5c4.3,2.5,9.6,3.2,14.5,3.7c7.5,0.8,15.3,0.3,22.6-1.6
					c4.7-1.2,10.1-3.2,13-7.4c0.8-1.1,1.3-2.3,1.4-3.5c0.1-1.4-0.8-1.5-2.2-1.1c-0.4,0.1-1.8,0.5-1.6,1.1c0.2,0.6,1.7,0.2,2,0.1
					c-0.6,0-1.2,0-1.8,0c0,0,0,0-0.1-0.1v0.1c0,0.1,0.1,0.2,0.1,0.2c0,0.3,0,0.6,0,0.8c-0.2,1-0.7,2-1.2,2.8
					c-2.5,3.6-7.3,5.1-11.4,6.1c-6.5,1.5-13.2,1.6-19.8,0.8c-4.1-0.5-8.6-1.3-12.3-3.3c-3.7-2.2-7.3-4.8-10.7-7.5
					C44.7,120,41.5,121.4,42.1,121.9L42.1,121.9z"/>
			</g>
		</g>
		<path class="st44" d="M24.8,84.6c0,1.1-1.4,2.4-2.3,2.8c-1.3,0.7-3.3,3.9-3.6,5.1"/>
		<path class="st44" d="M24.6,91.9c0.1,1.6-1.5,4.2-2.4,5.1c-1.4,1.3-1.4,2.5-1.6,4.1"/>
	</g>
	<path class="st48" d="M46.8,122"/>
</g>
</svg>
