<?xml version="1.0" encoding="utf-8"?>
<!-- Generator: Adobe Illustrator 25.2.3, SVG Export Plug-In . SVG Version: 6.00 Build 0)  -->
<svg version="1.1" id="Layer_1" xmlns="http://www.w3.org/2000/svg" xmlns:xlink="http://www.w3.org/1999/xlink" x="0px" y="0px"
	 viewBox="0 0 140 210" style="enable-background:new 0 0 140 210;" xml:space="preserve">
<style type="text/css">
	.st0{fill:#E4DAD8;stroke:#FFFFFF;stroke-width:0.5131;stroke-miterlimit:10;}
	.st1{fill:#EF7C4F;}
	.st2{fill:#EE784C;}
	.st3{fill:#EC734A;}
	.st4{fill:#EA6F47;}
	.st5{fill:#E86A45;}
	.st6{fill:#E66642;}
	.st7{fill:#E56240;}
	.st8{fill:#E35D3D;}
	.st9{fill:#E1593B;}
	.st10{fill:#DF5438;}
	.st11{fill:#DD5036;}
	.st12{fill:#DC4B33;}
	.st13{fill:#DA4731;}
	.st14{fill:#D8422E;}
	.st15{fill:#DD335A;}
	.st16{fill:#DE3859;}
	.st17{fill:#E03E58;}
	.st18{fill:#E14457;}
	.st19{fill:#E34957;}
	.st20{fill:#E44F56;}
	.st21{fill:#E55555;}
	.st22{fill:#E75A54;}
	.st23{fill:#E86053;}
	.st24{fill:#EA6652;}
	.st25{fill:#EB6B51;}
	.st26{fill:#EC7150;}
	.st27{fill:#EE7750;}
	.st28{fill:#CEBDBA;stroke:#FFFFFF;stroke-width:0.5131;stroke-linejoin:bevel;stroke-miterlimit:10;}
	.st29{fill:none;stroke:#FFFFFF;stroke-width:0.5131;stroke-miterlimit:10;}
	.st30{fill:#CEBDBA;stroke:#FFFFFF;stroke-width:0.5131;stroke-miterlimit:10;}
	.st31{fill:#DF3D58;}
	.st32{fill:#E14258;}
	.st33{fill:#E24857;}
	.st34{fill:#E34D56;}
	.st35{fill:#E55255;}
	.st36{fill:#E65754;}
	.st37{fill:#E75D54;}
	.st38{fill:#E96253;}
	.st39{fill:#EA6752;}
	.st40{fill:#EB6C51;}
	.st41{fill:#ED7250;}
	.st42{fill:#EE774F;}
	.st43{fill:none;stroke:#FFFFFF;stroke-width:0.4278;stroke-miterlimit:10;}
	.st44{fill:none;stroke:#FFFFFF;stroke-width:0.3015;stroke-miterlimit:10;}
	.st45{fill:none;stroke:#FFFFFF;stroke-width:0.3048;stroke-miterlimit:10;}
	.st46{fill:#543C52;stroke:#FFFFFF;stroke-width:0.2566;stroke-miterlimit:10;}
	.st47{fill:#543C52;stroke:#FFFFFF;stroke-width:0.5131;stroke-miterlimit:10;}
	.st48{fill:#E4DAD8;stroke:#FFFFFF;stroke-width:0.4908;stroke-miterlimit:10;}
</style>
<g>
	<g>
		<path class="st0" d="M73.8,122.6l29.9,0.2c0,0-2.3,20-3.6,30.5c-0.2,5.5-1.1,11.4-3.5,16.5c-4.2,9.3-11,16.6-11,16.6l0.6,14.9
			c0,0-1.5,5.8-12,6.1h-0.3c-10.6-0.2-12-6.1-12-6.1l0.6-14.9c0,0-6.8-7.3-11-16.6c-2.4-5.2-3.2-11.1-3.5-16.5
			c-1.3-10.5-3.6-30.5-3.6-30.5l29.9-0.2C74.3,122.6,73.8,122.6,73.8,122.6z"/>
		<path class="st0" d="M62.6,186.3c0,0,3.8,4.8,11.8,4.8s11.4-4.7,11.4-4.7"/>
		<g>
			<g>
				<g>
					<path class="st1" d="M102.9,125.1c2.1,2.7-14,7.3-15.3,7.6c-10,2.5-20.1,2.7-30,0c-2.3-0.6-4.5-1.3-6.7-2.3
						c-0.8-0.3-1.6-0.7-2.4-1.1c-0.4-0.2-2.8-1.6-1.9-1.9c0.9-0.3,0.1-0.6-0.5-0.4c-2.3,0.8-0.3,2.1,1,2.8c1.6,0.9,3.5,1.7,5.3,2.4
						c5.6,1.9,11.6,3.1,17.5,3.3c5.3,0.2,10.8-0.5,16-1.6c4.6-1,9.1-2.4,13.4-4.4c1-0.5,6.4-2.8,4.8-4.7
						C103.9,124.3,102.5,124.7,102.9,125.1L102.9,125.1z"/>
				</g>
			</g>
			<g>
				<g>
					<path class="st2" d="M102.4,128.3c1.6,2.7-14,7-15.3,7.3c-9.7,2.4-19.6,2.6-29.3,0c-2.3-0.6-4.5-1.3-6.7-2.3
						c-0.8-0.3-1.6-0.7-2.5-1.1c-0.4-0.2-2.7-1.6-2.1-1.8c0.9-0.3,0.1-0.8-0.5-0.6c-2.3,0.8-0.2,2.2,1,2.9c1.6,0.9,3.4,1.7,5.1,2.4
						c5.4,1.9,11.1,3.1,16.8,3.4c5.3,0.3,10.7-0.3,15.9-1.4c4.6-1,9.2-2.4,13.5-4.3c1.1-0.5,6.4-2.7,5-4.7
						C103.5,127.2,102.1,127.8,102.4,128.3L102.4,128.3z"/>
				</g>
			</g>
			<g>
				<g>
					<path class="st3" d="M102,131.2c0.7,1.5-3.4,3.2-4.2,3.5c-3.6,1.6-7.4,2.8-11.2,3.7c-9.5,2.3-19.3,2.4-28.7-0.2
						c-2.3-0.6-4.4-1.3-6.6-2.3c-0.8-0.3-1.5-0.7-2.3-1.1c-0.4-0.2-2.7-1.6-2.2-1.8c0.9-0.4,0.1-0.8-0.5-0.5c-2.1,0.8-0.1,2.2,1,2.8
						c1.6,0.9,3.3,1.7,5,2.4c5.2,1.9,10.9,3.1,16.4,3.4c5.2,0.3,10.5-0.2,15.6-1.3c4.5-0.9,9.1-2.3,13.3-4.1
						c1.1-0.5,6.6-2.7,5.5-4.7C103.2,130.4,101.8,130.8,102,131.2L102,131.2z"/>
				</g>
			</g>
			<g>
				<g>
					<path class="st4" d="M101.6,134.3c0.5,1.3-3.6,3-4.4,3.3c-3.6,1.5-7.3,2.7-11.1,3.6c-9.3,2.2-18.9,2.3-28.2-0.4
						c-2.2-0.6-4.3-1.3-6.3-2.3c-0.8-0.3-1.5-0.7-2.4-1.1c-0.3-0.2-2.3-1.5-2.1-1.6c0.8-0.4,0.1-1.1-0.6-0.8c-1.9,0.9,0,2.4,1,3
						c1.5,0.9,3.2,1.6,4.8,2.4c5.1,2.1,10.7,3.2,16.1,3.6c9.6,0.7,19.8-1.3,28.7-5.1c1.3-0.6,6.5-2.5,5.6-4.7
						C102.8,133.3,101.4,133.7,101.6,134.3L101.6,134.3z"/>
				</g>
			</g>
			<g>
				<g>
					<path class="st5" d="M101.2,137.5c0.3,1.6-3.8,3.1-4.7,3.5c-3.6,1.5-7.4,2.6-11.1,3.4c-9.3,2.1-18.9,1.8-28-0.9
						c-1.9-0.6-3.8-1.3-5.6-2.2c-0.5-0.2-4.8-2.7-4-3c0.8-0.4-0.4-0.5-0.8-0.3c-1.8,0.9,0.6,2.3,1.4,2.8c1.4,0.9,3.1,1.5,4.7,2.2
						c5,1.9,10.4,3.1,15.7,3.5c9.4,0.7,19.4-1.2,28.1-4.9c1.5-0.6,3.2-1.3,4.5-2.4c0.6-0.4,1.5-1.2,1.3-2.1
						C102.5,136.7,101.1,137.1,101.2,137.5L101.2,137.5z"/>
				</g>
			</g>
			<g>
				<g>
					<path class="st6" d="M100.8,140.6c0,0.6-0.9,1.1-1.3,1.4c-1.1,0.7-2.4,1.3-3.6,1.8c-3.5,1.4-7.2,2.5-10.9,3.3
						c-9,1.9-18.1,1.8-26.9-0.8c-2.1-0.6-4-1.3-6-2.2c-0.7-0.3-1.5-0.7-2.3-1.1c-0.3-0.2-2.3-1.6-2.3-1.6c0.8-0.4,0.1-1.2-0.6-0.8
						c-3,1.6,4.7,4.8,6,5.2c4.9,1.9,10.2,3.2,15.5,3.6c9.2,0.8,19-1.1,27.5-4.5c1.6-0.6,3.3-1.3,4.7-2.4c0.7-0.5,1.6-1.2,1.5-2.3
						C102.1,139.6,100.8,140,100.8,140.6L100.8,140.6z"/>
				</g>
			</g>
			<g>
				<g>
					<path class="st7" d="M100.4,143.6c0,0.6-0.9,1.1-1.4,1.4c-1.1,0.7-2.4,1.2-3.5,1.7c-3.5,1.4-7.2,2.5-10.8,3.2
						c-8.8,1.8-17.8,1.7-26.5-0.9c-1.9-0.6-3.9-1.3-5.8-2.2c-0.4-0.2-4.5-2.6-4.2-2.8c0.8-0.5-0.3-1-0.9-0.7
						c-2.5,1.5,5.1,4.8,6.2,5.2c4.7,1.9,9.9,3.1,14.9,3.6c9.1,0.9,18.6-0.9,27.1-4.2c1.6-0.6,3.3-1.3,4.7-2.3
						c0.7-0.5,1.7-1.2,1.8-2.2C101.8,142.7,100.5,142.9,100.4,143.6L100.4,143.6z"/>
				</g>
			</g>
			<g>
				<g>
					<path class="st8" d="M100,146.7c-0.1,0.7-1.1,1.2-1.6,1.5c-1.1,0.7-2.4,1.2-3.6,1.6c-3.5,1.3-7.2,2.4-10.8,3.1
						c-8.7,1.7-17.5,1.4-26.1-1.3c-1.9-0.6-3.8-1.3-5.5-2.3c-0.4-0.2-4.2-2.5-4-2.7c0.7-0.5-0.4-1-0.9-0.6c-2.3,1.6,4.9,4.6,6.1,5.1
						c4.6,1.9,9.5,3.1,14.5,3.6c8.9,0.9,18.3-0.7,26.7-3.9c1.6-0.6,3.4-1.3,4.9-2.3c0.8-0.5,1.7-1.1,1.9-2.2
						C101.5,145.9,100.2,146.1,100,146.7L100,146.7z"/>
				</g>
			</g>
			<g>
				<g>
					<path class="st9" d="M99.7,149.8c-0.2,0.7-1.1,1.2-1.7,1.6c-1.2,0.7-2.5,1.2-3.8,1.7c-3.5,1.3-7.2,2.3-11,3
						c-8.6,1.6-17.2,1-25.6-1.7c-1.8-0.6-3.6-1.3-5.3-2.3c-0.6-0.3-4.3-2.4-3.6-3c0.3-0.3-1-0.1-1.2,0.1c-1.5,1.3,5.8,4.5,6.8,4.8
						c4.5,1.8,9.2,2.9,14.1,3.4c8.6,0.9,17.7-0.8,25.8-3.8c1.6-0.6,3.3-1.2,4.7-2.2c0.8-0.4,1.8-1,2.2-2.1
						C101.1,149.3,99.8,149.5,99.7,149.8L99.7,149.8z"/>
				</g>
			</g>
			<g>
				<g>
					<path class="st10" d="M99.3,152.8c-0.3,0.7-1.2,1.1-1.8,1.4c-1.2,0.6-2.5,1.2-3.8,1.6c-3.5,1.2-7,2.2-10.6,2.9
						c-8.3,1.5-16.7,1.1-24.8-1.6c-1.8-0.6-3.6-1.3-5.2-2.2c-0.4-0.2-4.3-2.5-4-2.8c0.6-0.6-0.7-0.9-1.1-0.4c-1.6,1.6,5.1,4.6,6.2,5
						c4.3,1.8,8.9,3,13.5,3.6c8.6,1.1,17.7-0.4,25.9-3.3c1.6-0.6,3.4-1.2,4.9-2.1c0.9-0.5,1.9-1.1,2.4-2.1
						C100.9,152.2,99.6,152.2,99.3,152.8L99.3,152.8z"/>
				</g>
			</g>
			<g>
				<g>
					<path class="st11" d="M98.9,155.9c-0.4,0.7-1.4,1.1-2.1,1.5c-1.2,0.6-2.6,1.1-3.9,1.6c-3.4,1.1-6.9,2.1-10.4,2.7
						c-8.1,1.4-16.4,0.9-24.2-1.8c-1.7-0.6-3.5-1.3-5.2-2.2c-0.5-0.2-4.2-2.4-3.9-2.8c0.5-0.7-0.8-0.9-1.1-0.4c-1.3,1.8,5,4.5,6.3,5
						c4.2,1.8,8.7,3,13.2,3.6c8.5,1.1,17.2-0.3,25.2-3c1.6-0.5,3.3-1.1,4.8-1.9c0.9-0.5,2.1-1.1,2.6-2.1
						C100.6,155.4,99.2,155.4,98.9,155.9L98.9,155.9z"/>
				</g>
			</g>
			<g>
				<g>
					<path class="st12" d="M98.5,158.9c-1.2,1.7-4.2,2.5-6.1,3.1c-3.5,1.1-7,2.1-10.6,2.6c-7.9,1.3-15.9,0.6-23.5-2.1
						c-1.7-0.6-3.5-1.3-5-2.2c-0.6-0.3-4.2-2.2-3.8-2.9c0.3-0.7-1-0.6-1.3-0.1c-0.9,1.8,5.2,4.3,6.4,4.9c4,1.7,8.3,2.9,12.6,3.6
						c8.3,1.2,16.7-0.1,24.6-2.7c1.7-0.5,3.5-1.1,5.1-1.9c1-0.5,2.2-1,2.8-1.9C100.2,158.5,99,158.4,98.5,158.9L98.5,158.9z"/>
				</g>
			</g>
			<g>
				<g>
					<path class="st13" d="M98.1,162c-1.5,1.6-4.3,2.5-6.4,3.1c-3.4,1.1-6.9,1.8-10.4,2.5c-7.8,1.2-15.7,0.4-23.1-2.3
						c-1.7-0.6-3.4-1.3-5-2.3c-0.7-0.4-3.9-1.9-3.6-2.9c0.2-0.5-1.2-0.4-1.4,0.1c-0.3,1.1,1.9,2.3,2.7,2.8c1.3,0.8,2.7,1.4,4,2.1
						c3.9,1.7,8,2.8,12.2,3.4c8,1.2,16.2,0,23.9-2.4c2.6-0.8,6.2-1.6,8.1-3.8C99.9,161.7,98.5,161.6,98.1,162L98.1,162z"/>
				</g>
			</g>
			<g>
				<g>
					<path class="st14" d="M97.7,165.1c-0.8,0.8-1.9,1.2-3,1.7c-1.5,0.7-3.3,1.2-4.9,1.6c-3.7,1-7.6,1.8-11.4,2.3
						c-8,0.8-16.6-0.7-23.8-4.4c-1.2-0.6-2.4-1.2-3.5-2.1c-0.3-0.2-1.3-0.9-1.2-1.3c0.2-0.6-1.2-0.4-1.4,0.1
						c-0.3,1.3,2.9,2.9,3.7,3.3c3.4,1.9,7.1,3.3,10.9,4.1c4.5,1.1,9.1,1.6,13.8,1.2c4.2-0.3,8.4-1.1,12.4-2.3
						c3.1-0.8,7.2-1.7,9.5-4.1C99.6,164.9,98.1,164.7,97.7,165.1L97.7,165.1z"/>
				</g>
			</g>
		</g>
		<g>
			<g>
				<g>
					<path class="st15" d="M103.7,127.3c0.9,1.2-3.3,3.5-4,3.9c-3.6,2.1-7.6,3.5-11.6,4.6c-4.6,1.3-9.4,2.2-14.3,2.2
						c-5.5,0-11.1-1.3-16.3-3.3c-2.4-0.8-4.6-1.7-6.8-2.9c-0.8-0.4-1.6-0.8-2.4-1.2c-0.3-0.2-0.6-0.3-0.8-0.5
						c-0.3-0.2-0.6-0.4-0.8-0.6c-0.4-0.3-0.5-0.2-0.1-0.3c0.9-0.3,0.1-1.3-0.7-1.1c-2.5,0.8-0.2,2.5,1,3.2c1.7,1,3.5,1.9,5.3,2.8
						c5.4,2.5,11.2,4.2,17.1,4.9c5.7,0.7,11.5,0,17-1.3c4.7-1.1,9.5-2.8,13.9-5.1c1.3-0.7,6.6-3.4,4.8-5.6
						C104.6,126.1,103.2,126.6,103.7,127.3L103.7,127.3z"/>
				</g>
			</g>
			<g>
				<g>
					<path class="st16" d="M103.8,130.1C103.6,129.8,103.8,130,103.8,130.1c-0.2,0.2-0.2,0.4-0.3,0.5c-0.2,0.4-0.6,0.8-1,1.1
						c-1,0.9-2.4,1.6-3.6,2.4c-3.7,1.9-7.6,3.4-11.6,4.4c-4.7,1.2-9.6,2.1-14.6,1.9c-5.3-0.2-10.7-1.4-15.7-3.3
						c-2.4-0.8-4.6-1.8-6.9-3c-0.7-0.4-1.5-0.8-2.3-1.2c-0.3-0.2-0.7-0.4-1-0.6c-0.1,0-0.1-0.1-0.2-0.1c-0.4-0.5-0.6-0.5-0.4-0.2
						c-0.2,0.2,0.6-0.1,0.7-0.2c0.2-0.1-0.4-1.4-0.8-1.3c-1.9,0.7,0.6,2.7,1.4,3.2c1.5,1,3.2,1.7,4.7,2.6c5.2,2.5,10.8,4.3,16.5,5.1
						c5.7,0.8,11.5,0.3,17.1-1c4.7-1.1,9.5-2.7,13.9-5c1.6-0.9,6.1-3.1,4.3-5.5C103.7,129.1,103.3,129.3,103.8,130.1L103.8,130.1z"
						/>
				</g>
			</g>
			<g>
				<g>
					<path class="st17" d="M102.8,133c0.9,1.6-2.8,3.6-3.7,4.1c-3.5,2.1-7.5,3.5-11.4,4.5c-5,1.4-10.3,2.2-15.5,1.8
						c-5.3-0.3-10.6-1.7-15.5-3.7c-2.1-0.8-4.1-1.7-6.2-2.8c-0.6-0.3-1.3-0.7-1.9-1.1c-0.4-0.3-2.6-1.5-1.4-1.9
						c0.6-0.2-0.8-0.2-1.1-0.1c-1.9,0.7,0.6,2.2,1.5,2.7c1.6,1,3.4,1.8,5.2,2.7c5.1,2.3,10.7,3.9,16.2,4.5c10,1.1,20.7-1.3,29.6-5.7
						c1.1-0.6,6.8-3.2,5.6-5.2C104.1,132.4,102.8,132.9,102.8,133L102.8,133z"/>
				</g>
			</g>
			<g>
				<g>
					<path class="st18" d="M102.3,136c0.7,1.4-3.3,3.5-4.2,4c-3.6,1.9-7.6,3.4-11.6,4.4c-4.8,1.2-9.7,1.9-14.7,1.6
						c-5-0.3-10-1.5-14.7-3.3c-2.1-0.8-4-1.6-6-2.7c-0.7-0.4-1.4-0.7-2.2-1.1c-0.3-0.2-2.4-1.5-1.8-1.7c0.9-0.4-0.2-1-0.8-0.7
						c-1.9,0.8,0.1,2.2,1,2.8c1.5,1,3.2,1.8,4.8,2.6c4.8,2.3,9.9,3.9,15.1,4.7c10.3,1.6,21.7-0.6,30.9-5.4c1.3-0.7,6.5-3.1,5.4-5.3
						C103.6,135,102,135.3,102.3,136L102.3,136z"/>
				</g>
			</g>
			<g>
				<g>
					<path class="st19" d="M101.9,138.5c0.6,1.6-3.1,3.5-4,4c-3.5,1.9-7.4,3.4-11.3,4.4c-4.7,1.2-9.7,1.9-14.7,1.7
						c-5-0.2-10-1.4-14.6-3.2c-2.1-0.8-4.1-1.6-6.1-2.7c-0.7-0.4-1.3-0.7-2.1-1.1c-0.5-0.3-2.6-1.5-1.6-1.9c0.5-0.2-0.8-0.8-1.2-0.6
						c-1.6,0.8,1,2.3,1.7,2.8c1.4,0.9,3,1.6,4.5,2.4c4.6,2.2,9.5,3.7,14.6,4.6c10.2,1.7,21.3-0.3,30.6-4.9c1.5-0.8,3.2-1.6,4.4-2.8
						c0.6-0.5,1.5-1.4,1.2-2.4C103.3,138.3,101.8,138.2,101.9,138.5L101.9,138.5z"/>
				</g>
			</g>
			<g>
				<g>
					<path class="st20" d="M101.5,141.7c0.2,0.6-0.7,1.3-1.1,1.6c-1,0.9-2.2,1.5-3.4,2.3c-3.6,1.9-7.6,3.3-11.6,4.2
						c-4.8,1.1-9.7,1.6-14.7,1.2c-4.6-0.4-9.2-1.5-13.5-3.3c-1.9-0.7-3.8-1.5-5.5-2.6c-0.7-0.4-1.3-0.7-2.1-1.1
						c-0.2-0.2-0.5-0.3-0.7-0.5c-0.3-0.2-0.6-0.4-0.8-0.6c-0.2-0.2-0.4-0.2-0.2-0.3c0.8-0.4-0.3-1.3-1-0.9c-2.7,1.4,4.8,5,5.8,5.5
						c4.4,2.2,9.2,3.7,14.1,4.5c10.2,1.7,21.3-0.2,30.6-4.8c1.6-0.8,3.2-1.7,4.5-3c0.7-0.6,1.5-1.5,1.2-2.6
						C102.9,140.7,101.3,140.9,101.5,141.7L101.5,141.7z"/>
				</g>
			</g>
			<g>
				<g>
					<path class="st21" d="M101.3,144.1c0.2,1.6-3.2,3.3-4.2,3.9c-3.5,1.9-7.3,3.3-11.1,4.2c-9.4,2.4-19.1,1.9-28.3-1.3
						c-2.1-0.7-4-1.5-5.8-2.6c-0.7-0.4-1.4-0.8-2.2-1.2c-0.4-0.2-2.2-1.2-1.6-1.5c0.3-0.2-0.6-1.4-1-1.2c-2.1,1.2,4.8,4.9,5.7,5.3
						c4.3,2.2,8.9,3.7,13.6,4.6c10,1.8,20.8,0.2,30-4.2c1.6-0.8,3.3-1.6,4.6-2.9c0.6-0.5,1.5-1.4,1.4-2.4
						C102.3,144.5,101.2,143.6,101.3,144.1L101.3,144.1z"/>
				</g>
			</g>
			<g>
				<g>
					<path class="st22" d="M100.8,146.9c0.1,1.6-3,3.2-4.1,3.9c-3.4,1.9-7.1,3.2-10.8,4.2c-9.4,2.4-19.1,2.1-28.2-1.3
						c-1.9-0.7-3.9-1.5-5.7-2.6c-0.7-0.4-1.4-0.7-2.1-1.2c-0.5-0.3-2.4-1.2-1.5-1.7c0.1-0.1-0.9-1.1-1.2-0.9c-1.5,1,5.2,4.6,6.1,5
						c4.1,2.1,8.5,3.6,13,4.5c9.9,1.9,20.6,0.4,29.8-4c1.5-0.7,3.2-1.6,4.5-2.8c0.6-0.5,1.6-1.3,1.5-2.3
						C102,147.4,100.8,146.7,100.8,146.9L100.8,146.9z"/>
				</g>
			</g>
			<g>
				<g>
					<path class="st23" d="M100.3,150.2c-0.1,1.7-3,3.2-4.2,3.9c-3.3,1.8-6.9,3.1-10.6,4c-9.5,2.4-19.3,1.6-28.3-2.1
						c-1.7-0.7-3.5-1.5-5.1-2.6c-0.6-0.4-4.1-2.3-3.2-3c0.1-0.1-1.1-0.5-1.4-0.2c-1.3,1.1,6,4.7,6.8,5.1c4.2,1.9,8.8,3.4,13.4,4.1
						c9.5,1.4,19.9-0.1,28.5-4.3c1.4-0.7,3-1.5,4.2-2.6c0.6-0.5,1.5-1.3,1.6-2.3C101.8,150,100.3,149.9,100.3,150.2L100.3,150.2z"/>
				</g>
			</g>
			<g>
				<g>
					<path class="st24" d="M99.9,153.2c-0.3,1.5-3,2.9-4.2,3.5c-3.2,1.7-6.7,2.9-10.2,3.7c-9.1,2.2-18.6,1.6-27.3-1.7
						c-1.8-0.7-3.6-1.5-5.3-2.5c-0.4-0.2-4.3-2.6-4-2.9c0.6-0.7-0.7-1-1.2-0.5c-1.6,1.7,5.1,4.8,6.3,5.3c4.2,2.1,8.8,3.5,13.5,4.2
						c9.3,1.4,19.8-0.1,28.3-4.5c1.8-0.9,5.2-2.6,5.7-4.8C101.5,152.4,100,152.5,99.9,153.2L99.9,153.2z"/>
				</g>
			</g>
			<g>
				<g>
					<path class="st25" d="M99.5,155.9c-0.5,1.6-2.8,2.8-4.1,3.6c-3,1.7-6.3,2.9-9.5,3.7c-9.1,2.4-18.8,2.1-27.6-1.4
						c-0.7-0.3-10-4.4-9.1-5.5c0.3-0.4-1.1-0.9-1.4-0.5c-1.1,1.5,5.6,4.7,6.7,5.2c4.1,1.9,8.4,3.3,12.8,4c9.2,1.5,19.5,0.2,27.9-4
						c1.4-0.7,2.9-1.4,4.1-2.5c0.7-0.5,1.5-1.2,1.7-2.2C101,155.9,99.6,155.5,99.5,155.9L99.5,155.9z"/>
				</g>
			</g>
			<g>
				<g>
					<path class="st26" d="M99.2,158.6c-0.7,1.6-2.8,2.8-4.2,3.5c-2.9,1.6-6.1,2.8-9.3,3.5c-8.9,2.3-18.5,1.9-27.2-1.3
						c-1.8-0.7-3.7-1.5-5.3-2.5c-0.4-0.2-4.1-2.3-3.8-2.8c0.3-0.5-0.9-1.4-1.1-1c-0.6,1.1,1.5,2.6,2.3,3.1c1.2,0.9,2.6,1.6,4,2.4
						c4,2.1,8.3,3.4,12.7,4.2c9.1,1.5,19.3,0.3,27.6-3.8c1.9-0.9,4.9-2.4,5.8-4.5C100.6,158.9,99.4,158,99.2,158.6L99.2,158.6z"/>
				</g>
			</g>
			<g>
				<g>
					<path class="st27" d="M98.6,161.5c-0.8,1.4-2.6,2.5-3.9,3.3c-2.8,1.6-6,2.8-9.1,3.6c-8.7,2.3-18.2,2.1-26.7-0.9
						c-1.9-0.7-3.8-1.5-5.5-2.5c-0.8-0.4-4.2-2.2-3.9-3.2c0.1-0.3-1.2-0.9-1.3-0.8c-0.3,0.9,1.9,2.3,2.6,2.7
						c1.2,0.8,2.6,1.6,3.9,2.4c3.8,1.9,7.8,3.3,12,4.1c9,1.6,19.2,0.6,27.5-3.4c2.1-0.9,4.7-2.3,5.8-4.4
						C100.1,162,98.7,161.3,98.6,161.5L98.6,161.5z"/>
				</g>
			</g>
			<g>
				<g>
					<path class="st1" d="M98.3,164.3c-1.1,1.6-3.1,2.8-4.8,3.7c-3.3,1.7-6.8,2.9-10.5,3.5c-9.3,1.8-19.2,1-27.8-3.2
						c-1.5-0.7-3-1.5-4.3-2.6c-0.4-0.3-0.8-0.6-1.2-1c-0.2-0.2-0.2-0.3-0.2-0.2c0.1-0.5-1-1.4-1.2-0.9c-0.3,1.4,2.8,3.3,3.7,3.8
						c3.4,2.2,7.3,3.7,11.2,4.7c9.4,2.5,20.4,1.8,29.5-2.3c2.4-1,5.2-2.5,6.7-4.6C99.8,164.9,98.6,163.9,98.3,164.3L98.3,164.3z"/>
				</g>
			</g>
		</g>
		<g>
			<path class="st28" d="M75.4,108.3c-20.9,0-37.4,8-37.4,17.5c0,9.5,15.6,18.8,36.5,18.8s38.8-9.5,38.8-19.1S96.3,108.3,75.4,108.3
				z M75.4,139.7c-18.2,0-32.8-6.6-32.8-14.6s14.7-14.6,32.8-14.6s32.8,6.6,32.8,14.6S93.4,139.7,75.4,139.7z"/>
			<path class="st29" d="M111.3,125.3c0,8-15.5,17.4-34,17.4s-37.3-6.6-37.3-14.6s12.7-19.7,31.3-19.7
				C101,108.5,111.3,117.3,111.3,125.3z"/>
			<path class="st0" d="M75.2,108.3c-20.5,0-37.4,7.2-37.4,16.2s16,18.5,36.5,18.5s38-9.1,38-18.3S95.8,108.3,75.2,108.3z
				 M75.2,138.1c-17.8,0-32.1-6.2-32.1-13.9s14.4-13.9,32.2-13.9s32.2,6.3,32.2,13.9C107.5,132,93,138.1,75.2,138.1z"/>
		</g>
		<g>
			<path class="st0" d="M101.8,128.6c0.4-0.1,0.5-3.3,0.5-3.3s0.6-9.5-1.3-23.2c-2.5-17.2-11.3-22.2-11.3-22.2l0.1-38.3l-31.1,0.4
				l0.4,37.7c0,0-8.5,7.4-9.9,17.9s-5.4,23.9-3.9,30.3c0,0,5.2,9.1,29.2,9.6C98.5,138.1,101.8,128.6,101.8,128.6z"/>
			<ellipse class="st0" cx="74.3" cy="42.4" rx="15.7" ry="7.9"/>
			<path class="st0" d="M89.7,79.7c0,3.2-6.4,7.9-15,7.9s-15.5-4.7-15.5-7.9"/>
			<ellipse class="st30" cx="74.4" cy="42.4" rx="9" ry="4.7"/>
			<ellipse class="st30" cx="74.4" cy="36.1" rx="9" ry="4.7"/>
			<path class="st28" d="M65.4,36.3v6.1c0,0,0.2,5.1,9.6,4.8s8.4-4.8,8.4-4.8v-6.3c0,0-1.1,4.3-8.9,4.4
				C66.7,40.6,65.4,36.3,65.4,36.3z"/>
		</g>
		<g>
			<g>
				<g>
					<path class="st1" d="M98.7,96c0.9,0.6-2.7,3.3-3,3.5c-3.3,2.4-7.1,3.9-10.9,4.9c-10,2.6-20.5,1.3-29.3-3.8
						c-1.5-0.8-3-1.8-4.2-3.1c-0.3-0.3-1.6-1.4-1.3-2.1c0.2-0.5-1.1-0.1-1.3,0.3c-0.4,0.7,0.4,1.5,0.8,2.1c1,1.1,2.3,2.1,3.6,2.9
						c4.2,2.8,9.1,4.5,14.1,5.4c9.9,1.8,21.1-0.5,29.3-6.3c0.5-0.4,4.9-3.5,3.5-4.5C99.7,95,98.4,95.8,98.7,96L98.7,96z"/>
				</g>
			</g>
			<g>
				<g>
					<path class="st1" d="M98.9,97.8c1,0.8-2.3,3.3-2.8,3.6c-3,2.3-6.5,3.8-10.1,4.9c-5.7,1.7-11.8,2.5-17.7,1.4
						c-4.7-0.8-9.3-2.5-13.4-4.8c-1.4-0.8-2.9-1.8-4.1-3c-0.4-0.4-1.5-1.4-1.2-2.2c0,0-1.3-0.3-1.5,0c-0.3,0.6,0.6,1.5,1,1.9
						c1.1,1.1,2.6,2.2,3.9,3c4.3,2.7,9.1,4.3,14.2,5.2c9.9,1.7,21-0.1,29.5-5.6c0.5-0.3,5.1-3.5,3.8-4.5
						C100.1,97.5,99,97.8,98.9,97.8L98.9,97.8z"/>
				</g>
			</g>
			<g>
				<g>
					<path class="st1" d="M99.3,99.7c0.9,0.8-2.4,3.3-2.8,3.6c-3.1,2.3-6.7,3.9-10.3,4.9c-10.4,3.2-21.7,2.3-31.2-3
						c-1.6-0.9-3.2-1.8-4.5-3.1c-0.4-0.4-1.6-1.4-1.3-2.2c0.1-0.2-1.3-0.7-1.5-0.4c-0.3,0.7,0.6,1.5,1,1.9c1.1,1.1,2.5,2.2,3.9,3
						c4.3,2.7,9.2,4.4,14.3,5.4c10.1,1.9,21.7,0.3,30.3-5.5c0.6-0.4,5-3.5,3.6-4.6C100.3,99.6,98.9,99.5,99.3,99.7L99.3,99.7z"/>
				</g>
			</g>
			<g>
				<g>
					<path class="st1" d="M99.6,102.2c0,0,0.1,0,0,0.2c-0.1,0.3-0.3,0.6-0.5,0.8c-0.7,0.9-1.6,1.6-2.6,2.4
						c-3.2,2.3-6.9,3.8-10.6,4.8c-10.4,2.9-21.3,1.8-30.9-3.2c-1.6-0.9-3.3-1.8-4.7-3.1c-0.4-0.3-1.8-1.5-1.5-1.9
						c0.3-0.7-1.1-1.1-1.4-0.4c-0.4,0.8,0.4,1.6,0.8,2.2c1.1,1.1,2.5,2.2,3.8,3c4.4,2.8,9.5,4.6,14.7,5.5c6.2,1.2,12.5,0.9,18.6-0.6
						c4.3-1,8.7-2.8,12.3-5.3c0.9-0.6,4.9-3.5,3.2-5C100.2,101.1,98.9,101.6,99.6,102.2L99.6,102.2z"/>
				</g>
			</g>
			<g>
				<g>
					<path class="st1" d="M100.5,104.1c-0.6-0.6-0.3-0.4-0.5,0.2c-0.1,0.3-0.3,0.6-0.6,0.9c-0.7,0.9-1.6,1.6-2.6,2.3
						c-3.1,2.3-6.6,3.7-10.2,4.8C76.2,115.4,65,114.6,55,110c-1.8-0.9-3.7-1.8-5.4-3.2c-0.4-0.3-2.1-1.3-1.7-2.2
						c0.1-0.3-1-1.1-1-1.1c-0.3,0.7,0.7,1.6,1,2.2c1,1.1,2.4,2.1,3.6,3c4.4,2.9,9.4,4.7,14.6,5.8c6.4,1.3,12.8,1.1,19.1-0.4
						c4.4-1,8.9-2.8,12.6-5.4c1-0.8,2.3-1.7,2.9-2.9c0.5-0.9,0.2-1.4-0.5-2.2C99.6,102.9,100.1,103.8,100.5,104.1L100.5,104.1z"/>
				</g>
			</g>
			<g>
				<g>
					<path class="st1" d="M100.3,106.1c-0.1-0.1,0,0.2-0.1,0.3c-0.1,0.3-0.3,0.7-0.5,0.9c-0.7,0.9-1.6,1.6-2.5,2.4
						c-3.1,2.3-6.7,3.8-10.4,4.8c-10.7,3.1-22.1,2.3-32.1-2.6c-1.8-0.9-3.8-1.9-5.4-3.2c-0.3-0.3-1.9-1.3-1.6-1.9
						c0.2-0.4-1-1.3-1.2-0.9c-0.3,0.7,0.5,1.6,1,2.2c1.1,1.1,2.6,2.2,3.9,3c4.6,2.9,9.9,4.7,15.1,5.7c6.3,1.2,12.7,1,19-0.4
						c4.4-1,8.8-2.7,12.5-5.3c1.2-0.8,4.8-3.4,3-5.1C100.5,105.5,99.6,105.4,100.3,106.1L100.3,106.1z"/>
				</g>
			</g>
			<g>
				<g>
					<path class="st1" d="M100.6,108.2c-0.2-0.2-0.1,0.1-0.1,0.4c-0.1,0.4-0.3,0.7-0.5,1c-0.6,0.9-1.5,1.6-2.4,2.3
						c-3.1,2.4-6.9,3.9-10.6,4.9c-10.8,3.1-22.4,2.2-32.5-2.6c-1.9-0.9-3.8-1.9-5.4-3.2c-0.4-0.3-2.1-1.4-1.7-2.1
						c0.2-0.4-1.1-1.2-1.2-0.9c-0.3,0.7,0.6,1.6,1,2.1c1.1,1.2,2.6,2.2,4,3c4.7,2.9,10.1,4.7,15.4,5.7c6.3,1.2,12.7,1,19-0.4
						c4.5-1,9.1-2.7,12.9-5.3c1.2-0.9,4.6-3.3,2.9-5.1C100.8,107.4,99.9,107.4,100.6,108.2L100.6,108.2z"/>
				</g>
			</g>
			<g>
				<g>
					<path class="st1" d="M100.5,110.5c0.9,1-2.1,3.3-2.7,3.7c-3.3,2.4-7.1,3.9-11,4.9c-11.1,2.9-22.9,1.7-33.1-3.4
						c-1.7-0.9-3.5-1.8-5.1-3.1c-0.4-0.3-1.9-1.5-1.7-2.1c0.3-0.8-1.1-0.7-1.4,0c-0.3,0.8,0.6,1.6,1.1,2.2c1.2,1.2,2.8,2.2,4.3,3
						c5,2.8,10.6,4.6,16.2,5.5c6.4,1,12.8,0.6,19.1-0.8c4.4-1,8.8-2.7,12.4-5.3c1.1-0.8,4.9-3.7,3.2-5.3
						C101.3,109.2,100,110,100.5,110.5L100.5,110.5z"/>
				</g>
			</g>
			<g>
				<g>
					<path class="st1" d="M101.6,112.8c-0.6-0.7-0.2-0.6-0.4,0c-0.1,0.4-0.4,0.8-0.6,1.1c-0.7,0.9-1.6,1.7-2.7,2.5
						c-3.1,2.3-6.8,3.7-10.4,4.6c-11,3.1-22.7,2.2-33.1-2.5c-2.1-0.9-4.1-1.9-6.1-3.2c-0.6-0.4-1.3-0.9-1.9-1.4
						c-0.2-0.1-0.4-0.3-0.5-0.5c0.1,0.3,0.1,0.3,0.2,0s-0.8-1.3-0.8-1.2c-0.3,0.7,0.7,1.9,1.2,2.5c1.1,1.2,2.6,2.1,3.9,2.9
						c5,3,10.8,4.9,16.4,6c6.7,1.1,13.5,0.8,20-0.8c4.3-1,8.8-2.7,12.4-5.5c1.7-1.3,3.9-3.4,1.9-5.5
						C100.8,111.2,101.4,112.6,101.6,112.8L101.6,112.8z"/>
				</g>
			</g>
			<g>
				<g>
					<path class="st1" d="M101.1,114c1.1,1.2-1.4,3.4-2.3,4.1c-3,2.4-6.7,3.9-10.3,5c-11.4,3.4-23.8,2.7-34.7-2.2
						c-2.1-0.9-4.1-1.9-6-3.3c-0.5-0.3-2.3-1.5-1.9-2.4c0.1-0.2-1.3-0.9-1.3-0.7c-0.3,0.7,0.9,1.6,1.3,2.1c1.3,1.1,2.9,2.1,4.4,3
						c4.8,2.7,10.2,4.5,15.5,5.5c6.7,1.3,13.6,1.1,20.3-0.3c4.4-0.9,8.9-2.5,12.7-5c1.1-0.7,5-3.5,3.4-5.2c-0.2-0.2-0.6-0.5-0.9-0.5
						C101.3,114,100.8,113.8,101.1,114L101.1,114z"/>
				</g>
			</g>
			<g>
				<g>
					<path class="st1" d="M101.3,116.7c1.1,1.3-1.7,3.6-2.6,4.2c-3.2,2.5-7.2,3.9-11,4.8c-11.6,3-23.9,1.7-34.8-3.4
						c-1.9-0.9-3.9-1.9-5.5-3.2c-0.4-0.3-2.2-1.4-1.8-2.2c0.2-0.4-1.2-0.1-1.4,0.3c-0.3,0.7,0.9,1.7,1.4,2.1
						c1.4,1.2,3.2,2.2,4.8,3.1c5.3,2.8,11.2,4.5,17,5.3c6.6,0.9,13.4,0.4,19.9-1.1c4.3-1,8.6-2.7,12.2-5.3c1.2-0.8,4.6-3.5,3.1-5.3
						C102.3,115.6,100.9,116.3,101.3,116.7L101.3,116.7z"/>
				</g>
			</g>
			<g>
				<g>
					<path class="st1" d="M101.5,118.5c1.1,1.3-1.5,3.5-2.4,4.2c-3.1,2.5-7,3.9-10.8,4.9c-11.7,3.2-24.1,2.1-35.2-2.9
						c-2.1-0.9-4.1-1.9-6-3.3c-0.4-0.3-2.4-1.5-2.1-2.2c0.2-0.6-1.3-0.7-1.4-0.3c-0.3,0.8,0.7,1.6,1.2,2.1c1.4,1.2,3.2,2.3,4.8,3.1
						c5.4,2.8,11.4,4.6,17.3,5.5c6.6,0.9,13.3,0.6,19.9-0.8c4.4-1,9-2.6,12.7-5.2c1.3-0.9,4.7-3.6,3.1-5.4
						C102.5,117.9,101.1,118,101.5,118.5L101.5,118.5z"/>
				</g>
			</g>
			<g>
				<g>
					<path class="st1" d="M101.9,120.9c0.2,0.3,0.1,0.9-0.2,1.4c-0.5,1-1.4,1.7-2.4,2.5c-3.2,2.4-7,3.8-10.9,4.8
						c-11.8,3.1-24.3,2.1-35.5-2.8c-2.2-0.9-4.3-1.9-6.2-3.3c-0.6-0.4-1.1-0.8-1.6-1.2c-0.2-0.2-0.3-0.3-0.5-0.5
						c-0.1-0.2-0.1,0-0.1,0c0.3-0.8-1.1-1.4-1.4-0.6c-0.3,0.9,0.7,1.8,1.3,2.4c1.4,1.2,3.1,2.3,4.8,3.1c5.4,2.9,11.4,4.7,17.4,5.6
						c6.9,1,14,0.7,20.7-0.8c4.4-1,9-2.6,12.7-5.3c1.5-1.1,4.6-3.8,2.9-6C102.4,119.4,101.3,120.1,101.9,120.9L101.9,120.9z"/>
				</g>
			</g>
			<g>
				<g>
					<path class="st1" d="M102.1,122.8c1,1.2-1.6,3.4-2.5,4.1c-3.2,2.5-7.1,3.9-10.9,4.9c-12,3.1-24.7,2.1-36.1-2.8
						c-2.2-0.9-4.2-1.9-6.2-3.2c-0.6-0.4-1.2-0.8-1.8-1.3c-0.2-0.2-0.5-0.7-0.5-0.6c0.3-0.7-1.1-1.4-1.3-0.7
						c-0.3,0.9,0.6,1.8,1.3,2.4c1.4,1.2,3.2,2.3,4.8,3.1c5.5,2.9,11.6,4.7,17.7,5.6c6.9,1.1,14.2,0.7,20.9-0.8c4.5-1,9-2.6,12.8-5.2
						c1.5-1.1,4.6-3.8,2.9-5.8C102.8,121.7,101.5,122,102.1,122.8L102.1,122.8z"/>
				</g>
			</g>
			<g>
				<g>
					<path class="st1" d="M102.2,124.7c1.2,1.5-1,3.6-2.2,4.5c-3,2.5-6.9,3.9-10.6,4.9c-12.3,3.4-25.5,2.2-37.1-2.9
						c-2.2-0.9-4.3-1.9-6.3-3.3c-0.4-0.3-2.6-1.5-2.3-2.3c0.2-0.5-1.3-0.5-1.5-0.1c-0.3,0.8,0.9,1.6,1.4,2.1
						c1.5,1.2,3.4,2.3,5.2,3.1c5.7,2.8,11.9,4.6,18.3,5.4c6.8,0.9,13.9,0.5,20.6-0.9c4.5-0.9,9.1-2.5,12.8-5.1
						c1.3-0.9,4.7-3.6,3.1-5.6C103.5,124.2,101.9,124.4,102.2,124.7L102.2,124.7z"/>
				</g>
			</g>
		</g>
		<g>
			<g>
				<g>
					<path class="st15" d="M98,89.5C98,89.5,98,89.4,98,89.5c-0.1,0.3-0.2,0.7-0.3,1c-0.5,1.1-1.2,2.1-2.1,3c-2.8,3-6.7,5-10.6,6.2
						c-6.1,1.7-12.5,1.4-18.7,0.2c-4.3-0.9-8.8-2.4-12.2-5.4c-1-0.9-3.8-3.9-2.5-5.3c0.6-0.7-0.7-1.3-1.3-0.7
						c-1.5,1.6,0.3,4.5,1.4,5.8c3.1,3.5,7.7,5.3,12.1,6.5c10.9,2.8,24.7,2.4,32.8-6.5c0.7-0.8,4.4-5.4,1.5-6
						C97.6,88,97.1,89.3,98,89.5L98,89.5z"/>
				</g>
			</g>
			<g>
				<g>
					<path class="st16" d="M98.5,92c-0.3-0.1-0.1-0.4-0.2-0.1s-0.2,0.6-0.3,1c-0.5,1.1-1.4,2.1-2.3,2.9c-3,3-6.9,4.9-10.9,6.1
						c-6.1,1.6-12.4,1.4-18.6,0.2c-4.4-0.9-8.9-2.5-12.3-5.3c-1-0.8-4-3.8-2.7-5c0.6-0.6-0.6-1.5-1.2-0.9c-1.6,1.6,0.5,4.4,1.6,5.6
						c3.2,3.4,7.9,5.3,12.3,6.5c11,2.8,24.7,2.3,33.1-6.4c0.8-0.8,4.6-5.3,1.6-6C97.8,90.6,97.7,91.8,98.5,92L98.5,92z"/>
				</g>
			</g>
			<g>
				<g>
					<path class="st31" d="M99.5,94.5c-0.3-0.1-0.4-0.8-0.6-0.5c0,0.1,0,0.3-0.1,0.4c-0.1,0.4-0.3,0.8-0.5,1.2
						c-0.7,1.1-1.5,2.1-2.6,3c-3.1,2.8-7,4.7-11,5.8c-5.8,1.6-12.1,1.5-18.2,0.4c-4.6-0.8-9.4-2.4-13.2-5.3
						c-0.9-0.7-4.2-3.7-2.7-5.1c0.2-0.2-0.9-1.2-1.1-1c-1.5,1.4,1.2,4.4,2.2,5.3c3.3,3.3,7.8,5.2,12.2,6.5c11,3,24.8,2.5,33.5-6.1
						c1-0.9,2.2-2.2,2.6-3.6c0.3-0.9-0.3-1.8-1.3-2.1C98.2,93.4,99.2,94.4,99.5,94.5L99.5,94.5z"/>
				</g>
			</g>
			<g>
				<g>
					<path class="st32" d="M99,97.1c0.9,0.3-2.5,3.9-2.8,4.1c-3.3,3-7.4,4.8-11.7,6c-6.1,1.5-12.5,1.2-18.6-0.1
						c-4.4-0.9-8.8-2.6-12.4-5.3c-1.1-0.9-2.3-1.9-3.1-3.2C50.1,98,49.7,97,50,96.7c0.7-0.7-0.6-0.6-1-0.2c-1.6,1.5,0.8,4.1,1.8,5
						c3.5,3.3,8.2,5.1,12.8,6.3c11.2,2.8,24.2,1.8,33.2-6.1c0.5-0.4,5.1-4.9,3-5.5C99.5,95.9,98.3,96.9,99,97.1L99,97.1z"/>
				</g>
			</g>
			<g>
				<g>
					<path class="st33" d="M99.8,99.7c-0.5-0.2-0.1-0.5-0.4-0.1c-0.2,0.3-0.4,0.7-0.6,1c-0.7,1-1.7,1.9-2.8,2.8
						c-3.4,2.8-7.5,4.6-11.8,5.7c-6,1.4-12.2,1.2-18.2,0c-4.4-0.9-8.9-2.5-12.7-5.1c-1.2-0.8-2.4-1.8-3.2-3.1
						c-0.2-0.3-0.4-0.7-0.5-1.1c-0.1-0.3,0-0.4,0.1-0.5c0.7-0.6-0.5-1.6-1.1-1c-1.7,1.5,1.2,4.4,2.3,5.3c3.6,3.2,8.3,5.1,12.8,6.3
						c11.3,2.9,24.5,2.1,33.8-5.7c0.8-0.7,5.5-5,2.7-6C99.1,98.1,98.9,99.5,99.8,99.7L99.8,99.7z"/>
				</g>
			</g>
			<g>
				<g>
					<path class="st34" d="M99.8,102.2c0.4,0.1-0.2,0.9-0.4,1.2c-0.8,1-1.7,1.9-2.8,2.8c-3.5,2.8-7.7,4.6-12.1,5.6
						c-6.1,1.4-12.4,1.1-18.5-0.1c-4.4-0.9-8.9-2.5-12.7-5c-1.3-0.8-2.6-1.8-3.5-3.1c-0.3-0.4-0.6-0.8-0.7-1.2
						c0-0.1-0.1-0.3-0.1-0.4c0-0.2,0,0,0,0c0.8-0.6-0.2-0.9-0.8-0.4c-1.7,1.4,1.1,4,2.2,4.8c3.6,3.1,8.2,4.9,12.8,6.1
						c11.4,3,24.4,1.8,34-5.5c0.4-0.3,5.7-4.9,3.8-5.6C100.3,101,99.3,102,99.8,102.2L99.8,102.2z"/>
				</g>
			</g>
			<g>
				<g>
					<path class="st35" d="M100.3,104.1c-0.3-0.1-0.1,0.1-0.2,0.4c-0.1,0.4-0.4,0.7-0.6,1c-0.8,1-1.8,1.9-2.9,2.7
						c-3.5,2.8-7.7,4.6-12,5.8c-6,1.6-12.1,1.5-18.2,0.5c-5-0.9-10.1-2.6-14.3-5.5c-0.6-0.4-4.9-3.6-3.4-4.7
						c-0.1,0.1-1.1-0.7-1.4-0.5c-1.4,1.1,2.6,4.1,3.2,4.5c3.7,2.7,8.1,4.4,12.5,5.6c11.4,3.1,24.1,2.4,34-4.5c0.6-0.4,6.2-4.5,4-5.3
						C100.9,104.1,99.5,103.7,100.3,104.1L100.3,104.1z"/>
				</g>
			</g>
			<g>
				<g>
					<path class="st36" d="M101.1,107.4c-0.3-0.2-0.3-0.6-0.4-0.5c0,0-0.2,0.3-0.2,0.4c-0.2,0.4-0.6,0.7-0.9,1.1
						c-1,1-2.2,1.9-3.4,2.8c-3.8,2.6-8.1,4.3-12.6,5.3c-5.8,1.3-11.9,1.1-17.8,0c-4.6-0.9-9.1-2.5-13.1-4.8
						c-1.3-0.8-2.8-1.7-3.8-2.9c-0.3-0.3-0.6-0.7-0.8-1c-0.1-0.2-0.1-0.2,0-0.2c0.6-0.4-0.2-1.7-0.8-1.3c-1.8,1.3,1.8,4.2,2.7,4.9
						c3.8,3,8.4,4.8,12.9,6.1c11.7,3.2,24.8,2.1,34.9-5.1c0.9-0.6,6.3-4.5,3.5-5.8C100.3,105.7,100.5,107.1,101.1,107.4L101.1,107.4
						z"/>
				</g>
			</g>
			<g>
				<g>
					<path class="st37" d="M100.9,109.6c0.6,0.3-3.8,3.9-4.2,4.1c-3.8,2.6-8.2,4.4-12.7,5.4c-10.4,2.4-22.5,0.4-31.6-5.1
						c-0.4-0.2-5.6-3.9-4.7-4.5c0.7-0.4-0.8-0.6-1.1-0.3c-1.6,1.1,2.4,3.8,3.1,4.3c4,2.8,8.8,4.6,13.5,5.7
						c11.6,2.8,23.9,1.6,34.1-4.8c0.5-0.3,6.6-4.5,4.9-5.3C101.8,108.9,100.4,109.3,100.9,109.6L100.9,109.6z"/>
				</g>
			</g>
			<g>
				<g>
					<path class="st38" d="M101.3,111.9c0.7,0.4-4,3.9-4.3,4.1c-3.9,2.6-8.4,4.4-13,5.4c-10.5,2.5-22.5,0.3-31.8-5
						c-0.3-0.2-6-3.9-4.8-4.5c0.3-0.2-1-0.4-1.3-0.2c-1.4,0.9,3.1,3.8,3.6,4.1c4.1,2.7,8.8,4.4,13.6,5.5c11.6,2.8,23.8,1.6,34.2-4.5
						c0.5-0.3,6.8-4.3,5.4-5.2C102.3,111.5,100.9,111.7,101.3,111.9L101.3,111.9z"/>
				</g>
			</g>
			<g>
				<g>
					<path class="st39" d="M101.7,114.8c0.8,0.5-4.3,3.8-4.6,4c-4.3,2.6-9.2,4.3-14.2,5.2c-10.3,1.8-21.6-0.3-30.7-5.2
						c-1.5-0.8-3-1.7-4.3-2.8c-0.4-0.3-0.8-0.7-1-1.1c-0.4-0.6,0.1-0.6-0.8-0.2c0.5-0.3,1-1.1,0.1-0.6c-0.8,0.4-1.1,0.9-0.6,1.6
						c0.7,1,1.8,1.7,2.9,2.4c4.2,2.8,9,4.5,13.9,5.7c6.4,1.6,13.1,2.2,19.6,0.9c5.2-0.9,10.4-2.9,15.1-5.5c0.4-0.2,7.3-4.6,6.1-5.4
						C102.6,113.8,101.5,114.7,101.7,114.8L101.7,114.8z"/>
				</g>
			</g>
			<g>
				<g>
					<path class="st40" d="M102.9,117.6c-0.2-0.3-0.3-0.6-0.5-0.9c0,0,0,0,0,0.1c0,0,0,0.1-0.1,0.1c-0.1,0.1-0.2,0.3-0.3,0.4
						c-0.3,0.4-0.7,0.7-1.1,1c-1.2,1-2.7,1.8-4,2.6c-4.2,2.4-8.8,4-13.4,5c-10.5,2.3-21.8,0.2-31.3-4.4c-1.6-0.8-3.4-1.7-4.8-2.8
						c-0.4-0.3-0.8-0.7-1.3-1c-0.5-0.4-0.1,0.1,0,0.1c0.3-0.1-0.4-1.5-0.8-1.3c-1.5,0.7,2.9,3.9,3.3,4.2c4.1,2.7,8.8,4.4,13.5,5.7
						c6.4,1.7,13.1,2.4,19.7,1.3c5.6-0.9,11.3-2.9,16.3-5.7c1.1-0.7,7.2-3.6,4.6-5.6C102,115.9,102.5,117.3,102.9,117.6L102.9,117.6
						z"/>
				</g>
			</g>
			<g>
				<g>
					<path class="st41" d="M102.5,120C102.4,119.8,102.5,119.8,102.5,120c-0.1-0.1-0.2,0.2-0.3,0.2c-0.3,0.3-0.7,0.6-1.1,0.9
						c-1.3,1-2.8,1.8-4.2,2.6c-4.3,2.3-9,4-13.9,4.9c-10.4,2.1-21.6-0.1-31.1-4.7c-1.6-0.7-3.2-1.6-4.6-2.6c-0.5-0.3-0.9-0.6-1.3-1
						c-0.6-0.6,0-0.4-0.8,0c0.8-0.4,0.5-1.4-0.3-1c-2.4,1,2.1,3.5,2.8,3.9c4.3,2.6,9.1,4.3,14,5.5c6.3,1.6,12.9,2.3,19.4,1.3
						c5.6-0.8,11.3-2.7,16.4-5.3c0.6-0.3,7.9-4.2,6.5-5.5C103.4,118.7,101.9,119.4,102.5,120L102.5,120z"/>
				</g>
			</g>
			<g>
				<g>
					<path class="st42" d="M103.5,122.4c-1.1-1.2,0-0.7-0.4-0.5c-0.1,0.1-0.2,0.3-0.3,0.4c-0.4,0.4-0.8,0.7-1.2,1
						c-1.3,0.9-2.9,1.7-4.3,2.6c-4.5,2.3-9.3,4-14.3,4.9c-10.5,2.1-21.6-0.1-31.2-4.4c-1.7-0.8-3.5-1.6-5.1-2.7
						c-0.5-0.3-0.9-0.7-1.4-1c-0.6-0.4,0,0.1,0,0.2c0.3-0.1-0.4-1.4-0.9-1.2c-0.7,0.3,0.4,1.5,0.6,1.8c0.9,0.9,2.1,1.5,3.2,2.2
						c4.3,2.5,9.1,4.2,14,5.4c6.3,1.6,12.8,2.4,19.2,1.4c5.8-0.8,11.6-2.7,16.8-5.3c1.8-0.9,3.7-1.9,5.3-3.2
						c0.8-0.6,1.4-1.3,0.6-2.3C103,121,103,121.9,103.5,122.4L103.5,122.4z"/>
				</g>
			</g>
			<g>
				<g>
					<path class="st1" d="M103.4,125c-0.2-0.3,0.1-0.4-0.1-0.3c-0.1,0-0.3,0.3-0.4,0.4c-0.4,0.4-0.8,0.7-1.3,0.9
						c-1.3,0.9-2.8,1.6-4.3,2.4c-4.4,2.2-9.2,3.8-14.1,4.7c-10.7,2.2-21.7,0-31.5-4.2c-1.7-0.7-3.6-1.6-5.2-2.6
						c-0.5-0.3-1.1-0.6-1.5-1c-0.1-0.1-0.3-0.3-0.4-0.3c-0.3-0.1,0.1,0,0,0c0,0,0,0.5-0.3,0.6c0.9-0.3,0.3-1.6-0.5-1.4
						c-2.5,0.7,3,3.8,3.5,4c4.6,2.5,9.5,4.2,14.6,5.4c6.4,1.5,12.9,2.3,19.4,1.3c5.6-0.8,11.3-2.7,16.4-5c0.9-0.4,8.4-3.6,7-5.5
						C104,123.6,102.8,124.2,103.4,125L103.4,125z"/>
				</g>
			</g>
		</g>
		<g>
			<path class="st43" d="M22.7,89.6c0,1.1-1.4,2.5-2.4,3c-1.3,0.8-3.5,4.2-3.8,5.3"/>
			<g>
				<path class="st14" d="M48.6,30.7c6.4-7.2,15.1-10.9,23.4-15.2c3.4-1.7,3.3-11.4,2.5-11.2c-17,4.8-8.2,8-12.5,11.2
					c-3.6,2.6-14.5,9.2-21.9,17.4c-0.9,1-3.1,6.5-2.4,6.5C39,39.5,47.7,31.7,48.6,30.7L48.6,30.7z"/>
			</g>
			<g>
				<path class="st1" d="M61.3,4.8C56,8,57.2,7.5,53,12.1c-4.7,5.1-8.1,10.9-12.4,16.3c-6,7.6-12.6,14.5-15.8,23.9
					c-5.6,16.5-9.1,34.7-6.1,52c0.2,1.3,4,1.5,3.7,0.1c-0.8-4.5-0.2-10.1-0.3-14.7c0.4-4.9,0.1-7.2,0.4-10.8c0.7-2.5,0-4.6,0.7-6.4
					s0.4-2.4,0.6-3.6c0.2-0.9,0.6-1.1,0.8-2.7c0.2-1.5,0-1.8,0.2-2.6c0.5-2.1,2.1-4.2,2.6-6.3c1.4-5,5.1-9.9,7.8-14.3
					c2.5-4.1,2.8-7.7,5.8-11.4c3.6-4.4,8.3-7.4,11.8-11.8c4.2-5.5,6.8-3.2,12.4-7.2C72.5,8,65.3,2.4,61.3,4.8z"/>
			</g>
			<g>
				<g>
					<path class="st1" d="M20.7,65c-1.2,6.8-2.5,13.6-3.3,20.4c-0.6,4.8-1,9.6-0.7,14.5c0.3,3.6,1.1,7.2,2.8,10.5
						c1.8,3.5,4.3,6.4,7.3,8.9c4.4,4,9.4,7.4,14.5,10.8c1.3,0.9,5.7-1,3.7-2.4c-7.3-4.9-15.7-10.2-20.3-17.9
						c-4.1-6.9-3.6-15.4-2.8-23.1c0.8-7.5,2.2-14.9,3.5-22.3C25.7,62.5,21,63.3,20.7,65L20.7,65z"/>
				</g>
			</g>
			<g>
				<g>
					<path class="st14" d="M52.7,18.9c1.6-2.3,3.2-4.6,4.8-6.9c0.2-0.3,0.4-0.6,0.7-0.8c0.3-0.3,0.3-0.3,0.6-0.6
						c0.7-0.6,1.2-0.9,2.1-1.4c1.5-0.9,3.2-1.8,4.7-2.7c0.3-0.2,0.6-0.5,0.2-0.8c-0.4-0.2-1.1,0-1.5,0.2c-2.4,1.3-4.8,2.5-7,4.2
						c-1.3,1.1-2.3,2.6-3.2,4c-1.1,1.6-2.3,3.3-3.5,4.8c-0.3,0.4,0.3,0.6,0.6,0.6C51.7,19.5,52.4,19.3,52.7,18.9L52.7,18.9z"/>
				</g>
			</g>
			<g>
				<g>
					<path class="st1" d="M62.6,11.5c0.6-0.4,1.3-0.9,1.9-1.4c0.3-0.3,1-0.7,0.8-1.2c-0.4-1.3-2.6,0-3.3,0.4c-3,1.6-6,3.4-8.8,5.1
						c-0.9,0.5-1.7,1-2.7,1.6c-0.4,0.2-0.5,0.7-0.2,1.1c0.3,0.3,1,0.3,1.4,0.1c3.7-2.2,7.4-4.3,10.9-6.7c1.9-1.3,3.9-2.8,5.6-4.4
						c1.1-1-0.6-1.7-1.5-1c-4.6,4.2-10.3,7.3-15.6,10.6c-0.1,0-0.2,0.1-0.2,0.1c-0.2,0.1,0.2-0.1,0.1,0L51,15.9
						c0.4,0.4,0.8,0.8,1.2,1.1c-0.5,0.3,0.1-0.1,0.3-0.2c0.4-0.3,0.8-0.5,1.3-0.8c1.3-0.8,2.7-1.6,4-2.4c1.4-0.8,2.9-1.6,4.3-2.5
						c0.3-0.2,0.9-0.5,1.4-0.8c0.2-0.1,0.8-0.3,1-0.5c-0.1,0.1-0.3,0.1-0.4,0.1c-0.6,0-1.1-0.3-0.9-0.9c0,0,0.2-0.3,0.1-0.1
						c-0.1,0.2,0.2-0.2,0,0C63.3,9,63.2,9,63.2,9.1c-0.6,0.5-1.3,0.9-1.9,1.4c-0.5,0.2-0.7,0.8-0.2,1.1C61.5,12,62.2,11.8,62.6,11.5
						L62.6,11.5z"/>
				</g>
			</g>
			<g>
				<path class="st14" d="M48.9,26.9c6.7-11.3,3-10.2,15-14.8c3-1.1,6.4-1.8,9.2-3.4c0.7-0.4,1.1-0.7,1.6-1.3
					c1.6-1.7-10.2,1.9-12.2,2.8c-5.4,2.1-14.2,9.6-18.2,16.4c-0.2,0.4-3.5,5.6-3.3,5.8c0,0,6.2-2.6,6.7-3.5L48.9,26.9z"/>
			</g>
			<path class="st44" d="M48.1,31.6c-2.8,1.5-6,1.1-8.5,1.6c-2.6,0.4-4.2,1.4-4.9,2.4"/>
			<path class="st44" d="M43.2,35.7c0,0-2.4,2.4-7.1,2.8s-5.2,1.8-5.2,1.8"/>
			<path class="st44" d="M36.8,41.7c0,0-3.2,2.1-6,3.1s-3.9,2.1-4.7,3.3"/>
			<path class="st44" d="M32.8,47.8c0,0-1.5,1.2-4.1,2.4c-2.6,1.1-4.6,4.3-5.1,5.3"/>
			<path class="st44" d="M29.3,53.8c0,0-1.9,3.4-2.9,3.8c-0.7,0.3-3.3,2.4-4.6,4.1"/>
			<path class="st44" d="M25.7,65.7c0,0-1.8,2.2-2.8,2.6c-1.3,0.7-3.4,3.2-3.8,4.3"/>
			<path class="st44" d="M24.3,71.4c-0.2,1.1-2.4,4.9-3.3,5.3c-1.3,0.6-2.9,2.3-3.3,3.4"/>
			<path class="st44" d="M23.6,80.9c-0.2,1.1-2.5,3.6-3.4,4.1c-1.3,0.6-3.3,2.8-3.7,3.9"/>
			<path class="st45" d="M22.8,105.6c0.2,1.1,0.5,3.5,0,4.6s-0.6,3.4-0.6,4.7"/>
			<path class="st44" d="M27.5,113.2c0.5,1,0.5,3.2,0,4.1c-0.7,1.3-1.2,1.6-0.8,2.9"/>
			<path class="st44" d="M31.3,117.6c0.7,0.9,1.1,3,0.8,4c-0.4,1.4-0.8,1.8-0.2,3"/>
			<path class="st44" d="M55.6,24.8c-2.6,1.6-9.5,1.2-10.8,1.4c-1.8,0.3-3.5,0.6-4.3,1.8"/>
			<g>
				<path class="st14" d="M47.6,24c9.1-7.4,19.2-8.9,21.1-10.7"/>
				<g>
					<path class="st1" d="M49.7,24.3c3.8-3.1,8.1-5.2,12.6-7.1c1.6-0.6,3.2-1.1,4.8-1.7c1.2-0.5,2.6-1,3.6-1.8
						c0.8-0.7,0.6-1.4-0.4-1.6c-1.2-0.2-2.9,0.2-3.8,1c-0.1,0.1-0.1,0.1-0.2,0.2c0.3-0.2,0.2-0.3,0.1-0.1c0,0-0.5,0.3,0,0
						c0.4-0.2,0,0-0.1,0c-0.6,0.2-1.2,0.5-1.8,0.7c-1.7,0.6-3.5,1.2-5.2,1.9c-4.9,1.9-9.6,4.5-13.8,7.9c-0.8,0.7-0.6,1.4,0.4,1.6
						C47.2,25.5,48.8,25.1,49.7,24.3L49.7,24.3z"/>
				</g>
			</g>
			<path class="st44" d="M73.2,14.9c-4.5,2.6-19.2,4-20.3,4c-1.7,0.1-6.4,1.3-7.2,2.3"/>
			<path class="st46" d="M27.8,57.2L27,59.6c1.4,0.2,1.7,0.6,1.7,1.1c0,0.8-1.9,1.4-4.4,1.4s-4.4-0.6-4.4-1.4c0-0.6,0.7-1.1,2.3-1.3
				l0.7-2.6c-4,0.2-6.7,2.1-6.7,4c0,2.2,3.6,3.8,8,3.8s8-1.7,8-3.8C32.4,59.2,31,57.8,27.8,57.2z"/>
			<g>
				<path class="st46" d="M23.8,66c-4.2,0.2-7.4-2.4-7.5-3l-0.1-2.4c0,1.4,3.1,3.7,7.6,3.7c3.7,0,6.8-1,7.8-2.3
					c0.2-0.3,0.4-0.8,0.4-0.8l-0.3,1.9C31.4,64.1,28,65.8,23.8,66z"/>
			</g>
		</g>
		<path class="st47" d="M40.4,129.8c0,0-1.3-0.6-0.9-2.8c0.3-1.5,1.9-2.6,3.5-2.3c1.5,0.3,2.6,1.9,2.3,3.5c-0.1,0.3-0.2,0.4-0.3,0.6
			l1.5,1.1c0.3-0.5,0.5-0.8,0.6-1.4c0.6-2.6-1-5.5-3.7-6.2c-2.6-0.6-5.6,1.4-6.2,4c-0.5,2.1,0.3,4.9,3,6.1L40.4,129.8z"/>
		<g>
			<g>
				<path class="st1" d="M40.5,128.8c3.5,2.9,7.2,5.6,11.2,7.9c4.5,2.6,10.1,3.4,15.2,3.9c7.9,0.8,16,0.3,23.7-1.6
					c4.9-1.2,10.6-3.4,13.6-7.7c0.8-1.1,1.3-2.4,1.4-3.7c0.1-1.4-0.8-1.5-2.3-1.1c-0.4,0.1-1.8,0.5-1.6,1.1c0.2,0.6,1.7,0.2,2.1,0.1
					c-0.6,0-1.2,0-1.8,0c0,0,0,0-0.1-0.1v0.1c0,0.1,0.1,0.2,0.1,0.2c0,0.3,0,0.6,0,0.8c-0.2,1-0.7,2.1-1.2,3
					c-2.7,3.8-7.6,5.3-11.9,6.4c-6.8,1.5-13.9,1.6-20.7,0.8c-4.3-0.5-9-1.3-12.8-3.5c-3.9-2.3-7.6-5-11.2-7.9
					C43.1,126.8,39.7,128.3,40.5,128.8L40.5,128.8z"/>
			</g>
		</g>
		<path class="st44" d="M22.3,89.8c0,1.1-1.4,2.5-2.4,3c-1.3,0.7-3.5,4.1-3.8,5.3"/>
		<path class="st44" d="M22.1,97.4c0.1,1.6-1.5,4.4-2.5,5.3c-1.4,1.3-1.4,2.7-1.6,4.3"/>
	</g>
	<path class="st48" d="M45.4,128.9"/>
</g>
</svg>
