<?xml version="1.0" encoding="utf-8"?>
<!-- Generator: Adobe Illustrator 25.2.1, SVG Export Plug-In . SVG Version: 6.00 Build 0)  -->
<svg version="1.1" id="Layer_1" xmlns="http://www.w3.org/2000/svg" xmlns:xlink="http://www.w3.org/1999/xlink" x="0px" y="0px"
	 viewBox="0 0 410 462.5" style="enable-background:new 0 0 410 462.5;" xml:space="preserve">
<style type="text/css">
	.st0{fill:#CAB7B7;stroke:#FFFFFF;stroke-width:1.171;stroke-miterlimit:10;}
	.st1{fill:#D75E40;}
	.st2{fill:#D85C3F;}
	.st3{fill:#D85A3D;}
	.st4{fill:#D8573C;}
	.st5{fill:#D8553B;}
	.st6{fill:#D85339;}
	.st7{fill:#D85138;}
	.st8{fill:#D84F36;}
	.st9{fill:#D84D35;}
	.st10{fill:#D84B34;}
	.st11{fill:#D84932;}
	.st12{fill:#D84731;}
	.st13{fill:#D84530;}
	.st14{fill:#D8422E;}
	.st15{fill:#DC3359;}
	.st16{fill:#DD3758;}
	.st17{fill:#DE3C57;}
	.st18{fill:#E04055;}
	.st19{fill:#E14554;}
	.st20{fill:#E34952;}
	.st21{fill:#E44E51;}
	.st22{fill:#E55250;}
	.st23{fill:#E7574E;}
	.st24{fill:#E85B4D;}
	.st25{fill:#E9604B;}
	.st26{fill:#EB644A;}
	.st27{fill:#EC6949;}
	.st28{fill:#ED6D47;}
	.st29{fill:#E4DAD8;stroke:#FFFFFF;stroke-width:1.171;stroke-miterlimit:10;}
	.st30{fill:none;stroke:#FFFFFF;stroke-width:1.171;stroke-miterlimit:10;}
	.st31{fill:#CAB7B7;stroke:#FFFFFF;stroke-width:1.171;stroke-linejoin:bevel;stroke-miterlimit:10;}
	.st32{fill:#D55C3F;}
	.st33{fill:#D35B3E;}
	.st34{fill:#D05A3D;}
	.st35{fill:#CE583C;}
	.st36{fill:#CB573C;}
	.st37{fill:#C9563B;}
	.st38{fill:#C6553A;}
	.st39{fill:#C45339;}
	.st40{fill:#C25238;}
	.st41{fill:#BF5137;}
	.st42{fill:#BD4F36;}
	.st43{fill:#BA4E35;}
	.st44{fill:#B84D34;}
	.st45{fill:#B54B33;}
	.st46{fill:#DB3658;}
	.st47{fill:#DB3956;}
	.st48{fill:#DB3C54;}
	.st49{fill:#DB3F52;}
	.st50{fill:#DA4250;}
	.st51{fill:#DA454F;}
	.st52{fill:#DA484D;}
	.st53{fill:#D94B4B;}
	.st54{fill:#D94E49;}
	.st55{fill:#D95147;}
	.st56{fill:#D85546;}
	.st57{fill:#D85844;}
	.st58{fill:#D85B42;}
	.st59{fill:none;stroke:#FFFFFF;stroke-width:0.9764;stroke-miterlimit:10;}
	.st60{fill:#92392D;}
	.st61{fill:#91392D;}
	.st62{fill:none;stroke:#FFFFFF;stroke-width:0.6881;stroke-miterlimit:10;}
	.st63{fill:none;stroke:#FFFFFF;stroke-width:0.6956;stroke-miterlimit:10;}
	.st64{fill:none;stroke:#FFFFFF;stroke-width:0.6882;stroke-miterlimit:10;}
	.st65{fill:#522321;stroke:#FFFFFF;stroke-width:0.5855;stroke-miterlimit:10;}
	.st66{fill:#512320;stroke:#FFFFFF;stroke-width:0.5855;stroke-miterlimit:10;}
	.st67{fill:#92392D;stroke:#FFFFFF;stroke-width:1.171;stroke-miterlimit:10;}
	.st68{fill:#E4DAD8;stroke:#FFFFFF;stroke-width:1.1201;stroke-miterlimit:10;}
</style>
<g>
	<g>
		<path class="st0" d="M166.96,269.85l68.27,0.35c0,0-5.27,45.63-8.29,69.61c-0.57,12.6-2.47,25.92-7.89,37.81
			c-9.66,21.2-25.03,37.87-25.03,37.87l1.5,33.97c0,0-3.41,13.38-27.51,13.85h-0.77c-24.09-0.47-27.51-13.85-27.51-13.85l1.5-33.97
			c0,0-15.37-16.67-25.03-37.87c-5.42-11.89-7.32-25.21-7.89-37.81c-3.02-23.99-8.29-69.61-8.29-69.61l68.27-0.35H166.96z"/>
		<path class="st0" d="M141.25,415.3c0,0,8.78,11.08,26.91,11.08s25.91-10.87,25.91-10.87"/>
		<g>
			<g>
				<g>
					<path class="st1" d="M233.16,275.37c0.95,1.18-0.18,2.62-1.08,3.51c-1.99,1.96-4.64,3.33-7.12,4.57
						c-8.31,4.16-17.37,6.95-26.36,9.19c-10.75,2.68-21.82,4.49-32.91,4.71c-12.65,0.25-25.45-1.58-37.61-5
						c-5.14-1.45-10.23-3.19-15.1-5.4c-1.75-0.8-3.48-1.65-5.14-2.63c-0.45-0.27-4.96-3.29-3.72-3.68c0.37-0.12,1.57-0.47,1.42-1.06
						c-0.15-0.56-1.43-0.31-1.76-0.21c-1.53,0.48-4.11,1.52-2.54,3.41c1.32,1.59,3.47,2.65,5.27,3.62
						c4.01,2.17,8.27,3.87,12.58,5.34c12.54,4.28,25.8,6.6,39.03,7.07c12.23,0.44,24.45-1.19,36.37-3.85
						c10.31-2.3,20.6-5.37,30.2-9.81c3.41-1.58,6.96-3.34,9.77-5.88c1.37-1.24,3.12-3.25,1.66-5.06
						C235.56,273.5,232.52,274.58,233.16,275.37L233.16,275.37z"/>
				</g>
			</g>
			<g>
				<g>
					<path class="st2" d="M232.15,282.32c0.9,1.35-0.3,2.78-1.28,3.69c-2.08,1.95-4.72,3.32-7.26,4.55
						c-8.31,4.05-17.3,6.78-26.26,8.96c-10.47,2.54-21.27,4.26-32.06,4.36c-12.52,0.11-25.14-1.78-37.15-5.26
						c-5.07-1.47-10.07-3.23-14.85-5.48c-1.69-0.8-3.36-1.65-4.96-2.63c-0.59-0.36-5.17-3.25-3.31-3.88
						c0.32-0.11,1.24-0.43,0.96-0.87c-0.26-0.39-1.77,0.11-2.04,0.2c-1.47,0.49-3.38,1.44-1.97,3.08c1.35,1.57,3.43,2.63,5.23,3.61
						c3.88,2.11,8.01,3.76,12.17,5.21c12.27,4.28,25.27,6.62,38.25,7.17c11.85,0.5,23.72-1,35.29-3.51
						c10.29-2.24,20.56-5.2,30.19-9.51c3.5-1.56,7.12-3.3,10.08-5.78c1.23-1.03,3.31-3.01,2.14-4.77
						C234.82,280.72,231.92,281.98,232.15,282.32L232.15,282.32z"/>
				</g>
			</g>
			<g>
				<g>
					<path class="st3" d="M231.25,289.43c0.08,0.14,0.13,0.29,0.17,0.44c0.02,0.08,0.04,0.43,0.04,0.22c0,0.37-0.1,0.59-0.17,0.75
						c-0.39,0.81-0.87,1.24-1.62,1.88c-2.02,1.75-4.84,3.17-7.37,4.35c-8.28,3.88-17.16,6.55-26.04,8.66
						c-10.27,2.44-20.86,4.13-31.43,4.19c-12.23,0.07-24.55-1.81-36.28-5.24c-4.95-1.45-9.84-3.18-14.51-5.38
						c-1.69-0.79-3.36-1.65-4.95-2.62c-1.07-0.65-2.18-1.31-3.08-2.19c-0.17-0.17-0.77-0.67-0.69-0.98
						c0.01-0.05-0.05-0.02-0.05-0.01c0,0.03,0.37-0.14,0.42-0.16c0.51-0.19,1.24-0.82,0.81-1.39c-0.44-0.6-1.58-0.3-2.12-0.1
						c-1.82,0.66-3.01,2.09-1.5,3.74c1.4,1.53,3.43,2.61,5.23,3.61c3.85,2.12,7.94,3.79,12.07,5.26c11.95,4.25,24.64,6.63,37.3,7.27
						c11.64,0.59,23.26-0.79,34.64-3.19c10.08-2.12,20.14-4.99,29.59-9.13c3.55-1.55,7.17-3.29,10.19-5.75
						c1.32-1.08,3.54-3.17,2.52-5.1C233.8,287.41,230.71,288.41,231.25,289.43L231.25,289.43z"/>
				</g>
			</g>
			<g>
				<g>
					<path class="st4" d="M230.34,296.54c0.57,1.45-0.96,2.8-1.95,3.62c-2.21,1.83-4.89,3.14-7.48,4.33
						c-8.24,3.79-17.07,6.36-25.89,8.4c-9.96,2.3-20.23,3.85-30.47,3.79c-12.08-0.07-24.23-2.03-35.78-5.52
						c-4.82-1.46-9.57-3.2-14.11-5.38c-1.66-0.8-3.29-1.66-4.86-2.63c-1.08-0.67-2.23-1.38-3.12-2.3c-0.26-0.27-0.66-0.66-0.68-1.07
						c-0.02-0.25,0.19-0.55,0.1-0.52c0.31-0.12,1.25-0.42,0.95-0.87c-0.25-0.39-1.77,0.09-2.04,0.19c-1.69,0.67-2.96,1.62-1.42,3.24
						c1.39,1.47,3.33,2.52,5.09,3.49c3.69,2.04,7.61,3.67,11.57,5.1c11.74,4.25,24.19,6.65,36.65,7.34
						c11.31,0.63,22.61-0.63,33.68-2.9c10.12-2.08,20.19-4.89,29.72-8.91c3.58-1.51,7.21-3.19,10.32-5.54
						c1.27-0.96,3.62-2.81,2.88-4.7C233.23,294.96,230.11,295.96,230.34,296.54L230.34,296.54z"/>
				</g>
			</g>
			<g>
				<g>
					<path class="st5" d="M229.43,303.65c0.35,1.4-1.28,2.67-2.33,3.46c-2.31,1.74-4.99,3.01-7.63,4.17
						c-8.3,3.65-17.12,6.18-25.96,8.15c-9.71,2.16-19.72,3.62-29.69,3.47c-11.82-0.17-23.73-2.15-35.01-5.66
						c-4.67-1.45-9.27-3.18-13.66-5.32c-1.61-0.78-3.19-1.62-4.71-2.58c-1.08-0.68-2.23-1.4-3.11-2.33
						c-0.08-0.08-0.94-1.14-0.64-1.27c0.36-0.16,1.3-0.59,0.89-1.11c-0.38-0.47-1.67-0.12-2.08,0.06c-1.6,0.7-2.64,1.77-1.31,3.31
						c1.32,1.53,3.32,2.58,5.06,3.57c3.62,2.05,7.47,3.71,11.36,5.15c11.3,4.19,23.3,6.63,35.31,7.46
						c11.3,0.78,22.53-0.32,33.62-2.52c9.91-1.97,19.78-4.64,29.13-8.49c3.63-1.49,7.3-3.15,10.51-5.43
						c1.42-1.01,3.94-2.87,3.42-4.94C232.37,301.87,229.19,302.69,229.43,303.65L229.43,303.65z"/>
				</g>
			</g>
			<g>
				<g>
					<path class="st6" d="M228.53,310.76c0.17,1.48-1.63,2.76-2.67,3.5c-2.41,1.71-5.14,2.99-7.85,4.14
						c-8.25,3.5-16.98,5.97-25.74,7.83c-9.45,2.01-19.19,3.42-28.87,3.14c-11.64-0.34-23.25-2.3-34.35-5.84
						c-4.59-1.46-9.11-3.19-13.42-5.35c-1.52-0.76-3.02-1.58-4.46-2.49c-0.35-0.22-4.92-3.27-3.63-3.89
						c0.43-0.21,0.93-0.6,0.36-0.92c-0.55-0.31-1.73,0.14-2.22,0.38c-1.77,0.86-1.81,2.05-0.45,3.36c1.41,1.36,3.21,2.39,4.91,3.35
						c3.57,2.01,7.36,3.65,11.19,5.08c11.02,4.12,22.72,6.54,34.44,7.41c11,0.82,21.94-0.2,32.75-2.29
						c9.75-1.88,19.47-4.47,28.7-8.14c3.66-1.46,7.37-3.07,10.65-5.28c1.48-1,4.05-2.73,3.82-4.83
						C231.62,309.2,228.42,309.83,228.53,310.76L228.53,310.76z"/>
				</g>
			</g>
			<g>
				<g>
					<path class="st7" d="M227.6,317.57c-0.02,0.63-0.23,0.9-0.67,1.4c-0.6,0.68-1.23,1.14-2.13,1.75c-2.48,1.67-5.3,2.92-8.08,4.07
						c-8.16,3.37-16.78,5.72-25.4,7.54c-9.16,1.93-18.64,3.29-28.02,3c-11.47-0.35-22.93-2.28-33.85-5.8
						c-4.47-1.44-8.89-3.13-13.09-5.23c-1.52-0.76-3.01-1.57-4.45-2.48c-1.02-0.64-2.07-1.3-2.96-2.13
						c-0.32-0.3-0.53-0.69-0.83-0.99c-0.25-0.25,0.16-0.21-0.27,0.02c1.9-1.03,0.18-2.64-1.38-1.79c-4.45,2.43,1.92,6.08,4.12,7.37
						c3.44,2.02,7.11,3.67,10.82,5.12c10.78,4.21,22.28,6.73,33.8,7.74c10.8,0.95,21.46,0.1,32.1-1.83
						c9.68-1.76,19.28-4.28,28.47-7.81c3.67-1.41,7.34-2.99,10.66-5.11c1.66-1.07,4.32-2.83,4.37-5.08
						C230.85,315.7,227.64,316.19,227.6,317.57L227.6,317.57z"/>
				</g>
			</g>
			<g>
				<g>
					<path class="st8" d="M226.72,324.77c-0.24,1.49-1.91,2.56-3.18,3.37c-2.61,1.66-5.49,2.91-8.36,4.04
						c-8.06,3.19-16.53,5.47-25.03,7.17c-9.15,1.83-18.5,3.03-27.84,2.61c-11.05-0.49-22.1-2.5-32.6-6
						c-4.35-1.45-8.64-3.16-12.73-5.24c-1.48-0.76-2.95-1.56-4.35-2.47c-1.04-0.67-2.09-1.37-2.98-2.23
						c-0.31-0.3-0.74-0.68-0.87-1.11c-0.08-0.29,0.06-0.53-0.13-0.41c0.45-0.28,0.91-0.72,0.32-1.1c-0.55-0.35-1.75,0.03-2.24,0.33
						c-3.7,2.31,2.91,5.74,4.81,6.85c3.38,1.97,6.96,3.58,10.6,5c10.4,4.06,21.46,6.54,32.57,7.57c10.45,0.97,20.78,0.3,31.11-1.52
						c9.66-1.7,19.25-4.12,28.45-7.53c3.7-1.37,7.42-2.9,10.8-4.95c1.7-1.04,4.46-2.64,4.82-4.83
						C230.06,323.24,226.88,323.8,226.72,324.77L226.72,324.77z"/>
				</g>
			</g>
			<g>
				<g>
					<path class="st9" d="M225.84,331.95c-0.49,1.64-2.33,2.74-3.7,3.57c-2.65,1.61-5.55,2.82-8.44,3.92
						c-8.05,3.06-16.46,5.25-24.91,6.86c-9.1,1.73-18.32,2.73-27.59,2.16c-10.86-0.67-21.71-2.79-31.97-6.41
						c-4.12-1.45-8.18-3.14-12.04-5.19c-1.26-0.67-9.38-5.22-7.52-6.57c0.59-0.43-0.53-0.47-0.73-0.46
						c-0.73,0.05-1.53,0.31-2.13,0.74c-2.61,1.89,4.33,5.62,5.74,6.43c3.33,1.91,6.85,3.5,10.42,4.89
						c10.23,3.99,21.07,6.45,31.99,7.47c10.12,0.95,20.08,0.3,30.08-1.41c9.44-1.61,18.82-3.94,27.83-7.17
						c3.76-1.35,7.52-2.85,11-4.83c1.76-1.01,4.45-2.46,5.09-4.58C229.12,330.82,226.07,331.17,225.84,331.95L225.84,331.95z"/>
				</g>
			</g>
			<g>
				<g>
					<path class="st10" d="M224.98,338.62c-0.24,0.55-0.78,1.12-1.2,1.47c-0.78,0.65-1.69,1.24-2.55,1.73
						c-2.76,1.58-5.75,2.79-8.73,3.89c-7.99,2.96-16.34,5.05-24.71,6.62c-8.66,1.62-17.47,2.59-26.29,2.07
						c-10.59-0.63-21.12-2.65-31.15-6.11c-4.13-1.42-8.18-3.08-12.05-5.1c-1.46-0.76-2.9-1.58-4.29-2.48
						c-1.02-0.66-2.07-1.35-2.95-2.19c-0.31-0.3-0.55-0.71-0.86-0.99c-0.32-0.29,0.06-0.56-0.41-0.15c1.62-1.41-0.93-2.3-2.07-1.31
						c-3.09,2.7,3.26,6.08,5.24,7.26c3.18,1.9,6.56,3.48,9.99,4.89c9.89,4.07,20.45,6.6,31.06,7.8c10,1.13,19.84,0.72,29.77-0.87
						c9.22-1.48,18.38-3.64,27.21-6.68c3.84-1.32,7.69-2.77,11.26-4.72c2.05-1.12,4.75-2.57,5.75-4.83
						C228.7,337.31,225.51,337.42,224.98,338.62L224.98,338.62z"/>
				</g>
			</g>
			<g>
				<g>
					<path class="st11" d="M224.07,345.72c-0.17,0.3,0.06-0.03-0.17,0.26c-0.11,0.14-0.24,0.28-0.36,0.41
						c-0.34,0.37-0.41,0.41-0.9,0.79c-0.9,0.69-1.81,1.23-2.79,1.74c-2.84,1.51-5.85,2.7-8.88,3.76c-7.99,2.8-16.29,4.85-24.63,6.31
						c-8.56,1.51-17.18,2.3-25.86,1.67c-10.33-0.75-20.59-2.85-30.34-6.35c-3.93-1.41-7.79-3.04-11.47-5.01
						c-1.4-0.75-2.77-1.55-4.1-2.42c-1.04-0.68-2.1-1.4-2.99-2.28c-0.3-0.3-0.53-0.64-0.8-0.95c-0.22-0.26,0.01-0.41-0.19-0.2
						c0.5-0.55,0.26-1.22-0.39-1.46c-0.73-0.28-1.73,0.04-2.24,0.6c-3.51,3.81,13.07,10.9,15.48,11.91
						c9.57,4.01,19.79,6.54,30.08,7.8c9.72,1.19,19.29,0.95,28.95-0.52c9.16-1.39,18.26-3.46,27.06-6.37
						c3.88-1.28,7.77-2.7,11.4-4.59c2.22-1.16,4.84-2.56,6.15-4.81c0.4-0.69-0.35-1.19-0.95-1.26
						C225.38,344.66,224.47,345.04,224.07,345.72L224.07,345.72z"/>
				</g>
			</g>
			<g>
				<g>
					<path class="st12" d="M223.2,352.93c-0.99,1.37-2.95,2.44-4.65,3.3c-2.88,1.45-5.92,2.6-8.97,3.63
						c-7.93,2.66-16.13,4.62-24.38,5.98c-8.39,1.39-16.75,2.03-25.24,1.32c-10-0.83-19.96-2.95-29.38-6.43
						c-3.85-1.42-7.64-3.07-11.25-5.03c-1.39-0.76-2.76-1.56-4.07-2.44c-0.51-0.34-4.56-3-3.96-3.88c0.43-0.63-0.37-0.94-0.87-0.97
						c-0.71-0.04-1.67,0.26-2.09,0.88c-0.91,1.32,0.85,2.81,1.74,3.57c1.39,1.18,2.94,2.19,4.5,3.14c3.05,1.84,6.28,3.39,9.57,4.77
						c9.34,3.91,19.28,6.44,29.32,7.71c5.1,0.64,10.25,1.05,15.39,0.87c4.32-0.15,8.61-0.58,12.89-1.2
						c8.93-1.3,17.81-3.27,26.4-6.01c3.9-1.24,7.8-2.61,11.47-4.43c2.33-1.15,4.98-2.49,6.54-4.66c0.45-0.62-0.38-0.94-0.87-0.98
						C224.57,352.01,223.63,352.32,223.2,352.93L223.2,352.93z"/>
				</g>
			</g>
			<g>
				<g>
					<path class="st13" d="M222.46,359.68c-1.24,1.45-3.25,2.49-5.12,3.38c-2.94,1.41-6.02,2.53-9.11,3.53
						c-7.86,2.54-15.97,4.4-24.12,5.68c-8.24,1.29-16.39,1.81-24.71,1.04c-9.73-0.9-19.37-3.04-28.53-6.47
						c-3.8-1.42-7.52-3.07-11.06-5.04c-1.34-0.74-2.65-1.53-3.91-2.39c-1-0.68-2.01-1.39-2.88-2.24c-0.31-0.3-0.65-0.62-0.87-0.99
						c-0.11-0.17-0.21-0.55-0.27-0.43c0.73-1.56-2.46-1.44-3.01-0.27c-0.68,1.46,0.97,2.83,1.94,3.68c1.37,1.19,2.89,2.21,4.43,3.15
						c2.98,1.82,6.12,3.35,9.32,4.74c8.97,3.88,18.53,6.39,28.2,7.76c9.27,1.31,18.42,1.33,27.69,0.09
						c8.77-1.18,17.49-3.03,25.96-5.59c3.96-1.19,7.91-2.53,11.67-4.26c2.46-1.13,5.22-2.46,7.02-4.56
						C226.36,359,223.32,358.68,222.46,359.68L222.46,359.68z"/>
				</g>
			</g>
			<g>
				<g>
					<path class="st14" d="M221.55,366.78c-1.6,1.61-4.26,2.81-6.53,3.79c-3.6,1.54-7.34,2.74-11.1,3.81
						c-8.7,2.47-17.65,4.27-26.64,5.22c-9.67,1.02-19.35,0.34-28.88-1.57c-8.8-1.77-17.53-4.55-25.53-8.65
						c-2.79-1.43-5.55-3.01-8.02-4.96c-0.71-0.56-1.33-1.07-1.92-1.81c-0.16-0.2-0.46-0.67-0.36-0.51
						c-0.05-0.08-0.09-0.21-0.09-0.31c0-0.02-0.05,0.25,0.03-0.01c0.24-0.76-0.96-0.98-1.44-0.94c-0.76,0.05-1.53,0.48-1.76,1.23
						c-0.37,1.18,1.23,2.51,1.97,3.16c1.98,1.76,4.24,3.19,6.54,4.49c7.74,4.39,16.29,7.43,24.92,9.48
						c10.14,2.41,20.69,3.65,31.11,2.84c9.47-0.74,18.93-2.53,28.1-4.97c4.66-1.24,9.29-2.66,13.75-4.5
						c2.98-1.23,6.19-2.66,8.49-4.97c0.52-0.53,0.26-1.19-0.38-1.42C223.06,365.91,222.09,366.25,221.55,366.78L221.55,366.78z"/>
				</g>
			</g>
		</g>
		<g>
			<g>
				<g>
					<path class="st15" d="M235.08,280.71c0.11,0.14,0.2,0.29,0.29,0.44c0.04,0.07-0.04-0.25,0.02,0.11
						c0.04,0.21,0.01,0.35-0.03,0.46c-0.07,0.2-0.15,0.39-0.24,0.58c0.18-0.39-0.07,0.11-0.16,0.23c-0.15,0.22-0.3,0.42-0.46,0.63
						c-0.05,0.06-0.21,0.25,0.02-0.02c-0.13,0.15-0.26,0.3-0.4,0.44c-2.11,2.21-4.56,3.7-7.25,5.25
						c-8.46,4.85-17.82,8.22-27.19,10.83c-10.84,3.02-22.15,4.97-33.43,4.78c-12.9-0.22-25.74-3.46-37.78-7.95
						c-5.35-2-10.6-4.27-15.68-6.88c-1.77-0.91-3.53-1.86-5.24-2.89c-1.04-0.63-2.1-1.27-3.01-2.09c-0.14-0.12-0.71-0.69-0.6-0.7
						c0.21-0.02-0.32,0.95-0.36,0.83c-0.02-0.06,0.61-0.24,0.66-0.25c2-0.62,1.59-3.57-0.61-2.89c-2.01,0.63-4.05,2.39-2.44,4.53
						c1.34,1.78,3.62,2.89,5.53,3.99c4.04,2.33,8.26,4.35,12.53,6.2c12.26,5.3,25.34,9.29,38.67,10.68
						c12.72,1.32,25.51-0.25,37.88-3.29c10.57-2.6,21.09-6.23,30.71-11.38c3.46-1.85,7.11-3.95,9.84-6.83
						c1.54-1.62,3.51-4.42,1.76-6.6C236.93,277.45,233.91,279.25,235.08,280.71L235.08,280.71z"/>
				</g>
			</g>
			<g>
				<g>
					<path class="st16" d="M234.37,286.1c0.07,0.09,0.17,0.31,0.19,0.53c0.03,0.35-0.03,0.69-0.15,1.01
						c-0.31,0.88-0.97,1.65-1.6,2.31c-2.09,2.21-4.77,3.88-7.39,5.38c-8.38,4.81-17.66,8.19-26.95,10.77
						c-10.98,3.06-22.44,5.01-33.86,4.76c-12.79-0.28-25.47-3.38-37.4-7.87c-5.18-1.95-10.29-4.16-15.2-6.73
						c-1.71-0.89-3.39-1.83-5.03-2.84c-0.38-0.24-0.76-0.48-1.14-0.73c-0.28-0.19-1.24-0.71-1.36-1.09
						c-0.21-0.69,0.74-0.96,1.24-1.13c0.79-0.27-1.58-2.6-2.55-2.28c-5,1.67,3.18,6.44,5.03,7.53c3.96,2.32,8.11,4.34,12.31,6.18
						c11.84,5.2,24.43,9.07,37.29,10.63c12.5,1.51,25.13,0.21,37.35-2.65c10.49-2.45,20.93-5.96,30.48-10.99
						c3.41-1.8,6.95-3.81,9.71-6.54c1.46-1.45,3.01-3.55,1.59-5.56c-0.46-0.64-1.23-1.29-2.02-1.46
						C234.3,285.21,233.95,285.51,234.37,286.1L234.37,286.1z"/>
				</g>
			</g>
			<g>
				<g>
					<path class="st17" d="M233.33,293.33c0.25,0.41,0.02-0.12,0.08,0.14c0.1,0.42,0.03-0.19,0.02,0.19
						c-0.01,0.33,0.01,0.12-0.02,0.21c-0.05,0.2-0.12,0.39-0.19,0.58c-0.14,0.35-0.21,0.43-0.51,0.85
						c-0.32,0.44-0.68,0.84-1.06,1.23c-2.12,2.16-4.82,3.79-7.44,5.27c-8.35,4.72-17.55,8.02-26.79,10.5
						c-10.98,2.94-22.45,4.74-33.84,4.28c-12.31-0.5-24.45-3.54-35.93-7.9c-4.96-1.88-9.83-4.03-14.52-6.51
						c-1.69-0.89-3.36-1.82-4.99-2.83c-0.94-0.58-1.99-1.17-2.75-1.97c-0.06-0.07-0.2-0.2-0.21-0.2c-0.13-0.26-0.13-0.21-0.01,0.13
						c0,0.04-0.01,0.07-0.03,0.1c0.11-0.01,0.66-0.36,0.89-0.45c0.82-0.3,0.38-1.49,0.02-1.95c-0.53-0.67-1.4-1.02-2.22-0.73
						c-2.19,0.79-2.12,2.69-0.72,4.29c1.44,1.64,3.5,2.78,5.36,3.89c3.75,2.23,7.69,4.15,11.67,5.91
						c11.63,5.14,23.98,8.96,36.62,10.52c12.47,1.54,25.09,0.34,37.29-2.46c10.46-2.41,20.89-5.88,30.41-10.89
						c3.44-1.81,6.98-3.86,9.76-6.63c1.56-1.55,3.13-3.86,1.8-6.05c-0.42-0.69-1.27-1.39-2.14-1.2
						C233.12,291.8,232.94,292.69,233.33,293.33L233.33,293.33z"/>
				</g>
			</g>
			<g>
				<g>
					<path class="st18" d="M232.1,300.06c0.07,0.15,0.21,0.48,0.08,0.13c0.05,0.13,0.05,0.3,0.04,0.44
						c0.02-0.44-0.02,0.07-0.05,0.19c-0.03,0.1-0.06,0.19-0.09,0.29c-0.1,0.33,0.14-0.27-0.02,0.06c-0.44,0.93-0.98,1.52-1.64,2.16
						c-2.21,2.16-4.91,3.81-7.59,5.3c-8.46,4.69-17.75,7.95-27.1,10.33c-11.06,2.81-22.56,4.37-33.98,3.65
						c-11.74-0.74-23.35-3.76-34.28-8.04c-4.72-1.85-9.35-3.94-13.81-6.34c-1.49-0.8-2.95-1.63-4.34-2.51
						c-0.99-0.64-2.14-1.27-2.93-2.15c-0.01-0.01-0.25-0.34-0.31-0.37c-0.15-0.06-0.05-0.27-0.06,0.01c0,0.04-0.06,0.15-0.09,0.16
						c0.12-0.02,0.36-0.19,0.52-0.25c0.8-0.31,0.91-1.28,0.43-1.9c-0.56-0.73-1.63-0.87-2.43-0.55c-1.92,0.75-2.43,2.47-1.09,4.07
						c1.34,1.61,3.3,2.7,5.08,3.77c3.63,2.2,7.44,4.11,11.31,5.85c11.03,4.95,22.78,8.64,34.77,10.3
						c12.61,1.74,25.33,0.84,37.74-1.86c10.51-2.28,20.99-5.69,30.57-10.62c3.55-1.83,7.23-3.89,10.14-6.67
						c1.53-1.47,3.56-3.83,2.42-6.1C234.6,297.83,231.17,298.22,232.1,300.06L232.1,300.06z"/>
				</g>
			</g>
			<g>
				<g>
					<path class="st19" d="M231.18,306.94c0.01,0.03,0.01-0.24,0,0.12c0,0.09,0.07-0.3-0.02,0.13c-0.1,0.46,0.02,0.04-0.03,0.18
						c-0.08,0.19-0.16,0.38-0.25,0.57c-0.04,0.09-0.1,0.18-0.15,0.27c0.16-0.28,0.05-0.08,0.01-0.02c-0.13,0.19-0.27,0.38-0.42,0.56
						c-0.38,0.46-0.79,0.89-1.23,1.3c-2.08,1.95-4.93,3.66-7.54,5.1c-8.36,4.59-17.6,7.74-26.83,10.03
						c-11.13,2.76-22.8,4.16-34.26,3.24c-11.26-0.9-22.31-3.8-32.8-7.93c-4.44-1.75-8.82-3.71-13.02-5.99
						c-1.55-0.84-3.07-1.72-4.55-2.67c-0.92-0.59-1.87-1.18-2.69-1.92c-0.17-0.15-0.68-0.72-0.69-0.71c0.1-0.03-0.56,0.59-0.03,0.36
						c2.1-0.9,0.45-3.67-1.45-2.85c-1.92,0.82-2.64,2.54-1.29,4.28c1.25,1.62,3.19,2.74,4.91,3.8c3.45,2.13,7.08,3.97,10.76,5.66
						c10.59,4.87,21.88,8.43,33.41,10.2c12.61,1.94,25.43,1.19,37.88-1.41c10.62-2.21,21.12-5.57,30.79-10.53
						c3.57-1.83,7.14-3.88,10.1-6.62c1.71-1.58,3.58-3.87,2.6-6.32C233.66,303.94,230.37,304.92,231.18,306.94L231.18,306.94z"/>
				</g>
			</g>
			<g>
				<g>
					<path class="st20" d="M230.13,313.45c0.44,1.5-1.13,3.06-2.14,4c-2.23,2.09-4.95,3.7-7.62,5.16c-8.33,4.53-17.49,7.6-26.7,9.77
						c-11.23,2.64-22.93,3.8-34.43,2.63c-10.97-1.11-21.73-4.07-31.92-8.24c-4.23-1.73-8.38-3.66-12.36-5.9
						c-1.4-0.79-2.78-1.61-4.12-2.51c-0.39-0.26-4.46-3.1-3.36-3.62c0.51-0.24,0.95-0.75,0.35-1.11c-0.62-0.37-1.83,0.13-2.39,0.4
						c-4.24,2.01,2.03,5.51,3.92,6.67c3.36,2.07,6.9,3.87,10.49,5.51c10.22,4.68,21.1,8.07,32.22,9.77
						c12.44,1.91,25.11,1.22,37.42-1.25c10.62-2.14,21.13-5.45,30.83-10.33c3.57-1.8,7.2-3.83,10.19-6.51
						c1.36-1.22,3.65-3.31,3.04-5.4C233.25,311.54,229.85,312.49,230.13,313.45L230.13,313.45z"/>
				</g>
			</g>
			<g>
				<g>
					<path class="st21" d="M229.62,318.46c0.3,1.6-1.28,3.14-2.32,4.12c-2.17,2.06-4.78,3.67-7.38,5.13
						c-8.04,4.5-16.92,7.59-25.84,9.8c-11.26,2.79-23.04,4.15-34.64,3.28c-10.99-0.82-21.83-3.54-32.08-7.55
						c-4.39-1.72-8.7-3.67-12.84-5.93c-1.51-0.82-2.99-1.69-4.44-2.62c-0.91-0.59-1.81-1.19-2.64-1.89
						c-0.26-0.22,0.1,0.09,0.09,0.15c0.01-0.12-0.12-0.27-0.04-0.39c0.2-0.29,0.34-0.46,0.67-0.64c0.28-0.15-1.7-2.94-2.44-2.54
						c-3.17,1.69,4.65,6.87,5.92,7.68c3.13,2,6.44,3.74,9.8,5.34c9.79,4.64,20.27,8.04,30.96,9.86c12.24,2.08,24.69,1.65,36.88-0.63
						c10.18-1.91,20.27-4.98,29.58-9.55c3.52-1.73,7.05-3.67,10.05-6.22c1.34-1.14,3.59-3.08,3.21-5.1c-0.13-0.68-0.8-1.32-1.3-1.76
						C230.74,318.92,229.54,318.02,229.62,318.46L229.62,318.46z"/>
				</g>
			</g>
			<g>
				<g>
					<path class="st22" d="M228.35,326.94c0,0.06,0,0.29-0.11,0.66c0.09-0.28-0.02,0.05-0.08,0.16c-0.05,0.1-0.38,0.65-0.2,0.38
						c-0.62,0.93-0.93,1.2-1.76,1.94c-2.08,1.86-4.66,3.43-7.24,4.82c-7.88,4.26-16.54,7.15-25.25,9.17
						c-11.01,2.56-22.53,3.72-33.82,2.69c-10.64-0.97-21.16-3.67-31.06-7.67c-4.24-1.71-8.39-3.65-12.37-5.9
						c-1.45-0.82-2.88-1.68-4.26-2.61c-0.93-0.63-1.87-1.27-2.7-2.03c-0.35-0.32-0.59-0.76-0.92-1.08c0.05,0.05-0.08-0.19-0.11-0.22
						c-0.02-0.16-0.03-0.19-0.02-0.11c-0.69,0.68-0.84,0.88-0.44,0.62c0.51-0.31,1.34-1.17,0.92-1.82
						c-0.43-0.67-1.55-0.21-2.04,0.09c-4.35,2.63,1.69,6.2,3.95,7.63c3.23,2.05,6.63,3.81,10.1,5.41
						c9.96,4.61,20.59,7.93,31.46,9.54c12.23,1.81,24.67,1.15,36.78-1.24c9.98-1.97,19.92-5.09,28.98-9.75
						c3.43-1.76,6.85-3.73,9.77-6.29c1.59-1.4,3.76-3.48,3.58-5.81C231.39,324.08,228.25,325.59,228.35,326.94L228.35,326.94z"/>
				</g>
			</g>
			<g>
				<g>
					<path class="st23" d="M227.38,332.31c-0.01,0.14-0.03,0.28-0.05,0.42c-0.06,0.39,0.12-0.21-0.05,0.17
						c-0.15,0.34-0.33,0.67-0.54,0.98c-0.01,0.01-0.36,0.47-0.62,0.75c-0.36,0.4-0.75,0.77-1.15,1.14c-2.1,1.9-4.55,3.4-7.03,4.77
						c-7.68,4.24-16.13,7.15-24.64,9.16c-10.92,2.58-22.31,3.78-33.51,2.9c-10.52-0.82-20.87-3.4-30.68-7.28
						c-4.18-1.65-8.27-3.53-12.19-5.73c-1.48-0.83-2.94-1.71-4.35-2.65c-0.88-0.59-1.77-1.19-2.56-1.89
						c-0.27-0.24-0.56-0.72-0.86-0.88c-0.51-0.28,0.06-0.18-0.07-0.06c-0.1,0.1-0.02,0.42-0.21,0.56c1.63-1.15-0.37-4-1.85-2.95
						c-5.65,3.98,12.26,12.48,14.92,13.74c9.71,4.59,20.13,7.82,30.74,9.48c11.99,1.87,24.28,1.35,36.19-0.87
						c9.79-1.83,19.54-4.8,28.46-9.27c3.36-1.69,6.7-3.61,9.58-6.04c1.51-1.27,3.55-3.15,3.64-5.29c0.04-0.91-0.44-1.76-1.33-2.07
						C228.53,331.13,227.42,331.41,227.38,332.31L227.38,332.31z"/>
				</g>
			</g>
			<g>
				<g>
					<path class="st24" d="M226.68,338.62c-0.06,0.39-0.39,1.04-0.82,1.62c-0.52,0.71-1.19,1.35-1.86,1.94
						c-2.11,1.87-4.54,3.39-7,4.75c-7.43,4.13-15.62,6.93-23.86,8.89c-10.78,2.57-22.06,3.75-33.13,2.97
						c-10.53-0.74-20.91-3.24-30.72-7.1c-4.18-1.64-8.28-3.52-12.19-5.73c-1.48-0.84-2.94-1.72-4.35-2.68
						c-0.88-0.6-1.77-1.21-2.56-1.92c-0.07-0.06-0.87-0.9-0.86-0.9c0.18-0.09-0.12,0.64,0.19,0.38c1.08-0.91-1.09-3.68-2.15-2.8
						c-1.46,1.23,0.02,3.34,0.97,4.38c1.37,1.5,3.1,2.67,4.8,3.78c3.07,2.01,6.32,3.75,9.62,5.32c9.46,4.52,19.64,7.71,30,9.34
						c11.98,1.89,24.29,1.41,36.19-0.8c9.46-1.75,18.81-4.61,27.44-8.9c3.23-1.61,6.43-3.43,9.21-5.74
						c1.53-1.27,3.41-2.95,3.74-5.03C229.54,339.16,226.95,336.89,226.68,338.62L226.68,338.62z"/>
				</g>
			</g>
			<g>
				<g>
					<path class="st25" d="M225.92,344.88c-0.42,1.52-1.84,2.8-2.98,3.8c-2.01,1.76-4.3,3.22-6.62,4.53
						c-7.12,4.01-14.97,6.76-22.88,8.69c-10.68,2.61-21.87,3.8-32.86,3.16c-10.47-0.61-20.84-2.97-30.62-6.72
						c-4.27-1.63-8.44-3.53-12.43-5.76c-1.54-0.86-3.05-1.77-4.52-2.75c-0.79-0.53-1.58-1.08-2.32-1.67
						c-0.26-0.21-1.06-0.75-1.09-0.94c0.16,0.99,0.3,0.04,0.46-0.13c0.46-0.49-1.91-3.06-2.2-2.76c-1.06,1.12,1.13,3.38,1.81,4.12
						c1.39,1.51,3.07,2.73,4.77,3.88c2.96,2,6.11,3.71,9.32,5.26c9.27,4.48,19.23,7.62,29.4,9.23c11.72,1.85,23.74,1.4,35.4-0.68
						c9.23-1.65,18.4-4.35,26.82-8.52c3.16-1.57,6.28-3.34,9.03-5.57c1.49-1.21,3.27-2.72,3.8-4.65c0.14-0.52-0.84-1.52-1.15-1.86
						C226.91,345.4,226.05,344.44,225.92,344.88L225.92,344.88z"/>
				</g>
			</g>
			<g>
				<g>
					<path class="st26" d="M224.4,352.57c-0.56,1.41-1.74,2.49-2.97,3.55c-1.98,1.71-4.24,3.11-6.52,4.38
						c-6.86,3.83-14.44,6.42-22.07,8.2c-10.49,2.45-21.51,3.54-32.27,2.76c-10.19-0.73-20.28-3.12-29.75-6.95
						c-4.03-1.63-7.97-3.51-11.73-5.71c-1.34-0.79-2.67-1.61-3.94-2.51c-1.01-0.72-2.01-1.46-2.91-2.32
						c-0.33-0.32-0.68-0.65-0.92-1.05c-0.08-0.14-0.17-0.28-0.23-0.43c-0.06-0.18,0.09-0.34-0.1-0.07c1.01-1.43-2.36-1.9-3.08-0.89
						c-1.07,1.51,0.8,3.1,1.86,4.03c1.36,1.19,2.88,2.22,4.4,3.2c3.16,2.04,6.5,3.8,9.91,5.37c9.39,4.32,19.46,7.26,29.7,8.65
						c11.77,1.59,23.89,0.96,35.54-1.26c8.84-1.68,17.56-4.35,25.62-8.39c3.1-1.56,6.1-3.34,8.82-5.51
						c1.55-1.24,3.29-2.75,4.05-4.64C228.36,351.61,224.88,351.37,224.4,352.57L224.4,352.57z"/>
				</g>
			</g>
			<g>
				<g>
					<path class="st27" d="M223.98,358.09c-0.76,1.43-2.01,2.6-3.23,3.64c-1.98,1.68-4.17,3.09-6.43,4.37
						c-6.73,3.8-14.14,6.38-21.64,8.16c-20.57,4.89-42.34,4.1-62.12-3.59c-4.1-1.59-8.1-3.46-11.92-5.66
						c-1.38-0.8-2.75-1.63-4.05-2.54c-0.86-0.6-1.71-1.21-2.5-1.9c-0.33-0.28-1.13-0.68-0.89-1.17c0.35-0.75-2.12-3.12-2.49-2.33
						c-0.64,1.36,1.72,3.54,2.53,4.32c1.46,1.42,3.13,2.61,4.82,3.74c2.93,1.97,6.03,3.66,9.21,5.19c9,4.32,18.64,7.26,28.51,8.73
						c11.52,1.72,23.38,1.24,34.83-0.79c8.6-1.53,17.13-4.02,24.97-7.9c2.98-1.47,5.89-3.15,8.52-5.19
						c1.58-1.23,3.28-2.65,4.23-4.45C226.81,359.8,224.21,357.65,223.98,358.09L223.98,358.09z"/>
				</g>
			</g>
			<g>
				<g>
					<path class="st28" d="M223.23,364.63c-1.04,1.58-2.53,2.86-4.02,4.02c-2.32,1.81-4.86,3.34-7.48,4.69
						c-7.91,4.1-16.61,6.63-25.36,8.15c-21.46,3.72-43.92,1.48-63.44-8.54c-3.14-1.61-6.25-3.4-9.05-5.57
						c-0.5-0.39-1-0.79-1.48-1.22c-0.2-0.18-0.4-0.37-0.6-0.55c-0.35-0.34-0.1-0.09-0.32-0.33c-0.14-0.15-0.27-0.3-0.4-0.46
						c0.42,0.52-0.21-0.57,0.13,0.2c-0.18-0.41,0.19,0.56,0.15,0.38c0.07,0.3,0.1,0.33,0.04,0.52c0.22-0.7-0.25-1.56-0.64-2.12
						c-0.12-0.17-1.09-1.34-1.29-0.7c-0.56,1.81,1.46,3.93,2.62,5.06c1.96,1.91,4.29,3.48,6.61,4.91c7.75,4.8,16.45,8.18,25.27,10.4
						c12.1,3.05,24.56,3.51,36.93,2.13c10.07-1.12,20.12-3.44,29.37-7.64c3.43-1.56,6.78-3.38,9.82-5.62
						c1.86-1.37,3.76-2.93,5.04-4.89C225.68,366.66,223.75,363.84,223.23,364.63L223.23,364.63z"/>
				</g>
			</g>
		</g>
		<g>
			<path class="st29" d="M170.34,236.9c-47.74,0-85.35,18.32-85.35,40.09s35.65,42.92,83.39,42.92c47.74,0,88.41-21.82,88.41-43.59
				C256.78,254.55,218.08,236.9,170.34,236.9z M170.34,308.52c-41.4,0-74.96-14.89-74.96-33.26c0-18.37,33.56-33.26,74.96-33.26
				s74.96,14.89,74.96,33.26C245.3,293.63,211.74,308.52,170.34,308.52z"/>
			<path class="st30" d="M252.29,275.85c0,18.32-35.3,39.76-77.6,39.76s-84.9-14.85-84.9-33.17c0-18.32,29.07-45.04,71.37-45.04
				C228.91,237.41,252.29,257.53,252.29,275.85z"/>
			<path class="st0" d="M170.23,236.9c-46.77,0-85.19,16.34-85.19,37.1s36.5,42.07,83.27,42.07c46.77,0,86.61-20.82,86.61-41.58
				S217,236.9,170.23,236.9z M170.23,305.21c-40.56,0-73.44-14.2-73.44-31.72c0-17.52,32.88-31.72,73.44-31.72
				s73.44,14.2,73.44,31.72C243.67,291.01,210.79,305.21,170.23,305.21z"/>
		</g>
		<g>
			<path class="st29" d="M230.89,283.35c1.04-0.31,1.12-7.47,1.12-7.47s1.43-21.72-2.99-52.97c-5.58-39.4-25.88-50.5-25.88-50.5
				l0.31-87.29l-71,0.86l0.93,85.87c0,0-19.43,16.82-22.45,40.81s-12.31,54.65-8.87,69.06c0,0,11.94,20.79,66.63,22.1
				S230.89,283.35,230.89,283.35z"/>
			<ellipse class="st29" cx="168.01" cy="86.67" rx="35.86" ry="18.02"/>
			<path class="st29" d="M203.14,171.9c0,7.35-14.54,18.15-34.23,18.15s-35.28-10.8-35.28-18.15"/>
			<ellipse class="st0" cx="168.23" cy="86.67" rx="20.64" ry="10.66"/>
			<ellipse class="st0" cx="168.23" cy="72.42" rx="20.64" ry="10.66"/>
			<path class="st31" d="M147.59,72.78v13.89c0,0,0.49,11.64,22.01,10.92c21.51-0.72,19.28-10.92,19.28-10.92V72.42
				c0,0-2.5,9.82-20.28,9.97S147.59,72.78,147.59,72.78z"/>
		</g>
		<g>
			<g>
				<g>
					<path class="st1" d="M225.33,209.65c-0.08-0.05-0.48-0.49-0.57-0.64c0.04,0.06-0.32-0.83-0.26-0.61
						c-0.28-0.98,0-0.14-0.03-0.18c0.01,0.01,0.06-0.28-0.01,0.02c-0.06,0.25-0.09,0.31-0.07,0.27c-0.3,0.72-0.79,1.36-1.28,1.95
						c-1.7,2.05-3.87,3.74-6.04,5.28c-7.26,5.16-15.64,8.78-24.17,11.27c-12.04,3.51-24.86,4.78-37.29,2.98
						c-10.86-1.57-21.62-5.08-31.2-10.48c-3.53-1.99-7.01-4.23-9.98-7c-0.51-0.48-1.09-1.06-1.33-1.34
						c-0.21-0.25-0.42-0.5-0.62-0.76c-0.08-0.1-0.15-0.21-0.23-0.31c-0.25-0.35,0.21,0.34,0-0.01c-0.09-0.15-0.56-0.83-0.2-0.31
						c-0.01-0.02-0.1-0.25-0.11-0.25c-0.07,0.01,0.1,0.25,0.03,0.09c-0.04-0.08-0.03-0.04,0.01-0.1c0.59-1.07-1.49-3.85-2.12-2.7
						c-1.05,1.91,0.86,4.49,2.03,5.87c2.29,2.71,5.19,4.9,8.13,6.86c9.25,6.17,19.98,10.29,30.84,12.56
						c6.84,1.43,13.8,2.16,20.78,1.81c6.64-0.33,13.25-1.31,19.69-2.96c9.57-2.44,19.01-6.25,27.14-11.93
						c2.41-1.69,4.81-3.56,6.71-5.83c1.23-1.47,2.23-3.22,1.17-5.09c-0.28-0.5-0.67-0.95-1.15-1.27c-0.63-0.41-1.11-0.04-1.12,0.65
						C224.07,208.29,224.68,209.22,225.33,209.65L225.33,209.65z"/>
				</g>
			</g>
			<g>
				<g>
					<path class="st32" d="M225.74,213.84c-0.39-0.28-0.78-0.7-0.88-0.87c-0.15-0.27-0.08,0.02-0.04-0.15
						c-0.06,0.25-0.05,0.51-0.13,0.76c-0.17,0.52-0.74,1.34-1.19,1.91c-1.64,2.06-3.76,3.76-5.88,5.3
						c-7.29,5.3-15.86,8.92-24.48,11.4c-12.09,3.48-24.91,4.81-37.4,3.1c-11.13-1.52-22.18-5.02-32.02-10.48
						c-3.43-1.9-7.29-4.39-9.9-6.83c-0.51-0.48-1.01-0.98-1.47-1.51c-0.03-0.03-0.12-0.13-0.34-0.42c-0.09-0.11-0.52-0.76-0.34-0.46
						c-0.12-0.2-0.24-0.41-0.33-0.62c0,0-0.02,0.04-0.08-0.26c-0.03-0.14-0.02-0.47,0.02-0.54c0.56-1.04-2.27-3.09-2.73-2.23
						c-0.94,1.74,1.17,4.04,2.22,5.21c2.42,2.71,5.47,4.92,8.51,6.89c9.54,6.19,20.51,10.36,31.62,12.65
						c6.95,1.43,14.02,2.17,21.11,1.82c6.63-0.32,13.25-1.25,19.7-2.83c9.73-2.38,19.3-6.2,27.57-11.9
						c2.44-1.68,4.88-3.56,6.78-5.86c0.93-1.12,2.15-2.75,1.39-4.26c-0.33-0.66-0.91-1.15-1.5-1.57c-0.37-0.27-1.37-0.71-1.56-0.04
						C224.21,212.72,225.32,213.54,225.74,213.84L225.74,213.84z"/>
				</g>
			</g>
			<g>
				<g>
					<path class="st33" d="M225.54,218.58c-0.45-0.35-0.28-0.24-0.18-0.14c-0.39-0.4-0.22-0.24-0.13-0.15
						c-0.27-0.28,0.08-0.16-0.02,0c-0.04,0.05,0.04-0.31-0.02,0.06c-0.07,0.41,0.04-0.01-0.02,0.18c-0.25,0.79-0.64,1.37-0.98,1.83
						c-1.6,2.12-3.74,3.86-5.87,5.42c-7.21,5.28-15.77,8.86-24.33,11.29c-12.3,3.48-25.39,4.83-38.07,3.03
						c-11.22-1.59-22.3-5.09-32.26-10.54c-3.65-2-7.39-4.34-10.37-7.08c-0.52-0.48-1.02-0.97-1.49-1.49
						c-0.47-0.52-0.49-0.51-0.92-1.2c-0.11-0.17-0.21-0.35-0.3-0.53c0.19,0.39-0.06-0.17-0.09-0.3c-0.03-0.12-0.06-0.13,0.04-0.32
						c0.76-1.44-2.46-2.87-3.24-1.39c-0.94,1.78,1.2,4.11,2.28,5.26c2.5,2.67,5.61,4.84,8.7,6.77c9.89,6.17,21.14,10.3,32.56,12.53
						c7.12,1.39,14.33,2.02,21.57,1.63c6.71-0.36,13.4-1.31,19.93-2.92c9.71-2.4,19.38-6.16,27.62-11.91
						c2.46-1.72,4.94-3.61,6.84-5.96c0.97-1.2,2.22-2.9,1.63-4.54c-0.2-0.56-0.61-0.97-1.08-1.33
						C225.78,215.58,223.7,217.17,225.54,218.58L225.54,218.58z"/>
				</g>
			</g>
			<g>
				<g>
					<path class="st34" d="M225.9,223.46c0.35,0.29-0.26-0.33-0.04-0.06c0.04,0.05-0.31-0.34-0.04-0.03c-0.54-0.63,0.21-0.1-0.04,0
						c-0.08,0.03,0.08-0.47,0-0.15c-0.02,0.09-0.03,0.19-0.05,0.28c-0.09,0.42-0.02,0.11-0.03,0.14c-0.06,0.14-0.12,0.27-0.18,0.41
						c-0.2,0.41-0.46,0.79-0.72,1.16c-0.22,0.31,0.06-0.04-0.28,0.36c-0.17,0.21-0.35,0.41-0.53,0.62c-0.41,0.45-0.83,0.88-1.27,1.3
						c-1.11,1.06-2.3,2.03-3.54,2.94c-7.14,5.28-15.7,8.81-24.2,11.22c-12.42,3.51-25.62,4.85-38.44,3.18
						c-11.61-1.51-23.1-5.12-33.43-10.64c-3.76-2.01-7.44-4.25-10.65-7.07c-0.58-0.51-1.14-1.05-1.68-1.61
						c-0.04-0.04-0.37-0.41-0.09-0.09c-0.09-0.1-0.18-0.2-0.26-0.31c-0.18-0.22-0.36-0.45-0.52-0.68c-0.09-0.13-0.46-0.83-0.23-0.33
						c-0.09-0.18-0.16-0.37-0.23-0.56c-0.07-0.18,0.09,0.12,0.03,0.12c-0.01,0-0.02-0.24-0.02-0.26c-0.07,0.85,0.01,0.17,0.01,0.17
						c-0.07-0.09-0.17,0.38-0.04,0.12c0.92-1.78-2.18-3.46-3.1-1.68c-1.07,2.07,1.02,4.38,2.33,5.76c2.55,2.68,5.73,4.83,8.87,6.76
						c10.09,6.2,21.6,10.32,33.21,12.51c7.24,1.37,14.53,1.96,21.88,1.55c6.77-0.38,13.51-1.33,20.1-2.94
						c9.73-2.39,19.45-6.12,27.7-11.89c2.48-1.74,4.95-3.64,6.85-6.03c1.11-1.39,2.45-3.34,1.71-5.2c-0.18-0.45-0.49-0.88-0.86-1.19
						C226.49,219.97,224.13,222.01,225.9,223.46L225.9,223.46z"/>
				</g>
			</g>
			<g>
				<g>
					<path class="st35" d="M225.97,227.64c0.34,0.29,0.43,0.72,0.38,1.06c-0.1,0.7-0.53,1.48-0.84,1.94
						c-1.39,2.09-3.39,3.78-5.37,5.28c-7.16,5.42-15.74,8.97-24.33,11.4c-12.53,3.55-25.91,4.8-38.83,3.1
						c-11.88-1.57-23.62-5.25-34.21-10.87c-3.87-2.05-7.71-4.36-11-7.26c-1-0.89-2.01-1.84-2.76-2.97
						c-0.37-0.56-0.69-1.25-0.46-1.71c0.34-0.68-1.07-0.76-1.4-0.75c-0.69,0.03-1.68,0.28-2.02,0.96c-0.79,1.57,1.43,3.66,2.38,4.59
						c2.7,2.65,5.95,4.79,9.2,6.7c10.43,6.15,22.22,10.21,34.12,12.29c14.01,2.45,28.37,1.7,42.17-1.68
						c9.88-2.41,19.71-6.12,28.11-11.94c2.49-1.72,4.98-3.67,6.89-6.05c0.88-1.1,2.24-2.9,1.72-4.43c-0.1-0.29-0.27-0.55-0.5-0.75
						c-0.58-0.5-1.56-0.37-2.24-0.15C226.7,226.53,225.4,227.14,225.97,227.64L225.97,227.64z"/>
				</g>
			</g>
			<g>
				<g>
					<path class="st36" d="M226.98,232.34c0.02,0.01,0.11,0.13,0.13,0.13c-0.84,0.01,0.02-0.35-0.11-0.12
						c-0.08,0.14-0.05-0.26,0.01,0.06c0.05,0.28,0.03-0.28,0.02,0.12c0,0.16-0.01,0.32-0.03,0.48c-0.03,0.27,0.06-0.13-0.06,0.24
						c-0.06,0.17-0.12,0.33-0.19,0.49c-0.18,0.41-0.4,0.8-0.65,1.17c-1.26,1.95-3.5,3.85-5.48,5.36
						c-7.12,5.4-15.72,8.91-24.25,11.35c-12.77,3.66-26.5,5.04-39.7,3.45c-12.02-1.45-23.88-5.02-34.68-10.51
						c-3.94-2-8.06-4.41-11.32-7.17c-0.6-0.5-1.18-1.03-1.73-1.59c-0.58-0.59-0.66-0.68-1.02-1.19c-0.14-0.2-0.27-0.4-0.38-0.61
						c-0.16-0.28,0.11,0.28,0,0c-0.04-0.1-0.09-0.2-0.11-0.3c-0.1-0.39-0.07,0.14-0.03-0.22c0.03-0.23-0.13,0.21,0.04-0.14
						c0.66-1.35-2.54-2.81-3.22-1.44c-0.9,1.83,1.51,4.16,2.64,5.26c2.8,2.73,6.15,4.92,9.51,6.87
						c10.67,6.21,22.62,10.39,34.76,12.56c7.47,1.34,14.94,1.86,22.51,1.45c6.9-0.37,13.77-1.33,20.49-2.95
						c9.8-2.36,19.54-6.01,27.86-11.81c2.44-1.7,4.86-3.62,6.68-6c1-1.31,2.17-3.11,1.52-4.83c-0.16-0.43-0.46-0.84-0.8-1.15
						c-0.57-0.53-1.6-0.99-2.37-0.62C226.29,231.04,226.46,231.87,226.98,232.34L226.98,232.34z"/>
				</g>
			</g>
			<g>
				<g>
					<path class="st37" d="M228.07,237.7c-0.06-0.06-0.34-0.38-0.16-0.15c0.18,0.22-0.08-0.11-0.12-0.19
						c0.18,0.42-0.12-0.37,0.02,0.02c0.03,0.1,0,0.27,0.01,0.02c0.02-0.4-0.04,0.04-0.01,0.03c-0.01,0,0,0.19,0,0.21
						c0,0.02,0.07-0.34,0-0.05c-0.04,0.16-0.07,0.31-0.11,0.47c-0.02,0.08-0.06,0.17-0.08,0.25c-0.07,0.21,0.11-0.24-0.02,0.05
						c-0.19,0.4-0.4,0.79-0.65,1.16c-1.35,2.06-3.37,3.78-5.46,5.36c-7.21,5.44-15.88,8.92-24.52,11.34
						c-12.91,3.61-26.73,4.99-40.06,3.45c-12.27-1.42-24.43-5-35.49-10.5c-3.79-1.88-7.52-3.98-10.89-6.54
						c-0.63-0.48-1.25-0.97-1.85-1.49c-0.25-0.22-0.5-0.44-0.75-0.67c-0.11-0.11-0.23-0.22-0.34-0.33
						c-0.23-0.22,0.15,0.17-0.13-0.14c-0.36-0.39-0.68-0.79-1-1.21c-0.26-0.35,0.13,0.28-0.12-0.2c-0.04-0.08-0.08-0.16-0.12-0.24
						c-0.1-0.19,0.04,0.37,0.03,0.08c-0.01-0.42-0.05,0.33-0.02-0.06c0-0.04-0.05,0.22-0.07,0.25c0.72-1.51-1.87-3.88-2.67-2.22
						c-1.08,2.25,1.29,4.66,2.75,6.09c2.79,2.72,6.19,4.87,9.54,6.81c10.85,6.28,23.09,10.45,35.41,12.61
						c14.43,2.52,29.22,1.78,43.46-1.61c9.82-2.34,19.68-6.02,27.96-11.9c2.46-1.74,4.87-3.74,6.66-6.19
						c1.13-1.55,2.1-3.63,1.19-5.53c-0.25-0.52-0.58-0.92-0.99-1.31c-0.55-0.53-1.58-0.65-2.03,0.05
						C226.93,236.2,227.52,237.17,228.07,237.7L228.07,237.7z"/>
				</g>
			</g>
			<g>
				<g>
					<path class="st38" d="M227.77,242.03c1.01,1,0.46,2.4-0.14,3.44c-1.21,2.1-3.11,3.76-5.05,5.27
						c-6.98,5.43-15.67,8.83-24.16,11.13c-13.2,3.59-27.3,4.89-40.9,3.22c-12.56-1.54-24.95-5.21-36.29-10.85
						c-3.88-1.93-7.69-4.1-11.15-6.71c-1.61-1.22-4.12-2.93-4.71-5.01c-0.06-0.2-0.05-0.22-0.05-0.3c0-0.12,0.12-0.42,0.01-0.18
						c0.54-1.15-2.64-0.11-3.03,0.73c-0.82,1.76,1.52,3.7,2.63,4.71c2.95,2.69,6.44,4.82,9.91,6.74
						c11.14,6.15,23.56,10.2,36.1,12.22c14.44,2.33,29.34,1.41,43.53-2.02c9.99-2.42,19.99-6.17,28.44-12.12
						c2.57-1.81,5.07-3.85,6.97-6.38c0.93-1.24,2.12-3.09,1.54-4.72c-0.1-0.28-0.26-0.52-0.47-0.73
						C230.14,239.69,227.29,241.55,227.77,242.03L227.77,242.03z"/>
				</g>
			</g>
			<g>
				<g>
					<path class="st39" d="M228.47,246.85c0.82,0.85,0.34,2.38-0.27,3.45c-1.18,2.06-3.13,3.8-5.07,5.31
						c-7.05,5.48-15.8,8.84-24.35,11.16c-13.28,3.6-27.56,4.89-41.23,3.25c-12.76-1.53-25.37-5.18-36.91-10.83
						c-3.96-1.94-7.86-4.11-11.41-6.74c-1.66-1.23-4.18-2.9-4.84-5c-0.07-0.22-0.05-0.19-0.05-0.27c-0.01-0.21,0.04-0.25,0-0.16
						c0.59-1.28-2.68-0.36-3.09,0.55c-0.82,1.8,1.61,3.78,2.75,4.8c3.07,2.73,6.69,4.89,10.29,6.83
						c11.46,6.18,24.19,10.27,37.05,12.25c14.56,2.25,29.62,1.33,43.93-2.13c10.02-2.43,20.04-6.12,28.51-12.12
						c2.54-1.8,5.01-3.87,6.84-6.41c0.93-1.29,2.05-3.2,1.39-4.85c-0.13-0.33-0.35-0.6-0.6-0.85
						C230.71,244.38,227.63,245.98,228.47,246.85L228.47,246.85z"/>
				</g>
			</g>
			<g>
				<g>
					<path class="st40" d="M228.83,250.97c2.61,2.8-3.29,7.77-5.22,9.31c-7.06,5.63-15.85,9.1-24.47,11.49
						c-13.21,3.67-27.47,5.1-41.12,3.62c-13.06-1.42-25.99-5.08-37.84-10.75c-4.09-1.96-8.12-4.16-11.8-6.83
						c-1.19-0.86-2.34-1.78-3.37-2.83c-0.56-0.58-1.32-1.38-1.51-2.09c-0.07-0.28-0.06-0.57-0.03-0.62c0.4-0.9-3.01-1.06-3.41-0.16
						c-0.76,1.7,1.87,3.77,2.93,4.68c3.2,2.74,6.89,4.93,10.6,6.9c11.7,6.19,24.63,10.28,37.7,12.3c14.88,2.3,30.2,1.41,44.86-1.94
						c9.97-2.28,20.07-5.84,28.5-11.75c2.48-1.74,4.95-3.75,6.73-6.23c0.93-1.29,1.97-3.14,1.37-4.77c-0.12-0.33-0.3-0.63-0.54-0.89
						c-0.49-0.52-1.55-0.45-2.19-0.34C229.77,250.11,228.36,250.47,228.83,250.97L228.83,250.97z"/>
				</g>
			</g>
			<g>
				<g>
					<path class="st41" d="M229.65,254.9c0.9,1,0.53,2.61-0.12,3.87c-1.17,2.27-3.16,4.13-5.12,5.71
						c-7.05,5.72-15.96,9.21-24.61,11.64c-13.39,3.77-27.84,5.32-41.71,4.1c-13.46-1.18-26.79-4.72-39.08-10.33
						c-4.07-1.86-8.1-3.95-11.77-6.52c-1.25-0.88-2.41-1.75-3.49-2.81c-0.54-0.53-1.24-1.22-1.45-2c-0.07-0.27-0.1-0.41,0.01-0.66
						c0.29-0.67-2.87-2.21-3.12-1.65c-0.72,1.66,2.2,3.91,3.2,4.76c3.36,2.84,7.2,5.12,11.08,7.18
						c11.74,6.23,24.67,10.47,37.77,12.67c15,2.51,30.44,1.87,45.29-1.39c10.03-2.2,20.22-5.68,28.7-11.61
						c2.47-1.73,4.93-3.71,6.67-6.2c0.91-1.31,1.9-3.16,1.27-4.79c-0.14-0.35-0.35-0.68-0.6-0.96c-0.53-0.59-1.3-1.03-2.06-1.27
						C230.28,254.57,229.13,254.33,229.65,254.9L229.65,254.9z"/>
				</g>
			</g>
			<g>
				<g>
					<path class="st42" d="M230.89,260.8c0.34,0.39-0.21-0.3,0.05,0.07c0.17,0.24-0.14-0.18-0.06-0.13c0.04,0.02,0.1,0.24,0.1,0.27
						c-0.01-0.25-0.01-0.15,0.01,0.13c0.01,0.32,0.05-0.16,0,0.28c-0.02,0.18-0.04,0.36-0.07,0.54c-0.04,0.21,0.02,0.04-0.11,0.41
						c-0.15,0.42-0.33,0.83-0.54,1.23c-1.2,2.22-3.22,4.05-5.23,5.63c-7.18,5.67-16.14,9.07-24.89,11.44
						c-13.6,3.68-28.21,5.12-42.25,3.82c-13.56-1.26-26.97-4.86-39.4-10.42c-4.34-1.94-8.61-4.16-12.56-6.82
						c-1.25-0.84-2.5-1.76-3.66-2.82c-0.11-0.1-0.21-0.2-0.32-0.3c-0.26-0.25,0,0.01-0.06-0.05c-0.2-0.21-0.38-0.42-0.57-0.64
						c-0.07-0.08-0.14-0.17-0.2-0.26c-0.06-0.07,0.23,0.33,0.02,0.01c-0.05-0.07-0.1-0.15-0.14-0.23c-0.1-0.18,0.26,0.28,0.02,0.03
						c-0.16-0.17-0.01,0.25-0.01-0.07c0,0.14-0.02,0.32,0.02,0.09c0.01-0.04-0.1,0.3-0.01,0.07c0.53-1.25-2.03-3.64-2.63-2.22
						c-0.96,2.25,2.09,4.87,3.54,6.11c3.26,2.78,7.05,4.98,10.83,6.96c12.05,6.3,25.29,10.49,38.7,12.61
						c15.26,2.42,31.1,1.59,46.15-1.84c9.93-2.26,20.08-5.78,28.4-11.8c3.27-2.36,9.34-7.15,7.4-11.95
						c-0.22-0.55-0.56-1.07-0.94-1.51c-0.4-0.46-1.33-1.18-1.94-0.66C229.94,259.29,230.5,260.36,230.89,260.8L230.89,260.8z"/>
				</g>
			</g>
			<g>
				<g>
					<path class="st43" d="M230.91,265.79c0.31,0.36-0.09-0.25,0.09,0.12c0.05,0.11,0.26,0.58,0.16,0.31
						c-0.09-0.27,0.04,0.21,0.06,0.32c0.02,0.08,0.02,0.16,0.03,0.23c0.03,0.19,0.03-0.39-0.01-0.02c-0.02,0.18-0.03,0.36-0.05,0.55
						c-0.03,0.23-0.17,0.67-0.05,0.31c-0.14,0.42-0.3,0.83-0.5,1.23c-0.11,0.22-0.23,0.43-0.36,0.65c0.18-0.31-0.22,0.33-0.32,0.47
						c-0.36,0.5-0.75,0.98-1.16,1.44c-1.05,1.17-1.87,1.9-3.09,2.86c-7.15,5.66-16.09,9.01-24.81,11.35
						c-6.38,1.71-12.94,2.8-19.52,3.46c-7.7,0.77-15.43,0.98-23.14,0.26c-13.74-1.3-27.31-4.93-39.91-10.55
						c-4.36-1.94-8.64-4.13-12.61-6.79c-1.3-0.87-2.79-1.97-3.7-2.8c-0.41-0.38-0.8-0.78-1.17-1.2c-0.08-0.09-0.16-0.2-0.23-0.29
						c-0.07-0.09,0.18,0.3,0.02,0.02c-0.1-0.17-0.19-0.34-0.28-0.51c-0.13-0.26,0,0.28,0.03,0.09c0-0.02-0.02-0.17-0.03-0.18
						c0.02,0.03,0.16,0.39,0.02,0.16c-0.08-0.13-0.07,0.23-0.04,0.18c0.8-1.94-2.53-3.02-3.29-1.19c-0.97,2.35,2,4.67,3.54,5.93
						c3.36,2.76,7.24,4.93,11.11,6.89c12.45,6.31,26.05,10.5,39.85,12.55c15.41,2.28,31.45,1.39,46.62-2.12
						c9.99-2.31,20.22-5.79,28.58-11.89c2.44-1.78,4.85-3.85,6.49-6.4c1.16-1.8,2.06-4.07,1.14-6.17c-0.19-0.43-0.45-0.82-0.75-1.17
						C232.32,262.36,229.45,264.08,230.91,265.79L230.91,265.79z"/>
				</g>
			</g>
			<g>
				<g>
					<path class="st44" d="M231.64,270.08c-0.3-0.36-0.01,0.01,0.09,0.17c0.18,0.3-0.01-0.2,0.1,0.23c0.04,0.16,0.09,0.32,0.13,0.49
						c-0.07-0.34,0.01,0.18,0,0.32c0,0.19-0.02,0.37-0.04,0.55c-0.01,0.1-0.03,0.21-0.05,0.31c-0.04,0.19,0.05-0.16-0.03,0.1
						c-0.13,0.46-0.3,0.9-0.52,1.33c-1.1,2.23-3.04,4.06-5.03,5.67c-7.08,5.73-16.14,9.12-24.83,11.44
						c-13.88,3.7-28.79,5.14-43.1,3.9c-13.96-1.21-27.79-4.82-40.63-10.42c-4.46-1.95-8.85-4.12-12.92-6.78
						c-0.79-0.51-1.56-1.05-2.31-1.61c-0.7-0.52-1.01-0.77-1.53-1.24c-0.43-0.39-0.85-0.8-1.23-1.24c-0.2-0.23,0.15,0.21-0.02-0.02
						c-0.07-0.09-0.13-0.18-0.2-0.28c-0.05-0.07-0.09-0.15-0.14-0.23c-0.18-0.29,0.12,0.24-0.02-0.03
						c-0.07-0.13-0.18-0.55-0.07-0.15c-0.08-0.3-0.05-0.01,0-0.11c0.58-1.44-2.64-2.88-3.21-1.46c-0.87,2.17,2.38,4.56,3.75,5.66
						c3.53,2.84,7.6,5.06,11.64,7.07c12.64,6.31,26.47,10.46,40.44,12.51c15.49,2.27,31.61,1.4,46.87-2.03
						c10.06-2.26,20.35-5.72,28.78-11.83c2.46-1.78,4.84-3.87,6.46-6.47c1-1.61,1.7-3.65,0.95-5.5c-0.22-0.54-0.53-0.97-0.9-1.42
						C233.02,267.77,230.16,268.31,231.64,270.08L231.64,270.08z"/>
				</g>
			</g>
			<g>
				<g>
					<path class="st45" d="M231.95,274.73c0.11,0.14,0.2,0.28,0.3,0.42c0.12,0.17,0.09,0.19,0-0.03c0.04,0.09,0.09,0.19,0.12,0.29
						c0.05,0.17,0.1,0.33,0.14,0.5c-0.06-0.29,0.01,0.06,0.01,0.29c0,0.19-0.01,0.37-0.02,0.56c-0.02,0.28,0,0.03,0,0.05
						c-0.02,0.11-0.04,0.21-0.07,0.32c-0.13,0.46-0.28,0.9-0.48,1.33c-0.37,0.8-1.03,1.75-1.8,2.66c-0.91,1.06-1.94,2.03-2.98,2.88
						c-7.16,5.82-16.27,9.18-25.08,11.52c-6.44,1.71-13.01,2.82-19.63,3.48c-7.94,0.8-15.95,1.09-23.91,0.4
						c-14.19-1.23-28.22-4.85-41.31-10.45c-4.59-1.97-9.11-4.2-13.32-6.9c-1.5-0.96-2.62-1.73-3.89-2.84
						c-0.23-0.2-0.45-0.41-0.67-0.62c-0.14-0.13-0.57-0.6-0.49-0.51c0.09,0.11-0.22-0.29-0.31-0.41c-0.06-0.08-0.11-0.17-0.17-0.26
						c-0.18-0.28,0.18,0.23-0.01-0.01c-0.03-0.04-0.06-0.14-0.07-0.19c-0.03-0.23,0.09,0.17,0.01,0.08c-0.01-0.02-0.01-0.15,0-0.17
						c-0.19,0.41-0.04,0.22,0,0.1c0.63-1.62-2.68-2.81-3.32-1.17c-0.84,2.16,2.32,4.53,3.71,5.61c3.63,2.83,7.71,5.07,11.84,7.09
						c12.92,6.31,26.96,10.54,41.19,12.56c15.71,2.23,32,1.32,47.48-2.11c10.04-2.22,20.43-5.65,28.83-11.76
						c2.46-1.79,4.92-3.88,6.52-6.5c1.06-1.74,1.86-3.87,1.08-5.88c-0.17-0.45-0.42-0.89-0.72-1.26c-0.55-0.67-1.48-1.12-2.35-0.83
						C231.85,273.22,231.41,274.07,231.95,274.73L231.95,274.73z"/>
				</g>
			</g>
		</g>
		<g>
			<g>
				<g>
					<path class="st15" d="M222.19,194.16c0.4,0.06,0.05-0.01-0.02-0.05c0.33,0.2-0.39-0.23-0.01,0c-0.07-0.04-0.29-0.38-0.14-0.14
						c0.07,0.11,0.19,0.35-0.06-0.17c0.05,0.11,0.11,0.27,0.11,0.4c-0.01-0.33,0-0.2-0.01,0.1c-0.01,0.18-0.03,0.36-0.04,0.55
						c-0.03,0.38,0.06-0.22,0,0c-0.02,0.08-0.04,0.17-0.06,0.25c-0.07,0.24-0.14,0.48-0.22,0.72c-0.46,1.33-0.75,1.79-1.45,2.91
						c-0.83,1.32-1.79,2.55-2.82,3.72c-5.99,6.81-14.68,11.64-23.39,14.34c-13.93,4.32-29.03,3.88-43.22,1.08
						c-10.2-2.01-20.97-5.54-28.8-12.69c-1.26-1.15-2.29-2.24-3.21-3.46c-0.44-0.58-0.85-1.19-1.22-1.81
						c-0.16-0.27-0.31-0.54-0.46-0.82c-0.07-0.13-0.14-0.27-0.2-0.4c-0.12-0.24-0.12-0.25-0.09-0.2c-0.22-0.51-0.41-1.02-0.56-1.56
						c-0.07-0.25-0.13-0.5-0.18-0.75c-0.02-0.11-0.04-0.23-0.06-0.34c-0.04-0.22,0.01,0.33,0-0.06c-0.02-0.42-0.01-0.83,0.02-1.25
						c0.02-0.27,0.03-0.17-0.02,0.05c0.02-0.1,0.04-0.2,0.07-0.3c0.06-0.17,0.12-0.34,0.18-0.52c0.1-0.3-0.22,0.19,0.08-0.13
						c0.1-0.11,0.51-0.58,0.08-0.14c1.56-1.6-1.05-3.63-2.43-2.22c-3.91,4,0.29,10.38,3.14,13.63c6.9,7.87,17.54,12.15,27.43,14.68
						c8.05,2.06,16.44,3.14,24.74,3.38c7.47,0.22,15.02-0.46,22.27-2.3c10.23-2.61,20.21-7.54,27.58-15.24
						c2.26-2.36,4.37-5,5.65-8.03c0.7-1.67,1.32-4.09-0.26-5.48c-0.38-0.33-0.89-0.59-1.39-0.67c-0.86-0.14-1.87,0.07-2.2,0.99
						C220.73,193.05,221.36,194.02,222.19,194.16L222.19,194.16z"/>
				</g>
			</g>
			<g>
				<g>
					<path class="st46" d="M224.24,200.03c-0.13-0.02-0.31-0.08-0.11-0.02c0.24,0.08-0.31-0.21-0.16-0.08
						c-0.22-0.2-0.44-0.38-0.62-0.63c-0.1-0.14-0.07-0.17-0.14-0.34c0.14,0.35,0.04,0.02,0.03,0.15c-0.01,0.16-0.02,0.32-0.03,0.48
						c-0.01,0.09-0.03,0.18-0.04,0.26c-0.05,0.27,0.05-0.17-0.03,0.11c-0.12,0.45-0.29,0.88-0.48,1.31
						c-1.12,2.53-2.96,4.74-4.86,6.71c-6.67,6.92-15.5,11.6-24.64,14.33c-13.98,4.18-28.99,3.72-43.2,0.98
						c-10.26-1.98-21.03-5.53-29.11-12.42c-1.4-1.19-2.24-2.01-3.42-3.44c-0.23-0.28-0.45-0.56-0.67-0.85
						c0.22,0.3-0.33-0.48-0.43-0.63c-0.18-0.27-0.34-0.54-0.51-0.81c-0.1-0.17-0.48-0.91-0.32-0.57c-0.24-0.5-0.46-1.01-0.64-1.54
						c-0.12-0.34,0.04,0.17-0.03-0.08c-0.03-0.1-0.05-0.19-0.08-0.29c-0.05-0.25-0.1-0.5-0.14-0.75c-0.01-0.09-0.02-0.18-0.03-0.27
						c-0.02-0.24,0,0.26,0-0.04c0-0.2,0.01-0.4,0.02-0.61c0.04-0.51-0.02-0.28,0.21-0.79c0.07-0.14,0.14-0.28,0.23-0.41
						c-0.14,0.21,0.08-0.09,0.19-0.2c1.01-0.99-1.32-3.63-2.3-2.67c-1.4,1.37-1.27,3.54-0.77,5.28c0.86,3.01,2.79,5.68,4.92,7.93
						c7.37,7.79,17.91,12.21,28.12,14.81c15,3.82,31.41,4.92,46.53,1.18c10.24-2.53,20.31-7.41,27.83-14.93
						c2.2-2.2,4.34-4.71,5.65-7.55c0.9-1.97,1.27-4.3-0.59-5.87c-0.47-0.4-1-0.62-1.6-0.73c-0.83-0.16-0.83,0.88-0.65,1.39
						C222.68,199.23,223.42,199.88,224.24,200.03L224.24,200.03z"/>
				</g>
			</g>
			<g>
				<g>
					<path class="st47" d="M224.44,204.91c-0.09-0.02-0.95-0.39-0.94-0.39c0.05-0.02,0.06-0.01,0.1,0.13
						c0.09,0.31,0.13,0.27,0.12,0.63c-0.02,0.81-0.35,1.6-0.7,2.32c-1.22,2.54-3.17,4.73-5.15,6.69
						c-6.93,6.85-15.93,11.54-25.22,14.29c-13.9,4.11-28.85,3.77-42.97,0.92c-10.2-2.06-20.68-5.67-28.77-12.44
						c-2.31-1.93-4.51-4.16-5.95-6.84c-0.76-1.41-1.56-3.3-0.86-4.89c0.13-0.31,0.22-0.42,0.46-0.64c0.49-0.46-2.57-1.68-3.25-1.05
						c-1.29,1.2-0.96,3.12-0.41,4.6c1,2.72,3.04,5.06,5.1,7.04c7.74,7.45,18.46,11.62,28.7,14.21c7.86,1.99,15.98,3.05,24.07,3.39
						c7.48,0.31,15.01-0.27,22.32-1.94c10.51-2.41,20.84-7.14,28.84-14.48c2.36-2.17,4.65-4.62,6.2-7.45
						c0.63-1.15,1.73-3.26,0.47-4.37c-0.51-0.45-1.25-0.68-1.9-0.82c-0.32-0.07-1.72-0.39-1.84,0.14
						C222.73,204.5,224.19,204.86,224.44,204.91L224.44,204.91z"/>
				</g>
			</g>
			<g>
				<g>
					<path class="st48" d="M224.7,211.12c-0.1-0.02-0.39-0.11-0.16-0.04c-0.16-0.05-0.11-0.07-0.12-0.05
						c-0.03,0.04-0.06-0.17,0.03,0.06c0.06,0.14,0-0.21,0.03,0.12c0.01,0.13,0.02,0.26,0.02,0.39c0,0.16,0.03-0.04-0.04,0.28
						c-0.05,0.19-0.1,0.38-0.17,0.57c-0.15,0.43-0.35,0.84-0.57,1.24c-1.28,2.37-3.44,4.64-5.5,6.55
						c-7.17,6.66-16.36,11.19-25.73,13.78c-13.93,3.86-28.79,3.31-42.85,0.4c-10.33-2.13-20.82-5.84-29.21-12.41
						c-2.41-1.89-4.71-4.05-6.33-6.67c-0.56-0.9-0.97-1.71-1.19-2.64c-0.09-0.37-0.13-0.74-0.13-1.12c0-0.28,0.01-0.3,0.16-0.73
						c0.12-0.34-0.01-0.04,0.09-0.18c0.08-0.12,0.19-0.22,0.29-0.31c0.63-0.56-0.3-1.1-0.77-1.2c-0.82-0.18-1.73,0.06-2.36,0.61
						c-1.4,1.23-0.93,3.29-0.3,4.78c1.13,2.69,3.27,4.94,5.39,6.88c7.89,7.21,18.49,11.34,28.71,13.89
						c14.9,3.73,31.02,4.69,46.07,1.3c10.77-2.43,21.35-7.16,29.76-14.41c2.53-2.18,4.96-4.57,6.74-7.41
						c0.74-1.17,2.16-3.41,1.08-4.77c-0.34-0.42-0.85-0.6-1.35-0.73c-0.7-0.17-1.89-0.01-2.36,0.61
						C223.43,210.57,224.12,210.97,224.7,211.12L224.7,211.12z"/>
				</g>
			</g>
			<g>
				<g>
					<path class="st49" d="M224.99,216.95c1.24,0.35,0.1,2.45-0.29,3.13c-1.41,2.44-3.53,4.52-5.63,6.37
						c-7.41,6.54-16.67,10.83-26.19,13.28c-14.12,3.64-29.14,2.98-43.31-0.02c-10.46-2.22-21.05-5.97-29.69-12.43
						c-2.53-1.89-4.99-4.05-6.79-6.66c-0.85-1.23-2.01-3.08-1.5-4.65c0.02-0.07,0.19-0.41,0.11-0.25c0.16-0.3-0.01-0.03,0.12-0.14
						c0.52-0.43,0.28-0.57-0.26-0.47c-0.76,0.14-1.6,0.72-2.18,1.2c-1.4,1.16-1.07,2.88-0.36,4.35c1.26,2.61,3.48,4.78,5.65,6.64
						c8.11,6.91,18.59,10.99,28.82,13.5c14.65,3.59,30.43,4.55,45.21,1.16c11.11-2.55,21.88-7.41,30.81-14.55
						c2.69-2.15,5.33-4.56,7.34-7.37c0.65-0.9,2.5-3.28,1.62-4.52c-0.14-0.2-0.37-0.32-0.6-0.39c-0.58-0.17-1.57,0.52-2.03,0.81
						C225.7,216.03,224.55,216.83,224.99,216.95L224.99,216.95z"/>
				</g>
			</g>
			<g>
				<g>
					<path class="st50" d="M226.57,223.25c0.35,0.11-0.3-0.25-0.07-0.05c-0.07-0.06-0.35-0.45-0.29-0.32
						c0.05,0.11-0.17-0.42-0.04-0.04c0.02,0.06,0.12-0.29-0.03,0.1c-0.06,0.14-0.09,0.31-0.14,0.45c0.16-0.47-0.05,0.09-0.14,0.26
						c-0.22,0.43-0.48,0.84-0.75,1.23c-0.41,0.59-0.39,0.57-0.93,1.2c-0.48,0.56-0.98,1.11-1.49,1.64c-1.21,1.24-2.5,2.39-3.84,3.48
						c-7.86,6.39-17.44,10.73-27.19,13.27c-13.78,3.58-28.31,3.09-42.19,0.32c-10.56-2.11-21.18-5.76-30.09-11.94
						c-2.71-1.88-5.11-3.8-7.09-6.31c-0.35-0.44-0.68-0.9-0.98-1.38c-0.2-0.31,0.08,0.15-0.05-0.08c-0.05-0.09-0.1-0.18-0.15-0.28
						c-0.1-0.2-0.2-0.41-0.29-0.62c-0.07-0.18-0.13-0.36-0.19-0.54c-0.09-0.25-0.03-0.18,0.01,0.05c-0.01-0.1-0.05-0.2-0.05-0.29
						c0-0.15-0.02-0.29-0.02-0.44c0.01,0.62-0.05-0.06,0.05-0.08c-0.05,0.01-0.04,0.32,0.03-0.01c0.04-0.18-0.24,0.29-0.11,0.15
						c0.1-0.11,0.35-0.29-0.13,0.07c1.79-1.4-0.36-3.73-1.98-2.47c-4.52,3.52,2.86,10.03,5.42,12.15
						c8.3,6.89,18.84,11.05,29.18,13.71c14.8,3.82,30.69,4.88,45.7,1.8c11.14-2.29,22.09-6.89,31.15-13.83
						c2.9-2.22,5.7-4.66,7.91-7.59c1.03-1.37,2.77-3.81,1.48-5.52c-0.27-0.36-0.68-0.67-1.11-0.81c-0.84-0.27-1.89-0.11-2.36,0.73
						C225.36,221.97,225.75,222.99,226.57,223.25L226.57,223.25z"/>
				</g>
			</g>
			<g>
				<g>
					<path class="st51" d="M226.64,228.17c1.16,0.43-0.33,2.53-0.75,3.12c-1.79,2.48-4.18,4.56-6.57,6.43
						c-8.14,6.36-17.82,10.82-27.81,13.35c-13.86,3.51-28.55,2.78-42.45-0.16c-10.61-2.24-21.21-6.03-30.25-12.13
						c-2.7-1.82-5.38-3.88-7.47-6.41c-0.81-0.98-2.42-2.92-1.88-4.35c0.07-0.17,0.34-0.46,0.3-0.43c0.59-0.43-0.5-0.38-0.73-0.37
						c-0.71,0.05-1.73,0.21-2.33,0.64c-1.35,0.98-0.58,2.68,0.14,3.82c1.56,2.49,3.94,4.51,6.25,6.27
						c8.62,6.58,19.17,10.62,29.62,13.18c14.61,3.59,30.07,4.49,44.87,1.57c11.43-2.25,22.65-6.66,32.21-13.37
						c3.01-2.11,5.97-4.47,8.39-7.25c0.73-0.83,2.87-3.09,2.23-4.4c-0.1-0.2-0.29-0.36-0.5-0.43c-0.64-0.24-1.54,0.02-2.17,0.2
						C227.62,227.49,226.26,228.03,226.64,228.17L226.64,228.17z"/>
				</g>
			</g>
			<g>
				<g>
					<path class="st52" d="M228.95,234.67c0,0-0.55-0.44-0.7-0.66c-0.09-0.13-0.2-0.37-0.16-0.35c-0.07-0.04,0.08-0.23-0.03,0.09
						c-0.05,0.15-0.09,0.3-0.15,0.45c0.08-0.19-0.06,0.13-0.16,0.29c-0.11,0.18-0.22,0.36-0.34,0.54c-0.3,0.45-0.64,0.87-0.99,1.28
						c-2.08,2.43-4.64,4.46-7.23,6.32c-8.63,6.16-18.62,10.49-28.91,12.97c-13.77,3.31-28.06,2.9-41.89,0.18
						c-10.77-2.12-21.53-5.8-30.86-11.66c-2.79-1.75-5.43-3.7-7.48-5.86c-0.21-0.22-0.41-0.44-0.61-0.67
						c-0.08-0.1-0.17-0.2-0.25-0.3c-0.25-0.3,0.09,0.13-0.07-0.09c-0.29-0.39-0.56-0.78-0.79-1.2c0.13,0.23,0,0-0.1-0.24
						c-0.09-0.21-0.14-0.48-0.08-0.19c-0.03-0.13-0.05-0.28-0.05-0.41c0,0.15-0.08,0.09,0.04-0.13c-0.04,0.08,0.17-0.18,0.12-0.14
						c1.36-0.91-1.2-3.29-2.36-2.51c-1.69,1.14-0.59,3.41,0.28,4.7c1.74,2.6,4.29,4.71,6.78,6.55c8.84,6.53,19.46,10.74,30.05,13.44
						c14.5,3.7,29.99,4.94,44.76,2.16c11.56-2.18,22.89-6.63,32.63-13.28c3.03-2.07,6.02-4.37,8.49-7.1
						c1.15-1.27,3.08-3.39,1.96-5.21c-0.3-0.5-0.82-0.97-1.36-1.2c-0.58-0.24-1.55-0.49-1.79,0.33
						C227.47,233.49,228.35,234.42,228.95,234.67L228.95,234.67z"/>
				</g>
			</g>
			<g>
				<g>
					<path class="st53" d="M230.01,240.45c-0.43-0.21-0.85-0.6-1.05-0.99c-0.03-0.07-0.01-0.16-0.04-0.1
						c-0.18,0.38,0.04,0.14-0.21,0.6c-0.46,0.85-1.09,1.59-1.75,2.28c-2.27,2.43-5.02,4.45-7.77,6.29
						c-8.99,6.04-19.24,10.3-29.78,12.72c-13.71,3.15-27.94,2.72-41.68-0.06c-10.69-2.16-21.32-5.75-30.71-11.39
						c-2.99-1.79-5.56-3.52-8-5.9c-0.18-0.17-0.59-0.61-0.44-0.44c-0.19-0.2-0.37-0.41-0.55-0.62c-0.16-0.19-0.31-0.39-0.46-0.58
						c-0.06-0.08-0.12-0.17-0.18-0.26c-0.02-0.03,0.13,0.22-0.02-0.04c-0.09-0.16-0.18-0.33-0.27-0.5c-0.17-0.34,0.04,0.18-0.08-0.2
						c-0.03-0.09-0.08-0.46-0.06-0.28c0.02,0.2,0-0.14,0.04-0.22c-0.03,0.05-0.1,0.13,0.07-0.06c0.05-0.06-0.18,0.11,0.09-0.05
						c1.26-0.78-1.44-2.99-2.57-2.29c-1.69,1.04-0.24,3.34,0.57,4.44c1.88,2.54,4.57,4.56,7.14,6.36
						c9.02,6.3,19.65,10.44,30.25,13.15c14.47,3.7,29.88,4.97,44.64,2.31c11.75-2.12,23.26-6.51,33.31-12.97
						c3.2-2.06,6.33-4.35,9.01-7.07c1.07-1.09,3.2-3.1,2.34-4.84c-0.32-0.65-0.96-1.12-1.6-1.42c-0.53-0.25-1.55-0.4-1.71,0.37
						C228.41,239.46,229.45,240.18,230.01,240.45L230.01,240.45z"/>
				</g>
			</g>
			<g>
				<g>
					<path class="st54" d="M229.69,246.04c0.06,0.03-0.11-0.04-0.04-0.18c-0.04,0.08-0.02,0.22-0.06,0.32
						c-0.13,0.33,0.09-0.11-0.08,0.2c-0.53,0.95-0.95,1.36-1.66,2.07c-2.35,2.36-5.11,4.32-7.9,6.11
						c-9.23,5.92-19.63,10.12-30.33,12.48c-13.64,3.01-27.7,2.47-41.33-0.31c-10.82-2.2-21.54-5.9-31.14-11.42
						c-2.96-1.7-5.91-3.58-8.45-5.87c-0.78-0.7-1.54-1.46-2.15-2.32c-0.1-0.15-0.2-0.3-0.3-0.46c-0.18-0.3-0.07-0.05-0.15-0.3
						c-0.04-0.12-0.07-0.24-0.1-0.36c-0.08-0.32,0.06,0.04-0.01-0.11c-0.06-0.13-0.09,0.01,0-0.04c-0.02,0.01-0.38,0.31-0.23,0.23
						c0.58-0.33,0.95-1.02,0.33-1.49c-0.65-0.49-1.8-0.2-2.43,0.15c-4.45,2.49,5.6,9,7.14,10.02c9.25,6.11,19.96,10.18,30.68,12.85
						c14.41,3.58,29.57,4.8,44.26,2.27c12.05-2.07,23.86-6.43,34.34-12.74c3.42-2.06,6.8-4.34,9.74-7.06
						c1.06-0.98,3.67-3.12,3.25-4.87c-0.08-0.34-0.32-0.64-0.63-0.8c-0.73-0.4-1.74-0.28-2.43,0.15
						C229.54,244.84,228.95,245.63,229.69,246.04L229.69,246.04z"/>
				</g>
			</g>
			<g>
				<g>
					<path class="st55" d="M232.94,252.46c0.06,0.04-1.8-2.37-1.74-2.45c-0.02,0.02,0.03,0.1,0.02,0.13
						c-0.04,0.06-0.03,0.22-0.06,0.3c-0.12,0.3-0.28,0.57-0.46,0.83c-0.6,0.85-1.38,1.59-2.15,2.28c-2.68,2.41-5.72,4.42-8.8,6.26
						c-9.59,5.74-20.23,9.87-31.15,12.22c-13.66,2.95-27.69,2.55-41.36-0.12c-11.08-2.16-21.99-5.79-31.97-11.1
						c-3.21-1.71-6.38-3.58-9.23-5.86c-0.52-0.41-1.02-0.84-1.51-1.29c-0.19-0.18-0.29-0.28-0.45-0.44
						c-0.08-0.08-0.16-0.17-0.25-0.26c-0.12-0.12,0.13-0.01-0.09-0.1c0.09,0.04,0.19,0.23,0.39,0.55c0.07,0.12,0.09,0.31,0.11,0.16
						c0,0.02-0.09-0.29-0.02-0.46c0.07-0.18,0.2-0.3,0.38-0.39c0.16-0.08-1.59-3.1-2.06-2.86c-1.59,0.8,1.47,4.18,1.98,4.78
						c2.01,2.35,4.61,4.19,7.19,5.85c9.34,6.01,20.03,10.06,30.76,12.78c14.23,3.61,29.25,4.93,43.79,2.48
						c12.22-2.06,24.17-6.4,34.86-12.66c3.37-1.97,6.71-4.14,9.61-6.77c0.79-0.72,1.61-1.49,2.19-2.4c0.5-0.79,0.46-1.27-0.02-2.08
						c-0.45-0.76-1.04-1.72-1.81-2.2c-0.24-0.15,0.43,1.1,0.48,1.17C231.91,251.36,232.36,252.1,232.94,252.46L232.94,252.46z"/>
				</g>
			</g>
			<g>
				<g>
					<path class="st56" d="M231.69,258.1c-0.18-0.13-0.21-0.39-0.15-0.75c-0.03,0.16-0.26,0.52,0.02,0.03
						c-0.1,0.17-0.21,0.32-0.31,0.48c-0.29,0.46,0.14-0.12-0.17,0.21c-0.16,0.17-0.33,0.35-0.49,0.52c-0.45,0.45-0.92,0.87-1.4,1.28
						c-1,0.85-2.37,1.84-3.72,2.74c-1.67,1.12-3.4,2.17-5.15,3.17c-9.84,5.59-20.7,9.63-31.79,11.87
						c-13.52,2.72-27.3,2.18-40.79-0.52c-11.01-2.21-21.84-5.87-31.82-11.04c-3.42-1.77-6.81-3.74-9.81-6.16
						c-0.5-0.4-0.98-0.82-1.44-1.26c-0.08-0.08-0.16-0.16-0.25-0.25c-0.28-0.29,0.03,0.05-0.11-0.12c-0.14-0.16-0.28-0.33-0.4-0.5
						c-0.1-0.14-0.19-0.29-0.27-0.44c-0.12-0.21-0.02,0.3-0.01-0.09c-0.01,0.4-0.32,1-0.95,1.28c0.74-0.33,1.53-1.07,1.32-1.97
						c-0.19-0.83-1.24-1.07-1.94-0.76c-5.97,2.63,5.26,9.22,7.13,10.33c9.61,5.76,20.32,9.8,31.16,12.51
						c14.2,3.56,29.1,4.96,43.62,2.69c12.6-1.97,24.88-6.25,36.09-12.32c3.75-2.03,7.41-4.29,10.74-6.97
						c1.42-1.14,4.14-3.13,3.98-5.23c-0.03-0.46-0.22-0.89-0.61-1.17C232.76,254.66,230.13,256.99,231.69,258.1L231.69,258.1z"/>
				</g>
			</g>
			<g>
				<g>
					<path class="st57" d="M232.3,262.94C232.34,262.97,232.35,262.92,232.3,262.94c-0.02,0.02,0.1-0.14-0.04,0.09
						c-0.1,0.16,0.06-0.08-0.08,0.19c-0.09,0.17-0.21,0.32-0.32,0.47c-0.61,0.78-1.39,1.44-2.16,2.06
						c-2.91,2.33-6.16,4.26-9.43,6.04c-10.19,5.55-21.33,9.63-32.71,11.9c-13.35,2.66-26.92,2.22-40.23-0.46
						c-11.13-2.23-22.06-5.85-32.22-10.94c-3.5-1.75-7.01-3.68-10.12-6.08c-0.69-0.54-1.57-1.24-2.16-2.02
						c0.14,0.18-0.42-0.67-0.24-0.41c-0.12-0.16,0.17-0.22-0.03-0.08c0.12-0.08-0.26,0.12-0.2,0.09c0.67-0.25,0.71-0.75,0.14-1.16
						c-0.61-0.44-1.77-0.57-2.47-0.3c-1.92,0.73-0.3,2.47,0.62,3.33c2.34,2.18,5.18,3.87,7.95,5.43c9.89,5.58,20.75,9.58,31.75,12.3
						c14.05,3.48,28.78,4.94,43.16,2.9c12.73-1.81,25.19-5.93,36.65-11.71c3.91-1.97,7.78-4.15,11.31-6.76
						c1.09-0.81,2.19-1.66,3.13-2.64c0.45-0.47,1.12-1.15,1.16-1.85c0.02-0.31-0.11-0.63-0.36-0.84c-0.64-0.52-1.55-0.73-2.36-0.59
						C232.65,261.97,231.65,262.41,232.3,262.94L232.3,262.94z"/>
				</g>
			</g>
			<g>
				<g>
					<path class="st58" d="M233.28,269.34c-0.02-0.02,0,0.09-0.03,0.26c-0.03,0.15-0.19,0.34-0.42,0.62
						c-0.44,0.53-1.5,1.39-2.19,1.91c-3.05,2.27-6.42,4.14-9.81,5.87c-10.36,5.29-21.56,9.18-33,11.31
						c-13.38,2.5-26.93,1.86-40.24-0.82c-11.18-2.25-22.16-5.84-32.46-10.76c-3.66-1.75-7.3-3.65-10.64-5.97
						c-0.9-0.63-1.86-1.29-2.6-2.1c-0.2-0.23-0.33-0.48-0.51-0.72c-0.11-0.15-0.07-0.16-0.06-0.15c-0.15-0.12,0.52-0.01-0.06,0.08
						c-0.26,0.04-0.96,0.66-1.45,0.82c0.46-0.14,1.83-0.59,1.85-1.21c0.03-0.63-1.11-0.34-1.42-0.24c-0.77,0.24-2.43,0.84-2.15,1.93
						c0.16,0.63,0.88,1.19,1.34,1.59c2.34,2.08,5.19,3.65,7.93,5.14c10.05,5.44,21.01,9.36,32.1,12.07
						c14.06,3.43,28.67,4.78,43.03,2.67c12.92-1.9,25.56-6.06,37.31-11.73c4.1-1.98,8.15-4.16,11.89-6.76
						c1.17-0.81,2.34-1.66,3.37-2.65c0.52-0.5,1.38-1.25,1.49-2.02c0.05-0.32-0.02-0.5-0.25-0.71
						C235.66,267.15,232.6,268.7,233.28,269.34L233.28,269.34z"/>
				</g>
			</g>
			<g>
				<g>
					<path class="st1" d="M234.69,275.42c-0.39-0.43-0.45-0.92-0.47-1.22c-0.04-0.63,0.06,0.04-0.02-0.02c0,0-0.1,0.17-0.11,0.17
						c0.33-0.35,0.11-0.15,0.03-0.07c-0.14,0.15-0.28,0.31-0.43,0.46c-0.81,0.81-1.71,1.45-2.54,2.01
						c-3.25,2.22-6.77,4.08-10.31,5.8c-10.43,5.07-21.55,8.87-32.93,11.11c-6.34,1.25-12.81,2-19.28,1.95
						c-6.86-0.06-13.71-0.81-20.45-2.04c-11.64-2.12-23.07-5.72-33.88-10.55c-3.9-1.74-7.77-3.65-11.37-5.96
						c-0.57-0.36-1.13-0.74-1.68-1.14c-0.11-0.08-0.21-0.16-0.32-0.24c-0.42-0.31,0.12,0.11-0.11-0.08
						c-0.18-0.15-0.37-0.31-0.54-0.47c-0.12-0.11-0.23-0.24-0.35-0.36c0.02,0.02,0.2,0.37,0.01-0.03c0.31,0.63,0.15,1.51-0.54,1.68
						c2.06-0.52,0.68-3.64-1.12-3.19c-2.83,0.71-0.61,3.56,0.66,4.59c2.63,2.12,5.66,3.75,8.66,5.29c10.6,5.43,22,9.45,33.59,12.16
						c14.12,3.3,28.67,4.62,43.07,2.42c12.7-1.94,25.17-5.96,36.8-11.4c3.97-1.86,7.91-3.89,11.57-6.33
						c1.53-1.02,4.47-2.64,4.79-4.71c0.11-0.72-0.2-1.38-0.68-1.91C235.26,271.69,233.21,273.78,234.69,275.42L234.69,275.42z"/>
				</g>
			</g>
		</g>
		<g>
			<path class="st59" d="M50.27,194.38c-0.11,2.55-3.32,5.58-5.44,6.81c-3.07,1.78-8.01,9.53-8.64,12.18"/>
			<g>
				<path class="st60" d="M109.38,60.03c14.48-16.28,34.34-24.81,53.3-34.6c7.76-4.01,7.41-26.03,5.51-25.51
					c-38.84,10.73-18.55,17.96-28.57,25.3c-8.11,5.93-33.06,21.12-49.78,39.92c-2.12,2.38-7.03,14.79-5.4,14.8
					C87.48,79.97,107.31,62.35,109.38,60.03L109.38,60.03z"/>
			</g>
			<g>
				<path class="st1" d="M138.31,0.91c-12.22,7.25-9.44,6.07-19.04,16.52c-10.66,11.59-18.56,24.94-28.23,37.24
					C77.36,72.06,62.1,87.89,54.85,109.25c-12.83,37.76-20.63,79.3-13.64,118.74c0.54,3.04,9.06,3.41,8.48,0.17
					c-1.83-10.33-0.43-23.06-0.64-33.4c0.91-11.28,0.14-16.47,0.87-24.67c1.76-5.58,0.1-10.64,1.73-14.45
					c1.62-3.81,0.86-5.46,1.35-8.18c0.4-2.21,1.42-2.56,1.94-5.98c0.51-3.42,0.08-4.11,0.47-5.83c1.07-4.74,4.6-9.63,5.9-14.32
					c3.18-11.44,11.67-22.37,17.89-32.54c5.72-9.35,6.41-17.5,13.3-25.98c8.15-10.03,19.07-16.75,26.96-26.97
					c9.68-12.54,15.45-7.26,28.45-16.4C163.89,8.19,147.48-4.53,138.31,0.91z"/>
			</g>
			<g>
				<g>
					<path class="st28" d="M45.5,138.26c-2.74,15.46-5.53,30.94-7.49,46.53c-1.38,10.96-2.38,22.08-1.55,33.12
						c0.61,8.2,2.48,16.29,6.31,23.61c4.13,7.91,9.96,14.59,16.54,20.55c8.86,8.02,18.72,14.94,28.57,21.67
						c1.48,1.01,2.96,2.01,4.44,3.01c0.9,0.61,2.59,0.59,3.59,0.48c1.34-0.15,2.96-0.63,4.08-1.41c1.69-1.18,2.99-3.1,0.86-4.53
						c-5.55-3.73-11.06-7.52-16.46-11.46c-1.17-0.85-2.33-1.71-3.49-2.58c-0.23-0.17-0.96-0.73-0.32-0.24
						c-0.28-0.21-0.55-0.42-0.83-0.63c-0.57-0.44-1.15-0.89-1.72-1.33c-2.06-1.62-4.1-3.27-6.09-4.98
						c-6.67-5.73-12.94-12.12-17.43-19.73c-0.23-0.39-0.44-0.78-0.67-1.17c0.51,0.86,0.09,0.16-0.03-0.06
						c-0.14-0.26-0.28-0.53-0.42-0.79c-0.43-0.85-0.85-1.7-1.23-2.57c-0.8-1.8-1.5-3.64-2.1-5.52c-1.25-3.93-2.05-7.99-2.51-12.08
						c-0.25-2.23-0.41-4.47-0.49-6.71c-0.01-0.29-0.02-0.58-0.03-0.86c-0.01-0.31-0.02-0.98-0.01-0.26c-0.01-0.67-0.02-1.33-0.02-2
						c0-1.23,0.02-2.45,0.05-3.68c0.16-5.62,0.64-11.22,1.27-16.8c1.67-14.84,4.27-29.57,6.85-44.28c0.38-2.18,0.77-4.36,1.15-6.54
						C57.11,132.58,46.2,134.31,45.5,138.26L45.5,138.26z"/>
				</g>
			</g>
			<g>
				<g>
					<path class="st61" d="M118.69,33.08c3.84-5.13,7.28-10.52,11.02-15.71c0.49-0.69,1.01-1.36,1.57-2
						c0.11-0.13,0.23-0.26,0.34-0.38c0.21-0.23,0.28-0.29,0.16-0.17c0.29-0.29,0.6-0.57,0.91-0.84c0.66-0.57,1.37-1.1,2.09-1.6
						c-0.39,0.27,0.08-0.05,0.24-0.15c0.23-0.15,0.45-0.29,0.68-0.44c0.54-0.34,1.08-0.67,1.62-1c3.57-2.14,7.23-4.14,10.85-6.18
						c0.7-0.39,1.47-1.27,0.48-1.8c-0.98-0.53-2.66,0.02-3.54,0.51c-3.37,1.9-6.76,3.76-10.09,5.72c-1.99,1.17-3.99,2.38-5.78,3.83
						c-3.09,2.49-5.14,5.91-7.32,9.16c-2.52,3.75-5.15,7.44-7.86,11.06c-0.7,0.93,0.6,1.31,1.32,1.32
						C116.46,34.41,117.99,34.01,118.69,33.08L118.69,33.08z"/>
				</g>
			</g>
			<g>
				<g>
					<path class="st45" d="M141.44,16.21c1.49-1.03,2.99-2.05,4.42-3.15c0.83-0.64,2.31-1.63,1.97-2.87
						c-0.54-1.98-3.35-1.11-4.62-0.53c-1.04,0.47-2.05,1.03-3.05,1.58c-6.78,3.7-13.42,7.68-20.06,11.63
						c-2.02,1.2-4.05,2.4-6.06,3.62c-0.85,0.52-1.24,1.74-0.47,2.47c0.81,0.76,2.38,0.74,3.3,0.2c8.4-4.93,16.85-9.89,24.9-15.38
						c4.5-3.06,8.82-6.37,12.82-10.06c0.78-0.72,1.38-1.87,0.28-2.64c-0.97-0.68-2.82-0.48-3.69,0.31
						c-10.68,9.85-23.58,16.91-35.96,24.37c-0.17,0.11-0.35,0.21-0.52,0.32c-0.54,0.33,0.47-0.17,0.17-0.1
						c-0.09,0.02-0.19,0.11-0.27,0.16c0.95,0.89,1.89,1.78,2.84,2.67c-1.25,0.76,0.3-0.18,0.62-0.37c1.01-0.6,2.02-1.21,3.03-1.81
						c3.07-1.83,6.15-3.65,9.24-5.46c3.26-1.91,6.52-3.81,9.81-5.66c1.24-0.7,2.48-1.39,3.74-2.05c0.43-0.23,0.87-0.45,1.31-0.67
						c0.39-0.19,1.44-0.49,0.24-0.15c0.04-0.01,0.09-0.03,0.13-0.04c-0.46,0.11-0.98,0.17-1.52,0.03c-1.52-0.4-1.55-1.67-1.01-2.36
						c-0.34,0.45,0.54-0.42,0.11-0.09c-0.18,0.13-0.34,0.28-0.52,0.42c-1.47,1.16-3.03,2.21-4.58,3.27
						c-0.9,0.62-1.29,1.93-0.28,2.64C138.83,17.29,140.44,16.9,141.44,16.21L141.44,16.21z"/>
				</g>
			</g>
			<g>
				<path class="st14" d="M109.95,51.34c15.28-25.77,6.74-23.18,34.09-33.67c6.86-2.63,14.47-4.33,21-7.71
					c1.59-0.82,2.54-1.75,3.77-3.07c3.78-4.07-23.24,4.56-27.84,6.32c-12.51,4.77-32.35,21.9-41.57,37.45
					c-0.55,0.92-8.07,12.86-7.59,13.32c0,0,14.03-5.97,15.28-8.07L109.95,51.34z"/>
			</g>
			<path class="st62" d="M108.02,61.91c-6.23,3.55-13.49,2.61-19.47,3.67s-9.5,3.26-11.18,5.41"/>
			<path class="st62" d="M97.21,71.5c0,0-5.35,5.3-16.08,6.41s-11.99,4.16-11.99,4.16"/>
			<path class="st62" d="M82.38,85.09c0,0-7.17,4.74-13.59,7.09c-6.42,2.35-8.82,4.75-10.86,7.57"/>
			<path class="st62" d="M73.31,98.91c0,0-3.63,2.81-9.42,5.28s-10.49,10.15-11.86,12.5"/>
			<path class="st62" d="M65.36,112.72c0,0-4.42,7.62-6.49,8.57c-1.75,0.81-7.41,5.4-10.63,9.4"/>
			<path class="st62" d="M57.07,139.87c0,0-4.27,4.94-6.35,5.9c-3,1.38-7.61,7.24-8.57,9.78"/>
			<path class="st62" d="M54,152.82c-0.39,2.52-5.42,11.13-7.48,12.16c-2.99,1.5-6.63,5.09-7.5,7.67"/>
			<path class="st62" d="M52.46,174.35c-0.39,2.52-5.57,8.28-7.63,9.32c-2.99,1.5-7.52,6.34-8.38,8.92"/>
			<path class="st63" d="M50.6,230.93c0.52,2.66,1.2,7.91,0.02,10.48c-1.18,2.57-1.4,7.79-1.33,10.69"/>
			<path class="st62" d="M61.25,248.16c1.18,2.37,1.07,7.17-0.06,9.28c-1.64,3.06-2.71,3.8-1.9,6.51"/>
			<path class="st62" d="M70.05,258.24c1.65,2.07,2.55,6.78,1.88,9.09c-0.96,3.34-1.85,4.28-0.49,6.77"/>
			<path class="st62" d="M125.33,46.47c-5.89,3.71-21.82,2.72-24.71,3.24c-4.18,0.76-7.85,1.45-9.93,4.33"/>
			<g>
				<path class="st61" d="M107.15,44.66c20.77-16.76,43.71-20.47,48.17-24.38"/>
				<g>
					<path class="st1" d="M111.96,45.38c2.02-1.62,4.11-3.15,6.24-4.62c0.17-0.12,0.83-0.56-0.02,0c0.24-0.16,0.49-0.32,0.74-0.48
						c0.49-0.32,0.98-0.63,1.47-0.94c1.03-0.64,2.07-1.27,3.11-1.87c1.95-1.13,3.93-2.2,5.95-3.21c0.47-0.24,0.94-0.47,1.41-0.7
						c0.16-0.08,0.5-0.3,0.7-0.34c-0.97,0.18-0.83,0.39-0.34,0.16c1.02-0.47,2.04-0.94,3.07-1.39c5.98-2.62,12.17-4.66,18.24-7.03
						c2.61-1.02,5.43-2.13,7.58-3.97c0.6-0.51,1.53-1.42,1.28-2.36c-0.24-0.9-1.51-1.3-2.29-1.4c-2.77-0.37-6.44,0.45-8.6,2.31
						c-0.11,0.09-0.24,0.17-0.34,0.27c-0.62,0.6,1.2-0.72,0.61-0.4c-0.38,0.21-0.76,0.42-1.14,0.63c-0.71,0.38,1.66-0.76,0.63-0.3
						c-0.22,0.1-0.44,0.2-0.66,0.29c-0.52,0.22-1.04,0.43-1.57,0.64c-2.67,1.05-5.39,1.98-8.09,2.98c-7.86,2.9-15.6,6.22-22.9,10.35
						c-5.14,2.91-10.09,6.22-14.7,9.93c-0.61,0.49-1.52,1.44-1.28,2.36c0.24,0.9,1.51,1.3,2.29,1.4
						C106.2,48.07,109.7,47.2,111.96,45.38L111.96,45.38z"/>
				</g>
			</g>
			<path class="st64" d="M165.42,23.76c-10.32,5.91-43.76,9.07-46.43,9.22c-3.88,0.21-14.62,3.04-16.3,5.2"/>
			<path class="st65" d="M62.03,120.66l-1.93,5.28c3.37,0.52,3.89,1.39,3.89,2.67c0,1.78-4.49,3.22-10.03,3.22
				c-5.54,0-10.03-1.44-10.03-3.22c0-1.33,1.67-2.56,5.24-3.05l1.63-5.87c-9.11,0.51-15.32,4.58-15.32,9.04
				c0,4.81,8.22,8.71,18.36,8.71s18.36-3.9,18.36-8.71C72.2,124.91,69.25,121.83,62.03,120.66z"/>
			<g>
				<path class="st66" d="M52.87,140.51c-9.65,0.48-16.84-5.4-17.02-6.8l-0.27-5.33c0,3.18,7.03,8.46,17.32,8.46
					c8.41,0,15.51-2.44,17.72-5.1c0.49-0.59,1.05-1.77,1.05-1.77l-0.69,4.47C70.27,136.35,62.51,140.03,52.87,140.51z"/>
			</g>
		</g>
		<path class="st67" d="M90.55,286.26c0,0-2.93-1.37-2.06-6.38c0.8-3.61,4.38-5.88,8.01-5.08c3.62,0.8,5.91,4.38,5.11,7.99
			c-0.15,0.66-0.39,0.93-0.71,1.49l3.41,2.66c0.81-1.14,1.09-1.79,1.41-3.24c1.3-5.87-2.42-12.67-8.32-13.97
			c-5.89-1.3-12.85,3.38-14.15,9.25c-1.06,4.79,0.76,11.27,6.83,13.72L90.55,286.26z"/>
		<g>
			<g>
				<path class="st28" d="M90.67,283.79c7.76,6.24,15.87,12.28,24.46,17.34c10.13,5.97,22.07,8.07,33.61,9.37
					c17.95,2.02,36.32,1.08,53.92-3.06c7.73-1.82,15.35-4.43,22.24-8.42c4.05-2.34,7.9-5.31,10.71-9.08
					c1.71-2.29,3.15-4.86,3.64-7.71c0.18-1.08,0.62-3.23-0.44-4.07c-1.37-1.08-4.32-0.06-5.62,0.37c-0.69,0.23-3.62,1.47-2.48,2.56
					c1.13,1.08,4.32,0,5.47-0.39c-0.69,0.12-1.38,0.24-2.07,0.36c-0.81,0.37-1.62,0.47-2.43,0.31c-0.35-0.07-0.52-0.04-0.83-0.26
					c0.02,0.01,0.03,0.03,0.05,0.04c-0.17-0.11-0.13-0.41-0.13-0.14c0,0.17,0.12,0.41,0.15,0.59c0.05,0.3,0.06,0.62,0.06,0.92
					c0,0.18-0.02,0.35-0.02,0.53c-0.01,0.47,0.06-0.21-0.03,0.3c-0.43,2.47-1.44,4.75-2.85,6.82c-0.1,0.15-0.2,0.29-0.3,0.43
					c-0.14,0.2,0.06-0.08,0.07-0.1c-0.07,0.1-0.15,0.2-0.22,0.29c-0.28,0.35-0.55,0.7-0.84,1.03c-0.63,0.74-1.31,1.44-2.02,2.1
					c-0.36,0.34-0.72,0.67-1.1,0.98c-0.21,0.18-0.42,0.36-0.64,0.53c0.44-0.36-0.13,0.09-0.28,0.21c-0.98,0.75-2,1.45-3.05,2.1
					c-0.28,0.18-0.57,0.35-0.85,0.52c-0.23,0.13-0.76,0.43-0.22,0.13c-0.63,0.35-1.26,0.69-1.9,1.01c-0.68,0.34-1.36,0.67-2.06,0.99
					c-0.31,0.14-0.62,0.28-0.93,0.41c0.78-0.34-0.41,0.17-0.65,0.26c-1.64,0.66-3.31,1.26-5,1.8c0.73-0.23-0.2,0.06-0.45,0.13
					c-0.47,0.14-0.94,0.28-1.42,0.41c-0.99,0.28-1.98,0.54-2.97,0.79c-2.25,0.56-3.47,0.82-5.88,1.28c-2.1,0.4-4.21,0.74-6.32,1.04
					c-3.79,0.53-7.96,0.91-12.1,1.12c-7.73,0.39-15.47,0.16-23.23-0.63c-6.25-0.64-12.4-1.64-18.52-3.21
					c-2.35-0.6-4.69-1.29-6.97-2.12c-2.13-0.78-3.2-1.28-5.26-2.42c-9.15-5.07-17.64-11.5-25.83-17.99
					c-0.19-0.15-0.37-0.29-0.56-0.44c-1.28-1.03-4.15-0.13-5.47,0.39C92.57,281.46,89.43,282.79,90.67,283.79L90.67,283.79z"/>
			</g>
		</g>
		<path class="st62" d="M49.41,194.72c-0.11,2.55-3.32,5.58-5.44,6.81c-3.07,1.78-8.01,9.53-8.64,12.18"/>
		<path class="st62" d="M48.85,212.13c0.2,3.65-3.44,10.05-5.73,12.12c-3.32,2.99-3.32,6.07-3.71,9.95"/>
	</g>
	<path class="st68" d="M102.06,284.07"/>
</g>
</svg>
