<?xml version="1.0" encoding="utf-8"?>
<!-- Generator: Adobe Illustrator 25.2.3, SVG Export Plug-In . SVG Version: 6.00 Build 0)  -->
<svg version="1.1" id="Layer_1" xmlns="http://www.w3.org/2000/svg" xmlns:xlink="http://www.w3.org/1999/xlink" x="0px" y="0px"
	 viewBox="0 0 140 200" style="enable-background:new 0 0 140 200;" xml:space="preserve">
<style type="text/css">
	.st0{fill:none;stroke:#EE7345;stroke-width:2.5;stroke-miterlimit:10;}
</style>
<g>
	<path class="st0" d="M43.8,124c0,0,4.8-1.3,1.6-4.3c-3.2-3-9.6-2.9-13.1-4.2c-3.4-1.3-4-3.5-0.9-5c3.1-1.4,5.8-1.6,9.3,1
		c3.6,2.6,5,5.5,8.2,6.2c3.2,0.7,6-0.1,6.9-0.9"/>
	<path class="st0" d="M54.1,117.8c0,0,4.6-1.2,1.4-4.1c-3.1-2.9-9.4-2.8-12.7-4.1c-3.3-1.2-4-3.4-1-4.8c3-1.3,5.5-1.5,9,1
		c3.5,2.5,5,5.3,8.1,6c3.1,0.7,5.8-0.1,6.6-0.9"/>
	<path class="st0" d="M74.7,104.6c0,0,4.4-1.1,1.2-3.9c-3.1-2.7-9.1-2.8-12.4-4c-3.3-1.2-4-3.3-1.1-4.5c2.8-1.3,5.3-1.4,8.7,1
		c3.5,2.4,5,5.1,8,5.8c3,0.6,11.1-1.5,6.8-2.2"/>
	<path class="st0" d="M32.3,117.9c0,0,4.8-1.2,1.7-4.2c-3.1-2.9-9.6-2.9-12.9-4.2c-3.4-1.3-3.9-3.5-0.7-4.9c3.2-1.4,5.8-1.5,9.3,1.1
		c3.5,2.6,4.9,5.4,8.1,6.1c3.2,0.7,6-0.1,6.9-0.9"/>
	<path class="st0" d="M42.8,111.9c0,0,4.6-1.1,1.5-4c-3-2.8-9.3-2.8-12.6-4c-3.3-1.2-3.9-3.3-0.8-4.6c3-1.3,5.6-1.4,9,1.1
		c3.4,2.5,4.8,5.2,8,5.9c3.1,0.7,5.8-0.1,6.6-0.8"/>
	<path class="st0" d="M63.6,98.9c0,0,4.4-1.1,1.4-3.8c-3-2.7-9-2.7-12.3-3.9c-3.2-1.2-3.9-3.2-1-4.4c2.9-1.2,5.3-1.3,8.7,1.1
		c3.4,2.4,4.8,5,7.8,5.7c3,0.6,14.5-2.7,7.9-2.7"/>
	<path class="st0" d="M78.4,142.7c0,0,4.7-1.3,1.4-4.4c-3.3-3-9.7-2.9-13.2-4.2c-3.5-1.3-4.2-3.6-1.1-5.1c3.1-1.5,5.7-1.6,9.3,1
		c3.7,2.7,5.2,5.7,8.5,6.3c3.2,0.7,6-0.2,6.8-1"/>
	<path class="st0" d="M88.3,136.2c0,0,4.5-1.3,1.2-4.2c-3.2-2.9-9.4-2.9-12.8-4.1c-3.4-1.3-4.1-3.5-1.2-4.9c2.9-1.4,5.4-1.5,9,1
		c3.6,2.6,5.2,5.4,8.3,6.1c3.1,0.7,5.8-0.1,6.5-0.9"/>
	<path class="st0" d="M64.1,111.2c0,0,4.6-1.2,1.4-4.1c-3.1-2.9-9.4-2.8-12.7-4.1c-3.3-1.2-4-3.4-1-4.8c3-1.3,5.5-1.5,9,1
		c3.5,2.5,5,5.3,8.1,6c3.1,0.7,5.8-0.1,6.6-0.9"/>
	<path class="st0" d="M55.5,130.3c0,0,4.8-1.3,1.6-4.3c-3.2-3-9.6-2.9-13.1-4.2c-3.4-1.3-4-3.5-0.9-5c3.1-1.4,5.8-1.6,9.3,1
		c3.6,2.6,5,5.5,8.2,6.2c3.2,0.7,6-0.1,6.9-0.9"/>
	<path class="st0" d="M65.7,124c0,0,4.6-1.2,1.4-4.1c-3.1-2.9-9.4-2.8-12.7-4.1c-3.3-1.2-4-3.4-1-4.8c3-1.3,5.5-1.5,9,1
		c3.5,2.5,5,5.3,8.1,6c3.1,0.7,5.8-0.1,6.6-0.9"/>
	<path class="st0" d="M86.3,110.8c0,0,4.4-1.1,1.2-3.9c-3.1-2.7-9.1-2.8-12.4-4c-3.3-1.2-4-3.3-1.1-4.5c2.8-1.3,5.3-1.4,8.7,1
		c3.5,2.4,5,5.1,8,5.8c3,0.6,11.1-1.5,6.8-2.2"/>
	<path class="st0" d="M75.8,117.4c0,0,4.6-1.2,1.4-4.1c-3.1-2.9-9.4-2.8-12.7-4.1c-3.3-1.2-4-3.4-1-4.8c3-1.3,5.5-1.5,9,1
		c3.5,2.5,5,5.3,8.1,6c3.1,0.7,5.8-0.1,6.6-0.9"/>
	<path class="st0" d="M66.4,135.7c0,0,4.8-1.3,1.6-4.3c-3.2-3-9.6-2.9-13.1-4.2c-3.4-1.3-4-3.5-0.9-5c3.1-1.4,5.8-1.6,9.3,1
		c3.6,2.6,5,5.5,8.2,6.2c3.2,0.7,6-0.1,6.9-0.9"/>
	<path class="st0" d="M76.7,129.4c0,0,4.6-1.2,1.4-4.1c-3.1-2.9-9.4-2.8-12.7-4.1c-3.3-1.2-4-3.4-1-4.8c3-1.3,5.5-1.5,9,1
		c3.5,2.5,5,5.3,8.1,6c3.1,0.7,5.8-0.1,6.6-0.9"/>
	<path class="st0" d="M97.3,116.3c0,0,4.4-1.1,1.2-3.9c-3.1-2.7-9.1-2.8-12.4-4c-3.3-1.2-4-3.3-1.1-4.5c2.8-1.3,5.3-1.4,8.7,1
		c3.5,2.4,5,5.1,8,5.8c3,0.6,11.1-1.5,6.8-2.2"/>
	<path class="st0" d="M86.7,122.8c0,0,4.6-1.2,1.4-4.1c-3.1-2.9-9.4-2.8-12.7-4.1c-3.3-1.2-4-3.4-1-4.8c3-1.3,5.5-1.5,9,1
		c3.5,2.5,5,5.3,8.1,6c3.1,0.7,5.8-0.1,6.6-0.9"/>
	<path class="st0" d="M52.8,105.3c0,0,4.6-1.1,1.5-4c-3-2.8-9.3-2.8-12.6-4c-3.3-1.2-3.9-3.3-0.8-4.6c3-1.3,5.6-1.4,9,1.1
		c3.4,2.5,4.8,5.2,8,5.9c3.1,0.7,5.8-0.1,6.6-0.8"/>
	<path class="st0" d="M98.4,129.6c0,0,4.5-1.3,1.2-4.2c-3.2-2.9-9.4-2.9-12.8-4.1c-3.4-1.3-4.1-3.5-1.2-4.9c2.9-1.4,5.4-1.5,9,1
		c3.6,2.6,5.2,5.4,8.3,6.1c3.1,0.7,5.8-0.1,6.5-0.9"/>
	<path class="st0" d="M108.7,122.8c0,0,4.3-1.2,1.1-4c-3.2-2.8-9.2-2.8-12.5-4c-3.3-1.2-4.1-3.3-1.3-4.7c2.7-1.3,5.2-1.4,8.7,1
		c3.5,2.5,5.2,5.2,8.2,5.9c3,0.6,11.7-3.6,5.8-2.5"/>
</g>
</svg>
