<?xml version="1.0" encoding="utf-8"?>
<!-- Generator: Adobe Illustrator 25.2.3, SVG Export Plug-In . SVG Version: 6.00 Build 0)  -->
<svg version="1.1" id="Layer_1" xmlns="http://www.w3.org/2000/svg" xmlns:xlink="http://www.w3.org/1999/xlink" x="0px" y="0px"
	 viewBox="0 0 150 238.1" style="enable-background:new 0 0 150 238.1;" xml:space="preserve">
<style type="text/css">
	.st0{fill:#F77441;stroke:#FFFFFF;stroke-width:0.4255;stroke-miterlimit:10;}
	.st1{fill:none;stroke:#FFFFFF;stroke-width:0.4255;stroke-miterlimit:10;}
	.st2{fill:#543C52;stroke:#FFFFFF;stroke-width:0.2239;stroke-miterlimit:10;}
	.st3{fill:#CCB9B9;stroke:#FFFFFF;stroke-width:0.123;stroke-miterlimit:10;}
	.st4{fill:#CCB9B9;stroke:#FFFFFF;stroke-width:0.1152;stroke-miterlimit:9.9976;}
	.st5{fill:#CCB9B9;stroke:#FFFFFF;stroke-width:0.2239;stroke-miterlimit:10;}
	.st6{fill:#B79797;stroke:#FFFFFF;stroke-width:0.2239;stroke-miterlimit:10;}
	.st7{fill:none;stroke:#FFFFFF;stroke-width:0.4245;stroke-miterlimit:10;}
	.st8{fill:#CCB9B9;stroke:#FFFFFF;stroke-width:0.1152;stroke-miterlimit:9.9992;}
	.st9{fill:#361D32;stroke:#FFFFFF;stroke-width:0.2239;stroke-miterlimit:10;}
	.st10{fill:none;stroke:#FFFFFF;stroke-width:0.2239;stroke-miterlimit:10;}
	.st11{fill:none;stroke:#B79797;stroke-width:0.2239;stroke-linecap:round;stroke-miterlimit:10;}
	.st12{fill:#E4DAD8;stroke:#FFFFFF;stroke-width:0.2239;stroke-miterlimit:10;}
	.st13{fill:#CCB9B9;stroke:#FFFFFF;stroke-width:0.2122;stroke-miterlimit:10;}
	.st14{fill:#E4DAD8;}
	.st15{fill:#543C52;stroke:#543C52;stroke-width:0.37;stroke-miterlimit:10;}
	.st16{fill:none;stroke:#E4DAD8;stroke-width:1.2987;stroke-miterlimit:10;}
	.st17{fill:#361D32;stroke:#FFFFFF;stroke-width:0.2122;stroke-miterlimit:10;}
	.st18{fill:#543C52;}
	.st19{clip-path:url(#SVGID_2_);}
	.st20{fill:#CCB9B9;}
</style>
<g>
	<path class="st0" d="M27.9,107.6c-1-2.5-0.7-12.9-0.7-12.9s-1.9-4.7-3.6-9.1c-1.8-4.3-3.8-17.2-3.8-28.3S21.1,44,21.6,39
		c0.6-5.1,2.7-18.2,3.3-20.4c0.7-2.1,1.4-2.8,1.9-3c0.6-0.2,2.7,0,3,1.2c0.4,1.3,0.4,3.7,0,6c-0.4,2.2-0.8,17.5-1,18.5
		c-0.2,1.1,0.8,1.5,1,1.6c0.3,0,0.9-0.1,0.9-1.1c0.2-0.9,0.3-11.6,0.3-11.6l0.3-14.6c0,0-0.1-4.4,0.5-5.7s1.3-3,2.6-3.1
		C35.4,7,37,7.7,37.4,8.6c0.4,0.9,0.7,2.7,0.9,4.9c0.1,2.3,0.3,6.9,0.3,6.9l0.1,14.3c0,0,0.2,5.6,0.5,6.1c0.2,0.7,1,0.7,1.2,0.5
		c0.3-0.3,0.1-1.1,0.3-2.6c0.2-1.4-0.3-6.9-0.3-6.9L40,23.6l-0.2-7.8l-0.2-6.3c0,0,0.3-3.7,0.7-4.9c0.4-1.2,1-2.3,2.3-2.3
		C44,2.3,45.7,3.9,46,5c0.4,1.1,1,5.7,1.1,8.1c0.2,2.4,0.5,8.9,0.5,8.9s0.7,5.9,0.7,7.8s0.1,9.1,0.1,9.1s0,2.5,0.4,2.9
		s0.7,0.3,1-0.2c0.4-0.5,0.3-12.8,0.3-12.8l-0.7-10.8L49,9.9c0,0,0.1-4.6,0.5-5.8c0.4-1.2,1.2-1.7,2-1.6c0.9,0.1,1,0,1.7,0.6
		c0.7,0.6,1.2,2.7,1.6,4.8c0.4,2.1,1.9,11.9,1.9,11.9l1.3,12.4c0,0,0.4-0.5,2.1-1.2c1.8-0.9,3.2-0.7,4.1-0.6c1,0.2,1.5,0.6,1.2,1.5
		c-0.4,1-1.5,3.4-2.6,6.6c-1.2,3.1-2.8,12.5-2.8,12.5s-1.1,9.5-1.2,13.6c0,4.1-2.8,12.5-4.2,16.1c-1.3,3.6-2,7-2.5,10.6
		c-0.5,3.5,0.1,12.2,0,15.2c-0.1,2.9-5,6.5-12.4,6.3C32.6,112.8,28.8,110.2,27.9,107.6z"/>
	<path class="st1" d="M58.2,31.6c0,0-2.6,2.2-3.4,5.3c-0.9,3.1-2.2,9.2-2.2,9.2s-0.5,2.7-1.2,4.4c-0.9,1.7-3.5,4.4-6.3,7.4
		C42.3,60.9,36.7,64.8,35,80"/>
</g>
<g>
	<g>
		<path class="st2" d="M109.3,95.3c-0.6,0-1-0.5-1-1V70.2c0-0.6,0.5-1,1-1s1,0.5,1,1v24.2C110.3,94.8,109.9,95.3,109.3,95.3z"/>
	</g>
	<g>
		<polygon class="st3" points="93.5,138.2 86,133.7 86.9,133.9 93.7,137.8 93.8,138.1 		"/>
		<ellipse transform="matrix(0.711 -0.7031 0.7031 0.711 -69.2203 99.2425)" class="st4" cx="86.1" cy="133.8" rx="0.8" ry="0.6"/>
	</g>
	<g>
		<polygon class="st3" points="91.8,156.3 84.3,151.9 85.2,152.1 92,156 92.1,156.3 		"/>
		<ellipse transform="matrix(0.711 -0.7031 0.7031 0.711 -82.3539 103.3034)" class="st4" cx="84.5" cy="151.9" rx="0.8" ry="0.6"/>
	</g>
	<g>
		<polygon class="st5" points="74.5,117.7 78.8,119.8 82.5,117.9 78.3,115.8 		"/>
		<polygon class="st5" points="74.5,117.6 74.5,121.4 78.8,123.7 78.8,119.8 		"/>
		<polygon class="st5" points="78.8,119.8 78.8,123.8 82.6,121.8 82.6,117.8 		"/>
		<g>
			<path class="st6" d="M92.9,129.9c-0.3,0-0.6-0.1-0.8-0.3l-11.2-7.3c-0.7-0.5-0.9-1.3-0.5-2c0.5-0.7,1.3-0.9,2-0.5l11.2,7.3
				c0.7,0.5,0.9,1.3,0.5,2C93.9,129.6,93.3,129.9,92.9,129.9z"/>
		</g>
		<g>
			<path class="st6" d="M79,118.5c-0.4,0-0.7-0.2-1.1-0.5c-0.6-0.6-0.6-1.5,0-2c2-2,19-22.8,27.6-33.3c0.6-0.7,1.4-0.7,2-0.2
				c0.7,0.6,0.7,1.4,0.2,2c-1,1.2-25.1,30.8-27.8,33.6C79.8,118.4,79.3,118.5,79,118.5z"/>
		</g>
	</g>
	<g>
		<polygon class="st5" points="141.6,114.6 137.2,116.7 133.6,114.8 137.7,112.8 		"/>
		<polygon class="st5" points="141.6,114.5 141.6,118.5 137.2,120.6 137.3,116.7 		"/>
		<polygon class="st5" points="137.3,116.7 137.2,120.7 133.5,118.8 133.5,114.7 		"/>
		<g>
			<path class="st6" d="M119.6,129.4c-0.5,0-1-0.3-1.2-0.7c-0.5-0.7-0.3-1.6,0.5-2l14.9-10c0.7-0.5,1.6-0.3,2,0.5
				c0.5,0.7,0.3,1.6-0.5,2l-14.9,10C120.1,129.3,119.9,129.4,119.6,129.4z"/>
		</g>
		<g>
			<path class="st6" d="M137,115.5c-0.4,0-0.7-0.2-1.1-0.5c-2.7-2.7-28.7-28.1-29-28.3c-0.7-0.6-0.7-1.5,0-2c0.6-0.7,1.5-0.7,2,0
				c0.3,0.3,26.3,25.7,29,28.4c0.6,0.6,0.6,1.5,0,2C137.7,115.3,137.4,115.5,137,115.5z"/>
		</g>
	</g>
	<g>
		<path class="st2" d="M115.4,103.5c0.7,1.9,0.5,9.9,0.5,9.9s1.4,3.6,2.9,7c1.3,3.4,3,13.3,3,21.9c0,8.5-1.1,10.2-1.5,14
			c-0.4,3.9-2,14-2.6,15.7s-1.1,2.1-1.4,2.3s-2,0-2.3-1c-0.3-1.1-0.3-2.9,0-4.6c0.3-1.7,0.7-13.5,0.8-14.3c0.1-0.8-0.6-1.2-0.8-1.2
			c-0.3,0-0.7,0.1-0.7,0.8c0,0.7-0.1,9-0.1,9l-0.2,11.2c0,0,0.1,3.4-0.4,4.4c-0.4,1-1.1,2.3-2,2.3c-0.9,0.1-2-0.6-2.3-1.2
			c-0.3-0.7-0.6-2-0.7-3.7c-0.1-1.8-0.2-5.4-0.2-5.4l-0.2-11c0,0-0.2-4.2-0.4-4.7c-0.2-0.5-0.8-0.6-1-0.4c-0.2,0.2-0.1,0.8-0.2,2
			c-0.1,1.2,0.2,5.4,0.2,5.4l0.2,6.4l0.2,6l0.2,4.9c0,0-0.2,2.9-0.5,3.7c-0.3,1-0.7,1.8-1.8,1.8c-1.1,0-2.3-1.2-2.6-2.1
			c-0.3-0.9-0.7-4.3-0.8-6.1c-0.2-1.9-0.4-6.9-0.4-6.9s-0.5-4.6-0.5-6c0-1.4-0.1-7-0.1-7s0-2-0.3-2.2c-0.3-0.3-0.6-0.3-0.8,0.1
			s-0.2,9.9-0.2,9.9l0.6,8.3l0.2,6.2c0,0-0.1,3.6-0.4,4.5c-0.3,0.9-0.9,1.3-1.6,1.2c-0.7-0.1-0.8,0-1.3-0.4c-0.6-0.4-1-2-1.2-3.7
			c-0.3-1.6-1.4-9.1-1.4-9.1l-1.1-9.6c0,0-0.3,0.4-1.6,1c-1.3,0.7-2.4,0.6-3.2,0.5c-0.7-0.1-1.2-0.5-0.9-1.2c0.3-0.8,1.2-2.7,2-5.1
			c0.8-2.5,2.1-9.8,2.1-9.8s0.9-7.3,0.9-10.6s2.2-9.7,3.3-12.5c1-2.8,1.5-5.5,1.9-8.2s0-9.4,0-11.7c0-2.2,3.8-5,9.6-4.9
			C112.2,99.4,114.9,101.5,115.4,103.5z"/>
		<path class="st7" d="M92.1,162.3c0,0,2-1.7,2.6-4c0.7-2.3,1.7-7.1,1.7-7.1s0.4-2,1-3.4c0.7-1.3,2.7-3.4,4.9-5.8
			c2.1-2.3,6.4-5.3,7.8-17.1"/>
	</g>
	<g>
		<polygon class="st3" points="98.6,140.2 104.9,134 104.1,134.4 98.4,139.9 98.4,140.2 		"/>
		<ellipse transform="matrix(0.5 -0.866 0.866 0.5 -63.6455 157.7304)" class="st8" cx="104.8" cy="134" rx="0.6" ry="0.8"/>
	</g>
	<g>
		<polygon class="st3" points="103.1,163.8 109.3,157.7 108.5,158.1 103,163.6 102.9,163.8 		"/>
		<ellipse transform="matrix(0.5 -0.866 0.866 0.5 -82.1769 173.4412)" class="st8" cx="109.1" cy="157.9" rx="0.6" ry="0.8"/>
	</g>
	<g>
		<polygon class="st3" points="119.9,152.4 126.1,146.2 125.2,146.6 119.7,152.1 119.6,152.4 		"/>
		<ellipse transform="matrix(0.5 -0.866 0.866 0.5 -63.8218 182.1444)" class="st8" cx="125.8" cy="146.3" rx="0.6" ry="0.8"/>
	</g>
	<g>
		<polygon class="st3" points="115.1,141.2 121.2,135.2 120.4,135.6 114.9,141 114.8,141.3 		"/>
		<ellipse transform="matrix(0.5 -0.866 0.866 0.5 -56.5581 172.3431)" class="st8" cx="121" cy="135.2" rx="0.6" ry="0.8"/>
	</g>
	<g>
		<polygon class="st3" points="111.6,174.8 117.8,168.7 117.1,169 111.4,174.5 111.3,174.8 		"/>
		<ellipse transform="matrix(0.5 -0.866 0.866 0.5 -87.2675 186.1891)" class="st8" cx="117.6" cy="168.7" rx="0.6" ry="0.8"/>
	</g>
	<ellipse class="st9" cx="106.2" cy="103.9" rx="9" ry="4.3"/>
	<ellipse class="st5" cx="106.4" cy="103" rx="7.7" ry="3.6"/>
	<ellipse class="st9" cx="106.5" cy="97.6" rx="6.9" ry="3.3"/>
	<ellipse class="st5" cx="106.5" cy="97.6" rx="4.8" ry="2.3"/>
	<ellipse class="st5" cx="106.7" cy="85.3" rx="3.9" ry="1.9"/>
	<path class="st2" d="M99.7,97.4c0.2-0.9-0.8,5.2-1,5.4s0.1,3.8,7.7,3.8c7.8,0,7.7-3.7,7.7-3.7l-0.7-5c0,0-0.4,2.8-6.7,2.9
		C100.6,100.8,99.5,98.3,99.7,97.4z"/>
	<g>
		<line class="st10" x1="101.2" y1="96.9" x2="107.6" y2="82.3"/>
		<path class="st6" d="M101.2,97.8c-0.1,0-0.3,0-0.4-0.1c-0.6-0.2-0.7-0.8-0.6-1.2l6.3-14.6c0.2-0.6,0.8-0.7,1.2-0.6
			c0.6,0.2,0.7,0.8,0.6,1.2l-6.3,14.7C101.9,97.5,101.6,97.8,101.2,97.8z"/>
	</g>
	<g>
		<line class="st10" x1="106.1" y1="82.1" x2="112.2" y2="97.7"/>
		<path class="st6" d="M112.2,98.7c-0.4,0-0.8-0.3-0.9-0.7l-6-15.6c-0.2-0.6,0.1-1.1,0.6-1.2c0.6-0.2,1.1,0.1,1.2,0.6l6,15.7
			c0.2,0.6-0.1,1.1-0.6,1.2C112.4,98.7,112.3,98.7,112.2,98.7z"/>
	</g>
	<line class="st11" x1="106.8" y1="85.2" x2="106.6" y2="94"/>
	<ellipse class="st12" cx="106.4" cy="74" rx="6.9" ry="3.3"/>
	<ellipse class="st5" cx="106.4" cy="73.8" rx="6.1" ry="2.7"/>
	<path class="st12" d="M99.6,74l3,11.6c0,0,1.3,1.6,4,1.8c2.7,0.1,3.9-1.7,3.9-1.7l2.8-11.6c0,0-0.1,2.5-6.5,2.9
		C100.4,77.3,99.6,74,99.6,74z"/>
	<path class="st5" d="M91.9,121.2"/>
	<g>
		<path class="st2" d="M105.9,100.9c-0.6,0-1-0.5-1-1V77.5c0-0.6,0.5-1,1-1c0.5,0,1,0.5,1,1v22.4C107,100.4,106.5,100.9,105.9,100.9
			z"/>
	</g>
</g>
<g>
	<path class="st5" d="M54.6,134.6l4.4,33.3l5.9,23.8l-4.5,10.8l-7.2,13.9c0,0-2.2,20.6-12.8,15c-10.6-5.8-27.6-11.8-27.9-19
		c-0.3-7.2-5-42.2-3.6-48s6-18,6-18L54.6,134.6z"/>
	<path class="st13" d="M64.3,138.8l7.6,37.6c0,0,1.5,14.8,0.6,20.6c-1,5.8-2.7,14.5-2.7,14.5s-3.2,7.8-6.5,10.8
		c-3.4,3.1-22.4,12.8-22.4,12.8c-6.1,0-15.6-11-20.6-20.6c-5.1-9.7-1.9-41.5-1.9-41.5l4-18L64.3,138.8z"/>
	<path class="st14" d="M26,202.4L26,202.4h0.2c0.7,0.3,1.7,0.7,1.7,0.7l4.2-1.6l0,0c-0.1,1.4,3.4,18,4.1,20.6l-0.3,0.3l0.6,0.2
		l0.7-0.3l-0.3-0.2l0.1-0.1c0.4,0.3,0.6,0.3,1.2,0.3c0.3,0,0.5,0,0.7-0.1l1.5,0.2l2.7-0.7c0.5,0.5,1.1,0.8,1.6,0.8
		c1,0,1.4-0.8,1.7-1.7c0.2-0.6,0.3-1.6,0.4-2.5c0.6-0.3,1.2-0.6,1.9-0.7c0.3,0.7,1.4,1.2,2.2,1.1c0.9-0.1,1.5-1.3,1.9-2.3
		c0.3-0.7,0.3-2.8,0.3-3.6l0.9-1.2c0.4,0.8,1.9,0.9,2.1,0.8c0.2-0.1,0.4-0.2,0.6-0.5c0.2,0.1,0.9-0.7,0.9-0.7s1.8-7,2.5-11.3
		c0.7-4.4,1.8-12,1.9-19.8c0.1-6.5-0.4-11.4-2.6-18c-0.5-1.2-2.5-4.9-4-8c-0.1,0-0.2-0.4-0.3-1.1c0-2-0.1-6.8-0.6-8.4
		c0-0.6,0-0.8,0.1-0.8l-0.5,0.1c-1-1.6-3.5-3.1-8.4-3.2c-4.6,0-7.9,1.9-8.8,3.7c0-0.4-0.1-0.6-0.1-0.6l-0.7,1.4
		c0,13.8-1.8,17.6-1.8,17.6L31.3,175L30,188.1l-2.6,11.2L26,202.4C25.7,202.3,25.7,202.2,26,202.4z M54.1,192.4
		c0.1,0.2,0.2,0.4,0.2,0.7C54.3,192.8,54.2,192.6,54.1,192.4z M47.7,213.6c0,0.2,0,0.4,0,0.5c0,0.2,0,0.4,0.1,0.6
		C47.7,214.1,47.7,213.8,47.7,213.6L47.7,213.6z M27.5,201.6c0-0.1,0.1-0.1,0.1-0.2c0,0.2,0.2,0.4,0.4,0.5
		C27.7,201.8,27.6,201.7,27.5,201.6z"/>
	<ellipse class="st15" cx="42.9" cy="144" rx="7.5" ry="3.3"/>
	<path class="st5" d="M37.6,133.2c0,0-17.5,7.7-20.7,9.5s-8.6,7.1-2.1,10.7c6.4,3.5,17,8.9,17,8.9s2,1.7,8.4,0.3s22.3-11.2,25-12.4
		c2.7-1.2,6.7-5.3,2.2-7.7s-17.6-8.5-21-10.2C42.7,130.6,37.6,133.2,37.6,133.2z"/>
	<path class="st5" d="M37.7,130.9c0,0-17.5,7.7-20.7,9.5c-3.4,1.8-8.6,7.1-2.1,10.7c6.4,3.5,17,8.9,17,8.9s2,1.7,8.4,0.3
		s22.3-11.2,25-12.5c2.7-1.2,6.7-5.3,2.2-7.7s-17.6-8.5-21-10.2C42.9,128.2,37.7,130.9,37.7,130.9z"/>
	<path class="st16" d="M36.5,146.4l-14.3,8.2l-0.9,5.3c0,0-5.9,25.1-3.6,42.1s9.3,22.7,9.3,22.7"/>
	<g>
		<polygon class="st14" points="46.5,142.5 45.8,141.3 57.2,135 58.3,135.7 		"/>
	</g>
	<ellipse class="st17" cx="42.9" cy="144" rx="9.1" ry="3.9"/>
	<g>
		<g>
			
				<ellipse id="XMLID_50_" transform="matrix(1.641014e-02 -0.9999 0.9999 1.641014e-02 -101.3926 184.5895)" class="st18" cx="43.1" cy="143.8" rx="3.3" ry="7.5"/>
		</g>
		<g>
			<g>
				<g>
					<g>
						<defs>
							
								<ellipse id="SVGID_1_" transform="matrix(1.641014e-02 -0.9999 0.9999 1.641014e-02 -101.3926 184.5895)" cx="43.1" cy="143.8" rx="3.3" ry="7.5"/>
						</defs>
						<clipPath id="SVGID_2_">
							<use xlink:href="#SVGID_1_"  style="overflow:visible;"/>
						</clipPath>
						<g class="st19">
							<path class="st20" d="M38.1,142.7c0,0,2.4-0.4,4.5-0.8s5.3-0.5,5.9,1.4c0.6,1.9-3.2,2-3.2,2s-6.1,0.8-7.3-1
								C36.9,142.7,38.1,142.7,38.1,142.7z"/>
						</g>
					</g>
				</g>
			</g>
		</g>
	</g>
	<line class="st16" x1="45.8" y1="141.6" x2="45.6" y2="145.4"/>
</g>
</svg>
