<?xml version="1.0" encoding="utf-8"?>
<!-- Generator: Adobe Illustrator 25.2.3, SVG Export Plug-In . SVG Version: 6.00 Build 0)  -->
<svg version="1.1" id="Layer_1" xmlns="http://www.w3.org/2000/svg" xmlns:xlink="http://www.w3.org/1999/xlink" x="0px" y="0px"
	 viewBox="0 0 151.5 268.9" style="enable-background:new 0 0 151.5 268.9;" xml:space="preserve">
<style type="text/css">
	.st0{fill:#F77441;stroke:#FFFFFF;stroke-width:0.5;stroke-miterlimit:10;}
	.st1{fill:none;stroke:#FFFFFF;stroke-width:0.5;stroke-miterlimit:10;}
	.st2{fill:#543C52;stroke:#FFFFFF;stroke-width:0.25;stroke-miterlimit:10;}
	.st3{fill:#CCB9B9;stroke:#FFFFFF;stroke-width:0.1374;stroke-miterlimit:10;}
	.st4{fill:#CCB9B9;stroke:#FFFFFF;stroke-width:0.1287;stroke-miterlimit:10;}
	.st5{fill:#CCB9B9;stroke:#FFFFFF;stroke-width:0.25;stroke-miterlimit:10;}
	.st6{fill:#B79797;stroke:#FFFFFF;stroke-width:0.25;stroke-miterlimit:10;}
	.st7{fill:none;stroke:#FFFFFF;stroke-width:0.474;stroke-miterlimit:10;}
	.st8{fill:#361D32;stroke:#FFFFFF;stroke-width:0.25;stroke-miterlimit:10;}
	.st9{fill:#FFFFFF;stroke:#FFFFFF;stroke-width:0.25;stroke-miterlimit:10;}
	.st10{fill:#FFFFFF;stroke:#B79797;stroke-width:0.25;stroke-linecap:round;stroke-miterlimit:10;}
	.st11{fill:#E4DAD8;stroke:#FFFFFF;stroke-width:0.25;stroke-miterlimit:10;}
	.st12{fill:#CCB9B9;stroke:#FFFFFF;stroke-width:0.237;stroke-miterlimit:10;}
	.st13{fill:#E4DAD8;}
	.st14{fill:#543C52;stroke:#543C52;stroke-width:0.4132;stroke-miterlimit:10;}
	.st15{fill:none;stroke:#E4DAD8;stroke-width:1.4501;stroke-miterlimit:10;}
	.st16{fill:#361D32;stroke:#FFFFFF;stroke-width:0.237;stroke-miterlimit:10;}
	.st17{clip-path:url(#XMLID_2_);}
	.st18{fill:#CCB9B9;}
</style>
<g>
	<path class="st0" d="M23.5,125.6c-1.1-2.9-0.7-15.1-0.7-15.1s-2.2-5.6-4.3-10.7C16.4,94.8,14,79.6,14,66.5S15.7,51,16.2,45
		c0.6-6,3.1-21.3,3.9-23.9c0.8-2.5,1.7-3.2,2.2-3.5c0.6-0.2,3.1,0,3.5,1.5c0.4,1.6,0.4,4.4,0,7s-1.1,20.6-1.3,21.9
		c-0.2,1.3,0.9,1.8,1.2,1.9c0.3,0,1-0.1,1-1.3C26.9,47.6,27,35,27,35l0.3-17.2c0,0-0.1-5.2,0.5-6.7c0.6-1.5,1.6-3.5,3-3.6
		c1.4-0.1,3.2,0.8,3.6,1.8c0.4,1,0.8,3.1,1,5.8c0.1,2.7,0.3,8.2,0.3,8.2l0.3,16.7c0,0,0.2,6.5,0.5,7.2c0.2,0.7,1.2,0.8,1.4,0.5
		c0.3-0.3,0.1-1.3,0.3-3c0.2-1.7-0.3-8.2-0.3-8.2l-0.2-9.8l-0.2-9.1l-0.2-7.4c0,0,0.3-4.4,0.7-5.8c0.4-1.4,1.1-2.7,2.7-2.7
		c1.6,0,3.6,1.9,4,3.2s1.1,6.6,1.3,9.4c0.2,2.8,0.5,10.5,0.5,10.5s0.7,6.9,0.7,9.1s0.1,10.7,0.1,10.7s0,2.9,0.4,3.4
		c0.4,0.4,0.8,0.3,1.2-0.2s0.3-15,0.3-15l-0.8-12.6l-0.3-9.5c0,0,0.1-5.4,0.5-6.8s1.4-2,2.4-1.9c1,0.1,1.2,0,2,0.6
		c0.8,0.6,1.5,3.2,1.9,5.7c0.4,2.5,2.2,13.9,2.2,13.9l1.6,14.6c0,0,0.4-0.5,2.5-1.5s3.7-0.8,4.8-0.6c1.2,0.2,1.8,0.6,1.4,1.8
		s-1.8,4-3,7.8C63,47.9,61.1,59,61.1,59s-1.3,11.2-1.4,16c0,4.8-3.3,14.7-4.9,19s-2.4,8.3-2.9,12.4c-0.5,4.1,0.1,14.4,0,17.8
		c-0.1,3.4-5.9,7.7-14.6,7.5S24.6,128.6,23.5,125.6z"/>
	<path class="st1" d="M59.1,36.2c0,0-3,2.6-4,6.2c-1,3.6-2.6,10.8-2.6,10.8S52,56.3,51,58.3s-4.1,5.1-7.5,8.7
		c-3.3,3.6-9.9,8.1-11.8,26"/>
</g>
<g>
	<g>
		<path class="st2" d="M115.3,108.9c-0.6,0-1.1-0.5-1.1-1.1v-27c0-0.6,0.5-1.1,1.1-1.1c0.6,0,1.1,0.5,1.1,1.1v27
			C116.4,108.4,115.9,108.9,115.3,108.9z"/>
	</g>
	<g>
		<polygon class="st3" points="97.7,156.7 89.3,151.8 90.3,152 97.9,156.3 98,156.6 		"/>
		<ellipse transform="matrix(0.711 -0.7031 0.7031 0.711 -80.9197 106.8189)" class="st4" cx="89.5" cy="151.9" rx="0.9" ry="0.6"/>
	</g>
	<g>
		<polygon class="st3" points="95.8,177 87.4,172.1 88.4,172.3 96,176.7 96.1,177 		"/>
		<ellipse transform="matrix(0.711 -0.7031 0.7031 0.711 -95.7671 111.3724)" class="st4" cx="87.6" cy="172.2" rx="0.9" ry="0.6"/>
	</g>
	<g>
		<polygon class="st5" points="76.5,133.9 81.3,136.2 85.4,134.1 80.7,131.8 		"/>
		<polygon class="st5" points="76.5,133.8 76.5,138.1 81.3,140.5 81.2,136.2 		"/>
		<polygon class="st5" points="81.2,136.2 81.2,140.6 85.5,138.5 85.5,134 		"/>
		<g>
			<path class="st6" d="M97,147.5c-0.3,0-0.6-0.1-0.9-0.3l-12.6-8.1c-0.8-0.5-1-1.5-0.5-2.3c0.5-0.8,1.5-1,2.3-0.5l12.6,8.1
				c0.8,0.5,1,1.5,0.5,2.3C98.1,147.2,97.5,147.5,97,147.5z"/>
		</g>
		<g>
			<path class="st6" d="M81.5,134.8c-0.4,0-0.8-0.2-1.2-0.5c-0.6-0.6-0.6-1.7,0-2.3c2.3-2.3,21.2-25.4,30.8-37.2
				c0.6-0.7,1.6-0.8,2.3-0.2c0.7,0.6,0.8,1.6,0.2,2.3c-1.1,1.4-28,34.4-31,37.5C82.4,134.6,81.9,134.8,81.5,134.8z"/>
		</g>
	</g>
	<g>
		<polygon class="st5" points="151.3,130.5 146.5,132.8 142.4,130.7 147.1,128.4 		"/>
		<polygon class="st5" points="151.3,130.4 151.3,134.7 146.5,137.1 146.6,132.8 		"/>
		<polygon class="st5" points="146.6,132.8 146.5,137.2 142.3,135.1 142.3,130.6 		"/>
		<g>
			<path class="st6" d="M126.8,147c-0.5,0-1.1-0.3-1.4-0.7c-0.5-0.8-0.3-1.8,0.5-2.3l16.6-11.1c0.8-0.5,1.8-0.3,2.3,0.5
				c0.5,0.8,0.3,1.8-0.5,2.3l-16.6,11.1C127.4,146.9,127.1,147,126.8,147z"/>
		</g>
		<g>
			<path class="st6" d="M146.3,131.4c-0.4,0-0.8-0.2-1.2-0.5c-3-3-32.1-31.4-32.4-31.6c-0.7-0.6-0.7-1.7,0-2.3
				c0.6-0.7,1.7-0.7,2.3,0c0.3,0.3,29.4,28.7,32.4,31.7c0.6,0.6,0.6,1.7,0,2.3C147.1,131.2,146.7,131.4,146.3,131.4z"/>
		</g>
	</g>
	<g>
		<path class="st2" d="M122.2,118c0.8,2.1,0.5,11,0.5,11s1.6,4.1,3.2,7.8c1.5,3.7,3.3,14.9,3.3,24.5s-1.2,11.4-1.7,15.7
			c-0.4,4.4-2.3,15.7-2.9,17.5c-0.6,1.8-1.2,2.4-1.6,2.6c-0.4,0.2-2.3,0-2.6-1.1c-0.3-1.2-0.3-3.2,0-5.2c0.3-1.9,0.8-15.1,0.9-16
			c0.1-0.9-0.6-1.3-0.9-1.4c-0.3,0-0.7,0.1-0.7,0.9c0,0.8-0.1,10.1-0.1,10.1l-0.2,12.6c0,0,0.1,3.8-0.4,4.9
			c-0.4,1.1-1.2,2.6-2.2,2.6c-1,0.1-2.3-0.6-2.6-1.3s-0.6-2.3-0.7-4.2c-0.1-2-0.2-6-0.2-6l-0.2-12.3c0,0-0.2-4.7-0.4-5.3
			c-0.2-0.5-0.9-0.6-1.1-0.4c-0.2,0.2-0.1,0.9-0.2,2.2c-0.1,1.3,0.2,6,0.2,6l0.2,7.2l0.2,6.7l0.2,5.5c0,0-0.2,3.2-0.5,4.2
			c-0.3,1.1-0.8,2-2,2c-1.2,0-2.6-1.4-2.9-2.4s-0.8-4.8-0.9-6.9c-0.2-2.1-0.4-7.7-0.4-7.7s-0.5-5.1-0.5-6.7c0-1.6-0.1-7.8-0.1-7.8
			s0-2.2-0.3-2.5s-0.6-0.3-0.9,0.1s-0.2,11-0.2,11l0.6,9.2l0.2,7c0,0-0.1,4-0.4,5s-1,1.5-1.8,1.4c-0.8-0.1-0.9,0-1.5-0.4
			c-0.6-0.4-1.1-2.3-1.4-4.2c-0.3-1.8-1.6-10.2-1.6-10.2l-1.2-10.7c0,0-0.3,0.4-1.8,1.1s-2.7,0.6-3.5,0.5s-1.3-0.5-1-1.3
			c0.3-0.9,1.3-3,2.2-5.7c0.9-2.8,2.4-10.9,2.4-10.9s1-8.2,1-11.8c0-3.6,2.5-10.8,3.6-13.9c1.1-3.1,1.7-6.1,2.1-9.1s0-10.5,0-13.1
			c0-2.5,4.3-5.6,10.7-5.5S121.5,115.8,122.2,118z"/>
		<path class="st7" d="M96.1,183.6c0,0,2.2-1.9,2.9-4.5c0.7-2.6,1.9-7.9,1.9-7.9s0.4-2.3,1.1-3.7c0.7-1.5,3-3.7,5.5-6.4
			c2.4-2.6,7.2-5.9,8.7-19.1"/>
	</g>
	<g>
		<polygon class="st3" points="103.4,159 110.4,152.1 109.5,152.6 103.2,158.7 103.2,159 		"/>
		<ellipse transform="matrix(0.5 -0.866 0.866 0.5 -76.7745 171.5305)" class="st4" cx="110.2" cy="152.3" rx="0.6" ry="0.9"/>
	</g>
	<g>
		<polygon class="st3" points="108.4,185.4 115.3,178.5 114.4,179 108.2,185.1 108.1,185.4 		"/>
		<ellipse transform="matrix(0.5 -0.866 0.866 0.5 -97.1894 189.0174)" class="st4" cx="115.1" cy="178.7" rx="0.6" ry="0.9"/>
	</g>
	<g>
		<polygon class="st3" points="127.1,172.6 134.1,165.7 133.1,166.2 126.9,172.3 126.8,172.6 		"/>
		<ellipse transform="matrix(0.5 -0.866 0.866 0.5 -76.7142 198.8159)" class="st4" cx="133.8" cy="165.8" rx="0.6" ry="0.9"/>
	</g>
	<g>
		<polygon class="st3" points="121.7,160.2 128.6,153.4 127.7,153.8 121.5,160 121.4,160.3 		"/>
		<ellipse transform="matrix(0.5 -0.866 0.866 0.5 -68.7566 187.9605)" class="st4" cx="128.4" cy="153.5" rx="0.6" ry="0.9"/>
	</g>
	<g>
		<polygon class="st3" points="117.9,197.6 124.9,190.8 124,191.2 117.7,197.3 117.6,197.7 		"/>
		<ellipse transform="matrix(0.5 -0.866 0.866 0.5 -102.9951 203.3932)" class="st4" cx="124.6" cy="190.9" rx="0.6" ry="0.9"/>
	</g>
	<ellipse class="st8" cx="111.9" cy="118.4" rx="10.1" ry="4.8"/>
	<ellipse class="st5" cx="112.1" cy="117.5" rx="8.6" ry="4"/>
	<ellipse class="st8" cx="112.2" cy="111.5" rx="7.7" ry="3.6"/>
	<ellipse class="st5" cx="112.2" cy="111.5" rx="5.4" ry="2.6"/>
	<ellipse class="st5" cx="112.4" cy="97.8" rx="4.4" ry="2.1"/>
	<path class="st2" d="M104.6,111.3c0.2-1-0.9,5.8-1.1,6c-0.2,0.2,0.1,4.3,8.6,4.3c8.7,0,8.6-4.2,8.6-4.2l-0.8-5.6
		c0,0-0.4,3.1-7.5,3.2C105.7,115,104.4,112.2,104.6,111.3z"/>
	<g>
		<line class="st9" x1="106.3" y1="110.6" x2="113.4" y2="94.3"/>
		<path class="st6" d="M106.3,111.7c-0.1,0-0.3,0-0.4-0.1c-0.6-0.2-0.8-0.9-0.6-1.4l7.1-16.3c0.2-0.6,0.9-0.8,1.4-0.6
			c0.6,0.2,0.8,0.9,0.6,1.4l-7.1,16.3C107.1,111.4,106.7,111.7,106.3,111.7z"/>
	</g>
	<g>
		<line class="st9" x1="111.8" y1="94.1" x2="118.5" y2="111.6"/>
		<path class="st6" d="M118.5,112.7c-0.4,0-0.9-0.3-1-0.7l-6.6-17.5c-0.2-0.6,0.1-1.2,0.6-1.4c0.6-0.2,1.2,0.1,1.4,0.6l6.6,17.5
			c0.2,0.6-0.1,1.2-0.6,1.4C118.7,112.7,118.6,112.7,118.5,112.7z"/>
	</g>
	<line class="st10" x1="112.5" y1="97.7" x2="112.3" y2="107.4"/>
	<ellipse class="st11" cx="112.1" cy="85.1" rx="7.7" ry="3.6"/>
	<ellipse class="st5" cx="112.1" cy="84.9" rx="6.8" ry="3"/>
	<path class="st11" d="M104.5,85.1l3.3,13c0,0,1.5,1.8,4.5,2c3,0.1,4.4-1.9,4.4-1.9l3.1-13c0,0-0.1,2.8-7.3,3.2
		S104.5,85.1,104.5,85.1z"/>
	<path class="st5" d="M95.9,137.8"/>
	<g>
		<path class="st2" d="M111.6,115.1c-0.6,0-1.1-0.5-1.1-1.1V89c0-0.6,0.5-1.1,1.1-1.1c0.6,0,1.1,0.5,1.1,1.1v25
			C112.7,114.6,112.2,115.1,111.6,115.1z"/>
	</g>
</g>
<g>
	<path class="st5" d="M54.3,152.8l4.9,37.2l6.5,26.6l-5,12l-8,15.6c0,0-2.5,23.1-14.3,16.7c-11.8-6.4-30.8-13.2-31.1-21.2
		c-0.3-8-5.6-47.1-4-53.6s6.6-20.1,6.6-20.1L54.3,152.8z"/>
	<path class="st12" d="M65.1,157.5l8.5,41.9c0,0,1.7,16.5,0.6,23c-1.1,6.4-3,16.2-3,16.2s-3.5,8.7-7.3,12c-3.8,3.4-25,14.3-25,14.3
		c-6.9,0-17.4-12.3-23.1-23.1c-5.7-10.8-2.1-46.3-2.1-46.3l4.5-20.1L65.1,157.5z"/>
	<path class="st13" d="M22.3,228.5l-0.1,0.1l0.3-0.1c0.7,0.3,1.9,0.7,1.9,0.7l4.7-1.8l0,0c-0.1,1.6,3.7,20.1,4.6,23.1l-0.3,0.3
		L34,251l0.7-0.3l-0.3-0.2l0.1-0.1c0.4,0.3,0.6,0.3,1.3,0.3c0.3,0,0.5,0,0.7-0.1l1.7,0.2l3-0.8c0.5,0.5,1.2,0.9,1.8,0.9
		c1.1,0,1.6-0.9,1.9-1.9c0.2-0.6,0.3-1.8,0.4-2.8c0.6-0.3,1.3-0.6,2.1-0.7c0.3,0.7,1.6,1.3,2.5,1.2c1-0.1,1.7-1.5,2.1-2.6
		c0.3-0.8,0.3-3.1,0.3-4.1l1-1.4c0.4,0.9,2.1,1,2.4,0.9c0.2-0.1,0.4-0.2,0.6-0.5c0.2,0.1,1-0.7,1-0.7s2-7.8,2.8-12.7
		c0.8-4.9,2-13.4,2.1-22.1c0.1-7.3-0.4-12.8-2.9-20.1c-0.5-1.4-2.8-5.5-4.5-8.9c-0.1,0-0.2-0.4-0.3-1.2c0-2.3-0.1-7.6-0.6-9.3
		c0-0.6,0-0.9,0.1-0.9l-0.5,0.1c-1.1-1.8-3.9-3.4-9.3-3.5c-5.2,0-8.8,2.1-9.9,4.2c0-0.4-0.1-0.6-0.1-0.6l-0.7,1.6
		c0,15.4-2,19.6-2,19.6l-3.4,13.5l-1.4,14.5l-2.9,12.5L22.3,228.5C22,228.4,22,228.3,22.3,228.5z M53.7,217.3
		c0.1,0.2,0.2,0.4,0.2,0.7C53.9,217.8,53.8,217.5,53.7,217.3z M46.6,240.9c0,0.2,0,0.4,0,0.5c0,0.2,0,0.4,0.1,0.6
		C46.6,241.6,46.6,241.2,46.6,240.9C46.6,240.9,46.6,240.9,46.6,240.9z M23.9,227.6c0-0.1,0.1-0.1,0.1-0.2c0,0.2,0.2,0.4,0.4,0.5
		C24.2,227.8,24,227.7,23.9,227.6z"/>
	<ellipse class="st14" cx="41.2" cy="163.3" rx="8.4" ry="3.6"/>
	<path class="st5" d="M35.2,151.2c0,0-19.5,8.6-23.2,10.6s-9.6,7.9-2.4,11.9c7.2,3.9,19,10,19,10s2.2,1.9,9.3,0.3
		s24.9-12.5,27.9-13.8c3-1.4,7.5-5.9,2.5-8.6s-19.6-9.4-23.5-11.4C41,148.3,35.2,151.2,35.2,151.2z"/>
	<path class="st5" d="M35.4,148.6c0,0-19.5,8.6-23.2,10.6s-9.6,7.9-2.4,11.9c7.2,3.9,19,10,19,10s2.2,1.9,9.3,0.3S63,168.9,66,167.5
		c3-1.4,7.5-5.9,2.5-8.6c-5-2.7-19.6-9.4-23.5-11.4C41.2,145.6,35.4,148.6,35.4,148.6z"/>
	<path class="st15" d="M34,166L18,175.1l-1,5.9c0,0-6.5,28-4.1,47s10.4,25.3,10.4,25.3"/>
	<g>
		<polygon class="st13" points="45.2,161.6 44.4,160.3 57.2,153.2 58.4,154 		"/>
	</g>
	<ellipse class="st16" cx="41.2" cy="163.3" rx="10.2" ry="4.4"/>
	<g>
		<defs>
			
				<ellipse id="XMLID_50_" transform="matrix(1.641242e-02 -0.9999 0.9999 1.641242e-02 -122.4659 201.8187)" cx="41.3" cy="163.2" rx="3.6" ry="8.4"/>
		</defs>
		<use xlink:href="#XMLID_50_"  style="overflow:visible;fill:#543C52;"/>
		<clipPath id="XMLID_2_">
			<use xlink:href="#XMLID_50_"  style="overflow:visible;"/>
		</clipPath>
		<g class="st17">
			<path class="st18" d="M35.8,161.8c0,0,2.7-0.4,5-0.9s5.9-0.5,6.5,1.6c0.6,2.1-3.5,2.3-3.5,2.3s-6.8,0.9-8.1-1.1
				C34.4,161.8,35.8,161.8,35.8,161.8z"/>
		</g>
	</g>
	<line class="st15" x1="44.4" y1="160.6" x2="44.2" y2="164.8"/>
</g>
</svg>
