<?xml version="1.0" encoding="utf-8"?>
<!-- Generator: Adobe Illustrator 25.2.3, SVG Export Plug-In . SVG Version: 6.00 Build 0)  -->
<svg version="1.1" id="Layer_1" xmlns="http://www.w3.org/2000/svg" xmlns:xlink="http://www.w3.org/1999/xlink" x="0px" y="0px"
	 viewBox="0 0 141.6 247.9" style="enable-background:new 0 0 141.6 247.9;" xml:space="preserve">
<style type="text/css">
	.st0{fill:#F77441;stroke:#FFFFFF;stroke-width:0.4663;stroke-miterlimit:10;}
	.st1{fill:none;stroke:#FFFFFF;stroke-width:0.4663;stroke-miterlimit:10;}
	.st2{fill:#543C52;stroke:#FFFFFF;stroke-width:0.2331;stroke-miterlimit:10;}
	.st3{fill:#CCB9B9;stroke:#FFFFFF;stroke-width:0.1281;stroke-miterlimit:10;}
	.st4{fill:#CCB9B9;stroke:#FFFFFF;stroke-width:0.12;stroke-miterlimit:9.9994;}
	.st5{fill:#CCB9B9;stroke:#FFFFFF;stroke-width:0.2331;stroke-miterlimit:10;}
	.st6{fill:#B79797;stroke:#FFFFFF;stroke-width:0.2331;stroke-miterlimit:10;}
	.st7{fill:none;stroke:#FFFFFF;stroke-width:0.442;stroke-miterlimit:10;}
	.st8{fill:#CCB9B9;stroke:#FFFFFF;stroke-width:0.12;stroke-miterlimit:9.9998;}
	.st9{fill:#361D32;stroke:#FFFFFF;stroke-width:0.2331;stroke-miterlimit:10;}
	.st10{fill:none;stroke:#FFFFFF;stroke-width:0.2331;stroke-miterlimit:10;}
	.st11{fill:none;stroke:#B79797;stroke-width:0.2331;stroke-linecap:round;stroke-miterlimit:10;}
	.st12{fill:#E4DAD8;stroke:#FFFFFF;stroke-width:0.2331;stroke-miterlimit:10;}
	.st13{fill:#CCB9B9;stroke:#FFFFFF;stroke-width:0.221;stroke-miterlimit:10;}
	.st14{fill:#E4DAD8;}
	.st15{fill:#543C52;stroke:#543C52;stroke-width:0.3853;stroke-miterlimit:10;}
	.st16{fill:none;stroke:#E4DAD8;stroke-width:1.3522;stroke-miterlimit:10;}
	.st17{fill:#361D32;stroke:#FFFFFF;stroke-width:0.221;stroke-miterlimit:10;}
	.st18{fill:#543C52;}
	.st19{clip-path:url(#SVGID_2_);}
	.st20{fill:#CCB9B9;}
</style>
<g>
	<path class="st0" d="M20.9,117c-1-2.7-0.7-14.1-0.7-14.1s-2.1-5.2-4-10c-2-4.7-4.2-18.8-4.2-31.1s1.6-14.5,2.1-20
		c0.6-5.6,2.9-19.9,3.6-22.3c0.7-2.3,1.6-3,2.1-3.3c0.6-0.2,2.9,0,3.3,1.4c0.4,1.5,0.4,4.1,0,6.5c-0.4,2.4-1,19.2-1.2,20.4
		c-0.2,1.2,0.8,1.7,1.1,1.8c0.3,0,0.9-0.1,0.9-1.2c0.2-0.9,0.3-12.7,0.3-12.7l0.3-16c0,0-0.1-4.8,0.5-6.2s1.5-3.3,2.8-3.4
		c1.3-0.1,3,0.7,3.4,1.7c0.4,0.9,0.7,2.9,0.9,5.4c0.1,2.5,0.3,7.6,0.3,7.6l0.3,15.6c0,0,0.2,6.1,0.5,6.7c0.2,0.7,1.1,0.7,1.3,0.5
		c0.3-0.3,0.1-1.2,0.3-2.8c0.2-1.6-0.3-7.6-0.3-7.6l-0.2-9.1l-0.2-8.5l-0.2-6.9c0,0,0.3-4.1,0.7-5.4c0.4-1.3,1-2.5,2.5-2.5
		c1.5,0,3.4,1.8,3.7,3c0.4,1.2,1,6.2,1.2,8.8c0.2,2.6,0.5,9.8,0.5,9.8s0.7,6.4,0.7,8.5c0,2.1,0.1,10,0.1,10s0,2.7,0.4,3.2
		c0.4,0.4,0.7,0.3,1.1-0.2c0.4-0.5,0.3-14,0.3-14l-0.7-11.7l-0.3-8.9c0,0,0.1-5,0.5-6.3c0.4-1.3,1.3-1.9,2.2-1.8
		c0.9,0.1,1.1,0,1.9,0.6c0.7,0.6,1.4,3,1.8,5.3s2.1,13,2.1,13l1.5,13.6c0,0,0.4-0.5,2.3-1.4c2-0.9,3.5-0.7,4.5-0.6
		c1.1,0.2,1.7,0.6,1.3,1.7s-1.7,3.7-2.8,7.3c-1.3,3.4-3.1,13.7-3.1,13.7s-1.2,10.4-1.3,14.9c0,4.5-3.1,13.7-4.6,17.7
		s-2.2,7.7-2.7,11.6c-0.5,3.8,0.1,13.4,0,16.6s-5.5,7.2-13.6,7S21.9,119.8,20.9,117z"/>
	<path class="st1" d="M54.1,33.6c0,0-2.8,2.4-3.7,5.8c-0.9,3.4-2.4,10.1-2.4,10.1s-0.5,2.9-1.4,4.8c-0.9,1.9-3.8,4.8-7,8.1
		c-3.1,3.4-9.2,7.6-11,24.2"/>
</g>
<g>
	<g>
		<path class="st2" d="M106.5,101.4c-0.6,0-1-0.5-1-1V75.2c0-0.6,0.5-1,1-1s1,0.5,1,1v25.2C107.5,100.9,107.1,101.4,106.5,101.4z"/>
	</g>
	<g>
		<polygon class="st3" points="90.1,146 82.2,141.4 83.2,141.6 90.3,145.6 90.4,145.9 		"/>
		<ellipse transform="matrix(0.711 -0.7031 0.7031 0.711 -75.6602 98.8546)" class="st4" cx="82.4" cy="141.5" rx="0.8" ry="0.6"/>
	</g>
	<g>
		<polygon class="st3" points="88.3,164.9 80.5,160.3 81.4,160.5 88.5,164.6 88.6,164.9 		"/>
		<ellipse transform="matrix(0.711 -0.7031 0.7031 0.711 -89.5045 103.0682)" class="st4" cx="80.7" cy="160.4" rx="0.8" ry="0.6"/>
	</g>
	<g>
		<polygon class="st5" points="70.3,124.7 74.8,126.9 78.6,124.9 74.2,122.7 		"/>
		<polygon class="st5" points="70.3,124.6 70.3,128.6 74.8,130.9 74.7,126.9 		"/>
		<polygon class="st5" points="74.7,126.9 74.7,131 78.7,129 78.7,124.8 		"/>
		<g>
			<path class="st6" d="M89.4,137.4c-0.3,0-0.6-0.1-0.8-0.3l-11.7-7.6c-0.7-0.5-0.9-1.4-0.5-2.1c0.5-0.7,1.4-0.9,2.1-0.5l11.7,7.6
				c0.7,0.5,0.9,1.4,0.5,2.1C90.5,137.1,89.9,137.4,89.4,137.4z"/>
		</g>
		<g>
			<path class="st6" d="M75,125.5c-0.4,0-0.7-0.2-1.1-0.5c-0.6-0.6-0.6-1.6,0-2.1c2.1-2.1,19.8-23.7,28.7-34.7
				c0.6-0.7,1.5-0.7,2.1-0.2c0.7,0.6,0.7,1.5,0.2,2.1c-1,1.3-26.1,32.1-28.9,35C75.8,125.4,75.3,125.5,75,125.5z"/>
		</g>
	</g>
	<g>
		<polygon class="st5" points="140.1,121.5 135.6,123.7 131.8,121.7 136.1,119.6 		"/>
		<polygon class="st5" points="140.1,121.4 140.1,125.5 135.6,127.7 135.7,123.7 		"/>
		<polygon class="st5" points="135.7,123.7 135.6,127.8 131.7,125.8 131.7,121.6 		"/>
		<g>
			<path class="st6" d="M117.2,136.9c-0.5,0-1-0.3-1.3-0.7c-0.5-0.7-0.3-1.7,0.5-2.1l15.5-10.4c0.7-0.5,1.7-0.3,2.1,0.5
				c0.5,0.7,0.3,1.7-0.5,2.1l-15.5,10.4C117.8,136.8,117.5,136.9,117.2,136.9z"/>
		</g>
		<g>
			<path class="st6" d="M135.4,122.4c-0.4,0-0.7-0.2-1.1-0.5c-2.8-2.8-29.9-29.3-30.2-29.5c-0.7-0.6-0.7-1.6,0-2.1
				c0.6-0.7,1.6-0.7,2.1,0c0.3,0.3,27.4,26.8,30.2,29.6c0.6,0.6,0.6,1.6,0,2.1C136.1,122.2,135.8,122.4,135.4,122.4z"/>
		</g>
	</g>
	<g>
		<path class="st2" d="M112.9,109.9c0.7,2,0.5,10.3,0.5,10.3s1.5,3.8,3,7.3c1.4,3.5,3.1,13.9,3.1,22.8s-1.1,10.6-1.6,14.6
			c-0.4,4.1-2.1,14.6-2.7,16.3c-0.6,1.7-1.1,2.2-1.5,2.4s-2.1,0-2.4-1c-0.3-1.1-0.3-3,0-4.8c0.3-1.8,0.7-14.1,0.8-14.9
			c0.1-0.8-0.6-1.2-0.8-1.3c-0.3,0-0.7,0.1-0.7,0.8c0,0.7-0.1,9.4-0.1,9.4l-0.2,11.7c0,0,0.1,3.5-0.4,4.6c-0.4,1-1.1,2.4-2.1,2.4
			c-0.9,0.1-2.1-0.6-2.4-1.2c-0.3-0.7-0.6-2.1-0.7-3.9c-0.1-1.9-0.2-5.6-0.2-5.6l-0.2-11.5c0,0-0.2-4.4-0.4-4.9
			c-0.2-0.5-0.8-0.6-1-0.4c-0.2,0.2-0.1,0.8-0.2,2.1c-0.1,1.2,0.2,5.6,0.2,5.6l0.2,6.7l0.2,6.2l0.2,5.1c0,0-0.2,3-0.5,3.9
			c-0.3,1-0.7,1.9-1.9,1.9c-1.1,0-2.4-1.3-2.7-2.2c-0.3-0.9-0.7-4.5-0.8-6.4c-0.2-2-0.4-7.2-0.4-7.2s-0.5-4.8-0.5-6.2
			c0-1.5-0.1-7.3-0.1-7.3s0-2.1-0.3-2.3c-0.3-0.3-0.6-0.3-0.8,0.1s-0.2,10.3-0.2,10.3l0.6,8.6l0.2,6.5c0,0-0.1,3.7-0.4,4.7
			c-0.3,0.9-0.9,1.4-1.7,1.3c-0.7-0.1-0.8,0-1.4-0.4s-1-2.1-1.3-3.9c-0.3-1.7-1.5-9.5-1.5-9.5l-1.1-10c0,0-0.3,0.4-1.7,1
			c-1.4,0.7-2.5,0.6-3.3,0.5c-0.7-0.1-1.2-0.5-0.9-1.2c0.3-0.8,1.2-2.8,2.1-5.3c0.8-2.6,2.2-10.2,2.2-10.2s0.9-7.6,0.9-11
			c0-3.4,2.3-10.1,3.4-13c1-2.9,1.6-5.7,2-8.5c0.4-2.8,0-9.8,0-12.2c0-2.3,4-5.2,10-5.1C109.5,105.6,112.3,107.8,112.9,109.9z"/>
		<path class="st7" d="M88.6,171.1c0,0,2.1-1.8,2.7-4.2c0.7-2.4,1.8-7.4,1.8-7.4s0.4-2.1,1-3.5c0.7-1.4,2.8-3.5,5.1-6
			c2.2-2.4,6.7-5.5,8.1-17.8"/>
	</g>
	<g>
		<polygon class="st3" points="95.4,148.1 101.9,141.7 101.1,142.1 95.2,147.8 95.2,148.1 		"/>
		<ellipse transform="matrix(0.5 -0.866 0.866 0.5 -71.9394 159.0248)" class="st8" cx="101.8" cy="141.8" rx="0.6" ry="0.8"/>
	</g>
	<g>
		<polygon class="st3" points="100.1,172.7 106.5,166.3 105.7,166.8 99.9,172.5 99.8,172.7 		"/>
		<ellipse transform="matrix(0.5 -0.866 0.866 0.5 -91.0112 175.3092)" class="st8" cx="106.3" cy="166.5" rx="0.6" ry="0.8"/>
	</g>
	<g>
		<polygon class="st3" points="117.5,160.8 124,154.4 123.1,154.8 117.3,160.5 117.2,160.8 		"/>
		<ellipse transform="matrix(0.5 -0.866 0.866 0.5 -71.9399 184.3844)" class="st8" cx="123.7" cy="154.5" rx="0.6" ry="0.8"/>
	</g>
	<g>
		<polygon class="st3" points="112.5,149.2 118.9,142.9 118.1,143.3 112.3,149 112.2,149.3 		"/>
		<ellipse transform="matrix(0.5 -0.866 0.866 0.5 -64.4982 174.2804)" class="st8" cx="118.7" cy="143" rx="0.6" ry="0.8"/>
	</g>
	<g>
		<polygon class="st3" points="108.9,184.1 115.4,177.8 114.6,178.1 108.7,183.8 108.6,184.2 		"/>
		<ellipse transform="matrix(0.5 -0.866 0.866 0.5 -96.4693 188.6999)" class="st8" cx="115.2" cy="177.9" rx="0.6" ry="0.8"/>
	</g>
	<ellipse class="st9" cx="103.3" cy="110.3" rx="9.4" ry="4.5"/>
	<ellipse class="st5" cx="103.5" cy="109.4" rx="8" ry="3.7"/>
	<ellipse class="st9" cx="103.6" cy="103.8" rx="7.2" ry="3.4"/>
	<ellipse class="st5" cx="103.6" cy="103.8" rx="5" ry="2.4"/>
	<ellipse class="st5" cx="103.8" cy="91" rx="4.1" ry="2"/>
	<path class="st2" d="M96.5,103.6c0.2-0.9-0.8,5.4-1,5.6c-0.2,0.2,0.1,4,8,4c8.1,0,8-3.9,8-3.9l-0.7-5.2c0,0-0.4,2.9-7,3
		C97.5,107.1,96.3,104.5,96.5,103.6z"/>
	<g>
		<line class="st10" x1="98.1" y1="103" x2="104.7" y2="87.8"/>
		<path class="st6" d="M98.1,104c-0.1,0-0.3,0-0.4-0.1c-0.6-0.2-0.7-0.8-0.6-1.3l6.6-15.2c0.2-0.6,0.8-0.7,1.3-0.6
			c0.6,0.2,0.7,0.8,0.6,1.3L99,103.4C98.8,103.7,98.5,104,98.1,104z"/>
	</g>
	<g>
		<line class="st10" x1="103.2" y1="87.6" x2="109.5" y2="103.9"/>
		<path class="st6" d="M109.5,104.9c-0.4,0-0.8-0.3-0.9-0.7L102.4,88c-0.2-0.6,0.1-1.1,0.6-1.3c0.6-0.2,1.1,0.1,1.3,0.6l6.2,16.3
			c0.2,0.6-0.1,1.1-0.6,1.3C109.7,104.9,109.6,104.9,109.5,104.9z"/>
	</g>
	<line class="st11" x1="103.9" y1="90.9" x2="103.7" y2="100"/>
	<ellipse class="st12" cx="103.5" cy="79.2" rx="7.2" ry="3.4"/>
	<ellipse class="st5" cx="103.5" cy="79" rx="6.3" ry="2.8"/>
	<path class="st12" d="M96.4,79.2l3.1,12.1c0,0,1.4,1.7,4.2,1.9c2.8,0.1,4.1-1.8,4.1-1.8l2.9-12.1c0,0-0.1,2.6-6.8,3
		C97.2,82.6,96.4,79.2,96.4,79.2z"/>
	<path class="st5" d="M88.4,128.3"/>
	<g>
		<path class="st2" d="M103,107.2c-0.6,0-1-0.5-1-1V82.8c0-0.6,0.5-1,1-1s1,0.5,1,1v23.3C104.1,106.7,103.6,107.2,103,107.2z"/>
	</g>
</g>
<g>
	<path class="st5" d="M49.6,142.3l4.6,34.7l6.1,24.8L55.6,213l-7.5,14.5c0,0-2.3,21.5-13.3,15.6c-11-6-28.7-12.3-29-19.8
		c-0.3-7.5-5.2-43.9-3.7-50s6.2-18.7,6.2-18.7L49.6,142.3z"/>
	<path class="st13" d="M59.7,146.7l7.9,39.1c0,0,1.6,15.4,0.6,21.4c-1,6-2.8,15.1-2.8,15.1s-3.3,8.1-6.8,11.2
		c-3.5,3.2-23.3,13.3-23.3,13.3c-6.4,0-16.2-11.5-21.5-21.5c-5.3-10.1-2-43.2-2-43.2l4.2-18.7L59.7,146.7z"/>
	<path class="st14" d="M19.8,212.9L19.8,212.9H20c0.7,0.3,1.8,0.7,1.8,0.7l4.4-1.7l0,0c-0.1,1.5,3.5,18.7,4.3,21.5l-0.3,0.3l0.6,0.2
		l0.7-0.3l-0.3-0.2l0.1-0.1c0.4,0.3,0.6,0.3,1.2,0.3c0.3,0,0.5,0,0.7-0.1l1.6,0.2l2.8-0.7c0.5,0.5,1.1,0.8,1.7,0.8
		c1,0,1.5-0.8,1.8-1.8c0.2-0.6,0.3-1.7,0.4-2.6c0.6-0.3,1.2-0.6,2-0.7c0.3,0.7,1.5,1.2,2.3,1.1c0.9-0.1,1.6-1.4,2-2.4
		c0.3-0.7,0.3-2.9,0.3-3.8l0.9-1.3c0.4,0.8,2,0.9,2.2,0.8c0.2-0.1,0.4-0.2,0.6-0.5c0.2,0.1,0.9-0.7,0.9-0.7s1.9-7.3,2.6-11.8
		c0.7-4.6,1.9-12.5,2-20.6c0.1-6.8-0.4-11.9-2.7-18.7c-0.5-1.3-2.6-5.1-4.2-8.3c-0.1,0-0.2-0.4-0.3-1.1c0-2.1-0.1-7.1-0.6-8.7
		c0-0.6,0-0.8,0.1-0.8l-0.5,0.1c-1-1.7-3.6-3.2-8.7-3.3c-4.8,0-8.2,2-9.2,3.9c0-0.4-0.1-0.6-0.1-0.6l-0.7,1.5
		c0,14.4-1.9,18.3-1.9,18.3l-3.2,12.6L23.9,198l-2.7,11.7L19.8,212.9C19.5,212.8,19.5,212.7,19.8,212.9z M49,202.5
		c0.1,0.2,0.2,0.4,0.2,0.7C49.2,202.9,49.1,202.7,49,202.5z M42.4,224.5c0,0.2,0,0.4,0,0.5c0,0.2,0,0.4,0.1,0.6
		C42.4,225.1,42.4,224.8,42.4,224.5L42.4,224.5z M21.3,212.1c0-0.1,0.1-0.1,0.1-0.2c0,0.2,0.2,0.4,0.4,0.5
		C21.5,212.3,21.4,212.2,21.3,212.1z"/>
	<ellipse class="st15" cx="37.4" cy="152.1" rx="7.8" ry="3.4"/>
	<path class="st5" d="M31.8,140.8c0,0-18.2,8-21.6,9.9s-9,7.4-2.2,11.1c6.7,3.6,17.7,9.3,17.7,9.3s2.1,1.8,8.7,0.3
		c6.6-1.5,23.2-11.7,26-12.9c2.8-1.3,7-5.5,2.3-8c-4.7-2.5-18.3-8.8-21.9-10.6C37.2,138.1,31.8,140.8,31.8,140.8z"/>
	<path class="st5" d="M32,138.4c0,0-18.2,8-21.6,9.9c-3.5,1.9-9,7.4-2.2,11.1c6.7,3.6,17.7,9.3,17.7,9.3s2.1,1.8,8.7,0.3
		c6.6-1.5,23.2-11.7,26-13c2.8-1.3,7-5.5,2.3-8s-18.3-8.8-21.9-10.6C37.4,135.6,32,138.4,32,138.4z"/>
	<path class="st16" d="M30.7,154.6l-14.9,8.5l-0.9,5.5c0,0-6.1,26.1-3.8,43.8s9.7,23.6,9.7,23.6"/>
	<g>
		<polygon class="st14" points="41.1,150.5 40.4,149.3 52.3,142.7 53.4,143.4 		"/>
	</g>
	<ellipse class="st17" cx="37.4" cy="152.1" rx="9.5" ry="4.1"/>
	<g>
		<g>
			
				<ellipse id="XMLID_50_" transform="matrix(1.641185e-02 -0.9999 0.9999 1.641185e-02 -115.0515 187.1035)" class="st18" cx="37.6" cy="152" rx="3.4" ry="7.8"/>
		</g>
		<g>
			<defs>
				
					<ellipse id="SVGID_1_" transform="matrix(1.641185e-02 -0.9999 0.9999 1.641185e-02 -115.0515 187.1035)" cx="37.6" cy="152" rx="3.4" ry="7.8"/>
			</defs>
			<clipPath id="SVGID_2_">
				<use xlink:href="#SVGID_1_"  style="overflow:visible;"/>
			</clipPath>
			<g class="st19">
				<path class="st20" d="M32.4,150.7c0,0,2.5-0.4,4.7-0.8s5.5-0.5,6.1,1.5c0.6,2-3.3,2.1-3.3,2.1s-6.3,0.8-7.6-1
					C31.1,150.7,32.4,150.7,32.4,150.7z"/>
			</g>
		</g>
	</g>
	<line class="st16" x1="40.4" y1="149.6" x2="40.2" y2="153.5"/>
</g>
</svg>
