<?xml version="1.0" encoding="utf-8"?>
<!-- Generator: Adobe Illustrator 25.2.3, SVG Export Plug-In . SVG Version: 6.00 Build 0)  -->
<svg version="1.1" id="Layer_1" xmlns="http://www.w3.org/2000/svg" xmlns:xlink="http://www.w3.org/1999/xlink" x="0px" y="0px"
	 viewBox="0 0 150 244.6" style="enable-background:new 0 0 150 244.6;" xml:space="preserve">
<style type="text/css">
	.st0{fill:#F77441;stroke:#FFFFFF;stroke-width:0.443;stroke-miterlimit:10;}
	.st1{fill:none;stroke:#FFFFFF;stroke-width:0.443;stroke-miterlimit:10;}
	.st2{fill:#543C52;stroke:#FFFFFF;stroke-width:0.2331;stroke-miterlimit:10;}
	.st3{fill:#CCB9B9;stroke:#FFFFFF;stroke-width:0.1281;stroke-miterlimit:10;}
	.st4{fill:#CCB9B9;stroke:#FFFFFF;stroke-width:0.12;stroke-miterlimit:9.9982;}
	.st5{fill:#CCB9B9;stroke:#FFFFFF;stroke-width:0.2331;stroke-miterlimit:10;}
	.st6{fill:#B79797;stroke:#FFFFFF;stroke-width:0.2331;stroke-miterlimit:10;}
	.st7{fill:none;stroke:#FFFFFF;stroke-width:0.442;stroke-miterlimit:10;}
	.st8{fill:#CCB9B9;stroke:#FFFFFF;stroke-width:0.12;stroke-miterlimit:9.9994;}
	.st9{fill:#361D32;stroke:#FFFFFF;stroke-width:0.2331;stroke-miterlimit:10;}
	.st10{fill:none;stroke:#FFFFFF;stroke-width:0.2331;stroke-miterlimit:10;}
	.st11{fill:none;stroke:#B79797;stroke-width:0.2331;stroke-linecap:round;stroke-miterlimit:10;}
	.st12{fill:#E4DAD8;stroke:#FFFFFF;stroke-width:0.2331;stroke-miterlimit:10;}
	.st13{fill:#CCB9B9;stroke:#FFFFFF;stroke-width:0.221;stroke-miterlimit:10;}
	.st14{fill:#E4DAD8;}
	.st15{fill:#543C52;stroke:#543C52;stroke-width:0.3853;stroke-miterlimit:10;}
	.st16{fill:none;stroke:#E4DAD8;stroke-width:1.3522;stroke-miterlimit:10;}
	.st17{fill:#361D32;stroke:#FFFFFF;stroke-width:0.221;stroke-miterlimit:10;}
	.st18{fill:#543C52;}
	.st19{clip-path:url(#SVGID_2_);}
	.st20{fill:#CCB9B9;}
</style>
<g>
	<path class="st0" d="M25.9,110.9c-1-2.6-0.7-13.4-0.7-13.4s-2-4.9-3.8-9.5c-1.9-4.5-4-17.9-4-29.5s1.5-13.8,2-19
		c0.6-5.3,2.8-18.9,3.4-21.2c0.7-2.2,1.5-2.9,2-3.1c0.6-0.2,2.8,0,3.1,1.3c0.4,1.4,0.4,3.9,0,6.2s-0.8,18.2-1,19.3
		c-0.2,1.1,0.8,1.6,1,1.7c0.3,0,0.9-0.1,0.9-1.1c0.2-0.9,0.3-12.1,0.3-12.1l0.3-15.2c0,0-0.1-4.6,0.5-5.9s1.4-3.1,2.7-3.2
		c1.2-0.1,2.8,0.7,3.2,1.6s0.7,2.8,0.9,5.1c0.1,2.4,0.3,7.2,0.3,7.2L37.1,35c0,0,0.2,5.8,0.5,6.4c0.2,0.7,1,0.7,1.2,0.5
		c0.3-0.3,0.1-1.1,0.3-2.7c0.2-1.5-0.3-7.2-0.3-7.2l-0.2-8.6l-0.2-8.1l-0.2-6.6c0,0,0.3-3.9,0.7-5.1s1-2.4,2.4-2.4s3.2,1.7,3.5,2.9
		c0.4,1.1,1,5.9,1.1,8.4c0.2,2.5,0.5,9.3,0.5,9.3s0.7,6.1,0.7,8.1s0.1,9.5,0.1,9.5s0,2.6,0.4,3s0.7,0.3,1-0.2
		c0.4-0.5,0.3-13.3,0.3-13.3l-0.7-11.2l-0.3-8.5c0,0,0.1-4.8,0.5-6s1.2-1.8,2.1-1.7c0.9,0.1,1,0,1.8,0.6c0.7,0.6,1.3,2.8,1.7,5
		s2,12.4,2,12.4l1.4,12.9c0,0,0.4-0.5,2.2-1.3c1.9-0.9,3.3-0.7,4.3-0.6c1,0.2,1.6,0.6,1.2,1.6s-1.6,3.5-2.7,6.9
		c-1.2,3.2-2.9,13-2.9,13s-1.1,9.9-1.2,14.2c0,4.3-2.9,13-4.4,16.8c-1.4,3.8-2.1,7.3-2.6,11c-0.5,3.6,0.1,12.7,0,15.8
		c-0.1,3-5.2,6.8-12.9,6.6C30.8,116.3,26.9,113.6,25.9,110.9z"/>
	<path class="st1" d="M57.5,31.7c0,0-2.7,2.3-3.5,5.5c-0.9,3.2-2.3,9.6-2.3,9.6s-0.5,2.8-1.3,4.6c-0.9,1.8-3.6,4.6-6.6,7.7
		c-2.9,3.2-8.7,7.2-10.5,23"/>
</g>
<g>
	<g>
		<path class="st2" d="M110.7,98.1c-0.6,0-1-0.5-1-1V71.9c0-0.6,0.5-1,1-1s1,0.5,1,1v25.2C111.7,97.6,111.3,98.1,110.7,98.1z"/>
	</g>
	<g>
		<polygon class="st3" points="94.3,142.7 86.4,138.1 87.4,138.3 94.5,142.3 94.6,142.6 		"/>
		<ellipse transform="matrix(0.711 -0.7031 0.7031 0.711 -72.1492 100.8334)" class="st4" cx="86.6" cy="138.2" rx="0.8" ry="0.6"/>
	</g>
	<g>
		<polygon class="st3" points="92.5,161.6 84.7,157 85.6,157.2 92.7,161.3 92.8,161.6 		"/>
		<ellipse transform="matrix(0.711 -0.7031 0.7031 0.711 -85.8517 105.0242)" class="st4" cx="84.9" cy="157" rx="0.8" ry="0.6"/>
	</g>
	<g>
		<polygon class="st5" points="74.5,121.4 79,123.6 82.8,121.6 78.4,119.4 		"/>
		<polygon class="st5" points="74.5,121.3 74.5,125.3 79,127.6 78.9,123.6 		"/>
		<polygon class="st5" points="78.9,123.6 78.9,127.7 82.9,125.7 82.9,121.5 		"/>
		<g>
			<path class="st6" d="M93.6,134.1c-0.3,0-0.6-0.1-0.8-0.3l-11.7-7.6c-0.7-0.5-0.9-1.4-0.5-2.1c0.5-0.7,1.4-0.9,2.1-0.5l11.7,7.6
				c0.7,0.5,0.9,1.4,0.5,2.1C94.7,133.8,94.1,134.1,93.6,134.1z"/>
		</g>
		<g>
			<path class="st6" d="M79.2,122.2c-0.4,0-0.7-0.2-1.1-0.5c-0.6-0.6-0.6-1.6,0-2.1c2.1-2.1,19.8-23.7,28.7-34.7
				c0.6-0.7,1.5-0.7,2.1-0.2c0.7,0.6,0.7,1.5,0.2,2.1c-1,1.3-26.1,32.1-28.9,35C80,122.1,79.5,122.2,79.2,122.2z"/>
		</g>
	</g>
	<g>
		<polygon class="st5" points="144.3,118.2 139.8,120.4 136,118.4 140.3,116.3 		"/>
		<polygon class="st5" points="144.3,118.1 144.3,122.2 139.8,124.4 139.9,120.4 		"/>
		<polygon class="st5" points="139.9,120.4 139.8,124.5 135.9,122.5 135.9,118.3 		"/>
		<g>
			<path class="st6" d="M121.4,133.6c-0.5,0-1-0.3-1.3-0.7c-0.5-0.7-0.3-1.7,0.5-2.1l15.5-10.4c0.7-0.5,1.7-0.3,2.1,0.5
				c0.5,0.7,0.3,1.7-0.5,2.1l-15.5,10.4C122,133.5,121.7,133.6,121.4,133.6z"/>
		</g>
		<g>
			<path class="st6" d="M139.6,119.1c-0.4,0-0.7-0.2-1.1-0.5c-2.8-2.8-29.9-29.3-30.2-29.5c-0.7-0.6-0.7-1.6,0-2.1
				c0.6-0.7,1.6-0.7,2.1,0c0.3,0.3,27.4,26.8,30.2,29.6c0.6,0.6,0.6,1.6,0,2.1C140.3,118.9,140,119.1,139.6,119.1z"/>
		</g>
	</g>
	<g>
		<path class="st2" d="M117.1,106.6c0.7,2,0.5,10.3,0.5,10.3s1.5,3.8,3,7.3c1.4,3.5,3.1,13.9,3.1,22.8s-1.1,10.6-1.6,14.6
			c-0.4,4.1-2.1,14.6-2.7,16.3s-1.1,2.2-1.5,2.4s-2.1,0-2.4-1c-0.3-1.1-0.3-3,0-4.8s0.7-14.1,0.8-14.9c0.1-0.8-0.6-1.2-0.8-1.3
			c-0.3,0-0.7,0.1-0.7,0.8s-0.1,9.4-0.1,9.4l-0.2,11.7c0,0,0.1,3.5-0.4,4.6c-0.4,1-1.1,2.4-2.1,2.4c-0.9,0.1-2.1-0.6-2.4-1.2
			c-0.3-0.7-0.6-2.1-0.7-3.9c-0.1-1.9-0.2-5.6-0.2-5.6l-0.2-11.5c0,0-0.2-4.4-0.4-4.9c-0.2-0.5-0.8-0.6-1-0.4
			c-0.2,0.2-0.1,0.8-0.2,2.1c-0.1,1.2,0.2,5.6,0.2,5.6l0.2,6.7l0.2,6.2l0.2,5.1c0,0-0.2,3-0.5,3.9c-0.3,1-0.7,1.9-1.9,1.9
			c-1.1,0-2.4-1.3-2.7-2.2c-0.3-0.9-0.7-4.5-0.8-6.4c-0.2-2-0.4-7.2-0.4-7.2s-0.5-4.8-0.5-6.2c0-1.5-0.1-7.3-0.1-7.3s0-2.1-0.3-2.3
			c-0.3-0.3-0.6-0.3-0.8,0.1S99.5,170,99.5,170l0.6,8.6l0.2,6.5c0,0-0.1,3.7-0.4,4.7c-0.3,0.9-0.9,1.4-1.7,1.3
			c-0.7-0.1-0.8,0-1.4-0.4s-1-2.1-1.3-3.9c-0.3-1.7-1.5-9.5-1.5-9.5l-1.1-10c0,0-0.3,0.4-1.7,1c-1.4,0.7-2.5,0.6-3.3,0.5
			c-0.7-0.1-1.2-0.5-0.9-1.2c0.3-0.8,1.2-2.8,2.1-5.3c0.8-2.6,2.2-10.2,2.2-10.2s0.9-7.6,0.9-11s2.3-10.1,3.4-13
			c1-2.9,1.6-5.7,2-8.5s0-9.8,0-12.2c0-2.3,4-5.2,10-5.1C113.7,102.3,116.5,104.5,117.1,106.6z"/>
		<path class="st7" d="M92.8,167.8c0,0,2.1-1.8,2.7-4.2c0.7-2.4,1.8-7.4,1.8-7.4s0.4-2.1,1-3.5c0.7-1.4,2.8-3.5,5.1-6
			c2.2-2.4,6.7-5.5,8.1-17.8"/>
	</g>
	<g>
		<polygon class="st3" points="99.6,144.8 106.1,138.4 105.3,138.8 99.4,144.5 99.4,144.8 		"/>
		<ellipse transform="matrix(0.5 -0.866 0.866 0.5 -66.8553 160.9495)" class="st8" cx="106" cy="138.4" rx="0.6" ry="0.8"/>
	</g>
	<g>
		<polygon class="st3" points="104.3,169.4 110.7,163 109.9,163.5 104.1,169.2 104,169.4 		"/>
		<ellipse transform="matrix(0.5 -0.866 0.866 0.5 -86.0627 177.3364)" class="st8" cx="110.5" cy="163.2" rx="0.6" ry="0.8"/>
	</g>
	<g>
		<polygon class="st3" points="121.7,157.5 128.2,151.1 127.3,151.5 121.5,157.2 121.4,157.5 		"/>
		<ellipse transform="matrix(0.5 -0.866 0.866 0.5 -66.9666 186.3842)" class="st8" cx="127.9" cy="151.2" rx="0.6" ry="0.8"/>
	</g>
	<g>
		<polygon class="st3" points="116.7,145.9 123.1,139.6 122.3,140 116.5,145.7 116.4,146 		"/>
		<ellipse transform="matrix(0.5 -0.866 0.866 0.5 -59.4777 176.2014)" class="st8" cx="122.9" cy="139.6" rx="0.6" ry="0.8"/>
	</g>
	<g>
		<polygon class="st3" points="113.1,180.8 119.6,174.5 118.8,174.8 112.9,180.5 112.8,180.9 		"/>
		<ellipse transform="matrix(0.5 -0.866 0.866 0.5 -91.4533 190.621)" class="st8" cx="119.4" cy="174.5" rx="0.6" ry="0.8"/>
	</g>
	<ellipse class="st9" cx="107.5" cy="107" rx="9.4" ry="4.5"/>
	<ellipse class="st5" cx="107.7" cy="106.1" rx="8" ry="3.7"/>
	<ellipse class="st9" cx="107.8" cy="100.5" rx="7.2" ry="3.4"/>
	<ellipse class="st5" cx="107.8" cy="100.5" rx="5" ry="2.4"/>
	<ellipse class="st5" cx="108" cy="87.7" rx="4.1" ry="2"/>
	<path class="st2" d="M100.7,100.3c0.2-0.9-0.8,5.4-1,5.6s0.1,4,8,4c8.1,0,8-3.9,8-3.9l-0.7-5.2c0,0-0.4,2.9-7,3
		C101.7,103.8,100.5,101.2,100.7,100.3z"/>
	<g>
		<line class="st10" x1="102.3" y1="99.7" x2="108.9" y2="84.5"/>
		<path class="st6" d="M102.3,100.7c-0.1,0-0.3,0-0.4-0.1c-0.6-0.2-0.7-0.8-0.6-1.3l6.6-15.2c0.2-0.6,0.8-0.7,1.3-0.6
			c0.6,0.2,0.7,0.8,0.6,1.3l-6.6,15.3C103,100.4,102.7,100.7,102.3,100.7z"/>
	</g>
	<g>
		<line class="st10" x1="107.4" y1="84.3" x2="113.7" y2="100.6"/>
		<path class="st6" d="M113.7,101.6c-0.4,0-0.8-0.3-0.9-0.7l-6.2-16.2c-0.2-0.6,0.1-1.1,0.6-1.3c0.6-0.2,1.1,0.1,1.3,0.6l6.2,16.3
			c0.2,0.6-0.1,1.1-0.6,1.3C113.9,101.6,113.8,101.6,113.7,101.6z"/>
	</g>
	<line class="st11" x1="108.1" y1="87.6" x2="107.9" y2="96.7"/>
	<ellipse class="st12" cx="107.7" cy="75.9" rx="7.2" ry="3.4"/>
	<ellipse class="st5" cx="107.7" cy="75.7" rx="6.3" ry="2.8"/>
	<path class="st12" d="M100.6,75.9l3.1,12.1c0,0,1.4,1.7,4.2,1.9c2.8,0.1,4.1-1.8,4.1-1.8l2.9-12.1c0,0-0.1,2.6-6.8,3
		C101.4,79.3,100.6,75.9,100.6,75.9z"/>
	<path class="st5" d="M92.6,125"/>
	<g>
		<path class="st2" d="M107.2,103.9c-0.6,0-1-0.5-1-1V79.5c0-0.6,0.5-1,1-1s1,0.5,1,1v23.3C108.3,103.4,107.8,103.9,107.2,103.9z"/>
	</g>
</g>
<g>
	<path class="st5" d="M53.8,139l4.6,34.7l6.1,24.8l-4.7,11.2l-7.5,14.5c0,0-2.3,21.5-13.3,15.6c-11-6-28.7-12.3-29-19.8
		c-0.3-7.5-5.2-43.9-3.7-50s6.2-18.7,6.2-18.7L53.8,139z"/>
	<path class="st13" d="M63.9,143.4l7.9,39.1c0,0,1.6,15.4,0.6,21.4S69.6,219,69.6,219s-3.3,8.1-6.8,11.2
		c-3.5,3.2-23.3,13.3-23.3,13.3c-6.4,0-16.2-11.5-21.5-21.5c-5.3-10.1-2-43.2-2-43.2l4.2-18.7L63.9,143.4z"/>
	<path class="st14" d="M24,209.6L24,209.6h0.2c0.7,0.3,1.8,0.7,1.8,0.7l4.4-1.7l0,0c-0.1,1.5,3.5,18.7,4.3,21.5l-0.3,0.3l0.6,0.2
		l0.7-0.3l-0.3-0.2l0.1-0.1c0.4,0.3,0.6,0.3,1.2,0.3c0.3,0,0.5,0,0.7-0.1l1.6,0.2l2.8-0.7c0.5,0.5,1.1,0.8,1.7,0.8
		c1,0,1.5-0.8,1.8-1.8c0.2-0.6,0.3-1.7,0.4-2.6c0.6-0.3,1.2-0.6,2-0.7c0.3,0.7,1.5,1.2,2.3,1.1c0.9-0.1,1.6-1.4,2-2.4
		c0.3-0.7,0.3-2.9,0.3-3.8l0.9-1.3c0.4,0.8,2,0.9,2.2,0.8c0.2-0.1,0.4-0.2,0.6-0.5c0.2,0.1,0.9-0.7,0.9-0.7s1.9-7.3,2.6-11.8
		c0.7-4.6,1.9-12.5,2-20.6c0.1-6.8-0.4-11.9-2.7-18.7c-0.5-1.3-2.6-5.1-4.2-8.3c-0.1,0-0.2-0.4-0.3-1.1c0-2.1-0.1-7.1-0.6-8.7
		c0-0.6,0-0.8,0.1-0.8l-0.5,0.1c-1-1.7-3.6-3.2-8.7-3.3c-4.8,0-8.2,2-9.2,3.9c0-0.4-0.1-0.6-0.1-0.6l-0.7,1.5
		c0,14.4-1.9,18.3-1.9,18.3l-3.2,12.6l-1.4,13.6l-2.7,11.7L24,209.6C23.7,209.5,23.7,209.4,24,209.6z M53.2,199.2
		c0.1,0.2,0.2,0.4,0.2,0.7C53.4,199.6,53.3,199.4,53.2,199.2z M46.6,221.2c0,0.2,0,0.4,0,0.5c0,0.2,0,0.4,0.1,0.6
		C46.6,221.8,46.6,221.5,46.6,221.2L46.6,221.2z M25.5,208.8c0-0.1,0.1-0.1,0.1-0.2c0,0.2,0.2,0.4,0.4,0.5
		C25.7,209,25.6,208.9,25.5,208.8z"/>
	<ellipse class="st15" cx="41.6" cy="148.8" rx="7.8" ry="3.4"/>
	<path class="st5" d="M36,137.5c0,0-18.2,8-21.6,9.9s-9,7.4-2.2,11.1c6.7,3.6,17.7,9.3,17.7,9.3s2.1,1.8,8.7,0.3s23.2-11.7,26-12.9
		c2.8-1.3,7-5.5,2.3-8c-4.7-2.5-18.3-8.8-21.9-10.6C41.4,134.8,36,137.5,36,137.5z"/>
	<path class="st5" d="M36.2,135.1c0,0-18.2,8-21.6,9.9c-3.5,1.9-9,7.4-2.2,11.1c6.7,3.6,17.7,9.3,17.7,9.3s2.1,1.8,8.7,0.3
		s23.2-11.7,26-13c2.8-1.3,7-5.5,2.3-8s-18.3-8.8-21.9-10.6C41.6,132.3,36.2,135.1,36.2,135.1z"/>
	<path class="st16" d="M34.9,151.3L20,159.8l-0.9,5.5c0,0-6.1,26.1-3.8,43.8s9.7,23.6,9.7,23.6"/>
	<g>
		<polygon class="st14" points="45.3,147.2 44.6,146 56.5,139.4 57.6,140.1 		"/>
	</g>
	<ellipse class="st17" cx="41.6" cy="148.8" rx="9.5" ry="4.1"/>
	<g>
		<g>
			
				<ellipse id="XMLID_50_" transform="matrix(1.641071e-02 -0.9999 0.9999 1.641071e-02 -107.4662 187.9619)" class="st18" cx="41.8" cy="148.6" rx="3.4" ry="7.8"/>
		</g>
		<g>
			<g>
				<g>
					<defs>
						
							<ellipse id="SVGID_1_" transform="matrix(1.641071e-02 -0.9999 0.9999 1.641071e-02 -107.4662 187.9619)" cx="41.8" cy="148.6" rx="3.4" ry="7.8"/>
					</defs>
					<clipPath id="SVGID_2_">
						<use xlink:href="#SVGID_1_"  style="overflow:visible;"/>
					</clipPath>
					<g class="st19">
						<path class="st20" d="M36.6,147.4c0,0,2.5-0.4,4.7-0.8s5.5-0.5,6.1,1.5s-3.3,2.1-3.3,2.1s-6.3,0.8-7.6-1
							C35.3,147.4,36.6,147.4,36.6,147.4z"/>
					</g>
				</g>
			</g>
		</g>
	</g>
	<line class="st16" x1="44.6" y1="146.3" x2="44.4" y2="150.2"/>
</g>
</svg>
