<?xml version="1.0" encoding="utf-8"?>
<!-- Generator: Adobe Illustrator 25.2.3, SVG Export Plug-In . SVG Version: 6.00 Build 0)  -->
<svg version="1.1" id="Layer_1" xmlns="http://www.w3.org/2000/svg" xmlns:xlink="http://www.w3.org/1999/xlink" x="0px" y="0px"
	 viewBox="0 0 179.9 280.3" style="enable-background:new 0 0 179.9 280.3;" xml:space="preserve">
<style type="text/css">
	.st0{fill:#4B3950;stroke:#F0EFF3;stroke-width:0.25;stroke-miterlimit:10;}
	.st1{fill:#F0EFF3;}
	.st2{font-family:'MyriadPro-Regular';}
	.st3{font-size:12.469px;}
	.st4{fill:#E4DAD8;stroke:#FFFFFF;stroke-width:0.2778;stroke-miterlimit:10;}
	.st5{fill:#CBB8B9;stroke:#FFFFFF;stroke-width:0.2778;stroke-linejoin:bevel;stroke-miterlimit:10;}
	.st6{opacity:0.5;fill:#4B3950;enable-background:new    ;}
	.st7{fill:#D8422E;}
	.st8{fill:#DC3359;}
	.st9{fill:#EE7345;}
	.st10{fill:#E4DAD8;stroke:#FFFFFF;stroke-width:0.2778;stroke-linejoin:bevel;stroke-miterlimit:10;}
	.st11{fill:#E4DAD8;stroke:#FFFFFF;stroke-width:0.25;stroke-linejoin:bevel;stroke-miterlimit:10;}
	.st12{fill:#CBB8B9;stroke:#FFFFFF;stroke-width:0.25;stroke-linejoin:bevel;stroke-miterlimit:10;}
	.st13{fill:#E4DAD8;stroke:#FFFFFF;stroke-width:0.25;stroke-miterlimit:10;}
	.st14{opacity:0.42;fill:#4B3950;enable-background:new    ;}
	.st15{opacity:0.5;fill:#E4DAD8;stroke:#FFFFFF;stroke-width:0.2778;stroke-miterlimit:10;enable-background:new    ;}
</style>
<g>
	<g>
		<path class="st0" d="M108.9,138.6l17.5,8.3c1,0.5,2.1,0.4,3.1-0.1l28.1-14.4c2.5-1.3,2.5-4.8,0.1-6.1l-16.6-8.9
			c-1-0.5-2.2-0.6-3.2,0l-29.1,15C106.2,133.7,106.3,137.4,108.9,138.6z"/>
		<path class="st0" d="M109.1,132.5l13.6,7l6.3,1.3l28.7-14.4c2.5-1.3,2.5-4.8,0.1-6.1l-15.9-8c-1-0.5-4-0.4-6,0.4
			c-2.1,0.9-27,13.7-27,13.7C106.5,127.6,106.5,131.2,109.1,132.5z"/>
		<path class="st0" d="M108.5,126.6c-2.1,0.8-2.3,9.4-1.5,10.6s17.7,9.3,17.7,9.3c1.3,0.6,2.8,1.2,6-0.1c3.2-1.2,26.8-13.1,28-14.4
			s0.9-7.6,0.9-7.6c0.1,1.2-27.7,14.4-27.7,14.4c-2.1,1.3-6.9,0.8-8.1,0.2c-1.2-0.6-15.1-7.5-15.1-7.5
			C106.6,130.5,106.5,128,108.5,126.6z"/>
		<text transform="matrix(0.8894 -0.4572 0.4572 0.8894 125.3015 133.8346)" class="st1 st2 st3">Seife</text>
	</g>
	<g>
		<polygon class="st4" points="26.4,187.8 94.5,155.6 93.6,211 26.4,246.3 		"/>
		<polygon class="st5" points="93.6,153.9 26.9,187.6 36.3,188.3 94.5,158.8 		"/>
		<polygon class="st6" points="36.2,245.2 88.1,270.5 158.5,237.2 94.6,213.7 		"/>
		<g>
			<g>
				<g>
					<path class="st7" d="M79.2,226.4c2.3,0.2,3.8-0.5,5.7-1.8c1.1-0.8,2.3-1.1,3.7-1.1c2,0.1,4,0.4,5.9,1c6.8,2,10.6,8.6,16.6,12
						c3.1,1.7,6.6,2.6,10,1.5c0.5-0.2,0.4-0.8-0.2-0.6c-4.7,1.5-9.4-1.1-12.9-4c-3.1-2.6-5.9-5.8-9.4-7.9c-1.8-1-3.6-1.7-5.6-2.1
						c-1.8-0.3-3.9-0.7-5.7-0.4c-1.2,0.2-2.1,0.7-3.1,1.4c-1.4,1-2.7,1.5-4.5,1.4C79.1,225.8,78.6,226.4,79.2,226.4L79.2,226.4z"/>
				</g>
			</g>
			<g>
				<g>
					<path class="st8" d="M80,229.9c7.9-1.7,15.8,1,23,4.1c7.2,3.1,14.2,6.6,21.3,9.9c0.3,0.1,1.1-0.3,0.7-0.4
						c-7.7-3.6-15.2-7.3-23-10.6c-7-2.9-14.5-5.1-22.1-3.4C79.3,229.6,79.4,230,80,229.9L80,229.9z"/>
				</g>
			</g>
			<g>
				<g>
					<path class="st8" d="M70.8,234.6c1.6-1.6,3.6-2.5,5.7-3.1c1.9-0.4,3.8-0.4,5.7-0.8c0.9-0.2,1.6-0.7,2.1-1.4
						c0.2-0.4,0.4-0.8,0.5-1.2c0.2-0.6,0.3-1,1-0.6c3.2,1.5,4.7,5.5,7.1,7.9c2.5,2.5,6,3.3,9.4,2.7c1.9-0.3,3.5-1.1,5.2-1.9
						c1.7-0.9,3.4-1.3,5.2-0.4c1.1,0.5,2.1,1.3,3,2c0.2,0.1,0.9-0.2,0.8-0.3c-1.6-1.3-3.3-2.6-5.4-2.6c-1.7,0-3.3,0.8-4.8,1.6
						c-4.5,2.3-9.8,1.9-13.2-2c-1.4-1.6-2.4-3.3-3.7-4.9c-0.8-1-2.2-2.5-3.6-2.6c-0.7,0-1.2,0.3-1.6,0.8c-0.8,1.3-0.8,2.6-2.6,2.8
						c-4.1,0.5-8.5,1-11.6,4.2C69.8,234.9,70.6,234.8,70.8,234.6L70.8,234.6z"/>
				</g>
			</g>
			<g>
				<g>
					<path class="st8" d="M83.9,220c-0.1,2.4-0.2,4.9-0.2,7.3c0,2-0.2,4.2,0.2,6.2c0.3,1.5,1.5,2,3,2.1c2.1,0.2,4.3,0.1,6.4-0.2
						c2.1-0.2,4.2-0.6,6.3-1.1c1.1-0.3,2.1-0.6,3.1-0.9c0.4-0.1,0.9-0.3,1.3-0.3c1.3,0,1.5,0.9,1.9,1.9c0.8,1.9,1.5,3.9,2.5,5.7
						c0.6,1.1,1.4,2.1,2.8,1.8c0.5-0.1,0.4-0.7-0.2-0.6c-1.7,0.4-2.8-3.8-3.3-4.9c-0.5-1.2-1-3.4-2.2-4.2c-1-0.6-2.3-0.2-3.4,0.2
						c-1.9,0.6-3.9,1.1-5.9,1.4c-2,0.4-4.1,0.6-6.1,0.6c-1.1,0-2.2,0.1-3.3-0.1c-1.4-0.2-2-0.9-2.1-2.3c-0.3-4.2-0.1-8.5,0.1-12.7
						C84.8,219.5,83.9,219.6,83.9,220L83.9,220z"/>
				</g>
			</g>
			<g>
				<g>
					<path class="st8" d="M65.6,230.5c3.1-4.3,8.6-0.5,11.7,1.7c2.2,1.6,4.5,2.9,7.2,3.4c1.3,0.2,2.7,0.4,4,0.7c1.4,0.3,3,1,4.5,0.7
						c1.2-0.3,1.9-1.1,2.5-2.2c1-2,2.4-3.5,4.7-3.8c4.8-0.7,8.5,3.1,11.1,6.6c0.2,0.2,0.9-0.2,0.9-0.2c-2.4-3.1-5.4-6.3-9.5-6.7
						c-3.1-0.3-6.3,0.9-7.8,3.7c-0.2,0.4-0.4,0.8-0.6,1.2c-0.6,0.9-1.5,1.2-2.6,1c-1.1-0.1-2.1-0.6-3.2-0.8
						c-1.4-0.3-2.8-0.4-4.2-0.7c-3.8-0.9-6.5-3.8-9.9-5.6c-3.1-1.6-7.5-2-9.8,1.2C64.7,230.7,65.5,230.7,65.6,230.5L65.6,230.5z"/>
				</g>
			</g>
			<g>
				<g>
					<path class="st8" d="M88.2,219.7c-0.7,3.8,1.3,8.6-1.4,11.9c-1.3,1.7-3.5,1.3-5.1,2.6c-1.1,0.8-1.4,2-0.6,3.1
						c1.1,1.4,3,2.4,4.5,3.3c1.7,1,3.4,1.9,5.2,2.8c3.7,1.9,7.4,3.7,10.6,6.3c0.2,0.2,1-0.2,0.8-0.3c-2.9-2.4-6.2-4.1-9.6-5.8
						s-7.4-3.4-10.1-6.1c-0.8-0.8-1.3-1.9-0.5-2.8c0.8-0.9,2.1-1,3.2-1.4c1.3-0.4,2.3-1.2,2.9-2.3c2.1-3.5,0.4-7.7,1-11.4
						C89.1,219.3,88.2,219.4,88.2,219.7L88.2,219.7z"/>
				</g>
			</g>
			<g>
				<g>
					<path class="st8" d="M81.4,231.4c1.5,0.4,3,0.7,4.5,0.6c1.2-0.1,2.4-0.4,3.6-0.4c2,0,3.8,0.8,5.7,1.3c2.3,0.7,4.5,1.5,6.8,2.3
						c8.4,3.1,15.6,8,22.8,13.3c0.2,0.1,0.9-0.2,0.8-0.3c-7.3-5.4-14.7-10.3-23.2-13.4c-2-0.7-4-1.4-6-2c-1.8-0.6-3.7-1.3-5.7-1.5
						c-1.2-0.1-2.3,0.1-3.4,0.2c-1.8,0.2-3.4,0-5.2-0.5C81.9,231,81.2,231.4,81.4,231.4L81.4,231.4z"/>
				</g>
			</g>
			<g>
				<g>
					<path class="st8" d="M93.4,241.7c6.6,0.9,13.2-1,19.8,0.2c3.4,0.6,5.9,2.2,8.6,4.3c2.4,1.8,4.9,3.1,8,3.4c0.2,0,1-0.4,0.5-0.4
						c-3.6-0.3-6.2-2.1-8.9-4.2c-2.3-1.8-4.8-2.9-7.6-3.4c-6.6-1.2-13.2,0.7-19.8-0.2C93.7,241.2,92.9,241.6,93.4,241.7L93.4,241.7z
						"/>
				</g>
			</g>
			<g>
				<g>
					<path class="st8" d="M58.6,231.8c4.1,0.4,8.2-0.3,12.3,0c4.3,0.3,7.7,2.1,11.1,4.7c0.9,0.7,2,1.4,2.6,2.4
						c0.4,0.6,0.5,1.4,0.7,2.1c0.4,1.3,0.9,2.7,1.6,3.8c0.8,1.2,2,1.6,3.4,1.5c4.5-0.1,9-1.4,13.2-2.9c0.6-0.2,0.1-0.7-0.4-0.5
						c-3.9,1.5-8.1,2.6-12.3,2.8c-1.2,0.1-2.3-0.2-3-1.3c-0.5-0.7-0.8-1.6-1.1-2.4c-0.3-0.9-0.5-1.7-0.8-2.6c-0.6-1.8-2.6-3-4-4
						c-2.9-2.2-6-3.7-9.7-4.1c-4.4-0.4-8.8,0.4-13.2,0C58.5,231.1,58,231.7,58.6,231.8L58.6,231.8z"/>
				</g>
			</g>
			<g>
				<g>
					<path class="st8" d="M76.6,228.9c0.7,0,1.6-0.2,2-0.9c0.1-0.2,0.2-0.6,0.1-0.8v-0.1c0-0.2-0.1-0.1-0.3,0.2
						c0.1,0.1,0.5,0.3,0.7,0.4c3.5,2.3,6.9,4.8,10.1,7.5c1.5,1.3,3.1,2.5,4.6,3.9c1.3,1.1,2.5,2.6,4,3.5c1.3,0.8,2.8,0.3,4.2-0.1
						c2.1-0.5,4.2-1,6.3-1.5c0.5-0.1,0.4-0.6-0.1-0.5c-1.9,0.5-3.9,0.9-5.8,1.4c-1.4,0.3-2.9,1-4.2-0.1c-0.7-0.5-1.3-1.2-1.9-1.8
						c-2.8-2.5-5.6-4.9-8.6-7.2c-1.4-1.1-2.8-2.2-4.3-3.2c-1.3-0.9-2.7-2.2-4.1-2.8c-0.3-0.1-0.9-0.3-1.2,0.1
						c-0.6,0.7,0.4,1.4-1.2,1.4C76.2,228.4,76,228.9,76.6,228.9L76.6,228.9z"/>
				</g>
			</g>
			<g>
				<g>
					<path class="st8" d="M74.6,239.8c3.8-0.4,7.4-1.4,11-2.3c3.5-0.9,7.1-1.3,10.6,0c7.5,2.7,12.9,11.4,21.8,9.6
						c0.5-0.1,0.4-0.5-0.1-0.4c-4.9,1-9.3-2-13-4.7c-3.1-2.3-6.2-4.7-10.1-5.5c-2.9-0.6-5.9-0.2-8.8,0.5c-3.8,0.9-7.4,2-11.3,2.3
						C74.3,239.4,74,239.9,74.6,239.8L74.6,239.8z"/>
				</g>
			</g>
			<g>
				<g>
					<path class="st8" d="M90.2,247c7.3-1,13.9,3.5,21.1,3.8c7.3,0.4,13.3-4.6,20.4-5.2c0.5,0,0.7-0.7,0.1-0.6
						c-7.3,0.6-13.5,5.8-20.9,5.1c-7-0.6-13.3-4.7-20.5-3.8C89.8,246.4,89.7,247,90.2,247L90.2,247z"/>
				</g>
			</g>
			<g>
				<g>
					<path class="st8" d="M82.8,224.8c2.9,4.2,5,9.3,9.4,12.2c2.9,1.9,6.2,3,9.5,3.9c3.7,1.1,7.3,2.4,10.5,4.6
						c3.4,2.3,6.2,5.4,8.4,8.9c0.2,0.3,1-0.1,0.9-0.2c-3.7-6-9.4-10.5-16.1-12.7c-6.1-2-12.7-3.4-16.7-8.9c-1.9-2.6-3.3-5.4-5.1-8.1
						C83.5,224.3,82.6,224.6,82.8,224.8L82.8,224.8z"/>
				</g>
			</g>
			<g>
				<g>
					<path class="st9" d="M59.7,232.3c5.4,5.1,12.9,6.4,19.6,9c6.8,2.7,12.6,7.1,18.9,10.6c3.6,2,7.4,3.5,11.5,4.5
						c0.2,0.1,1-0.3,0.7-0.3c-3.7-0.9-7.2-2.2-10.6-4c-2.9-1.5-5.6-3.4-8.4-5.1c-3.1-1.9-6.3-3.7-9.6-5.2c-3.4-1.5-6.9-2.5-10.3-3.7
						c-4-1.4-7.9-3.1-11-6C60.4,231.8,59.6,232.1,59.7,232.3L59.7,232.3z"/>
				</g>
			</g>
			<g>
				<g>
					<path class="st8" d="M67.2,233.6c3.6-0.4,7.7-0.8,11,1c0.4,0.2,0.8,0.5,1.2,0.8c0.1,0.1,0.3,0.3,0.4,0.4c0.1,0,0.5-0.3,0.5-0.3
						s-0.1,0-0.2-0.1c-0.1-0.1-0.3-0.1-0.4-0.2c-0.5-0.2-1-0.5-1.4-0.1c0,0-0.1,0.1-0.1,0.2c0.1,0.2,0.5,0.4,0.7,0.5
						c0.7,0.4,1.4,0.8,2.2,1.1c1.5,0.7,3.1,1.4,3.6,3.1c0.1,0.3,1,0.1,0.9-0.2c-0.5-1.4-1.7-2.2-3-2.9c-0.7-0.3-1.4-0.6-2.1-1
						c-0.4-0.2-0.7-0.4-1.1-0.6c-0.1,0-0.2-0.1-0.3-0.2c-0.2-0.1,0.2-0.1-0.2,0.1c-0.2,0.1-0.3,0.1-0.5,0.2c0.3,0,1,0.5,1.5,0.5
						c1.5,0-0.3-1.3-0.7-1.5c-3.5-2.2-8.1-1.8-12-1.4C66.8,233.1,66.6,233.6,67.2,233.6L67.2,233.6z"/>
				</g>
			</g>
			<g>
				<g>
					<path class="st8" d="M68.2,235.4c3.2,1.7,5.2,4.8,7.6,7.4c1.5,1.6,3,3,5.1,3.4c3.2,0.6,6,2.2,9.1,3.1c3.2,0.9,6.7,1,9.6-0.8
						c0.5-0.3-0.2-0.6-0.6-0.4c-3.5,2.1-7.7,1-11.3-0.4c-1.5-0.6-2.9-1.3-4.4-1.7c-0.8-0.2-1.6-0.3-2.5-0.5c-2.3-0.5-4-2.7-5.4-4.4
						c-2-2.3-3.8-4.7-6.6-6.2C68.6,234.7,67.8,235.2,68.2,235.4L68.2,235.4z"/>
				</g>
			</g>
			<g>
				<g>
					<path class="st8" d="M82,220.7c0.2,1.7,2.3,2.5,3.7,2.9c2.3,0.8,4.6,1.2,6.9,2.1c0.8,0.3,1.8,0.7,2.3,1.5
						c0.2,0.3,0.3,0.6,0.3,1c0,1.1-0.2,2.1-0.2,3.2c0,1.8,0.5,3.5,1.9,4.7c1.6,1.4,3.7,2.2,5.6,3.2c4.9,2.4,9.8,4.7,14.8,6.9
						c0.3,0.1,1-0.3,0.5-0.5c-4.4-1.9-8.8-3.9-13.1-6c-2-1-4.2-1.9-6.1-3.2c-2-1.3-2.7-3.3-2.6-5.7c0-1.1,0.6-2.5,0.1-3.5
						c-0.3-0.6-0.9-1-1.5-1.4c-1.9-1-4.2-1.5-6.2-2.1c-1.6-0.5-5-1.1-5.2-3.2C82.9,220.1,82,220.3,82,220.7L82,220.7z"/>
				</g>
			</g>
			<g>
				<g>
					<path class="st7" d="M65,236.1c2.7,0,5.5,0,8.2,0c1.5,0,3-0.1,4.4,0.1c1.3,0.2,2.4,0.9,3.5,1.5c0.6,0.3,1.9,0.8,2-0.3
						c0.1-0.5-0.8-2.5,0.1-2.5c0.4,0,0.9-0.5,0.3-0.5c-1,0-1.7,0.5-1.6,1.5c0,0.5,0.2,0.9,0.3,1.4v0.3c0.1,0.1,0.2,0.1,0.2-0.1
						c0-0.1-1.3-0.7-1.5-0.7c-1-0.6-2-1-3.2-1.2c-1.3-0.2-2.6-0.1-3.9-0.1c-2.9,0-5.7,0-8.6,0C65,235.6,64.4,236.1,65,236.1
						L65,236.1z"/>
				</g>
			</g>
			<g>
				<g>
					<path class="st8" d="M89.6,244.3c4.9,1.8,9.4,4.4,13.4,7.8c0.2,0.2,1-0.2,0.8-0.3c-4-3.4-8.6-6.1-13.5-7.9
						C90.1,243.9,89.3,244.2,89.6,244.3L89.6,244.3z"/>
				</g>
			</g>
			<g>
				<g>
					<path class="st7" d="M89.3,237.7c4.3,2.3,8.8,4.3,13.5,6c3.8,1.3,9.1,2,11.3,5.8c0.2,0.3,1,0,0.8-0.4
						c-2.1-3.6-6.7-4.3-10.3-5.5c-5.1-1.7-9.9-3.8-14.6-6.3C89.6,237.1,88.9,237.5,89.3,237.7L89.3,237.7z"/>
				</g>
			</g>
			<g>
				<g>
					<path class="st8" d="M97.7,256.3c-2.5-3.2-4.9-6.6-7.8-9.5c-2.8-2.9-6.1-5.4-9.5-7.7c-0.2-0.2-1,0.2-0.8,0.3
						c3.4,2.3,6.6,4.8,9.5,7.7c2.8,2.9,5.3,6.3,7.8,9.5C97,256.8,97.8,256.5,97.7,256.3L97.7,256.3z"/>
				</g>
			</g>
			<g>
				<g>
					<path class="st8" d="M68.6,240.3c5.3,0.7,10.7,0.6,16,1.1c5.5,0.5,10.5,2.3,15.1,5.4c0.2,0.2,1-0.2,0.7-0.4
						c-4.4-3-9.2-4.8-14.4-5.4c-5.6-0.6-11.2-0.5-16.8-1.2C68.9,239.8,68.1,240.2,68.6,240.3L68.6,240.3z"/>
				</g>
			</g>
			<g>
				<g>
					<path class="st8" d="M68.5,225.5c4.6,0.9,9.4,0.4,13.8,1.8c2.6,0.8,5.4,2,7.4,3.9c1.1,1,1.4,2.2,1.9,3.5
						c0.3,0.8,0.7,1.4,1.6,1.4c0.2,0,1-0.4,0.6-0.4c-1.4-0.1-1.5-2.2-2-3.1c-0.5-1-1.3-1.8-2.2-2.4c-2-1.5-4.6-2.7-7-3.4
						c-4.4-1.3-9.1-0.9-13.5-1.7C69,225.1,68.3,225.4,68.5,225.5L68.5,225.5z"/>
				</g>
			</g>
			<g>
				<g>
					<path class="st8" d="M94.5,247.2c4.5,0,9,0,13.5,0c2.1,0,4.3-0.1,6.4,0c1.7,0.1,3.5,0.3,4.4,2c0.2,0.3,1,0,0.8-0.4
						c-0.7-1.3-2.1-1.9-3.6-2.1c-2.1-0.3-4.2-0.1-6.3-0.1c-5,0-9.9,0-14.9,0C94.4,246.6,93.9,247.2,94.5,247.2L94.5,247.2z"/>
				</g>
			</g>
			<g>
				<g>
					<path class="st8" d="M65.9,238.3c6.2-1.2,12.8,2.1,17.9,5.4c2.8,1.8,5.5,3.9,8,6.1c1.2,1.1,2.4,2.2,3.5,3.4
						c1,1.1,1.9,2.3,3,3.3c1.5,1.4,3.5,1.4,5.4,1.5c2.6,0.2,5.3,0.5,7.9,0.7c0.4,0,0.9-0.6,0.3-0.6c-2.4-0.2-4.8-0.4-7.2-0.6
						c-2.4-0.2-4.7-0.1-6.4-2.1c-2-2.3-4-4.4-6.3-6.4c-5-4.4-10.8-8.4-17.2-10.5c-3-0.9-6.1-1.4-9.1-0.8
						C65.2,237.8,65.4,238.4,65.9,238.3L65.9,238.3z"/>
				</g>
			</g>
			<g>
				<g>
					<path class="st7" d="M71.6,241.4c2.4-0.2,4.7-0.6,6.9-1.3c2-0.6,4-1.2,6.1-1.5c2.5-0.3,5.4-0.1,7.7,0.9
						c1.7,0.7,2.8,3.1,4.9,2.6c0.5-0.1,0.4-0.7-0.1-0.5c-1.1,0.2-2.1-1.2-2.9-1.9c-0.9-0.7-2-1-3.2-1.3c-2.1-0.5-4.3-0.7-6.5-0.4
						c-1.9,0.2-3.7,0.8-5.5,1.3c-2.4,0.7-4.8,1.2-7.3,1.4C71.2,240.9,71,241.5,71.6,241.4L71.6,241.4z"/>
				</g>
			</g>
			<g>
				<g>
					<path class="st8" d="M104.7,240.9c4,0.5,7.6,3.3,9,7.1c0.1,0.3,1,0.1,0.9-0.2c-1.5-3.9-5.2-6.8-9.4-7.3c-0.2,0-0.5,0-0.6,0.2
						C104.5,240.7,104.5,240.9,104.7,240.9L104.7,240.9z"/>
				</g>
			</g>
			<g>
				<g>
					<path class="st8" d="M99.5,256.6c7.5-0.4,15-0.2,22.5,0.6c0.2,0,1-0.4,0.5-0.4c-7.5-0.8-15.1-1.1-22.7-0.6
						C99.6,256.2,98.9,256.6,99.5,256.6L99.5,256.6z"/>
				</g>
			</g>
			<g>
				<g>
					<path class="st7" d="M82.8,246.7c6.7-0.2,13.7-0.4,20.2,1.8c5.6,1.9,10.4,6,16.5,6.7c0.4,0,0.9-0.5,0.3-0.5
						c-6.4-0.7-11.5-5.2-17.5-7c-6.3-1.8-12.9-1.6-19.3-1.4C82.5,246.2,82.2,246.7,82.8,246.7L82.8,246.7z"/>
				</g>
			</g>
		</g>
		<polygon class="st10" points="31.5,190.6 96.8,157.9 94.6,215.2 31.1,248.1 		"/>
		<polygon class="st11" points="93.2,159.3 92.1,215.5 153.3,239.6 153.8,187.2 		"/>
		<polygon class="st12" points="156,191.8 88.1,156.8 93.3,154.4 162.2,188.9 		"/>
		<g>
			<g>
				<g>
					<path class="st7" d="M94.7,159.4c1,4.7,2.1,9.4,3.1,14.1c1,4.5,2.4,9.1,1.7,13.7c-0.6,4.3-2.7,8.3-4.5,12.3
						c-0.8,1.7-1.4,3.5-2.6,5c-0.9,1.1-1.9,2.2-2.8,3.3c-1.8,2.2-2.8,4.4-0.9,6.9c0.2,0.3,1,0,0.8-0.4c-2-2.7-0.4-4.9,1.5-7.1
						c0.9-1,1.9-2.1,2.6-3.2c1-1.5,1.7-3.3,2.4-5c1.6-3.6,3.4-7.2,4.1-11.2c0.8-4.3-0.3-8.6-1.2-12.8c-1.2-5.3-2.3-10.5-3.5-15.8
						C95.5,158.8,94.7,159,94.7,159.4L94.7,159.4z"/>
				</g>
			</g>
			<g>
				<g>
					<path class="st8" d="M88,169.4c4,6.6,4.8,14.4,4.5,21.9c-0.1,3.9-0.5,7.9-1,11.8c-0.5,3.2-2.1,5.9-3.9,8.6
						c-2,2.9-3.7,5.7-4.2,9.3c0,0.1,0.8,0,0.8-0.2c0.8-6.5,6.6-10.6,7.9-16.9c0.7-3.6,0.9-7.4,1.1-11.1c0.2-3.9,0.2-7.8-0.4-11.6
						c-0.6-4.2-1.9-8.3-4.1-12C88.7,169,87.9,169.3,88,169.4L88,169.4z"/>
				</g>
			</g>
			<g>
				<g>
					<path class="st8" d="M81.7,152.5c4.7,2.2,7,7.2,9,11.7c1.2,2.6,2.3,5.4,2.5,8.3c0.2,2.9-0.7,5.4-2.3,7.8
						c-2.6,4-5.9,7.5-5.4,12.7c0.2,2.3,1.2,4.6,2.5,6.5c1.4,2.1,3.6,3.5,4.9,5.6c0.5,0.8,1.2,2-0.1,2.2c-0.9,0.2-1.8,0.1-2.6,0.2
						c-1.1,0.1-2.6,0.3-3.1,1.4c-0.1,0.2,0.7,0.1,0.8-0.1c0.9-1.9,6.5,0.1,6.6-2.3c0-0.8-0.8-1.8-1.2-2.4c-0.8-1-1.8-1.9-2.7-2.8
						c-1.9-2-3.3-4.4-3.9-7c-0.6-2.6-0.3-5.2,0.8-7.6c1.1-2.3,2.8-4.3,4.2-6.4c1.3-2,2.3-4.2,2.4-6.7c0.1-3.1-1-6-2.2-8.8
						c-2.1-4.7-4.4-10.2-9.5-12.6C82.2,152.1,81.5,152.4,81.7,152.5L81.7,152.5z"/>
				</g>
			</g>
			<g>
				<g>
					<path class="st8" d="M101.1,170.4c-3.9,1.1-7.8,2.3-11.6,3.7c-1.4,0.5-3.5,0.9-4.7,2c-1.1,1.1-0.6,2.7-0.3,4
						c1,3.6,2.6,7.1,4.4,10.4c1,1.7,2,3.4,3.2,5.1c0.5,0.8,1.2,1.6,1.5,2.5c0.5,1.4-0.6,2.3-1.5,3.1c-1.7,1.6-3.5,3.1-5.2,4.7
						c-1,0.9-2,2.3-1.2,3.7c0.1,0.2,1,0,0.8-0.3c-1.3-2.1,2.8-4.7,4.1-5.8c0.8-0.7,1.6-1.5,2.5-2.2c0.6-0.5,1.3-1.1,1.6-1.9
						c0.5-1.8-1.4-3.7-2.3-5c-1.3-2-2.6-4.1-3.7-6.2c-1-2-1.9-4.1-2.7-6.3c-0.3-1-0.6-1.9-0.8-2.9c-0.4-1.7,0.1-2.8,1.8-3.4
						c4.7-1.8,9.5-3.3,14.3-4.7C101.7,170.7,101.6,170.3,101.1,170.4L101.1,170.4z"/>
				</g>
			</g>
			<g>
				<g>
					<path class="st8" d="M84.5,145.1c5.1,1.6,5,7.9,3.8,12c-1.4,5.2-3,10.3-3.6,15.8c-0.3,2.5-0.5,5-0.5,7.5c0,1.3,0,2.7,0.1,4
						c0,1,0.1,2,0.7,2.9c1.2,1.6,3.5,1.3,5.2,1.8c2,0.7,3.5,2.3,4.3,4.1c2.5,5.2-0.3,10.8-3.2,15.2c-0.2,0.3,0.6,0.2,0.8,0
						c2.6-3.8,5.1-8.4,4.1-13.2c-0.4-1.9-1.3-3.7-2.7-5c-1.4-1.3-3.1-1.7-5-2c-1.3-0.2-2.5-0.6-3-2c-0.4-1.1-0.3-2.5-0.3-3.7
						c-0.1-3,0.1-5.9,0.4-8.8c0.6-5.7,2.1-11,3.6-16.5c1.2-4.4,1.4-10.9-3.9-12.5C84.9,144.6,84.1,145,84.5,145.1L84.5,145.1z"/>
				</g>
			</g>
			<g>
				<g>
					<path class="st8" d="M103.2,175.2c-3.7,0.5-6.9,2.9-10.6,3.3c-1.9,0.2-4-0.2-5.4-1.7c-1.1-1.2-1.7-3-3.2-3.8
						c-2.8-1.5-4.3,1.4-5,3.6c-1.2,3.8-1.8,7.8-2.4,11.8c-0.7,4.5-1.4,9-3,13.2c-0.1,0.3,0.7,0.2,0.8-0.1c1.7-4.5,2.4-9.2,3.1-13.9
						c0.4-2.4,0.7-4.7,1.2-7c0.5-2.1,0.9-4.7,2.1-6.5c2.1-3.3,4.5,1.9,5.7,3.1c1.1,1.2,2.7,1.6,4.3,1.7c4.4,0.2,7.9-2.7,12.1-3.3
						C103.4,175.6,103.7,175.1,103.2,175.2L103.2,175.2z"/>
				</g>
			</g>
			<g>
				<g>
					<path class="st8" d="M89.8,164c0.1,8.6,0.4,17.2,0.4,25.8c0.1,8.3-0.5,16.4-2.5,24.5c-1.1,4.5-2.5,9-4,13.4
						c-0.1,0.3,0.7,0.2,0.8-0.1c2.5-7.8,5-15.7,5.9-23.9c1-8.3,0.5-16.8,0.4-25.1c-0.1-4.9-0.2-9.8-0.3-14.7
						C90.7,163.6,89.8,163.7,89.8,164L89.8,164z"/>
				</g>
			</g>
			<g>
				<g>
					<path class="st8" d="M79.8,189.5c1.6,9.1,7.9,17.1,7.5,26.6c-0.1,2.4-0.8,4.6-1.6,6.9c-0.4,1.1-0.8,2.2-1,3.4
						c-0.2,0.8-0.4,1.2-1.3,1.3c-1,0.1-4.5-0.3-4.2,1.6c0,0.2,0.9,0,0.8-0.2c-0.2-1.3,2.2-0.9,3-1c0.7-0.1,1.7-0.2,2.2-0.9
						c0.4-0.5,0.4-1.2,0.6-1.8c0.3-1.1,0.7-2.2,1.1-3.3c0.7-2,1.2-4,1.3-6.1c0.4-9.5-5.8-17.5-7.5-26.6
						C80.6,189,79.8,189.2,79.8,189.5L79.8,189.5z"/>
				</g>
			</g>
			<g>
				<g>
					<path class="st8" d="M74.2,140.3c0.8,3.5,3.8,6,6.3,8.4c2.5,2.4,5.7,5.1,5.9,8.8c0.2,2.8-0.7,5.6-1.6,8.2c-0.9,2.5-1.8,5-3,7.4
						c-1.2,2.4-2.6,4.7-4.3,6.7c-0.8,1-1.8,1.8-2.7,2.7c-0.7,0.7-1.4,1.4-1.5,2.5c-0.2,1.5,0.6,3,1.2,4.3c0.6,1.3,1.3,2.6,2,3.9
						c1.5,2.7,3.3,5.2,5.3,7.6c0.1,0.2,0.9-0.1,0.8-0.3c-1.9-2.3-3.5-4.7-5-7.2c-1.3-2.2-2.8-4.7-3.4-7.3c-0.6-2.9,2.5-4.5,4.1-6.4
						c1.6-1.9,3-4,4.1-6.3c1.2-2.4,2.2-4.9,3.1-7.4c0.9-2.4,1.6-4.9,1.8-7.5c0.3-3.8-2-6.5-4.6-9c-2.9-2.8-6.6-5.5-7.6-9.6
						C75,139.9,74.2,140.1,74.2,140.3L74.2,140.3z"/>
				</g>
			</g>
			<g>
				<g>
					<path class="st8" d="M90.9,157.3c1.4,4.3-0.1,8.8-1.3,12.9c-1.2,4.2-2.6,8.4-4.2,12.5c-0.8,2.2-1.7,4.4-2.6,6.5
						c-0.4,1-0.9,2-1.3,3c-0.4,0.8-0.9,1.7-1,2.6c-0.3,1.8,1.2,3.5,2.1,5c1.2,1.9,2.4,3.8,3.6,5.8c0.2,0.3,1,0,0.8-0.3
						c-1.2-1.9-2.4-3.8-3.6-5.8c-0.6-1-1.4-2-1.9-3.1c-0.5-1.3,0.1-2.5,0.6-3.7c1.7-3.8,3.3-7.6,4.7-11.4c1.5-4,2.8-8,4-12.1
						c1.1-3.9,2.3-8.1,1-12.1C91.6,156.7,90.8,157,90.9,157.3L90.9,157.3z"/>
				</g>
			</g>
			<g>
				<g>
					<path class="st8" d="M77.7,159.2c3.3,7.7,6.6,15.5,7.8,23.8c0.6,4.1,0.5,8.3-0.4,12.4c-0.9,4-2.6,7.8-3.5,11.8
						s-0.9,8.2,1.2,11.8c0.1,0.2,0.9,0,0.8-0.2c-4.3-7.3,0.3-15.5,2.1-22.9c1.9-7.9,0.5-16.1-2-23.7c-1.5-4.5-3.3-8.9-5.2-13.3
						C78.4,158.8,77.6,159,77.7,159.2L77.7,159.2z"/>
				</g>
			</g>
			<g>
				<g>
					<path class="st8" d="M72.7,187.6c3.6,7.3,1.8,15.6,3.2,23.3c1.3,6.9,5.9,12.4,8.5,18.8c0.1,0.3,0.9,0,0.8-0.2
						c-2.6-6.4-7.2-11.9-8.5-18.8c-1.4-7.7,0.4-16-3.2-23.3C73.3,187.1,72.5,187.3,72.7,187.6L72.7,187.6z"/>
				</g>
			</g>
			<g>
				<g>
					<path class="st8" d="M97.9,163.1c-5,6.7-10.2,13.7-12.7,21.8c-1.4,4.5-1.5,9-1.4,13.7c0.1,4.5,0.1,8.9-1.1,13.2
						c-1.3,4.9-3.7,9.5-7,13.4c-0.3,0.4,0.5,0.4,0.7,0.2c5.6-6.6,8.4-14.9,8.4-23.5c0-4.8-0.5-9.5,0.6-14.2c0.9-4.3,2.8-8.4,5-12.2
						c2.5-4.3,5.5-8.3,8.4-12.2C98.9,162.8,98.1,162.8,97.9,163.1L97.9,163.1z"/>
				</g>
			</g>
			<g>
				<g>
					<path class="st9" d="M74,142c-3.7,8.1,3.9,15.5,3.8,23.5c0,5.2-1.4,10.6-2.7,15.6c-1.4,5.1-2.9,10.2-4.1,15.3
						c-1.3,5.7-2.1,11.5-1.7,17.3c0,0.4,0.9,0.2,0.8-0.2c-0.8-10.6,2.6-20.7,5.3-30.8c1.4-5,2.6-10.1,3.1-15.3
						c0.4-4.3-0.8-8.1-2.4-12.1c-1.7-4.3-3.4-8.8-1.3-13.3C75,141.6,74.2,141.6,74,142L74,142z"/>
				</g>
			</g>
			<g>
				<g>
					<path class="st7" d="M94.1,164.3c4.3,8.8,4.3,19.5-0.3,28.2c-2.3,4.4-5.7,8.1-8.7,12.1c-3,3.9-5.3,8.2-6.8,12.9
						c-1.6,5.2-2,10.7-1.3,16c0,0.3,0.9,0.1,0.8-0.2c-1.3-10.3,1.7-20.3,7.9-28.5c3-4,6.4-7.7,8.8-12.1c2.2-4.1,3.5-8.7,3.6-13.4
						c0.2-5.2-0.9-10.5-3.2-15.2C94.8,163.8,94,164.1,94.1,164.3L94.1,164.3z"/>
				</g>
			</g>
			<g>
				<g>
					<path class="st8" d="M82,148.4c1.2,2.7,2.5,5.5,3,8.5c0.6,3.1,0,6-1.5,8.8c-1.2,2.2-2.4,4.2-2.7,6.8c-0.3,2.3-0.2,5-2.3,6.6
						c-0.2,0.1,0.6,0,0.8-0.1c1.8-1.3,2-3.5,2.3-5.5c0.2-1.4,0.3-2.8,0.8-4.1c0.5-1.3,1.3-2.6,2-3.8c1.4-2.6,2-5.3,1.6-8.2
						c-0.4-3.2-1.8-6.2-3.1-9.1C82.7,148,81.9,148.3,82,148.4L82,148.4z"/>
				</g>
			</g>
			<g>
				<g>
					<path class="st8" d="M80.4,150.6c-0.7,4.2-3.3,7.6-5.4,11.2c-2.1,3.7-3.2,7.8-3.8,12c-0.7,4.5-1.2,9.2-1.2,13.7
						c0,4.1,1,8.3,4.3,11c0.2,0.1,0.9-0.2,0.8-0.3c-3.5-2.9-4.3-7.6-4.2-11.9c0.1-4.5,0.6-9.1,1.3-13.6c0.7-4.2,2-8.2,4.1-11.8
						c2-3.4,4.3-6.6,5-10.6C81.3,150.3,80.5,150.3,80.4,150.6L80.4,150.6z"/>
				</g>
			</g>
			<g>
				<g>
					<path class="st8" d="M102.5,160.6c-2,0.9-2.4,4.1-2.7,6c-0.6,3.7-0.8,7.4-1.1,11.1c-0.2,1.7-0.4,3.4-0.8,5
						c-0.2,1.1-0.5,2.4-1.3,3.2c-0.5,0.6-1.3,0.6-2.1,0.7c-1.2,0.3-2.5,0.6-3.6,1.2c-2.5,1.2-3.7,3.3-4.2,6
						c-1.5,8-2.2,16.2-2.9,24.2c0,0.3,0.8,0.1,0.8-0.1c0.6-7,1.4-14.1,2.4-21.1c0.5-3.2,0.7-6.9,4-8.6c1.2-0.7,2.6-1,4-1.3
						c0.6-0.1,1.3-0.2,1.8-0.6c1.8-1.2,2.1-4.4,2.3-6.4c0.5-3.6,0.7-7.2,1.1-10.8c0.2-1.8,0.4-3.5,0.8-5.2c0.2-1,0.6-2.7,1.7-3.1
						C103.3,160.7,102.8,160.5,102.5,160.6L102.5,160.6z"/>
				</g>
			</g>
			<g>
				<g>
					<path class="st7" d="M78.3,147c0.8,2.4,1.6,4.7,2.4,7.1c0.8,2.3,1.8,4.7,2.3,7.1c0.4,2.3-0.4,4.5-0.5,6.8
						c-0.1,2.5,0.5,5,1.1,7.4c0.1,0.3,0.9,0,0.8-0.2c-0.6-2.3-1.1-4.7-1.1-7.2c0-2.4,0.9-4.6,0.5-7c-0.4-2.3-1.4-4.6-2.2-6.9
						c-0.8-2.4-1.6-4.9-2.4-7.3C79.1,146.5,78.3,146.8,78.3,147L78.3,147z"/>
				</g>
			</g>
			<g>
				<g>
					<path class="st8" d="M75.4,186.2c-0.2,6.3-1.5,12.4-3.9,18.2c-0.1,0.3,0.7,0.2,0.8-0.1c2.4-5.8,3.6-12,3.8-18.2
						C76.2,185.8,75.4,185.9,75.4,186.2L75.4,186.2z"/>
				</g>
			</g>
			<g>
				<g>
					<path class="st7" d="M82.8,183.3c-1,5.9-1.6,11.8-1.7,17.7c-0.1,4.7,1.2,11-2.3,14.8c-0.3,0.4,0.4,0.5,0.7,0.2
						c3.4-3.8,2.4-9.5,2.4-14.2c0-6.3,0.6-12.5,1.7-18.7C83.7,182.8,82.8,182.9,82.8,183.3L82.8,183.3z"/>
				</g>
			</g>
			<g>
				<g>
					<path class="st8" d="M65,199.1c7.1-10.5,12.5-22,16-34.1c0.1-0.3-0.7-0.2-0.8,0.1c-3.5,12.1-8.9,23.6-15.9,34
						C64,199.4,64.8,199.4,65,199.1L65,199.1z"/>
				</g>
			</g>
			<g>
				<g>
					<path class="st8" d="M75,152.8c2.9,15,5.8,30.8,1.4,45.8c-0.1,0.2,0.8,0.1,0.8-0.1c4.4-15.1,1.5-30.9-1.4-45.9
						C75.8,152.4,74.9,152.6,75,152.8L75,152.8z"/>
				</g>
			</g>
			<g>
				<g>
					<path class="st8" d="M91.7,147.2c1,8,1.2,16.1,0.5,24.1c-0.3,3.3-0.4,7.1-1.9,10.2c-0.7,1.5-1.9,2.3-3.1,3.4
						c-0.8,0.7-1.4,1.4-1.1,2.5c0.1,0.4,0.9,0.2,0.8-0.2c-0.4-1.6,1.7-2.5,2.6-3.3c1-0.9,1.6-2.2,2-3.4c1.1-3.2,1.3-6.8,1.6-10.1
						c0.6-7.8,0.4-15.6-0.6-23.3C92.5,146.6,91.7,146.8,91.7,147.2L91.7,147.2z"/>
				</g>
			</g>
			<g>
				<g>
					<path class="st8" d="M71.2,208.9c1.9,4.9,3.8,9.8,5.8,14.7c1,2.5,1.9,4.8,0.7,7.3c-0.8,1.7-2,3.1-2.4,5
						c-0.1,0.4,0.8,0.3,0.8-0.1c0.4-2.1,2-3.7,2.7-5.7c0.8-2.2,0-4.3-0.8-6.4c-2-5-4-10.1-5.9-15.1
						C71.9,208.3,71.1,208.5,71.2,208.9L71.2,208.9z"/>
				</g>
			</g>
			<g>
				<g>
					<path class="st8" d="M74,192.7c1.7,5.1,3.4,10.2,5.1,15.3c0.8,2.4,1.7,4.8,2.4,7.2c0.6,2,1.1,4.4-0.5,6.1
						c-0.2,0.2,0.6,0.1,0.8,0c1.3-1.4,1.3-3.3,0.9-5c-0.6-2.5-1.6-5-2.4-7.5c-1.8-5.4-3.6-10.8-5.4-16.2
						C74.7,192.2,73.9,192.5,74,192.7L74,192.7z"/>
				</g>
			</g>
			<g>
				<g>
					<path class="st8" d="M66.3,163.4c3.5,6,5,13,4.5,19.9c-0.2,3.5-1,7-2.2,10.2c-0.6,1.6-1.4,3.2-2.2,4.7c-0.9,1.4-1.9,2.8-2,4.5
						c-0.1,2.2,0.8,4.5,1.3,6.6c0.6,2.4,1.1,4.8,1.7,7.2c0,0.2,0.9-0.1,0.8-0.2c-1-4.1-2.2-8.2-2.9-12.3c-0.4-2.1,0.4-3.7,1.5-5.4
						c0.9-1.5,1.7-3,2.3-4.6c2.5-6.2,3.2-13.2,2-19.8c-0.7-3.9-2.1-7.6-4-11C67,163,66.2,163.3,66.3,163.4L66.3,163.4z"/>
				</g>
			</g>
			<g>
				<g>
					<path class="st7" d="M74.8,156.4c2.5,6.3,4.5,12.9,5.7,19.6c0.6,3.3,1.1,6.6,1.3,10c0.1,2-0.4,3.3-1.2,5
						c-0.4,1-0.6,1.8-0.1,2.8c0.1,0.2,1,0,0.8-0.3c-0.8-1.4,0.4-2.9,0.9-4.2s0.5-2.6,0.3-3.9c-0.3-3.3-0.7-6.7-1.4-10
						c-1.2-6.5-3.1-12.9-5.6-19.1C75.5,155.8,74.7,156.1,74.8,156.4L74.8,156.4z"/>
				</g>
			</g>
			<g>
				<g>
					<path class="st8" d="M85,202c1,4.8-0.8,9.9-4.6,13c-0.4,0.3,0.5,0.3,0.7,0.1c3.9-3.2,5.8-8.4,4.8-13.3
						C85.7,201.5,84.9,201.7,85,202L85,202z"/>
				</g>
			</g>
			<g>
				<g>
					<path class="st8" d="M65.2,202c3.3,8.4,6,17,7.8,25.9c0,0.2,0.9,0,0.8-0.2c-1.9-8.8-4.5-17.5-7.8-25.9
						C65.9,201.5,65.1,201.8,65.2,202L65.2,202z"/>
				</g>
			</g>
			<g>
				<g>
					<path class="st8" d="M66.2,207.7c3.1,4.8,5.7,9.8,7.9,15.1c1,2.5,2,5,2.8,7.6c0.4,1.4,0.9,2.7,1.2,4.1c0.2,0.8,0.4,1.7,1.3,1.9
						c0.3,0.1,1-0.4,0.5-0.5c-1-0.2-1.3-3-1.6-3.8c-0.4-1.3-0.8-2.6-1.3-3.9c-0.9-2.5-1.8-4.9-2.9-7.3c-2.1-4.7-4.5-9.2-7.3-13.6
						C66.7,207,65.9,207.3,66.2,207.7L66.2,207.7z"/>
				</g>
			</g>
			<g>
				<g>
					<path class="st8" d="M80.7,204.9c-5.1,0.6-8.9,4.2-11.4,8.5c-1.4,2.5-2.6,5.3-3.4,8.1c-0.8,2.7-1.1,5.5,0.2,8.1
						c0.1,0.2,0.9-0.1,0.8-0.2c-2.2-4.6,0.2-10.1,2.2-14.3c2.2-4.7,5.9-9.3,11.4-9.9C80.9,205.1,81.3,204.8,80.7,204.9L80.7,204.9z"
						/>
				</g>
			</g>
			<g>
				<g>
					<path class="st8" d="M79.5,213.6c-1.2,3.8-1.8,7.8-1.7,11.8c0.1,3.8,1.1,8-0.9,11.6c-0.2,0.4,0.6,0.3,0.8,0
						c1.8-3.3,1.1-7,1-10.5c-0.2-4.4,0.4-8.8,1.7-13C80.4,213.2,79.6,213.3,79.5,213.6L79.5,213.6z"/>
				</g>
			</g>
			<g>
				<g>
					<path class="st7" d="M70.1,179.1c2.7,7.1,5.4,14.5,5.7,22.2c0.3,7.6-3,15.2-1.3,22.7c0,0.2,0.9,0,0.8-0.2
						c-1.7-7.6,1.6-15.1,1.3-22.7c-0.3-7.7-3-15-5.7-22.2C70.8,178.7,70,179,70.1,179.1L70.1,179.1z"/>
				</g>
			</g>
		</g>
		<g>
			<g>
				<g>
					<path class="st7" d="M89.5,214.1c4.6,0.5,9.2,1,13.9,1.5c4.4,0.5,9.1,0.5,13.2,2.4c7.1,3.2,11.4,10.3,18.3,13.9
						c3.5,1.8,7.5,2.7,11.3,1.5c0.6-0.2,0.5-0.9-0.2-0.7c-8.1,2.7-15.1-4.5-20.5-9.4c-2.5-2.3-5.2-4.5-8.4-5.9
						c-3.7-1.6-7.9-1.8-11.8-2.2c-5.1-0.5-10.2-1.1-15.3-1.6C89.4,213.4,88.8,214,89.5,214.1L89.5,214.1z"/>
				</g>
			</g>
			<g>
				<g>
					<path class="st8" d="M97.1,223.6c9.3-2.1,18.6,1.1,27.1,4.7c8.7,3.8,17.3,8,25.9,12c0.4,0.2,1.3-0.3,0.8-0.6
						c-9.1-4.2-18.1-8.7-27.3-12.6c-8.4-3.6-17.5-6.3-26.7-4.2C96.3,223.1,96.5,223.8,97.1,223.6L97.1,223.6z"/>
				</g>
			</g>
			<g>
				<g>
					<path class="st8" d="M85,228.4c1.2-1.3,2-2.8,2.7-4.4c0.7-1.5,1.5-3.3,3.1-4.1c1.1-0.6,2.5-0.5,3.8-0.6
						c1.3-0.1,2.6-0.1,3.8-0.1c2.5,0.2,4.9,0.8,6.9,2.3c3.2,2.5,4.8,6.5,7.8,9.2c3.1,2.7,7.4,3.4,11.4,2.5c2.4-0.5,4.3-1.7,6.5-2.6
						c3.5-1.5,6.1,0.2,8.8,2.4c0.2,0.2,1.2-0.2,1-0.4c-1.8-1.4-3.7-3-6.1-3.1c-2.2-0.2-4.2,0.9-6.1,1.9c-4.9,2.5-10.9,2.6-15-1.5
						c-3.2-3.2-5-7.9-9.3-9.9c-2.1-1-4.4-1.3-6.6-1.3c-2.1,0-4.5,0-6.6,0.6c-4,1.3-4.6,6.3-7.1,9.2C83.8,228.7,84.8,228.6,85,228.4
						L85,228.4z"/>
				</g>
			</g>
			<g>
				<g>
					<path class="st8" d="M101.8,211.7c-0.2,4.2-0.3,8.4-0.2,12.5c0,1.5-0.3,3.8,0.8,5c0.9,1,2.6,1,3.9,1.1c4,0.2,7.9-0.3,11.8-1.1
						c2-0.4,4-0.9,6-1.5c1.2-0.3,2.5-0.7,3.4,0.4c0.6,0.9,1,2.1,1.4,3.1c0.8,1.8,1.5,3.8,2.5,5.6c0.7,1.2,1.7,2,3.1,1.7
						c0.6-0.2,0.5-0.7-0.2-0.6c-1.2,0.3-2-1.4-2.4-2.2c-0.5-1.1-1-2.3-1.5-3.5c-0.4-1-0.9-2-1.3-3c-0.3-0.7-0.6-1.6-1.3-2.1
						c-1.4-1-3.2-0.2-4.6,0.2c-2.5,0.7-5,1.3-7.5,1.7c-2.5,0.4-5.1,0.7-7.6,0.6c-1.1,0-2.2,0-3.3-0.2c-1.4-0.3-1.9-1.2-2-2.5
						c-0.4-5.1-0.2-10.3,0.1-15.4C102.9,211.2,101.8,211.4,101.8,211.7L101.8,211.7z"/>
				</g>
			</g>
			<g>
				<g>
					<path class="st8" d="M78.8,223.4c1.1-1.6,2.9-2.3,4.8-2.3c1.1,0,2.2,0.5,3.4,0.5c0.3,0,1-0.1,1.1-0.4c0.1-0.2-0.2-0.6-0.1-0.7
						c-0.3,0.1-0.6,0.2-0.9,0.3c0.4,0,1.3,0.9,1.6,1.1c0.9,0.6,1.7,1.2,2.6,1.7c1.8,1.1,3.6,2.1,5.4,3.1c3.6,1.8,7.3,3.4,11.1,4.6
						c2.7,0.9,5.8,1.9,7.5-1.1c0.9-1.5,1.5-3.1,3.1-4.1c1.7-1.2,3.9-1.4,5.9-1.1c4.4,0.8,7.8,4.4,10.4,7.8c0.2,0.3,1.1-0.2,1-0.3
						c-3-3.9-6.8-7.9-12-8.1c-1.9-0.1-3.8,0.3-5.5,1.2c-1.9,1-2.8,2.6-3.8,4.5c-0.5,0.9-1,1.7-2.2,1.7c-0.8,0-1.7-0.3-2.4-0.6
						c-1.5-0.4-3-0.9-4.4-1.5c-3-1.1-5.9-2.4-8.6-3.9c-2.6-1.4-5.1-2.9-7.6-4.6c-0.3-0.2-2-1.6-2.4-0.5c0,0.1,0.1,0.3,0.1,0.4
						c0,0.1,0,0.1,0,0.2c0.5-0.1,0.5-0.2,0-0.2c-0.2,0-0.3-0.1-0.5-0.1c-1.1-0.3-2.3-0.4-3.5-0.3c-2.1,0.2-4.1,1.1-5.3,2.8
						C77.7,223.7,78.6,223.7,78.8,223.4L78.8,223.4z"/>
				</g>
			</g>
			<g>
				<g>
					<path class="st8" d="M106.9,211.4c-0.7,3.8,0.6,7.7-0.3,11.5c-0.5,1.8-1.5,3.6-3.2,4.3c-1.5,0.6-3.3,0.7-4.5,1.9
						c-2.8,2.6,1.6,5.3,3.6,6.6c3,1.9,6.1,3.5,9.3,5.1c3.8,1.9,7.6,4,11,6.7c0.3,0.2,1.2-0.2,1-0.4c-5.5-4.5-12.2-7-18.2-10.5
						c-2-1.2-9.8-5.5-4.9-7.9c1.5-0.7,3.2-0.7,4.6-1.7c1-0.8,1.8-1.9,2.2-3.1c1.5-4-0.1-8.3,0.6-12.5
						C108.1,210.9,107,211,106.9,211.4L106.9,211.4z"/>
				</g>
			</g>
			<g>
				<g>
					<path class="st8" d="M92.3,220.3c8.3,2.6,16.5,5.1,24.8,7.8c7.9,2.6,15.4,5.7,22.5,10.2c3.9,2.5,7.6,5.1,11.2,7.8
						c0.4,0.3,1.3-0.3,0.8-0.6c-6.5-4.7-13-9.4-20.3-12.9c-7.6-3.7-15.9-5.9-23.9-8.5c-4.8-1.5-9.7-3-14.5-4.6
						C92.4,219.4,91.7,220.1,92.3,220.3L92.3,220.3z"/>
				</g>
			</g>
			<g>
				<g>
					<path class="st8" d="M70.3,224.9c3.3,0.3,5.8-1,8.6-2.6c1.5-0.9,3-1.5,4.8-1.2c2.5,0.3,4.9,1.8,6.9,3.3
						c3.8,2.7,7.5,5.8,10.4,9.4c1.5,1.9,2.8,3.9,3.8,6.1c0.9,1.9,1.9,3.2,4.2,3.2c2.6,0.1,5.4-0.5,8-1c2.8-0.6,5.6-1.4,8.4-2.5
						c0.7-0.3,0-0.5-0.4-0.3c-2.6,1-5.2,1.8-7.9,2.4c-1.3,0.3-2.6,0.5-3.9,0.7c-1.4,0.2-3,0.5-4.4,0.3c-2.5-0.4-3.1-3.5-4.2-5.5
						c-1.1-1.8-2.3-3.5-3.8-5.1c-3-3.3-6.6-6.3-10.3-8.7c-2.8-1.8-6.2-3.4-9.6-2.3c-1.4,0.4-2.6,1.2-3.9,1.9c-1.9,1.1-3.8,1.8-6,1.6
						C70.7,224.3,69.8,224.8,70.3,224.9L70.3,224.9z"/>
				</g>
			</g>
			<g>
				<g>
					<path class="st8" d="M86.2,217.1c4.6,0.1,8.4,3,12,5.5c3.7,2.6,7.3,5.3,10.7,8.1c1.8,1.5,3.5,2.9,5.2,4.5
						c0.9,0.8,1.7,1.6,2.6,2.3c0.6,0.6,1.3,1.3,2.1,1.6c1.5,0.6,3.3-0.1,4.8-0.5c2.4-0.6,4.7-1.1,7.1-1.7c0.6-0.2,0.5-0.8-0.2-0.6
						c-2.2,0.5-4.4,1.1-6.6,1.6c-1.1,0.3-2.3,0.7-3.5,0.8c-1.5,0-2.4-1.1-3.4-2c-3.1-2.9-6.3-5.6-9.6-8.2c-3.4-2.7-6.9-5.3-10.5-7.7
						c-3.2-2.1-6.6-4.2-10.6-4.3C86.2,216.4,85.5,217.1,86.2,217.1L86.2,217.1z"/>
				</g>
			</g>
			<g>
				<g>
					<path class="st8" d="M84.1,230.2c8.2-0.7,16.6-1.4,24.7,0.1c4,0.8,8,2.1,11.5,4.2c3.6,2.1,6.7,5,10.3,7.1
						c3.6,2.2,7.8,3.5,12,2.6c0.6-0.1,0.5-0.8-0.2-0.6c-8.9,1.9-15.6-6.6-22.6-10.4c-6.8-3.6-14.7-4.5-22.3-4.5
						c-4.5,0-8.9,0.4-13.3,0.8C83.6,229.6,83.4,230.3,84.1,230.2L84.1,230.2z"/>
				</g>
			</g>
			<g>
				<g>
					<path class="st8" d="M80.7,227.2c2.1-0.3,3.6-1.2,5.2-2.4c0.6-0.4,1.2-0.9,2-0.8c1.3,0.1,2.4,1.4,3.3,2.2
						c1.9,1.9,3.4,3.9,5.8,5.2c2.1,1,4.9,1.8,5.7,4.3c0.2,0.5,1.2,0.2,1-0.3c-0.7-2.3-3.1-3.3-5.1-4.2c-1.5-0.7-2.8-1.5-4-2.6
						c-1.1-1.1-2-2.3-3.1-3.3c-1.4-1.3-3.2-2.6-5.1-1.6c-0.8,0.4-1.4,0.9-2,1.4c-1.1,0.8-2.3,1.3-3.6,1.5
						C80.2,226.5,80,227.3,80.7,227.2L80.7,227.2z"/>
				</g>
			</g>
			<g>
				<g>
					<path class="st8" d="M81.9,229.2c1,0.5,2.1,1,2.5,2.2c0.3,1.2,0.9,2,1.8,2.9c3.1,3.2,7,5.4,11,7.4c4,1.9,8.2,4,12.5,5.1
						c3.7,1,7.7,0.8,11.1-1.2c0.4-0.3-0.6-0.2-0.8,0c-4.3,2.6-9.5,1.1-13.7-0.7c-3.8-1.5-7.5-3.2-11.1-5.1c-3.2-1.7-6.9-4-9-7.1
						c-0.4-0.7-0.5-1.4-0.8-2c-0.4-0.9-1.6-1.4-2.4-1.8C82.6,228.7,81.7,229.1,81.9,229.2L81.9,229.2z"/>
				</g>
			</g>
			<g>
				<g>
					<path class="st8" d="M92.9,207.3c0.2,2.2,3.5,3.6,5.1,4.4c3.3,1.7,6.7,3,10.1,4.5c1.5,0.7,3.1,1.4,4.5,2.3
						c0.9,0.6,2.1,1.3,2.5,2.3c0.3,0.7,0,1.6-0.1,2.3c-0.1,1.4-0.2,2.8,0.1,4.1c0.5,2.8,2.6,4.4,5,5.6c7,3.6,14.2,7,21.4,10.1
						c0.4,0.2,1.2-0.4,0.6-0.7c-6.5-2.8-12.9-5.8-19.2-8.9c-2.7-1.4-5.9-2.6-6.7-5.8c-0.4-1.5-0.3-3-0.2-4.5
						c0.1-0.7,0.3-1.6,0.1-2.3c-0.6-2.2-3.9-3.5-5.6-4.3c-3.2-1.6-6.5-2.9-9.8-4.4c-1.6-0.7-3.3-1.5-4.8-2.5c-0.9-0.6-2-1.4-2.1-2.5
						C93.9,206.6,92.9,206.8,92.9,207.3L92.9,207.3z"/>
				</g>
			</g>
			<g>
				<g>
					<path class="st7" d="M78,230.1c1.3,0,2.6-0.4,3.5-1.4c1.2-1.3,1.5-3.1,3.6-3.1c1.6,0,3.1,0.1,4.6,0.8c1.2,0.6,2.4,1.3,3.7,1.8
						c2.5,0.9,5.1,1.1,7.7,1.4c0.2,0,1.2-0.4,0.7-0.4c-3-0.3-6-0.5-8.7-1.9c-1.1-0.5-2.2-1.2-3.4-1.6c-1.3-0.4-2.6-0.5-3.9-0.5
						c-1.3,0-2.7,0.3-3.6,1.3c-1.1,1.2-1.5,3.1-3.5,3.2C78.4,229.7,77.5,230.1,78,230.1L78,230.1z"/>
				</g>
			</g>
			<g>
				<g>
					<path class="st8" d="M108.6,240.9c5.9,2.1,11.3,5.3,16,9.3c0.2,0.2,1.2-0.2,1-0.4c-4.8-4.1-10.2-7.3-16.1-9.4
						C109.2,240.3,108.3,240.7,108.6,240.9L108.6,240.9z"/>
				</g>
			</g>
			<g>
				<g>
					<path class="st7" d="M108.1,232.9c5.2,2.8,10.7,5.2,16.3,7.2c4.5,1.6,10.8,2.4,13.4,6.9c0.2,0.3,1.1-0.1,1-0.3
						c-2.5-4.3-8-5.2-12.3-6.6c-6-2-11.9-4.6-17.5-7.6C108.8,232.3,108,232.8,108.1,232.9L108.1,232.9z"/>
				</g>
			</g>
			<g>
				<g>
					<path class="st8" d="M118.3,255.1c-7.7-10-16.9-18.7-27.3-25.9c-0.3-0.2-1.2,0.2-1,0.4c10.4,7.1,19.6,15.9,27.3,25.9
						C117.5,255.7,118.5,255.4,118.3,255.1L118.3,255.1z"/>
				</g>
			</g>
			<g>
				<g>
					<path class="st8" d="M82.6,235.3c6.6,0.9,13.3,0.9,19.8,1.8c6.7,0.9,12.8,3,18.3,6.9c0.4,0.3,1.3-0.3,0.8-0.6
						c-5.5-3.8-11.5-6-18.1-6.9c-6.8-1-13.7-1-20.5-1.9C82.4,234.4,81.9,235.2,82.6,235.3L82.6,235.3z"/>
				</g>
			</g>
			<g>
				<g>
					<path class="st8" d="M82.4,217.5c5.8,1.1,11.9,1,17.5,2.9c3.1,1.1,6.7,2.5,9.1,4.9c1.2,1.2,1.6,2.6,2.2,4.1
						c0.4,0.9,1,1.7,2,1.7c0.4,0,1.1-0.6,0.4-0.6c-1.5,0-1.8-2.8-2.3-3.8c-0.6-1.1-1.5-2-2.5-2.8c-2.5-1.9-5.6-3.2-8.6-4.2
						c-5.5-1.8-11.5-1.7-17.2-2.8C82.7,216.9,81.8,217.4,82.4,217.5L82.4,217.5z"/>
				</g>
			</g>
			<g>
				<g>
					<path class="st8" d="M114.6,244.3c5.3,0,10.6,0,15.9,0c2.6,0,5.2-0.1,7.8,0c2,0.1,4.2,0.4,5.2,2.3c0.2,0.4,1.2,0,1-0.5
						c-0.9-1.6-2.6-2.2-4.3-2.5c-2.5-0.4-5.1-0.1-7.7-0.1c-6,0-11.9,0-17.9,0C114.1,243.6,113.9,244.3,114.6,244.3L114.6,244.3z"/>
				</g>
			</g>
			<g>
				<g>
					<path class="st7" d="M80.3,231.9c7.2-0.4,14.5-0.1,21.6,1c1.7,0.3,3.4,0.6,5.2,0.9c1.6,0.3,3.5,0.6,5,1.3
						c1.9,0.9,3.1,3.6,5.5,3c0.4-0.1,0.9-0.6,0.2-0.4c-1.4,0.3-2.5-1.4-3.4-2.2c-1-0.9-2.3-1.2-3.6-1.6c-3.3-0.8-6.7-1.4-10.1-1.9
						c-6.6-0.9-13.3-1.1-19.9-0.7C80.4,231.5,79.6,232,80.3,231.9L80.3,231.9z"/>
				</g>
			</g>
			<g>
				<g>
					<path class="st8" d="M126.6,236.8c4.8,0.6,9.1,3.9,10.8,8.5c0.1,0.3,1.2,0,1-0.3c-1.8-4.7-6.2-8.1-11.2-8.7
						c-0.2,0-0.6,0-0.7,0.2C126.4,236.6,126.4,236.7,126.6,236.8L126.6,236.8z"/>
				</g>
			</g>
		</g>
		<g>
			<g>
				<g>
					<path class="st7" d="M83.1,225.7c1.5,0.1,3,0.1,4.5-0.4c1.1-0.4,2.2-0.9,3.3-1.4c1.7-0.7,3.4-0.9,5.2-0.7
						c2.2,0.2,4.5,0.5,6.7,1.2c7.9,2.5,12.5,10.3,19.6,14.3c3.6,2,7.8,3.1,11.9,1.8c0.6-0.2,0.4-1-0.2-0.8
						c-8.4,2.8-15.4-4.8-21.1-9.9c-2.8-2.5-5.8-4.9-9.4-6.1c-2-0.7-4-1-6-1.2c-1.6-0.2-3.2-0.3-4.8,0c-1.4,0.3-2.7,0.9-3.9,1.5
						c-1.8,0.8-3.5,1.1-5.4,0.9C82.9,224.9,82.4,225.7,83.1,225.7L83.1,225.7z"/>
				</g>
			</g>
			<g>
				<g>
					<path class="st8" d="M85.1,230.8c9.2-2.1,18.5,1,26.9,4.7c8.8,3.8,17.4,8,26.1,12.1c0.4,0.2,1.2-0.4,0.6-0.7
						c-9.1-4.2-18.2-8.7-27.4-12.6c-8.3-3.5-17.4-6.2-26.5-4.1C84.3,230.2,84.5,230.9,85.1,230.8L85.1,230.8z"/>
				</g>
			</g>
			<g>
				<g>
					<path class="st8" d="M73,235.6c1.2-1.4,2-3,2.8-4.6c0.7-1.5,1.6-3.2,3.1-4c1-0.5,2.3-0.5,3.4-0.5c1.3-0.1,2.6-0.2,3.8-0.1
						c2.6,0.1,5.1,0.7,7.2,2.3c3.2,2.5,4.8,6.5,7.8,9.2c3.1,2.7,7.4,3.4,11.3,2.6c2.5-0.5,4.5-1.8,6.8-2.7c3.4-1.4,6,0.3,8.6,2.4
						c0.3,0.2,1.2-0.2,1-0.4c-1.8-1.4-3.7-3-6.1-3.2c-2.2-0.2-4.2,0.9-6.1,1.8c-4.9,2.5-10.9,2.6-15-1.4c-3.2-3.1-4.9-7.6-9-9.8
						c-2.1-1.1-4.6-1.4-6.9-1.5c-2.1,0-4.6-0.1-6.6,0.6c-4,1.3-4.6,6.4-7.1,9.2C71.8,235.9,72.8,235.8,73,235.6L73,235.6z"/>
				</g>
			</g>
			<g>
				<g>
					<path class="st8" d="M89.8,218.8c-0.2,4.3-0.3,8.6-0.2,13c0,1.4-0.2,3.5,0.8,4.6c0.9,1.1,2.6,1.1,3.9,1.1
						c4,0.2,7.9-0.3,11.8-1.1c2-0.4,4-0.9,6-1.5c1.1-0.3,2.6-0.8,3.4,0.4c0.6,0.9,1,2.1,1.4,3.1c0.8,1.8,1.5,3.8,2.5,5.6
						c0.7,1.2,1.7,2.1,3.1,1.7c0.6-0.2,0.5-0.8-0.2-0.7c-1.3,0.3-2.1-1.7-2.5-2.6c-0.5-1.1-1-2.3-1.5-3.5c-0.4-1-0.9-2-1.3-3
						c-0.3-0.7-0.7-1.5-1.4-1.9c-1.5-0.8-3.3,0.1-4.8,0.5c-2.4,0.7-4.8,1.2-7.3,1.6c-2.3,0.4-4.7,0.6-7.1,0.6
						c-1.3,0-2.7,0.1-3.9-0.3c-1.3-0.4-1.6-1.4-1.7-2.7c-0.3-5-0.2-10.1,0.1-15.2C90.9,218.2,89.9,218.4,89.8,218.8L89.8,218.8z"/>
				</g>
			</g>
			<g>
				<g>
					<path class="st8" d="M66.8,230.6c3.6-5,10-1,13.7,1.6c2.9,2.1,5.9,4,9.4,4.9c1.7,0.4,3.4,0.7,5.1,1.1c1.8,0.4,4,1.5,5.9,1
						c1.9-0.4,2.5-2.1,3.4-3.6c1.1-2.1,3.1-3.3,5.4-3.6c5.6-0.7,10,3.8,13.1,7.9c0.2,0.3,1.2-0.1,1-0.4c-2.8-3.7-6.5-7.5-11.4-8.1
						c-4-0.4-7.6,1.2-9.4,4.8c-0.2,0.5-0.5,0.9-0.8,1.4c-0.7,1.1-1.9,1.2-3.1,0.9s-2.4-0.7-3.6-0.9c-1.8-0.4-3.7-0.8-5.5-1.3
						c-4.5-1.3-7.8-4.4-11.7-6.7c-3.8-2.2-9.4-3.1-12.4,0.9C65.6,231,66.6,230.9,66.8,230.6L66.8,230.6z"/>
				</g>
			</g>
			<g>
				<g>
					<path class="st8" d="M95,218.5c-0.7,3.8,0.6,7.7-0.3,11.5c-0.5,1.8-1.5,3.6-3.2,4.3c-1.5,0.6-3.3,0.7-4.5,1.9
						c-2.8,2.6,1.6,5.3,3.6,6.6c3,1.9,6.1,3.5,9.3,5.1c3.8,1.9,7.6,4,11,6.7c0.3,0.2,1.2-0.2,1-0.4c-5.5-4.5-12.2-7-18.2-10.5
						c-2.1-1.2-9.8-5.5-4.9-7.9c1.5-0.7,3.2-0.7,4.6-1.7c1-0.8,1.8-1.9,2.2-3.1c1.5-4-0.1-8.3,0.6-12.5C96.1,218,95,218.2,95,218.5
						L95,218.5z"/>
				</g>
			</g>
			<g>
				<g>
					<path class="st8" d="M58.5,232.1c5.3,0.5,10.6-0.5,15.9,0.1c1.4,0.1,2.7,0.4,4,0.8c0.6,0.2,1.3,0.6,2,0.5
						c0.3,0,0.7-0.2,0.8-0.5c0-0.1,0-0.2,0-0.3c-0.1-0.4-0.1-0.1-0.3,0c-0.2,0-0.4,0.1-0.6,0.1c0.4,0.1,0.9,0.7,1.2,0.9
						c0.6,0.5,1.3,1,1.9,1.6c1.4,1.2,2.8,2.5,4.1,3.9c1.2,1.3,2.3,2.7,3.3,4.1c1,1.5,1.7,3.2,2.5,4.8c1.7,3.3,5.7,2.4,8.7,1.9
						c3.9-0.6,7.7-1.6,11.4-3c0.7-0.3,0.1-0.8-0.5-0.6c-4.7,1.8-10,3.2-15.1,3.4c-1.6,0-2.7-0.5-3.5-1.9c-0.5-0.9-0.9-1.9-1.4-2.9
						c-1-1.9-2.3-3.7-3.7-5.3c-1.4-1.6-2.9-3-4.4-4.4c-0.8-0.7-1.6-1.3-2.4-2c-0.4-0.3-1-1-1.5-1.1c-0.7-0.2-0.8,0.3-0.8,0.8
						c0,0.1,0.3,0,0-0.2c-0.3-0.3-1.2-0.4-1.6-0.5c-1.1-0.3-2.2-0.5-3.4-0.7c-5.4-0.6-10.9,0.4-16.3-0.1
						C58.3,231.3,57.8,232,58.5,232.1L58.5,232.1z"/>
				</g>
			</g>
			<g>
				<g>
					<path class="st8" d="M80,228.7c1,0,2.1-0.2,2.7-1c0.1-0.1,0.2-0.3,0.3-0.3c-0.3,0.2-0.1,0.1,0.2,0.3c0.9,0.6,1.8,1.2,2.7,1.8
						c3.7,2.6,7.3,5.3,10.8,8.1c1.8,1.5,3.6,3,5.3,4.5c0.8,0.7,1.6,1.4,2.4,2.2c0.7,0.6,1.4,1.4,2.2,1.8c1.6,0.8,3.5,0.1,5.2-0.3
						c2.4-0.6,4.7-1.1,7.1-1.7c0.7-0.2,0.5-0.9-0.2-0.7c-2.4,0.6-4.7,1.1-7.1,1.7c-1.2,0.3-2.8,1-3.9,0.6c-1-0.3-1.8-1.3-2.5-1.9
						c-3.2-3-6.6-5.9-10.1-8.6c-3.4-2.7-7-5.4-10.6-7.7c-0.6-0.4-1.4-0.9-2.1-0.6c-0.2,0.1-0.3,0.3-0.5,0.5
						c-0.5,0.5-1.1,0.6-1.9,0.6C79.5,228,79.2,228.8,80,228.7L80,228.7z"/>
				</g>
			</g>
			<g>
				<g>
					<path class="st8" d="M77.6,241.7c3.6-0.3,7.2-1.1,10.8-1.8c3.4-0.7,6.8-1.4,10.2-1.3c3.8,0.2,7.3,1.5,10.4,3.5
						c3.4,2.1,6.4,4.9,9.9,6.9s7.6,3.2,11.7,2.4c0.6-0.1,0.5-0.7-0.1-0.5c-8.6,1.8-15.2-6.2-21.9-10c-2.9-1.6-6.1-2.6-9.4-2.7
						c-3-0.2-6,0.3-9,0.9c-4.2,0.8-8.3,1.8-12.5,2.2C77.3,241.2,76.9,241.8,77.6,241.7L77.6,241.7z"/>
				</g>
			</g>
			<g>
				<g>
					<path class="st8" d="M68.7,234.2c2-0.3,3.6-1.1,5.2-2.3c0.7-0.5,1.3-1.1,2.2-0.8c1.2,0.3,2.3,1.4,3.1,2.3c1.9,2,3.5,4,6,5.2
						c2.1,1,4.8,1.8,5.6,4.3c0.1,0.3,1.1,0,1-0.3c-0.8-2.4-3.2-3.3-5.3-4.2c-1.5-0.7-2.7-1.5-3.9-2.6c-1.1-1.1-2.1-2.4-3.3-3.5
						c-1.4-1.3-3-2.2-4.8-1.4c-0.7,0.3-1.4,0.9-2,1.4c-1.1,0.8-2.3,1.4-3.7,1.6C68.4,233.8,68,234.3,68.7,234.2L68.7,234.2z"/>
				</g>
			</g>
			<g>
				<g>
					<path class="st8" d="M69.9,236.4c1.1,0.6,2.1,1,2.4,2.2c0.3,1.1,1,2,1.8,2.8c3,3.1,6.8,5.3,10.7,7.2c4,1.9,8.2,4,12.5,5.2
						c3.8,1.1,7.9,1.1,11.4-1c0.6-0.4-0.3-0.5-0.6-0.3c-4.2,2.5-9.2,1.3-13.4-0.4c-3.8-1.5-7.6-3.2-11.2-5.1c-3.3-1.8-7.1-4-9.3-7.2
						c-0.5-0.7-0.5-1.4-0.9-2.1c-0.4-0.9-1.6-1.4-2.4-1.8C70.5,235.7,69.5,236.2,69.9,236.4L69.9,236.4z"/>
				</g>
			</g>
			<g>
				<g>
					<path class="st8" d="M86.5,218.9c0.2,2.1,3,3.1,4.6,3.7c2.8,1.1,5.7,1.7,8.5,2.9c1.1,0.4,2.3,0.9,3,1.8c0.9,1,0.5,2.3,0.4,3.6
						c-0.2,2.4-0.1,4.9,1.6,6.8c1.7,1.9,4.5,2.9,6.8,4.1c5.9,3,11.9,5.7,18,8.4c0.2,0.1,1.2-0.3,0.9-0.4c-5.6-2.4-11.1-5-16.6-7.7
						c-2.3-1.1-4.9-2.2-6.9-3.7c-2.2-1.6-2.8-4-2.7-6.7c0-1.3,0.7-3.1-0.1-4.4c-0.5-0.8-1.4-1.3-2.3-1.7c-2.5-1.2-5.3-1.9-8-2.8
						c-1.9-0.6-6-1.6-6.2-4.1C87.5,218.4,86.5,218.5,86.5,218.9L86.5,218.9z"/>
				</g>
			</g>
			<g>
				<g>
					<path class="st7" d="M66.1,237.3c4,0,8,0,12,0c0.4,0,1.3,0,1.4-0.5c0.1-0.4-0.5-1.1-0.7-1.4c-0.4-0.6-1-1.3-1.4-1.9
						c0-0.1-0.2-0.3-0.2-0.4c0,0,0-0.1-0.1-0.2c-0.1,0.1-0.2,0.2-0.4,0.4c0,0,2.4,1.1,2.6,1.2c3.1,1.6,6.4,2,9.8,2.3
						c0.4,0,1.1-0.5,0.4-0.6c-1.9-0.2-3.8-0.3-5.6-0.8c-1.8-0.5-3.3-1.3-5-2.1c-0.6-0.3-1.7-1-2.5-0.6c-0.5,0.2-0.4,0.5-0.1,0.9
						c0.3,0.6,0.8,1.2,1.2,1.8c0.2,0.3,0.5,0.7,0.7,1c0.1,0.3,0.1,0.5,0.3,0.4c-0.1,0.1-1.1,0-1.4,0c-0.5,0-1.1,0-1.6,0
						c-1,0-2,0-3,0c-2,0-4,0-6,0C66.1,236.7,65.4,237.3,66.1,237.3L66.1,237.3z"/>
				</g>
			</g>
			<g>
				<g>
					<path class="st8" d="M96.8,248.1c5.8,2.1,11.3,5.3,16,9.3c0.4,0.3,1.3-0.2,0.8-0.6c-4.8-4.1-10.3-7.3-16.2-9.4
						C96.9,247.2,96.2,247.9,96.8,248.1L96.8,248.1z"/>
				</g>
			</g>
			<g>
				<g>
					<path class="st7" d="M96.2,240.1c5.2,2.8,10.7,5.3,16.3,7.2c4.5,1.6,10.8,2.3,13.4,6.9c0.2,0.4,1.2,0,1-0.4
						c-2.5-4.3-8.1-5.2-12.4-6.6c-6-2-11.9-4.5-17.5-7.6C96.7,239.3,95.7,239.8,96.2,240.1L96.2,240.1z"/>
				</g>
			</g>
			<g>
				<g>
					<path class="st8" d="M106.3,262.3c-7.7-10-16.9-18.7-27.3-25.9c-0.3-0.2-1.2,0.2-1,0.4c10.4,7.1,19.6,15.9,27.3,25.9
						C105.5,262.9,106.5,262.5,106.3,262.3L106.3,262.3z"/>
				</g>
			</g>
			<g>
				<g>
					<path class="st8" d="M70.6,242.4c6.6,0.9,13.3,0.9,19.8,1.8c6.7,0.9,12.8,3,18.3,6.9c0.4,0.3,1.3-0.3,0.8-0.6
						c-5.5-3.8-11.5-6-18.1-6.9c-6.8-1-13.7-1-20.5-1.9C70.4,241.6,69.9,242.3,70.6,242.4L70.6,242.4z"/>
				</g>
			</g>
			<g>
				<g>
					<path class="st8" d="M70.6,224.7c5.8,1.1,11.9,1,17.6,3c3.1,1.1,6.6,2.5,8.9,4.8c1.2,1.2,1.6,2.6,2.2,4.1
						c0.4,0.9,1,1.7,2.1,1.7c0.5,0,1.1-0.7,0.4-0.7c-1.5,0-1.7-2.5-2.2-3.5c-0.6-1.3-1.6-2.3-2.8-3.1c-2.5-1.9-5.6-3.2-8.6-4.1
						c-5.5-1.8-11.5-1.7-17.2-2.8C70.5,223.9,69.9,224.6,70.6,224.7L70.6,224.7z"/>
				</g>
			</g>
			<g>
				<g>
					<path class="st7" d="M74,243.7c5.6-0.4,10.9-2.3,16.5-2.6c3-0.2,6.3,0.1,9.2,1.2c2.2,0.8,3.5,3.8,6,3.2
						c0.7-0.1,0.5-0.9-0.2-0.7c-1.4,0.3-2.6-1.6-3.6-2.3c-1-0.8-2.3-1.1-3.5-1.4c-2.7-0.6-5.5-0.9-8.2-0.7
						c-5.4,0.4-10.7,2.2-16.1,2.6C73.5,242.9,73.3,243.7,74,243.7L74,243.7z"/>
				</g>
			</g>
			<g>
				<g>
					<path class="st8" d="M114.7,243.9c4.8,0.6,9.1,4,10.8,8.5c0.1,0.3,1.1,0,1-0.3c-1.8-4.7-6.2-8.1-11.2-8.7c-0.2,0-0.6,0-0.7,0.2
						C114.4,243.7,114.4,243.8,114.7,243.9L114.7,243.9z"/>
				</g>
			</g>
		</g>
		<g>
			<g>
				<g>
					<path class="st7" d="M93.4,211.2c4.5,0.4,9.1,0.8,13.6,1.2c4.3,0.4,8.9,0.4,13.1,1.8c7.1,2.5,12.1,8.7,19,11.6
						c3.5,1.5,7.3,2,11.1,1c0.5-0.1,0.5-0.4-0.1-0.3c-7.9,2.1-14.8-3.5-20.6-7.8c-2.7-2-5.5-3.9-8.8-4.9c-3.8-1.3-8-1.3-12-1.7
						c-4.9-0.4-9.7-0.8-14.6-1.3C93.8,210.8,92.9,211.1,93.4,211.2L93.4,211.2z"/>
				</g>
			</g>
			<g>
				<g>
					<path class="st8" d="M101,219.1c9.2-1.7,18.3,0.7,27,3.7c8.8,3.1,17.5,6.6,26.3,9.9c0.3,0.1,1.1-0.4,0.6-0.6
						c-9-3.4-18-7.1-27.2-10.2c-8.5-2.9-17.5-5.1-26.5-3.5C100.6,218.6,100.3,219.2,101,219.1L101,219.1z"/>
				</g>
			</g>
			<g>
				<g>
					<path class="st8" d="M83.3,219.4c3.5-3,8.4-3.4,12.8-3.7c4.6-0.4,9.7-0.8,13.7,2c3.1,2.2,4.9,5.8,8.2,7.8
						c3.2,1.9,7.2,2.2,10.8,1.5c2.2-0.4,4.2-1.4,6.3-2.2c3.3-1.1,6,0.2,8.7,2c0.2,0.2,1.1-0.2,0.9-0.3c-1.8-1.2-3.7-2.3-5.8-2.5
						s-4,0.6-5.9,1.3c-4.7,1.9-10.4,2.5-14.8-0.5c-3.4-2.4-5.3-6.4-9.1-8.2c-4.2-2-9.2-1.5-13.6-1.1c-4.5,0.4-9.4,1-12.9,4
						C82.2,219.6,83.2,219.5,83.3,219.4L83.3,219.4z"/>
				</g>
			</g>
			<g>
				<g>
					<path class="st8" d="M105.9,209.3c-0.2,2.6-0.2,5.3-0.2,7.9c0,1.2,0,2.3,0.1,3.5c0,0.8-0.1,1.8,0.4,2.6
						c0.9,1.5,3.2,1.3,4.7,1.3c2.3,0.1,4.6-0.1,6.9-0.3s4.6-0.6,6.8-1.1c1.3-0.3,2.5-0.6,3.8-0.8c1.2-0.3,2.6-0.6,3.4,0.6
						c1.3,1.9,2.2,4.2,3.3,6.2c0.8,1.4,1.8,2.3,3.5,2c0.6-0.1,0.4-0.7-0.2-0.6c-2,0.4-3.3-3.5-4-4.9c-0.7-1.3-1.3-3.4-2.8-4.1
						c-1.3-0.6-3,0-4.3,0.3c-2.2,0.5-4.5,1-6.7,1.3s-4.3,0.5-6.5,0.6c-1.3,0-2.5,0-3.8,0c-1.1,0-2.5,0-3.1-1
						c-0.6-0.9-0.4-2.2-0.4-3.3c0-1.2-0.1-2.3-0.1-3.5c0-2.3,0.1-4.6,0.2-6.9C106.9,208.8,105.9,209,105.9,209.3L105.9,209.3z"/>
				</g>
			</g>
			<g>
				<g>
					<path class="st8" d="M82.7,219.7c0.8-1.1,0.8-2.5,0.8-3.9c0-0.5-0.1-1.4,0.2-1.8c0.5-0.8,2.7,0.3,3.4,0.6
						c2.4,1.1,4.7,2.6,7,3.9c2.1,1.1,4.2,2.1,6.4,3c2.5,1,5,1.9,7.6,2.7c2.2,0.7,4.6,1.5,7,1.8c1.7,0.2,3.1-0.4,4.1-1.7
						c0.5-0.7,0.9-1.5,1.5-2.1c0.9-0.9,2.1-1.5,3.3-1.8c5.8-1.5,10.9,2.2,14.7,6.2c0.2,0.2,1.1-0.1,0.9-0.3
						c-3.3-3.5-7.3-6.5-12.3-6.6c-1.9,0-3.9,0.3-5.6,1.2c-0.7,0.4-1.4,0.8-1.9,1.4c-0.7,0.8-1.1,1.8-1.8,2.6
						c-1.3,1.5-3.7,0.5-5.3,0.1c-1.5-0.4-2.9-0.8-4.3-1.2c-2.8-0.9-5.5-1.9-8.2-3.1s-5.2-2.5-7.7-3.9c-2.2-1.3-4.4-2.7-6.9-3.3
						c-1.2-0.3-2.5-0.2-2.8,1.1c-0.4,1.7,0.3,3.7-0.9,5.3C81.7,220.1,82.6,219.9,82.7,219.7L82.7,219.7z"/>
				</g>
			</g>
			<g>
				<g>
					<path class="st8" d="M111,209.1c-0.8,3.9,1.6,9.2-2.2,12.1c-1.7,1.3-4.2,0.9-6,2.2c-1.5,1.1-0.9,2.5,0.4,3.5
						c3.4,2.5,7.5,4,11.3,5.6c4.2,1.7,8.4,3.4,12.1,5.9c0.2,0.2,1.1-0.2,0.9-0.3c-7.1-4.7-15.6-6.5-22.8-11
						c-0.8-0.5-2.2-1.4-1.9-2.6c0.4-1.5,2.4-1.6,3.6-1.9c1.5-0.3,2.9-0.9,3.9-2.1c2.7-3.3,0.6-7.7,1.4-11.4
						C112,208.6,111.1,208.8,111,209.1L111,209.1z"/>
				</g>
			</g>
			<g>
				<g>
					<path class="st8" d="M96.2,216.2c8.1,2.1,16.1,4.1,24.2,6.2c7.9,2.1,15.6,4.6,22.8,8.3c3.9,2,7.7,4.3,11.5,6.5
						c0.2,0.1,1-0.2,0.9-0.3c-6.7-4-13.5-8-20.9-10.8c-7.7-2.9-15.8-4.7-23.7-6.8c-4.7-1.2-9.4-2.4-14.1-3.6
						C96.7,215.8,95.9,216.1,96.2,216.2L96.2,216.2z"/>
				</g>
			</g>
			<g>
				<g>
					<path class="st8" d="M74.5,221c3.2,0.2,5.7-1,8.4-2.5c1.3-0.7,2.6-1.3,4.2-1.4c2.3-0.1,4.5,1,6.5,2c4,2.1,8.1,4.8,11.3,8
						c1.6,1.6,2.9,3.3,4,5.3c1,1.7,2.1,2.6,4.2,2.6c2.6,0.1,5.3-0.4,7.8-0.8c2.8-0.5,5.6-1.2,8.3-2c0.6-0.2,0.4-0.9-0.2-0.7
						c-4.7,1.5-9.7,2.5-14.6,2.8c-1.4,0.1-2.8,0.1-3.8-1.1c-0.7-0.8-1.1-1.9-1.7-2.7c-1.1-1.7-2.4-3.1-3.9-4.5
						c-3.2-2.9-6.9-5.5-10.7-7.5c-3-1.6-6.4-2.9-9.7-1.6c-1.4,0.5-2.7,1.4-4,2.1c-1.8,1-3.7,1.5-5.7,1.3
						C74.3,220.3,73.8,221,74.5,221L74.5,221z"/>
				</g>
			</g>
			<g>
				<g>
					<path class="st8" d="M90.2,213.7c4.5,0.1,8.5,2.4,12.2,4.6c3.8,2.1,7.5,4.4,11.1,6.9c1.7,1.2,3.4,2.4,5.1,3.6
						c1.3,1,2.7,2.4,4.4,2.9c1.6,0.5,3.5-0.2,5.1-0.5c2.2-0.4,4.4-0.9,6.6-1.3c0.4-0.1,0.8-0.6,0.1-0.5c-2.2,0.4-4.4,0.9-6.6,1.3
						c-1,0.2-2,0.4-3,0.6c-1.4,0.2-2.3-0.3-3.4-1.1c-3.3-2.5-6.7-4.9-10.2-7.2c-3.4-2.2-6.9-4.3-10.5-6.3c-3.3-1.8-6.7-3.5-10.6-3.5
						C90.3,213.2,89.6,213.7,90.2,213.7L90.2,213.7z"/>
				</g>
			</g>
			<g>
				<g>
					<path class="st8" d="M87.9,224.4c8.1-0.6,16.3-1.1,24.3,0c3.9,0.6,7.7,1.5,11.3,3.1c3.7,1.7,7,4.1,10.7,6c3.8,1.9,8,3,12.2,2.3
						c0.4-0.1,0.8-0.6,0.1-0.5c-8.8,1.5-15.4-5.3-22.9-8.5c-6.9-3-14.5-3.6-22-3.6c-4.5,0-9,0.3-13.5,0.6
						C88,223.9,87.3,224.4,87.9,224.4L87.9,224.4z"/>
				</g>
			</g>
			<g>
				<g>
					<path class="st8" d="M97.8,209.7c5,5.9,10.3,11.9,17.2,15.8c7.7,4.3,16.8,4.4,24.5,8.7c4,2.2,7.6,5.1,10.3,8.8
						c0.2,0.2,1-0.2,0.9-0.3c-4.8-6.4-11.9-10.4-19.6-12.5c-4.4-1.2-8.9-2-13.1-4c-3.7-1.7-7-4.1-10-6.8c-3.4-3.1-6.4-6.5-9.3-10
						C98.6,209.2,97.8,209.6,97.8,209.7L97.8,209.7z"/>
				</g>
			</g>
			<g>
				<g>
					<path class="st9" d="M75.8,221.5c2.8,2.2,5.8,3.1,9.4,3.2c1.9,0.1,3.8,0.1,5.6,0.4c2.4,0.4,4.6,1.2,6.9,2.1
						c8.6,3.4,16.4,8.6,24.7,12.6c4.6,2.2,9.4,4,14.5,5c0.3,0.1,1.1-0.4,0.6-0.5c-9.1-1.8-17.2-6.3-25.2-10.8
						c-7.3-4-15.2-8.7-23.7-9.3c-1.9-0.1-3.9-0.1-5.8-0.4c-2.3-0.4-4.3-1.4-6.1-2.8C76.5,220.9,75.6,221.3,75.8,221.5L75.8,221.5z"
						/>
				</g>
			</g>
			<g>
				<g>
					<path class="st8" d="M84.7,222.7c1.9-0.2,3.4-0.9,4.8-2.1c0.6-0.5,1.3-1.2,2.1-1.3c1.1-0.2,2.4,0.8,3.2,1.4
						c2,1.6,3.7,3.5,6.1,4.5c2,0.8,5,1.4,5.9,3.6c0.1,0.3,1.1,0.1,0.9-0.3c-0.9-2.2-3.6-2.8-5.6-3.6c-1.5-0.6-2.7-1.3-3.9-2.3
						c-1.1-0.9-2.1-2-3.3-2.8c-1.4-1-2.9-1.4-4.5-0.5c-0.7,0.4-1.4,1-2.1,1.5c-1.1,0.8-2.2,1.2-3.5,1.4
						C84.4,222.3,84,222.8,84.7,222.7L84.7,222.7z"/>
				</g>
			</g>
			<g>
				<g>
					<path class="st8" d="M86.1,224.6c0.8,0.3,1.9,0.6,2.4,1.3c0.6,0.9,1.3,1.6,2.1,2.3c3.1,2.5,6.8,4.2,10.5,5.7
						c3.9,1.5,7.9,3.1,11.9,4.1c3.8,0.9,7.9,1.1,11.5-0.7c0.6-0.3,0.1-0.8-0.4-0.6c-4,2-8.7,1.2-12.8,0c-3.8-1.2-7.6-2.5-11.2-4.1
						c-3.5-1.5-7.1-3.2-9.9-5.9c-0.5-0.5-0.7-1-1.1-1.4c-0.6-0.7-1.8-0.9-2.5-1.2C86.2,223.7,85.5,224.3,86.1,224.6L86.1,224.6z"/>
				</g>
			</g>
			<g>
				<g>
					<path class="st8" d="M97,205.7c0.2,1.9,3.6,2.9,5,3.5c3.2,1.3,6.5,2.4,9.8,3.6c1.5,0.5,3,1.1,4.4,1.8c1,0.5,2.2,1,2.9,1.9
						c0.2,0.3,0.3,0.5,0.3,0.9c0,1.3-0.4,2.6-0.2,3.9c0.3,2.7,2.4,4.1,4.7,5.1c7.1,3.1,14.4,5.8,21.7,8.3c0.3,0.1,1.1-0.3,0.8-0.4
						c-6.5-2.3-12.8-4.7-19.2-7.3c-2.6-1.1-6.2-2.1-6.9-5.3c-0.3-1.4-0.1-2.8,0.1-4.2c0.1-0.5,0.1-0.8-0.1-1.2
						c-0.4-0.7-1.3-1.2-2-1.6c-1.2-0.7-2.5-1.2-3.8-1.7c-3.3-1.3-6.6-2.3-9.9-3.6c-1.5-0.6-3-1.2-4.4-2c-0.8-0.4-2-1.1-2.1-2.1
						C97.9,205.2,96.9,205.4,97,205.7L97,205.7z"/>
				</g>
			</g>
			<g>
				<g>
					<path class="st7" d="M82.1,225.2c1.3,0,2.6-0.4,3.4-1.5c1.1-1.3,1.5-2.9,3.5-3c1.6,0,3.1,0.1,4.6,0.6c1.2,0.4,2.3,1,3.5,1.4
						c2.6,0.9,5.3,1,8,1.2c0.3,0,1.1-0.4,0.6-0.5c-2.9-0.2-5.9-0.4-8.6-1.5c-1.2-0.5-2.4-1.1-3.7-1.4c-1.2-0.3-2.4-0.3-3.6-0.3
						c-1.4,0-2.7,0.3-3.7,1.4c-1.2,1.3-1.5,3-3.6,3.1C82.2,224.7,81.5,225.2,82.1,225.2L82.1,225.2z"/>
				</g>
			</g>
			<g>
				<g>
					<path class="st8" d="M112.8,233.2c5.7,1.7,11.1,4.2,16,7.6c0.3,0.2,1.2-0.2,0.7-0.5c-4.9-3.4-10.4-6-16.2-7.7
						C113,232.5,112.2,233,112.8,233.2L112.8,233.2z"/>
				</g>
			</g>
			<g>
				<g>
					<path class="st7" d="M112.3,226.7c5.2,2.3,10.6,4.2,16.1,5.8c2.5,0.7,5,1.2,7.4,2c2.3,0.7,4.6,1.6,6.1,3.6
						c0.2,0.3,1.1,0,0.9-0.4c-2.7-3.9-8.7-4.4-12.9-5.6c-5.8-1.6-11.5-3.6-17-6.1C112.5,225.9,111.8,226.5,112.3,226.7L112.3,226.7z
						"/>
				</g>
			</g>
			<g>
				<g>
					<path class="st8" d="M122.2,244.7c-7.9-8.4-17.3-15.5-27.4-21.1c-0.3-0.2-1.1,0.2-0.7,0.5c10.1,5.6,19.3,12.7,27.2,21.1
						C121.6,245.3,122.5,245,122.2,244.7L122.2,244.7z"/>
				</g>
			</g>
			<g>
				<g>
					<path class="st8" d="M80.9,224.8c14.9,1.6,30.5,3.2,43.8,10.7c0.2,0.1,1-0.2,0.9-0.3c-13.4-7.5-29.1-9.1-44.1-10.8
						C81.2,224.4,80.4,224.7,80.9,224.8L80.9,224.8z"/>
				</g>
			</g>
			<g>
				<g>
					<path class="st8" d="M86.6,215c5.7,0.9,11.7,0.3,17.3,1.6c3,0.7,6.4,1.8,8.9,3.7c1.3,1,1.8,2.1,2.5,3.5c0.4,0.9,1,1.4,2,1.5
						c0.4,0,1-0.6,0.3-0.6c-1.5,0-1.7-1.9-2.3-2.9c-0.7-1.1-1.8-2-2.9-2.6c-2.6-1.5-5.7-2.6-8.7-3.2c-5.5-1.2-11.3-0.6-16.8-1.5
						C86.5,214.3,85.9,214.9,86.6,215L86.6,215z"/>
				</g>
			</g>
			<g>
				<g>
					<path class="st8" d="M118.4,235.8c5.3,0,10.6,0,15.9,0c2.5,0,5.1-0.1,7.6,0c1.9,0,4.5,0.1,5.7,1.9c0.2,0.2,1-0.1,0.9-0.3
						c-0.9-1.4-2.6-1.8-4.2-2c-2.6-0.3-5.3-0.1-7.9-0.1c-5.8,0-11.6,0-17.4,0C118.8,235.4,117.9,235.8,118.4,235.8L118.4,235.8z"/>
				</g>
			</g>
			<g>
				<g>
					<path class="st8" d="M88.6,234.4c6.9-1.2,14.1-0.5,20.7,1.8c3.1,1.1,6.1,2.6,8.8,4.5c1.2,0.9,2.4,1.8,3.5,2.9
						c1.1,1,2.1,2,3.6,2.4c2.1,0.5,4.4,0.5,6.5,0.6c2.5,0.2,4.9,0.3,7.4,0.5c0.5,0,1-0.7,0.3-0.7c-4.2-0.3-8.6-0.4-12.8-0.9
						c-2.1-0.3-3.2-1.5-4.7-2.8c-1.2-1.1-2.4-2-3.7-2.9c-5.5-3.7-12-5.8-18.5-6.4c-3.8-0.4-7.6-0.2-11.3,0.4
						C87.8,233.8,88,234.5,88.6,234.4L88.6,234.4z"/>
				</g>
			</g>
			<g>
				<g>
					<path class="st7" d="M84.4,226c7-0.3,14-0.1,20.9,0.7c3.3,0.4,6.8,0.8,10,1.7c1.5,0.4,2.5,1.3,3.8,2.2c0.8,0.5,1.6,0.7,2.6,0.6
						c0.6-0.1,0.4-0.8-0.2-0.7c-1.5,0.3-2.7-1.3-3.8-2c-1.2-0.7-2.5-0.9-3.8-1.1c-3.2-0.6-6.5-1.1-9.8-1.5
						c-6.5-0.7-13.1-0.9-19.7-0.6C84,225.3,83.8,226,84.4,226L84.4,226z"/>
				</g>
			</g>
			<g>
				<g>
					<path class="st8" d="M130.7,229.8c4.4,0.4,8.9,2.8,10.8,6.9c0.1,0.3,1.1,0,0.9-0.3c-2-4.2-6.7-6.7-11.2-7.1
						c-0.2,0-0.5,0-0.7,0.2C130.5,229.6,130.5,229.7,130.7,229.8L130.7,229.8z"/>
				</g>
			</g>
			<g>
				<g>
					<path class="st7" d="M104.4,235.4c7.9-0.2,16.1-0.5,23.8,1.6c6.8,1.8,12.9,6,20.1,6.6c0.2,0,1.1-0.4,0.6-0.4
						c-7.5-0.6-14-5.2-21.2-6.9c-7.5-1.7-15.2-1.5-22.9-1.3C104.5,234.9,103.8,235.4,104.4,235.4L104.4,235.4z"/>
				</g>
			</g>
		</g>
		<g>
			<g>
				<g>
					<path class="st8" d="M81,243.9c5.6-0.5,11.8-0.9,16.4,3.1c1.8,1.6,3.4,3.1,5.7,4c1.9,0.8,4.7,1.3,5.6,3.5c0.1,0.3,1,0,0.9-0.3
						c-0.8-2-3.2-2.7-5.1-3.4c-1.4-0.5-2.6-1.1-3.8-2c-1.2-0.9-2.2-2-3.4-3c-4.5-3.5-10.8-2.9-16.2-2.5
						C80.7,243.4,80.3,243.9,81,243.9L81,243.9z"/>
				</g>
			</g>
			<g>
				<g>
					<path class="st7" d="M78.4,246.4c2.7,0,5.3,0,8,0c2.4,0,4.9-0.2,7.2,0.1c2.3,0.3,4.3,1.7,6.5,2.2c2.3,0.6,4.6,0.7,6.9,0.9
						c0.4,0,1-0.6,0.3-0.6c-2.5-0.2-5.1-0.3-7.5-1.1c-2-0.6-3.8-1.8-5.9-2c-2.4-0.3-4.8-0.1-7.2-0.1c-2.7,0-5.3,0-8,0
						C78.4,245.8,77.8,246.4,78.4,246.4L78.4,246.4z"/>
				</g>
			</g>
			<g>
				<g>
					<path class="st8" d="M82.8,236.1c7.7,1.2,15.2,3.1,22.5,5.6c3.1,1.1,6.8,2.1,9.5,4.2c1.2,0.9,1.7,2,2.3,3.3
						c0.5,0.9,1,1.5,2.1,1.5c0.3,0,1-0.5,0.4-0.5c-1.5,0-1.7-2-2.3-3c-0.7-1.1-1.8-1.9-2.9-2.6c-3-1.7-6.4-2.8-9.6-3.9
						c-7-2.4-14.1-4.1-21.4-5.2C83.1,235.5,82.2,236,82.8,236.1L82.8,236.1z"/>
				</g>
			</g>
			<g>
				<g>
					<path class="st7" d="M86.3,251.5c6.9-0.3,13.8-0.1,20.6,0.7c3.3,0.4,6.7,0.8,10,1.6c1.5,0.4,2.5,1.2,3.8,2.1
						c0.8,0.6,1.7,0.9,2.7,0.8c0.5-0.1,0.8-0.7,0.1-0.6c-1.5,0.3-2.5-1.1-3.6-1.8c-1.2-0.8-2.6-1-4-1.3c-3.2-0.6-6.4-1.1-9.6-1.4
						c-6.6-0.7-13.3-0.9-19.9-0.6C85.9,251,85.6,251.6,86.3,251.5L86.3,251.5z"/>
				</g>
			</g>
		</g>
		<g>
			<g>
				<path class="st8" d="M83.6,212.7c0.5,0,1.1-0.7,0.4-0.7C83.5,212,82.8,212.7,83.6,212.7L83.6,212.7z"/>
			</g>
		</g>
		<g>
			<g>
				<path class="st8" d="M80.4,146.6c0.8,3.3,1.4,6.6,2,9.9c0.3,1.6,0.5,3.3,0.7,4.9c0.1,0.8,0.2,1.6,0.3,2.5c0,0.4,0.1,0.9,0.1,1.3
					c0,0.2,0,0.3-0.1,0.5c-0.3,0.2-0.3,0.4,0,0.4c-0.3-0.3-1.3,0.2-1,0.4c0.8,0.7,1.8,0,2.1-0.8c0.3-0.8,0.1-1.8,0-2.6
					c-0.1-1.1-0.2-2.3-0.4-3.4c-0.6-4.5-1.4-8.9-2.5-13.3C81.4,145.9,80.3,146.2,80.4,146.6L80.4,146.6z"/>
			</g>
		</g>
		<g>
			<g>
				<g>
					<path class="st7" d="M83.8,145.6c1,4.5,2,8.9,2.9,13.4c1,4.4,2.4,9,2,13.6c-0.8,7.8-6.2,14.2-7.4,22c-0.6,3.7-0.2,7.6,2.1,10.7
						c0.1,0.2,0.9-0.1,0.8-0.3c-4.7-6.4-1.4-14.6,1.5-21c1.7-3.6,3.4-7.4,3.8-11.4c0.5-4.1-0.7-8.2-1.6-12.2c-1.1-5-2.2-10-3.3-15.1
						C84.6,145.2,83.8,145.4,83.8,145.6L83.8,145.6z"/>
				</g>
			</g>
			<g>
				<g>
					<path class="st8" d="M77.1,155.6c4.7,7.8,5,17.1,4.3,25.9c-0.7,10-2.2,20.1-3.3,30.1c0,0.3,0.8,0.1,0.8-0.1
						c0.9-8.2,1.9-16.3,2.8-24.5c0.7-6.8,1.3-13.8,0.2-20.6c-0.7-3.9-1.9-7.6-4-11C77.8,155.1,77,155.4,77.1,155.6L77.1,155.6z"/>
				</g>
			</g>
			<g>
				<g>
					<path class="st8" d="M79.5,150.1c1.6,3.7,3.4,7.8,2.5,12c-0.7,3.3-3.2,5.9-5,8.7c-1.8,2.7-2.8,5.6-2.4,8.9
						c0.4,3.3,2.1,6.2,4.4,8.5c1.4,1.4,3,2.7,3.6,4.6c0.8,2.3-0.1,4.7-1,6.9c-0.1,0.3,1,0.2,1.1-0.2c0.7-1.8,1.3-3.6,1.2-5.5
						c-0.1-1.6-0.9-3-1.9-4.2c-1.1-1.3-2.5-2.4-3.5-3.7c-1.1-1.5-2-3.2-2.5-5c-1-3.6-0.2-7,1.8-10.2c1.7-2.7,4-5.1,5-8.2
						c1.3-4.4-0.6-8.9-2.3-12.9C80.4,149.5,79.4,149.8,79.5,150.1L79.5,150.1z"/>
				</g>
			</g>
			<g>
				<g>
					<path class="st8" d="M90.2,156.7c-3.9,1.1-7.8,2.3-11.6,3.7c-1.4,0.5-3.3,0.9-4.5,1.9c-1.2,1-0.8,2.6-0.5,3.9
						c1,3.8,2.6,7.3,4.6,10.7c0.9,1.6,1.8,3.1,2.8,4.5c0.6,0.9,1.3,1.7,1.7,2.7c0.5,1.4-0.3,2.3-1.3,3.2c-1.7,1.5-3.4,3-5.1,4.6
						c-1,0.9-2.5,2.4-1.6,3.9c0.2,0.2,0.9,0,0.8-0.2c-1.3-2.1,2.4-4.4,3.7-5.6c0.9-0.8,1.9-1.7,2.8-2.5c0.5-0.5,1.1-0.9,1.4-1.5
						c0.9-1.8-1.2-3.9-2.1-5.3c-1.3-1.9-2.5-4-3.6-6c-1-2-1.9-4-2.6-6.1c-0.4-1.1-0.7-2.2-1-3.3c-0.4-1.7,0.1-2.8,1.8-3.5
						c4.6-1.9,9.5-3.3,14.3-4.7C90.8,156.9,90.7,156.6,90.2,156.7L90.2,156.7z"/>
				</g>
			</g>
			<g>
				<g>
					<path class="st8" d="M71.3,140.4c0.1,1.3,1.1,2.1,2,2.8s2.5,1.4,2.9,2.5c0.3,0.9-0.3,2-0.6,2.9c-0.3,1.2-0.6,2.5-0.9,3.8
						c-0.5,2.5-0.9,5.1-1.2,7.6c-0.3,2.6-0.4,5.3-0.4,8c0,1.8-0.3,4.4,1,5.9c1.2,1.3,3.1,1.2,4.6,1.5c2.1,0.5,3.6,2.1,4.6,3.9
						c2.7,5.2-0.1,10.8-3.1,15.2c-0.4,0.6,0.6,0.8,0.9,0.4c2.5-3.7,4.9-8.1,4.2-12.7c-0.5-3.5-2.9-6.8-6.5-7.6
						c-1-0.2-2.1-0.2-3.1-0.6c-1.4-0.7-1.5-2.2-1.6-3.6c-0.1-2.7-0.1-5.3,0.1-8c0.2-2.7,0.5-5.5,1.1-8.1c0.2-1.3,0.5-2.6,0.8-3.9
						c0.3-1.3,0.8-2.6,1-3.8c0.5-3.1-4.7-3.4-5-6.3C72.4,139.6,71.3,139.8,71.3,140.4L71.3,140.4z"/>
				</g>
			</g>
			<g>
				<g>
					<path class="st8" d="M76.5,163.1c-1.5-1.6-2.8-5.2-5.7-4.2c-1.1,0.4-1.7,1.4-2.1,2.5c-0.6,1.6-1,3.3-1.4,4.9
						c-1.6,7.1-1.8,14.6-4.4,21.5c-0.2,0.5,0.7,0.5,0.8,0.1c2.1-5.4,2.6-11.2,3.6-16.9c0.5-3,1.1-6,2-8.8c0.2-0.6,0.4-1.2,0.7-1.7
						c0.8-1.3,2.2-1.3,3.3-0.4c1.1,0.9,1.6,2.3,2.6,3.4C76,163.8,76.8,163.4,76.5,163.1L76.5,163.1z"/>
				</g>
			</g>
			<g>
				<g>
					<path class="st8" d="M92.3,161.3c-2.9,0.4-5.5,1.8-8.2,2.7c-0.5,0.2-0.4,0.8,0.2,0.6c2.7-0.9,5.2-2.3,8-2.7
						c0.2,0,0.4-0.1,0.5-0.3C92.7,161.4,92.4,161.3,92.3,161.3L92.3,161.3z"/>
				</g>
			</g>
			<g>
				<g>
					<path class="st8" d="M78.9,150.3c0.1,8.5,0.3,17.1,0.4,25.6c0.1,8.4-0.5,16.6-2.5,24.7c-1.1,4.5-2.5,9-4,13.4
						c-0.1,0.2,0.8,0.1,0.8-0.1c2.5-7.8,5-15.7,5.9-23.9c1-8.3,0.5-16.8,0.4-25.2c-0.1-4.9-0.2-9.8-0.3-14.7
						C79.8,149.9,78.9,150,78.9,150.3L78.9,150.3z"/>
				</g>
			</g>
			<g>
				<g>
					<path class="st8" d="M68.9,175.7c1.4,7.6,5.8,14.2,7.1,21.8c0.7,4,0.1,7.7-1.2,11.5c-1.3,3.6-2,7.1-1.1,11
						c0.1,0.2,0.9,0,0.8-0.2c-0.9-4.1,0-7.7,1.3-11.5c1.3-3.6,1.7-7.2,1-11c-1.3-7.6-5.8-14.2-7.1-21.8
						C69.7,175.2,68.9,175.4,68.9,175.7L68.9,175.7z"/>
				</g>
			</g>
			<g>
				<g>
					<path class="st8" d="M68.7,146.5c0,2.1,2.4,3,3.7,4.2c0.9,0.7,1.2,1.5,0.9,2.6c-0.6,1.8-1.3,3.5-2.1,5.2
						c-1.6,3.4-3.6,6.7-6.3,9.3c-1.1,1-2.5,2-2.7,3.6c-0.3,1.8,0.9,3.7,1.6,5.2c1.9,3.9,4.2,7.5,6.9,10.8c0.2,0.2,1.2-0.2,1-0.4
						c-2.5-3.1-4.7-6.4-6.5-9.9c-0.8-1.5-1.9-3.4-2-5.1c-0.1-2.1,1.8-3.3,3.1-4.6c2.4-2.5,4.3-5.5,5.8-8.6c0.8-1.7,1.5-3.5,2.2-5.2
						c0.3-0.9,0.5-1.6-0.1-2.5c-1.3-1.7-4.3-2.3-4.3-4.8C69.8,146,68.7,146.2,68.7,146.5L68.7,146.5z"/>
				</g>
			</g>
			<g>
				<g>
					<path class="st8" d="M73.3,145.7c0.8,2.2,3,3.4,4.6,4.9c0.8,0.8,1.6,1.7,1.5,2.9c-0.1,1.7-0.9,3.6-1.4,5.2
						c-1.2,4-2.6,7.9-4.1,11.8c-0.7,1.8-1.5,3.7-2.2,5.5c-0.7,1.6-1.7,3.3-2.1,5c-0.5,1.9,1,3.5,1.9,5c1.2,2,2.5,4,3.7,6
						c0.2,0.3,1,0,0.8-0.4c-1.4-2.2-2.7-4.4-4.1-6.6c-0.7-1.2-1.8-2.4-1.5-3.9c0.2-1.3,1-2.6,1.6-3.8c2-4.5,3.8-9.2,5.4-13.9
						c0.7-2.2,1.4-4.4,2.1-6.6c0.5-1.5,1.3-3.3,0.5-4.9c-1.3-2.6-4.7-3.6-5.8-6.4C74,145.1,73.2,145.4,73.3,145.7L73.3,145.7z"/>
				</g>
			</g>
			<g>
				<g>
					<path class="st8" d="M60,147.7c3.1,7.2,8.4,13.1,11.8,20.2c1.7,3.4,2.8,7.1,2.6,10.9c-0.2,4.5-2.3,8.8-3.5,13.1
						c-1.2,4.5-1.6,9.4,0.9,13.6c0.3,0.4,1.3,0,1-0.5c-5-8.5,2.1-17.3,2.7-25.9c0.5-7.4-3.8-14-7.6-20c-2.5-3.8-5-7.6-6.8-11.7
						C60.9,146.9,59.8,147.2,60,147.7L60,147.7z"/>
				</g>
			</g>
			<g>
				<g>
					<path class="st8" d="M61.8,173.8c3.1,6.3,2.1,13.5,2.8,20.2c0.3,3.4,1.1,6.7,2.8,9.8c1.5,2.7,3.5,5,5.5,7.3
						c2.4,2.8,4.8,5.7,6.2,9.2c0.1,0.2,0.9-0.1,0.8-0.2c-2.5-5.9-7.6-10.1-11-15.4c-3.8-6-3.5-13-3.8-19.8
						c-0.2-3.9-0.7-7.8-2.4-11.3C62.5,173.4,61.7,173.7,61.8,173.8L61.8,173.8z"/>
				</g>
			</g>
			<g>
				<g>
					<path class="st9" d="M66.8,152.7c-1.2,16-9.8,30.9-8.5,47.3c0,0.2,1.1,0,1.1-0.3c-1.3-16.3,7.3-31.2,8.5-47.3
						C67.9,152.3,66.8,152.4,66.8,152.7L66.8,152.7z"/>
				</g>
			</g>
			<g>
				<g>
					<path class="st8" d="M73.6,149.4c-1.1,2.9-3.2,5.2-3.7,8.3c-0.4,2.4-0.1,5.7-2.3,7.3c-0.6,0.4,0.3,0.8,0.7,0.5
						c2.3-1.6,2.2-4.6,2.6-7.1c0.2-1.6,0.7-3,1.4-4.4c0.8-1.5,1.8-2.9,2.4-4.6C74.9,148.9,73.8,148.9,73.6,149.4L73.6,149.4z"/>
				</g>
			</g>
			<g>
				<g>
					<path class="st8" d="M60.2,151.3c-1.2,2.5-1.6,5-1.4,7.8c0.2,2.8,0.7,5.6,0.6,8.5c-0.3,6-1.2,12.9,3.9,17.2
						c0.2,0.2,1.2-0.2,1-0.4c-5.1-4.3-4.1-11.2-3.9-17.1c0.1-2.7-0.3-5.3-0.6-7.9c-0.2-2.9,0-5.6,1.3-8.2
						C61.3,151,60.3,151.1,60.2,151.3L60.2,151.3z"/>
				</g>
			</g>
			<g>
				<g>
					<path class="st8" d="M91.6,146.8c-2,0.9-2.4,4.2-2.7,6c-0.6,3.7-0.8,7.4-1.1,11.1c-0.2,1.7-0.4,3.4-0.8,5
						c-0.2,1.1-0.5,2.4-1.3,3.2c-0.5,0.5-1.3,0.5-2,0.7c-1.2,0.3-2.5,0.6-3.6,1.2c-2.5,1.2-3.7,3.4-4.2,6c-1.5,8-2.2,16.2-2.9,24.2
						c0,0.4,0.8,0.3,0.8-0.1c0.6-7,1.4-14.1,2.4-21.1c0.5-3.4,0.8-7,4.2-8.7c1.2-0.6,2.5-0.9,3.8-1.2c0.6-0.1,1.3-0.2,1.8-0.6
						c1.8-1.2,2.1-4.5,2.3-6.4c0.5-3.6,0.7-7.2,1.1-10.8c0.2-1.8,0.4-3.5,0.8-5.2c0.3-1,0.6-2.6,1.7-3.1
						C92.4,147,92,146.6,91.6,146.8L91.6,146.8z"/>
				</g>
			</g>
			<g>
				<g>
					<path class="st7" d="M64.6,147.3c0.4,0.9,2,0.8,2.7,0.8c1.4,0.1,2.8-0.1,4.2,0.2c0.7,0.1,0.6,0.3,0.6,1
						c-0.1,1.4-0.5,2.8-0.6,4.2c-0.2,2.8,0.4,5.5,1.1,8.2c0.1,0.5,1.2,0.2,1.1-0.3c-0.7-2.8-1.4-5.6-1-8.5c0.2-1.4,0.6-2.8,0.5-4.2
						c0-0.5-0.1-0.8-0.6-0.9c-1.1-0.5-2.6-0.3-3.8-0.3c-0.7,0-1.4,0-2-0.1c-0.2,0-1,0-1.1-0.3C65.5,146.5,64.4,146.8,64.6,147.3
						L64.6,147.3z"/>
				</g>
			</g>
			<g>
				<g>
					<path class="st8" d="M64.5,172.4c-0.2,6.2-1.5,12.4-3.8,18.2c-0.2,0.4,0.7,0.5,0.8,0.1c2.4-5.8,3.7-12,3.8-18.3
						C65.3,171.9,64.5,172,64.5,172.4L64.5,172.4z"/>
				</g>
			</g>
			<g>
				<g>
					<path class="st7" d="M71.9,169.5c-1,5.9-1.6,11.8-1.7,17.7c-0.1,4.7,1.2,11-2.3,14.8c-0.4,0.4,0.4,0.5,0.7,0.3
						c3.4-3.8,2.4-9.5,2.4-14.2c0-6.3,0.6-12.5,1.7-18.7C72.8,169,72,169.1,71.9,169.5L71.9,169.5z"/>
				</g>
			</g>
			<g>
				<g>
					<path class="st8" d="M54.1,185.4c7.1-10.5,12.5-22,16-34.2c0.1-0.5-0.7-0.5-0.8-0.1c-3.5,12.1-8.8,23.6-15.9,34
						C53.1,185.6,53.8,185.8,54.1,185.4L54.1,185.4z"/>
				</g>
			</g>
			<g>
				<g>
					<path class="st8" d="M65.7,185c0.4,0,1.2-0.5,0.4-0.5C65.8,184.5,65,185,65.7,185L65.7,185z"/>
				</g>
			</g>
			<g>
				<g>
					<path class="st8" d="M77.4,170.4c-0.6,0.5-1.2,0.9-1.7,1.4c-0.4,0.5-0.8,1.1-0.5,1.8c0.1,0.2,0.9,0,0.8-0.2
						c-0.2-0.6,0-1.2,0.4-1.6c0.5-0.5,1-0.9,1.6-1.3c0.1-0.1,0.1-0.2-0.1-0.2C77.8,170.2,77.6,170.3,77.4,170.4L77.4,170.4z"/>
				</g>
			</g>
			<g>
				<g>
					<path class="st8" d="M81,162.8c0.2,0,0.9-0.4,0.4-0.4C81.1,162.4,80.4,162.8,81,162.8L81,162.8z"/>
				</g>
			</g>
			<g>
				<g>
					<path class="st8" d="M60.3,195.1c1.9,4.9,3.8,9.8,5.8,14.7c1,2.5,1.9,4.8,0.7,7.4c-0.8,1.7-2,3.1-2.4,5
						c-0.1,0.3,0.8,0.2,0.8-0.1c0.4-2,1.8-3.6,2.6-5.4c1-2.3,0.2-4.4-0.7-6.6c-2-5-4-10.1-5.9-15.1C61,194.6,60.2,194.8,60.3,195.1
						L60.3,195.1z"/>
				</g>
			</g>
			<g>
				<g>
					<path class="st8" d="M63.1,178.9c1.7,5.1,3.4,10.2,5.1,15.3c0.8,2.4,1.7,4.8,2.4,7.2c0.6,2,1.1,4.4-0.5,6
						c-0.2,0.2,0.6,0.2,0.8,0c1.3-1.4,1.3-3.3,0.9-5.1c-0.6-2.5-1.6-5-2.4-7.5c-1.8-5.4-3.6-10.8-5.4-16.2
						C63.8,178.4,63,178.6,63.1,178.9L63.1,178.9z"/>
				</g>
			</g>
			<g>
				<g>
					<path class="st8" d="M48.8,151.9c4.4,7.5,9.7,16.2,8.9,25.3c-0.2,2.2-0.8,4.3-1.8,6.3c-0.9,1.8-2.3,3.4-2.4,5.4
						c-0.1,2.1,0.8,4.4,1.3,6.5c0.6,2.5,1.2,4.9,1.8,7.4c0.1,0.4,0.9,0.2,0.8-0.2c-0.6-2.6-1.2-5.1-1.8-7.7
						c-0.5-2.2-1.6-4.9-1.1-7.1c0.6-2.1,2.2-3.9,2.9-6c0.7-1.9,1.1-3.9,1.1-5.9c0.2-8.8-4.8-17-9.1-24.3
						C49.3,151.2,48.5,151.5,48.8,151.9L48.8,151.9z"/>
				</g>
			</g>
			<g>
				<g>
					<path class="st7" d="M70.7,171.7c0.1,0.8,0.1,1.7,0,2.5c-0.1,0.7-0.4,1.4-0.7,2.1c-0.5,1.1-1.2,2.4-0.4,3.6
						c0.2,0.3,1.3-0.1,1-0.4c-0.8-1.2,0.2-2.6,0.7-3.7c0.3-0.7,0.5-1.4,0.6-2.1c0.1-0.8,0-1.5-0.1-2.3
						C71.8,171.1,70.7,171.3,70.7,171.7L70.7,171.7z"/>
				</g>
			</g>
			<g>
				<g>
					<path class="st8" d="M74.1,188.2c1,4.7-0.8,9.8-4.5,12.8c-0.4,0.4,0.2,0.7,0.6,0.4c3.9-3.2,5.8-8.5,4.8-13.5
						C74.8,187.6,74,187.8,74.1,188.2L74.1,188.2z"/>
				</g>
			</g>
			<g>
				<g>
					<path class="st8" d="M54.3,188.2c3.3,8.4,6,17,7.8,25.9c0.1,0.4,0.9,0.2,0.8-0.2c-1.9-8.8-4.5-17.5-7.8-25.9
						C55,187.6,54.1,187.8,54.3,188.2L54.3,188.2z"/>
				</g>
			</g>
			<g>
				<g>
					<path class="st8" d="M55.2,193.8c3,4.7,5.6,9.6,7.8,14.7c1.1,2.5,2,5,2.9,7.6c0.4,1.4,0.9,2.7,1.3,4.1c0.2,0.8,0.3,2,1.3,2.2
						c0.2,0,0.9-0.3,0.7-0.3c-1.1-0.2-1.3-2.6-1.6-3.5c-0.4-1.3-0.8-2.6-1.2-3.9c-0.9-2.5-1.8-4.9-2.9-7.4
						c-2.1-4.8-4.6-9.5-7.4-13.9C55.9,193.4,55.2,193.7,55.2,193.8L55.2,193.8z"/>
				</g>
			</g>
			<g>
				<g>
					<path class="st8" d="M69.8,191c-5.2,0.7-9.1,4.5-11.5,8.9c-1.3,2.5-2.5,5.1-3.2,7.8c-0.8,2.7-1.1,5.5,0.2,8.1
						c0.1,0.3,1,0,0.8-0.2c-2.2-4.6,0.3-10.4,2.4-14.6c2.2-4.5,5.9-8.9,11.2-9.6C70.1,191.4,70.3,190.9,69.8,191L69.8,191z"/>
				</g>
			</g>
			<g>
				<g>
					<path class="st8" d="M68.6,199.8c-1.2,3.9-1.8,7.9-1.7,12c0.1,3.8,1,7.9-0.9,11.4c-0.1,0.1,0.7,0.1,0.8-0.1
						c1.8-3.3,1.1-7.1,0.9-10.6c-0.2-4.3,0.4-8.7,1.7-12.8C69.5,199.5,68.7,199.6,68.6,199.8L68.6,199.8z"/>
				</g>
			</g>
			<g>
				<g>
					<path class="st7" d="M59.2,165.4c2.7,7.1,5.4,14.5,5.7,22.2c0.3,7.6-3,15.2-1.3,22.7c0.1,0.3,0.9,0,0.8-0.2
						c-1.7-7.6,1.6-15.1,1.3-22.7c-0.3-7.7-3-15-5.7-22.2C59.9,164.9,59.1,165.1,59.2,165.4L59.2,165.4z"/>
				</g>
			</g>
		</g>
		<polygon class="st13" points="90.7,218.3 162,189.4 161.6,240.7 90.6,276.1 		"/>
		<g>
			<g>
				<path class="st8" d="M68.4,219.6c-1-11.9,0.8-23.8,0-35.8c-0.2-2.9-0.6-5.8-1.2-8.7c-0.5-2.5-1.2-5-2.4-7.2
					c-2-3.7-5.4-6.5-8.7-9.1c-3.8-3-8-5.9-11-9.8c-0.2-0.3-1.3,0.1-1,0.4c5.3,6.9,13.9,10.3,18.8,17.5c1.4,2,2.1,4.4,2.7,6.7
					c0.7,2.8,1.2,5.7,1.5,8.7c0.6,5.8,0.4,11.6,0.2,17.3c-0.2,6.7-0.6,13.5,0,20.2C67.4,220.2,68.5,220,68.4,219.6L68.4,219.6z"/>
			</g>
		</g>
		<g>
			<g>
				<g>
					<path class="st8" d="M66.2,166.6c7.7,14.3,5.9,31.6,5.5,47.2c-0.1,5.1-0.3,10.2-0.4,15.2c0,0.4,0.8,0.3,0.8-0.1
						c0.2-9.1,0.5-18.1,0.7-27.2c0.2-7.8,0.2-15.6-1.4-23.3c-0.9-4.3-2.3-8.4-4.4-12.3C66.8,165.9,66,166.2,66.2,166.6L66.2,166.6z"
						/>
				</g>
			</g>
			<g>
				<g>
					<path class="st8" d="M52.4,149.6c3.6,2.1,7.5,3.7,11,6.1c1.7,1.2,3.5,2.7,4.4,4.7c1.3,2.7,2.3,5.6,3,8.5
						c0.6,2.9,0.6,5.8-0.5,8.6c-0.9,2.4-2.4,4.6-3.5,6.9c-2.1,4.7-1.6,9.8,0.7,14.4c1.3,2.7,3.4,4.7,5.1,7.1c2.3,3.2,2,6.7,1.1,10.3
						c-0.1,0.4,1,0.2,1.1-0.1c0.7-2.9,1.3-6.1-0.1-8.9c-1.2-2.4-3.2-4.1-4.7-6.3c-3.1-4.6-4.5-10.5-2.4-15.8c1-2.4,2.5-4.6,3.6-7
						c1.1-2.6,1.4-5.3,1-8.1c-0.5-3-1.6-5.9-2.7-8.7c-0.8-2-2-3.5-3.6-4.9c-3.8-3.1-8.3-4.8-12.5-7.2
						C52.9,148.8,51.9,149.3,52.4,149.6L52.4,149.6z"/>
				</g>
			</g>
			<g>
				<g>
					<path class="st8" d="M59,149.3c0.2,1.5,1.3,2.4,2.5,3.3c1.1,0.8,2.7,1.6,3.2,3c0.3,1-0.1,2.1-0.3,3c-0.2,1.5-0.4,2.9-0.6,4.4
						c-0.3,2.7-0.5,5.4-0.5,8.2c-0.1,2.9,0,5.8,0.2,8.7c0.1,2.1-0.1,5.3,1.6,7c1.4,1.4,3.7,1.2,5.3,2.4c1.8,1.2,3,3.2,3.7,5.2
						c2.1,5.4,0.4,11.1-2.2,16c-0.1,0.3,0.9,0.2,1.1-0.2c2.2-4.3,3.9-9.2,2.8-14.1c-0.8-3.7-3-7.5-6.9-8.5c-1.1-0.3-2.2-0.5-3-1.4
						c-1-1.1-1-2.9-1.2-4.3c-0.3-2.9-0.4-5.8-0.4-8.7c0-3,0.1-6,0.4-9c0.1-1.3,0.3-2.7,0.5-4c0.2-1.4,0.6-2.8,0.7-4.1
						c0.2-3.4-5.2-3.9-5.7-7.2C60,148.7,58.9,149,59,149.3L59,149.3z"/>
				</g>
			</g>
			<g>
				<g>
					<path class="st8" d="M67.4,160.8c0.8,9.4,1.6,18.9,2.3,28.3c0.7,9.1,0.8,18.2-0.4,27.3c-0.7,5-1.7,10-2.7,15
						c-0.1,0.4,0.8,0.3,0.8-0.1c1.8-8.9,3.5-17.8,3.7-26.9c0.2-9.3-0.8-18.5-1.6-27.7c-0.4-5.4-0.9-10.8-1.3-16.2
						C68.2,160.1,67.4,160.3,67.4,160.8L67.4,160.8z"/>
				</g>
			</g>
			<g>
				<g>
					<path class="st8" d="M60.1,188.3c1.8,8.4,6.2,16,8.1,24.4c1,4.4,0.9,8.6-0.1,12.9c-1,4.2-1.3,8.2-0.2,12.4
						c0.1,0.4,0.9,0.1,0.8-0.2c-0.6-2.2-0.8-4.5-0.7-6.8c0.1-2.2,0.7-4.3,1.1-6.4c0.9-4.1,0.8-8.1-0.1-12.2
						c-1.9-8.4-6.3-16-8.1-24.4C60.9,187.7,60,187.9,60.1,188.3L60.1,188.3z"/>
				</g>
			</g>
			<g>
				<g>
					<path class="st8" d="M63.7,153.7c0.2,4.7-1,9.4-2.3,13.8c-1.2,4.2-2.9,8.4-5.7,11.7c-1.1,1.3-2.2,2.4-2.2,4.2
						c0.1,2.2,1.4,4.5,2.3,6.5c1.9,4.1,4.1,7.9,6.7,11.6c0.3,0.4,1.3,0,1-0.5c-2.6-3.7-4.9-7.7-6.8-11.8c-0.9-1.9-2.3-4.3-2.1-6.4
						c0.2-2,2.3-3.6,3.4-5.1c2.2-3.2,3.6-7,4.6-10.7c1.2-4.4,2.3-8.9,2.1-13.4C64.8,153,63.7,153.2,63.7,153.7L63.7,153.7z"/>
				</g>
			</g>
			<g>
				<g>
					<path class="st8" d="M61.5,192.6c-0.4,1.1-0.6,2.2-0.3,3.4c0.4,1.2,1.1,2.3,1.7,3.4c1.4,2.5,2.8,5,4.2,7.5c0.2,0.3,1,0,0.8-0.3
						c-1.3-2.3-2.6-4.7-3.9-7c-0.6-1.1-1.4-2.2-1.8-3.4c-0.5-1.2-0.2-2.4,0.2-3.6C62.4,192.2,61.6,192.3,61.5,192.6L61.5,192.6z"/>
				</g>
			</g>
			<g>
				<g>
					<path class="st8" d="M55.9,154.4c3.5,8.6,7,17.2,8.8,26.4c0.8,4.4,1.2,8.9,0.8,13.4c-0.4,4.6-1.7,9-2.3,13.6
						c-0.6,4.7-0.4,9.7,1.9,13.9c0.1,0.2,0.9-0.1,0.8-0.2c-4.4-8.3-0.9-17.1,0.3-25.7c1.2-9-0.9-18.1-3.7-26.6
						c-1.7-5.1-3.7-10-5.7-14.9C56.7,154,55.9,154.3,55.9,154.4L55.9,154.4z"/>
				</g>
			</g>
			<g>
				<g>
					<path class="st8" d="M53.4,185.7c3.2,7.1,3,15,4,22.6c0.5,3.8,1.4,7.5,3.1,10.9c1.5,3.1,3.6,5.9,5.6,8.8
						c2.5,3.4,4.9,6.9,6.5,10.9c0.1,0.2,0.9,0,0.8-0.2c-2.7-6.7-7.9-12-11.4-18.2c-3.8-6.9-4.1-14.5-4.9-22.2
						c-0.5-4.4-1.2-8.7-3-12.8C54.1,185.2,53.3,185.5,53.4,185.7L53.4,185.7z"/>
				</g>
			</g>
			<g>
				<g>
					<path class="st8" d="M74.7,160.3c-4.5,7.7-8.8,15.7-10.3,24.6c-0.8,4.8-0.4,9.6,0,14.4c0.5,5,0.7,10-0.2,15
						c-0.9,4.9-2.6,9.6-5.4,13.8c-0.1,0.1,0.7,0.1,0.8-0.1c5.1-7.7,6.5-16.9,5.8-26c-0.4-5.2-1.1-10.3-0.5-15.5
						c0.5-4.5,1.8-8.9,3.6-13c1.9-4.6,4.4-9,6.9-13.3C75.7,160,74.9,160.1,74.7,160.3L74.7,160.3z"/>
				</g>
			</g>
			<g>
				<g>
					<path class="st9" d="M56.4,162.4c0.1,17.6-6.6,34.6-4.3,52.2c0.1,0.4,1.2,0.2,1.1-0.3c-2.3-17.6,4.4-34.5,4.3-52
						C57.5,161.8,56.4,162,56.4,162.4L56.4,162.4z"/>
				</g>
			</g>
			<g>
				<g>
					<path class="st7" d="M73.1,193c-2.9,7.2-8.2,13.2-10.7,20.6c-2.6,7.6-2.9,15.9-1.6,23.7c0,0.2,0.9,0,0.8-0.2
						c-1.4-8-1-16.4,1.7-24c2.5-7.2,7.7-13.1,10.6-20.2C74,192.7,73.2,192.8,73.1,193L73.1,193z"/>
				</g>
			</g>
			<g>
				<g>
					<path class="st8" d="M62.4,159.4c-0.8,3.2-2.6,5.9-2.8,9.3c-0.1,2.4,0.5,6-1.6,7.8c-0.5,0.4,0.6,0.5,0.9,0.2
						c2.1-1.8,1.7-5.1,1.8-7.6c0.1-1.7,0.4-3.2,1-4.8c0.6-1.7,1.4-3.3,1.9-5C63.6,158.9,62.5,159.1,62.4,159.4L62.4,159.4z"/>
				</g>
			</g>
			<g>
				<g>
					<path class="st8" d="M51,147.1c0,1.4,0.2,2.7,0.7,4c0.4,1.1,1.1,2.1,1.5,3.3c0.5,1.5,0.3,2.7-0.1,4.2c-0.6,1.7-1,3.4-1.3,5.1
						c-0.7,3.8-0.9,7.6-0.9,11.5c-0.1,4-0.2,8,0.3,12s1.8,8.1,4.6,11c0.4,0.4,1.4-0.1,1-0.5c-5.5-5.7-4.9-14.6-4.8-21.9
						c0.1-3.8,0.2-7.7,0.8-11.5c0.3-1.9,0.8-3.7,1.4-5.5c0.4-1.1,0.7-2.2,0.5-3.4c-0.2-1.3-0.8-2.4-1.4-3.5c-0.7-1.5-1.1-3-1.1-4.7
						C52.1,146.5,51,146.6,51,147.1L51,147.1z"/>
				</g>
			</g>
			<g>
				<g>
					<path class="st7" d="M61,158.3c0.2,2.4-0.3,4.8-0.1,7.3s0.9,4.9,1.5,7.3c0.1,0.2,1.2-0.1,1.1-0.3c-0.6-2.4-1.3-4.8-1.5-7.3
						c-0.2-2.4,0.3-4.8,0.1-7.3C62.1,157.9,61,158.1,61,158.3L61,158.3z"/>
				</g>
			</g>
			<g>
				<g>
					<path class="st8" d="M55.8,184.4c0.3,6.7-0.4,13.5-2.1,20c-0.1,0.2,0.8,0.1,0.8-0.1c1.8-6.5,2.4-13.3,2.1-20.1
						C56.6,184,55.8,184.2,55.8,184.4L55.8,184.4z"/>
				</g>
			</g>
			<g>
				<g>
					<path class="st7" d="M62.4,181.6c-0.5,6.4-0.6,12.8-0.2,19.2c0.2,3,0.5,6,0.6,9c0.1,2.7,0,5.7-1.6,7.9c-0.2,0.3,0.6,0.3,0.8,0
						c1.5-2.1,1.7-4.6,1.7-7.1c0-2.9-0.4-5.7-0.6-8.6c-0.4-6.8-0.4-13.7,0.2-20.5C63.2,181.2,62.4,181.4,62.4,181.6L62.4,181.6z"/>
				</g>
			</g>
			<g>
				<g>
					<path class="st8" d="M47.3,197.8c5.9-11.6,9.9-24.1,12.1-36.9c0-0.1-0.8,0-0.8,0.2c-2.2,12.9-6.2,25.3-12.1,36.9
						C46.5,198.1,47.2,198,47.3,197.8L47.3,197.8z"/>
				</g>
			</g>
			<g>
				<g>
					<path class="st8" d="M46.1,149.3c1.9,8.5,5.4,16.6,8.2,24.9c2.6,7.8,4.6,16,3.2,24.2c0,0.1,1,0,1.1-0.3
						c1.4-8.2-0.6-16.4-3.2-24.2c-2.8-8.3-6.2-16.3-8.2-24.9C47.2,148.8,46.1,149.1,46.1,149.3L46.1,149.3z"/>
				</g>
			</g>
			<g>
				<g>
					<path class="st8" d="M61.1,144.3c1.4,7.7,5.6,14.5,7.7,22c1.1,3.8,1.4,7.7,0.8,11.6c-0.3,1.8-0.8,3.8-2.1,5.1
						c-1,1-2.3,1.9-1.8,3.5c0.1,0.3,1.2,0,1.1-0.3c-0.6-1.9,1.9-3,2.7-4.5c0.8-1.4,1.2-3.1,1.3-4.8c0.4-3.7,0.1-7.4-0.9-11
						c-2.1-7.5-6.3-14.2-7.7-22C62.1,143.7,61,144,61.1,144.3L61.1,144.3z"/>
				</g>
			</g>
			<g>
				<g>
					<path class="st8" d="M53.7,209.4c2.1,5.4,4.1,10.8,6.2,16.2c0.9,2.5,2.3,5.1,1.7,7.8c-0.5,2.2-1.9,4.1-2.1,6.4
						c0,0.3,0.8,0.1,0.8-0.1c0.2-2.3,1.6-4.2,2.1-6.4c0.6-2.6-0.6-5.1-1.5-7.5c-2.1-5.6-4.2-11.1-6.4-16.7
						C54.4,208.9,53.6,209.1,53.7,209.4L53.7,209.4z"/>
				</g>
			</g>
			<g>
				<g>
					<path class="st8" d="M55,191.5c1.9,5.6,3.8,11.3,5.7,16.9c0.9,2.7,1.8,5.4,2.7,8.2c0.7,2.1,1.7,5.2,0.2,7.2
						c-0.3,0.4,0.5,0.5,0.7,0.2c1.3-1.7,1-3.9,0.5-5.8c-0.7-2.9-1.9-5.8-2.8-8.6c-2-6.1-4.1-12.2-6.1-18.3
						C55.7,190.9,54.9,191.1,55,191.5L55,191.5z"/>
				</g>
			</g>
			<g>
				<g>
					<path class="st8" d="M45.7,158.2c3.6,6.9,5.5,14.6,5.7,22.3c0.1,3.9-0.3,7.8-1.3,11.5c-0.4,1.7-1,3.3-1.6,4.9
						c-0.7,1.8-1.6,3.4-1.4,5.4c0.2,2.5,1.1,5,1.7,7.4c0.7,2.6,1.4,5.3,2.1,7.9c0.1,0.2,0.9,0,0.8-0.2c-1.2-4.5-2.5-9-3.5-13.6
						c-0.3-1.1-0.4-2.2-0.2-3.4c0.2-1,0.7-2,1.1-2.9c0.7-1.6,1.3-3.2,1.7-4.9c2-7.2,1.9-14.9,0.4-22.2c-0.9-4.3-2.5-8.5-4.5-12.5
						C46.4,157.8,45.6,158,45.7,158.2L45.7,158.2z"/>
				</g>
			</g>
			<g>
				<g>
					<path class="st7" d="M61.6,184c0.1,0.8,0.2,1.7,0.2,2.5s-0.2,1.6-0.4,2.4c-0.4,1.3-1.1,2.8-0.3,4.1c0.1,0.2,0.9-0.1,0.8-0.2
						c-0.8-1.4-0.1-2.9,0.4-4.3c0.5-1.5,0.4-3.1,0.1-4.7C62.4,183.6,61.6,183.8,61.6,184L61.6,184z"/>
				</g>
			</g>
			<g>
				<g>
					<path class="st7" d="M50,153.3c0.3,0,0.9-0.4,0.3-0.4C50,152.9,49.4,153.3,50,153.3L50,153.3z"/>
				</g>
			</g>
			<g>
				<g>
					<path class="st8" d="M65.8,202.7c1.1,4.8,0.4,10.5-3.2,14.1c-0.4,0.4,0.5,0.4,0.7,0.2c3.8-3.7,4.5-9.6,3.4-14.5
						C66.5,202.1,65.7,202.3,65.8,202.7L65.8,202.7z"/>
				</g>
			</g>
			<g>
				<g>
					<path class="st8" d="M47.6,201.2c3.7,9.6,6.7,19.4,9.1,29.5c0,0.2,0.9-0.1,0.8-0.2c-2.4-10-5.4-19.9-9.1-29.5
						C48.4,200.8,47.5,201,47.6,201.2L47.6,201.2z"/>
				</g>
			</g>
			<g>
				<g>
					<path class="st8" d="M48.9,207.6c3.2,5.6,6,11.4,8.4,17.4c1.2,2.9,2.2,5.9,3.2,8.9c0.5,1.5,0.9,2.9,1.4,4.4
						c0.2,0.8,0.4,2.1,1.4,2.3c0.3,0.1,1-0.4,0.5-0.5c-0.7-0.2-0.9-1.5-1-2.1c-0.2-0.7-0.4-1.5-0.7-2.2c-0.5-1.5-0.9-2.9-1.4-4.4
						c-1-2.8-2-5.6-3.2-8.4c-2.3-5.4-4.9-10.7-7.8-15.8C49.5,207,48.7,207.3,48.9,207.6L48.9,207.6z"/>
				</g>
			</g>
			<g>
				<g>
					<path class="st8" d="M62.2,205.5c-5.2,0.4-8.4,4.8-10.2,9.3c-2,5.2-3.9,11.9-1.5,17.3c0.1,0.2,0.9-0.1,0.8-0.2
						c-2.1-4.7-0.8-10,0.7-14.7c1.4-4.7,4.2-10.9,9.9-11.3C62.1,205.9,62.8,205.5,62.2,205.5L62.2,205.5z"/>
				</g>
			</g>
			<g>
				<g>
					<path class="st8" d="M61.6,215.2c-0.8,4.3-1,8.7-0.7,13.1c0.3,4.2,1.7,8.7,0.1,12.8c-0.2,0.4,0.7,0.4,0.8,0.1
						c1.5-3.7,0.5-7.8,0.1-11.6c-0.5-4.8-0.4-9.6,0.6-14.4C62.6,214.7,61.7,214.9,61.6,215.2L61.6,215.2z"/>
				</g>
			</g>
			<g>
				<g>
					<path class="st7" d="M50.4,176.1c2.9,8.1,5.9,16.3,6.8,24.8s-1.5,17.2,0.5,25.6c0.1,0.4,0.9,0.1,0.8-0.2
						c-2.1-8.4,0.4-17.1-0.5-25.6c-0.9-8.6-3.9-16.8-6.8-24.8C51.1,175.5,50.3,175.7,50.4,176.1L50.4,176.1z"/>
				</g>
			</g>
		</g>
		<g>
			<g>
				<path class="st8" d="M57.2,161.5c0.4,2.1,1.2,4.2,2.6,5.9c0.7,0.9,1.6,1.7,2.5,2.4c1.2,0.9,1.2,1.9,1.3,3.3c0.1,1.5,0,3-0.3,4.4
					c-0.2,1.3-0.6,2.7-0.7,4c-0.1,2.4,1.2,4.2,2.7,5.9c0.1,0.2,0.9-0.1,0.8-0.3c-1.9-2.2-3-4.1-2.5-7.1c0.5-2.6,0.9-5.1,0.8-7.7
					c-0.1-1-0.1-1.9-0.9-2.6c-0.8-0.7-1.7-1.3-2.5-2.1c-1.6-1.8-2.7-4-3.1-6.4C58,161,57.2,161.2,57.2,161.5L57.2,161.5z"/>
			</g>
		</g>
		<g>
			<g>
				<path class="st8" d="M57,179.9c0.4,0,1.2-0.6,0.4-0.6C57.1,179.3,56.3,179.9,57,179.9L57,179.9z"/>
			</g>
		</g>
		<g>
			<g>
				<path class="st8" d="M55.3,181.5c0.4,0,1.2-0.5,0.4-0.5C55.4,181,54.6,181.5,55.3,181.5L55.3,181.5z"/>
			</g>
		</g>
		<g>
			<g>
				<path class="st8" d="M56.8,198.2c-0.9-4.5-1.9-9-2.8-13.5c-0.2-0.8-0.4-1.7,0.2-2.3c0.3-0.4,0.7-0.5,1.1-0.6
					c0.5-0.2,1.1-0.4,1.5-0.9c1-1.1,0.6-2.8,0.1-4c-1.1-3.1-3.6-5.4-5.1-8.2c-1-1.8-1.2-3.6-1.5-5.5c-0.3-1.9-1-3.6-2.1-5.1
					c-0.7-1-1.3-2.3-2.7-2.1c-0.6,0.1-1.1,0.3-1.7,0.4c-0.3,0.1-0.6,0.2-0.9,0.3c-0.1,0-0.2,0.1-0.3,0.1c-0.3,0.1-0.4,0-0.2-0.3
					c-0.1-0.4,0.1-0.6,0.5-0.7c0.5-0.2,0.1-0.7-0.4-0.5c-0.6,0.2-1.7,1.5-0.8,2.1c0.6,0.4,1.9-0.2,2.5-0.4c0.4-0.1,1.2-0.5,1.6-0.4
					c0.4,0.1,0.8,0.8,1.1,1.1c0.4,0.5,0.8,1,1.1,1.5c1.3,2,1.4,4,1.8,6.3c0.6,3.6,3.1,6.2,5,9.2c0.9,1.4,2.1,3.6,1.7,5.3
					c-0.4,1.8-3.1,1.3-3.5,3.1c-0.2,1,0.2,2.2,0.4,3.1c0.3,1.4,0.6,2.7,0.9,4.1c0.6,2.7,1.1,5.5,1.7,8.2
					C56,198.8,56.9,198.6,56.8,198.2L56.8,198.2z"/>
			</g>
		</g>
		<g>
			<g>
				<path class="st8" d="M48.3,203.1c-0.7-4.5-1.4-8.9-2.1-13.4c-0.1-0.5-0.1-1-0.2-1.5c-0.1-0.5-0.4-1.3-0.3-1.7
					c0.3-1,1.1-0.4,1.8-0.5c1-0.1,1.9-0.7,2.4-1.6c0.8-1.5,0.1-3.4-0.5-4.9c-0.7-1.7-1.6-3.3-2.7-4.7c-1.1-1.4-3.1-2.8-2.9-4.8
					c0.1-1.6,1.1-2.9,0.9-4.6c-0.5-3.5-4.2-6-6.5-8.3c-0.2-0.2-1,0.1-0.8,0.3c2.2,2.2,5.3,4.4,6.3,7.5c0.5,1.7-0.2,3-0.6,4.7
					c-0.4,1.7,0.5,2.8,1.6,4c1.3,1.4,2.4,3,3.3,4.7c0.8,1.6,1.8,3.8,1.4,5.7c-0.3,1.4-1.4,1.7-2.7,1.5c-0.3-0.1-0.7-0.1-1,0
					c-1.4,0.4-0.7,2.3-0.5,3.3c0.7,4.9,1.5,9.7,2.2,14.6C47.5,203.5,48.4,203.4,48.3,203.1L48.3,203.1z"/>
			</g>
		</g>
		<g>
			<g>
				<path class="st8" d="M71.3,147.5c0.1,1.1,0.3,2.3,1.3,3c0.6,0.3,1.2,0.4,1.5,1.1c0.3,0.7,0.3,1.5,0.4,2.3
					c0.5,3.4,0.9,6.7,1.4,10.1c0.1,0.4,1.2,0.2,1.1-0.3c-0.5-3.4-0.9-6.7-1.4-10.1c-0.2-1.2-0.1-2.6-1.3-3.3
					c-0.6-0.4-1.3-0.5-1.6-1.3c-0.3-0.6-0.3-1.2-0.3-1.8C72.3,146.8,71.2,147,71.3,147.5L71.3,147.5z"/>
			</g>
		</g>
		<g>
			<g>
				<path class="st8" d="M81.7,203.6c0.4,0,1.2-0.6,0.4-0.6C81.7,203,81,203.6,81.7,203.6L81.7,203.6z"/>
			</g>
		</g>
		<g>
			<g>
				<path class="st8" d="M80.9,162.7c-1.3-6-5.2-11.4-5.5-17.6c-0.2,0.1-0.5,0.2-0.7,0.3c1.7,1,3.5,1.8,5.3,2.7
					c1.7,0.9,3.6,1.9,4.9,3.4c0.2,0.3,1,0,0.8-0.3c-1.2-1.5-3.1-2.5-4.8-3.4c-1.8-1-3.7-1.8-5.5-2.9c-0.2-0.1-0.8,0-0.7,0.3
					c0.3,6.3,4.2,11.6,5.5,17.6C80.2,163.3,81,163.1,80.9,162.7L80.9,162.7z"/>
			</g>
		</g>
		<g>
			<g>
				<path class="st8" d="M55,225.8c-0.5-14.3,1.5-28.6,1-42.9c0-0.5-1.1-0.3-1.1,0.1c0.4,14.3-1.5,28.6-1,42.9
					C53.9,226.5,55,226.2,55,225.8L55,225.8z"/>
			</g>
		</g>
		<g>
			<g>
				<path class="st8" d="M65.4,183c0.4,0,1.1-0.7,0.4-0.7C65.4,182.3,64.7,183,65.4,183L65.4,183z"/>
			</g>
		</g>
		<path class="st14" d="M36,203.4l52.3,24.9c-0.2-0.4,53.8-27.7,53.8-27.7l-49.3-26.3L36,203.4z"/>
		<path class="st12" d="M149.1,188.5L91,215.8l4.4,4.7l60.6-28.6L149.1,188.5z"/>
		<g>
			<g>
				<g>
					<path class="st8" d="M74.4,139.2c0.7,7.6,4.2,14.6,8.7,20.7c3.1,4.3,6.8,8.4,11,11.7c0.5,0.4,2,1.9,2.7,0.8
						c0.1-0.1-0.9-0.1-1.1,0.2c0.8-1.4,1.2,0.1,0.7-0.4c-0.1-0.1-0.4-0.2-0.5-0.3c-0.6-0.4-1.1-0.8-1.6-1.3c-1.7-1.4-3.3-3-4.8-4.6
						c-4.4-4.6-8.2-9.9-10.8-15.7c-1.6-3.6-2.8-7.4-3.1-11.4C75.5,138.7,74.4,138.9,74.4,139.2L74.4,139.2z"/>
				</g>
			</g>
		</g>
		<g>
			<g>
				<path class="st8" d="M48.1,189.6c-0.6,3,0.1,6.3,0.8,9.2c0.8,3.6,1.7,7.1,2.5,10.7c0.6,3,0.7,5.7,0.3,8.7c-0.4,3.4-1,6.8-1,10.3
					c0,2.8,0.3,6.2,2.9,7.8c0.3,0.2,1.3-0.3,0.9-0.6c-2.5-1.5-2.7-4.9-2.7-7.5c0-3.3,0.6-6.6,1-9.8c0.3-2.7,0.4-5.3-0.1-8
					c-0.6-3.4-1.5-6.8-2.3-10.2s-1.8-7.2-1.1-10.7C49.3,189,48.2,189.2,48.1,189.6L48.1,189.6z"/>
			</g>
		</g>
		<polygon class="st15" points="26.6,187.7 26.2,245.4 95.7,279.1 96.2,220.7 		"/>
		<polygon class="st6" points="36.2,203.5 36.2,245.4 88.4,270.5 88.6,228 		"/>
		<g>
			<g>
				<path class="st8" d="M59.3,182.8c0.3,0.9,0.6,1.9,0.1,2.7c-0.1,0.2,0.1,0.3,0.3,0.3s0.6-0.1,0.7-0.3c0.5-1,0.3-2.1,0-3.1
					c-0.1-0.2-0.5-0.2-0.6-0.1C59.7,182.5,59.3,182.6,59.3,182.8L59.3,182.8z"/>
			</g>
		</g>
		<g>
			<g>
				<path class="st8" d="M69.2,148.6v-0.2c0,0.1-0.4,0.2-0.4,0.2c0.7-0.2-0.4,0.2-0.4,0.1c0,0,0,0.1,0,0c0,0.1,0.3,0.3,0.4,0.4
					c0.4,0.6,0.8,1.3,1.1,1.9c1,1.8,1.8,3.7,2.6,5.6c0.3,0.8,0.7,1.7,0.9,2.5c0.1,0.4,1.2,0.1,1.1-0.3c-0.5-2-1.4-4-2.3-5.9
					c-0.5-1-1-2-1.5-3c-0.3-0.6-0.6-1.3-1.1-1.7c-0.3-0.2-0.6-0.3-1-0.1c-0.3,0.2-0.4,0.4-0.4,0.7C68.1,149.2,69.2,149,69.2,148.6
					L69.2,148.6z"/>
			</g>
		</g>
		<g>
			<g>
				<path class="st8" d="M51.6,163.8c1.9,10.7,3.1,21.5,3.4,32.3c0,0.2,1.1,0,1.1-0.3c-0.3-10.9-1.5-21.7-3.4-32.3
					C52.7,163.2,51.6,163.5,51.6,163.8L51.6,163.8z"/>
			</g>
		</g>
		<g>
			<g>
				<path class="st8" d="M29.6,156.5c0.6,0.4,1.5,0.4,2.2,0.5c1,0.1,2,0.1,2.9,0.3c0.9,0.1,1.7,0.5,2.5,0.8c1.2,0.4,2.4,0.8,3.4,1.5
					c1.2,0.8,1.5,1.8,1.8,3.1c0.4,1.5,0.8,3.1,1.3,4.6c1.1,3,2.5,5.9,4.3,8.6c0.2,0.3,1.3,0,1-0.4c-1.9-2.8-3.4-5.9-4.5-9.1
					c-0.6-1.6-0.9-3.3-1.3-4.9c-0.2-1-0.8-1.7-1.6-2.3c-0.9-0.7-2-1.1-3.1-1.5c-0.9-0.3-1.9-0.8-2.8-1c-0.9-0.2-1.8-0.2-2.7-0.3
					c-0.8-0.1-1.9,0-2.6-0.4C30.1,155.8,29.1,156.2,29.6,156.5L29.6,156.5z"/>
			</g>
		</g>
		<polygon class="st5" points="102.1,217.6 32.5,185 26.4,187.8 95.5,220.6 		"/>
		<path class="st13" d="M95.6,220.5c0.2,0.5,66.2-31.5,66.2-31.5l-0.2,57l-65.8,33L95.6,220.5z"/>
	</g>
</g>
<g>
	<g>
		<g>
			<path class="st8" d="M38.1,7.3c7.1,1.9,14.3,3.5,21.4,5.7c1.5,0.5,3,1.1,4.3,2.2c1,0.9,1.9,2.1,2.8,3.2c0.9,1.1,1.7,2.3,2.8,3.1
				c0.9,0.8,2.7,1.5,2.4,2.9c-0.1,0.4,1.1,0.2,1.2-0.2c0.3-1.2-0.8-2-1.6-2.7c-1.1-0.9-2.1-1.7-2.9-2.9c-0.9-1.2-1.8-2.5-2.8-3.6
				c-1-1-2.4-1.8-3.8-2.4c-3.5-1.3-7.3-2-10.8-2.9c-3.9-1-7.7-2.1-11.6-3C38.8,6.7,37.7,7.2,38.1,7.3L38.1,7.3z"/>
		</g>
	</g>
	<g>
		<g>
			<g>
				<path class="st8" d="M36.7,14.3c7.1-1.6,14.2,0.9,20.8,3.7s13.1,6.1,19.6,9c0.3,0.2,1.2-0.4,1.1-0.4c-7-3.3-14.1-6.7-21.2-9.8
					c-6.4-2.6-13.2-4.5-20-2.9C36.5,14,35.8,14.5,36.7,14.3L36.7,14.3z"/>
			</g>
		</g>
		<g>
			<g>
				<path class="st8" d="M23.6,14.7c2.5-2.6,6.1-3,9.4-3.3c3.6-0.4,7.6-0.8,10.4,1.9c2.3,2,3.4,4.9,5.8,6.8c2.4,2,5.6,2.4,8.5,1.8
					c1.9-0.4,3.4-1.3,5.1-2.1c2.6-1.1,4.6,0.2,6.6,1.8c0.4,0.4,1.5-0.3,0.9-0.7c-1.3-1.1-2.8-2.3-4.7-2.5c-1.7-0.2-3.2,0.7-4.8,1.3
					c-3.6,1.8-8.2,2.1-11.2-0.9c-2.4-2.3-3.7-5.7-6.6-7.4c-3.1-1.8-7-1.3-10.5-0.9c-3.6,0.4-7.4,1.1-10.1,3.8
					C22,14.9,23.2,15.2,23.6,14.7L23.6,14.7z"/>
			</g>
		</g>
		<g>
			<g>
				<path class="st8" d="M40.3,5.2c-0.1,2.2-0.2,4.3-0.2,6.5c0,1.9-0.2,4,0.2,5.9c0.2,1.3,1.2,1.8,2.5,1.9c1.9,0.2,4,0.1,5.9-0.1
					c1.9-0.2,3.9-0.6,5.7-1c0.9-0.2,1.9-0.5,2.8-0.8c0.8-0.2,1.8-0.7,2.5,0.1c0.3,0.3,0.5,0.9,0.7,1.2c0.8,1.8,1.4,3.8,2.4,5.5
					c0.7,1,1.4,1.6,2.7,1.3c0.8-0.2,0.6-0.8-0.2-0.7c-1.2,0.3-2.5-3.7-2.8-4.5c-0.5-1.1-0.9-3-2-3.7c-1-0.7-2.4-0.2-3.5,0.1
					c-1.9,0.6-3.8,1-5.8,1.3c-1.9,0.3-3.8,0.5-5.7,0.5c-0.9,0-1.9,0.1-2.8-0.2c-1-0.3-1.3-1-1.4-2C41,12.7,41.1,8.8,41.3,5
					C41.5,4.6,40.3,4.9,40.3,5.2L40.3,5.2z"/>
			</g>
		</g>
		<g>
			<g>
				<path class="st8" d="M18.8,10.8c2.9-3.8,7.8-0.3,10.4,1.7c3,2.2,6.4,4.1,9.8,5.6c1.8,0.8,3.6,1.5,5.5,2.1
					c1.3,0.5,2.9,1.1,4.4,0.7c1.2-0.3,1.8-1.2,2.4-2.3c0.9-1.7,2.1-2.9,4.1-3.1c4.3-0.6,7.6,2.9,10,6c0.2,0.3,1.4-0.1,1.1-0.5
					c-2.2-2.9-4.9-5.7-8.6-6.2c-2.8-0.3-6,0.7-7.4,3.2c-0.6,1-0.9,2.4-2.4,2.3c-1.1-0.1-2.4-0.7-3.4-1c-2.1-0.7-4.1-1.5-6.1-2.5
					c-2.1-1-4.2-2.2-6.2-3.5c-1.7-1.1-3.2-2.4-4.9-3.3c-2.9-1.7-7.4-2.3-9.7,0.9C17.4,11.2,18.6,11.1,18.8,10.8L18.8,10.8z"/>
			</g>
		</g>
		<g>
			<g>
				<path class="st8" d="M44.2,5c-0.6,3.5,1.1,7.7-1.1,10.8c-1.1,1.5-3.2,1.2-4.8,2.4c-1,0.8-1.3,1.9-0.6,2.9c0.9,1.2,2.7,2.2,4,2.9
					c1.6,1,3.2,1.8,4.8,2.7c3.3,1.7,6.7,3.3,9.7,5.8c0.3,0.3,1.4-0.2,1.1-0.5c-2.7-2.2-5.7-3.8-8.7-5.3c-3.1-1.6-6.7-3.1-9.2-5.5
					c-0.9-0.9-1.2-2.1,0-2.9c0.7-0.5,1.5-0.5,2.3-0.8c1.3-0.5,2.4-1.3,2.9-2.6c1.6-3.2,0.2-6.7,0.8-10.2C45.5,4.4,44.3,4.6,44.2,5
					L44.2,5z"/>
			</g>
		</g>
		<g>
			<g>
				<path class="st8" d="M33.1,11.8c8,2.5,16.1,4.8,23.8,7.7c7.6,2.9,14.2,7.2,20.6,12.1c0.4,0.3,1.5-0.2,1.1-0.5
					c-6.6-4.8-13.2-9.3-20.8-12.2C50,16,41.8,13.7,33.7,11.2C33.5,11,32.4,11.6,33.1,11.8L33.1,11.8z"/>
			</g>
		</g>
		<g>
			<g>
				<path class="st8" d="M48.8,25.1c6.1,0.9,12.3-1,18.3,0.2c2.9,0.6,5.2,2,7.5,3.7c2.3,1.7,4.6,2.9,7.4,3.2c0.3,0,0.7,0,0.9-0.2
					c0.1,0,0.5-0.3,0.2-0.3c-3.1-0.2-5.5-1.7-8-3.6c-2.1-1.6-4.4-2.9-7-3.3c-6.1-1.1-12.3,0.7-18.3-0.2
					C49.6,24.6,48.6,25.1,48.8,25.1L48.8,25.1z"/>
			</g>
		</g>
		<g>
			<g>
				<path class="st8" d="M12.2,12c3.7,0.4,7.5-0.3,11.2,0c4.1,0.3,7.3,2.1,10.4,4.6c2.7,2.1,5.1,4.5,7,7.2c0.9,1.3,1.3,3,2.4,4.3
					c0.8,1,2.1,1.1,3.3,1.1c4.1-0.2,8.1-1.2,11.9-2.7c0.8-0.3,0.1-0.7-0.5-0.5c-2.4,0.9-4.8,1.6-7.3,2c-1.1,0.2-2.3,0.4-3.5,0.5
					c-1.4,0.1-2.5-0.2-3.1-1.5c-0.9-1.7-1.6-3.4-2.8-4.9c-1.2-1.6-2.8-3.1-4.4-4.5c-3.1-2.8-6.6-5.3-10.6-6.1
					c-4.5-0.8-8.9,0.2-13.5-0.2C12.2,11.3,11.4,12,12.2,12L12.2,12z"/>
			</g>
		</g>
		<g>
			<g>
				<path class="st8" d="M28.3,9.3c3.5,0.1,6.5,2.3,9.2,4.3c2.8,2,5.7,4.1,8.4,6.4c1.3,1.1,2.7,2.3,4,3.4c1,1,2.1,2.4,3.4,2.9
					c1.1,0.4,2.5-0.1,3.6-0.4c1.9-0.5,3.8-1,5.7-1.3c0.8-0.2,0.7-0.6-0.1-0.4c-1.7,0.4-3.5,0.9-5.2,1.2c-1.1,0.3-2.5,0.7-3.5,0.1
					c-0.6-0.4-1.1-0.9-1.6-1.4c-2.4-2.2-4.9-4.4-7.5-6.4s-5.1-3.9-7.8-5.7c-2.4-1.6-4.8-3-7.8-3C28.9,8.8,27.8,9.3,28.3,9.3
					L28.3,9.3z"/>
			</g>
		</g>
		<g>
			<g>
				<path class="st8" d="M14.3,16.6c7.9-0.7,16.2-1.3,23.8,1.4c3.9,1.5,7,4.2,10.5,6.5c3.1,2.2,6.7,3.6,10.5,2.8
					c0.8-0.2,0.6-0.9-0.2-0.8c-4.5,1-8.5-1.9-11.9-4.5c-3.1-2.3-6.3-4.4-10.1-5.4c-7.2-2.2-15-1.5-22.5-0.9
					C13.8,15.9,13.4,16.7,14.3,16.6L14.3,16.6z"/>
			</g>
		</g>
		<g>
			<g>
				<path class="st8" d="M46.2,29.9c6.6-0.9,12.7,3.2,19.3,3.5c6.6,0.3,12.1-4.3,18.5-4.8c0.7-0.1,1-0.8,0.2-0.8
					c-6.7,0.5-12.3,5.3-19,4.7c-6.5-0.6-12.3-4.3-18.9-3.4C45.8,29.3,45.3,30,46.2,29.9L46.2,29.9z"/>
			</g>
		</g>
		<g>
			<g>
				<path class="st8" d="M34.2,5.7C37.9,11,41.7,16.4,47,20.2c5.8,4.1,13.1,4.5,19,8.4c3.2,2.2,5.9,4.9,7.9,8.3
					c0.3,0.4,1.4,0,1.1-0.5c-3.4-5.6-8.7-9.6-14.9-11.7c-3.5-1.1-7.2-2-10.5-3.9c-2.9-1.7-5.3-4-7.5-6.5c-2.5-2.8-4.7-6-6.8-9.1
					C35.1,4.8,33.8,5.2,34.2,5.7L34.2,5.7z"/>
			</g>
		</g>
		<g>
			<g>
				<path class="st7" d="M0.5,9.6c5.6,5.2,13.7,6.1,20.4,9.3c6.8,3.2,12.7,8.1,19.2,12c3.5,2.1,7.2,3.8,11.2,4.8
					c0.3,0.1,1.3-0.4,1-0.5C45,33.5,38.9,29,32.7,24.9c-3.1-2.1-6.3-4.2-9.6-5.8c-3.2-1.6-6.6-2.8-10.1-3.9c-4.1-1.3-8.2-2.9-11.3-6
					C1.4,9,0.3,9.5,0.5,9.6L0.5,9.6z"/>
			</g>
		</g>
		<g>
			<g>
				<path class="st7" d="M34.5,8.7c7.3-0.9,15,1.8,20,7.1c2.8,2.9,4.7,6.5,7,9.8c2.1,2.9,4.6,5.5,7.5,7.5c3.3,2.3,7.1,3.9,11,4.7
					c0.3,0.1,1.4-0.5,1-0.5c-7.9-1.5-14.4-6.3-18.9-12.8c-2.2-3.2-4.2-6.6-6.8-9.4c-2.5-2.6-5.6-4.5-8.9-5.6
					C42.7,8,38.7,7.6,34.7,8.2C34.2,8.2,33.6,8.8,34.5,8.7L34.5,8.7z"/>
			</g>
		</g>
		<g>
			<g>
				<path class="st8" d="M7.4,10.8c2.2-0.2,4.5-0.5,6.7-0.1c2.3,0.4,4.1,1.4,5.7,3.1c1.3,1.4,2.5,2.8,4.2,3.6
					c1.6,0.8,3.7,1.4,4.3,3.2c0.1,0.4,1.3,0,1.2-0.3c-0.6-1.8-2.4-2.5-4-3.2c-1-0.5-2-1-2.8-1.8c-0.9-0.9-1.6-1.8-2.5-2.7
					C16.9,9.5,12,9.9,7.7,10.4C7.1,10.3,6.6,10.9,7.4,10.8L7.4,10.8z"/>
			</g>
		</g>
		<g>
			<g>
				<path class="st8" d="M8.2,12.4c2.9,1.5,4.8,4.4,7,6.7c2.4,2.6,5.4,4.5,8.6,6c3.2,1.5,6.6,3.2,10,4.1c2.9,0.8,6.1,0.6,8.7-1
					c0.5-0.3-0.8-0.1-1,0c-3.5,2.1-7.9,0.4-11.3-1.1c-2.8-1.1-5.5-2.4-8.2-3.9s-4.9-3.5-6.8-5.8c-1.7-2-3.4-4.2-5.8-5.4
					C9,11.8,8.1,12.4,8.2,12.4L8.2,12.4z"/>
			</g>
		</g>
		<g>
			<g>
				<path class="st7" d="M5.4,13.2c2,0,4,0,6.1,0c1.9,0,4.1-0.3,5.9,0.2c1.7,0.4,3,1.5,4.8,2.1c1.7,0.5,3.4,0.7,5.1,0.8
					c0.5,0,1.3-0.7,0.5-0.8c-2-0.2-4-0.4-5.9-1.1c-1.5-0.7-2.8-1.6-4.4-1.8c-1.8-0.3-3.7-0.1-5.5-0.1c-2,0-4,0-6.1,0
					C5.4,12.5,4.6,13.2,5.4,13.2L5.4,13.2z"/>
			</g>
		</g>
		<g>
			<g>
				<path class="st8" d="M45.6,27.7c4.4,1.6,8.5,4,12.1,7c0.4,0.3,1.5-0.2,1.1-0.5c-3.7-3.1-7.9-5.6-12.4-7.2
					C46,26.8,44.9,27.4,45.6,27.7L45.6,27.7z"/>
			</g>
		</g>
		<g>
			<g>
				<path class="st9" d="M45,21.5c4,2.1,8.1,4,12.4,5.4c3.4,1.2,8.4,1.8,10.4,5.3c0.2,0.4,1.3-0.1,1.2-0.3c-1.9-3.3-6.1-4-9.4-5
					c-4.7-1.5-9.1-3.5-13.4-5.8C45.9,20.8,44.9,21.3,45,21.5L45,21.5z"/>
			</g>
		</g>
		<g>
			<g>
				<path class="st8" d="M53.2,38.3C47.3,30.6,40.3,24,32.3,18.4c-0.4-0.3-1.5,0.3-1,0.7c7.9,5.4,14.9,12.1,20.7,19.7
					C52.4,39.2,53.5,38.7,53.2,38.3L53.2,38.3z"/>
			</g>
		</g>
		<g>
			<g>
				<path class="st8" d="M8.6,16.9c11.6,1.5,23.7,3.2,33.4,10c0.3,0.2,1.3-0.3,1.1-0.4c-9.9-6.8-22-8.5-33.6-10.1
					C9.2,16.4,8.2,16.8,8.6,16.9L8.6,16.9z"/>
			</g>
		</g>
		<g>
			<g>
				<path class="st8" d="M61.3,36.2c4.1-0.2,8.1-0.5,12.2-0.7c2-0.1,3.7-0.2,5.1,1.3c0.9,1,1.7,2.1,2.9,2.8c0.5,0.3,1.5-0.4,0.9-0.8
					c-1.3-0.8-2.1-2.1-3.2-3.1c-1.2-1.1-2.8-1.4-4.6-1.3c-4.5,0.2-8.8,0.5-13.3,0.7C60.7,35.4,60.5,36.3,61.3,36.2L61.3,36.2z"/>
			</g>
		</g>
		<g>
			<g>
				<path class="st8" d="M50.3,30.3c4,0,8.1,0,12.1,0c2,0,4-0.1,5.9,0c1.5,0.1,3.1,0.3,3.9,1.7c0.3,0.5,1.4,0,1.1-0.6
					c-0.7-1.2-2-1.8-3.4-2c-1.9-0.3-3.8-0.1-5.7-0.1c-4.7,0-9.2,0-13.9,0C49.7,29.4,49.4,30.3,50.3,30.3L50.3,30.3z"/>
			</g>
		</g>
		<g>
			<g>
				<path class="st8" d="M14.5,25.9c6.8-1.4,14.1,0.2,19.9,4c1.3,0.9,2.6,1.9,3.7,3c1.1,1.1,2.1,2.8,3.5,3.5s3.4,0.7,5,0.9
					c2.1,0.2,4.3,0.4,6.4,0.6c0.3,0,1.4-0.6,0.8-0.6c-2.3-0.2-4.6-0.4-6.8-0.6c-2.1-0.2-4-0.2-5.5-1.8c-2.4-2.6-4.7-4.8-7.7-6.6
					c-5.7-3.2-12.5-4.4-19-3C14.2,25.4,13.7,25.9,14.5,25.9L14.5,25.9z"/>
			</g>
		</g>
		<g>
			<g>
				<path class="st8" d="M59.3,24.4c3.6,0.5,6.8,3,8.2,6.5c0.1,0.3,1.3,0,1.2-0.3c-1.3-3.6-4.7-6.2-8.6-6.6c-0.3,0-0.7,0.1-0.9,0.2
					C59,24.2,59,24.4,59.3,24.4L59.3,24.4z"/>
			</g>
		</g>
		<g>
			<g>
				<path class="st8" d="M54.8,38.9c6.8-0.4,13.7-0.2,20.4,0.6c0.5,0.1,1.3-0.7,0.5-0.8c-6.9-0.8-13.9-1-20.8-0.6
					C54.4,38.1,54,38.9,54.8,38.9L54.8,38.9z"/>
			</g>
		</g>
		<g>
			<g>
				<path class="st8" d="M59.3,39.4c4.7-1.1,9.4-1.9,14.2-2.2c2.3-0.1,4.7-0.2,6.9-0.1c1,0,2.7,0.4,3.3-0.8c0.1-0.3-1-0.2-1.2,0.2
					c-0.1,0.2-2.6-0.1-2.8-0.1c-1,0-2.1,0-3.1,0c-1.9,0-3.7,0.2-5.6,0.3c-4,0.4-7.9,1-11.8,2C58.4,39.1,58.5,39.6,59.3,39.4
					L59.3,39.4z"/>
			</g>
		</g>
		<g>
			<g>
				<path class="st8" d="M60.1,28.4c-1,5.4,2.8,10.2,6.8,13.2c1.4,1,3.3,0.8,4.8,0.4c1.9-0.5,3.8-1.4,5.8-1.7c0.2,0,0.7-0.2,0.7-0.5
					s-0.3-0.4-0.6-0.4c-1.7,0.3-3.2,1-4.9,1.4c-1.4,0.6-3.3,1.2-4.8,0.2c-3.8-3-7.6-7.5-6.6-12.7C61.6,27.8,60.3,27.9,60.1,28.4
					L60.1,28.4z"/>
			</g>
		</g>
		<g>
			<g>
				<path class="st8" d="M66.3,31.2c2.6,1.9,5.4,3.2,8.5,4.2c2.7,0.9,5.8,1.1,7.8,3.2c0.3,0.3,1.4-0.1,1.1-0.5
					c-1.9-2.1-4.8-2.6-7.3-3.2c-3.2-0.9-6.4-2.4-9-4.4C67,30.3,65.8,30.9,66.3,31.2L66.3,31.2z"/>
			</g>
		</g>
	</g>
	<g>
		<g>
			<path class="st7" d="M60.2,13.4c4.5,0.5,9,1,13.5,1.4c2.3,0.3,4.6,0.5,6.7,1.3c1.8,0.8,3.3,1.9,4.8,3c5.1,4.3,10.8,11.2,18.3,8.7
				c0.8-0.2,0.6-1-0.2-0.8c-3.8,1.2-7.7-0.7-10.7-2.9c-2.9-2.2-5.3-5-8.3-7.1c-3.2-2.3-6.7-2.9-10.5-3.2c-4.5-0.5-8.8-0.9-13.3-1.4
				C60.1,12.5,59.5,13.3,60.2,13.4L60.2,13.4z"/>
		</g>
	</g>
	<g>
		<g>
			<path class="st8" d="M65.9,20.4c7.1-1.6,14.2,0.9,20.8,3.7s13.1,6.1,19.6,9c0.3,0.2,1.2-0.4,1.1-0.4c-7-3.3-14.1-6.7-21.2-9.8
				c-6.4-2.7-13.2-4.6-20-3C65.8,20.2,65.1,20.6,65.9,20.4L65.9,20.4z"/>
		</g>
	</g>
	<g>
		<g>
			<path class="st8" d="M52.8,20.9c2.5-2.6,6.1-3,9.4-3.3c3.6-0.4,7.6-0.8,10.4,1.9c2.3,2,3.4,4.9,5.8,6.8c2.4,2,5.6,2.4,8.6,1.8
				c1.9-0.4,3.4-1.3,5.1-2.1c2.6-1.1,4.6,0.2,6.6,1.8c0.4,0.4,1.5-0.3,0.9-0.7c-1.3-1.1-2.8-2.3-4.7-2.5c-1.7-0.2-3.2,0.7-4.8,1.3
				c-3.6,1.8-8.2,2.1-11.2-1c-2.4-2.3-3.7-5.7-6.7-7.4c-3.1-1.8-7-1.3-10.4-0.9c-3.6,0.4-7.4,1.1-10.1,3.8
				C51.3,21.2,52.5,21.4,52.8,20.9L52.8,20.9z"/>
		</g>
	</g>
	<g>
		<g>
			<path class="st8" d="M69.6,11.5c-0.1,2.2-0.2,4.3-0.2,6.5c0,1.9-0.2,4,0.2,5.9c0.2,1.3,1.2,1.8,2.5,1.9c1.9,0.2,4,0.1,5.9-0.1
				c1.9-0.2,3.9-0.6,5.7-1c0.9-0.2,1.9-0.5,2.8-0.8c0.8-0.2,1.8-0.7,2.5,0.1c0.3,0.3,0.5,0.9,0.7,1.2C90.4,27,91,29,92,30.7
				c0.7,1,1.4,1.6,2.7,1.3c0.8-0.2,0.6-0.8-0.2-0.7c-1.2,0.3-2.5-3.7-2.8-4.5c-0.5-1.1-0.9-3-2-3.7c-1-0.7-2.4-0.2-3.5,0.1
				c-1.9,0.6-3.8,1-5.8,1.3c-1.9,0.3-3.8,0.5-5.7,0.5c-0.9,0-1.9,0.1-2.8-0.2c-1-0.3-1.3-1-1.4-2c-0.3-3.9-0.1-7.8,0.1-11.7
				C70.8,10.8,69.6,11,69.6,11.5L69.6,11.5z"/>
		</g>
	</g>
	<g>
		<g>
			<path class="st8" d="M81.9,25.7c-0.6,3.5,1.1,7.7-1.1,10.8c-1.1,1.5-3.2,1.2-4.8,2.4c-1,0.8-1.3,1.9-0.6,2.9
				c0.9,1.2,2.7,2.2,4,2.9c1.6,0.9,3.2,1.8,4.8,2.7c3.3,1.7,6.7,3.3,9.7,5.8c0.3,0.3,1.4-0.2,1.1-0.5c-2.7-2.2-5.7-3.8-8.7-5.3
				c-3.1-1.6-6.7-3.1-9.2-5.5c-0.9-0.9-1.2-2.1,0-2.8c0.7-0.5,1.5-0.5,2.3-0.8c1.3-0.5,2.4-1.3,2.9-2.6c1.6-3.2,0.2-6.7,0.8-10.2
				C83.2,25.1,82,25.3,81.9,25.7L81.9,25.7z"/>
		</g>
	</g>
	<g>
		<g>
			<path class="st8" d="M62.3,18c8,2.5,16.1,4.8,23.8,7.7c7.6,2.9,14.2,7.2,20.6,12.1c0.4,0.3,1.5-0.2,1.1-0.5
				c-6.6-4.8-13.2-9.3-20.8-12.2c-7.9-2.9-16.1-5.2-24.1-7.7C62.7,17.2,61.7,17.8,62.3,18L62.3,18z"/>
		</g>
	</g>
	<g>
		<g>
			<path class="st8" d="M49.9,32.7c3.7,0.4,7.5-0.3,11.2,0c4.1,0.3,7.3,2.1,10.5,4.6c2.7,2.1,5.1,4.5,7,7.2c0.9,1.3,1.3,3,2.4,4.3
				c0.8,1,2.1,1.1,3.3,1.1c4.1-0.2,8.1-1.2,11.9-2.7c0.8-0.3,0.1-0.7-0.5-0.5c-2.4,0.9-4.8,1.6-7.3,2c-1.1,0.2-2.3,0.4-3.5,0.5
				c-1.4,0.1-2.5-0.2-3.1-1.5c-0.9-1.7-1.6-3.4-2.8-4.9c-1.2-1.6-2.8-3.1-4.4-4.5c-3.1-2.8-6.6-5.3-10.6-6.1
				c-4.5-0.8-8.9,0.2-13.5-0.2C49.9,31.9,49,32.6,49.9,32.7L49.9,32.7z"/>
		</g>
	</g>
	<g>
		<g>
			<path class="st8" d="M66,30c3.5,0.1,6.5,2.3,9.2,4.3c2.8,2,5.7,4.1,8.4,6.4c1.3,1.1,2.7,2.3,4,3.4c1,0.9,2.1,2.4,3.4,2.8
				c1.1,0.4,2.5-0.1,3.6-0.4c1.9-0.5,3.8-1,5.7-1.3c0.8-0.2,0.7-0.6-0.1-0.4c-1.7,0.4-3.5,0.9-5.2,1.2c-1.1,0.3-2.5,0.7-3.5,0.1
				c-0.6-0.4-1.1-1-1.6-1.4c-2.4-2.2-4.9-4.4-7.5-6.4c-2.6-2-5.1-3.9-7.8-5.7c-2.4-1.6-4.8-3-7.8-3C66.6,29.5,65.5,30,66,30L66,30z"
				/>
		</g>
	</g>
	<g>
		<g>
			<path class="st8" d="M52,37.3c7.9-0.7,16.2-1.3,23.8,1.4c3.9,1.5,7,4.2,10.4,6.5c3.1,2.1,6.7,3.6,10.6,2.8
				c0.8-0.2,0.6-0.9-0.2-0.8c-4.5,1-8.5-1.9-11.9-4.5c-3.1-2.3-6.3-4.4-10.1-5.4c-7.2-2.2-15-1.5-22.5-0.9
				C51.5,36.6,51.1,37.3,52,37.3L52,37.3z"/>
		</g>
	</g>
	<g>
		<g>
			<path class="st7" d="M38.2,30.3c5.6,5.2,13.7,6.1,20.4,9.3c6.8,3.2,12.7,8.1,19.2,12c3.5,2.1,7.2,3.8,11.2,4.8
				c0.3,0.1,1.3-0.4,1-0.5c-7.3-1.8-13.5-6.3-19.7-10.4c-3.1-2.1-6.3-4.2-9.6-5.8c-3.2-1.6-6.7-2.8-10.1-3.9
				c-4.1-1.3-8.2-2.9-11.3-6C39.2,29.7,38,30.1,38.2,30.3L38.2,30.3z"/>
		</g>
	</g>
	<g>
		<g>
			<path class="st7" d="M63.9,14.8c7.3-0.9,15,1.8,20,7.1c2.8,2.9,4.7,6.5,7,9.8c2.1,2.9,4.6,5.5,7.5,7.5c3.3,2.3,7.1,3.9,11,4.7
				c0.3,0.1,1.4-0.5,1-0.5c-7.9-1.6-14.4-6.3-18.9-12.8c-2.2-3.2-4.2-6.6-6.8-9.4c-2.5-2.6-5.6-4.5-8.9-5.6
				c-3.7-1.3-7.8-1.7-11.7-1.2C63.5,14.5,62.9,15,63.9,14.8L63.9,14.8z"/>
		</g>
	</g>
	<g>
		<g>
			<path class="st8" d="M75.1,17c2.2-0.2,4.5-0.5,6.7-0.1c2.3,0.4,4.1,1.4,5.7,3.1c1.3,1.4,2.5,2.8,4.2,3.6c1.6,0.8,3.7,1.4,4.3,3.2
				c0.1,0.4,1.3,0,1.2-0.3c-0.6-1.8-2.4-2.5-4-3.2c-1-0.5-2-1-2.8-1.8c-0.9-0.9-1.6-1.8-2.5-2.7c-3.4-3.2-8.4-2.9-12.6-2.4
				C74.7,16.5,74.2,17.1,75.1,17L75.1,17z"/>
		</g>
	</g>
	<g>
		<g>
			<path class="st8" d="M45.9,33.1c2.9,1.5,4.8,4.4,7,6.7c2.4,2.6,5.4,4.5,8.6,6c3.2,1.5,6.6,3.2,10,4.1c2.9,0.8,6.1,0.6,8.7-1
				c0.5-0.3-0.8-0.1-1,0c-3.5,2.1-7.9,0.4-11.3-1.1c-2.8-1.1-5.5-2.4-8.2-3.9c-2.7-1.5-4.9-3.5-6.8-5.8c-1.7-2-3.4-4.2-5.8-5.4
				C46.8,32.5,45.8,33,45.9,33.1L45.9,33.1z"/>
		</g>
	</g>
	<g>
		<g>
			<path class="st7" d="M73.1,19.4c2,0,4,0,6.1,0c1.9,0,4.1-0.3,5.9,0.2c1.7,0.4,3,1.5,4.8,2.1c1.7,0.5,3.4,0.7,5.1,0.8
				c0.5,0,1.3-0.7,0.5-0.8c-2-0.2-4.1-0.3-5.9-1.1c-1.5-0.7-2.8-1.6-4.4-1.8c-1.8-0.3-3.7-0.1-5.5-0.1c-2,0-4,0-6.1,0
				C73.1,18.6,72.2,19.4,73.1,19.4L73.1,19.4z"/>
		</g>
	</g>
	<g>
		<g>
			<path class="st8" d="M83.3,48.4c4.4,1.6,8.6,4,12.1,7c0.4,0.3,1.5-0.2,1.1-0.5c-3.7-3.1-7.9-5.6-12.4-7.2
				C83.7,47.5,82.7,48.1,83.3,48.4L83.3,48.4z"/>
		</g>
	</g>
	<g>
		<g>
			<path class="st9" d="M73.7,29.7c4,2.1,8.1,4,12.3,5.4c3.4,1.2,8.4,1.8,10.4,5.3c0.2,0.4,1.3-0.1,1.2-0.3c-1.9-3.3-6.1-4-9.4-5
				c-4.7-1.5-9.1-3.5-13.4-5.8C74.6,29.2,73.5,29.6,73.7,29.7L73.7,29.7z"/>
		</g>
	</g>
	<g>
		<g>
			<path class="st8" d="M90.9,58.9C85,51.2,78,44.6,70,39.1c-0.4-0.3-1.5,0.3-0.9,0.7C77,45.1,84,51.8,89.8,59.4
				C90.1,59.8,91.2,59.4,90.9,58.9L90.9,58.9z"/>
		</g>
	</g>
	<g>
		<g>
			<path class="st8" d="M46.3,37.6c11.6,1.5,23.7,3.2,33.4,10c0.3,0.2,1.3-0.3,1.1-0.4c-9.9-6.8-22-8.5-33.6-10.1
				C46.9,37.1,45.9,37.5,46.3,37.6L46.3,37.6z"/>
		</g>
	</g>
	<g>
		<g>
			<path class="st8" d="M76,42.2c4,0,8.1,0,12.1,0c2,0,4-0.1,5.9,0c1.5,0.1,3.1,0.3,3.9,1.7c0.3,0.5,1.4,0,1.1-0.6
				c-0.7-1.2-2-1.8-3.4-2c-1.9-0.3-3.8-0.1-5.7-0.1c-4.7,0-9.2,0-13.9,0C75.5,41.4,75.3,42.2,76,42.2L76,42.2z"/>
		</g>
	</g>
	<g>
		<g>
			<path class="st8" d="M34,34.8c6.8-1.4,14.1,0.2,19.9,4c1.3,0.9,2.6,1.9,3.7,3c1.1,1.1,2.1,2.8,3.5,3.5s3.4,0.7,5,0.9
				c2.1,0.2,4.3,0.4,6.4,0.6c0.3,0,1.4-0.6,0.8-0.6c-2.3-0.2-4.6-0.4-6.8-0.6c-2.1-0.2-4-0.2-5.5-1.8c-2.4-2.6-4.7-4.8-7.7-6.6
				c-5.7-3.2-12.5-4.4-19-3C33.6,34.3,33.1,35,34,34.8L34,34.8z"/>
		</g>
	</g>
	<g>
		<g>
			<path class="st7" d="M69.4,31.7c5.5-0.4,11.1-0.1,16.6,0.8c1.2,0.2,2.6,0.5,3.8,0.7c1.2,0.3,2.6,0.5,3.7,1
				c1.6,0.9,2.3,2.7,4.4,2.3c0.8-0.2,0.6-0.9-0.2-0.7c-1,0.2-1.8-1.2-2.5-1.8c-0.8-0.6-1.7-0.9-2.7-1c-2.5-0.6-5-1-7.6-1.4
				c-5.1-0.8-10.3-0.9-15.5-0.6C68.9,31,68.5,31.7,69.4,31.7L69.4,31.7z"/>
		</g>
	</g>
	<g>
		<g>
			<path class="st8" d="M75.5,37.5c6.8-0.4,13.7-0.2,20.4,0.6c0.5,0.1,1.3-0.7,0.5-0.8c-6.9-0.8-13.9-1-20.8-0.6
				C75.1,36.9,74.7,37.6,75.5,37.5L75.5,37.5z"/>
		</g>
	</g>
	<g>
		<g>
			<path class="st8" d="M80,38.1c4.7-1.1,9.4-1.9,14.2-2.2c2.3-0.1,4.7-0.2,6.9-0.1c1,0,2.7,0.4,3.3-0.8c0.1-0.3-1-0.2-1.2,0.2
				c-0.1,0.2-2.6-0.1-2.9-0.1c-1,0-2.1,0-3.1,0c-1.9,0-3.7,0.2-5.6,0.3c-4,0.4-7.9,1-11.8,2C79.1,37.8,79.2,38.3,80,38.1L80,38.1z"
				/>
		</g>
	</g>
</g>
</svg>
