<?xml version="1.0" encoding="utf-8"?>
<!-- Generator: Adobe Illustrator 25.2.3, SVG Export Plug-In . SVG Version: 6.00 Build 0)  -->
<svg version="1.1" id="Layer_1" xmlns="http://www.w3.org/2000/svg" xmlns:xlink="http://www.w3.org/1999/xlink" x="0px" y="0px"
	 viewBox="0 0 150.4 200.1" style="enable-background:new 0 0 150.4 200.1;" xml:space="preserve">
<style type="text/css">
	.st0{fill:#E4DAD8;stroke:#FFFFFF;stroke-width:0.2722;stroke-miterlimit:10;}
	.st1{fill:#CBB8B9;stroke:#FFFFFF;stroke-width:0.2722;stroke-linejoin:bevel;stroke-miterlimit:10;}
	.st2{opacity:0.5;fill:#4B3950;enable-background:new    ;}
	.st3{fill:#D8422E;}
	.st4{fill:#DC3359;}
	.st5{fill:#EE7345;}
	.st6{fill:#E4DAD8;stroke:#FFFFFF;stroke-width:0.2722;stroke-linejoin:bevel;stroke-miterlimit:10;}
	.st7{fill:#E4DAD8;stroke:#FFFFFF;stroke-width:0.245;stroke-linejoin:bevel;stroke-miterlimit:10;}
	.st8{fill:#CBB8B9;stroke:#FFFFFF;stroke-width:0.245;stroke-linejoin:bevel;stroke-miterlimit:10;}
	.st9{fill:#E4DAD8;stroke:#FFFFFF;stroke-width:0.245;stroke-miterlimit:10;}
	.st10{opacity:0.42;fill:#4B3950;enable-background:new    ;}
	.st11{opacity:0.5;fill:#E4DAD8;stroke:#FFFFFF;stroke-width:0.2722;stroke-miterlimit:10;enable-background:new    ;}
</style>
<g>
	<g>
		<polygon class="st0" points="8.4,107.8 75.1,76.2 74.2,130.5 8.4,165.1 		"/>
		<polygon class="st1" points="74.2,74.5 8.8,107.6 18.1,108.2 75.1,79.3 		"/>
		<polygon class="st2" points="18,164 68.8,188.8 137.8,156.2 75.2,133.1 		"/>
		<g>
			<g>
				<g>
					<path class="st3" d="M60.1,145.6c2.3,0.2,3.7-0.5,5.6-1.8c1.1-0.8,2.3-1.1,3.6-1.1c2,0.1,3.9,0.4,5.8,1
						c6.7,2,10.4,8.4,16.3,11.8c3,1.7,6.5,2.5,9.8,1.5c0.5-0.2,0.4-0.8-0.2-0.6c-4.6,1.5-9.2-1.1-12.6-3.9c-3-2.5-5.8-5.7-9.2-7.7
						c-1.8-1-3.5-1.7-5.5-2.1c-1.8-0.3-3.8-0.7-5.6-0.4c-1.2,0.2-2.1,0.7-3,1.4c-1.4,1-2.6,1.5-4.4,1.4
						C60,145,59.5,145.6,60.1,145.6L60.1,145.6z"/>
				</g>
			</g>
			<g>
				<g>
					<path class="st4" d="M60.9,149c7.7-1.7,15.5,1,22.5,4c7.1,3,13.9,6.5,20.9,9.7c0.3,0.1,1.1-0.3,0.7-0.4
						c-7.5-3.5-14.9-7.2-22.5-10.4c-6.9-2.8-14.2-5-21.7-3.3C60.2,148.7,60.3,149.1,60.9,149L60.9,149z"/>
				</g>
			</g>
			<g>
				<g>
					<path class="st4" d="M51.9,153.6c1.6-1.6,3.5-2.5,5.6-3c1.9-0.4,3.7-0.4,5.6-0.8c0.9-0.2,1.6-0.7,2.1-1.4
						c0.2-0.4,0.4-0.8,0.5-1.2c0.2-0.6,0.3-1,1-0.6c3.1,1.5,4.6,5.4,7,7.7c2.4,2.4,5.9,3.2,9.2,2.6c1.9-0.3,3.4-1.1,5.1-1.9
						c1.7-0.9,3.3-1.3,5.1-0.4c1.1,0.5,2.1,1.3,2.9,2c0.2,0.1,0.9-0.2,0.8-0.3c-1.6-1.3-3.2-2.5-5.3-2.5c-1.7,0-3.2,0.8-4.7,1.6
						c-4.4,2.3-9.6,1.9-12.9-2c-1.4-1.6-2.4-3.2-3.6-4.8c-0.8-1-2.2-2.4-3.5-2.5c-0.7,0-1.2,0.3-1.6,0.8c-0.8,1.3-0.8,2.5-2.5,2.7
						c-4,0.5-8.3,1-11.4,4.1C50.9,153.9,51.7,153.8,51.9,153.6L51.9,153.6z"/>
				</g>
			</g>
			<g>
				<g>
					<path class="st4" d="M64.7,139.3c-0.1,2.4-0.2,4.8-0.2,7.2c0,2-0.2,4.1,0.2,6.1c0.3,1.5,1.5,2,2.9,2.1c2.1,0.2,4.2,0.1,6.3-0.2
						c2.1-0.2,4.1-0.6,6.2-1.1c1.1-0.3,2.1-0.6,3-0.9c0.4-0.1,0.9-0.3,1.3-0.3c1.3,0,1.5,0.9,1.9,1.9c0.8,1.9,1.5,3.8,2.5,5.6
						c0.6,1.1,1.4,2.1,2.7,1.8c0.5-0.1,0.4-0.7-0.2-0.6c-1.7,0.4-2.7-3.7-3.2-4.8c-0.5-1.2-1-3.3-2.2-4.1c-1-0.6-2.3-0.2-3.3,0.2
						c-1.9,0.6-3.8,1.1-5.8,1.4c-2,0.4-4,0.6-6,0.6c-1.1,0-2.2,0.1-3.2-0.1c-1.4-0.2-2-0.9-2.1-2.3c-0.3-4.1-0.1-8.3,0.1-12.4
						C65.6,138.8,64.7,138.9,64.7,139.3L64.7,139.3z"/>
				</g>
			</g>
			<g>
				<g>
					<path class="st4" d="M46.8,149.6c3-4.2,8.4-0.5,11.5,1.7c2.2,1.6,4.4,2.8,7.1,3.3c1.3,0.2,2.6,0.4,3.9,0.7
						c1.4,0.3,2.9,1,4.4,0.7c1.2-0.3,1.9-1.1,2.4-2.2c1-2,2.4-3.4,4.6-3.7c4.7-0.7,8.3,3,10.9,6.5c0.2,0.2,0.9-0.2,0.9-0.2
						c-2.4-3-5.3-6.2-9.3-6.6c-3-0.3-6.2,0.9-7.6,3.6c-0.2,0.4-0.4,0.8-0.6,1.2c-0.6,0.9-1.5,1.2-2.5,1c-1.1-0.1-2.1-0.6-3.1-0.8
						c-1.4-0.3-2.7-0.4-4.1-0.7c-3.7-0.9-6.4-3.7-9.7-5.5c-3-1.6-7.3-2-9.6,1.2C45.9,149.8,46.7,149.8,46.8,149.6L46.8,149.6z"/>
				</g>
			</g>
			<g>
				<g>
					<path class="st4" d="M68.9,139c-0.7,3.7,1.3,8.4-1.4,11.7c-1.3,1.7-3.4,1.3-5,2.5c-1.1,0.8-1.4,2-0.6,3
						c1.1,1.4,2.9,2.4,4.4,3.2c1.7,1,3.3,1.9,5.1,2.7c3.6,1.9,7.3,3.6,10.4,6.2c0.2,0.2,1-0.2,0.8-0.3c-2.8-2.4-6.1-4-9.4-5.7
						s-7.3-3.3-9.9-6c-0.8-0.8-1.3-1.9-0.5-2.7s2.1-1,3.1-1.4c1.3-0.4,2.3-1.2,2.8-2.3c2.1-3.4,0.4-7.5,1-11.2
						C69.8,138.6,68.9,138.7,68.9,139L68.9,139z"/>
				</g>
			</g>
			<g>
				<g>
					<path class="st4" d="M62.3,150.5c1.5,0.4,2.9,0.7,4.4,0.6c1.2-0.1,2.4-0.4,3.5-0.4c2,0,3.7,0.8,5.6,1.3
						c2.3,0.7,4.4,1.5,6.7,2.3c8.2,3,15.3,7.8,22.3,13c0.2,0.1,0.9-0.2,0.8-0.3c-7.2-5.3-14.4-10.1-22.7-13.1c-2-0.7-3.9-1.4-5.9-2
						c-1.8-0.6-3.6-1.3-5.6-1.5c-1.2-0.1-2.3,0.1-3.3,0.2c-1.8,0.2-3.3,0-5.1-0.5C62.7,150.1,62.1,150.5,62.3,150.5L62.3,150.5z"/>
				</g>
			</g>
			<g>
				<g>
					<path class="st4" d="M74,160.6c6.5,0.9,12.9-1,19.4,0.2c3.3,0.6,5.8,2.2,8.4,4.2c2.4,1.8,4.8,3,7.8,3.3c0.2,0,1-0.4,0.5-0.4
						c-3.5-0.3-6.1-2.1-8.7-4.1c-2.3-1.8-4.7-2.8-7.4-3.3c-6.5-1.2-12.9,0.7-19.4-0.2C74.3,160.1,73.5,160.5,74,160.6L74,160.6z"/>
				</g>
			</g>
			<g>
				<g>
					<path class="st4" d="M39.9,150.9c4,0.4,8-0.3,12.1,0c4.2,0.3,7.5,2.1,10.9,4.6c0.9,0.7,2,1.4,2.5,2.4c0.4,0.6,0.5,1.4,0.7,2.1
						c0.4,1.3,0.9,2.6,1.6,3.7c0.8,1.2,2,1.6,3.3,1.5c4.4-0.1,8.8-1.4,12.9-2.8c0.6-0.2,0.1-0.7-0.4-0.5c-3.8,1.5-7.9,2.5-12.1,2.7
						c-1.2,0.1-2.3-0.2-2.9-1.3c-0.5-0.7-0.8-1.6-1.1-2.4c-0.3-0.9-0.5-1.7-0.8-2.5c-0.6-1.8-2.5-2.9-3.9-3.9
						c-2.8-2.2-5.9-3.6-9.5-4c-4.3-0.4-8.6,0.4-12.9,0C39.8,150.2,39.3,150.8,39.9,150.9L39.9,150.9z"/>
				</g>
			</g>
			<g>
				<g>
					<path class="st4" d="M57.6,148c0.7,0,1.6-0.2,2-0.9c0.1-0.2,0.2-0.6,0.1-0.8v-0.1c0-0.2-0.1-0.1-0.3,0.2
						c0.1,0.1,0.5,0.3,0.7,0.4c3.4,2.3,6.8,4.7,9.9,7.3c1.5,1.3,3,2.4,4.5,3.8c1.3,1.1,2.4,2.5,3.9,3.4c1.3,0.8,2.7,0.3,4.1-0.1
						c2.1-0.5,4.1-1,6.2-1.5c0.5-0.1,0.4-0.6-0.1-0.5c-1.9,0.5-3.8,0.9-5.7,1.4c-1.4,0.3-2.8,1-4.1-0.1c-0.7-0.5-1.3-1.2-1.9-1.8
						c-2.7-2.4-5.5-4.8-8.4-7.1c-1.4-1.1-2.7-2.2-4.2-3.1c-1.3-0.9-2.6-2.2-4-2.7c-0.3-0.1-0.9-0.3-1.2,0.1
						c-0.6,0.7,0.4,1.4-1.2,1.4C57.2,147.5,57,148,57.6,148L57.6,148z"/>
				</g>
			</g>
			<g>
				<g>
					<path class="st4" d="M55.6,158.7c3.7-0.4,7.3-1.4,10.8-2.3c3.4-0.9,7-1.3,10.4,0c7.3,2.6,12.6,11.2,21.4,9.4
						c0.5-0.1,0.4-0.5-0.1-0.4c-4.8,1-9.1-2-12.7-4.6c-3-2.3-6.1-4.6-9.9-5.4c-2.8-0.6-5.8-0.2-8.6,0.5c-3.7,0.9-7.3,2-11.1,2.3
						C55.3,158.3,55,158.8,55.6,158.7L55.6,158.7z"/>
				</g>
			</g>
			<g>
				<g>
					<path class="st4" d="M70.9,165.8c7.2-1,13.6,3.4,20.7,3.7c7.2,0.4,13-4.5,20-5.1c0.5,0,0.7-0.7,0.1-0.6
						c-7.2,0.6-13.2,5.7-20.5,5c-6.9-0.6-13-4.6-20.1-3.7C70.5,165.2,70.4,165.8,70.9,165.8L70.9,165.8z"/>
				</g>
			</g>
			<g>
				<g>
					<path class="st4" d="M63.6,144c2.8,4.1,4.9,9.1,9.2,12c2.8,1.9,6.1,2.9,9.3,3.8c3.6,1.1,7.2,2.4,10.3,4.5
						c3.3,2.3,6.1,5.3,8.2,8.7c0.2,0.3,1-0.1,0.9-0.2c-3.6-5.9-9.2-10.3-15.8-12.4c-6-2-12.4-3.3-16.4-8.7c-1.9-2.5-3.2-5.3-5-7.9
						C64.3,143.5,63.4,143.8,63.6,144L63.6,144z"/>
				</g>
			</g>
			<g>
				<g>
					<path class="st5" d="M41,151.4c5.3,5,12.6,6.3,19.2,8.8c6.7,2.6,12.3,7,18.5,10.4c3.5,2,7.3,3.4,11.3,4.4
						c0.2,0.1,1-0.3,0.7-0.3c-3.6-0.9-7.1-2.2-10.4-3.9c-2.8-1.5-5.5-3.3-8.2-5c-3-1.9-6.2-3.6-9.4-5.1c-3.3-1.5-6.8-2.4-10.1-3.6
						c-3.9-1.4-7.7-3-10.8-5.9C41.7,150.9,40.9,151.2,41,151.4L41,151.4z"/>
				</g>
			</g>
			<g>
				<g>
					<path class="st4" d="M48.3,152.6c3.5-0.4,7.5-0.8,10.8,1c0.4,0.2,0.8,0.5,1.2,0.8c0.1,0.1,0.3,0.3,0.4,0.4
						c0.1,0,0.5-0.3,0.5-0.3s-0.1,0-0.2-0.1c-0.1-0.1-0.3-0.1-0.4-0.2c-0.5-0.2-1-0.5-1.4-0.1c0,0-0.1,0.1-0.1,0.2
						c0.1,0.2,0.5,0.4,0.7,0.5c0.7,0.4,1.4,0.8,2.2,1.1c1.5,0.7,3,1.4,3.5,3c0.1,0.3,1,0.1,0.9-0.2c-0.5-1.4-1.7-2.2-2.9-2.8
						c-0.7-0.3-1.4-0.6-2.1-1c-0.4-0.2-0.7-0.4-1.1-0.6c-0.1,0-0.2-0.1-0.3-0.2c-0.2-0.1,0.2-0.1-0.2,0.1c-0.2,0.1-0.3,0.1-0.5,0.2
						c0.3,0,1,0.5,1.5,0.5c1.5,0-0.3-1.3-0.7-1.5c-3.4-2.2-7.9-1.8-11.8-1.4C47.9,152.1,47.8,152.6,48.3,152.6L48.3,152.6z"/>
				</g>
			</g>
			<g>
				<g>
					<path class="st4" d="M49.3,154.4c3.1,1.7,5.1,4.7,7.4,7.3c1.5,1.6,2.9,2.9,5,3.3c3.1,0.6,5.9,2.2,8.9,3c3.1,0.9,6.6,1,9.4-0.8
						c0.5-0.3-0.2-0.6-0.6-0.4c-3.4,2.1-7.5,1-11.1-0.4c-1.5-0.6-2.8-1.3-4.3-1.7c-0.8-0.2-1.6-0.3-2.5-0.5
						c-2.3-0.5-3.9-2.6-5.3-4.3c-2-2.3-3.7-4.6-6.5-6.1C49.7,153.7,48.9,154.2,49.3,154.4L49.3,154.4z"/>
				</g>
			</g>
			<g>
				<g>
					<path class="st4" d="M62.8,140c0.2,1.7,2.3,2.4,3.6,2.8c2.3,0.8,4.5,1.2,6.8,2.1c0.8,0.3,1.8,0.7,2.3,1.5
						c0.2,0.3,0.3,0.6,0.3,1c0,1.1-0.2,2.1-0.2,3.1c0,1.8,0.5,3.4,1.9,4.6c1.6,1.4,3.6,2.2,5.5,3.1c4.8,2.4,9.6,4.6,14.5,6.8
						c0.3,0.1,1-0.3,0.5-0.5c-4.3-1.9-8.6-3.8-12.8-5.9c-2-1-4.1-1.9-6-3.1c-2-1.3-2.6-3.2-2.5-5.6c0-1.1,0.6-2.4,0.1-3.4
						c-0.3-0.6-0.9-1-1.5-1.4c-1.9-1-4.1-1.5-6.1-2.1c-1.6-0.5-4.9-1.1-5.1-3.1C63.7,139.4,62.8,139.6,62.8,140L62.8,140z"/>
				</g>
			</g>
			<g>
				<g>
					<path class="st3" d="M46.2,155.1c2.6,0,5.4,0,8,0c1.5,0,2.9-0.1,4.3,0.1c1.3,0.2,2.4,0.9,3.4,1.5c0.6,0.3,1.9,0.8,2-0.3
						c0.1-0.5-0.8-2.5,0.1-2.5c0.4,0,0.9-0.5,0.3-0.5c-1,0-1.7,0.5-1.6,1.5c0,0.5,0.2,0.9,0.3,1.4v0.3c0.1,0.1,0.2,0.1,0.2-0.1
						c0-0.1-1.3-0.7-1.5-0.7c-1-0.6-2-1-3.1-1.2c-1.3-0.2-2.5-0.1-3.8-0.1c-2.8,0-5.6,0-8.4,0C46.2,154.6,45.6,155.1,46.2,155.1
						L46.2,155.1z"/>
				</g>
			</g>
			<g>
				<g>
					<path class="st4" d="M70.3,163.1c4.8,1.8,9.2,4.3,13.1,7.6c0.2,0.2,1-0.2,0.8-0.3c-3.9-3.3-8.4-6-13.2-7.7
						C70.8,162.7,70,163,70.3,163.1L70.3,163.1z"/>
				</g>
			</g>
			<g>
				<g>
					<path class="st3" d="M70,156.7c4.2,2.3,8.6,4.2,13.2,5.9c3.7,1.3,8.9,2,11.1,5.7c0.2,0.3,1,0,0.8-0.4
						c-2.1-3.5-6.6-4.2-10.1-5.4c-5-1.7-9.7-3.7-14.3-6.2C70.3,156.1,69.6,156.5,70,156.7L70,156.7z"/>
				</g>
			</g>
			<g>
				<g>
					<path class="st4" d="M78.2,174.9c-2.4-3.1-4.8-6.5-7.6-9.3c-2.7-2.8-6-5.3-9.3-7.5c-0.2-0.2-1,0.2-0.8,0.3
						c3.3,2.3,6.5,4.7,9.3,7.5c2.7,2.8,5.2,6.2,7.6,9.3C77.5,175.4,78.3,175.1,78.2,174.9L78.2,174.9z"/>
				</g>
			</g>
			<g>
				<g>
					<path class="st4" d="M49.7,159.2c5.2,0.7,10.5,0.6,15.7,1.1c5.4,0.5,10.3,2.3,14.8,5.3c0.2,0.2,1-0.2,0.7-0.4
						c-4.3-2.9-9-4.7-14.1-5.3c-5.5-0.6-11-0.5-16.5-1.2C50,158.7,49.2,159.1,49.7,159.2L49.7,159.2z"/>
				</g>
			</g>
			<g>
				<g>
					<path class="st4" d="M49.6,144.7c4.5,0.9,9.2,0.4,13.5,1.8c2.5,0.8,5.3,2,7.3,3.8c1.1,1,1.4,2.2,1.9,3.4
						c0.3,0.8,0.7,1.4,1.6,1.4c0.2,0,1-0.4,0.6-0.4c-1.4-0.1-1.5-2.2-2-3c-0.5-1-1.3-1.8-2.2-2.4c-2-1.5-4.5-2.6-6.9-3.3
						c-4.3-1.3-8.9-0.9-13.2-1.7C50.1,144.3,49.4,144.6,49.6,144.7L49.6,144.7z"/>
				</g>
			</g>
			<g>
				<g>
					<path class="st4" d="M75.1,166c4.4,0,8.8,0,13.2,0c2.1,0,4.2-0.1,6.3,0c1.7,0.1,3.4,0.3,4.3,2c0.2,0.3,1,0,0.8-0.4
						c-0.7-1.3-2.1-1.9-3.5-2.1c-2.1-0.3-4.1-0.1-6.2-0.1c-4.9,0-9.7,0-14.6,0C75,165.4,74.5,166,75.1,166L75.1,166z"/>
				</g>
			</g>
			<g>
				<g>
					<path class="st4" d="M47.1,157.2c6.1-1.2,12.5,2.1,17.5,5.3c2.7,1.8,5.4,3.8,7.8,6c1.2,1.1,2.4,2.2,3.4,3.3s1.9,2.3,2.9,3.2
						c1.5,1.4,3.4,1.4,5.3,1.5c2.5,0.2,5.2,0.5,7.7,0.7c0.4,0,0.9-0.6,0.3-0.6c-2.4-0.2-4.7-0.4-7.1-0.6s-4.6-0.1-6.3-2.1
						c-2-2.3-3.9-4.3-6.2-6.3c-4.9-4.3-10.6-8.2-16.9-10.3c-2.9-0.9-6-1.4-8.9-0.8C46.4,156.8,46.6,157.3,47.1,157.2L47.1,157.2z"/>
				</g>
			</g>
			<g>
				<g>
					<path class="st3" d="M52.7,160.3c2.4-0.2,4.6-0.6,6.8-1.3c2-0.6,3.9-1.2,6-1.5c2.4-0.3,5.3-0.1,7.5,0.9c1.7,0.7,2.7,3,4.8,2.5
						c0.5-0.1,0.4-0.7-0.1-0.5c-1.1,0.2-2.1-1.2-2.8-1.9c-0.9-0.7-2-1-3.1-1.3c-2.1-0.5-4.2-0.7-6.4-0.4c-1.9,0.2-3.6,0.8-5.4,1.3
						c-2.4,0.7-4.7,1.2-7.2,1.4C52.3,159.8,52.1,160.4,52.7,160.3L52.7,160.3z"/>
				</g>
			</g>
			<g>
				<g>
					<path class="st4" d="M85.1,159.8c3.9,0.5,7.4,3.2,8.8,7c0.1,0.3,1,0.1,0.9-0.2c-1.5-3.8-5.1-6.7-9.2-7.2c-0.2,0-0.5,0-0.6,0.2
						C84.9,159.6,84.9,159.8,85.1,159.8L85.1,159.8z"/>
				</g>
			</g>
			<g>
				<g>
					<path class="st4" d="M80,175.2c7.4-0.4,14.7-0.2,22.1,0.6c0.2,0,1-0.4,0.5-0.4c-7.3-0.8-14.8-1.1-22.2-0.6
						C80.1,174.8,79.4,175.2,80,175.2L80,175.2z"/>
				</g>
			</g>
			<g>
				<g>
					<path class="st3" d="M63.6,165.5c6.6-0.2,13.4-0.4,19.8,1.8c5.5,1.9,10.2,5.9,16.2,6.6c0.4,0,0.9-0.5,0.3-0.5
						c-6.3-0.7-11.3-5.1-17.2-6.9c-6.2-1.8-12.6-1.6-18.9-1.4C63.3,165,63,165.5,63.6,165.5L63.6,165.5z"/>
				</g>
			</g>
		</g>
		<polygon class="st6" points="13.4,110.5 77.3,78.5 75.2,134.6 13,166.8 		"/>
		<polygon class="st7" points="73.8,79.8 72.7,134.9 132.7,158.5 133.2,107.2 		"/>
		<polygon class="st8" points="135.4,111.7 68.8,77.4 73.9,75 141.4,108.8 		"/>
		<g>
			<g>
				<g>
					<path class="st3" d="M75.3,79.9c1,4.6,2.1,9.2,3,13.8c1,4.4,2.4,8.9,1.7,13.4c-0.6,4.2-2.6,8.1-4.4,12.1
						c-0.8,1.7-1.4,3.4-2.5,4.9c-0.9,1.1-1.9,2.2-2.7,3.2c-1.8,2.2-2.7,4.3-0.9,6.8c0.2,0.3,1,0,0.8-0.4c-2-2.6-0.4-4.8,1.5-7
						c0.9-1,1.9-2.1,2.5-3.1c1-1.5,1.7-3.2,2.4-4.9c1.6-3.5,3.3-7.1,4-11c0.8-4.2-0.3-8.4-1.2-12.5c-1.2-5.2-2.3-10.3-3.4-15.5
						C76.1,79.3,75.3,79.5,75.3,79.9L75.3,79.9z"/>
				</g>
			</g>
			<g>
				<g>
					<path class="st4" d="M68.7,89.7c3.9,6.5,4.7,14.1,4.4,21.5c-0.1,3.8-0.5,7.7-1,11.6c-0.5,3.1-2.1,5.8-3.8,8.4
						c-2,2.8-3.6,5.6-4.1,9.1c0,0.1,0.8,0,0.8-0.2c0.8-6.4,6.5-10.4,7.7-16.6c0.7-3.5,0.9-7.3,1.1-10.9c0.2-3.8,0.2-7.6-0.4-11.4
						c-0.6-4.1-1.9-8.1-4-11.8C69.4,89.3,68.6,89.6,68.7,89.7L68.7,89.7z"/>
				</g>
			</g>
			<g>
				<g>
					<path class="st4" d="M62.5,73.2c4.6,2.2,6.9,7.1,8.8,11.5c1.2,2.5,2.3,5.3,2.4,8.1c0.2,2.8-0.7,5.3-2.3,7.6
						c-2.5,3.9-5.8,7.3-5.3,12.4c0.2,2.3,1.2,4.5,2.4,6.4c1.4,2.1,3.5,3.4,4.8,5.5c0.5,0.8,1.2,2-0.1,2.2c-0.9,0.2-1.8,0.1-2.5,0.2
						c-1.1,0.1-2.5,0.3-3,1.4c-0.1,0.2,0.7,0.1,0.8-0.1c0.9-1.9,6.4,0.1,6.5-2.3c0-0.8-0.8-1.8-1.2-2.4c-0.8-1-1.8-1.9-2.6-2.7
						c-1.9-2-3.2-4.3-3.8-6.9s-0.3-5.1,0.8-7.4c1.1-2.3,2.7-4.2,4.1-6.3c1.3-2,2.3-4.1,2.4-6.6c0.1-3-1-5.9-2.2-8.6
						c-2.1-4.6-4.3-10-9.3-12.3C63,72.8,62.4,73.1,62.5,73.2L62.5,73.2z"/>
				</g>
			</g>
			<g>
				<g>
					<path class="st4" d="M81.6,90.7c-3.8,1.1-7.6,2.3-11.4,3.6c-1.4,0.5-3.4,0.9-4.6,2c-1.1,1.1-0.6,2.6-0.3,3.9
						c1,3.5,2.5,7,4.3,10.2c1,1.7,2,3.3,3.1,5c0.5,0.8,1.2,1.6,1.5,2.4c0.5,1.4-0.6,2.3-1.5,3c-1.7,1.6-3.4,3-5.1,4.6
						c-1,0.9-2,2.3-1.2,3.6c0.1,0.2,1,0,0.8-0.3c-1.3-2.1,2.7-4.6,4-5.7c0.8-0.7,1.6-1.5,2.5-2.2c0.6-0.5,1.3-1.1,1.6-1.9
						c0.5-1.8-1.4-3.6-2.3-4.9c-1.3-2-2.5-4-3.6-6.1c-1-2-1.9-4-2.6-6.2c-0.3-1-0.6-1.9-0.8-2.8c-0.4-1.7,0.1-2.7,1.8-3.3
						c4.6-1.8,9.3-3.2,14-4.6C82.2,91,82.1,90.6,81.6,90.7L81.6,90.7z"/>
				</g>
			</g>
			<g>
				<g>
					<path class="st4" d="M65.3,65.9c5,1.6,4.9,7.7,3.7,11.8c-1.4,5.1-2.9,10.1-3.5,15.5c-0.3,2.4-0.5,4.9-0.5,7.4
						c0,1.3,0,2.6,0.1,3.9c0,1,0.1,2,0.7,2.8c1.2,1.6,3.4,1.3,5.1,1.8c2,0.7,3.4,2.3,4.2,4c2.4,5.1-0.3,10.6-3.1,14.9
						c-0.2,0.3,0.6,0.2,0.8,0c2.5-3.7,5-8.2,4-12.9c-0.4-1.9-1.3-3.6-2.6-4.9c-1.4-1.3-3-1.7-4.9-2c-1.3-0.2-2.4-0.6-2.9-2
						c-0.4-1.1-0.3-2.5-0.3-3.6c-0.1-2.9,0.1-5.8,0.4-8.6c0.6-5.6,2.1-10.8,3.5-16.2c1.2-4.3,1.4-10.7-3.8-12.2
						C65.7,65.4,64.9,65.8,65.3,65.9L65.3,65.9z"/>
				</g>
			</g>
			<g>
				<g>
					<path class="st4" d="M83.6,95.4c-3.6,0.5-6.8,2.8-10.4,3.2c-1.9,0.2-3.9-0.2-5.3-1.7c-1.1-1.2-1.7-2.9-3.1-3.7
						c-2.7-1.5-4.2,1.4-4.9,3.5c-1.2,3.7-1.8,7.6-2.4,11.6c-0.7,4.4-1.4,8.8-2.9,12.9c-0.1,0.3,0.7,0.2,0.8-0.1
						c1.7-4.4,2.4-9,3-13.6c0.4-2.4,0.7-4.6,1.2-6.9c0.5-2.1,0.9-4.6,2.1-6.4c2.1-3.2,4.4,1.9,5.6,3c1.1,1.2,2.6,1.6,4.2,1.7
						c4.3,0.2,7.7-2.6,11.9-3.2C83.8,95.8,84.1,95.3,83.6,95.4L83.6,95.4z"/>
				</g>
			</g>
			<g>
				<g>
					<path class="st4" d="M70.5,84.4c0.1,8.4,0.4,16.9,0.4,25.3c0.1,8.1-0.5,16.1-2.5,24c-1.1,4.4-2.4,8.8-3.9,13.1
						c-0.1,0.3,0.7,0.2,0.8-0.1c2.4-7.6,4.9-15.4,5.8-23.4c1-8.1,0.5-16.5,0.4-24.6c-0.1-4.8-0.2-9.6-0.3-14.4
						C71.4,84,70.5,84.1,70.5,84.4L70.5,84.4z"/>
				</g>
			</g>
			<g>
				<g>
					<path class="st4" d="M60.7,109.4c1.6,8.9,7.7,16.8,7.4,26.1c-0.1,2.4-0.8,4.5-1.6,6.8c-0.4,1.1-0.8,2.2-1,3.3
						c-0.2,0.8-0.4,1.2-1.3,1.3c-1,0.1-4.4-0.3-4.1,1.6c0,0.2,0.9,0,0.8-0.2c-0.2-1.3,2.2-0.9,2.9-1s1.7-0.2,2.2-0.9
						c0.4-0.5,0.4-1.2,0.6-1.8c0.3-1.1,0.7-2.2,1.1-3.2c0.7-2,1.2-3.9,1.3-6c0.4-9.3-5.7-17.1-7.4-26.1
						C61.5,108.9,60.7,109.1,60.7,109.4L60.7,109.4z"/>
				</g>
			</g>
			<g>
				<g>
					<path class="st4" d="M55.2,61.2c0.8,3.4,3.7,5.9,6.2,8.2c2.5,2.4,5.6,5,5.8,8.6c0.2,2.7-0.7,5.5-1.6,8s-1.8,4.9-2.9,7.3
						c-1.2,2.4-2.5,4.6-4.2,6.6c-0.8,1-1.8,1.8-2.6,2.6c-0.7,0.7-1.4,1.4-1.5,2.4c-0.2,1.5,0.6,2.9,1.2,4.2c0.6,1.3,1.3,2.5,2,3.8
						c1.5,2.6,3.2,5.1,5.2,7.4c0.1,0.2,0.9-0.1,0.8-0.3c-1.9-2.3-3.4-4.6-4.9-7.1c-1.3-2.2-2.7-4.6-3.3-7.2c-0.6-2.8,2.4-4.4,4-6.3
						c1.6-1.9,2.9-3.9,4-6.2c1.2-2.4,2.2-4.8,3-7.3c0.9-2.4,1.6-4.8,1.8-7.3c0.3-3.7-2-6.4-4.5-8.8c-2.8-2.7-6.5-5.4-7.4-9.4
						C56,60.8,55.2,61,55.2,61.2L55.2,61.2z"/>
				</g>
			</g>
			<g>
				<g>
					<path class="st4" d="M71.6,77.9c1.4,4.2-0.1,8.6-1.3,12.6c-1.2,4.1-2.5,8.2-4.1,12.2c-0.8,2.2-1.7,4.3-2.5,6.4
						c-0.4,1-0.9,2-1.3,2.9c-0.4,0.8-0.9,1.7-1,2.5c-0.3,1.8,1.2,3.4,2.1,4.9c1.2,1.9,2.4,3.7,3.5,5.7c0.2,0.3,1,0,0.8-0.3
						c-1.2-1.9-2.4-3.7-3.5-5.7c-0.6-1-1.4-2-1.9-3c-0.5-1.3,0.1-2.4,0.6-3.6c1.7-3.7,3.2-7.4,4.6-11.2c1.5-3.9,2.7-7.8,3.9-11.9
						c1.1-3.8,2.3-7.9,1-11.9C72.3,77.3,71.5,77.6,71.6,77.9L71.6,77.9z"/>
				</g>
			</g>
			<g>
				<g>
					<path class="st4" d="M58.6,79.7c3.2,7.5,6.5,15.2,7.6,23.3c0.6,4,0.5,8.1-0.4,12.2c-0.9,3.9-2.5,7.6-3.4,11.6
						c-0.9,3.9-0.9,8,1.2,11.6c0.1,0.2,0.9,0,0.8-0.2c-4.2-7.2,0.3-15.2,2.1-22.4c1.9-7.7,0.5-15.8-2-23.2c-1.5-4.4-3.2-8.7-5.1-13
						C59.3,79.3,58.5,79.5,58.6,79.7L58.6,79.7z"/>
				</g>
			</g>
			<g>
				<g>
					<path class="st4" d="M53.7,107.6c3.5,7.2,1.8,15.3,3.1,22.8c1.3,6.8,5.8,12.2,8.3,18.4c0.1,0.3,0.9,0,0.8-0.2
						c-2.5-6.3-7.1-11.7-8.3-18.4c-1.4-7.5,0.4-15.7-3.1-22.8C54.3,107.1,53.5,107.3,53.7,107.6L53.7,107.6z"/>
				</g>
			</g>
			<g>
				<g>
					<path class="st4" d="M78.4,83.5c-4.9,6.6-10,13.4-12.4,21.4c-1.4,4.4-1.5,8.8-1.4,13.4c0.1,4.4,0.1,8.7-1.1,12.9
						c-1.3,4.8-3.6,9.3-6.9,13.1c-0.3,0.4,0.5,0.4,0.7,0.2c5.5-6.5,8.2-14.6,8.2-23c0-4.7-0.5-9.3,0.6-13.9c0.9-4.2,2.7-8.2,4.9-12
						c2.5-4.2,5.4-8.1,8.2-12C79.4,83.3,78.6,83.3,78.4,83.5L78.4,83.5z"/>
				</g>
			</g>
			<g>
				<g>
					<path class="st5" d="M55,62.9c-3.6,7.9,3.8,15.2,3.7,23c0,5.1-1.4,10.4-2.6,15.3c-1.4,5-2.8,10-4,15c-1.3,5.6-2.1,11.3-1.7,17
						c0,0.4,0.9,0.2,0.8-0.2c-0.8-10.4,2.5-20.3,5.2-30.2c1.4-4.9,2.5-9.9,3-15c0.4-4.2-0.8-7.9-2.4-11.9c-1.7-4.2-3.3-8.6-1.3-13
						C56,62.5,55.2,62.5,55,62.9L55,62.9z"/>
				</g>
			</g>
			<g>
				<g>
					<path class="st3" d="M74.7,84.7c4.2,8.6,4.2,19.1-0.3,27.6c-2.3,4.3-5.6,7.9-8.5,11.9c-2.9,3.8-5.2,8-6.7,12.6
						c-1.6,5.1-2,10.5-1.3,15.7c0,0.3,0.9,0.1,0.8-0.2c-1.3-10.1,1.7-19.9,7.7-27.9c2.9-3.9,6.3-7.5,8.6-11.9
						c2.2-4,3.4-8.5,3.5-13.1c0.2-5.1-0.9-10.3-3.1-14.9C75.4,84.2,74.6,84.5,74.7,84.7L74.7,84.7z"/>
				</g>
			</g>
			<g>
				<g>
					<path class="st4" d="M62.8,69.1c1.2,2.6,2.5,5.4,2.9,8.3c0.6,3,0,5.9-1.5,8.6c-1.2,2.2-2.4,4.1-2.6,6.7
						c-0.3,2.3-0.2,4.9-2.3,6.5c-0.2,0.1,0.6,0,0.8-0.1c1.8-1.3,2-3.4,2.3-5.4c0.2-1.4,0.3-2.7,0.8-4s1.3-2.5,2-3.7
						c1.4-2.5,2-5.2,1.6-8c-0.4-3.1-1.8-6.1-3-8.9C63.5,68.8,62.7,69,62.8,69.1L62.8,69.1z"/>
				</g>
			</g>
			<g>
				<g>
					<path class="st4" d="M61.3,71.3c-0.7,4.1-3.2,7.4-5.3,11s-3.1,7.6-3.7,11.8c-0.7,4.4-1.2,9-1.2,13.4c0,4,1,8.1,4.2,10.8
						c0.2,0.1,0.9-0.2,0.8-0.3c-3.4-2.8-4.2-7.4-4.1-11.7c0.1-4.4,0.6-8.9,1.3-13.3c0.7-4.1,2-8,4-11.6c2-3.3,4.2-6.5,4.9-10.4
						C62.2,71,61.4,71,61.3,71.3L61.3,71.3z"/>
				</g>
			</g>
			<g>
				<g>
					<path class="st4" d="M82.9,81.1c-2,0.9-2.4,4-2.6,5.9c-0.6,3.6-0.8,7.3-1.1,10.9c-0.2,1.7-0.4,3.3-0.8,4.9
						c-0.2,1.1-0.5,2.4-1.3,3.1c-0.5,0.6-1.3,0.6-2.1,0.7c-1.2,0.3-2.5,0.6-3.5,1.2c-2.5,1.2-3.6,3.2-4.1,5.9
						c-1.5,7.8-2.2,15.9-2.8,23.7c0,0.3,0.8,0.1,0.8-0.1c0.6-6.9,1.4-13.8,2.4-20.7c0.5-3.1,0.7-6.8,3.9-8.4c1.2-0.7,2.5-1,3.9-1.3
						c0.6-0.1,1.3-0.2,1.8-0.6c1.8-1.2,2.1-4.3,2.3-6.3c0.5-3.5,0.7-7.1,1.1-10.6c0.2-1.8,0.4-3.4,0.8-5.1c0.2-1,0.6-2.6,1.7-3
						C83.7,81.2,83.2,81,82.9,81.1L82.9,81.1z"/>
				</g>
			</g>
			<g>
				<g>
					<path class="st3" d="M59.2,67.8c0.8,2.4,1.6,4.6,2.4,7c0.8,2.3,1.8,4.6,2.3,7c0.4,2.3-0.4,4.4-0.5,6.7
						c-0.1,2.4,0.5,4.9,1.1,7.3c0.1,0.3,0.9,0,0.8-0.2c-0.6-2.3-1.1-4.6-1.1-7.1c0-2.4,0.9-4.5,0.5-6.9c-0.4-2.3-1.4-4.5-2.2-6.8
						c-0.8-2.4-1.6-4.8-2.4-7.2C60,67.3,59.2,67.6,59.2,67.8L59.2,67.8z"/>
				</g>
			</g>
			<g>
				<g>
					<path class="st4" d="M56.4,106.2c-0.2,6.2-1.5,12.2-3.8,17.8c-0.1,0.3,0.7,0.2,0.8-0.1c2.4-5.7,3.5-11.8,3.7-17.8
						C57.2,105.8,56.4,105.9,56.4,106.2L56.4,106.2z"/>
				</g>
			</g>
			<g>
				<g>
					<path class="st3" d="M63.6,103.3c-1,5.8-1.6,11.6-1.7,17.3c-0.1,4.6,1.2,10.8-2.3,14.5c-0.3,0.4,0.4,0.5,0.7,0.2
						c3.3-3.7,2.4-9.3,2.4-13.9c0-6.2,0.6-12.2,1.7-18.3C64.5,102.9,63.6,103,63.6,103.3L63.6,103.3z"/>
				</g>
			</g>
			<g>
				<g>
					<path class="st4" d="M46.2,118.8c7-10.3,12.2-21.6,15.7-33.4c0.1-0.3-0.7-0.2-0.8,0.1c-3.4,11.9-8.7,23.1-15.6,33.3
						C45.2,119.1,46,119.1,46.2,118.8L46.2,118.8z"/>
				</g>
			</g>
			<g>
				<g>
					<path class="st4" d="M56,73.5c2.8,14.7,5.7,30.2,1.4,44.9c-0.1,0.2,0.8,0.1,0.8-0.1c4.3-14.8,1.5-30.3-1.4-45
						C56.8,73.1,55.9,73.3,56,73.5L56,73.5z"/>
				</g>
			</g>
			<g>
				<g>
					<path class="st4" d="M72.4,68c1,7.8,1.2,15.8,0.5,23.6c-0.3,3.2-0.4,7-1.9,10c-0.7,1.5-1.9,2.3-3,3.3c-0.8,0.7-1.4,1.4-1.1,2.5
						c0.1,0.4,0.9,0.2,0.8-0.2c-0.4-1.6,1.7-2.4,2.5-3.2c1-0.9,1.6-2.2,2-3.3c1.1-3.1,1.3-6.7,1.6-9.9c0.6-7.6,0.4-15.3-0.6-22.8
						C73.1,67.4,72.4,67.6,72.4,68L72.4,68z"/>
				</g>
			</g>
			<g>
				<g>
					<path class="st4" d="M52.3,128.4c1.9,4.8,3.7,9.6,5.7,14.4c1,2.4,1.9,4.7,0.7,7.2c-0.8,1.7-2,3-2.4,4.9
						c-0.1,0.4,0.8,0.3,0.8-0.1c0.4-2.1,2-3.6,2.6-5.6c0.8-2.2,0-4.2-0.8-6.3c-2-4.9-3.9-9.9-5.8-14.8
						C52.9,127.8,52.2,128,52.3,128.4L52.3,128.4z"/>
				</g>
			</g>
			<g>
				<g>
					<path class="st4" d="M55,112.6c1.7,5,3.3,10,5,15c0.8,2.4,1.7,4.7,2.4,7.1c0.6,2,1.1,4.3-0.5,6c-0.2,0.2,0.6,0.1,0.8,0
						c1.3-1.4,1.3-3.2,0.9-4.9c-0.6-2.4-1.6-4.9-2.4-7.4c-1.8-5.3-3.5-10.6-5.3-15.9C55.7,112.1,54.9,112.4,55,112.6L55,112.6z"/>
				</g>
			</g>
			<g>
				<g>
					<path class="st4" d="M47.5,83.8c3.4,5.9,4.9,12.7,4.4,19.5c-0.2,3.4-1,6.9-2.2,10c-0.6,1.6-1.4,3.1-2.2,4.6
						c-0.9,1.4-1.9,2.7-2,4.4c-0.1,2.2,0.8,4.4,1.3,6.5c0.6,2.4,1.1,4.7,1.7,7.1c0,0.2,0.9-0.1,0.8-0.2c-1-4-2.2-8-2.8-12.1
						c-0.4-2.1,0.4-3.6,1.5-5.3c0.9-1.5,1.7-2.9,2.3-4.5c2.5-6.1,3.1-12.9,2-19.4c-0.7-3.8-2.1-7.4-3.9-10.8
						C48.1,83.5,47.4,83.7,47.5,83.8L47.5,83.8z"/>
				</g>
			</g>
			<g>
				<g>
					<path class="st3" d="M55.8,77c2.5,6.2,4.4,12.6,5.6,19.2c0.6,3.2,1.1,6.5,1.3,9.8c0.1,2-0.4,3.2-1.2,4.9
						c-0.4,1-0.6,1.8-0.1,2.7c0.1,0.2,1,0,0.8-0.3c-0.8-1.4,0.4-2.8,0.9-4.1s0.5-2.5,0.3-3.8c-0.3-3.2-0.7-6.6-1.4-9.8
						c-1.2-6.4-3-12.6-5.5-18.7C56.5,76.4,55.7,76.7,55.8,77L55.8,77z"/>
				</g>
			</g>
			<g>
				<g>
					<path class="st4" d="M65.8,121.7c1,4.7-0.8,9.7-4.5,12.7c-0.4,0.3,0.5,0.3,0.7,0.1c3.8-3.1,5.7-8.2,4.7-13
						C66.5,121.2,65.7,121.4,65.8,121.7L65.8,121.7z"/>
				</g>
			</g>
			<g>
				<g>
					<path class="st4" d="M46.4,121.7c3.2,8.2,5.9,16.7,7.6,25.4c0,0.2,0.9,0,0.8-0.2c-1.9-8.6-4.4-17.2-7.6-25.4
						C47.1,121.2,46.3,121.5,46.4,121.7L46.4,121.7z"/>
				</g>
			</g>
			<g>
				<g>
					<path class="st4" d="M47.4,127.3c3,4.7,5.6,9.6,7.7,14.8c1,2.4,2,4.9,2.7,7.4c0.4,1.4,0.9,2.6,1.2,4c0.2,0.8,0.4,1.7,1.3,1.9
						c0.3,0.1,1-0.4,0.5-0.5c-1-0.2-1.3-2.9-1.6-3.7c-0.4-1.3-0.8-2.5-1.3-3.8c-0.9-2.4-1.8-4.8-2.8-7.2c-2.1-4.6-4.4-9-7.2-13.3
						C47.8,126.6,47.1,126.9,47.4,127.3L47.4,127.3z"/>
				</g>
			</g>
			<g>
				<g>
					<path class="st4" d="M61.6,124.5c-5,0.6-8.7,4.1-11.2,8.3c-1.4,2.4-2.5,5.2-3.3,7.9c-0.8,2.6-1.1,5.4,0.2,7.9
						c0.1,0.2,0.9-0.1,0.8-0.2c-2.2-4.5,0.2-9.9,2.2-14c2.2-4.6,5.8-9.1,11.2-9.7C61.8,124.7,62.2,124.4,61.6,124.5L61.6,124.5z"/>
				</g>
			</g>
			<g>
				<g>
					<path class="st4" d="M60.4,133c-1.2,3.7-1.8,7.6-1.7,11.6c0.1,3.7,1.1,7.8-0.9,11.4c-0.2,0.4,0.6,0.3,0.8,0
						c1.8-3.2,1.1-6.9,1-10.3c-0.2-4.3,0.4-8.6,1.7-12.7C61.3,132.6,60.5,132.7,60.4,133L60.4,133z"/>
				</g>
			</g>
			<g>
				<g>
					<path class="st3" d="M51.2,99.2c2.6,7,5.3,14.2,5.6,21.8c0.3,7.4-2.9,14.9-1.3,22.2c0,0.2,0.9,0,0.8-0.2
						c-1.7-7.4,1.6-14.8,1.3-22.2c-0.3-7.5-2.9-14.7-5.6-21.8C51.9,98.8,51.1,99.1,51.2,99.2L51.2,99.2z"/>
				</g>
			</g>
		</g>
		<g>
			<g>
				<g>
					<path class="st3" d="M70.2,133.5c4.5,0.5,9,1,13.6,1.5c4.3,0.5,8.9,0.5,12.9,2.4c7,3.1,11.2,10.1,17.9,13.6
						c3.4,1.8,7.4,2.6,11.1,1.5c0.6-0.2,0.5-0.9-0.2-0.7c-7.9,2.6-14.8-4.4-20.1-9.2c-2.4-2.3-5.1-4.4-8.2-5.8
						c-3.6-1.6-7.7-1.8-11.6-2.2c-5-0.5-10-1.1-15-1.6C70.1,132.8,69.5,133.4,70.2,133.5L70.2,133.5z"/>
				</g>
			</g>
			<g>
				<g>
					<path class="st4" d="M77.6,142.8c9.1-2.1,18.2,1.1,26.6,4.6c8.5,3.7,17,7.8,25.4,11.8c0.4,0.2,1.3-0.3,0.8-0.6
						c-8.9-4.1-17.7-8.5-26.8-12.3c-8.2-3.5-17.2-6.2-26.2-4.1C76.9,142.3,77.1,143,77.6,142.8L77.6,142.8z"/>
				</g>
			</g>
			<g>
				<g>
					<path class="st4" d="M65.8,147.5c1.2-1.3,2-2.7,2.6-4.3c0.7-1.5,1.5-3.2,3-4c1.1-0.6,2.4-0.5,3.7-0.6c1.3-0.1,2.5-0.1,3.7-0.1
						c2.4,0.2,4.8,0.8,6.8,2.3c3.1,2.4,4.7,6.4,7.6,9c3,2.6,7.3,3.3,11.2,2.4c2.4-0.5,4.2-1.7,6.4-2.5c3.4-1.5,6,0.2,8.6,2.4
						c0.2,0.2,1.2-0.2,1-0.4c-1.8-1.4-3.6-2.9-6-3c-2.2-0.2-4.1,0.9-6,1.9c-4.8,2.4-10.7,2.5-14.7-1.5c-3.1-3.1-4.9-7.7-9.1-9.7
						c-2.1-1-4.3-1.3-6.5-1.3c-2.1,0-4.4,0-6.5,0.6c-3.9,1.3-4.5,6.2-7,9C64.6,147.8,65.6,147.7,65.8,147.5L65.8,147.5z"/>
				</g>
			</g>
			<g>
				<g>
					<path class="st4" d="M82.2,131.2c-0.2,4.1-0.3,8.2-0.2,12.2c0,1.5-0.3,3.7,0.8,4.9c0.9,1,2.5,1,3.8,1.1
						c3.9,0.2,7.7-0.3,11.6-1.1c2-0.4,3.9-0.9,5.9-1.5c1.2-0.3,2.4-0.7,3.3,0.4c0.6,0.9,1,2.1,1.4,3c0.8,1.8,1.5,3.7,2.4,5.5
						c0.7,1.2,1.7,2,3,1.7c0.6-0.2,0.5-0.7-0.2-0.6c-1.2,0.3-2-1.4-2.4-2.2c-0.5-1.1-1-2.3-1.5-3.4c-0.4-1-0.9-2-1.3-2.9
						c-0.3-0.7-0.6-1.6-1.3-2.1c-1.4-1-3.1-0.2-4.5,0.2c-2.4,0.7-4.9,1.3-7.3,1.7s-5,0.7-7.4,0.6c-1.1,0-2.2,0-3.2-0.2
						c-1.4-0.3-1.9-1.2-2-2.4c-0.4-5-0.2-10.1,0.1-15.1C83.3,130.7,82.2,130.9,82.2,131.2L82.2,131.2z"/>
				</g>
			</g>
			<g>
				<g>
					<path class="st4" d="M59.7,142.6c1.1-1.6,2.8-2.3,4.7-2.3c1.1,0,2.2,0.5,3.3,0.5c0.3,0,1-0.1,1.1-0.4c0.1-0.2-0.2-0.6-0.1-0.7
						c-0.3,0.1-0.6,0.2-0.9,0.3c0.4,0,1.3,0.9,1.6,1.1c0.9,0.6,1.7,1.2,2.5,1.7c1.8,1.1,3.5,2.1,5.3,3c3.5,1.8,7.2,3.3,10.9,4.5
						c2.6,0.9,5.7,1.9,7.4-1.1c0.9-1.5,1.5-3,3-4c1.7-1.2,3.8-1.4,5.8-1.1c4.3,0.8,7.6,4.3,10.2,7.6c0.2,0.3,1.1-0.2,1-0.3
						c-2.9-3.8-6.7-7.7-11.8-7.9c-1.9-0.1-3.7,0.3-5.4,1.2c-1.9,1-2.7,2.5-3.7,4.4c-0.5,0.9-1,1.7-2.2,1.7c-0.8,0-1.7-0.3-2.4-0.6
						c-1.5-0.4-2.9-0.9-4.3-1.5c-2.9-1.1-5.8-2.4-8.4-3.8c-2.5-1.4-5-2.8-7.4-4.5c-0.3-0.2-2-1.6-2.4-0.5c0,0.1,0.1,0.3,0.1,0.4
						c0,0.1,0,0.1,0,0.2c0.5-0.1,0.5-0.2,0-0.2c-0.2,0-0.3-0.1-0.5-0.1c-1.1-0.3-2.3-0.4-3.4-0.3c-2.1,0.2-4,1.1-5.2,2.7
						C58.6,142.9,59.5,142.9,59.7,142.6L59.7,142.6z"/>
				</g>
			</g>
			<g>
				<g>
					<path class="st4" d="M87.2,130.9c-0.7,3.7,0.6,7.5-0.3,11.3c-0.5,1.8-1.5,3.5-3.1,4.2c-1.5,0.6-3.2,0.7-4.4,1.9
						c-2.7,2.5,1.6,5.2,3.5,6.5c2.9,1.9,6,3.4,9.1,5c3.7,1.9,7.4,3.9,10.8,6.6c0.3,0.2,1.2-0.2,1-0.4c-5.4-4.4-12-6.9-17.8-10.3
						c-2-1.2-9.6-5.4-4.8-7.7c1.5-0.7,3.1-0.7,4.5-1.7c1-0.8,1.8-1.9,2.2-3c1.5-3.9-0.1-8.1,0.6-12.2
						C88.4,130.4,87.3,130.5,87.2,130.9L87.2,130.9z"/>
				</g>
			</g>
			<g>
				<g>
					<path class="st4" d="M72.9,139.6c8.1,2.5,16.2,5,24.3,7.6c7.7,2.5,15.1,5.6,22.1,10c3.8,2.4,7.4,5,11,7.6
						c0.4,0.3,1.3-0.3,0.8-0.6c-6.4-4.6-12.7-9.2-19.9-12.6c-7.4-3.6-15.6-5.8-23.4-8.3c-4.7-1.5-9.5-2.9-14.2-4.5
						C73,138.7,72.4,139.4,72.9,139.6L72.9,139.6z"/>
				</g>
			</g>
			<g>
				<g>
					<path class="st4" d="M51.4,144.1c3.2,0.3,5.7-1,8.4-2.5c1.5-0.9,2.9-1.5,4.7-1.2c2.5,0.3,4.8,1.8,6.8,3.2
						c3.7,2.6,7.3,5.7,10.2,9.2c1.5,1.9,2.7,3.8,3.7,6c0.9,1.9,1.9,3.1,4.1,3.1c2.5,0.1,5.3-0.5,7.8-1c2.7-0.6,5.5-1.4,8.2-2.4
						c0.7-0.3,0-0.5-0.4-0.3c-2.5,1-5.1,1.8-7.7,2.4c-1.3,0.3-2.5,0.5-3.8,0.7c-1.4,0.2-2.9,0.5-4.3,0.3c-2.4-0.4-3-3.4-4.1-5.4
						c-1.1-1.8-2.3-3.4-3.7-5c-2.9-3.2-6.5-6.2-10.1-8.5c-2.7-1.8-6.1-3.3-9.4-2.3c-1.4,0.4-2.5,1.2-3.8,1.9
						c-1.9,1.1-3.7,1.8-5.9,1.6C51.8,143.5,50.9,144,51.4,144.1L51.4,144.1z"/>
				</g>
			</g>
			<g>
				<g>
					<path class="st4" d="M67,136.5c4.5,0.1,8.2,2.9,11.8,5.4c3.6,2.5,7.2,5.2,10.5,7.9c1.8,1.5,3.4,2.8,5.1,4.4
						c0.9,0.8,1.7,1.6,2.5,2.3c0.6,0.6,1.3,1.3,2.1,1.6c1.5,0.6,3.2-0.1,4.7-0.5c2.4-0.6,4.6-1.1,7-1.7c0.6-0.2,0.5-0.8-0.2-0.6
						c-2.2,0.5-4.3,1.1-6.5,1.6c-1.1,0.3-2.3,0.7-3.4,0.8c-1.5,0-2.4-1.1-3.3-2c-3-2.8-6.2-5.5-9.4-8c-3.3-2.6-6.8-5.2-10.3-7.5
						c-3.1-2.1-6.5-4.1-10.4-4.2C67,135.8,66.3,136.5,67,136.5L67,136.5z"/>
				</g>
			</g>
			<g>
				<g>
					<path class="st4" d="M64.9,149.3c8-0.7,16.3-1.4,24.2,0.1c3.9,0.8,7.8,2.1,11.3,4.1c3.5,2.1,6.6,4.9,10.1,7
						c3.5,2.2,7.6,3.4,11.8,2.5c0.6-0.1,0.5-0.8-0.2-0.6c-8.7,1.9-15.3-6.5-22.1-10.2c-6.7-3.5-14.4-4.4-21.9-4.4
						c-4.4,0-8.7,0.4-13,0.8C64.4,148.7,64.2,149.4,64.9,149.3L64.9,149.3z"/>
				</g>
			</g>
			<g>
				<g>
					<path class="st4" d="M61.6,146.4c2.1-0.3,3.5-1.2,5.1-2.4c0.6-0.4,1.2-0.9,2-0.8c1.3,0.1,2.4,1.4,3.2,2.2
						c1.9,1.9,3.3,3.8,5.7,5.1c2.1,1,4.8,1.8,5.6,4.2c0.2,0.5,1.2,0.2,1-0.3c-0.7-2.3-3-3.2-5-4.1c-1.5-0.7-2.7-1.5-3.9-2.5
						c-1.1-1.1-2-2.3-3-3.2c-1.4-1.3-3.1-2.5-5-1.6c-0.8,0.4-1.4,0.9-2,1.4c-1.1,0.8-2.3,1.3-3.5,1.5
						C61.1,145.7,60.9,146.5,61.6,146.4L61.6,146.4z"/>
				</g>
			</g>
			<g>
				<g>
					<path class="st4" d="M62.7,148.3c1,0.5,2.1,1,2.5,2.2c0.3,1.2,0.9,2,1.8,2.8c3,3.1,6.9,5.3,10.8,7.3c3.9,1.9,8,3.9,12.2,5
						c3.6,1,7.5,0.8,10.9-1.2c0.4-0.3-0.6-0.2-0.8,0c-4.2,2.5-9.3,1.1-13.4-0.7c-3.7-1.5-7.4-3.1-10.9-5c-3.1-1.7-6.8-3.9-8.8-7
						c-0.4-0.7-0.5-1.4-0.8-2c-0.4-0.9-1.6-1.4-2.4-1.8C63.4,147.8,62.5,148.2,62.7,148.3L62.7,148.3z"/>
				</g>
			</g>
			<g>
				<g>
					<path class="st4" d="M73.5,126.9c0.2,2.2,3.4,3.5,5,4.3c3.2,1.7,6.6,2.9,9.9,4.4c1.5,0.7,3,1.4,4.4,2.3
						c0.9,0.6,2.1,1.3,2.4,2.3c0.3,0.7,0,1.6-0.1,2.3c-0.1,1.4-0.2,2.7,0.1,4c0.5,2.7,2.5,4.3,4.9,5.5c6.9,3.5,13.9,6.9,21,9.9
						c0.4,0.2,1.2-0.4,0.6-0.7c-6.4-2.7-12.6-5.7-18.8-8.7c-2.6-1.4-5.8-2.5-6.6-5.7c-0.4-1.5-0.3-2.9-0.2-4.4
						c0.1-0.7,0.3-1.6,0.1-2.3c-0.6-2.2-3.8-3.4-5.5-4.2c-3.1-1.6-6.4-2.8-9.6-4.3c-1.6-0.7-3.2-1.5-4.7-2.4c-0.9-0.6-2-1.4-2.1-2.4
						C74.5,126.2,73.5,126.4,73.5,126.9L73.5,126.9z"/>
				</g>
			</g>
			<g>
				<g>
					<path class="st3" d="M58.9,149.2c1.3,0,2.5-0.4,3.4-1.4c1.2-1.3,1.5-3,3.5-3c1.6,0,3,0.1,4.5,0.8c1.2,0.6,2.4,1.3,3.6,1.8
						c2.5,0.9,5,1.1,7.5,1.4c0.2,0,1.2-0.4,0.7-0.4c-2.9-0.3-5.9-0.5-8.5-1.9c-1.1-0.5-2.2-1.2-3.3-1.6c-1.3-0.4-2.5-0.5-3.8-0.5
						s-2.6,0.3-3.5,1.3c-1.1,1.2-1.5,3-3.4,3.1C59.3,148.8,58.4,149.2,58.9,149.2L58.9,149.2z"/>
				</g>
			</g>
			<g>
				<g>
					<path class="st4" d="M88.9,159.8c5.8,2.1,11.1,5.2,15.7,9.1c0.2,0.2,1.2-0.2,1-0.4c-4.7-4-10-7.2-15.8-9.2
						C89.5,159.2,88.6,159.6,88.9,159.8L88.9,159.8z"/>
				</g>
			</g>
			<g>
				<g>
					<path class="st3" d="M88.4,152c5.1,2.7,10.5,5.1,16,7.1c4.4,1.6,10.6,2.4,13.1,6.8c0.2,0.3,1.1-0.1,1-0.3
						c-2.5-4.2-7.8-5.1-12.1-6.5c-5.9-2-11.7-4.5-17.1-7.4C89.1,151.4,88.3,151.9,88.4,152L88.4,152z"/>
				</g>
			</g>
			<g>
				<g>
					<path class="st4" d="M98.4,173.7c-7.5-9.8-16.6-18.3-26.8-25.4c-0.3-0.2-1.2,0.2-1,0.4c10.2,7,19.2,15.6,26.8,25.4
						C97.6,174.3,98.6,174,98.4,173.7L98.4,173.7z"/>
				</g>
			</g>
			<g>
				<g>
					<path class="st4" d="M63.4,154.3c6.5,0.9,13,0.9,19.4,1.8c6.6,0.9,12.5,2.9,17.9,6.8c0.4,0.3,1.3-0.3,0.8-0.6
						c-5.4-3.7-11.3-5.9-17.7-6.8c-6.7-1-13.4-1-20.1-1.9C63.2,153.4,62.7,154.2,63.4,154.3L63.4,154.3z"/>
				</g>
			</g>
			<g>
				<g>
					<path class="st4" d="M63.2,136.9c5.7,1.1,11.7,1,17.2,2.8c3,1.1,6.6,2.4,8.9,4.8c1.2,1.2,1.6,2.5,2.2,4c0.4,0.9,1,1.7,2,1.7
						c0.4,0,1.1-0.6,0.4-0.6c-1.5,0-1.8-2.7-2.3-3.7c-0.6-1.1-1.5-2-2.4-2.7c-2.4-1.9-5.5-3.1-8.4-4.1c-5.4-1.8-11.3-1.7-16.9-2.7
						C63.5,136.3,62.6,136.8,63.2,136.9L63.2,136.9z"/>
				</g>
			</g>
			<g>
				<g>
					<path class="st4" d="M94.8,163.1c5.2,0,10.4,0,15.6,0c2.5,0,5.1-0.1,7.6,0c2,0.1,4.1,0.4,5.1,2.3c0.2,0.4,1.2,0,1-0.5
						c-0.9-1.6-2.5-2.2-4.2-2.4c-2.5-0.4-5-0.1-7.5-0.1c-5.9,0-11.7,0-17.5,0C94.3,162.4,94.1,163.1,94.8,163.1L94.8,163.1z"/>
				</g>
			</g>
			<g>
				<g>
					<path class="st3" d="M61.2,151c7.1-0.4,14.2-0.1,21.2,1c1.7,0.3,3.3,0.6,5.1,0.9c1.6,0.3,3.4,0.6,4.9,1.3
						c1.9,0.9,3,3.5,5.4,2.9c0.4-0.1,0.9-0.6,0.2-0.4c-1.4,0.3-2.4-1.4-3.3-2.2c-1-0.9-2.3-1.2-3.5-1.6c-3.2-0.8-6.6-1.4-9.9-1.9
						c-6.5-0.9-13-1.1-19.5-0.7C61.3,150.6,60.5,151.1,61.2,151L61.2,151z"/>
				</g>
			</g>
			<g>
				<g>
					<path class="st4" d="M106.6,155.8c4.7,0.6,8.9,3.8,10.6,8.3c0.1,0.3,1.2,0,1-0.3c-1.8-4.6-6.1-7.9-11-8.5c-0.2,0-0.6,0-0.7,0.2
						C106.4,155.6,106.4,155.7,106.6,155.8L106.6,155.8z"/>
				</g>
			</g>
		</g>
		<g>
			<g>
				<g>
					<path class="st3" d="M63.9,144.9c1.5,0.1,2.9,0.1,4.4-0.4c1.1-0.4,2.2-0.9,3.2-1.4c1.7-0.7,3.3-0.9,5.1-0.7
						c2.2,0.2,4.4,0.5,6.6,1.2c7.7,2.4,12.2,10.1,19.2,14c3.5,2,7.6,3,11.7,1.8c0.6-0.2,0.4-1-0.2-0.8c-8.2,2.7-15.1-4.7-20.7-9.7
						c-2.7-2.4-5.7-4.8-9.2-6c-2-0.7-3.9-1-5.9-1.2c-1.6-0.2-3.1-0.3-4.7,0c-1.4,0.3-2.6,0.9-3.8,1.5c-1.8,0.8-3.4,1.1-5.3,0.9
						C63.7,144.1,63.2,144.9,63.9,144.9L63.9,144.9z"/>
				</g>
			</g>
			<g>
				<g>
					<path class="st4" d="M65.9,149.9c9-2.1,18.1,1,26.4,4.6c8.6,3.7,17.1,7.8,25.6,11.9c0.4,0.2,1.2-0.4,0.6-0.7
						c-8.9-4.1-17.8-8.5-26.9-12.3c-8.1-3.4-17.1-6.1-26-4C65.1,149.3,65.3,150,65.9,149.9L65.9,149.9z"/>
				</g>
			</g>
			<g>
				<g>
					<path class="st4" d="M54,154.6c1.2-1.4,2-2.9,2.7-4.5c0.7-1.5,1.6-3.1,3-3.9c1-0.5,2.3-0.5,3.3-0.5c1.3-0.1,2.5-0.2,3.7-0.1
						c2.5,0.1,5,0.7,7.1,2.3c3.1,2.4,4.7,6.4,7.6,9c3,2.6,7.3,3.3,11.1,2.5c2.4-0.5,4.4-1.8,6.7-2.6c3.3-1.4,5.9,0.3,8.4,2.4
						c0.3,0.2,1.2-0.2,1-0.4c-1.8-1.4-3.6-2.9-6-3.1c-2.2-0.2-4.1,0.9-6,1.8c-4.8,2.4-10.7,2.5-14.7-1.4c-3.1-3-4.8-7.4-8.8-9.6
						c-2.1-1.1-4.5-1.4-6.8-1.5c-2.1,0-4.5-0.1-6.5,0.6c-3.9,1.3-4.5,6.3-7,9C52.8,154.9,53.8,154.8,54,154.6L54,154.6z"/>
				</g>
			</g>
			<g>
				<g>
					<path class="st4" d="M70.5,138.1c-0.2,4.2-0.3,8.4-0.2,12.7c0,1.4-0.2,3.4,0.8,4.5c0.9,1.1,2.5,1.1,3.8,1.1
						c3.9,0.2,7.7-0.3,11.6-1.1c2-0.4,3.9-0.9,5.9-1.5c1.1-0.3,2.5-0.8,3.3,0.4c0.6,0.9,1,2.1,1.4,3c0.8,1.8,1.5,3.7,2.5,5.5
						c0.7,1.2,1.7,2.1,3,1.7c0.6-0.2,0.5-0.8-0.2-0.7c-1.3,0.3-2.1-1.7-2.4-2.5c-0.5-1.1-1-2.3-1.5-3.4c-0.4-1-0.9-2-1.3-2.9
						c-0.3-0.7-0.7-1.5-1.4-1.9c-1.5-0.8-3.2,0.1-4.7,0.5c-2.4,0.7-4.7,1.2-7.2,1.6c-2.3,0.4-4.6,0.6-7,0.6c-1.3,0-2.6,0.1-3.8-0.3
						c-1.3-0.4-1.6-1.4-1.7-2.6c-0.3-4.9-0.2-9.9,0.1-14.9C71.6,137.5,70.6,137.7,70.5,138.1L70.5,138.1z"/>
				</g>
			</g>
			<g>
				<g>
					<path class="st4" d="M47.9,149.7c3.5-4.9,9.8-1,13.4,1.6c2.8,2.1,5.8,3.9,9.2,4.8c1.7,0.4,3.3,0.7,5,1.1c1.8,0.4,3.9,1.5,5.8,1
						c1.9-0.4,2.5-2.1,3.3-3.5c1.1-2.1,3-3.2,5.3-3.5c5.5-0.7,9.8,3.7,12.8,7.7c0.2,0.3,1.2-0.1,1-0.4c-2.7-3.6-6.4-7.3-11.2-7.9
						c-3.9-0.4-7.4,1.2-9.2,4.7c-0.2,0.5-0.5,0.9-0.8,1.4c-0.7,1.1-1.9,1.2-3,0.9s-2.4-0.7-3.5-0.9c-1.8-0.4-3.6-0.8-5.4-1.3
						c-4.4-1.3-7.6-4.3-11.5-6.6c-3.7-2.2-9.2-3-12.2,0.9C46.8,150.1,47.8,150,47.9,149.7L47.9,149.7z"/>
				</g>
			</g>
			<g>
				<g>
					<path class="st4" d="M75.6,137.8c-0.7,3.7,0.6,7.5-0.3,11.3c-0.5,1.8-1.5,3.5-3.1,4.2c-1.5,0.6-3.2,0.7-4.4,1.9
						c-2.7,2.5,1.6,5.2,3.5,6.5c2.9,1.9,6,3.4,9.1,5c3.7,1.9,7.4,3.9,10.8,6.6c0.3,0.2,1.2-0.2,1-0.4c-5.4-4.4-12-6.9-17.8-10.3
						c-2.1-1.2-9.6-5.4-4.8-7.7c1.5-0.7,3.1-0.7,4.5-1.7c1-0.8,1.8-1.9,2.2-3c1.5-3.9-0.1-8.1,0.6-12.2
						C76.7,137.4,75.6,137.5,75.6,137.8L75.6,137.8z"/>
				</g>
			</g>
			<g>
				<g>
					<path class="st4" d="M39.8,151.2c5.2,0.5,10.4-0.5,15.6,0.1c1.4,0.1,2.6,0.4,3.9,0.8c0.6,0.2,1.3,0.6,2,0.5
						c0.3,0,0.7-0.2,0.8-0.5c0-0.1,0-0.2,0-0.3c-0.1-0.4-0.1-0.1-0.3,0c-0.2,0-0.4,0.1-0.6,0.1c0.4,0.1,0.9,0.7,1.2,0.9
						c0.6,0.5,1.3,1,1.9,1.6c1.4,1.2,2.7,2.4,4,3.8c1.2,1.3,2.3,2.6,3.2,4c1,1.5,1.7,3.1,2.4,4.7c1.7,3.2,5.6,2.4,8.5,1.9
						c3.8-0.6,7.5-1.6,11.2-2.9c0.7-0.3,0.1-0.8-0.5-0.6c-4.6,1.8-9.8,3.1-14.8,3.3c-1.6,0-2.6-0.5-3.4-1.9
						c-0.5-0.9-0.9-1.9-1.4-2.8c-1-1.9-2.3-3.6-3.6-5.2c-1.4-1.6-2.8-2.9-4.3-4.3c-0.8-0.7-1.6-1.3-2.4-2c-0.4-0.3-1-1-1.5-1.1
						c-0.7-0.2-0.8,0.3-0.8,0.8c0,0.1,0.3,0,0-0.2c-0.3-0.3-1.2-0.4-1.6-0.5c-1.1-0.3-2.2-0.5-3.3-0.7c-5.3-0.6-10.7,0.4-16-0.1
						C39.6,150.4,39.1,151.1,39.8,151.2L39.8,151.2z"/>
				</g>
			</g>
			<g>
				<g>
					<path class="st4" d="M60.9,147.8c1,0,2.1-0.2,2.6-1c0.1-0.1,0.2-0.3,0.3-0.3c-0.3,0.2-0.1,0.1,0.2,0.3c0.9,0.6,1.8,1.2,2.6,1.8
						c3.6,2.5,7.2,5.2,10.6,7.9c1.8,1.5,3.5,2.9,5.2,4.4c0.8,0.7,1.6,1.4,2.4,2.2c0.7,0.6,1.4,1.4,2.2,1.8c1.6,0.8,3.4,0.1,5.1-0.3
						c2.4-0.6,4.6-1.1,7-1.7c0.7-0.2,0.5-0.9-0.2-0.7c-2.4,0.6-4.6,1.1-7,1.7c-1.2,0.3-2.7,1-3.8,0.6c-1-0.3-1.8-1.3-2.5-1.9
						c-3.1-2.9-6.5-5.8-9.9-8.4c-3.3-2.6-6.9-5.3-10.4-7.5c-0.6-0.4-1.4-0.9-2.1-0.6c-0.2,0.1-0.3,0.3-0.5,0.5
						c-0.5,0.5-1.1,0.6-1.9,0.6C60.4,147.2,60.1,147.9,60.9,147.8L60.9,147.8z"/>
				</g>
			</g>
			<g>
				<g>
					<path class="st4" d="M58.5,160.6c3.5-0.3,7.1-1.1,10.6-1.8c3.3-0.7,6.7-1.4,10-1.3c3.7,0.2,7.2,1.5,10.2,3.4
						c3.3,2.1,6.3,4.8,9.7,6.8c3.4,2,7.4,3.1,11.5,2.4c0.6-0.1,0.5-0.7-0.1-0.5c-8.4,1.8-14.9-6.1-21.5-9.8c-2.8-1.6-6-2.5-9.2-2.6
						c-2.9-0.2-5.9,0.3-8.8,0.9c-4.1,0.8-8.1,1.8-12.2,2.2C58.2,160.1,57.8,160.7,58.5,160.6L58.5,160.6z"/>
				</g>
			</g>
			<g>
				<g>
					<path class="st4" d="M49.8,153.2c2-0.3,3.5-1.1,5.1-2.3c0.7-0.5,1.3-1.1,2.2-0.8c1.2,0.3,2.3,1.4,3,2.3c1.9,2,3.4,3.9,5.9,5.1
						c2.1,1,4.7,1.8,5.5,4.2c0.1,0.3,1.1,0,1-0.3c-0.8-2.4-3.1-3.2-5.2-4.1c-1.5-0.7-2.6-1.5-3.8-2.5c-1.1-1.1-2.1-2.4-3.2-3.4
						c-1.4-1.3-2.9-2.2-4.7-1.4c-0.7,0.3-1.4,0.9-2,1.4c-1.1,0.8-2.3,1.4-3.6,1.6C49.5,152.8,49.1,153.3,49.8,153.2L49.8,153.2z"/>
				</g>
			</g>
			<g>
				<g>
					<path class="st4" d="M51,155.4c1.1,0.6,2.1,1,2.4,2.2c0.3,1.1,1,2,1.8,2.7c2.9,3,6.7,5.2,10.5,7.1c3.9,1.9,8,3.9,12.2,5.1
						c3.7,1.1,7.7,1.1,11.2-1c0.6-0.4-0.3-0.5-0.6-0.3c-4.1,2.4-9,1.3-13.1-0.4c-3.7-1.5-7.4-3.1-11-5c-3.2-1.8-7-3.9-9.1-7.1
						c-0.5-0.7-0.5-1.4-0.9-2.1c-0.4-0.9-1.6-1.4-2.4-1.8C51.6,154.7,50.6,155.2,51,155.4L51,155.4z"/>
				</g>
			</g>
			<g>
				<g>
					<path class="st4" d="M67.3,138.2c0.2,2.1,2.9,3,4.5,3.6c2.7,1.1,5.6,1.7,8.3,2.8c1.1,0.4,2.3,0.9,2.9,1.8
						c0.9,1,0.5,2.3,0.4,3.5c-0.2,2.4-0.1,4.8,1.6,6.7s4.4,2.8,6.7,4c5.8,2.9,11.7,5.6,17.6,8.2c0.2,0.1,1.2-0.3,0.9-0.4
						c-5.5-2.4-10.9-4.9-16.3-7.5c-2.3-1.1-4.8-2.2-6.8-3.6c-2.2-1.6-2.7-3.9-2.6-6.6c0-1.3,0.7-3-0.1-4.3c-0.5-0.8-1.4-1.3-2.3-1.7
						c-2.4-1.2-5.2-1.9-7.8-2.7c-1.9-0.6-5.9-1.6-6.1-4C68.2,137.7,67.3,137.8,67.3,138.2L67.3,138.2z"/>
				</g>
			</g>
			<g>
				<g>
					<path class="st3" d="M47.3,156.3c3.9,0,7.8,0,11.8,0c0.4,0,1.3,0,1.4-0.5c0.1-0.4-0.5-1.1-0.7-1.4c-0.4-0.6-1-1.3-1.4-1.9
						c0-0.1-0.2-0.3-0.2-0.4c0,0,0-0.1-0.1-0.2c-0.1,0.1-0.2,0.2-0.4,0.4c0,0,2.4,1.1,2.5,1.2c3,1.6,6.3,2,9.6,2.3
						c0.4,0,1.1-0.5,0.4-0.6c-1.9-0.2-3.7-0.3-5.5-0.8c-1.8-0.5-3.2-1.3-4.9-2.1c-0.6-0.3-1.7-1-2.5-0.6c-0.5,0.2-0.4,0.5-0.1,0.9
						c0.3,0.6,0.8,1.2,1.2,1.8c0.2,0.3,0.5,0.7,0.7,1c0.1,0.3,0.1,0.5,0.3,0.4c-0.1,0.1-1.1,0-1.4,0c-0.5,0-1.1,0-1.6,0
						c-1,0-2,0-2.9,0c-2,0-3.9,0-5.9,0C47.3,155.7,46.6,156.3,47.3,156.3L47.3,156.3z"/>
				</g>
			</g>
			<g>
				<g>
					<path class="st4" d="M77.3,166.8c5.7,2.1,11.1,5.2,15.7,9.1c0.4,0.3,1.3-0.2,0.8-0.6c-4.7-4-10.1-7.2-15.9-9.2
						C77.4,166,76.8,166.7,77.3,166.8L77.3,166.8z"/>
				</g>
			</g>
			<g>
				<g>
					<path class="st3" d="M76.8,159c5.1,2.7,10.5,5.2,16,7.1c4.4,1.6,10.6,2.3,13.1,6.8c0.2,0.4,1.2,0,1-0.4
						c-2.5-4.2-7.9-5.1-12.2-6.5c-5.9-2-11.7-4.4-17.2-7.4C77.2,158.2,76.3,158.7,76.8,159L76.8,159z"/>
				</g>
			</g>
			<g>
				<g>
					<path class="st4" d="M86.7,180.8c-7.5-9.8-16.6-18.3-26.8-25.4c-0.3-0.2-1.2,0.2-1,0.4c10.2,7,19.2,15.6,26.8,25.4
						C85.9,181.4,86.9,181,86.7,180.8L86.7,180.8z"/>
				</g>
			</g>
			<g>
				<g>
					<path class="st4" d="M51.7,161.3c6.5,0.9,13,0.9,19.4,1.8c6.6,0.9,12.5,2.9,17.9,6.8c0.4,0.3,1.3-0.3,0.8-0.6
						c-5.4-3.7-11.3-5.9-17.7-6.8c-6.7-1-13.4-1-20.1-1.9C51.5,160.5,51,161.2,51.7,161.3L51.7,161.3z"/>
				</g>
			</g>
			<g>
				<g>
					<path class="st4" d="M51.7,143.9c5.7,1.1,11.7,1,17.2,2.9c3,1.1,6.5,2.4,8.7,4.7c1.2,1.2,1.6,2.5,2.2,4c0.4,0.9,1,1.7,2.1,1.7
						c0.5,0,1.1-0.7,0.4-0.7c-1.5,0-1.7-2.5-2.2-3.4c-0.6-1.3-1.6-2.3-2.7-3c-2.4-1.9-5.5-3.1-8.4-4c-5.4-1.8-11.3-1.7-16.9-2.7
						C51.6,143.1,51,143.8,51.7,143.9L51.7,143.9z"/>
				</g>
			</g>
			<g>
				<g>
					<path class="st3" d="M55,162.5c5.5-0.4,10.7-2.3,16.2-2.5c2.9-0.2,6.2,0.1,9,1.2c2.2,0.8,3.4,3.7,5.9,3.1
						c0.7-0.1,0.5-0.9-0.2-0.7c-1.4,0.3-2.5-1.6-3.5-2.3c-1-0.8-2.3-1.1-3.4-1.4c-2.6-0.6-5.4-0.9-8-0.7c-5.3,0.4-10.5,2.2-15.8,2.5
						C54.5,161.8,54.3,162.5,55,162.5L55,162.5z"/>
				</g>
			</g>
			<g>
				<g>
					<path class="st4" d="M94.9,162.7c4.7,0.6,8.9,3.9,10.6,8.3c0.1,0.3,1.1,0,1-0.3c-1.8-4.6-6.1-7.9-11-8.5c-0.2,0-0.6,0-0.7,0.2
						C94.6,162.5,94.6,162.6,94.9,162.7L94.9,162.7z"/>
				</g>
			</g>
		</g>
		<g>
			<g>
				<g>
					<path class="st3" d="M74,130.7c4.4,0.4,8.9,0.8,13.3,1.2c4.2,0.4,8.7,0.4,12.8,1.8c7,2.5,11.9,8.5,18.6,11.4
						c3.4,1.5,7.2,2,10.9,1c0.5-0.1,0.5-0.4-0.1-0.3c-7.7,2.1-14.5-3.4-20.2-7.6c-2.6-2-5.4-3.8-8.6-4.8c-3.7-1.3-7.8-1.3-11.8-1.7
						c-4.8-0.4-9.5-0.8-14.3-1.3C74.4,130.3,73.5,130.6,74,130.7L74,130.7z"/>
				</g>
			</g>
			<g>
				<g>
					<path class="st4" d="M81.5,138.4c9-1.7,17.9,0.7,26.5,3.6c8.6,3,17.2,6.5,25.8,9.7c0.3,0.1,1.1-0.4,0.6-0.6
						c-8.8-3.3-17.6-7-26.7-10c-8.3-2.8-17.2-5-26-3.4C81.1,137.9,80.8,138.5,81.5,138.4L81.5,138.4z"/>
				</g>
			</g>
			<g>
				<g>
					<path class="st4" d="M64.1,138.7c3.4-2.9,8.2-3.3,12.5-3.6c4.5-0.4,9.5-0.8,13.4,2c3,2.2,4.8,5.7,8,7.6
						c3.1,1.9,7.1,2.2,10.6,1.5c2.2-0.4,4.1-1.4,6.2-2.2c3.2-1.1,5.9,0.2,8.5,2c0.2,0.2,1.1-0.2,0.9-0.3c-1.8-1.2-3.6-2.3-5.7-2.5
						s-3.9,0.6-5.8,1.3c-4.6,1.9-10.2,2.5-14.5-0.5c-3.3-2.4-5.2-6.3-8.9-8c-4.1-2-9-1.5-13.3-1.1c-4.4,0.4-9.2,1-12.6,3.9
						C63,138.9,64,138.8,64.1,138.7L64.1,138.7z"/>
				</g>
			</g>
			<g>
				<g>
					<path class="st4" d="M86.3,128.8c-0.2,2.5-0.2,5.2-0.2,7.7c0,1.2,0,2.3,0.1,3.4c0,0.8-0.1,1.8,0.4,2.5c0.9,1.5,3.1,1.3,4.6,1.3
						c2.3,0.1,4.5-0.1,6.8-0.3s4.5-0.6,6.7-1.1c1.3-0.3,2.5-0.6,3.7-0.8c1.2-0.3,2.5-0.6,3.3,0.6c1.3,1.9,2.2,4.1,3.2,6.1
						c0.8,1.4,1.8,2.3,3.4,2c0.6-0.1,0.4-0.7-0.2-0.6c-2,0.4-3.2-3.4-3.9-4.8c-0.7-1.3-1.3-3.3-2.7-4c-1.3-0.6-2.9,0-4.2,0.3
						c-2.2,0.5-4.4,1-6.6,1.3s-4.2,0.5-6.4,0.6c-1.3,0-2.4,0-3.7,0c-1.1,0-2.5,0-3-1c-0.6-0.9-0.4-2.2-0.4-3.2
						c0-1.2-0.1-2.3-0.1-3.4c0-2.3,0.1-4.5,0.2-6.8C87.2,128.3,86.3,128.5,86.3,128.8L86.3,128.8z"/>
				</g>
			</g>
			<g>
				<g>
					<path class="st4" d="M63.5,139c0.8-1.1,0.8-2.4,0.8-3.8c0-0.5-0.1-1.4,0.2-1.8c0.5-0.8,2.6,0.3,3.3,0.6
						c2.4,1.1,4.6,2.5,6.9,3.8c2.1,1.1,4.1,2.1,6.3,2.9c2.4,1,4.9,1.9,7.4,2.6c2.2,0.7,4.5,1.5,6.9,1.8c1.7,0.2,3-0.4,4-1.7
						c0.5-0.7,0.9-1.5,1.5-2.1c0.9-0.9,2.1-1.5,3.2-1.8c5.7-1.5,10.7,2.2,14.4,6.1c0.2,0.2,1.1-0.1,0.9-0.3
						c-3.2-3.4-7.2-6.4-12.1-6.5c-1.9,0-3.8,0.3-5.5,1.2c-0.7,0.4-1.4,0.8-1.9,1.4c-0.7,0.8-1.1,1.8-1.8,2.5
						c-1.3,1.5-3.6,0.5-5.2,0.1c-1.5-0.4-2.8-0.8-4.2-1.2c-2.7-0.9-5.4-1.9-8-3c-2.6-1.2-5.1-2.4-7.5-3.8c-2.2-1.3-4.3-2.6-6.8-3.2
						c-1.2-0.3-2.4-0.2-2.7,1.1c-0.4,1.7,0.3,3.6-0.9,5.2C62.5,139.4,63.4,139.2,63.5,139L63.5,139z"/>
				</g>
			</g>
			<g>
				<g>
					<path class="st4" d="M91.3,128.6c-0.8,3.8,1.6,9-2.2,11.9c-1.7,1.3-4.1,0.9-5.9,2.2c-1.5,1.1-0.9,2.4,0.4,3.4
						c3.3,2.4,7.3,3.9,11.1,5.5c4.1,1.7,8.2,3.3,11.9,5.8c0.2,0.2,1.1-0.2,0.9-0.3c-7-4.6-15.3-6.4-22.3-10.8
						c-0.8-0.5-2.2-1.4-1.9-2.5c0.4-1.5,2.4-1.6,3.5-1.9c1.5-0.3,2.8-0.9,3.8-2.1c2.6-3.2,0.6-7.5,1.4-11.2
						C92.2,128.1,91.4,128.3,91.3,128.6L91.3,128.6z"/>
				</g>
			</g>
			<g>
				<g>
					<path class="st4" d="M76.8,135.6c7.9,2.1,15.8,4,23.7,6.1c7.7,2.1,15.3,4.5,22.3,8.1c3.8,2,7.5,4.2,11.3,6.4
						c0.2,0.1,1-0.2,0.9-0.3c-6.6-3.9-13.2-7.8-20.5-10.6c-7.5-2.8-15.5-4.6-23.2-6.7c-4.6-1.2-9.2-2.4-13.8-3.5
						C77.2,135.2,76.5,135.5,76.8,135.6L76.8,135.6z"/>
				</g>
			</g>
			<g>
				<g>
					<path class="st4" d="M55.5,140.3c3.1,0.2,5.6-1,8.2-2.4c1.3-0.7,2.5-1.3,4.1-1.4c2.3-0.1,4.4,1,6.4,2c3.9,2.1,7.9,4.7,11.1,7.8
						c1.6,1.6,2.8,3.2,3.9,5.2c1,1.7,2.1,2.5,4.1,2.5c2.5,0.1,5.2-0.4,7.6-0.8c2.7-0.5,5.5-1.2,8.1-2c0.6-0.2,0.4-0.9-0.2-0.7
						c-4.6,1.5-9.5,2.4-14.3,2.7c-1.4,0.1-2.7,0.1-3.7-1.1c-0.7-0.8-1.1-1.9-1.7-2.6c-1.1-1.7-2.4-3-3.8-4.4
						c-3.1-2.8-6.8-5.4-10.5-7.4c-2.9-1.6-6.3-2.8-9.5-1.6c-1.4,0.5-2.6,1.4-3.9,2.1c-1.8,1-3.6,1.5-5.6,1.3
						C55.3,139.6,54.8,140.3,55.5,140.3L55.5,140.3z"/>
				</g>
			</g>
			<g>
				<g>
					<path class="st4" d="M70.9,133.1c4.4,0.1,8.3,2.4,12,4.5s7.3,4.3,10.9,6.8c1.7,1.2,3.3,2.4,5,3.5c1.3,1,2.6,2.4,4.3,2.8
						c1.6,0.5,3.4-0.2,5-0.5c2.2-0.4,4.3-0.9,6.5-1.3c0.4-0.1,0.8-0.6,0.1-0.5c-2.2,0.4-4.3,0.9-6.5,1.3c-1,0.2-2,0.4-2.9,0.6
						c-1.4,0.2-2.3-0.3-3.3-1.1c-3.2-2.4-6.6-4.8-10-7.1c-3.3-2.2-6.8-4.2-10.3-6.2c-3.2-1.8-6.6-3.4-10.4-3.4
						C71,132.6,70.3,133.1,70.9,133.1L70.9,133.1z"/>
				</g>
			</g>
			<g>
				<g>
					<path class="st4" d="M68.6,143.6c7.9-0.6,16-1.1,23.8,0c3.8,0.6,7.5,1.5,11.1,3c3.6,1.7,6.9,4,10.5,5.9c3.7,1.9,7.8,2.9,12,2.3
						c0.4-0.1,0.8-0.6,0.1-0.5c-8.6,1.5-15.1-5.2-22.4-8.3c-6.8-2.9-14.2-3.5-21.6-3.5c-4.4,0-8.8,0.3-13.2,0.6
						C68.7,143.1,68,143.6,68.6,143.6L68.6,143.6z"/>
				</g>
			</g>
			<g>
				<g>
					<path class="st4" d="M78.3,129.2c4.9,5.8,10.1,11.7,16.9,15.5c7.5,4.2,16.5,4.3,24,8.5c3.9,2.2,7.4,5,10.1,8.6
						c0.2,0.2,1-0.2,0.9-0.3c-4.7-6.3-11.7-10.2-19.2-12.2c-4.3-1.2-8.7-2-12.8-3.9c-3.6-1.7-6.9-4-9.8-6.7c-3.3-3-6.3-6.4-9.1-9.8
						C79.1,128.7,78.3,129.1,78.3,129.2L78.3,129.2z"/>
				</g>
			</g>
			<g>
				<g>
					<path class="st5" d="M56.8,140.8c2.7,2.2,5.7,3,9.2,3.1c1.9,0.1,3.7,0.1,5.5,0.4c2.4,0.4,4.5,1.2,6.8,2.1
						c8.4,3.3,16.1,8.4,24.2,12.3c4.5,2.2,9.2,3.9,14.2,4.9c0.3,0.1,1.1-0.4,0.6-0.5c-8.9-1.8-16.9-6.2-24.7-10.6
						c-7.2-3.9-14.9-8.5-23.2-9.1c-1.9-0.1-3.8-0.1-5.7-0.4c-2.3-0.4-4.2-1.4-6-2.7C57.5,140.2,56.6,140.6,56.8,140.8L56.8,140.8z"
						/>
				</g>
			</g>
			<g>
				<g>
					<path class="st4" d="M65.5,142c1.9-0.2,3.3-0.9,4.7-2.1c0.6-0.5,1.3-1.2,2.1-1.3c1.1-0.2,2.4,0.8,3.1,1.4c2,1.6,3.6,3.4,6,4.4
						c2,0.8,4.9,1.4,5.8,3.5c0.1,0.3,1.1,0.1,0.9-0.3c-0.9-2.2-3.5-2.7-5.5-3.5c-1.5-0.6-2.6-1.3-3.8-2.3c-1.1-0.9-2.1-2-3.2-2.7
						c-1.4-1-2.8-1.4-4.4-0.5c-0.7,0.4-1.4,1-2.1,1.5c-1.1,0.8-2.2,1.2-3.4,1.4C65.2,141.6,64.8,142.1,65.5,142L65.5,142z"/>
				</g>
			</g>
			<g>
				<g>
					<path class="st4" d="M66.9,143.8c0.8,0.3,1.9,0.6,2.4,1.3c0.6,0.9,1.3,1.6,2.1,2.3c3,2.4,6.7,4.1,10.3,5.6
						c3.8,1.5,7.7,3,11.7,4c3.7,0.9,7.7,1.1,11.3-0.7c0.6-0.3,0.1-0.8-0.4-0.6c-3.9,2-8.5,1.2-12.5,0c-3.7-1.2-7.4-2.4-11-4
						c-3.4-1.5-7-3.1-9.7-5.8c-0.5-0.5-0.7-1-1.1-1.4c-0.6-0.7-1.8-0.9-2.4-1.2C67,142.9,66.3,143.5,66.9,143.8L66.9,143.8z"/>
				</g>
			</g>
			<g>
				<g>
					<path class="st4" d="M77.5,125.3c0.2,1.9,3.5,2.8,4.9,3.4c3.1,1.3,6.4,2.4,9.6,3.5c1.5,0.5,2.9,1.1,4.3,1.8
						c1,0.5,2.2,1,2.8,1.9c0.2,0.3,0.3,0.5,0.3,0.9c0,1.3-0.4,2.5-0.2,3.8c0.3,2.6,2.4,4,4.6,5c7,3,14.1,5.7,21.3,8.1
						c0.3,0.1,1.1-0.3,0.8-0.4c-6.4-2.3-12.5-4.6-18.8-7.2c-2.5-1.1-6.1-2.1-6.8-5.2c-0.3-1.4-0.1-2.7,0.1-4.1
						c0.1-0.5,0.1-0.8-0.1-1.2c-0.4-0.7-1.3-1.2-2-1.6c-1.2-0.7-2.4-1.2-3.7-1.7c-3.2-1.3-6.5-2.3-9.7-3.5c-1.5-0.6-2.9-1.2-4.3-2
						c-0.8-0.4-2-1.1-2.1-2.1C78.4,124.8,77.4,125,77.5,125.3L77.5,125.3z"/>
				</g>
			</g>
			<g>
				<g>
					<path class="st3" d="M62.9,144.4c1.3,0,2.5-0.4,3.3-1.5c1.1-1.3,1.5-2.8,3.4-2.9c1.6,0,3,0.1,4.5,0.6c1.2,0.4,2.3,1,3.4,1.4
						c2.5,0.9,5.2,1,7.8,1.2c0.3,0,1.1-0.4,0.6-0.5c-2.8-0.2-5.8-0.4-8.4-1.5c-1.2-0.5-2.4-1.1-3.6-1.4c-1.2-0.3-2.4-0.3-3.5-0.3
						c-1.4,0-2.6,0.3-3.6,1.4c-1.2,1.3-1.5,2.9-3.5,3C63,143.9,62.4,144.4,62.9,144.4L62.9,144.4z"/>
				</g>
			</g>
			<g>
				<g>
					<path class="st4" d="M93,152.2c5.6,1.7,10.9,4.1,15.7,7.4c0.3,0.2,1.2-0.2,0.7-0.5c-4.8-3.3-10.2-5.9-15.9-7.5
						C93.2,151.6,92.4,152.1,93,152.2L93,152.2z"/>
				</g>
			</g>
			<g>
				<g>
					<path class="st3" d="M92.5,145.9c5.1,2.3,10.4,4.1,15.8,5.7c2.4,0.7,4.9,1.2,7.3,2c2.3,0.7,4.5,1.6,6,3.5
						c0.2,0.3,1.1,0,0.9-0.4c-2.6-3.8-8.5-4.3-12.6-5.5c-5.7-1.6-11.3-3.5-16.7-6C92.7,145.1,92,145.7,92.5,145.9L92.5,145.9z"/>
				</g>
			</g>
			<g>
				<g>
					<path class="st4" d="M102.2,163.5c-7.7-8.2-17-15.2-26.9-20.7c-0.3-0.2-1.1,0.2-0.7,0.5c9.9,5.5,18.9,12.4,26.7,20.7
						C101.7,164.1,102.5,163.8,102.2,163.5L102.2,163.5z"/>
				</g>
			</g>
			<g>
				<g>
					<path class="st4" d="M61.8,144c14.6,1.6,29.9,3.1,42.9,10.5c0.2,0.1,1-0.2,0.9-0.3c-13.1-7.3-28.5-8.9-43.2-10.6
						C62.1,143.6,61.3,143.9,61.8,144L61.8,144z"/>
				</g>
			</g>
			<g>
				<g>
					<path class="st4" d="M67.4,134.4c5.6,0.9,11.5,0.3,17,1.6c2.9,0.7,6.3,1.8,8.7,3.6c1.3,1,1.8,2.1,2.5,3.4c0.4,0.9,1,1.4,2,1.5
						c0.4,0,1-0.6,0.3-0.6c-1.5,0-1.7-1.9-2.3-2.8c-0.7-1.1-1.8-2-2.8-2.5c-2.5-1.5-5.6-2.5-8.5-3.1c-5.4-1.2-11.1-0.6-16.5-1.5
						C67.3,133.7,66.7,134.3,67.4,134.4L67.4,134.4z"/>
				</g>
			</g>
			<g>
				<g>
					<path class="st4" d="M98.5,154.8c5.2,0,10.4,0,15.6,0c2.5,0,5-0.1,7.4,0c1.9,0,4.4,0.1,5.6,1.9c0.2,0.2,1-0.1,0.9-0.3
						c-0.9-1.4-2.5-1.8-4.1-2c-2.5-0.3-5.2-0.1-7.7-0.1c-5.7,0-11.4,0-17.1,0C98.9,154.4,98,154.8,98.5,154.8L98.5,154.8z"/>
				</g>
			</g>
			<g>
				<g>
					<path class="st4" d="M69.3,153.4c6.8-1.2,13.8-0.5,20.3,1.8c3,1.1,6,2.5,8.6,4.4c1.2,0.9,2.4,1.8,3.4,2.8c1.1,1,2.1,2,3.5,2.4
						c2.1,0.5,4.3,0.5,6.4,0.6c2.4,0.2,4.8,0.3,7.3,0.5c0.5,0,1-0.7,0.3-0.7c-4.1-0.3-8.4-0.4-12.5-0.9c-2.1-0.3-3.1-1.5-4.6-2.7
						c-1.2-1.1-2.4-2-3.6-2.8c-5.4-3.6-11.8-5.7-18.1-6.3c-3.7-0.4-7.4-0.2-11.1,0.4C68.5,152.8,68.7,153.5,69.3,153.4L69.3,153.4z"
						/>
				</g>
			</g>
			<g>
				<g>
					<path class="st3" d="M65.2,145.2c6.9-0.3,13.7-0.1,20.5,0.7c3.2,0.4,6.7,0.8,9.8,1.7c1.5,0.4,2.4,1.3,3.7,2.2
						c0.8,0.5,1.6,0.7,2.5,0.6c0.6-0.1,0.4-0.8-0.2-0.7c-1.5,0.3-2.6-1.3-3.7-2c-1.2-0.7-2.4-0.9-3.7-1.1c-3.1-0.6-6.4-1.1-9.6-1.5
						c-6.4-0.7-12.8-0.9-19.3-0.6C64.8,144.5,64.6,145.2,65.2,145.2L65.2,145.2z"/>
				</g>
			</g>
			<g>
				<g>
					<path class="st4" d="M110.6,148.9c4.3,0.4,8.7,2.7,10.6,6.8c0.1,0.3,1.1,0,0.9-0.3c-2-4.1-6.6-6.6-11-7c-0.2,0-0.5,0-0.7,0.2
						C110.4,148.7,110.4,148.8,110.6,148.9L110.6,148.9z"/>
				</g>
			</g>
			<g>
				<g>
					<path class="st3" d="M84.8,154.4c7.7-0.2,15.8-0.5,23.3,1.6c6.7,1.8,12.6,5.9,19.7,6.5c0.2,0,1.1-0.4,0.6-0.4
						c-7.4-0.6-13.7-5.1-20.8-6.8c-7.3-1.7-14.9-1.5-22.4-1.3C84.9,153.9,84.2,154.4,84.8,154.4L84.8,154.4z"/>
				</g>
			</g>
		</g>
		<g>
			<g>
				<g>
					<path class="st4" d="M61.9,162.7c5.5-0.5,11.6-0.9,16.1,3c1.8,1.6,3.3,3,5.6,3.9c1.9,0.8,4.6,1.3,5.5,3.4c0.1,0.3,1,0,0.9-0.3
						c-0.8-2-3.1-2.6-5-3.3c-1.4-0.5-2.5-1.1-3.7-2s-2.2-2-3.3-2.9c-4.4-3.4-10.6-2.8-15.9-2.5C61.6,162.2,61.2,162.7,61.9,162.7
						L61.9,162.7z"/>
				</g>
			</g>
			<g>
				<g>
					<path class="st3" d="M59.3,165.2c2.6,0,5.2,0,7.8,0c2.4,0,4.8-0.2,7.1,0.1c2.3,0.3,4.2,1.7,6.4,2.2c2.3,0.6,4.5,0.7,6.8,0.9
						c0.4,0,1-0.6,0.3-0.6c-2.4-0.2-5-0.3-7.3-1.1c-2-0.6-3.7-1.8-5.8-2c-2.4-0.3-4.7-0.1-7.1-0.1c-2.6,0-5.2,0-7.8,0
						C59.3,164.6,58.7,165.2,59.3,165.2L59.3,165.2z"/>
				</g>
			</g>
			<g>
				<g>
					<path class="st4" d="M63.6,155.1c7.5,1.2,14.9,3,22,5.5c3,1.1,6.7,2.1,9.3,4.1c1.2,0.9,1.7,2,2.3,3.2c0.5,0.9,1,1.5,2.1,1.5
						c0.3,0,1-0.5,0.4-0.5c-1.5,0-1.7-2-2.3-2.9c-0.7-1.1-1.8-1.9-2.8-2.5c-2.9-1.7-6.3-2.7-9.4-3.8c-6.9-2.4-13.8-4-21-5.1
						C63.9,154.5,63,155,63.6,155.1L63.6,155.1z"/>
				</g>
			</g>
			<g>
				<g>
					<path class="st3" d="M67.1,170.2c6.8-0.3,13.5-0.1,20.2,0.7c3.2,0.4,6.6,0.8,9.8,1.6c1.5,0.4,2.5,1.2,3.7,2.1
						c0.8,0.6,1.7,0.9,2.6,0.8c0.5-0.1,0.8-0.7,0.1-0.6c-1.5,0.3-2.5-1.1-3.5-1.8c-1.2-0.8-2.5-1-3.9-1.3c-3.1-0.6-6.3-1.1-9.4-1.4
						c-6.5-0.7-13-0.9-19.5-0.6C66.7,169.7,66.4,170.3,67.1,170.2L67.1,170.2z"/>
				</g>
			</g>
		</g>
		<g>
			<g>
				<path class="st4" d="M64.4,132.2c0.5,0,1.1-0.7,0.4-0.7C64.3,131.5,63.6,132.2,64.4,132.2L64.4,132.2z"/>
			</g>
		</g>
		<g>
			<g>
				<path class="st4" d="M61.3,67.4c0.8,3.2,1.4,6.5,2,9.7c0.3,1.6,0.5,3.2,0.7,4.8c0.1,0.8,0.2,1.6,0.3,2.5c0,0.4,0.1,0.9,0.1,1.3
					c0,0.2,0,0.3-0.1,0.5c-0.3,0.2-0.3,0.4,0,0.4c-0.3-0.3-1.3,0.2-1,0.4c0.8,0.7,1.8,0,2.1-0.8c0.3-0.8,0.1-1.8,0-2.5
					c-0.1-1.1-0.2-2.3-0.4-3.3c-0.6-4.4-1.4-8.7-2.5-13C62.3,66.7,61.2,67,61.3,67.4L61.3,67.4z"/>
			</g>
		</g>
		<g>
			<g>
				<g>
					<path class="st3" d="M64.6,66.4c1,4.4,2,8.7,2.8,13.1c1,4.3,2.4,8.8,2,13.3c-0.8,7.6-6.1,13.9-7.3,21.6
						c-0.6,3.6-0.2,7.4,2.1,10.5c0.1,0.2,0.9-0.1,0.8-0.3c-4.6-6.3-1.4-14.3,1.5-20.6c1.7-3.5,3.3-7.3,3.7-11.2c0.5-4-0.7-8-1.6-12
						c-1.1-4.9-2.2-9.8-3.2-14.8C65.4,66,64.6,66.2,64.6,66.4L64.6,66.4z"/>
				</g>
			</g>
			<g>
				<g>
					<path class="st4" d="M58,76.2c4.6,7.6,4.9,16.8,4.2,25.4c-0.7,9.8-2.2,19.7-3.2,29.5c0,0.3,0.8,0.1,0.8-0.1
						c0.9-8,1.9-16,2.7-24c0.7-6.7,1.3-13.5,0.2-20.2C62,83,60.8,79.4,58.8,76C58.7,75.7,57.9,76,58,76.2L58,76.2z"/>
				</g>
			</g>
			<g>
				<g>
					<path class="st4" d="M60.4,70.8c1.6,3.6,3.3,7.6,2.5,11.8c-0.7,3.2-3.1,5.8-4.9,8.5c-1.8,2.6-2.7,5.5-2.4,8.7
						c0.4,3.2,2.1,6.1,4.3,8.3c1.4,1.4,2.9,2.6,3.5,4.5c0.8,2.3-0.1,4.6-1,6.8c-0.1,0.3,1,0.2,1.1-0.2c0.7-1.8,1.3-3.5,1.2-5.4
						c-0.1-1.6-0.9-2.9-1.9-4.1c-1.1-1.3-2.5-2.4-3.4-3.6c-1.1-1.5-2-3.1-2.5-4.9c-1-3.5-0.2-6.9,1.8-10c1.7-2.6,3.9-5,4.9-8
						c1.3-4.3-0.6-8.7-2.3-12.6C61.3,70.2,60.3,70.5,60.4,70.8L60.4,70.8z"/>
				</g>
			</g>
			<g>
				<g>
					<path class="st4" d="M70.9,77.3c-3.8,1.1-7.6,2.3-11.4,3.6c-1.4,0.5-3.2,0.9-4.4,1.9s-0.8,2.5-0.5,3.8c1,3.7,2.5,7.2,4.5,10.5
						c0.9,1.6,1.8,3,2.7,4.4c0.6,0.9,1.3,1.7,1.7,2.6c0.5,1.4-0.3,2.3-1.3,3.1c-1.7,1.5-3.3,2.9-5,4.5c-1,0.9-2.5,2.4-1.6,3.8
						c0.2,0.2,0.9,0,0.8-0.2c-1.3-2.1,2.4-4.3,3.6-5.5c0.9-0.8,1.9-1.7,2.7-2.4c0.5-0.5,1.1-0.9,1.4-1.5c0.9-1.8-1.2-3.8-2.1-5.2
						c-1.3-1.9-2.5-3.9-3.5-5.9s-1.9-3.9-2.5-6c-0.4-1.1-0.7-2.2-1-3.2c-0.4-1.7,0.1-2.7,1.8-3.4c4.5-1.9,9.3-3.2,14-4.6
						C71.5,77.5,71.4,77.2,70.9,77.3L70.9,77.3z"/>
				</g>
			</g>
			<g>
				<g>
					<path class="st4" d="M52.4,61.3c0.1,1.3,1.1,2.1,2,2.7c0.9,0.7,2.5,1.4,2.8,2.4c0.3,0.9-0.3,2-0.6,2.8
						c-0.3,1.2-0.6,2.4-0.9,3.7c-0.5,2.4-0.9,5-1.2,7.4c-0.3,2.5-0.4,5.2-0.4,7.8c0,1.8-0.3,4.3,1,5.8c1.2,1.3,3,1.2,4.5,1.5
						c2.1,0.5,3.5,2.1,4.5,3.8c2.6,5.1-0.1,10.6-3,14.9c-0.4,0.6,0.6,0.8,0.9,0.4c2.4-3.6,4.8-7.9,4.1-12.4
						c-0.5-3.4-2.8-6.7-6.4-7.4c-1-0.2-2.1-0.2-3-0.6c-1.4-0.7-1.5-2.2-1.6-3.5C55,88,55,85.4,55.2,82.8c0.2-2.6,0.5-5.4,1.1-7.9
						c0.2-1.3,0.5-2.5,0.8-3.8s0.8-2.5,1-3.7c0.5-3-4.6-3.3-4.9-6.2C53.4,60.5,52.4,60.7,52.4,61.3L52.4,61.3z"/>
				</g>
			</g>
			<g>
				<g>
					<path class="st4" d="M57.5,83.5c-1.5-1.6-2.7-5.1-5.6-4.1c-1.1,0.4-1.7,1.4-2.1,2.4c-0.6,1.6-1,3.2-1.4,4.8
						c-1.6,7-1.8,14.3-4.3,21.1c-0.2,0.5,0.7,0.5,0.8,0.1c2.1-5.3,2.5-11,3.5-16.6c0.5-2.9,1.1-5.9,2-8.6c0.2-0.6,0.4-1.2,0.7-1.7
						c0.8-1.3,2.2-1.3,3.2-0.4s1.6,2.3,2.5,3.3C57,84.2,57.7,83.8,57.5,83.5L57.5,83.5z"/>
				</g>
			</g>
			<g>
				<g>
					<path class="st4" d="M72.9,81.8c-2.8,0.4-5.4,1.8-8,2.6c-0.5,0.2-0.4,0.8,0.2,0.6c2.6-0.9,5.1-2.3,7.8-2.6
						c0.2,0,0.4-0.1,0.5-0.3C73.3,81.9,73,81.8,72.9,81.8L72.9,81.8z"/>
				</g>
			</g>
			<g>
				<g>
					<path class="st4" d="M59.8,71c0.1,8.3,0.3,16.8,0.4,25.1c0.1,8.2-0.5,16.3-2.5,24.2c-1.1,4.4-2.5,8.8-3.9,13.1
						c-0.1,0.2,0.8,0.1,0.8-0.1c2.5-7.6,4.9-15.4,5.8-23.4c1-8.1,0.5-16.5,0.4-24.7c-0.1-4.8-0.2-9.6-0.3-14.4
						C60.7,70.6,59.8,70.7,59.8,71L59.8,71z"/>
				</g>
			</g>
			<g>
				<g>
					<path class="st4" d="M50,95.9c1.4,7.4,5.7,13.9,7,21.4c0.7,3.9,0.1,7.5-1.2,11.3c-1.3,3.5-2,7-1.1,10.8c0.1,0.2,0.9,0,0.8-0.2
						c-0.9-4,0-7.5,1.3-11.3c1.3-3.5,1.7-7.1,1-10.8c-1.3-7.4-5.7-13.9-7-21.4C50.8,95.4,50,95.6,50,95.9L50,95.9z"/>
				</g>
			</g>
			<g>
				<g>
					<path class="st4" d="M49.8,67.3c0,2.1,2.4,2.9,3.6,4.1c0.9,0.7,1.2,1.5,0.9,2.5c-0.6,1.8-1.3,3.4-2.1,5.1
						c-1.6,3.3-3.5,6.6-6.2,9.1c-1.1,1-2.4,2-2.6,3.5c-0.3,1.8,0.9,3.6,1.6,5.1c1.9,3.8,4.1,7.4,6.8,10.6c0.2,0.2,1.2-0.2,1-0.4
						c-2.5-3-4.6-6.3-6.4-9.7c-0.8-1.5-1.9-3.3-2-5c-0.1-2.1,1.8-3.2,3-4.5c2.4-2.4,4.2-5.4,5.7-8.4c0.8-1.7,1.5-3.4,2.2-5.1
						c0.3-0.9,0.5-1.6-0.1-2.4c-1.3-1.7-4.2-2.3-4.2-4.7C50.9,66.8,49.8,67,49.8,67.3L49.8,67.3z"/>
				</g>
			</g>
			<g>
				<g>
					<path class="st4" d="M54.3,66.5c0.8,2.2,2.9,3.3,4.5,4.8c0.8,0.8,1.6,1.7,1.5,2.8c-0.1,1.7-0.9,3.5-1.4,5.1
						c-1.2,3.9-2.5,7.7-4,11.6c-0.7,1.8-1.5,3.6-2.2,5.4c-0.7,1.6-1.7,3.2-2.1,4.9c-0.5,1.9,1,3.4,1.9,4.9c1.2,2,2.5,3.9,3.6,5.9
						c0.2,0.3,1,0,0.8-0.4c-1.4-2.2-2.6-4.3-4-6.5c-0.7-1.2-1.8-2.4-1.5-3.8c0.2-1.3,1-2.5,1.6-3.7c2-4.4,3.7-9,5.3-13.6
						c0.7-2.2,1.4-4.3,2.1-6.5c0.5-1.5,1.3-3.2,0.5-4.8c-1.3-2.5-4.6-3.5-5.7-6.3C55,65.9,54.2,66.2,54.3,66.5L54.3,66.5z"/>
				</g>
			</g>
			<g>
				<g>
					<path class="st4" d="M41.3,68.5c3,7.1,8.2,12.8,11.6,19.8c1.7,3.3,2.7,7,2.5,10.7c-0.2,4.4-2.3,8.6-3.4,12.8
						c-1.2,4.4-1.6,9.2,0.9,13.3c0.3,0.4,1.3,0,1-0.5c-4.9-8.3,2.1-17,2.6-25.4c0.5-7.3-3.7-13.7-7.4-19.6
						c-2.5-3.7-4.9-7.4-6.7-11.5C42.2,67.7,41.1,68,41.3,68.5L41.3,68.5z"/>
				</g>
			</g>
			<g>
				<g>
					<path class="st4" d="M43,94c3,6.2,2.1,13.2,2.7,19.8c0.3,3.3,1.1,6.6,2.7,9.6c1.5,2.6,3.4,4.9,5.4,7.2c2.4,2.7,4.7,5.6,6.1,9
						c0.1,0.2,0.9-0.1,0.8-0.2c-2.5-5.8-7.4-9.9-10.8-15.1c-3.7-5.9-3.4-12.7-3.7-19.4c-0.2-3.8-0.7-7.6-2.4-11.1
						C43.7,93.6,43,93.9,43,94L43,94z"/>
				</g>
			</g>
			<g>
				<g>
					<path class="st5" d="M47.9,73.4c-1.2,15.7-9.6,30.3-8.3,46.4c0,0.2,1.1,0,1.1-0.3c-1.3-16,7.2-30.6,8.3-46.4
						C49,73,47.9,73.1,47.9,73.4L47.9,73.4z"/>
				</g>
			</g>
			<g>
				<g>
					<path class="st4" d="M54.6,70.1c-1.1,2.8-3.1,5.1-3.6,8.1c-0.4,2.4-0.1,5.6-2.3,7.2c-0.6,0.4,0.3,0.8,0.7,0.5
						c2.3-1.6,2.2-4.5,2.5-7c0.2-1.6,0.7-2.9,1.4-4.3c0.8-1.5,1.8-2.8,2.4-4.5C55.9,69.6,54.8,69.6,54.6,70.1L54.6,70.1z"/>
				</g>
			</g>
			<g>
				<g>
					<path class="st4" d="M41.5,72c-1.2,2.4-1.6,4.9-1.4,7.6c0.2,2.7,0.7,5.5,0.6,8.3c-0.3,5.9-1.2,12.6,3.8,16.9
						c0.2,0.2,1.2-0.2,1-0.4c-5-4.2-4-11-3.8-16.8c0.1-2.6-0.3-5.2-0.6-7.7c-0.2-2.8,0-5.5,1.3-8C42.6,71.7,41.6,71.8,41.5,72
						L41.5,72z"/>
				</g>
			</g>
			<g>
				<g>
					<path class="st4" d="M72.3,67.6c-2,0.9-2.4,4.1-2.6,5.9c-0.6,3.6-0.8,7.3-1.1,10.9c-0.2,1.7-0.4,3.3-0.8,4.9
						c-0.2,1.1-0.5,2.4-1.3,3.1c-0.5,0.5-1.3,0.5-2,0.7c-1.2,0.3-2.5,0.6-3.5,1.2c-2.5,1.2-3.6,3.3-4.1,5.9
						c-1.5,7.8-2.2,15.9-2.8,23.7c0,0.4,0.8,0.3,0.8-0.1c0.6-6.9,1.4-13.8,2.4-20.7c0.5-3.3,0.8-6.9,4.1-8.5
						c1.2-0.6,2.5-0.9,3.7-1.2c0.6-0.1,1.3-0.2,1.8-0.6c1.8-1.2,2.1-4.4,2.3-6.3c0.5-3.5,0.7-7.1,1.1-10.6c0.2-1.8,0.4-3.4,0.8-5.1
						c0.3-1,0.6-2.5,1.7-3C73,67.8,72.6,67.4,72.3,67.6L72.3,67.6z"/>
				</g>
			</g>
			<g>
				<g>
					<path class="st3" d="M45.8,68.1c0.4,0.9,2,0.8,2.6,0.8c1.4,0.1,2.7-0.1,4.1,0.2c0.7,0.1,0.6,0.3,0.6,1
						c-0.1,1.4-0.5,2.7-0.6,4.1c-0.2,2.7,0.4,5.4,1.1,8c0.1,0.5,1.2,0.2,1.1-0.3c-0.7-2.7-1.4-5.5-1-8.3c0.2-1.4,0.6-2.7,0.5-4.1
						c0-0.5-0.1-0.8-0.6-0.9c-1.1-0.5-2.5-0.3-3.7-0.3c-0.7,0-1.4,0-2-0.1c-0.2,0-1,0-1.1-0.3C46.7,67.3,45.6,67.6,45.8,68.1
						L45.8,68.1z"/>
				</g>
			</g>
			<g>
				<g>
					<path class="st4" d="M45.7,92.7c-0.2,6.1-1.5,12.2-3.7,17.8c-0.2,0.4,0.7,0.5,0.8,0.1c2.4-5.7,3.6-11.8,3.7-17.9
						C46.5,92.2,45.7,92.3,45.7,92.7L45.7,92.7z"/>
				</g>
			</g>
			<g>
				<g>
					<path class="st3" d="M52.9,89.8c-1,5.8-1.6,11.6-1.7,17.3c-0.1,4.6,1.2,10.8-2.3,14.5c-0.4,0.4,0.4,0.5,0.7,0.3
						c3.3-3.7,2.4-9.3,2.4-13.9c0-6.2,0.6-12.2,1.7-18.3C53.8,89.3,53,89.4,52.9,89.8L52.9,89.8z"/>
				</g>
			</g>
			<g>
				<g>
					<path class="st4" d="M35.5,105.4c7-10.3,12.2-21.6,15.7-33.5c0.1-0.5-0.7-0.5-0.8-0.1c-3.4,11.9-8.6,23.1-15.6,33.3
						C34.5,105.6,35.2,105.8,35.5,105.4L35.5,105.4z"/>
				</g>
			</g>
			<g>
				<g>
					<path class="st4" d="M46.9,105c0.4,0,1.2-0.5,0.4-0.5C47,104.5,46.2,105,46.9,105L46.9,105z"/>
				</g>
			</g>
			<g>
				<g>
					<path class="st4" d="M58.3,90.7c-0.6,0.5-1.2,0.9-1.7,1.4c-0.4,0.5-0.8,1.1-0.5,1.8c0.1,0.2,0.9,0,0.8-0.2
						c-0.2-0.6,0-1.2,0.4-1.6c0.5-0.5,1-0.9,1.6-1.3c0.1-0.1,0.1-0.2-0.1-0.2C58.7,90.5,58.5,90.6,58.3,90.7L58.3,90.7z"/>
				</g>
			</g>
			<g>
				<g>
					<path class="st4" d="M61.9,83.3c0.2,0,0.9-0.4,0.4-0.4C62,82.9,61.3,83.3,61.9,83.3L61.9,83.3z"/>
				</g>
			</g>
			<g>
				<g>
					<path class="st4" d="M41.6,114.9c1.9,4.8,3.7,9.6,5.7,14.4c1,2.4,1.9,4.7,0.7,7.3c-0.8,1.7-2,3-2.4,4.9
						c-0.1,0.3,0.8,0.2,0.8-0.1c0.4-2,1.8-3.5,2.5-5.3c1-2.3,0.2-4.3-0.7-6.5c-2-4.9-3.9-9.9-5.8-14.8
						C42.3,114.4,41.5,114.6,41.6,114.9L41.6,114.9z"/>
				</g>
			</g>
			<g>
				<g>
					<path class="st4" d="M44.3,99c1.7,5,3.3,10,5,15c0.8,2.4,1.7,4.7,2.4,7.1c0.6,2,1.1,4.3-0.5,5.9c-0.2,0.2,0.6,0.2,0.8,0
						c1.3-1.4,1.3-3.2,0.9-5c-0.6-2.4-1.6-4.9-2.4-7.4c-1.8-5.3-3.5-10.6-5.3-15.9C45,98.5,44.2,98.7,44.3,99L44.3,99z"/>
				</g>
			</g>
			<g>
				<g>
					<path class="st4" d="M30.3,72.6c4.3,7.4,9.5,15.9,8.7,24.8c-0.2,2.2-0.8,4.2-1.8,6.2c-0.9,1.8-2.3,3.3-2.4,5.3
						c-0.1,2.1,0.8,4.3,1.3,6.4c0.6,2.4,1.2,4.8,1.8,7.3c0.1,0.4,0.9,0.2,0.8-0.2c-0.6-2.5-1.2-5-1.8-7.5c-0.5-2.2-1.6-4.8-1.1-7
						c0.6-2.1,2.2-3.8,2.8-5.9c0.7-1.9,1.1-3.8,1.1-5.8c0.2-8.6-4.7-16.7-8.9-23.8C30.8,71.9,30,72.2,30.3,72.6L30.3,72.6z"/>
				</g>
			</g>
			<g>
				<g>
					<path class="st3" d="M51.8,92c0.1,0.8,0.1,1.7,0,2.4s-0.4,1.4-0.7,2.1c-0.5,1.1-1.2,2.4-0.4,3.5c0.2,0.3,1.3-0.1,1-0.4
						c-0.8-1.2,0.2-2.5,0.7-3.6c0.3-0.7,0.5-1.4,0.6-2.1c0.1-0.8,0-1.5-0.1-2.3C52.8,91.4,51.8,91.6,51.8,92L51.8,92z"/>
				</g>
			</g>
			<g>
				<g>
					<path class="st4" d="M55.1,108.1c1,4.6-0.8,9.6-4.4,12.5c-0.4,0.4,0.2,0.7,0.6,0.4c3.8-3.1,5.7-8.3,4.7-13.2
						C55.8,107.6,55,107.8,55.1,108.1L55.1,108.1z"/>
				</g>
			</g>
			<g>
				<g>
					<path class="st4" d="M35.7,108.1c3.2,8.2,5.9,16.7,7.6,25.4c0.1,0.4,0.9,0.2,0.8-0.2c-1.9-8.6-4.4-17.2-7.6-25.4
						C36.4,107.6,35.5,107.8,35.7,108.1L35.7,108.1z"/>
				</g>
			</g>
			<g>
				<g>
					<path class="st4" d="M36.6,113.6c2.9,4.6,5.5,9.4,7.6,14.4c1.1,2.5,2,4.9,2.8,7.4c0.4,1.4,0.9,2.6,1.3,4c0.2,0.8,0.3,2,1.3,2.2
						c0.2,0,0.9-0.3,0.7-0.3c-1.1-0.2-1.3-2.5-1.6-3.4c-0.4-1.3-0.8-2.5-1.2-3.8c-0.9-2.4-1.8-4.8-2.8-7.3
						c-2.1-4.7-4.5-9.3-7.3-13.6C37.3,113.2,36.6,113.5,36.6,113.6L36.6,113.6z"/>
				</g>
			</g>
			<g>
				<g>
					<path class="st4" d="M50.9,110.9c-5.1,0.7-8.9,4.4-11.3,8.7c-1.3,2.4-2.4,5-3.1,7.6c-0.8,2.6-1.1,5.4,0.2,7.9
						c0.1,0.3,1,0,0.8-0.2c-2.2-4.5,0.3-10.2,2.4-14.3c2.2-4.4,5.8-8.7,11-9.4C51.2,111.3,51.4,110.8,50.9,110.9L50.9,110.9z"/>
				</g>
			</g>
			<g>
				<g>
					<path class="st4" d="M49.7,119.5c-1.2,3.8-1.8,7.7-1.7,11.8c0.1,3.7,1,7.7-0.9,11.2c-0.1,0.1,0.7,0.1,0.8-0.1
						c1.8-3.2,1.1-7,0.9-10.4c-0.2-4.2,0.4-8.5,1.7-12.5C50.6,119.2,49.8,119.3,49.7,119.5L49.7,119.5z"/>
				</g>
			</g>
			<g>
				<g>
					<path class="st3" d="M40.5,85.8c2.6,7,5.3,14.2,5.6,21.8c0.3,7.4-2.9,14.9-1.3,22.2c0.1,0.3,0.9,0,0.8-0.2
						c-1.7-7.4,1.6-14.8,1.3-22.2c-0.3-7.5-2.9-14.7-5.6-21.8C41.2,85.3,40.4,85.5,40.5,85.8L40.5,85.8z"/>
				</g>
			</g>
		</g>
		<polygon class="st9" points="71.4,137.6 141.2,109.3 140.9,159.6 71.3,194.3 		"/>
		<g>
			<g>
				<path class="st4" d="M49.5,138.9c-1-11.7,0.8-23.3,0-35.1c-0.2-2.8-0.6-5.7-1.2-8.5c-0.5-2.5-1.2-4.9-2.4-7.1
					c-2-3.6-5.3-6.4-8.5-8.9c-3.7-2.9-7.8-5.8-10.8-9.6c-0.2-0.3-1.3,0.1-1,0.4c5.2,6.8,13.6,10.1,18.4,17.1c1.4,2,2.1,4.3,2.6,6.6
					c0.7,2.7,1.2,5.6,1.5,8.5c0.6,5.7,0.4,11.4,0.2,17c-0.2,6.6-0.6,13.2,0,19.8C48.5,139.5,49.6,139.3,49.5,138.9L49.5,138.9z"/>
			</g>
		</g>
		<g>
			<g>
				<g>
					<path class="st4" d="M47.4,87c7.5,14,5.8,31,5.4,46.3c-0.1,5-0.3,10-0.4,14.9c0,0.4,0.8,0.3,0.8-0.1c0.2-8.9,0.5-17.7,0.7-26.7
						c0.2-7.6,0.2-15.3-1.4-22.8c-0.9-4.2-2.3-8.2-4.3-12.1C47.9,86.3,47.2,86.6,47.4,87L47.4,87z"/>
				</g>
			</g>
			<g>
				<g>
					<path class="st4" d="M33.8,70.3c3.5,2.1,7.4,3.6,10.8,6c1.7,1.2,3.4,2.6,4.3,4.6c1.3,2.6,2.3,5.5,2.9,8.3
						c0.6,2.8,0.6,5.7-0.5,8.4c-0.9,2.4-2.4,4.5-3.4,6.8c-2.1,4.6-1.6,9.6,0.7,14.1c1.3,2.6,3.3,4.6,5,7c2.3,3.1,2,6.6,1.1,10.1
						c-0.1,0.4,1,0.2,1.1-0.1c0.7-2.8,1.3-6-0.1-8.7c-1.2-2.4-3.1-4-4.6-6.2c-3-4.5-4.4-10.3-2.4-15.5c1-2.4,2.4-4.5,3.5-6.9
						c1.1-2.5,1.4-5.2,1-7.9c-0.5-2.9-1.6-5.8-2.6-8.5c-0.8-2-2-3.4-3.5-4.8c-3.7-3-8.1-4.7-12.2-7.1C34.3,69.5,33.3,70,33.8,70.3
						L33.8,70.3z"/>
				</g>
			</g>
			<g>
				<g>
					<path class="st4" d="M40.3,70c0.2,1.5,1.3,2.4,2.5,3.2c1.1,0.8,2.6,1.6,3.1,2.9c0.3,1-0.1,2.1-0.3,2.9
						c-0.2,1.5-0.4,2.8-0.6,4.3c-0.3,2.6-0.5,5.3-0.5,8c-0.1,2.8,0,5.7,0.2,8.5c0.1,2.1-0.1,5.2,1.6,6.9c1.4,1.4,3.6,1.2,5.2,2.4
						c1.8,1.2,2.9,3.1,3.6,5.1c2.1,5.3,0.4,10.9-2.2,15.7c-0.1,0.3,0.9,0.2,1.1-0.2c2.2-4.2,3.8-9,2.7-13.8
						c-0.8-3.6-2.9-7.3-6.8-8.3c-1.1-0.3-2.2-0.5-2.9-1.4c-1-1.1-1-2.8-1.2-4.2c-0.3-2.8-0.4-5.7-0.4-8.5c0-2.9,0.1-5.9,0.4-8.8
						c0.1-1.3,0.3-2.6,0.5-3.9c0.2-1.4,0.6-2.7,0.7-4c0.2-3.3-5.1-3.8-5.6-7.1C41.3,69.4,40.2,69.7,40.3,70L40.3,70z"/>
				</g>
			</g>
			<g>
				<g>
					<path class="st4" d="M48.5,81.3c0.8,9.2,1.6,18.5,2.3,27.7c0.7,8.9,0.8,17.8-0.4,26.8c-0.7,4.9-1.7,9.8-2.6,14.7
						c-0.1,0.4,0.8,0.3,0.8-0.1c1.8-8.7,3.4-17.4,3.6-26.4c0.2-9.1-0.8-18.1-1.6-27.1c-0.4-5.3-0.9-10.6-1.3-15.9
						C49.3,80.6,48.5,80.8,48.5,81.3L48.5,81.3z"/>
				</g>
			</g>
			<g>
				<g>
					<path class="st4" d="M41.4,108.2c1.8,8.2,6.1,15.7,7.9,23.9c1,4.3,0.9,8.4-0.1,12.6c-1,4.1-1.3,8-0.2,12.2
						c0.1,0.4,0.9,0.1,0.8-0.2c-0.6-2.2-0.8-4.4-0.7-6.7c0.1-2.2,0.7-4.2,1.1-6.3c0.9-4,0.8-7.9-0.1-12c-1.9-8.2-6.2-15.7-7.9-23.9
						C42.2,107.7,41.3,107.9,41.4,108.2L41.4,108.2z"/>
				</g>
			</g>
			<g>
				<g>
					<path class="st4" d="M44.9,74.3c0.2,4.6-1,9.2-2.3,13.5c-1.2,4.1-2.8,8.2-5.6,11.5c-1.1,1.3-2.2,2.4-2.2,4.1
						c0.1,2.2,1.4,4.4,2.3,6.4c1.9,4,4,7.7,6.6,11.4c0.3,0.4,1.3,0,1-0.5c-2.5-3.6-4.8-7.5-6.7-11.6c-0.9-1.9-2.3-4.2-2.1-6.3
						c0.2-2,2.3-3.5,3.3-5c2.2-3.1,3.5-6.9,4.5-10.5c1.2-4.3,2.3-8.7,2.1-13.1C46,73.7,44.9,73.8,44.9,74.3L44.9,74.3z"/>
				</g>
			</g>
			<g>
				<g>
					<path class="st4" d="M42.8,112.5c-0.4,1.1-0.6,2.2-0.3,3.3c0.4,1.2,1.1,2.3,1.7,3.3c1.4,2.4,2.7,4.9,4.1,7.4
						c0.2,0.3,1,0,0.8-0.3c-1.3-2.3-2.5-4.6-3.8-6.9c-0.6-1.1-1.4-2.2-1.8-3.3c-0.5-1.2-0.2-2.4,0.2-3.5
						C43.6,112.1,42.9,112.2,42.8,112.5L42.8,112.5z"/>
				</g>
			</g>
			<g>
				<g>
					<path class="st4" d="M37.3,75c3.4,8.4,6.9,16.9,8.6,25.9c0.8,4.3,1.2,8.7,0.8,13.1c-0.4,4.5-1.7,8.8-2.3,13.3
						c-0.6,4.6-0.4,9.5,1.9,13.6c0.1,0.2,0.9-0.1,0.8-0.2c-4.3-8.1-0.9-16.8,0.3-25.2c1.2-8.8-0.9-17.7-3.6-26.1
						c-1.7-5-3.6-9.8-5.6-14.6C38,74.6,37.3,74.9,37.3,75L37.3,75z"/>
				</g>
			</g>
			<g>
				<g>
					<path class="st4" d="M34.8,105.7c3.1,7,2.9,14.7,3.9,22.1c0.5,3.7,1.4,7.3,3,10.7c1.5,3,3.5,5.8,5.5,8.6
						c2.5,3.3,4.8,6.8,6.4,10.7c0.1,0.2,0.9,0,0.8-0.2c-2.6-6.6-7.7-11.8-11.2-17.8c-3.7-6.8-4-14.2-4.8-21.8
						c-0.5-4.3-1.2-8.5-2.9-12.5C35.5,105.2,34.7,105.5,34.8,105.7L34.8,105.7z"/>
				</g>
			</g>
			<g>
				<g>
					<path class="st4" d="M55.7,80.8c-4.4,7.5-8.6,15.4-10.1,24.1c-0.8,4.7-0.4,9.4,0,14.1c0.5,4.9,0.7,9.8-0.2,14.7
						c-0.9,4.8-2.5,9.4-5.3,13.5c-0.1,0.1,0.7,0.1,0.8-0.1c5-7.5,6.4-16.6,5.7-25.5c-0.4-5.1-1.1-10.1-0.5-15.2
						c0.5-4.4,1.8-8.7,3.5-12.7c1.9-4.5,4.3-8.8,6.8-13C56.7,80.5,55.9,80.6,55.7,80.8L55.7,80.8z"/>
				</g>
			</g>
			<g>
				<g>
					<path class="st5" d="M37.8,82.9c0.1,17.2-6.5,33.9-4.2,51.2c0.1,0.4,1.2,0.2,1.1-0.3c-2.3-17.2,4.3-33.8,4.2-51
						C38.8,82.3,37.8,82.5,37.8,82.9L37.8,82.9z"/>
				</g>
			</g>
			<g>
				<g>
					<path class="st3" d="M54.1,112.9c-2.8,7.1-8,12.9-10.5,20.2c-2.5,7.4-2.8,15.6-1.6,23.2c0,0.2,0.9,0,0.8-0.2
						c-1.4-7.8-1-16.1,1.7-23.5c2.5-7.1,7.5-12.8,10.4-19.8C55,112.6,54.2,112.7,54.1,112.9L54.1,112.9z"/>
				</g>
			</g>
			<g>
				<g>
					<path class="st4" d="M43.6,79.9c-0.8,3.1-2.5,5.8-2.7,9.1c-0.1,2.4,0.5,5.9-1.6,7.6c-0.5,0.4,0.6,0.5,0.9,0.2
						c2.1-1.8,1.7-5,1.8-7.4c0.1-1.7,0.4-3.1,1-4.7c0.6-1.7,1.4-3.2,1.9-4.9C44.8,79.4,43.7,79.6,43.6,79.9L43.6,79.9z"/>
				</g>
			</g>
			<g>
				<g>
					<path class="st4" d="M32.5,67.9c0,1.4,0.2,2.6,0.7,3.9c0.4,1.1,1.1,2.1,1.5,3.2c0.5,1.5,0.3,2.6-0.1,4.1c-0.6,1.7-1,3.3-1.3,5
						c-0.7,3.7-0.9,7.4-0.9,11.3c-0.1,3.9-0.2,7.8,0.3,11.8c0.5,3.9,1.8,7.9,4.5,10.8c0.4,0.4,1.4-0.1,1-0.5
						c-5.4-5.6-4.8-14.3-4.7-21.5c0.1-3.7,0.2-7.5,0.8-11.3c0.3-1.9,0.8-3.6,1.4-5.4c0.4-1.1,0.7-2.2,0.5-3.3
						c-0.2-1.3-0.8-2.4-1.4-3.4c-0.7-1.5-1.1-2.9-1.1-4.6C33.5,67.3,32.5,67.4,32.5,67.9L32.5,67.9z"/>
				</g>
			</g>
			<g>
				<g>
					<path class="st3" d="M42.3,78.8c0.2,2.4-0.3,4.7-0.1,7.2s0.9,4.8,1.5,7.2c0.1,0.2,1.2-0.1,1.1-0.3c-0.6-2.4-1.3-4.7-1.5-7.2
						c-0.2-2.4,0.3-4.7,0.1-7.2C43.3,78.5,42.3,78.6,42.3,78.8L42.3,78.8z"/>
				</g>
			</g>
			<g>
				<g>
					<path class="st4" d="M37.2,104.4c0.3,6.6-0.4,13.2-2.1,19.6c-0.1,0.2,0.8,0.1,0.8-0.1c1.8-6.4,2.4-13,2.1-19.7
						C38,104,37.2,104.2,37.2,104.4L37.2,104.4z"/>
				</g>
			</g>
			<g>
				<g>
					<path class="st3" d="M43.6,101.7c-0.5,6.3-0.6,12.5-0.2,18.8c0.2,2.9,0.5,5.9,0.6,8.8c0.1,2.6,0,5.6-1.6,7.7
						c-0.2,0.3,0.6,0.3,0.8,0c1.5-2.1,1.7-4.5,1.7-7c0-2.8-0.4-5.6-0.6-8.4c-0.4-6.7-0.4-13.4,0.2-20.1
						C44.4,101.3,43.6,101.5,43.6,101.7L43.6,101.7z"/>
				</g>
			</g>
			<g>
				<g>
					<path class="st4" d="M28.8,117.6c5.8-11.4,9.7-23.6,11.9-36.2c0-0.1-0.8,0-0.8,0.2c-2.2,12.6-6.1,24.8-11.9,36.2
						C28.1,117.8,28.7,117.8,28.8,117.6L28.8,117.6z"/>
				</g>
			</g>
			<g>
				<g>
					<path class="st4" d="M27.7,70c1.9,8.3,5.3,16.3,8,24.4c2.5,7.6,4.5,15.7,3.1,23.7c0,0.1,1,0,1.1-0.3c1.4-8-0.6-16.1-3.1-23.7
						c-2.7-8.1-6.1-16-8-24.4C28.7,69.5,27.7,69.8,27.7,70L27.7,70z"/>
				</g>
			</g>
			<g>
				<g>
					<path class="st4" d="M42.4,65.1c1.4,7.5,5.5,14.2,7.5,21.6c1.1,3.7,1.4,7.5,0.8,11.4c-0.3,1.8-0.8,3.7-2.1,5
						c-1,1-2.3,1.9-1.8,3.4c0.1,0.3,1.2,0,1.1-0.3c-0.6-1.9,1.9-2.9,2.6-4.4c0.8-1.4,1.2-3,1.3-4.7c0.4-3.6,0.1-7.3-0.9-10.8
						c-2.1-7.3-6.2-13.9-7.5-21.6C43.3,64.5,42.3,64.8,42.4,65.1L42.4,65.1z"/>
				</g>
			</g>
			<g>
				<g>
					<path class="st4" d="M35.1,128.9c2.1,5.3,4,10.6,6.1,15.9c0.9,2.4,2.3,5,1.7,7.6c-0.5,2.2-1.9,4-2.1,6.3c0,0.3,0.8,0.1,0.8-0.1
						c0.2-2.3,1.6-4.1,2.1-6.3c0.6-2.5-0.6-5-1.5-7.4c-2.1-5.5-4.1-10.9-6.3-16.4C35.8,128.4,35,128.6,35.1,128.9L35.1,128.9z"/>
				</g>
			</g>
			<g>
				<g>
					<path class="st4" d="M36.4,111.4c1.9,5.5,3.7,11.1,5.6,16.6c0.9,2.6,1.8,5.3,2.6,8c0.7,2.1,1.7,5.1,0.2,7.1
						c-0.3,0.4,0.5,0.5,0.7,0.2c1.3-1.7,1-3.8,0.5-5.7c-0.7-2.8-1.9-5.7-2.7-8.4c-2-6-4-12-6-17.9C37.1,110.8,36.3,111,36.4,111.4
						L36.4,111.4z"/>
				</g>
			</g>
			<g>
				<g>
					<path class="st4" d="M27.3,78.7c3.5,6.8,5.4,14.3,5.6,21.9c0.1,3.8-0.3,7.6-1.3,11.3c-0.4,1.7-1,3.2-1.6,4.8
						c-0.7,1.8-1.6,3.3-1.4,5.3c0.2,2.4,1.1,4.9,1.7,7.3c0.7,2.5,1.4,5.2,2.1,7.7c0.1,0.2,0.9,0,0.8-0.2c-1.2-4.4-2.4-8.8-3.4-13.3
						c-0.3-1.1-0.4-2.2-0.2-3.3c0.2-1,0.7-2,1.1-2.8c0.7-1.6,1.3-3.1,1.7-4.8c2-7.1,1.9-14.6,0.4-21.8c-0.9-4.2-2.5-8.3-4.4-12.2
						C28,78.4,27.2,78.6,27.3,78.7L27.3,78.7z"/>
				</g>
			</g>
			<g>
				<g>
					<path class="st3" d="M42.9,104c0.1,0.8,0.2,1.7,0.2,2.4c0,0.8-0.2,1.6-0.4,2.4c-0.4,1.3-1.1,2.7-0.3,4c0.1,0.2,0.9-0.1,0.8-0.2
						c-0.8-1.4-0.1-2.8,0.4-4.2c0.5-1.5,0.4-3,0.1-4.6C43.6,103.6,42.9,103.8,42.9,104L42.9,104z"/>
				</g>
			</g>
			<g>
				<g>
					<path class="st3" d="M31.5,73.9c0.3,0,0.9-0.4,0.3-0.4C31.5,73.6,30.9,73.9,31.5,73.9L31.5,73.9z"/>
				</g>
			</g>
			<g>
				<g>
					<path class="st4" d="M47,122.4c1.1,4.7,0.4,10.3-3.1,13.8c-0.4,0.4,0.5,0.4,0.7,0.2c3.7-3.6,4.4-9.4,3.3-14.2
						C47.7,121.8,46.9,122,47,122.4L47,122.4z"/>
				</g>
			</g>
			<g>
				<g>
					<path class="st4" d="M29.1,120.9c3.6,9.4,6.6,19,8.9,28.9c0,0.2,0.9-0.1,0.8-0.2c-2.4-9.8-5.3-19.5-8.9-28.9
						C29.9,120.5,29,120.7,29.1,120.9L29.1,120.9z"/>
				</g>
			</g>
			<g>
				<g>
					<path class="st4" d="M30.4,127.2c3.1,5.5,5.9,11.2,8.2,17.1c1.2,2.8,2.2,5.8,3.1,8.7c0.5,1.5,0.9,2.8,1.4,4.3
						c0.2,0.8,0.4,2.1,1.4,2.3c0.3,0.1,1-0.4,0.5-0.5c-0.7-0.2-0.9-1.5-1-2.1c-0.2-0.7-0.4-1.5-0.7-2.2c-0.5-1.5-0.9-2.8-1.4-4.3
						c-1-2.7-2-5.5-3.1-8.2c-2.3-5.3-4.8-10.5-7.6-15.5C31,126.6,30.2,126.9,30.4,127.2L30.4,127.2z"/>
				</g>
			</g>
			<g>
				<g>
					<path class="st4" d="M43.4,125.1c-5.1,0.4-8.2,4.7-10,9.1c-2,5.1-3.8,11.7-1.5,17c0.1,0.2,0.9-0.1,0.8-0.2
						c-2.1-4.6-0.8-9.8,0.7-14.4c1.4-4.6,4.1-10.7,9.7-11.1C43.3,125.5,44,125.1,43.4,125.1L43.4,125.1z"/>
				</g>
			</g>
			<g>
				<g>
					<path class="st4" d="M42.9,134.6c-0.8,4.2-1,8.5-0.7,12.8c0.3,4.1,1.7,8.5,0.1,12.5c-0.2,0.4,0.7,0.4,0.8,0.1
						c1.5-3.6,0.5-7.6,0.1-11.4c-0.5-4.7-0.4-9.4,0.6-14.1C43.8,134.1,43,134.3,42.9,134.6L42.9,134.6z"/>
				</g>
			</g>
			<g>
				<g>
					<path class="st3" d="M31.9,96.3c2.8,7.9,5.8,16,6.7,24.3c0.9,8.3-1.5,16.9,0.5,25.1c0.1,0.4,0.9,0.1,0.8-0.2
						c-2.1-8.2,0.4-16.8-0.5-25.1c-0.9-8.4-3.8-16.5-6.7-24.3C32.6,95.7,31.8,95.9,31.9,96.3L31.9,96.3z"/>
				</g>
			</g>
		</g>
		<g>
			<g>
				<path class="st4" d="M38.5,82c0.4,2.1,1.2,4.1,2.5,5.8c0.7,0.9,1.6,1.7,2.5,2.4c1.2,0.9,1.2,1.9,1.3,3.2c0.1,1.5,0,2.9-0.3,4.3
					c-0.2,1.3-0.6,2.6-0.7,3.9c-0.1,2.4,1.2,4.1,2.6,5.8c0.1,0.2,0.9-0.1,0.8-0.3c-1.9-2.2-2.9-4-2.5-7c0.5-2.5,0.9-5,0.8-7.5
					c-0.1-1-0.1-1.9-0.9-2.5c-0.8-0.7-1.7-1.3-2.4-2.1c-1.6-1.8-2.6-3.9-3-6.3C39.3,81.5,38.5,81.7,38.5,82L38.5,82z"/>
			</g>
		</g>
		<g>
			<g>
				<path class="st4" d="M38.3,100c0.4,0,1.2-0.6,0.4-0.6C38.4,99.4,37.7,100,38.3,100L38.3,100z"/>
			</g>
		</g>
		<g>
			<g>
				<path class="st4" d="M36.7,101.6c0.4,0,1.2-0.5,0.4-0.5C36.8,101.1,36,101.6,36.7,101.6L36.7,101.6z"/>
			</g>
		</g>
		<g>
			<g>
				<path class="st4" d="M38.1,117.9c-0.9-4.4-1.9-8.8-2.7-13.2c-0.2-0.8-0.4-1.7,0.2-2.3c0.3-0.4,0.7-0.5,1.1-0.6
					c0.5-0.2,1.1-0.4,1.5-0.9c1-1.1,0.6-2.7,0.1-3.9c-1.1-3-3.5-5.3-5-8c-1-1.8-1.2-3.5-1.5-5.4s-1-3.5-2.1-5
					c-0.7-1-1.3-2.3-2.6-2.1c-0.6,0.1-1.1,0.3-1.7,0.4c-0.3,0.1-0.6,0.2-0.9,0.3c-0.1,0-0.2,0.1-0.3,0.1c-0.3,0.1-0.4,0-0.2-0.3
					c-0.1-0.4,0.1-0.6,0.5-0.7c0.5-0.2,0.1-0.7-0.4-0.5c-0.6,0.2-1.7,1.5-0.8,2.1c0.6,0.4,1.9-0.2,2.5-0.4c0.4-0.1,1.2-0.5,1.6-0.4
					s0.8,0.8,1.1,1.1c0.4,0.5,0.8,1,1.1,1.5c1.3,2,1.4,3.9,1.8,6.2c0.6,3.5,3,6.1,4.9,9c0.9,1.4,2.1,3.5,1.7,5.2
					c-0.4,1.8-3,1.3-3.4,3c-0.2,1,0.2,2.2,0.4,3c0.3,1.4,0.6,2.6,0.9,4c0.6,2.6,1.1,5.4,1.7,8C37.4,118.5,38.2,118.3,38.1,117.9
					L38.1,117.9z"/>
			</g>
		</g>
		<g>
			<g>
				<path class="st4" d="M29.8,122.7c-0.7-4.4-1.4-8.7-2.1-13.1c-0.1-0.5-0.1-1-0.2-1.5s-0.4-1.3-0.3-1.7c0.3-1,1.1-0.4,1.8-0.5
					c1-0.1,1.9-0.7,2.4-1.6c0.8-1.5,0.1-3.3-0.5-4.8c-0.7-1.7-1.6-3.2-2.6-4.6c-1.1-1.4-3-2.7-2.8-4.7c0.1-1.6,1.1-2.8,0.9-4.5
					c-0.5-3.4-4.1-5.9-6.4-8.1c-0.2-0.2-1,0.1-0.8,0.3c2.2,2.2,5.2,4.3,6.2,7.4c0.5,1.7-0.2,2.9-0.6,4.6c-0.4,1.7,0.5,2.7,1.6,3.9
					c1.3,1.4,2.4,2.9,3.2,4.6c0.8,1.6,1.8,3.7,1.4,5.6c-0.3,1.4-1.4,1.7-2.6,1.5c-0.3-0.1-0.7-0.1-1,0c-1.4,0.4-0.7,2.3-0.5,3.2
					c0.7,4.8,1.5,9.5,2.2,14.3C29,123.1,29.9,123,29.8,122.7L29.8,122.7z"/>
			</g>
		</g>
		<g>
			<g>
				<path class="st4" d="M52.4,68.3c0.1,1.1,0.3,2.3,1.3,2.9c0.6,0.3,1.2,0.4,1.5,1.1s0.3,1.5,0.4,2.3c0.5,3.3,0.9,6.6,1.4,9.9
					c0.1,0.4,1.2,0.2,1.1-0.3c-0.5-3.3-0.9-6.6-1.4-9.9c-0.2-1.2-0.1-2.5-1.3-3.2c-0.6-0.4-1.3-0.5-1.6-1.3
					c-0.3-0.6-0.3-1.2-0.3-1.8C53.3,67.6,52.3,67.8,52.4,68.3L52.4,68.3z"/>
			</g>
		</g>
		<g>
			<g>
				<path class="st4" d="M62.5,123.2c0.4,0,1.2-0.6,0.4-0.6C62.5,122.7,61.9,123.2,62.5,123.2L62.5,123.2z"/>
			</g>
		</g>
		<g>
			<g>
				<path class="st4" d="M61.8,83.2C60.5,77.3,56.7,72,56.4,66c-0.2,0.1-0.5,0.2-0.7,0.3c1.7,1,3.4,1.8,5.2,2.6
					c1.7,0.9,3.5,1.9,4.8,3.3c0.2,0.3,1,0,0.8-0.3c-1.2-1.5-3-2.4-4.7-3.3c-1.8-1-3.6-1.8-5.4-2.8c-0.2-0.1-0.8,0-0.7,0.3
					c0.3,6.2,4.1,11.4,5.4,17.2C61.1,83.7,61.9,83.5,61.8,83.2L61.8,83.2z"/>
			</g>
		</g>
		<g>
			<g>
				<path class="st4" d="M36.4,145c-0.5-14,1.5-28,1-42c0-0.5-1.1-0.3-1.1,0.1c0.4,14-1.5,28-1,42C35.3,145.7,36.4,145.4,36.4,145
					L36.4,145z"/>
			</g>
		</g>
		<g>
			<g>
				<path class="st4" d="M46.6,103.1c0.4,0,1.1-0.7,0.4-0.7C46.6,102.4,45.9,103.1,46.6,103.1L46.6,103.1z"/>
			</g>
		</g>
		<path class="st10" d="M17.8,123L69,147.4c-0.2-0.4,52.7-27.1,52.7-27.1L73.4,94.5L17.8,123z"/>
		<path class="st8" d="M128.6,108.4l-56.9,26.8l4.3,4.6l59.4-28L128.6,108.4z"/>
		<g>
			<g>
				<g>
					<path class="st4" d="M55.4,60.1c0.7,7.4,4.1,14.3,8.5,20.3c3,4.2,6.7,8.2,10.8,11.5c0.5,0.4,2,1.9,2.6,0.8
						c0.1-0.1-0.9-0.1-1.1,0.2c0.8-1.4,1.2,0.1,0.7-0.4c-0.1-0.1-0.4-0.2-0.5-0.3c-0.6-0.4-1.1-0.8-1.6-1.3
						c-1.7-1.4-3.2-2.9-4.7-4.5c-4.3-4.5-8-9.7-10.6-15.4c-1.6-3.5-2.7-7.3-3-11.2C56.5,59.6,55.4,59.8,55.4,60.1L55.4,60.1z"/>
				</g>
			</g>
		</g>
		<g>
			<g>
				<path class="st4" d="M29.6,109.5c-0.6,2.9,0.1,6.2,0.8,9c0.8,3.5,1.7,7,2.4,10.5c0.6,2.9,0.7,5.6,0.3,8.5c-0.4,3.3-1,6.7-1,10.1
					c0,2.7,0.3,6.1,2.8,7.6c0.3,0.2,1.3-0.3,0.9-0.6c-2.4-1.5-2.6-4.8-2.6-7.4c0-3.2,0.6-6.5,1-9.6c0.3-2.6,0.4-5.2-0.1-7.8
					c-0.6-3.3-1.5-6.7-2.3-10s-1.8-7.1-1.1-10.5C30.8,108.9,29.7,109.1,29.6,109.5L29.6,109.5z"/>
			</g>
		</g>
		<polygon class="st11" points="8.6,107.7 8.2,164.2 76.3,197.2 76.8,140 		"/>
		<polygon class="st2" points="18,123.1 18,164.2 69.1,188.8 69.3,147.2 		"/>
		<g>
			<g>
				<path class="st4" d="M40.6,102.9c0.3,0.9,0.6,1.9,0.1,2.6c-0.1,0.2,0.1,0.3,0.3,0.3s0.6-0.1,0.7-0.3c0.5-1,0.3-2.1,0-3
					c-0.1-0.2-0.5-0.2-0.6-0.1C41,102.6,40.6,102.7,40.6,102.9L40.6,102.9z"/>
			</g>
		</g>
		<g>
			<g>
				<path class="st4" d="M50.3,69.3v-0.2c0,0.1-0.4,0.2-0.4,0.2c0.7-0.2-0.4,0.2-0.4,0.1c0,0,0,0.1,0,0c0,0.1,0.3,0.3,0.4,0.4
					c0.4,0.6,0.8,1.3,1.1,1.9c1,1.8,1.8,3.6,2.5,5.5c0.3,0.8,0.7,1.7,0.9,2.4c0.1,0.4,1.2,0.1,1.1-0.3c-0.5-2-1.4-3.9-2.3-5.8
					c-0.5-1-1-2-1.5-2.9c-0.3-0.6-0.6-1.3-1.1-1.7c-0.3-0.2-0.6-0.3-1-0.1c-0.3,0.2-0.4,0.4-0.4,0.7C49.2,69.9,50.3,69.7,50.3,69.3
					L50.3,69.3z"/>
			</g>
		</g>
		<g>
			<g>
				<path class="st4" d="M33.1,84.2c1.9,10.5,3,21.1,3.3,31.7c0,0.2,1.1,0,1.1-0.3c-0.3-10.7-1.5-21.3-3.3-31.7
					C34.1,83.6,33.1,83.9,33.1,84.2L33.1,84.2z"/>
			</g>
		</g>
		<g>
			<g>
				<path class="st4" d="M11.5,77.1c0.6,0.4,1.5,0.4,2.2,0.5c1,0.1,2,0.1,2.8,0.3c0.9,0.1,1.7,0.5,2.4,0.8c1.2,0.4,2.4,0.8,3.3,1.5
					c1.2,0.8,1.5,1.8,1.8,3c0.4,1.5,0.8,3,1.3,4.5c1.1,2.9,2.5,5.8,4.2,8.4c0.2,0.3,1.3,0,1-0.4c-1.9-2.7-3.3-5.8-4.4-8.9
					c-0.6-1.6-0.9-3.2-1.3-4.8c-0.2-1-0.8-1.7-1.6-2.3c-0.9-0.7-2-1.1-3-1.5c-0.9-0.3-1.9-0.8-2.7-1s-1.8-0.2-2.6-0.3
					s-1.9,0-2.5-0.4C12,76.4,11,76.8,11.5,77.1L11.5,77.1z"/>
			</g>
		</g>
		<polygon class="st1" points="82.5,137 14.3,105 8.4,107.8 76.1,139.9 		"/>
		<path class="st9" d="M76.2,139.8c0.2,0.5,64.9-30.9,64.9-30.9l-0.2,55.9l-64.5,32.3L76.2,139.8z"/>
	</g>
</g>
</svg>
