<?xml version="1.0" encoding="utf-8"?>
<!-- Generator: Adobe Illustrator 25.2.3, SVG Export Plug-In . SVG Version: 6.00 Build 0)  -->
<svg version="1.1" id="Layer_1" xmlns="http://www.w3.org/2000/svg" xmlns:xlink="http://www.w3.org/1999/xlink" x="0px" y="0px"
	 viewBox="0 0 150.4 280.3" style="enable-background:new 0 0 150.4 280.3;" xml:space="preserve">
<style type="text/css">
	.st0{fill:#4B3950;stroke:#F0EFF3;stroke-width:0.245;stroke-miterlimit:10;}
	.st1{fill:#F0EFF3;}
	.st2{font-family:'MyriadPro-Regular';}
	.st3{font-size:12.2208px;}
	.st4{fill:#E4DAD8;stroke:#FFFFFF;stroke-width:0.2722;stroke-miterlimit:10;}
	.st5{fill:#CBB8B9;stroke:#FFFFFF;stroke-width:0.2722;stroke-linejoin:bevel;stroke-miterlimit:10;}
	.st6{opacity:0.5;fill:#4B3950;enable-background:new    ;}
	.st7{fill:#D8422E;}
	.st8{fill:#DC3359;}
	.st9{fill:#EE7345;}
	.st10{fill:#E4DAD8;stroke:#FFFFFF;stroke-width:0.2722;stroke-linejoin:bevel;stroke-miterlimit:10;}
	.st11{fill:#E4DAD8;stroke:#FFFFFF;stroke-width:0.245;stroke-linejoin:bevel;stroke-miterlimit:10;}
	.st12{fill:#CBB8B9;stroke:#FFFFFF;stroke-width:0.245;stroke-linejoin:bevel;stroke-miterlimit:10;}
	.st13{fill:#E4DAD8;stroke:#FFFFFF;stroke-width:0.245;stroke-miterlimit:10;}
	.st14{opacity:0.42;fill:#4B3950;enable-background:new    ;}
	.st15{opacity:0.5;fill:#E4DAD8;stroke:#FFFFFF;stroke-width:0.2722;stroke-miterlimit:10;enable-background:new    ;}
</style>
<g>
	<g>
		<path class="st0" d="M89.2,139.7l17.2,8.1c1,0.5,2.1,0.4,3-0.1l27.5-14.1c2.5-1.3,2.5-4.7,0.1-6l-16.3-8.7c-1-0.5-2.2-0.6-3.1,0
			l-28.5,14.7C86.6,134.9,86.7,138.6,89.2,139.7z"/>
		<path class="st0" d="M89.4,133.8l13.3,6.9l6.2,1.3l28.1-14.1c2.4-1.3,2.4-4.7,0.1-6l-15.6-7.8c-1-0.5-3.9-0.4-5.9,0.4
			c-2.1,0.9-26.5,13.4-26.5,13.4C86.9,129,86.9,132.5,89.4,133.8z"/>
		<path class="st0" d="M88.8,128c-2.1,0.8-2.3,9.2-1.5,10.4c0.8,1.2,17.3,9.1,17.3,9.1c1.3,0.6,2.7,1.2,5.9-0.1
			c3.1-1.2,26.3-12.8,27.4-14.1c1.2-1.3,0.9-7.4,0.9-7.4c0.1,1.2-27.1,14.1-27.1,14.1c-2.1,1.3-6.8,0.8-7.9,0.2
			c-1.2-0.6-14.8-7.4-14.8-7.4C87,131.8,86.9,129.4,88.8,128z"/>
		<text transform="matrix(0.8894 -0.4572 0.4572 0.8894 105.327 135.0689)" class="st1 st2 st3">Seife</text>
	</g>
	<g>
		<polygon class="st4" points="8.4,188 75.1,156.4 74.2,210.7 8.4,245.3 		"/>
		<polygon class="st5" points="74.2,154.7 8.8,187.8 18.1,188.4 75.1,159.5 		"/>
		<polygon class="st6" points="18,244.2 68.8,269 137.8,236.4 75.2,213.3 		"/>
		<g>
			<g>
				<g>
					<path class="st7" d="M60.1,225.8c2.3,0.2,3.7-0.5,5.6-1.8c1.1-0.8,2.3-1.1,3.6-1.1c2,0.1,3.9,0.4,5.8,1
						c6.7,2,10.4,8.4,16.3,11.8c3,1.7,6.5,2.5,9.8,1.5c0.5-0.2,0.4-0.8-0.2-0.6c-4.6,1.5-9.2-1.1-12.6-3.9c-3-2.5-5.8-5.7-9.2-7.7
						c-1.8-1-3.5-1.7-5.5-2.1c-1.8-0.3-3.8-0.7-5.6-0.4c-1.2,0.2-2.1,0.7-3,1.4c-1.4,1-2.6,1.5-4.4,1.4
						C60,225.2,59.5,225.8,60.1,225.8L60.1,225.8z"/>
				</g>
			</g>
			<g>
				<g>
					<path class="st8" d="M60.9,229.2c7.7-1.7,15.5,1,22.5,4c7.1,3,13.9,6.5,20.9,9.7c0.3,0.1,1.1-0.3,0.7-0.4
						c-7.5-3.5-14.9-7.2-22.5-10.4c-6.9-2.8-14.2-5-21.7-3.3C60.2,228.9,60.3,229.3,60.9,229.2L60.9,229.2z"/>
				</g>
			</g>
			<g>
				<g>
					<path class="st8" d="M51.9,233.8c1.6-1.6,3.5-2.5,5.6-3c1.9-0.4,3.7-0.4,5.6-0.8c0.9-0.2,1.6-0.7,2.1-1.4
						c0.2-0.4,0.4-0.8,0.5-1.2c0.2-0.6,0.3-1,1-0.6c3.1,1.5,4.6,5.4,7,7.7c2.4,2.4,5.9,3.2,9.2,2.6c1.9-0.3,3.4-1.1,5.1-1.9
						c1.7-0.9,3.3-1.3,5.1-0.4c1.1,0.5,2.1,1.3,2.9,2c0.2,0.1,0.9-0.2,0.8-0.3c-1.6-1.3-3.2-2.5-5.3-2.5c-1.7,0-3.2,0.8-4.7,1.6
						c-4.4,2.3-9.6,1.9-12.9-2c-1.4-1.6-2.4-3.2-3.6-4.8c-0.8-1-2.2-2.4-3.5-2.5c-0.7,0-1.2,0.3-1.6,0.8c-0.8,1.3-0.8,2.5-2.5,2.7
						c-4,0.5-8.3,1-11.4,4.1C50.9,234.1,51.7,234,51.9,233.8L51.9,233.8z"/>
				</g>
			</g>
			<g>
				<g>
					<path class="st8" d="M64.7,219.5c-0.1,2.4-0.2,4.8-0.2,7.2c0,2-0.2,4.1,0.2,6.1c0.3,1.5,1.5,2,2.9,2.1c2.1,0.2,4.2,0.1,6.3-0.2
						c2.1-0.2,4.1-0.6,6.2-1.1c1.1-0.3,2.1-0.6,3-0.9c0.4-0.1,0.9-0.3,1.3-0.3c1.3,0,1.5,0.9,1.9,1.9c0.8,1.9,1.5,3.8,2.5,5.6
						c0.6,1.1,1.4,2.1,2.7,1.8c0.5-0.1,0.4-0.7-0.2-0.6c-1.7,0.4-2.7-3.7-3.2-4.8c-0.5-1.2-1-3.3-2.2-4.1c-1-0.6-2.3-0.2-3.3,0.2
						c-1.9,0.6-3.8,1.1-5.8,1.4c-2,0.4-4,0.6-6,0.6c-1.1,0-2.2,0.1-3.2-0.1c-1.4-0.2-2-0.9-2.1-2.3c-0.3-4.1-0.1-8.3,0.1-12.4
						C65.6,219,64.7,219.1,64.7,219.5L64.7,219.5z"/>
				</g>
			</g>
			<g>
				<g>
					<path class="st8" d="M46.8,229.8c3-4.2,8.4-0.5,11.5,1.7c2.2,1.6,4.4,2.8,7.1,3.3c1.3,0.2,2.6,0.4,3.9,0.7
						c1.4,0.3,2.9,1,4.4,0.7c1.2-0.3,1.9-1.1,2.4-2.2c1-2,2.4-3.4,4.6-3.7c4.7-0.7,8.3,3,10.9,6.5c0.2,0.2,0.9-0.2,0.9-0.2
						c-2.4-3-5.3-6.2-9.3-6.6c-3-0.3-6.2,0.9-7.6,3.6c-0.2,0.4-0.4,0.8-0.6,1.2c-0.6,0.9-1.5,1.2-2.5,1c-1.1-0.1-2.1-0.6-3.1-0.8
						c-1.4-0.3-2.7-0.4-4.1-0.7c-3.7-0.9-6.4-3.7-9.7-5.5c-3-1.6-7.3-2-9.6,1.2C45.9,230,46.7,230,46.8,229.8L46.8,229.8z"/>
				</g>
			</g>
			<g>
				<g>
					<path class="st8" d="M68.9,219.2c-0.7,3.7,1.3,8.4-1.4,11.7c-1.3,1.7-3.4,1.3-5,2.5c-1.1,0.8-1.4,2-0.6,3
						c1.1,1.4,2.9,2.4,4.4,3.2c1.7,1,3.3,1.9,5.1,2.7c3.6,1.9,7.3,3.6,10.4,6.2c0.2,0.2,1-0.2,0.8-0.3c-2.8-2.4-6.1-4-9.4-5.7
						s-7.3-3.3-9.9-6c-0.8-0.8-1.3-1.9-0.5-2.7s2.1-1,3.1-1.4c1.3-0.4,2.3-1.2,2.8-2.3c2.1-3.4,0.4-7.5,1-11.2
						C69.8,218.8,68.9,218.9,68.9,219.2L68.9,219.2z"/>
				</g>
			</g>
			<g>
				<g>
					<path class="st8" d="M62.3,230.7c1.5,0.4,2.9,0.7,4.4,0.6c1.2-0.1,2.4-0.4,3.5-0.4c2,0,3.7,0.8,5.6,1.3
						c2.3,0.7,4.4,1.5,6.7,2.3c8.2,3,15.3,7.8,22.3,13c0.2,0.1,0.9-0.2,0.8-0.3c-7.2-5.3-14.4-10.1-22.7-13.1c-2-0.7-3.9-1.4-5.9-2
						c-1.8-0.6-3.6-1.3-5.6-1.5c-1.2-0.1-2.3,0.1-3.3,0.2c-1.8,0.2-3.3,0-5.1-0.5C62.7,230.3,62.1,230.7,62.3,230.7L62.3,230.7z"/>
				</g>
			</g>
			<g>
				<g>
					<path class="st8" d="M74,240.8c6.5,0.9,12.9-1,19.4,0.2c3.3,0.6,5.8,2.2,8.4,4.2c2.4,1.8,4.8,3,7.8,3.3c0.2,0,1-0.4,0.5-0.4
						c-3.5-0.3-6.1-2.1-8.7-4.1c-2.3-1.8-4.7-2.8-7.4-3.3c-6.5-1.2-12.9,0.7-19.4-0.2C74.3,240.3,73.5,240.7,74,240.8L74,240.8z"/>
				</g>
			</g>
			<g>
				<g>
					<path class="st8" d="M39.9,231.1c4,0.4,8-0.3,12.1,0c4.2,0.3,7.5,2.1,10.9,4.6c0.9,0.7,2,1.4,2.5,2.4c0.4,0.6,0.5,1.4,0.7,2.1
						c0.4,1.3,0.9,2.6,1.6,3.7c0.8,1.2,2,1.6,3.3,1.5c4.4-0.1,8.8-1.4,12.9-2.8c0.6-0.2,0.1-0.7-0.4-0.5c-3.8,1.5-7.9,2.5-12.1,2.7
						c-1.2,0.1-2.3-0.2-2.9-1.3c-0.5-0.7-0.8-1.6-1.1-2.4c-0.3-0.9-0.5-1.7-0.8-2.5c-0.6-1.8-2.5-2.9-3.9-3.9
						c-2.8-2.2-5.9-3.6-9.5-4c-4.3-0.4-8.6,0.4-12.9,0C39.8,230.4,39.3,231,39.9,231.1L39.9,231.1z"/>
				</g>
			</g>
			<g>
				<g>
					<path class="st8" d="M57.6,228.2c0.7,0,1.6-0.2,2-0.9c0.1-0.2,0.2-0.6,0.1-0.8v-0.1c0-0.2-0.1-0.1-0.3,0.2
						c0.1,0.1,0.5,0.3,0.7,0.4c3.4,2.3,6.8,4.7,9.9,7.3c1.5,1.3,3,2.4,4.5,3.8c1.3,1.1,2.4,2.5,3.9,3.4c1.3,0.8,2.7,0.3,4.1-0.1
						c2.1-0.5,4.1-1,6.2-1.5c0.5-0.1,0.4-0.6-0.1-0.5c-1.9,0.5-3.8,0.9-5.7,1.4c-1.4,0.3-2.8,1-4.1-0.1c-0.7-0.5-1.3-1.2-1.9-1.8
						c-2.7-2.4-5.5-4.8-8.4-7.1c-1.4-1.1-2.7-2.2-4.2-3.1c-1.3-0.9-2.6-2.2-4-2.7c-0.3-0.1-0.9-0.3-1.2,0.1
						c-0.6,0.7,0.4,1.4-1.2,1.4C57.2,227.7,57,228.2,57.6,228.2L57.6,228.2z"/>
				</g>
			</g>
			<g>
				<g>
					<path class="st8" d="M55.6,238.9c3.7-0.4,7.3-1.4,10.8-2.3c3.4-0.9,7-1.3,10.4,0c7.3,2.6,12.6,11.2,21.4,9.4
						c0.5-0.1,0.4-0.5-0.1-0.4c-4.8,1-9.1-2-12.7-4.6c-3-2.3-6.1-4.6-9.9-5.4c-2.8-0.6-5.8-0.2-8.6,0.5c-3.7,0.9-7.3,2-11.1,2.3
						C55.3,238.5,55,239,55.6,238.9L55.6,238.9z"/>
				</g>
			</g>
			<g>
				<g>
					<path class="st8" d="M70.9,246c7.2-1,13.6,3.4,20.7,3.7c7.2,0.4,13-4.5,20-5.1c0.5,0,0.7-0.7,0.1-0.6c-7.2,0.6-13.2,5.7-20.5,5
						c-6.9-0.6-13-4.6-20.1-3.7C70.5,245.4,70.4,246,70.9,246L70.9,246z"/>
				</g>
			</g>
			<g>
				<g>
					<path class="st8" d="M63.6,224.2c2.8,4.1,4.9,9.1,9.2,12c2.8,1.9,6.1,2.9,9.3,3.8c3.6,1.1,7.2,2.4,10.3,4.5
						c3.3,2.3,6.1,5.3,8.2,8.7c0.2,0.3,1-0.1,0.9-0.2c-3.6-5.9-9.2-10.3-15.8-12.4c-6-2-12.4-3.3-16.4-8.7c-1.9-2.5-3.2-5.3-5-7.9
						C64.3,223.7,63.4,224,63.6,224.2L63.6,224.2z"/>
				</g>
			</g>
			<g>
				<g>
					<path class="st9" d="M41,231.6c5.3,5,12.6,6.3,19.2,8.8c6.7,2.6,12.3,7,18.5,10.4c3.5,2,7.3,3.4,11.3,4.4
						c0.2,0.1,1-0.3,0.7-0.3c-3.6-0.9-7.1-2.2-10.4-3.9c-2.8-1.5-5.5-3.3-8.2-5c-3-1.9-6.2-3.6-9.4-5.1c-3.3-1.5-6.8-2.4-10.1-3.6
						c-3.9-1.4-7.7-3-10.8-5.9C41.7,231.1,40.9,231.4,41,231.6L41,231.6z"/>
				</g>
			</g>
			<g>
				<g>
					<path class="st8" d="M48.3,232.8c3.5-0.4,7.5-0.8,10.8,1c0.4,0.2,0.8,0.5,1.2,0.8c0.1,0.1,0.3,0.3,0.4,0.4
						c0.1,0,0.5-0.3,0.5-0.3s-0.1,0-0.2-0.1c-0.1-0.1-0.3-0.1-0.4-0.2c-0.5-0.2-1-0.5-1.4-0.1c0,0-0.1,0.1-0.1,0.2
						c0.1,0.2,0.5,0.4,0.7,0.5c0.7,0.4,1.4,0.8,2.2,1.1c1.5,0.7,3,1.4,3.5,3c0.1,0.3,1,0.1,0.9-0.2c-0.5-1.4-1.7-2.2-2.9-2.8
						c-0.7-0.3-1.4-0.6-2.1-1c-0.4-0.2-0.7-0.4-1.1-0.6c-0.1,0-0.2-0.1-0.3-0.2c-0.2-0.1,0.2-0.1-0.2,0.1c-0.2,0.1-0.3,0.1-0.5,0.2
						c0.3,0,1,0.5,1.5,0.5c1.5,0-0.3-1.3-0.7-1.5c-3.4-2.2-7.9-1.8-11.8-1.4C47.9,232.3,47.8,232.8,48.3,232.8L48.3,232.8z"/>
				</g>
			</g>
			<g>
				<g>
					<path class="st8" d="M49.3,234.6c3.1,1.7,5.1,4.7,7.4,7.3c1.5,1.6,2.9,2.9,5,3.3c3.1,0.6,5.9,2.2,8.9,3c3.1,0.9,6.6,1,9.4-0.8
						c0.5-0.3-0.2-0.6-0.6-0.4c-3.4,2.1-7.5,1-11.1-0.4c-1.5-0.6-2.8-1.3-4.3-1.7c-0.8-0.2-1.6-0.3-2.5-0.5
						c-2.3-0.5-3.9-2.6-5.3-4.3c-2-2.3-3.7-4.6-6.5-6.1C49.7,233.9,48.9,234.4,49.3,234.6L49.3,234.6z"/>
				</g>
			</g>
			<g>
				<g>
					<path class="st8" d="M62.8,220.2c0.2,1.7,2.3,2.4,3.6,2.8c2.3,0.8,4.5,1.2,6.8,2.1c0.8,0.3,1.8,0.7,2.3,1.5
						c0.2,0.3,0.3,0.6,0.3,1c0,1.1-0.2,2.1-0.2,3.1c0,1.8,0.5,3.4,1.9,4.6c1.6,1.4,3.6,2.2,5.5,3.1c4.8,2.4,9.6,4.6,14.5,6.8
						c0.3,0.1,1-0.3,0.5-0.5c-4.3-1.9-8.6-3.8-12.8-5.9c-2-1-4.1-1.9-6-3.1c-2-1.3-2.6-3.2-2.5-5.6c0-1.1,0.6-2.4,0.1-3.4
						c-0.3-0.6-0.9-1-1.5-1.4c-1.9-1-4.1-1.5-6.1-2.1c-1.6-0.5-4.9-1.1-5.1-3.1C63.7,219.6,62.8,219.8,62.8,220.2L62.8,220.2z"/>
				</g>
			</g>
			<g>
				<g>
					<path class="st7" d="M46.2,235.3c2.6,0,5.4,0,8,0c1.5,0,2.9-0.1,4.3,0.1c1.3,0.2,2.4,0.9,3.4,1.5c0.6,0.3,1.9,0.8,2-0.3
						c0.1-0.5-0.8-2.5,0.1-2.5c0.4,0,0.9-0.5,0.3-0.5c-1,0-1.7,0.5-1.6,1.5c0,0.5,0.2,0.9,0.3,1.4v0.3c0.1,0.1,0.2,0.1,0.2-0.1
						c0-0.1-1.3-0.7-1.5-0.7c-1-0.6-2-1-3.1-1.2c-1.3-0.2-2.5-0.1-3.8-0.1c-2.8,0-5.6,0-8.4,0C46.2,234.8,45.6,235.3,46.2,235.3
						L46.2,235.3z"/>
				</g>
			</g>
			<g>
				<g>
					<path class="st8" d="M70.3,243.3c4.8,1.8,9.2,4.3,13.1,7.6c0.2,0.2,1-0.2,0.8-0.3c-3.9-3.3-8.4-6-13.2-7.7
						C70.8,242.9,70,243.2,70.3,243.3L70.3,243.3z"/>
				</g>
			</g>
			<g>
				<g>
					<path class="st7" d="M70,236.9c4.2,2.3,8.6,4.2,13.2,5.9c3.7,1.3,8.9,2,11.1,5.7c0.2,0.3,1,0,0.8-0.4
						c-2.1-3.5-6.6-4.2-10.1-5.4c-5-1.7-9.7-3.7-14.3-6.2C70.3,236.3,69.6,236.7,70,236.9L70,236.9z"/>
				</g>
			</g>
			<g>
				<g>
					<path class="st8" d="M78.2,255.1c-2.4-3.1-4.8-6.5-7.6-9.3c-2.7-2.8-6-5.3-9.3-7.5c-0.2-0.2-1,0.2-0.8,0.3
						c3.3,2.3,6.5,4.7,9.3,7.5c2.7,2.8,5.2,6.2,7.6,9.3C77.5,255.6,78.3,255.3,78.2,255.1L78.2,255.1z"/>
				</g>
			</g>
			<g>
				<g>
					<path class="st8" d="M49.7,239.4c5.2,0.7,10.5,0.6,15.7,1.1c5.4,0.5,10.3,2.3,14.8,5.3c0.2,0.2,1-0.2,0.7-0.4
						c-4.3-2.9-9-4.7-14.1-5.3c-5.5-0.6-11-0.5-16.5-1.2C50,238.9,49.2,239.3,49.7,239.4L49.7,239.4z"/>
				</g>
			</g>
			<g>
				<g>
					<path class="st8" d="M49.6,224.9c4.5,0.9,9.2,0.4,13.5,1.8c2.5,0.8,5.3,2,7.3,3.8c1.1,1,1.4,2.2,1.9,3.4
						c0.3,0.8,0.7,1.4,1.6,1.4c0.2,0,1-0.4,0.6-0.4c-1.4-0.1-1.5-2.2-2-3c-0.5-1-1.3-1.8-2.2-2.4c-2-1.5-4.5-2.6-6.9-3.3
						c-4.3-1.3-8.9-0.9-13.2-1.7C50.1,224.5,49.4,224.8,49.6,224.9L49.6,224.9z"/>
				</g>
			</g>
			<g>
				<g>
					<path class="st8" d="M75.1,246.2c4.4,0,8.8,0,13.2,0c2.1,0,4.2-0.1,6.3,0c1.7,0.1,3.4,0.3,4.3,2c0.2,0.3,1,0,0.8-0.4
						c-0.7-1.3-2.1-1.9-3.5-2.1c-2.1-0.3-4.1-0.1-6.2-0.1c-4.9,0-9.7,0-14.6,0C75,245.6,74.5,246.2,75.1,246.2L75.1,246.2z"/>
				</g>
			</g>
			<g>
				<g>
					<path class="st8" d="M47.1,237.4c6.1-1.2,12.5,2.1,17.5,5.3c2.7,1.8,5.4,3.8,7.8,6c1.2,1.1,2.4,2.2,3.4,3.3
						c1,1.1,1.9,2.3,2.9,3.2c1.5,1.4,3.4,1.4,5.3,1.5c2.5,0.2,5.2,0.5,7.7,0.7c0.4,0,0.9-0.6,0.3-0.6c-2.4-0.2-4.7-0.4-7.1-0.6
						c-2.4-0.2-4.6-0.1-6.3-2.1c-2-2.3-3.9-4.3-6.2-6.3c-4.9-4.3-10.6-8.2-16.9-10.3c-2.9-0.9-6-1.4-8.9-0.8
						C46.4,237,46.6,237.5,47.1,237.4L47.1,237.4z"/>
				</g>
			</g>
			<g>
				<g>
					<path class="st7" d="M52.7,240.5c2.4-0.2,4.6-0.6,6.8-1.3c2-0.6,3.9-1.2,6-1.5c2.4-0.3,5.3-0.1,7.5,0.9c1.7,0.7,2.7,3,4.8,2.5
						c0.5-0.1,0.4-0.7-0.1-0.5c-1.1,0.2-2.1-1.2-2.8-1.9c-0.9-0.7-2-1-3.1-1.3c-2.1-0.5-4.2-0.7-6.4-0.4c-1.9,0.2-3.6,0.8-5.4,1.3
						c-2.4,0.7-4.7,1.2-7.2,1.4C52.3,240,52.1,240.6,52.7,240.5L52.7,240.5z"/>
				</g>
			</g>
			<g>
				<g>
					<path class="st8" d="M85.1,240c3.9,0.5,7.4,3.2,8.8,7c0.1,0.3,1,0.1,0.9-0.2c-1.5-3.8-5.1-6.7-9.2-7.2c-0.2,0-0.5,0-0.6,0.2
						C84.9,239.8,84.9,240,85.1,240L85.1,240z"/>
				</g>
			</g>
			<g>
				<g>
					<path class="st8" d="M80,255.4c7.4-0.4,14.7-0.2,22.1,0.6c0.2,0,1-0.4,0.5-0.4c-7.3-0.8-14.8-1.1-22.2-0.6
						C80.1,255,79.4,255.4,80,255.4L80,255.4z"/>
				</g>
			</g>
			<g>
				<g>
					<path class="st7" d="M63.6,245.7c6.6-0.2,13.4-0.4,19.8,1.8c5.5,1.9,10.2,5.9,16.2,6.6c0.4,0,0.9-0.5,0.3-0.5
						c-6.3-0.7-11.3-5.1-17.2-6.9c-6.2-1.8-12.6-1.6-18.9-1.4C63.3,245.2,63,245.7,63.6,245.7L63.6,245.7z"/>
				</g>
			</g>
		</g>
		<polygon class="st10" points="13.4,190.7 77.3,158.7 75.2,214.8 13,247 		"/>
		<polygon class="st11" points="73.8,160 72.7,215.1 132.7,238.7 133.2,187.4 		"/>
		<polygon class="st12" points="135.4,191.9 68.8,157.6 73.9,155.2 141.4,189 		"/>
		<g>
			<g>
				<g>
					<path class="st7" d="M75.3,160.1c1,4.6,2.1,9.2,3,13.8c1,4.4,2.4,8.9,1.7,13.4c-0.6,4.2-2.6,8.1-4.4,12.1
						c-0.8,1.7-1.4,3.4-2.5,4.9c-0.9,1.1-1.9,2.2-2.7,3.2c-1.8,2.2-2.7,4.3-0.9,6.8c0.2,0.3,1,0,0.8-0.4c-2-2.6-0.4-4.8,1.5-7
						c0.9-1,1.9-2.1,2.5-3.1c1-1.5,1.7-3.2,2.4-4.9c1.6-3.5,3.3-7.1,4-11c0.8-4.2-0.3-8.4-1.2-12.5c-1.2-5.2-2.3-10.3-3.4-15.5
						C76.1,159.5,75.3,159.7,75.3,160.1L75.3,160.1z"/>
				</g>
			</g>
			<g>
				<g>
					<path class="st8" d="M68.7,169.9c3.9,6.5,4.7,14.1,4.4,21.5c-0.1,3.8-0.5,7.7-1,11.6c-0.5,3.1-2.1,5.8-3.8,8.4
						c-2,2.8-3.6,5.6-4.1,9.1c0,0.1,0.8,0,0.8-0.2c0.8-6.4,6.5-10.4,7.7-16.6c0.7-3.5,0.9-7.3,1.1-10.9c0.2-3.8,0.2-7.6-0.4-11.4
						c-0.6-4.1-1.9-8.1-4-11.8C69.4,169.5,68.6,169.8,68.7,169.9L68.7,169.9z"/>
				</g>
			</g>
			<g>
				<g>
					<path class="st8" d="M62.5,153.4c4.6,2.2,6.9,7.1,8.8,11.5c1.2,2.5,2.3,5.3,2.4,8.1c0.2,2.8-0.7,5.3-2.3,7.6
						c-2.5,3.9-5.8,7.3-5.3,12.4c0.2,2.3,1.2,4.5,2.4,6.4c1.4,2.1,3.5,3.4,4.8,5.5c0.5,0.8,1.2,2-0.1,2.2c-0.9,0.2-1.8,0.1-2.5,0.2
						c-1.1,0.1-2.5,0.3-3,1.4c-0.1,0.2,0.7,0.1,0.8-0.1c0.9-1.9,6.4,0.1,6.5-2.3c0-0.8-0.8-1.8-1.2-2.4c-0.8-1-1.8-1.9-2.6-2.7
						c-1.9-2-3.2-4.3-3.8-6.9s-0.3-5.1,0.8-7.4c1.1-2.3,2.7-4.2,4.1-6.3c1.3-2,2.3-4.1,2.4-6.6c0.1-3-1-5.9-2.2-8.6
						c-2.1-4.6-4.3-10-9.3-12.3C63,153,62.4,153.3,62.5,153.4L62.5,153.4z"/>
				</g>
			</g>
			<g>
				<g>
					<path class="st8" d="M81.6,170.9c-3.8,1.1-7.6,2.3-11.4,3.6c-1.4,0.5-3.4,0.9-4.6,2c-1.1,1.1-0.6,2.6-0.3,3.9
						c1,3.5,2.5,7,4.3,10.2c1,1.7,2,3.3,3.1,5c0.5,0.8,1.2,1.6,1.5,2.4c0.5,1.4-0.6,2.3-1.5,3c-1.7,1.6-3.4,3-5.1,4.6
						c-1,0.9-2,2.3-1.2,3.6c0.1,0.2,1,0,0.8-0.3c-1.3-2.1,2.7-4.6,4-5.7c0.8-0.7,1.6-1.5,2.5-2.2c0.6-0.5,1.3-1.1,1.6-1.9
						c0.5-1.8-1.4-3.6-2.3-4.9c-1.3-2-2.5-4-3.6-6.1c-1-2-1.9-4-2.6-6.2c-0.3-1-0.6-1.9-0.8-2.8c-0.4-1.7,0.1-2.7,1.8-3.3
						c4.6-1.8,9.3-3.2,14-4.6C82.2,171.2,82.1,170.8,81.6,170.9L81.6,170.9z"/>
				</g>
			</g>
			<g>
				<g>
					<path class="st8" d="M65.3,146.1c5,1.6,4.9,7.7,3.7,11.8c-1.4,5.1-2.9,10.1-3.5,15.5c-0.3,2.4-0.5,4.9-0.5,7.4
						c0,1.3,0,2.6,0.1,3.9c0,1,0.1,2,0.7,2.8c1.2,1.6,3.4,1.3,5.1,1.8c2,0.7,3.4,2.3,4.2,4c2.4,5.1-0.3,10.6-3.1,14.9
						c-0.2,0.3,0.6,0.2,0.8,0c2.5-3.7,5-8.2,4-12.9c-0.4-1.9-1.3-3.6-2.6-4.9c-1.4-1.3-3-1.7-4.9-2c-1.3-0.2-2.4-0.6-2.9-2
						c-0.4-1.1-0.3-2.5-0.3-3.6c-0.1-2.9,0.1-5.8,0.4-8.6c0.6-5.6,2.1-10.8,3.5-16.2c1.2-4.3,1.4-10.7-3.8-12.2
						C65.7,145.6,64.9,146,65.3,146.1L65.3,146.1z"/>
				</g>
			</g>
			<g>
				<g>
					<path class="st8" d="M83.6,175.6c-3.6,0.5-6.8,2.8-10.4,3.2c-1.9,0.2-3.9-0.2-5.3-1.7c-1.1-1.2-1.7-2.9-3.1-3.7
						c-2.7-1.5-4.2,1.4-4.9,3.5c-1.2,3.7-1.8,7.6-2.4,11.6c-0.7,4.4-1.4,8.8-2.9,12.9c-0.1,0.3,0.7,0.2,0.8-0.1
						c1.7-4.4,2.4-9,3-13.6c0.4-2.4,0.7-4.6,1.2-6.9c0.5-2.1,0.9-4.6,2.1-6.4c2.1-3.2,4.4,1.9,5.6,3c1.1,1.2,2.6,1.6,4.2,1.7
						c4.3,0.2,7.7-2.6,11.9-3.2C83.8,176,84.1,175.5,83.6,175.6L83.6,175.6z"/>
				</g>
			</g>
			<g>
				<g>
					<path class="st8" d="M70.5,164.6c0.1,8.4,0.4,16.9,0.4,25.3c0.1,8.1-0.5,16.1-2.5,24c-1.1,4.4-2.4,8.8-3.9,13.1
						c-0.1,0.3,0.7,0.2,0.8-0.1c2.4-7.6,4.9-15.4,5.8-23.4c1-8.1,0.5-16.5,0.4-24.6c-0.1-4.8-0.2-9.6-0.3-14.4
						C71.4,164.2,70.5,164.3,70.5,164.6L70.5,164.6z"/>
				</g>
			</g>
			<g>
				<g>
					<path class="st8" d="M60.7,189.6c1.6,8.9,7.7,16.8,7.4,26.1c-0.1,2.4-0.8,4.5-1.6,6.8c-0.4,1.1-0.8,2.2-1,3.3
						c-0.2,0.8-0.4,1.2-1.3,1.3c-1,0.1-4.4-0.3-4.1,1.6c0,0.2,0.9,0,0.8-0.2c-0.2-1.3,2.2-0.9,2.9-1c0.7-0.1,1.7-0.2,2.2-0.9
						c0.4-0.5,0.4-1.2,0.6-1.8c0.3-1.1,0.7-2.2,1.1-3.2c0.7-2,1.2-3.9,1.3-6c0.4-9.3-5.7-17.1-7.4-26.1
						C61.5,189.1,60.7,189.3,60.7,189.6L60.7,189.6z"/>
				</g>
			</g>
			<g>
				<g>
					<path class="st8" d="M55.2,141.4c0.8,3.4,3.7,5.9,6.2,8.2c2.5,2.4,5.6,5,5.8,8.6c0.2,2.7-0.7,5.5-1.6,8
						c-0.9,2.5-1.8,4.9-2.9,7.3c-1.2,2.4-2.5,4.6-4.2,6.6c-0.8,1-1.8,1.8-2.6,2.6c-0.7,0.7-1.4,1.4-1.5,2.4
						c-0.2,1.5,0.6,2.9,1.2,4.2c0.6,1.3,1.3,2.5,2,3.8c1.5,2.6,3.2,5.1,5.2,7.4c0.1,0.2,0.9-0.1,0.8-0.3c-1.9-2.3-3.4-4.6-4.9-7.1
						c-1.3-2.2-2.7-4.6-3.3-7.2c-0.6-2.8,2.4-4.4,4-6.3c1.6-1.9,2.9-3.9,4-6.2c1.2-2.4,2.2-4.8,3-7.3c0.9-2.4,1.6-4.8,1.8-7.3
						c0.3-3.7-2-6.4-4.5-8.8c-2.8-2.7-6.5-5.4-7.4-9.4C56,141,55.2,141.2,55.2,141.4L55.2,141.4z"/>
				</g>
			</g>
			<g>
				<g>
					<path class="st8" d="M71.6,158.1c1.4,4.2-0.1,8.6-1.3,12.6c-1.2,4.1-2.5,8.2-4.1,12.2c-0.8,2.2-1.7,4.3-2.5,6.4
						c-0.4,1-0.9,2-1.3,2.9c-0.4,0.8-0.9,1.7-1,2.5c-0.3,1.8,1.2,3.4,2.1,4.9c1.2,1.9,2.4,3.7,3.5,5.7c0.2,0.3,1,0,0.8-0.3
						c-1.2-1.9-2.4-3.7-3.5-5.7c-0.6-1-1.4-2-1.9-3c-0.5-1.3,0.1-2.4,0.6-3.6c1.7-3.7,3.2-7.4,4.6-11.2c1.5-3.9,2.7-7.8,3.9-11.9
						c1.1-3.8,2.3-7.9,1-11.9C72.3,157.5,71.5,157.8,71.6,158.1L71.6,158.1z"/>
				</g>
			</g>
			<g>
				<g>
					<path class="st8" d="M58.6,159.9c3.2,7.5,6.5,15.2,7.6,23.3c0.6,4,0.5,8.1-0.4,12.2c-0.9,3.9-2.5,7.6-3.4,11.6
						c-0.9,3.9-0.9,8,1.2,11.6c0.1,0.2,0.9,0,0.8-0.2c-4.2-7.2,0.3-15.2,2.1-22.4c1.9-7.7,0.5-15.8-2-23.2c-1.5-4.4-3.2-8.7-5.1-13
						C59.3,159.5,58.5,159.7,58.6,159.9L58.6,159.9z"/>
				</g>
			</g>
			<g>
				<g>
					<path class="st8" d="M53.7,187.8c3.5,7.2,1.8,15.3,3.1,22.8c1.3,6.8,5.8,12.2,8.3,18.4c0.1,0.3,0.9,0,0.8-0.2
						c-2.5-6.3-7.1-11.7-8.3-18.4c-1.4-7.5,0.4-15.7-3.1-22.8C54.3,187.3,53.5,187.5,53.7,187.8L53.7,187.8z"/>
				</g>
			</g>
			<g>
				<g>
					<path class="st8" d="M78.4,163.7c-4.9,6.6-10,13.4-12.4,21.4c-1.4,4.4-1.5,8.8-1.4,13.4c0.1,4.4,0.1,8.7-1.1,12.9
						c-1.3,4.8-3.6,9.3-6.9,13.1c-0.3,0.4,0.5,0.4,0.7,0.2c5.5-6.5,8.2-14.6,8.2-23c0-4.7-0.5-9.3,0.6-13.9c0.9-4.2,2.7-8.2,4.9-12
						c2.5-4.2,5.4-8.1,8.2-12C79.4,163.5,78.6,163.5,78.4,163.7L78.4,163.7z"/>
				</g>
			</g>
			<g>
				<g>
					<path class="st9" d="M55,143.1c-3.6,7.9,3.8,15.2,3.7,23c0,5.1-1.4,10.4-2.6,15.3c-1.4,5-2.8,10-4,15c-1.3,5.6-2.1,11.3-1.7,17
						c0,0.4,0.9,0.2,0.8-0.2c-0.8-10.4,2.5-20.3,5.2-30.2c1.4-4.9,2.5-9.9,3-15c0.4-4.2-0.8-7.9-2.4-11.9c-1.7-4.2-3.3-8.6-1.3-13
						C56,142.7,55.2,142.7,55,143.1L55,143.1z"/>
				</g>
			</g>
			<g>
				<g>
					<path class="st7" d="M74.7,164.9c4.2,8.6,4.2,19.1-0.3,27.6c-2.3,4.3-5.6,7.9-8.5,11.9c-2.9,3.8-5.2,8-6.7,12.6
						c-1.6,5.1-2,10.5-1.3,15.7c0,0.3,0.9,0.1,0.8-0.2c-1.3-10.1,1.7-19.9,7.7-27.9c2.9-3.9,6.3-7.5,8.6-11.9
						c2.2-4,3.4-8.5,3.5-13.1c0.2-5.1-0.9-10.3-3.1-14.9C75.4,164.4,74.6,164.7,74.7,164.9L74.7,164.9z"/>
				</g>
			</g>
			<g>
				<g>
					<path class="st8" d="M62.8,149.3c1.2,2.6,2.5,5.4,2.9,8.3c0.6,3,0,5.9-1.5,8.6c-1.2,2.2-2.4,4.1-2.6,6.7
						c-0.3,2.3-0.2,4.9-2.3,6.5c-0.2,0.1,0.6,0,0.8-0.1c1.8-1.3,2-3.4,2.3-5.4c0.2-1.4,0.3-2.7,0.8-4s1.3-2.5,2-3.7
						c1.4-2.5,2-5.2,1.6-8c-0.4-3.1-1.8-6.1-3-8.9C63.5,149,62.7,149.2,62.8,149.3L62.8,149.3z"/>
				</g>
			</g>
			<g>
				<g>
					<path class="st8" d="M61.3,151.5c-0.7,4.1-3.2,7.4-5.3,11c-2.1,3.6-3.1,7.6-3.7,11.8c-0.7,4.4-1.2,9-1.2,13.4
						c0,4,1,8.1,4.2,10.8c0.2,0.1,0.9-0.2,0.8-0.3c-3.4-2.8-4.2-7.4-4.1-11.7c0.1-4.4,0.6-8.9,1.3-13.3c0.7-4.1,2-8,4-11.6
						c2-3.3,4.2-6.5,4.9-10.4C62.2,151.2,61.4,151.2,61.3,151.5L61.3,151.5z"/>
				</g>
			</g>
			<g>
				<g>
					<path class="st8" d="M82.9,161.3c-2,0.9-2.4,4-2.6,5.9c-0.6,3.6-0.8,7.3-1.1,10.9c-0.2,1.7-0.4,3.3-0.8,4.9
						c-0.2,1.1-0.5,2.4-1.3,3.1c-0.5,0.6-1.3,0.6-2.1,0.7c-1.2,0.3-2.5,0.6-3.5,1.2c-2.5,1.2-3.6,3.2-4.1,5.9
						c-1.5,7.8-2.2,15.9-2.8,23.7c0,0.3,0.8,0.1,0.8-0.1c0.6-6.9,1.4-13.8,2.4-20.7c0.5-3.1,0.7-6.8,3.9-8.4c1.2-0.7,2.5-1,3.9-1.3
						c0.6-0.1,1.3-0.2,1.8-0.6c1.8-1.2,2.1-4.3,2.3-6.3c0.5-3.5,0.7-7.1,1.1-10.6c0.2-1.8,0.4-3.4,0.8-5.1c0.2-1,0.6-2.6,1.7-3
						C83.7,161.4,83.2,161.2,82.9,161.3L82.9,161.3z"/>
				</g>
			</g>
			<g>
				<g>
					<path class="st7" d="M59.2,148c0.8,2.4,1.6,4.6,2.4,7c0.8,2.3,1.8,4.6,2.3,7c0.4,2.3-0.4,4.4-0.5,6.7c-0.1,2.4,0.5,4.9,1.1,7.3
						c0.1,0.3,0.9,0,0.8-0.2c-0.6-2.3-1.1-4.6-1.1-7.1c0-2.4,0.9-4.5,0.5-6.9c-0.4-2.3-1.4-4.5-2.2-6.8c-0.8-2.4-1.6-4.8-2.4-7.2
						C60,147.5,59.2,147.8,59.2,148L59.2,148z"/>
				</g>
			</g>
			<g>
				<g>
					<path class="st8" d="M56.4,186.4c-0.2,6.2-1.5,12.2-3.8,17.8c-0.1,0.3,0.7,0.2,0.8-0.1c2.4-5.7,3.5-11.8,3.7-17.8
						C57.2,186,56.4,186.1,56.4,186.4L56.4,186.4z"/>
				</g>
			</g>
			<g>
				<g>
					<path class="st7" d="M63.6,183.5c-1,5.8-1.6,11.6-1.7,17.3c-0.1,4.6,1.2,10.8-2.3,14.5c-0.3,0.4,0.4,0.5,0.7,0.2
						c3.3-3.7,2.4-9.3,2.4-13.9c0-6.2,0.6-12.2,1.7-18.3C64.5,183.1,63.6,183.2,63.6,183.5L63.6,183.5z"/>
				</g>
			</g>
			<g>
				<g>
					<path class="st8" d="M46.2,199c7-10.3,12.2-21.6,15.7-33.4c0.1-0.3-0.7-0.2-0.8,0.1c-3.4,11.9-8.7,23.1-15.6,33.3
						C45.2,199.3,46,199.3,46.2,199L46.2,199z"/>
				</g>
			</g>
			<g>
				<g>
					<path class="st8" d="M56,153.7c2.8,14.7,5.7,30.2,1.4,44.9c-0.1,0.2,0.8,0.1,0.8-0.1c4.3-14.8,1.5-30.3-1.4-45
						C56.8,153.3,55.9,153.5,56,153.7L56,153.7z"/>
				</g>
			</g>
			<g>
				<g>
					<path class="st8" d="M72.4,148.2c1,7.8,1.2,15.8,0.5,23.6c-0.3,3.2-0.4,7-1.9,10c-0.7,1.5-1.9,2.3-3,3.3
						c-0.8,0.7-1.4,1.4-1.1,2.5c0.1,0.4,0.9,0.2,0.8-0.2c-0.4-1.6,1.7-2.4,2.5-3.2c1-0.9,1.6-2.2,2-3.3c1.1-3.1,1.3-6.7,1.6-9.9
						c0.6-7.6,0.4-15.3-0.6-22.8C73.1,147.6,72.4,147.8,72.4,148.2L72.4,148.2z"/>
				</g>
			</g>
			<g>
				<g>
					<path class="st8" d="M52.3,208.6c1.9,4.8,3.7,9.6,5.7,14.4c1,2.4,1.9,4.7,0.7,7.2c-0.8,1.7-2,3-2.4,4.9
						c-0.1,0.4,0.8,0.3,0.8-0.1c0.4-2.1,2-3.6,2.6-5.6c0.8-2.2,0-4.2-0.8-6.3c-2-4.9-3.9-9.9-5.8-14.8
						C52.9,208,52.2,208.2,52.3,208.6L52.3,208.6z"/>
				</g>
			</g>
			<g>
				<g>
					<path class="st8" d="M55,192.8c1.7,5,3.3,10,5,15c0.8,2.4,1.7,4.7,2.4,7.1c0.6,2,1.1,4.3-0.5,6c-0.2,0.2,0.6,0.1,0.8,0
						c1.3-1.4,1.3-3.2,0.9-4.9c-0.6-2.4-1.6-4.9-2.4-7.4c-1.8-5.3-3.5-10.6-5.3-15.9C55.7,192.3,54.9,192.6,55,192.8L55,192.8z"/>
				</g>
			</g>
			<g>
				<g>
					<path class="st8" d="M47.5,164c3.4,5.9,4.9,12.7,4.4,19.5c-0.2,3.4-1,6.9-2.2,10c-0.6,1.6-1.4,3.1-2.2,4.6
						c-0.9,1.4-1.9,2.7-2,4.4c-0.1,2.2,0.8,4.4,1.3,6.5c0.6,2.4,1.1,4.7,1.7,7.1c0,0.2,0.9-0.1,0.8-0.2c-1-4-2.2-8-2.8-12.1
						c-0.4-2.1,0.4-3.6,1.5-5.3c0.9-1.5,1.7-2.9,2.3-4.5c2.5-6.1,3.1-12.9,2-19.4c-0.7-3.8-2.1-7.4-3.9-10.8
						C48.1,163.7,47.4,163.9,47.5,164L47.5,164z"/>
				</g>
			</g>
			<g>
				<g>
					<path class="st7" d="M55.8,157.2c2.5,6.2,4.4,12.6,5.6,19.2c0.6,3.2,1.1,6.5,1.3,9.8c0.1,2-0.4,3.2-1.2,4.9
						c-0.4,1-0.6,1.8-0.1,2.7c0.1,0.2,1,0,0.8-0.3c-0.8-1.4,0.4-2.8,0.9-4.1c0.5-1.3,0.5-2.5,0.3-3.8c-0.3-3.2-0.7-6.6-1.4-9.8
						c-1.2-6.4-3-12.6-5.5-18.7C56.5,156.6,55.7,156.9,55.8,157.2L55.8,157.2z"/>
				</g>
			</g>
			<g>
				<g>
					<path class="st8" d="M65.8,201.9c1,4.7-0.8,9.7-4.5,12.7c-0.4,0.3,0.5,0.3,0.7,0.1c3.8-3.1,5.7-8.2,4.7-13
						C66.5,201.4,65.7,201.6,65.8,201.9L65.8,201.9z"/>
				</g>
			</g>
			<g>
				<g>
					<path class="st8" d="M46.4,201.9c3.2,8.2,5.9,16.7,7.6,25.4c0,0.2,0.9,0,0.8-0.2c-1.9-8.6-4.4-17.2-7.6-25.4
						C47.1,201.4,46.3,201.7,46.4,201.9L46.4,201.9z"/>
				</g>
			</g>
			<g>
				<g>
					<path class="st8" d="M47.4,207.5c3,4.7,5.6,9.6,7.7,14.8c1,2.4,2,4.9,2.7,7.4c0.4,1.4,0.9,2.6,1.2,4c0.2,0.8,0.4,1.7,1.3,1.9
						c0.3,0.1,1-0.4,0.5-0.5c-1-0.2-1.3-2.9-1.6-3.7c-0.4-1.3-0.8-2.5-1.3-3.8c-0.9-2.4-1.8-4.8-2.8-7.2c-2.1-4.6-4.4-9-7.2-13.3
						C47.8,206.8,47.1,207.1,47.4,207.5L47.4,207.5z"/>
				</g>
			</g>
			<g>
				<g>
					<path class="st8" d="M61.6,204.7c-5,0.6-8.7,4.1-11.2,8.3c-1.4,2.4-2.5,5.2-3.3,7.9c-0.8,2.6-1.1,5.4,0.2,7.9
						c0.1,0.2,0.9-0.1,0.8-0.2c-2.2-4.5,0.2-9.9,2.2-14c2.2-4.6,5.8-9.1,11.2-9.7C61.8,204.9,62.2,204.6,61.6,204.7L61.6,204.7z"/>
				</g>
			</g>
			<g>
				<g>
					<path class="st8" d="M60.4,213.2c-1.2,3.7-1.8,7.6-1.7,11.6c0.1,3.7,1.1,7.8-0.9,11.4c-0.2,0.4,0.6,0.3,0.8,0
						c1.8-3.2,1.1-6.9,1-10.3c-0.2-4.3,0.4-8.6,1.7-12.7C61.3,212.8,60.5,212.9,60.4,213.2L60.4,213.2z"/>
				</g>
			</g>
			<g>
				<g>
					<path class="st7" d="M51.2,179.4c2.6,7,5.3,14.2,5.6,21.8c0.3,7.4-2.9,14.9-1.3,22.2c0,0.2,0.9,0,0.8-0.2
						c-1.7-7.4,1.6-14.8,1.3-22.2c-0.3-7.5-2.9-14.7-5.6-21.8C51.9,179,51.1,179.3,51.2,179.4L51.2,179.4z"/>
				</g>
			</g>
		</g>
		<g>
			<g>
				<g>
					<path class="st7" d="M70.2,213.7c4.5,0.5,9,1,13.6,1.5c4.3,0.5,8.9,0.5,12.9,2.4c7,3.1,11.2,10.1,17.9,13.6
						c3.4,1.8,7.4,2.6,11.1,1.5c0.6-0.2,0.5-0.9-0.2-0.7c-7.9,2.6-14.8-4.4-20.1-9.2c-2.4-2.3-5.1-4.4-8.2-5.8
						c-3.6-1.6-7.7-1.8-11.6-2.2c-5-0.5-10-1.1-15-1.6C70.1,213,69.5,213.6,70.2,213.7L70.2,213.7z"/>
				</g>
			</g>
			<g>
				<g>
					<path class="st8" d="M77.6,223c9.1-2.1,18.2,1.1,26.6,4.6c8.5,3.7,17,7.8,25.4,11.8c0.4,0.2,1.3-0.3,0.8-0.6
						c-8.9-4.1-17.7-8.5-26.8-12.3c-8.2-3.5-17.2-6.2-26.2-4.1C76.9,222.5,77.1,223.2,77.6,223L77.6,223z"/>
				</g>
			</g>
			<g>
				<g>
					<path class="st8" d="M65.8,227.7c1.2-1.3,2-2.7,2.6-4.3c0.7-1.5,1.5-3.2,3-4c1.1-0.6,2.4-0.5,3.7-0.6c1.3-0.1,2.5-0.1,3.7-0.1
						c2.4,0.2,4.8,0.8,6.8,2.3c3.1,2.4,4.7,6.4,7.6,9c3,2.6,7.3,3.3,11.2,2.4c2.4-0.5,4.2-1.7,6.4-2.5c3.4-1.5,6,0.2,8.6,2.4
						c0.2,0.2,1.2-0.2,1-0.4c-1.8-1.4-3.6-2.9-6-3c-2.2-0.2-4.1,0.9-6,1.9c-4.8,2.4-10.7,2.5-14.7-1.5c-3.1-3.1-4.9-7.7-9.1-9.7
						c-2.1-1-4.3-1.3-6.5-1.3c-2.1,0-4.4,0-6.5,0.6c-3.9,1.3-4.5,6.2-7,9C64.6,228,65.6,227.9,65.8,227.7L65.8,227.7z"/>
				</g>
			</g>
			<g>
				<g>
					<path class="st8" d="M82.2,211.4c-0.2,4.1-0.3,8.2-0.2,12.2c0,1.5-0.3,3.7,0.8,4.9c0.9,1,2.5,1,3.8,1.1
						c3.9,0.2,7.7-0.3,11.6-1.1c2-0.4,3.9-0.9,5.9-1.5c1.2-0.3,2.4-0.7,3.3,0.4c0.6,0.9,1,2.1,1.4,3c0.8,1.8,1.5,3.7,2.4,5.5
						c0.7,1.2,1.7,2,3,1.7c0.6-0.2,0.5-0.7-0.2-0.6c-1.2,0.3-2-1.4-2.4-2.2c-0.5-1.1-1-2.3-1.5-3.4c-0.4-1-0.9-2-1.3-2.9
						c-0.3-0.7-0.6-1.6-1.3-2.1c-1.4-1-3.1-0.2-4.5,0.2c-2.4,0.7-4.9,1.3-7.3,1.7c-2.4,0.4-5,0.7-7.4,0.6c-1.1,0-2.2,0-3.2-0.2
						c-1.4-0.3-1.9-1.2-2-2.4c-0.4-5-0.2-10.1,0.1-15.1C83.3,210.9,82.2,211.1,82.2,211.4L82.2,211.4z"/>
				</g>
			</g>
			<g>
				<g>
					<path class="st8" d="M59.7,222.8c1.1-1.6,2.8-2.3,4.7-2.3c1.1,0,2.2,0.5,3.3,0.5c0.3,0,1-0.1,1.1-0.4c0.1-0.2-0.2-0.6-0.1-0.7
						c-0.3,0.1-0.6,0.2-0.9,0.3c0.4,0,1.3,0.9,1.6,1.1c0.9,0.6,1.7,1.2,2.5,1.7c1.8,1.1,3.5,2.1,5.3,3c3.5,1.8,7.2,3.3,10.9,4.5
						c2.6,0.9,5.7,1.9,7.4-1.1c0.9-1.5,1.5-3,3-4c1.7-1.2,3.8-1.4,5.8-1.1c4.3,0.8,7.6,4.3,10.2,7.6c0.2,0.3,1.1-0.2,1-0.3
						c-2.9-3.8-6.7-7.7-11.8-7.9c-1.9-0.1-3.7,0.3-5.4,1.2c-1.9,1-2.7,2.5-3.7,4.4c-0.5,0.9-1,1.7-2.2,1.7c-0.8,0-1.7-0.3-2.4-0.6
						c-1.5-0.4-2.9-0.9-4.3-1.5c-2.9-1.1-5.8-2.4-8.4-3.8c-2.5-1.4-5-2.8-7.4-4.5c-0.3-0.2-2-1.6-2.4-0.5c0,0.1,0.1,0.3,0.1,0.4
						c0,0.1,0,0.1,0,0.2c0.5-0.1,0.5-0.2,0-0.2c-0.2,0-0.3-0.1-0.5-0.1c-1.1-0.3-2.3-0.4-3.4-0.3c-2.1,0.2-4,1.1-5.2,2.7
						C58.6,223.1,59.5,223.1,59.7,222.8L59.7,222.8z"/>
				</g>
			</g>
			<g>
				<g>
					<path class="st8" d="M87.2,211.1c-0.7,3.7,0.6,7.5-0.3,11.3c-0.5,1.8-1.5,3.5-3.1,4.2c-1.5,0.6-3.2,0.7-4.4,1.9
						c-2.7,2.5,1.6,5.2,3.5,6.5c2.9,1.9,6,3.4,9.1,5c3.7,1.9,7.4,3.9,10.8,6.6c0.3,0.2,1.2-0.2,1-0.4c-5.4-4.4-12-6.9-17.8-10.3
						c-2-1.2-9.6-5.4-4.8-7.7c1.5-0.7,3.1-0.7,4.5-1.7c1-0.8,1.8-1.9,2.2-3c1.5-3.9-0.1-8.1,0.6-12.2
						C88.4,210.6,87.3,210.7,87.2,211.1L87.2,211.1z"/>
				</g>
			</g>
			<g>
				<g>
					<path class="st8" d="M72.9,219.8c8.1,2.5,16.2,5,24.3,7.6c7.7,2.5,15.1,5.6,22.1,10c3.8,2.4,7.4,5,11,7.6
						c0.4,0.3,1.3-0.3,0.8-0.6c-6.4-4.6-12.7-9.2-19.9-12.6c-7.4-3.6-15.6-5.8-23.4-8.3c-4.7-1.5-9.5-2.9-14.2-4.5
						C73,218.9,72.4,219.6,72.9,219.8L72.9,219.8z"/>
				</g>
			</g>
			<g>
				<g>
					<path class="st8" d="M51.4,224.3c3.2,0.3,5.7-1,8.4-2.5c1.5-0.9,2.9-1.5,4.7-1.2c2.5,0.3,4.8,1.8,6.8,3.2
						c3.7,2.6,7.3,5.7,10.2,9.2c1.5,1.9,2.7,3.8,3.7,6c0.9,1.9,1.9,3.1,4.1,3.1c2.5,0.1,5.3-0.5,7.8-1c2.7-0.6,5.5-1.4,8.2-2.4
						c0.7-0.3,0-0.5-0.4-0.3c-2.5,1-5.1,1.8-7.7,2.4c-1.3,0.3-2.5,0.5-3.8,0.7c-1.4,0.2-2.9,0.5-4.3,0.3c-2.4-0.4-3-3.4-4.1-5.4
						c-1.1-1.8-2.3-3.4-3.7-5c-2.9-3.2-6.5-6.2-10.1-8.5c-2.7-1.8-6.1-3.3-9.4-2.3c-1.4,0.4-2.5,1.2-3.8,1.9
						c-1.9,1.1-3.7,1.8-5.9,1.6C51.8,223.7,50.9,224.2,51.4,224.3L51.4,224.3z"/>
				</g>
			</g>
			<g>
				<g>
					<path class="st8" d="M67,216.7c4.5,0.1,8.2,2.9,11.8,5.4c3.6,2.5,7.2,5.2,10.5,7.9c1.8,1.5,3.4,2.8,5.1,4.4
						c0.9,0.8,1.7,1.6,2.5,2.3c0.6,0.6,1.3,1.3,2.1,1.6c1.5,0.6,3.2-0.1,4.7-0.5c2.4-0.6,4.6-1.1,7-1.7c0.6-0.2,0.5-0.8-0.2-0.6
						c-2.2,0.5-4.3,1.1-6.5,1.6c-1.1,0.3-2.3,0.7-3.4,0.8c-1.5,0-2.4-1.1-3.3-2c-3-2.8-6.2-5.5-9.4-8c-3.3-2.6-6.8-5.2-10.3-7.5
						c-3.1-2.1-6.5-4.1-10.4-4.2C67,216,66.3,216.7,67,216.7L67,216.7z"/>
				</g>
			</g>
			<g>
				<g>
					<path class="st8" d="M64.9,229.5c8-0.7,16.3-1.4,24.2,0.1c3.9,0.8,7.8,2.1,11.3,4.1c3.5,2.1,6.6,4.9,10.1,7
						c3.5,2.2,7.6,3.4,11.8,2.5c0.6-0.1,0.5-0.8-0.2-0.6c-8.7,1.9-15.3-6.5-22.1-10.2c-6.7-3.5-14.4-4.4-21.9-4.4
						c-4.4,0-8.7,0.4-13,0.8C64.4,228.9,64.2,229.6,64.9,229.5L64.9,229.5z"/>
				</g>
			</g>
			<g>
				<g>
					<path class="st8" d="M61.6,226.6c2.1-0.3,3.5-1.2,5.1-2.4c0.6-0.4,1.2-0.9,2-0.8c1.3,0.1,2.4,1.4,3.2,2.2
						c1.9,1.9,3.3,3.8,5.7,5.1c2.1,1,4.8,1.8,5.6,4.2c0.2,0.5,1.2,0.2,1-0.3c-0.7-2.3-3-3.2-5-4.1c-1.5-0.7-2.7-1.5-3.9-2.5
						c-1.1-1.1-2-2.3-3-3.2c-1.4-1.3-3.1-2.5-5-1.6c-0.8,0.4-1.4,0.9-2,1.4c-1.1,0.8-2.3,1.3-3.5,1.5
						C61.1,225.9,60.9,226.7,61.6,226.6L61.6,226.6z"/>
				</g>
			</g>
			<g>
				<g>
					<path class="st8" d="M62.7,228.5c1,0.5,2.1,1,2.5,2.2c0.3,1.2,0.9,2,1.8,2.8c3,3.1,6.9,5.3,10.8,7.3c3.9,1.9,8,3.9,12.2,5
						c3.6,1,7.5,0.8,10.9-1.2c0.4-0.3-0.6-0.2-0.8,0c-4.2,2.5-9.3,1.1-13.4-0.7c-3.7-1.5-7.4-3.1-10.9-5c-3.1-1.7-6.8-3.9-8.8-7
						c-0.4-0.7-0.5-1.4-0.8-2c-0.4-0.9-1.6-1.4-2.4-1.8C63.4,228,62.5,228.4,62.7,228.5L62.7,228.5z"/>
				</g>
			</g>
			<g>
				<g>
					<path class="st8" d="M73.5,207.1c0.2,2.2,3.4,3.5,5,4.3c3.2,1.7,6.6,2.9,9.9,4.4c1.5,0.7,3,1.4,4.4,2.3
						c0.9,0.6,2.1,1.3,2.4,2.3c0.3,0.7,0,1.6-0.1,2.3c-0.1,1.4-0.2,2.7,0.1,4c0.5,2.7,2.5,4.3,4.9,5.5c6.9,3.5,13.9,6.9,21,9.9
						c0.4,0.2,1.2-0.4,0.6-0.7c-6.4-2.7-12.6-5.7-18.8-8.7c-2.6-1.4-5.8-2.5-6.6-5.7c-0.4-1.5-0.3-2.9-0.2-4.4
						c0.1-0.7,0.3-1.6,0.1-2.3c-0.6-2.2-3.8-3.4-5.5-4.2c-3.1-1.6-6.4-2.8-9.6-4.3c-1.6-0.7-3.2-1.5-4.7-2.4c-0.9-0.6-2-1.4-2.1-2.4
						C74.5,206.4,73.5,206.6,73.5,207.1L73.5,207.1z"/>
				</g>
			</g>
			<g>
				<g>
					<path class="st7" d="M58.9,229.4c1.3,0,2.5-0.4,3.4-1.4c1.2-1.3,1.5-3,3.5-3c1.6,0,3,0.1,4.5,0.8c1.2,0.6,2.4,1.3,3.6,1.8
						c2.5,0.9,5,1.1,7.5,1.4c0.2,0,1.2-0.4,0.7-0.4c-2.9-0.3-5.9-0.5-8.5-1.9c-1.1-0.5-2.2-1.2-3.3-1.6c-1.3-0.4-2.5-0.5-3.8-0.5
						s-2.6,0.3-3.5,1.3c-1.1,1.2-1.5,3-3.4,3.1C59.3,229,58.4,229.4,58.9,229.4L58.9,229.4z"/>
				</g>
			</g>
			<g>
				<g>
					<path class="st8" d="M88.9,240c5.8,2.1,11.1,5.2,15.7,9.1c0.2,0.2,1.2-0.2,1-0.4c-4.7-4-10-7.2-15.8-9.2
						C89.5,239.4,88.6,239.8,88.9,240L88.9,240z"/>
				</g>
			</g>
			<g>
				<g>
					<path class="st7" d="M88.4,232.2c5.1,2.7,10.5,5.1,16,7.1c4.4,1.6,10.6,2.4,13.1,6.8c0.2,0.3,1.1-0.1,1-0.3
						c-2.5-4.2-7.8-5.1-12.1-6.5c-5.9-2-11.7-4.5-17.1-7.4C89.1,231.6,88.3,232.1,88.4,232.2L88.4,232.2z"/>
				</g>
			</g>
			<g>
				<g>
					<path class="st8" d="M98.4,253.9c-7.5-9.8-16.6-18.3-26.8-25.4c-0.3-0.2-1.2,0.2-1,0.4c10.2,7,19.2,15.6,26.8,25.4
						C97.6,254.5,98.6,254.2,98.4,253.9L98.4,253.9z"/>
				</g>
			</g>
			<g>
				<g>
					<path class="st8" d="M63.4,234.5c6.5,0.9,13,0.9,19.4,1.8c6.6,0.9,12.5,2.9,17.9,6.8c0.4,0.3,1.3-0.3,0.8-0.6
						c-5.4-3.7-11.3-5.9-17.7-6.8c-6.7-1-13.4-1-20.1-1.9C63.2,233.6,62.7,234.4,63.4,234.5L63.4,234.5z"/>
				</g>
			</g>
			<g>
				<g>
					<path class="st8" d="M63.2,217.1c5.7,1.1,11.7,1,17.2,2.8c3,1.1,6.6,2.4,8.9,4.8c1.2,1.2,1.6,2.5,2.2,4c0.4,0.9,1,1.7,2,1.7
						c0.4,0,1.1-0.6,0.4-0.6c-1.5,0-1.8-2.7-2.3-3.7c-0.6-1.1-1.5-2-2.4-2.7c-2.4-1.9-5.5-3.1-8.4-4.1c-5.4-1.8-11.3-1.7-16.9-2.7
						C63.5,216.5,62.6,217,63.2,217.1L63.2,217.1z"/>
				</g>
			</g>
			<g>
				<g>
					<path class="st8" d="M94.8,243.3c5.2,0,10.4,0,15.6,0c2.5,0,5.1-0.1,7.6,0c2,0.1,4.1,0.4,5.1,2.3c0.2,0.4,1.2,0,1-0.5
						c-0.9-1.6-2.5-2.2-4.2-2.4c-2.5-0.4-5-0.1-7.5-0.1c-5.9,0-11.7,0-17.5,0C94.3,242.6,94.1,243.3,94.8,243.3L94.8,243.3z"/>
				</g>
			</g>
			<g>
				<g>
					<path class="st7" d="M61.2,231.2c7.1-0.4,14.2-0.1,21.2,1c1.7,0.3,3.3,0.6,5.1,0.9c1.6,0.3,3.4,0.6,4.9,1.3
						c1.9,0.9,3,3.5,5.4,2.9c0.4-0.1,0.9-0.6,0.2-0.4c-1.4,0.3-2.4-1.4-3.3-2.2c-1-0.9-2.3-1.2-3.5-1.6c-3.2-0.8-6.6-1.4-9.9-1.9
						c-6.5-0.9-13-1.1-19.5-0.7C61.3,230.8,60.5,231.3,61.2,231.2L61.2,231.2z"/>
				</g>
			</g>
			<g>
				<g>
					<path class="st8" d="M106.6,236c4.7,0.6,8.9,3.8,10.6,8.3c0.1,0.3,1.2,0,1-0.3c-1.8-4.6-6.1-7.9-11-8.5c-0.2,0-0.6,0-0.7,0.2
						C106.4,235.8,106.4,235.9,106.6,236L106.6,236z"/>
				</g>
			</g>
		</g>
		<g>
			<g>
				<g>
					<path class="st7" d="M63.9,225.1c1.5,0.1,2.9,0.1,4.4-0.4c1.1-0.4,2.2-0.9,3.2-1.4c1.7-0.7,3.3-0.9,5.1-0.7
						c2.2,0.2,4.4,0.5,6.6,1.2c7.7,2.4,12.2,10.1,19.2,14c3.5,2,7.6,3,11.7,1.8c0.6-0.2,0.4-1-0.2-0.8c-8.2,2.7-15.1-4.7-20.7-9.7
						c-2.7-2.4-5.7-4.8-9.2-6c-2-0.7-3.9-1-5.9-1.2c-1.6-0.2-3.1-0.3-4.7,0c-1.4,0.3-2.6,0.9-3.8,1.5c-1.8,0.8-3.4,1.1-5.3,0.9
						C63.7,224.3,63.2,225.1,63.9,225.1L63.9,225.1z"/>
				</g>
			</g>
			<g>
				<g>
					<path class="st8" d="M65.9,230.1c9-2.1,18.1,1,26.4,4.6c8.6,3.7,17.1,7.8,25.6,11.9c0.4,0.2,1.2-0.4,0.6-0.7
						c-8.9-4.1-17.8-8.5-26.9-12.3c-8.1-3.4-17.1-6.1-26-4C65.1,229.5,65.3,230.2,65.9,230.1L65.9,230.1z"/>
				</g>
			</g>
			<g>
				<g>
					<path class="st8" d="M54,234.8c1.2-1.4,2-2.9,2.7-4.5c0.7-1.5,1.6-3.1,3-3.9c1-0.5,2.3-0.5,3.3-0.5c1.3-0.1,2.5-0.2,3.7-0.1
						c2.5,0.1,5,0.7,7.1,2.3c3.1,2.4,4.7,6.4,7.6,9c3,2.6,7.3,3.3,11.1,2.5c2.4-0.5,4.4-1.8,6.7-2.6c3.3-1.4,5.9,0.3,8.4,2.4
						c0.3,0.2,1.2-0.2,1-0.4c-1.8-1.4-3.6-2.9-6-3.1c-2.2-0.2-4.1,0.9-6,1.8c-4.8,2.4-10.7,2.5-14.7-1.4c-3.1-3-4.8-7.4-8.8-9.6
						c-2.1-1.1-4.5-1.4-6.8-1.5c-2.1,0-4.5-0.1-6.5,0.6c-3.9,1.3-4.5,6.3-7,9C52.8,235.1,53.8,235,54,234.8L54,234.8z"/>
				</g>
			</g>
			<g>
				<g>
					<path class="st8" d="M70.5,218.3c-0.2,4.2-0.3,8.4-0.2,12.7c0,1.4-0.2,3.4,0.8,4.5c0.9,1.1,2.5,1.1,3.8,1.1
						c3.9,0.2,7.7-0.3,11.6-1.1c2-0.4,3.9-0.9,5.9-1.5c1.1-0.3,2.5-0.8,3.3,0.4c0.6,0.9,1,2.1,1.4,3c0.8,1.8,1.5,3.7,2.5,5.5
						c0.7,1.2,1.7,2.1,3,1.7c0.6-0.2,0.5-0.8-0.2-0.7c-1.3,0.3-2.1-1.7-2.4-2.5c-0.5-1.1-1-2.3-1.5-3.4c-0.4-1-0.9-2-1.3-2.9
						c-0.3-0.7-0.7-1.5-1.4-1.9c-1.5-0.8-3.2,0.1-4.7,0.5c-2.4,0.7-4.7,1.2-7.2,1.6c-2.3,0.4-4.6,0.6-7,0.6c-1.3,0-2.6,0.1-3.8-0.3
						c-1.3-0.4-1.6-1.4-1.7-2.6c-0.3-4.9-0.2-9.9,0.1-14.9C71.6,217.7,70.6,217.9,70.5,218.3L70.5,218.3z"/>
				</g>
			</g>
			<g>
				<g>
					<path class="st8" d="M47.9,229.9c3.5-4.9,9.8-1,13.4,1.6c2.8,2.1,5.8,3.9,9.2,4.8c1.7,0.4,3.3,0.7,5,1.1c1.8,0.4,3.9,1.5,5.8,1
						c1.9-0.4,2.5-2.1,3.3-3.5c1.1-2.1,3-3.2,5.3-3.5c5.5-0.7,9.8,3.7,12.8,7.7c0.2,0.3,1.2-0.1,1-0.4c-2.7-3.6-6.4-7.3-11.2-7.9
						c-3.9-0.4-7.4,1.2-9.2,4.7c-0.2,0.5-0.5,0.9-0.8,1.4c-0.7,1.1-1.9,1.2-3,0.9s-2.4-0.7-3.5-0.9c-1.8-0.4-3.6-0.8-5.4-1.3
						c-4.4-1.3-7.6-4.3-11.5-6.6c-3.7-2.2-9.2-3-12.2,0.9C46.8,230.3,47.8,230.2,47.9,229.9L47.9,229.9z"/>
				</g>
			</g>
			<g>
				<g>
					<path class="st8" d="M75.6,218c-0.7,3.7,0.6,7.5-0.3,11.3c-0.5,1.8-1.5,3.5-3.1,4.2c-1.5,0.6-3.2,0.7-4.4,1.9
						c-2.7,2.5,1.6,5.2,3.5,6.5c2.9,1.9,6,3.4,9.1,5c3.7,1.9,7.4,3.9,10.8,6.6c0.3,0.2,1.2-0.2,1-0.4c-5.4-4.4-12-6.9-17.8-10.3
						c-2.1-1.2-9.6-5.4-4.8-7.7c1.5-0.7,3.1-0.7,4.5-1.7c1-0.8,1.8-1.9,2.2-3c1.5-3.9-0.1-8.1,0.6-12.2
						C76.7,217.6,75.6,217.7,75.6,218L75.6,218z"/>
				</g>
			</g>
			<g>
				<g>
					<path class="st8" d="M39.8,231.4c5.2,0.5,10.4-0.5,15.6,0.1c1.4,0.1,2.6,0.4,3.9,0.8c0.6,0.2,1.3,0.6,2,0.5
						c0.3,0,0.7-0.2,0.8-0.5c0-0.1,0-0.2,0-0.3c-0.1-0.4-0.1-0.1-0.3,0c-0.2,0-0.4,0.1-0.6,0.1c0.4,0.1,0.9,0.7,1.2,0.9
						c0.6,0.5,1.3,1,1.9,1.6c1.4,1.2,2.7,2.4,4,3.8c1.2,1.3,2.3,2.6,3.2,4c1,1.5,1.7,3.1,2.4,4.7c1.7,3.2,5.6,2.4,8.5,1.9
						c3.8-0.6,7.5-1.6,11.2-2.9c0.7-0.3,0.1-0.8-0.5-0.6c-4.6,1.8-9.8,3.1-14.8,3.3c-1.6,0-2.6-0.5-3.4-1.9
						c-0.5-0.9-0.9-1.9-1.4-2.8c-1-1.9-2.3-3.6-3.6-5.2c-1.4-1.6-2.8-2.9-4.3-4.3c-0.8-0.7-1.6-1.3-2.4-2c-0.4-0.3-1-1-1.5-1.1
						c-0.7-0.2-0.8,0.3-0.8,0.8c0,0.1,0.3,0,0-0.2c-0.3-0.3-1.2-0.4-1.6-0.5c-1.1-0.3-2.2-0.5-3.3-0.7c-5.3-0.6-10.7,0.4-16-0.1
						C39.6,230.6,39.1,231.3,39.8,231.4L39.8,231.4z"/>
				</g>
			</g>
			<g>
				<g>
					<path class="st8" d="M60.9,228c1,0,2.1-0.2,2.6-1c0.1-0.1,0.2-0.3,0.3-0.3c-0.3,0.2-0.1,0.1,0.2,0.3c0.9,0.6,1.8,1.2,2.6,1.8
						c3.6,2.5,7.2,5.2,10.6,7.9c1.8,1.5,3.5,2.9,5.2,4.4c0.8,0.7,1.6,1.4,2.4,2.2c0.7,0.6,1.4,1.4,2.2,1.8c1.6,0.8,3.4,0.1,5.1-0.3
						c2.4-0.6,4.6-1.1,7-1.7c0.7-0.2,0.5-0.9-0.2-0.7c-2.4,0.6-4.6,1.1-7,1.7c-1.2,0.3-2.7,1-3.8,0.6c-1-0.3-1.8-1.3-2.5-1.9
						c-3.1-2.9-6.5-5.8-9.9-8.4c-3.3-2.6-6.9-5.3-10.4-7.5c-0.6-0.4-1.4-0.9-2.1-0.6c-0.2,0.1-0.3,0.3-0.5,0.5
						c-0.5,0.5-1.1,0.6-1.9,0.6C60.4,227.4,60.1,228.1,60.9,228L60.9,228z"/>
				</g>
			</g>
			<g>
				<g>
					<path class="st8" d="M58.5,240.8c3.5-0.3,7.1-1.1,10.6-1.8c3.3-0.7,6.7-1.4,10-1.3c3.7,0.2,7.2,1.5,10.2,3.4
						c3.3,2.1,6.3,4.8,9.7,6.8c3.4,2,7.4,3.1,11.5,2.4c0.6-0.1,0.5-0.7-0.1-0.5c-8.4,1.8-14.9-6.1-21.5-9.8c-2.8-1.6-6-2.5-9.2-2.6
						c-2.9-0.2-5.9,0.3-8.8,0.9c-4.1,0.8-8.1,1.8-12.2,2.2C58.2,240.3,57.8,240.9,58.5,240.8L58.5,240.8z"/>
				</g>
			</g>
			<g>
				<g>
					<path class="st8" d="M49.8,233.4c2-0.3,3.5-1.1,5.1-2.3c0.7-0.5,1.3-1.1,2.2-0.8c1.2,0.3,2.3,1.4,3,2.3c1.9,2,3.4,3.9,5.9,5.1
						c2.1,1,4.7,1.8,5.5,4.2c0.1,0.3,1.1,0,1-0.3c-0.8-2.4-3.1-3.2-5.2-4.1c-1.5-0.7-2.6-1.5-3.8-2.5c-1.1-1.1-2.1-2.4-3.2-3.4
						c-1.4-1.3-2.9-2.2-4.7-1.4c-0.7,0.3-1.4,0.9-2,1.4c-1.1,0.8-2.3,1.4-3.6,1.6C49.5,233,49.1,233.5,49.8,233.4L49.8,233.4z"/>
				</g>
			</g>
			<g>
				<g>
					<path class="st8" d="M51,235.6c1.1,0.6,2.1,1,2.4,2.2c0.3,1.1,1,2,1.8,2.7c2.9,3,6.7,5.2,10.5,7.1c3.9,1.9,8,3.9,12.2,5.1
						c3.7,1.1,7.7,1.1,11.2-1c0.6-0.4-0.3-0.5-0.6-0.3c-4.1,2.4-9,1.3-13.1-0.4c-3.7-1.5-7.4-3.1-11-5c-3.2-1.8-7-3.9-9.1-7.1
						c-0.5-0.7-0.5-1.4-0.9-2.1c-0.4-0.9-1.6-1.4-2.4-1.8C51.6,234.9,50.6,235.4,51,235.6L51,235.6z"/>
				</g>
			</g>
			<g>
				<g>
					<path class="st8" d="M67.3,218.4c0.2,2.1,2.9,3,4.5,3.6c2.7,1.1,5.6,1.7,8.3,2.8c1.1,0.4,2.3,0.9,2.9,1.8
						c0.9,1,0.5,2.3,0.4,3.5c-0.2,2.4-0.1,4.8,1.6,6.7s4.4,2.8,6.7,4c5.8,2.9,11.7,5.6,17.6,8.2c0.2,0.1,1.2-0.3,0.9-0.4
						c-5.5-2.4-10.9-4.9-16.3-7.5c-2.3-1.1-4.8-2.2-6.8-3.6c-2.2-1.6-2.7-3.9-2.6-6.6c0-1.3,0.7-3-0.1-4.3c-0.5-0.8-1.4-1.3-2.3-1.7
						c-2.4-1.2-5.2-1.9-7.8-2.7c-1.9-0.6-5.9-1.6-6.1-4C68.2,217.9,67.3,218,67.3,218.4L67.3,218.4z"/>
				</g>
			</g>
			<g>
				<g>
					<path class="st7" d="M47.3,236.5c3.9,0,7.8,0,11.8,0c0.4,0,1.3,0,1.4-0.5c0.1-0.4-0.5-1.1-0.7-1.4c-0.4-0.6-1-1.3-1.4-1.9
						c0-0.1-0.2-0.3-0.2-0.4c0,0,0-0.1-0.1-0.2c-0.1,0.1-0.2,0.2-0.4,0.4c0,0,2.4,1.1,2.5,1.2c3,1.6,6.3,2,9.6,2.3
						c0.4,0,1.1-0.5,0.4-0.6c-1.9-0.2-3.7-0.3-5.5-0.8c-1.8-0.5-3.2-1.3-4.9-2.1c-0.6-0.3-1.7-1-2.5-0.6c-0.5,0.2-0.4,0.5-0.1,0.9
						c0.3,0.6,0.8,1.2,1.2,1.8c0.2,0.3,0.5,0.7,0.7,1c0.1,0.3,0.1,0.5,0.3,0.4c-0.1,0.1-1.1,0-1.4,0c-0.5,0-1.1,0-1.6,0
						c-1,0-2,0-2.9,0c-2,0-3.9,0-5.9,0C47.3,235.9,46.6,236.5,47.3,236.5L47.3,236.5z"/>
				</g>
			</g>
			<g>
				<g>
					<path class="st8" d="M77.3,247c5.7,2.1,11.1,5.2,15.7,9.1c0.4,0.3,1.3-0.2,0.8-0.6c-4.7-4-10.1-7.2-15.9-9.2
						C77.4,246.2,76.8,246.9,77.3,247L77.3,247z"/>
				</g>
			</g>
			<g>
				<g>
					<path class="st7" d="M76.8,239.2c5.1,2.7,10.5,5.2,16,7.1c4.4,1.6,10.6,2.3,13.1,6.8c0.2,0.4,1.2,0,1-0.4
						c-2.5-4.2-7.9-5.1-12.2-6.5c-5.9-2-11.7-4.4-17.2-7.4C77.2,238.4,76.3,238.9,76.8,239.2L76.8,239.2z"/>
				</g>
			</g>
			<g>
				<g>
					<path class="st8" d="M86.7,261c-7.5-9.8-16.6-18.3-26.8-25.4c-0.3-0.2-1.2,0.2-1,0.4c10.2,7,19.2,15.6,26.8,25.4
						C85.9,261.6,86.9,261.2,86.7,261L86.7,261z"/>
				</g>
			</g>
			<g>
				<g>
					<path class="st8" d="M51.7,241.5c6.5,0.9,13,0.9,19.4,1.8c6.6,0.9,12.5,2.9,17.9,6.8c0.4,0.3,1.3-0.3,0.8-0.6
						c-5.4-3.7-11.3-5.9-17.7-6.8c-6.7-1-13.4-1-20.1-1.9C51.5,240.7,51,241.4,51.7,241.5L51.7,241.5z"/>
				</g>
			</g>
			<g>
				<g>
					<path class="st8" d="M51.7,224.1c5.7,1.1,11.7,1,17.2,2.9c3,1.1,6.5,2.4,8.7,4.7c1.2,1.2,1.6,2.5,2.2,4c0.4,0.9,1,1.7,2.1,1.7
						c0.5,0,1.1-0.7,0.4-0.7c-1.5,0-1.7-2.5-2.2-3.4c-0.6-1.3-1.6-2.3-2.7-3c-2.4-1.9-5.5-3.1-8.4-4c-5.4-1.8-11.3-1.7-16.9-2.7
						C51.6,223.3,51,224,51.7,224.1L51.7,224.1z"/>
				</g>
			</g>
			<g>
				<g>
					<path class="st7" d="M55,242.7c5.5-0.4,10.7-2.3,16.2-2.5c2.9-0.2,6.2,0.1,9,1.2c2.2,0.8,3.4,3.7,5.9,3.1
						c0.7-0.1,0.5-0.9-0.2-0.7c-1.4,0.3-2.5-1.6-3.5-2.3c-1-0.8-2.3-1.1-3.4-1.4c-2.6-0.6-5.4-0.9-8-0.7c-5.3,0.4-10.5,2.2-15.8,2.5
						C54.5,242,54.3,242.7,55,242.7L55,242.7z"/>
				</g>
			</g>
			<g>
				<g>
					<path class="st8" d="M94.9,242.9c4.7,0.6,8.9,3.9,10.6,8.3c0.1,0.3,1.1,0,1-0.3c-1.8-4.6-6.1-7.9-11-8.5c-0.2,0-0.6,0-0.7,0.2
						C94.6,242.7,94.6,242.8,94.9,242.9L94.9,242.9z"/>
				</g>
			</g>
		</g>
		<g>
			<g>
				<g>
					<path class="st7" d="M74,210.9c4.4,0.4,8.9,0.8,13.3,1.2c4.2,0.4,8.7,0.4,12.8,1.8c7,2.5,11.9,8.5,18.6,11.4
						c3.4,1.5,7.2,2,10.9,1c0.5-0.1,0.5-0.4-0.1-0.3c-7.7,2.1-14.5-3.4-20.2-7.6c-2.6-2-5.4-3.8-8.6-4.8c-3.7-1.3-7.8-1.3-11.8-1.7
						c-4.8-0.4-9.5-0.8-14.3-1.3C74.4,210.5,73.5,210.8,74,210.9L74,210.9z"/>
				</g>
			</g>
			<g>
				<g>
					<path class="st8" d="M81.5,218.6c9-1.7,17.9,0.7,26.5,3.6c8.6,3,17.2,6.5,25.8,9.7c0.3,0.1,1.1-0.4,0.6-0.6
						c-8.8-3.3-17.6-7-26.7-10c-8.3-2.8-17.2-5-26-3.4C81.1,218.1,80.8,218.7,81.5,218.6L81.5,218.6z"/>
				</g>
			</g>
			<g>
				<g>
					<path class="st8" d="M64.1,218.9c3.4-2.9,8.2-3.3,12.5-3.6c4.5-0.4,9.5-0.8,13.4,2c3,2.2,4.8,5.7,8,7.6
						c3.1,1.9,7.1,2.2,10.6,1.5c2.2-0.4,4.1-1.4,6.2-2.2c3.2-1.1,5.9,0.2,8.5,2c0.2,0.2,1.1-0.2,0.9-0.3c-1.8-1.2-3.6-2.3-5.7-2.5
						s-3.9,0.6-5.8,1.3c-4.6,1.9-10.2,2.5-14.5-0.5c-3.3-2.4-5.2-6.3-8.9-8c-4.1-2-9-1.5-13.3-1.1c-4.4,0.4-9.2,1-12.6,3.9
						C63,219.1,64,219,64.1,218.9L64.1,218.9z"/>
				</g>
			</g>
			<g>
				<g>
					<path class="st8" d="M86.3,209c-0.2,2.5-0.2,5.2-0.2,7.7c0,1.2,0,2.3,0.1,3.4c0,0.8-0.1,1.8,0.4,2.5c0.9,1.5,3.1,1.3,4.6,1.3
						c2.3,0.1,4.5-0.1,6.8-0.3s4.5-0.6,6.7-1.1c1.3-0.3,2.5-0.6,3.7-0.8c1.2-0.3,2.5-0.6,3.3,0.6c1.3,1.9,2.2,4.1,3.2,6.1
						c0.8,1.4,1.8,2.3,3.4,2c0.6-0.1,0.4-0.7-0.2-0.6c-2,0.4-3.2-3.4-3.9-4.8c-0.7-1.3-1.3-3.3-2.7-4c-1.3-0.6-2.9,0-4.2,0.3
						c-2.2,0.5-4.4,1-6.6,1.3s-4.2,0.5-6.4,0.6c-1.3,0-2.4,0-3.7,0c-1.1,0-2.5,0-3-1c-0.6-0.9-0.4-2.2-0.4-3.2
						c0-1.2-0.1-2.3-0.1-3.4c0-2.3,0.1-4.5,0.2-6.8C87.2,208.5,86.3,208.7,86.3,209L86.3,209z"/>
				</g>
			</g>
			<g>
				<g>
					<path class="st8" d="M63.5,219.2c0.8-1.1,0.8-2.4,0.8-3.8c0-0.5-0.1-1.4,0.2-1.8c0.5-0.8,2.6,0.3,3.3,0.6
						c2.4,1.1,4.6,2.5,6.9,3.8c2.1,1.1,4.1,2.1,6.3,2.9c2.4,1,4.9,1.9,7.4,2.6c2.2,0.7,4.5,1.5,6.9,1.8c1.7,0.2,3-0.4,4-1.7
						c0.5-0.7,0.9-1.5,1.5-2.1c0.9-0.9,2.1-1.5,3.2-1.8c5.7-1.5,10.7,2.2,14.4,6.1c0.2,0.2,1.1-0.1,0.9-0.3
						c-3.2-3.4-7.2-6.4-12.1-6.5c-1.9,0-3.8,0.3-5.5,1.2c-0.7,0.4-1.4,0.8-1.9,1.4c-0.7,0.8-1.1,1.8-1.8,2.5
						c-1.3,1.5-3.6,0.5-5.2,0.1c-1.5-0.4-2.8-0.8-4.2-1.2c-2.7-0.9-5.4-1.9-8-3c-2.6-1.2-5.1-2.4-7.5-3.8c-2.2-1.3-4.3-2.6-6.8-3.2
						c-1.2-0.3-2.4-0.2-2.7,1.1c-0.4,1.7,0.3,3.6-0.9,5.2C62.5,219.6,63.4,219.4,63.5,219.2L63.5,219.2z"/>
				</g>
			</g>
			<g>
				<g>
					<path class="st8" d="M91.3,208.8c-0.8,3.8,1.6,9-2.2,11.9c-1.7,1.3-4.1,0.9-5.9,2.2c-1.5,1.1-0.9,2.4,0.4,3.4
						c3.3,2.4,7.3,3.9,11.1,5.5c4.1,1.7,8.2,3.3,11.9,5.8c0.2,0.2,1.1-0.2,0.9-0.3c-7-4.6-15.3-6.4-22.3-10.8
						c-0.8-0.5-2.2-1.4-1.9-2.5c0.4-1.5,2.4-1.6,3.5-1.9c1.5-0.3,2.8-0.9,3.8-2.1c2.6-3.2,0.6-7.5,1.4-11.2
						C92.2,208.3,91.4,208.5,91.3,208.8L91.3,208.8z"/>
				</g>
			</g>
			<g>
				<g>
					<path class="st8" d="M76.8,215.8c7.9,2.1,15.8,4,23.7,6.1c7.7,2.1,15.3,4.5,22.3,8.1c3.8,2,7.5,4.2,11.3,6.4
						c0.2,0.1,1-0.2,0.9-0.3c-6.6-3.9-13.2-7.8-20.5-10.6c-7.5-2.8-15.5-4.6-23.2-6.7c-4.6-1.2-9.2-2.4-13.8-3.5
						C77.2,215.4,76.5,215.7,76.8,215.8L76.8,215.8z"/>
				</g>
			</g>
			<g>
				<g>
					<path class="st8" d="M55.5,220.5c3.1,0.2,5.6-1,8.2-2.4c1.3-0.7,2.5-1.3,4.1-1.4c2.3-0.1,4.4,1,6.4,2c3.9,2.1,7.9,4.7,11.1,7.8
						c1.6,1.6,2.8,3.2,3.9,5.2c1,1.7,2.1,2.5,4.1,2.5c2.5,0.1,5.2-0.4,7.6-0.8c2.7-0.5,5.5-1.2,8.1-2c0.6-0.2,0.4-0.9-0.2-0.7
						c-4.6,1.5-9.5,2.4-14.3,2.7c-1.4,0.1-2.7,0.1-3.7-1.1c-0.7-0.8-1.1-1.9-1.7-2.6c-1.1-1.7-2.4-3-3.8-4.4
						c-3.1-2.8-6.8-5.4-10.5-7.4c-2.9-1.6-6.3-2.8-9.5-1.6c-1.4,0.5-2.6,1.4-3.9,2.1c-1.8,1-3.6,1.5-5.6,1.3
						C55.3,219.8,54.8,220.5,55.5,220.5L55.5,220.5z"/>
				</g>
			</g>
			<g>
				<g>
					<path class="st8" d="M70.9,213.3c4.4,0.1,8.3,2.4,12,4.5c3.7,2.1,7.3,4.3,10.9,6.8c1.7,1.2,3.3,2.4,5,3.5
						c1.3,1,2.6,2.4,4.3,2.8c1.6,0.5,3.4-0.2,5-0.5c2.2-0.4,4.3-0.9,6.5-1.3c0.4-0.1,0.8-0.6,0.1-0.5c-2.2,0.4-4.3,0.9-6.5,1.3
						c-1,0.2-2,0.4-2.9,0.6c-1.4,0.2-2.3-0.3-3.3-1.1c-3.2-2.4-6.6-4.8-10-7.1c-3.3-2.2-6.8-4.2-10.3-6.2c-3.2-1.8-6.6-3.4-10.4-3.4
						C71,212.8,70.3,213.3,70.9,213.3L70.9,213.3z"/>
				</g>
			</g>
			<g>
				<g>
					<path class="st8" d="M68.6,223.8c7.9-0.6,16-1.1,23.8,0c3.8,0.6,7.5,1.5,11.1,3c3.6,1.7,6.9,4,10.5,5.9c3.7,1.9,7.8,2.9,12,2.3
						c0.4-0.1,0.8-0.6,0.1-0.5c-8.6,1.5-15.1-5.2-22.4-8.3c-6.8-2.9-14.2-3.5-21.6-3.5c-4.4,0-8.8,0.3-13.2,0.6
						C68.7,223.3,68,223.8,68.6,223.8L68.6,223.8z"/>
				</g>
			</g>
			<g>
				<g>
					<path class="st8" d="M78.3,209.4c4.9,5.8,10.1,11.7,16.9,15.5c7.5,4.2,16.5,4.3,24,8.5c3.9,2.2,7.4,5,10.1,8.6
						c0.2,0.2,1-0.2,0.9-0.3c-4.7-6.3-11.7-10.2-19.2-12.2c-4.3-1.2-8.7-2-12.8-3.9c-3.6-1.7-6.9-4-9.8-6.7c-3.3-3-6.3-6.4-9.1-9.8
						C79.1,208.9,78.3,209.3,78.3,209.4L78.3,209.4z"/>
				</g>
			</g>
			<g>
				<g>
					<path class="st9" d="M56.8,221c2.7,2.2,5.7,3,9.2,3.1c1.9,0.1,3.7,0.1,5.5,0.4c2.4,0.4,4.5,1.2,6.8,2.1
						c8.4,3.3,16.1,8.4,24.2,12.3c4.5,2.2,9.2,3.9,14.2,4.9c0.3,0.1,1.1-0.4,0.6-0.5c-8.9-1.8-16.9-6.2-24.7-10.6
						c-7.2-3.9-14.9-8.5-23.2-9.1c-1.9-0.1-3.8-0.1-5.7-0.4c-2.3-0.4-4.2-1.4-6-2.7C57.5,220.4,56.6,220.8,56.8,221L56.8,221z"/>
				</g>
			</g>
			<g>
				<g>
					<path class="st8" d="M65.5,222.2c1.9-0.2,3.3-0.9,4.7-2.1c0.6-0.5,1.3-1.2,2.1-1.3c1.1-0.2,2.4,0.8,3.1,1.4
						c2,1.6,3.6,3.4,6,4.4c2,0.8,4.9,1.4,5.8,3.5c0.1,0.3,1.1,0.1,0.9-0.3c-0.9-2.2-3.5-2.7-5.5-3.5c-1.5-0.6-2.6-1.3-3.8-2.3
						c-1.1-0.9-2.1-2-3.2-2.7c-1.4-1-2.8-1.4-4.4-0.5c-0.7,0.4-1.4,1-2.1,1.5c-1.1,0.8-2.2,1.2-3.4,1.4
						C65.2,221.8,64.8,222.3,65.5,222.2L65.5,222.2z"/>
				</g>
			</g>
			<g>
				<g>
					<path class="st8" d="M66.9,224c0.8,0.3,1.9,0.6,2.4,1.3c0.6,0.9,1.3,1.6,2.1,2.3c3,2.4,6.7,4.1,10.3,5.6c3.8,1.5,7.7,3,11.7,4
						c3.7,0.9,7.7,1.1,11.3-0.7c0.6-0.3,0.1-0.8-0.4-0.6c-3.9,2-8.5,1.2-12.5,0c-3.7-1.2-7.4-2.4-11-4c-3.4-1.5-7-3.1-9.7-5.8
						c-0.5-0.5-0.7-1-1.1-1.4c-0.6-0.7-1.8-0.9-2.4-1.2C67,223.1,66.3,223.7,66.9,224L66.9,224z"/>
				</g>
			</g>
			<g>
				<g>
					<path class="st8" d="M77.5,205.5c0.2,1.9,3.5,2.8,4.9,3.4c3.1,1.3,6.4,2.4,9.6,3.5c1.5,0.5,2.9,1.1,4.3,1.8
						c1,0.5,2.2,1,2.8,1.9c0.2,0.3,0.3,0.5,0.3,0.9c0,1.3-0.4,2.5-0.2,3.8c0.3,2.6,2.4,4,4.6,5c7,3,14.1,5.7,21.3,8.1
						c0.3,0.1,1.1-0.3,0.8-0.4c-6.4-2.3-12.5-4.6-18.8-7.2c-2.5-1.1-6.1-2.1-6.8-5.2c-0.3-1.4-0.1-2.7,0.1-4.1
						c0.1-0.5,0.1-0.8-0.1-1.2c-0.4-0.7-1.3-1.2-2-1.6c-1.2-0.7-2.4-1.2-3.7-1.7c-3.2-1.3-6.5-2.3-9.7-3.5c-1.5-0.6-2.9-1.2-4.3-2
						c-0.8-0.4-2-1.1-2.1-2.1C78.4,205,77.4,205.2,77.5,205.5L77.5,205.5z"/>
				</g>
			</g>
			<g>
				<g>
					<path class="st7" d="M62.9,224.6c1.3,0,2.5-0.4,3.3-1.5c1.1-1.3,1.5-2.8,3.4-2.9c1.6,0,3,0.1,4.5,0.6c1.2,0.4,2.3,1,3.4,1.4
						c2.5,0.9,5.2,1,7.8,1.2c0.3,0,1.1-0.4,0.6-0.5c-2.8-0.2-5.8-0.4-8.4-1.5c-1.2-0.5-2.4-1.1-3.6-1.4c-1.2-0.3-2.4-0.3-3.5-0.3
						c-1.4,0-2.6,0.3-3.6,1.4c-1.2,1.3-1.5,2.9-3.5,3C63,224.1,62.4,224.6,62.9,224.6L62.9,224.6z"/>
				</g>
			</g>
			<g>
				<g>
					<path class="st8" d="M93,232.4c5.6,1.7,10.9,4.1,15.7,7.4c0.3,0.2,1.2-0.2,0.7-0.5c-4.8-3.3-10.2-5.9-15.9-7.5
						C93.2,231.8,92.4,232.3,93,232.4L93,232.4z"/>
				</g>
			</g>
			<g>
				<g>
					<path class="st7" d="M92.5,226.1c5.1,2.3,10.4,4.1,15.8,5.7c2.4,0.7,4.9,1.2,7.3,2c2.3,0.7,4.5,1.6,6,3.5
						c0.2,0.3,1.1,0,0.9-0.4c-2.6-3.8-8.5-4.3-12.6-5.5c-5.7-1.6-11.3-3.5-16.7-6C92.7,225.3,92,225.9,92.5,226.1L92.5,226.1z"/>
				</g>
			</g>
			<g>
				<g>
					<path class="st8" d="M102.2,243.7c-7.7-8.2-17-15.2-26.9-20.7c-0.3-0.2-1.1,0.2-0.7,0.5c9.9,5.5,18.9,12.4,26.7,20.7
						C101.7,244.3,102.5,244,102.2,243.7L102.2,243.7z"/>
				</g>
			</g>
			<g>
				<g>
					<path class="st8" d="M61.8,224.2c14.6,1.6,29.9,3.1,42.9,10.5c0.2,0.1,1-0.2,0.9-0.3c-13.1-7.3-28.5-8.9-43.2-10.6
						C62.1,223.8,61.3,224.1,61.8,224.2L61.8,224.2z"/>
				</g>
			</g>
			<g>
				<g>
					<path class="st8" d="M67.4,214.6c5.6,0.9,11.5,0.3,17,1.6c2.9,0.7,6.3,1.8,8.7,3.6c1.3,1,1.8,2.1,2.5,3.4c0.4,0.9,1,1.4,2,1.5
						c0.4,0,1-0.6,0.3-0.6c-1.5,0-1.7-1.9-2.3-2.8c-0.7-1.1-1.8-2-2.8-2.5c-2.5-1.5-5.6-2.5-8.5-3.1c-5.4-1.2-11.1-0.6-16.5-1.5
						C67.3,213.9,66.7,214.5,67.4,214.6L67.4,214.6z"/>
				</g>
			</g>
			<g>
				<g>
					<path class="st8" d="M98.5,235c5.2,0,10.4,0,15.6,0c2.5,0,5-0.1,7.4,0c1.9,0,4.4,0.1,5.6,1.9c0.2,0.2,1-0.1,0.9-0.3
						c-0.9-1.4-2.5-1.8-4.1-2c-2.5-0.3-5.2-0.1-7.7-0.1c-5.7,0-11.4,0-17.1,0C98.9,234.6,98,235,98.5,235L98.5,235z"/>
				</g>
			</g>
			<g>
				<g>
					<path class="st8" d="M69.3,233.6c6.8-1.2,13.8-0.5,20.3,1.8c3,1.1,6,2.5,8.6,4.4c1.2,0.9,2.4,1.8,3.4,2.8c1.1,1,2.1,2,3.5,2.4
						c2.1,0.5,4.3,0.5,6.4,0.6c2.4,0.2,4.8,0.3,7.3,0.5c0.5,0,1-0.7,0.3-0.7c-4.1-0.3-8.4-0.4-12.5-0.9c-2.1-0.3-3.1-1.5-4.6-2.7
						c-1.2-1.1-2.4-2-3.6-2.8c-5.4-3.6-11.8-5.7-18.1-6.3c-3.7-0.4-7.4-0.2-11.1,0.4C68.5,233,68.7,233.7,69.3,233.6L69.3,233.6z"/>
				</g>
			</g>
			<g>
				<g>
					<path class="st7" d="M65.2,225.4c6.9-0.3,13.7-0.1,20.5,0.7c3.2,0.4,6.7,0.8,9.8,1.7c1.5,0.4,2.4,1.3,3.7,2.2
						c0.8,0.5,1.6,0.7,2.5,0.6c0.6-0.1,0.4-0.8-0.2-0.7c-1.5,0.3-2.6-1.3-3.7-2c-1.2-0.7-2.4-0.9-3.7-1.1c-3.1-0.6-6.4-1.1-9.6-1.5
						c-6.4-0.7-12.8-0.9-19.3-0.6C64.8,224.7,64.6,225.4,65.2,225.4L65.2,225.4z"/>
				</g>
			</g>
			<g>
				<g>
					<path class="st8" d="M110.6,229.1c4.3,0.4,8.7,2.7,10.6,6.8c0.1,0.3,1.1,0,0.9-0.3c-2-4.1-6.6-6.6-11-7c-0.2,0-0.5,0-0.7,0.2
						C110.4,228.9,110.4,229,110.6,229.1L110.6,229.1z"/>
				</g>
			</g>
			<g>
				<g>
					<path class="st7" d="M84.8,234.6c7.7-0.2,15.8-0.5,23.3,1.6c6.7,1.8,12.6,5.9,19.7,6.5c0.2,0,1.1-0.4,0.6-0.4
						c-7.4-0.6-13.7-5.1-20.8-6.8c-7.3-1.7-14.9-1.5-22.4-1.3C84.9,234.1,84.2,234.6,84.8,234.6L84.8,234.6z"/>
				</g>
			</g>
		</g>
		<g>
			<g>
				<g>
					<path class="st8" d="M61.9,242.9c5.5-0.5,11.6-0.9,16.1,3c1.8,1.6,3.3,3,5.6,3.9c1.9,0.8,4.6,1.3,5.5,3.4c0.1,0.3,1,0,0.9-0.3
						c-0.8-2-3.1-2.6-5-3.3c-1.4-0.5-2.5-1.1-3.7-2c-1.2-0.9-2.2-2-3.3-2.9c-4.4-3.4-10.6-2.8-15.9-2.5
						C61.6,242.4,61.2,242.9,61.9,242.9L61.9,242.9z"/>
				</g>
			</g>
			<g>
				<g>
					<path class="st7" d="M59.3,245.4c2.6,0,5.2,0,7.8,0c2.4,0,4.8-0.2,7.1,0.1c2.3,0.3,4.2,1.7,6.4,2.2c2.3,0.6,4.5,0.7,6.8,0.9
						c0.4,0,1-0.6,0.3-0.6c-2.4-0.2-5-0.3-7.3-1.1c-2-0.6-3.7-1.8-5.8-2c-2.4-0.3-4.7-0.1-7.1-0.1c-2.6,0-5.2,0-7.8,0
						C59.3,244.8,58.7,245.4,59.3,245.4L59.3,245.4z"/>
				</g>
			</g>
			<g>
				<g>
					<path class="st8" d="M63.6,235.3c7.5,1.2,14.9,3,22,5.5c3,1.1,6.7,2.1,9.3,4.1c1.2,0.9,1.7,2,2.3,3.2c0.5,0.9,1,1.5,2.1,1.5
						c0.3,0,1-0.5,0.4-0.5c-1.5,0-1.7-2-2.3-2.9c-0.7-1.1-1.8-1.9-2.8-2.5c-2.9-1.7-6.3-2.7-9.4-3.8c-6.9-2.4-13.8-4-21-5.1
						C63.9,234.7,63,235.2,63.6,235.3L63.6,235.3z"/>
				</g>
			</g>
			<g>
				<g>
					<path class="st7" d="M67.1,250.4c6.8-0.3,13.5-0.1,20.2,0.7c3.2,0.4,6.6,0.8,9.8,1.6c1.5,0.4,2.5,1.2,3.7,2.1
						c0.8,0.6,1.7,0.9,2.6,0.8c0.5-0.1,0.8-0.7,0.1-0.6c-1.5,0.3-2.5-1.1-3.5-1.8c-1.2-0.8-2.5-1-3.9-1.3c-3.1-0.6-6.3-1.1-9.4-1.4
						c-6.5-0.7-13-0.9-19.5-0.6C66.7,249.9,66.4,250.5,67.1,250.4L67.1,250.4z"/>
				</g>
			</g>
		</g>
		<g>
			<g>
				<path class="st8" d="M64.4,212.4c0.5,0,1.1-0.7,0.4-0.7C64.3,211.7,63.6,212.4,64.4,212.4L64.4,212.4z"/>
			</g>
		</g>
		<g>
			<g>
				<path class="st8" d="M61.3,147.6c0.8,3.2,1.4,6.5,2,9.7c0.3,1.6,0.5,3.2,0.7,4.8c0.1,0.8,0.2,1.6,0.3,2.5c0,0.4,0.1,0.9,0.1,1.3
					c0,0.2,0,0.3-0.1,0.5c-0.3,0.2-0.3,0.4,0,0.4c-0.3-0.3-1.3,0.2-1,0.4c0.8,0.7,1.8,0,2.1-0.8c0.3-0.8,0.1-1.8,0-2.5
					c-0.1-1.1-0.2-2.3-0.4-3.3c-0.6-4.4-1.4-8.7-2.5-13C62.3,146.9,61.2,147.2,61.3,147.6L61.3,147.6z"/>
			</g>
		</g>
		<g>
			<g>
				<g>
					<path class="st7" d="M64.6,146.6c1,4.4,2,8.7,2.8,13.1c1,4.3,2.4,8.8,2,13.3c-0.8,7.6-6.1,13.9-7.3,21.6
						c-0.6,3.6-0.2,7.4,2.1,10.5c0.1,0.2,0.9-0.1,0.8-0.3c-4.6-6.3-1.4-14.3,1.5-20.6c1.7-3.5,3.3-7.3,3.7-11.2c0.5-4-0.7-8-1.6-12
						c-1.1-4.9-2.2-9.8-3.2-14.8C65.4,146.2,64.6,146.4,64.6,146.6L64.6,146.6z"/>
				</g>
			</g>
			<g>
				<g>
					<path class="st8" d="M58,156.4c4.6,7.6,4.9,16.8,4.2,25.4c-0.7,9.8-2.2,19.7-3.2,29.5c0,0.3,0.8,0.1,0.8-0.1
						c0.9-8,1.9-16,2.7-24c0.7-6.7,1.3-13.5,0.2-20.2c-0.7-3.8-1.9-7.4-3.9-10.8C58.7,155.9,57.9,156.2,58,156.4L58,156.4z"/>
				</g>
			</g>
			<g>
				<g>
					<path class="st8" d="M60.4,151c1.6,3.6,3.3,7.6,2.5,11.8c-0.7,3.2-3.1,5.8-4.9,8.5c-1.8,2.6-2.7,5.5-2.4,8.7
						c0.4,3.2,2.1,6.1,4.3,8.3c1.4,1.4,2.9,2.6,3.5,4.5c0.8,2.3-0.1,4.6-1,6.8c-0.1,0.3,1,0.2,1.1-0.2c0.7-1.8,1.3-3.5,1.2-5.4
						c-0.1-1.6-0.9-2.9-1.9-4.1c-1.1-1.3-2.5-2.4-3.4-3.6c-1.1-1.5-2-3.1-2.5-4.9c-1-3.5-0.2-6.9,1.8-10c1.7-2.6,3.9-5,4.9-8
						c1.3-4.3-0.6-8.7-2.3-12.6C61.3,150.4,60.3,150.7,60.4,151L60.4,151z"/>
				</g>
			</g>
			<g>
				<g>
					<path class="st8" d="M70.9,157.5c-3.8,1.1-7.6,2.3-11.4,3.6c-1.4,0.5-3.2,0.9-4.4,1.9c-1.2,1-0.8,2.5-0.5,3.8
						c1,3.7,2.5,7.2,4.5,10.5c0.9,1.6,1.8,3,2.7,4.4c0.6,0.9,1.3,1.7,1.7,2.6c0.5,1.4-0.3,2.3-1.3,3.1c-1.7,1.5-3.3,2.9-5,4.5
						c-1,0.9-2.5,2.4-1.6,3.8c0.2,0.2,0.9,0,0.8-0.2c-1.3-2.1,2.4-4.3,3.6-5.5c0.9-0.8,1.9-1.7,2.7-2.4c0.5-0.5,1.1-0.9,1.4-1.5
						c0.9-1.8-1.2-3.8-2.1-5.2c-1.3-1.9-2.5-3.9-3.5-5.9c-1-2-1.9-3.9-2.5-6c-0.4-1.1-0.7-2.2-1-3.2c-0.4-1.7,0.1-2.7,1.8-3.4
						c4.5-1.9,9.3-3.2,14-4.6C71.5,157.7,71.4,157.4,70.9,157.5L70.9,157.5z"/>
				</g>
			</g>
			<g>
				<g>
					<path class="st8" d="M52.4,141.5c0.1,1.3,1.1,2.1,2,2.7c0.9,0.7,2.5,1.4,2.8,2.4c0.3,0.9-0.3,2-0.6,2.8
						c-0.3,1.2-0.6,2.4-0.9,3.7c-0.5,2.4-0.9,5-1.2,7.4c-0.3,2.5-0.4,5.2-0.4,7.8c0,1.8-0.3,4.3,1,5.8c1.2,1.3,3,1.2,4.5,1.5
						c2.1,0.5,3.5,2.1,4.5,3.8c2.6,5.1-0.1,10.6-3,14.9c-0.4,0.6,0.6,0.8,0.9,0.4c2.4-3.6,4.8-7.9,4.1-12.4
						c-0.5-3.4-2.8-6.7-6.4-7.4c-1-0.2-2.1-0.2-3-0.6c-1.4-0.7-1.5-2.2-1.6-3.5c-0.1-2.6-0.1-5.2,0.1-7.8c0.2-2.6,0.5-5.4,1.1-7.9
						c0.2-1.3,0.5-2.5,0.8-3.8c0.3-1.3,0.8-2.5,1-3.7c0.5-3-4.6-3.3-4.9-6.2C53.4,140.7,52.4,140.9,52.4,141.5L52.4,141.5z"/>
				</g>
			</g>
			<g>
				<g>
					<path class="st8" d="M57.5,163.7c-1.5-1.6-2.7-5.1-5.6-4.1c-1.1,0.4-1.7,1.4-2.1,2.4c-0.6,1.6-1,3.2-1.4,4.8
						c-1.6,7-1.8,14.3-4.3,21.1c-0.2,0.5,0.7,0.5,0.8,0.1c2.1-5.3,2.5-11,3.5-16.6c0.5-2.9,1.1-5.9,2-8.6c0.2-0.6,0.4-1.2,0.7-1.7
						c0.8-1.3,2.2-1.3,3.2-0.4s1.6,2.3,2.5,3.3C57,164.4,57.7,164,57.5,163.7L57.5,163.7z"/>
				</g>
			</g>
			<g>
				<g>
					<path class="st8" d="M72.9,162c-2.8,0.4-5.4,1.8-8,2.6c-0.5,0.2-0.4,0.8,0.2,0.6c2.6-0.9,5.1-2.3,7.8-2.6
						c0.2,0,0.4-0.1,0.5-0.3C73.3,162.1,73,162,72.9,162L72.9,162z"/>
				</g>
			</g>
			<g>
				<g>
					<path class="st8" d="M59.8,151.2c0.1,8.3,0.3,16.8,0.4,25.1c0.1,8.2-0.5,16.3-2.5,24.2c-1.1,4.4-2.5,8.8-3.9,13.1
						c-0.1,0.2,0.8,0.1,0.8-0.1c2.5-7.6,4.9-15.4,5.8-23.4c1-8.1,0.5-16.5,0.4-24.7c-0.1-4.8-0.2-9.6-0.3-14.4
						C60.7,150.8,59.8,150.9,59.8,151.2L59.8,151.2z"/>
				</g>
			</g>
			<g>
				<g>
					<path class="st8" d="M50,176.1c1.4,7.4,5.7,13.9,7,21.4c0.7,3.9,0.1,7.5-1.2,11.3c-1.3,3.5-2,7-1.1,10.8c0.1,0.2,0.9,0,0.8-0.2
						c-0.9-4,0-7.5,1.3-11.3c1.3-3.5,1.7-7.1,1-10.8c-1.3-7.4-5.7-13.9-7-21.4C50.8,175.6,50,175.8,50,176.1L50,176.1z"/>
				</g>
			</g>
			<g>
				<g>
					<path class="st8" d="M49.8,147.5c0,2.1,2.4,2.9,3.6,4.1c0.9,0.7,1.2,1.5,0.9,2.5c-0.6,1.8-1.3,3.4-2.1,5.1
						c-1.6,3.3-3.5,6.6-6.2,9.1c-1.1,1-2.4,2-2.6,3.5c-0.3,1.8,0.9,3.6,1.6,5.1c1.9,3.8,4.1,7.4,6.8,10.6c0.2,0.2,1.2-0.2,1-0.4
						c-2.5-3-4.6-6.3-6.4-9.7c-0.8-1.5-1.9-3.3-2-5c-0.1-2.1,1.8-3.2,3-4.5c2.4-2.4,4.2-5.4,5.7-8.4c0.8-1.7,1.5-3.4,2.2-5.1
						c0.3-0.9,0.5-1.6-0.1-2.4c-1.3-1.7-4.2-2.3-4.2-4.7C50.9,147,49.8,147.2,49.8,147.5L49.8,147.5z"/>
				</g>
			</g>
			<g>
				<g>
					<path class="st8" d="M54.3,146.7c0.8,2.2,2.9,3.3,4.5,4.8c0.8,0.8,1.6,1.7,1.5,2.8c-0.1,1.7-0.9,3.5-1.4,5.1
						c-1.2,3.9-2.5,7.7-4,11.6c-0.7,1.8-1.5,3.6-2.2,5.4c-0.7,1.6-1.7,3.2-2.1,4.9c-0.5,1.9,1,3.4,1.9,4.9c1.2,2,2.5,3.9,3.6,5.9
						c0.2,0.3,1,0,0.8-0.4c-1.4-2.2-2.6-4.3-4-6.5c-0.7-1.2-1.8-2.4-1.5-3.8c0.2-1.3,1-2.5,1.6-3.7c2-4.4,3.7-9,5.3-13.6
						c0.7-2.2,1.4-4.3,2.1-6.5c0.5-1.5,1.3-3.2,0.5-4.8c-1.3-2.5-4.6-3.5-5.7-6.3C55,146.1,54.2,146.4,54.3,146.7L54.3,146.7z"/>
				</g>
			</g>
			<g>
				<g>
					<path class="st8" d="M41.3,148.7c3,7.1,8.2,12.8,11.6,19.8c1.7,3.3,2.7,7,2.5,10.7c-0.2,4.4-2.3,8.6-3.4,12.8
						c-1.2,4.4-1.6,9.2,0.9,13.3c0.3,0.4,1.3,0,1-0.5c-4.9-8.3,2.1-17,2.6-25.4c0.5-7.3-3.7-13.7-7.4-19.6
						c-2.5-3.7-4.9-7.4-6.7-11.5C42.2,147.9,41.1,148.2,41.3,148.7L41.3,148.7z"/>
				</g>
			</g>
			<g>
				<g>
					<path class="st8" d="M43,174.2c3,6.2,2.1,13.2,2.7,19.8c0.3,3.3,1.1,6.6,2.7,9.6c1.5,2.6,3.4,4.9,5.4,7.2
						c2.4,2.7,4.7,5.6,6.1,9c0.1,0.2,0.9-0.1,0.8-0.2c-2.5-5.8-7.4-9.9-10.8-15.1c-3.7-5.9-3.4-12.7-3.7-19.4
						c-0.2-3.8-0.7-7.6-2.4-11.1C43.7,173.8,43,174.1,43,174.2L43,174.2z"/>
				</g>
			</g>
			<g>
				<g>
					<path class="st9" d="M47.9,153.6c-1.2,15.7-9.6,30.3-8.3,46.4c0,0.2,1.1,0,1.1-0.3c-1.3-16,7.2-30.6,8.3-46.4
						C49,153.2,47.9,153.3,47.9,153.6L47.9,153.6z"/>
				</g>
			</g>
			<g>
				<g>
					<path class="st8" d="M54.6,150.3c-1.1,2.8-3.1,5.1-3.6,8.1c-0.4,2.4-0.1,5.6-2.3,7.2c-0.6,0.4,0.3,0.8,0.7,0.5
						c2.3-1.6,2.2-4.5,2.5-7c0.2-1.6,0.7-2.9,1.4-4.3c0.8-1.5,1.8-2.8,2.4-4.5C55.9,149.8,54.8,149.8,54.6,150.3L54.6,150.3z"/>
				</g>
			</g>
			<g>
				<g>
					<path class="st8" d="M41.5,152.2c-1.2,2.4-1.6,4.9-1.4,7.6c0.2,2.7,0.7,5.5,0.6,8.3c-0.3,5.9-1.2,12.6,3.8,16.9
						c0.2,0.2,1.2-0.2,1-0.4c-5-4.2-4-11-3.8-16.8c0.1-2.6-0.3-5.2-0.6-7.7c-0.2-2.8,0-5.5,1.3-8C42.6,151.9,41.6,152,41.5,152.2
						L41.5,152.2z"/>
				</g>
			</g>
			<g>
				<g>
					<path class="st8" d="M72.3,147.8c-2,0.9-2.4,4.1-2.6,5.9c-0.6,3.6-0.8,7.3-1.1,10.9c-0.2,1.7-0.4,3.3-0.8,4.9
						c-0.2,1.1-0.5,2.4-1.3,3.1c-0.5,0.5-1.3,0.5-2,0.7c-1.2,0.3-2.5,0.6-3.5,1.2c-2.5,1.2-3.6,3.3-4.1,5.9
						c-1.5,7.8-2.2,15.9-2.8,23.7c0,0.4,0.8,0.3,0.8-0.1c0.6-6.9,1.4-13.8,2.4-20.7c0.5-3.3,0.8-6.9,4.1-8.5
						c1.2-0.6,2.5-0.9,3.7-1.2c0.6-0.1,1.3-0.2,1.8-0.6c1.8-1.2,2.1-4.4,2.3-6.3c0.5-3.5,0.7-7.1,1.1-10.6c0.2-1.8,0.4-3.4,0.8-5.1
						c0.3-1,0.6-2.5,1.7-3C73,148,72.6,147.6,72.3,147.8L72.3,147.8z"/>
				</g>
			</g>
			<g>
				<g>
					<path class="st7" d="M45.8,148.3c0.4,0.9,2,0.8,2.6,0.8c1.4,0.1,2.7-0.1,4.1,0.2c0.7,0.1,0.6,0.3,0.6,1
						c-0.1,1.4-0.5,2.7-0.6,4.1c-0.2,2.7,0.4,5.4,1.1,8c0.1,0.5,1.2,0.2,1.1-0.3c-0.7-2.7-1.4-5.5-1-8.3c0.2-1.4,0.6-2.7,0.5-4.1
						c0-0.5-0.1-0.8-0.6-0.9c-1.1-0.5-2.5-0.3-3.7-0.3c-0.7,0-1.4,0-2-0.1c-0.2,0-1,0-1.1-0.3C46.7,147.5,45.6,147.8,45.8,148.3
						L45.8,148.3z"/>
				</g>
			</g>
			<g>
				<g>
					<path class="st8" d="M45.7,172.9c-0.2,6.1-1.5,12.2-3.7,17.8c-0.2,0.4,0.7,0.5,0.8,0.1c2.4-5.7,3.6-11.8,3.7-17.9
						C46.5,172.4,45.7,172.5,45.7,172.9L45.7,172.9z"/>
				</g>
			</g>
			<g>
				<g>
					<path class="st7" d="M52.9,170c-1,5.8-1.6,11.6-1.7,17.3c-0.1,4.6,1.2,10.8-2.3,14.5c-0.4,0.4,0.4,0.5,0.7,0.3
						c3.3-3.7,2.4-9.3,2.4-13.9c0-6.2,0.6-12.2,1.7-18.3C53.8,169.5,53,169.6,52.9,170L52.9,170z"/>
				</g>
			</g>
			<g>
				<g>
					<path class="st8" d="M35.5,185.6c7-10.3,12.2-21.6,15.7-33.5c0.1-0.5-0.7-0.5-0.8-0.1c-3.4,11.9-8.6,23.1-15.6,33.3
						C34.5,185.8,35.2,186,35.5,185.6L35.5,185.6z"/>
				</g>
			</g>
			<g>
				<g>
					<path class="st8" d="M46.9,185.2c0.4,0,1.2-0.5,0.4-0.5C47,184.7,46.2,185.2,46.9,185.2L46.9,185.2z"/>
				</g>
			</g>
			<g>
				<g>
					<path class="st8" d="M58.3,170.9c-0.6,0.5-1.2,0.9-1.7,1.4c-0.4,0.5-0.8,1.1-0.5,1.8c0.1,0.2,0.9,0,0.8-0.2
						c-0.2-0.6,0-1.2,0.4-1.6c0.5-0.5,1-0.9,1.6-1.3c0.1-0.1,0.1-0.2-0.1-0.2C58.7,170.7,58.5,170.8,58.3,170.9L58.3,170.9z"/>
				</g>
			</g>
			<g>
				<g>
					<path class="st8" d="M61.9,163.5c0.2,0,0.9-0.4,0.4-0.4C62,163.1,61.3,163.5,61.9,163.5L61.9,163.5z"/>
				</g>
			</g>
			<g>
				<g>
					<path class="st8" d="M41.6,195.1c1.9,4.8,3.7,9.6,5.7,14.4c1,2.4,1.9,4.7,0.7,7.3c-0.8,1.7-2,3-2.4,4.9
						c-0.1,0.3,0.8,0.2,0.8-0.1c0.4-2,1.8-3.5,2.5-5.3c1-2.3,0.2-4.3-0.7-6.5c-2-4.9-3.9-9.9-5.8-14.8
						C42.3,194.6,41.5,194.8,41.6,195.1L41.6,195.1z"/>
				</g>
			</g>
			<g>
				<g>
					<path class="st8" d="M44.3,179.2c1.7,5,3.3,10,5,15c0.8,2.4,1.7,4.7,2.4,7.1c0.6,2,1.1,4.3-0.5,5.9c-0.2,0.2,0.6,0.2,0.8,0
						c1.3-1.4,1.3-3.2,0.9-5c-0.6-2.4-1.6-4.9-2.4-7.4c-1.8-5.3-3.5-10.6-5.3-15.9C45,178.7,44.2,178.9,44.3,179.2L44.3,179.2z"/>
				</g>
			</g>
			<g>
				<g>
					<path class="st8" d="M30.3,152.8c4.3,7.4,9.5,15.9,8.7,24.8c-0.2,2.2-0.8,4.2-1.8,6.2c-0.9,1.8-2.3,3.3-2.4,5.3
						c-0.1,2.1,0.8,4.3,1.3,6.4c0.6,2.4,1.2,4.8,1.8,7.3c0.1,0.4,0.9,0.2,0.8-0.2c-0.6-2.5-1.2-5-1.8-7.5c-0.5-2.2-1.6-4.8-1.1-7
						c0.6-2.1,2.2-3.8,2.8-5.9c0.7-1.9,1.1-3.8,1.1-5.8c0.2-8.6-4.7-16.7-8.9-23.8C30.8,152.1,30,152.4,30.3,152.8L30.3,152.8z"/>
				</g>
			</g>
			<g>
				<g>
					<path class="st7" d="M51.8,172.2c0.1,0.8,0.1,1.7,0,2.4c-0.1,0.7-0.4,1.4-0.7,2.1c-0.5,1.1-1.2,2.4-0.4,3.5
						c0.2,0.3,1.3-0.1,1-0.4c-0.8-1.2,0.2-2.5,0.7-3.6c0.3-0.7,0.5-1.4,0.6-2.1c0.1-0.8,0-1.5-0.1-2.3
						C52.8,171.6,51.8,171.8,51.8,172.2L51.8,172.2z"/>
				</g>
			</g>
			<g>
				<g>
					<path class="st8" d="M55.1,188.3c1,4.6-0.8,9.6-4.4,12.5c-0.4,0.4,0.2,0.7,0.6,0.4c3.8-3.1,5.7-8.3,4.7-13.2
						C55.8,187.8,55,188,55.1,188.3L55.1,188.3z"/>
				</g>
			</g>
			<g>
				<g>
					<path class="st8" d="M35.7,188.3c3.2,8.2,5.9,16.7,7.6,25.4c0.1,0.4,0.9,0.2,0.8-0.2c-1.9-8.6-4.4-17.2-7.6-25.4
						C36.4,187.8,35.5,188,35.7,188.3L35.7,188.3z"/>
				</g>
			</g>
			<g>
				<g>
					<path class="st8" d="M36.6,193.8c2.9,4.6,5.5,9.4,7.6,14.4c1.1,2.5,2,4.9,2.8,7.4c0.4,1.4,0.9,2.6,1.3,4c0.2,0.8,0.3,2,1.3,2.2
						c0.2,0,0.9-0.3,0.7-0.3c-1.1-0.2-1.3-2.5-1.6-3.4c-0.4-1.3-0.8-2.5-1.2-3.8c-0.9-2.4-1.8-4.8-2.8-7.3
						c-2.1-4.7-4.5-9.3-7.3-13.6C37.3,193.4,36.6,193.7,36.6,193.8L36.6,193.8z"/>
				</g>
			</g>
			<g>
				<g>
					<path class="st8" d="M50.9,191.1c-5.1,0.7-8.9,4.4-11.3,8.7c-1.3,2.4-2.4,5-3.1,7.6c-0.8,2.6-1.1,5.4,0.2,7.9
						c0.1,0.3,1,0,0.8-0.2c-2.2-4.5,0.3-10.2,2.4-14.3c2.2-4.4,5.8-8.7,11-9.4C51.2,191.5,51.4,191,50.9,191.1L50.9,191.1z"/>
				</g>
			</g>
			<g>
				<g>
					<path class="st8" d="M49.7,199.7c-1.2,3.8-1.8,7.7-1.7,11.8c0.1,3.7,1,7.7-0.9,11.2c-0.1,0.1,0.7,0.1,0.8-0.1
						c1.8-3.2,1.1-7,0.9-10.4c-0.2-4.2,0.4-8.5,1.7-12.5C50.6,199.4,49.8,199.5,49.7,199.7L49.7,199.7z"/>
				</g>
			</g>
			<g>
				<g>
					<path class="st7" d="M40.5,166c2.6,7,5.3,14.2,5.6,21.8c0.3,7.4-2.9,14.9-1.3,22.2c0.1,0.3,0.9,0,0.8-0.2
						c-1.7-7.4,1.6-14.8,1.3-22.2c-0.3-7.5-2.9-14.7-5.6-21.8C41.2,165.5,40.4,165.7,40.5,166L40.5,166z"/>
				</g>
			</g>
		</g>
		<polygon class="st13" points="71.4,217.8 141.2,189.5 140.9,239.8 71.3,274.5 		"/>
		<g>
			<g>
				<path class="st8" d="M49.5,219.1c-1-11.7,0.8-23.3,0-35.1c-0.2-2.8-0.6-5.7-1.2-8.5c-0.5-2.5-1.2-4.9-2.4-7.1
					c-2-3.6-5.3-6.4-8.5-8.9c-3.7-2.9-7.8-5.8-10.8-9.6c-0.2-0.3-1.3,0.1-1,0.4c5.2,6.8,13.6,10.1,18.4,17.1c1.4,2,2.1,4.3,2.6,6.6
					c0.7,2.7,1.2,5.6,1.5,8.5c0.6,5.7,0.4,11.4,0.2,17c-0.2,6.6-0.6,13.2,0,19.8C48.5,219.7,49.6,219.5,49.5,219.1L49.5,219.1z"/>
			</g>
		</g>
		<g>
			<g>
				<g>
					<path class="st8" d="M47.4,167.2c7.5,14,5.8,31,5.4,46.3c-0.1,5-0.3,10-0.4,14.9c0,0.4,0.8,0.3,0.8-0.1
						c0.2-8.9,0.5-17.7,0.7-26.7c0.2-7.6,0.2-15.3-1.4-22.8c-0.9-4.2-2.3-8.2-4.3-12.1C47.9,166.5,47.2,166.8,47.4,167.2L47.4,167.2
						z"/>
				</g>
			</g>
			<g>
				<g>
					<path class="st8" d="M33.8,150.5c3.5,2.1,7.4,3.6,10.8,6c1.7,1.2,3.4,2.6,4.3,4.6c1.3,2.6,2.3,5.5,2.9,8.3
						c0.6,2.8,0.6,5.7-0.5,8.4c-0.9,2.4-2.4,4.5-3.4,6.8c-2.1,4.6-1.6,9.6,0.7,14.1c1.3,2.6,3.3,4.6,5,7c2.3,3.1,2,6.6,1.1,10.1
						c-0.1,0.4,1,0.2,1.1-0.1c0.7-2.8,1.3-6-0.1-8.7c-1.2-2.4-3.1-4-4.6-6.2c-3-4.5-4.4-10.3-2.4-15.5c1-2.4,2.4-4.5,3.5-6.9
						c1.1-2.5,1.4-5.2,1-7.9c-0.5-2.9-1.6-5.8-2.6-8.5c-0.8-2-2-3.4-3.5-4.8c-3.7-3-8.1-4.7-12.2-7.1
						C34.3,149.7,33.3,150.2,33.8,150.5L33.8,150.5z"/>
				</g>
			</g>
			<g>
				<g>
					<path class="st8" d="M40.3,150.2c0.2,1.5,1.3,2.4,2.5,3.2c1.1,0.8,2.6,1.6,3.1,2.9c0.3,1-0.1,2.1-0.3,2.9
						c-0.2,1.5-0.4,2.8-0.6,4.3c-0.3,2.6-0.5,5.3-0.5,8c-0.1,2.8,0,5.7,0.2,8.5c0.1,2.1-0.1,5.2,1.6,6.9c1.4,1.4,3.6,1.2,5.2,2.4
						c1.8,1.2,2.9,3.1,3.6,5.1c2.1,5.3,0.4,10.9-2.2,15.7c-0.1,0.3,0.9,0.2,1.1-0.2c2.2-4.2,3.8-9,2.7-13.8
						c-0.8-3.6-2.9-7.3-6.8-8.3c-1.1-0.3-2.2-0.5-2.9-1.4c-1-1.1-1-2.8-1.2-4.2c-0.3-2.8-0.4-5.7-0.4-8.5c0-2.9,0.1-5.9,0.4-8.8
						c0.1-1.3,0.3-2.6,0.5-3.9c0.2-1.4,0.6-2.7,0.7-4c0.2-3.3-5.1-3.8-5.6-7.1C41.3,149.6,40.2,149.9,40.3,150.2L40.3,150.2z"/>
				</g>
			</g>
			<g>
				<g>
					<path class="st8" d="M48.5,161.5c0.8,9.2,1.6,18.5,2.3,27.7c0.7,8.9,0.8,17.8-0.4,26.8c-0.7,4.9-1.7,9.8-2.6,14.7
						c-0.1,0.4,0.8,0.3,0.8-0.1c1.8-8.7,3.4-17.4,3.6-26.4c0.2-9.1-0.8-18.1-1.6-27.1c-0.4-5.3-0.9-10.6-1.3-15.9
						C49.3,160.8,48.5,161,48.5,161.5L48.5,161.5z"/>
				</g>
			</g>
			<g>
				<g>
					<path class="st8" d="M41.4,188.4c1.8,8.2,6.1,15.7,7.9,23.9c1,4.3,0.9,8.4-0.1,12.6c-1,4.1-1.3,8-0.2,12.2
						c0.1,0.4,0.9,0.1,0.8-0.2c-0.6-2.2-0.8-4.4-0.7-6.7c0.1-2.2,0.7-4.2,1.1-6.3c0.9-4,0.8-7.9-0.1-12c-1.9-8.2-6.2-15.7-7.9-23.9
						C42.2,187.9,41.3,188.1,41.4,188.4L41.4,188.4z"/>
				</g>
			</g>
			<g>
				<g>
					<path class="st8" d="M44.9,154.5c0.2,4.6-1,9.2-2.3,13.5c-1.2,4.1-2.8,8.2-5.6,11.5c-1.1,1.3-2.2,2.4-2.2,4.1
						c0.1,2.2,1.4,4.4,2.3,6.4c1.9,4,4,7.7,6.6,11.4c0.3,0.4,1.3,0,1-0.5c-2.5-3.6-4.8-7.5-6.7-11.6c-0.9-1.9-2.3-4.2-2.1-6.3
						c0.2-2,2.3-3.5,3.3-5c2.2-3.1,3.5-6.9,4.5-10.5c1.2-4.3,2.3-8.7,2.1-13.1C46,153.9,44.9,154,44.9,154.5L44.9,154.5z"/>
				</g>
			</g>
			<g>
				<g>
					<path class="st8" d="M42.8,192.7c-0.4,1.1-0.6,2.2-0.3,3.3c0.4,1.2,1.1,2.3,1.7,3.3c1.4,2.4,2.7,4.9,4.1,7.4
						c0.2,0.3,1,0,0.8-0.3c-1.3-2.3-2.5-4.6-3.8-6.9c-0.6-1.1-1.4-2.2-1.8-3.3c-0.5-1.2-0.2-2.4,0.2-3.5
						C43.6,192.3,42.9,192.4,42.8,192.7L42.8,192.7z"/>
				</g>
			</g>
			<g>
				<g>
					<path class="st8" d="M37.3,155.2c3.4,8.4,6.9,16.9,8.6,25.9c0.8,4.3,1.2,8.7,0.8,13.1c-0.4,4.5-1.7,8.8-2.3,13.3
						c-0.6,4.6-0.4,9.5,1.9,13.6c0.1,0.2,0.9-0.1,0.8-0.2c-4.3-8.1-0.9-16.8,0.3-25.2c1.2-8.8-0.9-17.7-3.6-26.1
						c-1.7-5-3.6-9.8-5.6-14.6C38,154.8,37.3,155.1,37.3,155.2L37.3,155.2z"/>
				</g>
			</g>
			<g>
				<g>
					<path class="st8" d="M34.8,185.9c3.1,7,2.9,14.7,3.9,22.1c0.5,3.7,1.4,7.3,3,10.7c1.5,3,3.5,5.8,5.5,8.6
						c2.5,3.3,4.8,6.8,6.4,10.7c0.1,0.2,0.9,0,0.8-0.2c-2.6-6.6-7.7-11.8-11.2-17.8c-3.7-6.8-4-14.2-4.8-21.8
						c-0.5-4.3-1.2-8.5-2.9-12.5C35.5,185.4,34.7,185.7,34.8,185.9L34.8,185.9z"/>
				</g>
			</g>
			<g>
				<g>
					<path class="st8" d="M55.7,161c-4.4,7.5-8.6,15.4-10.1,24.1c-0.8,4.7-0.4,9.4,0,14.1c0.5,4.9,0.7,9.8-0.2,14.7
						c-0.9,4.8-2.5,9.4-5.3,13.5c-0.1,0.1,0.7,0.1,0.8-0.1c5-7.5,6.4-16.6,5.7-25.5c-0.4-5.1-1.1-10.1-0.5-15.2
						c0.5-4.4,1.8-8.7,3.5-12.7c1.9-4.5,4.3-8.8,6.8-13C56.7,160.7,55.9,160.8,55.7,161L55.7,161z"/>
				</g>
			</g>
			<g>
				<g>
					<path class="st9" d="M37.8,163.1c0.1,17.2-6.5,33.9-4.2,51.2c0.1,0.4,1.2,0.2,1.1-0.3c-2.3-17.2,4.3-33.8,4.2-51
						C38.8,162.5,37.8,162.7,37.8,163.1L37.8,163.1z"/>
				</g>
			</g>
			<g>
				<g>
					<path class="st7" d="M54.1,193.1c-2.8,7.1-8,12.9-10.5,20.2c-2.5,7.4-2.8,15.6-1.6,23.2c0,0.2,0.9,0,0.8-0.2
						c-1.4-7.8-1-16.1,1.7-23.5c2.5-7.1,7.5-12.8,10.4-19.8C55,192.8,54.2,192.9,54.1,193.1L54.1,193.1z"/>
				</g>
			</g>
			<g>
				<g>
					<path class="st8" d="M43.6,160.1c-0.8,3.1-2.5,5.8-2.7,9.1c-0.1,2.4,0.5,5.9-1.6,7.6c-0.5,0.4,0.6,0.5,0.9,0.2
						c2.1-1.8,1.7-5,1.8-7.4c0.1-1.7,0.4-3.1,1-4.7c0.6-1.7,1.4-3.2,1.9-4.9C44.8,159.6,43.7,159.8,43.6,160.1L43.6,160.1z"/>
				</g>
			</g>
			<g>
				<g>
					<path class="st8" d="M32.5,148.1c0,1.4,0.2,2.6,0.7,3.9c0.4,1.1,1.1,2.1,1.5,3.2c0.5,1.5,0.3,2.6-0.1,4.1c-0.6,1.7-1,3.3-1.3,5
						c-0.7,3.7-0.9,7.4-0.9,11.3c-0.1,3.9-0.2,7.8,0.3,11.8c0.5,3.9,1.8,7.9,4.5,10.8c0.4,0.4,1.4-0.1,1-0.5
						c-5.4-5.6-4.8-14.3-4.7-21.5c0.1-3.7,0.2-7.5,0.8-11.3c0.3-1.9,0.8-3.6,1.4-5.4c0.4-1.1,0.7-2.2,0.5-3.3
						c-0.2-1.3-0.8-2.4-1.4-3.4c-0.7-1.5-1.1-2.9-1.1-4.6C33.5,147.5,32.5,147.6,32.5,148.1L32.5,148.1z"/>
				</g>
			</g>
			<g>
				<g>
					<path class="st7" d="M42.3,159c0.2,2.4-0.3,4.7-0.1,7.2c0.2,2.5,0.9,4.8,1.5,7.2c0.1,0.2,1.2-0.1,1.1-0.3
						c-0.6-2.4-1.3-4.7-1.5-7.2c-0.2-2.4,0.3-4.7,0.1-7.2C43.3,158.7,42.3,158.8,42.3,159L42.3,159z"/>
				</g>
			</g>
			<g>
				<g>
					<path class="st8" d="M37.2,184.6c0.3,6.6-0.4,13.2-2.1,19.6c-0.1,0.2,0.8,0.1,0.8-0.1c1.8-6.4,2.4-13,2.1-19.7
						C38,184.2,37.2,184.4,37.2,184.6L37.2,184.6z"/>
				</g>
			</g>
			<g>
				<g>
					<path class="st7" d="M43.6,181.9c-0.5,6.3-0.6,12.5-0.2,18.8c0.2,2.9,0.5,5.9,0.6,8.8c0.1,2.6,0,5.6-1.6,7.7
						c-0.2,0.3,0.6,0.3,0.8,0c1.5-2.1,1.7-4.5,1.7-7c0-2.8-0.4-5.6-0.6-8.4c-0.4-6.7-0.4-13.4,0.2-20.1
						C44.4,181.5,43.6,181.7,43.6,181.9L43.6,181.9z"/>
				</g>
			</g>
			<g>
				<g>
					<path class="st8" d="M28.8,197.8c5.8-11.4,9.7-23.6,11.9-36.2c0-0.1-0.8,0-0.8,0.2c-2.2,12.6-6.1,24.8-11.9,36.2
						C28.1,198,28.7,198,28.8,197.8L28.8,197.8z"/>
				</g>
			</g>
			<g>
				<g>
					<path class="st8" d="M27.7,150.2c1.9,8.3,5.3,16.3,8,24.4c2.5,7.6,4.5,15.7,3.1,23.7c0,0.1,1,0,1.1-0.3
						c1.4-8-0.6-16.1-3.1-23.7c-2.7-8.1-6.1-16-8-24.4C28.7,149.7,27.7,150,27.7,150.2L27.7,150.2z"/>
				</g>
			</g>
			<g>
				<g>
					<path class="st8" d="M42.4,145.3c1.4,7.5,5.5,14.2,7.5,21.6c1.1,3.7,1.4,7.5,0.8,11.4c-0.3,1.8-0.8,3.7-2.1,5
						c-1,1-2.3,1.9-1.8,3.4c0.1,0.3,1.2,0,1.1-0.3c-0.6-1.9,1.9-2.9,2.6-4.4c0.8-1.4,1.2-3,1.3-4.7c0.4-3.6,0.1-7.3-0.9-10.8
						c-2.1-7.3-6.2-13.9-7.5-21.6C43.3,144.7,42.3,145,42.4,145.3L42.4,145.3z"/>
				</g>
			</g>
			<g>
				<g>
					<path class="st8" d="M35.1,209.1c2.1,5.3,4,10.6,6.1,15.9c0.9,2.4,2.3,5,1.7,7.6c-0.5,2.2-1.9,4-2.1,6.3c0,0.3,0.8,0.1,0.8-0.1
						c0.2-2.3,1.6-4.1,2.1-6.3c0.6-2.5-0.6-5-1.5-7.4c-2.1-5.5-4.1-10.9-6.3-16.4C35.8,208.6,35,208.8,35.1,209.1L35.1,209.1z"/>
				</g>
			</g>
			<g>
				<g>
					<path class="st8" d="M36.4,191.6c1.9,5.5,3.7,11.1,5.6,16.6c0.9,2.6,1.8,5.3,2.6,8c0.7,2.1,1.7,5.1,0.2,7.1
						c-0.3,0.4,0.5,0.5,0.7,0.2c1.3-1.7,1-3.8,0.5-5.7c-0.7-2.8-1.9-5.7-2.7-8.4c-2-6-4-12-6-17.9C37.1,191,36.3,191.2,36.4,191.6
						L36.4,191.6z"/>
				</g>
			</g>
			<g>
				<g>
					<path class="st8" d="M27.3,158.9c3.5,6.8,5.4,14.3,5.6,21.9c0.1,3.8-0.3,7.6-1.3,11.3c-0.4,1.7-1,3.2-1.6,4.8
						c-0.7,1.8-1.6,3.3-1.4,5.3c0.2,2.4,1.1,4.9,1.7,7.3c0.7,2.5,1.4,5.2,2.1,7.7c0.1,0.2,0.9,0,0.8-0.2c-1.2-4.4-2.4-8.8-3.4-13.3
						c-0.3-1.1-0.4-2.2-0.2-3.3c0.2-1,0.7-2,1.1-2.8c0.7-1.6,1.3-3.1,1.7-4.8c2-7.1,1.9-14.6,0.4-21.8c-0.9-4.2-2.5-8.3-4.4-12.2
						C28,158.6,27.2,158.8,27.3,158.9L27.3,158.9z"/>
				</g>
			</g>
			<g>
				<g>
					<path class="st7" d="M42.9,184.2c0.1,0.8,0.2,1.7,0.2,2.4c0,0.8-0.2,1.6-0.4,2.4c-0.4,1.3-1.1,2.7-0.3,4
						c0.1,0.2,0.9-0.1,0.8-0.2c-0.8-1.4-0.1-2.8,0.4-4.2c0.5-1.5,0.4-3,0.1-4.6C43.6,183.8,42.9,184,42.9,184.2L42.9,184.2z"/>
				</g>
			</g>
			<g>
				<g>
					<path class="st7" d="M31.5,154.1c0.3,0,0.9-0.4,0.3-0.4C31.5,153.8,30.9,154.1,31.5,154.1L31.5,154.1z"/>
				</g>
			</g>
			<g>
				<g>
					<path class="st8" d="M47,202.6c1.1,4.7,0.4,10.3-3.1,13.8c-0.4,0.4,0.5,0.4,0.7,0.2c3.7-3.6,4.4-9.4,3.3-14.2
						C47.7,202,46.9,202.2,47,202.6L47,202.6z"/>
				</g>
			</g>
			<g>
				<g>
					<path class="st8" d="M29.1,201.1c3.6,9.4,6.6,19,8.9,28.9c0,0.2,0.9-0.1,0.8-0.2c-2.4-9.8-5.3-19.5-8.9-28.9
						C29.9,200.7,29,200.9,29.1,201.1L29.1,201.1z"/>
				</g>
			</g>
			<g>
				<g>
					<path class="st8" d="M30.4,207.4c3.1,5.5,5.9,11.2,8.2,17.1c1.2,2.8,2.2,5.8,3.1,8.7c0.5,1.5,0.9,2.8,1.4,4.3
						c0.2,0.8,0.4,2.1,1.4,2.3c0.3,0.1,1-0.4,0.5-0.5c-0.7-0.2-0.9-1.5-1-2.1c-0.2-0.7-0.4-1.5-0.7-2.2c-0.5-1.5-0.9-2.8-1.4-4.3
						c-1-2.7-2-5.5-3.1-8.2c-2.3-5.3-4.8-10.5-7.6-15.5C31,206.8,30.2,207.1,30.4,207.4L30.4,207.4z"/>
				</g>
			</g>
			<g>
				<g>
					<path class="st8" d="M43.4,205.3c-5.1,0.4-8.2,4.7-10,9.1c-2,5.1-3.8,11.7-1.5,17c0.1,0.2,0.9-0.1,0.8-0.2
						c-2.1-4.6-0.8-9.8,0.7-14.4c1.4-4.6,4.1-10.7,9.7-11.1C43.3,205.7,44,205.3,43.4,205.3L43.4,205.3z"/>
				</g>
			</g>
			<g>
				<g>
					<path class="st8" d="M42.9,214.8c-0.8,4.2-1,8.5-0.7,12.8c0.3,4.1,1.7,8.5,0.1,12.5c-0.2,0.4,0.7,0.4,0.8,0.1
						c1.5-3.6,0.5-7.6,0.1-11.4c-0.5-4.7-0.4-9.4,0.6-14.1C43.8,214.3,43,214.5,42.9,214.8L42.9,214.8z"/>
				</g>
			</g>
			<g>
				<g>
					<path class="st7" d="M31.9,176.5c2.8,7.9,5.8,16,6.7,24.3c0.9,8.3-1.5,16.9,0.5,25.1c0.1,0.4,0.9,0.1,0.8-0.2
						c-2.1-8.2,0.4-16.8-0.5-25.1c-0.9-8.4-3.8-16.5-6.7-24.3C32.6,175.9,31.8,176.1,31.9,176.5L31.9,176.5z"/>
				</g>
			</g>
		</g>
		<g>
			<g>
				<path class="st8" d="M38.5,162.2c0.4,2.1,1.2,4.1,2.5,5.8c0.7,0.9,1.6,1.7,2.5,2.4c1.2,0.9,1.2,1.9,1.3,3.2
					c0.1,1.5,0,2.9-0.3,4.3c-0.2,1.3-0.6,2.6-0.7,3.9c-0.1,2.4,1.2,4.1,2.6,5.8c0.1,0.2,0.9-0.1,0.8-0.3c-1.9-2.2-2.9-4-2.5-7
					c0.5-2.5,0.9-5,0.8-7.5c-0.1-1-0.1-1.9-0.9-2.5c-0.8-0.7-1.7-1.3-2.4-2.1c-1.6-1.8-2.6-3.9-3-6.3
					C39.3,161.7,38.5,161.9,38.5,162.2L38.5,162.2z"/>
			</g>
		</g>
		<g>
			<g>
				<path class="st8" d="M38.3,180.2c0.4,0,1.2-0.6,0.4-0.6C38.4,179.6,37.7,180.2,38.3,180.2L38.3,180.2z"/>
			</g>
		</g>
		<g>
			<g>
				<path class="st8" d="M36.7,181.8c0.4,0,1.2-0.5,0.4-0.5C36.8,181.3,36,181.8,36.7,181.8L36.7,181.8z"/>
			</g>
		</g>
		<g>
			<g>
				<path class="st8" d="M38.1,198.1c-0.9-4.4-1.9-8.8-2.7-13.2c-0.2-0.8-0.4-1.7,0.2-2.3c0.3-0.4,0.7-0.5,1.1-0.6
					c0.5-0.2,1.1-0.4,1.5-0.9c1-1.1,0.6-2.7,0.1-3.9c-1.1-3-3.5-5.3-5-8c-1-1.8-1.2-3.5-1.5-5.4c-0.3-1.9-1-3.5-2.1-5
					c-0.7-1-1.3-2.3-2.6-2.1c-0.6,0.1-1.1,0.3-1.7,0.4c-0.3,0.1-0.6,0.2-0.9,0.3c-0.1,0-0.2,0.1-0.3,0.1c-0.3,0.1-0.4,0-0.2-0.3
					c-0.1-0.4,0.1-0.6,0.5-0.7c0.5-0.2,0.1-0.7-0.4-0.5c-0.6,0.2-1.7,1.5-0.8,2.1c0.6,0.4,1.9-0.2,2.5-0.4c0.4-0.1,1.2-0.5,1.6-0.4
					c0.4,0.1,0.8,0.8,1.1,1.1c0.4,0.5,0.8,1,1.1,1.5c1.3,2,1.4,3.9,1.8,6.2c0.6,3.5,3,6.1,4.9,9c0.9,1.4,2.1,3.5,1.7,5.2
					c-0.4,1.8-3,1.3-3.4,3c-0.2,1,0.2,2.2,0.4,3c0.3,1.4,0.6,2.6,0.9,4c0.6,2.6,1.1,5.4,1.7,8C37.4,198.7,38.2,198.5,38.1,198.1
					L38.1,198.1z"/>
			</g>
		</g>
		<g>
			<g>
				<path class="st8" d="M29.8,202.9c-0.7-4.4-1.4-8.7-2.1-13.1c-0.1-0.5-0.1-1-0.2-1.5c-0.1-0.5-0.4-1.3-0.3-1.7
					c0.3-1,1.1-0.4,1.8-0.5c1-0.1,1.9-0.7,2.4-1.6c0.8-1.5,0.1-3.3-0.5-4.8c-0.7-1.7-1.6-3.2-2.6-4.6c-1.1-1.4-3-2.7-2.8-4.7
					c0.1-1.6,1.1-2.8,0.9-4.5c-0.5-3.4-4.1-5.9-6.4-8.1c-0.2-0.2-1,0.1-0.8,0.3c2.2,2.2,5.2,4.3,6.2,7.4c0.5,1.7-0.2,2.9-0.6,4.6
					c-0.4,1.7,0.5,2.7,1.6,3.9c1.3,1.4,2.4,2.9,3.2,4.6c0.8,1.6,1.8,3.7,1.4,5.6c-0.3,1.4-1.4,1.7-2.6,1.5c-0.3-0.1-0.7-0.1-1,0
					c-1.4,0.4-0.7,2.3-0.5,3.2c0.7,4.8,1.5,9.5,2.2,14.3C29,203.3,29.9,203.2,29.8,202.9L29.8,202.9z"/>
			</g>
		</g>
		<g>
			<g>
				<path class="st8" d="M52.4,148.5c0.1,1.1,0.3,2.3,1.3,2.9c0.6,0.3,1.2,0.4,1.5,1.1s0.3,1.5,0.4,2.3c0.5,3.3,0.9,6.6,1.4,9.9
					c0.1,0.4,1.2,0.2,1.1-0.3c-0.5-3.3-0.9-6.6-1.4-9.9c-0.2-1.2-0.1-2.5-1.3-3.2c-0.6-0.4-1.3-0.5-1.6-1.3
					c-0.3-0.6-0.3-1.2-0.3-1.8C53.3,147.8,52.3,148,52.4,148.5L52.4,148.5z"/>
			</g>
		</g>
		<g>
			<g>
				<path class="st8" d="M62.5,203.4c0.4,0,1.2-0.6,0.4-0.6C62.5,202.9,61.9,203.4,62.5,203.4L62.5,203.4z"/>
			</g>
		</g>
		<g>
			<g>
				<path class="st8" d="M61.8,163.4c-1.3-5.9-5.1-11.2-5.4-17.2c-0.2,0.1-0.5,0.2-0.7,0.3c1.7,1,3.4,1.8,5.2,2.6
					c1.7,0.9,3.5,1.9,4.8,3.3c0.2,0.3,1,0,0.8-0.3c-1.2-1.5-3-2.4-4.7-3.3c-1.8-1-3.6-1.8-5.4-2.8c-0.2-0.1-0.8,0-0.7,0.3
					c0.3,6.2,4.1,11.4,5.4,17.2C61.1,163.9,61.9,163.7,61.8,163.4L61.8,163.4z"/>
			</g>
		</g>
		<g>
			<g>
				<path class="st8" d="M36.4,225.2c-0.5-14,1.5-28,1-42c0-0.5-1.1-0.3-1.1,0.1c0.4,14-1.5,28-1,42
					C35.3,225.9,36.4,225.6,36.4,225.2L36.4,225.2z"/>
			</g>
		</g>
		<g>
			<g>
				<path class="st8" d="M46.6,183.3c0.4,0,1.1-0.7,0.4-0.7C46.6,182.6,45.9,183.3,46.6,183.3L46.6,183.3z"/>
			</g>
		</g>
		<path class="st14" d="M17.8,203.2L69,227.6c-0.2-0.4,52.7-27.1,52.7-27.1l-48.3-25.8L17.8,203.2z"/>
		<path class="st12" d="M128.6,188.6l-56.9,26.8L76,220l59.4-28L128.6,188.6z"/>
		<g>
			<g>
				<g>
					<path class="st8" d="M55.4,140.3c0.7,7.4,4.1,14.3,8.5,20.3c3,4.2,6.7,8.2,10.8,11.5c0.5,0.4,2,1.9,2.6,0.8
						c0.1-0.1-0.9-0.1-1.1,0.2c0.8-1.4,1.2,0.1,0.7-0.4c-0.1-0.1-0.4-0.2-0.5-0.3c-0.6-0.4-1.1-0.8-1.6-1.3
						c-1.7-1.4-3.2-2.9-4.7-4.5c-4.3-4.5-8-9.7-10.6-15.4c-1.6-3.5-2.7-7.3-3-11.2C56.5,139.8,55.4,140,55.4,140.3L55.4,140.3z"/>
				</g>
			</g>
		</g>
		<g>
			<g>
				<path class="st8" d="M29.6,189.7c-0.6,2.9,0.1,6.2,0.8,9c0.8,3.5,1.7,7,2.4,10.5c0.6,2.9,0.7,5.6,0.3,8.5c-0.4,3.3-1,6.7-1,10.1
					c0,2.7,0.3,6.1,2.8,7.6c0.3,0.2,1.3-0.3,0.9-0.6c-2.4-1.5-2.6-4.8-2.6-7.4c0-3.2,0.6-6.5,1-9.6c0.3-2.6,0.4-5.2-0.1-7.8
					c-0.6-3.3-1.5-6.7-2.3-10c-0.8-3.3-1.8-7.1-1.1-10.5C30.8,189.1,29.7,189.3,29.6,189.7L29.6,189.7z"/>
			</g>
		</g>
		<polygon class="st15" points="8.6,187.9 8.2,244.4 76.3,277.4 76.8,220.2 		"/>
		<polygon class="st6" points="18,203.3 18,244.4 69.1,269 69.3,227.4 		"/>
		<g>
			<g>
				<path class="st8" d="M40.6,183.1c0.3,0.9,0.6,1.9,0.1,2.6c-0.1,0.2,0.1,0.3,0.3,0.3c0.2,0,0.6-0.1,0.7-0.3c0.5-1,0.3-2.1,0-3
					c-0.1-0.2-0.5-0.2-0.6-0.1C41,182.8,40.6,182.9,40.6,183.1L40.6,183.1z"/>
			</g>
		</g>
		<g>
			<g>
				<path class="st8" d="M50.3,149.5v-0.2c0,0.1-0.4,0.2-0.4,0.2c0.7-0.2-0.4,0.2-0.4,0.1c0,0,0,0.1,0,0c0,0.1,0.3,0.3,0.4,0.4
					c0.4,0.6,0.8,1.3,1.1,1.9c1,1.8,1.8,3.6,2.5,5.5c0.3,0.8,0.7,1.7,0.9,2.4c0.1,0.4,1.2,0.1,1.1-0.3c-0.5-2-1.4-3.9-2.3-5.8
					c-0.5-1-1-2-1.5-2.9c-0.3-0.6-0.6-1.3-1.1-1.7c-0.3-0.2-0.6-0.3-1-0.1c-0.3,0.2-0.4,0.4-0.4,0.7
					C49.2,150.1,50.3,149.9,50.3,149.5L50.3,149.5z"/>
			</g>
		</g>
		<g>
			<g>
				<path class="st8" d="M33.1,164.4c1.9,10.5,3,21.1,3.3,31.7c0,0.2,1.1,0,1.1-0.3c-0.3-10.7-1.5-21.3-3.3-31.7
					C34.1,163.8,33.1,164.1,33.1,164.4L33.1,164.4z"/>
			</g>
		</g>
		<g>
			<g>
				<path class="st8" d="M11.5,157.3c0.6,0.4,1.5,0.4,2.2,0.5c1,0.1,2,0.1,2.8,0.3c0.9,0.1,1.7,0.5,2.4,0.8c1.2,0.4,2.4,0.8,3.3,1.5
					c1.2,0.8,1.5,1.8,1.8,3c0.4,1.5,0.8,3,1.3,4.5c1.1,2.9,2.5,5.8,4.2,8.4c0.2,0.3,1.3,0,1-0.4c-1.9-2.7-3.3-5.8-4.4-8.9
					c-0.6-1.6-0.9-3.2-1.3-4.8c-0.2-1-0.8-1.7-1.6-2.3c-0.9-0.7-2-1.1-3-1.5c-0.9-0.3-1.9-0.8-2.7-1s-1.8-0.2-2.6-0.3
					c-0.8-0.1-1.9,0-2.5-0.4C12,156.6,11,157,11.5,157.3L11.5,157.3z"/>
			</g>
		</g>
		<polygon class="st5" points="82.5,217.2 14.3,185.2 8.4,188 76.1,220.1 		"/>
		<path class="st13" d="M76.2,220c0.2,0.5,64.9-30.9,64.9-30.9l-0.2,55.9l-64.5,32.3L76.2,220z"/>
	</g>
</g>
<g>
	<g>
		<g>
			<path class="st8" d="M40.6,17c6.3,1.7,12.7,3.1,19,5.1c1.3,0.4,2.7,1,3.8,2c0.9,0.8,1.7,1.9,2.5,2.8c0.8,1,1.5,2,2.5,2.8
				c0.8,0.7,2.4,1.3,2.1,2.6c-0.1,0.4,1,0.2,1.1-0.2c0.3-1.1-0.7-1.8-1.4-2.4c-1-0.8-1.9-1.5-2.6-2.6c-0.8-1.1-1.6-2.2-2.5-3.2
				c-0.9-0.9-2.1-1.6-3.4-2.1c-3.1-1.2-6.5-1.8-9.6-2.6c-3.5-0.9-6.8-1.9-10.3-2.7C41.2,16.5,40.2,16.9,40.6,17L40.6,17z"/>
		</g>
	</g>
	<g>
		<g>
			<g>
				<path class="st8" d="M39.3,23.2c6.3-1.4,12.6,0.8,18.5,3.3s11.6,5.4,17.4,8c0.3,0.2,1.1-0.4,1-0.4c-6.2-2.9-12.5-6-18.8-8.7
					c-5.7-2.3-11.7-4-17.8-2.6C39.1,22.9,38.5,23.4,39.3,23.2L39.3,23.2z"/>
			</g>
		</g>
		<g>
			<g>
				<path class="st8" d="M27.7,23.6c2.2-2.3,5.4-2.7,8.4-2.9c3.2-0.4,6.8-0.7,9.2,1.7c2,1.8,3,4.4,5.2,6c2.1,1.8,5,2.1,7.6,1.6
					c1.7-0.4,3-1.2,4.5-1.9c2.3-1,4.1,0.2,5.9,1.6c0.4,0.4,1.3-0.3,0.8-0.6c-1.2-1-2.5-2-4.2-2.2c-1.5-0.2-2.8,0.6-4.3,1.2
					c-3.2,1.6-7.3,1.9-10-0.8c-2.1-2-3.3-5.1-5.9-6.6c-2.8-1.6-6.2-1.2-9.3-0.8c-3.2,0.4-6.6,1-9,3.4C26.2,23.7,27.3,24,27.7,23.6
					L27.7,23.6z"/>
			</g>
		</g>
		<g>
			<g>
				<path class="st8" d="M42.5,15.1c-0.1,2-0.2,3.8-0.2,5.8c0,1.7-0.2,3.6,0.2,5.2c0.2,1.2,1.1,1.6,2.2,1.7c1.7,0.2,3.6,0.1,5.2-0.1
					s3.5-0.5,5.1-0.9c0.8-0.2,1.7-0.4,2.5-0.7c0.7-0.2,1.6-0.6,2.2,0.1c0.3,0.3,0.4,0.8,0.6,1.1c0.7,1.6,1.2,3.4,2.1,4.9
					c0.6,0.9,1.2,1.4,2.4,1.2c0.7-0.2,0.5-0.7-0.2-0.6c-1.1,0.3-2.2-3.3-2.5-4c-0.4-1-0.8-2.7-1.8-3.3c-0.9-0.6-2.1-0.2-3.1,0.1
					c-1.7,0.5-3.4,0.9-5.2,1.2c-1.7,0.3-3.4,0.4-5.1,0.4c-0.8,0-1.7,0.1-2.5-0.2c-0.9-0.3-1.2-0.9-1.2-1.8c-0.3-3.4-0.2-6.8,0-10.2
					C43.6,14.6,42.5,14.9,42.5,15.1L42.5,15.1z"/>
			</g>
		</g>
		<g>
			<g>
				<path class="st8" d="M23.4,20.1c2.6-3.4,6.9-0.3,9.2,1.5c2.7,2,5.7,3.6,8.7,5c1.6,0.7,3.2,1.3,4.9,1.9c1.2,0.4,2.6,1,3.9,0.6
					c1.1-0.3,1.6-1.1,2.1-2c0.8-1.5,1.9-2.6,3.6-2.8c3.8-0.5,6.8,2.6,8.9,5.3c0.2,0.3,1.2-0.1,1-0.4c-2-2.6-4.4-5.1-7.6-5.5
					c-2.5-0.3-5.3,0.6-6.6,2.8c-0.5,0.9-0.8,2.1-2.1,2c-1-0.1-2.1-0.6-3-0.9c-1.9-0.6-3.6-1.3-5.4-2.2c-1.9-0.9-3.7-2-5.5-3.1
					c-1.5-1-2.8-2.1-4.4-2.9c-2.6-1.5-6.6-2-8.6,0.8C22.2,20.5,23.2,20.4,23.4,20.1L23.4,20.1z"/>
			</g>
		</g>
		<g>
			<g>
				<path class="st8" d="M46,15c-0.5,3.1,1,6.8-1,9.6c-1,1.3-2.8,1.1-4.3,2.1c-0.9,0.7-1.2,1.7-0.5,2.6c0.8,1.1,2.4,2,3.6,2.6
					c1.4,0.9,2.8,1.6,4.3,2.4c2.9,1.5,6,2.9,8.6,5.2c0.3,0.3,1.2-0.2,1-0.4c-2.4-2-5.1-3.4-7.7-4.7c-2.8-1.4-6-2.8-8.2-4.9
					c-0.8-0.8-1.1-1.9,0-2.6c0.6-0.4,1.3-0.4,2-0.7c1.2-0.4,2.1-1.2,2.6-2.3c1.4-2.8,0.2-6,0.7-9.1C47.1,14.4,46.1,14.6,46,15L46,15
					z"/>
			</g>
		</g>
		<g>
			<g>
				<path class="st8" d="M36.1,21c7.1,2.2,14.3,4.3,21.1,6.8c6.8,2.6,12.6,6.4,18.3,10.8c0.4,0.3,1.3-0.2,1-0.4
					c-5.9-4.3-11.7-8.3-18.5-10.8c-6.9-2.6-14.2-4.6-21.4-6.8C36.5,20.3,35.5,20.8,36.1,21L36.1,21z"/>
			</g>
		</g>
		<g>
			<g>
				<path class="st8" d="M50.1,32.8c5.4,0.8,10.9-0.9,16.3,0.2c2.6,0.5,4.6,1.8,6.7,3.3c2,1.5,4.1,2.6,6.6,2.8c0.3,0,0.6,0,0.8-0.2
					c0.1,0,0.4-0.3,0.2-0.3c-2.8-0.2-4.9-1.5-7.1-3.2c-1.9-1.4-3.9-2.6-6.2-2.9c-5.4-1-10.9,0.6-16.3-0.2
					C50.8,32.4,49.9,32.8,50.1,32.8L50.1,32.8z"/>
			</g>
		</g>
		<g>
			<g>
				<path class="st8" d="M17.5,21.2c3.3,0.4,6.7-0.3,10,0c3.6,0.3,6.5,1.9,9.2,4.1c2.4,1.9,4.5,4,6.2,6.4c0.8,1.2,1.2,2.7,2.1,3.8
					c0.7,0.9,1.9,1,2.9,1c3.6-0.2,7.2-1.1,10.6-2.4c0.7-0.3,0.1-0.6-0.4-0.4c-2.1,0.8-4.3,1.4-6.5,1.8c-1,0.2-2,0.4-3.1,0.4
					c-1.2,0.1-2.2-0.2-2.8-1.3c-0.8-1.5-1.4-3-2.5-4.4s-2.5-2.8-3.9-4c-2.8-2.5-5.9-4.7-9.4-5.4c-4-0.7-7.9,0.2-12-0.2
					C17.5,20.5,16.8,21.2,17.5,21.2L17.5,21.2z"/>
			</g>
		</g>
		<g>
			<g>
				<path class="st8" d="M31.8,18.8c3.1,0.1,5.8,2,8.2,3.8c2.5,1.8,5.1,3.6,7.5,5.7c1.2,1,2.4,2,3.6,3c0.9,0.9,1.9,2.1,3,2.6
					c1,0.4,2.2-0.1,3.2-0.4c1.7-0.4,3.4-0.9,5.1-1.2c0.7-0.2,0.6-0.5-0.1-0.4c-1.5,0.4-3.1,0.8-4.6,1.1c-1,0.3-2.2,0.6-3.1,0.1
					c-0.5-0.4-1-0.8-1.4-1.2c-2.1-2-4.4-3.9-6.7-5.7c-2.3-1.8-4.5-3.5-6.9-5.1c-2.1-1.4-4.3-2.7-6.9-2.7
					C32.4,18.3,31.4,18.8,31.8,18.8L31.8,18.8z"/>
			</g>
		</g>
		<g>
			<g>
				<path class="st8" d="M19.4,25.3c7-0.6,14.4-1.2,21.1,1.2c3.5,1.3,6.2,3.7,9.3,5.8c2.8,2,6,3.2,9.3,2.5c0.7-0.2,0.5-0.8-0.2-0.7
					c-4,0.9-7.6-1.7-10.6-4c-2.8-2-5.6-3.9-9-4.8c-6.4-2-13.3-1.3-20-0.8C19,24.6,18.6,25.3,19.4,25.3L19.4,25.3z"/>
			</g>
		</g>
		<g>
			<g>
				<path class="st8" d="M47.8,37.1c5.9-0.8,11.3,2.8,17.1,3.1c5.9,0.3,10.8-3.8,16.4-4.3c0.6-0.1,0.9-0.7,0.2-0.7
					c-6,0.4-10.9,4.7-16.9,4.2c-5.8-0.5-10.9-3.8-16.8-3C47.4,36.5,47,37.2,47.8,37.1L47.8,37.1z"/>
			</g>
		</g>
		<g>
			<g>
				<path class="st8" d="M37.1,15.6c3.3,4.7,6.7,9.5,11.4,12.9c5.2,3.6,11.6,4,16.9,7.5c2.8,2,5.2,4.4,7,7.4c0.3,0.4,1.2,0,1-0.4
					c-3-5-7.7-8.5-13.2-10.4c-3.1-1-6.4-1.8-9.3-3.5c-2.6-1.5-4.7-3.6-6.7-5.8c-2.2-2.5-4.2-5.3-6-8.1
					C37.9,14.8,36.7,15.1,37.1,15.6L37.1,15.6z"/>
			</g>
		</g>
		<g>
			<g>
				<path class="st7" d="M7.1,19c5,4.6,12.2,5.4,18.1,8.3c6,2.8,11.3,7.2,17.1,10.7c3.1,1.9,6.4,3.4,10,4.3c0.3,0.1,1.2-0.4,0.9-0.4
					c-6.5-1.5-11.9-5.5-17.4-9.2c-2.8-1.9-5.6-3.7-8.5-5.2c-2.8-1.4-5.9-2.5-9-3.5c-3.6-1.2-7.3-2.6-10-5.3C7.9,18.5,7,18.9,7.1,19
					L7.1,19z"/>
			</g>
		</g>
		<g>
			<g>
				<path class="st7" d="M37.4,18.2c6.5-0.8,13.3,1.6,17.8,6.3c2.5,2.6,4.2,5.8,6.2,8.7c1.9,2.6,4.1,4.9,6.7,6.7
					c2.9,2,6.3,3.5,9.8,4.2c0.3,0.1,1.2-0.4,0.9-0.4c-7-1.3-12.8-5.6-16.8-11.4c-2-2.8-3.7-5.9-6-8.4c-2.2-2.3-5-4-7.9-5
					c-3.3-1.3-6.8-1.7-10.4-1.2C37.1,17.8,36.6,18.3,37.4,18.2L37.4,18.2z"/>
			</g>
		</g>
		<g>
			<g>
				<path class="st8" d="M13.3,20.1c2-0.2,4-0.4,6-0.1c2,0.4,3.6,1.2,5.1,2.8c1.2,1.2,2.2,2.5,3.7,3.2c1.4,0.7,3.3,1.2,3.8,2.8
					c0.1,0.4,1.2,0,1.1-0.3c-0.5-1.6-2.1-2.2-3.6-2.8c-0.9-0.4-1.8-0.9-2.5-1.6c-0.8-0.8-1.4-1.6-2.2-2.4c-2.9-2.8-7.3-2.4-11.1-2
					C13,19.7,12.6,20.2,13.3,20.1L13.3,20.1z"/>
			</g>
		</g>
		<g>
			<g>
				<path class="st8" d="M14,21.5c2.6,1.3,4.3,3.9,6.2,6c2.1,2.3,4.8,4,7.6,5.3s5.9,2.8,8.9,3.6c2.6,0.7,5.4,0.5,7.7-0.9
					c0.4-0.3-0.7-0.1-0.9,0c-3.1,1.9-7,0.4-10-1c-2.5-1-4.9-2.1-7.3-3.5s-4.4-3.1-6-5.2c-1.5-1.8-3-3.7-5.2-4.8
					C14.7,21,13.9,21.5,14,21.5L14,21.5z"/>
			</g>
		</g>
		<g>
			<g>
				<path class="st7" d="M11.5,22.2c1.8,0,3.6,0,5.4,0c1.7,0,3.6-0.3,5.2,0.2c1.5,0.4,2.7,1.3,4.3,1.9c1.5,0.4,3,0.6,4.5,0.7
					c0.4,0,1.2-0.6,0.4-0.7c-1.8-0.2-3.6-0.4-5.2-1c-1.3-0.6-2.5-1.4-3.9-1.6c-1.6-0.3-3.3-0.1-4.9-0.1c-1.8,0-3.6,0-5.4,0
					C11.5,21.6,10.8,22.2,11.5,22.2L11.5,22.2z"/>
			</g>
		</g>
		<g>
			<g>
				<path class="st8" d="M47.2,35.1c3.9,1.4,7.6,3.6,10.8,6.2c0.4,0.3,1.3-0.2,1-0.4c-3.3-2.8-7-5-11-6.4
					C47.6,34.3,46.6,34.9,47.2,35.1L47.2,35.1z"/>
			</g>
		</g>
		<g>
			<g>
				<path class="st9" d="M46.7,29.6c3.6,1.9,7.2,3.6,11,4.8c3,1.1,7.5,1.6,9.2,4.7c0.2,0.4,1.2-0.1,1.1-0.3
					c-1.7-2.9-5.4-3.6-8.4-4.4c-4.2-1.3-8.1-3.1-11.9-5.2C47.5,29,46.6,29.4,46.7,29.6L46.7,29.6z"/>
			</g>
		</g>
		<g>
			<g>
				<path class="st8" d="M54,44.5c-5.2-6.8-11.5-12.7-18.6-17.7c-0.4-0.3-1.3,0.3-0.9,0.6c7,4.8,13.2,10.8,18.4,17.5
					C53.3,45.3,54.2,44.9,54,44.5L54,44.5z"/>
			</g>
		</g>
		<g>
			<g>
				<path class="st8" d="M14.3,25.5c10.3,1.3,21.1,2.8,29.7,8.9c0.3,0.2,1.2-0.3,1-0.4c-8.8-6-19.5-7.6-29.9-9
					C14.9,25.1,14,25.4,14.3,25.5L14.3,25.5z"/>
			</g>
		</g>
		<g>
			<g>
				<path class="st8" d="M61.2,42.7c3.6-0.2,7.2-0.4,10.8-0.6c1.8-0.1,3.3-0.2,4.5,1.2c0.8,0.9,1.5,1.9,2.6,2.5
					c0.4,0.3,1.3-0.4,0.8-0.7c-1.2-0.7-1.9-1.9-2.8-2.8c-1.1-1-2.5-1.2-4.1-1.2c-4,0.2-7.8,0.4-11.8,0.6
					C60.6,42,60.5,42.8,61.2,42.7L61.2,42.7z"/>
			</g>
		</g>
		<g>
			<g>
				<path class="st8" d="M51.4,37.4c3.6,0,7.2,0,10.8,0c1.8,0,3.6-0.1,5.2,0c1.3,0.1,2.8,0.3,3.5,1.5c0.3,0.4,1.2,0,1-0.5
					c-0.6-1.1-1.8-1.6-3-1.8c-1.7-0.3-3.4-0.1-5.1-0.1c-4.2,0-8.2,0-12.4,0C50.9,36.6,50.6,37.4,51.4,37.4L51.4,37.4z"/>
			</g>
		</g>
		<g>
			<g>
				<path class="st8" d="M19.6,33.5c6-1.2,12.5,0.2,17.7,3.6c1.2,0.8,2.3,1.7,3.3,2.7s1.9,2.5,3.1,3.1c1.2,0.6,3,0.6,4.4,0.8
					c1.9,0.2,3.8,0.4,5.7,0.5c0.3,0,1.2-0.5,0.7-0.5c-2-0.2-4.1-0.4-6-0.5c-1.9-0.2-3.6-0.2-4.9-1.6c-2.1-2.3-4.2-4.3-6.8-5.9
					c-5.1-2.8-11.1-3.9-16.9-2.7C19.3,33.1,18.9,33.5,19.6,33.5L19.6,33.5z"/>
			</g>
		</g>
		<g>
			<g>
				<path class="st8" d="M59.4,32.2c3.2,0.4,6,2.7,7.3,5.8c0.1,0.3,1.2,0,1.1-0.3c-1.2-3.2-4.2-5.5-7.6-5.9c-0.3,0-0.6,0.1-0.8,0.2
					C59.1,32,59.1,32.2,59.4,32.2L59.4,32.2z"/>
			</g>
		</g>
		<g>
			<g>
				<path class="st8" d="M55.4,45.1c6-0.4,12.2-0.2,18.1,0.5c0.4,0.1,1.2-0.6,0.4-0.7c-6.1-0.7-12.4-0.9-18.5-0.5
					C55,44.4,54.7,45.1,55.4,45.1L55.4,45.1z"/>
			</g>
		</g>
		<g>
			<g>
				<path class="st8" d="M59.4,45.5c4.2-1,8.4-1.7,12.6-2c2-0.1,4.2-0.2,6.1-0.1c0.9,0,2.4,0.4,2.9-0.7c0.1-0.3-0.9-0.2-1.1,0.2
					c-0.1,0.2-2.3-0.1-2.5-0.1c-0.9,0-1.9,0-2.8,0c-1.7,0-3.3,0.2-5,0.3c-3.6,0.4-7,0.9-10.5,1.8C58.6,45.2,58.7,45.7,59.4,45.5
					L59.4,45.5z"/>
			</g>
		</g>
		<g>
			<g>
				<path class="st8" d="M60.1,35.7c-0.9,4.8,2.5,9.1,6,11.7c1.2,0.9,2.9,0.7,4.3,0.4c1.7-0.4,3.4-1.2,5.2-1.5
					c0.2,0,0.6-0.2,0.6-0.4s-0.3-0.4-0.5-0.4c-1.5,0.3-2.8,0.9-4.4,1.2c-1.2,0.5-2.9,1.1-4.3,0.2c-3.4-2.7-6.8-6.7-5.9-11.3
					C61.4,35.2,60.3,35.3,60.1,35.7L60.1,35.7z"/>
			</g>
		</g>
		<g>
			<g>
				<path class="st8" d="M65.6,38.2c2.3,1.7,4.8,2.8,7.6,3.7c2.4,0.8,5.2,1,6.9,2.8c0.3,0.3,1.2-0.1,1-0.4c-1.7-1.9-4.3-2.3-6.5-2.8
					c-2.8-0.8-5.7-2.1-8-3.9C66.2,37.4,65.2,38,65.6,38.2L65.6,38.2z"/>
			</g>
		</g>
	</g>
	<g>
		<g>
			<path class="st7" d="M60.2,22.4c4,0.4,8,0.9,12,1.2c2,0.3,4.1,0.4,6,1.2c1.6,0.7,2.9,1.7,4.3,2.7c4.5,3.8,9.6,10,16.3,7.7
				c0.7-0.2,0.5-0.9-0.2-0.7c-3.4,1.1-6.8-0.6-9.5-2.6c-2.6-2-4.7-4.4-7.4-6.3c-2.8-2-6-2.6-9.3-2.8c-4-0.4-7.8-0.8-11.8-1.2
				C60.1,21.6,59.6,22.3,60.2,22.4L60.2,22.4z"/>
		</g>
	</g>
	<g>
		<g>
			<path class="st8" d="M65.3,28.6c6.3-1.4,12.6,0.8,18.5,3.3s11.6,5.4,17.4,8c0.3,0.2,1.1-0.4,1-0.4c-6.2-2.9-12.5-6-18.8-8.7
				c-5.7-2.4-11.7-4.1-17.8-2.7C65.2,28.5,64.5,28.8,65.3,28.6L65.3,28.6z"/>
		</g>
	</g>
	<g>
		<g>
			<path class="st8" d="M53.6,29.1c2.2-2.3,5.4-2.7,8.4-2.9c3.2-0.4,6.8-0.7,9.2,1.7c2,1.8,3,4.4,5.2,6c2.1,1.8,5,2.1,7.6,1.6
				c1.7-0.4,3-1.2,4.5-1.9c2.3-1,4.1,0.2,5.9,1.6c0.4,0.4,1.3-0.3,0.8-0.6c-1.2-1-2.5-2-4.2-2.2c-1.5-0.2-2.8,0.6-4.3,1.2
				c-3.2,1.6-7.3,1.9-10-0.9c-2.1-2-3.3-5.1-6-6.6c-2.8-1.6-6.2-1.2-9.2-0.8c-3.2,0.4-6.6,1-9,3.4C52.3,29.3,53.3,29.5,53.6,29.1
				L53.6,29.1z"/>
		</g>
	</g>
	<g>
		<g>
			<path class="st8" d="M68.5,20.7c-0.1,2-0.2,3.8-0.2,5.8c0,1.7-0.2,3.6,0.2,5.2c0.2,1.2,1.1,1.6,2.2,1.7c1.7,0.2,3.6,0.1,5.2-0.1
				c1.7-0.2,3.5-0.5,5.1-0.9c0.8-0.2,1.7-0.4,2.5-0.7c0.7-0.2,1.6-0.6,2.2,0.1c0.3,0.3,0.4,0.8,0.6,1.1c0.6,1.6,1.2,3.4,2,4.9
				c0.6,0.9,1.2,1.4,2.4,1.2c0.7-0.2,0.5-0.7-0.2-0.6c-1.1,0.3-2.2-3.3-2.5-4c-0.4-1-0.8-2.7-1.8-3.3c-0.9-0.6-2.1-0.2-3.1,0.1
				c-1.7,0.5-3.4,0.9-5.2,1.2c-1.7,0.3-3.4,0.4-5.1,0.4c-0.8,0-1.7,0.1-2.5-0.2c-0.9-0.3-1.2-0.9-1.2-1.8c-0.3-3.5-0.1-6.9,0.1-10.4
				C69.6,20.1,68.5,20.3,68.5,20.7L68.5,20.7z"/>
		</g>
	</g>
	<g>
		<g>
			<path class="st8" d="M79.5,33.3c-0.5,3.1,1,6.8-1,9.6c-1,1.3-2.8,1.1-4.3,2.1c-0.9,0.7-1.2,1.7-0.5,2.6c0.8,1.1,2.4,2,3.6,2.6
				c1.4,0.8,2.8,1.6,4.3,2.4c2.9,1.5,6,2.9,8.6,5.2c0.3,0.3,1.2-0.2,1-0.4c-2.4-2-5.1-3.4-7.7-4.7c-2.8-1.4-6-2.8-8.2-4.9
				c-0.8-0.8-1.1-1.9,0-2.5c0.6-0.4,1.3-0.4,2-0.7c1.2-0.4,2.1-1.2,2.6-2.3c1.4-2.8,0.2-6,0.7-9.1C80.6,32.8,79.6,33,79.5,33.3
				L79.5,33.3z"/>
		</g>
	</g>
	<g>
		<g>
			<path class="st8" d="M62.1,26.5c7.1,2.2,14.3,4.3,21.1,6.8c6.8,2.6,12.6,6.4,18.3,10.8c0.4,0.3,1.3-0.2,1-0.4
				c-5.9-4.3-11.7-8.3-18.5-10.8c-7-2.6-14.3-4.6-21.4-6.8C62.4,25.8,61.5,26.3,62.1,26.5L62.1,26.5z"/>
		</g>
	</g>
	<g>
		<g>
			<path class="st8" d="M51,39.6c3.3,0.4,6.7-0.3,10,0c3.6,0.3,6.5,1.9,9.3,4.1c2.4,1.9,4.5,4,6.2,6.4c0.8,1.2,1.2,2.7,2.1,3.8
				c0.7,0.9,1.9,1,2.9,1c3.6-0.2,7.2-1.1,10.6-2.4c0.7-0.3,0.1-0.6-0.4-0.4c-2.1,0.8-4.3,1.4-6.5,1.8c-1,0.2-2,0.4-3.1,0.4
				c-1.2,0.1-2.2-0.2-2.8-1.3c-0.8-1.5-1.4-3-2.5-4.4s-2.5-2.8-3.9-4c-2.8-2.5-5.9-4.7-9.4-5.4c-4-0.7-7.9,0.2-12-0.2
				C51,38.9,50.2,39.5,51,39.6L51,39.6z"/>
		</g>
	</g>
	<g>
		<g>
			<path class="st8" d="M65.3,37.2c3.1,0.1,5.8,2,8.2,3.8c2.5,1.8,5.1,3.6,7.5,5.7c1.2,1,2.4,2,3.6,3c0.9,0.8,1.9,2.1,3,2.5
				c1,0.4,2.2-0.1,3.2-0.4c1.7-0.4,3.4-0.9,5.1-1.2c0.7-0.2,0.6-0.5-0.1-0.4c-1.5,0.4-3.1,0.8-4.6,1.1c-1,0.3-2.2,0.6-3.1,0.1
				c-0.5-0.4-1-0.9-1.4-1.2c-2.1-2-4.4-3.9-6.7-5.7s-4.5-3.5-6.9-5.1c-2.1-1.4-4.3-2.7-6.9-2.7C65.9,36.7,64.9,37.2,65.3,37.2
				L65.3,37.2z"/>
		</g>
	</g>
	<g>
		<g>
			<path class="st8" d="M52.9,43.6c7-0.6,14.4-1.2,21.1,1.2c3.5,1.3,6.2,3.7,9.2,5.8c2.8,1.9,6,3.2,9.4,2.5c0.7-0.2,0.5-0.8-0.2-0.7
				c-4,0.9-7.6-1.7-10.6-4c-2.8-2-5.6-3.9-9-4.8c-6.4-2-13.3-1.3-20-0.8C52.5,43,52.1,43.6,52.9,43.6L52.9,43.6z"/>
		</g>
	</g>
	<g>
		<g>
			<path class="st7" d="M40.6,37.4c5,4.6,12.2,5.4,18.1,8.3c6,2.8,11.3,7.2,17.1,10.7c3.1,1.9,6.4,3.4,10,4.3
				c0.3,0.1,1.2-0.4,0.9-0.4c-6.5-1.6-12-5.6-17.5-9.2c-2.8-1.9-5.6-3.7-8.5-5.2c-2.8-1.4-6-2.5-9-3.5c-3.6-1.2-7.3-2.6-10-5.3
				C41.5,36.9,40.5,37.3,40.6,37.4L40.6,37.4z"/>
		</g>
	</g>
	<g>
		<g>
			<path class="st7" d="M63.5,23.7c6.5-0.8,13.3,1.6,17.8,6.3c2.5,2.6,4.2,5.8,6.2,8.7c1.9,2.6,4.1,4.9,6.7,6.7
				c2.9,2,6.3,3.5,9.8,4.2c0.3,0.1,1.2-0.4,0.9-0.4c-7-1.4-12.8-5.6-16.8-11.4c-2-2.8-3.7-5.9-6-8.4c-2.2-2.3-5-4-7.9-5
				c-3.3-1.2-6.9-1.5-10.4-1.1C63.1,23.4,62.6,23.8,63.5,23.7L63.5,23.7z"/>
		</g>
	</g>
	<g>
		<g>
			<path class="st8" d="M73.4,25.6c2-0.2,4-0.4,6-0.1c2,0.4,3.6,1.2,5.1,2.8c1.2,1.2,2.2,2.5,3.7,3.2c1.4,0.7,3.3,1.2,3.8,2.8
				c0.1,0.4,1.2,0,1.1-0.3c-0.5-1.6-2.1-2.2-3.6-2.8c-0.9-0.4-1.8-0.9-2.5-1.6c-0.8-0.8-1.4-1.6-2.2-2.4c-3-2.8-7.5-2.6-11.2-2.1
				C73.1,25.2,72.6,25.7,73.4,25.6L73.4,25.6z"/>
		</g>
	</g>
	<g>
		<g>
			<path class="st8" d="M47.5,39.9c2.6,1.3,4.3,3.9,6.2,6c2.1,2.3,4.8,4,7.6,5.3s5.9,2.8,8.9,3.6c2.6,0.7,5.4,0.5,7.7-0.9
				c0.4-0.3-0.7-0.1-0.9,0c-3.1,1.9-7,0.4-10-1c-2.5-1-4.9-2.1-7.3-3.5s-4.4-3.1-6-5.2c-1.5-1.8-3-3.7-5.2-4.8
				C48.3,39.4,47.4,39.8,47.5,39.9L47.5,39.9z"/>
		</g>
	</g>
	<g>
		<g>
			<path class="st7" d="M71.7,27.7c1.8,0,3.6,0,5.4,0c1.7,0,3.6-0.3,5.2,0.2c1.5,0.4,2.7,1.3,4.3,1.9c1.5,0.4,3,0.6,4.5,0.7
				c0.4,0,1.2-0.6,0.4-0.7c-1.8-0.2-3.6-0.3-5.2-1c-1.3-0.6-2.5-1.4-3.9-1.6c-1.6-0.3-3.3-0.1-4.9-0.1c-1.8,0-3.6,0-5.4,0
				C71.7,27,70.9,27.7,71.7,27.7L71.7,27.7z"/>
		</g>
	</g>
	<g>
		<g>
			<path class="st8" d="M80.7,53.5c3.9,1.4,7.6,3.6,10.8,6.2c0.4,0.3,1.3-0.2,1-0.4c-3.3-2.8-7-5-11-6.4
				C81.1,52.7,80.2,53.2,80.7,53.5L80.7,53.5z"/>
		</g>
	</g>
	<g>
		<g>
			<path class="st9" d="M72.2,36.9c3.6,1.9,7.2,3.6,10.9,4.8c3,1.1,7.5,1.6,9.2,4.7c0.2,0.4,1.2-0.1,1.1-0.3
				c-1.7-2.9-5.4-3.6-8.4-4.4c-4.2-1.3-8.1-3.1-11.9-5.2C73,36.5,72,36.8,72.2,36.9L72.2,36.9z"/>
		</g>
	</g>
	<g>
		<g>
			<path class="st8" d="M87.5,62.8C82.2,56,76,50.1,68.9,45.2c-0.4-0.3-1.3,0.3-0.8,0.6c7,4.7,13.2,10.7,18.4,17.4
				C86.8,63.6,87.7,63.3,87.5,62.8L87.5,62.8z"/>
		</g>
	</g>
	<g>
		<g>
			<path class="st8" d="M47.8,43.9c10.3,1.3,21.1,2.8,29.7,8.9c0.3,0.2,1.2-0.3,1-0.4c-8.8-6-19.5-7.6-29.9-9
				C48.4,43.5,47.5,43.8,47.8,43.9L47.8,43.9z"/>
		</g>
	</g>
	<g>
		<g>
			<path class="st8" d="M74.2,48c3.6,0,7.2,0,10.8,0c1.8,0,3.6-0.1,5.2,0c1.3,0.1,2.8,0.3,3.5,1.5c0.3,0.4,1.2,0,1-0.5
				c-0.6-1.1-1.8-1.6-3-1.8c-1.7-0.3-3.4-0.1-5.1-0.1c-4.2,0-8.2,0-12.4,0C73.8,47.3,73.6,48,74.2,48L74.2,48z"/>
		</g>
	</g>
	<g>
		<g>
			<path class="st8" d="M36.9,41.4c6-1.2,12.5,0.2,17.7,3.6c1.2,0.8,2.3,1.7,3.3,2.7s1.9,2.5,3.1,3.1c1.2,0.6,3,0.6,4.4,0.8
				c1.9,0.2,3.8,0.4,5.7,0.5c0.3,0,1.2-0.5,0.7-0.5c-2-0.2-4.1-0.4-6-0.5c-1.9-0.2-3.6-0.2-4.9-1.6c-2.1-2.3-4.2-4.3-6.8-5.9
				C49,40.7,43,39.7,37.2,40.9C36.6,41,36.1,41.6,36.9,41.4L36.9,41.4z"/>
		</g>
	</g>
	<g>
		<g>
			<path class="st7" d="M68.4,38.7c4.9-0.4,9.9-0.1,14.7,0.7c1.1,0.2,2.3,0.4,3.4,0.6c1.1,0.3,2.3,0.4,3.3,0.9c1.4,0.8,2,2.4,3.9,2
				c0.7-0.2,0.5-0.8-0.2-0.6c-0.9,0.2-1.6-1.1-2.2-1.6c-0.7-0.5-1.5-0.8-2.4-0.9c-2.2-0.5-4.4-0.9-6.8-1.2
				c-4.5-0.7-9.2-0.8-13.8-0.5C67.9,38.1,67.6,38.7,68.4,38.7L68.4,38.7z"/>
		</g>
	</g>
	<g>
		<g>
			<path class="st8" d="M73.8,43.8c6-0.4,12.2-0.2,18.1,0.5c0.4,0.1,1.2-0.6,0.4-0.7c-6.1-0.7-12.4-0.9-18.5-0.5
				C73.4,43.3,73.1,43.9,73.8,43.8L73.8,43.8z"/>
		</g>
	</g>
	<g>
		<g>
			<path class="st8" d="M77.8,44.4c4.2-1,8.4-1.7,12.6-2c2-0.1,4.2-0.2,6.1-0.1c0.9,0,2.4,0.4,2.9-0.7c0.1-0.3-0.9-0.2-1.1,0.2
				c-0.1,0.2-2.3-0.1-2.6-0.1c-0.9,0-1.9,0-2.8,0c-1.7,0-3.3,0.2-5,0.3c-3.6,0.4-7,0.9-10.5,1.8C77,44.1,77.1,44.5,77.8,44.4
				L77.8,44.4z"/>
		</g>
	</g>
</g>
</svg>
