<?xml version="1.0" encoding="utf-8"?>
<!-- Generator: Adobe Illustrator 25.2.3, SVG Export Plug-In . SVG Version: 6.00 Build 0)  -->
<svg version="1.1" id="Layer_1" xmlns="http://www.w3.org/2000/svg" xmlns:xlink="http://www.w3.org/1999/xlink" x="0px" y="0px"
	 viewBox="0 0 147.2 171.1" style="enable-background:new 0 0 147.2 171.1;" xml:space="preserve">
<style type="text/css">
	.st0{fill:#4B3950;stroke:#F0EFF3;stroke-width:0.25;stroke-miterlimit:10;}
	.st1{fill:#F0EFF3;}
	.st2{font-family:'MyriadPro-Regular';}
	.st3{font-size:12.4686px;}
	.st4{fill:#E4DAD8;stroke:#FFFFFF;stroke-width:0.2778;stroke-miterlimit:10;}
	.st5{fill:#CBB8B9;stroke:#FFFFFF;stroke-width:0.2778;stroke-linejoin:bevel;stroke-miterlimit:10;}
	.st6{opacity:0.5;fill:#4B3950;}
	.st7{fill:#D8422E;}
	.st8{fill:#DC3359;}
	.st9{fill:#EE7345;}
	.st10{fill:#E4DAD8;stroke:#FFFFFF;stroke-width:0.2778;stroke-linejoin:bevel;stroke-miterlimit:10;}
	.st11{fill:#E4DAD8;stroke:#FFFFFF;stroke-width:0.25;stroke-linejoin:bevel;stroke-miterlimit:10;}
	.st12{fill:#CBB8B9;stroke:#FFFFFF;stroke-width:0.25;stroke-linejoin:bevel;stroke-miterlimit:10;}
	.st13{fill:#E4DAD8;stroke:#FFFFFF;stroke-width:0.25;stroke-miterlimit:10;}
	.st14{opacity:0.42;fill:#4B3950;}
	.st15{opacity:0.5;fill:#E4DAD8;stroke:#FFFFFF;stroke-width:0.2778;stroke-miterlimit:10;}
</style>
<g>
	<g>
		<path class="st0" d="M83.4,30l17.5,8.3c1,0.5,2.1,0.4,3.1-0.1l28.1-14.4c2.5-1.3,2.5-4.8,0.1-6.1l-16.6-8.9c-1-0.5-2.2-0.6-3.2,0
			L83.3,23.8C80.7,25.1,80.8,28.8,83.4,30z"/>
		<path class="st0" d="M83.6,23.9l13.6,7l6.3,1.3l28.7-14.4c2.5-1.3,2.5-4.8,0.1-6.1l-15.9-8c-1-0.5-4-0.4-6,0.4
			c-2.1,0.9-27,13.7-27,13.7C81,19,81,22.6,83.6,23.9z"/>
		<path class="st0" d="M83,18c-2.1,0.8-2.3,9.4-1.5,10.6c0.8,1.2,17.7,9.3,17.7,9.3c1.3,0.6,2.8,1.2,6-0.1
			c3.2-1.2,26.8-13.1,28-14.4c1.2-1.3,0.9-7.6,0.9-7.6c0.1,1.2-27.7,14.4-27.7,14.4c-2.1,1.3-6.9,0.8-8.1,0.2s-15.1-7.5-15.1-7.5
			C81.1,21.9,81,19.4,83,18z"/>
		<text transform="matrix(0.8894 -0.4572 0.4572 0.8894 99.8146 25.2276)" class="st1 st2 st3">Seife</text>
	</g>
	<g>
		<polygon class="st4" points="0.9,79.2 69,47 68.1,102.4 0.9,137.7 		"/>
		<polygon class="st5" points="68.1,45.3 1.4,79 10.8,79.7 69,50.2 		"/>
		<polygon class="st6" points="10.7,136.6 62.6,161.9 133,128.6 69.1,105.1 		"/>
		<g>
			<g>
				<g>
					<path class="st7" d="M53.7,117.8c2.3,0.2,3.8-0.5,5.7-1.8c1.1-0.8,2.3-1.1,3.7-1.1c2,0.1,4,0.4,5.9,1c6.8,2,10.6,8.6,16.6,12
						c3.1,1.7,6.6,2.6,10,1.5c0.5-0.2,0.4-0.8-0.2-0.6c-4.7,1.5-9.4-1.1-12.9-4c-3.1-2.6-5.9-5.8-9.4-7.9c-1.8-1-3.6-1.7-5.6-2.1
						c-1.8-0.3-3.9-0.7-5.7-0.4c-1.2,0.2-2.1,0.7-3.1,1.4c-1.4,1-2.7,1.5-4.5,1.4C53.6,117.2,53.1,117.8,53.7,117.8L53.7,117.8z"/>
				</g>
			</g>
			<g>
				<g>
					<path class="st8" d="M54.5,121.3c7.9-1.7,15.8,1,23,4.1c7.2,3.1,14.2,6.6,21.3,9.9c0.3,0.1,1.1-0.3,0.7-0.4
						c-7.7-3.6-15.2-7.3-23-10.6c-7-2.9-14.5-5.1-22.1-3.4C53.8,121,53.9,121.4,54.5,121.3L54.5,121.3z"/>
				</g>
			</g>
			<g>
				<g>
					<path class="st8" d="M45.3,126c1.6-1.6,3.6-2.5,5.7-3.1c1.9-0.4,3.8-0.4,5.7-0.8c0.9-0.2,1.6-0.7,2.1-1.4
						c0.2-0.4,0.4-0.8,0.5-1.2c0.2-0.6,0.3-1,1-0.6c3.2,1.5,4.7,5.5,7.1,7.9c2.5,2.5,6,3.3,9.4,2.7c1.9-0.3,3.5-1.1,5.2-1.9
						c1.7-0.9,3.4-1.3,5.2-0.4c1.1,0.5,2.1,1.3,3,2c0.2,0.1,0.9-0.2,0.8-0.3c-1.6-1.3-3.3-2.6-5.4-2.6c-1.7,0-3.3,0.8-4.8,1.6
						c-4.5,2.3-9.8,1.9-13.2-2c-1.4-1.6-2.4-3.3-3.7-4.9c-0.8-1-2.2-2.5-3.6-2.6c-0.7,0-1.2,0.3-1.6,0.8c-0.8,1.3-0.8,2.6-2.6,2.8
						c-4.1,0.5-8.5,1-11.6,4.2C44.3,126.3,45.1,126.2,45.3,126L45.3,126z"/>
				</g>
			</g>
			<g>
				<g>
					<path class="st8" d="M58.4,111.4c-0.1,2.4-0.2,4.9-0.2,7.3c0,2-0.2,4.2,0.2,6.2c0.3,1.5,1.5,2,3,2.1c2.1,0.2,4.3,0.1,6.4-0.2
						c2.1-0.2,4.2-0.6,6.3-1.1c1.1-0.3,2.1-0.6,3.1-0.9c0.4-0.1,0.9-0.3,1.3-0.3c1.3,0,1.5,0.9,1.9,1.9c0.8,1.9,1.5,3.9,2.5,5.7
						c0.6,1.1,1.4,2.1,2.8,1.8c0.5-0.1,0.4-0.7-0.2-0.6c-1.7,0.4-2.8-3.8-3.3-4.9c-0.5-1.2-1-3.4-2.2-4.2c-1-0.6-2.3-0.2-3.4,0.2
						c-1.9,0.6-3.9,1.1-5.9,1.4c-2,0.4-4.1,0.6-6.1,0.6c-1.1,0-2.2,0.1-3.3-0.1c-1.4-0.2-2-0.9-2.1-2.3c-0.3-4.2-0.1-8.5,0.1-12.7
						C59.3,110.9,58.4,111,58.4,111.4L58.4,111.4z"/>
				</g>
			</g>
			<g>
				<g>
					<path class="st8" d="M40.1,121.9c3.1-4.3,8.6-0.5,11.7,1.7c2.2,1.6,4.5,2.9,7.2,3.4c1.3,0.2,2.7,0.4,4,0.7c1.4,0.3,3,1,4.5,0.7
						c1.2-0.3,1.9-1.1,2.5-2.2c1-2,2.4-3.5,4.7-3.8c4.8-0.7,8.5,3.1,11.1,6.6c0.2,0.2,0.9-0.2,0.9-0.2c-2.4-3.1-5.4-6.3-9.5-6.7
						c-3.1-0.3-6.3,0.9-7.8,3.7c-0.2,0.4-0.4,0.8-0.6,1.2c-0.6,0.9-1.5,1.2-2.6,1c-1.1-0.1-2.1-0.6-3.2-0.8
						c-1.4-0.3-2.8-0.4-4.2-0.7c-3.8-0.9-6.5-3.8-9.9-5.6c-3.1-1.6-7.5-2-9.8,1.2C39.2,122.1,40,122.1,40.1,121.9L40.1,121.9z"/>
				</g>
			</g>
			<g>
				<g>
					<path class="st8" d="M62.7,111.1c-0.7,3.8,1.3,8.6-1.4,11.9c-1.3,1.7-3.5,1.3-5.1,2.6c-1.1,0.8-1.4,2-0.6,3.1
						c1.1,1.4,3,2.4,4.5,3.3c1.7,1,3.4,1.9,5.2,2.8c3.7,1.9,7.4,3.7,10.6,6.3c0.2,0.2,1-0.2,0.8-0.3c-2.9-2.4-6.2-4.1-9.6-5.8
						c-3.4-1.7-7.4-3.4-10.1-6.1c-0.8-0.8-1.3-1.9-0.5-2.8c0.8-0.9,2.1-1,3.2-1.4c1.3-0.4,2.3-1.2,2.9-2.3c2.1-3.5,0.4-7.7,1-11.4
						C63.6,110.7,62.7,110.8,62.7,111.1L62.7,111.1z"/>
				</g>
			</g>
			<g>
				<g>
					<path class="st8" d="M55.9,122.8c1.5,0.4,3,0.7,4.5,0.6c1.2-0.1,2.4-0.4,3.6-0.4c2,0,3.8,0.8,5.7,1.3c2.3,0.7,4.5,1.5,6.8,2.3
						c8.4,3.1,15.6,8,22.8,13.3c0.2,0.1,0.9-0.2,0.8-0.3c-7.3-5.4-14.7-10.3-23.2-13.4c-2-0.7-4-1.4-6-2c-1.8-0.6-3.7-1.3-5.7-1.5
						c-1.2-0.1-2.3,0.1-3.4,0.2c-1.8,0.2-3.4,0-5.2-0.5C56.4,122.4,55.7,122.8,55.9,122.8L55.9,122.8z"/>
				</g>
			</g>
			<g>
				<g>
					<path class="st8" d="M67.9,133.1c6.6,0.9,13.2-1,19.8,0.2c3.4,0.6,5.9,2.2,8.6,4.3c2.4,1.8,4.9,3.1,8,3.4c0.2,0,1-0.4,0.5-0.4
						c-3.6-0.3-6.2-2.1-8.9-4.2c-2.3-1.8-4.8-2.9-7.6-3.4c-6.6-1.2-13.2,0.7-19.8-0.2C68.2,132.6,67.4,133,67.9,133.1L67.9,133.1z"
						/>
				</g>
			</g>
			<g>
				<g>
					<path class="st8" d="M33.1,123.2c4.1,0.4,8.2-0.3,12.3,0c4.3,0.3,7.7,2.1,11.1,4.7c0.9,0.7,2,1.4,2.6,2.4
						c0.4,0.6,0.5,1.4,0.7,2.1c0.4,1.3,0.9,2.7,1.6,3.8c0.8,1.2,2,1.6,3.4,1.5c4.5-0.1,9-1.4,13.2-2.9c0.6-0.2,0.1-0.7-0.4-0.5
						c-3.9,1.5-8.1,2.6-12.3,2.8c-1.2,0.1-2.3-0.2-3-1.3c-0.5-0.7-0.8-1.6-1.1-2.4c-0.3-0.9-0.5-1.7-0.8-2.6c-0.6-1.8-2.6-3-4-4
						c-2.9-2.2-6-3.7-9.7-4.1c-4.4-0.4-8.8,0.4-13.2,0C33,122.5,32.5,123.1,33.1,123.2L33.1,123.2z"/>
				</g>
			</g>
			<g>
				<g>
					<path class="st8" d="M51.1,120.3c0.7,0,1.6-0.2,2-0.9c0.1-0.2,0.2-0.6,0.1-0.8c0,0,0-0.1,0-0.1c0-0.2-0.1-0.1-0.3,0.2
						c0.1,0.1,0.5,0.3,0.7,0.4c3.5,2.3,6.9,4.8,10.1,7.5c1.5,1.3,3.1,2.5,4.6,3.9c1.3,1.1,2.5,2.6,4,3.5c1.3,0.8,2.8,0.3,4.2-0.1
						c2.1-0.5,4.2-1,6.3-1.5c0.5-0.1,0.4-0.6-0.1-0.5c-1.9,0.5-3.9,0.9-5.8,1.4c-1.4,0.3-2.9,1-4.2-0.1c-0.7-0.5-1.3-1.2-1.9-1.8
						c-2.8-2.5-5.6-4.9-8.6-7.2c-1.4-1.1-2.8-2.2-4.3-3.2c-1.3-0.9-2.7-2.2-4.1-2.8c-0.3-0.1-0.9-0.3-1.2,0.1
						c-0.6,0.7,0.4,1.4-1.2,1.4C50.7,119.8,50.5,120.3,51.1,120.3L51.1,120.3z"/>
				</g>
			</g>
			<g>
				<g>
					<path class="st8" d="M49.1,131.2c3.8-0.4,7.4-1.4,11-2.3c3.5-0.9,7.1-1.3,10.6,0c7.5,2.7,12.9,11.4,21.8,9.6
						c0.5-0.1,0.4-0.5-0.1-0.4c-4.9,1-9.3-2-13-4.7c-3.1-2.3-6.2-4.7-10.1-5.5c-2.9-0.6-5.9-0.2-8.8,0.5c-3.8,0.9-7.4,2-11.3,2.3
						C48.8,130.8,48.5,131.3,49.1,131.2L49.1,131.2z"/>
				</g>
			</g>
			<g>
				<g>
					<path class="st8" d="M64.7,138.4c7.3-1,13.9,3.5,21.1,3.8c7.3,0.4,13.3-4.6,20.4-5.2c0.5,0,0.7-0.7,0.1-0.6
						c-7.3,0.6-13.5,5.8-20.9,5.1c-7-0.6-13.3-4.7-20.5-3.8C64.3,137.8,64.2,138.4,64.7,138.4L64.7,138.4z"/>
				</g>
			</g>
			<g>
				<g>
					<path class="st8" d="M57.3,116.2c2.9,4.2,5,9.3,9.4,12.2c2.9,1.9,6.2,3,9.5,3.9c3.7,1.1,7.3,2.4,10.5,4.6
						c3.4,2.3,6.2,5.4,8.4,8.9c0.2,0.3,1-0.1,0.9-0.2c-3.7-6-9.4-10.5-16.1-12.7c-6.1-2-12.7-3.4-16.7-8.9c-1.9-2.6-3.3-5.4-5.1-8.1
						C58,115.7,57.1,116,57.3,116.2L57.3,116.2z"/>
				</g>
			</g>
			<g>
				<g>
					<path class="st9" d="M34.2,123.7c5.4,5.1,12.9,6.4,19.6,9c6.8,2.7,12.6,7.1,18.9,10.6c3.6,2,7.4,3.5,11.5,4.5
						c0.2,0.1,1-0.3,0.7-0.3c-3.7-0.9-7.2-2.2-10.6-4c-2.9-1.5-5.6-3.4-8.4-5.1c-3.1-1.9-6.3-3.7-9.6-5.2c-3.4-1.5-6.9-2.5-10.3-3.7
						c-4-1.4-7.9-3.1-11-6C34.9,123.2,34.1,123.5,34.2,123.7L34.2,123.7z"/>
				</g>
			</g>
			<g>
				<g>
					<path class="st8" d="M41.7,125c3.6-0.4,7.7-0.8,11,1c0.4,0.2,0.8,0.5,1.2,0.8c0.1,0.1,0.3,0.3,0.4,0.4c0.1,0,0.5-0.3,0.5-0.3
						c0,0-0.1,0-0.2-0.1c-0.1-0.1-0.3-0.1-0.4-0.2c-0.5-0.2-1-0.5-1.4-0.1c0,0-0.1,0.1-0.1,0.2c0.1,0.2,0.5,0.4,0.7,0.5
						c0.7,0.4,1.4,0.8,2.2,1.1c1.5,0.7,3.1,1.4,3.6,3.1c0.1,0.3,1,0.1,0.9-0.2c-0.5-1.4-1.7-2.2-3-2.9c-0.7-0.3-1.4-0.6-2.1-1
						c-0.4-0.2-0.7-0.4-1.1-0.6c-0.1,0-0.2-0.1-0.3-0.2c-0.2-0.1,0.2-0.1-0.2,0.1c-0.2,0.1-0.3,0.1-0.5,0.2c0.3,0,1,0.5,1.5,0.5
						c1.5,0-0.3-1.3-0.7-1.5c-3.5-2.2-8.1-1.8-12-1.4C41.3,124.5,41.1,125,41.7,125L41.7,125z"/>
				</g>
			</g>
			<g>
				<g>
					<path class="st8" d="M42.7,126.8c3.2,1.7,5.2,4.8,7.6,7.4c1.5,1.6,3,3,5.1,3.4c3.2,0.6,6,2.2,9.1,3.1c3.2,0.9,6.7,1,9.6-0.8
						c0.5-0.3-0.2-0.6-0.6-0.4c-3.5,2.1-7.7,1-11.3-0.4c-1.5-0.6-2.9-1.3-4.4-1.7c-0.8-0.2-1.6-0.3-2.5-0.5c-2.3-0.5-4-2.7-5.4-4.4
						c-2-2.3-3.8-4.7-6.6-6.2C43.1,126.1,42.3,126.6,42.7,126.8L42.7,126.8z"/>
				</g>
			</g>
			<g>
				<g>
					<path class="st8" d="M56.5,112.1c0.2,1.7,2.3,2.5,3.7,2.9c2.3,0.8,4.6,1.2,6.9,2.1c0.8,0.3,1.8,0.7,2.3,1.5
						c0.2,0.3,0.3,0.6,0.3,1c0,1.1-0.2,2.1-0.2,3.2c0,1.8,0.5,3.5,1.9,4.7c1.6,1.4,3.7,2.2,5.6,3.2c4.9,2.4,9.8,4.7,14.8,6.9
						c0.3,0.1,1-0.3,0.5-0.5c-4.4-1.9-8.8-3.9-13.1-6c-2-1-4.2-1.9-6.1-3.2c-2-1.3-2.7-3.3-2.6-5.7c0-1.1,0.6-2.5,0.1-3.5
						c-0.3-0.6-0.9-1-1.5-1.4c-1.9-1-4.2-1.5-6.2-2.1c-1.6-0.5-5-1.1-5.2-3.2C57.4,111.5,56.5,111.7,56.5,112.1L56.5,112.1z"/>
				</g>
			</g>
			<g>
				<g>
					<path class="st7" d="M39.5,127.5c2.7,0,5.5,0,8.2,0c1.5,0,3-0.1,4.4,0.1c1.3,0.2,2.4,0.9,3.5,1.5c0.6,0.3,1.9,0.8,2-0.3
						c0.1-0.5-0.8-2.5,0.1-2.5c0.4,0,0.9-0.5,0.3-0.5c-1,0-1.7,0.5-1.6,1.5c0,0.5,0.2,0.9,0.3,1.4c0,0,0,0.3,0,0.3
						c0.1,0.1,0.2,0.1,0.2-0.1c0-0.1-1.3-0.7-1.5-0.7c-1-0.6-2-1-3.2-1.2c-1.3-0.2-2.6-0.1-3.9-0.1c-2.9,0-5.7,0-8.6,0
						C39.5,127,38.9,127.5,39.5,127.5L39.5,127.5z"/>
				</g>
			</g>
			<g>
				<g>
					<path class="st8" d="M64.1,135.7c4.9,1.8,9.4,4.4,13.4,7.8c0.2,0.2,1-0.2,0.8-0.3c-4-3.4-8.6-6.1-13.5-7.9
						C64.6,135.3,63.8,135.6,64.1,135.7L64.1,135.7z"/>
				</g>
			</g>
			<g>
				<g>
					<path class="st7" d="M63.8,129.1c4.3,2.3,8.8,4.3,13.5,6c3.8,1.3,9.1,2,11.3,5.8c0.2,0.3,1,0,0.8-0.4
						c-2.1-3.6-6.7-4.3-10.3-5.5c-5.1-1.7-9.9-3.8-14.6-6.3C64.1,128.5,63.4,128.9,63.8,129.1L63.8,129.1z"/>
				</g>
			</g>
			<g>
				<g>
					<path class="st8" d="M72.2,147.7c-2.5-3.2-4.9-6.6-7.8-9.5c-2.8-2.9-6.1-5.4-9.5-7.7c-0.2-0.2-1,0.2-0.8,0.3
						c3.4,2.3,6.6,4.8,9.5,7.7c2.8,2.9,5.3,6.3,7.8,9.5C71.5,148.2,72.3,147.9,72.2,147.7L72.2,147.7z"/>
				</g>
			</g>
			<g>
				<g>
					<path class="st8" d="M43.1,131.7c5.3,0.7,10.7,0.6,16,1.1c5.5,0.5,10.5,2.3,15.1,5.4c0.2,0.2,1-0.2,0.7-0.4
						c-4.4-3-9.2-4.8-14.4-5.4c-5.6-0.6-11.2-0.5-16.8-1.2C43.4,131.2,42.6,131.6,43.1,131.7L43.1,131.7z"/>
				</g>
			</g>
			<g>
				<g>
					<path class="st8" d="M43,116.9c4.6,0.9,9.4,0.4,13.8,1.8c2.6,0.8,5.4,2,7.4,3.9c1.1,1,1.4,2.2,1.9,3.5c0.3,0.8,0.7,1.4,1.6,1.4
						c0.2,0,1-0.4,0.6-0.4c-1.4-0.1-1.5-2.2-2-3.1c-0.5-1-1.3-1.8-2.2-2.4c-2-1.5-4.6-2.7-7-3.4c-4.4-1.3-9.1-0.9-13.5-1.7
						C43.5,116.5,42.8,116.8,43,116.9L43,116.9z"/>
				</g>
			</g>
			<g>
				<g>
					<path class="st8" d="M69,138.6c4.5,0,9,0,13.5,0c2.1,0,4.3-0.1,6.4,0c1.7,0.1,3.5,0.3,4.4,2c0.2,0.3,1,0,0.8-0.4
						c-0.7-1.3-2.1-1.9-3.6-2.1c-2.1-0.3-4.2-0.1-6.3-0.1c-5,0-9.9,0-14.9,0C68.9,138,68.4,138.6,69,138.6L69,138.6z"/>
				</g>
			</g>
			<g>
				<g>
					<path class="st8" d="M40.4,129.7c6.2-1.2,12.8,2.1,17.9,5.4c2.8,1.8,5.5,3.9,8,6.1c1.2,1.1,2.4,2.2,3.5,3.4
						c1,1.1,1.9,2.3,3,3.3c1.5,1.4,3.5,1.4,5.4,1.5c2.6,0.2,5.3,0.5,7.9,0.7c0.4,0,0.9-0.6,0.3-0.6c-2.4-0.2-4.8-0.4-7.2-0.6
						c-2.4-0.2-4.7-0.1-6.4-2.1c-2-2.3-4-4.4-6.3-6.4c-5-4.4-10.8-8.4-17.2-10.5c-3-0.9-6.1-1.4-9.1-0.8
						C39.7,129.2,39.9,129.8,40.4,129.7L40.4,129.7z"/>
				</g>
			</g>
			<g>
				<g>
					<path class="st7" d="M46.1,132.8c2.4-0.2,4.7-0.6,6.9-1.3c2-0.6,4-1.2,6.1-1.5c2.5-0.3,5.4-0.1,7.7,0.9
						c1.7,0.7,2.8,3.1,4.9,2.6c0.5-0.1,0.4-0.7-0.1-0.5c-1.1,0.2-2.1-1.2-2.9-1.9c-0.9-0.7-2-1-3.2-1.3c-2.1-0.5-4.3-0.7-6.5-0.4
						c-1.9,0.2-3.7,0.8-5.5,1.3c-2.4,0.7-4.8,1.2-7.3,1.4C45.7,132.3,45.5,132.9,46.1,132.8L46.1,132.8z"/>
				</g>
			</g>
			<g>
				<g>
					<path class="st8" d="M79.2,132.3c4,0.5,7.6,3.3,9,7.1c0.1,0.3,1,0.1,0.9-0.2c-1.5-3.9-5.2-6.8-9.4-7.3c-0.2,0-0.5,0-0.6,0.2
						C79,132.1,79,132.3,79.2,132.3L79.2,132.3z"/>
				</g>
			</g>
			<g>
				<g>
					<path class="st8" d="M74,148c7.5-0.4,15-0.2,22.5,0.6c0.2,0,1-0.4,0.5-0.4c-7.5-0.8-15.1-1.1-22.7-0.6
						C74.1,147.6,73.4,148,74,148L74,148z"/>
				</g>
			</g>
			<g>
				<g>
					<path class="st7" d="M57.3,138.1c6.7-0.2,13.7-0.4,20.2,1.8c5.6,1.9,10.4,6,16.5,6.7c0.4,0,0.9-0.5,0.3-0.5
						c-6.4-0.7-11.5-5.2-17.5-7c-6.3-1.8-12.9-1.6-19.3-1.4C57,137.6,56.7,138.1,57.3,138.1L57.3,138.1z"/>
				</g>
			</g>
		</g>
		<polygon class="st10" points="6,82 71.3,49.3 69.1,106.6 5.6,139.5 		"/>
		<polygon class="st11" points="67.7,50.7 66.6,106.9 127.8,131 128.3,78.6 		"/>
		<polygon class="st12" points="130.5,83.2 62.6,48.2 67.8,45.8 136.7,80.3 		"/>
		<g>
			<g>
				<g>
					<path class="st7" d="M69.2,50.8c1,4.7,2.1,9.4,3.1,14.1c1,4.5,2.4,9.1,1.7,13.7c-0.6,4.3-2.7,8.3-4.5,12.3
						c-0.8,1.7-1.4,3.5-2.6,5c-0.9,1.1-1.9,2.2-2.8,3.3c-1.8,2.2-2.8,4.4-0.9,6.9c0.2,0.3,1,0,0.8-0.4c-2-2.7-0.4-4.9,1.5-7.1
						c0.9-1,1.9-2.1,2.6-3.2c1-1.5,1.7-3.3,2.4-5c1.6-3.6,3.4-7.2,4.1-11.2c0.8-4.3-0.3-8.6-1.2-12.8c-1.2-5.3-2.3-10.5-3.5-15.8
						C70,50.2,69.2,50.4,69.2,50.8L69.2,50.8z"/>
				</g>
			</g>
			<g>
				<g>
					<path class="st8" d="M62.5,60.8c4,6.6,4.8,14.4,4.5,21.9c-0.1,3.9-0.5,7.9-1,11.8c-0.5,3.2-2.1,5.9-3.9,8.6
						c-2,2.9-3.7,5.7-4.2,9.3c0,0.1,0.8,0,0.8-0.2c0.8-6.5,6.6-10.6,7.9-16.9c0.7-3.6,0.9-7.4,1.1-11.1c0.2-3.9,0.2-7.8-0.4-11.6
						c-0.6-4.2-1.9-8.3-4.1-12C63.2,60.4,62.4,60.7,62.5,60.8L62.5,60.8z"/>
				</g>
			</g>
			<g>
				<g>
					<path class="st8" d="M56.2,43.9c4.7,2.2,7,7.2,9,11.7c1.2,2.6,2.3,5.4,2.5,8.3c0.2,2.9-0.7,5.4-2.3,7.8
						c-2.6,4-5.9,7.5-5.4,12.7c0.2,2.3,1.2,4.6,2.5,6.5c1.4,2.1,3.6,3.5,4.9,5.6c0.5,0.8,1.2,2-0.1,2.2c-0.9,0.2-1.8,0.1-2.6,0.2
						c-1.1,0.1-2.6,0.3-3.1,1.4c-0.1,0.2,0.7,0.1,0.8-0.1c0.9-1.9,6.5,0.1,6.6-2.3c0-0.8-0.8-1.8-1.2-2.4c-0.8-1-1.8-1.9-2.7-2.8
						c-1.9-2-3.3-4.4-3.9-7c-0.6-2.6-0.3-5.2,0.8-7.6c1.1-2.3,2.8-4.3,4.2-6.4c1.3-2,2.3-4.2,2.4-6.7c0.1-3.1-1-6-2.2-8.8
						C64.3,51.5,62,46,56.9,43.6C56.7,43.5,56,43.8,56.2,43.9L56.2,43.9z"/>
				</g>
			</g>
			<g>
				<g>
					<path class="st8" d="M75.6,61.8c-3.9,1.1-7.8,2.3-11.6,3.7c-1.4,0.5-3.5,0.9-4.7,2c-1.1,1.1-0.6,2.7-0.3,4
						c1,3.6,2.6,7.1,4.4,10.4c1,1.7,2,3.4,3.2,5.1c0.5,0.8,1.2,1.6,1.5,2.5c0.5,1.4-0.6,2.3-1.5,3.1c-1.7,1.6-3.5,3.1-5.2,4.7
						c-1,0.9-2,2.3-1.2,3.7c0.1,0.2,1,0,0.8-0.3c-1.3-2.1,2.8-4.7,4.1-5.8c0.8-0.7,1.6-1.5,2.5-2.2c0.6-0.5,1.3-1.1,1.6-1.9
						c0.5-1.8-1.4-3.7-2.3-5c-1.3-2-2.6-4.1-3.7-6.2c-1-2-1.9-4.1-2.7-6.3c-0.3-1-0.6-1.9-0.8-2.9c-0.4-1.7,0.1-2.8,1.8-3.4
						c4.7-1.8,9.5-3.3,14.3-4.7C76.2,62.1,76.1,61.7,75.6,61.8L75.6,61.8z"/>
				</g>
			</g>
			<g>
				<g>
					<path class="st8" d="M59,36.5c5.1,1.6,5,7.9,3.8,12c-1.4,5.2-3,10.3-3.6,15.8c-0.3,2.5-0.5,5-0.5,7.5c0,1.3,0,2.7,0.1,4
						c0,1,0.1,2,0.7,2.9c1.2,1.6,3.5,1.3,5.2,1.8c2,0.7,3.5,2.3,4.3,4.1c2.5,5.2-0.3,10.8-3.2,15.2c-0.2,0.3,0.6,0.2,0.8,0
						c2.6-3.8,5.1-8.4,4.1-13.2c-0.4-1.9-1.3-3.7-2.7-5c-1.4-1.3-3.1-1.7-5-2c-1.3-0.2-2.5-0.6-3-2c-0.4-1.1-0.3-2.5-0.3-3.7
						c-0.1-3,0.1-5.9,0.4-8.8c0.6-5.7,2.1-11,3.6-16.5c1.2-4.4,1.4-10.9-3.9-12.5C59.4,36,58.6,36.4,59,36.5L59,36.5z"/>
				</g>
			</g>
			<g>
				<g>
					<path class="st8" d="M77.7,66.6c-3.7,0.5-6.9,2.9-10.6,3.3c-1.9,0.2-4-0.2-5.4-1.7c-1.1-1.2-1.7-3-3.2-3.8
						c-2.8-1.5-4.3,1.4-5,3.6c-1.2,3.8-1.8,7.8-2.4,11.8c-0.7,4.5-1.4,9-3,13.2c-0.1,0.3,0.7,0.2,0.8-0.1c1.7-4.5,2.4-9.2,3.1-13.9
						c0.4-2.4,0.7-4.7,1.2-7c0.5-2.1,0.9-4.7,2.1-6.5c2.1-3.3,4.5,1.9,5.7,3.1c1.1,1.2,2.7,1.6,4.3,1.7c4.4,0.2,7.9-2.7,12.1-3.3
						C77.9,67,78.2,66.5,77.7,66.6L77.7,66.6z"/>
				</g>
			</g>
			<g>
				<g>
					<path class="st8" d="M64.3,55.4c0.1,8.6,0.4,17.2,0.4,25.8c0.1,8.3-0.5,16.4-2.5,24.5c-1.1,4.5-2.5,9-4,13.4
						c-0.1,0.3,0.7,0.2,0.8-0.1c2.5-7.8,5-15.7,5.9-23.9c1-8.3,0.5-16.8,0.4-25.1c-0.1-4.9-0.2-9.8-0.3-14.7
						C65.2,55,64.3,55.1,64.3,55.4L64.3,55.4z"/>
				</g>
			</g>
			<g>
				<g>
					<path class="st8" d="M54.3,80.9c1.6,9.1,7.9,17.1,7.5,26.6c-0.1,2.4-0.8,4.6-1.6,6.9c-0.4,1.1-0.8,2.2-1,3.4
						c-0.2,0.8-0.4,1.2-1.3,1.3c-1,0.1-4.5-0.3-4.2,1.6c0,0.2,0.9,0,0.8-0.2c-0.2-1.3,2.2-0.9,3-1c0.7-0.1,1.7-0.2,2.2-0.9
						c0.4-0.5,0.4-1.2,0.6-1.8c0.3-1.1,0.7-2.2,1.1-3.3c0.7-2,1.2-4,1.3-6.1c0.4-9.5-5.8-17.5-7.5-26.6
						C55.1,80.4,54.3,80.6,54.3,80.9L54.3,80.9z"/>
				</g>
			</g>
			<g>
				<g>
					<path class="st8" d="M48.7,31.7c0.8,3.5,3.8,6,6.3,8.4c2.5,2.4,5.7,5.1,5.9,8.8c0.2,2.8-0.7,5.6-1.6,8.2c-0.9,2.5-1.8,5-3,7.4
						c-1.2,2.4-2.6,4.7-4.3,6.7c-0.8,1-1.8,1.8-2.7,2.7c-0.7,0.7-1.4,1.4-1.5,2.5c-0.2,1.5,0.6,3,1.2,4.3c0.6,1.3,1.3,2.6,2,3.9
						c1.5,2.7,3.3,5.2,5.3,7.6c0.1,0.2,0.9-0.1,0.8-0.3c-1.9-2.3-3.5-4.7-5-7.2c-1.3-2.2-2.8-4.7-3.4-7.3c-0.6-2.9,2.5-4.5,4.1-6.4
						c1.6-1.9,3-4,4.1-6.3c1.2-2.4,2.2-4.9,3.1-7.4c0.9-2.4,1.6-4.9,1.8-7.5c0.3-3.8-2-6.5-4.6-9c-2.9-2.8-6.6-5.5-7.6-9.6
						C49.5,31.3,48.7,31.5,48.7,31.7L48.7,31.7z"/>
				</g>
			</g>
			<g>
				<g>
					<path class="st8" d="M65.4,48.7c1.4,4.3-0.1,8.8-1.3,12.9c-1.2,4.2-2.6,8.4-4.2,12.5c-0.8,2.2-1.7,4.4-2.6,6.5
						c-0.4,1-0.9,2-1.3,3c-0.4,0.8-0.9,1.7-1,2.6c-0.3,1.8,1.2,3.5,2.1,5c1.2,1.9,2.4,3.8,3.6,5.8c0.2,0.3,1,0,0.8-0.3
						c-1.2-1.9-2.4-3.8-3.6-5.8c-0.6-1-1.4-2-1.9-3.1c-0.5-1.3,0.1-2.5,0.6-3.7c1.7-3.8,3.3-7.6,4.7-11.4c1.5-4,2.8-8,4-12.1
						c1.1-3.9,2.3-8.1,1-12.1C66.1,48.1,65.3,48.4,65.4,48.7L65.4,48.7z"/>
				</g>
			</g>
			<g>
				<g>
					<path class="st8" d="M52.2,50.6c3.3,7.7,6.6,15.5,7.8,23.8c0.6,4.1,0.5,8.3-0.4,12.4c-0.9,4-2.6,7.8-3.5,11.8
						c-0.9,4-0.9,8.2,1.2,11.8c0.1,0.2,0.9,0,0.8-0.2c-4.3-7.3,0.3-15.5,2.1-22.9c1.9-7.9,0.5-16.1-2-23.7
						c-1.5-4.5-3.3-8.9-5.2-13.3C52.9,50.2,52.1,50.4,52.2,50.6L52.2,50.6z"/>
				</g>
			</g>
			<g>
				<g>
					<path class="st8" d="M47.2,79c3.6,7.3,1.8,15.6,3.2,23.3c1.3,6.9,5.9,12.4,8.5,18.8c0.1,0.3,0.9,0,0.8-0.2
						c-2.6-6.4-7.2-11.9-8.5-18.8c-1.4-7.7,0.4-16-3.2-23.3C47.8,78.5,47,78.7,47.2,79L47.2,79z"/>
				</g>
			</g>
			<g>
				<g>
					<path class="st8" d="M72.4,54.5c-5,6.7-10.2,13.7-12.7,21.8c-1.4,4.5-1.5,9-1.4,13.7c0.1,4.5,0.1,8.9-1.1,13.2
						c-1.3,4.9-3.7,9.5-7,13.4c-0.3,0.4,0.5,0.4,0.7,0.2c5.6-6.6,8.4-14.9,8.4-23.5c0-4.8-0.5-9.5,0.6-14.2c0.9-4.3,2.8-8.4,5-12.2
						c2.5-4.3,5.5-8.3,8.4-12.2C73.4,54.2,72.6,54.2,72.4,54.5L72.4,54.5z"/>
				</g>
			</g>
			<g>
				<g>
					<path class="st9" d="M48.5,33.4c-3.7,8.1,3.9,15.5,3.8,23.5c0,5.2-1.4,10.6-2.7,15.6c-1.4,5.1-2.9,10.2-4.1,15.3
						c-1.3,5.7-2.1,11.5-1.7,17.3c0,0.4,0.9,0.2,0.8-0.2c-0.8-10.6,2.6-20.7,5.3-30.8c1.4-5,2.6-10.1,3.1-15.3
						c0.4-4.3-0.8-8.1-2.4-12.1c-1.7-4.3-3.4-8.8-1.3-13.3C49.5,33,48.7,33,48.5,33.4L48.5,33.4z"/>
				</g>
			</g>
			<g>
				<g>
					<path class="st7" d="M68.6,55.7c4.3,8.8,4.3,19.5-0.3,28.2C66,88.3,62.6,92,59.6,96c-3,3.9-5.3,8.2-6.8,12.9
						c-1.6,5.2-2,10.7-1.3,16c0,0.3,0.9,0.1,0.8-0.2c-1.3-10.3,1.7-20.3,7.9-28.5c3-4,6.4-7.7,8.8-12.1c2.2-4.1,3.5-8.7,3.6-13.4
						c0.2-5.2-0.9-10.5-3.2-15.2C69.3,55.2,68.5,55.5,68.6,55.7L68.6,55.7z"/>
				</g>
			</g>
			<g>
				<g>
					<path class="st8" d="M56.5,39.8c1.2,2.7,2.5,5.5,3,8.5c0.6,3.1,0,6-1.5,8.8c-1.2,2.2-2.4,4.2-2.7,6.8c-0.3,2.3-0.2,5-2.3,6.6
						c-0.2,0.1,0.6,0,0.8-0.1c1.8-1.3,2-3.5,2.3-5.5c0.2-1.4,0.3-2.8,0.8-4.1c0.5-1.3,1.3-2.6,2-3.8c1.4-2.6,2-5.3,1.6-8.2
						c-0.4-3.2-1.8-6.2-3.1-9.1C57.2,39.4,56.4,39.7,56.5,39.8L56.5,39.8z"/>
				</g>
			</g>
			<g>
				<g>
					<path class="st8" d="M54.9,42c-0.7,4.2-3.3,7.6-5.4,11.2c-2.1,3.7-3.2,7.8-3.8,12c-0.7,4.5-1.2,9.2-1.2,13.7
						c0,4.1,1,8.3,4.3,11c0.2,0.1,0.9-0.2,0.8-0.3c-3.5-2.9-4.3-7.6-4.2-11.9c0.1-4.5,0.6-9.1,1.3-13.6c0.7-4.2,2-8.2,4.1-11.8
						c2-3.4,4.3-6.6,5-10.6C55.8,41.7,55,41.7,54.9,42L54.9,42z"/>
				</g>
			</g>
			<g>
				<g>
					<path class="st8" d="M77,52c-2,0.9-2.4,4.1-2.7,6c-0.6,3.7-0.8,7.4-1.1,11.1c-0.2,1.7-0.4,3.4-0.8,5c-0.2,1.1-0.5,2.4-1.3,3.2
						c-0.5,0.6-1.3,0.6-2.1,0.7c-1.2,0.3-2.5,0.6-3.6,1.2c-2.5,1.2-3.7,3.3-4.2,6c-1.5,8-2.2,16.2-2.9,24.2c0,0.3,0.8,0.1,0.8-0.1
						c0.6-7,1.4-14.1,2.4-21.1c0.5-3.2,0.7-6.9,4-8.6c1.2-0.7,2.6-1,4-1.3c0.6-0.1,1.3-0.2,1.8-0.6c1.8-1.2,2.1-4.4,2.3-6.4
						c0.5-3.6,0.7-7.2,1.1-10.8c0.2-1.8,0.4-3.5,0.8-5.2c0.2-1,0.6-2.7,1.7-3.1C77.8,52.1,77.3,51.9,77,52L77,52z"/>
				</g>
			</g>
			<g>
				<g>
					<path class="st7" d="M52.8,38.4c0.8,2.4,1.6,4.7,2.4,7.1c0.8,2.3,1.8,4.7,2.3,7.1c0.4,2.3-0.4,4.5-0.5,6.8
						c-0.1,2.5,0.5,5,1.1,7.4c0.1,0.3,0.9,0,0.8-0.2c-0.6-2.3-1.1-4.7-1.1-7.2c0-2.4,0.9-4.6,0.5-7c-0.4-2.3-1.4-4.6-2.2-6.9
						c-0.8-2.4-1.6-4.9-2.4-7.3C53.6,37.9,52.8,38.2,52.8,38.4L52.8,38.4z"/>
				</g>
			</g>
			<g>
				<g>
					<path class="st8" d="M49.9,77.6C49.7,83.9,48.4,90,46,95.8c-0.1,0.3,0.7,0.2,0.8-0.1c2.4-5.8,3.6-12,3.8-18.2
						C50.7,77.2,49.9,77.3,49.9,77.6L49.9,77.6z"/>
				</g>
			</g>
			<g>
				<g>
					<path class="st7" d="M57.3,74.7c-1,5.9-1.6,11.8-1.7,17.7c-0.1,4.7,1.2,11-2.3,14.8c-0.3,0.4,0.4,0.5,0.7,0.2
						c3.4-3.8,2.4-9.5,2.4-14.2c0-6.3,0.6-12.5,1.7-18.7C58.2,74.2,57.3,74.3,57.3,74.7L57.3,74.7z"/>
				</g>
			</g>
			<g>
				<g>
					<path class="st8" d="M39.5,90.5c7.1-10.5,12.5-22,16-34.1c0.1-0.3-0.7-0.2-0.8,0.1c-3.5,12.1-8.9,23.6-15.9,34
						C38.5,90.8,39.3,90.8,39.5,90.5L39.5,90.5z"/>
				</g>
			</g>
			<g>
				<g>
					<path class="st8" d="M49.5,44.2c2.9,15,5.8,30.8,1.4,45.8c-0.1,0.2,0.8,0.1,0.8-0.1C56.1,74.8,53.2,59,50.3,44
						C50.3,43.8,49.4,44,49.5,44.2L49.5,44.2z"/>
				</g>
			</g>
			<g>
				<g>
					<path class="st8" d="M66.2,38.6c1,8,1.2,16.1,0.5,24.1c-0.3,3.3-0.4,7.1-1.9,10.2c-0.7,1.5-1.9,2.3-3.1,3.4
						c-0.8,0.7-1.4,1.4-1.1,2.5c0.1,0.4,0.9,0.2,0.8-0.2C61,77,63.1,76.1,64,75.3c1-0.9,1.6-2.2,2-3.4c1.1-3.2,1.3-6.8,1.6-10.1
						c0.6-7.8,0.4-15.6-0.6-23.3C67,38,66.2,38.2,66.2,38.6L66.2,38.6z"/>
				</g>
			</g>
			<g>
				<g>
					<path class="st8" d="M45.7,100.3c1.9,4.9,3.8,9.8,5.8,14.7c1,2.5,1.9,4.8,0.7,7.3c-0.8,1.7-2,3.1-2.4,5
						c-0.1,0.4,0.8,0.3,0.8-0.1c0.4-2.1,2-3.7,2.7-5.7c0.8-2.2,0-4.3-0.8-6.4c-2-5-4-10.1-5.9-15.1C46.4,99.7,45.6,99.9,45.7,100.3
						L45.7,100.3z"/>
				</g>
			</g>
			<g>
				<g>
					<path class="st8" d="M48.5,84.1c1.7,5.1,3.4,10.2,5.1,15.3c0.8,2.4,1.7,4.8,2.4,7.2c0.6,2,1.1,4.4-0.5,6.1
						c-0.2,0.2,0.6,0.1,0.8,0c1.3-1.4,1.3-3.3,0.9-5c-0.6-2.5-1.6-5-2.4-7.5c-1.8-5.4-3.6-10.8-5.4-16.2
						C49.2,83.6,48.4,83.9,48.5,84.1L48.5,84.1z"/>
				</g>
			</g>
			<g>
				<g>
					<path class="st8" d="M40.8,54.8c3.5,6,5,13,4.5,19.9c-0.2,3.5-1,7-2.2,10.2c-0.6,1.6-1.4,3.2-2.2,4.7C40,91,39,92.4,38.9,94.1
						c-0.1,2.2,0.8,4.5,1.3,6.6c0.6,2.4,1.1,4.8,1.7,7.2c0,0.2,0.9-0.1,0.8-0.2c-1-4.1-2.2-8.2-2.9-12.3c-0.4-2.1,0.4-3.7,1.5-5.4
						c0.9-1.5,1.7-3,2.3-4.6c2.5-6.2,3.2-13.2,2-19.8c-0.7-3.9-2.1-7.6-4-11C41.5,54.4,40.7,54.7,40.8,54.8L40.8,54.8z"/>
				</g>
			</g>
			<g>
				<g>
					<path class="st7" d="M49.3,47.8c2.5,6.3,4.5,12.9,5.7,19.6c0.6,3.3,1.1,6.6,1.3,10c0.1,2-0.4,3.3-1.2,5c-0.4,1-0.6,1.8-0.1,2.8
						c0.1,0.2,1,0,0.8-0.3c-0.8-1.4,0.4-2.9,0.9-4.2c0.5-1.3,0.5-2.6,0.3-3.9c-0.3-3.3-0.7-6.7-1.4-10c-1.2-6.5-3.1-12.9-5.6-19.1
						C50,47.2,49.2,47.5,49.3,47.8L49.3,47.8z"/>
				</g>
			</g>
			<g>
				<g>
					<path class="st8" d="M59.5,93.4c1,4.8-0.8,9.9-4.6,13c-0.4,0.3,0.5,0.3,0.7,0.1c3.9-3.2,5.8-8.4,4.8-13.3
						C60.2,92.9,59.4,93.1,59.5,93.4L59.5,93.4z"/>
				</g>
			</g>
			<g>
				<g>
					<path class="st8" d="M39.7,93.4c3.3,8.4,6,17,7.8,25.9c0,0.2,0.9,0,0.8-0.2c-1.9-8.8-4.5-17.5-7.8-25.9
						C40.4,92.9,39.6,93.2,39.7,93.4L39.7,93.4z"/>
				</g>
			</g>
			<g>
				<g>
					<path class="st8" d="M40.7,99.1c3.1,4.8,5.7,9.8,7.9,15.1c1,2.5,2,5,2.8,7.6c0.4,1.4,0.9,2.7,1.2,4.1c0.2,0.8,0.4,1.7,1.3,1.9
						c0.3,0.1,1-0.4,0.5-0.5c-1-0.2-1.3-3-1.6-3.8c-0.4-1.3-0.8-2.6-1.3-3.9c-0.9-2.5-1.8-4.9-2.9-7.3c-2.1-4.7-4.5-9.2-7.3-13.6
						C41.2,98.4,40.4,98.7,40.7,99.1L40.7,99.1z"/>
				</g>
			</g>
			<g>
				<g>
					<path class="st8" d="M55.2,96.3c-5.1,0.6-8.9,4.2-11.4,8.5c-1.4,2.5-2.6,5.3-3.4,8.1c-0.8,2.7-1.1,5.5,0.2,8.1
						c0.1,0.2,0.9-0.1,0.8-0.2c-2.2-4.6,0.2-10.1,2.2-14.3c2.2-4.7,5.9-9.3,11.4-9.9C55.4,96.5,55.8,96.2,55.2,96.3L55.2,96.3z"/>
				</g>
			</g>
			<g>
				<g>
					<path class="st8" d="M54,105c-1.2,3.8-1.8,7.8-1.7,11.8c0.1,3.8,1.1,8-0.9,11.6c-0.2,0.4,0.6,0.3,0.8,0c1.8-3.3,1.1-7,1-10.5
						c-0.2-4.4,0.4-8.8,1.7-13C54.9,104.6,54.1,104.7,54,105L54,105z"/>
				</g>
			</g>
			<g>
				<g>
					<path class="st7" d="M44.6,70.5c2.7,7.1,5.4,14.5,5.7,22.2c0.3,7.6-3,15.2-1.3,22.7c0,0.2,0.9,0,0.8-0.2
						c-1.7-7.6,1.6-15.1,1.3-22.7c-0.3-7.7-3-15-5.7-22.2C45.3,70.1,44.5,70.4,44.6,70.5L44.6,70.5z"/>
				</g>
			</g>
		</g>
		<g>
			<g>
				<g>
					<path class="st7" d="M64,105.5c4.6,0.5,9.2,1,13.9,1.5c4.4,0.5,9.1,0.5,13.2,2.4c7.1,3.2,11.4,10.3,18.3,13.9
						c3.5,1.8,7.5,2.7,11.3,1.5c0.6-0.2,0.5-0.9-0.2-0.7c-8.1,2.7-15.1-4.5-20.5-9.4c-2.5-2.3-5.2-4.5-8.4-5.9
						c-3.7-1.6-7.9-1.8-11.8-2.2c-5.1-0.5-10.2-1.1-15.3-1.6C63.9,104.8,63.3,105.4,64,105.5L64,105.5z"/>
				</g>
			</g>
			<g>
				<g>
					<path class="st8" d="M71.6,115c9.3-2.1,18.6,1.1,27.1,4.7c8.7,3.8,17.3,8,25.9,12c0.4,0.2,1.3-0.3,0.8-0.6
						c-9.1-4.2-18.1-8.7-27.3-12.6c-8.4-3.6-17.5-6.3-26.7-4.2C70.8,114.5,71,115.2,71.6,115L71.6,115z"/>
				</g>
			</g>
			<g>
				<g>
					<path class="st8" d="M59.5,119.8c1.2-1.3,2-2.8,2.7-4.4c0.7-1.5,1.5-3.3,3.1-4.1c1.1-0.6,2.5-0.5,3.8-0.6
						c1.3-0.1,2.6-0.1,3.8-0.1c2.5,0.2,4.9,0.8,6.9,2.3c3.2,2.5,4.8,6.5,7.8,9.2c3.1,2.7,7.4,3.4,11.4,2.5c2.4-0.5,4.3-1.7,6.5-2.6
						c3.5-1.5,6.1,0.2,8.8,2.4c0.2,0.2,1.2-0.2,1-0.4c-1.8-1.4-3.7-3-6.1-3.1c-2.2-0.2-4.2,0.9-6.1,1.9c-4.9,2.5-10.9,2.6-15-1.5
						c-3.2-3.2-5-7.9-9.3-9.9c-2.1-1-4.4-1.3-6.6-1.3c-2.1,0-4.5,0-6.6,0.6c-4,1.3-4.6,6.3-7.1,9.2C58.3,120.1,59.3,120,59.5,119.8
						L59.5,119.8z"/>
				</g>
			</g>
			<g>
				<g>
					<path class="st8" d="M76.3,103.1c-0.2,4.2-0.3,8.4-0.2,12.5c0,1.5-0.3,3.8,0.8,5c0.9,1,2.6,1,3.9,1.1c4,0.2,7.9-0.3,11.8-1.1
						c2-0.4,4-0.9,6-1.5c1.2-0.3,2.5-0.7,3.4,0.4c0.6,0.9,1,2.1,1.4,3.1c0.8,1.8,1.5,3.8,2.5,5.6c0.7,1.2,1.7,2,3.1,1.7
						c0.6-0.2,0.5-0.7-0.2-0.6c-1.2,0.3-2-1.4-2.4-2.2c-0.5-1.1-1-2.3-1.5-3.5c-0.4-1-0.9-2-1.3-3c-0.3-0.7-0.6-1.6-1.3-2.1
						c-1.4-1-3.2-0.2-4.6,0.2c-2.5,0.7-5,1.3-7.5,1.7c-2.5,0.4-5.1,0.7-7.6,0.6c-1.1,0-2.2,0-3.3-0.2c-1.4-0.3-1.9-1.2-2-2.5
						c-0.4-5.1-0.2-10.3,0.1-15.4C77.4,102.6,76.3,102.8,76.3,103.1L76.3,103.1z"/>
				</g>
			</g>
			<g>
				<g>
					<path class="st8" d="M53.3,114.8c1.1-1.6,2.9-2.3,4.8-2.3c1.1,0,2.2,0.5,3.4,0.5c0.3,0,1-0.1,1.1-0.4c0.1-0.2-0.2-0.6-0.1-0.7
						c-0.3,0.1-0.6,0.2-0.9,0.3c0.4,0,1.3,0.9,1.6,1.1c0.9,0.6,1.7,1.2,2.6,1.7c1.8,1.1,3.6,2.1,5.4,3.1c3.6,1.8,7.3,3.4,11.1,4.6
						c2.7,0.9,5.8,1.9,7.5-1.1c0.9-1.5,1.5-3.1,3.1-4.1c1.7-1.2,3.9-1.4,5.9-1.1c4.4,0.8,7.8,4.4,10.4,7.8c0.2,0.3,1.1-0.2,1-0.3
						c-3-3.9-6.8-7.9-12-8.1c-1.9-0.1-3.8,0.3-5.5,1.2c-1.9,1-2.8,2.6-3.8,4.5c-0.5,0.9-1,1.7-2.2,1.7c-0.8,0-1.7-0.3-2.4-0.6
						c-1.5-0.4-3-0.9-4.4-1.5c-3-1.1-5.9-2.4-8.6-3.9c-2.6-1.4-5.1-2.9-7.6-4.6c-0.3-0.2-2-1.6-2.4-0.5c0,0.1,0.1,0.3,0.1,0.4
						c0,0.1,0,0.1,0,0.2c0.5-0.1,0.5-0.2,0-0.2c-0.2,0-0.3-0.1-0.5-0.1c-1.1-0.3-2.3-0.4-3.5-0.3c-2.1,0.2-4.1,1.1-5.3,2.8
						C52.2,115.1,53.1,115.1,53.3,114.8L53.3,114.8z"/>
				</g>
			</g>
			<g>
				<g>
					<path class="st8" d="M81.4,102.8c-0.7,3.8,0.6,7.7-0.3,11.5c-0.5,1.8-1.5,3.6-3.2,4.3c-1.5,0.6-3.3,0.7-4.5,1.9
						c-2.8,2.6,1.6,5.3,3.6,6.6c3,1.9,6.1,3.5,9.3,5.1c3.8,1.9,7.6,4,11,6.7c0.3,0.2,1.2-0.2,1-0.4c-5.5-4.5-12.2-7-18.2-10.5
						c-2-1.2-9.8-5.5-4.9-7.9c1.5-0.7,3.2-0.7,4.6-1.7c1-0.8,1.8-1.9,2.2-3.1c1.5-4-0.1-8.3,0.6-12.5
						C82.6,102.3,81.5,102.4,81.4,102.8L81.4,102.8z"/>
				</g>
			</g>
			<g>
				<g>
					<path class="st8" d="M66.8,111.7c8.3,2.6,16.5,5.1,24.8,7.8c7.9,2.6,15.4,5.7,22.5,10.2c3.9,2.5,7.6,5.1,11.2,7.8
						c0.4,0.3,1.3-0.3,0.8-0.6c-6.5-4.7-13-9.4-20.3-12.9c-7.6-3.7-15.9-5.9-23.9-8.5c-4.8-1.5-9.7-3-14.5-4.6
						C66.9,110.8,66.2,111.5,66.8,111.7L66.8,111.7z"/>
				</g>
			</g>
			<g>
				<g>
					<path class="st8" d="M44.8,116.3c3.3,0.3,5.8-1,8.6-2.6c1.5-0.9,3-1.5,4.8-1.2c2.5,0.3,4.9,1.8,6.9,3.3
						c3.8,2.7,7.5,5.8,10.4,9.4c1.5,1.9,2.8,3.9,3.8,6.1c0.9,1.9,1.9,3.2,4.2,3.2c2.6,0.1,5.4-0.5,8-1c2.8-0.6,5.6-1.4,8.4-2.5
						c0.7-0.3,0-0.5-0.4-0.3c-2.6,1-5.2,1.8-7.9,2.4c-1.3,0.3-2.6,0.5-3.9,0.7c-1.4,0.2-3,0.5-4.4,0.3c-2.5-0.4-3.1-3.5-4.2-5.5
						c-1.1-1.8-2.3-3.5-3.8-5.1c-3-3.3-6.6-6.3-10.3-8.7c-2.8-1.8-6.2-3.4-9.6-2.3c-1.4,0.4-2.6,1.2-3.9,1.9c-1.9,1.1-3.8,1.8-6,1.6
						C45.2,115.7,44.3,116.2,44.8,116.3L44.8,116.3z"/>
				</g>
			</g>
			<g>
				<g>
					<path class="st8" d="M60.7,108.5c4.6,0.1,8.4,3,12,5.5c3.7,2.6,7.3,5.3,10.7,8.1c1.8,1.5,3.5,2.9,5.2,4.5
						c0.9,0.8,1.7,1.6,2.6,2.3c0.6,0.6,1.3,1.3,2.1,1.6c1.5,0.6,3.3-0.1,4.8-0.5c2.4-0.6,4.7-1.1,7.1-1.7c0.6-0.2,0.5-0.8-0.2-0.6
						c-2.2,0.5-4.4,1.1-6.6,1.6c-1.1,0.3-2.3,0.7-3.5,0.8c-1.5,0-2.4-1.1-3.4-2c-3.1-2.9-6.3-5.6-9.6-8.2c-3.4-2.7-6.9-5.3-10.5-7.7
						c-3.2-2.1-6.6-4.2-10.6-4.3C60.7,107.8,60,108.5,60.7,108.5L60.7,108.5z"/>
				</g>
			</g>
			<g>
				<g>
					<path class="st8" d="M58.6,121.6c8.2-0.7,16.6-1.4,24.7,0.1c4,0.8,8,2.1,11.5,4.2c3.6,2.1,6.7,5,10.3,7.1
						c3.6,2.2,7.8,3.5,12,2.6c0.6-0.1,0.5-0.8-0.2-0.6c-8.9,1.9-15.6-6.6-22.6-10.4c-6.8-3.6-14.7-4.5-22.3-4.5
						c-4.5,0-8.9,0.4-13.3,0.8C58.1,121,57.9,121.7,58.6,121.6L58.6,121.6z"/>
				</g>
			</g>
			<g>
				<g>
					<path class="st8" d="M55.2,118.6c2.1-0.3,3.6-1.2,5.2-2.4c0.6-0.4,1.2-0.9,2-0.8c1.3,0.1,2.4,1.4,3.3,2.2
						c1.9,1.9,3.4,3.9,5.8,5.2c2.1,1,4.9,1.8,5.7,4.3c0.2,0.5,1.2,0.2,1-0.3c-0.7-2.3-3.1-3.3-5.1-4.2c-1.5-0.7-2.8-1.5-4-2.6
						c-1.1-1.1-2-2.3-3.1-3.3c-1.4-1.3-3.2-2.6-5.1-1.6c-0.8,0.4-1.4,0.9-2,1.4c-1.1,0.8-2.3,1.3-3.6,1.5
						C54.7,117.9,54.5,118.7,55.2,118.6L55.2,118.6z"/>
				</g>
			</g>
			<g>
				<g>
					<path class="st8" d="M56.4,120.6c1,0.5,2.1,1,2.5,2.2c0.3,1.2,0.9,2,1.8,2.9c3.1,3.2,7,5.4,11,7.4c4,1.9,8.2,4,12.5,5.1
						c3.7,1,7.7,0.8,11.1-1.2c0.4-0.3-0.6-0.2-0.8,0c-4.3,2.6-9.5,1.1-13.7-0.7c-3.8-1.5-7.5-3.2-11.1-5.1c-3.2-1.7-6.9-4-9-7.1
						c-0.4-0.7-0.5-1.4-0.8-2c-0.4-0.9-1.6-1.4-2.4-1.8C57.1,120.1,56.2,120.5,56.4,120.6L56.4,120.6z"/>
				</g>
			</g>
			<g>
				<g>
					<path class="st8" d="M67.4,98.7c0.2,2.2,3.5,3.6,5.1,4.4c3.3,1.7,6.7,3,10.1,4.5c1.5,0.7,3.1,1.4,4.5,2.3
						c0.9,0.6,2.1,1.3,2.5,2.3c0.3,0.7,0,1.6-0.1,2.3c-0.1,1.4-0.2,2.8,0.1,4.1c0.5,2.8,2.6,4.4,5,5.6c7,3.6,14.2,7,21.4,10.1
						c0.4,0.2,1.2-0.4,0.6-0.7c-6.5-2.8-12.9-5.8-19.2-8.9c-2.7-1.4-5.9-2.6-6.7-5.8c-0.4-1.5-0.3-3-0.2-4.5
						c0.1-0.7,0.3-1.6,0.1-2.3c-0.6-2.2-3.9-3.5-5.6-4.3c-3.2-1.6-6.5-2.9-9.8-4.4c-1.6-0.7-3.3-1.5-4.8-2.5c-0.9-0.6-2-1.4-2.1-2.5
						C68.4,98,67.4,98.2,67.4,98.7L67.4,98.7z"/>
				</g>
			</g>
			<g>
				<g>
					<path class="st7" d="M52.5,121.5c1.3,0,2.6-0.4,3.5-1.4c1.2-1.3,1.5-3.1,3.6-3.1c1.6,0,3.1,0.1,4.6,0.8
						c1.2,0.6,2.4,1.3,3.7,1.8c2.5,0.9,5.1,1.1,7.7,1.4c0.2,0,1.2-0.4,0.7-0.4c-3-0.3-6-0.5-8.7-1.9c-1.1-0.5-2.2-1.2-3.4-1.6
						c-1.3-0.4-2.6-0.5-3.9-0.5c-1.3,0-2.7,0.3-3.6,1.3c-1.1,1.2-1.5,3.1-3.5,3.2C52.9,121.1,52,121.5,52.5,121.5L52.5,121.5z"/>
				</g>
			</g>
			<g>
				<g>
					<path class="st8" d="M83.1,132.3c5.9,2.1,11.3,5.3,16,9.3c0.2,0.2,1.2-0.2,1-0.4c-4.8-4.1-10.2-7.3-16.1-9.4
						C83.7,131.7,82.8,132.1,83.1,132.3L83.1,132.3z"/>
				</g>
			</g>
			<g>
				<g>
					<path class="st7" d="M82.6,124.3c5.2,2.8,10.7,5.2,16.3,7.2c4.5,1.6,10.8,2.4,13.4,6.9c0.2,0.3,1.1-0.1,1-0.3
						c-2.5-4.3-8-5.2-12.3-6.6c-6-2-11.9-4.6-17.5-7.6C83.3,123.7,82.5,124.2,82.6,124.3L82.6,124.3z"/>
				</g>
			</g>
			<g>
				<g>
					<path class="st8" d="M92.8,146.5c-7.7-10-16.9-18.7-27.3-25.9c-0.3-0.2-1.2,0.2-1,0.4c10.4,7.1,19.6,15.9,27.3,25.9
						C92,147.1,93,146.8,92.8,146.5L92.8,146.5z"/>
				</g>
			</g>
			<g>
				<g>
					<path class="st8" d="M57.1,126.7c6.6,0.9,13.3,0.9,19.8,1.8c6.7,0.9,12.8,3,18.3,6.9c0.4,0.3,1.3-0.3,0.8-0.6
						c-5.5-3.8-11.5-6-18.1-6.9c-6.8-1-13.7-1-20.5-1.9C56.9,125.8,56.4,126.6,57.1,126.7L57.1,126.7z"/>
				</g>
			</g>
			<g>
				<g>
					<path class="st8" d="M56.9,108.9c5.8,1.1,11.9,1,17.5,2.9c3.1,1.1,6.7,2.5,9.1,4.9c1.2,1.2,1.6,2.6,2.2,4.1
						c0.4,0.9,1,1.7,2,1.7c0.4,0,1.1-0.6,0.4-0.6c-1.5,0-1.8-2.8-2.3-3.8c-0.6-1.1-1.5-2-2.5-2.8c-2.5-1.9-5.6-3.2-8.6-4.2
						c-5.5-1.8-11.5-1.7-17.2-2.8C57.2,108.3,56.3,108.8,56.9,108.9L56.9,108.9z"/>
				</g>
			</g>
			<g>
				<g>
					<path class="st8" d="M89.1,135.7c5.3,0,10.6,0,15.9,0c2.6,0,5.2-0.1,7.8,0c2,0.1,4.2,0.4,5.2,2.3c0.2,0.4,1.2,0,1-0.5
						c-0.9-1.6-2.6-2.2-4.3-2.5c-2.5-0.4-5.1-0.1-7.7-0.1c-6,0-11.9,0-17.9,0C88.6,135,88.4,135.7,89.1,135.7L89.1,135.7z"/>
				</g>
			</g>
			<g>
				<g>
					<path class="st7" d="M54.8,123.3c7.2-0.4,14.5-0.1,21.6,1c1.7,0.3,3.4,0.6,5.2,0.9c1.6,0.3,3.5,0.6,5,1.3
						c1.9,0.9,3.1,3.6,5.5,3c0.4-0.1,0.9-0.6,0.2-0.4c-1.4,0.3-2.5-1.4-3.4-2.2c-1-0.9-2.3-1.2-3.6-1.6c-3.3-0.8-6.7-1.4-10.1-1.9
						c-6.6-0.9-13.3-1.1-19.9-0.7C54.9,122.9,54.1,123.4,54.8,123.3L54.8,123.3z"/>
				</g>
			</g>
			<g>
				<g>
					<path class="st8" d="M101.1,128.2c4.8,0.6,9.1,3.9,10.8,8.5c0.1,0.3,1.2,0,1-0.3c-1.8-4.7-6.2-8.1-11.2-8.7
						c-0.2,0-0.6,0-0.7,0.2C100.9,128,100.9,128.1,101.1,128.2L101.1,128.2z"/>
				</g>
			</g>
		</g>
		<g>
			<g>
				<g>
					<path class="st7" d="M57.6,117.1c1.5,0.1,3,0.1,4.5-0.4c1.1-0.4,2.2-0.9,3.3-1.4c1.7-0.7,3.4-0.9,5.2-0.7
						c2.2,0.2,4.5,0.5,6.7,1.2c7.9,2.5,12.5,10.3,19.6,14.3c3.6,2,7.8,3.1,11.9,1.8c0.6-0.2,0.4-1-0.2-0.8
						c-8.4,2.8-15.4-4.8-21.1-9.9c-2.8-2.5-5.8-4.9-9.4-6.1c-2-0.7-4-1-6-1.2c-1.6-0.2-3.2-0.3-4.8,0c-1.4,0.3-2.7,0.9-3.9,1.5
						c-1.8,0.8-3.5,1.1-5.4,0.9C57.4,116.3,56.9,117.1,57.6,117.1L57.6,117.1z"/>
				</g>
			</g>
			<g>
				<g>
					<path class="st8" d="M59.6,122.2c9.2-2.1,18.5,1,26.9,4.7c8.8,3.8,17.4,8,26.1,12.1c0.4,0.2,1.2-0.4,0.6-0.7
						c-9.1-4.2-18.2-8.7-27.4-12.6c-8.3-3.5-17.4-6.2-26.5-4.1C58.8,121.6,59,122.3,59.6,122.2L59.6,122.2z"/>
				</g>
			</g>
			<g>
				<g>
					<path class="st8" d="M47.5,127c1.2-1.4,2-3,2.8-4.6c0.7-1.5,1.6-3.2,3.1-4c1-0.5,2.3-0.5,3.4-0.5c1.3-0.1,2.6-0.2,3.8-0.1
						c2.6,0.1,5.1,0.7,7.2,2.3c3.2,2.5,4.8,6.5,7.8,9.2c3.1,2.7,7.4,3.4,11.3,2.6c2.5-0.5,4.5-1.8,6.8-2.7c3.4-1.4,6,0.3,8.6,2.4
						c0.3,0.2,1.2-0.2,1-0.4c-1.8-1.4-3.7-3-6.1-3.2c-2.2-0.2-4.2,0.9-6.1,1.8c-4.9,2.5-10.9,2.6-15-1.4c-3.2-3.1-4.9-7.6-9-9.8
						c-2.1-1.1-4.6-1.4-6.9-1.5c-2.1,0-4.6-0.1-6.6,0.6c-4,1.3-4.6,6.4-7.1,9.2C46.3,127.3,47.3,127.2,47.5,127L47.5,127z"/>
				</g>
			</g>
			<g>
				<g>
					<path class="st8" d="M64.3,110.2c-0.2,4.3-0.3,8.6-0.2,13c0,1.4-0.2,3.5,0.8,4.6c0.9,1.1,2.6,1.1,3.9,1.1
						c4,0.2,7.9-0.3,11.8-1.1c2-0.4,4-0.9,6-1.5c1.1-0.3,2.6-0.8,3.4,0.4c0.6,0.9,1,2.1,1.4,3.1c0.8,1.8,1.5,3.8,2.5,5.6
						c0.7,1.2,1.7,2.1,3.1,1.7c0.6-0.2,0.5-0.8-0.2-0.7c-1.3,0.3-2.1-1.7-2.5-2.6c-0.5-1.1-1-2.3-1.5-3.5c-0.4-1-0.9-2-1.3-3
						c-0.3-0.7-0.7-1.5-1.4-1.9c-1.5-0.8-3.3,0.1-4.8,0.5c-2.4,0.7-4.8,1.2-7.3,1.6c-2.3,0.4-4.7,0.6-7.1,0.6
						c-1.3,0-2.7,0.1-3.9-0.3c-1.3-0.4-1.6-1.4-1.7-2.7c-0.3-5-0.2-10.1,0.1-15.2C65.4,109.6,64.4,109.8,64.3,110.2L64.3,110.2z"/>
				</g>
			</g>
			<g>
				<g>
					<path class="st8" d="M41.3,122c3.6-5,10-1,13.7,1.6c2.9,2.1,5.9,4,9.4,4.9c1.7,0.4,3.4,0.7,5.1,1.1c1.8,0.4,4,1.5,5.9,1
						c1.9-0.4,2.5-2.1,3.4-3.6c1.1-2.1,3.1-3.3,5.4-3.6c5.6-0.7,10,3.8,13.1,7.9c0.2,0.3,1.2-0.1,1-0.4c-2.8-3.7-6.5-7.5-11.4-8.1
						c-4-0.4-7.6,1.2-9.4,4.8c-0.2,0.5-0.5,0.9-0.8,1.4c-0.7,1.1-1.9,1.2-3.1,0.9c-1.2-0.3-2.4-0.7-3.6-0.9
						c-1.8-0.4-3.7-0.8-5.5-1.3c-4.5-1.3-7.8-4.4-11.7-6.7c-3.8-2.2-9.4-3.1-12.4,0.9C40.1,122.4,41.1,122.3,41.3,122L41.3,122z"/>
				</g>
			</g>
			<g>
				<g>
					<path class="st8" d="M69.5,109.9c-0.7,3.8,0.6,7.7-0.3,11.5c-0.5,1.8-1.5,3.6-3.2,4.3c-1.5,0.6-3.3,0.7-4.5,1.9
						c-2.8,2.6,1.6,5.3,3.6,6.6c3,1.9,6.1,3.5,9.3,5.1c3.8,1.9,7.6,4,11,6.7c0.3,0.2,1.2-0.2,1-0.4c-5.5-4.5-12.2-7-18.2-10.5
						c-2.1-1.2-9.8-5.5-4.9-7.9c1.5-0.7,3.2-0.7,4.6-1.7c1-0.8,1.8-1.9,2.2-3.1c1.5-4-0.1-8.3,0.6-12.5
						C70.6,109.4,69.5,109.6,69.5,109.9L69.5,109.9z"/>
				</g>
			</g>
			<g>
				<g>
					<path class="st8" d="M33,123.5c5.3,0.5,10.6-0.5,15.9,0.1c1.4,0.1,2.7,0.4,4,0.8c0.6,0.2,1.3,0.6,2,0.5c0.3,0,0.7-0.2,0.8-0.5
						c0-0.1,0-0.2,0-0.3c-0.1-0.4-0.1-0.1-0.3,0c-0.2,0-0.4,0.1-0.6,0.1c0.4,0.1,0.9,0.7,1.2,0.9c0.6,0.5,1.3,1,1.9,1.6
						c1.4,1.2,2.8,2.5,4.1,3.9c1.2,1.3,2.3,2.7,3.3,4.1c1,1.5,1.7,3.2,2.5,4.8c1.7,3.3,5.7,2.4,8.7,1.9c3.9-0.6,7.7-1.6,11.4-3
						c0.7-0.3,0.1-0.8-0.5-0.6c-4.7,1.8-10,3.2-15.1,3.4c-1.6,0-2.7-0.5-3.5-1.9c-0.5-0.9-0.9-1.9-1.4-2.9c-1-1.9-2.3-3.7-3.7-5.3
						c-1.4-1.6-2.9-3-4.4-4.4c-0.8-0.7-1.6-1.3-2.4-2c-0.4-0.3-1-1-1.5-1.1c-0.7-0.2-0.8,0.3-0.8,0.8c0,0.1,0.3,0,0-0.2
						c-0.3-0.3-1.2-0.4-1.6-0.5c-1.1-0.3-2.2-0.5-3.4-0.7c-5.4-0.6-10.9,0.4-16.3-0.1C32.8,122.7,32.3,123.4,33,123.5L33,123.5z"/>
				</g>
			</g>
			<g>
				<g>
					<path class="st8" d="M54.5,120.1c1,0,2.1-0.2,2.7-1c0.1-0.1,0.2-0.3,0.3-0.3c-0.3,0.2-0.1,0.1,0.2,0.3c0.9,0.6,1.8,1.2,2.7,1.8
						c3.7,2.6,7.3,5.3,10.8,8.1c1.8,1.5,3.6,3,5.3,4.5c0.8,0.7,1.6,1.4,2.4,2.2c0.7,0.6,1.4,1.4,2.2,1.8c1.6,0.8,3.5,0.1,5.2-0.3
						c2.4-0.6,4.7-1.1,7.1-1.7c0.7-0.2,0.5-0.9-0.2-0.7c-2.4,0.6-4.7,1.1-7.1,1.7c-1.2,0.3-2.8,1-3.9,0.6c-1-0.3-1.8-1.3-2.5-1.9
						c-3.2-3-6.6-5.9-10.1-8.6c-3.4-2.7-7-5.4-10.6-7.7c-0.6-0.4-1.4-0.9-2.1-0.6c-0.2,0.1-0.3,0.3-0.5,0.5
						c-0.5,0.5-1.1,0.6-1.9,0.6C54,119.4,53.7,120.2,54.5,120.1L54.5,120.1z"/>
				</g>
			</g>
			<g>
				<g>
					<path class="st8" d="M52.1,133.1c3.6-0.3,7.2-1.1,10.8-1.8c3.4-0.7,6.8-1.4,10.2-1.3c3.8,0.2,7.3,1.5,10.4,3.5
						c3.4,2.1,6.4,4.9,9.9,6.9c3.5,2,7.6,3.2,11.7,2.4c0.6-0.1,0.5-0.7-0.1-0.5c-8.6,1.8-15.2-6.2-21.9-10c-2.9-1.6-6.1-2.6-9.4-2.7
						c-3-0.2-6,0.3-9,0.9c-4.2,0.8-8.3,1.8-12.5,2.2C51.8,132.6,51.4,133.2,52.1,133.1L52.1,133.1z"/>
				</g>
			</g>
			<g>
				<g>
					<path class="st8" d="M43.2,125.6c2-0.3,3.6-1.1,5.2-2.3c0.7-0.5,1.3-1.1,2.2-0.8c1.2,0.3,2.3,1.4,3.1,2.3c1.9,2,3.5,4,6,5.2
						c2.1,1,4.8,1.8,5.6,4.3c0.1,0.3,1.1,0,1-0.3c-0.8-2.4-3.2-3.3-5.3-4.2c-1.5-0.7-2.7-1.5-3.9-2.6c-1.1-1.1-2.1-2.4-3.3-3.5
						c-1.4-1.3-3-2.2-4.8-1.4c-0.7,0.3-1.4,0.9-2,1.4c-1.1,0.8-2.3,1.4-3.7,1.6C42.9,125.2,42.5,125.7,43.2,125.6L43.2,125.6z"/>
				</g>
			</g>
			<g>
				<g>
					<path class="st8" d="M44.4,127.8c1.1,0.6,2.1,1,2.4,2.2c0.3,1.1,1,2,1.8,2.8c3,3.1,6.8,5.3,10.7,7.2c4,1.9,8.2,4,12.5,5.2
						c3.8,1.1,7.9,1.1,11.4-1c0.6-0.4-0.3-0.5-0.6-0.3c-4.2,2.5-9.2,1.3-13.4-0.4c-3.8-1.5-7.6-3.2-11.2-5.1c-3.3-1.8-7.1-4-9.3-7.2
						c-0.5-0.7-0.5-1.4-0.9-2.1c-0.4-0.9-1.6-1.4-2.4-1.8C45,127.1,44,127.6,44.4,127.8L44.4,127.8z"/>
				</g>
			</g>
			<g>
				<g>
					<path class="st8" d="M61,110.3c0.2,2.1,3,3.1,4.6,3.7c2.8,1.1,5.7,1.7,8.5,2.9c1.1,0.4,2.3,0.9,3,1.8c0.9,1,0.5,2.3,0.4,3.6
						c-0.2,2.4-0.1,4.9,1.6,6.8c1.7,1.9,4.5,2.9,6.8,4.1c5.9,3,11.9,5.7,18,8.4c0.2,0.1,1.2-0.3,0.9-0.4c-5.6-2.4-11.1-5-16.6-7.7
						c-2.3-1.1-4.9-2.2-6.9-3.7c-2.2-1.6-2.8-4-2.7-6.7c0-1.3,0.7-3.1-0.1-4.4c-0.5-0.8-1.4-1.3-2.3-1.7c-2.5-1.2-5.3-1.9-8-2.8
						c-1.9-0.6-6-1.6-6.2-4.1C62,109.8,61,109.9,61,110.3L61,110.3z"/>
				</g>
			</g>
			<g>
				<g>
					<path class="st7" d="M40.6,128.7c4,0,8,0,12,0c0.4,0,1.3,0,1.4-0.5c0.1-0.4-0.5-1.1-0.7-1.4c-0.4-0.6-1-1.3-1.4-1.9
						c0-0.1-0.2-0.3-0.2-0.4c0,0,0-0.1-0.1-0.2c-0.1,0.1-0.2,0.2-0.4,0.4c0,0,2.4,1.1,2.6,1.2c3.1,1.6,6.4,2,9.8,2.3
						c0.4,0,1.1-0.5,0.4-0.6c-1.9-0.2-3.8-0.3-5.6-0.8c-1.8-0.5-3.3-1.3-5-2.1c-0.6-0.3-1.7-1-2.5-0.6c-0.5,0.2-0.4,0.5-0.1,0.9
						c0.3,0.6,0.8,1.2,1.2,1.8c0.2,0.3,0.5,0.7,0.7,1c0.1,0.3,0.1,0.5,0.3,0.4c-0.1,0.1-1.1,0-1.4,0c-0.5,0-1.1,0-1.6,0
						c-1,0-2,0-3,0c-2,0-4,0-6,0C40.6,128.1,39.9,128.7,40.6,128.7L40.6,128.7z"/>
				</g>
			</g>
			<g>
				<g>
					<path class="st8" d="M71.3,139.5c5.8,2.1,11.3,5.3,16,9.3c0.4,0.3,1.3-0.2,0.8-0.6c-4.8-4.1-10.3-7.3-16.2-9.4
						C71.4,138.6,70.7,139.3,71.3,139.5L71.3,139.5z"/>
				</g>
			</g>
			<g>
				<g>
					<path class="st7" d="M70.7,131.5c5.2,2.8,10.7,5.3,16.3,7.2c4.5,1.6,10.8,2.3,13.4,6.9c0.2,0.4,1.2,0,1-0.4
						c-2.5-4.3-8.1-5.2-12.4-6.6c-6-2-11.9-4.5-17.5-7.6C71.2,130.7,70.2,131.2,70.7,131.5L70.7,131.5z"/>
				</g>
			</g>
			<g>
				<g>
					<path class="st8" d="M80.8,153.7c-7.7-10-16.9-18.7-27.3-25.9c-0.3-0.2-1.2,0.2-1,0.4c10.4,7.1,19.6,15.9,27.3,25.9
						C80,154.3,81,153.9,80.8,153.7L80.8,153.7z"/>
				</g>
			</g>
			<g>
				<g>
					<path class="st8" d="M45.1,133.8c6.6,0.9,13.3,0.9,19.8,1.8c6.7,0.9,12.8,3,18.3,6.9c0.4,0.3,1.3-0.3,0.8-0.6
						c-5.5-3.8-11.5-6-18.1-6.9c-6.8-1-13.7-1-20.5-1.9C44.9,133,44.4,133.7,45.1,133.8L45.1,133.8z"/>
				</g>
			</g>
			<g>
				<g>
					<path class="st8" d="M45.1,116.1c5.8,1.1,11.9,1,17.6,3c3.1,1.1,6.6,2.5,8.9,4.8c1.2,1.2,1.6,2.6,2.2,4.1
						c0.4,0.9,1,1.7,2.1,1.7c0.5,0,1.1-0.7,0.4-0.7c-1.5,0-1.7-2.5-2.2-3.5c-0.6-1.3-1.6-2.3-2.8-3.1c-2.5-1.9-5.6-3.2-8.6-4.1
						c-5.5-1.8-11.5-1.7-17.2-2.8C45,115.3,44.4,116,45.1,116.1L45.1,116.1z"/>
				</g>
			</g>
			<g>
				<g>
					<path class="st7" d="M48.5,135.1c5.6-0.4,10.9-2.3,16.5-2.6c3-0.2,6.3,0.1,9.2,1.2c2.2,0.8,3.5,3.8,6,3.2
						c0.7-0.1,0.5-0.9-0.2-0.7c-1.4,0.3-2.6-1.6-3.6-2.3c-1-0.8-2.3-1.1-3.5-1.4c-2.7-0.6-5.5-0.9-8.2-0.7
						c-5.4,0.4-10.7,2.2-16.1,2.6C48,134.3,47.8,135.1,48.5,135.1L48.5,135.1z"/>
				</g>
			</g>
			<g>
				<g>
					<path class="st8" d="M89.2,135.3c4.8,0.6,9.1,4,10.8,8.5c0.1,0.3,1.1,0,1-0.3c-1.8-4.7-6.2-8.1-11.2-8.7c-0.2,0-0.6,0-0.7,0.2
						C88.9,135.1,88.9,135.2,89.2,135.3L89.2,135.3z"/>
				</g>
			</g>
		</g>
		<g>
			<g>
				<g>
					<path class="st7" d="M67.9,102.6c4.5,0.4,9.1,0.8,13.6,1.2c4.3,0.4,8.9,0.4,13.1,1.8c7.1,2.5,12.1,8.7,19,11.6
						c3.5,1.5,7.3,2,11.1,1c0.5-0.1,0.5-0.4-0.1-0.3c-7.9,2.1-14.8-3.5-20.6-7.8c-2.7-2-5.5-3.9-8.8-4.9c-3.8-1.3-8-1.3-12-1.7
						c-4.9-0.4-9.7-0.8-14.6-1.3C68.3,102.2,67.4,102.5,67.9,102.6L67.9,102.6z"/>
				</g>
			</g>
			<g>
				<g>
					<path class="st8" d="M75.5,110.5c9.2-1.7,18.3,0.7,27,3.7c8.8,3.1,17.5,6.6,26.3,9.9c0.3,0.1,1.1-0.4,0.6-0.6
						c-9-3.4-18-7.1-27.2-10.2c-8.5-2.9-17.5-5.1-26.5-3.5C75.1,110,74.8,110.6,75.5,110.5L75.5,110.5z"/>
				</g>
			</g>
			<g>
				<g>
					<path class="st8" d="M57.8,110.8c3.5-3,8.4-3.4,12.8-3.7c4.6-0.4,9.7-0.8,13.7,2c3.1,2.2,4.9,5.8,8.2,7.8
						c3.2,1.9,7.2,2.2,10.8,1.5c2.2-0.4,4.2-1.4,6.3-2.2c3.3-1.1,6,0.2,8.7,2c0.2,0.2,1.1-0.2,0.9-0.3c-1.8-1.2-3.7-2.3-5.8-2.5
						c-2.1-0.2-4,0.6-5.9,1.3c-4.7,1.9-10.4,2.5-14.8-0.5c-3.4-2.4-5.3-6.4-9.1-8.2c-4.2-2-9.2-1.5-13.6-1.1c-4.5,0.4-9.4,1-12.9,4
						C56.7,111,57.7,110.9,57.8,110.8L57.8,110.8z"/>
				</g>
			</g>
			<g>
				<g>
					<path class="st8" d="M80.4,100.7c-0.2,2.6-0.2,5.3-0.2,7.9c0,1.2,0,2.3,0.1,3.5c0,0.8-0.1,1.8,0.4,2.6c0.9,1.5,3.2,1.3,4.7,1.3
						c2.3,0.1,4.6-0.1,6.9-0.3c2.3-0.2,4.6-0.6,6.8-1.1c1.3-0.3,2.5-0.6,3.8-0.8c1.2-0.3,2.6-0.6,3.4,0.6c1.3,1.9,2.2,4.2,3.3,6.2
						c0.8,1.4,1.8,2.3,3.5,2c0.6-0.1,0.4-0.7-0.2-0.6c-2,0.4-3.3-3.5-4-4.9c-0.7-1.3-1.3-3.4-2.8-4.1c-1.3-0.6-3,0-4.3,0.3
						c-2.2,0.5-4.5,1-6.7,1.3c-2.2,0.3-4.3,0.5-6.5,0.6c-1.3,0-2.5,0-3.8,0c-1.1,0-2.5,0-3.1-1c-0.6-0.9-0.4-2.2-0.4-3.3
						c0-1.2-0.1-2.3-0.1-3.5c0-2.3,0.1-4.6,0.2-6.9C81.4,100.2,80.4,100.4,80.4,100.7L80.4,100.7z"/>
				</g>
			</g>
			<g>
				<g>
					<path class="st8" d="M57.2,111.1c0.8-1.1,0.8-2.5,0.8-3.9c0-0.5-0.1-1.4,0.2-1.8c0.5-0.8,2.7,0.3,3.4,0.6
						c2.4,1.1,4.7,2.6,7,3.9c2.1,1.1,4.2,2.1,6.4,3c2.5,1,5,1.9,7.6,2.7c2.2,0.7,4.6,1.5,7,1.8c1.7,0.2,3.1-0.4,4.1-1.7
						c0.5-0.7,0.9-1.5,1.5-2.1c0.9-0.9,2.1-1.5,3.3-1.8c5.8-1.5,10.9,2.2,14.7,6.2c0.2,0.2,1.1-0.1,0.9-0.3
						c-3.3-3.5-7.3-6.5-12.3-6.6c-1.9,0-3.9,0.3-5.6,1.2c-0.7,0.4-1.4,0.8-1.9,1.4c-0.7,0.8-1.1,1.8-1.8,2.6
						c-1.3,1.5-3.7,0.5-5.3,0.1c-1.5-0.4-2.9-0.8-4.3-1.2c-2.8-0.9-5.5-1.9-8.2-3.1c-2.7-1.2-5.2-2.5-7.7-3.9
						c-2.2-1.3-4.4-2.7-6.9-3.3c-1.2-0.3-2.5-0.2-2.8,1.1c-0.4,1.7,0.3,3.7-0.9,5.3C56.2,111.5,57.1,111.3,57.2,111.1L57.2,111.1z"
						/>
				</g>
			</g>
			<g>
				<g>
					<path class="st8" d="M85.5,100.5c-0.8,3.9,1.6,9.2-2.2,12.1c-1.7,1.3-4.2,0.9-6,2.2c-1.5,1.1-0.9,2.5,0.4,3.5
						c3.4,2.5,7.5,4,11.3,5.6c4.2,1.7,8.4,3.4,12.1,5.9c0.2,0.2,1.1-0.2,0.9-0.3c-7.1-4.7-15.6-6.5-22.8-11
						c-0.8-0.5-2.2-1.4-1.9-2.6c0.4-1.5,2.4-1.6,3.6-1.9c1.5-0.3,2.9-0.9,3.9-2.1c2.7-3.3,0.6-7.7,1.4-11.4
						C86.5,100,85.6,100.2,85.5,100.5L85.5,100.5z"/>
				</g>
			</g>
			<g>
				<g>
					<path class="st8" d="M70.7,107.6c8.1,2.1,16.1,4.1,24.2,6.2c7.9,2.1,15.6,4.6,22.8,8.3c3.9,2,7.7,4.3,11.5,6.5
						c0.2,0.1,1-0.2,0.9-0.3c-6.7-4-13.5-8-20.9-10.8c-7.7-2.9-15.8-4.7-23.7-6.8c-4.7-1.2-9.4-2.4-14.1-3.6
						C71.2,107.2,70.4,107.5,70.7,107.6L70.7,107.6z"/>
				</g>
			</g>
			<g>
				<g>
					<path class="st8" d="M49,112.4c3.2,0.2,5.7-1,8.4-2.5c1.3-0.7,2.6-1.3,4.2-1.4c2.3-0.1,4.5,1,6.5,2c4,2.1,8.1,4.8,11.3,8
						c1.6,1.6,2.9,3.3,4,5.3c1,1.7,2.1,2.6,4.2,2.6c2.6,0.1,5.3-0.4,7.8-0.8c2.8-0.5,5.6-1.2,8.3-2c0.6-0.2,0.4-0.9-0.2-0.7
						c-4.7,1.5-9.7,2.5-14.6,2.8c-1.4,0.1-2.8,0.1-3.8-1.1c-0.7-0.8-1.1-1.9-1.7-2.7c-1.1-1.7-2.4-3.1-3.9-4.5
						c-3.2-2.9-6.9-5.5-10.7-7.5c-3-1.6-6.4-2.9-9.7-1.6c-1.4,0.5-2.7,1.4-4,2.1c-1.8,1-3.7,1.5-5.7,1.3
						C48.8,111.7,48.3,112.4,49,112.4L49,112.4z"/>
				</g>
			</g>
			<g>
				<g>
					<path class="st8" d="M64.7,105.1c4.5,0.1,8.5,2.4,12.2,4.6c3.8,2.1,7.5,4.4,11.1,6.9c1.7,1.2,3.4,2.4,5.1,3.6
						c1.3,1,2.7,2.4,4.4,2.9c1.6,0.5,3.5-0.2,5.1-0.5c2.2-0.4,4.4-0.9,6.6-1.3c0.4-0.1,0.8-0.6,0.1-0.5c-2.2,0.4-4.4,0.9-6.6,1.3
						c-1,0.2-2,0.4-3,0.6c-1.4,0.2-2.3-0.3-3.4-1.1c-3.3-2.5-6.7-4.9-10.2-7.2c-3.4-2.2-6.9-4.3-10.5-6.3c-3.3-1.8-6.7-3.5-10.6-3.5
						C64.8,104.6,64.1,105.1,64.7,105.1L64.7,105.1z"/>
				</g>
			</g>
			<g>
				<g>
					<path class="st8" d="M62.4,115.8c8.1-0.6,16.3-1.1,24.3,0c3.9,0.6,7.7,1.5,11.3,3.1c3.7,1.7,7,4.1,10.7,6c3.8,1.9,8,3,12.2,2.3
						c0.4-0.1,0.8-0.6,0.1-0.5c-8.8,1.5-15.4-5.3-22.9-8.5c-6.9-3-14.5-3.6-22-3.6c-4.5,0-9,0.3-13.5,0.6
						C62.5,115.3,61.8,115.8,62.4,115.8L62.4,115.8z"/>
				</g>
			</g>
			<g>
				<g>
					<path class="st8" d="M72.3,101.1c5,5.9,10.3,11.9,17.2,15.8c7.7,4.3,16.8,4.4,24.5,8.7c4,2.2,7.6,5.1,10.3,8.8
						c0.2,0.2,1-0.2,0.9-0.3c-4.8-6.4-11.9-10.4-19.6-12.5c-4.4-1.2-8.9-2-13.1-4c-3.7-1.7-7-4.1-10-6.8c-3.4-3.1-6.4-6.5-9.3-10
						C73.1,100.6,72.3,101,72.3,101.1L72.3,101.1z"/>
				</g>
			</g>
			<g>
				<g>
					<path class="st9" d="M50.3,112.9c2.8,2.2,5.8,3.1,9.4,3.2c1.9,0.1,3.8,0.1,5.6,0.4c2.4,0.4,4.6,1.2,6.9,2.1
						c8.6,3.4,16.4,8.6,24.7,12.6c4.6,2.2,9.4,4,14.5,5c0.3,0.1,1.1-0.4,0.6-0.5c-9.1-1.8-17.2-6.3-25.2-10.8
						c-7.3-4-15.2-8.7-23.7-9.3c-1.9-0.1-3.9-0.1-5.8-0.4c-2.3-0.4-4.3-1.4-6.1-2.8C51,112.3,50.1,112.7,50.3,112.9L50.3,112.9z"/>
				</g>
			</g>
			<g>
				<g>
					<path class="st8" d="M59.2,114.1c1.9-0.2,3.4-0.9,4.8-2.1c0.6-0.5,1.3-1.2,2.1-1.3c1.1-0.2,2.4,0.8,3.2,1.4
						c2,1.6,3.7,3.5,6.1,4.5c2,0.8,5,1.4,5.9,3.6c0.1,0.3,1.1,0.1,0.9-0.3c-0.9-2.2-3.6-2.8-5.6-3.6c-1.5-0.6-2.7-1.3-3.9-2.3
						c-1.1-0.9-2.1-2-3.3-2.8c-1.4-1-2.9-1.4-4.5-0.5c-0.7,0.4-1.4,1-2.1,1.5c-1.1,0.8-2.2,1.2-3.5,1.4
						C58.9,113.7,58.5,114.2,59.2,114.1L59.2,114.1z"/>
				</g>
			</g>
			<g>
				<g>
					<path class="st8" d="M60.6,116c0.8,0.3,1.9,0.6,2.4,1.3c0.6,0.9,1.3,1.6,2.1,2.3c3.1,2.5,6.8,4.2,10.5,5.7
						c3.9,1.5,7.9,3.1,11.9,4.1c3.8,0.9,7.9,1.1,11.5-0.7c0.6-0.3,0.1-0.8-0.4-0.6c-4,2-8.7,1.2-12.8,0c-3.8-1.2-7.6-2.5-11.2-4.1
						c-3.5-1.5-7.1-3.2-9.9-5.9c-0.5-0.5-0.7-1-1.1-1.4c-0.6-0.7-1.8-0.9-2.5-1.2C60.7,115.1,60,115.7,60.6,116L60.6,116z"/>
				</g>
			</g>
			<g>
				<g>
					<path class="st8" d="M71.5,97.1c0.2,1.9,3.6,2.9,5,3.5c3.2,1.3,6.5,2.4,9.8,3.6c1.5,0.5,3,1.1,4.4,1.8c1,0.5,2.2,1,2.9,1.9
						c0.2,0.3,0.3,0.5,0.3,0.9c0,1.3-0.4,2.6-0.2,3.9c0.3,2.7,2.4,4.1,4.7,5.1c7.1,3.1,14.4,5.8,21.7,8.3c0.3,0.1,1.1-0.3,0.8-0.4
						c-6.5-2.3-12.8-4.7-19.2-7.3c-2.6-1.1-6.2-2.1-6.9-5.3c-0.3-1.4-0.1-2.8,0.1-4.2c0.1-0.5,0.1-0.8-0.1-1.2
						c-0.4-0.7-1.3-1.2-2-1.6c-1.2-0.7-2.5-1.2-3.8-1.7c-3.3-1.3-6.6-2.3-9.9-3.6c-1.5-0.6-3-1.2-4.4-2c-0.8-0.4-2-1.1-2.1-2.1
						C72.4,96.6,71.4,96.8,71.5,97.1L71.5,97.1z"/>
				</g>
			</g>
			<g>
				<g>
					<path class="st7" d="M56.6,116.6c1.3,0,2.6-0.4,3.4-1.5c1.1-1.3,1.5-2.9,3.5-3c1.6,0,3.1,0.1,4.6,0.6c1.2,0.4,2.3,1,3.5,1.4
						c2.6,0.9,5.3,1,8,1.2c0.3,0,1.1-0.4,0.6-0.5c-2.9-0.2-5.9-0.4-8.6-1.5c-1.2-0.5-2.4-1.1-3.7-1.4c-1.2-0.3-2.4-0.3-3.6-0.3
						c-1.4,0-2.7,0.3-3.7,1.4c-1.2,1.3-1.5,3-3.6,3.1C56.7,116.1,56,116.6,56.6,116.6L56.6,116.6z"/>
				</g>
			</g>
			<g>
				<g>
					<path class="st8" d="M87.3,124.6c5.7,1.7,11.1,4.2,16,7.6c0.3,0.2,1.2-0.2,0.7-0.5c-4.9-3.4-10.4-6-16.2-7.7
						C87.5,123.9,86.7,124.4,87.3,124.6L87.3,124.6z"/>
				</g>
			</g>
			<g>
				<g>
					<path class="st7" d="M86.8,118.1c5.2,2.3,10.6,4.2,16.1,5.8c2.5,0.7,5,1.2,7.4,2c2.3,0.7,4.6,1.6,6.1,3.6
						c0.2,0.3,1.1,0,0.9-0.4c-2.7-3.9-8.7-4.4-12.9-5.6c-5.8-1.6-11.5-3.6-17-6.1C87,117.3,86.3,117.9,86.8,118.1L86.8,118.1z"/>
				</g>
			</g>
			<g>
				<g>
					<path class="st8" d="M96.7,136.1c-7.9-8.4-17.3-15.5-27.4-21.1c-0.3-0.2-1.1,0.2-0.7,0.5c10.1,5.6,19.3,12.7,27.2,21.1
						C96.1,136.7,97,136.4,96.7,136.1L96.7,136.1z"/>
				</g>
			</g>
			<g>
				<g>
					<path class="st8" d="M55.4,116.2c14.9,1.6,30.5,3.2,43.8,10.7c0.2,0.1,1-0.2,0.9-0.3c-13.4-7.5-29.1-9.1-44.1-10.8
						C55.7,115.8,54.9,116.1,55.4,116.2L55.4,116.2z"/>
				</g>
			</g>
			<g>
				<g>
					<path class="st8" d="M61.1,106.4c5.7,0.9,11.7,0.3,17.3,1.6c3,0.7,6.4,1.8,8.9,3.7c1.3,1,1.8,2.1,2.5,3.5c0.4,0.9,1,1.4,2,1.5
						c0.4,0,1-0.6,0.3-0.6c-1.5,0-1.7-1.9-2.3-2.9c-0.7-1.1-1.8-2-2.9-2.6c-2.6-1.5-5.7-2.6-8.7-3.2c-5.5-1.2-11.3-0.6-16.8-1.5
						C61,105.7,60.4,106.3,61.1,106.4L61.1,106.4z"/>
				</g>
			</g>
			<g>
				<g>
					<path class="st8" d="M92.9,127.2c5.3,0,10.6,0,15.9,0c2.5,0,5.1-0.1,7.6,0c1.9,0,4.5,0.1,5.7,1.9c0.2,0.2,1-0.1,0.9-0.3
						c-0.9-1.4-2.6-1.8-4.2-2c-2.6-0.3-5.3-0.1-7.9-0.1c-5.8,0-11.6,0-17.4,0C93.3,126.8,92.4,127.2,92.9,127.2L92.9,127.2z"/>
				</g>
			</g>
			<g>
				<g>
					<path class="st8" d="M63.1,125.8c6.9-1.2,14.1-0.5,20.7,1.8c3.1,1.1,6.1,2.6,8.8,4.5c1.2,0.9,2.4,1.8,3.5,2.9
						c1.1,1,2.1,2,3.6,2.4c2.1,0.5,4.4,0.5,6.5,0.6c2.5,0.2,4.9,0.3,7.4,0.5c0.5,0,1-0.7,0.3-0.7c-4.2-0.3-8.6-0.4-12.8-0.9
						c-2.1-0.3-3.2-1.5-4.7-2.8c-1.2-1.1-2.4-2-3.7-2.9c-5.5-3.7-12-5.8-18.5-6.4c-3.8-0.4-7.6-0.2-11.3,0.4
						C62.3,125.2,62.5,125.9,63.1,125.8L63.1,125.8z"/>
				</g>
			</g>
			<g>
				<g>
					<path class="st7" d="M58.9,117.4c7-0.3,14-0.1,20.9,0.7c3.3,0.4,6.8,0.8,10,1.7c1.5,0.4,2.5,1.3,3.8,2.2
						c0.8,0.5,1.6,0.7,2.6,0.6c0.6-0.1,0.4-0.8-0.2-0.7c-1.5,0.3-2.7-1.3-3.8-2c-1.2-0.7-2.5-0.9-3.8-1.1c-3.2-0.6-6.5-1.1-9.8-1.5
						c-6.5-0.7-13.1-0.9-19.7-0.6C58.5,116.7,58.3,117.4,58.9,117.4L58.9,117.4z"/>
				</g>
			</g>
			<g>
				<g>
					<path class="st8" d="M105.2,121.2c4.4,0.4,8.9,2.8,10.8,6.9c0.1,0.3,1.1,0,0.9-0.3c-2-4.2-6.7-6.7-11.2-7.1
						c-0.2,0-0.5,0-0.7,0.2C105,121,105,121.1,105.2,121.2L105.2,121.2z"/>
				</g>
			</g>
			<g>
				<g>
					<path class="st7" d="M78.9,126.8c7.9-0.2,16.1-0.5,23.8,1.6c6.8,1.8,12.9,6,20.1,6.6c0.2,0,1.1-0.4,0.6-0.4
						c-7.5-0.6-14-5.2-21.2-6.9c-7.5-1.7-15.2-1.5-22.9-1.3C79,126.3,78.3,126.8,78.9,126.8L78.9,126.8z"/>
				</g>
			</g>
		</g>
		<g>
			<g>
				<g>
					<path class="st8" d="M55.5,135.3c5.6-0.5,11.8-0.9,16.4,3.1c1.8,1.6,3.4,3.1,5.7,4c1.9,0.8,4.7,1.3,5.6,3.5
						c0.1,0.3,1,0,0.9-0.3c-0.8-2-3.2-2.7-5.1-3.4c-1.4-0.5-2.6-1.1-3.8-2c-1.2-0.9-2.2-2-3.4-3c-4.5-3.5-10.8-2.9-16.2-2.5
						C55.2,134.8,54.8,135.3,55.5,135.3L55.5,135.3z"/>
				</g>
			</g>
			<g>
				<g>
					<path class="st7" d="M52.9,137.8c2.7,0,5.3,0,8,0c2.4,0,4.9-0.2,7.2,0.1c2.3,0.3,4.3,1.7,6.5,2.2c2.3,0.6,4.6,0.7,6.9,0.9
						c0.4,0,1-0.6,0.3-0.6c-2.5-0.2-5.1-0.3-7.5-1.1c-2-0.6-3.8-1.8-5.9-2c-2.4-0.3-4.8-0.1-7.2-0.1c-2.7,0-5.3,0-8,0
						C52.9,137.2,52.3,137.8,52.9,137.8L52.9,137.8z"/>
				</g>
			</g>
			<g>
				<g>
					<path class="st8" d="M57.3,127.5c7.7,1.2,15.2,3.1,22.5,5.6c3.1,1.1,6.8,2.1,9.5,4.2c1.2,0.9,1.7,2,2.3,3.3
						c0.5,0.9,1,1.5,2.1,1.5c0.3,0,1-0.5,0.4-0.5c-1.5,0-1.7-2-2.3-3c-0.7-1.1-1.8-1.9-2.9-2.6c-3-1.7-6.4-2.8-9.6-3.9
						c-7-2.4-14.1-4.1-21.4-5.2C57.6,126.9,56.7,127.4,57.3,127.5L57.3,127.5z"/>
				</g>
			</g>
			<g>
				<g>
					<path class="st7" d="M60.8,142.9c6.9-0.3,13.8-0.1,20.6,0.7c3.3,0.4,6.7,0.8,10,1.6c1.5,0.4,2.5,1.2,3.8,2.1
						c0.8,0.6,1.7,0.9,2.7,0.8c0.5-0.1,0.8-0.7,0.1-0.6c-1.5,0.3-2.5-1.1-3.6-1.8c-1.2-0.8-2.6-1-4-1.3c-3.2-0.6-6.4-1.1-9.6-1.4
						c-6.6-0.7-13.3-0.9-19.9-0.6C60.4,142.4,60.1,143,60.8,142.9L60.8,142.9z"/>
				</g>
			</g>
		</g>
		<g>
			<g>
				<path class="st8" d="M58.1,104.1c0.5,0,1.1-0.7,0.4-0.7C58,103.4,57.3,104.1,58.1,104.1L58.1,104.1z"/>
			</g>
		</g>
		<g>
			<g>
				<path class="st8" d="M54.9,38c0.8,3.3,1.4,6.6,2,9.9c0.3,1.6,0.5,3.3,0.7,4.9c0.1,0.8,0.2,1.6,0.3,2.5c0,0.4,0.1,0.9,0.1,1.3
					c0,0.2,0,0.3-0.1,0.5c-0.3,0.2-0.3,0.4,0,0.4c-0.3-0.3-1.3,0.2-1,0.4c0.8,0.7,1.8,0,2.1-0.8c0.3-0.8,0.1-1.8,0-2.6
					c-0.1-1.1-0.2-2.3-0.4-3.4c-0.6-4.5-1.4-8.9-2.5-13.3C55.9,37.3,54.8,37.6,54.9,38L54.9,38z"/>
			</g>
		</g>
		<g>
			<g>
				<g>
					<path class="st7" d="M58.3,37c1,4.5,2,8.9,2.9,13.4c1,4.4,2.4,9,2,13.6c-0.8,7.8-6.2,14.2-7.4,22c-0.6,3.7-0.2,7.6,2.1,10.7
						c0.1,0.2,0.9-0.1,0.8-0.3C54,90,57.3,81.8,60.2,75.4c1.7-3.6,3.4-7.4,3.8-11.4c0.5-4.1-0.7-8.2-1.6-12.2
						c-1.1-5-2.2-10-3.3-15.1C59.1,36.6,58.3,36.8,58.3,37L58.3,37z"/>
				</g>
			</g>
			<g>
				<g>
					<path class="st8" d="M51.6,47c4.7,7.8,5,17.1,4.3,25.9C55.2,82.9,53.7,93,52.6,103c0,0.3,0.8,0.1,0.8-0.1
						c0.9-8.2,1.9-16.3,2.8-24.5c0.7-6.8,1.3-13.8,0.2-20.6c-0.7-3.9-1.9-7.6-4-11C52.3,46.5,51.5,46.8,51.6,47L51.6,47z"/>
				</g>
			</g>
			<g>
				<g>
					<path class="st8" d="M54,41.5c1.6,3.7,3.4,7.8,2.5,12c-0.7,3.3-3.2,5.9-5,8.7c-1.8,2.7-2.8,5.6-2.4,8.9
						c0.4,3.3,2.1,6.2,4.4,8.5c1.4,1.4,3,2.7,3.6,4.6c0.8,2.3-0.1,4.7-1,6.9c-0.1,0.3,1,0.2,1.1-0.2c0.7-1.8,1.3-3.6,1.2-5.5
						c-0.1-1.6-0.9-3-1.9-4.2c-1.1-1.3-2.5-2.4-3.5-3.7c-1.1-1.5-2-3.2-2.5-5c-1-3.6-0.2-7,1.8-10.2c1.7-2.7,4-5.1,5-8.2
						c1.3-4.4-0.6-8.9-2.3-12.9C54.9,40.9,53.9,41.2,54,41.5L54,41.5z"/>
				</g>
			</g>
			<g>
				<g>
					<path class="st8" d="M64.7,48.1c-3.9,1.1-7.8,2.3-11.6,3.7c-1.4,0.5-3.3,0.9-4.5,1.9c-1.2,1-0.8,2.6-0.5,3.9
						c1,3.8,2.6,7.3,4.6,10.7c0.9,1.6,1.8,3.1,2.8,4.5c0.6,0.9,1.3,1.7,1.7,2.7c0.5,1.4-0.3,2.3-1.3,3.2c-1.7,1.5-3.4,3-5.1,4.6
						c-1,0.9-2.5,2.4-1.6,3.9c0.2,0.2,0.9,0,0.8-0.2c-1.3-2.1,2.4-4.4,3.7-5.6c0.9-0.8,1.9-1.7,2.8-2.5c0.5-0.5,1.1-0.9,1.4-1.5
						c0.9-1.8-1.2-3.9-2.1-5.3c-1.3-1.9-2.5-4-3.6-6c-1-2-1.9-4-2.6-6.1c-0.4-1.1-0.7-2.2-1-3.3c-0.4-1.7,0.1-2.8,1.8-3.5
						c4.6-1.9,9.5-3.3,14.3-4.7C65.3,48.3,65.2,48,64.7,48.1L64.7,48.1z"/>
				</g>
			</g>
			<g>
				<g>
					<path class="st8" d="M45.8,31.8c0.1,1.3,1.1,2.1,2,2.8c0.9,0.7,2.5,1.4,2.9,2.5c0.3,0.9-0.3,2-0.6,2.9
						c-0.3,1.2-0.6,2.5-0.9,3.8c-0.5,2.5-0.9,5.1-1.2,7.6c-0.3,2.6-0.4,5.3-0.4,8c0,1.8-0.3,4.4,1,5.9c1.2,1.3,3.1,1.2,4.6,1.5
						c2.1,0.5,3.6,2.1,4.6,3.9c2.7,5.2-0.1,10.8-3.1,15.2c-0.4,0.6,0.6,0.8,0.9,0.4c2.5-3.7,4.9-8.1,4.2-12.7
						c-0.5-3.5-2.9-6.8-6.5-7.6c-1-0.2-2.1-0.2-3.1-0.6c-1.4-0.7-1.5-2.2-1.6-3.6c-0.1-2.7-0.1-5.3,0.1-8c0.2-2.7,0.5-5.5,1.1-8.1
						c0.2-1.3,0.5-2.6,0.8-3.9c0.3-1.3,0.8-2.6,1-3.8c0.5-3.1-4.7-3.4-5-6.3C46.9,31,45.8,31.2,45.8,31.8L45.8,31.8z"/>
				</g>
			</g>
			<g>
				<g>
					<path class="st8" d="M51,54.5c-1.5-1.6-2.8-5.2-5.7-4.2c-1.1,0.4-1.7,1.4-2.1,2.5c-0.6,1.6-1,3.3-1.4,4.9
						c-1.6,7.1-1.8,14.6-4.4,21.5c-0.2,0.5,0.7,0.5,0.8,0.1c2.1-5.4,2.6-11.2,3.6-16.9c0.5-3,1.1-6,2-8.8c0.2-0.6,0.4-1.2,0.7-1.7
						c0.8-1.3,2.2-1.3,3.3-0.4c1.1,0.9,1.6,2.3,2.6,3.4C50.5,55.2,51.3,54.8,51,54.5L51,54.5z"/>
				</g>
			</g>
			<g>
				<g>
					<path class="st8" d="M66.8,52.7c-2.9,0.4-5.5,1.8-8.2,2.7c-0.5,0.2-0.4,0.8,0.2,0.6c2.7-0.9,5.2-2.3,8-2.7
						c0.2,0,0.4-0.1,0.5-0.3C67.2,52.8,66.9,52.7,66.8,52.7L66.8,52.7z"/>
				</g>
			</g>
			<g>
				<g>
					<path class="st8" d="M53.4,41.7c0.1,8.5,0.3,17.1,0.4,25.6c0.1,8.4-0.5,16.6-2.5,24.7c-1.1,4.5-2.5,9-4,13.4
						c-0.1,0.2,0.8,0.1,0.8-0.1c2.5-7.8,5-15.7,5.9-23.9c1-8.3,0.5-16.8,0.4-25.2c-0.1-4.9-0.2-9.8-0.3-14.7
						C54.3,41.3,53.4,41.4,53.4,41.7L53.4,41.7z"/>
				</g>
			</g>
			<g>
				<g>
					<path class="st8" d="M43.4,67.1c1.4,7.6,5.8,14.2,7.1,21.8c0.7,4,0.1,7.7-1.2,11.5c-1.3,3.6-2,7.1-1.1,11
						c0.1,0.2,0.9,0,0.8-0.2c-0.9-4.1,0-7.7,1.3-11.5c1.3-3.6,1.7-7.2,1-11c-1.3-7.6-5.8-14.2-7.1-21.8
						C44.2,66.6,43.4,66.8,43.4,67.1L43.4,67.1z"/>
				</g>
			</g>
			<g>
				<g>
					<path class="st8" d="M43.2,37.9c0,2.1,2.4,3,3.7,4.2c0.9,0.7,1.2,1.5,0.9,2.6c-0.6,1.8-1.3,3.5-2.1,5.2
						c-1.6,3.4-3.6,6.7-6.3,9.3c-1.1,1-2.5,2-2.7,3.6c-0.3,1.8,0.9,3.7,1.6,5.2c1.9,3.9,4.2,7.5,6.9,10.8c0.2,0.2,1.2-0.2,1-0.4
						c-2.5-3.1-4.7-6.4-6.5-9.9c-0.8-1.5-1.9-3.4-2-5.1c-0.1-2.1,1.8-3.3,3.1-4.6c2.4-2.5,4.3-5.5,5.8-8.6c0.8-1.7,1.5-3.5,2.2-5.2
						c0.3-0.9,0.5-1.6-0.1-2.5c-1.3-1.7-4.3-2.3-4.3-4.8C44.3,37.4,43.2,37.6,43.2,37.9L43.2,37.9z"/>
				</g>
			</g>
			<g>
				<g>
					<path class="st8" d="M47.8,37.1c0.8,2.2,3,3.4,4.6,4.9c0.8,0.8,1.6,1.7,1.5,2.9c-0.1,1.7-0.9,3.6-1.4,5.2
						c-1.2,4-2.6,7.9-4.1,11.8c-0.7,1.8-1.5,3.7-2.2,5.5c-0.7,1.6-1.7,3.3-2.1,5c-0.5,1.9,1,3.5,1.9,5c1.2,2,2.5,4,3.7,6
						c0.2,0.3,1,0,0.8-0.4c-1.4-2.2-2.7-4.4-4.1-6.6c-0.7-1.2-1.8-2.4-1.5-3.9c0.2-1.3,1-2.6,1.6-3.8c2-4.5,3.8-9.2,5.4-13.9
						c0.7-2.2,1.4-4.4,2.1-6.6c0.5-1.5,1.3-3.3,0.5-4.9c-1.3-2.6-4.7-3.6-5.8-6.4C48.5,36.5,47.7,36.8,47.8,37.1L47.8,37.1z"/>
				</g>
			</g>
			<g>
				<g>
					<path class="st8" d="M34.5,39.1c3.1,7.2,8.4,13.1,11.8,20.2c1.7,3.4,2.8,7.1,2.6,10.9c-0.2,4.5-2.3,8.8-3.5,13.1
						c-1.2,4.5-1.6,9.4,0.9,13.6c0.3,0.4,1.3,0,1-0.5c-5-8.5,2.1-17.3,2.7-25.9c0.5-7.4-3.8-14-7.6-20c-2.5-3.8-5-7.6-6.8-11.7
						C35.4,38.3,34.3,38.6,34.5,39.1L34.5,39.1z"/>
				</g>
			</g>
			<g>
				<g>
					<path class="st8" d="M36.3,65.2c3.1,6.3,2.1,13.5,2.8,20.2c0.3,3.4,1.1,6.7,2.8,9.8c1.5,2.7,3.5,5,5.5,7.3
						c2.4,2.8,4.8,5.7,6.2,9.2c0.1,0.2,0.9-0.1,0.8-0.2c-2.5-5.9-7.6-10.1-11-15.4c-3.8-6-3.5-13-3.8-19.8
						c-0.2-3.9-0.7-7.8-2.4-11.3C37,64.8,36.2,65.1,36.3,65.2L36.3,65.2z"/>
				</g>
			</g>
			<g>
				<g>
					<path class="st9" d="M41.3,44.1c-1.2,16-9.8,30.9-8.5,47.3c0,0.2,1.1,0,1.1-0.3c-1.3-16.3,7.3-31.2,8.5-47.3
						C42.4,43.7,41.3,43.8,41.3,44.1L41.3,44.1z"/>
				</g>
			</g>
			<g>
				<g>
					<path class="st8" d="M48.1,40.8c-1.1,2.9-3.2,5.2-3.7,8.3c-0.4,2.4-0.1,5.7-2.3,7.3c-0.6,0.4,0.3,0.8,0.7,0.5
						c2.3-1.6,2.2-4.6,2.6-7.1c0.2-1.6,0.7-3,1.4-4.4c0.8-1.5,1.8-2.9,2.4-4.6C49.4,40.3,48.3,40.3,48.1,40.8L48.1,40.8z"/>
				</g>
			</g>
			<g>
				<g>
					<path class="st8" d="M34.7,42.7c-1.2,2.5-1.6,5-1.4,7.8c0.2,2.8,0.7,5.6,0.6,8.5c-0.3,6-1.2,12.9,3.9,17.2
						c0.2,0.2,1.2-0.2,1-0.4c-5.1-4.3-4.1-11.2-3.9-17.1c0.1-2.7-0.3-5.3-0.6-7.9c-0.2-2.9,0-5.6,1.3-8.2
						C35.8,42.4,34.8,42.5,34.7,42.7L34.7,42.7z"/>
				</g>
			</g>
			<g>
				<g>
					<path class="st8" d="M66.1,38.2c-2,0.9-2.4,4.2-2.7,6c-0.6,3.7-0.8,7.4-1.1,11.1c-0.2,1.7-0.4,3.4-0.8,5
						c-0.2,1.1-0.5,2.4-1.3,3.2c-0.5,0.5-1.3,0.5-2,0.7c-1.2,0.3-2.5,0.6-3.6,1.2c-2.5,1.2-3.7,3.4-4.2,6c-1.5,8-2.2,16.2-2.9,24.2
						c0,0.4,0.8,0.3,0.8-0.1c0.6-7,1.4-14.1,2.4-21.1c0.5-3.4,0.8-7,4.2-8.7c1.2-0.6,2.5-0.9,3.8-1.2c0.6-0.1,1.3-0.2,1.8-0.6
						c1.8-1.2,2.1-4.5,2.3-6.4c0.5-3.6,0.7-7.2,1.1-10.8c0.2-1.8,0.4-3.5,0.8-5.2c0.3-1,0.6-2.6,1.7-3.1
						C66.9,38.4,66.5,38,66.1,38.2L66.1,38.2z"/>
				</g>
			</g>
			<g>
				<g>
					<path class="st7" d="M39.1,38.7c0.4,0.9,2,0.8,2.7,0.8c1.4,0.1,2.8-0.1,4.2,0.2c0.7,0.1,0.6,0.3,0.6,1
						c-0.1,1.4-0.5,2.8-0.6,4.2c-0.2,2.8,0.4,5.5,1.1,8.2c0.1,0.5,1.2,0.2,1.1-0.3c-0.7-2.8-1.4-5.6-1-8.5c0.2-1.4,0.6-2.8,0.5-4.2
						c0-0.5-0.1-0.8-0.6-0.9c-1.1-0.5-2.6-0.3-3.8-0.3c-0.7,0-1.4,0-2-0.1c-0.2,0-1,0-1.1-0.3C40,37.9,38.9,38.2,39.1,38.7
						L39.1,38.7z"/>
				</g>
			</g>
			<g>
				<g>
					<path class="st8" d="M39,63.8C38.8,70,37.5,76.2,35.2,82c-0.2,0.4,0.7,0.5,0.8,0.1c2.4-5.8,3.7-12,3.8-18.3
						C39.8,63.3,39,63.4,39,63.8L39,63.8z"/>
				</g>
			</g>
			<g>
				<g>
					<path class="st7" d="M46.4,60.9c-1,5.9-1.6,11.8-1.7,17.7c-0.1,4.7,1.2,11-2.3,14.8c-0.4,0.4,0.4,0.5,0.7,0.3
						c3.4-3.8,2.4-9.5,2.4-14.2c0-6.3,0.6-12.5,1.7-18.7C47.3,60.4,46.5,60.5,46.4,60.9L46.4,60.9z"/>
				</g>
			</g>
			<g>
				<g>
					<path class="st8" d="M28.6,76.8c7.1-10.5,12.5-22,16-34.2c0.1-0.5-0.7-0.5-0.8-0.1c-3.5,12.1-8.8,23.6-15.9,34
						C27.6,77,28.3,77.2,28.6,76.8L28.6,76.8z"/>
				</g>
			</g>
			<g>
				<g>
					<path class="st8" d="M40.2,76.4c0.4,0,1.2-0.5,0.4-0.5C40.3,75.9,39.5,76.4,40.2,76.4L40.2,76.4z"/>
				</g>
			</g>
			<g>
				<g>
					<path class="st8" d="M51.9,61.8c-0.6,0.5-1.2,0.9-1.7,1.4c-0.4,0.5-0.8,1.1-0.5,1.8c0.1,0.2,0.9,0,0.8-0.2
						c-0.2-0.6,0-1.2,0.4-1.6c0.5-0.5,1-0.9,1.6-1.3c0.1-0.1,0.1-0.2-0.1-0.2C52.3,61.6,52.1,61.7,51.9,61.8L51.9,61.8z"/>
				</g>
			</g>
			<g>
				<g>
					<path class="st8" d="M55.5,54.2c0.2,0,0.9-0.4,0.4-0.4C55.6,53.8,54.9,54.2,55.5,54.2L55.5,54.2z"/>
				</g>
			</g>
			<g>
				<g>
					<path class="st8" d="M34.8,86.5c1.9,4.9,3.8,9.8,5.8,14.7c1,2.5,1.9,4.8,0.7,7.4c-0.8,1.7-2,3.1-2.4,5
						c-0.1,0.3,0.8,0.2,0.8-0.1c0.4-2,1.8-3.6,2.6-5.4c1-2.3,0.2-4.4-0.7-6.6c-2-5-4-10.1-5.9-15.1C35.5,86,34.7,86.2,34.8,86.5
						L34.8,86.5z"/>
				</g>
			</g>
			<g>
				<g>
					<path class="st8" d="M37.6,70.3c1.7,5.1,3.4,10.2,5.1,15.3c0.8,2.4,1.7,4.8,2.4,7.2c0.6,2,1.1,4.4-0.5,6
						c-0.2,0.2,0.6,0.2,0.8,0c1.3-1.4,1.3-3.3,0.9-5.1c-0.6-2.5-1.6-5-2.4-7.5c-1.8-5.4-3.6-10.8-5.4-16.2
						C38.3,69.8,37.5,70,37.6,70.3L37.6,70.3z"/>
				</g>
			</g>
			<g>
				<g>
					<path class="st8" d="M23.3,43.3c4.4,7.5,9.7,16.2,8.9,25.3c-0.2,2.2-0.8,4.3-1.8,6.3c-0.9,1.8-2.3,3.4-2.4,5.4
						c-0.1,2.1,0.8,4.4,1.3,6.5c0.6,2.5,1.2,4.9,1.8,7.4c0.1,0.4,0.9,0.2,0.8-0.2c-0.6-2.6-1.2-5.1-1.8-7.7
						c-0.5-2.2-1.6-4.9-1.1-7.1c0.6-2.1,2.2-3.9,2.9-6c0.7-1.9,1.1-3.9,1.1-5.9c0.2-8.8-4.8-17-9.1-24.3
						C23.8,42.6,23,42.9,23.3,43.3L23.3,43.3z"/>
				</g>
			</g>
			<g>
				<g>
					<path class="st7" d="M45.2,63.1c0.1,0.8,0.1,1.7,0,2.5c-0.1,0.7-0.4,1.4-0.7,2.1c-0.5,1.1-1.2,2.4-0.4,3.6
						c0.2,0.3,1.3-0.1,1-0.4c-0.8-1.2,0.2-2.6,0.7-3.7c0.3-0.7,0.5-1.4,0.6-2.1c0.1-0.8,0-1.5-0.1-2.3
						C46.3,62.5,45.2,62.7,45.2,63.1L45.2,63.1z"/>
				</g>
			</g>
			<g>
				<g>
					<path class="st8" d="M48.6,79.6c1,4.7-0.8,9.8-4.5,12.8c-0.4,0.4,0.2,0.7,0.6,0.4c3.9-3.2,5.8-8.5,4.8-13.5
						C49.3,79,48.5,79.2,48.6,79.6L48.6,79.6z"/>
				</g>
			</g>
			<g>
				<g>
					<path class="st8" d="M28.8,79.6c3.3,8.4,6,17,7.8,25.9c0.1,0.4,0.9,0.2,0.8-0.2c-1.9-8.8-4.5-17.5-7.8-25.9
						C29.5,79,28.6,79.2,28.8,79.6L28.8,79.6z"/>
				</g>
			</g>
			<g>
				<g>
					<path class="st8" d="M29.7,85.2c3,4.7,5.6,9.6,7.8,14.7c1.1,2.5,2,5,2.9,7.6c0.4,1.4,0.9,2.7,1.3,4.1c0.2,0.8,0.3,2,1.3,2.2
						c0.2,0,0.9-0.3,0.7-0.3c-1.1-0.2-1.3-2.6-1.6-3.5c-0.4-1.3-0.8-2.6-1.2-3.9c-0.9-2.5-1.8-4.9-2.9-7.4
						c-2.1-4.8-4.6-9.5-7.4-13.9C30.4,84.8,29.7,85.1,29.7,85.2L29.7,85.2z"/>
				</g>
			</g>
			<g>
				<g>
					<path class="st8" d="M44.3,82.4c-5.2,0.7-9.1,4.5-11.5,8.9c-1.3,2.5-2.5,5.1-3.2,7.8c-0.8,2.7-1.1,5.5,0.2,8.1
						c0.1,0.3,1,0,0.8-0.2c-2.2-4.6,0.3-10.4,2.4-14.6c2.2-4.5,5.9-8.9,11.2-9.6C44.6,82.8,44.8,82.3,44.3,82.4L44.3,82.4z"/>
				</g>
			</g>
			<g>
				<g>
					<path class="st8" d="M43.1,91.2c-1.2,3.9-1.8,7.9-1.7,12c0.1,3.8,1,7.9-0.9,11.4c-0.1,0.1,0.7,0.1,0.8-0.1
						c1.8-3.3,1.1-7.1,0.9-10.6c-0.2-4.3,0.4-8.7,1.7-12.8C44,90.9,43.2,91,43.1,91.2L43.1,91.2z"/>
				</g>
			</g>
			<g>
				<g>
					<path class="st7" d="M33.7,56.8c2.7,7.1,5.4,14.5,5.7,22.2c0.3,7.6-3,15.2-1.3,22.7c0.1,0.3,0.9,0,0.8-0.2
						c-1.7-7.6,1.6-15.1,1.3-22.7c-0.3-7.7-3-15-5.7-22.2C34.4,56.3,33.6,56.5,33.7,56.8L33.7,56.8z"/>
				</g>
			</g>
		</g>
		<polygon class="st13" points="65.2,109.7 136.5,80.8 136.1,132.1 65.1,167.5 		"/>
		<g>
			<g>
				<path class="st8" d="M42.9,111c-1-11.9,0.8-23.8,0-35.8c-0.2-2.9-0.6-5.8-1.2-8.7c-0.5-2.5-1.2-5-2.4-7.2
					c-2-3.7-5.4-6.5-8.7-9.1c-3.8-3-8-5.9-11-9.8c-0.2-0.3-1.3,0.1-1,0.4c5.3,6.9,13.9,10.3,18.8,17.5c1.4,2,2.1,4.4,2.7,6.7
					c0.7,2.8,1.2,5.7,1.5,8.7c0.6,5.8,0.4,11.6,0.2,17.3c-0.2,6.7-0.6,13.5,0,20.2C41.9,111.6,43,111.4,42.9,111L42.9,111z"/>
			</g>
		</g>
		<g>
			<g>
				<g>
					<path class="st8" d="M40.7,58c7.7,14.3,5.9,31.6,5.5,47.2c-0.1,5.1-0.3,10.2-0.4,15.2c0,0.4,0.8,0.3,0.8-0.1
						c0.2-9.1,0.5-18.1,0.7-27.2c0.2-7.8,0.2-15.6-1.4-23.3c-0.9-4.3-2.3-8.4-4.4-12.3C41.3,57.3,40.5,57.6,40.7,58L40.7,58z"/>
				</g>
			</g>
			<g>
				<g>
					<path class="st8" d="M26.9,41c3.6,2.1,7.5,3.7,11,6.1c1.7,1.2,3.5,2.7,4.4,4.7c1.3,2.7,2.3,5.6,3,8.5c0.6,2.9,0.6,5.8-0.5,8.6
						c-0.9,2.4-2.4,4.6-3.5,6.9c-2.1,4.7-1.6,9.8,0.7,14.4c1.3,2.7,3.4,4.7,5.1,7.1c2.3,3.2,2,6.7,1.1,10.3c-0.1,0.4,1,0.2,1.1-0.1
						c0.7-2.9,1.3-6.1-0.1-8.9c-1.2-2.4-3.2-4.1-4.7-6.3c-3.1-4.6-4.5-10.5-2.4-15.8c1-2.4,2.5-4.6,3.6-7c1.1-2.6,1.4-5.3,1-8.1
						c-0.5-3-1.6-5.9-2.7-8.7c-0.8-2-2-3.5-3.6-4.9c-3.8-3.1-8.3-4.8-12.5-7.2C27.4,40.2,26.4,40.7,26.9,41L26.9,41z"/>
				</g>
			</g>
			<g>
				<g>
					<path class="st8" d="M33.5,40.7c0.2,1.5,1.3,2.4,2.5,3.3c1.1,0.8,2.7,1.6,3.2,3c0.3,1-0.1,2.1-0.3,3c-0.2,1.5-0.4,2.9-0.6,4.4
						c-0.3,2.7-0.5,5.4-0.5,8.2c-0.1,2.9,0,5.8,0.2,8.7c0.1,2.1-0.1,5.3,1.6,7c1.4,1.4,3.7,1.2,5.3,2.4c1.8,1.2,3,3.2,3.7,5.2
						c2.1,5.4,0.4,11.1-2.2,16c-0.1,0.3,0.9,0.2,1.1-0.2c2.2-4.3,3.9-9.2,2.8-14.1c-0.8-3.7-3-7.5-6.9-8.5c-1.1-0.3-2.2-0.5-3-1.4
						c-1-1.1-1-2.9-1.2-4.3c-0.3-2.9-0.4-5.8-0.4-8.7c0-3,0.1-6,0.4-9c0.1-1.3,0.3-2.7,0.5-4c0.2-1.4,0.6-2.8,0.7-4.1
						c0.2-3.4-5.2-3.9-5.7-7.2C34.5,40.1,33.4,40.4,33.5,40.7L33.5,40.7z"/>
				</g>
			</g>
			<g>
				<g>
					<path class="st8" d="M41.9,52.2c0.8,9.4,1.6,18.9,2.3,28.3c0.7,9.1,0.8,18.2-0.4,27.3c-0.7,5-1.7,10-2.7,15
						c-0.1,0.4,0.8,0.3,0.8-0.1c1.8-8.9,3.5-17.8,3.7-26.9c0.2-9.3-0.8-18.5-1.6-27.7c-0.4-5.4-0.9-10.8-1.3-16.2
						C42.7,51.5,41.9,51.7,41.9,52.2L41.9,52.2z"/>
				</g>
			</g>
			<g>
				<g>
					<path class="st8" d="M34.6,79.7c1.8,8.4,6.2,16,8.1,24.4c1,4.4,0.9,8.6-0.1,12.9c-1,4.2-1.3,8.2-0.2,12.4
						c0.1,0.4,0.9,0.1,0.8-0.2c-0.6-2.2-0.8-4.5-0.7-6.8c0.1-2.2,0.7-4.3,1.1-6.4c0.9-4.1,0.8-8.1-0.1-12.2
						c-1.9-8.4-6.3-16-8.1-24.4C35.4,79.1,34.5,79.3,34.6,79.7L34.6,79.7z"/>
				</g>
			</g>
			<g>
				<g>
					<path class="st8" d="M38.2,45.1c0.2,4.7-1,9.4-2.3,13.8c-1.2,4.2-2.9,8.4-5.7,11.7C29.1,71.9,28,73,28,74.8
						c0.1,2.2,1.4,4.5,2.3,6.5c1.9,4.1,4.1,7.9,6.7,11.6c0.3,0.4,1.3,0,1-0.5c-2.6-3.7-4.9-7.7-6.8-11.8c-0.9-1.9-2.3-4.3-2.1-6.4
						c0.2-2,2.3-3.6,3.4-5.1c2.2-3.2,3.6-7,4.6-10.7c1.2-4.4,2.3-8.9,2.1-13.4C39.3,44.4,38.2,44.6,38.2,45.1L38.2,45.1z"/>
				</g>
			</g>
			<g>
				<g>
					<path class="st8" d="M36,84c-0.4,1.1-0.6,2.2-0.3,3.4c0.4,1.2,1.1,2.3,1.7,3.4c1.4,2.5,2.8,5,4.2,7.5c0.2,0.3,1,0,0.8-0.3
						c-1.3-2.3-2.6-4.7-3.9-7c-0.6-1.1-1.4-2.2-1.8-3.4c-0.5-1.2-0.2-2.4,0.2-3.6C36.9,83.6,36.1,83.7,36,84L36,84z"/>
				</g>
			</g>
			<g>
				<g>
					<path class="st8" d="M30.4,45.8c3.5,8.6,7,17.2,8.8,26.4c0.8,4.4,1.2,8.9,0.8,13.4c-0.4,4.6-1.7,9-2.3,13.6
						c-0.6,4.7-0.4,9.7,1.9,13.9c0.1,0.2,0.9-0.1,0.8-0.2c-4.4-8.3-0.9-17.1,0.3-25.7c1.2-9-0.9-18.1-3.7-26.6
						c-1.7-5.1-3.7-10-5.7-14.9C31.2,45.4,30.4,45.7,30.4,45.8L30.4,45.8z"/>
				</g>
			</g>
			<g>
				<g>
					<path class="st8" d="M27.9,77.1c3.2,7.1,3,15,4,22.6c0.5,3.8,1.4,7.5,3.1,10.9c1.5,3.1,3.6,5.9,5.6,8.8
						c2.5,3.4,4.9,6.9,6.5,10.9c0.1,0.2,0.9,0,0.8-0.2c-2.7-6.7-7.9-12-11.4-18.2c-3.8-6.9-4.1-14.5-4.9-22.2
						c-0.5-4.4-1.2-8.7-3-12.8C28.6,76.6,27.8,76.9,27.9,77.1L27.9,77.1z"/>
				</g>
			</g>
			<g>
				<g>
					<path class="st8" d="M49.2,51.7c-4.5,7.7-8.8,15.7-10.3,24.6c-0.8,4.8-0.4,9.6,0,14.4c0.5,5,0.7,10-0.2,15
						c-0.9,4.9-2.6,9.6-5.4,13.8c-0.1,0.1,0.7,0.1,0.8-0.1c5.1-7.7,6.5-16.9,5.8-26c-0.4-5.2-1.1-10.3-0.5-15.5
						c0.5-4.5,1.8-8.9,3.6-13c1.9-4.6,4.4-9,6.9-13.3C50.2,51.4,49.4,51.5,49.2,51.7L49.2,51.7z"/>
				</g>
			</g>
			<g>
				<g>
					<path class="st9" d="M30.9,53.8c0.1,17.6-6.6,34.6-4.3,52.2c0.1,0.4,1.2,0.2,1.1-0.3c-2.3-17.6,4.4-34.5,4.3-52
						C32,53.2,30.9,53.4,30.9,53.8L30.9,53.8z"/>
				</g>
			</g>
			<g>
				<g>
					<path class="st7" d="M47.6,84.4c-2.9,7.2-8.2,13.2-10.7,20.6c-2.6,7.6-2.9,15.9-1.6,23.7c0,0.2,0.9,0,0.8-0.2
						c-1.4-8-1-16.4,1.7-24c2.5-7.2,7.7-13.1,10.6-20.2C48.5,84.1,47.7,84.2,47.6,84.4L47.6,84.4z"/>
				</g>
			</g>
			<g>
				<g>
					<path class="st8" d="M36.9,50.8c-0.8,3.2-2.6,5.9-2.8,9.3c-0.1,2.4,0.5,6-1.6,7.8c-0.5,0.4,0.6,0.5,0.9,0.2
						c2.1-1.8,1.7-5.1,1.8-7.6c0.1-1.7,0.4-3.2,1-4.8c0.6-1.7,1.4-3.3,1.9-5C38.1,50.3,37,50.5,36.9,50.8L36.9,50.8z"/>
				</g>
			</g>
			<g>
				<g>
					<path class="st8" d="M25.5,38.5c0,1.4,0.2,2.7,0.7,4c0.4,1.1,1.1,2.1,1.5,3.3c0.5,1.5,0.3,2.7-0.1,4.2c-0.6,1.7-1,3.4-1.3,5.1
						c-0.7,3.8-0.9,7.6-0.9,11.5c-0.1,4-0.2,8,0.3,12c0.5,4,1.8,8.1,4.6,11c0.4,0.4,1.4-0.1,1-0.5c-5.5-5.7-4.9-14.6-4.8-21.9
						c0.1-3.8,0.2-7.7,0.8-11.5c0.3-1.9,0.8-3.7,1.4-5.5c0.4-1.1,0.7-2.2,0.5-3.4c-0.2-1.3-0.8-2.4-1.4-3.5c-0.7-1.5-1.1-3-1.1-4.7
						C26.6,37.9,25.5,38,25.5,38.5L25.5,38.5z"/>
				</g>
			</g>
			<g>
				<g>
					<path class="st7" d="M35.5,49.7c0.2,2.4-0.3,4.8-0.1,7.3c0.2,2.5,0.9,4.9,1.5,7.3c0.1,0.2,1.2-0.1,1.1-0.3
						c-0.6-2.4-1.3-4.8-1.5-7.3c-0.2-2.4,0.3-4.8,0.1-7.3C36.6,49.3,35.5,49.5,35.5,49.7L35.5,49.7z"/>
				</g>
			</g>
			<g>
				<g>
					<path class="st8" d="M30.3,75.8c0.3,6.7-0.4,13.5-2.1,20c-0.1,0.2,0.8,0.1,0.8-0.1c1.8-6.5,2.4-13.3,2.1-20.1
						C31.1,75.4,30.3,75.6,30.3,75.8L30.3,75.8z"/>
				</g>
			</g>
			<g>
				<g>
					<path class="st7" d="M36.9,73c-0.5,6.4-0.6,12.8-0.2,19.2c0.2,3,0.5,6,0.6,9c0.1,2.7,0,5.7-1.6,7.9c-0.2,0.3,0.6,0.3,0.8,0
						c1.5-2.1,1.7-4.6,1.7-7.1c0-2.9-0.4-5.7-0.6-8.6c-0.4-6.8-0.4-13.7,0.2-20.5C37.7,72.6,36.9,72.8,36.9,73L36.9,73z"/>
				</g>
			</g>
			<g>
				<g>
					<path class="st8" d="M21.8,89.2c5.9-11.6,9.9-24.1,12.1-36.9c0-0.1-0.8,0-0.8,0.2C30.9,65.4,26.9,77.8,21,89.4
						C21,89.5,21.7,89.4,21.8,89.2L21.8,89.2z"/>
				</g>
			</g>
			<g>
				<g>
					<path class="st8" d="M20.6,40.7c1.9,8.5,5.4,16.6,8.2,24.9c2.6,7.8,4.6,16,3.2,24.2c0,0.1,1,0,1.1-0.3
						c1.4-8.2-0.6-16.4-3.2-24.2C27.1,57,23.7,49,21.7,40.4C21.7,40.2,20.6,40.5,20.6,40.7L20.6,40.7z"/>
				</g>
			</g>
			<g>
				<g>
					<path class="st8" d="M35.6,35.7c1.4,7.7,5.6,14.5,7.7,22c1.1,3.8,1.4,7.7,0.8,11.6c-0.3,1.8-0.8,3.8-2.1,5.1
						c-1,1-2.3,1.9-1.8,3.5c0.1,0.3,1.2,0,1.1-0.3c-0.6-1.9,1.9-3,2.7-4.5c0.8-1.4,1.2-3.1,1.3-4.8c0.4-3.7,0.1-7.4-0.9-11
						c-2.1-7.5-6.3-14.2-7.7-22C36.6,35.1,35.5,35.4,35.6,35.7L35.6,35.7z"/>
				</g>
			</g>
			<g>
				<g>
					<path class="st8" d="M28.2,100.8c2.1,5.4,4.1,10.8,6.2,16.2c0.9,2.5,2.3,5.1,1.7,7.8c-0.5,2.2-1.9,4.1-2.1,6.4
						c0,0.3,0.8,0.1,0.8-0.1c0.2-2.3,1.6-4.2,2.1-6.4c0.6-2.6-0.6-5.1-1.5-7.5c-2.1-5.6-4.2-11.1-6.4-16.7
						C28.9,100.3,28.1,100.5,28.2,100.8L28.2,100.8z"/>
				</g>
			</g>
			<g>
				<g>
					<path class="st8" d="M29.5,82.9c1.9,5.6,3.8,11.3,5.7,16.9c0.9,2.7,1.8,5.4,2.7,8.2c0.7,2.1,1.7,5.2,0.2,7.2
						c-0.3,0.4,0.5,0.5,0.7,0.2c1.3-1.7,1-3.9,0.5-5.8c-0.7-2.9-1.9-5.8-2.8-8.6c-2-6.1-4.1-12.2-6.1-18.3
						C30.2,82.3,29.4,82.5,29.5,82.9L29.5,82.9z"/>
				</g>
			</g>
			<g>
				<g>
					<path class="st8" d="M20.2,49.6c3.6,6.9,5.5,14.6,5.7,22.3c0.1,3.9-0.3,7.8-1.3,11.5c-0.4,1.7-1,3.3-1.6,4.9
						c-0.7,1.8-1.6,3.4-1.4,5.4c0.2,2.5,1.1,5,1.7,7.4c0.7,2.6,1.4,5.3,2.1,7.9c0.1,0.2,0.9,0,0.8-0.2c-1.2-4.5-2.5-9-3.5-13.6
						c-0.3-1.1-0.4-2.2-0.2-3.4c0.2-1,0.7-2,1.1-2.9c0.7-1.6,1.3-3.2,1.7-4.9c2-7.2,1.9-14.9,0.4-22.2c-0.9-4.3-2.5-8.5-4.5-12.5
						C20.9,49.2,20.1,49.4,20.2,49.6L20.2,49.6z"/>
				</g>
			</g>
			<g>
				<g>
					<path class="st7" d="M36.1,75.4c0.1,0.8,0.2,1.7,0.2,2.5c0,0.8-0.2,1.6-0.4,2.4c-0.4,1.3-1.1,2.8-0.3,4.1
						c0.1,0.2,0.9-0.1,0.8-0.2c-0.8-1.4-0.1-2.9,0.4-4.3c0.5-1.5,0.4-3.1,0.1-4.7C36.9,75,36.1,75.2,36.1,75.4L36.1,75.4z"/>
				</g>
			</g>
			<g>
				<g>
					<path class="st7" d="M24.5,44.7c0.3,0,0.9-0.4,0.3-0.4C24.5,44.3,23.9,44.7,24.5,44.7L24.5,44.7z"/>
				</g>
			</g>
			<g>
				<g>
					<path class="st8" d="M40.3,94.1c1.1,4.8,0.4,10.5-3.2,14.1c-0.4,0.4,0.5,0.4,0.7,0.2c3.8-3.7,4.5-9.6,3.4-14.5
						C41,93.5,40.2,93.7,40.3,94.1L40.3,94.1z"/>
				</g>
			</g>
			<g>
				<g>
					<path class="st8" d="M22.1,92.6c3.7,9.6,6.7,19.4,9.1,29.5c0,0.2,0.9-0.1,0.8-0.2c-2.4-10-5.4-19.9-9.1-29.5
						C22.9,92.2,22,92.4,22.1,92.6L22.1,92.6z"/>
				</g>
			</g>
			<g>
				<g>
					<path class="st8" d="M23.4,99c3.2,5.6,6,11.4,8.4,17.4c1.2,2.9,2.2,5.9,3.2,8.9c0.5,1.5,0.9,2.9,1.4,4.4
						c0.2,0.8,0.4,2.1,1.4,2.3c0.3,0.1,1-0.4,0.5-0.5c-0.7-0.2-0.9-1.5-1-2.1c-0.2-0.7-0.4-1.5-0.7-2.2c-0.5-1.5-0.9-2.9-1.4-4.4
						c-1-2.8-2-5.6-3.2-8.4c-2.3-5.4-4.9-10.7-7.8-15.8C24,98.4,23.2,98.7,23.4,99L23.4,99z"/>
				</g>
			</g>
			<g>
				<g>
					<path class="st8" d="M36.7,96.9c-5.2,0.4-8.4,4.8-10.2,9.3c-2,5.2-3.9,11.9-1.5,17.3c0.1,0.2,0.9-0.1,0.8-0.2
						c-2.1-4.7-0.8-10,0.7-14.7c1.4-4.7,4.2-10.9,9.9-11.3C36.6,97.3,37.3,96.9,36.7,96.9L36.7,96.9z"/>
				</g>
			</g>
			<g>
				<g>
					<path class="st8" d="M36.1,106.6c-0.8,4.3-1,8.7-0.7,13.1c0.3,4.2,1.7,8.7,0.1,12.8c-0.2,0.4,0.7,0.4,0.8,0.1
						c1.5-3.7,0.5-7.8,0.1-11.6c-0.5-4.8-0.4-9.6,0.6-14.4C37.1,106.1,36.2,106.3,36.1,106.6L36.1,106.6z"/>
				</g>
			</g>
			<g>
				<g>
					<path class="st7" d="M24.9,67.5c2.9,8.1,5.9,16.3,6.8,24.8c0.9,8.5-1.5,17.2,0.5,25.6c0.1,0.4,0.9,0.1,0.8-0.2
						c-2.1-8.4,0.4-17.1-0.5-25.6c-0.9-8.6-3.9-16.8-6.8-24.8C25.6,66.9,24.8,67.1,24.9,67.5L24.9,67.5z"/>
				</g>
			</g>
		</g>
		<g>
			<g>
				<path class="st8" d="M31.7,52.9c0.4,2.1,1.2,4.2,2.6,5.9c0.7,0.9,1.6,1.7,2.5,2.4c1.2,0.9,1.2,1.9,1.3,3.3c0.1,1.5,0,3-0.3,4.4
					c-0.2,1.3-0.6,2.7-0.7,4c-0.1,2.4,1.2,4.2,2.7,5.9c0.1,0.2,0.9-0.1,0.8-0.3c-1.9-2.2-3-4.1-2.5-7.1c0.5-2.6,0.9-5.1,0.8-7.7
					c-0.1-1-0.1-1.9-0.9-2.6c-0.8-0.7-1.7-1.3-2.5-2.1c-1.6-1.8-2.7-4-3.1-6.4C32.5,52.4,31.7,52.6,31.7,52.9L31.7,52.9z"/>
			</g>
		</g>
		<g>
			<g>
				<path class="st8" d="M31.5,71.3c0.4,0,1.2-0.6,0.4-0.6C31.6,70.7,30.8,71.3,31.5,71.3L31.5,71.3z"/>
			</g>
		</g>
		<g>
			<g>
				<path class="st8" d="M29.8,72.9c0.4,0,1.2-0.5,0.4-0.5C29.9,72.4,29.1,72.9,29.8,72.9L29.8,72.9z"/>
			</g>
		</g>
		<g>
			<g>
				<path class="st8" d="M31.3,89.6c-0.9-4.5-1.9-9-2.8-13.5c-0.2-0.8-0.4-1.7,0.2-2.3c0.3-0.4,0.7-0.5,1.1-0.6
					c0.5-0.2,1.1-0.4,1.5-0.9c1-1.1,0.6-2.8,0.1-4c-1.1-3.1-3.6-5.4-5.1-8.2c-1-1.8-1.2-3.6-1.5-5.5c-0.3-1.9-1-3.6-2.1-5.1
					c-0.7-1-1.3-2.3-2.7-2.1c-0.6,0.1-1.1,0.3-1.7,0.4c-0.3,0.1-0.6,0.2-0.9,0.3c-0.1,0-0.2,0.1-0.3,0.1c-0.3,0.1-0.4,0-0.2-0.3
					c-0.1-0.4,0.1-0.6,0.5-0.7c0.5-0.2,0.1-0.7-0.4-0.5c-0.6,0.2-1.7,1.5-0.8,2.1c0.6,0.4,1.9-0.2,2.5-0.4c0.4-0.1,1.2-0.5,1.6-0.4
					c0.4,0.1,0.8,0.8,1.1,1.1c0.4,0.5,0.8,1,1.1,1.5c1.3,2,1.4,4,1.8,6.3c0.6,3.6,3.1,6.2,5,9.2c0.9,1.4,2.1,3.6,1.7,5.3
					c-0.4,1.8-3.1,1.3-3.5,3.1c-0.2,1,0.2,2.2,0.4,3.1c0.3,1.4,0.6,2.7,0.9,4.1c0.6,2.7,1.1,5.5,1.7,8.2
					C30.5,90.2,31.4,90,31.3,89.6L31.3,89.6z"/>
			</g>
		</g>
		<g>
			<g>
				<path class="st8" d="M22.8,94.5c-0.7-4.5-1.4-8.9-2.1-13.4c-0.1-0.5-0.1-1-0.2-1.5c-0.1-0.5-0.4-1.3-0.3-1.7
					c0.3-1,1.1-0.4,1.8-0.5c1-0.1,1.9-0.7,2.4-1.6c0.8-1.5,0.1-3.4-0.5-4.9c-0.7-1.7-1.6-3.3-2.7-4.7c-1.1-1.4-3.1-2.8-2.9-4.8
					c0.1-1.6,1.1-2.9,0.9-4.6c-0.5-3.5-4.2-6-6.5-8.3c-0.2-0.2-1,0.1-0.8,0.3c2.2,2.2,5.3,4.4,6.3,7.5c0.5,1.7-0.2,3-0.6,4.7
					c-0.4,1.7,0.5,2.8,1.6,4c1.3,1.4,2.4,3,3.3,4.7c0.8,1.6,1.8,3.8,1.4,5.7c-0.3,1.4-1.4,1.7-2.7,1.5c-0.3-0.1-0.7-0.1-1,0
					c-1.4,0.4-0.7,2.3-0.5,3.3c0.7,4.9,1.5,9.7,2.2,14.6C22,94.9,22.9,94.8,22.8,94.5L22.8,94.5z"/>
			</g>
		</g>
		<g>
			<g>
				<path class="st8" d="M45.8,38.9c0.1,1.1,0.3,2.3,1.3,3c0.6,0.3,1.2,0.4,1.5,1.1c0.3,0.7,0.3,1.5,0.4,2.3
					c0.5,3.4,0.9,6.7,1.4,10.1c0.1,0.4,1.2,0.2,1.1-0.3c-0.5-3.4-0.9-6.7-1.4-10.1c-0.2-1.2-0.1-2.6-1.3-3.3
					c-0.6-0.4-1.3-0.5-1.6-1.3c-0.3-0.6-0.3-1.2-0.3-1.8C46.8,38.2,45.7,38.4,45.8,38.9L45.8,38.9z"/>
			</g>
		</g>
		<g>
			<g>
				<path class="st8" d="M56.2,95c0.4,0,1.2-0.6,0.4-0.6C56.2,94.4,55.5,95,56.2,95L56.2,95z"/>
			</g>
		</g>
		<g>
			<g>
				<path class="st8" d="M55.4,54.1c-1.3-6-5.2-11.4-5.5-17.6c-0.2,0.1-0.5,0.2-0.7,0.3c1.7,1,3.5,1.8,5.3,2.7
					c1.7,0.9,3.6,1.9,4.9,3.4c0.2,0.3,1,0,0.8-0.3c-1.2-1.5-3.1-2.5-4.8-3.4c-1.8-1-3.7-1.8-5.5-2.9c-0.2-0.1-0.8,0-0.7,0.3
					c0.3,6.3,4.2,11.6,5.5,17.6C54.7,54.7,55.5,54.5,55.4,54.1L55.4,54.1z"/>
			</g>
		</g>
		<g>
			<g>
				<path class="st8" d="M29.5,117.2c-0.5-14.3,1.5-28.6,1-42.9c0-0.5-1.1-0.3-1.1,0.1c0.4,14.3-1.5,28.6-1,42.9
					C28.4,117.9,29.5,117.6,29.5,117.2L29.5,117.2z"/>
			</g>
		</g>
		<g>
			<g>
				<path class="st8" d="M39.9,74.4c0.4,0,1.1-0.7,0.4-0.7C39.9,73.7,39.2,74.4,39.9,74.4L39.9,74.4z"/>
			</g>
		</g>
		<path class="st14" d="M10.5,94.8l52.3,24.9c-0.2-0.4,53.8-27.7,53.8-27.7L67.3,65.7L10.5,94.8z"/>
		<path class="st12" d="M123.6,79.9l-58.1,27.3l4.4,4.7l60.6-28.6L123.6,79.9z"/>
		<g>
			<g>
				<g>
					<path class="st8" d="M48.9,30.6c0.7,7.6,4.2,14.6,8.7,20.7c3.1,4.3,6.8,8.4,11,11.7c0.5,0.4,2,1.9,2.7,0.8
						c0.1-0.1-0.9-0.1-1.1,0.2c0.8-1.4,1.2,0.1,0.7-0.4c-0.1-0.1-0.4-0.2-0.5-0.3c-0.6-0.4-1.1-0.8-1.6-1.3c-1.7-1.4-3.3-3-4.8-4.6
						c-4.4-4.6-8.2-9.9-10.8-15.7c-1.6-3.6-2.8-7.4-3.1-11.4C50,30.1,48.9,30.3,48.9,30.6L48.9,30.6z"/>
				</g>
			</g>
		</g>
		<g>
			<g>
				<path class="st8" d="M22.6,81c-0.6,3,0.1,6.3,0.8,9.2c0.8,3.6,1.7,7.1,2.5,10.7c0.6,3,0.7,5.7,0.3,8.7c-0.4,3.4-1,6.8-1,10.3
					c0,2.8,0.3,6.2,2.9,7.8c0.3,0.2,1.3-0.3,0.9-0.6c-2.5-1.5-2.7-4.9-2.7-7.5c0-3.3,0.6-6.6,1-9.8c0.3-2.7,0.4-5.3-0.1-8
					c-0.6-3.4-1.5-6.8-2.3-10.2c-0.8-3.4-1.8-7.2-1.1-10.7C23.8,80.4,22.7,80.6,22.6,81L22.6,81z"/>
			</g>
		</g>
		<polygon class="st15" points="1.1,79.1 0.7,136.8 70.2,170.5 70.7,112.1 		"/>
		<polygon class="st6" points="10.7,94.9 10.7,136.8 62.9,161.9 63.1,119.4 		"/>
		<g>
			<g>
				<path class="st8" d="M33.8,74.2c0.3,0.9,0.6,1.9,0.1,2.7c-0.1,0.2,0.1,0.3,0.3,0.3c0.2,0,0.6-0.1,0.7-0.3c0.5-1,0.3-2.1,0-3.1
					c-0.1-0.2-0.5-0.2-0.6-0.1C34.2,73.9,33.8,74,33.8,74.2L33.8,74.2z"/>
			</g>
		</g>
		<g>
			<g>
				<path class="st8" d="M43.7,40c0,0,0-0.2,0-0.2c0,0.1-0.4,0.2-0.4,0.2c0.7-0.2-0.4,0.2-0.4,0.1c0,0,0,0.1,0,0
					c0,0.1,0.3,0.3,0.4,0.4c0.4,0.6,0.8,1.3,1.1,1.9c1,1.8,1.8,3.7,2.6,5.6c0.3,0.8,0.7,1.7,0.9,2.5c0.1,0.4,1.2,0.1,1.1-0.3
					c-0.5-2-1.4-4-2.3-5.9c-0.5-1-1-2-1.5-3c-0.3-0.6-0.6-1.3-1.1-1.7c-0.3-0.2-0.6-0.3-1-0.1c-0.3,0.2-0.4,0.4-0.4,0.7
					C42.6,40.6,43.7,40.4,43.7,40L43.7,40z"/>
			</g>
		</g>
		<g>
			<g>
				<path class="st8" d="M26.1,55.2c1.9,10.7,3.1,21.5,3.4,32.3c0,0.2,1.1,0,1.1-0.3c-0.3-10.9-1.5-21.7-3.4-32.3
					C27.2,54.6,26.1,54.9,26.1,55.2L26.1,55.2z"/>
			</g>
		</g>
		<g>
			<g>
				<path class="st8" d="M4.1,47.9c0.6,0.4,1.5,0.4,2.2,0.5c1,0.1,2,0.1,2.9,0.3c0.9,0.1,1.7,0.5,2.5,0.8c1.2,0.4,2.4,0.8,3.4,1.5
					c1.2,0.8,1.5,1.8,1.8,3.1c0.4,1.5,0.8,3.1,1.3,4.6c1.1,3,2.5,5.9,4.3,8.6c0.2,0.3,1.3,0,1-0.4c-1.9-2.8-3.4-5.9-4.5-9.1
					c-0.6-1.6-0.9-3.3-1.3-4.9c-0.2-1-0.8-1.7-1.6-2.3c-0.9-0.7-2-1.1-3.1-1.5c-0.9-0.3-1.9-0.8-2.8-1c-0.9-0.2-1.8-0.2-2.7-0.3
					c-0.8-0.1-1.9,0-2.6-0.4C4.6,47.2,3.6,47.6,4.1,47.9L4.1,47.9z"/>
			</g>
		</g>
		<polygon class="st5" points="76.6,109 7,76.4 0.9,79.2 70,112 		"/>
		<path class="st13" d="M70.1,111.9c0.2,0.5,66.2-31.5,66.2-31.5l-0.2,57l-65.8,33L70.1,111.9z"/>
	</g>
</g>
</svg>
