<?xml version="1.0" encoding="utf-8"?>
<!-- Generator: Adobe Illustrator 25.2.3, SVG Export Plug-In . SVG Version: 6.00 Build 0)  -->
<svg version="1.1" id="Layer_1" xmlns="http://www.w3.org/2000/svg" xmlns:xlink="http://www.w3.org/1999/xlink" x="0px" y="0px"
	 viewBox="0 0 150.4 280.3" style="enable-background:new 0 0 150.4 280.3;" xml:space="preserve">
<style type="text/css">
	.st0{fill:#4B3950;stroke:#F0EFF3;stroke-width:0.25;stroke-miterlimit:10;}
	.st1{fill:#F0EFF3;}
	.st2{font-family:'MyriadPro-Regular';}
	.st3{font-size:12.4694px;}
	.st4{fill:#E4DAD8;stroke:#FFFFFF;stroke-width:0.2778;stroke-miterlimit:10;}
	.st5{fill:#CBB8B9;stroke:#FFFFFF;stroke-width:0.2778;stroke-linejoin:bevel;stroke-miterlimit:10;}
	.st6{opacity:0.5;fill:#4B3950;enable-background:new    ;}
	.st7{fill:#D8422E;}
	.st8{fill:#DC3359;}
	.st9{fill:#EE7345;}
	.st10{fill:#E4DAD8;stroke:#FFFFFF;stroke-width:0.2778;stroke-linejoin:bevel;stroke-miterlimit:10;}
	.st11{fill:#E4DAD8;stroke:#FFFFFF;stroke-width:0.25;stroke-linejoin:bevel;stroke-miterlimit:10;}
	.st12{fill:#CBB8B9;stroke:#FFFFFF;stroke-width:0.25;stroke-linejoin:bevel;stroke-miterlimit:10;}
	.st13{fill:#E4DAD8;stroke:#FFFFFF;stroke-width:0.25;stroke-miterlimit:10;}
	.st14{opacity:0.42;fill:#4B3950;enable-background:new    ;}
	.st15{opacity:0.5;fill:#E4DAD8;stroke:#FFFFFF;stroke-width:0.2778;stroke-miterlimit:10;enable-background:new    ;}
</style>
<g>
	<g>
		<path class="st0" d="M95.5,138.6l17.5,8.3c1,0.5,2.1,0.4,3.1-0.1l28.1-14.4c2.5-1.3,2.5-4.8,0.1-6.1l-16.6-8.9
			c-1-0.5-2.2-0.6-3.2,0l-29.1,15C92.8,133.7,92.9,137.4,95.5,138.6z"/>
		<path class="st0" d="M95.7,132.5l13.6,7l6.3,1.3l28.7-14.4c2.5-1.3,2.5-4.8,0.1-6.1l-15.9-8c-1-0.5-4-0.4-6,0.4
			c-2.1,0.9-27,13.7-27,13.7C93.1,127.6,93.1,131.2,95.7,132.5z"/>
		<path class="st0" d="M95.1,126.6c-2.1,0.8-2.3,9.4-1.5,10.6s17.7,9.3,17.7,9.3c1.3,0.6,2.8,1.2,6-0.1c3.2-1.2,26.8-13.1,28-14.4
			s0.9-7.6,0.9-7.6c0.1,1.2-27.7,14.4-27.7,14.4c-2.1,1.3-6.9,0.8-8.1,0.2s-15.1-7.5-15.1-7.5C93.2,130.5,93.1,128,95.1,126.6z"/>
		<text transform="matrix(0.8894 -0.4572 0.4572 0.8894 111.9506 133.8349)" class="st1 st2 st3">Seife</text>
	</g>
	<g>
		<polygon class="st4" points="13,187.8 81.1,155.6 80.2,211 13,246.3 		"/>
		<polygon class="st5" points="80.2,153.9 13.5,187.6 22.9,188.3 81.1,158.8 		"/>
		<polygon class="st6" points="22.8,245.2 74.7,270.5 145.1,237.2 81.2,213.7 		"/>
		<g>
			<g>
				<g>
					<path class="st7" d="M65.8,226.4c2.3,0.2,3.8-0.5,5.7-1.8c1.1-0.8,2.3-1.1,3.7-1.1c2,0.1,4,0.4,5.9,1c6.8,2,10.6,8.6,16.6,12
						c3.1,1.7,6.6,2.6,10,1.5c0.5-0.2,0.4-0.8-0.2-0.6c-4.7,1.5-9.4-1.1-12.9-4c-3.1-2.6-5.9-5.8-9.4-7.9c-1.8-1-3.6-1.7-5.6-2.1
						c-1.8-0.3-3.9-0.7-5.7-0.4c-1.2,0.2-2.1,0.7-3.1,1.4c-1.4,1-2.7,1.5-4.5,1.4C65.7,225.8,65.2,226.4,65.8,226.4L65.8,226.4z"/>
				</g>
			</g>
			<g>
				<g>
					<path class="st8" d="M66.6,229.9c7.9-1.7,15.8,1,23,4.1s14.2,6.6,21.3,9.9c0.3,0.1,1.1-0.3,0.7-0.4c-7.7-3.6-15.2-7.3-23-10.6
						c-7-2.9-14.5-5.1-22.1-3.4C65.9,229.6,66,230,66.6,229.9L66.6,229.9z"/>
				</g>
			</g>
			<g>
				<g>
					<path class="st8" d="M57.4,234.6c1.6-1.6,3.6-2.5,5.7-3.1c1.9-0.4,3.8-0.4,5.7-0.8c0.9-0.2,1.6-0.7,2.1-1.4
						c0.2-0.4,0.4-0.8,0.5-1.2c0.2-0.6,0.3-1,1-0.6c3.2,1.5,4.7,5.5,7.1,7.9c2.5,2.5,6,3.3,9.4,2.7c1.9-0.3,3.5-1.1,5.2-1.9
						c1.7-0.9,3.4-1.3,5.2-0.4c1.1,0.5,2.1,1.3,3,2c0.2,0.1,0.9-0.2,0.8-0.3c-1.6-1.3-3.3-2.6-5.4-2.6c-1.7,0-3.3,0.8-4.8,1.6
						c-4.5,2.3-9.8,1.9-13.2-2c-1.4-1.6-2.4-3.3-3.7-4.9c-0.8-1-2.2-2.5-3.6-2.6c-0.7,0-1.2,0.3-1.6,0.8c-0.8,1.3-0.8,2.6-2.6,2.8
						c-4.1,0.5-8.5,1-11.6,4.2C56.4,234.9,57.2,234.8,57.4,234.6L57.4,234.6z"/>
				</g>
			</g>
			<g>
				<g>
					<path class="st8" d="M70.5,220c-0.1,2.4-0.2,4.9-0.2,7.3c0,2-0.2,4.2,0.2,6.2c0.3,1.5,1.5,2,3,2.1c2.1,0.2,4.3,0.1,6.4-0.2
						c2.1-0.2,4.2-0.6,6.3-1.1c1.1-0.3,2.1-0.6,3.1-0.9c0.4-0.1,0.9-0.3,1.3-0.3c1.3,0,1.5,0.9,1.9,1.9c0.8,1.9,1.5,3.9,2.5,5.7
						c0.6,1.1,1.4,2.1,2.8,1.8c0.5-0.1,0.4-0.7-0.2-0.6c-1.7,0.4-2.8-3.8-3.3-4.9c-0.5-1.2-1-3.4-2.2-4.2c-1-0.6-2.3-0.2-3.4,0.2
						c-1.9,0.6-3.9,1.1-5.9,1.4c-2,0.4-4.1,0.6-6.1,0.6c-1.1,0-2.2,0.1-3.3-0.1c-1.4-0.2-2-0.9-2.1-2.3c-0.3-4.2-0.1-8.5,0.1-12.7
						C71.4,219.5,70.5,219.6,70.5,220L70.5,220z"/>
				</g>
			</g>
			<g>
				<g>
					<path class="st8" d="M52.2,230.5c3.1-4.3,8.6-0.5,11.7,1.7c2.2,1.6,4.5,2.9,7.2,3.4c1.3,0.2,2.7,0.4,4,0.7c1.4,0.3,3,1,4.5,0.7
						c1.2-0.3,1.9-1.1,2.5-2.2c1-2,2.4-3.5,4.7-3.8c4.8-0.7,8.5,3.1,11.1,6.6c0.2,0.2,0.9-0.2,0.9-0.2c-2.4-3.1-5.4-6.3-9.5-6.7
						c-3.1-0.3-6.3,0.9-7.8,3.7c-0.2,0.4-0.4,0.8-0.6,1.2c-0.6,0.9-1.5,1.2-2.6,1c-1.1-0.1-2.1-0.6-3.2-0.8
						c-1.4-0.3-2.8-0.4-4.2-0.7c-3.8-0.9-6.5-3.8-9.9-5.6c-3.1-1.6-7.5-2-9.8,1.2C51.3,230.7,52.1,230.7,52.2,230.5L52.2,230.5z"/>
				</g>
			</g>
			<g>
				<g>
					<path class="st8" d="M74.8,219.7c-0.7,3.8,1.3,8.6-1.4,11.9c-1.3,1.7-3.5,1.3-5.1,2.6c-1.1,0.8-1.4,2-0.6,3.1
						c1.1,1.4,3,2.4,4.5,3.3c1.7,1,3.4,1.9,5.2,2.8c3.7,1.9,7.4,3.7,10.6,6.3c0.2,0.2,1-0.2,0.8-0.3c-2.9-2.4-6.2-4.1-9.6-5.8
						s-7.4-3.4-10.1-6.1c-0.8-0.8-1.3-1.9-0.5-2.8c0.8-0.9,2.1-1,3.2-1.4c1.3-0.4,2.3-1.2,2.9-2.3c2.1-3.5,0.4-7.7,1-11.4
						C75.7,219.3,74.8,219.4,74.8,219.7L74.8,219.7z"/>
				</g>
			</g>
			<g>
				<g>
					<path class="st8" d="M68,231.4c1.5,0.4,3,0.7,4.5,0.6c1.2-0.1,2.4-0.4,3.6-0.4c2,0,3.8,0.8,5.7,1.3c2.3,0.7,4.5,1.5,6.8,2.3
						c8.4,3.1,15.6,8,22.8,13.3c0.2,0.1,0.9-0.2,0.8-0.3c-7.3-5.4-14.7-10.3-23.2-13.4c-2-0.7-4-1.4-6-2c-1.8-0.6-3.7-1.3-5.7-1.5
						c-1.2-0.1-2.3,0.1-3.4,0.2c-1.8,0.2-3.4,0-5.2-0.5C68.5,231,67.8,231.4,68,231.4L68,231.4z"/>
				</g>
			</g>
			<g>
				<g>
					<path class="st8" d="M80,241.7c6.6,0.9,13.2-1,19.8,0.2c3.4,0.6,5.9,2.2,8.6,4.3c2.4,1.8,4.9,3.1,8,3.4c0.2,0,1-0.4,0.5-0.4
						c-3.6-0.3-6.2-2.1-8.9-4.2c-2.3-1.8-4.8-2.9-7.6-3.4c-6.6-1.2-13.2,0.7-19.8-0.2C80.3,241.2,79.5,241.6,80,241.7L80,241.7z"/>
				</g>
			</g>
			<g>
				<g>
					<path class="st8" d="M45.2,231.8c4.1,0.4,8.2-0.3,12.3,0c4.3,0.3,7.7,2.1,11.1,4.7c0.9,0.7,2,1.4,2.6,2.4
						c0.4,0.6,0.5,1.4,0.7,2.1c0.4,1.3,0.9,2.7,1.6,3.8c0.8,1.2,2,1.6,3.4,1.5c4.5-0.1,9-1.4,13.2-2.9c0.6-0.2,0.1-0.7-0.4-0.5
						c-3.9,1.5-8.1,2.6-12.3,2.8c-1.2,0.1-2.3-0.2-3-1.3c-0.5-0.7-0.8-1.6-1.1-2.4c-0.3-0.9-0.5-1.7-0.8-2.6c-0.6-1.8-2.6-3-4-4
						c-2.9-2.2-6-3.7-9.7-4.1c-4.4-0.4-8.8,0.4-13.2,0C45.1,231.1,44.6,231.7,45.2,231.8L45.2,231.8z"/>
				</g>
			</g>
			<g>
				<g>
					<path class="st8" d="M63.2,228.9c0.7,0,1.6-0.2,2-0.9c0.1-0.2,0.2-0.6,0.1-0.8v-0.1c0-0.2-0.1-0.1-0.3,0.2
						c0.1,0.1,0.5,0.3,0.7,0.4c3.5,2.3,6.9,4.8,10.1,7.5c1.5,1.3,3.1,2.5,4.6,3.9c1.3,1.1,2.5,2.6,4,3.5c1.3,0.8,2.8,0.3,4.2-0.1
						c2.1-0.5,4.2-1,6.3-1.5c0.5-0.1,0.4-0.6-0.1-0.5c-1.9,0.5-3.9,0.9-5.8,1.4c-1.4,0.3-2.9,1-4.2-0.1c-0.7-0.5-1.3-1.2-1.9-1.8
						c-2.8-2.5-5.6-4.9-8.6-7.2c-1.4-1.1-2.8-2.2-4.3-3.2c-1.3-0.9-2.7-2.2-4.1-2.8c-0.3-0.1-0.9-0.3-1.2,0.1
						c-0.6,0.7,0.4,1.4-1.2,1.4C62.8,228.4,62.6,228.9,63.2,228.9L63.2,228.9z"/>
				</g>
			</g>
			<g>
				<g>
					<path class="st8" d="M61.2,239.8c3.8-0.4,7.4-1.4,11-2.3c3.5-0.9,7.1-1.3,10.6,0c7.5,2.7,12.9,11.4,21.8,9.6
						c0.5-0.1,0.4-0.5-0.1-0.4c-4.9,1-9.3-2-13-4.7c-3.1-2.3-6.2-4.7-10.1-5.5c-2.9-0.6-5.9-0.2-8.8,0.5c-3.8,0.9-7.4,2-11.3,2.3
						C60.9,239.4,60.6,239.9,61.2,239.8L61.2,239.8z"/>
				</g>
			</g>
			<g>
				<g>
					<path class="st8" d="M76.8,247c7.3-1,13.9,3.5,21.1,3.8c7.3,0.4,13.3-4.6,20.4-5.2c0.5,0,0.7-0.7,0.1-0.6
						c-7.3,0.6-13.5,5.8-20.9,5.1c-7-0.6-13.3-4.7-20.5-3.8C76.4,246.4,76.3,247,76.8,247L76.8,247z"/>
				</g>
			</g>
			<g>
				<g>
					<path class="st8" d="M69.4,224.8c2.9,4.2,5,9.3,9.4,12.2c2.9,1.9,6.2,3,9.5,3.9c3.7,1.1,7.3,2.4,10.5,4.6
						c3.4,2.3,6.2,5.4,8.4,8.9c0.2,0.3,1-0.1,0.9-0.2c-3.7-6-9.4-10.5-16.1-12.7c-6.1-2-12.7-3.4-16.7-8.9c-1.9-2.6-3.3-5.4-5.1-8.1
						C70.1,224.3,69.2,224.6,69.4,224.8L69.4,224.8z"/>
				</g>
			</g>
			<g>
				<g>
					<path class="st9" d="M46.3,232.3c5.4,5.1,12.9,6.4,19.6,9c6.8,2.7,12.6,7.1,18.9,10.6c3.6,2,7.4,3.5,11.5,4.5
						c0.2,0.1,1-0.3,0.7-0.3c-3.7-0.9-7.2-2.2-10.6-4c-2.9-1.5-5.6-3.4-8.4-5.1c-3.1-1.9-6.3-3.7-9.6-5.2c-3.4-1.5-6.9-2.5-10.3-3.7
						c-4-1.4-7.9-3.1-11-6C47,231.8,46.2,232.1,46.3,232.3L46.3,232.3z"/>
				</g>
			</g>
			<g>
				<g>
					<path class="st8" d="M53.8,233.6c3.6-0.4,7.7-0.8,11,1c0.4,0.2,0.8,0.5,1.2,0.8c0.1,0.1,0.3,0.3,0.4,0.4c0.1,0,0.5-0.3,0.5-0.3
						s-0.1,0-0.2-0.1s-0.3-0.1-0.4-0.2c-0.5-0.2-1-0.5-1.4-0.1c0,0-0.1,0.1-0.1,0.2c0.1,0.2,0.5,0.4,0.7,0.5
						c0.7,0.4,1.4,0.8,2.2,1.1c1.5,0.7,3.1,1.4,3.6,3.1c0.1,0.3,1,0.1,0.9-0.2c-0.5-1.4-1.7-2.2-3-2.9c-0.7-0.3-1.4-0.6-2.1-1
						c-0.4-0.2-0.7-0.4-1.1-0.6c-0.1,0-0.2-0.1-0.3-0.2c-0.2-0.1,0.2-0.1-0.2,0.1c-0.2,0.1-0.3,0.1-0.5,0.2c0.3,0,1,0.5,1.5,0.5
						c1.5,0-0.3-1.3-0.7-1.5c-3.5-2.2-8.1-1.8-12-1.4C53.4,233.1,53.2,233.6,53.8,233.6L53.8,233.6z"/>
				</g>
			</g>
			<g>
				<g>
					<path class="st8" d="M54.8,235.4c3.2,1.7,5.2,4.8,7.6,7.4c1.5,1.6,3,3,5.1,3.4c3.2,0.6,6,2.2,9.1,3.1c3.2,0.9,6.7,1,9.6-0.8
						c0.5-0.3-0.2-0.6-0.6-0.4c-3.5,2.1-7.7,1-11.3-0.4c-1.5-0.6-2.9-1.3-4.4-1.7c-0.8-0.2-1.6-0.3-2.5-0.5c-2.3-0.5-4-2.7-5.4-4.4
						c-2-2.3-3.8-4.7-6.6-6.2C55.2,234.7,54.4,235.2,54.8,235.4L54.8,235.4z"/>
				</g>
			</g>
			<g>
				<g>
					<path class="st8" d="M68.6,220.7c0.2,1.7,2.3,2.5,3.7,2.9c2.3,0.8,4.6,1.2,6.9,2.1c0.8,0.3,1.8,0.7,2.3,1.5
						c0.2,0.3,0.3,0.6,0.3,1c0,1.1-0.2,2.1-0.2,3.2c0,1.8,0.5,3.5,1.9,4.7c1.6,1.4,3.7,2.2,5.6,3.2c4.9,2.4,9.8,4.7,14.8,6.9
						c0.3,0.1,1-0.3,0.5-0.5c-4.4-1.9-8.8-3.9-13.1-6c-2-1-4.2-1.9-6.1-3.2c-2-1.3-2.7-3.3-2.6-5.7c0-1.1,0.6-2.5,0.1-3.5
						c-0.3-0.6-0.9-1-1.5-1.4c-1.9-1-4.2-1.5-6.2-2.1c-1.6-0.5-5-1.1-5.2-3.2C69.5,220.1,68.6,220.3,68.6,220.7L68.6,220.7z"/>
				</g>
			</g>
			<g>
				<g>
					<path class="st7" d="M51.6,236.1c2.7,0,5.5,0,8.2,0c1.5,0,3-0.1,4.4,0.1c1.3,0.2,2.4,0.9,3.5,1.5c0.6,0.3,1.9,0.8,2-0.3
						c0.1-0.5-0.8-2.5,0.1-2.5c0.4,0,0.9-0.5,0.3-0.5c-1,0-1.7,0.5-1.6,1.5c0,0.5,0.2,0.9,0.3,1.4v0.3c0.1,0.1,0.2,0.1,0.2-0.1
						c0-0.1-1.3-0.7-1.5-0.7c-1-0.6-2-1-3.2-1.2c-1.3-0.2-2.6-0.1-3.9-0.1c-2.9,0-5.7,0-8.6,0C51.6,235.6,51,236.1,51.6,236.1
						L51.6,236.1z"/>
				</g>
			</g>
			<g>
				<g>
					<path class="st8" d="M76.2,244.3c4.9,1.8,9.4,4.4,13.4,7.8c0.2,0.2,1-0.2,0.8-0.3c-4-3.4-8.6-6.1-13.5-7.9
						C76.7,243.9,75.9,244.2,76.2,244.3L76.2,244.3z"/>
				</g>
			</g>
			<g>
				<g>
					<path class="st7" d="M75.9,237.7c4.3,2.3,8.8,4.3,13.5,6c3.8,1.3,9.1,2,11.3,5.8c0.2,0.3,1,0,0.8-0.4
						c-2.1-3.6-6.7-4.3-10.3-5.5c-5.1-1.7-9.9-3.8-14.6-6.3C76.2,237.1,75.5,237.5,75.9,237.7L75.9,237.7z"/>
				</g>
			</g>
			<g>
				<g>
					<path class="st8" d="M84.3,256.3c-2.5-3.2-4.9-6.6-7.8-9.5c-2.8-2.9-6.1-5.4-9.5-7.7c-0.2-0.2-1,0.2-0.8,0.3
						c3.4,2.3,6.6,4.8,9.5,7.7c2.8,2.9,5.3,6.3,7.8,9.5C83.6,256.8,84.4,256.5,84.3,256.3L84.3,256.3z"/>
				</g>
			</g>
			<g>
				<g>
					<path class="st8" d="M55.2,240.3c5.3,0.7,10.7,0.6,16,1.1c5.5,0.5,10.5,2.3,15.1,5.4c0.2,0.2,1-0.2,0.7-0.4
						c-4.4-3-9.2-4.8-14.4-5.4c-5.6-0.6-11.2-0.5-16.8-1.2C55.5,239.8,54.7,240.2,55.2,240.3L55.2,240.3z"/>
				</g>
			</g>
			<g>
				<g>
					<path class="st8" d="M55.1,225.5c4.6,0.9,9.4,0.4,13.8,1.8c2.6,0.8,5.4,2,7.4,3.9c1.1,1,1.4,2.2,1.9,3.5
						c0.3,0.8,0.7,1.4,1.6,1.4c0.2,0,1-0.4,0.6-0.4c-1.4-0.1-1.5-2.2-2-3.1c-0.5-1-1.3-1.8-2.2-2.4c-2-1.5-4.6-2.7-7-3.4
						c-4.4-1.3-9.1-0.9-13.5-1.7C55.6,225.1,54.9,225.4,55.1,225.5L55.1,225.5z"/>
				</g>
			</g>
			<g>
				<g>
					<path class="st8" d="M81.1,247.2c4.5,0,9,0,13.5,0c2.1,0,4.3-0.1,6.4,0c1.7,0.1,3.5,0.3,4.4,2c0.2,0.3,1,0,0.8-0.4
						c-0.7-1.3-2.1-1.9-3.6-2.1c-2.1-0.3-4.2-0.1-6.3-0.1c-5,0-9.9,0-14.9,0C81,246.6,80.5,247.2,81.1,247.2L81.1,247.2z"/>
				</g>
			</g>
			<g>
				<g>
					<path class="st8" d="M52.5,238.3c6.2-1.2,12.8,2.1,17.9,5.4c2.8,1.8,5.5,3.9,8,6.1c1.2,1.1,2.4,2.2,3.5,3.4
						c1,1.1,1.9,2.3,3,3.3c1.5,1.4,3.5,1.4,5.4,1.5c2.6,0.2,5.3,0.5,7.9,0.7c0.4,0,0.9-0.6,0.3-0.6c-2.4-0.2-4.8-0.4-7.2-0.6
						c-2.4-0.2-4.7-0.1-6.4-2.1c-2-2.3-4-4.4-6.3-6.4c-5-4.4-10.8-8.4-17.2-10.5c-3-0.9-6.1-1.4-9.1-0.8
						C51.8,237.8,52,238.4,52.5,238.3L52.5,238.3z"/>
				</g>
			</g>
			<g>
				<g>
					<path class="st7" d="M58.2,241.4c2.4-0.2,4.7-0.6,6.9-1.3c2-0.6,4-1.2,6.1-1.5c2.5-0.3,5.4-0.1,7.7,0.9
						c1.7,0.7,2.8,3.1,4.9,2.6c0.5-0.1,0.4-0.7-0.1-0.5c-1.1,0.2-2.1-1.2-2.9-1.9c-0.9-0.7-2-1-3.2-1.3c-2.1-0.5-4.3-0.7-6.5-0.4
						c-1.9,0.2-3.7,0.8-5.5,1.3c-2.4,0.7-4.8,1.2-7.3,1.4C57.8,240.9,57.6,241.5,58.2,241.4L58.2,241.4z"/>
				</g>
			</g>
			<g>
				<g>
					<path class="st8" d="M91.3,240.9c4,0.5,7.6,3.3,9,7.1c0.1,0.3,1,0.1,0.9-0.2c-1.5-3.9-5.2-6.8-9.4-7.3c-0.2,0-0.5,0-0.6,0.2
						C91.1,240.7,91.1,240.9,91.3,240.9L91.3,240.9z"/>
				</g>
			</g>
			<g>
				<g>
					<path class="st8" d="M86.1,256.6c7.5-0.4,15-0.2,22.5,0.6c0.2,0,1-0.4,0.5-0.4c-7.5-0.8-15.1-1.1-22.7-0.6
						C86.2,256.2,85.5,256.6,86.1,256.6L86.1,256.6z"/>
				</g>
			</g>
			<g>
				<g>
					<path class="st7" d="M69.4,246.7c6.7-0.2,13.7-0.4,20.2,1.8c5.6,1.9,10.4,6,16.5,6.7c0.4,0,0.9-0.5,0.3-0.5
						c-6.4-0.7-11.5-5.2-17.5-7c-6.3-1.8-12.9-1.6-19.3-1.4C69.1,246.2,68.8,246.7,69.4,246.7L69.4,246.7z"/>
				</g>
			</g>
		</g>
		<polygon class="st10" points="18.1,190.6 83.4,157.9 81.2,215.2 17.7,248.1 		"/>
		<polygon class="st11" points="79.8,159.3 78.7,215.5 139.9,239.6 140.4,187.2 		"/>
		<polygon class="st12" points="142.6,191.8 74.7,156.8 79.9,154.4 148.8,188.9 		"/>
		<g>
			<g>
				<g>
					<path class="st7" d="M81.3,159.4c1,4.7,2.1,9.4,3.1,14.1c1,4.5,2.4,9.1,1.7,13.7c-0.6,4.3-2.7,8.3-4.5,12.3
						c-0.8,1.7-1.4,3.5-2.6,5c-0.9,1.1-1.9,2.2-2.8,3.3c-1.8,2.2-2.8,4.4-0.9,6.9c0.2,0.3,1,0,0.8-0.4c-2-2.7-0.4-4.9,1.5-7.1
						c0.9-1,1.9-2.1,2.6-3.2c1-1.5,1.7-3.3,2.4-5c1.6-3.6,3.4-7.2,4.1-11.2c0.8-4.3-0.3-8.6-1.2-12.8c-1.2-5.3-2.3-10.5-3.5-15.8
						C82.1,158.8,81.3,159,81.3,159.4L81.3,159.4z"/>
				</g>
			</g>
			<g>
				<g>
					<path class="st8" d="M74.6,169.4c4,6.6,4.8,14.4,4.5,21.9c-0.1,3.9-0.5,7.9-1,11.8c-0.5,3.2-2.1,5.9-3.9,8.6
						c-2,2.9-3.7,5.7-4.2,9.3c0,0.1,0.8,0,0.8-0.2c0.8-6.5,6.6-10.6,7.9-16.9c0.7-3.6,0.9-7.4,1.1-11.1c0.2-3.9,0.2-7.8-0.4-11.6
						c-0.6-4.2-1.9-8.3-4.1-12C75.3,169,74.5,169.3,74.6,169.4L74.6,169.4z"/>
				</g>
			</g>
			<g>
				<g>
					<path class="st8" d="M68.3,152.5c4.7,2.2,7,7.2,9,11.7c1.2,2.6,2.3,5.4,2.5,8.3c0.2,2.9-0.7,5.4-2.3,7.8
						c-2.6,4-5.9,7.5-5.4,12.7c0.2,2.3,1.2,4.6,2.5,6.5c1.4,2.1,3.6,3.5,4.9,5.6c0.5,0.8,1.2,2-0.1,2.2c-0.9,0.2-1.8,0.1-2.6,0.2
						c-1.1,0.1-2.6,0.3-3.1,1.4c-0.1,0.2,0.7,0.1,0.8-0.1c0.9-1.9,6.5,0.1,6.6-2.3c0-0.8-0.8-1.8-1.2-2.4c-0.8-1-1.8-1.9-2.7-2.8
						c-1.9-2-3.3-4.4-3.9-7s-0.3-5.2,0.8-7.6c1.1-2.3,2.8-4.3,4.2-6.4c1.3-2,2.3-4.2,2.4-6.7c0.1-3.1-1-6-2.2-8.8
						c-2.1-4.7-4.4-10.2-9.5-12.6C68.8,152.1,68.1,152.4,68.3,152.5L68.3,152.5z"/>
				</g>
			</g>
			<g>
				<g>
					<path class="st8" d="M87.7,170.4c-3.9,1.1-7.8,2.3-11.6,3.7c-1.4,0.5-3.5,0.9-4.7,2c-1.1,1.1-0.6,2.7-0.3,4
						c1,3.6,2.6,7.1,4.4,10.4c1,1.7,2,3.4,3.2,5.1c0.5,0.8,1.2,1.6,1.5,2.5c0.5,1.4-0.6,2.3-1.5,3.1c-1.7,1.6-3.5,3.1-5.2,4.7
						c-1,0.9-2,2.3-1.2,3.7c0.1,0.2,1,0,0.8-0.3c-1.3-2.1,2.8-4.7,4.1-5.8c0.8-0.7,1.6-1.5,2.5-2.2c0.6-0.5,1.3-1.1,1.6-1.9
						c0.5-1.8-1.4-3.7-2.3-5c-1.3-2-2.6-4.1-3.7-6.2c-1-2-1.9-4.1-2.7-6.3c-0.3-1-0.6-1.9-0.8-2.9c-0.4-1.7,0.1-2.8,1.8-3.4
						c4.7-1.8,9.5-3.3,14.3-4.7C88.3,170.7,88.2,170.3,87.7,170.4L87.7,170.4z"/>
				</g>
			</g>
			<g>
				<g>
					<path class="st8" d="M71.1,145.1c5.1,1.6,5,7.9,3.8,12c-1.4,5.2-3,10.3-3.6,15.8c-0.3,2.5-0.5,5-0.5,7.5c0,1.3,0,2.7,0.1,4
						c0,1,0.1,2,0.7,2.9c1.2,1.6,3.5,1.3,5.2,1.8c2,0.7,3.5,2.3,4.3,4.1c2.5,5.2-0.3,10.8-3.2,15.2c-0.2,0.3,0.6,0.2,0.8,0
						c2.6-3.8,5.1-8.4,4.1-13.2c-0.4-1.9-1.3-3.7-2.7-5c-1.4-1.3-3.1-1.7-5-2c-1.3-0.2-2.5-0.6-3-2c-0.4-1.1-0.3-2.5-0.3-3.7
						c-0.1-3,0.1-5.9,0.4-8.8c0.6-5.7,2.1-11,3.6-16.5c1.2-4.4,1.4-10.9-3.9-12.5C71.5,144.6,70.7,145,71.1,145.1L71.1,145.1z"/>
				</g>
			</g>
			<g>
				<g>
					<path class="st8" d="M89.8,175.2c-3.7,0.5-6.9,2.9-10.6,3.3c-1.9,0.2-4-0.2-5.4-1.7c-1.1-1.2-1.7-3-3.2-3.8
						c-2.8-1.5-4.3,1.4-5,3.6c-1.2,3.8-1.8,7.8-2.4,11.8c-0.7,4.5-1.4,9-3,13.2c-0.1,0.3,0.7,0.2,0.8-0.1c1.7-4.5,2.4-9.2,3.1-13.9
						c0.4-2.4,0.7-4.7,1.2-7c0.5-2.1,0.9-4.7,2.1-6.5c2.1-3.3,4.5,1.9,5.7,3.1c1.1,1.2,2.7,1.6,4.3,1.7c4.4,0.2,7.9-2.7,12.1-3.3
						C90,175.6,90.3,175.1,89.8,175.2L89.8,175.2z"/>
				</g>
			</g>
			<g>
				<g>
					<path class="st8" d="M76.4,164c0.1,8.6,0.4,17.2,0.4,25.8c0.1,8.3-0.5,16.4-2.5,24.5c-1.1,4.5-2.5,9-4,13.4
						c-0.1,0.3,0.7,0.2,0.8-0.1c2.5-7.8,5-15.7,5.9-23.9c1-8.3,0.5-16.8,0.4-25.1c-0.1-4.9-0.2-9.8-0.3-14.7
						C77.3,163.6,76.4,163.7,76.4,164L76.4,164z"/>
				</g>
			</g>
			<g>
				<g>
					<path class="st8" d="M66.4,189.5c1.6,9.1,7.9,17.1,7.5,26.6c-0.1,2.4-0.8,4.6-1.6,6.9c-0.4,1.1-0.8,2.2-1,3.4
						c-0.2,0.8-0.4,1.2-1.3,1.3c-1,0.1-4.5-0.3-4.2,1.6c0,0.2,0.9,0,0.8-0.2c-0.2-1.3,2.2-0.9,3-1c0.7-0.1,1.7-0.2,2.2-0.9
						c0.4-0.5,0.4-1.2,0.6-1.8c0.3-1.1,0.7-2.2,1.1-3.3c0.7-2,1.2-4,1.3-6.1c0.4-9.5-5.8-17.5-7.5-26.6
						C67.2,189,66.4,189.2,66.4,189.5L66.4,189.5z"/>
				</g>
			</g>
			<g>
				<g>
					<path class="st8" d="M60.8,140.3c0.8,3.5,3.8,6,6.3,8.4s5.7,5.1,5.9,8.8c0.2,2.8-0.7,5.6-1.6,8.2c-0.9,2.5-1.8,5-3,7.4
						s-2.6,4.7-4.3,6.7c-0.8,1-1.8,1.8-2.7,2.7c-0.7,0.7-1.4,1.4-1.5,2.5c-0.2,1.5,0.6,3,1.2,4.3s1.3,2.6,2,3.9
						c1.5,2.7,3.3,5.2,5.3,7.6c0.1,0.2,0.9-0.1,0.8-0.3c-1.9-2.3-3.5-4.7-5-7.2c-1.3-2.2-2.8-4.7-3.4-7.3c-0.6-2.9,2.5-4.5,4.1-6.4
						c1.6-1.9,3-4,4.1-6.3c1.2-2.4,2.2-4.9,3.1-7.4c0.9-2.4,1.6-4.9,1.8-7.5c0.3-3.8-2-6.5-4.6-9c-2.9-2.8-6.6-5.5-7.6-9.6
						C61.6,139.9,60.8,140.1,60.8,140.3L60.8,140.3z"/>
				</g>
			</g>
			<g>
				<g>
					<path class="st8" d="M77.5,157.3c1.4,4.3-0.1,8.8-1.3,12.9c-1.2,4.2-2.6,8.4-4.2,12.5c-0.8,2.2-1.7,4.4-2.6,6.5
						c-0.4,1-0.9,2-1.3,3c-0.4,0.8-0.9,1.7-1,2.6c-0.3,1.8,1.2,3.5,2.1,5c1.2,1.9,2.4,3.8,3.6,5.8c0.2,0.3,1,0,0.8-0.3
						c-1.2-1.9-2.4-3.8-3.6-5.8c-0.6-1-1.4-2-1.9-3.1c-0.5-1.3,0.1-2.5,0.6-3.7c1.7-3.8,3.3-7.6,4.7-11.4c1.5-4,2.8-8,4-12.1
						c1.1-3.9,2.3-8.1,1-12.1C78.2,156.7,77.4,157,77.5,157.3L77.5,157.3z"/>
				</g>
			</g>
			<g>
				<g>
					<path class="st8" d="M64.3,159.2c3.3,7.7,6.6,15.5,7.8,23.8c0.6,4.1,0.5,8.3-0.4,12.4c-0.9,4-2.6,7.8-3.5,11.8
						s-0.9,8.2,1.2,11.8c0.1,0.2,0.9,0,0.8-0.2c-4.3-7.3,0.3-15.5,2.1-22.9c1.9-7.9,0.5-16.1-2-23.7c-1.5-4.5-3.3-8.9-5.2-13.3
						C65,158.8,64.2,159,64.3,159.2L64.3,159.2z"/>
				</g>
			</g>
			<g>
				<g>
					<path class="st8" d="M59.3,187.6c3.6,7.3,1.8,15.6,3.2,23.3c1.3,6.9,5.9,12.4,8.5,18.8c0.1,0.3,0.9,0,0.8-0.2
						c-2.6-6.4-7.2-11.9-8.5-18.8c-1.4-7.7,0.4-16-3.2-23.3C59.9,187.1,59.1,187.3,59.3,187.6L59.3,187.6z"/>
				</g>
			</g>
			<g>
				<g>
					<path class="st8" d="M84.5,163.1c-5,6.7-10.2,13.7-12.7,21.8c-1.4,4.5-1.5,9-1.4,13.7c0.1,4.5,0.1,8.9-1.1,13.2
						c-1.3,4.9-3.7,9.5-7,13.4c-0.3,0.4,0.5,0.4,0.7,0.2c5.6-6.6,8.4-14.9,8.4-23.5c0-4.8-0.5-9.5,0.6-14.2c0.9-4.3,2.8-8.4,5-12.2
						c2.5-4.3,5.5-8.3,8.4-12.2C85.5,162.8,84.7,162.8,84.5,163.1L84.5,163.1z"/>
				</g>
			</g>
			<g>
				<g>
					<path class="st9" d="M60.6,142c-3.7,8.1,3.9,15.5,3.8,23.5c0,5.2-1.4,10.6-2.7,15.6c-1.4,5.1-2.9,10.2-4.1,15.3
						c-1.3,5.7-2.1,11.5-1.7,17.3c0,0.4,0.9,0.2,0.8-0.2c-0.8-10.6,2.6-20.7,5.3-30.8c1.4-5,2.6-10.1,3.1-15.3
						c0.4-4.3-0.8-8.1-2.4-12.1c-1.7-4.3-3.4-8.8-1.3-13.3C61.6,141.6,60.8,141.6,60.6,142L60.6,142z"/>
				</g>
			</g>
			<g>
				<g>
					<path class="st7" d="M80.7,164.3c4.3,8.8,4.3,19.5-0.3,28.2c-2.3,4.4-5.7,8.1-8.7,12.1c-3,3.9-5.3,8.2-6.8,12.9
						c-1.6,5.2-2,10.7-1.3,16c0,0.3,0.9,0.1,0.8-0.2c-1.3-10.3,1.7-20.3,7.9-28.5c3-4,6.4-7.7,8.8-12.1c2.2-4.1,3.5-8.7,3.6-13.4
						c0.2-5.2-0.9-10.5-3.2-15.2C81.4,163.8,80.6,164.1,80.7,164.3L80.7,164.3z"/>
				</g>
			</g>
			<g>
				<g>
					<path class="st8" d="M68.6,148.4c1.2,2.7,2.5,5.5,3,8.5c0.6,3.1,0,6-1.5,8.8c-1.2,2.2-2.4,4.2-2.7,6.8c-0.3,2.3-0.2,5-2.3,6.6
						c-0.2,0.1,0.6,0,0.8-0.1c1.8-1.3,2-3.5,2.3-5.5c0.2-1.4,0.3-2.8,0.8-4.1s1.3-2.6,2-3.8c1.4-2.6,2-5.3,1.6-8.2
						c-0.4-3.2-1.8-6.2-3.1-9.1C69.3,148,68.5,148.3,68.6,148.4L68.6,148.4z"/>
				</g>
			</g>
			<g>
				<g>
					<path class="st8" d="M67,150.6c-0.7,4.2-3.3,7.6-5.4,11.2c-2.1,3.7-3.2,7.8-3.8,12c-0.7,4.5-1.2,9.2-1.2,13.7
						c0,4.1,1,8.3,4.3,11c0.2,0.1,0.9-0.2,0.8-0.3c-3.5-2.9-4.3-7.6-4.2-11.9c0.1-4.5,0.6-9.1,1.3-13.6c0.7-4.2,2-8.2,4.1-11.8
						c2-3.4,4.3-6.6,5-10.6C67.9,150.3,67.1,150.3,67,150.6L67,150.6z"/>
				</g>
			</g>
			<g>
				<g>
					<path class="st8" d="M89.1,160.6c-2,0.9-2.4,4.1-2.7,6c-0.6,3.7-0.8,7.4-1.1,11.1c-0.2,1.7-0.4,3.4-0.8,5
						c-0.2,1.1-0.5,2.4-1.3,3.2c-0.5,0.6-1.3,0.6-2.1,0.7c-1.2,0.3-2.5,0.6-3.6,1.2c-2.5,1.2-3.7,3.3-4.2,6
						c-1.5,8-2.2,16.2-2.9,24.2c0,0.3,0.8,0.1,0.8-0.1c0.6-7,1.4-14.1,2.4-21.1c0.5-3.2,0.7-6.9,4-8.6c1.2-0.7,2.6-1,4-1.3
						c0.6-0.1,1.3-0.2,1.8-0.6c1.8-1.2,2.1-4.4,2.3-6.4c0.5-3.6,0.7-7.2,1.1-10.8c0.2-1.8,0.4-3.5,0.8-5.2c0.2-1,0.6-2.7,1.7-3.1
						C89.9,160.7,89.4,160.5,89.1,160.6L89.1,160.6z"/>
				</g>
			</g>
			<g>
				<g>
					<path class="st7" d="M64.9,147c0.8,2.4,1.6,4.7,2.4,7.1c0.8,2.3,1.8,4.7,2.3,7.1c0.4,2.3-0.4,4.5-0.5,6.8
						c-0.1,2.5,0.5,5,1.1,7.4c0.1,0.3,0.9,0,0.8-0.2c-0.6-2.3-1.1-4.7-1.1-7.2c0-2.4,0.9-4.6,0.5-7c-0.4-2.3-1.4-4.6-2.2-6.9
						c-0.8-2.4-1.6-4.9-2.4-7.3C65.7,146.5,64.9,146.8,64.9,147L64.9,147z"/>
				</g>
			</g>
			<g>
				<g>
					<path class="st8" d="M62,186.2c-0.2,6.3-1.5,12.4-3.9,18.2c-0.1,0.3,0.7,0.2,0.8-0.1c2.4-5.8,3.6-12,3.8-18.2
						C62.8,185.8,62,185.9,62,186.2L62,186.2z"/>
				</g>
			</g>
			<g>
				<g>
					<path class="st7" d="M69.4,183.3c-1,5.9-1.6,11.8-1.7,17.7c-0.1,4.7,1.2,11-2.3,14.8c-0.3,0.4,0.4,0.5,0.7,0.2
						c3.4-3.8,2.4-9.5,2.4-14.2c0-6.3,0.6-12.5,1.7-18.7C70.3,182.8,69.4,182.9,69.4,183.3L69.4,183.3z"/>
				</g>
			</g>
			<g>
				<g>
					<path class="st8" d="M51.6,199.1c7.1-10.5,12.5-22,16-34.1c0.1-0.3-0.7-0.2-0.8,0.1c-3.5,12.1-8.9,23.6-15.9,34
						C50.6,199.4,51.4,199.4,51.6,199.1L51.6,199.1z"/>
				</g>
			</g>
			<g>
				<g>
					<path class="st8" d="M61.6,152.8c2.9,15,5.8,30.8,1.4,45.8c-0.1,0.2,0.8,0.1,0.8-0.1c4.4-15.1,1.5-30.9-1.4-45.9
						C62.4,152.4,61.5,152.6,61.6,152.8L61.6,152.8z"/>
				</g>
			</g>
			<g>
				<g>
					<path class="st8" d="M78.3,147.2c1,8,1.2,16.1,0.5,24.1c-0.3,3.3-0.4,7.1-1.9,10.2c-0.7,1.5-1.9,2.3-3.1,3.4
						c-0.8,0.7-1.4,1.4-1.1,2.5c0.1,0.4,0.9,0.2,0.8-0.2c-0.4-1.6,1.7-2.5,2.6-3.3c1-0.9,1.6-2.2,2-3.4c1.1-3.2,1.3-6.8,1.6-10.1
						c0.6-7.8,0.4-15.6-0.6-23.3C79.1,146.6,78.3,146.8,78.3,147.2L78.3,147.2z"/>
				</g>
			</g>
			<g>
				<g>
					<path class="st8" d="M57.8,208.9c1.9,4.9,3.8,9.8,5.8,14.7c1,2.5,1.9,4.8,0.7,7.3c-0.8,1.7-2,3.1-2.4,5
						c-0.1,0.4,0.8,0.3,0.8-0.1c0.4-2.1,2-3.7,2.7-5.7c0.8-2.2,0-4.3-0.8-6.4c-2-5-4-10.1-5.9-15.1
						C58.5,208.3,57.7,208.5,57.8,208.9L57.8,208.9z"/>
				</g>
			</g>
			<g>
				<g>
					<path class="st8" d="M60.6,192.7c1.7,5.1,3.4,10.2,5.1,15.3c0.8,2.4,1.7,4.8,2.4,7.2c0.6,2,1.1,4.4-0.5,6.1
						c-0.2,0.2,0.6,0.1,0.8,0c1.3-1.4,1.3-3.3,0.9-5c-0.6-2.5-1.6-5-2.4-7.5c-1.8-5.4-3.6-10.8-5.4-16.2
						C61.3,192.2,60.5,192.5,60.6,192.7L60.6,192.7z"/>
				</g>
			</g>
			<g>
				<g>
					<path class="st8" d="M52.9,163.4c3.5,6,5,13,4.5,19.9c-0.2,3.5-1,7-2.2,10.2c-0.6,1.6-1.4,3.2-2.2,4.7c-0.9,1.4-1.9,2.8-2,4.5
						c-0.1,2.2,0.8,4.5,1.3,6.6c0.6,2.4,1.1,4.8,1.7,7.2c0,0.2,0.9-0.1,0.8-0.2c-1-4.1-2.2-8.2-2.9-12.3c-0.4-2.1,0.4-3.7,1.5-5.4
						c0.9-1.5,1.7-3,2.3-4.6c2.5-6.2,3.2-13.2,2-19.8c-0.7-3.9-2.1-7.6-4-11C53.6,163,52.8,163.3,52.9,163.4L52.9,163.4z"/>
				</g>
			</g>
			<g>
				<g>
					<path class="st7" d="M61.4,156.4c2.5,6.3,4.5,12.9,5.7,19.6c0.6,3.3,1.1,6.6,1.3,10c0.1,2-0.4,3.3-1.2,5
						c-0.4,1-0.6,1.8-0.1,2.8c0.1,0.2,1,0,0.8-0.3c-0.8-1.4,0.4-2.9,0.9-4.2s0.5-2.6,0.3-3.9c-0.3-3.3-0.7-6.7-1.4-10
						c-1.2-6.5-3.1-12.9-5.6-19.1C62.1,155.8,61.3,156.1,61.4,156.4L61.4,156.4z"/>
				</g>
			</g>
			<g>
				<g>
					<path class="st8" d="M71.6,202c1,4.8-0.8,9.9-4.6,13c-0.4,0.3,0.5,0.3,0.7,0.1c3.9-3.2,5.8-8.4,4.8-13.3
						C72.3,201.5,71.5,201.7,71.6,202L71.6,202z"/>
				</g>
			</g>
			<g>
				<g>
					<path class="st8" d="M51.8,202c3.3,8.4,6,17,7.8,25.9c0,0.2,0.9,0,0.8-0.2c-1.9-8.8-4.5-17.5-7.8-25.9
						C52.5,201.5,51.7,201.8,51.8,202L51.8,202z"/>
				</g>
			</g>
			<g>
				<g>
					<path class="st8" d="M52.8,207.7c3.1,4.8,5.7,9.8,7.9,15.1c1,2.5,2,5,2.8,7.6c0.4,1.4,0.9,2.7,1.2,4.1c0.2,0.8,0.4,1.7,1.3,1.9
						c0.3,0.1,1-0.4,0.5-0.5c-1-0.2-1.3-3-1.6-3.8c-0.4-1.3-0.8-2.6-1.3-3.9c-0.9-2.5-1.8-4.9-2.9-7.3c-2.1-4.7-4.5-9.2-7.3-13.6
						C53.3,207,52.5,207.3,52.8,207.7L52.8,207.7z"/>
				</g>
			</g>
			<g>
				<g>
					<path class="st8" d="M67.3,204.9c-5.1,0.6-8.9,4.2-11.4,8.5c-1.4,2.5-2.6,5.3-3.4,8.1c-0.8,2.7-1.1,5.5,0.2,8.1
						c0.1,0.2,0.9-0.1,0.8-0.2c-2.2-4.6,0.2-10.1,2.2-14.3c2.2-4.7,5.9-9.3,11.4-9.9C67.5,205.1,67.9,204.8,67.3,204.9L67.3,204.9z"
						/>
				</g>
			</g>
			<g>
				<g>
					<path class="st8" d="M66.1,213.6c-1.2,3.8-1.8,7.8-1.7,11.8c0.1,3.8,1.1,8-0.9,11.6c-0.2,0.4,0.6,0.3,0.8,0
						c1.8-3.3,1.1-7,1-10.5c-0.2-4.4,0.4-8.8,1.7-13C67,213.2,66.2,213.3,66.1,213.6L66.1,213.6z"/>
				</g>
			</g>
			<g>
				<g>
					<path class="st7" d="M56.7,179.1c2.7,7.1,5.4,14.5,5.7,22.2c0.3,7.6-3,15.2-1.3,22.7c0,0.2,0.9,0,0.8-0.2
						c-1.7-7.6,1.6-15.1,1.3-22.7c-0.3-7.7-3-15-5.7-22.2C57.4,178.7,56.6,179,56.7,179.1L56.7,179.1z"/>
				</g>
			</g>
		</g>
		<g>
			<g>
				<g>
					<path class="st7" d="M76.1,214.1c4.6,0.5,9.2,1,13.9,1.5c4.4,0.5,9.1,0.5,13.2,2.4c7.1,3.2,11.4,10.3,18.3,13.9
						c3.5,1.8,7.5,2.7,11.3,1.5c0.6-0.2,0.5-0.9-0.2-0.7c-8.1,2.7-15.1-4.5-20.5-9.4c-2.5-2.3-5.2-4.5-8.4-5.9
						c-3.7-1.6-7.9-1.8-11.8-2.2c-5.1-0.5-10.2-1.1-15.3-1.6C76,213.4,75.4,214,76.1,214.1L76.1,214.1z"/>
				</g>
			</g>
			<g>
				<g>
					<path class="st8" d="M83.7,223.6c9.3-2.1,18.6,1.1,27.1,4.7c8.7,3.8,17.3,8,25.9,12c0.4,0.2,1.3-0.3,0.8-0.6
						c-9.1-4.2-18.1-8.7-27.3-12.6c-8.4-3.6-17.5-6.3-26.7-4.2C82.9,223.1,83.1,223.8,83.7,223.6L83.7,223.6z"/>
				</g>
			</g>
			<g>
				<g>
					<path class="st8" d="M71.6,228.4c1.2-1.3,2-2.8,2.7-4.4c0.7-1.5,1.5-3.3,3.1-4.1c1.1-0.6,2.5-0.5,3.8-0.6s2.6-0.1,3.8-0.1
						c2.5,0.2,4.9,0.8,6.9,2.3c3.2,2.5,4.8,6.5,7.8,9.2c3.1,2.7,7.4,3.4,11.4,2.5c2.4-0.5,4.3-1.7,6.5-2.6c3.5-1.5,6.1,0.2,8.8,2.4
						c0.2,0.2,1.2-0.2,1-0.4c-1.8-1.4-3.7-3-6.1-3.1c-2.2-0.2-4.2,0.9-6.1,1.9c-4.9,2.5-10.9,2.6-15-1.5c-3.2-3.2-5-7.9-9.3-9.9
						c-2.1-1-4.4-1.3-6.6-1.3c-2.1,0-4.5,0-6.6,0.6c-4,1.3-4.6,6.3-7.1,9.2C70.4,228.7,71.4,228.6,71.6,228.4L71.6,228.4z"/>
				</g>
			</g>
			<g>
				<g>
					<path class="st8" d="M88.4,211.7c-0.2,4.2-0.3,8.4-0.2,12.5c0,1.5-0.3,3.8,0.8,5c0.9,1,2.6,1,3.9,1.1c4,0.2,7.9-0.3,11.8-1.1
						c2-0.4,4-0.9,6-1.5c1.2-0.3,2.5-0.7,3.4,0.4c0.6,0.9,1,2.1,1.4,3.1c0.8,1.8,1.5,3.8,2.5,5.6c0.7,1.2,1.7,2,3.1,1.7
						c0.6-0.2,0.5-0.7-0.2-0.6c-1.2,0.3-2-1.4-2.4-2.2c-0.5-1.1-1-2.3-1.5-3.5c-0.4-1-0.9-2-1.3-3c-0.3-0.7-0.6-1.6-1.3-2.1
						c-1.4-1-3.2-0.2-4.6,0.2c-2.5,0.7-5,1.3-7.5,1.7s-5.1,0.7-7.6,0.6c-1.1,0-2.2,0-3.3-0.2c-1.4-0.3-1.9-1.2-2-2.5
						c-0.4-5.1-0.2-10.3,0.1-15.4C89.5,211.2,88.4,211.4,88.4,211.7L88.4,211.7z"/>
				</g>
			</g>
			<g>
				<g>
					<path class="st8" d="M65.4,223.4c1.1-1.6,2.9-2.3,4.8-2.3c1.1,0,2.2,0.5,3.4,0.5c0.3,0,1-0.1,1.1-0.4c0.1-0.2-0.2-0.6-0.1-0.7
						c-0.3,0.1-0.6,0.2-0.9,0.3c0.4,0,1.3,0.9,1.6,1.1c0.9,0.6,1.7,1.2,2.6,1.7c1.8,1.1,3.6,2.1,5.4,3.1c3.6,1.8,7.3,3.4,11.1,4.6
						c2.7,0.9,5.8,1.9,7.5-1.1c0.9-1.5,1.5-3.1,3.1-4.1c1.7-1.2,3.9-1.4,5.9-1.1c4.4,0.8,7.8,4.4,10.4,7.8c0.2,0.3,1.1-0.2,1-0.3
						c-3-3.9-6.8-7.9-12-8.1c-1.9-0.1-3.8,0.3-5.5,1.2c-1.9,1-2.8,2.6-3.8,4.5c-0.5,0.9-1,1.7-2.2,1.7c-0.8,0-1.7-0.3-2.4-0.6
						c-1.5-0.4-3-0.9-4.4-1.5c-3-1.1-5.9-2.4-8.6-3.9c-2.6-1.4-5.1-2.9-7.6-4.6c-0.3-0.2-2-1.6-2.4-0.5c0,0.1,0.1,0.3,0.1,0.4
						c0,0.1,0,0.1,0,0.2c0.5-0.1,0.5-0.2,0-0.2c-0.2,0-0.3-0.1-0.5-0.1c-1.1-0.3-2.3-0.4-3.5-0.3c-2.1,0.2-4.1,1.1-5.3,2.8
						C64.3,223.7,65.2,223.7,65.4,223.4L65.4,223.4z"/>
				</g>
			</g>
			<g>
				<g>
					<path class="st8" d="M93.5,211.4c-0.7,3.8,0.6,7.7-0.3,11.5c-0.5,1.8-1.5,3.6-3.2,4.3c-1.5,0.6-3.3,0.7-4.5,1.9
						c-2.8,2.6,1.6,5.3,3.6,6.6c3,1.9,6.1,3.5,9.3,5.1c3.8,1.9,7.6,4,11,6.7c0.3,0.2,1.2-0.2,1-0.4c-5.5-4.5-12.2-7-18.2-10.5
						c-2-1.2-9.8-5.5-4.9-7.9c1.5-0.7,3.2-0.7,4.6-1.7c1-0.8,1.8-1.9,2.2-3.1c1.5-4-0.1-8.3,0.6-12.5
						C94.7,210.9,93.6,211,93.5,211.4L93.5,211.4z"/>
				</g>
			</g>
			<g>
				<g>
					<path class="st8" d="M78.9,220.3c8.3,2.6,16.5,5.1,24.8,7.8c7.9,2.6,15.4,5.7,22.5,10.2c3.9,2.5,7.6,5.1,11.2,7.8
						c0.4,0.3,1.3-0.3,0.8-0.6c-6.5-4.7-13-9.4-20.3-12.9c-7.6-3.7-15.9-5.9-23.9-8.5c-4.8-1.5-9.7-3-14.5-4.6
						C79,219.4,78.3,220.1,78.9,220.3L78.9,220.3z"/>
				</g>
			</g>
			<g>
				<g>
					<path class="st8" d="M56.9,224.9c3.3,0.3,5.8-1,8.6-2.6c1.5-0.9,3-1.5,4.8-1.2c2.5,0.3,4.9,1.8,6.9,3.3
						c3.8,2.7,7.5,5.8,10.4,9.4c1.5,1.9,2.8,3.9,3.8,6.1c0.9,1.9,1.9,3.2,4.2,3.2c2.6,0.1,5.4-0.5,8-1c2.8-0.6,5.6-1.4,8.4-2.5
						c0.7-0.3,0-0.5-0.4-0.3c-2.6,1-5.2,1.8-7.9,2.4c-1.3,0.3-2.6,0.5-3.9,0.7c-1.4,0.2-3,0.5-4.4,0.3c-2.5-0.4-3.1-3.5-4.2-5.5
						c-1.1-1.8-2.3-3.5-3.8-5.1c-3-3.3-6.6-6.3-10.3-8.7c-2.8-1.8-6.2-3.4-9.6-2.3c-1.4,0.4-2.6,1.2-3.9,1.9c-1.9,1.1-3.8,1.8-6,1.6
						C57.3,224.3,56.4,224.8,56.9,224.9L56.9,224.9z"/>
				</g>
			</g>
			<g>
				<g>
					<path class="st8" d="M72.8,217.1c4.6,0.1,8.4,3,12,5.5c3.7,2.6,7.3,5.3,10.7,8.1c1.8,1.5,3.5,2.9,5.2,4.5
						c0.9,0.8,1.7,1.6,2.6,2.3c0.6,0.6,1.3,1.3,2.1,1.6c1.5,0.6,3.3-0.1,4.8-0.5c2.4-0.6,4.7-1.1,7.1-1.7c0.6-0.2,0.5-0.8-0.2-0.6
						c-2.2,0.5-4.4,1.1-6.6,1.6c-1.1,0.3-2.3,0.7-3.5,0.8c-1.5,0-2.4-1.1-3.4-2c-3.1-2.9-6.3-5.6-9.6-8.2c-3.4-2.7-6.9-5.3-10.5-7.7
						c-3.2-2.1-6.6-4.2-10.6-4.3C72.8,216.4,72.1,217.1,72.8,217.1L72.8,217.1z"/>
				</g>
			</g>
			<g>
				<g>
					<path class="st8" d="M70.7,230.2c8.2-0.7,16.6-1.4,24.7,0.1c4,0.8,8,2.1,11.5,4.2c3.6,2.1,6.7,5,10.3,7.1
						c3.6,2.2,7.8,3.5,12,2.6c0.6-0.1,0.5-0.8-0.2-0.6c-8.9,1.9-15.6-6.6-22.6-10.4c-6.8-3.6-14.7-4.5-22.3-4.5
						c-4.5,0-8.9,0.4-13.3,0.8C70.2,229.6,70,230.3,70.7,230.2L70.7,230.2z"/>
				</g>
			</g>
			<g>
				<g>
					<path class="st8" d="M67.3,227.2c2.1-0.3,3.6-1.2,5.2-2.4c0.6-0.4,1.2-0.9,2-0.8c1.3,0.1,2.4,1.4,3.3,2.2
						c1.9,1.9,3.4,3.9,5.8,5.2c2.1,1,4.9,1.8,5.7,4.3c0.2,0.5,1.2,0.2,1-0.3c-0.7-2.3-3.1-3.3-5.1-4.2c-1.5-0.7-2.8-1.5-4-2.6
						c-1.1-1.1-2-2.3-3.1-3.3c-1.4-1.3-3.2-2.6-5.1-1.6c-0.8,0.4-1.4,0.9-2,1.4c-1.1,0.8-2.3,1.3-3.6,1.5
						C66.8,226.5,66.6,227.3,67.3,227.2L67.3,227.2z"/>
				</g>
			</g>
			<g>
				<g>
					<path class="st8" d="M68.5,229.2c1,0.5,2.1,1,2.5,2.2c0.3,1.2,0.9,2,1.8,2.9c3.1,3.2,7,5.4,11,7.4c4,1.9,8.2,4,12.5,5.1
						c3.7,1,7.7,0.8,11.1-1.2c0.4-0.3-0.6-0.2-0.8,0c-4.3,2.6-9.5,1.1-13.7-0.7c-3.8-1.5-7.5-3.2-11.1-5.1c-3.2-1.7-6.9-4-9-7.1
						c-0.4-0.7-0.5-1.4-0.8-2c-0.4-0.9-1.6-1.4-2.4-1.8C69.2,228.7,68.3,229.1,68.5,229.2L68.5,229.2z"/>
				</g>
			</g>
			<g>
				<g>
					<path class="st8" d="M79.5,207.3c0.2,2.2,3.5,3.6,5.1,4.4c3.3,1.7,6.7,3,10.1,4.5c1.5,0.7,3.1,1.4,4.5,2.3
						c0.9,0.6,2.1,1.3,2.5,2.3c0.3,0.7,0,1.6-0.1,2.3c-0.1,1.4-0.2,2.8,0.1,4.1c0.5,2.8,2.6,4.4,5,5.6c7,3.6,14.2,7,21.4,10.1
						c0.4,0.2,1.2-0.4,0.6-0.7c-6.5-2.8-12.9-5.8-19.2-8.9c-2.7-1.4-5.9-2.6-6.7-5.8c-0.4-1.5-0.3-3-0.2-4.5
						c0.1-0.7,0.3-1.6,0.1-2.3c-0.6-2.2-3.9-3.5-5.6-4.3c-3.2-1.6-6.5-2.9-9.8-4.4c-1.6-0.7-3.3-1.5-4.8-2.5c-0.9-0.6-2-1.4-2.1-2.5
						C80.5,206.6,79.5,206.8,79.5,207.3L79.5,207.3z"/>
				</g>
			</g>
			<g>
				<g>
					<path class="st7" d="M64.6,230.1c1.3,0,2.6-0.4,3.5-1.4c1.2-1.3,1.5-3.1,3.6-3.1c1.6,0,3.1,0.1,4.6,0.8
						c1.2,0.6,2.4,1.3,3.7,1.8c2.5,0.9,5.1,1.1,7.7,1.4c0.2,0,1.2-0.4,0.7-0.4c-3-0.3-6-0.5-8.7-1.9c-1.1-0.5-2.2-1.2-3.4-1.6
						c-1.3-0.4-2.6-0.5-3.9-0.5s-2.7,0.3-3.6,1.3c-1.1,1.2-1.5,3.1-3.5,3.2C65,229.7,64.1,230.1,64.6,230.1L64.6,230.1z"/>
				</g>
			</g>
			<g>
				<g>
					<path class="st8" d="M95.2,240.9c5.9,2.1,11.3,5.3,16,9.3c0.2,0.2,1.2-0.2,1-0.4c-4.8-4.1-10.2-7.3-16.1-9.4
						C95.8,240.3,94.9,240.7,95.2,240.9L95.2,240.9z"/>
				</g>
			</g>
			<g>
				<g>
					<path class="st7" d="M94.7,232.9c5.2,2.8,10.7,5.2,16.3,7.2c4.5,1.6,10.8,2.4,13.4,6.9c0.2,0.3,1.1-0.1,1-0.3
						c-2.5-4.3-8-5.2-12.3-6.6c-6-2-11.9-4.6-17.5-7.6C95.4,232.3,94.6,232.8,94.7,232.9L94.7,232.9z"/>
				</g>
			</g>
			<g>
				<g>
					<path class="st8" d="M104.9,255.1c-7.7-10-16.9-18.7-27.3-25.9c-0.3-0.2-1.2,0.2-1,0.4c10.4,7.1,19.6,15.9,27.3,25.9
						C104.1,255.7,105.1,255.4,104.9,255.1L104.9,255.1z"/>
				</g>
			</g>
			<g>
				<g>
					<path class="st8" d="M69.2,235.3c6.6,0.9,13.3,0.9,19.8,1.8c6.7,0.9,12.8,3,18.3,6.9c0.4,0.3,1.3-0.3,0.8-0.6
						c-5.5-3.8-11.5-6-18.1-6.9c-6.8-1-13.7-1-20.5-1.9C69,234.4,68.5,235.2,69.2,235.3L69.2,235.3z"/>
				</g>
			</g>
			<g>
				<g>
					<path class="st8" d="M69,217.5c5.8,1.1,11.9,1,17.5,2.9c3.1,1.1,6.7,2.5,9.1,4.9c1.2,1.2,1.6,2.6,2.2,4.1c0.4,0.9,1,1.7,2,1.7
						c0.4,0,1.1-0.6,0.4-0.6c-1.5,0-1.8-2.8-2.3-3.8c-0.6-1.1-1.5-2-2.5-2.8c-2.5-1.9-5.6-3.2-8.6-4.2c-5.5-1.8-11.5-1.7-17.2-2.8
						C69.3,216.9,68.4,217.4,69,217.5L69,217.5z"/>
				</g>
			</g>
			<g>
				<g>
					<path class="st8" d="M101.2,244.3c5.3,0,10.6,0,15.9,0c2.6,0,5.2-0.1,7.8,0c2,0.1,4.2,0.4,5.2,2.3c0.2,0.4,1.2,0,1-0.5
						c-0.9-1.6-2.6-2.2-4.3-2.5c-2.5-0.4-5.1-0.1-7.7-0.1c-6,0-11.9,0-17.9,0C100.7,243.6,100.5,244.3,101.2,244.3L101.2,244.3z"/>
				</g>
			</g>
			<g>
				<g>
					<path class="st7" d="M66.9,231.9c7.2-0.4,14.5-0.1,21.6,1c1.7,0.3,3.4,0.6,5.2,0.9c1.6,0.3,3.5,0.6,5,1.3
						c1.9,0.9,3.1,3.6,5.5,3c0.4-0.1,0.9-0.6,0.2-0.4c-1.4,0.3-2.5-1.4-3.4-2.2c-1-0.9-2.3-1.2-3.6-1.6c-3.3-0.8-6.7-1.4-10.1-1.9
						c-6.6-0.9-13.3-1.1-19.9-0.7C67,231.5,66.2,232,66.9,231.9L66.9,231.9z"/>
				</g>
			</g>
			<g>
				<g>
					<path class="st8" d="M113.2,236.8c4.8,0.6,9.1,3.9,10.8,8.5c0.1,0.3,1.2,0,1-0.3c-1.8-4.7-6.2-8.1-11.2-8.7
						c-0.2,0-0.6,0-0.7,0.2C113,236.6,113,236.7,113.2,236.8L113.2,236.8z"/>
				</g>
			</g>
		</g>
		<g>
			<g>
				<g>
					<path class="st7" d="M69.7,225.7c1.5,0.1,3,0.1,4.5-0.4c1.1-0.4,2.2-0.9,3.3-1.4c1.7-0.7,3.4-0.9,5.2-0.7
						c2.2,0.2,4.5,0.5,6.7,1.2c7.9,2.5,12.5,10.3,19.6,14.3c3.6,2,7.8,3.1,11.9,1.8c0.6-0.2,0.4-1-0.2-0.8
						c-8.4,2.8-15.4-4.8-21.1-9.9c-2.8-2.5-5.8-4.9-9.4-6.1c-2-0.7-4-1-6-1.2c-1.6-0.2-3.2-0.3-4.8,0c-1.4,0.3-2.7,0.9-3.9,1.5
						c-1.8,0.8-3.5,1.1-5.4,0.9C69.5,224.9,69,225.7,69.7,225.7L69.7,225.7z"/>
				</g>
			</g>
			<g>
				<g>
					<path class="st8" d="M71.7,230.8c9.2-2.1,18.5,1,26.9,4.7c8.8,3.8,17.4,8,26.1,12.1c0.4,0.2,1.2-0.4,0.6-0.7
						c-9.1-4.2-18.2-8.7-27.4-12.6c-8.3-3.5-17.4-6.2-26.5-4.1C70.9,230.2,71.1,230.9,71.7,230.8L71.7,230.8z"/>
				</g>
			</g>
			<g>
				<g>
					<path class="st8" d="M59.6,235.6c1.2-1.4,2-3,2.8-4.6c0.7-1.5,1.6-3.2,3.1-4c1-0.5,2.3-0.5,3.4-0.5c1.3-0.1,2.6-0.2,3.8-0.1
						c2.6,0.1,5.1,0.7,7.2,2.3c3.2,2.5,4.8,6.5,7.8,9.2c3.1,2.7,7.4,3.4,11.3,2.6c2.5-0.5,4.5-1.8,6.8-2.7c3.4-1.4,6,0.3,8.6,2.4
						c0.3,0.2,1.2-0.2,1-0.4c-1.8-1.4-3.7-3-6.1-3.2c-2.2-0.2-4.2,0.9-6.1,1.8c-4.9,2.5-10.9,2.6-15-1.4c-3.2-3.1-4.9-7.6-9-9.8
						c-2.1-1.1-4.6-1.4-6.9-1.5c-2.1,0-4.6-0.1-6.6,0.6c-4,1.3-4.6,6.4-7.1,9.2C58.4,235.9,59.4,235.8,59.6,235.6L59.6,235.6z"/>
				</g>
			</g>
			<g>
				<g>
					<path class="st8" d="M76.4,218.8c-0.2,4.3-0.3,8.6-0.2,13c0,1.4-0.2,3.5,0.8,4.6c0.9,1.1,2.6,1.1,3.9,1.1
						c4,0.2,7.9-0.3,11.8-1.1c2-0.4,4-0.9,6-1.5c1.1-0.3,2.6-0.8,3.4,0.4c0.6,0.9,1,2.1,1.4,3.1c0.8,1.8,1.5,3.8,2.5,5.6
						c0.7,1.2,1.7,2.1,3.1,1.7c0.6-0.2,0.5-0.8-0.2-0.7c-1.3,0.3-2.1-1.7-2.5-2.6c-0.5-1.1-1-2.3-1.5-3.5c-0.4-1-0.9-2-1.3-3
						c-0.3-0.7-0.7-1.5-1.4-1.9c-1.5-0.8-3.3,0.1-4.8,0.5c-2.4,0.7-4.8,1.2-7.3,1.6c-2.3,0.4-4.7,0.6-7.1,0.6
						c-1.3,0-2.7,0.1-3.9-0.3c-1.3-0.4-1.6-1.4-1.7-2.7c-0.3-5-0.2-10.1,0.1-15.2C77.5,218.2,76.5,218.4,76.4,218.8L76.4,218.8z"/>
				</g>
			</g>
			<g>
				<g>
					<path class="st8" d="M53.4,230.6c3.6-5,10-1,13.7,1.6c2.9,2.1,5.9,4,9.4,4.9c1.7,0.4,3.4,0.7,5.1,1.1c1.8,0.4,4,1.5,5.9,1
						c1.9-0.4,2.5-2.1,3.4-3.6c1.1-2.1,3.1-3.3,5.4-3.6c5.6-0.7,10,3.8,13.1,7.9c0.2,0.3,1.2-0.1,1-0.4c-2.8-3.7-6.5-7.5-11.4-8.1
						c-4-0.4-7.6,1.2-9.4,4.8c-0.2,0.5-0.5,0.9-0.8,1.4c-0.7,1.1-1.9,1.2-3.1,0.9s-2.4-0.7-3.6-0.9c-1.8-0.4-3.7-0.8-5.5-1.3
						c-4.5-1.3-7.8-4.4-11.7-6.7c-3.8-2.2-9.4-3.1-12.4,0.9C52.2,231,53.2,230.9,53.4,230.6L53.4,230.6z"/>
				</g>
			</g>
			<g>
				<g>
					<path class="st8" d="M81.6,218.5c-0.7,3.8,0.6,7.7-0.3,11.5c-0.5,1.8-1.5,3.6-3.2,4.3c-1.5,0.6-3.3,0.7-4.5,1.9
						c-2.8,2.6,1.6,5.3,3.6,6.6c3,1.9,6.1,3.5,9.3,5.1c3.8,1.9,7.6,4,11,6.7c0.3,0.2,1.2-0.2,1-0.4c-5.5-4.5-12.2-7-18.2-10.5
						c-2.1-1.2-9.8-5.5-4.9-7.9c1.5-0.7,3.2-0.7,4.6-1.7c1-0.8,1.8-1.9,2.2-3.1c1.5-4-0.1-8.3,0.6-12.5
						C82.7,218,81.6,218.2,81.6,218.5L81.6,218.5z"/>
				</g>
			</g>
			<g>
				<g>
					<path class="st8" d="M45.1,232.1c5.3,0.5,10.6-0.5,15.9,0.1c1.4,0.1,2.7,0.4,4,0.8c0.6,0.2,1.3,0.6,2,0.5
						c0.3,0,0.7-0.2,0.8-0.5c0-0.1,0-0.2,0-0.3c-0.1-0.4-0.1-0.1-0.3,0c-0.2,0-0.4,0.1-0.6,0.1c0.4,0.1,0.9,0.7,1.2,0.9
						c0.6,0.5,1.3,1,1.9,1.6c1.4,1.2,2.8,2.5,4.1,3.9c1.2,1.3,2.3,2.7,3.3,4.1c1,1.5,1.7,3.2,2.5,4.8c1.7,3.3,5.7,2.4,8.7,1.9
						c3.9-0.6,7.7-1.6,11.4-3c0.7-0.3,0.1-0.8-0.5-0.6c-4.7,1.8-10,3.2-15.1,3.4c-1.6,0-2.7-0.5-3.5-1.9c-0.5-0.9-0.9-1.9-1.4-2.9
						c-1-1.9-2.3-3.7-3.7-5.3c-1.4-1.6-2.9-3-4.4-4.4c-0.8-0.7-1.6-1.3-2.4-2c-0.4-0.3-1-1-1.5-1.1c-0.7-0.2-0.8,0.3-0.8,0.8
						c0,0.1,0.3,0,0-0.2c-0.3-0.3-1.2-0.4-1.6-0.5c-1.1-0.3-2.2-0.5-3.4-0.7c-5.4-0.6-10.9,0.4-16.3-0.1
						C44.9,231.3,44.4,232,45.1,232.1L45.1,232.1z"/>
				</g>
			</g>
			<g>
				<g>
					<path class="st8" d="M66.6,228.7c1,0,2.1-0.2,2.7-1c0.1-0.1,0.2-0.3,0.3-0.3c-0.3,0.2-0.1,0.1,0.2,0.3c0.9,0.6,1.8,1.2,2.7,1.8
						c3.7,2.6,7.3,5.3,10.8,8.1c1.8,1.5,3.6,3,5.3,4.5c0.8,0.7,1.6,1.4,2.4,2.2c0.7,0.6,1.4,1.4,2.2,1.8c1.6,0.8,3.5,0.1,5.2-0.3
						c2.4-0.6,4.7-1.1,7.1-1.7c0.7-0.2,0.5-0.9-0.2-0.7c-2.4,0.6-4.7,1.1-7.1,1.7c-1.2,0.3-2.8,1-3.9,0.6c-1-0.3-1.8-1.3-2.5-1.9
						c-3.2-3-6.6-5.9-10.1-8.6c-3.4-2.7-7-5.4-10.6-7.7c-0.6-0.4-1.4-0.9-2.1-0.6c-0.2,0.1-0.3,0.3-0.5,0.5
						c-0.5,0.5-1.1,0.6-1.9,0.6C66.1,228,65.8,228.8,66.6,228.7L66.6,228.7z"/>
				</g>
			</g>
			<g>
				<g>
					<path class="st8" d="M64.2,241.7c3.6-0.3,7.2-1.1,10.8-1.8c3.4-0.7,6.8-1.4,10.2-1.3c3.8,0.2,7.3,1.5,10.4,3.5
						c3.4,2.1,6.4,4.9,9.9,6.9s7.6,3.2,11.7,2.4c0.6-0.1,0.5-0.7-0.1-0.5c-8.6,1.8-15.2-6.2-21.9-10c-2.9-1.6-6.1-2.6-9.4-2.7
						c-3-0.2-6,0.3-9,0.9c-4.2,0.8-8.3,1.8-12.5,2.2C63.9,241.2,63.5,241.8,64.2,241.7L64.2,241.7z"/>
				</g>
			</g>
			<g>
				<g>
					<path class="st8" d="M55.3,234.2c2-0.3,3.6-1.1,5.2-2.3c0.7-0.5,1.3-1.1,2.2-0.8c1.2,0.3,2.3,1.4,3.1,2.3c1.9,2,3.5,4,6,5.2
						c2.1,1,4.8,1.8,5.6,4.3c0.1,0.3,1.1,0,1-0.3c-0.8-2.4-3.2-3.3-5.3-4.2c-1.5-0.7-2.7-1.5-3.9-2.6c-1.1-1.1-2.1-2.4-3.3-3.5
						c-1.4-1.3-3-2.2-4.8-1.4c-0.7,0.3-1.4,0.9-2,1.4c-1.1,0.8-2.3,1.4-3.7,1.6C55,233.8,54.6,234.3,55.3,234.2L55.3,234.2z"/>
				</g>
			</g>
			<g>
				<g>
					<path class="st8" d="M56.5,236.4c1.1,0.6,2.1,1,2.4,2.2c0.3,1.1,1,2,1.8,2.8c3,3.1,6.8,5.3,10.7,7.2c4,1.9,8.2,4,12.5,5.2
						c3.8,1.1,7.9,1.1,11.4-1c0.6-0.4-0.3-0.5-0.6-0.3c-4.2,2.5-9.2,1.3-13.4-0.4c-3.8-1.5-7.6-3.2-11.2-5.1c-3.3-1.8-7.1-4-9.3-7.2
						c-0.5-0.7-0.5-1.4-0.9-2.1c-0.4-0.9-1.6-1.4-2.4-1.8C57.1,235.7,56.1,236.2,56.5,236.4L56.5,236.4z"/>
				</g>
			</g>
			<g>
				<g>
					<path class="st8" d="M73.1,218.9c0.2,2.1,3,3.1,4.6,3.7c2.8,1.1,5.7,1.7,8.5,2.9c1.1,0.4,2.3,0.9,3,1.8c0.9,1,0.5,2.3,0.4,3.6
						c-0.2,2.4-0.1,4.9,1.6,6.8c1.7,1.9,4.5,2.9,6.8,4.1c5.9,3,11.9,5.7,18,8.4c0.2,0.1,1.2-0.3,0.9-0.4c-5.6-2.4-11.1-5-16.6-7.7
						c-2.3-1.1-4.9-2.2-6.9-3.7c-2.2-1.6-2.8-4-2.7-6.7c0-1.3,0.7-3.1-0.1-4.4c-0.5-0.8-1.4-1.3-2.3-1.7c-2.5-1.2-5.3-1.9-8-2.8
						c-1.9-0.6-6-1.6-6.2-4.1C74.1,218.4,73.1,218.5,73.1,218.9L73.1,218.9z"/>
				</g>
			</g>
			<g>
				<g>
					<path class="st7" d="M52.7,237.3c4,0,8,0,12,0c0.4,0,1.3,0,1.4-0.5c0.1-0.4-0.5-1.1-0.7-1.4c-0.4-0.6-1-1.3-1.4-1.9
						c0-0.1-0.2-0.3-0.2-0.4c0,0,0-0.1-0.1-0.2c-0.1,0.1-0.2,0.2-0.4,0.4c0,0,2.4,1.1,2.6,1.2c3.1,1.6,6.4,2,9.8,2.3
						c0.4,0,1.1-0.5,0.4-0.6c-1.9-0.2-3.8-0.3-5.6-0.8c-1.8-0.5-3.3-1.3-5-2.1c-0.6-0.3-1.7-1-2.5-0.6c-0.5,0.2-0.4,0.5-0.1,0.9
						c0.3,0.6,0.8,1.2,1.2,1.8c0.2,0.3,0.5,0.7,0.7,1c0.1,0.3,0.1,0.5,0.3,0.4c-0.1,0.1-1.1,0-1.4,0c-0.5,0-1.1,0-1.6,0
						c-1,0-2,0-3,0c-2,0-4,0-6,0C52.7,236.7,52,237.3,52.7,237.3L52.7,237.3z"/>
				</g>
			</g>
			<g>
				<g>
					<path class="st8" d="M83.4,248.1c5.8,2.1,11.3,5.3,16,9.3c0.4,0.3,1.3-0.2,0.8-0.6c-4.8-4.1-10.3-7.3-16.2-9.4
						C83.5,247.2,82.8,247.9,83.4,248.1L83.4,248.1z"/>
				</g>
			</g>
			<g>
				<g>
					<path class="st7" d="M82.8,240.1c5.2,2.8,10.7,5.3,16.3,7.2c4.5,1.6,10.8,2.3,13.4,6.9c0.2,0.4,1.2,0,1-0.4
						c-2.5-4.3-8.1-5.2-12.4-6.6c-6-2-11.9-4.5-17.5-7.6C83.3,239.3,82.3,239.8,82.8,240.1L82.8,240.1z"/>
				</g>
			</g>
			<g>
				<g>
					<path class="st8" d="M92.9,262.3c-7.7-10-16.9-18.7-27.3-25.9c-0.3-0.2-1.2,0.2-1,0.4c10.4,7.1,19.6,15.9,27.3,25.9
						C92.1,262.9,93.1,262.5,92.9,262.3L92.9,262.3z"/>
				</g>
			</g>
			<g>
				<g>
					<path class="st8" d="M57.2,242.4c6.6,0.9,13.3,0.9,19.8,1.8c6.7,0.9,12.8,3,18.3,6.9c0.4,0.3,1.3-0.3,0.8-0.6
						c-5.5-3.8-11.5-6-18.1-6.9c-6.8-1-13.7-1-20.5-1.9C57,241.6,56.5,242.3,57.2,242.4L57.2,242.4z"/>
				</g>
			</g>
			<g>
				<g>
					<path class="st8" d="M57.2,224.7c5.8,1.1,11.9,1,17.6,3c3.1,1.1,6.6,2.5,8.9,4.8c1.2,1.2,1.6,2.6,2.2,4.1
						c0.4,0.9,1,1.7,2.1,1.7c0.5,0,1.1-0.7,0.4-0.7c-1.5,0-1.7-2.5-2.2-3.5c-0.6-1.3-1.6-2.3-2.8-3.1c-2.5-1.9-5.6-3.2-8.6-4.1
						c-5.5-1.8-11.5-1.7-17.2-2.8C57.1,223.9,56.5,224.6,57.2,224.7L57.2,224.7z"/>
				</g>
			</g>
			<g>
				<g>
					<path class="st7" d="M60.6,243.7c5.6-0.4,10.9-2.3,16.5-2.6c3-0.2,6.3,0.1,9.2,1.2c2.2,0.8,3.5,3.8,6,3.2
						c0.7-0.1,0.5-0.9-0.2-0.7c-1.4,0.3-2.6-1.6-3.6-2.3c-1-0.8-2.3-1.1-3.5-1.4c-2.7-0.6-5.5-0.9-8.2-0.7
						c-5.4,0.4-10.7,2.2-16.1,2.6C60.1,242.9,59.9,243.7,60.6,243.7L60.6,243.7z"/>
				</g>
			</g>
			<g>
				<g>
					<path class="st8" d="M101.3,243.9c4.8,0.6,9.1,4,10.8,8.5c0.1,0.3,1.1,0,1-0.3c-1.8-4.7-6.2-8.1-11.2-8.7c-0.2,0-0.6,0-0.7,0.2
						C101,243.7,101,243.8,101.3,243.9L101.3,243.9z"/>
				</g>
			</g>
		</g>
		<g>
			<g>
				<g>
					<path class="st7" d="M80,211.2c4.5,0.4,9.1,0.8,13.6,1.2c4.3,0.4,8.9,0.4,13.1,1.8c7.1,2.5,12.1,8.7,19,11.6
						c3.5,1.5,7.3,2,11.1,1c0.5-0.1,0.5-0.4-0.1-0.3c-7.9,2.1-14.8-3.5-20.6-7.8c-2.7-2-5.5-3.9-8.8-4.9c-3.8-1.3-8-1.3-12-1.7
						c-4.9-0.4-9.7-0.8-14.6-1.3C80.4,210.8,79.5,211.1,80,211.2L80,211.2z"/>
				</g>
			</g>
			<g>
				<g>
					<path class="st8" d="M87.6,219.1c9.2-1.7,18.3,0.7,27,3.7c8.8,3.1,17.5,6.6,26.3,9.9c0.3,0.1,1.1-0.4,0.6-0.6
						c-9-3.4-18-7.1-27.2-10.2c-8.5-2.9-17.5-5.1-26.5-3.5C87.2,218.6,86.9,219.2,87.6,219.1L87.6,219.1z"/>
				</g>
			</g>
			<g>
				<g>
					<path class="st8" d="M69.9,219.4c3.5-3,8.4-3.4,12.8-3.7c4.6-0.4,9.7-0.8,13.7,2c3.1,2.2,4.9,5.8,8.2,7.8
						c3.2,1.9,7.2,2.2,10.8,1.5c2.2-0.4,4.2-1.4,6.3-2.2c3.3-1.1,6,0.2,8.7,2c0.2,0.2,1.1-0.2,0.9-0.3c-1.8-1.2-3.7-2.3-5.8-2.5
						s-4,0.6-5.9,1.3c-4.7,1.9-10.4,2.5-14.8-0.5c-3.4-2.4-5.3-6.4-9.1-8.2c-4.2-2-9.2-1.5-13.6-1.1c-4.5,0.4-9.4,1-12.9,4
						C68.8,219.6,69.8,219.5,69.9,219.4L69.9,219.4z"/>
				</g>
			</g>
			<g>
				<g>
					<path class="st8" d="M92.5,209.3c-0.2,2.6-0.2,5.3-0.2,7.9c0,1.2,0,2.3,0.1,3.5c0,0.8-0.1,1.8,0.4,2.6c0.9,1.5,3.2,1.3,4.7,1.3
						c2.3,0.1,4.6-0.1,6.9-0.3s4.6-0.6,6.8-1.1c1.3-0.3,2.5-0.6,3.8-0.8c1.2-0.3,2.6-0.6,3.4,0.6c1.3,1.9,2.2,4.2,3.3,6.2
						c0.8,1.4,1.8,2.3,3.5,2c0.6-0.1,0.4-0.7-0.2-0.6c-2,0.4-3.3-3.5-4-4.9c-0.7-1.3-1.3-3.4-2.8-4.1c-1.3-0.6-3,0-4.3,0.3
						c-2.2,0.5-4.5,1-6.7,1.3s-4.3,0.5-6.5,0.6c-1.3,0-2.5,0-3.8,0c-1.1,0-2.5,0-3.1-1c-0.6-0.9-0.4-2.2-0.4-3.3
						c0-1.2-0.1-2.3-0.1-3.5c0-2.3,0.1-4.6,0.2-6.9C93.5,208.8,92.5,209,92.5,209.3L92.5,209.3z"/>
				</g>
			</g>
			<g>
				<g>
					<path class="st8" d="M69.3,219.7c0.8-1.1,0.8-2.5,0.8-3.9c0-0.5-0.1-1.4,0.2-1.8c0.5-0.8,2.7,0.3,3.4,0.6
						c2.4,1.1,4.7,2.6,7,3.9c2.1,1.1,4.2,2.1,6.4,3c2.5,1,5,1.9,7.6,2.7c2.2,0.7,4.6,1.5,7,1.8c1.7,0.2,3.1-0.4,4.1-1.7
						c0.5-0.7,0.9-1.5,1.5-2.1c0.9-0.9,2.1-1.5,3.3-1.8c5.8-1.5,10.9,2.2,14.7,6.2c0.2,0.2,1.1-0.1,0.9-0.3
						c-3.3-3.5-7.3-6.5-12.3-6.6c-1.9,0-3.9,0.3-5.6,1.2c-0.7,0.4-1.4,0.8-1.9,1.4c-0.7,0.8-1.1,1.8-1.8,2.6
						c-1.3,1.5-3.7,0.5-5.3,0.1c-1.5-0.4-2.9-0.8-4.3-1.2c-2.8-0.9-5.5-1.9-8.2-3.1s-5.2-2.5-7.7-3.9c-2.2-1.3-4.4-2.7-6.9-3.3
						c-1.2-0.3-2.5-0.2-2.8,1.1c-0.4,1.7,0.3,3.7-0.9,5.3C68.3,220.1,69.2,219.9,69.3,219.7L69.3,219.7z"/>
				</g>
			</g>
			<g>
				<g>
					<path class="st8" d="M97.6,209.1c-0.8,3.9,1.6,9.2-2.2,12.1c-1.7,1.3-4.2,0.9-6,2.2c-1.5,1.1-0.9,2.5,0.4,3.5
						c3.4,2.5,7.5,4,11.3,5.6c4.2,1.7,8.4,3.4,12.1,5.9c0.2,0.2,1.1-0.2,0.9-0.3c-7.1-4.7-15.6-6.5-22.8-11
						c-0.8-0.5-2.2-1.4-1.9-2.6c0.4-1.5,2.4-1.6,3.6-1.9c1.5-0.3,2.9-0.9,3.9-2.1c2.7-3.3,0.6-7.7,1.4-11.4
						C98.6,208.6,97.7,208.8,97.6,209.1L97.6,209.1z"/>
				</g>
			</g>
			<g>
				<g>
					<path class="st8" d="M82.8,216.2c8.1,2.1,16.1,4.1,24.2,6.2c7.9,2.1,15.6,4.6,22.8,8.3c3.9,2,7.7,4.3,11.5,6.5
						c0.2,0.1,1-0.2,0.9-0.3c-6.7-4-13.5-8-20.9-10.8c-7.7-2.9-15.8-4.7-23.7-6.8c-4.7-1.2-9.4-2.4-14.1-3.6
						C83.3,215.8,82.5,216.1,82.8,216.2L82.8,216.2z"/>
				</g>
			</g>
			<g>
				<g>
					<path class="st8" d="M61.1,221c3.2,0.2,5.7-1,8.4-2.5c1.3-0.7,2.6-1.3,4.2-1.4c2.3-0.1,4.5,1,6.5,2c4,2.1,8.1,4.8,11.3,8
						c1.6,1.6,2.9,3.3,4,5.3c1,1.7,2.1,2.6,4.2,2.6c2.6,0.1,5.3-0.4,7.8-0.8c2.8-0.5,5.6-1.2,8.3-2c0.6-0.2,0.4-0.9-0.2-0.7
						c-4.7,1.5-9.7,2.5-14.6,2.8c-1.4,0.1-2.8,0.1-3.8-1.1c-0.7-0.8-1.1-1.9-1.7-2.7c-1.1-1.7-2.4-3.1-3.9-4.5
						c-3.2-2.9-6.9-5.5-10.7-7.5c-3-1.6-6.4-2.9-9.7-1.6c-1.4,0.5-2.7,1.4-4,2.1c-1.8,1-3.7,1.5-5.7,1.3
						C60.9,220.3,60.4,221,61.1,221L61.1,221z"/>
				</g>
			</g>
			<g>
				<g>
					<path class="st8" d="M76.8,213.7c4.5,0.1,8.5,2.4,12.2,4.6c3.8,2.1,7.5,4.4,11.1,6.9c1.7,1.2,3.4,2.4,5.1,3.6
						c1.3,1,2.7,2.4,4.4,2.9c1.6,0.5,3.5-0.2,5.1-0.5c2.2-0.4,4.4-0.9,6.6-1.3c0.4-0.1,0.8-0.6,0.1-0.5c-2.2,0.4-4.4,0.9-6.6,1.3
						c-1,0.2-2,0.4-3,0.6c-1.4,0.2-2.3-0.3-3.4-1.1c-3.3-2.5-6.7-4.9-10.2-7.2c-3.4-2.2-6.9-4.3-10.5-6.3c-3.3-1.8-6.7-3.5-10.6-3.5
						C76.9,213.2,76.2,213.7,76.8,213.7L76.8,213.7z"/>
				</g>
			</g>
			<g>
				<g>
					<path class="st8" d="M74.5,224.4c8.1-0.6,16.3-1.1,24.3,0c3.9,0.6,7.7,1.5,11.3,3.1c3.7,1.7,7,4.1,10.7,6c3.8,1.9,8,3,12.2,2.3
						c0.4-0.1,0.8-0.6,0.1-0.5c-8.8,1.5-15.4-5.3-22.9-8.5c-6.9-3-14.5-3.6-22-3.6c-4.5,0-9,0.3-13.5,0.6
						C74.6,223.9,73.9,224.4,74.5,224.4L74.5,224.4z"/>
				</g>
			</g>
			<g>
				<g>
					<path class="st8" d="M84.4,209.7c5,5.9,10.3,11.9,17.2,15.8c7.7,4.3,16.8,4.4,24.5,8.7c4,2.2,7.6,5.1,10.3,8.8
						c0.2,0.2,1-0.2,0.9-0.3c-4.8-6.4-11.9-10.4-19.6-12.5c-4.4-1.2-8.9-2-13.1-4c-3.7-1.7-7-4.1-10-6.8c-3.4-3.1-6.4-6.5-9.3-10
						C85.2,209.2,84.4,209.6,84.4,209.7L84.4,209.7z"/>
				</g>
			</g>
			<g>
				<g>
					<path class="st9" d="M62.4,221.5c2.8,2.2,5.8,3.1,9.4,3.2c1.9,0.1,3.8,0.1,5.6,0.4c2.4,0.4,4.6,1.2,6.9,2.1
						c8.6,3.4,16.4,8.6,24.7,12.6c4.6,2.2,9.4,4,14.5,5c0.3,0.1,1.1-0.4,0.6-0.5c-9.1-1.8-17.2-6.3-25.2-10.8
						c-7.3-4-15.2-8.7-23.7-9.3c-1.9-0.1-3.9-0.1-5.8-0.4c-2.3-0.4-4.3-1.4-6.1-2.8C63.1,220.9,62.2,221.3,62.4,221.5L62.4,221.5z"
						/>
				</g>
			</g>
			<g>
				<g>
					<path class="st8" d="M71.3,222.7c1.9-0.2,3.4-0.9,4.8-2.1c0.6-0.5,1.3-1.2,2.1-1.3c1.1-0.2,2.4,0.8,3.2,1.4
						c2,1.6,3.7,3.5,6.1,4.5c2,0.8,5,1.4,5.9,3.6c0.1,0.3,1.1,0.1,0.9-0.3c-0.9-2.2-3.6-2.8-5.6-3.6c-1.5-0.6-2.7-1.3-3.9-2.3
						c-1.1-0.9-2.1-2-3.3-2.8c-1.4-1-2.9-1.4-4.5-0.5c-0.7,0.4-1.4,1-2.1,1.5c-1.1,0.8-2.2,1.2-3.5,1.4
						C71,222.3,70.6,222.8,71.3,222.7L71.3,222.7z"/>
				</g>
			</g>
			<g>
				<g>
					<path class="st8" d="M72.7,224.6c0.8,0.3,1.9,0.6,2.4,1.3c0.6,0.9,1.3,1.6,2.1,2.3c3.1,2.5,6.8,4.2,10.5,5.7
						c3.9,1.5,7.9,3.1,11.9,4.1c3.8,0.9,7.9,1.1,11.5-0.7c0.6-0.3,0.1-0.8-0.4-0.6c-4,2-8.7,1.2-12.8,0c-3.8-1.2-7.6-2.5-11.2-4.1
						c-3.5-1.5-7.1-3.2-9.9-5.9c-0.5-0.5-0.7-1-1.1-1.4c-0.6-0.7-1.8-0.9-2.5-1.2C72.8,223.7,72.1,224.3,72.7,224.6L72.7,224.6z"/>
				</g>
			</g>
			<g>
				<g>
					<path class="st8" d="M83.6,205.7c0.2,1.9,3.6,2.9,5,3.5c3.2,1.3,6.5,2.4,9.8,3.6c1.5,0.5,3,1.1,4.4,1.8c1,0.5,2.2,1,2.9,1.9
						c0.2,0.3,0.3,0.5,0.3,0.9c0,1.3-0.4,2.6-0.2,3.9c0.3,2.7,2.4,4.1,4.7,5.1c7.1,3.1,14.4,5.8,21.7,8.3c0.3,0.1,1.1-0.3,0.8-0.4
						c-6.5-2.3-12.8-4.7-19.2-7.3c-2.6-1.1-6.2-2.1-6.9-5.3c-0.3-1.4-0.1-2.8,0.1-4.2c0.1-0.5,0.1-0.8-0.1-1.2
						c-0.4-0.7-1.3-1.2-2-1.6c-1.2-0.7-2.5-1.2-3.8-1.7c-3.3-1.3-6.6-2.3-9.9-3.6c-1.5-0.6-3-1.2-4.4-2c-0.8-0.4-2-1.1-2.1-2.1
						C84.5,205.2,83.5,205.4,83.6,205.7L83.6,205.7z"/>
				</g>
			</g>
			<g>
				<g>
					<path class="st7" d="M68.7,225.2c1.3,0,2.6-0.4,3.4-1.5c1.1-1.3,1.5-2.9,3.5-3c1.6,0,3.1,0.1,4.6,0.6c1.2,0.4,2.3,1,3.5,1.4
						c2.6,0.9,5.3,1,8,1.2c0.3,0,1.1-0.4,0.6-0.5c-2.9-0.2-5.9-0.4-8.6-1.5c-1.2-0.5-2.4-1.1-3.7-1.4c-1.2-0.3-2.4-0.3-3.6-0.3
						c-1.4,0-2.7,0.3-3.7,1.4c-1.2,1.3-1.5,3-3.6,3.1C68.8,224.7,68.1,225.2,68.7,225.2L68.7,225.2z"/>
				</g>
			</g>
			<g>
				<g>
					<path class="st8" d="M99.4,233.2c5.7,1.7,11.1,4.2,16,7.6c0.3,0.2,1.2-0.2,0.7-0.5c-4.9-3.4-10.4-6-16.2-7.7
						C99.6,232.5,98.8,233,99.4,233.2L99.4,233.2z"/>
				</g>
			</g>
			<g>
				<g>
					<path class="st7" d="M98.9,226.7c5.2,2.3,10.6,4.2,16.1,5.8c2.5,0.7,5,1.2,7.4,2c2.3,0.7,4.6,1.6,6.1,3.6
						c0.2,0.3,1.1,0,0.9-0.4c-2.7-3.9-8.7-4.4-12.9-5.6c-5.8-1.6-11.5-3.6-17-6.1C99.1,225.9,98.4,226.5,98.9,226.7L98.9,226.7z"/>
				</g>
			</g>
			<g>
				<g>
					<path class="st8" d="M108.8,244.7c-7.9-8.4-17.3-15.5-27.4-21.1c-0.3-0.2-1.1,0.2-0.7,0.5c10.1,5.6,19.3,12.7,27.2,21.1
						C108.2,245.3,109.1,245,108.8,244.7L108.8,244.7z"/>
				</g>
			</g>
			<g>
				<g>
					<path class="st8" d="M67.5,224.8c14.9,1.6,30.5,3.2,43.8,10.7c0.2,0.1,1-0.2,0.9-0.3c-13.4-7.5-29.1-9.1-44.1-10.8
						C67.8,224.4,67,224.7,67.5,224.8L67.5,224.8z"/>
				</g>
			</g>
			<g>
				<g>
					<path class="st8" d="M73.2,215c5.7,0.9,11.7,0.3,17.3,1.6c3,0.7,6.4,1.8,8.9,3.7c1.3,1,1.8,2.1,2.5,3.5c0.4,0.9,1,1.4,2,1.5
						c0.4,0,1-0.6,0.3-0.6c-1.5,0-1.7-1.9-2.3-2.9c-0.7-1.1-1.8-2-2.9-2.6c-2.6-1.5-5.7-2.6-8.7-3.2c-5.5-1.2-11.3-0.6-16.8-1.5
						C73.1,214.3,72.5,214.9,73.2,215L73.2,215z"/>
				</g>
			</g>
			<g>
				<g>
					<path class="st8" d="M105,235.8c5.3,0,10.6,0,15.9,0c2.5,0,5.1-0.1,7.6,0c1.9,0,4.5,0.1,5.7,1.9c0.2,0.2,1-0.1,0.9-0.3
						c-0.9-1.4-2.6-1.8-4.2-2c-2.6-0.3-5.3-0.1-7.9-0.1c-5.8,0-11.6,0-17.4,0C105.4,235.4,104.5,235.8,105,235.8L105,235.8z"/>
				</g>
			</g>
			<g>
				<g>
					<path class="st8" d="M75.2,234.4c6.9-1.2,14.1-0.5,20.7,1.8c3.1,1.1,6.1,2.6,8.8,4.5c1.2,0.9,2.4,1.8,3.5,2.9
						c1.1,1,2.1,2,3.6,2.4c2.1,0.5,4.4,0.5,6.5,0.6c2.5,0.2,4.9,0.3,7.4,0.5c0.5,0,1-0.7,0.3-0.7c-4.2-0.3-8.6-0.4-12.8-0.9
						c-2.1-0.3-3.2-1.5-4.7-2.8c-1.2-1.1-2.4-2-3.7-2.9c-5.5-3.7-12-5.8-18.5-6.4c-3.8-0.4-7.6-0.2-11.3,0.4
						C74.4,233.8,74.6,234.5,75.2,234.4L75.2,234.4z"/>
				</g>
			</g>
			<g>
				<g>
					<path class="st7" d="M71,226c7-0.3,14-0.1,20.9,0.7c3.3,0.4,6.8,0.8,10,1.7c1.5,0.4,2.5,1.3,3.8,2.2c0.8,0.5,1.6,0.7,2.6,0.6
						c0.6-0.1,0.4-0.8-0.2-0.7c-1.5,0.3-2.7-1.3-3.8-2c-1.2-0.7-2.5-0.9-3.8-1.1c-3.2-0.6-6.5-1.1-9.8-1.5
						c-6.5-0.7-13.1-0.9-19.7-0.6C70.6,225.3,70.4,226,71,226L71,226z"/>
				</g>
			</g>
			<g>
				<g>
					<path class="st8" d="M117.3,229.8c4.4,0.4,8.9,2.8,10.8,6.9c0.1,0.3,1.1,0,0.9-0.3c-2-4.2-6.7-6.7-11.2-7.1
						c-0.2,0-0.5,0-0.7,0.2C117.1,229.6,117.1,229.7,117.3,229.8L117.3,229.8z"/>
				</g>
			</g>
			<g>
				<g>
					<path class="st7" d="M91,235.4c7.9-0.2,16.1-0.5,23.8,1.6c6.8,1.8,12.9,6,20.1,6.6c0.2,0,1.1-0.4,0.6-0.4
						c-7.5-0.6-14-5.2-21.2-6.9c-7.5-1.7-15.2-1.5-22.9-1.3C91.1,234.9,90.4,235.4,91,235.4L91,235.4z"/>
				</g>
			</g>
		</g>
		<g>
			<g>
				<g>
					<path class="st8" d="M67.6,243.9c5.6-0.5,11.8-0.9,16.4,3.1c1.8,1.6,3.4,3.1,5.7,4c1.9,0.8,4.7,1.3,5.6,3.5
						c0.1,0.3,1,0,0.9-0.3c-0.8-2-3.2-2.7-5.1-3.4c-1.4-0.5-2.6-1.1-3.8-2c-1.2-0.9-2.2-2-3.4-3c-4.5-3.5-10.8-2.9-16.2-2.5
						C67.3,243.4,66.9,243.9,67.6,243.9L67.6,243.9z"/>
				</g>
			</g>
			<g>
				<g>
					<path class="st7" d="M65,246.4c2.7,0,5.3,0,8,0c2.4,0,4.9-0.2,7.2,0.1c2.3,0.3,4.3,1.7,6.5,2.2c2.3,0.6,4.6,0.7,6.9,0.9
						c0.4,0,1-0.6,0.3-0.6c-2.5-0.2-5.1-0.3-7.5-1.1c-2-0.6-3.8-1.8-5.9-2c-2.4-0.3-4.8-0.1-7.2-0.1c-2.7,0-5.3,0-8,0
						C65,245.8,64.4,246.4,65,246.4L65,246.4z"/>
				</g>
			</g>
			<g>
				<g>
					<path class="st8" d="M69.4,236.1c7.7,1.2,15.2,3.1,22.5,5.6c3.1,1.1,6.8,2.1,9.5,4.2c1.2,0.9,1.7,2,2.3,3.3
						c0.5,0.9,1,1.5,2.1,1.5c0.3,0,1-0.5,0.4-0.5c-1.5,0-1.7-2-2.3-3c-0.7-1.1-1.8-1.9-2.9-2.6c-3-1.7-6.4-2.8-9.6-3.9
						c-7-2.4-14.1-4.1-21.4-5.2C69.7,235.5,68.8,236,69.4,236.1L69.4,236.1z"/>
				</g>
			</g>
			<g>
				<g>
					<path class="st7" d="M72.9,251.5c6.9-0.3,13.8-0.1,20.6,0.7c3.3,0.4,6.7,0.8,10,1.6c1.5,0.4,2.5,1.2,3.8,2.1
						c0.8,0.6,1.7,0.9,2.7,0.8c0.5-0.1,0.8-0.7,0.1-0.6c-1.5,0.3-2.5-1.1-3.6-1.8c-1.2-0.8-2.6-1-4-1.3c-3.2-0.6-6.4-1.1-9.6-1.4
						c-6.6-0.7-13.3-0.9-19.9-0.6C72.5,251,72.2,251.6,72.9,251.5L72.9,251.5z"/>
				</g>
			</g>
		</g>
		<g>
			<g>
				<path class="st8" d="M70.2,212.7c0.5,0,1.1-0.7,0.4-0.7C70.1,212,69.4,212.7,70.2,212.7L70.2,212.7z"/>
			</g>
		</g>
		<g>
			<g>
				<path class="st8" d="M67,146.6c0.8,3.3,1.4,6.6,2,9.9c0.3,1.6,0.5,3.3,0.7,4.9c0.1,0.8,0.2,1.6,0.3,2.5c0,0.4,0.1,0.9,0.1,1.3
					c0,0.2,0,0.3-0.1,0.5c-0.3,0.2-0.3,0.4,0,0.4c-0.3-0.3-1.3,0.2-1,0.4c0.8,0.7,1.8,0,2.1-0.8c0.3-0.8,0.1-1.8,0-2.6
					c-0.1-1.1-0.2-2.3-0.4-3.4c-0.6-4.5-1.4-8.9-2.5-13.3C68,145.9,66.9,146.2,67,146.6L67,146.6z"/>
			</g>
		</g>
		<g>
			<g>
				<g>
					<path class="st7" d="M70.4,145.6c1,4.5,2,8.9,2.9,13.4c1,4.4,2.4,9,2,13.6c-0.8,7.8-6.2,14.2-7.4,22c-0.6,3.7-0.2,7.6,2.1,10.7
						c0.1,0.2,0.9-0.1,0.8-0.3c-4.7-6.4-1.4-14.6,1.5-21c1.7-3.6,3.4-7.4,3.8-11.4c0.5-4.1-0.7-8.2-1.6-12.2c-1.1-5-2.2-10-3.3-15.1
						C71.2,145.2,70.4,145.4,70.4,145.6L70.4,145.6z"/>
				</g>
			</g>
			<g>
				<g>
					<path class="st8" d="M63.7,155.6c4.7,7.8,5,17.1,4.3,25.9c-0.7,10-2.2,20.1-3.3,30.1c0,0.3,0.8,0.1,0.8-0.1
						c0.9-8.2,1.9-16.3,2.8-24.5c0.7-6.8,1.3-13.8,0.2-20.6c-0.7-3.9-1.9-7.6-4-11C64.4,155.1,63.6,155.4,63.7,155.6L63.7,155.6z"/>
				</g>
			</g>
			<g>
				<g>
					<path class="st8" d="M66.1,150.1c1.6,3.7,3.4,7.8,2.5,12c-0.7,3.3-3.2,5.9-5,8.7c-1.8,2.7-2.8,5.6-2.4,8.9
						c0.4,3.3,2.1,6.2,4.4,8.5c1.4,1.4,3,2.7,3.6,4.6c0.8,2.3-0.1,4.7-1,6.9c-0.1,0.3,1,0.2,1.1-0.2c0.7-1.8,1.3-3.6,1.2-5.5
						c-0.1-1.6-0.9-3-1.9-4.2c-1.1-1.3-2.5-2.4-3.5-3.7c-1.1-1.5-2-3.2-2.5-5c-1-3.6-0.2-7,1.8-10.2c1.7-2.7,4-5.1,5-8.2
						c1.3-4.4-0.6-8.9-2.3-12.9C67,149.5,66,149.8,66.1,150.1L66.1,150.1z"/>
				</g>
			</g>
			<g>
				<g>
					<path class="st8" d="M76.8,156.7c-3.9,1.1-7.8,2.3-11.6,3.7c-1.4,0.5-3.3,0.9-4.5,1.9s-0.8,2.6-0.5,3.9c1,3.8,2.6,7.3,4.6,10.7
						c0.9,1.6,1.8,3.1,2.8,4.5c0.6,0.9,1.3,1.7,1.7,2.7c0.5,1.4-0.3,2.3-1.3,3.2c-1.7,1.5-3.4,3-5.1,4.6c-1,0.9-2.5,2.4-1.6,3.9
						c0.2,0.2,0.9,0,0.8-0.2c-1.3-2.1,2.4-4.4,3.7-5.6c0.9-0.8,1.9-1.7,2.8-2.5c0.5-0.5,1.1-0.9,1.4-1.5c0.9-1.8-1.2-3.9-2.1-5.3
						c-1.3-1.9-2.5-4-3.6-6c-1-2-1.9-4-2.6-6.1c-0.4-1.1-0.7-2.2-1-3.3c-0.4-1.7,0.1-2.8,1.8-3.5c4.6-1.9,9.5-3.3,14.3-4.7
						C77.4,156.9,77.3,156.6,76.8,156.7L76.8,156.7z"/>
				</g>
			</g>
			<g>
				<g>
					<path class="st8" d="M57.9,140.4c0.1,1.3,1.1,2.1,2,2.8s2.5,1.4,2.9,2.5c0.3,0.9-0.3,2-0.6,2.9c-0.3,1.2-0.6,2.5-0.9,3.8
						c-0.5,2.5-0.9,5.1-1.2,7.6c-0.3,2.6-0.4,5.3-0.4,8c0,1.8-0.3,4.4,1,5.9c1.2,1.3,3.1,1.2,4.6,1.5c2.1,0.5,3.6,2.1,4.6,3.9
						c2.7,5.2-0.1,10.8-3.1,15.2c-0.4,0.6,0.6,0.8,0.9,0.4c2.5-3.7,4.9-8.1,4.2-12.7c-0.5-3.5-2.9-6.8-6.5-7.6
						c-1-0.2-2.1-0.2-3.1-0.6c-1.4-0.7-1.5-2.2-1.6-3.6c-0.1-2.7-0.1-5.3,0.1-8s0.5-5.5,1.1-8.1c0.2-1.3,0.5-2.6,0.8-3.9
						c0.3-1.3,0.8-2.6,1-3.8c0.5-3.1-4.7-3.4-5-6.3C59,139.6,57.9,139.8,57.9,140.4L57.9,140.4z"/>
				</g>
			</g>
			<g>
				<g>
					<path class="st8" d="M63.1,163.1c-1.5-1.6-2.8-5.2-5.7-4.2c-1.1,0.4-1.7,1.4-2.1,2.5c-0.6,1.6-1,3.3-1.4,4.9
						c-1.6,7.1-1.8,14.6-4.4,21.5c-0.2,0.5,0.7,0.5,0.8,0.1c2.1-5.4,2.6-11.2,3.6-16.9c0.5-3,1.1-6,2-8.8c0.2-0.6,0.4-1.2,0.7-1.7
						c0.8-1.3,2.2-1.3,3.3-0.4c1.1,0.9,1.6,2.3,2.6,3.4C62.6,163.8,63.4,163.4,63.1,163.1L63.1,163.1z"/>
				</g>
			</g>
			<g>
				<g>
					<path class="st8" d="M78.9,161.3c-2.9,0.4-5.5,1.8-8.2,2.7c-0.5,0.2-0.4,0.8,0.2,0.6c2.7-0.9,5.2-2.3,8-2.7
						c0.2,0,0.4-0.1,0.5-0.3C79.3,161.4,79,161.3,78.9,161.3L78.9,161.3z"/>
				</g>
			</g>
			<g>
				<g>
					<path class="st8" d="M65.5,150.3c0.1,8.5,0.3,17.1,0.4,25.6c0.1,8.4-0.5,16.6-2.5,24.7c-1.1,4.5-2.5,9-4,13.4
						c-0.1,0.2,0.8,0.1,0.8-0.1c2.5-7.8,5-15.7,5.9-23.9c1-8.3,0.5-16.8,0.4-25.2c-0.1-4.9-0.2-9.8-0.3-14.7
						C66.4,149.9,65.5,150,65.5,150.3L65.5,150.3z"/>
				</g>
			</g>
			<g>
				<g>
					<path class="st8" d="M55.5,175.7c1.4,7.6,5.8,14.2,7.1,21.8c0.7,4,0.1,7.7-1.2,11.5c-1.3,3.6-2,7.1-1.1,11
						c0.1,0.2,0.9,0,0.8-0.2c-0.9-4.1,0-7.7,1.3-11.5c1.3-3.6,1.7-7.2,1-11c-1.3-7.6-5.8-14.2-7.1-21.8
						C56.3,175.2,55.5,175.4,55.5,175.7L55.5,175.7z"/>
				</g>
			</g>
			<g>
				<g>
					<path class="st8" d="M55.3,146.5c0,2.1,2.4,3,3.7,4.2c0.9,0.7,1.2,1.5,0.9,2.6c-0.6,1.8-1.3,3.5-2.1,5.2
						c-1.6,3.4-3.6,6.7-6.3,9.3c-1.1,1-2.5,2-2.7,3.6c-0.3,1.8,0.9,3.7,1.6,5.2c1.9,3.9,4.2,7.5,6.9,10.8c0.2,0.2,1.2-0.2,1-0.4
						c-2.5-3.1-4.7-6.4-6.5-9.9c-0.8-1.5-1.9-3.4-2-5.1c-0.1-2.1,1.8-3.3,3.1-4.6c2.4-2.5,4.3-5.5,5.8-8.6c0.8-1.7,1.5-3.5,2.2-5.2
						c0.3-0.9,0.5-1.6-0.1-2.5c-1.3-1.7-4.3-2.3-4.3-4.8C56.4,146,55.3,146.2,55.3,146.5L55.3,146.5z"/>
				</g>
			</g>
			<g>
				<g>
					<path class="st8" d="M59.9,145.7c0.8,2.2,3,3.4,4.6,4.9c0.8,0.8,1.6,1.7,1.5,2.9c-0.1,1.7-0.9,3.6-1.4,5.2
						c-1.2,4-2.6,7.9-4.1,11.8c-0.7,1.8-1.5,3.7-2.2,5.5c-0.7,1.6-1.7,3.3-2.1,5c-0.5,1.9,1,3.5,1.9,5c1.2,2,2.5,4,3.7,6
						c0.2,0.3,1,0,0.8-0.4c-1.4-2.2-2.7-4.4-4.1-6.6c-0.7-1.2-1.8-2.4-1.5-3.9c0.2-1.3,1-2.6,1.6-3.8c2-4.5,3.8-9.2,5.4-13.9
						c0.7-2.2,1.4-4.4,2.1-6.6c0.5-1.5,1.3-3.3,0.5-4.9c-1.3-2.6-4.7-3.6-5.8-6.4C60.6,145.1,59.8,145.4,59.9,145.7L59.9,145.7z"/>
				</g>
			</g>
			<g>
				<g>
					<path class="st8" d="M46.6,147.7c3.1,7.2,8.4,13.1,11.8,20.2c1.7,3.4,2.8,7.1,2.6,10.9c-0.2,4.5-2.3,8.8-3.5,13.1
						c-1.2,4.5-1.6,9.4,0.9,13.6c0.3,0.4,1.3,0,1-0.5c-5-8.5,2.1-17.3,2.7-25.9c0.5-7.4-3.8-14-7.6-20c-2.5-3.8-5-7.6-6.8-11.7
						C47.5,146.9,46.4,147.2,46.6,147.7L46.6,147.7z"/>
				</g>
			</g>
			<g>
				<g>
					<path class="st8" d="M48.4,173.8c3.1,6.3,2.1,13.5,2.8,20.2c0.3,3.4,1.1,6.7,2.8,9.8c1.5,2.7,3.5,5,5.5,7.3
						c2.4,2.8,4.8,5.7,6.2,9.2c0.1,0.2,0.9-0.1,0.8-0.2c-2.5-5.9-7.6-10.1-11-15.4c-3.8-6-3.5-13-3.8-19.8
						c-0.2-3.9-0.7-7.8-2.4-11.3C49.1,173.4,48.3,173.7,48.4,173.8L48.4,173.8z"/>
				</g>
			</g>
			<g>
				<g>
					<path class="st9" d="M53.4,152.7c-1.2,16-9.8,30.9-8.5,47.3c0,0.2,1.1,0,1.1-0.3c-1.3-16.3,7.3-31.2,8.5-47.3
						C54.5,152.3,53.4,152.4,53.4,152.7L53.4,152.7z"/>
				</g>
			</g>
			<g>
				<g>
					<path class="st8" d="M60.2,149.4c-1.1,2.9-3.2,5.2-3.7,8.3c-0.4,2.4-0.1,5.7-2.3,7.3c-0.6,0.4,0.3,0.8,0.7,0.5
						c2.3-1.6,2.2-4.6,2.6-7.1c0.2-1.6,0.7-3,1.4-4.4c0.8-1.5,1.8-2.9,2.4-4.6C61.5,148.9,60.4,148.9,60.2,149.4L60.2,149.4z"/>
				</g>
			</g>
			<g>
				<g>
					<path class="st8" d="M46.8,151.3c-1.2,2.5-1.6,5-1.4,7.8c0.2,2.8,0.7,5.6,0.6,8.5c-0.3,6-1.2,12.9,3.9,17.2
						c0.2,0.2,1.2-0.2,1-0.4c-5.1-4.3-4.1-11.2-3.9-17.1c0.1-2.7-0.3-5.3-0.6-7.9c-0.2-2.9,0-5.6,1.3-8.2
						C47.9,151,46.9,151.1,46.8,151.3L46.8,151.3z"/>
				</g>
			</g>
			<g>
				<g>
					<path class="st8" d="M78.2,146.8c-2,0.9-2.4,4.2-2.7,6c-0.6,3.7-0.8,7.4-1.1,11.1c-0.2,1.7-0.4,3.4-0.8,5
						c-0.2,1.1-0.5,2.4-1.3,3.2c-0.5,0.5-1.3,0.5-2,0.7c-1.2,0.3-2.5,0.6-3.6,1.2c-2.5,1.2-3.7,3.4-4.2,6c-1.5,8-2.2,16.2-2.9,24.2
						c0,0.4,0.8,0.3,0.8-0.1c0.6-7,1.4-14.1,2.4-21.1c0.5-3.4,0.8-7,4.2-8.7c1.2-0.6,2.5-0.9,3.8-1.2c0.6-0.1,1.3-0.2,1.8-0.6
						c1.8-1.2,2.1-4.5,2.3-6.4c0.5-3.6,0.7-7.2,1.1-10.8c0.2-1.8,0.4-3.5,0.8-5.2c0.3-1,0.6-2.6,1.7-3.1
						C79,147,78.6,146.6,78.2,146.8L78.2,146.8z"/>
				</g>
			</g>
			<g>
				<g>
					<path class="st7" d="M51.2,147.3c0.4,0.9,2,0.8,2.7,0.8c1.4,0.1,2.8-0.1,4.2,0.2c0.7,0.1,0.6,0.3,0.6,1
						c-0.1,1.4-0.5,2.8-0.6,4.2c-0.2,2.8,0.4,5.5,1.1,8.2c0.1,0.5,1.2,0.2,1.1-0.3c-0.7-2.8-1.4-5.6-1-8.5c0.2-1.4,0.6-2.8,0.5-4.2
						c0-0.5-0.1-0.8-0.6-0.9c-1.1-0.5-2.6-0.3-3.8-0.3c-0.7,0-1.4,0-2-0.1c-0.2,0-1,0-1.1-0.3C52.1,146.5,51,146.8,51.2,147.3
						L51.2,147.3z"/>
				</g>
			</g>
			<g>
				<g>
					<path class="st8" d="M51.1,172.4c-0.2,6.2-1.5,12.4-3.8,18.2c-0.2,0.4,0.7,0.5,0.8,0.1c2.4-5.8,3.7-12,3.8-18.3
						C51.9,171.9,51.1,172,51.1,172.4L51.1,172.4z"/>
				</g>
			</g>
			<g>
				<g>
					<path class="st7" d="M58.5,169.5c-1,5.9-1.6,11.8-1.7,17.7c-0.1,4.7,1.2,11-2.3,14.8c-0.4,0.4,0.4,0.5,0.7,0.3
						c3.4-3.8,2.4-9.5,2.4-14.2c0-6.3,0.6-12.5,1.7-18.7C59.4,169,58.6,169.1,58.5,169.5L58.5,169.5z"/>
				</g>
			</g>
			<g>
				<g>
					<path class="st8" d="M40.7,185.4c7.1-10.5,12.5-22,16-34.2c0.1-0.5-0.7-0.5-0.8-0.1c-3.5,12.1-8.8,23.6-15.9,34
						C39.7,185.6,40.4,185.8,40.7,185.4L40.7,185.4z"/>
				</g>
			</g>
			<g>
				<g>
					<path class="st8" d="M52.3,185c0.4,0,1.2-0.5,0.4-0.5C52.4,184.5,51.6,185,52.3,185L52.3,185z"/>
				</g>
			</g>
			<g>
				<g>
					<path class="st8" d="M64,170.4c-0.6,0.5-1.2,0.9-1.7,1.4c-0.4,0.5-0.8,1.1-0.5,1.8c0.1,0.2,0.9,0,0.8-0.2
						c-0.2-0.6,0-1.2,0.4-1.6c0.5-0.5,1-0.9,1.6-1.3c0.1-0.1,0.1-0.2-0.1-0.2C64.4,170.2,64.2,170.3,64,170.4L64,170.4z"/>
				</g>
			</g>
			<g>
				<g>
					<path class="st8" d="M67.6,162.8c0.2,0,0.9-0.4,0.4-0.4C67.7,162.4,67,162.8,67.6,162.8L67.6,162.8z"/>
				</g>
			</g>
			<g>
				<g>
					<path class="st8" d="M46.9,195.1c1.9,4.9,3.8,9.8,5.8,14.7c1,2.5,1.9,4.8,0.7,7.4c-0.8,1.7-2,3.1-2.4,5
						c-0.1,0.3,0.8,0.2,0.8-0.1c0.4-2,1.8-3.6,2.6-5.4c1-2.3,0.2-4.4-0.7-6.6c-2-5-4-10.1-5.9-15.1
						C47.6,194.6,46.8,194.8,46.9,195.1L46.9,195.1z"/>
				</g>
			</g>
			<g>
				<g>
					<path class="st8" d="M49.7,178.9c1.7,5.1,3.4,10.2,5.1,15.3c0.8,2.4,1.7,4.8,2.4,7.2c0.6,2,1.1,4.4-0.5,6
						c-0.2,0.2,0.6,0.2,0.8,0c1.3-1.4,1.3-3.3,0.9-5.1c-0.6-2.5-1.6-5-2.4-7.5c-1.8-5.4-3.6-10.8-5.4-16.2
						C50.4,178.4,49.6,178.6,49.7,178.9L49.7,178.9z"/>
				</g>
			</g>
			<g>
				<g>
					<path class="st8" d="M35.4,151.9c4.4,7.5,9.7,16.2,8.9,25.3c-0.2,2.2-0.8,4.3-1.8,6.3c-0.9,1.8-2.3,3.4-2.4,5.4
						c-0.1,2.1,0.8,4.4,1.3,6.5c0.6,2.5,1.2,4.9,1.8,7.4c0.1,0.4,0.9,0.2,0.8-0.2c-0.6-2.6-1.2-5.1-1.8-7.7
						c-0.5-2.2-1.6-4.9-1.1-7.1c0.6-2.1,2.2-3.9,2.9-6c0.7-1.9,1.1-3.9,1.1-5.9c0.2-8.8-4.8-17-9.1-24.3
						C35.9,151.2,35.1,151.5,35.4,151.9L35.4,151.9z"/>
				</g>
			</g>
			<g>
				<g>
					<path class="st7" d="M57.3,171.7c0.1,0.8,0.1,1.7,0,2.5c-0.1,0.7-0.4,1.4-0.7,2.1c-0.5,1.1-1.2,2.4-0.4,3.6
						c0.2,0.3,1.3-0.1,1-0.4c-0.8-1.2,0.2-2.6,0.7-3.7c0.3-0.7,0.5-1.4,0.6-2.1c0.1-0.8,0-1.5-0.1-2.3
						C58.4,171.1,57.3,171.3,57.3,171.7L57.3,171.7z"/>
				</g>
			</g>
			<g>
				<g>
					<path class="st8" d="M60.7,188.2c1,4.7-0.8,9.8-4.5,12.8c-0.4,0.4,0.2,0.7,0.6,0.4c3.9-3.2,5.8-8.5,4.8-13.5
						C61.4,187.6,60.6,187.8,60.7,188.2L60.7,188.2z"/>
				</g>
			</g>
			<g>
				<g>
					<path class="st8" d="M40.9,188.2c3.3,8.4,6,17,7.8,25.9c0.1,0.4,0.9,0.2,0.8-0.2c-1.9-8.8-4.5-17.5-7.8-25.9
						C41.6,187.6,40.7,187.8,40.9,188.2L40.9,188.2z"/>
				</g>
			</g>
			<g>
				<g>
					<path class="st8" d="M41.8,193.8c3,4.7,5.6,9.6,7.8,14.7c1.1,2.5,2,5,2.9,7.6c0.4,1.4,0.9,2.7,1.3,4.1c0.2,0.8,0.3,2,1.3,2.2
						c0.2,0,0.9-0.3,0.7-0.3c-1.1-0.2-1.3-2.6-1.6-3.5c-0.4-1.3-0.8-2.6-1.2-3.9c-0.9-2.5-1.8-4.9-2.9-7.4
						c-2.1-4.8-4.6-9.5-7.4-13.9C42.5,193.4,41.8,193.7,41.8,193.8L41.8,193.8z"/>
				</g>
			</g>
			<g>
				<g>
					<path class="st8" d="M56.4,191c-5.2,0.7-9.1,4.5-11.5,8.9c-1.3,2.5-2.5,5.1-3.2,7.8c-0.8,2.7-1.1,5.5,0.2,8.1
						c0.1,0.3,1,0,0.8-0.2c-2.2-4.6,0.3-10.4,2.4-14.6c2.2-4.5,5.9-8.9,11.2-9.6C56.7,191.4,56.9,190.9,56.4,191L56.4,191z"/>
				</g>
			</g>
			<g>
				<g>
					<path class="st8" d="M55.2,199.8c-1.2,3.9-1.8,7.9-1.7,12c0.1,3.8,1,7.9-0.9,11.4c-0.1,0.1,0.7,0.1,0.8-0.1
						c1.8-3.3,1.1-7.1,0.9-10.6c-0.2-4.3,0.4-8.7,1.7-12.8C56.1,199.5,55.3,199.6,55.2,199.8L55.2,199.8z"/>
				</g>
			</g>
			<g>
				<g>
					<path class="st7" d="M45.8,165.4c2.7,7.1,5.4,14.5,5.7,22.2c0.3,7.6-3,15.2-1.3,22.7c0.1,0.3,0.9,0,0.8-0.2
						c-1.7-7.6,1.6-15.1,1.3-22.7c-0.3-7.7-3-15-5.7-22.2C46.5,164.9,45.7,165.1,45.8,165.4L45.8,165.4z"/>
				</g>
			</g>
		</g>
		<polygon class="st13" points="77.3,218.3 148.6,189.4 148.2,240.7 77.2,276.1 		"/>
		<g>
			<g>
				<path class="st8" d="M55,219.6c-1-11.9,0.8-23.8,0-35.8c-0.2-2.9-0.6-5.8-1.2-8.7c-0.5-2.5-1.2-5-2.4-7.2
					c-2-3.7-5.4-6.5-8.7-9.1c-3.8-3-8-5.9-11-9.8c-0.2-0.3-1.3,0.1-1,0.4c5.3,6.9,13.9,10.3,18.8,17.5c1.4,2,2.1,4.4,2.7,6.7
					c0.7,2.8,1.2,5.7,1.5,8.7c0.6,5.8,0.4,11.6,0.2,17.3c-0.2,6.7-0.6,13.5,0,20.2C54,220.2,55.1,220,55,219.6L55,219.6z"/>
			</g>
		</g>
		<g>
			<g>
				<g>
					<path class="st8" d="M52.8,166.6c7.7,14.3,5.9,31.6,5.5,47.2c-0.1,5.1-0.3,10.2-0.4,15.2c0,0.4,0.8,0.3,0.8-0.1
						c0.2-9.1,0.5-18.1,0.7-27.2c0.2-7.8,0.2-15.6-1.4-23.3c-0.9-4.3-2.3-8.4-4.4-12.3C53.4,165.9,52.6,166.2,52.8,166.6L52.8,166.6
						z"/>
				</g>
			</g>
			<g>
				<g>
					<path class="st8" d="M39,149.6c3.6,2.1,7.5,3.7,11,6.1c1.7,1.2,3.5,2.7,4.4,4.7c1.3,2.7,2.3,5.6,3,8.5c0.6,2.9,0.6,5.8-0.5,8.6
						c-0.9,2.4-2.4,4.6-3.5,6.9c-2.1,4.7-1.6,9.8,0.7,14.4c1.3,2.7,3.4,4.7,5.1,7.1c2.3,3.2,2,6.7,1.1,10.3c-0.1,0.4,1,0.2,1.1-0.1
						c0.7-2.9,1.3-6.1-0.1-8.9c-1.2-2.4-3.2-4.1-4.7-6.3c-3.1-4.6-4.5-10.5-2.4-15.8c1-2.4,2.5-4.6,3.6-7c1.1-2.6,1.4-5.3,1-8.1
						c-0.5-3-1.6-5.9-2.7-8.7c-0.8-2-2-3.5-3.6-4.9c-3.8-3.1-8.3-4.8-12.5-7.2C39.5,148.8,38.5,149.3,39,149.6L39,149.6z"/>
				</g>
			</g>
			<g>
				<g>
					<path class="st8" d="M45.6,149.3c0.2,1.5,1.3,2.4,2.5,3.3c1.1,0.8,2.7,1.6,3.2,3c0.3,1-0.1,2.1-0.3,3c-0.2,1.5-0.4,2.9-0.6,4.4
						c-0.3,2.7-0.5,5.4-0.5,8.2c-0.1,2.9,0,5.8,0.2,8.7c0.1,2.1-0.1,5.3,1.6,7c1.4,1.4,3.7,1.2,5.3,2.4c1.8,1.2,3,3.2,3.7,5.2
						c2.1,5.4,0.4,11.1-2.2,16c-0.1,0.3,0.9,0.2,1.1-0.2c2.2-4.3,3.9-9.2,2.8-14.1c-0.8-3.7-3-7.5-6.9-8.5c-1.1-0.3-2.2-0.5-3-1.4
						c-1-1.1-1-2.9-1.2-4.3c-0.3-2.9-0.4-5.8-0.4-8.7c0-3,0.1-6,0.4-9c0.1-1.3,0.3-2.7,0.5-4c0.2-1.4,0.6-2.8,0.7-4.1
						c0.2-3.4-5.2-3.9-5.7-7.2C46.6,148.7,45.5,149,45.6,149.3L45.6,149.3z"/>
				</g>
			</g>
			<g>
				<g>
					<path class="st8" d="M54,160.8c0.8,9.4,1.6,18.9,2.3,28.3c0.7,9.1,0.8,18.2-0.4,27.3c-0.7,5-1.7,10-2.7,15
						c-0.1,0.4,0.8,0.3,0.8-0.1c1.8-8.9,3.5-17.8,3.7-26.9c0.2-9.3-0.8-18.5-1.6-27.7c-0.4-5.4-0.9-10.8-1.3-16.2
						C54.8,160.1,54,160.3,54,160.8L54,160.8z"/>
				</g>
			</g>
			<g>
				<g>
					<path class="st8" d="M46.7,188.3c1.8,8.4,6.2,16,8.1,24.4c1,4.4,0.9,8.6-0.1,12.9c-1,4.2-1.3,8.2-0.2,12.4
						c0.1,0.4,0.9,0.1,0.8-0.2c-0.6-2.2-0.8-4.5-0.7-6.8c0.1-2.2,0.7-4.3,1.1-6.4c0.9-4.1,0.8-8.1-0.1-12.2
						c-1.9-8.4-6.3-16-8.1-24.4C47.5,187.7,46.6,187.9,46.7,188.3L46.7,188.3z"/>
				</g>
			</g>
			<g>
				<g>
					<path class="st8" d="M50.3,153.7c0.2,4.7-1,9.4-2.3,13.8c-1.2,4.2-2.9,8.4-5.7,11.7c-1.1,1.3-2.2,2.4-2.2,4.2
						c0.1,2.2,1.4,4.5,2.3,6.5c1.9,4.1,4.1,7.9,6.7,11.6c0.3,0.4,1.3,0,1-0.5c-2.6-3.7-4.9-7.7-6.8-11.8c-0.9-1.9-2.3-4.3-2.1-6.4
						c0.2-2,2.3-3.6,3.4-5.1c2.2-3.2,3.6-7,4.6-10.7c1.2-4.4,2.3-8.9,2.1-13.4C51.4,153,50.3,153.2,50.3,153.7L50.3,153.7z"/>
				</g>
			</g>
			<g>
				<g>
					<path class="st8" d="M48.1,192.6c-0.4,1.1-0.6,2.2-0.3,3.4c0.4,1.2,1.1,2.3,1.7,3.4c1.4,2.5,2.8,5,4.2,7.5c0.2,0.3,1,0,0.8-0.3
						c-1.3-2.3-2.6-4.7-3.9-7c-0.6-1.1-1.4-2.2-1.8-3.4c-0.5-1.2-0.2-2.4,0.2-3.6C49,192.2,48.2,192.3,48.1,192.6L48.1,192.6z"/>
				</g>
			</g>
			<g>
				<g>
					<path class="st8" d="M42.5,154.4c3.5,8.6,7,17.2,8.8,26.4c0.8,4.4,1.2,8.9,0.8,13.4c-0.4,4.6-1.7,9-2.3,13.6
						c-0.6,4.7-0.4,9.7,1.9,13.9c0.1,0.2,0.9-0.1,0.8-0.2c-4.4-8.3-0.9-17.1,0.3-25.7c1.2-9-0.9-18.1-3.7-26.6
						c-1.7-5.1-3.7-10-5.7-14.9C43.3,154,42.5,154.3,42.5,154.4L42.5,154.4z"/>
				</g>
			</g>
			<g>
				<g>
					<path class="st8" d="M40,185.7c3.2,7.1,3,15,4,22.6c0.5,3.8,1.4,7.5,3.1,10.9c1.5,3.1,3.6,5.9,5.6,8.8
						c2.5,3.4,4.9,6.9,6.5,10.9c0.1,0.2,0.9,0,0.8-0.2c-2.7-6.7-7.9-12-11.4-18.2c-3.8-6.9-4.1-14.5-4.9-22.2
						c-0.5-4.4-1.2-8.7-3-12.8C40.7,185.2,39.9,185.5,40,185.7L40,185.7z"/>
				</g>
			</g>
			<g>
				<g>
					<path class="st8" d="M61.3,160.3C56.8,168,52.5,176,51,184.9c-0.8,4.8-0.4,9.6,0,14.4c0.5,5,0.7,10-0.2,15
						c-0.9,4.9-2.6,9.6-5.4,13.8c-0.1,0.1,0.7,0.1,0.8-0.1c5.1-7.7,6.5-16.9,5.8-26c-0.4-5.2-1.1-10.3-0.5-15.5
						c0.5-4.5,1.8-8.9,3.6-13c1.9-4.6,4.4-9,6.9-13.3C62.3,160,61.5,160.1,61.3,160.3L61.3,160.3z"/>
				</g>
			</g>
			<g>
				<g>
					<path class="st9" d="M43,162.4c0.1,17.6-6.6,34.6-4.3,52.2c0.1,0.4,1.2,0.2,1.1-0.3c-2.3-17.6,4.4-34.5,4.3-52
						C44.1,161.8,43,162,43,162.4L43,162.4z"/>
				</g>
			</g>
			<g>
				<g>
					<path class="st7" d="M59.7,193c-2.9,7.2-8.2,13.2-10.7,20.6c-2.6,7.6-2.9,15.9-1.6,23.7c0,0.2,0.9,0,0.8-0.2
						c-1.4-8-1-16.4,1.7-24c2.5-7.2,7.7-13.1,10.6-20.2C60.6,192.7,59.8,192.8,59.7,193L59.7,193z"/>
				</g>
			</g>
			<g>
				<g>
					<path class="st8" d="M49,159.4c-0.8,3.2-2.6,5.9-2.8,9.3c-0.1,2.4,0.5,6-1.6,7.8c-0.5,0.4,0.6,0.5,0.9,0.2
						c2.1-1.8,1.7-5.1,1.8-7.6c0.1-1.7,0.4-3.2,1-4.8c0.6-1.7,1.4-3.3,1.9-5C50.2,158.9,49.1,159.1,49,159.4L49,159.4z"/>
				</g>
			</g>
			<g>
				<g>
					<path class="st8" d="M37.6,147.1c0,1.4,0.2,2.7,0.7,4c0.4,1.1,1.1,2.1,1.5,3.3c0.5,1.5,0.3,2.7-0.1,4.2c-0.6,1.7-1,3.4-1.3,5.1
						c-0.7,3.8-0.9,7.6-0.9,11.5c-0.1,4-0.2,8,0.3,12s1.8,8.1,4.6,11c0.4,0.4,1.4-0.1,1-0.5c-5.5-5.7-4.9-14.6-4.8-21.9
						c0.1-3.8,0.2-7.7,0.8-11.5c0.3-1.9,0.8-3.7,1.4-5.5c0.4-1.1,0.7-2.2,0.5-3.4c-0.2-1.3-0.8-2.4-1.4-3.5c-0.7-1.5-1.1-3-1.1-4.7
						C38.7,146.5,37.6,146.6,37.6,147.1L37.6,147.1z"/>
				</g>
			</g>
			<g>
				<g>
					<path class="st7" d="M47.6,158.3c0.2,2.4-0.3,4.8-0.1,7.3s0.9,4.9,1.5,7.3c0.1,0.2,1.2-0.1,1.1-0.3c-0.6-2.4-1.3-4.8-1.5-7.3
						c-0.2-2.4,0.3-4.8,0.1-7.3C48.7,157.9,47.6,158.1,47.6,158.3L47.6,158.3z"/>
				</g>
			</g>
			<g>
				<g>
					<path class="st8" d="M42.4,184.4c0.3,6.7-0.4,13.5-2.1,20c-0.1,0.2,0.8,0.1,0.8-0.1c1.8-6.5,2.4-13.3,2.1-20.1
						C43.2,184,42.4,184.2,42.4,184.4L42.4,184.4z"/>
				</g>
			</g>
			<g>
				<g>
					<path class="st7" d="M49,181.6c-0.5,6.4-0.6,12.8-0.2,19.2c0.2,3,0.5,6,0.6,9c0.1,2.7,0,5.7-1.6,7.9c-0.2,0.3,0.6,0.3,0.8,0
						c1.5-2.1,1.7-4.6,1.7-7.1c0-2.9-0.4-5.7-0.6-8.6c-0.4-6.8-0.4-13.7,0.2-20.5C49.8,181.2,49,181.4,49,181.6L49,181.6z"/>
				</g>
			</g>
			<g>
				<g>
					<path class="st8" d="M33.9,197.8c5.9-11.6,9.9-24.1,12.1-36.9c0-0.1-0.8,0-0.8,0.2C43,174,39,186.4,33.1,198
						C33.1,198.1,33.8,198,33.9,197.8L33.9,197.8z"/>
				</g>
			</g>
			<g>
				<g>
					<path class="st8" d="M32.7,149.3c1.9,8.5,5.4,16.6,8.2,24.9c2.6,7.8,4.6,16,3.2,24.2c0,0.1,1,0,1.1-0.3
						c1.4-8.2-0.6-16.4-3.2-24.2c-2.8-8.3-6.2-16.3-8.2-24.9C33.8,148.8,32.7,149.1,32.7,149.3L32.7,149.3z"/>
				</g>
			</g>
			<g>
				<g>
					<path class="st8" d="M47.7,144.3c1.4,7.7,5.6,14.5,7.7,22c1.1,3.8,1.4,7.7,0.8,11.6c-0.3,1.8-0.8,3.8-2.1,5.1
						c-1,1-2.3,1.9-1.8,3.5c0.1,0.3,1.2,0,1.1-0.3c-0.6-1.9,1.9-3,2.7-4.5c0.8-1.4,1.2-3.1,1.3-4.8c0.4-3.7,0.1-7.4-0.9-11
						c-2.1-7.5-6.3-14.2-7.7-22C48.7,143.7,47.6,144,47.7,144.3L47.7,144.3z"/>
				</g>
			</g>
			<g>
				<g>
					<path class="st8" d="M40.3,209.4c2.1,5.4,4.1,10.8,6.2,16.2c0.9,2.5,2.3,5.1,1.7,7.8c-0.5,2.2-1.9,4.1-2.1,6.4
						c0,0.3,0.8,0.1,0.8-0.1c0.2-2.3,1.6-4.2,2.1-6.4c0.6-2.6-0.6-5.1-1.5-7.5c-2.1-5.6-4.2-11.1-6.4-16.7
						C41,208.9,40.2,209.1,40.3,209.4L40.3,209.4z"/>
				</g>
			</g>
			<g>
				<g>
					<path class="st8" d="M41.6,191.5c1.9,5.6,3.8,11.3,5.7,16.9c0.9,2.7,1.8,5.4,2.7,8.2c0.7,2.1,1.7,5.2,0.2,7.2
						c-0.3,0.4,0.5,0.5,0.7,0.2c1.3-1.7,1-3.9,0.5-5.8c-0.7-2.9-1.9-5.8-2.8-8.6c-2-6.1-4.1-12.2-6.1-18.3
						C42.3,190.9,41.5,191.1,41.6,191.5L41.6,191.5z"/>
				</g>
			</g>
			<g>
				<g>
					<path class="st8" d="M32.3,158.2c3.6,6.9,5.5,14.6,5.7,22.3c0.1,3.9-0.3,7.8-1.3,11.5c-0.4,1.7-1,3.3-1.6,4.9
						c-0.7,1.8-1.6,3.4-1.4,5.4c0.2,2.5,1.1,5,1.7,7.4c0.7,2.6,1.4,5.3,2.1,7.9c0.1,0.2,0.9,0,0.8-0.2c-1.2-4.5-2.5-9-3.5-13.6
						c-0.3-1.1-0.4-2.2-0.2-3.4c0.2-1,0.7-2,1.1-2.9c0.7-1.6,1.3-3.2,1.7-4.9c2-7.2,1.9-14.9,0.4-22.2c-0.9-4.3-2.5-8.5-4.5-12.5
						C33,157.8,32.2,158,32.3,158.2L32.3,158.2z"/>
				</g>
			</g>
			<g>
				<g>
					<path class="st7" d="M48.2,184c0.1,0.8,0.2,1.7,0.2,2.5s-0.2,1.6-0.4,2.4c-0.4,1.3-1.1,2.8-0.3,4.1c0.1,0.2,0.9-0.1,0.8-0.2
						c-0.8-1.4-0.1-2.9,0.4-4.3c0.5-1.5,0.4-3.1,0.1-4.7C49,183.6,48.2,183.8,48.2,184L48.2,184z"/>
				</g>
			</g>
			<g>
				<g>
					<path class="st7" d="M36.6,153.3c0.3,0,0.9-0.4,0.3-0.4C36.6,152.9,36,153.3,36.6,153.3L36.6,153.3z"/>
				</g>
			</g>
			<g>
				<g>
					<path class="st8" d="M52.4,202.7c1.1,4.8,0.4,10.5-3.2,14.1c-0.4,0.4,0.5,0.4,0.7,0.2c3.8-3.7,4.5-9.6,3.4-14.5
						C53.1,202.1,52.3,202.3,52.4,202.7L52.4,202.7z"/>
				</g>
			</g>
			<g>
				<g>
					<path class="st8" d="M34.2,201.2c3.7,9.6,6.7,19.4,9.1,29.5c0,0.2,0.9-0.1,0.8-0.2c-2.4-10-5.4-19.9-9.1-29.5
						C35,200.8,34.1,201,34.2,201.2L34.2,201.2z"/>
				</g>
			</g>
			<g>
				<g>
					<path class="st8" d="M35.5,207.6c3.2,5.6,6,11.4,8.4,17.4c1.2,2.9,2.2,5.9,3.2,8.9c0.5,1.5,0.9,2.9,1.4,4.4
						c0.2,0.8,0.4,2.1,1.4,2.3c0.3,0.1,1-0.4,0.5-0.5c-0.7-0.2-0.9-1.5-1-2.1c-0.2-0.7-0.4-1.5-0.7-2.2c-0.5-1.5-0.9-2.9-1.4-4.4
						c-1-2.8-2-5.6-3.2-8.4c-2.3-5.4-4.9-10.7-7.8-15.8C36.1,207,35.3,207.3,35.5,207.6L35.5,207.6z"/>
				</g>
			</g>
			<g>
				<g>
					<path class="st8" d="M48.8,205.5c-5.2,0.4-8.4,4.8-10.2,9.3c-2,5.2-3.9,11.9-1.5,17.3c0.1,0.2,0.9-0.1,0.8-0.2
						c-2.1-4.7-0.8-10,0.7-14.7c1.4-4.7,4.2-10.9,9.9-11.3C48.7,205.9,49.4,205.5,48.8,205.5L48.8,205.5z"/>
				</g>
			</g>
			<g>
				<g>
					<path class="st8" d="M48.2,215.2c-0.8,4.3-1,8.7-0.7,13.1c0.3,4.2,1.7,8.7,0.1,12.8c-0.2,0.4,0.7,0.4,0.8,0.1
						c1.5-3.7,0.5-7.8,0.1-11.6c-0.5-4.8-0.4-9.6,0.6-14.4C49.2,214.7,48.3,214.9,48.2,215.2L48.2,215.2z"/>
				</g>
			</g>
			<g>
				<g>
					<path class="st7" d="M37,176.1c2.9,8.1,5.9,16.3,6.8,24.8s-1.5,17.2,0.5,25.6c0.1,0.4,0.9,0.1,0.8-0.2
						c-2.1-8.4,0.4-17.1-0.5-25.6c-0.9-8.6-3.9-16.8-6.8-24.8C37.7,175.5,36.9,175.7,37,176.1L37,176.1z"/>
				</g>
			</g>
		</g>
		<g>
			<g>
				<path class="st8" d="M43.8,161.5c0.4,2.1,1.2,4.2,2.6,5.9c0.7,0.9,1.6,1.7,2.5,2.4c1.2,0.9,1.2,1.9,1.3,3.3c0.1,1.5,0,3-0.3,4.4
					c-0.2,1.3-0.6,2.7-0.7,4c-0.1,2.4,1.2,4.2,2.7,5.9c0.1,0.2,0.9-0.1,0.8-0.3c-1.9-2.2-3-4.1-2.5-7.1c0.5-2.6,0.9-5.1,0.8-7.7
					c-0.1-1-0.1-1.9-0.9-2.6c-0.8-0.7-1.7-1.3-2.5-2.1c-1.6-1.8-2.7-4-3.1-6.4C44.6,161,43.8,161.2,43.8,161.5L43.8,161.5z"/>
			</g>
		</g>
		<g>
			<g>
				<path class="st8" d="M43.6,179.9c0.4,0,1.2-0.6,0.4-0.6C43.7,179.3,42.9,179.9,43.6,179.9L43.6,179.9z"/>
			</g>
		</g>
		<g>
			<g>
				<path class="st8" d="M41.9,181.5c0.4,0,1.2-0.5,0.4-0.5C42,181,41.2,181.5,41.9,181.5L41.9,181.5z"/>
			</g>
		</g>
		<g>
			<g>
				<path class="st8" d="M43.4,198.2c-0.9-4.5-1.9-9-2.8-13.5c-0.2-0.8-0.4-1.7,0.2-2.3c0.3-0.4,0.7-0.5,1.1-0.6
					c0.5-0.2,1.1-0.4,1.5-0.9c1-1.1,0.6-2.8,0.1-4c-1.1-3.1-3.6-5.4-5.1-8.2c-1-1.8-1.2-3.6-1.5-5.5s-1-3.6-2.1-5.1
					c-0.7-1-1.3-2.3-2.7-2.1c-0.6,0.1-1.1,0.3-1.7,0.4c-0.3,0.1-0.6,0.2-0.9,0.3c-0.1,0-0.2,0.1-0.3,0.1c-0.3,0.1-0.4,0-0.2-0.3
					c-0.1-0.4,0.1-0.6,0.5-0.7c0.5-0.2,0.1-0.7-0.4-0.5c-0.6,0.2-1.7,1.5-0.8,2.1c0.6,0.4,1.9-0.2,2.5-0.4c0.4-0.1,1.2-0.5,1.6-0.4
					c0.4,0.1,0.8,0.8,1.1,1.1c0.4,0.5,0.8,1,1.1,1.5c1.3,2,1.4,4,1.8,6.3c0.6,3.6,3.1,6.2,5,9.2c0.9,1.4,2.1,3.6,1.7,5.3
					c-0.4,1.8-3.1,1.3-3.5,3.1c-0.2,1,0.2,2.2,0.4,3.1c0.3,1.4,0.6,2.7,0.9,4.1c0.6,2.7,1.1,5.5,1.7,8.2
					C42.6,198.8,43.5,198.6,43.4,198.2L43.4,198.2z"/>
			</g>
		</g>
		<g>
			<g>
				<path class="st8" d="M34.9,203.1c-0.7-4.5-1.4-8.9-2.1-13.4c-0.1-0.5-0.1-1-0.2-1.5c-0.1-0.5-0.4-1.3-0.3-1.7
					c0.3-1,1.1-0.4,1.8-0.5c1-0.1,1.9-0.7,2.4-1.6c0.8-1.5,0.1-3.4-0.5-4.9c-0.7-1.7-1.6-3.3-2.7-4.7c-1.1-1.4-3.1-2.8-2.9-4.8
					c0.1-1.6,1.1-2.9,0.9-4.6c-0.5-3.5-4.2-6-6.5-8.3c-0.2-0.2-1,0.1-0.8,0.3c2.2,2.2,5.3,4.4,6.3,7.5c0.5,1.7-0.2,3-0.6,4.7
					c-0.4,1.7,0.5,2.8,1.6,4c1.3,1.4,2.4,3,3.3,4.7c0.8,1.6,1.8,3.8,1.4,5.7c-0.3,1.4-1.4,1.7-2.7,1.5c-0.3-0.1-0.7-0.1-1,0
					c-1.4,0.4-0.7,2.3-0.5,3.3c0.7,4.9,1.5,9.7,2.2,14.6C34.1,203.5,35,203.4,34.9,203.1L34.9,203.1z"/>
			</g>
		</g>
		<g>
			<g>
				<path class="st8" d="M57.9,147.5c0.1,1.1,0.3,2.3,1.3,3c0.6,0.3,1.2,0.4,1.5,1.1c0.3,0.7,0.3,1.5,0.4,2.3
					c0.5,3.4,0.9,6.7,1.4,10.1c0.1,0.4,1.2,0.2,1.1-0.3c-0.5-3.4-0.9-6.7-1.4-10.1c-0.2-1.2-0.1-2.6-1.3-3.3
					c-0.6-0.4-1.3-0.5-1.6-1.3c-0.3-0.6-0.3-1.2-0.3-1.8C58.9,146.8,57.8,147,57.9,147.5L57.9,147.5z"/>
			</g>
		</g>
		<g>
			<g>
				<path class="st8" d="M68.3,203.6c0.4,0,1.2-0.6,0.4-0.6C68.3,203,67.6,203.6,68.3,203.6L68.3,203.6z"/>
			</g>
		</g>
		<g>
			<g>
				<path class="st8" d="M67.5,162.7c-1.3-6-5.2-11.4-5.5-17.6c-0.2,0.1-0.5,0.2-0.7,0.3c1.7,1,3.5,1.8,5.3,2.7
					c1.7,0.9,3.6,1.9,4.9,3.4c0.2,0.3,1,0,0.8-0.3c-1.2-1.5-3.1-2.5-4.8-3.4c-1.8-1-3.7-1.8-5.5-2.9c-0.2-0.1-0.8,0-0.7,0.3
					c0.3,6.3,4.2,11.6,5.5,17.6C66.8,163.3,67.6,163.1,67.5,162.7L67.5,162.7z"/>
			</g>
		</g>
		<g>
			<g>
				<path class="st8" d="M41.6,225.8c-0.5-14.3,1.5-28.6,1-42.9c0-0.5-1.1-0.3-1.1,0.1c0.4,14.3-1.5,28.6-1,42.9
					C40.5,226.5,41.6,226.2,41.6,225.8L41.6,225.8z"/>
			</g>
		</g>
		<g>
			<g>
				<path class="st8" d="M52,183c0.4,0,1.1-0.7,0.4-0.7C52,182.3,51.3,183,52,183L52,183z"/>
			</g>
		</g>
		<path class="st14" d="M22.6,203.4l52.3,24.9c-0.2-0.4,53.8-27.7,53.8-27.7l-49.3-26.3L22.6,203.4z"/>
		<path class="st12" d="M135.7,188.5l-58.1,27.3l4.4,4.7l60.6-28.6L135.7,188.5z"/>
		<g>
			<g>
				<g>
					<path class="st8" d="M61,139.2c0.7,7.6,4.2,14.6,8.7,20.7c3.1,4.3,6.8,8.4,11,11.7c0.5,0.4,2,1.9,2.7,0.8
						c0.1-0.1-0.9-0.1-1.1,0.2c0.8-1.4,1.2,0.1,0.7-0.4c-0.1-0.1-0.4-0.2-0.5-0.3c-0.6-0.4-1.1-0.8-1.6-1.3c-1.7-1.4-3.3-3-4.8-4.6
						c-4.4-4.6-8.2-9.9-10.8-15.7c-1.6-3.6-2.8-7.4-3.1-11.4C62.1,138.7,61,138.9,61,139.2L61,139.2z"/>
				</g>
			</g>
		</g>
		<g>
			<g>
				<path class="st8" d="M34.7,189.6c-0.6,3,0.1,6.3,0.8,9.2c0.8,3.6,1.7,7.1,2.5,10.7c0.6,3,0.7,5.7,0.3,8.7c-0.4,3.4-1,6.8-1,10.3
					c0,2.8,0.3,6.2,2.9,7.8c0.3,0.2,1.3-0.3,0.9-0.6c-2.5-1.5-2.7-4.9-2.7-7.5c0-3.3,0.6-6.6,1-9.8c0.3-2.7,0.4-5.3-0.1-8
					c-0.6-3.4-1.5-6.8-2.3-10.2s-1.8-7.2-1.1-10.7C35.9,189,34.8,189.2,34.7,189.6L34.7,189.6z"/>
			</g>
		</g>
		<polygon class="st15" points="13.2,187.7 12.8,245.4 82.3,279.1 82.8,220.7 		"/>
		<polygon class="st6" points="22.8,203.5 22.8,245.4 75,270.5 75.2,228 		"/>
		<g>
			<g>
				<path class="st8" d="M45.9,182.8c0.3,0.9,0.6,1.9,0.1,2.7c-0.1,0.2,0.1,0.3,0.3,0.3s0.6-0.1,0.7-0.3c0.5-1,0.3-2.1,0-3.1
					c-0.1-0.2-0.5-0.2-0.6-0.1C46.3,182.5,45.9,182.6,45.9,182.8L45.9,182.8z"/>
			</g>
		</g>
		<g>
			<g>
				<path class="st8" d="M55.8,148.6v-0.2c0,0.1-0.4,0.2-0.4,0.2c0.7-0.2-0.4,0.2-0.4,0.1c0,0,0,0.1,0,0c0,0.1,0.3,0.3,0.4,0.4
					c0.4,0.6,0.8,1.3,1.1,1.9c1,1.8,1.8,3.7,2.6,5.6c0.3,0.8,0.7,1.7,0.9,2.5c0.1,0.4,1.2,0.1,1.1-0.3c-0.5-2-1.4-4-2.3-5.9
					c-0.5-1-1-2-1.5-3c-0.3-0.6-0.6-1.3-1.1-1.7c-0.3-0.2-0.6-0.3-1-0.1c-0.3,0.2-0.4,0.4-0.4,0.7C54.7,149.2,55.8,149,55.8,148.6
					L55.8,148.6z"/>
			</g>
		</g>
		<g>
			<g>
				<path class="st8" d="M38.2,163.8c1.9,10.7,3.1,21.5,3.4,32.3c0,0.2,1.1,0,1.1-0.3c-0.3-10.9-1.5-21.7-3.4-32.3
					C39.3,163.2,38.2,163.5,38.2,163.8L38.2,163.8z"/>
			</g>
		</g>
		<g>
			<g>
				<path class="st8" d="M16.2,156.5c0.6,0.4,1.5,0.4,2.2,0.5c1,0.1,2,0.1,2.9,0.3c0.9,0.1,1.7,0.5,2.5,0.8c1.2,0.4,2.4,0.8,3.4,1.5
					c1.2,0.8,1.5,1.8,1.8,3.1c0.4,1.5,0.8,3.1,1.3,4.6c1.1,3,2.5,5.9,4.3,8.6c0.2,0.3,1.3,0,1-0.4c-1.9-2.8-3.4-5.9-4.5-9.1
					c-0.6-1.6-0.9-3.3-1.3-4.9c-0.2-1-0.8-1.7-1.6-2.3c-0.9-0.7-2-1.1-3.1-1.5c-0.9-0.3-1.9-0.8-2.8-1c-0.9-0.2-1.8-0.2-2.7-0.3
					c-0.8-0.1-1.9,0-2.6-0.4C16.7,155.8,15.7,156.2,16.2,156.5L16.2,156.5z"/>
			</g>
		</g>
		<polygon class="st5" points="88.7,217.6 19.1,185 13,187.8 82.1,220.6 		"/>
		<path class="st13" d="M82.2,220.5c0.2,0.5,66.2-31.5,66.2-31.5l-0.2,57l-65.8,33L82.2,220.5z"/>
	</g>
</g>
<g>
	<g>
		<g>
			<path class="st8" d="M40.6,17c6.3,1.7,12.7,3.1,19,5.1c1.3,0.4,2.7,1,3.8,2c0.9,0.8,1.7,1.9,2.5,2.8c0.8,1,1.5,2,2.5,2.8
				c0.8,0.7,2.4,1.3,2.1,2.6c-0.1,0.4,1,0.2,1.1-0.2c0.3-1.1-0.7-1.8-1.4-2.4c-1-0.8-1.9-1.5-2.6-2.6c-0.8-1.1-1.6-2.2-2.5-3.2
				c-0.9-0.9-2.1-1.6-3.4-2.1c-3.1-1.2-6.5-1.8-9.6-2.6c-3.5-0.9-6.8-1.9-10.3-2.7C41.2,16.5,40.2,16.9,40.6,17L40.6,17z"/>
		</g>
	</g>
	<g>
		<g>
			<g>
				<path class="st8" d="M39.3,23.2c6.3-1.4,12.6,0.8,18.5,3.3s11.6,5.4,17.4,8c0.3,0.2,1.1-0.4,1-0.4c-6.2-2.9-12.5-6-18.8-8.7
					c-5.7-2.3-11.7-4-17.8-2.6C39.1,22.9,38.5,23.4,39.3,23.2L39.3,23.2z"/>
			</g>
		</g>
		<g>
			<g>
				<path class="st8" d="M27.7,23.6c2.2-2.3,5.4-2.7,8.4-2.9c3.2-0.4,6.8-0.7,9.2,1.7c2,1.8,3,4.4,5.2,6c2.1,1.8,5,2.1,7.6,1.6
					c1.7-0.4,3-1.2,4.5-1.9c2.3-1,4.1,0.2,5.9,1.6c0.4,0.4,1.3-0.3,0.8-0.6c-1.2-1-2.5-2-4.2-2.2c-1.5-0.2-2.8,0.6-4.3,1.2
					c-3.2,1.6-7.3,1.9-10-0.8c-2.1-2-3.3-5.1-5.9-6.6c-2.8-1.6-6.2-1.2-9.3-0.8c-3.2,0.4-6.6,1-9,3.4C26.2,23.7,27.3,24,27.7,23.6
					L27.7,23.6z"/>
			</g>
		</g>
		<g>
			<g>
				<path class="st8" d="M42.5,15.1c-0.1,2-0.2,3.8-0.2,5.8c0,1.7-0.2,3.6,0.2,5.2c0.2,1.2,1.1,1.6,2.2,1.7c1.7,0.2,3.6,0.1,5.2-0.1
					s3.5-0.5,5.1-0.9c0.8-0.2,1.7-0.4,2.5-0.7c0.7-0.2,1.6-0.6,2.2,0.1c0.3,0.3,0.4,0.8,0.6,1.1c0.7,1.6,1.2,3.4,2.1,4.9
					c0.6,0.9,1.2,1.4,2.4,1.2c0.7-0.2,0.5-0.7-0.2-0.6c-1.1,0.3-2.2-3.3-2.5-4c-0.4-1-0.8-2.7-1.8-3.3c-0.9-0.6-2.1-0.2-3.1,0.1
					c-1.7,0.5-3.4,0.9-5.2,1.2c-1.7,0.3-3.4,0.4-5.1,0.4c-0.8,0-1.7,0.1-2.5-0.2c-0.9-0.3-1.2-0.9-1.2-1.8c-0.3-3.4-0.2-6.8,0-10.2
					C43.6,14.6,42.5,14.9,42.5,15.1L42.5,15.1z"/>
			</g>
		</g>
		<g>
			<g>
				<path class="st8" d="M23.4,20.1c2.6-3.4,6.9-0.3,9.2,1.5c2.7,2,5.7,3.6,8.7,5c1.6,0.7,3.2,1.3,4.9,1.9c1.2,0.4,2.6,1,3.9,0.6
					c1.1-0.3,1.6-1.1,2.1-2c0.8-1.5,1.9-2.6,3.6-2.8c3.8-0.5,6.8,2.6,8.9,5.3c0.2,0.3,1.2-0.1,1-0.4c-2-2.6-4.4-5.1-7.6-5.5
					c-2.5-0.3-5.3,0.6-6.6,2.8c-0.5,0.9-0.8,2.1-2.1,2c-1-0.1-2.1-0.6-3-0.9c-1.9-0.6-3.6-1.3-5.4-2.2c-1.9-0.9-3.7-2-5.5-3.1
					c-1.5-1-2.8-2.1-4.4-2.9c-2.6-1.5-6.6-2-8.6,0.8C22.2,20.5,23.2,20.4,23.4,20.1L23.4,20.1z"/>
			</g>
		</g>
		<g>
			<g>
				<path class="st8" d="M46,15c-0.5,3.1,1,6.8-1,9.6c-1,1.3-2.8,1.1-4.3,2.1c-0.9,0.7-1.2,1.7-0.5,2.6c0.8,1.1,2.4,2,3.6,2.6
					c1.4,0.9,2.8,1.6,4.3,2.4c2.9,1.5,6,2.9,8.6,5.2c0.3,0.3,1.2-0.2,1-0.4c-2.4-2-5.1-3.4-7.7-4.7c-2.8-1.4-6-2.8-8.2-4.9
					c-0.8-0.8-1.1-1.9,0-2.6c0.6-0.4,1.3-0.4,2-0.7c1.2-0.4,2.1-1.2,2.6-2.3c1.4-2.8,0.2-6,0.7-9.1C47.1,14.4,46.1,14.6,46,15L46,15
					z"/>
			</g>
		</g>
		<g>
			<g>
				<path class="st8" d="M36.1,21c7.1,2.2,14.3,4.3,21.1,6.8c6.8,2.6,12.6,6.4,18.3,10.8c0.4,0.3,1.3-0.2,1-0.4
					c-5.9-4.3-11.7-8.3-18.5-10.8c-6.9-2.6-14.2-4.6-21.4-6.8C36.5,20.3,35.5,20.8,36.1,21L36.1,21z"/>
			</g>
		</g>
		<g>
			<g>
				<path class="st8" d="M50.1,32.8c5.4,0.8,10.9-0.9,16.3,0.2c2.6,0.5,4.6,1.8,6.7,3.3c2,1.5,4.1,2.6,6.6,2.8c0.3,0,0.6,0,0.8-0.2
					c0.1,0,0.4-0.3,0.2-0.3c-2.8-0.2-4.9-1.5-7.1-3.2c-1.9-1.4-3.9-2.6-6.2-2.9c-5.4-1-10.9,0.6-16.3-0.2
					C50.8,32.4,49.9,32.8,50.1,32.8L50.1,32.8z"/>
			</g>
		</g>
		<g>
			<g>
				<path class="st8" d="M17.5,21.2c3.3,0.4,6.7-0.3,10,0c3.6,0.3,6.5,1.9,9.2,4.1c2.4,1.9,4.5,4,6.2,6.4c0.8,1.2,1.2,2.7,2.1,3.8
					c0.7,0.9,1.9,1,2.9,1c3.6-0.2,7.2-1.1,10.6-2.4c0.7-0.3,0.1-0.6-0.4-0.4c-2.1,0.8-4.3,1.4-6.5,1.8c-1,0.2-2,0.4-3.1,0.4
					c-1.2,0.1-2.2-0.2-2.8-1.3c-0.8-1.5-1.4-3-2.5-4.4c-1.1-1.4-2.5-2.8-3.9-4c-2.8-2.5-5.9-4.7-9.4-5.4c-4-0.7-7.9,0.2-12-0.2
					C17.5,20.5,16.8,21.2,17.5,21.2L17.5,21.2z"/>
			</g>
		</g>
		<g>
			<g>
				<path class="st8" d="M31.8,18.8c3.1,0.1,5.8,2,8.2,3.8c2.5,1.8,5.1,3.6,7.5,5.7c1.2,1,2.4,2,3.6,3c0.9,0.9,1.9,2.1,3,2.6
					c1,0.4,2.2-0.1,3.2-0.4c1.7-0.4,3.4-0.9,5.1-1.2c0.7-0.2,0.6-0.5-0.1-0.4c-1.5,0.4-3.1,0.8-4.6,1.1c-1,0.3-2.2,0.6-3.1,0.1
					c-0.5-0.4-1-0.8-1.4-1.2c-2.1-2-4.4-3.9-6.7-5.7c-2.3-1.8-4.5-3.5-6.9-5.1c-2.1-1.4-4.3-2.7-6.9-2.7
					C32.4,18.3,31.4,18.8,31.8,18.8L31.8,18.8z"/>
			</g>
		</g>
		<g>
			<g>
				<path class="st8" d="M19.4,25.3c7-0.6,14.4-1.2,21.1,1.2c3.5,1.3,6.2,3.7,9.3,5.8c2.8,2,6,3.2,9.3,2.5c0.7-0.2,0.5-0.8-0.2-0.7
					c-4,0.9-7.6-1.7-10.6-4c-2.8-2-5.6-3.9-9-4.8c-6.4-2-13.3-1.3-20-0.8C19,24.6,18.6,25.3,19.4,25.3L19.4,25.3z"/>
			</g>
		</g>
		<g>
			<g>
				<path class="st8" d="M47.8,37.1c5.9-0.8,11.3,2.8,17.1,3.1c5.9,0.3,10.8-3.8,16.4-4.3c0.6-0.1,0.9-0.7,0.2-0.7
					c-6,0.4-10.9,4.7-16.9,4.2c-5.8-0.5-10.9-3.8-16.8-3C47.4,36.5,47,37.2,47.8,37.1L47.8,37.1z"/>
			</g>
		</g>
		<g>
			<g>
				<path class="st8" d="M37.1,15.6c3.3,4.7,6.7,9.5,11.4,12.9c5.2,3.6,11.6,4,16.9,7.5c2.8,2,5.2,4.4,7,7.4c0.3,0.4,1.2,0,1-0.4
					c-3-5-7.7-8.5-13.2-10.4c-3.1-1-6.4-1.8-9.3-3.5c-2.6-1.5-4.7-3.6-6.7-5.8c-2.2-2.5-4.2-5.3-6-8.1
					C37.9,14.8,36.7,15.1,37.1,15.6L37.1,15.6z"/>
			</g>
		</g>
		<g>
			<g>
				<path class="st7" d="M7.1,19c5,4.6,12.2,5.4,18.1,8.3c6,2.8,11.3,7.2,17.1,10.7c3.1,1.9,6.4,3.4,10,4.3c0.3,0.1,1.2-0.4,0.9-0.4
					c-6.5-1.5-11.9-5.5-17.4-9.2c-2.8-1.9-5.6-3.7-8.5-5.2c-2.8-1.4-5.9-2.5-9-3.5c-3.6-1.2-7.3-2.6-10-5.3C7.9,18.5,7,18.9,7.1,19
					L7.1,19z"/>
			</g>
		</g>
		<g>
			<g>
				<path class="st7" d="M37.4,18.2c6.5-0.8,13.3,1.6,17.8,6.3c2.5,2.6,4.2,5.8,6.2,8.7c1.9,2.6,4.1,4.9,6.7,6.7
					c2.9,2,6.3,3.5,9.8,4.2c0.3,0.1,1.2-0.4,0.9-0.4c-7-1.3-12.8-5.6-16.8-11.4c-2-2.8-3.7-5.9-6-8.4c-2.2-2.3-5-4-7.9-5
					c-3.3-1.3-6.8-1.7-10.4-1.2C37.1,17.8,36.6,18.3,37.4,18.2L37.4,18.2z"/>
			</g>
		</g>
		<g>
			<g>
				<path class="st8" d="M13.3,20.1c2-0.2,4-0.4,6-0.1c2,0.4,3.6,1.2,5.1,2.8c1.2,1.2,2.2,2.5,3.7,3.2c1.4,0.7,3.3,1.2,3.8,2.8
					c0.1,0.4,1.2,0,1.1-0.3c-0.5-1.6-2.1-2.2-3.6-2.8c-0.9-0.4-1.8-0.9-2.5-1.6c-0.8-0.8-1.4-1.6-2.2-2.4c-2.9-2.8-7.3-2.4-11.1-2
					C13,19.7,12.6,20.2,13.3,20.1L13.3,20.1z"/>
			</g>
		</g>
		<g>
			<g>
				<path class="st8" d="M14,21.5c2.6,1.3,4.3,3.9,6.2,6c2.1,2.3,4.8,4,7.6,5.3c2.8,1.3,5.9,2.8,8.9,3.6c2.6,0.7,5.4,0.5,7.7-0.9
					c0.4-0.3-0.7-0.1-0.9,0c-3.1,1.9-7,0.4-10-1c-2.5-1-4.9-2.1-7.3-3.5s-4.4-3.1-6-5.2c-1.5-1.8-3-3.7-5.2-4.8
					C14.7,21,13.9,21.5,14,21.5L14,21.5z"/>
			</g>
		</g>
		<g>
			<g>
				<path class="st7" d="M11.5,22.2c1.8,0,3.6,0,5.4,0c1.7,0,3.6-0.3,5.2,0.2c1.5,0.4,2.7,1.3,4.3,1.9c1.5,0.4,3,0.6,4.5,0.7
					c0.4,0,1.2-0.6,0.4-0.7c-1.8-0.2-3.6-0.4-5.2-1c-1.3-0.6-2.5-1.4-3.9-1.6c-1.6-0.3-3.3-0.1-4.9-0.1c-1.8,0-3.6,0-5.4,0
					C11.5,21.6,10.8,22.2,11.5,22.2L11.5,22.2z"/>
			</g>
		</g>
		<g>
			<g>
				<path class="st8" d="M47.2,35.1c3.9,1.4,7.6,3.6,10.8,6.2c0.4,0.3,1.3-0.2,1-0.4c-3.3-2.8-7-5-11-6.4
					C47.6,34.3,46.6,34.9,47.2,35.1L47.2,35.1z"/>
			</g>
		</g>
		<g>
			<g>
				<path class="st9" d="M46.7,29.6c3.6,1.9,7.2,3.6,11,4.8c3,1.1,7.5,1.6,9.2,4.7c0.2,0.4,1.2-0.1,1.1-0.3
					c-1.7-2.9-5.4-3.6-8.4-4.4c-4.2-1.3-8.1-3.1-11.9-5.2C47.5,29,46.6,29.4,46.7,29.6L46.7,29.6z"/>
			</g>
		</g>
		<g>
			<g>
				<path class="st8" d="M54,44.5c-5.2-6.8-11.5-12.7-18.6-17.7c-0.4-0.3-1.3,0.3-0.9,0.6c7,4.8,13.2,10.8,18.4,17.5
					C53.3,45.3,54.2,44.9,54,44.5L54,44.5z"/>
			</g>
		</g>
		<g>
			<g>
				<path class="st8" d="M14.3,25.5c10.3,1.3,21.1,2.8,29.7,8.9c0.3,0.2,1.2-0.3,1-0.4c-8.8-6-19.5-7.6-29.9-9
					C14.9,25.1,14,25.4,14.3,25.5L14.3,25.5z"/>
			</g>
		</g>
		<g>
			<g>
				<path class="st8" d="M61.2,42.7c3.6-0.2,7.2-0.4,10.8-0.6c1.8-0.1,3.3-0.2,4.5,1.2c0.8,0.9,1.5,1.9,2.6,2.5
					c0.4,0.3,1.3-0.4,0.8-0.7c-1.2-0.7-1.9-1.9-2.8-2.8c-1.1-1-2.5-1.2-4.1-1.2c-4,0.2-7.8,0.4-11.8,0.6
					C60.6,42,60.5,42.8,61.2,42.7L61.2,42.7z"/>
			</g>
		</g>
		<g>
			<g>
				<path class="st8" d="M51.4,37.4c3.6,0,7.2,0,10.8,0c1.8,0,3.6-0.1,5.2,0c1.3,0.1,2.8,0.3,3.5,1.5c0.3,0.4,1.2,0,1-0.5
					c-0.6-1.1-1.8-1.6-3-1.8c-1.7-0.3-3.4-0.1-5.1-0.1c-4.2,0-8.2,0-12.4,0C50.9,36.6,50.6,37.4,51.4,37.4L51.4,37.4z"/>
			</g>
		</g>
		<g>
			<g>
				<path class="st8" d="M19.6,33.5c6-1.2,12.5,0.2,17.7,3.6c1.2,0.8,2.3,1.7,3.3,2.7c1,1,1.9,2.5,3.1,3.1c1.2,0.6,3,0.6,4.4,0.8
					c1.9,0.2,3.8,0.4,5.7,0.5c0.3,0,1.2-0.5,0.7-0.5c-2-0.2-4.1-0.4-6-0.5c-1.9-0.2-3.6-0.2-4.9-1.6c-2.1-2.3-4.2-4.3-6.8-5.9
					c-5.1-2.8-11.1-3.9-16.9-2.7C19.3,33.1,18.9,33.5,19.6,33.5L19.6,33.5z"/>
			</g>
		</g>
		<g>
			<g>
				<path class="st8" d="M59.4,32.2c3.2,0.4,6,2.7,7.3,5.8c0.1,0.3,1.2,0,1.1-0.3c-1.2-3.2-4.2-5.5-7.6-5.9c-0.3,0-0.6,0.1-0.8,0.2
					C59.1,32,59.1,32.2,59.4,32.2L59.4,32.2z"/>
			</g>
		</g>
		<g>
			<g>
				<path class="st8" d="M55.4,45.1c6-0.4,12.2-0.2,18.1,0.5c0.4,0.1,1.2-0.6,0.4-0.7c-6.1-0.7-12.4-0.9-18.5-0.5
					C55,44.4,54.7,45.1,55.4,45.1L55.4,45.1z"/>
			</g>
		</g>
		<g>
			<g>
				<path class="st8" d="M59.4,45.5c4.2-1,8.4-1.7,12.6-2c2-0.1,4.2-0.2,6.1-0.1c0.9,0,2.4,0.4,2.9-0.7c0.1-0.3-0.9-0.2-1.1,0.2
					c-0.1,0.2-2.3-0.1-2.5-0.1c-0.9,0-1.9,0-2.8,0c-1.7,0-3.3,0.2-5,0.3c-3.6,0.4-7,0.9-10.5,1.8C58.6,45.2,58.7,45.7,59.4,45.5
					L59.4,45.5z"/>
			</g>
		</g>
		<g>
			<g>
				<path class="st8" d="M60.1,35.7c-0.9,4.8,2.5,9.1,6,11.7c1.2,0.9,2.9,0.7,4.3,0.4c1.7-0.4,3.4-1.2,5.2-1.5
					c0.2,0,0.6-0.2,0.6-0.4s-0.3-0.4-0.5-0.4c-1.5,0.3-2.8,0.9-4.4,1.2c-1.2,0.5-2.9,1.1-4.3,0.2c-3.4-2.7-6.8-6.7-5.9-11.3
					C61.4,35.2,60.3,35.3,60.1,35.7L60.1,35.7z"/>
			</g>
		</g>
		<g>
			<g>
				<path class="st8" d="M65.6,38.2c2.3,1.7,4.8,2.8,7.6,3.7c2.4,0.8,5.2,1,6.9,2.8c0.3,0.3,1.2-0.1,1-0.4c-1.7-1.9-4.3-2.3-6.5-2.8
					c-2.8-0.8-5.7-2.1-8-3.9C66.2,37.4,65.2,38,65.6,38.2L65.6,38.2z"/>
			</g>
		</g>
	</g>
	<g>
		<g>
			<path class="st7" d="M60.2,22.4c4,0.4,8,0.9,12,1.2c2,0.3,4.1,0.4,6,1.2c1.6,0.7,2.9,1.7,4.3,2.7c4.5,3.8,9.6,10,16.3,7.7
				c0.7-0.2,0.5-0.9-0.2-0.7c-3.4,1.1-6.8-0.6-9.5-2.6c-2.6-2-4.7-4.4-7.4-6.3c-2.8-2-6-2.6-9.3-2.8c-4-0.4-7.8-0.8-11.8-1.2
				C60.1,21.6,59.6,22.3,60.2,22.4L60.2,22.4z"/>
		</g>
	</g>
	<g>
		<g>
			<path class="st8" d="M65.3,28.6c6.3-1.4,12.6,0.8,18.5,3.3c5.9,2.5,11.6,5.4,17.4,8c0.3,0.2,1.1-0.4,1-0.4
				c-6.2-2.9-12.5-6-18.8-8.7c-5.7-2.4-11.7-4.1-17.8-2.7C65.2,28.5,64.5,28.8,65.3,28.6L65.3,28.6z"/>
		</g>
	</g>
	<g>
		<g>
			<path class="st8" d="M53.6,29.1c2.2-2.3,5.4-2.7,8.4-2.9c3.2-0.4,6.8-0.7,9.2,1.7c2,1.8,3,4.4,5.2,6c2.1,1.8,5,2.1,7.6,1.6
				c1.7-0.4,3-1.2,4.5-1.9c2.3-1,4.1,0.2,5.9,1.6c0.4,0.4,1.3-0.3,0.8-0.6c-1.2-1-2.5-2-4.2-2.2c-1.5-0.2-2.8,0.6-4.3,1.2
				c-3.2,1.6-7.3,1.9-10-0.9c-2.1-2-3.3-5.1-6-6.6c-2.8-1.6-6.2-1.2-9.2-0.8c-3.2,0.4-6.6,1-9,3.4C52.3,29.3,53.3,29.5,53.6,29.1
				L53.6,29.1z"/>
		</g>
	</g>
	<g>
		<g>
			<path class="st8" d="M68.5,20.7c-0.1,2-0.2,3.8-0.2,5.8c0,1.7-0.2,3.6,0.2,5.2c0.2,1.2,1.1,1.6,2.2,1.7c1.7,0.2,3.6,0.1,5.2-0.1
				c1.7-0.2,3.5-0.5,5.1-0.9c0.8-0.2,1.7-0.4,2.5-0.7c0.7-0.2,1.6-0.6,2.2,0.1c0.3,0.3,0.4,0.8,0.6,1.1c0.6,1.6,1.2,3.4,2,4.9
				c0.6,0.9,1.2,1.4,2.4,1.2c0.7-0.2,0.5-0.7-0.2-0.6c-1.1,0.3-2.2-3.3-2.5-4c-0.4-1-0.8-2.7-1.8-3.3c-0.9-0.6-2.1-0.2-3.1,0.1
				c-1.7,0.5-3.4,0.9-5.2,1.2c-1.7,0.3-3.4,0.4-5.1,0.4c-0.8,0-1.7,0.1-2.5-0.2c-0.9-0.3-1.2-0.9-1.2-1.8c-0.3-3.5-0.1-6.9,0.1-10.4
				C69.6,20.1,68.5,20.3,68.5,20.7L68.5,20.7z"/>
		</g>
	</g>
	<g>
		<g>
			<path class="st8" d="M79.5,33.3c-0.5,3.1,1,6.8-1,9.6c-1,1.3-2.8,1.1-4.3,2.1c-0.9,0.7-1.2,1.7-0.5,2.6c0.8,1.1,2.4,2,3.6,2.6
				c1.4,0.8,2.8,1.6,4.3,2.4c2.9,1.5,6,2.9,8.6,5.2c0.3,0.3,1.2-0.2,1-0.4c-2.4-2-5.1-3.4-7.7-4.7c-2.8-1.4-6-2.8-8.2-4.9
				c-0.8-0.8-1.1-1.9,0-2.5c0.6-0.4,1.3-0.4,2-0.7c1.2-0.4,2.1-1.2,2.6-2.3c1.4-2.8,0.2-6,0.7-9.1C80.6,32.8,79.6,33,79.5,33.3
				L79.5,33.3z"/>
		</g>
	</g>
	<g>
		<g>
			<path class="st8" d="M62.1,26.5c7.1,2.2,14.3,4.3,21.1,6.8c6.8,2.6,12.6,6.4,18.3,10.8c0.4,0.3,1.3-0.2,1-0.4
				c-5.9-4.3-11.7-8.3-18.5-10.8c-7-2.6-14.3-4.6-21.4-6.8C62.4,25.8,61.5,26.3,62.1,26.5L62.1,26.5z"/>
		</g>
	</g>
	<g>
		<g>
			<path class="st8" d="M51,39.6c3.3,0.4,6.7-0.3,10,0c3.6,0.3,6.5,1.9,9.3,4.1c2.4,1.9,4.5,4,6.2,6.4c0.8,1.2,1.2,2.7,2.1,3.8
				c0.7,0.9,1.9,1,2.9,1c3.6-0.2,7.2-1.1,10.6-2.4c0.7-0.3,0.1-0.6-0.4-0.4c-2.1,0.8-4.3,1.4-6.5,1.8c-1,0.2-2,0.4-3.1,0.4
				c-1.2,0.1-2.2-0.2-2.8-1.3c-0.8-1.5-1.4-3-2.5-4.4c-1.1-1.4-2.5-2.8-3.9-4c-2.8-2.5-5.9-4.7-9.4-5.4c-4-0.7-7.9,0.2-12-0.2
				C51,38.9,50.2,39.5,51,39.6L51,39.6z"/>
		</g>
	</g>
	<g>
		<g>
			<path class="st8" d="M65.3,37.2c3.1,0.1,5.8,2,8.2,3.8c2.5,1.8,5.1,3.6,7.5,5.7c1.2,1,2.4,2,3.6,3c0.9,0.8,1.9,2.1,3,2.5
				c1,0.4,2.2-0.1,3.2-0.4c1.7-0.4,3.4-0.9,5.1-1.2c0.7-0.2,0.6-0.5-0.1-0.4c-1.5,0.4-3.1,0.8-4.6,1.1c-1,0.3-2.2,0.6-3.1,0.1
				c-0.5-0.4-1-0.9-1.4-1.2c-2.1-2-4.4-3.9-6.7-5.7s-4.5-3.5-6.9-5.1c-2.1-1.4-4.3-2.7-6.9-2.7C65.9,36.7,64.9,37.2,65.3,37.2
				L65.3,37.2z"/>
		</g>
	</g>
	<g>
		<g>
			<path class="st8" d="M52.9,43.6c7-0.6,14.4-1.2,21.1,1.2c3.5,1.3,6.2,3.7,9.2,5.8c2.8,1.9,6,3.2,9.4,2.5c0.7-0.2,0.5-0.8-0.2-0.7
				c-4,0.9-7.6-1.7-10.6-4c-2.8-2-5.6-3.9-9-4.8c-6.4-2-13.3-1.3-20-0.8C52.5,43,52.1,43.6,52.9,43.6L52.9,43.6z"/>
		</g>
	</g>
	<g>
		<g>
			<path class="st7" d="M40.6,37.4c5,4.6,12.2,5.4,18.1,8.3c6,2.8,11.3,7.2,17.1,10.7c3.1,1.9,6.4,3.4,10,4.3
				c0.3,0.1,1.2-0.4,0.9-0.4c-6.5-1.6-12-5.6-17.5-9.2c-2.8-1.9-5.6-3.7-8.5-5.2c-2.8-1.4-6-2.5-9-3.5c-3.6-1.2-7.3-2.6-10-5.3
				C41.5,36.9,40.5,37.3,40.6,37.4L40.6,37.4z"/>
		</g>
	</g>
	<g>
		<g>
			<path class="st7" d="M63.5,23.7c6.5-0.8,13.3,1.6,17.8,6.3c2.5,2.6,4.2,5.8,6.2,8.7c1.9,2.6,4.1,4.9,6.7,6.7
				c2.9,2,6.3,3.5,9.8,4.2c0.3,0.1,1.2-0.4,0.9-0.4c-7-1.4-12.8-5.6-16.8-11.4c-2-2.8-3.7-5.9-6-8.4c-2.2-2.3-5-4-7.9-5
				c-3.3-1.2-6.9-1.5-10.4-1.1C63.1,23.4,62.6,23.8,63.5,23.7L63.5,23.7z"/>
		</g>
	</g>
	<g>
		<g>
			<path class="st8" d="M73.4,25.6c2-0.2,4-0.4,6-0.1c2,0.4,3.6,1.2,5.1,2.8c1.2,1.2,2.2,2.5,3.7,3.2c1.4,0.7,3.3,1.2,3.8,2.8
				c0.1,0.4,1.2,0,1.1-0.3c-0.5-1.6-2.1-2.2-3.6-2.8c-0.9-0.4-1.8-0.9-2.5-1.6c-0.8-0.8-1.4-1.6-2.2-2.4c-3-2.8-7.5-2.6-11.2-2.1
				C73.1,25.2,72.6,25.7,73.4,25.6L73.4,25.6z"/>
		</g>
	</g>
	<g>
		<g>
			<path class="st8" d="M47.5,39.9c2.6,1.3,4.3,3.9,6.2,6c2.1,2.3,4.8,4,7.6,5.3s5.9,2.8,8.9,3.6c2.6,0.7,5.4,0.5,7.7-0.9
				c0.4-0.3-0.7-0.1-0.9,0c-3.1,1.9-7,0.4-10-1c-2.5-1-4.9-2.1-7.3-3.5s-4.4-3.1-6-5.2c-1.5-1.8-3-3.7-5.2-4.8
				C48.3,39.4,47.4,39.8,47.5,39.9L47.5,39.9z"/>
		</g>
	</g>
	<g>
		<g>
			<path class="st7" d="M71.7,27.7c1.8,0,3.6,0,5.4,0c1.7,0,3.6-0.3,5.2,0.2c1.5,0.4,2.7,1.3,4.3,1.9c1.5,0.4,3,0.6,4.5,0.7
				c0.4,0,1.2-0.6,0.4-0.7c-1.8-0.2-3.6-0.3-5.2-1c-1.3-0.6-2.5-1.4-3.9-1.6c-1.6-0.3-3.3-0.1-4.9-0.1c-1.8,0-3.6,0-5.4,0
				C71.7,27,70.9,27.7,71.7,27.7L71.7,27.7z"/>
		</g>
	</g>
	<g>
		<g>
			<path class="st8" d="M80.7,53.5c3.9,1.4,7.6,3.6,10.8,6.2c0.4,0.3,1.3-0.2,1-0.4c-3.3-2.8-7-5-11-6.4
				C81.1,52.7,80.2,53.2,80.7,53.5L80.7,53.5z"/>
		</g>
	</g>
	<g>
		<g>
			<path class="st9" d="M72.2,36.9c3.6,1.9,7.2,3.6,10.9,4.8c3,1.1,7.5,1.6,9.2,4.7c0.2,0.4,1.2-0.1,1.1-0.3
				c-1.7-2.9-5.4-3.6-8.4-4.4c-4.2-1.3-8.1-3.1-11.9-5.2C73,36.5,72,36.8,72.2,36.9L72.2,36.9z"/>
		</g>
	</g>
	<g>
		<g>
			<path class="st8" d="M87.5,62.8C82.2,56,76,50.1,68.9,45.2c-0.4-0.3-1.3,0.3-0.8,0.6c7,4.7,13.2,10.7,18.4,17.4
				C86.8,63.6,87.7,63.3,87.5,62.8L87.5,62.8z"/>
		</g>
	</g>
	<g>
		<g>
			<path class="st8" d="M47.8,43.9c10.3,1.3,21.1,2.8,29.7,8.9c0.3,0.2,1.2-0.3,1-0.4c-8.8-6-19.5-7.6-29.9-9
				C48.4,43.5,47.5,43.8,47.8,43.9L47.8,43.9z"/>
		</g>
	</g>
	<g>
		<g>
			<path class="st8" d="M74.2,48c3.6,0,7.2,0,10.8,0c1.8,0,3.6-0.1,5.2,0c1.3,0.1,2.8,0.3,3.5,1.5c0.3,0.4,1.2,0,1-0.5
				c-0.6-1.1-1.8-1.6-3-1.8c-1.7-0.3-3.4-0.1-5.1-0.1c-4.2,0-8.2,0-12.4,0C73.8,47.3,73.6,48,74.2,48L74.2,48z"/>
		</g>
	</g>
	<g>
		<g>
			<path class="st8" d="M36.9,41.4c6-1.2,12.5,0.2,17.7,3.6c1.2,0.8,2.3,1.7,3.3,2.7c1,1,1.9,2.5,3.1,3.1c1.2,0.6,3,0.6,4.4,0.8
				c1.9,0.2,3.8,0.4,5.7,0.5c0.3,0,1.2-0.5,0.7-0.5c-2-0.2-4.1-0.4-6-0.5c-1.9-0.2-3.6-0.2-4.9-1.6c-2.1-2.3-4.2-4.3-6.8-5.9
				C49,40.7,43,39.7,37.2,40.9C36.6,41,36.1,41.6,36.9,41.4L36.9,41.4z"/>
		</g>
	</g>
	<g>
		<g>
			<path class="st7" d="M68.4,38.7c4.9-0.4,9.9-0.1,14.7,0.7c1.1,0.2,2.3,0.4,3.4,0.6c1.1,0.3,2.3,0.4,3.3,0.9c1.4,0.8,2,2.4,3.9,2
				c0.7-0.2,0.5-0.8-0.2-0.6c-0.9,0.2-1.6-1.1-2.2-1.6c-0.7-0.5-1.5-0.8-2.4-0.9c-2.2-0.5-4.4-0.9-6.8-1.2
				c-4.5-0.7-9.2-0.8-13.8-0.5C67.9,38.1,67.6,38.7,68.4,38.7L68.4,38.7z"/>
		</g>
	</g>
	<g>
		<g>
			<path class="st8" d="M73.8,43.8c6-0.4,12.2-0.2,18.1,0.5c0.4,0.1,1.2-0.6,0.4-0.7c-6.1-0.7-12.4-0.9-18.5-0.5
				C73.4,43.3,73.1,43.9,73.8,43.8L73.8,43.8z"/>
		</g>
	</g>
	<g>
		<g>
			<path class="st8" d="M77.8,44.4c4.2-1,8.4-1.7,12.6-2c2-0.1,4.2-0.2,6.1-0.1c0.9,0,2.4,0.4,2.9-0.7c0.1-0.3-0.9-0.2-1.1,0.2
				c-0.1,0.2-2.3-0.1-2.6-0.1c-0.9,0-1.9,0-2.8,0c-1.7,0-3.3,0.2-5,0.3c-3.6,0.4-7,0.9-10.5,1.8C77,44.1,77.1,44.5,77.8,44.4
				L77.8,44.4z"/>
		</g>
	</g>
</g>
</svg>
