<?xml version="1.0" encoding="utf-8"?>
<!-- Generator: Adobe Illustrator 25.2.3, SVG Export Plug-In . SVG Version: 6.00 Build 0)  -->
<svg version="1.1" id="Layer_1" xmlns="http://www.w3.org/2000/svg" xmlns:xlink="http://www.w3.org/1999/xlink" x="0px" y="0px"
	 viewBox="0 0 202.4 306.4" style="enable-background:new 0 0 202.4 306.4;" xml:space="preserve">
<style type="text/css">
	.st0{fill:#4B3950;stroke:#F0EFF3;stroke-width:0.315;stroke-miterlimit:10;}
	.st1{fill:#F0EFF3;}
	.st2{font-family:'MyriadPro-Regular';}
	.st3{font-size:15.7103px;}
	.st4{fill:#E4DAD8;stroke:#FFFFFF;stroke-width:0.35;stroke-miterlimit:10;}
	.st5{fill:#CBB8B9;stroke:#FFFFFF;stroke-width:0.35;stroke-linejoin:bevel;stroke-miterlimit:10;}
	.st6{opacity:0.5;fill:#4B3950;}
	.st7{fill:#E4DAD8;stroke:#FFFFFF;stroke-width:0.35;stroke-linejoin:bevel;stroke-miterlimit:10;}
	.st8{fill:#E4DAD8;stroke:#FFFFFF;stroke-width:0.315;stroke-linejoin:bevel;stroke-miterlimit:10;}
	.st9{fill:#CBB8B9;stroke:#FFFFFF;stroke-width:0.315;stroke-linejoin:bevel;stroke-miterlimit:10;}
	.st10{fill:#E4DAD8;stroke:#FFFFFF;stroke-width:0.315;stroke-miterlimit:10;}
	.st11{opacity:0.42;fill:#4B3950;}
	.st12{opacity:0.5;fill:#E4DAD8;stroke:#FFFFFF;stroke-width:0.35;stroke-miterlimit:10;}
</style>
<g>
	<path class="st0" d="M114.9,92l22.1,10.4c1.2,0.6,2.6,0.6,3.8-0.1l35.4-18.2c3.1-1.6,3.2-6,0.1-7.7l-20.9-11.3
		c-1.3-0.7-2.8-0.7-4.1,0l-36.6,19C111.6,85.9,111.6,90.5,114.9,92z"/>
	<path class="st0" d="M115.2,84.3l17.2,8.8l8,1.6l36.2-18.2c3.1-1.6,3.2-6,0.1-7.7l-20-10.1c-1.3-0.7-5-0.6-7.6,0.6
		c-2.6,1.1-34,17.2-34,17.2C111.9,78.1,112,82.7,115.2,84.3z"/>
	<path class="st0" d="M114.4,76.9c-2.6,1-2.9,11.8-1.9,13.3c1,1.5,22.2,11.7,22.2,11.7c1.7,0.7,3.6,1.4,7.6-0.1
		c4-1.6,33.7-16.5,35.3-18.1s1.2-9.6,1.2-9.6c0.2,1.5-34.9,18.1-34.9,18.1c-2.7,1.6-8.7,1-10.2,0.3c-1.5-0.7-19-9.4-19-9.4
		C112.1,81.8,111.9,78.7,114.4,76.9z"/>
	<text transform="matrix(0.8894 -0.4572 0.4572 0.8894 135.5682 85.9752)" class="st1 st2 st3">Seife</text>
</g>
<g>
	<polygon class="st4" points="11,184 96.7,143.5 95.7,213.3 11,257.8 	"/>
	<polygon class="st5" points="95.6,141.3 11.7,183.7 23.5,184.7 96.8,147.5 	"/>
	<polygon class="st6" points="23.3,256.4 88.8,288.3 177.4,246.3 96.9,216.6 	"/>
	<polygon class="st7" points="17.4,187.5 99.7,146.3 96.8,218.6 16.9,260 	"/>
	<polygon class="st8" points="95.1,148.1 93.8,218.9 170.9,249.3 171.5,183.2 	"/>
	<polygon class="st9" points="174.3,189 88.8,145 95.3,142 182.1,185.4 	"/>
	<polygon class="st10" points="92,222.5 181.8,186 181.3,250.7 91.9,295.3 	"/>
	<path class="st11" d="M23,203.7l65.8,31.4c-0.2-0.5,67.8-34.9,67.8-34.9l-62-33.2L23,203.7z"/>
	<path class="st9" d="M165.6,184.9l-73.2,34.4l5.6,5.9l76.3-36L165.6,184.9z"/>
	<polygon class="st12" points="11.2,183.9 10.7,256.6 98.2,299 98.9,225.4 	"/>
	<polygon class="st6" points="23.3,203.8 23.3,256.6 89.2,288.2 89.4,234.7 	"/>
	<polygon class="st5" points="106.3,221.6 18.7,180.5 11,184.1 98,225.3 	"/>
	<path class="st10" d="M98.2,225.3c0.3,0.6,83.4-39.7,83.4-39.7l-0.3,71.8l-83,41.6L98.2,225.3z"/>
</g>
</svg>
