<?xml version="1.0" encoding="utf-8"?>
<!-- Generator: Adobe Illustrator 25.2.3, SVG Export Plug-In . SVG Version: 6.00 Build 0)  -->
<svg version="1.1" id="Layer_1" xmlns="http://www.w3.org/2000/svg" xmlns:xlink="http://www.w3.org/1999/xlink" x="0px" y="0px"
	 viewBox="0 0 150.4 280.3" style="enable-background:new 0 0 150.4 280.3;" xml:space="preserve">
<style type="text/css">
	.st0{fill:#4B3950;stroke:#F0EFF3;stroke-width:0.25;stroke-miterlimit:10;}
	.st1{fill:#F0EFF3;}
	.st2{font-family:'MyriadPro-Regular';}
	.st3{font-size:12.4698px;}
	.st4{fill:#E4DAD8;stroke:#FFFFFF;stroke-width:0.2778;stroke-miterlimit:10;}
	.st5{fill:#CBB8B9;stroke:#FFFFFF;stroke-width:0.2778;stroke-linejoin:bevel;stroke-miterlimit:10;}
	.st6{opacity:0.5;fill:#4B3950;enable-background:new    ;}
	.st7{fill:#D8422E;}
	.st8{fill:#DC3359;}
	.st9{fill:#EE7345;}
	.st10{fill:#E4DAD8;stroke:#FFFFFF;stroke-width:0.2778;stroke-linejoin:bevel;stroke-miterlimit:10;}
	.st11{fill:#E4DAD8;stroke:#FFFFFF;stroke-width:0.25;stroke-linejoin:bevel;stroke-miterlimit:10;}
	.st12{fill:#CBB8B9;stroke:#FFFFFF;stroke-width:0.25;stroke-linejoin:bevel;stroke-miterlimit:10;}
	.st13{fill:#E4DAD8;stroke:#FFFFFF;stroke-width:0.25;stroke-miterlimit:10;}
	.st14{opacity:0.42;fill:#4B3950;enable-background:new    ;}
	.st15{opacity:0.5;fill:#E4DAD8;stroke:#FFFFFF;stroke-width:0.2778;stroke-miterlimit:10;enable-background:new    ;}
</style>
<g>
	<g>
		<path class="st0" d="M89.5,138.6l17.5,8.3c1,0.5,2.1,0.4,3.1-0.1l28.1-14.4c2.5-1.3,2.5-4.8,0.1-6.1l-16.6-8.9
			c-1-0.5-2.2-0.6-3.2,0l-29.1,15C86.8,133.7,86.9,137.4,89.5,138.6z"/>
		<path class="st0" d="M89.7,132.5l13.6,7l6.3,1.3l28.7-14.4c2.5-1.3,2.5-4.8,0.1-6.1l-15.9-8c-1-0.5-4-0.4-6,0.4
			c-2.1,0.9-27,13.7-27,13.7C87.1,127.6,87.1,131.2,89.7,132.5z"/>
		<path class="st0" d="M89.1,126.6c-2.1,0.8-2.3,9.4-1.5,10.6s17.7,9.3,17.7,9.3c1.3,0.6,2.8,1.2,6-0.1c3.2-1.2,26.8-13.1,28-14.4
			s0.9-7.6,0.9-7.6c0.1,1.2-27.7,14.4-27.7,14.4c-2.1,1.3-6.9,0.8-8.1,0.2s-15.1-7.5-15.1-7.5C87.2,130.5,87.1,128,89.1,126.6z"/>
		<text transform="matrix(0.8894 -0.4572 0.4572 0.8894 105.9501 133.8344)" class="st1 st2 st3">Seife</text>
	</g>
	<g>
		<polygon class="st4" points="7,187.8 75.1,155.6 74.2,211 7,246.3 		"/>
		<polygon class="st5" points="74.2,153.9 7.5,187.6 16.9,188.3 75.1,158.8 		"/>
		<polygon class="st6" points="16.8,245.2 68.7,270.5 139.1,237.2 75.2,213.7 		"/>
		<g>
			<g>
				<g>
					<path class="st7" d="M59.8,226.4c2.3,0.2,3.8-0.5,5.7-1.8c1.1-0.8,2.3-1.1,3.7-1.1c2,0.1,4,0.4,5.9,1c6.8,2,10.6,8.6,16.6,12
						c3.1,1.7,6.6,2.6,10,1.5c0.5-0.2,0.4-0.8-0.2-0.6c-4.7,1.5-9.4-1.1-12.9-4c-3.1-2.6-5.9-5.8-9.4-7.9c-1.8-1-3.6-1.7-5.6-2.1
						c-1.8-0.3-3.9-0.7-5.7-0.4c-1.2,0.2-2.1,0.7-3.1,1.4c-1.4,1-2.7,1.5-4.5,1.4C59.7,225.8,59.2,226.4,59.8,226.4L59.8,226.4z"/>
				</g>
			</g>
			<g>
				<g>
					<path class="st8" d="M60.6,229.9c7.9-1.7,15.8,1,23,4.1s14.2,6.6,21.3,9.9c0.3,0.1,1.1-0.3,0.7-0.4c-7.7-3.6-15.2-7.3-23-10.6
						c-7-2.9-14.5-5.1-22.1-3.4C59.9,229.6,60,230,60.6,229.9L60.6,229.9z"/>
				</g>
			</g>
			<g>
				<g>
					<path class="st8" d="M51.4,234.6c1.6-1.6,3.6-2.5,5.7-3.1c1.9-0.4,3.8-0.4,5.7-0.8c0.9-0.2,1.6-0.7,2.1-1.4
						c0.2-0.4,0.4-0.8,0.5-1.2c0.2-0.6,0.3-1,1-0.6c3.2,1.5,4.7,5.5,7.1,7.9c2.5,2.5,6,3.3,9.4,2.7c1.9-0.3,3.5-1.1,5.2-1.9
						c1.7-0.9,3.4-1.3,5.2-0.4c1.1,0.5,2.1,1.3,3,2c0.2,0.1,0.9-0.2,0.8-0.3c-1.6-1.3-3.3-2.6-5.4-2.6c-1.7,0-3.3,0.8-4.8,1.6
						c-4.5,2.3-9.8,1.9-13.2-2c-1.4-1.6-2.4-3.3-3.7-4.9c-0.8-1-2.2-2.5-3.6-2.6c-0.7,0-1.2,0.3-1.6,0.8c-0.8,1.3-0.8,2.6-2.6,2.8
						c-4.1,0.5-8.5,1-11.6,4.2C50.4,234.9,51.2,234.8,51.4,234.6L51.4,234.6z"/>
				</g>
			</g>
			<g>
				<g>
					<path class="st8" d="M64.5,220c-0.1,2.4-0.2,4.9-0.2,7.3c0,2-0.2,4.2,0.2,6.2c0.3,1.5,1.5,2,3,2.1c2.1,0.2,4.3,0.1,6.4-0.2
						c2.1-0.2,4.2-0.6,6.3-1.1c1.1-0.3,2.1-0.6,3.1-0.9c0.4-0.1,0.9-0.3,1.3-0.3c1.3,0,1.5,0.9,1.9,1.9c0.8,1.9,1.5,3.9,2.5,5.7
						c0.6,1.1,1.4,2.1,2.8,1.8c0.5-0.1,0.4-0.7-0.2-0.6c-1.7,0.4-2.8-3.8-3.3-4.9c-0.5-1.2-1-3.4-2.2-4.2c-1-0.6-2.3-0.2-3.4,0.2
						c-1.9,0.6-3.9,1.1-5.9,1.4c-2,0.4-4.1,0.6-6.1,0.6c-1.1,0-2.2,0.1-3.3-0.1c-1.4-0.2-2-0.9-2.1-2.3c-0.3-4.2-0.1-8.5,0.1-12.7
						C65.4,219.5,64.5,219.6,64.5,220L64.5,220z"/>
				</g>
			</g>
			<g>
				<g>
					<path class="st8" d="M46.2,230.5c3.1-4.3,8.6-0.5,11.7,1.7c2.2,1.6,4.5,2.9,7.2,3.4c1.3,0.2,2.7,0.4,4,0.7c1.4,0.3,3,1,4.5,0.7
						c1.2-0.3,1.9-1.1,2.5-2.2c1-2,2.4-3.5,4.7-3.8c4.8-0.7,8.5,3.1,11.1,6.6c0.2,0.2,0.9-0.2,0.9-0.2c-2.4-3.1-5.4-6.3-9.5-6.7
						c-3.1-0.3-6.3,0.9-7.8,3.7c-0.2,0.4-0.4,0.8-0.6,1.2c-0.6,0.9-1.5,1.2-2.6,1c-1.1-0.1-2.1-0.6-3.2-0.8
						c-1.4-0.3-2.8-0.4-4.2-0.7c-3.8-0.9-6.5-3.8-9.9-5.6c-3.1-1.6-7.5-2-9.8,1.2C45.3,230.7,46.1,230.7,46.2,230.5L46.2,230.5z"/>
				</g>
			</g>
			<g>
				<g>
					<path class="st8" d="M68.8,219.7c-0.7,3.8,1.3,8.6-1.4,11.9c-1.3,1.7-3.5,1.3-5.1,2.6c-1.1,0.8-1.4,2-0.6,3.1
						c1.1,1.4,3,2.4,4.5,3.3c1.7,1,3.4,1.9,5.2,2.8c3.7,1.9,7.4,3.7,10.6,6.3c0.2,0.2,1-0.2,0.8-0.3c-2.9-2.4-6.2-4.1-9.6-5.8
						s-7.4-3.4-10.1-6.1c-0.8-0.8-1.3-1.9-0.5-2.8c0.8-0.9,2.1-1,3.2-1.4c1.3-0.4,2.3-1.2,2.9-2.3c2.1-3.5,0.4-7.7,1-11.4
						C69.7,219.3,68.8,219.4,68.8,219.7L68.8,219.7z"/>
				</g>
			</g>
			<g>
				<g>
					<path class="st8" d="M62,231.4c1.5,0.4,3,0.7,4.5,0.6c1.2-0.1,2.4-0.4,3.6-0.4c2,0,3.8,0.8,5.7,1.3c2.3,0.7,4.5,1.5,6.8,2.3
						c8.4,3.1,15.6,8,22.8,13.3c0.2,0.1,0.9-0.2,0.8-0.3c-7.3-5.4-14.7-10.3-23.2-13.4c-2-0.7-4-1.4-6-2c-1.8-0.6-3.7-1.3-5.7-1.5
						c-1.2-0.1-2.3,0.1-3.4,0.2c-1.8,0.2-3.4,0-5.2-0.5C62.5,231,61.8,231.4,62,231.4L62,231.4z"/>
				</g>
			</g>
			<g>
				<g>
					<path class="st8" d="M74,241.7c6.6,0.9,13.2-1,19.8,0.2c3.4,0.6,5.9,2.2,8.6,4.3c2.4,1.8,4.9,3.1,8,3.4c0.2,0,1-0.4,0.5-0.4
						c-3.6-0.3-6.2-2.1-8.9-4.2c-2.3-1.8-4.8-2.9-7.6-3.4c-6.6-1.2-13.2,0.7-19.8-0.2C74.3,241.2,73.5,241.6,74,241.7L74,241.7z"/>
				</g>
			</g>
			<g>
				<g>
					<path class="st8" d="M39.2,231.8c4.1,0.4,8.2-0.3,12.3,0c4.3,0.3,7.7,2.1,11.1,4.7c0.9,0.7,2,1.4,2.6,2.4
						c0.4,0.6,0.5,1.4,0.7,2.1c0.4,1.3,0.9,2.7,1.6,3.8c0.8,1.2,2,1.6,3.4,1.5c4.5-0.1,9-1.4,13.2-2.9c0.6-0.2,0.1-0.7-0.4-0.5
						c-3.9,1.5-8.1,2.6-12.3,2.8c-1.2,0.1-2.3-0.2-3-1.3c-0.5-0.7-0.8-1.6-1.1-2.4c-0.3-0.9-0.5-1.7-0.8-2.6c-0.6-1.8-2.6-3-4-4
						c-2.9-2.2-6-3.7-9.7-4.1c-4.4-0.4-8.8,0.4-13.2,0C39.1,231.1,38.6,231.7,39.2,231.8L39.2,231.8z"/>
				</g>
			</g>
			<g>
				<g>
					<path class="st8" d="M57.2,228.9c0.7,0,1.6-0.2,2-0.9c0.1-0.2,0.2-0.6,0.1-0.8v-0.1c0-0.2-0.1-0.1-0.3,0.2
						c0.1,0.1,0.5,0.3,0.7,0.4c3.5,2.3,6.9,4.8,10.1,7.5c1.5,1.3,3.1,2.5,4.6,3.9c1.3,1.1,2.5,2.6,4,3.5c1.3,0.8,2.8,0.3,4.2-0.1
						c2.1-0.5,4.2-1,6.3-1.5c0.5-0.1,0.4-0.6-0.1-0.5c-1.9,0.5-3.9,0.9-5.8,1.4c-1.4,0.3-2.9,1-4.2-0.1c-0.7-0.5-1.3-1.2-1.9-1.8
						c-2.8-2.5-5.6-4.9-8.6-7.2c-1.4-1.1-2.8-2.2-4.3-3.2c-1.3-0.9-2.7-2.2-4.1-2.8c-0.3-0.1-0.9-0.3-1.2,0.1
						c-0.6,0.7,0.4,1.4-1.2,1.4C56.8,228.4,56.6,228.9,57.2,228.9L57.2,228.9z"/>
				</g>
			</g>
			<g>
				<g>
					<path class="st8" d="M55.2,239.8c3.8-0.4,7.4-1.4,11-2.3c3.5-0.9,7.1-1.3,10.6,0c7.5,2.7,12.9,11.4,21.8,9.6
						c0.5-0.1,0.4-0.5-0.1-0.4c-4.9,1-9.3-2-13-4.7c-3.1-2.3-6.2-4.7-10.1-5.5c-2.9-0.6-5.9-0.2-8.8,0.5c-3.8,0.9-7.4,2-11.3,2.3
						C54.9,239.4,54.6,239.9,55.2,239.8L55.2,239.8z"/>
				</g>
			</g>
			<g>
				<g>
					<path class="st8" d="M70.8,247c7.3-1,13.9,3.5,21.1,3.8c7.3,0.4,13.3-4.6,20.4-5.2c0.5,0,0.7-0.7,0.1-0.6
						c-7.3,0.6-13.5,5.8-20.9,5.1c-7-0.6-13.3-4.7-20.5-3.8C70.4,246.4,70.3,247,70.8,247L70.8,247z"/>
				</g>
			</g>
			<g>
				<g>
					<path class="st8" d="M63.4,224.8c2.9,4.2,5,9.3,9.4,12.2c2.9,1.9,6.2,3,9.5,3.9c3.7,1.1,7.3,2.4,10.5,4.6
						c3.4,2.3,6.2,5.4,8.4,8.9c0.2,0.3,1-0.1,0.9-0.2c-3.7-6-9.4-10.5-16.1-12.7c-6.1-2-12.7-3.4-16.7-8.9c-1.9-2.6-3.3-5.4-5.1-8.1
						C64.1,224.3,63.2,224.6,63.4,224.8L63.4,224.8z"/>
				</g>
			</g>
			<g>
				<g>
					<path class="st9" d="M40.3,232.3c5.4,5.1,12.9,6.4,19.6,9c6.8,2.7,12.6,7.1,18.9,10.6c3.6,2,7.4,3.5,11.5,4.5
						c0.2,0.1,1-0.3,0.7-0.3c-3.7-0.9-7.2-2.2-10.6-4c-2.9-1.5-5.6-3.4-8.4-5.1c-3.1-1.9-6.3-3.7-9.6-5.2c-3.4-1.5-6.9-2.5-10.3-3.7
						c-4-1.4-7.9-3.1-11-6C41,231.8,40.2,232.1,40.3,232.3L40.3,232.3z"/>
				</g>
			</g>
			<g>
				<g>
					<path class="st8" d="M47.8,233.6c3.6-0.4,7.7-0.8,11,1c0.4,0.2,0.8,0.5,1.2,0.8c0.1,0.1,0.3,0.3,0.4,0.4c0.1,0,0.5-0.3,0.5-0.3
						s-0.1,0-0.2-0.1s-0.3-0.1-0.4-0.2c-0.5-0.2-1-0.5-1.4-0.1c0,0-0.1,0.1-0.1,0.2c0.1,0.2,0.5,0.4,0.7,0.5
						c0.7,0.4,1.4,0.8,2.2,1.1c1.5,0.7,3.1,1.4,3.6,3.1c0.1,0.3,1,0.1,0.9-0.2c-0.5-1.4-1.7-2.2-3-2.9c-0.7-0.3-1.4-0.6-2.1-1
						c-0.4-0.2-0.7-0.4-1.1-0.6c-0.1,0-0.2-0.1-0.3-0.2c-0.2-0.1,0.2-0.1-0.2,0.1c-0.2,0.1-0.3,0.1-0.5,0.2c0.3,0,1,0.5,1.5,0.5
						c1.5,0-0.3-1.3-0.7-1.5c-3.5-2.2-8.1-1.8-12-1.4C47.4,233.1,47.2,233.6,47.8,233.6L47.8,233.6z"/>
				</g>
			</g>
			<g>
				<g>
					<path class="st8" d="M48.8,235.4c3.2,1.7,5.2,4.8,7.6,7.4c1.5,1.6,3,3,5.1,3.4c3.2,0.6,6,2.2,9.1,3.1c3.2,0.9,6.7,1,9.6-0.8
						c0.5-0.3-0.2-0.6-0.6-0.4c-3.5,2.1-7.7,1-11.3-0.4c-1.5-0.6-2.9-1.3-4.4-1.7c-0.8-0.2-1.6-0.3-2.5-0.5c-2.3-0.5-4-2.7-5.4-4.4
						c-2-2.3-3.8-4.7-6.6-6.2C49.2,234.7,48.4,235.2,48.8,235.4L48.8,235.4z"/>
				</g>
			</g>
			<g>
				<g>
					<path class="st8" d="M62.6,220.7c0.2,1.7,2.3,2.5,3.7,2.9c2.3,0.8,4.6,1.2,6.9,2.1c0.8,0.3,1.8,0.7,2.3,1.5
						c0.2,0.3,0.3,0.6,0.3,1c0,1.1-0.2,2.1-0.2,3.2c0,1.8,0.5,3.5,1.9,4.7c1.6,1.4,3.7,2.2,5.6,3.2c4.9,2.4,9.8,4.7,14.8,6.9
						c0.3,0.1,1-0.3,0.5-0.5c-4.4-1.9-8.8-3.9-13.1-6c-2-1-4.2-1.9-6.1-3.2c-2-1.3-2.7-3.3-2.6-5.7c0-1.1,0.6-2.5,0.1-3.5
						c-0.3-0.6-0.9-1-1.5-1.4c-1.9-1-4.2-1.5-6.2-2.1c-1.6-0.5-5-1.1-5.2-3.2C63.5,220.1,62.6,220.3,62.6,220.7L62.6,220.7z"/>
				</g>
			</g>
			<g>
				<g>
					<path class="st7" d="M45.6,236.1c2.7,0,5.5,0,8.2,0c1.5,0,3-0.1,4.4,0.1c1.3,0.2,2.4,0.9,3.5,1.5c0.6,0.3,1.9,0.8,2-0.3
						c0.1-0.5-0.8-2.5,0.1-2.5c0.4,0,0.9-0.5,0.3-0.5c-1,0-1.7,0.5-1.6,1.5c0,0.5,0.2,0.9,0.3,1.4v0.3c0.1,0.1,0.2,0.1,0.2-0.1
						c0-0.1-1.3-0.7-1.5-0.7c-1-0.6-2-1-3.2-1.2c-1.3-0.2-2.6-0.1-3.9-0.1c-2.9,0-5.7,0-8.6,0C45.6,235.6,45,236.1,45.6,236.1
						L45.6,236.1z"/>
				</g>
			</g>
			<g>
				<g>
					<path class="st8" d="M70.2,244.3c4.9,1.8,9.4,4.4,13.4,7.8c0.2,0.2,1-0.2,0.8-0.3c-4-3.4-8.6-6.1-13.5-7.9
						C70.7,243.9,69.9,244.2,70.2,244.3L70.2,244.3z"/>
				</g>
			</g>
			<g>
				<g>
					<path class="st7" d="M69.9,237.7c4.3,2.3,8.8,4.3,13.5,6c3.8,1.3,9.1,2,11.3,5.8c0.2,0.3,1,0,0.8-0.4
						c-2.1-3.6-6.7-4.3-10.3-5.5c-5.1-1.7-9.9-3.8-14.6-6.3C70.2,237.1,69.5,237.5,69.9,237.7L69.9,237.7z"/>
				</g>
			</g>
			<g>
				<g>
					<path class="st8" d="M78.3,256.3c-2.5-3.2-4.9-6.6-7.8-9.5c-2.8-2.9-6.1-5.4-9.5-7.7c-0.2-0.2-1,0.2-0.8,0.3
						c3.4,2.3,6.6,4.8,9.5,7.7c2.8,2.9,5.3,6.3,7.8,9.5C77.6,256.8,78.4,256.5,78.3,256.3L78.3,256.3z"/>
				</g>
			</g>
			<g>
				<g>
					<path class="st8" d="M49.2,240.3c5.3,0.7,10.7,0.6,16,1.1c5.5,0.5,10.5,2.3,15.1,5.4c0.2,0.2,1-0.2,0.7-0.4
						c-4.4-3-9.2-4.8-14.4-5.4c-5.6-0.6-11.2-0.5-16.8-1.2C49.5,239.8,48.7,240.2,49.2,240.3L49.2,240.3z"/>
				</g>
			</g>
			<g>
				<g>
					<path class="st8" d="M49.1,225.5c4.6,0.9,9.4,0.4,13.8,1.8c2.6,0.8,5.4,2,7.4,3.9c1.1,1,1.4,2.2,1.9,3.5
						c0.3,0.8,0.7,1.4,1.6,1.4c0.2,0,1-0.4,0.6-0.4c-1.4-0.1-1.5-2.2-2-3.1c-0.5-1-1.3-1.8-2.2-2.4c-2-1.5-4.6-2.7-7-3.4
						c-4.4-1.3-9.1-0.9-13.5-1.7C49.6,225.1,48.9,225.4,49.1,225.5L49.1,225.5z"/>
				</g>
			</g>
			<g>
				<g>
					<path class="st8" d="M75.1,247.2c4.5,0,9,0,13.5,0c2.1,0,4.3-0.1,6.4,0c1.7,0.1,3.5,0.3,4.4,2c0.2,0.3,1,0,0.8-0.4
						c-0.7-1.3-2.1-1.9-3.6-2.1c-2.1-0.3-4.2-0.1-6.3-0.1c-5,0-9.9,0-14.9,0C75,246.6,74.5,247.2,75.1,247.2L75.1,247.2z"/>
				</g>
			</g>
			<g>
				<g>
					<path class="st8" d="M46.5,238.3c6.2-1.2,12.8,2.1,17.9,5.4c2.8,1.8,5.5,3.9,8,6.1c1.2,1.1,2.4,2.2,3.5,3.4
						c1,1.1,1.9,2.3,3,3.3c1.5,1.4,3.5,1.4,5.4,1.5c2.6,0.2,5.3,0.5,7.9,0.7c0.4,0,0.9-0.6,0.3-0.6c-2.4-0.2-4.8-0.4-7.2-0.6
						c-2.4-0.2-4.7-0.1-6.4-2.1c-2-2.3-4-4.4-6.3-6.4c-5-4.4-10.8-8.4-17.2-10.5c-3-0.9-6.1-1.4-9.1-0.8
						C45.8,237.8,46,238.4,46.5,238.3L46.5,238.3z"/>
				</g>
			</g>
			<g>
				<g>
					<path class="st7" d="M52.2,241.4c2.4-0.2,4.7-0.6,6.9-1.3c2-0.6,4-1.2,6.1-1.5c2.5-0.3,5.4-0.1,7.7,0.9
						c1.7,0.7,2.8,3.1,4.9,2.6c0.5-0.1,0.4-0.7-0.1-0.5c-1.1,0.2-2.1-1.2-2.9-1.9c-0.9-0.7-2-1-3.2-1.3c-2.1-0.5-4.3-0.7-6.5-0.4
						c-1.9,0.2-3.7,0.8-5.5,1.3c-2.4,0.7-4.8,1.2-7.3,1.4C51.8,240.9,51.6,241.5,52.2,241.4L52.2,241.4z"/>
				</g>
			</g>
			<g>
				<g>
					<path class="st8" d="M85.3,240.9c4,0.5,7.6,3.3,9,7.1c0.1,0.3,1,0.1,0.9-0.2c-1.5-3.9-5.2-6.8-9.4-7.3c-0.2,0-0.5,0-0.6,0.2
						C85.1,240.7,85.1,240.9,85.3,240.9L85.3,240.9z"/>
				</g>
			</g>
			<g>
				<g>
					<path class="st8" d="M80.1,256.6c7.5-0.4,15-0.2,22.5,0.6c0.2,0,1-0.4,0.5-0.4c-7.5-0.8-15.1-1.1-22.7-0.6
						C80.2,256.2,79.5,256.6,80.1,256.6L80.1,256.6z"/>
				</g>
			</g>
			<g>
				<g>
					<path class="st7" d="M63.4,246.7c6.7-0.2,13.7-0.4,20.2,1.8c5.6,1.9,10.4,6,16.5,6.7c0.4,0,0.9-0.5,0.3-0.5
						c-6.4-0.7-11.5-5.2-17.5-7c-6.3-1.8-12.9-1.6-19.3-1.4C63.1,246.2,62.8,246.7,63.4,246.7L63.4,246.7z"/>
				</g>
			</g>
		</g>
		<polygon class="st10" points="12.1,190.6 77.4,157.9 75.2,215.2 11.7,248.1 		"/>
		<polygon class="st11" points="73.8,159.3 72.7,215.5 133.9,239.6 134.4,187.2 		"/>
		<polygon class="st12" points="136.6,191.8 68.7,156.8 73.9,154.4 142.8,188.9 		"/>
		<g>
			<g>
				<g>
					<path class="st7" d="M75.3,159.4c1,4.7,2.1,9.4,3.1,14.1c1,4.5,2.4,9.1,1.7,13.7c-0.6,4.3-2.7,8.3-4.5,12.3
						c-0.8,1.7-1.4,3.5-2.6,5c-0.9,1.1-1.9,2.2-2.8,3.3c-1.8,2.2-2.8,4.4-0.9,6.9c0.2,0.3,1,0,0.8-0.4c-2-2.7-0.4-4.9,1.5-7.1
						c0.9-1,1.9-2.1,2.6-3.2c1-1.5,1.7-3.3,2.4-5c1.6-3.6,3.4-7.2,4.1-11.2c0.8-4.3-0.3-8.6-1.2-12.8c-1.2-5.3-2.3-10.5-3.5-15.8
						C76.1,158.8,75.3,159,75.3,159.4L75.3,159.4z"/>
				</g>
			</g>
			<g>
				<g>
					<path class="st8" d="M68.6,169.4c4,6.6,4.8,14.4,4.5,21.9c-0.1,3.9-0.5,7.9-1,11.8c-0.5,3.2-2.1,5.9-3.9,8.6
						c-2,2.9-3.7,5.7-4.2,9.3c0,0.1,0.8,0,0.8-0.2c0.8-6.5,6.6-10.6,7.9-16.9c0.7-3.6,0.9-7.4,1.1-11.1c0.2-3.9,0.2-7.8-0.4-11.6
						c-0.6-4.2-1.9-8.3-4.1-12C69.3,169,68.5,169.3,68.6,169.4L68.6,169.4z"/>
				</g>
			</g>
			<g>
				<g>
					<path class="st8" d="M62.3,152.5c4.7,2.2,7,7.2,9,11.7c1.2,2.6,2.3,5.4,2.5,8.3c0.2,2.9-0.7,5.4-2.3,7.8
						c-2.6,4-5.9,7.5-5.4,12.7c0.2,2.3,1.2,4.6,2.5,6.5c1.4,2.1,3.6,3.5,4.9,5.6c0.5,0.8,1.2,2-0.1,2.2c-0.9,0.2-1.8,0.1-2.6,0.2
						c-1.1,0.1-2.6,0.3-3.1,1.4c-0.1,0.2,0.7,0.1,0.8-0.1c0.9-1.9,6.5,0.1,6.6-2.3c0-0.8-0.8-1.8-1.2-2.4c-0.8-1-1.8-1.9-2.7-2.8
						c-1.9-2-3.3-4.4-3.9-7s-0.3-5.2,0.8-7.6c1.1-2.3,2.8-4.3,4.2-6.4c1.3-2,2.3-4.2,2.4-6.7c0.1-3.1-1-6-2.2-8.8
						c-2.1-4.7-4.4-10.2-9.5-12.6C62.8,152.1,62.1,152.4,62.3,152.5L62.3,152.5z"/>
				</g>
			</g>
			<g>
				<g>
					<path class="st8" d="M81.7,170.4c-3.9,1.1-7.8,2.3-11.6,3.7c-1.4,0.5-3.5,0.9-4.7,2c-1.1,1.1-0.6,2.7-0.3,4
						c1,3.6,2.6,7.1,4.4,10.4c1,1.7,2,3.4,3.2,5.1c0.5,0.8,1.2,1.6,1.5,2.5c0.5,1.4-0.6,2.3-1.5,3.1c-1.7,1.6-3.5,3.1-5.2,4.7
						c-1,0.9-2,2.3-1.2,3.7c0.1,0.2,1,0,0.8-0.3c-1.3-2.1,2.8-4.7,4.1-5.8c0.8-0.7,1.6-1.5,2.5-2.2c0.6-0.5,1.3-1.1,1.6-1.9
						c0.5-1.8-1.4-3.7-2.3-5c-1.3-2-2.6-4.1-3.7-6.2c-1-2-1.9-4.1-2.7-6.3c-0.3-1-0.6-1.9-0.8-2.9c-0.4-1.7,0.1-2.8,1.8-3.4
						c4.7-1.8,9.5-3.3,14.3-4.7C82.3,170.7,82.2,170.3,81.7,170.4L81.7,170.4z"/>
				</g>
			</g>
			<g>
				<g>
					<path class="st8" d="M65.1,145.1c5.1,1.6,5,7.9,3.8,12c-1.4,5.2-3,10.3-3.6,15.8c-0.3,2.5-0.5,5-0.5,7.5c0,1.3,0,2.7,0.1,4
						c0,1,0.1,2,0.7,2.9c1.2,1.6,3.5,1.3,5.2,1.8c2,0.7,3.5,2.3,4.3,4.1c2.5,5.2-0.3,10.8-3.2,15.2c-0.2,0.3,0.6,0.2,0.8,0
						c2.6-3.8,5.1-8.4,4.1-13.2c-0.4-1.9-1.3-3.7-2.7-5c-1.4-1.3-3.1-1.7-5-2c-1.3-0.2-2.5-0.6-3-2c-0.4-1.1-0.3-2.5-0.3-3.7
						c-0.1-3,0.1-5.9,0.4-8.8c0.6-5.7,2.1-11,3.6-16.5c1.2-4.4,1.4-10.9-3.9-12.5C65.5,144.6,64.7,145,65.1,145.1L65.1,145.1z"/>
				</g>
			</g>
			<g>
				<g>
					<path class="st8" d="M83.8,175.2c-3.7,0.5-6.9,2.9-10.6,3.3c-1.9,0.2-4-0.2-5.4-1.7c-1.1-1.2-1.7-3-3.2-3.8
						c-2.8-1.5-4.3,1.4-5,3.6c-1.2,3.8-1.8,7.8-2.4,11.8c-0.7,4.5-1.4,9-3,13.2c-0.1,0.3,0.7,0.2,0.8-0.1c1.7-4.5,2.4-9.2,3.1-13.9
						c0.4-2.4,0.7-4.7,1.2-7c0.5-2.1,0.9-4.7,2.1-6.5c2.1-3.3,4.5,1.9,5.7,3.1c1.1,1.2,2.7,1.6,4.3,1.7c4.4,0.2,7.9-2.7,12.1-3.3
						C84,175.6,84.3,175.1,83.8,175.2L83.8,175.2z"/>
				</g>
			</g>
			<g>
				<g>
					<path class="st8" d="M70.4,164c0.1,8.6,0.4,17.2,0.4,25.8c0.1,8.3-0.5,16.4-2.5,24.5c-1.1,4.5-2.5,9-4,13.4
						c-0.1,0.3,0.7,0.2,0.8-0.1c2.5-7.8,5-15.7,5.9-23.9c1-8.3,0.5-16.8,0.4-25.1c-0.1-4.9-0.2-9.8-0.3-14.7
						C71.3,163.6,70.4,163.7,70.4,164L70.4,164z"/>
				</g>
			</g>
			<g>
				<g>
					<path class="st8" d="M60.4,189.5c1.6,9.1,7.9,17.1,7.5,26.6c-0.1,2.4-0.8,4.6-1.6,6.9c-0.4,1.1-0.8,2.2-1,3.4
						c-0.2,0.8-0.4,1.2-1.3,1.3c-1,0.1-4.5-0.3-4.2,1.6c0,0.2,0.9,0,0.8-0.2c-0.2-1.3,2.2-0.9,3-1c0.7-0.1,1.7-0.2,2.2-0.9
						c0.4-0.5,0.4-1.2,0.6-1.8c0.3-1.1,0.7-2.2,1.1-3.3c0.7-2,1.2-4,1.3-6.1c0.4-9.5-5.8-17.5-7.5-26.6
						C61.2,189,60.4,189.2,60.4,189.5L60.4,189.5z"/>
				</g>
			</g>
			<g>
				<g>
					<path class="st8" d="M54.8,140.3c0.8,3.5,3.8,6,6.3,8.4s5.7,5.1,5.9,8.8c0.2,2.8-0.7,5.6-1.6,8.2c-0.9,2.5-1.8,5-3,7.4
						s-2.6,4.7-4.3,6.7c-0.8,1-1.8,1.8-2.7,2.7c-0.7,0.7-1.4,1.4-1.5,2.5c-0.2,1.5,0.6,3,1.2,4.3s1.3,2.6,2,3.9
						c1.5,2.7,3.3,5.2,5.3,7.6c0.1,0.2,0.9-0.1,0.8-0.3c-1.9-2.3-3.5-4.7-5-7.2c-1.3-2.2-2.8-4.7-3.4-7.3c-0.6-2.9,2.5-4.5,4.1-6.4
						s3-4,4.1-6.3c1.2-2.4,2.2-4.9,3.1-7.4c0.9-2.4,1.6-4.9,1.8-7.5c0.3-3.8-2-6.5-4.6-9c-2.9-2.8-6.6-5.5-7.6-9.6
						C55.6,139.9,54.8,140.1,54.8,140.3L54.8,140.3z"/>
				</g>
			</g>
			<g>
				<g>
					<path class="st8" d="M71.5,157.3c1.4,4.3-0.1,8.8-1.3,12.9c-1.2,4.2-2.6,8.4-4.2,12.5c-0.8,2.2-1.7,4.4-2.6,6.5
						c-0.4,1-0.9,2-1.3,3c-0.4,0.8-0.9,1.7-1,2.6c-0.3,1.8,1.2,3.5,2.1,5c1.2,1.9,2.4,3.8,3.6,5.8c0.2,0.3,1,0,0.8-0.3
						c-1.2-1.9-2.4-3.8-3.6-5.8c-0.6-1-1.4-2-1.9-3.1c-0.5-1.3,0.1-2.5,0.6-3.7c1.7-3.8,3.3-7.6,4.7-11.4c1.5-4,2.8-8,4-12.1
						c1.1-3.9,2.3-8.1,1-12.1C72.2,156.7,71.4,157,71.5,157.3L71.5,157.3z"/>
				</g>
			</g>
			<g>
				<g>
					<path class="st8" d="M58.3,159.2c3.3,7.7,6.6,15.5,7.8,23.8c0.6,4.1,0.5,8.3-0.4,12.4c-0.9,4-2.6,7.8-3.5,11.8
						s-0.9,8.2,1.2,11.8c0.1,0.2,0.9,0,0.8-0.2c-4.3-7.3,0.3-15.5,2.1-22.9c1.9-7.9,0.5-16.1-2-23.7c-1.5-4.5-3.3-8.9-5.2-13.3
						C59,158.8,58.2,159,58.3,159.2L58.3,159.2z"/>
				</g>
			</g>
			<g>
				<g>
					<path class="st8" d="M53.3,187.6c3.6,7.3,1.8,15.6,3.2,23.3c1.3,6.9,5.9,12.4,8.5,18.8c0.1,0.3,0.9,0,0.8-0.2
						c-2.6-6.4-7.2-11.9-8.5-18.8c-1.4-7.7,0.4-16-3.2-23.3C53.9,187.1,53.1,187.3,53.3,187.6L53.3,187.6z"/>
				</g>
			</g>
			<g>
				<g>
					<path class="st8" d="M78.5,163.1c-5,6.7-10.2,13.7-12.7,21.8c-1.4,4.5-1.5,9-1.4,13.7c0.1,4.5,0.1,8.9-1.1,13.2
						c-1.3,4.9-3.7,9.5-7,13.4c-0.3,0.4,0.5,0.4,0.7,0.2c5.6-6.6,8.4-14.9,8.4-23.5c0-4.8-0.5-9.5,0.6-14.2c0.9-4.3,2.8-8.4,5-12.2
						c2.5-4.3,5.5-8.3,8.4-12.2C79.5,162.8,78.7,162.8,78.5,163.1L78.5,163.1z"/>
				</g>
			</g>
			<g>
				<g>
					<path class="st9" d="M54.6,142c-3.7,8.1,3.9,15.5,3.8,23.5c0,5.2-1.4,10.6-2.7,15.6c-1.4,5.1-2.9,10.2-4.1,15.3
						c-1.3,5.7-2.1,11.5-1.7,17.3c0,0.4,0.9,0.2,0.8-0.2c-0.8-10.6,2.6-20.7,5.3-30.8c1.4-5,2.6-10.1,3.1-15.3
						c0.4-4.3-0.8-8.1-2.4-12.1c-1.7-4.3-3.4-8.8-1.3-13.3C55.6,141.6,54.8,141.6,54.6,142L54.6,142z"/>
				</g>
			</g>
			<g>
				<g>
					<path class="st7" d="M74.7,164.3c4.3,8.8,4.3,19.5-0.3,28.2c-2.3,4.4-5.7,8.1-8.7,12.1c-3,3.9-5.3,8.2-6.8,12.9
						c-1.6,5.2-2,10.7-1.3,16c0,0.3,0.9,0.1,0.8-0.2c-1.3-10.3,1.7-20.3,7.9-28.5c3-4,6.4-7.7,8.8-12.1c2.2-4.1,3.5-8.7,3.6-13.4
						c0.2-5.2-0.9-10.5-3.2-15.2C75.4,163.8,74.6,164.1,74.7,164.3L74.7,164.3z"/>
				</g>
			</g>
			<g>
				<g>
					<path class="st8" d="M62.6,148.4c1.2,2.7,2.5,5.5,3,8.5c0.6,3.1,0,6-1.5,8.8c-1.2,2.2-2.4,4.2-2.7,6.8c-0.3,2.3-0.2,5-2.3,6.6
						c-0.2,0.1,0.6,0,0.8-0.1c1.8-1.3,2-3.5,2.3-5.5c0.2-1.4,0.3-2.8,0.8-4.1s1.3-2.6,2-3.8c1.4-2.6,2-5.3,1.6-8.2
						c-0.4-3.2-1.8-6.2-3.1-9.1C63.3,148,62.5,148.3,62.6,148.4L62.6,148.4z"/>
				</g>
			</g>
			<g>
				<g>
					<path class="st8" d="M61,150.6c-0.7,4.2-3.3,7.6-5.4,11.2c-2.1,3.7-3.2,7.8-3.8,12c-0.7,4.5-1.2,9.2-1.2,13.7
						c0,4.1,1,8.3,4.3,11c0.2,0.1,0.9-0.2,0.8-0.3c-3.5-2.9-4.3-7.6-4.2-11.9c0.1-4.5,0.6-9.1,1.3-13.6c0.7-4.2,2-8.2,4.1-11.8
						c2-3.4,4.3-6.6,5-10.6C61.9,150.3,61.1,150.3,61,150.6L61,150.6z"/>
				</g>
			</g>
			<g>
				<g>
					<path class="st8" d="M83.1,160.6c-2,0.9-2.4,4.1-2.7,6c-0.6,3.7-0.8,7.4-1.1,11.1c-0.2,1.7-0.4,3.4-0.8,5
						c-0.2,1.1-0.5,2.4-1.3,3.2c-0.5,0.6-1.3,0.6-2.1,0.7c-1.2,0.3-2.5,0.6-3.6,1.2c-2.5,1.2-3.7,3.3-4.2,6
						c-1.5,8-2.2,16.2-2.9,24.2c0,0.3,0.8,0.1,0.8-0.1c0.6-7,1.4-14.1,2.4-21.1c0.5-3.2,0.7-6.9,4-8.6c1.2-0.7,2.6-1,4-1.3
						c0.6-0.1,1.3-0.2,1.8-0.6c1.8-1.2,2.1-4.4,2.3-6.4c0.5-3.6,0.7-7.2,1.1-10.8c0.2-1.8,0.4-3.5,0.8-5.2c0.2-1,0.6-2.7,1.7-3.1
						C83.9,160.7,83.4,160.5,83.1,160.6L83.1,160.6z"/>
				</g>
			</g>
			<g>
				<g>
					<path class="st7" d="M58.9,147c0.8,2.4,1.6,4.7,2.4,7.1c0.8,2.3,1.8,4.7,2.3,7.1c0.4,2.3-0.4,4.5-0.5,6.8
						c-0.1,2.5,0.5,5,1.1,7.4c0.1,0.3,0.9,0,0.8-0.2c-0.6-2.3-1.1-4.7-1.1-7.2c0-2.4,0.9-4.6,0.5-7c-0.4-2.3-1.4-4.6-2.2-6.9
						c-0.8-2.4-1.6-4.9-2.4-7.3C59.7,146.5,58.9,146.8,58.9,147L58.9,147z"/>
				</g>
			</g>
			<g>
				<g>
					<path class="st8" d="M56,186.2c-0.2,6.3-1.5,12.4-3.9,18.2c-0.1,0.3,0.7,0.2,0.8-0.1c2.4-5.8,3.6-12,3.8-18.2
						C56.8,185.8,56,185.9,56,186.2L56,186.2z"/>
				</g>
			</g>
			<g>
				<g>
					<path class="st7" d="M63.4,183.3c-1,5.9-1.6,11.8-1.7,17.7c-0.1,4.7,1.2,11-2.3,14.8c-0.3,0.4,0.4,0.5,0.7,0.2
						c3.4-3.8,2.4-9.5,2.4-14.2c0-6.3,0.6-12.5,1.7-18.7C64.3,182.8,63.4,182.9,63.4,183.3L63.4,183.3z"/>
				</g>
			</g>
			<g>
				<g>
					<path class="st8" d="M45.6,199.1c7.1-10.5,12.5-22,16-34.1c0.1-0.3-0.7-0.2-0.8,0.1c-3.5,12.1-8.9,23.6-15.9,34
						C44.6,199.4,45.4,199.4,45.6,199.1L45.6,199.1z"/>
				</g>
			</g>
			<g>
				<g>
					<path class="st8" d="M55.6,152.8c2.9,15,5.8,30.8,1.4,45.8c-0.1,0.2,0.8,0.1,0.8-0.1c4.4-15.1,1.5-30.9-1.4-45.9
						C56.4,152.4,55.5,152.6,55.6,152.8L55.6,152.8z"/>
				</g>
			</g>
			<g>
				<g>
					<path class="st8" d="M72.3,147.2c1,8,1.2,16.1,0.5,24.1c-0.3,3.3-0.4,7.1-1.9,10.2c-0.7,1.5-1.9,2.3-3.1,3.4
						c-0.8,0.7-1.4,1.4-1.1,2.5c0.1,0.4,0.9,0.2,0.8-0.2c-0.4-1.6,1.7-2.5,2.6-3.3c1-0.9,1.6-2.2,2-3.4c1.1-3.2,1.3-6.8,1.6-10.1
						c0.6-7.8,0.4-15.6-0.6-23.3C73.1,146.6,72.3,146.8,72.3,147.2L72.3,147.2z"/>
				</g>
			</g>
			<g>
				<g>
					<path class="st8" d="M51.8,208.9c1.9,4.9,3.8,9.8,5.8,14.7c1,2.5,1.9,4.8,0.7,7.3c-0.8,1.7-2,3.1-2.4,5
						c-0.1,0.4,0.8,0.3,0.8-0.1c0.4-2.1,2-3.7,2.7-5.7c0.8-2.2,0-4.3-0.8-6.4c-2-5-4-10.1-5.9-15.1
						C52.5,208.3,51.7,208.5,51.8,208.9L51.8,208.9z"/>
				</g>
			</g>
			<g>
				<g>
					<path class="st8" d="M54.6,192.7c1.7,5.1,3.4,10.2,5.1,15.3c0.8,2.4,1.7,4.8,2.4,7.2c0.6,2,1.1,4.4-0.5,6.1
						c-0.2,0.2,0.6,0.1,0.8,0c1.3-1.4,1.3-3.3,0.9-5c-0.6-2.5-1.6-5-2.4-7.5c-1.8-5.4-3.6-10.8-5.4-16.2
						C55.3,192.2,54.5,192.5,54.6,192.7L54.6,192.7z"/>
				</g>
			</g>
			<g>
				<g>
					<path class="st8" d="M46.9,163.4c3.5,6,5,13,4.5,19.9c-0.2,3.5-1,7-2.2,10.2c-0.6,1.6-1.4,3.2-2.2,4.7c-0.9,1.4-1.9,2.8-2,4.5
						c-0.1,2.2,0.8,4.5,1.3,6.6c0.6,2.4,1.1,4.8,1.7,7.2c0,0.2,0.9-0.1,0.8-0.2c-1-4.1-2.2-8.2-2.9-12.3c-0.4-2.1,0.4-3.7,1.5-5.4
						c0.9-1.5,1.7-3,2.3-4.6c2.5-6.2,3.2-13.2,2-19.8c-0.7-3.9-2.1-7.6-4-11C47.6,163,46.8,163.3,46.9,163.4L46.9,163.4z"/>
				</g>
			</g>
			<g>
				<g>
					<path class="st7" d="M55.4,156.4c2.5,6.3,4.5,12.9,5.7,19.6c0.6,3.3,1.1,6.6,1.3,10c0.1,2-0.4,3.3-1.2,5
						c-0.4,1-0.6,1.8-0.1,2.8c0.1,0.2,1,0,0.8-0.3c-0.8-1.4,0.4-2.9,0.9-4.2s0.5-2.6,0.3-3.9c-0.3-3.3-0.7-6.7-1.4-10
						c-1.2-6.5-3.1-12.9-5.6-19.1C56.1,155.8,55.3,156.1,55.4,156.4L55.4,156.4z"/>
				</g>
			</g>
			<g>
				<g>
					<path class="st8" d="M65.6,202c1,4.8-0.8,9.9-4.6,13c-0.4,0.3,0.5,0.3,0.7,0.1c3.9-3.2,5.8-8.4,4.8-13.3
						C66.3,201.5,65.5,201.7,65.6,202L65.6,202z"/>
				</g>
			</g>
			<g>
				<g>
					<path class="st8" d="M45.8,202c3.3,8.4,6,17,7.8,25.9c0,0.2,0.9,0,0.8-0.2c-1.9-8.8-4.5-17.5-7.8-25.9
						C46.5,201.5,45.7,201.8,45.8,202L45.8,202z"/>
				</g>
			</g>
			<g>
				<g>
					<path class="st8" d="M46.8,207.7c3.1,4.8,5.7,9.8,7.9,15.1c1,2.5,2,5,2.8,7.6c0.4,1.4,0.9,2.7,1.2,4.1c0.2,0.8,0.4,1.7,1.3,1.9
						c0.3,0.1,1-0.4,0.5-0.5c-1-0.2-1.3-3-1.6-3.8c-0.4-1.3-0.8-2.6-1.3-3.9c-0.9-2.5-1.8-4.9-2.9-7.3c-2.1-4.7-4.5-9.2-7.3-13.6
						C47.3,207,46.5,207.3,46.8,207.7L46.8,207.7z"/>
				</g>
			</g>
			<g>
				<g>
					<path class="st8" d="M61.3,204.9c-5.1,0.6-8.9,4.2-11.4,8.5c-1.4,2.5-2.6,5.3-3.4,8.1c-0.8,2.7-1.1,5.5,0.2,8.1
						c0.1,0.2,0.9-0.1,0.8-0.2c-2.2-4.6,0.2-10.1,2.2-14.3c2.2-4.7,5.9-9.3,11.4-9.9C61.5,205.1,61.9,204.8,61.3,204.9L61.3,204.9z"
						/>
				</g>
			</g>
			<g>
				<g>
					<path class="st8" d="M60.1,213.6c-1.2,3.8-1.8,7.8-1.7,11.8c0.1,3.8,1.1,8-0.9,11.6c-0.2,0.4,0.6,0.3,0.8,0
						c1.8-3.3,1.1-7,1-10.5c-0.2-4.4,0.4-8.8,1.7-13C61,213.2,60.2,213.3,60.1,213.6L60.1,213.6z"/>
				</g>
			</g>
			<g>
				<g>
					<path class="st7" d="M50.7,179.1c2.7,7.1,5.4,14.5,5.7,22.2c0.3,7.6-3,15.2-1.3,22.7c0,0.2,0.9,0,0.8-0.2
						c-1.7-7.6,1.6-15.1,1.3-22.7c-0.3-7.7-3-15-5.7-22.2C51.4,178.7,50.6,179,50.7,179.1L50.7,179.1z"/>
				</g>
			</g>
		</g>
		<g>
			<g>
				<g>
					<path class="st7" d="M70.1,214.1c4.6,0.5,9.2,1,13.9,1.5c4.4,0.5,9.1,0.5,13.2,2.4c7.1,3.2,11.4,10.3,18.3,13.9
						c3.5,1.8,7.5,2.7,11.3,1.5c0.6-0.2,0.5-0.9-0.2-0.7c-8.1,2.7-15.1-4.5-20.5-9.4c-2.5-2.3-5.2-4.5-8.4-5.9
						c-3.7-1.6-7.9-1.8-11.8-2.2c-5.1-0.5-10.2-1.1-15.3-1.6C70,213.4,69.4,214,70.1,214.1L70.1,214.1z"/>
				</g>
			</g>
			<g>
				<g>
					<path class="st8" d="M77.7,223.6c9.3-2.1,18.6,1.1,27.1,4.7c8.7,3.8,17.3,8,25.9,12c0.4,0.2,1.3-0.3,0.8-0.6
						c-9.1-4.2-18.1-8.7-27.3-12.6c-8.4-3.6-17.5-6.3-26.7-4.2C76.9,223.1,77.1,223.8,77.7,223.6L77.7,223.6z"/>
				</g>
			</g>
			<g>
				<g>
					<path class="st8" d="M65.6,228.4c1.2-1.3,2-2.8,2.7-4.4c0.7-1.5,1.5-3.3,3.1-4.1c1.1-0.6,2.5-0.5,3.8-0.6s2.6-0.1,3.8-0.1
						c2.5,0.2,4.9,0.8,6.9,2.3c3.2,2.5,4.8,6.5,7.8,9.2c3.1,2.7,7.4,3.4,11.4,2.5c2.4-0.5,4.3-1.7,6.5-2.6c3.5-1.5,6.1,0.2,8.8,2.4
						c0.2,0.2,1.2-0.2,1-0.4c-1.8-1.4-3.7-3-6.1-3.1c-2.2-0.2-4.2,0.9-6.1,1.9c-4.9,2.5-10.9,2.6-15-1.5c-3.2-3.2-5-7.9-9.3-9.9
						c-2.1-1-4.4-1.3-6.6-1.3c-2.1,0-4.5,0-6.6,0.6c-4,1.3-4.6,6.3-7.1,9.2C64.4,228.7,65.4,228.6,65.6,228.4L65.6,228.4z"/>
				</g>
			</g>
			<g>
				<g>
					<path class="st8" d="M82.4,211.7c-0.2,4.2-0.3,8.4-0.2,12.5c0,1.5-0.3,3.8,0.8,5c0.9,1,2.6,1,3.9,1.1c4,0.2,7.9-0.3,11.8-1.1
						c2-0.4,4-0.9,6-1.5c1.2-0.3,2.5-0.7,3.4,0.4c0.6,0.9,1,2.1,1.4,3.1c0.8,1.8,1.5,3.8,2.5,5.6c0.7,1.2,1.7,2,3.1,1.7
						c0.6-0.2,0.5-0.7-0.2-0.6c-1.2,0.3-2-1.4-2.4-2.2c-0.5-1.1-1-2.3-1.5-3.5c-0.4-1-0.9-2-1.3-3c-0.3-0.7-0.6-1.6-1.3-2.1
						c-1.4-1-3.2-0.2-4.6,0.2c-2.5,0.7-5,1.3-7.5,1.7s-5.1,0.7-7.6,0.6c-1.1,0-2.2,0-3.3-0.2c-1.4-0.3-1.9-1.2-2-2.5
						c-0.4-5.1-0.2-10.3,0.1-15.4C83.5,211.2,82.4,211.4,82.4,211.7L82.4,211.7z"/>
				</g>
			</g>
			<g>
				<g>
					<path class="st8" d="M59.4,223.4c1.1-1.6,2.9-2.3,4.8-2.3c1.1,0,2.2,0.5,3.4,0.5c0.3,0,1-0.1,1.1-0.4c0.1-0.2-0.2-0.6-0.1-0.7
						c-0.3,0.1-0.6,0.2-0.9,0.3c0.4,0,1.3,0.9,1.6,1.1c0.9,0.6,1.7,1.2,2.6,1.7c1.8,1.1,3.6,2.1,5.4,3.1c3.6,1.8,7.3,3.4,11.1,4.6
						c2.7,0.9,5.8,1.9,7.5-1.1c0.9-1.5,1.5-3.1,3.1-4.1c1.7-1.2,3.9-1.4,5.9-1.1c4.4,0.8,7.8,4.4,10.4,7.8c0.2,0.3,1.1-0.2,1-0.3
						c-3-3.9-6.8-7.9-12-8.1c-1.9-0.1-3.8,0.3-5.5,1.2c-1.9,1-2.8,2.6-3.8,4.5c-0.5,0.9-1,1.7-2.2,1.7c-0.8,0-1.7-0.3-2.4-0.6
						c-1.5-0.4-3-0.9-4.4-1.5c-3-1.1-5.9-2.4-8.6-3.9c-2.6-1.4-5.1-2.9-7.6-4.6c-0.3-0.2-2-1.6-2.4-0.5c0,0.1,0.1,0.3,0.1,0.4
						c0,0.1,0,0.1,0,0.2c0.5-0.1,0.5-0.2,0-0.2c-0.2,0-0.3-0.1-0.5-0.1c-1.1-0.3-2.3-0.4-3.5-0.3c-2.1,0.2-4.1,1.1-5.3,2.8
						C58.3,223.7,59.2,223.7,59.4,223.4L59.4,223.4z"/>
				</g>
			</g>
			<g>
				<g>
					<path class="st8" d="M87.5,211.4c-0.7,3.8,0.6,7.7-0.3,11.5c-0.5,1.8-1.5,3.6-3.2,4.3c-1.5,0.6-3.3,0.7-4.5,1.9
						c-2.8,2.6,1.6,5.3,3.6,6.6c3,1.9,6.1,3.5,9.3,5.1c3.8,1.9,7.6,4,11,6.7c0.3,0.2,1.2-0.2,1-0.4c-5.5-4.5-12.2-7-18.2-10.5
						c-2-1.2-9.8-5.5-4.9-7.9c1.5-0.7,3.2-0.7,4.6-1.7c1-0.8,1.8-1.9,2.2-3.1c1.5-4-0.1-8.3,0.6-12.5
						C88.7,210.9,87.6,211,87.5,211.4L87.5,211.4z"/>
				</g>
			</g>
			<g>
				<g>
					<path class="st8" d="M72.9,220.3c8.3,2.6,16.5,5.1,24.8,7.8c7.9,2.6,15.4,5.7,22.5,10.2c3.9,2.5,7.6,5.1,11.2,7.8
						c0.4,0.3,1.3-0.3,0.8-0.6c-6.5-4.7-13-9.4-20.3-12.9c-7.6-3.7-15.9-5.9-23.9-8.5c-4.8-1.5-9.7-3-14.5-4.6
						C73,219.4,72.3,220.1,72.9,220.3L72.9,220.3z"/>
				</g>
			</g>
			<g>
				<g>
					<path class="st8" d="M50.9,224.9c3.3,0.3,5.8-1,8.6-2.6c1.5-0.9,3-1.5,4.8-1.2c2.5,0.3,4.9,1.8,6.9,3.3
						c3.8,2.7,7.5,5.8,10.4,9.4c1.5,1.9,2.8,3.9,3.8,6.1c0.9,1.9,1.9,3.2,4.2,3.2c2.6,0.1,5.4-0.5,8-1c2.8-0.6,5.6-1.4,8.4-2.5
						c0.7-0.3,0-0.5-0.4-0.3c-2.6,1-5.2,1.8-7.9,2.4c-1.3,0.3-2.6,0.5-3.9,0.7c-1.4,0.2-3,0.5-4.4,0.3c-2.5-0.4-3.1-3.5-4.2-5.5
						c-1.1-1.8-2.3-3.5-3.8-5.1c-3-3.3-6.6-6.3-10.3-8.7c-2.8-1.8-6.2-3.4-9.6-2.3c-1.4,0.4-2.6,1.2-3.9,1.9c-1.9,1.1-3.8,1.8-6,1.6
						C51.3,224.3,50.4,224.8,50.9,224.9L50.9,224.9z"/>
				</g>
			</g>
			<g>
				<g>
					<path class="st8" d="M66.8,217.1c4.6,0.1,8.4,3,12,5.5c3.7,2.6,7.3,5.3,10.7,8.1c1.8,1.5,3.5,2.9,5.2,4.5
						c0.9,0.8,1.7,1.6,2.6,2.3c0.6,0.6,1.3,1.3,2.1,1.6c1.5,0.6,3.3-0.1,4.8-0.5c2.4-0.6,4.7-1.1,7.1-1.7c0.6-0.2,0.5-0.8-0.2-0.6
						c-2.2,0.5-4.4,1.1-6.6,1.6c-1.1,0.3-2.3,0.7-3.5,0.8c-1.5,0-2.4-1.1-3.4-2c-3.1-2.9-6.3-5.6-9.6-8.2c-3.4-2.7-6.9-5.3-10.5-7.7
						c-3.2-2.1-6.6-4.2-10.6-4.3C66.8,216.4,66.1,217.1,66.8,217.1L66.8,217.1z"/>
				</g>
			</g>
			<g>
				<g>
					<path class="st8" d="M64.7,230.2c8.2-0.7,16.6-1.4,24.7,0.1c4,0.8,8,2.1,11.5,4.2c3.6,2.1,6.7,5,10.3,7.1
						c3.6,2.2,7.8,3.5,12,2.6c0.6-0.1,0.5-0.8-0.2-0.6c-8.9,1.9-15.6-6.6-22.6-10.4c-6.8-3.6-14.7-4.5-22.3-4.5
						c-4.5,0-8.9,0.4-13.3,0.8C64.2,229.6,64,230.3,64.7,230.2L64.7,230.2z"/>
				</g>
			</g>
			<g>
				<g>
					<path class="st8" d="M61.3,227.2c2.1-0.3,3.6-1.2,5.2-2.4c0.6-0.4,1.2-0.9,2-0.8c1.3,0.1,2.4,1.4,3.3,2.2
						c1.9,1.9,3.4,3.9,5.8,5.2c2.1,1,4.9,1.8,5.7,4.3c0.2,0.5,1.2,0.2,1-0.3c-0.7-2.3-3.1-3.3-5.1-4.2c-1.5-0.7-2.8-1.5-4-2.6
						c-1.1-1.1-2-2.3-3.1-3.3c-1.4-1.3-3.2-2.6-5.1-1.6c-0.8,0.4-1.4,0.9-2,1.4c-1.1,0.8-2.3,1.3-3.6,1.5
						C60.8,226.5,60.6,227.3,61.3,227.2L61.3,227.2z"/>
				</g>
			</g>
			<g>
				<g>
					<path class="st8" d="M62.5,229.2c1,0.5,2.1,1,2.5,2.2c0.3,1.2,0.9,2,1.8,2.9c3.1,3.2,7,5.4,11,7.4c4,1.9,8.2,4,12.5,5.1
						c3.7,1,7.7,0.8,11.1-1.2c0.4-0.3-0.6-0.2-0.8,0c-4.3,2.6-9.5,1.1-13.7-0.7c-3.8-1.5-7.5-3.2-11.1-5.1c-3.2-1.7-6.9-4-9-7.1
						c-0.4-0.7-0.5-1.4-0.8-2c-0.4-0.9-1.6-1.4-2.4-1.8C63.2,228.7,62.3,229.1,62.5,229.2L62.5,229.2z"/>
				</g>
			</g>
			<g>
				<g>
					<path class="st8" d="M73.5,207.3c0.2,2.2,3.5,3.6,5.1,4.4c3.3,1.7,6.7,3,10.1,4.5c1.5,0.7,3.1,1.4,4.5,2.3
						c0.9,0.6,2.1,1.3,2.5,2.3c0.3,0.7,0,1.6-0.1,2.3c-0.1,1.4-0.2,2.8,0.1,4.1c0.5,2.8,2.6,4.4,5,5.6c7,3.6,14.2,7,21.4,10.1
						c0.4,0.2,1.2-0.4,0.6-0.7c-6.5-2.8-12.9-5.8-19.2-8.9c-2.7-1.4-5.9-2.6-6.7-5.8c-0.4-1.5-0.3-3-0.2-4.5
						c0.1-0.7,0.3-1.6,0.1-2.3c-0.6-2.2-3.9-3.5-5.6-4.3c-3.2-1.6-6.5-2.9-9.8-4.4c-1.6-0.7-3.3-1.5-4.8-2.5c-0.9-0.6-2-1.4-2.1-2.5
						C74.5,206.6,73.5,206.8,73.5,207.3L73.5,207.3z"/>
				</g>
			</g>
			<g>
				<g>
					<path class="st7" d="M58.6,230.1c1.3,0,2.6-0.4,3.5-1.4c1.2-1.3,1.5-3.1,3.6-3.1c1.6,0,3.1,0.1,4.6,0.8
						c1.2,0.6,2.4,1.3,3.7,1.8c2.5,0.9,5.1,1.1,7.7,1.4c0.2,0,1.2-0.4,0.7-0.4c-3-0.3-6-0.5-8.7-1.9c-1.1-0.5-2.2-1.2-3.4-1.6
						c-1.3-0.4-2.6-0.5-3.9-0.5s-2.7,0.3-3.6,1.3c-1.1,1.2-1.5,3.1-3.5,3.2C59,229.7,58.1,230.1,58.6,230.1L58.6,230.1z"/>
				</g>
			</g>
			<g>
				<g>
					<path class="st8" d="M89.2,240.9c5.9,2.1,11.3,5.3,16,9.3c0.2,0.2,1.2-0.2,1-0.4c-4.8-4.1-10.2-7.3-16.1-9.4
						C89.8,240.3,88.9,240.7,89.2,240.9L89.2,240.9z"/>
				</g>
			</g>
			<g>
				<g>
					<path class="st7" d="M88.7,232.9c5.2,2.8,10.7,5.2,16.3,7.2c4.5,1.6,10.8,2.4,13.4,6.9c0.2,0.3,1.1-0.1,1-0.3
						c-2.5-4.3-8-5.2-12.3-6.6c-6-2-11.9-4.6-17.5-7.6C89.4,232.3,88.6,232.8,88.7,232.9L88.7,232.9z"/>
				</g>
			</g>
			<g>
				<g>
					<path class="st8" d="M98.9,255.1c-7.7-10-16.9-18.7-27.3-25.9c-0.3-0.2-1.2,0.2-1,0.4c10.4,7.1,19.6,15.9,27.3,25.9
						C98.1,255.7,99.1,255.4,98.9,255.1L98.9,255.1z"/>
				</g>
			</g>
			<g>
				<g>
					<path class="st8" d="M63.2,235.3c6.6,0.9,13.3,0.9,19.8,1.8c6.7,0.9,12.8,3,18.3,6.9c0.4,0.3,1.3-0.3,0.8-0.6
						c-5.5-3.8-11.5-6-18.1-6.9c-6.8-1-13.7-1-20.5-1.9C63,234.4,62.5,235.2,63.2,235.3L63.2,235.3z"/>
				</g>
			</g>
			<g>
				<g>
					<path class="st8" d="M63,217.5c5.8,1.1,11.9,1,17.5,2.9c3.1,1.1,6.7,2.5,9.1,4.9c1.2,1.2,1.6,2.6,2.2,4.1c0.4,0.9,1,1.7,2,1.7
						c0.4,0,1.1-0.6,0.4-0.6c-1.5,0-1.8-2.8-2.3-3.8c-0.6-1.1-1.5-2-2.5-2.8c-2.5-1.9-5.6-3.2-8.6-4.2c-5.5-1.8-11.5-1.7-17.2-2.8
						C63.3,216.9,62.4,217.4,63,217.5L63,217.5z"/>
				</g>
			</g>
			<g>
				<g>
					<path class="st8" d="M95.2,244.3c5.3,0,10.6,0,15.9,0c2.6,0,5.2-0.1,7.8,0c2,0.1,4.2,0.4,5.2,2.3c0.2,0.4,1.2,0,1-0.5
						c-0.9-1.6-2.6-2.2-4.3-2.5c-2.5-0.4-5.1-0.1-7.7-0.1c-6,0-11.9,0-17.9,0C94.7,243.6,94.5,244.3,95.2,244.3L95.2,244.3z"/>
				</g>
			</g>
			<g>
				<g>
					<path class="st7" d="M60.9,231.9c7.2-0.4,14.5-0.1,21.6,1c1.7,0.3,3.4,0.6,5.2,0.9c1.6,0.3,3.5,0.6,5,1.3
						c1.9,0.9,3.1,3.6,5.5,3c0.4-0.1,0.9-0.6,0.2-0.4c-1.4,0.3-2.5-1.4-3.4-2.2c-1-0.9-2.3-1.2-3.6-1.6c-3.3-0.8-6.7-1.4-10.1-1.9
						c-6.6-0.9-13.3-1.1-19.9-0.7C61,231.5,60.2,232,60.9,231.9L60.9,231.9z"/>
				</g>
			</g>
			<g>
				<g>
					<path class="st8" d="M107.2,236.8c4.8,0.6,9.1,3.9,10.8,8.5c0.1,0.3,1.2,0,1-0.3c-1.8-4.7-6.2-8.1-11.2-8.7
						c-0.2,0-0.6,0-0.7,0.2C107,236.6,107,236.7,107.2,236.8L107.2,236.8z"/>
				</g>
			</g>
		</g>
		<g>
			<g>
				<g>
					<path class="st7" d="M63.7,225.7c1.5,0.1,3,0.1,4.5-0.4c1.1-0.4,2.2-0.9,3.3-1.4c1.7-0.7,3.4-0.9,5.2-0.7
						c2.2,0.2,4.5,0.5,6.7,1.2c7.9,2.5,12.5,10.3,19.6,14.3c3.6,2,7.8,3.1,11.9,1.8c0.6-0.2,0.4-1-0.2-0.8
						c-8.4,2.8-15.4-4.8-21.1-9.9c-2.8-2.5-5.8-4.9-9.4-6.1c-2-0.7-4-1-6-1.2c-1.6-0.2-3.2-0.3-4.8,0c-1.4,0.3-2.7,0.9-3.9,1.5
						c-1.8,0.8-3.5,1.1-5.4,0.9C63.5,224.9,63,225.7,63.7,225.7L63.7,225.7z"/>
				</g>
			</g>
			<g>
				<g>
					<path class="st8" d="M65.7,230.8c9.2-2.1,18.5,1,26.9,4.7c8.8,3.8,17.4,8,26.1,12.1c0.4,0.2,1.2-0.4,0.6-0.7
						c-9.1-4.2-18.2-8.7-27.4-12.6c-8.3-3.5-17.4-6.2-26.5-4.1C64.9,230.2,65.1,230.9,65.7,230.8L65.7,230.8z"/>
				</g>
			</g>
			<g>
				<g>
					<path class="st8" d="M53.6,235.6c1.2-1.4,2-3,2.8-4.6c0.7-1.5,1.6-3.2,3.1-4c1-0.5,2.3-0.5,3.4-0.5c1.3-0.1,2.6-0.2,3.8-0.1
						c2.6,0.1,5.1,0.7,7.2,2.3c3.2,2.5,4.8,6.5,7.8,9.2c3.1,2.7,7.4,3.4,11.3,2.6c2.5-0.5,4.5-1.8,6.8-2.7c3.4-1.4,6,0.3,8.6,2.4
						c0.3,0.2,1.2-0.2,1-0.4c-1.8-1.4-3.7-3-6.1-3.2c-2.2-0.2-4.2,0.9-6.1,1.8c-4.9,2.5-10.9,2.6-15-1.4c-3.2-3.1-4.9-7.6-9-9.8
						c-2.1-1.1-4.6-1.4-6.9-1.5c-2.1,0-4.6-0.1-6.6,0.6c-4,1.3-4.6,6.4-7.1,9.2C52.4,235.9,53.4,235.8,53.6,235.6L53.6,235.6z"/>
				</g>
			</g>
			<g>
				<g>
					<path class="st8" d="M70.4,218.8c-0.2,4.3-0.3,8.6-0.2,13c0,1.4-0.2,3.5,0.8,4.6c0.9,1.1,2.6,1.1,3.9,1.1
						c4,0.2,7.9-0.3,11.8-1.1c2-0.4,4-0.9,6-1.5c1.1-0.3,2.6-0.8,3.4,0.4c0.6,0.9,1,2.1,1.4,3.1c0.8,1.8,1.5,3.8,2.5,5.6
						c0.7,1.2,1.7,2.1,3.1,1.7c0.6-0.2,0.5-0.8-0.2-0.7c-1.3,0.3-2.1-1.7-2.5-2.6c-0.5-1.1-1-2.3-1.5-3.5c-0.4-1-0.9-2-1.3-3
						c-0.3-0.7-0.7-1.5-1.4-1.9c-1.5-0.8-3.3,0.1-4.8,0.5c-2.4,0.7-4.8,1.2-7.3,1.6c-2.3,0.4-4.7,0.6-7.1,0.6
						c-1.3,0-2.7,0.1-3.9-0.3c-1.3-0.4-1.6-1.4-1.7-2.7c-0.3-5-0.2-10.1,0.1-15.2C71.5,218.2,70.5,218.4,70.4,218.8L70.4,218.8z"/>
				</g>
			</g>
			<g>
				<g>
					<path class="st8" d="M47.4,230.6c3.6-5,10-1,13.7,1.6c2.9,2.1,5.9,4,9.4,4.9c1.7,0.4,3.4,0.7,5.1,1.1c1.8,0.4,4,1.5,5.9,1
						c1.9-0.4,2.5-2.1,3.4-3.6c1.1-2.1,3.1-3.3,5.4-3.6c5.6-0.7,10,3.8,13.1,7.9c0.2,0.3,1.2-0.1,1-0.4c-2.8-3.7-6.5-7.5-11.4-8.1
						c-4-0.4-7.6,1.2-9.4,4.8c-0.2,0.5-0.5,0.9-0.8,1.4c-0.7,1.1-1.9,1.2-3.1,0.9s-2.4-0.7-3.6-0.9c-1.8-0.4-3.7-0.8-5.5-1.3
						c-4.5-1.3-7.8-4.4-11.7-6.7c-3.8-2.2-9.4-3.1-12.4,0.9C46.2,231,47.2,230.9,47.4,230.6L47.4,230.6z"/>
				</g>
			</g>
			<g>
				<g>
					<path class="st8" d="M75.6,218.5c-0.7,3.8,0.6,7.7-0.3,11.5c-0.5,1.8-1.5,3.6-3.2,4.3c-1.5,0.6-3.3,0.7-4.5,1.9
						c-2.8,2.6,1.6,5.3,3.6,6.6c3,1.9,6.1,3.5,9.3,5.1c3.8,1.9,7.6,4,11,6.7c0.3,0.2,1.2-0.2,1-0.4c-5.5-4.5-12.2-7-18.2-10.5
						c-2.1-1.2-9.8-5.5-4.9-7.9c1.5-0.7,3.2-0.7,4.6-1.7c1-0.8,1.8-1.9,2.2-3.1c1.5-4-0.1-8.3,0.6-12.5
						C76.7,218,75.6,218.2,75.6,218.5L75.6,218.5z"/>
				</g>
			</g>
			<g>
				<g>
					<path class="st8" d="M39.1,232.1c5.3,0.5,10.6-0.5,15.9,0.1c1.4,0.1,2.7,0.4,4,0.8c0.6,0.2,1.3,0.6,2,0.5
						c0.3,0,0.7-0.2,0.8-0.5c0-0.1,0-0.2,0-0.3c-0.1-0.4-0.1-0.1-0.3,0c-0.2,0-0.4,0.1-0.6,0.1c0.4,0.1,0.9,0.7,1.2,0.9
						c0.6,0.5,1.3,1,1.9,1.6c1.4,1.2,2.8,2.5,4.1,3.9c1.2,1.3,2.3,2.7,3.3,4.1c1,1.5,1.7,3.2,2.5,4.8c1.7,3.3,5.7,2.4,8.7,1.9
						c3.9-0.6,7.7-1.6,11.4-3c0.7-0.3,0.1-0.8-0.5-0.6c-4.7,1.8-10,3.2-15.1,3.4c-1.6,0-2.7-0.5-3.5-1.9c-0.5-0.9-0.9-1.9-1.4-2.9
						c-1-1.9-2.3-3.7-3.7-5.3c-1.4-1.6-2.9-3-4.4-4.4c-0.8-0.7-1.6-1.3-2.4-2c-0.4-0.3-1-1-1.5-1.1c-0.7-0.2-0.8,0.3-0.8,0.8
						c0,0.1,0.3,0,0-0.2c-0.3-0.3-1.2-0.4-1.6-0.5c-1.1-0.3-2.2-0.5-3.4-0.7c-5.4-0.6-10.9,0.4-16.3-0.1
						C38.9,231.3,38.4,232,39.1,232.1L39.1,232.1z"/>
				</g>
			</g>
			<g>
				<g>
					<path class="st8" d="M60.6,228.7c1,0,2.1-0.2,2.7-1c0.1-0.1,0.2-0.3,0.3-0.3c-0.3,0.2-0.1,0.1,0.2,0.3c0.9,0.6,1.8,1.2,2.7,1.8
						c3.7,2.6,7.3,5.3,10.8,8.1c1.8,1.5,3.6,3,5.3,4.5c0.8,0.7,1.6,1.4,2.4,2.2c0.7,0.6,1.4,1.4,2.2,1.8c1.6,0.8,3.5,0.1,5.2-0.3
						c2.4-0.6,4.7-1.1,7.1-1.7c0.7-0.2,0.5-0.9-0.2-0.7c-2.4,0.6-4.7,1.1-7.1,1.7c-1.2,0.3-2.8,1-3.9,0.6c-1-0.3-1.8-1.3-2.5-1.9
						c-3.2-3-6.6-5.9-10.1-8.6c-3.4-2.7-7-5.4-10.6-7.7c-0.6-0.4-1.4-0.9-2.1-0.6c-0.2,0.1-0.3,0.3-0.5,0.5
						c-0.5,0.5-1.1,0.6-1.9,0.6C60.1,228,59.8,228.8,60.6,228.7L60.6,228.7z"/>
				</g>
			</g>
			<g>
				<g>
					<path class="st8" d="M58.2,241.7c3.6-0.3,7.2-1.1,10.8-1.8c3.4-0.7,6.8-1.4,10.2-1.3c3.8,0.2,7.3,1.5,10.4,3.5
						c3.4,2.1,6.4,4.9,9.9,6.9s7.6,3.2,11.7,2.4c0.6-0.1,0.5-0.7-0.1-0.5c-8.6,1.8-15.2-6.2-21.9-10c-2.9-1.6-6.1-2.6-9.4-2.7
						c-3-0.2-6,0.3-9,0.9c-4.2,0.8-8.3,1.8-12.5,2.2C57.9,241.2,57.5,241.8,58.2,241.7L58.2,241.7z"/>
				</g>
			</g>
			<g>
				<g>
					<path class="st8" d="M49.3,234.2c2-0.3,3.6-1.1,5.2-2.3c0.7-0.5,1.3-1.1,2.2-0.8c1.2,0.3,2.3,1.4,3.1,2.3c1.9,2,3.5,4,6,5.2
						c2.1,1,4.8,1.8,5.6,4.3c0.1,0.3,1.1,0,1-0.3c-0.8-2.4-3.2-3.3-5.3-4.2c-1.5-0.7-2.7-1.5-3.9-2.6c-1.1-1.1-2.1-2.4-3.3-3.5
						c-1.4-1.3-3-2.2-4.8-1.4c-0.7,0.3-1.4,0.9-2,1.4c-1.1,0.8-2.3,1.4-3.7,1.6C49,233.8,48.6,234.3,49.3,234.2L49.3,234.2z"/>
				</g>
			</g>
			<g>
				<g>
					<path class="st8" d="M50.5,236.4c1.1,0.6,2.1,1,2.4,2.2c0.3,1.1,1,2,1.8,2.8c3,3.1,6.8,5.3,10.7,7.2c4,1.9,8.2,4,12.5,5.2
						c3.8,1.1,7.9,1.1,11.4-1c0.6-0.4-0.3-0.5-0.6-0.3c-4.2,2.5-9.2,1.3-13.4-0.4c-3.8-1.5-7.6-3.2-11.2-5.1c-3.3-1.8-7.1-4-9.3-7.2
						c-0.5-0.7-0.5-1.4-0.9-2.1c-0.4-0.9-1.6-1.4-2.4-1.8C51.1,235.7,50.1,236.2,50.5,236.4L50.5,236.4z"/>
				</g>
			</g>
			<g>
				<g>
					<path class="st8" d="M67.1,218.9c0.2,2.1,3,3.1,4.6,3.7c2.8,1.1,5.7,1.7,8.5,2.9c1.1,0.4,2.3,0.9,3,1.8c0.9,1,0.5,2.3,0.4,3.6
						c-0.2,2.4-0.1,4.9,1.6,6.8c1.7,1.9,4.5,2.9,6.8,4.1c5.9,3,11.9,5.7,18,8.4c0.2,0.1,1.2-0.3,0.9-0.4c-5.6-2.4-11.1-5-16.6-7.7
						c-2.3-1.1-4.9-2.2-6.9-3.7c-2.2-1.6-2.8-4-2.7-6.7c0-1.3,0.7-3.1-0.1-4.4c-0.5-0.8-1.4-1.3-2.3-1.7c-2.5-1.2-5.3-1.9-8-2.8
						c-1.9-0.6-6-1.6-6.2-4.1C68.1,218.4,67.1,218.5,67.1,218.9L67.1,218.9z"/>
				</g>
			</g>
			<g>
				<g>
					<path class="st7" d="M46.7,237.3c4,0,8,0,12,0c0.4,0,1.3,0,1.4-0.5c0.1-0.4-0.5-1.1-0.7-1.4c-0.4-0.6-1-1.3-1.4-1.9
						c0-0.1-0.2-0.3-0.2-0.4c0,0,0-0.1-0.1-0.2c-0.1,0.1-0.2,0.2-0.4,0.4c0,0,2.4,1.1,2.6,1.2c3.1,1.6,6.4,2,9.8,2.3
						c0.4,0,1.1-0.5,0.4-0.6c-1.9-0.2-3.8-0.3-5.6-0.8c-1.8-0.5-3.3-1.3-5-2.1c-0.6-0.3-1.7-1-2.5-0.6c-0.5,0.2-0.4,0.5-0.1,0.9
						c0.3,0.6,0.8,1.2,1.2,1.8c0.2,0.3,0.5,0.7,0.7,1c0.1,0.3,0.1,0.5,0.3,0.4c-0.1,0.1-1.1,0-1.4,0c-0.5,0-1.1,0-1.6,0
						c-1,0-2,0-3,0c-2,0-4,0-6,0C46.7,236.7,46,237.3,46.7,237.3L46.7,237.3z"/>
				</g>
			</g>
			<g>
				<g>
					<path class="st8" d="M77.4,248.1c5.8,2.1,11.3,5.3,16,9.3c0.4,0.3,1.3-0.2,0.8-0.6c-4.8-4.1-10.3-7.3-16.2-9.4
						C77.5,247.2,76.8,247.9,77.4,248.1L77.4,248.1z"/>
				</g>
			</g>
			<g>
				<g>
					<path class="st7" d="M76.8,240.1c5.2,2.8,10.7,5.3,16.3,7.2c4.5,1.6,10.8,2.3,13.4,6.9c0.2,0.4,1.2,0,1-0.4
						c-2.5-4.3-8.1-5.2-12.4-6.6c-6-2-11.9-4.5-17.5-7.6C77.3,239.3,76.3,239.8,76.8,240.1L76.8,240.1z"/>
				</g>
			</g>
			<g>
				<g>
					<path class="st8" d="M86.9,262.3c-7.7-10-16.9-18.7-27.3-25.9c-0.3-0.2-1.2,0.2-1,0.4c10.4,7.1,19.6,15.9,27.3,25.9
						C86.1,262.9,87.1,262.5,86.9,262.3L86.9,262.3z"/>
				</g>
			</g>
			<g>
				<g>
					<path class="st8" d="M51.2,242.4c6.6,0.9,13.3,0.9,19.8,1.8c6.7,0.9,12.8,3,18.3,6.9c0.4,0.3,1.3-0.3,0.8-0.6
						c-5.5-3.8-11.5-6-18.1-6.9c-6.8-1-13.7-1-20.5-1.9C51,241.6,50.5,242.3,51.2,242.4L51.2,242.4z"/>
				</g>
			</g>
			<g>
				<g>
					<path class="st8" d="M51.2,224.7c5.8,1.1,11.9,1,17.6,3c3.1,1.1,6.6,2.5,8.9,4.8c1.2,1.2,1.6,2.6,2.2,4.1
						c0.4,0.9,1,1.7,2.1,1.7c0.5,0,1.1-0.7,0.4-0.7c-1.5,0-1.7-2.5-2.2-3.5c-0.6-1.3-1.6-2.3-2.8-3.1c-2.5-1.9-5.6-3.2-8.6-4.1
						c-5.5-1.8-11.5-1.7-17.2-2.8C51.1,223.9,50.5,224.6,51.2,224.7L51.2,224.7z"/>
				</g>
			</g>
			<g>
				<g>
					<path class="st7" d="M54.6,243.7c5.6-0.4,10.9-2.3,16.5-2.6c3-0.2,6.3,0.1,9.2,1.2c2.2,0.8,3.5,3.8,6,3.2
						c0.7-0.1,0.5-0.9-0.2-0.7c-1.4,0.3-2.6-1.6-3.6-2.3c-1-0.8-2.3-1.1-3.5-1.4c-2.7-0.6-5.5-0.9-8.2-0.7
						c-5.4,0.4-10.7,2.2-16.1,2.6C54.1,242.9,53.9,243.7,54.6,243.7L54.6,243.7z"/>
				</g>
			</g>
			<g>
				<g>
					<path class="st8" d="M95.3,243.9c4.8,0.6,9.1,4,10.8,8.5c0.1,0.3,1.1,0,1-0.3c-1.8-4.7-6.2-8.1-11.2-8.7c-0.2,0-0.6,0-0.7,0.2
						C95,243.7,95,243.8,95.3,243.9L95.3,243.9z"/>
				</g>
			</g>
		</g>
		<g>
			<g>
				<g>
					<path class="st7" d="M74,211.2c4.5,0.4,9.1,0.8,13.6,1.2c4.3,0.4,8.9,0.4,13.1,1.8c7.1,2.5,12.1,8.7,19,11.6
						c3.5,1.5,7.3,2,11.1,1c0.5-0.1,0.5-0.4-0.1-0.3c-7.9,2.1-14.8-3.5-20.6-7.8c-2.7-2-5.5-3.9-8.8-4.9c-3.8-1.3-8-1.3-12-1.7
						c-4.9-0.4-9.7-0.8-14.6-1.3C74.4,210.8,73.5,211.1,74,211.2L74,211.2z"/>
				</g>
			</g>
			<g>
				<g>
					<path class="st8" d="M81.6,219.1c9.2-1.7,18.3,0.7,27,3.7c8.8,3.1,17.5,6.6,26.3,9.9c0.3,0.1,1.1-0.4,0.6-0.6
						c-9-3.4-18-7.1-27.2-10.2c-8.5-2.9-17.5-5.1-26.5-3.5C81.2,218.6,80.9,219.2,81.6,219.1L81.6,219.1z"/>
				</g>
			</g>
			<g>
				<g>
					<path class="st8" d="M63.9,219.4c3.5-3,8.4-3.4,12.8-3.7c4.6-0.4,9.7-0.8,13.7,2c3.1,2.2,4.9,5.8,8.2,7.8
						c3.2,1.9,7.2,2.2,10.8,1.5c2.2-0.4,4.2-1.4,6.3-2.2c3.3-1.1,6,0.2,8.7,2c0.2,0.2,1.1-0.2,0.9-0.3c-1.8-1.2-3.7-2.3-5.8-2.5
						s-4,0.6-5.9,1.3c-4.7,1.9-10.4,2.5-14.8-0.5c-3.4-2.4-5.3-6.4-9.1-8.2c-4.2-2-9.2-1.5-13.6-1.1c-4.5,0.4-9.4,1-12.9,4
						C62.8,219.6,63.8,219.5,63.9,219.4L63.9,219.4z"/>
				</g>
			</g>
			<g>
				<g>
					<path class="st8" d="M86.5,209.3c-0.2,2.6-0.2,5.3-0.2,7.9c0,1.2,0,2.3,0.1,3.5c0,0.8-0.1,1.8,0.4,2.6c0.9,1.5,3.2,1.3,4.7,1.3
						c2.3,0.1,4.6-0.1,6.9-0.3s4.6-0.6,6.8-1.1c1.3-0.3,2.5-0.6,3.8-0.8c1.2-0.3,2.6-0.6,3.4,0.6c1.3,1.9,2.2,4.2,3.3,6.2
						c0.8,1.4,1.8,2.3,3.5,2c0.6-0.1,0.4-0.7-0.2-0.6c-2,0.4-3.3-3.5-4-4.9c-0.7-1.3-1.3-3.4-2.8-4.1c-1.3-0.6-3,0-4.3,0.3
						c-2.2,0.5-4.5,1-6.7,1.3s-4.3,0.5-6.5,0.6c-1.3,0-2.5,0-3.8,0c-1.1,0-2.5,0-3.1-1c-0.6-0.9-0.4-2.2-0.4-3.3
						c0-1.2-0.1-2.3-0.1-3.5c0-2.3,0.1-4.6,0.2-6.9C87.5,208.8,86.5,209,86.5,209.3L86.5,209.3z"/>
				</g>
			</g>
			<g>
				<g>
					<path class="st8" d="M63.3,219.7c0.8-1.1,0.8-2.5,0.8-3.9c0-0.5-0.1-1.4,0.2-1.8c0.5-0.8,2.7,0.3,3.4,0.6
						c2.4,1.1,4.7,2.6,7,3.9c2.1,1.1,4.2,2.1,6.4,3c2.5,1,5,1.9,7.6,2.7c2.2,0.7,4.6,1.5,7,1.8c1.7,0.2,3.1-0.4,4.1-1.7
						c0.5-0.7,0.9-1.5,1.5-2.1c0.9-0.9,2.1-1.5,3.3-1.8c5.8-1.5,10.9,2.2,14.7,6.2c0.2,0.2,1.1-0.1,0.9-0.3
						c-3.3-3.5-7.3-6.5-12.3-6.6c-1.9,0-3.9,0.3-5.6,1.2c-0.7,0.4-1.4,0.8-1.9,1.4c-0.7,0.8-1.1,1.8-1.8,2.6
						c-1.3,1.5-3.7,0.5-5.3,0.1c-1.5-0.4-2.9-0.8-4.3-1.2c-2.8-0.9-5.5-1.9-8.2-3.1s-5.2-2.5-7.7-3.9c-2.2-1.3-4.4-2.7-6.9-3.3
						c-1.2-0.3-2.5-0.2-2.8,1.1c-0.4,1.7,0.3,3.7-0.9,5.3C62.3,220.1,63.2,219.9,63.3,219.7L63.3,219.7z"/>
				</g>
			</g>
			<g>
				<g>
					<path class="st8" d="M91.6,209.1c-0.8,3.9,1.6,9.2-2.2,12.1c-1.7,1.3-4.2,0.9-6,2.2c-1.5,1.1-0.9,2.5,0.4,3.5
						c3.4,2.5,7.5,4,11.3,5.6c4.2,1.7,8.4,3.4,12.1,5.9c0.2,0.2,1.1-0.2,0.9-0.3c-7.1-4.7-15.6-6.5-22.8-11
						c-0.8-0.5-2.2-1.4-1.9-2.6c0.4-1.5,2.4-1.6,3.6-1.9c1.5-0.3,2.9-0.9,3.9-2.1c2.7-3.3,0.6-7.7,1.4-11.4
						C92.6,208.6,91.7,208.8,91.6,209.1L91.6,209.1z"/>
				</g>
			</g>
			<g>
				<g>
					<path class="st8" d="M76.8,216.2c8.1,2.1,16.1,4.1,24.2,6.2c7.9,2.1,15.6,4.6,22.8,8.3c3.9,2,7.7,4.3,11.5,6.5
						c0.2,0.1,1-0.2,0.9-0.3c-6.7-4-13.5-8-20.9-10.8c-7.7-2.9-15.8-4.7-23.7-6.8c-4.7-1.2-9.4-2.4-14.1-3.6
						C77.3,215.8,76.5,216.1,76.8,216.2L76.8,216.2z"/>
				</g>
			</g>
			<g>
				<g>
					<path class="st8" d="M55.1,221c3.2,0.2,5.7-1,8.4-2.5c1.3-0.7,2.6-1.3,4.2-1.4c2.3-0.1,4.5,1,6.5,2c4,2.1,8.1,4.8,11.3,8
						c1.6,1.6,2.9,3.3,4,5.3c1,1.7,2.1,2.6,4.2,2.6c2.6,0.1,5.3-0.4,7.8-0.8c2.8-0.5,5.6-1.2,8.3-2c0.6-0.2,0.4-0.9-0.2-0.7
						c-4.7,1.5-9.7,2.5-14.6,2.8c-1.4,0.1-2.8,0.1-3.8-1.1c-0.7-0.8-1.1-1.9-1.7-2.7c-1.1-1.7-2.4-3.1-3.9-4.5
						c-3.2-2.9-6.9-5.5-10.7-7.5c-3-1.6-6.4-2.9-9.7-1.6c-1.4,0.5-2.7,1.4-4,2.1c-1.8,1-3.7,1.5-5.7,1.3
						C54.9,220.3,54.4,221,55.1,221L55.1,221z"/>
				</g>
			</g>
			<g>
				<g>
					<path class="st8" d="M70.8,213.7c4.5,0.1,8.5,2.4,12.2,4.6c3.8,2.1,7.5,4.4,11.1,6.9c1.7,1.2,3.4,2.4,5.1,3.6
						c1.3,1,2.7,2.4,4.4,2.9c1.6,0.5,3.5-0.2,5.1-0.5c2.2-0.4,4.4-0.9,6.6-1.3c0.4-0.1,0.8-0.6,0.1-0.5c-2.2,0.4-4.4,0.9-6.6,1.3
						c-1,0.2-2,0.4-3,0.6c-1.4,0.2-2.3-0.3-3.4-1.1c-3.3-2.5-6.7-4.9-10.2-7.2c-3.4-2.2-6.9-4.3-10.5-6.3c-3.3-1.8-6.7-3.5-10.6-3.5
						C70.9,213.2,70.2,213.7,70.8,213.7L70.8,213.7z"/>
				</g>
			</g>
			<g>
				<g>
					<path class="st8" d="M68.5,224.4c8.1-0.6,16.3-1.1,24.3,0c3.9,0.6,7.7,1.5,11.3,3.1c3.7,1.7,7,4.1,10.7,6c3.8,1.9,8,3,12.2,2.3
						c0.4-0.1,0.8-0.6,0.1-0.5c-8.8,1.5-15.4-5.3-22.9-8.5c-6.9-3-14.5-3.6-22-3.6c-4.5,0-9,0.3-13.5,0.6
						C68.6,223.9,67.9,224.4,68.5,224.4L68.5,224.4z"/>
				</g>
			</g>
			<g>
				<g>
					<path class="st8" d="M78.4,209.7c5,5.9,10.3,11.9,17.2,15.8c7.7,4.3,16.8,4.4,24.5,8.7c4,2.2,7.6,5.1,10.3,8.8
						c0.2,0.2,1-0.2,0.9-0.3c-4.8-6.4-11.9-10.4-19.6-12.5c-4.4-1.2-8.9-2-13.1-4c-3.7-1.7-7-4.1-10-6.8c-3.4-3.1-6.4-6.5-9.3-10
						C79.2,209.2,78.4,209.6,78.4,209.7L78.4,209.7z"/>
				</g>
			</g>
			<g>
				<g>
					<path class="st9" d="M56.4,221.5c2.8,2.2,5.8,3.1,9.4,3.2c1.9,0.1,3.8,0.1,5.6,0.4c2.4,0.4,4.6,1.2,6.9,2.1
						c8.6,3.4,16.4,8.6,24.7,12.6c4.6,2.2,9.4,4,14.5,5c0.3,0.1,1.1-0.4,0.6-0.5c-9.1-1.8-17.2-6.3-25.2-10.8
						c-7.3-4-15.2-8.7-23.7-9.3c-1.9-0.1-3.9-0.1-5.8-0.4c-2.3-0.4-4.3-1.4-6.1-2.8C57.1,220.9,56.2,221.3,56.4,221.5L56.4,221.5z"
						/>
				</g>
			</g>
			<g>
				<g>
					<path class="st8" d="M65.3,222.7c1.9-0.2,3.4-0.9,4.8-2.1c0.6-0.5,1.3-1.2,2.1-1.3c1.1-0.2,2.4,0.8,3.2,1.4
						c2,1.6,3.7,3.5,6.1,4.5c2,0.8,5,1.4,5.9,3.6c0.1,0.3,1.1,0.1,0.9-0.3c-0.9-2.2-3.6-2.8-5.6-3.6c-1.5-0.6-2.7-1.3-3.9-2.3
						c-1.1-0.9-2.1-2-3.3-2.8c-1.4-1-2.9-1.4-4.5-0.5c-0.7,0.4-1.4,1-2.1,1.5c-1.1,0.8-2.2,1.2-3.5,1.4
						C65,222.3,64.6,222.8,65.3,222.7L65.3,222.7z"/>
				</g>
			</g>
			<g>
				<g>
					<path class="st8" d="M66.7,224.6c0.8,0.3,1.9,0.6,2.4,1.3c0.6,0.9,1.3,1.6,2.1,2.3c3.1,2.5,6.8,4.2,10.5,5.7
						c3.9,1.5,7.9,3.1,11.9,4.1c3.8,0.9,7.9,1.1,11.5-0.7c0.6-0.3,0.1-0.8-0.4-0.6c-4,2-8.7,1.2-12.8,0c-3.8-1.2-7.6-2.5-11.2-4.1
						c-3.5-1.5-7.1-3.2-9.9-5.9c-0.5-0.5-0.7-1-1.1-1.4c-0.6-0.7-1.8-0.9-2.5-1.2C66.8,223.7,66.1,224.3,66.7,224.6L66.7,224.6z"/>
				</g>
			</g>
			<g>
				<g>
					<path class="st8" d="M77.6,205.7c0.2,1.9,3.6,2.9,5,3.5c3.2,1.3,6.5,2.4,9.8,3.6c1.5,0.5,3,1.1,4.4,1.8c1,0.5,2.2,1,2.9,1.9
						c0.2,0.3,0.3,0.5,0.3,0.9c0,1.3-0.4,2.6-0.2,3.9c0.3,2.7,2.4,4.1,4.7,5.1c7.1,3.1,14.4,5.8,21.7,8.3c0.3,0.1,1.1-0.3,0.8-0.4
						c-6.5-2.3-12.8-4.7-19.2-7.3c-2.6-1.1-6.2-2.1-6.9-5.3c-0.3-1.4-0.1-2.8,0.1-4.2c0.1-0.5,0.1-0.8-0.1-1.2
						c-0.4-0.7-1.3-1.2-2-1.6c-1.2-0.7-2.5-1.2-3.8-1.7c-3.3-1.3-6.6-2.3-9.9-3.6c-1.5-0.6-3-1.2-4.4-2c-0.8-0.4-2-1.1-2.1-2.1
						C78.5,205.2,77.5,205.4,77.6,205.7L77.6,205.7z"/>
				</g>
			</g>
			<g>
				<g>
					<path class="st7" d="M62.7,225.2c1.3,0,2.6-0.4,3.4-1.5c1.1-1.3,1.5-2.9,3.5-3c1.6,0,3.1,0.1,4.6,0.6c1.2,0.4,2.3,1,3.5,1.4
						c2.6,0.9,5.3,1,8,1.2c0.3,0,1.1-0.4,0.6-0.5c-2.9-0.2-5.9-0.4-8.6-1.5c-1.2-0.5-2.4-1.1-3.7-1.4c-1.2-0.3-2.4-0.3-3.6-0.3
						c-1.4,0-2.7,0.3-3.7,1.4c-1.2,1.3-1.5,3-3.6,3.1C62.8,224.7,62.1,225.2,62.7,225.2L62.7,225.2z"/>
				</g>
			</g>
			<g>
				<g>
					<path class="st8" d="M93.4,233.2c5.7,1.7,11.1,4.2,16,7.6c0.3,0.2,1.2-0.2,0.7-0.5c-4.9-3.4-10.4-6-16.2-7.7
						C93.6,232.5,92.8,233,93.4,233.2L93.4,233.2z"/>
				</g>
			</g>
			<g>
				<g>
					<path class="st7" d="M92.9,226.7c5.2,2.3,10.6,4.2,16.1,5.8c2.5,0.7,5,1.2,7.4,2c2.3,0.7,4.6,1.6,6.1,3.6
						c0.2,0.3,1.1,0,0.9-0.4c-2.7-3.9-8.7-4.4-12.9-5.6c-5.8-1.6-11.5-3.6-17-6.1C93.1,225.9,92.4,226.5,92.9,226.7L92.9,226.7z"/>
				</g>
			</g>
			<g>
				<g>
					<path class="st8" d="M102.8,244.7c-7.9-8.4-17.3-15.5-27.4-21.1c-0.3-0.2-1.1,0.2-0.7,0.5c10.1,5.6,19.3,12.7,27.2,21.1
						C102.2,245.3,103.1,245,102.8,244.7L102.8,244.7z"/>
				</g>
			</g>
			<g>
				<g>
					<path class="st8" d="M61.5,224.8c14.9,1.6,30.5,3.2,43.8,10.7c0.2,0.1,1-0.2,0.9-0.3c-13.4-7.5-29.1-9.1-44.1-10.8
						C61.8,224.4,61,224.7,61.5,224.8L61.5,224.8z"/>
				</g>
			</g>
			<g>
				<g>
					<path class="st8" d="M67.2,215c5.7,0.9,11.7,0.3,17.3,1.6c3,0.7,6.4,1.8,8.9,3.7c1.3,1,1.8,2.1,2.5,3.5c0.4,0.9,1,1.4,2,1.5
						c0.4,0,1-0.6,0.3-0.6c-1.5,0-1.7-1.9-2.3-2.9c-0.7-1.1-1.8-2-2.9-2.6c-2.6-1.5-5.7-2.6-8.7-3.2c-5.5-1.2-11.3-0.6-16.8-1.5
						C67.1,214.3,66.5,214.9,67.2,215L67.2,215z"/>
				</g>
			</g>
			<g>
				<g>
					<path class="st8" d="M99,235.8c5.3,0,10.6,0,15.9,0c2.5,0,5.1-0.1,7.6,0c1.9,0,4.5,0.1,5.7,1.9c0.2,0.2,1-0.1,0.9-0.3
						c-0.9-1.4-2.6-1.8-4.2-2c-2.6-0.3-5.3-0.1-7.9-0.1c-5.8,0-11.6,0-17.4,0C99.4,235.4,98.5,235.8,99,235.8L99,235.8z"/>
				</g>
			</g>
			<g>
				<g>
					<path class="st8" d="M69.2,234.4c6.9-1.2,14.1-0.5,20.7,1.8c3.1,1.1,6.1,2.6,8.8,4.5c1.2,0.9,2.4,1.8,3.5,2.9
						c1.1,1,2.1,2,3.6,2.4c2.1,0.5,4.4,0.5,6.5,0.6c2.5,0.2,4.9,0.3,7.4,0.5c0.5,0,1-0.7,0.3-0.7c-4.2-0.3-8.6-0.4-12.8-0.9
						c-2.1-0.3-3.2-1.5-4.7-2.8c-1.2-1.1-2.4-2-3.7-2.9c-5.5-3.7-12-5.8-18.5-6.4c-3.8-0.4-7.6-0.2-11.3,0.4
						C68.4,233.8,68.6,234.5,69.2,234.4L69.2,234.4z"/>
				</g>
			</g>
			<g>
				<g>
					<path class="st7" d="M65,226c7-0.3,14-0.1,20.9,0.7c3.3,0.4,6.8,0.8,10,1.7c1.5,0.4,2.5,1.3,3.8,2.2c0.8,0.5,1.6,0.7,2.6,0.6
						c0.6-0.1,0.4-0.8-0.2-0.7c-1.5,0.3-2.7-1.3-3.8-2c-1.2-0.7-2.5-0.9-3.8-1.1c-3.2-0.6-6.5-1.1-9.8-1.5
						c-6.5-0.7-13.1-0.9-19.7-0.6C64.6,225.3,64.4,226,65,226L65,226z"/>
				</g>
			</g>
			<g>
				<g>
					<path class="st8" d="M111.3,229.8c4.4,0.4,8.9,2.8,10.8,6.9c0.1,0.3,1.1,0,0.9-0.3c-2-4.2-6.7-6.7-11.2-7.1
						c-0.2,0-0.5,0-0.7,0.2C111.1,229.6,111.1,229.7,111.3,229.8L111.3,229.8z"/>
				</g>
			</g>
			<g>
				<g>
					<path class="st7" d="M85,235.4c7.9-0.2,16.1-0.5,23.8,1.6c6.8,1.8,12.9,6,20.1,6.6c0.2,0,1.1-0.4,0.6-0.4
						c-7.5-0.6-14-5.2-21.2-6.9c-7.5-1.7-15.2-1.5-22.9-1.3C85.1,234.9,84.4,235.4,85,235.4L85,235.4z"/>
				</g>
			</g>
		</g>
		<g>
			<g>
				<g>
					<path class="st8" d="M61.6,243.9c5.6-0.5,11.8-0.9,16.4,3.1c1.8,1.6,3.4,3.1,5.7,4c1.9,0.8,4.7,1.3,5.6,3.5
						c0.1,0.3,1,0,0.9-0.3c-0.8-2-3.2-2.7-5.1-3.4c-1.4-0.5-2.6-1.1-3.8-2c-1.2-0.9-2.2-2-3.4-3c-4.5-3.5-10.8-2.9-16.2-2.5
						C61.3,243.4,60.9,243.9,61.6,243.9L61.6,243.9z"/>
				</g>
			</g>
			<g>
				<g>
					<path class="st7" d="M59,246.4c2.7,0,5.3,0,8,0c2.4,0,4.9-0.2,7.2,0.1c2.3,0.3,4.3,1.7,6.5,2.2c2.3,0.6,4.6,0.7,6.9,0.9
						c0.4,0,1-0.6,0.3-0.6c-2.5-0.2-5.1-0.3-7.5-1.1c-2-0.6-3.8-1.8-5.9-2c-2.4-0.3-4.8-0.1-7.2-0.1c-2.7,0-5.3,0-8,0
						C59,245.8,58.4,246.4,59,246.4L59,246.4z"/>
				</g>
			</g>
			<g>
				<g>
					<path class="st8" d="M63.4,236.1c7.7,1.2,15.2,3.1,22.5,5.6c3.1,1.1,6.8,2.1,9.5,4.2c1.2,0.9,1.7,2,2.3,3.3
						c0.5,0.9,1,1.5,2.1,1.5c0.3,0,1-0.5,0.4-0.5c-1.5,0-1.7-2-2.3-3c-0.7-1.1-1.8-1.9-2.9-2.6c-3-1.7-6.4-2.8-9.6-3.9
						c-7-2.4-14.1-4.1-21.4-5.2C63.7,235.5,62.8,236,63.4,236.1L63.4,236.1z"/>
				</g>
			</g>
			<g>
				<g>
					<path class="st7" d="M66.9,251.5c6.9-0.3,13.8-0.1,20.6,0.7c3.3,0.4,6.7,0.8,10,1.6c1.5,0.4,2.5,1.2,3.8,2.1
						c0.8,0.6,1.7,0.9,2.7,0.8c0.5-0.1,0.8-0.7,0.1-0.6c-1.5,0.3-2.5-1.1-3.6-1.8c-1.2-0.8-2.6-1-4-1.3c-3.2-0.6-6.4-1.1-9.6-1.4
						c-6.6-0.7-13.3-0.9-19.9-0.6C66.5,251,66.2,251.6,66.9,251.5L66.9,251.5z"/>
				</g>
			</g>
		</g>
		<g>
			<g>
				<path class="st8" d="M64.2,212.7c0.5,0,1.1-0.7,0.4-0.7C64.1,212,63.4,212.7,64.2,212.7L64.2,212.7z"/>
			</g>
		</g>
		<g>
			<g>
				<path class="st8" d="M61,146.6c0.8,3.3,1.4,6.6,2,9.9c0.3,1.6,0.5,3.3,0.7,4.9c0.1,0.8,0.2,1.6,0.3,2.5c0,0.4,0.1,0.9,0.1,1.3
					c0,0.2,0,0.3-0.1,0.5c-0.3,0.2-0.3,0.4,0,0.4c-0.3-0.3-1.3,0.2-1,0.4c0.8,0.7,1.8,0,2.1-0.8c0.3-0.8,0.1-1.8,0-2.6
					c-0.1-1.1-0.2-2.3-0.4-3.4c-0.6-4.5-1.4-8.9-2.5-13.3C62,145.9,60.9,146.2,61,146.6L61,146.6z"/>
			</g>
		</g>
		<g>
			<g>
				<g>
					<path class="st7" d="M64.4,145.6c1,4.5,2,8.9,2.9,13.4c1,4.4,2.4,9,2,13.6c-0.8,7.8-6.2,14.2-7.4,22c-0.6,3.7-0.2,7.6,2.1,10.7
						c0.1,0.2,0.9-0.1,0.8-0.3c-4.7-6.4-1.4-14.6,1.5-21c1.7-3.6,3.4-7.4,3.8-11.4c0.5-4.1-0.7-8.2-1.6-12.2c-1.1-5-2.2-10-3.3-15.1
						C65.2,145.2,64.4,145.4,64.4,145.6L64.4,145.6z"/>
				</g>
			</g>
			<g>
				<g>
					<path class="st8" d="M57.7,155.6c4.7,7.8,5,17.1,4.3,25.9c-0.7,10-2.2,20.1-3.3,30.1c0,0.3,0.8,0.1,0.8-0.1
						c0.9-8.2,1.9-16.3,2.8-24.5c0.7-6.8,1.3-13.8,0.2-20.6c-0.7-3.9-1.9-7.6-4-11C58.4,155.1,57.6,155.4,57.7,155.6L57.7,155.6z"/>
				</g>
			</g>
			<g>
				<g>
					<path class="st8" d="M60.1,150.1c1.6,3.7,3.4,7.8,2.5,12c-0.7,3.3-3.2,5.9-5,8.7c-1.8,2.7-2.8,5.6-2.4,8.9
						c0.4,3.3,2.1,6.2,4.4,8.5c1.4,1.4,3,2.7,3.6,4.6c0.8,2.3-0.1,4.7-1,6.9c-0.1,0.3,1,0.2,1.1-0.2c0.7-1.8,1.3-3.6,1.2-5.5
						c-0.1-1.6-0.9-3-1.9-4.2c-1.1-1.3-2.5-2.4-3.5-3.7c-1.1-1.5-2-3.2-2.5-5c-1-3.6-0.2-7,1.8-10.2c1.7-2.7,4-5.1,5-8.2
						c1.3-4.4-0.6-8.9-2.3-12.9C61,149.5,60,149.8,60.1,150.1L60.1,150.1z"/>
				</g>
			</g>
			<g>
				<g>
					<path class="st8" d="M70.8,156.7c-3.9,1.1-7.8,2.3-11.6,3.7c-1.4,0.5-3.3,0.9-4.5,1.9s-0.8,2.6-0.5,3.9c1,3.8,2.6,7.3,4.6,10.7
						c0.9,1.6,1.8,3.1,2.8,4.5c0.6,0.9,1.3,1.7,1.7,2.7c0.5,1.4-0.3,2.3-1.3,3.2c-1.7,1.5-3.4,3-5.1,4.6c-1,0.9-2.5,2.4-1.6,3.9
						c0.2,0.2,0.9,0,0.8-0.2c-1.3-2.1,2.4-4.4,3.7-5.6c0.9-0.8,1.9-1.7,2.8-2.5c0.5-0.5,1.1-0.9,1.4-1.5c0.9-1.8-1.2-3.9-2.1-5.3
						c-1.3-1.9-2.5-4-3.6-6c-1-2-1.9-4-2.6-6.1c-0.4-1.1-0.7-2.2-1-3.3c-0.4-1.7,0.1-2.8,1.8-3.5c4.6-1.9,9.5-3.3,14.3-4.7
						C71.4,156.9,71.3,156.6,70.8,156.7L70.8,156.7z"/>
				</g>
			</g>
			<g>
				<g>
					<path class="st8" d="M51.9,140.4c0.1,1.3,1.1,2.1,2,2.8s2.5,1.4,2.9,2.5c0.3,0.9-0.3,2-0.6,2.9c-0.3,1.2-0.6,2.5-0.9,3.8
						c-0.5,2.5-0.9,5.1-1.2,7.6c-0.3,2.6-0.4,5.3-0.4,8c0,1.8-0.3,4.4,1,5.9c1.2,1.3,3.1,1.2,4.6,1.5c2.1,0.5,3.6,2.1,4.6,3.9
						c2.7,5.2-0.1,10.8-3.1,15.2c-0.4,0.6,0.6,0.8,0.9,0.4c2.5-3.7,4.9-8.1,4.2-12.7c-0.5-3.5-2.9-6.8-6.5-7.6
						c-1-0.2-2.1-0.2-3.1-0.6c-1.4-0.7-1.5-2.2-1.6-3.6c-0.1-2.7-0.1-5.3,0.1-8s0.5-5.5,1.1-8.1c0.2-1.3,0.5-2.6,0.8-3.9
						c0.3-1.3,0.8-2.6,1-3.8c0.5-3.1-4.7-3.4-5-6.3C53,139.6,51.9,139.8,51.9,140.4L51.9,140.4z"/>
				</g>
			</g>
			<g>
				<g>
					<path class="st8" d="M57.1,163.1c-1.5-1.6-2.8-5.2-5.7-4.2c-1.1,0.4-1.7,1.4-2.1,2.5c-0.6,1.6-1,3.3-1.4,4.9
						c-1.6,7.1-1.8,14.6-4.4,21.5c-0.2,0.5,0.7,0.5,0.8,0.1c2.1-5.4,2.6-11.2,3.6-16.9c0.5-3,1.1-6,2-8.8c0.2-0.6,0.4-1.2,0.7-1.7
						c0.8-1.3,2.2-1.3,3.3-0.4c1.1,0.9,1.6,2.3,2.6,3.4C56.6,163.8,57.4,163.4,57.1,163.1L57.1,163.1z"/>
				</g>
			</g>
			<g>
				<g>
					<path class="st8" d="M72.9,161.3c-2.9,0.4-5.5,1.8-8.2,2.7c-0.5,0.2-0.4,0.8,0.2,0.6c2.7-0.9,5.2-2.3,8-2.7
						c0.2,0,0.4-0.1,0.5-0.3C73.3,161.4,73,161.3,72.9,161.3L72.9,161.3z"/>
				</g>
			</g>
			<g>
				<g>
					<path class="st8" d="M59.5,150.3c0.1,8.5,0.3,17.1,0.4,25.6c0.1,8.4-0.5,16.6-2.5,24.7c-1.1,4.5-2.5,9-4,13.4
						c-0.1,0.2,0.8,0.1,0.8-0.1c2.5-7.8,5-15.7,5.9-23.9c1-8.3,0.5-16.8,0.4-25.2c-0.1-4.9-0.2-9.8-0.3-14.7
						C60.4,149.9,59.5,150,59.5,150.3L59.5,150.3z"/>
				</g>
			</g>
			<g>
				<g>
					<path class="st8" d="M49.5,175.7c1.4,7.6,5.8,14.2,7.1,21.8c0.7,4,0.1,7.7-1.2,11.5c-1.3,3.6-2,7.1-1.1,11
						c0.1,0.2,0.9,0,0.8-0.2c-0.9-4.1,0-7.7,1.3-11.5c1.3-3.6,1.7-7.2,1-11c-1.3-7.6-5.8-14.2-7.1-21.8
						C50.3,175.2,49.5,175.4,49.5,175.7L49.5,175.7z"/>
				</g>
			</g>
			<g>
				<g>
					<path class="st8" d="M49.3,146.5c0,2.1,2.4,3,3.7,4.2c0.9,0.7,1.2,1.5,0.9,2.6c-0.6,1.8-1.3,3.5-2.1,5.2
						c-1.6,3.4-3.6,6.7-6.3,9.3c-1.1,1-2.5,2-2.7,3.6c-0.3,1.8,0.9,3.7,1.6,5.2c1.9,3.9,4.2,7.5,6.9,10.8c0.2,0.2,1.2-0.2,1-0.4
						c-2.5-3.1-4.7-6.4-6.5-9.9c-0.8-1.5-1.9-3.4-2-5.1c-0.1-2.1,1.8-3.3,3.1-4.6c2.4-2.5,4.3-5.5,5.8-8.6c0.8-1.7,1.5-3.5,2.2-5.2
						c0.3-0.9,0.5-1.6-0.1-2.5c-1.3-1.7-4.3-2.3-4.3-4.8C50.4,146,49.3,146.2,49.3,146.5L49.3,146.5z"/>
				</g>
			</g>
			<g>
				<g>
					<path class="st8" d="M53.9,145.7c0.8,2.2,3,3.4,4.6,4.9c0.8,0.8,1.6,1.7,1.5,2.9c-0.1,1.7-0.9,3.6-1.4,5.2
						c-1.2,4-2.6,7.9-4.1,11.8c-0.7,1.8-1.5,3.7-2.2,5.5c-0.7,1.6-1.7,3.3-2.1,5c-0.5,1.9,1,3.5,1.9,5c1.2,2,2.5,4,3.7,6
						c0.2,0.3,1,0,0.8-0.4c-1.4-2.2-2.7-4.4-4.1-6.6c-0.7-1.2-1.8-2.4-1.5-3.9c0.2-1.3,1-2.6,1.6-3.8c2-4.5,3.8-9.2,5.4-13.9
						c0.7-2.2,1.4-4.4,2.1-6.6c0.5-1.5,1.3-3.3,0.5-4.9c-1.3-2.6-4.7-3.6-5.8-6.4C54.6,145.1,53.8,145.4,53.9,145.7L53.9,145.7z"/>
				</g>
			</g>
			<g>
				<g>
					<path class="st8" d="M40.6,147.7c3.1,7.2,8.4,13.1,11.8,20.2c1.7,3.4,2.8,7.1,2.6,10.9c-0.2,4.5-2.3,8.8-3.5,13.1
						c-1.2,4.5-1.6,9.4,0.9,13.6c0.3,0.4,1.3,0,1-0.5c-5-8.5,2.1-17.3,2.7-25.9c0.5-7.4-3.8-14-7.6-20c-2.5-3.8-5-7.6-6.8-11.7
						C41.5,146.9,40.4,147.2,40.6,147.7L40.6,147.7z"/>
				</g>
			</g>
			<g>
				<g>
					<path class="st8" d="M42.4,173.8c3.1,6.3,2.1,13.5,2.8,20.2c0.3,3.4,1.1,6.7,2.8,9.8c1.5,2.7,3.5,5,5.5,7.3
						c2.4,2.8,4.8,5.7,6.2,9.2c0.1,0.2,0.9-0.1,0.8-0.2c-2.5-5.9-7.6-10.1-11-15.4c-3.8-6-3.5-13-3.8-19.8
						c-0.2-3.9-0.7-7.8-2.4-11.3C43.1,173.4,42.3,173.7,42.4,173.8L42.4,173.8z"/>
				</g>
			</g>
			<g>
				<g>
					<path class="st9" d="M47.4,152.7c-1.2,16-9.8,30.9-8.5,47.3c0,0.2,1.1,0,1.1-0.3c-1.3-16.3,7.3-31.2,8.5-47.3
						C48.5,152.3,47.4,152.4,47.4,152.7L47.4,152.7z"/>
				</g>
			</g>
			<g>
				<g>
					<path class="st8" d="M54.2,149.4c-1.1,2.9-3.2,5.2-3.7,8.3c-0.4,2.4-0.1,5.7-2.3,7.3c-0.6,0.4,0.3,0.8,0.7,0.5
						c2.3-1.6,2.2-4.6,2.6-7.1c0.2-1.6,0.7-3,1.4-4.4c0.8-1.5,1.8-2.9,2.4-4.6C55.5,148.9,54.4,148.9,54.2,149.4L54.2,149.4z"/>
				</g>
			</g>
			<g>
				<g>
					<path class="st8" d="M40.8,151.3c-1.2,2.5-1.6,5-1.4,7.8c0.2,2.8,0.7,5.6,0.6,8.5c-0.3,6-1.2,12.9,3.9,17.2
						c0.2,0.2,1.2-0.2,1-0.4c-5.1-4.3-4.1-11.2-3.9-17.1c0.1-2.7-0.3-5.3-0.6-7.9c-0.2-2.9,0-5.6,1.3-8.2
						C41.9,151,40.9,151.1,40.8,151.3L40.8,151.3z"/>
				</g>
			</g>
			<g>
				<g>
					<path class="st8" d="M72.2,146.8c-2,0.9-2.4,4.2-2.7,6c-0.6,3.7-0.8,7.4-1.1,11.1c-0.2,1.7-0.4,3.4-0.8,5
						c-0.2,1.1-0.5,2.4-1.3,3.2c-0.5,0.5-1.3,0.5-2,0.7c-1.2,0.3-2.5,0.6-3.6,1.2c-2.5,1.2-3.7,3.4-4.2,6c-1.5,8-2.2,16.2-2.9,24.2
						c0,0.4,0.8,0.3,0.8-0.1c0.6-7,1.4-14.1,2.4-21.1c0.5-3.4,0.8-7,4.2-8.7c1.2-0.6,2.5-0.9,3.8-1.2c0.6-0.1,1.3-0.2,1.8-0.6
						c1.8-1.2,2.1-4.5,2.3-6.4c0.5-3.6,0.7-7.2,1.1-10.8c0.2-1.8,0.4-3.5,0.8-5.2c0.3-1,0.6-2.6,1.7-3.1
						C73,147,72.6,146.6,72.2,146.8L72.2,146.8z"/>
				</g>
			</g>
			<g>
				<g>
					<path class="st7" d="M45.2,147.3c0.4,0.9,2,0.8,2.7,0.8c1.4,0.1,2.8-0.1,4.2,0.2c0.7,0.1,0.6,0.3,0.6,1
						c-0.1,1.4-0.5,2.8-0.6,4.2c-0.2,2.8,0.4,5.5,1.1,8.2c0.1,0.5,1.2,0.2,1.1-0.3c-0.7-2.8-1.4-5.6-1-8.5c0.2-1.4,0.6-2.8,0.5-4.2
						c0-0.5-0.1-0.8-0.6-0.9c-1.1-0.5-2.6-0.3-3.8-0.3c-0.7,0-1.4,0-2-0.1c-0.2,0-1,0-1.1-0.3C46.1,146.5,45,146.8,45.2,147.3
						L45.2,147.3z"/>
				</g>
			</g>
			<g>
				<g>
					<path class="st8" d="M45.1,172.4c-0.2,6.2-1.5,12.4-3.8,18.2c-0.2,0.4,0.7,0.5,0.8,0.1c2.4-5.8,3.7-12,3.8-18.3
						C45.9,171.9,45.1,172,45.1,172.4L45.1,172.4z"/>
				</g>
			</g>
			<g>
				<g>
					<path class="st7" d="M52.5,169.5c-1,5.9-1.6,11.8-1.7,17.7c-0.1,4.7,1.2,11-2.3,14.8c-0.4,0.4,0.4,0.5,0.7,0.3
						c3.4-3.8,2.4-9.5,2.4-14.2c0-6.3,0.6-12.5,1.7-18.7C53.4,169,52.6,169.1,52.5,169.5L52.5,169.5z"/>
				</g>
			</g>
			<g>
				<g>
					<path class="st8" d="M34.7,185.4c7.1-10.5,12.5-22,16-34.2c0.1-0.5-0.7-0.5-0.8-0.1c-3.5,12.1-8.8,23.6-15.9,34
						C33.7,185.6,34.4,185.8,34.7,185.4L34.7,185.4z"/>
				</g>
			</g>
			<g>
				<g>
					<path class="st8" d="M46.3,185c0.4,0,1.2-0.5,0.4-0.5C46.4,184.5,45.6,185,46.3,185L46.3,185z"/>
				</g>
			</g>
			<g>
				<g>
					<path class="st8" d="M58,170.4c-0.6,0.5-1.2,0.9-1.7,1.4c-0.4,0.5-0.8,1.1-0.5,1.8c0.1,0.2,0.9,0,0.8-0.2
						c-0.2-0.6,0-1.2,0.4-1.6c0.5-0.5,1-0.9,1.6-1.3c0.1-0.1,0.1-0.2-0.1-0.2C58.4,170.2,58.2,170.3,58,170.4L58,170.4z"/>
				</g>
			</g>
			<g>
				<g>
					<path class="st8" d="M61.6,162.8c0.2,0,0.9-0.4,0.4-0.4C61.7,162.4,61,162.8,61.6,162.8L61.6,162.8z"/>
				</g>
			</g>
			<g>
				<g>
					<path class="st8" d="M40.9,195.1c1.9,4.9,3.8,9.8,5.8,14.7c1,2.5,1.9,4.8,0.7,7.4c-0.8,1.7-2,3.1-2.4,5
						c-0.1,0.3,0.8,0.2,0.8-0.1c0.4-2,1.8-3.6,2.6-5.4c1-2.3,0.2-4.4-0.7-6.6c-2-5-4-10.1-5.9-15.1
						C41.6,194.6,40.8,194.8,40.9,195.1L40.9,195.1z"/>
				</g>
			</g>
			<g>
				<g>
					<path class="st8" d="M43.7,178.9c1.7,5.1,3.4,10.2,5.1,15.3c0.8,2.4,1.7,4.8,2.4,7.2c0.6,2,1.1,4.4-0.5,6
						c-0.2,0.2,0.6,0.2,0.8,0c1.3-1.4,1.3-3.3,0.9-5.1c-0.6-2.5-1.6-5-2.4-7.5c-1.8-5.4-3.6-10.8-5.4-16.2
						C44.4,178.4,43.6,178.6,43.7,178.9L43.7,178.9z"/>
				</g>
			</g>
			<g>
				<g>
					<path class="st8" d="M29.4,151.9c4.4,7.5,9.7,16.2,8.9,25.3c-0.2,2.2-0.8,4.3-1.8,6.3c-0.9,1.8-2.3,3.4-2.4,5.4
						c-0.1,2.1,0.8,4.4,1.3,6.5c0.6,2.5,1.2,4.9,1.8,7.4c0.1,0.4,0.9,0.2,0.8-0.2c-0.6-2.6-1.2-5.1-1.8-7.7
						c-0.5-2.2-1.6-4.9-1.1-7.1c0.6-2.1,2.2-3.9,2.9-6c0.7-1.9,1.1-3.9,1.1-5.9c0.2-8.8-4.8-17-9.1-24.3
						C29.9,151.2,29.1,151.5,29.4,151.9L29.4,151.9z"/>
				</g>
			</g>
			<g>
				<g>
					<path class="st7" d="M51.3,171.7c0.1,0.8,0.1,1.7,0,2.5c-0.1,0.7-0.4,1.4-0.7,2.1c-0.5,1.1-1.2,2.4-0.4,3.6
						c0.2,0.3,1.3-0.1,1-0.4c-0.8-1.2,0.2-2.6,0.7-3.7c0.3-0.7,0.5-1.4,0.6-2.1c0.1-0.8,0-1.5-0.1-2.3
						C52.4,171.1,51.3,171.3,51.3,171.7L51.3,171.7z"/>
				</g>
			</g>
			<g>
				<g>
					<path class="st8" d="M54.7,188.2c1,4.7-0.8,9.8-4.5,12.8c-0.4,0.4,0.2,0.7,0.6,0.4c3.9-3.2,5.8-8.5,4.8-13.5
						C55.4,187.6,54.6,187.8,54.7,188.2L54.7,188.2z"/>
				</g>
			</g>
			<g>
				<g>
					<path class="st8" d="M34.9,188.2c3.3,8.4,6,17,7.8,25.9c0.1,0.4,0.9,0.2,0.8-0.2c-1.9-8.8-4.5-17.5-7.8-25.9
						C35.6,187.6,34.7,187.8,34.9,188.2L34.9,188.2z"/>
				</g>
			</g>
			<g>
				<g>
					<path class="st8" d="M35.8,193.8c3,4.7,5.6,9.6,7.8,14.7c1.1,2.5,2,5,2.9,7.6c0.4,1.4,0.9,2.7,1.3,4.1c0.2,0.8,0.3,2,1.3,2.2
						c0.2,0,0.9-0.3,0.7-0.3c-1.1-0.2-1.3-2.6-1.6-3.5c-0.4-1.3-0.8-2.6-1.2-3.9c-0.9-2.5-1.8-4.9-2.9-7.4
						c-2.1-4.8-4.6-9.5-7.4-13.9C36.5,193.4,35.8,193.7,35.8,193.8L35.8,193.8z"/>
				</g>
			</g>
			<g>
				<g>
					<path class="st8" d="M50.4,191c-5.2,0.7-9.1,4.5-11.5,8.9c-1.3,2.5-2.5,5.1-3.2,7.8c-0.8,2.7-1.1,5.5,0.2,8.1
						c0.1,0.3,1,0,0.8-0.2c-2.2-4.6,0.3-10.4,2.4-14.6c2.2-4.5,5.9-8.9,11.2-9.6C50.7,191.4,50.9,190.9,50.4,191L50.4,191z"/>
				</g>
			</g>
			<g>
				<g>
					<path class="st8" d="M49.2,199.8c-1.2,3.9-1.8,7.9-1.7,12c0.1,3.8,1,7.9-0.9,11.4c-0.1,0.1,0.7,0.1,0.8-0.1
						c1.8-3.3,1.1-7.1,0.9-10.6c-0.2-4.3,0.4-8.7,1.7-12.8C50.1,199.5,49.3,199.6,49.2,199.8L49.2,199.8z"/>
				</g>
			</g>
			<g>
				<g>
					<path class="st7" d="M39.8,165.4c2.7,7.1,5.4,14.5,5.7,22.2c0.3,7.6-3,15.2-1.3,22.7c0.1,0.3,0.9,0,0.8-0.2
						c-1.7-7.6,1.6-15.1,1.3-22.7c-0.3-7.7-3-15-5.7-22.2C40.5,164.9,39.7,165.1,39.8,165.4L39.8,165.4z"/>
				</g>
			</g>
		</g>
		<polygon class="st13" points="71.3,218.3 142.6,189.4 142.2,240.7 71.2,276.1 		"/>
		<g>
			<g>
				<path class="st8" d="M49,219.6c-1-11.9,0.8-23.8,0-35.8c-0.2-2.9-0.6-5.8-1.2-8.7c-0.5-2.5-1.2-5-2.4-7.2
					c-2-3.7-5.4-6.5-8.7-9.1c-3.8-3-8-5.9-11-9.8c-0.2-0.3-1.3,0.1-1,0.4c5.3,6.9,13.9,10.3,18.8,17.5c1.4,2,2.1,4.4,2.7,6.7
					c0.7,2.8,1.2,5.7,1.5,8.7c0.6,5.8,0.4,11.6,0.2,17.3c-0.2,6.7-0.6,13.5,0,20.2C48,220.2,49.1,220,49,219.6L49,219.6z"/>
			</g>
		</g>
		<g>
			<g>
				<g>
					<path class="st8" d="M46.8,166.6c7.7,14.3,5.9,31.6,5.5,47.2c-0.1,5.1-0.3,10.2-0.4,15.2c0,0.4,0.8,0.3,0.8-0.1
						c0.2-9.1,0.5-18.1,0.7-27.2c0.2-7.8,0.2-15.6-1.4-23.3c-0.9-4.3-2.3-8.4-4.4-12.3C47.4,165.9,46.6,166.2,46.8,166.6L46.8,166.6
						z"/>
				</g>
			</g>
			<g>
				<g>
					<path class="st8" d="M33,149.6c3.6,2.1,7.5,3.7,11,6.1c1.7,1.2,3.5,2.7,4.4,4.7c1.3,2.7,2.3,5.6,3,8.5c0.6,2.9,0.6,5.8-0.5,8.6
						c-0.9,2.4-2.4,4.6-3.5,6.9c-2.1,4.7-1.6,9.8,0.7,14.4c1.3,2.7,3.4,4.7,5.1,7.1c2.3,3.2,2,6.7,1.1,10.3c-0.1,0.4,1,0.2,1.1-0.1
						c0.7-2.9,1.3-6.1-0.1-8.9c-1.2-2.4-3.2-4.1-4.7-6.3c-3.1-4.6-4.5-10.5-2.4-15.8c1-2.4,2.5-4.6,3.6-7c1.1-2.6,1.4-5.3,1-8.1
						c-0.5-3-1.6-5.9-2.7-8.7c-0.8-2-2-3.5-3.6-4.9c-3.8-3.1-8.3-4.8-12.5-7.2C33.5,148.8,32.5,149.3,33,149.6L33,149.6z"/>
				</g>
			</g>
			<g>
				<g>
					<path class="st8" d="M39.6,149.3c0.2,1.5,1.3,2.4,2.5,3.3c1.1,0.8,2.7,1.6,3.2,3c0.3,1-0.1,2.1-0.3,3c-0.2,1.5-0.4,2.9-0.6,4.4
						c-0.3,2.7-0.5,5.4-0.5,8.2c-0.1,2.9,0,5.8,0.2,8.7c0.1,2.1-0.1,5.3,1.6,7c1.4,1.4,3.7,1.2,5.3,2.4c1.8,1.2,3,3.2,3.7,5.2
						c2.1,5.4,0.4,11.1-2.2,16c-0.1,0.3,0.9,0.2,1.1-0.2c2.2-4.3,3.9-9.2,2.8-14.1c-0.8-3.7-3-7.5-6.9-8.5c-1.1-0.3-2.2-0.5-3-1.4
						c-1-1.1-1-2.9-1.2-4.3c-0.3-2.9-0.4-5.8-0.4-8.7c0-3,0.1-6,0.4-9c0.1-1.3,0.3-2.7,0.5-4c0.2-1.4,0.6-2.8,0.7-4.1
						c0.2-3.4-5.2-3.9-5.7-7.2C40.6,148.7,39.5,149,39.6,149.3L39.6,149.3z"/>
				</g>
			</g>
			<g>
				<g>
					<path class="st8" d="M48,160.8c0.8,9.4,1.6,18.9,2.3,28.3c0.7,9.1,0.8,18.2-0.4,27.3c-0.7,5-1.7,10-2.7,15
						c-0.1,0.4,0.8,0.3,0.8-0.1c1.8-8.9,3.5-17.8,3.7-26.9c0.2-9.3-0.8-18.5-1.6-27.7c-0.4-5.4-0.9-10.8-1.3-16.2
						C48.8,160.1,48,160.3,48,160.8L48,160.8z"/>
				</g>
			</g>
			<g>
				<g>
					<path class="st8" d="M40.7,188.3c1.8,8.4,6.2,16,8.1,24.4c1,4.4,0.9,8.6-0.1,12.9c-1,4.2-1.3,8.2-0.2,12.4
						c0.1,0.4,0.9,0.1,0.8-0.2c-0.6-2.2-0.8-4.5-0.7-6.8c0.1-2.2,0.7-4.3,1.1-6.4c0.9-4.1,0.8-8.1-0.1-12.2
						c-1.9-8.4-6.3-16-8.1-24.4C41.5,187.7,40.6,187.9,40.7,188.3L40.7,188.3z"/>
				</g>
			</g>
			<g>
				<g>
					<path class="st8" d="M44.3,153.7c0.2,4.7-1,9.4-2.3,13.8c-1.2,4.2-2.9,8.4-5.7,11.7c-1.1,1.3-2.2,2.4-2.2,4.2
						c0.1,2.2,1.4,4.5,2.3,6.5c1.9,4.1,4.1,7.9,6.7,11.6c0.3,0.4,1.3,0,1-0.5c-2.6-3.7-4.9-7.7-6.8-11.8c-0.9-1.9-2.3-4.3-2.1-6.4
						c0.2-2,2.3-3.6,3.4-5.1c2.2-3.2,3.6-7,4.6-10.7c1.2-4.4,2.3-8.9,2.1-13.4C45.4,153,44.3,153.2,44.3,153.7L44.3,153.7z"/>
				</g>
			</g>
			<g>
				<g>
					<path class="st8" d="M42.1,192.6c-0.4,1.1-0.6,2.2-0.3,3.4c0.4,1.2,1.1,2.3,1.7,3.4c1.4,2.5,2.8,5,4.2,7.5c0.2,0.3,1,0,0.8-0.3
						c-1.3-2.3-2.6-4.7-3.9-7c-0.6-1.1-1.4-2.2-1.8-3.4c-0.5-1.2-0.2-2.4,0.2-3.6C43,192.2,42.2,192.3,42.1,192.6L42.1,192.6z"/>
				</g>
			</g>
			<g>
				<g>
					<path class="st8" d="M36.5,154.4c3.5,8.6,7,17.2,8.8,26.4c0.8,4.4,1.2,8.9,0.8,13.4c-0.4,4.6-1.7,9-2.3,13.6
						c-0.6,4.7-0.4,9.7,1.9,13.9c0.1,0.2,0.9-0.1,0.8-0.2c-4.4-8.3-0.9-17.1,0.3-25.7c1.2-9-0.9-18.1-3.7-26.6
						c-1.7-5.1-3.7-10-5.7-14.9C37.3,154,36.5,154.3,36.5,154.4L36.5,154.4z"/>
				</g>
			</g>
			<g>
				<g>
					<path class="st8" d="M34,185.7c3.2,7.1,3,15,4,22.6c0.5,3.8,1.4,7.5,3.1,10.9c1.5,3.1,3.6,5.9,5.6,8.8
						c2.5,3.4,4.9,6.9,6.5,10.9c0.1,0.2,0.9,0,0.8-0.2c-2.7-6.7-7.9-12-11.4-18.2c-3.8-6.9-4.1-14.5-4.9-22.2
						c-0.5-4.4-1.2-8.7-3-12.8C34.7,185.2,33.9,185.5,34,185.7L34,185.7z"/>
				</g>
			</g>
			<g>
				<g>
					<path class="st8" d="M55.3,160.3C50.8,168,46.5,176,45,184.9c-0.8,4.8-0.4,9.6,0,14.4c0.5,5,0.7,10-0.2,15
						c-0.9,4.9-2.6,9.6-5.4,13.8c-0.1,0.1,0.7,0.1,0.8-0.1c5.1-7.7,6.5-16.9,5.8-26c-0.4-5.2-1.1-10.3-0.5-15.5
						c0.5-4.5,1.8-8.9,3.6-13c1.9-4.6,4.4-9,6.9-13.3C56.3,160,55.5,160.1,55.3,160.3L55.3,160.3z"/>
				</g>
			</g>
			<g>
				<g>
					<path class="st9" d="M37,162.4c0.1,17.6-6.6,34.6-4.3,52.2c0.1,0.4,1.2,0.2,1.1-0.3c-2.3-17.6,4.4-34.5,4.3-52
						C38.1,161.8,37,162,37,162.4L37,162.4z"/>
				</g>
			</g>
			<g>
				<g>
					<path class="st7" d="M53.7,193c-2.9,7.2-8.2,13.2-10.7,20.6c-2.6,7.6-2.9,15.9-1.6,23.7c0,0.2,0.9,0,0.8-0.2
						c-1.4-8-1-16.4,1.7-24c2.5-7.2,7.7-13.1,10.6-20.2C54.6,192.7,53.8,192.8,53.7,193L53.7,193z"/>
				</g>
			</g>
			<g>
				<g>
					<path class="st8" d="M43,159.4c-0.8,3.2-2.6,5.9-2.8,9.3c-0.1,2.4,0.5,6-1.6,7.8c-0.5,0.4,0.6,0.5,0.9,0.2
						c2.1-1.8,1.7-5.1,1.8-7.6c0.1-1.7,0.4-3.2,1-4.8c0.6-1.7,1.4-3.3,1.9-5C44.2,158.9,43.1,159.1,43,159.4L43,159.4z"/>
				</g>
			</g>
			<g>
				<g>
					<path class="st8" d="M31.6,147.1c0,1.4,0.2,2.7,0.7,4c0.4,1.1,1.1,2.1,1.5,3.3c0.5,1.5,0.3,2.7-0.1,4.2c-0.6,1.7-1,3.4-1.3,5.1
						c-0.7,3.8-0.9,7.6-0.9,11.5c-0.1,4-0.2,8,0.3,12s1.8,8.1,4.6,11c0.4,0.4,1.4-0.1,1-0.5c-5.5-5.7-4.9-14.6-4.8-21.9
						c0.1-3.8,0.2-7.7,0.8-11.5c0.3-1.9,0.8-3.7,1.4-5.5c0.4-1.1,0.7-2.2,0.5-3.4c-0.2-1.3-0.8-2.4-1.4-3.5c-0.7-1.5-1.1-3-1.1-4.7
						C32.7,146.5,31.6,146.6,31.6,147.1L31.6,147.1z"/>
				</g>
			</g>
			<g>
				<g>
					<path class="st7" d="M41.6,158.3c0.2,2.4-0.3,4.8-0.1,7.3s0.9,4.9,1.5,7.3c0.1,0.2,1.2-0.1,1.1-0.3c-0.6-2.4-1.3-4.8-1.5-7.3
						c-0.2-2.4,0.3-4.8,0.1-7.3C42.7,157.9,41.6,158.1,41.6,158.3L41.6,158.3z"/>
				</g>
			</g>
			<g>
				<g>
					<path class="st8" d="M36.4,184.4c0.3,6.7-0.4,13.5-2.1,20c-0.1,0.2,0.8,0.1,0.8-0.1c1.8-6.5,2.4-13.3,2.1-20.1
						C37.2,184,36.4,184.2,36.4,184.4L36.4,184.4z"/>
				</g>
			</g>
			<g>
				<g>
					<path class="st7" d="M43,181.6c-0.5,6.4-0.6,12.8-0.2,19.2c0.2,3,0.5,6,0.6,9c0.1,2.7,0,5.7-1.6,7.9c-0.2,0.3,0.6,0.3,0.8,0
						c1.5-2.1,1.7-4.6,1.7-7.1c0-2.9-0.4-5.7-0.6-8.6c-0.4-6.8-0.4-13.7,0.2-20.5C43.8,181.2,43,181.4,43,181.6L43,181.6z"/>
				</g>
			</g>
			<g>
				<g>
					<path class="st8" d="M27.9,197.8c5.9-11.6,9.9-24.1,12.1-36.9c0-0.1-0.8,0-0.8,0.2C37,174,33,186.4,27.1,198
						C27.1,198.1,27.8,198,27.9,197.8L27.9,197.8z"/>
				</g>
			</g>
			<g>
				<g>
					<path class="st8" d="M26.7,149.3c1.9,8.5,5.4,16.6,8.2,24.9c2.6,7.8,4.6,16,3.2,24.2c0,0.1,1,0,1.1-0.3
						c1.4-8.2-0.6-16.4-3.2-24.2c-2.8-8.3-6.2-16.3-8.2-24.9C27.8,148.8,26.7,149.1,26.7,149.3L26.7,149.3z"/>
				</g>
			</g>
			<g>
				<g>
					<path class="st8" d="M41.7,144.3c1.4,7.7,5.6,14.5,7.7,22c1.1,3.8,1.4,7.7,0.8,11.6c-0.3,1.8-0.8,3.8-2.1,5.1
						c-1,1-2.3,1.9-1.8,3.5c0.1,0.3,1.2,0,1.1-0.3c-0.6-1.9,1.9-3,2.7-4.5c0.8-1.4,1.2-3.1,1.3-4.8c0.4-3.7,0.1-7.4-0.9-11
						c-2.1-7.5-6.3-14.2-7.7-22C42.7,143.7,41.6,144,41.7,144.3L41.7,144.3z"/>
				</g>
			</g>
			<g>
				<g>
					<path class="st8" d="M34.3,209.4c2.1,5.4,4.1,10.8,6.2,16.2c0.9,2.5,2.3,5.1,1.7,7.8c-0.5,2.2-1.9,4.1-2.1,6.4
						c0,0.3,0.8,0.1,0.8-0.1c0.2-2.3,1.6-4.2,2.1-6.4c0.6-2.6-0.6-5.1-1.5-7.5c-2.1-5.6-4.2-11.1-6.4-16.7
						C35,208.9,34.2,209.1,34.3,209.4L34.3,209.4z"/>
				</g>
			</g>
			<g>
				<g>
					<path class="st8" d="M35.6,191.5c1.9,5.6,3.8,11.3,5.7,16.9c0.9,2.7,1.8,5.4,2.7,8.2c0.7,2.1,1.7,5.2,0.2,7.2
						c-0.3,0.4,0.5,0.5,0.7,0.2c1.3-1.7,1-3.9,0.5-5.8c-0.7-2.9-1.9-5.8-2.8-8.6c-2-6.1-4.1-12.2-6.1-18.3
						C36.3,190.9,35.5,191.1,35.6,191.5L35.6,191.5z"/>
				</g>
			</g>
			<g>
				<g>
					<path class="st8" d="M26.3,158.2c3.6,6.9,5.5,14.6,5.7,22.3c0.1,3.9-0.3,7.8-1.3,11.5c-0.4,1.7-1,3.3-1.6,4.9
						c-0.7,1.8-1.6,3.4-1.4,5.4c0.2,2.5,1.1,5,1.7,7.4c0.7,2.6,1.4,5.3,2.1,7.9c0.1,0.2,0.9,0,0.8-0.2c-1.2-4.5-2.5-9-3.5-13.6
						c-0.3-1.1-0.4-2.2-0.2-3.4c0.2-1,0.7-2,1.1-2.9c0.7-1.6,1.3-3.2,1.7-4.9c2-7.2,1.9-14.9,0.4-22.2c-0.9-4.3-2.5-8.5-4.5-12.5
						C27,157.8,26.2,158,26.3,158.2L26.3,158.2z"/>
				</g>
			</g>
			<g>
				<g>
					<path class="st7" d="M42.2,184c0.1,0.8,0.2,1.7,0.2,2.5s-0.2,1.6-0.4,2.4c-0.4,1.3-1.1,2.8-0.3,4.1c0.1,0.2,0.9-0.1,0.8-0.2
						c-0.8-1.4-0.1-2.9,0.4-4.3c0.5-1.5,0.4-3.1,0.1-4.7C43,183.6,42.2,183.8,42.2,184L42.2,184z"/>
				</g>
			</g>
			<g>
				<g>
					<path class="st7" d="M30.6,153.3c0.3,0,0.9-0.4,0.3-0.4C30.6,152.9,30,153.3,30.6,153.3L30.6,153.3z"/>
				</g>
			</g>
			<g>
				<g>
					<path class="st8" d="M46.4,202.7c1.1,4.8,0.4,10.5-3.2,14.1c-0.4,0.4,0.5,0.4,0.7,0.2c3.8-3.7,4.5-9.6,3.4-14.5
						C47.1,202.1,46.3,202.3,46.4,202.7L46.4,202.7z"/>
				</g>
			</g>
			<g>
				<g>
					<path class="st8" d="M28.2,201.2c3.7,9.6,6.7,19.4,9.1,29.5c0,0.2,0.9-0.1,0.8-0.2c-2.4-10-5.4-19.9-9.1-29.5
						C29,200.8,28.1,201,28.2,201.2L28.2,201.2z"/>
				</g>
			</g>
			<g>
				<g>
					<path class="st8" d="M29.5,207.6c3.2,5.6,6,11.4,8.4,17.4c1.2,2.9,2.2,5.9,3.2,8.9c0.5,1.5,0.9,2.9,1.4,4.4
						c0.2,0.8,0.4,2.1,1.4,2.3c0.3,0.1,1-0.4,0.5-0.5c-0.7-0.2-0.9-1.5-1-2.1c-0.2-0.7-0.4-1.5-0.7-2.2c-0.5-1.5-0.9-2.9-1.4-4.4
						c-1-2.8-2-5.6-3.2-8.4c-2.3-5.4-4.9-10.7-7.8-15.8C30.1,207,29.3,207.3,29.5,207.6L29.5,207.6z"/>
				</g>
			</g>
			<g>
				<g>
					<path class="st8" d="M42.8,205.5c-5.2,0.4-8.4,4.8-10.2,9.3c-2,5.2-3.9,11.9-1.5,17.3c0.1,0.2,0.9-0.1,0.8-0.2
						c-2.1-4.7-0.8-10,0.7-14.7c1.4-4.7,4.2-10.9,9.9-11.3C42.7,205.9,43.4,205.5,42.8,205.5L42.8,205.5z"/>
				</g>
			</g>
			<g>
				<g>
					<path class="st8" d="M42.2,215.2c-0.8,4.3-1,8.7-0.7,13.1c0.3,4.2,1.7,8.7,0.1,12.8c-0.2,0.4,0.7,0.4,0.8,0.1
						c1.5-3.7,0.5-7.8,0.1-11.6c-0.5-4.8-0.4-9.6,0.6-14.4C43.2,214.7,42.3,214.9,42.2,215.2L42.2,215.2z"/>
				</g>
			</g>
			<g>
				<g>
					<path class="st7" d="M31,176.1c2.9,8.1,5.9,16.3,6.8,24.8s-1.5,17.2,0.5,25.6c0.1,0.4,0.9,0.1,0.8-0.2
						c-2.1-8.4,0.4-17.1-0.5-25.6c-0.9-8.6-3.9-16.8-6.8-24.8C31.7,175.5,30.9,175.7,31,176.1L31,176.1z"/>
				</g>
			</g>
		</g>
		<g>
			<g>
				<path class="st8" d="M37.8,161.5c0.4,2.1,1.2,4.2,2.6,5.9c0.7,0.9,1.6,1.7,2.5,2.4c1.2,0.9,1.2,1.9,1.3,3.3c0.1,1.5,0,3-0.3,4.4
					c-0.2,1.3-0.6,2.7-0.7,4c-0.1,2.4,1.2,4.2,2.7,5.9c0.1,0.2,0.9-0.1,0.8-0.3c-1.9-2.2-3-4.1-2.5-7.1c0.5-2.6,0.9-5.1,0.8-7.7
					c-0.1-1-0.1-1.9-0.9-2.6c-0.8-0.7-1.7-1.3-2.5-2.1c-1.6-1.8-2.7-4-3.1-6.4C38.6,161,37.8,161.2,37.8,161.5L37.8,161.5z"/>
			</g>
		</g>
		<g>
			<g>
				<path class="st8" d="M37.6,179.9c0.4,0,1.2-0.6,0.4-0.6C37.7,179.3,36.9,179.9,37.6,179.9L37.6,179.9z"/>
			</g>
		</g>
		<g>
			<g>
				<path class="st8" d="M35.9,181.5c0.4,0,1.2-0.5,0.4-0.5C36,181,35.2,181.5,35.9,181.5L35.9,181.5z"/>
			</g>
		</g>
		<g>
			<g>
				<path class="st8" d="M37.4,198.2c-0.9-4.5-1.9-9-2.8-13.5c-0.2-0.8-0.4-1.7,0.2-2.3c0.3-0.4,0.7-0.5,1.1-0.6
					c0.5-0.2,1.1-0.4,1.5-0.9c1-1.1,0.6-2.8,0.1-4c-1.1-3.1-3.6-5.4-5.1-8.2c-1-1.8-1.2-3.6-1.5-5.5s-1-3.6-2.1-5.1
					c-0.7-1-1.3-2.3-2.7-2.1c-0.6,0.1-1.1,0.3-1.7,0.4c-0.3,0.1-0.6,0.2-0.9,0.3c-0.1,0-0.2,0.1-0.3,0.1c-0.3,0.1-0.4,0-0.2-0.3
					c-0.1-0.4,0.1-0.6,0.5-0.7c0.5-0.2,0.1-0.7-0.4-0.5c-0.6,0.2-1.7,1.5-0.8,2.1c0.6,0.4,1.9-0.2,2.5-0.4c0.4-0.1,1.2-0.5,1.6-0.4
					c0.4,0.1,0.8,0.8,1.1,1.1c0.4,0.5,0.8,1,1.1,1.5c1.3,2,1.4,4,1.8,6.3c0.6,3.6,3.1,6.2,5,9.2c0.9,1.4,2.1,3.6,1.7,5.3
					c-0.4,1.8-3.1,1.3-3.5,3.1c-0.2,1,0.2,2.2,0.4,3.1c0.3,1.4,0.6,2.7,0.9,4.1c0.6,2.7,1.1,5.5,1.7,8.2
					C36.6,198.8,37.5,198.6,37.4,198.2L37.4,198.2z"/>
			</g>
		</g>
		<g>
			<g>
				<path class="st8" d="M28.9,203.1c-0.7-4.5-1.4-8.9-2.1-13.4c-0.1-0.5-0.1-1-0.2-1.5c-0.1-0.5-0.4-1.3-0.3-1.7
					c0.3-1,1.1-0.4,1.8-0.5c1-0.1,1.9-0.7,2.4-1.6c0.8-1.5,0.1-3.4-0.5-4.9c-0.7-1.7-1.6-3.3-2.7-4.7c-1.1-1.4-3.1-2.8-2.9-4.8
					c0.1-1.6,1.1-2.9,0.9-4.6c-0.5-3.5-4.2-6-6.5-8.3c-0.2-0.2-1,0.1-0.8,0.3c2.2,2.2,5.3,4.4,6.3,7.5c0.5,1.7-0.2,3-0.6,4.7
					s0.5,2.8,1.6,4c1.3,1.4,2.4,3,3.3,4.7c0.8,1.6,1.8,3.8,1.4,5.7c-0.3,1.4-1.4,1.7-2.7,1.5c-0.3-0.1-0.7-0.1-1,0
					c-1.4,0.4-0.7,2.3-0.5,3.3c0.7,4.9,1.5,9.7,2.2,14.6C28.1,203.5,29,203.4,28.9,203.1L28.9,203.1z"/>
			</g>
		</g>
		<g>
			<g>
				<path class="st8" d="M51.9,147.5c0.1,1.1,0.3,2.3,1.3,3c0.6,0.3,1.2,0.4,1.5,1.1c0.3,0.7,0.3,1.5,0.4,2.3
					c0.5,3.4,0.9,6.7,1.4,10.1c0.1,0.4,1.2,0.2,1.1-0.3c-0.5-3.4-0.9-6.7-1.4-10.1c-0.2-1.2-0.1-2.6-1.3-3.3
					c-0.6-0.4-1.3-0.5-1.6-1.3c-0.3-0.6-0.3-1.2-0.3-1.8C52.9,146.8,51.8,147,51.9,147.5L51.9,147.5z"/>
			</g>
		</g>
		<g>
			<g>
				<path class="st8" d="M62.3,203.6c0.4,0,1.2-0.6,0.4-0.6C62.3,203,61.6,203.6,62.3,203.6L62.3,203.6z"/>
			</g>
		</g>
		<g>
			<g>
				<path class="st8" d="M61.5,162.7c-1.3-6-5.2-11.4-5.5-17.6c-0.2,0.1-0.5,0.2-0.7,0.3c1.7,1,3.5,1.8,5.3,2.7
					c1.7,0.9,3.6,1.9,4.9,3.4c0.2,0.3,1,0,0.8-0.3c-1.2-1.5-3.1-2.5-4.8-3.4c-1.8-1-3.7-1.8-5.5-2.9c-0.2-0.1-0.8,0-0.7,0.3
					c0.3,6.3,4.2,11.6,5.5,17.6C60.8,163.3,61.6,163.1,61.5,162.7L61.5,162.7z"/>
			</g>
		</g>
		<g>
			<g>
				<path class="st8" d="M35.6,225.8c-0.5-14.3,1.5-28.6,1-42.9c0-0.5-1.1-0.3-1.1,0.1c0.4,14.3-1.5,28.6-1,42.9
					C34.5,226.5,35.6,226.2,35.6,225.8L35.6,225.8z"/>
			</g>
		</g>
		<g>
			<g>
				<path class="st8" d="M46,183c0.4,0,1.1-0.7,0.4-0.7C46,182.3,45.3,183,46,183L46,183z"/>
			</g>
		</g>
		<path class="st14" d="M16.6,203.4l52.3,24.9c-0.2-0.4,53.8-27.7,53.8-27.7l-49.3-26.3L16.6,203.4z"/>
		<path class="st12" d="M129.7,188.5l-58.1,27.3l4.4,4.7l60.6-28.6L129.7,188.5z"/>
		<g>
			<g>
				<g>
					<path class="st8" d="M55,139.2c0.7,7.6,4.2,14.6,8.7,20.7c3.1,4.3,6.8,8.4,11,11.7c0.5,0.4,2,1.9,2.7,0.8
						c0.1-0.1-0.9-0.1-1.1,0.2c0.8-1.4,1.2,0.1,0.7-0.4c-0.1-0.1-0.4-0.2-0.5-0.3c-0.6-0.4-1.1-0.8-1.6-1.3c-1.7-1.4-3.3-3-4.8-4.6
						c-4.4-4.6-8.2-9.9-10.8-15.7c-1.6-3.6-2.8-7.4-3.1-11.4C56.1,138.7,55,138.9,55,139.2L55,139.2z"/>
				</g>
			</g>
		</g>
		<g>
			<g>
				<path class="st8" d="M28.7,189.6c-0.6,3,0.1,6.3,0.8,9.2c0.8,3.6,1.7,7.1,2.5,10.7c0.6,3,0.7,5.7,0.3,8.7c-0.4,3.4-1,6.8-1,10.3
					c0,2.8,0.3,6.2,2.9,7.8c0.3,0.2,1.3-0.3,0.9-0.6c-2.5-1.5-2.7-4.9-2.7-7.5c0-3.3,0.6-6.6,1-9.8c0.3-2.7,0.4-5.3-0.1-8
					c-0.6-3.4-1.5-6.8-2.3-10.2s-1.8-7.2-1.1-10.7C29.9,189,28.8,189.2,28.7,189.6L28.7,189.6z"/>
			</g>
		</g>
		<polygon class="st15" points="7.2,187.7 6.8,245.4 76.3,279.1 76.8,220.7 		"/>
		<polygon class="st6" points="16.8,203.5 16.8,245.4 69,270.5 69.2,228 		"/>
		<g>
			<g>
				<path class="st8" d="M39.9,182.8c0.3,0.9,0.6,1.9,0.1,2.7c-0.1,0.2,0.1,0.3,0.3,0.3s0.6-0.1,0.7-0.3c0.5-1,0.3-2.1,0-3.1
					c-0.1-0.2-0.5-0.2-0.6-0.1C40.3,182.5,39.9,182.6,39.9,182.8L39.9,182.8z"/>
			</g>
		</g>
		<g>
			<g>
				<path class="st8" d="M49.8,148.6v-0.2c0,0.1-0.4,0.2-0.4,0.2c0.7-0.2-0.4,0.2-0.4,0.1c0,0,0,0.1,0,0c0,0.1,0.3,0.3,0.4,0.4
					c0.4,0.6,0.8,1.3,1.1,1.9c1,1.8,1.8,3.7,2.6,5.6c0.3,0.8,0.7,1.7,0.9,2.5c0.1,0.4,1.2,0.1,1.1-0.3c-0.5-2-1.4-4-2.3-5.9
					c-0.5-1-1-2-1.5-3c-0.3-0.6-0.6-1.3-1.1-1.7c-0.3-0.2-0.6-0.3-1-0.1c-0.3,0.2-0.4,0.4-0.4,0.7C48.7,149.2,49.8,149,49.8,148.6
					L49.8,148.6z"/>
			</g>
		</g>
		<g>
			<g>
				<path class="st8" d="M32.2,163.8c1.9,10.7,3.1,21.5,3.4,32.3c0,0.2,1.1,0,1.1-0.3c-0.3-10.9-1.5-21.7-3.4-32.3
					C33.3,163.2,32.2,163.5,32.2,163.8L32.2,163.8z"/>
			</g>
		</g>
		<g>
			<g>
				<path class="st8" d="M10.2,156.5c0.6,0.4,1.5,0.4,2.2,0.5c1,0.1,2,0.1,2.9,0.3c0.9,0.1,1.7,0.5,2.5,0.8c1.2,0.4,2.4,0.8,3.4,1.5
					c1.2,0.8,1.5,1.8,1.8,3.1c0.4,1.5,0.8,3.1,1.3,4.6c1.1,3,2.5,5.9,4.3,8.6c0.2,0.3,1.3,0,1-0.4c-1.9-2.8-3.4-5.9-4.5-9.1
					c-0.6-1.6-0.9-3.3-1.3-4.9c-0.2-1-0.8-1.7-1.6-2.3c-0.9-0.7-2-1.1-3.1-1.5c-0.9-0.3-1.9-0.8-2.8-1s-1.8-0.2-2.7-0.3
					c-0.8-0.1-1.9,0-2.6-0.4C10.7,155.8,9.7,156.2,10.2,156.5L10.2,156.5z"/>
			</g>
		</g>
		<polygon class="st5" points="82.7,217.6 13.1,185 7,187.8 76.1,220.6 		"/>
		<path class="st13" d="M76.2,220.5c0.2,0.5,66.2-31.5,66.2-31.5l-0.2,57l-65.8,33L76.2,220.5z"/>
	</g>
</g>
<g>
	<g>
		<g>
			<path class="st8" d="M40.6,17c6.3,1.7,12.7,3.1,19,5.1c1.3,0.4,2.7,1,3.8,2c0.9,0.8,1.7,1.9,2.5,2.8c0.8,1,1.5,2,2.5,2.8
				c0.8,0.7,2.4,1.3,2.1,2.6c-0.1,0.4,1,0.2,1.1-0.2c0.3-1.1-0.7-1.8-1.4-2.4c-1-0.8-1.9-1.5-2.6-2.6c-0.8-1.1-1.6-2.2-2.5-3.2
				c-0.9-0.9-2.1-1.6-3.4-2.1c-3.1-1.2-6.5-1.8-9.6-2.6c-3.5-0.9-6.8-1.9-10.3-2.7C41.2,16.5,40.2,16.9,40.6,17L40.6,17z"/>
		</g>
	</g>
	<g>
		<g>
			<g>
				<path class="st8" d="M39.3,23.2c6.3-1.4,12.6,0.8,18.5,3.3s11.6,5.4,17.4,8c0.3,0.2,1.1-0.4,1-0.4c-6.2-2.9-12.5-6-18.8-8.7
					c-5.7-2.3-11.7-4-17.8-2.6C39.1,22.9,38.5,23.4,39.3,23.2L39.3,23.2z"/>
			</g>
		</g>
		<g>
			<g>
				<path class="st8" d="M27.7,23.6c2.2-2.3,5.4-2.7,8.4-2.9c3.2-0.4,6.8-0.7,9.2,1.7c2,1.8,3,4.4,5.2,6c2.1,1.8,5,2.1,7.6,1.6
					c1.7-0.4,3-1.2,4.5-1.9c2.3-1,4.1,0.2,5.9,1.6c0.4,0.4,1.3-0.3,0.8-0.6c-1.2-1-2.5-2-4.2-2.2c-1.5-0.2-2.8,0.6-4.3,1.2
					c-3.2,1.6-7.3,1.9-10-0.8c-2.1-2-3.3-5.1-5.9-6.6c-2.8-1.6-6.2-1.2-9.3-0.8c-3.2,0.4-6.6,1-9,3.4C26.2,23.7,27.3,24,27.7,23.6
					L27.7,23.6z"/>
			</g>
		</g>
		<g>
			<g>
				<path class="st8" d="M42.5,15.1c-0.1,2-0.2,3.8-0.2,5.8c0,1.7-0.2,3.6,0.2,5.2c0.2,1.2,1.1,1.6,2.2,1.7c1.7,0.2,3.6,0.1,5.2-0.1
					s3.5-0.5,5.1-0.9c0.8-0.2,1.7-0.4,2.5-0.7c0.7-0.2,1.6-0.6,2.2,0.1c0.3,0.3,0.4,0.8,0.6,1.1c0.7,1.6,1.2,3.4,2.1,4.9
					c0.6,0.9,1.2,1.4,2.4,1.2c0.7-0.2,0.5-0.7-0.2-0.6c-1.1,0.3-2.2-3.3-2.5-4c-0.4-1-0.8-2.7-1.8-3.3c-0.9-0.6-2.1-0.2-3.1,0.1
					c-1.7,0.5-3.4,0.9-5.2,1.2c-1.7,0.3-3.4,0.4-5.1,0.4c-0.8,0-1.7,0.1-2.5-0.2c-0.9-0.3-1.2-0.9-1.2-1.8c-0.3-3.4-0.2-6.8,0-10.2
					C43.6,14.6,42.5,14.9,42.5,15.1L42.5,15.1z"/>
			</g>
		</g>
		<g>
			<g>
				<path class="st8" d="M23.4,20.1c2.6-3.4,6.9-0.3,9.2,1.5c2.7,2,5.7,3.6,8.7,5c1.6,0.7,3.2,1.3,4.9,1.9c1.2,0.4,2.6,1,3.9,0.6
					c1.1-0.3,1.6-1.1,2.1-2c0.8-1.5,1.9-2.6,3.6-2.8c3.8-0.5,6.8,2.6,8.9,5.3c0.2,0.3,1.2-0.1,1-0.4c-2-2.6-4.4-5.1-7.6-5.5
					c-2.5-0.3-5.3,0.6-6.6,2.8c-0.5,0.9-0.8,2.1-2.1,2c-1-0.1-2.1-0.6-3-0.9c-1.9-0.6-3.6-1.3-5.4-2.2c-1.9-0.9-3.7-2-5.5-3.1
					c-1.5-1-2.8-2.1-4.4-2.9c-2.6-1.5-6.6-2-8.6,0.8C22.2,20.5,23.2,20.4,23.4,20.1L23.4,20.1z"/>
			</g>
		</g>
		<g>
			<g>
				<path class="st8" d="M46,15c-0.5,3.1,1,6.8-1,9.6c-1,1.3-2.8,1.1-4.3,2.1c-0.9,0.7-1.2,1.7-0.5,2.6c0.8,1.1,2.4,2,3.6,2.6
					c1.4,0.9,2.8,1.6,4.3,2.4c2.9,1.5,6,2.9,8.6,5.2c0.3,0.3,1.2-0.2,1-0.4c-2.4-2-5.1-3.4-7.7-4.7c-2.8-1.4-6-2.8-8.2-4.9
					c-0.8-0.8-1.1-1.9,0-2.6c0.6-0.4,1.3-0.4,2-0.7c1.2-0.4,2.1-1.2,2.6-2.3c1.4-2.8,0.2-6,0.7-9.1C47.1,14.4,46.1,14.6,46,15L46,15
					z"/>
			</g>
		</g>
		<g>
			<g>
				<path class="st8" d="M36.1,21c7.1,2.2,14.3,4.3,21.1,6.8c6.8,2.6,12.6,6.4,18.3,10.8c0.4,0.3,1.3-0.2,1-0.4
					c-5.9-4.3-11.7-8.3-18.5-10.8c-6.9-2.6-14.2-4.6-21.4-6.8C36.5,20.3,35.5,20.8,36.1,21L36.1,21z"/>
			</g>
		</g>
		<g>
			<g>
				<path class="st8" d="M50.1,32.8c5.4,0.8,10.9-0.9,16.3,0.2c2.6,0.5,4.6,1.8,6.7,3.3c2,1.5,4.1,2.6,6.6,2.8c0.3,0,0.6,0,0.8-0.2
					c0.1,0,0.4-0.3,0.2-0.3c-2.8-0.2-4.9-1.5-7.1-3.2c-1.9-1.4-3.9-2.6-6.2-2.9c-5.4-1-10.9,0.6-16.3-0.2
					C50.8,32.4,49.9,32.8,50.1,32.8L50.1,32.8z"/>
			</g>
		</g>
		<g>
			<g>
				<path class="st8" d="M17.5,21.2c3.3,0.4,6.7-0.3,10,0c3.6,0.3,6.5,1.9,9.2,4.1c2.4,1.9,4.5,4,6.2,6.4c0.8,1.2,1.2,2.7,2.1,3.8
					c0.7,0.9,1.9,1,2.9,1c3.6-0.2,7.2-1.1,10.6-2.4c0.7-0.3,0.1-0.6-0.4-0.4c-2.1,0.8-4.3,1.4-6.5,1.8c-1,0.2-2,0.4-3.1,0.4
					c-1.2,0.1-2.2-0.2-2.8-1.3c-0.8-1.5-1.4-3-2.5-4.4s-2.5-2.8-3.9-4c-2.8-2.5-5.9-4.7-9.4-5.4c-4-0.7-7.9,0.2-12-0.2
					C17.5,20.5,16.8,21.2,17.5,21.2L17.5,21.2z"/>
			</g>
		</g>
		<g>
			<g>
				<path class="st8" d="M31.8,18.8c3.1,0.1,5.8,2,8.2,3.8c2.5,1.8,5.1,3.6,7.5,5.7c1.2,1,2.4,2,3.6,3c0.9,0.9,1.9,2.1,3,2.6
					c1,0.4,2.2-0.1,3.2-0.4c1.7-0.4,3.4-0.9,5.1-1.2c0.7-0.2,0.6-0.5-0.1-0.4c-1.5,0.4-3.1,0.8-4.6,1.1c-1,0.3-2.2,0.6-3.1,0.1
					c-0.5-0.4-1-0.8-1.4-1.2c-2.1-2-4.4-3.9-6.7-5.7c-2.3-1.8-4.5-3.5-6.9-5.1c-2.1-1.4-4.3-2.7-6.9-2.7
					C32.4,18.3,31.4,18.8,31.8,18.8L31.8,18.8z"/>
			</g>
		</g>
		<g>
			<g>
				<path class="st8" d="M19.4,25.3c7-0.6,14.4-1.2,21.1,1.2c3.5,1.3,6.2,3.7,9.3,5.8c2.8,2,6,3.2,9.3,2.5c0.7-0.2,0.5-0.8-0.2-0.7
					c-4,0.9-7.6-1.7-10.6-4c-2.8-2-5.6-3.9-9-4.8c-6.4-2-13.3-1.3-20-0.8C19,24.6,18.6,25.3,19.4,25.3L19.4,25.3z"/>
			</g>
		</g>
		<g>
			<g>
				<path class="st8" d="M47.8,37.1c5.9-0.8,11.3,2.8,17.1,3.1c5.9,0.3,10.8-3.8,16.4-4.3c0.6-0.1,0.9-0.7,0.2-0.7
					c-6,0.4-10.9,4.7-16.9,4.2c-5.8-0.5-10.9-3.8-16.8-3C47.4,36.5,47,37.2,47.8,37.1L47.8,37.1z"/>
			</g>
		</g>
		<g>
			<g>
				<path class="st8" d="M37.1,15.6c3.3,4.7,6.7,9.5,11.4,12.9c5.2,3.6,11.6,4,16.9,7.5c2.8,2,5.2,4.4,7,7.4c0.3,0.4,1.2,0,1-0.4
					c-3-5-7.7-8.5-13.2-10.4c-3.1-1-6.4-1.8-9.3-3.5c-2.6-1.5-4.7-3.6-6.7-5.8c-2.2-2.5-4.2-5.3-6-8.1
					C37.9,14.8,36.7,15.1,37.1,15.6L37.1,15.6z"/>
			</g>
		</g>
		<g>
			<g>
				<path class="st7" d="M7.1,19c5,4.6,12.2,5.4,18.1,8.3c6,2.8,11.3,7.2,17.1,10.7c3.1,1.9,6.4,3.4,10,4.3c0.3,0.1,1.2-0.4,0.9-0.4
					c-6.5-1.5-11.9-5.5-17.4-9.2c-2.8-1.9-5.6-3.7-8.5-5.2c-2.8-1.4-5.9-2.5-9-3.5c-3.6-1.2-7.3-2.6-10-5.3C7.9,18.5,7,18.9,7.1,19
					L7.1,19z"/>
			</g>
		</g>
		<g>
			<g>
				<path class="st7" d="M37.4,18.2c6.5-0.8,13.3,1.6,17.8,6.3c2.5,2.6,4.2,5.8,6.2,8.7c1.9,2.6,4.1,4.9,6.7,6.7
					c2.9,2,6.3,3.5,9.8,4.2c0.3,0.1,1.2-0.4,0.9-0.4c-7-1.3-12.8-5.6-16.8-11.4c-2-2.8-3.7-5.9-6-8.4c-2.2-2.3-5-4-7.9-5
					c-3.3-1.3-6.8-1.7-10.4-1.2C37.1,17.8,36.6,18.3,37.4,18.2L37.4,18.2z"/>
			</g>
		</g>
		<g>
			<g>
				<path class="st8" d="M13.3,20.1c2-0.2,4-0.4,6-0.1c2,0.4,3.6,1.2,5.1,2.8c1.2,1.2,2.2,2.5,3.7,3.2c1.4,0.7,3.3,1.2,3.8,2.8
					c0.1,0.4,1.2,0,1.1-0.3c-0.5-1.6-2.1-2.2-3.6-2.8c-0.9-0.4-1.8-0.9-2.5-1.6c-0.8-0.8-1.4-1.6-2.2-2.4c-2.9-2.8-7.3-2.4-11.1-2
					C13,19.7,12.6,20.2,13.3,20.1L13.3,20.1z"/>
			</g>
		</g>
		<g>
			<g>
				<path class="st8" d="M14,21.5c2.6,1.3,4.3,3.9,6.2,6c2.1,2.3,4.8,4,7.6,5.3s5.9,2.8,8.9,3.6c2.6,0.7,5.4,0.5,7.7-0.9
					c0.4-0.3-0.7-0.1-0.9,0c-3.1,1.9-7,0.4-10-1c-2.5-1-4.9-2.1-7.3-3.5s-4.4-3.1-6-5.2c-1.5-1.8-3-3.7-5.2-4.8
					C14.7,21,13.9,21.5,14,21.5L14,21.5z"/>
			</g>
		</g>
		<g>
			<g>
				<path class="st7" d="M11.5,22.2c1.8,0,3.6,0,5.4,0c1.7,0,3.6-0.3,5.2,0.2c1.5,0.4,2.7,1.3,4.3,1.9c1.5,0.4,3,0.6,4.5,0.7
					c0.4,0,1.2-0.6,0.4-0.7c-1.8-0.2-3.6-0.4-5.2-1c-1.3-0.6-2.5-1.4-3.9-1.6c-1.6-0.3-3.3-0.1-4.9-0.1c-1.8,0-3.6,0-5.4,0
					C11.5,21.6,10.8,22.2,11.5,22.2L11.5,22.2z"/>
			</g>
		</g>
		<g>
			<g>
				<path class="st8" d="M47.2,35.1c3.9,1.4,7.6,3.6,10.8,6.2c0.4,0.3,1.3-0.2,1-0.4c-3.3-2.8-7-5-11-6.4
					C47.6,34.3,46.6,34.9,47.2,35.1L47.2,35.1z"/>
			</g>
		</g>
		<g>
			<g>
				<path class="st9" d="M46.7,29.6c3.6,1.9,7.2,3.6,11,4.8c3,1.1,7.5,1.6,9.2,4.7c0.2,0.4,1.2-0.1,1.1-0.3
					c-1.7-2.9-5.4-3.6-8.4-4.4c-4.2-1.3-8.1-3.1-11.9-5.2C47.5,29,46.6,29.4,46.7,29.6L46.7,29.6z"/>
			</g>
		</g>
		<g>
			<g>
				<path class="st8" d="M54,44.5c-5.2-6.8-11.5-12.7-18.6-17.7c-0.4-0.3-1.3,0.3-0.9,0.6c7,4.8,13.2,10.8,18.4,17.5
					C53.3,45.3,54.2,44.9,54,44.5L54,44.5z"/>
			</g>
		</g>
		<g>
			<g>
				<path class="st8" d="M14.3,25.5c10.3,1.3,21.1,2.8,29.7,8.9c0.3,0.2,1.2-0.3,1-0.4c-8.8-6-19.5-7.6-29.9-9
					C14.9,25.1,14,25.4,14.3,25.5L14.3,25.5z"/>
			</g>
		</g>
		<g>
			<g>
				<path class="st8" d="M61.2,42.7c3.6-0.2,7.2-0.4,10.8-0.6c1.8-0.1,3.3-0.2,4.5,1.2c0.8,0.9,1.5,1.9,2.6,2.5
					c0.4,0.3,1.3-0.4,0.8-0.7c-1.2-0.7-1.9-1.9-2.8-2.8c-1.1-1-2.5-1.2-4.1-1.2c-4,0.2-7.8,0.4-11.8,0.6
					C60.6,42,60.5,42.8,61.2,42.7L61.2,42.7z"/>
			</g>
		</g>
		<g>
			<g>
				<path class="st8" d="M51.4,37.4c3.6,0,7.2,0,10.8,0c1.8,0,3.6-0.1,5.2,0c1.3,0.1,2.8,0.3,3.5,1.5c0.3,0.4,1.2,0,1-0.5
					c-0.6-1.1-1.8-1.6-3-1.8c-1.7-0.3-3.4-0.1-5.1-0.1c-4.2,0-8.2,0-12.4,0C50.9,36.6,50.6,37.4,51.4,37.4L51.4,37.4z"/>
			</g>
		</g>
		<g>
			<g>
				<path class="st8" d="M19.6,33.5c6-1.2,12.5,0.2,17.7,3.6c1.2,0.8,2.3,1.7,3.3,2.7s1.9,2.5,3.1,3.1c1.2,0.6,3,0.6,4.4,0.8
					c1.9,0.2,3.8,0.4,5.7,0.5c0.3,0,1.2-0.5,0.7-0.5c-2-0.2-4.1-0.4-6-0.5c-1.9-0.2-3.6-0.2-4.9-1.6c-2.1-2.3-4.2-4.3-6.8-5.9
					c-5.1-2.8-11.1-3.9-16.9-2.7C19.3,33.1,18.9,33.5,19.6,33.5L19.6,33.5z"/>
			</g>
		</g>
		<g>
			<g>
				<path class="st8" d="M59.4,32.2c3.2,0.4,6,2.7,7.3,5.8c0.1,0.3,1.2,0,1.1-0.3c-1.2-3.2-4.2-5.5-7.6-5.9c-0.3,0-0.6,0.1-0.8,0.2
					C59.1,32,59.1,32.2,59.4,32.2L59.4,32.2z"/>
			</g>
		</g>
		<g>
			<g>
				<path class="st8" d="M55.4,45.1c6-0.4,12.2-0.2,18.1,0.5c0.4,0.1,1.2-0.6,0.4-0.7c-6.1-0.7-12.4-0.9-18.5-0.5
					C55,44.4,54.7,45.1,55.4,45.1L55.4,45.1z"/>
			</g>
		</g>
		<g>
			<g>
				<path class="st8" d="M59.4,45.5c4.2-1,8.4-1.7,12.6-2c2-0.1,4.2-0.2,6.1-0.1c0.9,0,2.4,0.4,2.9-0.7c0.1-0.3-0.9-0.2-1.1,0.2
					c-0.1,0.2-2.3-0.1-2.5-0.1c-0.9,0-1.9,0-2.8,0c-1.7,0-3.3,0.2-5,0.3c-3.6,0.4-7,0.9-10.5,1.8C58.6,45.2,58.7,45.7,59.4,45.5
					L59.4,45.5z"/>
			</g>
		</g>
		<g>
			<g>
				<path class="st8" d="M60.1,35.7c-0.9,4.8,2.5,9.1,6,11.7c1.2,0.9,2.9,0.7,4.3,0.4c1.7-0.4,3.4-1.2,5.2-1.5
					c0.2,0,0.6-0.2,0.6-0.4s-0.3-0.4-0.5-0.4c-1.5,0.3-2.8,0.9-4.4,1.2c-1.2,0.5-2.9,1.1-4.3,0.2c-3.4-2.7-6.8-6.7-5.9-11.3
					C61.4,35.2,60.3,35.3,60.1,35.7L60.1,35.7z"/>
			</g>
		</g>
		<g>
			<g>
				<path class="st8" d="M65.6,38.2c2.3,1.7,4.8,2.8,7.6,3.7c2.4,0.8,5.2,1,6.9,2.8c0.3,0.3,1.2-0.1,1-0.4c-1.7-1.9-4.3-2.3-6.5-2.8
					c-2.8-0.8-5.7-2.1-8-3.9C66.2,37.4,65.2,38,65.6,38.2L65.6,38.2z"/>
			</g>
		</g>
	</g>
	<g>
		<g>
			<path class="st7" d="M60.2,22.4c4,0.4,8,0.9,12,1.2c2,0.3,4.1,0.4,6,1.2c1.6,0.7,2.9,1.7,4.3,2.7c4.5,3.8,9.6,10,16.3,7.7
				c0.7-0.2,0.5-0.9-0.2-0.7c-3.4,1.1-6.8-0.6-9.5-2.6c-2.6-2-4.7-4.4-7.4-6.3c-2.8-2-6-2.6-9.3-2.8c-4-0.4-7.8-0.8-11.8-1.2
				C60.1,21.6,59.6,22.3,60.2,22.4L60.2,22.4z"/>
		</g>
	</g>
	<g>
		<g>
			<path class="st8" d="M65.3,28.6c6.3-1.4,12.6,0.8,18.5,3.3s11.6,5.4,17.4,8c0.3,0.2,1.1-0.4,1-0.4c-6.2-2.9-12.5-6-18.8-8.7
				c-5.7-2.4-11.7-4.1-17.8-2.7C65.2,28.5,64.5,28.8,65.3,28.6L65.3,28.6z"/>
		</g>
	</g>
	<g>
		<g>
			<path class="st8" d="M53.6,29.1c2.2-2.3,5.4-2.7,8.4-2.9c3.2-0.4,6.8-0.7,9.2,1.7c2,1.8,3,4.4,5.2,6c2.1,1.8,5,2.1,7.6,1.6
				c1.7-0.4,3-1.2,4.5-1.9c2.3-1,4.1,0.2,5.9,1.6c0.4,0.4,1.3-0.3,0.8-0.6c-1.2-1-2.5-2-4.2-2.2c-1.5-0.2-2.8,0.6-4.3,1.2
				c-3.2,1.6-7.3,1.9-10-0.9c-2.1-2-3.3-5.1-6-6.6c-2.8-1.6-6.2-1.2-9.2-0.8c-3.2,0.4-6.6,1-9,3.4C52.3,29.3,53.3,29.5,53.6,29.1
				L53.6,29.1z"/>
		</g>
	</g>
	<g>
		<g>
			<path class="st8" d="M68.5,20.7c-0.1,2-0.2,3.8-0.2,5.8c0,1.7-0.2,3.6,0.2,5.2c0.2,1.2,1.1,1.6,2.2,1.7c1.7,0.2,3.6,0.1,5.2-0.1
				c1.7-0.2,3.5-0.5,5.1-0.9c0.8-0.2,1.7-0.4,2.5-0.7c0.7-0.2,1.6-0.6,2.2,0.1c0.3,0.3,0.4,0.8,0.6,1.1c0.6,1.6,1.2,3.4,2,4.9
				c0.6,0.9,1.2,1.4,2.4,1.2c0.7-0.2,0.5-0.7-0.2-0.6c-1.1,0.3-2.2-3.3-2.5-4c-0.4-1-0.8-2.7-1.8-3.3c-0.9-0.6-2.1-0.2-3.1,0.1
				c-1.7,0.5-3.4,0.9-5.2,1.2c-1.7,0.3-3.4,0.4-5.1,0.4c-0.8,0-1.7,0.1-2.5-0.2c-0.9-0.3-1.2-0.9-1.2-1.8c-0.3-3.5-0.1-6.9,0.1-10.4
				C69.6,20.1,68.5,20.3,68.5,20.7L68.5,20.7z"/>
		</g>
	</g>
	<g>
		<g>
			<path class="st8" d="M79.5,33.3c-0.5,3.1,1,6.8-1,9.6c-1,1.3-2.8,1.1-4.3,2.1c-0.9,0.7-1.2,1.7-0.5,2.6c0.8,1.1,2.4,2,3.6,2.6
				c1.4,0.8,2.8,1.6,4.3,2.4c2.9,1.5,6,2.9,8.6,5.2c0.3,0.3,1.2-0.2,1-0.4c-2.4-2-5.1-3.4-7.7-4.7c-2.8-1.4-6-2.8-8.2-4.9
				c-0.8-0.8-1.1-1.9,0-2.5c0.6-0.4,1.3-0.4,2-0.7c1.2-0.4,2.1-1.2,2.6-2.3c1.4-2.8,0.2-6,0.7-9.1C80.6,32.8,79.6,33,79.5,33.3
				L79.5,33.3z"/>
		</g>
	</g>
	<g>
		<g>
			<path class="st8" d="M62.1,26.5c7.1,2.2,14.3,4.3,21.1,6.8c6.8,2.6,12.6,6.4,18.3,10.8c0.4,0.3,1.3-0.2,1-0.4
				c-5.9-4.3-11.7-8.3-18.5-10.8c-7-2.6-14.3-4.6-21.4-6.8C62.4,25.8,61.5,26.3,62.1,26.5L62.1,26.5z"/>
		</g>
	</g>
	<g>
		<g>
			<path class="st8" d="M51,39.6c3.3,0.4,6.7-0.3,10,0c3.6,0.3,6.5,1.9,9.3,4.1c2.4,1.9,4.5,4,6.2,6.4c0.8,1.2,1.2,2.7,2.1,3.8
				c0.7,0.9,1.9,1,2.9,1c3.6-0.2,7.2-1.1,10.6-2.4c0.7-0.3,0.1-0.6-0.4-0.4c-2.1,0.8-4.3,1.4-6.5,1.8c-1,0.2-2,0.4-3.1,0.4
				c-1.2,0.1-2.2-0.2-2.8-1.3c-0.8-1.5-1.4-3-2.5-4.4s-2.5-2.8-3.9-4c-2.8-2.5-5.9-4.7-9.4-5.4c-4-0.7-7.9,0.2-12-0.2
				C51,38.9,50.2,39.5,51,39.6L51,39.6z"/>
		</g>
	</g>
	<g>
		<g>
			<path class="st8" d="M65.3,37.2c3.1,0.1,5.8,2,8.2,3.8c2.5,1.8,5.1,3.6,7.5,5.7c1.2,1,2.4,2,3.6,3c0.9,0.8,1.9,2.1,3,2.5
				c1,0.4,2.2-0.1,3.2-0.4c1.7-0.4,3.4-0.9,5.1-1.2c0.7-0.2,0.6-0.5-0.1-0.4c-1.5,0.4-3.1,0.8-4.6,1.1c-1,0.3-2.2,0.6-3.1,0.1
				c-0.5-0.4-1-0.9-1.4-1.2c-2.1-2-4.4-3.9-6.7-5.7s-4.5-3.5-6.9-5.1c-2.1-1.4-4.3-2.7-6.9-2.7C65.9,36.7,64.9,37.2,65.3,37.2
				L65.3,37.2z"/>
		</g>
	</g>
	<g>
		<g>
			<path class="st8" d="M52.9,43.6c7-0.6,14.4-1.2,21.1,1.2c3.5,1.3,6.2,3.7,9.2,5.8c2.8,1.9,6,3.2,9.4,2.5c0.7-0.2,0.5-0.8-0.2-0.7
				c-4,0.9-7.6-1.7-10.6-4c-2.8-2-5.6-3.9-9-4.8c-6.4-2-13.3-1.3-20-0.8C52.5,43,52.1,43.6,52.9,43.6L52.9,43.6z"/>
		</g>
	</g>
	<g>
		<g>
			<path class="st7" d="M40.6,37.4c5,4.6,12.2,5.4,18.1,8.3c6,2.8,11.3,7.2,17.1,10.7c3.1,1.9,6.4,3.4,10,4.3
				c0.3,0.1,1.2-0.4,0.9-0.4c-6.5-1.6-12-5.6-17.5-9.2c-2.8-1.9-5.6-3.7-8.5-5.2c-2.8-1.4-6-2.5-9-3.5c-3.6-1.2-7.3-2.6-10-5.3
				C41.5,36.9,40.5,37.3,40.6,37.4L40.6,37.4z"/>
		</g>
	</g>
	<g>
		<g>
			<path class="st7" d="M63.5,23.7c6.5-0.8,13.3,1.6,17.8,6.3c2.5,2.6,4.2,5.8,6.2,8.7c1.9,2.6,4.1,4.9,6.7,6.7
				c2.9,2,6.3,3.5,9.8,4.2c0.3,0.1,1.2-0.4,0.9-0.4c-7-1.4-12.8-5.6-16.8-11.4c-2-2.8-3.7-5.9-6-8.4c-2.2-2.3-5-4-7.9-5
				c-3.3-1.2-6.9-1.5-10.4-1.1C63.1,23.4,62.6,23.8,63.5,23.7L63.5,23.7z"/>
		</g>
	</g>
	<g>
		<g>
			<path class="st8" d="M73.4,25.6c2-0.2,4-0.4,6-0.1c2,0.4,3.6,1.2,5.1,2.8c1.2,1.2,2.2,2.5,3.7,3.2c1.4,0.7,3.3,1.2,3.8,2.8
				c0.1,0.4,1.2,0,1.1-0.3c-0.5-1.6-2.1-2.2-3.6-2.8c-0.9-0.4-1.8-0.9-2.5-1.6c-0.8-0.8-1.4-1.6-2.2-2.4c-3-2.8-7.5-2.6-11.2-2.1
				C73.1,25.2,72.6,25.7,73.4,25.6L73.4,25.6z"/>
		</g>
	</g>
	<g>
		<g>
			<path class="st8" d="M47.5,39.9c2.6,1.3,4.3,3.9,6.2,6c2.1,2.3,4.8,4,7.6,5.3s5.9,2.8,8.9,3.6c2.6,0.7,5.4,0.5,7.7-0.9
				c0.4-0.3-0.7-0.1-0.9,0c-3.1,1.9-7,0.4-10-1c-2.5-1-4.9-2.1-7.3-3.5s-4.4-3.1-6-5.2c-1.5-1.8-3-3.7-5.2-4.8
				C48.3,39.4,47.4,39.8,47.5,39.9L47.5,39.9z"/>
		</g>
	</g>
	<g>
		<g>
			<path class="st7" d="M71.7,27.7c1.8,0,3.6,0,5.4,0c1.7,0,3.6-0.3,5.2,0.2c1.5,0.4,2.7,1.3,4.3,1.9c1.5,0.4,3,0.6,4.5,0.7
				c0.4,0,1.2-0.6,0.4-0.7c-1.8-0.2-3.6-0.3-5.2-1c-1.3-0.6-2.5-1.4-3.9-1.6c-1.6-0.3-3.3-0.1-4.9-0.1c-1.8,0-3.6,0-5.4,0
				C71.7,27,70.9,27.7,71.7,27.7L71.7,27.7z"/>
		</g>
	</g>
	<g>
		<g>
			<path class="st8" d="M80.7,53.5c3.9,1.4,7.6,3.6,10.8,6.2c0.4,0.3,1.3-0.2,1-0.4c-3.3-2.8-7-5-11-6.4
				C81.1,52.7,80.2,53.2,80.7,53.5L80.7,53.5z"/>
		</g>
	</g>
	<g>
		<g>
			<path class="st9" d="M72.2,36.9c3.6,1.9,7.2,3.6,10.9,4.8c3,1.1,7.5,1.6,9.2,4.7c0.2,0.4,1.2-0.1,1.1-0.3
				c-1.7-2.9-5.4-3.6-8.4-4.4c-4.2-1.3-8.1-3.1-11.9-5.2C73,36.5,72,36.8,72.2,36.9L72.2,36.9z"/>
		</g>
	</g>
	<g>
		<g>
			<path class="st8" d="M87.5,62.8C82.2,56,76,50.1,68.9,45.2c-0.4-0.3-1.3,0.3-0.8,0.6c7,4.7,13.2,10.7,18.4,17.4
				C86.8,63.6,87.7,63.3,87.5,62.8L87.5,62.8z"/>
		</g>
	</g>
	<g>
		<g>
			<path class="st8" d="M47.8,43.9c10.3,1.3,21.1,2.8,29.7,8.9c0.3,0.2,1.2-0.3,1-0.4c-8.8-6-19.5-7.6-29.9-9
				C48.4,43.5,47.5,43.8,47.8,43.9L47.8,43.9z"/>
		</g>
	</g>
	<g>
		<g>
			<path class="st8" d="M74.2,48c3.6,0,7.2,0,10.8,0c1.8,0,3.6-0.1,5.2,0c1.3,0.1,2.8,0.3,3.5,1.5c0.3,0.4,1.2,0,1-0.5
				c-0.6-1.1-1.8-1.6-3-1.8c-1.7-0.3-3.4-0.1-5.1-0.1c-4.2,0-8.2,0-12.4,0C73.8,47.3,73.6,48,74.2,48L74.2,48z"/>
		</g>
	</g>
	<g>
		<g>
			<path class="st8" d="M36.9,41.4c6-1.2,12.5,0.2,17.7,3.6c1.2,0.8,2.3,1.7,3.3,2.7s1.9,2.5,3.1,3.1c1.2,0.6,3,0.6,4.4,0.8
				c1.9,0.2,3.8,0.4,5.7,0.5c0.3,0,1.2-0.5,0.7-0.5c-2-0.2-4.1-0.4-6-0.5c-1.9-0.2-3.6-0.2-4.9-1.6c-2.1-2.3-4.2-4.3-6.8-5.9
				C49,40.7,43,39.7,37.2,40.9C36.6,41,36.1,41.6,36.9,41.4L36.9,41.4z"/>
		</g>
	</g>
	<g>
		<g>
			<path class="st7" d="M68.4,38.7c4.9-0.4,9.9-0.1,14.7,0.7c1.1,0.2,2.3,0.4,3.4,0.6c1.1,0.3,2.3,0.4,3.3,0.9c1.4,0.8,2,2.4,3.9,2
				c0.7-0.2,0.5-0.8-0.2-0.6c-0.9,0.2-1.6-1.1-2.2-1.6c-0.7-0.5-1.5-0.8-2.4-0.9c-2.2-0.5-4.4-0.9-6.8-1.2
				c-4.5-0.7-9.2-0.8-13.8-0.5C67.9,38.1,67.6,38.7,68.4,38.7L68.4,38.7z"/>
		</g>
	</g>
	<g>
		<g>
			<path class="st8" d="M73.8,43.8c6-0.4,12.2-0.2,18.1,0.5c0.4,0.1,1.2-0.6,0.4-0.7c-6.1-0.7-12.4-0.9-18.5-0.5
				C73.4,43.3,73.1,43.9,73.8,43.8L73.8,43.8z"/>
		</g>
	</g>
	<g>
		<g>
			<path class="st8" d="M77.8,44.4c4.2-1,8.4-1.7,12.6-2c2-0.1,4.2-0.2,6.1-0.1c0.9,0,2.4,0.4,2.9-0.7c0.1-0.3-0.9-0.2-1.1,0.2
				c-0.1,0.2-2.3-0.1-2.6-0.1c-0.9,0-1.9,0-2.8,0c-1.7,0-3.3,0.2-5,0.3c-3.6,0.4-7,0.9-10.5,1.8C77,44.1,77.1,44.5,77.8,44.4
				L77.8,44.4z"/>
		</g>
	</g>
</g>
</svg>
