<?xml version="1.0" encoding="utf-8"?>
<!-- Generator: Adobe Illustrator 25.2.3, SVG Export Plug-In . SVG Version: 6.00 Build 0)  -->
<svg version="1.1" id="Layer_1" xmlns="http://www.w3.org/2000/svg" xmlns:xlink="http://www.w3.org/1999/xlink" x="0px" y="0px"
	 viewBox="0 0 140 200" style="enable-background:new 0 0 140 200;" xml:space="preserve">
<style type="text/css">
	.st0{fill:none;stroke:#B71549;stroke-width:3.3859;stroke-linecap:round;stroke-miterlimit:10;}
	.st1{fill:none;stroke:#F77441;stroke-width:5.0788;stroke-linecap:round;stroke-miterlimit:10;}
	.st2{fill:none;stroke:#F77441;stroke-width:3.3859;stroke-linecap:round;stroke-miterlimit:10;}
	.st3{fill:#F77441;}
</style>
<g>
	<line class="st0" x1="15.9" y1="105.4" x2="90.2" y2="142.9"/>
	<line class="st0" x1="33.4" y1="96.4" x2="106.7" y2="133.5"/>
	<line class="st0" x1="51.4" y1="87.7" x2="120.7" y2="122.6"/>
	<path class="st1" d="M60.3,90.3"/>
	<path class="st1" d="M56.7,92.2"/>
	<path class="st2" d="M24.4,115.4c1.1-1.4,11.3-6,15.7-7.5s15-6.8,17.8-9.2c2.8-2.4,11.3-7.7,14-7.7"/>
	<path class="st2" d="M38.2,122.4c1.1-1.4,11.3-6,15.7-7.5c4.4-1.5,15-6.8,17.8-9.2c2.8-2.4,11.3-7.7,14-7.7"/>
	<path class="st2" d="M50.7,129.9c1.1-1.4,11.3-6,15.7-7.5c4.3-1.5,15-6.8,17.8-9.2c2.8-2.4,11.3-7.7,14-7.7"/>
	<path class="st2" d="M64.7,136.1c1.1-1.4,11.3-6,15.7-7.5c4.4-1.5,15-6.8,17.8-9.2c2.8-2.4,11.3-7.7,14-7.7"/>
	<line class="st0" x1="24.8" y1="100.7" x2="98.5" y2="138.2"/>
	<line class="st0" x1="42.1" y1="91.9" x2="113.2" y2="128.2"/>
	<g>
		<g>
			<path class="st3" d="M59.8,89.8l7.9-3.9c0.8-0.4,1.8-0.1,2.2,0.7c0.4,0.8,0.1,1.8-0.7,2.2l-5.7,2.8L59.8,89.8z"/>
		</g>
		<g>
			<path class="st3" d="M18.7,114.8c-0.6,0-1.2-0.1-1.5-0.7c-0.4-0.8-0.3-1.8,0.5-2.2c0,0,3-1.3,3.8-1.9l3.4,1.7l-5.4,2.9
				C19.2,114.8,18.9,114.8,18.7,114.8z"/>
		</g>
		<g>
			<path class="st3" d="M25.2,108.1c1.4-0.5,3.9-2.4,6.7-3.9c2.6-1.4,5.4-2.6,6.9-3.3c0.7-0.3,3.6,1.8,3.6,1.8s-5.9,2.6-7.7,3.6
				c-1.9,1-5.6,3.5-6.1,3.5L25.2,108.1z"/>
		</g>
		<g>
			<path class="st3" d="M42.3,98.8c1.4-0.5,3.9-2.4,6.7-3.9c2.6-1.4,5.4-2.6,6.9-3.3c0.7-0.3,3.6,1.8,3.6,1.8S53.5,96,51.7,97
				c-1.9,1-5.6,3.5-6.1,3.5L42.3,98.8z"/>
		</g>
	</g>
	<g>
		<g>
			<path class="st3" d="M72.3,96.3l7.9-3.9c0.8-0.4,1.8-0.1,2.2,0.7c0.4,0.8,0.1,1.8-0.7,2.2L76,98.2L72.3,96.3z"/>
		</g>
		<g>
			<path class="st3" d="M31.3,121.3c-0.6,0-1.2-0.1-1.5-0.7c-0.4-0.8-0.3-1.8,0.5-2.2c0,0,3-1.3,3.8-1.9l3.4,1.7l-5.4,2.9
				C31.8,121.2,31.5,121.3,31.3,121.3z"/>
		</g>
		<g>
			<path class="st3" d="M37.8,114.5c1.4-0.5,3.9-2.4,6.7-3.9c2.6-1.4,5.4-2.6,6.9-3.3c0.7-0.3,3.6,1.8,3.6,1.8s-5.9,2.6-7.7,3.6
				c-1.9,1-5.6,3.5-6.1,3.5L37.8,114.5z"/>
		</g>
		<g>
			<path class="st3" d="M54.9,105.3c1.4-0.5,3.9-2.4,6.7-3.9c2.6-1.4,5.4-2.6,6.9-3.3c0.7-0.3,3.6,1.8,3.6,1.8s-5.9,2.6-7.7,3.6
				c-1.9,1-5.6,3.5-6.1,3.5L54.9,105.3z"/>
		</g>
	</g>
	<g>
		<g>
			<path class="st3" d="M85.9,103l7.9-3.9c0.8-0.4,1.8-0.1,2.2,0.7c0.4,0.8,0.1,1.8-0.7,2.2l-5.7,2.8L85.9,103z"/>
		</g>
		<g>
			<path class="st3" d="M44.8,128c-0.6,0-1.2-0.1-1.5-0.7c-0.4-0.8-0.3-1.8,0.5-2.2c0,0,3-1.3,3.8-1.9l3.4,1.7l-5.4,2.9
				C45.3,128,45.1,128,44.8,128z"/>
		</g>
		<g>
			<path class="st3" d="M51.3,121.3c1.4-0.5,3.9-2.4,6.7-3.9c2.6-1.4,5.4-2.6,6.9-3.3c0.7-0.3,3.6,1.8,3.6,1.8s-5.9,2.6-7.7,3.6
				s-5.6,3.5-6.1,3.5L51.3,121.3z"/>
		</g>
		<g>
			<path class="st3" d="M68.4,112c1.4-0.5,3.9-2.4,6.7-3.9c2.6-1.4,5.4-2.6,6.9-3.3c0.7-0.3,3.6,1.8,3.6,1.8s-5.9,2.6-7.7,3.6
				c-1.9,1-5.6,3.5-6.1,3.5L68.4,112z"/>
		</g>
	</g>
	<g>
		<g>
			<path class="st3" d="M99.2,109.8l7.9-3.9c0.8-0.4,1.8-0.1,2.2,0.7c0.4,0.8,0.1,1.8-0.7,2.2l-5.7,2.8L99.2,109.8z"/>
		</g>
		<g>
			<path class="st3" d="M58.1,134.8c-0.6,0-1.2-0.1-1.5-0.7c-0.4-0.8-0.3-1.8,0.5-2.2c0,0,3-1.3,3.8-1.9l3.4,1.7l-5.4,2.9
				C58.6,134.8,58.4,134.8,58.1,134.8z"/>
		</g>
		<g>
			<path class="st3" d="M64.6,128c1.4-0.5,3.9-2.4,6.7-3.9c2.6-1.4,5.4-2.6,6.9-3.3c0.7-0.3,3.6,1.8,3.6,1.8s-5.9,2.6-7.7,3.6
				c-1.9,1-5.6,3.5-6.1,3.5L64.6,128z"/>
		</g>
		<g>
			<path class="st3" d="M81.7,118.8c1.4-0.5,3.9-2.4,6.7-3.9c2.6-1.4,5.4-2.6,6.9-3.3c0.7-0.3,3.6,1.8,3.6,1.8S93,116,91.1,117
				c-1.9,1-5.6,3.5-6.1,3.5L81.7,118.8z"/>
		</g>
	</g>
	<g>
		<g>
			<path class="st3" d="M112.7,116.6l7.9-3.9c0.8-0.4,1.8-0.1,2.2,0.7c0.4,0.8,0.1,1.8-0.7,2.2l-5.7,2.8L112.7,116.6z"/>
		</g>
		<g>
			<path class="st3" d="M71.7,141.6c-0.6,0-1.2-0.1-1.5-0.7c-0.4-0.8-0.3-1.8,0.5-2.2c0,0,3-1.3,3.8-1.9l3.4,1.7l-5.4,2.9
				C72.2,141.5,71.9,141.6,71.7,141.6z"/>
		</g>
		<g>
			<path class="st3" d="M78.2,134.8c1.4-0.5,3.9-2.4,6.7-3.9c2.6-1.4,5.4-2.6,6.9-3.3c0.7-0.3,3.6,1.8,3.6,1.8s-5.9,2.6-7.7,3.6
				c-1.9,1-5.6,3.5-6.1,3.5L78.2,134.8z"/>
		</g>
		<g>
			<path class="st3" d="M95.3,125.6c1.4-0.5,3.9-2.4,6.7-3.9c2.6-1.4,5.4-2.6,6.9-3.3c0.7-0.3,3.6,1.8,3.6,1.8s-5.9,2.6-7.7,3.6
				c-1.9,1-5.6,3.5-6.1,3.5L95.3,125.6z"/>
		</g>
	</g>
</g>
</svg>
