<?xml version="1.0" encoding="utf-8"?>
<!-- Generator: Adobe Illustrator 25.2.3, SVG Export Plug-In . SVG Version: 6.00 Build 0)  -->
<svg version="1.1" id="Layer_1" xmlns="http://www.w3.org/2000/svg" xmlns:xlink="http://www.w3.org/1999/xlink" x="0px" y="0px"
	 viewBox="0 0 140 220" style="enable-background:new 0 0 140 220;" xml:space="preserve">
<style type="text/css">
	.st0{fill:none;stroke:#B71549;stroke-width:3.7831;stroke-linecap:round;stroke-miterlimit:10;}
	.st1{fill:none;stroke:#F77441;stroke-width:5.6746;stroke-linecap:round;stroke-miterlimit:10;}
	.st2{fill:none;stroke:#F77441;stroke-width:3.7831;stroke-linecap:round;stroke-miterlimit:10;}
	.st3{fill:#F77441;}
</style>
<g>
	<line class="st0" x1="9.9" y1="107.6" x2="93" y2="149.6"/>
	<line class="st0" x1="29.5" y1="97.6" x2="111.4" y2="139"/>
	<line class="st0" x1="49.6" y1="87.9" x2="127.1" y2="126.8"/>
	<path class="st1" d="M59.6,90.7"/>
	<path class="st1" d="M55.5,92.9"/>
	<path class="st2" d="M19.4,118.8c1.3-1.5,12.7-6.7,17.5-8.4s16.8-7.6,19.9-10.3c3.1-2.7,12.6-8.6,15.6-8.6"/>
	<path class="st2" d="M34.9,126.6c1.3-1.5,12.7-6.7,17.5-8.4c4.9-1.6,16.8-7.6,19.9-10.3c3.1-2.7,12.6-8.6,15.6-8.6"/>
	<path class="st2" d="M48.9,135c1.3-1.5,12.7-6.7,17.5-8.4s16.8-7.6,19.9-10.3c3.1-2.7,12.6-8.6,15.6-8.6"/>
	<path class="st2" d="M64.5,141.9c1.3-1.5,12.7-6.7,17.5-8.4c4.9-1.6,16.8-7.6,19.9-10.3c3.1-2.7,12.6-8.6,15.6-8.6"/>
	<line class="st0" x1="19.9" y1="102.4" x2="102.2" y2="144.3"/>
	<line class="st0" x1="39.3" y1="92.5" x2="118.6" y2="133.1"/>
	<g>
		<g>
			<path class="st3" d="M59,90.2l8.8-4.3c0.9-0.5,2-0.1,2.5,0.8c0.5,0.9,0.1,2-0.8,2.5l-6.4,3.1L59,90.2z"/>
		</g>
		<g>
			<path class="st3" d="M13.1,118.2c-0.7,0-1.3-0.1-1.6-0.7c-0.5-0.9-0.4-2,0.5-2.5c0,0,3.4-1.5,4.2-2.1l3.8,1.9l-6,3.2
				C13.7,118.1,13.4,118.2,13.1,118.2z"/>
		</g>
		<g>
			<path class="st3" d="M20.3,110.6c1.5-0.6,4.4-2.7,7.5-4.4c2.9-1.6,6-2.9,7.7-3.7c0.8-0.4,4,2,4,2s-6.5,2.9-8.6,4
				c-2.1,1.1-6.2,3.9-6.9,3.9L20.3,110.6z"/>
		</g>
		<g>
			<path class="st3" d="M39.4,100.3c1.5-0.6,4.4-2.7,7.5-4.4c2.9-1.6,6-2.9,7.7-3.7c0.8-0.4,4,2,4,2s-6.5,2.9-8.6,4
				c-2.1,1.1-6.2,3.9-6.9,3.9L39.4,100.3z"/>
		</g>
	</g>
	<g>
		<g>
			<path class="st3" d="M73,97.4l8.8-4.3c0.9-0.5,2-0.1,2.5,0.8s0.1,2-0.8,2.5l-6.4,3.1L73,97.4z"/>
		</g>
		<g>
			<path class="st3" d="M27.1,125.3c-0.7,0-1.3-0.1-1.6-0.7c-0.5-0.9-0.4-2,0.5-2.5c0,0,3.4-1.5,4.2-2.1l3.8,1.9l-6,3.2
				C27.7,125.2,27.4,125.3,27.1,125.3z"/>
		</g>
		<g>
			<path class="st3" d="M34.4,117.7c1.5-0.6,4.4-2.7,7.5-4.4c2.9-1.6,6-2.9,7.7-3.7c0.8-0.4,4,2,4,2s-6.5,2.9-8.6,4
				c-2.1,1.1-6.2,3.9-6.9,3.9L34.4,117.7z"/>
		</g>
		<g>
			<path class="st3" d="M53.5,107.5c1.5-0.6,4.4-2.7,7.5-4.4c2.9-1.6,6-2.9,7.7-3.7c0.8-0.4,4,2,4,2s-6.5,2.9-8.6,4
				c-2.1,1.1-6.2,3.9-6.9,3.9L53.5,107.5z"/>
		</g>
	</g>
	<g>
		<g>
			<path class="st3" d="M88.1,105l8.8-4.3c0.9-0.5,2-0.1,2.5,0.8c0.5,0.9,0.1,2-0.8,2.5l-6.4,3.1L88.1,105z"/>
		</g>
		<g>
			<path class="st3" d="M42.3,132.9c-0.7,0-1.3-0.1-1.6-0.7c-0.5-0.9-0.4-2,0.5-2.5c0,0,3.4-1.5,4.2-2.1l3.8,1.9l-6,3.2
				C42.8,132.8,42.6,132.9,42.3,132.9z"/>
		</g>
		<g>
			<path class="st3" d="M49.5,125.3c1.5-0.6,4.4-2.7,7.5-4.4c2.9-1.6,6-2.9,7.7-3.7c0.8-0.4,4,2,4,2s-6.5,2.9-8.6,4
				c-2.1,1.1-6.2,3.9-6.9,3.9L49.5,125.3z"/>
		</g>
		<g>
			<path class="st3" d="M68.6,115c1.5-0.6,4.4-2.7,7.5-4.4c2.9-1.6,6-2.9,7.7-3.7c0.8-0.4,4,2,4,2s-6.5,2.9-8.6,4
				c-2.1,1.1-6.2,3.9-6.9,3.9L68.6,115z"/>
		</g>
	</g>
	<g>
		<g>
			<path class="st3" d="M103,112.5l8.8-4.3c0.9-0.5,2-0.1,2.5,0.8c0.5,0.9,0.1,2-0.8,2.5l-6.4,3.1L103,112.5z"/>
		</g>
		<g>
			<path class="st3" d="M57.1,140.5c-0.7,0-1.3-0.1-1.6-0.7c-0.5-0.9-0.4-2,0.5-2.5c0,0,3.4-1.5,4.2-2.1L64,137l-6,3.2
				C57.7,140.4,57.4,140.5,57.1,140.5z"/>
		</g>
		<g>
			<path class="st3" d="M64.4,132.9c1.5-0.6,4.4-2.7,7.5-4.4c2.9-1.6,6-2.9,7.7-3.7c0.8-0.4,4,2,4,2s-6.5,2.9-8.6,4
				c-2.1,1.1-6.2,3.9-6.9,3.9L64.4,132.9z"/>
		</g>
		<g>
			<path class="st3" d="M83.5,122.6c1.5-0.6,4.4-2.7,7.5-4.4c2.9-1.6,6-2.9,7.7-3.7c0.8-0.4,4,2,4,2s-6.5,2.9-8.6,4
				c-2.1,1.1-6.2,3.9-6.9,3.9L83.5,122.6z"/>
		</g>
	</g>
	<g>
		<g>
			<path class="st3" d="M118.2,120.1l8.8-4.3c0.9-0.5,2-0.1,2.5,0.8c0.5,0.9,0.1,2-0.8,2.5l-6.4,3.1L118.2,120.1z"/>
		</g>
		<g>
			<path class="st3" d="M72.3,148c-0.7,0-1.3-0.1-1.6-0.7c-0.5-0.9-0.4-2,0.5-2.5c0,0,3.4-1.5,4.2-2.1l3.8,1.9l-6,3.2
				C72.9,148,72.5,148,72.3,148z"/>
		</g>
		<g>
			<path class="st3" d="M79.5,140.5c1.5-0.6,4.4-2.7,7.5-4.4c2.9-1.6,6-2.9,7.7-3.7c0.8-0.4,4,2,4,2s-6.5,2.9-8.6,4
				c-2.1,1.1-6.2,3.9-6.9,3.9L79.5,140.5z"/>
		</g>
		<g>
			<path class="st3" d="M98.6,130.2c1.5-0.6,4.4-2.7,7.5-4.4c2.9-1.6,6-2.9,7.7-3.7c0.8-0.4,4,2,4,2s-6.5,2.9-8.6,4
				c-2.1,1.1-6.2,3.9-6.9,3.9L98.6,130.2z"/>
		</g>
	</g>
</g>
</svg>
