<?xml version="1.0" encoding="utf-8"?>
<!-- Generator: Adobe Illustrator 25.2.1, SVG Export Plug-In . SVG Version: 6.00 Build 0)  -->
<svg version="1.1" id="Layer_1" xmlns="http://www.w3.org/2000/svg" xmlns:xlink="http://www.w3.org/1999/xlink" x="0px" y="0px"
	 viewBox="0 0 224.28 243.89" style="enable-background:new 0 0 224.28 243.89;" xml:space="preserve">
<style type="text/css">
	.st0{fill:none;stroke:#C2AAA7;stroke-width:4.0102;stroke-linecap:round;stroke-miterlimit:10;}
	.st1{fill:none;stroke:#DC3359;stroke-width:6.0153;stroke-linecap:round;stroke-miterlimit:10;}
	.st2{fill:none;stroke:#DC3359;stroke-width:4.0102;stroke-linecap:round;stroke-miterlimit:10;}
	.st3{fill:#DC3359;}
</style>
<g>
	<line class="st0" x1="50.89" y1="109.33" x2="140.1" y2="154.16"/>
	<line class="st0" x1="71.72" y1="98.7" x2="159.15" y2="142.64"/>
	<line class="st0" x1="92.18" y1="87.84" x2="174.35" y2="129.13"/>
	<path class="st1" d="M103.59,91.5"/>
	<path class="st1" d="M99.21,93.76"/>
	<path class="st2" d="M60.96,121.22c1.38-1.64,13.41-7.1,18.57-8.85s17.77-8.08,21.11-10.91c3.34-2.83,13.36-9.08,16.56-9.1"/>
	<line class="st0" x1="61.5" y1="103.85" x2="149.89" y2="148.27"/>
	<g>
		<g>
			<path class="st3" d="M102.88,90.95l9.3-4.57c0.97-0.5,2.17-0.12,2.67,0.85c0.5,0.97,0.12,2.17-0.85,2.67l-6.78,3.3L102.88,90.95z
				"/>
		</g>
		<g>
			<path class="st3" d="M54.24,120.55c-0.72,0-1.41-0.1-1.76-0.78c-0.5-0.97-0.41-2.17,0.56-2.67c0,0,3.53-1.6,4.47-2.24l4.01,2.05
				l-6.38,3.42C54.86,120.48,54.55,120.55,54.24,120.55z"/>
		</g>
		<g>
			<path class="st3" d="M61.92,112.53c1.64-0.6,4.65-2.9,7.9-4.65c3.12-1.68,6.35-3.06,8.12-3.88c0.85-0.4,4.26,2.12,4.26,2.12
				s-6.95,3.06-9.14,4.25s-6.63,4.16-7.28,4.19L61.92,112.53z"/>
		</g>
		<g>
			<path class="st3" d="M82.19,101.63c1.64-0.6,4.65-2.9,7.9-4.65c3.12-1.68,6.35-3.06,8.12-3.88c0.85-0.4,4.26,2.12,4.26,2.12
				s-6.95,3.06-9.14,4.25s-6.63,4.16-7.28,4.19L82.19,101.63z"/>
		</g>
	</g>
	<g>
		<g>
			<path class="st3" d="M117.77,98.55l9.3-4.57c0.97-0.5,2.17-0.12,2.67,0.85s0.12,2.17-0.85,2.67l-6.78,3.3L117.77,98.55z"/>
		</g>
		<g>
			<path class="st3" d="M69.14,128.15c-0.72,0-1.41-0.1-1.76-0.78c-0.5-0.97-0.41-2.17,0.56-2.67c0,0,3.53-1.6,4.47-2.24l4.01,2.05
				l-6.38,3.42C69.76,128.07,69.44,128.15,69.14,128.15z"/>
		</g>
		<g>
			<path class="st3" d="M76.81,120.12c1.64-0.6,4.65-2.9,7.9-4.65c3.12-1.68,6.35-3.06,8.12-3.88c0.85-0.4,4.26,2.12,4.26,2.12
				s-6.95,3.06-9.14,4.25s-6.63,4.16-7.28,4.19L76.81,120.12z"/>
		</g>
		<g>
			<path class="st3" d="M97.08,109.22c1.64-0.6,4.65-2.9,7.9-4.65c3.12-1.68,6.35-3.06,8.12-3.88c0.85-0.4,4.26,2.12,4.26,2.12
				s-6.95,3.06-9.14,4.25s-6.63,4.16-7.28,4.19L97.08,109.22z"/>
		</g>
	</g>
	<g>
		<g>
			<path class="st3" d="M133.83,106.57l9.3-4.57c0.97-0.5,2.17-0.12,2.67,0.85s0.12,2.17-0.85,2.67l-6.78,3.3L133.83,106.57z"/>
		</g>
		<g>
			<path class="st3" d="M85.19,136.17c-0.72,0-1.41-0.1-1.76-0.78c-0.5-0.97-0.41-2.17,0.56-2.67c0,0,3.53-1.6,4.47-2.24l4.01,2.05
				l-6.38,3.42C85.81,136.1,85.5,136.17,85.19,136.17z"/>
		</g>
		<g>
			<path class="st3" d="M92.87,128.15c1.64-0.6,4.65-2.9,7.9-4.65c3.12-1.68,6.35-3.06,8.12-3.88c0.85-0.4,4.26,2.12,4.26,2.12
				s-6.95,3.06-9.15,4.25c-2.19,1.19-6.63,4.16-7.28,4.19L92.87,128.15z"/>
		</g>
		<g>
			<path class="st3" d="M113.13,117.25c1.64-0.6,4.65-2.9,7.9-4.65c3.12-1.68,6.35-3.06,8.12-3.88c0.85-0.4,4.26,2.12,4.26,2.12
				s-6.95,3.06-9.14,4.25s-6.63,4.16-7.28,4.19L113.13,117.25z"/>
		</g>
	</g>
	<path class="st2" d="M93.73,138.23c0.79-0.94,5.67-4.11,9.5-5.22c3.83-1.11,5.91-3.84,8.12-4.58c5.17-1.74,17.77-8.08,21.11-10.91
		c3.34-2.83,13.36-9.08,16.56-9.1"/>
	<path class="st2" d="M78.08,130.02c0.79-0.94,5.67-4.11,9.5-5.22s5.91-3.84,8.12-4.58c5.17-1.74,17.77-8.08,21.11-10.91
		c3.34-2.83,13.36-9.08,16.56-9.1"/>
	<g>
		<g>
			<path class="st3" d="M149.59,114.6l9.3-4.57c0.97-0.5,2.17-0.12,2.67,0.85s0.12,2.17-0.85,2.67l-6.78,3.3L149.59,114.6z"/>
		</g>
		<g>
			<path class="st3" d="M100.95,144.2c-0.72,0-1.41-0.1-1.76-0.78c-0.5-0.97-0.41-2.17,0.56-2.67c0,0,3.53-1.6,4.47-2.24l4.01,2.05
				l-6.38,3.42C101.57,144.13,101.26,144.2,100.95,144.2z"/>
		</g>
		<g>
			<path class="st3" d="M108.63,136.18c1.64-0.6,4.65-2.9,7.9-4.65c3.12-1.68,6.35-3.06,8.12-3.88c0.85-0.4,4.26,2.12,4.26,2.12
				s-6.95,3.06-9.14,4.25s-6.63,4.16-7.28,4.19L108.63,136.18z"/>
		</g>
		<g>
			<path class="st3" d="M128.89,125.27c1.64-0.6,4.65-2.9,7.9-4.65c3.12-1.68,6.35-3.06,8.12-3.88c0.85-0.4,4.26,2.12,4.26,2.12
				s-6.95,3.06-9.14,4.25s-6.63,4.16-7.28,4.19L128.89,125.27z"/>
		</g>
	</g>
	<path class="st2" d="M108.82,145.3c1.38-1.64,13.41-7.1,18.57-8.85s17.77-8.08,21.11-10.91c3.34-2.83,13.36-9.08,16.56-9.1"/>
	<g>
		<g>
			<path class="st3" d="M165.64,122.63l9.3-4.57c0.97-0.5,2.17-0.12,2.67,0.85s0.12,2.17-0.85,2.67l-6.78,3.3L165.64,122.63z"/>
		</g>
		<g>
			<path class="st3" d="M117,152.23c-0.72,0-1.41-0.1-1.76-0.78c-0.5-0.97-0.41-2.17,0.56-2.67c0,0,3.53-1.6,4.47-2.24l4.01,2.05
				l-6.37,3.41C117.62,152.15,117.31,152.23,117,152.23z"/>
		</g>
		<g>
			<path class="st3" d="M124.68,144.2c1.64-0.6,4.65-2.9,7.9-4.65c3.12-1.68,6.35-3.06,8.12-3.88c0.85-0.4,4.26,2.12,4.26,2.12
				s-6.95,3.06-9.14,4.25s-6.63,4.16-7.28,4.19L124.68,144.2z"/>
		</g>
		<g>
			<path class="st3" d="M144.95,133.3c1.64-0.6,4.65-2.9,7.9-4.65c3.12-1.68,6.35-3.06,8.12-3.88c0.85-0.4,4.26,2.12,4.26,2.12
				s-6.95,3.06-9.14,4.25s-6.63,4.16-7.28,4.19L144.95,133.3z"/>
		</g>
	</g>
	<line class="st0" x1="82.09" y1="93.09" x2="167.87" y2="136.19"/>
</g>
</svg>
