<?xml version="1.0" encoding="utf-8"?>
<!-- Generator: Adobe Illustrator 25.2.1, SVG Export Plug-In . SVG Version: 6.00 Build 0)  -->
<svg version="1.1" id="Layer_1" xmlns="http://www.w3.org/2000/svg" xmlns:xlink="http://www.w3.org/1999/xlink" x="0px" y="0px"
	 viewBox="0 0 257.34 422.21" style="enable-background:new 0 0 257.34 422.21;" xml:space="preserve">
<style type="text/css">
	.st0{fill:none;stroke:#CCB9B9;stroke-width:6.0153;stroke-linecap:round;stroke-miterlimit:10;}
	.st1{fill:none;stroke:#DC3359;stroke-width:9.0229;stroke-linecap:round;stroke-miterlimit:10;}
	.st2{fill:none;stroke:#DC3359;stroke-width:6.0153;stroke-linecap:round;stroke-miterlimit:10;}
	.st3{fill:#DC3359;}
</style>
<g>
	<line class="st0" x1="37.03" y1="202.98" x2="170.85" y2="270.23"/>
	<line class="st0" x1="68.27" y1="187.04" x2="199.42" y2="252.94"/>
	<line class="st0" x1="98.97" y1="170.74" x2="222.23" y2="232.68"/>
	<path class="st1" d="M116.08,176.23"/>
	<path class="st1" d="M109.51,179.63"/>
	<path class="st2" d="M52.13,220.81c2.07-2.46,20.11-10.66,27.86-13.27c7.75-2.62,26.66-12.12,31.67-16.37s20.04-13.62,24.84-13.65"
		/>
	<line class="st0" x1="52.95" y1="194.77" x2="185.53" y2="261.39"/>
	<g>
		<g>
			<path class="st3" d="M115.02,175.41l13.95-6.85c1.46-0.75,3.26-0.18,4.01,1.28c0.75,1.46,0.18,3.26-1.28,4.01l-10.17,4.95
				L115.02,175.41z"/>
		</g>
		<g>
			<path class="st3" d="M42.06,219.81c-1.08,0-2.12-0.15-2.65-1.17c-0.76-1.46-0.62-3.26,0.84-4.01c0,0,5.29-2.4,6.71-3.35
				l6.02,3.08l-9.56,5.13C42.99,219.71,42.52,219.81,42.06,219.81z"/>
		</g>
		<g>
			<path class="st3" d="M53.58,207.78c2.46-0.9,6.98-4.35,11.85-6.97c4.68-2.52,9.53-4.58,12.18-5.82c1.28-0.59,6.39,3.17,6.39,3.17
				s-10.43,4.59-13.71,6.37c-3.29,1.78-9.94,6.24-10.91,6.29L53.58,207.78z"/>
		</g>
		<g>
			<path class="st3" d="M83.98,191.42c2.46-0.9,6.98-4.35,11.85-6.97c4.68-2.52,9.53-4.58,12.18-5.82c1.28-0.59,6.39,3.17,6.39,3.17
				s-10.43,4.59-13.71,6.37c-3.29,1.78-9.94,6.24-10.91,6.29L83.98,191.42z"/>
		</g>
	</g>
	<g>
		<g>
			<path class="st3" d="M137.36,186.8l13.95-6.85c1.46-0.75,3.26-0.18,4.01,1.28c0.75,1.46,0.18,3.26-1.28,4.01l-10.16,4.95
				L137.36,186.8z"/>
		</g>
		<g>
			<path class="st3" d="M64.4,231.2c-1.08,0-2.12-0.15-2.65-1.17c-0.76-1.46-0.62-3.26,0.84-4.01c0,0,5.29-2.4,6.71-3.35l6.02,3.08
				l-9.56,5.13C65.33,231.1,64.87,231.2,64.4,231.2z"/>
		</g>
		<g>
			<path class="st3" d="M75.92,219.17c2.46-0.9,6.98-4.35,11.85-6.97c4.68-2.52,9.53-4.58,12.18-5.82c1.28-0.59,6.39,3.17,6.39,3.17
				s-10.43,4.59-13.71,6.37c-3.29,1.78-9.94,6.24-10.91,6.29L75.92,219.17z"/>
		</g>
		<g>
			<path class="st3" d="M106.32,202.81c2.46-0.9,6.98-4.35,11.85-6.97c4.68-2.52,9.53-4.58,12.18-5.82
				c1.28-0.59,6.39,3.17,6.39,3.17s-10.43,4.59-13.71,6.37c-3.29,1.78-9.94,6.24-10.91,6.29L106.32,202.81z"/>
		</g>
	</g>
	<g>
		<g>
			<path class="st3" d="M161.44,198.84l13.95-6.85c1.46-0.75,3.26-0.18,4.01,1.28c0.75,1.46,0.18,3.26-1.28,4.01l-10.17,4.95
				L161.44,198.84z"/>
		</g>
		<g>
			<path class="st3" d="M88.48,243.24c-1.08,0-2.12-0.15-2.65-1.17c-0.76-1.46-0.62-3.26,0.84-4.01c0,0,5.29-2.4,6.71-3.35
				l6.02,3.08l-9.56,5.13C89.41,243.14,88.95,243.24,88.48,243.24z"/>
		</g>
		<g>
			<path class="st3" d="M100,231.21c2.46-0.9,6.98-4.35,11.85-6.97c4.68-2.52,9.53-4.58,12.18-5.82c1.28-0.59,6.39,3.17,6.39,3.17
				s-10.43,4.59-13.71,6.37c-3.29,1.78-9.94,6.24-10.91,6.29L100,231.21z"/>
		</g>
		<g>
			<path class="st3" d="M130.4,214.85c2.46-0.9,6.98-4.35,11.85-6.97c4.68-2.52,9.53-4.58,12.18-5.82c1.28-0.59,6.39,3.17,6.39,3.17
				s-10.43,4.59-13.71,6.37c-3.29,1.78-9.94,6.24-10.91,6.29L130.4,214.85z"/>
		</g>
	</g>
	<path class="st2" d="M101.29,246.33c1.19-1.41,8.5-6.17,14.25-7.84s8.87-5.75,12.18-6.87c7.75-2.62,26.66-12.12,31.67-16.37
		c5.01-4.25,20.04-13.62,24.84-13.65"/>
	<path class="st2" d="M77.82,234.02c1.19-1.41,8.5-6.17,14.25-7.84s8.87-5.75,12.18-6.87c7.75-2.62,26.66-12.12,31.67-16.37
		c5.01-4.25,20.04-13.62,24.84-13.65"/>
	<g>
		<g>
			<path class="st3" d="M185.08,210.88l13.95-6.85c1.46-0.75,3.26-0.18,4.01,1.28c0.75,1.46,0.18,3.26-1.28,4.01l-10.17,4.95
				L185.08,210.88z"/>
		</g>
		<g>
			<path class="st3" d="M112.13,255.28c-1.08,0-2.12-0.15-2.65-1.17c-0.76-1.46-0.62-3.26,0.84-4.01c0,0,5.29-2.4,6.71-3.35
				l6.02,3.08l-9.56,5.13C113.05,255.18,112.59,255.28,112.13,255.28z"/>
		</g>
		<g>
			<path class="st3" d="M123.64,243.25c2.46-0.9,6.98-4.35,11.85-6.97c4.68-2.52,9.53-4.58,12.18-5.82
				c1.28-0.59,6.39,3.17,6.39,3.17s-10.43,4.59-13.71,6.37c-3.29,1.78-9.94,6.24-10.91,6.29L123.64,243.25z"/>
		</g>
		<g>
			<path class="st3" d="M154.04,226.89c2.46-0.9,6.98-4.35,11.85-6.97c4.68-2.52,9.53-4.58,12.18-5.82
				c1.28-0.59,6.39,3.17,6.39,3.17s-10.43,4.59-13.71,6.37c-3.29,1.78-9.94,6.24-10.91,6.29L154.04,226.89z"/>
		</g>
	</g>
	<path class="st2" d="M123.93,256.93c2.07-2.46,20.11-10.66,27.86-13.27s26.66-12.12,31.67-16.37c5.01-4.25,20.04-13.62,24.84-13.65
		"/>
	<g>
		<g>
			<path class="st3" d="M209.16,222.92l13.95-6.85c1.46-0.75,3.26-0.18,4.01,1.28c0.75,1.46,0.18,3.26-1.28,4.01l-10.17,4.95
				L209.16,222.92z"/>
		</g>
		<g>
			<path class="st3" d="M136.21,267.32c-1.08,0-2.12-0.15-2.65-1.17c-0.76-1.46-0.62-3.26,0.84-4.01c0,0,5.29-2.4,6.71-3.35
				l6.02,3.08l-9.56,5.13C137.13,267.21,136.67,267.32,136.21,267.32z"/>
		</g>
		<g>
			<path class="st3" d="M147.72,255.29c2.46-0.9,6.98-4.35,11.85-6.97c4.68-2.52,9.53-4.58,12.18-5.82
				c1.28-0.59,6.39,3.17,6.39,3.17s-10.43,4.59-13.71,6.37c-3.29,1.78-9.94,6.24-10.91,6.29L147.72,255.29z"/>
		</g>
		<g>
			<path class="st3" d="M178.12,238.93c2.46-0.9,6.98-4.35,11.85-6.97c4.68-2.52,9.53-4.58,12.18-5.82
				c1.28-0.59,6.39,3.17,6.39,3.17s-10.43,4.59-13.71,6.37s-9.94,6.24-10.91,6.29L178.12,238.93z"/>
		</g>
	</g>
	<line class="st0" x1="83.84" y1="178.62" x2="212.5" y2="243.28"/>
</g>
</svg>
