<?xml version="1.0" encoding="utf-8"?>
<!-- Generator: Adobe Illustrator 25.2.3, SVG Export Plug-In . SVG Version: 6.00 Build 0)  -->
<svg version="1.1" id="Layer_1" xmlns="http://www.w3.org/2000/svg" xmlns:xlink="http://www.w3.org/1999/xlink" x="0px" y="0px"
	 viewBox="0 0 257.3 422.2" style="enable-background:new 0 0 257.3 422.2;" xml:space="preserve">
<style type="text/css">
	.st0{fill:none;stroke:#361D32;stroke-width:7.1358;stroke-linecap:round;stroke-miterlimit:10;}
	.st1{fill:none;stroke:#DC3359;stroke-width:10.7036;stroke-linecap:round;stroke-miterlimit:10;}
	.st2{fill:none;stroke:#DC3359;stroke-width:7.1358;stroke-linecap:round;stroke-miterlimit:10;}
	.st3{fill:#DC3359;}
</style>
<g>
	<line class="st0" x1="13" y1="211.4" x2="171.8" y2="291.2"/>
	<line class="st0" x1="50.1" y1="192.5" x2="205.6" y2="270.7"/>
	<line class="st0" x1="86.5" y1="173.2" x2="232.7" y2="246.7"/>
	<path class="st1" d="M106.8,179.7"/>
	<path class="st1" d="M99,183.7"/>
	<path class="st2" d="M30.9,232.6c2.5-2.9,23.9-12.6,33-15.7c9.2-3.1,31.6-14.4,37.6-19.4s23.8-16.2,29.5-16.2"/>
	<line class="st0" x1="31.9" y1="201.7" x2="189.2" y2="280.7"/>
	<g>
		<g>
			<path class="st3" d="M105.5,178.7l16.5-8.1c1.7-0.9,3.9-0.2,4.8,1.5s0.2,3.9-1.5,4.8l-12.1,5.9L105.5,178.7z"/>
		</g>
		<g>
			<path class="st3" d="M19,231.4c-1.3,0-2.5-0.2-3.1-1.4c-0.9-1.7-0.7-3.9,1-4.8c0,0,6.3-2.9,8-4l7.1,3.6L20.6,231
				C20.1,231.3,19.5,231.4,19,231.4z"/>
		</g>
		<g>
			<path class="st3" d="M32.6,217.1c2.9-1.1,8.3-5.2,14.1-8.3c5.5-3,11.3-5.4,14.5-6.9c1.5-0.7,7.6,3.8,7.6,3.8s-12.4,5.4-16.3,7.6
				c-3.9,2.1-11.8,7.4-12.9,7.5L32.6,217.1z"/>
		</g>
		<g>
			<path class="st3" d="M68.7,197.7c2.9-1.1,8.3-5.2,14.1-8.3c5.6-3,11.3-5.4,14.4-6.9c1.5-0.7,7.6,3.8,7.6,3.8s-12.4,5.4-16.3,7.6
				c-3.9,2.1-11.8,7.4-12.9,7.5L68.7,197.7z"/>
		</g>
	</g>
	<g>
		<g>
			<path class="st3" d="M132,192.2l16.6-8.1c1.7-0.9,3.9-0.2,4.8,1.5c0.9,1.7,0.2,3.9-1.5,4.8l-12.1,5.9L132,192.2z"/>
		</g>
		<g>
			<path class="st3" d="M45.5,244.9c-1.3,0-2.5-0.2-3.1-1.4c-0.9-1.7-0.7-3.9,1-4.8c0,0,6.3-2.9,8-4l7.1,3.6l-11.3,6.1
				C46.6,244.8,46,244.9,45.5,244.9z"/>
		</g>
		<g>
			<path class="st3" d="M59.1,230.6c2.9-1.1,8.3-5.2,14.1-8.3c5.6-3,11.3-5.4,14.4-6.9c1.5-0.7,7.6,3.8,7.6,3.8s-12.4,5.4-16.3,7.6
				c-3.9,2.1-11.8,7.4-12.9,7.5L59.1,230.6z"/>
		</g>
		<g>
			<path class="st3" d="M95.2,211.2c2.9-1.1,8.3-5.2,14.1-8.3c5.6-3,11.3-5.4,14.4-6.9c1.5-0.7,7.6,3.8,7.6,3.8s-12.4,5.4-16.3,7.6
				c-3.9,2.1-11.8,7.4-12.9,7.5L95.2,211.2z"/>
		</g>
	</g>
	<g>
		<g>
			<path class="st3" d="M160.6,206.5l16.6-8.1c1.7-0.9,3.9-0.2,4.8,1.5c0.9,1.7,0.2,3.9-1.5,4.8l-12.1,5.9L160.6,206.5z"/>
		</g>
		<g>
			<path class="st3" d="M74,259.2c-1.3,0-2.5-0.2-3.1-1.4c-0.9-1.7-0.7-3.9,1-4.8c0,0,6.3-2.9,8-4l7.1,3.6l-11.3,6.1
				C75.1,259.1,74.6,259.2,74,259.2z"/>
		</g>
		<g>
			<path class="st3" d="M87.7,244.9c2.9-1.1,8.3-5.2,14.1-8.3c5.6-3,11.3-5.4,14.4-6.9c1.5-0.7,7.6,3.8,7.6,3.8s-12.4,5.4-16.3,7.6
				c-3.9,2.1-11.8,7.4-12.9,7.5L87.7,244.9z"/>
		</g>
		<g>
			<path class="st3" d="M123.8,225.5c2.9-1.1,8.3-5.2,14.1-8.3c5.6-3,11.3-5.4,14.4-6.9c1.5-0.7,7.6,3.8,7.6,3.8s-12.4,5.4-16.3,7.6
				c-3.9,2.1-11.8,7.4-12.9,7.5L123.8,225.5z"/>
		</g>
	</g>
	<path class="st2" d="M89.2,262.9c1.4-1.7,10.1-7.3,16.9-9.3s10.5-6.8,14.4-8.1c9.2-3.1,31.6-14.4,37.6-19.4
		c5.9-5,23.8-16.2,29.5-16.2"/>
	<path class="st2" d="M61.4,248.3c1.4-1.7,10.1-7.3,16.9-9.3s10.5-6.8,14.4-8.1c9.2-3.1,31.6-14.4,37.6-19.4s23.8-16.2,29.5-16.2"/>
	<g>
		<g>
			<path class="st3" d="M188.6,220.8l16.6-8.1c1.7-0.9,3.9-0.2,4.8,1.5c0.9,1.7,0.2,3.9-1.5,4.8l-12.1,5.9L188.6,220.8z"/>
		</g>
		<g>
			<path class="st3" d="M102.1,273.5c-1.3,0-2.5-0.2-3.1-1.4c-0.9-1.7-0.7-3.9,1-4.8c0,0,6.3-2.9,8-4l7.1,3.6l-11.3,6.1
				C103.2,273.4,102.6,273.5,102.1,273.5z"/>
		</g>
		<g>
			<path class="st3" d="M115.7,259.2c2.9-1.1,8.3-5.2,14.1-8.3c5.6-3,11.3-5.4,14.4-6.9c1.5-0.7,7.6,3.8,7.6,3.8s-12.4,5.4-16.3,7.6
				c-3.9,2.1-11.8,7.4-12.9,7.5L115.7,259.2z"/>
		</g>
		<g>
			<path class="st3" d="M151.8,239.8c2.9-1.1,8.3-5.2,14.1-8.3c5.6-3,11.3-5.4,14.4-6.9c1.5-0.7,7.6,3.8,7.6,3.8s-12.4,5.4-16.3,7.6
				c-3.9,2.1-11.8,7.4-12.9,7.5L151.8,239.8z"/>
		</g>
	</g>
	<path class="st2" d="M116.1,275.4c2.5-2.9,23.9-12.6,33.1-15.7s31.6-14.4,37.6-19.4c5.9-5,23.8-16.2,29.5-16.2"/>
	<g>
		<g>
			<path class="st3" d="M217.2,235.1l16.6-8.1c1.7-0.9,3.9-0.2,4.8,1.5c0.9,1.7,0.2,3.9-1.5,4.8l-12.1,5.9L217.2,235.1z"/>
		</g>
		<g>
			<path class="st3" d="M130.6,287.8c-1.3,0-2.5-0.2-3.1-1.4c-0.9-1.7-0.7-3.9,1-4.8c0,0,6.3-2.9,8-4l7.1,3.6l-11.3,6.1
				C131.8,287.6,131.2,287.8,130.6,287.8z"/>
		</g>
		<g>
			<path class="st3" d="M144.3,273.5c2.9-1.1,8.3-5.2,14.1-8.3c5.6-3,11.3-5.4,14.4-6.9c1.5-0.7,7.6,3.8,7.6,3.8s-12.4,5.4-16.3,7.6
				c-3.9,2.1-11.8,7.4-12.9,7.5L144.3,273.5z"/>
		</g>
		<g>
			<path class="st3" d="M180.4,254.1c2.9-1.1,8.3-5.2,14.1-8.3c5.6-3,11.3-5.4,14.4-6.9c1.5-0.7,7.6,3.8,7.6,3.8s-12.4,5.4-16.3,7.6
				c-3.9,2.1-11.8,7.4-12.9,7.5L180.4,254.1z"/>
		</g>
	</g>
	<line class="st0" x1="68.5" y1="182.5" x2="221.2" y2="259.2"/>
</g>
</svg>
