<?xml version="1.0" encoding="utf-8"?>
<!-- Generator: Adobe Illustrator 25.2.3, SVG Export Plug-In . SVG Version: 6.00 Build 0)  -->
<svg version="1.1" id="Layer_1" xmlns="http://www.w3.org/2000/svg" xmlns:xlink="http://www.w3.org/1999/xlink" x="0px" y="0px"
	 viewBox="0 0 140 220" style="enable-background:new 0 0 140 220;" xml:space="preserve">
<style type="text/css">
	.st0{fill:none;stroke:#B71549;stroke-width:3.4858;stroke-linecap:round;stroke-miterlimit:10;}
	.st1{fill:none;stroke:#F77441;stroke-width:5.2287;stroke-linecap:round;stroke-miterlimit:10;}
	.st2{fill:none;stroke:#F77441;stroke-width:3.4858;stroke-linecap:round;stroke-miterlimit:10;}
	.st3{fill:#F77441;}
</style>
<g>
	<line class="st0" x1="12.6" y1="101.4" x2="89.2" y2="140.1"/>
	<line class="st0" x1="30.7" y1="92.2" x2="106.1" y2="130.4"/>
	<line class="st0" x1="49.2" y1="83.3" x2="120.6" y2="119.1"/>
	<path class="st1" d="M58.4,85.9"/>
	<path class="st1" d="M54.6,87.9"/>
	<path class="st2" d="M21.4,111.8c1.2-1.4,11.7-6.2,16.1-7.7s15.4-7,18.3-9.5c2.9-2.5,11.6-7.9,14.4-7.9"/>
	<path class="st2" d="M35.6,119c1.2-1.4,11.7-6.2,16.1-7.7c4.5-1.5,15.4-7,18.3-9.5c2.9-2.5,11.6-7.9,14.4-7.9"/>
	<path class="st2" d="M48.5,126.7c1.2-1.4,11.7-6.2,16.1-7.7s15.4-7,18.3-9.5s11.6-7.9,14.4-7.9"/>
	<path class="st2" d="M62.9,133.1c1.2-1.4,11.7-6.2,16.1-7.7c4.5-1.5,15.4-7,18.3-9.5s11.6-7.9,14.4-7.9"/>
	<line class="st0" x1="21.8" y1="96.7" x2="97.7" y2="135.3"/>
	<line class="st0" x1="39.7" y1="87.5" x2="112.8" y2="125"/>
	<g>
		<g>
			<path class="st3" d="M57.8,85.4l8.1-4c0.8-0.4,1.9-0.1,2.3,0.7c0.4,0.8,0.1,1.9-0.7,2.3l-5.9,2.9L57.8,85.4z"/>
		</g>
		<g>
			<path class="st3" d="M15.5,111.2c-0.6,0-1.2-0.1-1.5-0.7c-0.4-0.8-0.3-1.9,0.5-2.3c0,0,3.1-1.4,3.9-2l3.5,1.8l-5.5,3
				C16.1,111.1,15.8,111.2,15.5,111.2z"/>
		</g>
		<g>
			<path class="st3" d="M22.2,104.2c1.4-0.5,4-2.5,6.9-4c2.7-1.5,5.5-2.6,7.1-3.4c0.7-0.3,3.7,1.9,3.7,1.9s-6,2.6-7.9,3.7
				c-1.9,1-5.7,3.6-6.3,3.6L22.2,104.2z"/>
		</g>
		<g>
			<path class="st3" d="M39.8,94.7c1.4-0.5,4-2.5,6.9-4c2.7-1.5,5.5-2.6,7.1-3.4c0.7-0.3,3.7,1.9,3.7,1.9s-6,2.6-7.9,3.7
				c-1.9,1-5.7,3.6-6.3,3.6L39.8,94.7z"/>
		</g>
	</g>
	<g>
		<g>
			<path class="st3" d="M70.8,92.1l8.1-4c0.8-0.4,1.9-0.1,2.3,0.7c0.4,0.8,0.1,1.9-0.7,2.3L74.5,94L70.8,92.1z"/>
		</g>
		<g>
			<path class="st3" d="M28.5,117.8c-0.6,0-1.2-0.1-1.5-0.7c-0.4-0.8-0.3-1.9,0.5-2.3c0,0,3.1-1.4,3.9-2l3.5,1.8l-5.5,3
				C29,117.7,28.7,117.8,28.5,117.8z"/>
		</g>
		<g>
			<path class="st3" d="M35.2,110.8c1.4-0.5,4-2.5,6.9-4c2.7-1.5,5.5-2.6,7.1-3.4c0.7-0.3,3.7,1.9,3.7,1.9s-6,2.6-7.9,3.7
				c-1.9,1-5.7,3.6-6.3,3.6L35.2,110.8z"/>
		</g>
		<g>
			<path class="st3" d="M52.8,101.3c1.4-0.5,4-2.5,6.9-4c2.7-1.5,5.5-2.6,7.1-3.4c0.7-0.3,3.7,1.9,3.7,1.9s-6,2.6-7.9,3.7
				s-5.7,3.6-6.3,3.6L52.8,101.3z"/>
		</g>
	</g>
	<g>
		<g>
			<path class="st3" d="M84.7,99l8.1-4c0.8-0.4,1.9-0.1,2.3,0.7c0.4,0.8,0.1,1.9-0.7,2.3l-5.9,2.9L84.7,99z"/>
		</g>
		<g>
			<path class="st3" d="M42.4,124.8c-0.6,0-1.2-0.1-1.5-0.7c-0.4-0.8-0.3-1.9,0.5-2.3c0,0,3.1-1.4,3.9-2l3.5,1.8l-5.5,3
				C43,124.7,42.7,124.8,42.4,124.8z"/>
		</g>
		<g>
			<path class="st3" d="M49.1,117.8c1.4-0.5,4-2.5,6.9-4c2.7-1.5,5.5-2.6,7.1-3.4c0.7-0.3,3.7,1.9,3.7,1.9s-6,2.6-7.9,3.7
				c-1.9,1-5.7,3.6-6.3,3.6L49.1,117.8z"/>
		</g>
		<g>
			<path class="st3" d="M66.7,108.3c1.4-0.5,4-2.5,6.9-4c2.7-1.5,5.5-2.6,7.1-3.4c0.7-0.3,3.7,1.9,3.7,1.9s-6,2.6-7.9,3.7
				c-1.9,1-5.7,3.6-6.3,3.6L66.7,108.3z"/>
		</g>
	</g>
	<g>
		<g>
			<path class="st3" d="M98.4,106l8.1-4c0.8-0.4,1.9-0.1,2.3,0.7s0.1,1.9-0.7,2.3l-5.9,2.9L98.4,106z"/>
		</g>
		<g>
			<path class="st3" d="M56.1,131.7c-0.6,0-1.2-0.1-1.5-0.7c-0.4-0.8-0.3-1.9,0.5-2.3c0,0,3.1-1.4,3.9-2l3.5,1.8l-5.5,3
				C56.6,131.7,56.4,131.7,56.1,131.7z"/>
		</g>
		<g>
			<path class="st3" d="M62.8,124.8c1.4-0.5,4-2.5,6.9-4c2.7-1.5,5.5-2.6,7.1-3.4c0.7-0.3,3.7,1.9,3.7,1.9s-6,2.6-7.9,3.7
				c-1.9,1-5.7,3.6-6.3,3.6L62.8,124.8z"/>
		</g>
		<g>
			<path class="st3" d="M80.4,115.3c1.4-0.5,4-2.5,6.9-4c2.7-1.5,5.5-2.6,7.1-3.4c0.7-0.3,3.7,1.9,3.7,1.9s-6,2.6-7.9,3.7
				c-1.9,1-5.7,3.6-6.3,3.6L80.4,115.3z"/>
		</g>
	</g>
	<g>
		<g>
			<path class="st3" d="M112.3,113l8.1-4c0.8-0.4,1.9-0.1,2.3,0.7c0.4,0.8,0.1,1.9-0.7,2.3l-5.9,2.9L112.3,113z"/>
		</g>
		<g>
			<path class="st3" d="M70.1,138.7c-0.6,0-1.2-0.1-1.5-0.7c-0.4-0.8-0.3-1.9,0.5-2.3c0,0,3.1-1.4,3.9-2l3.5,1.8l-5.5,3
				C70.6,138.6,70.3,138.7,70.1,138.7z"/>
		</g>
		<g>
			<path class="st3" d="M76.7,131.7c1.4-0.5,4-2.5,6.9-4c2.7-1.5,5.5-2.6,7.1-3.4c0.7-0.3,3.7,1.9,3.7,1.9s-6,2.6-7.9,3.7
				c-1.9,1-5.7,3.6-6.3,3.6L76.7,131.7z"/>
		</g>
		<g>
			<path class="st3" d="M94.4,122.3c1.4-0.5,4-2.5,6.9-4c2.7-1.5,5.5-2.6,7.1-3.4c0.7-0.3,3.7,1.9,3.7,1.9s-6,2.6-7.9,3.7
				c-1.9,1-5.7,3.6-6.3,3.6L94.4,122.3z"/>
		</g>
	</g>
</g>
</svg>
