<?xml version="1.0" encoding="utf-8"?>
<!-- Generator: Adobe Illustrator 25.2.1, SVG Export Plug-In . SVG Version: 6.00 Build 0)  -->
<svg version="1.1" id="Layer_1" xmlns="http://www.w3.org/2000/svg" xmlns:xlink="http://www.w3.org/1999/xlink" x="0px" y="0px"
	 viewBox="0 0 257.34 422.21" style="enable-background:new 0 0 257.34 422.21;" xml:space="preserve">
<style type="text/css">
	.st0{fill:none;stroke:#CCB9B9;stroke-width:7.8446;stroke-linecap:round;stroke-miterlimit:10;}
	.st1{fill:none;stroke:#DC3359;stroke-width:11.7669;stroke-linecap:round;stroke-miterlimit:10;}
	.st2{fill:none;stroke:#DC3359;stroke-width:7.8446;stroke-linecap:round;stroke-miterlimit:10;}
	.st3{fill:#DC3359;}
</style>
<g>
	<line class="st0" x1="5" y1="215.53" x2="179.52" y2="303.23"/>
	<line class="st0" x1="45.74" y1="194.75" x2="216.78" y2="280.69"/>
	<line class="st0" x1="85.78" y1="173.49" x2="246.52" y2="254.27"/>
	<path class="st1" d="M108.09,180.65"/>
	<path class="st1" d="M99.52,185.08"/>
	<path class="st2" d="M24.69,238.79c2.7-3.21,26.23-13.9,36.33-17.31c10.11-3.42,34.77-15.81,41.3-21.35
		c6.53-5.54,26.13-17.76,32.39-17.8"/>
	<line class="st0" x1="25.76" y1="204.83" x2="198.66" y2="291.71"/>
	<g>
		<g>
			<path class="st3" d="M106.71,179.58l18.19-8.93c1.9-0.98,4.25-0.23,5.23,1.67c0.98,1.9,0.23,4.25-1.67,5.23L115.2,184
				L106.71,179.58z"/>
		</g>
		<g>
			<path class="st3" d="M11.56,237.48c-1.41,0-2.76-0.2-3.46-1.53c-0.99-1.9-0.81-4.25,1.1-5.23c0,0,6.9-3.13,8.75-4.37l7.85,4.02
				l-12.47,6.69C12.77,237.35,12.16,237.48,11.56,237.48z"/>
		</g>
		<g>
			<path class="st3" d="M26.58,221.79c3.21-1.17,9.1-5.67,15.45-9.09c6.1-3.29,12.43-5.97,15.88-7.59c1.67-0.77,8.33,4.13,8.33,4.13
				s-13.6,5.99-17.88,8.31c-4.29,2.32-12.96,8.14-14.23,8.2L26.58,221.79z"/>
		</g>
		<g>
			<path class="st3" d="M66.23,200.46c3.21-1.17,9.1-5.67,15.45-9.09c6.1-3.29,12.43-5.97,15.88-7.59c1.67-0.77,8.33,4.13,8.33,4.13
				s-13.6,5.99-17.88,8.31c-4.29,2.32-12.96,8.14-14.23,8.2L66.23,200.46z"/>
		</g>
	</g>
	<g>
		<g>
			<path class="st3" d="M135.84,194.43l18.19-8.93c1.9-0.98,4.25-0.23,5.23,1.67c0.98,1.9,0.23,4.25-1.67,5.23l-13.25,6.46
				L135.84,194.43z"/>
		</g>
		<g>
			<path class="st3" d="M40.69,252.34c-1.41,0-2.76-0.2-3.46-1.53c-0.99-1.9-0.81-4.25,1.1-5.23c0,0,6.9-3.13,8.75-4.37l7.85,4.02
				l-12.47,6.69C41.91,252.2,41.31,252.34,40.69,252.34z"/>
		</g>
		<g>
			<path class="st3" d="M55.72,236.65c3.21-1.17,9.1-5.67,15.45-9.09c6.1-3.29,12.43-5.97,15.88-7.59c1.67-0.77,8.33,4.13,8.33,4.13
				s-13.6,5.99-17.88,8.31c-4.29,2.32-12.96,8.14-14.23,8.2L55.72,236.65z"/>
		</g>
		<g>
			<path class="st3" d="M95.36,215.31c3.21-1.17,9.1-5.67,15.45-9.09c6.1-3.29,12.43-5.97,15.88-7.59c1.67-0.77,8.33,4.13,8.33,4.13
				s-13.6,5.99-17.88,8.31c-4.29,2.32-12.96,8.14-14.23,8.2L95.36,215.31z"/>
		</g>
	</g>
	<g>
		<g>
			<path class="st3" d="M167.24,210.13l18.19-8.93c1.9-0.98,4.25-0.23,5.23,1.67c0.98,1.9,0.23,4.25-1.67,5.23l-13.26,6.46
				L167.24,210.13z"/>
		</g>
		<g>
			<path class="st3" d="M72.1,268.04c-1.41,0-2.76-0.2-3.46-1.53c-0.99-1.9-0.81-4.25,1.1-5.23c0,0,6.9-3.13,8.75-4.37l7.85,4.02
				l-12.47,6.69C73.31,267.91,72.71,268.04,72.1,268.04z"/>
		</g>
		<g>
			<path class="st3" d="M87.12,252.35c3.21-1.17,9.1-5.67,15.45-9.09c6.1-3.29,12.43-5.97,15.88-7.59c1.67-0.77,8.33,4.13,8.33,4.13
				s-13.6,5.99-17.88,8.31c-4.29,2.32-12.96,8.14-14.23,8.2L87.12,252.35z"/>
		</g>
		<g>
			<path class="st3" d="M126.77,231.01c3.21-1.17,9.1-5.67,15.45-9.09c6.1-3.29,12.43-5.97,15.88-7.59
				c1.67-0.77,8.33,4.13,8.33,4.13s-13.6,5.99-17.88,8.31c-4.29,2.32-12.96,8.14-14.23,8.2L126.77,231.01z"/>
		</g>
	</g>
	<path class="st2" d="M88.8,272.07c1.55-1.84,11.08-8.05,18.58-10.22c7.5-2.18,11.57-7.5,15.88-8.96
		c10.11-3.42,34.77-15.81,41.3-21.35c6.53-5.54,26.13-17.76,32.39-17.8"/>
	<path class="st2" d="M58.19,256.01c1.55-1.84,11.08-8.05,18.58-10.22c7.5-2.18,11.57-7.5,15.88-8.96
		c10.11-3.42,34.77-15.81,41.3-21.35c6.53-5.54,26.13-17.76,32.39-17.8"/>
	<g>
		<g>
			<path class="st3" d="M198.07,225.84l18.19-8.93c1.9-0.98,4.25-0.23,5.23,1.67s0.23,4.25-1.67,5.23l-13.26,6.46L198.07,225.84z"/>
		</g>
		<g>
			<path class="st3" d="M102.94,283.74c-1.41,0-2.76-0.2-3.46-1.53c-0.99-1.9-0.81-4.25,1.1-5.23c0,0,6.9-3.13,8.75-4.37l7.85,4.02
				l-12.47,6.69C104.14,283.61,103.54,283.74,102.94,283.74z"/>
		</g>
		<g>
			<path class="st3" d="M117.95,268.05c3.21-1.17,9.1-5.67,15.45-9.09c6.1-3.29,12.43-5.97,15.88-7.59
				c1.67-0.77,8.33,4.13,8.33,4.13s-13.6,5.99-17.88,8.31c-4.29,2.32-12.96,8.14-14.23,8.2L117.95,268.05z"/>
		</g>
		<g>
			<path class="st3" d="M157.59,246.71c3.21-1.17,9.1-5.67,15.45-9.09c6.1-3.29,12.43-5.97,15.88-7.59
				c1.67-0.77,8.33,4.13,8.33,4.13s-13.6,5.99-17.88,8.31c-4.29,2.32-12.96,8.14-14.23,8.2L157.59,246.71z"/>
		</g>
	</g>
	<path class="st2" d="M118.33,285.89c2.7-3.21,26.23-13.9,36.33-17.31s34.77-15.81,41.3-21.35c6.53-5.54,26.13-17.76,32.39-17.8"/>
	<g>
		<g>
			<path class="st3" d="M229.48,241.54l18.19-8.93c1.9-0.98,4.25-0.23,5.23,1.67c0.98,1.9,0.23,4.25-1.67,5.23l-13.26,6.46
				L229.48,241.54z"/>
		</g>
		<g>
			<path class="st3" d="M134.34,299.44c-1.41,0-2.76-0.2-3.46-1.53c-0.99-1.9-0.81-4.25,1.1-5.23c0,0,6.9-3.13,8.75-4.37l7.85,4.02
				l-12.47,6.69C135.54,299.3,134.94,299.44,134.34,299.44z"/>
		</g>
		<g>
			<path class="st3" d="M149.35,283.75c3.21-1.17,9.1-5.67,15.45-9.09c6.1-3.29,12.43-5.97,15.88-7.59
				c1.67-0.77,8.33,4.13,8.33,4.13s-13.6,5.99-17.88,8.31c-4.29,2.32-12.96,8.14-14.23,8.2L149.35,283.75z"/>
		</g>
		<g>
			<path class="st3" d="M189,262.42c3.21-1.17,9.1-5.67,15.45-9.09c6.1-3.29,12.43-5.97,15.88-7.59c1.67-0.77,8.33,4.13,8.33,4.13
				s-13.6,5.99-17.88,8.31s-12.96,8.14-14.23,8.2L189,262.42z"/>
		</g>
	</g>
	<line class="st0" x1="66.05" y1="183.77" x2="233.83" y2="268.09"/>
</g>
</svg>
