<?xml version="1.0" encoding="utf-8"?>
<!-- Generator: Adobe Illustrator 25.2.3, SVG Export Plug-In . SVG Version: 6.00 Build 0)  -->
<svg version="1.1" id="Layer_1" xmlns="http://www.w3.org/2000/svg" xmlns:xlink="http://www.w3.org/1999/xlink" x="0px" y="0px"
	 viewBox="0 0 257.3 422.2" style="enable-background:new 0 0 257.3 422.2;" xml:space="preserve">
<style type="text/css">
	.st0{fill:none;stroke:#361D32;stroke-width:7.1077;stroke-linecap:round;stroke-miterlimit:10;}
	.st1{fill:none;stroke:#F77441;stroke-width:10.6616;stroke-linecap:round;stroke-miterlimit:10;}
	.st2{fill:none;stroke:#F77441;stroke-width:7.1077;stroke-linecap:round;stroke-miterlimit:10;}
	.st3{fill:#F77441;}
</style>
<g>
	<line class="st0" x1="15.4" y1="211.5" x2="171.5" y2="290.4"/>
	<line class="st0" x1="52.3" y1="192.7" x2="206.1" y2="270.5"/>
	<line class="st0" x1="90" y1="174.5" x2="235.6" y2="247.6"/>
	<path class="st1" d="M108.8,179.9"/>
	<path class="st1" d="M101.1,183.9"/>
	<path class="st2" d="M33.3,232.6c2.4-2.9,23.8-12.6,32.9-15.7s31.5-14.3,37.4-19.3s23.7-16.1,29.4-16.1"/>
	<path class="st2" d="M62.3,247.3c2.4-2.9,23.8-12.6,32.9-15.7c9.2-3.1,31.5-14.3,37.4-19.3c5.9-5,23.7-16.1,29.4-16.1"/>
	<path class="st2" d="M88.6,263c2.4-2.9,23.8-12.6,32.9-15.7S153,233,158.9,228c5.9-5,23.7-16.1,29.4-16.1"/>
	<path class="st2" d="M118,276c2.4-2.9,23.8-12.6,32.9-15.7c9.2-3.1,31.5-14.3,37.4-19.3c5.9-5,23.7-16.1,29.4-16.1"/>
	<line class="st0" x1="34.2" y1="201.8" x2="188.9" y2="280.5"/>
	<line class="st0" x1="70.6" y1="183.2" x2="219.7" y2="259.5"/>
	<g>
		<g>
			<path class="st3" d="M107.6,178.9l16.5-8.1c1.7-0.9,3.8-0.2,4.7,1.5c0.9,1.7,0.2,3.8-1.5,4.7l-12,5.9L107.6,178.9z"/>
		</g>
		<g>
			<path class="st3" d="M21.4,231.4c-1.3,0-2.5-0.2-3.1-1.4c-0.9-1.7-0.7-3.8,1-4.7c0,0,6.3-2.8,7.9-4l7.1,3.6L23,231
				C22.5,231.3,21.9,231.4,21.4,231.4z"/>
		</g>
		<g>
			<path class="st3" d="M35,217.2c2.9-1.1,8.2-5.1,14-8.2c5.5-3,11.3-5.4,14.4-6.9c1.5-0.7,7.5,3.8,7.5,3.8s-12.3,5.4-16.2,7.5
				c-3.9,2.1-11.7,7.4-12.9,7.4L35,217.2z"/>
		</g>
		<g>
			<path class="st3" d="M70.9,197.8c2.9-1.1,8.2-5.1,14-8.2c5.5-3,11.3-5.4,14.4-6.9c1.5-0.7,7.5,3.8,7.5,3.8s-12.3,5.4-16.2,7.5
				c-3.9,2.1-11.7,7.4-12.9,7.4L70.9,197.8z"/>
		</g>
	</g>
	<g>
		<g>
			<path class="st3" d="M134,192.4l16.5-8.1c1.7-0.9,3.8-0.2,4.7,1.5c0.9,1.7,0.2,3.8-1.5,4.7l-12,5.9L134,192.4z"/>
		</g>
		<g>
			<path class="st3" d="M47.8,244.9c-1.3,0-2.5-0.2-3.1-1.4c-0.9-1.7-0.7-3.8,1-4.7c0,0,6.3-2.8,7.9-4l7.1,3.6l-11.3,6.1
				C48.9,244.7,48.3,244.9,47.8,244.9z"/>
		</g>
		<g>
			<path class="st3" d="M61.4,230.6c2.9-1.1,8.2-5.1,14-8.2c5.5-3,11.3-5.4,14.4-6.9c1.5-0.7,7.5,3.8,7.5,3.8s-12.3,5.4-16.2,7.5
				c-3.9,2.1-11.7,7.4-12.9,7.4L61.4,230.6z"/>
		</g>
		<g>
			<path class="st3" d="M97.3,211.3c2.9-1.1,8.2-5.1,14-8.2c5.5-3,11.3-5.4,14.4-6.9c1.5-0.7,7.5,3.8,7.5,3.8s-12.3,5.4-16.2,7.5
				s-11.7,7.4-12.9,7.4L97.3,211.3z"/>
		</g>
	</g>
	<g>
		<g>
			<path class="st3" d="M162.4,206.6l16.5-8.1c1.7-0.9,3.8-0.2,4.7,1.5c0.9,1.7,0.2,3.8-1.5,4.7l-12,5.9L162.4,206.6z"/>
		</g>
		<g>
			<path class="st3" d="M76.2,259.1c-1.3,0-2.5-0.2-3.1-1.4c-0.9-1.7-0.7-3.8,1-4.7c0,0,6.3-2.8,7.9-4l7.1,3.6l-11.3,6.1
				C77.3,259,76.8,259.1,76.2,259.1z"/>
		</g>
		<g>
			<path class="st3" d="M89.8,244.9c2.9-1.1,8.2-5.1,14-8.2c5.5-3,11.3-5.4,14.4-6.9c1.5-0.7,7.5,3.8,7.5,3.8s-12.3,5.4-16.2,7.5
				c-3.9,2.1-11.7,7.4-12.9,7.4L89.8,244.9z"/>
		</g>
		<g>
			<path class="st3" d="M125.7,225.5c2.9-1.1,8.2-5.1,14-8.2c5.5-3,11.3-5.4,14.4-6.9c1.5-0.7,7.5,3.8,7.5,3.8s-12.3,5.4-16.2,7.5
				c-3.9,2.1-11.7,7.4-12.9,7.4L125.7,225.5z"/>
		</g>
	</g>
	<g>
		<g>
			<path class="st3" d="M190.3,220.8l16.5-8.1c1.7-0.9,3.8-0.2,4.7,1.5c0.9,1.7,0.2,3.8-1.5,4.7l-12,5.9L190.3,220.8z"/>
		</g>
		<g>
			<path class="st3" d="M104.1,273.3c-1.3,0-2.5-0.2-3.1-1.4c-0.9-1.7-0.7-3.8,1-4.7c0,0,6.3-2.8,7.9-4l7.1,3.6l-11.3,6.1
				C105.2,273.2,104.7,273.3,104.1,273.3z"/>
		</g>
		<g>
			<path class="st3" d="M117.7,259.1c2.9-1.1,8.2-5.1,14-8.2c5.5-3,11.3-5.4,14.4-6.9c1.5-0.7,7.5,3.8,7.5,3.8s-12.3,5.4-16.2,7.5
				s-11.7,7.4-12.9,7.4L117.7,259.1z"/>
		</g>
		<g>
			<path class="st3" d="M153.7,239.8c2.9-1.1,8.2-5.1,14-8.2c5.5-3,11.3-5.4,14.4-6.9c1.5-0.7,7.5,3.8,7.5,3.8s-12.3,5.4-16.2,7.5
				c-3.9,2.1-11.7,7.4-12.9,7.4L153.7,239.8z"/>
		</g>
	</g>
	<g>
		<g>
			<path class="st3" d="M218.8,235.1l16.5-8.1c1.7-0.9,3.8-0.2,4.7,1.5c0.9,1.7,0.2,3.8-1.5,4.7l-12,5.9L218.8,235.1z"/>
		</g>
		<g>
			<path class="st3" d="M132.6,287.5c-1.3,0-2.5-0.2-3.1-1.4c-0.9-1.7-0.7-3.8,1-4.7c0,0,6.3-2.8,7.9-4l7.1,3.6l-11.3,6.1
				C133.7,287.4,133.1,287.5,132.6,287.5z"/>
		</g>
		<g>
			<path class="st3" d="M146.2,273.3c2.9-1.1,8.2-5.1,14-8.2c5.5-3,11.3-5.4,14.4-6.9c1.5-0.7,7.5,3.8,7.5,3.8s-12.3,5.4-16.2,7.5
				c-3.9,2.1-11.7,7.4-12.9,7.4L146.2,273.3z"/>
		</g>
		<g>
			<path class="st3" d="M182.1,254c2.9-1.1,8.2-5.1,14-8.2c5.5-3,11.3-5.4,14.4-6.9c1.5-0.7,7.5,3.8,7.5,3.8s-12.3,5.4-16.2,7.5
				c-3.9,2.1-11.7,7.4-12.9,7.4L182.1,254z"/>
		</g>
	</g>
</g>
</svg>
