<?xml version="1.0" encoding="utf-8"?>
<!-- Generator: Adobe Illustrator 25.2.1, SVG Export Plug-In . SVG Version: 6.00 Build 0)  -->
<svg version="1.1" id="Layer_1" xmlns="http://www.w3.org/2000/svg" xmlns:xlink="http://www.w3.org/1999/xlink" x="0px" y="0px"
	 viewBox="0 0 224.28 243.89" style="enable-background:new 0 0 224.28 243.89;" xml:space="preserve">
<style type="text/css">
	.st0{fill:none;stroke:#CCB9B9;stroke-width:4.0102;stroke-linecap:round;stroke-miterlimit:10;}
	.st1{fill:none;stroke:#DC3359;stroke-width:6.0153;stroke-linecap:round;stroke-miterlimit:10;}
	.st2{fill:none;stroke:#DC3359;stroke-width:4.0102;stroke-linecap:round;stroke-miterlimit:10;}
	.st3{fill:#DC3359;}
</style>
<g>
	<line class="st0" x1="48.89" y1="139.33" x2="138.1" y2="184.16"/>
	<line class="st0" x1="69.72" y1="128.7" x2="157.15" y2="172.64"/>
	<line class="st0" x1="90.18" y1="117.84" x2="172.35" y2="159.13"/>
	<path class="st1" d="M101.59,121.5"/>
	<path class="st1" d="M97.21,123.76"/>
	<path class="st2" d="M58.96,151.22c1.38-1.64,13.41-7.1,18.57-8.85s17.77-8.08,21.11-10.91c3.34-2.83,13.36-9.08,16.56-9.1"/>
	<line class="st0" x1="59.5" y1="133.85" x2="147.89" y2="178.27"/>
	<g>
		<g>
			<path class="st3" d="M100.88,120.95l9.3-4.57c0.97-0.5,2.17-0.12,2.67,0.85c0.5,0.97,0.12,2.17-0.85,2.67l-6.78,3.3
				L100.88,120.95z"/>
		</g>
		<g>
			<path class="st3" d="M52.24,150.55c-0.72,0-1.41-0.1-1.76-0.78c-0.5-0.97-0.41-2.17,0.56-2.67c0,0,3.53-1.6,4.47-2.24l4.01,2.05
				l-6.38,3.42C52.86,150.48,52.55,150.55,52.24,150.55z"/>
		</g>
		<g>
			<path class="st3" d="M59.92,142.53c1.64-0.6,4.65-2.9,7.9-4.65c3.12-1.68,6.35-3.06,8.12-3.88c0.85-0.4,4.26,2.12,4.26,2.12
				s-6.95,3.06-9.14,4.25c-2.19,1.19-6.63,4.16-7.28,4.19L59.92,142.53z"/>
		</g>
		<g>
			<path class="st3" d="M80.18,131.63c1.64-0.6,4.65-2.9,7.9-4.65c3.12-1.68,6.35-3.06,8.12-3.88c0.85-0.4,4.26,2.12,4.26,2.12
				s-6.95,3.06-9.14,4.25c-2.19,1.19-6.63,4.16-7.28,4.19L80.18,131.63z"/>
		</g>
	</g>
	<g>
		<g>
			<path class="st3" d="M115.77,128.55l9.3-4.57c0.97-0.5,2.17-0.12,2.67,0.85c0.5,0.97,0.12,2.17-0.85,2.67l-6.78,3.3
				L115.77,128.55z"/>
		</g>
		<g>
			<path class="st3" d="M67.14,158.15c-0.72,0-1.41-0.1-1.76-0.78c-0.5-0.97-0.41-2.17,0.56-2.67c0,0,3.53-1.6,4.47-2.24l4.01,2.05
				l-6.38,3.42C67.76,158.07,67.44,158.15,67.14,158.15z"/>
		</g>
		<g>
			<path class="st3" d="M74.81,150.12c1.64-0.6,4.65-2.9,7.9-4.65c3.12-1.68,6.35-3.06,8.12-3.88c0.85-0.4,4.26,2.12,4.26,2.12
				s-6.95,3.06-9.14,4.25s-6.63,4.16-7.28,4.19L74.81,150.12z"/>
		</g>
		<g>
			<path class="st3" d="M95.08,139.22c1.64-0.6,4.65-2.9,7.9-4.65c3.12-1.68,6.35-3.06,8.12-3.88c0.85-0.4,4.26,2.12,4.26,2.12
				s-6.95,3.06-9.14,4.25s-6.63,4.16-7.28,4.19L95.08,139.22z"/>
		</g>
	</g>
	<g>
		<g>
			<path class="st3" d="M131.83,136.57l9.3-4.57c0.97-0.5,2.17-0.12,2.67,0.85c0.5,0.97,0.12,2.17-0.85,2.67l-6.78,3.3
				L131.83,136.57z"/>
		</g>
		<g>
			<path class="st3" d="M83.19,166.17c-0.72,0-1.41-0.1-1.76-0.78c-0.5-0.97-0.41-2.17,0.56-2.67c0,0,3.53-1.6,4.47-2.24l4.01,2.05
				l-6.38,3.42C83.81,166.1,83.5,166.17,83.19,166.17z"/>
		</g>
		<g>
			<path class="st3" d="M90.87,158.15c1.64-0.6,4.65-2.9,7.9-4.65c3.12-1.68,6.35-3.06,8.12-3.88c0.85-0.4,4.26,2.12,4.26,2.12
				s-6.95,3.06-9.14,4.25c-2.19,1.19-6.63,4.16-7.28,4.19L90.87,158.15z"/>
		</g>
		<g>
			<path class="st3" d="M111.13,147.25c1.64-0.6,4.65-2.9,7.9-4.65c3.12-1.68,6.35-3.06,8.12-3.88c0.85-0.4,4.26,2.12,4.26,2.12
				s-6.95,3.06-9.14,4.25c-2.19,1.19-6.63,4.16-7.28,4.19L111.13,147.25z"/>
		</g>
	</g>
	<path class="st2" d="M91.73,168.23c0.79-0.94,5.67-4.11,9.5-5.22c3.83-1.11,5.91-3.84,8.12-4.58c5.17-1.74,17.77-8.08,21.11-10.91
		s13.36-9.08,16.56-9.1"/>
	<path class="st2" d="M76.08,160.02c0.79-0.94,5.67-4.11,9.5-5.22c3.83-1.11,5.91-3.84,8.12-4.58c5.17-1.74,17.77-8.08,21.11-10.91
		c3.34-2.83,13.36-9.08,16.56-9.1"/>
	<g>
		<g>
			<path class="st3" d="M147.59,144.6l9.3-4.57c0.97-0.5,2.17-0.12,2.67,0.85c0.5,0.97,0.12,2.17-0.85,2.67l-6.78,3.3L147.59,144.6z
				"/>
		</g>
		<g>
			<path class="st3" d="M98.95,174.2c-0.72,0-1.41-0.1-1.76-0.78c-0.5-0.97-0.41-2.17,0.56-2.67c0,0,3.53-1.6,4.47-2.24l4.01,2.05
				l-6.38,3.42C99.57,174.13,99.26,174.2,98.95,174.2z"/>
		</g>
		<g>
			<path class="st3" d="M106.63,166.18c1.64-0.6,4.65-2.9,7.9-4.65c3.12-1.68,6.35-3.06,8.12-3.88c0.85-0.4,4.26,2.12,4.26,2.12
				s-6.95,3.06-9.14,4.25c-2.19,1.19-6.63,4.16-7.28,4.19L106.63,166.18z"/>
		</g>
		<g>
			<path class="st3" d="M126.89,155.27c1.64-0.6,4.65-2.9,7.9-4.65c3.12-1.68,6.35-3.06,8.12-3.88c0.85-0.4,4.26,2.12,4.26,2.12
				s-6.95,3.06-9.14,4.25s-6.63,4.16-7.28,4.19L126.89,155.27z"/>
		</g>
	</g>
	<path class="st2" d="M106.82,175.3c1.38-1.64,13.41-7.1,18.57-8.85s17.77-8.08,21.11-10.91c3.34-2.83,13.36-9.08,16.56-9.1"/>
	<g>
		<g>
			<path class="st3" d="M163.64,152.63l9.3-4.57c0.97-0.5,2.17-0.12,2.67,0.85c0.5,0.97,0.12,2.17-0.85,2.67l-6.78,3.3
				L163.64,152.63z"/>
		</g>
		<g>
			<path class="st3" d="M115,182.23c-0.72,0-1.41-0.1-1.76-0.78c-0.5-0.97-0.41-2.17,0.56-2.67c0,0,3.53-1.6,4.47-2.24l4.01,2.05
				l-6.38,3.42C115.62,182.15,115.31,182.23,115,182.23z"/>
		</g>
		<g>
			<path class="st3" d="M122.68,174.2c1.64-0.6,4.65-2.9,7.9-4.65c3.12-1.68,6.35-3.06,8.12-3.88c0.85-0.4,4.26,2.12,4.26,2.12
				s-6.95,3.06-9.14,4.25c-2.19,1.19-6.63,4.16-7.28,4.19L122.68,174.2z"/>
		</g>
		<g>
			<path class="st3" d="M142.95,163.3c1.64-0.6,4.65-2.9,7.9-4.65c3.12-1.68,6.35-3.06,8.12-3.88c0.85-0.4,4.26,2.12,4.26,2.12
				s-6.95,3.06-9.14,4.25c-2.19,1.19-6.63,4.16-7.28,4.19L142.95,163.3z"/>
		</g>
	</g>
	<line class="st0" x1="80.09" y1="123.09" x2="165.87" y2="166.19"/>
</g>
</svg>
