<?xml version="1.0" encoding="utf-8"?>
<!-- Generator: Adobe Illustrator 25.2.1, SVG Export Plug-In . SVG Version: 6.00 Build 0)  -->
<svg version="1.1" id="Layer_1" xmlns="http://www.w3.org/2000/svg" xmlns:xlink="http://www.w3.org/1999/xlink" x="0px" y="0px"
	 viewBox="0 0 257.34 422.21" style="enable-background:new 0 0 257.34 422.21;" xml:space="preserve">
<style type="text/css">
	.st0{fill:none;stroke:#CCB9B9;stroke-width:7.1358;stroke-linecap:round;stroke-miterlimit:10;}
	.st1{fill:none;stroke:#DC3359;stroke-width:10.7036;stroke-linecap:round;stroke-miterlimit:10;}
	.st2{fill:none;stroke:#DC3359;stroke-width:7.1358;stroke-linecap:round;stroke-miterlimit:10;}
	.st3{fill:#DC3359;}
</style>
<g>
	<line class="st0" x1="13" y1="211.44" x2="171.75" y2="291.21"/>
	<line class="st0" x1="50.06" y1="192.53" x2="205.64" y2="270.7"/>
	<line class="st0" x1="86.48" y1="173.19" x2="232.7" y2="246.67"/>
	<path class="st1" d="M106.77,179.71"/>
	<path class="st1" d="M98.98,183.74"/>
	<path class="st2" d="M30.91,232.59c2.46-2.92,23.86-12.65,33.05-15.74c9.19-3.11,31.63-14.38,37.57-19.42s23.77-16.16,29.47-16.19"
		/>
	<line class="st0" x1="31.89" y1="201.7" x2="189.16" y2="280.73"/>
	<g>
		<g>
			<path class="st3" d="M105.52,178.73l16.55-8.13c1.73-0.89,3.87-0.21,4.76,1.52c0.89,1.73,0.21,3.87-1.52,4.76l-12.06,5.87
				L105.52,178.73z"/>
		</g>
		<g>
			<path class="st3" d="M18.97,231.4c-1.28,0-2.51-0.18-3.14-1.39c-0.9-1.73-0.74-3.87,1-4.76c0,0,6.28-2.85,7.96-3.97l7.14,3.65
				l-11.34,6.09C20.07,231.28,19.51,231.4,18.97,231.4z"/>
		</g>
		<g>
			<path class="st3" d="M32.63,217.13c2.92-1.07,8.28-5.16,14.06-8.27c5.55-2.99,11.31-5.43,14.45-6.9c1.52-0.7,7.58,3.76,7.58,3.76
				s-12.37,5.44-16.26,7.56c-3.9,2.11-11.79,7.4-12.94,7.46L32.63,217.13z"/>
		</g>
		<g>
			<path class="st3" d="M68.7,197.72c2.92-1.07,8.28-5.16,14.06-8.27c5.55-2.99,11.31-5.43,14.45-6.9c1.52-0.7,7.58,3.76,7.58,3.76
				s-12.37,5.44-16.26,7.56c-3.9,2.11-11.79,7.4-12.94,7.46L68.7,197.72z"/>
		</g>
	</g>
	<g>
		<g>
			<path class="st3" d="M132.02,192.24l16.55-8.13c1.73-0.89,3.87-0.21,4.76,1.52c0.89,1.73,0.21,3.87-1.52,4.76l-12.05,5.87
				L132.02,192.24z"/>
		</g>
		<g>
			<path class="st3" d="M45.47,244.91c-1.28,0-2.51-0.18-3.14-1.39c-0.9-1.73-0.74-3.87,1-4.76c0,0,6.28-2.85,7.96-3.97l7.14,3.65
				l-11.34,6.09C46.57,244.8,46.03,244.91,45.47,244.91z"/>
		</g>
		<g>
			<path class="st3" d="M59.13,230.64c2.92-1.07,8.28-5.16,14.06-8.27c5.55-2.99,11.31-5.43,14.45-6.9c1.52-0.7,7.58,3.76,7.58,3.76
				s-12.37,5.44-16.26,7.56c-3.9,2.11-11.79,7.4-12.94,7.46L59.13,230.64z"/>
		</g>
		<g>
			<path class="st3" d="M95.2,211.24c2.92-1.07,8.28-5.16,14.06-8.27c5.55-2.99,11.31-5.43,14.45-6.9c1.52-0.7,7.58,3.76,7.58,3.76
				s-12.37,5.44-16.26,7.56c-3.9,2.11-11.79,7.4-12.94,7.46L95.2,211.24z"/>
		</g>
	</g>
	<g>
		<g>
			<path class="st3" d="M160.58,206.53l16.55-8.13c1.73-0.89,3.87-0.21,4.76,1.52c0.89,1.73,0.21,3.87-1.52,4.76l-12.06,5.87
				L160.58,206.53z"/>
		</g>
		<g>
			<path class="st3" d="M74.03,259.2c-1.28,0-2.51-0.18-3.14-1.39c-0.9-1.73-0.74-3.87,1-4.76c0,0,6.28-2.85,7.96-3.97l7.14,3.65
				l-11.34,6.09C75.14,259.08,74.59,259.2,74.03,259.2z"/>
		</g>
		<g>
			<path class="st3" d="M87.7,244.93c2.92-1.07,8.28-5.16,14.06-8.27c5.55-2.99,11.31-5.43,14.45-6.9c1.52-0.7,7.58,3.76,7.58,3.76
				s-12.37,5.44-16.26,7.56c-3.9,2.11-11.79,7.4-12.94,7.46L87.7,244.93z"/>
		</g>
		<g>
			<path class="st3" d="M123.76,225.52c2.92-1.07,8.28-5.16,14.06-8.27c5.55-2.99,11.31-5.43,14.45-6.9
				c1.52-0.7,7.58,3.76,7.58,3.76s-12.37,5.44-16.26,7.56c-3.9,2.11-11.79,7.4-12.94,7.46L123.76,225.52z"/>
		</g>
	</g>
	<path class="st2" d="M89.23,262.86c1.41-1.67,10.08-7.32,16.9-9.3c6.82-1.98,10.52-6.82,14.45-8.15
		c9.19-3.11,31.63-14.38,37.57-19.42c5.94-5.04,23.77-16.16,29.47-16.19"/>
	<path class="st2" d="M61.39,248.26c1.41-1.67,10.08-7.32,16.9-9.3c6.82-1.98,10.52-6.82,14.45-8.15
		c9.19-3.11,31.63-14.38,37.57-19.42c5.94-5.04,23.77-16.16,29.47-16.19"/>
	<g>
		<g>
			<path class="st3" d="M188.63,220.81l16.55-8.13c1.73-0.89,3.87-0.21,4.76,1.52c0.89,1.73,0.21,3.87-1.52,4.76l-12.06,5.87
				L188.63,220.81z"/>
		</g>
		<g>
			<path class="st3" d="M102.09,273.48c-1.28,0-2.51-0.18-3.14-1.39c-0.9-1.73-0.74-3.87,1-4.76c0,0,6.28-2.85,7.96-3.97l7.14,3.65
				l-11.34,6.09C103.18,273.36,102.63,273.48,102.09,273.48z"/>
		</g>
		<g>
			<path class="st3" d="M115.74,259.21c2.92-1.07,8.28-5.16,14.06-8.27c5.55-2.99,11.31-5.43,14.45-6.9
				c1.52-0.7,7.58,3.76,7.58,3.76s-12.37,5.44-16.26,7.56c-3.9,2.11-11.79,7.4-12.94,7.46L115.74,259.21z"/>
		</g>
		<g>
			<path class="st3" d="M151.81,239.8c2.92-1.07,8.28-5.16,14.06-8.27c5.55-2.99,11.31-5.43,14.45-6.9c1.52-0.7,7.58,3.76,7.58,3.76
				s-12.37,5.44-16.26,7.56c-3.9,2.11-11.79,7.4-12.94,7.46L151.81,239.8z"/>
		</g>
	</g>
	<path class="st2" d="M116.09,275.44c2.46-2.92,23.86-12.65,33.05-15.74c9.19-3.1,31.63-14.38,37.57-19.42
		c5.94-5.04,23.77-16.16,29.47-16.19"/>
	<g>
		<g>
			<path class="st3" d="M217.19,235.09l16.55-8.13c1.73-0.89,3.87-0.21,4.76,1.52c0.89,1.73,0.21,3.87-1.52,4.76l-12.06,5.87
				L217.19,235.09z"/>
		</g>
		<g>
			<path class="st3" d="M130.65,287.76c-1.28,0-2.51-0.18-3.14-1.39c-0.9-1.73-0.74-3.87,1-4.76c0,0,6.28-2.85,7.96-3.97l7.14,3.65
				l-11.34,6.09C131.75,287.63,131.2,287.76,130.65,287.76z"/>
		</g>
		<g>
			<path class="st3" d="M144.31,273.49c2.92-1.07,8.28-5.16,14.06-8.27c5.55-2.99,11.31-5.43,14.45-6.9
				c1.52-0.7,7.58,3.76,7.58,3.76s-12.37,5.44-16.26,7.56c-3.9,2.11-11.79,7.4-12.94,7.46L144.31,273.49z"/>
		</g>
		<g>
			<path class="st3" d="M180.37,254.08c2.92-1.07,8.28-5.16,14.06-8.27c5.55-2.99,11.31-5.43,14.45-6.9
				c1.52-0.7,7.58,3.76,7.58,3.76s-12.37,5.44-16.26,7.56c-3.89,2.11-11.79,7.4-12.94,7.46L180.37,254.08z"/>
		</g>
	</g>
	<line class="st0" x1="68.53" y1="182.54" x2="221.16" y2="259.24"/>
</g>
</svg>
