<?xml version="1.0" encoding="utf-8"?>
<!-- Generator: Adobe Illustrator 25.2.3, SVG Export Plug-In . SVG Version: 6.00 Build 0)  -->
<svg version="1.1" id="Layer_1" xmlns="http://www.w3.org/2000/svg" xmlns:xlink="http://www.w3.org/1999/xlink" x="0px" y="0px"
	 viewBox="0 0 381.1 279.9" style="enable-background:new 0 0 381.1 279.9;" xml:space="preserve">
<style type="text/css">
	.Graphic_x0020_Style_x0020_9{fill:none;stroke:#361D32;stroke-width:0.3733;stroke-miterlimit:10;}
	.st0{fill:#CBB8B9;stroke:#FFFFFF;stroke-width:0.5203;stroke-miterlimit:10;}
	.st1{fill:#E4DAD8;stroke:#FFFFFF;stroke-width:0.5363;stroke-linejoin:bevel;stroke-miterlimit:10;}
	.st2{fill:#CBB8B9;stroke:#FFFFFF;stroke-width:0.5363;stroke-linejoin:bevel;stroke-miterlimit:10;}
	.st3{fill:#CBB8B9;stroke:#FFFFFF;stroke-width:0.2745;stroke-miterlimit:10;}
	.st4{fill:#E4DAD8;stroke:#FFFFFF;stroke-width:0.5363;stroke-miterlimit:10;}
	.st5{fill:#CBB8B9;stroke:#FFFFFF;stroke-width:0.5363;stroke-miterlimit:10;}
	.st6{fill:#B79797;stroke:#FFFFFF;stroke-width:0.5363;stroke-miterlimit:10;}
	.st7{fill:#E4DAD8;stroke:#FFFFFF;stroke-width:0.323;stroke-miterlimit:10;}
	.st8{fill:#E4DAD8;stroke:#FFFFFF;stroke-width:0.2745;stroke-miterlimit:10;}
	.st9{fill:none;stroke:#B71549;stroke-width:0.2804;stroke-miterlimit:10;}
	.st10{fill:#EE7345;}
	.st11{fill:#B71549;}
	.st12{fill:#CBB8B9;stroke:#FFFFFF;stroke-width:0.5489;stroke-miterlimit:10;}
	.st13{fill:#E4DAD8;stroke:#FFFFFF;stroke-width:0.5489;stroke-miterlimit:10;}
	.st14{fill:none;stroke:#361D32;stroke-width:0.65;stroke-miterlimit:10;}
	.st15{fill:#5E5756;stroke:#FFFFFF;stroke-width:0.2682;stroke-miterlimit:10;}
	.st16{fill:none;stroke:#B71549;stroke-width:0.5363;stroke-miterlimit:10;}
	.st17{fill:none;stroke:#000000;stroke-width:1.1216;stroke-miterlimit:10;}
	.st18{fill:none;stroke:#000000;stroke-width:1.1216;stroke-linecap:round;stroke-miterlimit:10;}
	.st19{fill:#CBB8B9;}
	.st20{fill:none;stroke:#543C52;stroke-width:0.1402;stroke-miterlimit:10;}
	.st21{fill:none;stroke:#543C52;stroke-width:0.1429;stroke-linecap:round;stroke-miterlimit:10;}
	.st22{fill:none;stroke:#543C52;stroke-width:0.1457;stroke-linecap:round;stroke-miterlimit:10;}
	.st23{fill:none;stroke:#543C52;stroke-width:0.1484;stroke-linecap:round;stroke-miterlimit:10;}
	.st24{fill:none;stroke:#543C52;stroke-width:0.1512;stroke-linecap:round;stroke-miterlimit:10;}
	.st25{fill:none;stroke:#543C52;stroke-width:0.1539;stroke-linecap:round;stroke-miterlimit:10;}
	.st26{fill:none;stroke:#543C52;stroke-width:0.1566;stroke-linecap:round;stroke-miterlimit:10;}
	.st27{fill:none;stroke:#543C52;stroke-width:0.1594;stroke-linecap:round;stroke-miterlimit:10;}
	.st28{fill:none;stroke:#543C52;stroke-width:0.1621;stroke-linecap:round;stroke-miterlimit:10;}
	.st29{fill:none;stroke:#543C52;stroke-width:0.1649;stroke-linecap:round;stroke-miterlimit:10;}
	.st30{fill:none;stroke:#543C52;stroke-width:0.1676;stroke-linecap:round;stroke-miterlimit:10;}
	.st31{fill:none;stroke:#543C52;stroke-width:0.1703;stroke-linecap:round;stroke-miterlimit:10;}
	.st32{fill:none;stroke:#543C52;stroke-width:0.1731;stroke-linecap:round;stroke-miterlimit:10;}
	.st33{fill:none;stroke:#543C52;stroke-width:0.1758;stroke-linecap:round;stroke-miterlimit:10;}
	.st34{fill:none;stroke:#543C52;stroke-width:0.1786;stroke-linecap:round;stroke-miterlimit:10;}
	.st35{fill:none;stroke:#543C52;stroke-width:0.1813;stroke-linecap:round;stroke-miterlimit:10;}
	.st36{fill:none;stroke:#543C52;stroke-width:0.184;stroke-linecap:round;stroke-miterlimit:10;}
	.st37{fill:none;stroke:#543C52;stroke-width:0.1868;stroke-linecap:round;stroke-miterlimit:10;}
	.st38{fill:none;stroke:#543C52;stroke-width:0.1895;stroke-linecap:round;stroke-miterlimit:10;}
	.st39{fill:none;stroke:#543C52;stroke-width:0.1923;stroke-linecap:round;stroke-miterlimit:10;}
	.st40{fill:none;stroke:#543C52;stroke-width:0.195;stroke-linecap:round;stroke-miterlimit:10;}
	.st41{fill:none;stroke:#543C52;stroke-width:0.1977;stroke-linecap:round;stroke-miterlimit:10;}
	.st42{fill:none;stroke:#543C52;stroke-width:0.2005;stroke-linecap:round;stroke-miterlimit:10;}
	.st43{fill:none;stroke:#543C52;stroke-width:0.2032;stroke-linecap:round;stroke-miterlimit:10;}
	.st44{fill:none;stroke:#543C52;stroke-width:0.206;stroke-linecap:round;stroke-miterlimit:10;}
	.st45{fill:none;stroke:#543C52;stroke-width:0.2087;stroke-linecap:round;stroke-miterlimit:10;}
	.st46{fill:none;stroke:#543C52;stroke-width:0.2114;stroke-linecap:round;stroke-miterlimit:10;}
	.st47{fill:none;stroke:#543C52;stroke-width:0.2142;stroke-linecap:round;stroke-miterlimit:10;}
	.st48{fill:none;stroke:#543C52;stroke-width:0.2169;stroke-linecap:round;stroke-miterlimit:10;}
	.st49{fill:none;stroke:#543C52;stroke-width:0.2197;stroke-linecap:round;stroke-miterlimit:10;}
	.st50{fill:none;stroke:#543C52;stroke-width:0.2224;stroke-linecap:round;stroke-miterlimit:10;}
	.st51{fill:none;stroke:#543C52;stroke-width:0.2251;stroke-linecap:round;stroke-miterlimit:10;}
	.st52{fill:none;stroke:#543C52;stroke-width:0.2279;stroke-linecap:round;stroke-miterlimit:10;}
	.st53{fill:none;stroke:#543C52;stroke-width:0.2306;stroke-linecap:round;stroke-miterlimit:10;}
	.st54{fill:none;stroke:#543C52;stroke-width:0.2334;stroke-linecap:round;stroke-miterlimit:10;}
	.st55{fill:none;stroke:#543C52;stroke-width:0.2361;stroke-linecap:round;stroke-miterlimit:10;}
	.st56{fill:none;stroke:#543C52;stroke-width:0.2388;stroke-linecap:round;stroke-miterlimit:10;}
	.st57{fill:none;stroke:#543C52;stroke-width:0.2416;stroke-linecap:round;stroke-miterlimit:10;}
	.st58{fill:none;stroke:#543C52;stroke-width:0.2443;stroke-linecap:round;stroke-miterlimit:10;}
	.st59{fill:none;stroke:#543C52;stroke-width:0.2471;stroke-linecap:round;stroke-miterlimit:10;}
	.st60{fill:none;stroke:#543C52;stroke-width:0.2498;stroke-linecap:round;stroke-miterlimit:10;}
	.st61{fill:none;stroke:#543C52;stroke-width:0.2525;stroke-linecap:round;stroke-miterlimit:10;}
	.st62{fill:none;stroke:#543C52;stroke-width:0.2553;stroke-linecap:round;stroke-miterlimit:10;}
	.st63{fill:none;stroke:#543C52;stroke-width:0.258;stroke-linecap:round;stroke-miterlimit:10;}
	.st64{fill:none;stroke:#543C52;stroke-width:0.2608;stroke-linecap:round;stroke-miterlimit:10;}
	.st65{fill:none;stroke:#543C52;stroke-width:0.2635;stroke-linecap:round;stroke-miterlimit:10;}
	.st66{fill:none;stroke:#543C52;stroke-width:0.2662;stroke-linecap:round;stroke-miterlimit:10;}
	.st67{fill:none;stroke:#543C52;stroke-width:0.269;stroke-linecap:round;stroke-miterlimit:10;}
	.st68{fill:none;stroke:#543C52;stroke-width:0.2717;stroke-linecap:round;stroke-miterlimit:10;}
	.st69{fill:none;stroke:#543C52;stroke-width:0.2745;stroke-linecap:round;stroke-miterlimit:10;}
	.st70{fill:#E4DAD8;stroke:#FFFFFF;stroke-width:0.1886;stroke-miterlimit:10;}
	.st71{fill:none;stroke:#CBB8B9;stroke-width:3.3647;stroke-linecap:round;stroke-miterlimit:10;}
	.st72{fill:none;stroke:#543C52;stroke-width:0.5363;stroke-miterlimit:10;}
	.st73{fill:none;stroke:#361D32;stroke-width:0.5363;stroke-miterlimit:10;}
	.st74{fill:#DD335A;stroke:#FFFFFF;stroke-width:0.2682;stroke-miterlimit:10;}
	.st75{fill:#FFFFFF;stroke:#E4DAD8;stroke-width:0.2682;stroke-miterlimit:10;}
	.st76{fill:none;stroke:#361D32;stroke-width:0.65;stroke-linecap:round;stroke-miterlimit:10;}
	.st77{fill:#361D32;}
</style>
<line class="st0" x1="176.9" y1="20.5" x2="180.2" y2="18.6"/>
<polygon class="st1" points="166.8,64.6 166.9,84.2 376.8,189.2 376.7,168.9 "/>
<polygon class="st2" points="184.8,73.3 188,71.8 379.5,167.5 379.5,187.7 376.9,189.1 376.9,168.7 "/>
<path class="st3" d="M280.5,152.8l7.8-3.8c0.8-0.4,1.8-0.1,2.2,0.8c0.4,0.8,0.1,1.8-0.8,2.2l-7.2,3.5"/>
<path class="st3" d="M279.5,131.5l7.8-3.8c0.8-0.4,1.8-0.1,2.2,0.8c0.4,0.8,0.1,1.8-0.8,2.2l-7.2,3.5"/>
<polygon class="st4" points="281.7,26.4 280.8,156.5 285.6,159.1 286.9,29.3 "/>
<polygon class="st4" points="5.3,127.6 5.6,181.4 23.2,190 22,136 "/>
<polygon class="st5" points="5.3,127.5 8.7,126.2 25.2,134.4 24.7,169.6 21.7,171.3 21.9,136 "/>
<polygon class="st4" points="5.3,162 5.2,182.2 199.2,278.9 199.3,258.2 "/>
<polygon class="st5" points="22,170 25.2,168.5 202.5,256.6 202.2,277.3 199.2,278.7 199.3,258.1 "/>
<g>
	<polygon class="st6" points="143.5,171.5 146.6,169.9 320.6,257.6 320.6,272.4 318.1,274.3 318.2,259.5 	"/>
	<polygon class="st5" points="143.8,171.6 143.7,187.6 318.1,274.7 318.1,259.4 	"/>
</g>
<g>
	<polygon class="st6" points="194.7,147.6 197.9,146 350.1,222.7 349.9,238.3 347.1,239.7 347.1,224.3 	"/>
	<path class="st5" d="M195,147.7l-0.1,16l152.3,76l0-15.5C347.1,224.3,195,147.8,195,147.7z"/>
	<line class="st4" x1="347.2" y1="224.2" x2="350.1" y2="222.7"/>
</g>
<line class="st4" x1="318.1" y1="259.4" x2="320.6" y2="257.6"/>
<g>
	<g>
		<path class="st7" d="M134.8,114.7l-0.7,9.8c0,0,3.9,3.4,4.9-3.2C140,114.7,134.8,114.7,134.8,114.7z"/>
	</g>
</g>
<polygon class="st4" points="164.9,8.3 164.8,106.3 182.4,114.8 181.7,16.9 "/>
<polygon class="st5" points="165,8.3 168.8,6.3 185.2,14.7 185.7,79.3 182.3,80.3 181.7,16.9 "/>
<g>
	<path class="st4" d="M203.9,87.2l-93.5,46.9l-0.7,9.7c0,0,2.4,1.1,4.1,0.2c16.7-8.2,91.2-47.5,92.3-48.1c1.2-0.6,2.6-4.5,2-6.5
		C207.4,87.4,203.9,87.2,203.9,87.2z"/>
	<g>
		<path class="st8" d="M110.3,134.1l-0.7,9.8c0,0,3.9,3.4,4.9-3.2C115.6,134.1,110.3,134.1,110.3,134.1z"/>
	</g>
</g>
<g>
	<path class="st5" d="M239.5,129.5l-108.2,54l-0.7,9.7c0,0,1.7,1.7,5.4-0.8c3.7-2.5,104.7-52.8,105.9-53.5s2.4-5.4,1.7-7.4
		C243.1,129.7,239.5,129.5,239.5,129.5z"/>
	<g>
		<path class="st8" d="M131.3,183.6l-0.7,9.8c0,0,3.9,3.4,4.9-3.2C136.5,183.6,131.3,183.6,131.3,183.6z"/>
	</g>
</g>
<g>
	<line class="st9" x1="57.7" y1="88.3" x2="55.3" y2="115.8"/>
	<line class="st9" x1="62.2" y1="86" x2="59.8" y2="113.5"/>
	<line class="st9" x1="66.8" y1="83.7" x2="64.4" y2="111.2"/>
	<line class="st9" x1="71.3" y1="81.4" x2="68.9" y2="108.9"/>
	<line class="st9" x1="75.9" y1="79.2" x2="73.4" y2="106.7"/>
	<line class="st9" x1="80.4" y1="76.9" x2="78" y2="104.4"/>
	<line class="st9" x1="84.9" y1="74.6" x2="82.5" y2="102.1"/>
	<line class="st9" x1="89.5" y1="72.3" x2="87.1" y2="99.8"/>
	<line class="st9" x1="94" y1="70.1" x2="91.6" y2="97.6"/>
	<line class="st9" x1="98.6" y1="67.8" x2="96.2" y2="95.3"/>
	<line class="st9" x1="103.1" y1="65.5" x2="100.7" y2="93"/>
	<line class="st9" x1="107.7" y1="63.2" x2="105.2" y2="90.7"/>
	<line class="st9" x1="112.2" y1="61" x2="109.8" y2="88.5"/>
	<line class="st9" x1="116.7" y1="58.7" x2="114.3" y2="86.2"/>
	<line class="st9" x1="121.3" y1="56.4" x2="118.9" y2="83.9"/>
	<line class="st9" x1="125.8" y1="54.1" x2="123.4" y2="81.6"/>
	<line class="st9" x1="130.4" y1="51.9" x2="128" y2="79.4"/>
	<line class="st9" x1="134.9" y1="49.6" x2="132.5" y2="77.1"/>
	<line class="st9" x1="139.5" y1="47.3" x2="137" y2="74.8"/>
	<line class="st9" x1="144" y1="45" x2="141.6" y2="72.5"/>
	<line class="st9" x1="148.6" y1="42.8" x2="146.1" y2="70.3"/>
</g>
<path class="st5" d="M158,64.8L12.3,136.8C1.4,147.7,5,155.2,9.7,160.5c4.7,5.3,20.6,1.6,20.6,1.6l148.1-74.9c0,0,5.4-10,2-16.3
	C177.1,64.7,168.6,59.4,158,64.8z"/>
<g>
	<g>
		<g>
			<path class="st10" d="M58.6,114.2c2.7-2.6,6.4-0.5,9,1.1c3.3,2.1,6,4.5,7.6,8.2c1.2,2.7,1.8,5.7,2,8.7c0.2,2.4,0,6.7-3,7.3
				c-0.7,0.1-0.5,0.8,0.2,0.7c2.4-0.5,3.8-3.2,4-5.4c0.3-2.3-0.3-5-0.8-7.2c-0.7-3.1-1.9-6.1-3.9-8.5c-2.2-2.6-5.5-4.8-8.7-6
				c-2.6-1-5.2-0.9-7.3,1C57.2,114.4,58.3,114.5,58.6,114.2L58.6,114.2z"/>
		</g>
	</g>
	<g>
		<g>
			<path class="st10" d="M71.1,107.9c2.6-2.5,6.3-0.8,8.9,0.9c3.4,2.2,6.2,4.8,7.8,8.6c1.2,2.8,1.9,5.8,2.1,8.8
				c0.1,2.1-0.2,6.4-2.8,6.9c-0.7,0.1-0.5,0.7,0.2,0.6c2.4-0.5,3.3-3.1,3.7-5.2c0.4-2.3-0.1-5-0.7-7.2c-0.7-3-2-6-3.9-8.5
				c-2.2-2.7-5.5-5-8.7-6.2c-2.6-1-5.3-0.8-7.3,1.1C69.8,108.1,70.8,108.2,71.1,107.9L71.1,107.9z"/>
		</g>
	</g>
	<g>
		<g>
			<path class="st10" d="M83.6,101.5c2.9-2.8,7-0.5,9.7,1.4c3.2,2.3,5.7,5,7.2,8.7c1.1,2.7,1.8,5.6,1.9,8.6c0,1.1-0.1,2.1-0.3,3.1
				c-0.3,1.1-0.8,3.2-2.2,3.5c-0.4,0.1-0.9,0.6-0.2,0.4c2.3-0.5,3.1-2.7,3.6-4.9c0.4-2.2,0.1-4.6-0.4-6.8c-0.7-3.2-2-6.3-4.1-8.9
				c-2.2-2.8-5.6-5.3-9-6.4c-2.5-0.8-5.2-0.5-7.2,1.4C82.4,101.8,83.4,101.7,83.6,101.5L83.6,101.5z"/>
		</g>
	</g>
	<g>
		<g>
			<path class="st10" d="M96.1,95.2c2.8-2.7,6.9-0.8,9.6,1.1c3.3,2.3,5.8,5.4,7.4,9.1c1.1,2.7,1.9,5.6,1.9,8.5c0,1-0.1,1.9-0.4,2.9
				c-0.2,1-0.7,3.2-2,3.5c-0.4,0.1-0.9,0.5-0.2,0.4c2.3-0.4,2.9-2.7,3.3-4.7c0.4-2.2,0.2-4.4-0.3-6.6c-0.8-3.3-2.2-6.5-4.3-9.1
				c-2.2-2.8-5.4-5.3-8.8-6.4c-2.5-0.7-5.3-0.4-7.2,1.5C95,95.5,95.9,95.4,96.1,95.2L96.1,95.2z"/>
		</g>
	</g>
	<g>
		<g>
			<path class="st10" d="M108.6,89.1c2.7-2.6,6.7-1.2,9.4,0.6c3.4,2.3,6.1,5.6,7.8,9.4c1.2,2.7,2.1,5.8,1.9,8.8
				c-0.1,1.6-0.3,5.3-2.3,5.7c-0.6,0.1-0.4,0.7,0.2,0.6c2.1-0.4,2.7-3,2.9-4.8c0.3-2.1,0.2-4.1-0.3-6.2c-1.5-6.6-6.2-13.5-12.8-15.7
				c-2.6-0.9-5.6-0.6-7.6,1.3C107.3,89.3,108.3,89.4,108.6,89.1L108.6,89.1z"/>
		</g>
	</g>
	<g>
		<g>
			<path class="st10" d="M121.1,82.7c2.8-2.6,6.9-1.2,9.7,0.8c3.3,2.4,5.9,5.9,7.6,9.6c1.2,2.6,2,5.5,1.9,8.4
				c-0.1,0.9-0.1,1.8-0.3,2.8c-0.2,0.9-0.5,2.9-1.6,3.1c-0.4,0.1-0.8,0.6-0.2,0.5c2.1-0.4,2.6-2.7,2.9-4.5c0.3-2.1,0.3-4.1-0.2-6.1
				c-0.8-3.5-2.5-6.7-4.7-9.5c-2.2-2.9-5.2-5.6-8.9-6.5c-2.5-0.6-5.2-0.2-7.2,1.7C120,83,120.9,82.9,121.1,82.7L121.1,82.7z"/>
		</g>
	</g>
	<g>
		<g>
			<path class="st10" d="M133.5,76.7c2.4-2.3,5.9-1.8,8.6-0.4c3.8,2,6.6,5.9,8.6,9.7c1.5,2.8,2.4,5.7,2.3,8.9c0,1.5,0.1,5.5-1.9,5.9
				c-0.6,0.1-0.4,0.8,0.2,0.7c2-0.4,2.4-3,2.5-4.7c0.2-1.9,0.3-4-0.2-5.8c-0.8-3.6-2.7-6.9-4.9-9.8c-2.1-2.8-4.8-5.4-8.3-6.4
				c-2.6-0.7-5.5-0.4-7.5,1.5C132.4,76.7,133.2,77.1,133.5,76.7L133.5,76.7z"/>
		</g>
	</g>
</g>
<g>
	<g>
		<g>
			<path class="st10" d="M63.1,112.2c2.7-2.6,6.4-0.5,9,1.1c3.3,2.1,6,4.5,7.6,8.2c1.2,2.7,1.8,5.7,2,8.7c0.2,2.4,0,6.7-3,7.3
				c-0.7,0.1-0.5,0.8,0.2,0.7c2.4-0.5,3.8-3.2,4-5.4c0.3-2.3-0.3-5-0.8-7.2c-0.7-3.1-1.9-6.1-3.9-8.5c-2.2-2.6-5.5-4.8-8.7-6
				c-2.6-1-5.2-0.9-7.3,1C61.8,112.4,62.8,112.5,63.1,112.2L63.1,112.2z"/>
		</g>
	</g>
	<g>
		<g>
			<path class="st10" d="M75.7,105.8c2.6-2.5,6.3-0.8,8.9,0.9c3.4,2.2,6.2,4.8,7.8,8.5c1.2,2.8,1.9,5.9,2.1,8.9
				c0.1,2.1-0.3,6.2-2.9,6.7c-0.7,0.1-0.5,0.8,0.2,0.7c2.4-0.5,3.3-3.2,3.7-5.3c0.4-2.3-0.1-5-0.7-7.2c-0.7-3-2-6-3.9-8.5
				c-2.2-2.7-5.5-5-8.7-6.3c-2.6-1-5.2-0.8-7.3,1.1C74.4,106,75.4,106.2,75.7,105.8L75.7,105.8z"/>
		</g>
	</g>
	<g>
		<g>
			<path class="st10" d="M88.3,99.4c2.8-2.7,6.7-0.8,9.4,1.1c3.2,2.2,5.8,5,7.4,8.6c1.2,2.7,1.9,5.7,2.1,8.6c0.1,1.1,0,2.1-0.3,3.1
				c-0.3,1.2-0.8,3.4-2.2,3.7c-0.5,0.1-0.9,0.7-0.2,0.5c2.3-0.5,3.1-2.8,3.5-4.9c0.4-2.2,0.1-4.6-0.4-6.8
				c-1.5-6.7-6.1-12.9-12.8-15.2c-2.6-0.9-5.4-0.7-7.4,1.2C87.1,99.7,88.1,99.6,88.3,99.4L88.3,99.4z"/>
		</g>
	</g>
	<g>
		<g>
			<path class="st10" d="M100.9,93c2.7-2.6,6.6-1,9.3,0.8c3.3,2.2,6,5.3,7.6,9c1.2,2.7,2,5.7,2.1,8.6c0,1-0.1,1.9-0.3,2.8
				c-0.2,1.1-0.7,3.4-2,3.6c-0.5,0.1-0.9,0.7-0.2,0.5c2.2-0.4,2.9-2.8,3.3-4.8c0.4-2.2,0.2-4.4-0.3-6.5c-1.5-6.6-6.2-13.4-12.9-15.6
				c-2.6-0.8-5.4-0.6-7.4,1.3C99.7,93.3,100.7,93.2,100.9,93L100.9,93z"/>
		</g>
	</g>
	<g>
		<g>
			<path class="st10" d="M113.5,86.7c2.7-2.6,6.7-1.2,9.4,0.6c3.4,2.3,6.1,5.6,7.8,9.4c1.2,2.7,2.1,5.8,1.9,8.8
				c-0.1,1.6-0.3,5.3-2.3,5.7c-0.6,0.1-0.4,0.8,0.2,0.7c2.1-0.4,2.7-3.1,2.9-4.9c0.3-2.1,0.2-4.1-0.3-6.2
				c-1.5-6.6-6.2-13.5-12.9-15.8c-2.7-0.9-5.6-0.7-7.6,1.3C112.2,86.8,113.2,87,113.5,86.7L113.5,86.7z"/>
		</g>
	</g>
	<g>
		<g>
			<path class="st10" d="M126.1,80.2c2.6-2.5,6.4-1.4,9.1,0.3c3.5,2.2,6.3,5.9,8.1,9.6c1.3,2.7,2.2,5.7,2,8.7
				c-0.1,0.9-0.1,1.7-0.3,2.6c-0.2,0.9-0.5,3.1-1.7,3.3c-0.4,0.1-0.8,0.6-0.1,0.5c2.1-0.4,2.6-2.6,2.8-4.4c0.3-2,0.3-4.1-0.1-6.1
				c-0.8-3.4-2.4-6.7-4.6-9.5c-2.2-2.9-5.1-5.6-8.6-6.6c-2.6-0.7-5.5-0.4-7.5,1.5C124.9,80.5,125.8,80.5,126.1,80.2L126.1,80.2z"/>
		</g>
	</g>
	<g>
		<g>
			<path class="st10" d="M138.6,74c2.4-2.3,5.9-1.8,8.6-0.4c3.8,2,6.6,5.9,8.6,9.7c1.5,2.8,2.4,5.7,2.3,8.9c0,1.5,0.1,5.5-1.9,5.9
				c-0.6,0.1-0.4,0.8,0.2,0.7c2-0.4,2.4-3,2.5-4.7c0.2-1.9,0.3-4-0.2-5.8c-0.8-3.6-2.7-6.9-4.9-9.8c-2.1-2.8-4.8-5.4-8.3-6.4
				c-2.6-0.7-5.5-0.4-7.5,1.5C137.5,74,138.2,74.4,138.6,74L138.6,74z"/>
		</g>
	</g>
</g>
<g>
	<g>
		<g>
			<path class="st11" d="M143.7,71.7c0.3-0.4,1.2-0.4,1.7-0.5c1.2-0.1,2.4,0,3.6,0.2c3.2,0.7,5.7,2.8,7.6,5.4
				c2.6,3.6,5.2,7.9,5.4,12.5c0.1,1.4,0,2.8-0.2,4.2c-0.1,0.9-0.3,2.7-1.2,3.2c-0.4,0.3,0.5,0.2,0.7,0.1c0.8-0.5,1-1.7,1.2-2.5
				c0.3-1.4,0.4-2.8,0.4-4.2c0-1.9-0.3-3.7-1-5.5c-1.2-3.4-3.3-6.8-5.6-9.6c-2.1-2.5-5.1-4-8.3-4.3c-1.4-0.1-4.3-0.3-5.3,1
				C142.6,72,143.5,71.9,143.7,71.7L143.7,71.7z"/>
		</g>
	</g>
	<g>
		<g>
			<path class="st11" d="M131.1,78c0.4-0.4,1.4-0.5,1.9-0.5c1.2-0.1,2.4,0,3.5,0.3c3.4,0.9,5.9,3.2,7.9,6c2.6,3.6,4.8,7.8,4.9,12.3
				c0,1.3-0.1,2.7-0.3,4c-0.2,1-0.4,2.7-1.3,3.2c-0.4,0.2,0.6,0.1,0.7,0c0.9-0.5,1.2-1.7,1.4-2.6c0.3-1.3,0.4-2.7,0.5-4
				c0-1.9-0.3-3.8-0.9-5.6c-1.1-3.5-3.2-6.8-5.6-9.6c-2.1-2.5-5.1-4.1-8.4-4.4c-1.4-0.1-4.2-0.2-5.2,1.1
				C130.1,78.2,131,78.2,131.1,78L131.1,78z"/>
		</g>
	</g>
	<g>
		<g>
			<path class="st11" d="M118.6,84.3c0.3-0.4,1.2-0.5,1.6-0.6c1.1-0.1,2.3,0,3.4,0.2c3.4,0.8,5.9,3.2,7.9,5.9
				c2.9,3.8,4.7,7.9,5,12.7c0.1,1.2-0.1,2.5-0.3,3.6c-0.2,1-0.5,2.9-1.5,3.3c-0.6,0.3,0.3,0.3,0.6,0.2c1.9-0.9,2.1-4.3,2.2-6.1
				c0.1-1.9-0.1-4-0.6-5.8c-1-3.5-3-6.7-5.3-9.4c-2.2-2.6-5.1-4.7-8.6-5.1c-1.4-0.2-4.3-0.3-5.3,1C117.4,84.6,118.4,84.5,118.6,84.3
				L118.6,84.3z"/>
		</g>
	</g>
	<g>
		<g>
			<path class="st11" d="M106,90.8c0.8-1.1,3.5-0.7,4.6-0.5c3.5,0.7,6.3,3.2,8.4,6c3.1,3.9,4.8,8.1,4.8,13.1c0,1-0.1,2.1-0.3,3.1
				c-0.2,1-0.6,2.9-1.7,3.4c-0.6,0.3-0.1,0.8,0.5,0.6c2-0.8,2.4-4.2,2.5-6.1c0.2-1.9,0-3.9-0.4-5.7c-0.8-3.4-2.6-6.5-4.8-9.2
				c-2.3-2.8-5.2-5.3-8.9-6c-1.5-0.3-4.5-0.5-5.6,1C104.7,91,105.7,91.1,106,90.8L106,90.8z"/>
		</g>
	</g>
	<g>
		<g>
			<path class="st11" d="M93.4,96.9c0.8-1.1,3.5-0.7,4.6-0.4c3.4,0.8,6.1,3.3,8.3,5.9c2,2.4,3.6,5.2,4.4,8.2
				c0.5,1.8,0.5,3.6,0.5,5.4c0,0.9-0.1,1.8-0.4,2.7c-0.2,1-0.6,3-1.8,3.4c-0.6,0.2-0.5,0.8,0.1,0.6c2.2-0.7,2.7-3.8,2.9-5.7
				c0.2-2,0.1-4.1-0.3-6c-0.7-3.5-2.6-6.6-4.9-9.4c-2.4-2.8-5.4-5.4-9.2-5.9c-1.5-0.2-4.2-0.3-5.2,1.1
				C92.2,97.3,93.2,97.2,93.4,96.9L93.4,96.9z"/>
		</g>
	</g>
	<g>
		<g>
			<path class="st11" d="M80.9,103.2c0.8-1.1,3.3-0.7,4.3-0.5c3.3,0.8,6,3.2,8.2,5.7c3.6,4.2,5.3,9,5,14.4c0,0.8-0.2,1.6-0.4,2.4
				c-0.3,1-0.8,3-2,3.3c-0.6,0.2-0.5,0.7,0.1,0.5c2.2-0.6,2.9-3.5,3.2-5.5c0.3-2,0.2-4.3-0.2-6.3c-0.7-3.7-2.7-6.9-5.1-9.7
				c-2.4-2.7-5.4-5.2-9.1-5.7c-1.5-0.2-4-0.2-5.1,1.2C79.6,103.5,80.7,103.5,80.9,103.2L80.9,103.2z"/>
		</g>
	</g>
	<g>
		<g>
			<path class="st11" d="M68.3,109.5c0.8-1,2.9-0.8,3.9-0.5c3.3,0.7,6.1,3.1,8.3,5.6c3.9,4.3,5.7,9.3,5.2,15.1
				c-0.1,1.6-0.8,5.1-2.7,5.5c-0.6,0.2-0.5,0.7,0.1,0.5c2.2-0.5,3.2-3.3,3.5-5.3c0.4-2.2,0.3-4.6-0.1-6.8c-0.8-3.8-2.9-7.1-5.5-9.9
				c-2.4-2.5-5.4-4.9-9-5.3c-1.4-0.2-3.8-0.1-4.8,1.2C67.1,109.8,68.1,109.8,68.3,109.5L68.3,109.5z"/>
		</g>
	</g>
	<g>
		<g>
			<path class="st11" d="M55.8,115.7c0.7-1,2.5-0.8,3.6-0.6c3.2,0.6,6,3,8.2,5.3c4.2,4.4,6.2,9.7,5.6,15.7c-0.1,0.7-0.2,1.4-0.5,2.1
				c-0.4,1.1-1.1,3.1-2.4,3.4c-0.5,0.1-0.9,0.6-0.2,0.5c2.3-0.4,3.4-2.9,4-5c0.6-2.2,0.4-4.9,0-7.1c-0.7-3.9-2.9-7.3-5.7-10.1
				c-2.4-2.4-5.5-4.9-9-5.3c-1.4-0.2-3.6,0-4.6,1.3C54.5,116.1,55.6,116,55.8,115.7L55.8,115.7z"/>
		</g>
	</g>
</g>
<g>
	<path class="st12" d="M255.4,126.9l-108,53.7l-0.8,9.7c0,0,1.7,1.8,5.4-0.7c3.7-2.5,105-52.7,106.2-53.3c1.2-0.6,2.6-4.5,2-6.5
		C259.7,127.8,255.4,126.9,255.4,126.9z"/>
	<g>
		<path class="st8" d="M147.4,180.6l-0.8,9.8c0,0,3.9,3.4,4.9-3.1S147.4,180.6,147.4,180.6z"/>
	</g>
</g>
<path class="st5" d="M344.4,178.1c-0.8,0.3-125.1,61.5-132.4,66.9c-7.2,7.2-3,14.2,0.9,16.3c3.9,2.2,8.5,3.6,14.1-0.2
	s125.6-62.9,127.5-63.8c1.9-1,4.2-9.3-0.3-14.8C349.8,177,345.3,177.7,344.4,178.1z"/>
<ellipse class="st13" cx="219.9" cy="253.9" rx="11.8" ry="11"/>
<g>
	<g>
		<path class="st14" d="M254,222.9c30.7-15.7,63.5-32.5,64.5-33.1c1.5-0.9,1.8,0.9,1.8,0.9s-64.2,32.1-65.1,32.3
			c-0.9,0.3,2,2.7,3.6,1.9c1.6-0.9,68.5-34.6,69.1-35.3c0.6-0.7,3.3,0.2,2.3,0.8c-1.1,0.6-69.2,34.7-69.2,34.7
			c-1,0.8,0.6,2.1,1.8,1.3c1.2-0.8,67.9-34.3,68.8-34.8c0.9-0.5,2.7,0.9,1.6,1.4c-1.2,0.5-68.2,34.7-69.2,35.2c-1,0.5-0.2,2.1,1,1.7
			c1.2-0.5,66.2-34,69-35.1c0.7-0.7,2.6,0.3,1.7,0.7c-0.9,0.4-69.2,36-69.7,36.3c-0.5,0.3-0.1,1.8,1.2,1.1
			c1.3-0.7,67-35.1,68.7-35.8c1.7-0.7,1.1,1.3,0.4,1.5c-0.7,0.3-68.7,35.8-68.9,35.9c-1,1-1.4,2.8,0.3,2c1.7-0.8,68.8-36,68.7-36.2
			c0.9-0.5,2.1,0.7,0.4,2.1c-1.7,1.4-69,36.1-69.4,36.3c-0.4,0.2-1.9,1.5-0.2,1.5c1.7,0,70.2-35.5,70.2-35.5l-0.1,0.3"/>
		<path class="st14" d="M226.6,237.2l5.3-3c0,0,9.2-4.7,22.2-11.4"/>
	</g>
	<g>
		<g>
			<g>
				<path class="st10" d="M271.3,239c1.8-3.1,0.3-6.6-1.1-9.6c-1.7-3.6-4.2-6.5-8-8.1c-0.6-0.2-1.2-0.6-1.9-0.4
					c-0.8,0.2-1.7,0.8-2.5,1.1c-1.7,0.7-3.3,1.4-5.1,1.8c-1.4,0.3-2.4,0.3-3.8-0.1c-5.3-1.6-10.6-3.3-15.9-4.9
					c-0.3-0.1-1.2,0.4-0.6,0.6c4.8,1.5,9.7,3,14.5,4.5c1,0.3,2.1,0.8,3.2,0.9c1.4,0.1,2.9-0.3,4.2-0.8c1.6-0.5,3.1-1.1,4.6-1.8
					c0.5-0.2,1-0.4,1.4-0.6c0,0,0.3-0.1,0.3-0.2c0,0.2-0.6-0.1-0.4,0.1c0.1,0.2,0.8,0.2,1,0.3c0.6,0.2,1.3,0.6,1.9,0.9
					c1.7,1,3.2,2.4,4.3,4c1.6,2.2,2.8,4.9,3.5,7.5c0.4,1.7,0.3,3.3-0.6,4.8C270.1,239.4,271.1,239.3,271.3,239L271.3,239z"/>
			</g>
		</g>
		<g>
			<g>
				<path class="st10" d="M281.1,234.1c1.9-3.3,0.2-7-1.3-10c-1.6-3.3-4.2-5.9-7.5-7.5c-0.6-0.3-1.3-0.6-2-0.5
					c-1.1,0.2-2.2,0.8-3.3,1.2c-1.6,0.6-3.4,1.2-5.1,1.4c-1.3,0.1-2.5-0.3-3.7-0.7c-5.7-1.5-11.5-3-17.1-4.7
					c-0.4-0.1-1.3,0.5-0.6,0.7c5,1.6,10,2.8,15.1,4.2c2.6,0.7,4.9,1.6,7.6,1.1c1.6-0.3,3.1-0.9,4.6-1.5c0.7-0.3,2.1-1.1,2.7-1
					c0.9,0,2,0.9,2.7,1.3c1.6,1,3.1,2.4,4.2,3.9c1.5,2,2.6,4.6,3.3,7c0.4,1.7,0.4,3.4-0.5,5C279.8,234.5,280.9,234.5,281.1,234.1
					L281.1,234.1z"/>
			</g>
		</g>
		<g>
			<g>
				<path class="st10" d="M290.9,229.2c1.9-3.3,0.2-7.3-1.5-10.4c-1.6-3-4.4-5.8-7.6-7.1c-0.8-0.3-1.4-0.3-2.3-0.1
					c-1.6,0.4-3.1,1.1-4.7,1.5c-1.5,0.4-2.9,0.7-4.5,0.3c-1.4-0.4-2.9-0.7-4.3-1.1c-5.7-1.4-11.5-2.6-17.1-4.3
					c-0.4-0.1-1.3,0.4-0.6,0.6c4.8,1.5,9.8,2.6,14.7,3.8c1.8,0.4,3.5,0.8,5.3,1.3c1,0.2,2,0.6,2.9,0.6c3,0.1,5.7-1.5,8.6-2.2
					c1-0.2,1.9,0.5,2.7,1c1.6,1,3,2.3,4.2,3.7c1.6,2,2.8,4.4,3.5,6.8c0.6,1.9,0.6,3.8-0.4,5.6C289.7,229.6,290.7,229.5,290.9,229.2
					L290.9,229.2z"/>
			</g>
		</g>
		<g>
			<g>
				<path class="st10" d="M300.7,224.4c1.9-3.4,0.3-7.6-1.6-10.7c-1.1-1.8-2.5-3.4-4.1-4.8c-1.1-0.9-2.3-1.9-3.7-2.3
					c-1.1-0.3-2.4,0.2-3.5,0.5c-1.9,0.5-3.8,1.3-5.8,1.2c-1,0-2.1-0.4-3.1-0.7c-1.8-0.4-3.7-0.8-5.6-1.2c-5.5-1.2-11.1-2.2-16.4-3.9
					c-0.4-0.1-1.3,0.5-0.6,0.7c7.7,2.4,15.9,3.5,23.7,5.5c2.8,0.7,5.5-0.3,8.3-1c1.4-0.4,2.3-0.6,3.6,0.2c1.7,1,3.2,2.3,4.4,3.8
					c2.6,3.1,5.6,8.6,3.3,12.6C299.5,224.8,300.5,224.7,300.7,224.4L300.7,224.4z"/>
			</g>
		</g>
		<g>
			<g>
				<path class="st10" d="M310.6,219.5c2-3.5,0.2-8.1-1.9-11.2c-1.1-1.7-2.5-3.2-4-4.4c-1.1-0.9-2.4-1.9-3.9-2
					c-3.4-0.2-6.4,1.8-9.8,1c-3.3-0.8-6.5-1.4-9.8-2c-5.4-1.1-11-1.9-16.2-3.6c-0.4-0.1-1.3,0.5-0.6,0.7c4.5,1.4,9.1,2.2,13.6,3.1
					c3.7,0.7,7.3,1.4,10.9,2.2c0.8,0.2,1.7,0.4,2.5,0.6c1.6,0.3,3.3-0.1,4.9-0.4c1.6-0.4,3.5-1.1,5.1-0.5c1.8,0.7,3.3,2.2,4.5,3.6
					c2.8,3.2,6.1,8.8,3.7,13C309.3,219.9,310.3,219.8,310.6,219.5L310.6,219.5z"/>
			</g>
		</g>
		<g>
			<g>
				<path class="st10" d="M320.4,214.6c2.1-3.7,0.1-8.4-2.1-11.6c-1.7-2.5-4.4-5.9-7.7-6c-2.3-0.1-4.4,0.7-6.7,0.8
					c-1.3,0.1-2.4-0.3-3.7-0.6c-3.6-0.7-7.2-1.4-10.9-2c-5.5-1-11.1-1.8-16.5-3.5c-0.5-0.2-1.3,0.5-0.6,0.7
					c4.4,1.4,8.8,2.1,13.3,2.9c3.9,0.7,7.8,1.4,11.7,2.1c2.4,0.5,4.9,1.3,7.4,1c2.1-0.3,4.5-1.2,6.5-0.6c1.7,0.5,3.1,1.9,4.2,3.2
					c2.9,3.3,6.3,8.9,3.9,13.3C319,215,320.1,215,320.4,214.6L320.4,214.6z"/>
			</g>
		</g>
		<g>
			<g>
				<path class="st10" d="M330.2,209.7c2-3.6,0.3-7.9-1.7-11c-2-3.1-4.5-6.2-8.4-6.2c-2.4,0-4.9,0.7-7.3,0.2
					c-0.9-0.2-1.9-0.4-2.8-0.6c-4-0.7-7.9-1.4-11.9-2.1c-5.8-1-11.6-1.7-17.2-3.5c-0.4-0.1-1.3,0.4-0.7,0.6c4.8,1.5,9.7,2.2,14.6,3
					c4.1,0.7,8.2,1.4,12.3,2.1c2.4,0.4,4.9,1.3,7.3,1.2c2.3-0.1,4.9-0.9,7.2-0.1c1.8,0.6,3.2,2.2,4.4,3.6c2.6,3.3,5.5,8.5,3.2,12.7
					C328.9,210.1,330,210,330.2,209.7L330.2,209.7z"/>
			</g>
		</g>
	</g>
	<g>
		<g>
			<g>
				<path class="st10" d="M275.1,237.4c1.8-3.1,0.3-6.6-1.1-9.6c-1.7-3.6-4.2-6.5-8-8.1c-0.6-0.2-1.2-0.6-1.9-0.4
					c-0.8,0.2-1.7,0.8-2.5,1.1c-1.7,0.7-3.3,1.4-5.1,1.8c-1.4,0.3-2.4,0.3-3.8-0.1c-5.3-1.6-10.6-3.3-15.9-4.9
					c-0.3-0.1-1.2,0.4-0.6,0.6c4.8,1.5,9.7,3,14.5,4.5c1,0.3,2.1,0.8,3.2,0.9c1.4,0.1,2.9-0.3,4.2-0.8c1.6-0.5,3.1-1.1,4.6-1.8
					c0.5-0.2,1-0.4,1.4-0.6c0,0,0.3-0.1,0.3-0.2c0,0.2-0.6-0.1-0.4,0.1c0.1,0.2,0.8,0.2,1,0.3c0.6,0.2,1.3,0.6,1.9,0.9
					c1.7,1,3.2,2.4,4.3,4c1.6,2.2,2.8,4.9,3.5,7.5c0.4,1.7,0.3,3.3-0.6,4.8C273.8,237.8,274.9,237.7,275.1,237.4L275.1,237.4z"/>
			</g>
		</g>
		<g>
			<g>
				<path class="st10" d="M284.9,232.5c1.8-3.2,0.3-6.7-1.1-9.7c-1.7-3.4-4.2-6.2-7.7-7.8c-0.6-0.3-1.3-0.6-2-0.5
					c-1.1,0.2-2.2,0.8-3.3,1.2c-1.6,0.6-3.4,1.2-5.1,1.4c-1.3,0.1-2.5-0.3-3.7-0.7c-5.7-1.5-11.5-3-17.1-4.7
					c-0.5-0.1-1.2,0.5-0.6,0.7c5,1.6,10,2.8,15.1,4.2c2.6,0.7,4.9,1.6,7.6,1.1c1.6-0.3,3.1-0.9,4.6-1.5c0.7-0.3,2.1-1.1,2.7-1
					c0.9,0,2,0.9,2.7,1.3c1.6,1,3.1,2.4,4.2,3.9c1.5,2,2.6,4.6,3.3,7c0.4,1.7,0.4,3.4-0.5,4.9C283.6,232.9,284.6,232.9,284.9,232.5
					L284.9,232.5z"/>
			</g>
		</g>
		<g>
			<g>
				<path class="st10" d="M294.7,227.6c1.9-3.4,0.2-7.4-1.5-10.5c-1.6-2.9-4.4-5.7-7.5-7c-0.8-0.4-1.5-0.3-2.4-0.1
					c-1.5,0.4-3,1-4.5,1.5c-1.5,0.4-3,0.8-4.5,0.4c-1.4-0.4-2.8-0.7-4.2-1c-5.7-1.4-11.5-2.6-17.2-4.3c-0.3-0.1-1.2,0.4-0.9,0.5
					c4.7,1.5,9.6,2.5,14.4,3.7c1.8,0.4,3.7,0.9,5.5,1.3c1,0.2,2,0.6,2.9,0.6c3.1,0.1,5.8-1.5,8.7-2.2c1-0.2,2,0.5,2.8,1
					c1.5,1,2.9,2.2,4,3.6c1.7,2,2.9,4.5,3.6,7c0.6,1.9,0.6,3.9-0.4,5.6C293.5,228,294.5,227.8,294.7,227.6L294.7,227.6z"/>
			</g>
		</g>
		<g>
			<g>
				<path class="st10" d="M304.5,222.8c1.9-3.4,0.2-7.6-1.6-10.7c-1.1-1.8-2.5-3.3-4-4.7c-1.1-0.9-2.4-2-3.8-2.3
					c-1.1-0.3-2.4,0.1-3.5,0.5c-1.8,0.5-3.7,1.2-5.7,1.2c-1,0-2.1-0.4-3.1-0.6c-1.8-0.4-3.6-0.8-5.4-1.2c-5.6-1.2-11.2-2.2-16.7-3.9
					c-0.5-0.1-1.3,0.5-0.6,0.7c7.7,2.4,15.8,3.5,23.7,5.5c2.9,0.7,5.5-0.3,8.3-1c1.4-0.4,2.3-0.6,3.6,0.1c1.7,0.9,3.2,2.3,4.4,3.8
					c2.6,3.1,5.6,8.6,3.3,12.5C303.2,223.2,304.3,223.2,304.5,222.8L304.5,222.8z"/>
			</g>
		</g>
		<g>
			<g>
				<path class="st10" d="M314.3,217.7c2-3.6,0-8.4-2.2-11.4c-1.6-2.3-4.5-5.8-7.6-5.9c-1.8,0-3.5,0.6-5.2,0.9c-1.6,0.3-3,0.4-4.6,0
					c-3.3-0.7-6.6-1.4-9.9-2c-5.4-1.1-10.8-1.9-16.1-3.6c-0.3-0.1-1.2,0.3-0.9,0.4c4.5,1.4,9.2,2.2,13.9,3.1
					c3.6,0.7,7.2,1.4,10.9,2.2c0.9,0.2,1.8,0.5,2.6,0.6c1.6,0.2,3.2-0.2,4.7-0.5c1.8-0.4,3.7-1.2,5.4-0.3c1.7,0.8,3.1,2.2,4.3,3.6
					c2.8,3.2,6,8.8,3.6,13C313.2,218.1,314.2,218,314.3,217.7L314.3,217.7z"/>
			</g>
		</g>
		<g>
			<g>
				<path class="st10" d="M324.1,212.8c2.1-3.7,0-8.3-2.2-11.5c-1.8-2.6-4.4-5.7-7.8-5.7c-2.3,0-4.4,0.8-6.7,0.8
					c-1.2,0-2.4-0.4-3.5-0.6c-3.6-0.7-7.2-1.4-10.8-2c-5.5-1-11-1.8-16.3-3.5c-0.3-0.1-1.2,0.3-0.9,0.5c4.4,1.4,9,2.1,13.5,3
					c4,0.7,8,1.4,12,2.2c2.4,0.5,4.8,1.2,7.3,0.9c2-0.3,4.5-1.2,6.5-0.4c1.7,0.6,3.2,2.1,4.3,3.5c2.9,3.3,6.1,8.9,3.6,13.2
					C323,213.2,324,213.1,324.1,212.8L324.1,212.8z"/>
			</g>
		</g>
		<g>
			<g>
				<path class="st10" d="M333.9,208.1c2-3.6,0.3-7.9-1.7-11c-2-3.1-4.5-6.2-8.4-6.2c-2.4,0-4.9,0.7-7.3,0.2
					c-0.9-0.2-1.9-0.4-2.8-0.6c-4-0.7-7.9-1.4-11.9-2.1c-5.8-1-11.6-1.7-17.2-3.5c-0.4-0.1-1.3,0.4-0.7,0.6c4.8,1.5,9.7,2.2,14.6,3
					c4.1,0.7,8.2,1.4,12.3,2.1c2.4,0.4,4.9,1.3,7.3,1.2c2.3-0.1,4.9-0.9,7.2-0.1c1.8,0.6,3.2,2.2,4.4,3.6c2.6,3.3,5.5,8.5,3.2,12.7
					C332.6,208.5,333.7,208.4,333.9,208.1L333.9,208.1z"/>
			</g>
		</g>
	</g>
	<g>
		<g>
			<g>
				<path class="st11" d="M246.8,221.7c1.5,1.6,2.9,3.2,4.4,4.8c0.2,0.2,0.8,0.1,1-0.2c0.8-1.6,2.8-2.7,4.5-2.6
					c2.5,0.2,4.9,2,6.7,3.7c2.2,2.2,4.2,5,4.5,8.2c0.2,1.6,0,3.4-0.8,4.8c-0.3,0.5,0.8,0.4,1,0.1c2.1-3.6,0.4-8.3-1.9-11.3
					c-2.4-3.1-6.9-7.1-11.1-5.9c-1.5,0.4-3.2,1.5-3.9,3c0.3-0.1,0.7-0.1,1-0.2c-1.5-1.6-2.9-3.2-4.4-4.8
					C247.5,221,246.5,221.4,246.8,221.7L246.8,221.7z"/>
			</g>
		</g>
		<g>
			<g>
				<path class="st11" d="M256.8,216.4c1.1,1.3,2.2,2.6,3.4,3.8c0.3,0.4,0.8,1.1,1.4,1.2c0.7,0.1,1.1-0.6,1.5-0.9
					c1-1,2.4-1.7,3.9-1.5c1.4,0.2,2.7,0.9,3.8,1.7c2.9,1.9,5.2,4.8,6.3,8.1c0.7,2.1,1.1,4.9-0.2,6.9c-0.2,0.4,0.8,0.3,0.9,0
					c0.9-1.5,1-3.5,0.7-5.2c-0.5-3.5-2.7-6.8-5.4-9.1c-1.8-1.6-4.3-3.3-6.8-3.1c-1.3,0.1-2.6,0.7-3.6,1.5c-0.3,0.2-0.8,0.6-1,0.9
					c-0.3,0.5,0.4-0.1,0.4,0c0-0.1-0.3-0.3-0.4-0.3c-1.5-1.4-2.8-2.9-4.1-4.5C257.6,215.8,256.6,216.1,256.8,216.4L256.8,216.4z"/>
			</g>
		</g>
		<g>
			<g>
				<path class="st11" d="M266.9,211.2c1.1,1.3,2.1,2.6,3.3,3.8c0.4,0.4,1,1.2,1.7,1.3c0.7,0.1,1.3-0.6,1.8-1c1.2-0.9,2.6-1.3,4-0.9
					c1.2,0.4,2.4,1,3.4,1.8c2.7,2,4.8,4.9,5.7,8.2c0.5,1.8,1,4.7-0.2,6.3c-0.4,0.5,0.6,0.6,0.8,0.3c0.9-1.2,1-3,0.8-4.4
					c-0.3-3.4-2-6.7-4.4-9.1c-1.7-1.8-4.1-3.6-6.6-4c-1.3-0.2-2.5,0.3-3.6,0.9c-0.5,0.3-1,0.6-1.4,1c-0.3,0.3-0.2,0,0,0.2
					c-0.1-0.1-0.3-0.2-0.4-0.3c-1.6-1.3-2.9-3-4.1-4.5C267.5,210.4,266.6,210.8,266.9,211.2L266.9,211.2z"/>
			</g>
		</g>
		<g>
			<g>
				<path class="st11" d="M276.9,205.9c1,1.3,2.1,2.6,3.3,3.8c0.5,0.5,1.1,1.2,1.8,1.3c0.9,0.2,1.7-0.6,2.4-1
					c1.3-0.7,2.5-0.8,3.9-0.3c1.2,0.5,2.3,1.2,3.3,2.1c2.6,2.2,4.3,5.1,5.1,8.4c0.4,1.5,0.9,4.3-0.3,5.6c-0.4,0.4,0.5,0.6,0.8,0.3
					c0.9-1,0.9-2.7,0.8-3.9c-0.2-3.3-1.6-6.5-3.7-9c-1.6-1.9-3.8-3.7-6.3-4.4c-1.2-0.3-2.3-0.2-3.4,0.3c-0.6,0.3-1.1,0.6-1.7,0.9
					c-0.5,0.3-0.6,0.3-1-0.1c-1.6-1.2-2.9-3-4.1-4.6C277.5,205.1,276.6,205.5,276.9,205.9L276.9,205.9z"/>
			</g>
		</g>
		<g>
			<g>
				<path class="st11" d="M286.9,200.5c1,1.3,2,2.6,3.2,3.8c0.6,0.5,1.3,1.3,2.1,1.4c1,0.1,2-0.6,2.9-0.9c1.5-0.6,2.7-0.3,4.1,0.5
					c1.1,0.6,2.2,1.4,3.1,2.3c2.4,2.4,3.8,5.3,4.4,8.6c0.2,1.3,0.4,2.7,0,4c-0.1,0.3-0.4,0.9-0.5,1c-0.4,0.3,0.5,0.2,0.7,0.1
					c0.8-0.6,0.9-1.9,0.9-2.8c0-3.2-1.1-6.5-2.9-9.1c-1.5-2.1-3.6-4-6-4.9c-1-0.4-1.9-0.5-2.9-0.2c-0.7,0.2-1.3,0.4-1.9,0.7
					c-0.7,0.3-1.2,0.6-1.9,0.1c-1.7-1.1-3.1-3.1-4.2-4.7C287.7,200,286.9,200.4,286.9,200.5L286.9,200.5z"/>
			</g>
		</g>
		<g>
			<g>
				<path class="st11" d="M297,195.3c0.9,1.4,2,2.7,3.1,3.8c0.6,0.6,1.4,1.3,2.3,1.5c1.3,0.2,2.5-0.6,3.8-0.9
					c2.3-0.4,4.9,1.9,6.3,3.5c2.3,2.5,3.4,5.4,3.8,8.7c0.1,1.1,0.3,2.4,0,3.5c-0.1,0.2-0.1,0.4-0.3,0.6c0,0.1-0.1,0.1,0,0
					c-0.6,0.2-0.1,0.7,0.4,0.5c0.8-0.3,0.9-1.5,1-2.2c0.2-3-0.6-6.3-2.1-8.9c-1.4-2.3-3.4-4.4-5.8-5.7c-0.9-0.5-1.9-0.9-2.9-0.8
					c-1.3,0.2-3,1.4-4.3,0.7c-1.9-0.9-3.3-3.1-4.5-4.8C297.6,194.6,296.8,194.9,297,195.3L297,195.3z"/>
			</g>
		</g>
		<g>
			<g>
				<path class="st11" d="M307.1,190c0.9,1.4,1.9,2.8,3.2,3.9c0.7,0.6,1.5,1.3,2.4,1.4c1.3,0.2,2.5-0.4,3.8-0.6
					c2.2-0.3,4.7,2.1,6,3.6c2.2,2.5,3.3,5.4,3.7,8.6c0.1,1.2,0.3,2.5,0,3.7c-0.1,0.2-0.2,0.4-0.3,0.6c0,0.1,0.1,0,0.2,0
					c-0.3,0-0.9,0.5-0.3,0.5c0.8,0,1.1-0.8,1.2-1.5c0.2-1.2,0.1-2.4-0.1-3.6c-0.2-1.9-0.6-3.6-1.4-5.3c-1.2-2.5-3.2-4.7-5.5-6.1
					c-0.8-0.5-1.8-1.1-2.8-1.1c-1.5,0-3.2,1.1-4.7,0.5c-2-0.9-3.6-3.2-4.7-5C307.7,189.4,306.9,189.7,307.1,190L307.1,190z"/>
			</g>
		</g>
		<g>
			<g>
				<path class="st11" d="M317.1,184.7c0.8,1.4,1.9,2.8,3.1,4c0.7,0.7,1.6,1.3,2.6,1.4c1.4,0.2,2.9-0.6,4.3-0.3
					c2,0.4,4.1,2.3,5.3,3.8c2.1,2.4,3.1,5.3,3.4,8.5c0.1,1.3,0.3,2.7,0,3.9c0,0.1-0.2,0.6-0.2,0.6c0,0.1,0.4-0.1,0.4-0.1
					c-0.2-0.1-0.9,0.2-0.8,0.3c0.5,0.3,1.1-0.2,1.3-0.7c0.3-0.8,0.2-1.9,0.2-2.7c-0.1-1.9-0.3-3.8-0.9-5.6c-1-2.7-2.9-5.2-5.2-6.8
					c-0.8-0.6-1.8-1.2-2.7-1.4c-1.5-0.4-3.2,0.5-4.7,0.2c-2.3-0.5-4.2-3.3-5.3-5.3C317.8,184.3,317,184.6,317.1,184.7L317.1,184.7z"
					/>
			</g>
		</g>
	</g>
</g>
<polygon class="st12" points="182.8,202.8 278.7,155 285.3,158.4 189.6,206.5 "/>
<path class="st5" d="M163.4,28L43,89.1c-10.9,10.9-9.7,16.7-3.8,20c5.9,3.3,8.6,1.3,17.2-4.5l120-61.1c0,0,2.5-2.3,2.7-4.3
	c0.2-2,0.4-7.3-4.3-11.3S163.4,28,163.4,28z"/>
<ellipse class="st4" cx="41.8" cy="100.6" rx="11.6" ry="10.8"/>
<path class="st5" d="M330.5,170.1c-2.1,0.2-107.1,51.2-113.1,55.7c-5.9,5.9-2.5,11.6,0.8,13.4c3.2,1.8,6.9,3,11.6-0.2
	c4.7-3.1,106.9-54.8,108.3-56.1c1.5-1.3,3.4-7-0.1-10.3C334.5,169.3,332.6,169.9,330.5,170.1z"/>
<g>
	<path class="st3" d="M281.9,156l-97,48.5c-0.2,0.1-0.5,0.2-0.7,0.2c-0.6,0-1.2-0.3-1.5-0.9c-0.4-0.8-0.1-1.8,0.8-2.3l97.5-48.7"/>
	<line class="st3" x1="283" y1="155.4" x2="281.9" y2="156"/>
</g>
<g>
	<g>
		<g>
			<path class="st15" d="M279.8,156.1c-0.3,0-0.5-0.2-0.5-0.5l-0.1-22.8c0-0.3,0.2-0.5,0.5-0.5c0,0,0,0,0,0c0.3,0,0.5,0.2,0.5,0.5
				l0.1,22.8C280.3,155.9,280.1,156.1,279.8,156.1C279.8,156.1,279.8,156.1,279.8,156.1z"/>
		</g>
		<path class="st15" d="M274.9,134.9c0-0.3,0.2-0.5,0.5-0.5c0.3,0,0.5,0.2,0.5,0.5l0.1,22.8c0,0.3-0.2,0.5-0.5,0.5c0,0,0,0,0,0
			c-0.3,0-0.5-0.2-0.5-0.5L274.9,134.9z"/>
		<path class="st15" d="M270.6,137c0-0.3,0.2-0.5,0.5-0.5c0.3,0,0.5,0.2,0.5,0.5l0.1,22.9c0,0.3-0.2,0.5-0.5,0.5c0,0,0,0,0,0
			c-0.3,0-0.5-0.2-0.5-0.5L270.6,137z"/>
		<path class="st15" d="M266.3,139c0-0.3,0.2-0.5,0.5-0.5c0.3,0,0.5,0.2,0.5,0.5l0,22.9c0,0.3-0.2,0.5-0.5,0.5c0,0,0,0,0,0
			c-0.3,0-0.5-0.2-0.5-0.5L266.3,139z"/>
		<path class="st15" d="M262,141.1c0-0.3,0.2-0.5,0.5-0.5c0.3,0,0.5,0.2,0.5,0.5l0,22.9c0,0.3-0.2,0.5-0.5,0.5c0,0,0,0,0,0
			c-0.3,0-0.5-0.2-0.5-0.5L262,141.1z"/>
		<path class="st15" d="M257.7,143.2c0-0.3,0.2-0.5,0.5-0.5c0.3,0,0.5,0.2,0.5,0.5l0,22.9c0,0.3-0.2,0.5-0.5,0.5c0,0,0,0,0,0
			c-0.3,0-0.5-0.2-0.5-0.5L257.7,143.2z"/>
		<path class="st15" d="M253.4,145.3c0-0.3,0.2-0.5,0.5-0.5c0.3,0,0.5,0.2,0.5,0.5l0,22.9c0,0.3-0.2,0.5-0.5,0.5c0,0,0,0,0,0
			c-0.3,0-0.5-0.2-0.5-0.5L253.4,145.3z"/>
		<path class="st15" d="M249.1,147.4c0-0.3,0.3-0.5,0.5-0.5c0.3,0,0.5,0.2,0.5,0.5l0,23c0,0.3-0.2,0.5-0.5,0.5c0,0,0,0,0,0
			c-0.3,0-0.5-0.2-0.5-0.5L249.1,147.4z"/>
		<path class="st15" d="M244.8,149.5c0-0.3,0.3-0.5,0.5-0.5c0.3,0,0.5,0.2,0.5,0.5l0,23c0,0.3-0.2,0.5-0.5,0.5c0,0,0,0,0,0
			c-0.3,0-0.5-0.2-0.5-0.5L244.8,149.5z"/>
		<path class="st15" d="M240.6,151.6c0-0.3,0.3-0.5,0.5-0.5c0.3,0,0.5,0.2,0.5,0.5l0,23c0,0.3-0.2,0.5-0.5,0.5c0,0,0,0,0,0
			c-0.3,0-0.5-0.2-0.5-0.5L240.6,151.6z"/>
		<path class="st15" d="M236.3,153.7c0-0.3,0.3-0.5,0.5-0.5c0.3,0,0.5,0.2,0.5,0.5l-0.1,23c0,0.3-0.2,0.5-0.5,0.5c0,0,0,0,0,0
			c-0.3,0-0.5-0.2-0.5-0.5L236.3,153.7z"/>
		<path class="st15" d="M232,155.8c0-0.3,0.3-0.5,0.5-0.5c0.3,0,0.5,0.2,0.5,0.5l-0.1,23.1c0,0.3-0.2,0.5-0.5,0.5c0,0,0,0,0,0
			c-0.3,0-0.5-0.2-0.5-0.5L232,155.8z"/>
		<path class="st15" d="M227.7,157.9c0-0.3,0.3-0.5,0.5-0.5c0.3,0,0.5,0.2,0.5,0.5l-0.1,23.1c0,0.3-0.2,0.5-0.5,0.5c0,0,0,0,0,0
			c-0.3,0-0.5-0.2-0.5-0.5L227.7,157.9z"/>
		<path class="st15" d="M223.4,160c0-0.3,0.3-0.5,0.5-0.5c0.3,0,0.5,0.2,0.5,0.5l-0.1,23.1c0,0.3-0.2,0.5-0.5,0.5c0,0,0,0,0,0
			c-0.3,0-0.5-0.2-0.5-0.5L223.4,160z"/>
		<path class="st15" d="M219.1,162c0-0.3,0.3-0.5,0.5-0.5c0.3,0,0.5,0.2,0.5,0.5l-0.1,23.1c0,0.3-0.2,0.5-0.5,0.5c0,0,0,0,0,0
			c-0.3,0-0.5-0.2-0.5-0.5L219.1,162z"/>
		<path class="st15" d="M214.8,164.1c0-0.3,0.3-0.5,0.5-0.5c0.3,0,0.5,0.2,0.5,0.5l-0.1,23.1c0,0.3-0.2,0.5-0.5,0.5c0,0,0,0,0,0
			c-0.3,0-0.5-0.2-0.5-0.5L214.8,164.1z"/>
		<path class="st15" d="M210.5,166.2c0-0.3,0.3-0.5,0.5-0.5c0.3,0,0.5,0.2,0.5,0.5l-0.2,23.2c0,0.3-0.2,0.5-0.5,0.5c0,0,0,0,0,0
			c-0.3,0-0.5-0.2-0.5-0.5L210.5,166.2z"/>
		<path class="st15" d="M206.2,168.3c0-0.3,0.3-0.5,0.5-0.5c0.3,0,0.5,0.2,0.5,0.5l-0.2,23.2c0,0.3-0.2,0.5-0.5,0.5c0,0,0,0,0,0
			c-0.3,0-0.5-0.2-0.5-0.5L206.2,168.3z"/>
		<g>
			<path class="st15" d="M202.3,194.2C202.3,194.2,202.3,194.2,202.3,194.2c-0.3,0-0.5-0.2-0.5-0.5l0.2-23.2c0-0.3,0.3-0.5,0.5-0.5
				c0.3,0,0.5,0.2,0.5,0.5l-0.2,23.2C202.8,193.9,202.6,194.2,202.3,194.2z"/>
		</g>
	</g>
	<g>
		<path class="st15" d="M279.8,156.1c-0.3,0-0.5-0.2-0.5-0.5l-0.1-22.8c0-0.3,0.2-0.5,0.5-0.5c0,0,0,0,0,0c0.3,0,0.5,0.2,0.5,0.5
			l0.1,22.8C280.3,155.9,280.1,156.1,279.8,156.1C279.8,156.1,279.8,156.1,279.8,156.1z"/>
	</g>
</g>
<path class="st5" d="M322.7,164.1l-100.8,49.4l-0.8,11.1c0,0,2,2,6.2-0.9c4.2-2.8,97.6-50.3,99-51.1c1.4-0.7,1-4.9-0.2-7.3
	C324.9,163,322.7,164.1,322.7,164.1z"/>
<path class="st16" d="M242.7,219"/>
<path class="st17" d="M279.6,147.1"/>
<path class="st17" d="M271.8,166.9"/>
<path class="st18" d="M272.2,150.8"/>
<path class="st18" d="M271.2,170.1"/>
<path class="st17" d="M258.7,157.1"/>
<path class="st17" d="M264.1,145"/>
<g>
	<g>
		<path class="st13" d="M204.4,208.2c0.5,1.1-1.1,3.6-2.3,4.5c-1.1,0.9-20.5,11.9-22.1,13c-1.6,1.1-4.3,2.3-6.7,2.3
			c-2.4,0-2.6-0.1-3.4-1.2c-0.8-1.1,1.7-5,2.9-6.2s24.9-12.3,26-12.5C199.9,207.9,203.9,207,204.4,208.2z"/>
		<path class="st13" d="M169.9,226.8c0,0,0.6-0.2,2.9-1.1c2.2-0.9,9.5-5.1,9.5-5.1l19.9-10.7l2.3-1.7"/>
		<circle class="st19" cx="198.2" cy="213.5" r="0.5"/>
		<path class="st8" d="M177.8,219.5c-0.3,0.3-0.3,0.6-0.3,0.6s-0.1,0.4,1.3,0.7c1.4,0.4,2.6-0.4,2.6-0.4l16.2-8.7c0,0,0.8-0.7,0-1.4
			c-0.8-0.7-2.3,0-2.3,0S178.1,219.1,177.8,219.5z"/>
		<path class="st8" d="M183.5,219.2c0,0-0.2-0.9-1.2-0.9s-4.3,1.8-4.3,2c0,0.2,1.4,0.8,2.6,0.4S183.5,219.2,183.5,219.2z"/>
		<path class="st8" d="M178,220.6c-0.1-0.2,0.1-0.4,0.5-0.5c0.3-0.1,0.5-0.1,1,0c0.4,0.1,0.9,0.8,0.6,0.9S178.2,220.8,178,220.6z"/>
	</g>
	<path class="st14" d="M198.1,213.5l8.5-3.9c0,0,89.7-45.4,91.2-46.3c1.5-0.9,1.8,0.9,1.8,0.9s-73,38.2-73.8,38.5
		c-0.9,0.3,0.5,1.4,2.1,0.5c1.6-0.9,72.5-37.3,73.1-38s2.5,0.8,1.5,1.4c-1.1,0.6-71.2,37.3-71.2,37.3c-1,0.8,1.1,1.7,2.1,0.9
		c0,0,68.7-36,70.9-37s3.3,0.4,2.1,0.9c-1.2,0.5-69.3,36.1-70.2,36.6s1.1,1.4,2.3,0.9s67.5-35.6,70.4-36.7s2.7,0.6,1.9,1
		c-0.9,0.4-69.8,36.8-70.3,37.1s-0.1,1.8,1.2,1.1c1.3-0.7,69.6-37,71.3-37.7c1.7-0.7,2.3,1.2,1.6,1.5c-0.7,0.3-71.5,37.7-71.7,37.8
		c-0.2,0.1-1.4,2.5,0.3,1.7c1.7-0.8,72.2-37.4,72.1-37.6c0.9-0.5,2,0.8,0.2,2.2c-1.7,1.4-72,37.1-72.4,37.3
		c-0.4,0.2-1.5,1.6,0.1,1.6s73.5-37.3,73.5-37.3l-0.1,0.3"/>
</g>
<g>
	<g>
		<g>
			<path class="st10" d="M307.5,183.5c1.5-2.7,1.6-6.1-0.8-8.2c-2-1.8-4.8-2.8-7.3-3.6c-3.7-1.2-7.6-2.2-11.2-3.6
				c-5.5-2.1-10.6-5.1-16.1-7.3c-4.9-1.9-9.5-4.3-14.1-6.9c-3.8-2.2-7.3-4.8-10.8-7.2c-7-4.8-14-9.5-21-14.3
				c-7.8-5.3-15.5-10.6-23.3-15.9c-4.7-3.2-9.5-6.5-14.2-9.7c-0.7-0.5-0.8-0.6-1.4-1.1c-1.5-1.6-3.1-3.2-4.6-4.8
				c-6-6.3-12-12.6-18-18.9C158,75,151.4,68,144.9,61c-2.3-2.4-4.5-4.8-6.7-7.3c-2.1-2.3-3.9-5.2-6.4-7.1c-2-1.5-4.3-1.6-6.4-0.2
				c-0.6,0.4,0.3,0.6,0.7,0.3c4.1-2.8,7.6,3.3,10,6.1c1.9,2.1,3.8,4.2,5.7,6.2c6.1,6.6,12.4,13.2,18.6,19.7
				c6.3,6.6,12.6,13.2,18.9,19.7c2,2.1,3.9,4.1,5.9,6.2c0.6,0.6,1.2,1.4,1.9,1.9c1,0.8,2.2,1.5,3.3,2.2c2.5,1.7,4.9,3.4,7.4,5.1
				c7.3,5,14.6,9.9,21.9,14.9c7.4,5,14.8,10.1,22.2,15.1c4,2.7,8,5.5,12,8.2c7.4,5.1,16.6,8.5,24.9,12.4c2.6,1.2,5.2,2.5,7.9,3.6
				c2,0.8,4,1.4,6.1,2c3.9,1.3,8.3,2.3,11.9,4.5c3.2,2,3.9,5.5,2,8.7C306.2,183.9,307.3,183.8,307.5,183.5L307.5,183.5z"/>
		</g>
	</g>
	<g>
		<g>
			<path class="st10" d="M297.3,188.6c1.5-2.7,1.7-6-0.8-8.2c-2-1.8-4.9-2.8-7.5-3.6c-3.4-1.1-7.4-2.2-11-3.6
				c-2.4-0.9-4.6-2.1-6.9-3.1c-3.1-1.4-6.3-2.9-9.5-4.2c-4.8-1.9-9.5-4.3-13.9-7c-3.7-2.2-7.2-4.8-10.8-7.2c-7-4.8-14-9.5-21-14.3
				c-7.7-5.3-15.5-10.6-23.2-15.8c-4.8-3.3-9.5-6.5-14.3-9.8c-0.7-0.5-0.8-0.6-1.4-1.1c-1.5-1.6-3.1-3.1-4.6-4.7
				c-6-6.2-12.1-12.4-18.1-18.6c-6.6-6.8-13.3-13.7-19.9-20.6c-2.3-2.4-4.6-4.8-6.8-7.3c-2.2-2.4-4-5.3-6.7-7.2
				c-2.1-1.5-4.6-1.7-6.8-0.3c-0.6,0.4,0.3,0.5,0.7,0.3c4.4-2.9,8.1,3.5,10.6,6.4c1.9,2.1,3.8,4.1,5.7,6.2
				c6.2,6.6,12.5,13.1,18.8,19.5c6.3,6.5,12.6,13,18.9,19.4c2,2,4,4.1,5.9,6.1c0.6,0.6,1.2,1.3,1.9,1.8c1.1,0.8,2.3,1.5,3.4,2.3
				c2.5,1.7,4.9,3.4,7.4,5c7.3,4.9,14.5,9.9,21.8,14.9c7.4,5,14.8,10.1,22.2,15.1c4,2.7,8,5.4,12,8.2c3.2,2.2,6.6,4,10,5.8
				c4.9,2.6,10.1,4.4,15.2,6.8c2.6,1.2,5.1,2.4,7.7,3.5c2.1,0.9,4.3,1.4,6.4,2.1c3.8,1.3,8.1,2.2,11.5,4.4c3.2,2,3.9,5.5,2,8.7
				C296,189,297.1,188.9,297.3,188.6L297.3,188.6z"/>
		</g>
	</g>
	<g>
		<g>
			<path class="st10" d="M287.1,193.8c1.5-2.7,1.6-6.1-0.8-8.3c-2-1.8-4.8-2.8-7.2-3.6c-3.7-1.2-7.5-2.3-11.2-3.6
				c-2.3-0.8-4.6-2-6.8-3.1c-3.1-1.4-6.2-2.8-9.3-4c-5-2-9.8-4.5-14.4-7.3c-3.7-2.2-7.2-4.8-10.7-7.2c-7-4.8-14-9.6-21-14.3
				c-7.7-5.3-15.4-10.5-23.1-15.8c-4.8-3.2-9.5-6.5-14.3-9.7c-0.7-0.5-0.8-0.6-1.4-1.1c-1.5-1.5-3.1-3.1-4.6-4.6
				c-6.1-6.1-12.1-12.2-18.2-18.3c-6.7-6.8-13.4-13.5-20-20.4c-2.3-2.4-4.6-4.8-6.8-7.2c-2.2-2.4-4.1-5.2-6.6-7.2
				c-2.3-1.8-5-2.2-7.5-0.6c-0.6,0.4,0.3,0.6,0.7,0.4c4.7-2.9,8.5,3.5,11.3,6.6c1.9,2.1,3.8,4.1,5.8,6.1
				c6.2,6.5,12.5,12.9,18.9,19.3c6.4,6.4,12.7,12.9,19.1,19.3c2,2,3.9,4,5.9,5.9c0.6,0.6,1.2,1.3,1.9,1.8c1.1,0.8,2.3,1.5,3.4,2.3
				c2.5,1.7,4.9,3.4,7.4,5c7.2,4.9,14.5,9.9,21.7,14.8c7.4,5.1,14.8,10.1,22.2,15.2c4,2.7,8.1,5.5,12.1,8.2c3.1,2.2,6.5,4,9.8,5.8
				c5,2.6,10.3,4.5,15.5,6.8c2.5,1.1,5,2.4,7.6,3.5c2,0.8,4.1,1.4,6.1,2c3.9,1.3,8.2,2.3,11.7,4.4c3.2,2,3.9,5.5,2,8.7
				C285.8,194.2,286.9,194.2,287.1,193.8L287.1,193.8z"/>
		</g>
	</g>
	<g>
		<g>
			<path class="st10" d="M276.9,198.8c1.6-2.7,1.6-6.2-1-8.3c-2-1.7-4.8-2.7-7.4-3.5c-3.7-1.2-7.4-2.2-11-3.5
				c-5.7-2.2-11-5.1-16.7-7.2c-5.1-1.9-9.8-4.6-14.4-7.5c-3.6-2.2-7-4.8-10.5-7.1c-7-4.8-14-9.6-21-14.3c-7.7-5.2-15.4-10.5-23-15.7
				c-4.6-3.2-9.3-6.3-13.9-9.5c-2.3-1.6-4.2-3.9-6.1-5.8c-6.1-6.1-12.3-12.1-18.4-18.2c-6.7-6.7-13.4-13.4-20.1-20.1
				c-2.3-2.3-4.6-4.6-6.8-7c-2.4-2.6-4.4-5.8-7.4-7.7c-2.3-1.5-4.9-1.5-7.2,0c-0.5,0.3,0.6,0.2,0.8,0.1c4.9-3,9,3.9,11.8,7
				c1.9,2.1,3.9,4.1,5.8,6.1c6.3,6.4,12.6,12.8,19,19.1c6.4,6.3,12.8,12.7,19.2,19c2,2,4,3.9,5.9,5.9c0.6,0.6,1.1,1.2,1.8,1.7
				c1.1,0.9,2.3,1.6,3.5,2.4c2.5,1.7,5,3.4,7.5,5.1c7.3,4.9,14.5,9.9,21.7,14.8c7.4,5,14.7,10,22.1,15.1c4,2.7,8,5.4,11.9,8.1
				c3.2,2.3,6.7,4.2,10.1,6.1c5.1,2.7,10.5,4.5,15.8,6.8c2.4,1.1,4.9,2.3,7.3,3.3c2,0.8,4.2,1.4,6.3,2.1c3.9,1.3,8.3,2.2,11.7,4.6
				c3,2,3.3,5.6,1.6,8.6C275.7,199.2,276.7,199.1,276.9,198.8L276.9,198.8z"/>
		</g>
	</g>
	<g>
		<g>
			<path class="st10" d="M266.7,204.1c1.5-2.7,1.6-6.1-0.8-8.3c-2-1.8-4.8-2.8-7.2-3.6c-3.7-1.2-7.4-2.3-11.1-3.6
				c-2.3-0.8-4.4-1.9-6.6-2.9c-3.2-1.4-6.4-2.8-9.6-4.1c-2.5-0.9-4.9-1.9-7.2-3.1c-2.6-1.4-5.1-2.9-7.6-4.5
				c-3.6-2.3-7.1-4.8-10.6-7.2c-7-4.8-14-9.5-21-14.3c-7.7-5.2-15.3-10.4-23-15.7c-4.7-3.2-9.4-6.4-14.1-9.6
				c-0.7-0.5-0.8-0.5-1.4-1.1c-1.6-1.5-3.2-3.1-4.8-4.6c-6.2-6-12.4-12-18.6-18c-6.8-6.6-13.5-13.2-20.2-19.9
				c-2.3-2.3-4.6-4.6-6.8-6.9c-2.4-2.6-4.4-5.7-7.4-7.7c-2.5-1.7-5.2-2-7.8-0.4c-0.6,0.4,0.3,0.6,0.7,0.4C86.8,66,91,72.7,94,76
				c1.8,2,3.7,3.9,5.6,5.8c6.3,6.4,12.7,12.6,19.1,18.9c6.4,6.3,12.9,12.6,19.4,18.8c2,2,4.1,3.9,6.1,5.9c0.6,0.6,1.2,1.3,1.9,1.8
				c1,0.8,2.2,1.5,3.3,2.2c2.4,1.6,4.8,3.3,7.3,4.9c7.2,4.9,14.4,9.8,21.6,14.7c7.4,5,14.7,10.1,22.1,15.1c4.1,2.8,8.3,5.6,12.4,8.5
				c3.1,2.1,6.2,4.1,9.5,5.9c5.2,2.9,10.8,4.6,16.2,7c2.5,1.1,5,2.3,7.5,3.3c2,0.8,4.1,1.4,6.1,2c3.8,1.3,8.1,2.3,11.6,4.4
				c3.2,2,3.9,5.5,2,8.7C265.4,204.5,266.4,204.5,266.7,204.1L266.7,204.1z"/>
		</g>
	</g>
	<g>
		<g>
			<path class="st10" d="M256.5,209.2c1.6-2.7,1.6-6.2-1-8.3c-2-1.7-4.8-2.7-7.4-3.5c-3.6-1.2-7.3-2.2-10.9-3.5
				c-2.3-0.9-4.5-2-6.8-3c-3.2-1.4-6.5-2.9-9.9-4.1c-2.6-1-5-1.9-7.5-3.3c-2.6-1.5-5.2-3-7.6-4.7c-3.4-2.3-6.8-4.7-10.2-7
				c-7.1-4.8-14.1-9.6-21.2-14.4c-7.6-5.2-15.2-10.4-22.9-15.6c-4.6-3.1-9.1-6.2-13.7-9.3c-2.3-1.6-4.3-3.8-6.3-5.8
				c-6.3-6-12.6-11.9-18.8-17.9c-6.8-6.5-13.5-13-20.2-19.6c-2.2-2.2-4.5-4.4-6.6-6.7c-2.6-2.8-4.7-6.2-8.1-8.1
				c-2.5-1.4-5.2-1.4-7.6,0c-0.5,0.3,0.6,0.2,0.8,0.1c4.1-2.4,8.4,1.9,10.9,4.8c0.7,0.9,1.4,1.7,2.1,2.5c1.8,2,3.8,3.9,5.7,5.8
				c6.3,6.3,12.7,12.4,19.2,18.6c6.5,6.2,13,12.4,19.5,18.6c2,1.9,4.1,3.9,6.1,5.8c0.6,0.6,1.2,1.2,1.9,1.8c1.1,0.8,2.2,1.5,3.4,2.3
				c2.4,1.7,4.9,3.3,7.3,5c7.2,4.9,14.4,9.8,21.5,14.7c7.4,5,14.7,10,22.1,15.1c4.1,2.8,8.2,5.6,12.3,8.4c3.1,2.2,6.3,4.2,9.6,6.1
				c2.2,1.2,4.4,2.2,6.7,3.1c3.4,1.2,6.7,2.6,9.9,4c2.4,1,4.7,2.2,7.1,3.2c2.1,0.9,4.3,1.4,6.4,2.1c3.8,1.3,8.2,2.2,11.5,4.5
				c3,2,3.3,5.6,1.6,8.6C255.3,209.5,256.3,209.4,256.5,209.2L256.5,209.2z"/>
		</g>
	</g>
	<g>
		<g>
			<path class="st10" d="M246.2,214.4c1.5-2.7,1.7-6.1-0.8-8.2c-1.9-1.8-4.7-2.7-7.1-3.5c-3.7-1.2-7.5-2.3-11.2-3.6
				c-2.2-0.8-4.3-1.9-6.4-2.8c-3.3-1.5-6.7-2.9-10.1-4.1c-2.6-0.9-5.1-1.8-7.5-3.2c-2.7-1.5-5.2-3.2-7.8-4.9
				c-3.4-2.4-6.9-4.7-10.3-7.1c-7-4.8-14.1-9.6-21.1-14.4c-7.6-5.2-15.2-10.4-22.8-15.5c-4.6-3.1-9.2-6.3-13.8-9.4
				c-0.7-0.5-0.8-0.5-1.4-1.1c-1.7-1.5-3.3-3.1-5-4.6c-6.3-5.9-12.7-11.8-19-17.7c-6.8-6.4-13.6-12.8-20.3-19.3
				c-2.2-2.2-4.5-4.4-6.7-6.6c-2.6-2.7-4.7-6-8-8c-2.6-1.6-5.5-1.9-8.2-0.3c-0.6,0.4,0.3,0.5,0.7,0.3c5.6-3.3,10.2,3.7,13.5,7.3
				c1.8,1.9,3.7,3.8,5.6,5.6c6.3,6.2,12.7,12.2,19.1,18.2c6.6,6.2,13.2,12.4,19.8,18.5c2.1,1.9,4.2,3.9,6.3,5.8
				c0.7,0.6,1.3,1.3,2.1,1.9c3.3,2.5,6.9,4.7,10.2,7c7.1,4.9,14.3,9.7,21.4,14.6c7.4,5,14.8,10.1,22.1,15.1
				c4.3,2.9,8.5,5.8,12.8,8.7c2.7,1.9,5.9,4,8.9,5.8c2.3,1.3,4.5,2.4,6.9,3.2c3.5,1.2,6.8,2.6,10.2,4c2.4,1.1,4.9,2.2,7.3,3.2
				c1.9,0.8,4,1.3,6,2c3.9,1.3,8.2,2.3,11.7,4.5c3.1,2,3.7,5.5,1.9,8.6C245,214.8,246.1,214.7,246.2,214.4L246.2,214.4z"/>
		</g>
	</g>
</g>
<g>
	<g>
		<g>
			<path class="st10" d="M311.3,181.2c1.6-2.7,1.6-6.2-0.9-8.3c-2-1.8-4.8-2.7-7.4-3.5c-1.4-0.4-2.7-0.9-4.1-1.3
				c-2.3-0.8-4.8-1.4-7.1-2.3c-4.7-1.9-9-4.6-13.6-6.7c-1.6-0.7-3.2-1.3-4.8-2c-2.6-1.1-5.1-2.4-7.6-3.6c-3.1-1.5-6.2-3.1-9-5
				c-1.5-1-3-2.1-4.5-3.1c-6.6-4.5-13.2-9-19.7-13.4c-7.9-5.4-15.8-10.8-23.7-16.2c-5.3-3.6-10.6-7.2-15.9-10.8
				c-2.1-1.4-3.8-3.4-5.7-5.5c-5.9-6.1-11.8-12.3-17.7-18.5c-6.7-7-13.4-14.1-20.1-21.2c-2.3-2.5-4.7-5-7-7.5
				c-2-2.3-3.9-5.1-6.3-6.9c-2-1.5-4.3-1.8-6.6-0.9c-0.7,0.3-0.1,0.7,0.4,0.5c4.5-1.8,7.5,3.3,10.1,6.2c1.9,2.1,3.8,4.2,5.8,6.3
				c6.3,6.7,12.6,13.4,19,20.1c6.3,6.6,12.5,13.1,18.8,19.7c1.9,1.9,3.7,3.9,5.6,5.8c0.5,0.5,1,1.1,1.6,1.6c4,2.9,8.2,5.6,12.3,8.3
				c7.6,5.1,15.1,10.3,22.7,15.4c7.2,4.9,14.4,9.8,21.6,14.7c3.3,2.3,6.9,4.9,10.1,6.9c8.3,5.1,17.5,8.4,26.1,12.7
				c2.2,1.1,4.4,2.3,6.7,3.3c1.8,0.9,3.8,1.3,5.8,2c4,1.3,8.4,2.3,12,4.5c3.3,2,4,5.5,2.2,8.8C310.1,181.6,311.2,181.5,311.3,181.2
				L311.3,181.2z"/>
		</g>
	</g>
	<g>
		<g>
			<path class="st10" d="M301.1,186.5c1.6-2.7,1.6-6.2-0.9-8.3c-2-1.8-4.8-2.7-7.2-3.5c-3.7-1.2-7.5-2.2-11.1-3.6
				c-2.1-0.8-4.1-2-6.2-3c-2.6-1.3-5.2-2.6-7.8-3.8c-1.8-0.8-3.6-1.4-5.4-2.2c-2.5-1.2-5-2.5-7.4-3.8c-4.5-2.5-8.7-5.3-13-8.2
				c-6.6-4.5-13.2-9-19.9-13.5c-7.9-5.4-15.8-10.7-23.7-16.1c-5.2-3.6-10.5-7.1-15.7-10.7c-2.1-1.4-3.8-3.4-5.7-5.4
				c-6-6.1-11.9-12.1-17.8-18.2c-6.7-6.9-13.5-13.8-20.1-20.8c-2.3-2.5-4.7-4.9-7-7.4c-2.1-2.3-4-5.1-6.5-7
				c-2.1-1.6-4.6-2.2-7.2-1.1c-0.7,0.3-0.1,0.7,0.4,0.5c4.8-2.1,8.1,3.6,10.9,6.6c1.9,2.1,3.9,4.2,5.8,6.2
				c6.3,6.6,12.7,13.2,19,19.7c6.3,6.5,12.6,12.9,18.9,19.3c1.9,1.9,3.7,3.8,5.6,5.7c0.5,0.5,1,1.1,1.6,1.5
				c3.9,2.9,8.1,5.5,12.1,8.2c7.5,5.1,15,10.2,22.6,15.3c7.2,4.9,14.4,9.8,21.6,14.6c3.3,2.3,6.7,4.6,10,6.8c4.3,2.9,9,5.3,13.7,7.6
				c1.7,0.8,3.5,1.5,5.2,2.2c2.5,1.1,5,2.3,7.5,3.6c2.3,1.1,4.5,2.3,6.8,3.4c1.8,0.8,3.9,1.3,5.8,2c4,1.3,8.4,2.3,12,4.5
				c3.2,2,3.9,5.5,2,8.7C299.8,186.9,300.9,186.8,301.1,186.5L301.1,186.5z"/>
		</g>
	</g>
	<g>
		<g>
			<path class="st10" d="M290.9,191.7c1.5-2.7,1.6-6.1-0.8-8.3c-2-1.8-4.8-2.8-7.3-3.6c-3.7-1.2-7.5-2.2-11.1-3.6
				c-2.1-0.8-4.1-1.9-6.1-2.9c-2.7-1.4-5.5-2.8-8.3-4c-1.9-0.8-3.9-1.5-5.7-2.4c-2.5-1.3-5-2.7-7.5-4.2c-4.3-2.5-8.3-5.3-12.4-8.1
				c-6.7-4.5-13.4-9-20.1-13.6c-7.9-5.3-15.7-10.6-23.6-15.9c-5.2-3.5-10.3-7-15.5-10.4c-0.6-0.4-1.2-0.8-1.6-1.1
				c-1.4-1.4-2.7-2.7-4.1-4.1c-6-6-12-11.9-18-17.9c-6.8-6.8-13.6-13.6-20.3-20.5c-2.4-2.4-4.7-4.8-7-7.3c-2.2-2.3-4.1-5.2-6.6-7.1
				c-2.3-1.8-5-2.5-7.7-1.2c-0.7,0.3-0.1,0.8,0.5,0.5c4.9-2.4,8.7,3.7,11.5,6.8c1.9,2.1,3.9,4.1,5.8,6.1c6.3,6.5,12.7,13,19.1,19.4
				c6.3,6.3,12.7,12.7,19,19c1.9,1.9,3.8,3.8,5.7,5.7c0.5,0.5,1,1.1,1.6,1.5c3.9,2.8,8,5.4,11.9,8c7.4,5,14.9,10,22.3,15
				c7.3,4.9,14.5,9.8,21.8,14.7c3.4,2.3,6.8,4.5,10.1,6.9c4.2,2.9,8.6,5.5,13.1,7.8c1.8,0.9,3.5,1.6,5.4,2.3c2.7,1.1,5.4,2.4,8,3.7
				c2.3,1.1,4.5,2.3,6.9,3.4c1.9,0.9,3.9,1.3,5.9,2c3.9,1.3,8.3,2.3,11.9,4.5c3.2,2,3.9,5.5,2,8.7
				C289.6,192.1,290.7,192.1,290.9,191.7L290.9,191.7z"/>
		</g>
	</g>
	<g>
		<g>
			<path class="st10" d="M280.7,197c1.5-2.7,1.7-6-0.8-8.2c-2-1.8-4.8-2.8-7.3-3.6c-3.4-1.1-7.4-2.2-11-3.6
				c-2.1-0.8-4.1-1.9-6.1-2.9c-2.8-1.4-5.7-2.8-8.6-4c-2.1-0.9-4.2-1.5-6.1-2.6c-2.5-1.4-5-2.9-7.4-4.5c-4-2.6-7.9-5.3-11.9-8
				c-6.8-4.6-13.6-9.1-20.4-13.7c-7.8-5.2-15.6-10.5-23.5-15.7c-5.1-3.4-10.2-6.8-15.3-10.3c-0.6-0.4-1.2-0.8-1.6-1.1
				c-1.4-1.4-2.8-2.7-4.2-4.1c-6.1-5.9-12.1-11.8-18.2-17.7c-6.8-6.7-13.6-13.4-20.3-20.1c-2.3-2.3-4.7-4.7-6.9-7.1
				c-2.4-2.6-4.4-5.7-7.3-7.7c-2.4-1.6-5-2.1-7.6-0.7c-0.6,0.3,0.3,0.5,0.7,0.3c3.9-2.1,7.9,2.2,10.1,5c0.6,0.8,1.2,1.6,1.9,2.3
				c1.9,2.1,3.8,4,5.8,6c6.3,6.4,12.8,12.8,19.2,19.1c6.4,6.3,12.8,12.5,19.2,18.8c1.9,1.8,3.8,3.7,5.7,5.5c0.5,0.5,1,1,1.6,1.5
				c3.9,2.8,7.9,5.3,11.9,8c7.4,5,14.8,9.9,22.2,14.9c7.3,4.9,14.6,9.8,21.9,14.7c3.4,2.3,7.2,4.8,10.5,7.1c4,2.8,8,5.4,12.2,7.8
				c1.9,1.1,3.8,1.8,5.8,2.6c2.8,1.1,5.6,2.5,8.3,3.8c2.3,1.1,4.5,2.3,6.8,3.3c2,0.9,4.1,1.4,6.2,2c3.8,1.3,8.1,2.2,11.5,4.4
				c3.2,2,3.9,5.5,2,8.7C279.4,197.4,280.5,197.3,280.7,197L280.7,197z"/>
		</g>
	</g>
	<g>
		<g>
			<path class="st10" d="M270.5,202.1c1.6-2.7,1.6-6.2-1-8.3c-2-1.7-4.8-2.7-7.4-3.5c-1.3-0.4-2.6-0.8-3.9-1.3
				c-2.3-0.8-4.7-1.4-7-2.3c-2.2-0.9-4.3-2.1-6.4-3.1c-2.9-1.4-5.9-2.9-8.9-4.1c-2.3-0.9-4.5-1.7-6.6-3c-2.5-1.5-5-3.2-7.4-4.9
				c-3.7-2.6-7.4-5.1-11.1-7.6c-6.9-4.6-13.7-9.2-20.6-13.8c-7.8-5.2-15.5-10.4-23.3-15.5c-5-3.3-9.9-6.6-14.9-9.9
				c-2.2-1.5-4-3.4-5.9-5.3c-6.2-5.8-12.3-11.7-18.4-17.6c-6.8-6.5-13.7-13.1-20.4-19.7c-2.3-2.3-4.6-4.5-6.8-6.8
				c-2.6-2.7-4.7-6-7.9-8.1c-2.4-1.5-5.1-1.9-7.6-0.5c-0.6,0.4,0.3,0.4,0.6,0.2c3.9-2.2,8,2,10.3,4.7c0.8,0.9,1.5,1.9,2.3,2.8
				c1.9,2,3.8,3.9,5.7,5.9c6.4,6.3,12.8,12.5,19.3,18.7c6.4,6.2,12.9,12.3,19.3,18.4c1.9,1.8,3.9,3.7,5.8,5.5c0.5,0.5,1,1,1.6,1.4
				c3.8,2.8,7.9,5.3,11.9,7.9c7.4,4.9,14.8,9.9,22.2,14.8c7.3,4.8,14.5,9.7,21.8,14.5c3.7,2.4,7.4,4.8,11,7.3
				c3.7,2.6,7.4,5.4,11.3,7.7c2,1.2,3.9,2,6,2.8c3,1.2,6,2.6,8.9,4c2.3,1.1,4.5,2.3,6.8,3.3c2,0.9,4.3,1.4,6.4,2.1
				c3.8,1.3,8.2,2.2,11.5,4.5c3,2,3.3,5.6,1.6,8.6C269.3,202.5,270.4,202.4,270.5,202.1L270.5,202.1z"/>
		</g>
	</g>
	<g>
		<g>
			<path class="st10" d="M260.3,207.4c1.6-2.7,1.6-6.1-1-8.3c-2-1.7-4.8-2.6-7.2-3.4c-1.3-0.4-2.6-0.8-4-1.3c-2.3-0.8-4.8-1.4-7-2.3
				c-2.3-0.9-4.4-2.1-6.6-3.2c-3-1.5-6-2.9-9.1-4.1c-1.3-0.5-2.7-0.8-3.9-1.4c-1.1-0.5-2.1-1.2-3.1-1.9c-2.5-1.6-4.8-3.4-7.1-5.2
				c-3.5-2.7-7.1-5-10.8-7.5c-6.9-4.6-13.9-9.2-20.8-13.8c-7.7-5.1-15.5-10.3-23.2-15.4c-4.9-3.2-9.8-6.5-14.7-9.7
				c-2.2-1.5-4.1-3.5-6-5.3c-6.3-5.8-12.5-11.7-18.8-17.5c-6.8-6.4-13.7-12.8-20.4-19.3c-2.3-2.2-4.5-4.4-6.7-6.6
				c-2.8-2.9-4.9-6.4-8.5-8.5c-2.4-1.4-5.1-1.5-7.5-0.1c-0.5,0.3,0.6,0.2,0.8,0c4-2.4,8.4,2.1,10.7,4.9c0.8,1,1.6,2,2.5,3
				c1.8,2,3.7,3.8,5.7,5.7c6.4,6.2,12.9,12.4,19.4,18.5c6.5,6.1,13,12.1,19.5,18.2c1.9,1.8,3.9,3.6,5.8,5.4c0.5,0.5,1,1,1.6,1.4
				c3.8,2.7,7.8,5.2,11.7,7.8c7.4,4.9,14.7,9.8,22.1,14.7c7.3,4.8,14.6,9.7,21.9,14.5c3.8,2.5,7.6,5,11.4,7.6
				c3.5,2.5,6.8,5.3,10.4,7.7c1,0.7,2,1.3,3.1,1.9c1,0.5,2.1,0.8,3.2,1.2c3.2,1.2,6.4,2.7,9.5,4.2c2.2,1.1,4.4,2.3,6.7,3.3
				c2,0.9,4.3,1.4,6.4,2.1c3.8,1.3,8.2,2.2,11.5,4.6c2.9,2.1,3.2,5.6,1.5,8.5C259.2,207.7,260.2,207.6,260.3,207.4L260.3,207.4z"/>
		</g>
	</g>
	<g>
		<g>
			<path class="st10" d="M250.1,212.7c1.5-2.7,1.6-6.1-0.8-8.2c-1.9-1.8-4.7-2.7-7.1-3.5c-3.7-1.2-7.5-2.3-11.2-3.6
				c-2.2-0.8-4.2-2-6.3-3c-3.3-1.6-6.7-3.2-10.1-4.5c-1.3-0.5-2.7-0.8-4-1.5c-1.1-0.6-2.2-1.3-3.2-2.1c-2.4-1.8-4.7-3.7-7.1-5.6
				c-3.2-2.6-6.8-4.8-10.3-7.1c-7-4.6-14-9.2-20.9-13.8c-7.7-5.1-15.5-10.2-23.2-15.3c-4.8-3.2-9.7-6.4-14.5-9.6
				c-0.7-0.5-0.9-0.6-1.4-1.1c-1.6-1.4-3.1-2.8-4.7-4.3c-6.4-5.8-12.7-11.6-19.1-17.4c-6.9-6.3-13.7-12.6-20.5-19
				c-2.2-2.1-4.4-4.2-6.5-6.3c-2.9-2.9-5-6.5-8.7-8.6c-2.5-1.4-5.2-1.7-7.7-0.1c-0.6,0.4,0.3,0.6,0.7,0.3c3.6-2.3,7.6,1,10.1,3.5
				c1.3,1.3,2.4,2.9,3.6,4.2c1.7,1.8,3.5,3.6,5.3,5.3c6.3,6.1,12.8,12,19.2,17.9c6.6,6.1,13.3,12.1,19.9,18.2
				c2.1,1.9,4.1,3.7,6.2,5.6c0.6,0.5,1.2,1.1,1.8,1.6c3.6,2.6,7.4,4.9,11.1,7.3c7.2,4.8,14.5,9.5,21.7,14.3
				c7.4,4.9,14.8,9.8,22.2,14.7c4.1,2.7,8.3,5.4,12.4,8.2c2.9,2,6,4.9,9,7.1c1.9,1.4,3.7,2.6,6,3.4c3.5,1.2,7,2.7,10.4,4.4
				c2.4,1.1,4.8,2.4,7.2,3.5c2,0.9,4.1,1.4,6.2,2c3.8,1.3,8.1,2.2,11.6,4.4c3.1,2,3.7,5.5,1.9,8.6
				C248.8,213.1,249.9,213.1,250.1,212.7L250.1,212.7z"/>
		</g>
	</g>
</g>
<g>
	<g>
		<g>
			<path class="st11" d="M116,144.9c11.6-3.3,23.3-6.6,34.9-9.9c1.7-0.5,3.3-0.9,5-1.4c-0.2,0-0.4-0.1-0.6-0.1
				c3.2,3.2,6.4,6.3,9.6,9.5c7.2,7.2,14.4,14.4,21.6,21.5c7.7,7.7,15.4,15.3,23.1,23c4.7,4.7,9.5,9.4,14.2,14.1
				c0.3,0.3,0.6,0.7,0.9,0.9c0.2,0.2,0.5,0.2,0.8,0.3c1.1,0.3,2.3,0.6,3.4,0.9c2,0.5,4,1.1,6.1,1.5c1.8,0.4,3.6,0.8,5.1,2
				c1.7,1.3,3.3,3.7,3.2,5.9c0,1-0.4,2-1.1,2.7c-0.5,0.4,0.6,0.6,0.9,0.3c2.2-2,1.3-5.3-0.2-7.4c-2-2.9-4.9-3.6-8.1-4.3
				c-2.3-0.5-4.5-1.1-6.8-1.7c-0.8-0.2-1.6-0.3-2.4-0.6c0.3,0.1,0.1,0.1,0-0.1c-3.9-3.9-7.8-7.8-11.8-11.7
				c-7.6-7.6-15.2-15.1-22.8-22.7c-7.5-7.5-15.1-15-22.6-22.5c-2.7-2.7-5.3-5.3-8-8c-1.3-1.3-2.5-2.7-3.9-3.9
				c-0.1-0.1-0.1-0.1-0.2-0.2c-0.2-0.2-0.4-0.2-0.6-0.1c-11.6,3.3-23.3,6.6-34.9,9.9c-1.7,0.5-3.3,0.9-5,1.4
				C115.1,144.3,115.3,145,116,144.9L116,144.9z"/>
		</g>
	</g>
	<g>
		<g>
			<path class="st11" d="M128.1,138.2c10.9-2.7,21.8-5.5,32.7-8.1c1.9-0.5,3.9-0.8,5.8-1.4c0.1,0,0.4,0,0.2-0.1
				c-0.4-0.2-0.2,0-0.1,0.1c0.1,0.3,0.6,0.6,0.8,0.8c2.6,2.6,5.2,5.2,7.8,7.8c9.7,9.7,19.5,19.5,29.2,29.3
				c8.7,8.7,17.4,17.5,26.1,26.2c1.1,1.1,2.1,2.1,3.2,3.2c0.3,0.3,0.7,0.9,1.1,1.1c1,0.6,2.5,0.7,3.6,1.1c1.6,0.5,3.2,1,4.8,1.4
				c1.4,0.4,2.9,0.6,4.3,1.1c2.6,0.9,4.7,2.9,5.6,5.5c0.5,1.5,0.4,3.6-0.8,4.6c-0.4,0.4,0.6,0.3,0.8,0.1c3.3-2.8,0.2-7.9-2.7-9.7
				c-1.7-1-3.6-1.3-5.4-1.8c-1.4-0.4-2.7-0.8-4-1.2c-1.6-0.5-3.1-0.9-4.7-1.4c-0.4-0.1-0.4-0.1-0.7-0.3c-0.7-0.6-1.3-1.3-1.9-1.9
				c-8.1-8.1-16.2-16.3-24.3-24.4c-10.2-10.2-20.4-20.5-30.6-30.7c-3.1-3.1-6.3-6.3-9.4-9.4c-0.5-0.5-1.2-1.4-1.8-1.8
				c-0.7-0.4-2.2,0.3-2.9,0.5c-11.9,2.8-23.8,5.9-35.7,8.8c-0.3,0.1-0.6,0.2-1,0.2C127.4,137.9,127.5,138.3,128.1,138.2L128.1,138.2
				z"/>
		</g>
	</g>
	<g>
		<g>
			<path class="st11" d="M140.3,131.6c10.7-2.3,21.4-4.6,32.2-6.8c1.8-0.4,3.7-0.5,5.5-1c0.3-0.1,0.2,0.1,0-0.1
				c0.1,0.1,0.2,0.2,0.3,0.3c0.3,0.3,0.6,0.6,0.9,0.9c2.8,2.8,5.6,5.6,8.4,8.4c9.6,9.7,19.2,19.4,28.8,29.1
				c8.4,8.5,16.8,17,25.2,25.4c1,1,1.9,1.9,2.9,2.9c0.4,0.4,0.6,0.7,1.2,0.9c2.8,1.1,5.7,2,8.5,2.9c1.4,0.5,2.9,0.6,4.4,1.2
				c2.5,0.9,4.5,3,5.3,5.5c0.4,1.4,0.3,3.3-0.9,4.3c-0.4,0.4,0.6,0.3,0.8,0.1c3.3-2.6,0.2-7.6-2.4-9.4c-1.7-1.1-3.6-1.4-5.6-1.9
				c-1.2-0.3-2.3-0.8-3.4-1.2c-1.6-0.6-3.2-1.1-4.9-1.7c-0.4-0.1-1.1-0.3-1.3-0.5c-0.6-0.4-1.1-1.1-1.7-1.7
				c-7.7-7.8-15.5-15.6-23.2-23.5c-10.1-10.2-20.1-20.3-30.2-30.5c-3.2-3.3-6.5-6.5-9.8-9.8c-0.7-0.7-1.3-1.6-2.1-2.1
				c-0.7-0.5-2.1,0-2.8,0.2c-11.7,2.2-23.4,4.8-35.1,7.3c-0.3,0.1-0.6,0.1-0.9,0.2C139.5,131.3,139.6,131.7,140.3,131.6L140.3,131.6
				z"/>
		</g>
	</g>
	<g>
		<g>
			<path class="st11" d="M152.3,125.1c10.5-1.9,21-3.7,31.5-5.4c1.8-0.3,3.6-0.6,5.4-0.7c0.2,0,0.1,0,0,0c0.1,0.1,0.2,0.2,0.4,0.3
				c0.4,0.3,0.7,0.7,1.1,1c2.9,2.9,5.8,5.8,8.7,8.7c9.6,9.7,19.1,19.4,28.6,29.1c8,8.2,16,16.3,24,24.5c1.2,1.3,2.4,3,4.1,3.6
				c2.8,1.1,5.6,2.2,8.4,3.3c1.4,0.5,3,0.6,4.4,1.2c2.4,1,4.3,3.1,5,5.6c0.4,1.3,0.2,3.1-1,4c-0.5,0.4,0.6,0.4,0.8,0.2
				c3.2-2.5,0.3-7.4-2.2-9.2c-1.7-1.2-3.6-1.6-5.6-2c-0.9-0.2-2.1-0.8-3.1-1.1c-1.6-0.6-3.1-1.2-4.7-1.8c-0.6-0.2-1.1-0.5-1.7-0.7
				c-0.1,0-0.5-0.2-0.4-0.1c-0.5-0.4-0.9-1-1.4-1.4c-7.3-7.5-14.6-14.9-22-22.4c-9.9-10.1-19.8-20.2-29.8-30.3
				c-3.4-3.4-6.7-6.8-10.1-10.2c-0.8-0.8-1.6-1.7-2.5-2.5c-0.7-0.6-1.8-0.2-2.7-0.1c-11.5,1.5-22.9,3.8-34.4,5.8
				c-0.3,0.1-0.6,0.1-0.9,0.2C151.9,124.7,151.6,125.3,152.3,125.1L152.3,125.1z"/>
		</g>
	</g>
	<g>
		<g>
			<path class="st11" d="M164.5,118.7c10.3-1.4,20.5-2.8,30.8-4c1.7-0.2,3.5-0.5,5.3-0.5c0.2,0,0.2,0.1,0.1,0
				c0.2,0.1,0.3,0.3,0.4,0.4c0.4,0.4,0.8,0.8,1.2,1.1c3.1,3,6,6.1,9,9.1c9.4,9.6,18.8,19.2,28.2,28.8c7.7,7.9,15.4,15.9,23.2,23.9
				c0.8,0.8,1.5,1.6,2.3,2.4c0.5,0.6,1,0.8,1.8,1.1c2.7,1.2,5.4,2.4,8.2,3.5c1.3,0.6,2.8,0.6,4.1,1.1c2.4,0.9,4.5,3,5.2,5.6
				c0.4,1.3,0.2,2.9-0.9,3.7c-0.6,0.4,0.3,0.8,0.7,0.5c3.1-2.2,0.7-6.7-1.3-8.7c-1.5-1.4-3.4-2.1-5.3-2.5c-1.2-0.3-2.1-0.6-3.2-1.1
				c-2.6-1.1-5.4-2.1-7.9-3.4c-0.3-0.1,0.2,0.2,0,0c-0.1-0.1-0.1-0.1-0.2-0.2c-0.2-0.3-0.5-0.5-0.8-0.8
				c-6.9-7.1-13.8-14.2-20.7-21.3c-9.8-10.1-19.6-20.2-29.5-30.2c-3.5-3.5-7-7.1-10.5-10.6c-0.9-0.9-1.9-1.9-2.8-2.8
				c-0.8-0.7-1.7-0.5-2.7-0.4c-11.2,0.9-22.4,2.7-33.6,4.2c-0.3,0-0.6,0.1-0.9,0.1C164,118,163.8,118.8,164.5,118.7L164.5,118.7z"/>
		</g>
	</g>
	<g>
		<g>
			<path class="st11" d="M176.6,112.1c10.1-1,20.1-2,30.2-2.6c1.5-0.1,3.5-0.5,5-0.1c0.3,0.1-0.1-0.1,0.2,0.1
				c0.2,0.1,0.4,0.3,0.5,0.5c0.5,0.4,0.9,0.9,1.4,1.4c3.2,3.1,6.3,6.3,9.4,9.5c9.4,9.6,18.7,19.2,28,28.9
				c7.3,7.6,14.6,15.2,21.9,22.8c0.7,0.7,1.3,1.4,2,2.1c0.7,0.7,1.6,1,2.5,1.4c2.5,1.2,5,2.5,7.6,3.6c1.4,0.6,2.9,0.6,4.2,1.2
				c2.3,0.9,4.3,3.1,4.9,5.5c0.4,1.2,0.2,2.9-1,3.7c-0.6,0.4,0.2,0.8,0.7,0.5c3-2,0.8-6.4-1.1-8.4c-2.3-2.3-5.4-2.3-8.2-3.6
				c-2.7-1.3-5.4-2.5-8-3.8c-0.2-0.1-0.8-0.5-0.4-0.2c0,0-0.1-0.1-0.1-0.1c-0.2-0.2-0.4-0.4-0.6-0.6c-6.5-6.7-12.9-13.5-19.4-20.2
				c-9.7-10.1-19.4-20.1-29.1-30.1c-3.6-3.7-7.2-7.3-10.8-11c-1-1-2.1-2.1-3.2-3.1c-0.8-0.8-1.5-0.7-2.6-0.7
				c-5.7,0.1-11.5,0.7-17.1,1.2c-5.3,0.5-10.6,0.9-15.9,1.4c-0.3,0-0.6,0.1-0.9,0.1C176.2,111.4,176,112.2,176.6,112.1L176.6,112.1z
				"/>
		</g>
	</g>
	<g>
		<g>
			<path class="st11" d="M188.5,105.4c9.8-0.5,19.7-1,29.5-1.1c1.1,0,2.1,0,3.2,0c0.5,0,1.2-0.1,1.7,0.1c0.9,0.3,1.8,1.6,2.5,2.3
				c3.3,3.2,6.5,6.5,9.7,9.8c9.3,9.6,18.5,19.2,27.8,28.9c7,7.3,14,14.7,21,22c0.5,0.6,1.1,1.2,1.7,1.8c1,0.8,2.5,1.3,3.6,1.9
				c1.4,0.7,2.7,1.4,4.1,2.1c0.8,0.4,1.7,1,2.5,1.3c1.7,0.6,3.4,0.6,5,1.6c2,1.1,3.9,3.5,4.2,5.8c0.2,1.1-0.1,2.5-1.2,3.1
				c-0.4,0.2,0.6,0.1,0.7,0c3-1.9,0.7-6.1-1.1-7.9c-2.3-2.3-5.4-2.2-8.1-3.5c-2.6-1.3-5.2-2.7-7.8-4c-0.6-0.3-1-0.5-1.5-1
				c-6.1-6.5-12.2-12.9-18.4-19.3c-9.4-9.9-18.9-19.8-28.4-29.7c-3.7-3.8-7.3-7.5-11-11.3c-1.2-1.2-2.3-2.3-3.5-3.5
				c-0.9-0.8-1.5-0.8-2.6-0.9c-5.5-0.2-11.1,0.1-16.7,0.4c-5.1,0.2-10.3,0.4-15.4,0.7c-0.3,0-0.6,0-0.9,0
				C189,105,188.1,105.4,188.5,105.4L188.5,105.4z"/>
		</g>
	</g>
	<g>
		<g>
			<path class="st11" d="M200.7,98.9c9.7-0.1,19.3-0.1,29,0.3c1,0,2,0.1,3,0.2c0.5,0,1.2,0,1.7,0.3c0.4,0.2,0.8,0.7,1.2,1
				c0.6,0.6,1.2,1.1,1.7,1.7c3.4,3.4,6.8,6.8,10.1,10.3c9.2,9.5,18.4,19.2,27.5,28.9c6.6,7,13.2,14,19.7,21c0.4,0.4,0.8,1,1.2,1.3
				c0.3,0.3,0.8,0.4,1.1,0.6c1.2,0.7,2.4,1.3,3.6,2c1.3,0.7,2.6,1.4,3.8,2.1c0.6,0.3,1.2,0.8,1.8,1c0.8,0.3,1.8,0.4,2.7,0.6
				c1,0.3,1.9,0.7,2.8,1.2c1.8,1.2,3.5,3.5,3.7,5.7c0.1,1-0.3,2.3-1.2,2.8c-0.4,0.2,0.6,0.1,0.7,0c2.8-1.7,0.9-5.6-0.7-7.4
				c-1.2-1.4-2.9-2.3-4.7-2.8c-1.1-0.3-2.2-0.4-3.2-1c-2.5-1.4-5-2.8-7.5-4.2c-0.8-0.4-1.6-0.8-2.2-1.4c-2-1.9-3.8-4.1-5.7-6.1
				c-3.7-4-7.5-8-11.2-11.9c-9.3-9.9-18.7-19.8-28.1-29.6c-3.8-3.9-7.6-7.8-11.4-11.7c-1.3-1.3-2.5-2.5-3.8-3.8
				c-0.9-0.9-1.4-1.1-2.8-1.2c-5.4-0.5-10.9-0.4-16.3-0.5c-5,0-10-0.1-15.1,0c-0.3,0-0.6,0-0.9,0C201.1,98.5,200.2,98.9,200.7,98.9
				L200.7,98.9z"/>
		</g>
	</g>
</g>
<path class="st3" d="M280.3,134.8l-95.6,46.4c-0.2,0.1-0.5,0.2-0.7,0.2c-0.6,0-1.2-0.3-1.5-0.9c-0.4-0.8-0.1-1.8,0.8-2.2l95.5-46.3"
	/>
<g>
	<path class="st20" d="M196.8,211.8c-0.1-0.1,0.4-1.9-1.4-1"/>
	<path class="st21" d="M196.5,212c-0.1-0.1,0.4-1.9-1.4-1"/>
	<path class="st22" d="M196.3,212.1c-0.1-0.2,0.4-1.8-1.4-1"/>
	<path class="st23" d="M196,212.3c-0.1-0.2,0.3-1.8-1.5-1"/>
	<path class="st24" d="M195.7,212.4c-0.1-0.2,0.3-1.8-1.5-1"/>
	<path class="st25" d="M195.5,212.6c-0.1-0.2,0.2-1.8-1.5-1"/>
	<path class="st26" d="M195.2,212.7c-0.1-0.2,0.2-1.8-1.5-0.9"/>
	<path class="st27" d="M194.9,212.8c-0.1-0.2,0.1-1.8-1.6-0.9"/>
	<path class="st28" d="M194.7,213c-0.1-0.2,0.1-1.8-1.6-0.9"/>
	<path class="st29" d="M194.4,213.1c-0.1-0.3,0-1.7-1.6-0.9"/>
	<path class="st30" d="M194.1,213.3c-0.1-0.3,0-1.7-1.6-0.9"/>
	<path class="st31" d="M193.9,213.4c-0.1-0.3-0.1-1.7-1.7-0.9"/>
	<path class="st32" d="M193.6,213.6c-0.1-0.3-0.1-1.7-1.7-0.9"/>
	<path class="st33" d="M193.3,213.7c-0.1-0.3-0.2-1.7-1.7-0.9"/>
	<path class="st34" d="M193.1,213.9c-0.1-0.3-0.2-1.7-1.7-0.9"/>
	<path class="st35" d="M192.8,214c-0.1-0.3-0.3-1.7-1.8-0.9"/>
	<path class="st36" d="M192.5,214.2c-0.1-0.4-0.3-1.7-1.8-0.8"/>
	<path class="st37" d="M192.2,214.3c-0.1-0.4-0.4-1.6-1.8-0.8"/>
	<path class="st38" d="M192,214.5c-0.1-0.4-0.4-1.6-1.8-0.8"/>
	<path class="st39" d="M191.7,214.6c-0.1-0.4-0.5-1.6-1.9-0.8"/>
	<path class="st40" d="M191.4,214.8c0-0.4-0.5-1.6-1.9-0.8"/>
	<path class="st41" d="M191.2,214.9c0-0.4-0.6-1.6-1.9-0.8"/>
	<path class="st42" d="M190.9,215c0-0.4-0.6-1.6-1.9-0.8"/>
	<path class="st43" d="M190.6,215.2c0-0.5-0.7-1.6-2-0.8"/>
	<path class="st44" d="M190.4,215.3c0-0.5-0.7-1.5-2-0.8"/>
	<path class="st45" d="M190.1,215.5c0-0.5-0.7-1.5-2-0.7"/>
	<path class="st46" d="M189.8,215.6c0-0.5-0.8-1.5-2-0.7"/>
	<path class="st47" d="M189.6,215.8c0-0.5-0.8-1.5-2.1-0.7"/>
	<path class="st48" d="M189.3,215.9c0-0.5-0.9-1.5-2.1-0.7"/>
	<path class="st49" d="M189,216.1c0-0.6-0.9-1.5-2.1-0.7"/>
	<path class="st50" d="M188.8,216.2c0-0.6-1-1.5-2.1-0.7"/>
	<path class="st51" d="M188.5,216.4c0-0.6-1-1.5-2.2-0.7"/>
	<path class="st52" d="M188.2,216.5c0-0.6-1.1-1.4-2.2-0.7"/>
	<path class="st53" d="M188,216.7c0-0.6-1.1-1.4-2.2-0.7"/>
	<path class="st54" d="M187.7,216.8c0-0.6-1.2-1.4-2.2-0.6"/>
	<path class="st55" d="M187.4,217c0-0.6-1.2-1.4-2.3-0.6"/>
	<path class="st56" d="M187.2,217.1c0-0.7-1.3-1.4-2.3-0.6"/>
	<path class="st57" d="M186.9,217.2c0-0.7-1.3-1.4-2.3-0.6"/>
	<path class="st58" d="M186.6,217.4c0-0.7-1.4-1.4-2.3-0.6"/>
	<path class="st59" d="M186.4,217.5c0-0.7-1.4-1.3-2.4-0.6"/>
	<path class="st60" d="M186.1,217.7c0-0.7-1.5-1.3-2.4-0.6"/>
	<path class="st61" d="M185.8,217.8c0-0.7-1.5-1.3-2.4-0.6"/>
	<path class="st62" d="M185.5,218c0-0.7-1.6-1.3-2.4-0.6"/>
	<path class="st63" d="M185.3,218.1c0-0.8-1.6-1.3-2.5-0.5"/>
	<path class="st64" d="M185,218.3c0-0.8-1.7-1.3-2.5-0.5"/>
	<path class="st65" d="M184.7,218.4c0-0.8-1.7-1.3-2.5-0.5"/>
	<path class="st66" d="M184.5,218.6c0.1-0.8-1.7-1.3-2.5-0.5"/>
	<path class="st67" d="M184.2,218.7c0.1-0.8-1.8-1.2-2.6-0.5"/>
	<path class="st68" d="M183.9,218.9c0.1-0.8-1.8-1.2-2.6-0.5"/>
	<path class="st69" d="M183.7,219c0.1-0.9-1.9-1.2-2.6-0.5"/>
</g>
<path class="st8" d="M221.9,213.6l-0.8,11.1c0,0,4.4,3.9,5.6-3.6C227.8,213.6,221.9,213.6,221.9,213.6z"/>
<path class="st70" d="M185.9,178.5"/>
<path class="st71" d="M184.6,106.6"/>
<g>
	<g>
		<g>
			<path class="st11" d="M55.4,82.5c2.8-2.9,6.6-1.5,9.4,0.7c1.4,1.1,2.5,2.5,3.7,3.9c2.1,2.5,4.3,4.9,6.5,7.3
				c7.5,8.2,15.1,16.4,22.5,24.6c4.3,4.7,8.5,9.4,12.7,14.2c0.2,0.2,1.2-0.2,1-0.4c-8.1-9.4-16.5-18.5-24.9-27.6c-3.7-4-7.4-8-11-12
				c-2.1-2.3-4.3-4.6-6.3-7.1c-1.8-2.3-3.9-4.4-6.8-5.4c-2.8-1-5.8-0.4-7.9,1.8C54.2,82.8,55.2,82.7,55.4,82.5L55.4,82.5z"/>
		</g>
	</g>
	<g>
		<g>
			<path class="st11" d="M66.5,76.9c4.8-4.5,10.3,2,13.3,5.5c2.2,2.6,4.4,5.1,6.7,7.6c7.1,7.9,14.3,15.8,21.4,23.8
				c4.3,4.8,8.4,9.7,12.9,14.2c0.3,0.3,1.3-0.1,1-0.4c-4.3-4.3-8.2-9-12.3-13.5c-4.1-4.5-8.1-9-12.2-13.5
				c-5.8-6.4-11.7-12.6-17.1-19.3c-1.8-2.2-3.7-4.3-6.4-5.6c-2.9-1.3-5.8-1.2-8.1,1C65.2,77.1,66.3,77.1,66.5,76.9L66.5,76.9z"/>
		</g>
	</g>
	<g>
		<g>
			<path class="st11" d="M77.7,71.2c3-2.6,6.8-0.4,9.3,1.9c1.5,1.4,2.7,3,3.9,4.5c2.3,2.8,4.7,5.5,7.2,8.2c7,7.9,14,15.8,21,23.7
				c4,4.5,7.7,9.4,12.3,13.3c0.3,0.3,1.3-0.2,1-0.4c-4.3-3.7-7.8-8.2-11.6-12.5c-3.9-4.4-7.8-8.8-11.7-13.2
				c-6-6.7-12.1-13.4-17.8-20.3c-3.3-4-9.1-9.8-14.4-5.3C76.4,71.4,77.4,71.4,77.7,71.2L77.7,71.2z"/>
		</g>
	</g>
	<g>
		<g>
			<path class="st11" d="M88.8,65.6c1.6-1.2,3.2-1.3,4.9-0.5c1.4,0.6,2.7,1.5,3.8,2.5c1.7,1.5,3,3.3,4.5,5c2.5,2.9,5,5.8,7.5,8.7
				c7,8.1,14,16.1,21,24.2c1.8,2.1,3.6,4.2,5.4,6.2c1.9,2.2,3.7,4.2,6.1,5.9c0.4,0.3,1.3-0.3,0.8-0.6c-4.4-3.1-7.6-7.7-11.1-11.7
				c-3.8-4.3-7.6-8.7-11.3-13c-6.1-7-12.2-13.9-18.1-21c-3.2-3.8-8.8-10.4-14.1-6.2C87.6,65.5,88.4,65.9,88.8,65.6L88.8,65.6z"/>
		</g>
	</g>
	<g>
		<g>
			<path class="st11" d="M100.1,59.7c2.9-2,6.3,0.6,8.4,2.6c1.6,1.6,3,3.4,4.5,5.2c2.6,3.1,5.2,6.2,7.8,9.3
				c6.9,8.1,13.7,16.1,20.6,24.2c1.7,2,3.4,3.9,5,5.9c1.8,2.1,3.5,4.1,6,5.4c0.3,0.2,1.2-0.3,0.8-0.5c-2.4-1.3-4.1-3.3-5.9-5.3
				c-1.6-1.9-3.2-3.8-4.8-5.7c-3.6-4.3-7.3-8.5-10.9-12.8c-6.2-7.3-12.5-14.5-18.6-21.9c-3.1-3.8-8.4-10.4-13.8-6.5
				C98.8,59.9,99.8,59.9,100.1,59.7L100.1,59.7z"/>
		</g>
	</g>
	<g>
		<g>
			<path class="st11" d="M111.2,53.9c2.7-1.7,5.9,0.9,7.8,2.8c1.7,1.7,3.2,3.6,4.8,5.5c2.7,3.3,5.5,6.6,8.2,9.9
				c6.8,8.1,13.5,16.2,20.3,24.3c1.6,1.8,3.1,3.7,4.7,5.5c1.7,2,3.4,4,5.9,5c0.2,0.1,1.1-0.3,0.8-0.4c-2.5-1-4.1-2.9-5.8-4.9
				c-1.5-1.8-3-3.5-4.5-5.3c-3.6-4.3-7.1-8.5-10.7-12.8c-6.3-7.6-12.7-15.1-19-22.8c-3-3.7-8-10.3-13.4-6.9
				C110,54.2,111,54.1,111.2,53.9L111.2,53.9z"/>
		</g>
	</g>
	<g>
		<g>
			<path class="st11" d="M122.2,48.5c1.4-0.8,2.6-0.7,3.9,0.1c1.1,0.6,2.2,1.5,3.1,2.4c1.9,1.8,3.5,3.9,5.2,6
				c2.9,3.5,5.8,7.1,8.7,10.6c6.8,8.3,13.6,16.5,20.3,24.8c1.5,1.8,2.9,3.6,4.4,5.3c1.5,1.8,3.2,3.8,5.7,4.3
				c0.4,0.1,1.2-0.5,0.6-0.6c-2.5-0.5-4.1-2.6-5.7-4.4c-1.4-1.7-2.7-3.3-4.1-5c-3.4-4.1-6.7-8.2-10.1-12.3
				c-6.5-7.9-13-15.9-19.5-23.8c-1.8-2.2-3.6-4.6-5.9-6.4c-2.2-1.7-4.4-3-7.1-1.5C121.2,48.3,121.8,48.7,122.2,48.5L122.2,48.5z"/>
		</g>
	</g>
	<g>
		<g>
			<path class="st11" d="M133.4,42.8c2.5-1.2,4.9,0.9,6.6,2.7c0.9,0.9,1.7,1.9,2.5,2.8c3,3.5,5.8,7,8.7,10.6
				c7.5,9.2,14.8,18.4,22.2,27.6c1.5,1.9,3.1,3.8,4.6,5.7c1.6,2,3.5,4.4,6.3,4.5c0.6,0,0.7-0.7,0.1-0.7c-2.7,0-4.5-2.9-6-4.8
				c-1.4-1.8-2.8-3.5-4.3-5.3c-3.7-4.6-7.3-9.1-11-13.7c-6.7-8.3-13.3-16.6-20.1-24.7c-2.4-2.9-5.9-7.3-10-5.2
				C132.4,42.5,132.9,43,133.4,42.8L133.4,42.8z"/>
		</g>
	</g>
</g>
<g>
	<path class="st5" d="M217.8,120l-108.2,54l-0.7,9.7c0,0,1.7,1.7,5.4-0.8c3.7-2.5,104.7-52.8,105.9-53.5c1.2-0.6,2.4-5.4,1.7-7.4
		S217.8,120,217.8,120z"/>
	<g>
		<path class="st8" d="M109.6,174l-0.7,9.8c0,0,3.9,3.4,4.9-3.2C114.8,174,109.6,174,109.6,174z"/>
	</g>
</g>
<g>
	<path class="st12" d="M233.7,117.3l-108,53.7l-0.8,9.7c0,0,1.7,1.8,5.4-0.7c3.7-2.5,105-52.7,106.2-53.3s2.6-4.5,2-6.5
		C238,118.3,233.7,117.3,233.7,117.3z"/>
	<g>
		<path class="st8" d="M125.7,171.1l-0.8,9.8c0,0,3.9,3.4,4.9-3.1C131,171.1,125.7,171.1,125.7,171.1z"/>
	</g>
</g>
<g>
	<line class="st72" x1="122.2" y1="110.3" x2="122.2" y2="168.3"/>
	<line class="st72" x1="130.9" y1="106" x2="130.9" y2="164.2"/>
	<line class="st72" x1="139.6" y1="101.6" x2="139.6" y2="160.1"/>
	<line class="st72" x1="148.2" y1="97.3" x2="148.2" y2="156"/>
	<line class="st72" x1="156.9" y1="93" x2="156.9" y2="151.8"/>
	<line class="st72" x1="165.6" y1="88.6" x2="165.6" y2="147.7"/>
	<line class="st72" x1="174.2" y1="84.3" x2="174.2" y2="143.6"/>
	<line class="st72" x1="182.9" y1="79.9" x2="182.9" y2="139.5"/>
	<line class="st72" x1="191.5" y1="75.6" x2="191.5" y2="135.3"/>
	<line class="st72" x1="200.2" y1="71.3" x2="200.2" y2="131.2"/>
	<line class="st72" x1="208.9" y1="66.9" x2="208.9" y2="127.1"/>
</g>
<g>
	<line class="st73" x1="134.1" y1="120.1" x2="134.1" y2="168.8"/>
	<line class="st73" x1="141.3" y1="116.2" x2="141.3" y2="165.1"/>
	<line class="st73" x1="148.5" y1="112.3" x2="148.5" y2="161.4"/>
	<line class="st73" x1="155.7" y1="108.3" x2="155.7" y2="157.7"/>
	<line class="st73" x1="162.9" y1="104.4" x2="162.9" y2="153.9"/>
	<line class="st73" x1="170.1" y1="100.5" x2="170.1" y2="150.2"/>
	<line class="st73" x1="177.2" y1="96.6" x2="177.2" y2="146.5"/>
	<line class="st73" x1="184.4" y1="92.6" x2="184.4" y2="142.8"/>
	<line class="st73" x1="191.6" y1="88.7" x2="191.6" y2="139.1"/>
	<line class="st73" x1="198.8" y1="84.8" x2="198.8" y2="135.4"/>
	<line class="st73" x1="206" y1="80.8" x2="206" y2="131.7"/>
	<line class="st73" x1="213.1" y1="76.9" x2="213.1" y2="127.9"/>
</g>
<g>
	<g>
		<g>
			<path class="st7" d="M113.1,105.1l-0.7,9.8c0,0,3.9,3.4,4.9-3.2C118.3,105.1,113.1,105.1,113.1,105.1z"/>
		</g>
	</g>
	<g>
		<path class="st5" d="M212.2,55l-99.1,50.1l-0.7,9.7c0,0,1.7,1.7,5.4-0.8c2.1-1.4,35.5-18.5,64.2-33.2c21.8-11.1,32-16.8,32.6-17
			c1.2-0.6,1.2-4.2,0.5-6.3C214.5,55.6,212.2,55,212.2,55z"/>
		<g>
			<path class="st8" d="M113.1,105.1l-0.7,9.8c0,0,3.9,3.4,4.9-3.2C118.3,105.1,113.1,105.1,113.1,105.1z"/>
		</g>
	</g>
	<g>
		<path class="st5" d="M236,57.2l-108.1,53.9l-0.7,9.7c0,0,1.7,1.7,5.4-0.8s104.5-53.8,105.7-54.4c1.2-0.6,1.4-4.4,0.8-6.4
			C238.5,57.3,236,57.2,236,57.2z"/>
		<g>
			<path class="st8" d="M127.9,111.2l-0.7,9.8c0,0,3.9,3.4,4.9-3.2C133.1,111.2,127.9,111.2,127.9,111.2z"/>
		</g>
	</g>
	<g>
		<g>
			<path class="st74" d="M130.5,98.7c-0.5,0-0.9-0.4-0.9-0.9l-0.3-24.2l0.1-0.2c0.1-0.2,0.2-0.4,0.3-0.6c0.9-1.5,1.7-3,5-3.3
				c0.5,0,1,0.3,1,0.9c0,0.5-0.3,1-0.9,1c-2.3,0.2-2.7,0.9-3.5,2.3c-0.1,0.1-0.1,0.2-0.2,0.4l0.3,23.7
				C131.5,98.2,131.1,98.6,130.5,98.7C130.6,98.7,130.5,98.7,130.5,98.7z"/>
		</g>
		<g>
			<path class="st74" d="M189.4,68c-0.5,0-0.9-0.4-0.9-0.9c0-0.9-0.2-21.3-0.1-23.1c0-2.4,2.6-4.1,5.1-4.4c0.5-0.1,1,0.3,1,0.8
				c0.1,0.5-0.3,1-0.8,1c-1.6,0.2-3.5,1.3-3.5,2.6c0,1.8,0.1,22.9,0.1,23.1C190.3,67.6,189.9,68,189.4,68
				C189.4,68,189.4,68,189.4,68z"/>
		</g>
		<g>
			<path class="st5" d="M210.7,32.9c0,0-88.9,43.8-93.5,47.2c-4.6,4.6-1.9,9,0.6,10.3c2.5,1.4,5.3,2.3,8.9-0.1
				c1-0.7,10.6-5.6,24.2-12.6c36.8-18.8,64.1-33,65-33.5c1.2-0.6,2.3-5.2,0.3-8.3C214.1,32.9,210.7,32.9,210.7,32.9z"/>
			<circle class="st13" cx="121.6" cy="85.5" r="6.9"/>
			<circle class="st3" cx="121.2" cy="86.1" r="5.4"/>
			<circle class="st8" cx="120.6" cy="86.3" r="4.8"/>
			<g>
				<circle class="st3" cx="120.9" cy="86.2" r="1.4"/>
				<g>
					<path class="st75" d="M115.2,89.9c-0.4,0-0.8-0.3-0.9-0.6c-0.3-0.5,0-1.2,0.5-1.5l5.3-2.5c0.5-0.3,1.2,0,1.5,0.5
						c0.3,0.5,0,1.2-0.5,1.5l-5.3,2.5C115.6,89.9,115.4,89.9,115.2,89.9z"/>
				</g>
			</g>
		</g>
		<g>
			<path class="st74" d="M133.6,69.6c2.3-1,5.7,0.8,6.9,1.8c2.3,2.1,3.5,5.7,3.5,10.7l-0.1,23.2c0,0.5-0.4,0.9-0.9,0.9c0,0,0,0,0,0
				c-0.5,0-0.9-0.4-0.9-0.9l0.1-23.2c0-4.5-1-7.6-2.9-9.3c-1.4-1.2-3.5-2-5.5-1.4"/>
		</g>
		<g>
			<path class="st74" d="M192.6,39.7c0,0,3.4-1,6.2,1.1c2.7,2,4.1,6,4.1,11.8l0,23.5c0,0.5-0.4,0.9-0.9,0.9c-0.5,0-0.9-0.4-0.9-0.9
				l0-23.5c0-5.1-1.1-8.6-3.3-10.3c-2-1.5-4.4-1.1-4.5-1.1"/>
		</g>
	</g>
</g>
<g>
	<line class="st72" x1="143.9" y1="119.9" x2="143.9" y2="177.9"/>
	<line class="st72" x1="152.6" y1="115.5" x2="152.6" y2="173.8"/>
	<line class="st72" x1="161.3" y1="111.2" x2="161.3" y2="169.7"/>
	<line class="st72" x1="169.9" y1="106.9" x2="169.9" y2="165.5"/>
	<line class="st72" x1="178.6" y1="102.5" x2="178.6" y2="161.4"/>
	<line class="st72" x1="187.3" y1="98.2" x2="187.3" y2="157.3"/>
	<line class="st72" x1="195.9" y1="93.8" x2="195.9" y2="153.2"/>
	<line class="st72" x1="204.6" y1="89.5" x2="204.6" y2="149"/>
	<line class="st72" x1="213.3" y1="85.2" x2="213.3" y2="144.9"/>
	<line class="st72" x1="221.9" y1="80.8" x2="221.9" y2="140.8"/>
	<line class="st72" x1="230.6" y1="76.5" x2="230.6" y2="136.7"/>
</g>
<g>
	<line class="st73" x1="155.9" y1="129.7" x2="155.9" y2="178.4"/>
	<line class="st73" x1="163" y1="125.8" x2="163" y2="174.6"/>
	<line class="st73" x1="170.2" y1="121.8" x2="170.2" y2="170.9"/>
	<line class="st73" x1="177.4" y1="117.9" x2="177.4" y2="167.2"/>
	<line class="st73" x1="184.6" y1="114" x2="184.6" y2="163.5"/>
	<line class="st73" x1="191.8" y1="110.1" x2="191.8" y2="159.8"/>
	<line class="st73" x1="198.9" y1="106.1" x2="198.9" y2="156.1"/>
	<line class="st73" x1="206.1" y1="102.2" x2="206.1" y2="152.4"/>
	<line class="st73" x1="213.3" y1="98.3" x2="213.3" y2="148.7"/>
	<line class="st73" x1="220.5" y1="94.3" x2="220.5" y2="144.9"/>
	<line class="st73" x1="227.7" y1="90.4" x2="227.7" y2="141.2"/>
	<line class="st73" x1="234.9" y1="86.5" x2="234.9" y2="137.5"/>
</g>
<g>
	<g>
		<g>
			<path class="st7" d="M134.8,114.7l-0.7,9.8c0,0,3.9,3.4,4.9-3.2C140,114.7,134.8,114.7,134.8,114.7z"/>
		</g>
	</g>
	<g>
		<path class="st5" d="M233.9,64.6l-99.1,50.1l-0.7,9.7c0,0,1.7,1.7,5.4-0.8c2.1-1.4,35.5-18.5,64.2-33.2c21.8-11.1,32-16.8,32.6-17
			c1.2-0.6,1.2-4.2,0.5-6.3C236.2,65.2,233.9,64.6,233.9,64.6z"/>
		<g>
			<path class="st8" d="M134.8,114.7l-0.7,9.8c0,0,3.9,3.4,4.9-3.2C140,114.7,134.8,114.7,134.8,114.7z"/>
		</g>
	</g>
	<g>
		<path class="st5" d="M257.7,66.8l-108.1,53.9l-0.7,9.7c0,0,1.7,1.7,5.4-0.8c3.7-2.5,104.5-53.8,105.7-54.4
			c1.2-0.6,1.4-4.4,0.8-6.4C260.2,66.9,257.7,66.8,257.7,66.8z"/>
		<g>
			<path class="st8" d="M149.6,120.7l-0.7,9.8c0,0,3.9,3.4,4.9-3.2C154.9,120.7,149.6,120.7,149.6,120.7z"/>
		</g>
	</g>
	<g>
		<g>
			<path class="st74" d="M152.3,108.2c-0.5,0-0.9-0.4-0.9-0.9l-0.3-24.2l0.1-0.2c0.1-0.2,0.2-0.4,0.3-0.6c0.9-1.5,1.7-3,5-3.3
				c0.5,0,1,0.3,1,0.9c0,0.5-0.3,1-0.9,1c-2.3,0.2-2.7,0.9-3.5,2.3c-0.1,0.1-0.1,0.2-0.2,0.4l0.3,23.7
				C153.2,107.8,152.8,108.2,152.3,108.2C152.3,108.2,152.3,108.2,152.3,108.2z"/>
		</g>
		<g>
			<path class="st74" d="M211.1,77.6c-0.5,0-0.9-0.4-0.9-0.9c0-0.9-0.2-21.3-0.1-23.1c0-2.4,2.6-4.1,5.1-4.4c0.5-0.1,1,0.3,1,0.8
				c0.1,0.5-0.3,1-0.8,1c-1.6,0.2-3.5,1.3-3.5,2.6c0,1.8,0.1,22.9,0.1,23.1C212,77.2,211.6,77.6,211.1,77.6
				C211.1,77.6,211.1,77.6,211.1,77.6z"/>
		</g>
		<g>
			<path class="st5" d="M232.5,42.4c0,0-88.9,43.8-93.5,47.2c-4.6,4.6-1.9,9,0.6,10.3c2.5,1.4,5.3,2.3,8.9-0.1
				c1-0.7,10.6-5.6,24.2-12.6c36.8-18.8,64.1-33,65-33.5c1.2-0.6,2.3-5.2,0.3-8.3S232.5,42.4,232.5,42.4z"/>
			<circle class="st13" cx="143.3" cy="95" r="6.9"/>
			<circle class="st3" cx="142.9" cy="95.7" r="5.4"/>
			<circle class="st8" cx="142.3" cy="95.8" r="4.8"/>
			<g>
				<circle class="st3" cx="142.6" cy="95.8" r="1.4"/>
				<g>
					<path class="st75" d="M136.9,99.5c-0.4,0-0.8-0.3-0.9-0.6c-0.3-0.5,0-1.2,0.5-1.5l5.3-2.5c0.5-0.3,1.2,0,1.5,0.5
						c0.3,0.5,0,1.2-0.5,1.5l-5.3,2.5C137.3,99.4,137.1,99.5,136.9,99.5z"/>
				</g>
			</g>
		</g>
		<g>
			<path class="st74" d="M155.3,79.2c2.3-1,5.7,0.8,6.9,1.8c2.3,2.1,3.5,5.7,3.5,10.7l-0.1,23.2c0,0.5-0.4,0.9-0.9,0.9c0,0,0,0,0,0
				c-0.5,0-0.9-0.4-0.9-0.9l0.1-23.2c0-4.5-1-7.6-2.9-9.3c-1.4-1.2-3.5-2-5.5-1.4"/>
		</g>
		<g>
			<path class="st74" d="M214.3,49.2c0,0,3.4-1,6.2,1.1c2.7,2,4.1,6,4.1,11.8l0,23.5c0,0.5-0.4,0.9-0.9,0.9c-0.5,0-0.9-0.4-0.9-0.9
				l0-23.5c0-5.1-1.1-8.6-3.3-10.3c-2-1.5-4.4-1.1-4.5-1.1"/>
		</g>
	</g>
</g>
<path class="st2" d="M29.8,76l4.3-2l16,8l-0.4,98.4l-3,1.7c0.1,1.2-0.4-98-0.4-98L29.8,76z"/>
<polygon class="st4" points="183.5,76.8 189.4,79.9 189.4,206.4 183.3,203.2 "/>
<g>
	<path class="st3" d="M182.7,204.4c-0.7,0-1.3-0.4-1.6-1c-0.4-0.9,0.1-1.8,0.9-2.2l3.3-1.3c0.9-0.4,1.8,0.1,2.2,0.9
		c0.4,0.9-0.1,1.8-0.9,2.2l-3.3,1.3C183.2,204.4,183,204.4,182.7,204.4z"/>
</g>
<g>
	<path class="st3" d="M182.7,181.8c-0.7,0-1.3-0.4-1.6-1c-0.4-0.9,0.1-1.8,0.9-2.2l3.3-1.3c0.9-0.4,1.8,0.1,2.2,0.9
		c0.4,0.9-0.1,1.8-0.9,2.2l-3.3,1.3C183.2,181.7,183,181.8,182.7,181.8z"/>
</g>
<path class="st5" d="M183.6,76.8l98.1-50.4l5.2,2.9l-97.4,50.6C189.4,79.9,183.6,76.8,183.6,76.8z"/>
<g>
	<path class="st3" d="M278.7,131.8l3.2-1.5c0.8-0.4,1.8,0,2.2,0.8c0.4,0.8,0,1.8-0.8,2.2l-3.2,1.5"/>
</g>
<g>
	<path class="st3" d="M280.5,152.9l1-0.5c0.8-0.4,1.8,0,2.2,0.8c0.4,0.8,0,1.8-0.8,2.2l-1.6,0.8"/>
</g>
<line class="st4" x1="376.8" y1="168.7" x2="379.3" y2="167.6"/>
<line class="st4" x1="46.3" y1="84.1" x2="50.1" y2="82"/>
<ellipse class="st13" cx="221.5" cy="233.8" rx="9.3" ry="8.7"/>
<g>
	<circle class="st12" cx="221.5" cy="234.1" r="6.2"/>
	<circle class="st8" cx="220.8" cy="234.3" r="5.4"/>
</g>
<g>
	<circle class="st12" cx="219.9" cy="254.1" r="8.7"/>
	<circle class="st8" cx="219.1" cy="254.4" r="7.6"/>
</g>
<g>
	<line class="st12" x1="199.3" y1="258.1" x2="202.4" y2="256.6"/>
</g>
<line class="st5" x1="181.9" y1="16.8" x2="185.3" y2="14.8"/>
<ellipse class="st4" cx="18.4" cy="150.6" rx="14" ry="14.9"/>
<polygon class="st4" points="5.5,127 5.1,162.4 21.8,169.9 21.9,135.4 "/>
<polygon class="st5" points="5.3,126.9 8.7,125.5 25.2,133.7 25.1,168.1 21.9,169.7 21.9,135.3 "/>
<g>
	<circle class="st5" cx="14.2" cy="150.5" r="2.6"/>
	<g>
		<path class="st75" d="M1.8,158.4c-0.6,0-1.2-0.3-1.5-0.9c-0.4-0.8-0.1-1.8,0.8-2.2l12.2-5.9c0.8-0.4,1.8-0.1,2.2,0.8
			c0.4,0.8,0.1,1.8-0.8,2.2l-12.2,5.9C2.3,158.4,2,158.4,1.8,158.4z"/>
	</g>
</g>
<g>
	<circle class="st3" cx="219.1" cy="254.5" r="1.4"/>
	<g>
		<path class="st75" d="M212.7,258.8c-0.4,0-0.8-0.3-0.9-0.6c-0.3-0.5,0-1.2,0.5-1.5l6.1-3c0.5-0.3,1.2,0,1.5,0.5
			c0.3,0.5,0,1.2-0.5,1.5l-6.1,3C213,258.7,212.8,258.8,212.7,258.8z"/>
	</g>
</g>
<g>
	<circle class="st3" cx="220.9" cy="234.2" r="1.4"/>
	<g>
		<path class="st75" d="M215.2,237.9c-0.4,0-0.8-0.3-0.9-0.6c-0.3-0.5,0-1.2,0.5-1.5l5.3-2.5c0.5-0.3,1.2,0,1.5,0.5
			c0.3,0.5,0,1.2-0.5,1.5l-5.3,2.5C215.6,237.8,215.4,237.9,215.2,237.9z"/>
	</g>
</g>
<polygon class="st4" points="29.7,76 30.9,174.4 46.5,182.2 46.4,84.3 "/>
<g>
	<circle class="st5" cx="38.3" cy="101.2" r="2.6"/>
	<g>
		<path class="st75" d="M25.8,109.1c-0.6,0-1.2-0.3-1.5-0.9c-0.4-0.8-0.1-1.8,0.8-2.2l12.2-5.9c0.8-0.4,1.8-0.1,2.2,0.8
			c0.4,0.8,0.1,1.8-0.8,2.2l-12.2,5.9C26.3,109,26.1,109.1,25.8,109.1z"/>
	</g>
</g>
<path class="st76" d="M287.1,168.7c1.5-0.8,7.2-3.6,8.6-4.3"/>
<g>
	<g>
		<path class="st77" d="M288.8,168c0.4,0,1.1-0.6,0.4-0.6C288.8,167.4,288,168,288.8,168L288.8,168z"/>
	</g>
</g>
<path class="st14" d="M277.1,173.8c1.9-1,4.5-2.3,6.3-3.2"/>
<path class="st14" d="M266.2,179.3c1.4-0.7,5.3-2.7,6.7-3.5"/>
<path class="st14" d="M256.6,184.2c1.2-0.6,4.6-2.3,5.8-2.9"/>
<path class="st14" d="M245.6,189.8c1.3-0.7,5.7-2.9,7.1-3.6"/>
<path class="st14" d="M235.7,194.8c1.5-0.7,5.4-2.7,6.9-3.5"/>
<path class="st14" d="M225,200.3c1.2-0.6,5.7-3,7-3.6"/>
<path class="st14" d="M292.9,171.5c1.5-0.8,7-3.7,8.4-4.4"/>
<path class="st14" d="M283.1,176.6c1.5-0.8,6.1-3.2,7.6-3.9"/>
<path class="st14" d="M274,181.4c1.4-0.7,4.7-2.4,6.2-3.2"/>
<path class="st14" d="M263.5,186.9c1.2-0.6,4.6-2.3,5.8-2.9"/>
<path class="st14" d="M252.8,192.5c1.3-0.7,5.9-3.1,7.3-3.8"/>
<path class="st14" d="M242.6,197.9c1.5-0.7,5.6-3,7.1-3.8"/>
<path class="st14" d="M232.5,203.2c1.2-0.6,5.6-3,6.8-3.6"/>
<g>
	<g>
		<path class="st77" d="M263.8,184.9c0.1,0,0.1-0.1,0.2-0.1c0.1,0,0.1-0.1,0.1-0.1c0,0,0.1-0.1,0.1-0.1c0,0,0-0.1,0-0.1
			c0,0,0-0.1-0.1-0.1c0,0-0.1,0-0.1,0c-0.1,0-0.2,0-0.3,0c0,0-0.1,0-0.1,0c-0.1,0-0.2,0.1-0.3,0.1c-0.1,0-0.1,0.1-0.2,0.1
			c-0.1,0-0.1,0.1-0.1,0.1c0,0-0.1,0.1-0.1,0.1c0,0,0,0.1,0,0.1c0,0,0,0.1,0.1,0.1c0,0,0.1,0,0.1,0c0.1,0,0.2,0,0.3,0
			c0,0,0.1,0,0.1,0C263.7,185,263.8,184.9,263.8,184.9L263.8,184.9z"/>
	</g>
</g>
<line class="st4" x1="22" y1="135.4" x2="25.1" y2="133.7"/>
<g>
	<g>
		<path class="st77" d="M297.3,165.7c0.6-0.3,1.2-0.6,1.8-1c0.1,0,0.2-0.1,0.3-0.1c0.1-0.1,0.2-0.1,0.3-0.2c0-0.1,0.1-0.2,0-0.3
			c-0.2-0.2-0.5-0.1-0.7,0c-0.6,0.3-1.2,0.6-1.8,1c-0.1,0-0.2,0.1-0.3,0.1c-0.1,0.1-0.2,0.1-0.3,0.2c0,0.1-0.1,0.2,0,0.3
			C296.8,165.9,297.1,165.8,297.3,165.7L297.3,165.7z"/>
	</g>
</g>
<line class="st14" x1="304.6" y1="169.6" x2="306.7" y2="168.5"/>
<g>
	<g>
		<path class="st77" d="M312.8,173.8c0.5-0.3,1-0.6,1.6-0.8c0.1,0,0.2-0.1,0.2-0.1c0.1-0.1,0.2-0.1,0.3-0.2c0-0.1,0.1-0.2,0-0.2
			c-0.2-0.2-0.5-0.1-0.7,0c-0.5,0.3-1,0.6-1.6,0.8c-0.1,0-0.2,0.1-0.2,0.1c-0.1,0.1-0.2,0.1-0.3,0.2c0,0.1-0.1,0.2,0,0.2
			C312.3,173.9,312.6,173.9,312.8,173.8L312.8,173.8z"/>
	</g>
</g>
<g>
	<g>
		<path class="st77" d="M314.1,177.8c0.5-0.3,1-0.6,1.6-0.8c0.1,0,0.2-0.1,0.2-0.1c0.1-0.1,0.2-0.1,0.3-0.2c0-0.1,0.1-0.2,0-0.2
			c-0.2-0.2-0.5-0.1-0.7,0c-0.5,0.3-1,0.6-1.6,0.8c-0.1,0-0.2,0.1-0.2,0.1c-0.1,0.1-0.2,0.1-0.3,0.2c0,0.1-0.1,0.2,0,0.2
			C313.6,177.9,313.9,177.8,314.1,177.8L314.1,177.8z"/>
	</g>
</g>
<g>
	<g>
		<path class="st77" d="M309.3,171.6c0.5-0.3,1-0.6,1.6-0.8c0.1,0,0.2-0.1,0.2-0.1c0.1-0.1,0.2-0.1,0.3-0.2c0-0.1,0.1-0.2,0-0.2
			c-0.2-0.2-0.5-0.1-0.7,0c-0.5,0.3-1,0.6-1.6,0.8c-0.1,0-0.2,0.1-0.2,0.1c-0.1,0.1-0.2,0.1-0.3,0.2c0,0.1-0.1,0.2,0,0.2
			C308.7,171.7,309.1,171.7,309.3,171.6L309.3,171.6z"/>
	</g>
</g>
<line class="st14" x1="290.9" y1="168.6" x2="299.6" y2="164"/>
<line class="st14" x1="281" y1="173.8" x2="289.2" y2="169.5"/>
<line class="st14" x1="271" y1="179" x2="278.9" y2="174.9"/>
<line class="st14" x1="261.1" y1="184.3" x2="268.8" y2="180.2"/>
<line class="st14" x1="251.4" y1="189.4" x2="259.4" y2="185.1"/>
<line class="st14" x1="241.2" y1="194.7" x2="249.2" y2="190.5"/>
<line class="st14" x1="231.2" y1="200" x2="239" y2="195.9"/>
<line class="st14" x1="245.4" y1="204.9" x2="253.1" y2="200.8"/>
<line class="st14" x1="255.4" y1="199.6" x2="263.1" y2="195.5"/>
<line class="st14" x1="265.5" y1="194.3" x2="273.2" y2="190.2"/>
<line class="st14" x1="274.8" y1="189.3" x2="282.6" y2="185.3"/>
<line class="st14" x1="285.5" y1="183.6" x2="293.3" y2="179.6"/>
<line class="st14" x1="295.2" y1="178.5" x2="303" y2="174.4"/>
<line class="st14" x1="306" y1="172.9" x2="310.7" y2="170.4"/>
<line class="st14" x1="298.3" y1="170.7" x2="304.6" y2="167.6"/>
<line class="st14" x1="288.1" y1="176.1" x2="296.3" y2="171.8"/>
<line class="st14" x1="294.3" y1="174.9" x2="302.5" y2="170.6"/>
<line class="st14" x1="278" y1="181.3" x2="285.9" y2="177.2"/>
<line class="st14" x1="268.1" y1="186.5" x2="275.8" y2="182.5"/>
<line class="st14" x1="258.4" y1="191.6" x2="266.4" y2="187.4"/>
<line class="st14" x1="248.1" y1="197" x2="256.2" y2="192.8"/>
<line class="st14" x1="238.2" y1="202.2" x2="246" y2="198.1"/>
<line class="st14" x1="244.4" y1="201" x2="252.1" y2="196.9"/>
<line class="st14" x1="254.7" y1="195.6" x2="262.5" y2="191.5"/>
<line class="st14" x1="264.3" y1="190.7" x2="272" y2="186.6"/>
<line class="st14" x1="274.2" y1="185.4" x2="282" y2="181.3"/>
<line class="st14" x1="284.5" y1="180.1" x2="292.2" y2="176"/>
<line class="st14" x1="235.7" y1="205.5" x2="242.2" y2="202"/>
<line class="st14" x1="310.9" y1="172.1" x2="313" y2="171"/>
<line class="st14" x1="300.6" y1="177.4" x2="308.8" y2="173.1"/>
<line class="st14" x1="250.1" y1="204.2" x2="257.9" y2="200.1"/>
<line class="st14" x1="260.4" y1="198.6" x2="268.2" y2="194.5"/>
<line class="st14" x1="270.8" y1="193.2" x2="278.5" y2="189.1"/>
<line class="st14" x1="280.5" y1="188" x2="288.3" y2="183.9"/>
<line class="st14" x1="290.8" y1="182.6" x2="298.5" y2="178.5"/>
<line class="st14" x1="241.4" y1="208.8" x2="248" y2="205.3"/>
<line class="st14" x1="302.6" y1="183.5" x2="310.8" y2="179.2"/>
<line class="st14" x1="251.4" y1="209.6" x2="259.1" y2="205.5"/>
<line class="st14" x1="261.8" y1="204.4" x2="269.6" y2="200.3"/>
<line class="st14" x1="272.5" y1="199" x2="280.2" y2="194.9"/>
<line class="st14" x1="282.3" y1="193.9" x2="290.1" y2="189.8"/>
<line class="st14" x1="292.7" y1="188.6" x2="300.5" y2="184.6"/>
<line class="st14" x1="242.7" y1="214.2" x2="249.3" y2="210.7"/>
<line class="st14" x1="240" y1="205.4" x2="246.6" y2="202"/>
<line class="st14" x1="250.6" y1="199.8" x2="257.1" y2="196.4"/>
<line class="st14" x1="260.7" y1="194.6" x2="267.2" y2="191.1"/>
<line class="st14" x1="279.9" y1="184.4" x2="286.5" y2="181"/>
<line class="st14" x1="290" y1="179.2" x2="296.6" y2="175.7"/>
<line class="st14" x1="300.4" y1="173.8" x2="306.9" y2="170.3"/>
<line class="st14" x1="295.5" y1="182.4" x2="302.1" y2="178.9"/>
<line class="st14" x1="305.9" y1="177" x2="312.5" y2="173.5"/>
<line class="st14" x1="270" y1="189.7" x2="276.6" y2="186.2"/>
<line class="st14" x1="245" y1="209.2" x2="251.5" y2="205.7"/>
<line class="st14" x1="255.5" y1="203.5" x2="262.1" y2="200.1"/>
<line class="st14" x1="265.6" y1="198.2" x2="272.2" y2="194.8"/>
<line class="st14" x1="284.8" y1="188.1" x2="291.4" y2="184.7"/>
<line class="st14" x1="274.9" y1="193.4" x2="281.5" y2="189.9"/>
<line class="st14" x1="244.2" y1="215.2" x2="250.9" y2="212"/>
<line class="st14" x1="254.9" y1="209.9" x2="261.5" y2="206.5"/>
<line class="st14" x1="265.3" y1="204.6" x2="271.8" y2="201.2"/>
<line class="st14" x1="275.4" y1="199.6" x2="281.9" y2="196.1"/>
<line class="st14" x1="285.6" y1="194.3" x2="292.2" y2="190.9"/>
<line class="st14" x1="295.8" y1="189" x2="302.4" y2="185.6"/>
<line class="st14" x1="306.1" y1="183.7" x2="312.7" y2="180.3"/>
<line class="st14" x1="261.9" y1="223.2" x2="268.6" y2="220"/>
<line class="st14" x1="271.3" y1="218.5" x2="277.9" y2="215.2"/>
<line class="st14" x1="280.9" y1="213.9" x2="287.5" y2="210.4"/>
<line class="st14" x1="290.9" y1="208.8" x2="297.5" y2="205.3"/>
<line class="st14" x1="300.3" y1="203.9" x2="306.9" y2="200.4"/>
<line class="st14" x1="310.1" y1="199.1" x2="316.6" y2="195.6"/>
<line class="st14" x1="320.3" y1="193.8" x2="326.9" y2="190.3"/>
<line class="st14" x1="266.4" y1="227" x2="273.1" y2="223.8"/>
<line class="st14" x1="275.9" y1="222.2" x2="282.5" y2="218.8"/>
<line class="st14" x1="285.3" y1="217.5" x2="291.9" y2="214"/>
<line class="st14" x1="295.3" y1="212.4" x2="301.9" y2="208.9"/>
<line class="st14" x1="304.8" y1="207.5" x2="311.4" y2="204.1"/>
<line class="st14" x1="314.5" y1="202.6" x2="321" y2="199.1"/>
<line class="st14" x1="324.8" y1="197.4" x2="331.3" y2="193.9"/>
<line class="st14" x1="269.4" y1="231.7" x2="276" y2="228.4"/>
<line class="st14" x1="278.8" y1="226.9" x2="285.5" y2="223.5"/>
<line class="st14" x1="288.3" y1="222" x2="294.9" y2="218.5"/>
<line class="st14" x1="298.2" y1="216.8" x2="304.8" y2="213.4"/>
<line class="st14" x1="307.7" y1="211.8" x2="314.2" y2="208.3"/>
<line class="st14" x1="317.5" y1="206.8" x2="324.1" y2="203.3"/>
<line class="st14" x1="327.4" y1="201.6" x2="334" y2="198.1"/>
<line class="st14" x1="270.3" y1="237.3" x2="276.9" y2="233.9"/>
<line class="st14" x1="279.8" y1="232.4" x2="286.4" y2="229.1"/>
<line class="st14" x1="289.2" y1="227.5" x2="295.8" y2="224.1"/>
<line class="st14" x1="299.1" y1="222.4" x2="305.7" y2="218.9"/>
<line class="st14" x1="309.1" y1="217.3" x2="315.7" y2="213.8"/>
<line class="st14" x1="318.4" y1="212.3" x2="325" y2="208.9"/>
<line class="st14" x1="328.4" y1="207.2" x2="334.9" y2="203.7"/>
<line class="st14" x1="266.2" y1="231.7" x2="272.8" y2="228.3"/>
<line class="st14" x1="275.7" y1="226.8" x2="282.3" y2="223.4"/>
<line class="st14" x1="285" y1="221.9" x2="291.6" y2="218.4"/>
<line class="st14" x1="294.1" y1="217.2" x2="300.7" y2="213.8"/>
<line class="st14" x1="304.4" y1="211.9" x2="310.9" y2="208.4"/>
<line class="st14" x1="314" y1="206.8" x2="320.7" y2="203.5"/>
<line class="st14" x1="324" y1="201.6" x2="330.6" y2="198.2"/>
<line class="st14" x1="225.3" y1="203.1" x2="229.2" y2="201"/>
<line class="st14" x1="329.2" y1="191.1" x2="330.6" y2="190.4"/>
<line class="st14" x1="334.1" y1="196.5" x2="335.5" y2="195.8"/>
<line class="st14" x1="267.5" y1="236.7" x2="274.2" y2="233.4"/>
<line class="st14" x1="276.8" y1="232" x2="283.4" y2="228.5"/>
<line class="st14" x1="286.3" y1="227.1" x2="292.9" y2="223.6"/>
<line class="st14" x1="295.8" y1="221.9" x2="302.4" y2="218.6"/>
<line class="st14" x1="305.8" y1="216.7" x2="312.4" y2="213.2"/>
<line class="st14" x1="315.4" y1="211.7" x2="322" y2="208.3"/>
<line class="st14" x1="325.3" y1="206.4" x2="331.9" y2="203"/>
<line class="st14" x1="335.4" y1="201" x2="336.8" y2="200.3"/>
<line class="st14" x1="324.8" y1="193.3" x2="329.2" y2="191.1"/>
<line class="st14" x1="314.6" y1="198.4" x2="322.9" y2="194.2"/>
<line class="st14" x1="304.9" y1="203.2" x2="312.8" y2="199.2"/>
<line class="st14" x1="295.5" y1="208.1" x2="303.2" y2="204.2"/>
<line class="st14" x1="285.1" y1="213.2" x2="293.2" y2="209.1"/>
<line class="st14" x1="275.5" y1="218" x2="283.6" y2="213.8"/>
<line class="st14" x1="265.7" y1="223" x2="273.5" y2="219"/>
<line class="st14" x1="260.4" y1="225.6" x2="264.3" y2="223.6"/>
<line class="st14" x1="333.2" y1="195.3" x2="334.6" y2="194.6"/>
<line class="st14" x1="335.2" y1="199.2" x2="336.6" y2="198.5"/>
<line class="st14" x1="328.6" y1="197.6" x2="333" y2="195.3"/>
<line class="st14" x1="318.7" y1="202.6" x2="326.9" y2="198.4"/>
<line class="st14" x1="308.9" y1="207.5" x2="316.9" y2="203.4"/>
<line class="st14" x1="299.5" y1="212.4" x2="307.2" y2="208.4"/>
<line class="st14" x1="289.3" y1="217.7" x2="297.4" y2="213.5"/>
<line class="st14" x1="279.6" y1="222.5" x2="287.7" y2="218.3"/>
<line class="st14" x1="269.9" y1="227.5" x2="277.7" y2="223.5"/>
<line class="st14" x1="264.6" y1="230.1" x2="268.5" y2="228.1"/>
<line class="st14" x1="330.8" y1="201.6" x2="335.2" y2="199.3"/>
<line class="st14" x1="320.8" y1="206.7" x2="329" y2="202.5"/>
<line class="st14" x1="311" y1="211.9" x2="318.9" y2="207.8"/>
<line class="st14" x1="301.7" y1="216.7" x2="309.4" y2="212.7"/>
<line class="st14" x1="291.6" y1="221.9" x2="299.7" y2="217.8"/>
<line class="st14" x1="281.9" y1="227" x2="289.9" y2="222.9"/>
<line class="st14" x1="272.3" y1="232" x2="280.1" y2="228"/>
<line class="st14" x1="267.2" y1="234.7" x2="270.1" y2="233.2"/>
<line class="st14" x1="331.2" y1="207.9" x2="337.2" y2="204.9"/>
<line class="st14" x1="321.2" y1="213.1" x2="329.4" y2="208.9"/>
<line class="st14" x1="311.5" y1="218.2" x2="319.4" y2="214.1"/>
<line class="st14" x1="301.8" y1="223.1" x2="309.5" y2="219.2"/>
<line class="st14" x1="291.6" y1="228.4" x2="299.7" y2="224.2"/>
<line class="st14" x1="281.8" y1="233.3" x2="289.9" y2="229.1"/>
<line class="st14" x1="271.9" y1="238.2" x2="279.7" y2="234.2"/>
<line class="st14" x1="267" y1="240.6" x2="269.9" y2="239.1"/>
<line class="st14" x1="239.6" y1="208" x2="243.5" y2="206"/>
<line class="st14" x1="248.3" y1="209.3" x2="256.1" y2="205.3"/>
<line class="st14" x1="258.2" y1="204.3" x2="266" y2="200.2"/>
<line class="st14" x1="268.7" y1="198.9" x2="276.4" y2="194.8"/>
<line class="st14" x1="278.4" y1="193.8" x2="286.1" y2="189.7"/>
<line class="st14" x1="289.2" y1="188.2" x2="297" y2="184.1"/>
<line class="st14" x1="299" y1="183" x2="306.7" y2="178.9"/>
<line class="st14" x1="309.7" y1="177.4" x2="314.4" y2="174.9"/>
<line class="st14" x1="242.2" y1="212.5" x2="246.1" y2="210.5"/>
<g>
	<g>
		<path class="st77" d="M297.8,167c1-0.5,2-1,3-1.5c0.1-0.1,0.3-0.1,0.4-0.2c0.1-0.1,0.4-0.2,0.1-0.3c-0.2-0.1-0.6,0-0.8,0.1
			c-1,0.5-2,1-3,1.5c-0.1,0.1-0.3,0.1-0.4,0.2c-0.1,0.1-0.4,0.2-0.1,0.3C297.3,167.2,297.6,167.1,297.8,167L297.8,167z"/>
	</g>
</g>
<line class="st14" x1="287.6" y1="172.3" x2="295.4" y2="168.2"/>
<line class="st14" x1="277.5" y1="177.5" x2="285.3" y2="173.5"/>
<g>
	<g>
		<path class="st77" d="M267.3,182.8c2.3-1.2,4.7-2.4,7-3.6c0.3-0.2,0.7-0.3,1-0.5c0.1-0.1,0.3-0.2,0.1-0.3
			c-0.2-0.1-0.6,0.1-0.8,0.1c-2.3,1.2-4.7,2.4-7,3.6c-0.3,0.2-0.7,0.3-1,0.5c-0.1,0.1-0.3,0.2-0.1,0.3
			C266.8,183,267.2,182.9,267.3,182.8L267.3,182.8z"/>
	</g>
</g>
<line class="st14" x1="256.9" y1="188.1" x2="265" y2="183.9"/>
<line class="st14" x1="246.6" y1="193.5" x2="254.6" y2="189.3"/>
<line class="st14" x1="236.4" y1="198.7" x2="244.6" y2="194.5"/>
<line class="st14" x1="227.3" y1="203.4" x2="234.5" y2="199.7"/>
<line class="st14" x1="232.7" y1="205.1" x2="235.4" y2="203.6"/>
</svg>
