<?xml version="1.0" encoding="utf-8"?>
<!-- Generator: Adobe Illustrator 25.2.3, SVG Export Plug-In . SVG Version: 6.00 Build 0)  -->
<svg version="1.1" id="Layer_1" xmlns="http://www.w3.org/2000/svg" xmlns:xlink="http://www.w3.org/1999/xlink" x="0px" y="0px"
	 viewBox="0 0 398.6 284.5" style="enable-background:new 0 0 398.6 284.5;" xml:space="preserve">
<style type="text/css">
	.st0{fill:#E4DAD8;stroke:#FFFFFF;stroke-width:0.5363;stroke-linejoin:bevel;stroke-miterlimit:10;}
	.st1{fill:#CBB8B9;stroke:#FFFFFF;stroke-width:0.5363;stroke-linejoin:bevel;stroke-miterlimit:10;}
	.st2{fill:#CBB8B9;stroke:#FFFFFF;stroke-width:0.2745;stroke-miterlimit:10;}
	.st3{fill:#E4DAD8;stroke:#FFFFFF;stroke-width:0.5363;stroke-miterlimit:10;}
	.st4{fill:#CBB8B9;stroke:#FFFFFF;stroke-width:0.5363;stroke-miterlimit:10;}
	.st5{fill:#B79797;stroke:#FFFFFF;stroke-width:0.5363;stroke-miterlimit:10;}
	.st6{fill:#E4DAD8;stroke:#FFFFFF;stroke-width:0.323;stroke-miterlimit:10;}
	.st7{fill:#E4DAD8;stroke:#FFFFFF;stroke-width:0.2745;stroke-miterlimit:10;}
	.st8{fill:none;stroke:#B71549;stroke-width:0.2804;stroke-miterlimit:10;}
	.st9{fill:#EE7345;}
	.st10{fill:#B71549;}
	.st11{fill:#CBB8B9;stroke:#FFFFFF;stroke-width:0.5489;stroke-miterlimit:10;}
	.st12{fill:#E4DAD8;stroke:#FFFFFF;stroke-width:0.5489;stroke-miterlimit:10;}
	.st13{fill:none;stroke:#361D32;stroke-width:0.65;stroke-miterlimit:10;}
	.st14{fill:#5E5756;stroke:#FFFFFF;stroke-width:0.2682;stroke-miterlimit:10;}
	.st15{fill:none;stroke:#B71549;stroke-width:0.5363;stroke-miterlimit:10;}
	.st16{fill:none;stroke:#000000;stroke-width:1.1216;stroke-miterlimit:10;}
	.st17{fill:none;stroke:#000000;stroke-width:1.1216;stroke-linecap:round;stroke-miterlimit:10;}
	.st18{fill:#CBB8B9;}
	.st19{fill:none;stroke:#543C52;stroke-width:0.1402;stroke-miterlimit:10;}
	.st20{fill:none;stroke:#543C52;stroke-width:0.1429;stroke-linecap:round;stroke-miterlimit:10;}
	.st21{fill:none;stroke:#543C52;stroke-width:0.1457;stroke-linecap:round;stroke-miterlimit:10;}
	.st22{fill:none;stroke:#543C52;stroke-width:0.1484;stroke-linecap:round;stroke-miterlimit:10;}
	.st23{fill:none;stroke:#543C52;stroke-width:0.1512;stroke-linecap:round;stroke-miterlimit:10;}
	.st24{fill:none;stroke:#543C52;stroke-width:0.1539;stroke-linecap:round;stroke-miterlimit:10;}
	.st25{fill:none;stroke:#543C52;stroke-width:0.1566;stroke-linecap:round;stroke-miterlimit:10;}
	.st26{fill:none;stroke:#543C52;stroke-width:0.1594;stroke-linecap:round;stroke-miterlimit:10;}
	.st27{fill:none;stroke:#543C52;stroke-width:0.1621;stroke-linecap:round;stroke-miterlimit:10;}
	.st28{fill:none;stroke:#543C52;stroke-width:0.1649;stroke-linecap:round;stroke-miterlimit:10;}
	.st29{fill:none;stroke:#543C52;stroke-width:0.1676;stroke-linecap:round;stroke-miterlimit:10;}
	.st30{fill:none;stroke:#543C52;stroke-width:0.1703;stroke-linecap:round;stroke-miterlimit:10;}
	.st31{fill:none;stroke:#543C52;stroke-width:0.1731;stroke-linecap:round;stroke-miterlimit:10;}
	.st32{fill:none;stroke:#543C52;stroke-width:0.1758;stroke-linecap:round;stroke-miterlimit:10;}
	.st33{fill:none;stroke:#543C52;stroke-width:0.1786;stroke-linecap:round;stroke-miterlimit:10;}
	.st34{fill:none;stroke:#543C52;stroke-width:0.1813;stroke-linecap:round;stroke-miterlimit:10;}
	.st35{fill:none;stroke:#543C52;stroke-width:0.184;stroke-linecap:round;stroke-miterlimit:10;}
	.st36{fill:none;stroke:#543C52;stroke-width:0.1868;stroke-linecap:round;stroke-miterlimit:10;}
	.st37{fill:none;stroke:#543C52;stroke-width:0.1895;stroke-linecap:round;stroke-miterlimit:10;}
	.st38{fill:none;stroke:#543C52;stroke-width:0.1923;stroke-linecap:round;stroke-miterlimit:10;}
	.st39{fill:none;stroke:#543C52;stroke-width:0.195;stroke-linecap:round;stroke-miterlimit:10;}
	.st40{fill:none;stroke:#543C52;stroke-width:0.1977;stroke-linecap:round;stroke-miterlimit:10;}
	.st41{fill:none;stroke:#543C52;stroke-width:0.2005;stroke-linecap:round;stroke-miterlimit:10;}
	.st42{fill:none;stroke:#543C52;stroke-width:0.2032;stroke-linecap:round;stroke-miterlimit:10;}
	.st43{fill:none;stroke:#543C52;stroke-width:0.206;stroke-linecap:round;stroke-miterlimit:10;}
	.st44{fill:none;stroke:#543C52;stroke-width:0.2087;stroke-linecap:round;stroke-miterlimit:10;}
	.st45{fill:none;stroke:#543C52;stroke-width:0.2114;stroke-linecap:round;stroke-miterlimit:10;}
	.st46{fill:none;stroke:#543C52;stroke-width:0.2142;stroke-linecap:round;stroke-miterlimit:10;}
	.st47{fill:none;stroke:#543C52;stroke-width:0.2169;stroke-linecap:round;stroke-miterlimit:10;}
	.st48{fill:none;stroke:#543C52;stroke-width:0.2197;stroke-linecap:round;stroke-miterlimit:10;}
	.st49{fill:none;stroke:#543C52;stroke-width:0.2224;stroke-linecap:round;stroke-miterlimit:10;}
	.st50{fill:none;stroke:#543C52;stroke-width:0.2251;stroke-linecap:round;stroke-miterlimit:10;}
	.st51{fill:none;stroke:#543C52;stroke-width:0.2279;stroke-linecap:round;stroke-miterlimit:10;}
	.st52{fill:none;stroke:#543C52;stroke-width:0.2306;stroke-linecap:round;stroke-miterlimit:10;}
	.st53{fill:none;stroke:#543C52;stroke-width:0.2334;stroke-linecap:round;stroke-miterlimit:10;}
	.st54{fill:none;stroke:#543C52;stroke-width:0.2361;stroke-linecap:round;stroke-miterlimit:10;}
	.st55{fill:none;stroke:#543C52;stroke-width:0.2388;stroke-linecap:round;stroke-miterlimit:10;}
	.st56{fill:none;stroke:#543C52;stroke-width:0.2416;stroke-linecap:round;stroke-miterlimit:10;}
	.st57{fill:none;stroke:#543C52;stroke-width:0.2443;stroke-linecap:round;stroke-miterlimit:10;}
	.st58{fill:none;stroke:#543C52;stroke-width:0.2471;stroke-linecap:round;stroke-miterlimit:10;}
	.st59{fill:none;stroke:#543C52;stroke-width:0.2498;stroke-linecap:round;stroke-miterlimit:10;}
	.st60{fill:none;stroke:#543C52;stroke-width:0.2525;stroke-linecap:round;stroke-miterlimit:10;}
	.st61{fill:none;stroke:#543C52;stroke-width:0.2553;stroke-linecap:round;stroke-miterlimit:10;}
	.st62{fill:none;stroke:#543C52;stroke-width:0.258;stroke-linecap:round;stroke-miterlimit:10;}
	.st63{fill:none;stroke:#543C52;stroke-width:0.2608;stroke-linecap:round;stroke-miterlimit:10;}
	.st64{fill:none;stroke:#543C52;stroke-width:0.2635;stroke-linecap:round;stroke-miterlimit:10;}
	.st65{fill:none;stroke:#543C52;stroke-width:0.2662;stroke-linecap:round;stroke-miterlimit:10;}
	.st66{fill:none;stroke:#543C52;stroke-width:0.269;stroke-linecap:round;stroke-miterlimit:10;}
	.st67{fill:none;stroke:#543C52;stroke-width:0.2717;stroke-linecap:round;stroke-miterlimit:10;}
	.st68{fill:none;stroke:#543C52;stroke-width:0.2745;stroke-linecap:round;stroke-miterlimit:10;}
	.st69{fill:#E4DAD8;stroke:#FFFFFF;stroke-width:0.1886;stroke-miterlimit:10;}
	.st70{fill:none;stroke:#CBB8B9;stroke-width:3.3647;stroke-linecap:round;stroke-miterlimit:10;}
	.st71{fill:none;stroke:#543C52;stroke-width:0.5363;stroke-miterlimit:10;}
	.st72{fill:none;stroke:#361D32;stroke-width:0.5363;stroke-miterlimit:10;}
	.st73{fill:#DD335A;stroke:#FFFFFF;stroke-width:0.2682;stroke-miterlimit:10;}
	.st74{fill:#FFFFFF;stroke:#E4DAD8;stroke-width:0.2682;stroke-miterlimit:10;}
	.st75{fill:#361D32;}
</style>
<polygon class="st0" points="184,68.1 184.1,87.7 394.1,192.8 394,172.5 "/>
<polygon class="st1" points="202.1,76.9 205.2,75.3 396.7,171.1 396.7,191.3 394.1,192.7 394.1,172.3 "/>
<path class="st2" d="M297.8,156.3l7.8-3.8c0.8-0.4,1.8-0.1,2.2,0.8c0.4,0.8,0.1,1.8-0.8,2.2l-7.2,3.5"/>
<path class="st2" d="M296.7,135l7.8-3.8c0.8-0.4,1.8-0.1,2.2,0.8c0.4,0.8,0.1,1.8-0.8,2.2l-7.2,3.5"/>
<polygon class="st3" points="298.9,29.9 298,160 302.8,162.6 304.1,32.8 "/>
<polygon class="st3" points="8.4,125.4 8.7,179.2 26.3,187.7 25.1,133.8 "/>
<polygon class="st4" points="8.4,125.3 11.7,124 28.3,132.2 27.7,167.4 24.8,169.1 25,133.8 "/>
<polygon class="st3" points="8.4,159.1 8.3,179.3 216.4,283.2 216.5,261.7 "/>
<polygon class="st1" points="25.2,167.1 28.4,165.6 220,260.3 219.4,281.7 216.2,283.2 216.5,261.9 "/>
<g>
	<polygon class="st5" points="160.7,175 163.9,173.4 337.8,261.1 337.8,275.9 335.3,277.9 335.4,263 	"/>
	<polygon class="st4" points="161,175.2 160.9,191.2 335.3,278.2 335.3,262.9 	"/>
</g>
<g>
	<polygon class="st5" points="211.9,151.1 215.1,149.5 367.3,226.2 367.2,241.8 364.4,243.3 364.3,227.8 	"/>
	<path class="st4" d="M212.2,151.3l-0.1,16l152.3,76l0-15.5C364.3,227.8,212.2,151.3,212.2,151.3z"/>
	<line class="st3" x1="364.4" y1="227.8" x2="367.3" y2="226.2"/>
</g>
<line class="st3" x1="335.3" y1="262.9" x2="337.8" y2="261.1"/>
<g>
	<g>
		<path class="st6" d="M152,118.2l-0.7,9.8c0,0,3.9,3.4,4.9-3.2S152,118.2,152,118.2z"/>
	</g>
</g>
<polygon class="st0" points="169.9,3.8 169.8,101.8 187.4,110.3 186.8,12.3 "/>
<polygon class="st4" points="170.3,3.8 174,1.8 190.5,10.2 190.9,74.7 187.6,75.8 187,12.4 "/>
<g>
	<path class="st3" d="M206.4,82.9l-93.5,46.9l-0.7,9.7c0,0,2.4,1.1,4.1,0.2c16.7-8.2,91.2-47.5,92.3-48.1c1.2-0.6,2.6-4.5,2-6.5
		C210,83.1,206.4,82.9,206.4,82.9z"/>
	<g>
		<path class="st7" d="M112.9,129.8l-0.7,9.8c0,0,3.9,3.4,4.9-3.2C118.1,129.8,112.9,129.8,112.9,129.8z"/>
	</g>
</g>
<g>
	<path class="st4" d="M256.7,133.1l-108.2,54l-0.7,9.7c0,0,1.7,1.7,5.4-0.8c3.7-2.5,104.7-52.8,105.9-53.5c1.2-0.6,2.4-5.4,1.7-7.4
		C260.3,133.2,256.7,133.1,256.7,133.1z"/>
	<g>
		<path class="st7" d="M148.5,187.1l-0.7,9.8c0,0,3.9,3.4,4.9-3.2C153.8,187.1,148.5,187.1,148.5,187.1z"/>
	</g>
</g>
<g>
	<line class="st8" x1="60.8" y1="86" x2="58.3" y2="113.5"/>
	<line class="st8" x1="65.3" y1="83.8" x2="62.9" y2="111.3"/>
	<line class="st8" x1="69.9" y1="81.5" x2="67.4" y2="109"/>
	<line class="st8" x1="74.4" y1="79.2" x2="72" y2="106.7"/>
	<line class="st8" x1="78.9" y1="76.9" x2="76.5" y2="104.4"/>
	<line class="st8" x1="83.5" y1="74.7" x2="81.1" y2="102.2"/>
	<line class="st8" x1="88" y1="72.4" x2="85.6" y2="99.9"/>
	<line class="st8" x1="92.6" y1="70.1" x2="90.1" y2="97.6"/>
	<line class="st8" x1="97.1" y1="67.8" x2="94.7" y2="95.3"/>
	<line class="st8" x1="101.7" y1="65.6" x2="99.2" y2="93.1"/>
	<line class="st8" x1="106.2" y1="63.3" x2="103.8" y2="90.8"/>
	<line class="st8" x1="110.7" y1="61" x2="108.3" y2="88.5"/>
	<line class="st8" x1="115.3" y1="58.7" x2="112.9" y2="86.2"/>
	<line class="st8" x1="119.8" y1="56.5" x2="117.4" y2="84"/>
	<line class="st8" x1="124.4" y1="54.2" x2="122" y2="81.7"/>
	<line class="st8" x1="128.9" y1="51.9" x2="126.5" y2="79.4"/>
	<line class="st8" x1="133.5" y1="49.6" x2="131" y2="77.1"/>
	<line class="st8" x1="138" y1="47.4" x2="135.6" y2="74.9"/>
	<line class="st8" x1="142.5" y1="45.1" x2="140.1" y2="72.6"/>
	<line class="st8" x1="147.1" y1="42.8" x2="144.7" y2="70.3"/>
	<line class="st8" x1="151.6" y1="40.5" x2="149.2" y2="68"/>
</g>
<path class="st4" d="M161.1,62.5L15.4,134.6c-10.9,10.9-7.3,18.4-2.6,23.7s20.6,1.6,20.6,1.6L181.5,85c0,0,5.4-10,2-16.3
	C180.2,62.5,171.7,57.2,161.1,62.5z"/>
<g>
	<g>
		<g>
			<path class="st9" d="M61.5,112.1c2.7-2.6,6.4-0.5,9,1.1c3.3,2.1,6,4.5,7.6,8.2c1.2,2.7,1.8,5.7,2,8.7c0.2,2.4,0,6.7-3,7.3
				c-0.7,0.1-0.5,0.8,0.2,0.7c2.4-0.5,3.8-3.2,4-5.4c0.3-2.3-0.3-5-0.8-7.2c-0.7-3.1-1.9-6.1-3.9-8.5c-2.2-2.6-5.5-4.8-8.7-6
				c-2.6-1-5.2-0.9-7.3,1C60.1,112.3,61.2,112.4,61.5,112.1L61.5,112.1z"/>
		</g>
	</g>
	<g>
		<g>
			<path class="st9" d="M79,103.2c2.8-2.7,6.9-0.5,9.6,1.4c3.2,2.2,5.6,4.9,7.2,8.4c1.2,2.7,1.8,5.6,2,8.6c0.1,1.2,0,2.2-0.3,3.3
				c-0.3,1.2-0.9,3.4-2.3,3.7c-0.4,0.1-0.9,0.5-0.2,0.4c2.4-0.5,3.3-2.7,3.7-4.9c0.5-2.3,0-4.9-0.6-7.2c-0.8-3.2-2.1-6.3-4.2-8.8
				c-2.2-2.6-5.6-5.1-8.9-6.1c-2.4-0.8-5.1-0.4-7,1.4C77.9,103.5,78.9,103.4,79,103.2L79,103.2z"/>
		</g>
	</g>
	<g>
		<g>
			<path class="st9" d="M96.5,94.7c2.7-2.6,6.7-1,9.4,0.8c3.3,2.3,6,5.3,7.6,9c1.2,2.7,2,5.7,2,8.7c0,1.8-0.4,5.7-2.5,6.2
				c-0.6,0.1-0.5,0.7,0.2,0.6c2.2-0.4,2.9-3.1,3.2-5c0.4-2.2,0.1-4.3-0.4-6.5c-1.5-6.6-6.1-13-12.7-15.4c-2.6-1-5.5-0.8-7.6,1.2
				C95.2,94.9,96.2,95,96.5,94.7L96.5,94.7z"/>
		</g>
	</g>
	<g>
		<g>
			<path class="st9" d="M114,86c2.6-2.5,6.6-1.3,9.3,0.5c3.5,2.3,6.2,5.7,7.9,9.5c1.3,2.7,2.2,5.8,2,8.8c-0.1,1.6-0.2,5.4-2.2,5.8
				c-0.6,0.1-0.4,0.7,0.2,0.6c2.1-0.4,2.6-3.1,2.8-4.8c0.3-2.1,0.2-4.1-0.3-6.1c-1.5-6.5-6.4-13.7-13-15.8c-2.6-0.8-5.5-0.5-7.5,1.4
				C112.7,86.1,113.7,86.2,114,86L114,86z"/>
		</g>
	</g>
	<g>
		<g>
			<path class="st9" d="M131.4,77.4c2.4-2.3,5.9-1.8,8.6-0.4c3.8,2,6.6,5.9,8.6,9.7c1.5,2.8,2.4,5.7,2.3,8.9c0,1.5,0.1,5.5-1.9,5.9
				c-0.6,0.1-0.4,0.8,0.2,0.7c2-0.4,2.4-3,2.5-4.7c0.2-1.9,0.3-4-0.2-5.8c-0.8-3.6-2.7-6.9-4.9-9.8c-2.1-2.8-4.8-5.4-8.3-6.4
				c-2.6-0.7-5.5-0.4-7.5,1.5C130.3,77.3,131,77.7,131.4,77.4L131.4,77.4z"/>
		</g>
	</g>
</g>
<g>
	<g>
		<g>
			<path class="st9" d="M65.6,110.4c2.7-2.6,6.4-0.5,9,1.1c3.3,2.1,6,4.5,7.6,8.2c1.2,2.7,1.8,5.7,2,8.7c0.2,2.4,0,6.7-3,7.3
				c-0.7,0.1-0.5,0.8,0.2,0.7c2.4-0.5,3.8-3.2,4-5.4c0.3-2.3-0.3-5-0.8-7.2c-0.7-3.1-1.9-6.1-3.9-8.5c-2.2-2.6-5.5-4.8-8.7-6
				c-2.6-1-5.2-0.9-7.3,1C64.2,110.6,65.3,110.7,65.6,110.4L65.6,110.4z"/>
		</g>
	</g>
	<g>
		<g>
			<path class="st9" d="M83.1,101.6c2.7-2.6,6.4-0.8,9,0.9c3.3,2.2,6,4.8,7.7,8.5c1.2,2.7,1.9,5.7,2.1,8.6c0.1,1.1,0.1,2.2-0.2,3.3
				c-0.3,1.3-0.9,3.5-2.4,3.8c-0.5,0.1-0.9,0.7-0.1,0.6c2.4-0.5,3.2-2.9,3.7-5c0.5-2.3,0-4.8-0.5-7.1c-0.7-3.1-2-6.1-4-8.6
				c-2.2-2.8-5.6-5.3-9-6.4c-2.5-0.9-5.2-0.7-7.2,1.2C81.8,101.9,82.8,101.9,83.1,101.6L83.1,101.6z"/>
		</g>
	</g>
	<g>
		<g>
			<path class="st9" d="M100.6,92.8c2.8-2.7,6.9-0.8,9.6,1.1c3.3,2.3,5.8,5.4,7.4,9.1c1.1,2.7,1.9,5.6,1.9,8.5c0,1-0.2,1.9-0.4,2.8
				c-0.2,1-0.7,3.2-2,3.4c-0.4,0.1-0.9,0.6-0.2,0.4c2.3-0.4,2.9-2.7,3.3-4.7c0.4-2.2,0.2-4.5-0.3-6.7c-0.7-3.2-2.1-6.3-4.1-8.8
				c-2.2-2.9-5.5-5.6-9-6.6c-2.5-0.7-5.2-0.4-7.2,1.5C99.5,93.1,100.4,93,100.6,92.8L100.6,92.8z"/>
		</g>
	</g>
	<g>
		<g>
			<path class="st9" d="M118.1,84.2c2.6-2.5,6.6-1.3,9.3,0.5c3.5,2.3,6.2,5.7,7.9,9.5c1.3,2.7,2.2,5.8,2,8.8
				c-0.1,1.6-0.2,5.4-2.2,5.8c-0.6,0.1-0.4,0.7,0.2,0.6c2.1-0.4,2.6-3.1,2.8-4.8c0.3-2.1,0.2-4.1-0.3-6.1c-1.5-6.5-6.4-13.7-13-15.8
				c-2.6-0.8-5.5-0.5-7.5,1.4C116.8,84.4,117.8,84.5,118.1,84.2L118.1,84.2z"/>
		</g>
	</g>
	<g>
		<g>
			<path class="st9" d="M135.5,75.6c2.4-2.3,5.9-1.8,8.6-0.4c3.8,2,6.6,5.9,8.6,9.7c1.5,2.8,2.4,5.7,2.3,8.9c0,1.5,0.1,5.5-1.9,5.9
				c-0.6,0.1-0.4,0.8,0.2,0.7c2-0.4,2.4-3,2.5-4.7c0.2-1.9,0.3-4-0.2-5.8c-0.8-3.6-2.7-6.9-4.9-9.8c-2.1-2.8-4.8-5.4-8.3-6.4
				c-2.6-0.7-5.5-0.4-7.5,1.5C134.4,75.6,135.1,76,135.5,75.6L135.5,75.6z"/>
		</g>
	</g>
</g>
<g>
	<g>
		<g>
			<path class="st9" d="M69.5,108.3c2.7-2.6,6.4-0.5,9,1.1c3.3,2.1,6,4.5,7.6,8.2c1.2,2.7,1.8,5.7,2,8.7c0.2,2.4,0,6.7-3,7.3
				c-0.7,0.1-0.5,0.8,0.2,0.7c2.4-0.5,3.8-3.2,4-5.4c0.3-2.3-0.3-5-0.8-7.2c-0.7-3.1-1.9-6.1-3.9-8.5c-2.2-2.6-5.5-4.8-8.7-6
				c-2.6-1-5.2-0.9-7.3,1C68.2,108.5,69.2,108.6,69.5,108.3L69.5,108.3z"/>
		</g>
	</g>
	<g>
		<g>
			<path class="st9" d="M87,99.6c2.7-2.6,6.4-0.8,9,0.9c3.4,2.2,6.1,4.9,7.7,8.6c1.2,2.7,1.9,5.7,2.1,8.7c0.1,2-0.3,6.4-2.8,6.8
				c-0.7,0.1-0.5,0.7,0.2,0.6c2.4-0.5,3.2-3.1,3.6-5.2c0.4-2.2-0.1-4.8-0.6-7c-1.6-6.7-6.1-12.4-12.7-14.8c-2.6-1-5.3-0.8-7.4,1.2
				C85.7,99.8,86.7,99.9,87,99.6L87,99.6z"/>
		</g>
	</g>
	<g>
		<g>
			<path class="st9" d="M104.6,90.8c2.8-2.7,6.9-0.8,9.6,1.1c3.3,2.3,5.8,5.4,7.4,9.1c1.1,2.7,1.9,5.6,1.9,8.5
				c0,1.6-0.4,5.9-2.3,6.3c-0.4,0.1-0.9,0.6-0.2,0.5c2.3-0.4,2.9-2.7,3.3-4.7c0.4-2.2,0.2-4.5-0.3-6.7c-0.7-3.2-2.1-6.3-4.1-8.9
				c-2.2-2.9-5.5-5.6-9-6.6c-2.5-0.7-5.2-0.4-7.2,1.5C103.4,91,104.4,90.9,104.6,90.8L104.6,90.8z"/>
		</g>
	</g>
	<g>
		<g>
			<path class="st9" d="M121.9,82.3c2.6-2.4,6.3-1.5,9,0.2c3.5,2.2,6.3,5.7,8.1,9.4c1.3,2.8,2.3,5.9,2.1,9c-0.1,1.6-0.2,5.4-2.2,5.8
				c-0.6,0.1-0.4,0.8,0.2,0.7c2.1-0.4,2.6-3,2.8-4.8c0.3-2.1,0.2-4.1-0.2-6.1c-1.5-6.5-6.3-13.8-12.9-15.9c-2.6-0.9-5.6-0.7-7.6,1.3
				C120.8,82.3,121.6,82.7,121.9,82.3L121.9,82.3z"/>
		</g>
	</g>
	<g>
		<g>
			<path class="st9" d="M139.4,73.6c2.4-2.3,5.9-1.8,8.6-0.4c3.8,2,6.6,5.9,8.6,9.7c1.5,2.8,2.4,5.7,2.3,8.9c0,1.5,0.1,5.5-1.9,5.9
				c-0.6,0.1-0.4,0.8,0.2,0.7c2-0.4,2.4-3,2.5-4.7c0.2-1.9,0.3-4-0.2-5.8c-0.8-3.6-2.7-6.9-4.9-9.8c-2.1-2.8-4.8-5.4-8.3-6.4
				c-2.6-0.7-5.5-0.4-7.5,1.5C138.3,73.5,139.1,73.9,139.4,73.6L139.4,73.6z"/>
		</g>
	</g>
</g>
<g>
	<g>
		<g>
			<path class="st9" d="M73.3,106.9c2.7-2.6,6.4-0.5,9,1.1c3.3,2.1,6,4.5,7.6,8.2c1.2,2.7,1.8,5.7,2,8.7c0.2,2.4,0,6.7-3,7.3
				c-0.7,0.1-0.5,0.8,0.2,0.7c2.4-0.5,3.8-3.2,4-5.4c0.3-2.3-0.3-5-0.8-7.2c-0.7-3.1-1.9-6.1-3.9-8.5c-2.2-2.6-5.5-4.8-8.7-6
				c-2.6-1-5.2-0.9-7.3,1C72,107.1,73,107.2,73.3,106.9L73.3,106.9z"/>
		</g>
	</g>
	<g>
		<g>
			<path class="st9" d="M90.8,98.2c2.7-2.6,6.4-0.8,9,0.9c3.4,2.2,6.1,4.9,7.7,8.6c1.2,2.7,1.9,5.7,2.1,8.7c0.1,2.1-0.3,6.3-2.8,6.8
				c-0.7,0.1-0.5,0.8,0.2,0.6c2.4-0.5,3.2-3.1,3.6-5.2c0.4-2.2-0.1-4.8-0.6-7c-1.6-6.7-6.1-12.4-12.7-14.8c-2.6-1-5.3-0.8-7.4,1.2
				C89.5,98.4,90.5,98.5,90.8,98.2L90.8,98.2z"/>
		</g>
	</g>
	<g>
		<g>
			<path class="st9" d="M108.3,89.5c2.7-2.6,6.7-1,9.4,0.8c3.3,2.3,6,5.3,7.6,9c1.2,2.7,2,5.7,2,8.7c0,1.8-0.4,5.7-2.5,6.1
				c-0.6,0.1-0.5,0.8,0.2,0.7c2.2-0.4,2.9-3.1,3.2-5c0.4-2.2,0.1-4.4-0.4-6.5c-1.5-6.6-6.1-13-12.7-15.4c-2.7-1-5.5-0.8-7.6,1.2
				C107,89.7,108,89.8,108.3,89.5L108.3,89.5z"/>
		</g>
	</g>
	<g>
		<g>
			<path class="st9" d="M125.8,80.6c2.7-2.6,6.7-1.1,9.5,0.7c3.4,2.3,6.1,5.8,7.8,9.5c1.2,2.7,2.1,5.7,1.9,8.7
				c-0.1,0.9-0.1,1.7-0.3,2.6c-0.2,0.9-0.6,3.1-1.7,3.3c-0.4,0.1-0.9,0.5-0.2,0.4c2.1-0.4,2.6-2.5,2.9-4.3c0.3-2.2,0.3-4.3-0.2-6.5
				c-0.8-3.4-2.4-6.7-4.6-9.5c-2.2-2.8-5.3-5.5-8.9-6.4c-2.5-0.6-5.2-0.2-7.1,1.6C124.7,80.9,125.7,80.8,125.8,80.6L125.8,80.6z"/>
		</g>
	</g>
	<g>
		<g>
			<path class="st9" d="M143.2,72.2c2.4-2.3,5.9-1.8,8.6-0.4c3.8,2,6.6,5.9,8.6,9.7c1.5,2.8,2.4,5.7,2.3,8.9c0,1.5,0.1,5.5-1.9,5.9
				c-0.6,0.1-0.4,0.8,0.2,0.7c2-0.4,2.4-3,2.5-4.7c0.2-1.9,0.3-4-0.2-5.8c-0.8-3.6-2.7-6.9-4.9-9.8c-2.1-2.8-4.8-5.4-8.3-6.4
				c-2.6-0.7-5.5-0.4-7.5,1.5C142.1,72.1,142.8,72.5,143.2,72.2L143.2,72.2z"/>
		</g>
	</g>
</g>
<g>
	<g>
		<g>
			<path class="st10" d="M146.7,69.5c0.3-0.4,1.2-0.4,1.7-0.5c1.2-0.1,2.4,0,3.6,0.2c3.2,0.7,5.7,2.8,7.6,5.4
				c2.6,3.6,5.2,7.9,5.4,12.5c0.1,1.4,0,2.8-0.2,4.2c-0.1,0.9-0.3,2.7-1.2,3.2c-0.4,0.3,0.5,0.2,0.7,0.1c0.8-0.5,1-1.7,1.2-2.5
				c0.3-1.4,0.4-2.8,0.4-4.2c0-1.9-0.3-3.7-1-5.5c-1.2-3.4-3.3-6.8-5.6-9.6c-2.1-2.5-5.1-4-8.3-4.3c-1.4-0.1-4.3-0.3-5.3,1
				C145.6,69.8,146.6,69.7,146.7,69.5L146.7,69.5z"/>
		</g>
	</g>
	<g>
		<g>
			<path class="st10" d="M129.1,78.5c0.3-0.4,1.1-0.5,1.5-0.5c1-0.2,2.1-0.1,3.1,0c3.4,0.6,6,2.7,8.1,5.4c3,3.8,5.1,8.1,5.4,12.9
				c0.1,1.2-0.1,2.4-0.2,3.6c-0.1,1-0.3,2.9-1.3,3.4c-0.6,0.3-0.1,0.9,0.4,0.6c1.9-1,2-4.5,2.1-6.4c0.1-1.8-0.1-3.7-0.6-5.5
				c-0.9-3.4-2.9-6.5-5-9.3c-2.2-2.7-5-4.9-8.5-5.5c-1.5-0.3-4.6-0.5-5.8,0.9C127.9,78.7,128.8,78.8,129.1,78.5L129.1,78.5z"/>
		</g>
	</g>
	<g>
		<g>
			<path class="st10" d="M111.6,87.1c0.9-1.1,3.8-0.6,4.9-0.3c3.3,0.8,5.9,3.2,7.9,5.8c3.1,3.9,4.8,8.1,5,13.1
				c0,1.1-0.1,2.3-0.3,3.3c-0.2,1-0.5,2.9-1.6,3.4c-0.7,0.3-0.1,0.5,0.4,0.4c2.1-0.8,2.4-4.1,2.5-6c0.1-1.9,0-4-0.5-5.8
				c-0.9-3.5-2.8-6.7-5.1-9.4c-2.3-2.7-5.2-5-8.8-5.4c-1.5-0.2-4.3-0.3-5.3,1.1C110.4,87.5,111.4,87.4,111.6,87.1L111.6,87.1z"/>
		</g>
	</g>
	<g>
		<g>
			<path class="st10" d="M94,95.9c0.9-1.2,3.7-0.7,4.9-0.3c3.3,0.9,6,3.4,8.1,6.1c3.3,4,4.8,8.5,4.7,13.7c0,1-0.2,2-0.4,2.9
				c-0.3,1-0.7,2.9-1.9,3.2c-0.7,0.2,0,0.4,0.4,0.3c2.1-0.7,2.7-3.8,2.9-5.7c0.2-2,0.1-4.1-0.3-6.1c-0.7-3.5-2.7-6.7-5-9.4
				c-2.4-2.7-5.4-5.2-9.1-5.7c-1.5-0.2-4.2-0.2-5.2,1.1C92.8,96.2,93.8,96.1,94,95.9L94,95.9z"/>
		</g>
	</g>
	<g>
		<g>
			<path class="st10" d="M76.4,104.8c0.8-1,3-0.7,4-0.5c3.3,0.7,6.1,3.1,8.3,5.6c3.8,4.3,5.6,9.2,5.2,14.9c-0.1,1.6-0.7,5.1-2.6,5.6
				c-0.6,0.2-0.5,0.7,0.2,0.6c2.2-0.6,3.1-3.5,3.4-5.5c0.3-2.1,0.3-4.4-0.2-6.5c-0.7-3.7-2.8-7-5.3-9.8c-2.4-2.6-5.4-5-9-5.5
				c-1.5-0.2-3.9-0.1-4.9,1.2C75.1,105.1,76.2,105.1,76.4,104.8L76.4,104.8z"/>
		</g>
	</g>
	<g>
		<g>
			<path class="st10" d="M58.8,113.5c0.7-1,2.5-0.8,3.6-0.6c3.2,0.6,6,3,8.2,5.3c4.2,4.4,6.2,9.7,5.6,15.7c-0.1,0.7-0.2,1.4-0.5,2.1
				c-0.4,1.1-1.1,3.1-2.4,3.4c-0.5,0.1-0.9,0.6-0.2,0.5c2.3-0.4,3.4-2.9,4-5c0.6-2.2,0.4-4.9,0-7.1c-0.7-3.9-2.9-7.3-5.7-10.1
				c-2.4-2.4-5.5-4.9-9-5.3c-1.4-0.2-3.6,0-4.6,1.3C57.6,113.9,58.7,113.8,58.8,113.5L58.8,113.5z"/>
		</g>
	</g>
</g>
<g>
	<path class="st11" d="M272.6,130.4l-108,53.7l-0.8,9.7c0,0,1.7,1.8,5.4-0.7c3.7-2.5,105-52.7,106.2-53.3c1.2-0.6,2.6-4.5,2-6.5
		C277,131.4,272.6,130.4,272.6,130.4z"/>
	<g>
		<path class="st7" d="M164.7,184.2l-0.8,9.8c0,0,3.9,3.4,4.9-3.1S164.7,184.2,164.7,184.2z"/>
	</g>
</g>
<path class="st4" d="M361.7,181.6c-0.8,0.3-125.1,61.5-132.4,66.9c-7.2,7.2-3,14.2,0.9,16.3c3.9,2.2,8.5,3.6,14.1-0.2
	c5.7-3.8,125.6-62.9,127.5-63.8c1.9-1,4.2-9.3-0.3-14.8C367.1,180.5,362.5,181.3,361.7,181.6z"/>
<ellipse class="st12" cx="237.2" cy="257.4" rx="11.8" ry="11"/>
<g>
	<g>
		<path class="st13" d="M271.3,226.4c30.7-15.7,63.5-32.5,64.5-33.1c1.5-0.9,1.8,0.9,1.8,0.9s-64.2,32.1-65.1,32.3s2,2.7,3.6,1.9
			c1.6-0.9,68.5-34.6,69.1-35.3s3.3,0.2,2.3,0.8s-69.2,34.7-69.2,34.7c-1,0.8,0.6,2.1,1.8,1.3c1.2-0.8,67.9-34.3,68.8-34.8
			s2.7,0.9,1.6,1.4c-1.2,0.5-68.2,34.7-69.2,35.2c-1,0.5-0.2,2.1,1,1.7s66.2-34,69-35.1c0.7-0.7,2.1,0.5,1.7,0.7
			c-0.9,0.4-69.2,36-69.7,36.3c-0.5,0.3-0.1,1.8,1.2,1.1c1.3-0.7,67-35.1,68.7-35.8c1.1-0.4,1.1,1.3,0.4,1.5
			c-0.7,0.3-68.7,35.8-68.9,35.9c-1,1-1.4,2.8,0.3,2s68.8-36,68.7-36.2c0.9-0.5,2.1,0.7,0.4,2.1c-1.7,1.4-69,36.1-69.4,36.3
			c-0.4,0.2-1.9,1.5-0.2,1.5c1.7,0,70.2-35.5,70.2-35.5l-0.1,0.3"/>
		<path class="st13" d="M243.8,240.8l5.3-3c0,0,9.2-4.7,22.2-11.4"/>
	</g>
	<g>
		<g>
			<g>
				<path class="st9" d="M288.5,242.5c1.8-3.1,0.3-6.6-1.1-9.6c-1.7-3.6-4.2-6.5-8-8.1c-0.6-0.2-1.2-0.6-1.9-0.4
					c-0.8,0.2-1.7,0.8-2.5,1.1c-1.7,0.7-3.3,1.4-5.1,1.8c-1.4,0.3-2.4,0.3-3.8-0.1c-5.3-1.6-10.6-3.3-15.9-4.9
					c-0.3-0.1-1.2,0.4-0.6,0.6c4.8,1.5,9.7,3,14.5,4.5c1,0.3,2.1,0.8,3.2,0.9c1.4,0.1,2.9-0.3,4.2-0.8c1.6-0.5,3.1-1.1,4.6-1.8
					c0.5-0.2,1-0.4,1.4-0.6c0,0,0.3-0.1,0.3-0.2c0,0.2-0.6-0.1-0.4,0.1c0.1,0.2,0.8,0.2,1,0.3c0.6,0.2,1.3,0.6,1.9,0.9
					c1.7,1,3.2,2.4,4.3,4c1.6,2.2,2.8,4.9,3.5,7.5c0.4,1.7,0.3,3.3-0.6,4.8C287.3,242.9,288.4,242.8,288.5,242.5L288.5,242.5z"/>
			</g>
		</g>
		<g>
			<g>
				<path class="st9" d="M302.3,235.7c1.9-3.4,0.1-7.4-1.6-10.5c-1.6-3-4.3-5.6-7.4-6.9c-1.9-0.8-4.1,0.5-5.9,1.2
					c-1.6,0.5-3.6,1.3-5.3,0.9c-1.2-0.3-2.5-0.7-3.7-1c-5.6-1.4-11.4-2.7-16.9-4.5c-0.3-0.1-1.2,0.3-0.9,0.4
					c4.9,1.5,9.9,2.7,14.8,3.9c1.7,0.4,3.3,0.8,5,1.3c1,0.3,1.8,0.4,2.9,0.3c1.5-0.2,3-0.6,4.5-1.1c0.7-0.2,1.5-0.5,2.2-0.8
					c0.4-0.2,1.1-0.5,1.6-0.5c0.9,0,2.2,1,2.9,1.4c1.5,1,2.9,2.3,4,3.8c1.5,2,2.7,4.6,3.3,7.1c0.4,1.8,0.4,3.5-0.5,5.1
					C301.1,236,302.1,236,302.3,235.7L302.3,235.7z"/>
			</g>
		</g>
		<g>
			<g>
				<path class="st9" d="M315.9,229.1c1.9-3.4,0.3-7.6-1.6-10.6c-1.1-1.8-2.6-3.5-4.2-4.8c-1-0.9-2.3-1.8-3.6-2.2
					c-1.1-0.3-2.4,0.2-3.5,0.5c-1.8,0.5-3.8,1.3-5.8,1.2c-1,0-2.1-0.4-3.1-0.7c-1.8-0.4-3.7-0.8-5.6-1.2c-5.5-1.2-11.1-2.2-16.4-3.9
					c-0.4-0.1-1.3,0.4-0.7,0.6c7.7,2.4,15.9,3.5,23.7,5.5c2.8,0.7,5.5-0.3,8.3-1.1c1.4-0.4,2.3-0.5,3.6,0.2c1.7,1,3.2,2.3,4.4,3.8
					c2.6,3.1,5.6,8.6,3.3,12.6C314.7,229.5,315.7,229.4,315.9,229.1L315.9,229.1z"/>
			</g>
		</g>
		<g>
			<g>
				<path class="st9" d="M329.6,222.4c2-3.6,0.2-8-1.9-11.2c-1.6-2.4-4.3-5.9-7.5-6.3c-1.9-0.2-3.9,0.5-5.7,0.8
					c-1.6,0.3-2.9,0.2-4.4-0.2c-3.4-0.8-6.9-1.4-10.3-2c-5.6-1-11.2-1.9-16.6-3.6c-0.3-0.1-1.3,0.4-0.9,0.5c4.4,1.4,9,2.2,13.6,3
					c3.8,0.7,7.6,1.4,11.4,2.2c1,0.2,1.9,0.4,2.9,0.6c1.6,0.4,3.1,0.2,4.7-0.1c1.8-0.3,4-1.2,5.8-0.4c1.6,0.7,3,2,4.1,3.3
					c2.9,3.2,6.3,8.9,3.8,13.2C328.4,222.8,329.4,222.7,329.6,222.4L329.6,222.4z"/>
			</g>
		</g>
		<g>
			<g>
				<path class="st9" d="M343.3,215.7c2-3.6,0.3-7.9-1.7-11c-2-3.1-4.5-6.2-8.4-6.2c-2.4,0-4.9,0.7-7.3,0.2
					c-0.9-0.2-1.9-0.4-2.8-0.6c-4-0.7-7.9-1.4-11.9-2.1c-5.8-1-11.6-1.7-17.2-3.5c-0.4-0.1-1.3,0.4-0.7,0.6c4.8,1.5,9.7,2.2,14.6,3
					c4.1,0.7,8.2,1.4,12.3,2.1c2.4,0.4,4.9,1.3,7.3,1.2c2.3-0.1,4.9-0.9,7.2-0.1c1.8,0.6,3.2,2.2,4.4,3.6c2.6,3.3,5.5,8.5,3.2,12.7
					C342,216.1,343.1,216,343.3,215.7L343.3,215.7z"/>
			</g>
		</g>
	</g>
	<g>
		<g>
			<g>
				<path class="st9" d="M291.4,241.4c1.8-3.1,0.3-6.6-1.1-9.6c-1.7-3.6-4.2-6.5-8-8.1c-0.6-0.2-1.2-0.6-1.9-0.4
					c-0.8,0.2-1.7,0.8-2.5,1.1c-1.7,0.7-3.3,1.4-5.1,1.8c-1.4,0.3-2.4,0.3-3.8-0.1c-5.3-1.6-10.6-3.3-15.9-4.9
					c-0.3-0.1-1.2,0.4-0.6,0.6c4.8,1.5,9.7,3,14.5,4.5c1,0.3,2.1,0.8,3.2,0.9c1.4,0.1,2.9-0.3,4.2-0.8c1.6-0.5,3.1-1.1,4.6-1.8
					c0.5-0.2,1-0.4,1.4-0.6c0,0,0.3-0.1,0.3-0.2c0,0.2-0.6-0.1-0.4,0.1c0.1,0.2,0.8,0.2,1,0.3c0.6,0.2,1.3,0.6,1.9,0.9
					c1.7,1,3.2,2.4,4.3,4c1.6,2.2,2.8,4.9,3.5,7.5c0.4,1.7,0.3,3.3-0.6,4.8C290.2,241.8,291.2,241.7,291.4,241.4L291.4,241.4z"/>
			</g>
		</g>
		<g>
			<g>
				<path class="st9" d="M305.1,234.7c1.9-3.2,0.3-6.9-1.2-9.9c-1.6-3.3-4.3-6.1-7.7-7.7c-0.7-0.3-1.3-0.6-2.1-0.4
					c-1.4,0.4-2.7,1-4.1,1.4c-1.5,0.5-3.4,1.2-5,0.9c-1.3-0.2-2.6-0.7-3.8-1c-5.7-1.4-11.5-2.7-17.1-4.5c-0.5-0.1-1.3,0.5-0.6,0.7
					c4.8,1.5,9.7,2.6,14.6,3.9c1.7,0.4,3.3,0.8,5,1.3c1,0.3,1.9,0.5,3,0.4c1.6-0.2,3.1-0.7,4.6-1.2c0.7-0.2,1.4-0.5,2.2-0.8
					c0.4-0.2,1-0.5,1.5-0.5c0.8,0,1.9,0.7,2.6,1.2c1.6,1,3,2.3,4.2,3.8c1.6,2,2.8,4.5,3.4,7c0.5,1.8,0.5,3.5-0.5,5.1
					C303.8,235.1,304.9,235.1,305.1,234.7L305.1,234.7z"/>
			</g>
		</g>
		<g>
			<g>
				<path class="st9" d="M318.8,228c1.9-3.4,0.2-7.6-1.6-10.7c-1.1-1.8-2.5-3.3-4-4.7c-1.1-0.9-2.4-2-3.8-2.3
					c-1.1-0.3-2.4,0.2-3.5,0.5c-1.8,0.5-3.7,1.2-5.7,1.2c-1.1,0-2.2-0.4-3.3-0.7c-1.8-0.4-3.5-0.8-5.3-1.2
					c-5.6-1.2-11.2-2.2-16.7-3.9c-0.4-0.1-1.3,0.5-0.6,0.7c7.7,2.4,15.9,3.5,23.7,5.5c2.9,0.7,5.5-0.3,8.3-1
					c1.4-0.4,2.3-0.6,3.6,0.2c1.7,1,3.2,2.3,4.4,3.8c2.6,3.1,5.6,8.6,3.3,12.5C317.5,228.4,318.6,228.4,318.8,228L318.8,228z"/>
			</g>
		</g>
		<g>
			<g>
				<path class="st9" d="M332.5,221.3c2-3.6,0.1-8.2-2-11.3c-1.7-2.4-4.5-6-7.7-6.2c-2-0.1-3.9,0.6-5.8,0.9
					c-1.5,0.2-2.8,0.1-4.2-0.3c-3.4-0.7-6.9-1.4-10.3-2c-5.5-1-11.1-1.9-16.5-3.6c-0.4-0.1-1.3,0.4-0.6,0.6
					c4.5,1.4,9.2,2.2,13.9,3.1c3.8,0.7,7.5,1.4,11.3,2.2c0.9,0.2,1.8,0.4,2.7,0.6c1.5,0.4,3,0.2,4.6-0.1c1.8-0.3,4.1-1.2,5.8-0.4
					c1.7,0.7,3,2.1,4.2,3.4c2.8,3.2,6.1,8.8,3.7,13.1C331.2,221.7,332.3,221.6,332.5,221.3L332.5,221.3z"/>
			</g>
		</g>
		<g>
			<g>
				<path class="st9" d="M346.2,214.6c2-3.6,0.3-7.9-1.7-11c-2-3.1-4.5-6.2-8.4-6.2c-2.4,0-4.9,0.7-7.3,0.2
					c-0.9-0.2-1.9-0.4-2.8-0.6c-4-0.7-7.9-1.4-11.9-2.1c-5.8-1-11.6-1.7-17.2-3.5c-0.4-0.1-1.3,0.4-0.7,0.6c4.8,1.5,9.7,2.2,14.6,3
					c4.1,0.7,8.2,1.4,12.3,2.1c2.4,0.4,4.9,1.3,7.3,1.2c2.3-0.1,4.9-0.9,7.2-0.1c1.8,0.6,3.2,2.2,4.4,3.6c2.6,3.3,5.5,8.5,3.2,12.7
					C344.9,215,346,214.9,346.2,214.6L346.2,214.6z"/>
			</g>
		</g>
	</g>
	<g>
		<g>
			<g>
				<path class="st9" d="M293.9,240.2c1.8-3.1,0.3-6.6-1.1-9.6c-1.7-3.6-4.2-6.5-8-8.1c-0.6-0.2-1.2-0.6-1.9-0.4
					c-0.8,0.2-1.7,0.8-2.5,1.1c-1.7,0.7-3.3,1.4-5.1,1.8c-1.4,0.3-2.4,0.3-3.8-0.1c-5.3-1.6-10.6-3.3-15.9-4.9
					c-0.3-0.1-1.2,0.4-0.6,0.6c4.8,1.5,9.7,3,14.5,4.5c1,0.3,2.1,0.8,3.2,0.9c1.4,0.1,2.9-0.3,4.2-0.8c1.6-0.5,3.1-1.1,4.6-1.8
					c0.5-0.2,1-0.4,1.4-0.6c0,0,0.3-0.1,0.3-0.2c0,0.2-0.6-0.1-0.4,0.1c0.1,0.2,0.8,0.2,1,0.3c0.6,0.2,1.3,0.6,1.9,0.9
					c1.7,1,3.2,2.4,4.3,4c1.6,2.2,2.8,4.9,3.5,7.5c0.4,1.7,0.3,3.3-0.6,4.8C292.7,240.6,293.8,240.5,293.9,240.2L293.9,240.2z"/>
			</g>
		</g>
		<g>
			<g>
				<path class="st9" d="M307.6,233.4c1.9-3.3,0.2-7.1-1.4-10.2c-1.6-3.1-4.3-5.8-7.6-7.3c-2-0.9-4,0.4-5.9,1.1
					c-1.6,0.5-3.5,1.3-5.2,1c-1.2-0.2-2.5-0.6-3.7-0.9c-5.7-1.5-11.5-2.8-17.1-4.5c-0.3-0.1-1.3,0.4-0.9,0.5
					c4.8,1.5,9.7,2.6,14.5,3.9c1.7,0.4,3.4,0.9,5.1,1.3c1.1,0.3,2,0.5,3.1,0.4c1.5-0.2,3-0.6,4.5-1.1c0.7-0.2,1.4-0.5,2.1-0.7
					c0.5-0.2,1.2-0.5,1.7-0.6c0.7,0,1.8,0.8,2.5,1.1c1.6,1,3,2.3,4.2,3.7c1.6,2,2.8,4.6,3.5,7c0.5,1.8,0.5,3.7-0.4,5.4
					C306.4,233.9,307.5,233.7,307.6,233.4L307.6,233.4z"/>
			</g>
		</g>
		<g>
			<g>
				<path class="st9" d="M321.3,226.8c1.9-3.4,0.3-7.6-1.6-10.6c-1.1-1.8-2.6-3.5-4.2-4.8c-1-0.9-2.3-1.8-3.6-2.2
					c-1.1-0.3-2.4,0.2-3.5,0.5c-1.8,0.5-3.8,1.3-5.8,1.2c-1,0-2.1-0.4-3.1-0.7c-1.8-0.4-3.7-0.8-5.6-1.2c-5.5-1.2-11.1-2.2-16.4-3.9
					c-0.4-0.1-1.3,0.4-0.6,0.6c7.7,2.4,15.9,3.5,23.7,5.5c2.8,0.7,5.5-0.3,8.3-1.1c1.4-0.4,2.3-0.5,3.6,0.2c1.7,1,3.2,2.3,4.4,3.8
					c2.6,3.1,5.6,8.6,3.3,12.6C320.1,227.2,321.1,227.1,321.3,226.8L321.3,226.8z"/>
			</g>
		</g>
		<g>
			<g>
				<path class="st9" d="M335,220c2-3.6,0.2-8.2-2-11.3c-1.7-2.4-4.5-6-7.7-6.1c-2-0.1-3.9,0.6-5.8,0.9c-1.5,0.2-2.8,0-4.2-0.3
					c-3.4-0.7-6.9-1.4-10.3-2c-5.5-1-11.1-1.9-16.5-3.6c-0.3-0.1-1.3,0.4-0.7,0.6c4.5,1.4,9.2,2.2,13.9,3.1
					c3.8,0.7,7.5,1.4,11.3,2.2c0.9,0.2,1.8,0.4,2.7,0.6c1.6,0.4,3.2,0.2,4.8-0.2c1.7-0.3,3.9-1.1,5.6-0.4c1.7,0.7,3,2.1,4.2,3.4
					c2.8,3.2,6.1,8.8,3.7,13.1C333.8,220.5,334.8,220.4,335,220L335,220z"/>
			</g>
		</g>
		<g>
			<g>
				<path class="st9" d="M348.7,213.3c2-3.6,0.3-7.9-1.7-11c-2-3.1-4.5-6.2-8.4-6.2c-2.4,0-4.9,0.7-7.3,0.2
					c-0.9-0.2-1.9-0.4-2.8-0.6c-4-0.7-7.9-1.4-11.9-2.1c-5.8-1-11.6-1.7-17.2-3.5c-0.4-0.1-1.3,0.4-0.7,0.6c4.8,1.5,9.7,2.2,14.6,3
					c4.1,0.7,8.2,1.4,12.3,2.1c2.4,0.4,4.9,1.3,7.3,1.2c2.3-0.1,4.9-0.9,7.2-0.1c1.8,0.6,3.2,2.2,4.4,3.6c2.6,3.3,5.5,8.5,3.2,12.7
					C347.4,213.8,348.5,213.7,348.7,213.3L348.7,213.3z"/>
			</g>
		</g>
	</g>
	<g>
		<g>
			<g>
				<path class="st9" d="M296.7,238.6c1.8-3.1,0.3-6.6-1.1-9.6c-1.7-3.6-4.2-6.5-8-8.1c-0.6-0.2-1.2-0.6-1.9-0.4
					c-0.8,0.2-1.7,0.8-2.5,1.1c-1.7,0.7-3.3,1.4-5.1,1.8c-1.4,0.3-2.4,0.3-3.8-0.1c-5.3-1.6-10.6-3.3-15.9-4.9
					c-0.3-0.1-1.2,0.4-0.6,0.6c4.8,1.5,9.7,3,14.5,4.5c1,0.3,2.1,0.8,3.2,0.9c1.4,0.1,2.9-0.3,4.2-0.8c1.6-0.5,3.1-1.1,4.6-1.8
					c0.5-0.2,1-0.4,1.4-0.6c0,0,0.3-0.1,0.3-0.2c0,0.2-0.6-0.1-0.4,0.1c0.1,0.2,0.8,0.2,1,0.3c0.6,0.2,1.3,0.6,1.9,0.9
					c1.7,1,3.2,2.4,4.3,4c1.6,2.2,2.8,4.9,3.5,7.5c0.4,1.7,0.3,3.3-0.6,4.8C295.5,239,296.5,238.9,296.7,238.6L296.7,238.6z"/>
			</g>
		</g>
		<g>
			<g>
				<path class="st9" d="M310.4,231.9c1.9-3.3,0.2-7.1-1.4-10.2c-1.6-3.1-4.3-5.8-7.6-7.3c-2-0.9-4.2,0.5-6.1,1.1
					c-1.5,0.5-3.4,1.2-5.1,0.9c-1.3-0.2-2.5-0.7-3.7-1c-5.7-1.4-11.5-2.7-17.1-4.5c-0.3-0.1-1.2,0.4-0.6,0.6
					c4.8,1.5,9.7,2.6,14.6,3.9c1.7,0.4,3.3,0.8,5,1.3c1,0.3,1.9,0.5,3,0.3c1.6-0.2,3.1-0.7,4.6-1.2c0.7-0.2,1.4-0.5,2.1-0.7
					c0.5-0.2,1.1-0.5,1.6-0.5c0.7,0,1.9,0.8,2.6,1.2c1.6,1,3,2.3,4.2,3.8c1.6,2,2.8,4.6,3.4,7c0.5,1.8,0.5,3.6-0.5,5.2
					C309.1,232.3,310.2,232.2,310.4,231.9L310.4,231.9z"/>
			</g>
		</g>
		<g>
			<g>
				<path class="st9" d="M324.1,225.2c1.9-3.4,0.3-7.6-1.6-10.6c-1.1-1.8-2.6-3.5-4.2-4.8c-1-0.9-2.3-1.9-3.6-2.2
					c-1.1-0.3-2.4,0.2-3.5,0.5c-1.9,0.5-3.8,1.3-5.8,1.2c-1,0-2.1-0.4-3.1-0.7c-1.8-0.4-3.7-0.8-5.6-1.2c-5.5-1.2-11.1-2.2-16.4-3.9
					c-0.4-0.1-1.3,0.4-0.6,0.6c7.7,2.4,15.9,3.5,23.7,5.5c2.8,0.7,5.5-0.3,8.3-1c1.4-0.4,2.3-0.6,3.6,0.2c1.7,1,3.2,2.3,4.4,3.8
					c2.6,3.1,5.6,8.6,3.3,12.6C322.8,225.6,323.9,225.6,324.1,225.2L324.1,225.2z"/>
			</g>
		</g>
		<g>
			<g>
				<path class="st9" d="M337.8,218.5c2-3.6,0.1-8.2-2-11.4c-1.7-2.4-4.5-6-7.7-6.2c-2-0.1-3.9,0.6-5.8,0.9
					c-1.5,0.2-2.8,0.1-4.2-0.2c-3.3-0.7-6.7-1.3-10.1-2c-5.6-1.1-11.3-1.9-16.8-3.6c-0.4-0.1-1.3,0.5-0.6,0.7c4.5,1.4,9,2.2,13.6,3
					c3.8,0.7,7.6,1.4,11.4,2.2c0.9,0.2,1.9,0.4,2.8,0.6c1.5,0.4,3,0.2,4.6-0.1c1.8-0.3,3.9-1.2,5.7-0.5c1.7,0.6,3.2,2.1,4.3,3.5
					c2.8,3.2,6.1,8.8,3.7,13C336.5,219,337.6,219,337.8,218.5L337.8,218.5z"/>
			</g>
		</g>
		<g>
			<g>
				<path class="st9" d="M351.5,211.8c2-3.6,0.3-7.9-1.7-11c-2-3.1-4.5-6.2-8.4-6.2c-2.4,0-4.9,0.7-7.3,0.2
					c-0.9-0.2-1.9-0.4-2.8-0.6c-4-0.7-7.9-1.4-11.9-2.1c-5.8-1-11.6-1.7-17.2-3.5c-0.4-0.1-1.3,0.4-0.7,0.6c4.8,1.5,9.7,2.2,14.6,3
					c4.1,0.7,8.2,1.4,12.3,2.1c2.4,0.4,4.9,1.3,7.3,1.2c2.3-0.1,4.9-0.9,7.2-0.1c1.8,0.6,3.2,2.2,4.4,3.6c2.6,3.3,5.5,8.5,3.2,12.7
					C350.2,212.2,351.3,212.1,351.5,211.8L351.5,211.8z"/>
			</g>
		</g>
	</g>
	<g>
		<g>
			<g>
				<path class="st10" d="M264,225.2c1.5,1.6,2.9,3.2,4.4,4.8c0.2,0.2,0.8,0.1,1-0.2c0.8-1.6,2.8-2.7,4.5-2.6c2.5,0.2,4.9,2,6.7,3.7
					c2.2,2.2,4.2,5,4.5,8.2c0.2,1.6,0,3.4-0.8,4.8c-0.3,0.5,0.8,0.4,1,0.1c2.1-3.6,0.4-8.3-1.9-11.3c-2.4-3.1-6.9-7.1-11.1-5.9
					c-1.5,0.4-3.2,1.5-3.9,3c0.3-0.1,0.7-0.1,1-0.2c-1.5-1.6-2.9-3.2-4.4-4.8C264.7,224.5,263.7,224.9,264,225.2L264,225.2z"/>
			</g>
		</g>
		<g>
			<g>
				<path class="st10" d="M278.1,217.9c1.1,1.3,2.2,2.6,3.4,3.8c0.4,0.4,0.9,1.1,1.4,1.2c0.7,0.2,1.2-0.6,1.6-0.9
					c1.1-0.9,2.5-1.6,3.9-1.3c1.3,0.3,2.5,0.9,3.6,1.7c2.9,2,5.1,4.9,6.2,8.2c0.6,2,1,4.8-0.2,6.7c-0.3,0.4,0.7,0.3,0.9,0
					c0.9-1.4,1-3.4,0.7-5c-0.5-3.5-2.5-6.6-5-9c-1.8-1.6-4.2-3.3-6.8-3.4c-1.3,0-2.6,0.6-3.6,1.3c-0.3,0.2-0.9,0.6-1.1,0.9
					c-0.3,0.4,0.3,0,0.3,0.1c0-0.1-0.3-0.3-0.4-0.3c-1.5-1.3-2.8-2.9-4.1-4.5C278.8,217.2,277.8,217.5,278.1,217.9L278.1,217.9z"/>
			</g>
		</g>
		<g>
			<g>
				<path class="st10" d="M292.1,210.4c1,1.3,2.1,2.6,3.3,3.8c0.5,0.5,1.1,1.2,1.8,1.3c0.7,0.1,1.5-0.5,2.1-0.9
					c0.8-0.5,1.7-1,2.7-0.9c0.6,0.1,1.1,0.3,1.7,0.5c1.2,0.5,2.2,1.2,3.2,2c2.6,2.2,4.4,5.2,5.2,8.5c0.4,1.6,0.8,4.5-0.4,5.7
					c-0.2,0.2,0.7,0.1,0.9-0.1c0.9-1,0.9-2.7,0.8-3.9c-0.3-3.4-1.8-6.6-4-9.1c-1.7-1.8-4-3.7-6.5-4.1c-1.2-0.2-2.3,0.2-3.4,0.7
					c-0.5,0.3-1,0.6-1.5,0.9c-0.1,0.1-0.2,0.1-0.3,0.2c-0.2,0.2,0.3,0.1,0.2,0c-0.1-0.1-0.4-0.2-0.5-0.3c-1.7-1.2-3-3-4.2-4.6
					C292.9,209.9,292,210.3,292.1,210.4L292.1,210.4z"/>
			</g>
		</g>
		<g>
			<g>
				<path class="st10" d="M306.2,203c1,1.3,2,2.7,3.2,3.8c0.6,0.6,1.3,1.3,2.1,1.4c1,0.2,2.1-0.6,3-0.9c1.5-0.6,2.7-0.1,4.1,0.6
					c1.1,0.6,2.2,1.5,3.1,2.4c2.4,2.4,3.7,5.4,4.2,8.7c0.2,1.2,0.3,2.6,0,3.8c-0.1,0.3-0.4,0.9-0.5,0.9c-0.4,0.3,0.5,0.2,0.7,0
					c0.8-0.5,0.8-1.8,0.9-2.6c0.1-3.2-1-6.7-2.9-9.3c-1.5-2-3.5-3.9-5.8-4.8c-1-0.4-1.9-0.5-2.9-0.3c-0.6,0.1-1.2,0.4-1.8,0.6
					c-0.8,0.3-1.3,0.6-2.1,0.1c-1.7-1.1-3.1-3-4.3-4.7C306.9,202.5,306.1,202.9,306.2,203L306.2,203z"/>
			</g>
		</g>
		<g>
			<g>
				<path class="st10" d="M320.2,195.6c0.9,1.4,2,2.8,3.2,3.9c0.6,0.6,1.4,1.3,2.4,1.4c1.2,0.2,2.5-0.5,3.7-0.7
					c2.3-0.3,4.8,2,6.2,3.6c2.2,2.4,3.3,5.3,3.7,8.5c0.2,1.2,0.4,2.6,0,3.9c0,0.2-0.2,0.5-0.3,0.6c0,0.2-0.2,0.1,0.2,0
					c-0.4,0.1-0.7,0.5-0.1,0.4c0.8-0.1,1.1-0.9,1.2-1.6c0.2-1.3,0-2.6-0.2-3.9c-0.3-1.7-0.7-3.4-1.5-5c-1.3-2.4-3.3-4.6-5.7-6
					c-0.8-0.4-1.7-0.9-2.6-0.9c-1.4,0-3.2,1.2-4.5,0.6c-2-0.8-3.7-3.3-4.8-5C320.9,195.2,320.1,195.5,320.2,195.6L320.2,195.6z"/>
			</g>
		</g>
		<g>
			<g>
				<path class="st10" d="M334.3,188.2c0.8,1.4,1.9,2.8,3.1,4c0.7,0.7,1.6,1.3,2.6,1.4c1.4,0.2,2.9-0.6,4.3-0.3
					c2,0.4,4.1,2.3,5.3,3.8c2.1,2.4,3.1,5.3,3.4,8.5c0.1,1.3,0.3,2.7,0,3.9c0,0.1-0.2,0.6-0.2,0.6c0,0.1,0.4-0.1,0.4-0.1
					c-0.2-0.1-0.9,0.2-0.8,0.3c0.5,0.3,1.1-0.2,1.3-0.7c0.3-0.8,0.2-1.9,0.2-2.7c-0.1-1.9-0.3-3.8-0.9-5.6c-1-2.7-2.9-5.2-5.2-6.8
					c-0.8-0.6-1.8-1.2-2.7-1.4c-1.5-0.4-3.2,0.5-4.7,0.2c-2.3-0.5-4.2-3.3-5.3-5.3C335,187.8,334.2,188.1,334.3,188.2L334.3,188.2z"
					/>
			</g>
		</g>
	</g>
</g>
<polygon class="st11" points="200,206.3 295.9,158.5 302.5,161.9 206.8,210.1 "/>
<path class="st4" d="M166.5,25.8L46.1,86.9c-10.9,10.9-9.7,16.7-3.8,20c5.9,3.3,17.2-3.8,17.2-3.8l120-61.7c0,0,2.5-2.3,2.7-4.3
	c0.2-2,0.4-7.3-4.3-11.3C173.3,21.7,166.5,25.8,166.5,25.8z"/>
<ellipse class="st3" cx="44.9" cy="98.4" rx="11.6" ry="10.8"/>
<path class="st4" d="M347.7,173.7c-2.1,0.2-107.1,51.2-113.1,55.7c-5.9,5.9-2.5,11.6,0.8,13.4c3.2,1.8,6.9,3,11.6-0.2
	c4.7-3.1,106.9-54.8,108.3-56.1c1.5-1.3,3.4-7-0.1-10.3C351.7,172.8,349.8,173.5,347.7,173.7z"/>
<g>
	<path class="st2" d="M299.1,159.5l-97,48.5c-0.2,0.1-0.5,0.2-0.7,0.2c-0.6,0-1.2-0.3-1.5-0.9c-0.4-0.8-0.1-1.8,0.8-2.3l97.5-48.7"
		/>
	<line class="st2" x1="300.2" y1="159" x2="299.1" y2="159.5"/>
</g>
<g>
	<g>
		<g>
			<path class="st14" d="M297,159.7c-0.3,0-0.5-0.2-0.5-0.5l-0.1-22.8c0-0.3,0.2-0.5,0.5-0.5c0,0,0,0,0,0c0.3,0,0.5,0.2,0.5,0.5
				l0.1,22.8C297.6,159.4,297.3,159.7,297,159.7C297,159.7,297,159.7,297,159.7z"/>
		</g>
		<path class="st14" d="M292.1,138.4c0-0.3,0.2-0.5,0.5-0.5c0.3,0,0.5,0.2,0.5,0.5l0.1,22.8c0,0.3-0.2,0.5-0.5,0.5c0,0,0,0,0,0
			c-0.3,0-0.5-0.2-0.5-0.5L292.1,138.4z"/>
		<path class="st14" d="M287.8,140.5c0-0.3,0.2-0.5,0.5-0.5c0.3,0,0.5,0.2,0.5,0.5l0.1,22.9c0,0.3-0.2,0.5-0.5,0.5c0,0,0,0,0,0
			c-0.3,0-0.5-0.2-0.5-0.5L287.8,140.5z"/>
		<path class="st14" d="M283.5,142.6c0-0.3,0.2-0.5,0.5-0.5c0.3,0,0.5,0.2,0.5,0.5l0,22.9c0,0.3-0.2,0.5-0.5,0.5c0,0,0,0,0,0
			c-0.3,0-0.5-0.2-0.5-0.5L283.5,142.6z"/>
		<path class="st14" d="M279.2,144.7c0-0.3,0.2-0.5,0.5-0.5c0.3,0,0.5,0.2,0.5,0.5l0,22.9c0,0.3-0.2,0.5-0.5,0.5c0,0,0,0,0,0
			c-0.3,0-0.5-0.2-0.5-0.5L279.2,144.7z"/>
		<path class="st14" d="M274.9,146.8c0-0.3,0.2-0.5,0.5-0.5c0.3,0,0.5,0.2,0.5,0.5l0,22.9c0,0.3-0.2,0.5-0.5,0.5c0,0,0,0,0,0
			c-0.3,0-0.5-0.2-0.5-0.5L274.9,146.8z"/>
		<path class="st14" d="M270.6,148.9c0-0.3,0.2-0.5,0.5-0.5c0.3,0,0.5,0.2,0.5,0.5l0,22.9c0,0.3-0.2,0.5-0.5,0.5c0,0,0,0,0,0
			c-0.3,0-0.5-0.2-0.5-0.5L270.6,148.9z"/>
		<path class="st14" d="M266.4,151c0-0.3,0.2-0.5,0.5-0.5c0.3,0,0.5,0.2,0.5,0.5l0,23c0,0.3-0.2,0.5-0.5,0.5c0,0,0,0,0,0
			c-0.3,0-0.5-0.2-0.5-0.5L266.4,151z"/>
		<path class="st14" d="M262.1,153c0-0.3,0.3-0.5,0.5-0.5c0.3,0,0.5,0.2,0.5,0.5l0,23c0,0.3-0.2,0.5-0.5,0.5c0,0,0,0,0,0
			c-0.3,0-0.5-0.2-0.5-0.5L262.1,153z"/>
		<path class="st14" d="M257.8,155.1c0-0.3,0.3-0.5,0.5-0.5c0.3,0,0.5,0.2,0.5,0.5l0,23c0,0.3-0.2,0.5-0.5,0.5c0,0,0,0,0,0
			c-0.3,0-0.5-0.2-0.5-0.5L257.8,155.1z"/>
		<path class="st14" d="M253.5,157.2c0-0.3,0.3-0.5,0.5-0.5c0.3,0,0.5,0.2,0.5,0.5l-0.1,23c0,0.3-0.2,0.5-0.5,0.5c0,0,0,0,0,0
			c-0.3,0-0.5-0.2-0.5-0.5L253.5,157.2z"/>
		<path class="st14" d="M249.2,159.3c0-0.3,0.3-0.5,0.5-0.5c0.3,0,0.5,0.2,0.5,0.5l-0.1,23.1c0,0.3-0.2,0.5-0.5,0.5c0,0,0,0,0,0
			c-0.3,0-0.5-0.2-0.5-0.5L249.2,159.3z"/>
		<path class="st14" d="M244.9,161.4c0-0.3,0.3-0.5,0.5-0.5c0.3,0,0.5,0.2,0.5,0.5l-0.1,23.1c0,0.3-0.2,0.5-0.5,0.5c0,0,0,0,0,0
			c-0.3,0-0.5-0.2-0.5-0.5L244.9,161.4z"/>
		<path class="st14" d="M240.6,163.5c0-0.3,0.3-0.5,0.5-0.5c0.3,0,0.5,0.2,0.5,0.5l-0.1,23.1c0,0.3-0.2,0.5-0.5,0.5c0,0,0,0,0,0
			c-0.3,0-0.5-0.2-0.5-0.5L240.6,163.5z"/>
		<path class="st14" d="M236.3,165.6c0-0.3,0.3-0.5,0.5-0.5c0.3,0,0.5,0.2,0.5,0.5l-0.1,23.1c0,0.3-0.2,0.5-0.5,0.5c0,0,0,0,0,0
			c-0.3,0-0.5-0.2-0.5-0.5L236.3,165.6z"/>
		<path class="st14" d="M232,167.7c0-0.3,0.3-0.5,0.5-0.5c0.3,0,0.5,0.2,0.5,0.5l-0.1,23.1c0,0.3-0.2,0.5-0.5,0.5c0,0,0,0,0,0
			c-0.3,0-0.5-0.2-0.5-0.5L232,167.7z"/>
		<path class="st14" d="M227.8,169.8c0-0.3,0.3-0.5,0.5-0.5c0.3,0,0.5,0.2,0.5,0.5l-0.2,23.2c0,0.3-0.2,0.5-0.5,0.5c0,0,0,0,0,0
			c-0.3,0-0.5-0.2-0.5-0.5L227.8,169.8z"/>
		<path class="st14" d="M223.5,171.9c0-0.3,0.3-0.5,0.5-0.5c0.3,0,0.5,0.2,0.5,0.5l-0.2,23.2c0,0.3-0.2,0.5-0.5,0.5c0,0,0,0,0,0
			c-0.3,0-0.5-0.2-0.5-0.5L223.5,171.9z"/>
		<g>
			<path class="st14" d="M219.5,197.7C219.5,197.7,219.5,197.7,219.5,197.7c-0.3,0-0.5-0.2-0.5-0.5l0.2-23.2c0-0.3,0.3-0.5,0.5-0.5
				c0.3,0,0.5,0.2,0.5,0.5l-0.2,23.2C220.1,197.5,219.8,197.7,219.5,197.7z"/>
		</g>
	</g>
	<g>
		<path class="st14" d="M297,159.7c-0.3,0-0.5-0.2-0.5-0.5l-0.1-22.8c0-0.3,0.2-0.5,0.5-0.5c0,0,0,0,0,0c0.3,0,0.5,0.2,0.5,0.5
			l0.1,22.8C297.6,159.4,297.3,159.7,297,159.7C297,159.7,297,159.7,297,159.7z"/>
	</g>
</g>
<path class="st4" d="M339.9,167.7l-100.8,49.4l-0.8,11.1c0,0,2,2,6.2-0.9c4.2-2.8,97.6-50.3,99-51.1c1.4-0.7,1-4.9-0.2-7.3
	S339.9,167.7,339.9,167.7z"/>
<path class="st15" d="M259.9,222.5"/>
<path class="st16" d="M296.8,150.7"/>
<path class="st16" d="M289.1,170.4"/>
<path class="st17" d="M289.4,154.3"/>
<path class="st17" d="M288.4,173.6"/>
<g>
	<path class="st4" d="M216.8,115.6l-108.2,54l-0.7,9.7c0,0,1.7,1.7,5.4-0.8s104.7-52.8,105.9-53.5c1.2-0.6,2.4-5.4,1.7-7.4
		C220.4,115.7,216.8,115.6,216.8,115.6z"/>
	<g>
		<path class="st7" d="M108.6,169.6l-0.7,9.8c0,0,3.9,3.4,4.9-3.2C113.9,169.6,108.6,169.6,108.6,169.6z"/>
	</g>
</g>
<g>
	<path class="st11" d="M232.7,112.9l-108,53.7l-0.8,9.7c0,0,1.7,1.8,5.4-0.7c3.7-2.5,105-52.7,106.2-53.3c1.2-0.6,2.6-4.5,2-6.5
		C237.1,113.9,232.7,112.9,232.7,112.9z"/>
	<g>
		<path class="st7" d="M124.8,166.7l-0.8,9.8c0,0,3.9,3.4,4.9-3.1S124.8,166.7,124.8,166.7z"/>
	</g>
</g>
<path class="st16" d="M276,160.6"/>
<path class="st16" d="M281.3,148.6"/>
<g>
	<g>
		<path class="st12" d="M221.7,211.7c0.5,1.1-1.1,3.6-2.3,4.5c-1.1,0.9-20.5,11.9-22.1,13c-1.6,1.1-4.3,2.3-6.7,2.3
			c-2.4,0-2.6-0.1-3.4-1.2c-0.8-1.1,1.7-5,2.9-6.2c1.1-1.1,24.9-12.3,26-12.5S221.1,210.6,221.7,211.7z"/>
		<path class="st12" d="M187.1,230.3c0,0,0.6-0.2,2.9-1.1c2.2-0.9,9.5-5.1,9.5-5.1l19.9-10.7l2.3-1.7"/>
		<circle class="st18" cx="215.5" cy="217.1" r="0.5"/>
		<path class="st7" d="M195,223c-0.3,0.3-0.3,0.6-0.3,0.6s-0.1,0.4,1.3,0.7c1.4,0.4,2.6-0.4,2.6-0.4l16.2-8.7c0,0,0.8-0.7,0-1.4
			c-0.8-0.7-2.3,0-2.3,0S195.3,222.7,195,223z"/>
		<path class="st7" d="M200.8,222.8c0,0-0.2-0.9-1.2-0.9s-4.3,1.8-4.3,2s1.4,0.8,2.6,0.4S200.8,222.8,200.8,222.8z"/>
		<path class="st7" d="M195.3,224.1c-0.1-0.2,0.1-0.4,0.5-0.5c0.3-0.1,0.5-0.1,1,0c0.4,0.1,0.9,0.8,0.6,0.9S195.4,224.4,195.3,224.1
			z"/>
	</g>
	<path class="st13" d="M215.3,217l8.5-3.9c0,0,89.7-45.4,91.2-46.3c1.5-0.9,1.8,0.9,1.8,0.9s-73,38.2-73.8,38.5
		c-0.9,0.3,0.5,1.4,2.1,0.5c1.6-0.9,72.5-37.3,73.1-38s2.5,0.8,1.5,1.4s-71.2,37.3-71.2,37.3c-1,0.8,1.1,1.7,2.1,0.9
		c0,0,68.7-36,70.9-37c2.2-1,3.3,0.4,2.1,0.9c-1.2,0.5-69.3,36.1-70.2,36.6s1.1,1.4,2.3,0.9s67.5-35.6,70.4-36.7s2.7,0.6,1.9,1
		c-0.9,0.4-69.8,36.8-70.3,37.1c-0.5,0.3-0.1,1.8,1.2,1.1c1.3-0.7,69.6-37,71.3-37.7c1.7-0.7,2.3,1.2,1.6,1.5s-71.5,37.7-71.7,37.8
		s-1.4,2.5,0.3,1.7c1.7-0.8,72.2-37.4,72.1-37.6c0.9-0.5,2,0.8,0.2,2.2c-1.7,1.4-72,37.1-72.4,37.3c-0.4,0.2-1.5,1.6,0.1,1.6
		c1.7,0,73.5-37.3,73.5-37.3l-0.1,0.3"/>
</g>
<g>
	<path class="st4" d="M235.9,123.5l-108.2,54l-0.7,9.7c0,0,1.7,1.7,5.4-0.8s104.7-52.8,105.9-53.5s2.4-5.4,1.7-7.4
		C239.5,123.7,235.9,123.5,235.9,123.5z"/>
	<g>
		<path class="st7" d="M127.7,177.5l-0.7,9.8c0,0,3.9,3.4,4.9-3.2C133,177.5,127.7,177.5,127.7,177.5z"/>
	</g>
</g>
<g>
	<path class="st11" d="M251.8,120.9l-108,53.7l-0.8,9.7c0,0,1.7,1.8,5.4-0.7c3.7-2.5,105-52.7,106.2-53.3c1.2-0.6,2.6-4.5,2-6.5
		C256.2,121.8,251.8,120.9,251.8,120.9z"/>
	<g>
		<path class="st7" d="M143.9,174.6l-0.8,9.8c0,0,3.9,3.4,4.9-3.1S143.9,174.6,143.9,174.6z"/>
	</g>
</g>
<g>
	<g>
		<g>
			<path class="st9" d="M320.9,189c1.7-3,0.9-6.4-1.9-8.4c-2.2-1.6-4.8-2.7-7.3-3.7c-1.7-0.7-3.3-1.5-5-2.2c-2-0.9-4.1-1.5-6.2-2.3
				c-5.5-2.1-11-4.4-16.5-6.6c-5-2-10-4.7-14.6-7.6c-3.6-2.3-7-4.8-10.5-7.2c-7.4-5.1-14.8-10.1-22.2-15.1
				c-7.7-5.3-15.4-10.5-23.1-15.8c-4.1-2.8-8.3-5.4-12.2-8.3c-0.2-0.2-0.1,0-0.3-0.3c-0.5-0.5-1-1-1.5-1.4c-2.1-2-4.2-4.1-6.3-6.1
				c-6.8-6.6-13.5-13.2-20.2-19.9c-6.5-6.5-13-13-19.1-19.8c-1.7-1.9-3.5-3.8-5-5.9c-0.2-0.3-0.3-0.5-0.5-0.8
				c-1-1.9-1.8-3.8-2.8-5.6c-1.6-2.8-3.4-6.1-6.1-8c-2.3-1.6-6-3.1-8.5-0.9c-0.5,0.4,0.6,0.4,0.9,0.2c1.8-1.6,5,0,6.7,1.2
				c1.3,0.9,2.3,2.2,3.2,3.5c2.3,3.2,3.8,6.7,5.6,10.1c0.9,1.8,2.5,3.4,3.8,4.9c5.6,6.4,11.7,12.5,17.7,18.5
				c6.8,6.8,13.6,13.6,20.5,20.3c2.5,2.4,4.9,4.8,7.4,7.2c1.1,1.1,2.2,2.3,3.4,3.3c0.6,0.5,1.4,1,2,1.4c2.1,1.5,4.3,2.9,6.4,4.4
				c7.1,4.9,14.2,9.7,21.4,14.6c7.7,5.3,15.4,10.5,23.1,15.8c4.5,3.1,9.1,6.2,13.6,9.3c6.8,4.7,14.9,8.1,22.8,11.3
				c3,1.2,6,2.5,9,3.6c1.9,0.7,3.9,1.3,5.8,2.1c2.1,0.8,4.1,1.8,6.2,2.7c2.1,0.9,4.1,1.7,6.1,2.8c1.5,0.9,3,2,3.7,3.7
				c0.7,1.7,0.5,3.6-0.4,5.2C319.7,189.4,320.8,189.3,320.9,189L320.9,189z"/>
		</g>
	</g>
	<g>
		<g>
			<path class="st9" d="M306.4,196.3c1.3-2.3,1.4-5-0.3-7.1c-1.6-2-4.3-3.2-6.6-4.2c-3.1-1.3-6.2-2.6-9.5-3.8c-4-1.5-8-3.1-12-4.7
				c-5.2-2.1-10.4-4-15.4-6.6c-4.2-2.3-8.2-4.8-12.2-7.4c-4.9-3.2-9.9-6.4-14.8-9.6c-13-8.4-26-16.9-39-25.3
				c-3.5-2.3-7.1-4.6-10.6-6.9c-0.9-0.6-1.4-1.1-2.3-2c-4-3.7-7.9-7.5-11.8-11.2c-10.4-10-20.5-20.3-30.1-31.1
				c-3-3.4-6.3-6.8-8.9-10.6c-0.8-1.1-1.3-2.4-1.9-3.6c-0.9-1.5-1.8-3.1-2.7-4.5c-1.8-2.7-3.8-5.6-6.7-7.1c-2-1-4.6-1.2-6.4,0.4
				c-0.5,0.4,0.6,0.4,0.9,0.2c3.1-2.8,7.5,1.8,9.2,4.1c2.2,2.8,4,5.9,5.7,9.1c1.9,3.6,4.9,6.7,7.5,9.8c9.1,10.4,18.7,20.3,28.5,29.9
				c4.5,4.4,9,8.7,13.6,13c1.4,1.3,2.7,2.7,4.2,3.8c2.7,2,5.6,3.6,8.4,5.4c12.5,8.1,25,16.2,37.5,24.3c8,5.2,16,10.6,24.1,15.7
				c4.2,2.7,8.7,5.2,13.4,7.1c5.2,2.1,10.3,4.1,15.5,6.2c3.6,1.5,7.4,2.7,11,4.2c3.2,1.3,6.7,2.4,9.5,4.6c2.5,2,3.1,5.1,1.5,7.9
				C305.2,196.7,306.3,196.6,306.4,196.3L306.4,196.3z"/>
		</g>
	</g>
	<g>
		<g>
			<path class="st9" d="M292,203.6c1.3-2.3,1.5-5.1-0.2-7.3c-1.5-2-4.2-3.1-6.4-4.1c-3-1.3-6.2-2.4-9.3-3.5c-4.1-1.4-8-3-12-4.7
				c-5.2-2.2-10.5-3.9-15.5-6.6c-4.3-2.4-8.4-5.1-12.6-7.7c-4.9-3-9.8-6-14.7-9.1c-13.2-8.2-26.4-16.3-39.6-24.4
				c-3.8-2.3-7.6-4.7-11.3-7c-0.7-0.4-1.2-0.9-1.9-1.4c-3.7-3.3-7.3-6.7-10.9-10.1c-10.7-10.1-20.8-20.7-30.4-31.8
				c-3.5-4.1-7.1-8.1-10.3-12.4c-1.8-2.6-3.2-5.5-5.1-8.1c-1.9-2.7-4-6-7.2-7.4c-1.9-0.8-4.1-0.5-5.6,0.9c-0.5,0.5,0.6,0.6,0.9,0.3
				c3.1-2.9,7,1.5,8.8,3.8c2.1,2.8,4,5.6,5.8,8.6c2.5,4.3,6,8,9.2,11.8c9.1,10.9,18.8,21.3,29,31.1c4.2,4.1,8.5,8,12.8,12
				c1.1,1,2.1,2.1,3.3,2.9c2.9,2,6.1,3.7,9.1,5.6c12.7,7.8,25.3,15.6,38,23.4c8.1,5,16.3,10,24.3,15.2c4,2.6,8.2,5.2,12.6,6.9
				c5.4,2.1,10.8,4.3,16.2,6.5c3.6,1.5,7.3,2.6,10.9,4c3.2,1.2,6.6,2.2,9.4,4.3c2.7,2,3.2,5.2,1.6,8C290.7,204,291.8,204,292,203.6
				L292,203.6z"/>
		</g>
	</g>
	<g>
		<g>
			<path class="st9" d="M277.5,210.8c1.4-2.4,1.5-5.3-0.3-7.5c-1.6-1.9-4.3-3-6.6-3.9c-3.1-1.2-6.2-2.2-9.4-3.2
				c-4.2-1.4-8.2-3.2-12.3-4.9c-3.1-1.3-6.3-2.6-9.5-3.7c-2.2-0.8-4.3-2-6.4-3.1c-4-2.3-7.8-5-11.9-7.4c-5.1-3-10.2-6-15.3-9
				c-13.4-7.9-26.8-15.7-40.2-23.5c-3.7-2.2-7.5-4.4-11.2-6.5c-0.7-0.4-1.3-0.9-1.9-1.4c-3.8-3.2-7.5-6.6-11.1-10
				c-5.5-5.1-10.9-10.4-16-15.9c-4.9-5.4-9.6-11-14.1-16.6c-1.9-2.4-3.9-4.8-5.8-7.2c-1.7-2.1-3.6-4.1-5.1-6.3
				C98.6,78,97,75.3,95,72.7c-1.8-2.4-3.9-6.1-7.1-6.9c-1.8-0.4-3.6,0.2-4.9,1.4c-0.3,0.3,0.8,0.2,1,0c3-3,6.4,1.3,8.2,3.5
				c2.2,2.8,4.2,5.7,6.2,8.7c3,4.5,6.7,8.6,10.1,12.8c4.3,5.3,8.6,10.6,13.2,15.8c4.9,5.6,10.2,10.8,15.5,15.9
				c4.2,3.9,8.4,7.8,12.7,11.6c1,0.9,1.9,1.8,3,2.5c3.1,1.9,6.3,3.7,9.4,5.5c13,7.6,25.9,15.2,38.9,22.7c8.2,4.8,16.6,9.3,24.5,14.6
				c3.9,2.6,8,5.3,12.3,6.9c5.7,2.1,11.3,4.4,17,6.9c3.6,1.5,7.3,2.6,10.9,3.8c3.2,1.1,6.8,2.1,9.4,4.3c2.5,2.1,2.6,5.3,1,8
				C276.3,211.2,277.3,211.1,277.5,210.8L277.5,210.8z"/>
		</g>
	</g>
	<g>
		<g>
			<path class="st9" d="M263,218.2c1.3-2.2,1.7-4.9,0.2-7.1c-1.4-2.1-4.2-3.3-6.5-4.2c-3.1-1.2-6.3-2.1-9.4-3.1
				c-1.6-0.5-3.3-1-4.8-1.6c-2.3-1-4.6-2-6.9-3c-2.9-1.3-5.9-2.5-8.9-3.6c-2.2-0.8-4.3-1.5-6.4-2.7c-4.5-2.5-8.6-5.6-13.1-8.2
				c-5.1-2.8-10.1-5.7-15.2-8.5c-7.1-3.9-14.2-7.9-21.3-11.8c-6.7-3.7-13.5-7.5-20.2-11.2c-3.9-2.2-7.9-4.4-11.8-6.5
				c-0.9-0.5-1.1-0.7-2-1.4c-3.9-3.3-7.8-6.6-11.6-10.1C119.5,130,114,124.8,109,119c-4.8-5.5-9.2-11.3-13.7-17.1
				c-2.1-2.8-4.3-5.5-6.5-8.2c-1.9-2.3-3.9-4.4-5.6-6.8c-2-2.8-4-5.5-6.1-8.3c-1.4-1.9-3.2-4.7-5.8-4.9c-1.5-0.1-3.3,0.4-4.2,1.7
				c-0.3,0.4,0.8,0.3,1,0c1.9-2.7,5-0.1,6.5,1.6c2.1,2.5,4,5.2,5.9,7.8c1.7,2.4,3.4,4.7,5.3,7c2.1,2.5,4.2,5.1,6.2,7.6
				c4.4,5.6,8.7,11.3,13.2,16.7c4.8,5.8,10,11.1,15.5,16.2c4.3,4,8.7,8,13.2,11.8c1,0.9,2.1,1.9,3.2,2.6c3.1,1.9,6.4,3.5,9.6,5.3
				c13.2,7.4,26.5,14.7,39.7,22.1c5.7,3.1,11.3,6.3,17,9.4c3,1.7,5.8,3.3,8.6,5.2c3.9,2.6,7.9,5.3,12.4,6.8c5.5,1.8,10.7,4.2,16,6.6
				c3.5,1.5,7.2,2.5,10.8,3.6c3.3,1.1,7,2,9.7,4.3c2.4,2.1,2.5,5.3,1,8C261.7,218.6,262.8,218.5,263,218.2L263,218.2z"/>
		</g>
	</g>
</g>
<g>
	<g>
		<g>
			<path class="st9" d="M324.1,187.4c1.8-3.1,1.5-6.6-1.4-8.8c-2.2-1.7-4.9-2.9-7.4-3.9c-3-1.2-6-2.3-9-3.5c-5-1.8-10-3.6-14.9-5.5
				c-5.3-2.1-10.5-4.5-15.5-7.3c-4.5-2.5-8.6-5.6-12.8-8.4c-7.9-5.4-15.8-10.8-23.7-16.2c-8.1-5.5-16.2-11.1-24.4-16.6
				c-2.6-1.8-5.3-3.6-7.9-5.4c-0.7-0.5-1.4-0.9-2-1.4c-0.2-0.1-0.3-0.2-0.5-0.3c-0.2-0.1,0,0,0,0c-1.2-1.1-2.3-2.4-3.4-3.5
				c-2.6-2.7-5.1-5.3-7.7-8c-7.1-7.3-14.1-14.6-21.2-21.9c-5.8-6-11.6-12-17.4-17.9c-0.9-1-2.2-1.9-2.9-3c0.1,0.1-0.1-0.3-0.2-0.4
				c-0.2-0.4-0.3-0.8-0.5-1.2c-0.6-1.3-1.2-2.5-1.8-3.8c-1.4-2.7-2.9-5.5-5.3-7.5c-2-1.7-5.1-3.9-7.9-2.7c-0.7,0.3-0.1,0.7,0.4,0.5
				c1.6-0.7,3.8,0.7,5.1,1.6c1.5,1,2.7,2.2,3.7,3.6c1.8,2.5,3.2,5.3,4.5,8.1c0.3,0.7,0.6,1.6,1.1,2.2c0.4,0.5,0.9,0.9,1.3,1.3
				c5.1,5.2,10.1,10.4,15.2,15.7c7.1,7.3,14.2,14.7,21.3,22c4.7,4.8,9.3,9.6,14,14.5c2,2.1,4.8,3.5,7.2,5.2c7.4,5,14.7,10,22.1,15
				c8.3,5.7,16.6,11.3,24.9,17c4.5,3.1,9.1,6.2,13.6,9.3c8.3,5.7,18.5,9.5,28,13.1c3.4,1.2,6.8,2.5,10.1,3.7c3.9,1.5,7.9,2.9,11.6,5
				c1.6,1,3.2,2.1,3.8,4c0.5,1.8,0.1,3.7-0.8,5.3C322.8,187.8,323.9,187.7,324.1,187.4L324.1,187.4z"/>
		</g>
	</g>
	<g>
		<g>
			<path class="st9" d="M309.6,194.7c1.5-2.6,1.7-5.9-0.6-8.1c-2-1.9-4.8-3.1-7.3-4.1c-2.9-1.2-6.3-2.4-9.5-3.5
				c-3.8-1.4-7.5-2.9-11.3-4.3c-2.7-1-5.4-2.1-8.1-3.1c-2.7-1-5.2-2.4-7.7-3.8c-6-3.2-11.7-6.9-17.4-10.6
				c-7.9-5.1-15.7-10.2-23.6-15.3c-8.1-5.3-16.3-10.6-24.4-16c-2.7-1.8-5.3-3.5-8-5.3c-1-0.7-2.1-1.4-3.1-2.1
				c-0.8-0.7-1.5-1.5-2.2-2.2c-5.6-5.7-11.1-11.4-16.8-17c-4.7-4.7-9.2-9.6-13.7-14.5c-5.8-6.2-11.7-12.4-17.5-18.6
				c-1-1.1-2.2-2.1-2.8-3.3c-1.1-2-2.2-4-3.4-5.9c-1.3-2.2-2.6-4.3-4.5-6c-2.1-1.9-5-4-7.8-2.6c-0.7,0.3-0.1,0.7,0.4,0.5
				c2-1,4.3,0.7,5.7,2c1,0.9,1.9,1.8,2.7,2.8c1.6,2.1,2.9,4.4,4.2,6.7c1,1.7,1.7,3.3,3,4.7c5.2,5.5,10.4,11,15.6,16.5
				c5.3,5.6,10.7,11.3,16,16.9c4.7,4.9,9.6,9.8,14.4,14.6c2.2,2.3,4.3,4.8,6.9,6.6c1.9,1.3,3.8,2.5,5.7,3.8
				c7.4,4.9,14.7,9.7,22.1,14.5c8.2,5.4,16.5,10.8,24.8,16.1c4.6,3,9.2,6,13.8,8.9c5,3.2,10.3,6.3,15.8,8.6c5.2,2.2,10.6,4,15.8,6.1
				c3,1.2,6.1,2.3,9.2,3.4c3.6,1.3,7.3,2.5,10.5,4.7c3.1,2.1,3.8,5.5,2,8.7C308.3,195.1,309.4,195,309.6,194.7L309.6,194.7z"/>
		</g>
	</g>
	<g>
		<g>
			<path class="st9" d="M295.1,202c1.4-2.5,1.7-5.7-0.5-7.9c-1.9-1.9-4.7-3-7.2-4c-3.2-1.2-6.5-2.4-9.8-3.5c-4-1.3-7.9-3.1-11.8-4.7
				c-2.8-1.1-5.6-2.1-8.4-3.2c-2.5-0.9-4.8-2.3-7.1-3.6c-6.2-3.5-12.3-7.4-18.4-11.1c-7.9-4.8-15.7-9.7-23.6-14.6c-8-5-16-10-24-15
				c-2.7-1.7-5.3-3.4-8-5c-1.9-1.2-3.6-2.4-5.2-3.9c-6.2-6.2-12.4-12.3-18.5-18.5c-5.4-5.5-10.5-11.3-15.8-16.9
				c-5.3-5.7-10.5-11.5-15.8-17.2c-1.2-1.3-1.9-2.6-3-4.2c-2.4-3.8-4.7-8-8.3-10.9c-1.9-1.6-4-2.2-6.3-1c-0.6,0.4,0.3,0.4,0.7,0.3
				c2.7-1.5,5.8,1.9,7.4,3.8c1.3,1.6,2.4,3.4,3.5,5.1c1.2,1.8,2.3,3.6,3.4,5.4c0.2,0.4,0.4,0.7,0.7,1c4.4,5,9,9.9,13.6,14.8
				c5.7,6.2,11.4,12.4,17.1,18.5c5.5,5.8,11.4,11.4,17,17.1c2,2,3.9,4.2,6.3,5.8c2,1.3,4.1,2.6,6.1,3.9c7.3,4.6,14.7,9.2,22,13.8
				c8.1,5.1,16.3,10.1,24.4,15.2c5.1,3.1,10.2,6.2,15.3,9.3c4.7,2.9,9.4,6,14.5,8.2c2.5,1.1,5.1,1.9,7.7,2.9
				c2.8,1.1,5.5,2.2,8.3,3.3c3.3,1.4,6.7,2.5,10.1,3.7c3.6,1.3,7.5,2.4,10.6,4.7c2.8,2.1,3.2,5.5,1.5,8.4
				C293.9,202.4,294.9,202.2,295.1,202L295.1,202z"/>
		</g>
	</g>
	<g>
		<g>
			<path class="st9" d="M280.6,209.3c1.4-2.4,1.7-5.5-0.2-7.7c-1.7-2-4.5-3-6.9-3.9c-3.4-1.3-6.8-2.4-10.2-3.5
				c-4.2-1.4-8.2-3.3-12.2-5c-2.9-1.2-5.8-2.2-8.8-3.3c-2.4-0.9-4.7-2.3-7-3.6c-3.7-2.2-7.2-4.5-10.9-6.7c-2.6-1.5-5.3-3.1-7.9-4.6
				c-7.9-4.7-15.8-9.3-23.7-14c-8-4.7-16-9.5-24-14.3c-2.7-1.6-5.4-3.2-8-4.8c-1.5-0.9-3.1-1.8-4.4-3c-3.6-3.4-7.1-7-10.6-10.5
				c-3.4-3.4-6.9-6.6-10.2-10.1c-5.9-6.2-11.5-12.6-17.2-18.9c-4.6-5.1-9.2-10.2-13.7-15.3c-4.1-4.7-6.6-11-11.7-14.8
				c-1.8-1.3-3.6-1.4-5.5-0.2c-0.6,0.4,0.3,0.7,0.7,0.4c1.2-0.9,2.4-0.7,3.6,0.1c1.2,0.8,2.2,1.9,3.1,2.9c0.9,1,1.7,2.2,2.5,3.3
				c2,2.7,3.8,5.7,5.9,8.3c1,1.3,2.2,2.5,3.3,3.7c2.6,2.9,5.2,5.8,7.8,8.7c6,6.7,11.9,13.3,18,19.9c6.5,7,13.4,13.4,20.2,20.1
				c1.7,1.7,3.3,3.4,5.3,4.6c2,1.2,4.1,2.5,6.1,3.7c7.3,4.4,14.5,8.7,21.8,13c8.1,4.8,16.3,9.7,24.5,14.5c5.6,3.3,11.3,6.6,16.9,9.9
				c4.4,2.6,8.6,5.8,13.4,7.8c2.5,1.1,5.1,1.8,7.6,2.8c2.9,1.1,5.8,2.4,8.7,3.6c3.6,1.5,7.2,2.7,10.9,4c3.5,1.2,7.3,2.2,10.4,4.3
				c2.9,2,3.2,5.4,1.5,8.4C279.3,209.7,280.4,209.6,280.6,209.3L280.6,209.3z"/>
		</g>
	</g>
	<g>
		<g>
			<path class="st9" d="M266.1,216.5c1.6-2.7,1.6-6.2-0.9-8.3c-2-1.8-4.8-2.7-7.4-3.5c-3.7-1.2-7.5-2.2-11.1-3.6
				c-2.4-0.9-4.7-2.1-7.1-3.1c-3.4-1.5-6.9-3-10.4-4.2c-2.7-0.9-5.1-2-7.5-3.5c-2.5-1.5-5-3.1-7.4-4.8c-3.4-2.4-7.2-4.3-10.8-6.3
				c-7.7-4.4-15.3-8.7-23-13c-8.1-4.6-16.3-9.2-24.4-13.8c-4.7-2.7-9.4-5.3-14.1-8c-0.2-0.1-0.3-0.2-0.5-0.3c-0.2-0.1,0,0-0.1-0.1
				c-1.1-0.9-2-2-3-2.9c-5.4-5.3-10.8-10.5-16.2-15.8c-6.7-6.5-12.8-13.8-18.9-20.8c-4.9-5.6-9.8-11.2-14.6-16.9
				c-2-2.5-3.9-5-5.8-7.5c-2-2.5-4-5.9-6.8-7.5c-1.4-0.8-3.9-0.8-4.8,0.8c-0.3,0.5,0.8,0.4,1,0c0.7-1.3,2.5-0.6,3.5,0.1
				c1,0.8,2,1.8,2.8,2.8c0.6,0.7,1.2,1.5,1.8,2.3c2.4,3.1,4.8,6.2,7.2,9.3c3.8,4.8,8,9.3,11.9,13.9c6.3,7.3,12.5,14.6,19.2,21.6
				c4.8,4.9,9.8,9.6,14.7,14.4c1.8,1.8,3.7,3.6,5.5,5.3c0.5,0.5,1.1,1.1,1.7,1.6c0.9,0.7,2.1,1.2,3.1,1.7c2.5,1.4,5,2.8,7.5,4.2
				c7.6,4.3,15.1,8.5,22.7,12.8c8,4.5,16,9.1,24,13.6c4.7,2.7,9.4,5.3,14.1,8c2.8,1.6,5.4,3.6,8.2,5.3c2.2,1.3,4.4,2.7,6.9,3.5
				c3.5,1.1,7,2.5,10.4,4c2.6,1.1,5.2,2.3,7.8,3.5c1.9,0.8,3.9,1.3,5.9,2c4,1.3,8.4,2.3,12,4.5c3.2,2,3.9,5.5,2,8.7
				C264.9,217,265.9,216.9,266.1,216.5L266.1,216.5z"/>
		</g>
	</g>
</g>
<g>
	<g>
		<g>
			<path class="st9" d="M327.6,185.6c3.6-6.4-4.9-10.2-9.5-12.3c-2-0.9-3.9-1.9-6-2.8c-2.1-0.9-4.2-1.5-6.3-2.3
				c-5.7-2.2-11.5-4.2-17-6.8c-4.7-2.2-9.6-4.5-13.9-7.5c-4-2.8-8-5.5-12-8.2c-8.1-5.5-16.1-11-24.2-16.5
				c-7.6-5.2-15.1-10.3-22.7-15.5c-2.2-1.5-4.4-3-6.6-4.5c-0.7-0.5-1.3-0.9-1.7-1.3c-3.9-4.2-8-8.3-12-12.5
				c-6.9-7.2-13.8-14.4-20.7-21.5c-5.6-5.8-11.2-11.6-16.8-17.5c-1-1-2.2-2-3-3.1c0-0.1-0.4-0.8-0.5-1c-0.6-1.2-1.3-2.4-2-3.5
				c-1.8-3.1-3.7-6.1-6.3-8.5c-2.3-2.2-4.9-3.2-7.7-1.3c-0.6,0.4,0.3,0.6,0.7,0.3c3.7-2.5,7.5,2.6,9.4,5.4c1.8,2.5,3.3,5.2,4.8,8
				c0.6,1.2,1.3,1.9,2.2,2.8c5,5.2,9.9,10.3,14.9,15.5c6.9,7.1,13.7,14.3,20.6,21.4c4.8,5,9.6,10,14.4,14.9c1.8,1.9,3.9,3.1,6,4.6
				c6.7,4.6,13.5,9.2,20.2,13.8c8.2,5.6,16.4,11.2,24.6,16.8c5.4,3.7,10.9,7.4,16.3,11.1c6.3,4.3,13.6,7.8,20.9,10.8
				c5.3,2.1,10.7,4.1,16,6.1c2.5,0.9,4.9,2.1,7.3,3.3c1.9,0.9,3.7,1.7,5.5,2.7c3.2,1.9,6.3,5.2,4.1,9.1
				C326.4,186,327.4,185.9,327.6,185.6L327.6,185.6z"/>
		</g>
	</g>
	<g>
		<g>
			<path class="st9" d="M312.9,193c1.7-3,0.7-6.3-1.9-8.4c-2.2-1.7-4.9-2.8-7.4-3.9c-1.7-0.7-3.3-1.4-4.9-2.1
				c-2.1-0.9-4.3-1.6-6.4-2.4c-3-1.1-5.9-2.4-8.9-3.6c-3.3-1.3-6.6-2.5-9.8-3.9c-4.7-2.1-9.2-4.7-13.5-7.6
				c-4.1-2.8-8.2-5.4-12.3-8.1c-7.9-5.2-15.7-10.3-23.6-15.5c-7.5-4.9-15-9.8-22.6-14.8c-2.4-1.6-4.8-3.1-7.1-4.7
				c-0.6-0.4-1.3-0.8-1.9-1.2c-0.1-0.1-0.3-0.2-0.4-0.3c-0.2-0.1,0.1,0.1-0.1-0.1c-2.4-2.1-4.5-4.6-6.7-6.8
				c-3.2-3.3-6.5-6.6-9.7-9.9c-3.2-3.3-6.3-6.6-9.5-9.9c-6.8-7.2-13.6-14.4-20.3-21.6c-2.1-2.2-4.2-4.4-6.3-6.7
				c-1.2-1.4-2.1-3.2-3-4.7c-1.8-2.9-3.8-5.8-6.2-8.3c-2.2-2.2-5-3.6-7.8-1.7c-0.6,0.4,0.3,0.8,0.7,0.5c3.7-2.5,7.6,3,9.5,5.6
				c1.8,2.5,3.3,5.1,4.9,7.6c1.3,2.1,3.3,3.8,5,5.6c6.6,7,13.1,14,19.7,20.9c3.5,3.7,6.9,7.4,10.4,11c5.6,5.8,11.3,11.5,16.9,17.3
				c0.8,0.8,1.4,1.5,2.3,2.1c1.7,1.1,3.4,2.2,5.1,3.3c6.8,4.4,13.6,8.9,20.4,13.3c8,5.2,16,10.5,24,15.7c5.4,3.6,10.9,7.1,16.3,10.7
				c1.6,1.1,3.2,2.2,4.9,3.2c2.8,1.7,5.7,3.2,8.6,4.7c3,1.5,6.1,2.5,9.2,3.8c5.2,2.1,10.4,4,15.5,6c2.2,0.9,4.4,1.9,6.6,2.8
				c1.9,0.8,3.9,1.6,5.7,2.7c1.6,0.9,3.1,2,3.9,3.7c0.8,1.7,0.6,3.6-0.3,5.2C311.5,193.4,312.6,193.4,312.9,193L312.9,193z"/>
		</g>
	</g>
	<g>
		<g>
			<path class="st9" d="M298.1,200.4c1.6-2.8,1.1-6.1-1.3-8.2c-2.1-1.8-4.8-2.9-7.3-3.8c-3.6-1.3-7.3-2.7-10.9-4.1
				c-6.2-2.3-12.2-5-18.4-7.4c-5.2-2-10.1-5.1-14.7-8.2c-3.6-2.4-7.3-4.6-10.9-6.9c-7.6-4.8-15.2-9.5-22.8-14.3
				c-7.7-4.9-15.5-9.7-23.2-14.6c-4.1-2.6-8.2-5-12.2-7.7c-0.3-0.2-0.2-0.1-0.6-0.5c-1-1-2-2-2.9-3c-3.2-3.3-6.5-6.5-9.7-9.8
				c-3.4-3.4-6.7-6.8-9.9-10.3c-6.9-7.5-13.7-15-20.6-22.5c-2.8-3.1-5.6-6.1-8.5-9.2c-1.5-1.6-2.6-3.6-3.9-5.4c-2-2.9-4-5.9-6.6-8.3
				c-2.1-1.9-4.8-3.1-7.3-1.3c-0.6,0.4,0.3,0.8,0.7,0.5c3.4-2.4,7.3,2.9,9.1,5.2c1.9,2.5,3.6,5.1,5.4,7.7c2,2.9,4.8,5.4,7.2,8
				c7,7.6,13.9,15.2,20.9,22.8c3.1,3.4,6.2,6.7,9.4,10c3.2,3.2,6.3,6.4,9.5,9.6c2.2,2.2,4.3,4.6,6.6,6.6c0.6,0.6,1.4,1,2.1,1.4
				c2.2,1.3,4.3,2.7,6.5,4c7.1,4.5,14.2,8.9,21.3,13.4c7.8,4.9,15.7,9.8,23.5,14.8c5,3.1,10,6.2,14.9,9.4c2.1,1.3,4.2,2.8,6.3,4
				c2.6,1.5,5.2,3,8,4.3c3.1,1.4,6.5,2.5,9.7,3.8c3,1.2,6,2.5,9,3.7c2,0.8,4,1.4,6.1,2.2c1.8,0.7,3.6,1.5,5.4,2.2
				c2.2,0.8,4.4,1.7,6.5,2.9c3.1,1.9,4.7,5.2,2.7,8.6C296.8,200.8,297.9,200.8,298.1,200.4L298.1,200.4z"/>
		</g>
	</g>
	<g>
		<g>
			<path class="st9" d="M283.4,207.6c1.6-2.8,1.3-6.1-1.3-8.2c-2.1-1.7-4.8-2.7-7.4-3.6c-1.3-0.4-2.7-1-4.1-1.5
				c-2.2-0.8-4.5-1.4-6.7-2.3c-2.7-1-5.3-2.3-8-3.4c-3.7-1.6-7.4-3-11.2-4.4c-5-1.9-9.6-5.2-14-8.1c-3.3-2.2-6.8-4.1-10.1-6.2
				c-7.4-4.5-14.8-8.9-22.1-13.3c-7.8-4.7-15.6-9.4-23.4-14.1c-4.7-2.8-9.3-5.6-14-8.4c-0.9-0.5-1.5-1.2-2.2-1.9
				c-2.9-2.8-5.7-5.7-8.6-8.5c-3.7-3.7-7.6-7.3-11.1-11.3c-6.8-7.7-13.6-15.4-20.5-23c-3.6-4-7.2-7.9-10.8-11.8
				c-2-2.2-3.6-4.7-5.4-7c-2-2.6-4-5.6-6.9-7.3c-1.8-1.1-3.9-1.2-5.6,0.1c-0.2,0.2,0.8,0.1,1-0.1c2.7-2.1,6.7,2.9,8.1,4.7
				c2.1,2.6,4,5.3,6,7.9c2.9,3.8,6.4,7.1,9.6,10.7c7.3,8,14.5,16.1,21.6,24.2c3.1,3.6,6.4,6.8,9.8,10.2c3.2,3.1,6.3,6.3,9.5,9.4
				c1.2,1.2,2.4,2.7,3.8,3.7c1.1,0.8,2.3,1.4,3.4,2.1c2.5,1.5,5,3,7.5,4.5c7.3,4.4,14.7,8.8,22,13.2c7.6,4.6,15.3,9.2,22.9,13.8
				c4.6,2.7,9.1,5.5,13.7,8.3c2.5,1.6,5,3.3,7.5,4.8c2.3,1.4,4.7,2.8,7.3,3.8c3.6,1.3,7.3,2.7,10.8,4.2c2.7,1.1,5.4,2.4,8.1,3.4
				c2.1,0.8,4.3,1.4,6.4,2.2c3.8,1.4,8,2.5,11.3,4.7c3,2,3.7,5.5,1.9,8.6C282.3,207.9,283.2,207.9,283.4,207.6L283.4,207.6z"/>
		</g>
	</g>
	<g>
		<g>
			<path class="st9" d="M268.6,215.1c1.5-2.6,1.7-5.9-0.6-8.1c-1.9-1.8-4.7-2.8-7.1-3.6c-3.7-1.2-7.5-2.4-11.2-3.6
				c-2.1-0.7-4.1-1.8-6.1-2.6c-3.2-1.4-6.5-2.9-9.8-4.1c-2.7-1-5.3-1.8-7.8-3.2c-2.6-1.5-5.1-3.1-7.6-4.7c-3.5-2.3-7.1-4.4-10.7-6.5
				c-7.2-4.1-14.3-8.3-21.5-12.4c-8-4.6-16-9.2-24-13.8c-5.3-3.1-10.6-6.1-15.9-9.2c-0.8-0.4-1.5-0.8-2-1.3
				c-2.4-2.4-4.8-4.7-7.2-7.1c-3.1-3.1-6.3-6.1-9.4-9.2c-1.1-1.1-2.3-2.2-3.3-3.4c-6.9-8.2-13.9-16.4-21.1-24.4
				c-4.3-4.8-8.8-9.3-12.9-14.3c-1.9-2.3-3.7-4.6-5.6-6.9c-1.5-1.9-3.1-3.8-5.1-5.1c-1.6-1-4-1.6-5.4-0.1c-0.4,0.5,0.6,0.5,0.9,0.2
				c1.8-1.9,5.4,1.5,6.5,2.8c1.8,2,3.5,4.2,5.3,6.4c3.8,4.7,7.9,8.9,11.9,13.4c7.9,8.8,15.6,17.7,23.3,26.8c3.3,4,7.2,7.4,10.9,11.1
				c3,2.9,5.9,5.8,8.9,8.6c0.8,0.8,1.5,1.6,2.4,2.2c4.2,2.4,8.5,4.9,12.7,7.3c7.6,4.4,15.2,8.7,22.7,13.1
				c7.6,4.4,15.1,8.7,22.7,13.1c4.2,2.4,8.4,4.8,12.5,7.3c3.2,1.9,6.2,4.2,9.4,6.1c2.3,1.4,4.6,2.3,7.2,3.2c3.4,1.2,6.6,2.5,9.9,4
				c2.3,1,4.6,2.1,7,3.1c2,0.8,4.1,1.3,6.2,2c3.8,1.2,8,2.2,11.4,4.4c3.1,2,3.7,5.5,1.9,8.6C267.3,215.5,268.4,215.4,268.6,215.1
				L268.6,215.1z"/>
		</g>
	</g>
</g>
<g>
	<g>
		<g>
			<path class="st9" d="M330,184.3c1.5-2.7,1.4-5.7-1-7.8c-2-1.7-4.6-2.8-7-3.7c-3.3-1.3-6.6-3.4-10.2-4.6c-5-1.6-9.8-3.7-14.7-5.6
				c-4.6-1.8-9-3.8-13.4-6.2c-4-2.2-7.7-4.7-11.5-7.2c-6-4.1-12-8.2-18.1-12.3c-7.4-5.1-14.9-10.2-22.3-15.2
				c-5.8-3.9-11.6-7.9-17.3-11.8c-1.3-0.9-2.6-1.8-3.9-2.7c-0.5-0.3-1.1-1-1.6-1.6c-5.6-5.9-11.1-11.7-16.7-17.6
				c-8-8.4-15.9-16.9-23.8-25.4c-1.8-1.9-3.6-3.9-5.3-5.8c-1.3-1.5-3.1-2.9-4.1-4.6c-1.2-1.9-2.1-3.9-3.3-5.8
				c-1.8-2.8-4-5.3-6.6-7.5c-2.1-1.8-4.8-3-7.4-1.4c-0.6,0.4,0.3,0.6,0.7,0.3c2.1-1.3,4.3,0.3,5.9,1.7c1.3,1.2,2.7,2.5,3.8,3.8
				c1.9,2.3,3.4,4.8,4.9,7.4c0.3,0.6,0.6,1.3,1,1.9c0.4,0.7,1.1,1.3,1.6,1.8c1.6,1.8,3.3,3.6,4.9,5.3c7.7,8.3,15.4,16.6,23.2,24.8
				c6.2,6.6,12.4,13.1,18.6,19.6c1,1.1,2,2.3,3.1,3.2c0.7,0.6,1.5,1,2.2,1.5c4.9,3.4,9.9,6.7,14.8,10.1c7.2,4.9,14.4,9.8,21.6,14.7
				c6.6,4.5,13.1,8.9,19.6,13.4c2.9,2,6.2,4.2,8.9,6.1c4,2.8,8.4,4.9,12.8,7c4.6,2.2,9.5,3.9,14.3,5.8c4.3,1.7,8.7,3.1,12.8,5.1
				c1.2,0.6,2.4,1.4,3.6,1.8c2.3,0.8,4.6,1.7,6.6,3c1.4,0.9,2.6,2,3.1,3.6c0.5,1.6,0,3.3-0.8,4.8C328.7,184.7,329.8,184.6,330,184.3
				L330,184.3z"/>
		</g>
	</g>
	<g>
		<g>
			<path class="st9" d="M315.5,191.7c1.5-2.7,1.5-5.8-1-8c-1.9-1.7-4.5-2.7-6.9-3.6c-3.3-1.2-6.7-3.2-10.3-4.3
				c-5-1.6-9.9-3.9-14.8-5.8c-2.1-0.8-4.3-1.6-6.4-2.6c-2.5-1.2-5-2.5-7.4-3.9c-3.9-2.2-7.5-4.7-11.2-7.1c-6.1-4-12.2-8-18.3-12
				c-7.5-4.9-15-9.8-22.5-14.7c-5.9-3.8-11.7-7.7-17.6-11.5c-1.3-0.9-2.7-1.8-4-2.6c-0.5-0.3-1-0.9-1.6-1.6
				c-5.5-5.8-10.9-11.6-16.4-17.5c-8-8.5-16-17.1-24-25.6c-3.4-3.6-7-7.2-10.2-11c-1.6-2-2.9-4.3-4.3-6.4c-1.8-2.7-3.7-5-6.3-7
				c-2.1-1.6-4.2-2.5-6.6-1c-0.6,0.4,0.3,0.5,0.7,0.3c1.9-1.2,3.8,0.2,5.3,1.4c1.3,1,2.4,2.1,3.5,3.3c1.8,2.2,3.3,4.7,4.9,7.1
				c2.5,3.8,5.9,7,9,10.4c7.8,8.4,15.7,16.8,23.6,25.2c6.1,6.5,12.2,13,18.3,19.5c1,1,1.9,2.2,2.9,3.1c0.7,0.6,1.6,1,2.3,1.5
				c5,3.3,10,6.5,15,9.8c7.3,4.8,14.5,9.5,21.8,14.3c6.6,4.3,13.2,8.7,19.9,13c3,2,6.3,4.1,9.2,6.1c3.7,2.6,8.1,4.9,12.3,7
				c4.8,2.4,10,4.1,14.9,6.1c4.2,1.7,8.6,3.1,12.7,5c1.2,0.6,2.4,1.2,3.7,1.7c2.3,0.8,4.7,1.7,6.8,3c3.1,2,4,5.2,2.1,8.4
				C314.2,192.1,315.3,192,315.5,191.7L315.5,191.7z"/>
		</g>
	</g>
	<g>
		<g>
			<path class="st9" d="M301,199c1.5-2.6,1.5-5.7-0.8-7.9c-1.9-1.7-4.6-2.7-7-3.6c-3.4-1.2-6.9-2.9-10.6-4.1
				c-1.9-0.6-3.7-1.4-5.5-2.2c-3-1.2-6-2.5-9-3.7c-2.3-0.9-4.7-1.7-7-2.7c-2.5-1.2-4.9-2.5-7.2-3.9c-3.8-2.2-7.4-4.7-11.1-7
				c-6.2-3.9-12.4-7.8-18.6-11.7c-7.6-4.8-15.1-9.5-22.7-14.3c-5.9-3.7-11.8-7.4-17.8-11.2c-1.4-0.9-2.7-1.7-4.1-2.6
				c-0.6-0.4-1-0.9-1.5-1.5c-5.4-5.8-10.8-11.6-16.2-17.4c-8-8.6-16.1-17.3-24.2-25.9c-3.6-3.8-7.2-7.6-10.8-11.5
				c-2.1-2.3-3.9-5-5.7-7.6c-1.7-2.4-3.4-4.6-5.9-6.2c-0.9-0.6-2-1.3-3-1.3c-0.9,0-2,0.4-2.7,0.9c-0.4,0.3,0.6,0.1,0.8,0
				c0.8-0.5,1.5-0.6,2.4-0.2c0.8,0.3,1.5,0.8,2.2,1.3c1.2,0.9,2.2,1.9,3.2,3.1c1.9,2.4,3.6,4.9,5.4,7.4c3,4,6.8,7.6,10.2,11.3
				c8,8.5,15.9,17,23.9,25.5c6,6.4,11.9,12.8,17.9,19.2c0.8,0.9,1.7,2,2.6,2.8c0.8,0.6,1.7,1.1,2.6,1.6c5.2,3.3,10.4,6.5,15.5,9.8
				c7.4,4.6,14.8,9.3,22.1,13.9c6.6,4.2,13.3,8.3,19.9,12.5c3,1.9,6.1,3.7,9.1,5.8c4,2.7,8.3,5.2,12.7,7.3c2.1,1,4.4,1.8,6.6,2.6
				c3,1.2,6,2.4,9,3.7c4.1,1.7,8.3,3.1,12.4,4.8c3.5,1.4,7.3,2.4,10.4,4.6c2.8,2,3.1,5.3,1.4,8.2C299.8,199.3,300.8,199.2,301,199
				L301,199z"/>
		</g>
	</g>
	<g>
		<g>
			<path class="st9" d="M286.4,206.5c1.4-2.5,1.6-5.7-0.5-7.9c-1.8-1.8-4.5-2.8-6.8-3.7c-3.6-1.3-7.1-2.7-10.7-3.8
				c-4.8-1.5-9.3-3.9-14-5.8c-2.6-1-5.4-1.8-7.9-3c-2.5-1.2-4.9-2.6-7.2-4c-3.8-2.3-7.5-4.8-11.2-7.1c-6.2-3.8-12.4-7.5-18.6-11.3
				c-7.6-4.6-15.3-9.2-22.9-13.9c-6-3.6-12-7.2-18-10.9c-1.5-0.9-2.9-1.8-4.4-2.6c-0.6-0.4-0.8-0.6-1.4-1.3
				c-5.2-5.7-10.5-11.4-15.7-17c-8.1-8.8-16.3-17.6-24.5-26.3c-3.7-3.9-7.4-7.9-11.2-11.8c-2.5-2.6-4.7-5.5-7-8.4
				c-1.6-2.1-3.1-4.5-5.4-5.8c-0.9-0.5-2.1-1.1-3.1-1.2c-0.8,0-1.6,0.5-2.3,0.9c-0.6,0.4,0.3,0.7,0.7,0.5c0.4-0.2,0.9-0.6,1.3-0.6
				c0.6,0,1.6,0.5,2.1,0.8c1.2,0.6,2.1,1.5,2.9,2.5c2.1,2.5,3.9,5.1,6,7.6c3.6,4.5,7.8,8.5,11.7,12.7c8.1,8.6,16.1,17.2,24.1,25.8
				c5.9,6.4,11.9,12.8,17.8,19.3c0.8,0.9,1.6,1.9,2.5,2.7c0.8,0.6,1.8,1.1,2.6,1.6c5.2,3.1,10.4,6.3,15.6,9.4
				c7.4,4.5,14.8,8.9,22.2,13.4c6.7,4.1,13.4,8.1,20.2,12.2c3.2,2,6.6,3.8,9.7,5.9c3.8,2.6,7.7,5,11.8,7.1c2.2,1.1,4.5,1.8,6.8,2.7
				c3.1,1.2,6.1,2.4,9.1,3.7c2,0.9,4,1.8,6.1,2.6c2.2,0.8,4.3,1.4,6.5,2.2c3.5,1.3,7.4,2.3,10.5,4.3c3,2,3.5,5.3,1.8,8.4
				C285.1,206.9,286.2,206.9,286.4,206.5L286.4,206.5z"/>
		</g>
	</g>
	<g>
		<g>
			<path class="st9" d="M271.9,213.8c1.4-2.4,1.7-5.5-0.2-7.7c-1.7-2-4.6-3-7.1-3.9c-3.5-1.2-7-2.3-10.6-3.4
				c-1.8-0.6-3.5-1.4-5.3-2.1c-2.9-1.3-5.9-2.6-8.8-3.8c-2.7-1.1-5.6-1.8-8.3-3.1c-2.5-1.2-5-2.7-7.3-4.2c-2-1.3-4-2.8-6-4
				c-1.7-1-3.4-2-5.1-3c-6.3-3.7-12.7-7.4-19.1-11.1c-7.7-4.5-15.5-9-23.2-13.4c-6.1-3.5-12.2-7-18.2-10.6c-1.4-0.8-2.9-1.7-4.3-2.5
				c-0.6-0.4-0.9-0.7-1.5-1.4c-5.3-5.9-10.7-11.7-16.1-17.6c-8.3-9-16.6-18-25-26.8c-4-4.2-8.1-8.3-12-12.5
				c-2.5-2.7-4.9-5.6-7.2-8.5c-1.3-1.6-2.7-3.9-4.7-4.8c-0.8-0.4-1.9-0.7-2.8-0.5c-0.6,0.1-1.2,0.6-1.7,1c-0.6,0.4,0.3,0.6,0.7,0.3
				c0.3-0.2,0.6-0.4,0.9-0.6c0.1-0.1,0.5-0.3,0.2-0.2c-0.4,0.1,0.4,0.1,0.5,0.1c1.3,0.2,2.3,1,3.2,1.9c1.9,2.1,3.6,4.4,5.4,6.6
				c4.1,4.9,8.5,9.3,12.9,13.9c8.3,8.7,16.5,17.5,24.6,26.4c6.1,6.6,12.2,13.3,18.3,20c0.9,1,1.8,2.2,2.8,3.1c0.7,0.6,1.6,1,2.4,1.4
				c5.2,3,10.4,6,15.6,9c7.5,4.3,15,8.7,22.5,13c6.9,4,13.8,8,20.6,12c3.4,2,6.9,3.8,10.2,6c3.8,2.4,7.4,5.1,11.4,7.2
				c2.4,1.2,5,1.9,7.5,2.9c3.1,1.2,6.2,2.5,9.2,3.9c1.8,0.8,3.7,1.8,5.6,2.4c2.2,0.8,4.4,1.4,6.7,2.1c3.6,1.2,7.5,2.1,10.7,4.2
				c2.9,2,3.2,5.5,1.5,8.4C270.6,214.2,271.7,214.2,271.9,213.8L271.9,213.8z"/>
		</g>
	</g>
</g>
<g>
	<g>
		<g>
			<path class="st10" d="M118.9,140c5.3-0.5,10.6-1,16-1.4c8.4-0.8,16.9-1.5,25.3-2.3c1.9-0.2,3.9-0.3,5.8-0.5
				c-0.1,0-0.3-0.1-0.4-0.1c3.4,3.2,6.9,6.3,10.3,9.5c7.8,7.2,15.6,14.4,23.5,21.6c8.4,7.8,16.8,15.5,25.3,23.3
				c5.3,4.9,10.7,9.8,16,14.8c0.4,0.4,0.8,0.8,1.2,1.1c0.8,0.6,2.1,0.7,3.1,0.9c2.2,0.5,4.3,1.1,6.5,1.6c1.9,0.4,3.7,0.7,5.4,1.8
				c1.9,1.3,3.6,3.7,3.7,6c0,1.1-0.3,2.2-1.1,3c-0.5,0.4,0.6,0.6,0.9,0.3c3.6-3.2-0.3-8.9-3.7-10.5c-1.7-0.8-3.5-1-5.2-1.5
				c-1.8-0.5-3.7-0.9-5.5-1.4c-0.8-0.2-1.6-0.4-2.4-0.6c-0.2,0-0.9-0.3-0.5-0.1c-0.2-0.1-0.3-0.3-0.5-0.4c-1-0.9-2-1.8-2.9-2.7
				c-4-3.7-8.1-7.4-12.1-11.2c-5.7-5.2-11.4-10.5-17.1-15.7c-6.1-5.6-12.2-11.3-18.3-16.9c-5.2-4.8-10.4-9.6-15.6-14.4
				c-3-2.8-6-5.5-9-8.3c-0.4-0.4-0.8-0.9-1.4-1c-1.6-0.1-3.3,0.3-4.9,0.4c-7.5,0.7-15.1,1.3-22.6,2c-6.2,0.6-12.3,1.1-18.5,1.7
				c-0.3,0-0.7,0.1-1,0.1C118.4,139.3,118.1,140,118.9,140L118.9,140z"/>
		</g>
	</g>
	<g>
		<g>
			<path class="st10" d="M138.6,132.4c11.7-0.6,23.4-1.2,35.2-1.7c2.5-0.1,5.1-0.2,7.6-0.3c0.5,0,1.1-0.1,1.6,0c0.1,0-0.3-0.2-0.1,0
				c0.1,0.1,0.2,0.2,0.3,0.3c2.5,2.3,5,4.6,7.5,6.9c10.4,9.6,20.8,19.2,31.1,28.8c9.8,9,19.5,18.1,29.3,27.1
				c1.2,1.2,2.5,2.3,3.7,3.5c0.4,0.4,0.9,1,1.4,1.3c0.7,0.4,1.8,0.6,2.6,0.8c1.7,0.5,3.5,1.1,5.2,1.6c1.2,0.4,2.3,0.6,3.5,0.9
				c3,0.8,5.6,2.6,6.8,5.5c0.6,1.5,0.7,3.7-0.7,4.9c-0.5,0.4,0.6,0.4,0.8,0.2c3.6-3-0.3-8.4-3.4-10c-1.6-0.9-3.4-1.1-5-1.6
				c-1.6-0.5-3.2-1-4.8-1.5c-1.3-0.4-2.9-0.7-4.1-1.3c-0.1,0-0.1,0-0.3-0.2c-0.8-0.7-1.6-1.5-2.4-2.3c-9-8.4-18.1-16.7-27.1-25.1
				c-10.9-10.1-21.9-20.2-32.8-30.3c-3.2-2.9-6.4-5.9-9.5-8.8c-0.5-0.4-1-1.2-1.7-1.3c-0.4-0.1-1,0-1.4,0c-1,0-2.1,0.1-3.1,0.1
				c-13,0.5-26,1.2-39,1.9c-0.3,0-0.6,0-0.9,0C138.6,131.8,137.9,132.4,138.6,132.4L138.6,132.4z"/>
		</g>
	</g>
	<g>
		<g>
			<path class="st10" d="M158.5,124.9c11.1-0.1,22.3-0.1,33.4-0.1c2.4,0,4.7,0,7.1,0.1c0.4,0,1,0,1.2,0.1c-0.2-0.1,0.1,0.1,0.1,0.2
				c0.1,0.1,0.3,0.3,0.4,0.4c2.7,2.5,5.5,5.1,8.2,7.6c10.2,9.5,20.4,19,30.6,28.4c9,8.4,18.1,16.8,27.1,25.2c1,1,2.1,1.9,3.1,2.9
				c0.4,0.4,0.7,0.7,1.3,0.9c2.9,1.1,5.8,2.1,8.7,3.2c1.2,0.4,2.4,0.6,3.6,1.1c2.5,1,4.7,2.9,5.6,5.5c0.5,1.4,0.4,3.4-0.9,4.4
				c-0.5,0.4,0.6,0.4,0.8,0.2c3.5-2.7,0-7.7-2.6-9.4c-1.6-1.1-3.4-1.5-5.2-2c-0.8-0.2-2.2-0.8-3.2-1.2c-1.6-0.6-3.2-1.2-4.8-1.8
				c-0.4-0.2-1.4-0.5-1.6-0.6c-0.6-0.4-1.2-1.1-1.7-1.6c-8.3-7.7-16.5-15.4-24.8-23c-10.7-9.9-21.4-19.9-32.1-29.8
				c-3.3-3.1-6.7-6.2-10-9.3c-0.6-0.5-1.3-1.5-2.1-1.8c-0.4-0.1-0.9-0.1-1.3-0.1c-0.9,0-1.8-0.1-2.7-0.1c-12.3-0.2-24.7-0.1-37,0
				c-0.3,0-0.6,0-0.9,0C158.5,124.3,157.8,124.9,158.5,124.9L158.5,124.9z"/>
		</g>
	</g>
	<g>
		<g>
			<path class="st10" d="M178.3,117.5c10.5,0.5,21.1,0.9,31.6,1.6c2.2,0.1,4.3,0.3,6.5,0.5c1.1,0.1,1.1,0.3,2,1.1
				c3,2.7,5.9,5.5,8.8,8.2c10,9.3,19.9,18.6,29.9,27.9c8.3,7.8,16.6,15.5,24.9,23.3c0.8,0.8,1.6,1.5,2.5,2.3
				c0.6,0.6,1.4,0.8,2.2,1.1c2.7,1.1,5.3,2.4,8,3.4c1.1,0.4,2.2,0.6,3.2,1.1c2.4,1.1,4.6,2.9,5.4,5.4c0.5,1.3,0.5,3.2-0.8,4.1
				c-0.6,0.4,0.3,0.8,0.7,0.5c3.1-2.2,0.7-6.7-1.5-8.6c-2.2-2-5-2.5-7.6-3.6c-2.7-1.2-5.5-2.3-8.2-3.5c-0.4-0.2-0.1,0-0.4-0.2
				c-0.3-0.2-0.5-0.5-0.8-0.7c-7.4-6.9-14.7-13.7-22.1-20.6c-10.4-9.7-20.9-19.5-31.3-29.2c-3.5-3.3-7.1-6.6-10.6-9.9
				c-0.8-0.8-1.7-1.9-2.7-2.5c-0.9-0.6-2.6-0.4-3.6-0.5c-11.6-0.9-23.3-1.4-35-1.9c-0.3,0-0.6,0-0.9,0
				C178.2,116.8,177.7,117.5,178.3,117.5L178.3,117.5z"/>
		</g>
	</g>
	<g>
		<g>
			<path class="st10" d="M198.1,109.9c10,1,20,2.1,29.9,3.4c2,0.3,3.9,0.5,5.9,0.9c1,0.2,1.5,1,2.3,1.7c3.2,3,6.5,6,9.7,9
				c9.8,9.2,19.7,18.4,29.5,27.6c7.5,7,14.9,14,22.3,21c0.5,0.5,1,1.1,1.6,1.5c1.3,0.9,3.1,1.5,4.5,2.2c1.9,0.9,3.9,2.1,6,2.8
				c3.5,1.2,7.7,3.3,8.5,7.3c0.2,1.2-0.1,2.6-1.1,3.3c-0.4,0.3,0.5,0.2,0.8,0.1c3-2,0.6-6.3-1.3-8c-1.4-1.2-3-2.1-4.7-2.7
				c-0.7-0.3-1.3-0.4-2-0.7c-2.6-1.2-5.1-2.4-7.7-3.7c-0.9-0.4-1.6-0.7-2.2-1.2c-6.5-6.1-13-12.2-19.5-18.3
				c-10.1-9.5-20.2-19-30.3-28.4c-3.7-3.5-7.4-7-11.2-10.4c-1-1-2.1-2.1-3.2-3c-0.8-0.6-2.2-0.6-3.2-0.8
				c-10.9-1.7-21.9-2.7-32.8-3.8c-0.3,0-0.6-0.1-0.9-0.1C198.4,109.4,197.5,109.9,198.1,109.9L198.1,109.9z"/>
		</g>
	</g>
	<g>
		<g>
			<path class="st10" d="M217.8,102.4c9.4,1.6,18.8,3.2,28.2,5.2c1.7,0.4,3.5,0.7,5.2,1.2c1.1,0.4,1.9,1.5,2.8,2.3
				c3.5,3.2,6.9,6.5,10.4,9.7c9.6,9,19.2,18.1,28.8,27.1c6.6,6.2,13.1,12.4,19.7,18.6c0.3,0.3,0.6,0.6,1,0.8
				c2.2,1.3,4.6,2.4,6.9,3.6c1.3,0.7,2.6,1.4,4.1,2c3.3,1.2,7.6,3.8,7.8,7.7c0.1,1-0.3,2.1-1.2,2.7c-0.4,0.2,0.6,0.1,0.7,0
				c2.6-1.5,1.2-5.1-0.3-6.8c-1.9-2.2-4.6-3.2-7-4.3c-2-0.9-4-2.1-5.9-3.1c-1.4-0.8-3.1-1.4-4.4-2.4c-0.5-0.4-1-1-1.5-1.4
				c-1.2-1.1-2.3-2.2-3.5-3.3c-3.8-3.6-7.5-7.1-11.3-10.7c-9.8-9.2-19.5-18.4-29.3-27.6c-3.9-3.7-7.9-7.4-11.8-11.1
				c-1.3-1.2-2.6-2.4-3.8-3.6c-0.9-0.8-1.9-1-3-1.2c-10.1-2.4-20.4-4-30.7-5.8c-0.3,0-0.6-0.1-0.8-0.1
				C218.4,102,217.6,102.3,217.8,102.4L217.8,102.4z"/>
		</g>
	</g>
</g>
<path class="st2" d="M297.5,138.3l-95.6,46.4c-0.2,0.1-0.5,0.2-0.7,0.2c-0.6,0-1.2-0.3-1.5-0.9c-0.4-0.8-0.1-1.8,0.8-2.2l95.5-46.3"
	/>
<g>
	<path class="st19" d="M214,215.4c-0.1-0.1,0.4-1.9-1.4-1"/>
	<path class="st20" d="M213.8,215.5c-0.1-0.1,0.4-1.9-1.4-1"/>
	<path class="st21" d="M213.5,215.7c-0.1-0.2,0.4-1.8-1.4-1"/>
	<path class="st22" d="M213.2,215.8c-0.1-0.2,0.3-1.8-1.5-1"/>
	<path class="st23" d="M213,216c-0.1-0.2,0.3-1.8-1.5-1"/>
	<path class="st24" d="M212.7,216.1c-0.1-0.2,0.2-1.8-1.5-1"/>
	<path class="st25" d="M212.4,216.2c-0.1-0.2,0.2-1.8-1.5-0.9"/>
	<path class="st26" d="M212.2,216.4c-0.1-0.2,0.1-1.8-1.6-0.9"/>
	<path class="st27" d="M211.9,216.5c-0.1-0.2,0.1-1.8-1.6-0.9"/>
	<path class="st28" d="M211.6,216.7c-0.1-0.3,0-1.7-1.6-0.9"/>
	<path class="st29" d="M211.3,216.8c-0.1-0.3,0-1.7-1.6-0.9"/>
	<path class="st30" d="M211.1,217c-0.1-0.3-0.1-1.7-1.7-0.9"/>
	<path class="st31" d="M210.8,217.1c-0.1-0.3-0.1-1.7-1.7-0.9"/>
	<path class="st32" d="M210.5,217.3c-0.1-0.3-0.2-1.7-1.7-0.9"/>
	<path class="st33" d="M210.3,217.4c-0.1-0.3-0.2-1.7-1.7-0.9"/>
	<path class="st34" d="M210,217.6c-0.1-0.3-0.3-1.7-1.8-0.9"/>
	<path class="st35" d="M209.7,217.7c-0.1-0.4-0.3-1.7-1.8-0.8"/>
	<path class="st36" d="M209.5,217.9c-0.1-0.4-0.4-1.6-1.8-0.8"/>
	<path class="st37" d="M209.2,218c-0.1-0.4-0.4-1.6-1.8-0.8"/>
	<path class="st38" d="M208.9,218.1c-0.1-0.4-0.5-1.6-1.9-0.8"/>
	<path class="st39" d="M208.7,218.3c0-0.4-0.5-1.6-1.9-0.8"/>
	<path class="st40" d="M208.4,218.4c0-0.4-0.6-1.6-1.9-0.8"/>
	<path class="st41" d="M208.1,218.6c0-0.4-0.6-1.6-1.9-0.8"/>
	<path class="st42" d="M207.9,218.7c0-0.5-0.7-1.6-2-0.8"/>
	<path class="st43" d="M207.6,218.9c0-0.5-0.7-1.5-2-0.8"/>
	<path class="st44" d="M207.3,219c0-0.5-0.7-1.5-2-0.7"/>
	<path class="st45" d="M207.1,219.2c0-0.5-0.8-1.5-2-0.7"/>
	<path class="st46" d="M206.8,219.3c0-0.5-0.8-1.5-2.1-0.7"/>
	<path class="st47" d="M206.5,219.5c0-0.5-0.9-1.5-2.1-0.7"/>
	<path class="st48" d="M206.3,219.6c0-0.6-0.9-1.5-2.1-0.7"/>
	<path class="st49" d="M206,219.8c0-0.6-1-1.5-2.1-0.7"/>
	<path class="st50" d="M205.7,219.9c0-0.6-1-1.5-2.2-0.7"/>
	<path class="st51" d="M205.4,220.1c0-0.6-1.1-1.4-2.2-0.7"/>
	<path class="st52" d="M205.2,220.2c0-0.6-1.1-1.4-2.2-0.7"/>
	<path class="st53" d="M204.9,220.3c0-0.6-1.2-1.4-2.2-0.6"/>
	<path class="st54" d="M204.6,220.5c0-0.6-1.2-1.4-2.3-0.6"/>
	<path class="st55" d="M204.4,220.6c0-0.7-1.3-1.4-2.3-0.6"/>
	<path class="st56" d="M204.1,220.8c0-0.7-1.3-1.4-2.3-0.6"/>
	<path class="st57" d="M203.8,220.9c0-0.7-1.4-1.4-2.3-0.6"/>
	<path class="st58" d="M203.6,221.1c0-0.7-1.4-1.3-2.4-0.6"/>
	<path class="st59" d="M203.3,221.2c0-0.7-1.5-1.3-2.4-0.6"/>
	<path class="st60" d="M203,221.4c0-0.7-1.5-1.3-2.4-0.6"/>
	<path class="st61" d="M202.8,221.5c0-0.7-1.6-1.3-2.4-0.6"/>
	<path class="st62" d="M202.5,221.7c0-0.8-1.6-1.3-2.5-0.5"/>
	<path class="st63" d="M202.2,221.8c0-0.8-1.7-1.3-2.5-0.5"/>
	<path class="st64" d="M202,222c0-0.8-1.7-1.3-2.5-0.5"/>
	<path class="st65" d="M201.7,222.1c0.1-0.8-1.7-1.3-2.5-0.5"/>
	<path class="st66" d="M201.4,222.3c0.1-0.8-1.8-1.2-2.6-0.5"/>
	<path class="st67" d="M201.2,222.4c0.1-0.8-1.8-1.2-2.6-0.5"/>
	<path class="st68" d="M200.9,222.5c0.1-0.9-1.9-1.2-2.6-0.5"/>
</g>
<path class="st7" d="M239.1,217.1l-0.8,11.1c0,0,4.4,3.9,5.6-3.6C245,217.1,239.1,217.1,239.1,217.1z"/>
<path class="st69" d="M203.1,182.1"/>
<path class="st70" d="M201.8,110.1"/>
<g>
	<g>
		<g>
			<path class="st10" d="M63.7,77.5c1.9-1.8,4.7-1.6,6.7-0.1c1.4,1,2.3,2.6,3.2,4c3.3,4.7,6.7,9.2,10.1,13.8
				c6.5,8.7,12.9,17.4,19.4,26.1c2.7,3.6,5.4,7.2,8.3,10.6c0.2,0.2,1.2-0.2,1-0.4c-6.6-7.7-12.5-16.1-18.6-24.3
				c-3.4-4.6-6.8-9.2-10.3-13.8c-3.6-4.8-7-9.7-10.6-14.6c-1.3-1.8-3.1-3.2-5.5-3.1c-1.7,0-3.7,0.7-4.9,1.9
				C62.4,77.8,63.5,77.7,63.7,77.5L63.7,77.5z"/>
		</g>
	</g>
	<g>
		<g>
			<path class="st10" d="M79.6,69.4c2.3-2.2,5.8-1.2,7.8,0.9c1.7,1.8,3.1,4.1,4.5,6.2c2.7,4,5.5,7.9,8.5,11.7
				c6,7.9,12,15.7,18.1,23.6c1.4,1.9,2.9,3.7,4.3,5.6c0.7,1,1.6,1.9,2,3c0.4,1,0.7,1.8,1.5,2.7c0.2,0.3,1.2-0.1,1-0.4
				c-0.8-0.8-1.1-1.6-1.5-2.7c-0.4-1.1-1.2-1.9-1.9-2.8c-1.4-1.8-2.7-3.5-4.1-5.3c-3.3-4.3-6.6-8.6-9.9-12.8
				c-3.1-4.1-6.3-8.2-9.4-12.3c-3.2-4.2-6.2-8.6-9.3-12.9c-1.6-2.3-3.3-5-6.1-5.9c-2.1-0.6-4.8-0.1-6.4,1.4
				C78.3,69.7,79.4,69.6,79.6,69.4L79.6,69.4z"/>
		</g>
	</g>
	<g>
		<g>
			<path class="st10" d="M95.6,61.2c2.5-2.4,6.3-0.6,8.2,1.6c2.2,2.5,4,5.3,5.8,8c2.3,3.6,4.8,6.9,7.4,10.2
				c6.4,8.2,12.9,16.3,19.3,24.4c1.4,1.7,2.8,3.5,4.2,5.2c0.3,0.3,0.9,0.9,0.8,1.4c0,0.4-0.3,0.4-0.5,0.6c-0.6,0.6-0.1,1.1,0.5,1.6
				c0.3,0.2,1.2-0.1,1-0.4c-0.3-0.3-0.8-0.6-0.6-1.1c0.1-0.2,0.5-0.3,0.6-0.5c0.4-0.6-0.1-1.2-0.5-1.7c-1.2-1.6-2.5-3.2-3.8-4.8
				c-3.4-4.4-6.9-8.7-10.4-13.1c-3.3-4.2-6.6-8.4-9.9-12.6c-1.2-1.5-2.3-2.9-3.4-4.4c-1.8-2.3-3.3-4.9-4.9-7.3
				c-1.9-2.8-4-6.4-7.1-8.1c-2.2-1.2-5.5-1-7.3,0.8C94.4,61.5,95.4,61.4,95.6,61.2L95.6,61.2z"/>
		</g>
	</g>
	<g>
		<g>
			<path class="st10" d="M111.6,53.2c1.2-1.1,3.3-1.3,4.8-0.8c1.9,0.6,3.4,2.1,4.6,3.6c2.5,3,4.5,6.3,6.5,9.6
				c1.9,3.1,4.3,5.9,6.6,8.7c7,8.7,14.1,17.3,21.1,26c0.7,0.8,1.4,1.7,2,2.5c0.3,0.3,0.5,0.7,0.8,1c0.2,0.3,0.1,0.3,0.4,0.2
				c-0.1,0.1-0.4,0-0.5,0c-0.6-0.1-1.6-0.3-2.1,0c-0.8,0.5,0,1.1,0.4,1.5c0.3,0.3,1.2-0.2,0.8-0.6c-0.1-0.1-0.4-0.5-0.5-0.5
				c0,0-0.2,0.2-0.2,0.3c0,0,0.2,0,0.2,0c0.3,0.1,0.9,0.1,1.2,0.1c0.5,0,1.3,0.1,1.6-0.5c0.2-0.6-0.6-1.3-0.9-1.7
				c-0.6-0.8-1.2-1.5-1.8-2.3c-3.5-4.4-7.1-8.7-10.6-13.1c-3.7-4.5-7.4-9.1-11.1-13.6c-2.5-3.1-4.9-6-7-9.4
				c-2.2-3.6-4.5-7.7-7.7-10.6c-2.4-2.1-6.5-3.4-9.2-0.9C110.4,53.2,111.2,53.5,111.6,53.2L111.6,53.2z"/>
		</g>
	</g>
	<g>
		<g>
			<path class="st10" d="M127.6,44.8c2-1.8,5-0.7,6.9,0.7c1.8,1.4,3.3,3.3,4.7,5.1c1.4,1.9,2.6,3.9,3.8,5.9c0.6,1,1.2,2.2,1.9,3.2
				c2,2.8,4.3,5.3,6.5,7.9c7.5,9,15,17.9,22.4,27c0.3,0.4,0.6,0.7,0.9,1.1c0.1,0.2,0.5,0.8,0.7,0.9c0,0,0.5,0,0.4-0.1
				c0,0-0.3,0-0.3,0c-0.2-0.1-0.5-0.1-0.7-0.2c-0.5-0.1-1-0.3-1.5-0.4c-0.7-0.2-1.6-0.6-2.3-0.4c-0.9,0.2-0.4,0.7,0.1,1.2
				c0.2,0.2,1.1-0.2,0.9-0.4c-0.1-0.1-0.3-0.4-0.5-0.4c0,0-0.1-0.2-0.1-0.2c-0.2,0-0.5,0.2-0.4,0.3c0.1,0.1,1.1,0.3,1.2,0.3
				c0.9,0.3,1.8,0.6,2.7,0.8c0.4,0.1,1.4,0.1,1.5-0.4c0.1-0.4-0.8-1.3-1.1-1.6c-3.4-4.2-6.9-8.4-10.4-12.6
				c-4.2-5.1-8.4-10.2-12.7-15.2c-1.5-1.8-3-3.6-4.5-5.4c-0.8-0.9-1.6-1.9-2.2-2.9c-2.4-4.1-4.7-8.2-7.9-11.7
				c-1.5-1.7-3.5-3.3-5.8-3.6c-1.6-0.2-3.6,0.1-4.8,1.2C126.5,45.1,127.4,45,127.6,44.8L127.6,44.8z"/>
		</g>
	</g>
	<g>
		<g>
			<path class="st10" d="M143.6,36.8c1.3-1.2,3.6-1,5.2-0.3c2.5,1.1,4.5,3.4,6.1,5.6c1.5,2,2.9,4.2,4.1,6.4c0.6,1.1,1.1,2.4,1.8,3.4
				c0.5,0.8,1.2,1.4,1.8,2.1c1.6,1.8,3.1,3.7,4.7,5.5c8.1,9.5,16.2,19,24.2,28.7c0.2,0.2,0.5,0.8,0.8,0.9c0.2,0.1,0.6,0.1,0.4-0.2
				c0-0.1-0.5-0.1-0.6-0.2c-1.2-0.4-2.4-0.9-3.6-1.4c-0.7-0.3-1.8-0.9-2.6-0.8c-1.1,0.2-0.3,1,0.2,1.3c0.3,0.3,1.2-0.2,0.7-0.6
				c-0.1-0.1-0.4-0.4-0.5-0.4c-0.2,0-0.5,0.2-0.4,0.4c0.1,0.1,1.1,0.4,1.3,0.4c1.1,0.4,2.3,0.9,3.4,1.3c0.6,0.2,1.7,0.8,2.4,0.6
				c0.8-0.3,0.4-0.8,0-1.2c-3.5-4.3-7.1-8.4-10.6-12.6c-4.6-5.5-9.3-10.9-13.9-16.4c-1.6-1.9-3.3-3.8-4.9-5.8
				c-0.6-0.7-1.3-1.4-1.8-2.1c-1-1.6-1.8-3.3-2.7-4.9c-1.6-2.7-3.4-5.3-5.6-7.6c-1.5-1.6-3.4-3.1-5.6-3.6c-1.5-0.3-3.6-0.1-4.8,1
				C142.5,36.8,143.2,37.1,143.6,36.8L143.6,36.8z"/>
		</g>
	</g>
</g>
<g>
	<line class="st71" x1="121.3" y1="105.9" x2="121.3" y2="163.9"/>
	<line class="st71" x1="129.9" y1="101.6" x2="129.9" y2="159.8"/>
	<line class="st71" x1="138.6" y1="97.2" x2="138.6" y2="155.7"/>
	<line class="st71" x1="147.3" y1="92.9" x2="147.3" y2="151.6"/>
	<line class="st71" x1="155.9" y1="88.5" x2="155.9" y2="147.4"/>
	<line class="st71" x1="164.6" y1="84.2" x2="164.6" y2="143.3"/>
	<line class="st71" x1="173.2" y1="79.9" x2="173.2" y2="139.2"/>
	<line class="st71" x1="181.9" y1="75.5" x2="181.9" y2="135"/>
	<line class="st71" x1="190.6" y1="71.2" x2="190.6" y2="130.9"/>
	<line class="st71" x1="199.2" y1="66.8" x2="199.2" y2="126.8"/>
	<line class="st71" x1="207.9" y1="62.5" x2="207.9" y2="122.7"/>
</g>
<g>
	<line class="st72" x1="133.2" y1="115.7" x2="133.2" y2="164.4"/>
	<line class="st72" x1="140.4" y1="111.8" x2="140.4" y2="160.7"/>
	<line class="st72" x1="147.5" y1="107.9" x2="147.5" y2="157"/>
	<line class="st72" x1="154.7" y1="103.9" x2="154.7" y2="153.2"/>
	<line class="st72" x1="161.9" y1="100" x2="161.9" y2="149.5"/>
	<line class="st72" x1="169.1" y1="96.1" x2="169.1" y2="145.8"/>
	<line class="st72" x1="176.3" y1="92.1" x2="176.3" y2="142.1"/>
	<line class="st72" x1="183.4" y1="88.2" x2="183.4" y2="138.4"/>
	<line class="st72" x1="190.6" y1="84.3" x2="190.6" y2="134.7"/>
	<line class="st72" x1="197.8" y1="80.4" x2="197.8" y2="131"/>
	<line class="st72" x1="205" y1="76.4" x2="205" y2="127.2"/>
	<line class="st72" x1="212.2" y1="72.5" x2="212.2" y2="123.5"/>
</g>
<g>
	<g>
		<g>
			<path class="st6" d="M112.1,100.7l-0.7,9.8c0,0,3.9,3.4,4.9-3.2C117.3,100.7,112.1,100.7,112.1,100.7z"/>
		</g>
	</g>
	<g>
		<path class="st4" d="M211.2,50.6l-99.1,50.1l-0.7,9.7c0,0,1.7,1.7,5.4-0.8c2.1-1.4,35.5-18.5,64.2-33.2c21.8-11.1,32-16.8,32.6-17
			c1.2-0.6,1.2-4.2,0.5-6.3C213.5,51.2,211.2,50.6,211.2,50.6z"/>
		<g>
			<path class="st7" d="M112.1,100.7l-0.7,9.8c0,0,3.9,3.4,4.9-3.2C117.3,100.7,112.1,100.7,112.1,100.7z"/>
		</g>
	</g>
	<g>
		<path class="st4" d="M235,52.8l-108.1,53.9l-0.7,9.7c0,0,1.7,1.7,5.4-0.8c3.7-2.5,104.5-53.8,105.7-54.4c1.2-0.6,1.4-4.4,0.8-6.4
			C237.5,52.9,235,52.8,235,52.8z"/>
		<g>
			<path class="st7" d="M126.9,106.8l-0.7,9.8c0,0,3.9,3.4,4.9-3.2S126.9,106.8,126.9,106.8z"/>
		</g>
	</g>
	<g>
		<g>
			<path class="st73" d="M129.6,94.2c-0.5,0-0.9-0.4-0.9-0.9l-0.3-24.2l0.1-0.2c0.1-0.2,0.2-0.4,0.3-0.6c0.9-1.5,1.7-3,5-3.3
				c0.5,0,1,0.3,1,0.9c0,0.5-0.3,1-0.9,1c-2.3,0.2-2.7,0.9-3.5,2.3c-0.1,0.1-0.1,0.2-0.2,0.4l0.3,23.7
				C130.5,93.8,130.1,94.2,129.6,94.2C129.6,94.2,129.6,94.2,129.6,94.2z"/>
		</g>
		<g>
			<path class="st73" d="M188.4,63.6c-0.5,0-0.9-0.4-0.9-0.9c0-0.9-0.2-21.3-0.1-23.1c0-2.4,2.6-4.1,5.1-4.4c0.5-0.1,1,0.3,1,0.8
				c0.1,0.5-0.3,1-0.8,1c-1.6,0.2-3.5,1.3-3.5,2.6c0,1.8,0.1,22.9,0.1,23.1C189.4,63.2,188.9,63.6,188.4,63.6
				C188.4,63.6,188.4,63.6,188.4,63.6z"/>
		</g>
		<g>
			<path class="st4" d="M209.8,28.5c0,0-88.9,43.8-93.5,47.2c-4.6,4.6-1.9,9,0.6,10.3c2.5,1.4,5.3,2.3,8.9-0.1
				c1-0.7,10.6-5.6,24.2-12.6c36.8-18.8,64.1-33,65-33.5c1.2-0.6,2.3-5.2,0.3-8.3C213.2,28.5,209.8,28.5,209.8,28.5z"/>
			<circle class="st12" cx="120.6" cy="81.1" r="6.9"/>
			<circle class="st2" cx="120.2" cy="81.7" r="5.4"/>
			<circle class="st7" cx="119.6" cy="81.9" r="4.8"/>
			<g>
				<circle class="st2" cx="119.9" cy="81.8" r="1.4"/>
				<g>
					<path class="st74" d="M114.3,85.5c-0.4,0-0.8-0.3-0.9-0.6c-0.3-0.5,0-1.2,0.5-1.5l5.3-2.5c0.5-0.3,1.2,0,1.5,0.5
						c0.3,0.5,0,1.2-0.5,1.5l-5.3,2.5C114.6,85.5,114.4,85.5,114.3,85.5z"/>
				</g>
			</g>
		</g>
		<g>
			<path class="st73" d="M132.6,65.2c2.3-1,5.7,0.8,6.9,1.8c2.3,2.1,3.5,5.7,3.5,10.7l-0.1,23.2c0,0.5-0.4,0.9-0.9,0.9c0,0,0,0,0,0
				c-0.5,0-0.9-0.4-0.9-0.9l0.1-23.2c0-4.5-1-7.6-2.9-9.3c-1.4-1.2-3.5-2-5.5-1.4"/>
		</g>
		<g>
			<path class="st73" d="M191.6,35.2c0,0,3.4-1,6.2,1.1c2.7,2,4.1,6,4.1,11.8l0,23.5c0,0.5-0.4,0.9-0.9,0.9c-0.5,0-0.9-0.4-0.9-0.9
				l0-23.5c0-5.1-1.1-8.6-3.3-10.3c-2-1.5-4.4-1.1-4.5-1.1"/>
		</g>
	</g>
</g>
<g>
	<line class="st71" x1="140.4" y1="113.8" x2="140.4" y2="171.9"/>
	<line class="st71" x1="149" y1="109.5" x2="149" y2="167.8"/>
	<line class="st71" x1="157.7" y1="105.2" x2="157.7" y2="163.6"/>
	<line class="st71" x1="166.4" y1="100.8" x2="166.4" y2="159.5"/>
	<line class="st71" x1="175" y1="96.5" x2="175" y2="155.4"/>
	<line class="st71" x1="183.7" y1="92.2" x2="183.7" y2="151.3"/>
	<line class="st71" x1="192.4" y1="87.8" x2="192.4" y2="147.1"/>
	<line class="st71" x1="201" y1="83.5" x2="201" y2="143"/>
	<line class="st71" x1="209.7" y1="79.1" x2="209.7" y2="138.9"/>
	<line class="st71" x1="218.3" y1="74.8" x2="218.3" y2="134.8"/>
	<line class="st71" x1="227" y1="70.5" x2="227" y2="130.6"/>
</g>
<g>
	<line class="st72" x1="151.4" y1="123.7" x2="151.4" y2="172.3"/>
	<line class="st72" x1="158.5" y1="119.7" x2="158.5" y2="168.6"/>
	<line class="st72" x1="165.7" y1="115.8" x2="165.7" y2="164.9"/>
	<line class="st72" x1="172.9" y1="111.9" x2="172.9" y2="161.2"/>
	<line class="st72" x1="180.1" y1="108" x2="180.1" y2="157.5"/>
	<line class="st72" x1="187.3" y1="104" x2="187.3" y2="153.8"/>
	<line class="st72" x1="194.5" y1="100.1" x2="194.5" y2="150.1"/>
	<line class="st72" x1="201.6" y1="96.2" x2="201.6" y2="146.3"/>
	<line class="st72" x1="208.8" y1="92.2" x2="208.8" y2="142.6"/>
	<line class="st72" x1="216" y1="88.3" x2="216" y2="138.9"/>
	<line class="st72" x1="223.2" y1="84.4" x2="223.2" y2="135.2"/>
	<line class="st72" x1="230.4" y1="80.5" x2="230.4" y2="131.5"/>
</g>
<g>
	<g>
		<g>
			<path class="st6" d="M131.2,108.7l-0.7,9.8c0,0,3.9,3.4,4.9-3.2S131.2,108.7,131.2,108.7z"/>
		</g>
	</g>
	<g>
		<path class="st4" d="M230.3,58.6l-99.1,50.1l-0.7,9.7c0,0,1.7,1.7,5.4-0.8c2.1-1.4,35.5-18.5,64.2-33.2c21.8-11.1,32-16.8,32.6-17
			c1.2-0.6,1.2-4.2,0.5-6.3C232.6,59.1,230.3,58.6,230.3,58.6z"/>
		<g>
			<path class="st7" d="M131.2,108.7l-0.7,9.8c0,0,3.9,3.4,4.9-3.2S131.2,108.7,131.2,108.7z"/>
		</g>
	</g>
	<g>
		<path class="st4" d="M254.2,60.8L146,114.7l-0.7,9.7c0,0,1.7,1.7,5.4-0.8c3.7-2.5,104.5-53.8,105.7-54.4c1.2-0.6,1.4-4.4,0.8-6.4
			S254.2,60.8,254.2,60.8z"/>
		<g>
			<path class="st7" d="M146,114.7l-0.7,9.8c0,0,3.9,3.4,4.9-3.2C151.3,114.7,146,114.7,146,114.7z"/>
		</g>
	</g>
	<g>
		<g>
			<path class="st73" d="M148.7,102.2c-0.5,0-0.9-0.4-0.9-0.9L147.5,77l0.1-0.2c0.1-0.2,0.2-0.4,0.3-0.6c0.9-1.5,1.7-3,5-3.3
				c0.5,0,1,0.3,1,0.9c0,0.5-0.3,1-0.9,1c-2.3,0.2-2.7,0.9-3.5,2.3c-0.1,0.1-0.1,0.2-0.2,0.4l0.3,23.7
				C149.6,101.8,149.2,102.2,148.7,102.2C148.7,102.2,148.7,102.2,148.7,102.2z"/>
		</g>
		<g>
			<path class="st73" d="M207.5,71.6c-0.5,0-0.9-0.4-0.9-0.9c0-0.9-0.2-21.3-0.1-23.1c0-2.4,2.6-4.1,5.1-4.4c0.5-0.1,1,0.3,1,0.8
				c0.1,0.5-0.3,1-0.8,1c-1.6,0.2-3.5,1.3-3.5,2.6c0,1.8,0.1,22.9,0.1,23.1C208.5,71.2,208,71.6,207.5,71.6
				C207.5,71.6,207.5,71.6,207.5,71.6z"/>
		</g>
		<g>
			<path class="st4" d="M228.9,36.4c0,0-88.9,43.8-93.5,47.2c-4.6,4.6-1.9,9,0.6,10.3c2.5,1.4,5.3,2.3,8.9-0.1
				c1-0.7,10.6-5.6,24.2-12.6c36.8-18.8,64.1-33,65-33.5c1.2-0.6,2.3-5.2,0.3-8.3S228.9,36.4,228.9,36.4z"/>
			<circle class="st12" cx="139.7" cy="89" r="6.9"/>
			<circle class="st2" cx="139.3" cy="89.7" r="5.4"/>
			<circle class="st7" cx="138.7" cy="89.8" r="4.8"/>
			<g>
				<circle class="st2" cx="139" cy="89.7" r="1.4"/>
				<g>
					<path class="st74" d="M133.4,93.4c-0.4,0-0.8-0.3-0.9-0.6c-0.3-0.5,0-1.2,0.5-1.5l5.3-2.5c0.5-0.3,1.2,0,1.5,0.5
						c0.3,0.5,0,1.2-0.5,1.5l-5.3,2.5C133.7,93.4,133.5,93.4,133.4,93.4z"/>
				</g>
			</g>
		</g>
		<g>
			<path class="st73" d="M151.7,73.2c2.3-1,5.7,0.8,6.9,1.8c2.3,2.1,3.5,5.7,3.5,10.7l-0.1,23.2c0,0.5-0.4,0.9-0.9,0.9c0,0,0,0,0,0
				c-0.5,0-0.9-0.4-0.9-0.9l0.1-23.2c0-4.5-1-7.6-2.9-9.3c-1.4-1.2-3.5-2-5.5-1.4"/>
		</g>
		<g>
			<path class="st73" d="M210.7,43.2c0,0,3.4-1,6.2,1.1c2.7,2,4.1,6,4.1,11.8l0,23.5c0,0.5-0.4,0.9-0.9,0.9c-0.5,0-0.9-0.4-0.9-0.9
				l0-23.5c0-5.1-1.1-8.6-3.3-10.3c-2-1.5-4.4-1.1-4.5-1.1"/>
		</g>
	</g>
</g>
<g>
	<line class="st71" x1="161.2" y1="123.4" x2="161.2" y2="181.5"/>
	<line class="st71" x1="169.8" y1="119.1" x2="169.8" y2="177.3"/>
	<line class="st71" x1="178.5" y1="114.7" x2="178.5" y2="173.2"/>
	<line class="st71" x1="187.2" y1="110.4" x2="187.2" y2="169.1"/>
	<line class="st71" x1="195.8" y1="106.1" x2="195.8" y2="164.9"/>
	<line class="st71" x1="204.5" y1="101.7" x2="204.5" y2="160.8"/>
	<line class="st71" x1="213.2" y1="97.4" x2="213.2" y2="156.7"/>
	<line class="st71" x1="221.8" y1="93" x2="221.8" y2="152.6"/>
	<line class="st71" x1="230.5" y1="88.7" x2="230.5" y2="148.4"/>
	<line class="st71" x1="239.1" y1="84.4" x2="239.1" y2="144.3"/>
	<line class="st71" x1="247.8" y1="80" x2="247.8" y2="140.2"/>
</g>
<g>
	<line class="st72" x1="173.1" y1="133.2" x2="173.1" y2="181.9"/>
	<line class="st72" x1="180.3" y1="129.3" x2="180.3" y2="178.2"/>
	<line class="st72" x1="187.4" y1="125.4" x2="187.4" y2="174.5"/>
	<line class="st72" x1="194.6" y1="121.5" x2="194.6" y2="170.8"/>
	<line class="st72" x1="201.8" y1="117.5" x2="201.8" y2="167"/>
	<line class="st72" x1="209" y1="113.6" x2="209" y2="163.3"/>
	<line class="st72" x1="216.2" y1="109.7" x2="216.2" y2="159.6"/>
	<line class="st72" x1="223.4" y1="105.7" x2="223.4" y2="155.9"/>
	<line class="st72" x1="230.5" y1="101.8" x2="230.5" y2="152.2"/>
	<line class="st72" x1="237.7" y1="97.9" x2="237.7" y2="148.5"/>
	<line class="st72" x1="244.9" y1="93.9" x2="244.9" y2="144.8"/>
	<line class="st72" x1="252.1" y1="90" x2="252.1" y2="141.1"/>
</g>
<g>
	<g>
		<g>
			<path class="st6" d="M152,118.2l-0.7,9.8c0,0,3.9,3.4,4.9-3.2S152,118.2,152,118.2z"/>
		</g>
	</g>
	<g>
		<path class="st4" d="M251.1,68.1L152,118.2l-0.7,9.7c0,0,1.7,1.7,5.4-0.8c2.1-1.4,35.5-18.5,64.2-33.2c21.8-11.1,32-16.8,32.6-17
			c1.2-0.6,1.2-4.2,0.5-6.3C253.4,68.7,251.1,68.1,251.1,68.1z"/>
		<g>
			<path class="st7" d="M152,118.2l-0.7,9.8c0,0,3.9,3.4,4.9-3.2S152,118.2,152,118.2z"/>
		</g>
	</g>
	<g>
		<path class="st4" d="M275,70.4l-108.1,53.9l-0.7,9.7c0,0,1.7,1.7,5.4-0.8c3.7-2.5,104.5-53.8,105.7-54.4c1.2-0.6,1.4-4.4,0.8-6.4
			C277.4,70.4,275,70.4,275,70.4z"/>
		<g>
			<path class="st7" d="M166.9,124.3l-0.7,9.8c0,0,3.9,3.4,4.9-3.2C172.1,124.3,166.9,124.3,166.9,124.3z"/>
		</g>
	</g>
	<g>
		<g>
			<path class="st73" d="M169.5,111.8c-0.5,0-0.9-0.4-0.9-0.9l-0.3-24.2l0.1-0.2c0.1-0.2,0.2-0.4,0.3-0.6c0.9-1.5,1.7-3,5-3.3
				c0.5,0,1,0.3,1,0.9c0,0.5-0.3,1-0.9,1c-2.3,0.2-2.7,0.9-3.5,2.3c-0.1,0.1-0.1,0.2-0.2,0.4l0.3,23.7
				C170.4,111.3,170,111.8,169.5,111.8C169.5,111.8,169.5,111.8,169.5,111.8z"/>
		</g>
		<g>
			<path class="st73" d="M228.3,81.1c-0.5,0-0.9-0.4-0.9-0.9c0-0.9-0.2-21.3-0.1-23.1c0-2.4,2.6-4.1,5.1-4.4c0.5-0.1,1,0.3,1,0.8
				c0.1,0.5-0.3,1-0.8,1c-1.6,0.2-3.5,1.3-3.5,2.6c0,1.8,0.1,22.9,0.1,23.1C229.3,80.7,228.9,81.1,228.3,81.1
				C228.3,81.1,228.3,81.1,228.3,81.1z"/>
		</g>
		<g>
			<path class="st4" d="M249.7,46c0,0-88.9,43.8-93.5,47.2c-4.6,4.6-1.9,9,0.6,10.3c2.5,1.4,5.3,2.3,8.9-0.1
				c1-0.7,10.6-5.6,24.2-12.6c36.8-18.8,64.1-33,65-33.5c1.2-0.6,2.3-5.2,0.3-8.3C253.1,46,249.7,46,249.7,46z"/>
			<circle class="st12" cx="160.5" cy="98.6" r="6.9"/>
			<circle class="st2" cx="160.1" cy="99.2" r="5.4"/>
			<circle class="st7" cx="159.6" cy="99.4" r="4.8"/>
			<g>
				<circle class="st2" cx="159.8" cy="99.3" r="1.4"/>
				<g>
					<path class="st74" d="M154.2,103c-0.4,0-0.8-0.3-0.9-0.6c-0.3-0.5,0-1.2,0.5-1.5l5.3-2.5c0.5-0.3,1.2,0,1.5,0.5
						c0.3,0.5,0,1.2-0.5,1.5l-5.3,2.5C154.5,103,154.3,103,154.2,103z"/>
				</g>
			</g>
		</g>
		<g>
			<path class="st73" d="M172.5,82.7c2.3-1,5.7,0.8,6.9,1.8c2.3,2.1,3.5,5.7,3.5,10.7l-0.1,23.2c0,0.5-0.4,0.9-0.9,0.9c0,0,0,0,0,0
				c-0.5,0-0.9-0.4-0.9-0.9l0.1-23.2c0-4.5-1-7.6-2.9-9.3c-1.4-1.2-3.5-2-5.5-1.4"/>
		</g>
		<g>
			<path class="st73" d="M231.5,52.8c0,0,3.4-1,6.2,1.1c2.7,2,4.1,6,4.1,11.8l0,23.5c0,0.5-0.4,0.9-0.9,0.9c-0.5,0-0.9-0.4-0.9-0.9
				l0-23.5c0-5.1-1.1-8.6-3.3-10.3c-2-1.5-4.4-1.1-4.5-1.1"/>
		</g>
	</g>
</g>
<path class="st1" d="M32.7,73.1l4.1-1.9l16,8l-0.4,98.4l-3,1.6c0.1,1.2-0.4-97.9-0.4-97.9L32.7,73.1z"/>
<polygon class="st3" points="200.7,80.3 206.7,83.5 206.6,209.9 200.6,206.7 "/>
<g>
	<path class="st2" d="M200,207.9c-0.7,0-1.3-0.4-1.6-1c-0.4-0.9,0.1-1.8,0.9-2.2l3.3-1.3c0.9-0.4,1.8,0.1,2.2,0.9
		c0.4,0.9-0.1,1.8-0.9,2.2l-3.3,1.3C200.4,207.9,200.2,207.9,200,207.9z"/>
</g>
<g>
	<path class="st2" d="M200,185.3c-0.7,0-1.3-0.4-1.6-1c-0.4-0.9,0.1-1.8,0.9-2.2l3.3-1.3c0.9-0.4,1.8,0.1,2.2,0.9
		c0.4,0.9-0.1,1.8-0.9,2.2l-3.3,1.3C200.4,185.3,200.2,185.3,200,185.3z"/>
</g>
<path class="st4" d="M200.8,80.3l98.1-50.4l5.2,2.9l-97.4,50.6C206.7,83.4,200.8,80.3,200.8,80.3z"/>
<g>
	<path class="st2" d="M295.9,135.4l3.2-1.5c0.8-0.4,1.8,0,2.2,0.8c0.4,0.8,0,1.8-0.8,2.2l-3.2,1.5"/>
</g>
<g>
	<path class="st2" d="M297.8,156.5l1-0.5c0.8-0.4,1.8,0,2.2,0.8c0.4,0.8,0,1.8-0.8,2.2l-1.6,0.8"/>
</g>
<line class="st3" x1="394" y1="172.2" x2="396.6" y2="171.1"/>
<line class="st3" x1="49.2" y1="81.4" x2="52.9" y2="79.4"/>
<ellipse class="st12" cx="238.7" cy="237.3" rx="9.3" ry="8.7"/>
<g>
	<circle class="st11" cx="238.7" cy="237.7" r="6.2"/>
	<circle class="st7" cx="238.1" cy="237.8" r="5.4"/>
</g>
<g>
	<circle class="st11" cx="237.2" cy="257.7" r="8.7"/>
	<circle class="st7" cx="236.3" cy="257.9" r="7.6"/>
</g>
<g>
	<line class="st11" x1="216.5" y1="261.7" x2="219.7" y2="260.2"/>
</g>
<line class="st4" x1="186.8" y1="12.5" x2="190.2" y2="10.5"/>
<ellipse class="st3" cx="21.5" cy="148.4" rx="14" ry="14.9"/>
<polygon class="st3" points="8.6,124.8 8.2,159.4 24.9,167.3 25,133.2 "/>
<polygon class="st4" points="8.4,124.7 11.7,123.3 28.3,131.5 28.3,165.6 25,167.1 25,133.1 "/>
<g>
	<circle class="st4" cx="17.3" cy="148.3" r="2.6"/>
	<g>
		<path class="st74" d="M4.9,156.2c-0.6,0-1.2-0.3-1.5-0.9c-0.4-0.8-0.1-1.8,0.8-2.2l12.2-5.9c0.8-0.4,1.8-0.1,2.2,0.8
			c0.4,0.8,0.1,1.8-0.8,2.2L5.6,156C5.3,156.2,5.1,156.2,4.9,156.2z"/>
	</g>
</g>
<g>
	<circle class="st2" cx="236.3" cy="258" r="1.4"/>
	<g>
		<path class="st74" d="M229.9,262.3c-0.4,0-0.8-0.3-0.9-0.6c-0.3-0.5,0-1.2,0.5-1.5l6.1-3c0.5-0.3,1.2,0,1.5,0.5
			c0.3,0.5,0,1.2-0.5,1.5l-6.1,3C230.2,262.3,230.1,262.3,229.9,262.3z"/>
	</g>
</g>
<g>
	<circle class="st2" cx="238.1" cy="237.7" r="1.4"/>
	<g>
		<path class="st74" d="M232.4,241.4c-0.4,0-0.8-0.3-0.9-0.6c-0.3-0.5,0-1.2,0.5-1.5l5.3-2.5c0.5-0.3,1.2,0,1.5,0.5
			c0.3,0.5,0,1.2-0.5,1.5l-5.3,2.5C232.8,241.4,232.6,241.4,232.4,241.4z"/>
	</g>
</g>
<polygon class="st0" points="32.8,73.1 34,171.4 49.6,179.3 49.5,81.3 "/>
<g>
	<circle class="st4" cx="41.4" cy="99" r="2.6"/>
	<g>
		<path class="st74" d="M28.9,106.8c-0.6,0-1.2-0.3-1.5-0.9c-0.4-0.8-0.1-1.8,0.8-2.2l12.2-5.9c0.8-0.4,1.8-0.1,2.2,0.8
			c0.4,0.8,0.1,1.8-0.8,2.2l-12.2,5.9C29.4,106.8,29.2,106.8,28.9,106.8z"/>
	</g>
</g>
<line class="st3" x1="25" y1="133.2" x2="28.2" y2="131.5"/>
<g>
	<g>
		<path class="st75" d="M314.5,169.3c0.6-0.3,1.2-0.6,1.8-1c0.1,0,0.2-0.1,0.3-0.1c0.1-0.1,0.2-0.1,0.3-0.2c0-0.1,0.1-0.2,0-0.3
			c-0.2-0.2-0.5-0.1-0.7,0c-0.6,0.3-1.2,0.6-1.8,1c-0.1,0-0.2,0.1-0.3,0.1c-0.1,0.1-0.2,0.1-0.3,0.2c0,0.1-0.1,0.2,0,0.3
			C314,169.4,314.3,169.4,314.5,169.3L314.5,169.3z"/>
	</g>
</g>
<path class="st13" d="M321.8,173.1c0,0,1.9-0.9,2.1-1.3"/>
<g>
	<g>
		<path class="st75" d="M326.5,175.1c0.5-0.3,1-0.6,1.6-0.8c0.1,0,0.2-0.1,0.2-0.1c0.1-0.1,0.2-0.1,0.3-0.2c0-0.1,0.1-0.2,0-0.2
			c-0.2-0.2-0.5-0.1-0.7,0c-0.5,0.3-1,0.6-1.6,0.8c-0.1,0-0.2,0.1-0.2,0.1c-0.1,0.1-0.2,0.1-0.3,0.2c0,0.1-0.1,0.2,0,0.2
			C326,175.2,326.3,175.2,326.5,175.1L326.5,175.1z"/>
	</g>
</g>
<line class="st13" x1="328.1" y1="175.6" x2="330.2" y2="174.5"/>
<line class="st13" x1="346.5" y1="194.6" x2="347.8" y2="193.9"/>
<line class="st13" x1="352.6" y1="204.6" x2="354" y2="203.8"/>
<line class="st13" x1="277.7" y1="229.1" x2="283.4" y2="226.2"/>
<line class="st13" x1="350.4" y1="198.8" x2="351.8" y2="198.1"/>
<line class="st13" x1="352.4" y1="202.8" x2="353.8" y2="202.1"/>
<line class="st13" x1="284.5" y1="238.3" x2="287.3" y2="236.8"/>
<line class="st13" x1="284.2" y1="244.1" x2="287.1" y2="242.6"/>
<path class="st13" d="M249.8,208.7c0.4-0.1,2.8-1.5,2.8-1.5"/>
<line class="st13" x1="241.7" y1="204" x2="254.6" y2="197.5"/>
<line class="st13" x1="256.3" y1="196.6" x2="269.3" y2="190.1"/>
<line class="st13" x1="270.7" y1="189.3" x2="283.7" y2="182.8"/>
<line class="st13" x1="285.8" y1="181.6" x2="298.7" y2="175.1"/>
<line class="st13" x1="300.5" y1="174.2" x2="313" y2="167.9"/>
<line class="st13" x1="278.1" y1="227.4" x2="289.8" y2="221.5"/>
<line class="st13" x1="291.4" y1="220.6" x2="303.6" y2="214.6"/>
<line class="st13" x1="305.3" y1="213.6" x2="316.9" y2="207.7"/>
<line class="st13" x1="318.5" y1="206.9" x2="330.5" y2="201"/>
<line class="st13" x1="332.7" y1="199.8" x2="344.5" y2="193.7"/>
<line class="st13" x1="285.1" y1="234.4" x2="296.7" y2="228.4"/>
<line class="st13" x1="298.8" y1="227.1" x2="310.1" y2="221.3"/>
<line class="st13" x1="312.4" y1="220" x2="324" y2="214.1"/>
<line class="st13" x1="325.8" y1="213.2" x2="337.4" y2="207.1"/>
<line class="st13" x1="339.5" y1="206" x2="351.3" y2="199.9"/>
<line class="st13" x1="285.6" y1="225.1" x2="297.4" y2="219.2"/>
<line class="st13" x1="299" y1="218.3" x2="311.1" y2="212.2"/>
<line class="st13" x1="312.6" y1="211.6" x2="324.4" y2="205.7"/>
<line class="st13" x1="326.6" y1="204.5" x2="337.6" y2="199.1"/>
<line class="st13" x1="339.8" y1="197.9" x2="347.5" y2="194.2"/>
<line class="st13" x1="284.2" y1="236.5" x2="289.9" y2="233.7"/>
<line class="st13" x1="291.8" y1="232.6" x2="303.2" y2="226.7"/>
<line class="st13" x1="305.2" y1="225.6" x2="316.8" y2="219.6"/>
<line class="st13" x1="319" y1="218.5" x2="330.6" y2="212.4"/>
<line class="st13" x1="332.5" y1="211.4" x2="343.5" y2="205.7"/>
<line class="st13" x1="346.1" y1="204.3" x2="353.2" y2="200.7"/>
<line class="st13" x1="279.6" y1="230.3" x2="290.6" y2="224.6"/>
<line class="st13" x1="292.7" y1="223.6" x2="304.1" y2="217.8"/>
<line class="st13" x1="306.1" y1="216.8" x2="318.2" y2="210.8"/>
<line class="st13" x1="320" y1="209.8" x2="331.1" y2="204.1"/>
<line class="st13" x1="333.3" y1="203.1" x2="344.8" y2="197.3"/>
<line class="st13" x1="346.7" y1="196.2" x2="349" y2="195.1"/>
<line class="st13" x1="284.8" y1="238.1" x2="295.9" y2="232.3"/>
<line class="st13" x1="297.3" y1="231.6" x2="308.8" y2="225.5"/>
<line class="st13" x1="311" y1="224.3" x2="322.5" y2="218.4"/>
<line class="st13" x1="324.7" y1="217.2" x2="335.6" y2="211.5"/>
<line class="st13" x1="338.4" y1="210.1" x2="349.4" y2="204.4"/>
<line class="st13" x1="352" y1="205" x2="354.3" y2="203.8"/>
<line class="st13" x1="286.8" y1="229" x2="297.8" y2="223.2"/>
<line class="st13" x1="299.9" y1="222.2" x2="311.3" y2="216.4"/>
<line class="st13" x1="313.3" y1="215.4" x2="324.8" y2="209.6"/>
<line class="st13" x1="327.1" y1="208.4" x2="338.3" y2="202.7"/>
<line class="st13" x1="340.3" y1="201.7" x2="350.6" y2="196.5"/>
<line class="st13" x1="248.1" y1="203.6" x2="260" y2="197.4"/>
<line class="st13" x1="262.8" y1="196" x2="274.4" y2="189.9"/>
<line class="st13" x1="276.5" y1="188.8" x2="288.3" y2="182.6"/>
<line class="st13" x1="291.4" y1="181" x2="302.7" y2="175.1"/>
<line class="st13" x1="305.8" y1="173.5" x2="316.4" y2="167.9"/>
<line class="st13" x1="267.6" y1="205.8" x2="279.4" y2="199.6"/>
<line class="st13" x1="282.1" y1="198.1" x2="293.8" y2="191.9"/>
<line class="st13" x1="296" y1="190.7" x2="307.9" y2="184.6"/>
<line class="st13" x1="310.8" y1="182.9" x2="322.4" y2="176.9"/>
<line class="st13" x1="261.1" y1="200.7" x2="273.2" y2="194.4"/>
<path class="st13" d="M248.1,207.9c-0.1-0.2,0.1-0.4,0.1-0.4l11.3-5.9"/>
<line class="st13" x1="275.7" y1="193" x2="288" y2="186.7"/>
<line class="st13" x1="290.1" y1="185.7" x2="301.9" y2="179.5"/>
<line class="st13" x1="304.4" y1="178.1" x2="316.7" y2="171.7"/>
<line class="st13" x1="273.6" y1="208.7" x2="285.7" y2="202.4"/>
<polyline class="st13" points="259.9,215.8 260.6,215.5 271.9,209.6 "/>
<line class="st13" x1="288.2" y1="201" x2="300.5" y2="194.7"/>
<line class="st13" x1="302.9" y1="193.5" x2="314.8" y2="187.3"/>
<line class="st13" x1="317.2" y1="186" x2="329.5" y2="179.5"/>
<line class="st13" x1="269.1" y1="198.5" x2="280.9" y2="192.3"/>
<line class="st13" x1="255.6" y1="205.6" x2="267.1" y2="199.5"/>
<line class="st13" x1="283.5" y1="191" x2="295.7" y2="184.6"/>
<line class="st13" x1="297.8" y1="183.6" x2="309.6" y2="177.4"/>
<path class="st13" d="M312.1,176.2c0,0,8-4.2,9.7-5c0.2-0.1,0.7-0.1,0.7-0.1"/>
<line class="st13" x1="279" y1="208" x2="291" y2="201.8"/>
<line class="st13" x1="264.9" y1="215.1" x2="276.8" y2="209.1"/>
<line class="st13" x1="293.6" y1="200.5" x2="305.3" y2="194.4"/>
<line class="st13" x1="307.8" y1="193.2" x2="319.6" y2="187"/>
<path class="st13" d="M322.2,185.7c0,0,8-4.2,9.7-5c0.2-0.1,0.7-0.1,0.7-0.1"/>
<path class="st13" d="M258.1,212.6c0.4-0.1,2.8-1.5,2.8-1.5"/>
<line class="st13" x1="277.3" y1="202.3" x2="289" y2="196.2"/>
<line class="st13" x1="263.9" y1="209.6" x2="275.4" y2="203.5"/>
<line class="st13" x1="291.3" y1="195" x2="303.5" y2="188.6"/>
<line class="st13" x1="305.7" y1="187.4" x2="317.5" y2="181.2"/>
<path class="st13" d="M319.8,179.9c0,0,8.1-4.2,9.8-5c0.2-0.1,0.6-0.4,0.6-0.4"/>
<line class="st13" x1="277.8" y1="196" x2="289.1" y2="190.1"/>
<line class="st13" x1="262.9" y1="203.8" x2="274.5" y2="197.7"/>
<path class="st13" d="M253.1,209.5c-0.3-0.1-0.1-0.6-0.1-0.6l8.1-4.2"/>
<path class="st13" d="M292,188.6c0,0,11.6-5.8,11.4-5.8"/>
<line class="st13" x1="305.9" y1="181.4" x2="317.6" y2="175.3"/>
<line class="st13" x1="285.5" y1="194.1" x2="296.8" y2="188.2"/>
<line class="st13" x1="271.3" y1="201.6" x2="282.8" y2="195.5"/>
<polyline class="st13" points="257.3,208.9 261.5,206.7 269.5,202.5 "/>
<path class="st13" d="M299.5,186.6c0,0,11.6-5.8,11.4-5.8"/>
<line class="st13" x1="313.1" y1="179.6" x2="324.9" y2="173.5"/>
<path class="st13" d="M320.2,174.1c0,0,1.9-1,4-2.1"/>
<line class="st13" x1="284.6" y1="207.1" x2="296" y2="201.3"/>
<line class="st13" x1="269.6" y1="214.7" x2="281.3" y2="208.7"/>
<line class="st13" x1="259.6" y1="219.7" x2="267.4" y2="215.9"/>
<path class="st13" d="M299.1,199.8c0,0,11.8-6.3,11.7-6.3"/>
<line class="st13" x1="314" y1="192.2" x2="325.4" y2="186.1"/>
<line class="st13" x1="328.4" y1="184.9" x2="333.5" y2="182.1"/>
<line class="st13" x1="284.8" y1="200.7" x2="296.1" y2="194.8"/>
<line class="st13" x1="269.7" y1="208.8" x2="281.3" y2="202.7"/>
<path class="st13" d="M259.9,214.4c-0.3-0.1-0.1-0.6-0.1-0.6l8.1-4.2"/>
<path class="st13" d="M298.8,193.4c0,0,11.5-6,11.3-6"/>
<line class="st13" x1="312.5" y1="186.2" x2="324.2" y2="180"/>
<path class="st13" d="M327,178.6c0,0,2.6-1.4,4.7-2.5"/>
<line class="st13" x1="270.7" y1="193.4" x2="282.1" y2="187.6"/>
<line class="st13" x1="255.4" y1="201.3" x2="267.3" y2="195.2"/>
<polyline class="st13" points="244.5,207 245.5,206.4 253.6,202.2 "/>
<line class="st13" x1="285.2" y1="186" x2="296.8" y2="180"/>
<line class="st13" x1="299.3" y1="178.7" x2="311" y2="172.6"/>
<path class="st13" d="M314.2,170.8c0,0,1.9-1,4-2.1"/>
<line class="st13" x1="324" y1="175.9" x2="327.6" y2="174.2"/>
<path class="st13" d="M242.6,206.6c0,0-0.3-0.2,2-1.3"/>
<line class="st13" x1="257.6" y1="211.2" x2="265.3" y2="207"/>
<line class="st13" x1="259.9" y1="217.7" x2="262.1" y2="216.6"/>
<line class="st13" x1="281" y1="231.9" x2="284" y2="230.4"/>
<line class="st13" x1="289.8" y1="241.5" x2="300.8" y2="235.7"/>
<line class="st13" x1="303.1" y1="234.6" x2="314.3" y2="229"/>
<line class="st13" x1="316.9" y1="227.6" x2="328.3" y2="221.8"/>
<line class="st13" x1="330.7" y1="220.8" x2="341.7" y2="214.9"/>
<line class="st13" x1="344.6" y1="213.5" x2="354" y2="208.7"/>
<line class="st13" x1="284.5" y1="244" x2="287.5" y2="242.5"/>
<line class="st13" x1="289.6" y1="237.8" x2="300.7" y2="232"/>
<line class="st13" x1="302.9" y1="230.8" x2="314.3" y2="224.8"/>
<line class="st13" x1="316.9" y1="223.5" x2="328.3" y2="217.5"/>
<line class="st13" x1="330.7" y1="216.2" x2="341.5" y2="210.5"/>
<line class="st13" x1="344.1" y1="209.2" x2="354.3" y2="203.8"/>
<line class="st13" x1="284.7" y1="240.3" x2="287.7" y2="238.8"/>
<line class="st13" x1="292.9" y1="228.1" x2="303.9" y2="222.3"/>
<line class="st13" x1="306" y1="221.4" x2="317.4" y2="215.6"/>
<line class="st13" x1="319.4" y1="214.6" x2="330.8" y2="208.6"/>
<line class="st13" x1="333.2" y1="207.4" x2="344.4" y2="201.8"/>
<line class="st13" x1="346.4" y1="200.8" x2="351.3" y2="198.3"/>
<polyline class="st13" points="282.2,233.5 290.1,229.5 287.1,231 "/>
<line class="st13" x1="298.1" y1="235.4" x2="309" y2="229.7"/>
<line class="st13" x1="311.7" y1="228.3" x2="322.9" y2="222.6"/>
<line class="st13" x1="325.4" y1="221.2" x2="336.9" y2="215.3"/>
<line class="st13" x1="338.9" y1="214.2" x2="350.2" y2="208.3"/>
<line class="st13" x1="352.3" y1="207.1" x2="354.4" y2="205.8"/>
<polyline class="st13" points="284.6,242.4 295,237 292.1,238.5 "/>
</svg>
